solid OpenSCAD_Model
  facet normal 0 1 -0
    outer loop
      vertex -2.7 5.3 2.5
      vertex -3.7 5.3 12
      vertex -2.7 5.3 12
    endloop
  endfacet
  facet normal 0 1 0
    outer loop
      vertex -3.7 5.3 12
      vertex -2.7 5.3 2.5
      vertex -3.7 5.3 2.5
    endloop
  endfacet
  facet normal -1 0 0
    outer loop
      vertex -3.7 4.5 2.5
      vertex -3.7 5.3 12
      vertex -3.7 5.3 2.5
    endloop
  endfacet
  facet normal -1 -0 0
    outer loop
      vertex -3.7 5.3 12
      vertex -3.7 4.5 2.5
      vertex -3.7 4.5 12
    endloop
  endfacet
  facet normal 0 -1 0
    outer loop
      vertex -3.7 4.5 2.5
      vertex -2.7 4.5 12
      vertex -3.7 4.5 12
    endloop
  endfacet
  facet normal 0 -1 -0
    outer loop
      vertex -2.7 4.5 12
      vertex -3.7 4.5 2.5
      vertex -2.7 4.5 2.5
    endloop
  endfacet
  facet normal -0 0 1
    outer loop
      vertex -6.3 -3.5 2.5
      vertex -5.3 -4.7 2.5
      vertex -5.3 -3.5 2.5
    endloop
  endfacet
  facet normal 0 0 1
    outer loop
      vertex -5.3 -4.7 2.5
      vertex -6.3 -3.5 2.5
      vertex -6.3 -4.7 2.5
    endloop
  endfacet
  facet normal -0 0 1
    outer loop
      vertex -6.3 -1.5 2.5
      vertex -5.3 -2.7 2.5
      vertex -5.3 -1.5 2.5
    endloop
  endfacet
  facet normal 0 0 1
    outer loop
      vertex -5.3 -2.7 2.5
      vertex -6.3 -1.5 2.5
      vertex -6.3 -2.7 2.5
    endloop
  endfacet
  facet normal -0 0 1
    outer loop
      vertex -6.3 0.5 2.5
      vertex -5.3 -0.7 2.5
      vertex -5.3 0.5 2.5
    endloop
  endfacet
  facet normal 0 0 1
    outer loop
      vertex -5.3 -0.7 2.5
      vertex -6.3 0.5 2.5
      vertex -6.3 -0.7 2.5
    endloop
  endfacet
  facet normal -0 0 1
    outer loop
      vertex -6.3 2.5 2.5
      vertex -5.3 1.3 2.5
      vertex -5.3 2.5 2.5
    endloop
  endfacet
  facet normal 0 0 1
    outer loop
      vertex -5.3 1.3 2.5
      vertex -6.3 2.5 2.5
      vertex -6.3 1.3 2.5
    endloop
  endfacet
  facet normal -0 0 1
    outer loop
      vertex -6.3 4.5 2.5
      vertex -5.3 3.3 2.5
      vertex -5.3 4.5 2.5
    endloop
  endfacet
  facet normal 0 0 1
    outer loop
      vertex -5.3 3.3 2.5
      vertex -6.3 4.5 2.5
      vertex -6.3 3.3 2.5
    endloop
  endfacet
  facet normal 0 0 1
    outer loop
      vertex -2.7 5.5 2.5
      vertex -3.7 5.3 2.5
      vertex -2.7 5.3 2.5
    endloop
  endfacet
  facet normal 0 0 1
    outer loop
      vertex -5.3 4.5 2.5
      vertex -3.7 4.5 2.5
      vertex -3.7 5.3 2.5
    endloop
  endfacet
  facet normal 0 0 1
    outer loop
      vertex -3.7 4.5 2.5
      vertex -5.3 4.5 2.5
      vertex -3.7 3.3 2.5
    endloop
  endfacet
  facet normal 0 0 1
    outer loop
      vertex -3.7 3.3 2.5
      vertex -5.3 3.3 2.5
      vertex -3.7 2.5 2.5
    endloop
  endfacet
  facet normal 0 0 1
    outer loop
      vertex -5.3 2.5 2.5
      vertex -3.7 2.5 2.5
      vertex -5.3 3.3 2.5
    endloop
  endfacet
  facet normal 0 0 1
    outer loop
      vertex -5.3 1.3 2.5
      vertex -3.7 1.3 2.5
      vertex -5.3 2.5 2.5
    endloop
  endfacet
  facet normal 0 0 1
    outer loop
      vertex -3.7 1.3 2.5
      vertex -5.3 1.3 2.5
      vertex -3.7 0.5 2.5
    endloop
  endfacet
  facet normal 0 0 1
    outer loop
      vertex -3.7 0.5 2.5
      vertex -5.3 0.5 2.5
      vertex -3.7 -0.7 2.5
    endloop
  endfacet
  facet normal 0 0 1
    outer loop
      vertex -5.3 -0.7 2.5
      vertex -3.7 -0.7 2.5
      vertex -5.3 0.5 2.5
    endloop
  endfacet
  facet normal 0 0 1
    outer loop
      vertex -5.3 -1.5 2.5
      vertex -3.7 -1.5 2.5
      vertex -5.3 -0.7 2.5
    endloop
  endfacet
  facet normal 0 0 1
    outer loop
      vertex -3.7 -1.5 2.5
      vertex -5.3 -1.5 2.5
      vertex -3.7 -2.7 2.5
    endloop
  endfacet
  facet normal 0 0 1
    outer loop
      vertex -5.3 4.5 2.5
      vertex -3.7 5.3 2.5
      vertex -5.3 5.3 2.5
    endloop
  endfacet
  facet normal 0 0 1
    outer loop
      vertex -2.7 5.5 2.5
      vertex -5.3 5.3 2.5
      vertex -3.7 5.3 2.5
    endloop
  endfacet
  facet normal -0 0 1
    outer loop
      vertex -6.3 5.5 2.5
      vertex -5.3 5.3 2.5
      vertex -2.7 5.5 2.5
    endloop
  endfacet
  facet normal 0 0 1
    outer loop
      vertex -5.3 5.3 2.5
      vertex -6.3 5.5 2.5
      vertex -6.3 5.3 2.5
    endloop
  endfacet
  facet normal -0 0 1
    outer loop
      vertex -3.7 4.5 2.5
      vertex -2.7 3.3 2.5
      vertex -2.7 4.5 2.5
    endloop
  endfacet
  facet normal 0 0 1
    outer loop
      vertex -2.7 3.3 2.5
      vertex -3.7 4.5 2.5
      vertex -3.7 3.3 2.5
    endloop
  endfacet
  facet normal -0 0 1
    outer loop
      vertex -3.7 2.5 2.5
      vertex -2.7 1.3 2.5
      vertex -2.7 2.5 2.5
    endloop
  endfacet
  facet normal 0 0 1
    outer loop
      vertex -2.7 1.3 2.5
      vertex -3.7 2.5 2.5
      vertex -3.7 1.3 2.5
    endloop
  endfacet
  facet normal -0 0 1
    outer loop
      vertex -3.7 0.5 2.5
      vertex -2.7 -0.7 2.5
      vertex -2.7 0.5 2.5
    endloop
  endfacet
  facet normal 0 0 1
    outer loop
      vertex -2.7 -0.7 2.5
      vertex -3.7 0.5 2.5
      vertex -3.7 -0.7 2.5
    endloop
  endfacet
  facet normal -0 0 1
    outer loop
      vertex -3.7 -1.5 2.5
      vertex -2.7 -2.7 2.5
      vertex -2.7 -1.5 2.5
    endloop
  endfacet
  facet normal 0 0 1
    outer loop
      vertex -2.7 -2.7 2.5
      vertex -3.7 -1.5 2.5
      vertex -3.7 -2.7 2.5
    endloop
  endfacet
  facet normal -0 0 1
    outer loop
      vertex -3.7 -3.5 2.5
      vertex -2.7 -4.7 2.5
      vertex -2.7 -3.5 2.5
    endloop
  endfacet
  facet normal 0 0 1
    outer loop
      vertex -2.7 -4.7 2.5
      vertex -3.7 -3.5 2.5
      vertex -3.7 -4.7 2.5
    endloop
  endfacet
  facet normal 0 0 1
    outer loop
      vertex -3.7 3.3 2.5
      vertex -5.3 4.5 2.5
      vertex -5.3 3.3 2.5
    endloop
  endfacet
  facet normal 0 0 1
    outer loop
      vertex -3.7 2.5 2.5
      vertex -5.3 2.5 2.5
      vertex -3.7 1.3 2.5
    endloop
  endfacet
  facet normal 0 0 1
    outer loop
      vertex -5.3 0.5 2.5
      vertex -3.7 0.5 2.5
      vertex -5.3 1.3 2.5
    endloop
  endfacet
  facet normal 0 0 1
    outer loop
      vertex -3.7 -0.7 2.5
      vertex -5.3 -0.7 2.5
      vertex -3.7 -1.5 2.5
    endloop
  endfacet
  facet normal 0 0 1
    outer loop
      vertex -5.3 -2.7 2.5
      vertex -3.7 -2.7 2.5
      vertex -5.3 -1.5 2.5
    endloop
  endfacet
  facet normal 0 0 1
    outer loop
      vertex -3.7 -2.7 2.5
      vertex -5.3 -2.7 2.5
      vertex -3.7 -3.5 2.5
    endloop
  endfacet
  facet normal 0 0 1
    outer loop
      vertex -5.3 -3.5 2.5
      vertex -3.7 -3.5 2.5
      vertex -5.3 -2.7 2.5
    endloop
  endfacet
  facet normal 0 0 1
    outer loop
      vertex -3.7 -3.5 2.5
      vertex -5.3 -3.5 2.5
      vertex -3.7 -4.7 2.5
    endloop
  endfacet
  facet normal 0 0 1
    outer loop
      vertex -5.3 -4.7 2.5
      vertex -3.7 -4.7 2.5
      vertex -5.3 -3.5 2.5
    endloop
  endfacet
  facet normal 0 0 1
    outer loop
      vertex -3.7 -4.7 2.5
      vertex -5.3 -4.7 2.5
      vertex -3.7 -5.5 2.5
    endloop
  endfacet
  facet normal 0 0 1
    outer loop
      vertex -3.7 -5.5 2.5
      vertex -5.3 -4.7 2.5
      vertex -5.3 -5.5 2.5
    endloop
  endfacet
  facet normal 0 1 -0
    outer loop
      vertex -2.7 3.3 2.5
      vertex -3.7 3.3 12
      vertex -2.7 3.3 12
    endloop
  endfacet
  facet normal 0 1 0
    outer loop
      vertex -3.7 3.3 12
      vertex -2.7 3.3 2.5
      vertex -3.7 3.3 2.5
    endloop
  endfacet
  facet normal -1 0 0
    outer loop
      vertex -3.7 2.5 2.5
      vertex -3.7 3.3 12
      vertex -3.7 3.3 2.5
    endloop
  endfacet
  facet normal -1 -0 0
    outer loop
      vertex -3.7 3.3 12
      vertex -3.7 2.5 2.5
      vertex -3.7 2.5 12
    endloop
  endfacet
  facet normal 0 -1 0
    outer loop
      vertex -3.7 2.5 2.5
      vertex -2.7 2.5 12
      vertex -3.7 2.5 12
    endloop
  endfacet
  facet normal 0 -1 -0
    outer loop
      vertex -2.7 2.5 12
      vertex -3.7 2.5 2.5
      vertex -2.7 2.5 2.5
    endloop
  endfacet
  facet normal 0 1 0
    outer loop
      vertex -2.7 1.3 11.9836
      vertex -3.7 1.3 12
      vertex -2.75896 1.3 12
    endloop
  endfacet
  facet normal 0 1 0
    outer loop
      vertex -3.7 1.3 2.5
      vertex -2.7 1.3 11.9836
      vertex -2.7 1.3 2.5
    endloop
  endfacet
  facet normal 0 1 0
    outer loop
      vertex -2.7 1.3 11.9836
      vertex -3.7 1.3 2.5
      vertex -3.7 1.3 12
    endloop
  endfacet
  facet normal -1 0 0
    outer loop
      vertex -3.7 0.5 2.5
      vertex -3.7 1.3 12
      vertex -3.7 1.3 2.5
    endloop
  endfacet
  facet normal -1 -0 0
    outer loop
      vertex -3.7 1.3 12
      vertex -3.7 0.5 2.5
      vertex -3.7 0.5 12
    endloop
  endfacet
  facet normal 0 -1 0
    outer loop
      vertex -3.7 0.5 12
      vertex -2.7 0.5 11.9836
      vertex -2.75896 0.5 12
    endloop
  endfacet
  facet normal 0 -1 0
    outer loop
      vertex -3.7 0.5 2.5
      vertex -2.7 0.5 11.9836
      vertex -3.7 0.5 12
    endloop
  endfacet
  facet normal 0 -1 -0
    outer loop
      vertex -2.7 0.5 11.9836
      vertex -3.7 0.5 2.5
      vertex -2.7 0.5 2.5
    endloop
  endfacet
  facet normal 0 1 0
    outer loop
      vertex -2.7 -0.7 11.9836
      vertex -3.7 -0.7 12
      vertex -2.75896 -0.7 12
    endloop
  endfacet
  facet normal 0 1 0
    outer loop
      vertex -3.7 -0.7 2.5
      vertex -2.7 -0.7 11.9836
      vertex -2.7 -0.7 2.5
    endloop
  endfacet
  facet normal 0 1 0
    outer loop
      vertex -2.7 -0.7 11.9836
      vertex -3.7 -0.7 2.5
      vertex -3.7 -0.7 12
    endloop
  endfacet
  facet normal -1 0 0
    outer loop
      vertex -3.7 -1.5 2.5
      vertex -3.7 -0.7 12
      vertex -3.7 -0.7 2.5
    endloop
  endfacet
  facet normal -1 -0 0
    outer loop
      vertex -3.7 -0.7 12
      vertex -3.7 -1.5 2.5
      vertex -3.7 -1.5 12
    endloop
  endfacet
  facet normal 0 -1 0
    outer loop
      vertex -3.7 -1.5 12
      vertex -2.7 -1.5 11.9836
      vertex -2.75896 -1.5 12
    endloop
  endfacet
  facet normal 0 -1 0
    outer loop
      vertex -3.7 -1.5 2.5
      vertex -2.7 -1.5 11.9836
      vertex -3.7 -1.5 12
    endloop
  endfacet
  facet normal 0 -1 -0
    outer loop
      vertex -2.7 -1.5 11.9836
      vertex -3.7 -1.5 2.5
      vertex -2.7 -1.5 2.5
    endloop
  endfacet
  facet normal 0 1 -0
    outer loop
      vertex -2.7 -2.7 2.5
      vertex -3.7 -2.7 12
      vertex -2.7 -2.7 12
    endloop
  endfacet
  facet normal 0 1 0
    outer loop
      vertex -3.7 -2.7 12
      vertex -2.7 -2.7 2.5
      vertex -3.7 -2.7 2.5
    endloop
  endfacet
  facet normal -1 0 0
    outer loop
      vertex -3.7 -3.5 2.5
      vertex -3.7 -2.7 12
      vertex -3.7 -2.7 2.5
    endloop
  endfacet
  facet normal -1 -0 0
    outer loop
      vertex -3.7 -2.7 12
      vertex -3.7 -3.5 2.5
      vertex -3.7 -3.5 12
    endloop
  endfacet
  facet normal 0 -1 0
    outer loop
      vertex -3.7 -3.5 2.5
      vertex -2.7 -3.5 12
      vertex -3.7 -3.5 12
    endloop
  endfacet
  facet normal 0 -1 -0
    outer loop
      vertex -2.7 -3.5 12
      vertex -3.7 -3.5 2.5
      vertex -2.7 -3.5 2.5
    endloop
  endfacet
  facet normal 0 1 -0
    outer loop
      vertex -2.7 -4.7 2.5
      vertex -3.7 -4.7 12
      vertex -2.7 -4.7 12
    endloop
  endfacet
  facet normal 0 1 0
    outer loop
      vertex -3.7 -4.7 12
      vertex -2.7 -4.7 2.5
      vertex -3.7 -4.7 2.5
    endloop
  endfacet
  facet normal -1 0 0
    outer loop
      vertex -3.7 -5.5 2.5
      vertex -3.7 -4.7 12
      vertex -3.7 -4.7 2.5
    endloop
  endfacet
  facet normal -1 -0 0
    outer loop
      vertex -3.7 -4.7 12
      vertex -3.7 -5.5 2.5
      vertex -3.7 -5.5 12
    endloop
  endfacet
  facet normal 0 -1 0
    outer loop
      vertex -9 -5.5 12
      vertex -5.3 -5.5 2.5
      vertex -5.3 -5.5 12
    endloop
  endfacet
  facet normal 0 -1 -0
    outer loop
      vertex -5.3 -5.5 2.5
      vertex -9 -5.5 3.21965e-15
      vertex -3.7 -5.5 2.5
    endloop
  endfacet
  facet normal 0 -1 0
    outer loop
      vertex -9 -5.5 3.21965e-15
      vertex -5.3 -5.5 2.5
      vertex -9 -5.5 12
    endloop
  endfacet
  facet normal 0 -1 0
    outer loop
      vertex -3.7 -5.5 2.5
      vertex 1.33227e-15 -5.5 12
      vertex -3.7 -5.5 12
    endloop
  endfacet
  facet normal 0 -1 0
    outer loop
      vertex -3.7 -5.5 2.5
      vertex -1.33227e-15 -5.5 1.22125e-15
      vertex 1.33227e-15 -5.5 12
    endloop
  endfacet
  facet normal 0 -1 0
    outer loop
      vertex -1.33227e-15 -5.5 1.22125e-15
      vertex -3.7 -5.5 2.5
      vertex -9 -5.5 3.21965e-15
    endloop
  endfacet
  facet normal 0 1 -0
    outer loop
      vertex -5.3 5.3 2.5
      vertex -6.3 5.3 12
      vertex -5.3 5.3 12
    endloop
  endfacet
  facet normal 0 1 0
    outer loop
      vertex -6.3 5.3 12
      vertex -5.3 5.3 2.5
      vertex -6.3 5.3 2.5
    endloop
  endfacet
  facet normal 0 -1 0
    outer loop
      vertex -6.3 4.5 2.5
      vertex -5.3 4.5 12
      vertex -6.3 4.5 12
    endloop
  endfacet
  facet normal 0 -1 -0
    outer loop
      vertex -5.3 4.5 12
      vertex -6.3 4.5 2.5
      vertex -5.3 4.5 2.5
    endloop
  endfacet
  facet normal 1 -0 0
    outer loop
      vertex -5.3 4.5 12
      vertex -5.3 5.3 2.5
      vertex -5.3 5.3 12
    endloop
  endfacet
  facet normal 1 0 0
    outer loop
      vertex -5.3 5.3 2.5
      vertex -5.3 4.5 12
      vertex -5.3 4.5 2.5
    endloop
  endfacet
  facet normal 0 1 -0
    outer loop
      vertex -5.3 3.3 2.5
      vertex -6.3 3.3 12
      vertex -5.3 3.3 12
    endloop
  endfacet
  facet normal 0 1 0
    outer loop
      vertex -6.3 3.3 12
      vertex -5.3 3.3 2.5
      vertex -6.3 3.3 2.5
    endloop
  endfacet
  facet normal 0 -1 0
    outer loop
      vertex -6.3 2.5 2.5
      vertex -5.3 2.5 12
      vertex -6.3 2.5 12
    endloop
  endfacet
  facet normal 0 -1 -0
    outer loop
      vertex -5.3 2.5 12
      vertex -6.3 2.5 2.5
      vertex -5.3 2.5 2.5
    endloop
  endfacet
  facet normal 1 -0 0
    outer loop
      vertex -5.3 2.5 12
      vertex -5.3 3.3 2.5
      vertex -5.3 3.3 12
    endloop
  endfacet
  facet normal 1 0 0
    outer loop
      vertex -5.3 3.3 2.5
      vertex -5.3 2.5 12
      vertex -5.3 2.5 2.5
    endloop
  endfacet
  facet normal 0 1 0
    outer loop
      vertex -5.3 1.3 12
      vertex -6.3 1.3 11.9836
      vertex -6.24103 1.3 12
    endloop
  endfacet
  facet normal 0 1 -0
    outer loop
      vertex -5.3 1.3 2.5
      vertex -6.3 1.3 11.9836
      vertex -5.3 1.3 12
    endloop
  endfacet
  facet normal 0 1 0
    outer loop
      vertex -6.3 1.3 11.9836
      vertex -5.3 1.3 2.5
      vertex -6.3 1.3 2.5
    endloop
  endfacet
  facet normal 0 -1 0
    outer loop
      vertex -6.3 0.5 11.9836
      vertex -5.3 0.5 12
      vertex -6.24103 0.5 12
    endloop
  endfacet
  facet normal 0 -1 0
    outer loop
      vertex -5.3 0.5 2.5
      vertex -6.3 0.5 11.9836
      vertex -6.3 0.5 2.5
    endloop
  endfacet
  facet normal 0 -1 0
    outer loop
      vertex -6.3 0.5 11.9836
      vertex -5.3 0.5 2.5
      vertex -5.3 0.5 12
    endloop
  endfacet
  facet normal 1 -0 0
    outer loop
      vertex -5.3 0.5 12
      vertex -5.3 1.3 2.5
      vertex -5.3 1.3 12
    endloop
  endfacet
  facet normal 1 0 0
    outer loop
      vertex -5.3 1.3 2.5
      vertex -5.3 0.5 12
      vertex -5.3 0.5 2.5
    endloop
  endfacet
  facet normal 0 1 0
    outer loop
      vertex -5.3 -0.7 12
      vertex -6.3 -0.7 11.9836
      vertex -6.24103 -0.7 12
    endloop
  endfacet
  facet normal 0 1 -0
    outer loop
      vertex -5.3 -0.7 2.5
      vertex -6.3 -0.7 11.9836
      vertex -5.3 -0.7 12
    endloop
  endfacet
  facet normal 0 1 0
    outer loop
      vertex -6.3 -0.7 11.9836
      vertex -5.3 -0.7 2.5
      vertex -6.3 -0.7 2.5
    endloop
  endfacet
  facet normal 0 -1 0
    outer loop
      vertex -6.3 -1.5 11.9836
      vertex -5.3 -1.5 12
      vertex -6.24103 -1.5 12
    endloop
  endfacet
  facet normal 0 -1 0
    outer loop
      vertex -5.3 -1.5 2.5
      vertex -6.3 -1.5 11.9836
      vertex -6.3 -1.5 2.5
    endloop
  endfacet
  facet normal 0 -1 0
    outer loop
      vertex -6.3 -1.5 11.9836
      vertex -5.3 -1.5 2.5
      vertex -5.3 -1.5 12
    endloop
  endfacet
  facet normal 1 -0 0
    outer loop
      vertex -5.3 -1.5 12
      vertex -5.3 -0.7 2.5
      vertex -5.3 -0.7 12
    endloop
  endfacet
  facet normal 1 0 0
    outer loop
      vertex -5.3 -0.7 2.5
      vertex -5.3 -1.5 12
      vertex -5.3 -1.5 2.5
    endloop
  endfacet
  facet normal 0 1 -0
    outer loop
      vertex -5.3 -2.7 2.5
      vertex -6.3 -2.7 12
      vertex -5.3 -2.7 12
    endloop
  endfacet
  facet normal 0 1 0
    outer loop
      vertex -6.3 -2.7 12
      vertex -5.3 -2.7 2.5
      vertex -6.3 -2.7 2.5
    endloop
  endfacet
  facet normal 0 -1 0
    outer loop
      vertex -6.3 -3.5 2.5
      vertex -5.3 -3.5 12
      vertex -6.3 -3.5 12
    endloop
  endfacet
  facet normal 0 -1 -0
    outer loop
      vertex -5.3 -3.5 12
      vertex -6.3 -3.5 2.5
      vertex -5.3 -3.5 2.5
    endloop
  endfacet
  facet normal 1 -0 0
    outer loop
      vertex -5.3 -3.5 12
      vertex -5.3 -2.7 2.5
      vertex -5.3 -2.7 12
    endloop
  endfacet
  facet normal 1 0 0
    outer loop
      vertex -5.3 -2.7 2.5
      vertex -5.3 -3.5 12
      vertex -5.3 -3.5 2.5
    endloop
  endfacet
  facet normal 0 1 -0
    outer loop
      vertex -5.3 -4.7 2.5
      vertex -6.3 -4.7 12
      vertex -5.3 -4.7 12
    endloop
  endfacet
  facet normal 0 1 0
    outer loop
      vertex -6.3 -4.7 12
      vertex -5.3 -4.7 2.5
      vertex -6.3 -4.7 2.5
    endloop
  endfacet
  facet normal 1 -0 0
    outer loop
      vertex -5.3 -5.5 12
      vertex -5.3 -4.7 2.5
      vertex -5.3 -4.7 12
    endloop
  endfacet
  facet normal 1 0 0
    outer loop
      vertex -5.3 -4.7 2.5
      vertex -5.3 -5.5 12
      vertex -5.3 -5.5 2.5
    endloop
  endfacet
  facet normal 1 -0 0
    outer loop
      vertex -6.3 5.3 12
      vertex -6.3 5.5 2.5
      vertex -6.3 5.5 12
    endloop
  endfacet
  facet normal 1 0 0
    outer loop
      vertex -6.3 5.5 2.5
      vertex -6.3 5.3 12
      vertex -6.3 5.3 2.5
    endloop
  endfacet
  facet normal 1 -0 0
    outer loop
      vertex -6.3 3.3 12
      vertex -6.3 4.5 2.5
      vertex -6.3 4.5 12
    endloop
  endfacet
  facet normal 1 0 0
    outer loop
      vertex -6.3 4.5 2.5
      vertex -6.3 3.3 12
      vertex -6.3 3.3 2.5
    endloop
  endfacet
  facet normal 1 0 0
    outer loop
      vertex -6.3 2 11.9836
      vertex -6.3 2.5 12
      vertex -6.3 2 12
    endloop
  endfacet
  facet normal 1 0 0
    outer loop
      vertex -6.3 2.5 12
      vertex -6.3 2 11.9836
      vertex -6.3 2.5 2.5
    endloop
  endfacet
  facet normal 1 0 0
    outer loop
      vertex -6.3 1.3 2.5
      vertex -6.3 2 11.9836
      vertex -6.3 1.3 11.9836
    endloop
  endfacet
  facet normal 1 0 0
    outer loop
      vertex -6.3 2 11.9836
      vertex -6.3 1.3 2.5
      vertex -6.3 2.5 2.5
    endloop
  endfacet
  facet normal 1 -0 0
    outer loop
      vertex -6.3 -0.7 11.9836
      vertex -6.3 0.5 2.5
      vertex -6.3 0.5 11.9836
    endloop
  endfacet
  facet normal 1 0 0
    outer loop
      vertex -6.3 0.5 2.5
      vertex -6.3 -0.7 11.9836
      vertex -6.3 -0.7 2.5
    endloop
  endfacet
  facet normal 1 0 0
    outer loop
      vertex -6.3 -2 12
      vertex -6.3 -2.7 12
      vertex -6.3 -2 11.9836
    endloop
  endfacet
  facet normal 1 -0 0
    outer loop
      vertex -6.3 -2 11.9836
      vertex -6.3 -1.5 2.5
      vertex -6.3 -1.5 11.9836
    endloop
  endfacet
  facet normal 1 0 0
    outer loop
      vertex -6.3 -2.7 2.5
      vertex -6.3 -2 11.9836
      vertex -6.3 -2.7 12
    endloop
  endfacet
  facet normal 1 0 0
    outer loop
      vertex -6.3 -2 11.9836
      vertex -6.3 -2.7 2.5
      vertex -6.3 -1.5 2.5
    endloop
  endfacet
  facet normal 1 -0 0
    outer loop
      vertex -6.3 -4.7 12
      vertex -6.3 -3.5 2.5
      vertex -6.3 -3.5 12
    endloop
  endfacet
  facet normal 1 0 0
    outer loop
      vertex -6.3 -3.5 2.5
      vertex -6.3 -4.7 12
      vertex -6.3 -4.7 2.5
    endloop
  endfacet
  facet normal -1 0 0
    outer loop
      vertex -2.7 5.3 2.5
      vertex -2.7 5.5 12
      vertex -2.7 5.5 2.5
    endloop
  endfacet
  facet normal -1 -0 0
    outer loop
      vertex -2.7 5.5 12
      vertex -2.7 5.3 2.5
      vertex -2.7 5.3 12
    endloop
  endfacet
  facet normal -1 0 0
    outer loop
      vertex -2.7 3.3 2.5
      vertex -2.7 4.5 12
      vertex -2.7 4.5 2.5
    endloop
  endfacet
  facet normal -1 -0 0
    outer loop
      vertex -2.7 4.5 12
      vertex -2.7 3.3 2.5
      vertex -2.7 3.3 12
    endloop
  endfacet
  facet normal -1 0 0
    outer loop
      vertex -2.7 2.5 2.5
      vertex -2.7 2 11.9836
      vertex -2.7 2.5 12
    endloop
  endfacet
  facet normal -1 0 0
    outer loop
      vertex -2.7 1.3 2.5
      vertex -2.7 2 11.9836
      vertex -2.7 2.5 2.5
    endloop
  endfacet
  facet normal -1 -0 0
    outer loop
      vertex -2.7 2 11.9836
      vertex -2.7 1.3 2.5
      vertex -2.7 1.3 11.9836
    endloop
  endfacet
  facet normal -1 -0 0
    outer loop
      vertex -2.7 2.5 12
      vertex -2.7 2 11.9836
      vertex -2.7 2 12
    endloop
  endfacet
  facet normal -1 0 0
    outer loop
      vertex -2.7 -0.7 2.5
      vertex -2.7 0.5 11.9836
      vertex -2.7 0.5 2.5
    endloop
  endfacet
  facet normal -1 -0 0
    outer loop
      vertex -2.7 0.5 11.9836
      vertex -2.7 -0.7 2.5
      vertex -2.7 -0.7 11.9836
    endloop
  endfacet
  facet normal -1 0 0
    outer loop
      vertex -2.7 -1.5 2.5
      vertex -2.7 -2 11.9836
      vertex -2.7 -1.5 11.9836
    endloop
  endfacet
  facet normal -1 0 0
    outer loop
      vertex -2.7 -2.7 2.5
      vertex -2.7 -2 11.9836
      vertex -2.7 -1.5 2.5
    endloop
  endfacet
  facet normal -1 0 0
    outer loop
      vertex -2.7 -2.7 12
      vertex -2.7 -2 11.9836
      vertex -2.7 -2.7 2.5
    endloop
  endfacet
  facet normal -1 0 0
    outer loop
      vertex -2.7 -2 11.9836
      vertex -2.7 -2.7 12
      vertex -2.7 -2 12
    endloop
  endfacet
  facet normal -1 0 0
    outer loop
      vertex -2.7 -4.7 2.5
      vertex -2.7 -3.5 12
      vertex -2.7 -3.5 2.5
    endloop
  endfacet
  facet normal -1 -0 0
    outer loop
      vertex -2.7 -3.5 12
      vertex -2.7 -4.7 2.5
      vertex -2.7 -4.7 12
    endloop
  endfacet
  facet normal 0 1 0
    outer loop
      vertex 1.33227e-15 5.5 12
      vertex -2.7 5.5 2.5
      vertex -2.7 5.5 12
    endloop
  endfacet
  facet normal 0 1 0
    outer loop
      vertex -2.7 5.5 2.5
      vertex -9 5.5 7.77156e-16
      vertex -6.3 5.5 2.5
    endloop
  endfacet
  facet normal 0 1 0
    outer loop
      vertex -2.7 5.5 2.5
      vertex -1.33227e-15 5.5 -1.22125e-15
      vertex -9 5.5 7.77156e-16
    endloop
  endfacet
  facet normal 0 1 -0
    outer loop
      vertex -1.33227e-15 5.5 -1.22125e-15
      vertex -2.7 5.5 2.5
      vertex 1.33227e-15 5.5 12
    endloop
  endfacet
  facet normal 0 1 -0
    outer loop
      vertex -6.3 5.5 2.5
      vertex -9 5.5 12
      vertex -6.3 5.5 12
    endloop
  endfacet
  facet normal 0 1 0
    outer loop
      vertex -9 5.5 12
      vertex -6.3 5.5 2.5
      vertex -9 5.5 7.77156e-16
    endloop
  endfacet
  facet normal -1 0 0
    outer loop
      vertex -9 -5.5 3.21965e-15
      vertex -9 -2 1.66619
      vertex -9 -2 2.44249e-15
    endloop
  endfacet
  facet normal -1 -0 0
    outer loop
      vertex -9 -2 1.66619
      vertex -9 -5.5 3.21965e-15
      vertex -9 -2 10.3338
    endloop
  endfacet
  facet normal -1 0 0
    outer loop
      vertex -9 -5.5 12
      vertex -9 -2 10.3338
      vertex -9 -5.5 3.21965e-15
    endloop
  endfacet
  facet normal -1 0 0
    outer loop
      vertex -9 -2 10.3338
      vertex -9 -5.5 12
      vertex -9 -2 12
    endloop
  endfacet
  facet normal -1 0 0
    outer loop
      vertex -9 -2 1.66619
      vertex -9 2 10.3338
      vertex -9 2 1.66619
    endloop
  endfacet
  facet normal -1 -0 0
    outer loop
      vertex -9 2 10.3338
      vertex -9 -2 1.66619
      vertex -9 -2 10.3338
    endloop
  endfacet
  facet normal -1 0 0
    outer loop
      vertex -9 2 1.66619
      vertex -9 5.5 7.77156e-16
      vertex -9 2 1.55431e-15
    endloop
  endfacet
  facet normal -1 0 0
    outer loop
      vertex -9 5.5 7.77156e-16
      vertex -9 2 1.66619
      vertex -9 5.5 12
    endloop
  endfacet
  facet normal -1 0 0
    outer loop
      vertex -9 2 10.3338
      vertex -9 5.5 12
      vertex -9 2 1.66619
    endloop
  endfacet
  facet normal -1 -0 0
    outer loop
      vertex -9 5.5 12
      vertex -9 2 10.3338
      vertex -9 2 12
    endloop
  endfacet
  facet normal 1 0 -2.22045e-16
    outer loop
      vertex 1.33227e-15 -5.5 12
      vertex 9.623e-16 -2 10.3338
      vertex 1.33227e-15 -2 12
    endloop
  endfacet
  facet normal 1 0 -2.22045e-16
    outer loop
      vertex 9.623e-16 -2 10.3338
      vertex 1.33227e-15 -5.5 12
      vertex -9.623e-16 -2 1.66619
    endloop
  endfacet
  facet normal 1 -5.63472e-32 -2.22045e-16
    outer loop
      vertex -1.33227e-15 -5.5 1.22125e-15
      vertex -9.623e-16 -2 1.66619
      vertex 1.33227e-15 -5.5 12
    endloop
  endfacet
  facet normal 1 -5.07271e-32 -2.22045e-16
    outer loop
      vertex -9.623e-16 -2 1.66619
      vertex -1.33227e-15 -5.5 1.22125e-15
      vertex -1.33227e-15 -2 4.44089e-16
    endloop
  endfacet
  facet normal 1 0 -2.22045e-16
    outer loop
      vertex 9.623e-16 -2 10.3338
      vertex -9.623e-16 2 1.66619
      vertex 9.623e-16 2 10.3338
    endloop
  endfacet
  facet normal 1 0 -2.22045e-16
    outer loop
      vertex -9.623e-16 2 1.66619
      vertex 9.623e-16 -2 10.3338
      vertex -9.623e-16 -2 1.66619
    endloop
  endfacet
  facet normal 1 0 -2.22045e-16
    outer loop
      vertex 9.623e-16 2 10.3338
      vertex 1.33227e-15 5.5 12
      vertex 1.33227e-15 2 12
    endloop
  endfacet
  facet normal 1 -1.87824e-32 -2.22045e-16
    outer loop
      vertex 1.33227e-15 5.5 12
      vertex 9.623e-16 2 10.3338
      vertex -1.33227e-15 5.5 -1.22125e-15
    endloop
  endfacet
  facet normal 1 -9.10123e-32 -2.22045e-16
    outer loop
      vertex -9.623e-16 2 1.66619
      vertex -1.33227e-15 5.5 -1.22125e-15
      vertex 9.623e-16 2 10.3338
    endloop
  endfacet
  facet normal 1 -4.93038e-32 -2.22045e-16
    outer loop
      vertex -1.33227e-15 5.5 -1.22125e-15
      vertex -9.623e-16 2 1.66619
      vertex -1.33227e-15 2 -4.44089e-16
    endloop
  endfacet
  facet normal -2.22045e-16 -2.22045e-16 -1
    outer loop
      vertex -1.33227e-15 -5.5 1.22125e-15
      vertex -2.75896 -2 1.0567e-15
      vertex -1.33227e-15 -2 4.44089e-16
    endloop
  endfacet
  facet normal -2.22045e-16 -2.22045e-16 -1
    outer loop
      vertex -2.75896 -2 1.0567e-15
      vertex -6.24103 -2 1.82988e-15
      vertex -2.75896 2 1.68524e-16
    endloop
  endfacet
  facet normal -2.22045e-16 -2.22045e-16 -1
    outer loop
      vertex -1.33227e-15 -5.5 1.22125e-15
      vertex -6.24103 -2 1.82988e-15
      vertex -2.75896 -2 1.0567e-15
    endloop
  endfacet
  facet normal -2.22045e-16 -2.22045e-16 -1
    outer loop
      vertex -9 -5.5 3.21965e-15
      vertex -6.24103 -2 1.82988e-15
      vertex -1.33227e-15 -5.5 1.22125e-15
    endloop
  endfacet
  facet normal -2.22045e-16 -2.22045e-16 -1
    outer loop
      vertex -6.24103 -2 1.82988e-15
      vertex -9 -5.5 3.21965e-15
      vertex -9 -2 2.44249e-15
    endloop
  endfacet
  facet normal -2.22045e-16 -2.22045e-16 -1
    outer loop
      vertex -2.75896 2 1.68524e-16
      vertex -1.33227e-15 5.5 -1.22125e-15
      vertex -1.33227e-15 2 -4.44089e-16
    endloop
  endfacet
  facet normal -2.22045e-16 -2.22045e-16 -1
    outer loop
      vertex -6.24103 2 9.41699e-16
      vertex -2.75896 2 1.68524e-16
      vertex -6.24103 -2 1.82988e-15
    endloop
  endfacet
  facet normal -2.22045e-16 -2.22045e-16 -1
    outer loop
      vertex -2.75896 2 1.68524e-16
      vertex -6.24103 2 9.41699e-16
      vertex -1.33227e-15 5.5 -1.22125e-15
    endloop
  endfacet
  facet normal -2.22045e-16 -2.22045e-16 -1
    outer loop
      vertex -9 5.5 7.77156e-16
      vertex -6.24103 2 9.41699e-16
      vertex -9 2 1.55431e-15
    endloop
  endfacet
  facet normal -2.22045e-16 -2.22045e-16 -1
    outer loop
      vertex -6.24103 2 9.41699e-16
      vertex -9 5.5 7.77156e-16
      vertex -1.33227e-15 5.5 -1.22125e-15
    endloop
  endfacet
  facet normal -0 0 1
    outer loop
      vertex -9 -2 12
      vertex -6.3 -2.7 12
      vertex -6.3 -2 12
    endloop
  endfacet
  facet normal 0 0 1
    outer loop
      vertex -6.3 -2.7 12
      vertex -9 -2 12
      vertex -6.3 -3.5 12
    endloop
  endfacet
  facet normal 0 0 1
    outer loop
      vertex -9 -5.5 12
      vertex -6.3 -3.5 12
      vertex -9 -2 12
    endloop
  endfacet
  facet normal -0 0 1
    outer loop
      vertex -6.3 -2.7 12
      vertex -5.3 -3.5 12
      vertex -5.3 -2.7 12
    endloop
  endfacet
  facet normal 0 0 1
    outer loop
      vertex -5.3 -3.5 12
      vertex -6.3 -2.7 12
      vertex -6.3 -3.5 12
    endloop
  endfacet
  facet normal -0 0 1
    outer loop
      vertex -6.3 -4.7 12
      vertex -5.3 -5.5 12
      vertex -5.3 -4.7 12
    endloop
  endfacet
  facet normal 0 0 1
    outer loop
      vertex -6.3 -4.7 12
      vertex -9 -5.5 12
      vertex -5.3 -5.5 12
    endloop
  endfacet
  facet normal 0 0 1
    outer loop
      vertex -6.3 -3.5 12
      vertex -9 -5.5 12
      vertex -6.3 -4.7 12
    endloop
  endfacet
  facet normal -0 0 1
    outer loop
      vertex -3.7 3.3 12
      vertex -2.7 2.5 12
      vertex -2.7 3.3 12
    endloop
  endfacet
  facet normal 0 0 1
    outer loop
      vertex -2.7 2.5 12
      vertex -3.7 3.3 12
      vertex -3.7 2.5 12
    endloop
  endfacet
  facet normal -0 0 1
    outer loop
      vertex -3.7 5.3 12
      vertex -2.7 4.5 12
      vertex -2.7 5.3 12
    endloop
  endfacet
  facet normal 0 0 1
    outer loop
      vertex -2.7 4.5 12
      vertex -3.7 5.3 12
      vertex -3.7 4.5 12
    endloop
  endfacet
  facet normal 0 0 1
    outer loop
      vertex -2.7 5.3 12
      vertex 1.33227e-15 5.5 12
      vertex -2.7 5.5 12
    endloop
  endfacet
  facet normal 0 0 1
    outer loop
      vertex -2.7 4.5 12
      vertex 1.33227e-15 5.5 12
      vertex -2.7 5.3 12
    endloop
  endfacet
  facet normal 0 0 1
    outer loop
      vertex -2.7 3.3 12
      vertex 1.33227e-15 5.5 12
      vertex -2.7 4.5 12
    endloop
  endfacet
  facet normal 0 0 1
    outer loop
      vertex 1.33227e-15 5.5 12
      vertex -2.7 3.3 12
      vertex 1.33227e-15 2 12
    endloop
  endfacet
  facet normal -0 0 1
    outer loop
      vertex -2.7 2.5 12
      vertex 1.33227e-15 2 12
      vertex -2.7 3.3 12
    endloop
  endfacet
  facet normal 0 0 1
    outer loop
      vertex 1.33227e-15 2 12
      vertex -2.7 2.5 12
      vertex -2.7 2 12
    endloop
  endfacet
  facet normal -0 0 1
    outer loop
      vertex -3.7 -2.7 12
      vertex -2.7 -3.5 12
      vertex -2.7 -2.7 12
    endloop
  endfacet
  facet normal 0 0 1
    outer loop
      vertex -2.7 -3.5 12
      vertex -3.7 -2.7 12
      vertex -3.7 -3.5 12
    endloop
  endfacet
  facet normal 0 0 1
    outer loop
      vertex -2.7 -2.7 12
      vertex 1.33227e-15 -2 12
      vertex -2.7 -2 12
    endloop
  endfacet
  facet normal 0 0 1
    outer loop
      vertex -2.7 -3.5 12
      vertex 1.33227e-15 -2 12
      vertex -2.7 -2.7 12
    endloop
  endfacet
  facet normal 0 0 1
    outer loop
      vertex 1.33227e-15 -2 12
      vertex -2.7 -3.5 12
      vertex 1.33227e-15 -5.5 12
    endloop
  endfacet
  facet normal -0 0 1
    outer loop
      vertex -2.7 -4.7 12
      vertex 1.33227e-15 -5.5 12
      vertex -2.7 -3.5 12
    endloop
  endfacet
  facet normal 0 0 1
    outer loop
      vertex -3.7 -5.5 12
      vertex -2.7 -4.7 12
      vertex -3.7 -4.7 12
    endloop
  endfacet
  facet normal 0 0 1
    outer loop
      vertex -2.7 -4.7 12
      vertex -3.7 -5.5 12
      vertex 1.33227e-15 -5.5 12
    endloop
  endfacet
  facet normal -0 0 1
    outer loop
      vertex -9 5.5 12
      vertex -6.3 5.3 12
      vertex -6.3 5.5 12
    endloop
  endfacet
  facet normal 0 0 1
    outer loop
      vertex -6.3 5.3 12
      vertex -9 5.5 12
      vertex -6.3 4.5 12
    endloop
  endfacet
  facet normal 0 0 1
    outer loop
      vertex -6.3 4.5 12
      vertex -9 5.5 12
      vertex -6.3 3.3 12
    endloop
  endfacet
  facet normal 0 0 1
    outer loop
      vertex -9 2 12
      vertex -6.3 3.3 12
      vertex -9 5.5 12
    endloop
  endfacet
  facet normal 0 0 1
    outer loop
      vertex -6.3 3.3 12
      vertex -9 2 12
      vertex -6.3 2.5 12
    endloop
  endfacet
  facet normal 0 0 1
    outer loop
      vertex -6.3 2.5 12
      vertex -9 2 12
      vertex -6.3 2 12
    endloop
  endfacet
  facet normal -0 0 1
    outer loop
      vertex -6.3 5.3 12
      vertex -5.3 4.5 12
      vertex -5.3 5.3 12
    endloop
  endfacet
  facet normal 0 0 1
    outer loop
      vertex -5.3 4.5 12
      vertex -6.3 5.3 12
      vertex -6.3 4.5 12
    endloop
  endfacet
  facet normal -0 0 1
    outer loop
      vertex -6.3 3.3 12
      vertex -5.3 2.5 12
      vertex -5.3 3.3 12
    endloop
  endfacet
  facet normal 0 0 1
    outer loop
      vertex -5.3 2.5 12
      vertex -6.3 3.3 12
      vertex -6.3 2.5 12
    endloop
  endfacet
  facet normal -0 0 1
    outer loop
      vertex -6.24103 1.3 12
      vertex -5.3 0.5 12
      vertex -5.3 1.3 12
    endloop
  endfacet
  facet normal 0 0 1
    outer loop
      vertex -5.3 0.5 12
      vertex -6.24103 1.3 12
      vertex -6.24103 0.5 12
    endloop
  endfacet
  facet normal -0 0 1
    outer loop
      vertex -3.7 1.3 12
      vertex -2.75896 0.5 12
      vertex -2.75896 1.3 12
    endloop
  endfacet
  facet normal 0 0 1
    outer loop
      vertex -2.75896 0.5 12
      vertex -3.7 1.3 12
      vertex -3.7 0.5 12
    endloop
  endfacet
  facet normal -0 0 1
    outer loop
      vertex -6.24103 -0.7 12
      vertex -5.3 -1.5 12
      vertex -5.3 -0.7 12
    endloop
  endfacet
  facet normal 0 0 1
    outer loop
      vertex -5.3 -1.5 12
      vertex -6.24103 -0.7 12
      vertex -6.24103 -1.5 12
    endloop
  endfacet
  facet normal -0 0 1
    outer loop
      vertex -3.7 -0.7 12
      vertex -2.75896 -1.5 12
      vertex -2.75896 -0.7 12
    endloop
  endfacet
  facet normal 0 0 1
    outer loop
      vertex -2.75896 -1.5 12
      vertex -3.7 -0.7 12
      vertex -3.7 -1.5 12
    endloop
  endfacet
  facet normal -0.728143 0 0.685426
    outer loop
      vertex -9 -2 10.3338
      vertex -8.91942 2 10.4194
      vertex -9 2 10.3338
    endloop
  endfacet
  facet normal -0.728143 0 0.685426
    outer loop
      vertex -8.91942 2 10.4194
      vertex -9 -2 10.3338
      vertex -8.91942 -2 10.4194
    endloop
  endfacet
  facet normal -0.685427 0 0.728142
    outer loop
      vertex -8.91942 2 10.4194
      vertex -8.64452 -2 10.6782
      vertex -8.64452 2 10.6782
    endloop
  endfacet
  facet normal -0.685427 0 0.728142
    outer loop
      vertex -8.64452 -2 10.6782
      vertex -8.91942 2 10.4194
      vertex -8.91942 -2 10.4194
    endloop
  endfacet
  facet normal -0.640212 0 0.768199
    outer loop
      vertex -8.64452 2 10.6782
      vertex -8.35449 -2 10.9199
      vertex -8.35449 2 10.9199
    endloop
  endfacet
  facet normal -0.640212 0 0.768199
    outer loop
      vertex -8.35449 -2 10.9199
      vertex -8.64452 2 10.6782
      vertex -8.64452 -2 10.6782
    endloop
  endfacet
  facet normal -0.592664 0 0.80545
    outer loop
      vertex -8.35449 2 10.9199
      vertex -8.0504 -2 11.1436
      vertex -8.0504 2 11.1436
    endloop
  endfacet
  facet normal -0.592664 0 0.80545
    outer loop
      vertex -8.0504 -2 11.1436
      vertex -8.35449 2 10.9199
      vertex -8.35449 -2 10.9199
    endloop
  endfacet
  facet normal -0.542949 0 0.839766
    outer loop
      vertex -8.0504 2 11.1436
      vertex -7.73336 -2 11.3486
      vertex -7.73336 2 11.3486
    endloop
  endfacet
  facet normal -0.542949 0 0.839766
    outer loop
      vertex -7.73336 -2 11.3486
      vertex -8.0504 2 11.1436
      vertex -8.0504 -2 11.1436
    endloop
  endfacet
  facet normal -0.491253 0 0.871017
    outer loop
      vertex -7.73336 2 11.3486
      vertex -7.40452 -2 11.5341
      vertex -7.40452 2 11.5341
    endloop
  endfacet
  facet normal -0.491253 0 0.871017
    outer loop
      vertex -7.40452 -2 11.5341
      vertex -7.73336 2 11.3486
      vertex -7.73336 -2 11.3486
    endloop
  endfacet
  facet normal -0.437768 0 0.899088
    outer loop
      vertex -7.40452 2 11.5341
      vertex -7.06508 -2 11.6994
      vertex -7.06508 2 11.6994
    endloop
  endfacet
  facet normal -0.437768 0 0.899088
    outer loop
      vertex -7.06508 -2 11.6994
      vertex -7.40452 2 11.5341
      vertex -7.40452 -2 11.5341
    endloop
  endfacet
  facet normal -0.382684 0 0.923879
    outer loop
      vertex -7.06508 2 11.6994
      vertex -6.71628 -2 11.8439
      vertex -6.71628 2 11.8439
    endloop
  endfacet
  facet normal -0.382684 0 0.923879
    outer loop
      vertex -6.71628 -2 11.8439
      vertex -7.06508 2 11.6994
      vertex -7.06508 -2 11.6994
    endloop
  endfacet
  facet normal -0.326203 0 0.9453
    outer loop
      vertex -6.71628 2 11.8439
      vertex -6.35939 -2 11.967
      vertex -6.35939 2 11.967
    endloop
  endfacet
  facet normal -0.326203 0 0.9453
    outer loop
      vertex -6.35939 -2 11.967
      vertex -6.71628 2 11.8439
      vertex -6.71628 -2 11.8439
    endloop
  endfacet
  facet normal -0.268534 0 0.96327
    outer loop
      vertex -6.35939 2 11.967
      vertex -6.3 1.3 11.9836
      vertex -6.3 2 11.9836
    endloop
  endfacet
  facet normal -0.268534 0 0.96327
    outer loop
      vertex -6.3 1.3 11.9836
      vertex -6.35939 2 11.967
      vertex -6.3 0.5 11.9836
    endloop
  endfacet
  facet normal -0.268534 0 0.96327
    outer loop
      vertex -6.3 0.5 11.9836
      vertex -6.35939 2 11.967
      vertex -6.3 -0.7 11.9836
    endloop
  endfacet
  facet normal -0.268534 0 0.96327
    outer loop
      vertex -6.35939 -2 11.967
      vertex -6.3 -0.7 11.9836
      vertex -6.35939 2 11.967
    endloop
  endfacet
  facet normal -0.268534 0 0.96327
    outer loop
      vertex -6.3 -0.7 11.9836
      vertex -6.35939 -2 11.967
      vertex -6.3 -1.5 11.9836
    endloop
  endfacet
  facet normal -0.268534 0 0.96327
    outer loop
      vertex -6.3 -1.5 11.9836
      vertex -6.35939 -2 11.967
      vertex -6.3 -2 11.9836
    endloop
  endfacet
  facet normal -0.268532 0 0.963271
    outer loop
      vertex -6.3 1.3 11.9836
      vertex -6.24103 0.5 12
      vertex -6.24103 1.3 12
    endloop
  endfacet
  facet normal -0.268532 0 0.963271
    outer loop
      vertex -6.24103 0.5 12
      vertex -6.3 1.3 11.9836
      vertex -6.3 0.5 11.9836
    endloop
  endfacet
  facet normal -0.268532 0 0.963271
    outer loop
      vertex -6.3 -0.7 11.9836
      vertex -6.24103 -1.5 12
      vertex -6.24103 -0.7 12
    endloop
  endfacet
  facet normal -0.268532 0 0.963271
    outer loop
      vertex -6.24103 -1.5 12
      vertex -6.3 -0.7 11.9836
      vertex -6.3 -1.5 11.9836
    endloop
  endfacet
  facet normal 0.268535 0 0.96327
    outer loop
      vertex -2.75896 -0.7 12
      vertex -2.7 -1.5 11.9836
      vertex -2.7 -0.7 11.9836
    endloop
  endfacet
  facet normal 0.268535 0 0.96327
    outer loop
      vertex -2.7 -1.5 11.9836
      vertex -2.75896 -0.7 12
      vertex -2.75896 -1.5 12
    endloop
  endfacet
  facet normal 0.268535 0 0.96327
    outer loop
      vertex -2.75896 1.3 12
      vertex -2.7 0.5 11.9836
      vertex -2.7 1.3 11.9836
    endloop
  endfacet
  facet normal 0.268535 0 0.96327
    outer loop
      vertex -2.7 0.5 11.9836
      vertex -2.75896 1.3 12
      vertex -2.75896 0.5 12
    endloop
  endfacet
  facet normal 0.26853 -0 0.963271
    outer loop
      vertex -2.7 1.3 11.9836
      vertex -2.6406 2 11.967
      vertex -2.7 2 11.9836
    endloop
  endfacet
  facet normal 0.26853 -0 0.963271
    outer loop
      vertex -2.7 0.5 11.9836
      vertex -2.6406 2 11.967
      vertex -2.7 1.3 11.9836
    endloop
  endfacet
  facet normal 0.26853 0 0.963271
    outer loop
      vertex -2.6406 2 11.967
      vertex -2.7 0.5 11.9836
      vertex -2.6406 -2 11.967
    endloop
  endfacet
  facet normal 0.26853 -0 0.963271
    outer loop
      vertex -2.7 -0.7 11.9836
      vertex -2.6406 -2 11.967
      vertex -2.7 0.5 11.9836
    endloop
  endfacet
  facet normal 0.26853 -0 0.963271
    outer loop
      vertex -2.7 -1.5 11.9836
      vertex -2.6406 -2 11.967
      vertex -2.7 -0.7 11.9836
    endloop
  endfacet
  facet normal 0.26853 0 0.963271
    outer loop
      vertex -2.6406 -2 11.967
      vertex -2.7 -1.5 11.9836
      vertex -2.7 -2 11.9836
    endloop
  endfacet
  facet normal 0.326203 0 0.9453
    outer loop
      vertex -2.6406 2 11.967
      vertex -2.28372 -2 11.8439
      vertex -2.28372 2 11.8439
    endloop
  endfacet
  facet normal 0.326203 0 0.9453
    outer loop
      vertex -2.28372 -2 11.8439
      vertex -2.6406 2 11.967
      vertex -2.6406 -2 11.967
    endloop
  endfacet
  facet normal 0.382684 0 0.923879
    outer loop
      vertex -2.28372 2 11.8439
      vertex -1.93492 -2 11.6994
      vertex -1.93492 2 11.6994
    endloop
  endfacet
  facet normal 0.382684 0 0.923879
    outer loop
      vertex -1.93492 -2 11.6994
      vertex -2.28372 2 11.8439
      vertex -2.28372 -2 11.8439
    endloop
  endfacet
  facet normal 0.437768 0 0.899088
    outer loop
      vertex -1.93492 2 11.6994
      vertex -1.59548 -2 11.5341
      vertex -1.59548 2 11.5341
    endloop
  endfacet
  facet normal 0.437768 0 0.899088
    outer loop
      vertex -1.59548 -2 11.5341
      vertex -1.93492 2 11.6994
      vertex -1.93492 -2 11.6994
    endloop
  endfacet
  facet normal 0.491253 0 0.871017
    outer loop
      vertex -1.59548 2 11.5341
      vertex -1.26664 -2 11.3486
      vertex -1.26664 2 11.3486
    endloop
  endfacet
  facet normal 0.491253 0 0.871017
    outer loop
      vertex -1.26664 -2 11.3486
      vertex -1.59548 2 11.5341
      vertex -1.59548 -2 11.5341
    endloop
  endfacet
  facet normal 0.542949 0 0.839766
    outer loop
      vertex -1.26664 2 11.3486
      vertex -0.949594 -2 11.1436
      vertex -0.949594 2 11.1436
    endloop
  endfacet
  facet normal 0.542949 0 0.839766
    outer loop
      vertex -0.949594 -2 11.1436
      vertex -1.26664 2 11.3486
      vertex -1.26664 -2 11.3486
    endloop
  endfacet
  facet normal 0.592664 0 0.80545
    outer loop
      vertex -0.949594 2 11.1436
      vertex -0.645507 -2 10.9199
      vertex -0.645507 2 10.9199
    endloop
  endfacet
  facet normal 0.592664 0 0.80545
    outer loop
      vertex -0.645507 -2 10.9199
      vertex -0.949594 2 11.1436
      vertex -0.949594 -2 11.1436
    endloop
  endfacet
  facet normal 0.640212 0 0.768199
    outer loop
      vertex -0.645507 2 10.9199
      vertex -0.355483 -2 10.6782
      vertex -0.355483 2 10.6782
    endloop
  endfacet
  facet normal 0.640212 0 0.768199
    outer loop
      vertex -0.355483 -2 10.6782
      vertex -0.645507 2 10.9199
      vertex -0.645507 -2 10.9199
    endloop
  endfacet
  facet normal 0.685427 0 0.728142
    outer loop
      vertex -0.355483 2 10.6782
      vertex -0.0805817 -2 10.4194
      vertex -0.0805817 2 10.4194
    endloop
  endfacet
  facet normal 0.685427 0 0.728142
    outer loop
      vertex -0.0805817 -2 10.4194
      vertex -0.355483 2 10.6782
      vertex -0.355483 -2 10.6782
    endloop
  endfacet
  facet normal 0.728143 -0 0.685425
    outer loop
      vertex -0.0805817 -2 10.4194
      vertex 9.623e-16 2 10.3338
      vertex -0.0805817 2 10.4194
    endloop
  endfacet
  facet normal 0.728143 0 0.685425
    outer loop
      vertex 9.623e-16 2 10.3338
      vertex -0.0805817 -2 10.4194
      vertex 9.623e-16 -2 10.3338
    endloop
  endfacet
  facet normal 0.728143 0 -0.685425
    outer loop
      vertex -9.623e-16 -2 1.66619
      vertex -0.0805817 2 1.58058
      vertex -9.623e-16 2 1.66619
    endloop
  endfacet
  facet normal 0.728143 0 -0.685425
    outer loop
      vertex -0.0805817 2 1.58058
      vertex -9.623e-16 -2 1.66619
      vertex -0.0805817 -2 1.58058
    endloop
  endfacet
  facet normal 0.685427 0 -0.728142
    outer loop
      vertex -0.355483 -2 1.32181
      vertex -0.0805817 2 1.58058
      vertex -0.0805817 -2 1.58058
    endloop
  endfacet
  facet normal 0.685427 0 -0.728142
    outer loop
      vertex -0.0805817 2 1.58058
      vertex -0.355483 -2 1.32181
      vertex -0.355483 2 1.32181
    endloop
  endfacet
  facet normal 0.640212 0 -0.768199
    outer loop
      vertex -0.645507 -2 1.0801
      vertex -0.355483 2 1.32181
      vertex -0.355483 -2 1.32181
    endloop
  endfacet
  facet normal 0.640212 0 -0.768199
    outer loop
      vertex -0.355483 2 1.32181
      vertex -0.645507 -2 1.0801
      vertex -0.645507 2 1.0801
    endloop
  endfacet
  facet normal 0.592664 0 -0.80545
    outer loop
      vertex -0.949594 -2 0.856351
      vertex -0.645507 2 1.0801
      vertex -0.645507 -2 1.0801
    endloop
  endfacet
  facet normal 0.592664 0 -0.80545
    outer loop
      vertex -0.645507 2 1.0801
      vertex -0.949594 -2 0.856351
      vertex -0.949594 2 0.856351
    endloop
  endfacet
  facet normal 0.542949 0 -0.839766
    outer loop
      vertex -1.26664 -2 0.651367
      vertex -0.949594 2 0.856351
      vertex -0.949594 -2 0.856351
    endloop
  endfacet
  facet normal 0.542949 0 -0.839766
    outer loop
      vertex -0.949594 2 0.856351
      vertex -1.26664 -2 0.651367
      vertex -1.26664 2 0.651367
    endloop
  endfacet
  facet normal 0.491253 0 -0.871017
    outer loop
      vertex -1.59548 -2 0.4659
      vertex -1.26664 2 0.651367
      vertex -1.26664 -2 0.651367
    endloop
  endfacet
  facet normal 0.491253 0 -0.871017
    outer loop
      vertex -1.26664 2 0.651367
      vertex -1.59548 -2 0.4659
      vertex -1.59548 2 0.4659
    endloop
  endfacet
  facet normal 0.437768 0 -0.899088
    outer loop
      vertex -1.93492 -2 0.300627
      vertex -1.59548 2 0.4659
      vertex -1.59548 -2 0.4659
    endloop
  endfacet
  facet normal 0.437768 0 -0.899088
    outer loop
      vertex -1.59548 2 0.4659
      vertex -1.93492 -2 0.300627
      vertex -1.93492 2 0.300627
    endloop
  endfacet
  facet normal 0.382684 0 -0.923879
    outer loop
      vertex -2.28372 -2 0.156149
      vertex -1.93492 2 0.300627
      vertex -1.93492 -2 0.300627
    endloop
  endfacet
  facet normal 0.382684 0 -0.923879
    outer loop
      vertex -1.93492 2 0.300627
      vertex -2.28372 -2 0.156149
      vertex -2.28372 2 0.156149
    endloop
  endfacet
  facet normal 0.326203 0 -0.9453
    outer loop
      vertex -2.6406 -2 0.0329952
      vertex -2.28372 2 0.156149
      vertex -2.28372 -2 0.156149
    endloop
  endfacet
  facet normal 0.326203 0 -0.9453
    outer loop
      vertex -2.28372 2 0.156149
      vertex -2.6406 -2 0.0329952
      vertex -2.6406 2 0.0329952
    endloop
  endfacet
  facet normal 0.268533 0 -0.963271
    outer loop
      vertex -2.75896 -2 1.0567e-15
      vertex -2.6406 2 0.0329952
      vertex -2.6406 -2 0.0329952
    endloop
  endfacet
  facet normal 0.268533 -2.14419e-16 -0.963271
    outer loop
      vertex -2.6406 2 0.0329952
      vertex -2.75896 -2 1.0567e-15
      vertex -2.75896 2 1.68524e-16
    endloop
  endfacet
  facet normal 0 -1 0
    outer loop
      vertex -2.6406 2 11.967
      vertex -2.7 2 12
      vertex -2.7 2 11.9836
    endloop
  endfacet
  facet normal 0 -1 0
    outer loop
      vertex -2.28372 2 11.8439
      vertex -2.7 2 12
      vertex -2.6406 2 11.967
    endloop
  endfacet
  facet normal 0 -1 0
    outer loop
      vertex -2.7 2 12
      vertex -2.28372 2 11.8439
      vertex 1.33227e-15 2 12
    endloop
  endfacet
  facet normal 0 -1 0
    outer loop
      vertex -1.93492 2 11.6994
      vertex 1.33227e-15 2 12
      vertex -2.28372 2 11.8439
    endloop
  endfacet
  facet normal 0 -1 0
    outer loop
      vertex -1.59548 2 11.5341
      vertex 1.33227e-15 2 12
      vertex -1.93492 2 11.6994
    endloop
  endfacet
  facet normal 0 -1 0
    outer loop
      vertex -1.26664 2 11.3486
      vertex 1.33227e-15 2 12
      vertex -1.59548 2 11.5341
    endloop
  endfacet
  facet normal 0 -1 0
    outer loop
      vertex -0.949594 2 11.1436
      vertex 1.33227e-15 2 12
      vertex -1.26664 2 11.3486
    endloop
  endfacet
  facet normal 0 -1 0
    outer loop
      vertex -0.645507 2 10.9199
      vertex 1.33227e-15 2 12
      vertex -0.949594 2 11.1436
    endloop
  endfacet
  facet normal 0 -1 0
    outer loop
      vertex -0.355483 2 10.6782
      vertex 1.33227e-15 2 12
      vertex -0.645507 2 10.9199
    endloop
  endfacet
  facet normal 0 -1 0
    outer loop
      vertex -0.0805817 2 10.4194
      vertex 1.33227e-15 2 12
      vertex -0.355483 2 10.6782
    endloop
  endfacet
  facet normal 0 -1 0
    outer loop
      vertex 1.33227e-15 2 12
      vertex -0.0805817 2 10.4194
      vertex 9.623e-16 2 10.3338
    endloop
  endfacet
  facet normal 0 -1 0
    outer loop
      vertex -0.0805817 2 1.58058
      vertex -1.33227e-15 2 -4.44089e-16
      vertex -9.623e-16 2 1.66619
    endloop
  endfacet
  facet normal 0 -1 0
    outer loop
      vertex -0.355483 2 1.32181
      vertex -1.33227e-15 2 -4.44089e-16
      vertex -0.0805817 2 1.58058
    endloop
  endfacet
  facet normal 0 -1 0
    outer loop
      vertex -0.645507 2 1.0801
      vertex -1.33227e-15 2 -4.44089e-16
      vertex -0.355483 2 1.32181
    endloop
  endfacet
  facet normal 0 -1 0
    outer loop
      vertex -0.949594 2 0.856351
      vertex -1.33227e-15 2 -4.44089e-16
      vertex -0.645507 2 1.0801
    endloop
  endfacet
  facet normal 0 -1 0
    outer loop
      vertex -1.26664 2 0.651367
      vertex -1.33227e-15 2 -4.44089e-16
      vertex -0.949594 2 0.856351
    endloop
  endfacet
  facet normal 0 -1 0
    outer loop
      vertex -1.59548 2 0.4659
      vertex -1.33227e-15 2 -4.44089e-16
      vertex -1.26664 2 0.651367
    endloop
  endfacet
  facet normal 0 -1 0
    outer loop
      vertex -1.93492 2 0.300627
      vertex -1.33227e-15 2 -4.44089e-16
      vertex -1.59548 2 0.4659
    endloop
  endfacet
  facet normal 0 -1 0
    outer loop
      vertex -2.28372 2 0.156149
      vertex -1.33227e-15 2 -4.44089e-16
      vertex -1.93492 2 0.300627
    endloop
  endfacet
  facet normal 0 -1 0
    outer loop
      vertex -2.6406 2 0.0329952
      vertex -1.33227e-15 2 -4.44089e-16
      vertex -2.28372 2 0.156149
    endloop
  endfacet
  facet normal 0 -1 0
    outer loop
      vertex -1.33227e-15 2 -4.44089e-16
      vertex -2.6406 2 0.0329952
      vertex -2.75896 2 1.68524e-16
    endloop
  endfacet
  facet normal 0 1 -0
    outer loop
      vertex -2.28372 -2 11.8439
      vertex -2.7 -2 12
      vertex 1.33227e-15 -2 12
    endloop
  endfacet
  facet normal 0 1 0
    outer loop
      vertex -2.7 -2 12
      vertex -2.6406 -2 11.967
      vertex -2.7 -2 11.9836
    endloop
  endfacet
  facet normal 0 1 0
    outer loop
      vertex -2.7 -2 12
      vertex -2.28372 -2 11.8439
      vertex -2.6406 -2 11.967
    endloop
  endfacet
  facet normal 0 1 0
    outer loop
      vertex 1.33227e-15 -2 12
      vertex -1.93492 -2 11.6994
      vertex -2.28372 -2 11.8439
    endloop
  endfacet
  facet normal 0 1 0
    outer loop
      vertex 1.33227e-15 -2 12
      vertex -1.59548 -2 11.5341
      vertex -1.93492 -2 11.6994
    endloop
  endfacet
  facet normal 0 1 0
    outer loop
      vertex 1.33227e-15 -2 12
      vertex -1.26664 -2 11.3486
      vertex -1.59548 -2 11.5341
    endloop
  endfacet
  facet normal 0 1 0
    outer loop
      vertex 1.33227e-15 -2 12
      vertex -0.949594 -2 11.1436
      vertex -1.26664 -2 11.3486
    endloop
  endfacet
  facet normal 0 1 0
    outer loop
      vertex 1.33227e-15 -2 12
      vertex -0.645507 -2 10.9199
      vertex -0.949594 -2 11.1436
    endloop
  endfacet
  facet normal 0 1 0
    outer loop
      vertex 1.33227e-15 -2 12
      vertex -0.355483 -2 10.6782
      vertex -0.645507 -2 10.9199
    endloop
  endfacet
  facet normal 0 1 0
    outer loop
      vertex 1.33227e-15 -2 12
      vertex -0.0805817 -2 10.4194
      vertex -0.355483 -2 10.6782
    endloop
  endfacet
  facet normal -0 1 0
    outer loop
      vertex -0.0805817 -2 10.4194
      vertex 1.33227e-15 -2 12
      vertex 9.623e-16 -2 10.3338
    endloop
  endfacet
  facet normal 0 1 0
    outer loop
      vertex -2.6406 -2 0.0329952
      vertex -1.33227e-15 -2 4.44089e-16
      vertex -2.75896 -2 1.0567e-15
    endloop
  endfacet
  facet normal 0 1 0
    outer loop
      vertex -2.28372 -2 0.156149
      vertex -1.33227e-15 -2 4.44089e-16
      vertex -2.6406 -2 0.0329952
    endloop
  endfacet
  facet normal 0 1 0
    outer loop
      vertex -1.93492 -2 0.300627
      vertex -1.33227e-15 -2 4.44089e-16
      vertex -2.28372 -2 0.156149
    endloop
  endfacet
  facet normal 0 1 0
    outer loop
      vertex -1.59548 -2 0.4659
      vertex -1.33227e-15 -2 4.44089e-16
      vertex -1.93492 -2 0.300627
    endloop
  endfacet
  facet normal 0 1 0
    outer loop
      vertex -1.26664 -2 0.651367
      vertex -1.33227e-15 -2 4.44089e-16
      vertex -1.59548 -2 0.4659
    endloop
  endfacet
  facet normal 0 1 0
    outer loop
      vertex -0.949594 -2 0.856351
      vertex -1.33227e-15 -2 4.44089e-16
      vertex -1.26664 -2 0.651367
    endloop
  endfacet
  facet normal 0 1 0
    outer loop
      vertex -0.645507 -2 1.0801
      vertex -1.33227e-15 -2 4.44089e-16
      vertex -0.949594 -2 0.856351
    endloop
  endfacet
  facet normal 0 1 0
    outer loop
      vertex -0.355483 -2 1.32181
      vertex -1.33227e-15 -2 4.44089e-16
      vertex -0.645507 -2 1.0801
    endloop
  endfacet
  facet normal 0 1 0
    outer loop
      vertex -0.0805817 -2 1.58058
      vertex -1.33227e-15 -2 4.44089e-16
      vertex -0.355483 -2 1.32181
    endloop
  endfacet
  facet normal 0 1 -0
    outer loop
      vertex -1.33227e-15 -2 4.44089e-16
      vertex -0.0805817 -2 1.58058
      vertex -9.623e-16 -2 1.66619
    endloop
  endfacet
  facet normal 0 -1 0
    outer loop
      vertex -6.71628 2 11.8439
      vertex -6.3 2 12
      vertex -9 2 12
    endloop
  endfacet
  facet normal 0 -1 -0
    outer loop
      vertex -6.3 2 12
      vertex -6.35939 2 11.967
      vertex -6.3 2 11.9836
    endloop
  endfacet
  facet normal 0 -1 0
    outer loop
      vertex -6.3 2 12
      vertex -6.71628 2 11.8439
      vertex -6.35939 2 11.967
    endloop
  endfacet
  facet normal 0 -1 0
    outer loop
      vertex -9 2 12
      vertex -7.06508 2 11.6994
      vertex -6.71628 2 11.8439
    endloop
  endfacet
  facet normal 0 -1 0
    outer loop
      vertex -9 2 12
      vertex -7.40452 2 11.5341
      vertex -7.06508 2 11.6994
    endloop
  endfacet
  facet normal 0 -1 0
    outer loop
      vertex -9 2 12
      vertex -7.73336 2 11.3486
      vertex -7.40452 2 11.5341
    endloop
  endfacet
  facet normal 0 -1 0
    outer loop
      vertex -9 2 12
      vertex -8.0504 2 11.1436
      vertex -7.73336 2 11.3486
    endloop
  endfacet
  facet normal 0 -1 0
    outer loop
      vertex -9 2 12
      vertex -8.35449 2 10.9199
      vertex -8.0504 2 11.1436
    endloop
  endfacet
  facet normal 0 -1 0
    outer loop
      vertex -9 2 12
      vertex -8.64452 2 10.6782
      vertex -8.35449 2 10.9199
    endloop
  endfacet
  facet normal 0 -1 0
    outer loop
      vertex -9 2 12
      vertex -8.91942 2 10.4194
      vertex -8.64452 2 10.6782
    endloop
  endfacet
  facet normal -0 -1 0
    outer loop
      vertex -8.91942 2 10.4194
      vertex -9 2 12
      vertex -9 2 10.3338
    endloop
  endfacet
  facet normal 0 -1 0
    outer loop
      vertex -9 2 1.55431e-15
      vertex -8.91942 2 1.58058
      vertex -9 2 1.66619
    endloop
  endfacet
  facet normal 0 -1 0
    outer loop
      vertex -9 2 1.55431e-15
      vertex -8.64452 2 1.32181
      vertex -8.91942 2 1.58058
    endloop
  endfacet
  facet normal 0 -1 0
    outer loop
      vertex -9 2 1.55431e-15
      vertex -8.35449 2 1.0801
      vertex -8.64452 2 1.32181
    endloop
  endfacet
  facet normal 0 -1 0
    outer loop
      vertex -9 2 1.55431e-15
      vertex -8.0504 2 0.856351
      vertex -8.35449 2 1.0801
    endloop
  endfacet
  facet normal 0 -1 0
    outer loop
      vertex -9 2 1.55431e-15
      vertex -7.73336 2 0.651367
      vertex -8.0504 2 0.856351
    endloop
  endfacet
  facet normal 0 -1 0
    outer loop
      vertex -9 2 1.55431e-15
      vertex -7.40452 2 0.4659
      vertex -7.73336 2 0.651367
    endloop
  endfacet
  facet normal 0 -1 0
    outer loop
      vertex -9 2 1.55431e-15
      vertex -7.06508 2 0.300627
      vertex -7.40452 2 0.4659
    endloop
  endfacet
  facet normal 0 -1 0
    outer loop
      vertex -9 2 1.55431e-15
      vertex -6.71628 2 0.156149
      vertex -7.06508 2 0.300627
    endloop
  endfacet
  facet normal 0 -1 0
    outer loop
      vertex -9 2 1.55431e-15
      vertex -6.35939 2 0.0329952
      vertex -6.71628 2 0.156149
    endloop
  endfacet
  facet normal 0 -1 -0
    outer loop
      vertex -6.35939 2 0.0329952
      vertex -9 2 1.55431e-15
      vertex -6.24103 2 9.41699e-16
    endloop
  endfacet
  facet normal 0 1 0
    outer loop
      vertex -6.35939 -2 11.967
      vertex -6.3 -2 12
      vertex -6.3 -2 11.9836
    endloop
  endfacet
  facet normal 0 1 0
    outer loop
      vertex -6.71628 -2 11.8439
      vertex -6.3 -2 12
      vertex -6.35939 -2 11.967
    endloop
  endfacet
  facet normal 0 1 0
    outer loop
      vertex -6.3 -2 12
      vertex -6.71628 -2 11.8439
      vertex -9 -2 12
    endloop
  endfacet
  facet normal 0 1 -0
    outer loop
      vertex -7.06508 -2 11.6994
      vertex -9 -2 12
      vertex -6.71628 -2 11.8439
    endloop
  endfacet
  facet normal 0 1 -0
    outer loop
      vertex -7.40452 -2 11.5341
      vertex -9 -2 12
      vertex -7.06508 -2 11.6994
    endloop
  endfacet
  facet normal 0 1 -0
    outer loop
      vertex -7.73336 -2 11.3486
      vertex -9 -2 12
      vertex -7.40452 -2 11.5341
    endloop
  endfacet
  facet normal 0 1 -0
    outer loop
      vertex -8.0504 -2 11.1436
      vertex -9 -2 12
      vertex -7.73336 -2 11.3486
    endloop
  endfacet
  facet normal 0 1 -0
    outer loop
      vertex -8.35449 -2 10.9199
      vertex -9 -2 12
      vertex -8.0504 -2 11.1436
    endloop
  endfacet
  facet normal 0 1 -0
    outer loop
      vertex -8.64452 -2 10.6782
      vertex -9 -2 12
      vertex -8.35449 -2 10.9199
    endloop
  endfacet
  facet normal 0 1 -0
    outer loop
      vertex -8.91942 -2 10.4194
      vertex -9 -2 12
      vertex -8.64452 -2 10.6782
    endloop
  endfacet
  facet normal 0 1 0
    outer loop
      vertex -9 -2 12
      vertex -8.91942 -2 10.4194
      vertex -9 -2 10.3338
    endloop
  endfacet
  facet normal 0 1 0
    outer loop
      vertex -8.91942 -2 1.58058
      vertex -9 -2 2.44249e-15
      vertex -9 -2 1.66619
    endloop
  endfacet
  facet normal 0 1 0
    outer loop
      vertex -8.64452 -2 1.32181
      vertex -9 -2 2.44249e-15
      vertex -8.91942 -2 1.58058
    endloop
  endfacet
  facet normal 0 1 0
    outer loop
      vertex -8.35449 -2 1.0801
      vertex -9 -2 2.44249e-15
      vertex -8.64452 -2 1.32181
    endloop
  endfacet
  facet normal 0 1 0
    outer loop
      vertex -8.0504 -2 0.856351
      vertex -9 -2 2.44249e-15
      vertex -8.35449 -2 1.0801
    endloop
  endfacet
  facet normal 0 1 0
    outer loop
      vertex -7.73336 -2 0.651367
      vertex -9 -2 2.44249e-15
      vertex -8.0504 -2 0.856351
    endloop
  endfacet
  facet normal 0 1 0
    outer loop
      vertex -7.40452 -2 0.4659
      vertex -9 -2 2.44249e-15
      vertex -7.73336 -2 0.651367
    endloop
  endfacet
  facet normal 0 1 0
    outer loop
      vertex -7.06508 -2 0.300627
      vertex -9 -2 2.44249e-15
      vertex -7.40452 -2 0.4659
    endloop
  endfacet
  facet normal 0 1 0
    outer loop
      vertex -6.71628 -2 0.156149
      vertex -9 -2 2.44249e-15
      vertex -7.06508 -2 0.300627
    endloop
  endfacet
  facet normal 0 1 0
    outer loop
      vertex -6.35939 -2 0.0329952
      vertex -9 -2 2.44249e-15
      vertex -6.71628 -2 0.156149
    endloop
  endfacet
  facet normal -0 1 0
    outer loop
      vertex -9 -2 2.44249e-15
      vertex -6.35939 -2 0.0329952
      vertex -6.24103 -2 1.82988e-15
    endloop
  endfacet
  facet normal -0.268533 -2.13537e-16 -0.96327
    outer loop
      vertex -6.35939 -2 0.0329952
      vertex -6.24103 2 9.41699e-16
      vertex -6.24103 -2 1.82988e-15
    endloop
  endfacet
  facet normal -0.268533 0 -0.96327
    outer loop
      vertex -6.24103 2 9.41699e-16
      vertex -6.35939 -2 0.0329952
      vertex -6.35939 2 0.0329952
    endloop
  endfacet
  facet normal -0.326203 0 -0.9453
    outer loop
      vertex -6.71628 -2 0.156149
      vertex -6.35939 2 0.0329952
      vertex -6.35939 -2 0.0329952
    endloop
  endfacet
  facet normal -0.326203 0 -0.9453
    outer loop
      vertex -6.35939 2 0.0329952
      vertex -6.71628 -2 0.156149
      vertex -6.71628 2 0.156149
    endloop
  endfacet
  facet normal -0.382684 0 -0.923879
    outer loop
      vertex -7.06508 -2 0.300627
      vertex -6.71628 2 0.156149
      vertex -6.71628 -2 0.156149
    endloop
  endfacet
  facet normal -0.382684 0 -0.923879
    outer loop
      vertex -6.71628 2 0.156149
      vertex -7.06508 -2 0.300627
      vertex -7.06508 2 0.300627
    endloop
  endfacet
  facet normal -0.437768 0 -0.899088
    outer loop
      vertex -7.40452 -2 0.4659
      vertex -7.06508 2 0.300627
      vertex -7.06508 -2 0.300627
    endloop
  endfacet
  facet normal -0.437768 0 -0.899088
    outer loop
      vertex -7.06508 2 0.300627
      vertex -7.40452 -2 0.4659
      vertex -7.40452 2 0.4659
    endloop
  endfacet
  facet normal -0.491253 0 -0.871017
    outer loop
      vertex -7.73336 -2 0.651367
      vertex -7.40452 2 0.4659
      vertex -7.40452 -2 0.4659
    endloop
  endfacet
  facet normal -0.491253 0 -0.871017
    outer loop
      vertex -7.40452 2 0.4659
      vertex -7.73336 -2 0.651367
      vertex -7.73336 2 0.651367
    endloop
  endfacet
  facet normal -0.542949 0 -0.839766
    outer loop
      vertex -8.0504 -2 0.856351
      vertex -7.73336 2 0.651367
      vertex -7.73336 -2 0.651367
    endloop
  endfacet
  facet normal -0.542949 0 -0.839766
    outer loop
      vertex -7.73336 2 0.651367
      vertex -8.0504 -2 0.856351
      vertex -8.0504 2 0.856351
    endloop
  endfacet
  facet normal -0.592664 0 -0.80545
    outer loop
      vertex -8.35449 -2 1.0801
      vertex -8.0504 2 0.856351
      vertex -8.0504 -2 0.856351
    endloop
  endfacet
  facet normal -0.592664 0 -0.80545
    outer loop
      vertex -8.0504 2 0.856351
      vertex -8.35449 -2 1.0801
      vertex -8.35449 2 1.0801
    endloop
  endfacet
  facet normal -0.640212 0 -0.768199
    outer loop
      vertex -8.64452 -2 1.32181
      vertex -8.35449 2 1.0801
      vertex -8.35449 -2 1.0801
    endloop
  endfacet
  facet normal -0.640212 0 -0.768199
    outer loop
      vertex -8.35449 2 1.0801
      vertex -8.64452 -2 1.32181
      vertex -8.64452 2 1.32181
    endloop
  endfacet
  facet normal -0.685427 0 -0.728142
    outer loop
      vertex -8.91942 -2 1.58058
      vertex -8.64452 2 1.32181
      vertex -8.64452 -2 1.32181
    endloop
  endfacet
  facet normal -0.685427 0 -0.728142
    outer loop
      vertex -8.64452 2 1.32181
      vertex -8.91942 -2 1.58058
      vertex -8.91942 2 1.58058
    endloop
  endfacet
  facet normal -0.728142 0 -0.685427
    outer loop
      vertex -8.91942 -2 1.58058
      vertex -9 2 1.66619
      vertex -8.91942 2 1.58058
    endloop
  endfacet
  facet normal -0.728142 -0 -0.685427
    outer loop
      vertex -9 2 1.66619
      vertex -8.91942 -2 1.58058
      vertex -9 -2 1.66619
    endloop
  endfacet
endsolid OpenSCAD_Model
