solid OpenSCAD_Model
  facet normal 0 1 -0
    outer loop
      vertex -2.7 8.4 2.5
      vertex -3.7 8.4 12
      vertex -2.7 8.4 12
    endloop
  endfacet
  facet normal 0 1 0
    outer loop
      vertex -3.7 8.4 12
      vertex -2.7 8.4 2.5
      vertex -3.7 8.4 2.5
    endloop
  endfacet
  facet normal -1 0 0
    outer loop
      vertex -3.7 7.6 2.5
      vertex -3.7 8.4 12
      vertex -3.7 8.4 2.5
    endloop
  endfacet
  facet normal -1 -0 0
    outer loop
      vertex -3.7 8.4 12
      vertex -3.7 7.6 2.5
      vertex -3.7 7.6 12
    endloop
  endfacet
  facet normal 0 -1 0
    outer loop
      vertex -3.7 7.6 2.5
      vertex -2.7 7.6 12
      vertex -3.7 7.6 12
    endloop
  endfacet
  facet normal 0 -1 -0
    outer loop
      vertex -2.7 7.6 12
      vertex -3.7 7.6 2.5
      vertex -2.7 7.6 2.5
    endloop
  endfacet
  facet normal -0 0 1
    outer loop
      vertex -6.3 -6.4 2.5
      vertex -5.3 -7.6 2.5
      vertex -5.3 -6.4 2.5
    endloop
  endfacet
  facet normal 0 0 1
    outer loop
      vertex -5.3 -7.6 2.5
      vertex -6.3 -6.4 2.5
      vertex -6.3 -7.6 2.5
    endloop
  endfacet
  facet normal -0 0 1
    outer loop
      vertex -6.3 -4.4 2.5
      vertex -5.3 -5.6 2.5
      vertex -5.3 -4.4 2.5
    endloop
  endfacet
  facet normal 0 0 1
    outer loop
      vertex -5.3 -5.6 2.5
      vertex -6.3 -4.4 2.5
      vertex -6.3 -5.6 2.5
    endloop
  endfacet
  facet normal -0 0 1
    outer loop
      vertex -6.3 -2.4 2.5
      vertex -5.3 -3.6 2.5
      vertex -5.3 -2.4 2.5
    endloop
  endfacet
  facet normal 0 0 1
    outer loop
      vertex -5.3 -3.6 2.5
      vertex -6.3 -2.4 2.5
      vertex -6.3 -3.6 2.5
    endloop
  endfacet
  facet normal -0 0 1
    outer loop
      vertex -6.3 -0.4 2.5
      vertex -5.3 -1.6 2.5
      vertex -5.3 -0.4 2.5
    endloop
  endfacet
  facet normal 0 0 1
    outer loop
      vertex -5.3 -1.6 2.5
      vertex -6.3 -0.4 2.5
      vertex -6.3 -1.6 2.5
    endloop
  endfacet
  facet normal -0 0 1
    outer loop
      vertex -6.3 1.6 2.5
      vertex -5.3 0.4 2.5
      vertex -5.3 1.6 2.5
    endloop
  endfacet
  facet normal 0 0 1
    outer loop
      vertex -5.3 0.4 2.5
      vertex -6.3 1.6 2.5
      vertex -6.3 0.4 2.5
    endloop
  endfacet
  facet normal -0 0 1
    outer loop
      vertex -6.3 3.6 2.5
      vertex -5.3 2.4 2.5
      vertex -5.3 3.6 2.5
    endloop
  endfacet
  facet normal 0 0 1
    outer loop
      vertex -5.3 2.4 2.5
      vertex -6.3 3.6 2.5
      vertex -6.3 2.4 2.5
    endloop
  endfacet
  facet normal -0 0 1
    outer loop
      vertex -6.3 5.6 2.5
      vertex -5.3 4.4 2.5
      vertex -5.3 5.6 2.5
    endloop
  endfacet
  facet normal 0 0 1
    outer loop
      vertex -5.3 4.4 2.5
      vertex -6.3 5.6 2.5
      vertex -6.3 4.4 2.5
    endloop
  endfacet
  facet normal -0 0 1
    outer loop
      vertex -6.3 7.6 2.5
      vertex -5.3 6.4 2.5
      vertex -5.3 7.6 2.5
    endloop
  endfacet
  facet normal 0 0 1
    outer loop
      vertex -5.3 6.4 2.5
      vertex -6.3 7.6 2.5
      vertex -6.3 6.4 2.5
    endloop
  endfacet
  facet normal 0 0 1
    outer loop
      vertex -2.7 9 2.5
      vertex -3.7 8.4 2.5
      vertex -2.7 8.4 2.5
    endloop
  endfacet
  facet normal 0 0 1
    outer loop
      vertex -5.3 7.6 2.5
      vertex -3.7 7.6 2.5
      vertex -3.7 8.4 2.5
    endloop
  endfacet
  facet normal 0 0 1
    outer loop
      vertex -3.7 7.6 2.5
      vertex -5.3 7.6 2.5
      vertex -3.7 6.4 2.5
    endloop
  endfacet
  facet normal 0 0 1
    outer loop
      vertex -3.7 6.4 2.5
      vertex -5.3 6.4 2.5
      vertex -3.7 5.6 2.5
    endloop
  endfacet
  facet normal 0 0 1
    outer loop
      vertex -5.3 5.6 2.5
      vertex -3.7 5.6 2.5
      vertex -5.3 6.4 2.5
    endloop
  endfacet
  facet normal 0 0 1
    outer loop
      vertex -5.3 4.4 2.5
      vertex -3.7 4.4 2.5
      vertex -5.3 5.6 2.5
    endloop
  endfacet
  facet normal 0 0 1
    outer loop
      vertex -3.7 4.4 2.5
      vertex -5.3 4.4 2.5
      vertex -3.7 3.6 2.5
    endloop
  endfacet
  facet normal 0 0 1
    outer loop
      vertex -3.7 3.6 2.5
      vertex -5.3 3.6 2.5
      vertex -3.7 2.4 2.5
    endloop
  endfacet
  facet normal 0 0 1
    outer loop
      vertex -5.3 2.4 2.5
      vertex -3.7 2.4 2.5
      vertex -5.3 3.6 2.5
    endloop
  endfacet
  facet normal 0 0 1
    outer loop
      vertex -5.3 1.6 2.5
      vertex -3.7 1.6 2.5
      vertex -5.3 2.4 2.5
    endloop
  endfacet
  facet normal 0 0 1
    outer loop
      vertex -3.7 1.6 2.5
      vertex -5.3 1.6 2.5
      vertex -3.7 0.4 2.5
    endloop
  endfacet
  facet normal 0 0 1
    outer loop
      vertex -3.7 0.4 2.5
      vertex -5.3 0.4 2.5
      vertex -3.7 -0.4 2.5
    endloop
  endfacet
  facet normal 0 0 1
    outer loop
      vertex -5.3 -0.4 2.5
      vertex -3.7 -0.4 2.5
      vertex -5.3 0.4 2.5
    endloop
  endfacet
  facet normal 0 0 1
    outer loop
      vertex -5.3 -1.6 2.5
      vertex -3.7 -1.6 2.5
      vertex -5.3 -0.4 2.5
    endloop
  endfacet
  facet normal 0 0 1
    outer loop
      vertex -3.7 -1.6 2.5
      vertex -5.3 -1.6 2.5
      vertex -3.7 -2.4 2.5
    endloop
  endfacet
  facet normal 0 0 1
    outer loop
      vertex -3.7 -2.4 2.5
      vertex -5.3 -2.4 2.5
      vertex -3.7 -3.6 2.5
    endloop
  endfacet
  facet normal 0 0 1
    outer loop
      vertex -5.3 -3.6 2.5
      vertex -3.7 -3.6 2.5
      vertex -5.3 -2.4 2.5
    endloop
  endfacet
  facet normal 0 0 1
    outer loop
      vertex -5.3 7.6 2.5
      vertex -3.7 8.4 2.5
      vertex -5.3 8.4 2.5
    endloop
  endfacet
  facet normal 0 0 1
    outer loop
      vertex -2.7 9 2.5
      vertex -5.3 8.4 2.5
      vertex -3.7 8.4 2.5
    endloop
  endfacet
  facet normal -0 0 1
    outer loop
      vertex -6.3 9 2.5
      vertex -5.3 8.4 2.5
      vertex -2.7 9 2.5
    endloop
  endfacet
  facet normal 0 0 1
    outer loop
      vertex -5.3 8.4 2.5
      vertex -6.3 9 2.5
      vertex -6.3 8.4 2.5
    endloop
  endfacet
  facet normal -0 0 1
    outer loop
      vertex -3.7 7.6 2.5
      vertex -2.7 6.4 2.5
      vertex -2.7 7.6 2.5
    endloop
  endfacet
  facet normal 0 0 1
    outer loop
      vertex -2.7 6.4 2.5
      vertex -3.7 7.6 2.5
      vertex -3.7 6.4 2.5
    endloop
  endfacet
  facet normal -0 0 1
    outer loop
      vertex -3.7 5.6 2.5
      vertex -2.7 4.4 2.5
      vertex -2.7 5.6 2.5
    endloop
  endfacet
  facet normal 0 0 1
    outer loop
      vertex -2.7 4.4 2.5
      vertex -3.7 5.6 2.5
      vertex -3.7 4.4 2.5
    endloop
  endfacet
  facet normal -0 0 1
    outer loop
      vertex -3.7 3.6 2.5
      vertex -2.7 2.4 2.5
      vertex -2.7 3.6 2.5
    endloop
  endfacet
  facet normal 0 0 1
    outer loop
      vertex -2.7 2.4 2.5
      vertex -3.7 3.6 2.5
      vertex -3.7 2.4 2.5
    endloop
  endfacet
  facet normal -0 0 1
    outer loop
      vertex -3.7 1.6 2.5
      vertex -2.7 0.4 2.5
      vertex -2.7 1.6 2.5
    endloop
  endfacet
  facet normal 0 0 1
    outer loop
      vertex -2.7 0.4 2.5
      vertex -3.7 1.6 2.5
      vertex -3.7 0.4 2.5
    endloop
  endfacet
  facet normal -0 0 1
    outer loop
      vertex -3.7 -0.4 2.5
      vertex -2.7 -1.6 2.5
      vertex -2.7 -0.4 2.5
    endloop
  endfacet
  facet normal 0 0 1
    outer loop
      vertex -2.7 -1.6 2.5
      vertex -3.7 -0.4 2.5
      vertex -3.7 -1.6 2.5
    endloop
  endfacet
  facet normal -0 0 1
    outer loop
      vertex -3.7 -2.4 2.5
      vertex -2.7 -3.6 2.5
      vertex -2.7 -2.4 2.5
    endloop
  endfacet
  facet normal 0 0 1
    outer loop
      vertex -2.7 -3.6 2.5
      vertex -3.7 -2.4 2.5
      vertex -3.7 -3.6 2.5
    endloop
  endfacet
  facet normal -0 0 1
    outer loop
      vertex -3.7 -4.4 2.5
      vertex -2.7 -5.6 2.5
      vertex -2.7 -4.4 2.5
    endloop
  endfacet
  facet normal 0 0 1
    outer loop
      vertex -2.7 -5.6 2.5
      vertex -3.7 -4.4 2.5
      vertex -3.7 -5.6 2.5
    endloop
  endfacet
  facet normal -0 0 1
    outer loop
      vertex -3.7 -6.4 2.5
      vertex -2.7 -7.6 2.5
      vertex -2.7 -6.4 2.5
    endloop
  endfacet
  facet normal 0 0 1
    outer loop
      vertex -2.7 -7.6 2.5
      vertex -3.7 -6.4 2.5
      vertex -3.7 -7.6 2.5
    endloop
  endfacet
  facet normal -0 0 1
    outer loop
      vertex -3.7 -8.4 2.5
      vertex -2.7 -9 2.5
      vertex -2.7 -8.4 2.5
    endloop
  endfacet
  facet normal 0 0 1
    outer loop
      vertex -3.7 6.4 2.5
      vertex -5.3 7.6 2.5
      vertex -5.3 6.4 2.5
    endloop
  endfacet
  facet normal 0 0 1
    outer loop
      vertex -3.7 5.6 2.5
      vertex -5.3 5.6 2.5
      vertex -3.7 4.4 2.5
    endloop
  endfacet
  facet normal 0 0 1
    outer loop
      vertex -5.3 3.6 2.5
      vertex -3.7 3.6 2.5
      vertex -5.3 4.4 2.5
    endloop
  endfacet
  facet normal 0 0 1
    outer loop
      vertex -3.7 2.4 2.5
      vertex -5.3 2.4 2.5
      vertex -3.7 1.6 2.5
    endloop
  endfacet
  facet normal 0 0 1
    outer loop
      vertex -5.3 0.4 2.5
      vertex -3.7 0.4 2.5
      vertex -5.3 1.6 2.5
    endloop
  endfacet
  facet normal 0 0 1
    outer loop
      vertex -3.7 -0.4 2.5
      vertex -5.3 -0.4 2.5
      vertex -3.7 -1.6 2.5
    endloop
  endfacet
  facet normal 0 0 1
    outer loop
      vertex -5.3 -2.4 2.5
      vertex -3.7 -2.4 2.5
      vertex -5.3 -1.6 2.5
    endloop
  endfacet
  facet normal 0 0 1
    outer loop
      vertex -3.7 -3.6 2.5
      vertex -5.3 -3.6 2.5
      vertex -3.7 -4.4 2.5
    endloop
  endfacet
  facet normal 0 0 1
    outer loop
      vertex -5.3 -4.4 2.5
      vertex -3.7 -4.4 2.5
      vertex -5.3 -3.6 2.5
    endloop
  endfacet
  facet normal 0 0 1
    outer loop
      vertex -3.7 -4.4 2.5
      vertex -5.3 -4.4 2.5
      vertex -3.7 -5.6 2.5
    endloop
  endfacet
  facet normal 0 0 1
    outer loop
      vertex -5.3 -5.6 2.5
      vertex -3.7 -5.6 2.5
      vertex -5.3 -4.4 2.5
    endloop
  endfacet
  facet normal 0 0 1
    outer loop
      vertex -3.7 -5.6 2.5
      vertex -5.3 -5.6 2.5
      vertex -3.7 -6.4 2.5
    endloop
  endfacet
  facet normal 0 0 1
    outer loop
      vertex -5.3 -6.4 2.5
      vertex -3.7 -6.4 2.5
      vertex -5.3 -5.6 2.5
    endloop
  endfacet
  facet normal 0 0 1
    outer loop
      vertex -3.7 -6.4 2.5
      vertex -5.3 -6.4 2.5
      vertex -3.7 -7.6 2.5
    endloop
  endfacet
  facet normal 0 0 1
    outer loop
      vertex -5.3 -7.6 2.5
      vertex -3.7 -7.6 2.5
      vertex -5.3 -6.4 2.5
    endloop
  endfacet
  facet normal 0 0 1
    outer loop
      vertex -3.7 -7.6 2.5
      vertex -5.3 -7.6 2.5
      vertex -3.7 -8.4 2.5
    endloop
  endfacet
  facet normal 0 0 1
    outer loop
      vertex -5.3 -8.4 2.5
      vertex -3.7 -8.4 2.5
      vertex -5.3 -7.6 2.5
    endloop
  endfacet
  facet normal 0 0 1
    outer loop
      vertex -3.7 -8.4 2.5
      vertex -5.3 -8.4 2.5
      vertex -2.7 -9 2.5
    endloop
  endfacet
  facet normal 0 0 1
    outer loop
      vertex -6.3 -9 2.5
      vertex -5.3 -8.4 2.5
      vertex -6.3 -8.4 2.5
    endloop
  endfacet
  facet normal 0 0 1
    outer loop
      vertex -5.3 -8.4 2.5
      vertex -6.3 -9 2.5
      vertex -2.7 -9 2.5
    endloop
  endfacet
  facet normal 0 1 -0
    outer loop
      vertex -2.7 6.4 2.5
      vertex -3.7 6.4 12
      vertex -2.7 6.4 12
    endloop
  endfacet
  facet normal 0 1 0
    outer loop
      vertex -3.7 6.4 12
      vertex -2.7 6.4 2.5
      vertex -3.7 6.4 2.5
    endloop
  endfacet
  facet normal -1 0 0
    outer loop
      vertex -3.7 5.6 2.5
      vertex -3.7 6.4 12
      vertex -3.7 6.4 2.5
    endloop
  endfacet
  facet normal -1 -0 0
    outer loop
      vertex -3.7 6.4 12
      vertex -3.7 5.6 2.5
      vertex -3.7 5.6 12
    endloop
  endfacet
  facet normal 0 -1 0
    outer loop
      vertex -3.7 5.6 2.5
      vertex -2.7 5.6 12
      vertex -3.7 5.6 12
    endloop
  endfacet
  facet normal 0 -1 -0
    outer loop
      vertex -2.7 5.6 12
      vertex -3.7 5.6 2.5
      vertex -2.7 5.6 2.5
    endloop
  endfacet
  facet normal 0 1 -0
    outer loop
      vertex -2.7 4.4 2.5
      vertex -3.7 4.4 12
      vertex -2.7 4.4 12
    endloop
  endfacet
  facet normal 0 1 0
    outer loop
      vertex -3.7 4.4 12
      vertex -2.7 4.4 2.5
      vertex -3.7 4.4 2.5
    endloop
  endfacet
  facet normal -1 0 0
    outer loop
      vertex -3.7 3.6 2.5
      vertex -3.7 4.4 12
      vertex -3.7 4.4 2.5
    endloop
  endfacet
  facet normal -1 -0 0
    outer loop
      vertex -3.7 4.4 12
      vertex -3.7 3.6 2.5
      vertex -3.7 3.6 12
    endloop
  endfacet
  facet normal 0 -1 0
    outer loop
      vertex -3.7 3.6 2.5
      vertex -2.7 3.6 12
      vertex -3.7 3.6 12
    endloop
  endfacet
  facet normal 0 -1 -0
    outer loop
      vertex -2.7 3.6 12
      vertex -3.7 3.6 2.5
      vertex -2.7 3.6 2.5
    endloop
  endfacet
  facet normal 0 1 -0
    outer loop
      vertex -2.7 2.4 2.5
      vertex -3.7 2.4 12
      vertex -2.7 2.4 12
    endloop
  endfacet
  facet normal 0 1 0
    outer loop
      vertex -3.7 2.4 12
      vertex -2.7 2.4 2.5
      vertex -3.7 2.4 2.5
    endloop
  endfacet
  facet normal -1 0 0
    outer loop
      vertex -3.7 1.6 2.5
      vertex -3.7 2.4 12
      vertex -3.7 2.4 2.5
    endloop
  endfacet
  facet normal -1 -0 0
    outer loop
      vertex -3.7 2.4 12
      vertex -3.7 1.6 2.5
      vertex -3.7 1.6 12
    endloop
  endfacet
  facet normal 0 -1 0
    outer loop
      vertex -3.7 1.6 2.5
      vertex -2.7 1.6 12
      vertex -3.7 1.6 12
    endloop
  endfacet
  facet normal 0 -1 -0
    outer loop
      vertex -2.7 1.6 12
      vertex -3.7 1.6 2.5
      vertex -2.7 1.6 2.5
    endloop
  endfacet
  facet normal 0 1 -0
    outer loop
      vertex -2.7 0.4 2.5
      vertex -3.7 0.4 12
      vertex -2.7 0.4 12
    endloop
  endfacet
  facet normal 0 1 0
    outer loop
      vertex -3.7 0.4 12
      vertex -2.7 0.4 2.5
      vertex -3.7 0.4 2.5
    endloop
  endfacet
  facet normal -1 0 0
    outer loop
      vertex -3.7 -0.4 2.5
      vertex -3.7 0.4 12
      vertex -3.7 0.4 2.5
    endloop
  endfacet
  facet normal -1 -0 0
    outer loop
      vertex -3.7 0.4 12
      vertex -3.7 -0.4 2.5
      vertex -3.7 -0.4 12
    endloop
  endfacet
  facet normal 0 -1 0
    outer loop
      vertex -3.7 -0.4 2.5
      vertex -2.7 -0.4 12
      vertex -3.7 -0.4 12
    endloop
  endfacet
  facet normal 0 -1 -0
    outer loop
      vertex -2.7 -0.4 12
      vertex -3.7 -0.4 2.5
      vertex -2.7 -0.4 2.5
    endloop
  endfacet
  facet normal 0 1 -0
    outer loop
      vertex -2.7 -1.6 2.5
      vertex -3.7 -1.6 12
      vertex -2.7 -1.6 12
    endloop
  endfacet
  facet normal 0 1 0
    outer loop
      vertex -3.7 -1.6 12
      vertex -2.7 -1.6 2.5
      vertex -3.7 -1.6 2.5
    endloop
  endfacet
  facet normal -1 0 0
    outer loop
      vertex -3.7 -2.4 2.5
      vertex -3.7 -1.6 12
      vertex -3.7 -1.6 2.5
    endloop
  endfacet
  facet normal -1 -0 0
    outer loop
      vertex -3.7 -1.6 12
      vertex -3.7 -2.4 2.5
      vertex -3.7 -2.4 12
    endloop
  endfacet
  facet normal 0 -1 0
    outer loop
      vertex -3.7 -2.4 2.5
      vertex -2.7 -2.4 12
      vertex -3.7 -2.4 12
    endloop
  endfacet
  facet normal 0 -1 -0
    outer loop
      vertex -2.7 -2.4 12
      vertex -3.7 -2.4 2.5
      vertex -2.7 -2.4 2.5
    endloop
  endfacet
  facet normal 0 1 -0
    outer loop
      vertex -2.7 -3.6 2.5
      vertex -3.7 -3.6 12
      vertex -2.7 -3.6 12
    endloop
  endfacet
  facet normal 0 1 0
    outer loop
      vertex -3.7 -3.6 12
      vertex -2.7 -3.6 2.5
      vertex -3.7 -3.6 2.5
    endloop
  endfacet
  facet normal -1 0 0
    outer loop
      vertex -3.7 -4.4 2.5
      vertex -3.7 -3.6 12
      vertex -3.7 -3.6 2.5
    endloop
  endfacet
  facet normal -1 -0 0
    outer loop
      vertex -3.7 -3.6 12
      vertex -3.7 -4.4 2.5
      vertex -3.7 -4.4 12
    endloop
  endfacet
  facet normal 0 -1 0
    outer loop
      vertex -3.7 -4.4 2.5
      vertex -2.7 -4.4 12
      vertex -3.7 -4.4 12
    endloop
  endfacet
  facet normal 0 -1 -0
    outer loop
      vertex -2.7 -4.4 12
      vertex -3.7 -4.4 2.5
      vertex -2.7 -4.4 2.5
    endloop
  endfacet
  facet normal 0 1 -0
    outer loop
      vertex -2.7 -5.6 2.5
      vertex -3.7 -5.6 12
      vertex -2.7 -5.6 12
    endloop
  endfacet
  facet normal 0 1 0
    outer loop
      vertex -3.7 -5.6 12
      vertex -2.7 -5.6 2.5
      vertex -3.7 -5.6 2.5
    endloop
  endfacet
  facet normal -1 0 0
    outer loop
      vertex -3.7 -6.4 2.5
      vertex -3.7 -5.6 12
      vertex -3.7 -5.6 2.5
    endloop
  endfacet
  facet normal -1 -0 0
    outer loop
      vertex -3.7 -5.6 12
      vertex -3.7 -6.4 2.5
      vertex -3.7 -6.4 12
    endloop
  endfacet
  facet normal 0 -1 0
    outer loop
      vertex -3.7 -6.4 2.5
      vertex -2.7 -6.4 12
      vertex -3.7 -6.4 12
    endloop
  endfacet
  facet normal 0 -1 -0
    outer loop
      vertex -2.7 -6.4 12
      vertex -3.7 -6.4 2.5
      vertex -2.7 -6.4 2.5
    endloop
  endfacet
  facet normal 0 1 -0
    outer loop
      vertex -2.7 -7.6 2.5
      vertex -3.7 -7.6 12
      vertex -2.7 -7.6 12
    endloop
  endfacet
  facet normal 0 1 0
    outer loop
      vertex -3.7 -7.6 12
      vertex -2.7 -7.6 2.5
      vertex -3.7 -7.6 2.5
    endloop
  endfacet
  facet normal -1 0 0
    outer loop
      vertex -3.7 -8.4 2.5
      vertex -3.7 -7.6 12
      vertex -3.7 -7.6 2.5
    endloop
  endfacet
  facet normal -1 -0 0
    outer loop
      vertex -3.7 -7.6 12
      vertex -3.7 -8.4 2.5
      vertex -3.7 -8.4 12
    endloop
  endfacet
  facet normal 0 -1 0
    outer loop
      vertex -3.7 -8.4 2.5
      vertex -2.7 -8.4 12
      vertex -3.7 -8.4 12
    endloop
  endfacet
  facet normal 0 -1 -0
    outer loop
      vertex -2.7 -8.4 12
      vertex -3.7 -8.4 2.5
      vertex -2.7 -8.4 2.5
    endloop
  endfacet
  facet normal 0 1 -0
    outer loop
      vertex -5.3 8.4 2.5
      vertex -6.3 8.4 12
      vertex -5.3 8.4 12
    endloop
  endfacet
  facet normal 0 1 0
    outer loop
      vertex -6.3 8.4 12
      vertex -5.3 8.4 2.5
      vertex -6.3 8.4 2.5
    endloop
  endfacet
  facet normal 0 -1 0
    outer loop
      vertex -6.3 7.6 2.5
      vertex -5.3 7.6 12
      vertex -6.3 7.6 12
    endloop
  endfacet
  facet normal 0 -1 -0
    outer loop
      vertex -5.3 7.6 12
      vertex -6.3 7.6 2.5
      vertex -5.3 7.6 2.5
    endloop
  endfacet
  facet normal 1 -0 0
    outer loop
      vertex -5.3 7.6 12
      vertex -5.3 8.4 2.5
      vertex -5.3 8.4 12
    endloop
  endfacet
  facet normal 1 0 0
    outer loop
      vertex -5.3 8.4 2.5
      vertex -5.3 7.6 12
      vertex -5.3 7.6 2.5
    endloop
  endfacet
  facet normal 0 1 -0
    outer loop
      vertex -5.3 6.4 2.5
      vertex -6.3 6.4 12
      vertex -5.3 6.4 12
    endloop
  endfacet
  facet normal 0 1 0
    outer loop
      vertex -6.3 6.4 12
      vertex -5.3 6.4 2.5
      vertex -6.3 6.4 2.5
    endloop
  endfacet
  facet normal 0 -1 0
    outer loop
      vertex -6.3 5.6 2.5
      vertex -5.3 5.6 12
      vertex -6.3 5.6 12
    endloop
  endfacet
  facet normal 0 -1 -0
    outer loop
      vertex -5.3 5.6 12
      vertex -6.3 5.6 2.5
      vertex -5.3 5.6 2.5
    endloop
  endfacet
  facet normal 1 -0 0
    outer loop
      vertex -5.3 5.6 12
      vertex -5.3 6.4 2.5
      vertex -5.3 6.4 12
    endloop
  endfacet
  facet normal 1 0 0
    outer loop
      vertex -5.3 6.4 2.5
      vertex -5.3 5.6 12
      vertex -5.3 5.6 2.5
    endloop
  endfacet
  facet normal 0 1 -0
    outer loop
      vertex -5.3 4.4 2.5
      vertex -6.3 4.4 12
      vertex -5.3 4.4 12
    endloop
  endfacet
  facet normal 0 1 0
    outer loop
      vertex -6.3 4.4 12
      vertex -5.3 4.4 2.5
      vertex -6.3 4.4 2.5
    endloop
  endfacet
  facet normal 0 -1 0
    outer loop
      vertex -6.3 3.6 2.5
      vertex -5.3 3.6 12
      vertex -6.3 3.6 12
    endloop
  endfacet
  facet normal 0 -1 -0
    outer loop
      vertex -5.3 3.6 12
      vertex -6.3 3.6 2.5
      vertex -5.3 3.6 2.5
    endloop
  endfacet
  facet normal 1 -0 0
    outer loop
      vertex -5.3 3.6 12
      vertex -5.3 4.4 2.5
      vertex -5.3 4.4 12
    endloop
  endfacet
  facet normal 1 0 0
    outer loop
      vertex -5.3 4.4 2.5
      vertex -5.3 3.6 12
      vertex -5.3 3.6 2.5
    endloop
  endfacet
  facet normal 0 1 -0
    outer loop
      vertex -5.3 2.4 2.5
      vertex -6.3 2.4 12
      vertex -5.3 2.4 12
    endloop
  endfacet
  facet normal 0 1 0
    outer loop
      vertex -6.3 2.4 12
      vertex -5.3 2.4 2.5
      vertex -6.3 2.4 2.5
    endloop
  endfacet
  facet normal 0 -1 0
    outer loop
      vertex -6.3 1.6 2.5
      vertex -5.3 1.6 12
      vertex -6.3 1.6 12
    endloop
  endfacet
  facet normal 0 -1 -0
    outer loop
      vertex -5.3 1.6 12
      vertex -6.3 1.6 2.5
      vertex -5.3 1.6 2.5
    endloop
  endfacet
  facet normal 1 -0 0
    outer loop
      vertex -5.3 1.6 12
      vertex -5.3 2.4 2.5
      vertex -5.3 2.4 12
    endloop
  endfacet
  facet normal 1 0 0
    outer loop
      vertex -5.3 2.4 2.5
      vertex -5.3 1.6 12
      vertex -5.3 1.6 2.5
    endloop
  endfacet
  facet normal 0 1 -0
    outer loop
      vertex -5.3 0.4 2.5
      vertex -6.3 0.4 12
      vertex -5.3 0.4 12
    endloop
  endfacet
  facet normal 0 1 0
    outer loop
      vertex -6.3 0.4 12
      vertex -5.3 0.4 2.5
      vertex -6.3 0.4 2.5
    endloop
  endfacet
  facet normal 0 -1 0
    outer loop
      vertex -6.3 -0.4 2.5
      vertex -5.3 -0.4 12
      vertex -6.3 -0.4 12
    endloop
  endfacet
  facet normal 0 -1 -0
    outer loop
      vertex -5.3 -0.4 12
      vertex -6.3 -0.4 2.5
      vertex -5.3 -0.4 2.5
    endloop
  endfacet
  facet normal 1 -0 0
    outer loop
      vertex -5.3 -0.4 12
      vertex -5.3 0.4 2.5
      vertex -5.3 0.4 12
    endloop
  endfacet
  facet normal 1 0 0
    outer loop
      vertex -5.3 0.4 2.5
      vertex -5.3 -0.4 12
      vertex -5.3 -0.4 2.5
    endloop
  endfacet
  facet normal 0 1 -0
    outer loop
      vertex -5.3 -1.6 2.5
      vertex -6.3 -1.6 12
      vertex -5.3 -1.6 12
    endloop
  endfacet
  facet normal 0 1 0
    outer loop
      vertex -6.3 -1.6 12
      vertex -5.3 -1.6 2.5
      vertex -6.3 -1.6 2.5
    endloop
  endfacet
  facet normal 0 -1 0
    outer loop
      vertex -6.3 -2.4 2.5
      vertex -5.3 -2.4 12
      vertex -6.3 -2.4 12
    endloop
  endfacet
  facet normal 0 -1 -0
    outer loop
      vertex -5.3 -2.4 12
      vertex -6.3 -2.4 2.5
      vertex -5.3 -2.4 2.5
    endloop
  endfacet
  facet normal 1 -0 0
    outer loop
      vertex -5.3 -2.4 12
      vertex -5.3 -1.6 2.5
      vertex -5.3 -1.6 12
    endloop
  endfacet
  facet normal 1 0 0
    outer loop
      vertex -5.3 -1.6 2.5
      vertex -5.3 -2.4 12
      vertex -5.3 -2.4 2.5
    endloop
  endfacet
  facet normal 0 1 -0
    outer loop
      vertex -5.3 -3.6 2.5
      vertex -6.3 -3.6 12
      vertex -5.3 -3.6 12
    endloop
  endfacet
  facet normal 0 1 0
    outer loop
      vertex -6.3 -3.6 12
      vertex -5.3 -3.6 2.5
      vertex -6.3 -3.6 2.5
    endloop
  endfacet
  facet normal 0 -1 0
    outer loop
      vertex -6.3 -4.4 2.5
      vertex -5.3 -4.4 12
      vertex -6.3 -4.4 12
    endloop
  endfacet
  facet normal 0 -1 -0
    outer loop
      vertex -5.3 -4.4 12
      vertex -6.3 -4.4 2.5
      vertex -5.3 -4.4 2.5
    endloop
  endfacet
  facet normal 1 -0 0
    outer loop
      vertex -5.3 -4.4 12
      vertex -5.3 -3.6 2.5
      vertex -5.3 -3.6 12
    endloop
  endfacet
  facet normal 1 0 0
    outer loop
      vertex -5.3 -3.6 2.5
      vertex -5.3 -4.4 12
      vertex -5.3 -4.4 2.5
    endloop
  endfacet
  facet normal 0 1 -0
    outer loop
      vertex -5.3 -5.6 2.5
      vertex -6.3 -5.6 12
      vertex -5.3 -5.6 12
    endloop
  endfacet
  facet normal 0 1 0
    outer loop
      vertex -6.3 -5.6 12
      vertex -5.3 -5.6 2.5
      vertex -6.3 -5.6 2.5
    endloop
  endfacet
  facet normal 0 -1 0
    outer loop
      vertex -6.3 -6.4 2.5
      vertex -5.3 -6.4 12
      vertex -6.3 -6.4 12
    endloop
  endfacet
  facet normal 0 -1 -0
    outer loop
      vertex -5.3 -6.4 12
      vertex -6.3 -6.4 2.5
      vertex -5.3 -6.4 2.5
    endloop
  endfacet
  facet normal 1 -0 0
    outer loop
      vertex -5.3 -6.4 12
      vertex -5.3 -5.6 2.5
      vertex -5.3 -5.6 12
    endloop
  endfacet
  facet normal 1 0 0
    outer loop
      vertex -5.3 -5.6 2.5
      vertex -5.3 -6.4 12
      vertex -5.3 -6.4 2.5
    endloop
  endfacet
  facet normal 0 1 -0
    outer loop
      vertex -5.3 -7.6 2.5
      vertex -6.3 -7.6 12
      vertex -5.3 -7.6 12
    endloop
  endfacet
  facet normal 0 1 0
    outer loop
      vertex -6.3 -7.6 12
      vertex -5.3 -7.6 2.5
      vertex -6.3 -7.6 2.5
    endloop
  endfacet
  facet normal 0 -1 0
    outer loop
      vertex -6.3 -8.4 2.5
      vertex -5.3 -8.4 12
      vertex -6.3 -8.4 12
    endloop
  endfacet
  facet normal 0 -1 -0
    outer loop
      vertex -5.3 -8.4 12
      vertex -6.3 -8.4 2.5
      vertex -5.3 -8.4 2.5
    endloop
  endfacet
  facet normal 1 -0 0
    outer loop
      vertex -5.3 -8.4 12
      vertex -5.3 -7.6 2.5
      vertex -5.3 -7.6 12
    endloop
  endfacet
  facet normal 1 0 0
    outer loop
      vertex -5.3 -7.6 2.5
      vertex -5.3 -8.4 12
      vertex -5.3 -8.4 2.5
    endloop
  endfacet
  facet normal 1 -0 0
    outer loop
      vertex -6.3 8.4 12
      vertex -6.3 9 2.5
      vertex -6.3 9 12
    endloop
  endfacet
  facet normal 1 0 0
    outer loop
      vertex -6.3 9 2.5
      vertex -6.3 8.4 12
      vertex -6.3 8.4 2.5
    endloop
  endfacet
  facet normal 1 -0 0
    outer loop
      vertex -6.3 -9 12
      vertex -6.3 -8.4 2.5
      vertex -6.3 -8.4 12
    endloop
  endfacet
  facet normal 1 0 0
    outer loop
      vertex -6.3 -8.4 2.5
      vertex -6.3 -9 12
      vertex -6.3 -9 2.5
    endloop
  endfacet
  facet normal 1 -0 0
    outer loop
      vertex -6.3 6.4 12
      vertex -6.3 7.6 2.5
      vertex -6.3 7.6 12
    endloop
  endfacet
  facet normal 1 0 0
    outer loop
      vertex -6.3 7.6 2.5
      vertex -6.3 6.4 12
      vertex -6.3 6.4 2.5
    endloop
  endfacet
  facet normal 1 -0 0
    outer loop
      vertex -6.3 4.4 12
      vertex -6.3 5.6 2.5
      vertex -6.3 5.6 12
    endloop
  endfacet
  facet normal 1 0 0
    outer loop
      vertex -6.3 5.6 2.5
      vertex -6.3 4.4 12
      vertex -6.3 4.4 2.5
    endloop
  endfacet
  facet normal 1 -0 0
    outer loop
      vertex -6.3 2.4 12
      vertex -6.3 3.6 2.5
      vertex -6.3 3.6 12
    endloop
  endfacet
  facet normal 1 0 0
    outer loop
      vertex -6.3 3.6 2.5
      vertex -6.3 2.4 12
      vertex -6.3 2.4 2.5
    endloop
  endfacet
  facet normal 1 -0 0
    outer loop
      vertex -6.3 0.4 12
      vertex -6.3 1.6 2.5
      vertex -6.3 1.6 12
    endloop
  endfacet
  facet normal 1 0 0
    outer loop
      vertex -6.3 1.6 2.5
      vertex -6.3 0.4 12
      vertex -6.3 0.4 2.5
    endloop
  endfacet
  facet normal 1 -0 0
    outer loop
      vertex -6.3 -1.6 12
      vertex -6.3 -0.4 2.5
      vertex -6.3 -0.4 12
    endloop
  endfacet
  facet normal 1 0 0
    outer loop
      vertex -6.3 -0.4 2.5
      vertex -6.3 -1.6 12
      vertex -6.3 -1.6 2.5
    endloop
  endfacet
  facet normal 1 -0 0
    outer loop
      vertex -6.3 -3.6 12
      vertex -6.3 -2.4 2.5
      vertex -6.3 -2.4 12
    endloop
  endfacet
  facet normal 1 0 0
    outer loop
      vertex -6.3 -2.4 2.5
      vertex -6.3 -3.6 12
      vertex -6.3 -3.6 2.5
    endloop
  endfacet
  facet normal 1 -0 0
    outer loop
      vertex -6.3 -5.6 12
      vertex -6.3 -4.4 2.5
      vertex -6.3 -4.4 12
    endloop
  endfacet
  facet normal 1 0 0
    outer loop
      vertex -6.3 -4.4 2.5
      vertex -6.3 -5.6 12
      vertex -6.3 -5.6 2.5
    endloop
  endfacet
  facet normal 1 -0 0
    outer loop
      vertex -6.3 -7.6 12
      vertex -6.3 -6.4 2.5
      vertex -6.3 -6.4 12
    endloop
  endfacet
  facet normal 1 0 0
    outer loop
      vertex -6.3 -6.4 2.5
      vertex -6.3 -7.6 12
      vertex -6.3 -7.6 2.5
    endloop
  endfacet
  facet normal -1 0 0
    outer loop
      vertex -2.7 8.4 2.5
      vertex -2.7 9 12
      vertex -2.7 9 2.5
    endloop
  endfacet
  facet normal -1 -0 0
    outer loop
      vertex -2.7 9 12
      vertex -2.7 8.4 2.5
      vertex -2.7 8.4 12
    endloop
  endfacet
  facet normal -1 0 0
    outer loop
      vertex -2.7 -9 2.5
      vertex -2.7 -8.4 12
      vertex -2.7 -8.4 2.5
    endloop
  endfacet
  facet normal -1 -0 0
    outer loop
      vertex -2.7 -8.4 12
      vertex -2.7 -9 2.5
      vertex -2.7 -9 12
    endloop
  endfacet
  facet normal -1 0 0
    outer loop
      vertex -2.7 6.4 2.5
      vertex -2.7 7.6 12
      vertex -2.7 7.6 2.5
    endloop
  endfacet
  facet normal -1 -0 0
    outer loop
      vertex -2.7 7.6 12
      vertex -2.7 6.4 2.5
      vertex -2.7 6.4 12
    endloop
  endfacet
  facet normal -1 0 0
    outer loop
      vertex -2.7 4.4 2.5
      vertex -2.7 5.6 12
      vertex -2.7 5.6 2.5
    endloop
  endfacet
  facet normal -1 -0 0
    outer loop
      vertex -2.7 5.6 12
      vertex -2.7 4.4 2.5
      vertex -2.7 4.4 12
    endloop
  endfacet
  facet normal -1 0 0
    outer loop
      vertex -2.7 2.4 2.5
      vertex -2.7 3.6 12
      vertex -2.7 3.6 2.5
    endloop
  endfacet
  facet normal -1 -0 0
    outer loop
      vertex -2.7 3.6 12
      vertex -2.7 2.4 2.5
      vertex -2.7 2.4 12
    endloop
  endfacet
  facet normal -1 0 0
    outer loop
      vertex -2.7 0.4 2.5
      vertex -2.7 1.6 12
      vertex -2.7 1.6 2.5
    endloop
  endfacet
  facet normal -1 -0 0
    outer loop
      vertex -2.7 1.6 12
      vertex -2.7 0.4 2.5
      vertex -2.7 0.4 12
    endloop
  endfacet
  facet normal -1 0 0
    outer loop
      vertex -2.7 -1.6 2.5
      vertex -2.7 -0.4 12
      vertex -2.7 -0.4 2.5
    endloop
  endfacet
  facet normal -1 -0 0
    outer loop
      vertex -2.7 -0.4 12
      vertex -2.7 -1.6 2.5
      vertex -2.7 -1.6 12
    endloop
  endfacet
  facet normal -1 0 0
    outer loop
      vertex -2.7 -3.6 2.5
      vertex -2.7 -2.4 12
      vertex -2.7 -2.4 2.5
    endloop
  endfacet
  facet normal -1 -0 0
    outer loop
      vertex -2.7 -2.4 12
      vertex -2.7 -3.6 2.5
      vertex -2.7 -3.6 12
    endloop
  endfacet
  facet normal -1 0 0
    outer loop
      vertex -2.7 -5.6 2.5
      vertex -2.7 -4.4 12
      vertex -2.7 -4.4 2.5
    endloop
  endfacet
  facet normal -1 -0 0
    outer loop
      vertex -2.7 -4.4 12
      vertex -2.7 -5.6 2.5
      vertex -2.7 -5.6 12
    endloop
  endfacet
  facet normal -1 0 0
    outer loop
      vertex -2.7 -7.6 2.5
      vertex -2.7 -6.4 12
      vertex -2.7 -6.4 2.5
    endloop
  endfacet
  facet normal -1 -0 0
    outer loop
      vertex -2.7 -6.4 12
      vertex -2.7 -7.6 2.5
      vertex -2.7 -7.6 12
    endloop
  endfacet
  facet normal 0 1 0
    outer loop
      vertex 1.33227e-15 9 12
      vertex -2.7 9 2.5
      vertex -2.7 9 12
    endloop
  endfacet
  facet normal 0 1 0
    outer loop
      vertex -2.7 9 2.5
      vertex -9 9 0
      vertex -6.3 9 2.5
    endloop
  endfacet
  facet normal 0 1 0
    outer loop
      vertex -2.7 9 2.5
      vertex -1.33227e-15 9 -1.9984e-15
      vertex -9 9 0
    endloop
  endfacet
  facet normal 0 1 -0
    outer loop
      vertex -1.33227e-15 9 -1.9984e-15
      vertex -2.7 9 2.5
      vertex 1.33227e-15 9 12
    endloop
  endfacet
  facet normal 0 1 -0
    outer loop
      vertex -6.3 9 2.5
      vertex -9 9 12
      vertex -6.3 9 12
    endloop
  endfacet
  facet normal 0 1 0
    outer loop
      vertex -9 9 12
      vertex -6.3 9 2.5
      vertex -9 9 0
    endloop
  endfacet
  facet normal -1 0 0
    outer loop
      vertex -9 -9 3.9968e-15
      vertex -9 9 12
      vertex -9 9 0
    endloop
  endfacet
  facet normal -1 -0 0
    outer loop
      vertex -9 9 12
      vertex -9 -9 3.9968e-15
      vertex -9 -9 12
    endloop
  endfacet
  facet normal 0 -1 0
    outer loop
      vertex -9 -9 12
      vertex -6.3 -9 2.5
      vertex -6.3 -9 12
    endloop
  endfacet
  facet normal 0 -1 -0
    outer loop
      vertex -6.3 -9 2.5
      vertex -9 -9 3.9968e-15
      vertex -2.7 -9 2.5
    endloop
  endfacet
  facet normal 0 -1 0
    outer loop
      vertex -9 -9 3.9968e-15
      vertex -6.3 -9 2.5
      vertex -9 -9 12
    endloop
  endfacet
  facet normal 0 -1 0
    outer loop
      vertex -2.7 -9 2.5
      vertex 1.33227e-15 -9 12
      vertex -2.7 -9 12
    endloop
  endfacet
  facet normal 0 -1 0
    outer loop
      vertex -2.7 -9 2.5
      vertex -1.33227e-15 -9 1.9984e-15
      vertex 1.33227e-15 -9 12
    endloop
  endfacet
  facet normal 0 -1 0
    outer loop
      vertex -1.33227e-15 -9 1.9984e-15
      vertex -2.7 -9 2.5
      vertex -9 -9 3.9968e-15
    endloop
  endfacet
  facet normal 1 0 -2.22045e-16
    outer loop
      vertex 1.33227e-15 -9 12
      vertex -1.33227e-15 9 -1.9984e-15
      vertex 1.33227e-15 9 12
    endloop
  endfacet
  facet normal 1 -4.93038e-32 -2.22045e-16
    outer loop
      vertex -1.33227e-15 9 -1.9984e-15
      vertex 1.33227e-15 -9 12
      vertex -1.33227e-15 -9 1.9984e-15
    endloop
  endfacet
  facet normal -2.22045e-16 -2.22045e-16 -1
    outer loop
      vertex -9 -9 3.9968e-15
      vertex -1.33227e-15 9 -1.9984e-15
      vertex -1.33227e-15 -9 1.9984e-15
    endloop
  endfacet
  facet normal -2.22045e-16 -2.22045e-16 -1
    outer loop
      vertex -1.33227e-15 9 -1.9984e-15
      vertex -9 -9 3.9968e-15
      vertex -9 9 0
    endloop
  endfacet
  facet normal -0 0 1
    outer loop
      vertex -9 9 12
      vertex -6.3 8.4 12
      vertex -6.3 9 12
    endloop
  endfacet
  facet normal 0 0 1
    outer loop
      vertex -6.3 8.4 12
      vertex -9 9 12
      vertex -6.3 7.6 12
    endloop
  endfacet
  facet normal 0 0 1
    outer loop
      vertex -6.3 7.6 12
      vertex -9 9 12
      vertex -6.3 6.4 12
    endloop
  endfacet
  facet normal 0 0 1
    outer loop
      vertex -6.3 6.4 12
      vertex -9 9 12
      vertex -6.3 5.6 12
    endloop
  endfacet
  facet normal 0 0 1
    outer loop
      vertex -6.3 5.6 12
      vertex -9 9 12
      vertex -6.3 4.4 12
    endloop
  endfacet
  facet normal 0 0 1
    outer loop
      vertex -6.3 4.4 12
      vertex -9 9 12
      vertex -6.3 3.6 12
    endloop
  endfacet
  facet normal 0 0 1
    outer loop
      vertex -6.3 3.6 12
      vertex -9 9 12
      vertex -6.3 2.4 12
    endloop
  endfacet
  facet normal 0 0 1
    outer loop
      vertex -6.3 2.4 12
      vertex -9 9 12
      vertex -6.3 1.6 12
    endloop
  endfacet
  facet normal 0 0 1
    outer loop
      vertex -6.3 1.6 12
      vertex -9 9 12
      vertex -6.3 0.4 12
    endloop
  endfacet
  facet normal 0 0 1
    outer loop
      vertex -6.3 0.4 12
      vertex -9 9 12
      vertex -6.3 -0.4 12
    endloop
  endfacet
  facet normal 0 0 1
    outer loop
      vertex -9 -9 12
      vertex -6.3 -0.4 12
      vertex -9 9 12
    endloop
  endfacet
  facet normal 0 0 1
    outer loop
      vertex -6.3 -0.4 12
      vertex -9 -9 12
      vertex -6.3 -1.6 12
    endloop
  endfacet
  facet normal 0 0 1
    outer loop
      vertex -6.3 -1.6 12
      vertex -9 -9 12
      vertex -6.3 -2.4 12
    endloop
  endfacet
  facet normal 0 0 1
    outer loop
      vertex -6.3 -2.4 12
      vertex -9 -9 12
      vertex -6.3 -3.6 12
    endloop
  endfacet
  facet normal 0 0 1
    outer loop
      vertex -6.3 -3.6 12
      vertex -9 -9 12
      vertex -6.3 -4.4 12
    endloop
  endfacet
  facet normal 0 0 1
    outer loop
      vertex -6.3 -4.4 12
      vertex -9 -9 12
      vertex -6.3 -5.6 12
    endloop
  endfacet
  facet normal 0 0 1
    outer loop
      vertex -6.3 -5.6 12
      vertex -9 -9 12
      vertex -6.3 -6.4 12
    endloop
  endfacet
  facet normal 0 0 1
    outer loop
      vertex -6.3 -6.4 12
      vertex -9 -9 12
      vertex -6.3 -7.6 12
    endloop
  endfacet
  facet normal 0 0 1
    outer loop
      vertex -6.3 -7.6 12
      vertex -9 -9 12
      vertex -6.3 -8.4 12
    endloop
  endfacet
  facet normal 0 0 1
    outer loop
      vertex -6.3 -8.4 12
      vertex -9 -9 12
      vertex -6.3 -9 12
    endloop
  endfacet
  facet normal -0 0 1
    outer loop
      vertex -6.3 8.4 12
      vertex -5.3 7.6 12
      vertex -5.3 8.4 12
    endloop
  endfacet
  facet normal 0 0 1
    outer loop
      vertex -5.3 7.6 12
      vertex -6.3 8.4 12
      vertex -6.3 7.6 12
    endloop
  endfacet
  facet normal -0 0 1
    outer loop
      vertex -6.3 6.4 12
      vertex -5.3 5.6 12
      vertex -5.3 6.4 12
    endloop
  endfacet
  facet normal 0 0 1
    outer loop
      vertex -5.3 5.6 12
      vertex -6.3 6.4 12
      vertex -6.3 5.6 12
    endloop
  endfacet
  facet normal -0 0 1
    outer loop
      vertex -6.3 4.4 12
      vertex -5.3 3.6 12
      vertex -5.3 4.4 12
    endloop
  endfacet
  facet normal 0 0 1
    outer loop
      vertex -5.3 3.6 12
      vertex -6.3 4.4 12
      vertex -6.3 3.6 12
    endloop
  endfacet
  facet normal -0 0 1
    outer loop
      vertex -6.3 2.4 12
      vertex -5.3 1.6 12
      vertex -5.3 2.4 12
    endloop
  endfacet
  facet normal 0 0 1
    outer loop
      vertex -5.3 1.6 12
      vertex -6.3 2.4 12
      vertex -6.3 1.6 12
    endloop
  endfacet
  facet normal -0 0 1
    outer loop
      vertex -6.3 0.4 12
      vertex -5.3 -0.4 12
      vertex -5.3 0.4 12
    endloop
  endfacet
  facet normal 0 0 1
    outer loop
      vertex -5.3 -0.4 12
      vertex -6.3 0.4 12
      vertex -6.3 -0.4 12
    endloop
  endfacet
  facet normal -0 0 1
    outer loop
      vertex -6.3 -1.6 12
      vertex -5.3 -2.4 12
      vertex -5.3 -1.6 12
    endloop
  endfacet
  facet normal 0 0 1
    outer loop
      vertex -5.3 -2.4 12
      vertex -6.3 -1.6 12
      vertex -6.3 -2.4 12
    endloop
  endfacet
  facet normal -0 0 1
    outer loop
      vertex -6.3 -3.6 12
      vertex -5.3 -4.4 12
      vertex -5.3 -3.6 12
    endloop
  endfacet
  facet normal 0 0 1
    outer loop
      vertex -5.3 -4.4 12
      vertex -6.3 -3.6 12
      vertex -6.3 -4.4 12
    endloop
  endfacet
  facet normal -0 0 1
    outer loop
      vertex -6.3 -5.6 12
      vertex -5.3 -6.4 12
      vertex -5.3 -5.6 12
    endloop
  endfacet
  facet normal 0 0 1
    outer loop
      vertex -5.3 -6.4 12
      vertex -6.3 -5.6 12
      vertex -6.3 -6.4 12
    endloop
  endfacet
  facet normal -0 0 1
    outer loop
      vertex -6.3 -7.6 12
      vertex -5.3 -8.4 12
      vertex -5.3 -7.6 12
    endloop
  endfacet
  facet normal 0 0 1
    outer loop
      vertex -5.3 -8.4 12
      vertex -6.3 -7.6 12
      vertex -6.3 -8.4 12
    endloop
  endfacet
  facet normal -0 0 1
    outer loop
      vertex -3.7 -7.6 12
      vertex -2.7 -8.4 12
      vertex -2.7 -7.6 12
    endloop
  endfacet
  facet normal 0 0 1
    outer loop
      vertex -2.7 -8.4 12
      vertex -3.7 -7.6 12
      vertex -3.7 -8.4 12
    endloop
  endfacet
  facet normal -0 0 1
    outer loop
      vertex -3.7 -5.6 12
      vertex -2.7 -6.4 12
      vertex -2.7 -5.6 12
    endloop
  endfacet
  facet normal 0 0 1
    outer loop
      vertex -2.7 -6.4 12
      vertex -3.7 -5.6 12
      vertex -3.7 -6.4 12
    endloop
  endfacet
  facet normal -0 0 1
    outer loop
      vertex -3.7 -3.6 12
      vertex -2.7 -4.4 12
      vertex -2.7 -3.6 12
    endloop
  endfacet
  facet normal 0 0 1
    outer loop
      vertex -2.7 -4.4 12
      vertex -3.7 -3.6 12
      vertex -3.7 -4.4 12
    endloop
  endfacet
  facet normal -0 0 1
    outer loop
      vertex -3.7 -1.6 12
      vertex -2.7 -2.4 12
      vertex -2.7 -1.6 12
    endloop
  endfacet
  facet normal 0 0 1
    outer loop
      vertex -2.7 -2.4 12
      vertex -3.7 -1.6 12
      vertex -3.7 -2.4 12
    endloop
  endfacet
  facet normal -0 0 1
    outer loop
      vertex -3.7 0.4 12
      vertex -2.7 -0.4 12
      vertex -2.7 0.4 12
    endloop
  endfacet
  facet normal 0 0 1
    outer loop
      vertex -2.7 -0.4 12
      vertex -3.7 0.4 12
      vertex -3.7 -0.4 12
    endloop
  endfacet
  facet normal -0 0 1
    outer loop
      vertex -3.7 2.4 12
      vertex -2.7 1.6 12
      vertex -2.7 2.4 12
    endloop
  endfacet
  facet normal 0 0 1
    outer loop
      vertex -2.7 1.6 12
      vertex -3.7 2.4 12
      vertex -3.7 1.6 12
    endloop
  endfacet
  facet normal -0 0 1
    outer loop
      vertex -3.7 4.4 12
      vertex -2.7 3.6 12
      vertex -2.7 4.4 12
    endloop
  endfacet
  facet normal 0 0 1
    outer loop
      vertex -2.7 3.6 12
      vertex -3.7 4.4 12
      vertex -3.7 3.6 12
    endloop
  endfacet
  facet normal -0 0 1
    outer loop
      vertex -3.7 6.4 12
      vertex -2.7 5.6 12
      vertex -2.7 6.4 12
    endloop
  endfacet
  facet normal 0 0 1
    outer loop
      vertex -2.7 5.6 12
      vertex -3.7 6.4 12
      vertex -3.7 5.6 12
    endloop
  endfacet
  facet normal -0 0 1
    outer loop
      vertex -3.7 8.4 12
      vertex -2.7 7.6 12
      vertex -2.7 8.4 12
    endloop
  endfacet
  facet normal 0 0 1
    outer loop
      vertex -2.7 7.6 12
      vertex -3.7 8.4 12
      vertex -3.7 7.6 12
    endloop
  endfacet
  facet normal 0 0 1
    outer loop
      vertex -2.7 8.4 12
      vertex 1.33227e-15 9 12
      vertex -2.7 9 12
    endloop
  endfacet
  facet normal 0 0 1
    outer loop
      vertex -2.7 7.6 12
      vertex 1.33227e-15 9 12
      vertex -2.7 8.4 12
    endloop
  endfacet
  facet normal 0 0 1
    outer loop
      vertex -2.7 6.4 12
      vertex 1.33227e-15 9 12
      vertex -2.7 7.6 12
    endloop
  endfacet
  facet normal 0 0 1
    outer loop
      vertex -2.7 5.6 12
      vertex 1.33227e-15 9 12
      vertex -2.7 6.4 12
    endloop
  endfacet
  facet normal 0 0 1
    outer loop
      vertex -2.7 4.4 12
      vertex 1.33227e-15 9 12
      vertex -2.7 5.6 12
    endloop
  endfacet
  facet normal 0 0 1
    outer loop
      vertex -2.7 3.6 12
      vertex 1.33227e-15 9 12
      vertex -2.7 4.4 12
    endloop
  endfacet
  facet normal 0 0 1
    outer loop
      vertex -2.7 2.4 12
      vertex 1.33227e-15 9 12
      vertex -2.7 3.6 12
    endloop
  endfacet
  facet normal 0 0 1
    outer loop
      vertex -2.7 1.6 12
      vertex 1.33227e-15 9 12
      vertex -2.7 2.4 12
    endloop
  endfacet
  facet normal 0 0 1
    outer loop
      vertex -2.7 0.4 12
      vertex 1.33227e-15 9 12
      vertex -2.7 1.6 12
    endloop
  endfacet
  facet normal 0 0 1
    outer loop
      vertex 1.33227e-15 9 12
      vertex -2.7 0.4 12
      vertex 1.33227e-15 -9 12
    endloop
  endfacet
  facet normal -0 0 1
    outer loop
      vertex -2.7 -0.4 12
      vertex 1.33227e-15 -9 12
      vertex -2.7 0.4 12
    endloop
  endfacet
  facet normal -0 0 1
    outer loop
      vertex -2.7 -1.6 12
      vertex 1.33227e-15 -9 12
      vertex -2.7 -0.4 12
    endloop
  endfacet
  facet normal -0 0 1
    outer loop
      vertex -2.7 -2.4 12
      vertex 1.33227e-15 -9 12
      vertex -2.7 -1.6 12
    endloop
  endfacet
  facet normal -0 0 1
    outer loop
      vertex -2.7 -3.6 12
      vertex 1.33227e-15 -9 12
      vertex -2.7 -2.4 12
    endloop
  endfacet
  facet normal -0 0 1
    outer loop
      vertex -2.7 -4.4 12
      vertex 1.33227e-15 -9 12
      vertex -2.7 -3.6 12
    endloop
  endfacet
  facet normal -0 0 1
    outer loop
      vertex -2.7 -5.6 12
      vertex 1.33227e-15 -9 12
      vertex -2.7 -4.4 12
    endloop
  endfacet
  facet normal -0 0 1
    outer loop
      vertex -2.7 -6.4 12
      vertex 1.33227e-15 -9 12
      vertex -2.7 -5.6 12
    endloop
  endfacet
  facet normal -0 0 1
    outer loop
      vertex -2.7 -7.6 12
      vertex 1.33227e-15 -9 12
      vertex -2.7 -6.4 12
    endloop
  endfacet
  facet normal -0 0 1
    outer loop
      vertex -2.7 -8.4 12
      vertex 1.33227e-15 -9 12
      vertex -2.7 -7.6 12
    endloop
  endfacet
  facet normal 0 0 1
    outer loop
      vertex 1.33227e-15 -9 12
      vertex -2.7 -8.4 12
      vertex -2.7 -9 12
    endloop
  endfacet
endsolid OpenSCAD_Model
