solid OpenSCAD_Model
  facet normal 0.995185 0 -0.0980189
    outer loop
      vertex 2.5 -11 50
      vertex 2.45196 -5 49.5123
      vertex 2.5 -5 50
    endloop
  endfacet
  facet normal 0.995185 0 -0.0980189
    outer loop
      vertex 2.45196 -5 49.5123
      vertex 2.5 -11 50
      vertex 2.45196 -11 49.5123
    endloop
  endfacet
  facet normal 0.0980207 0 0.995184
    outer loop
      vertex 0 -5 52.5
      vertex 0.487725 -11 52.452
      vertex 0.487725 -5 52.452
    endloop
  endfacet
  facet normal 0.0980207 0 0.995184
    outer loop
      vertex 0.487725 -11 52.452
      vertex 0 -5 52.5
      vertex 0 -11 52.5
    endloop
  endfacet
  facet normal 0.979229 0 -0.202759
    outer loop
      vertex 2.45196 -11 49.5123
      vertex 1 -5 42.5
      vertex 2.45196 -5 49.5123
    endloop
  endfacet
  facet normal 0.979229 0 -0.202759
    outer loop
      vertex 1 -5 42.5
      vertex 2.45196 -11 49.5123
      vertex 1 -11 42.5
    endloop
  endfacet
  facet normal -0.979775 0 -0.200103
    outer loop
      vertex -1.01982 -11 42.5
      vertex -2.45196 -5 49.5123
      vertex -1.01982 -5 42.5
    endloop
  endfacet
  facet normal -0.979775 -0 -0.200103
    outer loop
      vertex -2.45196 -5 49.5123
      vertex -1.01982 -11 42.5
      vertex -2.45196 -11 49.5123
    endloop
  endfacet
  facet normal 0.95694 -0 0.290285
    outer loop
      vertex 2.3097 -11 50.9567
      vertex 2.45196 -5 50.4877
      vertex 2.3097 -5 50.9567
    endloop
  endfacet
  facet normal 0.95694 0 0.290285
    outer loop
      vertex 2.45196 -5 50.4877
      vertex 2.3097 -11 50.9567
      vertex 2.45196 -11 50.4877
    endloop
  endfacet
  facet normal 0 -1 0
    outer loop
      vertex -0.487725 -11 52.452
      vertex 0.487725 -11 52.452
      vertex 0 -11 52.5
    endloop
  endfacet
  facet normal 0 -1 0
    outer loop
      vertex -0.956708 -11 52.3097
      vertex 0.487725 -11 52.452
      vertex -0.487725 -11 52.452
    endloop
  endfacet
  facet normal 0 -1 0
    outer loop
      vertex -0.956708 -11 52.3097
      vertex 0.956708 -11 52.3097
      vertex 0.487725 -11 52.452
    endloop
  endfacet
  facet normal 0 -1 0
    outer loop
      vertex -1.38893 -11 52.0787
      vertex 0.956708 -11 52.3097
      vertex -0.956708 -11 52.3097
    endloop
  endfacet
  facet normal 0 -1 0
    outer loop
      vertex -1.38893 -11 52.0787
      vertex 1.38893 -11 52.0787
      vertex 0.956708 -11 52.3097
    endloop
  endfacet
  facet normal 0 -1 0
    outer loop
      vertex -1.76777 -11 51.7678
      vertex 1.38893 -11 52.0787
      vertex -1.38893 -11 52.0787
    endloop
  endfacet
  facet normal 0 -1 0
    outer loop
      vertex -1.76777 -11 51.7678
      vertex 1.76777 -11 51.7678
      vertex 1.38893 -11 52.0787
    endloop
  endfacet
  facet normal 0 -1 0
    outer loop
      vertex -2.07867 -11 51.3889
      vertex 1.76777 -11 51.7678
      vertex -1.76777 -11 51.7678
    endloop
  endfacet
  facet normal 0 -1 0
    outer loop
      vertex -2.07867 -11 51.3889
      vertex 2.07867 -11 51.3889
      vertex 1.76777 -11 51.7678
    endloop
  endfacet
  facet normal 0 -1 0
    outer loop
      vertex -2.3097 -11 50.9567
      vertex 2.07867 -11 51.3889
      vertex -2.07867 -11 51.3889
    endloop
  endfacet
  facet normal 0 -1 0
    outer loop
      vertex -2.3097 -11 50.9567
      vertex 2.3097 -11 50.9567
      vertex 2.07867 -11 51.3889
    endloop
  endfacet
  facet normal 0 -1 0
    outer loop
      vertex -2.45196 -11 50.4877
      vertex 2.3097 -11 50.9567
      vertex -2.3097 -11 50.9567
    endloop
  endfacet
  facet normal 0 -1 0
    outer loop
      vertex -2.45196 -11 50.4877
      vertex 2.45196 -11 50.4877
      vertex 2.3097 -11 50.9567
    endloop
  endfacet
  facet normal 0 -1 0
    outer loop
      vertex -2.5 -11 50
      vertex 2.45196 -11 50.4877
      vertex -2.45196 -11 50.4877
    endloop
  endfacet
  facet normal 0 -1 0
    outer loop
      vertex -2.5 -11 50
      vertex 2.5 -11 50
      vertex 2.45196 -11 50.4877
    endloop
  endfacet
  facet normal 0 -1 0
    outer loop
      vertex -2.45196 -11 49.5123
      vertex 2.5 -11 50
      vertex -2.5 -11 50
    endloop
  endfacet
  facet normal 0 -1 0
    outer loop
      vertex -2.45196 -11 49.5123
      vertex 2.45196 -11 49.5123
      vertex 2.5 -11 50
    endloop
  endfacet
  facet normal 0 -1 0
    outer loop
      vertex -1.01982 -11 42.5
      vertex 2.45196 -11 49.5123
      vertex -2.45196 -11 49.5123
    endloop
  endfacet
  facet normal 0 -1 0
    outer loop
      vertex 2.45196 -11 49.5123
      vertex -1.01982 -11 42.5
      vertex 1 -11 42.5
    endloop
  endfacet
  facet normal -0.995185 0 -0.0980189
    outer loop
      vertex -2.45196 -11 49.5123
      vertex -2.5 -5 50
      vertex -2.45196 -5 49.5123
    endloop
  endfacet
  facet normal -0.995185 -0 -0.0980189
    outer loop
      vertex -2.5 -5 50
      vertex -2.45196 -11 49.5123
      vertex -2.5 -11 50
    endloop
  endfacet
  facet normal 0.995185 -0 0.0980189
    outer loop
      vertex 2.45196 -11 50.4877
      vertex 2.5 -5 50
      vertex 2.45196 -5 50.4877
    endloop
  endfacet
  facet normal 0.995185 0 0.0980189
    outer loop
      vertex 2.5 -5 50
      vertex 2.45196 -11 50.4877
      vertex 2.5 -11 50
    endloop
  endfacet
  facet normal 0.290286 0 0.95694
    outer loop
      vertex 0.487725 -5 52.452
      vertex 0.956708 -11 52.3097
      vertex 0.956708 -5 52.3097
    endloop
  endfacet
  facet normal 0.290286 0 0.95694
    outer loop
      vertex 0.956708 -11 52.3097
      vertex 0.487725 -5 52.452
      vertex 0.487725 -11 52.452
    endloop
  endfacet
  facet normal -0.995185 0 0.0980189
    outer loop
      vertex -2.5 -11 50
      vertex -2.45196 -5 50.4877
      vertex -2.5 -5 50
    endloop
  endfacet
  facet normal -0.995185 0 0.0980189
    outer loop
      vertex -2.45196 -5 50.4877
      vertex -2.5 -11 50
      vertex -2.45196 -11 50.4877
    endloop
  endfacet
  facet normal 0.881921 -0 0.471397
    outer loop
      vertex 2.07867 -11 51.3889
      vertex 2.3097 -5 50.9567
      vertex 2.07867 -5 51.3889
    endloop
  endfacet
  facet normal 0.881921 0 0.471397
    outer loop
      vertex 2.3097 -5 50.9567
      vertex 2.07867 -11 51.3889
      vertex 2.3097 -11 50.9567
    endloop
  endfacet
  facet normal -0.773011 0 0.634392
    outer loop
      vertex -2.07867 -11 51.3889
      vertex -1.76777 -5 51.7678
      vertex -2.07867 -5 51.3889
    endloop
  endfacet
  facet normal -0.773011 0 0.634392
    outer loop
      vertex -1.76777 -5 51.7678
      vertex -2.07867 -11 51.3889
      vertex -1.76777 -11 51.7678
    endloop
  endfacet
  facet normal 0.634396 0 0.773008
    outer loop
      vertex 1.38893 -5 52.0787
      vertex 1.76777 -11 51.7678
      vertex 1.76777 -5 51.7678
    endloop
  endfacet
  facet normal 0.634396 0 0.773008
    outer loop
      vertex 1.76777 -11 51.7678
      vertex 1.38893 -5 52.0787
      vertex 1.38893 -11 52.0787
    endloop
  endfacet
  facet normal 0.471392 0 0.881924
    outer loop
      vertex 0.956708 -5 52.3097
      vertex 1.38893 -11 52.0787
      vertex 1.38893 -5 52.0787
    endloop
  endfacet
  facet normal 0.471392 0 0.881924
    outer loop
      vertex 1.38893 -11 52.0787
      vertex 0.956708 -5 52.3097
      vertex 0.956708 -11 52.3097
    endloop
  endfacet
  facet normal -0.0980207 0 0.995184
    outer loop
      vertex -0.487725 -5 52.452
      vertex 0 -11 52.5
      vertex 0 -5 52.5
    endloop
  endfacet
  facet normal -0.0980207 0 0.995184
    outer loop
      vertex 0 -11 52.5
      vertex -0.487725 -5 52.452
      vertex -0.487725 -11 52.452
    endloop
  endfacet
  facet normal -0.471392 0 0.881924
    outer loop
      vertex -1.38893 -5 52.0787
      vertex -0.956708 -11 52.3097
      vertex -0.956708 -5 52.3097
    endloop
  endfacet
  facet normal -0.471392 0 0.881924
    outer loop
      vertex -0.956708 -11 52.3097
      vertex -1.38893 -5 52.0787
      vertex -1.38893 -11 52.0787
    endloop
  endfacet
  facet normal -0.290286 0 0.95694
    outer loop
      vertex -0.956708 -5 52.3097
      vertex -0.487725 -11 52.452
      vertex -0.487725 -5 52.452
    endloop
  endfacet
  facet normal -0.290286 0 0.95694
    outer loop
      vertex -0.487725 -11 52.452
      vertex -0.956708 -5 52.3097
      vertex -0.956708 -11 52.3097
    endloop
  endfacet
  facet normal -0.634396 0 0.773008
    outer loop
      vertex -1.76777 -5 51.7678
      vertex -1.38893 -11 52.0787
      vertex -1.38893 -5 52.0787
    endloop
  endfacet
  facet normal -0.634396 0 0.773008
    outer loop
      vertex -1.38893 -11 52.0787
      vertex -1.76777 -5 51.7678
      vertex -1.76777 -11 51.7678
    endloop
  endfacet
  facet normal -0.881921 0 0.471397
    outer loop
      vertex -2.3097 -11 50.9567
      vertex -2.07867 -5 51.3889
      vertex -2.3097 -5 50.9567
    endloop
  endfacet
  facet normal -0.881921 0 0.471397
    outer loop
      vertex -2.07867 -5 51.3889
      vertex -2.3097 -11 50.9567
      vertex -2.07867 -11 51.3889
    endloop
  endfacet
  facet normal -0.95694 0 0.290285
    outer loop
      vertex -2.45196 -11 50.4877
      vertex -2.3097 -5 50.9567
      vertex -2.45196 -5 50.4877
    endloop
  endfacet
  facet normal -0.95694 0 0.290285
    outer loop
      vertex -2.3097 -5 50.9567
      vertex -2.45196 -11 50.4877
      vertex -2.3097 -11 50.9567
    endloop
  endfacet
  facet normal 0.773011 -0 0.634392
    outer loop
      vertex 1.76777 -11 51.7678
      vertex 2.07867 -5 51.3889
      vertex 1.76777 -5 51.7678
    endloop
  endfacet
  facet normal 0.773011 0 0.634392
    outer loop
      vertex 2.07867 -5 51.3889
      vertex 1.76777 -11 51.7678
      vertex 2.07867 -11 51.3889
    endloop
  endfacet
  facet normal 0 0 -1
    outer loop
      vertex -1.01982 -5 42.5
      vertex 1 -5 42.5
      vertex 1 -11 42.5
    endloop
  endfacet
  facet normal 0 -0 -1
    outer loop
      vertex 0 -2.5 42.5
      vertex 1 -5 42.5
      vertex -1.01982 -5 42.5
    endloop
  endfacet
  facet normal 0 0 -1
    outer loop
      vertex 1 -5 42.5
      vertex 0.487725 -2.45196 42.5
      vertex 0.956708 -2.3097 42.5
    endloop
  endfacet
  facet normal 0 0 -1
    outer loop
      vertex 1 -5 42.5
      vertex 0.121931 -2.48799 42.5
      vertex 0.487725 -2.45196 42.5
    endloop
  endfacet
  facet normal 0 0 -1
    outer loop
      vertex 1 -5 42.5
      vertex 0 -2.5 42.5
      vertex 0.121931 -2.48799 42.5
    endloop
  endfacet
  facet normal -0 0 -1
    outer loop
      vertex 0 -2.5 42.5
      vertex -1.01982 -5 42.5
      vertex -0.121931 -2.48799 42.5
    endloop
  endfacet
  facet normal -0 0 -1
    outer loop
      vertex -0.121931 -2.48799 42.5
      vertex -1.01982 -5 42.5
      vertex -0.487725 -2.45196 42.5
    endloop
  endfacet
  facet normal 0 0 -1
    outer loop
      vertex -1.01982 -5 42.5
      vertex 1 -11 42.5
      vertex -1.01982 -11 42.5
    endloop
  endfacet
  facet normal -0 0 -1
    outer loop
      vertex -0.487725 -2.45196 42.5
      vertex -1.01982 -5 42.5
      vertex -0.956708 -2.3097 42.5
    endloop
  endfacet
  facet normal 0 0 -1
    outer loop
      vertex -1.01982 -5 42.5
      vertex -1.38893 -2.07867 42.5
      vertex -0.956708 -2.3097 42.5
    endloop
  endfacet
  facet normal 0 0 -1
    outer loop
      vertex -1.01982 -5 42.5
      vertex -1.76777 -1.76777 42.5
      vertex -1.38893 -2.07867 42.5
    endloop
  endfacet
  facet normal 0 0 -1
    outer loop
      vertex -7.5 -5 42.5
      vertex -1.76777 -1.76777 42.5
      vertex -1.01982 -5 42.5
    endloop
  endfacet
  facet normal -0 0 -1
    outer loop
      vertex -1.76777 -1.76777 42.5
      vertex -7.5 -5 42.5
      vertex -2.07867 -1.38893 42.5
    endloop
  endfacet
  facet normal -0 0 -1
    outer loop
      vertex -2.45196 -0.487725 42.5
      vertex -7.5 -5 42.5
      vertex -2.5 -9.4369e-15 42.5
    endloop
  endfacet
  facet normal -0 0 -1
    outer loop
      vertex -2.3097 -0.956708 42.5
      vertex -7.5 -5 42.5
      vertex -2.45196 -0.487725 42.5
    endloop
  endfacet
  facet normal -0 0 -1
    outer loop
      vertex -2.07867 -1.38893 42.5
      vertex -7.5 -5 42.5
      vertex -2.3097 -0.956708 42.5
    endloop
  endfacet
  facet normal 0 0 -1
    outer loop
      vertex 7.5 -5 42.5
      vertex 2.5 -9.4369e-15 42.5
      vertex 7.5 5 42.5
    endloop
  endfacet
  facet normal 0 0 -1
    outer loop
      vertex 7.5 -5 42.5
      vertex 2.45196 -0.487725 42.5
      vertex 2.5 -9.4369e-15 42.5
    endloop
  endfacet
  facet normal 0 0 -1
    outer loop
      vertex 7.5 -5 42.5
      vertex 2.3097 -0.956708 42.5
      vertex 2.45196 -0.487725 42.5
    endloop
  endfacet
  facet normal 0 0 -1
    outer loop
      vertex 7.5 -5 42.5
      vertex 2.07867 -1.38893 42.5
      vertex 2.3097 -0.956708 42.5
    endloop
  endfacet
  facet normal 0 0 -1
    outer loop
      vertex 7.5 -5 42.5
      vertex 1.76777 -1.76777 42.5
      vertex 2.07867 -1.38893 42.5
    endloop
  endfacet
  facet normal 0 0 -1
    outer loop
      vertex 1 -5 42.5
      vertex 1.76777 -1.76777 42.5
      vertex 7.5 -5 42.5
    endloop
  endfacet
  facet normal 0 0 -1
    outer loop
      vertex 1.76777 -1.76777 42.5
      vertex 1 -5 42.5
      vertex 1.38893 -2.07867 42.5
    endloop
  endfacet
  facet normal 0 0 -1
    outer loop
      vertex 1.38893 -2.07867 42.5
      vertex 1 -5 42.5
      vertex 0.956708 -2.3097 42.5
    endloop
  endfacet
  facet normal 0 0 -1
    outer loop
      vertex 2.45196 0.487725 42.5
      vertex 7.5 5 42.5
      vertex 2.5 -9.4369e-15 42.5
    endloop
  endfacet
  facet normal 0 0 -1
    outer loop
      vertex 2.3097 0.956708 42.5
      vertex 7.5 5 42.5
      vertex 2.45196 0.487725 42.5
    endloop
  endfacet
  facet normal 0 0 -1
    outer loop
      vertex 2.07867 1.38893 42.5
      vertex 7.5 5 42.5
      vertex 2.3097 0.956708 42.5
    endloop
  endfacet
  facet normal 0 0 -1
    outer loop
      vertex 1.76777 1.76777 42.5
      vertex 7.5 5 42.5
      vertex 2.07867 1.38893 42.5
    endloop
  endfacet
  facet normal 0 0 -1
    outer loop
      vertex 1.38893 2.07867 42.5
      vertex 7.5 5 42.5
      vertex 1.76777 1.76777 42.5
    endloop
  endfacet
  facet normal 0 0 -1
    outer loop
      vertex 0.956708 2.3097 42.5
      vertex 7.5 5 42.5
      vertex 1.38893 2.07867 42.5
    endloop
  endfacet
  facet normal 0 0 -1
    outer loop
      vertex 0.487725 2.45196 42.5
      vertex 7.5 5 42.5
      vertex 0.956708 2.3097 42.5
    endloop
  endfacet
  facet normal 0 0 -1
    outer loop
      vertex 0 2.5 42.5
      vertex 7.5 5 42.5
      vertex 0.487725 2.45196 42.5
    endloop
  endfacet
  facet normal 0 0 -1
    outer loop
      vertex -7.5 5 42.5
      vertex 0 2.5 42.5
      vertex -0.487725 2.45196 42.5
    endloop
  endfacet
  facet normal 0 0 -1
    outer loop
      vertex -7.5 5 42.5
      vertex -0.487725 2.45196 42.5
      vertex -0.956708 2.3097 42.5
    endloop
  endfacet
  facet normal 0 0 -1
    outer loop
      vertex -7.5 5 42.5
      vertex -2.5 -9.4369e-15 42.5
      vertex -7.5 -5 42.5
    endloop
  endfacet
  facet normal 0 0 -1
    outer loop
      vertex -2.5 -9.4369e-15 42.5
      vertex -7.5 5 42.5
      vertex -2.45196 0.487725 42.5
    endloop
  endfacet
  facet normal 0 0 -1
    outer loop
      vertex -2.45196 0.487725 42.5
      vertex -7.5 5 42.5
      vertex -2.3097 0.956708 42.5
    endloop
  endfacet
  facet normal 0 0 -1
    outer loop
      vertex -2.3097 0.956708 42.5
      vertex -7.5 5 42.5
      vertex -2.07867 1.38893 42.5
    endloop
  endfacet
  facet normal 0 0 -1
    outer loop
      vertex 0 2.5 42.5
      vertex -7.5 5 42.5
      vertex 7.5 5 42.5
    endloop
  endfacet
  facet normal 0 0 -1
    outer loop
      vertex -1.38893 2.07867 42.5
      vertex -7.5 5 42.5
      vertex -0.956708 2.3097 42.5
    endloop
  endfacet
  facet normal 0 0 -1
    outer loop
      vertex -1.76777 1.76777 42.5
      vertex -7.5 5 42.5
      vertex -1.38893 2.07867 42.5
    endloop
  endfacet
  facet normal 0 0 -1
    outer loop
      vertex -2.07867 1.38893 42.5
      vertex -7.5 5 42.5
      vertex -1.76777 1.76777 42.5
    endloop
  endfacet
  facet normal -1 0 0
    outer loop
      vertex -7.5 -5 42.5
      vertex -7.5 5 57.5
      vertex -7.5 5 42.5
    endloop
  endfacet
  facet normal -1 -0 0
    outer loop
      vertex -7.5 5 57.5
      vertex -7.5 -5 42.5
      vertex -7.5 -5 57.5
    endloop
  endfacet
  facet normal 0 1 0
    outer loop
      vertex 7.5 5 57.5
      vertex 4.1516 5 52.35
      vertex -7.5 5 57.5
    endloop
  endfacet
  facet normal 0 1 -0
    outer loop
      vertex 7.5 5 42.5
      vertex 4.1516 5 52.35
      vertex 7.5 5 57.5
    endloop
  endfacet
  facet normal 0 1 0
    outer loop
      vertex 4.1516 5 46.7348
      vertex 7.5 5 42.5
      vertex -4.1516 5 46.7348
    endloop
  endfacet
  facet normal 0 1 0
    outer loop
      vertex 4.1516 5 52.35
      vertex 7.5 5 42.5
      vertex 4.1516 5 46.7348
    endloop
  endfacet
  facet normal 0 1 -0
    outer loop
      vertex -4.1516 5 52.35
      vertex -7.5 5 57.5
      vertex 4.1516 5 52.35
    endloop
  endfacet
  facet normal 0 1 0
    outer loop
      vertex -7.5 5 42.5
      vertex -4.1516 5 52.35
      vertex -4.1516 5 46.7348
    endloop
  endfacet
  facet normal 0 1 0
    outer loop
      vertex -4.1516 5 52.35
      vertex -7.5 5 42.5
      vertex -7.5 5 57.5
    endloop
  endfacet
  facet normal 0 1 0
    outer loop
      vertex -7.5 5 42.5
      vertex -4.1516 5 46.7348
      vertex 7.5 5 42.5
    endloop
  endfacet
  facet normal 1 -0 0
    outer loop
      vertex 7.5 -5 57.5
      vertex 7.5 5 42.5
      vertex 7.5 5 57.5
    endloop
  endfacet
  facet normal 1 0 0
    outer loop
      vertex 7.5 5 42.5
      vertex 7.5 -5 57.5
      vertex 7.5 -5 42.5
    endloop
  endfacet
  facet normal 0 -1 0
    outer loop
      vertex -7.5 -5 57.5
      vertex 0 -5 52.5
      vertex 7.5 -5 57.5
    endloop
  endfacet
  facet normal 0 -1 0
    outer loop
      vertex -7.5 -5 57.5
      vertex -0.487725 -5 52.452
      vertex 0 -5 52.5
    endloop
  endfacet
  facet normal 0 -1 0
    outer loop
      vertex -7.5 -5 57.5
      vertex -0.956708 -5 52.3097
      vertex -0.487725 -5 52.452
    endloop
  endfacet
  facet normal 0 -1 0
    outer loop
      vertex -7.5 -5 57.5
      vertex -1.38893 -5 52.0787
      vertex -0.956708 -5 52.3097
    endloop
  endfacet
  facet normal 0 -1 0
    outer loop
      vertex -7.5 -5 57.5
      vertex -1.76777 -5 51.7678
      vertex -1.38893 -5 52.0787
    endloop
  endfacet
  facet normal 0 -1 0
    outer loop
      vertex -7.5 -5 57.5
      vertex -2.07867 -5 51.3889
      vertex -1.76777 -5 51.7678
    endloop
  endfacet
  facet normal 0 -1 0
    outer loop
      vertex -7.5 -5 57.5
      vertex -2.3097 -5 50.9567
      vertex -2.07867 -5 51.3889
    endloop
  endfacet
  facet normal 0 -1 0
    outer loop
      vertex -7.5 -5 57.5
      vertex -2.45196 -5 50.4877
      vertex -2.3097 -5 50.9567
    endloop
  endfacet
  facet normal 0 -1 0
    outer loop
      vertex -7.5 -5 57.5
      vertex -2.5 -5 50
      vertex -2.45196 -5 50.4877
    endloop
  endfacet
  facet normal 0 -1 0
    outer loop
      vertex -7.5 -5 42.5
      vertex -2.5 -5 50
      vertex -7.5 -5 57.5
    endloop
  endfacet
  facet normal 0 -1 -0
    outer loop
      vertex -2.5 -5 50
      vertex -7.5 -5 42.5
      vertex -2.45196 -5 49.5123
    endloop
  endfacet
  facet normal 0 -1 -0
    outer loop
      vertex -2.45196 -5 49.5123
      vertex -7.5 -5 42.5
      vertex -1.01982 -5 42.5
    endloop
  endfacet
  facet normal 0 -1 0
    outer loop
      vertex 0.487725 -5 52.452
      vertex 7.5 -5 57.5
      vertex 0 -5 52.5
    endloop
  endfacet
  facet normal 0 -1 0
    outer loop
      vertex 0.956708 -5 52.3097
      vertex 7.5 -5 57.5
      vertex 0.487725 -5 52.452
    endloop
  endfacet
  facet normal 0 -1 0
    outer loop
      vertex 1.38893 -5 52.0787
      vertex 7.5 -5 57.5
      vertex 0.956708 -5 52.3097
    endloop
  endfacet
  facet normal 0 -1 0
    outer loop
      vertex 1.76777 -5 51.7678
      vertex 7.5 -5 57.5
      vertex 1.38893 -5 52.0787
    endloop
  endfacet
  facet normal 0 -1 0
    outer loop
      vertex 2.07867 -5 51.3889
      vertex 7.5 -5 57.5
      vertex 1.76777 -5 51.7678
    endloop
  endfacet
  facet normal 0 -1 0
    outer loop
      vertex 2.3097 -5 50.9567
      vertex 7.5 -5 57.5
      vertex 2.07867 -5 51.3889
    endloop
  endfacet
  facet normal 0 -1 0
    outer loop
      vertex 2.45196 -5 50.4877
      vertex 7.5 -5 57.5
      vertex 2.3097 -5 50.9567
    endloop
  endfacet
  facet normal 0 -1 0
    outer loop
      vertex 2.5 -5 50
      vertex 7.5 -5 57.5
      vertex 2.45196 -5 50.4877
    endloop
  endfacet
  facet normal 0 -1 0
    outer loop
      vertex 7.5 -5 42.5
      vertex 2.5 -5 50
      vertex 2.45196 -5 49.5123
    endloop
  endfacet
  facet normal 0 -1 0
    outer loop
      vertex 7.5 -5 42.5
      vertex 2.45196 -5 49.5123
      vertex 1 -5 42.5
    endloop
  endfacet
  facet normal 0 -1 0
    outer loop
      vertex 2.5 -5 50
      vertex 7.5 -5 42.5
      vertex 7.5 -5 57.5
    endloop
  endfacet
  facet normal 0 0 1
    outer loop
      vertex 7.5 5 57.5
      vertex 2.5 -1.27676e-14 57.5
      vertex 7.5 -5 57.5
    endloop
  endfacet
  facet normal 0 0 1
    outer loop
      vertex 7.5 5 57.5
      vertex 2.45196 0.487725 57.5
      vertex 2.5 -1.27676e-14 57.5
    endloop
  endfacet
  facet normal 0 0 1
    outer loop
      vertex 7.5 5 57.5
      vertex 2.3097 0.956708 57.5
      vertex 2.45196 0.487725 57.5
    endloop
  endfacet
  facet normal 0 0 1
    outer loop
      vertex 7.5 5 57.5
      vertex 2.07867 1.38893 57.5
      vertex 2.3097 0.956708 57.5
    endloop
  endfacet
  facet normal 0 0 1
    outer loop
      vertex 7.5 5 57.5
      vertex 1.76777 1.76777 57.5
      vertex 2.07867 1.38893 57.5
    endloop
  endfacet
  facet normal 0 0 1
    outer loop
      vertex 7.5 5 57.5
      vertex 1.38893 2.07867 57.5
      vertex 1.76777 1.76777 57.5
    endloop
  endfacet
  facet normal 0 0 1
    outer loop
      vertex 7.5 5 57.5
      vertex 0.956708 2.3097 57.5
      vertex 1.38893 2.07867 57.5
    endloop
  endfacet
  facet normal 0 0 1
    outer loop
      vertex 7.5 5 57.5
      vertex 0.487725 2.45196 57.5
      vertex 0.956708 2.3097 57.5
    endloop
  endfacet
  facet normal 0 0 1
    outer loop
      vertex 7.5 5 57.5
      vertex 0 2.5 57.5
      vertex 0.487725 2.45196 57.5
    endloop
  endfacet
  facet normal -0 0 1
    outer loop
      vertex -7.5 5 57.5
      vertex 0 2.5 57.5
      vertex 7.5 5 57.5
    endloop
  endfacet
  facet normal 0 0 1
    outer loop
      vertex 0 2.5 57.5
      vertex -7.5 5 57.5
      vertex -0.487725 2.45196 57.5
    endloop
  endfacet
  facet normal 0 0 1
    outer loop
      vertex -2.45196 0.487725 57.5
      vertex -7.5 5 57.5
      vertex -2.5 -1.27676e-14 57.5
    endloop
  endfacet
  facet normal 0 0 1
    outer loop
      vertex -2.3097 0.956708 57.5
      vertex -7.5 5 57.5
      vertex -2.45196 0.487725 57.5
    endloop
  endfacet
  facet normal 0 0 1
    outer loop
      vertex -2.07867 1.38893 57.5
      vertex -7.5 5 57.5
      vertex -2.3097 0.956708 57.5
    endloop
  endfacet
  facet normal 0 0 1
    outer loop
      vertex -1.76777 1.76777 57.5
      vertex -7.5 5 57.5
      vertex -2.07867 1.38893 57.5
    endloop
  endfacet
  facet normal 0 0 1
    outer loop
      vertex -1.38893 2.07867 57.5
      vertex -7.5 5 57.5
      vertex -1.76777 1.76777 57.5
    endloop
  endfacet
  facet normal 0 0 1
    outer loop
      vertex -0.956708 2.3097 57.5
      vertex -7.5 5 57.5
      vertex -1.38893 2.07867 57.5
    endloop
  endfacet
  facet normal 0 0 1
    outer loop
      vertex -0.487725 2.45196 57.5
      vertex -7.5 5 57.5
      vertex -0.956708 2.3097 57.5
    endloop
  endfacet
  facet normal -0 0 1
    outer loop
      vertex 2.45196 -0.487725 57.5
      vertex 7.5 -5 57.5
      vertex 2.5 -1.27676e-14 57.5
    endloop
  endfacet
  facet normal -0 0 1
    outer loop
      vertex 2.3097 -0.956708 57.5
      vertex 7.5 -5 57.5
      vertex 2.45196 -0.487725 57.5
    endloop
  endfacet
  facet normal -0 0 1
    outer loop
      vertex 2.07867 -1.38893 57.5
      vertex 7.5 -5 57.5
      vertex 2.3097 -0.956708 57.5
    endloop
  endfacet
  facet normal -0 0 1
    outer loop
      vertex 1.76777 -1.76777 57.5
      vertex 7.5 -5 57.5
      vertex 2.07867 -1.38893 57.5
    endloop
  endfacet
  facet normal -0 0 1
    outer loop
      vertex 1.38893 -2.07867 57.5
      vertex 7.5 -5 57.5
      vertex 1.76777 -1.76777 57.5
    endloop
  endfacet
  facet normal -0 0 1
    outer loop
      vertex 0.956708 -2.3097 57.5
      vertex 7.5 -5 57.5
      vertex 1.38893 -2.07867 57.5
    endloop
  endfacet
  facet normal -0 0 1
    outer loop
      vertex 0.487725 -2.45196 57.5
      vertex 7.5 -5 57.5
      vertex 0.956708 -2.3097 57.5
    endloop
  endfacet
  facet normal -0 0 1
    outer loop
      vertex 0.0907169 -2.49107 57.5
      vertex 7.5 -5 57.5
      vertex 0.487725 -2.45196 57.5
    endloop
  endfacet
  facet normal -0 0 1
    outer loop
      vertex 0 -2.5 57.5
      vertex 7.5 -5 57.5
      vertex 0.0907169 -2.49107 57.5
    endloop
  endfacet
  facet normal 0 0 1
    outer loop
      vertex -7.5 -5 57.5
      vertex 0 -2.5 57.5
      vertex -0.0907169 -2.49107 57.5
    endloop
  endfacet
  facet normal 0 0 1
    outer loop
      vertex -7.5 -5 57.5
      vertex -0.0907169 -2.49107 57.5
      vertex -0.487725 -2.45196 57.5
    endloop
  endfacet
  facet normal 0 0 1
    outer loop
      vertex -7.5 -5 57.5
      vertex -0.487725 -2.45196 57.5
      vertex -0.956708 -2.3097 57.5
    endloop
  endfacet
  facet normal 0 0 1
    outer loop
      vertex -7.5 -5 57.5
      vertex -2.5 -1.27676e-14 57.5
      vertex -7.5 5 57.5
    endloop
  endfacet
  facet normal 0 0 1
    outer loop
      vertex -2.5 -1.27676e-14 57.5
      vertex -7.5 -5 57.5
      vertex -2.45196 -0.487725 57.5
    endloop
  endfacet
  facet normal 0 0 1
    outer loop
      vertex -2.45196 -0.487725 57.5
      vertex -7.5 -5 57.5
      vertex -2.3097 -0.956708 57.5
    endloop
  endfacet
  facet normal 0 0 1
    outer loop
      vertex -2.3097 -0.956708 57.5
      vertex -7.5 -5 57.5
      vertex -2.07867 -1.38893 57.5
    endloop
  endfacet
  facet normal 0 0 1
    outer loop
      vertex 0 -2.5 57.5
      vertex -7.5 -5 57.5
      vertex 7.5 -5 57.5
    endloop
  endfacet
  facet normal 0 0 1
    outer loop
      vertex -1.38893 -2.07867 57.5
      vertex -7.5 -5 57.5
      vertex -0.956708 -2.3097 57.5
    endloop
  endfacet
  facet normal 0 0 1
    outer loop
      vertex -1.76777 -1.76777 57.5
      vertex -7.5 -5 57.5
      vertex -1.38893 -2.07867 57.5
    endloop
  endfacet
  facet normal 0 0 1
    outer loop
      vertex -2.07867 -1.38893 57.5
      vertex -7.5 -5 57.5
      vertex -1.76777 -1.76777 57.5
    endloop
  endfacet
  facet normal -0.995185 -0.0980187 0
    outer loop
      vertex 2.5 -1.17351e-14 52.85
      vertex 2.45196 0.487725 57.5
      vertex 2.45196 0.487725 52.85
    endloop
  endfacet
  facet normal -0.995185 -0.0980187 -2.28364e-17
    outer loop
      vertex 2.45196 0.487725 57.5
      vertex 2.5 -1.17351e-14 52.85
      vertex 2.5 -1.27676e-14 57.5
    endloop
  endfacet
  facet normal -0.95694 -0.290285 0
    outer loop
      vertex 2.45196 0.487725 52.85
      vertex 2.3097 0.956708 57.5
      vertex 2.3097 0.956708 52.85
    endloop
  endfacet
  facet normal -0.95694 -0.290285 0
    outer loop
      vertex 2.3097 0.956708 57.5
      vertex 2.45196 0.487725 52.85
      vertex 2.45196 0.487725 57.5
    endloop
  endfacet
  facet normal 0.995185 -0.0980187 0
    outer loop
      vertex -2.45196 0.487725 57.5
      vertex -2.5 -1.17351e-14 52.85
      vertex -2.45196 0.487725 52.85
    endloop
  endfacet
  facet normal 0.995185 -0.0980187 -2.17645e-17
    outer loop
      vertex -2.5 -1.17351e-14 52.85
      vertex -2.45196 0.487725 57.5
      vertex -2.5 -1.27676e-14 57.5
    endloop
  endfacet
  facet normal -0.0980187 -0.995185 0
    outer loop
      vertex 0 2.5 52.85
      vertex 0.487725 2.45196 57.5
      vertex 0 2.5 57.5
    endloop
  endfacet
  facet normal -0.0980187 -0.995185 -0
    outer loop
      vertex 0.487725 2.45196 57.5
      vertex 0 2.5 52.85
      vertex 0.487725 2.45196 52.85
    endloop
  endfacet
  facet normal -0.773011 -0.634392 0
    outer loop
      vertex 2.07867 1.38893 52.85
      vertex 1.76777 1.76777 57.5
      vertex 1.76777 1.76777 52.85
    endloop
  endfacet
  facet normal -0.773011 -0.634392 0
    outer loop
      vertex 1.76777 1.76777 57.5
      vertex 2.07867 1.38893 52.85
      vertex 2.07867 1.38893 57.5
    endloop
  endfacet
  facet normal 0.290285 -0.95694 0
    outer loop
      vertex -0.956708 2.3097 52.85
      vertex -0.487725 2.45196 57.5
      vertex -0.956708 2.3097 57.5
    endloop
  endfacet
  facet normal 0.290285 -0.95694 0
    outer loop
      vertex -0.487725 2.45196 57.5
      vertex -0.956708 2.3097 52.85
      vertex -0.487725 2.45196 52.85
    endloop
  endfacet
  facet normal 0.0980161 0.995185 -5.10259e-08
    outer loop
      vertex 0 -2.5 57.5
      vertex 0 -2.5 52.85
      vertex -0.0907169 -2.49107 57.5
    endloop
  endfacet
  facet normal 0.773011 0.634392 0
    outer loop
      vertex -1.76777 -1.76777 57.5
      vertex -2.07867 -1.38893 52.85
      vertex -2.07867 -1.38893 57.5
    endloop
  endfacet
  facet normal 0.773011 0.634392 0
    outer loop
      vertex -2.07867 -1.38893 52.85
      vertex -1.76777 -1.76777 57.5
      vertex -1.76777 -1.76777 52.85
    endloop
  endfacet
  facet normal 0 0 1
    outer loop
      vertex 2.45196 0.487725 52.85
      vertex 2.45196 -0.487725 52.85
      vertex 2.5 -1.17351e-14 52.85
    endloop
  endfacet
  facet normal 0 0 1
    outer loop
      vertex 2.3097 0.956708 52.85
      vertex 2.45196 -0.487725 52.85
      vertex 2.45196 0.487725 52.85
    endloop
  endfacet
  facet normal 0 0 1
    outer loop
      vertex 2.3097 0.956708 52.85
      vertex 2.3097 -0.956708 52.85
      vertex 2.45196 -0.487725 52.85
    endloop
  endfacet
  facet normal 0 0 1
    outer loop
      vertex 2.07867 1.38893 52.85
      vertex 2.3097 -0.956708 52.85
      vertex 2.3097 0.956708 52.85
    endloop
  endfacet
  facet normal 0 0 1
    outer loop
      vertex 2.07867 1.38893 52.85
      vertex 2.07867 -1.38893 52.85
      vertex 2.3097 -0.956708 52.85
    endloop
  endfacet
  facet normal 0 0 1
    outer loop
      vertex 1.76777 1.76777 52.85
      vertex 2.07867 -1.38893 52.85
      vertex 2.07867 1.38893 52.85
    endloop
  endfacet
  facet normal 0 0 1
    outer loop
      vertex 1.76777 1.76777 52.85
      vertex 1.76777 -1.76777 52.85
      vertex 2.07867 -1.38893 52.85
    endloop
  endfacet
  facet normal 0 0 1
    outer loop
      vertex 1.38893 2.07867 52.85
      vertex 1.76777 -1.76777 52.85
      vertex 1.76777 1.76777 52.85
    endloop
  endfacet
  facet normal 0 0 1
    outer loop
      vertex 1.38893 2.07867 52.85
      vertex 1.38893 -2.07867 52.85
      vertex 1.76777 -1.76777 52.85
    endloop
  endfacet
  facet normal 0 0 1
    outer loop
      vertex 0.956708 2.3097 52.85
      vertex 1.38893 -2.07867 52.85
      vertex 1.38893 2.07867 52.85
    endloop
  endfacet
  facet normal 0 0 1
    outer loop
      vertex 0.956708 2.3097 52.85
      vertex 0.956708 -2.3097 52.85
      vertex 1.38893 -2.07867 52.85
    endloop
  endfacet
  facet normal 0 0 1
    outer loop
      vertex 0.487725 2.45196 52.85
      vertex 0.956708 -2.3097 52.85
      vertex 0.956708 2.3097 52.85
    endloop
  endfacet
  facet normal 0 0 1
    outer loop
      vertex 0.487725 2.45196 52.85
      vertex 0.487725 -2.45196 52.85
      vertex 0.956708 -2.3097 52.85
    endloop
  endfacet
  facet normal 0 0 1
    outer loop
      vertex 0 2.5 52.85
      vertex 0.487725 -2.45196 52.85
      vertex 0.487725 2.45196 52.85
    endloop
  endfacet
  facet normal 0 0 1
    outer loop
      vertex 0 2.5 52.85
      vertex 0 -2.5 52.85
      vertex 0.487725 -2.45196 52.85
    endloop
  endfacet
  facet normal -0 0 1
    outer loop
      vertex -0.487725 2.45196 52.85
      vertex 0 -2.5 52.85
      vertex 0 2.5 52.85
    endloop
  endfacet
  facet normal 0 0 1
    outer loop
      vertex -0.487725 2.45196 52.85
      vertex -0.487725 -2.45196 52.85
      vertex 0 -2.5 52.85
    endloop
  endfacet
  facet normal -0 0 1
    outer loop
      vertex -0.956708 2.3097 52.85
      vertex -0.487725 -2.45196 52.85
      vertex -0.487725 2.45196 52.85
    endloop
  endfacet
  facet normal 0 0 1
    outer loop
      vertex -0.956708 2.3097 52.85
      vertex -0.956708 -2.3097 52.85
      vertex -0.487725 -2.45196 52.85
    endloop
  endfacet
  facet normal -0 0 1
    outer loop
      vertex -1.38893 2.07867 52.85
      vertex -0.956708 -2.3097 52.85
      vertex -0.956708 2.3097 52.85
    endloop
  endfacet
  facet normal 0 0 1
    outer loop
      vertex -1.38893 2.07867 52.85
      vertex -1.38893 -2.07867 52.85
      vertex -0.956708 -2.3097 52.85
    endloop
  endfacet
  facet normal -0 0 1
    outer loop
      vertex -1.76777 1.76777 52.85
      vertex -1.38893 -2.07867 52.85
      vertex -1.38893 2.07867 52.85
    endloop
  endfacet
  facet normal 0 0 1
    outer loop
      vertex -1.76777 1.76777 52.85
      vertex -1.76777 -1.76777 52.85
      vertex -1.38893 -2.07867 52.85
    endloop
  endfacet
  facet normal -0 0 1
    outer loop
      vertex -2.07867 1.38893 52.85
      vertex -1.76777 -1.76777 52.85
      vertex -1.76777 1.76777 52.85
    endloop
  endfacet
  facet normal 0 0 1
    outer loop
      vertex -2.07867 1.38893 52.85
      vertex -2.07867 -1.38893 52.85
      vertex -1.76777 -1.76777 52.85
    endloop
  endfacet
  facet normal -0 0 1
    outer loop
      vertex -2.3097 0.956708 52.85
      vertex -2.07867 -1.38893 52.85
      vertex -2.07867 1.38893 52.85
    endloop
  endfacet
  facet normal 0 0 1
    outer loop
      vertex -2.3097 0.956708 52.85
      vertex -2.3097 -0.956708 52.85
      vertex -2.07867 -1.38893 52.85
    endloop
  endfacet
  facet normal -0 0 1
    outer loop
      vertex -2.45196 0.487725 52.85
      vertex -2.3097 -0.956708 52.85
      vertex -2.3097 0.956708 52.85
    endloop
  endfacet
  facet normal 0 0 1
    outer loop
      vertex -2.45196 0.487725 52.85
      vertex -2.45196 -0.487725 52.85
      vertex -2.3097 -0.956708 52.85
    endloop
  endfacet
  facet normal 0 -0 1
    outer loop
      vertex -2.45196 -0.487725 52.85
      vertex -2.45196 0.487725 52.85
      vertex -2.5 -1.17351e-14 52.85
    endloop
  endfacet
  facet normal -0.881922 -0.471396 0
    outer loop
      vertex 2.3097 0.956708 52.85
      vertex 2.07867 1.38893 57.5
      vertex 2.07867 1.38893 52.85
    endloop
  endfacet
  facet normal -0.881922 -0.471396 0
    outer loop
      vertex 2.07867 1.38893 57.5
      vertex 2.3097 0.956708 52.85
      vertex 2.3097 0.956708 57.5
    endloop
  endfacet
  facet normal -0.471396 -0.881922 0
    outer loop
      vertex 0.956708 2.3097 52.85
      vertex 1.38893 2.07867 57.5
      vertex 0.956708 2.3097 57.5
    endloop
  endfacet
  facet normal -0.471396 -0.881922 -0
    outer loop
      vertex 1.38893 2.07867 57.5
      vertex 0.956708 2.3097 52.85
      vertex 1.38893 2.07867 52.85
    endloop
  endfacet
  facet normal -0.634392 -0.773011 0
    outer loop
      vertex 1.38893 2.07867 52.85
      vertex 1.76777 1.76777 57.5
      vertex 1.38893 2.07867 57.5
    endloop
  endfacet
  facet normal -0.634392 -0.773011 -0
    outer loop
      vertex 1.76777 1.76777 57.5
      vertex 1.38893 2.07867 52.85
      vertex 1.76777 1.76777 52.85
    endloop
  endfacet
  facet normal 0.881922 -0.471396 0
    outer loop
      vertex -2.3097 0.956708 57.5
      vertex -2.07867 1.38893 52.85
      vertex -2.07867 1.38893 57.5
    endloop
  endfacet
  facet normal 0.881922 -0.471396 0
    outer loop
      vertex -2.07867 1.38893 52.85
      vertex -2.3097 0.956708 57.5
      vertex -2.3097 0.956708 52.85
    endloop
  endfacet
  facet normal 0.773011 -0.634392 0
    outer loop
      vertex -2.07867 1.38893 57.5
      vertex -1.76777 1.76777 52.85
      vertex -1.76777 1.76777 57.5
    endloop
  endfacet
  facet normal 0.773011 -0.634392 0
    outer loop
      vertex -1.76777 1.76777 52.85
      vertex -2.07867 1.38893 57.5
      vertex -2.07867 1.38893 52.85
    endloop
  endfacet
  facet normal 0.0980187 -0.995185 0
    outer loop
      vertex -0.487725 2.45196 52.85
      vertex 0 2.5 57.5
      vertex -0.487725 2.45196 57.5
    endloop
  endfacet
  facet normal 0.0980187 -0.995185 0
    outer loop
      vertex 0 2.5 57.5
      vertex -0.487725 2.45196 52.85
      vertex 0 2.5 52.85
    endloop
  endfacet
  facet normal -0.0980161 0.995185 -5.10259e-08
    outer loop
      vertex 0.0907169 -2.49107 57.5
      vertex 0 -2.5 52.85
      vertex 0 -2.5 57.5
    endloop
  endfacet
  facet normal -0.290285 0.95694 0
    outer loop
      vertex 0.956708 -2.3097 52.85
      vertex 0.487725 -2.45196 57.5
      vertex 0.956708 -2.3097 57.5
    endloop
  endfacet
  facet normal -0.290285 0.95694 0
    outer loop
      vertex 0.487725 -2.45196 57.5
      vertex 0.956708 -2.3097 52.85
      vertex 0.487725 -2.45196 52.85
    endloop
  endfacet
  facet normal 0.290285 0.95694 -0
    outer loop
      vertex -0.487725 -2.45196 52.85
      vertex -0.956708 -2.3097 57.5
      vertex -0.487725 -2.45196 57.5
    endloop
  endfacet
  facet normal 0.290285 0.95694 0
    outer loop
      vertex -0.956708 -2.3097 57.5
      vertex -0.487725 -2.45196 52.85
      vertex -0.956708 -2.3097 52.85
    endloop
  endfacet
  facet normal 0.0980187 0.995185 1.39173e-09
    outer loop
      vertex -0.487725 -2.45196 52.85
      vertex -0.0907169 -2.49107 57.5
      vertex 0 -2.5 52.85
    endloop
  endfacet
  facet normal 0.0980187 0.995185 0
    outer loop
      vertex -0.0907169 -2.49107 57.5
      vertex -0.487725 -2.45196 52.85
      vertex -0.487725 -2.45196 57.5
    endloop
  endfacet
  facet normal -0.290285 -0.95694 0
    outer loop
      vertex 0.487725 2.45196 52.85
      vertex 0.956708 2.3097 57.5
      vertex 0.487725 2.45196 57.5
    endloop
  endfacet
  facet normal -0.290285 -0.95694 -0
    outer loop
      vertex 0.956708 2.3097 57.5
      vertex 0.487725 2.45196 52.85
      vertex 0.956708 2.3097 52.85
    endloop
  endfacet
  facet normal 0.95694 -0.290285 0
    outer loop
      vertex -2.45196 0.487725 57.5
      vertex -2.3097 0.956708 52.85
      vertex -2.3097 0.956708 57.5
    endloop
  endfacet
  facet normal 0.95694 -0.290285 0
    outer loop
      vertex -2.3097 0.956708 52.85
      vertex -2.45196 0.487725 57.5
      vertex -2.45196 0.487725 52.85
    endloop
  endfacet
  facet normal 0.471396 -0.881922 0
    outer loop
      vertex -1.38893 2.07867 52.85
      vertex -0.956708 2.3097 57.5
      vertex -1.38893 2.07867 57.5
    endloop
  endfacet
  facet normal 0.471396 -0.881922 0
    outer loop
      vertex -0.956708 2.3097 57.5
      vertex -1.38893 2.07867 52.85
      vertex -0.956708 2.3097 52.85
    endloop
  endfacet
  facet normal 0.634392 -0.773011 0
    outer loop
      vertex -1.76777 1.76777 52.85
      vertex -1.38893 2.07867 57.5
      vertex -1.76777 1.76777 57.5
    endloop
  endfacet
  facet normal 0.634392 -0.773011 0
    outer loop
      vertex -1.38893 2.07867 57.5
      vertex -1.76777 1.76777 52.85
      vertex -1.38893 2.07867 52.85
    endloop
  endfacet
  facet normal -0.773011 0.634392 0
    outer loop
      vertex 1.76777 -1.76777 52.85
      vertex 2.07867 -1.38893 57.5
      vertex 2.07867 -1.38893 52.85
    endloop
  endfacet
  facet normal -0.773011 0.634392 0
    outer loop
      vertex 2.07867 -1.38893 57.5
      vertex 1.76777 -1.76777 52.85
      vertex 1.76777 -1.76777 57.5
    endloop
  endfacet
  facet normal -0.95694 0.290285 0
    outer loop
      vertex 2.3097 -0.956708 52.85
      vertex 2.45196 -0.487725 57.5
      vertex 2.45196 -0.487725 52.85
    endloop
  endfacet
  facet normal -0.95694 0.290285 0
    outer loop
      vertex 2.45196 -0.487725 57.5
      vertex 2.3097 -0.956708 52.85
      vertex 2.3097 -0.956708 57.5
    endloop
  endfacet
  facet normal -0.995185 0.0980187 2.28364e-17
    outer loop
      vertex 2.45196 -0.487725 52.85
      vertex 2.5 -1.27676e-14 57.5
      vertex 2.5 -1.17351e-14 52.85
    endloop
  endfacet
  facet normal -0.995185 0.0980187 0
    outer loop
      vertex 2.5 -1.27676e-14 57.5
      vertex 2.45196 -0.487725 52.85
      vertex 2.45196 -0.487725 57.5
    endloop
  endfacet
  facet normal -0.0980187 0.995185 0
    outer loop
      vertex 0.487725 -2.45196 52.85
      vertex 0.0907169 -2.49107 57.5
      vertex 0.487725 -2.45196 57.5
    endloop
  endfacet
  facet normal -0.0980187 0.995185 1.39173e-09
    outer loop
      vertex 0.0907169 -2.49107 57.5
      vertex 0.487725 -2.45196 52.85
      vertex 0 -2.5 52.85
    endloop
  endfacet
  facet normal 0.881922 0.471396 0
    outer loop
      vertex -2.07867 -1.38893 57.5
      vertex -2.3097 -0.956708 52.85
      vertex -2.3097 -0.956708 57.5
    endloop
  endfacet
  facet normal 0.881922 0.471396 0
    outer loop
      vertex -2.3097 -0.956708 52.85
      vertex -2.07867 -1.38893 57.5
      vertex -2.07867 -1.38893 52.85
    endloop
  endfacet
  facet normal 0.634392 0.773011 -0
    outer loop
      vertex -1.38893 -2.07867 52.85
      vertex -1.76777 -1.76777 57.5
      vertex -1.38893 -2.07867 57.5
    endloop
  endfacet
  facet normal 0.634392 0.773011 0
    outer loop
      vertex -1.76777 -1.76777 57.5
      vertex -1.38893 -2.07867 52.85
      vertex -1.76777 -1.76777 52.85
    endloop
  endfacet
  facet normal -0.881922 0.471396 0
    outer loop
      vertex 2.07867 -1.38893 52.85
      vertex 2.3097 -0.956708 57.5
      vertex 2.3097 -0.956708 52.85
    endloop
  endfacet
  facet normal -0.881922 0.471396 0
    outer loop
      vertex 2.3097 -0.956708 57.5
      vertex 2.07867 -1.38893 52.85
      vertex 2.07867 -1.38893 57.5
    endloop
  endfacet
  facet normal -0.471396 0.881922 0
    outer loop
      vertex 1.38893 -2.07867 52.85
      vertex 0.956708 -2.3097 57.5
      vertex 1.38893 -2.07867 57.5
    endloop
  endfacet
  facet normal -0.471396 0.881922 0
    outer loop
      vertex 0.956708 -2.3097 57.5
      vertex 1.38893 -2.07867 52.85
      vertex 0.956708 -2.3097 52.85
    endloop
  endfacet
  facet normal -0.634392 0.773011 0
    outer loop
      vertex 1.76777 -1.76777 52.85
      vertex 1.38893 -2.07867 57.5
      vertex 1.76777 -1.76777 57.5
    endloop
  endfacet
  facet normal -0.634392 0.773011 0
    outer loop
      vertex 1.38893 -2.07867 57.5
      vertex 1.76777 -1.76777 52.85
      vertex 1.38893 -2.07867 52.85
    endloop
  endfacet
  facet normal 0.995185 0.0980187 2.28364e-17
    outer loop
      vertex -2.45196 -0.487725 57.5
      vertex -2.5 -1.17351e-14 52.85
      vertex -2.5 -1.27676e-14 57.5
    endloop
  endfacet
  facet normal 0.995185 0.0980187 0
    outer loop
      vertex -2.5 -1.17351e-14 52.85
      vertex -2.45196 -0.487725 57.5
      vertex -2.45196 -0.487725 52.85
    endloop
  endfacet
  facet normal 0.95694 0.290285 0
    outer loop
      vertex -2.3097 -0.956708 57.5
      vertex -2.45196 -0.487725 52.85
      vertex -2.45196 -0.487725 57.5
    endloop
  endfacet
  facet normal 0.95694 0.290285 0
    outer loop
      vertex -2.45196 -0.487725 52.85
      vertex -2.3097 -0.956708 57.5
      vertex -2.3097 -0.956708 52.85
    endloop
  endfacet
  facet normal 0.471396 0.881922 -0
    outer loop
      vertex -0.956708 -2.3097 52.85
      vertex -1.38893 -2.07867 57.5
      vertex -0.956708 -2.3097 57.5
    endloop
  endfacet
  facet normal 0.471396 0.881922 0
    outer loop
      vertex -1.38893 -2.07867 57.5
      vertex -0.956708 -2.3097 52.85
      vertex -1.38893 -2.07867 52.85
    endloop
  endfacet
  facet normal -0.995185 -0.0980187 0
    outer loop
      vertex 2.5 -9.4369e-15 42.5
      vertex 2.45196 0.487725 47.1901
      vertex 2.45196 0.487725 42.5
    endloop
  endfacet
  facet normal -0.995185 -0.0980187 -2.09123e-17
    outer loop
      vertex 2.45196 0.487725 47.1901
      vertex 2.5 -9.4369e-15 42.5
      vertex 2.5 -1.04892e-14 47.2393
    endloop
  endfacet
  facet normal -0.773011 -0.634392 0
    outer loop
      vertex 2.07867 1.38893 42.5
      vertex 1.76777 1.76777 47.0609
      vertex 1.76777 1.76777 42.5
    endloop
  endfacet
  facet normal -0.773011 -0.634392 0
    outer loop
      vertex 1.76777 1.76777 47.0609
      vertex 2.07867 1.38893 42.5
      vertex 2.07867 1.38893 47.0992
    endloop
  endfacet
  facet normal -0.634392 -0.773011 0
    outer loop
      vertex 1.76777 1.76777 42.5
      vertex 1.38893 2.07867 47.0296
      vertex 1.38893 2.07867 42.5
    endloop
  endfacet
  facet normal -0.634392 -0.773011 0
    outer loop
      vertex 1.38893 2.07867 47.0296
      vertex 1.76777 1.76777 42.5
      vertex 1.76777 1.76777 47.0609
    endloop
  endfacet
  facet normal 0.290285 -0.95694 0
    outer loop
      vertex -0.956708 2.3097 42.5
      vertex -0.487725 2.45196 46.9919
      vertex -0.956708 2.3097 47.0063
    endloop
  endfacet
  facet normal 0.290285 -0.95694 0
    outer loop
      vertex -0.487725 2.45196 46.9919
      vertex -0.956708 2.3097 42.5
      vertex -0.487725 2.45196 42.5
    endloop
  endfacet
  facet normal 0.881922 -0.471396 0
    outer loop
      vertex -2.3097 0.956708 42.5
      vertex -2.07867 1.38893 47.0992
      vertex -2.3097 0.956708 47.1428
    endloop
  endfacet
  facet normal 0.881922 -0.471396 0
    outer loop
      vertex -2.07867 1.38893 47.0992
      vertex -2.3097 0.956708 42.5
      vertex -2.07867 1.38893 42.5
    endloop
  endfacet
  facet normal -0.995185 0.0980187 2.09123e-17
    outer loop
      vertex 2.45196 -0.487725 42.5
      vertex 2.5 -1.04892e-14 47.2393
      vertex 2.5 -9.4369e-15 42.5
    endloop
  endfacet
  facet normal -0.995185 0.0980187 0
    outer loop
      vertex 2.5 -1.04892e-14 47.2393
      vertex 2.45196 -0.487725 42.5
      vertex 2.45196 -0.487725 47.2885
    endloop
  endfacet
  facet normal 0.290285 0.95694 -0
    outer loop
      vertex -0.487725 -2.45196 42.5
      vertex -0.956708 -2.3097 47.4723
      vertex -0.487725 -2.45196 47.4867
    endloop
  endfacet
  facet normal 0.290285 0.95694 0
    outer loop
      vertex -0.956708 -2.3097 47.4723
      vertex -0.487725 -2.45196 42.5
      vertex -0.956708 -2.3097 42.5
    endloop
  endfacet
  facet normal 0.881922 0.471396 -0
    outer loop
      vertex -2.07867 -1.38893 42.5
      vertex -2.3097 -0.956708 47.3358
      vertex -2.07867 -1.38893 47.3794
    endloop
  endfacet
  facet normal 0.881922 0.471396 0
    outer loop
      vertex -2.3097 -0.956708 47.3358
      vertex -2.07867 -1.38893 42.5
      vertex -2.3097 -0.956708 42.5
    endloop
  endfacet
  facet normal -0.881922 -0.471396 0
    outer loop
      vertex 2.3097 0.956708 42.5
      vertex 2.07867 1.38893 47.0992
      vertex 2.07867 1.38893 42.5
    endloop
  endfacet
  facet normal -0.881922 -0.471396 0
    outer loop
      vertex 2.07867 1.38893 47.0992
      vertex 2.3097 0.956708 42.5
      vertex 2.3097 0.956708 47.1428
    endloop
  endfacet
  facet normal -0.471396 -0.881922 0
    outer loop
      vertex 1.38893 2.07867 42.5
      vertex 0.956708 2.3097 47.0063
      vertex 0.956708 2.3097 42.5
    endloop
  endfacet
  facet normal -0.471396 -0.881922 0
    outer loop
      vertex 0.956708 2.3097 47.0063
      vertex 1.38893 2.07867 42.5
      vertex 1.38893 2.07867 47.0296
    endloop
  endfacet
  facet normal -0.0980187 -0.995185 0
    outer loop
      vertex 0 2.5 42.5
      vertex 0.487725 2.45196 46.9919
      vertex 0 2.5 46.9871
    endloop
  endfacet
  facet normal -0.0980187 -0.995185 -0
    outer loop
      vertex 0.487725 2.45196 46.9919
      vertex 0 2.5 42.5
      vertex 0.487725 2.45196 42.5
    endloop
  endfacet
  facet normal 0.995185 -0.0980187 0
    outer loop
      vertex -2.45196 0.487725 47.1901
      vertex -2.5 -9.4369e-15 42.5
      vertex -2.45196 0.487725 42.5
    endloop
  endfacet
  facet normal 0.995185 -0.0980187 -2.17645e-17
    outer loop
      vertex -2.5 -9.4369e-15 42.5
      vertex -2.45196 0.487725 47.1901
      vertex -2.5 -1.04892e-14 47.2393
    endloop
  endfacet
  facet normal 0.773011 -0.634392 0
    outer loop
      vertex -2.07867 1.38893 42.5
      vertex -1.76777 1.76777 47.0609
      vertex -2.07867 1.38893 47.0992
    endloop
  endfacet
  facet normal 0.773011 -0.634392 0
    outer loop
      vertex -1.76777 1.76777 47.0609
      vertex -2.07867 1.38893 42.5
      vertex -1.76777 1.76777 42.5
    endloop
  endfacet
  facet normal 0.634392 -0.773011 0
    outer loop
      vertex -1.76777 1.76777 42.5
      vertex -1.38893 2.07867 47.0296
      vertex -1.76777 1.76777 47.0609
    endloop
  endfacet
  facet normal 0.634392 -0.773011 0
    outer loop
      vertex -1.38893 2.07867 47.0296
      vertex -1.76777 1.76777 42.5
      vertex -1.38893 2.07867 42.5
    endloop
  endfacet
  facet normal -0.0980167 0.995185 -9.17585e-08
    outer loop
      vertex 0.121931 -2.48799 42.5
      vertex 0 -2.5 47.4915
      vertex 0.365204 -2.46403 47.4879
    endloop
  endfacet
  facet normal -0.0980168 0.995185 -9.50693e-08
    outer loop
      vertex 0 -2.5 47.4915
      vertex 0.121931 -2.48799 42.5
      vertex 0 -2.5 42.5
    endloop
  endfacet
  facet normal -0.0980191 0.995185 0
    outer loop
      vertex 0.487725 -2.45196 42.5
      vertex 0.365204 -2.46403 47.4879
      vertex 0.487725 -2.45196 47.4867
    endloop
  endfacet
  facet normal -0.0980187 0.995185 9.76004e-09
    outer loop
      vertex 0.365204 -2.46403 47.4879
      vertex 0.487725 -2.45196 42.5
      vertex 0.121931 -2.48799 42.5
    endloop
  endfacet
  facet normal 0.0980168 0.995185 -9.50693e-08
    outer loop
      vertex -0.121931 -2.48799 42.5
      vertex 0 -2.5 47.4915
      vertex 0 -2.5 42.5
    endloop
  endfacet
  facet normal 0.0980167 0.995185 -9.17585e-08
    outer loop
      vertex 0 -2.5 47.4915
      vertex -0.121931 -2.48799 42.5
      vertex -0.365204 -2.46403 47.4879
    endloop
  endfacet
  facet normal -0.95694 -0.290285 0
    outer loop
      vertex 2.45196 0.487725 42.5
      vertex 2.3097 0.956708 47.1428
      vertex 2.3097 0.956708 42.5
    endloop
  endfacet
  facet normal -0.95694 -0.290285 0
    outer loop
      vertex 2.3097 0.956708 47.1428
      vertex 2.45196 0.487725 42.5
      vertex 2.45196 0.487725 47.1901
    endloop
  endfacet
  facet normal -0.290285 -0.95694 0
    outer loop
      vertex 0.956708 2.3097 42.5
      vertex 0.487725 2.45196 46.9919
      vertex 0.487725 2.45196 42.5
    endloop
  endfacet
  facet normal -0.290285 -0.95694 0
    outer loop
      vertex 0.487725 2.45196 46.9919
      vertex 0.956708 2.3097 42.5
      vertex 0.956708 2.3097 47.0063
    endloop
  endfacet
  facet normal 0.95694 -0.290285 0
    outer loop
      vertex -2.45196 0.487725 42.5
      vertex -2.3097 0.956708 47.1428
      vertex -2.45196 0.487725 47.1901
    endloop
  endfacet
  facet normal 0.95694 -0.290285 0
    outer loop
      vertex -2.3097 0.956708 47.1428
      vertex -2.45196 0.487725 42.5
      vertex -2.3097 0.956708 42.5
    endloop
  endfacet
  facet normal 0.0980187 -0.995185 0
    outer loop
      vertex -0.487725 2.45196 42.5
      vertex 0 2.5 46.9871
      vertex -0.487725 2.45196 46.9919
    endloop
  endfacet
  facet normal 0.0980187 -0.995185 0
    outer loop
      vertex 0 2.5 46.9871
      vertex -0.487725 2.45196 42.5
      vertex 0 2.5 42.5
    endloop
  endfacet
  facet normal 0.471396 -0.881922 0
    outer loop
      vertex -1.38893 2.07867 42.5
      vertex -0.956708 2.3097 47.0063
      vertex -1.38893 2.07867 47.0296
    endloop
  endfacet
  facet normal 0.471396 -0.881922 0
    outer loop
      vertex -0.956708 2.3097 47.0063
      vertex -1.38893 2.07867 42.5
      vertex -0.956708 2.3097 42.5
    endloop
  endfacet
  facet normal -0.95694 0.290285 0
    outer loop
      vertex 2.3097 -0.956708 42.5
      vertex 2.45196 -0.487725 47.2885
      vertex 2.45196 -0.487725 42.5
    endloop
  endfacet
  facet normal -0.95694 0.290285 0
    outer loop
      vertex 2.45196 -0.487725 47.2885
      vertex 2.3097 -0.956708 42.5
      vertex 2.3097 -0.956708 47.3358
    endloop
  endfacet
  facet normal -0.290285 0.95694 0
    outer loop
      vertex 0.487725 -2.45196 42.5
      vertex 0.956708 -2.3097 47.4723
      vertex 0.956708 -2.3097 42.5
    endloop
  endfacet
  facet normal -0.290285 0.95694 0
    outer loop
      vertex 0.956708 -2.3097 47.4723
      vertex 0.487725 -2.45196 42.5
      vertex 0.487725 -2.45196 47.4867
    endloop
  endfacet
  facet normal -0.471396 0.881922 0
    outer loop
      vertex 0.956708 -2.3097 42.5
      vertex 1.38893 -2.07867 47.449
      vertex 1.38893 -2.07867 42.5
    endloop
  endfacet
  facet normal -0.471396 0.881922 0
    outer loop
      vertex 1.38893 -2.07867 47.449
      vertex 0.956708 -2.3097 42.5
      vertex 0.956708 -2.3097 47.4723
    endloop
  endfacet
  facet normal 0.95694 0.290285 -0
    outer loop
      vertex -2.3097 -0.956708 42.5
      vertex -2.45196 -0.487725 47.2885
      vertex -2.3097 -0.956708 47.3358
    endloop
  endfacet
  facet normal 0.95694 0.290285 0
    outer loop
      vertex -2.45196 -0.487725 47.2885
      vertex -2.3097 -0.956708 42.5
      vertex -2.45196 -0.487725 42.5
    endloop
  endfacet
  facet normal 0.773011 0.634392 -0
    outer loop
      vertex -1.76777 -1.76777 42.5
      vertex -2.07867 -1.38893 47.3794
      vertex -1.76777 -1.76777 47.4177
    endloop
  endfacet
  facet normal 0.773011 0.634392 0
    outer loop
      vertex -2.07867 -1.38893 47.3794
      vertex -1.76777 -1.76777 42.5
      vertex -2.07867 -1.38893 42.5
    endloop
  endfacet
  facet normal 0.0980187 0.995185 9.76004e-09
    outer loop
      vertex -0.487725 -2.45196 42.5
      vertex -0.365204 -2.46403 47.4879
      vertex -0.121931 -2.48799 42.5
    endloop
  endfacet
  facet normal 0.0980191 0.995185 0
    outer loop
      vertex -0.365204 -2.46403 47.4879
      vertex -0.487725 -2.45196 42.5
      vertex -0.487725 -2.45196 47.4867
    endloop
  endfacet
  facet normal -0.773011 0.634392 0
    outer loop
      vertex 1.76777 -1.76777 42.5
      vertex 2.07867 -1.38893 47.3794
      vertex 2.07867 -1.38893 42.5
    endloop
  endfacet
  facet normal -0.773011 0.634392 0
    outer loop
      vertex 2.07867 -1.38893 47.3794
      vertex 1.76777 -1.76777 42.5
      vertex 1.76777 -1.76777 47.4177
    endloop
  endfacet
  facet normal -0.881922 0.471396 0
    outer loop
      vertex 2.07867 -1.38893 42.5
      vertex 2.3097 -0.956708 47.3358
      vertex 2.3097 -0.956708 42.5
    endloop
  endfacet
  facet normal -0.881922 0.471396 0
    outer loop
      vertex 2.3097 -0.956708 47.3358
      vertex 2.07867 -1.38893 42.5
      vertex 2.07867 -1.38893 47.3794
    endloop
  endfacet
  facet normal -0.634392 0.773011 0
    outer loop
      vertex 1.38893 -2.07867 42.5
      vertex 1.76777 -1.76777 47.4177
      vertex 1.76777 -1.76777 42.5
    endloop
  endfacet
  facet normal -0.634392 0.773011 0
    outer loop
      vertex 1.76777 -1.76777 47.4177
      vertex 1.38893 -2.07867 42.5
      vertex 1.38893 -2.07867 47.449
    endloop
  endfacet
  facet normal 0.995185 0.0980187 -0
    outer loop
      vertex -2.45196 -0.487725 42.5
      vertex -2.5 -1.04892e-14 47.2393
      vertex -2.45196 -0.487725 47.2885
    endloop
  endfacet
  facet normal 0.995185 0.0980187 2.17645e-17
    outer loop
      vertex -2.5 -1.04892e-14 47.2393
      vertex -2.45196 -0.487725 42.5
      vertex -2.5 -9.4369e-15 42.5
    endloop
  endfacet
  facet normal 0.634392 0.773011 -0
    outer loop
      vertex -1.38893 -2.07867 42.5
      vertex -1.76777 -1.76777 47.4177
      vertex -1.38893 -2.07867 47.449
    endloop
  endfacet
  facet normal 0.634392 0.773011 0
    outer loop
      vertex -1.76777 -1.76777 47.4177
      vertex -1.38893 -2.07867 42.5
      vertex -1.76777 -1.76777 42.5
    endloop
  endfacet
  facet normal 0.471396 0.881922 -0
    outer loop
      vertex -0.956708 -2.3097 42.5
      vertex -1.38893 -2.07867 47.449
      vertex -0.956708 -2.3097 47.4723
    endloop
  endfacet
  facet normal 0.471396 0.881922 0
    outer loop
      vertex -1.38893 -2.07867 47.449
      vertex -0.956708 -2.3097 42.5
      vertex -1.38893 -2.07867 42.5
    endloop
  endfacet
  facet normal -5.59279e-08 0.100382 0.994949
    outer loop
      vertex 4.1516 5 46.7348
      vertex 2.5 -1.04892e-14 47.2393
      vertex 4.07071 -4.07071 47.65
    endloop
  endfacet
  facet normal -9.8874e-06 0.100385 0.994949
    outer loop
      vertex 4.1516 5 46.7348
      vertex 2.45196 0.487725 47.1901
      vertex 2.5 -1.04892e-14 47.2393
    endloop
  endfacet
  facet normal 8.22989e-06 0.100379 0.994949
    outer loop
      vertex 4.1516 5 46.7348
      vertex 2.3097 0.956708 47.1428
      vertex 2.45196 0.487725 47.1901
    endloop
  endfacet
  facet normal -5.32871e-06 0.100385 0.994949
    outer loop
      vertex 4.1516 5 46.7348
      vertex 2.07867 1.38893 47.0992
      vertex 2.3097 0.956708 47.1428
    endloop
  endfacet
  facet normal 4.51921e-06 0.100379 0.994949
    outer loop
      vertex 4.1516 5 46.7348
      vertex 1.76777 1.76777 47.0609
      vertex 2.07867 1.38893 47.0992
    endloop
  endfacet
  facet normal -3.78566e-07 0.100383 0.994949
    outer loop
      vertex 4.1516 5 46.7348
      vertex 1.38893 2.07867 47.0296
      vertex 1.76777 1.76777 47.0609
    endloop
  endfacet
  facet normal 1.17787e-06 0.100381 0.994949
    outer loop
      vertex 4.1516 5 46.7348
      vertex 0.956708 2.3097 47.0063
      vertex 1.38893 2.07867 47.0296
    endloop
  endfacet
  facet normal -2.05077e-06 0.100385 0.994949
    outer loop
      vertex 4.1516 5 46.7348
      vertex 0.487725 2.45196 46.9919
      vertex 0.956708 2.3097 47.0063
    endloop
  endfacet
  facet normal -3.36696e-06 0.100387 0.994948
    outer loop
      vertex 4.1516 5 46.7348
      vertex 0 2.5 46.9871
      vertex 0.487725 2.45196 46.9919
    endloop
  endfacet
  facet normal -0 0.100382 0.994949
    outer loop
      vertex -4.1516 5 46.7348
      vertex 0 2.5 46.9871
      vertex 4.1516 5 46.7348
    endloop
  endfacet
  facet normal 3.36696e-06 0.100387 0.994948
    outer loop
      vertex 0 2.5 46.9871
      vertex -4.1516 5 46.7348
      vertex -0.487725 2.45196 46.9919
    endloop
  endfacet
  facet normal 9.8874e-06 0.100385 0.994949
    outer loop
      vertex -4.1516 5 46.7348
      vertex -2.5 -1.04892e-14 47.2393
      vertex -2.45196 0.487725 47.1901
    endloop
  endfacet
  facet normal -8.22989e-06 0.100379 0.994949
    outer loop
      vertex -4.1516 5 46.7348
      vertex -2.45196 0.487725 47.1901
      vertex -2.3097 0.956708 47.1428
    endloop
  endfacet
  facet normal 5.59279e-08 0.100382 0.994949
    outer loop
      vertex -2.5 -1.04892e-14 47.2393
      vertex -4.1516 5 46.7348
      vertex -4.07071 -4.07071 47.65
    endloop
  endfacet
  facet normal 5.32871e-06 0.100385 0.994949
    outer loop
      vertex -2.07867 1.38893 47.0992
      vertex -4.1516 5 46.7348
      vertex -2.3097 0.956708 47.1428
    endloop
  endfacet
  facet normal -4.51921e-06 0.100379 0.994949
    outer loop
      vertex -1.76777 1.76777 47.0609
      vertex -4.1516 5 46.7348
      vertex -2.07867 1.38893 47.0992
    endloop
  endfacet
  facet normal 3.78566e-07 0.100383 0.994949
    outer loop
      vertex -1.38893 2.07867 47.0296
      vertex -4.1516 5 46.7348
      vertex -1.76777 1.76777 47.0609
    endloop
  endfacet
  facet normal -1.17787e-06 0.100381 0.994949
    outer loop
      vertex -0.956708 2.3097 47.0063
      vertex -4.1516 5 46.7348
      vertex -1.38893 2.07867 47.0296
    endloop
  endfacet
  facet normal 2.05077e-06 0.100385 0.994949
    outer loop
      vertex -0.487725 2.45196 46.9919
      vertex -4.1516 5 46.7348
      vertex -0.956708 2.3097 47.0063
    endloop
  endfacet
  facet normal -7.3957e-06 0.100379 0.994949
    outer loop
      vertex 2.45196 -0.487725 47.2885
      vertex 4.07071 -4.07071 47.65
      vertex 2.5 -1.04892e-14 47.2393
    endloop
  endfacet
  facet normal 2.00031e-06 0.100384 0.994949
    outer loop
      vertex 2.3097 -0.956708 47.3358
      vertex 4.07071 -4.07071 47.65
      vertex 2.45196 -0.487725 47.2885
    endloop
  endfacet
  facet normal -3.28619e-06 0.100381 0.994949
    outer loop
      vertex 2.07867 -1.38893 47.3794
      vertex 4.07071 -4.07071 47.65
      vertex 2.3097 -0.956708 47.3358
    endloop
  endfacet
  facet normal 1.52997e-06 0.100384 0.994949
    outer loop
      vertex 1.76777 -1.76777 47.4177
      vertex 4.07071 -4.07071 47.65
      vertex 2.07867 -1.38893 47.3794
    endloop
  endfacet
  facet normal 2.47631e-07 0.100383 0.994949
    outer loop
      vertex 1.38893 -2.07867 47.449
      vertex 4.07071 -4.07071 47.65
      vertex 1.76777 -1.76777 47.4177
    endloop
  endfacet
  facet normal -1.08846e-06 0.100381 0.994949
    outer loop
      vertex 0.956708 -2.3097 47.4723
      vertex 4.07071 -4.07071 47.65
      vertex 1.38893 -2.07867 47.449
    endloop
  endfacet
  facet normal 1.74481e-06 0.100386 0.994949
    outer loop
      vertex 0.487725 -2.45196 47.4867
      vertex 4.07071 -4.07071 47.65
      vertex 0.956708 -2.3097 47.4723
    endloop
  endfacet
  facet normal -4.20711e-06 0.100373 0.99495
    outer loop
      vertex 0.365204 -2.46403 47.4879
      vertex 4.07071 -4.07071 47.65
      vertex 0.487725 -2.45196 47.4867
    endloop
  endfacet
  facet normal -2.76623e-06 0.100376 0.99495
    outer loop
      vertex 0 -2.5 47.4915
      vertex 4.07071 -4.07071 47.65
      vertex 0.365204 -2.46403 47.4879
    endloop
  endfacet
  facet normal 2.76623e-06 0.100376 0.99495
    outer loop
      vertex -4.07071 -4.07071 47.65
      vertex 0 -2.5 47.4915
      vertex -0.365204 -2.46403 47.4879
    endloop
  endfacet
  facet normal 4.20711e-06 0.100373 0.99495
    outer loop
      vertex -4.07071 -4.07071 47.65
      vertex -0.365204 -2.46403 47.4879
      vertex -0.487725 -2.45196 47.4867
    endloop
  endfacet
  facet normal -1.74481e-06 0.100386 0.994949
    outer loop
      vertex -4.07071 -4.07071 47.65
      vertex -0.487725 -2.45196 47.4867
      vertex -0.956708 -2.3097 47.4723
    endloop
  endfacet
  facet normal 0 0.100384 0.994949
    outer loop
      vertex 0 -2.5 47.4915
      vertex -4.07071 -4.07071 47.65
      vertex 4.07071 -4.07071 47.65
    endloop
  endfacet
  facet normal 1.08846e-06 0.100381 0.994949
    outer loop
      vertex -1.38893 -2.07867 47.449
      vertex -4.07071 -4.07071 47.65
      vertex -0.956708 -2.3097 47.4723
    endloop
  endfacet
  facet normal -2.47631e-07 0.100383 0.994949
    outer loop
      vertex -1.76777 -1.76777 47.4177
      vertex -4.07071 -4.07071 47.65
      vertex -1.38893 -2.07867 47.449
    endloop
  endfacet
  facet normal -1.52997e-06 0.100384 0.994949
    outer loop
      vertex -2.07867 -1.38893 47.3794
      vertex -4.07071 -4.07071 47.65
      vertex -1.76777 -1.76777 47.4177
    endloop
  endfacet
  facet normal 3.28619e-06 0.100381 0.994949
    outer loop
      vertex -2.3097 -0.956708 47.3358
      vertex -4.07071 -4.07071 47.65
      vertex -2.07867 -1.38893 47.3794
    endloop
  endfacet
  facet normal -2.00031e-06 0.100384 0.994949
    outer loop
      vertex -2.45196 -0.487725 47.2885
      vertex -4.07071 -4.07071 47.65
      vertex -2.3097 -0.956708 47.3358
    endloop
  endfacet
  facet normal 7.3957e-06 0.100379 0.994949
    outer loop
      vertex -4.07071 -4.07071 47.65
      vertex -2.45196 -0.487725 47.2885
      vertex -2.5 -1.04892e-14 47.2393
    endloop
  endfacet
  facet normal 0.99996 0.00891733 -0
    outer loop
      vertex -4.07071 -4.07071 47.65
      vertex -4.1516 5 52.35
      vertex -4.07071 -4.07071 52.35
    endloop
  endfacet
  facet normal 0.99996 0.00891733 0
    outer loop
      vertex -4.1516 5 52.35
      vertex -4.07071 -4.07071 47.65
      vertex -4.1516 5 46.7348
    endloop
  endfacet
  facet normal 0 0 -1
    outer loop
      vertex -4.07071 -4.07071 52.35
      vertex 4.1516 5 52.35
      vertex 4.07071 -4.07071 52.35
    endloop
  endfacet
  facet normal -0 0 -1
    outer loop
      vertex 4.1516 5 52.35
      vertex -4.07071 -4.07071 52.35
      vertex -4.1516 5 52.35
    endloop
  endfacet
  facet normal 0 1 -0
    outer loop
      vertex 4.07071 -4.07071 47.65
      vertex -4.07071 -4.07071 52.35
      vertex 4.07071 -4.07071 52.35
    endloop
  endfacet
  facet normal 0 1 0
    outer loop
      vertex -4.07071 -4.07071 52.35
      vertex 4.07071 -4.07071 47.65
      vertex -4.07071 -4.07071 47.65
    endloop
  endfacet
  facet normal -0.99996 0.00891733 0
    outer loop
      vertex 4.07071 -4.07071 47.65
      vertex 4.1516 5 52.35
      vertex 4.1516 5 46.7348
    endloop
  endfacet
  facet normal -0.99996 0.00891733 0
    outer loop
      vertex 4.1516 5 52.35
      vertex 4.07071 -4.07071 47.65
      vertex 4.07071 -4.07071 52.35
    endloop
  endfacet
endsolid OpenSCAD_Model
