  0
SECTION
  2
HEADER
  9
$ACADVER
  1
AC1012
  9
$DWGCODEPAGE
  3
gb2312
  9
$INSBASE
 10
0.0
 20
0.0
 30
0.0
  9
$EXTMIN
 10
1.000000000000000E+20
 20
1.000000000000000E+20
 30
1.000000000000000E+20
  9
$EXTMAX
 10
-1.000000000000000E+20
 20
-1.000000000000000E+20
 30
-1.000000000000000E+20
  9
$LIMMIN
 10
0.0
 20
0.0
  9
$LIMMAX
 10
420.0
 20
297.0
  9
$ORTHOMODE
 70
     0
  9
$REGENMODE
 70
     1
  9
$FILLMODE
 70
     1
  9
$QTEXTMODE
 70
     0
  9
$MIRRTEXT
 70
     1
  9
$DRAGMODE
 70
     2
  9
$LTSCALE
 40
1.0
  9
$OSMODE
 70
    37
  9
$ATTMODE
 70
     1
  9
$TEXTSIZE
 40
2.5
  9
$TRACEWID
 40
1.0
  9
$TEXTSTYLE
  7
STANDARD
  9
$CLAYER
  8
0
  9
$CELTYPE
  6
BYLAYER
  9
$CECOLOR
 62
   256
  9
$CELTSCALE
 40
1.0
  9
$DELOBJ
 70
     1
  9
$DISPSILH
 70
     0
  9
$DIMSCALE
 40
1.0
  9
$DIMASZ
 40
2.5
  9
$DIMEXO
 40
0.625
  9
$DIMDLI
 40
3.75
  9
$DIMRND
 40
0.0
  9
$DIMDLE
 40
0.0
  9
$DIMEXE
 40
1.25
  9
$DIMTP
 40
0.0
  9
$DIMTM
 40
0.0
  9
$DIMTXT
 40
2.5
  9
$DIMCEN
 40
2.5
  9
$DIMTSZ
 40
0.0
  9
$DIMTOL
 70
     0
  9
$DIMLIM
 70
     0
  9
$DIMTIH
 70
     0
  9
$DIMTOH
 70
     0
  9
$DIMSE1
 70
     0
  9
$DIMSE2
 70
     0
  9
$DIMTAD
 70
     1
  9
$DIMZIN
 70
     8
  9
$DIMBLK
  1

  9
$DIMASO
 70
     1
  9
$DIMSHO
 70
     1
  9
$DIMPOST
  1

  9
$DIMAPOST
  1

  9
$DIMALT
 70
     0
  9
$DIMALTD
 70
     3
  9
$DIMALTF
 40
0.03937007874016
  9
$DIMLFAC
 40
1.0
  9
$DIMTOFL
 70
     1
  9
$DIMTVP
 40
0.0
  9
$DIMTIX
 70
     0
  9
$DIMSOXD
 70
     0
  9
$DIMSAH
 70
     0
  9
$DIMBLK1
  1

  9
$DIMBLK2
  1

  9
$DIMSTYLE
  2
ISO-25
  9
$DIMCLRD
 70
     0
  9
$DIMCLRE
 70
     0
  9
$DIMCLRT
 70
     0
  9
$DIMTFAC
 40
1.0
  9
$DIMGAP
 40
0.625
  9
$DIMJUST
 70
     0
  9
$DIMSD1
 70
     0
  9
$DIMSD2
 70
     0
  9
$DIMTOLJ
 70
     0
  9
$DIMTZIN
 70
     8
  9
$DIMALTZ
 70
     0
  9
$DIMALTTZ
 70
     0
  9
$DIMFIT
 70
     3
  9
$DIMUPT
 70
     0
  9
$DIMUNIT
 70
     2
  9
$DIMDEC
 70
     2
  9
$DIMTDEC
 70
     2
  9
$DIMALTU
 70
     2
  9
$DIMALTTD
 70
     3
  9
$DIMTXSTY
  7
STANDARD
  9
$DIMAUNIT
 70
     0
  9
$LUNITS
 70
     2
  9
$LUPREC
 70
     4
  9
$SKETCHINC
 40
1.0
  9
$FILLETRAD
 40
10.0
  9
$AUNITS
 70
     0
  9
$AUPREC
 70
     0
  9
$MENU
  1
.
  9
$ELEVATION
 40
0.0
  9
$PELEVATION
 40
0.0
  9
$THICKNESS
 40
0.0
  9
$LIMCHECK
 70
     0
  9
$BLIPMODE
 70
     0
  9
$CHAMFERA
 40
10.0
  9
$CHAMFERB
 40
10.0
  9
$CHAMFERC
 40
20.0
  9
$CHAMFERD
 40
0.0
  9
$SKPOLY
 70
     0
  9
$TDCREATE
 40
2453935.933843252
  9
$TDUPDATE
 40
2453935.934398680
  9
$TDINDWG
 40
0.0005563542
  9
$TDUSRTIMER
 40
0.0005562384
  9
$USRTIMER
 70
     1
  9
$ANGBASE
 50
0.0
  9
$ANGDIR
 70
     0
  9
$PDMODE
 70
     0
  9
$PDSIZE
 40
0.0
  9
$PLINEWID
 40
0.0
  9
$COORDS
 70
     1
  9
$SPLFRAME
 70
     0
  9
$SPLINETYPE
 70
     6
  9
$SPLINESEGS
 70
     8
  9
$ATTDIA
 70
     0
  9
$ATTREQ
 70
     1
  9
$HANDLING
 70
 22529
  9
$HANDSEED
  5
4A
  9
$SURFTAB1
 70
     6
  9
$SURFTAB2
 70
     6
  9
$SURFTYPE
 70
     6
  9
$SURFU
 70
     6
  9
$SURFV
 70
     6
  9
$UCSNAME
  2

  9
$UCSORG
 10
0.0
 20
0.0
 30
0.0
  9
$UCSXDIR
 10
1.0
 20
0.0
 30
0.0
  9
$UCSYDIR
 10
0.0
 20
1.0
 30
0.0
  9
$PUCSNAME
  2

  9
$PUCSORG
 10
0.0
 20
0.0
 30
0.0
  9
$PUCSXDIR
 10
1.0
 20
0.0
 30
0.0
  9
$PUCSYDIR
 10
0.0
 20
1.0
 30
0.0
  9
$USERI1
 70
     0
  9
$USERI2
 70
     0
  9
$USERI3
 70
     0
  9
$USERI4
 70
     0
  9
$USERI5
 70
     0
  9
$USERR1
 40
0.0
  9
$USERR2
 40
0.0
  9
$USERR3
 40
0.0
  9
$USERR4
 40
0.0
  9
$USERR5
 40
0.0
  9
$WORLDVIEW
 70
     1
  9
$SHADEDGE
 70
     3
  9
$SHADEDIF
 70
    70
  9
$TILEMODE
 70
     1
  9
$MAXACTVP
 70
    64
  9
$PINSBASE
 10
0.0
 20
0.0
 30
0.0
  9
$PLIMCHECK
 70
     0
  9
$PEXTMIN
 10
1.000000000000000E+20
 20
1.000000000000000E+20
 30
1.000000000000000E+20
  9
$PEXTMAX
 10
-1.000000000000000E+20
 20
-1.000000000000000E+20
 30
-1.000000000000000E+20
  9
$PLIMMIN
 10
0.0
 20
0.0
  9
$PLIMMAX
 10
420.0
 20
297.0
  9
$UNITMODE
 70
     0
  9
$VISRETAIN
 70
     1
  9
$PLINEGEN
 70
     0
  9
$PSLTSCALE
 70
     1
  9
$TREEDEPTH
 70
  3020
  9
$PICKSTYLE
 70
     1
  9
$CMLSTYLE
  2
STANDARD
  9
$CMLJUST
 70
     0
  9
$CMLSCALE
 40
20.0
  9
$SAVEIMAGES
 70
     1
  0
ENDSEC
  0
SECTION
  2
CLASSES
  0
CLASS
  1
ACDBDICTIONARYWDFLT
  2
AcDbDictionaryWithDefault
  3
AutoCAD 2000
 90
    32768
280
     0
281
     0
  0
CLASS
  1
ACDBPLACEHOLDER
  2
AcDbPlaceHolder
  3
AutoCAD 2000
 90
    32768
280
     0
281
     0
  0
CLASS
  1
LAYOUT
  2
AcDbLayout
  3
AutoCAD 2000
 90
    32768
280
     0
281
     0
  0
CLASS
  1
DICTIONARYVAR
  2
AcDbDictionaryVar
  3
AutoCAD 2000
 90
    32768
280
     0
281
     0
  0
CLASS
  1
LONG_TRANSACTION
  2
AcDbLongTransaction
  3
AutoCAD 2000
 90
    32768
280
     0
281
     0
  0
CLASS
  1
LWPOLYLINE
  2
AcDbPolyline
  3
AutoCAD 2000
 90
    32768
280
     0
281
     1
  0
CLASS
  1
HATCH
  2
AcDbHatch
  3
AutoCAD 2000
 90
    32768
280
     0
281
     1
  0
CLASS
  1
XRECORD
  2
AcDbXrecord
  3
AutoCAD 2000
 90
    32768
280
     0
281
     0
  0
ENDSEC
  0
SECTION
  2
TABLES
  0
TABLE
  2
VPORT
  5
8
330
0
100
AcDbSymbolTable
 70
     2
  0
VPORT
  5
43
330
8
100
AcDbSymbolTableRecord
100
AcDbViewportTableRecord
  2
*ACTIVE
 70
     0
 10
0.0
 20
0.0
 11
1.0
 21
1.0
 12
505.3812210517317
 22
257.5500453436709
 13
0.0
 23
0.0
 14
10.0
 24
10.0
 15
10.0
 25
10.0
 16
0.0
 26
0.0
 36
1.0
 17
0.0
 27
0.0
 37
0.0
 40
515.1000906873419
 41
1.962264150943396
 42
50.0
 43
0.0
 44
0.0
 50
0.0
 51
0.0
 71
     0
 72
   100
 73
     1
 74
     3
 75
     0
 76
     0
 77
     0
 78
     0
  0
ENDTAB
  0
TABLE
  2
LTYPE
  5
5
330
0
100
AcDbSymbolTable
 70
     1
  0
LTYPE
  5
14
330
5
100
AcDbSymbolTableRecord
100
AcDbLinetypeTableRecord
  2
BYBLOCK
 70
     0
  3

 72
    65
 73
     0
 40
0.0
  0
LTYPE
  5
15
330
5
100
AcDbSymbolTableRecord
100
AcDbLinetypeTableRecord
  2
BYLAYER
 70
     0
  3

 72
    65
 73
     0
 40
0.0
  0
LTYPE
  5
16
330
5
100
AcDbSymbolTableRecord
100
AcDbLinetypeTableRecord
  2
CONTINUOUS
 70
     0
  3
Solid line
 72
    65
 73
     0
 40
0.0
  0
ENDTAB
  0
TABLE
  2
LAYER
  5
2
330
0
100
AcDbSymbolTable
 70
     1
  0
LAYER
  5
10
330
2
100
AcDbSymbolTableRecord
100
AcDbLayerTableRecord
  2
0
 70
     0
 62
     7
  6
CONTINUOUS
  0
ENDTAB
  0
TABLE
  2
STYLE
  5
3
330
0
100
AcDbSymbolTable
 70
     1
  0
STYLE
  5
11
330
3
100
AcDbSymbolTableRecord
100
AcDbTextStyleTableRecord
  2
STANDARD
 70
     0
 40
0.0
 41
1.0
 50
0.0
 71
     0
 42
2.5
  3
txt
  4

  0
ENDTAB
  0
TABLE
  2
VIEW
  5
6
330
0
100
AcDbSymbolTable
 70
     0
  0
ENDTAB
  0
TABLE
  2
UCS
  5
7
330
0
100
AcDbSymbolTable
 70
     0
  0
ENDTAB
  0
TABLE
  2
APPID
  5
9
330
0
100
AcDbSymbolTable
 70
     1
  0
APPID
  5
12
330
9
100
AcDbSymbolTableRecord
100
AcDbRegAppTableRecord
  2
ACAD
 70
     0
  0
ENDTAB
  0
TABLE
  2
DIMSTYLE
  5
A
330
0
100
AcDbSymbolTable
 70
     1
  0
DIMSTYLE
105
27
330
A
100
AcDbSymbolTableRecord
100
AcDbDimStyleTableRecord
  2
ISO-25
 70
     0
  3

  4

  5

  6

  7

 40
1.0
 41
2.5
 42
0.625
 43
3.75
 44
1.25
 45
0.0
 46
0.0
 47
0.0
 48
0.0
140
2.5
141
2.5
142
0.0
143
0.03937007874016
144
1.0
145
0.0
146
1.0
147
0.625
 71
     0
 72
     0
 73
     0
 74
     0
 75
     0
 76
     0
 77
     1
 78
     8
170
     0
171
     3
172
     1
173
     0
174
     0
175
     0
176
     0
177
     0
178
     0
270
     2
271
     2
272
     2
273
     2
274
     3
340
11
275
     0
280
     0
281
     0
282
     0
283
     0
284
     8
285
     0
286
     0
287
     3
288
     0
  0
ENDTAB
  0
TABLE
  2
BLOCK_RECORD
  5
1
330
0
100
AcDbSymbolTable
 70
     1
  0
BLOCK_RECORD
  5
1F
102
{ACAD_XDICTIONARY
360
46
102
}
330
1
100
AcDbSymbolTableRecord
100
AcDbBlockTableRecord
  2
*MODEL_SPACE
  0
BLOCK_RECORD
  5
1B
102
{ACAD_XDICTIONARY
360
44
102
}
330
1
100
AcDbSymbolTableRecord
100
AcDbBlockTableRecord
  2
*PAPER_SPACE
  0
ENDTAB
  0
ENDSEC
  0
SECTION
  2
BLOCKS
  0
BLOCK
  5
20
330
1F
100
AcDbEntity
  8
0
100
AcDbBlockBegin
  2
*MODEL_SPACE
 70
     0
 10
0.0
 20
0.0
 30
0.0
  3
*MODEL_SPACE
  1

  0
ENDBLK
  5
21
330
1F
100
AcDbEntity
  8
0
100
AcDbBlockEnd
  0
BLOCK
  5
1C
330
1B
100
AcDbEntity
 67
     1
  8
0
100
AcDbBlockBegin
  2
*PAPER_SPACE
 70
     0
 10
0.0
 20
0.0
 30
0.0
  3
*PAPER_SPACE
  1

  0
ENDBLK
  5
1D
330
1B
100
AcDbEntity
 67
     1
  8
0
100
AcDbBlockEnd
  0
ENDSEC
  0
SECTION
  2
ENTITIES
  0
LINE
  5
100
330
1F
100
AcDbEntity
  8
0
  62
0
100
AcDbLine
 10
416.275000
 20
153.531000
 30
0.000000
 11
405.730800
 21
164.075000
 31
0.000000
  0
LINE
  5
101
330
1F
100
AcDbEntity
  8
0
  62
0
100
AcDbLine
 10
405.730800
 20
164.075000
 30
0.000000
 11
400.275000
 21
164.075000
 31
0.000000
  0
LINE
  5
102
330
1F
100
AcDbEntity
  8
0
  62
0
100
AcDbLine
 10
400.275000
 20
164.075000
 30
0.000000
 11
400.275000
 21
166.575000
 31
0.000000
  0
LINE
  5
103
330
1F
100
AcDbEntity
  8
0
  62
0
100
AcDbLine
 10
400.275000
 20
166.575000
 30
0.000000
 11
405.730800
 21
166.575000
 31
0.000000
  0
LINE
  5
104
330
1F
100
AcDbEntity
  8
0
  62
0
100
AcDbLine
 10
405.730800
 20
166.575000
 30
0.000000
 11
416.275000
 21
177.119000
 31
0.000000
  0
LINE
  5
105
330
1F
100
AcDbEntity
  8
0
  62
0
100
AcDbLine
 10
416.275000
 20
177.119000
 30
0.000000
 11
416.275000
 21
192.030800
 31
0.000000
  0
LINE
  5
106
330
1F
100
AcDbEntity
  8
0
  62
0
100
AcDbLine
 10
416.275000
 20
192.030800
 30
0.000000
 11
405.730800
 21
202.575000
 31
0.000000
  0
LINE
  5
107
330
1F
100
AcDbEntity
  8
0
  62
0
100
AcDbLine
 10
405.730800
 20
202.575000
 30
0.000000
 11
400.275000
 21
202.575000
 31
0.000000
  0
LINE
  5
108
330
1F
100
AcDbEntity
  8
0
  62
0
100
AcDbLine
 10
400.275000
 20
202.575000
 30
0.000000
 11
400.275000
 21
251.075000
 31
0.000000
  0
LINE
  5
109
330
1F
100
AcDbEntity
  8
0
  62
0
100
AcDbLine
 10
400.275000
 20
251.075000
 30
0.000000
 11
405.730800
 21
251.075000
 31
0.000000
  0
LINE
  5
110
330
1F
100
AcDbEntity
  8
0
  62
0
100
AcDbLine
 10
405.730800
 20
251.075000
 30
0.000000
 11
416.275000
 21
261.619200
 31
0.000000
  0
LINE
  5
111
330
1F
100
AcDbEntity
  8
0
  62
0
100
AcDbLine
 10
416.275000
 20
261.619200
 30
0.000000
 11
416.275000
 21
303.530800
 31
0.000000
  0
LINE
  5
112
330
1F
100
AcDbEntity
  8
0
  62
0
100
AcDbLine
 10
416.275000
 20
303.530800
 30
0.000000
 11
405.730800
 21
314.075000
 31
0.000000
  0
LINE
  5
113
330
1F
100
AcDbEntity
  8
0
  62
0
100
AcDbLine
 10
405.730800
 20
314.075000
 30
0.000000
 11
400.275000
 21
314.075000
 31
0.000000
  0
LINE
  5
114
330
1F
100
AcDbEntity
  8
0
  62
0
100
AcDbLine
 10
400.275000
 20
314.075000
 30
0.000000
 11
400.275000
 21
362.575000
 31
0.000000
  0
LINE
  5
115
330
1F
100
AcDbEntity
  8
0
  62
0
100
AcDbLine
 10
400.275000
 20
362.575000
 30
0.000000
 11
405.730800
 21
362.575000
 31
0.000000
  0
LINE
  5
116
330
1F
100
AcDbEntity
  8
0
  62
0
100
AcDbLine
 10
405.730800
 20
362.575000
 30
0.000000
 11
416.275000
 21
373.119200
 31
0.000000
  0
LINE
  5
117
330
1F
100
AcDbEntity
  8
0
  62
0
100
AcDbLine
 10
416.275000
 20
373.119200
 30
0.000000
 11
416.275000
 21
388.031000
 31
0.000000
  0
LINE
  5
118
330
1F
100
AcDbEntity
  8
0
  62
0
100
AcDbLine
 10
416.275000
 20
388.031000
 30
0.000000
 11
405.730800
 21
398.575000
 31
0.000000
  0
LINE
  5
119
330
1F
100
AcDbEntity
  8
0
  62
0
100
AcDbLine
 10
405.730800
 20
398.575000
 30
0.000000
 11
400.275000
 21
398.575000
 31
0.000000
  0
LINE
  5
120
330
1F
100
AcDbEntity
  8
0
  62
0
100
AcDbLine
 10
400.275000
 20
398.575000
 30
0.000000
 11
400.275000
 21
401.075000
 31
0.000000
  0
LINE
  5
121
330
1F
100
AcDbEntity
  8
0
  62
0
100
AcDbLine
 10
400.275000
 20
401.075000
 30
0.000000
 11
405.730800
 21
401.075000
 31
0.000000
  0
LINE
  5
122
330
1F
100
AcDbEntity
  8
0
  62
0
100
AcDbLine
 10
405.730800
 20
401.075000
 30
0.000000
 11
416.275000
 21
411.619000
 31
0.000000
  0
LINE
  5
123
330
1F
100
AcDbEntity
  8
0
  62
0
100
AcDbLine
 10
416.275000
 20
411.619000
 30
0.000000
 11
416.275000
 21
453.531000
 31
0.000000
  0
LINE
  5
124
330
1F
100
AcDbEntity
  8
0
  62
0
100
AcDbLine
 10
416.275000
 20
453.531000
 30
0.000000
 11
405.730800
 21
464.075000
 31
0.000000
  0
LINE
  5
125
330
1F
100
AcDbEntity
  8
0
  62
0
100
AcDbLine
 10
405.730800
 20
464.075000
 30
0.000000
 11
400.275000
 21
464.075000
 31
0.000000
  0
LINE
  5
126
330
1F
100
AcDbEntity
  8
0
  62
0
100
AcDbLine
 10
400.275000
 20
464.075000
 30
0.000000
 11
400.275000
 21
527.575000
 31
0.000000
  0
LINE
  5
127
330
1F
100
AcDbEntity
  8
0
  62
0
100
AcDbLine
 10
400.275000
 20
527.575000
 30
0.000000
 11
340.275000
 21
527.575000
 31
0.000000
  0
LINE
  5
128
330
1F
100
AcDbEntity
  8
0
  62
0
100
AcDbLine
 10
340.275000
 20
527.575000
 30
0.000000
 11
340.275000
 21
37.575000
 31
0.000000
  0
LINE
  5
129
330
1F
100
AcDbEntity
  8
0
  62
0
100
AcDbLine
 10
340.275000
 20
37.575000
 30
0.000000
 11
400.275000
 21
37.575000
 31
0.000000
  0
LINE
  5
130
330
1F
100
AcDbEntity
  8
0
  62
0
100
AcDbLine
 10
400.275000
 20
37.575000
 30
0.000000
 11
400.275000
 21
101.075000
 31
0.000000
  0
LINE
  5
131
330
1F
100
AcDbEntity
  8
0
  62
0
100
AcDbLine
 10
400.275000
 20
101.075000
 30
0.000000
 11
405.730800
 21
101.075000
 31
0.000000
  0
LINE
  5
132
330
1F
100
AcDbEntity
  8
0
  62
0
100
AcDbLine
 10
405.730800
 20
101.075000
 30
0.000000
 11
416.275000
 21
111.619000
 31
0.000000
  0
LINE
  5
133
330
1F
100
AcDbEntity
  8
0
  62
0
100
AcDbLine
 10
416.275000
 20
111.619000
 30
0.000000
 11
416.275000
 21
153.531000
 31
0.000000
  0
LINE
  5
134
330
1F
100
AcDbEntity
  8
0
  62
0
100
AcDbLine
 10
353.225000
 20
160.025000
 30
0.000000
 11
353.225000
 21
145.125000
 31
0.000000
  0
LINE
  5
135
330
1F
100
AcDbEntity
  8
0
  62
0
100
AcDbLine
 10
353.225000
 20
145.125000
 30
0.000000
 11
346.825000
 21
145.125000
 31
0.000000
  0
LINE
  5
136
330
1F
100
AcDbEntity
  8
0
  62
0
100
AcDbLine
 10
346.825000
 20
145.125000
 30
0.000000
 11
346.825000
 21
160.025000
 31
0.000000
  0
LINE
  5
137
330
1F
100
AcDbEntity
  8
0
  62
0
100
AcDbLine
 10
346.825000
 20
160.025000
 30
0.000000
 11
353.225000
 21
160.025000
 31
0.000000
  0
LINE
  5
138
330
1F
100
AcDbEntity
  8
0
  62
0
100
AcDbLine
 10
353.225000
 20
450.025000
 30
0.000000
 11
353.225000
 21
435.125000
 31
0.000000
  0
LINE
  5
139
330
1F
100
AcDbEntity
  8
0
  62
0
100
AcDbLine
 10
353.225000
 20
435.125000
 30
0.000000
 11
346.825000
 21
435.125000
 31
0.000000
  0
LINE
  5
140
330
1F
100
AcDbEntity
  8
0
  62
0
100
AcDbLine
 10
346.825000
 20
435.125000
 30
0.000000
 11
346.825000
 21
450.025000
 31
0.000000
  0
LINE
  5
141
330
1F
100
AcDbEntity
  8
0
  62
0
100
AcDbLine
 10
346.825000
 20
450.025000
 30
0.000000
 11
353.225000
 21
450.025000
 31
0.000000
  0
LINE
  5
142
330
1F
100
AcDbEntity
  8
0
  62
0
100
AcDbLine
 10
353.225000
 20
130.025000
 30
0.000000
 11
353.225000
 21
115.125000
 31
0.000000
  0
LINE
  5
143
330
1F
100
AcDbEntity
  8
0
  62
0
100
AcDbLine
 10
353.225000
 20
115.125000
 30
0.000000
 11
346.825000
 21
115.125000
 31
0.000000
  0
LINE
  5
144
330
1F
100
AcDbEntity
  8
0
  62
0
100
AcDbLine
 10
346.825000
 20
115.125000
 30
0.000000
 11
346.825000
 21
130.025000
 31
0.000000
  0
LINE
  5
145
330
1F
100
AcDbEntity
  8
0
  62
0
100
AcDbLine
 10
346.825000
 20
130.025000
 30
0.000000
 11
353.225000
 21
130.025000
 31
0.000000
  0
LINE
  5
146
330
1F
100
AcDbEntity
  8
0
  62
0
100
AcDbLine
 10
353.225000
 20
420.025000
 30
0.000000
 11
353.225000
 21
405.125000
 31
0.000000
  0
LINE
  5
147
330
1F
100
AcDbEntity
  8
0
  62
0
100
AcDbLine
 10
353.225000
 20
405.125000
 30
0.000000
 11
346.825000
 21
405.125000
 31
0.000000
  0
LINE
  5
148
330
1F
100
AcDbEntity
  8
0
  62
0
100
AcDbLine
 10
346.825000
 20
405.125000
 30
0.000000
 11
346.825000
 21
420.025000
 31
0.000000
  0
LINE
  5
149
330
1F
100
AcDbEntity
  8
0
  62
0
100
AcDbLine
 10
346.825000
 20
420.025000
 30
0.000000
 11
353.225000
 21
420.025000
 31
0.000000
  0
LINE
  5
150
330
1F
100
AcDbEntity
  8
0
  62
0
100
AcDbLine
 10
352.635030
 20
137.451000
 30
0.000000
 11
352.564340
 21
136.959000
 31
0.000000
  0
LINE
  5
151
330
1F
100
AcDbEntity
  8
0
  62
0
100
AcDbLine
 10
352.564340
 20
136.959000
 30
0.000000
 11
352.401860
 21
136.490000
 31
0.000000
  0
LINE
  5
152
330
1F
100
AcDbEntity
  8
0
  62
0
100
AcDbLine
 10
352.401860
 20
136.490000
 30
0.000000
 11
352.153480
 21
136.059000
 31
0.000000
  0
LINE
  5
153
330
1F
100
AcDbEntity
  8
0
  62
0
100
AcDbLine
 10
352.153480
 20
136.059000
 30
0.000000
 11
351.828160
 21
135.684000
 31
0.000000
  0
LINE
  5
154
330
1F
100
AcDbEntity
  8
0
  62
0
100
AcDbLine
 10
351.828160
 20
135.684000
 30
0.000000
 11
351.437690
 21
135.377000
 31
0.000000
  0
LINE
  5
155
330
1F
100
AcDbEntity
  8
0
  62
0
100
AcDbLine
 10
351.437690
 20
135.377000
 30
0.000000
 11
350.996146
 21
135.149000
 31
0.000000
  0
LINE
  5
156
330
1F
100
AcDbEntity
  8
0
  62
0
100
AcDbLine
 10
350.996146
 20
135.149000
 30
0.000000
 11
350.519507
 21
135.009000
 31
0.000000
  0
LINE
  5
157
330
1F
100
AcDbEntity
  8
0
  62
0
100
AcDbLine
 10
350.519507
 20
135.009000
 30
0.000000
 11
350.025000
 21
134.962000
 31
0.000000
  0
LINE
  5
158
330
1F
100
AcDbEntity
  8
0
  62
0
100
AcDbLine
 10
350.025000
 20
134.962000
 30
0.000000
 11
349.530493
 21
135.009000
 31
0.000000
  0
LINE
  5
159
330
1F
100
AcDbEntity
  8
0
  62
0
100
AcDbLine
 10
349.530493
 20
135.009000
 30
0.000000
 11
349.053854
 21
135.149000
 31
0.000000
  0
LINE
  5
160
330
1F
100
AcDbEntity
  8
0
  62
0
100
AcDbLine
 10
349.053854
 20
135.149000
 30
0.000000
 11
348.612310
 21
135.377000
 31
0.000000
  0
LINE
  5
161
330
1F
100
AcDbEntity
  8
0
  62
0
100
AcDbLine
 10
348.612310
 20
135.377000
 30
0.000000
 11
348.221840
 21
135.684000
 31
0.000000
  0
LINE
  5
162
330
1F
100
AcDbEntity
  8
0
  62
0
100
AcDbLine
 10
348.221840
 20
135.684000
 30
0.000000
 11
347.896520
 21
136.059000
 31
0.000000
  0
LINE
  5
163
330
1F
100
AcDbEntity
  8
0
  62
0
100
AcDbLine
 10
347.896520
 20
136.059000
 30
0.000000
 11
347.648140
 21
136.490000
 31
0.000000
  0
LINE
  5
164
330
1F
100
AcDbEntity
  8
0
  62
0
100
AcDbLine
 10
347.648140
 20
136.490000
 30
0.000000
 11
347.485660
 21
136.959000
 31
0.000000
  0
LINE
  5
165
330
1F
100
AcDbEntity
  8
0
  62
0
100
AcDbLine
 10
347.485660
 20
136.959000
 30
0.000000
 11
347.414970
 21
137.451000
 31
0.000000
  0
LINE
  5
166
330
1F
100
AcDbEntity
  8
0
  62
0
100
AcDbLine
 10
347.414970
 20
137.451000
 30
0.000000
 11
347.438600
 21
137.947000
 31
0.000000
  0
LINE
  5
167
330
1F
100
AcDbEntity
  8
0
  62
0
100
AcDbLine
 10
347.438600
 20
137.947000
 30
0.000000
 11
347.555720
 21
138.430000
 31
0.000000
  0
LINE
  5
168
330
1F
100
AcDbEntity
  8
0
  62
0
100
AcDbLine
 10
347.555720
 20
138.430000
 30
0.000000
 11
347.762080
 21
138.882000
 31
0.000000
  0
LINE
  5
169
330
1F
100
AcDbEntity
  8
0
  62
0
100
AcDbLine
 10
347.762080
 20
138.882000
 30
0.000000
 11
348.050240
 21
139.286000
 31
0.000000
  0
LINE
  5
170
330
1F
100
AcDbEntity
  8
0
  62
0
100
AcDbLine
 10
348.050240
 20
139.286000
 30
0.000000
 11
348.409770
 21
139.629000
 31
0.000000
  0
LINE
  5
171
330
1F
100
AcDbEntity
  8
0
  62
0
100
AcDbLine
 10
348.409770
 20
139.629000
 30
0.000000
 11
348.827660
 21
139.898000
 31
0.000000
  0
LINE
  5
172
330
1F
100
AcDbEntity
  8
0
  62
0
100
AcDbLine
 10
348.827660
 20
139.898000
 30
0.000000
 11
349.288840
 21
140.082000
 31
0.000000
  0
LINE
  5
173
330
1F
100
AcDbEntity
  8
0
  62
0
100
AcDbLine
 10
349.288840
 20
140.082000
 30
0.000000
 11
349.776633
 21
140.176000
 31
0.000000
  0
LINE
  5
174
330
1F
100
AcDbEntity
  8
0
  62
0
100
AcDbLine
 10
349.776633
 20
140.176000
 30
0.000000
 11
350.273367
 21
140.176000
 31
0.000000
  0
LINE
  5
175
330
1F
100
AcDbEntity
  8
0
  62
0
100
AcDbLine
 10
350.273367
 20
140.176000
 30
0.000000
 11
350.761160
 21
140.082000
 31
0.000000
  0
LINE
  5
176
330
1F
100
AcDbEntity
  8
0
  62
0
100
AcDbLine
 10
350.761160
 20
140.082000
 30
0.000000
 11
351.222340
 21
139.898000
 31
0.000000
  0
LINE
  5
177
330
1F
100
AcDbEntity
  8
0
  62
0
100
AcDbLine
 10
351.222340
 20
139.898000
 30
0.000000
 11
351.640230
 21
139.629000
 31
0.000000
  0
LINE
  5
178
330
1F
100
AcDbEntity
  8
0
  62
0
100
AcDbLine
 10
351.640230
 20
139.629000
 30
0.000000
 11
351.999760
 21
139.286000
 31
0.000000
  0
LINE
  5
179
330
1F
100
AcDbEntity
  8
0
  62
0
100
AcDbLine
 10
351.999760
 20
139.286000
 30
0.000000
 11
352.287920
 21
138.882000
 31
0.000000
  0
LINE
  5
180
330
1F
100
AcDbEntity
  8
0
  62
0
100
AcDbLine
 10
352.287920
 20
138.882000
 30
0.000000
 11
352.494280
 21
138.430000
 31
0.000000
  0
LINE
  5
181
330
1F
100
AcDbEntity
  8
0
  62
0
100
AcDbLine
 10
352.494280
 20
138.430000
 30
0.000000
 11
352.611400
 21
137.947000
 31
0.000000
  0
LINE
  5
182
330
1F
100
AcDbEntity
  8
0
  62
0
100
AcDbLine
 10
352.611400
 20
137.947000
 30
0.000000
 11
352.635030
 21
137.451000
 31
0.000000
  0
LINE
  5
183
330
1F
100
AcDbEntity
  8
0
  62
0
100
AcDbLine
 10
352.635030
 20
427.699000
 30
0.000000
 11
352.611400
 21
427.203000
 31
0.000000
  0
LINE
  5
184
330
1F
100
AcDbEntity
  8
0
  62
0
100
AcDbLine
 10
352.611400
 20
427.203000
 30
0.000000
 11
352.494280
 21
426.720000
 31
0.000000
  0
LINE
  5
185
330
1F
100
AcDbEntity
  8
0
  62
0
100
AcDbLine
 10
352.494280
 20
426.720000
 30
0.000000
 11
352.287920
 21
426.268000
 31
0.000000
  0
LINE
  5
186
330
1F
100
AcDbEntity
  8
0
  62
0
100
AcDbLine
 10
352.287920
 20
426.268000
 30
0.000000
 11
351.999760
 21
425.864000
 31
0.000000
  0
LINE
  5
187
330
1F
100
AcDbEntity
  8
0
  62
0
100
AcDbLine
 10
351.999760
 20
425.864000
 30
0.000000
 11
351.640230
 21
425.521000
 31
0.000000
  0
LINE
  5
188
330
1F
100
AcDbEntity
  8
0
  62
0
100
AcDbLine
 10
351.640230
 20
425.521000
 30
0.000000
 11
351.222340
 21
425.252000
 31
0.000000
  0
LINE
  5
189
330
1F
100
AcDbEntity
  8
0
  62
0
100
AcDbLine
 10
351.222340
 20
425.252000
 30
0.000000
 11
350.761160
 21
425.068000
 31
0.000000
  0
LINE
  5
190
330
1F
100
AcDbEntity
  8
0
  62
0
100
AcDbLine
 10
350.761160
 20
425.068000
 30
0.000000
 11
350.273367
 21
424.974000
 31
0.000000
  0
LINE
  5
191
330
1F
100
AcDbEntity
  8
0
  62
0
100
AcDbLine
 10
350.273367
 20
424.974000
 30
0.000000
 11
349.776633
 21
424.974000
 31
0.000000
  0
LINE
  5
192
330
1F
100
AcDbEntity
  8
0
  62
0
100
AcDbLine
 10
349.776633
 20
424.974000
 30
0.000000
 11
349.288840
 21
425.068000
 31
0.000000
  0
LINE
  5
193
330
1F
100
AcDbEntity
  8
0
  62
0
100
AcDbLine
 10
349.288840
 20
425.068000
 30
0.000000
 11
348.827660
 21
425.252000
 31
0.000000
  0
LINE
  5
194
330
1F
100
AcDbEntity
  8
0
  62
0
100
AcDbLine
 10
348.827660
 20
425.252000
 30
0.000000
 11
348.409770
 21
425.521000
 31
0.000000
  0
LINE
  5
195
330
1F
100
AcDbEntity
  8
0
  62
0
100
AcDbLine
 10
348.409770
 20
425.521000
 30
0.000000
 11
348.050240
 21
425.864000
 31
0.000000
  0
LINE
  5
196
330
1F
100
AcDbEntity
  8
0
  62
0
100
AcDbLine
 10
348.050240
 20
425.864000
 30
0.000000
 11
347.762080
 21
426.268000
 31
0.000000
  0
LINE
  5
197
330
1F
100
AcDbEntity
  8
0
  62
0
100
AcDbLine
 10
347.762080
 20
426.268000
 30
0.000000
 11
347.555720
 21
426.720000
 31
0.000000
  0
LINE
  5
198
330
1F
100
AcDbEntity
  8
0
  62
0
100
AcDbLine
 10
347.555720
 20
426.720000
 30
0.000000
 11
347.438600
 21
427.203000
 31
0.000000
  0
LINE
  5
199
330
1F
100
AcDbEntity
  8
0
  62
0
100
AcDbLine
 10
347.438600
 20
427.203000
 30
0.000000
 11
347.414970
 21
427.699000
 31
0.000000
  0
LINE
  5
200
330
1F
100
AcDbEntity
  8
0
  62
0
100
AcDbLine
 10
347.414970
 20
427.699000
 30
0.000000
 11
347.485660
 21
428.191000
 31
0.000000
  0
LINE
  5
201
330
1F
100
AcDbEntity
  8
0
  62
0
100
AcDbLine
 10
347.485660
 20
428.191000
 30
0.000000
 11
347.648140
 21
428.660000
 31
0.000000
  0
LINE
  5
202
330
1F
100
AcDbEntity
  8
0
  62
0
100
AcDbLine
 10
347.648140
 20
428.660000
 30
0.000000
 11
347.896520
 21
429.091000
 31
0.000000
  0
LINE
  5
203
330
1F
100
AcDbEntity
  8
0
  62
0
100
AcDbLine
 10
347.896520
 20
429.091000
 30
0.000000
 11
348.221840
 21
429.466000
 31
0.000000
  0
LINE
  5
204
330
1F
100
AcDbEntity
  8
0
  62
0
100
AcDbLine
 10
348.221840
 20
429.466000
 30
0.000000
 11
348.612310
 21
429.773000
 31
0.000000
  0
LINE
  5
205
330
1F
100
AcDbEntity
  8
0
  62
0
100
AcDbLine
 10
348.612310
 20
429.773000
 30
0.000000
 11
349.053854
 21
430.001000
 31
0.000000
  0
LINE
  5
206
330
1F
100
AcDbEntity
  8
0
  62
0
100
AcDbLine
 10
349.053854
 20
430.001000
 30
0.000000
 11
349.530493
 21
430.141000
 31
0.000000
  0
LINE
  5
207
330
1F
100
AcDbEntity
  8
0
  62
0
100
AcDbLine
 10
349.530493
 20
430.141000
 30
0.000000
 11
350.025000
 21
430.188000
 31
0.000000
  0
LINE
  5
208
330
1F
100
AcDbEntity
  8
0
  62
0
100
AcDbLine
 10
350.025000
 20
430.188000
 30
0.000000
 11
350.519507
 21
430.141000
 31
0.000000
  0
LINE
  5
209
330
1F
100
AcDbEntity
  8
0
  62
0
100
AcDbLine
 10
350.519507
 20
430.141000
 30
0.000000
 11
350.996146
 21
430.001000
 31
0.000000
  0
LINE
  5
210
330
1F
100
AcDbEntity
  8
0
  62
0
100
AcDbLine
 10
350.996146
 20
430.001000
 30
0.000000
 11
351.437690
 21
429.773000
 31
0.000000
  0
LINE
  5
211
330
1F
100
AcDbEntity
  8
0
  62
0
100
AcDbLine
 10
351.437690
 20
429.773000
 30
0.000000
 11
351.828160
 21
429.466000
 31
0.000000
  0
LINE
  5
212
330
1F
100
AcDbEntity
  8
0
  62
0
100
AcDbLine
 10
351.828160
 20
429.466000
 30
0.000000
 11
352.153480
 21
429.091000
 31
0.000000
  0
LINE
  5
213
330
1F
100
AcDbEntity
  8
0
  62
0
100
AcDbLine
 10
352.153480
 20
429.091000
 30
0.000000
 11
352.401860
 21
428.660000
 31
0.000000
  0
LINE
  5
214
330
1F
100
AcDbEntity
  8
0
  62
0
100
AcDbLine
 10
352.401860
 20
428.660000
 30
0.000000
 11
352.564340
 21
428.191000
 31
0.000000
  0
LINE
  5
215
330
1F
100
AcDbEntity
  8
0
  62
0
100
AcDbLine
 10
352.564340
 20
428.191000
 30
0.000000
 11
352.635030
 21
427.699000
 31
0.000000
  0
LINE
  5
216
330
1F
100
AcDbEntity
  8
0
  62
0
100
AcDbLine
 10
362.475000
 20
517.575000
 30
0.000000
 11
362.429000
 21
517.079000
 31
0.000000
  0
LINE
  5
217
330
1F
100
AcDbEntity
  8
0
  62
0
100
AcDbLine
 10
362.429000
 20
517.079000
 30
0.000000
 11
362.292700
 21
516.600000
 31
0.000000
  0
LINE
  5
218
330
1F
100
AcDbEntity
  8
0
  62
0
100
AcDbLine
 10
362.292700
 20
516.600000
 30
0.000000
 11
362.070600
 21
516.154000
 31
0.000000
  0
LINE
  5
219
330
1F
100
AcDbEntity
  8
0
  62
0
100
AcDbLine
 10
362.070600
 20
516.154000
 30
0.000000
 11
361.770300
 21
515.756000
 31
0.000000
  0
LINE
  5
220
330
1F
100
AcDbEntity
  8
0
  62
0
100
AcDbLine
 10
361.770300
 20
515.756000
 30
0.000000
 11
361.402100
 21
515.420000
 31
0.000000
  0
LINE
  5
221
330
1F
100
AcDbEntity
  8
0
  62
0
100
AcDbLine
 10
361.402100
 20
515.420000
 30
0.000000
 11
360.978500
 21
515.158000
 31
0.000000
  0
LINE
  5
222
330
1F
100
AcDbEntity
  8
0
  62
0
100
AcDbLine
 10
360.978500
 20
515.158000
 30
0.000000
 11
360.513900
 21
514.978000
 31
0.000000
  0
LINE
  5
223
330
1F
100
AcDbEntity
  8
0
  62
0
100
AcDbLine
 10
360.513900
 20
514.978000
 30
0.000000
 11
360.024110
 21
514.887000
 31
0.000000
  0
LINE
  5
224
330
1F
100
AcDbEntity
  8
0
  62
0
100
AcDbLine
 10
360.024110
 20
514.887000
 30
0.000000
 11
359.525870
 21
514.887000
 31
0.000000
  0
LINE
  5
225
330
1F
100
AcDbEntity
  8
0
  62
0
100
AcDbLine
 10
359.525870
 20
514.887000
 30
0.000000
 11
359.036110
 21
514.978000
 31
0.000000
  0
LINE
  5
226
330
1F
100
AcDbEntity
  8
0
  62
0
100
AcDbLine
 10
359.036110
 20
514.978000
 30
0.000000
 11
358.571490
 21
515.158000
 31
0.000000
  0
LINE
  5
227
330
1F
100
AcDbEntity
  8
0
  62
0
100
AcDbLine
 10
358.571490
 20
515.158000
 30
0.000000
 11
358.147880
 21
515.420000
 31
0.000000
  0
LINE
  5
228
330
1F
100
AcDbEntity
  8
0
  62
0
100
AcDbLine
 10
358.147880
 20
515.420000
 30
0.000000
 11
357.779670
 21
515.756000
 31
0.000000
  0
LINE
  5
229
330
1F
100
AcDbEntity
  8
0
  62
0
100
AcDbLine
 10
357.779670
 20
515.756000
 30
0.000000
 11
357.479410
 21
516.154000
 31
0.000000
  0
LINE
  5
230
330
1F
100
AcDbEntity
  8
0
  62
0
100
AcDbLine
 10
357.479410
 20
516.154000
 30
0.000000
 11
357.257320
 21
516.600000
 31
0.000000
  0
LINE
  5
231
330
1F
100
AcDbEntity
  8
0
  62
0
100
AcDbLine
 10
357.257320
 20
516.600000
 30
0.000000
 11
357.120960
 21
517.079000
 31
0.000000
  0
LINE
  5
232
330
1F
100
AcDbEntity
  8
0
  62
0
100
AcDbLine
 10
357.120960
 20
517.079000
 30
0.000000
 11
357.074990
 21
517.575000
 31
0.000000
  0
LINE
  5
233
330
1F
100
AcDbEntity
  8
0
  62
0
100
AcDbLine
 10
357.074990
 20
517.575000
 30
0.000000
 11
357.120960
 21
518.071000
 31
0.000000
  0
LINE
  5
234
330
1F
100
AcDbEntity
  8
0
  62
0
100
AcDbLine
 10
357.120960
 20
518.071000
 30
0.000000
 11
357.257320
 21
518.550000
 31
0.000000
  0
LINE
  5
235
330
1F
100
AcDbEntity
  8
0
  62
0
100
AcDbLine
 10
357.257320
 20
518.550000
 30
0.000000
 11
357.479410
 21
518.996000
 31
0.000000
  0
LINE
  5
236
330
1F
100
AcDbEntity
  8
0
  62
0
100
AcDbLine
 10
357.479410
 20
518.996000
 30
0.000000
 11
357.779670
 21
519.394000
 31
0.000000
  0
LINE
  5
237
330
1F
100
AcDbEntity
  8
0
  62
0
100
AcDbLine
 10
357.779670
 20
519.394000
 30
0.000000
 11
358.147880
 21
519.730000
 31
0.000000
  0
LINE
  5
238
330
1F
100
AcDbEntity
  8
0
  62
0
100
AcDbLine
 10
358.147880
 20
519.730000
 30
0.000000
 11
358.571490
 21
519.992000
 31
0.000000
  0
LINE
  5
239
330
1F
100
AcDbEntity
  8
0
  62
0
100
AcDbLine
 10
358.571490
 20
519.992000
 30
0.000000
 11
359.036110
 21
520.172000
 31
0.000000
  0
LINE
  5
240
330
1F
100
AcDbEntity
  8
0
  62
0
100
AcDbLine
 10
359.036110
 20
520.172000
 30
0.000000
 11
359.525870
 21
520.263000
 31
0.000000
  0
LINE
  5
241
330
1F
100
AcDbEntity
  8
0
  62
0
100
AcDbLine
 10
359.525870
 20
520.263000
 30
0.000000
 11
360.024110
 21
520.263000
 31
0.000000
  0
LINE
  5
242
330
1F
100
AcDbEntity
  8
0
  62
0
100
AcDbLine
 10
360.024110
 20
520.263000
 30
0.000000
 11
360.513900
 21
520.172000
 31
0.000000
  0
LINE
  5
243
330
1F
100
AcDbEntity
  8
0
  62
0
100
AcDbLine
 10
360.513900
 20
520.172000
 30
0.000000
 11
360.978500
 21
519.992000
 31
0.000000
  0
LINE
  5
244
330
1F
100
AcDbEntity
  8
0
  62
0
100
AcDbLine
 10
360.978500
 20
519.992000
 30
0.000000
 11
361.402100
 21
519.730000
 31
0.000000
  0
LINE
  5
245
330
1F
100
AcDbEntity
  8
0
  62
0
100
AcDbLine
 10
361.402100
 20
519.730000
 30
0.000000
 11
361.770300
 21
519.394000
 31
0.000000
  0
LINE
  5
246
330
1F
100
AcDbEntity
  8
0
  62
0
100
AcDbLine
 10
361.770300
 20
519.394000
 30
0.000000
 11
362.070600
 21
518.996000
 31
0.000000
  0
LINE
  5
247
330
1F
100
AcDbEntity
  8
0
  62
0
100
AcDbLine
 10
362.070600
 20
518.996000
 30
0.000000
 11
362.292700
 21
518.550000
 31
0.000000
  0
LINE
  5
248
330
1F
100
AcDbEntity
  8
0
  62
0
100
AcDbLine
 10
362.292700
 20
518.550000
 30
0.000000
 11
362.429000
 21
518.071000
 31
0.000000
  0
LINE
  5
249
330
1F
100
AcDbEntity
  8
0
  62
0
100
AcDbLine
 10
362.429000
 20
518.071000
 30
0.000000
 11
362.475000
 21
517.575000
 31
0.000000
  0
LINE
  5
250
330
1F
100
AcDbEntity
  8
0
  62
0
100
AcDbLine
 10
379.725000
 20
305.025000
 30
0.000000
 11
379.725000
 21
290.124990
 31
0.000000
  0
LINE
  5
251
330
1F
100
AcDbEntity
  8
0
  62
0
100
AcDbLine
 10
379.725000
 20
290.124990
 30
0.000000
 11
373.325000
 21
290.124990
 31
0.000000
  0
LINE
  5
252
330
1F
100
AcDbEntity
  8
0
  62
0
100
AcDbLine
 10
373.325000
 20
290.124990
 30
0.000000
 11
373.325000
 21
305.025000
 31
0.000000
  0
LINE
  5
253
330
1F
100
AcDbEntity
  8
0
  62
0
100
AcDbLine
 10
373.325000
 20
305.025000
 30
0.000000
 11
379.725000
 21
305.025000
 31
0.000000
  0
LINE
  5
254
330
1F
100
AcDbEntity
  8
0
  62
0
100
AcDbLine
 10
379.725000
 20
420.025000
 30
0.000000
 11
379.725000
 21
405.125000
 31
0.000000
  0
LINE
  5
255
330
1F
100
AcDbEntity
  8
0
  62
0
100
AcDbLine
 10
379.725000
 20
405.125000
 30
0.000000
 11
373.325000
 21
405.125000
 31
0.000000
  0
LINE
  5
256
330
1F
100
AcDbEntity
  8
0
  62
0
100
AcDbLine
 10
373.325000
 20
405.125000
 30
0.000000
 11
373.325000
 21
420.025000
 31
0.000000
  0
LINE
  5
257
330
1F
100
AcDbEntity
  8
0
  62
0
100
AcDbLine
 10
373.325000
 20
420.025000
 30
0.000000
 11
379.725000
 21
420.025000
 31
0.000000
  0
LINE
  5
258
330
1F
100
AcDbEntity
  8
0
  62
0
100
AcDbLine
 10
379.725000
 20
130.025000
 30
0.000000
 11
379.725000
 21
115.125000
 31
0.000000
  0
LINE
  5
259
330
1F
100
AcDbEntity
  8
0
  62
0
100
AcDbLine
 10
379.725000
 20
115.125000
 30
0.000000
 11
373.325000
 21
115.125000
 31
0.000000
  0
LINE
  5
260
330
1F
100
AcDbEntity
  8
0
  62
0
100
AcDbLine
 10
373.325000
 20
115.125000
 30
0.000000
 11
373.325000
 21
130.025000
 31
0.000000
  0
LINE
  5
261
330
1F
100
AcDbEntity
  8
0
  62
0
100
AcDbLine
 10
373.325000
 20
130.025000
 30
0.000000
 11
379.725000
 21
130.025000
 31
0.000000
  0
LINE
  5
262
330
1F
100
AcDbEntity
  8
0
  62
0
100
AcDbLine
 10
379.725000
 20
275.025010
 30
0.000000
 11
379.725000
 21
260.125000
 31
0.000000
  0
LINE
  5
263
330
1F
100
AcDbEntity
  8
0
  62
0
100
AcDbLine
 10
379.725000
 20
260.125000
 30
0.000000
 11
373.325000
 21
260.125000
 31
0.000000
  0
LINE
  5
264
330
1F
100
AcDbEntity
  8
0
  62
0
100
AcDbLine
 10
373.325000
 20
260.125000
 30
0.000000
 11
373.325000
 21
275.025010
 31
0.000000
  0
LINE
  5
265
330
1F
100
AcDbEntity
  8
0
  62
0
100
AcDbLine
 10
373.325000
 20
275.025010
 30
0.000000
 11
379.725000
 21
275.025010
 31
0.000000
  0
LINE
  5
266
330
1F
100
AcDbEntity
  8
0
  62
0
100
AcDbLine
 10
379.725000
 20
450.025000
 30
0.000000
 11
379.725000
 21
435.125000
 31
0.000000
  0
LINE
  5
267
330
1F
100
AcDbEntity
  8
0
  62
0
100
AcDbLine
 10
379.725000
 20
435.125000
 30
0.000000
 11
373.325000
 21
435.125000
 31
0.000000
  0
LINE
  5
268
330
1F
100
AcDbEntity
  8
0
  62
0
100
AcDbLine
 10
373.325000
 20
435.125000
 30
0.000000
 11
373.325000
 21
450.025000
 31
0.000000
  0
LINE
  5
269
330
1F
100
AcDbEntity
  8
0
  62
0
100
AcDbLine
 10
373.325000
 20
450.025000
 30
0.000000
 11
379.725000
 21
450.025000
 31
0.000000
  0
LINE
  5
270
330
1F
100
AcDbEntity
  8
0
  62
0
100
AcDbLine
 10
379.725000
 20
160.025000
 30
0.000000
 11
379.725000
 21
145.125000
 31
0.000000
  0
LINE
  5
271
330
1F
100
AcDbEntity
  8
0
  62
0
100
AcDbLine
 10
379.725000
 20
145.125000
 30
0.000000
 11
373.325000
 21
145.125000
 31
0.000000
  0
LINE
  5
272
330
1F
100
AcDbEntity
  8
0
  62
0
100
AcDbLine
 10
373.325000
 20
145.125000
 30
0.000000
 11
373.325000
 21
160.025000
 31
0.000000
  0
LINE
  5
273
330
1F
100
AcDbEntity
  8
0
  62
0
100
AcDbLine
 10
373.325000
 20
160.025000
 30
0.000000
 11
379.725000
 21
160.025000
 31
0.000000
  0
LINE
  5
274
330
1F
100
AcDbEntity
  8
0
  62
0
100
AcDbLine
 10
379.135000
 20
282.699329
 30
0.000000
 11
379.111400
 21
282.203143
 31
0.000000
  0
LINE
  5
275
330
1F
100
AcDbEntity
  8
0
  62
0
100
AcDbLine
 10
379.111400
 20
282.203143
 30
0.000000
 11
378.994300
 21
281.720386
 31
0.000000
  0
LINE
  5
276
330
1F
100
AcDbEntity
  8
0
  62
0
100
AcDbLine
 10
378.994300
 20
281.720386
 30
0.000000
 11
378.787900
 21
281.268510
 31
0.000000
  0
LINE
  5
277
330
1F
100
AcDbEntity
  8
0
  62
0
100
AcDbLine
 10
378.787900
 20
281.268510
 30
0.000000
 11
378.499800
 21
280.863860
 31
0.000000
  0
LINE
  5
278
330
1F
100
AcDbEntity
  8
0
  62
0
100
AcDbLine
 10
378.499800
 20
280.863860
 30
0.000000
 11
378.140200
 21
280.521040
 31
0.000000
  0
LINE
  5
279
330
1F
100
AcDbEntity
  8
0
  62
0
100
AcDbLine
 10
378.140200
 20
280.521040
 30
0.000000
 11
377.722300
 21
280.252470
 31
0.000000
  0
LINE
  5
280
330
1F
100
AcDbEntity
  8
0
  62
0
100
AcDbLine
 10
377.722300
 20
280.252470
 30
0.000000
 11
377.261200
 21
280.067860
 31
0.000000
  0
LINE
  5
281
330
1F
100
AcDbEntity
  8
0
  62
0
100
AcDbLine
 10
377.261200
 20
280.067860
 30
0.000000
 11
376.773400
 21
279.973830
 31
0.000000
  0
LINE
  5
282
330
1F
100
AcDbEntity
  8
0
  62
0
100
AcDbLine
 10
376.773400
 20
279.973830
 30
0.000000
 11
376.276600
 21
279.973830
 31
0.000000
  0
LINE
  5
283
330
1F
100
AcDbEntity
  8
0
  62
0
100
AcDbLine
 10
376.276600
 20
279.973830
 30
0.000000
 11
375.788800
 21
280.067860
 31
0.000000
  0
LINE
  5
284
330
1F
100
AcDbEntity
  8
0
  62
0
100
AcDbLine
 10
375.788800
 20
280.067860
 30
0.000000
 11
375.327600
 21
280.252470
 31
0.000000
  0
LINE
  5
285
330
1F
100
AcDbEntity
  8
0
  62
0
100
AcDbLine
 10
375.327600
 20
280.252470
 30
0.000000
 11
374.909800
 21
280.521040
 31
0.000000
  0
LINE
  5
286
330
1F
100
AcDbEntity
  8
0
  62
0
100
AcDbLine
 10
374.909800
 20
280.521040
 30
0.000000
 11
374.550200
 21
280.863860
 31
0.000000
  0
LINE
  5
287
330
1F
100
AcDbEntity
  8
0
  62
0
100
AcDbLine
 10
374.550200
 20
280.863860
 30
0.000000
 11
374.262100
 21
281.268510
 31
0.000000
  0
LINE
  5
288
330
1F
100
AcDbEntity
  8
0
  62
0
100
AcDbLine
 10
374.262100
 20
281.268510
 30
0.000000
 11
374.055700
 21
281.720386
 31
0.000000
  0
LINE
  5
289
330
1F
100
AcDbEntity
  8
0
  62
0
100
AcDbLine
 10
374.055700
 20
281.720386
 30
0.000000
 11
373.938600
 21
282.203143
 31
0.000000
  0
LINE
  5
290
330
1F
100
AcDbEntity
  8
0
  62
0
100
AcDbLine
 10
373.938600
 20
282.203143
 30
0.000000
 11
373.915000
 21
282.699329
 31
0.000000
  0
LINE
  5
291
330
1F
100
AcDbEntity
  8
0
  62
0
100
AcDbLine
 10
373.915000
 20
282.699329
 30
0.000000
 11
373.985600
 21
283.191028
 31
0.000000
  0
LINE
  5
292
330
1F
100
AcDbEntity
  8
0
  62
0
100
AcDbLine
 10
373.985600
 20
283.191028
 30
0.000000
 11
374.148100
 21
283.660460
 31
0.000000
  0
LINE
  5
293
330
1F
100
AcDbEntity
  8
0
  62
0
100
AcDbLine
 10
374.148100
 20
283.660460
 30
0.000000
 11
374.396500
 21
284.090690
 31
0.000000
  0
LINE
  5
294
330
1F
100
AcDbEntity
  8
0
  62
0
100
AcDbLine
 10
374.396500
 20
284.090690
 30
0.000000
 11
374.721800
 21
284.466110
 31
0.000000
  0
LINE
  5
295
330
1F
100
AcDbEntity
  8
0
  62
0
100
AcDbLine
 10
374.721800
 20
284.466110
 30
0.000000
 11
375.112300
 21
284.773180
 31
0.000000
  0
LINE
  5
296
330
1F
100
AcDbEntity
  8
0
  62
0
100
AcDbLine
 10
375.112300
 20
284.773180
 30
0.000000
 11
375.553800
 21
285.000810
 31
0.000000
  0
LINE
  5
297
330
1F
100
AcDbEntity
  8
0
  62
0
100
AcDbLine
 10
375.553800
 20
285.000810
 30
0.000000
 11
376.030500
 21
285.140770
 31
0.000000
  0
LINE
  5
298
330
1F
100
AcDbEntity
  8
0
  62
0
100
AcDbLine
 10
376.030500
 20
285.140770
 30
0.000000
 11
376.525000
 21
285.187990
 31
0.000000
  0
LINE
  5
299
330
1F
100
AcDbEntity
  8
0
  62
0
100
AcDbLine
 10
376.525000
 20
285.187990
 30
0.000000
 11
377.019500
 21
285.140770
 31
0.000000
  0
LINE
  5
300
330
1F
100
AcDbEntity
  8
0
  62
0
100
AcDbLine
 10
377.019500
 20
285.140770
 30
0.000000
 11
377.496100
 21
285.000810
 31
0.000000
  0
LINE
  5
301
330
1F
100
AcDbEntity
  8
0
  62
0
100
AcDbLine
 10
377.496100
 20
285.000810
 30
0.000000
 11
377.937700
 21
284.773180
 31
0.000000
  0
LINE
  5
302
330
1F
100
AcDbEntity
  8
0
  62
0
100
AcDbLine
 10
377.937700
 20
284.773180
 30
0.000000
 11
378.328200
 21
284.466110
 31
0.000000
  0
LINE
  5
303
330
1F
100
AcDbEntity
  8
0
  62
0
100
AcDbLine
 10
378.328200
 20
284.466110
 30
0.000000
 11
378.653500
 21
284.090690
 31
0.000000
  0
LINE
  5
304
330
1F
100
AcDbEntity
  8
0
  62
0
100
AcDbLine
 10
378.653500
 20
284.090690
 30
0.000000
 11
378.901900
 21
283.660460
 31
0.000000
  0
LINE
  5
305
330
1F
100
AcDbEntity
  8
0
  62
0
100
AcDbLine
 10
378.901900
 20
283.660460
 30
0.000000
 11
379.064300
 21
283.191028
 31
0.000000
  0
LINE
  5
306
330
1F
100
AcDbEntity
  8
0
  62
0
100
AcDbLine
 10
379.064300
 20
283.191028
 30
0.000000
 11
379.135000
 21
282.699329
 31
0.000000
  0
LINE
  5
307
330
1F
100
AcDbEntity
  8
0
  62
0
100
AcDbLine
 10
379.135000
 20
137.451000
 30
0.000000
 11
379.064300
 21
136.959000
 31
0.000000
  0
LINE
  5
308
330
1F
100
AcDbEntity
  8
0
  62
0
100
AcDbLine
 10
379.064300
 20
136.959000
 30
0.000000
 11
378.901900
 21
136.490000
 31
0.000000
  0
LINE
  5
309
330
1F
100
AcDbEntity
  8
0
  62
0
100
AcDbLine
 10
378.901900
 20
136.490000
 30
0.000000
 11
378.653500
 21
136.059000
 31
0.000000
  0
LINE
  5
310
330
1F
100
AcDbEntity
  8
0
  62
0
100
AcDbLine
 10
378.653500
 20
136.059000
 30
0.000000
 11
378.328200
 21
135.684000
 31
0.000000
  0
LINE
  5
311
330
1F
100
AcDbEntity
  8
0
  62
0
100
AcDbLine
 10
378.328200
 20
135.684000
 30
0.000000
 11
377.937700
 21
135.377000
 31
0.000000
  0
LINE
  5
312
330
1F
100
AcDbEntity
  8
0
  62
0
100
AcDbLine
 10
377.937700
 20
135.377000
 30
0.000000
 11
377.496100
 21
135.149000
 31
0.000000
  0
LINE
  5
313
330
1F
100
AcDbEntity
  8
0
  62
0
100
AcDbLine
 10
377.496100
 20
135.149000
 30
0.000000
 11
377.019500
 21
135.009000
 31
0.000000
  0
LINE
  5
314
330
1F
100
AcDbEntity
  8
0
  62
0
100
AcDbLine
 10
377.019500
 20
135.009000
 30
0.000000
 11
376.525000
 21
134.962000
 31
0.000000
  0
LINE
  5
315
330
1F
100
AcDbEntity
  8
0
  62
0
100
AcDbLine
 10
376.525000
 20
134.962000
 30
0.000000
 11
376.030500
 21
135.009000
 31
0.000000
  0
LINE
  5
316
330
1F
100
AcDbEntity
  8
0
  62
0
100
AcDbLine
 10
376.030500
 20
135.009000
 30
0.000000
 11
375.553800
 21
135.149000
 31
0.000000
  0
LINE
  5
317
330
1F
100
AcDbEntity
  8
0
  62
0
100
AcDbLine
 10
375.553800
 20
135.149000
 30
0.000000
 11
375.112300
 21
135.377000
 31
0.000000
  0
LINE
  5
318
330
1F
100
AcDbEntity
  8
0
  62
0
100
AcDbLine
 10
375.112300
 20
135.377000
 30
0.000000
 11
374.721800
 21
135.684000
 31
0.000000
  0
LINE
  5
319
330
1F
100
AcDbEntity
  8
0
  62
0
100
AcDbLine
 10
374.721800
 20
135.684000
 30
0.000000
 11
374.396500
 21
136.059000
 31
0.000000
  0
LINE
  5
320
330
1F
100
AcDbEntity
  8
0
  62
0
100
AcDbLine
 10
374.396500
 20
136.059000
 30
0.000000
 11
374.148100
 21
136.490000
 31
0.000000
  0
LINE
  5
321
330
1F
100
AcDbEntity
  8
0
  62
0
100
AcDbLine
 10
374.148100
 20
136.490000
 30
0.000000
 11
373.985600
 21
136.959000
 31
0.000000
  0
LINE
  5
322
330
1F
100
AcDbEntity
  8
0
  62
0
100
AcDbLine
 10
373.985600
 20
136.959000
 30
0.000000
 11
373.915000
 21
137.451000
 31
0.000000
  0
LINE
  5
323
330
1F
100
AcDbEntity
  8
0
  62
0
100
AcDbLine
 10
373.915000
 20
137.451000
 30
0.000000
 11
373.938600
 21
137.947000
 31
0.000000
  0
LINE
  5
324
330
1F
100
AcDbEntity
  8
0
  62
0
100
AcDbLine
 10
373.938600
 20
137.947000
 30
0.000000
 11
374.055700
 21
138.430000
 31
0.000000
  0
LINE
  5
325
330
1F
100
AcDbEntity
  8
0
  62
0
100
AcDbLine
 10
374.055700
 20
138.430000
 30
0.000000
 11
374.262100
 21
138.882000
 31
0.000000
  0
LINE
  5
326
330
1F
100
AcDbEntity
  8
0
  62
0
100
AcDbLine
 10
374.262100
 20
138.882000
 30
0.000000
 11
374.550200
 21
139.286000
 31
0.000000
  0
LINE
  5
327
330
1F
100
AcDbEntity
  8
0
  62
0
100
AcDbLine
 10
374.550200
 20
139.286000
 30
0.000000
 11
374.909800
 21
139.629000
 31
0.000000
  0
LINE
  5
328
330
1F
100
AcDbEntity
  8
0
  62
0
100
AcDbLine
 10
374.909800
 20
139.629000
 30
0.000000
 11
375.327600
 21
139.898000
 31
0.000000
  0
LINE
  5
329
330
1F
100
AcDbEntity
  8
0
  62
0
100
AcDbLine
 10
375.327600
 20
139.898000
 30
0.000000
 11
375.788800
 21
140.082000
 31
0.000000
  0
LINE
  5
330
330
1F
100
AcDbEntity
  8
0
  62
0
100
AcDbLine
 10
375.788800
 20
140.082000
 30
0.000000
 11
376.276600
 21
140.176000
 31
0.000000
  0
LINE
  5
331
330
1F
100
AcDbEntity
  8
0
  62
0
100
AcDbLine
 10
376.276600
 20
140.176000
 30
0.000000
 11
376.773400
 21
140.176000
 31
0.000000
  0
LINE
  5
332
330
1F
100
AcDbEntity
  8
0
  62
0
100
AcDbLine
 10
376.773400
 20
140.176000
 30
0.000000
 11
377.261200
 21
140.082000
 31
0.000000
  0
LINE
  5
333
330
1F
100
AcDbEntity
  8
0
  62
0
100
AcDbLine
 10
377.261200
 20
140.082000
 30
0.000000
 11
377.722300
 21
139.898000
 31
0.000000
  0
LINE
  5
334
330
1F
100
AcDbEntity
  8
0
  62
0
100
AcDbLine
 10
377.722300
 20
139.898000
 30
0.000000
 11
378.140200
 21
139.629000
 31
0.000000
  0
LINE
  5
335
330
1F
100
AcDbEntity
  8
0
  62
0
100
AcDbLine
 10
378.140200
 20
139.629000
 30
0.000000
 11
378.499800
 21
139.286000
 31
0.000000
  0
LINE
  5
336
330
1F
100
AcDbEntity
  8
0
  62
0
100
AcDbLine
 10
378.499800
 20
139.286000
 30
0.000000
 11
378.787900
 21
138.882000
 31
0.000000
  0
LINE
  5
337
330
1F
100
AcDbEntity
  8
0
  62
0
100
AcDbLine
 10
378.787900
 20
138.882000
 30
0.000000
 11
378.994300
 21
138.430000
 31
0.000000
  0
LINE
  5
338
330
1F
100
AcDbEntity
  8
0
  62
0
100
AcDbLine
 10
378.994300
 20
138.430000
 30
0.000000
 11
379.111400
 21
137.947000
 31
0.000000
  0
LINE
  5
339
330
1F
100
AcDbEntity
  8
0
  62
0
100
AcDbLine
 10
379.111400
 20
137.947000
 30
0.000000
 11
379.135000
 21
137.451000
 31
0.000000
  0
LINE
  5
340
330
1F
100
AcDbEntity
  8
0
  62
0
100
AcDbLine
 10
379.135000
 20
427.699000
 30
0.000000
 11
379.111400
 21
427.203000
 31
0.000000
  0
LINE
  5
341
330
1F
100
AcDbEntity
  8
0
  62
0
100
AcDbLine
 10
379.111400
 20
427.203000
 30
0.000000
 11
378.994300
 21
426.720000
 31
0.000000
  0
LINE
  5
342
330
1F
100
AcDbEntity
  8
0
  62
0
100
AcDbLine
 10
378.994300
 20
426.720000
 30
0.000000
 11
378.787900
 21
426.268000
 31
0.000000
  0
LINE
  5
343
330
1F
100
AcDbEntity
  8
0
  62
0
100
AcDbLine
 10
378.787900
 20
426.268000
 30
0.000000
 11
378.499800
 21
425.864000
 31
0.000000
  0
LINE
  5
344
330
1F
100
AcDbEntity
  8
0
  62
0
100
AcDbLine
 10
378.499800
 20
425.864000
 30
0.000000
 11
378.140200
 21
425.521000
 31
0.000000
  0
LINE
  5
345
330
1F
100
AcDbEntity
  8
0
  62
0
100
AcDbLine
 10
378.140200
 20
425.521000
 30
0.000000
 11
377.722300
 21
425.252000
 31
0.000000
  0
LINE
  5
346
330
1F
100
AcDbEntity
  8
0
  62
0
100
AcDbLine
 10
377.722300
 20
425.252000
 30
0.000000
 11
377.261200
 21
425.068000
 31
0.000000
  0
LINE
  5
347
330
1F
100
AcDbEntity
  8
0
  62
0
100
AcDbLine
 10
377.261200
 20
425.068000
 30
0.000000
 11
376.773400
 21
424.974000
 31
0.000000
  0
LINE
  5
348
330
1F
100
AcDbEntity
  8
0
  62
0
100
AcDbLine
 10
376.773400
 20
424.974000
 30
0.000000
 11
376.276600
 21
424.974000
 31
0.000000
  0
LINE
  5
349
330
1F
100
AcDbEntity
  8
0
  62
0
100
AcDbLine
 10
376.276600
 20
424.974000
 30
0.000000
 11
375.788800
 21
425.068000
 31
0.000000
  0
LINE
  5
350
330
1F
100
AcDbEntity
  8
0
  62
0
100
AcDbLine
 10
375.788800
 20
425.068000
 30
0.000000
 11
375.327600
 21
425.252000
 31
0.000000
  0
LINE
  5
351
330
1F
100
AcDbEntity
  8
0
  62
0
100
AcDbLine
 10
375.327600
 20
425.252000
 30
0.000000
 11
374.909800
 21
425.521000
 31
0.000000
  0
LINE
  5
352
330
1F
100
AcDbEntity
  8
0
  62
0
100
AcDbLine
 10
374.909800
 20
425.521000
 30
0.000000
 11
374.550200
 21
425.864000
 31
0.000000
  0
LINE
  5
353
330
1F
100
AcDbEntity
  8
0
  62
0
100
AcDbLine
 10
374.550200
 20
425.864000
 30
0.000000
 11
374.262100
 21
426.268000
 31
0.000000
  0
LINE
  5
354
330
1F
100
AcDbEntity
  8
0
  62
0
100
AcDbLine
 10
374.262100
 20
426.268000
 30
0.000000
 11
374.055700
 21
426.720000
 31
0.000000
  0
LINE
  5
355
330
1F
100
AcDbEntity
  8
0
  62
0
100
AcDbLine
 10
374.055700
 20
426.720000
 30
0.000000
 11
373.938600
 21
427.203000
 31
0.000000
  0
LINE
  5
356
330
1F
100
AcDbEntity
  8
0
  62
0
100
AcDbLine
 10
373.938600
 20
427.203000
 30
0.000000
 11
373.915000
 21
427.699000
 31
0.000000
  0
LINE
  5
357
330
1F
100
AcDbEntity
  8
0
  62
0
100
AcDbLine
 10
373.915000
 20
427.699000
 30
0.000000
 11
373.985600
 21
428.191000
 31
0.000000
  0
LINE
  5
358
330
1F
100
AcDbEntity
  8
0
  62
0
100
AcDbLine
 10
373.985600
 20
428.191000
 30
0.000000
 11
374.148100
 21
428.660000
 31
0.000000
  0
LINE
  5
359
330
1F
100
AcDbEntity
  8
0
  62
0
100
AcDbLine
 10
374.148100
 20
428.660000
 30
0.000000
 11
374.396500
 21
429.091000
 31
0.000000
  0
LINE
  5
360
330
1F
100
AcDbEntity
  8
0
  62
0
100
AcDbLine
 10
374.396500
 20
429.091000
 30
0.000000
 11
374.721800
 21
429.466000
 31
0.000000
  0
LINE
  5
361
330
1F
100
AcDbEntity
  8
0
  62
0
100
AcDbLine
 10
374.721800
 20
429.466000
 30
0.000000
 11
375.112300
 21
429.773000
 31
0.000000
  0
LINE
  5
362
330
1F
100
AcDbEntity
  8
0
  62
0
100
AcDbLine
 10
375.112300
 20
429.773000
 30
0.000000
 11
375.553800
 21
430.001000
 31
0.000000
  0
LINE
  5
363
330
1F
100
AcDbEntity
  8
0
  62
0
100
AcDbLine
 10
375.553800
 20
430.001000
 30
0.000000
 11
376.030500
 21
430.141000
 31
0.000000
  0
LINE
  5
364
330
1F
100
AcDbEntity
  8
0
  62
0
100
AcDbLine
 10
376.030500
 20
430.141000
 30
0.000000
 11
376.525000
 21
430.188000
 31
0.000000
  0
LINE
  5
365
330
1F
100
AcDbEntity
  8
0
  62
0
100
AcDbLine
 10
376.525000
 20
430.188000
 30
0.000000
 11
377.019500
 21
430.141000
 31
0.000000
  0
LINE
  5
366
330
1F
100
AcDbEntity
  8
0
  62
0
100
AcDbLine
 10
377.019500
 20
430.141000
 30
0.000000
 11
377.496100
 21
430.001000
 31
0.000000
  0
LINE
  5
367
330
1F
100
AcDbEntity
  8
0
  62
0
100
AcDbLine
 10
377.496100
 20
430.001000
 30
0.000000
 11
377.937700
 21
429.773000
 31
0.000000
  0
LINE
  5
368
330
1F
100
AcDbEntity
  8
0
  62
0
100
AcDbLine
 10
377.937700
 20
429.773000
 30
0.000000
 11
378.328200
 21
429.466000
 31
0.000000
  0
LINE
  5
369
330
1F
100
AcDbEntity
  8
0
  62
0
100
AcDbLine
 10
378.328200
 20
429.466000
 30
0.000000
 11
378.653500
 21
429.091000
 31
0.000000
  0
LINE
  5
370
330
1F
100
AcDbEntity
  8
0
  62
0
100
AcDbLine
 10
378.653500
 20
429.091000
 30
0.000000
 11
378.901900
 21
428.660000
 31
0.000000
  0
LINE
  5
371
330
1F
100
AcDbEntity
  8
0
  62
0
100
AcDbLine
 10
378.901900
 20
428.660000
 30
0.000000
 11
379.064300
 21
428.191000
 31
0.000000
  0
LINE
  5
372
330
1F
100
AcDbEntity
  8
0
  62
0
100
AcDbLine
 10
379.064300
 20
428.191000
 30
0.000000
 11
379.135000
 21
427.699000
 31
0.000000
  0
LINE
  5
373
330
1F
100
AcDbEntity
  8
0
  62
0
100
AcDbLine
 10
385.757700
 20
432.817000
 30
0.000000
 11
385.757700
 21
432.333000
 31
0.000000
  0
LINE
  5
374
330
1F
100
AcDbEntity
  8
0
  62
0
100
AcDbLine
 10
385.757700
 20
432.333000
 30
0.000000
 11
385.621400
 21
431.869000
 31
0.000000
  0
LINE
  5
375
330
1F
100
AcDbEntity
  8
0
  62
0
100
AcDbLine
 10
385.621400
 20
431.869000
 30
0.000000
 11
385.359800
 21
431.462000
 31
0.000000
  0
LINE
  5
376
330
1F
100
AcDbEntity
  8
0
  62
0
100
AcDbLine
 10
385.359800
 20
431.462000
 30
0.000000
 11
384.994100
 21
431.145000
 31
0.000000
  0
LINE
  5
377
330
1F
100
AcDbEntity
  8
0
  62
0
100
AcDbLine
 10
384.994100
 20
431.145000
 30
0.000000
 11
384.553900
 21
430.944000
 31
0.000000
  0
LINE
  5
378
330
1F
100
AcDbEntity
  8
0
  62
0
100
AcDbLine
 10
384.553900
 20
430.944000
 30
0.000000
 11
384.075000
 21
430.875000
 31
0.000000
  0
LINE
  5
379
330
1F
100
AcDbEntity
  8
0
  62
0
100
AcDbLine
 10
384.075000
 20
430.875000
 30
0.000000
 11
383.596000
 21
430.944000
 31
0.000000
  0
LINE
  5
380
330
1F
100
AcDbEntity
  8
0
  62
0
100
AcDbLine
 10
383.596000
 20
430.944000
 30
0.000000
 11
383.155900
 21
431.145000
 31
0.000000
  0
LINE
  5
381
330
1F
100
AcDbEntity
  8
0
  62
0
100
AcDbLine
 10
383.155900
 20
431.145000
 30
0.000000
 11
382.790200
 21
431.462000
 31
0.000000
  0
LINE
  5
382
330
1F
100
AcDbEntity
  8
0
  62
0
100
AcDbLine
 10
382.790200
 20
431.462000
 30
0.000000
 11
382.528600
 21
431.869000
 31
0.000000
  0
LINE
  5
383
330
1F
100
AcDbEntity
  8
0
  62
0
100
AcDbLine
 10
382.528600
 20
431.869000
 30
0.000000
 11
382.392300
 21
432.333000
 31
0.000000
  0
LINE
  5
384
330
1F
100
AcDbEntity
  8
0
  62
0
100
AcDbLine
 10
382.392300
 20
432.333000
 30
0.000000
 11
382.392300
 21
432.817000
 31
0.000000
  0
LINE
  5
385
330
1F
100
AcDbEntity
  8
0
  62
0
100
AcDbLine
 10
382.392300
 20
432.817000
 30
0.000000
 11
382.528600
 21
433.281000
 31
0.000000
  0
LINE
  5
386
330
1F
100
AcDbEntity
  8
0
  62
0
100
AcDbLine
 10
382.528600
 20
433.281000
 30
0.000000
 11
382.790200
 21
433.688000
 31
0.000000
  0
LINE
  5
387
330
1F
100
AcDbEntity
  8
0
  62
0
100
AcDbLine
 10
382.790200
 20
433.688000
 30
0.000000
 11
383.155900
 21
434.005000
 31
0.000000
  0
LINE
  5
388
330
1F
100
AcDbEntity
  8
0
  62
0
100
AcDbLine
 10
383.155900
 20
434.005000
 30
0.000000
 11
383.596000
 21
434.206000
 31
0.000000
  0
LINE
  5
389
330
1F
100
AcDbEntity
  8
0
  62
0
100
AcDbLine
 10
383.596000
 20
434.206000
 30
0.000000
 11
384.075000
 21
434.275000
 31
0.000000
  0
LINE
  5
390
330
1F
100
AcDbEntity
  8
0
  62
0
100
AcDbLine
 10
384.075000
 20
434.275000
 30
0.000000
 11
384.553900
 21
434.206000
 31
0.000000
  0
LINE
  5
391
330
1F
100
AcDbEntity
  8
0
  62
0
100
AcDbLine
 10
384.553900
 20
434.206000
 30
0.000000
 11
384.994100
 21
434.005000
 31
0.000000
  0
LINE
  5
392
330
1F
100
AcDbEntity
  8
0
  62
0
100
AcDbLine
 10
384.994100
 20
434.005000
 30
0.000000
 11
385.359800
 21
433.688000
 31
0.000000
  0
LINE
  5
393
330
1F
100
AcDbEntity
  8
0
  62
0
100
AcDbLine
 10
385.359800
 20
433.688000
 30
0.000000
 11
385.621400
 21
433.281000
 31
0.000000
  0
LINE
  5
394
330
1F
100
AcDbEntity
  8
0
  62
0
100
AcDbLine
 10
385.621400
 20
433.281000
 30
0.000000
 11
385.757700
 21
432.817000
 31
0.000000
  0
LINE
  5
395
330
1F
100
AcDbEntity
  8
0
  62
0
100
AcDbLine
 10
385.757700
 20
132.817000
 30
0.000000
 11
385.757700
 21
132.333000
 31
0.000000
  0
LINE
  5
396
330
1F
100
AcDbEntity
  8
0
  62
0
100
AcDbLine
 10
385.757700
 20
132.333000
 30
0.000000
 11
385.621400
 21
131.869000
 31
0.000000
  0
LINE
  5
397
330
1F
100
AcDbEntity
  8
0
  62
0
100
AcDbLine
 10
385.621400
 20
131.869000
 30
0.000000
 11
385.359800
 21
131.462000
 31
0.000000
  0
LINE
  5
398
330
1F
100
AcDbEntity
  8
0
  62
0
100
AcDbLine
 10
385.359800
 20
131.462000
 30
0.000000
 11
384.994100
 21
131.145000
 31
0.000000
  0
LINE
  5
399
330
1F
100
AcDbEntity
  8
0
  62
0
100
AcDbLine
 10
384.994100
 20
131.145000
 30
0.000000
 11
384.553900
 21
130.944000
 31
0.000000
  0
LINE
  5
400
330
1F
100
AcDbEntity
  8
0
  62
0
100
AcDbLine
 10
384.553900
 20
130.944000
 30
0.000000
 11
384.075000
 21
130.875000
 31
0.000000
  0
LINE
  5
401
330
1F
100
AcDbEntity
  8
0
  62
0
100
AcDbLine
 10
384.075000
 20
130.875000
 30
0.000000
 11
383.596000
 21
130.944000
 31
0.000000
  0
LINE
  5
402
330
1F
100
AcDbEntity
  8
0
  62
0
100
AcDbLine
 10
383.596000
 20
130.944000
 30
0.000000
 11
383.155900
 21
131.145000
 31
0.000000
  0
LINE
  5
403
330
1F
100
AcDbEntity
  8
0
  62
0
100
AcDbLine
 10
383.155900
 20
131.145000
 30
0.000000
 11
382.790200
 21
131.462000
 31
0.000000
  0
LINE
  5
404
330
1F
100
AcDbEntity
  8
0
  62
0
100
AcDbLine
 10
382.790200
 20
131.462000
 30
0.000000
 11
382.528600
 21
131.869000
 31
0.000000
  0
LINE
  5
405
330
1F
100
AcDbEntity
  8
0
  62
0
100
AcDbLine
 10
382.528600
 20
131.869000
 30
0.000000
 11
382.392300
 21
132.333000
 31
0.000000
  0
LINE
  5
406
330
1F
100
AcDbEntity
  8
0
  62
0
100
AcDbLine
 10
382.392300
 20
132.333000
 30
0.000000
 11
382.392300
 21
132.817000
 31
0.000000
  0
LINE
  5
407
330
1F
100
AcDbEntity
  8
0
  62
0
100
AcDbLine
 10
382.392300
 20
132.817000
 30
0.000000
 11
382.528600
 21
133.281000
 31
0.000000
  0
LINE
  5
408
330
1F
100
AcDbEntity
  8
0
  62
0
100
AcDbLine
 10
382.528600
 20
133.281000
 30
0.000000
 11
382.790200
 21
133.688000
 31
0.000000
  0
LINE
  5
409
330
1F
100
AcDbEntity
  8
0
  62
0
100
AcDbLine
 10
382.790200
 20
133.688000
 30
0.000000
 11
383.155900
 21
134.005000
 31
0.000000
  0
LINE
  5
410
330
1F
100
AcDbEntity
  8
0
  62
0
100
AcDbLine
 10
383.155900
 20
134.005000
 30
0.000000
 11
383.596000
 21
134.206000
 31
0.000000
  0
LINE
  5
411
330
1F
100
AcDbEntity
  8
0
  62
0
100
AcDbLine
 10
383.596000
 20
134.206000
 30
0.000000
 11
384.075000
 21
134.275000
 31
0.000000
  0
LINE
  5
412
330
1F
100
AcDbEntity
  8
0
  62
0
100
AcDbLine
 10
384.075000
 20
134.275000
 30
0.000000
 11
384.553900
 21
134.206000
 31
0.000000
  0
LINE
  5
413
330
1F
100
AcDbEntity
  8
0
  62
0
100
AcDbLine
 10
384.553900
 20
134.206000
 30
0.000000
 11
384.994100
 21
134.005000
 31
0.000000
  0
LINE
  5
414
330
1F
100
AcDbEntity
  8
0
  62
0
100
AcDbLine
 10
384.994100
 20
134.005000
 30
0.000000
 11
385.359800
 21
133.688000
 31
0.000000
  0
LINE
  5
415
330
1F
100
AcDbEntity
  8
0
  62
0
100
AcDbLine
 10
385.359800
 20
133.688000
 30
0.000000
 11
385.621400
 21
133.281000
 31
0.000000
  0
LINE
  5
416
330
1F
100
AcDbEntity
  8
0
  62
0
100
AcDbLine
 10
385.621400
 20
133.281000
 30
0.000000
 11
385.757700
 21
132.817000
 31
0.000000
  0
LINE
  5
417
330
1F
100
AcDbEntity
  8
0
  62
0
100
AcDbLine
 10
385.757700
 20
282.816928
 30
0.000000
 11
385.757700
 21
282.333072
 31
0.000000
  0
LINE
  5
418
330
1F
100
AcDbEntity
  8
0
  62
0
100
AcDbLine
 10
385.757700
 20
282.333072
 30
0.000000
 11
385.621400
 21
281.868808
 31
0.000000
  0
LINE
  5
419
330
1F
100
AcDbEntity
  8
0
  62
0
100
AcDbLine
 10
385.621400
 20
281.868808
 30
0.000000
 11
385.359800
 21
281.461750
 31
0.000000
  0
LINE
  5
420
330
1F
100
AcDbEntity
  8
0
  62
0
100
AcDbLine
 10
385.359800
 20
281.461750
 30
0.000000
 11
384.994100
 21
281.144870
 31
0.000000
  0
LINE
  5
421
330
1F
100
AcDbEntity
  8
0
  62
0
100
AcDbLine
 10
384.994100
 20
281.144870
 30
0.000000
 11
384.553900
 21
280.943870
 31
0.000000
  0
LINE
  5
422
330
1F
100
AcDbEntity
  8
0
  62
0
100
AcDbLine
 10
384.553900
 20
280.943870
 30
0.000000
 11
384.075000
 21
280.875000
 31
0.000000
  0
LINE
  5
423
330
1F
100
AcDbEntity
  8
0
  62
0
100
AcDbLine
 10
384.075000
 20
280.875000
 30
0.000000
 11
383.596000
 21
280.943870
 31
0.000000
  0
LINE
  5
424
330
1F
100
AcDbEntity
  8
0
  62
0
100
AcDbLine
 10
383.596000
 20
280.943870
 30
0.000000
 11
383.155900
 21
281.144870
 31
0.000000
  0
LINE
  5
425
330
1F
100
AcDbEntity
  8
0
  62
0
100
AcDbLine
 10
383.155900
 20
281.144870
 30
0.000000
 11
382.790200
 21
281.461750
 31
0.000000
  0
LINE
  5
426
330
1F
100
AcDbEntity
  8
0
  62
0
100
AcDbLine
 10
382.790200
 20
281.461750
 30
0.000000
 11
382.528600
 21
281.868808
 31
0.000000
  0
LINE
  5
427
330
1F
100
AcDbEntity
  8
0
  62
0
100
AcDbLine
 10
382.528600
 20
281.868808
 30
0.000000
 11
382.392300
 21
282.333072
 31
0.000000
  0
LINE
  5
428
330
1F
100
AcDbEntity
  8
0
  62
0
100
AcDbLine
 10
382.392300
 20
282.333072
 30
0.000000
 11
382.392300
 21
282.816928
 31
0.000000
  0
LINE
  5
429
330
1F
100
AcDbEntity
  8
0
  62
0
100
AcDbLine
 10
382.392300
 20
282.816928
 30
0.000000
 11
382.528600
 21
283.281192
 31
0.000000
  0
LINE
  5
430
330
1F
100
AcDbEntity
  8
0
  62
0
100
AcDbLine
 10
382.528600
 20
283.281192
 30
0.000000
 11
382.790200
 21
283.688250
 31
0.000000
  0
LINE
  5
431
330
1F
100
AcDbEntity
  8
0
  62
0
100
AcDbLine
 10
382.790200
 20
283.688250
 30
0.000000
 11
383.155900
 21
284.005130
 31
0.000000
  0
LINE
  5
432
330
1F
100
AcDbEntity
  8
0
  62
0
100
AcDbLine
 10
383.155900
 20
284.005130
 30
0.000000
 11
383.596000
 21
284.206130
 31
0.000000
  0
LINE
  5
433
330
1F
100
AcDbEntity
  8
0
  62
0
100
AcDbLine
 10
383.596000
 20
284.206130
 30
0.000000
 11
384.075000
 21
284.275000
 31
0.000000
  0
LINE
  5
434
330
1F
100
AcDbEntity
  8
0
  62
0
100
AcDbLine
 10
384.075000
 20
284.275000
 30
0.000000
 11
384.553900
 21
284.206130
 31
0.000000
  0
LINE
  5
435
330
1F
100
AcDbEntity
  8
0
  62
0
100
AcDbLine
 10
384.553900
 20
284.206130
 30
0.000000
 11
384.994100
 21
284.005130
 31
0.000000
  0
LINE
  5
436
330
1F
100
AcDbEntity
  8
0
  62
0
100
AcDbLine
 10
384.994100
 20
284.005130
 30
0.000000
 11
385.359800
 21
283.688250
 31
0.000000
  0
LINE
  5
437
330
1F
100
AcDbEntity
  8
0
  62
0
100
AcDbLine
 10
385.359800
 20
283.688250
 30
0.000000
 11
385.621400
 21
283.281192
 31
0.000000
  0
LINE
  5
438
330
1F
100
AcDbEntity
  8
0
  62
0
100
AcDbLine
 10
385.621400
 20
283.281192
 30
0.000000
 11
385.757700
 21
282.816928
 31
0.000000
  0
LINE
  5
439
330
1F
100
AcDbEntity
  8
0
  62
0
100
AcDbLine
 10
389.975000
 20
517.575000
 30
0.000000
 11
389.929000
 21
517.079000
 31
0.000000
  0
LINE
  5
440
330
1F
100
AcDbEntity
  8
0
  62
0
100
AcDbLine
 10
389.929000
 20
517.079000
 30
0.000000
 11
389.792700
 21
516.600000
 31
0.000000
  0
LINE
  5
441
330
1F
100
AcDbEntity
  8
0
  62
0
100
AcDbLine
 10
389.792700
 20
516.600000
 30
0.000000
 11
389.570600
 21
516.154000
 31
0.000000
  0
LINE
  5
442
330
1F
100
AcDbEntity
  8
0
  62
0
100
AcDbLine
 10
389.570600
 20
516.154000
 30
0.000000
 11
389.270300
 21
515.756000
 31
0.000000
  0
LINE
  5
443
330
1F
100
AcDbEntity
  8
0
  62
0
100
AcDbLine
 10
389.270300
 20
515.756000
 30
0.000000
 11
388.902100
 21
515.420000
 31
0.000000
  0
LINE
  5
444
330
1F
100
AcDbEntity
  8
0
  62
0
100
AcDbLine
 10
388.902100
 20
515.420000
 30
0.000000
 11
388.478500
 21
515.158000
 31
0.000000
  0
LINE
  5
445
330
1F
100
AcDbEntity
  8
0
  62
0
100
AcDbLine
 10
388.478500
 20
515.158000
 30
0.000000
 11
388.013900
 21
514.978000
 31
0.000000
  0
LINE
  5
446
330
1F
100
AcDbEntity
  8
0
  62
0
100
AcDbLine
 10
388.013900
 20
514.978000
 30
0.000000
 11
387.524100
 21
514.887000
 31
0.000000
  0
LINE
  5
447
330
1F
100
AcDbEntity
  8
0
  62
0
100
AcDbLine
 10
387.524100
 20
514.887000
 30
0.000000
 11
387.025900
 21
514.887000
 31
0.000000
  0
LINE
  5
448
330
1F
100
AcDbEntity
  8
0
  62
0
100
AcDbLine
 10
387.025900
 20
514.887000
 30
0.000000
 11
386.536100
 21
514.978000
 31
0.000000
  0
LINE
  5
449
330
1F
100
AcDbEntity
  8
0
  62
0
100
AcDbLine
 10
386.536100
 20
514.978000
 30
0.000000
 11
386.071500
 21
515.158000
 31
0.000000
  0
LINE
  5
450
330
1F
100
AcDbEntity
  8
0
  62
0
100
AcDbLine
 10
386.071500
 20
515.158000
 30
0.000000
 11
385.647900
 21
515.420000
 31
0.000000
  0
LINE
  5
451
330
1F
100
AcDbEntity
  8
0
  62
0
100
AcDbLine
 10
385.647900
 20
515.420000
 30
0.000000
 11
385.279700
 21
515.756000
 31
0.000000
  0
LINE
  5
452
330
1F
100
AcDbEntity
  8
0
  62
0
100
AcDbLine
 10
385.279700
 20
515.756000
 30
0.000000
 11
384.979400
 21
516.154000
 31
0.000000
  0
LINE
  5
453
330
1F
100
AcDbEntity
  8
0
  62
0
100
AcDbLine
 10
384.979400
 20
516.154000
 30
0.000000
 11
384.757300
 21
516.600000
 31
0.000000
  0
LINE
  5
454
330
1F
100
AcDbEntity
  8
0
  62
0
100
AcDbLine
 10
384.757300
 20
516.600000
 30
0.000000
 11
384.621000
 21
517.079000
 31
0.000000
  0
LINE
  5
455
330
1F
100
AcDbEntity
  8
0
  62
0
100
AcDbLine
 10
384.621000
 20
517.079000
 30
0.000000
 11
384.575000
 21
517.575000
 31
0.000000
  0
LINE
  5
456
330
1F
100
AcDbEntity
  8
0
  62
0
100
AcDbLine
 10
384.575000
 20
517.575000
 30
0.000000
 11
384.621000
 21
518.071000
 31
0.000000
  0
LINE
  5
457
330
1F
100
AcDbEntity
  8
0
  62
0
100
AcDbLine
 10
384.621000
 20
518.071000
 30
0.000000
 11
384.757300
 21
518.550000
 31
0.000000
  0
LINE
  5
458
330
1F
100
AcDbEntity
  8
0
  62
0
100
AcDbLine
 10
384.757300
 20
518.550000
 30
0.000000
 11
384.979400
 21
518.996000
 31
0.000000
  0
LINE
  5
459
330
1F
100
AcDbEntity
  8
0
  62
0
100
AcDbLine
 10
384.979400
 20
518.996000
 30
0.000000
 11
385.279700
 21
519.394000
 31
0.000000
  0
LINE
  5
460
330
1F
100
AcDbEntity
  8
0
  62
0
100
AcDbLine
 10
385.279700
 20
519.394000
 30
0.000000
 11
385.647900
 21
519.730000
 31
0.000000
  0
LINE
  5
461
330
1F
100
AcDbEntity
  8
0
  62
0
100
AcDbLine
 10
385.647900
 20
519.730000
 30
0.000000
 11
386.071500
 21
519.992000
 31
0.000000
  0
LINE
  5
462
330
1F
100
AcDbEntity
  8
0
  62
0
100
AcDbLine
 10
386.071500
 20
519.992000
 30
0.000000
 11
386.536100
 21
520.172000
 31
0.000000
  0
LINE
  5
463
330
1F
100
AcDbEntity
  8
0
  62
0
100
AcDbLine
 10
386.536100
 20
520.172000
 30
0.000000
 11
387.025900
 21
520.263000
 31
0.000000
  0
LINE
  5
464
330
1F
100
AcDbEntity
  8
0
  62
0
100
AcDbLine
 10
387.025900
 20
520.263000
 30
0.000000
 11
387.524100
 21
520.263000
 31
0.000000
  0
LINE
  5
465
330
1F
100
AcDbEntity
  8
0
  62
0
100
AcDbLine
 10
387.524100
 20
520.263000
 30
0.000000
 11
388.013900
 21
520.172000
 31
0.000000
  0
LINE
  5
466
330
1F
100
AcDbEntity
  8
0
  62
0
100
AcDbLine
 10
388.013900
 20
520.172000
 30
0.000000
 11
388.478500
 21
519.992000
 31
0.000000
  0
LINE
  5
467
330
1F
100
AcDbEntity
  8
0
  62
0
100
AcDbLine
 10
388.478500
 20
519.992000
 30
0.000000
 11
388.902100
 21
519.730000
 31
0.000000
  0
LINE
  5
468
330
1F
100
AcDbEntity
  8
0
  62
0
100
AcDbLine
 10
388.902100
 20
519.730000
 30
0.000000
 11
389.270300
 21
519.394000
 31
0.000000
  0
LINE
  5
469
330
1F
100
AcDbEntity
  8
0
  62
0
100
AcDbLine
 10
389.270300
 20
519.394000
 30
0.000000
 11
389.570600
 21
518.996000
 31
0.000000
  0
LINE
  5
470
330
1F
100
AcDbEntity
  8
0
  62
0
100
AcDbLine
 10
389.570600
 20
518.996000
 30
0.000000
 11
389.792700
 21
518.550000
 31
0.000000
  0
LINE
  5
471
330
1F
100
AcDbEntity
  8
0
  62
0
100
AcDbLine
 10
389.792700
 20
518.550000
 30
0.000000
 11
389.929000
 21
518.071000
 31
0.000000
  0
LINE
  5
472
330
1F
100
AcDbEntity
  8
0
  62
0
100
AcDbLine
 10
389.929000
 20
518.071000
 30
0.000000
 11
389.975000
 21
517.575000
 31
0.000000
  0
LINE
  5
473
330
1F
100
AcDbEntity
  8
0
  62
0
100
AcDbLine
 10
409.272200
 20
432.824000
 30
0.000000
 11
409.272200
 21
432.326000
 31
0.000000
  0
LINE
  5
474
330
1F
100
AcDbEntity
  8
0
  62
0
100
AcDbLine
 10
409.272200
 20
432.326000
 30
0.000000
 11
409.249700
 21
431.830000
 31
0.000000
  0
LINE
  5
475
330
1F
100
AcDbEntity
  8
0
  62
0
100
AcDbLine
 10
409.249700
 20
431.830000
 30
0.000000
 11
409.204800
 21
431.335000
 31
0.000000
  0
LINE
  5
476
330
1F
100
AcDbEntity
  8
0
  62
0
100
AcDbLine
 10
409.204800
 20
431.335000
 30
0.000000
 11
409.137600
 21
430.842000
 31
0.000000
  0
LINE
  5
477
330
1F
100
AcDbEntity
  8
0
  62
0
100
AcDbLine
 10
409.137600
 20
430.842000
 30
0.000000
 11
409.048200
 21
430.353000
 31
0.000000
  0
LINE
  5
478
330
1F
100
AcDbEntity
  8
0
  62
0
100
AcDbLine
 10
409.048200
 20
430.353000
 30
0.000000
 11
408.936800
 21
429.868000
 31
0.000000
  0
LINE
  5
479
330
1F
100
AcDbEntity
  8
0
  62
0
100
AcDbLine
 10
408.936800
 20
429.868000
 30
0.000000
 11
408.803600
 21
429.389000
 31
0.000000
  0
LINE
  5
480
330
1F
100
AcDbEntity
  8
0
  62
0
100
AcDbLine
 10
408.803600
 20
429.389000
 30
0.000000
 11
408.648900
 21
428.917000
 31
0.000000
  0
LINE
  5
481
330
1F
100
AcDbEntity
  8
0
  62
0
100
AcDbLine
 10
408.648900
 20
428.917000
 30
0.000000
 11
408.473000
 21
428.452000
 31
0.000000
  0
LINE
  5
482
330
1F
100
AcDbEntity
  8
0
  62
0
100
AcDbLine
 10
408.473000
 20
428.452000
 30
0.000000
 11
408.276300
 21
427.995000
 31
0.000000
  0
LINE
  5
483
330
1F
100
AcDbEntity
  8
0
  62
0
100
AcDbLine
 10
408.276300
 20
427.995000
 30
0.000000
 11
408.059100
 21
427.548000
 31
0.000000
  0
LINE
  5
484
330
1F
100
AcDbEntity
  8
0
  62
0
100
AcDbLine
 10
408.059100
 20
427.548000
 30
0.000000
 11
407.821900
 21
427.111000
 31
0.000000
  0
LINE
  5
485
330
1F
100
AcDbEntity
  8
0
  62
0
100
AcDbLine
 10
407.821900
 20
427.111000
 30
0.000000
 11
407.565300
 21
426.685000
 31
0.000000
  0
LINE
  5
486
330
1F
100
AcDbEntity
  8
0
  62
0
100
AcDbLine
 10
407.565300
 20
426.685000
 30
0.000000
 11
407.289600
 21
426.271000
 31
0.000000
  0
LINE
  5
487
330
1F
100
AcDbEntity
  8
0
  62
0
100
AcDbLine
 10
407.289600
 20
426.271000
 30
0.000000
 11
406.995600
 21
425.870000
 31
0.000000
  0
LINE
  5
488
330
1F
100
AcDbEntity
  8
0
  62
0
100
AcDbLine
 10
406.995600
 20
425.870000
 30
0.000000
 11
406.683700
 21
425.483000
 31
0.000000
  0
LINE
  5
489
330
1F
100
AcDbEntity
  8
0
  62
0
100
AcDbLine
 10
406.683700
 20
425.483000
 30
0.000000
 11
406.354700
 21
425.110000
 31
0.000000
  0
LINE
  5
490
330
1F
100
AcDbEntity
  8
0
  62
0
100
AcDbLine
 10
406.354700
 20
425.110000
 30
0.000000
 11
406.009100
 21
424.753000
 31
0.000000
  0
LINE
  5
491
330
1F
100
AcDbEntity
  8
0
  62
0
100
AcDbLine
 10
406.009100
 20
424.753000
 30
0.000000
 11
405.647700
 21
424.412000
 31
0.000000
  0
LINE
  5
492
330
1F
100
AcDbEntity
  8
0
  62
0
100
AcDbLine
 10
405.647700
 20
424.412000
 30
0.000000
 11
405.271300
 21
424.087000
 31
0.000000
  0
LINE
  5
493
330
1F
100
AcDbEntity
  8
0
  62
0
100
AcDbLine
 10
405.271300
 20
424.087000
 30
0.000000
 11
404.880600
 21
423.779000
 31
0.000000
  0
LINE
  5
494
330
1F
100
AcDbEntity
  8
0
  62
0
100
AcDbLine
 10
404.880600
 20
423.779000
 30
0.000000
 11
404.476400
 21
423.490000
 31
0.000000
  0
LINE
  5
495
330
1F
100
AcDbEntity
  8
0
  62
0
100
AcDbLine
 10
404.476400
 20
423.490000
 30
0.000000
 11
404.059500
 21
423.219000
 31
0.000000
  0
LINE
  5
496
330
1F
100
AcDbEntity
  8
0
  62
0
100
AcDbLine
 10
404.059500
 20
423.219000
 30
0.000000
 11
403.630800
 21
422.967000
 31
0.000000
  0
LINE
  5
497
330
1F
100
AcDbEntity
  8
0
  62
0
100
AcDbLine
 10
403.630800
 20
422.967000
 30
0.000000
 11
403.191200
 21
422.735000
 31
0.000000
  0
LINE
  5
498
330
1F
100
AcDbEntity
  8
0
  62
0
100
AcDbLine
 10
403.191200
 20
422.735000
 30
0.000000
 11
402.741500
 21
422.523000
 31
0.000000
  0
LINE
  5
499
330
1F
100
AcDbEntity
  8
0
  62
0
100
AcDbLine
 10
402.741500
 20
422.523000
 30
0.000000
 11
402.282700
 21
422.331000
 31
0.000000
  0
LINE
  5
500
330
1F
100
AcDbEntity
  8
0
  62
0
100
AcDbLine
 10
402.282700
 20
422.331000
 30
0.000000
 11
401.815700
 21
422.160000
 31
0.000000
  0
LINE
  5
501
330
1F
100
AcDbEntity
  8
0
  62
0
100
AcDbLine
 10
401.815700
 20
422.160000
 30
0.000000
 11
401.341500
 21
422.011000
 31
0.000000
  0
LINE
  5
502
330
1F
100
AcDbEntity
  8
0
  62
0
100
AcDbLine
 10
401.341500
 20
422.011000
 30
0.000000
 11
400.861000
 21
421.883000
 31
0.000000
  0
LINE
  5
503
330
1F
100
AcDbEntity
  8
0
  62
0
100
AcDbLine
 10
400.861000
 20
421.883000
 30
0.000000
 11
400.375300
 21
421.777000
 31
0.000000
  0
LINE
  5
504
330
1F
100
AcDbEntity
  8
0
  62
0
100
AcDbLine
 10
400.375300
 20
421.777000
 30
0.000000
 11
399.885200
 21
421.693000
 31
0.000000
  0
LINE
  5
505
330
1F
100
AcDbEntity
  8
0
  62
0
100
AcDbLine
 10
399.885200
 20
421.693000
 30
0.000000
 11
399.391800
 21
421.632000
 31
0.000000
  0
LINE
  5
506
330
1F
100
AcDbEntity
  8
0
  62
0
100
AcDbLine
 10
399.391800
 20
421.632000
 30
0.000000
 11
398.896200
 21
421.593000
 31
0.000000
  0
LINE
  5
507
330
1F
100
AcDbEntity
  8
0
  62
0
100
AcDbLine
 10
398.896200
 20
421.593000
 30
0.000000
 11
398.399300
 21
421.576000
 31
0.000000
  0
LINE
  5
508
330
1F
100
AcDbEntity
  8
0
  62
0
100
AcDbLine
 10
398.399300
 20
421.576000
 30
0.000000
 11
397.902100
 21
421.581000
 31
0.000000
  0
LINE
  5
509
330
1F
100
AcDbEntity
  8
0
  62
0
100
AcDbLine
 10
397.902100
 20
421.581000
 30
0.000000
 11
397.405800
 21
421.609000
 31
0.000000
  0
LINE
  5
510
330
1F
100
AcDbEntity
  8
0
  62
0
100
AcDbLine
 10
397.405800
 20
421.609000
 30
0.000000
 11
396.911100
 21
421.660000
 31
0.000000
  0
LINE
  5
511
330
1F
100
AcDbEntity
  8
0
  62
0
100
AcDbLine
 10
396.911100
 20
421.660000
 30
0.000000
 11
396.419300
 21
421.733000
 31
0.000000
  0
LINE
  5
512
330
1F
100
AcDbEntity
  8
0
  62
0
100
AcDbLine
 10
396.419300
 20
421.733000
 30
0.000000
 11
395.931200
 21
421.828000
 31
0.000000
  0
LINE
  5
513
330
1F
100
AcDbEntity
  8
0
  62
0
100
AcDbLine
 10
395.931200
 20
421.828000
 30
0.000000
 11
395.448000
 21
421.944000
 31
0.000000
  0
LINE
  5
514
330
1F
100
AcDbEntity
  8
0
  62
0
100
AcDbLine
 10
395.448000
 20
421.944000
 30
0.000000
 11
394.970500
 21
422.083000
 31
0.000000
  0
LINE
  5
515
330
1F
100
AcDbEntity
  8
0
  62
0
100
AcDbLine
 10
394.970500
 20
422.083000
 30
0.000000
 11
394.499800
 21
422.243000
 31
0.000000
  0
LINE
  5
516
330
1F
100
AcDbEntity
  8
0
  62
0
100
AcDbLine
 10
394.499800
 20
422.243000
 30
0.000000
 11
394.036800
 21
422.424000
 31
0.000000
  0
LINE
  5
517
330
1F
100
AcDbEntity
  8
0
  62
0
100
AcDbLine
 10
394.036800
 20
422.424000
 30
0.000000
 11
393.582400
 21
422.626000
 31
0.000000
  0
LINE
  5
518
330
1F
100
AcDbEntity
  8
0
  62
0
100
AcDbLine
 10
393.582400
 20
422.626000
 30
0.000000
 11
393.137700
 21
422.848000
 31
0.000000
  0
LINE
  5
519
330
1F
100
AcDbEntity
  8
0
  62
0
100
AcDbLine
 10
393.137700
 20
422.848000
 30
0.000000
 11
392.703400
 21
423.090000
 31
0.000000
  0
LINE
  5
520
330
1F
100
AcDbEntity
  8
0
  62
0
100
AcDbLine
 10
392.703400
 20
423.090000
 30
0.000000
 11
392.280500
 21
423.352000
 31
0.000000
  0
LINE
  5
521
330
1F
100
AcDbEntity
  8
0
  62
0
100
AcDbLine
 10
392.280500
 20
423.352000
 30
0.000000
 11
391.869800
 21
423.632000
 31
0.000000
  0
LINE
  5
522
330
1F
100
AcDbEntity
  8
0
  62
0
100
AcDbLine
 10
391.869800
 20
423.632000
 30
0.000000
 11
391.472300
 21
423.931000
 31
0.000000
  0
LINE
  5
523
330
1F
100
AcDbEntity
  8
0
  62
0
100
AcDbLine
 10
391.472300
 20
423.931000
 30
0.000000
 11
391.088600
 21
424.247000
 31
0.000000
  0
LINE
  5
524
330
1F
100
AcDbEntity
  8
0
  62
0
100
AcDbLine
 10
391.088600
 20
424.247000
 30
0.000000
 11
390.719600
 21
424.580000
 31
0.000000
  0
LINE
  5
525
330
1F
100
AcDbEntity
  8
0
  62
0
100
AcDbLine
 10
390.719600
 20
424.580000
 30
0.000000
 11
390.366100
 21
424.930000
 31
0.000000
  0
LINE
  5
526
330
1F
100
AcDbEntity
  8
0
  62
0
100
AcDbLine
 10
390.366100
 20
424.930000
 30
0.000000
 11
390.028700
 21
425.295000
 31
0.000000
  0
LINE
  5
527
330
1F
100
AcDbEntity
  8
0
  62
0
100
AcDbLine
 10
390.028700
 20
425.295000
 30
0.000000
 11
389.708200
 21
425.675000
 31
0.000000
  0
LINE
  5
528
330
1F
100
AcDbEntity
  8
0
  62
0
100
AcDbLine
 10
389.708200
 20
425.675000
 30
0.000000
 11
389.405100
 21
426.069000
 31
0.000000
  0
LINE
  5
529
330
1F
100
AcDbEntity
  8
0
  62
0
100
AcDbLine
 10
389.405100
 20
426.069000
 30
0.000000
 11
389.120200
 21
426.477000
 31
0.000000
  0
LINE
  5
530
330
1F
100
AcDbEntity
  8
0
  62
0
100
AcDbLine
 10
389.120200
 20
426.477000
 30
0.000000
 11
388.854000
 21
426.897000
 31
0.000000
  0
LINE
  5
531
330
1F
100
AcDbEntity
  8
0
  62
0
100
AcDbLine
 10
388.854000
 20
426.897000
 30
0.000000
 11
388.607000
 21
427.328000
 31
0.000000
  0
LINE
  5
532
330
1F
100
AcDbEntity
  8
0
  62
0
100
AcDbLine
 10
388.607000
 20
427.328000
 30
0.000000
 11
388.379800
 21
427.770000
 31
0.000000
  0
LINE
  5
533
330
1F
100
AcDbEntity
  8
0
  62
0
100
AcDbLine
 10
388.379800
 20
427.770000
 30
0.000000
 11
388.172800
 21
428.222000
 31
0.000000
  0
LINE
  5
534
330
1F
100
AcDbEntity
  8
0
  62
0
100
AcDbLine
 10
388.172800
 20
428.222000
 30
0.000000
 11
387.986400
 21
428.683000
 31
0.000000
  0
LINE
  5
535
330
1F
100
AcDbEntity
  8
0
  62
0
100
AcDbLine
 10
387.986400
 20
428.683000
 30
0.000000
 11
387.821100
 21
429.152000
 31
0.000000
  0
LINE
  5
536
330
1F
100
AcDbEntity
  8
0
  62
0
100
AcDbLine
 10
387.821100
 20
429.152000
 30
0.000000
 11
387.677100
 21
429.628000
 31
0.000000
  0
LINE
  5
537
330
1F
100
AcDbEntity
  8
0
  62
0
100
AcDbLine
 10
387.677100
 20
429.628000
 30
0.000000
 11
387.554800
 21
430.110000
 31
0.000000
  0
LINE
  5
538
330
1F
100
AcDbEntity
  8
0
  62
0
100
AcDbLine
 10
387.554800
 20
430.110000
 30
0.000000
 11
387.454300
 21
430.597000
 31
0.000000
  0
LINE
  5
539
330
1F
100
AcDbEntity
  8
0
  62
0
100
AcDbLine
 10
387.454300
 20
430.597000
 30
0.000000
 11
387.376000
 21
431.088000
 31
0.000000
  0
LINE
  5
540
330
1F
100
AcDbEntity
  8
0
  62
0
100
AcDbLine
 10
387.376000
 20
431.088000
 30
0.000000
 11
387.319900
 21
431.582000
 31
0.000000
  0
LINE
  5
541
330
1F
100
AcDbEntity
  8
0
  62
0
100
AcDbLine
 10
387.319900
 20
431.582000
 30
0.000000
 11
387.286200
 21
432.078000
 31
0.000000
  0
LINE
  5
542
330
1F
100
AcDbEntity
  8
0
  62
0
100
AcDbLine
 10
387.286200
 20
432.078000
 30
0.000000
 11
387.275000
 21
432.575000
 31
0.000000
  0
LINE
  5
543
330
1F
100
AcDbEntity
  8
0
  62
0
100
AcDbLine
 10
387.275000
 20
432.575000
 30
0.000000
 11
387.286200
 21
433.072000
 31
0.000000
  0
LINE
  5
544
330
1F
100
AcDbEntity
  8
0
  62
0
100
AcDbLine
 10
387.286200
 20
433.072000
 30
0.000000
 11
387.319900
 21
433.568000
 31
0.000000
  0
LINE
  5
545
330
1F
100
AcDbEntity
  8
0
  62
0
100
AcDbLine
 10
387.319900
 20
433.568000
 30
0.000000
 11
387.376000
 21
434.062000
 31
0.000000
  0
LINE
  5
546
330
1F
100
AcDbEntity
  8
0
  62
0
100
AcDbLine
 10
387.376000
 20
434.062000
 30
0.000000
 11
387.454300
 21
434.553000
 31
0.000000
  0
LINE
  5
547
330
1F
100
AcDbEntity
  8
0
  62
0
100
AcDbLine
 10
387.454300
 20
434.553000
 30
0.000000
 11
387.554800
 21
435.040000
 31
0.000000
  0
LINE
  5
548
330
1F
100
AcDbEntity
  8
0
  62
0
100
AcDbLine
 10
387.554800
 20
435.040000
 30
0.000000
 11
387.677100
 21
435.522000
 31
0.000000
  0
LINE
  5
549
330
1F
100
AcDbEntity
  8
0
  62
0
100
AcDbLine
 10
387.677100
 20
435.522000
 30
0.000000
 11
387.821100
 21
435.998000
 31
0.000000
  0
LINE
  5
550
330
1F
100
AcDbEntity
  8
0
  62
0
100
AcDbLine
 10
387.821100
 20
435.998000
 30
0.000000
 11
387.986400
 21
436.467000
 31
0.000000
  0
LINE
  5
551
330
1F
100
AcDbEntity
  8
0
  62
0
100
AcDbLine
 10
387.986400
 20
436.467000
 30
0.000000
 11
388.172800
 21
436.928000
 31
0.000000
  0
LINE
  5
552
330
1F
100
AcDbEntity
  8
0
  62
0
100
AcDbLine
 10
388.172800
 20
436.928000
 30
0.000000
 11
388.379800
 21
437.380000
 31
0.000000
  0
LINE
  5
553
330
1F
100
AcDbEntity
  8
0
  62
0
100
AcDbLine
 10
388.379800
 20
437.380000
 30
0.000000
 11
388.607000
 21
437.822000
 31
0.000000
  0
LINE
  5
554
330
1F
100
AcDbEntity
  8
0
  62
0
100
AcDbLine
 10
388.607000
 20
437.822000
 30
0.000000
 11
388.854000
 21
438.253000
 31
0.000000
  0
LINE
  5
555
330
1F
100
AcDbEntity
  8
0
  62
0
100
AcDbLine
 10
388.854000
 20
438.253000
 30
0.000000
 11
389.120200
 21
438.673000
 31
0.000000
  0
LINE
  5
556
330
1F
100
AcDbEntity
  8
0
  62
0
100
AcDbLine
 10
389.120200
 20
438.673000
 30
0.000000
 11
389.405100
 21
439.081000
 31
0.000000
  0
LINE
  5
557
330
1F
100
AcDbEntity
  8
0
  62
0
100
AcDbLine
 10
389.405100
 20
439.081000
 30
0.000000
 11
389.708200
 21
439.475000
 31
0.000000
  0
LINE
  5
558
330
1F
100
AcDbEntity
  8
0
  62
0
100
AcDbLine
 10
389.708200
 20
439.475000
 30
0.000000
 11
390.028700
 21
439.855000
 31
0.000000
  0
LINE
  5
559
330
1F
100
AcDbEntity
  8
0
  62
0
100
AcDbLine
 10
390.028700
 20
439.855000
 30
0.000000
 11
390.366100
 21
440.220000
 31
0.000000
  0
LINE
  5
560
330
1F
100
AcDbEntity
  8
0
  62
0
100
AcDbLine
 10
390.366100
 20
440.220000
 30
0.000000
 11
390.719600
 21
440.570000
 31
0.000000
  0
LINE
  5
561
330
1F
100
AcDbEntity
  8
0
  62
0
100
AcDbLine
 10
390.719600
 20
440.570000
 30
0.000000
 11
391.088600
 21
440.903000
 31
0.000000
  0
LINE
  5
562
330
1F
100
AcDbEntity
  8
0
  62
0
100
AcDbLine
 10
391.088600
 20
440.903000
 30
0.000000
 11
391.472300
 21
441.219000
 31
0.000000
  0
LINE
  5
563
330
1F
100
AcDbEntity
  8
0
  62
0
100
AcDbLine
 10
391.472300
 20
441.219000
 30
0.000000
 11
391.869800
 21
441.518000
 31
0.000000
  0
LINE
  5
564
330
1F
100
AcDbEntity
  8
0
  62
0
100
AcDbLine
 10
391.869800
 20
441.518000
 30
0.000000
 11
392.280500
 21
441.798000
 31
0.000000
  0
LINE
  5
565
330
1F
100
AcDbEntity
  8
0
  62
0
100
AcDbLine
 10
392.280500
 20
441.798000
 30
0.000000
 11
392.703400
 21
442.060000
 31
0.000000
  0
LINE
  5
566
330
1F
100
AcDbEntity
  8
0
  62
0
100
AcDbLine
 10
392.703400
 20
442.060000
 30
0.000000
 11
393.137700
 21
442.302000
 31
0.000000
  0
LINE
  5
567
330
1F
100
AcDbEntity
  8
0
  62
0
100
AcDbLine
 10
393.137700
 20
442.302000
 30
0.000000
 11
393.582400
 21
442.524000
 31
0.000000
  0
LINE
  5
568
330
1F
100
AcDbEntity
  8
0
  62
0
100
AcDbLine
 10
393.582400
 20
442.524000
 30
0.000000
 11
394.036800
 21
442.726000
 31
0.000000
  0
LINE
  5
569
330
1F
100
AcDbEntity
  8
0
  62
0
100
AcDbLine
 10
394.036800
 20
442.726000
 30
0.000000
 11
394.499800
 21
442.907000
 31
0.000000
  0
LINE
  5
570
330
1F
100
AcDbEntity
  8
0
  62
0
100
AcDbLine
 10
394.499800
 20
442.907000
 30
0.000000
 11
394.970500
 21
443.067000
 31
0.000000
  0
LINE
  5
571
330
1F
100
AcDbEntity
  8
0
  62
0
100
AcDbLine
 10
394.970500
 20
443.067000
 30
0.000000
 11
395.448000
 21
443.206000
 31
0.000000
  0
LINE
  5
572
330
1F
100
AcDbEntity
  8
0
  62
0
100
AcDbLine
 10
395.448000
 20
443.206000
 30
0.000000
 11
395.931200
 21
443.322000
 31
0.000000
  0
LINE
  5
573
330
1F
100
AcDbEntity
  8
0
  62
0
100
AcDbLine
 10
395.931200
 20
443.322000
 30
0.000000
 11
396.419300
 21
443.417000
 31
0.000000
  0
LINE
  5
574
330
1F
100
AcDbEntity
  8
0
  62
0
100
AcDbLine
 10
396.419300
 20
443.417000
 30
0.000000
 11
396.911100
 21
443.490000
 31
0.000000
  0
LINE
  5
575
330
1F
100
AcDbEntity
  8
0
  62
0
100
AcDbLine
 10
396.911100
 20
443.490000
 30
0.000000
 11
397.405800
 21
443.541000
 31
0.000000
  0
LINE
  5
576
330
1F
100
AcDbEntity
  8
0
  62
0
100
AcDbLine
 10
397.405800
 20
443.541000
 30
0.000000
 11
397.902100
 21
443.569000
 31
0.000000
  0
LINE
  5
577
330
1F
100
AcDbEntity
  8
0
  62
0
100
AcDbLine
 10
397.902100
 20
443.569000
 30
0.000000
 11
398.399300
 21
443.574000
 31
0.000000
  0
LINE
  5
578
330
1F
100
AcDbEntity
  8
0
  62
0
100
AcDbLine
 10
398.399300
 20
443.574000
 30
0.000000
 11
398.896200
 21
443.557000
 31
0.000000
  0
LINE
  5
579
330
1F
100
AcDbEntity
  8
0
  62
0
100
AcDbLine
 10
398.896200
 20
443.557000
 30
0.000000
 11
399.391800
 21
443.518000
 31
0.000000
  0
LINE
  5
580
330
1F
100
AcDbEntity
  8
0
  62
0
100
AcDbLine
 10
399.391800
 20
443.518000
 30
0.000000
 11
399.885200
 21
443.457000
 31
0.000000
  0
LINE
  5
581
330
1F
100
AcDbEntity
  8
0
  62
0
100
AcDbLine
 10
399.885200
 20
443.457000
 30
0.000000
 11
400.375300
 21
443.373000
 31
0.000000
  0
LINE
  5
582
330
1F
100
AcDbEntity
  8
0
  62
0
100
AcDbLine
 10
400.375300
 20
443.373000
 30
0.000000
 11
400.861000
 21
443.267000
 31
0.000000
  0
LINE
  5
583
330
1F
100
AcDbEntity
  8
0
  62
0
100
AcDbLine
 10
400.861000
 20
443.267000
 30
0.000000
 11
401.341500
 21
443.139000
 31
0.000000
  0
LINE
  5
584
330
1F
100
AcDbEntity
  8
0
  62
0
100
AcDbLine
 10
401.341500
 20
443.139000
 30
0.000000
 11
401.815700
 21
442.990000
 31
0.000000
  0
LINE
  5
585
330
1F
100
AcDbEntity
  8
0
  62
0
100
AcDbLine
 10
401.815700
 20
442.990000
 30
0.000000
 11
402.282700
 21
442.819000
 31
0.000000
  0
LINE
  5
586
330
1F
100
AcDbEntity
  8
0
  62
0
100
AcDbLine
 10
402.282700
 20
442.819000
 30
0.000000
 11
402.741500
 21
442.627000
 31
0.000000
  0
LINE
  5
587
330
1F
100
AcDbEntity
  8
0
  62
0
100
AcDbLine
 10
402.741500
 20
442.627000
 30
0.000000
 11
403.191200
 21
442.415000
 31
0.000000
  0
LINE
  5
588
330
1F
100
AcDbEntity
  8
0
  62
0
100
AcDbLine
 10
403.191200
 20
442.415000
 30
0.000000
 11
403.630800
 21
442.183000
 31
0.000000
  0
LINE
  5
589
330
1F
100
AcDbEntity
  8
0
  62
0
100
AcDbLine
 10
403.630800
 20
442.183000
 30
0.000000
 11
404.059500
 21
441.931000
 31
0.000000
  0
LINE
  5
590
330
1F
100
AcDbEntity
  8
0
  62
0
100
AcDbLine
 10
404.059500
 20
441.931000
 30
0.000000
 11
404.476400
 21
441.660000
 31
0.000000
  0
LINE
  5
591
330
1F
100
AcDbEntity
  8
0
  62
0
100
AcDbLine
 10
404.476400
 20
441.660000
 30
0.000000
 11
404.880600
 21
441.371000
 31
0.000000
  0
LINE
  5
592
330
1F
100
AcDbEntity
  8
0
  62
0
100
AcDbLine
 10
404.880600
 20
441.371000
 30
0.000000
 11
405.271300
 21
441.063000
 31
0.000000
  0
LINE
  5
593
330
1F
100
AcDbEntity
  8
0
  62
0
100
AcDbLine
 10
405.271300
 20
441.063000
 30
0.000000
 11
405.647700
 21
440.738000
 31
0.000000
  0
LINE
  5
594
330
1F
100
AcDbEntity
  8
0
  62
0
100
AcDbLine
 10
405.647700
 20
440.738000
 30
0.000000
 11
406.009100
 21
440.397000
 31
0.000000
  0
LINE
  5
595
330
1F
100
AcDbEntity
  8
0
  62
0
100
AcDbLine
 10
406.009100
 20
440.397000
 30
0.000000
 11
406.354700
 21
440.040000
 31
0.000000
  0
LINE
  5
596
330
1F
100
AcDbEntity
  8
0
  62
0
100
AcDbLine
 10
406.354700
 20
440.040000
 30
0.000000
 11
406.683700
 21
439.667000
 31
0.000000
  0
LINE
  5
597
330
1F
100
AcDbEntity
  8
0
  62
0
100
AcDbLine
 10
406.683700
 20
439.667000
 30
0.000000
 11
406.995600
 21
439.280000
 31
0.000000
  0
LINE
  5
598
330
1F
100
AcDbEntity
  8
0
  62
0
100
AcDbLine
 10
406.995600
 20
439.280000
 30
0.000000
 11
407.289600
 21
438.879000
 31
0.000000
  0
LINE
  5
599
330
1F
100
AcDbEntity
  8
0
  62
0
100
AcDbLine
 10
407.289600
 20
438.879000
 30
0.000000
 11
407.565300
 21
438.465000
 31
0.000000
  0
LINE
  5
600
330
1F
100
AcDbEntity
  8
0
  62
0
100
AcDbLine
 10
407.565300
 20
438.465000
 30
0.000000
 11
407.821900
 21
438.039000
 31
0.000000
  0
LINE
  5
601
330
1F
100
AcDbEntity
  8
0
  62
0
100
AcDbLine
 10
407.821900
 20
438.039000
 30
0.000000
 11
408.059100
 21
437.602000
 31
0.000000
  0
LINE
  5
602
330
1F
100
AcDbEntity
  8
0
  62
0
100
AcDbLine
 10
408.059100
 20
437.602000
 30
0.000000
 11
408.276300
 21
437.155000
 31
0.000000
  0
LINE
  5
603
330
1F
100
AcDbEntity
  8
0
  62
0
100
AcDbLine
 10
408.276300
 20
437.155000
 30
0.000000
 11
408.473000
 21
436.698000
 31
0.000000
  0
LINE
  5
604
330
1F
100
AcDbEntity
  8
0
  62
0
100
AcDbLine
 10
408.473000
 20
436.698000
 30
0.000000
 11
408.648900
 21
436.233000
 31
0.000000
  0
LINE
  5
605
330
1F
100
AcDbEntity
  8
0
  62
0
100
AcDbLine
 10
408.648900
 20
436.233000
 30
0.000000
 11
408.803600
 21
435.761000
 31
0.000000
  0
LINE
  5
606
330
1F
100
AcDbEntity
  8
0
  62
0
100
AcDbLine
 10
408.803600
 20
435.761000
 30
0.000000
 11
408.936800
 21
435.282000
 31
0.000000
  0
LINE
  5
607
330
1F
100
AcDbEntity
  8
0
  62
0
100
AcDbLine
 10
408.936800
 20
435.282000
 30
0.000000
 11
409.048200
 21
434.797000
 31
0.000000
  0
LINE
  5
608
330
1F
100
AcDbEntity
  8
0
  62
0
100
AcDbLine
 10
409.048200
 20
434.797000
 30
0.000000
 11
409.137600
 21
434.308000
 31
0.000000
  0
LINE
  5
609
330
1F
100
AcDbEntity
  8
0
  62
0
100
AcDbLine
 10
409.137600
 20
434.308000
 30
0.000000
 11
409.204800
 21
433.815000
 31
0.000000
  0
LINE
  5
610
330
1F
100
AcDbEntity
  8
0
  62
0
100
AcDbLine
 10
409.204800
 20
433.815000
 30
0.000000
 11
409.249700
 21
433.320000
 31
0.000000
  0
LINE
  5
611
330
1F
100
AcDbEntity
  8
0
  62
0
100
AcDbLine
 10
409.249700
 20
433.320000
 30
0.000000
 11
409.272200
 21
432.824000
 31
0.000000
  0
LINE
  5
612
330
1F
100
AcDbEntity
  8
0
  62
0
100
AcDbLine
 10
409.272200
 20
132.824000
 30
0.000000
 11
409.272200
 21
132.326000
 31
0.000000
  0
LINE
  5
613
330
1F
100
AcDbEntity
  8
0
  62
0
100
AcDbLine
 10
409.272200
 20
132.326000
 30
0.000000
 11
409.249700
 21
131.830000
 31
0.000000
  0
LINE
  5
614
330
1F
100
AcDbEntity
  8
0
  62
0
100
AcDbLine
 10
409.249700
 20
131.830000
 30
0.000000
 11
409.204800
 21
131.335000
 31
0.000000
  0
LINE
  5
615
330
1F
100
AcDbEntity
  8
0
  62
0
100
AcDbLine
 10
409.204800
 20
131.335000
 30
0.000000
 11
409.137600
 21
130.842000
 31
0.000000
  0
LINE
  5
616
330
1F
100
AcDbEntity
  8
0
  62
0
100
AcDbLine
 10
409.137600
 20
130.842000
 30
0.000000
 11
409.048200
 21
130.353000
 31
0.000000
  0
LINE
  5
617
330
1F
100
AcDbEntity
  8
0
  62
0
100
AcDbLine
 10
409.048200
 20
130.353000
 30
0.000000
 11
408.936800
 21
129.868000
 31
0.000000
  0
LINE
  5
618
330
1F
100
AcDbEntity
  8
0
  62
0
100
AcDbLine
 10
408.936800
 20
129.868000
 30
0.000000
 11
408.803600
 21
129.389000
 31
0.000000
  0
LINE
  5
619
330
1F
100
AcDbEntity
  8
0
  62
0
100
AcDbLine
 10
408.803600
 20
129.389000
 30
0.000000
 11
408.648900
 21
128.917000
 31
0.000000
  0
LINE
  5
620
330
1F
100
AcDbEntity
  8
0
  62
0
100
AcDbLine
 10
408.648900
 20
128.917000
 30
0.000000
 11
408.473000
 21
128.452000
 31
0.000000
  0
LINE
  5
621
330
1F
100
AcDbEntity
  8
0
  62
0
100
AcDbLine
 10
408.473000
 20
128.452000
 30
0.000000
 11
408.276300
 21
127.995000
 31
0.000000
  0
LINE
  5
622
330
1F
100
AcDbEntity
  8
0
  62
0
100
AcDbLine
 10
408.276300
 20
127.995000
 30
0.000000
 11
408.059100
 21
127.548000
 31
0.000000
  0
LINE
  5
623
330
1F
100
AcDbEntity
  8
0
  62
0
100
AcDbLine
 10
408.059100
 20
127.548000
 30
0.000000
 11
407.821900
 21
127.111000
 31
0.000000
  0
LINE
  5
624
330
1F
100
AcDbEntity
  8
0
  62
0
100
AcDbLine
 10
407.821900
 20
127.111000
 30
0.000000
 11
407.565300
 21
126.685000
 31
0.000000
  0
LINE
  5
625
330
1F
100
AcDbEntity
  8
0
  62
0
100
AcDbLine
 10
407.565300
 20
126.685000
 30
0.000000
 11
407.289600
 21
126.271000
 31
0.000000
  0
LINE
  5
626
330
1F
100
AcDbEntity
  8
0
  62
0
100
AcDbLine
 10
407.289600
 20
126.271000
 30
0.000000
 11
406.995600
 21
125.870000
 31
0.000000
  0
LINE
  5
627
330
1F
100
AcDbEntity
  8
0
  62
0
100
AcDbLine
 10
406.995600
 20
125.870000
 30
0.000000
 11
406.683700
 21
125.483000
 31
0.000000
  0
LINE
  5
628
330
1F
100
AcDbEntity
  8
0
  62
0
100
AcDbLine
 10
406.683700
 20
125.483000
 30
0.000000
 11
406.354700
 21
125.110000
 31
0.000000
  0
LINE
  5
629
330
1F
100
AcDbEntity
  8
0
  62
0
100
AcDbLine
 10
406.354700
 20
125.110000
 30
0.000000
 11
406.009100
 21
124.753000
 31
0.000000
  0
LINE
  5
630
330
1F
100
AcDbEntity
  8
0
  62
0
100
AcDbLine
 10
406.009100
 20
124.753000
 30
0.000000
 11
405.647700
 21
124.412000
 31
0.000000
  0
LINE
  5
631
330
1F
100
AcDbEntity
  8
0
  62
0
100
AcDbLine
 10
405.647700
 20
124.412000
 30
0.000000
 11
405.271300
 21
124.087000
 31
0.000000
  0
LINE
  5
632
330
1F
100
AcDbEntity
  8
0
  62
0
100
AcDbLine
 10
405.271300
 20
124.087000
 30
0.000000
 11
404.880600
 21
123.779000
 31
0.000000
  0
LINE
  5
633
330
1F
100
AcDbEntity
  8
0
  62
0
100
AcDbLine
 10
404.880600
 20
123.779000
 30
0.000000
 11
404.476400
 21
123.490000
 31
0.000000
  0
LINE
  5
634
330
1F
100
AcDbEntity
  8
0
  62
0
100
AcDbLine
 10
404.476400
 20
123.490000
 30
0.000000
 11
404.059500
 21
123.219000
 31
0.000000
  0
LINE
  5
635
330
1F
100
AcDbEntity
  8
0
  62
0
100
AcDbLine
 10
404.059500
 20
123.219000
 30
0.000000
 11
403.630800
 21
122.967000
 31
0.000000
  0
LINE
  5
636
330
1F
100
AcDbEntity
  8
0
  62
0
100
AcDbLine
 10
403.630800
 20
122.967000
 30
0.000000
 11
403.191200
 21
122.735000
 31
0.000000
  0
LINE
  5
637
330
1F
100
AcDbEntity
  8
0
  62
0
100
AcDbLine
 10
403.191200
 20
122.735000
 30
0.000000
 11
402.741500
 21
122.523000
 31
0.000000
  0
LINE
  5
638
330
1F
100
AcDbEntity
  8
0
  62
0
100
AcDbLine
 10
402.741500
 20
122.523000
 30
0.000000
 11
402.282700
 21
122.331000
 31
0.000000
  0
LINE
  5
639
330
1F
100
AcDbEntity
  8
0
  62
0
100
AcDbLine
 10
402.282700
 20
122.331000
 30
0.000000
 11
401.815700
 21
122.160000
 31
0.000000
  0
LINE
  5
640
330
1F
100
AcDbEntity
  8
0
  62
0
100
AcDbLine
 10
401.815700
 20
122.160000
 30
0.000000
 11
401.341500
 21
122.011000
 31
0.000000
  0
LINE
  5
641
330
1F
100
AcDbEntity
  8
0
  62
0
100
AcDbLine
 10
401.341500
 20
122.011000
 30
0.000000
 11
400.861000
 21
121.883000
 31
0.000000
  0
LINE
  5
642
330
1F
100
AcDbEntity
  8
0
  62
0
100
AcDbLine
 10
400.861000
 20
121.883000
 30
0.000000
 11
400.375300
 21
121.777000
 31
0.000000
  0
LINE
  5
643
330
1F
100
AcDbEntity
  8
0
  62
0
100
AcDbLine
 10
400.375300
 20
121.777000
 30
0.000000
 11
399.885200
 21
121.693000
 31
0.000000
  0
LINE
  5
644
330
1F
100
AcDbEntity
  8
0
  62
0
100
AcDbLine
 10
399.885200
 20
121.693000
 30
0.000000
 11
399.391800
 21
121.632000
 31
0.000000
  0
LINE
  5
645
330
1F
100
AcDbEntity
  8
0
  62
0
100
AcDbLine
 10
399.391800
 20
121.632000
 30
0.000000
 11
398.896200
 21
121.593000
 31
0.000000
  0
LINE
  5
646
330
1F
100
AcDbEntity
  8
0
  62
0
100
AcDbLine
 10
398.896200
 20
121.593000
 30
0.000000
 11
398.399300
 21
121.576000
 31
0.000000
  0
LINE
  5
647
330
1F
100
AcDbEntity
  8
0
  62
0
100
AcDbLine
 10
398.399300
 20
121.576000
 30
0.000000
 11
397.902100
 21
121.581000
 31
0.000000
  0
LINE
  5
648
330
1F
100
AcDbEntity
  8
0
  62
0
100
AcDbLine
 10
397.902100
 20
121.581000
 30
0.000000
 11
397.405800
 21
121.609000
 31
0.000000
  0
LINE
  5
649
330
1F
100
AcDbEntity
  8
0
  62
0
100
AcDbLine
 10
397.405800
 20
121.609000
 30
0.000000
 11
396.911100
 21
121.660000
 31
0.000000
  0
LINE
  5
650
330
1F
100
AcDbEntity
  8
0
  62
0
100
AcDbLine
 10
396.911100
 20
121.660000
 30
0.000000
 11
396.419300
 21
121.733000
 31
0.000000
  0
LINE
  5
651
330
1F
100
AcDbEntity
  8
0
  62
0
100
AcDbLine
 10
396.419300
 20
121.733000
 30
0.000000
 11
395.931200
 21
121.828000
 31
0.000000
  0
LINE
  5
652
330
1F
100
AcDbEntity
  8
0
  62
0
100
AcDbLine
 10
395.931200
 20
121.828000
 30
0.000000
 11
395.448000
 21
121.944000
 31
0.000000
  0
LINE
  5
653
330
1F
100
AcDbEntity
  8
0
  62
0
100
AcDbLine
 10
395.448000
 20
121.944000
 30
0.000000
 11
394.970500
 21
122.083000
 31
0.000000
  0
LINE
  5
654
330
1F
100
AcDbEntity
  8
0
  62
0
100
AcDbLine
 10
394.970500
 20
122.083000
 30
0.000000
 11
394.499800
 21
122.243000
 31
0.000000
  0
LINE
  5
655
330
1F
100
AcDbEntity
  8
0
  62
0
100
AcDbLine
 10
394.499800
 20
122.243000
 30
0.000000
 11
394.036800
 21
122.424000
 31
0.000000
  0
LINE
  5
656
330
1F
100
AcDbEntity
  8
0
  62
0
100
AcDbLine
 10
394.036800
 20
122.424000
 30
0.000000
 11
393.582400
 21
122.626000
 31
0.000000
  0
LINE
  5
657
330
1F
100
AcDbEntity
  8
0
  62
0
100
AcDbLine
 10
393.582400
 20
122.626000
 30
0.000000
 11
393.137700
 21
122.848000
 31
0.000000
  0
LINE
  5
658
330
1F
100
AcDbEntity
  8
0
  62
0
100
AcDbLine
 10
393.137700
 20
122.848000
 30
0.000000
 11
392.703400
 21
123.090000
 31
0.000000
  0
LINE
  5
659
330
1F
100
AcDbEntity
  8
0
  62
0
100
AcDbLine
 10
392.703400
 20
123.090000
 30
0.000000
 11
392.280500
 21
123.352000
 31
0.000000
  0
LINE
  5
660
330
1F
100
AcDbEntity
  8
0
  62
0
100
AcDbLine
 10
392.280500
 20
123.352000
 30
0.000000
 11
391.869800
 21
123.632000
 31
0.000000
  0
LINE
  5
661
330
1F
100
AcDbEntity
  8
0
  62
0
100
AcDbLine
 10
391.869800
 20
123.632000
 30
0.000000
 11
391.472300
 21
123.931000
 31
0.000000
  0
LINE
  5
662
330
1F
100
AcDbEntity
  8
0
  62
0
100
AcDbLine
 10
391.472300
 20
123.931000
 30
0.000000
 11
391.088600
 21
124.247000
 31
0.000000
  0
LINE
  5
663
330
1F
100
AcDbEntity
  8
0
  62
0
100
AcDbLine
 10
391.088600
 20
124.247000
 30
0.000000
 11
390.719600
 21
124.580000
 31
0.000000
  0
LINE
  5
664
330
1F
100
AcDbEntity
  8
0
  62
0
100
AcDbLine
 10
390.719600
 20
124.580000
 30
0.000000
 11
390.366100
 21
124.930000
 31
0.000000
  0
LINE
  5
665
330
1F
100
AcDbEntity
  8
0
  62
0
100
AcDbLine
 10
390.366100
 20
124.930000
 30
0.000000
 11
390.028700
 21
125.295000
 31
0.000000
  0
LINE
  5
666
330
1F
100
AcDbEntity
  8
0
  62
0
100
AcDbLine
 10
390.028700
 20
125.295000
 30
0.000000
 11
389.708200
 21
125.675000
 31
0.000000
  0
LINE
  5
667
330
1F
100
AcDbEntity
  8
0
  62
0
100
AcDbLine
 10
389.708200
 20
125.675000
 30
0.000000
 11
389.405100
 21
126.069000
 31
0.000000
  0
LINE
  5
668
330
1F
100
AcDbEntity
  8
0
  62
0
100
AcDbLine
 10
389.405100
 20
126.069000
 30
0.000000
 11
389.120200
 21
126.477000
 31
0.000000
  0
LINE
  5
669
330
1F
100
AcDbEntity
  8
0
  62
0
100
AcDbLine
 10
389.120200
 20
126.477000
 30
0.000000
 11
388.854000
 21
126.897000
 31
0.000000
  0
LINE
  5
670
330
1F
100
AcDbEntity
  8
0
  62
0
100
AcDbLine
 10
388.854000
 20
126.897000
 30
0.000000
 11
388.607000
 21
127.328000
 31
0.000000
  0
LINE
  5
671
330
1F
100
AcDbEntity
  8
0
  62
0
100
AcDbLine
 10
388.607000
 20
127.328000
 30
0.000000
 11
388.379800
 21
127.770000
 31
0.000000
  0
LINE
  5
672
330
1F
100
AcDbEntity
  8
0
  62
0
100
AcDbLine
 10
388.379800
 20
127.770000
 30
0.000000
 11
388.172800
 21
128.222000
 31
0.000000
  0
LINE
  5
673
330
1F
100
AcDbEntity
  8
0
  62
0
100
AcDbLine
 10
388.172800
 20
128.222000
 30
0.000000
 11
387.986400
 21
128.683000
 31
0.000000
  0
LINE
  5
674
330
1F
100
AcDbEntity
  8
0
  62
0
100
AcDbLine
 10
387.986400
 20
128.683000
 30
0.000000
 11
387.821100
 21
129.152000
 31
0.000000
  0
LINE
  5
675
330
1F
100
AcDbEntity
  8
0
  62
0
100
AcDbLine
 10
387.821100
 20
129.152000
 30
0.000000
 11
387.677100
 21
129.628000
 31
0.000000
  0
LINE
  5
676
330
1F
100
AcDbEntity
  8
0
  62
0
100
AcDbLine
 10
387.677100
 20
129.628000
 30
0.000000
 11
387.554800
 21
130.110000
 31
0.000000
  0
LINE
  5
677
330
1F
100
AcDbEntity
  8
0
  62
0
100
AcDbLine
 10
387.554800
 20
130.110000
 30
0.000000
 11
387.454300
 21
130.597000
 31
0.000000
  0
LINE
  5
678
330
1F
100
AcDbEntity
  8
0
  62
0
100
AcDbLine
 10
387.454300
 20
130.597000
 30
0.000000
 11
387.376000
 21
131.088000
 31
0.000000
  0
LINE
  5
679
330
1F
100
AcDbEntity
  8
0
  62
0
100
AcDbLine
 10
387.376000
 20
131.088000
 30
0.000000
 11
387.319900
 21
131.582000
 31
0.000000
  0
LINE
  5
680
330
1F
100
AcDbEntity
  8
0
  62
0
100
AcDbLine
 10
387.319900
 20
131.582000
 30
0.000000
 11
387.286200
 21
132.078000
 31
0.000000
  0
LINE
  5
681
330
1F
100
AcDbEntity
  8
0
  62
0
100
AcDbLine
 10
387.286200
 20
132.078000
 30
0.000000
 11
387.275000
 21
132.575000
 31
0.000000
  0
LINE
  5
682
330
1F
100
AcDbEntity
  8
0
  62
0
100
AcDbLine
 10
387.275000
 20
132.575000
 30
0.000000
 11
387.286200
 21
133.072000
 31
0.000000
  0
LINE
  5
683
330
1F
100
AcDbEntity
  8
0
  62
0
100
AcDbLine
 10
387.286200
 20
133.072000
 30
0.000000
 11
387.319900
 21
133.568000
 31
0.000000
  0
LINE
  5
684
330
1F
100
AcDbEntity
  8
0
  62
0
100
AcDbLine
 10
387.319900
 20
133.568000
 30
0.000000
 11
387.376000
 21
134.062000
 31
0.000000
  0
LINE
  5
685
330
1F
100
AcDbEntity
  8
0
  62
0
100
AcDbLine
 10
387.376000
 20
134.062000
 30
0.000000
 11
387.454300
 21
134.553000
 31
0.000000
  0
LINE
  5
686
330
1F
100
AcDbEntity
  8
0
  62
0
100
AcDbLine
 10
387.454300
 20
134.553000
 30
0.000000
 11
387.554800
 21
135.040000
 31
0.000000
  0
LINE
  5
687
330
1F
100
AcDbEntity
  8
0
  62
0
100
AcDbLine
 10
387.554800
 20
135.040000
 30
0.000000
 11
387.677100
 21
135.522000
 31
0.000000
  0
LINE
  5
688
330
1F
100
AcDbEntity
  8
0
  62
0
100
AcDbLine
 10
387.677100
 20
135.522000
 30
0.000000
 11
387.821100
 21
135.998000
 31
0.000000
  0
LINE
  5
689
330
1F
100
AcDbEntity
  8
0
  62
0
100
AcDbLine
 10
387.821100
 20
135.998000
 30
0.000000
 11
387.986400
 21
136.467000
 31
0.000000
  0
LINE
  5
690
330
1F
100
AcDbEntity
  8
0
  62
0
100
AcDbLine
 10
387.986400
 20
136.467000
 30
0.000000
 11
388.172800
 21
136.928000
 31
0.000000
  0
LINE
  5
691
330
1F
100
AcDbEntity
  8
0
  62
0
100
AcDbLine
 10
388.172800
 20
136.928000
 30
0.000000
 11
388.379800
 21
137.380000
 31
0.000000
  0
LINE
  5
692
330
1F
100
AcDbEntity
  8
0
  62
0
100
AcDbLine
 10
388.379800
 20
137.380000
 30
0.000000
 11
388.607000
 21
137.822000
 31
0.000000
  0
LINE
  5
693
330
1F
100
AcDbEntity
  8
0
  62
0
100
AcDbLine
 10
388.607000
 20
137.822000
 30
0.000000
 11
388.854000
 21
138.253000
 31
0.000000
  0
LINE
  5
694
330
1F
100
AcDbEntity
  8
0
  62
0
100
AcDbLine
 10
388.854000
 20
138.253000
 30
0.000000
 11
389.120200
 21
138.673000
 31
0.000000
  0
LINE
  5
695
330
1F
100
AcDbEntity
  8
0
  62
0
100
AcDbLine
 10
389.120200
 20
138.673000
 30
0.000000
 11
389.405100
 21
139.081000
 31
0.000000
  0
LINE
  5
696
330
1F
100
AcDbEntity
  8
0
  62
0
100
AcDbLine
 10
389.405100
 20
139.081000
 30
0.000000
 11
389.708200
 21
139.475000
 31
0.000000
  0
LINE
  5
697
330
1F
100
AcDbEntity
  8
0
  62
0
100
AcDbLine
 10
389.708200
 20
139.475000
 30
0.000000
 11
390.028700
 21
139.855000
 31
0.000000
  0
LINE
  5
698
330
1F
100
AcDbEntity
  8
0
  62
0
100
AcDbLine
 10
390.028700
 20
139.855000
 30
0.000000
 11
390.366100
 21
140.220000
 31
0.000000
  0
LINE
  5
699
330
1F
100
AcDbEntity
  8
0
  62
0
100
AcDbLine
 10
390.366100
 20
140.220000
 30
0.000000
 11
390.719600
 21
140.570000
 31
0.000000
  0
LINE
  5
700
330
1F
100
AcDbEntity
  8
0
  62
0
100
AcDbLine
 10
390.719600
 20
140.570000
 30
0.000000
 11
391.088600
 21
140.903000
 31
0.000000
  0
LINE
  5
701
330
1F
100
AcDbEntity
  8
0
  62
0
100
AcDbLine
 10
391.088600
 20
140.903000
 30
0.000000
 11
391.472300
 21
141.219000
 31
0.000000
  0
LINE
  5
702
330
1F
100
AcDbEntity
  8
0
  62
0
100
AcDbLine
 10
391.472300
 20
141.219000
 30
0.000000
 11
391.869800
 21
141.518000
 31
0.000000
  0
LINE
  5
703
330
1F
100
AcDbEntity
  8
0
  62
0
100
AcDbLine
 10
391.869800
 20
141.518000
 30
0.000000
 11
392.280500
 21
141.798000
 31
0.000000
  0
LINE
  5
704
330
1F
100
AcDbEntity
  8
0
  62
0
100
AcDbLine
 10
392.280500
 20
141.798000
 30
0.000000
 11
392.703400
 21
142.060000
 31
0.000000
  0
LINE
  5
705
330
1F
100
AcDbEntity
  8
0
  62
0
100
AcDbLine
 10
392.703400
 20
142.060000
 30
0.000000
 11
393.137700
 21
142.302000
 31
0.000000
  0
LINE
  5
706
330
1F
100
AcDbEntity
  8
0
  62
0
100
AcDbLine
 10
393.137700
 20
142.302000
 30
0.000000
 11
393.582400
 21
142.524000
 31
0.000000
  0
LINE
  5
707
330
1F
100
AcDbEntity
  8
0
  62
0
100
AcDbLine
 10
393.582400
 20
142.524000
 30
0.000000
 11
394.036800
 21
142.726000
 31
0.000000
  0
LINE
  5
708
330
1F
100
AcDbEntity
  8
0
  62
0
100
AcDbLine
 10
394.036800
 20
142.726000
 30
0.000000
 11
394.499800
 21
142.907000
 31
0.000000
  0
LINE
  5
709
330
1F
100
AcDbEntity
  8
0
  62
0
100
AcDbLine
 10
394.499800
 20
142.907000
 30
0.000000
 11
394.970500
 21
143.067000
 31
0.000000
  0
LINE
  5
710
330
1F
100
AcDbEntity
  8
0
  62
0
100
AcDbLine
 10
394.970500
 20
143.067000
 30
0.000000
 11
395.448000
 21
143.206000
 31
0.000000
  0
LINE
  5
711
330
1F
100
AcDbEntity
  8
0
  62
0
100
AcDbLine
 10
395.448000
 20
143.206000
 30
0.000000
 11
395.931200
 21
143.322000
 31
0.000000
  0
LINE
  5
712
330
1F
100
AcDbEntity
  8
0
  62
0
100
AcDbLine
 10
395.931200
 20
143.322000
 30
0.000000
 11
396.419300
 21
143.417000
 31
0.000000
  0
LINE
  5
713
330
1F
100
AcDbEntity
  8
0
  62
0
100
AcDbLine
 10
396.419300
 20
143.417000
 30
0.000000
 11
396.911100
 21
143.490000
 31
0.000000
  0
LINE
  5
714
330
1F
100
AcDbEntity
  8
0
  62
0
100
AcDbLine
 10
396.911100
 20
143.490000
 30
0.000000
 11
397.405800
 21
143.541000
 31
0.000000
  0
LINE
  5
715
330
1F
100
AcDbEntity
  8
0
  62
0
100
AcDbLine
 10
397.405800
 20
143.541000
 30
0.000000
 11
397.902100
 21
143.569000
 31
0.000000
  0
LINE
  5
716
330
1F
100
AcDbEntity
  8
0
  62
0
100
AcDbLine
 10
397.902100
 20
143.569000
 30
0.000000
 11
398.399300
 21
143.574000
 31
0.000000
  0
LINE
  5
717
330
1F
100
AcDbEntity
  8
0
  62
0
100
AcDbLine
 10
398.399300
 20
143.574000
 30
0.000000
 11
398.896200
 21
143.557000
 31
0.000000
  0
LINE
  5
718
330
1F
100
AcDbEntity
  8
0
  62
0
100
AcDbLine
 10
398.896200
 20
143.557000
 30
0.000000
 11
399.391800
 21
143.518000
 31
0.000000
  0
LINE
  5
719
330
1F
100
AcDbEntity
  8
0
  62
0
100
AcDbLine
 10
399.391800
 20
143.518000
 30
0.000000
 11
399.885200
 21
143.457000
 31
0.000000
  0
LINE
  5
720
330
1F
100
AcDbEntity
  8
0
  62
0
100
AcDbLine
 10
399.885200
 20
143.457000
 30
0.000000
 11
400.375300
 21
143.373000
 31
0.000000
  0
LINE
  5
721
330
1F
100
AcDbEntity
  8
0
  62
0
100
AcDbLine
 10
400.375300
 20
143.373000
 30
0.000000
 11
400.861000
 21
143.267000
 31
0.000000
  0
LINE
  5
722
330
1F
100
AcDbEntity
  8
0
  62
0
100
AcDbLine
 10
400.861000
 20
143.267000
 30
0.000000
 11
401.341500
 21
143.139000
 31
0.000000
  0
LINE
  5
723
330
1F
100
AcDbEntity
  8
0
  62
0
100
AcDbLine
 10
401.341500
 20
143.139000
 30
0.000000
 11
401.815700
 21
142.990000
 31
0.000000
  0
LINE
  5
724
330
1F
100
AcDbEntity
  8
0
  62
0
100
AcDbLine
 10
401.815700
 20
142.990000
 30
0.000000
 11
402.282700
 21
142.819000
 31
0.000000
  0
LINE
  5
725
330
1F
100
AcDbEntity
  8
0
  62
0
100
AcDbLine
 10
402.282700
 20
142.819000
 30
0.000000
 11
402.741500
 21
142.627000
 31
0.000000
  0
LINE
  5
726
330
1F
100
AcDbEntity
  8
0
  62
0
100
AcDbLine
 10
402.741500
 20
142.627000
 30
0.000000
 11
403.191200
 21
142.415000
 31
0.000000
  0
LINE
  5
727
330
1F
100
AcDbEntity
  8
0
  62
0
100
AcDbLine
 10
403.191200
 20
142.415000
 30
0.000000
 11
403.630800
 21
142.183000
 31
0.000000
  0
LINE
  5
728
330
1F
100
AcDbEntity
  8
0
  62
0
100
AcDbLine
 10
403.630800
 20
142.183000
 30
0.000000
 11
404.059500
 21
141.931000
 31
0.000000
  0
LINE
  5
729
330
1F
100
AcDbEntity
  8
0
  62
0
100
AcDbLine
 10
404.059500
 20
141.931000
 30
0.000000
 11
404.476400
 21
141.660000
 31
0.000000
  0
LINE
  5
730
330
1F
100
AcDbEntity
  8
0
  62
0
100
AcDbLine
 10
404.476400
 20
141.660000
 30
0.000000
 11
404.880600
 21
141.371000
 31
0.000000
  0
LINE
  5
731
330
1F
100
AcDbEntity
  8
0
  62
0
100
AcDbLine
 10
404.880600
 20
141.371000
 30
0.000000
 11
405.271300
 21
141.063000
 31
0.000000
  0
LINE
  5
732
330
1F
100
AcDbEntity
  8
0
  62
0
100
AcDbLine
 10
405.271300
 20
141.063000
 30
0.000000
 11
405.647700
 21
140.738000
 31
0.000000
  0
LINE
  5
733
330
1F
100
AcDbEntity
  8
0
  62
0
100
AcDbLine
 10
405.647700
 20
140.738000
 30
0.000000
 11
406.009100
 21
140.397000
 31
0.000000
  0
LINE
  5
734
330
1F
100
AcDbEntity
  8
0
  62
0
100
AcDbLine
 10
406.009100
 20
140.397000
 30
0.000000
 11
406.354700
 21
140.040000
 31
0.000000
  0
LINE
  5
735
330
1F
100
AcDbEntity
  8
0
  62
0
100
AcDbLine
 10
406.354700
 20
140.040000
 30
0.000000
 11
406.683700
 21
139.667000
 31
0.000000
  0
LINE
  5
736
330
1F
100
AcDbEntity
  8
0
  62
0
100
AcDbLine
 10
406.683700
 20
139.667000
 30
0.000000
 11
406.995600
 21
139.280000
 31
0.000000
  0
LINE
  5
737
330
1F
100
AcDbEntity
  8
0
  62
0
100
AcDbLine
 10
406.995600
 20
139.280000
 30
0.000000
 11
407.289600
 21
138.879000
 31
0.000000
  0
LINE
  5
738
330
1F
100
AcDbEntity
  8
0
  62
0
100
AcDbLine
 10
407.289600
 20
138.879000
 30
0.000000
 11
407.565300
 21
138.465000
 31
0.000000
  0
LINE
  5
739
330
1F
100
AcDbEntity
  8
0
  62
0
100
AcDbLine
 10
407.565300
 20
138.465000
 30
0.000000
 11
407.821900
 21
138.039000
 31
0.000000
  0
LINE
  5
740
330
1F
100
AcDbEntity
  8
0
  62
0
100
AcDbLine
 10
407.821900
 20
138.039000
 30
0.000000
 11
408.059100
 21
137.602000
 31
0.000000
  0
LINE
  5
741
330
1F
100
AcDbEntity
  8
0
  62
0
100
AcDbLine
 10
408.059100
 20
137.602000
 30
0.000000
 11
408.276300
 21
137.155000
 31
0.000000
  0
LINE
  5
742
330
1F
100
AcDbEntity
  8
0
  62
0
100
AcDbLine
 10
408.276300
 20
137.155000
 30
0.000000
 11
408.473000
 21
136.698000
 31
0.000000
  0
LINE
  5
743
330
1F
100
AcDbEntity
  8
0
  62
0
100
AcDbLine
 10
408.473000
 20
136.698000
 30
0.000000
 11
408.648900
 21
136.233000
 31
0.000000
  0
LINE
  5
744
330
1F
100
AcDbEntity
  8
0
  62
0
100
AcDbLine
 10
408.648900
 20
136.233000
 30
0.000000
 11
408.803600
 21
135.761000
 31
0.000000
  0
LINE
  5
745
330
1F
100
AcDbEntity
  8
0
  62
0
100
AcDbLine
 10
408.803600
 20
135.761000
 30
0.000000
 11
408.936800
 21
135.282000
 31
0.000000
  0
LINE
  5
746
330
1F
100
AcDbEntity
  8
0
  62
0
100
AcDbLine
 10
408.936800
 20
135.282000
 30
0.000000
 11
409.048200
 21
134.797000
 31
0.000000
  0
LINE
  5
747
330
1F
100
AcDbEntity
  8
0
  62
0
100
AcDbLine
 10
409.048200
 20
134.797000
 30
0.000000
 11
409.137600
 21
134.308000
 31
0.000000
  0
LINE
  5
748
330
1F
100
AcDbEntity
  8
0
  62
0
100
AcDbLine
 10
409.137600
 20
134.308000
 30
0.000000
 11
409.204800
 21
133.815000
 31
0.000000
  0
LINE
  5
749
330
1F
100
AcDbEntity
  8
0
  62
0
100
AcDbLine
 10
409.204800
 20
133.815000
 30
0.000000
 11
409.249700
 21
133.320000
 31
0.000000
  0
LINE
  5
750
330
1F
100
AcDbEntity
  8
0
  62
0
100
AcDbLine
 10
409.249700
 20
133.320000
 30
0.000000
 11
409.272200
 21
132.824000
 31
0.000000
  0
LINE
  5
751
330
1F
100
AcDbEntity
  8
0
  62
0
100
AcDbLine
 10
409.272200
 20
282.823581
 30
0.000000
 11
409.272200
 21
282.326419
 31
0.000000
  0
LINE
  5
752
330
1F
100
AcDbEntity
  8
0
  62
0
100
AcDbLine
 10
409.272200
 20
282.326419
 30
0.000000
 11
409.249700
 21
281.829730
 31
0.000000
  0
LINE
  5
753
330
1F
100
AcDbEntity
  8
0
  62
0
100
AcDbLine
 10
409.249700
 20
281.829730
 30
0.000000
 11
409.204800
 21
281.334580
 31
0.000000
  0
LINE
  5
754
330
1F
100
AcDbEntity
  8
0
  62
0
100
AcDbLine
 10
409.204800
 20
281.334580
 30
0.000000
 11
409.137600
 21
280.841950
 31
0.000000
  0
LINE
  5
755
330
1F
100
AcDbEntity
  8
0
  62
0
100
AcDbLine
 10
409.137600
 20
280.841950
 30
0.000000
 11
409.048200
 21
280.352860
 31
0.000000
  0
LINE
  5
756
330
1F
100
AcDbEntity
  8
0
  62
0
100
AcDbLine
 10
409.048200
 20
280.352860
 30
0.000000
 11
408.936800
 21
279.868320
 31
0.000000
  0
LINE
  5
757
330
1F
100
AcDbEntity
  8
0
  62
0
100
AcDbLine
 10
408.936800
 20
279.868320
 30
0.000000
 11
408.803600
 21
279.389320
 31
0.000000
  0
LINE
  5
758
330
1F
100
AcDbEntity
  8
0
  62
0
100
AcDbLine
 10
408.803600
 20
279.389320
 30
0.000000
 11
408.648900
 21
278.916810
 31
0.000000
  0
LINE
  5
759
330
1F
100
AcDbEntity
  8
0
  62
0
100
AcDbLine
 10
408.648900
 20
278.916810
 30
0.000000
 11
408.473000
 21
278.451770
 31
0.000000
  0
LINE
  5
760
330
1F
100
AcDbEntity
  8
0
  62
0
100
AcDbLine
 10
408.473000
 20
278.451770
 30
0.000000
 11
408.276300
 21
277.995170
 31
0.000000
  0
LINE
  5
761
330
1F
100
AcDbEntity
  8
0
  62
0
100
AcDbLine
 10
408.276300
 20
277.995170
 30
0.000000
 11
408.059100
 21
277.547920
 31
0.000000
  0
LINE
  5
762
330
1F
100
AcDbEntity
  8
0
  62
0
100
AcDbLine
 10
408.059100
 20
277.547920
 30
0.000000
 11
407.821900
 21
277.110930
 31
0.000000
  0
LINE
  5
763
330
1F
100
AcDbEntity
  8
0
  62
0
100
AcDbLine
 10
407.821900
 20
277.110930
 30
0.000000
 11
407.565300
 21
276.685110
 31
0.000000
  0
LINE
  5
764
330
1F
100
AcDbEntity
  8
0
  62
0
100
AcDbLine
 10
407.565300
 20
276.685110
 30
0.000000
 11
407.289600
 21
276.271320
 31
0.000000
  0
LINE
  5
765
330
1F
100
AcDbEntity
  8
0
  62
0
100
AcDbLine
 10
407.289600
 20
276.271320
 30
0.000000
 11
406.995600
 21
275.870410
 31
0.000000
  0
LINE
  5
766
330
1F
100
AcDbEntity
  8
0
  62
0
100
AcDbLine
 10
406.995600
 20
275.870410
 30
0.000000
 11
406.683700
 21
275.483200
 31
0.000000
  0
LINE
  5
767
330
1F
100
AcDbEntity
  8
0
  62
0
100
AcDbLine
 10
406.683700
 20
275.483200
 30
0.000000
 11
406.354700
 21
275.110480
 31
0.000000
  0
LINE
  5
768
330
1F
100
AcDbEntity
  8
0
  62
0
100
AcDbLine
 10
406.354700
 20
275.110480
 30
0.000000
 11
406.009100
 21
274.753010
 31
0.000000
  0
LINE
  5
769
330
1F
100
AcDbEntity
  8
0
  62
0
100
AcDbLine
 10
406.009100
 20
274.753010
 30
0.000000
 11
405.647700
 21
274.411520
 31
0.000000
  0
LINE
  5
770
330
1F
100
AcDbEntity
  8
0
  62
0
100
AcDbLine
 10
405.647700
 20
274.411520
 30
0.000000
 11
405.271300
 21
274.086700
 31
0.000000
  0
LINE
  5
771
330
1F
100
AcDbEntity
  8
0
  62
0
100
AcDbLine
 10
405.271300
 20
274.086700
 30
0.000000
 11
404.880600
 21
273.779220
 31
0.000000
  0
LINE
  5
772
330
1F
100
AcDbEntity
  8
0
  62
0
100
AcDbLine
 10
404.880600
 20
273.779220
 30
0.000000
 11
404.476400
 21
273.489720
 31
0.000000
  0
LINE
  5
773
330
1F
100
AcDbEntity
  8
0
  62
0
100
AcDbLine
 10
404.476400
 20
273.489720
 30
0.000000
 11
404.059500
 21
273.218770
 31
0.000000
  0
LINE
  5
774
330
1F
100
AcDbEntity
  8
0
  62
0
100
AcDbLine
 10
404.059500
 20
273.218770
 30
0.000000
 11
403.630800
 21
272.966940
 31
0.000000
  0
LINE
  5
775
330
1F
100
AcDbEntity
  8
0
  62
0
100
AcDbLine
 10
403.630800
 20
272.966940
 30
0.000000
 11
403.191200
 21
272.734740
 31
0.000000
  0
LINE
  5
776
330
1F
100
AcDbEntity
  8
0
  62
0
100
AcDbLine
 10
403.191200
 20
272.734740
 30
0.000000
 11
402.741500
 21
272.522600
 31
0.000000
  0
LINE
  5
777
330
1F
100
AcDbEntity
  8
0
  62
0
100
AcDbLine
 10
402.741500
 20
272.522600
 30
0.000000
 11
402.282700
 21
272.331100
 31
0.000000
  0
LINE
  5
778
330
1F
100
AcDbEntity
  8
0
  62
0
100
AcDbLine
 10
402.282700
 20
272.331100
 30
0.000000
 11
401.815700
 21
272.160400
 31
0.000000
  0
LINE
  5
779
330
1F
100
AcDbEntity
  8
0
  62
0
100
AcDbLine
 10
401.815700
 20
272.160400
 30
0.000000
 11
401.341500
 21
272.011100
 31
0.000000
  0
LINE
  5
780
330
1F
100
AcDbEntity
  8
0
  62
0
100
AcDbLine
 10
401.341500
 20
272.011100
 30
0.000000
 11
400.861000
 21
271.883300
 31
0.000000
  0
LINE
  5
781
330
1F
100
AcDbEntity
  8
0
  62
0
100
AcDbLine
 10
400.861000
 20
271.883300
 30
0.000000
 11
400.375300
 21
271.777400
 31
0.000000
  0
LINE
  5
782
330
1F
100
AcDbEntity
  8
0
  62
0
100
AcDbLine
 10
400.375300
 20
271.777400
 30
0.000000
 11
399.885200
 21
271.693500
 31
0.000000
  0
LINE
  5
783
330
1F
100
AcDbEntity
  8
0
  62
0
100
AcDbLine
 10
399.885200
 20
271.693500
 30
0.000000
 11
399.391800
 21
271.631900
 31
0.000000
  0
LINE
  5
784
330
1F
100
AcDbEntity
  8
0
  62
0
100
AcDbLine
 10
399.391800
 20
271.631900
 30
0.000000
 11
398.896200
 21
271.592600
 31
0.000000
  0
LINE
  5
785
330
1F
100
AcDbEntity
  8
0
  62
0
100
AcDbLine
 10
398.896200
 20
271.592600
 30
0.000000
 11
398.399300
 21
271.575700
 31
0.000000
  0
LINE
  5
786
330
1F
100
AcDbEntity
  8
0
  62
0
100
AcDbLine
 10
398.399300
 20
271.575700
 30
0.000000
 11
397.902100
 21
271.581300
 31
0.000000
  0
LINE
  5
787
330
1F
100
AcDbEntity
  8
0
  62
0
100
AcDbLine
 10
397.902100
 20
271.581300
 30
0.000000
 11
397.405800
 21
271.609400
 31
0.000000
  0
LINE
  5
788
330
1F
100
AcDbEntity
  8
0
  62
0
100
AcDbLine
 10
397.405800
 20
271.609400
 30
0.000000
 11
396.911100
 21
271.659900
 31
0.000000
  0
LINE
  5
789
330
1F
100
AcDbEntity
  8
0
  62
0
100
AcDbLine
 10
396.911100
 20
271.659900
 30
0.000000
 11
396.419300
 21
271.732700
 31
0.000000
  0
LINE
  5
790
330
1F
100
AcDbEntity
  8
0
  62
0
100
AcDbLine
 10
396.419300
 20
271.732700
 30
0.000000
 11
395.931200
 21
271.827600
 31
0.000000
  0
LINE
  5
791
330
1F
100
AcDbEntity
  8
0
  62
0
100
AcDbLine
 10
395.931200
 20
271.827600
 30
0.000000
 11
395.448000
 21
271.944500
 31
0.000000
  0
LINE
  5
792
330
1F
100
AcDbEntity
  8
0
  62
0
100
AcDbLine
 10
395.448000
 20
271.944500
 30
0.000000
 11
394.970500
 21
272.083100
 31
0.000000
  0
LINE
  5
793
330
1F
100
AcDbEntity
  8
0
  62
0
100
AcDbLine
 10
394.970500
 20
272.083100
 30
0.000000
 11
394.499800
 21
272.243100
 31
0.000000
  0
LINE
  5
794
330
1F
100
AcDbEntity
  8
0
  62
0
100
AcDbLine
 10
394.499800
 20
272.243100
 30
0.000000
 11
394.036800
 21
272.424300
 31
0.000000
  0
LINE
  5
795
330
1F
100
AcDbEntity
  8
0
  62
0
100
AcDbLine
 10
394.036800
 20
272.424300
 30
0.000000
 11
393.582400
 21
272.626150
 31
0.000000
  0
LINE
  5
796
330
1F
100
AcDbEntity
  8
0
  62
0
100
AcDbLine
 10
393.582400
 20
272.626150
 30
0.000000
 11
393.137700
 21
272.848360
 31
0.000000
  0
LINE
  5
797
330
1F
100
AcDbEntity
  8
0
  62
0
100
AcDbLine
 10
393.137700
 20
272.848360
 30
0.000000
 11
392.703400
 21
273.090430
 31
0.000000
  0
LINE
  5
798
330
1F
100
AcDbEntity
  8
0
  62
0
100
AcDbLine
 10
392.703400
 20
273.090430
 30
0.000000
 11
392.280500
 21
273.351890
 31
0.000000
  0
LINE
  5
799
330
1F
100
AcDbEntity
  8
0
  62
0
100
AcDbLine
 10
392.280500
 20
273.351890
 30
0.000000
 11
391.869800
 21
273.632190
 31
0.000000
  0
LINE
  5
800
330
1F
100
AcDbEntity
  8
0
  62
0
100
AcDbLine
 10
391.869800
 20
273.632190
 30
0.000000
 11
391.472300
 21
273.930760
 31
0.000000
  0
LINE
  5
801
330
1F
100
AcDbEntity
  8
0
  62
0
100
AcDbLine
 10
391.472300
 20
273.930760
 30
0.000000
 11
391.088600
 21
274.246980
 31
0.000000
  0
LINE
  5
802
330
1F
100
AcDbEntity
  8
0
  62
0
100
AcDbLine
 10
391.088600
 20
274.246980
 30
0.000000
 11
390.719600
 21
274.580220
 31
0.000000
  0
LINE
  5
803
330
1F
100
AcDbEntity
  8
0
  62
0
100
AcDbLine
 10
390.719600
 20
274.580220
 30
0.000000
 11
390.366100
 21
274.929800
 31
0.000000
  0
LINE
  5
804
330
1F
100
AcDbEntity
  8
0
  62
0
100
AcDbLine
 10
390.366100
 20
274.929800
 30
0.000000
 11
390.028700
 21
275.294990
 31
0.000000
  0
LINE
  5
805
330
1F
100
AcDbEntity
  8
0
  62
0
100
AcDbLine
 10
390.028700
 20
275.294990
 30
0.000000
 11
389.708200
 21
275.675050
 31
0.000000
  0
LINE
  5
806
330
1F
100
AcDbEntity
  8
0
  62
0
100
AcDbLine
 10
389.708200
 20
275.675050
 30
0.000000
 11
389.405100
 21
276.069200
 31
0.000000
  0
LINE
  5
807
330
1F
100
AcDbEntity
  8
0
  62
0
100
AcDbLine
 10
389.405100
 20
276.069200
 30
0.000000
 11
389.120200
 21
276.476660
 31
0.000000
  0
LINE
  5
808
330
1F
100
AcDbEntity
  8
0
  62
0
100
AcDbLine
 10
389.120200
 20
276.476660
 30
0.000000
 11
388.854000
 21
276.896560
 31
0.000000
  0
LINE
  5
809
330
1F
100
AcDbEntity
  8
0
  62
0
100
AcDbLine
 10
388.854000
 20
276.896560
 30
0.000000
 11
388.607000
 21
277.328080
 31
0.000000
  0
LINE
  5
810
330
1F
100
AcDbEntity
  8
0
  62
0
100
AcDbLine
 10
388.607000
 20
277.328080
 30
0.000000
 11
388.379800
 21
277.770310
 31
0.000000
  0
LINE
  5
811
330
1F
100
AcDbEntity
  8
0
  62
0
100
AcDbLine
 10
388.379800
 20
277.770310
 30
0.000000
 11
388.172800
 21
278.222350
 31
0.000000
  0
LINE
  5
812
330
1F
100
AcDbEntity
  8
0
  62
0
100
AcDbLine
 10
388.172800
 20
278.222350
 30
0.000000
 11
387.986400
 21
278.683290
 31
0.000000
  0
LINE
  5
813
330
1F
100
AcDbEntity
  8
0
  62
0
100
AcDbLine
 10
387.986400
 20
278.683290
 30
0.000000
 11
387.821100
 21
279.152180
 31
0.000000
  0
LINE
  5
814
330
1F
100
AcDbEntity
  8
0
  62
0
100
AcDbLine
 10
387.821100
 20
279.152180
 30
0.000000
 11
387.677100
 21
279.628070
 31
0.000000
  0
LINE
  5
815
330
1F
100
AcDbEntity
  8
0
  62
0
100
AcDbLine
 10
387.677100
 20
279.628070
 30
0.000000
 11
387.554800
 21
280.109970
 31
0.000000
  0
LINE
  5
816
330
1F
100
AcDbEntity
  8
0
  62
0
100
AcDbLine
 10
387.554800
 20
280.109970
 30
0.000000
 11
387.454300
 21
280.596910
 31
0.000000
  0
LINE
  5
817
330
1F
100
AcDbEntity
  8
0
  62
0
100
AcDbLine
 10
387.454300
 20
280.596910
 30
0.000000
 11
387.376000
 21
281.087880
 31
0.000000
  0
LINE
  5
818
330
1F
100
AcDbEntity
  8
0
  62
0
100
AcDbLine
 10
387.376000
 20
281.087880
 30
0.000000
 11
387.319900
 21
281.581897
 31
0.000000
  0
LINE
  5
819
330
1F
100
AcDbEntity
  8
0
  62
0
100
AcDbLine
 10
387.319900
 20
281.581897
 30
0.000000
 11
387.286200
 21
282.077945
 31
0.000000
  0
LINE
  5
820
330
1F
100
AcDbEntity
  8
0
  62
0
100
AcDbLine
 10
387.286200
 20
282.077945
 30
0.000000
 11
387.275000
 21
282.575000
 31
0.000000
  0
LINE
  5
821
330
1F
100
AcDbEntity
  8
0
  62
0
100
AcDbLine
 10
387.275000
 20
282.575000
 30
0.000000
 11
387.286200
 21
283.072055
 31
0.000000
  0
LINE
  5
822
330
1F
100
AcDbEntity
  8
0
  62
0
100
AcDbLine
 10
387.286200
 20
283.072055
 30
0.000000
 11
387.319900
 21
283.568103
 31
0.000000
  0
LINE
  5
823
330
1F
100
AcDbEntity
  8
0
  62
0
100
AcDbLine
 10
387.319900
 20
283.568103
 30
0.000000
 11
387.376000
 21
284.062120
 31
0.000000
  0
LINE
  5
824
330
1F
100
AcDbEntity
  8
0
  62
0
100
AcDbLine
 10
387.376000
 20
284.062120
 30
0.000000
 11
387.454300
 21
284.553090
 31
0.000000
  0
LINE
  5
825
330
1F
100
AcDbEntity
  8
0
  62
0
100
AcDbLine
 10
387.454300
 20
284.553090
 30
0.000000
 11
387.554800
 21
285.040030
 31
0.000000
  0
LINE
  5
826
330
1F
100
AcDbEntity
  8
0
  62
0
100
AcDbLine
 10
387.554800
 20
285.040030
 30
0.000000
 11
387.677100
 21
285.521930
 31
0.000000
  0
LINE
  5
827
330
1F
100
AcDbEntity
  8
0
  62
0
100
AcDbLine
 10
387.677100
 20
285.521930
 30
0.000000
 11
387.821100
 21
285.997820
 31
0.000000
  0
LINE
  5
828
330
1F
100
AcDbEntity
  8
0
  62
0
100
AcDbLine
 10
387.821100
 20
285.997820
 30
0.000000
 11
387.986400
 21
286.466710
 31
0.000000
  0
LINE
  5
829
330
1F
100
AcDbEntity
  8
0
  62
0
100
AcDbLine
 10
387.986400
 20
286.466710
 30
0.000000
 11
388.172800
 21
286.927650
 31
0.000000
  0
LINE
  5
830
330
1F
100
AcDbEntity
  8
0
  62
0
100
AcDbLine
 10
388.172800
 20
286.927650
 30
0.000000
 11
388.379800
 21
287.379690
 31
0.000000
  0
LINE
  5
831
330
1F
100
AcDbEntity
  8
0
  62
0
100
AcDbLine
 10
388.379800
 20
287.379690
 30
0.000000
 11
388.607000
 21
287.821920
 31
0.000000
  0
LINE
  5
832
330
1F
100
AcDbEntity
  8
0
  62
0
100
AcDbLine
 10
388.607000
 20
287.821920
 30
0.000000
 11
388.854000
 21
288.253440
 31
0.000000
  0
LINE
  5
833
330
1F
100
AcDbEntity
  8
0
  62
0
100
AcDbLine
 10
388.854000
 20
288.253440
 30
0.000000
 11
389.120200
 21
288.673340
 31
0.000000
  0
LINE
  5
834
330
1F
100
AcDbEntity
  8
0
  62
0
100
AcDbLine
 10
389.120200
 20
288.673340
 30
0.000000
 11
389.405100
 21
289.080800
 31
0.000000
  0
LINE
  5
835
330
1F
100
AcDbEntity
  8
0
  62
0
100
AcDbLine
 10
389.405100
 20
289.080800
 30
0.000000
 11
389.708200
 21
289.474950
 31
0.000000
  0
LINE
  5
836
330
1F
100
AcDbEntity
  8
0
  62
0
100
AcDbLine
 10
389.708200
 20
289.474950
 30
0.000000
 11
390.028700
 21
289.855010
 31
0.000000
  0
LINE
  5
837
330
1F
100
AcDbEntity
  8
0
  62
0
100
AcDbLine
 10
390.028700
 20
289.855010
 30
0.000000
 11
390.366100
 21
290.220200
 31
0.000000
  0
LINE
  5
838
330
1F
100
AcDbEntity
  8
0
  62
0
100
AcDbLine
 10
390.366100
 20
290.220200
 30
0.000000
 11
390.719600
 21
290.569780
 31
0.000000
  0
LINE
  5
839
330
1F
100
AcDbEntity
  8
0
  62
0
100
AcDbLine
 10
390.719600
 20
290.569780
 30
0.000000
 11
391.088600
 21
290.903020
 31
0.000000
  0
LINE
  5
840
330
1F
100
AcDbEntity
  8
0
  62
0
100
AcDbLine
 10
391.088600
 20
290.903020
 30
0.000000
 11
391.472300
 21
291.219240
 31
0.000000
  0
LINE
  5
841
330
1F
100
AcDbEntity
  8
0
  62
0
100
AcDbLine
 10
391.472300
 20
291.219240
 30
0.000000
 11
391.869800
 21
291.517810
 31
0.000000
  0
LINE
  5
842
330
1F
100
AcDbEntity
  8
0
  62
0
100
AcDbLine
 10
391.869800
 20
291.517810
 30
0.000000
 11
392.280500
 21
291.798110
 31
0.000000
  0
LINE
  5
843
330
1F
100
AcDbEntity
  8
0
  62
0
100
AcDbLine
 10
392.280500
 20
291.798110
 30
0.000000
 11
392.703400
 21
292.059570
 31
0.000000
  0
LINE
  5
844
330
1F
100
AcDbEntity
  8
0
  62
0
100
AcDbLine
 10
392.703400
 20
292.059570
 30
0.000000
 11
393.137700
 21
292.301640
 31
0.000000
  0
LINE
  5
845
330
1F
100
AcDbEntity
  8
0
  62
0
100
AcDbLine
 10
393.137700
 20
292.301640
 30
0.000000
 11
393.582400
 21
292.523850
 31
0.000000
  0
LINE
  5
846
330
1F
100
AcDbEntity
  8
0
  62
0
100
AcDbLine
 10
393.582400
 20
292.523850
 30
0.000000
 11
394.036800
 21
292.725700
 31
0.000000
  0
LINE
  5
847
330
1F
100
AcDbEntity
  8
0
  62
0
100
AcDbLine
 10
394.036800
 20
292.725700
 30
0.000000
 11
394.499800
 21
292.906900
 31
0.000000
  0
LINE
  5
848
330
1F
100
AcDbEntity
  8
0
  62
0
100
AcDbLine
 10
394.499800
 20
292.906900
 30
0.000000
 11
394.970500
 21
293.066900
 31
0.000000
  0
LINE
  5
849
330
1F
100
AcDbEntity
  8
0
  62
0
100
AcDbLine
 10
394.970500
 20
293.066900
 30
0.000000
 11
395.448000
 21
293.205500
 31
0.000000
  0
LINE
  5
850
330
1F
100
AcDbEntity
  8
0
  62
0
100
AcDbLine
 10
395.448000
 20
293.205500
 30
0.000000
 11
395.931200
 21
293.322400
 31
0.000000
  0
LINE
  5
851
330
1F
100
AcDbEntity
  8
0
  62
0
100
AcDbLine
 10
395.931200
 20
293.322400
 30
0.000000
 11
396.419300
 21
293.417300
 31
0.000000
  0
LINE
  5
852
330
1F
100
AcDbEntity
  8
0
  62
0
100
AcDbLine
 10
396.419300
 20
293.417300
 30
0.000000
 11
396.911100
 21
293.490100
 31
0.000000
  0
LINE
  5
853
330
1F
100
AcDbEntity
  8
0
  62
0
100
AcDbLine
 10
396.911100
 20
293.490100
 30
0.000000
 11
397.405800
 21
293.540600
 31
0.000000
  0
LINE
  5
854
330
1F
100
AcDbEntity
  8
0
  62
0
100
AcDbLine
 10
397.405800
 20
293.540600
 30
0.000000
 11
397.902100
 21
293.568700
 31
0.000000
  0
LINE
  5
855
330
1F
100
AcDbEntity
  8
0
  62
0
100
AcDbLine
 10
397.902100
 20
293.568700
 30
0.000000
 11
398.399300
 21
293.574300
 31
0.000000
  0
LINE
  5
856
330
1F
100
AcDbEntity
  8
0
  62
0
100
AcDbLine
 10
398.399300
 20
293.574300
 30
0.000000
 11
398.896200
 21
293.557400
 31
0.000000
  0
LINE
  5
857
330
1F
100
AcDbEntity
  8
0
  62
0
100
AcDbLine
 10
398.896200
 20
293.557400
 30
0.000000
 11
399.391800
 21
293.518100
 31
0.000000
  0
LINE
  5
858
330
1F
100
AcDbEntity
  8
0
  62
0
100
AcDbLine
 10
399.391800
 20
293.518100
 30
0.000000
 11
399.885200
 21
293.456500
 31
0.000000
  0
LINE
  5
859
330
1F
100
AcDbEntity
  8
0
  62
0
100
AcDbLine
 10
399.885200
 20
293.456500
 30
0.000000
 11
400.375300
 21
293.372600
 31
0.000000
  0
LINE
  5
860
330
1F
100
AcDbEntity
  8
0
  62
0
100
AcDbLine
 10
400.375300
 20
293.372600
 30
0.000000
 11
400.861000
 21
293.266700
 31
0.000000
  0
LINE
  5
861
330
1F
100
AcDbEntity
  8
0
  62
0
100
AcDbLine
 10
400.861000
 20
293.266700
 30
0.000000
 11
401.341500
 21
293.138900
 31
0.000000
  0
LINE
  5
862
330
1F
100
AcDbEntity
  8
0
  62
0
100
AcDbLine
 10
401.341500
 20
293.138900
 30
0.000000
 11
401.815700
 21
292.989600
 31
0.000000
  0
LINE
  5
863
330
1F
100
AcDbEntity
  8
0
  62
0
100
AcDbLine
 10
401.815700
 20
292.989600
 30
0.000000
 11
402.282700
 21
292.818900
 31
0.000000
  0
LINE
  5
864
330
1F
100
AcDbEntity
  8
0
  62
0
100
AcDbLine
 10
402.282700
 20
292.818900
 30
0.000000
 11
402.741500
 21
292.627400
 31
0.000000
  0
LINE
  5
865
330
1F
100
AcDbEntity
  8
0
  62
0
100
AcDbLine
 10
402.741500
 20
292.627400
 30
0.000000
 11
403.191200
 21
292.415260
 31
0.000000
  0
LINE
  5
866
330
1F
100
AcDbEntity
  8
0
  62
0
100
AcDbLine
 10
403.191200
 20
292.415260
 30
0.000000
 11
403.630800
 21
292.183060
 31
0.000000
  0
LINE
  5
867
330
1F
100
AcDbEntity
  8
0
  62
0
100
AcDbLine
 10
403.630800
 20
292.183060
 30
0.000000
 11
404.059500
 21
291.931230
 31
0.000000
  0
LINE
  5
868
330
1F
100
AcDbEntity
  8
0
  62
0
100
AcDbLine
 10
404.059500
 20
291.931230
 30
0.000000
 11
404.476400
 21
291.660280
 31
0.000000
  0
LINE
  5
869
330
1F
100
AcDbEntity
  8
0
  62
0
100
AcDbLine
 10
404.476400
 20
291.660280
 30
0.000000
 11
404.880600
 21
291.370780
 31
0.000000
  0
LINE
  5
870
330
1F
100
AcDbEntity
  8
0
  62
0
100
AcDbLine
 10
404.880600
 20
291.370780
 30
0.000000
 11
405.271300
 21
291.063300
 31
0.000000
  0
LINE
  5
871
330
1F
100
AcDbEntity
  8
0
  62
0
100
AcDbLine
 10
405.271300
 20
291.063300
 30
0.000000
 11
405.647700
 21
290.738480
 31
0.000000
  0
LINE
  5
872
330
1F
100
AcDbEntity
  8
0
  62
0
100
AcDbLine
 10
405.647700
 20
290.738480
 30
0.000000
 11
406.009100
 21
290.396990
 31
0.000000
  0
LINE
  5
873
330
1F
100
AcDbEntity
  8
0
  62
0
100
AcDbLine
 10
406.009100
 20
290.396990
 30
0.000000
 11
406.354700
 21
290.039520
 31
0.000000
  0
LINE
  5
874
330
1F
100
AcDbEntity
  8
0
  62
0
100
AcDbLine
 10
406.354700
 20
290.039520
 30
0.000000
 11
406.683700
 21
289.666800
 31
0.000000
  0
LINE
  5
875
330
1F
100
AcDbEntity
  8
0
  62
0
100
AcDbLine
 10
406.683700
 20
289.666800
 30
0.000000
 11
406.995600
 21
289.279590
 31
0.000000
  0
LINE
  5
876
330
1F
100
AcDbEntity
  8
0
  62
0
100
AcDbLine
 10
406.995600
 20
289.279590
 30
0.000000
 11
407.289600
 21
288.878680
 31
0.000000
  0
LINE
  5
877
330
1F
100
AcDbEntity
  8
0
  62
0
100
AcDbLine
 10
407.289600
 20
288.878680
 30
0.000000
 11
407.565300
 21
288.464890
 31
0.000000
  0
LINE
  5
878
330
1F
100
AcDbEntity
  8
0
  62
0
100
AcDbLine
 10
407.565300
 20
288.464890
 30
0.000000
 11
407.821900
 21
288.039070
 31
0.000000
  0
LINE
  5
879
330
1F
100
AcDbEntity
  8
0
  62
0
100
AcDbLine
 10
407.821900
 20
288.039070
 30
0.000000
 11
408.059100
 21
287.602080
 31
0.000000
  0
LINE
  5
880
330
1F
100
AcDbEntity
  8
0
  62
0
100
AcDbLine
 10
408.059100
 20
287.602080
 30
0.000000
 11
408.276300
 21
287.154830
 31
0.000000
  0
LINE
  5
881
330
1F
100
AcDbEntity
  8
0
  62
0
100
AcDbLine
 10
408.276300
 20
287.154830
 30
0.000000
 11
408.473000
 21
286.698230
 31
0.000000
  0
LINE
  5
882
330
1F
100
AcDbEntity
  8
0
  62
0
100
AcDbLine
 10
408.473000
 20
286.698230
 30
0.000000
 11
408.648900
 21
286.233190
 31
0.000000
  0
LINE
  5
883
330
1F
100
AcDbEntity
  8
0
  62
0
100
AcDbLine
 10
408.648900
 20
286.233190
 30
0.000000
 11
408.803600
 21
285.760680
 31
0.000000
  0
LINE
  5
884
330
1F
100
AcDbEntity
  8
0
  62
0
100
AcDbLine
 10
408.803600
 20
285.760680
 30
0.000000
 11
408.936800
 21
285.281680
 31
0.000000
  0
LINE
  5
885
330
1F
100
AcDbEntity
  8
0
  62
0
100
AcDbLine
 10
408.936800
 20
285.281680
 30
0.000000
 11
409.048200
 21
284.797140
 31
0.000000
  0
LINE
  5
886
330
1F
100
AcDbEntity
  8
0
  62
0
100
AcDbLine
 10
409.048200
 20
284.797140
 30
0.000000
 11
409.137600
 21
284.308050
 31
0.000000
  0
LINE
  5
887
330
1F
100
AcDbEntity
  8
0
  62
0
100
AcDbLine
 10
409.137600
 20
284.308050
 30
0.000000
 11
409.204800
 21
283.815420
 31
0.000000
  0
LINE
  5
888
330
1F
100
AcDbEntity
  8
0
  62
0
100
AcDbLine
 10
409.204800
 20
283.815420
 30
0.000000
 11
409.249700
 21
283.320270
 31
0.000000
  0
LINE
  5
889
330
1F
100
AcDbEntity
  8
0
  62
0
100
AcDbLine
 10
409.249700
 20
283.320270
 30
0.000000
 11
409.272200
 21
282.823581
 31
0.000000
  0
LINE
  5
890
330
1F
100
AcDbEntity
  8
0
  62
0
100
AcDbLine
 10
403.268800
 20
380.824200
 30
0.000000
 11
403.268800
 21
380.325800
 31
0.000000
  0
LINE
  5
891
330
1F
100
AcDbEntity
  8
0
  62
0
100
AcDbLine
 10
403.268800
 20
380.325800
 30
0.000000
 11
403.219200
 21
379.829800
 31
0.000000
  0
LINE
  5
892
330
1F
100
AcDbEntity
  8
0
  62
0
100
AcDbLine
 10
403.219200
 20
379.829800
 30
0.000000
 11
403.120400
 21
379.341200
 31
0.000000
  0
LINE
  5
893
330
1F
100
AcDbEntity
  8
0
  62
0
100
AcDbLine
 10
403.120400
 20
379.341200
 30
0.000000
 11
402.973500
 21
378.864900
 31
0.000000
  0
LINE
  5
894
330
1F
100
AcDbEntity
  8
0
  62
0
100
AcDbLine
 10
402.973500
 20
378.864900
 30
0.000000
 11
402.779800
 21
378.405600
 31
0.000000
  0
LINE
  5
895
330
1F
100
AcDbEntity
  8
0
  62
0
100
AcDbLine
 10
402.779800
 20
378.405600
 30
0.000000
 11
402.541400
 21
377.967800
 31
0.000000
  0
LINE
  5
896
330
1F
100
AcDbEntity
  8
0
  62
0
100
AcDbLine
 10
402.541400
 20
377.967800
 30
0.000000
 11
402.260700
 21
377.556000
 31
0.000000
  0
LINE
  5
897
330
1F
100
AcDbEntity
  8
0
  62
0
100
AcDbLine
 10
402.260700
 20
377.556000
 30
0.000000
 11
401.940300
 21
377.174100
 31
0.000000
  0
LINE
  5
898
330
1F
100
AcDbEntity
  8
0
  62
0
100
AcDbLine
 10
401.940300
 20
377.174100
 30
0.000000
 11
401.583400
 21
376.826100
 31
0.000000
  0
LINE
  5
899
330
1F
100
AcDbEntity
  8
0
  62
0
100
AcDbLine
 10
401.583400
 20
376.826100
 30
0.000000
 11
401.193700
 21
376.515300
 31
0.000000
  0
LINE
  5
900
330
1F
100
AcDbEntity
  8
0
  62
0
100
AcDbLine
 10
401.193700
 20
376.515300
 30
0.000000
 11
400.775000
 21
376.244900
 31
0.000000
  0
LINE
  5
901
330
1F
100
AcDbEntity
  8
0
  62
0
100
AcDbLine
 10
400.775000
 20
376.244900
 30
0.000000
 11
400.331400
 21
376.017500
 31
0.000000
  0
LINE
  5
902
330
1F
100
AcDbEntity
  8
0
  62
0
100
AcDbLine
 10
400.331400
 20
376.017500
 30
0.000000
 11
399.867400
 21
375.835400
 31
0.000000
  0
LINE
  5
903
330
1F
100
AcDbEntity
  8
0
  62
0
100
AcDbLine
 10
399.867400
 20
375.835400
 30
0.000000
 11
399.387600
 21
375.700400
 31
0.000000
  0
LINE
  5
904
330
1F
100
AcDbEntity
  8
0
  62
0
100
AcDbLine
 10
399.387600
 20
375.700400
 30
0.000000
 11
398.896700
 21
375.613800
 31
0.000000
  0
LINE
  5
905
330
1F
100
AcDbEntity
  8
0
  62
0
100
AcDbLine
 10
398.896700
 20
375.613800
 30
0.000000
 11
398.399600
 21
375.576600
 31
0.000000
  0
LINE
  5
906
330
1F
100
AcDbEntity
  8
0
  62
0
100
AcDbLine
 10
398.399600
 20
375.576600
 30
0.000000
 11
397.901300
 21
375.589000
 31
0.000000
  0
LINE
  5
907
330
1F
100
AcDbEntity
  8
0
  62
0
100
AcDbLine
 10
397.901300
 20
375.589000
 30
0.000000
 11
397.406800
 21
375.651000
 31
0.000000
  0
LINE
  5
908
330
1F
100
AcDbEntity
  8
0
  62
0
100
AcDbLine
 10
397.406800
 20
375.651000
 30
0.000000
 11
396.920800
 21
375.761900
 31
0.000000
  0
LINE
  5
909
330
1F
100
AcDbEntity
  8
0
  62
0
100
AcDbLine
 10
396.920800
 20
375.761900
 30
0.000000
 11
396.448300
 21
375.920600
 31
0.000000
  0
LINE
  5
910
330
1F
100
AcDbEntity
  8
0
  62
0
100
AcDbLine
 10
396.448300
 20
375.920600
 30
0.000000
 11
395.993900
 21
376.125600
 31
0.000000
  0
LINE
  5
911
330
1F
100
AcDbEntity
  8
0
  62
0
100
AcDbLine
 10
395.993900
 20
376.125600
 30
0.000000
 11
395.562300
 21
376.374900
 31
0.000000
  0
LINE
  5
912
330
1F
100
AcDbEntity
  8
0
  62
0
100
AcDbLine
 10
395.562300
 20
376.374900
 30
0.000000
 11
395.157600
 21
376.665800
 31
0.000000
  0
LINE
  5
913
330
1F
100
AcDbEntity
  8
0
  62
0
100
AcDbLine
 10
395.157600
 20
376.665800
 30
0.000000
 11
394.783800
 21
376.995700
 31
0.000000
  0
LINE
  5
914
330
1F
100
AcDbEntity
  8
0
  62
0
100
AcDbLine
 10
394.783800
 20
376.995700
 30
0.000000
 11
394.444800
 21
377.361100
 31
0.000000
  0
LINE
  5
915
330
1F
100
AcDbEntity
  8
0
  62
0
100
AcDbLine
 10
394.444800
 20
377.361100
 30
0.000000
 11
394.143800
 21
377.758400
 31
0.000000
  0
LINE
  5
916
330
1F
100
AcDbEntity
  8
0
  62
0
100
AcDbLine
 10
394.143800
 20
377.758400
 30
0.000000
 11
393.883900
 21
378.183700
 31
0.000000
  0
LINE
  5
917
330
1F
100
AcDbEntity
  8
0
  62
0
100
AcDbLine
 10
393.883900
 20
378.183700
 30
0.000000
 11
393.667600
 21
378.632800
 31
0.000000
  0
LINE
  5
918
330
1F
100
AcDbEntity
  8
0
  62
0
100
AcDbLine
 10
393.667600
 20
378.632800
 30
0.000000
 11
393.497100
 21
379.101200
 31
0.000000
  0
LINE
  5
919
330
1F
100
AcDbEntity
  8
0
  62
0
100
AcDbLine
 10
393.497100
 20
379.101200
 30
0.000000
 11
393.374100
 21
379.584300
 31
0.000000
  0
LINE
  5
920
330
1F
100
AcDbEntity
  8
0
  62
0
100
AcDbLine
 10
393.374100
 20
379.584300
 30
0.000000
 11
393.299800
 21
380.077200
 31
0.000000
  0
LINE
  5
921
330
1F
100
AcDbEntity
  8
0
  62
0
100
AcDbLine
 10
393.299800
 20
380.077200
 30
0.000000
 11
393.275000
 21
380.575000
 31
0.000000
  0
LINE
  5
922
330
1F
100
AcDbEntity
  8
0
  62
0
100
AcDbLine
 10
393.275000
 20
380.575000
 30
0.000000
 11
393.299800
 21
381.072800
 31
0.000000
  0
LINE
  5
923
330
1F
100
AcDbEntity
  8
0
  62
0
100
AcDbLine
 10
393.299800
 20
381.072800
 30
0.000000
 11
393.374100
 21
381.565700
 31
0.000000
  0
LINE
  5
924
330
1F
100
AcDbEntity
  8
0
  62
0
100
AcDbLine
 10
393.374100
 20
381.565700
 30
0.000000
 11
393.497100
 21
382.048800
 31
0.000000
  0
LINE
  5
925
330
1F
100
AcDbEntity
  8
0
  62
0
100
AcDbLine
 10
393.497100
 20
382.048800
 30
0.000000
 11
393.667600
 21
382.517200
 31
0.000000
  0
LINE
  5
926
330
1F
100
AcDbEntity
  8
0
  62
0
100
AcDbLine
 10
393.667600
 20
382.517200
 30
0.000000
 11
393.883900
 21
382.966000
 31
0.000000
  0
LINE
  5
927
330
1F
100
AcDbEntity
  8
0
  62
0
100
AcDbLine
 10
393.883900
 20
382.966000
 30
0.000000
 11
394.143800
 21
383.392000
 31
0.000000
  0
LINE
  5
928
330
1F
100
AcDbEntity
  8
0
  62
0
100
AcDbLine
 10
394.143800
 20
383.392000
 30
0.000000
 11
394.444800
 21
383.789000
 31
0.000000
  0
LINE
  5
929
330
1F
100
AcDbEntity
  8
0
  62
0
100
AcDbLine
 10
394.444800
 20
383.789000
 30
0.000000
 11
394.783800
 21
384.154000
 31
0.000000
  0
LINE
  5
930
330
1F
100
AcDbEntity
  8
0
  62
0
100
AcDbLine
 10
394.783800
 20
384.154000
 30
0.000000
 11
395.157600
 21
384.484000
 31
0.000000
  0
LINE
  5
931
330
1F
100
AcDbEntity
  8
0
  62
0
100
AcDbLine
 10
395.157600
 20
384.484000
 30
0.000000
 11
395.562300
 21
384.775000
 31
0.000000
  0
LINE
  5
932
330
1F
100
AcDbEntity
  8
0
  62
0
100
AcDbLine
 10
395.562300
 20
384.775000
 30
0.000000
 11
395.993900
 21
385.024000
 31
0.000000
  0
LINE
  5
933
330
1F
100
AcDbEntity
  8
0
  62
0
100
AcDbLine
 10
395.993900
 20
385.024000
 30
0.000000
 11
396.448300
 21
385.229000
 31
0.000000
  0
LINE
  5
934
330
1F
100
AcDbEntity
  8
0
  62
0
100
AcDbLine
 10
396.448300
 20
385.229000
 30
0.000000
 11
396.920800
 21
385.388000
 31
0.000000
  0
LINE
  5
935
330
1F
100
AcDbEntity
  8
0
  62
0
100
AcDbLine
 10
396.920800
 20
385.388000
 30
0.000000
 11
397.406800
 21
385.499000
 31
0.000000
  0
LINE
  5
936
330
1F
100
AcDbEntity
  8
0
  62
0
100
AcDbLine
 10
397.406800
 20
385.499000
 30
0.000000
 11
397.901300
 21
385.561000
 31
0.000000
  0
LINE
  5
937
330
1F
100
AcDbEntity
  8
0
  62
0
100
AcDbLine
 10
397.901300
 20
385.561000
 30
0.000000
 11
398.399600
 21
385.573000
 31
0.000000
  0
LINE
  5
938
330
1F
100
AcDbEntity
  8
0
  62
0
100
AcDbLine
 10
398.399600
 20
385.573000
 30
0.000000
 11
398.896700
 21
385.536000
 31
0.000000
  0
LINE
  5
939
330
1F
100
AcDbEntity
  8
0
  62
0
100
AcDbLine
 10
398.896700
 20
385.536000
 30
0.000000
 11
399.387600
 21
385.450000
 31
0.000000
  0
LINE
  5
940
330
1F
100
AcDbEntity
  8
0
  62
0
100
AcDbLine
 10
399.387600
 20
385.450000
 30
0.000000
 11
399.867400
 21
385.315000
 31
0.000000
  0
LINE
  5
941
330
1F
100
AcDbEntity
  8
0
  62
0
100
AcDbLine
 10
399.867400
 20
385.315000
 30
0.000000
 11
400.331400
 21
385.133000
 31
0.000000
  0
LINE
  5
942
330
1F
100
AcDbEntity
  8
0
  62
0
100
AcDbLine
 10
400.331400
 20
385.133000
 30
0.000000
 11
400.775000
 21
384.905000
 31
0.000000
  0
LINE
  5
943
330
1F
100
AcDbEntity
  8
0
  62
0
100
AcDbLine
 10
400.775000
 20
384.905000
 30
0.000000
 11
401.193700
 21
384.635000
 31
0.000000
  0
LINE
  5
944
330
1F
100
AcDbEntity
  8
0
  62
0
100
AcDbLine
 10
401.193700
 20
384.635000
 30
0.000000
 11
401.583400
 21
384.324000
 31
0.000000
  0
LINE
  5
945
330
1F
100
AcDbEntity
  8
0
  62
0
100
AcDbLine
 10
401.583400
 20
384.324000
 30
0.000000
 11
401.940300
 21
383.976000
 31
0.000000
  0
LINE
  5
946
330
1F
100
AcDbEntity
  8
0
  62
0
100
AcDbLine
 10
401.940300
 20
383.976000
 30
0.000000
 11
402.260700
 21
383.594000
 31
0.000000
  0
LINE
  5
947
330
1F
100
AcDbEntity
  8
0
  62
0
100
AcDbLine
 10
402.260700
 20
383.594000
 30
0.000000
 11
402.541400
 21
383.182000
 31
0.000000
  0
LINE
  5
948
330
1F
100
AcDbEntity
  8
0
  62
0
100
AcDbLine
 10
402.541400
 20
383.182000
 30
0.000000
 11
402.779800
 21
382.744000
 31
0.000000
  0
LINE
  5
949
330
1F
100
AcDbEntity
  8
0
  62
0
100
AcDbLine
 10
402.779800
 20
382.744000
 30
0.000000
 11
402.973500
 21
382.285100
 31
0.000000
  0
LINE
  5
950
330
1F
100
AcDbEntity
  8
0
  62
0
100
AcDbLine
 10
402.973500
 20
382.285100
 30
0.000000
 11
403.120400
 21
381.808800
 31
0.000000
  0
LINE
  5
951
330
1F
100
AcDbEntity
  8
0
  62
0
100
AcDbLine
 10
403.120400
 20
381.808800
 30
0.000000
 11
403.219200
 21
381.320200
 31
0.000000
  0
LINE
  5
952
330
1F
100
AcDbEntity
  8
0
  62
0
100
AcDbLine
 10
403.219200
 20
381.320200
 30
0.000000
 11
403.268800
 21
380.824200
 31
0.000000
  0
LINE
  5
953
330
1F
100
AcDbEntity
  8
0
  62
0
100
AcDbLine
 10
403.268800
 20
184.824200
 30
0.000000
 11
403.268800
 21
184.325800
 31
0.000000
  0
LINE
  5
954
330
1F
100
AcDbEntity
  8
0
  62
0
100
AcDbLine
 10
403.268800
 20
184.325800
 30
0.000000
 11
403.219200
 21
183.829800
 31
0.000000
  0
LINE
  5
955
330
1F
100
AcDbEntity
  8
0
  62
0
100
AcDbLine
 10
403.219200
 20
183.829800
 30
0.000000
 11
403.120400
 21
183.341200
 31
0.000000
  0
LINE
  5
956
330
1F
100
AcDbEntity
  8
0
  62
0
100
AcDbLine
 10
403.120400
 20
183.341200
 30
0.000000
 11
402.973500
 21
182.864900
 31
0.000000
  0
LINE
  5
957
330
1F
100
AcDbEntity
  8
0
  62
0
100
AcDbLine
 10
402.973500
 20
182.864900
 30
0.000000
 11
402.779800
 21
182.406000
 31
0.000000
  0
LINE
  5
958
330
1F
100
AcDbEntity
  8
0
  62
0
100
AcDbLine
 10
402.779800
 20
182.406000
 30
0.000000
 11
402.541400
 21
181.968000
 31
0.000000
  0
LINE
  5
959
330
1F
100
AcDbEntity
  8
0
  62
0
100
AcDbLine
 10
402.541400
 20
181.968000
 30
0.000000
 11
402.260700
 21
181.556000
 31
0.000000
  0
LINE
  5
960
330
1F
100
AcDbEntity
  8
0
  62
0
100
AcDbLine
 10
402.260700
 20
181.556000
 30
0.000000
 11
401.940300
 21
181.174000
 31
0.000000
  0
LINE
  5
961
330
1F
100
AcDbEntity
  8
0
  62
0
100
AcDbLine
 10
401.940300
 20
181.174000
 30
0.000000
 11
401.583400
 21
180.826000
 31
0.000000
  0
LINE
  5
962
330
1F
100
AcDbEntity
  8
0
  62
0
100
AcDbLine
 10
401.583400
 20
180.826000
 30
0.000000
 11
401.193700
 21
180.515000
 31
0.000000
  0
LINE
  5
963
330
1F
100
AcDbEntity
  8
0
  62
0
100
AcDbLine
 10
401.193700
 20
180.515000
 30
0.000000
 11
400.775000
 21
180.245000
 31
0.000000
  0
LINE
  5
964
330
1F
100
AcDbEntity
  8
0
  62
0
100
AcDbLine
 10
400.775000
 20
180.245000
 30
0.000000
 11
400.331400
 21
180.017000
 31
0.000000
  0
LINE
  5
965
330
1F
100
AcDbEntity
  8
0
  62
0
100
AcDbLine
 10
400.331400
 20
180.017000
 30
0.000000
 11
399.867400
 21
179.835000
 31
0.000000
  0
LINE
  5
966
330
1F
100
AcDbEntity
  8
0
  62
0
100
AcDbLine
 10
399.867400
 20
179.835000
 30
0.000000
 11
399.387600
 21
179.700000
 31
0.000000
  0
LINE
  5
967
330
1F
100
AcDbEntity
  8
0
  62
0
100
AcDbLine
 10
399.387600
 20
179.700000
 30
0.000000
 11
398.896700
 21
179.614000
 31
0.000000
  0
LINE
  5
968
330
1F
100
AcDbEntity
  8
0
  62
0
100
AcDbLine
 10
398.896700
 20
179.614000
 30
0.000000
 11
398.399600
 21
179.577000
 31
0.000000
  0
LINE
  5
969
330
1F
100
AcDbEntity
  8
0
  62
0
100
AcDbLine
 10
398.399600
 20
179.577000
 30
0.000000
 11
397.901300
 21
179.589000
 31
0.000000
  0
LINE
  5
970
330
1F
100
AcDbEntity
  8
0
  62
0
100
AcDbLine
 10
397.901300
 20
179.589000
 30
0.000000
 11
397.406800
 21
179.651000
 31
0.000000
  0
LINE
  5
971
330
1F
100
AcDbEntity
  8
0
  62
0
100
AcDbLine
 10
397.406800
 20
179.651000
 30
0.000000
 11
396.920800
 21
179.762000
 31
0.000000
  0
LINE
  5
972
330
1F
100
AcDbEntity
  8
0
  62
0
100
AcDbLine
 10
396.920800
 20
179.762000
 30
0.000000
 11
396.448300
 21
179.921000
 31
0.000000
  0
LINE
  5
973
330
1F
100
AcDbEntity
  8
0
  62
0
100
AcDbLine
 10
396.448300
 20
179.921000
 30
0.000000
 11
395.993900
 21
180.126000
 31
0.000000
  0
LINE
  5
974
330
1F
100
AcDbEntity
  8
0
  62
0
100
AcDbLine
 10
395.993900
 20
180.126000
 30
0.000000
 11
395.562300
 21
180.375000
 31
0.000000
  0
LINE
  5
975
330
1F
100
AcDbEntity
  8
0
  62
0
100
AcDbLine
 10
395.562300
 20
180.375000
 30
0.000000
 11
395.157600
 21
180.666000
 31
0.000000
  0
LINE
  5
976
330
1F
100
AcDbEntity
  8
0
  62
0
100
AcDbLine
 10
395.157600
 20
180.666000
 30
0.000000
 11
394.783800
 21
180.996000
 31
0.000000
  0
LINE
  5
977
330
1F
100
AcDbEntity
  8
0
  62
0
100
AcDbLine
 10
394.783800
 20
180.996000
 30
0.000000
 11
394.444800
 21
181.361000
 31
0.000000
  0
LINE
  5
978
330
1F
100
AcDbEntity
  8
0
  62
0
100
AcDbLine
 10
394.444800
 20
181.361000
 30
0.000000
 11
394.143800
 21
181.758000
 31
0.000000
  0
LINE
  5
979
330
1F
100
AcDbEntity
  8
0
  62
0
100
AcDbLine
 10
394.143800
 20
181.758000
 30
0.000000
 11
393.883900
 21
182.184000
 31
0.000000
  0
LINE
  5
980
330
1F
100
AcDbEntity
  8
0
  62
0
100
AcDbLine
 10
393.883900
 20
182.184000
 30
0.000000
 11
393.667600
 21
182.632800
 31
0.000000
  0
LINE
  5
981
330
1F
100
AcDbEntity
  8
0
  62
0
100
AcDbLine
 10
393.667600
 20
182.632800
 30
0.000000
 11
393.497100
 21
183.101200
 31
0.000000
  0
LINE
  5
982
330
1F
100
AcDbEntity
  8
0
  62
0
100
AcDbLine
 10
393.497100
 20
183.101200
 30
0.000000
 11
393.374100
 21
183.584300
 31
0.000000
  0
LINE
  5
983
330
1F
100
AcDbEntity
  8
0
  62
0
100
AcDbLine
 10
393.374100
 20
183.584300
 30
0.000000
 11
393.299800
 21
184.077200
 31
0.000000
  0
LINE
  5
984
330
1F
100
AcDbEntity
  8
0
  62
0
100
AcDbLine
 10
393.299800
 20
184.077200
 30
0.000000
 11
393.275000
 21
184.575000
 31
0.000000
  0
LINE
  5
985
330
1F
100
AcDbEntity
  8
0
  62
0
100
AcDbLine
 10
393.275000
 20
184.575000
 30
0.000000
 11
393.299800
 21
185.072800
 31
0.000000
  0
LINE
  5
986
330
1F
100
AcDbEntity
  8
0
  62
0
100
AcDbLine
 10
393.299800
 20
185.072800
 30
0.000000
 11
393.374100
 21
185.565700
 31
0.000000
  0
LINE
  5
987
330
1F
100
AcDbEntity
  8
0
  62
0
100
AcDbLine
 10
393.374100
 20
185.565700
 30
0.000000
 11
393.497100
 21
186.048800
 31
0.000000
  0
LINE
  5
988
330
1F
100
AcDbEntity
  8
0
  62
0
100
AcDbLine
 10
393.497100
 20
186.048800
 30
0.000000
 11
393.667600
 21
186.517200
 31
0.000000
  0
LINE
  5
989
330
1F
100
AcDbEntity
  8
0
  62
0
100
AcDbLine
 10
393.667600
 20
186.517200
 30
0.000000
 11
393.883900
 21
186.966300
 31
0.000000
  0
LINE
  5
990
330
1F
100
AcDbEntity
  8
0
  62
0
100
AcDbLine
 10
393.883900
 20
186.966300
 30
0.000000
 11
394.143800
 21
187.391600
 31
0.000000
  0
LINE
  5
991
330
1F
100
AcDbEntity
  8
0
  62
0
100
AcDbLine
 10
394.143800
 20
187.391600
 30
0.000000
 11
394.444800
 21
187.788900
 31
0.000000
  0
LINE
  5
992
330
1F
100
AcDbEntity
  8
0
  62
0
100
AcDbLine
 10
394.444800
 20
187.788900
 30
0.000000
 11
394.783800
 21
188.154300
 31
0.000000
  0
LINE
  5
993
330
1F
100
AcDbEntity
  8
0
  62
0
100
AcDbLine
 10
394.783800
 20
188.154300
 30
0.000000
 11
395.157600
 21
188.484200
 31
0.000000
  0
LINE
  5
994
330
1F
100
AcDbEntity
  8
0
  62
0
100
AcDbLine
 10
395.157600
 20
188.484200
 30
0.000000
 11
395.562300
 21
188.775100
 31
0.000000
  0
LINE
  5
995
330
1F
100
AcDbEntity
  8
0
  62
0
100
AcDbLine
 10
395.562300
 20
188.775100
 30
0.000000
 11
395.993900
 21
189.024400
 31
0.000000
  0
LINE
  5
996
330
1F
100
AcDbEntity
  8
0
  62
0
100
AcDbLine
 10
395.993900
 20
189.024400
 30
0.000000
 11
396.448300
 21
189.229400
 31
0.000000
  0
LINE
  5
997
330
1F
100
AcDbEntity
  8
0
  62
0
100
AcDbLine
 10
396.448300
 20
189.229400
 30
0.000000
 11
396.920800
 21
189.388100
 31
0.000000
  0
LINE
  5
998
330
1F
100
AcDbEntity
  8
0
  62
0
100
AcDbLine
 10
396.920800
 20
189.388100
 30
0.000000
 11
397.406800
 21
189.499000
 31
0.000000
  0
LINE
  5
999
330
1F
100
AcDbEntity
  8
0
  62
0
100
AcDbLine
 10
397.406800
 20
189.499000
 30
0.000000
 11
397.901300
 21
189.561000
 31
0.000000
  0
LINE
  5
1000
330
1F
100
AcDbEntity
  8
0
  62
0
100
AcDbLine
 10
397.901300
 20
189.561000
 30
0.000000
 11
398.399600
 21
189.573400
 31
0.000000
  0
LINE
  5
1001
330
1F
100
AcDbEntity
  8
0
  62
0
100
AcDbLine
 10
398.399600
 20
189.573400
 30
0.000000
 11
398.896700
 21
189.536200
 31
0.000000
  0
LINE
  5
1002
330
1F
100
AcDbEntity
  8
0
  62
0
100
AcDbLine
 10
398.896700
 20
189.536200
 30
0.000000
 11
399.387600
 21
189.449600
 31
0.000000
  0
LINE
  5
1003
330
1F
100
AcDbEntity
  8
0
  62
0
100
AcDbLine
 10
399.387600
 20
189.449600
 30
0.000000
 11
399.867400
 21
189.314600
 31
0.000000
  0
LINE
  5
1004
330
1F
100
AcDbEntity
  8
0
  62
0
100
AcDbLine
 10
399.867400
 20
189.314600
 30
0.000000
 11
400.331400
 21
189.132500
 31
0.000000
  0
LINE
  5
1005
330
1F
100
AcDbEntity
  8
0
  62
0
100
AcDbLine
 10
400.331400
 20
189.132500
 30
0.000000
 11
400.775000
 21
188.905100
 31
0.000000
  0
LINE
  5
1006
330
1F
100
AcDbEntity
  8
0
  62
0
100
AcDbLine
 10
400.775000
 20
188.905100
 30
0.000000
 11
401.193700
 21
188.634700
 31
0.000000
  0
LINE
  5
1007
330
1F
100
AcDbEntity
  8
0
  62
0
100
AcDbLine
 10
401.193700
 20
188.634700
 30
0.000000
 11
401.583400
 21
188.323900
 31
0.000000
  0
LINE
  5
1008
330
1F
100
AcDbEntity
  8
0
  62
0
100
AcDbLine
 10
401.583400
 20
188.323900
 30
0.000000
 11
401.940300
 21
187.975900
 31
0.000000
  0
LINE
  5
1009
330
1F
100
AcDbEntity
  8
0
  62
0
100
AcDbLine
 10
401.940300
 20
187.975900
 30
0.000000
 11
402.260700
 21
187.594000
 31
0.000000
  0
LINE
  5
1010
330
1F
100
AcDbEntity
  8
0
  62
0
100
AcDbLine
 10
402.260700
 20
187.594000
 30
0.000000
 11
402.541400
 21
187.182200
 31
0.000000
  0
LINE
  5
1011
330
1F
100
AcDbEntity
  8
0
  62
0
100
AcDbLine
 10
402.541400
 20
187.182200
 30
0.000000
 11
402.779800
 21
186.744400
 31
0.000000
  0
LINE
  5
1012
330
1F
100
AcDbEntity
  8
0
  62
0
100
AcDbLine
 10
402.779800
 20
186.744400
 30
0.000000
 11
402.973500
 21
186.285100
 31
0.000000
  0
LINE
  5
1013
330
1F
100
AcDbEntity
  8
0
  62
0
100
AcDbLine
 10
402.973500
 20
186.285100
 30
0.000000
 11
403.120400
 21
185.808800
 31
0.000000
  0
LINE
  5
1014
330
1F
100
AcDbEntity
  8
0
  62
0
100
AcDbLine
 10
403.120400
 20
185.808800
 30
0.000000
 11
403.219200
 21
185.320200
 31
0.000000
  0
LINE
  5
1015
330
1F
100
AcDbEntity
  8
0
  62
0
100
AcDbLine
 10
403.219200
 20
185.320200
 30
0.000000
 11
403.268800
 21
184.824200
 31
0.000000
  0
LINE
  5
1016
330
1F
100
AcDbEntity
  8
0
  62
0
100
AcDbLine
 10
400.775000
 20
392.575000
 30
0.000000
 11
400.775000
 21
390.575000
 31
0.000000
  0
LINE
  5
1017
330
1F
100
AcDbEntity
  8
0
  62
0
100
AcDbLine
 10
400.775000
 20
390.575000
 30
0.000000
 11
395.775000
 21
390.575000
 31
0.000000
  0
LINE
  5
1018
330
1F
100
AcDbEntity
  8
0
  62
0
100
AcDbLine
 10
395.775000
 20
390.575000
 30
0.000000
 11
395.775000
 21
392.575000
 31
0.000000
  0
LINE
  5
1019
330
1F
100
AcDbEntity
  8
0
  62
0
100
AcDbLine
 10
395.775000
 20
392.575000
 30
0.000000
 11
400.775000
 21
392.575000
 31
0.000000
  0
LINE
  5
1020
330
1F
100
AcDbEntity
  8
0
  62
0
100
AcDbLine
 10
400.775000
 20
196.575000
 30
0.000000
 11
400.775000
 21
194.575000
 31
0.000000
  0
LINE
  5
1021
330
1F
100
AcDbEntity
  8
0
  62
0
100
AcDbLine
 10
400.775000
 20
194.575000
 30
0.000000
 11
395.775000
 21
194.575000
 31
0.000000
  0
LINE
  5
1022
330
1F
100
AcDbEntity
  8
0
  62
0
100
AcDbLine
 10
395.775000
 20
194.575000
 30
0.000000
 11
395.775000
 21
196.575000
 31
0.000000
  0
LINE
  5
1023
330
1F
100
AcDbEntity
  8
0
  62
0
100
AcDbLine
 10
395.775000
 20
196.575000
 30
0.000000
 11
400.775000
 21
196.575000
 31
0.000000
  0
LINE
  5
1024
330
1F
100
AcDbEntity
  8
0
  62
0
100
AcDbLine
 10
400.775000
 20
370.575000
 30
0.000000
 11
400.775000
 21
368.575000
 31
0.000000
  0
LINE
  5
1025
330
1F
100
AcDbEntity
  8
0
  62
0
100
AcDbLine
 10
400.775000
 20
368.575000
 30
0.000000
 11
395.775000
 21
368.575000
 31
0.000000
  0
LINE
  5
1026
330
1F
100
AcDbEntity
  8
0
  62
0
100
AcDbLine
 10
395.775000
 20
368.575000
 30
0.000000
 11
395.775000
 21
370.575000
 31
0.000000
  0
LINE
  5
1027
330
1F
100
AcDbEntity
  8
0
  62
0
100
AcDbLine
 10
395.775000
 20
370.575000
 30
0.000000
 11
400.775000
 21
370.575000
 31
0.000000
  0
LINE
  5
1028
330
1F
100
AcDbEntity
  8
0
  62
0
100
AcDbLine
 10
400.775000
 20
174.575000
 30
0.000000
 11
400.775000
 21
172.575000
 31
0.000000
  0
LINE
  5
1029
330
1F
100
AcDbEntity
  8
0
  62
0
100
AcDbLine
 10
400.775000
 20
172.575000
 30
0.000000
 11
395.775000
 21
172.575000
 31
0.000000
  0
LINE
  5
1030
330
1F
100
AcDbEntity
  8
0
  62
0
100
AcDbLine
 10
395.775000
 20
172.575000
 30
0.000000
 11
395.775000
 21
174.575000
 31
0.000000
  0
LINE
  5
1031
330
1F
100
AcDbEntity
  8
0
  62
0
100
AcDbLine
 10
395.775000
 20
174.575000
 30
0.000000
 11
400.775000
 21
174.575000
 31
0.000000
  0
LINE
  5
1032
330
1F
100
AcDbEntity
  8
0
  62
0
100
AcDbLine
 10
399.975000
 20
446.775000
 30
0.000000
 11
399.906100
 21
446.296000
 31
0.000000
  0
LINE
  5
1033
330
1F
100
AcDbEntity
  8
0
  62
0
100
AcDbLine
 10
399.906100
 20
446.296000
 30
0.000000
 11
399.705100
 21
445.856000
 31
0.000000
  0
LINE
  5
1034
330
1F
100
AcDbEntity
  8
0
  62
0
100
AcDbLine
 10
399.705100
 20
445.856000
 30
0.000000
 11
399.388300
 21
445.490000
 31
0.000000
  0
LINE
  5
1035
330
1F
100
AcDbEntity
  8
0
  62
0
100
AcDbLine
 10
399.388300
 20
445.490000
 30
0.000000
 11
398.981200
 21
445.229000
 31
0.000000
  0
LINE
  5
1036
330
1F
100
AcDbEntity
  8
0
  62
0
100
AcDbLine
 10
398.981200
 20
445.229000
 30
0.000000
 11
398.516900
 21
445.092000
 31
0.000000
  0
LINE
  5
1037
330
1F
100
AcDbEntity
  8
0
  62
0
100
AcDbLine
 10
398.516900
 20
445.092000
 30
0.000000
 11
398.033100
 21
445.092000
 31
0.000000
  0
LINE
  5
1038
330
1F
100
AcDbEntity
  8
0
  62
0
100
AcDbLine
 10
398.033100
 20
445.092000
 30
0.000000
 11
397.568800
 21
445.229000
 31
0.000000
  0
LINE
  5
1039
330
1F
100
AcDbEntity
  8
0
  62
0
100
AcDbLine
 10
397.568800
 20
445.229000
 30
0.000000
 11
397.161700
 21
445.490000
 31
0.000000
  0
LINE
  5
1040
330
1F
100
AcDbEntity
  8
0
  62
0
100
AcDbLine
 10
397.161700
 20
445.490000
 30
0.000000
 11
396.844900
 21
445.856000
 31
0.000000
  0
LINE
  5
1041
330
1F
100
AcDbEntity
  8
0
  62
0
100
AcDbLine
 10
396.844900
 20
445.856000
 30
0.000000
 11
396.643900
 21
446.296000
 31
0.000000
  0
LINE
  5
1042
330
1F
100
AcDbEntity
  8
0
  62
0
100
AcDbLine
 10
396.643900
 20
446.296000
 30
0.000000
 11
396.575000
 21
446.775000
 31
0.000000
  0
LINE
  5
1043
330
1F
100
AcDbEntity
  8
0
  62
0
100
AcDbLine
 10
396.575000
 20
446.775000
 30
0.000000
 11
396.643900
 21
447.254000
 31
0.000000
  0
LINE
  5
1044
330
1F
100
AcDbEntity
  8
0
  62
0
100
AcDbLine
 10
396.643900
 20
447.254000
 30
0.000000
 11
396.844900
 21
447.694000
 31
0.000000
  0
LINE
  5
1045
330
1F
100
AcDbEntity
  8
0
  62
0
100
AcDbLine
 10
396.844900
 20
447.694000
 30
0.000000
 11
397.161700
 21
448.060000
 31
0.000000
  0
LINE
  5
1046
330
1F
100
AcDbEntity
  8
0
  62
0
100
AcDbLine
 10
397.161700
 20
448.060000
 30
0.000000
 11
397.568800
 21
448.321000
 31
0.000000
  0
LINE
  5
1047
330
1F
100
AcDbEntity
  8
0
  62
0
100
AcDbLine
 10
397.568800
 20
448.321000
 30
0.000000
 11
398.033100
 21
448.458000
 31
0.000000
  0
LINE
  5
1048
330
1F
100
AcDbEntity
  8
0
  62
0
100
AcDbLine
 10
398.033100
 20
448.458000
 30
0.000000
 11
398.516900
 21
448.458000
 31
0.000000
  0
LINE
  5
1049
330
1F
100
AcDbEntity
  8
0
  62
0
100
AcDbLine
 10
398.516900
 20
448.458000
 30
0.000000
 11
398.981200
 21
448.321000
 31
0.000000
  0
LINE
  5
1050
330
1F
100
AcDbEntity
  8
0
  62
0
100
AcDbLine
 10
398.981200
 20
448.321000
 30
0.000000
 11
399.388300
 21
448.060000
 31
0.000000
  0
LINE
  5
1051
330
1F
100
AcDbEntity
  8
0
  62
0
100
AcDbLine
 10
399.388300
 20
448.060000
 30
0.000000
 11
399.705100
 21
447.694000
 31
0.000000
  0
LINE
  5
1052
330
1F
100
AcDbEntity
  8
0
  62
0
100
AcDbLine
 10
399.705100
 20
447.694000
 30
0.000000
 11
399.906100
 21
447.254000
 31
0.000000
  0
LINE
  5
1053
330
1F
100
AcDbEntity
  8
0
  62
0
100
AcDbLine
 10
399.906100
 20
447.254000
 30
0.000000
 11
399.975000
 21
446.775000
 31
0.000000
  0
LINE
  5
1054
330
1F
100
AcDbEntity
  8
0
  62
0
100
AcDbLine
 10
399.975000
 20
418.375000
 30
0.000000
 11
399.906100
 21
417.896000
 31
0.000000
  0
LINE
  5
1055
330
1F
100
AcDbEntity
  8
0
  62
0
100
AcDbLine
 10
399.906100
 20
417.896000
 30
0.000000
 11
399.705100
 21
417.456000
 31
0.000000
  0
LINE
  5
1056
330
1F
100
AcDbEntity
  8
0
  62
0
100
AcDbLine
 10
399.705100
 20
417.456000
 30
0.000000
 11
399.388300
 21
417.090000
 31
0.000000
  0
LINE
  5
1057
330
1F
100
AcDbEntity
  8
0
  62
0
100
AcDbLine
 10
399.388300
 20
417.090000
 30
0.000000
 11
398.981200
 21
416.829000
 31
0.000000
  0
LINE
  5
1058
330
1F
100
AcDbEntity
  8
0
  62
0
100
AcDbLine
 10
398.981200
 20
416.829000
 30
0.000000
 11
398.516900
 21
416.692000
 31
0.000000
  0
LINE
  5
1059
330
1F
100
AcDbEntity
  8
0
  62
0
100
AcDbLine
 10
398.516900
 20
416.692000
 30
0.000000
 11
398.033100
 21
416.692000
 31
0.000000
  0
LINE
  5
1060
330
1F
100
AcDbEntity
  8
0
  62
0
100
AcDbLine
 10
398.033100
 20
416.692000
 30
0.000000
 11
397.568800
 21
416.829000
 31
0.000000
  0
LINE
  5
1061
330
1F
100
AcDbEntity
  8
0
  62
0
100
AcDbLine
 10
397.568800
 20
416.829000
 30
0.000000
 11
397.161700
 21
417.090000
 31
0.000000
  0
LINE
  5
1062
330
1F
100
AcDbEntity
  8
0
  62
0
100
AcDbLine
 10
397.161700
 20
417.090000
 30
0.000000
 11
396.844900
 21
417.456000
 31
0.000000
  0
LINE
  5
1063
330
1F
100
AcDbEntity
  8
0
  62
0
100
AcDbLine
 10
396.844900
 20
417.456000
 30
0.000000
 11
396.643900
 21
417.896000
 31
0.000000
  0
LINE
  5
1064
330
1F
100
AcDbEntity
  8
0
  62
0
100
AcDbLine
 10
396.643900
 20
417.896000
 30
0.000000
 11
396.575000
 21
418.375000
 31
0.000000
  0
LINE
  5
1065
330
1F
100
AcDbEntity
  8
0
  62
0
100
AcDbLine
 10
396.575000
 20
418.375000
 30
0.000000
 11
396.643900
 21
418.854000
 31
0.000000
  0
LINE
  5
1066
330
1F
100
AcDbEntity
  8
0
  62
0
100
AcDbLine
 10
396.643900
 20
418.854000
 30
0.000000
 11
396.844900
 21
419.294000
 31
0.000000
  0
LINE
  5
1067
330
1F
100
AcDbEntity
  8
0
  62
0
100
AcDbLine
 10
396.844900
 20
419.294000
 30
0.000000
 11
397.161700
 21
419.660000
 31
0.000000
  0
LINE
  5
1068
330
1F
100
AcDbEntity
  8
0
  62
0
100
AcDbLine
 10
397.161700
 20
419.660000
 30
0.000000
 11
397.568800
 21
419.921000
 31
0.000000
  0
LINE
  5
1069
330
1F
100
AcDbEntity
  8
0
  62
0
100
AcDbLine
 10
397.568800
 20
419.921000
 30
0.000000
 11
398.033100
 21
420.058000
 31
0.000000
  0
LINE
  5
1070
330
1F
100
AcDbEntity
  8
0
  62
0
100
AcDbLine
 10
398.033100
 20
420.058000
 30
0.000000
 11
398.516900
 21
420.058000
 31
0.000000
  0
LINE
  5
1071
330
1F
100
AcDbEntity
  8
0
  62
0
100
AcDbLine
 10
398.516900
 20
420.058000
 30
0.000000
 11
398.981200
 21
419.921000
 31
0.000000
  0
LINE
  5
1072
330
1F
100
AcDbEntity
  8
0
  62
0
100
AcDbLine
 10
398.981200
 20
419.921000
 30
0.000000
 11
399.388300
 21
419.660000
 31
0.000000
  0
LINE
  5
1073
330
1F
100
AcDbEntity
  8
0
  62
0
100
AcDbLine
 10
399.388300
 20
419.660000
 30
0.000000
 11
399.705100
 21
419.294000
 31
0.000000
  0
LINE
  5
1074
330
1F
100
AcDbEntity
  8
0
  62
0
100
AcDbLine
 10
399.705100
 20
419.294000
 30
0.000000
 11
399.906100
 21
418.854000
 31
0.000000
  0
LINE
  5
1075
330
1F
100
AcDbEntity
  8
0
  62
0
100
AcDbLine
 10
399.906100
 20
418.854000
 30
0.000000
 11
399.975000
 21
418.375000
 31
0.000000
  0
LINE
  5
1076
330
1F
100
AcDbEntity
  8
0
  62
0
100
AcDbLine
 10
399.975000
 20
268.375000
 30
0.000000
 11
399.906100
 21
267.896100
 31
0.000000
  0
LINE
  5
1077
330
1F
100
AcDbEntity
  8
0
  62
0
100
AcDbLine
 10
399.906100
 20
267.896100
 30
0.000000
 11
399.705100
 21
267.455900
 31
0.000000
  0
LINE
  5
1078
330
1F
100
AcDbEntity
  8
0
  62
0
100
AcDbLine
 10
399.705100
 20
267.455900
 30
0.000000
 11
399.388300
 21
267.090200
 31
0.000000
  0
LINE
  5
1079
330
1F
100
AcDbEntity
  8
0
  62
0
100
AcDbLine
 10
399.388300
 20
267.090200
 30
0.000000
 11
398.981200
 21
266.828600
 31
0.000000
  0
LINE
  5
1080
330
1F
100
AcDbEntity
  8
0
  62
0
100
AcDbLine
 10
398.981200
 20
266.828600
 30
0.000000
 11
398.516900
 21
266.692300
 31
0.000000
  0
LINE
  5
1081
330
1F
100
AcDbEntity
  8
0
  62
0
100
AcDbLine
 10
398.516900
 20
266.692300
 30
0.000000
 11
398.033100
 21
266.692300
 31
0.000000
  0
LINE
  5
1082
330
1F
100
AcDbEntity
  8
0
  62
0
100
AcDbLine
 10
398.033100
 20
266.692300
 30
0.000000
 11
397.568800
 21
266.828600
 31
0.000000
  0
LINE
  5
1083
330
1F
100
AcDbEntity
  8
0
  62
0
100
AcDbLine
 10
397.568800
 20
266.828600
 30
0.000000
 11
397.161700
 21
267.090200
 31
0.000000
  0
LINE
  5
1084
330
1F
100
AcDbEntity
  8
0
  62
0
100
AcDbLine
 10
397.161700
 20
267.090200
 30
0.000000
 11
396.844900
 21
267.455900
 31
0.000000
  0
LINE
  5
1085
330
1F
100
AcDbEntity
  8
0
  62
0
100
AcDbLine
 10
396.844900
 20
267.455900
 30
0.000000
 11
396.643900
 21
267.896100
 31
0.000000
  0
LINE
  5
1086
330
1F
100
AcDbEntity
  8
0
  62
0
100
AcDbLine
 10
396.643900
 20
267.896100
 30
0.000000
 11
396.575000
 21
268.375000
 31
0.000000
  0
LINE
  5
1087
330
1F
100
AcDbEntity
  8
0
  62
0
100
AcDbLine
 10
396.575000
 20
268.375000
 30
0.000000
 11
396.643900
 21
268.853900
 31
0.000000
  0
LINE
  5
1088
330
1F
100
AcDbEntity
  8
0
  62
0
100
AcDbLine
 10
396.643900
 20
268.853900
 30
0.000000
 11
396.844900
 21
269.294100
 31
0.000000
  0
LINE
  5
1089
330
1F
100
AcDbEntity
  8
0
  62
0
100
AcDbLine
 10
396.844900
 20
269.294100
 30
0.000000
 11
397.161700
 21
269.659800
 31
0.000000
  0
LINE
  5
1090
330
1F
100
AcDbEntity
  8
0
  62
0
100
AcDbLine
 10
397.161700
 20
269.659800
 30
0.000000
 11
397.568800
 21
269.921400
 31
0.000000
  0
LINE
  5
1091
330
1F
100
AcDbEntity
  8
0
  62
0
100
AcDbLine
 10
397.568800
 20
269.921400
 30
0.000000
 11
398.033100
 21
270.057700
 31
0.000000
  0
LINE
  5
1092
330
1F
100
AcDbEntity
  8
0
  62
0
100
AcDbLine
 10
398.033100
 20
270.057700
 30
0.000000
 11
398.516900
 21
270.057700
 31
0.000000
  0
LINE
  5
1093
330
1F
100
AcDbEntity
  8
0
  62
0
100
AcDbLine
 10
398.516900
 20
270.057700
 30
0.000000
 11
398.981200
 21
269.921400
 31
0.000000
  0
LINE
  5
1094
330
1F
100
AcDbEntity
  8
0
  62
0
100
AcDbLine
 10
398.981200
 20
269.921400
 30
0.000000
 11
399.388300
 21
269.659800
 31
0.000000
  0
LINE
  5
1095
330
1F
100
AcDbEntity
  8
0
  62
0
100
AcDbLine
 10
399.388300
 20
269.659800
 30
0.000000
 11
399.705100
 21
269.294100
 31
0.000000
  0
LINE
  5
1096
330
1F
100
AcDbEntity
  8
0
  62
0
100
AcDbLine
 10
399.705100
 20
269.294100
 30
0.000000
 11
399.906100
 21
268.853900
 31
0.000000
  0
LINE
  5
1097
330
1F
100
AcDbEntity
  8
0
  62
0
100
AcDbLine
 10
399.906100
 20
268.853900
 30
0.000000
 11
399.975000
 21
268.375000
 31
0.000000
  0
LINE
  5
1098
330
1F
100
AcDbEntity
  8
0
  62
0
100
AcDbLine
 10
399.975000
 20
296.775000
 30
0.000000
 11
399.906100
 21
296.296100
 31
0.000000
  0
LINE
  5
1099
330
1F
100
AcDbEntity
  8
0
  62
0
100
AcDbLine
 10
399.906100
 20
296.296100
 30
0.000000
 11
399.705100
 21
295.855900
 31
0.000000
  0
LINE
  5
1100
330
1F
100
AcDbEntity
  8
0
  62
0
100
AcDbLine
 10
399.705100
 20
295.855900
 30
0.000000
 11
399.388300
 21
295.490200
 31
0.000000
  0
LINE
  5
1101
330
1F
100
AcDbEntity
  8
0
  62
0
100
AcDbLine
 10
399.388300
 20
295.490200
 30
0.000000
 11
398.981200
 21
295.228600
 31
0.000000
  0
LINE
  5
1102
330
1F
100
AcDbEntity
  8
0
  62
0
100
AcDbLine
 10
398.981200
 20
295.228600
 30
0.000000
 11
398.516900
 21
295.092300
 31
0.000000
  0
LINE
  5
1103
330
1F
100
AcDbEntity
  8
0
  62
0
100
AcDbLine
 10
398.516900
 20
295.092300
 30
0.000000
 11
398.033100
 21
295.092300
 31
0.000000
  0
LINE
  5
1104
330
1F
100
AcDbEntity
  8
0
  62
0
100
AcDbLine
 10
398.033100
 20
295.092300
 30
0.000000
 11
397.568800
 21
295.228600
 31
0.000000
  0
LINE
  5
1105
330
1F
100
AcDbEntity
  8
0
  62
0
100
AcDbLine
 10
397.568800
 20
295.228600
 30
0.000000
 11
397.161700
 21
295.490200
 31
0.000000
  0
LINE
  5
1106
330
1F
100
AcDbEntity
  8
0
  62
0
100
AcDbLine
 10
397.161700
 20
295.490200
 30
0.000000
 11
396.844900
 21
295.855900
 31
0.000000
  0
LINE
  5
1107
330
1F
100
AcDbEntity
  8
0
  62
0
100
AcDbLine
 10
396.844900
 20
295.855900
 30
0.000000
 11
396.643900
 21
296.296100
 31
0.000000
  0
LINE
  5
1108
330
1F
100
AcDbEntity
  8
0
  62
0
100
AcDbLine
 10
396.643900
 20
296.296100
 30
0.000000
 11
396.575000
 21
296.775000
 31
0.000000
  0
LINE
  5
1109
330
1F
100
AcDbEntity
  8
0
  62
0
100
AcDbLine
 10
396.575000
 20
296.775000
 30
0.000000
 11
396.643900
 21
297.253900
 31
0.000000
  0
LINE
  5
1110
330
1F
100
AcDbEntity
  8
0
  62
0
100
AcDbLine
 10
396.643900
 20
297.253900
 30
0.000000
 11
396.844900
 21
297.694100
 31
0.000000
  0
LINE
  5
1111
330
1F
100
AcDbEntity
  8
0
  62
0
100
AcDbLine
 10
396.844900
 20
297.694100
 30
0.000000
 11
397.161700
 21
298.059800
 31
0.000000
  0
LINE
  5
1112
330
1F
100
AcDbEntity
  8
0
  62
0
100
AcDbLine
 10
397.161700
 20
298.059800
 30
0.000000
 11
397.568800
 21
298.321400
 31
0.000000
  0
LINE
  5
1113
330
1F
100
AcDbEntity
  8
0
  62
0
100
AcDbLine
 10
397.568800
 20
298.321400
 30
0.000000
 11
398.033100
 21
298.457700
 31
0.000000
  0
LINE
  5
1114
330
1F
100
AcDbEntity
  8
0
  62
0
100
AcDbLine
 10
398.033100
 20
298.457700
 30
0.000000
 11
398.516900
 21
298.457700
 31
0.000000
  0
LINE
  5
1115
330
1F
100
AcDbEntity
  8
0
  62
0
100
AcDbLine
 10
398.516900
 20
298.457700
 30
0.000000
 11
398.981200
 21
298.321400
 31
0.000000
  0
LINE
  5
1116
330
1F
100
AcDbEntity
  8
0
  62
0
100
AcDbLine
 10
398.981200
 20
298.321400
 30
0.000000
 11
399.388300
 21
298.059800
 31
0.000000
  0
LINE
  5
1117
330
1F
100
AcDbEntity
  8
0
  62
0
100
AcDbLine
 10
399.388300
 20
298.059800
 30
0.000000
 11
399.705100
 21
297.694100
 31
0.000000
  0
LINE
  5
1118
330
1F
100
AcDbEntity
  8
0
  62
0
100
AcDbLine
 10
399.705100
 20
297.694100
 30
0.000000
 11
399.906100
 21
297.253900
 31
0.000000
  0
LINE
  5
1119
330
1F
100
AcDbEntity
  8
0
  62
0
100
AcDbLine
 10
399.906100
 20
297.253900
 30
0.000000
 11
399.975000
 21
296.775000
 31
0.000000
  0
LINE
  5
1120
330
1F
100
AcDbEntity
  8
0
  62
0
100
AcDbLine
 10
399.975000
 20
118.375000
 30
0.000000
 11
399.906100
 21
117.896000
 31
0.000000
  0
LINE
  5
1121
330
1F
100
AcDbEntity
  8
0
  62
0
100
AcDbLine
 10
399.906100
 20
117.896000
 30
0.000000
 11
399.705100
 21
117.456000
 31
0.000000
  0
LINE
  5
1122
330
1F
100
AcDbEntity
  8
0
  62
0
100
AcDbLine
 10
399.705100
 20
117.456000
 30
0.000000
 11
399.388300
 21
117.090000
 31
0.000000
  0
LINE
  5
1123
330
1F
100
AcDbEntity
  8
0
  62
0
100
AcDbLine
 10
399.388300
 20
117.090000
 30
0.000000
 11
398.981200
 21
116.829000
 31
0.000000
  0
LINE
  5
1124
330
1F
100
AcDbEntity
  8
0
  62
0
100
AcDbLine
 10
398.981200
 20
116.829000
 30
0.000000
 11
398.516900
 21
116.692000
 31
0.000000
  0
LINE
  5
1125
330
1F
100
AcDbEntity
  8
0
  62
0
100
AcDbLine
 10
398.516900
 20
116.692000
 30
0.000000
 11
398.033100
 21
116.692000
 31
0.000000
  0
LINE
  5
1126
330
1F
100
AcDbEntity
  8
0
  62
0
100
AcDbLine
 10
398.033100
 20
116.692000
 30
0.000000
 11
397.568800
 21
116.829000
 31
0.000000
  0
LINE
  5
1127
330
1F
100
AcDbEntity
  8
0
  62
0
100
AcDbLine
 10
397.568800
 20
116.829000
 30
0.000000
 11
397.161700
 21
117.090000
 31
0.000000
  0
LINE
  5
1128
330
1F
100
AcDbEntity
  8
0
  62
0
100
AcDbLine
 10
397.161700
 20
117.090000
 30
0.000000
 11
396.844900
 21
117.456000
 31
0.000000
  0
LINE
  5
1129
330
1F
100
AcDbEntity
  8
0
  62
0
100
AcDbLine
 10
396.844900
 20
117.456000
 30
0.000000
 11
396.643900
 21
117.896000
 31
0.000000
  0
LINE
  5
1130
330
1F
100
AcDbEntity
  8
0
  62
0
100
AcDbLine
 10
396.643900
 20
117.896000
 30
0.000000
 11
396.575000
 21
118.375000
 31
0.000000
  0
LINE
  5
1131
330
1F
100
AcDbEntity
  8
0
  62
0
100
AcDbLine
 10
396.575000
 20
118.375000
 30
0.000000
 11
396.643900
 21
118.854000
 31
0.000000
  0
LINE
  5
1132
330
1F
100
AcDbEntity
  8
0
  62
0
100
AcDbLine
 10
396.643900
 20
118.854000
 30
0.000000
 11
396.844900
 21
119.294000
 31
0.000000
  0
LINE
  5
1133
330
1F
100
AcDbEntity
  8
0
  62
0
100
AcDbLine
 10
396.844900
 20
119.294000
 30
0.000000
 11
397.161700
 21
119.660000
 31
0.000000
  0
LINE
  5
1134
330
1F
100
AcDbEntity
  8
0
  62
0
100
AcDbLine
 10
397.161700
 20
119.660000
 30
0.000000
 11
397.568800
 21
119.921000
 31
0.000000
  0
LINE
  5
1135
330
1F
100
AcDbEntity
  8
0
  62
0
100
AcDbLine
 10
397.568800
 20
119.921000
 30
0.000000
 11
398.033100
 21
120.058000
 31
0.000000
  0
LINE
  5
1136
330
1F
100
AcDbEntity
  8
0
  62
0
100
AcDbLine
 10
398.033100
 20
120.058000
 30
0.000000
 11
398.516900
 21
120.058000
 31
0.000000
  0
LINE
  5
1137
330
1F
100
AcDbEntity
  8
0
  62
0
100
AcDbLine
 10
398.516900
 20
120.058000
 30
0.000000
 11
398.981200
 21
119.921000
 31
0.000000
  0
LINE
  5
1138
330
1F
100
AcDbEntity
  8
0
  62
0
100
AcDbLine
 10
398.981200
 20
119.921000
 30
0.000000
 11
399.388300
 21
119.660000
 31
0.000000
  0
LINE
  5
1139
330
1F
100
AcDbEntity
  8
0
  62
0
100
AcDbLine
 10
399.388300
 20
119.660000
 30
0.000000
 11
399.705100
 21
119.294000
 31
0.000000
  0
LINE
  5
1140
330
1F
100
AcDbEntity
  8
0
  62
0
100
AcDbLine
 10
399.705100
 20
119.294000
 30
0.000000
 11
399.906100
 21
118.854000
 31
0.000000
  0
LINE
  5
1141
330
1F
100
AcDbEntity
  8
0
  62
0
100
AcDbLine
 10
399.906100
 20
118.854000
 30
0.000000
 11
399.975000
 21
118.375000
 31
0.000000
  0
LINE
  5
1142
330
1F
100
AcDbEntity
  8
0
  62
0
100
AcDbLine
 10
399.975000
 20
146.775000
 30
0.000000
 11
399.906100
 21
146.296000
 31
0.000000
  0
LINE
  5
1143
330
1F
100
AcDbEntity
  8
0
  62
0
100
AcDbLine
 10
399.906100
 20
146.296000
 30
0.000000
 11
399.705100
 21
145.856000
 31
0.000000
  0
LINE
  5
1144
330
1F
100
AcDbEntity
  8
0
  62
0
100
AcDbLine
 10
399.705100
 20
145.856000
 30
0.000000
 11
399.388300
 21
145.490000
 31
0.000000
  0
LINE
  5
1145
330
1F
100
AcDbEntity
  8
0
  62
0
100
AcDbLine
 10
399.388300
 20
145.490000
 30
0.000000
 11
398.981200
 21
145.229000
 31
0.000000
  0
LINE
  5
1146
330
1F
100
AcDbEntity
  8
0
  62
0
100
AcDbLine
 10
398.981200
 20
145.229000
 30
0.000000
 11
398.516900
 21
145.092000
 31
0.000000
  0
LINE
  5
1147
330
1F
100
AcDbEntity
  8
0
  62
0
100
AcDbLine
 10
398.516900
 20
145.092000
 30
0.000000
 11
398.033100
 21
145.092000
 31
0.000000
  0
LINE
  5
1148
330
1F
100
AcDbEntity
  8
0
  62
0
100
AcDbLine
 10
398.033100
 20
145.092000
 30
0.000000
 11
397.568800
 21
145.229000
 31
0.000000
  0
LINE
  5
1149
330
1F
100
AcDbEntity
  8
0
  62
0
100
AcDbLine
 10
397.568800
 20
145.229000
 30
0.000000
 11
397.161700
 21
145.490000
 31
0.000000
  0
LINE
  5
1150
330
1F
100
AcDbEntity
  8
0
  62
0
100
AcDbLine
 10
397.161700
 20
145.490000
 30
0.000000
 11
396.844900
 21
145.856000
 31
0.000000
  0
LINE
  5
1151
330
1F
100
AcDbEntity
  8
0
  62
0
100
AcDbLine
 10
396.844900
 20
145.856000
 30
0.000000
 11
396.643900
 21
146.296000
 31
0.000000
  0
LINE
  5
1152
330
1F
100
AcDbEntity
  8
0
  62
0
100
AcDbLine
 10
396.643900
 20
146.296000
 30
0.000000
 11
396.575000
 21
146.775000
 31
0.000000
  0
LINE
  5
1153
330
1F
100
AcDbEntity
  8
0
  62
0
100
AcDbLine
 10
396.575000
 20
146.775000
 30
0.000000
 11
396.643900
 21
147.254000
 31
0.000000
  0
LINE
  5
1154
330
1F
100
AcDbEntity
  8
0
  62
0
100
AcDbLine
 10
396.643900
 20
147.254000
 30
0.000000
 11
396.844900
 21
147.694000
 31
0.000000
  0
LINE
  5
1155
330
1F
100
AcDbEntity
  8
0
  62
0
100
AcDbLine
 10
396.844900
 20
147.694000
 30
0.000000
 11
397.161700
 21
148.060000
 31
0.000000
  0
LINE
  5
1156
330
1F
100
AcDbEntity
  8
0
  62
0
100
AcDbLine
 10
397.161700
 20
148.060000
 30
0.000000
 11
397.568800
 21
148.321000
 31
0.000000
  0
LINE
  5
1157
330
1F
100
AcDbEntity
  8
0
  62
0
100
AcDbLine
 10
397.568800
 20
148.321000
 30
0.000000
 11
398.033100
 21
148.458000
 31
0.000000
  0
LINE
  5
1158
330
1F
100
AcDbEntity
  8
0
  62
0
100
AcDbLine
 10
398.033100
 20
148.458000
 30
0.000000
 11
398.516900
 21
148.458000
 31
0.000000
  0
LINE
  5
1159
330
1F
100
AcDbEntity
  8
0
  62
0
100
AcDbLine
 10
398.516900
 20
148.458000
 30
0.000000
 11
398.981200
 21
148.321000
 31
0.000000
  0
LINE
  5
1160
330
1F
100
AcDbEntity
  8
0
  62
0
100
AcDbLine
 10
398.981200
 20
148.321000
 30
0.000000
 11
399.388300
 21
148.060000
 31
0.000000
  0
LINE
  5
1161
330
1F
100
AcDbEntity
  8
0
  62
0
100
AcDbLine
 10
399.388300
 20
148.060000
 30
0.000000
 11
399.705100
 21
147.694000
 31
0.000000
  0
LINE
  5
1162
330
1F
100
AcDbEntity
  8
0
  62
0
100
AcDbLine
 10
399.705100
 20
147.694000
 30
0.000000
 11
399.906100
 21
147.254000
 31
0.000000
  0
LINE
  5
1163
330
1F
100
AcDbEntity
  8
0
  62
0
100
AcDbLine
 10
399.906100
 20
147.254000
 30
0.000000
 11
399.975000
 21
146.775000
 31
0.000000
  0
LINE
  5
1164
330
1F
100
AcDbEntity
  8
0
  62
0
100
AcDbLine
 10
414.157700
 20
282.816928
 30
0.000000
 11
414.157700
 21
282.333072
 31
0.000000
  0
LINE
  5
1165
330
1F
100
AcDbEntity
  8
0
  62
0
100
AcDbLine
 10
414.157700
 20
282.333072
 30
0.000000
 11
414.021400
 21
281.868808
 31
0.000000
  0
LINE
  5
1166
330
1F
100
AcDbEntity
  8
0
  62
0
100
AcDbLine
 10
414.021400
 20
281.868808
 30
0.000000
 11
413.759800
 21
281.461750
 31
0.000000
  0
LINE
  5
1167
330
1F
100
AcDbEntity
  8
0
  62
0
100
AcDbLine
 10
413.759800
 20
281.461750
 30
0.000000
 11
413.394100
 21
281.144870
 31
0.000000
  0
LINE
  5
1168
330
1F
100
AcDbEntity
  8
0
  62
0
100
AcDbLine
 10
413.394100
 20
281.144870
 30
0.000000
 11
412.953900
 21
280.943870
 31
0.000000
  0
LINE
  5
1169
330
1F
100
AcDbEntity
  8
0
  62
0
100
AcDbLine
 10
412.953900
 20
280.943870
 30
0.000000
 11
412.475000
 21
280.875000
 31
0.000000
  0
LINE
  5
1170
330
1F
100
AcDbEntity
  8
0
  62
0
100
AcDbLine
 10
412.475000
 20
280.875000
 30
0.000000
 11
411.996100
 21
280.943870
 31
0.000000
  0
LINE
  5
1171
330
1F
100
AcDbEntity
  8
0
  62
0
100
AcDbLine
 10
411.996100
 20
280.943870
 30
0.000000
 11
411.555900
 21
281.144870
 31
0.000000
  0
LINE
  5
1172
330
1F
100
AcDbEntity
  8
0
  62
0
100
AcDbLine
 10
411.555900
 20
281.144870
 30
0.000000
 11
411.190200
 21
281.461750
 31
0.000000
  0
LINE
  5
1173
330
1F
100
AcDbEntity
  8
0
  62
0
100
AcDbLine
 10
411.190200
 20
281.461750
 30
0.000000
 11
410.928600
 21
281.868808
 31
0.000000
  0
LINE
  5
1174
330
1F
100
AcDbEntity
  8
0
  62
0
100
AcDbLine
 10
410.928600
 20
281.868808
 30
0.000000
 11
410.792300
 21
282.333072
 31
0.000000
  0
LINE
  5
1175
330
1F
100
AcDbEntity
  8
0
  62
0
100
AcDbLine
 10
410.792300
 20
282.333072
 30
0.000000
 11
410.792300
 21
282.816928
 31
0.000000
  0
LINE
  5
1176
330
1F
100
AcDbEntity
  8
0
  62
0
100
AcDbLine
 10
410.792300
 20
282.816928
 30
0.000000
 11
410.928600
 21
283.281192
 31
0.000000
  0
LINE
  5
1177
330
1F
100
AcDbEntity
  8
0
  62
0
100
AcDbLine
 10
410.928600
 20
283.281192
 30
0.000000
 11
411.190200
 21
283.688250
 31
0.000000
  0
LINE
  5
1178
330
1F
100
AcDbEntity
  8
0
  62
0
100
AcDbLine
 10
411.190200
 20
283.688250
 30
0.000000
 11
411.555900
 21
284.005130
 31
0.000000
  0
LINE
  5
1179
330
1F
100
AcDbEntity
  8
0
  62
0
100
AcDbLine
 10
411.555900
 20
284.005130
 30
0.000000
 11
411.996100
 21
284.206130
 31
0.000000
  0
LINE
  5
1180
330
1F
100
AcDbEntity
  8
0
  62
0
100
AcDbLine
 10
411.996100
 20
284.206130
 30
0.000000
 11
412.475000
 21
284.275000
 31
0.000000
  0
LINE
  5
1181
330
1F
100
AcDbEntity
  8
0
  62
0
100
AcDbLine
 10
412.475000
 20
284.275000
 30
0.000000
 11
412.953900
 21
284.206130
 31
0.000000
  0
LINE
  5
1182
330
1F
100
AcDbEntity
  8
0
  62
0
100
AcDbLine
 10
412.953900
 20
284.206130
 30
0.000000
 11
413.394100
 21
284.005130
 31
0.000000
  0
LINE
  5
1183
330
1F
100
AcDbEntity
  8
0
  62
0
100
AcDbLine
 10
413.394100
 20
284.005130
 30
0.000000
 11
413.759800
 21
283.688250
 31
0.000000
  0
LINE
  5
1184
330
1F
100
AcDbEntity
  8
0
  62
0
100
AcDbLine
 10
413.759800
 20
283.688250
 30
0.000000
 11
414.021400
 21
283.281192
 31
0.000000
  0
LINE
  5
1185
330
1F
100
AcDbEntity
  8
0
  62
0
100
AcDbLine
 10
414.021400
 20
283.281192
 30
0.000000
 11
414.157700
 21
282.816928
 31
0.000000
  0
LINE
  5
1186
330
1F
100
AcDbEntity
  8
0
  62
0
100
AcDbLine
 10
414.157700
 20
132.817000
 30
0.000000
 11
414.157700
 21
132.333000
 31
0.000000
  0
LINE
  5
1187
330
1F
100
AcDbEntity
  8
0
  62
0
100
AcDbLine
 10
414.157700
 20
132.333000
 30
0.000000
 11
414.021400
 21
131.869000
 31
0.000000
  0
LINE
  5
1188
330
1F
100
AcDbEntity
  8
0
  62
0
100
AcDbLine
 10
414.021400
 20
131.869000
 30
0.000000
 11
413.759800
 21
131.462000
 31
0.000000
  0
LINE
  5
1189
330
1F
100
AcDbEntity
  8
0
  62
0
100
AcDbLine
 10
413.759800
 20
131.462000
 30
0.000000
 11
413.394100
 21
131.145000
 31
0.000000
  0
LINE
  5
1190
330
1F
100
AcDbEntity
  8
0
  62
0
100
AcDbLine
 10
413.394100
 20
131.145000
 30
0.000000
 11
412.953900
 21
130.944000
 31
0.000000
  0
LINE
  5
1191
330
1F
100
AcDbEntity
  8
0
  62
0
100
AcDbLine
 10
412.953900
 20
130.944000
 30
0.000000
 11
412.475000
 21
130.875000
 31
0.000000
  0
LINE
  5
1192
330
1F
100
AcDbEntity
  8
0
  62
0
100
AcDbLine
 10
412.475000
 20
130.875000
 30
0.000000
 11
411.996100
 21
130.944000
 31
0.000000
  0
LINE
  5
1193
330
1F
100
AcDbEntity
  8
0
  62
0
100
AcDbLine
 10
411.996100
 20
130.944000
 30
0.000000
 11
411.555900
 21
131.145000
 31
0.000000
  0
LINE
  5
1194
330
1F
100
AcDbEntity
  8
0
  62
0
100
AcDbLine
 10
411.555900
 20
131.145000
 30
0.000000
 11
411.190200
 21
131.462000
 31
0.000000
  0
LINE
  5
1195
330
1F
100
AcDbEntity
  8
0
  62
0
100
AcDbLine
 10
411.190200
 20
131.462000
 30
0.000000
 11
410.928600
 21
131.869000
 31
0.000000
  0
LINE
  5
1196
330
1F
100
AcDbEntity
  8
0
  62
0
100
AcDbLine
 10
410.928600
 20
131.869000
 30
0.000000
 11
410.792300
 21
132.333000
 31
0.000000
  0
LINE
  5
1197
330
1F
100
AcDbEntity
  8
0
  62
0
100
AcDbLine
 10
410.792300
 20
132.333000
 30
0.000000
 11
410.792300
 21
132.817000
 31
0.000000
  0
LINE
  5
1198
330
1F
100
AcDbEntity
  8
0
  62
0
100
AcDbLine
 10
410.792300
 20
132.817000
 30
0.000000
 11
410.928600
 21
133.281000
 31
0.000000
  0
LINE
  5
1199
330
1F
100
AcDbEntity
  8
0
  62
0
100
AcDbLine
 10
410.928600
 20
133.281000
 30
0.000000
 11
411.190200
 21
133.688000
 31
0.000000
  0
LINE
  5
1200
330
1F
100
AcDbEntity
  8
0
  62
0
100
AcDbLine
 10
411.190200
 20
133.688000
 30
0.000000
 11
411.555900
 21
134.005000
 31
0.000000
  0
LINE
  5
1201
330
1F
100
AcDbEntity
  8
0
  62
0
100
AcDbLine
 10
411.555900
 20
134.005000
 30
0.000000
 11
411.996100
 21
134.206000
 31
0.000000
  0
LINE
  5
1202
330
1F
100
AcDbEntity
  8
0
  62
0
100
AcDbLine
 10
411.996100
 20
134.206000
 30
0.000000
 11
412.475000
 21
134.275000
 31
0.000000
  0
LINE
  5
1203
330
1F
100
AcDbEntity
  8
0
  62
0
100
AcDbLine
 10
412.475000
 20
134.275000
 30
0.000000
 11
412.953900
 21
134.206000
 31
0.000000
  0
LINE
  5
1204
330
1F
100
AcDbEntity
  8
0
  62
0
100
AcDbLine
 10
412.953900
 20
134.206000
 30
0.000000
 11
413.394100
 21
134.005000
 31
0.000000
  0
LINE
  5
1205
330
1F
100
AcDbEntity
  8
0
  62
0
100
AcDbLine
 10
413.394100
 20
134.005000
 30
0.000000
 11
413.759800
 21
133.688000
 31
0.000000
  0
LINE
  5
1206
330
1F
100
AcDbEntity
  8
0
  62
0
100
AcDbLine
 10
413.759800
 20
133.688000
 30
0.000000
 11
414.021400
 21
133.281000
 31
0.000000
  0
LINE
  5
1207
330
1F
100
AcDbEntity
  8
0
  62
0
100
AcDbLine
 10
414.021400
 20
133.281000
 30
0.000000
 11
414.157700
 21
132.817000
 31
0.000000
  0
LINE
  5
1208
330
1F
100
AcDbEntity
  8
0
  62
0
100
AcDbLine
 10
414.157700
 20
432.817000
 30
0.000000
 11
414.157700
 21
432.333000
 31
0.000000
  0
LINE
  5
1209
330
1F
100
AcDbEntity
  8
0
  62
0
100
AcDbLine
 10
414.157700
 20
432.333000
 30
0.000000
 11
414.021400
 21
431.869000
 31
0.000000
  0
LINE
  5
1210
330
1F
100
AcDbEntity
  8
0
  62
0
100
AcDbLine
 10
414.021400
 20
431.869000
 30
0.000000
 11
413.759800
 21
431.462000
 31
0.000000
  0
LINE
  5
1211
330
1F
100
AcDbEntity
  8
0
  62
0
100
AcDbLine
 10
413.759800
 20
431.462000
 30
0.000000
 11
413.394100
 21
431.145000
 31
0.000000
  0
LINE
  5
1212
330
1F
100
AcDbEntity
  8
0
  62
0
100
AcDbLine
 10
413.394100
 20
431.145000
 30
0.000000
 11
412.953900
 21
430.944000
 31
0.000000
  0
LINE
  5
1213
330
1F
100
AcDbEntity
  8
0
  62
0
100
AcDbLine
 10
412.953900
 20
430.944000
 30
0.000000
 11
412.475000
 21
430.875000
 31
0.000000
  0
LINE
  5
1214
330
1F
100
AcDbEntity
  8
0
  62
0
100
AcDbLine
 10
412.475000
 20
430.875000
 30
0.000000
 11
411.996100
 21
430.944000
 31
0.000000
  0
LINE
  5
1215
330
1F
100
AcDbEntity
  8
0
  62
0
100
AcDbLine
 10
411.996100
 20
430.944000
 30
0.000000
 11
411.555900
 21
431.145000
 31
0.000000
  0
LINE
  5
1216
330
1F
100
AcDbEntity
  8
0
  62
0
100
AcDbLine
 10
411.555900
 20
431.145000
 30
0.000000
 11
411.190200
 21
431.462000
 31
0.000000
  0
LINE
  5
1217
330
1F
100
AcDbEntity
  8
0
  62
0
100
AcDbLine
 10
411.190200
 20
431.462000
 30
0.000000
 11
410.928600
 21
431.869000
 31
0.000000
  0
LINE
  5
1218
330
1F
100
AcDbEntity
  8
0
  62
0
100
AcDbLine
 10
410.928600
 20
431.869000
 30
0.000000
 11
410.792300
 21
432.333000
 31
0.000000
  0
LINE
  5
1219
330
1F
100
AcDbEntity
  8
0
  62
0
100
AcDbLine
 10
410.792300
 20
432.333000
 30
0.000000
 11
410.792300
 21
432.817000
 31
0.000000
  0
LINE
  5
1220
330
1F
100
AcDbEntity
  8
0
  62
0
100
AcDbLine
 10
410.792300
 20
432.817000
 30
0.000000
 11
410.928600
 21
433.281000
 31
0.000000
  0
LINE
  5
1221
330
1F
100
AcDbEntity
  8
0
  62
0
100
AcDbLine
 10
410.928600
 20
433.281000
 30
0.000000
 11
411.190200
 21
433.688000
 31
0.000000
  0
LINE
  5
1222
330
1F
100
AcDbEntity
  8
0
  62
0
100
AcDbLine
 10
411.190200
 20
433.688000
 30
0.000000
 11
411.555900
 21
434.005000
 31
0.000000
  0
LINE
  5
1223
330
1F
100
AcDbEntity
  8
0
  62
0
100
AcDbLine
 10
411.555900
 20
434.005000
 30
0.000000
 11
411.996100
 21
434.206000
 31
0.000000
  0
LINE
  5
1224
330
1F
100
AcDbEntity
  8
0
  62
0
100
AcDbLine
 10
411.996100
 20
434.206000
 30
0.000000
 11
412.475000
 21
434.275000
 31
0.000000
  0
LINE
  5
1225
330
1F
100
AcDbEntity
  8
0
  62
0
100
AcDbLine
 10
412.475000
 20
434.275000
 30
0.000000
 11
412.953900
 21
434.206000
 31
0.000000
  0
LINE
  5
1226
330
1F
100
AcDbEntity
  8
0
  62
0
100
AcDbLine
 10
412.953900
 20
434.206000
 30
0.000000
 11
413.394100
 21
434.005000
 31
0.000000
  0
LINE
  5
1227
330
1F
100
AcDbEntity
  8
0
  62
0
100
AcDbLine
 10
413.394100
 20
434.005000
 30
0.000000
 11
413.759800
 21
433.688000
 31
0.000000
  0
LINE
  5
1228
330
1F
100
AcDbEntity
  8
0
  62
0
100
AcDbLine
 10
413.759800
 20
433.688000
 30
0.000000
 11
414.021400
 21
433.281000
 31
0.000000
  0
LINE
  5
1229
330
1F
100
AcDbEntity
  8
0
  62
0
100
AcDbLine
 10
414.021400
 20
433.281000
 30
0.000000
 11
414.157700
 21
432.817000
 31
0.000000
  0
LINE
  5
1230
330
1F
100
AcDbEntity
  8
0
  62
0
100
AcDbLine
 10
362.475000
 20
47.575000
 30
0.000000
 11
362.429000
 21
47.079000
 31
0.000000
  0
LINE
  5
1231
330
1F
100
AcDbEntity
  8
0
  62
0
100
AcDbLine
 10
362.429000
 20
47.079000
 30
0.000000
 11
362.292700
 21
46.600000
 31
0.000000
  0
LINE
  5
1232
330
1F
100
AcDbEntity
  8
0
  62
0
100
AcDbLine
 10
362.292700
 20
46.600000
 30
0.000000
 11
362.070600
 21
46.154000
 31
0.000000
  0
LINE
  5
1233
330
1F
100
AcDbEntity
  8
0
  62
0
100
AcDbLine
 10
362.070600
 20
46.154000
 30
0.000000
 11
361.770300
 21
45.756000
 31
0.000000
  0
LINE
  5
1234
330
1F
100
AcDbEntity
  8
0
  62
0
100
AcDbLine
 10
361.770300
 20
45.756000
 30
0.000000
 11
361.402100
 21
45.420000
 31
0.000000
  0
LINE
  5
1235
330
1F
100
AcDbEntity
  8
0
  62
0
100
AcDbLine
 10
361.402100
 20
45.420000
 30
0.000000
 11
360.978500
 21
45.158000
 31
0.000000
  0
LINE
  5
1236
330
1F
100
AcDbEntity
  8
0
  62
0
100
AcDbLine
 10
360.978500
 20
45.158000
 30
0.000000
 11
360.513900
 21
44.978000
 31
0.000000
  0
LINE
  5
1237
330
1F
100
AcDbEntity
  8
0
  62
0
100
AcDbLine
 10
360.513900
 20
44.978000
 30
0.000000
 11
360.024110
 21
44.887000
 31
0.000000
  0
LINE
  5
1238
330
1F
100
AcDbEntity
  8
0
  62
0
100
AcDbLine
 10
360.024110
 20
44.887000
 30
0.000000
 11
359.525870
 21
44.887000
 31
0.000000
  0
LINE
  5
1239
330
1F
100
AcDbEntity
  8
0
  62
0
100
AcDbLine
 10
359.525870
 20
44.887000
 30
0.000000
 11
359.036110
 21
44.978000
 31
0.000000
  0
LINE
  5
1240
330
1F
100
AcDbEntity
  8
0
  62
0
100
AcDbLine
 10
359.036110
 20
44.978000
 30
0.000000
 11
358.571490
 21
45.158000
 31
0.000000
  0
LINE
  5
1241
330
1F
100
AcDbEntity
  8
0
  62
0
100
AcDbLine
 10
358.571490
 20
45.158000
 30
0.000000
 11
358.147880
 21
45.420000
 31
0.000000
  0
LINE
  5
1242
330
1F
100
AcDbEntity
  8
0
  62
0
100
AcDbLine
 10
358.147880
 20
45.420000
 30
0.000000
 11
357.779670
 21
45.756000
 31
0.000000
  0
LINE
  5
1243
330
1F
100
AcDbEntity
  8
0
  62
0
100
AcDbLine
 10
357.779670
 20
45.756000
 30
0.000000
 11
357.479410
 21
46.154000
 31
0.000000
  0
LINE
  5
1244
330
1F
100
AcDbEntity
  8
0
  62
0
100
AcDbLine
 10
357.479410
 20
46.154000
 30
0.000000
 11
357.257320
 21
46.600000
 31
0.000000
  0
LINE
  5
1245
330
1F
100
AcDbEntity
  8
0
  62
0
100
AcDbLine
 10
357.257320
 20
46.600000
 30
0.000000
 11
357.120960
 21
47.079000
 31
0.000000
  0
LINE
  5
1246
330
1F
100
AcDbEntity
  8
0
  62
0
100
AcDbLine
 10
357.120960
 20
47.079000
 30
0.000000
 11
357.074990
 21
47.575000
 31
0.000000
  0
LINE
  5
1247
330
1F
100
AcDbEntity
  8
0
  62
0
100
AcDbLine
 10
357.074990
 20
47.575000
 30
0.000000
 11
357.120960
 21
48.071000
 31
0.000000
  0
LINE
  5
1248
330
1F
100
AcDbEntity
  8
0
  62
0
100
AcDbLine
 10
357.120960
 20
48.071000
 30
0.000000
 11
357.257320
 21
48.550000
 31
0.000000
  0
LINE
  5
1249
330
1F
100
AcDbEntity
  8
0
  62
0
100
AcDbLine
 10
357.257320
 20
48.550000
 30
0.000000
 11
357.479410
 21
48.996000
 31
0.000000
  0
LINE
  5
1250
330
1F
100
AcDbEntity
  8
0
  62
0
100
AcDbLine
 10
357.479410
 20
48.996000
 30
0.000000
 11
357.779670
 21
49.394000
 31
0.000000
  0
LINE
  5
1251
330
1F
100
AcDbEntity
  8
0
  62
0
100
AcDbLine
 10
357.779670
 20
49.394000
 30
0.000000
 11
358.147880
 21
49.730000
 31
0.000000
  0
LINE
  5
1252
330
1F
100
AcDbEntity
  8
0
  62
0
100
AcDbLine
 10
358.147880
 20
49.730000
 30
0.000000
 11
358.571490
 21
49.992000
 31
0.000000
  0
LINE
  5
1253
330
1F
100
AcDbEntity
  8
0
  62
0
100
AcDbLine
 10
358.571490
 20
49.992000
 30
0.000000
 11
359.036110
 21
50.172000
 31
0.000000
  0
LINE
  5
1254
330
1F
100
AcDbEntity
  8
0
  62
0
100
AcDbLine
 10
359.036110
 20
50.172000
 30
0.000000
 11
359.525870
 21
50.263000
 31
0.000000
  0
LINE
  5
1255
330
1F
100
AcDbEntity
  8
0
  62
0
100
AcDbLine
 10
359.525870
 20
50.263000
 30
0.000000
 11
360.024110
 21
50.263000
 31
0.000000
  0
LINE
  5
1256
330
1F
100
AcDbEntity
  8
0
  62
0
100
AcDbLine
 10
360.024110
 20
50.263000
 30
0.000000
 11
360.513900
 21
50.172000
 31
0.000000
  0
LINE
  5
1257
330
1F
100
AcDbEntity
  8
0
  62
0
100
AcDbLine
 10
360.513900
 20
50.172000
 30
0.000000
 11
360.978500
 21
49.992000
 31
0.000000
  0
LINE
  5
1258
330
1F
100
AcDbEntity
  8
0
  62
0
100
AcDbLine
 10
360.978500
 20
49.992000
 30
0.000000
 11
361.402100
 21
49.730000
 31
0.000000
  0
LINE
  5
1259
330
1F
100
AcDbEntity
  8
0
  62
0
100
AcDbLine
 10
361.402100
 20
49.730000
 30
0.000000
 11
361.770300
 21
49.394000
 31
0.000000
  0
LINE
  5
1260
330
1F
100
AcDbEntity
  8
0
  62
0
100
AcDbLine
 10
361.770300
 20
49.394000
 30
0.000000
 11
362.070600
 21
48.996000
 31
0.000000
  0
LINE
  5
1261
330
1F
100
AcDbEntity
  8
0
  62
0
100
AcDbLine
 10
362.070600
 20
48.996000
 30
0.000000
 11
362.292700
 21
48.550000
 31
0.000000
  0
LINE
  5
1262
330
1F
100
AcDbEntity
  8
0
  62
0
100
AcDbLine
 10
362.292700
 20
48.550000
 30
0.000000
 11
362.429000
 21
48.071000
 31
0.000000
  0
LINE
  5
1263
330
1F
100
AcDbEntity
  8
0
  62
0
100
AcDbLine
 10
362.429000
 20
48.071000
 30
0.000000
 11
362.475000
 21
47.575000
 31
0.000000
  0
LINE
  5
1264
330
1F
100
AcDbEntity
  8
0
  62
0
100
AcDbLine
 10
389.975000
 20
47.575000
 30
0.000000
 11
389.929000
 21
47.079000
 31
0.000000
  0
LINE
  5
1265
330
1F
100
AcDbEntity
  8
0
  62
0
100
AcDbLine
 10
389.929000
 20
47.079000
 30
0.000000
 11
389.792700
 21
46.600000
 31
0.000000
  0
LINE
  5
1266
330
1F
100
AcDbEntity
  8
0
  62
0
100
AcDbLine
 10
389.792700
 20
46.600000
 30
0.000000
 11
389.570600
 21
46.154000
 31
0.000000
  0
LINE
  5
1267
330
1F
100
AcDbEntity
  8
0
  62
0
100
AcDbLine
 10
389.570600
 20
46.154000
 30
0.000000
 11
389.270300
 21
45.756000
 31
0.000000
  0
LINE
  5
1268
330
1F
100
AcDbEntity
  8
0
  62
0
100
AcDbLine
 10
389.270300
 20
45.756000
 30
0.000000
 11
388.902100
 21
45.420000
 31
0.000000
  0
LINE
  5
1269
330
1F
100
AcDbEntity
  8
0
  62
0
100
AcDbLine
 10
388.902100
 20
45.420000
 30
0.000000
 11
388.478500
 21
45.158000
 31
0.000000
  0
LINE
  5
1270
330
1F
100
AcDbEntity
  8
0
  62
0
100
AcDbLine
 10
388.478500
 20
45.158000
 30
0.000000
 11
388.013900
 21
44.978000
 31
0.000000
  0
LINE
  5
1271
330
1F
100
AcDbEntity
  8
0
  62
0
100
AcDbLine
 10
388.013900
 20
44.978000
 30
0.000000
 11
387.524100
 21
44.887000
 31
0.000000
  0
LINE
  5
1272
330
1F
100
AcDbEntity
  8
0
  62
0
100
AcDbLine
 10
387.524100
 20
44.887000
 30
0.000000
 11
387.025900
 21
44.887000
 31
0.000000
  0
LINE
  5
1273
330
1F
100
AcDbEntity
  8
0
  62
0
100
AcDbLine
 10
387.025900
 20
44.887000
 30
0.000000
 11
386.536100
 21
44.978000
 31
0.000000
  0
LINE
  5
1274
330
1F
100
AcDbEntity
  8
0
  62
0
100
AcDbLine
 10
386.536100
 20
44.978000
 30
0.000000
 11
386.071500
 21
45.158000
 31
0.000000
  0
LINE
  5
1275
330
1F
100
AcDbEntity
  8
0
  62
0
100
AcDbLine
 10
386.071500
 20
45.158000
 30
0.000000
 11
385.647900
 21
45.420000
 31
0.000000
  0
LINE
  5
1276
330
1F
100
AcDbEntity
  8
0
  62
0
100
AcDbLine
 10
385.647900
 20
45.420000
 30
0.000000
 11
385.279700
 21
45.756000
 31
0.000000
  0
LINE
  5
1277
330
1F
100
AcDbEntity
  8
0
  62
0
100
AcDbLine
 10
385.279700
 20
45.756000
 30
0.000000
 11
384.979400
 21
46.154000
 31
0.000000
  0
LINE
  5
1278
330
1F
100
AcDbEntity
  8
0
  62
0
100
AcDbLine
 10
384.979400
 20
46.154000
 30
0.000000
 11
384.757300
 21
46.600000
 31
0.000000
  0
LINE
  5
1279
330
1F
100
AcDbEntity
  8
0
  62
0
100
AcDbLine
 10
384.757300
 20
46.600000
 30
0.000000
 11
384.621000
 21
47.079000
 31
0.000000
  0
LINE
  5
1280
330
1F
100
AcDbEntity
  8
0
  62
0
100
AcDbLine
 10
384.621000
 20
47.079000
 30
0.000000
 11
384.575000
 21
47.575000
 31
0.000000
  0
LINE
  5
1281
330
1F
100
AcDbEntity
  8
0
  62
0
100
AcDbLine
 10
384.575000
 20
47.575000
 30
0.000000
 11
384.621000
 21
48.071000
 31
0.000000
  0
LINE
  5
1282
330
1F
100
AcDbEntity
  8
0
  62
0
100
AcDbLine
 10
384.621000
 20
48.071000
 30
0.000000
 11
384.757300
 21
48.550000
 31
0.000000
  0
LINE
  5
1283
330
1F
100
AcDbEntity
  8
0
  62
0
100
AcDbLine
 10
384.757300
 20
48.550000
 30
0.000000
 11
384.979400
 21
48.996000
 31
0.000000
  0
LINE
  5
1284
330
1F
100
AcDbEntity
  8
0
  62
0
100
AcDbLine
 10
384.979400
 20
48.996000
 30
0.000000
 11
385.279700
 21
49.394000
 31
0.000000
  0
LINE
  5
1285
330
1F
100
AcDbEntity
  8
0
  62
0
100
AcDbLine
 10
385.279700
 20
49.394000
 30
0.000000
 11
385.647900
 21
49.730000
 31
0.000000
  0
LINE
  5
1286
330
1F
100
AcDbEntity
  8
0
  62
0
100
AcDbLine
 10
385.647900
 20
49.730000
 30
0.000000
 11
386.071500
 21
49.992000
 31
0.000000
  0
LINE
  5
1287
330
1F
100
AcDbEntity
  8
0
  62
0
100
AcDbLine
 10
386.071500
 20
49.992000
 30
0.000000
 11
386.536100
 21
50.172000
 31
0.000000
  0
LINE
  5
1288
330
1F
100
AcDbEntity
  8
0
  62
0
100
AcDbLine
 10
386.536100
 20
50.172000
 30
0.000000
 11
387.025900
 21
50.263000
 31
0.000000
  0
LINE
  5
1289
330
1F
100
AcDbEntity
  8
0
  62
0
100
AcDbLine
 10
387.025900
 20
50.263000
 30
0.000000
 11
387.524100
 21
50.263000
 31
0.000000
  0
LINE
  5
1290
330
1F
100
AcDbEntity
  8
0
  62
0
100
AcDbLine
 10
387.524100
 20
50.263000
 30
0.000000
 11
388.013900
 21
50.172000
 31
0.000000
  0
LINE
  5
1291
330
1F
100
AcDbEntity
  8
0
  62
0
100
AcDbLine
 10
388.013900
 20
50.172000
 30
0.000000
 11
388.478500
 21
49.992000
 31
0.000000
  0
LINE
  5
1292
330
1F
100
AcDbEntity
  8
0
  62
0
100
AcDbLine
 10
388.478500
 20
49.992000
 30
0.000000
 11
388.902100
 21
49.730000
 31
0.000000
  0
LINE
  5
1293
330
1F
100
AcDbEntity
  8
0
  62
0
100
AcDbLine
 10
388.902100
 20
49.730000
 30
0.000000
 11
389.270300
 21
49.394000
 31
0.000000
  0
LINE
  5
1294
330
1F
100
AcDbEntity
  8
0
  62
0
100
AcDbLine
 10
389.270300
 20
49.394000
 30
0.000000
 11
389.570600
 21
48.996000
 31
0.000000
  0
LINE
  5
1295
330
1F
100
AcDbEntity
  8
0
  62
0
100
AcDbLine
 10
389.570600
 20
48.996000
 30
0.000000
 11
389.792700
 21
48.550000
 31
0.000000
  0
LINE
  5
1296
330
1F
100
AcDbEntity
  8
0
  62
0
100
AcDbLine
 10
389.792700
 20
48.550000
 30
0.000000
 11
389.929000
 21
48.071000
 31
0.000000
  0
LINE
  5
1297
330
1F
100
AcDbEntity
  8
0
  62
0
100
AcDbLine
 10
389.929000
 20
48.071000
 30
0.000000
 11
389.975000
 21
47.575000
 31
0.000000
 0
ENDSEC
  0
SECTION
  2
OBJECTS
  0
DICTIONARY
  5
C
330
0
100
AcDbDictionary
  3
ACAD_GROUP
350
D
  3
ACAD_LAYOUT
350
1A
  3
ACAD_MLINESTYLE
350
17
  3
ACAD_PLOTSETTINGS
350
19
1001
ACAD
1000
TREAT_AS_HARD
1070
     0
  0
DICTIONARY
  5
46
330
1F
100
AcDbDictionary
  3
ACAD_LAYOUTSELFREF
350
47
  0
DICTIONARY
  5
44
330
1B
100
AcDbDictionary
  3
ACAD_LAYOUTSELFREF
350
45
  0
DICTIONARY
  5
D
102
{ACAD_REACTORS
330
C
102
}
330
C
100
AcDbDictionary
1001
ACAD
1000
TREAT_AS_HARD
1070
     0
  0
DICTIONARY
  5
1A
102
{ACAD_REACTORS
330
C
102
}
330
C
100
AcDbDictionary
1001
ACAD
1000
TREAT_AS_HARD
1070
     0
  0
DICTIONARY
  5
17
102
{ACAD_REACTORS
330
C
102
}
330
C
100
AcDbDictionary
  3
STANDARD
350
18
1001
ACAD
1000
TREAT_AS_HARD
1070
     0
  0
DICTIONARY
  5
19
102
{ACAD_REACTORS
330
C
102
}
330
C
100
AcDbDictionary
1001
ACAD
1000
TREAT_AS_HARD
1070
     0
  0
XRECORD
  5
47
102
{ACAD_REACTORS
330
46
102
}
330
46
100
AcDbXrecord
340
1F
  0
XRECORD
  5
45
102
{ACAD_REACTORS
330
44
102
}
330
44
100
AcDbXrecord
340
1B
  0
MLINESTYLE
  5
18
102
{ACAD_REACTORS
330
17
102
}
330
17
100
AcDbMlineStyle
  2
STANDARD
 70
     0
  3

 62
   256
 51
90.0
 52
90.0
 71
     2
 49
0.5
 62
   256
  6
BYLAYER
 49
-0.5
 62
   256
  6
BYLAYER
  0
ENDSEC
  0
EOF
