  0
SECTION
  2
BLOCKS
  0
ENDSEC
  0
SECTION
  2
ENTITIES
  0
LINE
  8
0
 10
-118.5
 20
-55.7058
 11
-118.5
 21
-50.25
  0
LINE
  8
0
 10
-118.5
 20
-50.25
 11
-116
 21
-50.25
  0
LINE
  8
0
 10
-116
 20
-50.25
 11
-116
 21
-55.7058
  0
LINE
  8
0
 10
-116
 20
-55.7058
 11
-105.456
 21
-66.25
  0
LINE
  8
0
 10
-105.456
 20
-66.25
 11
-90.5442
 21
-66.25
  0
LINE
  8
0
 10
-90.5442
 20
-66.25
 11
-80
 21
-55.7058
  0
LINE
  8
0
 10
-80
 20
-55.7058
 11
-80
 21
-50.25
  0
LINE
  8
0
 10
-80
 20
-50.25
 11
-31.5
 21
-50.25
  0
LINE
  8
0
 10
-31.5
 20
-50.25
 11
-31.5
 21
-55.7058
  0
LINE
  8
0
 10
-31.5
 20
-55.7058
 11
-20.9558
 21
-66.25
  0
LINE
  8
0
 10
-20.9558
 20
-66.25
 11
20.9558
 21
-66.25
  0
LINE
  8
0
 10
20.9558
 20
-66.25
 11
31.5
 21
-55.7058
  0
LINE
  8
0
 10
31.5
 20
-55.7058
 11
31.5
 21
-50.25
  0
LINE
  8
0
 10
31.5
 20
-50.25
 11
80
 21
-50.25
  0
LINE
  8
0
 10
80
 20
-50.25
 11
80
 21
-55.7058
  0
LINE
  8
0
 10
80
 20
-55.7058
 11
90.5442
 21
-66.25
  0
LINE
  8
0
 10
90.5442
 20
-66.25
 11
105.456
 21
-66.25
  0
LINE
  8
0
 10
105.456
 20
-66.25
 11
116
 21
-55.7058
  0
LINE
  8
0
 10
116
 20
-55.7058
 11
116
 21
-50.25
  0
LINE
  8
0
 10
116
 20
-50.25
 11
118.5
 21
-50.25
  0
LINE
  8
0
 10
118.5
 20
-50.25
 11
118.5
 21
-55.7058
  0
LINE
  8
0
 10
118.5
 20
-55.7058
 11
129.044
 21
-66.25
  0
LINE
  8
0
 10
129.044
 20
-66.25
 11
170.956
 21
-66.25
  0
LINE
  8
0
 10
170.956
 20
-66.25
 11
181.5
 21
-55.7058
  0
LINE
  8
0
 10
181.5
 20
-55.7058
 11
181.5
 21
-50.25
  0
LINE
  8
0
 10
181.5
 20
-50.25
 11
245
 21
-50.25
  0
LINE
  8
0
 10
245
 20
-50.25
 11
245
 21
-42.75
  0
LINE
  8
0
 10
245
 20
-42.75
 11
249.875
 21
-42.75
  0
LINE
  8
0
 10
249.875
 20
-42.75
 11
251.5
 21
-41.125
  0
LINE
  8
0
 10
251.5
 20
-41.125
 11
251.5
 21
-29.375
  0
LINE
  8
0
 10
251.5
 20
-29.375
 11
249.875
 21
-27.75
  0
LINE
  8
0
 10
249.875
 20
-27.75
 11
245
 21
-27.75
  0
LINE
  8
0
 10
245
 20
-27.75
 11
245
 21
-22.813
  0
LINE
  8
0
 10
245
 20
-22.813
 11
237.938
 21
-22.813
  0
LINE
  8
0
 10
237.938
 20
-22.813
 11
237.938
 21
-24.95
  0
LINE
  8
0
 10
237.938
 20
-24.95
 11
232.562
 21
-24.95
  0
LINE
  8
0
 10
232.562
 20
-24.95
 11
232.562
 21
-22.813
  0
LINE
  8
0
 10
232.562
 20
-22.813
 11
231.188
 21
-22.813
  0
LINE
  8
0
 10
231.188
 20
-22.813
 11
231.188
 21
-17.687
  0
LINE
  8
0
 10
231.188
 20
-17.687
 11
232.562
 21
-17.687
  0
LINE
  8
0
 10
232.562
 20
-17.687
 11
232.562
 21
-15.55
  0
LINE
  8
0
 10
232.562
 20
-15.55
 11
237.938
 21
-15.55
  0
LINE
  8
0
 10
237.938
 20
-15.55
 11
237.938
 21
-17.687
  0
LINE
  8
0
 10
237.938
 20
-17.687
 11
245
 21
-17.687
  0
LINE
  8
0
 10
245
 20
-17.687
 11
245
 21
-12.75
  0
LINE
  8
0
 10
245
 20
-12.75
 11
249.875
 21
-12.75
  0
LINE
  8
0
 10
249.875
 20
-12.75
 11
251.5
 21
-11.125
  0
LINE
  8
0
 10
251.5
 20
-11.125
 11
251.5
 21
0.625
  0
LINE
  8
0
 10
251.5
 20
0.625
 11
249.875
 21
2.25
  0
LINE
  8
0
 10
249.875
 20
2.25
 11
245
 21
2.25
  0
LINE
  8
0
 10
245
 20
2.25
 11
245
 21
9.75
  0
LINE
  8
0
 10
245
 20
9.75
 11
32.5
 21
9.75
  0
LINE
  8
0
 10
32.5
 20
9.75
 11
32.5
 21
3.25
  0
LINE
  8
0
 10
32.5
 20
3.25
 11
22.5
 21
3.25
  0
LINE
  8
0
 10
22.5
 20
3.25
 11
22.5
 21
8.125
  0
LINE
  8
0
 10
22.5
 20
8.125
 11
20.875
 21
9.75
  0
LINE
  8
0
 10
20.875
 20
9.75
 11
9.125
 21
9.75
  0
LINE
  8
0
 10
9.125
 20
9.75
 11
7.5
 21
8.125
  0
LINE
  8
0
 10
7.5
 20
8.125
 11
7.5
 21
3.25
  0
LINE
  8
0
 10
7.5
 20
3.25
 11
2.56299
 21
3.25
  0
LINE
  8
0
 10
2.56299
 20
3.25
 11
2.56299
 21
-3.8125
  0
LINE
  8
0
 10
2.56299
 20
-3.8125
 11
4.7
 21
-3.8125
  0
LINE
  8
0
 10
4.7
 20
-3.8125
 11
4.7
 21
-9.1875
  0
LINE
  8
0
 10
4.7
 20
-9.1875
 11
2.56299
 21
-9.1875
  0
LINE
  8
0
 10
2.56299
 20
-9.1875
 11
2.56299
 21
-10.5625
  0
LINE
  8
0
 10
2.56299
 20
-10.5625
 11
-2.56299
 21
-10.5625
  0
LINE
  8
0
 10
-2.56299
 20
-10.5625
 11
-2.56299
 21
-9.1875
  0
LINE
  8
0
 10
-2.56299
 20
-9.1875
 11
-4.7
 21
-9.1875
  0
LINE
  8
0
 10
-4.7
 20
-9.1875
 11
-4.7
 21
-3.8125
  0
LINE
  8
0
 10
-4.7
 20
-3.8125
 11
-2.56299
 21
-3.8125
  0
LINE
  8
0
 10
-2.56299
 20
-3.8125
 11
-2.56299
 21
3.25
  0
LINE
  8
0
 10
-2.56299
 20
3.25
 11
-7.5
 21
3.25
  0
LINE
  8
0
 10
-7.5
 20
3.25
 11
-7.5
 21
8.125
  0
LINE
  8
0
 10
-7.5
 20
8.125
 11
-9.125
 21
9.75
  0
LINE
  8
0
 10
-9.125
 20
9.75
 11
-20.875
 21
9.75
  0
LINE
  8
0
 10
-20.875
 20
9.75
 11
-22.5
 21
8.125
  0
LINE
  8
0
 10
-22.5
 20
8.125
 11
-22.5
 21
3.25
  0
LINE
  8
0
 10
-22.5
 20
3.25
 11
-32.5
 21
3.25
  0
LINE
  8
0
 10
-32.5
 20
3.25
 11
-32.5
 21
9.75
  0
LINE
  8
0
 10
-32.5
 20
9.75
 11
-245
 21
9.75
  0
LINE
  8
0
 10
-245
 20
9.75
 11
-245
 21
2.25
  0
LINE
  8
0
 10
-245
 20
2.25
 11
-249.875
 21
2.25
  0
LINE
  8
0
 10
-249.875
 20
2.25
 11
-251.5
 21
0.625
  0
LINE
  8
0
 10
-251.5
 20
0.625
 11
-251.5
 21
-11.125
  0
LINE
  8
0
 10
-251.5
 20
-11.125
 11
-249.875
 21
-12.75
  0
LINE
  8
0
 10
-249.875
 20
-12.75
 11
-245
 21
-12.75
  0
LINE
  8
0
 10
-245
 20
-12.75
 11
-245
 21
-17.687
  0
LINE
  8
0
 10
-245
 20
-17.687
 11
-237.938
 21
-17.687
  0
LINE
  8
0
 10
-237.938
 20
-17.687
 11
-237.938
 21
-15.55
  0
LINE
  8
0
 10
-237.938
 20
-15.55
 11
-232.562
 21
-15.55
  0
LINE
  8
0
 10
-232.562
 20
-15.55
 11
-232.562
 21
-17.687
  0
LINE
  8
0
 10
-232.562
 20
-17.687
 11
-231.188
 21
-17.687
  0
LINE
  8
0
 10
-231.188
 20
-17.687
 11
-231.188
 21
-22.813
  0
LINE
  8
0
 10
-231.188
 20
-22.813
 11
-232.562
 21
-22.813
  0
LINE
  8
0
 10
-232.562
 20
-22.813
 11
-232.562
 21
-24.95
  0
LINE
  8
0
 10
-232.562
 20
-24.95
 11
-237.938
 21
-24.95
  0
LINE
  8
0
 10
-237.938
 20
-24.95
 11
-237.938
 21
-22.813
  0
LINE
  8
0
 10
-237.938
 20
-22.813
 11
-245
 21
-22.813
  0
LINE
  8
0
 10
-245
 20
-22.813
 11
-245
 21
-27.75
  0
LINE
  8
0
 10
-245
 20
-27.75
 11
-249.875
 21
-27.75
  0
LINE
  8
0
 10
-249.875
 20
-27.75
 11
-251.5
 21
-29.375
  0
LINE
  8
0
 10
-251.5
 20
-29.375
 11
-251.5
 21
-41.125
  0
LINE
  8
0
 10
-251.5
 20
-41.125
 11
-249.875
 21
-42.75
  0
LINE
  8
0
 10
-249.875
 20
-42.75
 11
-245
 21
-42.75
  0
LINE
  8
0
 10
-245
 20
-42.75
 11
-245
 21
-50.25
  0
LINE
  8
0
 10
-245
 20
-50.25
 11
-181.5
 21
-50.25
  0
LINE
  8
0
 10
-181.5
 20
-50.25
 11
-181.5
 21
-55.7058
  0
LINE
  8
0
 10
-181.5
 20
-55.7058
 11
-170.956
 21
-66.25
  0
LINE
  8
0
 10
-170.956
 20
-66.25
 11
-129.044
 21
-66.25
  0
LINE
  8
0
 10
-129.044
 20
-66.25
 11
-118.5
 21
-55.7058
  0
LINE
  8
0
 10
-137.45
 20
-3.2
 11
-137.45
 21
3.2
  0
LINE
  8
0
 10
-137.45
 20
3.2
 11
-122.55
 21
3.2
  0
LINE
  8
0
 10
-122.55
 20
3.2
 11
-122.55
 21
-3.2
  0
LINE
  8
0
 10
-122.55
 20
-3.2
 11
-137.45
 21
-3.2
  0
LINE
  8
0
 10
122.55
 20
-3.2
 11
122.55
 21
3.2
  0
LINE
  8
0
 10
122.55
 20
3.2
 11
137.45
 21
3.2
  0
LINE
  8
0
 10
137.45
 20
3.2
 11
137.45
 21
-3.2
  0
LINE
  8
0
 10
137.45
 20
-3.2
 11
122.55
 21
-3.2
  0
LINE
  8
0
 10
-167.45
 20
-3.2
 11
-167.45
 21
3.2
  0
LINE
  8
0
 10
-167.45
 20
3.2
 11
-152.55
 21
3.2
  0
LINE
  8
0
 10
-152.55
 20
3.2
 11
-152.55
 21
-3.2
  0
LINE
  8
0
 10
-152.55
 20
-3.2
 11
-167.45
 21
-3.2
  0
LINE
  8
0
 10
152.55
 20
-3.2
 11
152.55
 21
3.2
  0
LINE
  8
0
 10
152.55
 20
3.2
 11
167.45
 21
3.2
  0
LINE
  8
0
 10
167.45
 20
3.2
 11
167.45
 21
-3.2
  0
LINE
  8
0
 10
167.45
 20
-3.2
 11
152.55
 21
-3.2
  0
LINE
  8
0
 10
144.628
 20
-2.5864
 11
144.145
 21
-2.46928
  0
LINE
  8
0
 10
144.145
 20
-2.46928
 11
143.693
 21
-2.26292
  0
LINE
  8
0
 10
143.693
 20
-2.26292
 11
143.289
 21
-1.97476
  0
LINE
  8
0
 10
143.289
 20
-1.97476
 11
142.946
 21
-1.61523
  0
LINE
  8
0
 10
142.946
 20
-1.61523
 11
142.677
 21
-1.19734
  0
LINE
  8
0
 10
142.677
 20
-1.19734
 11
142.493
 21
-0.73616
  0
LINE
  8
0
 10
142.493
 20
-0.73616
 11
142.399
 21
-0.248367
  0
LINE
  8
0
 10
142.399
 20
-0.248367
 11
142.399
 21
0.248367
  0
LINE
  8
0
 10
142.399
 20
0.248367
 11
142.493
 21
0.73616
  0
LINE
  8
0
 10
142.493
 20
0.73616
 11
142.677
 21
1.19734
  0
LINE
  8
0
 10
142.677
 20
1.19734
 11
142.946
 21
1.61523
  0
LINE
  8
0
 10
142.946
 20
1.61523
 11
143.289
 21
1.97476
  0
LINE
  8
0
 10
143.289
 20
1.97476
 11
143.693
 21
2.26292
  0
LINE
  8
0
 10
143.693
 20
2.26292
 11
144.145
 21
2.46928
  0
LINE
  8
0
 10
144.145
 20
2.46928
 11
144.628
 21
2.5864
  0
LINE
  8
0
 10
144.628
 20
2.5864
 11
145.124
 21
2.61003
  0
LINE
  8
0
 10
145.124
 20
2.61003
 11
145.616
 21
2.53934
  0
LINE
  8
0
 10
145.616
 20
2.53934
 11
146.085
 21
2.37686
  0
LINE
  8
0
 10
146.085
 20
2.37686
 11
146.516
 21
2.12848
  0
LINE
  8
0
 10
146.516
 20
2.12848
 11
146.891
 21
1.80316
  0
LINE
  8
0
 10
146.891
 20
1.80316
 11
147.198
 21
1.41269
  0
LINE
  8
0
 10
147.198
 20
1.41269
 11
147.426
 21
0.971146
  0
LINE
  8
0
 10
147.426
 20
0.971146
 11
147.566
 21
0.494507
  0
LINE
  8
0
 10
147.566
 20
0.494507
 11
147.613
 21
0
  0
LINE
  8
0
 10
147.613
 20
0
 11
147.566
 21
-0.494507
  0
LINE
  8
0
 10
147.566
 20
-0.494507
 11
147.426
 21
-0.971146
  0
LINE
  8
0
 10
147.426
 20
-0.971146
 11
147.198
 21
-1.41269
  0
LINE
  8
0
 10
147.198
 20
-1.41269
 11
146.891
 21
-1.80316
  0
LINE
  8
0
 10
146.891
 20
-1.80316
 11
146.516
 21
-2.12848
  0
LINE
  8
0
 10
146.516
 20
-2.12848
 11
146.085
 21
-2.37686
  0
LINE
  8
0
 10
146.085
 20
-2.37686
 11
145.616
 21
-2.53934
  0
LINE
  8
0
 10
145.616
 20
-2.53934
 11
145.124
 21
-2.61003
  0
LINE
  8
0
 10
145.124
 20
-2.61003
 11
144.628
 21
-2.5864
  0
LINE
  8
0
 10
-145.616
 20
-2.53934
 11
-146.085
 21
-2.37686
  0
LINE
  8
0
 10
-146.085
 20
-2.37686
 11
-146.516
 21
-2.12848
  0
LINE
  8
0
 10
-146.516
 20
-2.12848
 11
-146.891
 21
-1.80316
  0
LINE
  8
0
 10
-146.891
 20
-1.80316
 11
-147.198
 21
-1.41269
  0
LINE
  8
0
 10
-147.198
 20
-1.41269
 11
-147.426
 21
-0.971146
  0
LINE
  8
0
 10
-147.426
 20
-0.971146
 11
-147.566
 21
-0.494507
  0
LINE
  8
0
 10
-147.566
 20
-0.494507
 11
-147.613
 21
0
  0
LINE
  8
0
 10
-147.613
 20
0
 11
-147.566
 21
0.494507
  0
LINE
  8
0
 10
-147.566
 20
0.494507
 11
-147.426
 21
0.971146
  0
LINE
  8
0
 10
-147.426
 20
0.971146
 11
-147.198
 21
1.41269
  0
LINE
  8
0
 10
-147.198
 20
1.41269
 11
-146.891
 21
1.80316
  0
LINE
  8
0
 10
-146.891
 20
1.80316
 11
-146.516
 21
2.12848
  0
LINE
  8
0
 10
-146.516
 20
2.12848
 11
-146.085
 21
2.37686
  0
LINE
  8
0
 10
-146.085
 20
2.37686
 11
-145.616
 21
2.53934
  0
LINE
  8
0
 10
-145.616
 20
2.53934
 11
-145.124
 21
2.61003
  0
LINE
  8
0
 10
-145.124
 20
2.61003
 11
-144.628
 21
2.5864
  0
LINE
  8
0
 10
-144.628
 20
2.5864
 11
-144.145
 21
2.46928
  0
LINE
  8
0
 10
-144.145
 20
2.46928
 11
-143.693
 21
2.26292
  0
LINE
  8
0
 10
-143.693
 20
2.26292
 11
-143.289
 21
1.97476
  0
LINE
  8
0
 10
-143.289
 20
1.97476
 11
-142.946
 21
1.61523
  0
LINE
  8
0
 10
-142.946
 20
1.61523
 11
-142.677
 21
1.19734
  0
LINE
  8
0
 10
-142.677
 20
1.19734
 11
-142.493
 21
0.73616
  0
LINE
  8
0
 10
-142.493
 20
0.73616
 11
-142.399
 21
0.248367
  0
LINE
  8
0
 10
-142.399
 20
0.248367
 11
-142.399
 21
-0.248367
  0
LINE
  8
0
 10
-142.399
 20
-0.248367
 11
-142.493
 21
-0.73616
  0
LINE
  8
0
 10
-142.493
 20
-0.73616
 11
-142.677
 21
-1.19734
  0
LINE
  8
0
 10
-142.677
 20
-1.19734
 11
-142.946
 21
-1.61523
  0
LINE
  8
0
 10
-142.946
 20
-1.61523
 11
-143.289
 21
-1.97476
  0
LINE
  8
0
 10
-143.289
 20
-1.97476
 11
-143.693
 21
-2.26292
  0
LINE
  8
0
 10
-143.693
 20
-2.26292
 11
-144.145
 21
-2.46928
  0
LINE
  8
0
 10
-144.145
 20
-2.46928
 11
-144.628
 21
-2.5864
  0
LINE
  8
0
 10
-144.628
 20
-2.5864
 11
-145.124
 21
-2.61003
  0
LINE
  8
0
 10
-145.124
 20
-2.61003
 11
-145.616
 21
-2.53934
  0
LINE
  8
0
 10
-235.496
 20
-12.404
 11
-235.975
 21
-12.2677
  0
LINE
  8
0
 10
-235.975
 20
-12.2677
 11
-236.421
 21
-12.0456
  0
LINE
  8
0
 10
-236.421
 20
-12.0456
 11
-236.819
 21
-11.7453
  0
LINE
  8
0
 10
-236.819
 20
-11.7453
 11
-237.155
 21
-11.3771
  0
LINE
  8
0
 10
-237.155
 20
-11.3771
 11
-237.417
 21
-10.9535
  0
LINE
  8
0
 10
-237.417
 20
-10.9535
 11
-237.597
 21
-10.4889
  0
LINE
  8
0
 10
-237.597
 20
-10.4889
 11
-237.688
 21
-9.99911
  0
LINE
  8
0
 10
-237.688
 20
-9.99911
 11
-237.688
 21
-9.50087
  0
LINE
  8
0
 10
-237.688
 20
-9.50087
 11
-237.597
 21
-9.01111
  0
LINE
  8
0
 10
-237.597
 20
-9.01111
 11
-237.417
 21
-8.54649
  0
LINE
  8
0
 10
-237.417
 20
-8.54649
 11
-237.155
 21
-8.12288
  0
LINE
  8
0
 10
-237.155
 20
-8.12288
 11
-236.819
 21
-7.75467
  0
LINE
  8
0
 10
-236.819
 20
-7.75467
 11
-236.421
 21
-7.45441
  0
LINE
  8
0
 10
-236.421
 20
-7.45441
 11
-235.975
 21
-7.23232
  0
LINE
  8
0
 10
-235.975
 20
-7.23232
 11
-235.496
 21
-7.09596
  0
LINE
  8
0
 10
-235.496
 20
-7.09596
 11
-235
 21
-7.04999
  0
LINE
  8
0
 10
-235
 20
-7.04999
 11
-234.504
 21
-7.09596
  0
LINE
  8
0
 10
-234.504
 20
-7.09596
 11
-234.025
 21
-7.23232
  0
LINE
  8
0
 10
-234.025
 20
-7.23232
 11
-233.579
 21
-7.45441
  0
LINE
  8
0
 10
-233.579
 20
-7.45441
 11
-233.181
 21
-7.75467
  0
LINE
  8
0
 10
-233.181
 20
-7.75467
 11
-232.845
 21
-8.12288
  0
LINE
  8
0
 10
-232.845
 20
-8.12288
 11
-232.583
 21
-8.54649
  0
LINE
  8
0
 10
-232.583
 20
-8.54649
 11
-232.403
 21
-9.01111
  0
LINE
  8
0
 10
-232.403
 20
-9.01111
 11
-232.312
 21
-9.50087
  0
LINE
  8
0
 10
-232.312
 20
-9.50087
 11
-232.312
 21
-9.99911
  0
LINE
  8
0
 10
-232.312
 20
-9.99911
 11
-232.403
 21
-10.4889
  0
LINE
  8
0
 10
-232.403
 20
-10.4889
 11
-232.583
 21
-10.9535
  0
LINE
  8
0
 10
-232.583
 20
-10.9535
 11
-232.845
 21
-11.3771
  0
LINE
  8
0
 10
-232.845
 20
-11.3771
 11
-233.181
 21
-11.7453
  0
LINE
  8
0
 10
-233.181
 20
-11.7453
 11
-233.579
 21
-12.0456
  0
LINE
  8
0
 10
-233.579
 20
-12.0456
 11
-234.025
 21
-12.2677
  0
LINE
  8
0
 10
-234.025
 20
-12.2677
 11
-234.504
 21
-12.404
  0
LINE
  8
0
 10
-234.504
 20
-12.404
 11
-235
 21
-12.45
  0
LINE
  8
0
 10
-235
 20
-12.45
 11
-235.496
 21
-12.404
  0
LINE
  8
0
 10
234.504
 20
-12.404
 11
234.025
 21
-12.2677
  0
LINE
  8
0
 10
234.025
 20
-12.2677
 11
233.579
 21
-12.0456
  0
LINE
  8
0
 10
233.579
 20
-12.0456
 11
233.181
 21
-11.7453
  0
LINE
  8
0
 10
233.181
 20
-11.7453
 11
232.845
 21
-11.3771
  0
LINE
  8
0
 10
232.845
 20
-11.3771
 11
232.583
 21
-10.9535
  0
LINE
  8
0
 10
232.583
 20
-10.9535
 11
232.403
 21
-10.4889
  0
LINE
  8
0
 10
232.403
 20
-10.4889
 11
232.312
 21
-9.99911
  0
LINE
  8
0
 10
232.312
 20
-9.99911
 11
232.312
 21
-9.50087
  0
LINE
  8
0
 10
232.312
 20
-9.50087
 11
232.403
 21
-9.01111
  0
LINE
  8
0
 10
232.403
 20
-9.01111
 11
232.583
 21
-8.54649
  0
LINE
  8
0
 10
232.583
 20
-8.54649
 11
232.845
 21
-8.12288
  0
LINE
  8
0
 10
232.845
 20
-8.12288
 11
233.181
 21
-7.75467
  0
LINE
  8
0
 10
233.181
 20
-7.75467
 11
233.579
 21
-7.45441
  0
LINE
  8
0
 10
233.579
 20
-7.45441
 11
234.025
 21
-7.23232
  0
LINE
  8
0
 10
234.025
 20
-7.23232
 11
234.504
 21
-7.09596
  0
LINE
  8
0
 10
234.504
 20
-7.09596
 11
235
 21
-7.04999
  0
LINE
  8
0
 10
235
 20
-7.04999
 11
235.496
 21
-7.09596
  0
LINE
  8
0
 10
235.496
 20
-7.09596
 11
235.975
 21
-7.23232
  0
LINE
  8
0
 10
235.975
 20
-7.23232
 11
236.421
 21
-7.45441
  0
LINE
  8
0
 10
236.421
 20
-7.45441
 11
236.819
 21
-7.75467
  0
LINE
  8
0
 10
236.819
 20
-7.75467
 11
237.155
 21
-8.12288
  0
LINE
  8
0
 10
237.155
 20
-8.12288
 11
237.417
 21
-8.54649
  0
LINE
  8
0
 10
237.417
 20
-8.54649
 11
237.597
 21
-9.01111
  0
LINE
  8
0
 10
237.597
 20
-9.01111
 11
237.688
 21
-9.50087
  0
LINE
  8
0
 10
237.688
 20
-9.50087
 11
237.688
 21
-9.99911
  0
LINE
  8
0
 10
237.688
 20
-9.99911
 11
237.597
 21
-10.4889
  0
LINE
  8
0
 10
237.597
 20
-10.4889
 11
237.417
 21
-10.9535
  0
LINE
  8
0
 10
237.417
 20
-10.9535
 11
237.155
 21
-11.3771
  0
LINE
  8
0
 10
237.155
 20
-11.3771
 11
236.819
 21
-11.7453
  0
LINE
  8
0
 10
236.819
 20
-11.7453
 11
236.421
 21
-12.0456
  0
LINE
  8
0
 10
236.421
 20
-12.0456
 11
235.975
 21
-12.2677
  0
LINE
  8
0
 10
235.975
 20
-12.2677
 11
235.496
 21
-12.404
  0
LINE
  8
0
 10
235.496
 20
-12.404
 11
235
 21
-12.45
  0
LINE
  8
0
 10
235
 20
-12.45
 11
234.504
 21
-12.404
  0
LINE
  8
0
 10
152.55
 20
-29.7
 11
152.55
 21
-23.3
  0
LINE
  8
0
 10
152.55
 20
-23.3
 11
167.45
 21
-23.3
  0
LINE
  8
0
 10
167.45
 20
-23.3
 11
167.45
 21
-29.7
  0
LINE
  8
0
 10
167.45
 20
-29.7
 11
152.55
 21
-29.7
  0
LINE
  8
0
 10
122.55
 20
-29.7
 11
122.55
 21
-23.3
  0
LINE
  8
0
 10
122.55
 20
-23.3
 11
137.45
 21
-23.3
  0
LINE
  8
0
 10
137.45
 20
-23.3
 11
137.45
 21
-29.7
  0
LINE
  8
0
 10
137.45
 20
-29.7
 11
122.55
 21
-29.7
  0
LINE
  8
0
 10
-167.45
 20
-29.7
 11
-167.45
 21
-23.3
  0
LINE
  8
0
 10
-167.45
 20
-23.3
 11
-152.55
 21
-23.3
  0
LINE
  8
0
 10
-152.55
 20
-23.3
 11
-152.55
 21
-29.7
  0
LINE
  8
0
 10
-152.55
 20
-29.7
 11
-167.45
 21
-29.7
  0
LINE
  8
0
 10
7.54999
 20
-29.7
 11
7.54999
 21
-23.3
  0
LINE
  8
0
 10
7.54999
 20
-23.3
 11
22.45
 21
-23.3
  0
LINE
  8
0
 10
22.45
 20
-23.3
 11
22.45
 21
-29.7
  0
LINE
  8
0
 10
22.45
 20
-29.7
 11
7.54999
 21
-29.7
  0
LINE
  8
0
 10
-22.45
 20
-29.7
 11
-22.45
 21
-23.3
  0
LINE
  8
0
 10
-22.45
 20
-23.3
 11
-7.54999
 21
-23.3
  0
LINE
  8
0
 10
-7.54999
 20
-23.3
 11
-7.54999
 21
-29.7
  0
LINE
  8
0
 10
-7.54999
 20
-29.7
 11
-22.45
 21
-29.7
  0
LINE
  8
0
 10
-137.45
 20
-29.7
 11
-137.45
 21
-23.3
  0
LINE
  8
0
 10
-137.45
 20
-23.3
 11
-122.55
 21
-23.3
  0
LINE
  8
0
 10
-122.55
 20
-23.3
 11
-122.55
 21
-29.7
  0
LINE
  8
0
 10
-122.55
 20
-29.7
 11
-137.45
 21
-29.7
  0
LINE
  8
0
 10
-145.616
 20
-29.0393
 11
-146.085
 21
-28.8769
  0
LINE
  8
0
 10
-146.085
 20
-28.8769
 11
-146.516
 21
-28.6285
  0
LINE
  8
0
 10
-146.516
 20
-28.6285
 11
-146.891
 21
-28.3032
  0
LINE
  8
0
 10
-146.891
 20
-28.3032
 11
-147.198
 21
-27.9127
  0
LINE
  8
0
 10
-147.198
 20
-27.9127
 11
-147.426
 21
-27.4711
  0
LINE
  8
0
 10
-147.426
 20
-27.4711
 11
-147.566
 21
-26.9945
  0
LINE
  8
0
 10
-147.566
 20
-26.9945
 11
-147.613
 21
-26.5
  0
LINE
  8
0
 10
-147.613
 20
-26.5
 11
-147.566
 21
-26.0055
  0
LINE
  8
0
 10
-147.566
 20
-26.0055
 11
-147.426
 21
-25.5288
  0
LINE
  8
0
 10
-147.426
 20
-25.5288
 11
-147.198
 21
-25.0873
  0
LINE
  8
0
 10
-147.198
 20
-25.0873
 11
-146.891
 21
-24.6968
  0
LINE
  8
0
 10
-146.891
 20
-24.6968
 11
-146.516
 21
-24.3715
  0
LINE
  8
0
 10
-146.516
 20
-24.3715
 11
-146.085
 21
-24.1231
  0
LINE
  8
0
 10
-146.085
 20
-24.1231
 11
-145.616
 21
-23.9606
  0
LINE
  8
0
 10
-145.616
 20
-23.9606
 11
-145.124
 21
-23.89
  0
LINE
  8
0
 10
-145.124
 20
-23.89
 11
-144.628
 21
-23.9136
  0
LINE
  8
0
 10
-144.628
 20
-23.9136
 11
-144.145
 21
-24.0307
  0
LINE
  8
0
 10
-144.145
 20
-24.0307
 11
-143.693
 21
-24.2371
  0
LINE
  8
0
 10
-143.693
 20
-24.2371
 11
-143.289
 21
-24.5252
  0
LINE
  8
0
 10
-143.289
 20
-24.5252
 11
-142.946
 21
-24.8848
  0
LINE
  8
0
 10
-142.946
 20
-24.8848
 11
-142.677
 21
-25.3026
  0
LINE
  8
0
 10
-142.677
 20
-25.3026
 11
-142.493
 21
-25.7638
  0
LINE
  8
0
 10
-142.493
 20
-25.7638
 11
-142.399
 21
-26.2516
  0
LINE
  8
0
 10
-142.399
 20
-26.2516
 11
-142.399
 21
-26.7484
  0
LINE
  8
0
 10
-142.399
 20
-26.7484
 11
-142.493
 21
-27.2362
  0
LINE
  8
0
 10
-142.493
 20
-27.2362
 11
-142.677
 21
-27.6973
  0
LINE
  8
0
 10
-142.677
 20
-27.6973
 11
-142.946
 21
-28.1152
  0
LINE
  8
0
 10
-142.946
 20
-28.1152
 11
-143.289
 21
-28.4748
  0
LINE
  8
0
 10
-143.289
 20
-28.4748
 11
-143.693
 21
-28.7629
  0
LINE
  8
0
 10
-143.693
 20
-28.7629
 11
-144.145
 21
-28.9693
  0
LINE
  8
0
 10
-144.145
 20
-28.9693
 11
-144.628
 21
-29.0864
  0
LINE
  8
0
 10
-144.628
 20
-29.0864
 11
-145.124
 21
-29.11
  0
LINE
  8
0
 10
-145.124
 20
-29.11
 11
-145.616
 21
-29.0393
  0
LINE
  8
0
 10
-0.371857
 20
-29.0864
 11
-0.854614
 21
-28.9693
  0
LINE
  8
0
 10
-0.854614
 20
-28.9693
 11
-1.30649
 21
-28.7629
  0
LINE
  8
0
 10
-1.30649
 20
-28.7629
 11
-1.71114
 21
-28.4748
  0
LINE
  8
0
 10
-1.71114
 20
-28.4748
 11
-2.05396
 21
-28.1152
  0
LINE
  8
0
 10
-2.05396
 20
-28.1152
 11
-2.32253
 21
-27.6973
  0
LINE
  8
0
 10
-2.32253
 20
-27.6973
 11
-2.50714
 21
-27.2362
  0
LINE
  8
0
 10
-2.50714
 20
-27.2362
 11
-2.60117
 21
-26.7484
  0
LINE
  8
0
 10
-2.60117
 20
-26.7484
 11
-2.60117
 21
-26.2516
  0
LINE
  8
0
 10
-2.60117
 20
-26.2516
 11
-2.50714
 21
-25.7638
  0
LINE
  8
0
 10
-2.50714
 20
-25.7638
 11
-2.32253
 21
-25.3026
  0
LINE
  8
0
 10
-2.32253
 20
-25.3026
 11
-2.05396
 21
-24.8848
  0
LINE
  8
0
 10
-2.05396
 20
-24.8848
 11
-1.71114
 21
-24.5252
  0
LINE
  8
0
 10
-1.71114
 20
-24.5252
 11
-1.30649
 21
-24.2371
  0
LINE
  8
0
 10
-1.30649
 20
-24.2371
 11
-0.854614
 21
-24.0307
  0
LINE
  8
0
 10
-0.854614
 20
-24.0307
 11
-0.371857
 21
-23.9136
  0
LINE
  8
0
 10
-0.371857
 20
-23.9136
 11
0.124329
 21
-23.89
  0
LINE
  8
0
 10
0.124329
 20
-23.89
 11
0.616028
 21
-23.9606
  0
LINE
  8
0
 10
0.616028
 20
-23.9606
 11
1.08546
 21
-24.1231
  0
LINE
  8
0
 10
1.08546
 20
-24.1231
 11
1.51569
 21
-24.3715
  0
LINE
  8
0
 10
1.51569
 20
-24.3715
 11
1.89111
 21
-24.6968
  0
LINE
  8
0
 10
1.89111
 20
-24.6968
 11
2.19818
 21
-25.0873
  0
LINE
  8
0
 10
2.19818
 20
-25.0873
 11
2.42581
 21
-25.5288
  0
LINE
  8
0
 10
2.42581
 20
-25.5288
 11
2.56577
 21
-26.0055
  0
LINE
  8
0
 10
2.56577
 20
-26.0055
 11
2.61299
 21
-26.5
  0
LINE
  8
0
 10
2.61299
 20
-26.5
 11
2.56577
 21
-26.9945
  0
LINE
  8
0
 10
2.56577
 20
-26.9945
 11
2.42581
 21
-27.4711
  0
LINE
  8
0
 10
2.42581
 20
-27.4711
 11
2.19818
 21
-27.9127
  0
LINE
  8
0
 10
2.19818
 20
-27.9127
 11
1.89111
 21
-28.3032
  0
LINE
  8
0
 10
1.89111
 20
-28.3032
 11
1.51569
 21
-28.6285
  0
LINE
  8
0
 10
1.51569
 20
-28.6285
 11
1.08546
 21
-28.8769
  0
LINE
  8
0
 10
1.08546
 20
-28.8769
 11
0.616028
 21
-29.0393
  0
LINE
  8
0
 10
0.616028
 20
-29.0393
 11
0.124329
 21
-29.11
  0
LINE
  8
0
 10
0.124329
 20
-29.11
 11
-0.371857
 21
-29.0864
  0
LINE
  8
0
 10
144.628
 20
-29.0864
 11
144.145
 21
-28.9693
  0
LINE
  8
0
 10
144.145
 20
-28.9693
 11
143.693
 21
-28.7629
  0
LINE
  8
0
 10
143.693
 20
-28.7629
 11
143.289
 21
-28.4748
  0
LINE
  8
0
 10
143.289
 20
-28.4748
 11
142.946
 21
-28.1152
  0
LINE
  8
0
 10
142.946
 20
-28.1152
 11
142.677
 21
-27.6973
  0
LINE
  8
0
 10
142.677
 20
-27.6973
 11
142.493
 21
-27.2362
  0
LINE
  8
0
 10
142.493
 20
-27.2362
 11
142.399
 21
-26.7484
  0
LINE
  8
0
 10
142.399
 20
-26.7484
 11
142.399
 21
-26.2516
  0
LINE
  8
0
 10
142.399
 20
-26.2516
 11
142.493
 21
-25.7638
  0
LINE
  8
0
 10
142.493
 20
-25.7638
 11
142.677
 21
-25.3026
  0
LINE
  8
0
 10
142.677
 20
-25.3026
 11
142.946
 21
-24.8848
  0
LINE
  8
0
 10
142.946
 20
-24.8848
 11
143.289
 21
-24.5252
  0
LINE
  8
0
 10
143.289
 20
-24.5252
 11
143.693
 21
-24.2371
  0
LINE
  8
0
 10
143.693
 20
-24.2371
 11
144.145
 21
-24.0307
  0
LINE
  8
0
 10
144.145
 20
-24.0307
 11
144.628
 21
-23.9136
  0
LINE
  8
0
 10
144.628
 20
-23.9136
 11
145.124
 21
-23.89
  0
LINE
  8
0
 10
145.124
 20
-23.89
 11
145.616
 21
-23.9606
  0
LINE
  8
0
 10
145.616
 20
-23.9606
 11
146.085
 21
-24.1231
  0
LINE
  8
0
 10
146.085
 20
-24.1231
 11
146.516
 21
-24.3715
  0
LINE
  8
0
 10
146.516
 20
-24.3715
 11
146.891
 21
-24.6968
  0
LINE
  8
0
 10
146.891
 20
-24.6968
 11
147.198
 21
-25.0873
  0
LINE
  8
0
 10
147.198
 20
-25.0873
 11
147.426
 21
-25.5288
  0
LINE
  8
0
 10
147.426
 20
-25.5288
 11
147.566
 21
-26.0055
  0
LINE
  8
0
 10
147.566
 20
-26.0055
 11
147.613
 21
-26.5
  0
LINE
  8
0
 10
147.613
 20
-26.5
 11
147.566
 21
-26.9945
  0
LINE
  8
0
 10
147.566
 20
-26.9945
 11
147.426
 21
-27.4711
  0
LINE
  8
0
 10
147.426
 20
-27.4711
 11
147.198
 21
-27.9127
  0
LINE
  8
0
 10
147.198
 20
-27.9127
 11
146.891
 21
-28.3032
  0
LINE
  8
0
 10
146.891
 20
-28.3032
 11
146.516
 21
-28.6285
  0
LINE
  8
0
 10
146.516
 20
-28.6285
 11
146.085
 21
-28.8769
  0
LINE
  8
0
 10
146.085
 20
-28.8769
 11
145.616
 21
-29.0393
  0
LINE
  8
0
 10
145.616
 20
-29.0393
 11
145.124
 21
-29.11
  0
LINE
  8
0
 10
145.124
 20
-29.11
 11
144.628
 21
-29.0864
  0
LINE
  8
0
 10
-0.241928
 20
-35.7327
 11
-0.706192
 21
-35.5964
  0
LINE
  8
0
 10
-0.706192
 20
-35.5964
 11
-1.11325
 21
-35.3348
  0
LINE
  8
0
 10
-1.11325
 20
-35.3348
 11
-1.43013
 21
-34.9691
  0
LINE
  8
0
 10
-1.43013
 20
-34.9691
 11
-1.63113
 21
-34.5289
  0
LINE
  8
0
 10
-1.63113
 20
-34.5289
 11
-1.7
 21
-34.05
  0
LINE
  8
0
 10
-1.7
 20
-34.05
 11
-1.63113
 21
-33.571
  0
LINE
  8
0
 10
-1.63113
 20
-33.571
 11
-1.43013
 21
-33.1309
  0
LINE
  8
0
 10
-1.43013
 20
-33.1309
 11
-1.11325
 21
-32.7652
  0
LINE
  8
0
 10
-1.11325
 20
-32.7652
 11
-0.706192
 21
-32.5036
  0
LINE
  8
0
 10
-0.706192
 20
-32.5036
 11
-0.241928
 21
-32.3673
  0
LINE
  8
0
 10
-0.241928
 20
-32.3673
 11
0.241928
 21
-32.3673
  0
LINE
  8
0
 10
0.241928
 20
-32.3673
 11
0.706192
 21
-32.5036
  0
LINE
  8
0
 10
0.706192
 20
-32.5036
 11
1.11325
 21
-32.7652
  0
LINE
  8
0
 10
1.11325
 20
-32.7652
 11
1.43013
 21
-33.1309
  0
LINE
  8
0
 10
1.43013
 20
-33.1309
 11
1.63113
 21
-33.571
  0
LINE
  8
0
 10
1.63113
 20
-33.571
 11
1.7
 21
-34.05
  0
LINE
  8
0
 10
1.7
 20
-34.05
 11
1.63113
 21
-34.5289
  0
LINE
  8
0
 10
1.63113
 20
-34.5289
 11
1.43013
 21
-34.9691
  0
LINE
  8
0
 10
1.43013
 20
-34.9691
 11
1.11325
 21
-35.3348
  0
LINE
  8
0
 10
1.11325
 20
-35.3348
 11
0.706192
 21
-35.5964
  0
LINE
  8
0
 10
0.706192
 20
-35.5964
 11
0.241928
 21
-35.7327
  0
LINE
  8
0
 10
0.241928
 20
-35.7327
 11
-0.241928
 21
-35.7327
  0
LINE
  8
0
 10
149.758
 20
-35.7327
 11
149.294
 21
-35.5964
  0
LINE
  8
0
 10
149.294
 20
-35.5964
 11
148.887
 21
-35.3348
  0
LINE
  8
0
 10
148.887
 20
-35.3348
 11
148.57
 21
-34.9691
  0
LINE
  8
0
 10
148.57
 20
-34.9691
 11
148.369
 21
-34.5289
  0
LINE
  8
0
 10
148.369
 20
-34.5289
 11
148.3
 21
-34.05
  0
LINE
  8
0
 10
148.3
 20
-34.05
 11
148.369
 21
-33.571
  0
LINE
  8
0
 10
148.369
 20
-33.571
 11
148.57
 21
-33.1309
  0
LINE
  8
0
 10
148.57
 20
-33.1309
 11
148.887
 21
-32.7652
  0
LINE
  8
0
 10
148.887
 20
-32.7652
 11
149.294
 21
-32.5036
  0
LINE
  8
0
 10
149.294
 20
-32.5036
 11
149.758
 21
-32.3673
  0
LINE
  8
0
 10
149.758
 20
-32.3673
 11
150.242
 21
-32.3673
  0
LINE
  8
0
 10
150.242
 20
-32.3673
 11
150.706
 21
-32.5036
  0
LINE
  8
0
 10
150.706
 20
-32.5036
 11
151.113
 21
-32.7652
  0
LINE
  8
0
 10
151.113
 20
-32.7652
 11
151.43
 21
-33.1309
  0
LINE
  8
0
 10
151.43
 20
-33.1309
 11
151.631
 21
-33.571
  0
LINE
  8
0
 10
151.631
 20
-33.571
 11
151.7
 21
-34.05
  0
LINE
  8
0
 10
151.7
 20
-34.05
 11
151.631
 21
-34.5289
  0
LINE
  8
0
 10
151.631
 20
-34.5289
 11
151.43
 21
-34.9691
  0
LINE
  8
0
 10
151.43
 20
-34.9691
 11
151.113
 21
-35.3348
  0
LINE
  8
0
 10
151.113
 20
-35.3348
 11
150.706
 21
-35.5964
  0
LINE
  8
0
 10
150.706
 20
-35.5964
 11
150.242
 21
-35.7327
  0
LINE
  8
0
 10
150.242
 20
-35.7327
 11
149.758
 21
-35.7327
  0
LINE
  8
0
 10
-150.242
 20
-35.7327
 11
-150.706
 21
-35.5964
  0
LINE
  8
0
 10
-150.706
 20
-35.5964
 11
-151.113
 21
-35.3348
  0
LINE
  8
0
 10
-151.113
 20
-35.3348
 11
-151.43
 21
-34.9691
  0
LINE
  8
0
 10
-151.43
 20
-34.9691
 11
-151.631
 21
-34.5289
  0
LINE
  8
0
 10
-151.631
 20
-34.5289
 11
-151.7
 21
-34.05
  0
LINE
  8
0
 10
-151.7
 20
-34.05
 11
-151.631
 21
-33.571
  0
LINE
  8
0
 10
-151.631
 20
-33.571
 11
-151.43
 21
-33.1309
  0
LINE
  8
0
 10
-151.43
 20
-33.1309
 11
-151.113
 21
-32.7652
  0
LINE
  8
0
 10
-151.113
 20
-32.7652
 11
-150.706
 21
-32.5036
  0
LINE
  8
0
 10
-150.706
 20
-32.5036
 11
-150.242
 21
-32.3673
  0
LINE
  8
0
 10
-150.242
 20
-32.3673
 11
-149.758
 21
-32.3673
  0
LINE
  8
0
 10
-149.758
 20
-32.3673
 11
-149.294
 21
-32.5036
  0
LINE
  8
0
 10
-149.294
 20
-32.5036
 11
-148.887
 21
-32.7652
  0
LINE
  8
0
 10
-148.887
 20
-32.7652
 11
-148.57
 21
-33.1309
  0
LINE
  8
0
 10
-148.57
 20
-33.1309
 11
-148.369
 21
-33.571
  0
LINE
  8
0
 10
-148.369
 20
-33.571
 11
-148.3
 21
-34.05
  0
LINE
  8
0
 10
-148.3
 20
-34.05
 11
-148.369
 21
-34.5289
  0
LINE
  8
0
 10
-148.369
 20
-34.5289
 11
-148.57
 21
-34.9691
  0
LINE
  8
0
 10
-148.57
 20
-34.9691
 11
-148.887
 21
-35.3348
  0
LINE
  8
0
 10
-148.887
 20
-35.3348
 11
-149.294
 21
-35.5964
  0
LINE
  8
0
 10
-149.294
 20
-35.5964
 11
-149.758
 21
-35.7327
  0
LINE
  8
0
 10
-149.758
 20
-35.7327
 11
-150.242
 21
-35.7327
  0
LINE
  8
0
 10
234.504
 20
-39.904
 11
234.025
 21
-39.7677
  0
LINE
  8
0
 10
234.025
 20
-39.7677
 11
233.579
 21
-39.5456
  0
LINE
  8
0
 10
233.579
 20
-39.5456
 11
233.181
 21
-39.2453
  0
LINE
  8
0
 10
233.181
 20
-39.2453
 11
232.845
 21
-38.8771
  0
LINE
  8
0
 10
232.845
 20
-38.8771
 11
232.583
 21
-38.4535
  0
LINE
  8
0
 10
232.583
 20
-38.4535
 11
232.403
 21
-37.9889
  0
LINE
  8
0
 10
232.403
 20
-37.9889
 11
232.312
 21
-37.4991
  0
LINE
  8
0
 10
232.312
 20
-37.4991
 11
232.312
 21
-37.0009
  0
LINE
  8
0
 10
232.312
 20
-37.0009
 11
232.403
 21
-36.5111
  0
LINE
  8
0
 10
232.403
 20
-36.5111
 11
232.583
 21
-36.0465
  0
LINE
  8
0
 10
232.583
 20
-36.0465
 11
232.845
 21
-35.6229
  0
LINE
  8
0
 10
232.845
 20
-35.6229
 11
233.181
 21
-35.2547
  0
LINE
  8
0
 10
233.181
 20
-35.2547
 11
233.579
 21
-34.9544
  0
LINE
  8
0
 10
233.579
 20
-34.9544
 11
234.025
 21
-34.7323
  0
LINE
  8
0
 10
234.025
 20
-34.7323
 11
234.504
 21
-34.596
  0
LINE
  8
0
 10
234.504
 20
-34.596
 11
235
 21
-34.55
  0
LINE
  8
0
 10
235
 20
-34.55
 11
235.496
 21
-34.596
  0
LINE
  8
0
 10
235.496
 20
-34.596
 11
235.975
 21
-34.7323
  0
LINE
  8
0
 10
235.975
 20
-34.7323
 11
236.421
 21
-34.9544
  0
LINE
  8
0
 10
236.421
 20
-34.9544
 11
236.819
 21
-35.2547
  0
LINE
  8
0
 10
236.819
 20
-35.2547
 11
237.155
 21
-35.6229
  0
LINE
  8
0
 10
237.155
 20
-35.6229
 11
237.417
 21
-36.0465
  0
LINE
  8
0
 10
237.417
 20
-36.0465
 11
237.597
 21
-36.5111
  0
LINE
  8
0
 10
237.597
 20
-36.5111
 11
237.688
 21
-37.0009
  0
LINE
  8
0
 10
237.688
 20
-37.0009
 11
237.688
 21
-37.4991
  0
LINE
  8
0
 10
237.688
 20
-37.4991
 11
237.597
 21
-37.9889
  0
LINE
  8
0
 10
237.597
 20
-37.9889
 11
237.417
 21
-38.4535
  0
LINE
  8
0
 10
237.417
 20
-38.4535
 11
237.155
 21
-38.8771
  0
LINE
  8
0
 10
237.155
 20
-38.8771
 11
236.819
 21
-39.2453
  0
LINE
  8
0
 10
236.819
 20
-39.2453
 11
236.421
 21
-39.5456
  0
LINE
  8
0
 10
236.421
 20
-39.5456
 11
235.975
 21
-39.7677
  0
LINE
  8
0
 10
235.975
 20
-39.7677
 11
235.496
 21
-39.904
  0
LINE
  8
0
 10
235.496
 20
-39.904
 11
235
 21
-39.95
  0
LINE
  8
0
 10
235
 20
-39.95
 11
234.504
 21
-39.904
  0
LINE
  8
0
 10
-235.496
 20
-39.904
 11
-235.975
 21
-39.7677
  0
LINE
  8
0
 10
-235.975
 20
-39.7677
 11
-236.421
 21
-39.5456
  0
LINE
  8
0
 10
-236.421
 20
-39.5456
 11
-236.819
 21
-39.2453
  0
LINE
  8
0
 10
-236.819
 20
-39.2453
 11
-237.155
 21
-38.8771
  0
LINE
  8
0
 10
-237.155
 20
-38.8771
 11
-237.417
 21
-38.4535
  0
LINE
  8
0
 10
-237.417
 20
-38.4535
 11
-237.597
 21
-37.9889
  0
LINE
  8
0
 10
-237.597
 20
-37.9889
 11
-237.688
 21
-37.4991
  0
LINE
  8
0
 10
-237.688
 20
-37.4991
 11
-237.688
 21
-37.0009
  0
LINE
  8
0
 10
-237.688
 20
-37.0009
 11
-237.597
 21
-36.5111
  0
LINE
  8
0
 10
-237.597
 20
-36.5111
 11
-237.417
 21
-36.0465
  0
LINE
  8
0
 10
-237.417
 20
-36.0465
 11
-237.155
 21
-35.6229
  0
LINE
  8
0
 10
-237.155
 20
-35.6229
 11
-236.819
 21
-35.2547
  0
LINE
  8
0
 10
-236.819
 20
-35.2547
 11
-236.421
 21
-34.9544
  0
LINE
  8
0
 10
-236.421
 20
-34.9544
 11
-235.975
 21
-34.7323
  0
LINE
  8
0
 10
-235.975
 20
-34.7323
 11
-235.496
 21
-34.596
  0
LINE
  8
0
 10
-235.496
 20
-34.596
 11
-235
 21
-34.55
  0
LINE
  8
0
 10
-235
 20
-34.55
 11
-234.504
 21
-34.596
  0
LINE
  8
0
 10
-234.504
 20
-34.596
 11
-234.025
 21
-34.7323
  0
LINE
  8
0
 10
-234.025
 20
-34.7323
 11
-233.579
 21
-34.9544
  0
LINE
  8
0
 10
-233.579
 20
-34.9544
 11
-233.181
 21
-35.2547
  0
LINE
  8
0
 10
-233.181
 20
-35.2547
 11
-232.845
 21
-35.6229
  0
LINE
  8
0
 10
-232.845
 20
-35.6229
 11
-232.583
 21
-36.0465
  0
LINE
  8
0
 10
-232.583
 20
-36.0465
 11
-232.403
 21
-36.5111
  0
LINE
  8
0
 10
-232.403
 20
-36.5111
 11
-232.312
 21
-37.0009
  0
LINE
  8
0
 10
-232.312
 20
-37.0009
 11
-232.312
 21
-37.4991
  0
LINE
  8
0
 10
-232.312
 20
-37.4991
 11
-232.403
 21
-37.9889
  0
LINE
  8
0
 10
-232.403
 20
-37.9889
 11
-232.583
 21
-38.4535
  0
LINE
  8
0
 10
-232.583
 20
-38.4535
 11
-232.845
 21
-38.8771
  0
LINE
  8
0
 10
-232.845
 20
-38.8771
 11
-233.181
 21
-39.2453
  0
LINE
  8
0
 10
-233.181
 20
-39.2453
 11
-233.579
 21
-39.5456
  0
LINE
  8
0
 10
-233.579
 20
-39.5456
 11
-234.025
 21
-39.7677
  0
LINE
  8
0
 10
-234.025
 20
-39.7677
 11
-234.504
 21
-39.904
  0
LINE
  8
0
 10
-234.504
 20
-39.904
 11
-235
 21
-39.95
  0
LINE
  8
0
 10
-235
 20
-39.95
 11
-235.496
 21
-39.904
  0
LINE
  8
0
 10
-0.248581
 20
-59.2472
 11
-0.74527
 21
-59.2247
  0
LINE
  8
0
 10
-0.74527
 20
-59.2247
 11
-1.24042
 21
-59.1798
  0
LINE
  8
0
 10
-1.24042
 20
-59.1798
 11
-1.73305
 21
-59.1126
  0
LINE
  8
0
 10
-1.73305
 20
-59.1126
 11
-2.22214
 21
-59.0232
  0
LINE
  8
0
 10
-2.22214
 20
-59.0232
 11
-2.70668
 21
-58.9118
  0
LINE
  8
0
 10
-2.70668
 20
-58.9118
 11
-3.18568
 21
-58.7786
  0
LINE
  8
0
 10
-3.18568
 20
-58.7786
 11
-3.65819
 21
-58.6239
  0
LINE
  8
0
 10
-3.65819
 20
-58.6239
 11
-4.12323
 21
-58.448
  0
LINE
  8
0
 10
-4.12323
 20
-58.448
 11
-4.57983
 21
-58.2513
  0
LINE
  8
0
 10
-4.57983
 20
-58.2513
 11
-5.02708
 21
-58.0341
  0
LINE
  8
0
 10
-5.02708
 20
-58.0341
 11
-5.46407
 21
-57.7969
  0
LINE
  8
0
 10
-5.46407
 20
-57.7969
 11
-5.88989
 21
-57.5403
  0
LINE
  8
0
 10
-5.88989
 20
-57.5403
 11
-6.30368
 21
-57.2646
  0
LINE
  8
0
 10
-6.30368
 20
-57.2646
 11
-6.70459
 21
-56.9706
  0
LINE
  8
0
 10
-6.70459
 20
-56.9706
 11
-7.0918
 21
-56.6587
  0
LINE
  8
0
 10
-7.0918
 20
-56.6587
 11
-7.46452
 21
-56.3297
  0
LINE
  8
0
 10
-7.46452
 20
-56.3297
 11
-7.82199
 21
-55.9841
  0
LINE
  8
0
 10
-7.82199
 20
-55.9841
 11
-8.16348
 21
-55.6227
  0
LINE
  8
0
 10
-8.16348
 20
-55.6227
 11
-8.4883
 21
-55.2463
  0
LINE
  8
0
 10
-8.4883
 20
-55.2463
 11
-8.79578
 21
-54.8556
  0
LINE
  8
0
 10
-8.79578
 20
-54.8556
 11
-9.08528
 21
-54.4514
  0
LINE
  8
0
 10
-9.08528
 20
-54.4514
 11
-9.35623
 21
-54.0345
  0
LINE
  8
0
 10
-9.35623
 20
-54.0345
 11
-9.60806
 21
-53.6058
  0
LINE
  8
0
 10
-9.60806
 20
-53.6058
 11
-9.84026
 21
-53.1662
  0
LINE
  8
0
 10
-9.84026
 20
-53.1662
 11
-10.0524
 21
-52.7165
  0
LINE
  8
0
 10
-10.0524
 20
-52.7165
 11
-10.2439
 21
-52.2577
  0
LINE
  8
0
 10
-10.2439
 20
-52.2577
 11
-10.4146
 21
-51.7907
  0
LINE
  8
0
 10
-10.4146
 20
-51.7907
 11
-10.5639
 21
-51.3165
  0
LINE
  8
0
 10
-10.5639
 20
-51.3165
 11
-10.6917
 21
-50.836
  0
LINE
  8
0
 10
-10.6917
 20
-50.836
 11
-10.7976
 21
-50.3503
  0
LINE
  8
0
 10
-10.7976
 20
-50.3503
 11
-10.8815
 21
-49.8602
  0
LINE
  8
0
 10
-10.8815
 20
-49.8602
 11
-10.9431
 21
-49.3668
  0
LINE
  8
0
 10
-10.9431
 20
-49.3668
 11
-10.9824
 21
-48.8712
  0
LINE
  8
0
 10
-10.9824
 20
-48.8712
 11
-10.9993
 21
-48.3743
  0
LINE
  8
0
 10
-10.9993
 20
-48.3743
 11
-10.9937
 21
-47.8771
  0
LINE
  8
0
 10
-10.9937
 20
-47.8771
 11
-10.9656
 21
-47.3808
  0
LINE
  8
0
 10
-10.9656
 20
-47.3808
 11
-10.9151
 21
-46.8861
  0
LINE
  8
0
 10
-10.9151
 20
-46.8861
 11
-10.8423
 21
-46.3943
  0
LINE
  8
0
 10
-10.8423
 20
-46.3943
 11
-10.7474
 21
-45.9062
  0
LINE
  8
0
 10
-10.7474
 20
-45.9062
 11
-10.6305
 21
-45.423
  0
LINE
  8
0
 10
-10.6305
 20
-45.423
 11
-10.4919
 21
-44.9455
  0
LINE
  8
0
 10
-10.4919
 20
-44.9455
 11
-10.3319
 21
-44.4748
  0
LINE
  8
0
 10
-10.3319
 20
-44.4748
 11
-10.1507
 21
-44.0118
  0
LINE
  8
0
 10
-10.1507
 20
-44.0118
 11
-9.94885
 21
-43.5574
  0
LINE
  8
0
 10
-9.94885
 20
-43.5574
 11
-9.72664
 21
-43.1127
  0
LINE
  8
0
 10
-9.72664
 20
-43.1127
 11
-9.48457
 21
-42.6784
  0
LINE
  8
0
 10
-9.48457
 20
-42.6784
 11
-9.22311
 21
-42.2555
  0
LINE
  8
0
 10
-9.22311
 20
-42.2555
 11
-8.94281
 21
-41.8448
  0
LINE
  8
0
 10
-8.94281
 20
-41.8448
 11
-8.64424
 21
-41.4473
  0
LINE
  8
0
 10
-8.64424
 20
-41.4473
 11
-8.32802
 21
-41.0636
  0
LINE
  8
0
 10
-8.32802
 20
-41.0636
 11
-7.99478
 21
-40.6946
  0
LINE
  8
0
 10
-7.99478
 20
-40.6946
 11
-7.6452
 21
-40.3411
  0
LINE
  8
0
 10
-7.6452
 20
-40.3411
 11
-7.28001
 21
-40.0037
  0
LINE
  8
0
 10
-7.28001
 20
-40.0037
 11
-6.89995
 21
-39.6832
  0
LINE
  8
0
 10
-6.89995
 20
-39.6832
 11
-6.5058
 21
-39.3801
  0
LINE
  8
0
 10
-6.5058
 20
-39.3801
 11
-6.09834
 21
-39.0952
  0
LINE
  8
0
 10
-6.09834
 20
-39.0952
 11
-5.67844
 21
-38.829
  0
LINE
  8
0
 10
-5.67844
 20
-38.829
 11
-5.24692
 21
-38.582
  0
LINE
  8
0
 10
-5.24692
 20
-38.582
 11
-4.80469
 21
-38.3548
  0
LINE
  8
0
 10
-4.80469
 20
-38.3548
 11
-4.35265
 21
-38.1478
  0
LINE
  8
0
 10
-4.35265
 20
-38.1478
 11
-3.89171
 21
-37.9614
  0
LINE
  8
0
 10
-3.89171
 20
-37.9614
 11
-3.42282
 21
-37.7961
  0
LINE
  8
0
 10
-3.42282
 20
-37.7961
 11
-2.94693
 21
-37.6521
  0
LINE
  8
0
 10
-2.94693
 20
-37.6521
 11
-2.46503
 21
-37.5298
  0
LINE
  8
0
 10
-2.46503
 20
-37.5298
 11
-1.97809
 21
-37.4293
  0
LINE
  8
0
 10
-1.97809
 20
-37.4293
 11
-1.48712
 21
-37.351
  0
LINE
  8
0
 10
-1.48712
 20
-37.351
 11
-0.993103
 21
-37.2949
  0
LINE
  8
0
 10
-0.993103
 20
-37.2949
 11
-0.497055
 21
-37.2612
  0
LINE
  8
0
 10
-0.497055
 20
-37.2612
 11
0
 21
-37.25
  0
LINE
  8
0
 10
0
 20
-37.25
 11
0.497055
 21
-37.2612
  0
LINE
  8
0
 10
0.497055
 20
-37.2612
 11
0.993103
 21
-37.2949
  0
LINE
  8
0
 10
0.993103
 20
-37.2949
 11
1.48712
 21
-37.351
  0
LINE
  8
0
 10
1.48712
 20
-37.351
 11
1.97809
 21
-37.4293
  0
LINE
  8
0
 10
1.97809
 20
-37.4293
 11
2.46503
 21
-37.5298
  0
LINE
  8
0
 10
2.46503
 20
-37.5298
 11
2.94693
 21
-37.6521
  0
LINE
  8
0
 10
2.94693
 20
-37.6521
 11
3.42282
 21
-37.7961
  0
LINE
  8
0
 10
3.42282
 20
-37.7961
 11
3.89171
 21
-37.9614
  0
LINE
  8
0
 10
3.89171
 20
-37.9614
 11
4.35265
 21
-38.1478
  0
LINE
  8
0
 10
4.35265
 20
-38.1478
 11
4.80469
 21
-38.3548
  0
LINE
  8
0
 10
4.80469
 20
-38.3548
 11
5.24692
 21
-38.582
  0
LINE
  8
0
 10
5.24692
 20
-38.582
 11
5.67844
 21
-38.829
  0
LINE
  8
0
 10
5.67844
 20
-38.829
 11
6.09834
 21
-39.0952
  0
LINE
  8
0
 10
6.09834
 20
-39.0952
 11
6.5058
 21
-39.3801
  0
LINE
  8
0
 10
6.5058
 20
-39.3801
 11
6.89995
 21
-39.6832
  0
LINE
  8
0
 10
6.89995
 20
-39.6832
 11
7.28001
 21
-40.0037
  0
LINE
  8
0
 10
7.28001
 20
-40.0037
 11
7.6452
 21
-40.3411
  0
LINE
  8
0
 10
7.6452
 20
-40.3411
 11
7.99478
 21
-40.6946
  0
LINE
  8
0
 10
7.99478
 20
-40.6946
 11
8.32802
 21
-41.0636
  0
LINE
  8
0
 10
8.32802
 20
-41.0636
 11
8.64424
 21
-41.4473
  0
LINE
  8
0
 10
8.64424
 20
-41.4473
 11
8.94281
 21
-41.8448
  0
LINE
  8
0
 10
8.94281
 20
-41.8448
 11
9.22311
 21
-42.2555
  0
LINE
  8
0
 10
9.22311
 20
-42.2555
 11
9.48457
 21
-42.6784
  0
LINE
  8
0
 10
9.48457
 20
-42.6784
 11
9.72664
 21
-43.1127
  0
LINE
  8
0
 10
9.72664
 20
-43.1127
 11
9.94885
 21
-43.5574
  0
LINE
  8
0
 10
9.94885
 20
-43.5574
 11
10.1507
 21
-44.0118
  0
LINE
  8
0
 10
10.1507
 20
-44.0118
 11
10.3319
 21
-44.4748
  0
LINE
  8
0
 10
10.3319
 20
-44.4748
 11
10.4919
 21
-44.9455
  0
LINE
  8
0
 10
10.4919
 20
-44.9455
 11
10.6305
 21
-45.423
  0
LINE
  8
0
 10
10.6305
 20
-45.423
 11
10.7474
 21
-45.9062
  0
LINE
  8
0
 10
10.7474
 20
-45.9062
 11
10.8423
 21
-46.3943
  0
LINE
  8
0
 10
10.8423
 20
-46.3943
 11
10.9151
 21
-46.8861
  0
LINE
  8
0
 10
10.9151
 20
-46.8861
 11
10.9656
 21
-47.3808
  0
LINE
  8
0
 10
10.9656
 20
-47.3808
 11
10.9937
 21
-47.8771
  0
LINE
  8
0
 10
10.9937
 20
-47.8771
 11
10.9993
 21
-48.3743
  0
LINE
  8
0
 10
10.9993
 20
-48.3743
 11
10.9824
 21
-48.8712
  0
LINE
  8
0
 10
10.9824
 20
-48.8712
 11
10.9431
 21
-49.3668
  0
LINE
  8
0
 10
10.9431
 20
-49.3668
 11
10.8815
 21
-49.8602
  0
LINE
  8
0
 10
10.8815
 20
-49.8602
 11
10.7976
 21
-50.3503
  0
LINE
  8
0
 10
10.7976
 20
-50.3503
 11
10.6917
 21
-50.836
  0
LINE
  8
0
 10
10.6917
 20
-50.836
 11
10.5639
 21
-51.3165
  0
LINE
  8
0
 10
10.5639
 20
-51.3165
 11
10.4146
 21
-51.7907
  0
LINE
  8
0
 10
10.4146
 20
-51.7907
 11
10.2439
 21
-52.2577
  0
LINE
  8
0
 10
10.2439
 20
-52.2577
 11
10.0524
 21
-52.7165
  0
LINE
  8
0
 10
10.0524
 20
-52.7165
 11
9.84026
 21
-53.1662
  0
LINE
  8
0
 10
9.84026
 20
-53.1662
 11
9.60806
 21
-53.6058
  0
LINE
  8
0
 10
9.60806
 20
-53.6058
 11
9.35623
 21
-54.0345
  0
LINE
  8
0
 10
9.35623
 20
-54.0345
 11
9.08528
 21
-54.4514
  0
LINE
  8
0
 10
9.08528
 20
-54.4514
 11
8.79578
 21
-54.8556
  0
LINE
  8
0
 10
8.79578
 20
-54.8556
 11
8.4883
 21
-55.2463
  0
LINE
  8
0
 10
8.4883
 20
-55.2463
 11
8.16348
 21
-55.6227
  0
LINE
  8
0
 10
8.16348
 20
-55.6227
 11
7.82199
 21
-55.9841
  0
LINE
  8
0
 10
7.82199
 20
-55.9841
 11
7.46452
 21
-56.3297
  0
LINE
  8
0
 10
7.46452
 20
-56.3297
 11
7.0918
 21
-56.6587
  0
LINE
  8
0
 10
7.0918
 20
-56.6587
 11
6.70459
 21
-56.9706
  0
LINE
  8
0
 10
6.70459
 20
-56.9706
 11
6.30368
 21
-57.2646
  0
LINE
  8
0
 10
6.30368
 20
-57.2646
 11
5.88989
 21
-57.5403
  0
LINE
  8
0
 10
5.88989
 20
-57.5403
 11
5.46407
 21
-57.7969
  0
LINE
  8
0
 10
5.46407
 20
-57.7969
 11
5.02708
 21
-58.0341
  0
LINE
  8
0
 10
5.02708
 20
-58.0341
 11
4.57983
 21
-58.2513
  0
LINE
  8
0
 10
4.57983
 20
-58.2513
 11
4.12323
 21
-58.448
  0
LINE
  8
0
 10
4.12323
 20
-58.448
 11
3.65819
 21
-58.6239
  0
LINE
  8
0
 10
3.65819
 20
-58.6239
 11
3.18568
 21
-58.7786
  0
LINE
  8
0
 10
3.18568
 20
-58.7786
 11
2.70668
 21
-58.9118
  0
LINE
  8
0
 10
2.70668
 20
-58.9118
 11
2.22214
 21
-59.0232
  0
LINE
  8
0
 10
2.22214
 20
-59.0232
 11
1.73305
 21
-59.1126
  0
LINE
  8
0
 10
1.73305
 20
-59.1126
 11
1.24042
 21
-59.1798
  0
LINE
  8
0
 10
1.24042
 20
-59.1798
 11
0.74527
 21
-59.2247
  0
LINE
  8
0
 10
0.74527
 20
-59.2247
 11
0.248581
 21
-59.2472
  0
LINE
  8
0
 10
0.248581
 20
-59.2472
 11
-0.248581
 21
-59.2472
  0
LINE
  8
0
 10
-150.249
 20
-59.2472
 11
-150.745
 21
-59.2247
  0
LINE
  8
0
 10
-150.745
 20
-59.2247
 11
-151.24
 21
-59.1798
  0
LINE
  8
0
 10
-151.24
 20
-59.1798
 11
-151.733
 21
-59.1126
  0
LINE
  8
0
 10
-151.733
 20
-59.1126
 11
-152.222
 21
-59.0232
  0
LINE
  8
0
 10
-152.222
 20
-59.0232
 11
-152.707
 21
-58.9118
  0
LINE
  8
0
 10
-152.707
 20
-58.9118
 11
-153.186
 21
-58.7786
  0
LINE
  8
0
 10
-153.186
 20
-58.7786
 11
-153.658
 21
-58.6239
  0
LINE
  8
0
 10
-153.658
 20
-58.6239
 11
-154.123
 21
-58.448
  0
LINE
  8
0
 10
-154.123
 20
-58.448
 11
-154.58
 21
-58.2513
  0
LINE
  8
0
 10
-154.58
 20
-58.2513
 11
-155.027
 21
-58.0341
  0
LINE
  8
0
 10
-155.027
 20
-58.0341
 11
-155.464
 21
-57.7969
  0
LINE
  8
0
 10
-155.464
 20
-57.7969
 11
-155.89
 21
-57.5403
  0
LINE
  8
0
 10
-155.89
 20
-57.5403
 11
-156.304
 21
-57.2646
  0
LINE
  8
0
 10
-156.304
 20
-57.2646
 11
-156.705
 21
-56.9706
  0
LINE
  8
0
 10
-156.705
 20
-56.9706
 11
-157.092
 21
-56.6587
  0
LINE
  8
0
 10
-157.092
 20
-56.6587
 11
-157.465
 21
-56.3297
  0
LINE
  8
0
 10
-157.465
 20
-56.3297
 11
-157.822
 21
-55.9841
  0
LINE
  8
0
 10
-157.822
 20
-55.9841
 11
-158.163
 21
-55.6227
  0
LINE
  8
0
 10
-158.163
 20
-55.6227
 11
-158.488
 21
-55.2463
  0
LINE
  8
0
 10
-158.488
 20
-55.2463
 11
-158.796
 21
-54.8556
  0
LINE
  8
0
 10
-158.796
 20
-54.8556
 11
-159.085
 21
-54.4514
  0
LINE
  8
0
 10
-159.085
 20
-54.4514
 11
-159.356
 21
-54.0345
  0
LINE
  8
0
 10
-159.356
 20
-54.0345
 11
-159.608
 21
-53.6058
  0
LINE
  8
0
 10
-159.608
 20
-53.6058
 11
-159.84
 21
-53.1662
  0
LINE
  8
0
 10
-159.84
 20
-53.1662
 11
-160.052
 21
-52.7165
  0
LINE
  8
0
 10
-160.052
 20
-52.7165
 11
-160.244
 21
-52.2577
  0
LINE
  8
0
 10
-160.244
 20
-52.2577
 11
-160.415
 21
-51.7907
  0
LINE
  8
0
 10
-160.415
 20
-51.7907
 11
-160.564
 21
-51.3165
  0
LINE
  8
0
 10
-160.564
 20
-51.3165
 11
-160.692
 21
-50.836
  0
LINE
  8
0
 10
-160.692
 20
-50.836
 11
-160.798
 21
-50.3503
  0
LINE
  8
0
 10
-160.798
 20
-50.3503
 11
-160.882
 21
-49.8602
  0
LINE
  8
0
 10
-160.882
 20
-49.8602
 11
-160.943
 21
-49.3668
  0
LINE
  8
0
 10
-160.943
 20
-49.3668
 11
-160.982
 21
-48.8712
  0
LINE
  8
0
 10
-160.982
 20
-48.8712
 11
-160.999
 21
-48.3743
  0
LINE
  8
0
 10
-160.999
 20
-48.3743
 11
-160.994
 21
-47.8771
  0
LINE
  8
0
 10
-160.994
 20
-47.8771
 11
-160.966
 21
-47.3808
  0
LINE
  8
0
 10
-160.966
 20
-47.3808
 11
-160.915
 21
-46.8861
  0
LINE
  8
0
 10
-160.915
 20
-46.8861
 11
-160.842
 21
-46.3943
  0
LINE
  8
0
 10
-160.842
 20
-46.3943
 11
-160.747
 21
-45.9062
  0
LINE
  8
0
 10
-160.747
 20
-45.9062
 11
-160.631
 21
-45.423
  0
LINE
  8
0
 10
-160.631
 20
-45.423
 11
-160.492
 21
-44.9455
  0
LINE
  8
0
 10
-160.492
 20
-44.9455
 11
-160.332
 21
-44.4748
  0
LINE
  8
0
 10
-160.332
 20
-44.4748
 11
-160.151
 21
-44.0118
  0
LINE
  8
0
 10
-160.151
 20
-44.0118
 11
-159.949
 21
-43.5574
  0
LINE
  8
0
 10
-159.949
 20
-43.5574
 11
-159.727
 21
-43.1127
  0
LINE
  8
0
 10
-159.727
 20
-43.1127
 11
-159.485
 21
-42.6784
  0
LINE
  8
0
 10
-159.485
 20
-42.6784
 11
-159.223
 21
-42.2555
  0
LINE
  8
0
 10
-159.223
 20
-42.2555
 11
-158.943
 21
-41.8448
  0
LINE
  8
0
 10
-158.943
 20
-41.8448
 11
-158.644
 21
-41.4473
  0
LINE
  8
0
 10
-158.644
 20
-41.4473
 11
-158.328
 21
-41.0636
  0
LINE
  8
0
 10
-158.328
 20
-41.0636
 11
-157.995
 21
-40.6946
  0
LINE
  8
0
 10
-157.995
 20
-40.6946
 11
-157.645
 21
-40.3411
  0
LINE
  8
0
 10
-157.645
 20
-40.3411
 11
-157.28
 21
-40.0037
  0
LINE
  8
0
 10
-157.28
 20
-40.0037
 11
-156.9
 21
-39.6832
  0
LINE
  8
0
 10
-156.9
 20
-39.6832
 11
-156.506
 21
-39.3801
  0
LINE
  8
0
 10
-156.506
 20
-39.3801
 11
-156.098
 21
-39.0952
  0
LINE
  8
0
 10
-156.098
 20
-39.0952
 11
-155.678
 21
-38.829
  0
LINE
  8
0
 10
-155.678
 20
-38.829
 11
-155.247
 21
-38.582
  0
LINE
  8
0
 10
-155.247
 20
-38.582
 11
-154.805
 21
-38.3548
  0
LINE
  8
0
 10
-154.805
 20
-38.3548
 11
-154.353
 21
-38.1478
  0
LINE
  8
0
 10
-154.353
 20
-38.1478
 11
-153.892
 21
-37.9614
  0
LINE
  8
0
 10
-153.892
 20
-37.9614
 11
-153.423
 21
-37.7961
  0
LINE
  8
0
 10
-153.423
 20
-37.7961
 11
-152.947
 21
-37.6521
  0
LINE
  8
0
 10
-152.947
 20
-37.6521
 11
-152.465
 21
-37.5298
  0
LINE
  8
0
 10
-152.465
 20
-37.5298
 11
-151.978
 21
-37.4293
  0
LINE
  8
0
 10
-151.978
 20
-37.4293
 11
-151.487
 21
-37.351
  0
LINE
  8
0
 10
-151.487
 20
-37.351
 11
-150.993
 21
-37.2949
  0
LINE
  8
0
 10
-150.993
 20
-37.2949
 11
-150.497
 21
-37.2612
  0
LINE
  8
0
 10
-150.497
 20
-37.2612
 11
-150
 21
-37.25
  0
LINE
  8
0
 10
-150
 20
-37.25
 11
-149.503
 21
-37.2612
  0
LINE
  8
0
 10
-149.503
 20
-37.2612
 11
-149.007
 21
-37.2949
  0
LINE
  8
0
 10
-149.007
 20
-37.2949
 11
-148.513
 21
-37.351
  0
LINE
  8
0
 10
-148.513
 20
-37.351
 11
-148.022
 21
-37.4293
  0
LINE
  8
0
 10
-148.022
 20
-37.4293
 11
-147.535
 21
-37.5298
  0
LINE
  8
0
 10
-147.535
 20
-37.5298
 11
-147.053
 21
-37.6521
  0
LINE
  8
0
 10
-147.053
 20
-37.6521
 11
-146.577
 21
-37.7961
  0
LINE
  8
0
 10
-146.577
 20
-37.7961
 11
-146.108
 21
-37.9614
  0
LINE
  8
0
 10
-146.108
 20
-37.9614
 11
-145.647
 21
-38.1478
  0
LINE
  8
0
 10
-145.647
 20
-38.1478
 11
-145.195
 21
-38.3548
  0
LINE
  8
0
 10
-145.195
 20
-38.3548
 11
-144.753
 21
-38.582
  0
LINE
  8
0
 10
-144.753
 20
-38.582
 11
-144.322
 21
-38.829
  0
LINE
  8
0
 10
-144.322
 20
-38.829
 11
-143.902
 21
-39.0952
  0
LINE
  8
0
 10
-143.902
 20
-39.0952
 11
-143.494
 21
-39.3801
  0
LINE
  8
0
 10
-143.494
 20
-39.3801
 11
-143.1
 21
-39.6832
  0
LINE
  8
0
 10
-143.1
 20
-39.6832
 11
-142.72
 21
-40.0037
  0
LINE
  8
0
 10
-142.72
 20
-40.0037
 11
-142.355
 21
-40.3411
  0
LINE
  8
0
 10
-142.355
 20
-40.3411
 11
-142.005
 21
-40.6946
  0
LINE
  8
0
 10
-142.005
 20
-40.6946
 11
-141.672
 21
-41.0636
  0
LINE
  8
0
 10
-141.672
 20
-41.0636
 11
-141.356
 21
-41.4473
  0
LINE
  8
0
 10
-141.356
 20
-41.4473
 11
-141.057
 21
-41.8448
  0
LINE
  8
0
 10
-141.057
 20
-41.8448
 11
-140.777
 21
-42.2555
  0
LINE
  8
0
 10
-140.777
 20
-42.2555
 11
-140.515
 21
-42.6784
  0
LINE
  8
0
 10
-140.515
 20
-42.6784
 11
-140.273
 21
-43.1127
  0
LINE
  8
0
 10
-140.273
 20
-43.1127
 11
-140.051
 21
-43.5574
  0
LINE
  8
0
 10
-140.051
 20
-43.5574
 11
-139.849
 21
-44.0118
  0
LINE
  8
0
 10
-139.849
 20
-44.0118
 11
-139.668
 21
-44.4748
  0
LINE
  8
0
 10
-139.668
 20
-44.4748
 11
-139.508
 21
-44.9455
  0
LINE
  8
0
 10
-139.508
 20
-44.9455
 11
-139.369
 21
-45.423
  0
LINE
  8
0
 10
-139.369
 20
-45.423
 11
-139.253
 21
-45.9062
  0
LINE
  8
0
 10
-139.253
 20
-45.9062
 11
-139.158
 21
-46.3943
  0
LINE
  8
0
 10
-139.158
 20
-46.3943
 11
-139.085
 21
-46.8861
  0
LINE
  8
0
 10
-139.085
 20
-46.8861
 11
-139.034
 21
-47.3808
  0
LINE
  8
0
 10
-139.034
 20
-47.3808
 11
-139.006
 21
-47.8771
  0
LINE
  8
0
 10
-139.006
 20
-47.8771
 11
-139.001
 21
-48.3743
  0
LINE
  8
0
 10
-139.001
 20
-48.3743
 11
-139.018
 21
-48.8712
  0
LINE
  8
0
 10
-139.018
 20
-48.8712
 11
-139.057
 21
-49.3668
  0
LINE
  8
0
 10
-139.057
 20
-49.3668
 11
-139.118
 21
-49.8602
  0
LINE
  8
0
 10
-139.118
 20
-49.8602
 11
-139.202
 21
-50.3503
  0
LINE
  8
0
 10
-139.202
 20
-50.3503
 11
-139.308
 21
-50.836
  0
LINE
  8
0
 10
-139.308
 20
-50.836
 11
-139.436
 21
-51.3165
  0
LINE
  8
0
 10
-139.436
 20
-51.3165
 11
-139.585
 21
-51.7907
  0
LINE
  8
0
 10
-139.585
 20
-51.7907
 11
-139.756
 21
-52.2577
  0
LINE
  8
0
 10
-139.756
 20
-52.2577
 11
-139.948
 21
-52.7165
  0
LINE
  8
0
 10
-139.948
 20
-52.7165
 11
-140.16
 21
-53.1662
  0
LINE
  8
0
 10
-140.16
 20
-53.1662
 11
-140.392
 21
-53.6058
  0
LINE
  8
0
 10
-140.392
 20
-53.6058
 11
-140.644
 21
-54.0345
  0
LINE
  8
0
 10
-140.644
 20
-54.0345
 11
-140.915
 21
-54.4514
  0
LINE
  8
0
 10
-140.915
 20
-54.4514
 11
-141.204
 21
-54.8556
  0
LINE
  8
0
 10
-141.204
 20
-54.8556
 11
-141.512
 21
-55.2463
  0
LINE
  8
0
 10
-141.512
 20
-55.2463
 11
-141.837
 21
-55.6227
  0
LINE
  8
0
 10
-141.837
 20
-55.6227
 11
-142.178
 21
-55.9841
  0
LINE
  8
0
 10
-142.178
 20
-55.9841
 11
-142.535
 21
-56.3297
  0
LINE
  8
0
 10
-142.535
 20
-56.3297
 11
-142.908
 21
-56.6587
  0
LINE
  8
0
 10
-142.908
 20
-56.6587
 11
-143.295
 21
-56.9706
  0
LINE
  8
0
 10
-143.295
 20
-56.9706
 11
-143.696
 21
-57.2646
  0
LINE
  8
0
 10
-143.696
 20
-57.2646
 11
-144.11
 21
-57.5403
  0
LINE
  8
0
 10
-144.11
 20
-57.5403
 11
-144.536
 21
-57.7969
  0
LINE
  8
0
 10
-144.536
 20
-57.7969
 11
-144.973
 21
-58.0341
  0
LINE
  8
0
 10
-144.973
 20
-58.0341
 11
-145.42
 21
-58.2513
  0
LINE
  8
0
 10
-145.42
 20
-58.2513
 11
-145.877
 21
-58.448
  0
LINE
  8
0
 10
-145.877
 20
-58.448
 11
-146.342
 21
-58.6239
  0
LINE
  8
0
 10
-146.342
 20
-58.6239
 11
-146.814
 21
-58.7786
  0
LINE
  8
0
 10
-146.814
 20
-58.7786
 11
-147.293
 21
-58.9118
  0
LINE
  8
0
 10
-147.293
 20
-58.9118
 11
-147.778
 21
-59.0232
  0
LINE
  8
0
 10
-147.778
 20
-59.0232
 11
-148.267
 21
-59.1126
  0
LINE
  8
0
 10
-148.267
 20
-59.1126
 11
-148.76
 21
-59.1798
  0
LINE
  8
0
 10
-148.76
 20
-59.1798
 11
-149.255
 21
-59.2247
  0
LINE
  8
0
 10
-149.255
 20
-59.2247
 11
-149.751
 21
-59.2472
  0
LINE
  8
0
 10
-149.751
 20
-59.2472
 11
-150.249
 21
-59.2472
  0
LINE
  8
0
 10
149.751
 20
-59.2472
 11
149.255
 21
-59.2247
  0
LINE
  8
0
 10
149.255
 20
-59.2247
 11
148.76
 21
-59.1798
  0
LINE
  8
0
 10
148.76
 20
-59.1798
 11
148.267
 21
-59.1126
  0
LINE
  8
0
 10
148.267
 20
-59.1126
 11
147.778
 21
-59.0232
  0
LINE
  8
0
 10
147.778
 20
-59.0232
 11
147.293
 21
-58.9118
  0
LINE
  8
0
 10
147.293
 20
-58.9118
 11
146.814
 21
-58.7786
  0
LINE
  8
0
 10
146.814
 20
-58.7786
 11
146.342
 21
-58.6239
  0
LINE
  8
0
 10
146.342
 20
-58.6239
 11
145.877
 21
-58.448
  0
LINE
  8
0
 10
145.877
 20
-58.448
 11
145.42
 21
-58.2513
  0
LINE
  8
0
 10
145.42
 20
-58.2513
 11
144.973
 21
-58.0341
  0
LINE
  8
0
 10
144.973
 20
-58.0341
 11
144.536
 21
-57.7969
  0
LINE
  8
0
 10
144.536
 20
-57.7969
 11
144.11
 21
-57.5403
  0
LINE
  8
0
 10
144.11
 20
-57.5403
 11
143.696
 21
-57.2646
  0
LINE
  8
0
 10
143.696
 20
-57.2646
 11
143.295
 21
-56.9706
  0
LINE
  8
0
 10
143.295
 20
-56.9706
 11
142.908
 21
-56.6587
  0
LINE
  8
0
 10
142.908
 20
-56.6587
 11
142.535
 21
-56.3297
  0
LINE
  8
0
 10
142.535
 20
-56.3297
 11
142.178
 21
-55.9841
  0
LINE
  8
0
 10
142.178
 20
-55.9841
 11
141.837
 21
-55.6227
  0
LINE
  8
0
 10
141.837
 20
-55.6227
 11
141.512
 21
-55.2463
  0
LINE
  8
0
 10
141.512
 20
-55.2463
 11
141.204
 21
-54.8556
  0
LINE
  8
0
 10
141.204
 20
-54.8556
 11
140.915
 21
-54.4514
  0
LINE
  8
0
 10
140.915
 20
-54.4514
 11
140.644
 21
-54.0345
  0
LINE
  8
0
 10
140.644
 20
-54.0345
 11
140.392
 21
-53.6058
  0
LINE
  8
0
 10
140.392
 20
-53.6058
 11
140.16
 21
-53.1662
  0
LINE
  8
0
 10
140.16
 20
-53.1662
 11
139.948
 21
-52.7165
  0
LINE
  8
0
 10
139.948
 20
-52.7165
 11
139.756
 21
-52.2577
  0
LINE
  8
0
 10
139.756
 20
-52.2577
 11
139.585
 21
-51.7907
  0
LINE
  8
0
 10
139.585
 20
-51.7907
 11
139.436
 21
-51.3165
  0
LINE
  8
0
 10
139.436
 20
-51.3165
 11
139.308
 21
-50.836
  0
LINE
  8
0
 10
139.308
 20
-50.836
 11
139.202
 21
-50.3503
  0
LINE
  8
0
 10
139.202
 20
-50.3503
 11
139.118
 21
-49.8602
  0
LINE
  8
0
 10
139.118
 20
-49.8602
 11
139.057
 21
-49.3668
  0
LINE
  8
0
 10
139.057
 20
-49.3668
 11
139.018
 21
-48.8712
  0
LINE
  8
0
 10
139.018
 20
-48.8712
 11
139.001
 21
-48.3743
  0
LINE
  8
0
 10
139.001
 20
-48.3743
 11
139.006
 21
-47.8771
  0
LINE
  8
0
 10
139.006
 20
-47.8771
 11
139.034
 21
-47.3808
  0
LINE
  8
0
 10
139.034
 20
-47.3808
 11
139.085
 21
-46.8861
  0
LINE
  8
0
 10
139.085
 20
-46.8861
 11
139.158
 21
-46.3943
  0
LINE
  8
0
 10
139.158
 20
-46.3943
 11
139.253
 21
-45.9062
  0
LINE
  8
0
 10
139.253
 20
-45.9062
 11
139.369
 21
-45.423
  0
LINE
  8
0
 10
139.369
 20
-45.423
 11
139.508
 21
-44.9455
  0
LINE
  8
0
 10
139.508
 20
-44.9455
 11
139.668
 21
-44.4748
  0
LINE
  8
0
 10
139.668
 20
-44.4748
 11
139.849
 21
-44.0118
  0
LINE
  8
0
 10
139.849
 20
-44.0118
 11
140.051
 21
-43.5574
  0
LINE
  8
0
 10
140.051
 20
-43.5574
 11
140.273
 21
-43.1127
  0
LINE
  8
0
 10
140.273
 20
-43.1127
 11
140.515
 21
-42.6784
  0
LINE
  8
0
 10
140.515
 20
-42.6784
 11
140.777
 21
-42.2555
  0
LINE
  8
0
 10
140.777
 20
-42.2555
 11
141.057
 21
-41.8448
  0
LINE
  8
0
 10
141.057
 20
-41.8448
 11
141.356
 21
-41.4473
  0
LINE
  8
0
 10
141.356
 20
-41.4473
 11
141.672
 21
-41.0636
  0
LINE
  8
0
 10
141.672
 20
-41.0636
 11
142.005
 21
-40.6946
  0
LINE
  8
0
 10
142.005
 20
-40.6946
 11
142.355
 21
-40.3411
  0
LINE
  8
0
 10
142.355
 20
-40.3411
 11
142.72
 21
-40.0037
  0
LINE
  8
0
 10
142.72
 20
-40.0037
 11
143.1
 21
-39.6832
  0
LINE
  8
0
 10
143.1
 20
-39.6832
 11
143.494
 21
-39.3801
  0
LINE
  8
0
 10
143.494
 20
-39.3801
 11
143.902
 21
-39.0952
  0
LINE
  8
0
 10
143.902
 20
-39.0952
 11
144.322
 21
-38.829
  0
LINE
  8
0
 10
144.322
 20
-38.829
 11
144.753
 21
-38.582
  0
LINE
  8
0
 10
144.753
 20
-38.582
 11
145.195
 21
-38.3548
  0
LINE
  8
0
 10
145.195
 20
-38.3548
 11
145.647
 21
-38.1478
  0
LINE
  8
0
 10
145.647
 20
-38.1478
 11
146.108
 21
-37.9614
  0
LINE
  8
0
 10
146.108
 20
-37.9614
 11
146.577
 21
-37.7961
  0
LINE
  8
0
 10
146.577
 20
-37.7961
 11
147.053
 21
-37.6521
  0
LINE
  8
0
 10
147.053
 20
-37.6521
 11
147.535
 21
-37.5298
  0
LINE
  8
0
 10
147.535
 20
-37.5298
 11
148.022
 21
-37.4293
  0
LINE
  8
0
 10
148.022
 20
-37.4293
 11
148.513
 21
-37.351
  0
LINE
  8
0
 10
148.513
 20
-37.351
 11
149.007
 21
-37.2949
  0
LINE
  8
0
 10
149.007
 20
-37.2949
 11
149.503
 21
-37.2612
  0
LINE
  8
0
 10
149.503
 20
-37.2612
 11
150
 21
-37.25
  0
LINE
  8
0
 10
150
 20
-37.25
 11
150.497
 21
-37.2612
  0
LINE
  8
0
 10
150.497
 20
-37.2612
 11
150.993
 21
-37.2949
  0
LINE
  8
0
 10
150.993
 20
-37.2949
 11
151.487
 21
-37.351
  0
LINE
  8
0
 10
151.487
 20
-37.351
 11
151.978
 21
-37.4293
  0
LINE
  8
0
 10
151.978
 20
-37.4293
 11
152.465
 21
-37.5298
  0
LINE
  8
0
 10
152.465
 20
-37.5298
 11
152.947
 21
-37.6521
  0
LINE
  8
0
 10
152.947
 20
-37.6521
 11
153.423
 21
-37.7961
  0
LINE
  8
0
 10
153.423
 20
-37.7961
 11
153.892
 21
-37.9614
  0
LINE
  8
0
 10
153.892
 20
-37.9614
 11
154.353
 21
-38.1478
  0
LINE
  8
0
 10
154.353
 20
-38.1478
 11
154.805
 21
-38.3548
  0
LINE
  8
0
 10
154.805
 20
-38.3548
 11
155.247
 21
-38.582
  0
LINE
  8
0
 10
155.247
 20
-38.582
 11
155.678
 21
-38.829
  0
LINE
  8
0
 10
155.678
 20
-38.829
 11
156.098
 21
-39.0952
  0
LINE
  8
0
 10
156.098
 20
-39.0952
 11
156.506
 21
-39.3801
  0
LINE
  8
0
 10
156.506
 20
-39.3801
 11
156.9
 21
-39.6832
  0
LINE
  8
0
 10
156.9
 20
-39.6832
 11
157.28
 21
-40.0037
  0
LINE
  8
0
 10
157.28
 20
-40.0037
 11
157.645
 21
-40.3411
  0
LINE
  8
0
 10
157.645
 20
-40.3411
 11
157.995
 21
-40.6946
  0
LINE
  8
0
 10
157.995
 20
-40.6946
 11
158.328
 21
-41.0636
  0
LINE
  8
0
 10
158.328
 20
-41.0636
 11
158.644
 21
-41.4473
  0
LINE
  8
0
 10
158.644
 20
-41.4473
 11
158.943
 21
-41.8448
  0
LINE
  8
0
 10
158.943
 20
-41.8448
 11
159.223
 21
-42.2555
  0
LINE
  8
0
 10
159.223
 20
-42.2555
 11
159.485
 21
-42.6784
  0
LINE
  8
0
 10
159.485
 20
-42.6784
 11
159.727
 21
-43.1127
  0
LINE
  8
0
 10
159.727
 20
-43.1127
 11
159.949
 21
-43.5574
  0
LINE
  8
0
 10
159.949
 20
-43.5574
 11
160.151
 21
-44.0118
  0
LINE
  8
0
 10
160.151
 20
-44.0118
 11
160.332
 21
-44.4748
  0
LINE
  8
0
 10
160.332
 20
-44.4748
 11
160.492
 21
-44.9455
  0
LINE
  8
0
 10
160.492
 20
-44.9455
 11
160.631
 21
-45.423
  0
LINE
  8
0
 10
160.631
 20
-45.423
 11
160.747
 21
-45.9062
  0
LINE
  8
0
 10
160.747
 20
-45.9062
 11
160.842
 21
-46.3943
  0
LINE
  8
0
 10
160.842
 20
-46.3943
 11
160.915
 21
-46.8861
  0
LINE
  8
0
 10
160.915
 20
-46.8861
 11
160.966
 21
-47.3808
  0
LINE
  8
0
 10
160.966
 20
-47.3808
 11
160.994
 21
-47.8771
  0
LINE
  8
0
 10
160.994
 20
-47.8771
 11
160.999
 21
-48.3743
  0
LINE
  8
0
 10
160.999
 20
-48.3743
 11
160.982
 21
-48.8712
  0
LINE
  8
0
 10
160.982
 20
-48.8712
 11
160.943
 21
-49.3668
  0
LINE
  8
0
 10
160.943
 20
-49.3668
 11
160.882
 21
-49.8602
  0
LINE
  8
0
 10
160.882
 20
-49.8602
 11
160.798
 21
-50.3503
  0
LINE
  8
0
 10
160.798
 20
-50.3503
 11
160.692
 21
-50.836
  0
LINE
  8
0
 10
160.692
 20
-50.836
 11
160.564
 21
-51.3165
  0
LINE
  8
0
 10
160.564
 20
-51.3165
 11
160.415
 21
-51.7907
  0
LINE
  8
0
 10
160.415
 20
-51.7907
 11
160.244
 21
-52.2577
  0
LINE
  8
0
 10
160.244
 20
-52.2577
 11
160.052
 21
-52.7165
  0
LINE
  8
0
 10
160.052
 20
-52.7165
 11
159.84
 21
-53.1662
  0
LINE
  8
0
 10
159.84
 20
-53.1662
 11
159.608
 21
-53.6058
  0
LINE
  8
0
 10
159.608
 20
-53.6058
 11
159.356
 21
-54.0345
  0
LINE
  8
0
 10
159.356
 20
-54.0345
 11
159.085
 21
-54.4514
  0
LINE
  8
0
 10
159.085
 20
-54.4514
 11
158.796
 21
-54.8556
  0
LINE
  8
0
 10
158.796
 20
-54.8556
 11
158.488
 21
-55.2463
  0
LINE
  8
0
 10
158.488
 20
-55.2463
 11
158.163
 21
-55.6227
  0
LINE
  8
0
 10
158.163
 20
-55.6227
 11
157.822
 21
-55.9841
  0
LINE
  8
0
 10
157.822
 20
-55.9841
 11
157.465
 21
-56.3297
  0
LINE
  8
0
 10
157.465
 20
-56.3297
 11
157.092
 21
-56.6587
  0
LINE
  8
0
 10
157.092
 20
-56.6587
 11
156.705
 21
-56.9706
  0
LINE
  8
0
 10
156.705
 20
-56.9706
 11
156.304
 21
-57.2646
  0
LINE
  8
0
 10
156.304
 20
-57.2646
 11
155.89
 21
-57.5403
  0
LINE
  8
0
 10
155.89
 20
-57.5403
 11
155.464
 21
-57.7969
  0
LINE
  8
0
 10
155.464
 20
-57.7969
 11
155.027
 21
-58.0341
  0
LINE
  8
0
 10
155.027
 20
-58.0341
 11
154.58
 21
-58.2513
  0
LINE
  8
0
 10
154.58
 20
-58.2513
 11
154.123
 21
-58.448
  0
LINE
  8
0
 10
154.123
 20
-58.448
 11
153.658
 21
-58.6239
  0
LINE
  8
0
 10
153.658
 20
-58.6239
 11
153.186
 21
-58.7786
  0
LINE
  8
0
 10
153.186
 20
-58.7786
 11
152.707
 21
-58.9118
  0
LINE
  8
0
 10
152.707
 20
-58.9118
 11
152.222
 21
-59.0232
  0
LINE
  8
0
 10
152.222
 20
-59.0232
 11
151.733
 21
-59.1126
  0
LINE
  8
0
 10
151.733
 20
-59.1126
 11
151.24
 21
-59.1798
  0
LINE
  8
0
 10
151.24
 20
-59.1798
 11
150.745
 21
-59.2247
  0
LINE
  8
0
 10
150.745
 20
-59.2247
 11
150.249
 21
-59.2472
  0
LINE
  8
0
 10
150.249
 20
-59.2472
 11
149.751
 21
-59.2472
  0
LINE
  8
0
 10
97.7508
 20
-53.2438
 11
97.2548
 21
-53.1942
  0
LINE
  8
0
 10
97.2548
 20
-53.1942
 11
96.7662
 21
-53.0954
  0
LINE
  8
0
 10
96.7662
 20
-53.0954
 11
96.2899
 21
-52.9485
  0
LINE
  8
0
 10
96.2899
 20
-52.9485
 11
95.8306
 21
-52.7548
  0
LINE
  8
0
 10
95.8306
 20
-52.7548
 11
95.3928
 21
-52.5164
  0
LINE
  8
0
 10
95.3928
 20
-52.5164
 11
94.981
 21
-52.2357
  0
LINE
  8
0
 10
94.981
 20
-52.2357
 11
94.5991
 21
-51.9153
  0
LINE
  8
0
 10
94.5991
 20
-51.9153
 11
94.2511
 21
-51.5584
  0
LINE
  8
0
 10
94.2511
 20
-51.5584
 11
93.9403
 21
-51.1687
  0
LINE
  8
0
 10
93.9403
 20
-51.1687
 11
93.6699
 21
-50.75
  0
LINE
  8
0
 10
93.6699
 20
-50.75
 11
93.4425
 21
-50.3064
  0
LINE
  8
0
 10
93.4425
 20
-50.3064
 11
93.2604
 21
-49.8424
  0
LINE
  8
0
 10
93.2604
 20
-49.8424
 11
93.1254
 21
-49.3626
  0
LINE
  8
0
 10
93.1254
 20
-49.3626
 11
93.0388
 21
-48.8717
  0
LINE
  8
0
 10
93.0388
 20
-48.8717
 11
93.0016
 21
-48.3746
  0
LINE
  8
0
 10
93.0016
 20
-48.3746
 11
93.014
 21
-47.8763
  0
LINE
  8
0
 10
93.014
 20
-47.8763
 11
93.076
 21
-47.3818
  0
LINE
  8
0
 10
93.076
 20
-47.3818
 11
93.1869
 21
-46.8958
  0
LINE
  8
0
 10
93.1869
 20
-46.8958
 11
93.3456
 21
-46.4233
  0
LINE
  8
0
 10
93.3456
 20
-46.4233
 11
93.5506
 21
-45.9689
  0
LINE
  8
0
 10
93.5506
 20
-45.9689
 11
93.7999
 21
-45.5373
  0
LINE
  8
0
 10
93.7999
 20
-45.5373
 11
94.0908
 21
-45.1326
  0
LINE
  8
0
 10
94.0908
 20
-45.1326
 11
94.4207
 21
-44.7588
  0
LINE
  8
0
 10
94.4207
 20
-44.7588
 11
94.7861
 21
-44.4198
  0
LINE
  8
0
 10
94.7861
 20
-44.4198
 11
95.1834
 21
-44.1188
  0
LINE
  8
0
 10
95.1834
 20
-44.1188
 11
95.6087
 21
-43.8589
  0
LINE
  8
0
 10
95.6087
 20
-43.8589
 11
96.0578
 21
-43.6426
  0
LINE
  8
0
 10
96.0578
 20
-43.6426
 11
96.5262
 21
-43.4721
  0
LINE
  8
0
 10
96.5262
 20
-43.4721
 11
97.0093
 21
-43.3491
  0
LINE
  8
0
 10
97.0093
 20
-43.3491
 11
97.5022
 21
-43.2748
  0
LINE
  8
0
 10
97.5022
 20
-43.2748
 11
98
 21
-43.25
  0
LINE
  8
0
 10
98
 20
-43.25
 11
98.4978
 21
-43.2748
  0
LINE
  8
0
 10
98.4978
 20
-43.2748
 11
98.9907
 21
-43.3491
  0
LINE
  8
0
 10
98.9907
 20
-43.3491
 11
99.4738
 21
-43.4721
  0
LINE
  8
0
 10
99.4738
 20
-43.4721
 11
99.9422
 21
-43.6426
  0
LINE
  8
0
 10
99.9422
 20
-43.6426
 11
100.391
 21
-43.8589
  0
LINE
  8
0
 10
100.391
 20
-43.8589
 11
100.817
 21
-44.1188
  0
LINE
  8
0
 10
100.817
 20
-44.1188
 11
101.214
 21
-44.4198
  0
LINE
  8
0
 10
101.214
 20
-44.4198
 11
101.579
 21
-44.7588
  0
LINE
  8
0
 10
101.579
 20
-44.7588
 11
101.909
 21
-45.1326
  0
LINE
  8
0
 10
101.909
 20
-45.1326
 11
102.2
 21
-45.5373
  0
LINE
  8
0
 10
102.2
 20
-45.5373
 11
102.449
 21
-45.9689
  0
LINE
  8
0
 10
102.449
 20
-45.9689
 11
102.654
 21
-46.4233
  0
LINE
  8
0
 10
102.654
 20
-46.4233
 11
102.813
 21
-46.8958
  0
LINE
  8
0
 10
102.813
 20
-46.8958
 11
102.924
 21
-47.3818
  0
LINE
  8
0
 10
102.924
 20
-47.3818
 11
102.986
 21
-47.8763
  0
LINE
  8
0
 10
102.986
 20
-47.8763
 11
102.998
 21
-48.3746
  0
LINE
  8
0
 10
102.998
 20
-48.3746
 11
102.961
 21
-48.8717
  0
LINE
  8
0
 10
102.961
 20
-48.8717
 11
102.875
 21
-49.3626
  0
LINE
  8
0
 10
102.875
 20
-49.3626
 11
102.74
 21
-49.8424
  0
LINE
  8
0
 10
102.74
 20
-49.8424
 11
102.558
 21
-50.3064
  0
LINE
  8
0
 10
102.558
 20
-50.3064
 11
102.33
 21
-50.75
  0
LINE
  8
0
 10
102.33
 20
-50.75
 11
102.06
 21
-51.1687
  0
LINE
  8
0
 10
102.06
 20
-51.1687
 11
101.749
 21
-51.5584
  0
LINE
  8
0
 10
101.749
 20
-51.5584
 11
101.401
 21
-51.9153
  0
LINE
  8
0
 10
101.401
 20
-51.9153
 11
101.019
 21
-52.2357
  0
LINE
  8
0
 10
101.019
 20
-52.2357
 11
100.607
 21
-52.5164
  0
LINE
  8
0
 10
100.607
 20
-52.5164
 11
100.169
 21
-52.7548
  0
LINE
  8
0
 10
100.169
 20
-52.7548
 11
99.7101
 21
-52.9485
  0
LINE
  8
0
 10
99.7101
 20
-52.9485
 11
99.2338
 21
-53.0954
  0
LINE
  8
0
 10
99.2338
 20
-53.0954
 11
98.7452
 21
-53.1942
  0
LINE
  8
0
 10
98.7452
 20
-53.1942
 11
98.2492
 21
-53.2438
  0
LINE
  8
0
 10
98.2492
 20
-53.2438
 11
97.7508
 21
-53.2438
  0
LINE
  8
0
 10
-98.2492
 20
-53.2438
 11
-98.7452
 21
-53.1942
  0
LINE
  8
0
 10
-98.7452
 20
-53.1942
 11
-99.2338
 21
-53.0954
  0
LINE
  8
0
 10
-99.2338
 20
-53.0954
 11
-99.7101
 21
-52.9485
  0
LINE
  8
0
 10
-99.7101
 20
-52.9485
 11
-100.169
 21
-52.7548
  0
LINE
  8
0
 10
-100.169
 20
-52.7548
 11
-100.607
 21
-52.5164
  0
LINE
  8
0
 10
-100.607
 20
-52.5164
 11
-101.019
 21
-52.2357
  0
LINE
  8
0
 10
-101.019
 20
-52.2357
 11
-101.401
 21
-51.9153
  0
LINE
  8
0
 10
-101.401
 20
-51.9153
 11
-101.749
 21
-51.5584
  0
LINE
  8
0
 10
-101.749
 20
-51.5584
 11
-102.06
 21
-51.1687
  0
LINE
  8
0
 10
-102.06
 20
-51.1687
 11
-102.33
 21
-50.75
  0
LINE
  8
0
 10
-102.33
 20
-50.75
 11
-102.558
 21
-50.3064
  0
LINE
  8
0
 10
-102.558
 20
-50.3064
 11
-102.74
 21
-49.8424
  0
LINE
  8
0
 10
-102.74
 20
-49.8424
 11
-102.875
 21
-49.3626
  0
LINE
  8
0
 10
-102.875
 20
-49.3626
 11
-102.961
 21
-48.8717
  0
LINE
  8
0
 10
-102.961
 20
-48.8717
 11
-102.998
 21
-48.3746
  0
LINE
  8
0
 10
-102.998
 20
-48.3746
 11
-102.986
 21
-47.8763
  0
LINE
  8
0
 10
-102.986
 20
-47.8763
 11
-102.924
 21
-47.3818
  0
LINE
  8
0
 10
-102.924
 20
-47.3818
 11
-102.813
 21
-46.8958
  0
LINE
  8
0
 10
-102.813
 20
-46.8958
 11
-102.654
 21
-46.4233
  0
LINE
  8
0
 10
-102.654
 20
-46.4233
 11
-102.449
 21
-45.9689
  0
LINE
  8
0
 10
-102.449
 20
-45.9689
 11
-102.2
 21
-45.5373
  0
LINE
  8
0
 10
-102.2
 20
-45.5373
 11
-101.909
 21
-45.1326
  0
LINE
  8
0
 10
-101.909
 20
-45.1326
 11
-101.579
 21
-44.7588
  0
LINE
  8
0
 10
-101.579
 20
-44.7588
 11
-101.214
 21
-44.4198
  0
LINE
  8
0
 10
-101.214
 20
-44.4198
 11
-100.817
 21
-44.1188
  0
LINE
  8
0
 10
-100.817
 20
-44.1188
 11
-100.391
 21
-43.8589
  0
LINE
  8
0
 10
-100.391
 20
-43.8589
 11
-99.9422
 21
-43.6426
  0
LINE
  8
0
 10
-99.9422
 20
-43.6426
 11
-99.4738
 21
-43.4721
  0
LINE
  8
0
 10
-99.4738
 20
-43.4721
 11
-98.9907
 21
-43.3491
  0
LINE
  8
0
 10
-98.9907
 20
-43.3491
 11
-98.4978
 21
-43.2748
  0
LINE
  8
0
 10
-98.4978
 20
-43.2748
 11
-98
 21
-43.25
  0
LINE
  8
0
 10
-98
 20
-43.25
 11
-97.5022
 21
-43.2748
  0
LINE
  8
0
 10
-97.5022
 20
-43.2748
 11
-97.0093
 21
-43.3491
  0
LINE
  8
0
 10
-97.0093
 20
-43.3491
 11
-96.5262
 21
-43.4721
  0
LINE
  8
0
 10
-96.5262
 20
-43.4721
 11
-96.0578
 21
-43.6426
  0
LINE
  8
0
 10
-96.0578
 20
-43.6426
 11
-95.6087
 21
-43.8589
  0
LINE
  8
0
 10
-95.6087
 20
-43.8589
 11
-95.1834
 21
-44.1188
  0
LINE
  8
0
 10
-95.1834
 20
-44.1188
 11
-94.7861
 21
-44.4198
  0
LINE
  8
0
 10
-94.7861
 20
-44.4198
 11
-94.4207
 21
-44.7588
  0
LINE
  8
0
 10
-94.4207
 20
-44.7588
 11
-94.0908
 21
-45.1326
  0
LINE
  8
0
 10
-94.0908
 20
-45.1326
 11
-93.7999
 21
-45.5373
  0
LINE
  8
0
 10
-93.7999
 20
-45.5373
 11
-93.5506
 21
-45.9689
  0
LINE
  8
0
 10
-93.5506
 20
-45.9689
 11
-93.3456
 21
-46.4233
  0
LINE
  8
0
 10
-93.3456
 20
-46.4233
 11
-93.1869
 21
-46.8958
  0
LINE
  8
0
 10
-93.1869
 20
-46.8958
 11
-93.076
 21
-47.3818
  0
LINE
  8
0
 10
-93.076
 20
-47.3818
 11
-93.014
 21
-47.8763
  0
LINE
  8
0
 10
-93.014
 20
-47.8763
 11
-93.0016
 21
-48.3746
  0
LINE
  8
0
 10
-93.0016
 20
-48.3746
 11
-93.0388
 21
-48.8717
  0
LINE
  8
0
 10
-93.0388
 20
-48.8717
 11
-93.1254
 21
-49.3626
  0
LINE
  8
0
 10
-93.1254
 20
-49.3626
 11
-93.2604
 21
-49.8424
  0
LINE
  8
0
 10
-93.2604
 20
-49.8424
 11
-93.4425
 21
-50.3064
  0
LINE
  8
0
 10
-93.4425
 20
-50.3064
 11
-93.6699
 21
-50.75
  0
LINE
  8
0
 10
-93.6699
 20
-50.75
 11
-93.9403
 21
-51.1687
  0
LINE
  8
0
 10
-93.9403
 20
-51.1687
 11
-94.2511
 21
-51.5584
  0
LINE
  8
0
 10
-94.2511
 20
-51.5584
 11
-94.5991
 21
-51.9153
  0
LINE
  8
0
 10
-94.5991
 20
-51.9153
 11
-94.981
 21
-52.2357
  0
LINE
  8
0
 10
-94.981
 20
-52.2357
 11
-95.3928
 21
-52.5164
  0
LINE
  8
0
 10
-95.3928
 20
-52.5164
 11
-95.8306
 21
-52.7548
  0
LINE
  8
0
 10
-95.8306
 20
-52.7548
 11
-96.2899
 21
-52.9485
  0
LINE
  8
0
 10
-96.2899
 20
-52.9485
 11
-96.7662
 21
-53.0954
  0
LINE
  8
0
 10
-96.7662
 20
-53.0954
 11
-97.2548
 21
-53.1942
  0
LINE
  8
0
 10
-97.2548
 20
-53.1942
 11
-97.7508
 21
-53.2438
  0
LINE
  8
0
 10
-97.7508
 20
-53.2438
 11
-98.2492
 21
-53.2438
  0
LINE
  8
0
 10
-110
 20
-50.75
 11
-110
 21
-45.75
  0
LINE
  8
0
 10
-110
 20
-45.75
 11
-108
 21
-45.75
  0
LINE
  8
0
 10
-108
 20
-45.75
 11
-108
 21
-50.75
  0
LINE
  8
0
 10
-108
 20
-50.75
 11
-110
 21
-50.75
  0
LINE
  8
0
 10
-88
 20
-50.75
 11
-88
 21
-45.75
  0
LINE
  8
0
 10
-88
 20
-45.75
 11
-86
 21
-45.75
  0
LINE
  8
0
 10
-86
 20
-45.75
 11
-86
 21
-50.75
  0
LINE
  8
0
 10
-86
 20
-50.75
 11
-88
 21
-50.75
  0
LINE
  8
0
 10
86
 20
-50.75
 11
86
 21
-45.75
  0
LINE
  8
0
 10
86
 20
-45.75
 11
88
 21
-45.75
  0
LINE
  8
0
 10
88
 20
-45.75
 11
88
 21
-50.75
  0
LINE
  8
0
 10
88
 20
-50.75
 11
86
 21
-50.75
  0
LINE
  8
0
 10
108
 20
-50.75
 11
108
 21
-45.75
  0
LINE
  8
0
 10
108
 20
-45.75
 11
110
 21
-45.75
  0
LINE
  8
0
 10
110
 20
-45.75
 11
110
 21
-50.75
  0
LINE
  8
0
 10
110
 20
-50.75
 11
108
 21
-50.75
  0
LINE
  8
0
 10
135.321
 20
-49.8811
 11
134.881
 21
-49.6801
  0
LINE
  8
0
 10
134.881
 20
-49.6801
 11
134.515
 21
-49.3633
  0
LINE
  8
0
 10
134.515
 20
-49.3633
 11
134.254
 21
-48.9562
  0
LINE
  8
0
 10
134.254
 20
-48.9562
 11
134.117
 21
-48.4919
  0
LINE
  8
0
 10
134.117
 20
-48.4919
 11
134.117
 21
-48.0081
  0
LINE
  8
0
 10
134.117
 20
-48.0081
 11
134.254
 21
-47.5438
  0
LINE
  8
0
 10
134.254
 20
-47.5438
 11
134.515
 21
-47.1367
  0
LINE
  8
0
 10
134.515
 20
-47.1367
 11
134.881
 21
-46.8199
  0
LINE
  8
0
 10
134.881
 20
-46.8199
 11
135.321
 21
-46.6189
  0
LINE
  8
0
 10
135.321
 20
-46.6189
 11
135.8
 21
-46.55
  0
LINE
  8
0
 10
135.8
 20
-46.55
 11
136.279
 21
-46.6189
  0
LINE
  8
0
 10
136.279
 20
-46.6189
 11
136.719
 21
-46.8199
  0
LINE
  8
0
 10
136.719
 20
-46.8199
 11
137.085
 21
-47.1367
  0
LINE
  8
0
 10
137.085
 20
-47.1367
 11
137.346
 21
-47.5438
  0
LINE
  8
0
 10
137.346
 20
-47.5438
 11
137.483
 21
-48.0081
  0
LINE
  8
0
 10
137.483
 20
-48.0081
 11
137.483
 21
-48.4919
  0
LINE
  8
0
 10
137.483
 20
-48.4919
 11
137.346
 21
-48.9562
  0
LINE
  8
0
 10
137.346
 20
-48.9562
 11
137.085
 21
-49.3633
  0
LINE
  8
0
 10
137.085
 20
-49.3633
 11
136.719
 21
-49.6801
  0
LINE
  8
0
 10
136.719
 20
-49.6801
 11
136.279
 21
-49.8811
  0
LINE
  8
0
 10
136.279
 20
-49.8811
 11
135.8
 21
-49.95
  0
LINE
  8
0
 10
135.8
 20
-49.95
 11
135.321
 21
-49.8811
  0
LINE
  8
0
 10
-14.6789
 20
-49.8811
 11
-15.1191
 21
-49.6801
  0
LINE
  8
0
 10
-15.1191
 20
-49.6801
 11
-15.4848
 21
-49.3633
  0
LINE
  8
0
 10
-15.4848
 20
-49.3633
 11
-15.7464
 21
-48.9562
  0
LINE
  8
0
 10
-15.7464
 20
-48.9562
 11
-15.8827
 21
-48.4919
  0
LINE
  8
0
 10
-15.8827
 20
-48.4919
 11
-15.8827
 21
-48.0081
  0
LINE
  8
0
 10
-15.8827
 20
-48.0081
 11
-15.7464
 21
-47.5438
  0
LINE
  8
0
 10
-15.7464
 20
-47.5438
 11
-15.4848
 21
-47.1367
  0
LINE
  8
0
 10
-15.4848
 20
-47.1367
 11
-15.1191
 21
-46.8199
  0
LINE
  8
0
 10
-15.1191
 20
-46.8199
 11
-14.6789
 21
-46.6189
  0
LINE
  8
0
 10
-14.6789
 20
-46.6189
 11
-14.2
 21
-46.55
  0
LINE
  8
0
 10
-14.2
 20
-46.55
 11
-13.7211
 21
-46.6189
  0
LINE
  8
0
 10
-13.7211
 20
-46.6189
 11
-13.2809
 21
-46.8199
  0
LINE
  8
0
 10
-13.2809
 20
-46.8199
 11
-12.9152
 21
-47.1367
  0
LINE
  8
0
 10
-12.9152
 20
-47.1367
 11
-12.6536
 21
-47.5438
  0
LINE
  8
0
 10
-12.6536
 20
-47.5438
 11
-12.5173
 21
-48.0081
  0
LINE
  8
0
 10
-12.5173
 20
-48.0081
 11
-12.5173
 21
-48.4919
  0
LINE
  8
0
 10
-12.5173
 20
-48.4919
 11
-12.6536
 21
-48.9562
  0
LINE
  8
0
 10
-12.6536
 20
-48.9562
 11
-12.9152
 21
-49.3633
  0
LINE
  8
0
 10
-12.9152
 20
-49.3633
 11
-13.2809
 21
-49.6801
  0
LINE
  8
0
 10
-13.2809
 20
-49.6801
 11
-13.7211
 21
-49.8811
  0
LINE
  8
0
 10
-13.7211
 20
-49.8811
 11
-14.2
 21
-49.95
  0
LINE
  8
0
 10
-14.2
 20
-49.95
 11
-14.6789
 21
-49.8811
  0
LINE
  8
0
 10
163.721
 20
-49.8811
 11
163.281
 21
-49.6801
  0
LINE
  8
0
 10
163.281
 20
-49.6801
 11
162.915
 21
-49.3633
  0
LINE
  8
0
 10
162.915
 20
-49.3633
 11
162.654
 21
-48.9562
  0
LINE
  8
0
 10
162.654
 20
-48.9562
 11
162.517
 21
-48.4919
  0
LINE
  8
0
 10
162.517
 20
-48.4919
 11
162.517
 21
-48.0081
  0
LINE
  8
0
 10
162.517
 20
-48.0081
 11
162.654
 21
-47.5438
  0
LINE
  8
0
 10
162.654
 20
-47.5438
 11
162.915
 21
-47.1367
  0
LINE
  8
0
 10
162.915
 20
-47.1367
 11
163.281
 21
-46.8199
  0
LINE
  8
0
 10
163.281
 20
-46.8199
 11
163.721
 21
-46.6189
  0
LINE
  8
0
 10
163.721
 20
-46.6189
 11
164.2
 21
-46.55
  0
LINE
  8
0
 10
164.2
 20
-46.55
 11
164.679
 21
-46.6189
  0
LINE
  8
0
 10
164.679
 20
-46.6189
 11
165.119
 21
-46.8199
  0
LINE
  8
0
 10
165.119
 20
-46.8199
 11
165.485
 21
-47.1367
  0
LINE
  8
0
 10
165.485
 20
-47.1367
 11
165.746
 21
-47.5438
  0
LINE
  8
0
 10
165.746
 20
-47.5438
 11
165.883
 21
-48.0081
  0
LINE
  8
0
 10
165.883
 20
-48.0081
 11
165.883
 21
-48.4919
  0
LINE
  8
0
 10
165.883
 20
-48.4919
 11
165.746
 21
-48.9562
  0
LINE
  8
0
 10
165.746
 20
-48.9562
 11
165.485
 21
-49.3633
  0
LINE
  8
0
 10
165.485
 20
-49.3633
 11
165.119
 21
-49.6801
  0
LINE
  8
0
 10
165.119
 20
-49.6801
 11
164.679
 21
-49.8811
  0
LINE
  8
0
 10
164.679
 20
-49.8811
 11
164.2
 21
-49.95
  0
LINE
  8
0
 10
164.2
 20
-49.95
 11
163.721
 21
-49.8811
  0
LINE
  8
0
 10
-136.279
 20
-49.8811
 11
-136.719
 21
-49.6801
  0
LINE
  8
0
 10
-136.719
 20
-49.6801
 11
-137.085
 21
-49.3633
  0
LINE
  8
0
 10
-137.085
 20
-49.3633
 11
-137.346
 21
-48.9562
  0
LINE
  8
0
 10
-137.346
 20
-48.9562
 11
-137.483
 21
-48.4919
  0
LINE
  8
0
 10
-137.483
 20
-48.4919
 11
-137.483
 21
-48.0081
  0
LINE
  8
0
 10
-137.483
 20
-48.0081
 11
-137.346
 21
-47.5438
  0
LINE
  8
0
 10
-137.346
 20
-47.5438
 11
-137.085
 21
-47.1367
  0
LINE
  8
0
 10
-137.085
 20
-47.1367
 11
-136.719
 21
-46.8199
  0
LINE
  8
0
 10
-136.719
 20
-46.8199
 11
-136.279
 21
-46.6189
  0
LINE
  8
0
 10
-136.279
 20
-46.6189
 11
-135.8
 21
-46.55
  0
LINE
  8
0
 10
-135.8
 20
-46.55
 11
-135.321
 21
-46.6189
  0
LINE
  8
0
 10
-135.321
 20
-46.6189
 11
-134.881
 21
-46.8199
  0
LINE
  8
0
 10
-134.881
 20
-46.8199
 11
-134.515
 21
-47.1367
  0
LINE
  8
0
 10
-134.515
 20
-47.1367
 11
-134.254
 21
-47.5438
  0
LINE
  8
0
 10
-134.254
 20
-47.5438
 11
-134.117
 21
-48.0081
  0
LINE
  8
0
 10
-134.117
 20
-48.0081
 11
-134.117
 21
-48.4919
  0
LINE
  8
0
 10
-134.117
 20
-48.4919
 11
-134.254
 21
-48.9562
  0
LINE
  8
0
 10
-134.254
 20
-48.9562
 11
-134.515
 21
-49.3633
  0
LINE
  8
0
 10
-134.515
 20
-49.3633
 11
-134.881
 21
-49.6801
  0
LINE
  8
0
 10
-134.881
 20
-49.6801
 11
-135.321
 21
-49.8811
  0
LINE
  8
0
 10
-135.321
 20
-49.8811
 11
-135.8
 21
-49.95
  0
LINE
  8
0
 10
-135.8
 20
-49.95
 11
-136.279
 21
-49.8811
  0
LINE
  8
0
 10
13.7211
 20
-49.8811
 11
13.2809
 21
-49.6801
  0
LINE
  8
0
 10
13.2809
 20
-49.6801
 11
12.9152
 21
-49.3633
  0
LINE
  8
0
 10
12.9152
 20
-49.3633
 11
12.6536
 21
-48.9562
  0
LINE
  8
0
 10
12.6536
 20
-48.9562
 11
12.5173
 21
-48.4919
  0
LINE
  8
0
 10
12.5173
 20
-48.4919
 11
12.5173
 21
-48.0081
  0
LINE
  8
0
 10
12.5173
 20
-48.0081
 11
12.6536
 21
-47.5438
  0
LINE
  8
0
 10
12.6536
 20
-47.5438
 11
12.9152
 21
-47.1367
  0
LINE
  8
0
 10
12.9152
 20
-47.1367
 11
13.2809
 21
-46.8199
  0
LINE
  8
0
 10
13.2809
 20
-46.8199
 11
13.7211
 21
-46.6189
  0
LINE
  8
0
 10
13.7211
 20
-46.6189
 11
14.2
 21
-46.55
  0
LINE
  8
0
 10
14.2
 20
-46.55
 11
14.6789
 21
-46.6189
  0
LINE
  8
0
 10
14.6789
 20
-46.6189
 11
15.1191
 21
-46.8199
  0
LINE
  8
0
 10
15.1191
 20
-46.8199
 11
15.4848
 21
-47.1367
  0
LINE
  8
0
 10
15.4848
 20
-47.1367
 11
15.7464
 21
-47.5438
  0
LINE
  8
0
 10
15.7464
 20
-47.5438
 11
15.8827
 21
-48.0081
  0
LINE
  8
0
 10
15.8827
 20
-48.0081
 11
15.8827
 21
-48.4919
  0
LINE
  8
0
 10
15.8827
 20
-48.4919
 11
15.7464
 21
-48.9562
  0
LINE
  8
0
 10
15.7464
 20
-48.9562
 11
15.4848
 21
-49.3633
  0
LINE
  8
0
 10
15.4848
 20
-49.3633
 11
15.1191
 21
-49.6801
  0
LINE
  8
0
 10
15.1191
 20
-49.6801
 11
14.6789
 21
-49.8811
  0
LINE
  8
0
 10
14.6789
 20
-49.8811
 11
14.2
 21
-49.95
  0
LINE
  8
0
 10
14.2
 20
-49.95
 11
13.7211
 21
-49.8811
  0
LINE
  8
0
 10
-164.679
 20
-49.8811
 11
-165.119
 21
-49.6801
  0
LINE
  8
0
 10
-165.119
 20
-49.6801
 11
-165.485
 21
-49.3633
  0
LINE
  8
0
 10
-165.485
 20
-49.3633
 11
-165.746
 21
-48.9562
  0
LINE
  8
0
 10
-165.746
 20
-48.9562
 11
-165.883
 21
-48.4919
  0
LINE
  8
0
 10
-165.883
 20
-48.4919
 11
-165.883
 21
-48.0081
  0
LINE
  8
0
 10
-165.883
 20
-48.0081
 11
-165.746
 21
-47.5438
  0
LINE
  8
0
 10
-165.746
 20
-47.5438
 11
-165.485
 21
-47.1367
  0
LINE
  8
0
 10
-165.485
 20
-47.1367
 11
-165.119
 21
-46.8199
  0
LINE
  8
0
 10
-165.119
 20
-46.8199
 11
-164.679
 21
-46.6189
  0
LINE
  8
0
 10
-164.679
 20
-46.6189
 11
-164.2
 21
-46.55
  0
LINE
  8
0
 10
-164.2
 20
-46.55
 11
-163.721
 21
-46.6189
  0
LINE
  8
0
 10
-163.721
 20
-46.6189
 11
-163.281
 21
-46.8199
  0
LINE
  8
0
 10
-163.281
 20
-46.8199
 11
-162.915
 21
-47.1367
  0
LINE
  8
0
 10
-162.915
 20
-47.1367
 11
-162.654
 21
-47.5438
  0
LINE
  8
0
 10
-162.654
 20
-47.5438
 11
-162.517
 21
-48.0081
  0
LINE
  8
0
 10
-162.517
 20
-48.0081
 11
-162.517
 21
-48.4919
  0
LINE
  8
0
 10
-162.517
 20
-48.4919
 11
-162.654
 21
-48.9562
  0
LINE
  8
0
 10
-162.654
 20
-48.9562
 11
-162.915
 21
-49.3633
  0
LINE
  8
0
 10
-162.915
 20
-49.3633
 11
-163.281
 21
-49.6801
  0
LINE
  8
0
 10
-163.281
 20
-49.6801
 11
-163.721
 21
-49.8811
  0
LINE
  8
0
 10
-163.721
 20
-49.8811
 11
-164.2
 21
-49.95
  0
LINE
  8
0
 10
-164.2
 20
-49.95
 11
-164.679
 21
-49.8811
  0
LINE
  8
0
 10
-0.241928
 20
-64.1327
 11
-0.706192
 21
-63.9964
  0
LINE
  8
0
 10
-0.706192
 20
-63.9964
 11
-1.11325
 21
-63.7348
  0
LINE
  8
0
 10
-1.11325
 20
-63.7348
 11
-1.43013
 21
-63.3691
  0
LINE
  8
0
 10
-1.43013
 20
-63.3691
 11
-1.63113
 21
-62.9289
  0
LINE
  8
0
 10
-1.63113
 20
-62.9289
 11
-1.7
 21
-62.45
  0
LINE
  8
0
 10
-1.7
 20
-62.45
 11
-1.63113
 21
-61.9711
  0
LINE
  8
0
 10
-1.63113
 20
-61.9711
 11
-1.43013
 21
-61.5309
  0
LINE
  8
0
 10
-1.43013
 20
-61.5309
 11
-1.11325
 21
-61.1652
  0
LINE
  8
0
 10
-1.11325
 20
-61.1652
 11
-0.706192
 21
-60.9036
  0
LINE
  8
0
 10
-0.706192
 20
-60.9036
 11
-0.241928
 21
-60.7673
  0
LINE
  8
0
 10
-0.241928
 20
-60.7673
 11
0.241928
 21
-60.7673
  0
LINE
  8
0
 10
0.241928
 20
-60.7673
 11
0.706192
 21
-60.9036
  0
LINE
  8
0
 10
0.706192
 20
-60.9036
 11
1.11325
 21
-61.1652
  0
LINE
  8
0
 10
1.11325
 20
-61.1652
 11
1.43013
 21
-61.5309
  0
LINE
  8
0
 10
1.43013
 20
-61.5309
 11
1.63113
 21
-61.9711
  0
LINE
  8
0
 10
1.63113
 20
-61.9711
 11
1.7
 21
-62.45
  0
LINE
  8
0
 10
1.7
 20
-62.45
 11
1.63113
 21
-62.9289
  0
LINE
  8
0
 10
1.63113
 20
-62.9289
 11
1.43013
 21
-63.3691
  0
LINE
  8
0
 10
1.43013
 20
-63.3691
 11
1.11325
 21
-63.7348
  0
LINE
  8
0
 10
1.11325
 20
-63.7348
 11
0.706192
 21
-63.9964
  0
LINE
  8
0
 10
0.706192
 20
-63.9964
 11
0.241928
 21
-64.1327
  0
LINE
  8
0
 10
0.241928
 20
-64.1327
 11
-0.241928
 21
-64.1327
  0
LINE
  8
0
 10
149.758
 20
-64.1327
 11
149.294
 21
-63.9964
  0
LINE
  8
0
 10
149.294
 20
-63.9964
 11
148.887
 21
-63.7348
  0
LINE
  8
0
 10
148.887
 20
-63.7348
 11
148.57
 21
-63.3691
  0
LINE
  8
0
 10
148.57
 20
-63.3691
 11
148.369
 21
-62.9289
  0
LINE
  8
0
 10
148.369
 20
-62.9289
 11
148.3
 21
-62.45
  0
LINE
  8
0
 10
148.3
 20
-62.45
 11
148.369
 21
-61.9711
  0
LINE
  8
0
 10
148.369
 20
-61.9711
 11
148.57
 21
-61.5309
  0
LINE
  8
0
 10
148.57
 20
-61.5309
 11
148.887
 21
-61.1652
  0
LINE
  8
0
 10
148.887
 20
-61.1652
 11
149.294
 21
-60.9036
  0
LINE
  8
0
 10
149.294
 20
-60.9036
 11
149.758
 21
-60.7673
  0
LINE
  8
0
 10
149.758
 20
-60.7673
 11
150.242
 21
-60.7673
  0
LINE
  8
0
 10
150.242
 20
-60.7673
 11
150.706
 21
-60.9036
  0
LINE
  8
0
 10
150.706
 20
-60.9036
 11
151.113
 21
-61.1652
  0
LINE
  8
0
 10
151.113
 20
-61.1652
 11
151.43
 21
-61.5309
  0
LINE
  8
0
 10
151.43
 20
-61.5309
 11
151.631
 21
-61.9711
  0
LINE
  8
0
 10
151.631
 20
-61.9711
 11
151.7
 21
-62.45
  0
LINE
  8
0
 10
151.7
 20
-62.45
 11
151.631
 21
-62.9289
  0
LINE
  8
0
 10
151.631
 20
-62.9289
 11
151.43
 21
-63.3691
  0
LINE
  8
0
 10
151.43
 20
-63.3691
 11
151.113
 21
-63.7348
  0
LINE
  8
0
 10
151.113
 20
-63.7348
 11
150.706
 21
-63.9964
  0
LINE
  8
0
 10
150.706
 20
-63.9964
 11
150.242
 21
-64.1327
  0
LINE
  8
0
 10
150.242
 20
-64.1327
 11
149.758
 21
-64.1327
  0
LINE
  8
0
 10
-150.242
 20
-64.1327
 11
-150.706
 21
-63.9964
  0
LINE
  8
0
 10
-150.706
 20
-63.9964
 11
-151.113
 21
-63.7348
  0
LINE
  8
0
 10
-151.113
 20
-63.7348
 11
-151.43
 21
-63.3691
  0
LINE
  8
0
 10
-151.43
 20
-63.3691
 11
-151.631
 21
-62.9289
  0
LINE
  8
0
 10
-151.631
 20
-62.9289
 11
-151.7
 21
-62.45
  0
LINE
  8
0
 10
-151.7
 20
-62.45
 11
-151.631
 21
-61.9711
  0
LINE
  8
0
 10
-151.631
 20
-61.9711
 11
-151.43
 21
-61.5309
  0
LINE
  8
0
 10
-151.43
 20
-61.5309
 11
-151.113
 21
-61.1652
  0
LINE
  8
0
 10
-151.113
 20
-61.1652
 11
-150.706
 21
-60.9036
  0
LINE
  8
0
 10
-150.706
 20
-60.9036
 11
-150.242
 21
-60.7673
  0
LINE
  8
0
 10
-150.242
 20
-60.7673
 11
-149.758
 21
-60.7673
  0
LINE
  8
0
 10
-149.758
 20
-60.7673
 11
-149.294
 21
-60.9036
  0
LINE
  8
0
 10
-149.294
 20
-60.9036
 11
-148.887
 21
-61.1652
  0
LINE
  8
0
 10
-148.887
 20
-61.1652
 11
-148.57
 21
-61.5309
  0
LINE
  8
0
 10
-148.57
 20
-61.5309
 11
-148.369
 21
-61.9711
  0
LINE
  8
0
 10
-148.369
 20
-61.9711
 11
-148.3
 21
-62.45
  0
LINE
  8
0
 10
-148.3
 20
-62.45
 11
-148.369
 21
-62.9289
  0
LINE
  8
0
 10
-148.369
 20
-62.9289
 11
-148.57
 21
-63.3691
  0
LINE
  8
0
 10
-148.57
 20
-63.3691
 11
-148.887
 21
-63.7348
  0
LINE
  8
0
 10
-148.887
 20
-63.7348
 11
-149.294
 21
-63.9964
  0
LINE
  8
0
 10
-149.294
 20
-63.9964
 11
-149.758
 21
-64.1327
  0
LINE
  8
0
 10
-149.758
 20
-64.1327
 11
-150.242
 21
-64.1327
  0
ENDSEC
  0
SECTION
  2
OBJECTS
  0
DICTIONARY
  0
ENDSEC
  0
EOF
