  0
SECTION
  2
BLOCKS
  0
ENDSEC
  0
SECTION
  2
ENTITIES
  0
LINE
  8
0
 10
40.7473
 20
-9.97203
 11
41.2434
 21
-9.92238
  0
LINE
  8
0
 10
41.2434
 20
-9.92238
 11
41.7365
 21
-9.84807
  0
LINE
  8
0
 10
41.7365
 20
-9.84807
 11
42.2252
 21
-9.74927
  0
LINE
  8
0
 10
42.2252
 20
-9.74927
 11
42.7084
 21
-9.62624
  0
LINE
  8
0
 10
42.7084
 20
-9.62624
 11
43.1849
 21
-9.47926
  0
LINE
  8
0
 10
43.1849
 20
-9.47926
 11
43.6534
 21
-9.30873
  0
LINE
  8
0
 10
43.6534
 20
-9.30873
 11
44.1129
 21
-9.11505
  0
LINE
  8
0
 10
44.1129
 20
-9.11505
 11
44.5621
 21
-8.89871
  0
LINE
  8
0
 10
44.5621
 20
-8.89871
 11
45
 21
-8.66025
  0
LINE
  8
0
 10
45
 20
-8.66025
 11
45.4255
 21
-8.40025
  0
LINE
  8
0
 10
45.4255
 20
-8.40025
 11
45.8374
 21
-8.11937
  0
LINE
  8
0
 10
45.8374
 20
-8.11937
 11
46.2349
 21
-7.81831
  0
LINE
  8
0
 10
46.2349
 20
-7.81831
 11
46.6169
 21
-7.4978
  0
LINE
  8
0
 10
46.6169
 20
-7.4978
 11
46.9824
 21
-7.15866
  0
LINE
  8
0
 10
46.9824
 20
-7.15866
 11
47.3305
 21
-6.80173
  0
LINE
  8
0
 10
47.3305
 20
-6.80173
 11
47.6604
 21
-6.42787
  0
LINE
  8
0
 10
47.6604
 20
-6.42787
 11
47.9713
 21
-6.03804
  0
LINE
  8
0
 10
47.9713
 20
-6.03804
 11
48.2624
 21
-5.63319
  0
LINE
  8
0
 10
48.2624
 20
-5.63319
 11
48.5329
 21
-5.21434
  0
LINE
  8
0
 10
48.5329
 20
-5.21434
 11
48.7822
 21
-4.78253
  0
LINE
  8
0
 10
48.7822
 20
-4.78253
 11
49.0097
 21
-4.33884
  0
LINE
  8
0
 10
49.0097
 20
-4.33884
 11
49.2148
 21
-3.88434
  0
LINE
  8
0
 10
49.2148
 20
-3.88434
 11
49.3969
 21
-3.4202
  0
LINE
  8
0
 10
49.3969
 20
-3.4202
 11
49.5557
 21
-2.94754
  0
LINE
  8
0
 10
49.5557
 20
-2.94754
 11
49.6908
 21
-2.46756
  0
LINE
  8
0
 10
49.6908
 20
-2.46756
 11
49.8017
 21
-1.98146
  0
LINE
  8
0
 10
49.8017
 20
-1.98146
 11
49.8883
 21
-1.49042
  0
LINE
  8
0
 10
49.8883
 20
-1.49042
 11
49.9503
 21
-0.995667
  0
LINE
  8
0
 10
49.9503
 20
-0.995667
 11
49.9876
 21
-0.498444
  0
LINE
  8
0
 10
49.9876
 20
-0.498444
 11
50
 21
0
  0
LINE
  8
0
 10
50
 20
0
 11
49.9876
 21
0.498444
  0
LINE
  8
0
 10
49.9876
 20
0.498444
 11
49.9503
 21
0.995667
  0
LINE
  8
0
 10
49.9503
 20
0.995667
 11
49.8883
 21
1.49042
  0
LINE
  8
0
 10
49.8883
 20
1.49042
 11
49.8017
 21
1.98146
  0
LINE
  8
0
 10
49.8017
 20
1.98146
 11
49.6908
 21
2.46756
  0
LINE
  8
0
 10
49.6908
 20
2.46756
 11
49.5557
 21
2.94754
  0
LINE
  8
0
 10
49.5557
 20
2.94754
 11
49.3969
 21
3.4202
  0
LINE
  8
0
 10
49.3969
 20
3.4202
 11
49.2148
 21
3.88434
  0
LINE
  8
0
 10
49.2148
 20
3.88434
 11
49.0097
 21
4.33884
  0
LINE
  8
0
 10
49.0097
 20
4.33884
 11
48.7822
 21
4.78253
  0
LINE
  8
0
 10
48.7822
 20
4.78253
 11
48.5329
 21
5.21434
  0
LINE
  8
0
 10
48.5329
 20
5.21434
 11
48.2624
 21
5.63319
  0
LINE
  8
0
 10
48.2624
 20
5.63319
 11
47.9713
 21
6.03804
  0
LINE
  8
0
 10
47.9713
 20
6.03804
 11
47.6604
 21
6.42787
  0
LINE
  8
0
 10
47.6604
 20
6.42787
 11
47.3305
 21
6.80173
  0
LINE
  8
0
 10
47.3305
 20
6.80173
 11
46.9824
 21
7.15866
  0
LINE
  8
0
 10
46.9824
 20
7.15866
 11
6.98236
 21
47.1587
  0
LINE
  8
0
 10
6.98236
 20
47.1587
 11
6.61685
 21
47.4978
  0
LINE
  8
0
 10
6.61685
 20
47.4978
 11
6.23489
 21
47.8183
  0
LINE
  8
0
 10
6.23489
 20
47.8183
 11
5.83743
 21
48.1194
  0
LINE
  8
0
 10
5.83743
 20
48.1194
 11
5.42546
 21
48.4003
  0
LINE
  8
0
 10
5.42546
 20
48.4003
 11
4.99998
 21
48.6602
  0
LINE
  8
0
 10
4.99998
 20
48.6602
 11
4.5621
 21
48.8987
  0
LINE
  8
0
 10
4.5621
 20
48.8987
 11
4.11287
 21
49.1151
  0
LINE
  8
0
 10
4.11287
 20
49.1151
 11
3.6534
 21
49.3087
  0
LINE
  8
0
 10
3.6534
 20
49.3087
 11
3.18486
 21
49.4793
  0
LINE
  8
0
 10
3.18486
 20
49.4793
 11
2.7084
 21
49.6262
  0
LINE
  8
0
 10
2.7084
 20
49.6262
 11
2.2252
 21
49.7493
  0
LINE
  8
0
 10
2.2252
 20
49.7493
 11
1.73648
 21
49.8481
  0
LINE
  8
0
 10
1.73648
 20
49.8481
 11
1.24342
 21
49.9224
  0
LINE
  8
0
 10
1.24342
 20
49.9224
 11
0.747299
 21
49.972
  0
LINE
  8
0
 10
0.747299
 20
49.972
 11
0.249298
 21
49.9969
  0
LINE
  8
0
 10
0.249298
 20
49.9969
 11
-0.249298
 21
49.9969
  0
LINE
  8
0
 10
-0.249298
 20
49.9969
 11
-0.747299
 21
49.972
  0
LINE
  8
0
 10
-0.747299
 20
49.972
 11
-1.24342
 21
49.9224
  0
LINE
  8
0
 10
-1.24342
 20
49.9224
 11
-1.73648
 21
49.8481
  0
LINE
  8
0
 10
-1.73648
 20
49.8481
 11
-2.2252
 21
49.7493
  0
LINE
  8
0
 10
-2.2252
 20
49.7493
 11
-2.7084
 21
49.6262
  0
LINE
  8
0
 10
-2.7084
 20
49.6262
 11
-3.18486
 21
49.4793
  0
LINE
  8
0
 10
-3.18486
 20
49.4793
 11
-3.6534
 21
49.3087
  0
LINE
  8
0
 10
-3.6534
 20
49.3087
 11
-4.11287
 21
49.1151
  0
LINE
  8
0
 10
-4.11287
 20
49.1151
 11
-4.5621
 21
48.8987
  0
LINE
  8
0
 10
-4.5621
 20
48.8987
 11
-5
 21
48.6602
  0
LINE
  8
0
 10
-5
 20
48.6602
 11
-5.42546
 21
48.4003
  0
LINE
  8
0
 10
-5.42546
 20
48.4003
 11
-5.83743
 21
48.1194
  0
LINE
  8
0
 10
-5.83743
 20
48.1194
 11
-6.23489
 21
47.8183
  0
LINE
  8
0
 10
-6.23489
 20
47.8183
 11
-6.61685
 21
47.4978
  0
LINE
  8
0
 10
-6.61685
 20
47.4978
 11
-6.98236
 21
47.1587
  0
LINE
  8
0
 10
-6.98236
 20
47.1587
 11
-7.33051
 21
46.8017
  0
LINE
  8
0
 10
-7.33051
 20
46.8017
 11
-7.66043
 21
46.4279
  0
LINE
  8
0
 10
-7.66043
 20
46.4279
 11
-7.97131
 21
46.038
  0
LINE
  8
0
 10
-7.97131
 20
46.038
 11
-8.26237
 21
45.6332
  0
LINE
  8
0
 10
-8.26237
 20
45.6332
 11
-8.5329
 21
45.2143
  0
LINE
  8
0
 10
-8.5329
 20
45.2143
 11
-8.78221
 21
44.7825
  0
LINE
  8
0
 10
-8.78221
 20
44.7825
 11
-9.00967
 21
44.3388
  0
LINE
  8
0
 10
-9.00967
 20
44.3388
 11
-9.21475
 21
43.8843
  0
LINE
  8
0
 10
-9.21475
 20
43.8843
 11
-9.39691
 21
43.4202
  0
LINE
  8
0
 10
-9.39691
 20
43.4202
 11
-9.55573
 21
42.9475
  0
LINE
  8
0
 10
-9.55573
 20
42.9475
 11
-9.69077
 21
42.4676
  0
LINE
  8
0
 10
-9.69077
 20
42.4676
 11
-9.80171
 21
41.9815
  0
LINE
  8
0
 10
-9.80171
 20
41.9815
 11
-9.88831
 21
41.4904
  0
LINE
  8
0
 10
-9.88831
 20
41.4904
 11
-9.9503
 21
40.9957
  0
LINE
  8
0
 10
-9.9503
 20
40.9957
 11
-9.98756
 21
40.4985
  0
LINE
  8
0
 10
-9.98756
 20
40.4985
 11
-10
 21
40
  0
LINE
  8
0
 10
-10
 20
40
 11
-10
 21
0
  0
LINE
  8
0
 10
-10
 20
0
 11
-9.98756
 21
-0.498444
  0
LINE
  8
0
 10
-9.98756
 20
-0.498444
 11
-9.9503
 21
-0.995667
  0
LINE
  8
0
 10
-9.9503
 20
-0.995667
 11
-9.88831
 21
-1.49042
  0
LINE
  8
0
 10
-9.88831
 20
-1.49042
 11
-9.80171
 21
-1.98146
  0
LINE
  8
0
 10
-9.80171
 20
-1.98146
 11
-9.69077
 21
-2.46756
  0
LINE
  8
0
 10
-9.69077
 20
-2.46756
 11
-9.55573
 21
-2.94754
  0
LINE
  8
0
 10
-9.55573
 20
-2.94754
 11
-9.39691
 21
-3.4202
  0
LINE
  8
0
 10
-9.39691
 20
-3.4202
 11
-9.21475
 21
-3.88434
  0
LINE
  8
0
 10
-9.21475
 20
-3.88434
 11
-9.00967
 21
-4.33884
  0
LINE
  8
0
 10
-9.00967
 20
-4.33884
 11
-8.78221
 21
-4.78253
  0
LINE
  8
0
 10
-8.78221
 20
-4.78253
 11
-8.5329
 21
-5.21434
  0
LINE
  8
0
 10
-8.5329
 20
-5.21434
 11
-8.26237
 21
-5.63319
  0
LINE
  8
0
 10
-8.26237
 20
-5.63319
 11
-7.97131
 21
-6.03804
  0
LINE
  8
0
 10
-7.97131
 20
-6.03804
 11
-7.66043
 21
-6.42787
  0
LINE
  8
0
 10
-7.66043
 20
-6.42787
 11
-7.33051
 21
-6.80173
  0
LINE
  8
0
 10
-7.33051
 20
-6.80173
 11
-6.98236
 21
-7.15866
  0
LINE
  8
0
 10
-6.98236
 20
-7.15866
 11
-6.61685
 21
-7.4978
  0
LINE
  8
0
 10
-6.61685
 20
-7.4978
 11
-6.23489
 21
-7.81831
  0
LINE
  8
0
 10
-6.23489
 20
-7.81831
 11
-5.83743
 21
-8.11937
  0
LINE
  8
0
 10
-5.83743
 20
-8.11937
 11
-5.42546
 21
-8.40025
  0
LINE
  8
0
 10
-5.42546
 20
-8.40025
 11
-4.99998
 21
-8.66025
  0
LINE
  8
0
 10
-4.99998
 20
-8.66025
 11
-4.5621
 21
-8.89871
  0
LINE
  8
0
 10
-4.5621
 20
-8.89871
 11
-4.11287
 21
-9.11505
  0
LINE
  8
0
 10
-4.11287
 20
-9.11505
 11
-3.6534
 21
-9.30873
  0
LINE
  8
0
 10
-3.6534
 20
-9.30873
 11
-3.18486
 21
-9.47926
  0
LINE
  8
0
 10
-3.18486
 20
-9.47926
 11
-2.7084
 21
-9.62624
  0
LINE
  8
0
 10
-2.7084
 20
-9.62624
 11
-2.2252
 21
-9.74927
  0
LINE
  8
0
 10
-2.2252
 20
-9.74927
 11
-1.73648
 21
-9.84807
  0
LINE
  8
0
 10
-1.73648
 20
-9.84807
 11
-1.24342
 21
-9.92238
  0
LINE
  8
0
 10
-1.24342
 20
-9.92238
 11
-0.747299
 21
-9.97203
  0
LINE
  8
0
 10
-0.747299
 20
-9.97203
 11
-0.249298
 21
-9.99689
  0
LINE
  8
0
 10
-0.249298
 20
-9.99689
 11
40.2493
 21
-9.99689
  0
LINE
  8
0
 10
40.2493
 20
-9.99689
 11
40.7473
 21
-9.97203
  0
LINE
  8
0
 10
-0.249115
 20
37.3115
 11
-0.738876
 21
37.4031
  0
LINE
  8
0
 10
-0.738876
 20
37.4031
 11
-1.20349
 21
37.5831
  0
LINE
  8
0
 10
-1.20349
 20
37.5831
 11
-1.62711
 21
37.8454
  0
LINE
  8
0
 10
-1.62711
 20
37.8454
 11
-1.99532
 21
38.181
  0
LINE
  8
0
 10
-1.99532
 20
38.181
 11
-2.29558
 21
38.5786
  0
LINE
  8
0
 10
-2.29558
 20
38.5786
 11
-2.51767
 21
39.0246
  0
LINE
  8
0
 10
-2.51767
 20
39.0246
 11
-2.65402
 21
39.5039
  0
LINE
  8
0
 10
-2.65402
 20
39.5039
 11
-2.7
 21
40
  0
LINE
  8
0
 10
-2.7
 20
40
 11
-2.65402
 21
40.4961
  0
LINE
  8
0
 10
-2.65402
 20
40.4961
 11
-2.51767
 21
40.9753
  0
LINE
  8
0
 10
-2.51767
 20
40.9753
 11
-2.29558
 21
41.4214
  0
LINE
  8
0
 10
-2.29558
 20
41.4214
 11
-1.99532
 21
41.819
  0
LINE
  8
0
 10
-1.99532
 20
41.819
 11
-1.62711
 21
42.1546
  0
LINE
  8
0
 10
-1.62711
 20
42.1546
 11
-1.20349
 21
42.4169
  0
LINE
  8
0
 10
-1.20349
 20
42.4169
 11
-0.738876
 21
42.5969
  0
LINE
  8
0
 10
-0.738876
 20
42.5969
 11
-0.249115
 21
42.6885
  0
LINE
  8
0
 10
-0.249115
 20
42.6885
 11
0.249115
 21
42.6885
  0
LINE
  8
0
 10
0.249115
 20
42.6885
 11
0.738876
 21
42.5969
  0
LINE
  8
0
 10
0.738876
 20
42.5969
 11
1.20349
 21
42.4169
  0
LINE
  8
0
 10
1.20349
 20
42.4169
 11
1.62711
 21
42.1546
  0
LINE
  8
0
 10
1.62711
 20
42.1546
 11
1.99532
 21
41.819
  0
LINE
  8
0
 10
1.99532
 20
41.819
 11
2.29558
 21
41.4214
  0
LINE
  8
0
 10
2.29558
 20
41.4214
 11
2.51767
 21
40.9753
  0
LINE
  8
0
 10
2.51767
 20
40.9753
 11
2.65402
 21
40.4961
  0
LINE
  8
0
 10
2.65402
 20
40.4961
 11
2.7
 21
40
  0
LINE
  8
0
 10
2.7
 20
40
 11
2.65402
 21
39.5039
  0
LINE
  8
0
 10
2.65402
 20
39.5039
 11
2.51767
 21
39.0246
  0
LINE
  8
0
 10
2.51767
 20
39.0246
 11
2.29558
 21
38.5786
  0
LINE
  8
0
 10
2.29558
 20
38.5786
 11
1.99532
 21
38.181
  0
LINE
  8
0
 10
1.99532
 20
38.181
 11
1.62711
 21
37.8454
  0
LINE
  8
0
 10
1.62711
 20
37.8454
 11
1.20349
 21
37.5831
  0
LINE
  8
0
 10
1.20349
 20
37.5831
 11
0.738876
 21
37.4031
  0
LINE
  8
0
 10
0.738876
 20
37.4031
 11
0.249115
 21
37.3115
  0
LINE
  8
0
 10
0.249115
 20
37.3115
 11
-0.249115
 21
37.3115
  0
LINE
  8
0
 10
-0.249115
 20
17.3115
 11
-0.738876
 21
17.4031
  0
LINE
  8
0
 10
-0.738876
 20
17.4031
 11
-1.20349
 21
17.5831
  0
LINE
  8
0
 10
-1.20349
 20
17.5831
 11
-1.62711
 21
17.8454
  0
LINE
  8
0
 10
-1.62711
 20
17.8454
 11
-1.99532
 21
18.181
  0
LINE
  8
0
 10
-1.99532
 20
18.181
 11
-2.29558
 21
18.5786
  0
LINE
  8
0
 10
-2.29558
 20
18.5786
 11
-2.51767
 21
19.0246
  0
LINE
  8
0
 10
-2.51767
 20
19.0246
 11
-2.65402
 21
19.5039
  0
LINE
  8
0
 10
-2.65402
 20
19.5039
 11
-2.7
 21
20
  0
LINE
  8
0
 10
-2.7
 20
20
 11
-2.65402
 21
20.4961
  0
LINE
  8
0
 10
-2.65402
 20
20.4961
 11
-2.51767
 21
20.9753
  0
LINE
  8
0
 10
-2.51767
 20
20.9753
 11
-2.29558
 21
21.4214
  0
LINE
  8
0
 10
-2.29558
 20
21.4214
 11
-1.99532
 21
21.819
  0
LINE
  8
0
 10
-1.99532
 20
21.819
 11
-1.62711
 21
22.1546
  0
LINE
  8
0
 10
-1.62711
 20
22.1546
 11
-1.20349
 21
22.4169
  0
LINE
  8
0
 10
-1.20349
 20
22.4169
 11
-0.738876
 21
22.5969
  0
LINE
  8
0
 10
-0.738876
 20
22.5969
 11
-0.249115
 21
22.6885
  0
LINE
  8
0
 10
-0.249115
 20
22.6885
 11
0.249115
 21
22.6885
  0
LINE
  8
0
 10
0.249115
 20
22.6885
 11
0.738876
 21
22.5969
  0
LINE
  8
0
 10
0.738876
 20
22.5969
 11
1.20349
 21
22.4169
  0
LINE
  8
0
 10
1.20349
 20
22.4169
 11
1.62711
 21
22.1546
  0
LINE
  8
0
 10
1.62711
 20
22.1546
 11
1.99532
 21
21.819
  0
LINE
  8
0
 10
1.99532
 20
21.819
 11
2.29558
 21
21.4214
  0
LINE
  8
0
 10
2.29558
 20
21.4214
 11
2.51767
 21
20.9753
  0
LINE
  8
0
 10
2.51767
 20
20.9753
 11
2.65402
 21
20.4961
  0
LINE
  8
0
 10
2.65402
 20
20.4961
 11
2.7
 21
20
  0
LINE
  8
0
 10
2.7
 20
20
 11
2.65402
 21
19.5039
  0
LINE
  8
0
 10
2.65402
 20
19.5039
 11
2.51767
 21
19.0246
  0
LINE
  8
0
 10
2.51767
 20
19.0246
 11
2.29558
 21
18.5786
  0
LINE
  8
0
 10
2.29558
 20
18.5786
 11
1.99532
 21
18.181
  0
LINE
  8
0
 10
1.99532
 20
18.181
 11
1.62711
 21
17.8454
  0
LINE
  8
0
 10
1.62711
 20
17.8454
 11
1.20349
 21
17.5831
  0
LINE
  8
0
 10
1.20349
 20
17.5831
 11
0.738876
 21
17.4031
  0
LINE
  8
0
 10
0.738876
 20
17.4031
 11
0.249115
 21
17.3115
  0
LINE
  8
0
 10
0.249115
 20
17.3115
 11
-0.249115
 21
17.3115
  0
LINE
  8
0
 10
-0.249115
 20
-2.68848
 11
-0.738876
 21
-2.59692
  0
LINE
  8
0
 10
-0.738876
 20
-2.59692
 11
-1.20349
 21
-2.41693
  0
LINE
  8
0
 10
-1.20349
 20
-2.41693
 11
-1.62711
 21
-2.15463
  0
LINE
  8
0
 10
-1.62711
 20
-2.15463
 11
-1.99532
 21
-1.81897
  0
LINE
  8
0
 10
-1.99532
 20
-1.81897
 11
-2.29558
 21
-1.42136
  0
LINE
  8
0
 10
-2.29558
 20
-1.42136
 11
-2.51767
 21
-0.975342
  0
LINE
  8
0
 10
-2.51767
 20
-0.975342
 11
-2.65402
 21
-0.496109
  0
LINE
  8
0
 10
-2.65402
 20
-0.496109
 11
-2.7
 21
0
  0
LINE
  8
0
 10
-2.7
 20
0
 11
-2.65402
 21
0.496109
  0
LINE
  8
0
 10
-2.65402
 20
0.496109
 11
-2.51767
 21
0.975342
  0
LINE
  8
0
 10
-2.51767
 20
0.975342
 11
-2.29558
 21
1.42136
  0
LINE
  8
0
 10
-2.29558
 20
1.42136
 11
-1.99532
 21
1.81897
  0
LINE
  8
0
 10
-1.99532
 20
1.81897
 11
-1.62711
 21
2.15463
  0
LINE
  8
0
 10
-1.62711
 20
2.15463
 11
-1.20349
 21
2.41693
  0
LINE
  8
0
 10
-1.20349
 20
2.41693
 11
-0.738876
 21
2.59692
  0
LINE
  8
0
 10
-0.738876
 20
2.59692
 11
-0.249115
 21
2.68848
  0
LINE
  8
0
 10
-0.249115
 20
2.68848
 11
0.249115
 21
2.68848
  0
LINE
  8
0
 10
0.249115
 20
2.68848
 11
0.738876
 21
2.59692
  0
LINE
  8
0
 10
0.738876
 20
2.59692
 11
1.20349
 21
2.41693
  0
LINE
  8
0
 10
1.20349
 20
2.41693
 11
1.62711
 21
2.15463
  0
LINE
  8
0
 10
1.62711
 20
2.15463
 11
1.99532
 21
1.81897
  0
LINE
  8
0
 10
1.99532
 20
1.81897
 11
2.29558
 21
1.42136
  0
LINE
  8
0
 10
2.29558
 20
1.42136
 11
2.51767
 21
0.975342
  0
LINE
  8
0
 10
2.51767
 20
0.975342
 11
2.65402
 21
0.496109
  0
LINE
  8
0
 10
2.65402
 20
0.496109
 11
2.7
 21
0
  0
LINE
  8
0
 10
2.7
 20
0
 11
2.65402
 21
-0.496109
  0
LINE
  8
0
 10
2.65402
 20
-0.496109
 11
2.51767
 21
-0.975342
  0
LINE
  8
0
 10
2.51767
 20
-0.975342
 11
2.29558
 21
-1.42136
  0
LINE
  8
0
 10
2.29558
 20
-1.42136
 11
1.99532
 21
-1.81897
  0
LINE
  8
0
 10
1.99532
 20
-1.81897
 11
1.62711
 21
-2.15463
  0
LINE
  8
0
 10
1.62711
 20
-2.15463
 11
1.20349
 21
-2.41693
  0
LINE
  8
0
 10
1.20349
 20
-2.41693
 11
0.738876
 21
-2.59692
  0
LINE
  8
0
 10
0.738876
 20
-2.59692
 11
0.249115
 21
-2.68848
  0
LINE
  8
0
 10
0.249115
 20
-2.68848
 11
-0.249115
 21
-2.68848
  0
LINE
  8
0
 10
39.7509
 20
-2.68848
 11
39.2611
 21
-2.59692
  0
LINE
  8
0
 10
39.2611
 20
-2.59692
 11
38.7965
 21
-2.41693
  0
LINE
  8
0
 10
38.7965
 20
-2.41693
 11
38.3729
 21
-2.15463
  0
LINE
  8
0
 10
38.3729
 20
-2.15463
 11
38.0047
 21
-1.81897
  0
LINE
  8
0
 10
38.0047
 20
-1.81897
 11
37.7044
 21
-1.42136
  0
LINE
  8
0
 10
37.7044
 20
-1.42136
 11
37.4823
 21
-0.975342
  0
LINE
  8
0
 10
37.4823
 20
-0.975342
 11
37.346
 21
-0.496109
  0
LINE
  8
0
 10
37.346
 20
-0.496109
 11
37.3
 21
0
  0
LINE
  8
0
 10
37.3
 20
0
 11
37.346
 21
0.496109
  0
LINE
  8
0
 10
37.346
 20
0.496109
 11
37.4823
 21
0.975342
  0
LINE
  8
0
 10
37.4823
 20
0.975342
 11
37.7044
 21
1.42136
  0
LINE
  8
0
 10
37.7044
 20
1.42136
 11
38.0047
 21
1.81897
  0
LINE
  8
0
 10
38.0047
 20
1.81897
 11
38.3729
 21
2.15463
  0
LINE
  8
0
 10
38.3729
 20
2.15463
 11
38.7965
 21
2.41693
  0
LINE
  8
0
 10
38.7965
 20
2.41693
 11
39.2611
 21
2.59692
  0
LINE
  8
0
 10
39.2611
 20
2.59692
 11
39.7509
 21
2.68848
  0
LINE
  8
0
 10
39.7509
 20
2.68848
 11
40.2491
 21
2.68848
  0
LINE
  8
0
 10
40.2491
 20
2.68848
 11
40.7389
 21
2.59692
  0
LINE
  8
0
 10
40.7389
 20
2.59692
 11
41.2035
 21
2.41693
  0
LINE
  8
0
 10
41.2035
 20
2.41693
 11
41.6271
 21
2.15463
  0
LINE
  8
0
 10
41.6271
 20
2.15463
 11
41.9953
 21
1.81897
  0
LINE
  8
0
 10
41.9953
 20
1.81897
 11
42.2956
 21
1.42136
  0
LINE
  8
0
 10
42.2956
 20
1.42136
 11
42.5177
 21
0.975342
  0
LINE
  8
0
 10
42.5177
 20
0.975342
 11
42.654
 21
0.496109
  0
LINE
  8
0
 10
42.654
 20
0.496109
 11
42.7
 21
0
  0
LINE
  8
0
 10
42.7
 20
0
 11
42.654
 21
-0.496109
  0
LINE
  8
0
 10
42.654
 20
-0.496109
 11
42.5177
 21
-0.975342
  0
LINE
  8
0
 10
42.5177
 20
-0.975342
 11
42.2956
 21
-1.42136
  0
LINE
  8
0
 10
42.2956
 20
-1.42136
 11
41.9953
 21
-1.81897
  0
LINE
  8
0
 10
41.9953
 20
-1.81897
 11
41.6271
 21
-2.15463
  0
LINE
  8
0
 10
41.6271
 20
-2.15463
 11
41.2035
 21
-2.41693
  0
LINE
  8
0
 10
41.2035
 20
-2.41693
 11
40.7389
 21
-2.59692
  0
LINE
  8
0
 10
40.7389
 20
-2.59692
 11
40.2491
 21
-2.68848
  0
LINE
  8
0
 10
40.2491
 20
-2.68848
 11
39.7509
 21
-2.68848
  0
LINE
  8
0
 10
19.7509
 20
-2.68848
 11
19.2611
 21
-2.59692
  0
LINE
  8
0
 10
19.2611
 20
-2.59692
 11
18.7965
 21
-2.41693
  0
LINE
  8
0
 10
18.7965
 20
-2.41693
 11
18.3729
 21
-2.15463
  0
LINE
  8
0
 10
18.3729
 20
-2.15463
 11
18.0047
 21
-1.81897
  0
LINE
  8
0
 10
18.0047
 20
-1.81897
 11
17.7044
 21
-1.42136
  0
LINE
  8
0
 10
17.7044
 20
-1.42136
 11
17.4823
 21
-0.975342
  0
LINE
  8
0
 10
17.4823
 20
-0.975342
 11
17.346
 21
-0.496109
  0
LINE
  8
0
 10
17.346
 20
-0.496109
 11
17.3
 21
0
  0
LINE
  8
0
 10
17.3
 20
0
 11
17.346
 21
0.496109
  0
LINE
  8
0
 10
17.346
 20
0.496109
 11
17.4823
 21
0.975342
  0
LINE
  8
0
 10
17.4823
 20
0.975342
 11
17.7044
 21
1.42136
  0
LINE
  8
0
 10
17.7044
 20
1.42136
 11
18.0047
 21
1.81897
  0
LINE
  8
0
 10
18.0047
 20
1.81897
 11
18.3729
 21
2.15463
  0
LINE
  8
0
 10
18.3729
 20
2.15463
 11
18.7965
 21
2.41693
  0
LINE
  8
0
 10
18.7965
 20
2.41693
 11
19.2611
 21
2.59692
  0
LINE
  8
0
 10
19.2611
 20
2.59692
 11
19.7509
 21
2.68848
  0
LINE
  8
0
 10
19.7509
 20
2.68848
 11
20.2491
 21
2.68848
  0
LINE
  8
0
 10
20.2491
 20
2.68848
 11
20.7389
 21
2.59692
  0
LINE
  8
0
 10
20.7389
 20
2.59692
 11
21.2035
 21
2.41693
  0
LINE
  8
0
 10
21.2035
 20
2.41693
 11
21.6271
 21
2.15463
  0
LINE
  8
0
 10
21.6271
 20
2.15463
 11
21.9953
 21
1.81897
  0
LINE
  8
0
 10
21.9953
 20
1.81897
 11
22.2956
 21
1.42136
  0
LINE
  8
0
 10
22.2956
 20
1.42136
 11
22.5177
 21
0.975342
  0
LINE
  8
0
 10
22.5177
 20
0.975342
 11
22.654
 21
0.496109
  0
LINE
  8
0
 10
22.654
 20
0.496109
 11
22.7
 21
0
  0
LINE
  8
0
 10
22.7
 20
0
 11
22.654
 21
-0.496109
  0
LINE
  8
0
 10
22.654
 20
-0.496109
 11
22.5177
 21
-0.975342
  0
LINE
  8
0
 10
22.5177
 20
-0.975342
 11
22.2956
 21
-1.42136
  0
LINE
  8
0
 10
22.2956
 20
-1.42136
 11
21.9953
 21
-1.81897
  0
LINE
  8
0
 10
21.9953
 20
-1.81897
 11
21.6271
 21
-2.15463
  0
LINE
  8
0
 10
21.6271
 20
-2.15463
 11
21.2035
 21
-2.41693
  0
LINE
  8
0
 10
21.2035
 20
-2.41693
 11
20.7389
 21
-2.59692
  0
LINE
  8
0
 10
20.7389
 20
-2.59692
 11
20.2491
 21
-2.68848
  0
LINE
  8
0
 10
20.2491
 20
-2.68848
 11
19.7509
 21
-2.68848
  0
ENDSEC
  0
SECTION
  2
OBJECTS
  0
DICTIONARY
  0
ENDSEC
  0
EOF
