  0
SECTION
  2
BLOCKS
  0
ENDSEC
  0
SECTION
  2
ENTITIES
  0
LINE
  8
0
 10
-57
 20
-17.375
 11
-57
 21
-12.5
  0
LINE
  8
0
 10
-57
 20
-12.5
 11
-19
 21
-12.5
  0
LINE
  8
0
 10
-19
 20
-12.5
 11
-19
 21
-17.375
  0
LINE
  8
0
 10
-19
 20
-17.375
 11
-17.375
 21
-19
  0
LINE
  8
0
 10
-17.375
 20
-19
 11
-2.56299
 21
-19
  0
LINE
  8
0
 10
-2.56299
 20
-19
 11
-2.56299
 21
-10.4375
  0
LINE
  8
0
 10
-2.56299
 20
-10.4375
 11
-6.78519
 21
-10.4375
  0
LINE
  8
0
 10
-6.78519
 20
-10.4375
 11
-6.78519
 21
-5.0625
  0
LINE
  8
0
 10
-6.78519
 20
-5.0625
 11
-2.56299
 21
-5.0625
  0
LINE
  8
0
 10
-2.56299
 20
-5.0625
 11
-2.56299
 21
-3.6875
  0
LINE
  8
0
 10
-2.56299
 20
-3.6875
 11
2.56299
 21
-3.6875
  0
LINE
  8
0
 10
2.56299
 20
-3.6875
 11
2.56299
 21
-5.0625
  0
LINE
  8
0
 10
2.56299
 20
-5.0625
 11
6.78519
 21
-5.0625
  0
LINE
  8
0
 10
6.78519
 20
-5.0625
 11
6.78519
 21
-10.4375
  0
LINE
  8
0
 10
6.78519
 20
-10.4375
 11
2.56299
 21
-10.4375
  0
LINE
  8
0
 10
2.56299
 20
-10.4375
 11
2.56299
 21
-19
  0
LINE
  8
0
 10
2.56299
 20
-19
 11
17.375
 21
-19
  0
LINE
  8
0
 10
17.375
 20
-19
 11
19
 21
-17.375
  0
LINE
  8
0
 10
19
 20
-17.375
 11
19
 21
-12.5
  0
LINE
  8
0
 10
19
 20
-12.5
 11
57
 21
-12.5
  0
LINE
  8
0
 10
57
 20
-12.5
 11
57
 21
-17.375
  0
LINE
  8
0
 10
57
 20
-17.375
 11
58.625
 21
-19
  0
LINE
  8
0
 10
58.625
 20
-19
 11
93.375
 21
-19
  0
LINE
  8
0
 10
93.375
 20
-19
 11
95
 21
-17.375
  0
LINE
  8
0
 10
95
 20
-17.375
 11
95
 21
-12.5
  0
LINE
  8
0
 10
95
 20
-12.5
 11
100
 21
-12.5
  0
LINE
  8
0
 10
100
 20
-12.5
 11
100
 21
12.5
  0
LINE
  8
0
 10
100
 20
12.5
 11
57
 21
12.5
  0
LINE
  8
0
 10
57
 20
12.5
 11
57
 21
17.375
  0
LINE
  8
0
 10
57
 20
17.375
 11
55.375
 21
19
  0
LINE
  8
0
 10
55.375
 20
19
 11
20.625
 21
19
  0
LINE
  8
0
 10
20.625
 20
19
 11
19
 21
17.375
  0
LINE
  8
0
 10
19
 20
17.375
 11
19
 21
12.5
  0
LINE
  8
0
 10
19
 20
12.5
 11
-19
 21
12.5
  0
LINE
  8
0
 10
-19
 20
12.5
 11
-19
 21
17.375
  0
LINE
  8
0
 10
-19
 20
17.375
 11
-20.625
 21
19
  0
LINE
  8
0
 10
-20.625
 20
19
 11
-55.375
 21
19
  0
LINE
  8
0
 10
-55.375
 20
19
 11
-57
 21
17.375
  0
LINE
  8
0
 10
-57
 20
17.375
 11
-57
 21
12.5
  0
LINE
  8
0
 10
-57
 20
12.5
 11
-100
 21
12.5
  0
LINE
  8
0
 10
-100
 20
12.5
 11
-100
 21
-12.5
  0
LINE
  8
0
 10
-100
 20
-12.5
 11
-95
 21
-12.5
  0
LINE
  8
0
 10
-95
 20
-12.5
 11
-95
 21
-17.375
  0
LINE
  8
0
 10
-95
 20
-17.375
 11
-93.375
 21
-19
  0
LINE
  8
0
 10
-93.375
 20
-19
 11
-58.625
 21
-19
  0
LINE
  8
0
 10
-58.625
 20
-19
 11
-57
 21
-17.375
  0
ENDSEC
  0
SECTION
  2
OBJECTS
  0
DICTIONARY
  0
ENDSEC
  0
EOF
