  0
SECTION
  2
BLOCKS
  0
ENDSEC
  0
SECTION
  2
ENTITIES
  0
LINE
  8
0
 10
-48
 20
-17.375
 11
-48
 21
-12.5
  0
LINE
  8
0
 10
-48
 20
-12.5
 11
-16
 21
-12.5
  0
LINE
  8
0
 10
-16
 20
-12.5
 11
-16
 21
-17.375
  0
LINE
  8
0
 10
-16
 20
-17.375
 11
-14.375
 21
-19
  0
LINE
  8
0
 10
-14.375
 20
-19
 11
14.375
 21
-19
  0
LINE
  8
0
 10
14.375
 20
-19
 11
16
 21
-17.375
  0
LINE
  8
0
 10
16
 20
-17.375
 11
16
 21
-12.5
  0
LINE
  8
0
 10
16
 20
-12.5
 11
48
 21
-12.5
  0
LINE
  8
0
 10
48
 20
-12.5
 11
48
 21
-17.375
  0
LINE
  8
0
 10
48
 20
-17.375
 11
49.625
 21
-19
  0
LINE
  8
0
 10
49.625
 20
-19
 11
78.375
 21
-19
  0
LINE
  8
0
 10
78.375
 20
-19
 11
80
 21
-17.375
  0
LINE
  8
0
 10
80
 20
-17.375
 11
80
 21
-12.5
  0
LINE
  8
0
 10
80
 20
-12.5
 11
85
 21
-12.5
  0
LINE
  8
0
 10
85
 20
-12.5
 11
85
 21
12.5
  0
LINE
  8
0
 10
85
 20
12.5
 11
48
 21
12.5
  0
LINE
  8
0
 10
48
 20
12.5
 11
48
 21
17.375
  0
LINE
  8
0
 10
48
 20
17.375
 11
46.375
 21
19
  0
LINE
  8
0
 10
46.375
 20
19
 11
17.625
 21
19
  0
LINE
  8
0
 10
17.625
 20
19
 11
16
 21
17.375
  0
LINE
  8
0
 10
16
 20
17.375
 11
16
 21
12.5
  0
LINE
  8
0
 10
16
 20
12.5
 11
-16
 21
12.5
  0
LINE
  8
0
 10
-16
 20
12.5
 11
-16
 21
17.375
  0
LINE
  8
0
 10
-16
 20
17.375
 11
-17.625
 21
19
  0
LINE
  8
0
 10
-17.625
 20
19
 11
-46.375
 21
19
  0
LINE
  8
0
 10
-46.375
 20
19
 11
-48
 21
17.375
  0
LINE
  8
0
 10
-48
 20
17.375
 11
-48
 21
12.5
  0
LINE
  8
0
 10
-48
 20
12.5
 11
-85
 21
12.5
  0
LINE
  8
0
 10
-85
 20
12.5
 11
-85
 21
-12.5
  0
LINE
  8
0
 10
-85
 20
-12.5
 11
-80
 21
-12.5
  0
LINE
  8
0
 10
-80
 20
-12.5
 11
-80
 21
-17.375
  0
LINE
  8
0
 10
-80
 20
-17.375
 11
-78.375
 21
-19
  0
LINE
  8
0
 10
-78.375
 20
-19
 11
-49.625
 21
-19
  0
LINE
  8
0
 10
-49.625
 20
-19
 11
-48
 21
-17.375
  0
ENDSEC
  0
SECTION
  2
OBJECTS
  0
DICTIONARY
  0
ENDSEC
  0
EOF
