  0
SECTION
  2
BLOCKS
  0
ENDSEC
  0
SECTION
  2
ENTITIES
  0
LINE
  8
0
 10
-48
 20
-14.875
 11
-48
 21
-10
  0
LINE
  8
0
 10
-48
 20
-10
 11
-16
 21
-10
  0
LINE
  8
0
 10
-16
 20
-10
 11
-16
 21
-14.875
  0
LINE
  8
0
 10
-16
 20
-14.875
 11
-14.375
 21
-16.5
  0
LINE
  8
0
 10
-14.375
 20
-16.5
 11
14.375
 21
-16.5
  0
LINE
  8
0
 10
14.375
 20
-16.5
 11
16
 21
-14.875
  0
LINE
  8
0
 10
16
 20
-14.875
 11
16
 21
-10
  0
LINE
  8
0
 10
16
 20
-10
 11
48
 21
-10
  0
LINE
  8
0
 10
48
 20
-10
 11
48
 21
-14.875
  0
LINE
  8
0
 10
48
 20
-14.875
 11
49.625
 21
-16.5
  0
LINE
  8
0
 10
49.625
 20
-16.5
 11
78.375
 21
-16.5
  0
LINE
  8
0
 10
78.375
 20
-16.5
 11
80
 21
-14.875
  0
LINE
  8
0
 10
80
 20
-14.875
 11
80
 21
-10
  0
LINE
  8
0
 10
80
 20
-10
 11
85
 21
-10
  0
LINE
  8
0
 10
85
 20
-10
 11
85
 21
10
  0
LINE
  8
0
 10
85
 20
10
 11
48
 21
10
  0
LINE
  8
0
 10
48
 20
10
 11
48
 21
14.875
  0
LINE
  8
0
 10
48
 20
14.875
 11
46.375
 21
16.5
  0
LINE
  8
0
 10
46.375
 20
16.5
 11
17.625
 21
16.5
  0
LINE
  8
0
 10
17.625
 20
16.5
 11
16
 21
14.875
  0
LINE
  8
0
 10
16
 20
14.875
 11
16
 21
10
  0
LINE
  8
0
 10
16
 20
10
 11
-16
 21
10
  0
LINE
  8
0
 10
-16
 20
10
 11
-16
 21
14.875
  0
LINE
  8
0
 10
-16
 20
14.875
 11
-17.625
 21
16.5
  0
LINE
  8
0
 10
-17.625
 20
16.5
 11
-46.375
 21
16.5
  0
LINE
  8
0
 10
-46.375
 20
16.5
 11
-48
 21
14.875
  0
LINE
  8
0
 10
-48
 20
14.875
 11
-48
 21
10
  0
LINE
  8
0
 10
-48
 20
10
 11
-85
 21
10
  0
LINE
  8
0
 10
-85
 20
10
 11
-85
 21
-10
  0
LINE
  8
0
 10
-85
 20
-10
 11
-80
 21
-10
  0
LINE
  8
0
 10
-80
 20
-10
 11
-80
 21
-14.875
  0
LINE
  8
0
 10
-80
 20
-14.875
 11
-78.375
 21
-16.5
  0
LINE
  8
0
 10
-78.375
 20
-16.5
 11
-49.625
 21
-16.5
  0
LINE
  8
0
 10
-49.625
 20
-16.5
 11
-48
 21
-14.875
  0
ENDSEC
  0
SECTION
  2
OBJECTS
  0
DICTIONARY
  0
ENDSEC
  0
EOF
