  0
SECTION
  2
BLOCKS
  0
ENDSEC
  0
SECTION
  2
ENTITIES
  0
LINE
  8
0
 10
-192
 20
-17.375
 11
-192
 21
-12.5
  0
LINE
  8
0
 10
-192
 20
-12.5
 11
-144
 21
-12.5
  0
LINE
  8
0
 10
-144
 20
-12.5
 11
-144
 21
-17.375
  0
LINE
  8
0
 10
-144
 20
-17.375
 11
-142.375
 21
-19
  0
LINE
  8
0
 10
-142.375
 20
-19
 11
-97.625
 21
-19
  0
LINE
  8
0
 10
-97.625
 20
-19
 11
-96
 21
-17.375
  0
LINE
  8
0
 10
-96
 20
-17.375
 11
-96
 21
-12.5
  0
LINE
  8
0
 10
-96
 20
-12.5
 11
-48
 21
-12.5
  0
LINE
  8
0
 10
-48
 20
-12.5
 11
-48
 21
-17.375
  0
LINE
  8
0
 10
-48
 20
-17.375
 11
-46.375
 21
-19
  0
LINE
  8
0
 10
-46.375
 20
-19
 11
-1.625
 21
-19
  0
LINE
  8
0
 10
-1.625
 20
-19
 11
0
 21
-17.375
  0
LINE
  8
0
 10
0
 20
-17.375
 11
0
 21
-12.5
  0
LINE
  8
0
 10
0
 20
-12.5
 11
48
 21
-12.5
  0
LINE
  8
0
 10
48
 20
-12.5
 11
48
 21
-17.375
  0
LINE
  8
0
 10
48
 20
-17.375
 11
49.625
 21
-19
  0
LINE
  8
0
 10
49.625
 20
-19
 11
94.375
 21
-19
  0
LINE
  8
0
 10
94.375
 20
-19
 11
96
 21
-17.375
  0
LINE
  8
0
 10
96
 20
-17.375
 11
96
 21
-12.5
  0
LINE
  8
0
 10
96
 20
-12.5
 11
144
 21
-12.5
  0
LINE
  8
0
 10
144
 20
-12.5
 11
144
 21
-17.375
  0
LINE
  8
0
 10
144
 20
-17.375
 11
145.625
 21
-19
  0
LINE
  8
0
 10
145.625
 20
-19
 11
190.375
 21
-19
  0
LINE
  8
0
 10
190.375
 20
-19
 11
192
 21
-17.375
  0
LINE
  8
0
 10
192
 20
-17.375
 11
192
 21
-12.5
  0
LINE
  8
0
 10
192
 20
-12.5
 11
245
 21
-12.5
  0
LINE
  8
0
 10
245
 20
-12.5
 11
245
 21
12.5
  0
LINE
  8
0
 10
245
 20
12.5
 11
240
 21
12.5
  0
LINE
  8
0
 10
240
 20
12.5
 11
240
 21
17.375
  0
LINE
  8
0
 10
240
 20
17.375
 11
238.375
 21
19
  0
LINE
  8
0
 10
238.375
 20
19
 11
193.625
 21
19
  0
LINE
  8
0
 10
193.625
 20
19
 11
192
 21
17.375
  0
LINE
  8
0
 10
192
 20
17.375
 11
192
 21
12.5
  0
LINE
  8
0
 10
192
 20
12.5
 11
144
 21
12.5
  0
LINE
  8
0
 10
144
 20
12.5
 11
144
 21
17.375
  0
LINE
  8
0
 10
144
 20
17.375
 11
142.375
 21
19
  0
LINE
  8
0
 10
142.375
 20
19
 11
97.625
 21
19
  0
LINE
  8
0
 10
97.625
 20
19
 11
96
 21
17.375
  0
LINE
  8
0
 10
96
 20
17.375
 11
96
 21
12.5
  0
LINE
  8
0
 10
96
 20
12.5
 11
48
 21
12.5
  0
LINE
  8
0
 10
48
 20
12.5
 11
48
 21
17.375
  0
LINE
  8
0
 10
48
 20
17.375
 11
46.375
 21
19
  0
LINE
  8
0
 10
46.375
 20
19
 11
1.625
 21
19
  0
LINE
  8
0
 10
1.625
 20
19
 11
0
 21
17.375
  0
LINE
  8
0
 10
0
 20
17.375
 11
0
 21
12.5
  0
LINE
  8
0
 10
0
 20
12.5
 11
-48
 21
12.5
  0
LINE
  8
0
 10
-48
 20
12.5
 11
-48
 21
17.375
  0
LINE
  8
0
 10
-48
 20
17.375
 11
-49.625
 21
19
  0
LINE
  8
0
 10
-49.625
 20
19
 11
-94.375
 21
19
  0
LINE
  8
0
 10
-94.375
 20
19
 11
-96
 21
17.375
  0
LINE
  8
0
 10
-96
 20
17.375
 11
-96
 21
12.5
  0
LINE
  8
0
 10
-96
 20
12.5
 11
-144
 21
12.5
  0
LINE
  8
0
 10
-144
 20
12.5
 11
-144
 21
17.375
  0
LINE
  8
0
 10
-144
 20
17.375
 11
-145.625
 21
19
  0
LINE
  8
0
 10
-145.625
 20
19
 11
-190.375
 21
19
  0
LINE
  8
0
 10
-190.375
 20
19
 11
-192
 21
17.375
  0
LINE
  8
0
 10
-192
 20
17.375
 11
-192
 21
12.5
  0
LINE
  8
0
 10
-192
 20
12.5
 11
-245
 21
12.5
  0
LINE
  8
0
 10
-245
 20
12.5
 11
-245
 21
-12.5
  0
LINE
  8
0
 10
-245
 20
-12.5
 11
-240
 21
-12.5
  0
LINE
  8
0
 10
-240
 20
-12.5
 11
-240
 21
-17.375
  0
LINE
  8
0
 10
-240
 20
-17.375
 11
-238.375
 21
-19
  0
LINE
  8
0
 10
-238.375
 20
-19
 11
-193.625
 21
-19
  0
LINE
  8
0
 10
-193.625
 20
-19
 11
-192
 21
-17.375
  0
ENDSEC
  0
SECTION
  2
OBJECTS
  0
DICTIONARY
  0
ENDSEC
  0
EOF
