  0
SECTION
  2
BLOCKS
  0
ENDSEC
  0
SECTION
  2
ENTITIES
  0
LINE
  8
0
 10
-172
 20
-14.875
 11
-172
 21
-10
  0
LINE
  8
0
 10
-172
 20
-10
 11
-129
 21
-10
  0
LINE
  8
0
 10
-129
 20
-10
 11
-129
 21
-14.875
  0
LINE
  8
0
 10
-129
 20
-14.875
 11
-127.375
 21
-16.5
  0
LINE
  8
0
 10
-127.375
 20
-16.5
 11
-87.625
 21
-16.5
  0
LINE
  8
0
 10
-87.625
 20
-16.5
 11
-86
 21
-14.875
  0
LINE
  8
0
 10
-86
 20
-14.875
 11
-86
 21
-10
  0
LINE
  8
0
 10
-86
 20
-10
 11
-43
 21
-10
  0
LINE
  8
0
 10
-43
 20
-10
 11
-43
 21
-14.875
  0
LINE
  8
0
 10
-43
 20
-14.875
 11
-41.375
 21
-16.5
  0
LINE
  8
0
 10
-41.375
 20
-16.5
 11
-1.625
 21
-16.5
  0
LINE
  8
0
 10
-1.625
 20
-16.5
 11
0
 21
-14.875
  0
LINE
  8
0
 10
0
 20
-14.875
 11
0
 21
-10
  0
LINE
  8
0
 10
0
 20
-10
 11
43
 21
-10
  0
LINE
  8
0
 10
43
 20
-10
 11
43
 21
-14.875
  0
LINE
  8
0
 10
43
 20
-14.875
 11
44.625
 21
-16.5
  0
LINE
  8
0
 10
44.625
 20
-16.5
 11
84.375
 21
-16.5
  0
LINE
  8
0
 10
84.375
 20
-16.5
 11
86
 21
-14.875
  0
LINE
  8
0
 10
86
 20
-14.875
 11
86
 21
-10
  0
LINE
  8
0
 10
86
 20
-10
 11
129
 21
-10
  0
LINE
  8
0
 10
129
 20
-10
 11
129
 21
-14.875
  0
LINE
  8
0
 10
129
 20
-14.875
 11
130.625
 21
-16.5
  0
LINE
  8
0
 10
130.625
 20
-16.5
 11
170.375
 21
-16.5
  0
LINE
  8
0
 10
170.375
 20
-16.5
 11
172
 21
-14.875
  0
LINE
  8
0
 10
172
 20
-14.875
 11
172
 21
-10
  0
LINE
  8
0
 10
172
 20
-10
 11
245
 21
-10
  0
LINE
  8
0
 10
245
 20
-10
 11
245
 21
10
  0
LINE
  8
0
 10
245
 20
10
 11
215
 21
10
  0
LINE
  8
0
 10
215
 20
10
 11
215
 21
14.875
  0
LINE
  8
0
 10
215
 20
14.875
 11
213.375
 21
16.5
  0
LINE
  8
0
 10
213.375
 20
16.5
 11
173.625
 21
16.5
  0
LINE
  8
0
 10
173.625
 20
16.5
 11
172
 21
14.875
  0
LINE
  8
0
 10
172
 20
14.875
 11
172
 21
10
  0
LINE
  8
0
 10
172
 20
10
 11
129
 21
10
  0
LINE
  8
0
 10
129
 20
10
 11
129
 21
14.875
  0
LINE
  8
0
 10
129
 20
14.875
 11
127.375
 21
16.5
  0
LINE
  8
0
 10
127.375
 20
16.5
 11
87.625
 21
16.5
  0
LINE
  8
0
 10
87.625
 20
16.5
 11
86
 21
14.875
  0
LINE
  8
0
 10
86
 20
14.875
 11
86
 21
10
  0
LINE
  8
0
 10
86
 20
10
 11
43
 21
10
  0
LINE
  8
0
 10
43
 20
10
 11
43
 21
14.875
  0
LINE
  8
0
 10
43
 20
14.875
 11
41.375
 21
16.5
  0
LINE
  8
0
 10
41.375
 20
16.5
 11
1.625
 21
16.5
  0
LINE
  8
0
 10
1.625
 20
16.5
 11
0
 21
14.875
  0
LINE
  8
0
 10
0
 20
14.875
 11
0
 21
10
  0
LINE
  8
0
 10
0
 20
10
 11
-43
 21
10
  0
LINE
  8
0
 10
-43
 20
10
 11
-43
 21
14.875
  0
LINE
  8
0
 10
-43
 20
14.875
 11
-44.625
 21
16.5
  0
LINE
  8
0
 10
-44.625
 20
16.5
 11
-84.375
 21
16.5
  0
LINE
  8
0
 10
-84.375
 20
16.5
 11
-86
 21
14.875
  0
LINE
  8
0
 10
-86
 20
14.875
 11
-86
 21
10
  0
LINE
  8
0
 10
-86
 20
10
 11
-129
 21
10
  0
LINE
  8
0
 10
-129
 20
10
 11
-129
 21
14.875
  0
LINE
  8
0
 10
-129
 20
14.875
 11
-130.625
 21
16.5
  0
LINE
  8
0
 10
-130.625
 20
16.5
 11
-170.375
 21
16.5
  0
LINE
  8
0
 10
-170.375
 20
16.5
 11
-172
 21
14.875
  0
LINE
  8
0
 10
-172
 20
14.875
 11
-172
 21
10
  0
LINE
  8
0
 10
-172
 20
10
 11
-245
 21
10
  0
LINE
  8
0
 10
-245
 20
10
 11
-245
 21
-10
  0
LINE
  8
0
 10
-245
 20
-10
 11
-215
 21
-10
  0
LINE
  8
0
 10
-215
 20
-10
 11
-215
 21
-14.875
  0
LINE
  8
0
 10
-215
 20
-14.875
 11
-213.375
 21
-16.5
  0
LINE
  8
0
 10
-213.375
 20
-16.5
 11
-173.625
 21
-16.5
  0
LINE
  8
0
 10
-173.625
 20
-16.5
 11
-172
 21
-14.875
  0
ENDSEC
  0
SECTION
  2
OBJECTS
  0
DICTIONARY
  0
ENDSEC
  0
EOF
