  0
SECTION
  2
BLOCKS
  0
ENDSEC
  0
SECTION
  2
ENTITIES
  0
LINE
  8
0
 10
-160
 20
-17.375
 11
-160
 21
-12.5
  0
LINE
  8
0
 10
-160
 20
-12.5
 11
-120
 21
-12.5
  0
LINE
  8
0
 10
-120
 20
-12.5
 11
-120
 21
-17.375
  0
LINE
  8
0
 10
-120
 20
-17.375
 11
-118.375
 21
-19
  0
LINE
  8
0
 10
-118.375
 20
-19
 11
-81.625
 21
-19
  0
LINE
  8
0
 10
-81.625
 20
-19
 11
-80
 21
-17.375
  0
LINE
  8
0
 10
-80
 20
-17.375
 11
-80
 21
-12.5
  0
LINE
  8
0
 10
-80
 20
-12.5
 11
-40
 21
-12.5
  0
LINE
  8
0
 10
-40
 20
-12.5
 11
-40
 21
-17.375
  0
LINE
  8
0
 10
-40
 20
-17.375
 11
-38.375
 21
-19
  0
LINE
  8
0
 10
-38.375
 20
-19
 11
-1.625
 21
-19
  0
LINE
  8
0
 10
-1.625
 20
-19
 11
0
 21
-17.375
  0
LINE
  8
0
 10
0
 20
-17.375
 11
0
 21
-12.5
  0
LINE
  8
0
 10
0
 20
-12.5
 11
40
 21
-12.5
  0
LINE
  8
0
 10
40
 20
-12.5
 11
40
 21
-17.375
  0
LINE
  8
0
 10
40
 20
-17.375
 11
41.625
 21
-19
  0
LINE
  8
0
 10
41.625
 20
-19
 11
78.375
 21
-19
  0
LINE
  8
0
 10
78.375
 20
-19
 11
80
 21
-17.375
  0
LINE
  8
0
 10
80
 20
-17.375
 11
80
 21
-12.5
  0
LINE
  8
0
 10
80
 20
-12.5
 11
120
 21
-12.5
  0
LINE
  8
0
 10
120
 20
-12.5
 11
120
 21
-17.375
  0
LINE
  8
0
 10
120
 20
-17.375
 11
121.625
 21
-19
  0
LINE
  8
0
 10
121.625
 20
-19
 11
158.375
 21
-19
  0
LINE
  8
0
 10
158.375
 20
-19
 11
160
 21
-17.375
  0
LINE
  8
0
 10
160
 20
-17.375
 11
160
 21
-12.5
  0
LINE
  8
0
 10
160
 20
-12.5
 11
245
 21
-12.5
  0
LINE
  8
0
 10
245
 20
-12.5
 11
245
 21
12.5
  0
LINE
  8
0
 10
245
 20
12.5
 11
200
 21
12.5
  0
LINE
  8
0
 10
200
 20
12.5
 11
200
 21
17.375
  0
LINE
  8
0
 10
200
 20
17.375
 11
198.375
 21
19
  0
LINE
  8
0
 10
198.375
 20
19
 11
161.625
 21
19
  0
LINE
  8
0
 10
161.625
 20
19
 11
160
 21
17.375
  0
LINE
  8
0
 10
160
 20
17.375
 11
160
 21
12.5
  0
LINE
  8
0
 10
160
 20
12.5
 11
120
 21
12.5
  0
LINE
  8
0
 10
120
 20
12.5
 11
120
 21
17.375
  0
LINE
  8
0
 10
120
 20
17.375
 11
118.375
 21
19
  0
LINE
  8
0
 10
118.375
 20
19
 11
81.625
 21
19
  0
LINE
  8
0
 10
81.625
 20
19
 11
80
 21
17.375
  0
LINE
  8
0
 10
80
 20
17.375
 11
80
 21
12.5
  0
LINE
  8
0
 10
80
 20
12.5
 11
40
 21
12.5
  0
LINE
  8
0
 10
40
 20
12.5
 11
40
 21
17.375
  0
LINE
  8
0
 10
40
 20
17.375
 11
38.375
 21
19
  0
LINE
  8
0
 10
38.375
 20
19
 11
1.625
 21
19
  0
LINE
  8
0
 10
1.625
 20
19
 11
0
 21
17.375
  0
LINE
  8
0
 10
0
 20
17.375
 11
0
 21
12.5
  0
LINE
  8
0
 10
0
 20
12.5
 11
-40
 21
12.5
  0
LINE
  8
0
 10
-40
 20
12.5
 11
-40
 21
17.375
  0
LINE
  8
0
 10
-40
 20
17.375
 11
-41.625
 21
19
  0
LINE
  8
0
 10
-41.625
 20
19
 11
-78.375
 21
19
  0
LINE
  8
0
 10
-78.375
 20
19
 11
-80
 21
17.375
  0
LINE
  8
0
 10
-80
 20
17.375
 11
-80
 21
12.5
  0
LINE
  8
0
 10
-80
 20
12.5
 11
-120
 21
12.5
  0
LINE
  8
0
 10
-120
 20
12.5
 11
-120
 21
17.375
  0
LINE
  8
0
 10
-120
 20
17.375
 11
-121.625
 21
19
  0
LINE
  8
0
 10
-121.625
 20
19
 11
-158.375
 21
19
  0
LINE
  8
0
 10
-158.375
 20
19
 11
-160
 21
17.375
  0
LINE
  8
0
 10
-160
 20
17.375
 11
-160
 21
12.5
  0
LINE
  8
0
 10
-160
 20
12.5
 11
-245
 21
12.5
  0
LINE
  8
0
 10
-245
 20
12.5
 11
-245
 21
-12.5
  0
LINE
  8
0
 10
-245
 20
-12.5
 11
-200
 21
-12.5
  0
LINE
  8
0
 10
-200
 20
-12.5
 11
-200
 21
-17.375
  0
LINE
  8
0
 10
-200
 20
-17.375
 11
-198.375
 21
-19
  0
LINE
  8
0
 10
-198.375
 20
-19
 11
-161.625
 21
-19
  0
LINE
  8
0
 10
-161.625
 20
-19
 11
-160
 21
-17.375
  0
ENDSEC
  0
SECTION
  2
OBJECTS
  0
DICTIONARY
  0
ENDSEC
  0
EOF
