  0
SECTION
  2
BLOCKS
  0
ENDSEC
  0
SECTION
  2
ENTITIES
  0
LINE
  8
0
 10
167.5
 20
249.875
 11
165.875
 21
251.5
  0
LINE
  8
0
 10
165.875
 20
251.5
 11
154.125
 21
251.5
  0
LINE
  8
0
 10
154.125
 20
251.5
 11
152.5
 21
249.875
  0
LINE
  8
0
 10
152.5
 20
249.875
 11
152.5
 21
238.5
  0
LINE
  8
0
 10
152.5
 20
238.5
 11
167.5
 21
238.5
  0
LINE
  8
0
 10
167.5
 20
238.5
 11
167.5
 21
249.875
  0
LINE
  8
0
 10
-122.5
 20
249.875
 11
-124.125
 21
251.5
  0
LINE
  8
0
 10
-124.125
 20
251.5
 11
-135.875
 21
251.5
  0
LINE
  8
0
 10
-135.875
 20
251.5
 11
-137.5
 21
249.875
  0
LINE
  8
0
 10
-137.5
 20
249.875
 11
-137.5
 21
238.5
  0
LINE
  8
0
 10
-137.5
 20
238.5
 11
-122.5
 21
238.5
  0
LINE
  8
0
 10
-122.5
 20
238.5
 11
-122.5
 21
249.875
  0
LINE
  8
0
 10
-152.5
 20
249.875
 11
-154.125
 21
251.5
  0
LINE
  8
0
 10
-154.125
 20
251.5
 11
-165.875
 21
251.5
  0
LINE
  8
0
 10
-165.875
 20
251.5
 11
-167.5
 21
249.875
  0
LINE
  8
0
 10
-167.5
 20
249.875
 11
-167.5
 21
238.5
  0
LINE
  8
0
 10
-167.5
 20
238.5
 11
-152.5
 21
238.5
  0
LINE
  8
0
 10
-152.5
 20
238.5
 11
-152.5
 21
249.875
  0
LINE
  8
0
 10
137.5
 20
249.875
 11
135.875
 21
251.5
  0
LINE
  8
0
 10
135.875
 20
251.5
 11
124.125
 21
251.5
  0
LINE
  8
0
 10
124.125
 20
251.5
 11
122.5
 21
249.875
  0
LINE
  8
0
 10
122.5
 20
249.875
 11
122.5
 21
238.5
  0
LINE
  8
0
 10
122.5
 20
238.5
 11
137.5
 21
238.5
  0
LINE
  8
0
 10
137.5
 20
238.5
 11
137.5
 21
249.875
  0
LINE
  8
0
 10
-237.938
 20
6.78519
 11
-232.562
 21
6.78519
  0
LINE
  8
0
 10
-232.562
 20
6.78519
 11
-232.562
 21
4.31827
  0
LINE
  8
0
 10
-232.562
 20
4.31827
 11
-31.8808
 21
205
  0
LINE
  8
0
 10
-31.8808
 20
205
 11
-93.1162
 21
205
  0
LINE
  8
0
 10
-93.1162
 20
205
 11
-108.718
 21
189.399
  0
LINE
  8
0
 10
-108.718
 20
189.399
 11
-113.243
 21
193.924
  0
LINE
  8
0
 10
-113.243
 20
193.924
 11
-102.167
 21
205
  0
LINE
  8
0
 10
-102.167
 20
205
 11
-245
 21
205
  0
LINE
  8
0
 10
-245
 20
205
 11
-245
 21
167.5
  0
LINE
  8
0
 10
-245
 20
167.5
 11
-249.875
 21
167.5
  0
LINE
  8
0
 10
-249.875
 20
167.5
 11
-251.5
 21
165.875
  0
LINE
  8
0
 10
-251.5
 20
165.875
 11
-251.5
 21
154.125
  0
LINE
  8
0
 10
-251.5
 20
154.125
 11
-249.875
 21
152.5
  0
LINE
  8
0
 10
-249.875
 20
152.5
 11
-245
 21
152.5
  0
LINE
  8
0
 10
-245
 20
152.5
 11
-245
 21
147.563
  0
LINE
  8
0
 10
-245
 20
147.563
 11
-237.938
 21
147.563
  0
LINE
  8
0
 10
-237.938
 20
147.563
 11
-237.938
 21
151.785
  0
LINE
  8
0
 10
-237.938
 20
151.785
 11
-232.562
 21
151.785
  0
LINE
  8
0
 10
-232.562
 20
151.785
 11
-232.562
 21
147.563
  0
LINE
  8
0
 10
-232.562
 20
147.563
 11
-231.188
 21
147.563
  0
LINE
  8
0
 10
-231.188
 20
147.563
 11
-231.188
 21
142.437
  0
LINE
  8
0
 10
-231.188
 20
142.437
 11
-232.562
 21
142.437
  0
LINE
  8
0
 10
-232.562
 20
142.437
 11
-232.562
 21
138.215
  0
LINE
  8
0
 10
-232.562
 20
138.215
 11
-237.938
 21
138.215
  0
LINE
  8
0
 10
-237.938
 20
138.215
 11
-237.938
 21
142.437
  0
LINE
  8
0
 10
-237.938
 20
142.437
 11
-245
 21
142.437
  0
LINE
  8
0
 10
-245
 20
142.437
 11
-245
 21
137.5
  0
LINE
  8
0
 10
-245
 20
137.5
 11
-249.875
 21
137.5
  0
LINE
  8
0
 10
-249.875
 20
137.5
 11
-251.5
 21
135.875
  0
LINE
  8
0
 10
-251.5
 20
135.875
 11
-251.5
 21
124.125
  0
LINE
  8
0
 10
-251.5
 20
124.125
 11
-249.875
 21
122.5
  0
LINE
  8
0
 10
-249.875
 20
122.5
 11
-245
 21
122.5
  0
LINE
  8
0
 10
-245
 20
122.5
 11
-245
 21
2.56299
  0
LINE
  8
0
 10
-245
 20
2.56299
 11
-237.938
 21
2.56299
  0
LINE
  8
0
 10
-237.938
 20
2.56299
 11
-237.938
 21
6.78519
  0
LINE
  8
0
 10
-238
 20
198.95
 11
-242
 21
202.95
  0
LINE
  8
0
 10
-242
 20
202.95
 11
-242
 21
203.05
  0
LINE
  8
0
 10
-242
 20
203.05
 11
-228
 21
203.05
  0
LINE
  8
0
 10
-228
 20
203.05
 11
-228
 21
202.95
  0
LINE
  8
0
 10
-228
 20
202.95
 11
-232
 21
198.95
  0
LINE
  8
0
 10
-232
 20
198.95
 11
-238
 21
198.95
  0
LINE
  8
0
 10
-227.05
 20
188
 11
-231.05
 21
192
  0
LINE
  8
0
 10
-231.05
 20
192
 11
-231.05
 21
198
  0
LINE
  8
0
 10
-231.05
 20
198
 11
-227.05
 21
202
  0
LINE
  8
0
 10
-227.05
 20
202
 11
-226.95
 21
202
  0
LINE
  8
0
 10
-226.95
 20
202
 11
-226.95
 21
199.25
  0
LINE
  8
0
 10
-226.95
 20
199.25
 11
-223
 21
199.25
  0
LINE
  8
0
 10
-223
 20
199.25
 11
-223
 21
190.75
  0
LINE
  8
0
 10
-223
 20
190.75
 11
-226.95
 21
190.75
  0
LINE
  8
0
 10
-226.95
 20
190.75
 11
-226.95
 21
188
  0
LINE
  8
0
 10
-226.95
 20
188
 11
-227.05
 21
188
  0
LINE
  8
0
 10
-243.05
 20
188
 11
-243.05
 21
202
  0
LINE
  8
0
 10
-243.05
 20
202
 11
-242.95
 21
202
  0
LINE
  8
0
 10
-242.95
 20
202
 11
-238.95
 21
198
  0
LINE
  8
0
 10
-238.95
 20
198
 11
-238.95
 21
192
  0
LINE
  8
0
 10
-238.95
 20
192
 11
-242.95
 21
188
  0
LINE
  8
0
 10
-242.95
 20
188
 11
-243.05
 21
188
  0
LINE
  8
0
 10
-214
 20
190.75
 11
-214
 21
199.25
  0
LINE
  8
0
 10
-214
 20
199.25
 11
-210
 21
199.25
  0
LINE
  8
0
 10
-210
 20
199.25
 11
-210
 21
190.75
  0
LINE
  8
0
 10
-210
 20
190.75
 11
-214
 21
190.75
  0
LINE
  8
0
 10
-235.249
 20
192.312
 11
-235.739
 21
192.403
  0
LINE
  8
0
 10
-235.739
 20
192.403
 11
-236.203
 21
192.583
  0
LINE
  8
0
 10
-236.203
 20
192.583
 11
-236.627
 21
192.845
  0
LINE
  8
0
 10
-236.627
 20
192.845
 11
-236.995
 21
193.181
  0
LINE
  8
0
 10
-236.995
 20
193.181
 11
-237.296
 21
193.579
  0
LINE
  8
0
 10
-237.296
 20
193.579
 11
-237.518
 21
194.025
  0
LINE
  8
0
 10
-237.518
 20
194.025
 11
-237.654
 21
194.504
  0
LINE
  8
0
 10
-237.654
 20
194.504
 11
-237.7
 21
195
  0
LINE
  8
0
 10
-237.7
 20
195
 11
-237.654
 21
195.496
  0
LINE
  8
0
 10
-237.654
 20
195.496
 11
-237.518
 21
195.975
  0
LINE
  8
0
 10
-237.518
 20
195.975
 11
-237.296
 21
196.421
  0
LINE
  8
0
 10
-237.296
 20
196.421
 11
-236.995
 21
196.819
  0
LINE
  8
0
 10
-236.995
 20
196.819
 11
-236.627
 21
197.155
  0
LINE
  8
0
 10
-236.627
 20
197.155
 11
-236.203
 21
197.417
  0
LINE
  8
0
 10
-236.203
 20
197.417
 11
-235.739
 21
197.597
  0
LINE
  8
0
 10
-235.739
 20
197.597
 11
-235.249
 21
197.688
  0
LINE
  8
0
 10
-235.249
 20
197.688
 11
-234.751
 21
197.688
  0
LINE
  8
0
 10
-234.751
 20
197.688
 11
-234.261
 21
197.597
  0
LINE
  8
0
 10
-234.261
 20
197.597
 11
-233.797
 21
197.417
  0
LINE
  8
0
 10
-233.797
 20
197.417
 11
-233.373
 21
197.155
  0
LINE
  8
0
 10
-233.373
 20
197.155
 11
-233.005
 21
196.819
  0
LINE
  8
0
 10
-233.005
 20
196.819
 11
-232.704
 21
196.421
  0
LINE
  8
0
 10
-232.704
 20
196.421
 11
-232.482
 21
195.975
  0
LINE
  8
0
 10
-232.482
 20
195.975
 11
-232.346
 21
195.496
  0
LINE
  8
0
 10
-232.346
 20
195.496
 11
-232.3
 21
195
  0
LINE
  8
0
 10
-232.3
 20
195
 11
-232.346
 21
194.504
  0
LINE
  8
0
 10
-232.346
 20
194.504
 11
-232.482
 21
194.025
  0
LINE
  8
0
 10
-232.482
 20
194.025
 11
-232.704
 21
193.579
  0
LINE
  8
0
 10
-232.704
 20
193.579
 11
-233.005
 21
193.181
  0
LINE
  8
0
 10
-233.005
 20
193.181
 11
-233.373
 21
192.845
  0
LINE
  8
0
 10
-233.373
 20
192.845
 11
-233.797
 21
192.583
  0
LINE
  8
0
 10
-233.797
 20
192.583
 11
-234.261
 21
192.403
  0
LINE
  8
0
 10
-234.261
 20
192.403
 11
-234.751
 21
192.312
  0
LINE
  8
0
 10
-234.751
 20
192.312
 11
-235.249
 21
192.312
  0
LINE
  8
0
 10
-243.05
 20
168
 11
-243.05
 21
182
  0
LINE
  8
0
 10
-243.05
 20
182
 11
-242.95
 21
182
  0
LINE
  8
0
 10
-242.95
 20
182
 11
-238.95
 21
178
  0
LINE
  8
0
 10
-238.95
 20
178
 11
-238.95
 21
172
  0
LINE
  8
0
 10
-238.95
 20
172
 11
-242.95
 21
168
  0
LINE
  8
0
 10
-242.95
 20
168
 11
-243.05
 21
168
  0
LINE
  8
0
 10
-227.05
 20
168
 11
-231.05
 21
172
  0
LINE
  8
0
 10
-231.05
 20
172
 11
-231.05
 21
178
  0
LINE
  8
0
 10
-231.05
 20
178
 11
-227.05
 21
182
  0
LINE
  8
0
 10
-227.05
 20
182
 11
-226.95
 21
182
  0
LINE
  8
0
 10
-226.95
 20
182
 11
-226.95
 21
168
  0
LINE
  8
0
 10
-226.95
 20
168
 11
-227.05
 21
168
  0
LINE
  8
0
 10
-235.249
 20
172.312
 11
-235.739
 21
172.403
  0
LINE
  8
0
 10
-235.739
 20
172.403
 11
-236.203
 21
172.583
  0
LINE
  8
0
 10
-236.203
 20
172.583
 11
-236.627
 21
172.845
  0
LINE
  8
0
 10
-236.627
 20
172.845
 11
-236.995
 21
173.181
  0
LINE
  8
0
 10
-236.995
 20
173.181
 11
-237.296
 21
173.579
  0
LINE
  8
0
 10
-237.296
 20
173.579
 11
-237.518
 21
174.025
  0
LINE
  8
0
 10
-237.518
 20
174.025
 11
-237.654
 21
174.504
  0
LINE
  8
0
 10
-237.654
 20
174.504
 11
-237.7
 21
175
  0
LINE
  8
0
 10
-237.7
 20
175
 11
-237.654
 21
175.496
  0
LINE
  8
0
 10
-237.654
 20
175.496
 11
-237.518
 21
175.975
  0
LINE
  8
0
 10
-237.518
 20
175.975
 11
-237.296
 21
176.421
  0
LINE
  8
0
 10
-237.296
 20
176.421
 11
-236.995
 21
176.819
  0
LINE
  8
0
 10
-236.995
 20
176.819
 11
-236.627
 21
177.155
  0
LINE
  8
0
 10
-236.627
 20
177.155
 11
-236.203
 21
177.417
  0
LINE
  8
0
 10
-236.203
 20
177.417
 11
-235.739
 21
177.597
  0
LINE
  8
0
 10
-235.739
 20
177.597
 11
-235.249
 21
177.688
  0
LINE
  8
0
 10
-235.249
 20
177.688
 11
-234.751
 21
177.688
  0
LINE
  8
0
 10
-234.751
 20
177.688
 11
-234.261
 21
177.597
  0
LINE
  8
0
 10
-234.261
 20
177.597
 11
-233.797
 21
177.417
  0
LINE
  8
0
 10
-233.797
 20
177.417
 11
-233.373
 21
177.155
  0
LINE
  8
0
 10
-233.373
 20
177.155
 11
-233.005
 21
176.819
  0
LINE
  8
0
 10
-233.005
 20
176.819
 11
-232.704
 21
176.421
  0
LINE
  8
0
 10
-232.704
 20
176.421
 11
-232.482
 21
175.975
  0
LINE
  8
0
 10
-232.482
 20
175.975
 11
-232.346
 21
175.496
  0
LINE
  8
0
 10
-232.346
 20
175.496
 11
-232.3
 21
175
  0
LINE
  8
0
 10
-232.3
 20
175
 11
-232.346
 21
174.504
  0
LINE
  8
0
 10
-232.346
 20
174.504
 11
-232.482
 21
174.025
  0
LINE
  8
0
 10
-232.482
 20
174.025
 11
-232.704
 21
173.579
  0
LINE
  8
0
 10
-232.704
 20
173.579
 11
-233.005
 21
173.181
  0
LINE
  8
0
 10
-233.005
 20
173.181
 11
-233.373
 21
172.845
  0
LINE
  8
0
 10
-233.373
 20
172.845
 11
-233.797
 21
172.583
  0
LINE
  8
0
 10
-233.797
 20
172.583
 11
-234.261
 21
172.403
  0
LINE
  8
0
 10
-234.261
 20
172.403
 11
-234.751
 21
172.312
  0
LINE
  8
0
 10
-234.751
 20
172.312
 11
-235.249
 21
172.312
  0
LINE
  8
0
 10
-242
 20
166.95
 11
-242
 21
167.05
  0
LINE
  8
0
 10
-242
 20
167.05
 11
-238
 21
171.05
  0
LINE
  8
0
 10
-238
 20
171.05
 11
-232
 21
171.05
  0
LINE
  8
0
 10
-232
 20
171.05
 11
-228
 21
167.05
  0
LINE
  8
0
 10
-228
 20
167.05
 11
-228
 21
166.95
  0
LINE
  8
0
 10
-228
 20
166.95
 11
-242
 21
166.95
  0
LINE
  8
0
 10
-166.983
 20
140.184
 11
-140.184
 21
166.983
  0
LINE
  8
0
 10
-140.184
 20
166.983
 11
-135.658
 21
162.458
  0
LINE
  8
0
 10
-135.658
 20
162.458
 11
-162.458
 21
135.658
  0
LINE
  8
0
 10
-162.458
 20
135.658
 11
-166.983
 21
140.184
  0
LINE
  8
0
 10
-220.723
 20
86.4438
 11
-193.924
 21
113.243
  0
LINE
  8
0
 10
-193.924
 20
113.243
 11
-189.399
 21
108.718
  0
LINE
  8
0
 10
-189.399
 20
108.718
 11
-216.198
 21
81.9183
  0
LINE
  8
0
 10
-216.198
 20
81.9183
 11
-220.723
 21
86.4438
  0
LINE
  8
0
 10
245
 20
122.5
 11
249.875
 21
122.5
  0
LINE
  8
0
 10
249.875
 20
122.5
 11
251.5
 21
124.125
  0
LINE
  8
0
 10
251.5
 20
124.125
 11
251.5
 21
135.875
  0
LINE
  8
0
 10
251.5
 20
135.875
 11
249.875
 21
137.5
  0
LINE
  8
0
 10
249.875
 20
137.5
 11
245
 21
137.5
  0
LINE
  8
0
 10
245
 20
137.5
 11
245
 21
142.437
  0
LINE
  8
0
 10
245
 20
142.437
 11
237.938
 21
142.437
  0
LINE
  8
0
 10
237.938
 20
142.437
 11
237.938
 21
138.215
  0
LINE
  8
0
 10
237.938
 20
138.215
 11
232.562
 21
138.215
  0
LINE
  8
0
 10
232.562
 20
138.215
 11
232.562
 21
142.437
  0
LINE
  8
0
 10
232.562
 20
142.437
 11
231.188
 21
142.437
  0
LINE
  8
0
 10
231.188
 20
142.437
 11
231.188
 21
147.563
  0
LINE
  8
0
 10
231.188
 20
147.563
 11
232.562
 21
147.563
  0
LINE
  8
0
 10
232.562
 20
147.563
 11
232.562
 21
151.785
  0
LINE
  8
0
 10
232.562
 20
151.785
 11
237.938
 21
151.785
  0
LINE
  8
0
 10
237.938
 20
151.785
 11
237.938
 21
147.563
  0
LINE
  8
0
 10
237.938
 20
147.563
 11
245
 21
147.563
  0
LINE
  8
0
 10
245
 20
147.563
 11
245
 21
152.5
  0
LINE
  8
0
 10
245
 20
152.5
 11
249.875
 21
152.5
  0
LINE
  8
0
 10
249.875
 20
152.5
 11
251.5
 21
154.125
  0
LINE
  8
0
 10
251.5
 20
154.125
 11
251.5
 21
165.875
  0
LINE
  8
0
 10
251.5
 20
165.875
 11
249.875
 21
167.5
  0
LINE
  8
0
 10
249.875
 20
167.5
 11
245
 21
167.5
  0
LINE
  8
0
 10
245
 20
167.5
 11
245
 21
205
  0
LINE
  8
0
 10
245
 20
205
 11
102.167
 21
205
  0
LINE
  8
0
 10
102.167
 20
205
 11
113.243
 21
193.924
  0
LINE
  8
0
 10
113.243
 20
193.924
 11
108.718
 21
189.399
  0
LINE
  8
0
 10
108.718
 20
189.399
 11
93.1162
 21
205
  0
LINE
  8
0
 10
93.1162
 20
205
 11
88.4493
 21
205
  0
LINE
  8
0
 10
88.4493
 20
205
 11
245
 21
48.4493
  0
LINE
  8
0
 10
245
 20
48.4493
 11
245
 21
122.5
  0
LINE
  8
0
 10
232
 20
198.95
 11
228
 21
202.95
  0
LINE
  8
0
 10
228
 20
202.95
 11
228
 21
203.05
  0
LINE
  8
0
 10
228
 20
203.05
 11
242
 21
203.05
  0
LINE
  8
0
 10
242
 20
203.05
 11
242
 21
202.95
  0
LINE
  8
0
 10
242
 20
202.95
 11
238
 21
198.95
  0
LINE
  8
0
 10
238
 20
198.95
 11
232
 21
198.95
  0
LINE
  8
0
 10
226.95
 20
188
 11
226.95
 21
190.75
  0
LINE
  8
0
 10
226.95
 20
190.75
 11
223
 21
190.75
  0
LINE
  8
0
 10
223
 20
190.75
 11
223
 21
199.25
  0
LINE
  8
0
 10
223
 20
199.25
 11
226.95
 21
199.25
  0
LINE
  8
0
 10
226.95
 20
199.25
 11
226.95
 21
202
  0
LINE
  8
0
 10
226.95
 20
202
 11
227.05
 21
202
  0
LINE
  8
0
 10
227.05
 20
202
 11
231.05
 21
198
  0
LINE
  8
0
 10
231.05
 20
198
 11
231.05
 21
192
  0
LINE
  8
0
 10
231.05
 20
192
 11
227.05
 21
188
  0
LINE
  8
0
 10
227.05
 20
188
 11
226.95
 21
188
  0
LINE
  8
0
 10
242.95
 20
188
 11
238.95
 21
192
  0
LINE
  8
0
 10
238.95
 20
192
 11
238.95
 21
198
  0
LINE
  8
0
 10
238.95
 20
198
 11
242.95
 21
202
  0
LINE
  8
0
 10
242.95
 20
202
 11
243.05
 21
202
  0
LINE
  8
0
 10
243.05
 20
202
 11
243.05
 21
188
  0
LINE
  8
0
 10
243.05
 20
188
 11
242.95
 21
188
  0
LINE
  8
0
 10
210
 20
190.75
 11
210
 21
199.25
  0
LINE
  8
0
 10
210
 20
199.25
 11
214
 21
199.25
  0
LINE
  8
0
 10
214
 20
199.25
 11
214
 21
190.75
  0
LINE
  8
0
 10
214
 20
190.75
 11
210
 21
190.75
  0
LINE
  8
0
 10
234.751
 20
192.312
 11
234.261
 21
192.403
  0
LINE
  8
0
 10
234.261
 20
192.403
 11
233.797
 21
192.583
  0
LINE
  8
0
 10
233.797
 20
192.583
 11
233.373
 21
192.845
  0
LINE
  8
0
 10
233.373
 20
192.845
 11
233.005
 21
193.181
  0
LINE
  8
0
 10
233.005
 20
193.181
 11
232.704
 21
193.579
  0
LINE
  8
0
 10
232.704
 20
193.579
 11
232.482
 21
194.025
  0
LINE
  8
0
 10
232.482
 20
194.025
 11
232.346
 21
194.504
  0
LINE
  8
0
 10
232.346
 20
194.504
 11
232.3
 21
195
  0
LINE
  8
0
 10
232.3
 20
195
 11
232.346
 21
195.496
  0
LINE
  8
0
 10
232.346
 20
195.496
 11
232.482
 21
195.975
  0
LINE
  8
0
 10
232.482
 20
195.975
 11
232.704
 21
196.421
  0
LINE
  8
0
 10
232.704
 20
196.421
 11
233.005
 21
196.819
  0
LINE
  8
0
 10
233.005
 20
196.819
 11
233.373
 21
197.155
  0
LINE
  8
0
 10
233.373
 20
197.155
 11
233.797
 21
197.417
  0
LINE
  8
0
 10
233.797
 20
197.417
 11
234.261
 21
197.597
  0
LINE
  8
0
 10
234.261
 20
197.597
 11
234.751
 21
197.688
  0
LINE
  8
0
 10
234.751
 20
197.688
 11
235.249
 21
197.688
  0
LINE
  8
0
 10
235.249
 20
197.688
 11
235.739
 21
197.597
  0
LINE
  8
0
 10
235.739
 20
197.597
 11
236.203
 21
197.417
  0
LINE
  8
0
 10
236.203
 20
197.417
 11
236.627
 21
197.155
  0
LINE
  8
0
 10
236.627
 20
197.155
 11
236.995
 21
196.819
  0
LINE
  8
0
 10
236.995
 20
196.819
 11
237.296
 21
196.421
  0
LINE
  8
0
 10
237.296
 20
196.421
 11
237.518
 21
195.975
  0
LINE
  8
0
 10
237.518
 20
195.975
 11
237.654
 21
195.496
  0
LINE
  8
0
 10
237.654
 20
195.496
 11
237.7
 21
195
  0
LINE
  8
0
 10
237.7
 20
195
 11
237.654
 21
194.504
  0
LINE
  8
0
 10
237.654
 20
194.504
 11
237.518
 21
194.025
  0
LINE
  8
0
 10
237.518
 20
194.025
 11
237.296
 21
193.579
  0
LINE
  8
0
 10
237.296
 20
193.579
 11
236.995
 21
193.181
  0
LINE
  8
0
 10
236.995
 20
193.181
 11
236.627
 21
192.845
  0
LINE
  8
0
 10
236.627
 20
192.845
 11
236.203
 21
192.583
  0
LINE
  8
0
 10
236.203
 20
192.583
 11
235.739
 21
192.403
  0
LINE
  8
0
 10
235.739
 20
192.403
 11
235.249
 21
192.312
  0
LINE
  8
0
 10
235.249
 20
192.312
 11
234.751
 21
192.312
  0
LINE
  8
0
 10
226.95
 20
168
 11
226.95
 21
182
  0
LINE
  8
0
 10
226.95
 20
182
 11
227.05
 21
182
  0
LINE
  8
0
 10
227.05
 20
182
 11
231.05
 21
178
  0
LINE
  8
0
 10
231.05
 20
178
 11
231.05
 21
172
  0
LINE
  8
0
 10
231.05
 20
172
 11
227.05
 21
168
  0
LINE
  8
0
 10
227.05
 20
168
 11
226.95
 21
168
  0
LINE
  8
0
 10
242.95
 20
168
 11
238.95
 21
172
  0
LINE
  8
0
 10
238.95
 20
172
 11
238.95
 21
178
  0
LINE
  8
0
 10
238.95
 20
178
 11
242.95
 21
182
  0
LINE
  8
0
 10
242.95
 20
182
 11
243.05
 21
182
  0
LINE
  8
0
 10
243.05
 20
182
 11
243.05
 21
168
  0
LINE
  8
0
 10
243.05
 20
168
 11
242.95
 21
168
  0
LINE
  8
0
 10
234.751
 20
172.312
 11
234.261
 21
172.403
  0
LINE
  8
0
 10
234.261
 20
172.403
 11
233.797
 21
172.583
  0
LINE
  8
0
 10
233.797
 20
172.583
 11
233.373
 21
172.845
  0
LINE
  8
0
 10
233.373
 20
172.845
 11
233.005
 21
173.181
  0
LINE
  8
0
 10
233.005
 20
173.181
 11
232.704
 21
173.579
  0
LINE
  8
0
 10
232.704
 20
173.579
 11
232.482
 21
174.025
  0
LINE
  8
0
 10
232.482
 20
174.025
 11
232.346
 21
174.504
  0
LINE
  8
0
 10
232.346
 20
174.504
 11
232.3
 21
175
  0
LINE
  8
0
 10
232.3
 20
175
 11
232.346
 21
175.496
  0
LINE
  8
0
 10
232.346
 20
175.496
 11
232.482
 21
175.975
  0
LINE
  8
0
 10
232.482
 20
175.975
 11
232.704
 21
176.421
  0
LINE
  8
0
 10
232.704
 20
176.421
 11
233.005
 21
176.819
  0
LINE
  8
0
 10
233.005
 20
176.819
 11
233.373
 21
177.155
  0
LINE
  8
0
 10
233.373
 20
177.155
 11
233.797
 21
177.417
  0
LINE
  8
0
 10
233.797
 20
177.417
 11
234.261
 21
177.597
  0
LINE
  8
0
 10
234.261
 20
177.597
 11
234.751
 21
177.688
  0
LINE
  8
0
 10
234.751
 20
177.688
 11
235.249
 21
177.688
  0
LINE
  8
0
 10
235.249
 20
177.688
 11
235.739
 21
177.597
  0
LINE
  8
0
 10
235.739
 20
177.597
 11
236.203
 21
177.417
  0
LINE
  8
0
 10
236.203
 20
177.417
 11
236.627
 21
177.155
  0
LINE
  8
0
 10
236.627
 20
177.155
 11
236.995
 21
176.819
  0
LINE
  8
0
 10
236.995
 20
176.819
 11
237.296
 21
176.421
  0
LINE
  8
0
 10
237.296
 20
176.421
 11
237.518
 21
175.975
  0
LINE
  8
0
 10
237.518
 20
175.975
 11
237.654
 21
175.496
  0
LINE
  8
0
 10
237.654
 20
175.496
 11
237.7
 21
175
  0
LINE
  8
0
 10
237.7
 20
175
 11
237.654
 21
174.504
  0
LINE
  8
0
 10
237.654
 20
174.504
 11
237.518
 21
174.025
  0
LINE
  8
0
 10
237.518
 20
174.025
 11
237.296
 21
173.579
  0
LINE
  8
0
 10
237.296
 20
173.579
 11
236.995
 21
173.181
  0
LINE
  8
0
 10
236.995
 20
173.181
 11
236.627
 21
172.845
  0
LINE
  8
0
 10
236.627
 20
172.845
 11
236.203
 21
172.583
  0
LINE
  8
0
 10
236.203
 20
172.583
 11
235.739
 21
172.403
  0
LINE
  8
0
 10
235.739
 20
172.403
 11
235.249
 21
172.312
  0
LINE
  8
0
 10
235.249
 20
172.312
 11
234.751
 21
172.312
  0
LINE
  8
0
 10
228
 20
166.95
 11
228
 21
167.05
  0
LINE
  8
0
 10
228
 20
167.05
 11
232
 21
171.05
  0
LINE
  8
0
 10
232
 20
171.05
 11
238
 21
171.05
  0
LINE
  8
0
 10
238
 20
171.05
 11
242
 21
167.05
  0
LINE
  8
0
 10
242
 20
167.05
 11
242
 21
166.95
  0
LINE
  8
0
 10
242
 20
166.95
 11
228
 21
166.95
  0
LINE
  8
0
 10
135.658
 20
162.458
 11
140.184
 21
166.983
  0
LINE
  8
0
 10
140.184
 20
166.983
 11
166.983
 21
140.184
  0
LINE
  8
0
 10
166.983
 20
140.184
 11
162.458
 21
135.658
  0
LINE
  8
0
 10
162.458
 20
135.658
 11
135.658
 21
162.458
  0
LINE
  8
0
 10
189.399
 20
108.718
 11
193.924
 21
113.243
  0
LINE
  8
0
 10
193.924
 20
113.243
 11
220.723
 21
86.4438
  0
LINE
  8
0
 10
220.723
 20
86.4438
 11
216.198
 21
81.9183
  0
LINE
  8
0
 10
216.198
 20
81.9183
 11
189.399
 21
108.718
  0
LINE
  8
0
 10
245
 20
8.11922
 11
239.444
 21
2.56299
  0
LINE
  8
0
 10
239.444
 20
2.56299
 11
245
 21
2.56299
  0
LINE
  8
0
 10
245
 20
2.56299
 11
245
 21
8.11922
  0
LINE
  8
0
 10
108.718
 20
-189.399
 11
113.243
 21
-193.924
  0
LINE
  8
0
 10
113.243
 20
-193.924
 11
102.167
 21
-205
  0
LINE
  8
0
 10
102.167
 20
-205
 11
245
 21
-205
  0
LINE
  8
0
 10
245
 20
-205
 11
245
 21
-167.5
  0
LINE
  8
0
 10
245
 20
-167.5
 11
249.875
 21
-167.5
  0
LINE
  8
0
 10
249.875
 20
-167.5
 11
251.5
 21
-165.875
  0
LINE
  8
0
 10
251.5
 20
-165.875
 11
251.5
 21
-154.125
  0
LINE
  8
0
 10
251.5
 20
-154.125
 11
249.875
 21
-152.5
  0
LINE
  8
0
 10
249.875
 20
-152.5
 11
245
 21
-152.5
  0
LINE
  8
0
 10
245
 20
-152.5
 11
245
 21
-147.563
  0
LINE
  8
0
 10
245
 20
-147.563
 11
237.938
 21
-147.563
  0
LINE
  8
0
 10
237.938
 20
-147.563
 11
237.938
 21
-151.785
  0
LINE
  8
0
 10
237.938
 20
-151.785
 11
232.562
 21
-151.785
  0
LINE
  8
0
 10
232.562
 20
-151.785
 11
232.562
 21
-147.563
  0
LINE
  8
0
 10
232.562
 20
-147.563
 11
231.188
 21
-147.563
  0
LINE
  8
0
 10
231.188
 20
-147.563
 11
231.188
 21
-142.437
  0
LINE
  8
0
 10
231.188
 20
-142.437
 11
232.562
 21
-142.437
  0
LINE
  8
0
 10
232.562
 20
-142.437
 11
232.562
 21
-138.215
  0
LINE
  8
0
 10
232.562
 20
-138.215
 11
237.938
 21
-138.215
  0
LINE
  8
0
 10
237.938
 20
-138.215
 11
237.938
 21
-142.437
  0
LINE
  8
0
 10
237.938
 20
-142.437
 11
245
 21
-142.437
  0
LINE
  8
0
 10
245
 20
-142.437
 11
245
 21
-137.5
  0
LINE
  8
0
 10
245
 20
-137.5
 11
249.875
 21
-137.5
  0
LINE
  8
0
 10
249.875
 20
-137.5
 11
251.5
 21
-135.875
  0
LINE
  8
0
 10
251.5
 20
-135.875
 11
251.5
 21
-124.125
  0
LINE
  8
0
 10
251.5
 20
-124.125
 11
249.875
 21
-122.5
  0
LINE
  8
0
 10
249.875
 20
-122.5
 11
245
 21
-122.5
  0
LINE
  8
0
 10
245
 20
-122.5
 11
245
 21
-2.56299
  0
LINE
  8
0
 10
245
 20
-2.56299
 11
237.938
 21
-2.56299
  0
LINE
  8
0
 10
237.938
 20
-2.56299
 11
237.938
 21
-6.78519
  0
LINE
  8
0
 10
237.938
 20
-6.78519
 11
232.562
 21
-6.78519
  0
LINE
  8
0
 10
232.562
 20
-6.78519
 11
232.562
 21
-4.31827
  0
LINE
  8
0
 10
232.562
 20
-4.31827
 11
31.8808
 21
-205
  0
LINE
  8
0
 10
31.8808
 20
-205
 11
93.1162
 21
-205
  0
LINE
  8
0
 10
93.1162
 20
-205
 11
108.718
 21
-189.399
  0
LINE
  8
0
 10
189.399
 20
-108.718
 11
216.198
 21
-81.9183
  0
LINE
  8
0
 10
216.198
 20
-81.9183
 11
220.723
 21
-86.4438
  0
LINE
  8
0
 10
220.723
 20
-86.4438
 11
193.924
 21
-113.243
  0
LINE
  8
0
 10
193.924
 20
-113.243
 11
189.399
 21
-108.718
  0
LINE
  8
0
 10
135.658
 20
-162.458
 11
162.458
 21
-135.658
  0
LINE
  8
0
 10
162.458
 20
-135.658
 11
166.983
 21
-140.184
  0
LINE
  8
0
 10
166.983
 20
-140.184
 11
140.184
 21
-166.983
  0
LINE
  8
0
 10
140.184
 20
-166.983
 11
135.658
 21
-162.458
  0
LINE
  8
0
 10
232
 20
-171.05
 11
228
 21
-167.05
  0
LINE
  8
0
 10
228
 20
-167.05
 11
228
 21
-166.95
  0
LINE
  8
0
 10
228
 20
-166.95
 11
242
 21
-166.95
  0
LINE
  8
0
 10
242
 20
-166.95
 11
242
 21
-167.05
  0
LINE
  8
0
 10
242
 20
-167.05
 11
238
 21
-171.05
  0
LINE
  8
0
 10
238
 20
-171.05
 11
232
 21
-171.05
  0
LINE
  8
0
 10
242.95
 20
-182
 11
238.95
 21
-178
  0
LINE
  8
0
 10
238.95
 20
-178
 11
238.95
 21
-172
  0
LINE
  8
0
 10
238.95
 20
-172
 11
242.95
 21
-168
  0
LINE
  8
0
 10
242.95
 20
-168
 11
243.05
 21
-168
  0
LINE
  8
0
 10
243.05
 20
-168
 11
243.05
 21
-182
  0
LINE
  8
0
 10
243.05
 20
-182
 11
242.95
 21
-182
  0
LINE
  8
0
 10
226.95
 20
-182
 11
226.95
 21
-168
  0
LINE
  8
0
 10
226.95
 20
-168
 11
227.05
 21
-168
  0
LINE
  8
0
 10
227.05
 20
-168
 11
231.05
 21
-172
  0
LINE
  8
0
 10
231.05
 20
-172
 11
231.05
 21
-178
  0
LINE
  8
0
 10
231.05
 20
-178
 11
227.05
 21
-182
  0
LINE
  8
0
 10
227.05
 20
-182
 11
226.95
 21
-182
  0
LINE
  8
0
 10
234.751
 20
-177.688
 11
234.261
 21
-177.597
  0
LINE
  8
0
 10
234.261
 20
-177.597
 11
233.797
 21
-177.417
  0
LINE
  8
0
 10
233.797
 20
-177.417
 11
233.373
 21
-177.155
  0
LINE
  8
0
 10
233.373
 20
-177.155
 11
233.005
 21
-176.819
  0
LINE
  8
0
 10
233.005
 20
-176.819
 11
232.704
 21
-176.421
  0
LINE
  8
0
 10
232.704
 20
-176.421
 11
232.482
 21
-175.975
  0
LINE
  8
0
 10
232.482
 20
-175.975
 11
232.346
 21
-175.496
  0
LINE
  8
0
 10
232.346
 20
-175.496
 11
232.3
 21
-175
  0
LINE
  8
0
 10
232.3
 20
-175
 11
232.346
 21
-174.504
  0
LINE
  8
0
 10
232.346
 20
-174.504
 11
232.482
 21
-174.025
  0
LINE
  8
0
 10
232.482
 20
-174.025
 11
232.704
 21
-173.579
  0
LINE
  8
0
 10
232.704
 20
-173.579
 11
233.005
 21
-173.181
  0
LINE
  8
0
 10
233.005
 20
-173.181
 11
233.373
 21
-172.845
  0
LINE
  8
0
 10
233.373
 20
-172.845
 11
233.797
 21
-172.583
  0
LINE
  8
0
 10
233.797
 20
-172.583
 11
234.261
 21
-172.403
  0
LINE
  8
0
 10
234.261
 20
-172.403
 11
234.751
 21
-172.312
  0
LINE
  8
0
 10
234.751
 20
-172.312
 11
235.249
 21
-172.312
  0
LINE
  8
0
 10
235.249
 20
-172.312
 11
235.739
 21
-172.403
  0
LINE
  8
0
 10
235.739
 20
-172.403
 11
236.203
 21
-172.583
  0
LINE
  8
0
 10
236.203
 20
-172.583
 11
236.627
 21
-172.845
  0
LINE
  8
0
 10
236.627
 20
-172.845
 11
236.995
 21
-173.181
  0
LINE
  8
0
 10
236.995
 20
-173.181
 11
237.296
 21
-173.579
  0
LINE
  8
0
 10
237.296
 20
-173.579
 11
237.518
 21
-174.025
  0
LINE
  8
0
 10
237.518
 20
-174.025
 11
237.654
 21
-174.504
  0
LINE
  8
0
 10
237.654
 20
-174.504
 11
237.7
 21
-175
  0
LINE
  8
0
 10
237.7
 20
-175
 11
237.654
 21
-175.496
  0
LINE
  8
0
 10
237.654
 20
-175.496
 11
237.518
 21
-175.975
  0
LINE
  8
0
 10
237.518
 20
-175.975
 11
237.296
 21
-176.421
  0
LINE
  8
0
 10
237.296
 20
-176.421
 11
236.995
 21
-176.819
  0
LINE
  8
0
 10
236.995
 20
-176.819
 11
236.627
 21
-177.155
  0
LINE
  8
0
 10
236.627
 20
-177.155
 11
236.203
 21
-177.417
  0
LINE
  8
0
 10
236.203
 20
-177.417
 11
235.739
 21
-177.597
  0
LINE
  8
0
 10
235.739
 20
-177.597
 11
235.249
 21
-177.688
  0
LINE
  8
0
 10
235.249
 20
-177.688
 11
234.751
 21
-177.688
  0
LINE
  8
0
 10
226.95
 20
-202
 11
226.95
 21
-188
  0
LINE
  8
0
 10
226.95
 20
-188
 11
227.05
 21
-188
  0
LINE
  8
0
 10
227.05
 20
-188
 11
231.05
 21
-192
  0
LINE
  8
0
 10
231.05
 20
-192
 11
231.05
 21
-198
  0
LINE
  8
0
 10
231.05
 20
-198
 11
227.05
 21
-202
  0
LINE
  8
0
 10
227.05
 20
-202
 11
226.95
 21
-202
  0
LINE
  8
0
 10
242.95
 20
-202
 11
238.95
 21
-198
  0
LINE
  8
0
 10
238.95
 20
-198
 11
238.95
 21
-192
  0
LINE
  8
0
 10
238.95
 20
-192
 11
242.95
 21
-188
  0
LINE
  8
0
 10
242.95
 20
-188
 11
243.05
 21
-188
  0
LINE
  8
0
 10
243.05
 20
-188
 11
243.05
 21
-202
  0
LINE
  8
0
 10
243.05
 20
-202
 11
242.95
 21
-202
  0
LINE
  8
0
 10
234.751
 20
-197.688
 11
234.261
 21
-197.597
  0
LINE
  8
0
 10
234.261
 20
-197.597
 11
233.797
 21
-197.417
  0
LINE
  8
0
 10
233.797
 20
-197.417
 11
233.373
 21
-197.155
  0
LINE
  8
0
 10
233.373
 20
-197.155
 11
233.005
 21
-196.819
  0
LINE
  8
0
 10
233.005
 20
-196.819
 11
232.704
 21
-196.421
  0
LINE
  8
0
 10
232.704
 20
-196.421
 11
232.482
 21
-195.975
  0
LINE
  8
0
 10
232.482
 20
-195.975
 11
232.346
 21
-195.496
  0
LINE
  8
0
 10
232.346
 20
-195.496
 11
232.3
 21
-195
  0
LINE
  8
0
 10
232.3
 20
-195
 11
232.346
 21
-194.504
  0
LINE
  8
0
 10
232.346
 20
-194.504
 11
232.482
 21
-194.025
  0
LINE
  8
0
 10
232.482
 20
-194.025
 11
232.704
 21
-193.579
  0
LINE
  8
0
 10
232.704
 20
-193.579
 11
233.005
 21
-193.181
  0
LINE
  8
0
 10
233.005
 20
-193.181
 11
233.373
 21
-192.845
  0
LINE
  8
0
 10
233.373
 20
-192.845
 11
233.797
 21
-192.583
  0
LINE
  8
0
 10
233.797
 20
-192.583
 11
234.261
 21
-192.403
  0
LINE
  8
0
 10
234.261
 20
-192.403
 11
234.751
 21
-192.312
  0
LINE
  8
0
 10
234.751
 20
-192.312
 11
235.249
 21
-192.312
  0
LINE
  8
0
 10
235.249
 20
-192.312
 11
235.739
 21
-192.403
  0
LINE
  8
0
 10
235.739
 20
-192.403
 11
236.203
 21
-192.583
  0
LINE
  8
0
 10
236.203
 20
-192.583
 11
236.627
 21
-192.845
  0
LINE
  8
0
 10
236.627
 20
-192.845
 11
236.995
 21
-193.181
  0
LINE
  8
0
 10
236.995
 20
-193.181
 11
237.296
 21
-193.579
  0
LINE
  8
0
 10
237.296
 20
-193.579
 11
237.518
 21
-194.025
  0
LINE
  8
0
 10
237.518
 20
-194.025
 11
237.654
 21
-194.504
  0
LINE
  8
0
 10
237.654
 20
-194.504
 11
237.7
 21
-195
  0
LINE
  8
0
 10
237.7
 20
-195
 11
237.654
 21
-195.496
  0
LINE
  8
0
 10
237.654
 20
-195.496
 11
237.518
 21
-195.975
  0
LINE
  8
0
 10
237.518
 20
-195.975
 11
237.296
 21
-196.421
  0
LINE
  8
0
 10
237.296
 20
-196.421
 11
236.995
 21
-196.819
  0
LINE
  8
0
 10
236.995
 20
-196.819
 11
236.627
 21
-197.155
  0
LINE
  8
0
 10
236.627
 20
-197.155
 11
236.203
 21
-197.417
  0
LINE
  8
0
 10
236.203
 20
-197.417
 11
235.739
 21
-197.597
  0
LINE
  8
0
 10
235.739
 20
-197.597
 11
235.249
 21
-197.688
  0
LINE
  8
0
 10
235.249
 20
-197.688
 11
234.751
 21
-197.688
  0
LINE
  8
0
 10
228
 20
-203.05
 11
228
 21
-202.95
  0
LINE
  8
0
 10
228
 20
-202.95
 11
232
 21
-198.95
  0
LINE
  8
0
 10
232
 20
-198.95
 11
238
 21
-198.95
  0
LINE
  8
0
 10
238
 20
-198.95
 11
242
 21
-202.95
  0
LINE
  8
0
 10
242
 20
-202.95
 11
242
 21
-203.05
  0
LINE
  8
0
 10
242
 20
-203.05
 11
228
 21
-203.05
  0
LINE
  8
0
 10
-239.444
 20
-2.56299
 11
-245
 21
-2.56299
  0
LINE
  8
0
 10
-245
 20
-2.56299
 11
-245
 21
-8.11922
  0
LINE
  8
0
 10
-245
 20
-8.11922
 11
-239.444
 21
-2.56299
  0
LINE
  8
0
 10
-113.243
 20
-193.924
 11
-108.718
 21
-189.399
  0
LINE
  8
0
 10
-108.718
 20
-189.399
 11
-93.1162
 21
-205
  0
LINE
  8
0
 10
-93.1162
 20
-205
 11
-88.4493
 21
-205
  0
LINE
  8
0
 10
-88.4493
 20
-205
 11
-245
 21
-48.4493
  0
LINE
  8
0
 10
-245
 20
-48.4493
 11
-245
 21
-122.5
  0
LINE
  8
0
 10
-245
 20
-122.5
 11
-249.875
 21
-122.5
  0
LINE
  8
0
 10
-249.875
 20
-122.5
 11
-251.5
 21
-124.125
  0
LINE
  8
0
 10
-251.5
 20
-124.125
 11
-251.5
 21
-135.875
  0
LINE
  8
0
 10
-251.5
 20
-135.875
 11
-249.875
 21
-137.5
  0
LINE
  8
0
 10
-249.875
 20
-137.5
 11
-245
 21
-137.5
  0
LINE
  8
0
 10
-245
 20
-137.5
 11
-245
 21
-142.437
  0
LINE
  8
0
 10
-245
 20
-142.437
 11
-237.938
 21
-142.437
  0
LINE
  8
0
 10
-237.938
 20
-142.437
 11
-237.938
 21
-138.215
  0
LINE
  8
0
 10
-237.938
 20
-138.215
 11
-232.562
 21
-138.215
  0
LINE
  8
0
 10
-232.562
 20
-138.215
 11
-232.562
 21
-142.437
  0
LINE
  8
0
 10
-232.562
 20
-142.437
 11
-231.188
 21
-142.437
  0
LINE
  8
0
 10
-231.188
 20
-142.437
 11
-231.188
 21
-147.563
  0
LINE
  8
0
 10
-231.188
 20
-147.563
 11
-232.562
 21
-147.563
  0
LINE
  8
0
 10
-232.562
 20
-147.563
 11
-232.562
 21
-151.785
  0
LINE
  8
0
 10
-232.562
 20
-151.785
 11
-237.938
 21
-151.785
  0
LINE
  8
0
 10
-237.938
 20
-151.785
 11
-237.938
 21
-147.563
  0
LINE
  8
0
 10
-237.938
 20
-147.563
 11
-245
 21
-147.563
  0
LINE
  8
0
 10
-245
 20
-147.563
 11
-245
 21
-152.5
  0
LINE
  8
0
 10
-245
 20
-152.5
 11
-249.875
 21
-152.5
  0
LINE
  8
0
 10
-249.875
 20
-152.5
 11
-251.5
 21
-154.125
  0
LINE
  8
0
 10
-251.5
 20
-154.125
 11
-251.5
 21
-165.875
  0
LINE
  8
0
 10
-251.5
 20
-165.875
 11
-249.875
 21
-167.5
  0
LINE
  8
0
 10
-249.875
 20
-167.5
 11
-245
 21
-167.5
  0
LINE
  8
0
 10
-245
 20
-167.5
 11
-245
 21
-205
  0
LINE
  8
0
 10
-245
 20
-205
 11
-102.167
 21
-205
  0
LINE
  8
0
 10
-102.167
 20
-205
 11
-113.243
 21
-193.924
  0
LINE
  8
0
 10
-220.723
 20
-86.4438
 11
-216.198
 21
-81.9183
  0
LINE
  8
0
 10
-216.198
 20
-81.9183
 11
-189.399
 21
-108.718
  0
LINE
  8
0
 10
-189.399
 20
-108.718
 11
-193.924
 21
-113.243
  0
LINE
  8
0
 10
-193.924
 20
-113.243
 11
-220.723
 21
-86.4438
  0
LINE
  8
0
 10
-166.983
 20
-140.184
 11
-162.458
 21
-135.658
  0
LINE
  8
0
 10
-162.458
 20
-135.658
 11
-135.658
 21
-162.458
  0
LINE
  8
0
 10
-135.658
 20
-162.458
 11
-140.184
 21
-166.983
  0
LINE
  8
0
 10
-140.184
 20
-166.983
 11
-166.983
 21
-140.184
  0
LINE
  8
0
 10
-238
 20
-171.05
 11
-242
 21
-167.05
  0
LINE
  8
0
 10
-242
 20
-167.05
 11
-242
 21
-166.95
  0
LINE
  8
0
 10
-242
 20
-166.95
 11
-228
 21
-166.95
  0
LINE
  8
0
 10
-228
 20
-166.95
 11
-228
 21
-167.05
  0
LINE
  8
0
 10
-228
 20
-167.05
 11
-232
 21
-171.05
  0
LINE
  8
0
 10
-232
 20
-171.05
 11
-238
 21
-171.05
  0
LINE
  8
0
 10
-227.05
 20
-182
 11
-231.05
 21
-178
  0
LINE
  8
0
 10
-231.05
 20
-178
 11
-231.05
 21
-172
  0
LINE
  8
0
 10
-231.05
 20
-172
 11
-227.05
 21
-168
  0
LINE
  8
0
 10
-227.05
 20
-168
 11
-226.95
 21
-168
  0
LINE
  8
0
 10
-226.95
 20
-168
 11
-226.95
 21
-182
  0
LINE
  8
0
 10
-226.95
 20
-182
 11
-227.05
 21
-182
  0
LINE
  8
0
 10
-243.05
 20
-182
 11
-243.05
 21
-168
  0
LINE
  8
0
 10
-243.05
 20
-168
 11
-242.95
 21
-168
  0
LINE
  8
0
 10
-242.95
 20
-168
 11
-238.95
 21
-172
  0
LINE
  8
0
 10
-238.95
 20
-172
 11
-238.95
 21
-178
  0
LINE
  8
0
 10
-238.95
 20
-178
 11
-242.95
 21
-182
  0
LINE
  8
0
 10
-242.95
 20
-182
 11
-243.05
 21
-182
  0
LINE
  8
0
 10
-235.249
 20
-177.688
 11
-235.739
 21
-177.597
  0
LINE
  8
0
 10
-235.739
 20
-177.597
 11
-236.203
 21
-177.417
  0
LINE
  8
0
 10
-236.203
 20
-177.417
 11
-236.627
 21
-177.155
  0
LINE
  8
0
 10
-236.627
 20
-177.155
 11
-236.995
 21
-176.819
  0
LINE
  8
0
 10
-236.995
 20
-176.819
 11
-237.296
 21
-176.421
  0
LINE
  8
0
 10
-237.296
 20
-176.421
 11
-237.518
 21
-175.975
  0
LINE
  8
0
 10
-237.518
 20
-175.975
 11
-237.654
 21
-175.496
  0
LINE
  8
0
 10
-237.654
 20
-175.496
 11
-237.7
 21
-175
  0
LINE
  8
0
 10
-237.7
 20
-175
 11
-237.654
 21
-174.504
  0
LINE
  8
0
 10
-237.654
 20
-174.504
 11
-237.518
 21
-174.025
  0
LINE
  8
0
 10
-237.518
 20
-174.025
 11
-237.296
 21
-173.579
  0
LINE
  8
0
 10
-237.296
 20
-173.579
 11
-236.995
 21
-173.181
  0
LINE
  8
0
 10
-236.995
 20
-173.181
 11
-236.627
 21
-172.845
  0
LINE
  8
0
 10
-236.627
 20
-172.845
 11
-236.203
 21
-172.583
  0
LINE
  8
0
 10
-236.203
 20
-172.583
 11
-235.739
 21
-172.403
  0
LINE
  8
0
 10
-235.739
 20
-172.403
 11
-235.249
 21
-172.312
  0
LINE
  8
0
 10
-235.249
 20
-172.312
 11
-234.751
 21
-172.312
  0
LINE
  8
0
 10
-234.751
 20
-172.312
 11
-234.261
 21
-172.403
  0
LINE
  8
0
 10
-234.261
 20
-172.403
 11
-233.797
 21
-172.583
  0
LINE
  8
0
 10
-233.797
 20
-172.583
 11
-233.373
 21
-172.845
  0
LINE
  8
0
 10
-233.373
 20
-172.845
 11
-233.005
 21
-173.181
  0
LINE
  8
0
 10
-233.005
 20
-173.181
 11
-232.704
 21
-173.579
  0
LINE
  8
0
 10
-232.704
 20
-173.579
 11
-232.482
 21
-174.025
  0
LINE
  8
0
 10
-232.482
 20
-174.025
 11
-232.346
 21
-174.504
  0
LINE
  8
0
 10
-232.346
 20
-174.504
 11
-232.3
 21
-175
  0
LINE
  8
0
 10
-232.3
 20
-175
 11
-232.346
 21
-175.496
  0
LINE
  8
0
 10
-232.346
 20
-175.496
 11
-232.482
 21
-175.975
  0
LINE
  8
0
 10
-232.482
 20
-175.975
 11
-232.704
 21
-176.421
  0
LINE
  8
0
 10
-232.704
 20
-176.421
 11
-233.005
 21
-176.819
  0
LINE
  8
0
 10
-233.005
 20
-176.819
 11
-233.373
 21
-177.155
  0
LINE
  8
0
 10
-233.373
 20
-177.155
 11
-233.797
 21
-177.417
  0
LINE
  8
0
 10
-233.797
 20
-177.417
 11
-234.261
 21
-177.597
  0
LINE
  8
0
 10
-234.261
 20
-177.597
 11
-234.751
 21
-177.688
  0
LINE
  8
0
 10
-234.751
 20
-177.688
 11
-235.249
 21
-177.688
  0
LINE
  8
0
 10
-243.05
 20
-202
 11
-243.05
 21
-188
  0
LINE
  8
0
 10
-243.05
 20
-188
 11
-242.95
 21
-188
  0
LINE
  8
0
 10
-242.95
 20
-188
 11
-238.95
 21
-192
  0
LINE
  8
0
 10
-238.95
 20
-192
 11
-238.95
 21
-198
  0
LINE
  8
0
 10
-238.95
 20
-198
 11
-242.95
 21
-202
  0
LINE
  8
0
 10
-242.95
 20
-202
 11
-243.05
 21
-202
  0
LINE
  8
0
 10
-227.05
 20
-202
 11
-231.05
 21
-198
  0
LINE
  8
0
 10
-231.05
 20
-198
 11
-231.05
 21
-192
  0
LINE
  8
0
 10
-231.05
 20
-192
 11
-227.05
 21
-188
  0
LINE
  8
0
 10
-227.05
 20
-188
 11
-226.95
 21
-188
  0
LINE
  8
0
 10
-226.95
 20
-188
 11
-226.95
 21
-202
  0
LINE
  8
0
 10
-226.95
 20
-202
 11
-227.05
 21
-202
  0
LINE
  8
0
 10
-235.249
 20
-197.688
 11
-235.739
 21
-197.597
  0
LINE
  8
0
 10
-235.739
 20
-197.597
 11
-236.203
 21
-197.417
  0
LINE
  8
0
 10
-236.203
 20
-197.417
 11
-236.627
 21
-197.155
  0
LINE
  8
0
 10
-236.627
 20
-197.155
 11
-236.995
 21
-196.819
  0
LINE
  8
0
 10
-236.995
 20
-196.819
 11
-237.296
 21
-196.421
  0
LINE
  8
0
 10
-237.296
 20
-196.421
 11
-237.518
 21
-195.975
  0
LINE
  8
0
 10
-237.518
 20
-195.975
 11
-237.654
 21
-195.496
  0
LINE
  8
0
 10
-237.654
 20
-195.496
 11
-237.7
 21
-195
  0
LINE
  8
0
 10
-237.7
 20
-195
 11
-237.654
 21
-194.504
  0
LINE
  8
0
 10
-237.654
 20
-194.504
 11
-237.518
 21
-194.025
  0
LINE
  8
0
 10
-237.518
 20
-194.025
 11
-237.296
 21
-193.579
  0
LINE
  8
0
 10
-237.296
 20
-193.579
 11
-236.995
 21
-193.181
  0
LINE
  8
0
 10
-236.995
 20
-193.181
 11
-236.627
 21
-192.845
  0
LINE
  8
0
 10
-236.627
 20
-192.845
 11
-236.203
 21
-192.583
  0
LINE
  8
0
 10
-236.203
 20
-192.583
 11
-235.739
 21
-192.403
  0
LINE
  8
0
 10
-235.739
 20
-192.403
 11
-235.249
 21
-192.312
  0
LINE
  8
0
 10
-235.249
 20
-192.312
 11
-234.751
 21
-192.312
  0
LINE
  8
0
 10
-234.751
 20
-192.312
 11
-234.261
 21
-192.403
  0
LINE
  8
0
 10
-234.261
 20
-192.403
 11
-233.797
 21
-192.583
  0
LINE
  8
0
 10
-233.797
 20
-192.583
 11
-233.373
 21
-192.845
  0
LINE
  8
0
 10
-233.373
 20
-192.845
 11
-233.005
 21
-193.181
  0
LINE
  8
0
 10
-233.005
 20
-193.181
 11
-232.704
 21
-193.579
  0
LINE
  8
0
 10
-232.704
 20
-193.579
 11
-232.482
 21
-194.025
  0
LINE
  8
0
 10
-232.482
 20
-194.025
 11
-232.346
 21
-194.504
  0
LINE
  8
0
 10
-232.346
 20
-194.504
 11
-232.3
 21
-195
  0
LINE
  8
0
 10
-232.3
 20
-195
 11
-232.346
 21
-195.496
  0
LINE
  8
0
 10
-232.346
 20
-195.496
 11
-232.482
 21
-195.975
  0
LINE
  8
0
 10
-232.482
 20
-195.975
 11
-232.704
 21
-196.421
  0
LINE
  8
0
 10
-232.704
 20
-196.421
 11
-233.005
 21
-196.819
  0
LINE
  8
0
 10
-233.005
 20
-196.819
 11
-233.373
 21
-197.155
  0
LINE
  8
0
 10
-233.373
 20
-197.155
 11
-233.797
 21
-197.417
  0
LINE
  8
0
 10
-233.797
 20
-197.417
 11
-234.261
 21
-197.597
  0
LINE
  8
0
 10
-234.261
 20
-197.597
 11
-234.751
 21
-197.688
  0
LINE
  8
0
 10
-234.751
 20
-197.688
 11
-235.249
 21
-197.688
  0
LINE
  8
0
 10
-242
 20
-203.05
 11
-242
 21
-202.95
  0
LINE
  8
0
 10
-242
 20
-202.95
 11
-238
 21
-198.95
  0
LINE
  8
0
 10
-238
 20
-198.95
 11
-232
 21
-198.95
  0
LINE
  8
0
 10
-232
 20
-198.95
 11
-228
 21
-202.95
  0
LINE
  8
0
 10
-228
 20
-202.95
 11
-228
 21
-203.05
  0
LINE
  8
0
 10
-228
 20
-203.05
 11
-242
 21
-203.05
  0
LINE
  8
0
 10
137.5
 20
-249.875
 11
137.5
 21
-238.5
  0
LINE
  8
0
 10
137.5
 20
-238.5
 11
122.5
 21
-238.5
  0
LINE
  8
0
 10
122.5
 20
-238.5
 11
122.5
 21
-249.875
  0
LINE
  8
0
 10
122.5
 20
-249.875
 11
124.125
 21
-251.5
  0
LINE
  8
0
 10
124.125
 20
-251.5
 11
135.875
 21
-251.5
  0
LINE
  8
0
 10
135.875
 20
-251.5
 11
137.5
 21
-249.875
  0
LINE
  8
0
 10
-122.5
 20
-249.875
 11
-122.5
 21
-238.5
  0
LINE
  8
0
 10
-122.5
 20
-238.5
 11
-137.5
 21
-238.5
  0
LINE
  8
0
 10
-137.5
 20
-238.5
 11
-137.5
 21
-249.875
  0
LINE
  8
0
 10
-137.5
 20
-249.875
 11
-135.875
 21
-251.5
  0
LINE
  8
0
 10
-135.875
 20
-251.5
 11
-124.125
 21
-251.5
  0
LINE
  8
0
 10
-124.125
 20
-251.5
 11
-122.5
 21
-249.875
  0
LINE
  8
0
 10
-152.5
 20
-249.875
 11
-152.5
 21
-238.5
  0
LINE
  8
0
 10
-152.5
 20
-238.5
 11
-167.5
 21
-238.5
  0
LINE
  8
0
 10
-167.5
 20
-238.5
 11
-167.5
 21
-249.875
  0
LINE
  8
0
 10
-167.5
 20
-249.875
 11
-165.875
 21
-251.5
  0
LINE
  8
0
 10
-165.875
 20
-251.5
 11
-154.125
 21
-251.5
  0
LINE
  8
0
 10
-154.125
 20
-251.5
 11
-152.5
 21
-249.875
  0
LINE
  8
0
 10
167.5
 20
-249.875
 11
167.5
 21
-238.5
  0
LINE
  8
0
 10
167.5
 20
-238.5
 11
152.5
 21
-238.5
  0
LINE
  8
0
 10
152.5
 20
-238.5
 11
152.5
 21
-249.875
  0
LINE
  8
0
 10
152.5
 20
-249.875
 11
154.125
 21
-251.5
  0
LINE
  8
0
 10
154.125
 20
-251.5
 11
165.875
 21
-251.5
  0
LINE
  8
0
 10
165.875
 20
-251.5
 11
167.5
 21
-249.875
  0
ENDSEC
  0
SECTION
  2
OBJECTS
  0
DICTIONARY
  0
ENDSEC
  0
EOF
