  0
SECTION
  2
BLOCKS
  0
ENDSEC
  0
SECTION
  2
ENTITIES
  0
LINE
  8
0
 10
-78.0455
 20
220
 11
-122.5
 21
220
  0
LINE
  8
0
 10
-122.5
 20
220
 11
-122.5
 21
224.875
  0
LINE
  8
0
 10
-122.5
 20
224.875
 11
-124.125
 21
226.5
  0
LINE
  8
0
 10
-124.125
 20
226.5
 11
-135.875
 21
226.5
  0
LINE
  8
0
 10
-135.875
 20
226.5
 11
-137.5
 21
224.875
  0
LINE
  8
0
 10
-137.5
 20
224.875
 11
-137.5
 21
220
  0
LINE
  8
0
 10
-137.5
 20
220
 11
-142.437
 21
220
  0
LINE
  8
0
 10
-142.437
 20
220
 11
-142.437
 21
212.938
  0
LINE
  8
0
 10
-142.437
 20
212.938
 11
-140.3
 21
212.938
  0
LINE
  8
0
 10
-140.3
 20
212.938
 11
-140.3
 21
207.562
  0
LINE
  8
0
 10
-140.3
 20
207.562
 11
-142.437
 21
207.562
  0
LINE
  8
0
 10
-142.437
 20
207.562
 11
-142.437
 21
206.188
  0
LINE
  8
0
 10
-142.437
 20
206.188
 11
-147.563
 21
206.188
  0
LINE
  8
0
 10
-147.563
 20
206.188
 11
-147.563
 21
207.562
  0
LINE
  8
0
 10
-147.563
 20
207.562
 11
-149.7
 21
207.562
  0
LINE
  8
0
 10
-149.7
 20
207.562
 11
-149.7
 21
212.938
  0
LINE
  8
0
 10
-149.7
 20
212.938
 11
-147.563
 21
212.938
  0
LINE
  8
0
 10
-147.563
 20
212.938
 11
-147.563
 21
220
  0
LINE
  8
0
 10
-147.563
 20
220
 11
-152.5
 21
220
  0
LINE
  8
0
 10
-152.5
 20
220
 11
-152.5
 21
224.875
  0
LINE
  8
0
 10
-152.5
 20
224.875
 11
-154.125
 21
226.5
  0
LINE
  8
0
 10
-154.125
 20
226.5
 11
-165.875
 21
226.5
  0
LINE
  8
0
 10
-165.875
 20
226.5
 11
-167.5
 21
224.875
  0
LINE
  8
0
 10
-167.5
 20
224.875
 11
-167.5
 21
220
  0
LINE
  8
0
 10
-167.5
 20
220
 11
-245
 21
220
  0
LINE
  8
0
 10
-245
 20
220
 11
-245
 21
142.5
  0
LINE
  8
0
 10
-245
 20
142.5
 11
-249.875
 21
142.5
  0
LINE
  8
0
 10
-249.875
 20
142.5
 11
-251.5
 21
140.875
  0
LINE
  8
0
 10
-251.5
 20
140.875
 11
-251.5
 21
129.125
  0
LINE
  8
0
 10
-251.5
 20
129.125
 11
-249.875
 21
127.5
  0
LINE
  8
0
 10
-249.875
 20
127.5
 11
-245
 21
127.5
  0
LINE
  8
0
 10
-245
 20
127.5
 11
-245
 21
122.563
  0
LINE
  8
0
 10
-245
 20
122.563
 11
-237.938
 21
122.563
  0
LINE
  8
0
 10
-237.938
 20
122.563
 11
-237.938
 21
124.7
  0
LINE
  8
0
 10
-237.938
 20
124.7
 11
-232.562
 21
124.7
  0
LINE
  8
0
 10
-232.562
 20
124.7
 11
-232.562
 21
122.563
  0
LINE
  8
0
 10
-232.562
 20
122.563
 11
-231.188
 21
122.563
  0
LINE
  8
0
 10
-231.188
 20
122.563
 11
-231.188
 21
117.437
  0
LINE
  8
0
 10
-231.188
 20
117.437
 11
-232.562
 21
117.437
  0
LINE
  8
0
 10
-232.562
 20
117.437
 11
-232.562
 21
115.3
  0
LINE
  8
0
 10
-232.562
 20
115.3
 11
-237.938
 21
115.3
  0
LINE
  8
0
 10
-237.938
 20
115.3
 11
-237.938
 21
117.437
  0
LINE
  8
0
 10
-237.938
 20
117.437
 11
-245
 21
117.437
  0
LINE
  8
0
 10
-245
 20
117.437
 11
-245
 21
112.5
  0
LINE
  8
0
 10
-245
 20
112.5
 11
-249.875
 21
112.5
  0
LINE
  8
0
 10
-249.875
 20
112.5
 11
-251.5
 21
110.875
  0
LINE
  8
0
 10
-251.5
 20
110.875
 11
-251.5
 21
99.125
  0
LINE
  8
0
 10
-251.5
 20
99.125
 11
-249.875
 21
97.5
  0
LINE
  8
0
 10
-249.875
 20
97.5
 11
-245
 21
97.5
  0
LINE
  8
0
 10
-245
 20
97.5
 11
-245
 21
53.0455
  0
LINE
  8
0
 10
-245
 20
53.0455
 11
-78.0455
 21
220
  0
LINE
  8
0
 10
-238
 20
213.95
 11
-242
 21
217.95
  0
LINE
  8
0
 10
-242
 20
217.95
 11
-242
 21
218.05
  0
LINE
  8
0
 10
-242
 20
218.05
 11
-228
 21
218.05
  0
LINE
  8
0
 10
-228
 20
218.05
 11
-228
 21
217.95
  0
LINE
  8
0
 10
-228
 20
217.95
 11
-232
 21
213.95
  0
LINE
  8
0
 10
-232
 20
213.95
 11
-238
 21
213.95
  0
LINE
  8
0
 10
-227.05
 20
203
 11
-231.05
 21
207
  0
LINE
  8
0
 10
-231.05
 20
207
 11
-231.05
 21
213
  0
LINE
  8
0
 10
-231.05
 20
213
 11
-227.05
 21
217
  0
LINE
  8
0
 10
-227.05
 20
217
 11
-226.95
 21
217
  0
LINE
  8
0
 10
-226.95
 20
217
 11
-226.95
 21
214.25
  0
LINE
  8
0
 10
-226.95
 20
214.25
 11
-223
 21
214.25
  0
LINE
  8
0
 10
-223
 20
214.25
 11
-223
 21
205.75
  0
LINE
  8
0
 10
-223
 20
205.75
 11
-226.95
 21
205.75
  0
LINE
  8
0
 10
-226.95
 20
205.75
 11
-226.95
 21
203
  0
LINE
  8
0
 10
-226.95
 20
203
 11
-227.05
 21
203
  0
LINE
  8
0
 10
-243.05
 20
203
 11
-243.05
 21
217
  0
LINE
  8
0
 10
-243.05
 20
217
 11
-242.95
 21
217
  0
LINE
  8
0
 10
-242.95
 20
217
 11
-238.95
 21
213
  0
LINE
  8
0
 10
-238.95
 20
213
 11
-238.95
 21
207
  0
LINE
  8
0
 10
-238.95
 20
207
 11
-242.95
 21
203
  0
LINE
  8
0
 10
-242.95
 20
203
 11
-243.05
 21
203
  0
LINE
  8
0
 10
-124.203
 20
192.156
 11
-101.647
 21
214.713
  0
LINE
  8
0
 10
-101.647
 20
214.713
 11
-97.1211
 21
210.187
  0
LINE
  8
0
 10
-97.1211
 20
210.187
 11
-119.678
 21
187.631
  0
LINE
  8
0
 10
-119.678
 20
187.631
 11
-124.203
 21
192.156
  0
LINE
  8
0
 10
-214
 20
205.75
 11
-214
 21
214.25
  0
LINE
  8
0
 10
-214
 20
214.25
 11
-210
 21
214.25
  0
LINE
  8
0
 10
-210
 20
214.25
 11
-210
 21
205.75
  0
LINE
  8
0
 10
-210
 20
205.75
 11
-214
 21
205.75
  0
LINE
  8
0
 10
-235.249
 20
207.312
 11
-235.739
 21
207.403
  0
LINE
  8
0
 10
-235.739
 20
207.403
 11
-236.203
 21
207.583
  0
LINE
  8
0
 10
-236.203
 20
207.583
 11
-236.627
 21
207.845
  0
LINE
  8
0
 10
-236.627
 20
207.845
 11
-236.995
 21
208.181
  0
LINE
  8
0
 10
-236.995
 20
208.181
 11
-237.296
 21
208.579
  0
LINE
  8
0
 10
-237.296
 20
208.579
 11
-237.518
 21
209.025
  0
LINE
  8
0
 10
-237.518
 20
209.025
 11
-237.654
 21
209.504
  0
LINE
  8
0
 10
-237.654
 20
209.504
 11
-237.7
 21
210
  0
LINE
  8
0
 10
-237.7
 20
210
 11
-237.654
 21
210.496
  0
LINE
  8
0
 10
-237.654
 20
210.496
 11
-237.518
 21
210.975
  0
LINE
  8
0
 10
-237.518
 20
210.975
 11
-237.296
 21
211.421
  0
LINE
  8
0
 10
-237.296
 20
211.421
 11
-236.995
 21
211.819
  0
LINE
  8
0
 10
-236.995
 20
211.819
 11
-236.627
 21
212.155
  0
LINE
  8
0
 10
-236.627
 20
212.155
 11
-236.203
 21
212.417
  0
LINE
  8
0
 10
-236.203
 20
212.417
 11
-235.739
 21
212.597
  0
LINE
  8
0
 10
-235.739
 20
212.597
 11
-235.249
 21
212.688
  0
LINE
  8
0
 10
-235.249
 20
212.688
 11
-234.751
 21
212.688
  0
LINE
  8
0
 10
-234.751
 20
212.688
 11
-234.261
 21
212.597
  0
LINE
  8
0
 10
-234.261
 20
212.597
 11
-233.797
 21
212.417
  0
LINE
  8
0
 10
-233.797
 20
212.417
 11
-233.373
 21
212.155
  0
LINE
  8
0
 10
-233.373
 20
212.155
 11
-233.005
 21
211.819
  0
LINE
  8
0
 10
-233.005
 20
211.819
 11
-232.704
 21
211.421
  0
LINE
  8
0
 10
-232.704
 20
211.421
 11
-232.482
 21
210.975
  0
LINE
  8
0
 10
-232.482
 20
210.975
 11
-232.346
 21
210.496
  0
LINE
  8
0
 10
-232.346
 20
210.496
 11
-232.3
 21
210
  0
LINE
  8
0
 10
-232.3
 20
210
 11
-232.346
 21
209.504
  0
LINE
  8
0
 10
-232.346
 20
209.504
 11
-232.482
 21
209.025
  0
LINE
  8
0
 10
-232.482
 20
209.025
 11
-232.704
 21
208.579
  0
LINE
  8
0
 10
-232.704
 20
208.579
 11
-233.005
 21
208.181
  0
LINE
  8
0
 10
-233.005
 20
208.181
 11
-233.373
 21
207.845
  0
LINE
  8
0
 10
-233.373
 20
207.845
 11
-233.797
 21
207.583
  0
LINE
  8
0
 10
-233.797
 20
207.583
 11
-234.261
 21
207.403
  0
LINE
  8
0
 10
-234.261
 20
207.403
 11
-234.751
 21
207.312
  0
LINE
  8
0
 10
-234.751
 20
207.312
 11
-235.249
 21
207.312
  0
LINE
  8
0
 10
-227.05
 20
183
 11
-231.05
 21
187
  0
LINE
  8
0
 10
-231.05
 20
187
 11
-231.05
 21
193
  0
LINE
  8
0
 10
-231.05
 20
193
 11
-227.05
 21
197
  0
LINE
  8
0
 10
-227.05
 20
197
 11
-226.95
 21
197
  0
LINE
  8
0
 10
-226.95
 20
197
 11
-226.95
 21
183
  0
LINE
  8
0
 10
-226.95
 20
183
 11
-227.05
 21
183
  0
LINE
  8
0
 10
-243.05
 20
183
 11
-243.05
 21
197
  0
LINE
  8
0
 10
-243.05
 20
197
 11
-242.95
 21
197
  0
LINE
  8
0
 10
-242.95
 20
197
 11
-238.95
 21
193
  0
LINE
  8
0
 10
-238.95
 20
193
 11
-238.95
 21
187
  0
LINE
  8
0
 10
-238.95
 20
187
 11
-242.95
 21
183
  0
LINE
  8
0
 10
-242.95
 20
183
 11
-243.05
 21
183
  0
LINE
  8
0
 10
-235.249
 20
187.312
 11
-235.739
 21
187.403
  0
LINE
  8
0
 10
-235.739
 20
187.403
 11
-236.203
 21
187.583
  0
LINE
  8
0
 10
-236.203
 20
187.583
 11
-236.627
 21
187.845
  0
LINE
  8
0
 10
-236.627
 20
187.845
 11
-236.995
 21
188.181
  0
LINE
  8
0
 10
-236.995
 20
188.181
 11
-237.296
 21
188.579
  0
LINE
  8
0
 10
-237.296
 20
188.579
 11
-237.518
 21
189.025
  0
LINE
  8
0
 10
-237.518
 20
189.025
 11
-237.654
 21
189.504
  0
LINE
  8
0
 10
-237.654
 20
189.504
 11
-237.7
 21
190
  0
LINE
  8
0
 10
-237.7
 20
190
 11
-237.654
 21
190.496
  0
LINE
  8
0
 10
-237.654
 20
190.496
 11
-237.518
 21
190.975
  0
LINE
  8
0
 10
-237.518
 20
190.975
 11
-237.296
 21
191.421
  0
LINE
  8
0
 10
-237.296
 20
191.421
 11
-236.995
 21
191.819
  0
LINE
  8
0
 10
-236.995
 20
191.819
 11
-236.627
 21
192.155
  0
LINE
  8
0
 10
-236.627
 20
192.155
 11
-236.203
 21
192.417
  0
LINE
  8
0
 10
-236.203
 20
192.417
 11
-235.739
 21
192.597
  0
LINE
  8
0
 10
-235.739
 20
192.597
 11
-235.249
 21
192.688
  0
LINE
  8
0
 10
-235.249
 20
192.688
 11
-234.751
 21
192.688
  0
LINE
  8
0
 10
-234.751
 20
192.688
 11
-234.261
 21
192.597
  0
LINE
  8
0
 10
-234.261
 20
192.597
 11
-233.797
 21
192.417
  0
LINE
  8
0
 10
-233.797
 20
192.417
 11
-233.373
 21
192.155
  0
LINE
  8
0
 10
-233.373
 20
192.155
 11
-233.005
 21
191.819
  0
LINE
  8
0
 10
-233.005
 20
191.819
 11
-232.704
 21
191.421
  0
LINE
  8
0
 10
-232.704
 20
191.421
 11
-232.482
 21
190.975
  0
LINE
  8
0
 10
-232.482
 20
190.975
 11
-232.346
 21
190.496
  0
LINE
  8
0
 10
-232.346
 20
190.496
 11
-232.3
 21
190
  0
LINE
  8
0
 10
-232.3
 20
190
 11
-232.346
 21
189.504
  0
LINE
  8
0
 10
-232.346
 20
189.504
 11
-232.482
 21
189.025
  0
LINE
  8
0
 10
-232.482
 20
189.025
 11
-232.704
 21
188.579
  0
LINE
  8
0
 10
-232.704
 20
188.579
 11
-233.005
 21
188.181
  0
LINE
  8
0
 10
-233.005
 20
188.181
 11
-233.373
 21
187.845
  0
LINE
  8
0
 10
-233.373
 20
187.845
 11
-233.797
 21
187.583
  0
LINE
  8
0
 10
-233.797
 20
187.583
 11
-234.261
 21
187.403
  0
LINE
  8
0
 10
-234.261
 20
187.403
 11
-234.751
 21
187.312
  0
LINE
  8
0
 10
-234.751
 20
187.312
 11
-235.249
 21
187.312
  0
LINE
  8
0
 10
-242
 20
181.95
 11
-242
 21
182.05
  0
LINE
  8
0
 10
-242
 20
182.05
 11
-238
 21
186.05
  0
LINE
  8
0
 10
-238
 20
186.05
 11
-232
 21
186.05
  0
LINE
  8
0
 10
-232
 20
186.05
 11
-228
 21
182.05
  0
LINE
  8
0
 10
-228
 20
182.05
 11
-228
 21
181.95
  0
LINE
  8
0
 10
-228
 20
181.95
 11
-242
 21
181.95
  0
LINE
  8
0
 10
-169.458
 20
146.901
 11
-159.992
 21
156.367
  0
LINE
  8
0
 10
-159.992
 20
156.367
 11
-160.735
 21
157.11
  0
LINE
  8
0
 10
-160.735
 20
157.11
 11
-157.11
 21
160.735
  0
LINE
  8
0
 10
-157.11
 20
160.735
 11
-156.367
 21
159.992
  0
LINE
  8
0
 10
-156.367
 20
159.992
 11
-146.901
 21
169.458
  0
LINE
  8
0
 10
-146.901
 20
169.458
 11
-142.376
 21
164.933
  0
LINE
  8
0
 10
-142.376
 20
164.933
 11
-151.842
 21
155.467
  0
LINE
  8
0
 10
-151.842
 20
155.467
 11
-151.1
 21
154.724
  0
LINE
  8
0
 10
-151.1
 20
154.724
 11
-154.724
 21
151.1
  0
LINE
  8
0
 10
-154.724
 20
151.1
 11
-155.467
 21
151.842
  0
LINE
  8
0
 10
-155.467
 20
151.842
 11
-164.933
 21
142.376
  0
LINE
  8
0
 10
-164.933
 20
142.376
 11
-169.458
 21
146.901
  0
LINE
  8
0
 10
-214.713
 20
101.647
 11
-192.156
 21
124.203
  0
LINE
  8
0
 10
-192.156
 20
124.203
 11
-187.631
 21
119.678
  0
LINE
  8
0
 10
-187.631
 20
119.678
 11
-210.187
 21
97.1211
  0
LINE
  8
0
 10
-210.187
 20
97.1211
 11
-214.713
 21
101.647
  0
LINE
  8
0
 10
245
 20
97.5
 11
249.875
 21
97.5
  0
LINE
  8
0
 10
249.875
 20
97.5
 11
251.5
 21
99.125
  0
LINE
  8
0
 10
251.5
 20
99.125
 11
251.5
 21
110.875
  0
LINE
  8
0
 10
251.5
 20
110.875
 11
249.875
 21
112.5
  0
LINE
  8
0
 10
249.875
 20
112.5
 11
245
 21
112.5
  0
LINE
  8
0
 10
245
 20
112.5
 11
245
 21
117.437
  0
LINE
  8
0
 10
245
 20
117.437
 11
237.938
 21
117.437
  0
LINE
  8
0
 10
237.938
 20
117.437
 11
237.938
 21
115.3
  0
LINE
  8
0
 10
237.938
 20
115.3
 11
232.562
 21
115.3
  0
LINE
  8
0
 10
232.562
 20
115.3
 11
232.562
 21
117.437
  0
LINE
  8
0
 10
232.562
 20
117.437
 11
231.188
 21
117.437
  0
LINE
  8
0
 10
231.188
 20
117.437
 11
231.188
 21
122.563
  0
LINE
  8
0
 10
231.188
 20
122.563
 11
232.562
 21
122.563
  0
LINE
  8
0
 10
232.562
 20
122.563
 11
232.562
 21
124.7
  0
LINE
  8
0
 10
232.562
 20
124.7
 11
237.938
 21
124.7
  0
LINE
  8
0
 10
237.938
 20
124.7
 11
237.938
 21
122.563
  0
LINE
  8
0
 10
237.938
 20
122.563
 11
245
 21
122.563
  0
LINE
  8
0
 10
245
 20
122.563
 11
245
 21
127.5
  0
LINE
  8
0
 10
245
 20
127.5
 11
249.875
 21
127.5
  0
LINE
  8
0
 10
249.875
 20
127.5
 11
251.5
 21
129.125
  0
LINE
  8
0
 10
251.5
 20
129.125
 11
251.5
 21
140.875
  0
LINE
  8
0
 10
251.5
 20
140.875
 11
249.875
 21
142.5
  0
LINE
  8
0
 10
249.875
 20
142.5
 11
245
 21
142.5
  0
LINE
  8
0
 10
245
 20
142.5
 11
245
 21
220
  0
LINE
  8
0
 10
245
 20
220
 11
167.5
 21
220
  0
LINE
  8
0
 10
167.5
 20
220
 11
167.5
 21
224.875
  0
LINE
  8
0
 10
167.5
 20
224.875
 11
165.875
 21
226.5
  0
LINE
  8
0
 10
165.875
 20
226.5
 11
154.125
 21
226.5
  0
LINE
  8
0
 10
154.125
 20
226.5
 11
152.5
 21
224.875
  0
LINE
  8
0
 10
152.5
 20
224.875
 11
152.5
 21
220
  0
LINE
  8
0
 10
152.5
 20
220
 11
147.563
 21
220
  0
LINE
  8
0
 10
147.563
 20
220
 11
147.563
 21
212.938
  0
LINE
  8
0
 10
147.563
 20
212.938
 11
149.7
 21
212.938
  0
LINE
  8
0
 10
149.7
 20
212.938
 11
149.7
 21
207.562
  0
LINE
  8
0
 10
149.7
 20
207.562
 11
147.563
 21
207.562
  0
LINE
  8
0
 10
147.563
 20
207.562
 11
147.563
 21
206.188
  0
LINE
  8
0
 10
147.563
 20
206.188
 11
142.437
 21
206.188
  0
LINE
  8
0
 10
142.437
 20
206.188
 11
142.437
 21
207.562
  0
LINE
  8
0
 10
142.437
 20
207.562
 11
140.3
 21
207.562
  0
LINE
  8
0
 10
140.3
 20
207.562
 11
140.3
 21
212.938
  0
LINE
  8
0
 10
140.3
 20
212.938
 11
142.437
 21
212.938
  0
LINE
  8
0
 10
142.437
 20
212.938
 11
142.437
 21
220
  0
LINE
  8
0
 10
142.437
 20
220
 11
137.5
 21
220
  0
LINE
  8
0
 10
137.5
 20
220
 11
137.5
 21
224.875
  0
LINE
  8
0
 10
137.5
 20
224.875
 11
135.875
 21
226.5
  0
LINE
  8
0
 10
135.875
 20
226.5
 11
124.125
 21
226.5
  0
LINE
  8
0
 10
124.125
 20
226.5
 11
122.5
 21
224.875
  0
LINE
  8
0
 10
122.5
 20
224.875
 11
122.5
 21
220
  0
LINE
  8
0
 10
122.5
 20
220
 11
78.0455
 21
220
  0
LINE
  8
0
 10
78.0455
 20
220
 11
245
 21
53.0455
  0
LINE
  8
0
 10
245
 20
53.0455
 11
245
 21
97.5
  0
LINE
  8
0
 10
232
 20
213.95
 11
228
 21
217.95
  0
LINE
  8
0
 10
228
 20
217.95
 11
228
 21
218.05
  0
LINE
  8
0
 10
228
 20
218.05
 11
242
 21
218.05
  0
LINE
  8
0
 10
242
 20
218.05
 11
242
 21
217.95
  0
LINE
  8
0
 10
242
 20
217.95
 11
238
 21
213.95
  0
LINE
  8
0
 10
238
 20
213.95
 11
232
 21
213.95
  0
LINE
  8
0
 10
242.95
 20
203
 11
238.95
 21
207
  0
LINE
  8
0
 10
238.95
 20
207
 11
238.95
 21
213
  0
LINE
  8
0
 10
238.95
 20
213
 11
242.95
 21
217
  0
LINE
  8
0
 10
242.95
 20
217
 11
243.05
 21
217
  0
LINE
  8
0
 10
243.05
 20
217
 11
243.05
 21
203
  0
LINE
  8
0
 10
243.05
 20
203
 11
242.95
 21
203
  0
LINE
  8
0
 10
226.95
 20
203
 11
226.95
 21
205.75
  0
LINE
  8
0
 10
226.95
 20
205.75
 11
223
 21
205.75
  0
LINE
  8
0
 10
223
 20
205.75
 11
223
 21
214.25
  0
LINE
  8
0
 10
223
 20
214.25
 11
226.95
 21
214.25
  0
LINE
  8
0
 10
226.95
 20
214.25
 11
226.95
 21
217
  0
LINE
  8
0
 10
226.95
 20
217
 11
227.05
 21
217
  0
LINE
  8
0
 10
227.05
 20
217
 11
231.05
 21
213
  0
LINE
  8
0
 10
231.05
 20
213
 11
231.05
 21
207
  0
LINE
  8
0
 10
231.05
 20
207
 11
227.05
 21
203
  0
LINE
  8
0
 10
227.05
 20
203
 11
226.95
 21
203
  0
LINE
  8
0
 10
97.1211
 20
210.187
 11
101.647
 21
214.713
  0
LINE
  8
0
 10
101.647
 20
214.713
 11
124.203
 21
192.156
  0
LINE
  8
0
 10
124.203
 20
192.156
 11
119.678
 21
187.631
  0
LINE
  8
0
 10
119.678
 20
187.631
 11
97.1211
 21
210.187
  0
LINE
  8
0
 10
210
 20
205.75
 11
210
 21
214.25
  0
LINE
  8
0
 10
210
 20
214.25
 11
214
 21
214.25
  0
LINE
  8
0
 10
214
 20
214.25
 11
214
 21
205.75
  0
LINE
  8
0
 10
214
 20
205.75
 11
210
 21
205.75
  0
LINE
  8
0
 10
234.751
 20
207.312
 11
234.261
 21
207.403
  0
LINE
  8
0
 10
234.261
 20
207.403
 11
233.797
 21
207.583
  0
LINE
  8
0
 10
233.797
 20
207.583
 11
233.373
 21
207.845
  0
LINE
  8
0
 10
233.373
 20
207.845
 11
233.005
 21
208.181
  0
LINE
  8
0
 10
233.005
 20
208.181
 11
232.704
 21
208.579
  0
LINE
  8
0
 10
232.704
 20
208.579
 11
232.482
 21
209.025
  0
LINE
  8
0
 10
232.482
 20
209.025
 11
232.346
 21
209.504
  0
LINE
  8
0
 10
232.346
 20
209.504
 11
232.3
 21
210
  0
LINE
  8
0
 10
232.3
 20
210
 11
232.346
 21
210.496
  0
LINE
  8
0
 10
232.346
 20
210.496
 11
232.482
 21
210.975
  0
LINE
  8
0
 10
232.482
 20
210.975
 11
232.704
 21
211.421
  0
LINE
  8
0
 10
232.704
 20
211.421
 11
233.005
 21
211.819
  0
LINE
  8
0
 10
233.005
 20
211.819
 11
233.373
 21
212.155
  0
LINE
  8
0
 10
233.373
 20
212.155
 11
233.797
 21
212.417
  0
LINE
  8
0
 10
233.797
 20
212.417
 11
234.261
 21
212.597
  0
LINE
  8
0
 10
234.261
 20
212.597
 11
234.751
 21
212.688
  0
LINE
  8
0
 10
234.751
 20
212.688
 11
235.249
 21
212.688
  0
LINE
  8
0
 10
235.249
 20
212.688
 11
235.739
 21
212.597
  0
LINE
  8
0
 10
235.739
 20
212.597
 11
236.203
 21
212.417
  0
LINE
  8
0
 10
236.203
 20
212.417
 11
236.627
 21
212.155
  0
LINE
  8
0
 10
236.627
 20
212.155
 11
236.995
 21
211.819
  0
LINE
  8
0
 10
236.995
 20
211.819
 11
237.296
 21
211.421
  0
LINE
  8
0
 10
237.296
 20
211.421
 11
237.518
 21
210.975
  0
LINE
  8
0
 10
237.518
 20
210.975
 11
237.654
 21
210.496
  0
LINE
  8
0
 10
237.654
 20
210.496
 11
237.7
 21
210
  0
LINE
  8
0
 10
237.7
 20
210
 11
237.654
 21
209.504
  0
LINE
  8
0
 10
237.654
 20
209.504
 11
237.518
 21
209.025
  0
LINE
  8
0
 10
237.518
 20
209.025
 11
237.296
 21
208.579
  0
LINE
  8
0
 10
237.296
 20
208.579
 11
236.995
 21
208.181
  0
LINE
  8
0
 10
236.995
 20
208.181
 11
236.627
 21
207.845
  0
LINE
  8
0
 10
236.627
 20
207.845
 11
236.203
 21
207.583
  0
LINE
  8
0
 10
236.203
 20
207.583
 11
235.739
 21
207.403
  0
LINE
  8
0
 10
235.739
 20
207.403
 11
235.249
 21
207.312
  0
LINE
  8
0
 10
235.249
 20
207.312
 11
234.751
 21
207.312
  0
LINE
  8
0
 10
242.95
 20
183
 11
238.95
 21
187
  0
LINE
  8
0
 10
238.95
 20
187
 11
238.95
 21
193
  0
LINE
  8
0
 10
238.95
 20
193
 11
242.95
 21
197
  0
LINE
  8
0
 10
242.95
 20
197
 11
243.05
 21
197
  0
LINE
  8
0
 10
243.05
 20
197
 11
243.05
 21
183
  0
LINE
  8
0
 10
243.05
 20
183
 11
242.95
 21
183
  0
LINE
  8
0
 10
226.95
 20
183
 11
226.95
 21
197
  0
LINE
  8
0
 10
226.95
 20
197
 11
227.05
 21
197
  0
LINE
  8
0
 10
227.05
 20
197
 11
231.05
 21
193
  0
LINE
  8
0
 10
231.05
 20
193
 11
231.05
 21
187
  0
LINE
  8
0
 10
231.05
 20
187
 11
227.05
 21
183
  0
LINE
  8
0
 10
227.05
 20
183
 11
226.95
 21
183
  0
LINE
  8
0
 10
234.751
 20
187.312
 11
234.261
 21
187.403
  0
LINE
  8
0
 10
234.261
 20
187.403
 11
233.797
 21
187.583
  0
LINE
  8
0
 10
233.797
 20
187.583
 11
233.373
 21
187.845
  0
LINE
  8
0
 10
233.373
 20
187.845
 11
233.005
 21
188.181
  0
LINE
  8
0
 10
233.005
 20
188.181
 11
232.704
 21
188.579
  0
LINE
  8
0
 10
232.704
 20
188.579
 11
232.482
 21
189.025
  0
LINE
  8
0
 10
232.482
 20
189.025
 11
232.346
 21
189.504
  0
LINE
  8
0
 10
232.346
 20
189.504
 11
232.3
 21
190
  0
LINE
  8
0
 10
232.3
 20
190
 11
232.346
 21
190.496
  0
LINE
  8
0
 10
232.346
 20
190.496
 11
232.482
 21
190.975
  0
LINE
  8
0
 10
232.482
 20
190.975
 11
232.704
 21
191.421
  0
LINE
  8
0
 10
232.704
 20
191.421
 11
233.005
 21
191.819
  0
LINE
  8
0
 10
233.005
 20
191.819
 11
233.373
 21
192.155
  0
LINE
  8
0
 10
233.373
 20
192.155
 11
233.797
 21
192.417
  0
LINE
  8
0
 10
233.797
 20
192.417
 11
234.261
 21
192.597
  0
LINE
  8
0
 10
234.261
 20
192.597
 11
234.751
 21
192.688
  0
LINE
  8
0
 10
234.751
 20
192.688
 11
235.249
 21
192.688
  0
LINE
  8
0
 10
235.249
 20
192.688
 11
235.739
 21
192.597
  0
LINE
  8
0
 10
235.739
 20
192.597
 11
236.203
 21
192.417
  0
LINE
  8
0
 10
236.203
 20
192.417
 11
236.627
 21
192.155
  0
LINE
  8
0
 10
236.627
 20
192.155
 11
236.995
 21
191.819
  0
LINE
  8
0
 10
236.995
 20
191.819
 11
237.296
 21
191.421
  0
LINE
  8
0
 10
237.296
 20
191.421
 11
237.518
 21
190.975
  0
LINE
  8
0
 10
237.518
 20
190.975
 11
237.654
 21
190.496
  0
LINE
  8
0
 10
237.654
 20
190.496
 11
237.7
 21
190
  0
LINE
  8
0
 10
237.7
 20
190
 11
237.654
 21
189.504
  0
LINE
  8
0
 10
237.654
 20
189.504
 11
237.518
 21
189.025
  0
LINE
  8
0
 10
237.518
 20
189.025
 11
237.296
 21
188.579
  0
LINE
  8
0
 10
237.296
 20
188.579
 11
236.995
 21
188.181
  0
LINE
  8
0
 10
236.995
 20
188.181
 11
236.627
 21
187.845
  0
LINE
  8
0
 10
236.627
 20
187.845
 11
236.203
 21
187.583
  0
LINE
  8
0
 10
236.203
 20
187.583
 11
235.739
 21
187.403
  0
LINE
  8
0
 10
235.739
 20
187.403
 11
235.249
 21
187.312
  0
LINE
  8
0
 10
235.249
 20
187.312
 11
234.751
 21
187.312
  0
LINE
  8
0
 10
228
 20
181.95
 11
228
 21
182.05
  0
LINE
  8
0
 10
228
 20
182.05
 11
232
 21
186.05
  0
LINE
  8
0
 10
232
 20
186.05
 11
238
 21
186.05
  0
LINE
  8
0
 10
238
 20
186.05
 11
242
 21
182.05
  0
LINE
  8
0
 10
242
 20
182.05
 11
242
 21
181.95
  0
LINE
  8
0
 10
242
 20
181.95
 11
228
 21
181.95
  0
LINE
  8
0
 10
155.467
 20
151.842
 11
154.724
 21
151.1
  0
LINE
  8
0
 10
154.724
 20
151.1
 11
151.1
 21
154.724
  0
LINE
  8
0
 10
151.1
 20
154.724
 11
151.842
 21
155.467
  0
LINE
  8
0
 10
151.842
 20
155.467
 11
142.376
 21
164.933
  0
LINE
  8
0
 10
142.376
 20
164.933
 11
146.901
 21
169.458
  0
LINE
  8
0
 10
146.901
 20
169.458
 11
156.367
 21
159.992
  0
LINE
  8
0
 10
156.367
 20
159.992
 11
157.11
 21
160.735
  0
LINE
  8
0
 10
157.11
 20
160.735
 11
160.735
 21
157.11
  0
LINE
  8
0
 10
160.735
 20
157.11
 11
159.992
 21
156.367
  0
LINE
  8
0
 10
159.992
 20
156.367
 11
169.458
 21
146.901
  0
LINE
  8
0
 10
169.458
 20
146.901
 11
164.933
 21
142.376
  0
LINE
  8
0
 10
164.933
 20
142.376
 11
155.467
 21
151.842
  0
LINE
  8
0
 10
187.631
 20
119.678
 11
192.156
 21
124.203
  0
LINE
  8
0
 10
192.156
 20
124.203
 11
214.713
 21
101.647
  0
LINE
  8
0
 10
214.713
 20
101.647
 11
210.187
 21
97.1211
  0
LINE
  8
0
 10
210.187
 20
97.1211
 11
187.631
 21
119.678
  0
LINE
  8
0
 10
137.5
 20
-224.875
 11
137.5
 21
-220
  0
LINE
  8
0
 10
137.5
 20
-220
 11
142.437
 21
-220
  0
LINE
  8
0
 10
142.437
 20
-220
 11
142.437
 21
-212.938
  0
LINE
  8
0
 10
142.437
 20
-212.938
 11
140.3
 21
-212.938
  0
LINE
  8
0
 10
140.3
 20
-212.938
 11
140.3
 21
-207.562
  0
LINE
  8
0
 10
140.3
 20
-207.562
 11
142.437
 21
-207.562
  0
LINE
  8
0
 10
142.437
 20
-207.562
 11
142.437
 21
-206.188
  0
LINE
  8
0
 10
142.437
 20
-206.188
 11
147.563
 21
-206.188
  0
LINE
  8
0
 10
147.563
 20
-206.188
 11
147.563
 21
-207.562
  0
LINE
  8
0
 10
147.563
 20
-207.562
 11
149.7
 21
-207.562
  0
LINE
  8
0
 10
149.7
 20
-207.562
 11
149.7
 21
-212.938
  0
LINE
  8
0
 10
149.7
 20
-212.938
 11
147.563
 21
-212.938
  0
LINE
  8
0
 10
147.563
 20
-212.938
 11
147.563
 21
-220
  0
LINE
  8
0
 10
147.563
 20
-220
 11
152.5
 21
-220
  0
LINE
  8
0
 10
152.5
 20
-220
 11
152.5
 21
-224.875
  0
LINE
  8
0
 10
152.5
 20
-224.875
 11
154.125
 21
-226.5
  0
LINE
  8
0
 10
154.125
 20
-226.5
 11
165.875
 21
-226.5
  0
LINE
  8
0
 10
165.875
 20
-226.5
 11
167.5
 21
-224.875
  0
LINE
  8
0
 10
167.5
 20
-224.875
 11
167.5
 21
-220
  0
LINE
  8
0
 10
167.5
 20
-220
 11
245
 21
-220
  0
LINE
  8
0
 10
245
 20
-220
 11
245
 21
-142.5
  0
LINE
  8
0
 10
245
 20
-142.5
 11
249.875
 21
-142.5
  0
LINE
  8
0
 10
249.875
 20
-142.5
 11
251.5
 21
-140.875
  0
LINE
  8
0
 10
251.5
 20
-140.875
 11
251.5
 21
-129.125
  0
LINE
  8
0
 10
251.5
 20
-129.125
 11
249.875
 21
-127.5
  0
LINE
  8
0
 10
249.875
 20
-127.5
 11
245
 21
-127.5
  0
LINE
  8
0
 10
245
 20
-127.5
 11
245
 21
-122.563
  0
LINE
  8
0
 10
245
 20
-122.563
 11
237.938
 21
-122.563
  0
LINE
  8
0
 10
237.938
 20
-122.563
 11
237.938
 21
-124.7
  0
LINE
  8
0
 10
237.938
 20
-124.7
 11
232.562
 21
-124.7
  0
LINE
  8
0
 10
232.562
 20
-124.7
 11
232.562
 21
-122.563
  0
LINE
  8
0
 10
232.562
 20
-122.563
 11
231.188
 21
-122.563
  0
LINE
  8
0
 10
231.188
 20
-122.563
 11
231.188
 21
-117.437
  0
LINE
  8
0
 10
231.188
 20
-117.437
 11
232.562
 21
-117.437
  0
LINE
  8
0
 10
232.562
 20
-117.437
 11
232.562
 21
-115.3
  0
LINE
  8
0
 10
232.562
 20
-115.3
 11
237.938
 21
-115.3
  0
LINE
  8
0
 10
237.938
 20
-115.3
 11
237.938
 21
-117.437
  0
LINE
  8
0
 10
237.938
 20
-117.437
 11
245
 21
-117.437
  0
LINE
  8
0
 10
245
 20
-117.437
 11
245
 21
-112.5
  0
LINE
  8
0
 10
245
 20
-112.5
 11
249.875
 21
-112.5
  0
LINE
  8
0
 10
249.875
 20
-112.5
 11
251.5
 21
-110.875
  0
LINE
  8
0
 10
251.5
 20
-110.875
 11
251.5
 21
-99.125
  0
LINE
  8
0
 10
251.5
 20
-99.125
 11
249.875
 21
-97.5
  0
LINE
  8
0
 10
249.875
 20
-97.5
 11
245
 21
-97.5
  0
LINE
  8
0
 10
245
 20
-97.5
 11
245
 21
-53.0455
  0
LINE
  8
0
 10
245
 20
-53.0455
 11
78.0455
 21
-220
  0
LINE
  8
0
 10
78.0455
 20
-220
 11
122.5
 21
-220
  0
LINE
  8
0
 10
122.5
 20
-220
 11
122.5
 21
-224.875
  0
LINE
  8
0
 10
122.5
 20
-224.875
 11
124.125
 21
-226.5
  0
LINE
  8
0
 10
124.125
 20
-226.5
 11
135.875
 21
-226.5
  0
LINE
  8
0
 10
135.875
 20
-226.5
 11
137.5
 21
-224.875
  0
LINE
  8
0
 10
187.631
 20
-119.678
 11
210.187
 21
-97.1211
  0
LINE
  8
0
 10
210.187
 20
-97.1211
 11
214.713
 21
-101.647
  0
LINE
  8
0
 10
214.713
 20
-101.647
 11
192.156
 21
-124.203
  0
LINE
  8
0
 10
192.156
 20
-124.203
 11
187.631
 21
-119.678
  0
LINE
  8
0
 10
142.376
 20
-164.933
 11
151.842
 21
-155.467
  0
LINE
  8
0
 10
151.842
 20
-155.467
 11
151.1
 21
-154.724
  0
LINE
  8
0
 10
151.1
 20
-154.724
 11
154.724
 21
-151.1
  0
LINE
  8
0
 10
154.724
 20
-151.1
 11
155.467
 21
-151.842
  0
LINE
  8
0
 10
155.467
 20
-151.842
 11
164.933
 21
-142.376
  0
LINE
  8
0
 10
164.933
 20
-142.376
 11
169.458
 21
-146.901
  0
LINE
  8
0
 10
169.458
 20
-146.901
 11
159.992
 21
-156.367
  0
LINE
  8
0
 10
159.992
 20
-156.367
 11
160.735
 21
-157.11
  0
LINE
  8
0
 10
160.735
 20
-157.11
 11
157.11
 21
-160.735
  0
LINE
  8
0
 10
157.11
 20
-160.735
 11
156.367
 21
-159.992
  0
LINE
  8
0
 10
156.367
 20
-159.992
 11
146.901
 21
-169.458
  0
LINE
  8
0
 10
146.901
 20
-169.458
 11
142.376
 21
-164.933
  0
LINE
  8
0
 10
232
 20
-186.05
 11
228
 21
-182.05
  0
LINE
  8
0
 10
228
 20
-182.05
 11
228
 21
-181.95
  0
LINE
  8
0
 10
228
 20
-181.95
 11
242
 21
-181.95
  0
LINE
  8
0
 10
242
 20
-181.95
 11
242
 21
-182.05
  0
LINE
  8
0
 10
242
 20
-182.05
 11
238
 21
-186.05
  0
LINE
  8
0
 10
238
 20
-186.05
 11
232
 21
-186.05
  0
LINE
  8
0
 10
242.95
 20
-197
 11
238.95
 21
-193
  0
LINE
  8
0
 10
238.95
 20
-193
 11
238.95
 21
-187
  0
LINE
  8
0
 10
238.95
 20
-187
 11
242.95
 21
-183
  0
LINE
  8
0
 10
242.95
 20
-183
 11
243.05
 21
-183
  0
LINE
  8
0
 10
243.05
 20
-183
 11
243.05
 21
-197
  0
LINE
  8
0
 10
243.05
 20
-197
 11
242.95
 21
-197
  0
LINE
  8
0
 10
226.95
 20
-197
 11
226.95
 21
-183
  0
LINE
  8
0
 10
226.95
 20
-183
 11
227.05
 21
-183
  0
LINE
  8
0
 10
227.05
 20
-183
 11
231.05
 21
-187
  0
LINE
  8
0
 10
231.05
 20
-187
 11
231.05
 21
-193
  0
LINE
  8
0
 10
231.05
 20
-193
 11
227.05
 21
-197
  0
LINE
  8
0
 10
227.05
 20
-197
 11
226.95
 21
-197
  0
LINE
  8
0
 10
234.751
 20
-192.688
 11
234.261
 21
-192.597
  0
LINE
  8
0
 10
234.261
 20
-192.597
 11
233.797
 21
-192.417
  0
LINE
  8
0
 10
233.797
 20
-192.417
 11
233.373
 21
-192.155
  0
LINE
  8
0
 10
233.373
 20
-192.155
 11
233.005
 21
-191.819
  0
LINE
  8
0
 10
233.005
 20
-191.819
 11
232.704
 21
-191.421
  0
LINE
  8
0
 10
232.704
 20
-191.421
 11
232.482
 21
-190.975
  0
LINE
  8
0
 10
232.482
 20
-190.975
 11
232.346
 21
-190.496
  0
LINE
  8
0
 10
232.346
 20
-190.496
 11
232.3
 21
-190
  0
LINE
  8
0
 10
232.3
 20
-190
 11
232.346
 21
-189.504
  0
LINE
  8
0
 10
232.346
 20
-189.504
 11
232.482
 21
-189.025
  0
LINE
  8
0
 10
232.482
 20
-189.025
 11
232.704
 21
-188.579
  0
LINE
  8
0
 10
232.704
 20
-188.579
 11
233.005
 21
-188.181
  0
LINE
  8
0
 10
233.005
 20
-188.181
 11
233.373
 21
-187.845
  0
LINE
  8
0
 10
233.373
 20
-187.845
 11
233.797
 21
-187.583
  0
LINE
  8
0
 10
233.797
 20
-187.583
 11
234.261
 21
-187.403
  0
LINE
  8
0
 10
234.261
 20
-187.403
 11
234.751
 21
-187.312
  0
LINE
  8
0
 10
234.751
 20
-187.312
 11
235.249
 21
-187.312
  0
LINE
  8
0
 10
235.249
 20
-187.312
 11
235.739
 21
-187.403
  0
LINE
  8
0
 10
235.739
 20
-187.403
 11
236.203
 21
-187.583
  0
LINE
  8
0
 10
236.203
 20
-187.583
 11
236.627
 21
-187.845
  0
LINE
  8
0
 10
236.627
 20
-187.845
 11
236.995
 21
-188.181
  0
LINE
  8
0
 10
236.995
 20
-188.181
 11
237.296
 21
-188.579
  0
LINE
  8
0
 10
237.296
 20
-188.579
 11
237.518
 21
-189.025
  0
LINE
  8
0
 10
237.518
 20
-189.025
 11
237.654
 21
-189.504
  0
LINE
  8
0
 10
237.654
 20
-189.504
 11
237.7
 21
-190
  0
LINE
  8
0
 10
237.7
 20
-190
 11
237.654
 21
-190.496
  0
LINE
  8
0
 10
237.654
 20
-190.496
 11
237.518
 21
-190.975
  0
LINE
  8
0
 10
237.518
 20
-190.975
 11
237.296
 21
-191.421
  0
LINE
  8
0
 10
237.296
 20
-191.421
 11
236.995
 21
-191.819
  0
LINE
  8
0
 10
236.995
 20
-191.819
 11
236.627
 21
-192.155
  0
LINE
  8
0
 10
236.627
 20
-192.155
 11
236.203
 21
-192.417
  0
LINE
  8
0
 10
236.203
 20
-192.417
 11
235.739
 21
-192.597
  0
LINE
  8
0
 10
235.739
 20
-192.597
 11
235.249
 21
-192.688
  0
LINE
  8
0
 10
235.249
 20
-192.688
 11
234.751
 21
-192.688
  0
LINE
  8
0
 10
97.1211
 20
-210.187
 11
119.678
 21
-187.631
  0
LINE
  8
0
 10
119.678
 20
-187.631
 11
124.203
 21
-192.156
  0
LINE
  8
0
 10
124.203
 20
-192.156
 11
101.647
 21
-214.713
  0
LINE
  8
0
 10
101.647
 20
-214.713
 11
97.1211
 21
-210.187
  0
LINE
  8
0
 10
242.95
 20
-217
 11
238.95
 21
-213
  0
LINE
  8
0
 10
238.95
 20
-213
 11
238.95
 21
-207
  0
LINE
  8
0
 10
238.95
 20
-207
 11
242.95
 21
-203
  0
LINE
  8
0
 10
242.95
 20
-203
 11
243.05
 21
-203
  0
LINE
  8
0
 10
243.05
 20
-203
 11
243.05
 21
-217
  0
LINE
  8
0
 10
243.05
 20
-217
 11
242.95
 21
-217
  0
LINE
  8
0
 10
226.95
 20
-217
 11
226.95
 21
-203
  0
LINE
  8
0
 10
226.95
 20
-203
 11
227.05
 21
-203
  0
LINE
  8
0
 10
227.05
 20
-203
 11
231.05
 21
-207
  0
LINE
  8
0
 10
231.05
 20
-207
 11
231.05
 21
-213
  0
LINE
  8
0
 10
231.05
 20
-213
 11
227.05
 21
-217
  0
LINE
  8
0
 10
227.05
 20
-217
 11
226.95
 21
-217
  0
LINE
  8
0
 10
234.751
 20
-212.688
 11
234.261
 21
-212.597
  0
LINE
  8
0
 10
234.261
 20
-212.597
 11
233.797
 21
-212.417
  0
LINE
  8
0
 10
233.797
 20
-212.417
 11
233.373
 21
-212.155
  0
LINE
  8
0
 10
233.373
 20
-212.155
 11
233.005
 21
-211.819
  0
LINE
  8
0
 10
233.005
 20
-211.819
 11
232.704
 21
-211.421
  0
LINE
  8
0
 10
232.704
 20
-211.421
 11
232.482
 21
-210.975
  0
LINE
  8
0
 10
232.482
 20
-210.975
 11
232.346
 21
-210.496
  0
LINE
  8
0
 10
232.346
 20
-210.496
 11
232.3
 21
-210
  0
LINE
  8
0
 10
232.3
 20
-210
 11
232.346
 21
-209.504
  0
LINE
  8
0
 10
232.346
 20
-209.504
 11
232.482
 21
-209.025
  0
LINE
  8
0
 10
232.482
 20
-209.025
 11
232.704
 21
-208.579
  0
LINE
  8
0
 10
232.704
 20
-208.579
 11
233.005
 21
-208.181
  0
LINE
  8
0
 10
233.005
 20
-208.181
 11
233.373
 21
-207.845
  0
LINE
  8
0
 10
233.373
 20
-207.845
 11
233.797
 21
-207.583
  0
LINE
  8
0
 10
233.797
 20
-207.583
 11
234.261
 21
-207.403
  0
LINE
  8
0
 10
234.261
 20
-207.403
 11
234.751
 21
-207.312
  0
LINE
  8
0
 10
234.751
 20
-207.312
 11
235.249
 21
-207.312
  0
LINE
  8
0
 10
235.249
 20
-207.312
 11
235.739
 21
-207.403
  0
LINE
  8
0
 10
235.739
 20
-207.403
 11
236.203
 21
-207.583
  0
LINE
  8
0
 10
236.203
 20
-207.583
 11
236.627
 21
-207.845
  0
LINE
  8
0
 10
236.627
 20
-207.845
 11
236.995
 21
-208.181
  0
LINE
  8
0
 10
236.995
 20
-208.181
 11
237.296
 21
-208.579
  0
LINE
  8
0
 10
237.296
 20
-208.579
 11
237.518
 21
-209.025
  0
LINE
  8
0
 10
237.518
 20
-209.025
 11
237.654
 21
-209.504
  0
LINE
  8
0
 10
237.654
 20
-209.504
 11
237.7
 21
-210
  0
LINE
  8
0
 10
237.7
 20
-210
 11
237.654
 21
-210.496
  0
LINE
  8
0
 10
237.654
 20
-210.496
 11
237.518
 21
-210.975
  0
LINE
  8
0
 10
237.518
 20
-210.975
 11
237.296
 21
-211.421
  0
LINE
  8
0
 10
237.296
 20
-211.421
 11
236.995
 21
-211.819
  0
LINE
  8
0
 10
236.995
 20
-211.819
 11
236.627
 21
-212.155
  0
LINE
  8
0
 10
236.627
 20
-212.155
 11
236.203
 21
-212.417
  0
LINE
  8
0
 10
236.203
 20
-212.417
 11
235.739
 21
-212.597
  0
LINE
  8
0
 10
235.739
 20
-212.597
 11
235.249
 21
-212.688
  0
LINE
  8
0
 10
235.249
 20
-212.688
 11
234.751
 21
-212.688
  0
LINE
  8
0
 10
228
 20
-218.05
 11
228
 21
-217.95
  0
LINE
  8
0
 10
228
 20
-217.95
 11
232
 21
-213.95
  0
LINE
  8
0
 10
232
 20
-213.95
 11
238
 21
-213.95
  0
LINE
  8
0
 10
238
 20
-213.95
 11
242
 21
-217.95
  0
LINE
  8
0
 10
242
 20
-217.95
 11
242
 21
-218.05
  0
LINE
  8
0
 10
242
 20
-218.05
 11
228
 21
-218.05
  0
LINE
  8
0
 10
-152.5
 20
-224.875
 11
-152.5
 21
-220
  0
LINE
  8
0
 10
-152.5
 20
-220
 11
-147.563
 21
-220
  0
LINE
  8
0
 10
-147.563
 20
-220
 11
-147.563
 21
-212.938
  0
LINE
  8
0
 10
-147.563
 20
-212.938
 11
-149.7
 21
-212.938
  0
LINE
  8
0
 10
-149.7
 20
-212.938
 11
-149.7
 21
-207.562
  0
LINE
  8
0
 10
-149.7
 20
-207.562
 11
-147.563
 21
-207.562
  0
LINE
  8
0
 10
-147.563
 20
-207.562
 11
-147.563
 21
-206.188
  0
LINE
  8
0
 10
-147.563
 20
-206.188
 11
-142.437
 21
-206.188
  0
LINE
  8
0
 10
-142.437
 20
-206.188
 11
-142.437
 21
-207.562
  0
LINE
  8
0
 10
-142.437
 20
-207.562
 11
-140.3
 21
-207.562
  0
LINE
  8
0
 10
-140.3
 20
-207.562
 11
-140.3
 21
-212.938
  0
LINE
  8
0
 10
-140.3
 20
-212.938
 11
-142.437
 21
-212.938
  0
LINE
  8
0
 10
-142.437
 20
-212.938
 11
-142.437
 21
-220
  0
LINE
  8
0
 10
-142.437
 20
-220
 11
-137.5
 21
-220
  0
LINE
  8
0
 10
-137.5
 20
-220
 11
-137.5
 21
-224.875
  0
LINE
  8
0
 10
-137.5
 20
-224.875
 11
-135.875
 21
-226.5
  0
LINE
  8
0
 10
-135.875
 20
-226.5
 11
-124.125
 21
-226.5
  0
LINE
  8
0
 10
-124.125
 20
-226.5
 11
-122.5
 21
-224.875
  0
LINE
  8
0
 10
-122.5
 20
-224.875
 11
-122.5
 21
-220
  0
LINE
  8
0
 10
-122.5
 20
-220
 11
-78.0455
 21
-220
  0
LINE
  8
0
 10
-78.0455
 20
-220
 11
-245
 21
-53.0455
  0
LINE
  8
0
 10
-245
 20
-53.0455
 11
-245
 21
-97.5
  0
LINE
  8
0
 10
-245
 20
-97.5
 11
-249.875
 21
-97.5
  0
LINE
  8
0
 10
-249.875
 20
-97.5
 11
-251.5
 21
-99.125
  0
LINE
  8
0
 10
-251.5
 20
-99.125
 11
-251.5
 21
-110.875
  0
LINE
  8
0
 10
-251.5
 20
-110.875
 11
-249.875
 21
-112.5
  0
LINE
  8
0
 10
-249.875
 20
-112.5
 11
-245
 21
-112.5
  0
LINE
  8
0
 10
-245
 20
-112.5
 11
-245
 21
-117.437
  0
LINE
  8
0
 10
-245
 20
-117.437
 11
-237.938
 21
-117.437
  0
LINE
  8
0
 10
-237.938
 20
-117.437
 11
-237.938
 21
-115.3
  0
LINE
  8
0
 10
-237.938
 20
-115.3
 11
-232.562
 21
-115.3
  0
LINE
  8
0
 10
-232.562
 20
-115.3
 11
-232.562
 21
-117.437
  0
LINE
  8
0
 10
-232.562
 20
-117.437
 11
-231.188
 21
-117.437
  0
LINE
  8
0
 10
-231.188
 20
-117.437
 11
-231.188
 21
-122.563
  0
LINE
  8
0
 10
-231.188
 20
-122.563
 11
-232.562
 21
-122.563
  0
LINE
  8
0
 10
-232.562
 20
-122.563
 11
-232.562
 21
-124.7
  0
LINE
  8
0
 10
-232.562
 20
-124.7
 11
-237.938
 21
-124.7
  0
LINE
  8
0
 10
-237.938
 20
-124.7
 11
-237.938
 21
-122.563
  0
LINE
  8
0
 10
-237.938
 20
-122.563
 11
-245
 21
-122.563
  0
LINE
  8
0
 10
-245
 20
-122.563
 11
-245
 21
-127.5
  0
LINE
  8
0
 10
-245
 20
-127.5
 11
-249.875
 21
-127.5
  0
LINE
  8
0
 10
-249.875
 20
-127.5
 11
-251.5
 21
-129.125
  0
LINE
  8
0
 10
-251.5
 20
-129.125
 11
-251.5
 21
-140.875
  0
LINE
  8
0
 10
-251.5
 20
-140.875
 11
-249.875
 21
-142.5
  0
LINE
  8
0
 10
-249.875
 20
-142.5
 11
-245
 21
-142.5
  0
LINE
  8
0
 10
-245
 20
-142.5
 11
-245
 21
-220
  0
LINE
  8
0
 10
-245
 20
-220
 11
-167.5
 21
-220
  0
LINE
  8
0
 10
-167.5
 20
-220
 11
-167.5
 21
-224.875
  0
LINE
  8
0
 10
-167.5
 20
-224.875
 11
-165.875
 21
-226.5
  0
LINE
  8
0
 10
-165.875
 20
-226.5
 11
-154.125
 21
-226.5
  0
LINE
  8
0
 10
-154.125
 20
-226.5
 11
-152.5
 21
-224.875
  0
LINE
  8
0
 10
-214.713
 20
-101.647
 11
-210.187
 21
-97.1211
  0
LINE
  8
0
 10
-210.187
 20
-97.1211
 11
-187.631
 21
-119.678
  0
LINE
  8
0
 10
-187.631
 20
-119.678
 11
-192.156
 21
-124.203
  0
LINE
  8
0
 10
-192.156
 20
-124.203
 11
-214.713
 21
-101.647
  0
LINE
  8
0
 10
-156.367
 20
-159.992
 11
-157.11
 21
-160.735
  0
LINE
  8
0
 10
-157.11
 20
-160.735
 11
-160.735
 21
-157.11
  0
LINE
  8
0
 10
-160.735
 20
-157.11
 11
-159.992
 21
-156.367
  0
LINE
  8
0
 10
-159.992
 20
-156.367
 11
-169.458
 21
-146.901
  0
LINE
  8
0
 10
-169.458
 20
-146.901
 11
-164.933
 21
-142.376
  0
LINE
  8
0
 10
-164.933
 20
-142.376
 11
-155.467
 21
-151.842
  0
LINE
  8
0
 10
-155.467
 20
-151.842
 11
-154.724
 21
-151.1
  0
LINE
  8
0
 10
-154.724
 20
-151.1
 11
-151.1
 21
-154.724
  0
LINE
  8
0
 10
-151.1
 20
-154.724
 11
-151.842
 21
-155.467
  0
LINE
  8
0
 10
-151.842
 20
-155.467
 11
-142.376
 21
-164.933
  0
LINE
  8
0
 10
-142.376
 20
-164.933
 11
-146.901
 21
-169.458
  0
LINE
  8
0
 10
-146.901
 20
-169.458
 11
-156.367
 21
-159.992
  0
LINE
  8
0
 10
-238
 20
-186.05
 11
-242
 21
-182.05
  0
LINE
  8
0
 10
-242
 20
-182.05
 11
-242
 21
-181.95
  0
LINE
  8
0
 10
-242
 20
-181.95
 11
-228
 21
-181.95
  0
LINE
  8
0
 10
-228
 20
-181.95
 11
-228
 21
-182.05
  0
LINE
  8
0
 10
-228
 20
-182.05
 11
-232
 21
-186.05
  0
LINE
  8
0
 10
-232
 20
-186.05
 11
-238
 21
-186.05
  0
LINE
  8
0
 10
-227.05
 20
-197
 11
-231.05
 21
-193
  0
LINE
  8
0
 10
-231.05
 20
-193
 11
-231.05
 21
-187
  0
LINE
  8
0
 10
-231.05
 20
-187
 11
-227.05
 21
-183
  0
LINE
  8
0
 10
-227.05
 20
-183
 11
-226.95
 21
-183
  0
LINE
  8
0
 10
-226.95
 20
-183
 11
-226.95
 21
-197
  0
LINE
  8
0
 10
-226.95
 20
-197
 11
-227.05
 21
-197
  0
LINE
  8
0
 10
-243.05
 20
-197
 11
-243.05
 21
-183
  0
LINE
  8
0
 10
-243.05
 20
-183
 11
-242.95
 21
-183
  0
LINE
  8
0
 10
-242.95
 20
-183
 11
-238.95
 21
-187
  0
LINE
  8
0
 10
-238.95
 20
-187
 11
-238.95
 21
-193
  0
LINE
  8
0
 10
-238.95
 20
-193
 11
-242.95
 21
-197
  0
LINE
  8
0
 10
-242.95
 20
-197
 11
-243.05
 21
-197
  0
LINE
  8
0
 10
-235.249
 20
-192.688
 11
-235.739
 21
-192.597
  0
LINE
  8
0
 10
-235.739
 20
-192.597
 11
-236.203
 21
-192.417
  0
LINE
  8
0
 10
-236.203
 20
-192.417
 11
-236.627
 21
-192.155
  0
LINE
  8
0
 10
-236.627
 20
-192.155
 11
-236.995
 21
-191.819
  0
LINE
  8
0
 10
-236.995
 20
-191.819
 11
-237.296
 21
-191.421
  0
LINE
  8
0
 10
-237.296
 20
-191.421
 11
-237.518
 21
-190.975
  0
LINE
  8
0
 10
-237.518
 20
-190.975
 11
-237.654
 21
-190.496
  0
LINE
  8
0
 10
-237.654
 20
-190.496
 11
-237.7
 21
-190
  0
LINE
  8
0
 10
-237.7
 20
-190
 11
-237.654
 21
-189.504
  0
LINE
  8
0
 10
-237.654
 20
-189.504
 11
-237.518
 21
-189.025
  0
LINE
  8
0
 10
-237.518
 20
-189.025
 11
-237.296
 21
-188.579
  0
LINE
  8
0
 10
-237.296
 20
-188.579
 11
-236.995
 21
-188.181
  0
LINE
  8
0
 10
-236.995
 20
-188.181
 11
-236.627
 21
-187.845
  0
LINE
  8
0
 10
-236.627
 20
-187.845
 11
-236.203
 21
-187.583
  0
LINE
  8
0
 10
-236.203
 20
-187.583
 11
-235.739
 21
-187.403
  0
LINE
  8
0
 10
-235.739
 20
-187.403
 11
-235.249
 21
-187.312
  0
LINE
  8
0
 10
-235.249
 20
-187.312
 11
-234.751
 21
-187.312
  0
LINE
  8
0
 10
-234.751
 20
-187.312
 11
-234.261
 21
-187.403
  0
LINE
  8
0
 10
-234.261
 20
-187.403
 11
-233.797
 21
-187.583
  0
LINE
  8
0
 10
-233.797
 20
-187.583
 11
-233.373
 21
-187.845
  0
LINE
  8
0
 10
-233.373
 20
-187.845
 11
-233.005
 21
-188.181
  0
LINE
  8
0
 10
-233.005
 20
-188.181
 11
-232.704
 21
-188.579
  0
LINE
  8
0
 10
-232.704
 20
-188.579
 11
-232.482
 21
-189.025
  0
LINE
  8
0
 10
-232.482
 20
-189.025
 11
-232.346
 21
-189.504
  0
LINE
  8
0
 10
-232.346
 20
-189.504
 11
-232.3
 21
-190
  0
LINE
  8
0
 10
-232.3
 20
-190
 11
-232.346
 21
-190.496
  0
LINE
  8
0
 10
-232.346
 20
-190.496
 11
-232.482
 21
-190.975
  0
LINE
  8
0
 10
-232.482
 20
-190.975
 11
-232.704
 21
-191.421
  0
LINE
  8
0
 10
-232.704
 20
-191.421
 11
-233.005
 21
-191.819
  0
LINE
  8
0
 10
-233.005
 20
-191.819
 11
-233.373
 21
-192.155
  0
LINE
  8
0
 10
-233.373
 20
-192.155
 11
-233.797
 21
-192.417
  0
LINE
  8
0
 10
-233.797
 20
-192.417
 11
-234.261
 21
-192.597
  0
LINE
  8
0
 10
-234.261
 20
-192.597
 11
-234.751
 21
-192.688
  0
LINE
  8
0
 10
-234.751
 20
-192.688
 11
-235.249
 21
-192.688
  0
LINE
  8
0
 10
-124.203
 20
-192.156
 11
-119.678
 21
-187.631
  0
LINE
  8
0
 10
-119.678
 20
-187.631
 11
-97.1211
 21
-210.187
  0
LINE
  8
0
 10
-97.1211
 20
-210.187
 11
-101.647
 21
-214.713
  0
LINE
  8
0
 10
-101.647
 20
-214.713
 11
-124.203
 21
-192.156
  0
LINE
  8
0
 10
-243.05
 20
-217
 11
-243.05
 21
-203
  0
LINE
  8
0
 10
-243.05
 20
-203
 11
-242.95
 21
-203
  0
LINE
  8
0
 10
-242.95
 20
-203
 11
-238.95
 21
-207
  0
LINE
  8
0
 10
-238.95
 20
-207
 11
-238.95
 21
-213
  0
LINE
  8
0
 10
-238.95
 20
-213
 11
-242.95
 21
-217
  0
LINE
  8
0
 10
-242.95
 20
-217
 11
-243.05
 21
-217
  0
LINE
  8
0
 10
-227.05
 20
-217
 11
-231.05
 21
-213
  0
LINE
  8
0
 10
-231.05
 20
-213
 11
-231.05
 21
-207
  0
LINE
  8
0
 10
-231.05
 20
-207
 11
-227.05
 21
-203
  0
LINE
  8
0
 10
-227.05
 20
-203
 11
-226.95
 21
-203
  0
LINE
  8
0
 10
-226.95
 20
-203
 11
-226.95
 21
-217
  0
LINE
  8
0
 10
-226.95
 20
-217
 11
-227.05
 21
-217
  0
LINE
  8
0
 10
-235.249
 20
-212.688
 11
-235.739
 21
-212.597
  0
LINE
  8
0
 10
-235.739
 20
-212.597
 11
-236.203
 21
-212.417
  0
LINE
  8
0
 10
-236.203
 20
-212.417
 11
-236.627
 21
-212.155
  0
LINE
  8
0
 10
-236.627
 20
-212.155
 11
-236.995
 21
-211.819
  0
LINE
  8
0
 10
-236.995
 20
-211.819
 11
-237.296
 21
-211.421
  0
LINE
  8
0
 10
-237.296
 20
-211.421
 11
-237.518
 21
-210.975
  0
LINE
  8
0
 10
-237.518
 20
-210.975
 11
-237.654
 21
-210.496
  0
LINE
  8
0
 10
-237.654
 20
-210.496
 11
-237.7
 21
-210
  0
LINE
  8
0
 10
-237.7
 20
-210
 11
-237.654
 21
-209.504
  0
LINE
  8
0
 10
-237.654
 20
-209.504
 11
-237.518
 21
-209.025
  0
LINE
  8
0
 10
-237.518
 20
-209.025
 11
-237.296
 21
-208.579
  0
LINE
  8
0
 10
-237.296
 20
-208.579
 11
-236.995
 21
-208.181
  0
LINE
  8
0
 10
-236.995
 20
-208.181
 11
-236.627
 21
-207.845
  0
LINE
  8
0
 10
-236.627
 20
-207.845
 11
-236.203
 21
-207.583
  0
LINE
  8
0
 10
-236.203
 20
-207.583
 11
-235.739
 21
-207.403
  0
LINE
  8
0
 10
-235.739
 20
-207.403
 11
-235.249
 21
-207.312
  0
LINE
  8
0
 10
-235.249
 20
-207.312
 11
-234.751
 21
-207.312
  0
LINE
  8
0
 10
-234.751
 20
-207.312
 11
-234.261
 21
-207.403
  0
LINE
  8
0
 10
-234.261
 20
-207.403
 11
-233.797
 21
-207.583
  0
LINE
  8
0
 10
-233.797
 20
-207.583
 11
-233.373
 21
-207.845
  0
LINE
  8
0
 10
-233.373
 20
-207.845
 11
-233.005
 21
-208.181
  0
LINE
  8
0
 10
-233.005
 20
-208.181
 11
-232.704
 21
-208.579
  0
LINE
  8
0
 10
-232.704
 20
-208.579
 11
-232.482
 21
-209.025
  0
LINE
  8
0
 10
-232.482
 20
-209.025
 11
-232.346
 21
-209.504
  0
LINE
  8
0
 10
-232.346
 20
-209.504
 11
-232.3
 21
-210
  0
LINE
  8
0
 10
-232.3
 20
-210
 11
-232.346
 21
-210.496
  0
LINE
  8
0
 10
-232.346
 20
-210.496
 11
-232.482
 21
-210.975
  0
LINE
  8
0
 10
-232.482
 20
-210.975
 11
-232.704
 21
-211.421
  0
LINE
  8
0
 10
-232.704
 20
-211.421
 11
-233.005
 21
-211.819
  0
LINE
  8
0
 10
-233.005
 20
-211.819
 11
-233.373
 21
-212.155
  0
LINE
  8
0
 10
-233.373
 20
-212.155
 11
-233.797
 21
-212.417
  0
LINE
  8
0
 10
-233.797
 20
-212.417
 11
-234.261
 21
-212.597
  0
LINE
  8
0
 10
-234.261
 20
-212.597
 11
-234.751
 21
-212.688
  0
LINE
  8
0
 10
-234.751
 20
-212.688
 11
-235.249
 21
-212.688
  0
LINE
  8
0
 10
-242
 20
-218.05
 11
-242
 21
-217.95
  0
LINE
  8
0
 10
-242
 20
-217.95
 11
-238
 21
-213.95
  0
LINE
  8
0
 10
-238
 20
-213.95
 11
-232
 21
-213.95
  0
LINE
  8
0
 10
-232
 20
-213.95
 11
-228
 21
-217.95
  0
LINE
  8
0
 10
-228
 20
-217.95
 11
-228
 21
-218.05
  0
LINE
  8
0
 10
-228
 20
-218.05
 11
-242
 21
-218.05
  0
ENDSEC
  0
SECTION
  2
OBJECTS
  0
DICTIONARY
  0
ENDSEC
  0
EOF
