  0
SECTION
  2
HEADER
  9
$ACADVER
  1
AC1012
  9
$DWGCODEPAGE
  3
gb2312
  9
$INSBASE
 10
0.0
 20
0.0
 30
0.0
  9
$EXTMIN
 10
1.000000000000000E+20
 20
1.000000000000000E+20
 30
1.000000000000000E+20
  9
$EXTMAX
 10
-1.000000000000000E+20
 20
-1.000000000000000E+20
 30
-1.000000000000000E+20
  9
$LIMMIN
 10
0.0
 20
0.0
  9
$LIMMAX
 10
420.0
 20
297.0
  9
$ORTHOMODE
 70
     0
  9
$REGENMODE
 70
     1
  9
$FILLMODE
 70
     1
  9
$QTEXTMODE
 70
     0
  9
$MIRRTEXT
 70
     1
  9
$DRAGMODE
 70
     2
  9
$LTSCALE
 40
1.0
  9
$OSMODE
 70
    37
  9
$ATTMODE
 70
     1
  9
$TEXTSIZE
 40
2.5
  9
$TRACEWID
 40
1.0
  9
$TEXTSTYLE
  7
STANDARD
  9
$CLAYER
  8
0
  9
$CELTYPE
  6
BYLAYER
  9
$CECOLOR
 62
   256
  9
$CELTSCALE
 40
1.0
  9
$DELOBJ
 70
     1
  9
$DISPSILH
 70
     0
  9
$DIMSCALE
 40
1.0
  9
$DIMASZ
 40
2.5
  9
$DIMEXO
 40
0.625
  9
$DIMDLI
 40
3.75
  9
$DIMRND
 40
0.0
  9
$DIMDLE
 40
0.0
  9
$DIMEXE
 40
1.25
  9
$DIMTP
 40
0.0
  9
$DIMTM
 40
0.0
  9
$DIMTXT
 40
2.5
  9
$DIMCEN
 40
2.5
  9
$DIMTSZ
 40
0.0
  9
$DIMTOL
 70
     0
  9
$DIMLIM
 70
     0
  9
$DIMTIH
 70
     0
  9
$DIMTOH
 70
     0
  9
$DIMSE1
 70
     0
  9
$DIMSE2
 70
     0
  9
$DIMTAD
 70
     1
  9
$DIMZIN
 70
     8
  9
$DIMBLK
  1

  9
$DIMASO
 70
     1
  9
$DIMSHO
 70
     1
  9
$DIMPOST
  1

  9
$DIMAPOST
  1

  9
$DIMALT
 70
     0
  9
$DIMALTD
 70
     3
  9
$DIMALTF
 40
0.03937007874016
  9
$DIMLFAC
 40
1.0
  9
$DIMTOFL
 70
     1
  9
$DIMTVP
 40
0.0
  9
$DIMTIX
 70
     0
  9
$DIMSOXD
 70
     0
  9
$DIMSAH
 70
     0
  9
$DIMBLK1
  1

  9
$DIMBLK2
  1

  9
$DIMSTYLE
  2
ISO-25
  9
$DIMCLRD
 70
     0
  9
$DIMCLRE
 70
     0
  9
$DIMCLRT
 70
     0
  9
$DIMTFAC
 40
1.0
  9
$DIMGAP
 40
0.625
  9
$DIMJUST
 70
     0
  9
$DIMSD1
 70
     0
  9
$DIMSD2
 70
     0
  9
$DIMTOLJ
 70
     0
  9
$DIMTZIN
 70
     8
  9
$DIMALTZ
 70
     0
  9
$DIMALTTZ
 70
     0
  9
$DIMFIT
 70
     3
  9
$DIMUPT
 70
     0
  9
$DIMUNIT
 70
     2
  9
$DIMDEC
 70
     2
  9
$DIMTDEC
 70
     2
  9
$DIMALTU
 70
     2
  9
$DIMALTTD
 70
     3
  9
$DIMTXSTY
  7
STANDARD
  9
$DIMAUNIT
 70
     0
  9
$LUNITS
 70
     2
  9
$LUPREC
 70
     4
  9
$SKETCHINC
 40
1.0
  9
$FILLETRAD
 40
10.0
  9
$AUNITS
 70
     0
  9
$AUPREC
 70
     0
  9
$MENU
  1
.
  9
$ELEVATION
 40
0.0
  9
$PELEVATION
 40
0.0
  9
$THICKNESS
 40
0.0
  9
$LIMCHECK
 70
     0
  9
$BLIPMODE
 70
     0
  9
$CHAMFERA
 40
10.0
  9
$CHAMFERB
 40
10.0
  9
$CHAMFERC
 40
20.0
  9
$CHAMFERD
 40
0.0
  9
$SKPOLY
 70
     0
  9
$TDCREATE
 40
2453935.933843252
  9
$TDUPDATE
 40
2453935.934398680
  9
$TDINDWG
 40
0.0005563542
  9
$TDUSRTIMER
 40
0.0005562384
  9
$USRTIMER
 70
     1
  9
$ANGBASE
 50
0.0
  9
$ANGDIR
 70
     0
  9
$PDMODE
 70
     0
  9
$PDSIZE
 40
0.0
  9
$PLINEWID
 40
0.0
  9
$COORDS
 70
     1
  9
$SPLFRAME
 70
     0
  9
$SPLINETYPE
 70
     6
  9
$SPLINESEGS
 70
     8
  9
$ATTDIA
 70
     0
  9
$ATTREQ
 70
     1
  9
$HANDLING
 70
 22529
  9
$HANDSEED
  5
4A
  9
$SURFTAB1
 70
     6
  9
$SURFTAB2
 70
     6
  9
$SURFTYPE
 70
     6
  9
$SURFU
 70
     6
  9
$SURFV
 70
     6
  9
$UCSNAME
  2

  9
$UCSORG
 10
0.0
 20
0.0
 30
0.0
  9
$UCSXDIR
 10
1.0
 20
0.0
 30
0.0
  9
$UCSYDIR
 10
0.0
 20
1.0
 30
0.0
  9
$PUCSNAME
  2

  9
$PUCSORG
 10
0.0
 20
0.0
 30
0.0
  9
$PUCSXDIR
 10
1.0
 20
0.0
 30
0.0
  9
$PUCSYDIR
 10
0.0
 20
1.0
 30
0.0
  9
$USERI1
 70
     0
  9
$USERI2
 70
     0
  9
$USERI3
 70
     0
  9
$USERI4
 70
     0
  9
$USERI5
 70
     0
  9
$USERR1
 40
0.0
  9
$USERR2
 40
0.0
  9
$USERR3
 40
0.0
  9
$USERR4
 40
0.0
  9
$USERR5
 40
0.0
  9
$WORLDVIEW
 70
     1
  9
$SHADEDGE
 70
     3
  9
$SHADEDIF
 70
    70
  9
$TILEMODE
 70
     1
  9
$MAXACTVP
 70
    64
  9
$PINSBASE
 10
0.0
 20
0.0
 30
0.0
  9
$PLIMCHECK
 70
     0
  9
$PEXTMIN
 10
1.000000000000000E+20
 20
1.000000000000000E+20
 30
1.000000000000000E+20
  9
$PEXTMAX
 10
-1.000000000000000E+20
 20
-1.000000000000000E+20
 30
-1.000000000000000E+20
  9
$PLIMMIN
 10
0.0
 20
0.0
  9
$PLIMMAX
 10
420.0
 20
297.0
  9
$UNITMODE
 70
     0
  9
$VISRETAIN
 70
     1
  9
$PLINEGEN
 70
     0
  9
$PSLTSCALE
 70
     1
  9
$TREEDEPTH
 70
  3020
  9
$PICKSTYLE
 70
     1
  9
$CMLSTYLE
  2
STANDARD
  9
$CMLJUST
 70
     0
  9
$CMLSCALE
 40
20.0
  9
$SAVEIMAGES
 70
     1
  0
ENDSEC
  0
SECTION
  2
CLASSES
  0
CLASS
  1
ACDBDICTIONARYWDFLT
  2
AcDbDictionaryWithDefault
  3
AutoCAD 2000
 90
    32768
280
     0
281
     0
  0
CLASS
  1
ACDBPLACEHOLDER
  2
AcDbPlaceHolder
  3
AutoCAD 2000
 90
    32768
280
     0
281
     0
  0
CLASS
  1
LAYOUT
  2
AcDbLayout
  3
AutoCAD 2000
 90
    32768
280
     0
281
     0
  0
CLASS
  1
DICTIONARYVAR
  2
AcDbDictionaryVar
  3
AutoCAD 2000
 90
    32768
280
     0
281
     0
  0
CLASS
  1
LONG_TRANSACTION
  2
AcDbLongTransaction
  3
AutoCAD 2000
 90
    32768
280
     0
281
     0
  0
CLASS
  1
LWPOLYLINE
  2
AcDbPolyline
  3
AutoCAD 2000
 90
    32768
280
     0
281
     1
  0
CLASS
  1
HATCH
  2
AcDbHatch
  3
AutoCAD 2000
 90
    32768
280
     0
281
     1
  0
CLASS
  1
XRECORD
  2
AcDbXrecord
  3
AutoCAD 2000
 90
    32768
280
     0
281
     0
  0
ENDSEC
  0
SECTION
  2
TABLES
  0
TABLE
  2
VPORT
  5
8
330
0
100
AcDbSymbolTable
 70
     2
  0
VPORT
  5
43
330
8
100
AcDbSymbolTableRecord
100
AcDbViewportTableRecord
  2
*ACTIVE
 70
     0
 10
0.0
 20
0.0
 11
1.0
 21
1.0
 12
505.3812210517317
 22
257.5500453436709
 13
0.0
 23
0.0
 14
10.0
 24
10.0
 15
10.0
 25
10.0
 16
0.0
 26
0.0
 36
1.0
 17
0.0
 27
0.0
 37
0.0
 40
515.1000906873419
 41
1.962264150943396
 42
50.0
 43
0.0
 44
0.0
 50
0.0
 51
0.0
 71
     0
 72
   100
 73
     1
 74
     3
 75
     0
 76
     0
 77
     0
 78
     0
  0
ENDTAB
  0
TABLE
  2
LTYPE
  5
5
330
0
100
AcDbSymbolTable
 70
     1
  0
LTYPE
  5
14
330
5
100
AcDbSymbolTableRecord
100
AcDbLinetypeTableRecord
  2
BYBLOCK
 70
     0
  3

 72
    65
 73
     0
 40
0.0
  0
LTYPE
  5
15
330
5
100
AcDbSymbolTableRecord
100
AcDbLinetypeTableRecord
  2
BYLAYER
 70
     0
  3

 72
    65
 73
     0
 40
0.0
  0
LTYPE
  5
16
330
5
100
AcDbSymbolTableRecord
100
AcDbLinetypeTableRecord
  2
CONTINUOUS
 70
     0
  3
Solid line
 72
    65
 73
     0
 40
0.0
  0
ENDTAB
  0
TABLE
  2
LAYER
  5
2
330
0
100
AcDbSymbolTable
 70
     1
  0
LAYER
  5
10
330
2
100
AcDbSymbolTableRecord
100
AcDbLayerTableRecord
  2
0
 70
     0
 62
     7
  6
CONTINUOUS
  0
ENDTAB
  0
TABLE
  2
STYLE
  5
3
330
0
100
AcDbSymbolTable
 70
     1
  0
STYLE
  5
11
330
3
100
AcDbSymbolTableRecord
100
AcDbTextStyleTableRecord
  2
STANDARD
 70
     0
 40
0.0
 41
1.0
 50
0.0
 71
     0
 42
2.5
  3
txt
  4

  0
ENDTAB
  0
TABLE
  2
VIEW
  5
6
330
0
100
AcDbSymbolTable
 70
     0
  0
ENDTAB
  0
TABLE
  2
UCS
  5
7
330
0
100
AcDbSymbolTable
 70
     0
  0
ENDTAB
  0
TABLE
  2
APPID
  5
9
330
0
100
AcDbSymbolTable
 70
     1
  0
APPID
  5
12
330
9
100
AcDbSymbolTableRecord
100
AcDbRegAppTableRecord
  2
ACAD
 70
     0
  0
ENDTAB
  0
TABLE
  2
DIMSTYLE
  5
A
330
0
100
AcDbSymbolTable
 70
     1
  0
DIMSTYLE
105
27
330
A
100
AcDbSymbolTableRecord
100
AcDbDimStyleTableRecord
  2
ISO-25
 70
     0
  3

  4

  5

  6

  7

 40
1.0
 41
2.5
 42
0.625
 43
3.75
 44
1.25
 45
0.0
 46
0.0
 47
0.0
 48
0.0
140
2.5
141
2.5
142
0.0
143
0.03937007874016
144
1.0
145
0.0
146
1.0
147
0.625
 71
     0
 72
     0
 73
     0
 74
     0
 75
     0
 76
     0
 77
     1
 78
     8
170
     0
171
     3
172
     1
173
     0
174
     0
175
     0
176
     0
177
     0
178
     0
270
     2
271
     2
272
     2
273
     2
274
     3
340
11
275
     0
280
     0
281
     0
282
     0
283
     0
284
     8
285
     0
286
     0
287
     3
288
     0
  0
ENDTAB
  0
TABLE
  2
BLOCK_RECORD
  5
1
330
0
100
AcDbSymbolTable
 70
     1
  0
BLOCK_RECORD
  5
1F
102
{ACAD_XDICTIONARY
360
46
102
}
330
1
100
AcDbSymbolTableRecord
100
AcDbBlockTableRecord
  2
*MODEL_SPACE
  0
BLOCK_RECORD
  5
1B
102
{ACAD_XDICTIONARY
360
44
102
}
330
1
100
AcDbSymbolTableRecord
100
AcDbBlockTableRecord
  2
*PAPER_SPACE
  0
ENDTAB
  0
ENDSEC
  0
SECTION
  2
BLOCKS
  0
BLOCK
  5
20
330
1F
100
AcDbEntity
  8
0
100
AcDbBlockBegin
  2
*MODEL_SPACE
 70
     0
 10
0.0
 20
0.0
 30
0.0
  3
*MODEL_SPACE
  1

  0
ENDBLK
  5
21
330
1F
100
AcDbEntity
  8
0
100
AcDbBlockEnd
  0
BLOCK
  5
1C
330
1B
100
AcDbEntity
 67
     1
  8
0
100
AcDbBlockBegin
  2
*PAPER_SPACE
 70
     0
 10
0.0
 20
0.0
 30
0.0
  3
*PAPER_SPACE
  1

  0
ENDBLK
  5
1D
330
1B
100
AcDbEntity
 67
     1
  8
0
100
AcDbBlockEnd
  0
ENDSEC
  0
SECTION
  2
ENTITIES
  0
LINE
  5
100
330
1F
100
AcDbEntity
  8
0
  62
5
100
AcDbLine
 10
726.500000
 20
145.875000
 30
0.000000
 11
724.875000
 21
147.500000
 31
0.000000
  0
LINE
  5
101
330
1F
100
AcDbEntity
  8
0
  62
5
100
AcDbLine
 10
724.875000
 20
147.500000
 30
0.000000
 11
720.000000
 21
147.500000
 31
0.000000
  0
LINE
  5
102
330
1F
100
AcDbEntity
  8
0
  62
5
100
AcDbLine
 10
720.000000
 20
147.500000
 30
0.000000
 11
720.000000
 21
152.437000
 31
0.000000
  0
LINE
  5
103
330
1F
100
AcDbEntity
  8
0
  62
5
100
AcDbLine
 10
720.000000
 20
152.437000
 30
0.000000
 11
712.938000
 21
152.437000
 31
0.000000
  0
LINE
  5
104
330
1F
100
AcDbEntity
  8
0
  62
5
100
AcDbLine
 10
712.938000
 20
152.437000
 30
0.000000
 11
712.938000
 21
150.300000
 31
0.000000
  0
LINE
  5
105
330
1F
100
AcDbEntity
  8
0
  62
5
100
AcDbLine
 10
712.938000
 20
150.300000
 30
0.000000
 11
707.562000
 21
150.300000
 31
0.000000
  0
LINE
  5
106
330
1F
100
AcDbEntity
  8
0
  62
5
100
AcDbLine
 10
707.562000
 20
150.300000
 30
0.000000
 11
707.562000
 21
152.437000
 31
0.000000
  0
LINE
  5
107
330
1F
100
AcDbEntity
  8
0
  62
5
100
AcDbLine
 10
707.562000
 20
152.437000
 30
0.000000
 11
706.188000
 21
152.437000
 31
0.000000
  0
LINE
  5
108
330
1F
100
AcDbEntity
  8
0
  62
5
100
AcDbLine
 10
706.188000
 20
152.437000
 30
0.000000
 11
706.188000
 21
157.563000
 31
0.000000
  0
LINE
  5
109
330
1F
100
AcDbEntity
  8
0
  62
5
100
AcDbLine
 10
706.188000
 20
157.563000
 30
0.000000
 11
707.562000
 21
157.563000
 31
0.000000
  0
LINE
  5
110
330
1F
100
AcDbEntity
  8
0
  62
5
100
AcDbLine
 10
707.562000
 20
157.563000
 30
0.000000
 11
707.562000
 21
159.700000
 31
0.000000
  0
LINE
  5
111
330
1F
100
AcDbEntity
  8
0
  62
5
100
AcDbLine
 10
707.562000
 20
159.700000
 30
0.000000
 11
712.938000
 21
159.700000
 31
0.000000
  0
LINE
  5
112
330
1F
100
AcDbEntity
  8
0
  62
5
100
AcDbLine
 10
712.938000
 20
159.700000
 30
0.000000
 11
712.938000
 21
157.563000
 31
0.000000
  0
LINE
  5
113
330
1F
100
AcDbEntity
  8
0
  62
5
100
AcDbLine
 10
712.938000
 20
157.563000
 30
0.000000
 11
720.000000
 21
157.563000
 31
0.000000
  0
LINE
  5
114
330
1F
100
AcDbEntity
  8
0
  62
5
100
AcDbLine
 10
720.000000
 20
157.563000
 30
0.000000
 11
720.000000
 21
162.500000
 31
0.000000
  0
LINE
  5
115
330
1F
100
AcDbEntity
  8
0
  62
5
100
AcDbLine
 10
720.000000
 20
162.500000
 30
0.000000
 11
724.875000
 21
162.500000
 31
0.000000
  0
LINE
  5
116
330
1F
100
AcDbEntity
  8
0
  62
5
100
AcDbLine
 10
724.875000
 20
162.500000
 30
0.000000
 11
726.500000
 21
164.125000
 31
0.000000
  0
LINE
  5
117
330
1F
100
AcDbEntity
  8
0
  62
5
100
AcDbLine
 10
726.500000
 20
164.125000
 30
0.000000
 11
726.500000
 21
175.875000
 31
0.000000
  0
LINE
  5
118
330
1F
100
AcDbEntity
  8
0
  62
5
100
AcDbLine
 10
726.500000
 20
175.875000
 30
0.000000
 11
724.875000
 21
177.500000
 31
0.000000
  0
LINE
  5
119
330
1F
100
AcDbEntity
  8
0
  62
5
100
AcDbLine
 10
724.875000
 20
177.500000
 30
0.000000
 11
720.000000
 21
177.500000
 31
0.000000
  0
LINE
  5
120
330
1F
100
AcDbEntity
  8
0
  62
5
100
AcDbLine
 10
720.000000
 20
177.500000
 30
0.000000
 11
720.000000
 21
277.500000
 31
0.000000
  0
LINE
  5
121
330
1F
100
AcDbEntity
  8
0
  62
5
100
AcDbLine
 10
720.000000
 20
277.500000
 30
0.000000
 11
724.875000
 21
277.500000
 31
0.000000
  0
LINE
  5
122
330
1F
100
AcDbEntity
  8
0
  62
5
100
AcDbLine
 10
724.875000
 20
277.500000
 30
0.000000
 11
726.500000
 21
279.125000
 31
0.000000
  0
LINE
  5
123
330
1F
100
AcDbEntity
  8
0
  62
5
100
AcDbLine
 10
726.500000
 20
279.125000
 30
0.000000
 11
726.500000
 21
290.875000
 31
0.000000
  0
LINE
  5
124
330
1F
100
AcDbEntity
  8
0
  62
5
100
AcDbLine
 10
726.500000
 20
290.875000
 30
0.000000
 11
724.875000
 21
292.500000
 31
0.000000
  0
LINE
  5
125
330
1F
100
AcDbEntity
  8
0
  62
5
100
AcDbLine
 10
724.875000
 20
292.500000
 30
0.000000
 11
720.000000
 21
292.500000
 31
0.000000
  0
LINE
  5
126
330
1F
100
AcDbEntity
  8
0
  62
5
100
AcDbLine
 10
720.000000
 20
292.500000
 30
0.000000
 11
720.000000
 21
297.437010
 31
0.000000
  0
LINE
  5
127
330
1F
100
AcDbEntity
  8
0
  62
5
100
AcDbLine
 10
720.000000
 20
297.437010
 30
0.000000
 11
712.938000
 21
297.437010
 31
0.000000
  0
LINE
  5
128
330
1F
100
AcDbEntity
  8
0
  62
5
100
AcDbLine
 10
712.938000
 20
297.437010
 30
0.000000
 11
712.938000
 21
295.300000
 31
0.000000
  0
LINE
  5
129
330
1F
100
AcDbEntity
  8
0
  62
5
100
AcDbLine
 10
712.938000
 20
295.300000
 30
0.000000
 11
707.562000
 21
295.300000
 31
0.000000
  0
LINE
  5
130
330
1F
100
AcDbEntity
  8
0
  62
5
100
AcDbLine
 10
707.562000
 20
295.300000
 30
0.000000
 11
707.562000
 21
297.437010
 31
0.000000
  0
LINE
  5
131
330
1F
100
AcDbEntity
  8
0
  62
5
100
AcDbLine
 10
707.562000
 20
297.437010
 30
0.000000
 11
706.188000
 21
297.437010
 31
0.000000
  0
LINE
  5
132
330
1F
100
AcDbEntity
  8
0
  62
5
100
AcDbLine
 10
706.188000
 20
297.437010
 30
0.000000
 11
706.188000
 21
302.562990
 31
0.000000
  0
LINE
  5
133
330
1F
100
AcDbEntity
  8
0
  62
5
100
AcDbLine
 10
706.188000
 20
302.562990
 30
0.000000
 11
707.562000
 21
302.562990
 31
0.000000
  0
LINE
  5
134
330
1F
100
AcDbEntity
  8
0
  62
5
100
AcDbLine
 10
707.562000
 20
302.562990
 30
0.000000
 11
707.562000
 21
304.700000
 31
0.000000
  0
LINE
  5
135
330
1F
100
AcDbEntity
  8
0
  62
5
100
AcDbLine
 10
707.562000
 20
304.700000
 30
0.000000
 11
712.938000
 21
304.700000
 31
0.000000
  0
LINE
  5
136
330
1F
100
AcDbEntity
  8
0
  62
5
100
AcDbLine
 10
712.938000
 20
304.700000
 30
0.000000
 11
712.938000
 21
302.562990
 31
0.000000
  0
LINE
  5
137
330
1F
100
AcDbEntity
  8
0
  62
5
100
AcDbLine
 10
712.938000
 20
302.562990
 30
0.000000
 11
720.000000
 21
302.562990
 31
0.000000
  0
LINE
  5
138
330
1F
100
AcDbEntity
  8
0
  62
5
100
AcDbLine
 10
720.000000
 20
302.562990
 30
0.000000
 11
720.000000
 21
307.500000
 31
0.000000
  0
LINE
  5
139
330
1F
100
AcDbEntity
  8
0
  62
5
100
AcDbLine
 10
720.000000
 20
307.500000
 30
0.000000
 11
724.875000
 21
307.500000
 31
0.000000
  0
LINE
  5
140
330
1F
100
AcDbEntity
  8
0
  62
5
100
AcDbLine
 10
724.875000
 20
307.500000
 30
0.000000
 11
726.500000
 21
309.125000
 31
0.000000
  0
LINE
  5
141
330
1F
100
AcDbEntity
  8
0
  62
5
100
AcDbLine
 10
726.500000
 20
309.125000
 30
0.000000
 11
726.500000
 21
320.875000
 31
0.000000
  0
LINE
  5
142
330
1F
100
AcDbEntity
  8
0
  62
5
100
AcDbLine
 10
726.500000
 20
320.875000
 30
0.000000
 11
724.875000
 21
322.500000
 31
0.000000
  0
LINE
  5
143
330
1F
100
AcDbEntity
  8
0
  62
5
100
AcDbLine
 10
724.875000
 20
322.500000
 30
0.000000
 11
720.000000
 21
322.500000
 31
0.000000
  0
LINE
  5
144
330
1F
100
AcDbEntity
  8
0
  62
5
100
AcDbLine
 10
720.000000
 20
322.500000
 30
0.000000
 11
720.000000
 21
422.500000
 31
0.000000
  0
LINE
  5
145
330
1F
100
AcDbEntity
  8
0
  62
5
100
AcDbLine
 10
720.000000
 20
422.500000
 30
0.000000
 11
724.875000
 21
422.500000
 31
0.000000
  0
LINE
  5
146
330
1F
100
AcDbEntity
  8
0
  62
5
100
AcDbLine
 10
724.875000
 20
422.500000
 30
0.000000
 11
726.500000
 21
424.125000
 31
0.000000
  0
LINE
  5
147
330
1F
100
AcDbEntity
  8
0
  62
5
100
AcDbLine
 10
726.500000
 20
424.125000
 30
0.000000
 11
726.500000
 21
435.875000
 31
0.000000
  0
LINE
  5
148
330
1F
100
AcDbEntity
  8
0
  62
5
100
AcDbLine
 10
726.500000
 20
435.875000
 30
0.000000
 11
724.875000
 21
437.500000
 31
0.000000
  0
LINE
  5
149
330
1F
100
AcDbEntity
  8
0
  62
5
100
AcDbLine
 10
724.875000
 20
437.500000
 30
0.000000
 11
720.000000
 21
437.500000
 31
0.000000
  0
LINE
  5
150
330
1F
100
AcDbEntity
  8
0
  62
5
100
AcDbLine
 10
720.000000
 20
437.500000
 30
0.000000
 11
720.000000
 21
442.437000
 31
0.000000
  0
LINE
  5
151
330
1F
100
AcDbEntity
  8
0
  62
5
100
AcDbLine
 10
720.000000
 20
442.437000
 30
0.000000
 11
712.938000
 21
442.437000
 31
0.000000
  0
LINE
  5
152
330
1F
100
AcDbEntity
  8
0
  62
5
100
AcDbLine
 10
712.938000
 20
442.437000
 30
0.000000
 11
712.938000
 21
440.300000
 31
0.000000
  0
LINE
  5
153
330
1F
100
AcDbEntity
  8
0
  62
5
100
AcDbLine
 10
712.938000
 20
440.300000
 30
0.000000
 11
707.562000
 21
440.300000
 31
0.000000
  0
LINE
  5
154
330
1F
100
AcDbEntity
  8
0
  62
5
100
AcDbLine
 10
707.562000
 20
440.300000
 30
0.000000
 11
707.562000
 21
442.437000
 31
0.000000
  0
LINE
  5
155
330
1F
100
AcDbEntity
  8
0
  62
5
100
AcDbLine
 10
707.562000
 20
442.437000
 30
0.000000
 11
706.188000
 21
442.437000
 31
0.000000
  0
LINE
  5
156
330
1F
100
AcDbEntity
  8
0
  62
5
100
AcDbLine
 10
706.188000
 20
442.437000
 30
0.000000
 11
706.188000
 21
447.563000
 31
0.000000
  0
LINE
  5
157
330
1F
100
AcDbEntity
  8
0
  62
5
100
AcDbLine
 10
706.188000
 20
447.563000
 30
0.000000
 11
707.562000
 21
447.563000
 31
0.000000
  0
LINE
  5
158
330
1F
100
AcDbEntity
  8
0
  62
5
100
AcDbLine
 10
707.562000
 20
447.563000
 30
0.000000
 11
707.562000
 21
449.700000
 31
0.000000
  0
LINE
  5
159
330
1F
100
AcDbEntity
  8
0
  62
5
100
AcDbLine
 10
707.562000
 20
449.700000
 30
0.000000
 11
712.938000
 21
449.700000
 31
0.000000
  0
LINE
  5
160
330
1F
100
AcDbEntity
  8
0
  62
5
100
AcDbLine
 10
712.938000
 20
449.700000
 30
0.000000
 11
712.938000
 21
447.563000
 31
0.000000
  0
LINE
  5
161
330
1F
100
AcDbEntity
  8
0
  62
5
100
AcDbLine
 10
712.938000
 20
447.563000
 30
0.000000
 11
720.000000
 21
447.563000
 31
0.000000
  0
LINE
  5
162
330
1F
100
AcDbEntity
  8
0
  62
5
100
AcDbLine
 10
720.000000
 20
447.563000
 30
0.000000
 11
720.000000
 21
452.500000
 31
0.000000
  0
LINE
  5
163
330
1F
100
AcDbEntity
  8
0
  62
5
100
AcDbLine
 10
720.000000
 20
452.500000
 30
0.000000
 11
724.875000
 21
452.500000
 31
0.000000
  0
LINE
  5
164
330
1F
100
AcDbEntity
  8
0
  62
5
100
AcDbLine
 10
724.875000
 20
452.500000
 30
0.000000
 11
726.500000
 21
454.125000
 31
0.000000
  0
LINE
  5
165
330
1F
100
AcDbEntity
  8
0
  62
5
100
AcDbLine
 10
726.500000
 20
454.125000
 30
0.000000
 11
726.500000
 21
465.875000
 31
0.000000
  0
LINE
  5
166
330
1F
100
AcDbEntity
  8
0
  62
5
100
AcDbLine
 10
726.500000
 20
465.875000
 30
0.000000
 11
724.875000
 21
467.500000
 31
0.000000
  0
LINE
  5
167
330
1F
100
AcDbEntity
  8
0
  62
5
100
AcDbLine
 10
724.875000
 20
467.500000
 30
0.000000
 11
720.000000
 21
467.500000
 31
0.000000
  0
LINE
  5
168
330
1F
100
AcDbEntity
  8
0
  62
5
100
AcDbLine
 10
720.000000
 20
467.500000
 30
0.000000
 11
720.000000
 21
525.000000
 31
0.000000
  0
LINE
  5
169
330
1F
100
AcDbEntity
  8
0
  62
5
100
AcDbLine
 10
720.000000
 20
525.000000
 30
0.000000
 11
680.000000
 21
525.000000
 31
0.000000
  0
LINE
  5
170
330
1F
100
AcDbEntity
  8
0
  62
5
100
AcDbLine
 10
680.000000
 20
525.000000
 30
0.000000
 11
680.000000
 21
545.000000
 31
0.000000
  0
LINE
  5
171
330
1F
100
AcDbEntity
  8
0
  62
5
100
AcDbLine
 10
680.000000
 20
545.000000
 30
0.000000
 11
642.500000
 21
545.000000
 31
0.000000
  0
LINE
  5
172
330
1F
100
AcDbEntity
  8
0
  62
5
100
AcDbLine
 10
642.500000
 20
545.000000
 30
0.000000
 11
320.000000
 21
545.000000
 31
0.000000
  0
LINE
  5
173
330
1F
100
AcDbEntity
  8
0
  62
5
100
AcDbLine
 10
320.000000
 20
545.000000
 30
0.000000
 11
320.000000
 21
525.000000
 31
0.000000
  0
LINE
  5
174
330
1F
100
AcDbEntity
  8
0
  62
5
100
AcDbLine
 10
320.000000
 20
525.000000
 30
0.000000
 11
295.750000
 21
525.000000
 31
0.000000
  0
LINE
  5
175
330
1F
100
AcDbEntity
  8
0
  62
5
100
AcDbLine
 10
295.750000
 20
525.000000
 30
0.000000
 11
295.750000
 21
523.000000
 31
0.000000
  0
LINE
  5
176
330
1F
100
AcDbEntity
  8
0
  62
5
100
AcDbLine
 10
295.750000
 20
523.000000
 30
0.000000
 11
284.250000
 21
523.000000
 31
0.000000
  0
LINE
  5
177
330
1F
100
AcDbEntity
  8
0
  62
5
100
AcDbLine
 10
284.250000
 20
523.000000
 30
0.000000
 11
284.250000
 21
525.000000
 31
0.000000
  0
LINE
  5
178
330
1F
100
AcDbEntity
  8
0
  62
5
100
AcDbLine
 10
284.250000
 20
525.000000
 30
0.000000
 11
280.000000
 21
525.000000
 31
0.000000
  0
LINE
  5
179
330
1F
100
AcDbEntity
  8
0
  62
5
100
AcDbLine
 10
280.000000
 20
525.000000
 30
0.000000
 11
280.000000
 21
467.500000
 31
0.000000
  0
LINE
  5
180
330
1F
100
AcDbEntity
  8
0
  62
5
100
AcDbLine
 10
280.000000
 20
467.500000
 30
0.000000
 11
275.125000
 21
467.500000
 31
0.000000
  0
LINE
  5
181
330
1F
100
AcDbEntity
  8
0
  62
5
100
AcDbLine
 10
275.125000
 20
467.500000
 30
0.000000
 11
273.500000
 21
465.875000
 31
0.000000
  0
LINE
  5
182
330
1F
100
AcDbEntity
  8
0
  62
5
100
AcDbLine
 10
273.500000
 20
465.875000
 30
0.000000
 11
273.500000
 21
454.125000
 31
0.000000
  0
LINE
  5
183
330
1F
100
AcDbEntity
  8
0
  62
5
100
AcDbLine
 10
273.500000
 20
454.125000
 30
0.000000
 11
275.125000
 21
452.500000
 31
0.000000
  0
LINE
  5
184
330
1F
100
AcDbEntity
  8
0
  62
5
100
AcDbLine
 10
275.125000
 20
452.500000
 30
0.000000
 11
280.000000
 21
452.500000
 31
0.000000
  0
LINE
  5
185
330
1F
100
AcDbEntity
  8
0
  62
5
100
AcDbLine
 10
280.000000
 20
452.500000
 30
0.000000
 11
280.000000
 21
447.563000
 31
0.000000
  0
LINE
  5
186
330
1F
100
AcDbEntity
  8
0
  62
5
100
AcDbLine
 10
280.000000
 20
447.563000
 30
0.000000
 11
287.062000
 21
447.563000
 31
0.000000
  0
LINE
  5
187
330
1F
100
AcDbEntity
  8
0
  62
5
100
AcDbLine
 10
287.062000
 20
447.563000
 30
0.000000
 11
287.062000
 21
449.700000
 31
0.000000
  0
LINE
  5
188
330
1F
100
AcDbEntity
  8
0
  62
5
100
AcDbLine
 10
287.062000
 20
449.700000
 30
0.000000
 11
292.438000
 21
449.700000
 31
0.000000
  0
LINE
  5
189
330
1F
100
AcDbEntity
  8
0
  62
5
100
AcDbLine
 10
292.438000
 20
449.700000
 30
0.000000
 11
292.438000
 21
447.563000
 31
0.000000
  0
LINE
  5
190
330
1F
100
AcDbEntity
  8
0
  62
5
100
AcDbLine
 10
292.438000
 20
447.563000
 30
0.000000
 11
293.812000
 21
447.563000
 31
0.000000
  0
LINE
  5
191
330
1F
100
AcDbEntity
  8
0
  62
5
100
AcDbLine
 10
293.812000
 20
447.563000
 30
0.000000
 11
293.812000
 21
442.437000
 31
0.000000
  0
LINE
  5
192
330
1F
100
AcDbEntity
  8
0
  62
5
100
AcDbLine
 10
293.812000
 20
442.437000
 30
0.000000
 11
292.438000
 21
442.437000
 31
0.000000
  0
LINE
  5
193
330
1F
100
AcDbEntity
  8
0
  62
5
100
AcDbLine
 10
292.438000
 20
442.437000
 30
0.000000
 11
292.438000
 21
440.300000
 31
0.000000
  0
LINE
  5
194
330
1F
100
AcDbEntity
  8
0
  62
5
100
AcDbLine
 10
292.438000
 20
440.300000
 30
0.000000
 11
287.062000
 21
440.300000
 31
0.000000
  0
LINE
  5
195
330
1F
100
AcDbEntity
  8
0
  62
5
100
AcDbLine
 10
287.062000
 20
440.300000
 30
0.000000
 11
287.062000
 21
442.437000
 31
0.000000
  0
LINE
  5
196
330
1F
100
AcDbEntity
  8
0
  62
5
100
AcDbLine
 10
287.062000
 20
442.437000
 30
0.000000
 11
280.000000
 21
442.437000
 31
0.000000
  0
LINE
  5
197
330
1F
100
AcDbEntity
  8
0
  62
5
100
AcDbLine
 10
280.000000
 20
442.437000
 30
0.000000
 11
280.000000
 21
437.500000
 31
0.000000
  0
LINE
  5
198
330
1F
100
AcDbEntity
  8
0
  62
5
100
AcDbLine
 10
280.000000
 20
437.500000
 30
0.000000
 11
275.125000
 21
437.500000
 31
0.000000
  0
LINE
  5
199
330
1F
100
AcDbEntity
  8
0
  62
5
100
AcDbLine
 10
275.125000
 20
437.500000
 30
0.000000
 11
273.500000
 21
435.875000
 31
0.000000
  0
LINE
  5
200
330
1F
100
AcDbEntity
  8
0
  62
5
100
AcDbLine
 10
273.500000
 20
435.875000
 30
0.000000
 11
273.500000
 21
424.125000
 31
0.000000
  0
LINE
  5
201
330
1F
100
AcDbEntity
  8
0
  62
5
100
AcDbLine
 10
273.500000
 20
424.125000
 30
0.000000
 11
275.125000
 21
422.500000
 31
0.000000
  0
LINE
  5
202
330
1F
100
AcDbEntity
  8
0
  62
5
100
AcDbLine
 10
275.125000
 20
422.500000
 30
0.000000
 11
280.000000
 21
422.500000
 31
0.000000
  0
LINE
  5
203
330
1F
100
AcDbEntity
  8
0
  62
5
100
AcDbLine
 10
280.000000
 20
422.500000
 30
0.000000
 11
280.000000
 21
322.500000
 31
0.000000
  0
LINE
  5
204
330
1F
100
AcDbEntity
  8
0
  62
5
100
AcDbLine
 10
280.000000
 20
322.500000
 30
0.000000
 11
275.125000
 21
322.500000
 31
0.000000
  0
LINE
  5
205
330
1F
100
AcDbEntity
  8
0
  62
5
100
AcDbLine
 10
275.125000
 20
322.500000
 30
0.000000
 11
273.500000
 21
320.875000
 31
0.000000
  0
LINE
  5
206
330
1F
100
AcDbEntity
  8
0
  62
5
100
AcDbLine
 10
273.500000
 20
320.875000
 30
0.000000
 11
273.500000
 21
309.125000
 31
0.000000
  0
LINE
  5
207
330
1F
100
AcDbEntity
  8
0
  62
5
100
AcDbLine
 10
273.500000
 20
309.125000
 30
0.000000
 11
275.125000
 21
307.500000
 31
0.000000
  0
LINE
  5
208
330
1F
100
AcDbEntity
  8
0
  62
5
100
AcDbLine
 10
275.125000
 20
307.500000
 30
0.000000
 11
280.000000
 21
307.500000
 31
0.000000
  0
LINE
  5
209
330
1F
100
AcDbEntity
  8
0
  62
5
100
AcDbLine
 10
280.000000
 20
307.500000
 30
0.000000
 11
280.000000
 21
302.562990
 31
0.000000
  0
LINE
  5
210
330
1F
100
AcDbEntity
  8
0
  62
5
100
AcDbLine
 10
280.000000
 20
302.562990
 30
0.000000
 11
287.062000
 21
302.562990
 31
0.000000
  0
LINE
  5
211
330
1F
100
AcDbEntity
  8
0
  62
5
100
AcDbLine
 10
287.062000
 20
302.562990
 30
0.000000
 11
287.062000
 21
304.700000
 31
0.000000
  0
LINE
  5
212
330
1F
100
AcDbEntity
  8
0
  62
5
100
AcDbLine
 10
287.062000
 20
304.700000
 30
0.000000
 11
292.438000
 21
304.700000
 31
0.000000
  0
LINE
  5
213
330
1F
100
AcDbEntity
  8
0
  62
5
100
AcDbLine
 10
292.438000
 20
304.700000
 30
0.000000
 11
292.438000
 21
302.562990
 31
0.000000
  0
LINE
  5
214
330
1F
100
AcDbEntity
  8
0
  62
5
100
AcDbLine
 10
292.438000
 20
302.562990
 30
0.000000
 11
293.812000
 21
302.562990
 31
0.000000
  0
LINE
  5
215
330
1F
100
AcDbEntity
  8
0
  62
5
100
AcDbLine
 10
293.812000
 20
302.562990
 30
0.000000
 11
293.812000
 21
297.437010
 31
0.000000
  0
LINE
  5
216
330
1F
100
AcDbEntity
  8
0
  62
5
100
AcDbLine
 10
293.812000
 20
297.437010
 30
0.000000
 11
292.438000
 21
297.437010
 31
0.000000
  0
LINE
  5
217
330
1F
100
AcDbEntity
  8
0
  62
5
100
AcDbLine
 10
292.438000
 20
297.437010
 30
0.000000
 11
292.438000
 21
295.300000
 31
0.000000
  0
LINE
  5
218
330
1F
100
AcDbEntity
  8
0
  62
5
100
AcDbLine
 10
292.438000
 20
295.300000
 30
0.000000
 11
287.062000
 21
295.300000
 31
0.000000
  0
LINE
  5
219
330
1F
100
AcDbEntity
  8
0
  62
5
100
AcDbLine
 10
287.062000
 20
295.300000
 30
0.000000
 11
287.062000
 21
297.437010
 31
0.000000
  0
LINE
  5
220
330
1F
100
AcDbEntity
  8
0
  62
5
100
AcDbLine
 10
287.062000
 20
297.437010
 30
0.000000
 11
280.000000
 21
297.437010
 31
0.000000
  0
LINE
  5
221
330
1F
100
AcDbEntity
  8
0
  62
5
100
AcDbLine
 10
280.000000
 20
297.437010
 30
0.000000
 11
280.000000
 21
292.500000
 31
0.000000
  0
LINE
  5
222
330
1F
100
AcDbEntity
  8
0
  62
5
100
AcDbLine
 10
280.000000
 20
292.500000
 30
0.000000
 11
275.125000
 21
292.500000
 31
0.000000
  0
LINE
  5
223
330
1F
100
AcDbEntity
  8
0
  62
5
100
AcDbLine
 10
275.125000
 20
292.500000
 30
0.000000
 11
273.500000
 21
290.875000
 31
0.000000
  0
LINE
  5
224
330
1F
100
AcDbEntity
  8
0
  62
5
100
AcDbLine
 10
273.500000
 20
290.875000
 30
0.000000
 11
273.500000
 21
279.125000
 31
0.000000
  0
LINE
  5
225
330
1F
100
AcDbEntity
  8
0
  62
5
100
AcDbLine
 10
273.500000
 20
279.125000
 30
0.000000
 11
275.125000
 21
277.500000
 31
0.000000
  0
LINE
  5
226
330
1F
100
AcDbEntity
  8
0
  62
5
100
AcDbLine
 10
275.125000
 20
277.500000
 30
0.000000
 11
280.000000
 21
277.500000
 31
0.000000
  0
LINE
  5
227
330
1F
100
AcDbEntity
  8
0
  62
5
100
AcDbLine
 10
280.000000
 20
277.500000
 30
0.000000
 11
280.000000
 21
177.500000
 31
0.000000
  0
LINE
  5
228
330
1F
100
AcDbEntity
  8
0
  62
5
100
AcDbLine
 10
280.000000
 20
177.500000
 30
0.000000
 11
275.125000
 21
177.500000
 31
0.000000
  0
LINE
  5
229
330
1F
100
AcDbEntity
  8
0
  62
5
100
AcDbLine
 10
275.125000
 20
177.500000
 30
0.000000
 11
273.500000
 21
175.875000
 31
0.000000
  0
LINE
  5
230
330
1F
100
AcDbEntity
  8
0
  62
5
100
AcDbLine
 10
273.500000
 20
175.875000
 30
0.000000
 11
273.500000
 21
164.125000
 31
0.000000
  0
LINE
  5
231
330
1F
100
AcDbEntity
  8
0
  62
5
100
AcDbLine
 10
273.500000
 20
164.125000
 30
0.000000
 11
275.125000
 21
162.500000
 31
0.000000
  0
LINE
  5
232
330
1F
100
AcDbEntity
  8
0
  62
5
100
AcDbLine
 10
275.125000
 20
162.500000
 30
0.000000
 11
280.000000
 21
162.500000
 31
0.000000
  0
LINE
  5
233
330
1F
100
AcDbEntity
  8
0
  62
5
100
AcDbLine
 10
280.000000
 20
162.500000
 30
0.000000
 11
280.000000
 21
157.563000
 31
0.000000
  0
LINE
  5
234
330
1F
100
AcDbEntity
  8
0
  62
5
100
AcDbLine
 10
280.000000
 20
157.563000
 30
0.000000
 11
287.062000
 21
157.563000
 31
0.000000
  0
LINE
  5
235
330
1F
100
AcDbEntity
  8
0
  62
5
100
AcDbLine
 10
287.062000
 20
157.563000
 30
0.000000
 11
287.062000
 21
159.700000
 31
0.000000
  0
LINE
  5
236
330
1F
100
AcDbEntity
  8
0
  62
5
100
AcDbLine
 10
287.062000
 20
159.700000
 30
0.000000
 11
292.438000
 21
159.700000
 31
0.000000
  0
LINE
  5
237
330
1F
100
AcDbEntity
  8
0
  62
5
100
AcDbLine
 10
292.438000
 20
159.700000
 30
0.000000
 11
292.438000
 21
157.563000
 31
0.000000
  0
LINE
  5
238
330
1F
100
AcDbEntity
  8
0
  62
5
100
AcDbLine
 10
292.438000
 20
157.563000
 30
0.000000
 11
293.812000
 21
157.563000
 31
0.000000
  0
LINE
  5
239
330
1F
100
AcDbEntity
  8
0
  62
5
100
AcDbLine
 10
293.812000
 20
157.563000
 30
0.000000
 11
293.812000
 21
152.437000
 31
0.000000
  0
LINE
  5
240
330
1F
100
AcDbEntity
  8
0
  62
5
100
AcDbLine
 10
293.812000
 20
152.437000
 30
0.000000
 11
292.438000
 21
152.437000
 31
0.000000
  0
LINE
  5
241
330
1F
100
AcDbEntity
  8
0
  62
5
100
AcDbLine
 10
292.438000
 20
152.437000
 30
0.000000
 11
292.438000
 21
150.300000
 31
0.000000
  0
LINE
  5
242
330
1F
100
AcDbEntity
  8
0
  62
5
100
AcDbLine
 10
292.438000
 20
150.300000
 30
0.000000
 11
287.062000
 21
150.300000
 31
0.000000
  0
LINE
  5
243
330
1F
100
AcDbEntity
  8
0
  62
5
100
AcDbLine
 10
287.062000
 20
150.300000
 30
0.000000
 11
287.062000
 21
152.437000
 31
0.000000
  0
LINE
  5
244
330
1F
100
AcDbEntity
  8
0
  62
5
100
AcDbLine
 10
287.062000
 20
152.437000
 30
0.000000
 11
280.000000
 21
152.437000
 31
0.000000
  0
LINE
  5
245
330
1F
100
AcDbEntity
  8
0
  62
5
100
AcDbLine
 10
280.000000
 20
152.437000
 30
0.000000
 11
280.000000
 21
147.500000
 31
0.000000
  0
LINE
  5
246
330
1F
100
AcDbEntity
  8
0
  62
5
100
AcDbLine
 10
280.000000
 20
147.500000
 30
0.000000
 11
275.125000
 21
147.500000
 31
0.000000
  0
LINE
  5
247
330
1F
100
AcDbEntity
  8
0
  62
5
100
AcDbLine
 10
275.125000
 20
147.500000
 30
0.000000
 11
273.500000
 21
145.875000
 31
0.000000
  0
LINE
  5
248
330
1F
100
AcDbEntity
  8
0
  62
5
100
AcDbLine
 10
273.500000
 20
145.875000
 30
0.000000
 11
273.500000
 21
134.125000
 31
0.000000
  0
LINE
  5
249
330
1F
100
AcDbEntity
  8
0
  62
5
100
AcDbLine
 10
273.500000
 20
134.125000
 30
0.000000
 11
275.125000
 21
132.500000
 31
0.000000
  0
LINE
  5
250
330
1F
100
AcDbEntity
  8
0
  62
5
100
AcDbLine
 10
275.125000
 20
132.500000
 30
0.000000
 11
280.000000
 21
132.500000
 31
0.000000
  0
LINE
  5
251
330
1F
100
AcDbEntity
  8
0
  62
5
100
AcDbLine
 10
280.000000
 20
132.500000
 30
0.000000
 11
280.000000
 21
75.000000
 31
0.000000
  0
LINE
  5
252
330
1F
100
AcDbEntity
  8
0
  62
5
100
AcDbLine
 10
280.000000
 20
75.000000
 30
0.000000
 11
284.250000
 21
75.000000
 31
0.000000
  0
LINE
  5
253
330
1F
100
AcDbEntity
  8
0
  62
5
100
AcDbLine
 10
284.250000
 20
75.000000
 30
0.000000
 11
284.250000
 21
77.000000
 31
0.000000
  0
LINE
  5
254
330
1F
100
AcDbEntity
  8
0
  62
5
100
AcDbLine
 10
284.250000
 20
77.000000
 30
0.000000
 11
295.750000
 21
77.000000
 31
0.000000
  0
LINE
  5
255
330
1F
100
AcDbEntity
  8
0
  62
5
100
AcDbLine
 10
295.750000
 20
77.000000
 30
0.000000
 11
295.750000
 21
75.000000
 31
0.000000
  0
LINE
  5
256
330
1F
100
AcDbEntity
  8
0
  62
5
100
AcDbLine
 10
295.750000
 20
75.000000
 30
0.000000
 11
320.000000
 21
75.000000
 31
0.000000
  0
LINE
  5
257
330
1F
100
AcDbEntity
  8
0
  62
5
100
AcDbLine
 10
320.000000
 20
75.000000
 30
0.000000
 11
320.000000
 21
55.000000
 31
0.000000
  0
LINE
  5
258
330
1F
100
AcDbEntity
  8
0
  62
5
100
AcDbLine
 10
320.000000
 20
55.000000
 30
0.000000
 11
357.500000
 21
55.000000
 31
0.000000
  0
LINE
  5
259
330
1F
100
AcDbEntity
  8
0
  62
5
100
AcDbLine
 10
357.500000
 20
55.000000
 30
0.000000
 11
680.000000
 21
55.000000
 31
0.000000
  0
LINE
  5
260
330
1F
100
AcDbEntity
  8
0
  62
5
100
AcDbLine
 10
680.000000
 20
55.000000
 30
0.000000
 11
680.000000
 21
75.000000
 31
0.000000
  0
LINE
  5
261
330
1F
100
AcDbEntity
  8
0
  62
5
100
AcDbLine
 10
680.000000
 20
75.000000
 30
0.000000
 11
720.000000
 21
75.000000
 31
0.000000
  0
LINE
  5
262
330
1F
100
AcDbEntity
  8
0
  62
5
100
AcDbLine
 10
720.000000
 20
75.000000
 30
0.000000
 11
720.000000
 21
132.500000
 31
0.000000
  0
LINE
  5
263
330
1F
100
AcDbEntity
  8
0
  62
5
100
AcDbLine
 10
720.000000
 20
132.500000
 30
0.000000
 11
724.875000
 21
132.500000
 31
0.000000
  0
LINE
  5
264
330
1F
100
AcDbEntity
  8
0
  62
5
100
AcDbLine
 10
724.875000
 20
132.500000
 30
0.000000
 11
726.500000
 21
134.125000
 31
0.000000
  0
LINE
  5
265
330
1F
100
AcDbEntity
  8
0
  62
5
100
AcDbLine
 10
726.500000
 20
134.125000
 30
0.000000
 11
726.500000
 21
145.875000
 31
0.000000
  0
LINE
  5
266
330
1F
100
AcDbEntity
  8
0
  62
0
100
AcDbLine
 10
295.750000
 20
90.000000
 30
0.000000
 11
295.750000
 21
86.000000
 31
0.000000
  0
LINE
  5
267
330
1F
100
AcDbEntity
  8
0
  62
0
100
AcDbLine
 10
295.750000
 20
86.000000
 30
0.000000
 11
284.250000
 21
86.000000
 31
0.000000
  0
LINE
  5
268
330
1F
100
AcDbEntity
  8
0
  62
0
100
AcDbLine
 10
284.250000
 20
86.000000
 30
0.000000
 11
284.250000
 21
90.000000
 31
0.000000
  0
LINE
  5
269
330
1F
100
AcDbEntity
  8
0
  62
0
100
AcDbLine
 10
284.250000
 20
90.000000
 30
0.000000
 11
295.750000
 21
90.000000
 31
0.000000
  0
LINE
  5
270
330
1F
100
AcDbEntity
  8
0
  62
0
100
AcDbLine
 10
295.750000
 20
514.000000
 30
0.000000
 11
295.750000
 21
510.000000
 31
0.000000
  0
LINE
  5
271
330
1F
100
AcDbEntity
  8
0
  62
0
100
AcDbLine
 10
295.750000
 20
510.000000
 30
0.000000
 11
284.250000
 21
510.000000
 31
0.000000
  0
LINE
  5
272
330
1F
100
AcDbEntity
  8
0
  62
0
100
AcDbLine
 10
284.250000
 20
510.000000
 30
0.000000
 11
284.250000
 21
514.000000
 31
0.000000
  0
LINE
  5
273
330
1F
100
AcDbEntity
  8
0
  62
0
100
AcDbLine
 10
284.250000
 20
514.000000
 30
0.000000
 11
295.750000
 21
514.000000
 31
0.000000
  0
LINE
  5
274
330
1F
100
AcDbEntity
  8
0
  62
0
100
AcDbLine
 10
312.688000
 20
515.249000
 30
0.000000
 11
312.688000
 21
514.751000
 31
0.000000
  0
LINE
  5
275
330
1F
100
AcDbEntity
  8
0
  62
0
100
AcDbLine
 10
312.688000
 20
514.751000
 30
0.000000
 11
312.597000
 21
514.261000
 31
0.000000
  0
LINE
  5
276
330
1F
100
AcDbEntity
  8
0
  62
0
100
AcDbLine
 10
312.597000
 20
514.261000
 30
0.000000
 11
312.417000
 21
513.797000
 31
0.000000
  0
LINE
  5
277
330
1F
100
AcDbEntity
  8
0
  62
0
100
AcDbLine
 10
312.417000
 20
513.797000
 30
0.000000
 11
312.155000
 21
513.373000
 31
0.000000
  0
LINE
  5
278
330
1F
100
AcDbEntity
  8
0
  62
0
100
AcDbLine
 10
312.155000
 20
513.373000
 30
0.000000
 11
311.819000
 21
513.005000
 31
0.000000
  0
LINE
  5
279
330
1F
100
AcDbEntity
  8
0
  62
0
100
AcDbLine
 10
311.819000
 20
513.005000
 30
0.000000
 11
311.421000
 21
512.704000
 31
0.000000
  0
LINE
  5
280
330
1F
100
AcDbEntity
  8
0
  62
0
100
AcDbLine
 10
311.421000
 20
512.704000
 30
0.000000
 11
310.975000
 21
512.482000
 31
0.000000
  0
LINE
  5
281
330
1F
100
AcDbEntity
  8
0
  62
0
100
AcDbLine
 10
310.975000
 20
512.482000
 30
0.000000
 11
310.496000
 21
512.346000
 31
0.000000
  0
LINE
  5
282
330
1F
100
AcDbEntity
  8
0
  62
0
100
AcDbLine
 10
310.496000
 20
512.346000
 30
0.000000
 11
310.000000
 21
512.300000
 31
0.000000
  0
LINE
  5
283
330
1F
100
AcDbEntity
  8
0
  62
0
100
AcDbLine
 10
310.000000
 20
512.300000
 30
0.000000
 11
309.504000
 21
512.346000
 31
0.000000
  0
LINE
  5
284
330
1F
100
AcDbEntity
  8
0
  62
0
100
AcDbLine
 10
309.504000
 20
512.346000
 30
0.000000
 11
309.025000
 21
512.482000
 31
0.000000
  0
LINE
  5
285
330
1F
100
AcDbEntity
  8
0
  62
0
100
AcDbLine
 10
309.025000
 20
512.482000
 30
0.000000
 11
308.579000
 21
512.704000
 31
0.000000
  0
LINE
  5
286
330
1F
100
AcDbEntity
  8
0
  62
0
100
AcDbLine
 10
308.579000
 20
512.704000
 30
0.000000
 11
308.181000
 21
513.005000
 31
0.000000
  0
LINE
  5
287
330
1F
100
AcDbEntity
  8
0
  62
0
100
AcDbLine
 10
308.181000
 20
513.005000
 30
0.000000
 11
307.845000
 21
513.373000
 31
0.000000
  0
LINE
  5
288
330
1F
100
AcDbEntity
  8
0
  62
0
100
AcDbLine
 10
307.845000
 20
513.373000
 30
0.000000
 11
307.583000
 21
513.797000
 31
0.000000
  0
LINE
  5
289
330
1F
100
AcDbEntity
  8
0
  62
0
100
AcDbLine
 10
307.583000
 20
513.797000
 30
0.000000
 11
307.403000
 21
514.261000
 31
0.000000
  0
LINE
  5
290
330
1F
100
AcDbEntity
  8
0
  62
0
100
AcDbLine
 10
307.403000
 20
514.261000
 30
0.000000
 11
307.312000
 21
514.751000
 31
0.000000
  0
LINE
  5
291
330
1F
100
AcDbEntity
  8
0
  62
0
100
AcDbLine
 10
307.312000
 20
514.751000
 30
0.000000
 11
307.312000
 21
515.249000
 31
0.000000
  0
LINE
  5
292
330
1F
100
AcDbEntity
  8
0
  62
0
100
AcDbLine
 10
307.312000
 20
515.249000
 30
0.000000
 11
307.403000
 21
515.739000
 31
0.000000
  0
LINE
  5
293
330
1F
100
AcDbEntity
  8
0
  62
0
100
AcDbLine
 10
307.403000
 20
515.739000
 30
0.000000
 11
307.583000
 21
516.203000
 31
0.000000
  0
LINE
  5
294
330
1F
100
AcDbEntity
  8
0
  62
0
100
AcDbLine
 10
307.583000
 20
516.203000
 30
0.000000
 11
307.845000
 21
516.627000
 31
0.000000
  0
LINE
  5
295
330
1F
100
AcDbEntity
  8
0
  62
0
100
AcDbLine
 10
307.845000
 20
516.627000
 30
0.000000
 11
308.181000
 21
516.995000
 31
0.000000
  0
LINE
  5
296
330
1F
100
AcDbEntity
  8
0
  62
0
100
AcDbLine
 10
308.181000
 20
516.995000
 30
0.000000
 11
308.579000
 21
517.296000
 31
0.000000
  0
LINE
  5
297
330
1F
100
AcDbEntity
  8
0
  62
0
100
AcDbLine
 10
308.579000
 20
517.296000
 30
0.000000
 11
309.025000
 21
517.518000
 31
0.000000
  0
LINE
  5
298
330
1F
100
AcDbEntity
  8
0
  62
0
100
AcDbLine
 10
309.025000
 20
517.518000
 30
0.000000
 11
309.504000
 21
517.654000
 31
0.000000
  0
LINE
  5
299
330
1F
100
AcDbEntity
  8
0
  62
0
100
AcDbLine
 10
309.504000
 20
517.654000
 30
0.000000
 11
310.000000
 21
517.700000
 31
0.000000
  0
LINE
  5
300
330
1F
100
AcDbEntity
  8
0
  62
0
100
AcDbLine
 10
310.000000
 20
517.700000
 30
0.000000
 11
310.496000
 21
517.654000
 31
0.000000
  0
LINE
  5
301
330
1F
100
AcDbEntity
  8
0
  62
0
100
AcDbLine
 10
310.496000
 20
517.654000
 30
0.000000
 11
310.975000
 21
517.518000
 31
0.000000
  0
LINE
  5
302
330
1F
100
AcDbEntity
  8
0
  62
0
100
AcDbLine
 10
310.975000
 20
517.518000
 30
0.000000
 11
311.421000
 21
517.296000
 31
0.000000
  0
LINE
  5
303
330
1F
100
AcDbEntity
  8
0
  62
0
100
AcDbLine
 10
311.421000
 20
517.296000
 30
0.000000
 11
311.819000
 21
516.995000
 31
0.000000
  0
LINE
  5
304
330
1F
100
AcDbEntity
  8
0
  62
0
100
AcDbLine
 10
311.819000
 20
516.995000
 30
0.000000
 11
312.155000
 21
516.627000
 31
0.000000
  0
LINE
  5
305
330
1F
100
AcDbEntity
  8
0
  62
0
100
AcDbLine
 10
312.155000
 20
516.627000
 30
0.000000
 11
312.417000
 21
516.203000
 31
0.000000
  0
LINE
  5
306
330
1F
100
AcDbEntity
  8
0
  62
0
100
AcDbLine
 10
312.417000
 20
516.203000
 30
0.000000
 11
312.597000
 21
515.739000
 31
0.000000
  0
LINE
  5
307
330
1F
100
AcDbEntity
  8
0
  62
0
100
AcDbLine
 10
312.597000
 20
515.739000
 30
0.000000
 11
312.688000
 21
515.249000
 31
0.000000
  0
LINE
  5
308
330
1F
100
AcDbEntity
  8
0
  62
0
100
AcDbLine
 10
312.688000
 20
105.249000
 30
0.000000
 11
312.688000
 21
104.751000
 31
0.000000
  0
LINE
  5
309
330
1F
100
AcDbEntity
  8
0
  62
0
100
AcDbLine
 10
312.688000
 20
104.751000
 30
0.000000
 11
312.597000
 21
104.261000
 31
0.000000
  0
LINE
  5
310
330
1F
100
AcDbEntity
  8
0
  62
0
100
AcDbLine
 10
312.597000
 20
104.261000
 30
0.000000
 11
312.417000
 21
103.797000
 31
0.000000
  0
LINE
  5
311
330
1F
100
AcDbEntity
  8
0
  62
0
100
AcDbLine
 10
312.417000
 20
103.797000
 30
0.000000
 11
312.155000
 21
103.373000
 31
0.000000
  0
LINE
  5
312
330
1F
100
AcDbEntity
  8
0
  62
0
100
AcDbLine
 10
312.155000
 20
103.373000
 30
0.000000
 11
311.819000
 21
103.005000
 31
0.000000
  0
LINE
  5
313
330
1F
100
AcDbEntity
  8
0
  62
0
100
AcDbLine
 10
311.819000
 20
103.005000
 30
0.000000
 11
311.421000
 21
102.704000
 31
0.000000
  0
LINE
  5
314
330
1F
100
AcDbEntity
  8
0
  62
0
100
AcDbLine
 10
311.421000
 20
102.704000
 30
0.000000
 11
310.975000
 21
102.482000
 31
0.000000
  0
LINE
  5
315
330
1F
100
AcDbEntity
  8
0
  62
0
100
AcDbLine
 10
310.975000
 20
102.482000
 30
0.000000
 11
310.496000
 21
102.346000
 31
0.000000
  0
LINE
  5
316
330
1F
100
AcDbEntity
  8
0
  62
0
100
AcDbLine
 10
310.496000
 20
102.346000
 30
0.000000
 11
310.000000
 21
102.300000
 31
0.000000
  0
LINE
  5
317
330
1F
100
AcDbEntity
  8
0
  62
0
100
AcDbLine
 10
310.000000
 20
102.300000
 30
0.000000
 11
309.504000
 21
102.346000
 31
0.000000
  0
LINE
  5
318
330
1F
100
AcDbEntity
  8
0
  62
0
100
AcDbLine
 10
309.504000
 20
102.346000
 30
0.000000
 11
309.025000
 21
102.482000
 31
0.000000
  0
LINE
  5
319
330
1F
100
AcDbEntity
  8
0
  62
0
100
AcDbLine
 10
309.025000
 20
102.482000
 30
0.000000
 11
308.579000
 21
102.704000
 31
0.000000
  0
LINE
  5
320
330
1F
100
AcDbEntity
  8
0
  62
0
100
AcDbLine
 10
308.579000
 20
102.704000
 30
0.000000
 11
308.181000
 21
103.005000
 31
0.000000
  0
LINE
  5
321
330
1F
100
AcDbEntity
  8
0
  62
0
100
AcDbLine
 10
308.181000
 20
103.005000
 30
0.000000
 11
307.845000
 21
103.373000
 31
0.000000
  0
LINE
  5
322
330
1F
100
AcDbEntity
  8
0
  62
0
100
AcDbLine
 10
307.845000
 20
103.373000
 30
0.000000
 11
307.583000
 21
103.797000
 31
0.000000
  0
LINE
  5
323
330
1F
100
AcDbEntity
  8
0
  62
0
100
AcDbLine
 10
307.583000
 20
103.797000
 30
0.000000
 11
307.403000
 21
104.261000
 31
0.000000
  0
LINE
  5
324
330
1F
100
AcDbEntity
  8
0
  62
0
100
AcDbLine
 10
307.403000
 20
104.261000
 30
0.000000
 11
307.312000
 21
104.751000
 31
0.000000
  0
LINE
  5
325
330
1F
100
AcDbEntity
  8
0
  62
0
100
AcDbLine
 10
307.312000
 20
104.751000
 30
0.000000
 11
307.312000
 21
105.249000
 31
0.000000
  0
LINE
  5
326
330
1F
100
AcDbEntity
  8
0
  62
0
100
AcDbLine
 10
307.312000
 20
105.249000
 30
0.000000
 11
307.403000
 21
105.739000
 31
0.000000
  0
LINE
  5
327
330
1F
100
AcDbEntity
  8
0
  62
0
100
AcDbLine
 10
307.403000
 20
105.739000
 30
0.000000
 11
307.583000
 21
106.203000
 31
0.000000
  0
LINE
  5
328
330
1F
100
AcDbEntity
  8
0
  62
0
100
AcDbLine
 10
307.583000
 20
106.203000
 30
0.000000
 11
307.845000
 21
106.627000
 31
0.000000
  0
LINE
  5
329
330
1F
100
AcDbEntity
  8
0
  62
0
100
AcDbLine
 10
307.845000
 20
106.627000
 30
0.000000
 11
308.181000
 21
106.995000
 31
0.000000
  0
LINE
  5
330
330
1F
100
AcDbEntity
  8
0
  62
0
100
AcDbLine
 10
308.181000
 20
106.995000
 30
0.000000
 11
308.579000
 21
107.296000
 31
0.000000
  0
LINE
  5
331
330
1F
100
AcDbEntity
  8
0
  62
0
100
AcDbLine
 10
308.579000
 20
107.296000
 30
0.000000
 11
309.025000
 21
107.518000
 31
0.000000
  0
LINE
  5
332
330
1F
100
AcDbEntity
  8
0
  62
0
100
AcDbLine
 10
309.025000
 20
107.518000
 30
0.000000
 11
309.504000
 21
107.654000
 31
0.000000
  0
LINE
  5
333
330
1F
100
AcDbEntity
  8
0
  62
0
100
AcDbLine
 10
309.504000
 20
107.654000
 30
0.000000
 11
310.000000
 21
107.700000
 31
0.000000
  0
LINE
  5
334
330
1F
100
AcDbEntity
  8
0
  62
0
100
AcDbLine
 10
310.000000
 20
107.700000
 30
0.000000
 11
310.496000
 21
107.654000
 31
0.000000
  0
LINE
  5
335
330
1F
100
AcDbEntity
  8
0
  62
0
100
AcDbLine
 10
310.496000
 20
107.654000
 30
0.000000
 11
310.975000
 21
107.518000
 31
0.000000
  0
LINE
  5
336
330
1F
100
AcDbEntity
  8
0
  62
0
100
AcDbLine
 10
310.975000
 20
107.518000
 30
0.000000
 11
311.421000
 21
107.296000
 31
0.000000
  0
LINE
  5
337
330
1F
100
AcDbEntity
  8
0
  62
0
100
AcDbLine
 10
311.421000
 20
107.296000
 30
0.000000
 11
311.819000
 21
106.995000
 31
0.000000
  0
LINE
  5
338
330
1F
100
AcDbEntity
  8
0
  62
0
100
AcDbLine
 10
311.819000
 20
106.995000
 30
0.000000
 11
312.155000
 21
106.627000
 31
0.000000
  0
LINE
  5
339
330
1F
100
AcDbEntity
  8
0
  62
0
100
AcDbLine
 10
312.155000
 20
106.627000
 30
0.000000
 11
312.417000
 21
106.203000
 31
0.000000
  0
LINE
  5
340
330
1F
100
AcDbEntity
  8
0
  62
0
100
AcDbLine
 10
312.417000
 20
106.203000
 30
0.000000
 11
312.597000
 21
105.739000
 31
0.000000
  0
LINE
  5
341
330
1F
100
AcDbEntity
  8
0
  62
0
100
AcDbLine
 10
312.597000
 20
105.739000
 30
0.000000
 11
312.688000
 21
105.249000
 31
0.000000
  0
LINE
  5
342
330
1F
100
AcDbEntity
  8
0
  62
0
100
AcDbLine
 10
312.688000
 20
300.249115
 30
0.000000
 11
312.688000
 21
299.750885
 31
0.000000
  0
LINE
  5
343
330
1F
100
AcDbEntity
  8
0
  62
0
100
AcDbLine
 10
312.688000
 20
299.750885
 30
0.000000
 11
312.597000
 21
299.261124
 31
0.000000
  0
LINE
  5
344
330
1F
100
AcDbEntity
  8
0
  62
0
100
AcDbLine
 10
312.597000
 20
299.261124
 30
0.000000
 11
312.417000
 21
298.796510
 31
0.000000
  0
LINE
  5
345
330
1F
100
AcDbEntity
  8
0
  62
0
100
AcDbLine
 10
312.417000
 20
298.796510
 30
0.000000
 11
312.155000
 21
298.372890
 31
0.000000
  0
LINE
  5
346
330
1F
100
AcDbEntity
  8
0
  62
0
100
AcDbLine
 10
312.155000
 20
298.372890
 30
0.000000
 11
311.819000
 21
298.004680
 31
0.000000
  0
LINE
  5
347
330
1F
100
AcDbEntity
  8
0
  62
0
100
AcDbLine
 10
311.819000
 20
298.004680
 30
0.000000
 11
311.421000
 21
297.704420
 31
0.000000
  0
LINE
  5
348
330
1F
100
AcDbEntity
  8
0
  62
0
100
AcDbLine
 10
311.421000
 20
297.704420
 30
0.000000
 11
310.975000
 21
297.482330
 31
0.000000
  0
LINE
  5
349
330
1F
100
AcDbEntity
  8
0
  62
0
100
AcDbLine
 10
310.975000
 20
297.482330
 30
0.000000
 11
310.496000
 21
297.345980
 31
0.000000
  0
LINE
  5
350
330
1F
100
AcDbEntity
  8
0
  62
0
100
AcDbLine
 10
310.496000
 20
297.345980
 30
0.000000
 11
310.000000
 21
297.300000
 31
0.000000
  0
LINE
  5
351
330
1F
100
AcDbEntity
  8
0
  62
0
100
AcDbLine
 10
310.000000
 20
297.300000
 30
0.000000
 11
309.504000
 21
297.345980
 31
0.000000
  0
LINE
  5
352
330
1F
100
AcDbEntity
  8
0
  62
0
100
AcDbLine
 10
309.504000
 20
297.345980
 30
0.000000
 11
309.025000
 21
297.482330
 31
0.000000
  0
LINE
  5
353
330
1F
100
AcDbEntity
  8
0
  62
0
100
AcDbLine
 10
309.025000
 20
297.482330
 30
0.000000
 11
308.579000
 21
297.704420
 31
0.000000
  0
LINE
  5
354
330
1F
100
AcDbEntity
  8
0
  62
0
100
AcDbLine
 10
308.579000
 20
297.704420
 30
0.000000
 11
308.181000
 21
298.004680
 31
0.000000
  0
LINE
  5
355
330
1F
100
AcDbEntity
  8
0
  62
0
100
AcDbLine
 10
308.181000
 20
298.004680
 30
0.000000
 11
307.845000
 21
298.372890
 31
0.000000
  0
LINE
  5
356
330
1F
100
AcDbEntity
  8
0
  62
0
100
AcDbLine
 10
307.845000
 20
298.372890
 30
0.000000
 11
307.583000
 21
298.796510
 31
0.000000
  0
LINE
  5
357
330
1F
100
AcDbEntity
  8
0
  62
0
100
AcDbLine
 10
307.583000
 20
298.796510
 30
0.000000
 11
307.403000
 21
299.261124
 31
0.000000
  0
LINE
  5
358
330
1F
100
AcDbEntity
  8
0
  62
0
100
AcDbLine
 10
307.403000
 20
299.261124
 30
0.000000
 11
307.312000
 21
299.750885
 31
0.000000
  0
LINE
  5
359
330
1F
100
AcDbEntity
  8
0
  62
0
100
AcDbLine
 10
307.312000
 20
299.750885
 30
0.000000
 11
307.312000
 21
300.249115
 31
0.000000
  0
LINE
  5
360
330
1F
100
AcDbEntity
  8
0
  62
0
100
AcDbLine
 10
307.312000
 20
300.249115
 30
0.000000
 11
307.403000
 21
300.738876
 31
0.000000
  0
LINE
  5
361
330
1F
100
AcDbEntity
  8
0
  62
0
100
AcDbLine
 10
307.403000
 20
300.738876
 30
0.000000
 11
307.583000
 21
301.203490
 31
0.000000
  0
LINE
  5
362
330
1F
100
AcDbEntity
  8
0
  62
0
100
AcDbLine
 10
307.583000
 20
301.203490
 30
0.000000
 11
307.845000
 21
301.627110
 31
0.000000
  0
LINE
  5
363
330
1F
100
AcDbEntity
  8
0
  62
0
100
AcDbLine
 10
307.845000
 20
301.627110
 30
0.000000
 11
308.181000
 21
301.995320
 31
0.000000
  0
LINE
  5
364
330
1F
100
AcDbEntity
  8
0
  62
0
100
AcDbLine
 10
308.181000
 20
301.995320
 30
0.000000
 11
308.579000
 21
302.295580
 31
0.000000
  0
LINE
  5
365
330
1F
100
AcDbEntity
  8
0
  62
0
100
AcDbLine
 10
308.579000
 20
302.295580
 30
0.000000
 11
309.025000
 21
302.517670
 31
0.000000
  0
LINE
  5
366
330
1F
100
AcDbEntity
  8
0
  62
0
100
AcDbLine
 10
309.025000
 20
302.517670
 30
0.000000
 11
309.504000
 21
302.654020
 31
0.000000
  0
LINE
  5
367
330
1F
100
AcDbEntity
  8
0
  62
0
100
AcDbLine
 10
309.504000
 20
302.654020
 30
0.000000
 11
310.000000
 21
302.700000
 31
0.000000
  0
LINE
  5
368
330
1F
100
AcDbEntity
  8
0
  62
0
100
AcDbLine
 10
310.000000
 20
302.700000
 30
0.000000
 11
310.496000
 21
302.654020
 31
0.000000
  0
LINE
  5
369
330
1F
100
AcDbEntity
  8
0
  62
0
100
AcDbLine
 10
310.496000
 20
302.654020
 30
0.000000
 11
310.975000
 21
302.517670
 31
0.000000
  0
LINE
  5
370
330
1F
100
AcDbEntity
  8
0
  62
0
100
AcDbLine
 10
310.975000
 20
302.517670
 30
0.000000
 11
311.421000
 21
302.295580
 31
0.000000
  0
LINE
  5
371
330
1F
100
AcDbEntity
  8
0
  62
0
100
AcDbLine
 10
311.421000
 20
302.295580
 30
0.000000
 11
311.819000
 21
301.995320
 31
0.000000
  0
LINE
  5
372
330
1F
100
AcDbEntity
  8
0
  62
0
100
AcDbLine
 10
311.819000
 20
301.995320
 30
0.000000
 11
312.155000
 21
301.627110
 31
0.000000
  0
LINE
  5
373
330
1F
100
AcDbEntity
  8
0
  62
0
100
AcDbLine
 10
312.155000
 20
301.627110
 30
0.000000
 11
312.417000
 21
301.203490
 31
0.000000
  0
LINE
  5
374
330
1F
100
AcDbEntity
  8
0
  62
0
100
AcDbLine
 10
312.417000
 20
301.203490
 30
0.000000
 11
312.597000
 21
300.738876
 31
0.000000
  0
LINE
  5
375
330
1F
100
AcDbEntity
  8
0
  62
0
100
AcDbLine
 10
312.597000
 20
300.738876
 30
0.000000
 11
312.688000
 21
300.249115
 31
0.000000
  0
LINE
  5
376
330
1F
100
AcDbEntity
  8
0
  62
0
100
AcDbLine
 10
312.688000
 20
495.249000
 30
0.000000
 11
312.688000
 21
494.751000
 31
0.000000
  0
LINE
  5
377
330
1F
100
AcDbEntity
  8
0
  62
0
100
AcDbLine
 10
312.688000
 20
494.751000
 30
0.000000
 11
312.597000
 21
494.261000
 31
0.000000
  0
LINE
  5
378
330
1F
100
AcDbEntity
  8
0
  62
0
100
AcDbLine
 10
312.597000
 20
494.261000
 30
0.000000
 11
312.417000
 21
493.797000
 31
0.000000
  0
LINE
  5
379
330
1F
100
AcDbEntity
  8
0
  62
0
100
AcDbLine
 10
312.417000
 20
493.797000
 30
0.000000
 11
312.155000
 21
493.373000
 31
0.000000
  0
LINE
  5
380
330
1F
100
AcDbEntity
  8
0
  62
0
100
AcDbLine
 10
312.155000
 20
493.373000
 30
0.000000
 11
311.819000
 21
493.005000
 31
0.000000
  0
LINE
  5
381
330
1F
100
AcDbEntity
  8
0
  62
0
100
AcDbLine
 10
311.819000
 20
493.005000
 30
0.000000
 11
311.421000
 21
492.704000
 31
0.000000
  0
LINE
  5
382
330
1F
100
AcDbEntity
  8
0
  62
0
100
AcDbLine
 10
311.421000
 20
492.704000
 30
0.000000
 11
310.975000
 21
492.482000
 31
0.000000
  0
LINE
  5
383
330
1F
100
AcDbEntity
  8
0
  62
0
100
AcDbLine
 10
310.975000
 20
492.482000
 30
0.000000
 11
310.496000
 21
492.346000
 31
0.000000
  0
LINE
  5
384
330
1F
100
AcDbEntity
  8
0
  62
0
100
AcDbLine
 10
310.496000
 20
492.346000
 30
0.000000
 11
310.000000
 21
492.300000
 31
0.000000
  0
LINE
  5
385
330
1F
100
AcDbEntity
  8
0
  62
0
100
AcDbLine
 10
310.000000
 20
492.300000
 30
0.000000
 11
309.504000
 21
492.346000
 31
0.000000
  0
LINE
  5
386
330
1F
100
AcDbEntity
  8
0
  62
0
100
AcDbLine
 10
309.504000
 20
492.346000
 30
0.000000
 11
309.025000
 21
492.482000
 31
0.000000
  0
LINE
  5
387
330
1F
100
AcDbEntity
  8
0
  62
0
100
AcDbLine
 10
309.025000
 20
492.482000
 30
0.000000
 11
308.579000
 21
492.704000
 31
0.000000
  0
LINE
  5
388
330
1F
100
AcDbEntity
  8
0
  62
0
100
AcDbLine
 10
308.579000
 20
492.704000
 30
0.000000
 11
308.181000
 21
493.005000
 31
0.000000
  0
LINE
  5
389
330
1F
100
AcDbEntity
  8
0
  62
0
100
AcDbLine
 10
308.181000
 20
493.005000
 30
0.000000
 11
307.845000
 21
493.373000
 31
0.000000
  0
LINE
  5
390
330
1F
100
AcDbEntity
  8
0
  62
0
100
AcDbLine
 10
307.845000
 20
493.373000
 30
0.000000
 11
307.583000
 21
493.797000
 31
0.000000
  0
LINE
  5
391
330
1F
100
AcDbEntity
  8
0
  62
0
100
AcDbLine
 10
307.583000
 20
493.797000
 30
0.000000
 11
307.403000
 21
494.261000
 31
0.000000
  0
LINE
  5
392
330
1F
100
AcDbEntity
  8
0
  62
0
100
AcDbLine
 10
307.403000
 20
494.261000
 30
0.000000
 11
307.312000
 21
494.751000
 31
0.000000
  0
LINE
  5
393
330
1F
100
AcDbEntity
  8
0
  62
0
100
AcDbLine
 10
307.312000
 20
494.751000
 30
0.000000
 11
307.312000
 21
495.249000
 31
0.000000
  0
LINE
  5
394
330
1F
100
AcDbEntity
  8
0
  62
0
100
AcDbLine
 10
307.312000
 20
495.249000
 30
0.000000
 11
307.403000
 21
495.739000
 31
0.000000
  0
LINE
  5
395
330
1F
100
AcDbEntity
  8
0
  62
0
100
AcDbLine
 10
307.403000
 20
495.739000
 30
0.000000
 11
307.583000
 21
496.203000
 31
0.000000
  0
LINE
  5
396
330
1F
100
AcDbEntity
  8
0
  62
0
100
AcDbLine
 10
307.583000
 20
496.203000
 30
0.000000
 11
307.845000
 21
496.627000
 31
0.000000
  0
LINE
  5
397
330
1F
100
AcDbEntity
  8
0
  62
0
100
AcDbLine
 10
307.845000
 20
496.627000
 30
0.000000
 11
308.181000
 21
496.995000
 31
0.000000
  0
LINE
  5
398
330
1F
100
AcDbEntity
  8
0
  62
0
100
AcDbLine
 10
308.181000
 20
496.995000
 30
0.000000
 11
308.579000
 21
497.296000
 31
0.000000
  0
LINE
  5
399
330
1F
100
AcDbEntity
  8
0
  62
0
100
AcDbLine
 10
308.579000
 20
497.296000
 30
0.000000
 11
309.025000
 21
497.518000
 31
0.000000
  0
LINE
  5
400
330
1F
100
AcDbEntity
  8
0
  62
0
100
AcDbLine
 10
309.025000
 20
497.518000
 30
0.000000
 11
309.504000
 21
497.654000
 31
0.000000
  0
LINE
  5
401
330
1F
100
AcDbEntity
  8
0
  62
0
100
AcDbLine
 10
309.504000
 20
497.654000
 30
0.000000
 11
310.000000
 21
497.700000
 31
0.000000
  0
LINE
  5
402
330
1F
100
AcDbEntity
  8
0
  62
0
100
AcDbLine
 10
310.000000
 20
497.700000
 30
0.000000
 11
310.496000
 21
497.654000
 31
0.000000
  0
LINE
  5
403
330
1F
100
AcDbEntity
  8
0
  62
0
100
AcDbLine
 10
310.496000
 20
497.654000
 30
0.000000
 11
310.975000
 21
497.518000
 31
0.000000
  0
LINE
  5
404
330
1F
100
AcDbEntity
  8
0
  62
0
100
AcDbLine
 10
310.975000
 20
497.518000
 30
0.000000
 11
311.421000
 21
497.296000
 31
0.000000
  0
LINE
  5
405
330
1F
100
AcDbEntity
  8
0
  62
0
100
AcDbLine
 10
311.421000
 20
497.296000
 30
0.000000
 11
311.819000
 21
496.995000
 31
0.000000
  0
LINE
  5
406
330
1F
100
AcDbEntity
  8
0
  62
0
100
AcDbLine
 10
311.819000
 20
496.995000
 30
0.000000
 11
312.155000
 21
496.627000
 31
0.000000
  0
LINE
  5
407
330
1F
100
AcDbEntity
  8
0
  62
0
100
AcDbLine
 10
312.155000
 20
496.627000
 30
0.000000
 11
312.417000
 21
496.203000
 31
0.000000
  0
LINE
  5
408
330
1F
100
AcDbEntity
  8
0
  62
0
100
AcDbLine
 10
312.417000
 20
496.203000
 30
0.000000
 11
312.597000
 21
495.739000
 31
0.000000
  0
LINE
  5
409
330
1F
100
AcDbEntity
  8
0
  62
0
100
AcDbLine
 10
312.597000
 20
495.739000
 30
0.000000
 11
312.688000
 21
495.249000
 31
0.000000
  0
LINE
  5
410
330
1F
100
AcDbEntity
  8
0
  62
0
100
AcDbLine
 10
312.688000
 20
85.249000
 30
0.000000
 11
312.688000
 21
84.751000
 31
0.000000
  0
LINE
  5
411
330
1F
100
AcDbEntity
  8
0
  62
0
100
AcDbLine
 10
312.688000
 20
84.751000
 30
0.000000
 11
312.597000
 21
84.261000
 31
0.000000
  0
LINE
  5
412
330
1F
100
AcDbEntity
  8
0
  62
0
100
AcDbLine
 10
312.597000
 20
84.261000
 30
0.000000
 11
312.417000
 21
83.797000
 31
0.000000
  0
LINE
  5
413
330
1F
100
AcDbEntity
  8
0
  62
0
100
AcDbLine
 10
312.417000
 20
83.797000
 30
0.000000
 11
312.155000
 21
83.373000
 31
0.000000
  0
LINE
  5
414
330
1F
100
AcDbEntity
  8
0
  62
0
100
AcDbLine
 10
312.155000
 20
83.373000
 30
0.000000
 11
311.819000
 21
83.005000
 31
0.000000
  0
LINE
  5
415
330
1F
100
AcDbEntity
  8
0
  62
0
100
AcDbLine
 10
311.819000
 20
83.005000
 30
0.000000
 11
311.421000
 21
82.704000
 31
0.000000
  0
LINE
  5
416
330
1F
100
AcDbEntity
  8
0
  62
0
100
AcDbLine
 10
311.421000
 20
82.704000
 30
0.000000
 11
310.975000
 21
82.482000
 31
0.000000
  0
LINE
  5
417
330
1F
100
AcDbEntity
  8
0
  62
0
100
AcDbLine
 10
310.975000
 20
82.482000
 30
0.000000
 11
310.496000
 21
82.346000
 31
0.000000
  0
LINE
  5
418
330
1F
100
AcDbEntity
  8
0
  62
0
100
AcDbLine
 10
310.496000
 20
82.346000
 30
0.000000
 11
310.000000
 21
82.300000
 31
0.000000
  0
LINE
  5
419
330
1F
100
AcDbEntity
  8
0
  62
0
100
AcDbLine
 10
310.000000
 20
82.300000
 30
0.000000
 11
309.504000
 21
82.346000
 31
0.000000
  0
LINE
  5
420
330
1F
100
AcDbEntity
  8
0
  62
0
100
AcDbLine
 10
309.504000
 20
82.346000
 30
0.000000
 11
309.025000
 21
82.482000
 31
0.000000
  0
LINE
  5
421
330
1F
100
AcDbEntity
  8
0
  62
0
100
AcDbLine
 10
309.025000
 20
82.482000
 30
0.000000
 11
308.579000
 21
82.704000
 31
0.000000
  0
LINE
  5
422
330
1F
100
AcDbEntity
  8
0
  62
0
100
AcDbLine
 10
308.579000
 20
82.704000
 30
0.000000
 11
308.181000
 21
83.005000
 31
0.000000
  0
LINE
  5
423
330
1F
100
AcDbEntity
  8
0
  62
0
100
AcDbLine
 10
308.181000
 20
83.005000
 30
0.000000
 11
307.845000
 21
83.373000
 31
0.000000
  0
LINE
  5
424
330
1F
100
AcDbEntity
  8
0
  62
0
100
AcDbLine
 10
307.845000
 20
83.373000
 30
0.000000
 11
307.583000
 21
83.797000
 31
0.000000
  0
LINE
  5
425
330
1F
100
AcDbEntity
  8
0
  62
0
100
AcDbLine
 10
307.583000
 20
83.797000
 30
0.000000
 11
307.403000
 21
84.261000
 31
0.000000
  0
LINE
  5
426
330
1F
100
AcDbEntity
  8
0
  62
0
100
AcDbLine
 10
307.403000
 20
84.261000
 30
0.000000
 11
307.312000
 21
84.751000
 31
0.000000
  0
LINE
  5
427
330
1F
100
AcDbEntity
  8
0
  62
0
100
AcDbLine
 10
307.312000
 20
84.751000
 30
0.000000
 11
307.312000
 21
85.249000
 31
0.000000
  0
LINE
  5
428
330
1F
100
AcDbEntity
  8
0
  62
0
100
AcDbLine
 10
307.312000
 20
85.249000
 30
0.000000
 11
307.403000
 21
85.739000
 31
0.000000
  0
LINE
  5
429
330
1F
100
AcDbEntity
  8
0
  62
0
100
AcDbLine
 10
307.403000
 20
85.739000
 30
0.000000
 11
307.583000
 21
86.203000
 31
0.000000
  0
LINE
  5
430
330
1F
100
AcDbEntity
  8
0
  62
0
100
AcDbLine
 10
307.583000
 20
86.203000
 30
0.000000
 11
307.845000
 21
86.627000
 31
0.000000
  0
LINE
  5
431
330
1F
100
AcDbEntity
  8
0
  62
0
100
AcDbLine
 10
307.845000
 20
86.627000
 30
0.000000
 11
308.181000
 21
86.995000
 31
0.000000
  0
LINE
  5
432
330
1F
100
AcDbEntity
  8
0
  62
0
100
AcDbLine
 10
308.181000
 20
86.995000
 30
0.000000
 11
308.579000
 21
87.296000
 31
0.000000
  0
LINE
  5
433
330
1F
100
AcDbEntity
  8
0
  62
0
100
AcDbLine
 10
308.579000
 20
87.296000
 30
0.000000
 11
309.025000
 21
87.518000
 31
0.000000
  0
LINE
  5
434
330
1F
100
AcDbEntity
  8
0
  62
0
100
AcDbLine
 10
309.025000
 20
87.518000
 30
0.000000
 11
309.504000
 21
87.654000
 31
0.000000
  0
LINE
  5
435
330
1F
100
AcDbEntity
  8
0
  62
0
100
AcDbLine
 10
309.504000
 20
87.654000
 30
0.000000
 11
310.000000
 21
87.700000
 31
0.000000
  0
LINE
  5
436
330
1F
100
AcDbEntity
  8
0
  62
0
100
AcDbLine
 10
310.000000
 20
87.700000
 30
0.000000
 11
310.496000
 21
87.654000
 31
0.000000
  0
LINE
  5
437
330
1F
100
AcDbEntity
  8
0
  62
0
100
AcDbLine
 10
310.496000
 20
87.654000
 30
0.000000
 11
310.975000
 21
87.518000
 31
0.000000
  0
LINE
  5
438
330
1F
100
AcDbEntity
  8
0
  62
0
100
AcDbLine
 10
310.975000
 20
87.518000
 30
0.000000
 11
311.421000
 21
87.296000
 31
0.000000
  0
LINE
  5
439
330
1F
100
AcDbEntity
  8
0
  62
0
100
AcDbLine
 10
311.421000
 20
87.296000
 30
0.000000
 11
311.819000
 21
86.995000
 31
0.000000
  0
LINE
  5
440
330
1F
100
AcDbEntity
  8
0
  62
0
100
AcDbLine
 10
311.819000
 20
86.995000
 30
0.000000
 11
312.155000
 21
86.627000
 31
0.000000
  0
LINE
  5
441
330
1F
100
AcDbEntity
  8
0
  62
0
100
AcDbLine
 10
312.155000
 20
86.627000
 30
0.000000
 11
312.417000
 21
86.203000
 31
0.000000
  0
LINE
  5
442
330
1F
100
AcDbEntity
  8
0
  62
0
100
AcDbLine
 10
312.417000
 20
86.203000
 30
0.000000
 11
312.597000
 21
85.739000
 31
0.000000
  0
LINE
  5
443
330
1F
100
AcDbEntity
  8
0
  62
0
100
AcDbLine
 10
312.597000
 20
85.739000
 30
0.000000
 11
312.688000
 21
85.249000
 31
0.000000
  0
LINE
  5
444
330
1F
100
AcDbEntity
  8
0
  62
0
100
AcDbLine
 10
332.688000
 20
65.249000
 30
0.000000
 11
332.688000
 21
64.751000
 31
0.000000
  0
LINE
  5
445
330
1F
100
AcDbEntity
  8
0
  62
0
100
AcDbLine
 10
332.688000
 20
64.751000
 30
0.000000
 11
332.597000
 21
64.261000
 31
0.000000
  0
LINE
  5
446
330
1F
100
AcDbEntity
  8
0
  62
0
100
AcDbLine
 10
332.597000
 20
64.261000
 30
0.000000
 11
332.417000
 21
63.797000
 31
0.000000
  0
LINE
  5
447
330
1F
100
AcDbEntity
  8
0
  62
0
100
AcDbLine
 10
332.417000
 20
63.797000
 30
0.000000
 11
332.155000
 21
63.373000
 31
0.000000
  0
LINE
  5
448
330
1F
100
AcDbEntity
  8
0
  62
0
100
AcDbLine
 10
332.155000
 20
63.373000
 30
0.000000
 11
331.819000
 21
63.005000
 31
0.000000
  0
LINE
  5
449
330
1F
100
AcDbEntity
  8
0
  62
0
100
AcDbLine
 10
331.819000
 20
63.005000
 30
0.000000
 11
331.421000
 21
62.704000
 31
0.000000
  0
LINE
  5
450
330
1F
100
AcDbEntity
  8
0
  62
0
100
AcDbLine
 10
331.421000
 20
62.704000
 30
0.000000
 11
330.975000
 21
62.482000
 31
0.000000
  0
LINE
  5
451
330
1F
100
AcDbEntity
  8
0
  62
0
100
AcDbLine
 10
330.975000
 20
62.482000
 30
0.000000
 11
330.496000
 21
62.346000
 31
0.000000
  0
LINE
  5
452
330
1F
100
AcDbEntity
  8
0
  62
0
100
AcDbLine
 10
330.496000
 20
62.346000
 30
0.000000
 11
330.000000
 21
62.300000
 31
0.000000
  0
LINE
  5
453
330
1F
100
AcDbEntity
  8
0
  62
0
100
AcDbLine
 10
330.000000
 20
62.300000
 30
0.000000
 11
329.504000
 21
62.346000
 31
0.000000
  0
LINE
  5
454
330
1F
100
AcDbEntity
  8
0
  62
0
100
AcDbLine
 10
329.504000
 20
62.346000
 30
0.000000
 11
329.025000
 21
62.482000
 31
0.000000
  0
LINE
  5
455
330
1F
100
AcDbEntity
  8
0
  62
0
100
AcDbLine
 10
329.025000
 20
62.482000
 30
0.000000
 11
328.579000
 21
62.704000
 31
0.000000
  0
LINE
  5
456
330
1F
100
AcDbEntity
  8
0
  62
0
100
AcDbLine
 10
328.579000
 20
62.704000
 30
0.000000
 11
328.181000
 21
63.005000
 31
0.000000
  0
LINE
  5
457
330
1F
100
AcDbEntity
  8
0
  62
0
100
AcDbLine
 10
328.181000
 20
63.005000
 30
0.000000
 11
327.845000
 21
63.373000
 31
0.000000
  0
LINE
  5
458
330
1F
100
AcDbEntity
  8
0
  62
0
100
AcDbLine
 10
327.845000
 20
63.373000
 30
0.000000
 11
327.583000
 21
63.797000
 31
0.000000
  0
LINE
  5
459
330
1F
100
AcDbEntity
  8
0
  62
0
100
AcDbLine
 10
327.583000
 20
63.797000
 30
0.000000
 11
327.403000
 21
64.261000
 31
0.000000
  0
LINE
  5
460
330
1F
100
AcDbEntity
  8
0
  62
0
100
AcDbLine
 10
327.403000
 20
64.261000
 30
0.000000
 11
327.312000
 21
64.751000
 31
0.000000
  0
LINE
  5
461
330
1F
100
AcDbEntity
  8
0
  62
0
100
AcDbLine
 10
327.312000
 20
64.751000
 30
0.000000
 11
327.312000
 21
65.249000
 31
0.000000
  0
LINE
  5
462
330
1F
100
AcDbEntity
  8
0
  62
0
100
AcDbLine
 10
327.312000
 20
65.249000
 30
0.000000
 11
327.403000
 21
65.739000
 31
0.000000
  0
LINE
  5
463
330
1F
100
AcDbEntity
  8
0
  62
0
100
AcDbLine
 10
327.403000
 20
65.739000
 30
0.000000
 11
327.583000
 21
66.203000
 31
0.000000
  0
LINE
  5
464
330
1F
100
AcDbEntity
  8
0
  62
0
100
AcDbLine
 10
327.583000
 20
66.203000
 30
0.000000
 11
327.845000
 21
66.627000
 31
0.000000
  0
LINE
  5
465
330
1F
100
AcDbEntity
  8
0
  62
0
100
AcDbLine
 10
327.845000
 20
66.627000
 30
0.000000
 11
328.181000
 21
66.995000
 31
0.000000
  0
LINE
  5
466
330
1F
100
AcDbEntity
  8
0
  62
0
100
AcDbLine
 10
328.181000
 20
66.995000
 30
0.000000
 11
328.579000
 21
67.296000
 31
0.000000
  0
LINE
  5
467
330
1F
100
AcDbEntity
  8
0
  62
0
100
AcDbLine
 10
328.579000
 20
67.296000
 30
0.000000
 11
329.025000
 21
67.518000
 31
0.000000
  0
LINE
  5
468
330
1F
100
AcDbEntity
  8
0
  62
0
100
AcDbLine
 10
329.025000
 20
67.518000
 30
0.000000
 11
329.504000
 21
67.654000
 31
0.000000
  0
LINE
  5
469
330
1F
100
AcDbEntity
  8
0
  62
0
100
AcDbLine
 10
329.504000
 20
67.654000
 30
0.000000
 11
330.000000
 21
67.700000
 31
0.000000
  0
LINE
  5
470
330
1F
100
AcDbEntity
  8
0
  62
0
100
AcDbLine
 10
330.000000
 20
67.700000
 30
0.000000
 11
330.496000
 21
67.654000
 31
0.000000
  0
LINE
  5
471
330
1F
100
AcDbEntity
  8
0
  62
0
100
AcDbLine
 10
330.496000
 20
67.654000
 30
0.000000
 11
330.975000
 21
67.518000
 31
0.000000
  0
LINE
  5
472
330
1F
100
AcDbEntity
  8
0
  62
0
100
AcDbLine
 10
330.975000
 20
67.518000
 30
0.000000
 11
331.421000
 21
67.296000
 31
0.000000
  0
LINE
  5
473
330
1F
100
AcDbEntity
  8
0
  62
0
100
AcDbLine
 10
331.421000
 20
67.296000
 30
0.000000
 11
331.819000
 21
66.995000
 31
0.000000
  0
LINE
  5
474
330
1F
100
AcDbEntity
  8
0
  62
0
100
AcDbLine
 10
331.819000
 20
66.995000
 30
0.000000
 11
332.155000
 21
66.627000
 31
0.000000
  0
LINE
  5
475
330
1F
100
AcDbEntity
  8
0
  62
0
100
AcDbLine
 10
332.155000
 20
66.627000
 30
0.000000
 11
332.417000
 21
66.203000
 31
0.000000
  0
LINE
  5
476
330
1F
100
AcDbEntity
  8
0
  62
0
100
AcDbLine
 10
332.417000
 20
66.203000
 30
0.000000
 11
332.597000
 21
65.739000
 31
0.000000
  0
LINE
  5
477
330
1F
100
AcDbEntity
  8
0
  62
0
100
AcDbLine
 10
332.597000
 20
65.739000
 30
0.000000
 11
332.688000
 21
65.249000
 31
0.000000
  0
LINE
  5
478
330
1F
100
AcDbEntity
  8
0
  62
0
100
AcDbLine
 10
332.688000
 20
535.249000
 30
0.000000
 11
332.688000
 21
534.751000
 31
0.000000
  0
LINE
  5
479
330
1F
100
AcDbEntity
  8
0
  62
0
100
AcDbLine
 10
332.688000
 20
534.751000
 30
0.000000
 11
332.597000
 21
534.261000
 31
0.000000
  0
LINE
  5
480
330
1F
100
AcDbEntity
  8
0
  62
0
100
AcDbLine
 10
332.597000
 20
534.261000
 30
0.000000
 11
332.417000
 21
533.797000
 31
0.000000
  0
LINE
  5
481
330
1F
100
AcDbEntity
  8
0
  62
0
100
AcDbLine
 10
332.417000
 20
533.797000
 30
0.000000
 11
332.155000
 21
533.373000
 31
0.000000
  0
LINE
  5
482
330
1F
100
AcDbEntity
  8
0
  62
0
100
AcDbLine
 10
332.155000
 20
533.373000
 30
0.000000
 11
331.819000
 21
533.005000
 31
0.000000
  0
LINE
  5
483
330
1F
100
AcDbEntity
  8
0
  62
0
100
AcDbLine
 10
331.819000
 20
533.005000
 30
0.000000
 11
331.421000
 21
532.704000
 31
0.000000
  0
LINE
  5
484
330
1F
100
AcDbEntity
  8
0
  62
0
100
AcDbLine
 10
331.421000
 20
532.704000
 30
0.000000
 11
330.975000
 21
532.482000
 31
0.000000
  0
LINE
  5
485
330
1F
100
AcDbEntity
  8
0
  62
0
100
AcDbLine
 10
330.975000
 20
532.482000
 30
0.000000
 11
330.496000
 21
532.346000
 31
0.000000
  0
LINE
  5
486
330
1F
100
AcDbEntity
  8
0
  62
0
100
AcDbLine
 10
330.496000
 20
532.346000
 30
0.000000
 11
330.000000
 21
532.300000
 31
0.000000
  0
LINE
  5
487
330
1F
100
AcDbEntity
  8
0
  62
0
100
AcDbLine
 10
330.000000
 20
532.300000
 30
0.000000
 11
329.504000
 21
532.346000
 31
0.000000
  0
LINE
  5
488
330
1F
100
AcDbEntity
  8
0
  62
0
100
AcDbLine
 10
329.504000
 20
532.346000
 30
0.000000
 11
329.025000
 21
532.482000
 31
0.000000
  0
LINE
  5
489
330
1F
100
AcDbEntity
  8
0
  62
0
100
AcDbLine
 10
329.025000
 20
532.482000
 30
0.000000
 11
328.579000
 21
532.704000
 31
0.000000
  0
LINE
  5
490
330
1F
100
AcDbEntity
  8
0
  62
0
100
AcDbLine
 10
328.579000
 20
532.704000
 30
0.000000
 11
328.181000
 21
533.005000
 31
0.000000
  0
LINE
  5
491
330
1F
100
AcDbEntity
  8
0
  62
0
100
AcDbLine
 10
328.181000
 20
533.005000
 30
0.000000
 11
327.845000
 21
533.373000
 31
0.000000
  0
LINE
  5
492
330
1F
100
AcDbEntity
  8
0
  62
0
100
AcDbLine
 10
327.845000
 20
533.373000
 30
0.000000
 11
327.583000
 21
533.797000
 31
0.000000
  0
LINE
  5
493
330
1F
100
AcDbEntity
  8
0
  62
0
100
AcDbLine
 10
327.583000
 20
533.797000
 30
0.000000
 11
327.403000
 21
534.261000
 31
0.000000
  0
LINE
  5
494
330
1F
100
AcDbEntity
  8
0
  62
0
100
AcDbLine
 10
327.403000
 20
534.261000
 30
0.000000
 11
327.312000
 21
534.751000
 31
0.000000
  0
LINE
  5
495
330
1F
100
AcDbEntity
  8
0
  62
0
100
AcDbLine
 10
327.312000
 20
534.751000
 30
0.000000
 11
327.312000
 21
535.249000
 31
0.000000
  0
LINE
  5
496
330
1F
100
AcDbEntity
  8
0
  62
0
100
AcDbLine
 10
327.312000
 20
535.249000
 30
0.000000
 11
327.403000
 21
535.739000
 31
0.000000
  0
LINE
  5
497
330
1F
100
AcDbEntity
  8
0
  62
0
100
AcDbLine
 10
327.403000
 20
535.739000
 30
0.000000
 11
327.583000
 21
536.203000
 31
0.000000
  0
LINE
  5
498
330
1F
100
AcDbEntity
  8
0
  62
0
100
AcDbLine
 10
327.583000
 20
536.203000
 30
0.000000
 11
327.845000
 21
536.627000
 31
0.000000
  0
LINE
  5
499
330
1F
100
AcDbEntity
  8
0
  62
0
100
AcDbLine
 10
327.845000
 20
536.627000
 30
0.000000
 11
328.181000
 21
536.995000
 31
0.000000
  0
LINE
  5
500
330
1F
100
AcDbEntity
  8
0
  62
0
100
AcDbLine
 10
328.181000
 20
536.995000
 30
0.000000
 11
328.579000
 21
537.296000
 31
0.000000
  0
LINE
  5
501
330
1F
100
AcDbEntity
  8
0
  62
0
100
AcDbLine
 10
328.579000
 20
537.296000
 30
0.000000
 11
329.025000
 21
537.518000
 31
0.000000
  0
LINE
  5
502
330
1F
100
AcDbEntity
  8
0
  62
0
100
AcDbLine
 10
329.025000
 20
537.518000
 30
0.000000
 11
329.504000
 21
537.654000
 31
0.000000
  0
LINE
  5
503
330
1F
100
AcDbEntity
  8
0
  62
0
100
AcDbLine
 10
329.504000
 20
537.654000
 30
0.000000
 11
330.000000
 21
537.700000
 31
0.000000
  0
LINE
  5
504
330
1F
100
AcDbEntity
  8
0
  62
0
100
AcDbLine
 10
330.000000
 20
537.700000
 30
0.000000
 11
330.496000
 21
537.654000
 31
0.000000
  0
LINE
  5
505
330
1F
100
AcDbEntity
  8
0
  62
0
100
AcDbLine
 10
330.496000
 20
537.654000
 30
0.000000
 11
330.975000
 21
537.518000
 31
0.000000
  0
LINE
  5
506
330
1F
100
AcDbEntity
  8
0
  62
0
100
AcDbLine
 10
330.975000
 20
537.518000
 30
0.000000
 11
331.421000
 21
537.296000
 31
0.000000
  0
LINE
  5
507
330
1F
100
AcDbEntity
  8
0
  62
0
100
AcDbLine
 10
331.421000
 20
537.296000
 30
0.000000
 11
331.819000
 21
536.995000
 31
0.000000
  0
LINE
  5
508
330
1F
100
AcDbEntity
  8
0
  62
0
100
AcDbLine
 10
331.819000
 20
536.995000
 30
0.000000
 11
332.155000
 21
536.627000
 31
0.000000
  0
LINE
  5
509
330
1F
100
AcDbEntity
  8
0
  62
0
100
AcDbLine
 10
332.155000
 20
536.627000
 30
0.000000
 11
332.417000
 21
536.203000
 31
0.000000
  0
LINE
  5
510
330
1F
100
AcDbEntity
  8
0
  62
0
100
AcDbLine
 10
332.417000
 20
536.203000
 30
0.000000
 11
332.597000
 21
535.739000
 31
0.000000
  0
LINE
  5
511
330
1F
100
AcDbEntity
  8
0
  62
0
100
AcDbLine
 10
332.597000
 20
535.739000
 30
0.000000
 11
332.688000
 21
535.249000
 31
0.000000
  0
LINE
  5
512
330
1F
100
AcDbEntity
  8
0
  62
0
100
AcDbLine
 10
352.688000
 20
65.249000
 30
0.000000
 11
352.688000
 21
64.751000
 31
0.000000
  0
LINE
  5
513
330
1F
100
AcDbEntity
  8
0
  62
0
100
AcDbLine
 10
352.688000
 20
64.751000
 30
0.000000
 11
352.597000
 21
64.261000
 31
0.000000
  0
LINE
  5
514
330
1F
100
AcDbEntity
  8
0
  62
0
100
AcDbLine
 10
352.597000
 20
64.261000
 30
0.000000
 11
352.417000
 21
63.797000
 31
0.000000
  0
LINE
  5
515
330
1F
100
AcDbEntity
  8
0
  62
0
100
AcDbLine
 10
352.417000
 20
63.797000
 30
0.000000
 11
352.155000
 21
63.373000
 31
0.000000
  0
LINE
  5
516
330
1F
100
AcDbEntity
  8
0
  62
0
100
AcDbLine
 10
352.155000
 20
63.373000
 30
0.000000
 11
351.819000
 21
63.005000
 31
0.000000
  0
LINE
  5
517
330
1F
100
AcDbEntity
  8
0
  62
0
100
AcDbLine
 10
351.819000
 20
63.005000
 30
0.000000
 11
351.421000
 21
62.704000
 31
0.000000
  0
LINE
  5
518
330
1F
100
AcDbEntity
  8
0
  62
0
100
AcDbLine
 10
351.421000
 20
62.704000
 30
0.000000
 11
350.975000
 21
62.482000
 31
0.000000
  0
LINE
  5
519
330
1F
100
AcDbEntity
  8
0
  62
0
100
AcDbLine
 10
350.975000
 20
62.482000
 30
0.000000
 11
350.496000
 21
62.346000
 31
0.000000
  0
LINE
  5
520
330
1F
100
AcDbEntity
  8
0
  62
0
100
AcDbLine
 10
350.496000
 20
62.346000
 30
0.000000
 11
350.000000
 21
62.300000
 31
0.000000
  0
LINE
  5
521
330
1F
100
AcDbEntity
  8
0
  62
0
100
AcDbLine
 10
350.000000
 20
62.300000
 30
0.000000
 11
349.504000
 21
62.346000
 31
0.000000
  0
LINE
  5
522
330
1F
100
AcDbEntity
  8
0
  62
0
100
AcDbLine
 10
349.504000
 20
62.346000
 30
0.000000
 11
349.025000
 21
62.482000
 31
0.000000
  0
LINE
  5
523
330
1F
100
AcDbEntity
  8
0
  62
0
100
AcDbLine
 10
349.025000
 20
62.482000
 30
0.000000
 11
348.579000
 21
62.704000
 31
0.000000
  0
LINE
  5
524
330
1F
100
AcDbEntity
  8
0
  62
0
100
AcDbLine
 10
348.579000
 20
62.704000
 30
0.000000
 11
348.181000
 21
63.005000
 31
0.000000
  0
LINE
  5
525
330
1F
100
AcDbEntity
  8
0
  62
0
100
AcDbLine
 10
348.181000
 20
63.005000
 30
0.000000
 11
347.845000
 21
63.373000
 31
0.000000
  0
LINE
  5
526
330
1F
100
AcDbEntity
  8
0
  62
0
100
AcDbLine
 10
347.845000
 20
63.373000
 30
0.000000
 11
347.583000
 21
63.797000
 31
0.000000
  0
LINE
  5
527
330
1F
100
AcDbEntity
  8
0
  62
0
100
AcDbLine
 10
347.583000
 20
63.797000
 30
0.000000
 11
347.403000
 21
64.261000
 31
0.000000
  0
LINE
  5
528
330
1F
100
AcDbEntity
  8
0
  62
0
100
AcDbLine
 10
347.403000
 20
64.261000
 30
0.000000
 11
347.312000
 21
64.751000
 31
0.000000
  0
LINE
  5
529
330
1F
100
AcDbEntity
  8
0
  62
0
100
AcDbLine
 10
347.312000
 20
64.751000
 30
0.000000
 11
347.312000
 21
65.249000
 31
0.000000
  0
LINE
  5
530
330
1F
100
AcDbEntity
  8
0
  62
0
100
AcDbLine
 10
347.312000
 20
65.249000
 30
0.000000
 11
347.403000
 21
65.739000
 31
0.000000
  0
LINE
  5
531
330
1F
100
AcDbEntity
  8
0
  62
0
100
AcDbLine
 10
347.403000
 20
65.739000
 30
0.000000
 11
347.583000
 21
66.203000
 31
0.000000
  0
LINE
  5
532
330
1F
100
AcDbEntity
  8
0
  62
0
100
AcDbLine
 10
347.583000
 20
66.203000
 30
0.000000
 11
347.845000
 21
66.627000
 31
0.000000
  0
LINE
  5
533
330
1F
100
AcDbEntity
  8
0
  62
0
100
AcDbLine
 10
347.845000
 20
66.627000
 30
0.000000
 11
348.181000
 21
66.995000
 31
0.000000
  0
LINE
  5
534
330
1F
100
AcDbEntity
  8
0
  62
0
100
AcDbLine
 10
348.181000
 20
66.995000
 30
0.000000
 11
348.579000
 21
67.296000
 31
0.000000
  0
LINE
  5
535
330
1F
100
AcDbEntity
  8
0
  62
0
100
AcDbLine
 10
348.579000
 20
67.296000
 30
0.000000
 11
349.025000
 21
67.518000
 31
0.000000
  0
LINE
  5
536
330
1F
100
AcDbEntity
  8
0
  62
0
100
AcDbLine
 10
349.025000
 20
67.518000
 30
0.000000
 11
349.504000
 21
67.654000
 31
0.000000
  0
LINE
  5
537
330
1F
100
AcDbEntity
  8
0
  62
0
100
AcDbLine
 10
349.504000
 20
67.654000
 30
0.000000
 11
350.000000
 21
67.700000
 31
0.000000
  0
LINE
  5
538
330
1F
100
AcDbEntity
  8
0
  62
0
100
AcDbLine
 10
350.000000
 20
67.700000
 30
0.000000
 11
350.496000
 21
67.654000
 31
0.000000
  0
LINE
  5
539
330
1F
100
AcDbEntity
  8
0
  62
0
100
AcDbLine
 10
350.496000
 20
67.654000
 30
0.000000
 11
350.975000
 21
67.518000
 31
0.000000
  0
LINE
  5
540
330
1F
100
AcDbEntity
  8
0
  62
0
100
AcDbLine
 10
350.975000
 20
67.518000
 30
0.000000
 11
351.421000
 21
67.296000
 31
0.000000
  0
LINE
  5
541
330
1F
100
AcDbEntity
  8
0
  62
0
100
AcDbLine
 10
351.421000
 20
67.296000
 30
0.000000
 11
351.819000
 21
66.995000
 31
0.000000
  0
LINE
  5
542
330
1F
100
AcDbEntity
  8
0
  62
0
100
AcDbLine
 10
351.819000
 20
66.995000
 30
0.000000
 11
352.155000
 21
66.627000
 31
0.000000
  0
LINE
  5
543
330
1F
100
AcDbEntity
  8
0
  62
0
100
AcDbLine
 10
352.155000
 20
66.627000
 30
0.000000
 11
352.417000
 21
66.203000
 31
0.000000
  0
LINE
  5
544
330
1F
100
AcDbEntity
  8
0
  62
0
100
AcDbLine
 10
352.417000
 20
66.203000
 30
0.000000
 11
352.597000
 21
65.739000
 31
0.000000
  0
LINE
  5
545
330
1F
100
AcDbEntity
  8
0
  62
0
100
AcDbLine
 10
352.597000
 20
65.739000
 30
0.000000
 11
352.688000
 21
65.249000
 31
0.000000
  0
LINE
  5
546
330
1F
100
AcDbEntity
  8
0
  62
0
100
AcDbLine
 10
352.688000
 20
535.249000
 30
0.000000
 11
352.688000
 21
534.751000
 31
0.000000
  0
LINE
  5
547
330
1F
100
AcDbEntity
  8
0
  62
0
100
AcDbLine
 10
352.688000
 20
534.751000
 30
0.000000
 11
352.597000
 21
534.261000
 31
0.000000
  0
LINE
  5
548
330
1F
100
AcDbEntity
  8
0
  62
0
100
AcDbLine
 10
352.597000
 20
534.261000
 30
0.000000
 11
352.417000
 21
533.797000
 31
0.000000
  0
LINE
  5
549
330
1F
100
AcDbEntity
  8
0
  62
0
100
AcDbLine
 10
352.417000
 20
533.797000
 30
0.000000
 11
352.155000
 21
533.373000
 31
0.000000
  0
LINE
  5
550
330
1F
100
AcDbEntity
  8
0
  62
0
100
AcDbLine
 10
352.155000
 20
533.373000
 30
0.000000
 11
351.819000
 21
533.005000
 31
0.000000
  0
LINE
  5
551
330
1F
100
AcDbEntity
  8
0
  62
0
100
AcDbLine
 10
351.819000
 20
533.005000
 30
0.000000
 11
351.421000
 21
532.704000
 31
0.000000
  0
LINE
  5
552
330
1F
100
AcDbEntity
  8
0
  62
0
100
AcDbLine
 10
351.421000
 20
532.704000
 30
0.000000
 11
350.975000
 21
532.482000
 31
0.000000
  0
LINE
  5
553
330
1F
100
AcDbEntity
  8
0
  62
0
100
AcDbLine
 10
350.975000
 20
532.482000
 30
0.000000
 11
350.496000
 21
532.346000
 31
0.000000
  0
LINE
  5
554
330
1F
100
AcDbEntity
  8
0
  62
0
100
AcDbLine
 10
350.496000
 20
532.346000
 30
0.000000
 11
350.000000
 21
532.300000
 31
0.000000
  0
LINE
  5
555
330
1F
100
AcDbEntity
  8
0
  62
0
100
AcDbLine
 10
350.000000
 20
532.300000
 30
0.000000
 11
349.504000
 21
532.346000
 31
0.000000
  0
LINE
  5
556
330
1F
100
AcDbEntity
  8
0
  62
0
100
AcDbLine
 10
349.504000
 20
532.346000
 30
0.000000
 11
349.025000
 21
532.482000
 31
0.000000
  0
LINE
  5
557
330
1F
100
AcDbEntity
  8
0
  62
0
100
AcDbLine
 10
349.025000
 20
532.482000
 30
0.000000
 11
348.579000
 21
532.704000
 31
0.000000
  0
LINE
  5
558
330
1F
100
AcDbEntity
  8
0
  62
0
100
AcDbLine
 10
348.579000
 20
532.704000
 30
0.000000
 11
348.181000
 21
533.005000
 31
0.000000
  0
LINE
  5
559
330
1F
100
AcDbEntity
  8
0
  62
0
100
AcDbLine
 10
348.181000
 20
533.005000
 30
0.000000
 11
347.845000
 21
533.373000
 31
0.000000
  0
LINE
  5
560
330
1F
100
AcDbEntity
  8
0
  62
0
100
AcDbLine
 10
347.845000
 20
533.373000
 30
0.000000
 11
347.583000
 21
533.797000
 31
0.000000
  0
LINE
  5
561
330
1F
100
AcDbEntity
  8
0
  62
0
100
AcDbLine
 10
347.583000
 20
533.797000
 30
0.000000
 11
347.403000
 21
534.261000
 31
0.000000
  0
LINE
  5
562
330
1F
100
AcDbEntity
  8
0
  62
0
100
AcDbLine
 10
347.403000
 20
534.261000
 30
0.000000
 11
347.312000
 21
534.751000
 31
0.000000
  0
LINE
  5
563
330
1F
100
AcDbEntity
  8
0
  62
0
100
AcDbLine
 10
347.312000
 20
534.751000
 30
0.000000
 11
347.312000
 21
535.249000
 31
0.000000
  0
LINE
  5
564
330
1F
100
AcDbEntity
  8
0
  62
0
100
AcDbLine
 10
347.312000
 20
535.249000
 30
0.000000
 11
347.403000
 21
535.739000
 31
0.000000
  0
LINE
  5
565
330
1F
100
AcDbEntity
  8
0
  62
0
100
AcDbLine
 10
347.403000
 20
535.739000
 30
0.000000
 11
347.583000
 21
536.203000
 31
0.000000
  0
LINE
  5
566
330
1F
100
AcDbEntity
  8
0
  62
0
100
AcDbLine
 10
347.583000
 20
536.203000
 30
0.000000
 11
347.845000
 21
536.627000
 31
0.000000
  0
LINE
  5
567
330
1F
100
AcDbEntity
  8
0
  62
0
100
AcDbLine
 10
347.845000
 20
536.627000
 30
0.000000
 11
348.181000
 21
536.995000
 31
0.000000
  0
LINE
  5
568
330
1F
100
AcDbEntity
  8
0
  62
0
100
AcDbLine
 10
348.181000
 20
536.995000
 30
0.000000
 11
348.579000
 21
537.296000
 31
0.000000
  0
LINE
  5
569
330
1F
100
AcDbEntity
  8
0
  62
0
100
AcDbLine
 10
348.579000
 20
537.296000
 30
0.000000
 11
349.025000
 21
537.518000
 31
0.000000
  0
LINE
  5
570
330
1F
100
AcDbEntity
  8
0
  62
0
100
AcDbLine
 10
349.025000
 20
537.518000
 30
0.000000
 11
349.504000
 21
537.654000
 31
0.000000
  0
LINE
  5
571
330
1F
100
AcDbEntity
  8
0
  62
0
100
AcDbLine
 10
349.504000
 20
537.654000
 30
0.000000
 11
350.000000
 21
537.700000
 31
0.000000
  0
LINE
  5
572
330
1F
100
AcDbEntity
  8
0
  62
0
100
AcDbLine
 10
350.000000
 20
537.700000
 30
0.000000
 11
350.496000
 21
537.654000
 31
0.000000
  0
LINE
  5
573
330
1F
100
AcDbEntity
  8
0
  62
0
100
AcDbLine
 10
350.496000
 20
537.654000
 30
0.000000
 11
350.975000
 21
537.518000
 31
0.000000
  0
LINE
  5
574
330
1F
100
AcDbEntity
  8
0
  62
0
100
AcDbLine
 10
350.975000
 20
537.518000
 30
0.000000
 11
351.421000
 21
537.296000
 31
0.000000
  0
LINE
  5
575
330
1F
100
AcDbEntity
  8
0
  62
0
100
AcDbLine
 10
351.421000
 20
537.296000
 30
0.000000
 11
351.819000
 21
536.995000
 31
0.000000
  0
LINE
  5
576
330
1F
100
AcDbEntity
  8
0
  62
0
100
AcDbLine
 10
351.819000
 20
536.995000
 30
0.000000
 11
352.155000
 21
536.627000
 31
0.000000
  0
LINE
  5
577
330
1F
100
AcDbEntity
  8
0
  62
0
100
AcDbLine
 10
352.155000
 20
536.627000
 30
0.000000
 11
352.417000
 21
536.203000
 31
0.000000
  0
LINE
  5
578
330
1F
100
AcDbEntity
  8
0
  62
0
100
AcDbLine
 10
352.417000
 20
536.203000
 30
0.000000
 11
352.597000
 21
535.739000
 31
0.000000
  0
LINE
  5
579
330
1F
100
AcDbEntity
  8
0
  62
0
100
AcDbLine
 10
352.597000
 20
535.739000
 30
0.000000
 11
352.688000
 21
535.249000
 31
0.000000
  0
LINE
  5
580
330
1F
100
AcDbEntity
  8
0
  62
0
100
AcDbLine
 10
502.688480
 20
65.249000
 30
0.000000
 11
502.688480
 21
64.751000
 31
0.000000
  0
LINE
  5
581
330
1F
100
AcDbEntity
  8
0
  62
0
100
AcDbLine
 10
502.688480
 20
64.751000
 30
0.000000
 11
502.596920
 21
64.261000
 31
0.000000
  0
LINE
  5
582
330
1F
100
AcDbEntity
  8
0
  62
0
100
AcDbLine
 10
502.596920
 20
64.261000
 30
0.000000
 11
502.416930
 21
63.797000
 31
0.000000
  0
LINE
  5
583
330
1F
100
AcDbEntity
  8
0
  62
0
100
AcDbLine
 10
502.416930
 20
63.797000
 30
0.000000
 11
502.154630
 21
63.373000
 31
0.000000
  0
LINE
  5
584
330
1F
100
AcDbEntity
  8
0
  62
0
100
AcDbLine
 10
502.154630
 20
63.373000
 30
0.000000
 11
501.818970
 21
63.005000
 31
0.000000
  0
LINE
  5
585
330
1F
100
AcDbEntity
  8
0
  62
0
100
AcDbLine
 10
501.818970
 20
63.005000
 30
0.000000
 11
501.421360
 21
62.704000
 31
0.000000
  0
LINE
  5
586
330
1F
100
AcDbEntity
  8
0
  62
0
100
AcDbLine
 10
501.421360
 20
62.704000
 30
0.000000
 11
500.975342
 21
62.482000
 31
0.000000
  0
LINE
  5
587
330
1F
100
AcDbEntity
  8
0
  62
0
100
AcDbLine
 10
500.975342
 20
62.482000
 30
0.000000
 11
500.496109
 21
62.346000
 31
0.000000
  0
LINE
  5
588
330
1F
100
AcDbEntity
  8
0
  62
0
100
AcDbLine
 10
500.496109
 20
62.346000
 30
0.000000
 11
500.000000
 21
62.300000
 31
0.000000
  0
LINE
  5
589
330
1F
100
AcDbEntity
  8
0
  62
0
100
AcDbLine
 10
500.000000
 20
62.300000
 30
0.000000
 11
499.503891
 21
62.346000
 31
0.000000
  0
LINE
  5
590
330
1F
100
AcDbEntity
  8
0
  62
0
100
AcDbLine
 10
499.503891
 20
62.346000
 30
0.000000
 11
499.024658
 21
62.482000
 31
0.000000
  0
LINE
  5
591
330
1F
100
AcDbEntity
  8
0
  62
0
100
AcDbLine
 10
499.024658
 20
62.482000
 30
0.000000
 11
498.578640
 21
62.704000
 31
0.000000
  0
LINE
  5
592
330
1F
100
AcDbEntity
  8
0
  62
0
100
AcDbLine
 10
498.578640
 20
62.704000
 30
0.000000
 11
498.181030
 21
63.005000
 31
0.000000
  0
LINE
  5
593
330
1F
100
AcDbEntity
  8
0
  62
0
100
AcDbLine
 10
498.181030
 20
63.005000
 30
0.000000
 11
497.845370
 21
63.373000
 31
0.000000
  0
LINE
  5
594
330
1F
100
AcDbEntity
  8
0
  62
0
100
AcDbLine
 10
497.845370
 20
63.373000
 30
0.000000
 11
497.583070
 21
63.797000
 31
0.000000
  0
LINE
  5
595
330
1F
100
AcDbEntity
  8
0
  62
0
100
AcDbLine
 10
497.583070
 20
63.797000
 30
0.000000
 11
497.403080
 21
64.261000
 31
0.000000
  0
LINE
  5
596
330
1F
100
AcDbEntity
  8
0
  62
0
100
AcDbLine
 10
497.403080
 20
64.261000
 30
0.000000
 11
497.311520
 21
64.751000
 31
0.000000
  0
LINE
  5
597
330
1F
100
AcDbEntity
  8
0
  62
0
100
AcDbLine
 10
497.311520
 20
64.751000
 30
0.000000
 11
497.311520
 21
65.249000
 31
0.000000
  0
LINE
  5
598
330
1F
100
AcDbEntity
  8
0
  62
0
100
AcDbLine
 10
497.311520
 20
65.249000
 30
0.000000
 11
497.403080
 21
65.739000
 31
0.000000
  0
LINE
  5
599
330
1F
100
AcDbEntity
  8
0
  62
0
100
AcDbLine
 10
497.403080
 20
65.739000
 30
0.000000
 11
497.583070
 21
66.203000
 31
0.000000
  0
LINE
  5
600
330
1F
100
AcDbEntity
  8
0
  62
0
100
AcDbLine
 10
497.583070
 20
66.203000
 30
0.000000
 11
497.845370
 21
66.627000
 31
0.000000
  0
LINE
  5
601
330
1F
100
AcDbEntity
  8
0
  62
0
100
AcDbLine
 10
497.845370
 20
66.627000
 30
0.000000
 11
498.181030
 21
66.995000
 31
0.000000
  0
LINE
  5
602
330
1F
100
AcDbEntity
  8
0
  62
0
100
AcDbLine
 10
498.181030
 20
66.995000
 30
0.000000
 11
498.578640
 21
67.296000
 31
0.000000
  0
LINE
  5
603
330
1F
100
AcDbEntity
  8
0
  62
0
100
AcDbLine
 10
498.578640
 20
67.296000
 30
0.000000
 11
499.024658
 21
67.518000
 31
0.000000
  0
LINE
  5
604
330
1F
100
AcDbEntity
  8
0
  62
0
100
AcDbLine
 10
499.024658
 20
67.518000
 30
0.000000
 11
499.503891
 21
67.654000
 31
0.000000
  0
LINE
  5
605
330
1F
100
AcDbEntity
  8
0
  62
0
100
AcDbLine
 10
499.503891
 20
67.654000
 30
0.000000
 11
500.000000
 21
67.700000
 31
0.000000
  0
LINE
  5
606
330
1F
100
AcDbEntity
  8
0
  62
0
100
AcDbLine
 10
500.000000
 20
67.700000
 30
0.000000
 11
500.496109
 21
67.654000
 31
0.000000
  0
LINE
  5
607
330
1F
100
AcDbEntity
  8
0
  62
0
100
AcDbLine
 10
500.496109
 20
67.654000
 30
0.000000
 11
500.975342
 21
67.518000
 31
0.000000
  0
LINE
  5
608
330
1F
100
AcDbEntity
  8
0
  62
0
100
AcDbLine
 10
500.975342
 20
67.518000
 30
0.000000
 11
501.421360
 21
67.296000
 31
0.000000
  0
LINE
  5
609
330
1F
100
AcDbEntity
  8
0
  62
0
100
AcDbLine
 10
501.421360
 20
67.296000
 30
0.000000
 11
501.818970
 21
66.995000
 31
0.000000
  0
LINE
  5
610
330
1F
100
AcDbEntity
  8
0
  62
0
100
AcDbLine
 10
501.818970
 20
66.995000
 30
0.000000
 11
502.154630
 21
66.627000
 31
0.000000
  0
LINE
  5
611
330
1F
100
AcDbEntity
  8
0
  62
0
100
AcDbLine
 10
502.154630
 20
66.627000
 30
0.000000
 11
502.416930
 21
66.203000
 31
0.000000
  0
LINE
  5
612
330
1F
100
AcDbEntity
  8
0
  62
0
100
AcDbLine
 10
502.416930
 20
66.203000
 30
0.000000
 11
502.596920
 21
65.739000
 31
0.000000
  0
LINE
  5
613
330
1F
100
AcDbEntity
  8
0
  62
0
100
AcDbLine
 10
502.596920
 20
65.739000
 30
0.000000
 11
502.688480
 21
65.249000
 31
0.000000
  0
LINE
  5
614
330
1F
100
AcDbEntity
  8
0
  62
0
100
AcDbLine
 10
502.688480
 20
535.249000
 30
0.000000
 11
502.688480
 21
534.751000
 31
0.000000
  0
LINE
  5
615
330
1F
100
AcDbEntity
  8
0
  62
0
100
AcDbLine
 10
502.688480
 20
534.751000
 30
0.000000
 11
502.596920
 21
534.261000
 31
0.000000
  0
LINE
  5
616
330
1F
100
AcDbEntity
  8
0
  62
0
100
AcDbLine
 10
502.596920
 20
534.261000
 30
0.000000
 11
502.416930
 21
533.797000
 31
0.000000
  0
LINE
  5
617
330
1F
100
AcDbEntity
  8
0
  62
0
100
AcDbLine
 10
502.416930
 20
533.797000
 30
0.000000
 11
502.154630
 21
533.373000
 31
0.000000
  0
LINE
  5
618
330
1F
100
AcDbEntity
  8
0
  62
0
100
AcDbLine
 10
502.154630
 20
533.373000
 30
0.000000
 11
501.818970
 21
533.005000
 31
0.000000
  0
LINE
  5
619
330
1F
100
AcDbEntity
  8
0
  62
0
100
AcDbLine
 10
501.818970
 20
533.005000
 30
0.000000
 11
501.421360
 21
532.704000
 31
0.000000
  0
LINE
  5
620
330
1F
100
AcDbEntity
  8
0
  62
0
100
AcDbLine
 10
501.421360
 20
532.704000
 30
0.000000
 11
500.975342
 21
532.482000
 31
0.000000
  0
LINE
  5
621
330
1F
100
AcDbEntity
  8
0
  62
0
100
AcDbLine
 10
500.975342
 20
532.482000
 30
0.000000
 11
500.496109
 21
532.346000
 31
0.000000
  0
LINE
  5
622
330
1F
100
AcDbEntity
  8
0
  62
0
100
AcDbLine
 10
500.496109
 20
532.346000
 30
0.000000
 11
500.000000
 21
532.300000
 31
0.000000
  0
LINE
  5
623
330
1F
100
AcDbEntity
  8
0
  62
0
100
AcDbLine
 10
500.000000
 20
532.300000
 30
0.000000
 11
499.503891
 21
532.346000
 31
0.000000
  0
LINE
  5
624
330
1F
100
AcDbEntity
  8
0
  62
0
100
AcDbLine
 10
499.503891
 20
532.346000
 30
0.000000
 11
499.024658
 21
532.482000
 31
0.000000
  0
LINE
  5
625
330
1F
100
AcDbEntity
  8
0
  62
0
100
AcDbLine
 10
499.024658
 20
532.482000
 30
0.000000
 11
498.578640
 21
532.704000
 31
0.000000
  0
LINE
  5
626
330
1F
100
AcDbEntity
  8
0
  62
0
100
AcDbLine
 10
498.578640
 20
532.704000
 30
0.000000
 11
498.181030
 21
533.005000
 31
0.000000
  0
LINE
  5
627
330
1F
100
AcDbEntity
  8
0
  62
0
100
AcDbLine
 10
498.181030
 20
533.005000
 30
0.000000
 11
497.845370
 21
533.373000
 31
0.000000
  0
LINE
  5
628
330
1F
100
AcDbEntity
  8
0
  62
0
100
AcDbLine
 10
497.845370
 20
533.373000
 30
0.000000
 11
497.583070
 21
533.797000
 31
0.000000
  0
LINE
  5
629
330
1F
100
AcDbEntity
  8
0
  62
0
100
AcDbLine
 10
497.583070
 20
533.797000
 30
0.000000
 11
497.403080
 21
534.261000
 31
0.000000
  0
LINE
  5
630
330
1F
100
AcDbEntity
  8
0
  62
0
100
AcDbLine
 10
497.403080
 20
534.261000
 30
0.000000
 11
497.311520
 21
534.751000
 31
0.000000
  0
LINE
  5
631
330
1F
100
AcDbEntity
  8
0
  62
0
100
AcDbLine
 10
497.311520
 20
534.751000
 30
0.000000
 11
497.311520
 21
535.249000
 31
0.000000
  0
LINE
  5
632
330
1F
100
AcDbEntity
  8
0
  62
0
100
AcDbLine
 10
497.311520
 20
535.249000
 30
0.000000
 11
497.403080
 21
535.739000
 31
0.000000
  0
LINE
  5
633
330
1F
100
AcDbEntity
  8
0
  62
0
100
AcDbLine
 10
497.403080
 20
535.739000
 30
0.000000
 11
497.583070
 21
536.203000
 31
0.000000
  0
LINE
  5
634
330
1F
100
AcDbEntity
  8
0
  62
0
100
AcDbLine
 10
497.583070
 20
536.203000
 30
0.000000
 11
497.845370
 21
536.627000
 31
0.000000
  0
LINE
  5
635
330
1F
100
AcDbEntity
  8
0
  62
0
100
AcDbLine
 10
497.845370
 20
536.627000
 30
0.000000
 11
498.181030
 21
536.995000
 31
0.000000
  0
LINE
  5
636
330
1F
100
AcDbEntity
  8
0
  62
0
100
AcDbLine
 10
498.181030
 20
536.995000
 30
0.000000
 11
498.578640
 21
537.296000
 31
0.000000
  0
LINE
  5
637
330
1F
100
AcDbEntity
  8
0
  62
0
100
AcDbLine
 10
498.578640
 20
537.296000
 30
0.000000
 11
499.024658
 21
537.518000
 31
0.000000
  0
LINE
  5
638
330
1F
100
AcDbEntity
  8
0
  62
0
100
AcDbLine
 10
499.024658
 20
537.518000
 30
0.000000
 11
499.503891
 21
537.654000
 31
0.000000
  0
LINE
  5
639
330
1F
100
AcDbEntity
  8
0
  62
0
100
AcDbLine
 10
499.503891
 20
537.654000
 30
0.000000
 11
500.000000
 21
537.700000
 31
0.000000
  0
LINE
  5
640
330
1F
100
AcDbEntity
  8
0
  62
0
100
AcDbLine
 10
500.000000
 20
537.700000
 30
0.000000
 11
500.496109
 21
537.654000
 31
0.000000
  0
LINE
  5
641
330
1F
100
AcDbEntity
  8
0
  62
0
100
AcDbLine
 10
500.496109
 20
537.654000
 30
0.000000
 11
500.975342
 21
537.518000
 31
0.000000
  0
LINE
  5
642
330
1F
100
AcDbEntity
  8
0
  62
0
100
AcDbLine
 10
500.975342
 20
537.518000
 30
0.000000
 11
501.421360
 21
537.296000
 31
0.000000
  0
LINE
  5
643
330
1F
100
AcDbEntity
  8
0
  62
0
100
AcDbLine
 10
501.421360
 20
537.296000
 30
0.000000
 11
501.818970
 21
536.995000
 31
0.000000
  0
LINE
  5
644
330
1F
100
AcDbEntity
  8
0
  62
0
100
AcDbLine
 10
501.818970
 20
536.995000
 30
0.000000
 11
502.154630
 21
536.627000
 31
0.000000
  0
LINE
  5
645
330
1F
100
AcDbEntity
  8
0
  62
0
100
AcDbLine
 10
502.154630
 20
536.627000
 30
0.000000
 11
502.416930
 21
536.203000
 31
0.000000
  0
LINE
  5
646
330
1F
100
AcDbEntity
  8
0
  62
0
100
AcDbLine
 10
502.416930
 20
536.203000
 30
0.000000
 11
502.596920
 21
535.739000
 31
0.000000
  0
LINE
  5
647
330
1F
100
AcDbEntity
  8
0
  62
0
100
AcDbLine
 10
502.596920
 20
535.739000
 30
0.000000
 11
502.688480
 21
535.249000
 31
0.000000
  0
LINE
  5
648
330
1F
100
AcDbEntity
  8
0
  62
0
100
AcDbLine
 10
652.688000
 20
65.249000
 30
0.000000
 11
652.688000
 21
64.751000
 31
0.000000
  0
LINE
  5
649
330
1F
100
AcDbEntity
  8
0
  62
0
100
AcDbLine
 10
652.688000
 20
64.751000
 30
0.000000
 11
652.597000
 21
64.261000
 31
0.000000
  0
LINE
  5
650
330
1F
100
AcDbEntity
  8
0
  62
0
100
AcDbLine
 10
652.597000
 20
64.261000
 30
0.000000
 11
652.417000
 21
63.797000
 31
0.000000
  0
LINE
  5
651
330
1F
100
AcDbEntity
  8
0
  62
0
100
AcDbLine
 10
652.417000
 20
63.797000
 30
0.000000
 11
652.155000
 21
63.373000
 31
0.000000
  0
LINE
  5
652
330
1F
100
AcDbEntity
  8
0
  62
0
100
AcDbLine
 10
652.155000
 20
63.373000
 30
0.000000
 11
651.819000
 21
63.005000
 31
0.000000
  0
LINE
  5
653
330
1F
100
AcDbEntity
  8
0
  62
0
100
AcDbLine
 10
651.819000
 20
63.005000
 30
0.000000
 11
651.421000
 21
62.704000
 31
0.000000
  0
LINE
  5
654
330
1F
100
AcDbEntity
  8
0
  62
0
100
AcDbLine
 10
651.421000
 20
62.704000
 30
0.000000
 11
650.975000
 21
62.482000
 31
0.000000
  0
LINE
  5
655
330
1F
100
AcDbEntity
  8
0
  62
0
100
AcDbLine
 10
650.975000
 20
62.482000
 30
0.000000
 11
650.496000
 21
62.346000
 31
0.000000
  0
LINE
  5
656
330
1F
100
AcDbEntity
  8
0
  62
0
100
AcDbLine
 10
650.496000
 20
62.346000
 30
0.000000
 11
650.000000
 21
62.300000
 31
0.000000
  0
LINE
  5
657
330
1F
100
AcDbEntity
  8
0
  62
0
100
AcDbLine
 10
650.000000
 20
62.300000
 30
0.000000
 11
649.504000
 21
62.346000
 31
0.000000
  0
LINE
  5
658
330
1F
100
AcDbEntity
  8
0
  62
0
100
AcDbLine
 10
649.504000
 20
62.346000
 30
0.000000
 11
649.025000
 21
62.482000
 31
0.000000
  0
LINE
  5
659
330
1F
100
AcDbEntity
  8
0
  62
0
100
AcDbLine
 10
649.025000
 20
62.482000
 30
0.000000
 11
648.579000
 21
62.704000
 31
0.000000
  0
LINE
  5
660
330
1F
100
AcDbEntity
  8
0
  62
0
100
AcDbLine
 10
648.579000
 20
62.704000
 30
0.000000
 11
648.181000
 21
63.005000
 31
0.000000
  0
LINE
  5
661
330
1F
100
AcDbEntity
  8
0
  62
0
100
AcDbLine
 10
648.181000
 20
63.005000
 30
0.000000
 11
647.845000
 21
63.373000
 31
0.000000
  0
LINE
  5
662
330
1F
100
AcDbEntity
  8
0
  62
0
100
AcDbLine
 10
647.845000
 20
63.373000
 30
0.000000
 11
647.583000
 21
63.797000
 31
0.000000
  0
LINE
  5
663
330
1F
100
AcDbEntity
  8
0
  62
0
100
AcDbLine
 10
647.583000
 20
63.797000
 30
0.000000
 11
647.403000
 21
64.261000
 31
0.000000
  0
LINE
  5
664
330
1F
100
AcDbEntity
  8
0
  62
0
100
AcDbLine
 10
647.403000
 20
64.261000
 30
0.000000
 11
647.312000
 21
64.751000
 31
0.000000
  0
LINE
  5
665
330
1F
100
AcDbEntity
  8
0
  62
0
100
AcDbLine
 10
647.312000
 20
64.751000
 30
0.000000
 11
647.312000
 21
65.249000
 31
0.000000
  0
LINE
  5
666
330
1F
100
AcDbEntity
  8
0
  62
0
100
AcDbLine
 10
647.312000
 20
65.249000
 30
0.000000
 11
647.403000
 21
65.739000
 31
0.000000
  0
LINE
  5
667
330
1F
100
AcDbEntity
  8
0
  62
0
100
AcDbLine
 10
647.403000
 20
65.739000
 30
0.000000
 11
647.583000
 21
66.203000
 31
0.000000
  0
LINE
  5
668
330
1F
100
AcDbEntity
  8
0
  62
0
100
AcDbLine
 10
647.583000
 20
66.203000
 30
0.000000
 11
647.845000
 21
66.627000
 31
0.000000
  0
LINE
  5
669
330
1F
100
AcDbEntity
  8
0
  62
0
100
AcDbLine
 10
647.845000
 20
66.627000
 30
0.000000
 11
648.181000
 21
66.995000
 31
0.000000
  0
LINE
  5
670
330
1F
100
AcDbEntity
  8
0
  62
0
100
AcDbLine
 10
648.181000
 20
66.995000
 30
0.000000
 11
648.579000
 21
67.296000
 31
0.000000
  0
LINE
  5
671
330
1F
100
AcDbEntity
  8
0
  62
0
100
AcDbLine
 10
648.579000
 20
67.296000
 30
0.000000
 11
649.025000
 21
67.518000
 31
0.000000
  0
LINE
  5
672
330
1F
100
AcDbEntity
  8
0
  62
0
100
AcDbLine
 10
649.025000
 20
67.518000
 30
0.000000
 11
649.504000
 21
67.654000
 31
0.000000
  0
LINE
  5
673
330
1F
100
AcDbEntity
  8
0
  62
0
100
AcDbLine
 10
649.504000
 20
67.654000
 30
0.000000
 11
650.000000
 21
67.700000
 31
0.000000
  0
LINE
  5
674
330
1F
100
AcDbEntity
  8
0
  62
0
100
AcDbLine
 10
650.000000
 20
67.700000
 30
0.000000
 11
650.496000
 21
67.654000
 31
0.000000
  0
LINE
  5
675
330
1F
100
AcDbEntity
  8
0
  62
0
100
AcDbLine
 10
650.496000
 20
67.654000
 30
0.000000
 11
650.975000
 21
67.518000
 31
0.000000
  0
LINE
  5
676
330
1F
100
AcDbEntity
  8
0
  62
0
100
AcDbLine
 10
650.975000
 20
67.518000
 30
0.000000
 11
651.421000
 21
67.296000
 31
0.000000
  0
LINE
  5
677
330
1F
100
AcDbEntity
  8
0
  62
0
100
AcDbLine
 10
651.421000
 20
67.296000
 30
0.000000
 11
651.819000
 21
66.995000
 31
0.000000
  0
LINE
  5
678
330
1F
100
AcDbEntity
  8
0
  62
0
100
AcDbLine
 10
651.819000
 20
66.995000
 30
0.000000
 11
652.155000
 21
66.627000
 31
0.000000
  0
LINE
  5
679
330
1F
100
AcDbEntity
  8
0
  62
0
100
AcDbLine
 10
652.155000
 20
66.627000
 30
0.000000
 11
652.417000
 21
66.203000
 31
0.000000
  0
LINE
  5
680
330
1F
100
AcDbEntity
  8
0
  62
0
100
AcDbLine
 10
652.417000
 20
66.203000
 30
0.000000
 11
652.597000
 21
65.739000
 31
0.000000
  0
LINE
  5
681
330
1F
100
AcDbEntity
  8
0
  62
0
100
AcDbLine
 10
652.597000
 20
65.739000
 30
0.000000
 11
652.688000
 21
65.249000
 31
0.000000
  0
LINE
  5
682
330
1F
100
AcDbEntity
  8
0
  62
0
100
AcDbLine
 10
652.688000
 20
535.249000
 30
0.000000
 11
652.688000
 21
534.751000
 31
0.000000
  0
LINE
  5
683
330
1F
100
AcDbEntity
  8
0
  62
0
100
AcDbLine
 10
652.688000
 20
534.751000
 30
0.000000
 11
652.597000
 21
534.261000
 31
0.000000
  0
LINE
  5
684
330
1F
100
AcDbEntity
  8
0
  62
0
100
AcDbLine
 10
652.597000
 20
534.261000
 30
0.000000
 11
652.417000
 21
533.797000
 31
0.000000
  0
LINE
  5
685
330
1F
100
AcDbEntity
  8
0
  62
0
100
AcDbLine
 10
652.417000
 20
533.797000
 30
0.000000
 11
652.155000
 21
533.373000
 31
0.000000
  0
LINE
  5
686
330
1F
100
AcDbEntity
  8
0
  62
0
100
AcDbLine
 10
652.155000
 20
533.373000
 30
0.000000
 11
651.819000
 21
533.005000
 31
0.000000
  0
LINE
  5
687
330
1F
100
AcDbEntity
  8
0
  62
0
100
AcDbLine
 10
651.819000
 20
533.005000
 30
0.000000
 11
651.421000
 21
532.704000
 31
0.000000
  0
LINE
  5
688
330
1F
100
AcDbEntity
  8
0
  62
0
100
AcDbLine
 10
651.421000
 20
532.704000
 30
0.000000
 11
650.975000
 21
532.482000
 31
0.000000
  0
LINE
  5
689
330
1F
100
AcDbEntity
  8
0
  62
0
100
AcDbLine
 10
650.975000
 20
532.482000
 30
0.000000
 11
650.496000
 21
532.346000
 31
0.000000
  0
LINE
  5
690
330
1F
100
AcDbEntity
  8
0
  62
0
100
AcDbLine
 10
650.496000
 20
532.346000
 30
0.000000
 11
650.000000
 21
532.300000
 31
0.000000
  0
LINE
  5
691
330
1F
100
AcDbEntity
  8
0
  62
0
100
AcDbLine
 10
650.000000
 20
532.300000
 30
0.000000
 11
649.504000
 21
532.346000
 31
0.000000
  0
LINE
  5
692
330
1F
100
AcDbEntity
  8
0
  62
0
100
AcDbLine
 10
649.504000
 20
532.346000
 30
0.000000
 11
649.025000
 21
532.482000
 31
0.000000
  0
LINE
  5
693
330
1F
100
AcDbEntity
  8
0
  62
0
100
AcDbLine
 10
649.025000
 20
532.482000
 30
0.000000
 11
648.579000
 21
532.704000
 31
0.000000
  0
LINE
  5
694
330
1F
100
AcDbEntity
  8
0
  62
0
100
AcDbLine
 10
648.579000
 20
532.704000
 30
0.000000
 11
648.181000
 21
533.005000
 31
0.000000
  0
LINE
  5
695
330
1F
100
AcDbEntity
  8
0
  62
0
100
AcDbLine
 10
648.181000
 20
533.005000
 30
0.000000
 11
647.845000
 21
533.373000
 31
0.000000
  0
LINE
  5
696
330
1F
100
AcDbEntity
  8
0
  62
0
100
AcDbLine
 10
647.845000
 20
533.373000
 30
0.000000
 11
647.583000
 21
533.797000
 31
0.000000
  0
LINE
  5
697
330
1F
100
AcDbEntity
  8
0
  62
0
100
AcDbLine
 10
647.583000
 20
533.797000
 30
0.000000
 11
647.403000
 21
534.261000
 31
0.000000
  0
LINE
  5
698
330
1F
100
AcDbEntity
  8
0
  62
0
100
AcDbLine
 10
647.403000
 20
534.261000
 30
0.000000
 11
647.312000
 21
534.751000
 31
0.000000
  0
LINE
  5
699
330
1F
100
AcDbEntity
  8
0
  62
0
100
AcDbLine
 10
647.312000
 20
534.751000
 30
0.000000
 11
647.312000
 21
535.249000
 31
0.000000
  0
LINE
  5
700
330
1F
100
AcDbEntity
  8
0
  62
0
100
AcDbLine
 10
647.312000
 20
535.249000
 30
0.000000
 11
647.403000
 21
535.739000
 31
0.000000
  0
LINE
  5
701
330
1F
100
AcDbEntity
  8
0
  62
0
100
AcDbLine
 10
647.403000
 20
535.739000
 30
0.000000
 11
647.583000
 21
536.203000
 31
0.000000
  0
LINE
  5
702
330
1F
100
AcDbEntity
  8
0
  62
0
100
AcDbLine
 10
647.583000
 20
536.203000
 30
0.000000
 11
647.845000
 21
536.627000
 31
0.000000
  0
LINE
  5
703
330
1F
100
AcDbEntity
  8
0
  62
0
100
AcDbLine
 10
647.845000
 20
536.627000
 30
0.000000
 11
648.181000
 21
536.995000
 31
0.000000
  0
LINE
  5
704
330
1F
100
AcDbEntity
  8
0
  62
0
100
AcDbLine
 10
648.181000
 20
536.995000
 30
0.000000
 11
648.579000
 21
537.296000
 31
0.000000
  0
LINE
  5
705
330
1F
100
AcDbEntity
  8
0
  62
0
100
AcDbLine
 10
648.579000
 20
537.296000
 30
0.000000
 11
649.025000
 21
537.518000
 31
0.000000
  0
LINE
  5
706
330
1F
100
AcDbEntity
  8
0
  62
0
100
AcDbLine
 10
649.025000
 20
537.518000
 30
0.000000
 11
649.504000
 21
537.654000
 31
0.000000
  0
LINE
  5
707
330
1F
100
AcDbEntity
  8
0
  62
0
100
AcDbLine
 10
649.504000
 20
537.654000
 30
0.000000
 11
650.000000
 21
537.700000
 31
0.000000
  0
LINE
  5
708
330
1F
100
AcDbEntity
  8
0
  62
0
100
AcDbLine
 10
650.000000
 20
537.700000
 30
0.000000
 11
650.496000
 21
537.654000
 31
0.000000
  0
LINE
  5
709
330
1F
100
AcDbEntity
  8
0
  62
0
100
AcDbLine
 10
650.496000
 20
537.654000
 30
0.000000
 11
650.975000
 21
537.518000
 31
0.000000
  0
LINE
  5
710
330
1F
100
AcDbEntity
  8
0
  62
0
100
AcDbLine
 10
650.975000
 20
537.518000
 30
0.000000
 11
651.421000
 21
537.296000
 31
0.000000
  0
LINE
  5
711
330
1F
100
AcDbEntity
  8
0
  62
0
100
AcDbLine
 10
651.421000
 20
537.296000
 30
0.000000
 11
651.819000
 21
536.995000
 31
0.000000
  0
LINE
  5
712
330
1F
100
AcDbEntity
  8
0
  62
0
100
AcDbLine
 10
651.819000
 20
536.995000
 30
0.000000
 11
652.155000
 21
536.627000
 31
0.000000
  0
LINE
  5
713
330
1F
100
AcDbEntity
  8
0
  62
0
100
AcDbLine
 10
652.155000
 20
536.627000
 30
0.000000
 11
652.417000
 21
536.203000
 31
0.000000
  0
LINE
  5
714
330
1F
100
AcDbEntity
  8
0
  62
0
100
AcDbLine
 10
652.417000
 20
536.203000
 30
0.000000
 11
652.597000
 21
535.739000
 31
0.000000
  0
LINE
  5
715
330
1F
100
AcDbEntity
  8
0
  62
0
100
AcDbLine
 10
652.597000
 20
535.739000
 30
0.000000
 11
652.688000
 21
535.249000
 31
0.000000
  0
LINE
  5
716
330
1F
100
AcDbEntity
  8
0
  62
0
100
AcDbLine
 10
672.688000
 20
65.249000
 30
0.000000
 11
672.688000
 21
64.751000
 31
0.000000
  0
LINE
  5
717
330
1F
100
AcDbEntity
  8
0
  62
0
100
AcDbLine
 10
672.688000
 20
64.751000
 30
0.000000
 11
672.597000
 21
64.261000
 31
0.000000
  0
LINE
  5
718
330
1F
100
AcDbEntity
  8
0
  62
0
100
AcDbLine
 10
672.597000
 20
64.261000
 30
0.000000
 11
672.417000
 21
63.797000
 31
0.000000
  0
LINE
  5
719
330
1F
100
AcDbEntity
  8
0
  62
0
100
AcDbLine
 10
672.417000
 20
63.797000
 30
0.000000
 11
672.155000
 21
63.373000
 31
0.000000
  0
LINE
  5
720
330
1F
100
AcDbEntity
  8
0
  62
0
100
AcDbLine
 10
672.155000
 20
63.373000
 30
0.000000
 11
671.819000
 21
63.005000
 31
0.000000
  0
LINE
  5
721
330
1F
100
AcDbEntity
  8
0
  62
0
100
AcDbLine
 10
671.819000
 20
63.005000
 30
0.000000
 11
671.421000
 21
62.704000
 31
0.000000
  0
LINE
  5
722
330
1F
100
AcDbEntity
  8
0
  62
0
100
AcDbLine
 10
671.421000
 20
62.704000
 30
0.000000
 11
670.975000
 21
62.482000
 31
0.000000
  0
LINE
  5
723
330
1F
100
AcDbEntity
  8
0
  62
0
100
AcDbLine
 10
670.975000
 20
62.482000
 30
0.000000
 11
670.496000
 21
62.346000
 31
0.000000
  0
LINE
  5
724
330
1F
100
AcDbEntity
  8
0
  62
0
100
AcDbLine
 10
670.496000
 20
62.346000
 30
0.000000
 11
670.000000
 21
62.300000
 31
0.000000
  0
LINE
  5
725
330
1F
100
AcDbEntity
  8
0
  62
0
100
AcDbLine
 10
670.000000
 20
62.300000
 30
0.000000
 11
669.504000
 21
62.346000
 31
0.000000
  0
LINE
  5
726
330
1F
100
AcDbEntity
  8
0
  62
0
100
AcDbLine
 10
669.504000
 20
62.346000
 30
0.000000
 11
669.025000
 21
62.482000
 31
0.000000
  0
LINE
  5
727
330
1F
100
AcDbEntity
  8
0
  62
0
100
AcDbLine
 10
669.025000
 20
62.482000
 30
0.000000
 11
668.579000
 21
62.704000
 31
0.000000
  0
LINE
  5
728
330
1F
100
AcDbEntity
  8
0
  62
0
100
AcDbLine
 10
668.579000
 20
62.704000
 30
0.000000
 11
668.181000
 21
63.005000
 31
0.000000
  0
LINE
  5
729
330
1F
100
AcDbEntity
  8
0
  62
0
100
AcDbLine
 10
668.181000
 20
63.005000
 30
0.000000
 11
667.845000
 21
63.373000
 31
0.000000
  0
LINE
  5
730
330
1F
100
AcDbEntity
  8
0
  62
0
100
AcDbLine
 10
667.845000
 20
63.373000
 30
0.000000
 11
667.583000
 21
63.797000
 31
0.000000
  0
LINE
  5
731
330
1F
100
AcDbEntity
  8
0
  62
0
100
AcDbLine
 10
667.583000
 20
63.797000
 30
0.000000
 11
667.403000
 21
64.261000
 31
0.000000
  0
LINE
  5
732
330
1F
100
AcDbEntity
  8
0
  62
0
100
AcDbLine
 10
667.403000
 20
64.261000
 30
0.000000
 11
667.312000
 21
64.751000
 31
0.000000
  0
LINE
  5
733
330
1F
100
AcDbEntity
  8
0
  62
0
100
AcDbLine
 10
667.312000
 20
64.751000
 30
0.000000
 11
667.312000
 21
65.249000
 31
0.000000
  0
LINE
  5
734
330
1F
100
AcDbEntity
  8
0
  62
0
100
AcDbLine
 10
667.312000
 20
65.249000
 30
0.000000
 11
667.403000
 21
65.739000
 31
0.000000
  0
LINE
  5
735
330
1F
100
AcDbEntity
  8
0
  62
0
100
AcDbLine
 10
667.403000
 20
65.739000
 30
0.000000
 11
667.583000
 21
66.203000
 31
0.000000
  0
LINE
  5
736
330
1F
100
AcDbEntity
  8
0
  62
0
100
AcDbLine
 10
667.583000
 20
66.203000
 30
0.000000
 11
667.845000
 21
66.627000
 31
0.000000
  0
LINE
  5
737
330
1F
100
AcDbEntity
  8
0
  62
0
100
AcDbLine
 10
667.845000
 20
66.627000
 30
0.000000
 11
668.181000
 21
66.995000
 31
0.000000
  0
LINE
  5
738
330
1F
100
AcDbEntity
  8
0
  62
0
100
AcDbLine
 10
668.181000
 20
66.995000
 30
0.000000
 11
668.579000
 21
67.296000
 31
0.000000
  0
LINE
  5
739
330
1F
100
AcDbEntity
  8
0
  62
0
100
AcDbLine
 10
668.579000
 20
67.296000
 30
0.000000
 11
669.025000
 21
67.518000
 31
0.000000
  0
LINE
  5
740
330
1F
100
AcDbEntity
  8
0
  62
0
100
AcDbLine
 10
669.025000
 20
67.518000
 30
0.000000
 11
669.504000
 21
67.654000
 31
0.000000
  0
LINE
  5
741
330
1F
100
AcDbEntity
  8
0
  62
0
100
AcDbLine
 10
669.504000
 20
67.654000
 30
0.000000
 11
670.000000
 21
67.700000
 31
0.000000
  0
LINE
  5
742
330
1F
100
AcDbEntity
  8
0
  62
0
100
AcDbLine
 10
670.000000
 20
67.700000
 30
0.000000
 11
670.496000
 21
67.654000
 31
0.000000
  0
LINE
  5
743
330
1F
100
AcDbEntity
  8
0
  62
0
100
AcDbLine
 10
670.496000
 20
67.654000
 30
0.000000
 11
670.975000
 21
67.518000
 31
0.000000
  0
LINE
  5
744
330
1F
100
AcDbEntity
  8
0
  62
0
100
AcDbLine
 10
670.975000
 20
67.518000
 30
0.000000
 11
671.421000
 21
67.296000
 31
0.000000
  0
LINE
  5
745
330
1F
100
AcDbEntity
  8
0
  62
0
100
AcDbLine
 10
671.421000
 20
67.296000
 30
0.000000
 11
671.819000
 21
66.995000
 31
0.000000
  0
LINE
  5
746
330
1F
100
AcDbEntity
  8
0
  62
0
100
AcDbLine
 10
671.819000
 20
66.995000
 30
0.000000
 11
672.155000
 21
66.627000
 31
0.000000
  0
LINE
  5
747
330
1F
100
AcDbEntity
  8
0
  62
0
100
AcDbLine
 10
672.155000
 20
66.627000
 30
0.000000
 11
672.417000
 21
66.203000
 31
0.000000
  0
LINE
  5
748
330
1F
100
AcDbEntity
  8
0
  62
0
100
AcDbLine
 10
672.417000
 20
66.203000
 30
0.000000
 11
672.597000
 21
65.739000
 31
0.000000
  0
LINE
  5
749
330
1F
100
AcDbEntity
  8
0
  62
0
100
AcDbLine
 10
672.597000
 20
65.739000
 30
0.000000
 11
672.688000
 21
65.249000
 31
0.000000
  0
LINE
  5
750
330
1F
100
AcDbEntity
  8
0
  62
0
100
AcDbLine
 10
672.688000
 20
535.249000
 30
0.000000
 11
672.688000
 21
534.751000
 31
0.000000
  0
LINE
  5
751
330
1F
100
AcDbEntity
  8
0
  62
0
100
AcDbLine
 10
672.688000
 20
534.751000
 30
0.000000
 11
672.597000
 21
534.261000
 31
0.000000
  0
LINE
  5
752
330
1F
100
AcDbEntity
  8
0
  62
0
100
AcDbLine
 10
672.597000
 20
534.261000
 30
0.000000
 11
672.417000
 21
533.797000
 31
0.000000
  0
LINE
  5
753
330
1F
100
AcDbEntity
  8
0
  62
0
100
AcDbLine
 10
672.417000
 20
533.797000
 30
0.000000
 11
672.155000
 21
533.373000
 31
0.000000
  0
LINE
  5
754
330
1F
100
AcDbEntity
  8
0
  62
0
100
AcDbLine
 10
672.155000
 20
533.373000
 30
0.000000
 11
671.819000
 21
533.005000
 31
0.000000
  0
LINE
  5
755
330
1F
100
AcDbEntity
  8
0
  62
0
100
AcDbLine
 10
671.819000
 20
533.005000
 30
0.000000
 11
671.421000
 21
532.704000
 31
0.000000
  0
LINE
  5
756
330
1F
100
AcDbEntity
  8
0
  62
0
100
AcDbLine
 10
671.421000
 20
532.704000
 30
0.000000
 11
670.975000
 21
532.482000
 31
0.000000
  0
LINE
  5
757
330
1F
100
AcDbEntity
  8
0
  62
0
100
AcDbLine
 10
670.975000
 20
532.482000
 30
0.000000
 11
670.496000
 21
532.346000
 31
0.000000
  0
LINE
  5
758
330
1F
100
AcDbEntity
  8
0
  62
0
100
AcDbLine
 10
670.496000
 20
532.346000
 30
0.000000
 11
670.000000
 21
532.300000
 31
0.000000
  0
LINE
  5
759
330
1F
100
AcDbEntity
  8
0
  62
0
100
AcDbLine
 10
670.000000
 20
532.300000
 30
0.000000
 11
669.504000
 21
532.346000
 31
0.000000
  0
LINE
  5
760
330
1F
100
AcDbEntity
  8
0
  62
0
100
AcDbLine
 10
669.504000
 20
532.346000
 30
0.000000
 11
669.025000
 21
532.482000
 31
0.000000
  0
LINE
  5
761
330
1F
100
AcDbEntity
  8
0
  62
0
100
AcDbLine
 10
669.025000
 20
532.482000
 30
0.000000
 11
668.579000
 21
532.704000
 31
0.000000
  0
LINE
  5
762
330
1F
100
AcDbEntity
  8
0
  62
0
100
AcDbLine
 10
668.579000
 20
532.704000
 30
0.000000
 11
668.181000
 21
533.005000
 31
0.000000
  0
LINE
  5
763
330
1F
100
AcDbEntity
  8
0
  62
0
100
AcDbLine
 10
668.181000
 20
533.005000
 30
0.000000
 11
667.845000
 21
533.373000
 31
0.000000
  0
LINE
  5
764
330
1F
100
AcDbEntity
  8
0
  62
0
100
AcDbLine
 10
667.845000
 20
533.373000
 30
0.000000
 11
667.583000
 21
533.797000
 31
0.000000
  0
LINE
  5
765
330
1F
100
AcDbEntity
  8
0
  62
0
100
AcDbLine
 10
667.583000
 20
533.797000
 30
0.000000
 11
667.403000
 21
534.261000
 31
0.000000
  0
LINE
  5
766
330
1F
100
AcDbEntity
  8
0
  62
0
100
AcDbLine
 10
667.403000
 20
534.261000
 30
0.000000
 11
667.312000
 21
534.751000
 31
0.000000
  0
LINE
  5
767
330
1F
100
AcDbEntity
  8
0
  62
0
100
AcDbLine
 10
667.312000
 20
534.751000
 30
0.000000
 11
667.312000
 21
535.249000
 31
0.000000
  0
LINE
  5
768
330
1F
100
AcDbEntity
  8
0
  62
0
100
AcDbLine
 10
667.312000
 20
535.249000
 30
0.000000
 11
667.403000
 21
535.739000
 31
0.000000
  0
LINE
  5
769
330
1F
100
AcDbEntity
  8
0
  62
0
100
AcDbLine
 10
667.403000
 20
535.739000
 30
0.000000
 11
667.583000
 21
536.203000
 31
0.000000
  0
LINE
  5
770
330
1F
100
AcDbEntity
  8
0
  62
0
100
AcDbLine
 10
667.583000
 20
536.203000
 30
0.000000
 11
667.845000
 21
536.627000
 31
0.000000
  0
LINE
  5
771
330
1F
100
AcDbEntity
  8
0
  62
0
100
AcDbLine
 10
667.845000
 20
536.627000
 30
0.000000
 11
668.181000
 21
536.995000
 31
0.000000
  0
LINE
  5
772
330
1F
100
AcDbEntity
  8
0
  62
0
100
AcDbLine
 10
668.181000
 20
536.995000
 30
0.000000
 11
668.579000
 21
537.296000
 31
0.000000
  0
LINE
  5
773
330
1F
100
AcDbEntity
  8
0
  62
0
100
AcDbLine
 10
668.579000
 20
537.296000
 30
0.000000
 11
669.025000
 21
537.518000
 31
0.000000
  0
LINE
  5
774
330
1F
100
AcDbEntity
  8
0
  62
0
100
AcDbLine
 10
669.025000
 20
537.518000
 30
0.000000
 11
669.504000
 21
537.654000
 31
0.000000
  0
LINE
  5
775
330
1F
100
AcDbEntity
  8
0
  62
0
100
AcDbLine
 10
669.504000
 20
537.654000
 30
0.000000
 11
670.000000
 21
537.700000
 31
0.000000
  0
LINE
  5
776
330
1F
100
AcDbEntity
  8
0
  62
0
100
AcDbLine
 10
670.000000
 20
537.700000
 30
0.000000
 11
670.496000
 21
537.654000
 31
0.000000
  0
LINE
  5
777
330
1F
100
AcDbEntity
  8
0
  62
0
100
AcDbLine
 10
670.496000
 20
537.654000
 30
0.000000
 11
670.975000
 21
537.518000
 31
0.000000
  0
LINE
  5
778
330
1F
100
AcDbEntity
  8
0
  62
0
100
AcDbLine
 10
670.975000
 20
537.518000
 30
0.000000
 11
671.421000
 21
537.296000
 31
0.000000
  0
LINE
  5
779
330
1F
100
AcDbEntity
  8
0
  62
0
100
AcDbLine
 10
671.421000
 20
537.296000
 30
0.000000
 11
671.819000
 21
536.995000
 31
0.000000
  0
LINE
  5
780
330
1F
100
AcDbEntity
  8
0
  62
0
100
AcDbLine
 10
671.819000
 20
536.995000
 30
0.000000
 11
672.155000
 21
536.627000
 31
0.000000
  0
LINE
  5
781
330
1F
100
AcDbEntity
  8
0
  62
0
100
AcDbLine
 10
672.155000
 20
536.627000
 30
0.000000
 11
672.417000
 21
536.203000
 31
0.000000
  0
LINE
  5
782
330
1F
100
AcDbEntity
  8
0
  62
0
100
AcDbLine
 10
672.417000
 20
536.203000
 30
0.000000
 11
672.597000
 21
535.739000
 31
0.000000
  0
LINE
  5
783
330
1F
100
AcDbEntity
  8
0
  62
0
100
AcDbLine
 10
672.597000
 20
535.739000
 30
0.000000
 11
672.688000
 21
535.249000
 31
0.000000
  0
LINE
  5
784
330
1F
100
AcDbEntity
  8
0
  62
0
100
AcDbLine
 10
692.688000
 20
515.249000
 30
0.000000
 11
692.688000
 21
514.751000
 31
0.000000
  0
LINE
  5
785
330
1F
100
AcDbEntity
  8
0
  62
0
100
AcDbLine
 10
692.688000
 20
514.751000
 30
0.000000
 11
692.597000
 21
514.261000
 31
0.000000
  0
LINE
  5
786
330
1F
100
AcDbEntity
  8
0
  62
0
100
AcDbLine
 10
692.597000
 20
514.261000
 30
0.000000
 11
692.417000
 21
513.797000
 31
0.000000
  0
LINE
  5
787
330
1F
100
AcDbEntity
  8
0
  62
0
100
AcDbLine
 10
692.417000
 20
513.797000
 30
0.000000
 11
692.155000
 21
513.373000
 31
0.000000
  0
LINE
  5
788
330
1F
100
AcDbEntity
  8
0
  62
0
100
AcDbLine
 10
692.155000
 20
513.373000
 30
0.000000
 11
691.819000
 21
513.005000
 31
0.000000
  0
LINE
  5
789
330
1F
100
AcDbEntity
  8
0
  62
0
100
AcDbLine
 10
691.819000
 20
513.005000
 30
0.000000
 11
691.421000
 21
512.704000
 31
0.000000
  0
LINE
  5
790
330
1F
100
AcDbEntity
  8
0
  62
0
100
AcDbLine
 10
691.421000
 20
512.704000
 30
0.000000
 11
690.975000
 21
512.482000
 31
0.000000
  0
LINE
  5
791
330
1F
100
AcDbEntity
  8
0
  62
0
100
AcDbLine
 10
690.975000
 20
512.482000
 30
0.000000
 11
690.496000
 21
512.346000
 31
0.000000
  0
LINE
  5
792
330
1F
100
AcDbEntity
  8
0
  62
0
100
AcDbLine
 10
690.496000
 20
512.346000
 30
0.000000
 11
690.000000
 21
512.300000
 31
0.000000
  0
LINE
  5
793
330
1F
100
AcDbEntity
  8
0
  62
0
100
AcDbLine
 10
690.000000
 20
512.300000
 30
0.000000
 11
689.504000
 21
512.346000
 31
0.000000
  0
LINE
  5
794
330
1F
100
AcDbEntity
  8
0
  62
0
100
AcDbLine
 10
689.504000
 20
512.346000
 30
0.000000
 11
689.025000
 21
512.482000
 31
0.000000
  0
LINE
  5
795
330
1F
100
AcDbEntity
  8
0
  62
0
100
AcDbLine
 10
689.025000
 20
512.482000
 30
0.000000
 11
688.579000
 21
512.704000
 31
0.000000
  0
LINE
  5
796
330
1F
100
AcDbEntity
  8
0
  62
0
100
AcDbLine
 10
688.579000
 20
512.704000
 30
0.000000
 11
688.181000
 21
513.005000
 31
0.000000
  0
LINE
  5
797
330
1F
100
AcDbEntity
  8
0
  62
0
100
AcDbLine
 10
688.181000
 20
513.005000
 30
0.000000
 11
687.845000
 21
513.373000
 31
0.000000
  0
LINE
  5
798
330
1F
100
AcDbEntity
  8
0
  62
0
100
AcDbLine
 10
687.845000
 20
513.373000
 30
0.000000
 11
687.583000
 21
513.797000
 31
0.000000
  0
LINE
  5
799
330
1F
100
AcDbEntity
  8
0
  62
0
100
AcDbLine
 10
687.583000
 20
513.797000
 30
0.000000
 11
687.403000
 21
514.261000
 31
0.000000
  0
LINE
  5
800
330
1F
100
AcDbEntity
  8
0
  62
0
100
AcDbLine
 10
687.403000
 20
514.261000
 30
0.000000
 11
687.312000
 21
514.751000
 31
0.000000
  0
LINE
  5
801
330
1F
100
AcDbEntity
  8
0
  62
0
100
AcDbLine
 10
687.312000
 20
514.751000
 30
0.000000
 11
687.312000
 21
515.249000
 31
0.000000
  0
LINE
  5
802
330
1F
100
AcDbEntity
  8
0
  62
0
100
AcDbLine
 10
687.312000
 20
515.249000
 30
0.000000
 11
687.403000
 21
515.739000
 31
0.000000
  0
LINE
  5
803
330
1F
100
AcDbEntity
  8
0
  62
0
100
AcDbLine
 10
687.403000
 20
515.739000
 30
0.000000
 11
687.583000
 21
516.203000
 31
0.000000
  0
LINE
  5
804
330
1F
100
AcDbEntity
  8
0
  62
0
100
AcDbLine
 10
687.583000
 20
516.203000
 30
0.000000
 11
687.845000
 21
516.627000
 31
0.000000
  0
LINE
  5
805
330
1F
100
AcDbEntity
  8
0
  62
0
100
AcDbLine
 10
687.845000
 20
516.627000
 30
0.000000
 11
688.181000
 21
516.995000
 31
0.000000
  0
LINE
  5
806
330
1F
100
AcDbEntity
  8
0
  62
0
100
AcDbLine
 10
688.181000
 20
516.995000
 30
0.000000
 11
688.579000
 21
517.296000
 31
0.000000
  0
LINE
  5
807
330
1F
100
AcDbEntity
  8
0
  62
0
100
AcDbLine
 10
688.579000
 20
517.296000
 30
0.000000
 11
689.025000
 21
517.518000
 31
0.000000
  0
LINE
  5
808
330
1F
100
AcDbEntity
  8
0
  62
0
100
AcDbLine
 10
689.025000
 20
517.518000
 30
0.000000
 11
689.504000
 21
517.654000
 31
0.000000
  0
LINE
  5
809
330
1F
100
AcDbEntity
  8
0
  62
0
100
AcDbLine
 10
689.504000
 20
517.654000
 30
0.000000
 11
690.000000
 21
517.700000
 31
0.000000
  0
LINE
  5
810
330
1F
100
AcDbEntity
  8
0
  62
0
100
AcDbLine
 10
690.000000
 20
517.700000
 30
0.000000
 11
690.496000
 21
517.654000
 31
0.000000
  0
LINE
  5
811
330
1F
100
AcDbEntity
  8
0
  62
0
100
AcDbLine
 10
690.496000
 20
517.654000
 30
0.000000
 11
690.975000
 21
517.518000
 31
0.000000
  0
LINE
  5
812
330
1F
100
AcDbEntity
  8
0
  62
0
100
AcDbLine
 10
690.975000
 20
517.518000
 30
0.000000
 11
691.421000
 21
517.296000
 31
0.000000
  0
LINE
  5
813
330
1F
100
AcDbEntity
  8
0
  62
0
100
AcDbLine
 10
691.421000
 20
517.296000
 30
0.000000
 11
691.819000
 21
516.995000
 31
0.000000
  0
LINE
  5
814
330
1F
100
AcDbEntity
  8
0
  62
0
100
AcDbLine
 10
691.819000
 20
516.995000
 30
0.000000
 11
692.155000
 21
516.627000
 31
0.000000
  0
LINE
  5
815
330
1F
100
AcDbEntity
  8
0
  62
0
100
AcDbLine
 10
692.155000
 20
516.627000
 30
0.000000
 11
692.417000
 21
516.203000
 31
0.000000
  0
LINE
  5
816
330
1F
100
AcDbEntity
  8
0
  62
0
100
AcDbLine
 10
692.417000
 20
516.203000
 30
0.000000
 11
692.597000
 21
515.739000
 31
0.000000
  0
LINE
  5
817
330
1F
100
AcDbEntity
  8
0
  62
0
100
AcDbLine
 10
692.597000
 20
515.739000
 30
0.000000
 11
692.688000
 21
515.249000
 31
0.000000
  0
LINE
  5
818
330
1F
100
AcDbEntity
  8
0
  62
0
100
AcDbLine
 10
692.688000
 20
105.249000
 30
0.000000
 11
692.688000
 21
104.751000
 31
0.000000
  0
LINE
  5
819
330
1F
100
AcDbEntity
  8
0
  62
0
100
AcDbLine
 10
692.688000
 20
104.751000
 30
0.000000
 11
692.597000
 21
104.261000
 31
0.000000
  0
LINE
  5
820
330
1F
100
AcDbEntity
  8
0
  62
0
100
AcDbLine
 10
692.597000
 20
104.261000
 30
0.000000
 11
692.417000
 21
103.797000
 31
0.000000
  0
LINE
  5
821
330
1F
100
AcDbEntity
  8
0
  62
0
100
AcDbLine
 10
692.417000
 20
103.797000
 30
0.000000
 11
692.155000
 21
103.373000
 31
0.000000
  0
LINE
  5
822
330
1F
100
AcDbEntity
  8
0
  62
0
100
AcDbLine
 10
692.155000
 20
103.373000
 30
0.000000
 11
691.819000
 21
103.005000
 31
0.000000
  0
LINE
  5
823
330
1F
100
AcDbEntity
  8
0
  62
0
100
AcDbLine
 10
691.819000
 20
103.005000
 30
0.000000
 11
691.421000
 21
102.704000
 31
0.000000
  0
LINE
  5
824
330
1F
100
AcDbEntity
  8
0
  62
0
100
AcDbLine
 10
691.421000
 20
102.704000
 30
0.000000
 11
690.975000
 21
102.482000
 31
0.000000
  0
LINE
  5
825
330
1F
100
AcDbEntity
  8
0
  62
0
100
AcDbLine
 10
690.975000
 20
102.482000
 30
0.000000
 11
690.496000
 21
102.346000
 31
0.000000
  0
LINE
  5
826
330
1F
100
AcDbEntity
  8
0
  62
0
100
AcDbLine
 10
690.496000
 20
102.346000
 30
0.000000
 11
690.000000
 21
102.300000
 31
0.000000
  0
LINE
  5
827
330
1F
100
AcDbEntity
  8
0
  62
0
100
AcDbLine
 10
690.000000
 20
102.300000
 30
0.000000
 11
689.504000
 21
102.346000
 31
0.000000
  0
LINE
  5
828
330
1F
100
AcDbEntity
  8
0
  62
0
100
AcDbLine
 10
689.504000
 20
102.346000
 30
0.000000
 11
689.025000
 21
102.482000
 31
0.000000
  0
LINE
  5
829
330
1F
100
AcDbEntity
  8
0
  62
0
100
AcDbLine
 10
689.025000
 20
102.482000
 30
0.000000
 11
688.579000
 21
102.704000
 31
0.000000
  0
LINE
  5
830
330
1F
100
AcDbEntity
  8
0
  62
0
100
AcDbLine
 10
688.579000
 20
102.704000
 30
0.000000
 11
688.181000
 21
103.005000
 31
0.000000
  0
LINE
  5
831
330
1F
100
AcDbEntity
  8
0
  62
0
100
AcDbLine
 10
688.181000
 20
103.005000
 30
0.000000
 11
687.845000
 21
103.373000
 31
0.000000
  0
LINE
  5
832
330
1F
100
AcDbEntity
  8
0
  62
0
100
AcDbLine
 10
687.845000
 20
103.373000
 30
0.000000
 11
687.583000
 21
103.797000
 31
0.000000
  0
LINE
  5
833
330
1F
100
AcDbEntity
  8
0
  62
0
100
AcDbLine
 10
687.583000
 20
103.797000
 30
0.000000
 11
687.403000
 21
104.261000
 31
0.000000
  0
LINE
  5
834
330
1F
100
AcDbEntity
  8
0
  62
0
100
AcDbLine
 10
687.403000
 20
104.261000
 30
0.000000
 11
687.312000
 21
104.751000
 31
0.000000
  0
LINE
  5
835
330
1F
100
AcDbEntity
  8
0
  62
0
100
AcDbLine
 10
687.312000
 20
104.751000
 30
0.000000
 11
687.312000
 21
105.249000
 31
0.000000
  0
LINE
  5
836
330
1F
100
AcDbEntity
  8
0
  62
0
100
AcDbLine
 10
687.312000
 20
105.249000
 30
0.000000
 11
687.403000
 21
105.739000
 31
0.000000
  0
LINE
  5
837
330
1F
100
AcDbEntity
  8
0
  62
0
100
AcDbLine
 10
687.403000
 20
105.739000
 30
0.000000
 11
687.583000
 21
106.203000
 31
0.000000
  0
LINE
  5
838
330
1F
100
AcDbEntity
  8
0
  62
0
100
AcDbLine
 10
687.583000
 20
106.203000
 30
0.000000
 11
687.845000
 21
106.627000
 31
0.000000
  0
LINE
  5
839
330
1F
100
AcDbEntity
  8
0
  62
0
100
AcDbLine
 10
687.845000
 20
106.627000
 30
0.000000
 11
688.181000
 21
106.995000
 31
0.000000
  0
LINE
  5
840
330
1F
100
AcDbEntity
  8
0
  62
0
100
AcDbLine
 10
688.181000
 20
106.995000
 30
0.000000
 11
688.579000
 21
107.296000
 31
0.000000
  0
LINE
  5
841
330
1F
100
AcDbEntity
  8
0
  62
0
100
AcDbLine
 10
688.579000
 20
107.296000
 30
0.000000
 11
689.025000
 21
107.518000
 31
0.000000
  0
LINE
  5
842
330
1F
100
AcDbEntity
  8
0
  62
0
100
AcDbLine
 10
689.025000
 20
107.518000
 30
0.000000
 11
689.504000
 21
107.654000
 31
0.000000
  0
LINE
  5
843
330
1F
100
AcDbEntity
  8
0
  62
0
100
AcDbLine
 10
689.504000
 20
107.654000
 30
0.000000
 11
690.000000
 21
107.700000
 31
0.000000
  0
LINE
  5
844
330
1F
100
AcDbEntity
  8
0
  62
0
100
AcDbLine
 10
690.000000
 20
107.700000
 30
0.000000
 11
690.496000
 21
107.654000
 31
0.000000
  0
LINE
  5
845
330
1F
100
AcDbEntity
  8
0
  62
0
100
AcDbLine
 10
690.496000
 20
107.654000
 30
0.000000
 11
690.975000
 21
107.518000
 31
0.000000
  0
LINE
  5
846
330
1F
100
AcDbEntity
  8
0
  62
0
100
AcDbLine
 10
690.975000
 20
107.518000
 30
0.000000
 11
691.421000
 21
107.296000
 31
0.000000
  0
LINE
  5
847
330
1F
100
AcDbEntity
  8
0
  62
0
100
AcDbLine
 10
691.421000
 20
107.296000
 30
0.000000
 11
691.819000
 21
106.995000
 31
0.000000
  0
LINE
  5
848
330
1F
100
AcDbEntity
  8
0
  62
0
100
AcDbLine
 10
691.819000
 20
106.995000
 30
0.000000
 11
692.155000
 21
106.627000
 31
0.000000
  0
LINE
  5
849
330
1F
100
AcDbEntity
  8
0
  62
0
100
AcDbLine
 10
692.155000
 20
106.627000
 30
0.000000
 11
692.417000
 21
106.203000
 31
0.000000
  0
LINE
  5
850
330
1F
100
AcDbEntity
  8
0
  62
0
100
AcDbLine
 10
692.417000
 20
106.203000
 30
0.000000
 11
692.597000
 21
105.739000
 31
0.000000
  0
LINE
  5
851
330
1F
100
AcDbEntity
  8
0
  62
0
100
AcDbLine
 10
692.597000
 20
105.739000
 30
0.000000
 11
692.688000
 21
105.249000
 31
0.000000
  0
LINE
  5
852
330
1F
100
AcDbEntity
  8
0
  62
0
100
AcDbLine
 10
692.688000
 20
85.249000
 30
0.000000
 11
692.688000
 21
84.751000
 31
0.000000
  0
LINE
  5
853
330
1F
100
AcDbEntity
  8
0
  62
0
100
AcDbLine
 10
692.688000
 20
84.751000
 30
0.000000
 11
692.597000
 21
84.261000
 31
0.000000
  0
LINE
  5
854
330
1F
100
AcDbEntity
  8
0
  62
0
100
AcDbLine
 10
692.597000
 20
84.261000
 30
0.000000
 11
692.417000
 21
83.797000
 31
0.000000
  0
LINE
  5
855
330
1F
100
AcDbEntity
  8
0
  62
0
100
AcDbLine
 10
692.417000
 20
83.797000
 30
0.000000
 11
692.155000
 21
83.373000
 31
0.000000
  0
LINE
  5
856
330
1F
100
AcDbEntity
  8
0
  62
0
100
AcDbLine
 10
692.155000
 20
83.373000
 30
0.000000
 11
691.819000
 21
83.005000
 31
0.000000
  0
LINE
  5
857
330
1F
100
AcDbEntity
  8
0
  62
0
100
AcDbLine
 10
691.819000
 20
83.005000
 30
0.000000
 11
691.421000
 21
82.704000
 31
0.000000
  0
LINE
  5
858
330
1F
100
AcDbEntity
  8
0
  62
0
100
AcDbLine
 10
691.421000
 20
82.704000
 30
0.000000
 11
690.975000
 21
82.482000
 31
0.000000
  0
LINE
  5
859
330
1F
100
AcDbEntity
  8
0
  62
0
100
AcDbLine
 10
690.975000
 20
82.482000
 30
0.000000
 11
690.496000
 21
82.346000
 31
0.000000
  0
LINE
  5
860
330
1F
100
AcDbEntity
  8
0
  62
0
100
AcDbLine
 10
690.496000
 20
82.346000
 30
0.000000
 11
690.000000
 21
82.300000
 31
0.000000
  0
LINE
  5
861
330
1F
100
AcDbEntity
  8
0
  62
0
100
AcDbLine
 10
690.000000
 20
82.300000
 30
0.000000
 11
689.504000
 21
82.346000
 31
0.000000
  0
LINE
  5
862
330
1F
100
AcDbEntity
  8
0
  62
0
100
AcDbLine
 10
689.504000
 20
82.346000
 30
0.000000
 11
689.025000
 21
82.482000
 31
0.000000
  0
LINE
  5
863
330
1F
100
AcDbEntity
  8
0
  62
0
100
AcDbLine
 10
689.025000
 20
82.482000
 30
0.000000
 11
688.579000
 21
82.704000
 31
0.000000
  0
LINE
  5
864
330
1F
100
AcDbEntity
  8
0
  62
0
100
AcDbLine
 10
688.579000
 20
82.704000
 30
0.000000
 11
688.181000
 21
83.005000
 31
0.000000
  0
LINE
  5
865
330
1F
100
AcDbEntity
  8
0
  62
0
100
AcDbLine
 10
688.181000
 20
83.005000
 30
0.000000
 11
687.845000
 21
83.373000
 31
0.000000
  0
LINE
  5
866
330
1F
100
AcDbEntity
  8
0
  62
0
100
AcDbLine
 10
687.845000
 20
83.373000
 30
0.000000
 11
687.583000
 21
83.797000
 31
0.000000
  0
LINE
  5
867
330
1F
100
AcDbEntity
  8
0
  62
0
100
AcDbLine
 10
687.583000
 20
83.797000
 30
0.000000
 11
687.403000
 21
84.261000
 31
0.000000
  0
LINE
  5
868
330
1F
100
AcDbEntity
  8
0
  62
0
100
AcDbLine
 10
687.403000
 20
84.261000
 30
0.000000
 11
687.312000
 21
84.751000
 31
0.000000
  0
LINE
  5
869
330
1F
100
AcDbEntity
  8
0
  62
0
100
AcDbLine
 10
687.312000
 20
84.751000
 30
0.000000
 11
687.312000
 21
85.249000
 31
0.000000
  0
LINE
  5
870
330
1F
100
AcDbEntity
  8
0
  62
0
100
AcDbLine
 10
687.312000
 20
85.249000
 30
0.000000
 11
687.403000
 21
85.739000
 31
0.000000
  0
LINE
  5
871
330
1F
100
AcDbEntity
  8
0
  62
0
100
AcDbLine
 10
687.403000
 20
85.739000
 30
0.000000
 11
687.583000
 21
86.203000
 31
0.000000
  0
LINE
  5
872
330
1F
100
AcDbEntity
  8
0
  62
0
100
AcDbLine
 10
687.583000
 20
86.203000
 30
0.000000
 11
687.845000
 21
86.627000
 31
0.000000
  0
LINE
  5
873
330
1F
100
AcDbEntity
  8
0
  62
0
100
AcDbLine
 10
687.845000
 20
86.627000
 30
0.000000
 11
688.181000
 21
86.995000
 31
0.000000
  0
LINE
  5
874
330
1F
100
AcDbEntity
  8
0
  62
0
100
AcDbLine
 10
688.181000
 20
86.995000
 30
0.000000
 11
688.579000
 21
87.296000
 31
0.000000
  0
LINE
  5
875
330
1F
100
AcDbEntity
  8
0
  62
0
100
AcDbLine
 10
688.579000
 20
87.296000
 30
0.000000
 11
689.025000
 21
87.518000
 31
0.000000
  0
LINE
  5
876
330
1F
100
AcDbEntity
  8
0
  62
0
100
AcDbLine
 10
689.025000
 20
87.518000
 30
0.000000
 11
689.504000
 21
87.654000
 31
0.000000
  0
LINE
  5
877
330
1F
100
AcDbEntity
  8
0
  62
0
100
AcDbLine
 10
689.504000
 20
87.654000
 30
0.000000
 11
690.000000
 21
87.700000
 31
0.000000
  0
LINE
  5
878
330
1F
100
AcDbEntity
  8
0
  62
0
100
AcDbLine
 10
690.000000
 20
87.700000
 30
0.000000
 11
690.496000
 21
87.654000
 31
0.000000
  0
LINE
  5
879
330
1F
100
AcDbEntity
  8
0
  62
0
100
AcDbLine
 10
690.496000
 20
87.654000
 30
0.000000
 11
690.975000
 21
87.518000
 31
0.000000
  0
LINE
  5
880
330
1F
100
AcDbEntity
  8
0
  62
0
100
AcDbLine
 10
690.975000
 20
87.518000
 30
0.000000
 11
691.421000
 21
87.296000
 31
0.000000
  0
LINE
  5
881
330
1F
100
AcDbEntity
  8
0
  62
0
100
AcDbLine
 10
691.421000
 20
87.296000
 30
0.000000
 11
691.819000
 21
86.995000
 31
0.000000
  0
LINE
  5
882
330
1F
100
AcDbEntity
  8
0
  62
0
100
AcDbLine
 10
691.819000
 20
86.995000
 30
0.000000
 11
692.155000
 21
86.627000
 31
0.000000
  0
LINE
  5
883
330
1F
100
AcDbEntity
  8
0
  62
0
100
AcDbLine
 10
692.155000
 20
86.627000
 30
0.000000
 11
692.417000
 21
86.203000
 31
0.000000
  0
LINE
  5
884
330
1F
100
AcDbEntity
  8
0
  62
0
100
AcDbLine
 10
692.417000
 20
86.203000
 30
0.000000
 11
692.597000
 21
85.739000
 31
0.000000
  0
LINE
  5
885
330
1F
100
AcDbEntity
  8
0
  62
0
100
AcDbLine
 10
692.597000
 20
85.739000
 30
0.000000
 11
692.688000
 21
85.249000
 31
0.000000
  0
LINE
  5
886
330
1F
100
AcDbEntity
  8
0
  62
0
100
AcDbLine
 10
692.688000
 20
495.249000
 30
0.000000
 11
692.688000
 21
494.751000
 31
0.000000
  0
LINE
  5
887
330
1F
100
AcDbEntity
  8
0
  62
0
100
AcDbLine
 10
692.688000
 20
494.751000
 30
0.000000
 11
692.597000
 21
494.261000
 31
0.000000
  0
LINE
  5
888
330
1F
100
AcDbEntity
  8
0
  62
0
100
AcDbLine
 10
692.597000
 20
494.261000
 30
0.000000
 11
692.417000
 21
493.797000
 31
0.000000
  0
LINE
  5
889
330
1F
100
AcDbEntity
  8
0
  62
0
100
AcDbLine
 10
692.417000
 20
493.797000
 30
0.000000
 11
692.155000
 21
493.373000
 31
0.000000
  0
LINE
  5
890
330
1F
100
AcDbEntity
  8
0
  62
0
100
AcDbLine
 10
692.155000
 20
493.373000
 30
0.000000
 11
691.819000
 21
493.005000
 31
0.000000
  0
LINE
  5
891
330
1F
100
AcDbEntity
  8
0
  62
0
100
AcDbLine
 10
691.819000
 20
493.005000
 30
0.000000
 11
691.421000
 21
492.704000
 31
0.000000
  0
LINE
  5
892
330
1F
100
AcDbEntity
  8
0
  62
0
100
AcDbLine
 10
691.421000
 20
492.704000
 30
0.000000
 11
690.975000
 21
492.482000
 31
0.000000
  0
LINE
  5
893
330
1F
100
AcDbEntity
  8
0
  62
0
100
AcDbLine
 10
690.975000
 20
492.482000
 30
0.000000
 11
690.496000
 21
492.346000
 31
0.000000
  0
LINE
  5
894
330
1F
100
AcDbEntity
  8
0
  62
0
100
AcDbLine
 10
690.496000
 20
492.346000
 30
0.000000
 11
690.000000
 21
492.300000
 31
0.000000
  0
LINE
  5
895
330
1F
100
AcDbEntity
  8
0
  62
0
100
AcDbLine
 10
690.000000
 20
492.300000
 30
0.000000
 11
689.504000
 21
492.346000
 31
0.000000
  0
LINE
  5
896
330
1F
100
AcDbEntity
  8
0
  62
0
100
AcDbLine
 10
689.504000
 20
492.346000
 30
0.000000
 11
689.025000
 21
492.482000
 31
0.000000
  0
LINE
  5
897
330
1F
100
AcDbEntity
  8
0
  62
0
100
AcDbLine
 10
689.025000
 20
492.482000
 30
0.000000
 11
688.579000
 21
492.704000
 31
0.000000
  0
LINE
  5
898
330
1F
100
AcDbEntity
  8
0
  62
0
100
AcDbLine
 10
688.579000
 20
492.704000
 30
0.000000
 11
688.181000
 21
493.005000
 31
0.000000
  0
LINE
  5
899
330
1F
100
AcDbEntity
  8
0
  62
0
100
AcDbLine
 10
688.181000
 20
493.005000
 30
0.000000
 11
687.845000
 21
493.373000
 31
0.000000
  0
LINE
  5
900
330
1F
100
AcDbEntity
  8
0
  62
0
100
AcDbLine
 10
687.845000
 20
493.373000
 30
0.000000
 11
687.583000
 21
493.797000
 31
0.000000
  0
LINE
  5
901
330
1F
100
AcDbEntity
  8
0
  62
0
100
AcDbLine
 10
687.583000
 20
493.797000
 30
0.000000
 11
687.403000
 21
494.261000
 31
0.000000
  0
LINE
  5
902
330
1F
100
AcDbEntity
  8
0
  62
0
100
AcDbLine
 10
687.403000
 20
494.261000
 30
0.000000
 11
687.312000
 21
494.751000
 31
0.000000
  0
LINE
  5
903
330
1F
100
AcDbEntity
  8
0
  62
0
100
AcDbLine
 10
687.312000
 20
494.751000
 30
0.000000
 11
687.312000
 21
495.249000
 31
0.000000
  0
LINE
  5
904
330
1F
100
AcDbEntity
  8
0
  62
0
100
AcDbLine
 10
687.312000
 20
495.249000
 30
0.000000
 11
687.403000
 21
495.739000
 31
0.000000
  0
LINE
  5
905
330
1F
100
AcDbEntity
  8
0
  62
0
100
AcDbLine
 10
687.403000
 20
495.739000
 30
0.000000
 11
687.583000
 21
496.203000
 31
0.000000
  0
LINE
  5
906
330
1F
100
AcDbEntity
  8
0
  62
0
100
AcDbLine
 10
687.583000
 20
496.203000
 30
0.000000
 11
687.845000
 21
496.627000
 31
0.000000
  0
LINE
  5
907
330
1F
100
AcDbEntity
  8
0
  62
0
100
AcDbLine
 10
687.845000
 20
496.627000
 30
0.000000
 11
688.181000
 21
496.995000
 31
0.000000
  0
LINE
  5
908
330
1F
100
AcDbEntity
  8
0
  62
0
100
AcDbLine
 10
688.181000
 20
496.995000
 30
0.000000
 11
688.579000
 21
497.296000
 31
0.000000
  0
LINE
  5
909
330
1F
100
AcDbEntity
  8
0
  62
0
100
AcDbLine
 10
688.579000
 20
497.296000
 30
0.000000
 11
689.025000
 21
497.518000
 31
0.000000
  0
LINE
  5
910
330
1F
100
AcDbEntity
  8
0
  62
0
100
AcDbLine
 10
689.025000
 20
497.518000
 30
0.000000
 11
689.504000
 21
497.654000
 31
0.000000
  0
LINE
  5
911
330
1F
100
AcDbEntity
  8
0
  62
0
100
AcDbLine
 10
689.504000
 20
497.654000
 30
0.000000
 11
690.000000
 21
497.700000
 31
0.000000
  0
LINE
  5
912
330
1F
100
AcDbEntity
  8
0
  62
0
100
AcDbLine
 10
690.000000
 20
497.700000
 30
0.000000
 11
690.496000
 21
497.654000
 31
0.000000
  0
LINE
  5
913
330
1F
100
AcDbEntity
  8
0
  62
0
100
AcDbLine
 10
690.496000
 20
497.654000
 30
0.000000
 11
690.975000
 21
497.518000
 31
0.000000
  0
LINE
  5
914
330
1F
100
AcDbEntity
  8
0
  62
0
100
AcDbLine
 10
690.975000
 20
497.518000
 30
0.000000
 11
691.421000
 21
497.296000
 31
0.000000
  0
LINE
  5
915
330
1F
100
AcDbEntity
  8
0
  62
0
100
AcDbLine
 10
691.421000
 20
497.296000
 30
0.000000
 11
691.819000
 21
496.995000
 31
0.000000
  0
LINE
  5
916
330
1F
100
AcDbEntity
  8
0
  62
0
100
AcDbLine
 10
691.819000
 20
496.995000
 30
0.000000
 11
692.155000
 21
496.627000
 31
0.000000
  0
LINE
  5
917
330
1F
100
AcDbEntity
  8
0
  62
0
100
AcDbLine
 10
692.155000
 20
496.627000
 30
0.000000
 11
692.417000
 21
496.203000
 31
0.000000
  0
LINE
  5
918
330
1F
100
AcDbEntity
  8
0
  62
0
100
AcDbLine
 10
692.417000
 20
496.203000
 30
0.000000
 11
692.597000
 21
495.739000
 31
0.000000
  0
LINE
  5
919
330
1F
100
AcDbEntity
  8
0
  62
0
100
AcDbLine
 10
692.597000
 20
495.739000
 30
0.000000
 11
692.688000
 21
495.249000
 31
0.000000
  0
LINE
  5
920
330
1F
100
AcDbEntity
  8
0
  62
0
100
AcDbLine
 10
692.688000
 20
300.249115
 30
0.000000
 11
692.688000
 21
299.750885
 31
0.000000
  0
LINE
  5
921
330
1F
100
AcDbEntity
  8
0
  62
0
100
AcDbLine
 10
692.688000
 20
299.750885
 30
0.000000
 11
692.597000
 21
299.261124
 31
0.000000
  0
LINE
  5
922
330
1F
100
AcDbEntity
  8
0
  62
0
100
AcDbLine
 10
692.597000
 20
299.261124
 30
0.000000
 11
692.417000
 21
298.796510
 31
0.000000
  0
LINE
  5
923
330
1F
100
AcDbEntity
  8
0
  62
0
100
AcDbLine
 10
692.417000
 20
298.796510
 30
0.000000
 11
692.155000
 21
298.372890
 31
0.000000
  0
LINE
  5
924
330
1F
100
AcDbEntity
  8
0
  62
0
100
AcDbLine
 10
692.155000
 20
298.372890
 30
0.000000
 11
691.819000
 21
298.004680
 31
0.000000
  0
LINE
  5
925
330
1F
100
AcDbEntity
  8
0
  62
0
100
AcDbLine
 10
691.819000
 20
298.004680
 30
0.000000
 11
691.421000
 21
297.704420
 31
0.000000
  0
LINE
  5
926
330
1F
100
AcDbEntity
  8
0
  62
0
100
AcDbLine
 10
691.421000
 20
297.704420
 30
0.000000
 11
690.975000
 21
297.482330
 31
0.000000
  0
LINE
  5
927
330
1F
100
AcDbEntity
  8
0
  62
0
100
AcDbLine
 10
690.975000
 20
297.482330
 30
0.000000
 11
690.496000
 21
297.345980
 31
0.000000
  0
LINE
  5
928
330
1F
100
AcDbEntity
  8
0
  62
0
100
AcDbLine
 10
690.496000
 20
297.345980
 30
0.000000
 11
690.000000
 21
297.300000
 31
0.000000
  0
LINE
  5
929
330
1F
100
AcDbEntity
  8
0
  62
0
100
AcDbLine
 10
690.000000
 20
297.300000
 30
0.000000
 11
689.504000
 21
297.345980
 31
0.000000
  0
LINE
  5
930
330
1F
100
AcDbEntity
  8
0
  62
0
100
AcDbLine
 10
689.504000
 20
297.345980
 30
0.000000
 11
689.025000
 21
297.482330
 31
0.000000
  0
LINE
  5
931
330
1F
100
AcDbEntity
  8
0
  62
0
100
AcDbLine
 10
689.025000
 20
297.482330
 30
0.000000
 11
688.579000
 21
297.704420
 31
0.000000
  0
LINE
  5
932
330
1F
100
AcDbEntity
  8
0
  62
0
100
AcDbLine
 10
688.579000
 20
297.704420
 30
0.000000
 11
688.181000
 21
298.004680
 31
0.000000
  0
LINE
  5
933
330
1F
100
AcDbEntity
  8
0
  62
0
100
AcDbLine
 10
688.181000
 20
298.004680
 30
0.000000
 11
687.845000
 21
298.372890
 31
0.000000
  0
LINE
  5
934
330
1F
100
AcDbEntity
  8
0
  62
0
100
AcDbLine
 10
687.845000
 20
298.372890
 30
0.000000
 11
687.583000
 21
298.796510
 31
0.000000
  0
LINE
  5
935
330
1F
100
AcDbEntity
  8
0
  62
0
100
AcDbLine
 10
687.583000
 20
298.796510
 30
0.000000
 11
687.403000
 21
299.261124
 31
0.000000
  0
LINE
  5
936
330
1F
100
AcDbEntity
  8
0
  62
0
100
AcDbLine
 10
687.403000
 20
299.261124
 30
0.000000
 11
687.312000
 21
299.750885
 31
0.000000
  0
LINE
  5
937
330
1F
100
AcDbEntity
  8
0
  62
0
100
AcDbLine
 10
687.312000
 20
299.750885
 30
0.000000
 11
687.312000
 21
300.249115
 31
0.000000
  0
LINE
  5
938
330
1F
100
AcDbEntity
  8
0
  62
0
100
AcDbLine
 10
687.312000
 20
300.249115
 30
0.000000
 11
687.403000
 21
300.738876
 31
0.000000
  0
LINE
  5
939
330
1F
100
AcDbEntity
  8
0
  62
0
100
AcDbLine
 10
687.403000
 20
300.738876
 30
0.000000
 11
687.583000
 21
301.203490
 31
0.000000
  0
LINE
  5
940
330
1F
100
AcDbEntity
  8
0
  62
0
100
AcDbLine
 10
687.583000
 20
301.203490
 30
0.000000
 11
687.845000
 21
301.627110
 31
0.000000
  0
LINE
  5
941
330
1F
100
AcDbEntity
  8
0
  62
0
100
AcDbLine
 10
687.845000
 20
301.627110
 30
0.000000
 11
688.181000
 21
301.995320
 31
0.000000
  0
LINE
  5
942
330
1F
100
AcDbEntity
  8
0
  62
0
100
AcDbLine
 10
688.181000
 20
301.995320
 30
0.000000
 11
688.579000
 21
302.295580
 31
0.000000
  0
LINE
  5
943
330
1F
100
AcDbEntity
  8
0
  62
0
100
AcDbLine
 10
688.579000
 20
302.295580
 30
0.000000
 11
689.025000
 21
302.517670
 31
0.000000
  0
LINE
  5
944
330
1F
100
AcDbEntity
  8
0
  62
0
100
AcDbLine
 10
689.025000
 20
302.517670
 30
0.000000
 11
689.504000
 21
302.654020
 31
0.000000
  0
LINE
  5
945
330
1F
100
AcDbEntity
  8
0
  62
0
100
AcDbLine
 10
689.504000
 20
302.654020
 30
0.000000
 11
690.000000
 21
302.700000
 31
0.000000
  0
LINE
  5
946
330
1F
100
AcDbEntity
  8
0
  62
0
100
AcDbLine
 10
690.000000
 20
302.700000
 30
0.000000
 11
690.496000
 21
302.654020
 31
0.000000
  0
LINE
  5
947
330
1F
100
AcDbEntity
  8
0
  62
0
100
AcDbLine
 10
690.496000
 20
302.654020
 30
0.000000
 11
690.975000
 21
302.517670
 31
0.000000
  0
LINE
  5
948
330
1F
100
AcDbEntity
  8
0
  62
0
100
AcDbLine
 10
690.975000
 20
302.517670
 30
0.000000
 11
691.421000
 21
302.295580
 31
0.000000
  0
LINE
  5
949
330
1F
100
AcDbEntity
  8
0
  62
0
100
AcDbLine
 10
691.421000
 20
302.295580
 30
0.000000
 11
691.819000
 21
301.995320
 31
0.000000
  0
LINE
  5
950
330
1F
100
AcDbEntity
  8
0
  62
0
100
AcDbLine
 10
691.819000
 20
301.995320
 30
0.000000
 11
692.155000
 21
301.627110
 31
0.000000
  0
LINE
  5
951
330
1F
100
AcDbEntity
  8
0
  62
0
100
AcDbLine
 10
692.155000
 20
301.627110
 30
0.000000
 11
692.417000
 21
301.203490
 31
0.000000
  0
LINE
  5
952
330
1F
100
AcDbEntity
  8
0
  62
0
100
AcDbLine
 10
692.417000
 20
301.203490
 30
0.000000
 11
692.597000
 21
300.738876
 31
0.000000
  0
LINE
  5
953
330
1F
100
AcDbEntity
  8
0
  62
0
100
AcDbLine
 10
692.597000
 20
300.738876
 30
0.000000
 11
692.688000
 21
300.249115
 31
0.000000
  0
LINE
  5
954
330
1F
100
AcDbEntity
  8
0
  62
1
100
AcDbLine
 10
711.367412
 20
537.636897
 30
0.000000
 11
711.367412
 21
537.138897
 31
0.000000
  0
LINE
  5
955
330
1F
100
AcDbEntity
  8
0
  62
1
100
AcDbLine
 10
711.367412
 20
537.138897
 30
0.000000
 11
711.276412
 21
536.648897
 31
0.000000
  0
LINE
  5
956
330
1F
100
AcDbEntity
  8
0
  62
1
100
AcDbLine
 10
711.276412
 20
536.648897
 30
0.000000
 11
711.096412
 21
536.184897
 31
0.000000
  0
LINE
  5
957
330
1F
100
AcDbEntity
  8
0
  62
1
100
AcDbLine
 10
711.096412
 20
536.184897
 30
0.000000
 11
710.834412
 21
535.760897
 31
0.000000
  0
LINE
  5
958
330
1F
100
AcDbEntity
  8
0
  62
1
100
AcDbLine
 10
710.834412
 20
535.760897
 30
0.000000
 11
710.498412
 21
535.392897
 31
0.000000
  0
LINE
  5
959
330
1F
100
AcDbEntity
  8
0
  62
1
100
AcDbLine
 10
710.498412
 20
535.392897
 30
0.000000
 11
710.100412
 21
535.091897
 31
0.000000
  0
LINE
  5
960
330
1F
100
AcDbEntity
  8
0
  62
1
100
AcDbLine
 10
710.100412
 20
535.091897
 30
0.000000
 11
709.654412
 21
534.869897
 31
0.000000
  0
LINE
  5
961
330
1F
100
AcDbEntity
  8
0
  62
1
100
AcDbLine
 10
709.654412
 20
534.869897
 30
0.000000
 11
709.175412
 21
534.733897
 31
0.000000
  0
LINE
  5
962
330
1F
100
AcDbEntity
  8
0
  62
1
100
AcDbLine
 10
709.175412
 20
534.733897
 30
0.000000
 11
708.679412
 21
534.687897
 31
0.000000
  0
LINE
  5
963
330
1F
100
AcDbEntity
  8
0
  62
1
100
AcDbLine
 10
708.679412
 20
534.687897
 30
0.000000
 11
708.183412
 21
534.733897
 31
0.000000
  0
LINE
  5
964
330
1F
100
AcDbEntity
  8
0
  62
1
100
AcDbLine
 10
708.183412
 20
534.733897
 30
0.000000
 11
707.704412
 21
534.869897
 31
0.000000
  0
LINE
  5
965
330
1F
100
AcDbEntity
  8
0
  62
1
100
AcDbLine
 10
707.704412
 20
534.869897
 30
0.000000
 11
707.258412
 21
535.091897
 31
0.000000
  0
LINE
  5
966
330
1F
100
AcDbEntity
  8
0
  62
1
100
AcDbLine
 10
707.258412
 20
535.091897
 30
0.000000
 11
706.860412
 21
535.392897
 31
0.000000
  0
LINE
  5
967
330
1F
100
AcDbEntity
  8
0
  62
1
100
AcDbLine
 10
706.860412
 20
535.392897
 30
0.000000
 11
706.524412
 21
535.760897
 31
0.000000
  0
LINE
  5
968
330
1F
100
AcDbEntity
  8
0
  62
1
100
AcDbLine
 10
706.524412
 20
535.760897
 30
0.000000
 11
706.262412
 21
536.184897
 31
0.000000
  0
LINE
  5
969
330
1F
100
AcDbEntity
  8
0
  62
1
100
AcDbLine
 10
706.262412
 20
536.184897
 30
0.000000
 11
706.082412
 21
536.648897
 31
0.000000
  0
LINE
  5
970
330
1F
100
AcDbEntity
  8
0
  62
1
100
AcDbLine
 10
706.082412
 20
536.648897
 30
0.000000
 11
705.991412
 21
537.138897
 31
0.000000
  0
LINE
  5
971
330
1F
100
AcDbEntity
  8
0
  62
1
100
AcDbLine
 10
705.991412
 20
537.138897
 30
0.000000
 11
705.991412
 21
537.636897
 31
0.000000
  0
LINE
  5
972
330
1F
100
AcDbEntity
  8
0
  62
1
100
AcDbLine
 10
705.991412
 20
537.636897
 30
0.000000
 11
706.082412
 21
538.126897
 31
0.000000
  0
LINE
  5
973
330
1F
100
AcDbEntity
  8
0
  62
1
100
AcDbLine
 10
706.082412
 20
538.126897
 30
0.000000
 11
706.262412
 21
538.590897
 31
0.000000
  0
LINE
  5
974
330
1F
100
AcDbEntity
  8
0
  62
1
100
AcDbLine
 10
706.262412
 20
538.590897
 30
0.000000
 11
706.524412
 21
539.014897
 31
0.000000
  0
LINE
  5
975
330
1F
100
AcDbEntity
  8
0
  62
1
100
AcDbLine
 10
706.524412
 20
539.014897
 30
0.000000
 11
706.860412
 21
539.382897
 31
0.000000
  0
LINE
  5
976
330
1F
100
AcDbEntity
  8
0
  62
1
100
AcDbLine
 10
706.860412
 20
539.382897
 30
0.000000
 11
707.258412
 21
539.683897
 31
0.000000
  0
LINE
  5
977
330
1F
100
AcDbEntity
  8
0
  62
1
100
AcDbLine
 10
707.258412
 20
539.683897
 30
0.000000
 11
707.704412
 21
539.905897
 31
0.000000
  0
LINE
  5
978
330
1F
100
AcDbEntity
  8
0
  62
1
100
AcDbLine
 10
707.704412
 20
539.905897
 30
0.000000
 11
708.183412
 21
540.041897
 31
0.000000
  0
LINE
  5
979
330
1F
100
AcDbEntity
  8
0
  62
1
100
AcDbLine
 10
708.183412
 20
540.041897
 30
0.000000
 11
708.679412
 21
540.087897
 31
0.000000
  0
LINE
  5
980
330
1F
100
AcDbEntity
  8
0
  62
1
100
AcDbLine
 10
708.679412
 20
540.087897
 30
0.000000
 11
709.175412
 21
540.041897
 31
0.000000
  0
LINE
  5
981
330
1F
100
AcDbEntity
  8
0
  62
1
100
AcDbLine
 10
709.175412
 20
540.041897
 30
0.000000
 11
709.654412
 21
539.905897
 31
0.000000
  0
LINE
  5
982
330
1F
100
AcDbEntity
  8
0
  62
1
100
AcDbLine
 10
709.654412
 20
539.905897
 30
0.000000
 11
710.100412
 21
539.683897
 31
0.000000
  0
LINE
  5
983
330
1F
100
AcDbEntity
  8
0
  62
1
100
AcDbLine
 10
710.100412
 20
539.683897
 30
0.000000
 11
710.498412
 21
539.382897
 31
0.000000
  0
LINE
  5
984
330
1F
100
AcDbEntity
  8
0
  62
1
100
AcDbLine
 10
710.498412
 20
539.382897
 30
0.000000
 11
710.834412
 21
539.014897
 31
0.000000
  0
LINE
  5
985
330
1F
100
AcDbEntity
  8
0
  62
1
100
AcDbLine
 10
710.834412
 20
539.014897
 30
0.000000
 11
711.096412
 21
538.590897
 31
0.000000
  0
LINE
  5
986
330
1F
100
AcDbEntity
  8
0
  62
1
100
AcDbLine
 10
711.096412
 20
538.590897
 30
0.000000
 11
711.276412
 21
538.126897
 31
0.000000
  0
LINE
  5
987
330
1F
100
AcDbEntity
  8
0
  62
1
100
AcDbLine
 10
711.276412
 20
538.126897
 30
0.000000
 11
711.367412
 21
537.636897
 31
0.000000
  0
LINE
  5
988
330
1F
100
AcDbEntity
  8
0
  62
1
100
AcDbLine
 10
289.643758
 20
539.792214
 30
0.000000
 11
289.643758
 21
539.294214
 31
0.000000
  0
LINE
  5
989
330
1F
100
AcDbEntity
  8
0
  62
1
100
AcDbLine
 10
289.643758
 20
539.294214
 30
0.000000
 11
289.552758
 21
538.804214
 31
0.000000
  0
LINE
  5
990
330
1F
100
AcDbEntity
  8
0
  62
1
100
AcDbLine
 10
289.552758
 20
538.804214
 30
0.000000
 11
289.372758
 21
538.340214
 31
0.000000
  0
LINE
  5
991
330
1F
100
AcDbEntity
  8
0
  62
1
100
AcDbLine
 10
289.372758
 20
538.340214
 30
0.000000
 11
289.110758
 21
537.916214
 31
0.000000
  0
LINE
  5
992
330
1F
100
AcDbEntity
  8
0
  62
1
100
AcDbLine
 10
289.110758
 20
537.916214
 30
0.000000
 11
288.774758
 21
537.548214
 31
0.000000
  0
LINE
  5
993
330
1F
100
AcDbEntity
  8
0
  62
1
100
AcDbLine
 10
288.774758
 20
537.548214
 30
0.000000
 11
288.376758
 21
537.247214
 31
0.000000
  0
LINE
  5
994
330
1F
100
AcDbEntity
  8
0
  62
1
100
AcDbLine
 10
288.376758
 20
537.247214
 30
0.000000
 11
287.930758
 21
537.025214
 31
0.000000
  0
LINE
  5
995
330
1F
100
AcDbEntity
  8
0
  62
1
100
AcDbLine
 10
287.930758
 20
537.025214
 30
0.000000
 11
287.451758
 21
536.889214
 31
0.000000
  0
LINE
  5
996
330
1F
100
AcDbEntity
  8
0
  62
1
100
AcDbLine
 10
287.451758
 20
536.889214
 30
0.000000
 11
286.955758
 21
536.843214
 31
0.000000
  0
LINE
  5
997
330
1F
100
AcDbEntity
  8
0
  62
1
100
AcDbLine
 10
286.955758
 20
536.843214
 30
0.000000
 11
286.459758
 21
536.889214
 31
0.000000
  0
LINE
  5
998
330
1F
100
AcDbEntity
  8
0
  62
1
100
AcDbLine
 10
286.459758
 20
536.889214
 30
0.000000
 11
285.980758
 21
537.025214
 31
0.000000
  0
LINE
  5
999
330
1F
100
AcDbEntity
  8
0
  62
1
100
AcDbLine
 10
285.980758
 20
537.025214
 30
0.000000
 11
285.534758
 21
537.247214
 31
0.000000
  0
LINE
  5
1000
330
1F
100
AcDbEntity
  8
0
  62
1
100
AcDbLine
 10
285.534758
 20
537.247214
 30
0.000000
 11
285.136758
 21
537.548214
 31
0.000000
  0
LINE
  5
1001
330
1F
100
AcDbEntity
  8
0
  62
1
100
AcDbLine
 10
285.136758
 20
537.548214
 30
0.000000
 11
284.800758
 21
537.916214
 31
0.000000
  0
LINE
  5
1002
330
1F
100
AcDbEntity
  8
0
  62
1
100
AcDbLine
 10
284.800758
 20
537.916214
 30
0.000000
 11
284.538758
 21
538.340214
 31
0.000000
  0
LINE
  5
1003
330
1F
100
AcDbEntity
  8
0
  62
1
100
AcDbLine
 10
284.538758
 20
538.340214
 30
0.000000
 11
284.358758
 21
538.804214
 31
0.000000
  0
LINE
  5
1004
330
1F
100
AcDbEntity
  8
0
  62
1
100
AcDbLine
 10
284.358758
 20
538.804214
 30
0.000000
 11
284.267758
 21
539.294214
 31
0.000000
  0
LINE
  5
1005
330
1F
100
AcDbEntity
  8
0
  62
1
100
AcDbLine
 10
284.267758
 20
539.294214
 30
0.000000
 11
284.267758
 21
539.792214
 31
0.000000
  0
LINE
  5
1006
330
1F
100
AcDbEntity
  8
0
  62
1
100
AcDbLine
 10
284.267758
 20
539.792214
 30
0.000000
 11
284.358758
 21
540.282214
 31
0.000000
  0
LINE
  5
1007
330
1F
100
AcDbEntity
  8
0
  62
1
100
AcDbLine
 10
284.358758
 20
540.282214
 30
0.000000
 11
284.538758
 21
540.746214
 31
0.000000
  0
LINE
  5
1008
330
1F
100
AcDbEntity
  8
0
  62
1
100
AcDbLine
 10
284.538758
 20
540.746214
 30
0.000000
 11
284.800758
 21
541.170214
 31
0.000000
  0
LINE
  5
1009
330
1F
100
AcDbEntity
  8
0
  62
1
100
AcDbLine
 10
284.800758
 20
541.170214
 30
0.000000
 11
285.136758
 21
541.538214
 31
0.000000
  0
LINE
  5
1010
330
1F
100
AcDbEntity
  8
0
  62
1
100
AcDbLine
 10
285.136758
 20
541.538214
 30
0.000000
 11
285.534758
 21
541.839214
 31
0.000000
  0
LINE
  5
1011
330
1F
100
AcDbEntity
  8
0
  62
1
100
AcDbLine
 10
285.534758
 20
541.839214
 30
0.000000
 11
285.980758
 21
542.061214
 31
0.000000
  0
LINE
  5
1012
330
1F
100
AcDbEntity
  8
0
  62
1
100
AcDbLine
 10
285.980758
 20
542.061214
 30
0.000000
 11
286.459758
 21
542.197214
 31
0.000000
  0
LINE
  5
1013
330
1F
100
AcDbEntity
  8
0
  62
1
100
AcDbLine
 10
286.459758
 20
542.197214
 30
0.000000
 11
286.955758
 21
542.243214
 31
0.000000
  0
LINE
  5
1014
330
1F
100
AcDbEntity
  8
0
  62
1
100
AcDbLine
 10
286.955758
 20
542.243214
 30
0.000000
 11
287.451758
 21
542.197214
 31
0.000000
  0
LINE
  5
1015
330
1F
100
AcDbEntity
  8
0
  62
1
100
AcDbLine
 10
287.451758
 20
542.197214
 30
0.000000
 11
287.930758
 21
542.061214
 31
0.000000
  0
LINE
  5
1016
330
1F
100
AcDbEntity
  8
0
  62
1
100
AcDbLine
 10
287.930758
 20
542.061214
 30
0.000000
 11
288.376758
 21
541.839214
 31
0.000000
  0
LINE
  5
1017
330
1F
100
AcDbEntity
  8
0
  62
1
100
AcDbLine
 10
288.376758
 20
541.839214
 30
0.000000
 11
288.774758
 21
541.538214
 31
0.000000
  0
LINE
  5
1018
330
1F
100
AcDbEntity
  8
0
  62
1
100
AcDbLine
 10
288.774758
 20
541.538214
 30
0.000000
 11
289.110758
 21
541.170214
 31
0.000000
  0
LINE
  5
1019
330
1F
100
AcDbEntity
  8
0
  62
1
100
AcDbLine
 10
289.110758
 20
541.170214
 30
0.000000
 11
289.372758
 21
540.746214
 31
0.000000
  0
LINE
  5
1020
330
1F
100
AcDbEntity
  8
0
  62
1
100
AcDbLine
 10
289.372758
 20
540.746214
 30
0.000000
 11
289.552758
 21
540.282214
 31
0.000000
  0
LINE
  5
1021
330
1F
100
AcDbEntity
  8
0
  62
1
100
AcDbLine
 10
289.552758
 20
540.282214
 30
0.000000
 11
289.643758
 21
539.792214
 31
0.000000
  0
LINE
  5
1022
330
1F
100
AcDbEntity
  8
0
  62
1
100
AcDbLine
 10
291.431464
 20
66.050132
 30
0.000000
 11
291.431464
 21
65.552132
 31
0.000000
  0
LINE
  5
1023
330
1F
100
AcDbEntity
  8
0
  62
1
100
AcDbLine
 10
291.431464
 20
65.552132
 30
0.000000
 11
291.340464
 21
65.062132
 31
0.000000
  0
LINE
  5
1024
330
1F
100
AcDbEntity
  8
0
  62
1
100
AcDbLine
 10
291.340464
 20
65.062132
 30
0.000000
 11
291.160464
 21
64.598132
 31
0.000000
  0
LINE
  5
1025
330
1F
100
AcDbEntity
  8
0
  62
1
100
AcDbLine
 10
291.160464
 20
64.598132
 30
0.000000
 11
290.898464
 21
64.174132
 31
0.000000
  0
LINE
  5
1026
330
1F
100
AcDbEntity
  8
0
  62
1
100
AcDbLine
 10
290.898464
 20
64.174132
 30
0.000000
 11
290.562464
 21
63.806132
 31
0.000000
  0
LINE
  5
1027
330
1F
100
AcDbEntity
  8
0
  62
1
100
AcDbLine
 10
290.562464
 20
63.806132
 30
0.000000
 11
290.164464
 21
63.505132
 31
0.000000
  0
LINE
  5
1028
330
1F
100
AcDbEntity
  8
0
  62
1
100
AcDbLine
 10
290.164464
 20
63.505132
 30
0.000000
 11
289.718464
 21
63.283132
 31
0.000000
  0
LINE
  5
1029
330
1F
100
AcDbEntity
  8
0
  62
1
100
AcDbLine
 10
289.718464
 20
63.283132
 30
0.000000
 11
289.239464
 21
63.147132
 31
0.000000
  0
LINE
  5
1030
330
1F
100
AcDbEntity
  8
0
  62
1
100
AcDbLine
 10
289.239464
 20
63.147132
 30
0.000000
 11
288.743464
 21
63.101132
 31
0.000000
  0
LINE
  5
1031
330
1F
100
AcDbEntity
  8
0
  62
1
100
AcDbLine
 10
288.743464
 20
63.101132
 30
0.000000
 11
288.247464
 21
63.147132
 31
0.000000
  0
LINE
  5
1032
330
1F
100
AcDbEntity
  8
0
  62
1
100
AcDbLine
 10
288.247464
 20
63.147132
 30
0.000000
 11
287.768464
 21
63.283132
 31
0.000000
  0
LINE
  5
1033
330
1F
100
AcDbEntity
  8
0
  62
1
100
AcDbLine
 10
287.768464
 20
63.283132
 30
0.000000
 11
287.322464
 21
63.505132
 31
0.000000
  0
LINE
  5
1034
330
1F
100
AcDbEntity
  8
0
  62
1
100
AcDbLine
 10
287.322464
 20
63.505132
 30
0.000000
 11
286.924464
 21
63.806132
 31
0.000000
  0
LINE
  5
1035
330
1F
100
AcDbEntity
  8
0
  62
1
100
AcDbLine
 10
286.924464
 20
63.806132
 30
0.000000
 11
286.588464
 21
64.174132
 31
0.000000
  0
LINE
  5
1036
330
1F
100
AcDbEntity
  8
0
  62
1
100
AcDbLine
 10
286.588464
 20
64.174132
 30
0.000000
 11
286.326464
 21
64.598132
 31
0.000000
  0
LINE
  5
1037
330
1F
100
AcDbEntity
  8
0
  62
1
100
AcDbLine
 10
286.326464
 20
64.598132
 30
0.000000
 11
286.146464
 21
65.062132
 31
0.000000
  0
LINE
  5
1038
330
1F
100
AcDbEntity
  8
0
  62
1
100
AcDbLine
 10
286.146464
 20
65.062132
 30
0.000000
 11
286.055464
 21
65.552132
 31
0.000000
  0
LINE
  5
1039
330
1F
100
AcDbEntity
  8
0
  62
1
100
AcDbLine
 10
286.055464
 20
65.552132
 30
0.000000
 11
286.055464
 21
66.050132
 31
0.000000
  0
LINE
  5
1040
330
1F
100
AcDbEntity
  8
0
  62
1
100
AcDbLine
 10
286.055464
 20
66.050132
 30
0.000000
 11
286.146464
 21
66.540132
 31
0.000000
  0
LINE
  5
1041
330
1F
100
AcDbEntity
  8
0
  62
1
100
AcDbLine
 10
286.146464
 20
66.540132
 30
0.000000
 11
286.326464
 21
67.004132
 31
0.000000
  0
LINE
  5
1042
330
1F
100
AcDbEntity
  8
0
  62
1
100
AcDbLine
 10
286.326464
 20
67.004132
 30
0.000000
 11
286.588464
 21
67.428132
 31
0.000000
  0
LINE
  5
1043
330
1F
100
AcDbEntity
  8
0
  62
1
100
AcDbLine
 10
286.588464
 20
67.428132
 30
0.000000
 11
286.924464
 21
67.796132
 31
0.000000
  0
LINE
  5
1044
330
1F
100
AcDbEntity
  8
0
  62
1
100
AcDbLine
 10
286.924464
 20
67.796132
 30
0.000000
 11
287.322464
 21
68.097132
 31
0.000000
  0
LINE
  5
1045
330
1F
100
AcDbEntity
  8
0
  62
1
100
AcDbLine
 10
287.322464
 20
68.097132
 30
0.000000
 11
287.768464
 21
68.319132
 31
0.000000
  0
LINE
  5
1046
330
1F
100
AcDbEntity
  8
0
  62
1
100
AcDbLine
 10
287.768464
 20
68.319132
 30
0.000000
 11
288.247464
 21
68.455132
 31
0.000000
  0
LINE
  5
1047
330
1F
100
AcDbEntity
  8
0
  62
1
100
AcDbLine
 10
288.247464
 20
68.455132
 30
0.000000
 11
288.743464
 21
68.501132
 31
0.000000
  0
LINE
  5
1048
330
1F
100
AcDbEntity
  8
0
  62
1
100
AcDbLine
 10
288.743464
 20
68.501132
 30
0.000000
 11
289.239464
 21
68.455132
 31
0.000000
  0
LINE
  5
1049
330
1F
100
AcDbEntity
  8
0
  62
1
100
AcDbLine
 10
289.239464
 20
68.455132
 30
0.000000
 11
289.718464
 21
68.319132
 31
0.000000
  0
LINE
  5
1050
330
1F
100
AcDbEntity
  8
0
  62
1
100
AcDbLine
 10
289.718464
 20
68.319132
 30
0.000000
 11
290.164464
 21
68.097132
 31
0.000000
  0
LINE
  5
1051
330
1F
100
AcDbEntity
  8
0
  62
1
100
AcDbLine
 10
290.164464
 20
68.097132
 30
0.000000
 11
290.562464
 21
67.796132
 31
0.000000
  0
LINE
  5
1052
330
1F
100
AcDbEntity
  8
0
  62
1
100
AcDbLine
 10
290.562464
 20
67.796132
 30
0.000000
 11
290.898464
 21
67.428132
 31
0.000000
  0
LINE
  5
1053
330
1F
100
AcDbEntity
  8
0
  62
1
100
AcDbLine
 10
290.898464
 20
67.428132
 30
0.000000
 11
291.160464
 21
67.004132
 31
0.000000
  0
LINE
  5
1054
330
1F
100
AcDbEntity
  8
0
  62
1
100
AcDbLine
 10
291.160464
 20
67.004132
 30
0.000000
 11
291.340464
 21
66.540132
 31
0.000000
  0
LINE
  5
1055
330
1F
100
AcDbEntity
  8
0
  62
1
100
AcDbLine
 10
291.340464
 20
66.540132
 30
0.000000
 11
291.431464
 21
66.050132
 31
0.000000
  0
LINE
  5
1056
330
1F
100
AcDbEntity
  8
0
  62
1
100
AcDbLine
 10
713.155118
 20
63.894815
 30
0.000000
 11
713.155118
 21
63.396815
 31
0.000000
  0
LINE
  5
1057
330
1F
100
AcDbEntity
  8
0
  62
1
100
AcDbLine
 10
713.155118
 20
63.396815
 30
0.000000
 11
713.064118
 21
62.906815
 31
0.000000
  0
LINE
  5
1058
330
1F
100
AcDbEntity
  8
0
  62
1
100
AcDbLine
 10
713.064118
 20
62.906815
 30
0.000000
 11
712.884118
 21
62.442815
 31
0.000000
  0
LINE
  5
1059
330
1F
100
AcDbEntity
  8
0
  62
1
100
AcDbLine
 10
712.884118
 20
62.442815
 30
0.000000
 11
712.622118
 21
62.018815
 31
0.000000
  0
LINE
  5
1060
330
1F
100
AcDbEntity
  8
0
  62
1
100
AcDbLine
 10
712.622118
 20
62.018815
 30
0.000000
 11
712.286118
 21
61.650815
 31
0.000000
  0
LINE
  5
1061
330
1F
100
AcDbEntity
  8
0
  62
1
100
AcDbLine
 10
712.286118
 20
61.650815
 30
0.000000
 11
711.888118
 21
61.349815
 31
0.000000
  0
LINE
  5
1062
330
1F
100
AcDbEntity
  8
0
  62
1
100
AcDbLine
 10
711.888118
 20
61.349815
 30
0.000000
 11
711.442118
 21
61.127815
 31
0.000000
  0
LINE
  5
1063
330
1F
100
AcDbEntity
  8
0
  62
1
100
AcDbLine
 10
711.442118
 20
61.127815
 30
0.000000
 11
710.963118
 21
60.991815
 31
0.000000
  0
LINE
  5
1064
330
1F
100
AcDbEntity
  8
0
  62
1
100
AcDbLine
 10
710.963118
 20
60.991815
 30
0.000000
 11
710.467118
 21
60.945815
 31
0.000000
  0
LINE
  5
1065
330
1F
100
AcDbEntity
  8
0
  62
1
100
AcDbLine
 10
710.467118
 20
60.945815
 30
0.000000
 11
709.971118
 21
60.991815
 31
0.000000
  0
LINE
  5
1066
330
1F
100
AcDbEntity
  8
0
  62
1
100
AcDbLine
 10
709.971118
 20
60.991815
 30
0.000000
 11
709.492118
 21
61.127815
 31
0.000000
  0
LINE
  5
1067
330
1F
100
AcDbEntity
  8
0
  62
1
100
AcDbLine
 10
709.492118
 20
61.127815
 30
0.000000
 11
709.046118
 21
61.349815
 31
0.000000
  0
LINE
  5
1068
330
1F
100
AcDbEntity
  8
0
  62
1
100
AcDbLine
 10
709.046118
 20
61.349815
 30
0.000000
 11
708.648118
 21
61.650815
 31
0.000000
  0
LINE
  5
1069
330
1F
100
AcDbEntity
  8
0
  62
1
100
AcDbLine
 10
708.648118
 20
61.650815
 30
0.000000
 11
708.312118
 21
62.018815
 31
0.000000
  0
LINE
  5
1070
330
1F
100
AcDbEntity
  8
0
  62
1
100
AcDbLine
 10
708.312118
 20
62.018815
 30
0.000000
 11
708.050118
 21
62.442815
 31
0.000000
  0
LINE
  5
1071
330
1F
100
AcDbEntity
  8
0
  62
1
100
AcDbLine
 10
708.050118
 20
62.442815
 30
0.000000
 11
707.870118
 21
62.906815
 31
0.000000
  0
LINE
  5
1072
330
1F
100
AcDbEntity
  8
0
  62
1
100
AcDbLine
 10
707.870118
 20
62.906815
 30
0.000000
 11
707.779118
 21
63.396815
 31
0.000000
  0
LINE
  5
1073
330
1F
100
AcDbEntity
  8
0
  62
1
100
AcDbLine
 10
707.779118
 20
63.396815
 30
0.000000
 11
707.779118
 21
63.894815
 31
0.000000
  0
LINE
  5
1074
330
1F
100
AcDbEntity
  8
0
  62
1
100
AcDbLine
 10
707.779118
 20
63.894815
 30
0.000000
 11
707.870118
 21
64.384815
 31
0.000000
  0
LINE
  5
1075
330
1F
100
AcDbEntity
  8
0
  62
1
100
AcDbLine
 10
707.870118
 20
64.384815
 30
0.000000
 11
708.050118
 21
64.848815
 31
0.000000
  0
LINE
  5
1076
330
1F
100
AcDbEntity
  8
0
  62
1
100
AcDbLine
 10
708.050118
 20
64.848815
 30
0.000000
 11
708.312118
 21
65.272815
 31
0.000000
  0
LINE
  5
1077
330
1F
100
AcDbEntity
  8
0
  62
1
100
AcDbLine
 10
708.312118
 20
65.272815
 30
0.000000
 11
708.648118
 21
65.640815
 31
0.000000
  0
LINE
  5
1078
330
1F
100
AcDbEntity
  8
0
  62
1
100
AcDbLine
 10
708.648118
 20
65.640815
 30
0.000000
 11
709.046118
 21
65.941815
 31
0.000000
  0
LINE
  5
1079
330
1F
100
AcDbEntity
  8
0
  62
1
100
AcDbLine
 10
709.046118
 20
65.941815
 30
0.000000
 11
709.492118
 21
66.163815
 31
0.000000
  0
LINE
  5
1080
330
1F
100
AcDbEntity
  8
0
  62
1
100
AcDbLine
 10
709.492118
 20
66.163815
 30
0.000000
 11
709.971118
 21
66.299815
 31
0.000000
  0
LINE
  5
1081
330
1F
100
AcDbEntity
  8
0
  62
1
100
AcDbLine
 10
709.971118
 20
66.299815
 30
0.000000
 11
710.467118
 21
66.345815
 31
0.000000
  0
LINE
  5
1082
330
1F
100
AcDbEntity
  8
0
  62
1
100
AcDbLine
 10
710.467118
 20
66.345815
 30
0.000000
 11
710.963118
 21
66.299815
 31
0.000000
  0
LINE
  5
1083
330
1F
100
AcDbEntity
  8
0
  62
1
100
AcDbLine
 10
710.963118
 20
66.299815
 30
0.000000
 11
711.442118
 21
66.163815
 31
0.000000
  0
LINE
  5
1084
330
1F
100
AcDbEntity
  8
0
  62
1
100
AcDbLine
 10
711.442118
 20
66.163815
 30
0.000000
 11
711.888118
 21
65.941815
 31
0.000000
  0
LINE
  5
1085
330
1F
100
AcDbEntity
  8
0
  62
1
100
AcDbLine
 10
711.888118
 20
65.941815
 30
0.000000
 11
712.286118
 21
65.640815
 31
0.000000
  0
LINE
  5
1086
330
1F
100
AcDbEntity
  8
0
  62
1
100
AcDbLine
 10
712.286118
 20
65.640815
 30
0.000000
 11
712.622118
 21
65.272815
 31
0.000000
  0
LINE
  5
1087
330
1F
100
AcDbEntity
  8
0
  62
1
100
AcDbLine
 10
712.622118
 20
65.272815
 30
0.000000
 11
712.884118
 21
64.848815
 31
0.000000
  0
LINE
  5
1088
330
1F
100
AcDbEntity
  8
0
  62
1
100
AcDbLine
 10
712.884118
 20
64.848815
 30
0.000000
 11
713.064118
 21
64.384815
 31
0.000000
  0
LINE
  5
1089
330
1F
100
AcDbEntity
  8
0
  62
1
100
AcDbLine
 10
713.064118
 20
64.384815
 30
0.000000
 11
713.155118
 21
63.894815
 31
0.000000
 0
ENDSEC
  0
SECTION
  2
OBJECTS
  0
DICTIONARY
  5
C
330
0
100
AcDbDictionary
  3
ACAD_GROUP
350
D
  3
ACAD_LAYOUT
350
1A
  3
ACAD_MLINESTYLE
350
17
  3
ACAD_PLOTSETTINGS
350
19
1001
ACAD
1000
TREAT_AS_HARD
1070
     0
  0
DICTIONARY
  5
46
330
1F
100
AcDbDictionary
  3
ACAD_LAYOUTSELFREF
350
47
  0
DICTIONARY
  5
44
330
1B
100
AcDbDictionary
  3
ACAD_LAYOUTSELFREF
350
45
  0
DICTIONARY
  5
D
102
{ACAD_REACTORS
330
C
102
}
330
C
100
AcDbDictionary
1001
ACAD
1000
TREAT_AS_HARD
1070
     0
  0
DICTIONARY
  5
1A
102
{ACAD_REACTORS
330
C
102
}
330
C
100
AcDbDictionary
1001
ACAD
1000
TREAT_AS_HARD
1070
     0
  0
DICTIONARY
  5
17
102
{ACAD_REACTORS
330
C
102
}
330
C
100
AcDbDictionary
  3
STANDARD
350
18
1001
ACAD
1000
TREAT_AS_HARD
1070
     0
  0
DICTIONARY
  5
19
102
{ACAD_REACTORS
330
C
102
}
330
C
100
AcDbDictionary
1001
ACAD
1000
TREAT_AS_HARD
1070
     0
  0
XRECORD
  5
47
102
{ACAD_REACTORS
330
46
102
}
330
46
100
AcDbXrecord
340
1F
  0
XRECORD
  5
45
102
{ACAD_REACTORS
330
44
102
}
330
44
100
AcDbXrecord
340
1B
  0
MLINESTYLE
  5
18
102
{ACAD_REACTORS
330
17
102
}
330
17
100
AcDbMlineStyle
  2
STANDARD
 70
     0
  3

 62
   256
 51
90.0
 52
90.0
 71
     2
 49
0.5
 62
   256
  6
BYLAYER
 49
-0.5
 62
   256
  6
BYLAYER
  0
ENDSEC
  0
EOF
