  0
SECTION
  2
BLOCKS
  0
ENDSEC
  0
SECTION
  2
ENTITIES
  0
LINE
  8
0
 10
167.5
 20
249.875
 11
165.875
 21
251.5
  0
LINE
  8
0
 10
165.875
 20
251.5
 11
154.125
 21
251.5
  0
LINE
  8
0
 10
154.125
 20
251.5
 11
152.5
 21
249.875
  0
LINE
  8
0
 10
152.5
 20
249.875
 11
152.5
 21
238.5
  0
LINE
  8
0
 10
152.5
 20
238.5
 11
167.5
 21
238.5
  0
LINE
  8
0
 10
167.5
 20
238.5
 11
167.5
 21
249.875
  0
LINE
  8
0
 10
22.5
 20
249.875
 11
20.875
 21
251.5
  0
LINE
  8
0
 10
20.875
 20
251.5
 11
9.125
 21
251.5
  0
LINE
  8
0
 10
9.125
 20
251.5
 11
7.5
 21
249.875
  0
LINE
  8
0
 10
7.5
 20
249.875
 11
7.5
 21
238.5
  0
LINE
  8
0
 10
7.5
 20
238.5
 11
22.5
 21
238.5
  0
LINE
  8
0
 10
22.5
 20
238.5
 11
22.5
 21
249.875
  0
LINE
  8
0
 10
137.5
 20
249.875
 11
135.875
 21
251.5
  0
LINE
  8
0
 10
135.875
 20
251.5
 11
124.125
 21
251.5
  0
LINE
  8
0
 10
124.125
 20
251.5
 11
122.5
 21
249.875
  0
LINE
  8
0
 10
122.5
 20
249.875
 11
122.5
 21
238.5
  0
LINE
  8
0
 10
122.5
 20
238.5
 11
137.5
 21
238.5
  0
LINE
  8
0
 10
137.5
 20
238.5
 11
137.5
 21
249.875
  0
LINE
  8
0
 10
-122.5
 20
249.875
 11
-124.125
 21
251.5
  0
LINE
  8
0
 10
-124.125
 20
251.5
 11
-135.875
 21
251.5
  0
LINE
  8
0
 10
-135.875
 20
251.5
 11
-137.5
 21
249.875
  0
LINE
  8
0
 10
-137.5
 20
249.875
 11
-137.5
 21
238.5
  0
LINE
  8
0
 10
-137.5
 20
238.5
 11
-122.5
 21
238.5
  0
LINE
  8
0
 10
-122.5
 20
238.5
 11
-122.5
 21
249.875
  0
LINE
  8
0
 10
-7.5
 20
249.875
 11
-9.125
 21
251.5
  0
LINE
  8
0
 10
-9.125
 20
251.5
 11
-20.875
 21
251.5
  0
LINE
  8
0
 10
-20.875
 20
251.5
 11
-22.5
 21
249.875
  0
LINE
  8
0
 10
-22.5
 20
249.875
 11
-22.5
 21
238.5
  0
LINE
  8
0
 10
-22.5
 20
238.5
 11
-7.5
 21
238.5
  0
LINE
  8
0
 10
-7.5
 20
238.5
 11
-7.5
 21
249.875
  0
LINE
  8
0
 10
-152.5
 20
249.875
 11
-154.125
 21
251.5
  0
LINE
  8
0
 10
-154.125
 20
251.5
 11
-165.875
 21
251.5
  0
LINE
  8
0
 10
-165.875
 20
251.5
 11
-167.5
 21
249.875
  0
LINE
  8
0
 10
-167.5
 20
249.875
 11
-167.5
 21
238.5
  0
LINE
  8
0
 10
-167.5
 20
238.5
 11
-152.5
 21
238.5
  0
LINE
  8
0
 10
-152.5
 20
238.5
 11
-152.5
 21
249.875
  0
LINE
  8
0
 10
225
 20
205
 11
-225
 21
205
  0
LINE
  8
0
 10
-225
 20
205
 11
-225
 21
199.25
  0
LINE
  8
0
 10
-225
 20
199.25
 11
-223
 21
199.25
  0
LINE
  8
0
 10
-223
 20
199.25
 11
-223
 21
190.75
  0
LINE
  8
0
 10
-223
 20
190.75
 11
-225
 21
190.75
  0
LINE
  8
0
 10
-225
 20
190.75
 11
-225
 21
165
  0
LINE
  8
0
 10
-225
 20
165
 11
-246
 21
165
  0
LINE
  8
0
 10
-246
 20
165
 11
-246
 21
167.5
  0
LINE
  8
0
 10
-246
 20
167.5
 11
-249.875
 21
167.5
  0
LINE
  8
0
 10
-249.875
 20
167.5
 11
-251.5
 21
165.875
  0
LINE
  8
0
 10
-251.5
 20
165.875
 11
-251.5
 21
154.125
  0
LINE
  8
0
 10
-251.5
 20
154.125
 11
-249.875
 21
152.5
  0
LINE
  8
0
 10
-249.875
 20
152.5
 11
-245
 21
152.5
  0
LINE
  8
0
 10
-245
 20
152.5
 11
-245
 21
147.563
  0
LINE
  8
0
 10
-245
 20
147.563
 11
-237.938
 21
147.563
  0
LINE
  8
0
 10
-237.938
 20
147.563
 11
-237.938
 21
151.785
  0
LINE
  8
0
 10
-237.938
 20
151.785
 11
-232.562
 21
151.785
  0
LINE
  8
0
 10
-232.562
 20
151.785
 11
-232.562
 21
147.563
  0
LINE
  8
0
 10
-232.562
 20
147.563
 11
-231.188
 21
147.563
  0
LINE
  8
0
 10
-231.188
 20
147.563
 11
-231.188
 21
142.437
  0
LINE
  8
0
 10
-231.188
 20
142.437
 11
-232.562
 21
142.437
  0
LINE
  8
0
 10
-232.562
 20
142.437
 11
-232.562
 21
138.215
  0
LINE
  8
0
 10
-232.562
 20
138.215
 11
-237.938
 21
138.215
  0
LINE
  8
0
 10
-237.938
 20
138.215
 11
-237.938
 21
142.437
  0
LINE
  8
0
 10
-237.938
 20
142.437
 11
-245
 21
142.437
  0
LINE
  8
0
 10
-245
 20
142.437
 11
-245
 21
137.5
  0
LINE
  8
0
 10
-245
 20
137.5
 11
-249.875
 21
137.5
  0
LINE
  8
0
 10
-249.875
 20
137.5
 11
-251.5
 21
135.875
  0
LINE
  8
0
 10
-251.5
 20
135.875
 11
-251.5
 21
124.125
  0
LINE
  8
0
 10
-251.5
 20
124.125
 11
-249.875
 21
122.5
  0
LINE
  8
0
 10
-249.875
 20
122.5
 11
-245
 21
122.5
  0
LINE
  8
0
 10
-245
 20
122.5
 11
-245
 21
22.5
  0
LINE
  8
0
 10
-245
 20
22.5
 11
-249.875
 21
22.5
  0
LINE
  8
0
 10
-249.875
 20
22.5
 11
-251.5
 21
20.875
  0
LINE
  8
0
 10
-251.5
 20
20.875
 11
-251.5
 21
9.125
  0
LINE
  8
0
 10
-251.5
 20
9.125
 11
-249.875
 21
7.5
  0
LINE
  8
0
 10
-249.875
 20
7.5
 11
-245
 21
7.5
  0
LINE
  8
0
 10
-245
 20
7.5
 11
-245
 21
2.56299
  0
LINE
  8
0
 10
-245
 20
2.56299
 11
-237.938
 21
2.56299
  0
LINE
  8
0
 10
-237.938
 20
2.56299
 11
-237.938
 21
6.78519
  0
LINE
  8
0
 10
-237.938
 20
6.78519
 11
-232.562
 21
6.78519
  0
LINE
  8
0
 10
-232.562
 20
6.78519
 11
-232.562
 21
2.56299
  0
LINE
  8
0
 10
-232.562
 20
2.56299
 11
-231.188
 21
2.56299
  0
LINE
  8
0
 10
-231.188
 20
2.56299
 11
-231.188
 21
-2.56299
  0
LINE
  8
0
 10
-231.188
 20
-2.56299
 11
-232.562
 21
-2.56299
  0
LINE
  8
0
 10
-232.562
 20
-2.56299
 11
-232.562
 21
-6.78519
  0
LINE
  8
0
 10
-232.562
 20
-6.78519
 11
-237.938
 21
-6.78519
  0
LINE
  8
0
 10
-237.938
 20
-6.78519
 11
-237.938
 21
-2.56299
  0
LINE
  8
0
 10
-237.938
 20
-2.56299
 11
-245
 21
-2.56299
  0
LINE
  8
0
 10
-245
 20
-2.56299
 11
-245
 21
-7.5
  0
LINE
  8
0
 10
-245
 20
-7.5
 11
-249.875
 21
-7.5
  0
LINE
  8
0
 10
-249.875
 20
-7.5
 11
-251.5
 21
-9.125
  0
LINE
  8
0
 10
-251.5
 20
-9.125
 11
-251.5
 21
-20.875
  0
LINE
  8
0
 10
-251.5
 20
-20.875
 11
-249.875
 21
-22.5
  0
LINE
  8
0
 10
-249.875
 20
-22.5
 11
-245
 21
-22.5
  0
LINE
  8
0
 10
-245
 20
-22.5
 11
-245
 21
-122.5
  0
LINE
  8
0
 10
-245
 20
-122.5
 11
-249.875
 21
-122.5
  0
LINE
  8
0
 10
-249.875
 20
-122.5
 11
-251.5
 21
-124.125
  0
LINE
  8
0
 10
-251.5
 20
-124.125
 11
-251.5
 21
-135.875
  0
LINE
  8
0
 10
-251.5
 20
-135.875
 11
-249.875
 21
-137.5
  0
LINE
  8
0
 10
-249.875
 20
-137.5
 11
-245
 21
-137.5
  0
LINE
  8
0
 10
-245
 20
-137.5
 11
-245
 21
-142.437
  0
LINE
  8
0
 10
-245
 20
-142.437
 11
-237.938
 21
-142.437
  0
LINE
  8
0
 10
-237.938
 20
-142.437
 11
-237.938
 21
-138.215
  0
LINE
  8
0
 10
-237.938
 20
-138.215
 11
-232.562
 21
-138.215
  0
LINE
  8
0
 10
-232.562
 20
-138.215
 11
-232.562
 21
-142.437
  0
LINE
  8
0
 10
-232.562
 20
-142.437
 11
-231.188
 21
-142.437
  0
LINE
  8
0
 10
-231.188
 20
-142.437
 11
-231.188
 21
-147.563
  0
LINE
  8
0
 10
-231.188
 20
-147.563
 11
-232.562
 21
-147.563
  0
LINE
  8
0
 10
-232.562
 20
-147.563
 11
-232.562
 21
-151.785
  0
LINE
  8
0
 10
-232.562
 20
-151.785
 11
-237.938
 21
-151.785
  0
LINE
  8
0
 10
-237.938
 20
-151.785
 11
-237.938
 21
-147.563
  0
LINE
  8
0
 10
-237.938
 20
-147.563
 11
-245
 21
-147.563
  0
LINE
  8
0
 10
-245
 20
-147.563
 11
-245
 21
-152.5
  0
LINE
  8
0
 10
-245
 20
-152.5
 11
-249.875
 21
-152.5
  0
LINE
  8
0
 10
-249.875
 20
-152.5
 11
-251.5
 21
-154.125
  0
LINE
  8
0
 10
-251.5
 20
-154.125
 11
-251.5
 21
-165.875
  0
LINE
  8
0
 10
-251.5
 20
-165.875
 11
-249.875
 21
-167.5
  0
LINE
  8
0
 10
-249.875
 20
-167.5
 11
-246
 21
-167.5
  0
LINE
  8
0
 10
-246
 20
-167.5
 11
-246
 21
-165
  0
LINE
  8
0
 10
-246
 20
-165
 11
-225
 21
-165
  0
LINE
  8
0
 10
-225
 20
-165
 11
-225
 21
-205
  0
LINE
  8
0
 10
-225
 20
-205
 11
225
 21
-205
  0
LINE
  8
0
 10
225
 20
-205
 11
225
 21
-165
  0
LINE
  8
0
 10
225
 20
-165
 11
246
 21
-165
  0
LINE
  8
0
 10
246
 20
-165
 11
246
 21
-167.5
  0
LINE
  8
0
 10
246
 20
-167.5
 11
249.875
 21
-167.5
  0
LINE
  8
0
 10
249.875
 20
-167.5
 11
251.5
 21
-165.875
  0
LINE
  8
0
 10
251.5
 20
-165.875
 11
251.5
 21
-154.125
  0
LINE
  8
0
 10
251.5
 20
-154.125
 11
249.875
 21
-152.5
  0
LINE
  8
0
 10
249.875
 20
-152.5
 11
245
 21
-152.5
  0
LINE
  8
0
 10
245
 20
-152.5
 11
245
 21
-147.563
  0
LINE
  8
0
 10
245
 20
-147.563
 11
237.938
 21
-147.563
  0
LINE
  8
0
 10
237.938
 20
-147.563
 11
237.938
 21
-151.785
  0
LINE
  8
0
 10
237.938
 20
-151.785
 11
232.562
 21
-151.785
  0
LINE
  8
0
 10
232.562
 20
-151.785
 11
232.562
 21
-147.563
  0
LINE
  8
0
 10
232.562
 20
-147.563
 11
231.188
 21
-147.563
  0
LINE
  8
0
 10
231.188
 20
-147.563
 11
231.188
 21
-142.437
  0
LINE
  8
0
 10
231.188
 20
-142.437
 11
232.562
 21
-142.437
  0
LINE
  8
0
 10
232.562
 20
-142.437
 11
232.562
 21
-138.215
  0
LINE
  8
0
 10
232.562
 20
-138.215
 11
237.938
 21
-138.215
  0
LINE
  8
0
 10
237.938
 20
-138.215
 11
237.938
 21
-142.437
  0
LINE
  8
0
 10
237.938
 20
-142.437
 11
245
 21
-142.437
  0
LINE
  8
0
 10
245
 20
-142.437
 11
245
 21
-137.5
  0
LINE
  8
0
 10
245
 20
-137.5
 11
249.875
 21
-137.5
  0
LINE
  8
0
 10
249.875
 20
-137.5
 11
251.5
 21
-135.875
  0
LINE
  8
0
 10
251.5
 20
-135.875
 11
251.5
 21
-124.125
  0
LINE
  8
0
 10
251.5
 20
-124.125
 11
249.875
 21
-122.5
  0
LINE
  8
0
 10
249.875
 20
-122.5
 11
245
 21
-122.5
  0
LINE
  8
0
 10
245
 20
-122.5
 11
245
 21
-22.5
  0
LINE
  8
0
 10
245
 20
-22.5
 11
249.875
 21
-22.5
  0
LINE
  8
0
 10
249.875
 20
-22.5
 11
251.5
 21
-20.875
  0
LINE
  8
0
 10
251.5
 20
-20.875
 11
251.5
 21
-9.125
  0
LINE
  8
0
 10
251.5
 20
-9.125
 11
249.875
 21
-7.5
  0
LINE
  8
0
 10
249.875
 20
-7.5
 11
245
 21
-7.5
  0
LINE
  8
0
 10
245
 20
-7.5
 11
245
 21
-2.56299
  0
LINE
  8
0
 10
245
 20
-2.56299
 11
237.938
 21
-2.56299
  0
LINE
  8
0
 10
237.938
 20
-2.56299
 11
237.938
 21
-6.78519
  0
LINE
  8
0
 10
237.938
 20
-6.78519
 11
232.562
 21
-6.78519
  0
LINE
  8
0
 10
232.562
 20
-6.78519
 11
232.562
 21
-2.56299
  0
LINE
  8
0
 10
232.562
 20
-2.56299
 11
231.188
 21
-2.56299
  0
LINE
  8
0
 10
231.188
 20
-2.56299
 11
231.188
 21
2.56299
  0
LINE
  8
0
 10
231.188
 20
2.56299
 11
232.562
 21
2.56299
  0
LINE
  8
0
 10
232.562
 20
2.56299
 11
232.562
 21
6.78519
  0
LINE
  8
0
 10
232.562
 20
6.78519
 11
237.938
 21
6.78519
  0
LINE
  8
0
 10
237.938
 20
6.78519
 11
237.938
 21
2.56299
  0
LINE
  8
0
 10
237.938
 20
2.56299
 11
245
 21
2.56299
  0
LINE
  8
0
 10
245
 20
2.56299
 11
245
 21
7.5
  0
LINE
  8
0
 10
245
 20
7.5
 11
249.875
 21
7.5
  0
LINE
  8
0
 10
249.875
 20
7.5
 11
251.5
 21
9.125
  0
LINE
  8
0
 10
251.5
 20
9.125
 11
251.5
 21
20.875
  0
LINE
  8
0
 10
251.5
 20
20.875
 11
249.875
 21
22.5
  0
LINE
  8
0
 10
249.875
 20
22.5
 11
245
 21
22.5
  0
LINE
  8
0
 10
245
 20
22.5
 11
245
 21
122.5
  0
LINE
  8
0
 10
245
 20
122.5
 11
249.875
 21
122.5
  0
LINE
  8
0
 10
249.875
 20
122.5
 11
251.5
 21
124.125
  0
LINE
  8
0
 10
251.5
 20
124.125
 11
251.5
 21
135.875
  0
LINE
  8
0
 10
251.5
 20
135.875
 11
249.875
 21
137.5
  0
LINE
  8
0
 10
249.875
 20
137.5
 11
245
 21
137.5
  0
LINE
  8
0
 10
245
 20
137.5
 11
245
 21
142.437
  0
LINE
  8
0
 10
245
 20
142.437
 11
237.938
 21
142.437
  0
LINE
  8
0
 10
237.938
 20
142.437
 11
237.938
 21
138.215
  0
LINE
  8
0
 10
237.938
 20
138.215
 11
232.562
 21
138.215
  0
LINE
  8
0
 10
232.562
 20
138.215
 11
232.562
 21
142.437
  0
LINE
  8
0
 10
232.562
 20
142.437
 11
231.188
 21
142.437
  0
LINE
  8
0
 10
231.188
 20
142.437
 11
231.188
 21
147.563
  0
LINE
  8
0
 10
231.188
 20
147.563
 11
232.562
 21
147.563
  0
LINE
  8
0
 10
232.562
 20
147.563
 11
232.562
 21
151.785
  0
LINE
  8
0
 10
232.562
 20
151.785
 11
237.938
 21
151.785
  0
LINE
  8
0
 10
237.938
 20
151.785
 11
237.938
 21
147.563
  0
LINE
  8
0
 10
237.938
 20
147.563
 11
245
 21
147.563
  0
LINE
  8
0
 10
245
 20
147.563
 11
245
 21
152.5
  0
LINE
  8
0
 10
245
 20
152.5
 11
249.875
 21
152.5
  0
LINE
  8
0
 10
249.875
 20
152.5
 11
251.5
 21
154.125
  0
LINE
  8
0
 10
251.5
 20
154.125
 11
251.5
 21
165.875
  0
LINE
  8
0
 10
251.5
 20
165.875
 11
249.875
 21
167.5
  0
LINE
  8
0
 10
249.875
 20
167.5
 11
246
 21
167.5
  0
LINE
  8
0
 10
246
 20
167.5
 11
246
 21
165
  0
LINE
  8
0
 10
246
 20
165
 11
225
 21
165
  0
LINE
  8
0
 10
225
 20
165
 11
225
 21
190.75
  0
LINE
  8
0
 10
225
 20
190.75
 11
223
 21
190.75
  0
LINE
  8
0
 10
223
 20
190.75
 11
223
 21
199.25
  0
LINE
  8
0
 10
223
 20
199.25
 11
225
 21
199.25
  0
LINE
  8
0
 10
225
 20
199.25
 11
225
 21
205
  0
LINE
  8
0
 10
-214
 20
190.75
 11
-214
 21
199.25
  0
LINE
  8
0
 10
-214
 20
199.25
 11
-210
 21
199.25
  0
LINE
  8
0
 10
-210
 20
199.25
 11
-210
 21
190.75
  0
LINE
  8
0
 10
-210
 20
190.75
 11
-214
 21
190.75
  0
LINE
  8
0
 10
108.788
 20
189.328
 11
113.314
 21
193.853
  0
LINE
  8
0
 10
113.314
 20
193.853
 11
140.113
 21
167.054
  0
LINE
  8
0
 10
140.113
 20
167.054
 11
135.588
 21
162.528
  0
LINE
  8
0
 10
135.588
 20
162.528
 11
108.788
 21
189.328
  0
LINE
  8
0
 10
-140.113
 20
167.054
 11
-113.314
 21
193.853
  0
LINE
  8
0
 10
-113.314
 20
193.853
 11
-108.788
 21
189.328
  0
LINE
  8
0
 10
-108.788
 20
189.328
 11
-135.588
 21
162.528
  0
LINE
  8
0
 10
-135.588
 20
162.528
 11
-140.113
 21
167.054
  0
LINE
  8
0
 10
-193.853
 20
113.314
 11
-167.054
 21
140.113
  0
LINE
  8
0
 10
-167.054
 20
140.113
 11
-162.528
 21
135.588
  0
LINE
  8
0
 10
-162.528
 20
135.588
 11
-189.328
 21
108.788
  0
LINE
  8
0
 10
-189.328
 20
108.788
 11
-193.853
 21
113.314
  0
LINE
  8
0
 10
162.528
 20
135.588
 11
167.054
 21
140.113
  0
LINE
  8
0
 10
167.054
 20
140.113
 11
193.853
 21
113.314
  0
LINE
  8
0
 10
193.853
 20
113.314
 11
189.328
 21
108.788
  0
LINE
  8
0
 10
189.328
 20
108.788
 11
162.528
 21
135.588
  0
LINE
  8
0
 10
-4.50484
 20
-2.16942
 11
-4.50484
 21
2.16942
  0
LINE
  8
0
 10
-4.50484
 20
2.16942
 11
-1.11259
 21
4.87463
  0
LINE
  8
0
 10
-1.11259
 20
4.87463
 11
3.11745
 21
3.90915
  0
LINE
  8
0
 10
3.11745
 20
3.90915
 11
5
 21
0
  0
LINE
  8
0
 10
5
 20
0
 11
3.11745
 21
-3.90915
  0
LINE
  8
0
 10
3.11745
 20
-3.90915
 11
-1.11259
 21
-4.87463
  0
LINE
  8
0
 10
-1.11259
 20
-4.87463
 11
-4.50484
 21
-2.16942
  0
LINE
  8
0
 10
162.528
 20
-135.588
 11
189.328
 21
-108.788
  0
LINE
  8
0
 10
189.328
 20
-108.788
 11
193.853
 21
-113.314
  0
LINE
  8
0
 10
193.853
 20
-113.314
 11
167.054
 21
-140.113
  0
LINE
  8
0
 10
167.054
 20
-140.113
 11
162.528
 21
-135.588
  0
LINE
  8
0
 10
-193.853
 20
-113.314
 11
-189.328
 21
-108.788
  0
LINE
  8
0
 10
-189.328
 20
-108.788
 11
-162.528
 21
-135.588
  0
LINE
  8
0
 10
-162.528
 20
-135.588
 11
-167.054
 21
-140.113
  0
LINE
  8
0
 10
-167.054
 20
-140.113
 11
-193.853
 21
-113.314
  0
LINE
  8
0
 10
-140.113
 20
-167.054
 11
-135.588
 21
-162.528
  0
LINE
  8
0
 10
-135.588
 20
-162.528
 11
-108.788
 21
-189.328
  0
LINE
  8
0
 10
-108.788
 20
-189.328
 11
-113.314
 21
-193.853
  0
LINE
  8
0
 10
-113.314
 20
-193.853
 11
-140.113
 21
-167.054
  0
LINE
  8
0
 10
108.788
 20
-189.328
 11
135.588
 21
-162.528
  0
LINE
  8
0
 10
135.588
 20
-162.528
 11
140.113
 21
-167.054
  0
LINE
  8
0
 10
140.113
 20
-167.054
 11
113.314
 21
-193.853
  0
LINE
  8
0
 10
113.314
 20
-193.853
 11
108.788
 21
-189.328
  0
LINE
  8
0
 10
210
 20
190.75
 11
210
 21
199.25
  0
LINE
  8
0
 10
210
 20
199.25
 11
214
 21
199.25
  0
LINE
  8
0
 10
214
 20
199.25
 11
214
 21
190.75
  0
LINE
  8
0
 10
214
 20
190.75
 11
210
 21
190.75
  0
LINE
  8
0
 10
-152.5
 20
-249.875
 11
-152.5
 21
-238.5
  0
LINE
  8
0
 10
-152.5
 20
-238.5
 11
-167.5
 21
-238.5
  0
LINE
  8
0
 10
-167.5
 20
-238.5
 11
-167.5
 21
-249.875
  0
LINE
  8
0
 10
-167.5
 20
-249.875
 11
-165.875
 21
-251.5
  0
LINE
  8
0
 10
-165.875
 20
-251.5
 11
-154.125
 21
-251.5
  0
LINE
  8
0
 10
-154.125
 20
-251.5
 11
-152.5
 21
-249.875
  0
LINE
  8
0
 10
167.5
 20
-249.875
 11
167.5
 21
-238.5
  0
LINE
  8
0
 10
167.5
 20
-238.5
 11
152.5
 21
-238.5
  0
LINE
  8
0
 10
152.5
 20
-238.5
 11
152.5
 21
-249.875
  0
LINE
  8
0
 10
152.5
 20
-249.875
 11
154.125
 21
-251.5
  0
LINE
  8
0
 10
154.125
 20
-251.5
 11
165.875
 21
-251.5
  0
LINE
  8
0
 10
165.875
 20
-251.5
 11
167.5
 21
-249.875
  0
LINE
  8
0
 10
137.5
 20
-249.875
 11
137.5
 21
-238.5
  0
LINE
  8
0
 10
137.5
 20
-238.5
 11
122.5
 21
-238.5
  0
LINE
  8
0
 10
122.5
 20
-238.5
 11
122.5
 21
-249.875
  0
LINE
  8
0
 10
122.5
 20
-249.875
 11
124.125
 21
-251.5
  0
LINE
  8
0
 10
124.125
 20
-251.5
 11
135.875
 21
-251.5
  0
LINE
  8
0
 10
135.875
 20
-251.5
 11
137.5
 21
-249.875
  0
LINE
  8
0
 10
-122.5
 20
-249.875
 11
-122.5
 21
-238.5
  0
LINE
  8
0
 10
-122.5
 20
-238.5
 11
-137.5
 21
-238.5
  0
LINE
  8
0
 10
-137.5
 20
-238.5
 11
-137.5
 21
-249.875
  0
LINE
  8
0
 10
-137.5
 20
-249.875
 11
-135.875
 21
-251.5
  0
LINE
  8
0
 10
-135.875
 20
-251.5
 11
-124.125
 21
-251.5
  0
LINE
  8
0
 10
-124.125
 20
-251.5
 11
-122.5
 21
-249.875
  0
LINE
  8
0
 10
22.5
 20
-249.875
 11
22.5
 21
-238.5
  0
LINE
  8
0
 10
22.5
 20
-238.5
 11
7.5
 21
-238.5
  0
LINE
  8
0
 10
7.5
 20
-238.5
 11
7.5
 21
-249.875
  0
LINE
  8
0
 10
7.5
 20
-249.875
 11
9.125
 21
-251.5
  0
LINE
  8
0
 10
9.125
 20
-251.5
 11
20.875
 21
-251.5
  0
LINE
  8
0
 10
20.875
 20
-251.5
 11
22.5
 21
-249.875
  0
LINE
  8
0
 10
-7.5
 20
-249.875
 11
-7.5
 21
-238.5
  0
LINE
  8
0
 10
-7.5
 20
-238.5
 11
-22.5
 21
-238.5
  0
LINE
  8
0
 10
-22.5
 20
-238.5
 11
-22.5
 21
-249.875
  0
LINE
  8
0
 10
-22.5
 20
-249.875
 11
-20.875
 21
-251.5
  0
LINE
  8
0
 10
-20.875
 20
-251.5
 11
-9.125
 21
-251.5
  0
LINE
  8
0
 10
-9.125
 20
-251.5
 11
-7.5
 21
-249.875
  0
ENDSEC
  0
SECTION
  2
OBJECTS
  0
DICTIONARY
  0
ENDSEC
  0
EOF
