  0
SECTION
  2
BLOCKS
  0
ENDSEC
  0
SECTION
  2
ENTITIES
  0
LINE
  8
0
 10
-152.5
 20
-224.875
 11
-152.5
 21
-220
  0
LINE
  8
0
 10
-152.5
 20
-220
 11
-147.563
 21
-220
  0
LINE
  8
0
 10
-147.563
 20
-220
 11
-147.563
 21
-212.938
  0
LINE
  8
0
 10
-147.563
 20
-212.938
 11
-149.7
 21
-212.938
  0
LINE
  8
0
 10
-149.7
 20
-212.938
 11
-149.7
 21
-207.562
  0
LINE
  8
0
 10
-149.7
 20
-207.562
 11
-147.563
 21
-207.562
  0
LINE
  8
0
 10
-147.563
 20
-207.562
 11
-147.563
 21
-206.188
  0
LINE
  8
0
 10
-147.563
 20
-206.188
 11
-142.437
 21
-206.188
  0
LINE
  8
0
 10
-142.437
 20
-206.188
 11
-142.437
 21
-207.562
  0
LINE
  8
0
 10
-142.437
 20
-207.562
 11
-140.3
 21
-207.562
  0
LINE
  8
0
 10
-140.3
 20
-207.562
 11
-140.3
 21
-212.938
  0
LINE
  8
0
 10
-140.3
 20
-212.938
 11
-142.437
 21
-212.938
  0
LINE
  8
0
 10
-142.437
 20
-212.938
 11
-142.437
 21
-220
  0
LINE
  8
0
 10
-142.437
 20
-220
 11
-137.5
 21
-220
  0
LINE
  8
0
 10
-137.5
 20
-220
 11
-137.5
 21
-224.875
  0
LINE
  8
0
 10
-137.5
 20
-224.875
 11
-135.875
 21
-226.5
  0
LINE
  8
0
 10
-135.875
 20
-226.5
 11
-124.125
 21
-226.5
  0
LINE
  8
0
 10
-124.125
 20
-226.5
 11
-122.5
 21
-224.875
  0
LINE
  8
0
 10
-122.5
 20
-224.875
 11
-122.5
 21
-220
  0
LINE
  8
0
 10
-122.5
 20
-220
 11
-22.5
 21
-220
  0
LINE
  8
0
 10
-22.5
 20
-220
 11
-22.5
 21
-224.875
  0
LINE
  8
0
 10
-22.5
 20
-224.875
 11
-20.875
 21
-226.5
  0
LINE
  8
0
 10
-20.875
 20
-226.5
 11
-9.125
 21
-226.5
  0
LINE
  8
0
 10
-9.125
 20
-226.5
 11
-7.5
 21
-224.875
  0
LINE
  8
0
 10
-7.5
 20
-224.875
 11
-7.5
 21
-220
  0
LINE
  8
0
 10
-7.5
 20
-220
 11
-2.56299
 21
-220
  0
LINE
  8
0
 10
-2.56299
 20
-220
 11
-2.56299
 21
-212.938
  0
LINE
  8
0
 10
-2.56299
 20
-212.938
 11
-4.7
 21
-212.938
  0
LINE
  8
0
 10
-4.7
 20
-212.938
 11
-4.7
 21
-207.562
  0
LINE
  8
0
 10
-4.7
 20
-207.562
 11
-2.56299
 21
-207.562
  0
LINE
  8
0
 10
-2.56299
 20
-207.562
 11
-2.56299
 21
-206.188
  0
LINE
  8
0
 10
-2.56299
 20
-206.188
 11
2.56299
 21
-206.188
  0
LINE
  8
0
 10
2.56299
 20
-206.188
 11
2.56299
 21
-207.562
  0
LINE
  8
0
 10
2.56299
 20
-207.562
 11
4.7
 21
-207.562
  0
LINE
  8
0
 10
4.7
 20
-207.562
 11
4.7
 21
-212.938
  0
LINE
  8
0
 10
4.7
 20
-212.938
 11
2.56299
 21
-212.938
  0
LINE
  8
0
 10
2.56299
 20
-212.938
 11
2.56299
 21
-220
  0
LINE
  8
0
 10
2.56299
 20
-220
 11
7.5
 21
-220
  0
LINE
  8
0
 10
7.5
 20
-220
 11
7.5
 21
-224.875
  0
LINE
  8
0
 10
7.5
 20
-224.875
 11
9.125
 21
-226.5
  0
LINE
  8
0
 10
9.125
 20
-226.5
 11
20.875
 21
-226.5
  0
LINE
  8
0
 10
20.875
 20
-226.5
 11
22.5
 21
-224.875
  0
LINE
  8
0
 10
22.5
 20
-224.875
 11
22.5
 21
-220
  0
LINE
  8
0
 10
22.5
 20
-220
 11
122.5
 21
-220
  0
LINE
  8
0
 10
122.5
 20
-220
 11
122.5
 21
-224.875
  0
LINE
  8
0
 10
122.5
 20
-224.875
 11
124.125
 21
-226.5
  0
LINE
  8
0
 10
124.125
 20
-226.5
 11
135.875
 21
-226.5
  0
LINE
  8
0
 10
135.875
 20
-226.5
 11
137.5
 21
-224.875
  0
LINE
  8
0
 10
137.5
 20
-224.875
 11
137.5
 21
-220
  0
LINE
  8
0
 10
137.5
 20
-220
 11
142.437
 21
-220
  0
LINE
  8
0
 10
142.437
 20
-220
 11
142.437
 21
-212.938
  0
LINE
  8
0
 10
142.437
 20
-212.938
 11
140.3
 21
-212.938
  0
LINE
  8
0
 10
140.3
 20
-212.938
 11
140.3
 21
-207.562
  0
LINE
  8
0
 10
140.3
 20
-207.562
 11
142.437
 21
-207.562
  0
LINE
  8
0
 10
142.437
 20
-207.562
 11
142.437
 21
-206.188
  0
LINE
  8
0
 10
142.437
 20
-206.188
 11
147.563
 21
-206.188
  0
LINE
  8
0
 10
147.563
 20
-206.188
 11
147.563
 21
-207.562
  0
LINE
  8
0
 10
147.563
 20
-207.562
 11
149.7
 21
-207.562
  0
LINE
  8
0
 10
149.7
 20
-207.562
 11
149.7
 21
-212.938
  0
LINE
  8
0
 10
149.7
 20
-212.938
 11
147.563
 21
-212.938
  0
LINE
  8
0
 10
147.563
 20
-212.938
 11
147.563
 21
-220
  0
LINE
  8
0
 10
147.563
 20
-220
 11
152.5
 21
-220
  0
LINE
  8
0
 10
152.5
 20
-220
 11
152.5
 21
-224.875
  0
LINE
  8
0
 10
152.5
 20
-224.875
 11
154.125
 21
-226.5
  0
LINE
  8
0
 10
154.125
 20
-226.5
 11
165.875
 21
-226.5
  0
LINE
  8
0
 10
165.875
 20
-226.5
 11
167.5
 21
-224.875
  0
LINE
  8
0
 10
167.5
 20
-224.875
 11
167.5
 21
-220
  0
LINE
  8
0
 10
167.5
 20
-220
 11
225
 21
-220
  0
LINE
  8
0
 10
225
 20
-220
 11
225
 21
-200
  0
LINE
  8
0
 10
225
 20
-200
 11
245
 21
-200
  0
LINE
  8
0
 10
245
 20
-200
 11
245
 21
200
  0
LINE
  8
0
 10
245
 20
200
 11
207
 21
200
  0
LINE
  8
0
 10
207
 20
200
 11
207
 21
220
  0
LINE
  8
0
 10
207
 20
220
 11
167.5
 21
220
  0
LINE
  8
0
 10
167.5
 20
220
 11
167.5
 21
224.875
  0
LINE
  8
0
 10
167.5
 20
224.875
 11
165.875
 21
226.5
  0
LINE
  8
0
 10
165.875
 20
226.5
 11
154.125
 21
226.5
  0
LINE
  8
0
 10
154.125
 20
226.5
 11
152.5
 21
224.875
  0
LINE
  8
0
 10
152.5
 20
224.875
 11
152.5
 21
220
  0
LINE
  8
0
 10
152.5
 20
220
 11
147.563
 21
220
  0
LINE
  8
0
 10
147.563
 20
220
 11
147.563
 21
212.938
  0
LINE
  8
0
 10
147.563
 20
212.938
 11
149.7
 21
212.938
  0
LINE
  8
0
 10
149.7
 20
212.938
 11
149.7
 21
207.562
  0
LINE
  8
0
 10
149.7
 20
207.562
 11
147.563
 21
207.562
  0
LINE
  8
0
 10
147.563
 20
207.562
 11
147.563
 21
206.188
  0
LINE
  8
0
 10
147.563
 20
206.188
 11
142.437
 21
206.188
  0
LINE
  8
0
 10
142.437
 20
206.188
 11
142.437
 21
207.562
  0
LINE
  8
0
 10
142.437
 20
207.562
 11
140.3
 21
207.562
  0
LINE
  8
0
 10
140.3
 20
207.562
 11
140.3
 21
212.938
  0
LINE
  8
0
 10
140.3
 20
212.938
 11
142.437
 21
212.938
  0
LINE
  8
0
 10
142.437
 20
212.938
 11
142.437
 21
220
  0
LINE
  8
0
 10
142.437
 20
220
 11
137.5
 21
220
  0
LINE
  8
0
 10
137.5
 20
220
 11
137.5
 21
224.875
  0
LINE
  8
0
 10
137.5
 20
224.875
 11
135.875
 21
226.5
  0
LINE
  8
0
 10
135.875
 20
226.5
 11
124.125
 21
226.5
  0
LINE
  8
0
 10
124.125
 20
226.5
 11
122.5
 21
224.875
  0
LINE
  8
0
 10
122.5
 20
224.875
 11
122.5
 21
220
  0
LINE
  8
0
 10
122.5
 20
220
 11
22.5
 21
220
  0
LINE
  8
0
 10
22.5
 20
220
 11
22.5
 21
224.875
  0
LINE
  8
0
 10
22.5
 20
224.875
 11
20.875
 21
226.5
  0
LINE
  8
0
 10
20.875
 20
226.5
 11
9.125
 21
226.5
  0
LINE
  8
0
 10
9.125
 20
226.5
 11
7.5
 21
224.875
  0
LINE
  8
0
 10
7.5
 20
224.875
 11
7.5
 21
220
  0
LINE
  8
0
 10
7.5
 20
220
 11
2.56299
 21
220
  0
LINE
  8
0
 10
2.56299
 20
220
 11
2.56299
 21
212.938
  0
LINE
  8
0
 10
2.56299
 20
212.938
 11
4.7
 21
212.938
  0
LINE
  8
0
 10
4.7
 20
212.938
 11
4.7
 21
207.562
  0
LINE
  8
0
 10
4.7
 20
207.562
 11
2.56299
 21
207.562
  0
LINE
  8
0
 10
2.56299
 20
207.562
 11
2.56299
 21
206.188
  0
LINE
  8
0
 10
2.56299
 20
206.188
 11
-2.56299
 21
206.188
  0
LINE
  8
0
 10
-2.56299
 20
206.188
 11
-2.56299
 21
207.562
  0
LINE
  8
0
 10
-2.56299
 20
207.562
 11
-4.7
 21
207.562
  0
LINE
  8
0
 10
-4.7
 20
207.562
 11
-4.7
 21
212.938
  0
LINE
  8
0
 10
-4.7
 20
212.938
 11
-2.56299
 21
212.938
  0
LINE
  8
0
 10
-2.56299
 20
212.938
 11
-2.56299
 21
220
  0
LINE
  8
0
 10
-2.56299
 20
220
 11
-7.5
 21
220
  0
LINE
  8
0
 10
-7.5
 20
220
 11
-7.5
 21
224.875
  0
LINE
  8
0
 10
-7.5
 20
224.875
 11
-9.125
 21
226.5
  0
LINE
  8
0
 10
-9.125
 20
226.5
 11
-20.875
 21
226.5
  0
LINE
  8
0
 10
-20.875
 20
226.5
 11
-22.5
 21
224.875
  0
LINE
  8
0
 10
-22.5
 20
224.875
 11
-22.5
 21
220
  0
LINE
  8
0
 10
-22.5
 20
220
 11
-122.5
 21
220
  0
LINE
  8
0
 10
-122.5
 20
220
 11
-122.5
 21
224.875
  0
LINE
  8
0
 10
-122.5
 20
224.875
 11
-124.125
 21
226.5
  0
LINE
  8
0
 10
-124.125
 20
226.5
 11
-135.875
 21
226.5
  0
LINE
  8
0
 10
-135.875
 20
226.5
 11
-137.5
 21
224.875
  0
LINE
  8
0
 10
-137.5
 20
224.875
 11
-137.5
 21
220
  0
LINE
  8
0
 10
-137.5
 20
220
 11
-142.437
 21
220
  0
LINE
  8
0
 10
-142.437
 20
220
 11
-142.437
 21
212.938
  0
LINE
  8
0
 10
-142.437
 20
212.938
 11
-140.3
 21
212.938
  0
LINE
  8
0
 10
-140.3
 20
212.938
 11
-140.3
 21
207.562
  0
LINE
  8
0
 10
-140.3
 20
207.562
 11
-142.437
 21
207.562
  0
LINE
  8
0
 10
-142.437
 20
207.562
 11
-142.437
 21
206.188
  0
LINE
  8
0
 10
-142.437
 20
206.188
 11
-147.563
 21
206.188
  0
LINE
  8
0
 10
-147.563
 20
206.188
 11
-147.563
 21
207.562
  0
LINE
  8
0
 10
-147.563
 20
207.562
 11
-149.7
 21
207.562
  0
LINE
  8
0
 10
-149.7
 20
207.562
 11
-149.7
 21
212.938
  0
LINE
  8
0
 10
-149.7
 20
212.938
 11
-147.563
 21
212.938
  0
LINE
  8
0
 10
-147.563
 20
212.938
 11
-147.563
 21
220
  0
LINE
  8
0
 10
-147.563
 20
220
 11
-152.5
 21
220
  0
LINE
  8
0
 10
-152.5
 20
220
 11
-152.5
 21
224.875
  0
LINE
  8
0
 10
-152.5
 20
224.875
 11
-154.125
 21
226.5
  0
LINE
  8
0
 10
-154.125
 20
226.5
 11
-165.875
 21
226.5
  0
LINE
  8
0
 10
-165.875
 20
226.5
 11
-167.5
 21
224.875
  0
LINE
  8
0
 10
-167.5
 20
224.875
 11
-167.5
 21
220
  0
LINE
  8
0
 10
-167.5
 20
220
 11
-207
 21
220
  0
LINE
  8
0
 10
-207
 20
220
 11
-207
 21
200
  0
LINE
  8
0
 10
-207
 20
200
 11
-245
 21
200
  0
LINE
  8
0
 10
-245
 20
200
 11
-245
 21
-200
  0
LINE
  8
0
 10
-245
 20
-200
 11
-225
 21
-200
  0
LINE
  8
0
 10
-225
 20
-200
 11
-225
 21
-220
  0
LINE
  8
0
 10
-225
 20
-220
 11
-167.5
 21
-220
  0
LINE
  8
0
 10
-167.5
 20
-220
 11
-167.5
 21
-224.875
  0
LINE
  8
0
 10
-167.5
 20
-224.875
 11
-165.875
 21
-226.5
  0
LINE
  8
0
 10
-165.875
 20
-226.5
 11
-154.125
 21
-226.5
  0
LINE
  8
0
 10
-154.125
 20
-226.5
 11
-152.5
 21
-224.875
  0
LINE
  8
0
 10
242.65
 20
183.6
 11
239.25
 21
187.3
  0
LINE
  8
0
 10
239.25
 20
187.3
 11
239.25
 21
192.7
  0
LINE
  8
0
 10
239.25
 20
192.7
 11
242.65
 21
196.4
  0
LINE
  8
0
 10
242.65
 20
196.4
 11
242.75
 21
196.4
  0
LINE
  8
0
 10
242.75
 20
196.4
 11
242.75
 21
183.6
  0
LINE
  8
0
 10
242.75
 20
183.6
 11
242.65
 21
183.6
  0
LINE
  8
0
 10
-242.75
 20
183.6
 11
-242.75
 21
196.4
  0
LINE
  8
0
 10
-242.75
 20
196.4
 11
-242.65
 21
196.4
  0
LINE
  8
0
 10
-242.65
 20
196.4
 11
-239.25
 21
192.7
  0
LINE
  8
0
 10
-239.25
 20
192.7
 11
-239.25
 21
187.3
  0
LINE
  8
0
 10
-239.25
 20
187.3
 11
-242.65
 21
183.6
  0
LINE
  8
0
 10
-242.65
 20
183.6
 11
-242.75
 21
183.6
  0
LINE
  8
0
 10
-235.249
 20
187.312
 11
-235.739
 21
187.403
  0
LINE
  8
0
 10
-235.739
 20
187.403
 11
-236.203
 21
187.583
  0
LINE
  8
0
 10
-236.203
 20
187.583
 11
-236.627
 21
187.845
  0
LINE
  8
0
 10
-236.627
 20
187.845
 11
-236.995
 21
188.181
  0
LINE
  8
0
 10
-236.995
 20
188.181
 11
-237.296
 21
188.579
  0
LINE
  8
0
 10
-237.296
 20
188.579
 11
-237.518
 21
189.025
  0
LINE
  8
0
 10
-237.518
 20
189.025
 11
-237.654
 21
189.504
  0
LINE
  8
0
 10
-237.654
 20
189.504
 11
-237.7
 21
190
  0
LINE
  8
0
 10
-237.7
 20
190
 11
-237.654
 21
190.496
  0
LINE
  8
0
 10
-237.654
 20
190.496
 11
-237.518
 21
190.975
  0
LINE
  8
0
 10
-237.518
 20
190.975
 11
-237.296
 21
191.421
  0
LINE
  8
0
 10
-237.296
 20
191.421
 11
-236.995
 21
191.819
  0
LINE
  8
0
 10
-236.995
 20
191.819
 11
-236.627
 21
192.155
  0
LINE
  8
0
 10
-236.627
 20
192.155
 11
-236.203
 21
192.417
  0
LINE
  8
0
 10
-236.203
 20
192.417
 11
-235.739
 21
192.597
  0
LINE
  8
0
 10
-235.739
 20
192.597
 11
-235.249
 21
192.688
  0
LINE
  8
0
 10
-235.249
 20
192.688
 11
-234.751
 21
192.688
  0
LINE
  8
0
 10
-234.751
 20
192.688
 11
-234.261
 21
192.597
  0
LINE
  8
0
 10
-234.261
 20
192.597
 11
-233.797
 21
192.417
  0
LINE
  8
0
 10
-233.797
 20
192.417
 11
-233.373
 21
192.155
  0
LINE
  8
0
 10
-233.373
 20
192.155
 11
-233.005
 21
191.819
  0
LINE
  8
0
 10
-233.005
 20
191.819
 11
-232.704
 21
191.421
  0
LINE
  8
0
 10
-232.704
 20
191.421
 11
-232.482
 21
190.975
  0
LINE
  8
0
 10
-232.482
 20
190.975
 11
-232.346
 21
190.496
  0
LINE
  8
0
 10
-232.346
 20
190.496
 11
-232.3
 21
190
  0
LINE
  8
0
 10
-232.3
 20
190
 11
-232.346
 21
189.504
  0
LINE
  8
0
 10
-232.346
 20
189.504
 11
-232.482
 21
189.025
  0
LINE
  8
0
 10
-232.482
 20
189.025
 11
-232.704
 21
188.579
  0
LINE
  8
0
 10
-232.704
 20
188.579
 11
-233.005
 21
188.181
  0
LINE
  8
0
 10
-233.005
 20
188.181
 11
-233.373
 21
187.845
  0
LINE
  8
0
 10
-233.373
 20
187.845
 11
-233.797
 21
187.583
  0
LINE
  8
0
 10
-233.797
 20
187.583
 11
-234.261
 21
187.403
  0
LINE
  8
0
 10
-234.261
 20
187.403
 11
-234.751
 21
187.312
  0
LINE
  8
0
 10
-234.751
 20
187.312
 11
-235.249
 21
187.312
  0
LINE
  8
0
 10
-0.249115
 20
187.312
 11
-0.738876
 21
187.403
  0
LINE
  8
0
 10
-0.738876
 20
187.403
 11
-1.20349
 21
187.583
  0
LINE
  8
0
 10
-1.20349
 20
187.583
 11
-1.62711
 21
187.845
  0
LINE
  8
0
 10
-1.62711
 20
187.845
 11
-1.99532
 21
188.181
  0
LINE
  8
0
 10
-1.99532
 20
188.181
 11
-2.29558
 21
188.579
  0
LINE
  8
0
 10
-2.29558
 20
188.579
 11
-2.51767
 21
189.025
  0
LINE
  8
0
 10
-2.51767
 20
189.025
 11
-2.65402
 21
189.504
  0
LINE
  8
0
 10
-2.65402
 20
189.504
 11
-2.7
 21
190
  0
LINE
  8
0
 10
-2.7
 20
190
 11
-2.65402
 21
190.496
  0
LINE
  8
0
 10
-2.65402
 20
190.496
 11
-2.51767
 21
190.975
  0
LINE
  8
0
 10
-2.51767
 20
190.975
 11
-2.29558
 21
191.421
  0
LINE
  8
0
 10
-2.29558
 20
191.421
 11
-1.99532
 21
191.819
  0
LINE
  8
0
 10
-1.99532
 20
191.819
 11
-1.62711
 21
192.155
  0
LINE
  8
0
 10
-1.62711
 20
192.155
 11
-1.20349
 21
192.417
  0
LINE
  8
0
 10
-1.20349
 20
192.417
 11
-0.738876
 21
192.597
  0
LINE
  8
0
 10
-0.738876
 20
192.597
 11
-0.249115
 21
192.688
  0
LINE
  8
0
 10
-0.249115
 20
192.688
 11
0.249115
 21
192.688
  0
LINE
  8
0
 10
0.249115
 20
192.688
 11
0.738876
 21
192.597
  0
LINE
  8
0
 10
0.738876
 20
192.597
 11
1.20349
 21
192.417
  0
LINE
  8
0
 10
1.20349
 20
192.417
 11
1.62711
 21
192.155
  0
LINE
  8
0
 10
1.62711
 20
192.155
 11
1.99532
 21
191.819
  0
LINE
  8
0
 10
1.99532
 20
191.819
 11
2.29558
 21
191.421
  0
LINE
  8
0
 10
2.29558
 20
191.421
 11
2.51767
 21
190.975
  0
LINE
  8
0
 10
2.51767
 20
190.975
 11
2.65402
 21
190.496
  0
LINE
  8
0
 10
2.65402
 20
190.496
 11
2.7
 21
190
  0
LINE
  8
0
 10
2.7
 20
190
 11
2.65402
 21
189.504
  0
LINE
  8
0
 10
2.65402
 20
189.504
 11
2.51767
 21
189.025
  0
LINE
  8
0
 10
2.51767
 20
189.025
 11
2.29558
 21
188.579
  0
LINE
  8
0
 10
2.29558
 20
188.579
 11
1.99532
 21
188.181
  0
LINE
  8
0
 10
1.99532
 20
188.181
 11
1.62711
 21
187.845
  0
LINE
  8
0
 10
1.62711
 20
187.845
 11
1.20349
 21
187.583
  0
LINE
  8
0
 10
1.20349
 20
187.583
 11
0.738876
 21
187.403
  0
LINE
  8
0
 10
0.738876
 20
187.403
 11
0.249115
 21
187.312
  0
LINE
  8
0
 10
0.249115
 20
187.312
 11
-0.249115
 21
187.312
  0
LINE
  8
0
 10
214.751
 20
187.312
 11
214.261
 21
187.403
  0
LINE
  8
0
 10
214.261
 20
187.403
 11
213.797
 21
187.583
  0
LINE
  8
0
 10
213.797
 20
187.583
 11
213.373
 21
187.845
  0
LINE
  8
0
 10
213.373
 20
187.845
 11
213.005
 21
188.181
  0
LINE
  8
0
 10
213.005
 20
188.181
 11
212.704
 21
188.579
  0
LINE
  8
0
 10
212.704
 20
188.579
 11
212.482
 21
189.025
  0
LINE
  8
0
 10
212.482
 20
189.025
 11
212.346
 21
189.504
  0
LINE
  8
0
 10
212.346
 20
189.504
 11
212.3
 21
190
  0
LINE
  8
0
 10
212.3
 20
190
 11
212.346
 21
190.496
  0
LINE
  8
0
 10
212.346
 20
190.496
 11
212.482
 21
190.975
  0
LINE
  8
0
 10
212.482
 20
190.975
 11
212.704
 21
191.421
  0
LINE
  8
0
 10
212.704
 20
191.421
 11
213.005
 21
191.819
  0
LINE
  8
0
 10
213.005
 20
191.819
 11
213.373
 21
192.155
  0
LINE
  8
0
 10
213.373
 20
192.155
 11
213.797
 21
192.417
  0
LINE
  8
0
 10
213.797
 20
192.417
 11
214.261
 21
192.597
  0
LINE
  8
0
 10
214.261
 20
192.597
 11
214.751
 21
192.688
  0
LINE
  8
0
 10
214.751
 20
192.688
 11
215.249
 21
192.688
  0
LINE
  8
0
 10
215.249
 20
192.688
 11
215.739
 21
192.597
  0
LINE
  8
0
 10
215.739
 20
192.597
 11
216.203
 21
192.417
  0
LINE
  8
0
 10
216.203
 20
192.417
 11
216.627
 21
192.155
  0
LINE
  8
0
 10
216.627
 20
192.155
 11
216.995
 21
191.819
  0
LINE
  8
0
 10
216.995
 20
191.819
 11
217.296
 21
191.421
  0
LINE
  8
0
 10
217.296
 20
191.421
 11
217.518
 21
190.975
  0
LINE
  8
0
 10
217.518
 20
190.975
 11
217.654
 21
190.496
  0
LINE
  8
0
 10
217.654
 20
190.496
 11
217.7
 21
190
  0
LINE
  8
0
 10
217.7
 20
190
 11
217.654
 21
189.504
  0
LINE
  8
0
 10
217.654
 20
189.504
 11
217.518
 21
189.025
  0
LINE
  8
0
 10
217.518
 20
189.025
 11
217.296
 21
188.579
  0
LINE
  8
0
 10
217.296
 20
188.579
 11
216.995
 21
188.181
  0
LINE
  8
0
 10
216.995
 20
188.181
 11
216.627
 21
187.845
  0
LINE
  8
0
 10
216.627
 20
187.845
 11
216.203
 21
187.583
  0
LINE
  8
0
 10
216.203
 20
187.583
 11
215.739
 21
187.403
  0
LINE
  8
0
 10
215.739
 20
187.403
 11
215.249
 21
187.312
  0
LINE
  8
0
 10
215.249
 20
187.312
 11
214.751
 21
187.312
  0
LINE
  8
0
 10
234.751
 20
187.312
 11
234.261
 21
187.403
  0
LINE
  8
0
 10
234.261
 20
187.403
 11
233.797
 21
187.583
  0
LINE
  8
0
 10
233.797
 20
187.583
 11
233.373
 21
187.845
  0
LINE
  8
0
 10
233.373
 20
187.845
 11
233.005
 21
188.181
  0
LINE
  8
0
 10
233.005
 20
188.181
 11
232.704
 21
188.579
  0
LINE
  8
0
 10
232.704
 20
188.579
 11
232.482
 21
189.025
  0
LINE
  8
0
 10
232.482
 20
189.025
 11
232.346
 21
189.504
  0
LINE
  8
0
 10
232.346
 20
189.504
 11
232.3
 21
190
  0
LINE
  8
0
 10
232.3
 20
190
 11
232.346
 21
190.496
  0
LINE
  8
0
 10
232.346
 20
190.496
 11
232.482
 21
190.975
  0
LINE
  8
0
 10
232.482
 20
190.975
 11
232.704
 21
191.421
  0
LINE
  8
0
 10
232.704
 20
191.421
 11
233.005
 21
191.819
  0
LINE
  8
0
 10
233.005
 20
191.819
 11
233.373
 21
192.155
  0
LINE
  8
0
 10
233.373
 20
192.155
 11
233.797
 21
192.417
  0
LINE
  8
0
 10
233.797
 20
192.417
 11
234.261
 21
192.597
  0
LINE
  8
0
 10
234.261
 20
192.597
 11
234.751
 21
192.688
  0
LINE
  8
0
 10
234.751
 20
192.688
 11
235.249
 21
192.688
  0
LINE
  8
0
 10
235.249
 20
192.688
 11
235.739
 21
192.597
  0
LINE
  8
0
 10
235.739
 20
192.597
 11
236.203
 21
192.417
  0
LINE
  8
0
 10
236.203
 20
192.417
 11
236.627
 21
192.155
  0
LINE
  8
0
 10
236.627
 20
192.155
 11
236.995
 21
191.819
  0
LINE
  8
0
 10
236.995
 20
191.819
 11
237.296
 21
191.421
  0
LINE
  8
0
 10
237.296
 20
191.421
 11
237.518
 21
190.975
  0
LINE
  8
0
 10
237.518
 20
190.975
 11
237.654
 21
190.496
  0
LINE
  8
0
 10
237.654
 20
190.496
 11
237.7
 21
190
  0
LINE
  8
0
 10
237.7
 20
190
 11
237.654
 21
189.504
  0
LINE
  8
0
 10
237.654
 20
189.504
 11
237.518
 21
189.025
  0
LINE
  8
0
 10
237.518
 20
189.025
 11
237.296
 21
188.579
  0
LINE
  8
0
 10
237.296
 20
188.579
 11
236.995
 21
188.181
  0
LINE
  8
0
 10
236.995
 20
188.181
 11
236.627
 21
187.845
  0
LINE
  8
0
 10
236.627
 20
187.845
 11
236.203
 21
187.583
  0
LINE
  8
0
 10
236.203
 20
187.583
 11
235.739
 21
187.403
  0
LINE
  8
0
 10
235.739
 20
187.403
 11
235.249
 21
187.312
  0
LINE
  8
0
 10
235.249
 20
187.312
 11
234.751
 21
187.312
  0
LINE
  8
0
 10
-215.249
 20
187.312
 11
-215.739
 21
187.403
  0
LINE
  8
0
 10
-215.739
 20
187.403
 11
-216.203
 21
187.583
  0
LINE
  8
0
 10
-216.203
 20
187.583
 11
-216.627
 21
187.845
  0
LINE
  8
0
 10
-216.627
 20
187.845
 11
-216.995
 21
188.181
  0
LINE
  8
0
 10
-216.995
 20
188.181
 11
-217.296
 21
188.579
  0
LINE
  8
0
 10
-217.296
 20
188.579
 11
-217.518
 21
189.025
  0
LINE
  8
0
 10
-217.518
 20
189.025
 11
-217.654
 21
189.504
  0
LINE
  8
0
 10
-217.654
 20
189.504
 11
-217.7
 21
190
  0
LINE
  8
0
 10
-217.7
 20
190
 11
-217.654
 21
190.496
  0
LINE
  8
0
 10
-217.654
 20
190.496
 11
-217.518
 21
190.975
  0
LINE
  8
0
 10
-217.518
 20
190.975
 11
-217.296
 21
191.421
  0
LINE
  8
0
 10
-217.296
 20
191.421
 11
-216.995
 21
191.819
  0
LINE
  8
0
 10
-216.995
 20
191.819
 11
-216.627
 21
192.155
  0
LINE
  8
0
 10
-216.627
 20
192.155
 11
-216.203
 21
192.417
  0
LINE
  8
0
 10
-216.203
 20
192.417
 11
-215.739
 21
192.597
  0
LINE
  8
0
 10
-215.739
 20
192.597
 11
-215.249
 21
192.688
  0
LINE
  8
0
 10
-215.249
 20
192.688
 11
-214.751
 21
192.688
  0
LINE
  8
0
 10
-214.751
 20
192.688
 11
-214.261
 21
192.597
  0
LINE
  8
0
 10
-214.261
 20
192.597
 11
-213.797
 21
192.417
  0
LINE
  8
0
 10
-213.797
 20
192.417
 11
-213.373
 21
192.155
  0
LINE
  8
0
 10
-213.373
 20
192.155
 11
-213.005
 21
191.819
  0
LINE
  8
0
 10
-213.005
 20
191.819
 11
-212.704
 21
191.421
  0
LINE
  8
0
 10
-212.704
 20
191.421
 11
-212.482
 21
190.975
  0
LINE
  8
0
 10
-212.482
 20
190.975
 11
-212.346
 21
190.496
  0
LINE
  8
0
 10
-212.346
 20
190.496
 11
-212.3
 21
190
  0
LINE
  8
0
 10
-212.3
 20
190
 11
-212.346
 21
189.504
  0
LINE
  8
0
 10
-212.346
 20
189.504
 11
-212.482
 21
189.025
  0
LINE
  8
0
 10
-212.482
 20
189.025
 11
-212.704
 21
188.579
  0
LINE
  8
0
 10
-212.704
 20
188.579
 11
-213.005
 21
188.181
  0
LINE
  8
0
 10
-213.005
 20
188.181
 11
-213.373
 21
187.845
  0
LINE
  8
0
 10
-213.373
 20
187.845
 11
-213.797
 21
187.583
  0
LINE
  8
0
 10
-213.797
 20
187.583
 11
-214.261
 21
187.403
  0
LINE
  8
0
 10
-214.261
 20
187.403
 11
-214.751
 21
187.312
  0
LINE
  8
0
 10
-214.751
 20
187.312
 11
-215.249
 21
187.312
  0
LINE
  8
0
 10
-235.249
 20
167.312
 11
-235.739
 21
167.403
  0
LINE
  8
0
 10
-235.739
 20
167.403
 11
-236.203
 21
167.583
  0
LINE
  8
0
 10
-236.203
 20
167.583
 11
-236.627
 21
167.845
  0
LINE
  8
0
 10
-236.627
 20
167.845
 11
-236.995
 21
168.181
  0
LINE
  8
0
 10
-236.995
 20
168.181
 11
-237.296
 21
168.579
  0
LINE
  8
0
 10
-237.296
 20
168.579
 11
-237.518
 21
169.025
  0
LINE
  8
0
 10
-237.518
 20
169.025
 11
-237.654
 21
169.504
  0
LINE
  8
0
 10
-237.654
 20
169.504
 11
-237.7
 21
170
  0
LINE
  8
0
 10
-237.7
 20
170
 11
-237.654
 21
170.496
  0
LINE
  8
0
 10
-237.654
 20
170.496
 11
-237.518
 21
170.975
  0
LINE
  8
0
 10
-237.518
 20
170.975
 11
-237.296
 21
171.421
  0
LINE
  8
0
 10
-237.296
 20
171.421
 11
-236.995
 21
171.819
  0
LINE
  8
0
 10
-236.995
 20
171.819
 11
-236.627
 21
172.155
  0
LINE
  8
0
 10
-236.627
 20
172.155
 11
-236.203
 21
172.417
  0
LINE
  8
0
 10
-236.203
 20
172.417
 11
-235.739
 21
172.597
  0
LINE
  8
0
 10
-235.739
 20
172.597
 11
-235.249
 21
172.688
  0
LINE
  8
0
 10
-235.249
 20
172.688
 11
-234.751
 21
172.688
  0
LINE
  8
0
 10
-234.751
 20
172.688
 11
-234.261
 21
172.597
  0
LINE
  8
0
 10
-234.261
 20
172.597
 11
-233.797
 21
172.417
  0
LINE
  8
0
 10
-233.797
 20
172.417
 11
-233.373
 21
172.155
  0
LINE
  8
0
 10
-233.373
 20
172.155
 11
-233.005
 21
171.819
  0
LINE
  8
0
 10
-233.005
 20
171.819
 11
-232.704
 21
171.421
  0
LINE
  8
0
 10
-232.704
 20
171.421
 11
-232.482
 21
170.975
  0
LINE
  8
0
 10
-232.482
 20
170.975
 11
-232.346
 21
170.496
  0
LINE
  8
0
 10
-232.346
 20
170.496
 11
-232.3
 21
170
  0
LINE
  8
0
 10
-232.3
 20
170
 11
-232.346
 21
169.504
  0
LINE
  8
0
 10
-232.346
 20
169.504
 11
-232.482
 21
169.025
  0
LINE
  8
0
 10
-232.482
 20
169.025
 11
-232.704
 21
168.579
  0
LINE
  8
0
 10
-232.704
 20
168.579
 11
-233.005
 21
168.181
  0
LINE
  8
0
 10
-233.005
 20
168.181
 11
-233.373
 21
167.845
  0
LINE
  8
0
 10
-233.373
 20
167.845
 11
-233.797
 21
167.583
  0
LINE
  8
0
 10
-233.797
 20
167.583
 11
-234.261
 21
167.403
  0
LINE
  8
0
 10
-234.261
 20
167.403
 11
-234.751
 21
167.312
  0
LINE
  8
0
 10
-234.751
 20
167.312
 11
-235.249
 21
167.312
  0
LINE
  8
0
 10
234.751
 20
167.312
 11
234.261
 21
167.403
  0
LINE
  8
0
 10
234.261
 20
167.403
 11
233.797
 21
167.583
  0
LINE
  8
0
 10
233.797
 20
167.583
 11
233.373
 21
167.845
  0
LINE
  8
0
 10
233.373
 20
167.845
 11
233.005
 21
168.181
  0
LINE
  8
0
 10
233.005
 20
168.181
 11
232.704
 21
168.579
  0
LINE
  8
0
 10
232.704
 20
168.579
 11
232.482
 21
169.025
  0
LINE
  8
0
 10
232.482
 20
169.025
 11
232.346
 21
169.504
  0
LINE
  8
0
 10
232.346
 20
169.504
 11
232.3
 21
170
  0
LINE
  8
0
 10
232.3
 20
170
 11
232.346
 21
170.496
  0
LINE
  8
0
 10
232.346
 20
170.496
 11
232.482
 21
170.975
  0
LINE
  8
0
 10
232.482
 20
170.975
 11
232.704
 21
171.421
  0
LINE
  8
0
 10
232.704
 20
171.421
 11
233.005
 21
171.819
  0
LINE
  8
0
 10
233.005
 20
171.819
 11
233.373
 21
172.155
  0
LINE
  8
0
 10
233.373
 20
172.155
 11
233.797
 21
172.417
  0
LINE
  8
0
 10
233.797
 20
172.417
 11
234.261
 21
172.597
  0
LINE
  8
0
 10
234.261
 20
172.597
 11
234.751
 21
172.688
  0
LINE
  8
0
 10
234.751
 20
172.688
 11
235.249
 21
172.688
  0
LINE
  8
0
 10
235.249
 20
172.688
 11
235.739
 21
172.597
  0
LINE
  8
0
 10
235.739
 20
172.597
 11
236.203
 21
172.417
  0
LINE
  8
0
 10
236.203
 20
172.417
 11
236.627
 21
172.155
  0
LINE
  8
0
 10
236.627
 20
172.155
 11
236.995
 21
171.819
  0
LINE
  8
0
 10
236.995
 20
171.819
 11
237.296
 21
171.421
  0
LINE
  8
0
 10
237.296
 20
171.421
 11
237.518
 21
170.975
  0
LINE
  8
0
 10
237.518
 20
170.975
 11
237.654
 21
170.496
  0
LINE
  8
0
 10
237.654
 20
170.496
 11
237.7
 21
170
  0
LINE
  8
0
 10
237.7
 20
170
 11
237.654
 21
169.504
  0
LINE
  8
0
 10
237.654
 20
169.504
 11
237.518
 21
169.025
  0
LINE
  8
0
 10
237.518
 20
169.025
 11
237.296
 21
168.579
  0
LINE
  8
0
 10
237.296
 20
168.579
 11
236.995
 21
168.181
  0
LINE
  8
0
 10
236.995
 20
168.181
 11
236.627
 21
167.845
  0
LINE
  8
0
 10
236.627
 20
167.845
 11
236.203
 21
167.583
  0
LINE
  8
0
 10
236.203
 20
167.583
 11
235.739
 21
167.403
  0
LINE
  8
0
 10
235.739
 20
167.403
 11
235.249
 21
167.312
  0
LINE
  8
0
 10
235.249
 20
167.312
 11
234.751
 21
167.312
  0
LINE
  8
0
 10
-4.50484
 20
-2.16942
 11
-4.50484
 21
2.16942
  0
LINE
  8
0
 10
-4.50484
 20
2.16942
 11
-1.11259
 21
4.87463
  0
LINE
  8
0
 10
-1.11259
 20
4.87463
 11
3.11745
 21
3.90915
  0
LINE
  8
0
 10
3.11745
 20
3.90915
 11
5
 21
0
  0
LINE
  8
0
 10
5
 20
0
 11
3.11745
 21
-3.90915
  0
LINE
  8
0
 10
3.11745
 20
-3.90915
 11
-1.11259
 21
-4.87463
  0
LINE
  8
0
 10
-1.11259
 20
-4.87463
 11
-4.50484
 21
-2.16942
  0
LINE
  8
0
 10
234.751
 20
-2.68848
 11
234.261
 21
-2.59692
  0
LINE
  8
0
 10
234.261
 20
-2.59692
 11
233.797
 21
-2.41693
  0
LINE
  8
0
 10
233.797
 20
-2.41693
 11
233.373
 21
-2.15463
  0
LINE
  8
0
 10
233.373
 20
-2.15463
 11
233.005
 21
-1.81897
  0
LINE
  8
0
 10
233.005
 20
-1.81897
 11
232.704
 21
-1.42136
  0
LINE
  8
0
 10
232.704
 20
-1.42136
 11
232.482
 21
-0.975342
  0
LINE
  8
0
 10
232.482
 20
-0.975342
 11
232.346
 21
-0.496109
  0
LINE
  8
0
 10
232.346
 20
-0.496109
 11
232.3
 21
0
  0
LINE
  8
0
 10
232.3
 20
0
 11
232.346
 21
0.496109
  0
LINE
  8
0
 10
232.346
 20
0.496109
 11
232.482
 21
0.975342
  0
LINE
  8
0
 10
232.482
 20
0.975342
 11
232.704
 21
1.42136
  0
LINE
  8
0
 10
232.704
 20
1.42136
 11
233.005
 21
1.81897
  0
LINE
  8
0
 10
233.005
 20
1.81897
 11
233.373
 21
2.15463
  0
LINE
  8
0
 10
233.373
 20
2.15463
 11
233.797
 21
2.41693
  0
LINE
  8
0
 10
233.797
 20
2.41693
 11
234.261
 21
2.59692
  0
LINE
  8
0
 10
234.261
 20
2.59692
 11
234.751
 21
2.68848
  0
LINE
  8
0
 10
234.751
 20
2.68848
 11
235.249
 21
2.68848
  0
LINE
  8
0
 10
235.249
 20
2.68848
 11
235.739
 21
2.59692
  0
LINE
  8
0
 10
235.739
 20
2.59692
 11
236.203
 21
2.41693
  0
LINE
  8
0
 10
236.203
 20
2.41693
 11
236.627
 21
2.15463
  0
LINE
  8
0
 10
236.627
 20
2.15463
 11
236.995
 21
1.81897
  0
LINE
  8
0
 10
236.995
 20
1.81897
 11
237.296
 21
1.42136
  0
LINE
  8
0
 10
237.296
 20
1.42136
 11
237.518
 21
0.975342
  0
LINE
  8
0
 10
237.518
 20
0.975342
 11
237.654
 21
0.496109
  0
LINE
  8
0
 10
237.654
 20
0.496109
 11
237.7
 21
0
  0
LINE
  8
0
 10
237.7
 20
0
 11
237.654
 21
-0.496109
  0
LINE
  8
0
 10
237.654
 20
-0.496109
 11
237.518
 21
-0.975342
  0
LINE
  8
0
 10
237.518
 20
-0.975342
 11
237.296
 21
-1.42136
  0
LINE
  8
0
 10
237.296
 20
-1.42136
 11
236.995
 21
-1.81897
  0
LINE
  8
0
 10
236.995
 20
-1.81897
 11
236.627
 21
-2.15463
  0
LINE
  8
0
 10
236.627
 20
-2.15463
 11
236.203
 21
-2.41693
  0
LINE
  8
0
 10
236.203
 20
-2.41693
 11
235.739
 21
-2.59692
  0
LINE
  8
0
 10
235.739
 20
-2.59692
 11
235.249
 21
-2.68848
  0
LINE
  8
0
 10
235.249
 20
-2.68848
 11
234.751
 21
-2.68848
  0
LINE
  8
0
 10
-235.249
 20
-2.68848
 11
-235.739
 21
-2.59692
  0
LINE
  8
0
 10
-235.739
 20
-2.59692
 11
-236.203
 21
-2.41693
  0
LINE
  8
0
 10
-236.203
 20
-2.41693
 11
-236.627
 21
-2.15463
  0
LINE
  8
0
 10
-236.627
 20
-2.15463
 11
-236.995
 21
-1.81897
  0
LINE
  8
0
 10
-236.995
 20
-1.81897
 11
-237.296
 21
-1.42136
  0
LINE
  8
0
 10
-237.296
 20
-1.42136
 11
-237.518
 21
-0.975342
  0
LINE
  8
0
 10
-237.518
 20
-0.975342
 11
-237.654
 21
-0.496109
  0
LINE
  8
0
 10
-237.654
 20
-0.496109
 11
-237.7
 21
0
  0
LINE
  8
0
 10
-237.7
 20
0
 11
-237.654
 21
0.496109
  0
LINE
  8
0
 10
-237.654
 20
0.496109
 11
-237.518
 21
0.975342
  0
LINE
  8
0
 10
-237.518
 20
0.975342
 11
-237.296
 21
1.42136
  0
LINE
  8
0
 10
-237.296
 20
1.42136
 11
-236.995
 21
1.81897
  0
LINE
  8
0
 10
-236.995
 20
1.81897
 11
-236.627
 21
2.15463
  0
LINE
  8
0
 10
-236.627
 20
2.15463
 11
-236.203
 21
2.41693
  0
LINE
  8
0
 10
-236.203
 20
2.41693
 11
-235.739
 21
2.59692
  0
LINE
  8
0
 10
-235.739
 20
2.59692
 11
-235.249
 21
2.68848
  0
LINE
  8
0
 10
-235.249
 20
2.68848
 11
-234.751
 21
2.68848
  0
LINE
  8
0
 10
-234.751
 20
2.68848
 11
-234.261
 21
2.59692
  0
LINE
  8
0
 10
-234.261
 20
2.59692
 11
-233.797
 21
2.41693
  0
LINE
  8
0
 10
-233.797
 20
2.41693
 11
-233.373
 21
2.15463
  0
LINE
  8
0
 10
-233.373
 20
2.15463
 11
-233.005
 21
1.81897
  0
LINE
  8
0
 10
-233.005
 20
1.81897
 11
-232.704
 21
1.42136
  0
LINE
  8
0
 10
-232.704
 20
1.42136
 11
-232.482
 21
0.975342
  0
LINE
  8
0
 10
-232.482
 20
0.975342
 11
-232.346
 21
0.496109
  0
LINE
  8
0
 10
-232.346
 20
0.496109
 11
-232.3
 21
0
  0
LINE
  8
0
 10
-232.3
 20
0
 11
-232.346
 21
-0.496109
  0
LINE
  8
0
 10
-232.346
 20
-0.496109
 11
-232.482
 21
-0.975342
  0
LINE
  8
0
 10
-232.482
 20
-0.975342
 11
-232.704
 21
-1.42136
  0
LINE
  8
0
 10
-232.704
 20
-1.42136
 11
-233.005
 21
-1.81897
  0
LINE
  8
0
 10
-233.005
 20
-1.81897
 11
-233.373
 21
-2.15463
  0
LINE
  8
0
 10
-233.373
 20
-2.15463
 11
-233.797
 21
-2.41693
  0
LINE
  8
0
 10
-233.797
 20
-2.41693
 11
-234.261
 21
-2.59692
  0
LINE
  8
0
 10
-234.261
 20
-2.59692
 11
-234.751
 21
-2.68848
  0
LINE
  8
0
 10
-234.751
 20
-2.68848
 11
-235.249
 21
-2.68848
  0
LINE
  8
0
 10
-235.249
 20
-172.688
 11
-235.739
 21
-172.597
  0
LINE
  8
0
 10
-235.739
 20
-172.597
 11
-236.203
 21
-172.417
  0
LINE
  8
0
 10
-236.203
 20
-172.417
 11
-236.627
 21
-172.155
  0
LINE
  8
0
 10
-236.627
 20
-172.155
 11
-236.995
 21
-171.819
  0
LINE
  8
0
 10
-236.995
 20
-171.819
 11
-237.296
 21
-171.421
  0
LINE
  8
0
 10
-237.296
 20
-171.421
 11
-237.518
 21
-170.975
  0
LINE
  8
0
 10
-237.518
 20
-170.975
 11
-237.654
 21
-170.496
  0
LINE
  8
0
 10
-237.654
 20
-170.496
 11
-237.7
 21
-170
  0
LINE
  8
0
 10
-237.7
 20
-170
 11
-237.654
 21
-169.504
  0
LINE
  8
0
 10
-237.654
 20
-169.504
 11
-237.518
 21
-169.025
  0
LINE
  8
0
 10
-237.518
 20
-169.025
 11
-237.296
 21
-168.579
  0
LINE
  8
0
 10
-237.296
 20
-168.579
 11
-236.995
 21
-168.181
  0
LINE
  8
0
 10
-236.995
 20
-168.181
 11
-236.627
 21
-167.845
  0
LINE
  8
0
 10
-236.627
 20
-167.845
 11
-236.203
 21
-167.583
  0
LINE
  8
0
 10
-236.203
 20
-167.583
 11
-235.739
 21
-167.403
  0
LINE
  8
0
 10
-235.739
 20
-167.403
 11
-235.249
 21
-167.312
  0
LINE
  8
0
 10
-235.249
 20
-167.312
 11
-234.751
 21
-167.312
  0
LINE
  8
0
 10
-234.751
 20
-167.312
 11
-234.261
 21
-167.403
  0
LINE
  8
0
 10
-234.261
 20
-167.403
 11
-233.797
 21
-167.583
  0
LINE
  8
0
 10
-233.797
 20
-167.583
 11
-233.373
 21
-167.845
  0
LINE
  8
0
 10
-233.373
 20
-167.845
 11
-233.005
 21
-168.181
  0
LINE
  8
0
 10
-233.005
 20
-168.181
 11
-232.704
 21
-168.579
  0
LINE
  8
0
 10
-232.704
 20
-168.579
 11
-232.482
 21
-169.025
  0
LINE
  8
0
 10
-232.482
 20
-169.025
 11
-232.346
 21
-169.504
  0
LINE
  8
0
 10
-232.346
 20
-169.504
 11
-232.3
 21
-170
  0
LINE
  8
0
 10
-232.3
 20
-170
 11
-232.346
 21
-170.496
  0
LINE
  8
0
 10
-232.346
 20
-170.496
 11
-232.482
 21
-170.975
  0
LINE
  8
0
 10
-232.482
 20
-170.975
 11
-232.704
 21
-171.421
  0
LINE
  8
0
 10
-232.704
 20
-171.421
 11
-233.005
 21
-171.819
  0
LINE
  8
0
 10
-233.005
 20
-171.819
 11
-233.373
 21
-172.155
  0
LINE
  8
0
 10
-233.373
 20
-172.155
 11
-233.797
 21
-172.417
  0
LINE
  8
0
 10
-233.797
 20
-172.417
 11
-234.261
 21
-172.597
  0
LINE
  8
0
 10
-234.261
 20
-172.597
 11
-234.751
 21
-172.688
  0
LINE
  8
0
 10
-234.751
 20
-172.688
 11
-235.249
 21
-172.688
  0
LINE
  8
0
 10
234.751
 20
-172.688
 11
234.261
 21
-172.597
  0
LINE
  8
0
 10
234.261
 20
-172.597
 11
233.797
 21
-172.417
  0
LINE
  8
0
 10
233.797
 20
-172.417
 11
233.373
 21
-172.155
  0
LINE
  8
0
 10
233.373
 20
-172.155
 11
233.005
 21
-171.819
  0
LINE
  8
0
 10
233.005
 20
-171.819
 11
232.704
 21
-171.421
  0
LINE
  8
0
 10
232.704
 20
-171.421
 11
232.482
 21
-170.975
  0
LINE
  8
0
 10
232.482
 20
-170.975
 11
232.346
 21
-170.496
  0
LINE
  8
0
 10
232.346
 20
-170.496
 11
232.3
 21
-170
  0
LINE
  8
0
 10
232.3
 20
-170
 11
232.346
 21
-169.504
  0
LINE
  8
0
 10
232.346
 20
-169.504
 11
232.482
 21
-169.025
  0
LINE
  8
0
 10
232.482
 20
-169.025
 11
232.704
 21
-168.579
  0
LINE
  8
0
 10
232.704
 20
-168.579
 11
233.005
 21
-168.181
  0
LINE
  8
0
 10
233.005
 20
-168.181
 11
233.373
 21
-167.845
  0
LINE
  8
0
 10
233.373
 20
-167.845
 11
233.797
 21
-167.583
  0
LINE
  8
0
 10
233.797
 20
-167.583
 11
234.261
 21
-167.403
  0
LINE
  8
0
 10
234.261
 20
-167.403
 11
234.751
 21
-167.312
  0
LINE
  8
0
 10
234.751
 20
-167.312
 11
235.249
 21
-167.312
  0
LINE
  8
0
 10
235.249
 20
-167.312
 11
235.739
 21
-167.403
  0
LINE
  8
0
 10
235.739
 20
-167.403
 11
236.203
 21
-167.583
  0
LINE
  8
0
 10
236.203
 20
-167.583
 11
236.627
 21
-167.845
  0
LINE
  8
0
 10
236.627
 20
-167.845
 11
236.995
 21
-168.181
  0
LINE
  8
0
 10
236.995
 20
-168.181
 11
237.296
 21
-168.579
  0
LINE
  8
0
 10
237.296
 20
-168.579
 11
237.518
 21
-169.025
  0
LINE
  8
0
 10
237.518
 20
-169.025
 11
237.654
 21
-169.504
  0
LINE
  8
0
 10
237.654
 20
-169.504
 11
237.7
 21
-170
  0
LINE
  8
0
 10
237.7
 20
-170
 11
237.654
 21
-170.496
  0
LINE
  8
0
 10
237.654
 20
-170.496
 11
237.518
 21
-170.975
  0
LINE
  8
0
 10
237.518
 20
-170.975
 11
237.296
 21
-171.421
  0
LINE
  8
0
 10
237.296
 20
-171.421
 11
236.995
 21
-171.819
  0
LINE
  8
0
 10
236.995
 20
-171.819
 11
236.627
 21
-172.155
  0
LINE
  8
0
 10
236.627
 20
-172.155
 11
236.203
 21
-172.417
  0
LINE
  8
0
 10
236.203
 20
-172.417
 11
235.739
 21
-172.597
  0
LINE
  8
0
 10
235.739
 20
-172.597
 11
235.249
 21
-172.688
  0
LINE
  8
0
 10
235.249
 20
-172.688
 11
234.751
 21
-172.688
  0
LINE
  8
0
 10
-242.75
 20
-196.4
 11
-242.75
 21
-183.6
  0
LINE
  8
0
 10
-242.75
 20
-183.6
 11
-242.65
 21
-183.6
  0
LINE
  8
0
 10
-242.65
 20
-183.6
 11
-239.25
 21
-187.3
  0
LINE
  8
0
 10
-239.25
 20
-187.3
 11
-239.25
 21
-192.7
  0
LINE
  8
0
 10
-239.25
 20
-192.7
 11
-242.65
 21
-196.4
  0
LINE
  8
0
 10
-242.65
 20
-196.4
 11
-242.75
 21
-196.4
  0
LINE
  8
0
 10
242.65
 20
-196.4
 11
239.25
 21
-192.7
  0
LINE
  8
0
 10
239.25
 20
-192.7
 11
239.25
 21
-187.3
  0
LINE
  8
0
 10
239.25
 20
-187.3
 11
242.65
 21
-183.6
  0
LINE
  8
0
 10
242.65
 20
-183.6
 11
242.75
 21
-183.6
  0
LINE
  8
0
 10
242.75
 20
-183.6
 11
242.75
 21
-196.4
  0
LINE
  8
0
 10
242.75
 20
-196.4
 11
242.65
 21
-196.4
  0
LINE
  8
0
 10
-235.249
 20
-192.688
 11
-235.739
 21
-192.597
  0
LINE
  8
0
 10
-235.739
 20
-192.597
 11
-236.203
 21
-192.417
  0
LINE
  8
0
 10
-236.203
 20
-192.417
 11
-236.627
 21
-192.155
  0
LINE
  8
0
 10
-236.627
 20
-192.155
 11
-236.995
 21
-191.819
  0
LINE
  8
0
 10
-236.995
 20
-191.819
 11
-237.296
 21
-191.421
  0
LINE
  8
0
 10
-237.296
 20
-191.421
 11
-237.518
 21
-190.975
  0
LINE
  8
0
 10
-237.518
 20
-190.975
 11
-237.654
 21
-190.496
  0
LINE
  8
0
 10
-237.654
 20
-190.496
 11
-237.7
 21
-190
  0
LINE
  8
0
 10
-237.7
 20
-190
 11
-237.654
 21
-189.504
  0
LINE
  8
0
 10
-237.654
 20
-189.504
 11
-237.518
 21
-189.025
  0
LINE
  8
0
 10
-237.518
 20
-189.025
 11
-237.296
 21
-188.579
  0
LINE
  8
0
 10
-237.296
 20
-188.579
 11
-236.995
 21
-188.181
  0
LINE
  8
0
 10
-236.995
 20
-188.181
 11
-236.627
 21
-187.845
  0
LINE
  8
0
 10
-236.627
 20
-187.845
 11
-236.203
 21
-187.583
  0
LINE
  8
0
 10
-236.203
 20
-187.583
 11
-235.739
 21
-187.403
  0
LINE
  8
0
 10
-235.739
 20
-187.403
 11
-235.249
 21
-187.312
  0
LINE
  8
0
 10
-235.249
 20
-187.312
 11
-234.751
 21
-187.312
  0
LINE
  8
0
 10
-234.751
 20
-187.312
 11
-234.261
 21
-187.403
  0
LINE
  8
0
 10
-234.261
 20
-187.403
 11
-233.797
 21
-187.583
  0
LINE
  8
0
 10
-233.797
 20
-187.583
 11
-233.373
 21
-187.845
  0
LINE
  8
0
 10
-233.373
 20
-187.845
 11
-233.005
 21
-188.181
  0
LINE
  8
0
 10
-233.005
 20
-188.181
 11
-232.704
 21
-188.579
  0
LINE
  8
0
 10
-232.704
 20
-188.579
 11
-232.482
 21
-189.025
  0
LINE
  8
0
 10
-232.482
 20
-189.025
 11
-232.346
 21
-189.504
  0
LINE
  8
0
 10
-232.346
 20
-189.504
 11
-232.3
 21
-190
  0
LINE
  8
0
 10
-232.3
 20
-190
 11
-232.346
 21
-190.496
  0
LINE
  8
0
 10
-232.346
 20
-190.496
 11
-232.482
 21
-190.975
  0
LINE
  8
0
 10
-232.482
 20
-190.975
 11
-232.704
 21
-191.421
  0
LINE
  8
0
 10
-232.704
 20
-191.421
 11
-233.005
 21
-191.819
  0
LINE
  8
0
 10
-233.005
 20
-191.819
 11
-233.373
 21
-192.155
  0
LINE
  8
0
 10
-233.373
 20
-192.155
 11
-233.797
 21
-192.417
  0
LINE
  8
0
 10
-233.797
 20
-192.417
 11
-234.261
 21
-192.597
  0
LINE
  8
0
 10
-234.261
 20
-192.597
 11
-234.751
 21
-192.688
  0
LINE
  8
0
 10
-234.751
 20
-192.688
 11
-235.249
 21
-192.688
  0
LINE
  8
0
 10
-215.249
 20
-192.688
 11
-215.739
 21
-192.597
  0
LINE
  8
0
 10
-215.739
 20
-192.597
 11
-216.203
 21
-192.417
  0
LINE
  8
0
 10
-216.203
 20
-192.417
 11
-216.627
 21
-192.155
  0
LINE
  8
0
 10
-216.627
 20
-192.155
 11
-216.995
 21
-191.819
  0
LINE
  8
0
 10
-216.995
 20
-191.819
 11
-217.296
 21
-191.421
  0
LINE
  8
0
 10
-217.296
 20
-191.421
 11
-217.518
 21
-190.975
  0
LINE
  8
0
 10
-217.518
 20
-190.975
 11
-217.654
 21
-190.496
  0
LINE
  8
0
 10
-217.654
 20
-190.496
 11
-217.7
 21
-190
  0
LINE
  8
0
 10
-217.7
 20
-190
 11
-217.654
 21
-189.504
  0
LINE
  8
0
 10
-217.654
 20
-189.504
 11
-217.518
 21
-189.025
  0
LINE
  8
0
 10
-217.518
 20
-189.025
 11
-217.296
 21
-188.579
  0
LINE
  8
0
 10
-217.296
 20
-188.579
 11
-216.995
 21
-188.181
  0
LINE
  8
0
 10
-216.995
 20
-188.181
 11
-216.627
 21
-187.845
  0
LINE
  8
0
 10
-216.627
 20
-187.845
 11
-216.203
 21
-187.583
  0
LINE
  8
0
 10
-216.203
 20
-187.583
 11
-215.739
 21
-187.403
  0
LINE
  8
0
 10
-215.739
 20
-187.403
 11
-215.249
 21
-187.312
  0
LINE
  8
0
 10
-215.249
 20
-187.312
 11
-214.751
 21
-187.312
  0
LINE
  8
0
 10
-214.751
 20
-187.312
 11
-214.261
 21
-187.403
  0
LINE
  8
0
 10
-214.261
 20
-187.403
 11
-213.797
 21
-187.583
  0
LINE
  8
0
 10
-213.797
 20
-187.583
 11
-213.373
 21
-187.845
  0
LINE
  8
0
 10
-213.373
 20
-187.845
 11
-213.005
 21
-188.181
  0
LINE
  8
0
 10
-213.005
 20
-188.181
 11
-212.704
 21
-188.579
  0
LINE
  8
0
 10
-212.704
 20
-188.579
 11
-212.482
 21
-189.025
  0
LINE
  8
0
 10
-212.482
 20
-189.025
 11
-212.346
 21
-189.504
  0
LINE
  8
0
 10
-212.346
 20
-189.504
 11
-212.3
 21
-190
  0
LINE
  8
0
 10
-212.3
 20
-190
 11
-212.346
 21
-190.496
  0
LINE
  8
0
 10
-212.346
 20
-190.496
 11
-212.482
 21
-190.975
  0
LINE
  8
0
 10
-212.482
 20
-190.975
 11
-212.704
 21
-191.421
  0
LINE
  8
0
 10
-212.704
 20
-191.421
 11
-213.005
 21
-191.819
  0
LINE
  8
0
 10
-213.005
 20
-191.819
 11
-213.373
 21
-192.155
  0
LINE
  8
0
 10
-213.373
 20
-192.155
 11
-213.797
 21
-192.417
  0
LINE
  8
0
 10
-213.797
 20
-192.417
 11
-214.261
 21
-192.597
  0
LINE
  8
0
 10
-214.261
 20
-192.597
 11
-214.751
 21
-192.688
  0
LINE
  8
0
 10
-214.751
 20
-192.688
 11
-215.249
 21
-192.688
  0
LINE
  8
0
 10
-0.249115
 20
-192.688
 11
-0.738876
 21
-192.597
  0
LINE
  8
0
 10
-0.738876
 20
-192.597
 11
-1.20349
 21
-192.417
  0
LINE
  8
0
 10
-1.20349
 20
-192.417
 11
-1.62711
 21
-192.155
  0
LINE
  8
0
 10
-1.62711
 20
-192.155
 11
-1.99532
 21
-191.819
  0
LINE
  8
0
 10
-1.99532
 20
-191.819
 11
-2.29558
 21
-191.421
  0
LINE
  8
0
 10
-2.29558
 20
-191.421
 11
-2.51767
 21
-190.975
  0
LINE
  8
0
 10
-2.51767
 20
-190.975
 11
-2.65402
 21
-190.496
  0
LINE
  8
0
 10
-2.65402
 20
-190.496
 11
-2.7
 21
-190
  0
LINE
  8
0
 10
-2.7
 20
-190
 11
-2.65402
 21
-189.504
  0
LINE
  8
0
 10
-2.65402
 20
-189.504
 11
-2.51767
 21
-189.025
  0
LINE
  8
0
 10
-2.51767
 20
-189.025
 11
-2.29558
 21
-188.579
  0
LINE
  8
0
 10
-2.29558
 20
-188.579
 11
-1.99532
 21
-188.181
  0
LINE
  8
0
 10
-1.99532
 20
-188.181
 11
-1.62711
 21
-187.845
  0
LINE
  8
0
 10
-1.62711
 20
-187.845
 11
-1.20349
 21
-187.583
  0
LINE
  8
0
 10
-1.20349
 20
-187.583
 11
-0.738876
 21
-187.403
  0
LINE
  8
0
 10
-0.738876
 20
-187.403
 11
-0.249115
 21
-187.312
  0
LINE
  8
0
 10
-0.249115
 20
-187.312
 11
0.249115
 21
-187.312
  0
LINE
  8
0
 10
0.249115
 20
-187.312
 11
0.738876
 21
-187.403
  0
LINE
  8
0
 10
0.738876
 20
-187.403
 11
1.20349
 21
-187.583
  0
LINE
  8
0
 10
1.20349
 20
-187.583
 11
1.62711
 21
-187.845
  0
LINE
  8
0
 10
1.62711
 20
-187.845
 11
1.99532
 21
-188.181
  0
LINE
  8
0
 10
1.99532
 20
-188.181
 11
2.29558
 21
-188.579
  0
LINE
  8
0
 10
2.29558
 20
-188.579
 11
2.51767
 21
-189.025
  0
LINE
  8
0
 10
2.51767
 20
-189.025
 11
2.65402
 21
-189.504
  0
LINE
  8
0
 10
2.65402
 20
-189.504
 11
2.7
 21
-190
  0
LINE
  8
0
 10
2.7
 20
-190
 11
2.65402
 21
-190.496
  0
LINE
  8
0
 10
2.65402
 20
-190.496
 11
2.51767
 21
-190.975
  0
LINE
  8
0
 10
2.51767
 20
-190.975
 11
2.29558
 21
-191.421
  0
LINE
  8
0
 10
2.29558
 20
-191.421
 11
1.99532
 21
-191.819
  0
LINE
  8
0
 10
1.99532
 20
-191.819
 11
1.62711
 21
-192.155
  0
LINE
  8
0
 10
1.62711
 20
-192.155
 11
1.20349
 21
-192.417
  0
LINE
  8
0
 10
1.20349
 20
-192.417
 11
0.738876
 21
-192.597
  0
LINE
  8
0
 10
0.738876
 20
-192.597
 11
0.249115
 21
-192.688
  0
LINE
  8
0
 10
0.249115
 20
-192.688
 11
-0.249115
 21
-192.688
  0
LINE
  8
0
 10
234.751
 20
-192.688
 11
234.261
 21
-192.597
  0
LINE
  8
0
 10
234.261
 20
-192.597
 11
233.797
 21
-192.417
  0
LINE
  8
0
 10
233.797
 20
-192.417
 11
233.373
 21
-192.155
  0
LINE
  8
0
 10
233.373
 20
-192.155
 11
233.005
 21
-191.819
  0
LINE
  8
0
 10
233.005
 20
-191.819
 11
232.704
 21
-191.421
  0
LINE
  8
0
 10
232.704
 20
-191.421
 11
232.482
 21
-190.975
  0
LINE
  8
0
 10
232.482
 20
-190.975
 11
232.346
 21
-190.496
  0
LINE
  8
0
 10
232.346
 20
-190.496
 11
232.3
 21
-190
  0
LINE
  8
0
 10
232.3
 20
-190
 11
232.346
 21
-189.504
  0
LINE
  8
0
 10
232.346
 20
-189.504
 11
232.482
 21
-189.025
  0
LINE
  8
0
 10
232.482
 20
-189.025
 11
232.704
 21
-188.579
  0
LINE
  8
0
 10
232.704
 20
-188.579
 11
233.005
 21
-188.181
  0
LINE
  8
0
 10
233.005
 20
-188.181
 11
233.373
 21
-187.845
  0
LINE
  8
0
 10
233.373
 20
-187.845
 11
233.797
 21
-187.583
  0
LINE
  8
0
 10
233.797
 20
-187.583
 11
234.261
 21
-187.403
  0
LINE
  8
0
 10
234.261
 20
-187.403
 11
234.751
 21
-187.312
  0
LINE
  8
0
 10
234.751
 20
-187.312
 11
235.249
 21
-187.312
  0
LINE
  8
0
 10
235.249
 20
-187.312
 11
235.739
 21
-187.403
  0
LINE
  8
0
 10
235.739
 20
-187.403
 11
236.203
 21
-187.583
  0
LINE
  8
0
 10
236.203
 20
-187.583
 11
236.627
 21
-187.845
  0
LINE
  8
0
 10
236.627
 20
-187.845
 11
236.995
 21
-188.181
  0
LINE
  8
0
 10
236.995
 20
-188.181
 11
237.296
 21
-188.579
  0
LINE
  8
0
 10
237.296
 20
-188.579
 11
237.518
 21
-189.025
  0
LINE
  8
0
 10
237.518
 20
-189.025
 11
237.654
 21
-189.504
  0
LINE
  8
0
 10
237.654
 20
-189.504
 11
237.7
 21
-190
  0
LINE
  8
0
 10
237.7
 20
-190
 11
237.654
 21
-190.496
  0
LINE
  8
0
 10
237.654
 20
-190.496
 11
237.518
 21
-190.975
  0
LINE
  8
0
 10
237.518
 20
-190.975
 11
237.296
 21
-191.421
  0
LINE
  8
0
 10
237.296
 20
-191.421
 11
236.995
 21
-191.819
  0
LINE
  8
0
 10
236.995
 20
-191.819
 11
236.627
 21
-192.155
  0
LINE
  8
0
 10
236.627
 20
-192.155
 11
236.203
 21
-192.417
  0
LINE
  8
0
 10
236.203
 20
-192.417
 11
235.739
 21
-192.597
  0
LINE
  8
0
 10
235.739
 20
-192.597
 11
235.249
 21
-192.688
  0
LINE
  8
0
 10
235.249
 20
-192.688
 11
234.751
 21
-192.688
  0
LINE
  8
0
 10
214.751
 20
-192.688
 11
214.261
 21
-192.597
  0
LINE
  8
0
 10
214.261
 20
-192.597
 11
213.797
 21
-192.417
  0
LINE
  8
0
 10
213.797
 20
-192.417
 11
213.373
 21
-192.155
  0
LINE
  8
0
 10
213.373
 20
-192.155
 11
213.005
 21
-191.819
  0
LINE
  8
0
 10
213.005
 20
-191.819
 11
212.704
 21
-191.421
  0
LINE
  8
0
 10
212.704
 20
-191.421
 11
212.482
 21
-190.975
  0
LINE
  8
0
 10
212.482
 20
-190.975
 11
212.346
 21
-190.496
  0
LINE
  8
0
 10
212.346
 20
-190.496
 11
212.3
 21
-190
  0
LINE
  8
0
 10
212.3
 20
-190
 11
212.346
 21
-189.504
  0
LINE
  8
0
 10
212.346
 20
-189.504
 11
212.482
 21
-189.025
  0
LINE
  8
0
 10
212.482
 20
-189.025
 11
212.704
 21
-188.579
  0
LINE
  8
0
 10
212.704
 20
-188.579
 11
213.005
 21
-188.181
  0
LINE
  8
0
 10
213.005
 20
-188.181
 11
213.373
 21
-187.845
  0
LINE
  8
0
 10
213.373
 20
-187.845
 11
213.797
 21
-187.583
  0
LINE
  8
0
 10
213.797
 20
-187.583
 11
214.261
 21
-187.403
  0
LINE
  8
0
 10
214.261
 20
-187.403
 11
214.751
 21
-187.312
  0
LINE
  8
0
 10
214.751
 20
-187.312
 11
215.249
 21
-187.312
  0
LINE
  8
0
 10
215.249
 20
-187.312
 11
215.739
 21
-187.403
  0
LINE
  8
0
 10
215.739
 20
-187.403
 11
216.203
 21
-187.583
  0
LINE
  8
0
 10
216.203
 20
-187.583
 11
216.627
 21
-187.845
  0
LINE
  8
0
 10
216.627
 20
-187.845
 11
216.995
 21
-188.181
  0
LINE
  8
0
 10
216.995
 20
-188.181
 11
217.296
 21
-188.579
  0
LINE
  8
0
 10
217.296
 20
-188.579
 11
217.518
 21
-189.025
  0
LINE
  8
0
 10
217.518
 20
-189.025
 11
217.654
 21
-189.504
  0
LINE
  8
0
 10
217.654
 20
-189.504
 11
217.7
 21
-190
  0
LINE
  8
0
 10
217.7
 20
-190
 11
217.654
 21
-190.496
  0
LINE
  8
0
 10
217.654
 20
-190.496
 11
217.518
 21
-190.975
  0
LINE
  8
0
 10
217.518
 20
-190.975
 11
217.296
 21
-191.421
  0
LINE
  8
0
 10
217.296
 20
-191.421
 11
216.995
 21
-191.819
  0
LINE
  8
0
 10
216.995
 20
-191.819
 11
216.627
 21
-192.155
  0
LINE
  8
0
 10
216.627
 20
-192.155
 11
216.203
 21
-192.417
  0
LINE
  8
0
 10
216.203
 20
-192.417
 11
215.739
 21
-192.597
  0
LINE
  8
0
 10
215.739
 20
-192.597
 11
215.249
 21
-192.688
  0
LINE
  8
0
 10
215.249
 20
-192.688
 11
214.751
 21
-192.688
  0
ENDSEC
  0
SECTION
  2
OBJECTS
  0
DICTIONARY
  0
ENDSEC
  0
EOF
