  0
SECTION
  2
BLOCKS
  0
ENDSEC
  0
SECTION
  2
ENTITIES
  0
LINE
  8
0
 10
-171.25
 20
-117.5
 11
-67.7087
 21
-220.1
  0
LINE
  8
0
 10
-67.7087
 20
-220.1
 11
-32.5
 21
-220.1
  0
LINE
  8
0
 10
-32.5
 20
-220.1
 11
-32.5
 21
-226.5
  0
LINE
  8
0
 10
-32.5
 20
-226.5
 11
-22.5
 21
-226.5
  0
LINE
  8
0
 10
-22.5
 20
-226.5
 11
-22.5
 21
-220.1
  0
LINE
  8
0
 10
-22.5
 20
-220.1
 11
-7.5
 21
-220.1
  0
LINE
  8
0
 10
-7.5
 20
-220.1
 11
-7.5
 21
-226.5
  0
LINE
  8
0
 10
-7.5
 20
-226.5
 11
7.5
 21
-226.5
  0
LINE
  8
0
 10
7.5
 20
-226.5
 11
7.5
 21
-220.1
  0
LINE
  8
0
 10
7.5
 20
-220.1
 11
22.5
 21
-220.1
  0
LINE
  8
0
 10
22.5
 20
-220.1
 11
22.5
 21
-226.5
  0
LINE
  8
0
 10
22.5
 20
-226.5
 11
32.5
 21
-226.5
  0
LINE
  8
0
 10
32.5
 20
-226.5
 11
32.5
 21
-220.1
  0
LINE
  8
0
 10
32.5
 20
-220.1
 11
67.7087
 21
-220.1
  0
LINE
  8
0
 10
67.7087
 20
-220.1
 11
171.25
 21
-117.5
  0
LINE
  8
0
 10
171.25
 20
-117.5
 11
171.25
 21
-116.5
  0
LINE
  8
0
 10
171.25
 20
-116.5
 11
112.5
 21
-116.5
  0
LINE
  8
0
 10
112.5
 20
-116.5
 11
112.5
 21
-147.5
  0
LINE
  8
0
 10
112.5
 20
-147.5
 11
67.5
 21
-147.5
  0
LINE
  8
0
 10
67.5
 20
-147.5
 11
67.5
 21
-116.5
  0
LINE
  8
0
 10
67.5
 20
-116.5
 11
57.5
 21
-116.5
  0
LINE
  8
0
 10
57.5
 20
-116.5
 11
57.5
 21
-147.5
  0
LINE
  8
0
 10
57.5
 20
-147.5
 11
12.5
 21
-147.5
  0
LINE
  8
0
 10
12.5
 20
-147.5
 11
12.5
 21
-116.5
  0
LINE
  8
0
 10
12.5
 20
-116.5
 11
2.5
 21
-116.5
  0
LINE
  8
0
 10
2.5
 20
-116.5
 11
2.5
 21
-158
  0
LINE
  8
0
 10
2.5
 20
-158
 11
-2.5
 21
-158
  0
LINE
  8
0
 10
-2.5
 20
-158
 11
-2.5
 21
-137.5
  0
LINE
  8
0
 10
-2.5
 20
-137.5
 11
-112.5
 21
-137.5
  0
LINE
  8
0
 10
-112.5
 20
-137.5
 11
-112.5
 21
-158
  0
LINE
  8
0
 10
-112.5
 20
-158
 11
-117.5
 21
-158
  0
LINE
  8
0
 10
-117.5
 20
-158
 11
-117.5
 21
-116.5
  0
LINE
  8
0
 10
-117.5
 20
-116.5
 11
-171.25
 21
-116.5
  0
LINE
  8
0
 10
-171.25
 20
-116.5
 11
-171.25
 21
-117.5
  0
LINE
  8
0
 10
-154.45
 20
-126.5
 11
-154.404
 21
-126.004
  0
LINE
  8
0
 10
-154.404
 20
-126.004
 11
-154.268
 21
-125.525
  0
LINE
  8
0
 10
-154.268
 20
-125.525
 11
-154.046
 21
-125.079
  0
LINE
  8
0
 10
-154.046
 20
-125.079
 11
-153.745
 21
-124.681
  0
LINE
  8
0
 10
-153.745
 20
-124.681
 11
-153.377
 21
-124.345
  0
LINE
  8
0
 10
-153.377
 20
-124.345
 11
-152.953
 21
-124.083
  0
LINE
  8
0
 10
-152.953
 20
-124.083
 11
-152.489
 21
-123.903
  0
LINE
  8
0
 10
-152.489
 20
-123.903
 11
-151.999
 21
-123.812
  0
LINE
  8
0
 10
-151.999
 20
-123.812
 11
-151.501
 21
-123.812
  0
LINE
  8
0
 10
-151.501
 20
-123.812
 11
-151.011
 21
-123.903
  0
LINE
  8
0
 10
-151.011
 20
-123.903
 11
-150.547
 21
-124.083
  0
LINE
  8
0
 10
-150.547
 20
-124.083
 11
-150.123
 21
-124.345
  0
LINE
  8
0
 10
-150.123
 20
-124.345
 11
-149.755
 21
-124.681
  0
LINE
  8
0
 10
-149.755
 20
-124.681
 11
-149.454
 21
-125.079
  0
LINE
  8
0
 10
-149.454
 20
-125.079
 11
-149.232
 21
-125.525
  0
LINE
  8
0
 10
-149.232
 20
-125.525
 11
-149.096
 21
-126.004
  0
LINE
  8
0
 10
-149.096
 20
-126.004
 11
-149.05
 21
-126.5
  0
LINE
  8
0
 10
-149.05
 20
-126.5
 11
-149.096
 21
-126.996
  0
LINE
  8
0
 10
-149.096
 20
-126.996
 11
-149.232
 21
-127.475
  0
LINE
  8
0
 10
-149.232
 20
-127.475
 11
-149.454
 21
-127.921
  0
LINE
  8
0
 10
-149.454
 20
-127.921
 11
-149.755
 21
-128.319
  0
LINE
  8
0
 10
-149.755
 20
-128.319
 11
-150.123
 21
-128.655
  0
LINE
  8
0
 10
-150.123
 20
-128.655
 11
-150.547
 21
-128.917
  0
LINE
  8
0
 10
-150.547
 20
-128.917
 11
-151.011
 21
-129.097
  0
LINE
  8
0
 10
-151.011
 20
-129.097
 11
-151.501
 21
-129.188
  0
LINE
  8
0
 10
-151.501
 20
-129.188
 11
-151.999
 21
-129.188
  0
LINE
  8
0
 10
-151.999
 20
-129.188
 11
-152.489
 21
-129.097
  0
LINE
  8
0
 10
-152.489
 20
-129.097
 11
-152.953
 21
-128.917
  0
LINE
  8
0
 10
-152.953
 20
-128.917
 11
-153.377
 21
-128.655
  0
LINE
  8
0
 10
-153.377
 20
-128.655
 11
-153.745
 21
-128.319
  0
LINE
  8
0
 10
-153.745
 20
-128.319
 11
-154.046
 21
-127.921
  0
LINE
  8
0
 10
-154.046
 20
-127.921
 11
-154.268
 21
-127.475
  0
LINE
  8
0
 10
-154.268
 20
-127.475
 11
-154.404
 21
-126.996
  0
LINE
  8
0
 10
-154.404
 20
-126.996
 11
-154.45
 21
-126.5
  0
LINE
  8
0
 10
-25
 20
-217.5
 11
-25
 21
-189.5
  0
LINE
  8
0
 10
-25
 20
-189.5
 11
19.75
 21
-189.5
  0
LINE
  8
0
 10
19.75
 20
-189.5
 11
18.5
 21
-190.75
  0
LINE
  8
0
 10
18.5
 20
-190.75
 11
21.5
 21
-193.75
  0
LINE
  8
0
 10
21.5
 20
-193.75
 11
24.5
 21
-190.75
  0
LINE
  8
0
 10
24.5
 20
-190.75
 11
23.25
 21
-189.5
  0
LINE
  8
0
 10
23.25
 20
-189.5
 11
25
 21
-189.5
  0
LINE
  8
0
 10
25
 20
-189.5
 11
25
 21
-217.5
  0
LINE
  8
0
 10
25
 20
-217.5
 11
23.25
 21
-217.5
  0
LINE
  8
0
 10
23.25
 20
-217.5
 11
24.5
 21
-216.25
  0
LINE
  8
0
 10
24.5
 20
-216.25
 11
21.5
 21
-213.25
  0
LINE
  8
0
 10
21.5
 20
-213.25
 11
18.5
 21
-216.25
  0
LINE
  8
0
 10
18.5
 20
-216.25
 11
19.75
 21
-217.5
  0
LINE
  8
0
 10
19.75
 20
-217.5
 11
-25
 21
-217.5
  0
LINE
  8
0
 10
-2.7
 20
-223.25
 11
-2.65403
 21
-222.754
  0
LINE
  8
0
 10
-2.65403
 20
-222.754
 11
-2.51767
 21
-222.275
  0
LINE
  8
0
 10
-2.51767
 20
-222.275
 11
-2.29559
 21
-221.829
  0
LINE
  8
0
 10
-2.29559
 20
-221.829
 11
-1.99532
 21
-221.431
  0
LINE
  8
0
 10
-1.99532
 20
-221.431
 11
-1.62711
 21
-221.095
  0
LINE
  8
0
 10
-1.62711
 20
-221.095
 11
-1.20349
 21
-220.833
  0
LINE
  8
0
 10
-1.20349
 20
-220.833
 11
-0.73889
 21
-220.653
  0
LINE
  8
0
 10
-0.73889
 20
-220.653
 11
-0.249125
 21
-220.562
  0
LINE
  8
0
 10
-0.249125
 20
-220.562
 11
0.249125
 21
-220.562
  0
LINE
  8
0
 10
0.249125
 20
-220.562
 11
0.73889
 21
-220.653
  0
LINE
  8
0
 10
0.73889
 20
-220.653
 11
1.20349
 21
-220.833
  0
LINE
  8
0
 10
1.20349
 20
-220.833
 11
1.62711
 21
-221.095
  0
LINE
  8
0
 10
1.62711
 20
-221.095
 11
1.99532
 21
-221.431
  0
LINE
  8
0
 10
1.99532
 20
-221.431
 11
2.29559
 21
-221.829
  0
LINE
  8
0
 10
2.29559
 20
-221.829
 11
2.51767
 21
-222.275
  0
LINE
  8
0
 10
2.51767
 20
-222.275
 11
2.65403
 21
-222.754
  0
LINE
  8
0
 10
2.65403
 20
-222.754
 11
2.7
 21
-223.25
  0
LINE
  8
0
 10
2.7
 20
-223.25
 11
2.68848
 21
-223.374
  0
LINE
  8
0
 10
2.68848
 20
-223.374
 11
2.68848
 21
-223.749
  0
LINE
  8
0
 10
2.68848
 20
-223.749
 11
2.59693
 21
-224.239
  0
LINE
  8
0
 10
2.59693
 20
-224.239
 11
2.41694
 21
-224.703
  0
LINE
  8
0
 10
2.41694
 20
-224.703
 11
2.15465
 21
-225.127
  0
LINE
  8
0
 10
2.15465
 20
-225.127
 11
1.81898
 21
-225.495
  0
LINE
  8
0
 10
1.81898
 20
-225.495
 11
1.42137
 21
-225.796
  0
LINE
  8
0
 10
1.42137
 20
-225.796
 11
0.975352
 21
-226.018
  0
LINE
  8
0
 10
0.975352
 20
-226.018
 11
0.496123
 21
-226.154
  0
LINE
  8
0
 10
0.496123
 20
-226.154
 11
-5.04041e-15
 21
-226.2
  0
LINE
  8
0
 10
-5.04041e-15
 20
-226.2
 11
-0.496123
 21
-226.154
  0
LINE
  8
0
 10
-0.496123
 20
-226.154
 11
-0.975352
 21
-226.018
  0
LINE
  8
0
 10
-0.975352
 20
-226.018
 11
-1.42137
 21
-225.796
  0
LINE
  8
0
 10
-1.42137
 20
-225.796
 11
-1.81898
 21
-225.495
  0
LINE
  8
0
 10
-1.81898
 20
-225.495
 11
-2.15465
 21
-225.127
  0
LINE
  8
0
 10
-2.15465
 20
-225.127
 11
-2.41694
 21
-224.703
  0
LINE
  8
0
 10
-2.41694
 20
-224.703
 11
-2.59693
 21
-224.239
  0
LINE
  8
0
 10
-2.59693
 20
-224.239
 11
-2.68848
 21
-223.749
  0
LINE
  8
0
 10
-2.68848
 20
-223.749
 11
-2.68848
 21
-223.374
  0
LINE
  8
0
 10
-2.68848
 20
-223.374
 11
-2.7
 21
-223.25
  0
LINE
  8
0
 10
-2.68848
 20
-183.749
 11
-2.68848
 21
-183.251
  0
LINE
  8
0
 10
-2.68848
 20
-183.251
 11
-2.59693
 21
-182.761
  0
LINE
  8
0
 10
-2.59693
 20
-182.761
 11
-2.41694
 21
-182.297
  0
LINE
  8
0
 10
-2.41694
 20
-182.297
 11
-2.15465
 21
-181.873
  0
LINE
  8
0
 10
-2.15465
 20
-181.873
 11
-1.81898
 21
-181.505
  0
LINE
  8
0
 10
-1.81898
 20
-181.505
 11
-1.42137
 21
-181.204
  0
LINE
  8
0
 10
-1.42137
 20
-181.204
 11
-0.975352
 21
-180.982
  0
LINE
  8
0
 10
-0.975352
 20
-180.982
 11
-0.496123
 21
-180.846
  0
LINE
  8
0
 10
-0.496123
 20
-180.846
 11
5.04041e-15
 21
-180.8
  0
LINE
  8
0
 10
5.04041e-15
 20
-180.8
 11
0.496123
 21
-180.846
  0
LINE
  8
0
 10
0.496123
 20
-180.846
 11
0.975352
 21
-180.982
  0
LINE
  8
0
 10
0.975352
 20
-180.982
 11
1.42137
 21
-181.204
  0
LINE
  8
0
 10
1.42137
 20
-181.204
 11
1.81898
 21
-181.505
  0
LINE
  8
0
 10
1.81898
 20
-181.505
 11
2.15465
 21
-181.873
  0
LINE
  8
0
 10
2.15465
 20
-181.873
 11
2.41694
 21
-182.297
  0
LINE
  8
0
 10
2.41694
 20
-182.297
 11
2.59693
 21
-182.761
  0
LINE
  8
0
 10
2.59693
 20
-182.761
 11
2.68848
 21
-183.251
  0
LINE
  8
0
 10
2.68848
 20
-183.251
 11
2.68848
 21
-183.749
  0
LINE
  8
0
 10
2.68848
 20
-183.749
 11
2.59693
 21
-184.239
  0
LINE
  8
0
 10
2.59693
 20
-184.239
 11
2.41694
 21
-184.703
  0
LINE
  8
0
 10
2.41694
 20
-184.703
 11
2.15465
 21
-185.127
  0
LINE
  8
0
 10
2.15465
 20
-185.127
 11
1.81898
 21
-185.495
  0
LINE
  8
0
 10
1.81898
 20
-185.495
 11
1.42137
 21
-185.796
  0
LINE
  8
0
 10
1.42137
 20
-185.796
 11
0.975352
 21
-186.018
  0
LINE
  8
0
 10
0.975352
 20
-186.018
 11
0.496123
 21
-186.154
  0
LINE
  8
0
 10
0.496123
 20
-186.154
 11
3.84137e-15
 21
-186.2
  0
LINE
  8
0
 10
3.84137e-15
 20
-186.2
 11
-0.496123
 21
-186.154
  0
LINE
  8
0
 10
-0.496123
 20
-186.154
 11
-0.975352
 21
-186.018
  0
LINE
  8
0
 10
-0.975352
 20
-186.018
 11
-1.42137
 21
-185.796
  0
LINE
  8
0
 10
-1.42137
 20
-185.796
 11
-1.81898
 21
-185.495
  0
LINE
  8
0
 10
-1.81898
 20
-185.495
 11
-2.15465
 21
-185.127
  0
LINE
  8
0
 10
-2.15465
 20
-185.127
 11
-2.41694
 21
-184.703
  0
LINE
  8
0
 10
-2.41694
 20
-184.703
 11
-2.59693
 21
-184.239
  0
LINE
  8
0
 10
-2.59693
 20
-184.239
 11
-2.68848
 21
-183.749
  0
LINE
  8
0
 10
149.05
 20
-126.5
 11
149.096
 21
-126.004
  0
LINE
  8
0
 10
149.096
 20
-126.004
 11
149.232
 21
-125.525
  0
LINE
  8
0
 10
149.232
 20
-125.525
 11
149.454
 21
-125.079
  0
LINE
  8
0
 10
149.454
 20
-125.079
 11
149.755
 21
-124.681
  0
LINE
  8
0
 10
149.755
 20
-124.681
 11
150.123
 21
-124.345
  0
LINE
  8
0
 10
150.123
 20
-124.345
 11
150.547
 21
-124.083
  0
LINE
  8
0
 10
150.547
 20
-124.083
 11
151.011
 21
-123.903
  0
LINE
  8
0
 10
151.011
 20
-123.903
 11
151.501
 21
-123.812
  0
LINE
  8
0
 10
151.501
 20
-123.812
 11
151.999
 21
-123.812
  0
LINE
  8
0
 10
151.999
 20
-123.812
 11
152.489
 21
-123.903
  0
LINE
  8
0
 10
152.489
 20
-123.903
 11
152.953
 21
-124.083
  0
LINE
  8
0
 10
152.953
 20
-124.083
 11
153.377
 21
-124.345
  0
LINE
  8
0
 10
153.377
 20
-124.345
 11
153.745
 21
-124.681
  0
LINE
  8
0
 10
153.745
 20
-124.681
 11
154.046
 21
-125.079
  0
LINE
  8
0
 10
154.046
 20
-125.079
 11
154.268
 21
-125.525
  0
LINE
  8
0
 10
154.268
 20
-125.525
 11
154.404
 21
-126.004
  0
LINE
  8
0
 10
154.404
 20
-126.004
 11
154.45
 21
-126.5
  0
LINE
  8
0
 10
154.45
 20
-126.5
 11
154.404
 21
-126.996
  0
LINE
  8
0
 10
154.404
 20
-126.996
 11
154.268
 21
-127.475
  0
LINE
  8
0
 10
154.268
 20
-127.475
 11
154.046
 21
-127.921
  0
LINE
  8
0
 10
154.046
 20
-127.921
 11
153.745
 21
-128.319
  0
LINE
  8
0
 10
153.745
 20
-128.319
 11
153.377
 21
-128.655
  0
LINE
  8
0
 10
153.377
 20
-128.655
 11
152.953
 21
-128.917
  0
LINE
  8
0
 10
152.953
 20
-128.917
 11
152.489
 21
-129.097
  0
LINE
  8
0
 10
152.489
 20
-129.097
 11
151.999
 21
-129.188
  0
LINE
  8
0
 10
151.999
 20
-129.188
 11
151.501
 21
-129.188
  0
LINE
  8
0
 10
151.501
 20
-129.188
 11
151.011
 21
-129.097
  0
LINE
  8
0
 10
151.011
 20
-129.097
 11
150.547
 21
-128.917
  0
LINE
  8
0
 10
150.547
 20
-128.917
 11
150.123
 21
-128.655
  0
LINE
  8
0
 10
150.123
 20
-128.655
 11
149.755
 21
-128.319
  0
LINE
  8
0
 10
149.755
 20
-128.319
 11
149.454
 21
-127.921
  0
LINE
  8
0
 10
149.454
 20
-127.921
 11
149.232
 21
-127.475
  0
LINE
  8
0
 10
149.232
 20
-127.475
 11
149.096
 21
-126.996
  0
LINE
  8
0
 10
149.096
 20
-126.996
 11
149.05
 21
-126.5
  0
ENDSEC
  0
SECTION
  2
OBJECTS
  0
DICTIONARY
  0
ENDSEC
  0
EOF
