  0
SECTION
  2
BLOCKS
  0
ENDSEC
  0
SECTION
  2
ENTITIES
  0
LINE
  8
0
 10
-171.25
 20
-142.5
 11
-67.7087
 21
-245.1
  0
LINE
  8
0
 10
-67.7087
 20
-245.1
 11
-32.5
 21
-245.1
  0
LINE
  8
0
 10
-32.5
 20
-245.1
 11
-32.5
 21
-251.5
  0
LINE
  8
0
 10
-32.5
 20
-251.5
 11
-22.5
 21
-251.5
  0
LINE
  8
0
 10
-22.5
 20
-251.5
 11
-22.5
 21
-245.1
  0
LINE
  8
0
 10
-22.5
 20
-245.1
 11
-7.5
 21
-245.1
  0
LINE
  8
0
 10
-7.5
 20
-245.1
 11
-7.5
 21
-251.5
  0
LINE
  8
0
 10
-7.5
 20
-251.5
 11
7.5
 21
-251.5
  0
LINE
  8
0
 10
7.5
 20
-251.5
 11
7.5
 21
-245.1
  0
LINE
  8
0
 10
7.5
 20
-245.1
 11
22.5
 21
-245.1
  0
LINE
  8
0
 10
22.5
 20
-245.1
 11
22.5
 21
-251.5
  0
LINE
  8
0
 10
22.5
 20
-251.5
 11
32.5
 21
-251.5
  0
LINE
  8
0
 10
32.5
 20
-251.5
 11
32.5
 21
-245.1
  0
LINE
  8
0
 10
32.5
 20
-245.1
 11
67.7087
 21
-245.1
  0
LINE
  8
0
 10
67.7087
 20
-245.1
 11
171.25
 21
-142.5
  0
LINE
  8
0
 10
171.25
 20
-142.5
 11
171.25
 21
-141.5
  0
LINE
  8
0
 10
171.25
 20
-141.5
 11
112.5
 21
-141.5
  0
LINE
  8
0
 10
112.5
 20
-141.5
 11
112.5
 21
-147.5
  0
LINE
  8
0
 10
112.5
 20
-147.5
 11
67.5
 21
-147.5
  0
LINE
  8
0
 10
67.5
 20
-147.5
 11
67.5
 21
-141.5
  0
LINE
  8
0
 10
67.5
 20
-141.5
 11
57.5
 21
-141.5
  0
LINE
  8
0
 10
57.5
 20
-141.5
 11
57.5
 21
-147.5
  0
LINE
  8
0
 10
57.5
 20
-147.5
 11
12.5
 21
-147.5
  0
LINE
  8
0
 10
12.5
 20
-147.5
 11
12.5
 21
-141.5
  0
LINE
  8
0
 10
12.5
 20
-141.5
 11
2.5
 21
-141.5
  0
LINE
  8
0
 10
2.5
 20
-141.5
 11
2.5
 21
-158
  0
LINE
  8
0
 10
2.5
 20
-158
 11
-2.5
 21
-158
  0
LINE
  8
0
 10
-2.5
 20
-158
 11
-2.5
 21
-141.5
  0
LINE
  8
0
 10
-2.5
 20
-141.5
 11
-112.5
 21
-141.5
  0
LINE
  8
0
 10
-112.5
 20
-141.5
 11
-112.5
 21
-158
  0
LINE
  8
0
 10
-112.5
 20
-158
 11
-117.5
 21
-158
  0
LINE
  8
0
 10
-117.5
 20
-158
 11
-117.5
 21
-141.5
  0
LINE
  8
0
 10
-117.5
 20
-141.5
 11
-171.25
 21
-141.5
  0
LINE
  8
0
 10
-171.25
 20
-141.5
 11
-171.25
 21
-142.5
  0
LINE
  8
0
 10
-154.45
 20
-151.5
 11
-154.404
 21
-151.004
  0
LINE
  8
0
 10
-154.404
 20
-151.004
 11
-154.268
 21
-150.525
  0
LINE
  8
0
 10
-154.268
 20
-150.525
 11
-154.046
 21
-150.079
  0
LINE
  8
0
 10
-154.046
 20
-150.079
 11
-153.745
 21
-149.681
  0
LINE
  8
0
 10
-153.745
 20
-149.681
 11
-153.377
 21
-149.345
  0
LINE
  8
0
 10
-153.377
 20
-149.345
 11
-152.953
 21
-149.083
  0
LINE
  8
0
 10
-152.953
 20
-149.083
 11
-152.489
 21
-148.903
  0
LINE
  8
0
 10
-152.489
 20
-148.903
 11
-151.999
 21
-148.812
  0
LINE
  8
0
 10
-151.999
 20
-148.812
 11
-151.501
 21
-148.812
  0
LINE
  8
0
 10
-151.501
 20
-148.812
 11
-151.011
 21
-148.903
  0
LINE
  8
0
 10
-151.011
 20
-148.903
 11
-150.547
 21
-149.083
  0
LINE
  8
0
 10
-150.547
 20
-149.083
 11
-150.123
 21
-149.345
  0
LINE
  8
0
 10
-150.123
 20
-149.345
 11
-149.755
 21
-149.681
  0
LINE
  8
0
 10
-149.755
 20
-149.681
 11
-149.454
 21
-150.079
  0
LINE
  8
0
 10
-149.454
 20
-150.079
 11
-149.232
 21
-150.525
  0
LINE
  8
0
 10
-149.232
 20
-150.525
 11
-149.096
 21
-151.004
  0
LINE
  8
0
 10
-149.096
 20
-151.004
 11
-149.05
 21
-151.5
  0
LINE
  8
0
 10
-149.05
 20
-151.5
 11
-149.096
 21
-151.996
  0
LINE
  8
0
 10
-149.096
 20
-151.996
 11
-149.232
 21
-152.475
  0
LINE
  8
0
 10
-149.232
 20
-152.475
 11
-149.454
 21
-152.921
  0
LINE
  8
0
 10
-149.454
 20
-152.921
 11
-149.755
 21
-153.319
  0
LINE
  8
0
 10
-149.755
 20
-153.319
 11
-150.123
 21
-153.655
  0
LINE
  8
0
 10
-150.123
 20
-153.655
 11
-150.547
 21
-153.917
  0
LINE
  8
0
 10
-150.547
 20
-153.917
 11
-151.011
 21
-154.097
  0
LINE
  8
0
 10
-151.011
 20
-154.097
 11
-151.501
 21
-154.188
  0
LINE
  8
0
 10
-151.501
 20
-154.188
 11
-151.999
 21
-154.188
  0
LINE
  8
0
 10
-151.999
 20
-154.188
 11
-152.489
 21
-154.097
  0
LINE
  8
0
 10
-152.489
 20
-154.097
 11
-152.953
 21
-153.917
  0
LINE
  8
0
 10
-152.953
 20
-153.917
 11
-153.377
 21
-153.655
  0
LINE
  8
0
 10
-153.377
 20
-153.655
 11
-153.745
 21
-153.319
  0
LINE
  8
0
 10
-153.745
 20
-153.319
 11
-154.046
 21
-152.921
  0
LINE
  8
0
 10
-154.046
 20
-152.921
 11
-154.268
 21
-152.475
  0
LINE
  8
0
 10
-154.268
 20
-152.475
 11
-154.404
 21
-151.996
  0
LINE
  8
0
 10
-154.404
 20
-151.996
 11
-154.45
 21
-151.5
  0
LINE
  8
0
 10
-25
 20
-242.5
 11
-25
 21
-214.5
  0
LINE
  8
0
 10
-25
 20
-214.5
 11
19.75
 21
-214.5
  0
LINE
  8
0
 10
19.75
 20
-214.5
 11
18.5
 21
-215.75
  0
LINE
  8
0
 10
18.5
 20
-215.75
 11
21.5
 21
-218.75
  0
LINE
  8
0
 10
21.5
 20
-218.75
 11
24.5
 21
-215.75
  0
LINE
  8
0
 10
24.5
 20
-215.75
 11
23.25
 21
-214.5
  0
LINE
  8
0
 10
23.25
 20
-214.5
 11
25
 21
-214.5
  0
LINE
  8
0
 10
25
 20
-214.5
 11
25
 21
-242.5
  0
LINE
  8
0
 10
25
 20
-242.5
 11
23.25
 21
-242.5
  0
LINE
  8
0
 10
23.25
 20
-242.5
 11
24.5
 21
-241.25
  0
LINE
  8
0
 10
24.5
 20
-241.25
 11
21.5
 21
-238.25
  0
LINE
  8
0
 10
21.5
 20
-238.25
 11
18.5
 21
-241.25
  0
LINE
  8
0
 10
18.5
 20
-241.25
 11
19.75
 21
-242.5
  0
LINE
  8
0
 10
19.75
 20
-242.5
 11
-25
 21
-242.5
  0
LINE
  8
0
 10
-2.7
 20
-248.25
 11
-2.65403
 21
-247.754
  0
LINE
  8
0
 10
-2.65403
 20
-247.754
 11
-2.51767
 21
-247.275
  0
LINE
  8
0
 10
-2.51767
 20
-247.275
 11
-2.29559
 21
-246.829
  0
LINE
  8
0
 10
-2.29559
 20
-246.829
 11
-1.99532
 21
-246.431
  0
LINE
  8
0
 10
-1.99532
 20
-246.431
 11
-1.62711
 21
-246.095
  0
LINE
  8
0
 10
-1.62711
 20
-246.095
 11
-1.20349
 21
-245.833
  0
LINE
  8
0
 10
-1.20349
 20
-245.833
 11
-0.73889
 21
-245.653
  0
LINE
  8
0
 10
-0.73889
 20
-245.653
 11
-0.249125
 21
-245.562
  0
LINE
  8
0
 10
-0.249125
 20
-245.562
 11
0.249125
 21
-245.562
  0
LINE
  8
0
 10
0.249125
 20
-245.562
 11
0.73889
 21
-245.653
  0
LINE
  8
0
 10
0.73889
 20
-245.653
 11
1.20349
 21
-245.833
  0
LINE
  8
0
 10
1.20349
 20
-245.833
 11
1.62711
 21
-246.095
  0
LINE
  8
0
 10
1.62711
 20
-246.095
 11
1.99532
 21
-246.431
  0
LINE
  8
0
 10
1.99532
 20
-246.431
 11
2.29559
 21
-246.829
  0
LINE
  8
0
 10
2.29559
 20
-246.829
 11
2.51767
 21
-247.275
  0
LINE
  8
0
 10
2.51767
 20
-247.275
 11
2.65403
 21
-247.754
  0
LINE
  8
0
 10
2.65403
 20
-247.754
 11
2.7
 21
-248.25
  0
LINE
  8
0
 10
2.7
 20
-248.25
 11
2.68848
 21
-248.374
  0
LINE
  8
0
 10
2.68848
 20
-248.374
 11
2.68848
 21
-248.749
  0
LINE
  8
0
 10
2.68848
 20
-248.749
 11
2.59693
 21
-249.239
  0
LINE
  8
0
 10
2.59693
 20
-249.239
 11
2.41694
 21
-249.703
  0
LINE
  8
0
 10
2.41694
 20
-249.703
 11
2.15465
 21
-250.127
  0
LINE
  8
0
 10
2.15465
 20
-250.127
 11
1.81898
 21
-250.495
  0
LINE
  8
0
 10
1.81898
 20
-250.495
 11
1.42137
 21
-250.796
  0
LINE
  8
0
 10
1.42137
 20
-250.796
 11
0.975352
 21
-251.018
  0
LINE
  8
0
 10
0.975352
 20
-251.018
 11
0.496123
 21
-251.154
  0
LINE
  8
0
 10
0.496123
 20
-251.154
 11
-5.04041e-15
 21
-251.2
  0
LINE
  8
0
 10
-5.04041e-15
 20
-251.2
 11
-0.496123
 21
-251.154
  0
LINE
  8
0
 10
-0.496123
 20
-251.154
 11
-0.975352
 21
-251.018
  0
LINE
  8
0
 10
-0.975352
 20
-251.018
 11
-1.42137
 21
-250.796
  0
LINE
  8
0
 10
-1.42137
 20
-250.796
 11
-1.81898
 21
-250.495
  0
LINE
  8
0
 10
-1.81898
 20
-250.495
 11
-2.15465
 21
-250.127
  0
LINE
  8
0
 10
-2.15465
 20
-250.127
 11
-2.41694
 21
-249.703
  0
LINE
  8
0
 10
-2.41694
 20
-249.703
 11
-2.59693
 21
-249.239
  0
LINE
  8
0
 10
-2.59693
 20
-249.239
 11
-2.68848
 21
-248.749
  0
LINE
  8
0
 10
-2.68848
 20
-248.749
 11
-2.68848
 21
-248.374
  0
LINE
  8
0
 10
-2.68848
 20
-248.374
 11
-2.7
 21
-248.25
  0
LINE
  8
0
 10
-2.68848
 20
-208.749
 11
-2.68848
 21
-208.251
  0
LINE
  8
0
 10
-2.68848
 20
-208.251
 11
-2.59693
 21
-207.761
  0
LINE
  8
0
 10
-2.59693
 20
-207.761
 11
-2.41694
 21
-207.297
  0
LINE
  8
0
 10
-2.41694
 20
-207.297
 11
-2.15465
 21
-206.873
  0
LINE
  8
0
 10
-2.15465
 20
-206.873
 11
-1.81898
 21
-206.505
  0
LINE
  8
0
 10
-1.81898
 20
-206.505
 11
-1.42137
 21
-206.204
  0
LINE
  8
0
 10
-1.42137
 20
-206.204
 11
-0.975352
 21
-205.982
  0
LINE
  8
0
 10
-0.975352
 20
-205.982
 11
-0.496123
 21
-205.846
  0
LINE
  8
0
 10
-0.496123
 20
-205.846
 11
5.04041e-15
 21
-205.8
  0
LINE
  8
0
 10
5.04041e-15
 20
-205.8
 11
0.496123
 21
-205.846
  0
LINE
  8
0
 10
0.496123
 20
-205.846
 11
0.975352
 21
-205.982
  0
LINE
  8
0
 10
0.975352
 20
-205.982
 11
1.42137
 21
-206.204
  0
LINE
  8
0
 10
1.42137
 20
-206.204
 11
1.81898
 21
-206.505
  0
LINE
  8
0
 10
1.81898
 20
-206.505
 11
2.15465
 21
-206.873
  0
LINE
  8
0
 10
2.15465
 20
-206.873
 11
2.41694
 21
-207.297
  0
LINE
  8
0
 10
2.41694
 20
-207.297
 11
2.59693
 21
-207.761
  0
LINE
  8
0
 10
2.59693
 20
-207.761
 11
2.68848
 21
-208.251
  0
LINE
  8
0
 10
2.68848
 20
-208.251
 11
2.68848
 21
-208.749
  0
LINE
  8
0
 10
2.68848
 20
-208.749
 11
2.59693
 21
-209.239
  0
LINE
  8
0
 10
2.59693
 20
-209.239
 11
2.41694
 21
-209.703
  0
LINE
  8
0
 10
2.41694
 20
-209.703
 11
2.15465
 21
-210.127
  0
LINE
  8
0
 10
2.15465
 20
-210.127
 11
1.81898
 21
-210.495
  0
LINE
  8
0
 10
1.81898
 20
-210.495
 11
1.42137
 21
-210.796
  0
LINE
  8
0
 10
1.42137
 20
-210.796
 11
0.975352
 21
-211.018
  0
LINE
  8
0
 10
0.975352
 20
-211.018
 11
0.496123
 21
-211.154
  0
LINE
  8
0
 10
0.496123
 20
-211.154
 11
3.84137e-15
 21
-211.2
  0
LINE
  8
0
 10
3.84137e-15
 20
-211.2
 11
-0.496123
 21
-211.154
  0
LINE
  8
0
 10
-0.496123
 20
-211.154
 11
-0.975352
 21
-211.018
  0
LINE
  8
0
 10
-0.975352
 20
-211.018
 11
-1.42137
 21
-210.796
  0
LINE
  8
0
 10
-1.42137
 20
-210.796
 11
-1.81898
 21
-210.495
  0
LINE
  8
0
 10
-1.81898
 20
-210.495
 11
-2.15465
 21
-210.127
  0
LINE
  8
0
 10
-2.15465
 20
-210.127
 11
-2.41694
 21
-209.703
  0
LINE
  8
0
 10
-2.41694
 20
-209.703
 11
-2.59693
 21
-209.239
  0
LINE
  8
0
 10
-2.59693
 20
-209.239
 11
-2.68848
 21
-208.749
  0
LINE
  8
0
 10
149.05
 20
-151.5
 11
149.096
 21
-151.004
  0
LINE
  8
0
 10
149.096
 20
-151.004
 11
149.232
 21
-150.525
  0
LINE
  8
0
 10
149.232
 20
-150.525
 11
149.454
 21
-150.079
  0
LINE
  8
0
 10
149.454
 20
-150.079
 11
149.755
 21
-149.681
  0
LINE
  8
0
 10
149.755
 20
-149.681
 11
150.123
 21
-149.345
  0
LINE
  8
0
 10
150.123
 20
-149.345
 11
150.547
 21
-149.083
  0
LINE
  8
0
 10
150.547
 20
-149.083
 11
151.011
 21
-148.903
  0
LINE
  8
0
 10
151.011
 20
-148.903
 11
151.501
 21
-148.812
  0
LINE
  8
0
 10
151.501
 20
-148.812
 11
151.999
 21
-148.812
  0
LINE
  8
0
 10
151.999
 20
-148.812
 11
152.489
 21
-148.903
  0
LINE
  8
0
 10
152.489
 20
-148.903
 11
152.953
 21
-149.083
  0
LINE
  8
0
 10
152.953
 20
-149.083
 11
153.377
 21
-149.345
  0
LINE
  8
0
 10
153.377
 20
-149.345
 11
153.745
 21
-149.681
  0
LINE
  8
0
 10
153.745
 20
-149.681
 11
154.046
 21
-150.079
  0
LINE
  8
0
 10
154.046
 20
-150.079
 11
154.268
 21
-150.525
  0
LINE
  8
0
 10
154.268
 20
-150.525
 11
154.404
 21
-151.004
  0
LINE
  8
0
 10
154.404
 20
-151.004
 11
154.45
 21
-151.5
  0
LINE
  8
0
 10
154.45
 20
-151.5
 11
154.404
 21
-151.996
  0
LINE
  8
0
 10
154.404
 20
-151.996
 11
154.268
 21
-152.475
  0
LINE
  8
0
 10
154.268
 20
-152.475
 11
154.046
 21
-152.921
  0
LINE
  8
0
 10
154.046
 20
-152.921
 11
153.745
 21
-153.319
  0
LINE
  8
0
 10
153.745
 20
-153.319
 11
153.377
 21
-153.655
  0
LINE
  8
0
 10
153.377
 20
-153.655
 11
152.953
 21
-153.917
  0
LINE
  8
0
 10
152.953
 20
-153.917
 11
152.489
 21
-154.097
  0
LINE
  8
0
 10
152.489
 20
-154.097
 11
151.999
 21
-154.188
  0
LINE
  8
0
 10
151.999
 20
-154.188
 11
151.501
 21
-154.188
  0
LINE
  8
0
 10
151.501
 20
-154.188
 11
151.011
 21
-154.097
  0
LINE
  8
0
 10
151.011
 20
-154.097
 11
150.547
 21
-153.917
  0
LINE
  8
0
 10
150.547
 20
-153.917
 11
150.123
 21
-153.655
  0
LINE
  8
0
 10
150.123
 20
-153.655
 11
149.755
 21
-153.319
  0
LINE
  8
0
 10
149.755
 20
-153.319
 11
149.454
 21
-152.921
  0
LINE
  8
0
 10
149.454
 20
-152.921
 11
149.232
 21
-152.475
  0
LINE
  8
0
 10
149.232
 20
-152.475
 11
149.096
 21
-151.996
  0
LINE
  8
0
 10
149.096
 20
-151.996
 11
149.05
 21
-151.5
  0
ENDSEC
  0
SECTION
  2
OBJECTS
  0
DICTIONARY
  0
ENDSEC
  0
EOF
