  0
SECTION
  2
BLOCKS
  0
ENDSEC
  0
SECTION
  2
ENTITIES
  0
LINE
  8
0
 10
-194.526
 20
-126.5
 11
-187.036
 21
-133.99
  0
LINE
  8
0
 10
-187.036
 20
-133.99
 11
-186.797
 21
-134.083
  0
LINE
  8
0
 10
-186.797
 20
-134.083
 11
-186.373
 21
-134.345
  0
LINE
  8
0
 10
-186.373
 20
-134.345
 11
-186.005
 21
-134.681
  0
LINE
  8
0
 10
-186.005
 20
-134.681
 11
-185.704
 21
-135.079
  0
LINE
  8
0
 10
-185.704
 20
-135.079
 11
-185.482
 21
-135.525
  0
LINE
  8
0
 10
-185.482
 20
-135.525
 11
-185.475
 21
-135.552
  0
LINE
  8
0
 10
-185.475
 20
-135.552
 11
-100.926
 21
-220.1
  0
LINE
  8
0
 10
-100.926
 20
-220.1
 11
-32.5
 21
-220.1
  0
LINE
  8
0
 10
-32.5
 20
-220.1
 11
-32.5
 21
-226.5
  0
LINE
  8
0
 10
-32.5
 20
-226.5
 11
-22.5
 21
-226.5
  0
LINE
  8
0
 10
-22.5
 20
-226.5
 11
-22.5
 21
-220.1
  0
LINE
  8
0
 10
-22.5
 20
-220.1
 11
-7.5
 21
-220.1
  0
LINE
  8
0
 10
-7.5
 20
-220.1
 11
-7.5
 21
-226.5
  0
LINE
  8
0
 10
-7.5
 20
-226.5
 11
7.5
 21
-226.5
  0
LINE
  8
0
 10
7.5
 20
-226.5
 11
7.5
 21
-220.1
  0
LINE
  8
0
 10
7.5
 20
-220.1
 11
22.5
 21
-220.1
  0
LINE
  8
0
 10
22.5
 20
-220.1
 11
22.5
 21
-226.5
  0
LINE
  8
0
 10
22.5
 20
-226.5
 11
32.5
 21
-226.5
  0
LINE
  8
0
 10
32.5
 20
-226.5
 11
32.5
 21
-220.1
  0
LINE
  8
0
 10
32.5
 20
-220.1
 11
100.926
 21
-220.1
  0
LINE
  8
0
 10
100.926
 20
-220.1
 11
185.475
 21
-135.552
  0
LINE
  8
0
 10
185.475
 20
-135.552
 11
185.482
 21
-135.525
  0
LINE
  8
0
 10
185.482
 20
-135.525
 11
185.704
 21
-135.079
  0
LINE
  8
0
 10
185.704
 20
-135.079
 11
186.005
 21
-134.681
  0
LINE
  8
0
 10
186.005
 20
-134.681
 11
186.373
 21
-134.345
  0
LINE
  8
0
 10
186.373
 20
-134.345
 11
186.797
 21
-134.083
  0
LINE
  8
0
 10
186.797
 20
-134.083
 11
187.036
 21
-133.99
  0
LINE
  8
0
 10
187.036
 20
-133.99
 11
194.526
 21
-126.5
  0
LINE
  8
0
 10
194.526
 20
-126.5
 11
112.5
 21
-126.5
  0
LINE
  8
0
 10
112.5
 20
-126.5
 11
112.5
 21
-147.5
  0
LINE
  8
0
 10
112.5
 20
-147.5
 11
67.5
 21
-147.5
  0
LINE
  8
0
 10
67.5
 20
-147.5
 11
67.5
 21
-126.5
  0
LINE
  8
0
 10
67.5
 20
-126.5
 11
57.5
 21
-126.5
  0
LINE
  8
0
 10
57.5
 20
-126.5
 11
57.5
 21
-147.5
  0
LINE
  8
0
 10
57.5
 20
-147.5
 11
12.5
 21
-147.5
  0
LINE
  8
0
 10
12.5
 20
-147.5
 11
12.5
 21
-126.5
  0
LINE
  8
0
 10
12.5
 20
-126.5
 11
-7.5
 21
-126.5
  0
LINE
  8
0
 10
-7.5
 20
-126.5
 11
-7.5
 21
-158
  0
LINE
  8
0
 10
-7.5
 20
-158
 11
-12.5
 21
-158
  0
LINE
  8
0
 10
-12.5
 20
-158
 11
-12.5
 21
-137.5
  0
LINE
  8
0
 10
-12.5
 20
-137.5
 11
-122.5
 21
-137.5
  0
LINE
  8
0
 10
-122.5
 20
-137.5
 11
-122.5
 21
-158
  0
LINE
  8
0
 10
-122.5
 20
-158
 11
-127.5
 21
-158
  0
LINE
  8
0
 10
-127.5
 20
-158
 11
-127.5
 21
-126.5
  0
LINE
  8
0
 10
-127.5
 20
-126.5
 11
-194.526
 21
-126.5
  0
LINE
  8
0
 10
-160.735
 20
-157.11
 11
-154.724
 21
-151.1
  0
LINE
  8
0
 10
-154.724
 20
-151.1
 11
-151.1
 21
-154.724
  0
LINE
  8
0
 10
-151.1
 20
-154.724
 11
-157.11
 21
-160.735
  0
LINE
  8
0
 10
-157.11
 20
-160.735
 11
-160.735
 21
-157.11
  0
LINE
  8
0
 10
-25
 20
-217.5
 11
-25
 21
-189.5
  0
LINE
  8
0
 10
-25
 20
-189.5
 11
21
 21
-189.5
  0
LINE
  8
0
 10
21
 20
-189.5
 11
20
 21
-190.5
  0
LINE
  8
0
 10
20
 20
-190.5
 11
24
 21
-194.5
  0
LINE
  8
0
 10
24
 20
-194.5
 11
25
 21
-193.5
  0
LINE
  8
0
 10
25
 20
-193.5
 11
25
 21
-213.5
  0
LINE
  8
0
 10
25
 20
-213.5
 11
24
 21
-212.5
  0
LINE
  8
0
 10
24
 20
-212.5
 11
20
 21
-216.5
  0
LINE
  8
0
 10
20
 20
-216.5
 11
21
 21
-217.5
  0
LINE
  8
0
 10
21
 20
-217.5
 11
-25
 21
-217.5
  0
LINE
  8
0
 10
-2.7
 20
-223.25
 11
-2.65403
 21
-222.754
  0
LINE
  8
0
 10
-2.65403
 20
-222.754
 11
-2.51767
 21
-222.275
  0
LINE
  8
0
 10
-2.51767
 20
-222.275
 11
-2.29559
 21
-221.829
  0
LINE
  8
0
 10
-2.29559
 20
-221.829
 11
-1.99532
 21
-221.431
  0
LINE
  8
0
 10
-1.99532
 20
-221.431
 11
-1.62711
 21
-221.095
  0
LINE
  8
0
 10
-1.62711
 20
-221.095
 11
-1.20349
 21
-220.833
  0
LINE
  8
0
 10
-1.20349
 20
-220.833
 11
-0.73889
 21
-220.653
  0
LINE
  8
0
 10
-0.73889
 20
-220.653
 11
-0.249125
 21
-220.562
  0
LINE
  8
0
 10
-0.249125
 20
-220.562
 11
0.249125
 21
-220.562
  0
LINE
  8
0
 10
0.249125
 20
-220.562
 11
0.73889
 21
-220.653
  0
LINE
  8
0
 10
0.73889
 20
-220.653
 11
1.20349
 21
-220.833
  0
LINE
  8
0
 10
1.20349
 20
-220.833
 11
1.62711
 21
-221.095
  0
LINE
  8
0
 10
1.62711
 20
-221.095
 11
1.99532
 21
-221.431
  0
LINE
  8
0
 10
1.99532
 20
-221.431
 11
2.29559
 21
-221.829
  0
LINE
  8
0
 10
2.29559
 20
-221.829
 11
2.51767
 21
-222.275
  0
LINE
  8
0
 10
2.51767
 20
-222.275
 11
2.65403
 21
-222.754
  0
LINE
  8
0
 10
2.65403
 20
-222.754
 11
2.7
 21
-223.25
  0
LINE
  8
0
 10
2.7
 20
-223.25
 11
2.68848
 21
-223.374
  0
LINE
  8
0
 10
2.68848
 20
-223.374
 11
2.68848
 21
-223.749
  0
LINE
  8
0
 10
2.68848
 20
-223.749
 11
2.59693
 21
-224.239
  0
LINE
  8
0
 10
2.59693
 20
-224.239
 11
2.41694
 21
-224.703
  0
LINE
  8
0
 10
2.41694
 20
-224.703
 11
2.15465
 21
-225.127
  0
LINE
  8
0
 10
2.15465
 20
-225.127
 11
1.81898
 21
-225.495
  0
LINE
  8
0
 10
1.81898
 20
-225.495
 11
1.42137
 21
-225.796
  0
LINE
  8
0
 10
1.42137
 20
-225.796
 11
0.975352
 21
-226.018
  0
LINE
  8
0
 10
0.975352
 20
-226.018
 11
0.496123
 21
-226.154
  0
LINE
  8
0
 10
0.496123
 20
-226.154
 11
-5.04041e-15
 21
-226.2
  0
LINE
  8
0
 10
-5.04041e-15
 20
-226.2
 11
-0.496123
 21
-226.154
  0
LINE
  8
0
 10
-0.496123
 20
-226.154
 11
-0.975352
 21
-226.018
  0
LINE
  8
0
 10
-0.975352
 20
-226.018
 11
-1.42137
 21
-225.796
  0
LINE
  8
0
 10
-1.42137
 20
-225.796
 11
-1.81898
 21
-225.495
  0
LINE
  8
0
 10
-1.81898
 20
-225.495
 11
-2.15465
 21
-225.127
  0
LINE
  8
0
 10
-2.15465
 20
-225.127
 11
-2.41694
 21
-224.703
  0
LINE
  8
0
 10
-2.41694
 20
-224.703
 11
-2.59693
 21
-224.239
  0
LINE
  8
0
 10
-2.59693
 20
-224.239
 11
-2.68848
 21
-223.749
  0
LINE
  8
0
 10
-2.68848
 20
-223.749
 11
-2.68848
 21
-223.374
  0
LINE
  8
0
 10
-2.68848
 20
-223.374
 11
-2.7
 21
-223.25
  0
LINE
  8
0
 10
-2.68848
 20
-183.749
 11
-2.68848
 21
-183.251
  0
LINE
  8
0
 10
-2.68848
 20
-183.251
 11
-2.59693
 21
-182.761
  0
LINE
  8
0
 10
-2.59693
 20
-182.761
 11
-2.41694
 21
-182.297
  0
LINE
  8
0
 10
-2.41694
 20
-182.297
 11
-2.15465
 21
-181.873
  0
LINE
  8
0
 10
-2.15465
 20
-181.873
 11
-1.81898
 21
-181.505
  0
LINE
  8
0
 10
-1.81898
 20
-181.505
 11
-1.42137
 21
-181.204
  0
LINE
  8
0
 10
-1.42137
 20
-181.204
 11
-0.975352
 21
-180.982
  0
LINE
  8
0
 10
-0.975352
 20
-180.982
 11
-0.496123
 21
-180.846
  0
LINE
  8
0
 10
-0.496123
 20
-180.846
 11
5.04041e-15
 21
-180.8
  0
LINE
  8
0
 10
5.04041e-15
 20
-180.8
 11
0.496123
 21
-180.846
  0
LINE
  8
0
 10
0.496123
 20
-180.846
 11
0.975352
 21
-180.982
  0
LINE
  8
0
 10
0.975352
 20
-180.982
 11
1.42137
 21
-181.204
  0
LINE
  8
0
 10
1.42137
 20
-181.204
 11
1.81898
 21
-181.505
  0
LINE
  8
0
 10
1.81898
 20
-181.505
 11
2.15465
 21
-181.873
  0
LINE
  8
0
 10
2.15465
 20
-181.873
 11
2.41694
 21
-182.297
  0
LINE
  8
0
 10
2.41694
 20
-182.297
 11
2.59693
 21
-182.761
  0
LINE
  8
0
 10
2.59693
 20
-182.761
 11
2.68848
 21
-183.251
  0
LINE
  8
0
 10
2.68848
 20
-183.251
 11
2.68848
 21
-183.749
  0
LINE
  8
0
 10
2.68848
 20
-183.749
 11
2.59693
 21
-184.239
  0
LINE
  8
0
 10
2.59693
 20
-184.239
 11
2.41694
 21
-184.703
  0
LINE
  8
0
 10
2.41694
 20
-184.703
 11
2.15465
 21
-185.127
  0
LINE
  8
0
 10
2.15465
 20
-185.127
 11
1.81898
 21
-185.495
  0
LINE
  8
0
 10
1.81898
 20
-185.495
 11
1.42137
 21
-185.796
  0
LINE
  8
0
 10
1.42137
 20
-185.796
 11
0.975352
 21
-186.018
  0
LINE
  8
0
 10
0.975352
 20
-186.018
 11
0.496123
 21
-186.154
  0
LINE
  8
0
 10
0.496123
 20
-186.154
 11
3.84137e-15
 21
-186.2
  0
LINE
  8
0
 10
3.84137e-15
 20
-186.2
 11
-0.496123
 21
-186.154
  0
LINE
  8
0
 10
-0.496123
 20
-186.154
 11
-0.975352
 21
-186.018
  0
LINE
  8
0
 10
-0.975352
 20
-186.018
 11
-1.42137
 21
-185.796
  0
LINE
  8
0
 10
-1.42137
 20
-185.796
 11
-1.81898
 21
-185.495
  0
LINE
  8
0
 10
-1.81898
 20
-185.495
 11
-2.15465
 21
-185.127
  0
LINE
  8
0
 10
-2.15465
 20
-185.127
 11
-2.41694
 21
-184.703
  0
LINE
  8
0
 10
-2.41694
 20
-184.703
 11
-2.59693
 21
-184.239
  0
LINE
  8
0
 10
-2.59693
 20
-184.239
 11
-2.68848
 21
-183.749
  0
LINE
  8
0
 10
151.1
 20
-154.724
 11
154.724
 21
-151.1
  0
LINE
  8
0
 10
154.724
 20
-151.1
 11
160.735
 21
-157.11
  0
LINE
  8
0
 10
160.735
 20
-157.11
 11
157.11
 21
-160.735
  0
LINE
  8
0
 10
157.11
 20
-160.735
 11
151.1
 21
-154.724
  0
ENDSEC
  0
SECTION
  2
OBJECTS
  0
DICTIONARY
  0
ENDSEC
  0
EOF
