  0
SECTION
  2
BLOCKS
  0
ENDSEC
  0
SECTION
  2
ENTITIES
  0
LINE
  8
0
 10
-171.25
 20
-102.5
 11
-117.5
 21
-155.761
  0
LINE
  8
0
 10
-117.5
 20
-155.761
 11
-117.5
 21
-101.5
  0
LINE
  8
0
 10
-117.5
 20
-101.5
 11
-171.25
 21
-101.5
  0
LINE
  8
0
 10
-171.25
 20
-101.5
 11
-171.25
 21
-102.5
  0
LINE
  8
0
 10
-154.45
 20
-111.5
 11
-154.404
 21
-111.004
  0
LINE
  8
0
 10
-154.404
 20
-111.004
 11
-154.268
 21
-110.525
  0
LINE
  8
0
 10
-154.268
 20
-110.525
 11
-154.046
 21
-110.079
  0
LINE
  8
0
 10
-154.046
 20
-110.079
 11
-153.745
 21
-109.681
  0
LINE
  8
0
 10
-153.745
 20
-109.681
 11
-153.377
 21
-109.345
  0
LINE
  8
0
 10
-153.377
 20
-109.345
 11
-152.953
 21
-109.083
  0
LINE
  8
0
 10
-152.953
 20
-109.083
 11
-152.489
 21
-108.903
  0
LINE
  8
0
 10
-152.489
 20
-108.903
 11
-151.999
 21
-108.812
  0
LINE
  8
0
 10
-151.999
 20
-108.812
 11
-151.501
 21
-108.812
  0
LINE
  8
0
 10
-151.501
 20
-108.812
 11
-151.011
 21
-108.903
  0
LINE
  8
0
 10
-151.011
 20
-108.903
 11
-150.547
 21
-109.083
  0
LINE
  8
0
 10
-150.547
 20
-109.083
 11
-150.123
 21
-109.345
  0
LINE
  8
0
 10
-150.123
 20
-109.345
 11
-149.755
 21
-109.681
  0
LINE
  8
0
 10
-149.755
 20
-109.681
 11
-149.454
 21
-110.079
  0
LINE
  8
0
 10
-149.454
 20
-110.079
 11
-149.232
 21
-110.525
  0
LINE
  8
0
 10
-149.232
 20
-110.525
 11
-149.096
 21
-111.004
  0
LINE
  8
0
 10
-149.096
 20
-111.004
 11
-149.05
 21
-111.5
  0
LINE
  8
0
 10
-149.05
 20
-111.5
 11
-149.096
 21
-111.996
  0
LINE
  8
0
 10
-149.096
 20
-111.996
 11
-149.232
 21
-112.475
  0
LINE
  8
0
 10
-149.232
 20
-112.475
 11
-149.454
 21
-112.921
  0
LINE
  8
0
 10
-149.454
 20
-112.921
 11
-149.755
 21
-113.319
  0
LINE
  8
0
 10
-149.755
 20
-113.319
 11
-150.123
 21
-113.655
  0
LINE
  8
0
 10
-150.123
 20
-113.655
 11
-150.547
 21
-113.917
  0
LINE
  8
0
 10
-150.547
 20
-113.917
 11
-151.011
 21
-114.097
  0
LINE
  8
0
 10
-151.011
 20
-114.097
 11
-151.501
 21
-114.188
  0
LINE
  8
0
 10
-151.501
 20
-114.188
 11
-151.999
 21
-114.188
  0
LINE
  8
0
 10
-151.999
 20
-114.188
 11
-152.489
 21
-114.097
  0
LINE
  8
0
 10
-152.489
 20
-114.097
 11
-152.953
 21
-113.917
  0
LINE
  8
0
 10
-152.953
 20
-113.917
 11
-153.377
 21
-113.655
  0
LINE
  8
0
 10
-153.377
 20
-113.655
 11
-153.745
 21
-113.319
  0
LINE
  8
0
 10
-153.745
 20
-113.319
 11
-154.046
 21
-112.921
  0
LINE
  8
0
 10
-154.046
 20
-112.921
 11
-154.268
 21
-112.475
  0
LINE
  8
0
 10
-154.268
 20
-112.475
 11
-154.404
 21
-111.996
  0
LINE
  8
0
 10
-154.404
 20
-111.996
 11
-154.45
 21
-111.5
  0
LINE
  8
0
 10
-115.241
 20
-158
 11
-67.7087
 21
-205.1
  0
LINE
  8
0
 10
-67.7087
 20
-205.1
 11
-32.5
 21
-205.1
  0
LINE
  8
0
 10
-32.5
 20
-205.1
 11
-32.5
 21
-211.5
  0
LINE
  8
0
 10
-32.5
 20
-211.5
 11
-22.5
 21
-211.5
  0
LINE
  8
0
 10
-22.5
 20
-211.5
 11
-22.5
 21
-205.1
  0
LINE
  8
0
 10
-22.5
 20
-205.1
 11
-7.5
 21
-205.1
  0
LINE
  8
0
 10
-7.5
 20
-205.1
 11
-7.5
 21
-211.5
  0
LINE
  8
0
 10
-7.5
 20
-211.5
 11
7.5
 21
-211.5
  0
LINE
  8
0
 10
7.5
 20
-211.5
 11
7.5
 21
-205.1
  0
LINE
  8
0
 10
7.5
 20
-205.1
 11
22.5
 21
-205.1
  0
LINE
  8
0
 10
22.5
 20
-205.1
 11
22.5
 21
-211.5
  0
LINE
  8
0
 10
22.5
 20
-211.5
 11
32.5
 21
-211.5
  0
LINE
  8
0
 10
32.5
 20
-211.5
 11
32.5
 21
-205.1
  0
LINE
  8
0
 10
32.5
 20
-205.1
 11
67.7087
 21
-205.1
  0
LINE
  8
0
 10
67.7087
 20
-205.1
 11
171.25
 21
-102.5
  0
LINE
  8
0
 10
171.25
 20
-102.5
 11
171.25
 21
-101.5
  0
LINE
  8
0
 10
171.25
 20
-101.5
 11
112.5
 21
-101.5
  0
LINE
  8
0
 10
112.5
 20
-101.5
 11
112.5
 21
-147.5
  0
LINE
  8
0
 10
112.5
 20
-147.5
 11
67.5
 21
-147.5
  0
LINE
  8
0
 10
67.5
 20
-147.5
 11
67.5
 21
-101.5
  0
LINE
  8
0
 10
67.5
 20
-101.5
 11
57.5
 21
-101.5
  0
LINE
  8
0
 10
57.5
 20
-101.5
 11
57.5
 21
-147.5
  0
LINE
  8
0
 10
57.5
 20
-147.5
 11
12.5
 21
-147.5
  0
LINE
  8
0
 10
12.5
 20
-147.5
 11
12.5
 21
-101.5
  0
LINE
  8
0
 10
12.5
 20
-101.5
 11
2.5
 21
-101.5
  0
LINE
  8
0
 10
2.5
 20
-101.5
 11
2.5
 21
-158
  0
LINE
  8
0
 10
2.5
 20
-158
 11
-2.5
 21
-158
  0
LINE
  8
0
 10
-2.5
 20
-158
 11
-2.5
 21
-137.5
  0
LINE
  8
0
 10
-2.5
 20
-137.5
 11
-112.5
 21
-137.5
  0
LINE
  8
0
 10
-112.5
 20
-137.5
 11
-112.5
 21
-158
  0
LINE
  8
0
 10
-112.5
 20
-158
 11
-115.241
 21
-158
  0
LINE
  8
0
 10
-25
 20
-202.5
 11
-25
 21
-174.5
  0
LINE
  8
0
 10
-25
 20
-174.5
 11
19.75
 21
-174.5
  0
LINE
  8
0
 10
19.75
 20
-174.5
 11
18.5
 21
-175.75
  0
LINE
  8
0
 10
18.5
 20
-175.75
 11
21.5
 21
-178.75
  0
LINE
  8
0
 10
21.5
 20
-178.75
 11
24.5
 21
-175.75
  0
LINE
  8
0
 10
24.5
 20
-175.75
 11
23.25
 21
-174.5
  0
LINE
  8
0
 10
23.25
 20
-174.5
 11
25
 21
-174.5
  0
LINE
  8
0
 10
25
 20
-174.5
 11
25
 21
-202.5
  0
LINE
  8
0
 10
25
 20
-202.5
 11
23.25
 21
-202.5
  0
LINE
  8
0
 10
23.25
 20
-202.5
 11
24.5
 21
-201.25
  0
LINE
  8
0
 10
24.5
 20
-201.25
 11
21.5
 21
-198.25
  0
LINE
  8
0
 10
21.5
 20
-198.25
 11
18.5
 21
-201.25
  0
LINE
  8
0
 10
18.5
 20
-201.25
 11
19.75
 21
-202.5
  0
LINE
  8
0
 10
19.75
 20
-202.5
 11
-25
 21
-202.5
  0
LINE
  8
0
 10
-2.7
 20
-208.25
 11
-2.65403
 21
-207.754
  0
LINE
  8
0
 10
-2.65403
 20
-207.754
 11
-2.51767
 21
-207.275
  0
LINE
  8
0
 10
-2.51767
 20
-207.275
 11
-2.29559
 21
-206.829
  0
LINE
  8
0
 10
-2.29559
 20
-206.829
 11
-1.99532
 21
-206.431
  0
LINE
  8
0
 10
-1.99532
 20
-206.431
 11
-1.62711
 21
-206.095
  0
LINE
  8
0
 10
-1.62711
 20
-206.095
 11
-1.20349
 21
-205.833
  0
LINE
  8
0
 10
-1.20349
 20
-205.833
 11
-0.73889
 21
-205.653
  0
LINE
  8
0
 10
-0.73889
 20
-205.653
 11
-0.249125
 21
-205.562
  0
LINE
  8
0
 10
-0.249125
 20
-205.562
 11
0.249125
 21
-205.562
  0
LINE
  8
0
 10
0.249125
 20
-205.562
 11
0.73889
 21
-205.653
  0
LINE
  8
0
 10
0.73889
 20
-205.653
 11
1.20349
 21
-205.833
  0
LINE
  8
0
 10
1.20349
 20
-205.833
 11
1.62711
 21
-206.095
  0
LINE
  8
0
 10
1.62711
 20
-206.095
 11
1.99532
 21
-206.431
  0
LINE
  8
0
 10
1.99532
 20
-206.431
 11
2.29559
 21
-206.829
  0
LINE
  8
0
 10
2.29559
 20
-206.829
 11
2.51767
 21
-207.275
  0
LINE
  8
0
 10
2.51767
 20
-207.275
 11
2.65403
 21
-207.754
  0
LINE
  8
0
 10
2.65403
 20
-207.754
 11
2.7
 21
-208.25
  0
LINE
  8
0
 10
2.7
 20
-208.25
 11
2.68848
 21
-208.374
  0
LINE
  8
0
 10
2.68848
 20
-208.374
 11
2.68848
 21
-208.749
  0
LINE
  8
0
 10
2.68848
 20
-208.749
 11
2.59693
 21
-209.239
  0
LINE
  8
0
 10
2.59693
 20
-209.239
 11
2.41694
 21
-209.703
  0
LINE
  8
0
 10
2.41694
 20
-209.703
 11
2.15465
 21
-210.127
  0
LINE
  8
0
 10
2.15465
 20
-210.127
 11
1.81898
 21
-210.495
  0
LINE
  8
0
 10
1.81898
 20
-210.495
 11
1.42137
 21
-210.796
  0
LINE
  8
0
 10
1.42137
 20
-210.796
 11
0.975352
 21
-211.018
  0
LINE
  8
0
 10
0.975352
 20
-211.018
 11
0.496123
 21
-211.154
  0
LINE
  8
0
 10
0.496123
 20
-211.154
 11
-5.04041e-15
 21
-211.2
  0
LINE
  8
0
 10
-5.04041e-15
 20
-211.2
 11
-0.496123
 21
-211.154
  0
LINE
  8
0
 10
-0.496123
 20
-211.154
 11
-0.975352
 21
-211.018
  0
LINE
  8
0
 10
-0.975352
 20
-211.018
 11
-1.42137
 21
-210.796
  0
LINE
  8
0
 10
-1.42137
 20
-210.796
 11
-1.81898
 21
-210.495
  0
LINE
  8
0
 10
-1.81898
 20
-210.495
 11
-2.15465
 21
-210.127
  0
LINE
  8
0
 10
-2.15465
 20
-210.127
 11
-2.41694
 21
-209.703
  0
LINE
  8
0
 10
-2.41694
 20
-209.703
 11
-2.59693
 21
-209.239
  0
LINE
  8
0
 10
-2.59693
 20
-209.239
 11
-2.68848
 21
-208.749
  0
LINE
  8
0
 10
-2.68848
 20
-208.749
 11
-2.68848
 21
-208.374
  0
LINE
  8
0
 10
-2.68848
 20
-208.374
 11
-2.7
 21
-208.25
  0
LINE
  8
0
 10
-2.68848
 20
-168.749
 11
-2.68848
 21
-168.251
  0
LINE
  8
0
 10
-2.68848
 20
-168.251
 11
-2.59693
 21
-167.761
  0
LINE
  8
0
 10
-2.59693
 20
-167.761
 11
-2.41694
 21
-167.297
  0
LINE
  8
0
 10
-2.41694
 20
-167.297
 11
-2.15465
 21
-166.873
  0
LINE
  8
0
 10
-2.15465
 20
-166.873
 11
-1.81898
 21
-166.505
  0
LINE
  8
0
 10
-1.81898
 20
-166.505
 11
-1.42137
 21
-166.204
  0
LINE
  8
0
 10
-1.42137
 20
-166.204
 11
-0.975352
 21
-165.982
  0
LINE
  8
0
 10
-0.975352
 20
-165.982
 11
-0.496123
 21
-165.846
  0
LINE
  8
0
 10
-0.496123
 20
-165.846
 11
5.04041e-15
 21
-165.8
  0
LINE
  8
0
 10
5.04041e-15
 20
-165.8
 11
0.496123
 21
-165.846
  0
LINE
  8
0
 10
0.496123
 20
-165.846
 11
0.975352
 21
-165.982
  0
LINE
  8
0
 10
0.975352
 20
-165.982
 11
1.42137
 21
-166.204
  0
LINE
  8
0
 10
1.42137
 20
-166.204
 11
1.81898
 21
-166.505
  0
LINE
  8
0
 10
1.81898
 20
-166.505
 11
2.15465
 21
-166.873
  0
LINE
  8
0
 10
2.15465
 20
-166.873
 11
2.41694
 21
-167.297
  0
LINE
  8
0
 10
2.41694
 20
-167.297
 11
2.59693
 21
-167.761
  0
LINE
  8
0
 10
2.59693
 20
-167.761
 11
2.68848
 21
-168.251
  0
LINE
  8
0
 10
2.68848
 20
-168.251
 11
2.68848
 21
-168.749
  0
LINE
  8
0
 10
2.68848
 20
-168.749
 11
2.59693
 21
-169.239
  0
LINE
  8
0
 10
2.59693
 20
-169.239
 11
2.41694
 21
-169.703
  0
LINE
  8
0
 10
2.41694
 20
-169.703
 11
2.15465
 21
-170.127
  0
LINE
  8
0
 10
2.15465
 20
-170.127
 11
1.81898
 21
-170.495
  0
LINE
  8
0
 10
1.81898
 20
-170.495
 11
1.42137
 21
-170.796
  0
LINE
  8
0
 10
1.42137
 20
-170.796
 11
0.975352
 21
-171.018
  0
LINE
  8
0
 10
0.975352
 20
-171.018
 11
0.496123
 21
-171.154
  0
LINE
  8
0
 10
0.496123
 20
-171.154
 11
3.84137e-15
 21
-171.2
  0
LINE
  8
0
 10
3.84137e-15
 20
-171.2
 11
-0.496123
 21
-171.154
  0
LINE
  8
0
 10
-0.496123
 20
-171.154
 11
-0.975352
 21
-171.018
  0
LINE
  8
0
 10
-0.975352
 20
-171.018
 11
-1.42137
 21
-170.796
  0
LINE
  8
0
 10
-1.42137
 20
-170.796
 11
-1.81898
 21
-170.495
  0
LINE
  8
0
 10
-1.81898
 20
-170.495
 11
-2.15465
 21
-170.127
  0
LINE
  8
0
 10
-2.15465
 20
-170.127
 11
-2.41694
 21
-169.703
  0
LINE
  8
0
 10
-2.41694
 20
-169.703
 11
-2.59693
 21
-169.239
  0
LINE
  8
0
 10
-2.59693
 20
-169.239
 11
-2.68848
 21
-168.749
  0
LINE
  8
0
 10
149.05
 20
-111.5
 11
149.096
 21
-111.004
  0
LINE
  8
0
 10
149.096
 20
-111.004
 11
149.232
 21
-110.525
  0
LINE
  8
0
 10
149.232
 20
-110.525
 11
149.454
 21
-110.079
  0
LINE
  8
0
 10
149.454
 20
-110.079
 11
149.755
 21
-109.681
  0
LINE
  8
0
 10
149.755
 20
-109.681
 11
150.123
 21
-109.345
  0
LINE
  8
0
 10
150.123
 20
-109.345
 11
150.547
 21
-109.083
  0
LINE
  8
0
 10
150.547
 20
-109.083
 11
151.011
 21
-108.903
  0
LINE
  8
0
 10
151.011
 20
-108.903
 11
151.501
 21
-108.812
  0
LINE
  8
0
 10
151.501
 20
-108.812
 11
151.999
 21
-108.812
  0
LINE
  8
0
 10
151.999
 20
-108.812
 11
152.489
 21
-108.903
  0
LINE
  8
0
 10
152.489
 20
-108.903
 11
152.953
 21
-109.083
  0
LINE
  8
0
 10
152.953
 20
-109.083
 11
153.377
 21
-109.345
  0
LINE
  8
0
 10
153.377
 20
-109.345
 11
153.745
 21
-109.681
  0
LINE
  8
0
 10
153.745
 20
-109.681
 11
154.046
 21
-110.079
  0
LINE
  8
0
 10
154.046
 20
-110.079
 11
154.268
 21
-110.525
  0
LINE
  8
0
 10
154.268
 20
-110.525
 11
154.404
 21
-111.004
  0
LINE
  8
0
 10
154.404
 20
-111.004
 11
154.45
 21
-111.5
  0
LINE
  8
0
 10
154.45
 20
-111.5
 11
154.404
 21
-111.996
  0
LINE
  8
0
 10
154.404
 20
-111.996
 11
154.268
 21
-112.475
  0
LINE
  8
0
 10
154.268
 20
-112.475
 11
154.046
 21
-112.921
  0
LINE
  8
0
 10
154.046
 20
-112.921
 11
153.745
 21
-113.319
  0
LINE
  8
0
 10
153.745
 20
-113.319
 11
153.377
 21
-113.655
  0
LINE
  8
0
 10
153.377
 20
-113.655
 11
152.953
 21
-113.917
  0
LINE
  8
0
 10
152.953
 20
-113.917
 11
152.489
 21
-114.097
  0
LINE
  8
0
 10
152.489
 20
-114.097
 11
151.999
 21
-114.188
  0
LINE
  8
0
 10
151.999
 20
-114.188
 11
151.501
 21
-114.188
  0
LINE
  8
0
 10
151.501
 20
-114.188
 11
151.011
 21
-114.097
  0
LINE
  8
0
 10
151.011
 20
-114.097
 11
150.547
 21
-113.917
  0
LINE
  8
0
 10
150.547
 20
-113.917
 11
150.123
 21
-113.655
  0
LINE
  8
0
 10
150.123
 20
-113.655
 11
149.755
 21
-113.319
  0
LINE
  8
0
 10
149.755
 20
-113.319
 11
149.454
 21
-112.921
  0
LINE
  8
0
 10
149.454
 20
-112.921
 11
149.232
 21
-112.475
  0
LINE
  8
0
 10
149.232
 20
-112.475
 11
149.096
 21
-111.996
  0
LINE
  8
0
 10
149.096
 20
-111.996
 11
149.05
 21
-111.5
  0
ENDSEC
  0
SECTION
  2
OBJECTS
  0
DICTIONARY
  0
ENDSEC
  0
EOF
