  0
SECTION
  2
BLOCKS
  0
ENDSEC
  0
SECTION
  2
ENTITIES
  0
LINE
  8
0
 10
-152.5
 20
-224.875
 11
-152.5
 21
-220
  0
LINE
  8
0
 10
-152.5
 20
-220
 11
-147.563
 21
-220
  0
LINE
  8
0
 10
-147.563
 20
-220
 11
-147.563
 21
-212.938
  0
LINE
  8
0
 10
-147.563
 20
-212.938
 11
-149.7
 21
-212.938
  0
LINE
  8
0
 10
-149.7
 20
-212.938
 11
-149.7
 21
-207.562
  0
LINE
  8
0
 10
-149.7
 20
-207.562
 11
-147.563
 21
-207.562
  0
LINE
  8
0
 10
-147.563
 20
-207.562
 11
-147.563
 21
-206.188
  0
LINE
  8
0
 10
-147.563
 20
-206.188
 11
-142.437
 21
-206.188
  0
LINE
  8
0
 10
-142.437
 20
-206.188
 11
-142.437
 21
-207.562
  0
LINE
  8
0
 10
-142.437
 20
-207.562
 11
-140.3
 21
-207.562
  0
LINE
  8
0
 10
-140.3
 20
-207.562
 11
-140.3
 21
-212.938
  0
LINE
  8
0
 10
-140.3
 20
-212.938
 11
-142.437
 21
-212.938
  0
LINE
  8
0
 10
-142.437
 20
-212.938
 11
-142.437
 21
-220
  0
LINE
  8
0
 10
-142.437
 20
-220
 11
-137.5
 21
-220
  0
LINE
  8
0
 10
-137.5
 20
-220
 11
-137.5
 21
-224.875
  0
LINE
  8
0
 10
-137.5
 20
-224.875
 11
-135.875
 21
-226.5
  0
LINE
  8
0
 10
-135.875
 20
-226.5
 11
-124.125
 21
-226.5
  0
LINE
  8
0
 10
-124.125
 20
-226.5
 11
-122.5
 21
-224.875
  0
LINE
  8
0
 10
-122.5
 20
-224.875
 11
-122.5
 21
-220
  0
LINE
  8
0
 10
-122.5
 20
-220
 11
-22.5
 21
-220
  0
LINE
  8
0
 10
-22.5
 20
-220
 11
-22.5
 21
-224.875
  0
LINE
  8
0
 10
-22.5
 20
-224.875
 11
-20.875
 21
-226.5
  0
LINE
  8
0
 10
-20.875
 20
-226.5
 11
-9.125
 21
-226.5
  0
LINE
  8
0
 10
-9.125
 20
-226.5
 11
-7.5
 21
-224.875
  0
LINE
  8
0
 10
-7.5
 20
-224.875
 11
-7.5
 21
-220
  0
LINE
  8
0
 10
-7.5
 20
-220
 11
-2.56299
 21
-220
  0
LINE
  8
0
 10
-2.56299
 20
-220
 11
-2.56299
 21
-212.938
  0
LINE
  8
0
 10
-2.56299
 20
-212.938
 11
-4.7
 21
-212.938
  0
LINE
  8
0
 10
-4.7
 20
-212.938
 11
-4.7
 21
-207.562
  0
LINE
  8
0
 10
-4.7
 20
-207.562
 11
-2.56299
 21
-207.562
  0
LINE
  8
0
 10
-2.56299
 20
-207.562
 11
-2.56299
 21
-206.188
  0
LINE
  8
0
 10
-2.56299
 20
-206.188
 11
2.56299
 21
-206.188
  0
LINE
  8
0
 10
2.56299
 20
-206.188
 11
2.56299
 21
-207.562
  0
LINE
  8
0
 10
2.56299
 20
-207.562
 11
4.7
 21
-207.562
  0
LINE
  8
0
 10
4.7
 20
-207.562
 11
4.7
 21
-212.938
  0
LINE
  8
0
 10
4.7
 20
-212.938
 11
2.56299
 21
-212.938
  0
LINE
  8
0
 10
2.56299
 20
-212.938
 11
2.56299
 21
-220
  0
LINE
  8
0
 10
2.56299
 20
-220
 11
7.5
 21
-220
  0
LINE
  8
0
 10
7.5
 20
-220
 11
7.5
 21
-224.875
  0
LINE
  8
0
 10
7.5
 20
-224.875
 11
9.125
 21
-226.5
  0
LINE
  8
0
 10
9.125
 20
-226.5
 11
20.875
 21
-226.5
  0
LINE
  8
0
 10
20.875
 20
-226.5
 11
22.5
 21
-224.875
  0
LINE
  8
0
 10
22.5
 20
-224.875
 11
22.5
 21
-220
  0
LINE
  8
0
 10
22.5
 20
-220
 11
122.5
 21
-220
  0
LINE
  8
0
 10
122.5
 20
-220
 11
122.5
 21
-224.875
  0
LINE
  8
0
 10
122.5
 20
-224.875
 11
124.125
 21
-226.5
  0
LINE
  8
0
 10
124.125
 20
-226.5
 11
135.875
 21
-226.5
  0
LINE
  8
0
 10
135.875
 20
-226.5
 11
137.5
 21
-224.875
  0
LINE
  8
0
 10
137.5
 20
-224.875
 11
137.5
 21
-220
  0
LINE
  8
0
 10
137.5
 20
-220
 11
142.437
 21
-220
  0
LINE
  8
0
 10
142.437
 20
-220
 11
142.437
 21
-212.938
  0
LINE
  8
0
 10
142.437
 20
-212.938
 11
140.3
 21
-212.938
  0
LINE
  8
0
 10
140.3
 20
-212.938
 11
140.3
 21
-207.562
  0
LINE
  8
0
 10
140.3
 20
-207.562
 11
142.437
 21
-207.562
  0
LINE
  8
0
 10
142.437
 20
-207.562
 11
142.437
 21
-206.188
  0
LINE
  8
0
 10
142.437
 20
-206.188
 11
147.563
 21
-206.188
  0
LINE
  8
0
 10
147.563
 20
-206.188
 11
147.563
 21
-207.562
  0
LINE
  8
0
 10
147.563
 20
-207.562
 11
149.7
 21
-207.562
  0
LINE
  8
0
 10
149.7
 20
-207.562
 11
149.7
 21
-212.938
  0
LINE
  8
0
 10
149.7
 20
-212.938
 11
147.563
 21
-212.938
  0
LINE
  8
0
 10
147.563
 20
-212.938
 11
147.563
 21
-220
  0
LINE
  8
0
 10
147.563
 20
-220
 11
152.5
 21
-220
  0
LINE
  8
0
 10
152.5
 20
-220
 11
152.5
 21
-224.875
  0
LINE
  8
0
 10
152.5
 20
-224.875
 11
154.125
 21
-226.5
  0
LINE
  8
0
 10
154.125
 20
-226.5
 11
165.875
 21
-226.5
  0
LINE
  8
0
 10
165.875
 20
-226.5
 11
167.5
 21
-224.875
  0
LINE
  8
0
 10
167.5
 20
-224.875
 11
167.5
 21
-220
  0
LINE
  8
0
 10
167.5
 20
-220
 11
225
 21
-220
  0
LINE
  8
0
 10
225
 20
-220
 11
225
 21
-180
  0
LINE
  8
0
 10
225
 20
-180
 11
245
 21
-180
  0
LINE
  8
0
 10
245
 20
-180
 11
245
 21
-142.5
  0
LINE
  8
0
 10
245
 20
-142.5
 11
249.875
 21
-142.5
  0
LINE
  8
0
 10
249.875
 20
-142.5
 11
251.5
 21
-140.875
  0
LINE
  8
0
 10
251.5
 20
-140.875
 11
251.5
 21
-129.125
  0
LINE
  8
0
 10
251.5
 20
-129.125
 11
249.875
 21
-127.5
  0
LINE
  8
0
 10
249.875
 20
-127.5
 11
245
 21
-127.5
  0
LINE
  8
0
 10
245
 20
-127.5
 11
245
 21
-122.563
  0
LINE
  8
0
 10
245
 20
-122.563
 11
237.938
 21
-122.563
  0
LINE
  8
0
 10
237.938
 20
-122.563
 11
237.938
 21
-124.7
  0
LINE
  8
0
 10
237.938
 20
-124.7
 11
232.562
 21
-124.7
  0
LINE
  8
0
 10
232.562
 20
-124.7
 11
232.562
 21
-122.563
  0
LINE
  8
0
 10
232.562
 20
-122.563
 11
231.188
 21
-122.563
  0
LINE
  8
0
 10
231.188
 20
-122.563
 11
231.188
 21
-117.437
  0
LINE
  8
0
 10
231.188
 20
-117.437
 11
232.562
 21
-117.437
  0
LINE
  8
0
 10
232.562
 20
-117.437
 11
232.562
 21
-115.3
  0
LINE
  8
0
 10
232.562
 20
-115.3
 11
237.938
 21
-115.3
  0
LINE
  8
0
 10
237.938
 20
-115.3
 11
237.938
 21
-117.437
  0
LINE
  8
0
 10
237.938
 20
-117.437
 11
245
 21
-117.437
  0
LINE
  8
0
 10
245
 20
-117.437
 11
245
 21
-112.5
  0
LINE
  8
0
 10
245
 20
-112.5
 11
249.875
 21
-112.5
  0
LINE
  8
0
 10
249.875
 20
-112.5
 11
251.5
 21
-110.875
  0
LINE
  8
0
 10
251.5
 20
-110.875
 11
251.5
 21
-99.125
  0
LINE
  8
0
 10
251.5
 20
-99.125
 11
249.875
 21
-97.5
  0
LINE
  8
0
 10
249.875
 20
-97.5
 11
245
 21
-97.5
  0
LINE
  8
0
 10
245
 20
-97.5
 11
245
 21
97.5
  0
LINE
  8
0
 10
245
 20
97.5
 11
249.875
 21
97.5
  0
LINE
  8
0
 10
249.875
 20
97.5
 11
251.5
 21
99.125
  0
LINE
  8
0
 10
251.5
 20
99.125
 11
251.5
 21
110.875
  0
LINE
  8
0
 10
251.5
 20
110.875
 11
249.875
 21
112.5
  0
LINE
  8
0
 10
249.875
 20
112.5
 11
245
 21
112.5
  0
LINE
  8
0
 10
245
 20
112.5
 11
245
 21
117.437
  0
LINE
  8
0
 10
245
 20
117.437
 11
237.938
 21
117.437
  0
LINE
  8
0
 10
237.938
 20
117.437
 11
237.938
 21
115.3
  0
LINE
  8
0
 10
237.938
 20
115.3
 11
232.562
 21
115.3
  0
LINE
  8
0
 10
232.562
 20
115.3
 11
232.562
 21
117.437
  0
LINE
  8
0
 10
232.562
 20
117.437
 11
231.188
 21
117.437
  0
LINE
  8
0
 10
231.188
 20
117.437
 11
231.188
 21
122.563
  0
LINE
  8
0
 10
231.188
 20
122.563
 11
232.562
 21
122.563
  0
LINE
  8
0
 10
232.562
 20
122.563
 11
232.562
 21
124.7
  0
LINE
  8
0
 10
232.562
 20
124.7
 11
237.938
 21
124.7
  0
LINE
  8
0
 10
237.938
 20
124.7
 11
237.938
 21
122.563
  0
LINE
  8
0
 10
237.938
 20
122.563
 11
245
 21
122.563
  0
LINE
  8
0
 10
245
 20
122.563
 11
245
 21
127.5
  0
LINE
  8
0
 10
245
 20
127.5
 11
249.875
 21
127.5
  0
LINE
  8
0
 10
249.875
 20
127.5
 11
251.5
 21
129.125
  0
LINE
  8
0
 10
251.5
 20
129.125
 11
251.5
 21
140.875
  0
LINE
  8
0
 10
251.5
 20
140.875
 11
249.875
 21
142.5
  0
LINE
  8
0
 10
249.875
 20
142.5
 11
245
 21
142.5
  0
LINE
  8
0
 10
245
 20
142.5
 11
245
 21
180
  0
LINE
  8
0
 10
245
 20
180
 11
225
 21
180
  0
LINE
  8
0
 10
225
 20
180
 11
225
 21
204.25
  0
LINE
  8
0
 10
225
 20
204.25
 11
223
 21
204.25
  0
LINE
  8
0
 10
223
 20
204.25
 11
223
 21
215.75
  0
LINE
  8
0
 10
223
 20
215.75
 11
225
 21
215.75
  0
LINE
  8
0
 10
225
 20
215.75
 11
225
 21
220
  0
LINE
  8
0
 10
225
 20
220
 11
167.5
 21
220
  0
LINE
  8
0
 10
167.5
 20
220
 11
167.5
 21
224.875
  0
LINE
  8
0
 10
167.5
 20
224.875
 11
165.875
 21
226.5
  0
LINE
  8
0
 10
165.875
 20
226.5
 11
154.125
 21
226.5
  0
LINE
  8
0
 10
154.125
 20
226.5
 11
152.5
 21
224.875
  0
LINE
  8
0
 10
152.5
 20
224.875
 11
152.5
 21
220
  0
LINE
  8
0
 10
152.5
 20
220
 11
147.563
 21
220
  0
LINE
  8
0
 10
147.563
 20
220
 11
147.563
 21
212.938
  0
LINE
  8
0
 10
147.563
 20
212.938
 11
149.7
 21
212.938
  0
LINE
  8
0
 10
149.7
 20
212.938
 11
149.7
 21
207.562
  0
LINE
  8
0
 10
149.7
 20
207.562
 11
147.563
 21
207.562
  0
LINE
  8
0
 10
147.563
 20
207.562
 11
147.563
 21
206.188
  0
LINE
  8
0
 10
147.563
 20
206.188
 11
142.437
 21
206.188
  0
LINE
  8
0
 10
142.437
 20
206.188
 11
142.437
 21
207.562
  0
LINE
  8
0
 10
142.437
 20
207.562
 11
140.3
 21
207.562
  0
LINE
  8
0
 10
140.3
 20
207.562
 11
140.3
 21
212.938
  0
LINE
  8
0
 10
140.3
 20
212.938
 11
142.437
 21
212.938
  0
LINE
  8
0
 10
142.437
 20
212.938
 11
142.437
 21
220
  0
LINE
  8
0
 10
142.437
 20
220
 11
137.5
 21
220
  0
LINE
  8
0
 10
137.5
 20
220
 11
137.5
 21
224.875
  0
LINE
  8
0
 10
137.5
 20
224.875
 11
135.875
 21
226.5
  0
LINE
  8
0
 10
135.875
 20
226.5
 11
124.125
 21
226.5
  0
LINE
  8
0
 10
124.125
 20
226.5
 11
122.5
 21
224.875
  0
LINE
  8
0
 10
122.5
 20
224.875
 11
122.5
 21
220
  0
LINE
  8
0
 10
122.5
 20
220
 11
22.5
 21
220
  0
LINE
  8
0
 10
22.5
 20
220
 11
22.5
 21
224.875
  0
LINE
  8
0
 10
22.5
 20
224.875
 11
20.875
 21
226.5
  0
LINE
  8
0
 10
20.875
 20
226.5
 11
9.125
 21
226.5
  0
LINE
  8
0
 10
9.125
 20
226.5
 11
7.5
 21
224.875
  0
LINE
  8
0
 10
7.5
 20
224.875
 11
7.5
 21
220
  0
LINE
  8
0
 10
7.5
 20
220
 11
2.56299
 21
220
  0
LINE
  8
0
 10
2.56299
 20
220
 11
2.56299
 21
212.938
  0
LINE
  8
0
 10
2.56299
 20
212.938
 11
4.7
 21
212.938
  0
LINE
  8
0
 10
4.7
 20
212.938
 11
4.7
 21
207.562
  0
LINE
  8
0
 10
4.7
 20
207.562
 11
2.56299
 21
207.562
  0
LINE
  8
0
 10
2.56299
 20
207.562
 11
2.56299
 21
206.188
  0
LINE
  8
0
 10
2.56299
 20
206.188
 11
-2.56299
 21
206.188
  0
LINE
  8
0
 10
-2.56299
 20
206.188
 11
-2.56299
 21
207.562
  0
LINE
  8
0
 10
-2.56299
 20
207.562
 11
-4.7
 21
207.562
  0
LINE
  8
0
 10
-4.7
 20
207.562
 11
-4.7
 21
212.938
  0
LINE
  8
0
 10
-4.7
 20
212.938
 11
-2.56299
 21
212.938
  0
LINE
  8
0
 10
-2.56299
 20
212.938
 11
-2.56299
 21
220
  0
LINE
  8
0
 10
-2.56299
 20
220
 11
-7.5
 21
220
  0
LINE
  8
0
 10
-7.5
 20
220
 11
-7.5
 21
224.875
  0
LINE
  8
0
 10
-7.5
 20
224.875
 11
-9.125
 21
226.5
  0
LINE
  8
0
 10
-9.125
 20
226.5
 11
-20.875
 21
226.5
  0
LINE
  8
0
 10
-20.875
 20
226.5
 11
-22.5
 21
224.875
  0
LINE
  8
0
 10
-22.5
 20
224.875
 11
-22.5
 21
220
  0
LINE
  8
0
 10
-22.5
 20
220
 11
-122.5
 21
220
  0
LINE
  8
0
 10
-122.5
 20
220
 11
-122.5
 21
224.875
  0
LINE
  8
0
 10
-122.5
 20
224.875
 11
-124.125
 21
226.5
  0
LINE
  8
0
 10
-124.125
 20
226.5
 11
-135.875
 21
226.5
  0
LINE
  8
0
 10
-135.875
 20
226.5
 11
-137.5
 21
224.875
  0
LINE
  8
0
 10
-137.5
 20
224.875
 11
-137.5
 21
220
  0
LINE
  8
0
 10
-137.5
 20
220
 11
-142.437
 21
220
  0
LINE
  8
0
 10
-142.437
 20
220
 11
-142.437
 21
212.938
  0
LINE
  8
0
 10
-142.437
 20
212.938
 11
-140.3
 21
212.938
  0
LINE
  8
0
 10
-140.3
 20
212.938
 11
-140.3
 21
207.562
  0
LINE
  8
0
 10
-140.3
 20
207.562
 11
-142.437
 21
207.562
  0
LINE
  8
0
 10
-142.437
 20
207.562
 11
-142.437
 21
206.188
  0
LINE
  8
0
 10
-142.437
 20
206.188
 11
-147.563
 21
206.188
  0
LINE
  8
0
 10
-147.563
 20
206.188
 11
-147.563
 21
207.562
  0
LINE
  8
0
 10
-147.563
 20
207.562
 11
-149.7
 21
207.562
  0
LINE
  8
0
 10
-149.7
 20
207.562
 11
-149.7
 21
212.938
  0
LINE
  8
0
 10
-149.7
 20
212.938
 11
-147.563
 21
212.938
  0
LINE
  8
0
 10
-147.563
 20
212.938
 11
-147.563
 21
220
  0
LINE
  8
0
 10
-147.563
 20
220
 11
-152.5
 21
220
  0
LINE
  8
0
 10
-152.5
 20
220
 11
-152.5
 21
224.875
  0
LINE
  8
0
 10
-152.5
 20
224.875
 11
-154.125
 21
226.5
  0
LINE
  8
0
 10
-154.125
 20
226.5
 11
-165.875
 21
226.5
  0
LINE
  8
0
 10
-165.875
 20
226.5
 11
-167.5
 21
224.875
  0
LINE
  8
0
 10
-167.5
 20
224.875
 11
-167.5
 21
220
  0
LINE
  8
0
 10
-167.5
 20
220
 11
-225
 21
220
  0
LINE
  8
0
 10
-225
 20
220
 11
-225
 21
215.75
  0
LINE
  8
0
 10
-225
 20
215.75
 11
-223
 21
215.75
  0
LINE
  8
0
 10
-223
 20
215.75
 11
-223
 21
204.25
  0
LINE
  8
0
 10
-223
 20
204.25
 11
-225
 21
204.25
  0
LINE
  8
0
 10
-225
 20
204.25
 11
-225
 21
180
  0
LINE
  8
0
 10
-225
 20
180
 11
-245
 21
180
  0
LINE
  8
0
 10
-245
 20
180
 11
-245
 21
142.5
  0
LINE
  8
0
 10
-245
 20
142.5
 11
-249.875
 21
142.5
  0
LINE
  8
0
 10
-249.875
 20
142.5
 11
-251.5
 21
140.875
  0
LINE
  8
0
 10
-251.5
 20
140.875
 11
-251.5
 21
129.125
  0
LINE
  8
0
 10
-251.5
 20
129.125
 11
-249.875
 21
127.5
  0
LINE
  8
0
 10
-249.875
 20
127.5
 11
-245
 21
127.5
  0
LINE
  8
0
 10
-245
 20
127.5
 11
-245
 21
122.563
  0
LINE
  8
0
 10
-245
 20
122.563
 11
-237.938
 21
122.563
  0
LINE
  8
0
 10
-237.938
 20
122.563
 11
-237.938
 21
124.7
  0
LINE
  8
0
 10
-237.938
 20
124.7
 11
-232.562
 21
124.7
  0
LINE
  8
0
 10
-232.562
 20
124.7
 11
-232.562
 21
122.563
  0
LINE
  8
0
 10
-232.562
 20
122.563
 11
-231.188
 21
122.563
  0
LINE
  8
0
 10
-231.188
 20
122.563
 11
-231.188
 21
117.437
  0
LINE
  8
0
 10
-231.188
 20
117.437
 11
-232.562
 21
117.437
  0
LINE
  8
0
 10
-232.562
 20
117.437
 11
-232.562
 21
115.3
  0
LINE
  8
0
 10
-232.562
 20
115.3
 11
-237.938
 21
115.3
  0
LINE
  8
0
 10
-237.938
 20
115.3
 11
-237.938
 21
117.437
  0
LINE
  8
0
 10
-237.938
 20
117.437
 11
-245
 21
117.437
  0
LINE
  8
0
 10
-245
 20
117.437
 11
-245
 21
112.5
  0
LINE
  8
0
 10
-245
 20
112.5
 11
-249.875
 21
112.5
  0
LINE
  8
0
 10
-249.875
 20
112.5
 11
-251.5
 21
110.875
  0
LINE
  8
0
 10
-251.5
 20
110.875
 11
-251.5
 21
99.125
  0
LINE
  8
0
 10
-251.5
 20
99.125
 11
-249.875
 21
97.5
  0
LINE
  8
0
 10
-249.875
 20
97.5
 11
-245
 21
97.5
  0
LINE
  8
0
 10
-245
 20
97.5
 11
-245
 21
-97.5
  0
LINE
  8
0
 10
-245
 20
-97.5
 11
-249.875
 21
-97.5
  0
LINE
  8
0
 10
-249.875
 20
-97.5
 11
-251.5
 21
-99.125
  0
LINE
  8
0
 10
-251.5
 20
-99.125
 11
-251.5
 21
-110.875
  0
LINE
  8
0
 10
-251.5
 20
-110.875
 11
-249.875
 21
-112.5
  0
LINE
  8
0
 10
-249.875
 20
-112.5
 11
-245
 21
-112.5
  0
LINE
  8
0
 10
-245
 20
-112.5
 11
-245
 21
-117.437
  0
LINE
  8
0
 10
-245
 20
-117.437
 11
-237.938
 21
-117.437
  0
LINE
  8
0
 10
-237.938
 20
-117.437
 11
-237.938
 21
-115.3
  0
LINE
  8
0
 10
-237.938
 20
-115.3
 11
-232.562
 21
-115.3
  0
LINE
  8
0
 10
-232.562
 20
-115.3
 11
-232.562
 21
-117.437
  0
LINE
  8
0
 10
-232.562
 20
-117.437
 11
-231.188
 21
-117.437
  0
LINE
  8
0
 10
-231.188
 20
-117.437
 11
-231.188
 21
-122.563
  0
LINE
  8
0
 10
-231.188
 20
-122.563
 11
-232.562
 21
-122.563
  0
LINE
  8
0
 10
-232.562
 20
-122.563
 11
-232.562
 21
-124.7
  0
LINE
  8
0
 10
-232.562
 20
-124.7
 11
-237.938
 21
-124.7
  0
LINE
  8
0
 10
-237.938
 20
-124.7
 11
-237.938
 21
-122.563
  0
LINE
  8
0
 10
-237.938
 20
-122.563
 11
-245
 21
-122.563
  0
LINE
  8
0
 10
-245
 20
-122.563
 11
-245
 21
-127.5
  0
LINE
  8
0
 10
-245
 20
-127.5
 11
-249.875
 21
-127.5
  0
LINE
  8
0
 10
-249.875
 20
-127.5
 11
-251.5
 21
-129.125
  0
LINE
  8
0
 10
-251.5
 20
-129.125
 11
-251.5
 21
-140.875
  0
LINE
  8
0
 10
-251.5
 20
-140.875
 11
-249.875
 21
-142.5
  0
LINE
  8
0
 10
-249.875
 20
-142.5
 11
-245
 21
-142.5
  0
LINE
  8
0
 10
-245
 20
-142.5
 11
-245
 21
-180
  0
LINE
  8
0
 10
-245
 20
-180
 11
-225
 21
-180
  0
LINE
  8
0
 10
-225
 20
-180
 11
-225
 21
-220
  0
LINE
  8
0
 10
-225
 20
-220
 11
-167.5
 21
-220
  0
LINE
  8
0
 10
-167.5
 20
-220
 11
-167.5
 21
-224.875
  0
LINE
  8
0
 10
-167.5
 20
-224.875
 11
-165.875
 21
-226.5
  0
LINE
  8
0
 10
-165.875
 20
-226.5
 11
-154.125
 21
-226.5
  0
LINE
  8
0
 10
-154.125
 20
-226.5
 11
-152.5
 21
-224.875
  0
LINE
  8
0
 10
-214
 20
204.25
 11
-214
 21
215.75
  0
LINE
  8
0
 10
-214
 20
215.75
 11
-210
 21
215.75
  0
LINE
  8
0
 10
-210
 20
215.75
 11
-210
 21
204.25
  0
LINE
  8
0
 10
-210
 20
204.25
 11
-214
 21
204.25
  0
LINE
  8
0
 10
210
 20
204.25
 11
210
 21
215.75
  0
LINE
  8
0
 10
210
 20
215.75
 11
214
 21
215.75
  0
LINE
  8
0
 10
214
 20
215.75
 11
214
 21
204.25
  0
LINE
  8
0
 10
214
 20
204.25
 11
210
 21
204.25
  0
LINE
  8
0
 10
214.751
 20
187.312
 11
214.261
 21
187.403
  0
LINE
  8
0
 10
214.261
 20
187.403
 11
213.797
 21
187.583
  0
LINE
  8
0
 10
213.797
 20
187.583
 11
213.373
 21
187.845
  0
LINE
  8
0
 10
213.373
 20
187.845
 11
213.005
 21
188.181
  0
LINE
  8
0
 10
213.005
 20
188.181
 11
212.704
 21
188.579
  0
LINE
  8
0
 10
212.704
 20
188.579
 11
212.482
 21
189.025
  0
LINE
  8
0
 10
212.482
 20
189.025
 11
212.346
 21
189.504
  0
LINE
  8
0
 10
212.346
 20
189.504
 11
212.3
 21
190
  0
LINE
  8
0
 10
212.3
 20
190
 11
212.346
 21
190.496
  0
LINE
  8
0
 10
212.346
 20
190.496
 11
212.482
 21
190.975
  0
LINE
  8
0
 10
212.482
 20
190.975
 11
212.704
 21
191.421
  0
LINE
  8
0
 10
212.704
 20
191.421
 11
213.005
 21
191.819
  0
LINE
  8
0
 10
213.005
 20
191.819
 11
213.373
 21
192.155
  0
LINE
  8
0
 10
213.373
 20
192.155
 11
213.797
 21
192.417
  0
LINE
  8
0
 10
213.797
 20
192.417
 11
214.261
 21
192.597
  0
LINE
  8
0
 10
214.261
 20
192.597
 11
214.751
 21
192.688
  0
LINE
  8
0
 10
214.751
 20
192.688
 11
215.249
 21
192.688
  0
LINE
  8
0
 10
215.249
 20
192.688
 11
215.739
 21
192.597
  0
LINE
  8
0
 10
215.739
 20
192.597
 11
216.203
 21
192.417
  0
LINE
  8
0
 10
216.203
 20
192.417
 11
216.627
 21
192.155
  0
LINE
  8
0
 10
216.627
 20
192.155
 11
216.995
 21
191.819
  0
LINE
  8
0
 10
216.995
 20
191.819
 11
217.296
 21
191.421
  0
LINE
  8
0
 10
217.296
 20
191.421
 11
217.518
 21
190.975
  0
LINE
  8
0
 10
217.518
 20
190.975
 11
217.654
 21
190.496
  0
LINE
  8
0
 10
217.654
 20
190.496
 11
217.7
 21
190
  0
LINE
  8
0
 10
217.7
 20
190
 11
217.654
 21
189.504
  0
LINE
  8
0
 10
217.654
 20
189.504
 11
217.518
 21
189.025
  0
LINE
  8
0
 10
217.518
 20
189.025
 11
217.296
 21
188.579
  0
LINE
  8
0
 10
217.296
 20
188.579
 11
216.995
 21
188.181
  0
LINE
  8
0
 10
216.995
 20
188.181
 11
216.627
 21
187.845
  0
LINE
  8
0
 10
216.627
 20
187.845
 11
216.203
 21
187.583
  0
LINE
  8
0
 10
216.203
 20
187.583
 11
215.739
 21
187.403
  0
LINE
  8
0
 10
215.739
 20
187.403
 11
215.249
 21
187.312
  0
LINE
  8
0
 10
215.249
 20
187.312
 11
214.751
 21
187.312
  0
LINE
  8
0
 10
-215.249
 20
187.312
 11
-215.739
 21
187.403
  0
LINE
  8
0
 10
-215.739
 20
187.403
 11
-216.203
 21
187.583
  0
LINE
  8
0
 10
-216.203
 20
187.583
 11
-216.627
 21
187.845
  0
LINE
  8
0
 10
-216.627
 20
187.845
 11
-216.995
 21
188.181
  0
LINE
  8
0
 10
-216.995
 20
188.181
 11
-217.296
 21
188.579
  0
LINE
  8
0
 10
-217.296
 20
188.579
 11
-217.518
 21
189.025
  0
LINE
  8
0
 10
-217.518
 20
189.025
 11
-217.654
 21
189.504
  0
LINE
  8
0
 10
-217.654
 20
189.504
 11
-217.7
 21
190
  0
LINE
  8
0
 10
-217.7
 20
190
 11
-217.654
 21
190.496
  0
LINE
  8
0
 10
-217.654
 20
190.496
 11
-217.518
 21
190.975
  0
LINE
  8
0
 10
-217.518
 20
190.975
 11
-217.296
 21
191.421
  0
LINE
  8
0
 10
-217.296
 20
191.421
 11
-216.995
 21
191.819
  0
LINE
  8
0
 10
-216.995
 20
191.819
 11
-216.627
 21
192.155
  0
LINE
  8
0
 10
-216.627
 20
192.155
 11
-216.203
 21
192.417
  0
LINE
  8
0
 10
-216.203
 20
192.417
 11
-215.739
 21
192.597
  0
LINE
  8
0
 10
-215.739
 20
192.597
 11
-215.249
 21
192.688
  0
LINE
  8
0
 10
-215.249
 20
192.688
 11
-214.751
 21
192.688
  0
LINE
  8
0
 10
-214.751
 20
192.688
 11
-214.261
 21
192.597
  0
LINE
  8
0
 10
-214.261
 20
192.597
 11
-213.797
 21
192.417
  0
LINE
  8
0
 10
-213.797
 20
192.417
 11
-213.373
 21
192.155
  0
LINE
  8
0
 10
-213.373
 20
192.155
 11
-213.005
 21
191.819
  0
LINE
  8
0
 10
-213.005
 20
191.819
 11
-212.704
 21
191.421
  0
LINE
  8
0
 10
-212.704
 20
191.421
 11
-212.482
 21
190.975
  0
LINE
  8
0
 10
-212.482
 20
190.975
 11
-212.346
 21
190.496
  0
LINE
  8
0
 10
-212.346
 20
190.496
 11
-212.3
 21
190
  0
LINE
  8
0
 10
-212.3
 20
190
 11
-212.346
 21
189.504
  0
LINE
  8
0
 10
-212.346
 20
189.504
 11
-212.482
 21
189.025
  0
LINE
  8
0
 10
-212.482
 20
189.025
 11
-212.704
 21
188.579
  0
LINE
  8
0
 10
-212.704
 20
188.579
 11
-213.005
 21
188.181
  0
LINE
  8
0
 10
-213.005
 20
188.181
 11
-213.373
 21
187.845
  0
LINE
  8
0
 10
-213.373
 20
187.845
 11
-213.797
 21
187.583
  0
LINE
  8
0
 10
-213.797
 20
187.583
 11
-214.261
 21
187.403
  0
LINE
  8
0
 10
-214.261
 20
187.403
 11
-214.751
 21
187.312
  0
LINE
  8
0
 10
-214.751
 20
187.312
 11
-215.249
 21
187.312
  0
LINE
  8
0
 10
194.751
 20
187.312
 11
194.261
 21
187.403
  0
LINE
  8
0
 10
194.261
 20
187.403
 11
193.797
 21
187.583
  0
LINE
  8
0
 10
193.797
 20
187.583
 11
193.373
 21
187.845
  0
LINE
  8
0
 10
193.373
 20
187.845
 11
193.005
 21
188.181
  0
LINE
  8
0
 10
193.005
 20
188.181
 11
192.704
 21
188.579
  0
LINE
  8
0
 10
192.704
 20
188.579
 11
192.482
 21
189.025
  0
LINE
  8
0
 10
192.482
 20
189.025
 11
192.346
 21
189.504
  0
LINE
  8
0
 10
192.346
 20
189.504
 11
192.3
 21
190
  0
LINE
  8
0
 10
192.3
 20
190
 11
192.346
 21
190.496
  0
LINE
  8
0
 10
192.346
 20
190.496
 11
192.482
 21
190.975
  0
LINE
  8
0
 10
192.482
 20
190.975
 11
192.704
 21
191.421
  0
LINE
  8
0
 10
192.704
 20
191.421
 11
193.005
 21
191.819
  0
LINE
  8
0
 10
193.005
 20
191.819
 11
193.373
 21
192.155
  0
LINE
  8
0
 10
193.373
 20
192.155
 11
193.797
 21
192.417
  0
LINE
  8
0
 10
193.797
 20
192.417
 11
194.261
 21
192.597
  0
LINE
  8
0
 10
194.261
 20
192.597
 11
194.751
 21
192.688
  0
LINE
  8
0
 10
194.751
 20
192.688
 11
195.249
 21
192.688
  0
LINE
  8
0
 10
195.249
 20
192.688
 11
195.739
 21
192.597
  0
LINE
  8
0
 10
195.739
 20
192.597
 11
196.203
 21
192.417
  0
LINE
  8
0
 10
196.203
 20
192.417
 11
196.627
 21
192.155
  0
LINE
  8
0
 10
196.627
 20
192.155
 11
196.995
 21
191.819
  0
LINE
  8
0
 10
196.995
 20
191.819
 11
197.296
 21
191.421
  0
LINE
  8
0
 10
197.296
 20
191.421
 11
197.518
 21
190.975
  0
LINE
  8
0
 10
197.518
 20
190.975
 11
197.654
 21
190.496
  0
LINE
  8
0
 10
197.654
 20
190.496
 11
197.7
 21
190
  0
LINE
  8
0
 10
197.7
 20
190
 11
197.654
 21
189.504
  0
LINE
  8
0
 10
197.654
 20
189.504
 11
197.518
 21
189.025
  0
LINE
  8
0
 10
197.518
 20
189.025
 11
197.296
 21
188.579
  0
LINE
  8
0
 10
197.296
 20
188.579
 11
196.995
 21
188.181
  0
LINE
  8
0
 10
196.995
 20
188.181
 11
196.627
 21
187.845
  0
LINE
  8
0
 10
196.627
 20
187.845
 11
196.203
 21
187.583
  0
LINE
  8
0
 10
196.203
 20
187.583
 11
195.739
 21
187.403
  0
LINE
  8
0
 10
195.739
 20
187.403
 11
195.249
 21
187.312
  0
LINE
  8
0
 10
195.249
 20
187.312
 11
194.751
 21
187.312
  0
LINE
  8
0
 10
-0.249115
 20
187.312
 11
-0.738876
 21
187.403
  0
LINE
  8
0
 10
-0.738876
 20
187.403
 11
-1.20349
 21
187.583
  0
LINE
  8
0
 10
-1.20349
 20
187.583
 11
-1.62711
 21
187.845
  0
LINE
  8
0
 10
-1.62711
 20
187.845
 11
-1.99532
 21
188.181
  0
LINE
  8
0
 10
-1.99532
 20
188.181
 11
-2.29558
 21
188.579
  0
LINE
  8
0
 10
-2.29558
 20
188.579
 11
-2.51767
 21
189.025
  0
LINE
  8
0
 10
-2.51767
 20
189.025
 11
-2.65402
 21
189.504
  0
LINE
  8
0
 10
-2.65402
 20
189.504
 11
-2.7
 21
190
  0
LINE
  8
0
 10
-2.7
 20
190
 11
-2.65402
 21
190.496
  0
LINE
  8
0
 10
-2.65402
 20
190.496
 11
-2.51767
 21
190.975
  0
LINE
  8
0
 10
-2.51767
 20
190.975
 11
-2.29558
 21
191.421
  0
LINE
  8
0
 10
-2.29558
 20
191.421
 11
-1.99532
 21
191.819
  0
LINE
  8
0
 10
-1.99532
 20
191.819
 11
-1.62711
 21
192.155
  0
LINE
  8
0
 10
-1.62711
 20
192.155
 11
-1.20349
 21
192.417
  0
LINE
  8
0
 10
-1.20349
 20
192.417
 11
-0.738876
 21
192.597
  0
LINE
  8
0
 10
-0.738876
 20
192.597
 11
-0.249115
 21
192.688
  0
LINE
  8
0
 10
-0.249115
 20
192.688
 11
0.249115
 21
192.688
  0
LINE
  8
0
 10
0.249115
 20
192.688
 11
0.738876
 21
192.597
  0
LINE
  8
0
 10
0.738876
 20
192.597
 11
1.20349
 21
192.417
  0
LINE
  8
0
 10
1.20349
 20
192.417
 11
1.62711
 21
192.155
  0
LINE
  8
0
 10
1.62711
 20
192.155
 11
1.99532
 21
191.819
  0
LINE
  8
0
 10
1.99532
 20
191.819
 11
2.29558
 21
191.421
  0
LINE
  8
0
 10
2.29558
 20
191.421
 11
2.51767
 21
190.975
  0
LINE
  8
0
 10
2.51767
 20
190.975
 11
2.65402
 21
190.496
  0
LINE
  8
0
 10
2.65402
 20
190.496
 11
2.7
 21
190
  0
LINE
  8
0
 10
2.7
 20
190
 11
2.65402
 21
189.504
  0
LINE
  8
0
 10
2.65402
 20
189.504
 11
2.51767
 21
189.025
  0
LINE
  8
0
 10
2.51767
 20
189.025
 11
2.29558
 21
188.579
  0
LINE
  8
0
 10
2.29558
 20
188.579
 11
1.99532
 21
188.181
  0
LINE
  8
0
 10
1.99532
 20
188.181
 11
1.62711
 21
187.845
  0
LINE
  8
0
 10
1.62711
 20
187.845
 11
1.20349
 21
187.583
  0
LINE
  8
0
 10
1.20349
 20
187.583
 11
0.738876
 21
187.403
  0
LINE
  8
0
 10
0.738876
 20
187.403
 11
0.249115
 21
187.312
  0
LINE
  8
0
 10
0.249115
 20
187.312
 11
-0.249115
 21
187.312
  0
LINE
  8
0
 10
-195.249
 20
187.312
 11
-195.739
 21
187.403
  0
LINE
  8
0
 10
-195.739
 20
187.403
 11
-196.203
 21
187.583
  0
LINE
  8
0
 10
-196.203
 20
187.583
 11
-196.627
 21
187.845
  0
LINE
  8
0
 10
-196.627
 20
187.845
 11
-196.995
 21
188.181
  0
LINE
  8
0
 10
-196.995
 20
188.181
 11
-197.296
 21
188.579
  0
LINE
  8
0
 10
-197.296
 20
188.579
 11
-197.518
 21
189.025
  0
LINE
  8
0
 10
-197.518
 20
189.025
 11
-197.654
 21
189.504
  0
LINE
  8
0
 10
-197.654
 20
189.504
 11
-197.7
 21
190
  0
LINE
  8
0
 10
-197.7
 20
190
 11
-197.654
 21
190.496
  0
LINE
  8
0
 10
-197.654
 20
190.496
 11
-197.518
 21
190.975
  0
LINE
  8
0
 10
-197.518
 20
190.975
 11
-197.296
 21
191.421
  0
LINE
  8
0
 10
-197.296
 20
191.421
 11
-196.995
 21
191.819
  0
LINE
  8
0
 10
-196.995
 20
191.819
 11
-196.627
 21
192.155
  0
LINE
  8
0
 10
-196.627
 20
192.155
 11
-196.203
 21
192.417
  0
LINE
  8
0
 10
-196.203
 20
192.417
 11
-195.739
 21
192.597
  0
LINE
  8
0
 10
-195.739
 20
192.597
 11
-195.249
 21
192.688
  0
LINE
  8
0
 10
-195.249
 20
192.688
 11
-194.751
 21
192.688
  0
LINE
  8
0
 10
-194.751
 20
192.688
 11
-194.261
 21
192.597
  0
LINE
  8
0
 10
-194.261
 20
192.597
 11
-193.797
 21
192.417
  0
LINE
  8
0
 10
-193.797
 20
192.417
 11
-193.373
 21
192.155
  0
LINE
  8
0
 10
-193.373
 20
192.155
 11
-193.005
 21
191.819
  0
LINE
  8
0
 10
-193.005
 20
191.819
 11
-192.704
 21
191.421
  0
LINE
  8
0
 10
-192.704
 20
191.421
 11
-192.482
 21
190.975
  0
LINE
  8
0
 10
-192.482
 20
190.975
 11
-192.346
 21
190.496
  0
LINE
  8
0
 10
-192.346
 20
190.496
 11
-192.3
 21
190
  0
LINE
  8
0
 10
-192.3
 20
190
 11
-192.346
 21
189.504
  0
LINE
  8
0
 10
-192.346
 20
189.504
 11
-192.482
 21
189.025
  0
LINE
  8
0
 10
-192.482
 20
189.025
 11
-192.704
 21
188.579
  0
LINE
  8
0
 10
-192.704
 20
188.579
 11
-193.005
 21
188.181
  0
LINE
  8
0
 10
-193.005
 20
188.181
 11
-193.373
 21
187.845
  0
LINE
  8
0
 10
-193.373
 20
187.845
 11
-193.797
 21
187.583
  0
LINE
  8
0
 10
-193.797
 20
187.583
 11
-194.261
 21
187.403
  0
LINE
  8
0
 10
-194.261
 20
187.403
 11
-194.751
 21
187.312
  0
LINE
  8
0
 10
-194.751
 20
187.312
 11
-195.249
 21
187.312
  0
LINE
  8
0
 10
-146.831
 20
169.529
 11
-124.274
 21
192.086
  0
LINE
  8
0
 10
-124.274
 20
192.086
 11
-119.749
 21
187.56
  0
LINE
  8
0
 10
-119.749
 20
187.56
 11
-142.305
 21
165.003
  0
LINE
  8
0
 10
-142.305
 20
165.003
 11
-146.831
 21
169.529
  0
LINE
  8
0
 10
119.749
 20
187.56
 11
124.274
 21
192.086
  0
LINE
  8
0
 10
124.274
 20
192.086
 11
146.831
 21
169.529
  0
LINE
  8
0
 10
146.831
 20
169.529
 11
142.305
 21
165.003
  0
LINE
  8
0
 10
142.305
 20
165.003
 11
119.749
 21
187.56
  0
LINE
  8
0
 10
234.751
 20
167.312
 11
234.261
 21
167.403
  0
LINE
  8
0
 10
234.261
 20
167.403
 11
233.797
 21
167.583
  0
LINE
  8
0
 10
233.797
 20
167.583
 11
233.373
 21
167.845
  0
LINE
  8
0
 10
233.373
 20
167.845
 11
233.005
 21
168.181
  0
LINE
  8
0
 10
233.005
 20
168.181
 11
232.704
 21
168.579
  0
LINE
  8
0
 10
232.704
 20
168.579
 11
232.482
 21
169.025
  0
LINE
  8
0
 10
232.482
 20
169.025
 11
232.346
 21
169.504
  0
LINE
  8
0
 10
232.346
 20
169.504
 11
232.3
 21
170
  0
LINE
  8
0
 10
232.3
 20
170
 11
232.346
 21
170.496
  0
LINE
  8
0
 10
232.346
 20
170.496
 11
232.482
 21
170.975
  0
LINE
  8
0
 10
232.482
 20
170.975
 11
232.704
 21
171.421
  0
LINE
  8
0
 10
232.704
 20
171.421
 11
233.005
 21
171.819
  0
LINE
  8
0
 10
233.005
 20
171.819
 11
233.373
 21
172.155
  0
LINE
  8
0
 10
233.373
 20
172.155
 11
233.797
 21
172.417
  0
LINE
  8
0
 10
233.797
 20
172.417
 11
234.261
 21
172.597
  0
LINE
  8
0
 10
234.261
 20
172.597
 11
234.751
 21
172.688
  0
LINE
  8
0
 10
234.751
 20
172.688
 11
235.249
 21
172.688
  0
LINE
  8
0
 10
235.249
 20
172.688
 11
235.739
 21
172.597
  0
LINE
  8
0
 10
235.739
 20
172.597
 11
236.203
 21
172.417
  0
LINE
  8
0
 10
236.203
 20
172.417
 11
236.627
 21
172.155
  0
LINE
  8
0
 10
236.627
 20
172.155
 11
236.995
 21
171.819
  0
LINE
  8
0
 10
236.995
 20
171.819
 11
237.296
 21
171.421
  0
LINE
  8
0
 10
237.296
 20
171.421
 11
237.518
 21
170.975
  0
LINE
  8
0
 10
237.518
 20
170.975
 11
237.654
 21
170.496
  0
LINE
  8
0
 10
237.654
 20
170.496
 11
237.7
 21
170
  0
LINE
  8
0
 10
237.7
 20
170
 11
237.654
 21
169.504
  0
LINE
  8
0
 10
237.654
 20
169.504
 11
237.518
 21
169.025
  0
LINE
  8
0
 10
237.518
 20
169.025
 11
237.296
 21
168.579
  0
LINE
  8
0
 10
237.296
 20
168.579
 11
236.995
 21
168.181
  0
LINE
  8
0
 10
236.995
 20
168.181
 11
236.627
 21
167.845
  0
LINE
  8
0
 10
236.627
 20
167.845
 11
236.203
 21
167.583
  0
LINE
  8
0
 10
236.203
 20
167.583
 11
235.739
 21
167.403
  0
LINE
  8
0
 10
235.739
 20
167.403
 11
235.249
 21
167.312
  0
LINE
  8
0
 10
235.249
 20
167.312
 11
234.751
 21
167.312
  0
LINE
  8
0
 10
-235.249
 20
167.312
 11
-235.739
 21
167.403
  0
LINE
  8
0
 10
-235.739
 20
167.403
 11
-236.203
 21
167.583
  0
LINE
  8
0
 10
-236.203
 20
167.583
 11
-236.627
 21
167.845
  0
LINE
  8
0
 10
-236.627
 20
167.845
 11
-236.995
 21
168.181
  0
LINE
  8
0
 10
-236.995
 20
168.181
 11
-237.296
 21
168.579
  0
LINE
  8
0
 10
-237.296
 20
168.579
 11
-237.518
 21
169.025
  0
LINE
  8
0
 10
-237.518
 20
169.025
 11
-237.654
 21
169.504
  0
LINE
  8
0
 10
-237.654
 20
169.504
 11
-237.7
 21
170
  0
LINE
  8
0
 10
-237.7
 20
170
 11
-237.654
 21
170.496
  0
LINE
  8
0
 10
-237.654
 20
170.496
 11
-237.518
 21
170.975
  0
LINE
  8
0
 10
-237.518
 20
170.975
 11
-237.296
 21
171.421
  0
LINE
  8
0
 10
-237.296
 20
171.421
 11
-236.995
 21
171.819
  0
LINE
  8
0
 10
-236.995
 20
171.819
 11
-236.627
 21
172.155
  0
LINE
  8
0
 10
-236.627
 20
172.155
 11
-236.203
 21
172.417
  0
LINE
  8
0
 10
-236.203
 20
172.417
 11
-235.739
 21
172.597
  0
LINE
  8
0
 10
-235.739
 20
172.597
 11
-235.249
 21
172.688
  0
LINE
  8
0
 10
-235.249
 20
172.688
 11
-234.751
 21
172.688
  0
LINE
  8
0
 10
-234.751
 20
172.688
 11
-234.261
 21
172.597
  0
LINE
  8
0
 10
-234.261
 20
172.597
 11
-233.797
 21
172.417
  0
LINE
  8
0
 10
-233.797
 20
172.417
 11
-233.373
 21
172.155
  0
LINE
  8
0
 10
-233.373
 20
172.155
 11
-233.005
 21
171.819
  0
LINE
  8
0
 10
-233.005
 20
171.819
 11
-232.704
 21
171.421
  0
LINE
  8
0
 10
-232.704
 20
171.421
 11
-232.482
 21
170.975
  0
LINE
  8
0
 10
-232.482
 20
170.975
 11
-232.346
 21
170.496
  0
LINE
  8
0
 10
-232.346
 20
170.496
 11
-232.3
 21
170
  0
LINE
  8
0
 10
-232.3
 20
170
 11
-232.346
 21
169.504
  0
LINE
  8
0
 10
-232.346
 20
169.504
 11
-232.482
 21
169.025
  0
LINE
  8
0
 10
-232.482
 20
169.025
 11
-232.704
 21
168.579
  0
LINE
  8
0
 10
-232.704
 20
168.579
 11
-233.005
 21
168.181
  0
LINE
  8
0
 10
-233.005
 20
168.181
 11
-233.373
 21
167.845
  0
LINE
  8
0
 10
-233.373
 20
167.845
 11
-233.797
 21
167.583
  0
LINE
  8
0
 10
-233.797
 20
167.583
 11
-234.261
 21
167.403
  0
LINE
  8
0
 10
-234.261
 20
167.403
 11
-234.751
 21
167.312
  0
LINE
  8
0
 10
-234.751
 20
167.312
 11
-235.249
 21
167.312
  0
LINE
  8
0
 10
234.751
 20
147.312
 11
234.261
 21
147.403
  0
LINE
  8
0
 10
234.261
 20
147.403
 11
233.797
 21
147.583
  0
LINE
  8
0
 10
233.797
 20
147.583
 11
233.373
 21
147.845
  0
LINE
  8
0
 10
233.373
 20
147.845
 11
233.005
 21
148.181
  0
LINE
  8
0
 10
233.005
 20
148.181
 11
232.704
 21
148.579
  0
LINE
  8
0
 10
232.704
 20
148.579
 11
232.482
 21
149.025
  0
LINE
  8
0
 10
232.482
 20
149.025
 11
232.346
 21
149.504
  0
LINE
  8
0
 10
232.346
 20
149.504
 11
232.3
 21
150
  0
LINE
  8
0
 10
232.3
 20
150
 11
232.346
 21
150.496
  0
LINE
  8
0
 10
232.346
 20
150.496
 11
232.482
 21
150.975
  0
LINE
  8
0
 10
232.482
 20
150.975
 11
232.704
 21
151.421
  0
LINE
  8
0
 10
232.704
 20
151.421
 11
233.005
 21
151.819
  0
LINE
  8
0
 10
233.005
 20
151.819
 11
233.373
 21
152.155
  0
LINE
  8
0
 10
233.373
 20
152.155
 11
233.797
 21
152.417
  0
LINE
  8
0
 10
233.797
 20
152.417
 11
234.261
 21
152.597
  0
LINE
  8
0
 10
234.261
 20
152.597
 11
234.751
 21
152.688
  0
LINE
  8
0
 10
234.751
 20
152.688
 11
235.249
 21
152.688
  0
LINE
  8
0
 10
235.249
 20
152.688
 11
235.739
 21
152.597
  0
LINE
  8
0
 10
235.739
 20
152.597
 11
236.203
 21
152.417
  0
LINE
  8
0
 10
236.203
 20
152.417
 11
236.627
 21
152.155
  0
LINE
  8
0
 10
236.627
 20
152.155
 11
236.995
 21
151.819
  0
LINE
  8
0
 10
236.995
 20
151.819
 11
237.296
 21
151.421
  0
LINE
  8
0
 10
237.296
 20
151.421
 11
237.518
 21
150.975
  0
LINE
  8
0
 10
237.518
 20
150.975
 11
237.654
 21
150.496
  0
LINE
  8
0
 10
237.654
 20
150.496
 11
237.7
 21
150
  0
LINE
  8
0
 10
237.7
 20
150
 11
237.654
 21
149.504
  0
LINE
  8
0
 10
237.654
 20
149.504
 11
237.518
 21
149.025
  0
LINE
  8
0
 10
237.518
 20
149.025
 11
237.296
 21
148.579
  0
LINE
  8
0
 10
237.296
 20
148.579
 11
236.995
 21
148.181
  0
LINE
  8
0
 10
236.995
 20
148.181
 11
236.627
 21
147.845
  0
LINE
  8
0
 10
236.627
 20
147.845
 11
236.203
 21
147.583
  0
LINE
  8
0
 10
236.203
 20
147.583
 11
235.739
 21
147.403
  0
LINE
  8
0
 10
235.739
 20
147.403
 11
235.249
 21
147.312
  0
LINE
  8
0
 10
235.249
 20
147.312
 11
234.751
 21
147.312
  0
LINE
  8
0
 10
-235.249
 20
147.312
 11
-235.739
 21
147.403
  0
LINE
  8
0
 10
-235.739
 20
147.403
 11
-236.203
 21
147.583
  0
LINE
  8
0
 10
-236.203
 20
147.583
 11
-236.627
 21
147.845
  0
LINE
  8
0
 10
-236.627
 20
147.845
 11
-236.995
 21
148.181
  0
LINE
  8
0
 10
-236.995
 20
148.181
 11
-237.296
 21
148.579
  0
LINE
  8
0
 10
-237.296
 20
148.579
 11
-237.518
 21
149.025
  0
LINE
  8
0
 10
-237.518
 20
149.025
 11
-237.654
 21
149.504
  0
LINE
  8
0
 10
-237.654
 20
149.504
 11
-237.7
 21
150
  0
LINE
  8
0
 10
-237.7
 20
150
 11
-237.654
 21
150.496
  0
LINE
  8
0
 10
-237.654
 20
150.496
 11
-237.518
 21
150.975
  0
LINE
  8
0
 10
-237.518
 20
150.975
 11
-237.296
 21
151.421
  0
LINE
  8
0
 10
-237.296
 20
151.421
 11
-236.995
 21
151.819
  0
LINE
  8
0
 10
-236.995
 20
151.819
 11
-236.627
 21
152.155
  0
LINE
  8
0
 10
-236.627
 20
152.155
 11
-236.203
 21
152.417
  0
LINE
  8
0
 10
-236.203
 20
152.417
 11
-235.739
 21
152.597
  0
LINE
  8
0
 10
-235.739
 20
152.597
 11
-235.249
 21
152.688
  0
LINE
  8
0
 10
-235.249
 20
152.688
 11
-234.751
 21
152.688
  0
LINE
  8
0
 10
-234.751
 20
152.688
 11
-234.261
 21
152.597
  0
LINE
  8
0
 10
-234.261
 20
152.597
 11
-233.797
 21
152.417
  0
LINE
  8
0
 10
-233.797
 20
152.417
 11
-233.373
 21
152.155
  0
LINE
  8
0
 10
-233.373
 20
152.155
 11
-233.005
 21
151.819
  0
LINE
  8
0
 10
-233.005
 20
151.819
 11
-232.704
 21
151.421
  0
LINE
  8
0
 10
-232.704
 20
151.421
 11
-232.482
 21
150.975
  0
LINE
  8
0
 10
-232.482
 20
150.975
 11
-232.346
 21
150.496
  0
LINE
  8
0
 10
-232.346
 20
150.496
 11
-232.3
 21
150
  0
LINE
  8
0
 10
-232.3
 20
150
 11
-232.346
 21
149.504
  0
LINE
  8
0
 10
-232.346
 20
149.504
 11
-232.482
 21
149.025
  0
LINE
  8
0
 10
-232.482
 20
149.025
 11
-232.704
 21
148.579
  0
LINE
  8
0
 10
-232.704
 20
148.579
 11
-233.005
 21
148.181
  0
LINE
  8
0
 10
-233.005
 20
148.181
 11
-233.373
 21
147.845
  0
LINE
  8
0
 10
-233.373
 20
147.845
 11
-233.797
 21
147.583
  0
LINE
  8
0
 10
-233.797
 20
147.583
 11
-234.261
 21
147.403
  0
LINE
  8
0
 10
-234.261
 20
147.403
 11
-234.751
 21
147.312
  0
LINE
  8
0
 10
-234.751
 20
147.312
 11
-235.249
 21
147.312
  0
LINE
  8
0
 10
165.003
 20
142.305
 11
169.529
 21
146.831
  0
LINE
  8
0
 10
169.529
 20
146.831
 11
192.086
 21
124.274
  0
LINE
  8
0
 10
192.086
 20
124.274
 11
187.56
 21
119.749
  0
LINE
  8
0
 10
187.56
 20
119.749
 11
165.003
 21
142.305
  0
LINE
  8
0
 10
-192.086
 20
124.274
 11
-169.529
 21
146.831
  0
LINE
  8
0
 10
-169.529
 20
146.831
 11
-165.003
 21
142.305
  0
LINE
  8
0
 10
-165.003
 20
142.305
 11
-187.56
 21
119.749
  0
LINE
  8
0
 10
-187.56
 20
119.749
 11
-192.086
 21
124.274
  0
LINE
  8
0
 10
212.869
 20
57.0211
 11
212.8
 21
57.5
  0
LINE
  8
0
 10
212.8
 20
57.5
 11
212.869
 21
57.9789
  0
LINE
  8
0
 10
212.869
 20
57.9789
 11
213.07
 21
58.4191
  0
LINE
  8
0
 10
213.07
 20
58.4191
 11
213.387
 21
58.7848
  0
LINE
  8
0
 10
213.387
 20
58.7848
 11
213.794
 21
59.0464
  0
LINE
  8
0
 10
213.794
 20
59.0464
 11
214.258
 21
59.1827
  0
LINE
  8
0
 10
214.258
 20
59.1827
 11
214.742
 21
59.1827
  0
LINE
  8
0
 10
214.742
 20
59.1827
 11
215.206
 21
59.0464
  0
LINE
  8
0
 10
215.206
 20
59.0464
 11
215.613
 21
58.7848
  0
LINE
  8
0
 10
215.613
 20
58.7848
 11
215.93
 21
58.4191
  0
LINE
  8
0
 10
215.93
 20
58.4191
 11
216.131
 21
57.9789
  0
LINE
  8
0
 10
216.131
 20
57.9789
 11
216.2
 21
57.5
  0
LINE
  8
0
 10
216.2
 20
57.5
 11
216.131
 21
57.0211
  0
LINE
  8
0
 10
216.131
 20
57.0211
 11
215.93
 21
56.5809
  0
LINE
  8
0
 10
215.93
 20
56.5809
 11
215.613
 21
56.2152
  0
LINE
  8
0
 10
215.613
 20
56.2152
 11
215.206
 21
55.9536
  0
LINE
  8
0
 10
215.206
 20
55.9536
 11
214.742
 21
55.8173
  0
LINE
  8
0
 10
214.742
 20
55.8173
 11
214.258
 21
55.8173
  0
LINE
  8
0
 10
214.258
 20
55.8173
 11
213.794
 21
55.9536
  0
LINE
  8
0
 10
213.794
 20
55.9536
 11
213.387
 21
56.2152
  0
LINE
  8
0
 10
213.387
 20
56.2152
 11
213.07
 21
56.5809
  0
LINE
  8
0
 10
213.07
 20
56.5809
 11
212.869
 21
57.0211
  0
LINE
  8
0
 10
104.258
 20
55.8173
 11
103.794
 21
55.9536
  0
LINE
  8
0
 10
103.794
 20
55.9536
 11
103.387
 21
56.2152
  0
LINE
  8
0
 10
103.387
 20
56.2152
 11
103.07
 21
56.5809
  0
LINE
  8
0
 10
103.07
 20
56.5809
 11
102.869
 21
57.0211
  0
LINE
  8
0
 10
102.869
 20
57.0211
 11
102.8
 21
57.5
  0
LINE
  8
0
 10
102.8
 20
57.5
 11
102.869
 21
57.9789
  0
LINE
  8
0
 10
102.869
 20
57.9789
 11
103.07
 21
58.4191
  0
LINE
  8
0
 10
103.07
 20
58.4191
 11
103.387
 21
58.7848
  0
LINE
  8
0
 10
103.387
 20
58.7848
 11
103.794
 21
59.0464
  0
LINE
  8
0
 10
103.794
 20
59.0464
 11
104.258
 21
59.1827
  0
LINE
  8
0
 10
104.258
 20
59.1827
 11
104.742
 21
59.1827
  0
LINE
  8
0
 10
104.742
 20
59.1827
 11
105.206
 21
59.0464
  0
LINE
  8
0
 10
105.206
 20
59.0464
 11
105.613
 21
58.7848
  0
LINE
  8
0
 10
105.613
 20
58.7848
 11
105.93
 21
58.4191
  0
LINE
  8
0
 10
105.93
 20
58.4191
 11
106.131
 21
57.9789
  0
LINE
  8
0
 10
106.131
 20
57.9789
 11
106.2
 21
57.5
  0
LINE
  8
0
 10
106.2
 20
57.5
 11
106.131
 21
57.0211
  0
LINE
  8
0
 10
106.131
 20
57.0211
 11
105.93
 21
56.5809
  0
LINE
  8
0
 10
105.93
 20
56.5809
 11
105.613
 21
56.2152
  0
LINE
  8
0
 10
105.613
 20
56.2152
 11
105.206
 21
55.9536
  0
LINE
  8
0
 10
105.206
 20
55.9536
 11
104.742
 21
55.8173
  0
LINE
  8
0
 10
104.742
 20
55.8173
 11
104.258
 21
55.8173
  0
LINE
  8
0
 10
12.2581
 20
55.8173
 11
11.7938
 21
55.9536
  0
LINE
  8
0
 10
11.7938
 20
55.9536
 11
11.3867
 21
56.2152
  0
LINE
  8
0
 10
11.3867
 20
56.2152
 11
11.0699
 21
56.5809
  0
LINE
  8
0
 10
11.0699
 20
56.5809
 11
10.8689
 21
57.0211
  0
LINE
  8
0
 10
10.8689
 20
57.0211
 11
10.8
 21
57.5
  0
LINE
  8
0
 10
10.8
 20
57.5
 11
10.8689
 21
57.9789
  0
LINE
  8
0
 10
10.8689
 20
57.9789
 11
11.0699
 21
58.4191
  0
LINE
  8
0
 10
11.0699
 20
58.4191
 11
11.3867
 21
58.7848
  0
LINE
  8
0
 10
11.3867
 20
58.7848
 11
11.7938
 21
59.0464
  0
LINE
  8
0
 10
11.7938
 20
59.0464
 11
12.2581
 21
59.1827
  0
LINE
  8
0
 10
12.2581
 20
59.1827
 11
12.7419
 21
59.1827
  0
LINE
  8
0
 10
12.7419
 20
59.1827
 11
13.2062
 21
59.0464
  0
LINE
  8
0
 10
13.2062
 20
59.0464
 11
13.6133
 21
58.7848
  0
LINE
  8
0
 10
13.6133
 20
58.7848
 11
13.9301
 21
58.4191
  0
LINE
  8
0
 10
13.9301
 20
58.4191
 11
14.1311
 21
57.9789
  0
LINE
  8
0
 10
14.1311
 20
57.9789
 11
14.2
 21
57.5
  0
LINE
  8
0
 10
14.2
 20
57.5
 11
14.1311
 21
57.0211
  0
LINE
  8
0
 10
14.1311
 20
57.0211
 11
13.9301
 21
56.5809
  0
LINE
  8
0
 10
13.9301
 20
56.5809
 11
13.6133
 21
56.2152
  0
LINE
  8
0
 10
13.6133
 20
56.2152
 11
13.2062
 21
55.9536
  0
LINE
  8
0
 10
13.2062
 20
55.9536
 11
12.7419
 21
55.8173
  0
LINE
  8
0
 10
12.7419
 20
55.8173
 11
12.2581
 21
55.8173
  0
LINE
  8
0
 10
-92.9895
 20
22.8551
 11
-93.4545
 21
23.0179
  0
LINE
  8
0
 10
-93.4545
 20
23.0179
 11
-93.8717
 21
23.28
  0
LINE
  8
0
 10
-93.8717
 20
23.28
 11
-94.22
 21
23.6283
  0
LINE
  8
0
 10
-94.22
 20
23.6283
 11
-94.4821
 21
24.0455
  0
LINE
  8
0
 10
-94.4821
 20
24.0455
 11
-94.6448
 21
24.5105
  0
LINE
  8
0
 10
-94.6448
 20
24.5105
 11
-94.7
 21
25
  0
LINE
  8
0
 10
-94.7
 20
25
 11
-94.6448
 21
25.4895
  0
LINE
  8
0
 10
-94.6448
 20
25.4895
 11
-94.4821
 21
25.9545
  0
LINE
  8
0
 10
-94.4821
 20
25.9545
 11
-94.22
 21
26.3717
  0
LINE
  8
0
 10
-94.22
 20
26.3717
 11
-93.8717
 21
26.72
  0
LINE
  8
0
 10
-93.8717
 20
26.72
 11
-93.4545
 21
26.9821
  0
LINE
  8
0
 10
-93.4545
 20
26.9821
 11
-92.9895
 21
27.1448
  0
LINE
  8
0
 10
-92.9895
 20
27.1448
 11
-92.5
 21
27.2
  0
LINE
  8
0
 10
-92.5
 20
27.2
 11
-92.0105
 21
27.1448
  0
LINE
  8
0
 10
-92.0105
 20
27.1448
 11
-91.5455
 21
26.9821
  0
LINE
  8
0
 10
-91.5455
 20
26.9821
 11
-91.1283
 21
26.72
  0
LINE
  8
0
 10
-91.1283
 20
26.72
 11
-90.78
 21
26.3717
  0
LINE
  8
0
 10
-90.78
 20
26.3717
 11
-90.5179
 21
25.9545
  0
LINE
  8
0
 10
-90.5179
 20
25.9545
 11
-90.3551
 21
25.4895
  0
LINE
  8
0
 10
-90.3551
 20
25.4895
 11
-90.3
 21
25
  0
LINE
  8
0
 10
-90.3
 20
25
 11
-90.3551
 21
24.5105
  0
LINE
  8
0
 10
-90.3551
 20
24.5105
 11
-90.5179
 21
24.0455
  0
LINE
  8
0
 10
-90.5179
 20
24.0455
 11
-90.78
 21
23.6283
  0
LINE
  8
0
 10
-90.78
 20
23.6283
 11
-91.1283
 21
23.28
  0
LINE
  8
0
 10
-91.1283
 20
23.28
 11
-91.5455
 21
23.0179
  0
LINE
  8
0
 10
-91.5455
 20
23.0179
 11
-92.0105
 21
22.8551
  0
LINE
  8
0
 10
-92.0105
 20
22.8551
 11
-92.5
 21
22.8
  0
LINE
  8
0
 10
-92.5
 20
22.8
 11
-92.9895
 21
22.8551
  0
LINE
  8
0
 10
-42.9895
 20
22.8551
 11
-43.4545
 21
23.0179
  0
LINE
  8
0
 10
-43.4545
 20
23.0179
 11
-43.8717
 21
23.28
  0
LINE
  8
0
 10
-43.8717
 20
23.28
 11
-44.22
 21
23.6283
  0
LINE
  8
0
 10
-44.22
 20
23.6283
 11
-44.4821
 21
24.0455
  0
LINE
  8
0
 10
-44.4821
 20
24.0455
 11
-44.6448
 21
24.5105
  0
LINE
  8
0
 10
-44.6448
 20
24.5105
 11
-44.7
 21
25
  0
LINE
  8
0
 10
-44.7
 20
25
 11
-44.6448
 21
25.4895
  0
LINE
  8
0
 10
-44.6448
 20
25.4895
 11
-44.4821
 21
25.9545
  0
LINE
  8
0
 10
-44.4821
 20
25.9545
 11
-44.22
 21
26.3717
  0
LINE
  8
0
 10
-44.22
 20
26.3717
 11
-43.8717
 21
26.72
  0
LINE
  8
0
 10
-43.8717
 20
26.72
 11
-43.4545
 21
26.9821
  0
LINE
  8
0
 10
-43.4545
 20
26.9821
 11
-42.9895
 21
27.1448
  0
LINE
  8
0
 10
-42.9895
 20
27.1448
 11
-42.5
 21
27.2
  0
LINE
  8
0
 10
-42.5
 20
27.2
 11
-42.0105
 21
27.1448
  0
LINE
  8
0
 10
-42.0105
 20
27.1448
 11
-41.5455
 21
26.9821
  0
LINE
  8
0
 10
-41.5455
 20
26.9821
 11
-41.1283
 21
26.72
  0
LINE
  8
0
 10
-41.1283
 20
26.72
 11
-40.78
 21
26.3717
  0
LINE
  8
0
 10
-40.78
 20
26.3717
 11
-40.5179
 21
25.9545
  0
LINE
  8
0
 10
-40.5179
 20
25.9545
 11
-40.3551
 21
25.4895
  0
LINE
  8
0
 10
-40.3551
 20
25.4895
 11
-40.3
 21
25
  0
LINE
  8
0
 10
-40.3
 20
25
 11
-40.3551
 21
24.5105
  0
LINE
  8
0
 10
-40.3551
 20
24.5105
 11
-40.5179
 21
24.0455
  0
LINE
  8
0
 10
-40.5179
 20
24.0455
 11
-40.78
 21
23.6283
  0
LINE
  8
0
 10
-40.78
 20
23.6283
 11
-41.1283
 21
23.28
  0
LINE
  8
0
 10
-41.1283
 20
23.28
 11
-41.5455
 21
23.0179
  0
LINE
  8
0
 10
-41.5455
 20
23.0179
 11
-42.0105
 21
22.8551
  0
LINE
  8
0
 10
-42.0105
 20
22.8551
 11
-42.5
 21
22.8
  0
LINE
  8
0
 10
-42.5
 20
22.8
 11
-42.9895
 21
22.8551
  0
LINE
  8
0
 10
-4.50484
 20
-2.16942
 11
-4.50484
 21
2.16942
  0
LINE
  8
0
 10
-4.50484
 20
2.16942
 11
-1.11259
 21
4.87463
  0
LINE
  8
0
 10
-1.11259
 20
4.87463
 11
3.11745
 21
3.90915
  0
LINE
  8
0
 10
3.11745
 20
3.90915
 11
5
 21
0
  0
LINE
  8
0
 10
5
 20
0
 11
3.11745
 21
-3.90915
  0
LINE
  8
0
 10
3.11745
 20
-3.90915
 11
-1.11259
 21
-4.87463
  0
LINE
  8
0
 10
-1.11259
 20
-4.87463
 11
-4.50484
 21
-2.16942
  0
LINE
  8
0
 10
234.751
 20
-2.68848
 11
234.261
 21
-2.59692
  0
LINE
  8
0
 10
234.261
 20
-2.59692
 11
233.797
 21
-2.41693
  0
LINE
  8
0
 10
233.797
 20
-2.41693
 11
233.373
 21
-2.15463
  0
LINE
  8
0
 10
233.373
 20
-2.15463
 11
233.005
 21
-1.81897
  0
LINE
  8
0
 10
233.005
 20
-1.81897
 11
232.704
 21
-1.42136
  0
LINE
  8
0
 10
232.704
 20
-1.42136
 11
232.482
 21
-0.975342
  0
LINE
  8
0
 10
232.482
 20
-0.975342
 11
232.346
 21
-0.496109
  0
LINE
  8
0
 10
232.346
 20
-0.496109
 11
232.3
 21
0
  0
LINE
  8
0
 10
232.3
 20
0
 11
232.346
 21
0.496109
  0
LINE
  8
0
 10
232.346
 20
0.496109
 11
232.482
 21
0.975342
  0
LINE
  8
0
 10
232.482
 20
0.975342
 11
232.704
 21
1.42136
  0
LINE
  8
0
 10
232.704
 20
1.42136
 11
233.005
 21
1.81897
  0
LINE
  8
0
 10
233.005
 20
1.81897
 11
233.373
 21
2.15463
  0
LINE
  8
0
 10
233.373
 20
2.15463
 11
233.797
 21
2.41693
  0
LINE
  8
0
 10
233.797
 20
2.41693
 11
234.261
 21
2.59692
  0
LINE
  8
0
 10
234.261
 20
2.59692
 11
234.751
 21
2.68848
  0
LINE
  8
0
 10
234.751
 20
2.68848
 11
235.249
 21
2.68848
  0
LINE
  8
0
 10
235.249
 20
2.68848
 11
235.739
 21
2.59692
  0
LINE
  8
0
 10
235.739
 20
2.59692
 11
236.203
 21
2.41693
  0
LINE
  8
0
 10
236.203
 20
2.41693
 11
236.627
 21
2.15463
  0
LINE
  8
0
 10
236.627
 20
2.15463
 11
236.995
 21
1.81897
  0
LINE
  8
0
 10
236.995
 20
1.81897
 11
237.296
 21
1.42136
  0
LINE
  8
0
 10
237.296
 20
1.42136
 11
237.518
 21
0.975342
  0
LINE
  8
0
 10
237.518
 20
0.975342
 11
237.654
 21
0.496109
  0
LINE
  8
0
 10
237.654
 20
0.496109
 11
237.7
 21
0
  0
LINE
  8
0
 10
237.7
 20
0
 11
237.654
 21
-0.496109
  0
LINE
  8
0
 10
237.654
 20
-0.496109
 11
237.518
 21
-0.975342
  0
LINE
  8
0
 10
237.518
 20
-0.975342
 11
237.296
 21
-1.42136
  0
LINE
  8
0
 10
237.296
 20
-1.42136
 11
236.995
 21
-1.81897
  0
LINE
  8
0
 10
236.995
 20
-1.81897
 11
236.627
 21
-2.15463
  0
LINE
  8
0
 10
236.627
 20
-2.15463
 11
236.203
 21
-2.41693
  0
LINE
  8
0
 10
236.203
 20
-2.41693
 11
235.739
 21
-2.59692
  0
LINE
  8
0
 10
235.739
 20
-2.59692
 11
235.249
 21
-2.68848
  0
LINE
  8
0
 10
235.249
 20
-2.68848
 11
234.751
 21
-2.68848
  0
LINE
  8
0
 10
-235.249
 20
-2.68848
 11
-235.739
 21
-2.59692
  0
LINE
  8
0
 10
-235.739
 20
-2.59692
 11
-236.203
 21
-2.41693
  0
LINE
  8
0
 10
-236.203
 20
-2.41693
 11
-236.627
 21
-2.15463
  0
LINE
  8
0
 10
-236.627
 20
-2.15463
 11
-236.995
 21
-1.81897
  0
LINE
  8
0
 10
-236.995
 20
-1.81897
 11
-237.296
 21
-1.42136
  0
LINE
  8
0
 10
-237.296
 20
-1.42136
 11
-237.518
 21
-0.975342
  0
LINE
  8
0
 10
-237.518
 20
-0.975342
 11
-237.654
 21
-0.496109
  0
LINE
  8
0
 10
-237.654
 20
-0.496109
 11
-237.7
 21
0
  0
LINE
  8
0
 10
-237.7
 20
0
 11
-237.654
 21
0.496109
  0
LINE
  8
0
 10
-237.654
 20
0.496109
 11
-237.518
 21
0.975342
  0
LINE
  8
0
 10
-237.518
 20
0.975342
 11
-237.296
 21
1.42136
  0
LINE
  8
0
 10
-237.296
 20
1.42136
 11
-236.995
 21
1.81897
  0
LINE
  8
0
 10
-236.995
 20
1.81897
 11
-236.627
 21
2.15463
  0
LINE
  8
0
 10
-236.627
 20
2.15463
 11
-236.203
 21
2.41693
  0
LINE
  8
0
 10
-236.203
 20
2.41693
 11
-235.739
 21
2.59692
  0
LINE
  8
0
 10
-235.739
 20
2.59692
 11
-235.249
 21
2.68848
  0
LINE
  8
0
 10
-235.249
 20
2.68848
 11
-234.751
 21
2.68848
  0
LINE
  8
0
 10
-234.751
 20
2.68848
 11
-234.261
 21
2.59692
  0
LINE
  8
0
 10
-234.261
 20
2.59692
 11
-233.797
 21
2.41693
  0
LINE
  8
0
 10
-233.797
 20
2.41693
 11
-233.373
 21
2.15463
  0
LINE
  8
0
 10
-233.373
 20
2.15463
 11
-233.005
 21
1.81897
  0
LINE
  8
0
 10
-233.005
 20
1.81897
 11
-232.704
 21
1.42136
  0
LINE
  8
0
 10
-232.704
 20
1.42136
 11
-232.482
 21
0.975342
  0
LINE
  8
0
 10
-232.482
 20
0.975342
 11
-232.346
 21
0.496109
  0
LINE
  8
0
 10
-232.346
 20
0.496109
 11
-232.3
 21
0
  0
LINE
  8
0
 10
-232.3
 20
0
 11
-232.346
 21
-0.496109
  0
LINE
  8
0
 10
-232.346
 20
-0.496109
 11
-232.482
 21
-0.975342
  0
LINE
  8
0
 10
-232.482
 20
-0.975342
 11
-232.704
 21
-1.42136
  0
LINE
  8
0
 10
-232.704
 20
-1.42136
 11
-233.005
 21
-1.81897
  0
LINE
  8
0
 10
-233.005
 20
-1.81897
 11
-233.373
 21
-2.15463
  0
LINE
  8
0
 10
-233.373
 20
-2.15463
 11
-233.797
 21
-2.41693
  0
LINE
  8
0
 10
-233.797
 20
-2.41693
 11
-234.261
 21
-2.59692
  0
LINE
  8
0
 10
-234.261
 20
-2.59692
 11
-234.751
 21
-2.68848
  0
LINE
  8
0
 10
-234.751
 20
-2.68848
 11
-235.249
 21
-2.68848
  0
LINE
  8
0
 10
12.2581
 20
-59.1827
 11
11.7938
 21
-59.0464
  0
LINE
  8
0
 10
11.7938
 20
-59.0464
 11
11.3867
 21
-58.7848
  0
LINE
  8
0
 10
11.3867
 20
-58.7848
 11
11.0699
 21
-58.4191
  0
LINE
  8
0
 10
11.0699
 20
-58.4191
 11
10.8689
 21
-57.9789
  0
LINE
  8
0
 10
10.8689
 20
-57.9789
 11
10.8
 21
-57.5
  0
LINE
  8
0
 10
10.8
 20
-57.5
 11
10.8689
 21
-57.0211
  0
LINE
  8
0
 10
10.8689
 20
-57.0211
 11
11.0699
 21
-56.5809
  0
LINE
  8
0
 10
11.0699
 20
-56.5809
 11
11.3867
 21
-56.2152
  0
LINE
  8
0
 10
11.3867
 20
-56.2152
 11
11.7938
 21
-55.9536
  0
LINE
  8
0
 10
11.7938
 20
-55.9536
 11
12.2581
 21
-55.8173
  0
LINE
  8
0
 10
12.2581
 20
-55.8173
 11
12.7419
 21
-55.8173
  0
LINE
  8
0
 10
12.7419
 20
-55.8173
 11
13.2062
 21
-55.9536
  0
LINE
  8
0
 10
13.2062
 20
-55.9536
 11
13.6133
 21
-56.2152
  0
LINE
  8
0
 10
13.6133
 20
-56.2152
 11
13.9301
 21
-56.5809
  0
LINE
  8
0
 10
13.9301
 20
-56.5809
 11
14.1311
 21
-57.0211
  0
LINE
  8
0
 10
14.1311
 20
-57.0211
 11
14.2
 21
-57.5
  0
LINE
  8
0
 10
14.2
 20
-57.5
 11
14.1311
 21
-57.9789
  0
LINE
  8
0
 10
14.1311
 20
-57.9789
 11
13.9301
 21
-58.4191
  0
LINE
  8
0
 10
13.9301
 20
-58.4191
 11
13.6133
 21
-58.7848
  0
LINE
  8
0
 10
13.6133
 20
-58.7848
 11
13.2062
 21
-59.0464
  0
LINE
  8
0
 10
13.2062
 20
-59.0464
 11
12.7419
 21
-59.1827
  0
LINE
  8
0
 10
12.7419
 20
-59.1827
 11
12.2581
 21
-59.1827
  0
LINE
  8
0
 10
213.794
 20
-55.9536
 11
214.258
 21
-55.8173
  0
LINE
  8
0
 10
214.258
 20
-55.8173
 11
214.742
 21
-55.8173
  0
LINE
  8
0
 10
214.742
 20
-55.8173
 11
215.206
 21
-55.9536
  0
LINE
  8
0
 10
215.206
 20
-55.9536
 11
215.613
 21
-56.2152
  0
LINE
  8
0
 10
215.613
 20
-56.2152
 11
215.93
 21
-56.5809
  0
LINE
  8
0
 10
215.93
 20
-56.5809
 11
216.131
 21
-57.0211
  0
LINE
  8
0
 10
216.131
 20
-57.0211
 11
216.2
 21
-57.5
  0
LINE
  8
0
 10
216.2
 20
-57.5
 11
216.131
 21
-57.9789
  0
LINE
  8
0
 10
216.131
 20
-57.9789
 11
215.93
 21
-58.4191
  0
LINE
  8
0
 10
215.93
 20
-58.4191
 11
215.613
 21
-58.7848
  0
LINE
  8
0
 10
215.613
 20
-58.7848
 11
215.206
 21
-59.0464
  0
LINE
  8
0
 10
215.206
 20
-59.0464
 11
214.742
 21
-59.1827
  0
LINE
  8
0
 10
214.742
 20
-59.1827
 11
214.258
 21
-59.1827
  0
LINE
  8
0
 10
214.258
 20
-59.1827
 11
213.794
 21
-59.0464
  0
LINE
  8
0
 10
213.794
 20
-59.0464
 11
213.387
 21
-58.7848
  0
LINE
  8
0
 10
213.387
 20
-58.7848
 11
213.07
 21
-58.4191
  0
LINE
  8
0
 10
213.07
 20
-58.4191
 11
212.869
 21
-57.9789
  0
LINE
  8
0
 10
212.869
 20
-57.9789
 11
212.8
 21
-57.5
  0
LINE
  8
0
 10
212.8
 20
-57.5
 11
212.869
 21
-57.0211
  0
LINE
  8
0
 10
212.869
 20
-57.0211
 11
213.07
 21
-56.5809
  0
LINE
  8
0
 10
213.07
 20
-56.5809
 11
213.387
 21
-56.2152
  0
LINE
  8
0
 10
213.387
 20
-56.2152
 11
213.794
 21
-55.9536
  0
LINE
  8
0
 10
104.258
 20
-59.1827
 11
103.794
 21
-59.0464
  0
LINE
  8
0
 10
103.794
 20
-59.0464
 11
103.387
 21
-58.7848
  0
LINE
  8
0
 10
103.387
 20
-58.7848
 11
103.07
 21
-58.4191
  0
LINE
  8
0
 10
103.07
 20
-58.4191
 11
102.869
 21
-57.9789
  0
LINE
  8
0
 10
102.869
 20
-57.9789
 11
102.8
 21
-57.5
  0
LINE
  8
0
 10
102.8
 20
-57.5
 11
102.869
 21
-57.0211
  0
LINE
  8
0
 10
102.869
 20
-57.0211
 11
103.07
 21
-56.5809
  0
LINE
  8
0
 10
103.07
 20
-56.5809
 11
103.387
 21
-56.2152
  0
LINE
  8
0
 10
103.387
 20
-56.2152
 11
103.794
 21
-55.9536
  0
LINE
  8
0
 10
103.794
 20
-55.9536
 11
104.258
 21
-55.8173
  0
LINE
  8
0
 10
104.258
 20
-55.8173
 11
104.742
 21
-55.8173
  0
LINE
  8
0
 10
104.742
 20
-55.8173
 11
105.206
 21
-55.9536
  0
LINE
  8
0
 10
105.206
 20
-55.9536
 11
105.613
 21
-56.2152
  0
LINE
  8
0
 10
105.613
 20
-56.2152
 11
105.93
 21
-56.5809
  0
LINE
  8
0
 10
105.93
 20
-56.5809
 11
106.131
 21
-57.0211
  0
LINE
  8
0
 10
106.131
 20
-57.0211
 11
106.2
 21
-57.5
  0
LINE
  8
0
 10
106.2
 20
-57.5
 11
106.131
 21
-57.9789
  0
LINE
  8
0
 10
106.131
 20
-57.9789
 11
105.93
 21
-58.4191
  0
LINE
  8
0
 10
105.93
 20
-58.4191
 11
105.613
 21
-58.7848
  0
LINE
  8
0
 10
105.613
 20
-58.7848
 11
105.206
 21
-59.0464
  0
LINE
  8
0
 10
105.206
 20
-59.0464
 11
104.742
 21
-59.1827
  0
LINE
  8
0
 10
104.742
 20
-59.1827
 11
104.258
 21
-59.1827
  0
LINE
  8
0
 10
89.5105
 20
-95.6448
 11
89.0455
 21
-95.4821
  0
LINE
  8
0
 10
89.0455
 20
-95.4821
 11
88.6283
 21
-95.22
  0
LINE
  8
0
 10
88.6283
 20
-95.22
 11
88.28
 21
-94.8717
  0
LINE
  8
0
 10
88.28
 20
-94.8717
 11
88.0179
 21
-94.4545
  0
LINE
  8
0
 10
88.0179
 20
-94.4545
 11
87.8551
 21
-93.9895
  0
LINE
  8
0
 10
87.8551
 20
-93.9895
 11
87.8
 21
-93.5
  0
LINE
  8
0
 10
87.8
 20
-93.5
 11
87.8551
 21
-93.0105
  0
LINE
  8
0
 10
87.8551
 20
-93.0105
 11
88.0179
 21
-92.5455
  0
LINE
  8
0
 10
88.0179
 20
-92.5455
 11
88.28
 21
-92.1283
  0
LINE
  8
0
 10
88.28
 20
-92.1283
 11
88.6283
 21
-91.78
  0
LINE
  8
0
 10
88.6283
 20
-91.78
 11
89.0455
 21
-91.5179
  0
LINE
  8
0
 10
89.0455
 20
-91.5179
 11
89.5105
 21
-91.3551
  0
LINE
  8
0
 10
89.5105
 20
-91.3551
 11
90
 21
-91.3
  0
LINE
  8
0
 10
90
 20
-91.3
 11
90.4895
 21
-91.3551
  0
LINE
  8
0
 10
90.4895
 20
-91.3551
 11
90.9545
 21
-91.5179
  0
LINE
  8
0
 10
90.9545
 20
-91.5179
 11
91.3717
 21
-91.78
  0
LINE
  8
0
 10
91.3717
 20
-91.78
 11
91.72
 21
-92.1283
  0
LINE
  8
0
 10
91.72
 20
-92.1283
 11
91.9821
 21
-92.5455
  0
LINE
  8
0
 10
91.9821
 20
-92.5455
 11
92.1448
 21
-93.0105
  0
LINE
  8
0
 10
92.1448
 20
-93.0105
 11
92.2
 21
-93.5
  0
LINE
  8
0
 10
92.2
 20
-93.5
 11
92.1448
 21
-93.9895
  0
LINE
  8
0
 10
92.1448
 20
-93.9895
 11
91.9821
 21
-94.4545
  0
LINE
  8
0
 10
91.9821
 20
-94.4545
 11
91.72
 21
-94.8717
  0
LINE
  8
0
 10
91.72
 20
-94.8717
 11
91.3717
 21
-95.22
  0
LINE
  8
0
 10
91.3717
 20
-95.22
 11
90.9545
 21
-95.4821
  0
LINE
  8
0
 10
90.9545
 20
-95.4821
 11
90.4895
 21
-95.6448
  0
LINE
  8
0
 10
90.4895
 20
-95.6448
 11
90
 21
-95.7
  0
LINE
  8
0
 10
90
 20
-95.7
 11
89.5105
 21
-95.6448
  0
LINE
  8
0
 10
34.5105
 20
-95.6448
 11
34.0455
 21
-95.4821
  0
LINE
  8
0
 10
34.0455
 20
-95.4821
 11
33.6283
 21
-95.22
  0
LINE
  8
0
 10
33.6283
 20
-95.22
 11
33.28
 21
-94.8717
  0
LINE
  8
0
 10
33.28
 20
-94.8717
 11
33.0179
 21
-94.4545
  0
LINE
  8
0
 10
33.0179
 20
-94.4545
 11
32.8551
 21
-93.9895
  0
LINE
  8
0
 10
32.8551
 20
-93.9895
 11
32.8
 21
-93.5
  0
LINE
  8
0
 10
32.8
 20
-93.5
 11
32.8551
 21
-93.0105
  0
LINE
  8
0
 10
32.8551
 20
-93.0105
 11
33.0179
 21
-92.5455
  0
LINE
  8
0
 10
33.0179
 20
-92.5455
 11
33.28
 21
-92.1283
  0
LINE
  8
0
 10
33.28
 20
-92.1283
 11
33.6283
 21
-91.78
  0
LINE
  8
0
 10
33.6283
 20
-91.78
 11
34.0455
 21
-91.5179
  0
LINE
  8
0
 10
34.0455
 20
-91.5179
 11
34.5105
 21
-91.3551
  0
LINE
  8
0
 10
34.5105
 20
-91.3551
 11
35
 21
-91.3
  0
LINE
  8
0
 10
35
 20
-91.3
 11
35.4895
 21
-91.3551
  0
LINE
  8
0
 10
35.4895
 20
-91.3551
 11
35.9545
 21
-91.5179
  0
LINE
  8
0
 10
35.9545
 20
-91.5179
 11
36.3717
 21
-91.78
  0
LINE
  8
0
 10
36.3717
 20
-91.78
 11
36.72
 21
-92.1283
  0
LINE
  8
0
 10
36.72
 20
-92.1283
 11
36.9821
 21
-92.5455
  0
LINE
  8
0
 10
36.9821
 20
-92.5455
 11
37.1448
 21
-93.0105
  0
LINE
  8
0
 10
37.1448
 20
-93.0105
 11
37.2
 21
-93.5
  0
LINE
  8
0
 10
37.2
 20
-93.5
 11
37.1448
 21
-93.9895
  0
LINE
  8
0
 10
37.1448
 20
-93.9895
 11
36.9821
 21
-94.4545
  0
LINE
  8
0
 10
36.9821
 20
-94.4545
 11
36.72
 21
-94.8717
  0
LINE
  8
0
 10
36.72
 20
-94.8717
 11
36.3717
 21
-95.22
  0
LINE
  8
0
 10
36.3717
 20
-95.22
 11
35.9545
 21
-95.4821
  0
LINE
  8
0
 10
35.9545
 20
-95.4821
 11
35.4895
 21
-95.6448
  0
LINE
  8
0
 10
35.4895
 20
-95.6448
 11
35
 21
-95.7
  0
LINE
  8
0
 10
35
 20
-95.7
 11
34.5105
 21
-95.6448
  0
LINE
  8
0
 10
-192.086
 20
-124.274
 11
-187.56
 21
-119.749
  0
LINE
  8
0
 10
-187.56
 20
-119.749
 11
-165.003
 21
-142.305
  0
LINE
  8
0
 10
-165.003
 20
-142.305
 11
-169.529
 21
-146.831
  0
LINE
  8
0
 10
-169.529
 20
-146.831
 11
-192.086
 21
-124.274
  0
LINE
  8
0
 10
165.003
 20
-142.305
 11
187.56
 21
-119.749
  0
LINE
  8
0
 10
187.56
 20
-119.749
 11
192.086
 21
-124.274
  0
LINE
  8
0
 10
192.086
 20
-124.274
 11
169.529
 21
-146.831
  0
LINE
  8
0
 10
169.529
 20
-146.831
 11
165.003
 21
-142.305
  0
LINE
  8
0
 10
-92.9895
 20
-127.145
 11
-93.4545
 21
-126.982
  0
LINE
  8
0
 10
-93.4545
 20
-126.982
 11
-93.8717
 21
-126.72
  0
LINE
  8
0
 10
-93.8717
 20
-126.72
 11
-94.22
 21
-126.372
  0
LINE
  8
0
 10
-94.22
 20
-126.372
 11
-94.4821
 21
-125.955
  0
LINE
  8
0
 10
-94.4821
 20
-125.955
 11
-94.6448
 21
-125.49
  0
LINE
  8
0
 10
-94.6448
 20
-125.49
 11
-94.7
 21
-125
  0
LINE
  8
0
 10
-94.7
 20
-125
 11
-94.6448
 21
-124.51
  0
LINE
  8
0
 10
-94.6448
 20
-124.51
 11
-94.4821
 21
-124.045
  0
LINE
  8
0
 10
-94.4821
 20
-124.045
 11
-94.22
 21
-123.628
  0
LINE
  8
0
 10
-94.22
 20
-123.628
 11
-93.8717
 21
-123.28
  0
LINE
  8
0
 10
-93.8717
 20
-123.28
 11
-93.4545
 21
-123.018
  0
LINE
  8
0
 10
-93.4545
 20
-123.018
 11
-92.9895
 21
-122.855
  0
LINE
  8
0
 10
-92.9895
 20
-122.855
 11
-92.5
 21
-122.8
  0
LINE
  8
0
 10
-92.5
 20
-122.8
 11
-92.0105
 21
-122.855
  0
LINE
  8
0
 10
-92.0105
 20
-122.855
 11
-91.5455
 21
-123.018
  0
LINE
  8
0
 10
-91.5455
 20
-123.018
 11
-91.1283
 21
-123.28
  0
LINE
  8
0
 10
-91.1283
 20
-123.28
 11
-90.78
 21
-123.628
  0
LINE
  8
0
 10
-90.78
 20
-123.628
 11
-90.5179
 21
-124.045
  0
LINE
  8
0
 10
-90.5179
 20
-124.045
 11
-90.3551
 21
-124.51
  0
LINE
  8
0
 10
-90.3551
 20
-124.51
 11
-90.3
 21
-125
  0
LINE
  8
0
 10
-90.3
 20
-125
 11
-90.3551
 21
-125.49
  0
LINE
  8
0
 10
-90.3551
 20
-125.49
 11
-90.5179
 21
-125.955
  0
LINE
  8
0
 10
-90.5179
 20
-125.955
 11
-90.78
 21
-126.372
  0
LINE
  8
0
 10
-90.78
 20
-126.372
 11
-91.1283
 21
-126.72
  0
LINE
  8
0
 10
-91.1283
 20
-126.72
 11
-91.5455
 21
-126.982
  0
LINE
  8
0
 10
-91.5455
 20
-126.982
 11
-92.0105
 21
-127.145
  0
LINE
  8
0
 10
-92.0105
 20
-127.145
 11
-92.5
 21
-127.2
  0
LINE
  8
0
 10
-92.5
 20
-127.2
 11
-92.9895
 21
-127.145
  0
LINE
  8
0
 10
-42.9895
 20
-127.145
 11
-43.4545
 21
-126.982
  0
LINE
  8
0
 10
-43.4545
 20
-126.982
 11
-43.8717
 21
-126.72
  0
LINE
  8
0
 10
-43.8717
 20
-126.72
 11
-44.22
 21
-126.372
  0
LINE
  8
0
 10
-44.22
 20
-126.372
 11
-44.4821
 21
-125.955
  0
LINE
  8
0
 10
-44.4821
 20
-125.955
 11
-44.6448
 21
-125.49
  0
LINE
  8
0
 10
-44.6448
 20
-125.49
 11
-44.7
 21
-125
  0
LINE
  8
0
 10
-44.7
 20
-125
 11
-44.6448
 21
-124.51
  0
LINE
  8
0
 10
-44.6448
 20
-124.51
 11
-44.4821
 21
-124.045
  0
LINE
  8
0
 10
-44.4821
 20
-124.045
 11
-44.22
 21
-123.628
  0
LINE
  8
0
 10
-44.22
 20
-123.628
 11
-43.8717
 21
-123.28
  0
LINE
  8
0
 10
-43.8717
 20
-123.28
 11
-43.4545
 21
-123.018
  0
LINE
  8
0
 10
-43.4545
 20
-123.018
 11
-42.9895
 21
-122.855
  0
LINE
  8
0
 10
-42.9895
 20
-122.855
 11
-42.5
 21
-122.8
  0
LINE
  8
0
 10
-42.5
 20
-122.8
 11
-42.0105
 21
-122.855
  0
LINE
  8
0
 10
-42.0105
 20
-122.855
 11
-41.5455
 21
-123.018
  0
LINE
  8
0
 10
-41.5455
 20
-123.018
 11
-41.1283
 21
-123.28
  0
LINE
  8
0
 10
-41.1283
 20
-123.28
 11
-40.78
 21
-123.628
  0
LINE
  8
0
 10
-40.78
 20
-123.628
 11
-40.5179
 21
-124.045
  0
LINE
  8
0
 10
-40.5179
 20
-124.045
 11
-40.3551
 21
-124.51
  0
LINE
  8
0
 10
-40.3551
 20
-124.51
 11
-40.3
 21
-125
  0
LINE
  8
0
 10
-40.3
 20
-125
 11
-40.3551
 21
-125.49
  0
LINE
  8
0
 10
-40.3551
 20
-125.49
 11
-40.5179
 21
-125.955
  0
LINE
  8
0
 10
-40.5179
 20
-125.955
 11
-40.78
 21
-126.372
  0
LINE
  8
0
 10
-40.78
 20
-126.372
 11
-41.1283
 21
-126.72
  0
LINE
  8
0
 10
-41.1283
 20
-126.72
 11
-41.5455
 21
-126.982
  0
LINE
  8
0
 10
-41.5455
 20
-126.982
 11
-42.0105
 21
-127.145
  0
LINE
  8
0
 10
-42.0105
 20
-127.145
 11
-42.5
 21
-127.2
  0
LINE
  8
0
 10
-42.5
 20
-127.2
 11
-42.9895
 21
-127.145
  0
LINE
  8
0
 10
89.5105
 20
-143.645
 11
89.0455
 21
-143.482
  0
LINE
  8
0
 10
89.0455
 20
-143.482
 11
88.6283
 21
-143.22
  0
LINE
  8
0
 10
88.6283
 20
-143.22
 11
88.28
 21
-142.872
  0
LINE
  8
0
 10
88.28
 20
-142.872
 11
88.0179
 21
-142.455
  0
LINE
  8
0
 10
88.0179
 20
-142.455
 11
87.8551
 21
-141.99
  0
LINE
  8
0
 10
87.8551
 20
-141.99
 11
87.8
 21
-141.5
  0
LINE
  8
0
 10
87.8
 20
-141.5
 11
87.8551
 21
-141.01
  0
LINE
  8
0
 10
87.8551
 20
-141.01
 11
88.0179
 21
-140.545
  0
LINE
  8
0
 10
88.0179
 20
-140.545
 11
88.28
 21
-140.128
  0
LINE
  8
0
 10
88.28
 20
-140.128
 11
88.6283
 21
-139.78
  0
LINE
  8
0
 10
88.6283
 20
-139.78
 11
89.0455
 21
-139.518
  0
LINE
  8
0
 10
89.0455
 20
-139.518
 11
89.5105
 21
-139.355
  0
LINE
  8
0
 10
89.5105
 20
-139.355
 11
90
 21
-139.3
  0
LINE
  8
0
 10
90
 20
-139.3
 11
90.4895
 21
-139.355
  0
LINE
  8
0
 10
90.4895
 20
-139.355
 11
90.9545
 21
-139.518
  0
LINE
  8
0
 10
90.9545
 20
-139.518
 11
91.3717
 21
-139.78
  0
LINE
  8
0
 10
91.3717
 20
-139.78
 11
91.72
 21
-140.128
  0
LINE
  8
0
 10
91.72
 20
-140.128
 11
91.9821
 21
-140.545
  0
LINE
  8
0
 10
91.9821
 20
-140.545
 11
92.1448
 21
-141.01
  0
LINE
  8
0
 10
92.1448
 20
-141.01
 11
92.2
 21
-141.5
  0
LINE
  8
0
 10
92.2
 20
-141.5
 11
92.1448
 21
-141.99
  0
LINE
  8
0
 10
92.1448
 20
-141.99
 11
91.9821
 21
-142.455
  0
LINE
  8
0
 10
91.9821
 20
-142.455
 11
91.72
 21
-142.872
  0
LINE
  8
0
 10
91.72
 20
-142.872
 11
91.3717
 21
-143.22
  0
LINE
  8
0
 10
91.3717
 20
-143.22
 11
90.9545
 21
-143.482
  0
LINE
  8
0
 10
90.9545
 20
-143.482
 11
90.4895
 21
-143.645
  0
LINE
  8
0
 10
90.4895
 20
-143.645
 11
90
 21
-143.7
  0
LINE
  8
0
 10
90
 20
-143.7
 11
89.5105
 21
-143.645
  0
LINE
  8
0
 10
34.5105
 20
-143.645
 11
34.0455
 21
-143.482
  0
LINE
  8
0
 10
34.0455
 20
-143.482
 11
33.6283
 21
-143.22
  0
LINE
  8
0
 10
33.6283
 20
-143.22
 11
33.28
 21
-142.872
  0
LINE
  8
0
 10
33.28
 20
-142.872
 11
33.0179
 21
-142.455
  0
LINE
  8
0
 10
33.0179
 20
-142.455
 11
32.8551
 21
-141.99
  0
LINE
  8
0
 10
32.8551
 20
-141.99
 11
32.8
 21
-141.5
  0
LINE
  8
0
 10
32.8
 20
-141.5
 11
32.8551
 21
-141.01
  0
LINE
  8
0
 10
32.8551
 20
-141.01
 11
33.0179
 21
-140.545
  0
LINE
  8
0
 10
33.0179
 20
-140.545
 11
33.28
 21
-140.128
  0
LINE
  8
0
 10
33.28
 20
-140.128
 11
33.6283
 21
-139.78
  0
LINE
  8
0
 10
33.6283
 20
-139.78
 11
34.0455
 21
-139.518
  0
LINE
  8
0
 10
34.0455
 20
-139.518
 11
34.5105
 21
-139.355
  0
LINE
  8
0
 10
34.5105
 20
-139.355
 11
35
 21
-139.3
  0
LINE
  8
0
 10
35
 20
-139.3
 11
35.4895
 21
-139.355
  0
LINE
  8
0
 10
35.4895
 20
-139.355
 11
35.9545
 21
-139.518
  0
LINE
  8
0
 10
35.9545
 20
-139.518
 11
36.3717
 21
-139.78
  0
LINE
  8
0
 10
36.3717
 20
-139.78
 11
36.72
 21
-140.128
  0
LINE
  8
0
 10
36.72
 20
-140.128
 11
36.9821
 21
-140.545
  0
LINE
  8
0
 10
36.9821
 20
-140.545
 11
37.1448
 21
-141.01
  0
LINE
  8
0
 10
37.1448
 20
-141.01
 11
37.2
 21
-141.5
  0
LINE
  8
0
 10
37.2
 20
-141.5
 11
37.1448
 21
-141.99
  0
LINE
  8
0
 10
37.1448
 20
-141.99
 11
36.9821
 21
-142.455
  0
LINE
  8
0
 10
36.9821
 20
-142.455
 11
36.72
 21
-142.872
  0
LINE
  8
0
 10
36.72
 20
-142.872
 11
36.3717
 21
-143.22
  0
LINE
  8
0
 10
36.3717
 20
-143.22
 11
35.9545
 21
-143.482
  0
LINE
  8
0
 10
35.9545
 20
-143.482
 11
35.4895
 21
-143.645
  0
LINE
  8
0
 10
35.4895
 20
-143.645
 11
35
 21
-143.7
  0
LINE
  8
0
 10
35
 20
-143.7
 11
34.5105
 21
-143.645
  0
LINE
  8
0
 10
-235.249
 20
-152.688
 11
-235.739
 21
-152.597
  0
LINE
  8
0
 10
-235.739
 20
-152.597
 11
-236.203
 21
-152.417
  0
LINE
  8
0
 10
-236.203
 20
-152.417
 11
-236.627
 21
-152.155
  0
LINE
  8
0
 10
-236.627
 20
-152.155
 11
-236.995
 21
-151.819
  0
LINE
  8
0
 10
-236.995
 20
-151.819
 11
-237.296
 21
-151.421
  0
LINE
  8
0
 10
-237.296
 20
-151.421
 11
-237.518
 21
-150.975
  0
LINE
  8
0
 10
-237.518
 20
-150.975
 11
-237.654
 21
-150.496
  0
LINE
  8
0
 10
-237.654
 20
-150.496
 11
-237.7
 21
-150
  0
LINE
  8
0
 10
-237.7
 20
-150
 11
-237.654
 21
-149.504
  0
LINE
  8
0
 10
-237.654
 20
-149.504
 11
-237.518
 21
-149.025
  0
LINE
  8
0
 10
-237.518
 20
-149.025
 11
-237.296
 21
-148.579
  0
LINE
  8
0
 10
-237.296
 20
-148.579
 11
-236.995
 21
-148.181
  0
LINE
  8
0
 10
-236.995
 20
-148.181
 11
-236.627
 21
-147.845
  0
LINE
  8
0
 10
-236.627
 20
-147.845
 11
-236.203
 21
-147.583
  0
LINE
  8
0
 10
-236.203
 20
-147.583
 11
-235.739
 21
-147.403
  0
LINE
  8
0
 10
-235.739
 20
-147.403
 11
-235.249
 21
-147.312
  0
LINE
  8
0
 10
-235.249
 20
-147.312
 11
-234.751
 21
-147.312
  0
LINE
  8
0
 10
-234.751
 20
-147.312
 11
-234.261
 21
-147.403
  0
LINE
  8
0
 10
-234.261
 20
-147.403
 11
-233.797
 21
-147.583
  0
LINE
  8
0
 10
-233.797
 20
-147.583
 11
-233.373
 21
-147.845
  0
LINE
  8
0
 10
-233.373
 20
-147.845
 11
-233.005
 21
-148.181
  0
LINE
  8
0
 10
-233.005
 20
-148.181
 11
-232.704
 21
-148.579
  0
LINE
  8
0
 10
-232.704
 20
-148.579
 11
-232.482
 21
-149.025
  0
LINE
  8
0
 10
-232.482
 20
-149.025
 11
-232.346
 21
-149.504
  0
LINE
  8
0
 10
-232.346
 20
-149.504
 11
-232.3
 21
-150
  0
LINE
  8
0
 10
-232.3
 20
-150
 11
-232.346
 21
-150.496
  0
LINE
  8
0
 10
-232.346
 20
-150.496
 11
-232.482
 21
-150.975
  0
LINE
  8
0
 10
-232.482
 20
-150.975
 11
-232.704
 21
-151.421
  0
LINE
  8
0
 10
-232.704
 20
-151.421
 11
-233.005
 21
-151.819
  0
LINE
  8
0
 10
-233.005
 20
-151.819
 11
-233.373
 21
-152.155
  0
LINE
  8
0
 10
-233.373
 20
-152.155
 11
-233.797
 21
-152.417
  0
LINE
  8
0
 10
-233.797
 20
-152.417
 11
-234.261
 21
-152.597
  0
LINE
  8
0
 10
-234.261
 20
-152.597
 11
-234.751
 21
-152.688
  0
LINE
  8
0
 10
-234.751
 20
-152.688
 11
-235.249
 21
-152.688
  0
LINE
  8
0
 10
234.751
 20
-152.688
 11
234.261
 21
-152.597
  0
LINE
  8
0
 10
234.261
 20
-152.597
 11
233.797
 21
-152.417
  0
LINE
  8
0
 10
233.797
 20
-152.417
 11
233.373
 21
-152.155
  0
LINE
  8
0
 10
233.373
 20
-152.155
 11
233.005
 21
-151.819
  0
LINE
  8
0
 10
233.005
 20
-151.819
 11
232.704
 21
-151.421
  0
LINE
  8
0
 10
232.704
 20
-151.421
 11
232.482
 21
-150.975
  0
LINE
  8
0
 10
232.482
 20
-150.975
 11
232.346
 21
-150.496
  0
LINE
  8
0
 10
232.346
 20
-150.496
 11
232.3
 21
-150
  0
LINE
  8
0
 10
232.3
 20
-150
 11
232.346
 21
-149.504
  0
LINE
  8
0
 10
232.346
 20
-149.504
 11
232.482
 21
-149.025
  0
LINE
  8
0
 10
232.482
 20
-149.025
 11
232.704
 21
-148.579
  0
LINE
  8
0
 10
232.704
 20
-148.579
 11
233.005
 21
-148.181
  0
LINE
  8
0
 10
233.005
 20
-148.181
 11
233.373
 21
-147.845
  0
LINE
  8
0
 10
233.373
 20
-147.845
 11
233.797
 21
-147.583
  0
LINE
  8
0
 10
233.797
 20
-147.583
 11
234.261
 21
-147.403
  0
LINE
  8
0
 10
234.261
 20
-147.403
 11
234.751
 21
-147.312
  0
LINE
  8
0
 10
234.751
 20
-147.312
 11
235.249
 21
-147.312
  0
LINE
  8
0
 10
235.249
 20
-147.312
 11
235.739
 21
-147.403
  0
LINE
  8
0
 10
235.739
 20
-147.403
 11
236.203
 21
-147.583
  0
LINE
  8
0
 10
236.203
 20
-147.583
 11
236.627
 21
-147.845
  0
LINE
  8
0
 10
236.627
 20
-147.845
 11
236.995
 21
-148.181
  0
LINE
  8
0
 10
236.995
 20
-148.181
 11
237.296
 21
-148.579
  0
LINE
  8
0
 10
237.296
 20
-148.579
 11
237.518
 21
-149.025
  0
LINE
  8
0
 10
237.518
 20
-149.025
 11
237.654
 21
-149.504
  0
LINE
  8
0
 10
237.654
 20
-149.504
 11
237.7
 21
-150
  0
LINE
  8
0
 10
237.7
 20
-150
 11
237.654
 21
-150.496
  0
LINE
  8
0
 10
237.654
 20
-150.496
 11
237.518
 21
-150.975
  0
LINE
  8
0
 10
237.518
 20
-150.975
 11
237.296
 21
-151.421
  0
LINE
  8
0
 10
237.296
 20
-151.421
 11
236.995
 21
-151.819
  0
LINE
  8
0
 10
236.995
 20
-151.819
 11
236.627
 21
-152.155
  0
LINE
  8
0
 10
236.627
 20
-152.155
 11
236.203
 21
-152.417
  0
LINE
  8
0
 10
236.203
 20
-152.417
 11
235.739
 21
-152.597
  0
LINE
  8
0
 10
235.739
 20
-152.597
 11
235.249
 21
-152.688
  0
LINE
  8
0
 10
235.249
 20
-152.688
 11
234.751
 21
-152.688
  0
LINE
  8
0
 10
-146.831
 20
-169.529
 11
-142.305
 21
-165.003
  0
LINE
  8
0
 10
-142.305
 20
-165.003
 11
-119.749
 21
-187.56
  0
LINE
  8
0
 10
-119.749
 20
-187.56
 11
-124.274
 21
-192.086
  0
LINE
  8
0
 10
-124.274
 20
-192.086
 11
-146.831
 21
-169.529
  0
LINE
  8
0
 10
119.749
 20
-187.56
 11
142.305
 21
-165.003
  0
LINE
  8
0
 10
142.305
 20
-165.003
 11
146.831
 21
-169.529
  0
LINE
  8
0
 10
146.831
 20
-169.529
 11
124.274
 21
-192.086
  0
LINE
  8
0
 10
124.274
 20
-192.086
 11
119.749
 21
-187.56
  0
LINE
  8
0
 10
234.751
 20
-172.688
 11
234.261
 21
-172.597
  0
LINE
  8
0
 10
234.261
 20
-172.597
 11
233.797
 21
-172.417
  0
LINE
  8
0
 10
233.797
 20
-172.417
 11
233.373
 21
-172.155
  0
LINE
  8
0
 10
233.373
 20
-172.155
 11
233.005
 21
-171.819
  0
LINE
  8
0
 10
233.005
 20
-171.819
 11
232.704
 21
-171.421
  0
LINE
  8
0
 10
232.704
 20
-171.421
 11
232.482
 21
-170.975
  0
LINE
  8
0
 10
232.482
 20
-170.975
 11
232.346
 21
-170.496
  0
LINE
  8
0
 10
232.346
 20
-170.496
 11
232.3
 21
-170
  0
LINE
  8
0
 10
232.3
 20
-170
 11
232.346
 21
-169.504
  0
LINE
  8
0
 10
232.346
 20
-169.504
 11
232.482
 21
-169.025
  0
LINE
  8
0
 10
232.482
 20
-169.025
 11
232.704
 21
-168.579
  0
LINE
  8
0
 10
232.704
 20
-168.579
 11
233.005
 21
-168.181
  0
LINE
  8
0
 10
233.005
 20
-168.181
 11
233.373
 21
-167.845
  0
LINE
  8
0
 10
233.373
 20
-167.845
 11
233.797
 21
-167.583
  0
LINE
  8
0
 10
233.797
 20
-167.583
 11
234.261
 21
-167.403
  0
LINE
  8
0
 10
234.261
 20
-167.403
 11
234.751
 21
-167.312
  0
LINE
  8
0
 10
234.751
 20
-167.312
 11
235.249
 21
-167.312
  0
LINE
  8
0
 10
235.249
 20
-167.312
 11
235.739
 21
-167.403
  0
LINE
  8
0
 10
235.739
 20
-167.403
 11
236.203
 21
-167.583
  0
LINE
  8
0
 10
236.203
 20
-167.583
 11
236.627
 21
-167.845
  0
LINE
  8
0
 10
236.627
 20
-167.845
 11
236.995
 21
-168.181
  0
LINE
  8
0
 10
236.995
 20
-168.181
 11
237.296
 21
-168.579
  0
LINE
  8
0
 10
237.296
 20
-168.579
 11
237.518
 21
-169.025
  0
LINE
  8
0
 10
237.518
 20
-169.025
 11
237.654
 21
-169.504
  0
LINE
  8
0
 10
237.654
 20
-169.504
 11
237.7
 21
-170
  0
LINE
  8
0
 10
237.7
 20
-170
 11
237.654
 21
-170.496
  0
LINE
  8
0
 10
237.654
 20
-170.496
 11
237.518
 21
-170.975
  0
LINE
  8
0
 10
237.518
 20
-170.975
 11
237.296
 21
-171.421
  0
LINE
  8
0
 10
237.296
 20
-171.421
 11
236.995
 21
-171.819
  0
LINE
  8
0
 10
236.995
 20
-171.819
 11
236.627
 21
-172.155
  0
LINE
  8
0
 10
236.627
 20
-172.155
 11
236.203
 21
-172.417
  0
LINE
  8
0
 10
236.203
 20
-172.417
 11
235.739
 21
-172.597
  0
LINE
  8
0
 10
235.739
 20
-172.597
 11
235.249
 21
-172.688
  0
LINE
  8
0
 10
235.249
 20
-172.688
 11
234.751
 21
-172.688
  0
LINE
  8
0
 10
-235.249
 20
-172.688
 11
-235.739
 21
-172.597
  0
LINE
  8
0
 10
-235.739
 20
-172.597
 11
-236.203
 21
-172.417
  0
LINE
  8
0
 10
-236.203
 20
-172.417
 11
-236.627
 21
-172.155
  0
LINE
  8
0
 10
-236.627
 20
-172.155
 11
-236.995
 21
-171.819
  0
LINE
  8
0
 10
-236.995
 20
-171.819
 11
-237.296
 21
-171.421
  0
LINE
  8
0
 10
-237.296
 20
-171.421
 11
-237.518
 21
-170.975
  0
LINE
  8
0
 10
-237.518
 20
-170.975
 11
-237.654
 21
-170.496
  0
LINE
  8
0
 10
-237.654
 20
-170.496
 11
-237.7
 21
-170
  0
LINE
  8
0
 10
-237.7
 20
-170
 11
-237.654
 21
-169.504
  0
LINE
  8
0
 10
-237.654
 20
-169.504
 11
-237.518
 21
-169.025
  0
LINE
  8
0
 10
-237.518
 20
-169.025
 11
-237.296
 21
-168.579
  0
LINE
  8
0
 10
-237.296
 20
-168.579
 11
-236.995
 21
-168.181
  0
LINE
  8
0
 10
-236.995
 20
-168.181
 11
-236.627
 21
-167.845
  0
LINE
  8
0
 10
-236.627
 20
-167.845
 11
-236.203
 21
-167.583
  0
LINE
  8
0
 10
-236.203
 20
-167.583
 11
-235.739
 21
-167.403
  0
LINE
  8
0
 10
-235.739
 20
-167.403
 11
-235.249
 21
-167.312
  0
LINE
  8
0
 10
-235.249
 20
-167.312
 11
-234.751
 21
-167.312
  0
LINE
  8
0
 10
-234.751
 20
-167.312
 11
-234.261
 21
-167.403
  0
LINE
  8
0
 10
-234.261
 20
-167.403
 11
-233.797
 21
-167.583
  0
LINE
  8
0
 10
-233.797
 20
-167.583
 11
-233.373
 21
-167.845
  0
LINE
  8
0
 10
-233.373
 20
-167.845
 11
-233.005
 21
-168.181
  0
LINE
  8
0
 10
-233.005
 20
-168.181
 11
-232.704
 21
-168.579
  0
LINE
  8
0
 10
-232.704
 20
-168.579
 11
-232.482
 21
-169.025
  0
LINE
  8
0
 10
-232.482
 20
-169.025
 11
-232.346
 21
-169.504
  0
LINE
  8
0
 10
-232.346
 20
-169.504
 11
-232.3
 21
-170
  0
LINE
  8
0
 10
-232.3
 20
-170
 11
-232.346
 21
-170.496
  0
LINE
  8
0
 10
-232.346
 20
-170.496
 11
-232.482
 21
-170.975
  0
LINE
  8
0
 10
-232.482
 20
-170.975
 11
-232.704
 21
-171.421
  0
LINE
  8
0
 10
-232.704
 20
-171.421
 11
-233.005
 21
-171.819
  0
LINE
  8
0
 10
-233.005
 20
-171.819
 11
-233.373
 21
-172.155
  0
LINE
  8
0
 10
-233.373
 20
-172.155
 11
-233.797
 21
-172.417
  0
LINE
  8
0
 10
-233.797
 20
-172.417
 11
-234.261
 21
-172.597
  0
LINE
  8
0
 10
-234.261
 20
-172.597
 11
-234.751
 21
-172.688
  0
LINE
  8
0
 10
-234.751
 20
-172.688
 11
-235.249
 21
-172.688
  0
LINE
  8
0
 10
-215.249
 20
-192.688
 11
-215.739
 21
-192.597
  0
LINE
  8
0
 10
-215.739
 20
-192.597
 11
-216.203
 21
-192.417
  0
LINE
  8
0
 10
-216.203
 20
-192.417
 11
-216.627
 21
-192.155
  0
LINE
  8
0
 10
-216.627
 20
-192.155
 11
-216.995
 21
-191.819
  0
LINE
  8
0
 10
-216.995
 20
-191.819
 11
-217.296
 21
-191.421
  0
LINE
  8
0
 10
-217.296
 20
-191.421
 11
-217.518
 21
-190.975
  0
LINE
  8
0
 10
-217.518
 20
-190.975
 11
-217.654
 21
-190.496
  0
LINE
  8
0
 10
-217.654
 20
-190.496
 11
-217.7
 21
-190
  0
LINE
  8
0
 10
-217.7
 20
-190
 11
-217.654
 21
-189.504
  0
LINE
  8
0
 10
-217.654
 20
-189.504
 11
-217.518
 21
-189.025
  0
LINE
  8
0
 10
-217.518
 20
-189.025
 11
-217.296
 21
-188.579
  0
LINE
  8
0
 10
-217.296
 20
-188.579
 11
-216.995
 21
-188.181
  0
LINE
  8
0
 10
-216.995
 20
-188.181
 11
-216.627
 21
-187.845
  0
LINE
  8
0
 10
-216.627
 20
-187.845
 11
-216.203
 21
-187.583
  0
LINE
  8
0
 10
-216.203
 20
-187.583
 11
-215.739
 21
-187.403
  0
LINE
  8
0
 10
-215.739
 20
-187.403
 11
-215.249
 21
-187.312
  0
LINE
  8
0
 10
-215.249
 20
-187.312
 11
-214.751
 21
-187.312
  0
LINE
  8
0
 10
-214.751
 20
-187.312
 11
-214.261
 21
-187.403
  0
LINE
  8
0
 10
-214.261
 20
-187.403
 11
-213.797
 21
-187.583
  0
LINE
  8
0
 10
-213.797
 20
-187.583
 11
-213.373
 21
-187.845
  0
LINE
  8
0
 10
-213.373
 20
-187.845
 11
-213.005
 21
-188.181
  0
LINE
  8
0
 10
-213.005
 20
-188.181
 11
-212.704
 21
-188.579
  0
LINE
  8
0
 10
-212.704
 20
-188.579
 11
-212.482
 21
-189.025
  0
LINE
  8
0
 10
-212.482
 20
-189.025
 11
-212.346
 21
-189.504
  0
LINE
  8
0
 10
-212.346
 20
-189.504
 11
-212.3
 21
-190
  0
LINE
  8
0
 10
-212.3
 20
-190
 11
-212.346
 21
-190.496
  0
LINE
  8
0
 10
-212.346
 20
-190.496
 11
-212.482
 21
-190.975
  0
LINE
  8
0
 10
-212.482
 20
-190.975
 11
-212.704
 21
-191.421
  0
LINE
  8
0
 10
-212.704
 20
-191.421
 11
-213.005
 21
-191.819
  0
LINE
  8
0
 10
-213.005
 20
-191.819
 11
-213.373
 21
-192.155
  0
LINE
  8
0
 10
-213.373
 20
-192.155
 11
-213.797
 21
-192.417
  0
LINE
  8
0
 10
-213.797
 20
-192.417
 11
-214.261
 21
-192.597
  0
LINE
  8
0
 10
-214.261
 20
-192.597
 11
-214.751
 21
-192.688
  0
LINE
  8
0
 10
-214.751
 20
-192.688
 11
-215.249
 21
-192.688
  0
LINE
  8
0
 10
214.751
 20
-192.688
 11
214.261
 21
-192.597
  0
LINE
  8
0
 10
214.261
 20
-192.597
 11
213.797
 21
-192.417
  0
LINE
  8
0
 10
213.797
 20
-192.417
 11
213.373
 21
-192.155
  0
LINE
  8
0
 10
213.373
 20
-192.155
 11
213.005
 21
-191.819
  0
LINE
  8
0
 10
213.005
 20
-191.819
 11
212.704
 21
-191.421
  0
LINE
  8
0
 10
212.704
 20
-191.421
 11
212.482
 21
-190.975
  0
LINE
  8
0
 10
212.482
 20
-190.975
 11
212.346
 21
-190.496
  0
LINE
  8
0
 10
212.346
 20
-190.496
 11
212.3
 21
-190
  0
LINE
  8
0
 10
212.3
 20
-190
 11
212.346
 21
-189.504
  0
LINE
  8
0
 10
212.346
 20
-189.504
 11
212.482
 21
-189.025
  0
LINE
  8
0
 10
212.482
 20
-189.025
 11
212.704
 21
-188.579
  0
LINE
  8
0
 10
212.704
 20
-188.579
 11
213.005
 21
-188.181
  0
LINE
  8
0
 10
213.005
 20
-188.181
 11
213.373
 21
-187.845
  0
LINE
  8
0
 10
213.373
 20
-187.845
 11
213.797
 21
-187.583
  0
LINE
  8
0
 10
213.797
 20
-187.583
 11
214.261
 21
-187.403
  0
LINE
  8
0
 10
214.261
 20
-187.403
 11
214.751
 21
-187.312
  0
LINE
  8
0
 10
214.751
 20
-187.312
 11
215.249
 21
-187.312
  0
LINE
  8
0
 10
215.249
 20
-187.312
 11
215.739
 21
-187.403
  0
LINE
  8
0
 10
215.739
 20
-187.403
 11
216.203
 21
-187.583
  0
LINE
  8
0
 10
216.203
 20
-187.583
 11
216.627
 21
-187.845
  0
LINE
  8
0
 10
216.627
 20
-187.845
 11
216.995
 21
-188.181
  0
LINE
  8
0
 10
216.995
 20
-188.181
 11
217.296
 21
-188.579
  0
LINE
  8
0
 10
217.296
 20
-188.579
 11
217.518
 21
-189.025
  0
LINE
  8
0
 10
217.518
 20
-189.025
 11
217.654
 21
-189.504
  0
LINE
  8
0
 10
217.654
 20
-189.504
 11
217.7
 21
-190
  0
LINE
  8
0
 10
217.7
 20
-190
 11
217.654
 21
-190.496
  0
LINE
  8
0
 10
217.654
 20
-190.496
 11
217.518
 21
-190.975
  0
LINE
  8
0
 10
217.518
 20
-190.975
 11
217.296
 21
-191.421
  0
LINE
  8
0
 10
217.296
 20
-191.421
 11
216.995
 21
-191.819
  0
LINE
  8
0
 10
216.995
 20
-191.819
 11
216.627
 21
-192.155
  0
LINE
  8
0
 10
216.627
 20
-192.155
 11
216.203
 21
-192.417
  0
LINE
  8
0
 10
216.203
 20
-192.417
 11
215.739
 21
-192.597
  0
LINE
  8
0
 10
215.739
 20
-192.597
 11
215.249
 21
-192.688
  0
LINE
  8
0
 10
215.249
 20
-192.688
 11
214.751
 21
-192.688
  0
LINE
  8
0
 10
-195.249
 20
-192.688
 11
-195.739
 21
-192.597
  0
LINE
  8
0
 10
-195.739
 20
-192.597
 11
-196.203
 21
-192.417
  0
LINE
  8
0
 10
-196.203
 20
-192.417
 11
-196.627
 21
-192.155
  0
LINE
  8
0
 10
-196.627
 20
-192.155
 11
-196.995
 21
-191.819
  0
LINE
  8
0
 10
-196.995
 20
-191.819
 11
-197.296
 21
-191.421
  0
LINE
  8
0
 10
-197.296
 20
-191.421
 11
-197.518
 21
-190.975
  0
LINE
  8
0
 10
-197.518
 20
-190.975
 11
-197.654
 21
-190.496
  0
LINE
  8
0
 10
-197.654
 20
-190.496
 11
-197.7
 21
-190
  0
LINE
  8
0
 10
-197.7
 20
-190
 11
-197.654
 21
-189.504
  0
LINE
  8
0
 10
-197.654
 20
-189.504
 11
-197.518
 21
-189.025
  0
LINE
  8
0
 10
-197.518
 20
-189.025
 11
-197.296
 21
-188.579
  0
LINE
  8
0
 10
-197.296
 20
-188.579
 11
-196.995
 21
-188.181
  0
LINE
  8
0
 10
-196.995
 20
-188.181
 11
-196.627
 21
-187.845
  0
LINE
  8
0
 10
-196.627
 20
-187.845
 11
-196.203
 21
-187.583
  0
LINE
  8
0
 10
-196.203
 20
-187.583
 11
-195.739
 21
-187.403
  0
LINE
  8
0
 10
-195.739
 20
-187.403
 11
-195.249
 21
-187.312
  0
LINE
  8
0
 10
-195.249
 20
-187.312
 11
-194.751
 21
-187.312
  0
LINE
  8
0
 10
-194.751
 20
-187.312
 11
-194.261
 21
-187.403
  0
LINE
  8
0
 10
-194.261
 20
-187.403
 11
-193.797
 21
-187.583
  0
LINE
  8
0
 10
-193.797
 20
-187.583
 11
-193.373
 21
-187.845
  0
LINE
  8
0
 10
-193.373
 20
-187.845
 11
-193.005
 21
-188.181
  0
LINE
  8
0
 10
-193.005
 20
-188.181
 11
-192.704
 21
-188.579
  0
LINE
  8
0
 10
-192.704
 20
-188.579
 11
-192.482
 21
-189.025
  0
LINE
  8
0
 10
-192.482
 20
-189.025
 11
-192.346
 21
-189.504
  0
LINE
  8
0
 10
-192.346
 20
-189.504
 11
-192.3
 21
-190
  0
LINE
  8
0
 10
-192.3
 20
-190
 11
-192.346
 21
-190.496
  0
LINE
  8
0
 10
-192.346
 20
-190.496
 11
-192.482
 21
-190.975
  0
LINE
  8
0
 10
-192.482
 20
-190.975
 11
-192.704
 21
-191.421
  0
LINE
  8
0
 10
-192.704
 20
-191.421
 11
-193.005
 21
-191.819
  0
LINE
  8
0
 10
-193.005
 20
-191.819
 11
-193.373
 21
-192.155
  0
LINE
  8
0
 10
-193.373
 20
-192.155
 11
-193.797
 21
-192.417
  0
LINE
  8
0
 10
-193.797
 20
-192.417
 11
-194.261
 21
-192.597
  0
LINE
  8
0
 10
-194.261
 20
-192.597
 11
-194.751
 21
-192.688
  0
LINE
  8
0
 10
-194.751
 20
-192.688
 11
-195.249
 21
-192.688
  0
LINE
  8
0
 10
-0.249115
 20
-192.688
 11
-0.738876
 21
-192.597
  0
LINE
  8
0
 10
-0.738876
 20
-192.597
 11
-1.20349
 21
-192.417
  0
LINE
  8
0
 10
-1.20349
 20
-192.417
 11
-1.62711
 21
-192.155
  0
LINE
  8
0
 10
-1.62711
 20
-192.155
 11
-1.99532
 21
-191.819
  0
LINE
  8
0
 10
-1.99532
 20
-191.819
 11
-2.29558
 21
-191.421
  0
LINE
  8
0
 10
-2.29558
 20
-191.421
 11
-2.51767
 21
-190.975
  0
LINE
  8
0
 10
-2.51767
 20
-190.975
 11
-2.65402
 21
-190.496
  0
LINE
  8
0
 10
-2.65402
 20
-190.496
 11
-2.7
 21
-190
  0
LINE
  8
0
 10
-2.7
 20
-190
 11
-2.65402
 21
-189.504
  0
LINE
  8
0
 10
-2.65402
 20
-189.504
 11
-2.51767
 21
-189.025
  0
LINE
  8
0
 10
-2.51767
 20
-189.025
 11
-2.29558
 21
-188.579
  0
LINE
  8
0
 10
-2.29558
 20
-188.579
 11
-1.99532
 21
-188.181
  0
LINE
  8
0
 10
-1.99532
 20
-188.181
 11
-1.62711
 21
-187.845
  0
LINE
  8
0
 10
-1.62711
 20
-187.845
 11
-1.20349
 21
-187.583
  0
LINE
  8
0
 10
-1.20349
 20
-187.583
 11
-0.738876
 21
-187.403
  0
LINE
  8
0
 10
-0.738876
 20
-187.403
 11
-0.249115
 21
-187.312
  0
LINE
  8
0
 10
-0.249115
 20
-187.312
 11
0.249115
 21
-187.312
  0
LINE
  8
0
 10
0.249115
 20
-187.312
 11
0.738876
 21
-187.403
  0
LINE
  8
0
 10
0.738876
 20
-187.403
 11
1.20349
 21
-187.583
  0
LINE
  8
0
 10
1.20349
 20
-187.583
 11
1.62711
 21
-187.845
  0
LINE
  8
0
 10
1.62711
 20
-187.845
 11
1.99532
 21
-188.181
  0
LINE
  8
0
 10
1.99532
 20
-188.181
 11
2.29558
 21
-188.579
  0
LINE
  8
0
 10
2.29558
 20
-188.579
 11
2.51767
 21
-189.025
  0
LINE
  8
0
 10
2.51767
 20
-189.025
 11
2.65402
 21
-189.504
  0
LINE
  8
0
 10
2.65402
 20
-189.504
 11
2.7
 21
-190
  0
LINE
  8
0
 10
2.7
 20
-190
 11
2.65402
 21
-190.496
  0
LINE
  8
0
 10
2.65402
 20
-190.496
 11
2.51767
 21
-190.975
  0
LINE
  8
0
 10
2.51767
 20
-190.975
 11
2.29558
 21
-191.421
  0
LINE
  8
0
 10
2.29558
 20
-191.421
 11
1.99532
 21
-191.819
  0
LINE
  8
0
 10
1.99532
 20
-191.819
 11
1.62711
 21
-192.155
  0
LINE
  8
0
 10
1.62711
 20
-192.155
 11
1.20349
 21
-192.417
  0
LINE
  8
0
 10
1.20349
 20
-192.417
 11
0.738876
 21
-192.597
  0
LINE
  8
0
 10
0.738876
 20
-192.597
 11
0.249115
 21
-192.688
  0
LINE
  8
0
 10
0.249115
 20
-192.688
 11
-0.249115
 21
-192.688
  0
LINE
  8
0
 10
194.751
 20
-192.688
 11
194.261
 21
-192.597
  0
LINE
  8
0
 10
194.261
 20
-192.597
 11
193.797
 21
-192.417
  0
LINE
  8
0
 10
193.797
 20
-192.417
 11
193.373
 21
-192.155
  0
LINE
  8
0
 10
193.373
 20
-192.155
 11
193.005
 21
-191.819
  0
LINE
  8
0
 10
193.005
 20
-191.819
 11
192.704
 21
-191.421
  0
LINE
  8
0
 10
192.704
 20
-191.421
 11
192.482
 21
-190.975
  0
LINE
  8
0
 10
192.482
 20
-190.975
 11
192.346
 21
-190.496
  0
LINE
  8
0
 10
192.346
 20
-190.496
 11
192.3
 21
-190
  0
LINE
  8
0
 10
192.3
 20
-190
 11
192.346
 21
-189.504
  0
LINE
  8
0
 10
192.346
 20
-189.504
 11
192.482
 21
-189.025
  0
LINE
  8
0
 10
192.482
 20
-189.025
 11
192.704
 21
-188.579
  0
LINE
  8
0
 10
192.704
 20
-188.579
 11
193.005
 21
-188.181
  0
LINE
  8
0
 10
193.005
 20
-188.181
 11
193.373
 21
-187.845
  0
LINE
  8
0
 10
193.373
 20
-187.845
 11
193.797
 21
-187.583
  0
LINE
  8
0
 10
193.797
 20
-187.583
 11
194.261
 21
-187.403
  0
LINE
  8
0
 10
194.261
 20
-187.403
 11
194.751
 21
-187.312
  0
LINE
  8
0
 10
194.751
 20
-187.312
 11
195.249
 21
-187.312
  0
LINE
  8
0
 10
195.249
 20
-187.312
 11
195.739
 21
-187.403
  0
LINE
  8
0
 10
195.739
 20
-187.403
 11
196.203
 21
-187.583
  0
LINE
  8
0
 10
196.203
 20
-187.583
 11
196.627
 21
-187.845
  0
LINE
  8
0
 10
196.627
 20
-187.845
 11
196.995
 21
-188.181
  0
LINE
  8
0
 10
196.995
 20
-188.181
 11
197.296
 21
-188.579
  0
LINE
  8
0
 10
197.296
 20
-188.579
 11
197.518
 21
-189.025
  0
LINE
  8
0
 10
197.518
 20
-189.025
 11
197.654
 21
-189.504
  0
LINE
  8
0
 10
197.654
 20
-189.504
 11
197.7
 21
-190
  0
LINE
  8
0
 10
197.7
 20
-190
 11
197.654
 21
-190.496
  0
LINE
  8
0
 10
197.654
 20
-190.496
 11
197.518
 21
-190.975
  0
LINE
  8
0
 10
197.518
 20
-190.975
 11
197.296
 21
-191.421
  0
LINE
  8
0
 10
197.296
 20
-191.421
 11
196.995
 21
-191.819
  0
LINE
  8
0
 10
196.995
 20
-191.819
 11
196.627
 21
-192.155
  0
LINE
  8
0
 10
196.627
 20
-192.155
 11
196.203
 21
-192.417
  0
LINE
  8
0
 10
196.203
 20
-192.417
 11
195.739
 21
-192.597
  0
LINE
  8
0
 10
195.739
 20
-192.597
 11
195.249
 21
-192.688
  0
LINE
  8
0
 10
195.249
 20
-192.688
 11
194.751
 21
-192.688
  0
LINE
  8
0
 10
122.742
 20
55.8173
 11
122.258
 21
55.8173
  0
LINE
  8
0
 10
122.258
 20
55.8173
 11
121.794
 21
55.9536
  0
LINE
  8
0
 10
121.794
 20
55.9536
 11
121.387
 21
56.2152
  0
LINE
  8
0
 10
121.387
 20
56.2152
 11
121.07
 21
56.5809
  0
LINE
  8
0
 10
121.07
 20
56.5809
 11
120.869
 21
57.0211
  0
LINE
  8
0
 10
120.869
 20
57.0211
 11
120.8
 21
57.5
  0
LINE
  8
0
 10
120.8
 20
57.5
 11
120.869
 21
57.9789
  0
LINE
  8
0
 10
120.869
 20
57.9789
 11
121.07
 21
58.4191
  0
LINE
  8
0
 10
121.07
 20
58.4191
 11
121.387
 21
58.7848
  0
LINE
  8
0
 10
121.387
 20
58.7848
 11
121.794
 21
59.0464
  0
LINE
  8
0
 10
121.794
 20
59.0464
 11
122.258
 21
59.1827
  0
LINE
  8
0
 10
122.258
 20
59.1827
 11
122.742
 21
59.1827
  0
LINE
  8
0
 10
122.742
 20
59.1827
 11
123.206
 21
59.0464
  0
LINE
  8
0
 10
123.206
 20
59.0464
 11
123.613
 21
58.7848
  0
LINE
  8
0
 10
123.613
 20
58.7848
 11
123.93
 21
58.4191
  0
LINE
  8
0
 10
123.93
 20
58.4191
 11
124.131
 21
57.9789
  0
LINE
  8
0
 10
124.131
 20
57.9789
 11
124.2
 21
57.5
  0
LINE
  8
0
 10
124.2
 20
57.5
 11
124.131
 21
57.0211
  0
LINE
  8
0
 10
124.131
 20
57.0211
 11
123.93
 21
56.5809
  0
LINE
  8
0
 10
123.93
 20
56.5809
 11
123.613
 21
56.2152
  0
LINE
  8
0
 10
123.613
 20
56.2152
 11
123.206
 21
55.9536
  0
LINE
  8
0
 10
123.206
 20
55.9536
 11
122.742
 21
55.8173
  0
LINE
  8
0
 10
124.2
 20
-57.5
 11
124.131
 21
-57.9789
  0
LINE
  8
0
 10
124.131
 20
-57.9789
 11
123.93
 21
-58.4191
  0
LINE
  8
0
 10
123.93
 20
-58.4191
 11
123.613
 21
-58.7848
  0
LINE
  8
0
 10
123.613
 20
-58.7848
 11
123.206
 21
-59.0464
  0
LINE
  8
0
 10
123.206
 20
-59.0464
 11
122.742
 21
-59.1827
  0
LINE
  8
0
 10
122.742
 20
-59.1827
 11
122.258
 21
-59.1827
  0
LINE
  8
0
 10
122.258
 20
-59.1827
 11
121.794
 21
-59.0464
  0
LINE
  8
0
 10
121.794
 20
-59.0464
 11
121.387
 21
-58.7848
  0
LINE
  8
0
 10
121.387
 20
-58.7848
 11
121.07
 21
-58.4191
  0
LINE
  8
0
 10
121.07
 20
-58.4191
 11
120.869
 21
-57.9789
  0
LINE
  8
0
 10
120.869
 20
-57.9789
 11
120.8
 21
-57.5
  0
LINE
  8
0
 10
120.8
 20
-57.5
 11
120.869
 21
-57.0211
  0
LINE
  8
0
 10
120.869
 20
-57.0211
 11
121.07
 21
-56.5809
  0
LINE
  8
0
 10
121.07
 20
-56.5809
 11
121.387
 21
-56.2152
  0
LINE
  8
0
 10
121.387
 20
-56.2152
 11
121.794
 21
-55.9536
  0
LINE
  8
0
 10
121.794
 20
-55.9536
 11
122.258
 21
-55.8173
  0
LINE
  8
0
 10
122.258
 20
-55.8173
 11
122.742
 21
-55.8173
  0
LINE
  8
0
 10
122.742
 20
-55.8173
 11
123.206
 21
-55.9536
  0
LINE
  8
0
 10
123.206
 20
-55.9536
 11
123.613
 21
-56.2152
  0
LINE
  8
0
 10
123.613
 20
-56.2152
 11
123.93
 21
-56.5809
  0
LINE
  8
0
 10
123.93
 20
-56.5809
 11
124.131
 21
-57.0211
  0
LINE
  8
0
 10
124.131
 20
-57.0211
 11
124.2
 21
-57.5
  0
ENDSEC
  0
SECTION
  2
OBJECTS
  0
DICTIONARY
  0
ENDSEC
  0
EOF
