  0
SECTION
  2
BLOCKS
  0
ENDSEC
  0
SECTION
  2
ENTITIES
  0
LINE
  8
0
 10
-152.5
 20
-224.875
 11
-152.5
 21
-220
  0
LINE
  8
0
 10
-152.5
 20
-220
 11
-147.563
 21
-220
  0
LINE
  8
0
 10
-147.563
 20
-220
 11
-147.563
 21
-212.938
  0
LINE
  8
0
 10
-147.563
 20
-212.938
 11
-149.7
 21
-212.938
  0
LINE
  8
0
 10
-149.7
 20
-212.938
 11
-149.7
 21
-207.562
  0
LINE
  8
0
 10
-149.7
 20
-207.562
 11
-147.563
 21
-207.562
  0
LINE
  8
0
 10
-147.563
 20
-207.562
 11
-147.563
 21
-206.188
  0
LINE
  8
0
 10
-147.563
 20
-206.188
 11
-142.437
 21
-206.188
  0
LINE
  8
0
 10
-142.437
 20
-206.188
 11
-142.437
 21
-207.562
  0
LINE
  8
0
 10
-142.437
 20
-207.562
 11
-140.3
 21
-207.562
  0
LINE
  8
0
 10
-140.3
 20
-207.562
 11
-140.3
 21
-212.938
  0
LINE
  8
0
 10
-140.3
 20
-212.938
 11
-142.437
 21
-212.938
  0
LINE
  8
0
 10
-142.437
 20
-212.938
 11
-142.437
 21
-220
  0
LINE
  8
0
 10
-142.437
 20
-220
 11
-137.5
 21
-220
  0
LINE
  8
0
 10
-137.5
 20
-220
 11
-137.5
 21
-224.875
  0
LINE
  8
0
 10
-137.5
 20
-224.875
 11
-135.875
 21
-226.5
  0
LINE
  8
0
 10
-135.875
 20
-226.5
 11
-124.125
 21
-226.5
  0
LINE
  8
0
 10
-124.125
 20
-226.5
 11
-122.5
 21
-224.875
  0
LINE
  8
0
 10
-122.5
 20
-224.875
 11
-122.5
 21
-220
  0
LINE
  8
0
 10
-122.5
 20
-220
 11
-22.5
 21
-220
  0
LINE
  8
0
 10
-22.5
 20
-220
 11
-22.5
 21
-224.875
  0
LINE
  8
0
 10
-22.5
 20
-224.875
 11
-20.875
 21
-226.5
  0
LINE
  8
0
 10
-20.875
 20
-226.5
 11
-9.125
 21
-226.5
  0
LINE
  8
0
 10
-9.125
 20
-226.5
 11
-7.5
 21
-224.875
  0
LINE
  8
0
 10
-7.5
 20
-224.875
 11
-7.5
 21
-220
  0
LINE
  8
0
 10
-7.5
 20
-220
 11
-2.56299
 21
-220
  0
LINE
  8
0
 10
-2.56299
 20
-220
 11
-2.56299
 21
-212.938
  0
LINE
  8
0
 10
-2.56299
 20
-212.938
 11
-4.7
 21
-212.938
  0
LINE
  8
0
 10
-4.7
 20
-212.938
 11
-4.7
 21
-207.562
  0
LINE
  8
0
 10
-4.7
 20
-207.562
 11
-2.56299
 21
-207.562
  0
LINE
  8
0
 10
-2.56299
 20
-207.562
 11
-2.56299
 21
-206.188
  0
LINE
  8
0
 10
-2.56299
 20
-206.188
 11
2.56299
 21
-206.188
  0
LINE
  8
0
 10
2.56299
 20
-206.188
 11
2.56299
 21
-207.562
  0
LINE
  8
0
 10
2.56299
 20
-207.562
 11
4.7
 21
-207.562
  0
LINE
  8
0
 10
4.7
 20
-207.562
 11
4.7
 21
-212.938
  0
LINE
  8
0
 10
4.7
 20
-212.938
 11
2.56299
 21
-212.938
  0
LINE
  8
0
 10
2.56299
 20
-212.938
 11
2.56299
 21
-220
  0
LINE
  8
0
 10
2.56299
 20
-220
 11
7.5
 21
-220
  0
LINE
  8
0
 10
7.5
 20
-220
 11
7.5
 21
-224.875
  0
LINE
  8
0
 10
7.5
 20
-224.875
 11
9.125
 21
-226.5
  0
LINE
  8
0
 10
9.125
 20
-226.5
 11
20.875
 21
-226.5
  0
LINE
  8
0
 10
20.875
 20
-226.5
 11
22.5
 21
-224.875
  0
LINE
  8
0
 10
22.5
 20
-224.875
 11
22.5
 21
-220
  0
LINE
  8
0
 10
22.5
 20
-220
 11
122.5
 21
-220
  0
LINE
  8
0
 10
122.5
 20
-220
 11
122.5
 21
-224.875
  0
LINE
  8
0
 10
122.5
 20
-224.875
 11
124.125
 21
-226.5
  0
LINE
  8
0
 10
124.125
 20
-226.5
 11
135.875
 21
-226.5
  0
LINE
  8
0
 10
135.875
 20
-226.5
 11
137.5
 21
-224.875
  0
LINE
  8
0
 10
137.5
 20
-224.875
 11
137.5
 21
-220
  0
LINE
  8
0
 10
137.5
 20
-220
 11
142.437
 21
-220
  0
LINE
  8
0
 10
142.437
 20
-220
 11
142.437
 21
-212.938
  0
LINE
  8
0
 10
142.437
 20
-212.938
 11
140.3
 21
-212.938
  0
LINE
  8
0
 10
140.3
 20
-212.938
 11
140.3
 21
-207.562
  0
LINE
  8
0
 10
140.3
 20
-207.562
 11
142.437
 21
-207.562
  0
LINE
  8
0
 10
142.437
 20
-207.562
 11
142.437
 21
-206.188
  0
LINE
  8
0
 10
142.437
 20
-206.188
 11
147.563
 21
-206.188
  0
LINE
  8
0
 10
147.563
 20
-206.188
 11
147.563
 21
-207.562
  0
LINE
  8
0
 10
147.563
 20
-207.562
 11
149.7
 21
-207.562
  0
LINE
  8
0
 10
149.7
 20
-207.562
 11
149.7
 21
-212.938
  0
LINE
  8
0
 10
149.7
 20
-212.938
 11
147.563
 21
-212.938
  0
LINE
  8
0
 10
147.563
 20
-212.938
 11
147.563
 21
-220
  0
LINE
  8
0
 10
147.563
 20
-220
 11
152.5
 21
-220
  0
LINE
  8
0
 10
152.5
 20
-220
 11
152.5
 21
-224.875
  0
LINE
  8
0
 10
152.5
 20
-224.875
 11
154.125
 21
-226.5
  0
LINE
  8
0
 10
154.125
 20
-226.5
 11
165.875
 21
-226.5
  0
LINE
  8
0
 10
165.875
 20
-226.5
 11
167.5
 21
-224.875
  0
LINE
  8
0
 10
167.5
 20
-224.875
 11
167.5
 21
-220
  0
LINE
  8
0
 10
167.5
 20
-220
 11
225
 21
-220
  0
LINE
  8
0
 10
225
 20
-220
 11
225
 21
-180
  0
LINE
  8
0
 10
225
 20
-180
 11
245
 21
-180
  0
LINE
  8
0
 10
245
 20
-180
 11
245
 21
-142.5
  0
LINE
  8
0
 10
245
 20
-142.5
 11
249.875
 21
-142.5
  0
LINE
  8
0
 10
249.875
 20
-142.5
 11
251.5
 21
-140.875
  0
LINE
  8
0
 10
251.5
 20
-140.875
 11
251.5
 21
-129.125
  0
LINE
  8
0
 10
251.5
 20
-129.125
 11
249.875
 21
-127.5
  0
LINE
  8
0
 10
249.875
 20
-127.5
 11
245
 21
-127.5
  0
LINE
  8
0
 10
245
 20
-127.5
 11
245
 21
-122.563
  0
LINE
  8
0
 10
245
 20
-122.563
 11
237.938
 21
-122.563
  0
LINE
  8
0
 10
237.938
 20
-122.563
 11
237.938
 21
-124.7
  0
LINE
  8
0
 10
237.938
 20
-124.7
 11
232.562
 21
-124.7
  0
LINE
  8
0
 10
232.562
 20
-124.7
 11
232.562
 21
-122.563
  0
LINE
  8
0
 10
232.562
 20
-122.563
 11
231.188
 21
-122.563
  0
LINE
  8
0
 10
231.188
 20
-122.563
 11
231.188
 21
-117.437
  0
LINE
  8
0
 10
231.188
 20
-117.437
 11
232.562
 21
-117.437
  0
LINE
  8
0
 10
232.562
 20
-117.437
 11
232.562
 21
-115.3
  0
LINE
  8
0
 10
232.562
 20
-115.3
 11
237.938
 21
-115.3
  0
LINE
  8
0
 10
237.938
 20
-115.3
 11
237.938
 21
-117.437
  0
LINE
  8
0
 10
237.938
 20
-117.437
 11
245
 21
-117.437
  0
LINE
  8
0
 10
245
 20
-117.437
 11
245
 21
-112.5
  0
LINE
  8
0
 10
245
 20
-112.5
 11
249.875
 21
-112.5
  0
LINE
  8
0
 10
249.875
 20
-112.5
 11
251.5
 21
-110.875
  0
LINE
  8
0
 10
251.5
 20
-110.875
 11
251.5
 21
-99.125
  0
LINE
  8
0
 10
251.5
 20
-99.125
 11
249.875
 21
-97.5
  0
LINE
  8
0
 10
249.875
 20
-97.5
 11
245
 21
-97.5
  0
LINE
  8
0
 10
245
 20
-97.5
 11
245
 21
97.5
  0
LINE
  8
0
 10
245
 20
97.5
 11
249.875
 21
97.5
  0
LINE
  8
0
 10
249.875
 20
97.5
 11
251.5
 21
99.125
  0
LINE
  8
0
 10
251.5
 20
99.125
 11
251.5
 21
110.875
  0
LINE
  8
0
 10
251.5
 20
110.875
 11
249.875
 21
112.5
  0
LINE
  8
0
 10
249.875
 20
112.5
 11
245
 21
112.5
  0
LINE
  8
0
 10
245
 20
112.5
 11
245
 21
117.437
  0
LINE
  8
0
 10
245
 20
117.437
 11
237.938
 21
117.437
  0
LINE
  8
0
 10
237.938
 20
117.437
 11
237.938
 21
115.3
  0
LINE
  8
0
 10
237.938
 20
115.3
 11
232.562
 21
115.3
  0
LINE
  8
0
 10
232.562
 20
115.3
 11
232.562
 21
117.437
  0
LINE
  8
0
 10
232.562
 20
117.437
 11
231.188
 21
117.437
  0
LINE
  8
0
 10
231.188
 20
117.437
 11
231.188
 21
122.563
  0
LINE
  8
0
 10
231.188
 20
122.563
 11
232.562
 21
122.563
  0
LINE
  8
0
 10
232.562
 20
122.563
 11
232.562
 21
124.7
  0
LINE
  8
0
 10
232.562
 20
124.7
 11
237.938
 21
124.7
  0
LINE
  8
0
 10
237.938
 20
124.7
 11
237.938
 21
122.563
  0
LINE
  8
0
 10
237.938
 20
122.563
 11
245
 21
122.563
  0
LINE
  8
0
 10
245
 20
122.563
 11
245
 21
127.5
  0
LINE
  8
0
 10
245
 20
127.5
 11
249.875
 21
127.5
  0
LINE
  8
0
 10
249.875
 20
127.5
 11
251.5
 21
129.125
  0
LINE
  8
0
 10
251.5
 20
129.125
 11
251.5
 21
140.875
  0
LINE
  8
0
 10
251.5
 20
140.875
 11
249.875
 21
142.5
  0
LINE
  8
0
 10
249.875
 20
142.5
 11
245
 21
142.5
  0
LINE
  8
0
 10
245
 20
142.5
 11
245
 21
180
  0
LINE
  8
0
 10
245
 20
180
 11
225
 21
180
  0
LINE
  8
0
 10
225
 20
180
 11
225
 21
204.25
  0
LINE
  8
0
 10
225
 20
204.25
 11
223
 21
204.25
  0
LINE
  8
0
 10
223
 20
204.25
 11
223
 21
215.75
  0
LINE
  8
0
 10
223
 20
215.75
 11
225
 21
215.75
  0
LINE
  8
0
 10
225
 20
215.75
 11
225
 21
220
  0
LINE
  8
0
 10
225
 20
220
 11
167.5
 21
220
  0
LINE
  8
0
 10
167.5
 20
220
 11
167.5
 21
224.875
  0
LINE
  8
0
 10
167.5
 20
224.875
 11
165.875
 21
226.5
  0
LINE
  8
0
 10
165.875
 20
226.5
 11
154.125
 21
226.5
  0
LINE
  8
0
 10
154.125
 20
226.5
 11
152.5
 21
224.875
  0
LINE
  8
0
 10
152.5
 20
224.875
 11
152.5
 21
220
  0
LINE
  8
0
 10
152.5
 20
220
 11
147.563
 21
220
  0
LINE
  8
0
 10
147.563
 20
220
 11
147.563
 21
212.938
  0
LINE
  8
0
 10
147.563
 20
212.938
 11
149.7
 21
212.938
  0
LINE
  8
0
 10
149.7
 20
212.938
 11
149.7
 21
207.562
  0
LINE
  8
0
 10
149.7
 20
207.562
 11
147.563
 21
207.562
  0
LINE
  8
0
 10
147.563
 20
207.562
 11
147.563
 21
206.188
  0
LINE
  8
0
 10
147.563
 20
206.188
 11
142.437
 21
206.188
  0
LINE
  8
0
 10
142.437
 20
206.188
 11
142.437
 21
207.562
  0
LINE
  8
0
 10
142.437
 20
207.562
 11
140.3
 21
207.562
  0
LINE
  8
0
 10
140.3
 20
207.562
 11
140.3
 21
212.938
  0
LINE
  8
0
 10
140.3
 20
212.938
 11
142.437
 21
212.938
  0
LINE
  8
0
 10
142.437
 20
212.938
 11
142.437
 21
220
  0
LINE
  8
0
 10
142.437
 20
220
 11
137.5
 21
220
  0
LINE
  8
0
 10
137.5
 20
220
 11
137.5
 21
224.875
  0
LINE
  8
0
 10
137.5
 20
224.875
 11
135.875
 21
226.5
  0
LINE
  8
0
 10
135.875
 20
226.5
 11
124.125
 21
226.5
  0
LINE
  8
0
 10
124.125
 20
226.5
 11
122.5
 21
224.875
  0
LINE
  8
0
 10
122.5
 20
224.875
 11
122.5
 21
220
  0
LINE
  8
0
 10
122.5
 20
220
 11
22.5
 21
220
  0
LINE
  8
0
 10
22.5
 20
220
 11
22.5
 21
224.875
  0
LINE
  8
0
 10
22.5
 20
224.875
 11
20.875
 21
226.5
  0
LINE
  8
0
 10
20.875
 20
226.5
 11
9.125
 21
226.5
  0
LINE
  8
0
 10
9.125
 20
226.5
 11
7.5
 21
224.875
  0
LINE
  8
0
 10
7.5
 20
224.875
 11
7.5
 21
220
  0
LINE
  8
0
 10
7.5
 20
220
 11
2.56299
 21
220
  0
LINE
  8
0
 10
2.56299
 20
220
 11
2.56299
 21
212.938
  0
LINE
  8
0
 10
2.56299
 20
212.938
 11
4.7
 21
212.938
  0
LINE
  8
0
 10
4.7
 20
212.938
 11
4.7
 21
207.562
  0
LINE
  8
0
 10
4.7
 20
207.562
 11
2.56299
 21
207.562
  0
LINE
  8
0
 10
2.56299
 20
207.562
 11
2.56299
 21
206.188
  0
LINE
  8
0
 10
2.56299
 20
206.188
 11
-2.56299
 21
206.188
  0
LINE
  8
0
 10
-2.56299
 20
206.188
 11
-2.56299
 21
207.562
  0
LINE
  8
0
 10
-2.56299
 20
207.562
 11
-4.7
 21
207.562
  0
LINE
  8
0
 10
-4.7
 20
207.562
 11
-4.7
 21
212.938
  0
LINE
  8
0
 10
-4.7
 20
212.938
 11
-2.56299
 21
212.938
  0
LINE
  8
0
 10
-2.56299
 20
212.938
 11
-2.56299
 21
220
  0
LINE
  8
0
 10
-2.56299
 20
220
 11
-7.5
 21
220
  0
LINE
  8
0
 10
-7.5
 20
220
 11
-7.5
 21
224.875
  0
LINE
  8
0
 10
-7.5
 20
224.875
 11
-9.125
 21
226.5
  0
LINE
  8
0
 10
-9.125
 20
226.5
 11
-20.875
 21
226.5
  0
LINE
  8
0
 10
-20.875
 20
226.5
 11
-22.5
 21
224.875
  0
LINE
  8
0
 10
-22.5
 20
224.875
 11
-22.5
 21
220
  0
LINE
  8
0
 10
-22.5
 20
220
 11
-122.5
 21
220
  0
LINE
  8
0
 10
-122.5
 20
220
 11
-122.5
 21
224.875
  0
LINE
  8
0
 10
-122.5
 20
224.875
 11
-124.125
 21
226.5
  0
LINE
  8
0
 10
-124.125
 20
226.5
 11
-135.875
 21
226.5
  0
LINE
  8
0
 10
-135.875
 20
226.5
 11
-137.5
 21
224.875
  0
LINE
  8
0
 10
-137.5
 20
224.875
 11
-137.5
 21
220
  0
LINE
  8
0
 10
-137.5
 20
220
 11
-142.437
 21
220
  0
LINE
  8
0
 10
-142.437
 20
220
 11
-142.437
 21
212.938
  0
LINE
  8
0
 10
-142.437
 20
212.938
 11
-140.3
 21
212.938
  0
LINE
  8
0
 10
-140.3
 20
212.938
 11
-140.3
 21
207.562
  0
LINE
  8
0
 10
-140.3
 20
207.562
 11
-142.437
 21
207.562
  0
LINE
  8
0
 10
-142.437
 20
207.562
 11
-142.437
 21
206.188
  0
LINE
  8
0
 10
-142.437
 20
206.188
 11
-147.563
 21
206.188
  0
LINE
  8
0
 10
-147.563
 20
206.188
 11
-147.563
 21
207.562
  0
LINE
  8
0
 10
-147.563
 20
207.562
 11
-149.7
 21
207.562
  0
LINE
  8
0
 10
-149.7
 20
207.562
 11
-149.7
 21
212.938
  0
LINE
  8
0
 10
-149.7
 20
212.938
 11
-147.563
 21
212.938
  0
LINE
  8
0
 10
-147.563
 20
212.938
 11
-147.563
 21
220
  0
LINE
  8
0
 10
-147.563
 20
220
 11
-152.5
 21
220
  0
LINE
  8
0
 10
-152.5
 20
220
 11
-152.5
 21
224.875
  0
LINE
  8
0
 10
-152.5
 20
224.875
 11
-154.125
 21
226.5
  0
LINE
  8
0
 10
-154.125
 20
226.5
 11
-165.875
 21
226.5
  0
LINE
  8
0
 10
-165.875
 20
226.5
 11
-167.5
 21
224.875
  0
LINE
  8
0
 10
-167.5
 20
224.875
 11
-167.5
 21
220
  0
LINE
  8
0
 10
-167.5
 20
220
 11
-225
 21
220
  0
LINE
  8
0
 10
-225
 20
220
 11
-225
 21
215.75
  0
LINE
  8
0
 10
-225
 20
215.75
 11
-223
 21
215.75
  0
LINE
  8
0
 10
-223
 20
215.75
 11
-223
 21
204.25
  0
LINE
  8
0
 10
-223
 20
204.25
 11
-225
 21
204.25
  0
LINE
  8
0
 10
-225
 20
204.25
 11
-225
 21
180
  0
LINE
  8
0
 10
-225
 20
180
 11
-245
 21
180
  0
LINE
  8
0
 10
-245
 20
180
 11
-245
 21
142.5
  0
LINE
  8
0
 10
-245
 20
142.5
 11
-249.875
 21
142.5
  0
LINE
  8
0
 10
-249.875
 20
142.5
 11
-251.5
 21
140.875
  0
LINE
  8
0
 10
-251.5
 20
140.875
 11
-251.5
 21
129.125
  0
LINE
  8
0
 10
-251.5
 20
129.125
 11
-249.875
 21
127.5
  0
LINE
  8
0
 10
-249.875
 20
127.5
 11
-245
 21
127.5
  0
LINE
  8
0
 10
-245
 20
127.5
 11
-245
 21
122.563
  0
LINE
  8
0
 10
-245
 20
122.563
 11
-237.938
 21
122.563
  0
LINE
  8
0
 10
-237.938
 20
122.563
 11
-237.938
 21
124.7
  0
LINE
  8
0
 10
-237.938
 20
124.7
 11
-232.562
 21
124.7
  0
LINE
  8
0
 10
-232.562
 20
124.7
 11
-232.562
 21
122.563
  0
LINE
  8
0
 10
-232.562
 20
122.563
 11
-231.188
 21
122.563
  0
LINE
  8
0
 10
-231.188
 20
122.563
 11
-231.188
 21
117.437
  0
LINE
  8
0
 10
-231.188
 20
117.437
 11
-232.562
 21
117.437
  0
LINE
  8
0
 10
-232.562
 20
117.437
 11
-232.562
 21
115.3
  0
LINE
  8
0
 10
-232.562
 20
115.3
 11
-237.938
 21
115.3
  0
LINE
  8
0
 10
-237.938
 20
115.3
 11
-237.938
 21
117.437
  0
LINE
  8
0
 10
-237.938
 20
117.437
 11
-245
 21
117.437
  0
LINE
  8
0
 10
-245
 20
117.437
 11
-245
 21
112.5
  0
LINE
  8
0
 10
-245
 20
112.5
 11
-249.875
 21
112.5
  0
LINE
  8
0
 10
-249.875
 20
112.5
 11
-251.5
 21
110.875
  0
LINE
  8
0
 10
-251.5
 20
110.875
 11
-251.5
 21
99.125
  0
LINE
  8
0
 10
-251.5
 20
99.125
 11
-249.875
 21
97.5
  0
LINE
  8
0
 10
-249.875
 20
97.5
 11
-245
 21
97.5
  0
LINE
  8
0
 10
-245
 20
97.5
 11
-245
 21
-97.5
  0
LINE
  8
0
 10
-245
 20
-97.5
 11
-249.875
 21
-97.5
  0
LINE
  8
0
 10
-249.875
 20
-97.5
 11
-251.5
 21
-99.125
  0
LINE
  8
0
 10
-251.5
 20
-99.125
 11
-251.5
 21
-110.875
  0
LINE
  8
0
 10
-251.5
 20
-110.875
 11
-249.875
 21
-112.5
  0
LINE
  8
0
 10
-249.875
 20
-112.5
 11
-245
 21
-112.5
  0
LINE
  8
0
 10
-245
 20
-112.5
 11
-245
 21
-117.437
  0
LINE
  8
0
 10
-245
 20
-117.437
 11
-237.938
 21
-117.437
  0
LINE
  8
0
 10
-237.938
 20
-117.437
 11
-237.938
 21
-115.3
  0
LINE
  8
0
 10
-237.938
 20
-115.3
 11
-232.562
 21
-115.3
  0
LINE
  8
0
 10
-232.562
 20
-115.3
 11
-232.562
 21
-117.437
  0
LINE
  8
0
 10
-232.562
 20
-117.437
 11
-231.188
 21
-117.437
  0
LINE
  8
0
 10
-231.188
 20
-117.437
 11
-231.188
 21
-122.563
  0
LINE
  8
0
 10
-231.188
 20
-122.563
 11
-232.562
 21
-122.563
  0
LINE
  8
0
 10
-232.562
 20
-122.563
 11
-232.562
 21
-124.7
  0
LINE
  8
0
 10
-232.562
 20
-124.7
 11
-237.938
 21
-124.7
  0
LINE
  8
0
 10
-237.938
 20
-124.7
 11
-237.938
 21
-122.563
  0
LINE
  8
0
 10
-237.938
 20
-122.563
 11
-245
 21
-122.563
  0
LINE
  8
0
 10
-245
 20
-122.563
 11
-245
 21
-127.5
  0
LINE
  8
0
 10
-245
 20
-127.5
 11
-249.875
 21
-127.5
  0
LINE
  8
0
 10
-249.875
 20
-127.5
 11
-251.5
 21
-129.125
  0
LINE
  8
0
 10
-251.5
 20
-129.125
 11
-251.5
 21
-140.875
  0
LINE
  8
0
 10
-251.5
 20
-140.875
 11
-249.875
 21
-142.5
  0
LINE
  8
0
 10
-249.875
 20
-142.5
 11
-245
 21
-142.5
  0
LINE
  8
0
 10
-245
 20
-142.5
 11
-245
 21
-180
  0
LINE
  8
0
 10
-245
 20
-180
 11
-225
 21
-180
  0
LINE
  8
0
 10
-225
 20
-180
 11
-225
 21
-220
  0
LINE
  8
0
 10
-225
 20
-220
 11
-167.5
 21
-220
  0
LINE
  8
0
 10
-167.5
 20
-220
 11
-167.5
 21
-224.875
  0
LINE
  8
0
 10
-167.5
 20
-224.875
 11
-165.875
 21
-226.5
  0
LINE
  8
0
 10
-165.875
 20
-226.5
 11
-154.125
 21
-226.5
  0
LINE
  8
0
 10
-154.125
 20
-226.5
 11
-152.5
 21
-224.875
  0
LINE
  8
0
 10
-214
 20
204.25
 11
-214
 21
215.75
  0
LINE
  8
0
 10
-214
 20
215.75
 11
-210
 21
215.75
  0
LINE
  8
0
 10
-210
 20
215.75
 11
-210
 21
204.25
  0
LINE
  8
0
 10
-210
 20
204.25
 11
-214
 21
204.25
  0
LINE
  8
0
 10
210
 20
204.25
 11
210
 21
215.75
  0
LINE
  8
0
 10
210
 20
215.75
 11
214
 21
215.75
  0
LINE
  8
0
 10
214
 20
215.75
 11
214
 21
204.25
  0
LINE
  8
0
 10
214
 20
204.25
 11
210
 21
204.25
  0
LINE
  8
0
 10
214.751
 20
187.312
 11
214.261
 21
187.403
  0
LINE
  8
0
 10
214.261
 20
187.403
 11
213.797
 21
187.583
  0
LINE
  8
0
 10
213.797
 20
187.583
 11
213.373
 21
187.845
  0
LINE
  8
0
 10
213.373
 20
187.845
 11
213.005
 21
188.181
  0
LINE
  8
0
 10
213.005
 20
188.181
 11
212.704
 21
188.579
  0
LINE
  8
0
 10
212.704
 20
188.579
 11
212.482
 21
189.025
  0
LINE
  8
0
 10
212.482
 20
189.025
 11
212.346
 21
189.504
  0
LINE
  8
0
 10
212.346
 20
189.504
 11
212.3
 21
190
  0
LINE
  8
0
 10
212.3
 20
190
 11
212.346
 21
190.496
  0
LINE
  8
0
 10
212.346
 20
190.496
 11
212.482
 21
190.975
  0
LINE
  8
0
 10
212.482
 20
190.975
 11
212.704
 21
191.421
  0
LINE
  8
0
 10
212.704
 20
191.421
 11
213.005
 21
191.819
  0
LINE
  8
0
 10
213.005
 20
191.819
 11
213.373
 21
192.155
  0
LINE
  8
0
 10
213.373
 20
192.155
 11
213.797
 21
192.417
  0
LINE
  8
0
 10
213.797
 20
192.417
 11
214.261
 21
192.597
  0
LINE
  8
0
 10
214.261
 20
192.597
 11
214.751
 21
192.688
  0
LINE
  8
0
 10
214.751
 20
192.688
 11
215.249
 21
192.688
  0
LINE
  8
0
 10
215.249
 20
192.688
 11
215.739
 21
192.597
  0
LINE
  8
0
 10
215.739
 20
192.597
 11
216.203
 21
192.417
  0
LINE
  8
0
 10
216.203
 20
192.417
 11
216.627
 21
192.155
  0
LINE
  8
0
 10
216.627
 20
192.155
 11
216.995
 21
191.819
  0
LINE
  8
0
 10
216.995
 20
191.819
 11
217.296
 21
191.421
  0
LINE
  8
0
 10
217.296
 20
191.421
 11
217.518
 21
190.975
  0
LINE
  8
0
 10
217.518
 20
190.975
 11
217.654
 21
190.496
  0
LINE
  8
0
 10
217.654
 20
190.496
 11
217.7
 21
190
  0
LINE
  8
0
 10
217.7
 20
190
 11
217.654
 21
189.504
  0
LINE
  8
0
 10
217.654
 20
189.504
 11
217.518
 21
189.025
  0
LINE
  8
0
 10
217.518
 20
189.025
 11
217.296
 21
188.579
  0
LINE
  8
0
 10
217.296
 20
188.579
 11
216.995
 21
188.181
  0
LINE
  8
0
 10
216.995
 20
188.181
 11
216.627
 21
187.845
  0
LINE
  8
0
 10
216.627
 20
187.845
 11
216.203
 21
187.583
  0
LINE
  8
0
 10
216.203
 20
187.583
 11
215.739
 21
187.403
  0
LINE
  8
0
 10
215.739
 20
187.403
 11
215.249
 21
187.312
  0
LINE
  8
0
 10
215.249
 20
187.312
 11
214.751
 21
187.312
  0
LINE
  8
0
 10
-215.249
 20
187.312
 11
-215.739
 21
187.403
  0
LINE
  8
0
 10
-215.739
 20
187.403
 11
-216.203
 21
187.583
  0
LINE
  8
0
 10
-216.203
 20
187.583
 11
-216.627
 21
187.845
  0
LINE
  8
0
 10
-216.627
 20
187.845
 11
-216.995
 21
188.181
  0
LINE
  8
0
 10
-216.995
 20
188.181
 11
-217.296
 21
188.579
  0
LINE
  8
0
 10
-217.296
 20
188.579
 11
-217.518
 21
189.025
  0
LINE
  8
0
 10
-217.518
 20
189.025
 11
-217.654
 21
189.504
  0
LINE
  8
0
 10
-217.654
 20
189.504
 11
-217.7
 21
190
  0
LINE
  8
0
 10
-217.7
 20
190
 11
-217.654
 21
190.496
  0
LINE
  8
0
 10
-217.654
 20
190.496
 11
-217.518
 21
190.975
  0
LINE
  8
0
 10
-217.518
 20
190.975
 11
-217.296
 21
191.421
  0
LINE
  8
0
 10
-217.296
 20
191.421
 11
-216.995
 21
191.819
  0
LINE
  8
0
 10
-216.995
 20
191.819
 11
-216.627
 21
192.155
  0
LINE
  8
0
 10
-216.627
 20
192.155
 11
-216.203
 21
192.417
  0
LINE
  8
0
 10
-216.203
 20
192.417
 11
-215.739
 21
192.597
  0
LINE
  8
0
 10
-215.739
 20
192.597
 11
-215.249
 21
192.688
  0
LINE
  8
0
 10
-215.249
 20
192.688
 11
-214.751
 21
192.688
  0
LINE
  8
0
 10
-214.751
 20
192.688
 11
-214.261
 21
192.597
  0
LINE
  8
0
 10
-214.261
 20
192.597
 11
-213.797
 21
192.417
  0
LINE
  8
0
 10
-213.797
 20
192.417
 11
-213.373
 21
192.155
  0
LINE
  8
0
 10
-213.373
 20
192.155
 11
-213.005
 21
191.819
  0
LINE
  8
0
 10
-213.005
 20
191.819
 11
-212.704
 21
191.421
  0
LINE
  8
0
 10
-212.704
 20
191.421
 11
-212.482
 21
190.975
  0
LINE
  8
0
 10
-212.482
 20
190.975
 11
-212.346
 21
190.496
  0
LINE
  8
0
 10
-212.346
 20
190.496
 11
-212.3
 21
190
  0
LINE
  8
0
 10
-212.3
 20
190
 11
-212.346
 21
189.504
  0
LINE
  8
0
 10
-212.346
 20
189.504
 11
-212.482
 21
189.025
  0
LINE
  8
0
 10
-212.482
 20
189.025
 11
-212.704
 21
188.579
  0
LINE
  8
0
 10
-212.704
 20
188.579
 11
-213.005
 21
188.181
  0
LINE
  8
0
 10
-213.005
 20
188.181
 11
-213.373
 21
187.845
  0
LINE
  8
0
 10
-213.373
 20
187.845
 11
-213.797
 21
187.583
  0
LINE
  8
0
 10
-213.797
 20
187.583
 11
-214.261
 21
187.403
  0
LINE
  8
0
 10
-214.261
 20
187.403
 11
-214.751
 21
187.312
  0
LINE
  8
0
 10
-214.751
 20
187.312
 11
-215.249
 21
187.312
  0
LINE
  8
0
 10
-195.249
 20
187.312
 11
-195.739
 21
187.403
  0
LINE
  8
0
 10
-195.739
 20
187.403
 11
-196.203
 21
187.583
  0
LINE
  8
0
 10
-196.203
 20
187.583
 11
-196.627
 21
187.845
  0
LINE
  8
0
 10
-196.627
 20
187.845
 11
-196.995
 21
188.181
  0
LINE
  8
0
 10
-196.995
 20
188.181
 11
-197.296
 21
188.579
  0
LINE
  8
0
 10
-197.296
 20
188.579
 11
-197.518
 21
189.025
  0
LINE
  8
0
 10
-197.518
 20
189.025
 11
-197.654
 21
189.504
  0
LINE
  8
0
 10
-197.654
 20
189.504
 11
-197.7
 21
190
  0
LINE
  8
0
 10
-197.7
 20
190
 11
-197.654
 21
190.496
  0
LINE
  8
0
 10
-197.654
 20
190.496
 11
-197.518
 21
190.975
  0
LINE
  8
0
 10
-197.518
 20
190.975
 11
-197.296
 21
191.421
  0
LINE
  8
0
 10
-197.296
 20
191.421
 11
-196.995
 21
191.819
  0
LINE
  8
0
 10
-196.995
 20
191.819
 11
-196.627
 21
192.155
  0
LINE
  8
0
 10
-196.627
 20
192.155
 11
-196.203
 21
192.417
  0
LINE
  8
0
 10
-196.203
 20
192.417
 11
-195.739
 21
192.597
  0
LINE
  8
0
 10
-195.739
 20
192.597
 11
-195.249
 21
192.688
  0
LINE
  8
0
 10
-195.249
 20
192.688
 11
-194.751
 21
192.688
  0
LINE
  8
0
 10
-194.751
 20
192.688
 11
-194.261
 21
192.597
  0
LINE
  8
0
 10
-194.261
 20
192.597
 11
-193.797
 21
192.417
  0
LINE
  8
0
 10
-193.797
 20
192.417
 11
-193.373
 21
192.155
  0
LINE
  8
0
 10
-193.373
 20
192.155
 11
-193.005
 21
191.819
  0
LINE
  8
0
 10
-193.005
 20
191.819
 11
-192.704
 21
191.421
  0
LINE
  8
0
 10
-192.704
 20
191.421
 11
-192.482
 21
190.975
  0
LINE
  8
0
 10
-192.482
 20
190.975
 11
-192.346
 21
190.496
  0
LINE
  8
0
 10
-192.346
 20
190.496
 11
-192.3
 21
190
  0
LINE
  8
0
 10
-192.3
 20
190
 11
-192.346
 21
189.504
  0
LINE
  8
0
 10
-192.346
 20
189.504
 11
-192.482
 21
189.025
  0
LINE
  8
0
 10
-192.482
 20
189.025
 11
-192.704
 21
188.579
  0
LINE
  8
0
 10
-192.704
 20
188.579
 11
-193.005
 21
188.181
  0
LINE
  8
0
 10
-193.005
 20
188.181
 11
-193.373
 21
187.845
  0
LINE
  8
0
 10
-193.373
 20
187.845
 11
-193.797
 21
187.583
  0
LINE
  8
0
 10
-193.797
 20
187.583
 11
-194.261
 21
187.403
  0
LINE
  8
0
 10
-194.261
 20
187.403
 11
-194.751
 21
187.312
  0
LINE
  8
0
 10
-194.751
 20
187.312
 11
-195.249
 21
187.312
  0
LINE
  8
0
 10
194.751
 20
187.312
 11
194.261
 21
187.403
  0
LINE
  8
0
 10
194.261
 20
187.403
 11
193.797
 21
187.583
  0
LINE
  8
0
 10
193.797
 20
187.583
 11
193.373
 21
187.845
  0
LINE
  8
0
 10
193.373
 20
187.845
 11
193.005
 21
188.181
  0
LINE
  8
0
 10
193.005
 20
188.181
 11
192.704
 21
188.579
  0
LINE
  8
0
 10
192.704
 20
188.579
 11
192.482
 21
189.025
  0
LINE
  8
0
 10
192.482
 20
189.025
 11
192.346
 21
189.504
  0
LINE
  8
0
 10
192.346
 20
189.504
 11
192.3
 21
190
  0
LINE
  8
0
 10
192.3
 20
190
 11
192.346
 21
190.496
  0
LINE
  8
0
 10
192.346
 20
190.496
 11
192.482
 21
190.975
  0
LINE
  8
0
 10
192.482
 20
190.975
 11
192.704
 21
191.421
  0
LINE
  8
0
 10
192.704
 20
191.421
 11
193.005
 21
191.819
  0
LINE
  8
0
 10
193.005
 20
191.819
 11
193.373
 21
192.155
  0
LINE
  8
0
 10
193.373
 20
192.155
 11
193.797
 21
192.417
  0
LINE
  8
0
 10
193.797
 20
192.417
 11
194.261
 21
192.597
  0
LINE
  8
0
 10
194.261
 20
192.597
 11
194.751
 21
192.688
  0
LINE
  8
0
 10
194.751
 20
192.688
 11
195.249
 21
192.688
  0
LINE
  8
0
 10
195.249
 20
192.688
 11
195.739
 21
192.597
  0
LINE
  8
0
 10
195.739
 20
192.597
 11
196.203
 21
192.417
  0
LINE
  8
0
 10
196.203
 20
192.417
 11
196.627
 21
192.155
  0
LINE
  8
0
 10
196.627
 20
192.155
 11
196.995
 21
191.819
  0
LINE
  8
0
 10
196.995
 20
191.819
 11
197.296
 21
191.421
  0
LINE
  8
0
 10
197.296
 20
191.421
 11
197.518
 21
190.975
  0
LINE
  8
0
 10
197.518
 20
190.975
 11
197.654
 21
190.496
  0
LINE
  8
0
 10
197.654
 20
190.496
 11
197.7
 21
190
  0
LINE
  8
0
 10
197.7
 20
190
 11
197.654
 21
189.504
  0
LINE
  8
0
 10
197.654
 20
189.504
 11
197.518
 21
189.025
  0
LINE
  8
0
 10
197.518
 20
189.025
 11
197.296
 21
188.579
  0
LINE
  8
0
 10
197.296
 20
188.579
 11
196.995
 21
188.181
  0
LINE
  8
0
 10
196.995
 20
188.181
 11
196.627
 21
187.845
  0
LINE
  8
0
 10
196.627
 20
187.845
 11
196.203
 21
187.583
  0
LINE
  8
0
 10
196.203
 20
187.583
 11
195.739
 21
187.403
  0
LINE
  8
0
 10
195.739
 20
187.403
 11
195.249
 21
187.312
  0
LINE
  8
0
 10
195.249
 20
187.312
 11
194.751
 21
187.312
  0
LINE
  8
0
 10
-146.831
 20
169.529
 11
-124.274
 21
192.086
  0
LINE
  8
0
 10
-124.274
 20
192.086
 11
-119.749
 21
187.56
  0
LINE
  8
0
 10
-119.749
 20
187.56
 11
-142.305
 21
165.003
  0
LINE
  8
0
 10
-142.305
 20
165.003
 11
-146.831
 21
169.529
  0
LINE
  8
0
 10
119.749
 20
187.56
 11
124.274
 21
192.086
  0
LINE
  8
0
 10
124.274
 20
192.086
 11
146.831
 21
169.529
  0
LINE
  8
0
 10
146.831
 20
169.529
 11
142.305
 21
165.003
  0
LINE
  8
0
 10
142.305
 20
165.003
 11
119.749
 21
187.56
  0
LINE
  8
0
 10
-235.249
 20
167.312
 11
-235.739
 21
167.403
  0
LINE
  8
0
 10
-235.739
 20
167.403
 11
-236.203
 21
167.583
  0
LINE
  8
0
 10
-236.203
 20
167.583
 11
-236.627
 21
167.845
  0
LINE
  8
0
 10
-236.627
 20
167.845
 11
-236.995
 21
168.181
  0
LINE
  8
0
 10
-236.995
 20
168.181
 11
-237.296
 21
168.579
  0
LINE
  8
0
 10
-237.296
 20
168.579
 11
-237.518
 21
169.025
  0
LINE
  8
0
 10
-237.518
 20
169.025
 11
-237.654
 21
169.504
  0
LINE
  8
0
 10
-237.654
 20
169.504
 11
-237.7
 21
170
  0
LINE
  8
0
 10
-237.7
 20
170
 11
-237.654
 21
170.496
  0
LINE
  8
0
 10
-237.654
 20
170.496
 11
-237.518
 21
170.975
  0
LINE
  8
0
 10
-237.518
 20
170.975
 11
-237.296
 21
171.421
  0
LINE
  8
0
 10
-237.296
 20
171.421
 11
-236.995
 21
171.819
  0
LINE
  8
0
 10
-236.995
 20
171.819
 11
-236.627
 21
172.155
  0
LINE
  8
0
 10
-236.627
 20
172.155
 11
-236.203
 21
172.417
  0
LINE
  8
0
 10
-236.203
 20
172.417
 11
-235.739
 21
172.597
  0
LINE
  8
0
 10
-235.739
 20
172.597
 11
-235.249
 21
172.688
  0
LINE
  8
0
 10
-235.249
 20
172.688
 11
-234.751
 21
172.688
  0
LINE
  8
0
 10
-234.751
 20
172.688
 11
-234.261
 21
172.597
  0
LINE
  8
0
 10
-234.261
 20
172.597
 11
-233.797
 21
172.417
  0
LINE
  8
0
 10
-233.797
 20
172.417
 11
-233.373
 21
172.155
  0
LINE
  8
0
 10
-233.373
 20
172.155
 11
-233.005
 21
171.819
  0
LINE
  8
0
 10
-233.005
 20
171.819
 11
-232.704
 21
171.421
  0
LINE
  8
0
 10
-232.704
 20
171.421
 11
-232.482
 21
170.975
  0
LINE
  8
0
 10
-232.482
 20
170.975
 11
-232.346
 21
170.496
  0
LINE
  8
0
 10
-232.346
 20
170.496
 11
-232.3
 21
170
  0
LINE
  8
0
 10
-232.3
 20
170
 11
-232.346
 21
169.504
  0
LINE
  8
0
 10
-232.346
 20
169.504
 11
-232.482
 21
169.025
  0
LINE
  8
0
 10
-232.482
 20
169.025
 11
-232.704
 21
168.579
  0
LINE
  8
0
 10
-232.704
 20
168.579
 11
-233.005
 21
168.181
  0
LINE
  8
0
 10
-233.005
 20
168.181
 11
-233.373
 21
167.845
  0
LINE
  8
0
 10
-233.373
 20
167.845
 11
-233.797
 21
167.583
  0
LINE
  8
0
 10
-233.797
 20
167.583
 11
-234.261
 21
167.403
  0
LINE
  8
0
 10
-234.261
 20
167.403
 11
-234.751
 21
167.312
  0
LINE
  8
0
 10
-234.751
 20
167.312
 11
-235.249
 21
167.312
  0
LINE
  8
0
 10
234.751
 20
167.312
 11
234.261
 21
167.403
  0
LINE
  8
0
 10
234.261
 20
167.403
 11
233.797
 21
167.583
  0
LINE
  8
0
 10
233.797
 20
167.583
 11
233.373
 21
167.845
  0
LINE
  8
0
 10
233.373
 20
167.845
 11
233.005
 21
168.181
  0
LINE
  8
0
 10
233.005
 20
168.181
 11
232.704
 21
168.579
  0
LINE
  8
0
 10
232.704
 20
168.579
 11
232.482
 21
169.025
  0
LINE
  8
0
 10
232.482
 20
169.025
 11
232.346
 21
169.504
  0
LINE
  8
0
 10
232.346
 20
169.504
 11
232.3
 21
170
  0
LINE
  8
0
 10
232.3
 20
170
 11
232.346
 21
170.496
  0
LINE
  8
0
 10
232.346
 20
170.496
 11
232.482
 21
170.975
  0
LINE
  8
0
 10
232.482
 20
170.975
 11
232.704
 21
171.421
  0
LINE
  8
0
 10
232.704
 20
171.421
 11
233.005
 21
171.819
  0
LINE
  8
0
 10
233.005
 20
171.819
 11
233.373
 21
172.155
  0
LINE
  8
0
 10
233.373
 20
172.155
 11
233.797
 21
172.417
  0
LINE
  8
0
 10
233.797
 20
172.417
 11
234.261
 21
172.597
  0
LINE
  8
0
 10
234.261
 20
172.597
 11
234.751
 21
172.688
  0
LINE
  8
0
 10
234.751
 20
172.688
 11
235.249
 21
172.688
  0
LINE
  8
0
 10
235.249
 20
172.688
 11
235.739
 21
172.597
  0
LINE
  8
0
 10
235.739
 20
172.597
 11
236.203
 21
172.417
  0
LINE
  8
0
 10
236.203
 20
172.417
 11
236.627
 21
172.155
  0
LINE
  8
0
 10
236.627
 20
172.155
 11
236.995
 21
171.819
  0
LINE
  8
0
 10
236.995
 20
171.819
 11
237.296
 21
171.421
  0
LINE
  8
0
 10
237.296
 20
171.421
 11
237.518
 21
170.975
  0
LINE
  8
0
 10
237.518
 20
170.975
 11
237.654
 21
170.496
  0
LINE
  8
0
 10
237.654
 20
170.496
 11
237.7
 21
170
  0
LINE
  8
0
 10
237.7
 20
170
 11
237.654
 21
169.504
  0
LINE
  8
0
 10
237.654
 20
169.504
 11
237.518
 21
169.025
  0
LINE
  8
0
 10
237.518
 20
169.025
 11
237.296
 21
168.579
  0
LINE
  8
0
 10
237.296
 20
168.579
 11
236.995
 21
168.181
  0
LINE
  8
0
 10
236.995
 20
168.181
 11
236.627
 21
167.845
  0
LINE
  8
0
 10
236.627
 20
167.845
 11
236.203
 21
167.583
  0
LINE
  8
0
 10
236.203
 20
167.583
 11
235.739
 21
167.403
  0
LINE
  8
0
 10
235.739
 20
167.403
 11
235.249
 21
167.312
  0
LINE
  8
0
 10
235.249
 20
167.312
 11
234.751
 21
167.312
  0
LINE
  8
0
 10
234.751
 20
147.312
 11
234.261
 21
147.403
  0
LINE
  8
0
 10
234.261
 20
147.403
 11
233.797
 21
147.583
  0
LINE
  8
0
 10
233.797
 20
147.583
 11
233.373
 21
147.845
  0
LINE
  8
0
 10
233.373
 20
147.845
 11
233.005
 21
148.181
  0
LINE
  8
0
 10
233.005
 20
148.181
 11
232.704
 21
148.579
  0
LINE
  8
0
 10
232.704
 20
148.579
 11
232.482
 21
149.025
  0
LINE
  8
0
 10
232.482
 20
149.025
 11
232.346
 21
149.504
  0
LINE
  8
0
 10
232.346
 20
149.504
 11
232.3
 21
150
  0
LINE
  8
0
 10
232.3
 20
150
 11
232.346
 21
150.496
  0
LINE
  8
0
 10
232.346
 20
150.496
 11
232.482
 21
150.975
  0
LINE
  8
0
 10
232.482
 20
150.975
 11
232.704
 21
151.421
  0
LINE
  8
0
 10
232.704
 20
151.421
 11
233.005
 21
151.819
  0
LINE
  8
0
 10
233.005
 20
151.819
 11
233.373
 21
152.155
  0
LINE
  8
0
 10
233.373
 20
152.155
 11
233.797
 21
152.417
  0
LINE
  8
0
 10
233.797
 20
152.417
 11
234.261
 21
152.597
  0
LINE
  8
0
 10
234.261
 20
152.597
 11
234.751
 21
152.688
  0
LINE
  8
0
 10
234.751
 20
152.688
 11
235.249
 21
152.688
  0
LINE
  8
0
 10
235.249
 20
152.688
 11
235.739
 21
152.597
  0
LINE
  8
0
 10
235.739
 20
152.597
 11
236.203
 21
152.417
  0
LINE
  8
0
 10
236.203
 20
152.417
 11
236.627
 21
152.155
  0
LINE
  8
0
 10
236.627
 20
152.155
 11
236.995
 21
151.819
  0
LINE
  8
0
 10
236.995
 20
151.819
 11
237.296
 21
151.421
  0
LINE
  8
0
 10
237.296
 20
151.421
 11
237.518
 21
150.975
  0
LINE
  8
0
 10
237.518
 20
150.975
 11
237.654
 21
150.496
  0
LINE
  8
0
 10
237.654
 20
150.496
 11
237.7
 21
150
  0
LINE
  8
0
 10
237.7
 20
150
 11
237.654
 21
149.504
  0
LINE
  8
0
 10
237.654
 20
149.504
 11
237.518
 21
149.025
  0
LINE
  8
0
 10
237.518
 20
149.025
 11
237.296
 21
148.579
  0
LINE
  8
0
 10
237.296
 20
148.579
 11
236.995
 21
148.181
  0
LINE
  8
0
 10
236.995
 20
148.181
 11
236.627
 21
147.845
  0
LINE
  8
0
 10
236.627
 20
147.845
 11
236.203
 21
147.583
  0
LINE
  8
0
 10
236.203
 20
147.583
 11
235.739
 21
147.403
  0
LINE
  8
0
 10
235.739
 20
147.403
 11
235.249
 21
147.312
  0
LINE
  8
0
 10
235.249
 20
147.312
 11
234.751
 21
147.312
  0
LINE
  8
0
 10
-235.249
 20
147.312
 11
-235.739
 21
147.403
  0
LINE
  8
0
 10
-235.739
 20
147.403
 11
-236.203
 21
147.583
  0
LINE
  8
0
 10
-236.203
 20
147.583
 11
-236.627
 21
147.845
  0
LINE
  8
0
 10
-236.627
 20
147.845
 11
-236.995
 21
148.181
  0
LINE
  8
0
 10
-236.995
 20
148.181
 11
-237.296
 21
148.579
  0
LINE
  8
0
 10
-237.296
 20
148.579
 11
-237.518
 21
149.025
  0
LINE
  8
0
 10
-237.518
 20
149.025
 11
-237.654
 21
149.504
  0
LINE
  8
0
 10
-237.654
 20
149.504
 11
-237.7
 21
150
  0
LINE
  8
0
 10
-237.7
 20
150
 11
-237.654
 21
150.496
  0
LINE
  8
0
 10
-237.654
 20
150.496
 11
-237.518
 21
150.975
  0
LINE
  8
0
 10
-237.518
 20
150.975
 11
-237.296
 21
151.421
  0
LINE
  8
0
 10
-237.296
 20
151.421
 11
-236.995
 21
151.819
  0
LINE
  8
0
 10
-236.995
 20
151.819
 11
-236.627
 21
152.155
  0
LINE
  8
0
 10
-236.627
 20
152.155
 11
-236.203
 21
152.417
  0
LINE
  8
0
 10
-236.203
 20
152.417
 11
-235.739
 21
152.597
  0
LINE
  8
0
 10
-235.739
 20
152.597
 11
-235.249
 21
152.688
  0
LINE
  8
0
 10
-235.249
 20
152.688
 11
-234.751
 21
152.688
  0
LINE
  8
0
 10
-234.751
 20
152.688
 11
-234.261
 21
152.597
  0
LINE
  8
0
 10
-234.261
 20
152.597
 11
-233.797
 21
152.417
  0
LINE
  8
0
 10
-233.797
 20
152.417
 11
-233.373
 21
152.155
  0
LINE
  8
0
 10
-233.373
 20
152.155
 11
-233.005
 21
151.819
  0
LINE
  8
0
 10
-233.005
 20
151.819
 11
-232.704
 21
151.421
  0
LINE
  8
0
 10
-232.704
 20
151.421
 11
-232.482
 21
150.975
  0
LINE
  8
0
 10
-232.482
 20
150.975
 11
-232.346
 21
150.496
  0
LINE
  8
0
 10
-232.346
 20
150.496
 11
-232.3
 21
150
  0
LINE
  8
0
 10
-232.3
 20
150
 11
-232.346
 21
149.504
  0
LINE
  8
0
 10
-232.346
 20
149.504
 11
-232.482
 21
149.025
  0
LINE
  8
0
 10
-232.482
 20
149.025
 11
-232.704
 21
148.579
  0
LINE
  8
0
 10
-232.704
 20
148.579
 11
-233.005
 21
148.181
  0
LINE
  8
0
 10
-233.005
 20
148.181
 11
-233.373
 21
147.845
  0
LINE
  8
0
 10
-233.373
 20
147.845
 11
-233.797
 21
147.583
  0
LINE
  8
0
 10
-233.797
 20
147.583
 11
-234.261
 21
147.403
  0
LINE
  8
0
 10
-234.261
 20
147.403
 11
-234.751
 21
147.312
  0
LINE
  8
0
 10
-234.751
 20
147.312
 11
-235.249
 21
147.312
  0
LINE
  8
0
 10
-192.086
 20
124.274
 11
-169.529
 21
146.831
  0
LINE
  8
0
 10
-169.529
 20
146.831
 11
-165.003
 21
142.305
  0
LINE
  8
0
 10
-165.003
 20
142.305
 11
-187.56
 21
119.749
  0
LINE
  8
0
 10
-187.56
 20
119.749
 11
-192.086
 21
124.274
  0
LINE
  8
0
 10
165.003
 20
142.305
 11
169.529
 21
146.831
  0
LINE
  8
0
 10
169.529
 20
146.831
 11
192.086
 21
124.274
  0
LINE
  8
0
 10
192.086
 20
124.274
 11
187.56
 21
119.749
  0
LINE
  8
0
 10
187.56
 20
119.749
 11
165.003
 21
142.305
  0
LINE
  8
0
 10
-4.50484
 20
-2.16942
 11
-4.50484
 21
2.16942
  0
LINE
  8
0
 10
-4.50484
 20
2.16942
 11
-1.11259
 21
4.87463
  0
LINE
  8
0
 10
-1.11259
 20
4.87463
 11
3.11745
 21
3.90915
  0
LINE
  8
0
 10
3.11745
 20
3.90915
 11
5
 21
0
  0
LINE
  8
0
 10
5
 20
0
 11
3.11745
 21
-3.90915
  0
LINE
  8
0
 10
3.11745
 20
-3.90915
 11
-1.11259
 21
-4.87463
  0
LINE
  8
0
 10
-1.11259
 20
-4.87463
 11
-4.50484
 21
-2.16942
  0
LINE
  8
0
 10
165.003
 20
-142.305
 11
187.56
 21
-119.749
  0
LINE
  8
0
 10
187.56
 20
-119.749
 11
192.086
 21
-124.274
  0
LINE
  8
0
 10
192.086
 20
-124.274
 11
169.529
 21
-146.831
  0
LINE
  8
0
 10
169.529
 20
-146.831
 11
165.003
 21
-142.305
  0
LINE
  8
0
 10
-192.086
 20
-124.274
 11
-187.56
 21
-119.749
  0
LINE
  8
0
 10
-187.56
 20
-119.749
 11
-165.003
 21
-142.305
  0
LINE
  8
0
 10
-165.003
 20
-142.305
 11
-169.529
 21
-146.831
  0
LINE
  8
0
 10
-169.529
 20
-146.831
 11
-192.086
 21
-124.274
  0
LINE
  8
0
 10
-235.249
 20
-152.688
 11
-235.739
 21
-152.597
  0
LINE
  8
0
 10
-235.739
 20
-152.597
 11
-236.203
 21
-152.417
  0
LINE
  8
0
 10
-236.203
 20
-152.417
 11
-236.627
 21
-152.155
  0
LINE
  8
0
 10
-236.627
 20
-152.155
 11
-236.995
 21
-151.819
  0
LINE
  8
0
 10
-236.995
 20
-151.819
 11
-237.296
 21
-151.421
  0
LINE
  8
0
 10
-237.296
 20
-151.421
 11
-237.518
 21
-150.975
  0
LINE
  8
0
 10
-237.518
 20
-150.975
 11
-237.654
 21
-150.496
  0
LINE
  8
0
 10
-237.654
 20
-150.496
 11
-237.7
 21
-150
  0
LINE
  8
0
 10
-237.7
 20
-150
 11
-237.654
 21
-149.504
  0
LINE
  8
0
 10
-237.654
 20
-149.504
 11
-237.518
 21
-149.025
  0
LINE
  8
0
 10
-237.518
 20
-149.025
 11
-237.296
 21
-148.579
  0
LINE
  8
0
 10
-237.296
 20
-148.579
 11
-236.995
 21
-148.181
  0
LINE
  8
0
 10
-236.995
 20
-148.181
 11
-236.627
 21
-147.845
  0
LINE
  8
0
 10
-236.627
 20
-147.845
 11
-236.203
 21
-147.583
  0
LINE
  8
0
 10
-236.203
 20
-147.583
 11
-235.739
 21
-147.403
  0
LINE
  8
0
 10
-235.739
 20
-147.403
 11
-235.249
 21
-147.312
  0
LINE
  8
0
 10
-235.249
 20
-147.312
 11
-234.751
 21
-147.312
  0
LINE
  8
0
 10
-234.751
 20
-147.312
 11
-234.261
 21
-147.403
  0
LINE
  8
0
 10
-234.261
 20
-147.403
 11
-233.797
 21
-147.583
  0
LINE
  8
0
 10
-233.797
 20
-147.583
 11
-233.373
 21
-147.845
  0
LINE
  8
0
 10
-233.373
 20
-147.845
 11
-233.005
 21
-148.181
  0
LINE
  8
0
 10
-233.005
 20
-148.181
 11
-232.704
 21
-148.579
  0
LINE
  8
0
 10
-232.704
 20
-148.579
 11
-232.482
 21
-149.025
  0
LINE
  8
0
 10
-232.482
 20
-149.025
 11
-232.346
 21
-149.504
  0
LINE
  8
0
 10
-232.346
 20
-149.504
 11
-232.3
 21
-150
  0
LINE
  8
0
 10
-232.3
 20
-150
 11
-232.346
 21
-150.496
  0
LINE
  8
0
 10
-232.346
 20
-150.496
 11
-232.482
 21
-150.975
  0
LINE
  8
0
 10
-232.482
 20
-150.975
 11
-232.704
 21
-151.421
  0
LINE
  8
0
 10
-232.704
 20
-151.421
 11
-233.005
 21
-151.819
  0
LINE
  8
0
 10
-233.005
 20
-151.819
 11
-233.373
 21
-152.155
  0
LINE
  8
0
 10
-233.373
 20
-152.155
 11
-233.797
 21
-152.417
  0
LINE
  8
0
 10
-233.797
 20
-152.417
 11
-234.261
 21
-152.597
  0
LINE
  8
0
 10
-234.261
 20
-152.597
 11
-234.751
 21
-152.688
  0
LINE
  8
0
 10
-234.751
 20
-152.688
 11
-235.249
 21
-152.688
  0
LINE
  8
0
 10
234.751
 20
-152.688
 11
234.261
 21
-152.597
  0
LINE
  8
0
 10
234.261
 20
-152.597
 11
233.797
 21
-152.417
  0
LINE
  8
0
 10
233.797
 20
-152.417
 11
233.373
 21
-152.155
  0
LINE
  8
0
 10
233.373
 20
-152.155
 11
233.005
 21
-151.819
  0
LINE
  8
0
 10
233.005
 20
-151.819
 11
232.704
 21
-151.421
  0
LINE
  8
0
 10
232.704
 20
-151.421
 11
232.482
 21
-150.975
  0
LINE
  8
0
 10
232.482
 20
-150.975
 11
232.346
 21
-150.496
  0
LINE
  8
0
 10
232.346
 20
-150.496
 11
232.3
 21
-150
  0
LINE
  8
0
 10
232.3
 20
-150
 11
232.346
 21
-149.504
  0
LINE
  8
0
 10
232.346
 20
-149.504
 11
232.482
 21
-149.025
  0
LINE
  8
0
 10
232.482
 20
-149.025
 11
232.704
 21
-148.579
  0
LINE
  8
0
 10
232.704
 20
-148.579
 11
233.005
 21
-148.181
  0
LINE
  8
0
 10
233.005
 20
-148.181
 11
233.373
 21
-147.845
  0
LINE
  8
0
 10
233.373
 20
-147.845
 11
233.797
 21
-147.583
  0
LINE
  8
0
 10
233.797
 20
-147.583
 11
234.261
 21
-147.403
  0
LINE
  8
0
 10
234.261
 20
-147.403
 11
234.751
 21
-147.312
  0
LINE
  8
0
 10
234.751
 20
-147.312
 11
235.249
 21
-147.312
  0
LINE
  8
0
 10
235.249
 20
-147.312
 11
235.739
 21
-147.403
  0
LINE
  8
0
 10
235.739
 20
-147.403
 11
236.203
 21
-147.583
  0
LINE
  8
0
 10
236.203
 20
-147.583
 11
236.627
 21
-147.845
  0
LINE
  8
0
 10
236.627
 20
-147.845
 11
236.995
 21
-148.181
  0
LINE
  8
0
 10
236.995
 20
-148.181
 11
237.296
 21
-148.579
  0
LINE
  8
0
 10
237.296
 20
-148.579
 11
237.518
 21
-149.025
  0
LINE
  8
0
 10
237.518
 20
-149.025
 11
237.654
 21
-149.504
  0
LINE
  8
0
 10
237.654
 20
-149.504
 11
237.7
 21
-150
  0
LINE
  8
0
 10
237.7
 20
-150
 11
237.654
 21
-150.496
  0
LINE
  8
0
 10
237.654
 20
-150.496
 11
237.518
 21
-150.975
  0
LINE
  8
0
 10
237.518
 20
-150.975
 11
237.296
 21
-151.421
  0
LINE
  8
0
 10
237.296
 20
-151.421
 11
236.995
 21
-151.819
  0
LINE
  8
0
 10
236.995
 20
-151.819
 11
236.627
 21
-152.155
  0
LINE
  8
0
 10
236.627
 20
-152.155
 11
236.203
 21
-152.417
  0
LINE
  8
0
 10
236.203
 20
-152.417
 11
235.739
 21
-152.597
  0
LINE
  8
0
 10
235.739
 20
-152.597
 11
235.249
 21
-152.688
  0
LINE
  8
0
 10
235.249
 20
-152.688
 11
234.751
 21
-152.688
  0
LINE
  8
0
 10
119.749
 20
-187.56
 11
142.305
 21
-165.003
  0
LINE
  8
0
 10
142.305
 20
-165.003
 11
146.831
 21
-169.529
  0
LINE
  8
0
 10
146.831
 20
-169.529
 11
124.274
 21
-192.086
  0
LINE
  8
0
 10
124.274
 20
-192.086
 11
119.749
 21
-187.56
  0
LINE
  8
0
 10
-146.831
 20
-169.529
 11
-142.305
 21
-165.003
  0
LINE
  8
0
 10
-142.305
 20
-165.003
 11
-119.749
 21
-187.56
  0
LINE
  8
0
 10
-119.749
 20
-187.56
 11
-124.274
 21
-192.086
  0
LINE
  8
0
 10
-124.274
 20
-192.086
 11
-146.831
 21
-169.529
  0
LINE
  8
0
 10
-235.249
 20
-172.688
 11
-235.739
 21
-172.597
  0
LINE
  8
0
 10
-235.739
 20
-172.597
 11
-236.203
 21
-172.417
  0
LINE
  8
0
 10
-236.203
 20
-172.417
 11
-236.627
 21
-172.155
  0
LINE
  8
0
 10
-236.627
 20
-172.155
 11
-236.995
 21
-171.819
  0
LINE
  8
0
 10
-236.995
 20
-171.819
 11
-237.296
 21
-171.421
  0
LINE
  8
0
 10
-237.296
 20
-171.421
 11
-237.518
 21
-170.975
  0
LINE
  8
0
 10
-237.518
 20
-170.975
 11
-237.654
 21
-170.496
  0
LINE
  8
0
 10
-237.654
 20
-170.496
 11
-237.7
 21
-170
  0
LINE
  8
0
 10
-237.7
 20
-170
 11
-237.654
 21
-169.504
  0
LINE
  8
0
 10
-237.654
 20
-169.504
 11
-237.518
 21
-169.025
  0
LINE
  8
0
 10
-237.518
 20
-169.025
 11
-237.296
 21
-168.579
  0
LINE
  8
0
 10
-237.296
 20
-168.579
 11
-236.995
 21
-168.181
  0
LINE
  8
0
 10
-236.995
 20
-168.181
 11
-236.627
 21
-167.845
  0
LINE
  8
0
 10
-236.627
 20
-167.845
 11
-236.203
 21
-167.583
  0
LINE
  8
0
 10
-236.203
 20
-167.583
 11
-235.739
 21
-167.403
  0
LINE
  8
0
 10
-235.739
 20
-167.403
 11
-235.249
 21
-167.312
  0
LINE
  8
0
 10
-235.249
 20
-167.312
 11
-234.751
 21
-167.312
  0
LINE
  8
0
 10
-234.751
 20
-167.312
 11
-234.261
 21
-167.403
  0
LINE
  8
0
 10
-234.261
 20
-167.403
 11
-233.797
 21
-167.583
  0
LINE
  8
0
 10
-233.797
 20
-167.583
 11
-233.373
 21
-167.845
  0
LINE
  8
0
 10
-233.373
 20
-167.845
 11
-233.005
 21
-168.181
  0
LINE
  8
0
 10
-233.005
 20
-168.181
 11
-232.704
 21
-168.579
  0
LINE
  8
0
 10
-232.704
 20
-168.579
 11
-232.482
 21
-169.025
  0
LINE
  8
0
 10
-232.482
 20
-169.025
 11
-232.346
 21
-169.504
  0
LINE
  8
0
 10
-232.346
 20
-169.504
 11
-232.3
 21
-170
  0
LINE
  8
0
 10
-232.3
 20
-170
 11
-232.346
 21
-170.496
  0
LINE
  8
0
 10
-232.346
 20
-170.496
 11
-232.482
 21
-170.975
  0
LINE
  8
0
 10
-232.482
 20
-170.975
 11
-232.704
 21
-171.421
  0
LINE
  8
0
 10
-232.704
 20
-171.421
 11
-233.005
 21
-171.819
  0
LINE
  8
0
 10
-233.005
 20
-171.819
 11
-233.373
 21
-172.155
  0
LINE
  8
0
 10
-233.373
 20
-172.155
 11
-233.797
 21
-172.417
  0
LINE
  8
0
 10
-233.797
 20
-172.417
 11
-234.261
 21
-172.597
  0
LINE
  8
0
 10
-234.261
 20
-172.597
 11
-234.751
 21
-172.688
  0
LINE
  8
0
 10
-234.751
 20
-172.688
 11
-235.249
 21
-172.688
  0
LINE
  8
0
 10
234.751
 20
-172.688
 11
234.261
 21
-172.597
  0
LINE
  8
0
 10
234.261
 20
-172.597
 11
233.797
 21
-172.417
  0
LINE
  8
0
 10
233.797
 20
-172.417
 11
233.373
 21
-172.155
  0
LINE
  8
0
 10
233.373
 20
-172.155
 11
233.005
 21
-171.819
  0
LINE
  8
0
 10
233.005
 20
-171.819
 11
232.704
 21
-171.421
  0
LINE
  8
0
 10
232.704
 20
-171.421
 11
232.482
 21
-170.975
  0
LINE
  8
0
 10
232.482
 20
-170.975
 11
232.346
 21
-170.496
  0
LINE
  8
0
 10
232.346
 20
-170.496
 11
232.3
 21
-170
  0
LINE
  8
0
 10
232.3
 20
-170
 11
232.346
 21
-169.504
  0
LINE
  8
0
 10
232.346
 20
-169.504
 11
232.482
 21
-169.025
  0
LINE
  8
0
 10
232.482
 20
-169.025
 11
232.704
 21
-168.579
  0
LINE
  8
0
 10
232.704
 20
-168.579
 11
233.005
 21
-168.181
  0
LINE
  8
0
 10
233.005
 20
-168.181
 11
233.373
 21
-167.845
  0
LINE
  8
0
 10
233.373
 20
-167.845
 11
233.797
 21
-167.583
  0
LINE
  8
0
 10
233.797
 20
-167.583
 11
234.261
 21
-167.403
  0
LINE
  8
0
 10
234.261
 20
-167.403
 11
234.751
 21
-167.312
  0
LINE
  8
0
 10
234.751
 20
-167.312
 11
235.249
 21
-167.312
  0
LINE
  8
0
 10
235.249
 20
-167.312
 11
235.739
 21
-167.403
  0
LINE
  8
0
 10
235.739
 20
-167.403
 11
236.203
 21
-167.583
  0
LINE
  8
0
 10
236.203
 20
-167.583
 11
236.627
 21
-167.845
  0
LINE
  8
0
 10
236.627
 20
-167.845
 11
236.995
 21
-168.181
  0
LINE
  8
0
 10
236.995
 20
-168.181
 11
237.296
 21
-168.579
  0
LINE
  8
0
 10
237.296
 20
-168.579
 11
237.518
 21
-169.025
  0
LINE
  8
0
 10
237.518
 20
-169.025
 11
237.654
 21
-169.504
  0
LINE
  8
0
 10
237.654
 20
-169.504
 11
237.7
 21
-170
  0
LINE
  8
0
 10
237.7
 20
-170
 11
237.654
 21
-170.496
  0
LINE
  8
0
 10
237.654
 20
-170.496
 11
237.518
 21
-170.975
  0
LINE
  8
0
 10
237.518
 20
-170.975
 11
237.296
 21
-171.421
  0
LINE
  8
0
 10
237.296
 20
-171.421
 11
236.995
 21
-171.819
  0
LINE
  8
0
 10
236.995
 20
-171.819
 11
236.627
 21
-172.155
  0
LINE
  8
0
 10
236.627
 20
-172.155
 11
236.203
 21
-172.417
  0
LINE
  8
0
 10
236.203
 20
-172.417
 11
235.739
 21
-172.597
  0
LINE
  8
0
 10
235.739
 20
-172.597
 11
235.249
 21
-172.688
  0
LINE
  8
0
 10
235.249
 20
-172.688
 11
234.751
 21
-172.688
  0
LINE
  8
0
 10
-195.249
 20
-192.688
 11
-195.739
 21
-192.597
  0
LINE
  8
0
 10
-195.739
 20
-192.597
 11
-196.203
 21
-192.417
  0
LINE
  8
0
 10
-196.203
 20
-192.417
 11
-196.627
 21
-192.155
  0
LINE
  8
0
 10
-196.627
 20
-192.155
 11
-196.995
 21
-191.819
  0
LINE
  8
0
 10
-196.995
 20
-191.819
 11
-197.296
 21
-191.421
  0
LINE
  8
0
 10
-197.296
 20
-191.421
 11
-197.518
 21
-190.975
  0
LINE
  8
0
 10
-197.518
 20
-190.975
 11
-197.654
 21
-190.496
  0
LINE
  8
0
 10
-197.654
 20
-190.496
 11
-197.7
 21
-190
  0
LINE
  8
0
 10
-197.7
 20
-190
 11
-197.654
 21
-189.504
  0
LINE
  8
0
 10
-197.654
 20
-189.504
 11
-197.518
 21
-189.025
  0
LINE
  8
0
 10
-197.518
 20
-189.025
 11
-197.296
 21
-188.579
  0
LINE
  8
0
 10
-197.296
 20
-188.579
 11
-196.995
 21
-188.181
  0
LINE
  8
0
 10
-196.995
 20
-188.181
 11
-196.627
 21
-187.845
  0
LINE
  8
0
 10
-196.627
 20
-187.845
 11
-196.203
 21
-187.583
  0
LINE
  8
0
 10
-196.203
 20
-187.583
 11
-195.739
 21
-187.403
  0
LINE
  8
0
 10
-195.739
 20
-187.403
 11
-195.249
 21
-187.312
  0
LINE
  8
0
 10
-195.249
 20
-187.312
 11
-194.751
 21
-187.312
  0
LINE
  8
0
 10
-194.751
 20
-187.312
 11
-194.261
 21
-187.403
  0
LINE
  8
0
 10
-194.261
 20
-187.403
 11
-193.797
 21
-187.583
  0
LINE
  8
0
 10
-193.797
 20
-187.583
 11
-193.373
 21
-187.845
  0
LINE
  8
0
 10
-193.373
 20
-187.845
 11
-193.005
 21
-188.181
  0
LINE
  8
0
 10
-193.005
 20
-188.181
 11
-192.704
 21
-188.579
  0
LINE
  8
0
 10
-192.704
 20
-188.579
 11
-192.482
 21
-189.025
  0
LINE
  8
0
 10
-192.482
 20
-189.025
 11
-192.346
 21
-189.504
  0
LINE
  8
0
 10
-192.346
 20
-189.504
 11
-192.3
 21
-190
  0
LINE
  8
0
 10
-192.3
 20
-190
 11
-192.346
 21
-190.496
  0
LINE
  8
0
 10
-192.346
 20
-190.496
 11
-192.482
 21
-190.975
  0
LINE
  8
0
 10
-192.482
 20
-190.975
 11
-192.704
 21
-191.421
  0
LINE
  8
0
 10
-192.704
 20
-191.421
 11
-193.005
 21
-191.819
  0
LINE
  8
0
 10
-193.005
 20
-191.819
 11
-193.373
 21
-192.155
  0
LINE
  8
0
 10
-193.373
 20
-192.155
 11
-193.797
 21
-192.417
  0
LINE
  8
0
 10
-193.797
 20
-192.417
 11
-194.261
 21
-192.597
  0
LINE
  8
0
 10
-194.261
 20
-192.597
 11
-194.751
 21
-192.688
  0
LINE
  8
0
 10
-194.751
 20
-192.688
 11
-195.249
 21
-192.688
  0
LINE
  8
0
 10
194.751
 20
-192.688
 11
194.261
 21
-192.597
  0
LINE
  8
0
 10
194.261
 20
-192.597
 11
193.797
 21
-192.417
  0
LINE
  8
0
 10
193.797
 20
-192.417
 11
193.373
 21
-192.155
  0
LINE
  8
0
 10
193.373
 20
-192.155
 11
193.005
 21
-191.819
  0
LINE
  8
0
 10
193.005
 20
-191.819
 11
192.704
 21
-191.421
  0
LINE
  8
0
 10
192.704
 20
-191.421
 11
192.482
 21
-190.975
  0
LINE
  8
0
 10
192.482
 20
-190.975
 11
192.346
 21
-190.496
  0
LINE
  8
0
 10
192.346
 20
-190.496
 11
192.3
 21
-190
  0
LINE
  8
0
 10
192.3
 20
-190
 11
192.346
 21
-189.504
  0
LINE
  8
0
 10
192.346
 20
-189.504
 11
192.482
 21
-189.025
  0
LINE
  8
0
 10
192.482
 20
-189.025
 11
192.704
 21
-188.579
  0
LINE
  8
0
 10
192.704
 20
-188.579
 11
193.005
 21
-188.181
  0
LINE
  8
0
 10
193.005
 20
-188.181
 11
193.373
 21
-187.845
  0
LINE
  8
0
 10
193.373
 20
-187.845
 11
193.797
 21
-187.583
  0
LINE
  8
0
 10
193.797
 20
-187.583
 11
194.261
 21
-187.403
  0
LINE
  8
0
 10
194.261
 20
-187.403
 11
194.751
 21
-187.312
  0
LINE
  8
0
 10
194.751
 20
-187.312
 11
195.249
 21
-187.312
  0
LINE
  8
0
 10
195.249
 20
-187.312
 11
195.739
 21
-187.403
  0
LINE
  8
0
 10
195.739
 20
-187.403
 11
196.203
 21
-187.583
  0
LINE
  8
0
 10
196.203
 20
-187.583
 11
196.627
 21
-187.845
  0
LINE
  8
0
 10
196.627
 20
-187.845
 11
196.995
 21
-188.181
  0
LINE
  8
0
 10
196.995
 20
-188.181
 11
197.296
 21
-188.579
  0
LINE
  8
0
 10
197.296
 20
-188.579
 11
197.518
 21
-189.025
  0
LINE
  8
0
 10
197.518
 20
-189.025
 11
197.654
 21
-189.504
  0
LINE
  8
0
 10
197.654
 20
-189.504
 11
197.7
 21
-190
  0
LINE
  8
0
 10
197.7
 20
-190
 11
197.654
 21
-190.496
  0
LINE
  8
0
 10
197.654
 20
-190.496
 11
197.518
 21
-190.975
  0
LINE
  8
0
 10
197.518
 20
-190.975
 11
197.296
 21
-191.421
  0
LINE
  8
0
 10
197.296
 20
-191.421
 11
196.995
 21
-191.819
  0
LINE
  8
0
 10
196.995
 20
-191.819
 11
196.627
 21
-192.155
  0
LINE
  8
0
 10
196.627
 20
-192.155
 11
196.203
 21
-192.417
  0
LINE
  8
0
 10
196.203
 20
-192.417
 11
195.739
 21
-192.597
  0
LINE
  8
0
 10
195.739
 20
-192.597
 11
195.249
 21
-192.688
  0
LINE
  8
0
 10
195.249
 20
-192.688
 11
194.751
 21
-192.688
  0
LINE
  8
0
 10
214.751
 20
-192.688
 11
214.261
 21
-192.597
  0
LINE
  8
0
 10
214.261
 20
-192.597
 11
213.797
 21
-192.417
  0
LINE
  8
0
 10
213.797
 20
-192.417
 11
213.373
 21
-192.155
  0
LINE
  8
0
 10
213.373
 20
-192.155
 11
213.005
 21
-191.819
  0
LINE
  8
0
 10
213.005
 20
-191.819
 11
212.704
 21
-191.421
  0
LINE
  8
0
 10
212.704
 20
-191.421
 11
212.482
 21
-190.975
  0
LINE
  8
0
 10
212.482
 20
-190.975
 11
212.346
 21
-190.496
  0
LINE
  8
0
 10
212.346
 20
-190.496
 11
212.3
 21
-190
  0
LINE
  8
0
 10
212.3
 20
-190
 11
212.346
 21
-189.504
  0
LINE
  8
0
 10
212.346
 20
-189.504
 11
212.482
 21
-189.025
  0
LINE
  8
0
 10
212.482
 20
-189.025
 11
212.704
 21
-188.579
  0
LINE
  8
0
 10
212.704
 20
-188.579
 11
213.005
 21
-188.181
  0
LINE
  8
0
 10
213.005
 20
-188.181
 11
213.373
 21
-187.845
  0
LINE
  8
0
 10
213.373
 20
-187.845
 11
213.797
 21
-187.583
  0
LINE
  8
0
 10
213.797
 20
-187.583
 11
214.261
 21
-187.403
  0
LINE
  8
0
 10
214.261
 20
-187.403
 11
214.751
 21
-187.312
  0
LINE
  8
0
 10
214.751
 20
-187.312
 11
215.249
 21
-187.312
  0
LINE
  8
0
 10
215.249
 20
-187.312
 11
215.739
 21
-187.403
  0
LINE
  8
0
 10
215.739
 20
-187.403
 11
216.203
 21
-187.583
  0
LINE
  8
0
 10
216.203
 20
-187.583
 11
216.627
 21
-187.845
  0
LINE
  8
0
 10
216.627
 20
-187.845
 11
216.995
 21
-188.181
  0
LINE
  8
0
 10
216.995
 20
-188.181
 11
217.296
 21
-188.579
  0
LINE
  8
0
 10
217.296
 20
-188.579
 11
217.518
 21
-189.025
  0
LINE
  8
0
 10
217.518
 20
-189.025
 11
217.654
 21
-189.504
  0
LINE
  8
0
 10
217.654
 20
-189.504
 11
217.7
 21
-190
  0
LINE
  8
0
 10
217.7
 20
-190
 11
217.654
 21
-190.496
  0
LINE
  8
0
 10
217.654
 20
-190.496
 11
217.518
 21
-190.975
  0
LINE
  8
0
 10
217.518
 20
-190.975
 11
217.296
 21
-191.421
  0
LINE
  8
0
 10
217.296
 20
-191.421
 11
216.995
 21
-191.819
  0
LINE
  8
0
 10
216.995
 20
-191.819
 11
216.627
 21
-192.155
  0
LINE
  8
0
 10
216.627
 20
-192.155
 11
216.203
 21
-192.417
  0
LINE
  8
0
 10
216.203
 20
-192.417
 11
215.739
 21
-192.597
  0
LINE
  8
0
 10
215.739
 20
-192.597
 11
215.249
 21
-192.688
  0
LINE
  8
0
 10
215.249
 20
-192.688
 11
214.751
 21
-192.688
  0
LINE
  8
0
 10
-215.249
 20
-192.688
 11
-215.739
 21
-192.597
  0
LINE
  8
0
 10
-215.739
 20
-192.597
 11
-216.203
 21
-192.417
  0
LINE
  8
0
 10
-216.203
 20
-192.417
 11
-216.627
 21
-192.155
  0
LINE
  8
0
 10
-216.627
 20
-192.155
 11
-216.995
 21
-191.819
  0
LINE
  8
0
 10
-216.995
 20
-191.819
 11
-217.296
 21
-191.421
  0
LINE
  8
0
 10
-217.296
 20
-191.421
 11
-217.518
 21
-190.975
  0
LINE
  8
0
 10
-217.518
 20
-190.975
 11
-217.654
 21
-190.496
  0
LINE
  8
0
 10
-217.654
 20
-190.496
 11
-217.7
 21
-190
  0
LINE
  8
0
 10
-217.7
 20
-190
 11
-217.654
 21
-189.504
  0
LINE
  8
0
 10
-217.654
 20
-189.504
 11
-217.518
 21
-189.025
  0
LINE
  8
0
 10
-217.518
 20
-189.025
 11
-217.296
 21
-188.579
  0
LINE
  8
0
 10
-217.296
 20
-188.579
 11
-216.995
 21
-188.181
  0
LINE
  8
0
 10
-216.995
 20
-188.181
 11
-216.627
 21
-187.845
  0
LINE
  8
0
 10
-216.627
 20
-187.845
 11
-216.203
 21
-187.583
  0
LINE
  8
0
 10
-216.203
 20
-187.583
 11
-215.739
 21
-187.403
  0
LINE
  8
0
 10
-215.739
 20
-187.403
 11
-215.249
 21
-187.312
  0
LINE
  8
0
 10
-215.249
 20
-187.312
 11
-214.751
 21
-187.312
  0
LINE
  8
0
 10
-214.751
 20
-187.312
 11
-214.261
 21
-187.403
  0
LINE
  8
0
 10
-214.261
 20
-187.403
 11
-213.797
 21
-187.583
  0
LINE
  8
0
 10
-213.797
 20
-187.583
 11
-213.373
 21
-187.845
  0
LINE
  8
0
 10
-213.373
 20
-187.845
 11
-213.005
 21
-188.181
  0
LINE
  8
0
 10
-213.005
 20
-188.181
 11
-212.704
 21
-188.579
  0
LINE
  8
0
 10
-212.704
 20
-188.579
 11
-212.482
 21
-189.025
  0
LINE
  8
0
 10
-212.482
 20
-189.025
 11
-212.346
 21
-189.504
  0
LINE
  8
0
 10
-212.346
 20
-189.504
 11
-212.3
 21
-190
  0
LINE
  8
0
 10
-212.3
 20
-190
 11
-212.346
 21
-190.496
  0
LINE
  8
0
 10
-212.346
 20
-190.496
 11
-212.482
 21
-190.975
  0
LINE
  8
0
 10
-212.482
 20
-190.975
 11
-212.704
 21
-191.421
  0
LINE
  8
0
 10
-212.704
 20
-191.421
 11
-213.005
 21
-191.819
  0
LINE
  8
0
 10
-213.005
 20
-191.819
 11
-213.373
 21
-192.155
  0
LINE
  8
0
 10
-213.373
 20
-192.155
 11
-213.797
 21
-192.417
  0
LINE
  8
0
 10
-213.797
 20
-192.417
 11
-214.261
 21
-192.597
  0
LINE
  8
0
 10
-214.261
 20
-192.597
 11
-214.751
 21
-192.688
  0
LINE
  8
0
 10
-214.751
 20
-192.688
 11
-215.249
 21
-192.688
  0
ENDSEC
  0
SECTION
  2
OBJECTS
  0
DICTIONARY
  0
ENDSEC
  0
EOF
