  0
SECTION
  2
BLOCKS
  0
ENDSEC
  0
SECTION
  2
ENTITIES
  0
LINE
  8
0
 10
-225
 20
205.75
 11
-225
 21
180
  0
LINE
  8
0
 10
-225
 20
180
 11
-245
 21
180
  0
LINE
  8
0
 10
-245
 20
180
 11
-245
 21
142.5
  0
LINE
  8
0
 10
-245
 20
142.5
 11
-249.875
 21
142.5
  0
LINE
  8
0
 10
-249.875
 20
142.5
 11
-251.5
 21
140.875
  0
LINE
  8
0
 10
-251.5
 20
140.875
 11
-251.5
 21
129.125
  0
LINE
  8
0
 10
-251.5
 20
129.125
 11
-249.875
 21
127.5
  0
LINE
  8
0
 10
-249.875
 20
127.5
 11
-245
 21
127.5
  0
LINE
  8
0
 10
-245
 20
127.5
 11
-245
 21
122.563
  0
LINE
  8
0
 10
-245
 20
122.563
 11
-237.938
 21
122.563
  0
LINE
  8
0
 10
-237.938
 20
122.563
 11
-237.938
 21
126.785
  0
LINE
  8
0
 10
-237.938
 20
126.785
 11
-232.562
 21
126.785
  0
LINE
  8
0
 10
-232.562
 20
126.785
 11
-232.562
 21
122.563
  0
LINE
  8
0
 10
-232.562
 20
122.563
 11
-231.188
 21
122.563
  0
LINE
  8
0
 10
-231.188
 20
122.563
 11
-231.188
 21
117.437
  0
LINE
  8
0
 10
-231.188
 20
117.437
 11
-232.562
 21
117.437
  0
LINE
  8
0
 10
-232.562
 20
117.437
 11
-232.562
 21
113.215
  0
LINE
  8
0
 10
-232.562
 20
113.215
 11
-237.938
 21
113.215
  0
LINE
  8
0
 10
-237.938
 20
113.215
 11
-237.938
 21
117.437
  0
LINE
  8
0
 10
-237.938
 20
117.437
 11
-245
 21
117.437
  0
LINE
  8
0
 10
-245
 20
117.437
 11
-245
 21
112.5
  0
LINE
  8
0
 10
-245
 20
112.5
 11
-249.875
 21
112.5
  0
LINE
  8
0
 10
-249.875
 20
112.5
 11
-251.5
 21
110.875
  0
LINE
  8
0
 10
-251.5
 20
110.875
 11
-251.5
 21
99.125
  0
LINE
  8
0
 10
-251.5
 20
99.125
 11
-249.875
 21
97.5
  0
LINE
  8
0
 10
-249.875
 20
97.5
 11
-245
 21
97.5
  0
LINE
  8
0
 10
-245
 20
97.5
 11
-245
 21
-97.5
  0
LINE
  8
0
 10
-245
 20
-97.5
 11
-249.875
 21
-97.5
  0
LINE
  8
0
 10
-249.875
 20
-97.5
 11
-251.5
 21
-99.125
  0
LINE
  8
0
 10
-251.5
 20
-99.125
 11
-251.5
 21
-110.875
  0
LINE
  8
0
 10
-251.5
 20
-110.875
 11
-249.875
 21
-112.5
  0
LINE
  8
0
 10
-249.875
 20
-112.5
 11
-245
 21
-112.5
  0
LINE
  8
0
 10
-245
 20
-112.5
 11
-245
 21
-117.437
  0
LINE
  8
0
 10
-245
 20
-117.437
 11
-237.938
 21
-117.437
  0
LINE
  8
0
 10
-237.938
 20
-117.437
 11
-237.938
 21
-113.215
  0
LINE
  8
0
 10
-237.938
 20
-113.215
 11
-232.562
 21
-113.215
  0
LINE
  8
0
 10
-232.562
 20
-113.215
 11
-232.562
 21
-117.437
  0
LINE
  8
0
 10
-232.562
 20
-117.437
 11
-231.188
 21
-117.437
  0
LINE
  8
0
 10
-231.188
 20
-117.437
 11
-231.188
 21
-122.563
  0
LINE
  8
0
 10
-231.188
 20
-122.563
 11
-232.562
 21
-122.563
  0
LINE
  8
0
 10
-232.562
 20
-122.563
 11
-232.562
 21
-126.785
  0
LINE
  8
0
 10
-232.562
 20
-126.785
 11
-237.938
 21
-126.785
  0
LINE
  8
0
 10
-237.938
 20
-126.785
 11
-237.938
 21
-122.563
  0
LINE
  8
0
 10
-237.938
 20
-122.563
 11
-245
 21
-122.563
  0
LINE
  8
0
 10
-245
 20
-122.563
 11
-245
 21
-127.5
  0
LINE
  8
0
 10
-245
 20
-127.5
 11
-249.875
 21
-127.5
  0
LINE
  8
0
 10
-249.875
 20
-127.5
 11
-251.5
 21
-129.125
  0
LINE
  8
0
 10
-251.5
 20
-129.125
 11
-251.5
 21
-140.875
  0
LINE
  8
0
 10
-251.5
 20
-140.875
 11
-249.875
 21
-142.5
  0
LINE
  8
0
 10
-249.875
 20
-142.5
 11
-245
 21
-142.5
  0
LINE
  8
0
 10
-245
 20
-142.5
 11
-245
 21
-180
  0
LINE
  8
0
 10
-245
 20
-180
 11
-225
 21
-180
  0
LINE
  8
0
 10
-225
 20
-180
 11
-225
 21
-220
  0
LINE
  8
0
 10
-225
 20
-220
 11
-167.5
 21
-220
  0
LINE
  8
0
 10
-167.5
 20
-220
 11
-167.5
 21
-224.875
  0
LINE
  8
0
 10
-167.5
 20
-224.875
 11
-165.875
 21
-226.5
  0
LINE
  8
0
 10
-165.875
 20
-226.5
 11
-154.125
 21
-226.5
  0
LINE
  8
0
 10
-154.125
 20
-226.5
 11
-152.5
 21
-224.875
  0
LINE
  8
0
 10
-152.5
 20
-224.875
 11
-152.5
 21
-220
  0
LINE
  8
0
 10
-152.5
 20
-220
 11
-147.563
 21
-220
  0
LINE
  8
0
 10
-147.563
 20
-220
 11
-147.563
 21
-212.938
  0
LINE
  8
0
 10
-147.563
 20
-212.938
 11
-151.785
 21
-212.938
  0
LINE
  8
0
 10
-151.785
 20
-212.938
 11
-151.785
 21
-207.562
  0
LINE
  8
0
 10
-151.785
 20
-207.562
 11
-147.563
 21
-207.562
  0
LINE
  8
0
 10
-147.563
 20
-207.562
 11
-147.563
 21
-206.188
  0
LINE
  8
0
 10
-147.563
 20
-206.188
 11
-142.437
 21
-206.188
  0
LINE
  8
0
 10
-142.437
 20
-206.188
 11
-142.437
 21
-207.562
  0
LINE
  8
0
 10
-142.437
 20
-207.562
 11
-138.215
 21
-207.562
  0
LINE
  8
0
 10
-138.215
 20
-207.562
 11
-138.215
 21
-212.938
  0
LINE
  8
0
 10
-138.215
 20
-212.938
 11
-142.437
 21
-212.938
  0
LINE
  8
0
 10
-142.437
 20
-212.938
 11
-142.437
 21
-220
  0
LINE
  8
0
 10
-142.437
 20
-220
 11
-137.5
 21
-220
  0
LINE
  8
0
 10
-137.5
 20
-220
 11
-137.5
 21
-224.875
  0
LINE
  8
0
 10
-137.5
 20
-224.875
 11
-135.875
 21
-226.5
  0
LINE
  8
0
 10
-135.875
 20
-226.5
 11
-124.125
 21
-226.5
  0
LINE
  8
0
 10
-124.125
 20
-226.5
 11
-122.5
 21
-224.875
  0
LINE
  8
0
 10
-122.5
 20
-224.875
 11
-122.5
 21
-220
  0
LINE
  8
0
 10
-122.5
 20
-220
 11
-22.5
 21
-220
  0
LINE
  8
0
 10
-22.5
 20
-220
 11
-22.5
 21
-224.875
  0
LINE
  8
0
 10
-22.5
 20
-224.875
 11
-20.875
 21
-226.5
  0
LINE
  8
0
 10
-20.875
 20
-226.5
 11
-9.125
 21
-226.5
  0
LINE
  8
0
 10
-9.125
 20
-226.5
 11
-7.5
 21
-224.875
  0
LINE
  8
0
 10
-7.5
 20
-224.875
 11
-7.5
 21
-220
  0
LINE
  8
0
 10
-7.5
 20
-220
 11
-2.56299
 21
-220
  0
LINE
  8
0
 10
-2.56299
 20
-220
 11
-2.56299
 21
-212.938
  0
LINE
  8
0
 10
-2.56299
 20
-212.938
 11
-6.78519
 21
-212.938
  0
LINE
  8
0
 10
-6.78519
 20
-212.938
 11
-6.78519
 21
-207.562
  0
LINE
  8
0
 10
-6.78519
 20
-207.562
 11
-2.56299
 21
-207.562
  0
LINE
  8
0
 10
-2.56299
 20
-207.562
 11
-2.56299
 21
-206.188
  0
LINE
  8
0
 10
-2.56299
 20
-206.188
 11
2.56299
 21
-206.188
  0
LINE
  8
0
 10
2.56299
 20
-206.188
 11
2.56299
 21
-207.562
  0
LINE
  8
0
 10
2.56299
 20
-207.562
 11
6.78519
 21
-207.562
  0
LINE
  8
0
 10
6.78519
 20
-207.562
 11
6.78519
 21
-212.938
  0
LINE
  8
0
 10
6.78519
 20
-212.938
 11
2.56299
 21
-212.938
  0
LINE
  8
0
 10
2.56299
 20
-212.938
 11
2.56299
 21
-220
  0
LINE
  8
0
 10
2.56299
 20
-220
 11
7.5
 21
-220
  0
LINE
  8
0
 10
7.5
 20
-220
 11
7.5
 21
-224.875
  0
LINE
  8
0
 10
7.5
 20
-224.875
 11
9.125
 21
-226.5
  0
LINE
  8
0
 10
9.125
 20
-226.5
 11
20.875
 21
-226.5
  0
LINE
  8
0
 10
20.875
 20
-226.5
 11
22.5
 21
-224.875
  0
LINE
  8
0
 10
22.5
 20
-224.875
 11
22.5
 21
-220
  0
LINE
  8
0
 10
22.5
 20
-220
 11
122.5
 21
-220
  0
LINE
  8
0
 10
122.5
 20
-220
 11
122.5
 21
-224.875
  0
LINE
  8
0
 10
122.5
 20
-224.875
 11
124.125
 21
-226.5
  0
LINE
  8
0
 10
124.125
 20
-226.5
 11
135.875
 21
-226.5
  0
LINE
  8
0
 10
135.875
 20
-226.5
 11
137.5
 21
-224.875
  0
LINE
  8
0
 10
137.5
 20
-224.875
 11
137.5
 21
-220
  0
LINE
  8
0
 10
137.5
 20
-220
 11
142.437
 21
-220
  0
LINE
  8
0
 10
142.437
 20
-220
 11
142.437
 21
-212.938
  0
LINE
  8
0
 10
142.437
 20
-212.938
 11
138.215
 21
-212.938
  0
LINE
  8
0
 10
138.215
 20
-212.938
 11
138.215
 21
-207.562
  0
LINE
  8
0
 10
138.215
 20
-207.562
 11
142.437
 21
-207.562
  0
LINE
  8
0
 10
142.437
 20
-207.562
 11
142.437
 21
-206.188
  0
LINE
  8
0
 10
142.437
 20
-206.188
 11
147.563
 21
-206.188
  0
LINE
  8
0
 10
147.563
 20
-206.188
 11
147.563
 21
-207.562
  0
LINE
  8
0
 10
147.563
 20
-207.562
 11
151.785
 21
-207.562
  0
LINE
  8
0
 10
151.785
 20
-207.562
 11
151.785
 21
-212.938
  0
LINE
  8
0
 10
151.785
 20
-212.938
 11
147.563
 21
-212.938
  0
LINE
  8
0
 10
147.563
 20
-212.938
 11
147.563
 21
-220
  0
LINE
  8
0
 10
147.563
 20
-220
 11
152.5
 21
-220
  0
LINE
  8
0
 10
152.5
 20
-220
 11
152.5
 21
-224.875
  0
LINE
  8
0
 10
152.5
 20
-224.875
 11
154.125
 21
-226.5
  0
LINE
  8
0
 10
154.125
 20
-226.5
 11
165.875
 21
-226.5
  0
LINE
  8
0
 10
165.875
 20
-226.5
 11
167.5
 21
-224.875
  0
LINE
  8
0
 10
167.5
 20
-224.875
 11
167.5
 21
-220
  0
LINE
  8
0
 10
167.5
 20
-220
 11
225
 21
-220
  0
LINE
  8
0
 10
225
 20
-220
 11
225
 21
-180
  0
LINE
  8
0
 10
225
 20
-180
 11
245
 21
-180
  0
LINE
  8
0
 10
245
 20
-180
 11
245
 21
-142.5
  0
LINE
  8
0
 10
245
 20
-142.5
 11
249.875
 21
-142.5
  0
LINE
  8
0
 10
249.875
 20
-142.5
 11
251.5
 21
-140.875
  0
LINE
  8
0
 10
251.5
 20
-140.875
 11
251.5
 21
-129.125
  0
LINE
  8
0
 10
251.5
 20
-129.125
 11
249.875
 21
-127.5
  0
LINE
  8
0
 10
249.875
 20
-127.5
 11
245
 21
-127.5
  0
LINE
  8
0
 10
245
 20
-127.5
 11
245
 21
-122.563
  0
LINE
  8
0
 10
245
 20
-122.563
 11
237.938
 21
-122.563
  0
LINE
  8
0
 10
237.938
 20
-122.563
 11
237.938
 21
-126.785
  0
LINE
  8
0
 10
237.938
 20
-126.785
 11
232.562
 21
-126.785
  0
LINE
  8
0
 10
232.562
 20
-126.785
 11
232.562
 21
-122.563
  0
LINE
  8
0
 10
232.562
 20
-122.563
 11
231.188
 21
-122.563
  0
LINE
  8
0
 10
231.188
 20
-122.563
 11
231.188
 21
-117.437
  0
LINE
  8
0
 10
231.188
 20
-117.437
 11
232.562
 21
-117.437
  0
LINE
  8
0
 10
232.562
 20
-117.437
 11
232.562
 21
-113.215
  0
LINE
  8
0
 10
232.562
 20
-113.215
 11
237.938
 21
-113.215
  0
LINE
  8
0
 10
237.938
 20
-113.215
 11
237.938
 21
-117.437
  0
LINE
  8
0
 10
237.938
 20
-117.437
 11
245
 21
-117.437
  0
LINE
  8
0
 10
245
 20
-117.437
 11
245
 21
-112.5
  0
LINE
  8
0
 10
245
 20
-112.5
 11
249.875
 21
-112.5
  0
LINE
  8
0
 10
249.875
 20
-112.5
 11
251.5
 21
-110.875
  0
LINE
  8
0
 10
251.5
 20
-110.875
 11
251.5
 21
-99.125
  0
LINE
  8
0
 10
251.5
 20
-99.125
 11
249.875
 21
-97.5
  0
LINE
  8
0
 10
249.875
 20
-97.5
 11
245
 21
-97.5
  0
LINE
  8
0
 10
245
 20
-97.5
 11
245
 21
97.5
  0
LINE
  8
0
 10
245
 20
97.5
 11
249.875
 21
97.5
  0
LINE
  8
0
 10
249.875
 20
97.5
 11
251.5
 21
99.125
  0
LINE
  8
0
 10
251.5
 20
99.125
 11
251.5
 21
110.875
  0
LINE
  8
0
 10
251.5
 20
110.875
 11
249.875
 21
112.5
  0
LINE
  8
0
 10
249.875
 20
112.5
 11
245
 21
112.5
  0
LINE
  8
0
 10
245
 20
112.5
 11
245
 21
117.437
  0
LINE
  8
0
 10
245
 20
117.437
 11
237.938
 21
117.437
  0
LINE
  8
0
 10
237.938
 20
117.437
 11
237.938
 21
113.215
  0
LINE
  8
0
 10
237.938
 20
113.215
 11
232.562
 21
113.215
  0
LINE
  8
0
 10
232.562
 20
113.215
 11
232.562
 21
117.437
  0
LINE
  8
0
 10
232.562
 20
117.437
 11
231.188
 21
117.437
  0
LINE
  8
0
 10
231.188
 20
117.437
 11
231.188
 21
122.563
  0
LINE
  8
0
 10
231.188
 20
122.563
 11
232.562
 21
122.563
  0
LINE
  8
0
 10
232.562
 20
122.563
 11
232.562
 21
126.785
  0
LINE
  8
0
 10
232.562
 20
126.785
 11
237.938
 21
126.785
  0
LINE
  8
0
 10
237.938
 20
126.785
 11
237.938
 21
122.563
  0
LINE
  8
0
 10
237.938
 20
122.563
 11
245
 21
122.563
  0
LINE
  8
0
 10
245
 20
122.563
 11
245
 21
127.5
  0
LINE
  8
0
 10
245
 20
127.5
 11
249.875
 21
127.5
  0
LINE
  8
0
 10
249.875
 20
127.5
 11
251.5
 21
129.125
  0
LINE
  8
0
 10
251.5
 20
129.125
 11
251.5
 21
140.875
  0
LINE
  8
0
 10
251.5
 20
140.875
 11
249.875
 21
142.5
  0
LINE
  8
0
 10
249.875
 20
142.5
 11
245
 21
142.5
  0
LINE
  8
0
 10
245
 20
142.5
 11
245
 21
180
  0
LINE
  8
0
 10
245
 20
180
 11
225
 21
180
  0
LINE
  8
0
 10
225
 20
180
 11
225
 21
205.75
  0
LINE
  8
0
 10
225
 20
205.75
 11
223
 21
205.75
  0
LINE
  8
0
 10
223
 20
205.75
 11
223
 21
214.25
  0
LINE
  8
0
 10
223
 20
214.25
 11
225
 21
214.25
  0
LINE
  8
0
 10
225
 20
214.25
 11
225
 21
220
  0
LINE
  8
0
 10
225
 20
220
 11
167.5
 21
220
  0
LINE
  8
0
 10
167.5
 20
220
 11
167.5
 21
224.875
  0
LINE
  8
0
 10
167.5
 20
224.875
 11
165.875
 21
226.5
  0
LINE
  8
0
 10
165.875
 20
226.5
 11
154.125
 21
226.5
  0
LINE
  8
0
 10
154.125
 20
226.5
 11
152.5
 21
224.875
  0
LINE
  8
0
 10
152.5
 20
224.875
 11
152.5
 21
220
  0
LINE
  8
0
 10
152.5
 20
220
 11
147.563
 21
220
  0
LINE
  8
0
 10
147.563
 20
220
 11
147.563
 21
212.938
  0
LINE
  8
0
 10
147.563
 20
212.938
 11
151.785
 21
212.938
  0
LINE
  8
0
 10
151.785
 20
212.938
 11
151.785
 21
207.562
  0
LINE
  8
0
 10
151.785
 20
207.562
 11
147.563
 21
207.562
  0
LINE
  8
0
 10
147.563
 20
207.562
 11
147.563
 21
206.188
  0
LINE
  8
0
 10
147.563
 20
206.188
 11
142.437
 21
206.188
  0
LINE
  8
0
 10
142.437
 20
206.188
 11
142.437
 21
207.562
  0
LINE
  8
0
 10
142.437
 20
207.562
 11
138.215
 21
207.562
  0
LINE
  8
0
 10
138.215
 20
207.562
 11
138.215
 21
212.938
  0
LINE
  8
0
 10
138.215
 20
212.938
 11
142.437
 21
212.938
  0
LINE
  8
0
 10
142.437
 20
212.938
 11
142.437
 21
220
  0
LINE
  8
0
 10
142.437
 20
220
 11
137.5
 21
220
  0
LINE
  8
0
 10
137.5
 20
220
 11
137.5
 21
224.875
  0
LINE
  8
0
 10
137.5
 20
224.875
 11
135.875
 21
226.5
  0
LINE
  8
0
 10
135.875
 20
226.5
 11
124.125
 21
226.5
  0
LINE
  8
0
 10
124.125
 20
226.5
 11
122.5
 21
224.875
  0
LINE
  8
0
 10
122.5
 20
224.875
 11
122.5
 21
220
  0
LINE
  8
0
 10
122.5
 20
220
 11
22.5
 21
220
  0
LINE
  8
0
 10
22.5
 20
220
 11
22.5
 21
224.875
  0
LINE
  8
0
 10
22.5
 20
224.875
 11
20.875
 21
226.5
  0
LINE
  8
0
 10
20.875
 20
226.5
 11
9.125
 21
226.5
  0
LINE
  8
0
 10
9.125
 20
226.5
 11
7.5
 21
224.875
  0
LINE
  8
0
 10
7.5
 20
224.875
 11
7.5
 21
220
  0
LINE
  8
0
 10
7.5
 20
220
 11
2.56299
 21
220
  0
LINE
  8
0
 10
2.56299
 20
220
 11
2.56299
 21
212.938
  0
LINE
  8
0
 10
2.56299
 20
212.938
 11
6.78519
 21
212.938
  0
LINE
  8
0
 10
6.78519
 20
212.938
 11
6.78519
 21
207.562
  0
LINE
  8
0
 10
6.78519
 20
207.562
 11
2.56299
 21
207.562
  0
LINE
  8
0
 10
2.56299
 20
207.562
 11
2.56299
 21
206.188
  0
LINE
  8
0
 10
2.56299
 20
206.188
 11
-2.56299
 21
206.188
  0
LINE
  8
0
 10
-2.56299
 20
206.188
 11
-2.56299
 21
207.562
  0
LINE
  8
0
 10
-2.56299
 20
207.562
 11
-6.78519
 21
207.562
  0
LINE
  8
0
 10
-6.78519
 20
207.562
 11
-6.78519
 21
212.938
  0
LINE
  8
0
 10
-6.78519
 20
212.938
 11
-2.56299
 21
212.938
  0
LINE
  8
0
 10
-2.56299
 20
212.938
 11
-2.56299
 21
220
  0
LINE
  8
0
 10
-2.56299
 20
220
 11
-7.5
 21
220
  0
LINE
  8
0
 10
-7.5
 20
220
 11
-7.5
 21
224.875
  0
LINE
  8
0
 10
-7.5
 20
224.875
 11
-9.125
 21
226.5
  0
LINE
  8
0
 10
-9.125
 20
226.5
 11
-20.875
 21
226.5
  0
LINE
  8
0
 10
-20.875
 20
226.5
 11
-22.5
 21
224.875
  0
LINE
  8
0
 10
-22.5
 20
224.875
 11
-22.5
 21
220
  0
LINE
  8
0
 10
-22.5
 20
220
 11
-122.5
 21
220
  0
LINE
  8
0
 10
-122.5
 20
220
 11
-122.5
 21
224.875
  0
LINE
  8
0
 10
-122.5
 20
224.875
 11
-124.125
 21
226.5
  0
LINE
  8
0
 10
-124.125
 20
226.5
 11
-135.875
 21
226.5
  0
LINE
  8
0
 10
-135.875
 20
226.5
 11
-137.5
 21
224.875
  0
LINE
  8
0
 10
-137.5
 20
224.875
 11
-137.5
 21
220
  0
LINE
  8
0
 10
-137.5
 20
220
 11
-142.437
 21
220
  0
LINE
  8
0
 10
-142.437
 20
220
 11
-142.437
 21
212.938
  0
LINE
  8
0
 10
-142.437
 20
212.938
 11
-138.215
 21
212.938
  0
LINE
  8
0
 10
-138.215
 20
212.938
 11
-138.215
 21
207.562
  0
LINE
  8
0
 10
-138.215
 20
207.562
 11
-142.437
 21
207.562
  0
LINE
  8
0
 10
-142.437
 20
207.562
 11
-142.437
 21
206.188
  0
LINE
  8
0
 10
-142.437
 20
206.188
 11
-147.563
 21
206.188
  0
LINE
  8
0
 10
-147.563
 20
206.188
 11
-147.563
 21
207.562
  0
LINE
  8
0
 10
-147.563
 20
207.562
 11
-151.785
 21
207.562
  0
LINE
  8
0
 10
-151.785
 20
207.562
 11
-151.785
 21
212.938
  0
LINE
  8
0
 10
-151.785
 20
212.938
 11
-147.563
 21
212.938
  0
LINE
  8
0
 10
-147.563
 20
212.938
 11
-147.563
 21
220
  0
LINE
  8
0
 10
-147.563
 20
220
 11
-152.5
 21
220
  0
LINE
  8
0
 10
-152.5
 20
220
 11
-152.5
 21
224.875
  0
LINE
  8
0
 10
-152.5
 20
224.875
 11
-154.125
 21
226.5
  0
LINE
  8
0
 10
-154.125
 20
226.5
 11
-165.875
 21
226.5
  0
LINE
  8
0
 10
-165.875
 20
226.5
 11
-167.5
 21
224.875
  0
LINE
  8
0
 10
-167.5
 20
224.875
 11
-167.5
 21
220
  0
LINE
  8
0
 10
-167.5
 20
220
 11
-225
 21
220
  0
LINE
  8
0
 10
-225
 20
220
 11
-225
 21
214.25
  0
LINE
  8
0
 10
-225
 20
214.25
 11
-223
 21
214.25
  0
LINE
  8
0
 10
-223
 20
214.25
 11
-223
 21
205.75
  0
LINE
  8
0
 10
-223
 20
205.75
 11
-225
 21
205.75
  0
LINE
  8
0
 10
-210
 20
205.75
 11
-214
 21
205.75
  0
LINE
  8
0
 10
-214
 20
205.75
 11
-214
 21
214.25
  0
LINE
  8
0
 10
-214
 20
214.25
 11
-210
 21
214.25
  0
LINE
  8
0
 10
-210
 20
214.25
 11
-210
 21
205.75
  0
LINE
  8
0
 10
113.385
 20
193.924
 11
117.91
 21
198.45
  0
LINE
  8
0
 10
117.91
 20
198.45
 11
144.709
 21
171.65
  0
LINE
  8
0
 10
144.709
 20
171.65
 11
140.184
 21
167.125
  0
LINE
  8
0
 10
140.184
 20
167.125
 11
113.385
 21
193.924
  0
LINE
  8
0
 10
-144.709
 20
171.65
 11
-117.91
 21
198.45
  0
LINE
  8
0
 10
-117.91
 20
198.45
 11
-113.385
 21
193.924
  0
LINE
  8
0
 10
-113.385
 20
193.924
 11
-140.184
 21
167.125
  0
LINE
  8
0
 10
-140.184
 20
167.125
 11
-144.709
 21
171.65
  0
LINE
  8
0
 10
-198.45
 20
117.91
 11
-171.65
 21
144.709
  0
LINE
  8
0
 10
-171.65
 20
144.709
 11
-167.125
 21
140.184
  0
LINE
  8
0
 10
-167.125
 20
140.184
 11
-193.924
 21
113.385
  0
LINE
  8
0
 10
-193.924
 20
113.385
 11
-198.45
 21
117.91
  0
LINE
  8
0
 10
167.125
 20
140.184
 11
171.65
 21
144.709
  0
LINE
  8
0
 10
171.65
 20
144.709
 11
198.45
 21
117.91
  0
LINE
  8
0
 10
198.45
 20
117.91
 11
193.924
 21
113.385
  0
LINE
  8
0
 10
193.924
 20
113.385
 11
167.125
 21
140.184
  0
LINE
  8
0
 10
-4.50484
 20
-2.16942
 11
-4.50484
 21
2.16942
  0
LINE
  8
0
 10
-4.50484
 20
2.16942
 11
-1.11259
 21
4.87463
  0
LINE
  8
0
 10
-1.11259
 20
4.87463
 11
3.11745
 21
3.90915
  0
LINE
  8
0
 10
3.11745
 20
3.90915
 11
5
 21
0
  0
LINE
  8
0
 10
5
 20
0
 11
3.11745
 21
-3.90915
  0
LINE
  8
0
 10
3.11745
 20
-3.90915
 11
-1.11259
 21
-4.87463
  0
LINE
  8
0
 10
-1.11259
 20
-4.87463
 11
-4.50484
 21
-2.16942
  0
LINE
  8
0
 10
167.125
 20
-140.184
 11
193.924
 21
-113.385
  0
LINE
  8
0
 10
193.924
 20
-113.385
 11
198.45
 21
-117.91
  0
LINE
  8
0
 10
198.45
 20
-117.91
 11
171.65
 21
-144.709
  0
LINE
  8
0
 10
171.65
 20
-144.709
 11
167.125
 21
-140.184
  0
LINE
  8
0
 10
-198.45
 20
-117.91
 11
-193.924
 21
-113.385
  0
LINE
  8
0
 10
-193.924
 20
-113.385
 11
-167.125
 21
-140.184
  0
LINE
  8
0
 10
-167.125
 20
-140.184
 11
-171.65
 21
-144.709
  0
LINE
  8
0
 10
-171.65
 20
-144.709
 11
-198.45
 21
-117.91
  0
LINE
  8
0
 10
-144.709
 20
-171.65
 11
-140.184
 21
-167.125
  0
LINE
  8
0
 10
-140.184
 20
-167.125
 11
-113.385
 21
-193.924
  0
LINE
  8
0
 10
-113.385
 20
-193.924
 11
-117.91
 21
-198.45
  0
LINE
  8
0
 10
-117.91
 20
-198.45
 11
-144.709
 21
-171.65
  0
LINE
  8
0
 10
113.385
 20
-193.924
 11
140.184
 21
-167.125
  0
LINE
  8
0
 10
140.184
 20
-167.125
 11
144.709
 21
-171.65
  0
LINE
  8
0
 10
144.709
 20
-171.65
 11
117.91
 21
-198.45
  0
LINE
  8
0
 10
117.91
 20
-198.45
 11
113.385
 21
-193.924
  0
LINE
  8
0
 10
210
 20
205.75
 11
210
 21
214.25
  0
LINE
  8
0
 10
210
 20
214.25
 11
214
 21
214.25
  0
LINE
  8
0
 10
214
 20
214.25
 11
214
 21
205.75
  0
LINE
  8
0
 10
214
 20
205.75
 11
210
 21
205.75
  0
ENDSEC
  0
SECTION
  2
OBJECTS
  0
DICTIONARY
  0
ENDSEC
  0
EOF
