  0
SECTION
  2
BLOCKS
  0
ENDSEC
  0
SECTION
  2
ENTITIES
  0
LINE
  8
0
 10
-159.453
 20
-67.3751
 11
-159.697
 21
-66.9422
  0
LINE
  8
0
 10
-159.697
 20
-66.9422
 11
-159.922
 21
-66.4987
  0
LINE
  8
0
 10
-159.922
 20
-66.4987
 11
-160.127
 21
-66.0455
  0
LINE
  8
0
 10
-160.127
 20
-66.0455
 11
-160.31
 21
-65.5835
  0
LINE
  8
0
 10
-160.31
 20
-65.5835
 11
-160.473
 21
-65.1137
  0
LINE
  8
0
 10
-160.473
 20
-65.1137
 11
-160.614
 21
-64.637
  0
LINE
  8
0
 10
-160.614
 20
-64.637
 11
-160.734
 21
-64.1544
  0
LINE
  8
0
 10
-160.734
 20
-64.1544
 11
-160.832
 21
-63.6669
  0
LINE
  8
0
 10
-160.832
 20
-63.6669
 11
-160.907
 21
-63.1755
  0
LINE
  8
0
 10
-160.907
 20
-63.1755
 11
-160.961
 21
-62.6812
  0
LINE
  8
0
 10
-160.961
 20
-62.6812
 11
-160.991
 21
-62.185
  0
LINE
  8
0
 10
-160.991
 20
-62.185
 11
-161
 21
-61.6878
  0
LINE
  8
0
 10
-161
 20
-61.6878
 11
-160.986
 21
-61.1909
  0
LINE
  8
0
 10
-160.986
 20
-61.1909
 11
-160.949
 21
-60.695
  0
LINE
  8
0
 10
-160.949
 20
-60.695
 11
-160.89
 21
-60.2013
  0
LINE
  8
0
 10
-160.89
 20
-60.2013
 11
-160.809
 21
-59.7108
  0
LINE
  8
0
 10
-160.809
 20
-59.7108
 11
-160.706
 21
-59.2244
  0
LINE
  8
0
 10
-160.706
 20
-59.2244
 11
-160.581
 21
-58.7432
  0
LINE
  8
0
 10
-160.581
 20
-58.7432
 11
-160.434
 21
-58.2682
  0
LINE
  8
0
 10
-160.434
 20
-58.2682
 11
-160.266
 21
-57.8002
  0
LINE
  8
0
 10
-160.266
 20
-57.8002
 11
-160.077
 21
-57.3403
  0
LINE
  8
0
 10
-160.077
 20
-57.3403
 11
-159.868
 21
-56.8895
  0
LINE
  8
0
 10
-159.868
 20
-56.8895
 11
-159.638
 21
-56.4485
  0
LINE
  8
0
 10
-159.638
 20
-56.4485
 11
-159.389
 21
-56.0184
  0
LINE
  8
0
 10
-159.389
 20
-56.0184
 11
-159.12
 21
-55.6
  0
LINE
  8
0
 10
-159.12
 20
-55.6
 11
-158.833
 21
-55.1942
  0
LINE
  8
0
 10
-158.833
 20
-55.1942
 11
-158.528
 21
-54.8017
  0
LINE
  8
0
 10
-158.528
 20
-54.8017
 11
-158.205
 21
-54.4235
  0
LINE
  8
0
 10
-158.205
 20
-54.4235
 11
-157.866
 21
-54.0602
  0
LINE
  8
0
 10
-157.866
 20
-54.0602
 11
-157.51
 21
-53.7126
  0
LINE
  8
0
 10
-157.51
 20
-53.7126
 11
-157.139
 21
-53.3815
  0
LINE
  8
0
 10
-157.139
 20
-53.3815
 11
-156.754
 21
-53.0674
  0
LINE
  8
0
 10
-156.754
 20
-53.0674
 11
-156.355
 21
-52.7711
  0
LINE
  8
0
 10
-156.355
 20
-52.7711
 11
-155.942
 21
-52.4931
  0
LINE
  8
0
 10
-155.942
 20
-52.4931
 11
-155.518
 21
-52.2341
  0
LINE
  8
0
 10
-155.518
 20
-52.2341
 11
-155.082
 21
-51.9945
  0
LINE
  8
0
 10
-155.082
 20
-51.9945
 11
-154.636
 21
-51.7748
  0
LINE
  8
0
 10
-154.636
 20
-51.7748
 11
-154.181
 21
-51.5755
  0
LINE
  8
0
 10
-154.181
 20
-51.5755
 11
-153.717
 21
-51.3969
  0
LINE
  8
0
 10
-153.717
 20
-51.3969
 11
-153.245
 21
-51.2396
  0
LINE
  8
0
 10
-153.245
 20
-51.2396
 11
-152.767
 21
-51.1037
  0
LINE
  8
0
 10
-152.767
 20
-51.1037
 11
-152.283
 21
-50.9895
  0
LINE
  8
0
 10
-152.283
 20
-50.9895
 11
-151.794
 21
-50.8973
  0
LINE
  8
0
 10
-151.794
 20
-50.8973
 11
-151.302
 21
-50.8273
  0
LINE
  8
0
 10
-151.302
 20
-50.8273
 11
-150.807
 21
-50.7797
  0
LINE
  8
0
 10
-150.807
 20
-50.7797
 11
-150.311
 21
-50.7544
  0
LINE
  8
0
 10
-150.311
 20
-50.7544
 11
-149.814
 21
-50.7516
  0
LINE
  8
0
 10
-149.814
 20
-50.7516
 11
-149.317
 21
-50.7712
  0
LINE
  8
0
 10
-149.317
 20
-50.7712
 11
-148.821
 21
-50.8133
  0
LINE
  8
0
 10
-148.821
 20
-50.8133
 11
-148.328
 21
-50.8778
  0
LINE
  8
0
 10
-148.328
 20
-50.8778
 11
-147.839
 21
-50.9644
  0
LINE
  8
0
 10
-147.839
 20
-50.9644
 11
-147.354
 21
-51.0731
  0
LINE
  8
0
 10
-147.354
 20
-51.0731
 11
-146.874
 21
-51.2036
  0
LINE
  8
0
 10
-146.874
 20
-51.2036
 11
-146.4
 21
-51.3556
  0
LINE
  8
0
 10
-146.4
 20
-51.3556
 11
-145.934
 21
-51.5289
  0
LINE
  8
0
 10
-145.934
 20
-51.5289
 11
-145.477
 21
-51.723
  0
LINE
  8
0
 10
-145.477
 20
-51.723
 11
-145.028
 21
-51.9377
  0
LINE
  8
0
 10
-145.028
 20
-51.9377
 11
-144.59
 21
-52.1723
  0
LINE
  8
0
 10
-144.59
 20
-52.1723
 11
-144.163
 21
-52.4266
  0
LINE
  8
0
 10
-144.163
 20
-52.4266
 11
-143.747
 21
-52.6999
  0
LINE
  8
0
 10
-143.747
 20
-52.6999
 11
-143.345
 21
-52.9917
  0
LINE
  8
0
 10
-143.345
 20
-52.9917
 11
-142.956
 21
-53.3013
  0
LINE
  8
0
 10
-142.956
 20
-53.3013
 11
-142.581
 21
-53.6283
  0
LINE
  8
0
 10
-142.581
 20
-53.6283
 11
-142.222
 21
-53.9718
  0
LINE
  8
0
 10
-142.222
 20
-53.9718
 11
-141.878
 21
-54.3312
  0
LINE
  8
0
 10
-141.878
 20
-54.3312
 11
-141.551
 21
-54.7058
  0
LINE
  8
0
 10
-141.551
 20
-54.7058
 11
-141.242
 21
-55.0948
  0
LINE
  8
0
 10
-141.242
 20
-55.0948
 11
-140.95
 21
-55.4973
  0
LINE
  8
0
 10
-140.95
 20
-55.4973
 11
-140.677
 21
-55.9127
  0
LINE
  8
0
 10
-140.677
 20
-55.9127
 11
-140.422
 21
-56.34
  0
LINE
  8
0
 10
-140.422
 20
-56.34
 11
-140.188
 21
-56.7783
  0
LINE
  8
0
 10
-140.188
 20
-56.7783
 11
-139.973
 21
-57.2267
  0
LINE
  8
0
 10
-139.973
 20
-57.2267
 11
-139.779
 21
-57.6844
  0
LINE
  8
0
 10
-139.779
 20
-57.6844
 11
-139.606
 21
-58.1505
  0
LINE
  8
0
 10
-139.606
 20
-58.1505
 11
-139.454
 21
-58.6238
  0
LINE
  8
0
 10
-139.454
 20
-58.6238
 11
-139.323
 21
-59.1036
  0
LINE
  8
0
 10
-139.323
 20
-59.1036
 11
-139.214
 21
-59.5888
  0
LINE
  8
0
 10
-139.214
 20
-59.5888
 11
-139.128
 21
-60.0783
  0
LINE
  8
0
 10
-139.128
 20
-60.0783
 11
-139.063
 21
-60.5713
  0
LINE
  8
0
 10
-139.063
 20
-60.5713
 11
-139.021
 21
-61.0667
  0
LINE
  8
0
 10
-139.021
 20
-61.0667
 11
-139.002
 21
-61.5635
  0
LINE
  8
0
 10
-139.002
 20
-61.5635
 11
-139.004
 21
-62.0607
  0
LINE
  8
0
 10
-139.004
 20
-62.0607
 11
-139.03
 21
-62.5573
  0
LINE
  8
0
 10
-139.03
 20
-62.5573
 11
-139.077
 21
-63.0522
  0
LINE
  8
0
 10
-139.077
 20
-63.0522
 11
-139.147
 21
-63.5444
  0
LINE
  8
0
 10
-139.147
 20
-63.5444
 11
-139.24
 21
-64.033
  0
LINE
  8
0
 10
-139.24
 20
-64.033
 11
-139.354
 21
-64.5169
  0
LINE
  8
0
 10
-139.354
 20
-64.5169
 11
-139.49
 21
-64.9951
  0
LINE
  8
0
 10
-139.49
 20
-64.9951
 11
-139.647
 21
-65.4668
  0
LINE
  8
0
 10
-139.647
 20
-65.4668
 11
-139.825
 21
-65.9308
  0
LINE
  8
0
 10
-139.825
 20
-65.9308
 11
-140.025
 21
-66.3863
  0
LINE
  8
0
 10
-140.025
 20
-66.3863
 11
-140.244
 21
-66.8323
  0
LINE
  8
0
 10
-140.244
 20
-66.8323
 11
-140.484
 21
-67.2679
  0
LINE
  8
0
 10
-140.484
 20
-67.2679
 11
-140.743
 21
-67.6923
  0
LINE
  8
0
 10
-140.743
 20
-67.6923
 11
-140.782
 21
-67.75
  0
LINE
  8
0
 10
-140.782
 20
-67.75
 11
-117.463
 21
-67.75
  0
LINE
  8
0
 10
-117.463
 20
-67.75
 11
-115.724
 21
-66.0113
  0
LINE
  8
0
 10
-115.724
 20
-66.0113
 11
-113.985
 21
-67.75
  0
LINE
  8
0
 10
-113.985
 20
-67.75
 11
-82.0147
 21
-67.75
  0
LINE
  8
0
 10
-82.0147
 20
-67.75
 11
-78.5
 21
-64.2353
  0
LINE
  8
0
 10
-78.5
 20
-64.2353
 11
-78.5
 21
-60.25
  0
LINE
  8
0
 10
-78.5
 20
-60.25
 11
-36.052
 21
-60.25
  0
LINE
  8
0
 10
-36.052
 20
-60.25
 11
-36.052
 21
-64.2353
  0
LINE
  8
0
 10
-36.052
 20
-64.2353
 11
-32.5373
 21
-67.75
  0
LINE
  8
0
 10
-32.5373
 20
-67.75
 11
-9.21822
 21
-67.75
  0
LINE
  8
0
 10
-9.21822
 20
-67.75
 11
-9.45293
 21
-67.3751
  0
LINE
  8
0
 10
-9.45293
 20
-67.3751
 11
-9.69746
 21
-66.9422
  0
LINE
  8
0
 10
-9.69746
 20
-66.9422
 11
-9.92218
 21
-66.4987
  0
LINE
  8
0
 10
-9.92218
 20
-66.4987
 11
-10.1266
 21
-66.0455
  0
LINE
  8
0
 10
-10.1266
 20
-66.0455
 11
-10.3104
 21
-65.5835
  0
LINE
  8
0
 10
-10.3104
 20
-65.5835
 11
-10.4731
 21
-65.1137
  0
LINE
  8
0
 10
-10.4731
 20
-65.1137
 11
-10.6144
 21
-64.637
  0
LINE
  8
0
 10
-10.6144
 20
-64.637
 11
-10.734
 21
-64.1544
  0
LINE
  8
0
 10
-10.734
 20
-64.1544
 11
-10.8317
 21
-63.6669
  0
LINE
  8
0
 10
-10.8317
 20
-63.6669
 11
-10.9072
 21
-63.1755
  0
LINE
  8
0
 10
-10.9072
 20
-63.1755
 11
-10.9605
 21
-62.6812
  0
LINE
  8
0
 10
-10.9605
 20
-62.6812
 11
-10.9914
 21
-62.185
  0
LINE
  8
0
 10
-10.9914
 20
-62.185
 11
-10.9998
 21
-61.6878
  0
LINE
  8
0
 10
-10.9998
 20
-61.6878
 11
-10.9858
 21
-61.1909
  0
LINE
  8
0
 10
-10.9858
 20
-61.1909
 11
-10.9493
 21
-60.695
  0
LINE
  8
0
 10
-10.9493
 20
-60.695
 11
-10.8904
 21
-60.2013
  0
LINE
  8
0
 10
-10.8904
 20
-60.2013
 11
-10.8093
 21
-59.7108
  0
LINE
  8
0
 10
-10.8093
 20
-59.7108
 11
-10.7061
 21
-59.2244
  0
LINE
  8
0
 10
-10.7061
 20
-59.2244
 11
-10.5811
 21
-58.7432
  0
LINE
  8
0
 10
-10.5811
 20
-58.7432
 11
-10.4344
 21
-58.2682
  0
LINE
  8
0
 10
-10.4344
 20
-58.2682
 11
-10.2664
 21
-57.8002
  0
LINE
  8
0
 10
-10.2664
 20
-57.8002
 11
-10.0774
 21
-57.3403
  0
LINE
  8
0
 10
-10.0774
 20
-57.3403
 11
-9.86789
 21
-56.8895
  0
LINE
  8
0
 10
-9.86789
 20
-56.8895
 11
-9.63817
 21
-56.4485
  0
LINE
  8
0
 10
-9.63817
 20
-56.4485
 11
-9.38876
 21
-56.0184
  0
LINE
  8
0
 10
-9.38876
 20
-56.0184
 11
-9.12018
 21
-55.6
  0
LINE
  8
0
 10
-9.12018
 20
-55.6
 11
-8.83296
 21
-55.1942
  0
LINE
  8
0
 10
-8.83296
 20
-55.1942
 11
-8.52769
 21
-54.8017
  0
LINE
  8
0
 10
-8.52769
 20
-54.8017
 11
-8.20502
 21
-54.4235
  0
LINE
  8
0
 10
-8.20502
 20
-54.4235
 11
-7.86557
 21
-54.0602
  0
LINE
  8
0
 10
-7.86557
 20
-54.0602
 11
-7.51006
 21
-53.7126
  0
LINE
  8
0
 10
-7.51006
 20
-53.7126
 11
-7.13919
 21
-53.3815
  0
LINE
  8
0
 10
-7.13919
 20
-53.3815
 11
-6.75375
 21
-53.0674
  0
LINE
  8
0
 10
-6.75375
 20
-53.0674
 11
-6.35451
 21
-52.7711
  0
LINE
  8
0
 10
-6.35451
 20
-52.7711
 11
-5.94229
 21
-52.4931
  0
LINE
  8
0
 10
-5.94229
 20
-52.4931
 11
-5.51793
 21
-52.2341
  0
LINE
  8
0
 10
-5.51793
 20
-52.2341
 11
-5.08229
 21
-51.9945
  0
LINE
  8
0
 10
-5.08229
 20
-51.9945
 11
-4.63628
 21
-51.7748
  0
LINE
  8
0
 10
-4.63628
 20
-51.7748
 11
-4.18079
 21
-51.5755
  0
LINE
  8
0
 10
-4.18079
 20
-51.5755
 11
-3.71675
 21
-51.3969
  0
LINE
  8
0
 10
-3.71675
 20
-51.3969
 11
-3.24513
 21
-51.2396
  0
LINE
  8
0
 10
-3.24513
 20
-51.2396
 11
-2.76688
 21
-51.1037
  0
LINE
  8
0
 10
-2.76688
 20
-51.1037
 11
-2.28297
 21
-50.9895
  0
LINE
  8
0
 10
-2.28297
 20
-50.9895
 11
-1.7944
 21
-50.8973
  0
LINE
  8
0
 10
-1.7944
 20
-50.8973
 11
-1.30215
 21
-50.8273
  0
LINE
  8
0
 10
-1.30215
 20
-50.8273
 11
-0.807266
 21
-50.7797
  0
LINE
  8
0
 10
-0.807266
 20
-50.7797
 11
-0.310715
 21
-50.7544
  0
LINE
  8
0
 10
-0.310715
 20
-50.7544
 11
0.186447
 21
-50.7516
  0
LINE
  8
0
 10
0.186447
 20
-50.7516
 11
0.683243
 21
-50.7712
  0
LINE
  8
0
 10
0.683243
 20
-50.7712
 11
1.17865
 21
-50.8133
  0
LINE
  8
0
 10
1.17865
 20
-50.8133
 11
1.67165
 21
-50.8778
  0
LINE
  8
0
 10
1.67165
 20
-50.8778
 11
2.16122
 21
-50.9644
  0
LINE
  8
0
 10
2.16122
 20
-50.9644
 11
2.64639
 21
-51.0731
  0
LINE
  8
0
 10
2.64639
 20
-51.0731
 11
3.12614
 21
-51.2036
  0
LINE
  8
0
 10
3.12614
 20
-51.2036
 11
3.59952
 21
-51.3556
  0
LINE
  8
0
 10
3.59952
 20
-51.3556
 11
4.06554
 21
-51.5289
  0
LINE
  8
0
 10
4.06554
 20
-51.5289
 11
4.52325
 21
-51.723
  0
LINE
  8
0
 10
4.52325
 20
-51.723
 11
4.97173
 21
-51.9377
  0
LINE
  8
0
 10
4.97173
 20
-51.9377
 11
5.41003
 21
-52.1723
  0
LINE
  8
0
 10
5.41003
 20
-52.1723
 11
5.8373
 21
-52.4266
  0
LINE
  8
0
 10
5.8373
 20
-52.4266
 11
6.25264
 21
-52.6999
  0
LINE
  8
0
 10
6.25264
 20
-52.6999
 11
6.6552
 21
-52.9917
  0
LINE
  8
0
 10
6.6552
 20
-52.9917
 11
7.04417
 21
-53.3013
  0
LINE
  8
0
 10
7.04417
 20
-53.3013
 11
7.41875
 21
-53.6283
  0
LINE
  8
0
 10
7.41875
 20
-53.6283
 11
7.77817
 21
-53.9718
  0
LINE
  8
0
 10
7.77817
 20
-53.9718
 11
8.1217
 21
-54.3312
  0
LINE
  8
0
 10
8.1217
 20
-54.3312
 11
8.44864
 21
-54.7058
  0
LINE
  8
0
 10
8.44864
 20
-54.7058
 11
8.75832
 21
-55.0948
  0
LINE
  8
0
 10
8.75832
 20
-55.0948
 11
9.05009
 21
-55.4973
  0
LINE
  8
0
 10
9.05009
 20
-55.4973
 11
9.32339
 21
-55.9127
  0
LINE
  8
0
 10
9.32339
 20
-55.9127
 11
9.57764
 21
-56.34
  0
LINE
  8
0
 10
9.57764
 20
-56.34
 11
9.81233
 21
-56.7783
  0
LINE
  8
0
 10
9.81233
 20
-56.7783
 11
10.027
 21
-57.2267
  0
LINE
  8
0
 10
10.027
 20
-57.2267
 11
10.2211
 21
-57.6844
  0
LINE
  8
0
 10
10.2211
 20
-57.6844
 11
10.3944
 21
-58.1505
  0
LINE
  8
0
 10
10.3944
 20
-58.1505
 11
10.5464
 21
-58.6238
  0
LINE
  8
0
 10
10.5464
 20
-58.6238
 11
10.6769
 21
-59.1036
  0
LINE
  8
0
 10
10.6769
 20
-59.1036
 11
10.7856
 21
-59.5888
  0
LINE
  8
0
 10
10.7856
 20
-59.5888
 11
10.8722
 21
-60.0783
  0
LINE
  8
0
 10
10.8722
 20
-60.0783
 11
10.9367
 21
-60.5713
  0
LINE
  8
0
 10
10.9367
 20
-60.5713
 11
10.9787
 21
-61.0667
  0
LINE
  8
0
 10
10.9787
 20
-61.0667
 11
10.9984
 21
-61.5635
  0
LINE
  8
0
 10
10.9984
 20
-61.5635
 11
10.9956
 21
-62.0607
  0
LINE
  8
0
 10
10.9956
 20
-62.0607
 11
10.9703
 21
-62.5573
  0
LINE
  8
0
 10
10.9703
 20
-62.5573
 11
10.9226
 21
-63.0522
  0
LINE
  8
0
 10
10.9226
 20
-63.0522
 11
10.8526
 21
-63.5444
  0
LINE
  8
0
 10
10.8526
 20
-63.5444
 11
10.7605
 21
-64.033
  0
LINE
  8
0
 10
10.7605
 20
-64.033
 11
10.6463
 21
-64.5169
  0
LINE
  8
0
 10
10.6463
 20
-64.5169
 11
10.5104
 21
-64.9951
  0
LINE
  8
0
 10
10.5104
 20
-64.9951
 11
10.353
 21
-65.4668
  0
LINE
  8
0
 10
10.353
 20
-65.4668
 11
10.1745
 21
-65.9308
  0
LINE
  8
0
 10
10.1745
 20
-65.9308
 11
9.9752
 21
-66.3863
  0
LINE
  8
0
 10
9.9752
 20
-66.3863
 11
9.75552
 21
-66.8323
  0
LINE
  8
0
 10
9.75552
 20
-66.8323
 11
9.5159
 21
-67.2679
  0
LINE
  8
0
 10
9.5159
 20
-67.2679
 11
9.25684
 21
-67.6923
  0
LINE
  8
0
 10
9.25684
 20
-67.6923
 11
9.21793
 21
-67.75
  0
LINE
  8
0
 10
9.21793
 20
-67.75
 11
32.5373
 21
-67.75
  0
LINE
  8
0
 10
32.5373
 20
-67.75
 11
36.052
 21
-64.2353
  0
LINE
  8
0
 10
36.052
 20
-64.2353
 11
36.052
 21
-60.25
  0
LINE
  8
0
 10
36.052
 20
-60.25
 11
78.5
 21
-60.25
  0
LINE
  8
0
 10
78.5
 20
-60.25
 11
78.5
 21
-64.2353
  0
LINE
  8
0
 10
78.5
 20
-64.2353
 11
82.0147
 21
-67.75
  0
LINE
  8
0
 10
82.0147
 20
-67.75
 11
113.985
 21
-67.75
  0
LINE
  8
0
 10
113.985
 20
-67.75
 11
115.724
 21
-66.0113
  0
LINE
  8
0
 10
115.724
 20
-66.0113
 11
117.463
 21
-67.75
  0
LINE
  8
0
 10
117.463
 20
-67.75
 11
140.782
 21
-67.75
  0
LINE
  8
0
 10
140.782
 20
-67.75
 11
140.547
 21
-67.3751
  0
LINE
  8
0
 10
140.547
 20
-67.3751
 11
140.303
 21
-66.9422
  0
LINE
  8
0
 10
140.303
 20
-66.9422
 11
140.078
 21
-66.4987
  0
LINE
  8
0
 10
140.078
 20
-66.4987
 11
139.873
 21
-66.0455
  0
LINE
  8
0
 10
139.873
 20
-66.0455
 11
139.69
 21
-65.5835
  0
LINE
  8
0
 10
139.69
 20
-65.5835
 11
139.527
 21
-65.1137
  0
LINE
  8
0
 10
139.527
 20
-65.1137
 11
139.386
 21
-64.637
  0
LINE
  8
0
 10
139.386
 20
-64.637
 11
139.266
 21
-64.1544
  0
LINE
  8
0
 10
139.266
 20
-64.1544
 11
139.168
 21
-63.6669
  0
LINE
  8
0
 10
139.168
 20
-63.6669
 11
139.093
 21
-63.1755
  0
LINE
  8
0
 10
139.093
 20
-63.1755
 11
139.039
 21
-62.6812
  0
LINE
  8
0
 10
139.039
 20
-62.6812
 11
139.009
 21
-62.185
  0
LINE
  8
0
 10
139.009
 20
-62.185
 11
139
 21
-61.6878
  0
LINE
  8
0
 10
139
 20
-61.6878
 11
139.014
 21
-61.1909
  0
LINE
  8
0
 10
139.014
 20
-61.1909
 11
139.051
 21
-60.695
  0
LINE
  8
0
 10
139.051
 20
-60.695
 11
139.11
 21
-60.2013
  0
LINE
  8
0
 10
139.11
 20
-60.2013
 11
139.191
 21
-59.7108
  0
LINE
  8
0
 10
139.191
 20
-59.7108
 11
139.294
 21
-59.2244
  0
LINE
  8
0
 10
139.294
 20
-59.2244
 11
139.419
 21
-58.7432
  0
LINE
  8
0
 10
139.419
 20
-58.7432
 11
139.566
 21
-58.2682
  0
LINE
  8
0
 10
139.566
 20
-58.2682
 11
139.734
 21
-57.8002
  0
LINE
  8
0
 10
139.734
 20
-57.8002
 11
139.923
 21
-57.3403
  0
LINE
  8
0
 10
139.923
 20
-57.3403
 11
140.132
 21
-56.8895
  0
LINE
  8
0
 10
140.132
 20
-56.8895
 11
140.362
 21
-56.4485
  0
LINE
  8
0
 10
140.362
 20
-56.4485
 11
140.611
 21
-56.0184
  0
LINE
  8
0
 10
140.611
 20
-56.0184
 11
140.88
 21
-55.6
  0
LINE
  8
0
 10
140.88
 20
-55.6
 11
141.167
 21
-55.1942
  0
LINE
  8
0
 10
141.167
 20
-55.1942
 11
141.472
 21
-54.8017
  0
LINE
  8
0
 10
141.472
 20
-54.8017
 11
141.795
 21
-54.4235
  0
LINE
  8
0
 10
141.795
 20
-54.4235
 11
142.134
 21
-54.0602
  0
LINE
  8
0
 10
142.134
 20
-54.0602
 11
142.49
 21
-53.7126
  0
LINE
  8
0
 10
142.49
 20
-53.7126
 11
142.861
 21
-53.3815
  0
LINE
  8
0
 10
142.861
 20
-53.3815
 11
143.246
 21
-53.0674
  0
LINE
  8
0
 10
143.246
 20
-53.0674
 11
143.645
 21
-52.7711
  0
LINE
  8
0
 10
143.645
 20
-52.7711
 11
144.058
 21
-52.4931
  0
LINE
  8
0
 10
144.058
 20
-52.4931
 11
144.482
 21
-52.2341
  0
LINE
  8
0
 10
144.482
 20
-52.2341
 11
144.918
 21
-51.9945
  0
LINE
  8
0
 10
144.918
 20
-51.9945
 11
145.364
 21
-51.7748
  0
LINE
  8
0
 10
145.364
 20
-51.7748
 11
145.819
 21
-51.5755
  0
LINE
  8
0
 10
145.819
 20
-51.5755
 11
146.283
 21
-51.3969
  0
LINE
  8
0
 10
146.283
 20
-51.3969
 11
146.755
 21
-51.2396
  0
LINE
  8
0
 10
146.755
 20
-51.2396
 11
147.233
 21
-51.1037
  0
LINE
  8
0
 10
147.233
 20
-51.1037
 11
147.717
 21
-50.9895
  0
LINE
  8
0
 10
147.717
 20
-50.9895
 11
148.206
 21
-50.8973
  0
LINE
  8
0
 10
148.206
 20
-50.8973
 11
148.698
 21
-50.8273
  0
LINE
  8
0
 10
148.698
 20
-50.8273
 11
149.193
 21
-50.7797
  0
LINE
  8
0
 10
149.193
 20
-50.7797
 11
149.689
 21
-50.7544
  0
LINE
  8
0
 10
149.689
 20
-50.7544
 11
150.186
 21
-50.7516
  0
LINE
  8
0
 10
150.186
 20
-50.7516
 11
150.683
 21
-50.7712
  0
LINE
  8
0
 10
150.683
 20
-50.7712
 11
151.179
 21
-50.8133
  0
LINE
  8
0
 10
151.179
 20
-50.8133
 11
151.672
 21
-50.8778
  0
LINE
  8
0
 10
151.672
 20
-50.8778
 11
152.161
 21
-50.9644
  0
LINE
  8
0
 10
152.161
 20
-50.9644
 11
152.646
 21
-51.0731
  0
LINE
  8
0
 10
152.646
 20
-51.0731
 11
153.126
 21
-51.2036
  0
LINE
  8
0
 10
153.126
 20
-51.2036
 11
153.6
 21
-51.3556
  0
LINE
  8
0
 10
153.6
 20
-51.3556
 11
154.066
 21
-51.5289
  0
LINE
  8
0
 10
154.066
 20
-51.5289
 11
154.523
 21
-51.723
  0
LINE
  8
0
 10
154.523
 20
-51.723
 11
154.972
 21
-51.9377
  0
LINE
  8
0
 10
154.972
 20
-51.9377
 11
155.41
 21
-52.1723
  0
LINE
  8
0
 10
155.41
 20
-52.1723
 11
155.837
 21
-52.4266
  0
LINE
  8
0
 10
155.837
 20
-52.4266
 11
156.253
 21
-52.6999
  0
LINE
  8
0
 10
156.253
 20
-52.6999
 11
156.655
 21
-52.9917
  0
LINE
  8
0
 10
156.655
 20
-52.9917
 11
157.044
 21
-53.3013
  0
LINE
  8
0
 10
157.044
 20
-53.3013
 11
157.419
 21
-53.6283
  0
LINE
  8
0
 10
157.419
 20
-53.6283
 11
157.778
 21
-53.9718
  0
LINE
  8
0
 10
157.778
 20
-53.9718
 11
158.122
 21
-54.3312
  0
LINE
  8
0
 10
158.122
 20
-54.3312
 11
158.449
 21
-54.7058
  0
LINE
  8
0
 10
158.449
 20
-54.7058
 11
158.758
 21
-55.0948
  0
LINE
  8
0
 10
158.758
 20
-55.0948
 11
159.05
 21
-55.4973
  0
LINE
  8
0
 10
159.05
 20
-55.4973
 11
159.323
 21
-55.9127
  0
LINE
  8
0
 10
159.323
 20
-55.9127
 11
159.578
 21
-56.34
  0
LINE
  8
0
 10
159.578
 20
-56.34
 11
159.812
 21
-56.7783
  0
LINE
  8
0
 10
159.812
 20
-56.7783
 11
160.027
 21
-57.2267
  0
LINE
  8
0
 10
160.027
 20
-57.2267
 11
160.221
 21
-57.6844
  0
LINE
  8
0
 10
160.221
 20
-57.6844
 11
160.394
 21
-58.1505
  0
LINE
  8
0
 10
160.394
 20
-58.1505
 11
160.546
 21
-58.6238
  0
LINE
  8
0
 10
160.546
 20
-58.6238
 11
160.677
 21
-59.1036
  0
LINE
  8
0
 10
160.677
 20
-59.1036
 11
160.786
 21
-59.5888
  0
LINE
  8
0
 10
160.786
 20
-59.5888
 11
160.872
 21
-60.0783
  0
LINE
  8
0
 10
160.872
 20
-60.0783
 11
160.937
 21
-60.5713
  0
LINE
  8
0
 10
160.937
 20
-60.5713
 11
160.979
 21
-61.0667
  0
LINE
  8
0
 10
160.979
 20
-61.0667
 11
160.998
 21
-61.5635
  0
LINE
  8
0
 10
160.998
 20
-61.5635
 11
160.996
 21
-62.0607
  0
LINE
  8
0
 10
160.996
 20
-62.0607
 11
160.97
 21
-62.5573
  0
LINE
  8
0
 10
160.97
 20
-62.5573
 11
160.923
 21
-63.0522
  0
LINE
  8
0
 10
160.923
 20
-63.0522
 11
160.853
 21
-63.5444
  0
LINE
  8
0
 10
160.853
 20
-63.5444
 11
160.76
 21
-64.033
  0
LINE
  8
0
 10
160.76
 20
-64.033
 11
160.646
 21
-64.5169
  0
LINE
  8
0
 10
160.646
 20
-64.5169
 11
160.51
 21
-64.9951
  0
LINE
  8
0
 10
160.51
 20
-64.9951
 11
160.353
 21
-65.4668
  0
LINE
  8
0
 10
160.353
 20
-65.4668
 11
160.175
 21
-65.9308
  0
LINE
  8
0
 10
160.175
 20
-65.9308
 11
159.975
 21
-66.3863
  0
LINE
  8
0
 10
159.975
 20
-66.3863
 11
159.756
 21
-66.8323
  0
LINE
  8
0
 10
159.756
 20
-66.8323
 11
159.516
 21
-67.2679
  0
LINE
  8
0
 10
159.516
 20
-67.2679
 11
159.257
 21
-67.6923
  0
LINE
  8
0
 10
159.257
 20
-67.6923
 11
159.218
 21
-67.75
  0
LINE
  8
0
 10
159.218
 20
-67.75
 11
182.537
 21
-67.75
  0
LINE
  8
0
 10
182.537
 20
-67.75
 11
186.052
 21
-64.2353
  0
LINE
  8
0
 10
186.052
 20
-64.2353
 11
186.052
 21
-60.25
  0
LINE
  8
0
 10
186.052
 20
-60.25
 11
254.75
 21
-60.25
  0
LINE
  8
0
 10
254.75
 20
-60.25
 11
254.75
 21
9.75
  0
LINE
  8
0
 10
254.75
 20
9.75
 11
247.836
 21
9.75
  0
LINE
  8
0
 10
247.836
 20
9.75
 11
246.211
 21
12.563
  0
LINE
  8
0
 10
246.211
 20
12.563
 11
245.959
 21
12.9872
  0
LINE
  8
0
 10
245.959
 20
12.9872
 11
245.666
 21
13.3843
  0
LINE
  8
0
 10
245.666
 20
13.3843
 11
245.335
 21
13.7502
  0
LINE
  8
0
 10
245.335
 20
13.7502
 11
222.086
 21
36.9964
  0
LINE
  8
0
 10
222.086
 20
36.9964
 11
221.729
 21
37.3365
  0
LINE
  8
0
 10
221.729
 20
37.3365
 11
221.339
 21
37.6393
  0
LINE
  8
0
 10
221.339
 20
37.6393
 11
220.921
 21
37.9019
  0
LINE
  8
0
 10
220.921
 20
37.9019
 11
220.479
 21
38.1215
  0
LINE
  8
0
 10
220.479
 20
38.1215
 11
220.018
 21
38.2961
  0
LINE
  8
0
 10
220.018
 20
38.2961
 11
219.541
 21
38.4238
  0
LINE
  8
0
 10
219.541
 20
38.4238
 11
219.054
 21
38.5034
  0
LINE
  8
0
 10
219.054
 20
38.5034
 11
218.562
 21
38.5341
  0
LINE
  8
0
 10
218.562
 20
38.5341
 11
218.069
 21
38.5157
  0
LINE
  8
0
 10
218.069
 20
38.5157
 11
217.58
 21
38.4482
  0
LINE
  8
0
 10
217.58
 20
38.4482
 11
217.1
 21
38.3324
  0
LINE
  8
0
 10
217.1
 20
38.3324
 11
216.634
 21
38.1694
  0
LINE
  8
0
 10
216.634
 20
38.1694
 11
216.187
 21
37.9609
  0
LINE
  8
0
 10
216.187
 20
37.9609
 11
215.763
 21
37.7088
  0
LINE
  8
0
 10
215.763
 20
37.7088
 11
215.366
 21
37.4158
  0
LINE
  8
0
 10
215.366
 20
37.4158
 11
215
 21
37.0847
  0
LINE
  8
0
 10
215
 20
37.0847
 11
191.754
 21
13.8363
  0
LINE
  8
0
 10
191.754
 20
13.8363
 11
191.414
 21
13.4788
  0
LINE
  8
0
 10
191.414
 20
13.4788
 11
191.111
 21
13.0892
  0
LINE
  8
0
 10
191.111
 20
13.0892
 11
190.848
 21
12.6714
  0
LINE
  8
0
 10
190.848
 20
12.6714
 11
189.162
 21
9.75
  0
LINE
  8
0
 10
189.162
 20
9.75
 11
-189.162
 21
9.75
  0
LINE
  8
0
 10
-189.162
 20
9.75
 11
-190.848
 21
12.6714
  0
LINE
  8
0
 10
-190.848
 20
12.6714
 11
-191.111
 21
13.0892
  0
LINE
  8
0
 10
-191.111
 20
13.0892
 11
-191.414
 21
13.4788
  0
LINE
  8
0
 10
-191.414
 20
13.4788
 11
-191.754
 21
13.8363
  0
LINE
  8
0
 10
-191.754
 20
13.8363
 11
-215
 21
37.0847
  0
LINE
  8
0
 10
-215
 20
37.0847
 11
-215.366
 21
37.4158
  0
LINE
  8
0
 10
-215.366
 20
37.4158
 11
-215.763
 21
37.7088
  0
LINE
  8
0
 10
-215.763
 20
37.7088
 11
-216.187
 21
37.9609
  0
LINE
  8
0
 10
-216.187
 20
37.9609
 11
-216.634
 21
38.1694
  0
LINE
  8
0
 10
-216.634
 20
38.1694
 11
-217.1
 21
38.3324
  0
LINE
  8
0
 10
-217.1
 20
38.3324
 11
-217.58
 21
38.4482
  0
LINE
  8
0
 10
-217.58
 20
38.4482
 11
-218.069
 21
38.5157
  0
LINE
  8
0
 10
-218.069
 20
38.5157
 11
-218.562
 21
38.5341
  0
LINE
  8
0
 10
-218.562
 20
38.5341
 11
-219.054
 21
38.5034
  0
LINE
  8
0
 10
-219.054
 20
38.5034
 11
-219.541
 21
38.4238
  0
LINE
  8
0
 10
-219.541
 20
38.4238
 11
-220.018
 21
38.2961
  0
LINE
  8
0
 10
-220.018
 20
38.2961
 11
-220.479
 21
38.1215
  0
LINE
  8
0
 10
-220.479
 20
38.1215
 11
-220.921
 21
37.9019
  0
LINE
  8
0
 10
-220.921
 20
37.9019
 11
-221.339
 21
37.6393
  0
LINE
  8
0
 10
-221.339
 20
37.6393
 11
-221.729
 21
37.3365
  0
LINE
  8
0
 10
-221.729
 20
37.3365
 11
-222.086
 21
36.9964
  0
LINE
  8
0
 10
-222.086
 20
36.9964
 11
-245.335
 21
13.7502
  0
LINE
  8
0
 10
-245.335
 20
13.7502
 11
-245.666
 21
13.3843
  0
LINE
  8
0
 10
-245.666
 20
13.3843
 11
-245.959
 21
12.9872
  0
LINE
  8
0
 10
-245.959
 20
12.9872
 11
-246.211
 21
12.563
  0
LINE
  8
0
 10
-246.211
 20
12.563
 11
-247.836
 21
9.75
  0
LINE
  8
0
 10
-247.836
 20
9.75
 11
-254.75
 21
9.75
  0
LINE
  8
0
 10
-254.75
 20
9.75
 11
-254.75
 21
-60.25
  0
LINE
  8
0
 10
-254.75
 20
-60.25
 11
-186.052
 21
-60.25
  0
LINE
  8
0
 10
-186.052
 20
-60.25
 11
-186.052
 21
-64.2353
  0
LINE
  8
0
 10
-186.052
 20
-64.2353
 11
-182.537
 21
-67.75
  0
LINE
  8
0
 10
-182.537
 20
-67.75
 11
-159.218
 21
-67.75
  0
LINE
  8
0
 10
-159.218
 20
-67.75
 11
-159.453
 21
-67.3751
  0
LINE
  8
0
 10
-218.861
 20
29.0949
 11
-219.315
 21
29.264
  0
LINE
  8
0
 10
-219.315
 20
29.264
 11
-219.702
 21
29.554
  0
LINE
  8
0
 10
-219.702
 20
29.554
 11
-219.992
 21
29.9414
  0
LINE
  8
0
 10
-219.992
 20
29.9414
 11
-220.161
 21
30.3947
  0
LINE
  8
0
 10
-220.161
 20
30.3947
 11
-220.196
 21
30.8774
  0
LINE
  8
0
 10
-220.196
 20
30.8774
 11
-220.196
 21
33.7058
  0
LINE
  8
0
 10
-220.196
 20
33.7058
 11
-220.093
 21
34.1786
  0
LINE
  8
0
 10
-220.093
 20
34.1786
 11
-219.861
 21
34.6033
  0
LINE
  8
0
 10
-219.861
 20
34.6033
 11
-219.519
 21
34.9454
  0
LINE
  8
0
 10
-219.519
 20
34.9454
 11
-219.094
 21
35.1773
  0
LINE
  8
0
 10
-219.094
 20
35.1773
 11
-218.621
 21
35.2802
  0
LINE
  8
0
 10
-218.621
 20
35.2802
 11
-218.139
 21
35.2457
  0
LINE
  8
0
 10
-218.139
 20
35.2457
 11
-217.685
 21
35.0766
  0
LINE
  8
0
 10
-217.685
 20
35.0766
 11
-217.298
 21
34.7866
  0
LINE
  8
0
 10
-217.298
 20
34.7866
 11
-217.008
 21
34.3992
  0
LINE
  8
0
 10
-217.008
 20
34.3992
 11
-216.839
 21
33.9459
  0
LINE
  8
0
 10
-216.839
 20
33.9459
 11
-216.804
 21
33.4632
  0
LINE
  8
0
 10
-216.804
 20
33.4632
 11
-216.804
 21
30.6348
  0
LINE
  8
0
 10
-216.804
 20
30.6348
 11
-216.907
 21
30.162
  0
LINE
  8
0
 10
-216.907
 20
30.162
 11
-217.139
 21
29.7373
  0
LINE
  8
0
 10
-217.139
 20
29.7373
 11
-217.481
 21
29.3952
  0
LINE
  8
0
 10
-217.481
 20
29.3952
 11
-217.906
 21
29.1633
  0
LINE
  8
0
 10
-217.906
 20
29.1633
 11
-218.379
 21
29.0604
  0
LINE
  8
0
 10
-218.379
 20
29.0604
 11
-218.861
 21
29.0949
  0
LINE
  8
0
 10
217.906
 20
29.1633
 11
217.481
 21
29.3952
  0
LINE
  8
0
 10
217.481
 20
29.3952
 11
217.139
 21
29.7373
  0
LINE
  8
0
 10
217.139
 20
29.7373
 11
216.907
 21
30.162
  0
LINE
  8
0
 10
216.907
 20
30.162
 11
216.804
 21
30.6348
  0
LINE
  8
0
 10
216.804
 20
30.6348
 11
216.804
 21
33.4632
  0
LINE
  8
0
 10
216.804
 20
33.4632
 11
216.839
 21
33.9459
  0
LINE
  8
0
 10
216.839
 20
33.9459
 11
217.008
 21
34.3992
  0
LINE
  8
0
 10
217.008
 20
34.3992
 11
217.298
 21
34.7866
  0
LINE
  8
0
 10
217.298
 20
34.7866
 11
217.685
 21
35.0766
  0
LINE
  8
0
 10
217.685
 20
35.0766
 11
218.139
 21
35.2457
  0
LINE
  8
0
 10
218.139
 20
35.2457
 11
218.621
 21
35.2802
  0
LINE
  8
0
 10
218.621
 20
35.2802
 11
219.094
 21
35.1773
  0
LINE
  8
0
 10
219.094
 20
35.1773
 11
219.519
 21
34.9454
  0
LINE
  8
0
 10
219.519
 20
34.9454
 11
219.861
 21
34.6033
  0
LINE
  8
0
 10
219.861
 20
34.6033
 11
220.093
 21
34.1786
  0
LINE
  8
0
 10
220.093
 20
34.1786
 11
220.196
 21
33.7058
  0
LINE
  8
0
 10
220.196
 20
33.7058
 11
220.196
 21
30.8774
  0
LINE
  8
0
 10
220.196
 20
30.8774
 11
220.161
 21
30.3947
  0
LINE
  8
0
 10
220.161
 20
30.3947
 11
219.992
 21
29.9414
  0
LINE
  8
0
 10
219.992
 20
29.9414
 11
219.702
 21
29.554
  0
LINE
  8
0
 10
219.702
 20
29.554
 11
219.315
 21
29.264
  0
LINE
  8
0
 10
219.315
 20
29.264
 11
218.861
 21
29.0949
  0
LINE
  8
0
 10
218.861
 20
29.0949
 11
218.379
 21
29.0604
  0
LINE
  8
0
 10
218.379
 20
29.0604
 11
217.906
 21
29.1633
  0
LINE
  8
0
 10
217.879
 20
-2.23456
 11
217.383
 21
-2.19998
  0
LINE
  8
0
 10
217.383
 20
-2.19998
 11
216.889
 21
-2.14574
  0
LINE
  8
0
 10
216.889
 20
-2.14574
 11
216.397
 21
-2.07188
  0
LINE
  8
0
 10
216.397
 20
-2.07188
 11
215.909
 21
-1.97856
  0
LINE
  8
0
 10
215.909
 20
-1.97856
 11
215.425
 21
-1.86589
  0
LINE
  8
0
 10
215.425
 20
-1.86589
 11
214.946
 21
-1.73405
  0
LINE
  8
0
 10
214.946
 20
-1.73405
 11
214.472
 21
-1.58328
  0
LINE
  8
0
 10
214.472
 20
-1.58328
 11
214.005
 21
-1.4138
  0
LINE
  8
0
 10
214.005
 20
-1.4138
 11
213.545
 21
-1.22588
  0
LINE
  8
0
 10
213.545
 20
-1.22588
 11
213.092
 21
-1.01979
  0
LINE
  8
0
 10
213.092
 20
-1.01979
 11
212.649
 21
-0.795898
  0
LINE
  8
0
 10
212.649
 20
-0.795898
 11
212.214
 21
-0.554535
  0
LINE
  8
0
 10
212.214
 20
-0.554535
 11
211.79
 21
-0.296097
  0
LINE
  8
0
 10
211.79
 20
-0.296097
 11
211.376
 21
-0.0209656
  0
LINE
  8
0
 10
211.376
 20
-0.0209656
 11
210.973
 21
0.27037
  0
LINE
  8
0
 10
210.973
 20
0.27037
 11
210.582
 21
0.577515
  0
LINE
  8
0
 10
210.582
 20
0.577515
 11
210.204
 21
0.899948
  0
LINE
  8
0
 10
210.204
 20
0.899948
 11
209.839
 21
1.23717
  0
LINE
  8
0
 10
209.839
 20
1.23717
 11
209.487
 21
1.58864
  0
LINE
  8
0
 10
209.487
 20
1.58864
 11
209.15
 21
1.95381
  0
LINE
  8
0
 10
209.15
 20
1.95381
 11
208.828
 21
2.33209
  0
LINE
  8
0
 10
208.828
 20
2.33209
 11
208.52
 21
2.7229
  0
LINE
  8
0
 10
208.52
 20
2.7229
 11
208.229
 21
3.1256
  0
LINE
  8
0
 10
208.229
 20
3.1256
 11
207.954
 21
3.53957
  0
LINE
  8
0
 10
207.954
 20
3.53957
 11
207.695
 21
3.96416
  0
LINE
  8
0
 10
207.695
 20
3.96416
 11
207.454
 21
4.39867
  0
LINE
  8
0
 10
207.454
 20
4.39867
 11
207.23
 21
4.84245
  0
LINE
  8
0
 10
207.23
 20
4.84245
 11
207.024
 21
5.29477
  0
LINE
  8
0
 10
207.024
 20
5.29477
 11
206.836
 21
5.75493
  0
LINE
  8
0
 10
206.836
 20
5.75493
 11
206.667
 21
6.2222
  0
LINE
  8
0
 10
206.667
 20
6.2222
 11
206.516
 21
6.69583
  0
LINE
  8
0
 10
206.516
 20
6.69583
 11
206.384
 21
7.17508
  0
LINE
  8
0
 10
206.384
 20
7.17508
 11
206.271
 21
7.65919
  0
LINE
  8
0
 10
206.271
 20
7.65919
 11
206.178
 21
8.14742
  0
LINE
  8
0
 10
206.178
 20
8.14742
 11
206.104
 21
8.63895
  0
LINE
  8
0
 10
206.104
 20
8.63895
 11
206.05
 21
9.13304
  0
LINE
  8
0
 10
206.05
 20
9.13304
 11
206.015
 21
9.62889
  0
LINE
  8
0
 10
206.015
 20
9.62889
 11
206.001
 21
10.1257
  0
LINE
  8
0
 10
206.001
 20
10.1257
 11
206.006
 21
10.6228
  0
LINE
  8
0
 10
206.006
 20
10.6228
 11
206.03
 21
11.1192
  0
LINE
  8
0
 10
206.03
 20
11.1192
 11
206.075
 21
11.6143
  0
LINE
  8
0
 10
206.075
 20
11.6143
 11
206.139
 21
12.1072
  0
LINE
  8
0
 10
206.139
 20
12.1072
 11
206.222
 21
12.5971
  0
LINE
  8
0
 10
206.222
 20
12.5971
 11
206.325
 21
13.0834
  0
LINE
  8
0
 10
206.325
 20
13.0834
 11
206.448
 21
13.5652
  0
LINE
  8
0
 10
206.448
 20
13.5652
 11
206.589
 21
14.0417
  0
LINE
  8
0
 10
206.589
 20
14.0417
 11
206.749
 21
14.5123
  0
LINE
  8
0
 10
206.749
 20
14.5123
 11
206.928
 21
14.9761
  0
LINE
  8
0
 10
206.928
 20
14.9761
 11
207.125
 21
15.4324
  0
LINE
  8
0
 10
207.125
 20
15.4324
 11
207.34
 21
15.8805
  0
LINE
  8
0
 10
207.34
 20
15.8805
 11
207.573
 21
16.3198
  0
LINE
  8
0
 10
207.573
 20
16.3198
 11
207.823
 21
16.7494
  0
LINE
  8
0
 10
207.823
 20
16.7494
 11
208.089
 21
17.1688
  0
LINE
  8
0
 10
208.089
 20
17.1688
 11
208.373
 21
17.5772
  0
LINE
  8
0
 10
208.373
 20
17.5772
 11
208.672
 21
17.974
  0
LINE
  8
0
 10
208.672
 20
17.974
 11
208.987
 21
18.3586
  0
LINE
  8
0
 10
208.987
 20
18.3586
 11
209.317
 21
18.7304
  0
LINE
  8
0
 10
209.317
 20
18.7304
 11
209.661
 21
19.0888
  0
LINE
  8
0
 10
209.661
 20
19.0888
 11
210.02
 21
19.4332
  0
LINE
  8
0
 10
210.02
 20
19.4332
 11
210.391
 21
19.7631
  0
LINE
  8
0
 10
210.391
 20
19.7631
 11
210.776
 21
20.078
  0
LINE
  8
0
 10
210.776
 20
20.078
 11
211.173
 21
20.3773
  0
LINE
  8
0
 10
211.173
 20
20.3773
 11
211.581
 21
20.6606
  0
LINE
  8
0
 10
211.581
 20
20.6606
 11
212.001
 21
20.9274
  0
LINE
  8
0
 10
212.001
 20
20.9274
 11
212.43
 21
21.1774
  0
LINE
  8
0
 10
212.43
 20
21.1774
 11
212.869
 21
21.41
  0
LINE
  8
0
 10
212.869
 20
21.41
 11
213.318
 21
21.6251
  0
LINE
  8
0
 10
213.318
 20
21.6251
 11
213.774
 21
21.8221
  0
LINE
  8
0
 10
213.774
 20
21.8221
 11
214.238
 21
22.0009
  0
LINE
  8
0
 10
214.238
 20
22.0009
 11
214.708
 21
22.161
  0
LINE
  8
0
 10
214.708
 20
22.161
 11
215.185
 21
22.3024
  0
LINE
  8
0
 10
215.185
 20
22.3024
 11
215.667
 21
22.4246
  0
LINE
  8
0
 10
215.667
 20
22.4246
 11
216.153
 21
22.5276
  0
LINE
  8
0
 10
216.153
 20
22.5276
 11
216.643
 21
22.6113
  0
LINE
  8
0
 10
216.643
 20
22.6113
 11
217.136
 21
22.6753
  0
LINE
  8
0
 10
217.136
 20
22.6753
 11
217.631
 21
22.7197
  0
LINE
  8
0
 10
217.631
 20
22.7197
 11
218.127
 21
22.7444
  0
LINE
  8
0
 10
218.127
 20
22.7444
 11
218.624
 21
22.7494
  0
LINE
  8
0
 10
218.624
 20
22.7494
 11
219.121
 21
22.7346
  0
LINE
  8
0
 10
219.121
 20
22.7346
 11
219.617
 21
22.7
  0
LINE
  8
0
 10
219.617
 20
22.7
 11
220.111
 21
22.6457
  0
LINE
  8
0
 10
220.111
 20
22.6457
 11
220.603
 21
22.5719
  0
LINE
  8
0
 10
220.603
 20
22.5719
 11
221.091
 21
22.4786
  0
LINE
  8
0
 10
221.091
 20
22.4786
 11
221.575
 21
22.3659
  0
LINE
  8
0
 10
221.575
 20
22.3659
 11
222.054
 21
22.2341
  0
LINE
  8
0
 10
222.054
 20
22.2341
 11
222.528
 21
22.0833
  0
LINE
  8
0
 10
222.528
 20
22.0833
 11
222.995
 21
21.9138
  0
LINE
  8
0
 10
222.995
 20
21.9138
 11
223.455
 21
21.7259
  0
LINE
  8
0
 10
223.455
 20
21.7259
 11
223.908
 21
21.5198
  0
LINE
  8
0
 10
223.908
 20
21.5198
 11
224.351
 21
21.2959
  0
LINE
  8
0
 10
224.351
 20
21.2959
 11
224.786
 21
21.0545
  0
LINE
  8
0
 10
224.786
 20
21.0545
 11
225.21
 21
20.7961
  0
LINE
  8
0
 10
225.21
 20
20.7961
 11
225.624
 21
20.521
  0
LINE
  8
0
 10
225.624
 20
20.521
 11
226.027
 21
20.2296
  0
LINE
  8
0
 10
226.027
 20
20.2296
 11
226.418
 21
19.9225
  0
LINE
  8
0
 10
226.418
 20
19.9225
 11
226.796
 21
19.6
  0
LINE
  8
0
 10
226.796
 20
19.6
 11
227.161
 21
19.2628
  0
LINE
  8
0
 10
227.161
 20
19.2628
 11
227.513
 21
18.9113
  0
LINE
  8
0
 10
227.513
 20
18.9113
 11
227.85
 21
18.5462
  0
LINE
  8
0
 10
227.85
 20
18.5462
 11
228.172
 21
18.1679
  0
LINE
  8
0
 10
228.172
 20
18.1679
 11
228.48
 21
17.7771
  0
LINE
  8
0
 10
228.48
 20
17.7771
 11
228.771
 21
17.3744
  0
LINE
  8
0
 10
228.771
 20
17.3744
 11
229.046
 21
16.9604
  0
LINE
  8
0
 10
229.046
 20
16.9604
 11
229.305
 21
16.5358
  0
LINE
  8
0
 10
229.305
 20
16.5358
 11
229.546
 21
16.1013
  0
LINE
  8
0
 10
229.546
 20
16.1013
 11
229.77
 21
15.6575
  0
LINE
  8
0
 10
229.77
 20
15.6575
 11
229.976
 21
15.2052
  0
LINE
  8
0
 10
229.976
 20
15.2052
 11
230.164
 21
14.7451
  0
LINE
  8
0
 10
230.164
 20
14.7451
 11
230.333
 21
14.2778
  0
LINE
  8
0
 10
230.333
 20
14.2778
 11
230.484
 21
13.8042
  0
LINE
  8
0
 10
230.484
 20
13.8042
 11
230.616
 21
13.3249
  0
LINE
  8
0
 10
230.616
 20
13.3249
 11
230.729
 21
12.8408
  0
LINE
  8
0
 10
230.729
 20
12.8408
 11
230.822
 21
12.3526
  0
LINE
  8
0
 10
230.822
 20
12.3526
 11
230.896
 21
11.861
  0
LINE
  8
0
 10
230.896
 20
11.861
 11
230.95
 21
11.3669
  0
LINE
  8
0
 10
230.95
 20
11.3669
 11
230.985
 21
10.8711
  0
LINE
  8
0
 10
230.985
 20
10.8711
 11
230.999
 21
10.3743
  0
LINE
  8
0
 10
230.999
 20
10.3743
 11
230.994
 21
9.87723
  0
LINE
  8
0
 10
230.994
 20
9.87723
 11
230.97
 21
9.3808
  0
LINE
  8
0
 10
230.97
 20
9.3808
 11
230.925
 21
8.88573
  0
LINE
  8
0
 10
230.925
 20
8.88573
 11
230.861
 21
8.39282
  0
LINE
  8
0
 10
230.861
 20
8.39282
 11
230.778
 21
7.90285
  0
LINE
  8
0
 10
230.778
 20
7.90285
 11
230.675
 21
7.41658
  0
LINE
  8
0
 10
230.675
 20
7.41658
 11
230.552
 21
6.9348
  0
LINE
  8
0
 10
230.552
 20
6.9348
 11
230.411
 21
6.45827
  0
LINE
  8
0
 10
230.411
 20
6.45827
 11
230.251
 21
5.98772
  0
LINE
  8
0
 10
230.251
 20
5.98772
 11
230.072
 21
5.52391
  0
LINE
  8
0
 10
230.072
 20
5.52391
 11
229.875
 21
5.06758
  0
LINE
  8
0
 10
229.875
 20
5.06758
 11
229.66
 21
4.61945
  0
LINE
  8
0
 10
229.66
 20
4.61945
 11
229.427
 21
4.18021
  0
LINE
  8
0
 10
229.427
 20
4.18021
 11
229.177
 21
3.75058
  0
LINE
  8
0
 10
229.177
 20
3.75058
 11
228.911
 21
3.33122
  0
LINE
  8
0
 10
228.911
 20
3.33122
 11
228.627
 21
2.92281
  0
LINE
  8
0
 10
228.627
 20
2.92281
 11
228.328
 21
2.52597
  0
LINE
  8
0
 10
228.328
 20
2.52597
 11
228.013
 21
2.14134
  0
LINE
  8
0
 10
228.013
 20
2.14134
 11
227.683
 21
1.76955
  0
LINE
  8
0
 10
227.683
 20
1.76955
 11
227.339
 21
1.41116
  0
LINE
  8
0
 10
227.339
 20
1.41116
 11
226.98
 21
1.06674
  0
LINE
  8
0
 10
226.98
 20
1.06674
 11
226.609
 21
0.736847
  0
LINE
  8
0
 10
226.609
 20
0.736847
 11
226.224
 21
0.421997
  0
LINE
  8
0
 10
226.224
 20
0.421997
 11
225.827
 21
0.122696
  0
LINE
  8
0
 10
225.827
 20
0.122696
 11
225.419
 21
-0.160583
  0
LINE
  8
0
 10
225.419
 20
-0.160583
 11
224.999
 21
-0.427429
  0
LINE
  8
0
 10
224.999
 20
-0.427429
 11
224.57
 21
-0.677383
  0
LINE
  8
0
 10
224.57
 20
-0.677383
 11
224.131
 21
-0.910049
  0
LINE
  8
0
 10
224.131
 20
-0.910049
 11
223.682
 21
-1.12508
  0
LINE
  8
0
 10
223.682
 20
-1.12508
 11
223.226
 21
-1.32213
  0
LINE
  8
0
 10
223.226
 20
-1.32213
 11
222.762
 21
-1.50087
  0
LINE
  8
0
 10
222.762
 20
-1.50087
 11
222.292
 21
-1.66103
  0
LINE
  8
0
 10
222.292
 20
-1.66103
 11
221.815
 21
-1.80235
  0
LINE
  8
0
 10
221.815
 20
-1.80235
 11
221.333
 21
-1.92462
  0
LINE
  8
0
 10
221.333
 20
-1.92462
 11
220.847
 21
-2.02765
  0
LINE
  8
0
 10
220.847
 20
-2.02765
 11
220.357
 21
-2.11125
  0
LINE
  8
0
 10
220.357
 20
-2.11125
 11
219.864
 21
-2.17532
  0
LINE
  8
0
 10
219.864
 20
-2.17532
 11
219.369
 21
-2.21974
  0
LINE
  8
0
 10
219.369
 20
-2.21974
 11
218.873
 21
-2.24443
  0
LINE
  8
0
 10
218.873
 20
-2.24443
 11
218.376
 21
-2.24937
  0
LINE
  8
0
 10
218.376
 20
-2.24937
 11
217.879
 21
-2.23456
  0
LINE
  8
0
 10
-218.873
 20
-2.24443
 11
-219.369
 21
-2.21974
  0
LINE
  8
0
 10
-219.369
 20
-2.21974
 11
-219.864
 21
-2.17532
  0
LINE
  8
0
 10
-219.864
 20
-2.17532
 11
-220.357
 21
-2.11125
  0
LINE
  8
0
 10
-220.357
 20
-2.11125
 11
-220.847
 21
-2.02765
  0
LINE
  8
0
 10
-220.847
 20
-2.02765
 11
-221.333
 21
-1.92462
  0
LINE
  8
0
 10
-221.333
 20
-1.92462
 11
-221.815
 21
-1.80235
  0
LINE
  8
0
 10
-221.815
 20
-1.80235
 11
-222.292
 21
-1.66103
  0
LINE
  8
0
 10
-222.292
 20
-1.66103
 11
-222.762
 21
-1.50087
  0
LINE
  8
0
 10
-222.762
 20
-1.50087
 11
-223.226
 21
-1.32213
  0
LINE
  8
0
 10
-223.226
 20
-1.32213
 11
-223.682
 21
-1.12508
  0
LINE
  8
0
 10
-223.682
 20
-1.12508
 11
-224.131
 21
-0.910049
  0
LINE
  8
0
 10
-224.131
 20
-0.910049
 11
-224.57
 21
-0.677383
  0
LINE
  8
0
 10
-224.57
 20
-0.677383
 11
-224.999
 21
-0.427429
  0
LINE
  8
0
 10
-224.999
 20
-0.427429
 11
-225.419
 21
-0.160583
  0
LINE
  8
0
 10
-225.419
 20
-0.160583
 11
-225.827
 21
0.122696
  0
LINE
  8
0
 10
-225.827
 20
0.122696
 11
-226.224
 21
0.421997
  0
LINE
  8
0
 10
-226.224
 20
0.421997
 11
-226.609
 21
0.736847
  0
LINE
  8
0
 10
-226.609
 20
0.736847
 11
-226.98
 21
1.06674
  0
LINE
  8
0
 10
-226.98
 20
1.06674
 11
-227.339
 21
1.41116
  0
LINE
  8
0
 10
-227.339
 20
1.41116
 11
-227.683
 21
1.76955
  0
LINE
  8
0
 10
-227.683
 20
1.76955
 11
-228.013
 21
2.14134
  0
LINE
  8
0
 10
-228.013
 20
2.14134
 11
-228.328
 21
2.52597
  0
LINE
  8
0
 10
-228.328
 20
2.52597
 11
-228.627
 21
2.92281
  0
LINE
  8
0
 10
-228.627
 20
2.92281
 11
-228.911
 21
3.33122
  0
LINE
  8
0
 10
-228.911
 20
3.33122
 11
-229.177
 21
3.75058
  0
LINE
  8
0
 10
-229.177
 20
3.75058
 11
-229.427
 21
4.18021
  0
LINE
  8
0
 10
-229.427
 20
4.18021
 11
-229.66
 21
4.61945
  0
LINE
  8
0
 10
-229.66
 20
4.61945
 11
-229.875
 21
5.06758
  0
LINE
  8
0
 10
-229.875
 20
5.06758
 11
-230.072
 21
5.52391
  0
LINE
  8
0
 10
-230.072
 20
5.52391
 11
-230.251
 21
5.98772
  0
LINE
  8
0
 10
-230.251
 20
5.98772
 11
-230.411
 21
6.45827
  0
LINE
  8
0
 10
-230.411
 20
6.45827
 11
-230.552
 21
6.9348
  0
LINE
  8
0
 10
-230.552
 20
6.9348
 11
-230.675
 21
7.41658
  0
LINE
  8
0
 10
-230.675
 20
7.41658
 11
-230.778
 21
7.90285
  0
LINE
  8
0
 10
-230.778
 20
7.90285
 11
-230.861
 21
8.39282
  0
LINE
  8
0
 10
-230.861
 20
8.39282
 11
-230.925
 21
8.88573
  0
LINE
  8
0
 10
-230.925
 20
8.88573
 11
-230.97
 21
9.3808
  0
LINE
  8
0
 10
-230.97
 20
9.3808
 11
-230.994
 21
9.87723
  0
LINE
  8
0
 10
-230.994
 20
9.87723
 11
-230.999
 21
10.3743
  0
LINE
  8
0
 10
-230.999
 20
10.3743
 11
-230.985
 21
10.8711
  0
LINE
  8
0
 10
-230.985
 20
10.8711
 11
-230.95
 21
11.3669
  0
LINE
  8
0
 10
-230.95
 20
11.3669
 11
-230.896
 21
11.861
  0
LINE
  8
0
 10
-230.896
 20
11.861
 11
-230.822
 21
12.3526
  0
LINE
  8
0
 10
-230.822
 20
12.3526
 11
-230.729
 21
12.8408
  0
LINE
  8
0
 10
-230.729
 20
12.8408
 11
-230.616
 21
13.3249
  0
LINE
  8
0
 10
-230.616
 20
13.3249
 11
-230.484
 21
13.8042
  0
LINE
  8
0
 10
-230.484
 20
13.8042
 11
-230.333
 21
14.2778
  0
LINE
  8
0
 10
-230.333
 20
14.2778
 11
-230.164
 21
14.7451
  0
LINE
  8
0
 10
-230.164
 20
14.7451
 11
-229.976
 21
15.2052
  0
LINE
  8
0
 10
-229.976
 20
15.2052
 11
-229.77
 21
15.6575
  0
LINE
  8
0
 10
-229.77
 20
15.6575
 11
-229.546
 21
16.1013
  0
LINE
  8
0
 10
-229.546
 20
16.1013
 11
-229.305
 21
16.5358
  0
LINE
  8
0
 10
-229.305
 20
16.5358
 11
-229.046
 21
16.9604
  0
LINE
  8
0
 10
-229.046
 20
16.9604
 11
-228.771
 21
17.3744
  0
LINE
  8
0
 10
-228.771
 20
17.3744
 11
-228.48
 21
17.7771
  0
LINE
  8
0
 10
-228.48
 20
17.7771
 11
-228.172
 21
18.1679
  0
LINE
  8
0
 10
-228.172
 20
18.1679
 11
-227.85
 21
18.5462
  0
LINE
  8
0
 10
-227.85
 20
18.5462
 11
-227.513
 21
18.9113
  0
LINE
  8
0
 10
-227.513
 20
18.9113
 11
-227.161
 21
19.2628
  0
LINE
  8
0
 10
-227.161
 20
19.2628
 11
-226.796
 21
19.6
  0
LINE
  8
0
 10
-226.796
 20
19.6
 11
-226.418
 21
19.9225
  0
LINE
  8
0
 10
-226.418
 20
19.9225
 11
-226.027
 21
20.2296
  0
LINE
  8
0
 10
-226.027
 20
20.2296
 11
-225.624
 21
20.521
  0
LINE
  8
0
 10
-225.624
 20
20.521
 11
-225.21
 21
20.7961
  0
LINE
  8
0
 10
-225.21
 20
20.7961
 11
-224.786
 21
21.0545
  0
LINE
  8
0
 10
-224.786
 20
21.0545
 11
-224.351
 21
21.2959
  0
LINE
  8
0
 10
-224.351
 20
21.2959
 11
-223.908
 21
21.5198
  0
LINE
  8
0
 10
-223.908
 20
21.5198
 11
-223.455
 21
21.7259
  0
LINE
  8
0
 10
-223.455
 20
21.7259
 11
-222.995
 21
21.9138
  0
LINE
  8
0
 10
-222.995
 20
21.9138
 11
-222.528
 21
22.0833
  0
LINE
  8
0
 10
-222.528
 20
22.0833
 11
-222.054
 21
22.2341
  0
LINE
  8
0
 10
-222.054
 20
22.2341
 11
-221.575
 21
22.3659
  0
LINE
  8
0
 10
-221.575
 20
22.3659
 11
-221.091
 21
22.4786
  0
LINE
  8
0
 10
-221.091
 20
22.4786
 11
-220.603
 21
22.5719
  0
LINE
  8
0
 10
-220.603
 20
22.5719
 11
-220.111
 21
22.6457
  0
LINE
  8
0
 10
-220.111
 20
22.6457
 11
-219.617
 21
22.7
  0
LINE
  8
0
 10
-219.617
 20
22.7
 11
-219.121
 21
22.7346
  0
LINE
  8
0
 10
-219.121
 20
22.7346
 11
-218.624
 21
22.7494
  0
LINE
  8
0
 10
-218.624
 20
22.7494
 11
-218.127
 21
22.7444
  0
LINE
  8
0
 10
-218.127
 20
22.7444
 11
-217.631
 21
22.7197
  0
LINE
  8
0
 10
-217.631
 20
22.7197
 11
-217.136
 21
22.6753
  0
LINE
  8
0
 10
-217.136
 20
22.6753
 11
-216.643
 21
22.6113
  0
LINE
  8
0
 10
-216.643
 20
22.6113
 11
-216.153
 21
22.5276
  0
LINE
  8
0
 10
-216.153
 20
22.5276
 11
-215.667
 21
22.4246
  0
LINE
  8
0
 10
-215.667
 20
22.4246
 11
-215.185
 21
22.3024
  0
LINE
  8
0
 10
-215.185
 20
22.3024
 11
-214.708
 21
22.161
  0
LINE
  8
0
 10
-214.708
 20
22.161
 11
-214.238
 21
22.0009
  0
LINE
  8
0
 10
-214.238
 20
22.0009
 11
-213.774
 21
21.8221
  0
LINE
  8
0
 10
-213.774
 20
21.8221
 11
-213.318
 21
21.6251
  0
LINE
  8
0
 10
-213.318
 20
21.6251
 11
-212.869
 21
21.41
  0
LINE
  8
0
 10
-212.869
 20
21.41
 11
-212.43
 21
21.1774
  0
LINE
  8
0
 10
-212.43
 20
21.1774
 11
-212.001
 21
20.9274
  0
LINE
  8
0
 10
-212.001
 20
20.9274
 11
-211.581
 21
20.6606
  0
LINE
  8
0
 10
-211.581
 20
20.6606
 11
-211.173
 21
20.3773
  0
LINE
  8
0
 10
-211.173
 20
20.3773
 11
-210.776
 21
20.078
  0
LINE
  8
0
 10
-210.776
 20
20.078
 11
-210.391
 21
19.7631
  0
LINE
  8
0
 10
-210.391
 20
19.7631
 11
-210.02
 21
19.4332
  0
LINE
  8
0
 10
-210.02
 20
19.4332
 11
-209.661
 21
19.0888
  0
LINE
  8
0
 10
-209.661
 20
19.0888
 11
-209.317
 21
18.7304
  0
LINE
  8
0
 10
-209.317
 20
18.7304
 11
-208.987
 21
18.3586
  0
LINE
  8
0
 10
-208.987
 20
18.3586
 11
-208.672
 21
17.974
  0
LINE
  8
0
 10
-208.672
 20
17.974
 11
-208.373
 21
17.5772
  0
LINE
  8
0
 10
-208.373
 20
17.5772
 11
-208.089
 21
17.1688
  0
LINE
  8
0
 10
-208.089
 20
17.1688
 11
-207.823
 21
16.7494
  0
LINE
  8
0
 10
-207.823
 20
16.7494
 11
-207.573
 21
16.3198
  0
LINE
  8
0
 10
-207.573
 20
16.3198
 11
-207.34
 21
15.8805
  0
LINE
  8
0
 10
-207.34
 20
15.8805
 11
-207.125
 21
15.4324
  0
LINE
  8
0
 10
-207.125
 20
15.4324
 11
-206.928
 21
14.9761
  0
LINE
  8
0
 10
-206.928
 20
14.9761
 11
-206.749
 21
14.5123
  0
LINE
  8
0
 10
-206.749
 20
14.5123
 11
-206.589
 21
14.0417
  0
LINE
  8
0
 10
-206.589
 20
14.0417
 11
-206.448
 21
13.5652
  0
LINE
  8
0
 10
-206.448
 20
13.5652
 11
-206.325
 21
13.0834
  0
LINE
  8
0
 10
-206.325
 20
13.0834
 11
-206.222
 21
12.5971
  0
LINE
  8
0
 10
-206.222
 20
12.5971
 11
-206.139
 21
12.1072
  0
LINE
  8
0
 10
-206.139
 20
12.1072
 11
-206.075
 21
11.6143
  0
LINE
  8
0
 10
-206.075
 20
11.6143
 11
-206.03
 21
11.1192
  0
LINE
  8
0
 10
-206.03
 20
11.1192
 11
-206.006
 21
10.6228
  0
LINE
  8
0
 10
-206.006
 20
10.6228
 11
-206.001
 21
10.1257
  0
LINE
  8
0
 10
-206.001
 20
10.1257
 11
-206.015
 21
9.62889
  0
LINE
  8
0
 10
-206.015
 20
9.62889
 11
-206.05
 21
9.13304
  0
LINE
  8
0
 10
-206.05
 20
9.13304
 11
-206.104
 21
8.63895
  0
LINE
  8
0
 10
-206.104
 20
8.63895
 11
-206.178
 21
8.14742
  0
LINE
  8
0
 10
-206.178
 20
8.14742
 11
-206.271
 21
7.65919
  0
LINE
  8
0
 10
-206.271
 20
7.65919
 11
-206.384
 21
7.17508
  0
LINE
  8
0
 10
-206.384
 20
7.17508
 11
-206.516
 21
6.69583
  0
LINE
  8
0
 10
-206.516
 20
6.69583
 11
-206.667
 21
6.2222
  0
LINE
  8
0
 10
-206.667
 20
6.2222
 11
-206.836
 21
5.75493
  0
LINE
  8
0
 10
-206.836
 20
5.75493
 11
-207.024
 21
5.29477
  0
LINE
  8
0
 10
-207.024
 20
5.29477
 11
-207.23
 21
4.84245
  0
LINE
  8
0
 10
-207.23
 20
4.84245
 11
-207.454
 21
4.39867
  0
LINE
  8
0
 10
-207.454
 20
4.39867
 11
-207.695
 21
3.96416
  0
LINE
  8
0
 10
-207.695
 20
3.96416
 11
-207.954
 21
3.53957
  0
LINE
  8
0
 10
-207.954
 20
3.53957
 11
-208.229
 21
3.1256
  0
LINE
  8
0
 10
-208.229
 20
3.1256
 11
-208.52
 21
2.7229
  0
LINE
  8
0
 10
-208.52
 20
2.7229
 11
-208.828
 21
2.33209
  0
LINE
  8
0
 10
-208.828
 20
2.33209
 11
-209.15
 21
1.95381
  0
LINE
  8
0
 10
-209.15
 20
1.95381
 11
-209.487
 21
1.58864
  0
LINE
  8
0
 10
-209.487
 20
1.58864
 11
-209.839
 21
1.23717
  0
LINE
  8
0
 10
-209.839
 20
1.23717
 11
-210.204
 21
0.899948
  0
LINE
  8
0
 10
-210.204
 20
0.899948
 11
-210.582
 21
0.577515
  0
LINE
  8
0
 10
-210.582
 20
0.577515
 11
-210.973
 21
0.27037
  0
LINE
  8
0
 10
-210.973
 20
0.27037
 11
-211.376
 21
-0.0209656
  0
LINE
  8
0
 10
-211.376
 20
-0.0209656
 11
-211.79
 21
-0.296097
  0
LINE
  8
0
 10
-211.79
 20
-0.296097
 11
-212.214
 21
-0.554535
  0
LINE
  8
0
 10
-212.214
 20
-0.554535
 11
-212.649
 21
-0.795898
  0
LINE
  8
0
 10
-212.649
 20
-0.795898
 11
-213.092
 21
-1.01979
  0
LINE
  8
0
 10
-213.092
 20
-1.01979
 11
-213.545
 21
-1.22588
  0
LINE
  8
0
 10
-213.545
 20
-1.22588
 11
-214.005
 21
-1.4138
  0
LINE
  8
0
 10
-214.005
 20
-1.4138
 11
-214.472
 21
-1.58328
  0
LINE
  8
0
 10
-214.472
 20
-1.58328
 11
-214.946
 21
-1.73405
  0
LINE
  8
0
 10
-214.946
 20
-1.73405
 11
-215.425
 21
-1.86589
  0
LINE
  8
0
 10
-215.425
 20
-1.86589
 11
-215.909
 21
-1.97856
  0
LINE
  8
0
 10
-215.909
 20
-1.97856
 11
-216.397
 21
-2.07188
  0
LINE
  8
0
 10
-216.397
 20
-2.07188
 11
-216.889
 21
-2.14574
  0
LINE
  8
0
 10
-216.889
 20
-2.14574
 11
-217.383
 21
-2.19998
  0
LINE
  8
0
 10
-217.383
 20
-2.19998
 11
-217.879
 21
-2.23456
  0
LINE
  8
0
 10
-217.879
 20
-2.23456
 11
-218.376
 21
-2.24937
  0
LINE
  8
0
 10
-218.376
 20
-2.24937
 11
-218.873
 21
-2.24443
  0
LINE
  8
0
 10
-241.956
 20
8.55432
 11
-242.429
 21
8.65718
  0
LINE
  8
0
 10
-242.429
 20
8.65718
 11
-242.853
 21
8.88907
  0
LINE
  8
0
 10
-242.853
 20
8.88907
 11
-243.195
 21
9.23122
  0
LINE
  8
0
 10
-243.195
 20
9.23122
 11
-243.427
 21
9.6559
  0
LINE
  8
0
 10
-243.427
 20
9.6559
 11
-243.53
 21
10.1287
  0
LINE
  8
0
 10
-243.53
 20
10.1287
 11
-243.496
 21
10.6114
  0
LINE
  8
0
 10
-243.496
 20
10.6114
 11
-243.327
 21
11.0647
  0
LINE
  8
0
 10
-243.327
 20
11.0647
 11
-243.037
 21
11.4521
  0
LINE
  8
0
 10
-243.037
 20
11.4521
 11
-242.649
 21
11.7421
  0
LINE
  8
0
 10
-242.649
 20
11.7421
 11
-242.196
 21
11.9111
  0
LINE
  8
0
 10
-242.196
 20
11.9111
 11
-241.713
 21
11.9457
  0
LINE
  8
0
 10
-241.713
 20
11.9457
 11
-238.885
 21
11.9457
  0
LINE
  8
0
 10
-238.885
 20
11.9457
 11
-238.412
 21
11.8428
  0
LINE
  8
0
 10
-238.412
 20
11.8428
 11
-237.987
 21
11.6109
  0
LINE
  8
0
 10
-237.987
 20
11.6109
 11
-237.645
 21
11.2688
  0
LINE
  8
0
 10
-237.645
 20
11.2688
 11
-237.413
 21
10.8441
  0
LINE
  8
0
 10
-237.413
 20
10.8441
 11
-237.31
 21
10.3713
  0
LINE
  8
0
 10
-237.31
 20
10.3713
 11
-237.345
 21
9.88863
  0
LINE
  8
0
 10
-237.345
 20
9.88863
 11
-237.514
 21
9.43527
  0
LINE
  8
0
 10
-237.514
 20
9.43527
 11
-237.804
 21
9.04791
  0
LINE
  8
0
 10
-237.804
 20
9.04791
 11
-238.191
 21
8.75793
  0
LINE
  8
0
 10
-238.191
 20
8.75793
 11
-238.645
 21
8.58884
  0
LINE
  8
0
 10
-238.645
 20
8.58884
 11
-239.127
 21
8.55432
  0
LINE
  8
0
 10
-239.127
 20
8.55432
 11
-241.956
 21
8.55432
  0
LINE
  8
0
 10
195.287
 20
8.55432
 11
194.804
 21
8.58884
  0
LINE
  8
0
 10
194.804
 20
8.58884
 11
194.351
 21
8.75793
  0
LINE
  8
0
 10
194.351
 20
8.75793
 11
193.963
 21
9.04791
  0
LINE
  8
0
 10
193.963
 20
9.04791
 11
193.673
 21
9.43527
  0
LINE
  8
0
 10
193.673
 20
9.43527
 11
193.504
 21
9.88863
  0
LINE
  8
0
 10
193.504
 20
9.88863
 11
193.47
 21
10.3713
  0
LINE
  8
0
 10
193.47
 20
10.3713
 11
193.573
 21
10.8441
  0
LINE
  8
0
 10
193.573
 20
10.8441
 11
193.805
 21
11.2688
  0
LINE
  8
0
 10
193.805
 20
11.2688
 11
194.147
 21
11.6109
  0
LINE
  8
0
 10
194.147
 20
11.6109
 11
194.571
 21
11.8428
  0
LINE
  8
0
 10
194.571
 20
11.8428
 11
195.044
 21
11.9457
  0
LINE
  8
0
 10
195.044
 20
11.9457
 11
197.873
 21
11.9457
  0
LINE
  8
0
 10
197.873
 20
11.9457
 11
198.355
 21
11.9111
  0
LINE
  8
0
 10
198.355
 20
11.9111
 11
198.809
 21
11.7421
  0
LINE
  8
0
 10
198.809
 20
11.7421
 11
199.196
 21
11.4521
  0
LINE
  8
0
 10
199.196
 20
11.4521
 11
199.486
 21
11.0647
  0
LINE
  8
0
 10
199.486
 20
11.0647
 11
199.655
 21
10.6114
  0
LINE
  8
0
 10
199.655
 20
10.6114
 11
199.69
 21
10.1287
  0
LINE
  8
0
 10
199.69
 20
10.1287
 11
199.587
 21
9.6559
  0
LINE
  8
0
 10
199.587
 20
9.6559
 11
199.355
 21
9.23122
  0
LINE
  8
0
 10
199.355
 20
9.23122
 11
199.013
 21
8.88907
  0
LINE
  8
0
 10
199.013
 20
8.88907
 11
198.588
 21
8.65718
  0
LINE
  8
0
 10
198.588
 20
8.65718
 11
198.115
 21
8.55432
  0
LINE
  8
0
 10
198.115
 20
8.55432
 11
195.287
 21
8.55432
  0
LINE
  8
0
 10
-198.115
 20
8.55432
 11
-198.588
 21
8.65718
  0
LINE
  8
0
 10
-198.588
 20
8.65718
 11
-199.013
 21
8.88907
  0
LINE
  8
0
 10
-199.013
 20
8.88907
 11
-199.355
 21
9.23122
  0
LINE
  8
0
 10
-199.355
 20
9.23122
 11
-199.587
 21
9.6559
  0
LINE
  8
0
 10
-199.587
 20
9.6559
 11
-199.69
 21
10.1287
  0
LINE
  8
0
 10
-199.69
 20
10.1287
 11
-199.655
 21
10.6114
  0
LINE
  8
0
 10
-199.655
 20
10.6114
 11
-199.486
 21
11.0647
  0
LINE
  8
0
 10
-199.486
 20
11.0647
 11
-199.196
 21
11.4521
  0
LINE
  8
0
 10
-199.196
 20
11.4521
 11
-198.809
 21
11.7421
  0
LINE
  8
0
 10
-198.809
 20
11.7421
 11
-198.355
 21
11.9111
  0
LINE
  8
0
 10
-198.355
 20
11.9111
 11
-197.873
 21
11.9457
  0
LINE
  8
0
 10
-197.873
 20
11.9457
 11
-195.044
 21
11.9457
  0
LINE
  8
0
 10
-195.044
 20
11.9457
 11
-194.571
 21
11.8428
  0
LINE
  8
0
 10
-194.571
 20
11.8428
 11
-194.147
 21
11.6109
  0
LINE
  8
0
 10
-194.147
 20
11.6109
 11
-193.805
 21
11.2688
  0
LINE
  8
0
 10
-193.805
 20
11.2688
 11
-193.573
 21
10.8441
  0
LINE
  8
0
 10
-193.573
 20
10.8441
 11
-193.47
 21
10.3713
  0
LINE
  8
0
 10
-193.47
 20
10.3713
 11
-193.504
 21
9.88863
  0
LINE
  8
0
 10
-193.504
 20
9.88863
 11
-193.673
 21
9.43527
  0
LINE
  8
0
 10
-193.673
 20
9.43527
 11
-193.963
 21
9.04791
  0
LINE
  8
0
 10
-193.963
 20
9.04791
 11
-194.351
 21
8.75793
  0
LINE
  8
0
 10
-194.351
 20
8.75793
 11
-194.804
 21
8.58884
  0
LINE
  8
0
 10
-194.804
 20
8.58884
 11
-195.287
 21
8.55432
  0
LINE
  8
0
 10
-195.287
 20
8.55432
 11
-198.115
 21
8.55432
  0
LINE
  8
0
 10
239.127
 20
8.55432
 11
238.645
 21
8.58884
  0
LINE
  8
0
 10
238.645
 20
8.58884
 11
238.191
 21
8.75793
  0
LINE
  8
0
 10
238.191
 20
8.75793
 11
237.804
 21
9.04791
  0
LINE
  8
0
 10
237.804
 20
9.04791
 11
237.514
 21
9.43527
  0
LINE
  8
0
 10
237.514
 20
9.43527
 11
237.345
 21
9.88863
  0
LINE
  8
0
 10
237.345
 20
9.88863
 11
237.31
 21
10.3713
  0
LINE
  8
0
 10
237.31
 20
10.3713
 11
237.413
 21
10.8441
  0
LINE
  8
0
 10
237.413
 20
10.8441
 11
237.645
 21
11.2688
  0
LINE
  8
0
 10
237.645
 20
11.2688
 11
237.987
 21
11.6109
  0
LINE
  8
0
 10
237.987
 20
11.6109
 11
238.412
 21
11.8428
  0
LINE
  8
0
 10
238.412
 20
11.8428
 11
238.885
 21
11.9457
  0
LINE
  8
0
 10
238.885
 20
11.9457
 11
241.713
 21
11.9457
  0
LINE
  8
0
 10
241.713
 20
11.9457
 11
242.196
 21
11.9111
  0
LINE
  8
0
 10
242.196
 20
11.9111
 11
242.649
 21
11.7421
  0
LINE
  8
0
 10
242.649
 20
11.7421
 11
243.037
 21
11.4521
  0
LINE
  8
0
 10
243.037
 20
11.4521
 11
243.327
 21
11.0647
  0
LINE
  8
0
 10
243.327
 20
11.0647
 11
243.496
 21
10.6114
  0
LINE
  8
0
 10
243.496
 20
10.6114
 11
243.53
 21
10.1287
  0
LINE
  8
0
 10
243.53
 20
10.1287
 11
243.427
 21
9.6559
  0
LINE
  8
0
 10
243.427
 20
9.6559
 11
243.195
 21
9.23122
  0
LINE
  8
0
 10
243.195
 20
9.23122
 11
242.853
 21
8.88907
  0
LINE
  8
0
 10
242.853
 20
8.88907
 11
242.429
 21
8.65718
  0
LINE
  8
0
 10
242.429
 20
8.65718
 11
241.956
 21
8.55432
  0
LINE
  8
0
 10
241.956
 20
8.55432
 11
239.127
 21
8.55432
  0
LINE
  8
0
 10
245.05
 20
-17.7
 11
245.05
 21
-2.79999
  0
LINE
  8
0
 10
245.05
 20
-2.79999
 11
251.45
 21
-2.79999
  0
LINE
  8
0
 10
251.45
 20
-2.79999
 11
251.45
 21
-17.7
  0
LINE
  8
0
 10
251.45
 20
-17.7
 11
245.05
 21
-17.7
  0
LINE
  8
0
 10
-251.45
 20
-17.7
 11
-251.45
 21
-2.79999
  0
LINE
  8
0
 10
-251.45
 20
-2.79999
 11
-245.05
 21
-2.79999
  0
LINE
  8
0
 10
-245.05
 20
-2.79999
 11
-245.05
 21
-17.7
  0
LINE
  8
0
 10
-245.05
 20
-17.7
 11
-251.45
 21
-17.7
  0
LINE
  8
0
 10
-235.496
 20
-12.404
 11
-235.975
 21
-12.2677
  0
LINE
  8
0
 10
-235.975
 20
-12.2677
 11
-236.421
 21
-12.0456
  0
LINE
  8
0
 10
-236.421
 20
-12.0456
 11
-236.819
 21
-11.7453
  0
LINE
  8
0
 10
-236.819
 20
-11.7453
 11
-237.155
 21
-11.3771
  0
LINE
  8
0
 10
-237.155
 20
-11.3771
 11
-237.417
 21
-10.9535
  0
LINE
  8
0
 10
-237.417
 20
-10.9535
 11
-237.597
 21
-10.4889
  0
LINE
  8
0
 10
-237.597
 20
-10.4889
 11
-237.688
 21
-9.99911
  0
LINE
  8
0
 10
-237.688
 20
-9.99911
 11
-237.688
 21
-9.50087
  0
LINE
  8
0
 10
-237.688
 20
-9.50087
 11
-237.597
 21
-9.01111
  0
LINE
  8
0
 10
-237.597
 20
-9.01111
 11
-237.417
 21
-8.54649
  0
LINE
  8
0
 10
-237.417
 20
-8.54649
 11
-237.155
 21
-8.12288
  0
LINE
  8
0
 10
-237.155
 20
-8.12288
 11
-236.819
 21
-7.75467
  0
LINE
  8
0
 10
-236.819
 20
-7.75467
 11
-236.421
 21
-7.45441
  0
LINE
  8
0
 10
-236.421
 20
-7.45441
 11
-235.975
 21
-7.23232
  0
LINE
  8
0
 10
-235.975
 20
-7.23232
 11
-235.496
 21
-7.09596
  0
LINE
  8
0
 10
-235.496
 20
-7.09596
 11
-235
 21
-7.04999
  0
LINE
  8
0
 10
-235
 20
-7.04999
 11
-234.504
 21
-7.09596
  0
LINE
  8
0
 10
-234.504
 20
-7.09596
 11
-234.025
 21
-7.23232
  0
LINE
  8
0
 10
-234.025
 20
-7.23232
 11
-233.579
 21
-7.45441
  0
LINE
  8
0
 10
-233.579
 20
-7.45441
 11
-233.181
 21
-7.75467
  0
LINE
  8
0
 10
-233.181
 20
-7.75467
 11
-232.845
 21
-8.12288
  0
LINE
  8
0
 10
-232.845
 20
-8.12288
 11
-232.583
 21
-8.54649
  0
LINE
  8
0
 10
-232.583
 20
-8.54649
 11
-232.403
 21
-9.01111
  0
LINE
  8
0
 10
-232.403
 20
-9.01111
 11
-232.312
 21
-9.50087
  0
LINE
  8
0
 10
-232.312
 20
-9.50087
 11
-232.312
 21
-9.99911
  0
LINE
  8
0
 10
-232.312
 20
-9.99911
 11
-232.403
 21
-10.4889
  0
LINE
  8
0
 10
-232.403
 20
-10.4889
 11
-232.583
 21
-10.9535
  0
LINE
  8
0
 10
-232.583
 20
-10.9535
 11
-232.845
 21
-11.3771
  0
LINE
  8
0
 10
-232.845
 20
-11.3771
 11
-233.181
 21
-11.7453
  0
LINE
  8
0
 10
-233.181
 20
-11.7453
 11
-233.579
 21
-12.0456
  0
LINE
  8
0
 10
-233.579
 20
-12.0456
 11
-234.025
 21
-12.2677
  0
LINE
  8
0
 10
-234.025
 20
-12.2677
 11
-234.504
 21
-12.404
  0
LINE
  8
0
 10
-234.504
 20
-12.404
 11
-235
 21
-12.45
  0
LINE
  8
0
 10
-235
 20
-12.45
 11
-235.496
 21
-12.404
  0
LINE
  8
0
 10
234.504
 20
-12.404
 11
234.025
 21
-12.2677
  0
LINE
  8
0
 10
234.025
 20
-12.2677
 11
233.579
 21
-12.0456
  0
LINE
  8
0
 10
233.579
 20
-12.0456
 11
233.181
 21
-11.7453
  0
LINE
  8
0
 10
233.181
 20
-11.7453
 11
232.845
 21
-11.3771
  0
LINE
  8
0
 10
232.845
 20
-11.3771
 11
232.583
 21
-10.9535
  0
LINE
  8
0
 10
232.583
 20
-10.9535
 11
232.403
 21
-10.4889
  0
LINE
  8
0
 10
232.403
 20
-10.4889
 11
232.312
 21
-9.99911
  0
LINE
  8
0
 10
232.312
 20
-9.99911
 11
232.312
 21
-9.50087
  0
LINE
  8
0
 10
232.312
 20
-9.50087
 11
232.403
 21
-9.01111
  0
LINE
  8
0
 10
232.403
 20
-9.01111
 11
232.583
 21
-8.54649
  0
LINE
  8
0
 10
232.583
 20
-8.54649
 11
232.845
 21
-8.12288
  0
LINE
  8
0
 10
232.845
 20
-8.12288
 11
233.181
 21
-7.75467
  0
LINE
  8
0
 10
233.181
 20
-7.75467
 11
233.579
 21
-7.45441
  0
LINE
  8
0
 10
233.579
 20
-7.45441
 11
234.025
 21
-7.23232
  0
LINE
  8
0
 10
234.025
 20
-7.23232
 11
234.504
 21
-7.09596
  0
LINE
  8
0
 10
234.504
 20
-7.09596
 11
235
 21
-7.04999
  0
LINE
  8
0
 10
235
 20
-7.04999
 11
235.496
 21
-7.09596
  0
LINE
  8
0
 10
235.496
 20
-7.09596
 11
235.975
 21
-7.23232
  0
LINE
  8
0
 10
235.975
 20
-7.23232
 11
236.421
 21
-7.45441
  0
LINE
  8
0
 10
236.421
 20
-7.45441
 11
236.819
 21
-7.75467
  0
LINE
  8
0
 10
236.819
 20
-7.75467
 11
237.155
 21
-8.12288
  0
LINE
  8
0
 10
237.155
 20
-8.12288
 11
237.417
 21
-8.54649
  0
LINE
  8
0
 10
237.417
 20
-8.54649
 11
237.597
 21
-9.01111
  0
LINE
  8
0
 10
237.597
 20
-9.01111
 11
237.688
 21
-9.50087
  0
LINE
  8
0
 10
237.688
 20
-9.50087
 11
237.688
 21
-9.99911
  0
LINE
  8
0
 10
237.688
 20
-9.99911
 11
237.597
 21
-10.4889
  0
LINE
  8
0
 10
237.597
 20
-10.4889
 11
237.417
 21
-10.9535
  0
LINE
  8
0
 10
237.417
 20
-10.9535
 11
237.155
 21
-11.3771
  0
LINE
  8
0
 10
237.155
 20
-11.3771
 11
236.819
 21
-11.7453
  0
LINE
  8
0
 10
236.819
 20
-11.7453
 11
236.421
 21
-12.0456
  0
LINE
  8
0
 10
236.421
 20
-12.0456
 11
235.975
 21
-12.2677
  0
LINE
  8
0
 10
235.975
 20
-12.2677
 11
235.496
 21
-12.404
  0
LINE
  8
0
 10
235.496
 20
-12.404
 11
235
 21
-12.45
  0
LINE
  8
0
 10
235
 20
-12.45
 11
234.504
 21
-12.404
  0
LINE
  8
0
 10
217.906
 20
-14.6773
 11
217.481
 21
-14.4454
  0
LINE
  8
0
 10
217.481
 20
-14.4454
 11
217.139
 21
-14.1033
  0
LINE
  8
0
 10
217.139
 20
-14.1033
 11
216.907
 21
-13.6786
  0
LINE
  8
0
 10
216.907
 20
-13.6786
 11
216.804
 21
-13.2058
  0
LINE
  8
0
 10
216.804
 20
-13.2058
 11
216.804
 21
-10.3774
  0
LINE
  8
0
 10
216.804
 20
-10.3774
 11
216.839
 21
-9.89473
  0
LINE
  8
0
 10
216.839
 20
-9.89473
 11
217.008
 21
-9.44136
  0
LINE
  8
0
 10
217.008
 20
-9.44136
 11
217.298
 21
-9.054
  0
LINE
  8
0
 10
217.298
 20
-9.054
 11
217.685
 21
-8.76404
  0
LINE
  8
0
 10
217.685
 20
-8.76404
 11
218.139
 21
-8.59494
  0
LINE
  8
0
 10
218.139
 20
-8.59494
 11
218.621
 21
-8.56042
  0
LINE
  8
0
 10
218.621
 20
-8.56042
 11
219.094
 21
-8.66327
  0
LINE
  8
0
 10
219.094
 20
-8.66327
 11
219.519
 21
-8.89517
  0
LINE
  8
0
 10
219.519
 20
-8.89517
 11
219.861
 21
-9.23732
  0
LINE
  8
0
 10
219.861
 20
-9.23732
 11
220.093
 21
-9.662
  0
LINE
  8
0
 10
220.093
 20
-9.662
 11
220.196
 21
-10.1348
  0
LINE
  8
0
 10
220.196
 20
-10.1348
 11
220.196
 21
-12.9632
  0
LINE
  8
0
 10
220.196
 20
-12.9632
 11
220.161
 21
-13.4459
  0
LINE
  8
0
 10
220.161
 20
-13.4459
 11
219.992
 21
-13.8992
  0
LINE
  8
0
 10
219.992
 20
-13.8992
 11
219.702
 21
-14.2866
  0
LINE
  8
0
 10
219.702
 20
-14.2866
 11
219.315
 21
-14.5766
  0
LINE
  8
0
 10
219.315
 20
-14.5766
 11
218.861
 21
-14.7457
  0
LINE
  8
0
 10
218.861
 20
-14.7457
 11
218.379
 21
-14.7802
  0
LINE
  8
0
 10
218.379
 20
-14.7802
 11
217.906
 21
-14.6773
  0
LINE
  8
0
 10
-218.861
 20
-14.7457
 11
-219.315
 21
-14.5766
  0
LINE
  8
0
 10
-219.315
 20
-14.5766
 11
-219.702
 21
-14.2866
  0
LINE
  8
0
 10
-219.702
 20
-14.2866
 11
-219.992
 21
-13.8992
  0
LINE
  8
0
 10
-219.992
 20
-13.8992
 11
-220.161
 21
-13.4459
  0
LINE
  8
0
 10
-220.161
 20
-13.4459
 11
-220.196
 21
-12.9632
  0
LINE
  8
0
 10
-220.196
 20
-12.9632
 11
-220.196
 21
-10.1348
  0
LINE
  8
0
 10
-220.196
 20
-10.1348
 11
-220.093
 21
-9.662
  0
LINE
  8
0
 10
-220.093
 20
-9.662
 11
-219.861
 21
-9.23732
  0
LINE
  8
0
 10
-219.861
 20
-9.23732
 11
-219.519
 21
-8.89517
  0
LINE
  8
0
 10
-219.519
 20
-8.89517
 11
-219.094
 21
-8.66327
  0
LINE
  8
0
 10
-219.094
 20
-8.66327
 11
-218.621
 21
-8.56042
  0
LINE
  8
0
 10
-218.621
 20
-8.56042
 11
-218.139
 21
-8.59494
  0
LINE
  8
0
 10
-218.139
 20
-8.59494
 11
-217.685
 21
-8.76404
  0
LINE
  8
0
 10
-217.685
 20
-8.76404
 11
-217.298
 21
-9.054
  0
LINE
  8
0
 10
-217.298
 20
-9.054
 11
-217.008
 21
-9.44136
  0
LINE
  8
0
 10
-217.008
 20
-9.44136
 11
-216.839
 21
-9.89473
  0
LINE
  8
0
 10
-216.839
 20
-9.89473
 11
-216.804
 21
-10.3774
  0
LINE
  8
0
 10
-216.804
 20
-10.3774
 11
-216.804
 21
-13.2058
  0
LINE
  8
0
 10
-216.804
 20
-13.2058
 11
-216.907
 21
-13.6786
  0
LINE
  8
0
 10
-216.907
 20
-13.6786
 11
-217.139
 21
-14.1033
  0
LINE
  8
0
 10
-217.139
 20
-14.1033
 11
-217.481
 21
-14.4454
  0
LINE
  8
0
 10
-217.481
 20
-14.4454
 11
-217.906
 21
-14.6773
  0
LINE
  8
0
 10
-217.906
 20
-14.6773
 11
-218.379
 21
-14.7802
  0
LINE
  8
0
 10
-218.379
 20
-14.7802
 11
-218.861
 21
-14.7457
  0
LINE
  8
0
 10
248.002
 20
-27.8512
 11
247.514
 21
-27.7571
  0
LINE
  8
0
 10
247.514
 20
-27.7571
 11
247.053
 21
-27.5725
  0
LINE
  8
0
 10
247.053
 20
-27.5725
 11
246.635
 21
-27.304
  0
LINE
  8
0
 10
246.635
 20
-27.304
 11
246.275
 21
-26.9611
  0
LINE
  8
0
 10
246.275
 20
-26.9611
 11
245.987
 21
-26.5565
  0
LINE
  8
0
 10
245.987
 20
-26.5565
 11
245.781
 21
-26.1046
  0
LINE
  8
0
 10
245.781
 20
-26.1046
 11
245.664
 21
-25.6219
  0
LINE
  8
0
 10
245.664
 20
-25.6219
 11
245.64
 21
-25.1257
  0
LINE
  8
0
 10
245.64
 20
-25.1257
 11
245.711
 21
-24.634
  0
LINE
  8
0
 10
245.711
 20
-24.634
 11
245.873
 21
-24.1645
  0
LINE
  8
0
 10
245.873
 20
-24.1645
 11
246.122
 21
-23.7343
  0
LINE
  8
0
 10
246.122
 20
-23.7343
 11
246.447
 21
-23.3589
  0
LINE
  8
0
 10
246.447
 20
-23.3589
 11
246.837
 21
-23.0518
  0
LINE
  8
0
 10
246.837
 20
-23.0518
 11
247.279
 21
-22.8242
  0
LINE
  8
0
 10
247.279
 20
-22.8242
 11
247.755
 21
-22.6842
  0
LINE
  8
0
 10
247.755
 20
-22.6842
 11
248.25
 21
-22.637
  0
LINE
  8
0
 10
248.25
 20
-22.637
 11
248.745
 21
-22.6842
  0
LINE
  8
0
 10
248.745
 20
-22.6842
 11
249.221
 21
-22.8242
  0
LINE
  8
0
 10
249.221
 20
-22.8242
 11
249.663
 21
-23.0518
  0
LINE
  8
0
 10
249.663
 20
-23.0518
 11
250.053
 21
-23.3589
  0
LINE
  8
0
 10
250.053
 20
-23.3589
 11
250.378
 21
-23.7343
  0
LINE
  8
0
 10
250.378
 20
-23.7343
 11
250.627
 21
-24.1645
  0
LINE
  8
0
 10
250.627
 20
-24.1645
 11
250.789
 21
-24.634
  0
LINE
  8
0
 10
250.789
 20
-24.634
 11
250.86
 21
-25.1257
  0
LINE
  8
0
 10
250.86
 20
-25.1257
 11
250.836
 21
-25.6219
  0
LINE
  8
0
 10
250.836
 20
-25.6219
 11
250.719
 21
-26.1046
  0
LINE
  8
0
 10
250.719
 20
-26.1046
 11
250.513
 21
-26.5565
  0
LINE
  8
0
 10
250.513
 20
-26.5565
 11
250.225
 21
-26.9611
  0
LINE
  8
0
 10
250.225
 20
-26.9611
 11
249.865
 21
-27.304
  0
LINE
  8
0
 10
249.865
 20
-27.304
 11
249.447
 21
-27.5725
  0
LINE
  8
0
 10
249.447
 20
-27.5725
 11
248.986
 21
-27.7571
  0
LINE
  8
0
 10
248.986
 20
-27.7571
 11
248.498
 21
-27.8512
  0
LINE
  8
0
 10
248.498
 20
-27.8512
 11
248.002
 21
-27.8512
  0
LINE
  8
0
 10
-248.498
 20
-27.8512
 11
-248.986
 21
-27.7571
  0
LINE
  8
0
 10
-248.986
 20
-27.7571
 11
-249.447
 21
-27.5725
  0
LINE
  8
0
 10
-249.447
 20
-27.5725
 11
-249.865
 21
-27.304
  0
LINE
  8
0
 10
-249.865
 20
-27.304
 11
-250.225
 21
-26.9611
  0
LINE
  8
0
 10
-250.225
 20
-26.9611
 11
-250.513
 21
-26.5565
  0
LINE
  8
0
 10
-250.513
 20
-26.5565
 11
-250.719
 21
-26.1046
  0
LINE
  8
0
 10
-250.719
 20
-26.1046
 11
-250.836
 21
-25.6219
  0
LINE
  8
0
 10
-250.836
 20
-25.6219
 11
-250.86
 21
-25.1257
  0
LINE
  8
0
 10
-250.86
 20
-25.1257
 11
-250.789
 21
-24.634
  0
LINE
  8
0
 10
-250.789
 20
-24.634
 11
-250.627
 21
-24.1645
  0
LINE
  8
0
 10
-250.627
 20
-24.1645
 11
-250.378
 21
-23.7343
  0
LINE
  8
0
 10
-250.378
 20
-23.7343
 11
-250.053
 21
-23.3589
  0
LINE
  8
0
 10
-250.053
 20
-23.3589
 11
-249.663
 21
-23.0518
  0
LINE
  8
0
 10
-249.663
 20
-23.0518
 11
-249.221
 21
-22.8242
  0
LINE
  8
0
 10
-249.221
 20
-22.8242
 11
-248.745
 21
-22.6842
  0
LINE
  8
0
 10
-248.745
 20
-22.6842
 11
-248.25
 21
-22.637
  0
LINE
  8
0
 10
-248.25
 20
-22.637
 11
-247.755
 21
-22.6842
  0
LINE
  8
0
 10
-247.755
 20
-22.6842
 11
-247.279
 21
-22.8242
  0
LINE
  8
0
 10
-247.279
 20
-22.8242
 11
-246.837
 21
-23.0518
  0
LINE
  8
0
 10
-246.837
 20
-23.0518
 11
-246.447
 21
-23.3589
  0
LINE
  8
0
 10
-246.447
 20
-23.3589
 11
-246.122
 21
-23.7343
  0
LINE
  8
0
 10
-246.122
 20
-23.7343
 11
-245.873
 21
-24.1645
  0
LINE
  8
0
 10
-245.873
 20
-24.1645
 11
-245.711
 21
-24.634
  0
LINE
  8
0
 10
-245.711
 20
-24.634
 11
-245.64
 21
-25.1257
  0
LINE
  8
0
 10
-245.64
 20
-25.1257
 11
-245.664
 21
-25.6219
  0
LINE
  8
0
 10
-245.664
 20
-25.6219
 11
-245.781
 21
-26.1046
  0
LINE
  8
0
 10
-245.781
 20
-26.1046
 11
-245.987
 21
-26.5565
  0
LINE
  8
0
 10
-245.987
 20
-26.5565
 11
-246.275
 21
-26.9611
  0
LINE
  8
0
 10
-246.275
 20
-26.9611
 11
-246.635
 21
-27.304
  0
LINE
  8
0
 10
-246.635
 20
-27.304
 11
-247.053
 21
-27.5725
  0
LINE
  8
0
 10
-247.053
 20
-27.5725
 11
-247.514
 21
-27.7571
  0
LINE
  8
0
 10
-247.514
 20
-27.7571
 11
-248.002
 21
-27.8512
  0
LINE
  8
0
 10
-248.002
 20
-27.8512
 11
-248.498
 21
-27.8512
  0
LINE
  8
0
 10
245.05
 20
-47.7
 11
245.05
 21
-32.8
  0
LINE
  8
0
 10
245.05
 20
-32.8
 11
251.45
 21
-32.8
  0
LINE
  8
0
 10
251.45
 20
-32.8
 11
251.45
 21
-47.7
  0
LINE
  8
0
 10
251.45
 20
-47.7
 11
245.05
 21
-47.7
  0
LINE
  8
0
 10
-251.45
 20
-47.7
 11
-251.45
 21
-32.8
  0
LINE
  8
0
 10
-251.45
 20
-32.8
 11
-245.05
 21
-32.8
  0
LINE
  8
0
 10
-245.05
 20
-32.8
 11
-245.05
 21
-47.7
  0
LINE
  8
0
 10
-245.05
 20
-47.7
 11
-251.45
 21
-47.7
  0
LINE
  8
0
 10
-0.361359
 20
-42.905
 11
-0.814713
 21
-42.7359
  0
LINE
  8
0
 10
-0.814713
 20
-42.7359
 11
-1.20207
 21
-42.446
  0
LINE
  8
0
 10
-1.20207
 20
-42.446
 11
-1.49205
 21
-42.0586
  0
LINE
  8
0
 10
-1.49205
 20
-42.0586
 11
-1.66115
 21
-41.6053
  0
LINE
  8
0
 10
-1.66115
 20
-41.6053
 11
-1.69566
 21
-41.1226
  0
LINE
  8
0
 10
-1.69566
 20
-41.1226
 11
-1.69566
 21
-38.2942
  0
LINE
  8
0
 10
-1.69566
 20
-38.2942
 11
-1.5928
 21
-37.8214
  0
LINE
  8
0
 10
-1.5928
 20
-37.8214
 11
-1.36092
 21
-37.3967
  0
LINE
  8
0
 10
-1.36092
 20
-37.3967
 11
-1.01877
 21
-37.0546
  0
LINE
  8
0
 10
-1.01877
 20
-37.0546
 11
-0.594086
 21
-36.8227
  0
LINE
  8
0
 10
-0.594086
 20
-36.8227
 11
-0.121262
 21
-36.7198
  0
LINE
  8
0
 10
-0.121262
 20
-36.7198
 11
0.361359
 21
-36.7543
  0
LINE
  8
0
 10
0.361359
 20
-36.7543
 11
0.814713
 21
-36.9234
  0
LINE
  8
0
 10
0.814713
 20
-36.9234
 11
1.20207
 21
-37.2134
  0
LINE
  8
0
 10
1.20207
 20
-37.2134
 11
1.49205
 21
-37.6008
  0
LINE
  8
0
 10
1.49205
 20
-37.6008
 11
1.66115
 21
-38.0541
  0
LINE
  8
0
 10
1.66115
 20
-38.0541
 11
1.69566
 21
-38.5367
  0
LINE
  8
0
 10
1.69566
 20
-38.5367
 11
1.69566
 21
-41.3652
  0
LINE
  8
0
 10
1.69566
 20
-41.3652
 11
1.5928
 21
-41.838
  0
LINE
  8
0
 10
1.5928
 20
-41.838
 11
1.36092
 21
-42.2627
  0
LINE
  8
0
 10
1.36092
 20
-42.2627
 11
1.01877
 21
-42.6048
  0
LINE
  8
0
 10
1.01877
 20
-42.6048
 11
0.594086
 21
-42.8367
  0
LINE
  8
0
 10
0.594086
 20
-42.8367
 11
0.121262
 21
-42.9396
  0
LINE
  8
0
 10
0.121262
 20
-42.9396
 11
-0.361359
 21
-42.905
  0
LINE
  8
0
 10
149.639
 20
-42.905
 11
149.185
 21
-42.7359
  0
LINE
  8
0
 10
149.185
 20
-42.7359
 11
148.798
 21
-42.446
  0
LINE
  8
0
 10
148.798
 20
-42.446
 11
148.508
 21
-42.0586
  0
LINE
  8
0
 10
148.508
 20
-42.0586
 11
148.339
 21
-41.6053
  0
LINE
  8
0
 10
148.339
 20
-41.6053
 11
148.304
 21
-41.1226
  0
LINE
  8
0
 10
148.304
 20
-41.1226
 11
148.304
 21
-38.2942
  0
LINE
  8
0
 10
148.304
 20
-38.2942
 11
148.407
 21
-37.8214
  0
LINE
  8
0
 10
148.407
 20
-37.8214
 11
148.639
 21
-37.3967
  0
LINE
  8
0
 10
148.639
 20
-37.3967
 11
148.981
 21
-37.0546
  0
LINE
  8
0
 10
148.981
 20
-37.0546
 11
149.406
 21
-36.8227
  0
LINE
  8
0
 10
149.406
 20
-36.8227
 11
149.879
 21
-36.7198
  0
LINE
  8
0
 10
149.879
 20
-36.7198
 11
150.361
 21
-36.7543
  0
LINE
  8
0
 10
150.361
 20
-36.7543
 11
150.815
 21
-36.9234
  0
LINE
  8
0
 10
150.815
 20
-36.9234
 11
151.202
 21
-37.2134
  0
LINE
  8
0
 10
151.202
 20
-37.2134
 11
151.492
 21
-37.6008
  0
LINE
  8
0
 10
151.492
 20
-37.6008
 11
151.661
 21
-38.0541
  0
LINE
  8
0
 10
151.661
 20
-38.0541
 11
151.696
 21
-38.5367
  0
LINE
  8
0
 10
151.696
 20
-38.5367
 11
151.696
 21
-41.3652
  0
LINE
  8
0
 10
151.696
 20
-41.3652
 11
151.593
 21
-41.838
  0
LINE
  8
0
 10
151.593
 20
-41.838
 11
151.361
 21
-42.2627
  0
LINE
  8
0
 10
151.361
 20
-42.2627
 11
151.019
 21
-42.6048
  0
LINE
  8
0
 10
151.019
 20
-42.6048
 11
150.594
 21
-42.8367
  0
LINE
  8
0
 10
150.594
 20
-42.8367
 11
150.121
 21
-42.9396
  0
LINE
  8
0
 10
150.121
 20
-42.9396
 11
149.639
 21
-42.905
  0
LINE
  8
0
 10
-150.361
 20
-42.905
 11
-150.815
 21
-42.7359
  0
LINE
  8
0
 10
-150.815
 20
-42.7359
 11
-151.202
 21
-42.446
  0
LINE
  8
0
 10
-151.202
 20
-42.446
 11
-151.492
 21
-42.0586
  0
LINE
  8
0
 10
-151.492
 20
-42.0586
 11
-151.661
 21
-41.6053
  0
LINE
  8
0
 10
-151.661
 20
-41.6053
 11
-151.696
 21
-41.1226
  0
LINE
  8
0
 10
-151.696
 20
-41.1226
 11
-151.696
 21
-38.2942
  0
LINE
  8
0
 10
-151.696
 20
-38.2942
 11
-151.593
 21
-37.8214
  0
LINE
  8
0
 10
-151.593
 20
-37.8214
 11
-151.361
 21
-37.3967
  0
LINE
  8
0
 10
-151.361
 20
-37.3967
 11
-151.019
 21
-37.0546
  0
LINE
  8
0
 10
-151.019
 20
-37.0546
 11
-150.594
 21
-36.8227
  0
LINE
  8
0
 10
-150.594
 20
-36.8227
 11
-150.121
 21
-36.7198
  0
LINE
  8
0
 10
-150.121
 20
-36.7198
 11
-149.639
 21
-36.7543
  0
LINE
  8
0
 10
-149.639
 20
-36.7543
 11
-149.185
 21
-36.9234
  0
LINE
  8
0
 10
-149.185
 20
-36.9234
 11
-148.798
 21
-37.2134
  0
LINE
  8
0
 10
-148.798
 20
-37.2134
 11
-148.508
 21
-37.6008
  0
LINE
  8
0
 10
-148.508
 20
-37.6008
 11
-148.339
 21
-38.0541
  0
LINE
  8
0
 10
-148.339
 20
-38.0541
 11
-148.304
 21
-38.5367
  0
LINE
  8
0
 10
-148.304
 20
-38.5367
 11
-148.304
 21
-41.3652
  0
LINE
  8
0
 10
-148.304
 20
-41.3652
 11
-148.407
 21
-41.838
  0
LINE
  8
0
 10
-148.407
 20
-41.838
 11
-148.639
 21
-42.2627
  0
LINE
  8
0
 10
-148.639
 20
-42.2627
 11
-148.981
 21
-42.6048
  0
LINE
  8
0
 10
-148.981
 20
-42.6048
 11
-149.406
 21
-42.8367
  0
LINE
  8
0
 10
-149.406
 20
-42.8367
 11
-149.879
 21
-42.9396
  0
LINE
  8
0
 10
-149.879
 20
-42.9396
 11
-150.361
 21
-42.905
  0
LINE
  8
0
 10
-235.496
 20
-49.904
 11
-235.975
 21
-49.7677
  0
LINE
  8
0
 10
-235.975
 20
-49.7677
 11
-236.421
 21
-49.5456
  0
LINE
  8
0
 10
-236.421
 20
-49.5456
 11
-236.819
 21
-49.2453
  0
LINE
  8
0
 10
-236.819
 20
-49.2453
 11
-237.155
 21
-48.8771
  0
LINE
  8
0
 10
-237.155
 20
-48.8771
 11
-237.417
 21
-48.4535
  0
LINE
  8
0
 10
-237.417
 20
-48.4535
 11
-237.597
 21
-47.9889
  0
LINE
  8
0
 10
-237.597
 20
-47.9889
 11
-237.688
 21
-47.4991
  0
LINE
  8
0
 10
-237.688
 20
-47.4991
 11
-237.688
 21
-47.0009
  0
LINE
  8
0
 10
-237.688
 20
-47.0009
 11
-237.597
 21
-46.5111
  0
LINE
  8
0
 10
-237.597
 20
-46.5111
 11
-237.417
 21
-46.0465
  0
LINE
  8
0
 10
-237.417
 20
-46.0465
 11
-237.155
 21
-45.6229
  0
LINE
  8
0
 10
-237.155
 20
-45.6229
 11
-236.819
 21
-45.2547
  0
LINE
  8
0
 10
-236.819
 20
-45.2547
 11
-236.421
 21
-44.9544
  0
LINE
  8
0
 10
-236.421
 20
-44.9544
 11
-235.975
 21
-44.7323
  0
LINE
  8
0
 10
-235.975
 20
-44.7323
 11
-235.496
 21
-44.596
  0
LINE
  8
0
 10
-235.496
 20
-44.596
 11
-235
 21
-44.55
  0
LINE
  8
0
 10
-235
 20
-44.55
 11
-234.504
 21
-44.596
  0
LINE
  8
0
 10
-234.504
 20
-44.596
 11
-234.025
 21
-44.7323
  0
LINE
  8
0
 10
-234.025
 20
-44.7323
 11
-233.579
 21
-44.9544
  0
LINE
  8
0
 10
-233.579
 20
-44.9544
 11
-233.181
 21
-45.2547
  0
LINE
  8
0
 10
-233.181
 20
-45.2547
 11
-232.845
 21
-45.6229
  0
LINE
  8
0
 10
-232.845
 20
-45.6229
 11
-232.583
 21
-46.0465
  0
LINE
  8
0
 10
-232.583
 20
-46.0465
 11
-232.403
 21
-46.5111
  0
LINE
  8
0
 10
-232.403
 20
-46.5111
 11
-232.312
 21
-47.0009
  0
LINE
  8
0
 10
-232.312
 20
-47.0009
 11
-232.312
 21
-47.4991
  0
LINE
  8
0
 10
-232.312
 20
-47.4991
 11
-232.403
 21
-47.9889
  0
LINE
  8
0
 10
-232.403
 20
-47.9889
 11
-232.583
 21
-48.4535
  0
LINE
  8
0
 10
-232.583
 20
-48.4535
 11
-232.845
 21
-48.8771
  0
LINE
  8
0
 10
-232.845
 20
-48.8771
 11
-233.181
 21
-49.2453
  0
LINE
  8
0
 10
-233.181
 20
-49.2453
 11
-233.579
 21
-49.5456
  0
LINE
  8
0
 10
-233.579
 20
-49.5456
 11
-234.025
 21
-49.7677
  0
LINE
  8
0
 10
-234.025
 20
-49.7677
 11
-234.504
 21
-49.904
  0
LINE
  8
0
 10
-234.504
 20
-49.904
 11
-235
 21
-49.95
  0
LINE
  8
0
 10
-235
 20
-49.95
 11
-235.496
 21
-49.904
  0
LINE
  8
0
 10
234.504
 20
-49.904
 11
234.025
 21
-49.7677
  0
LINE
  8
0
 10
234.025
 20
-49.7677
 11
233.579
 21
-49.5456
  0
LINE
  8
0
 10
233.579
 20
-49.5456
 11
233.181
 21
-49.2453
  0
LINE
  8
0
 10
233.181
 20
-49.2453
 11
232.845
 21
-48.8771
  0
LINE
  8
0
 10
232.845
 20
-48.8771
 11
232.583
 21
-48.4535
  0
LINE
  8
0
 10
232.583
 20
-48.4535
 11
232.403
 21
-47.9889
  0
LINE
  8
0
 10
232.403
 20
-47.9889
 11
232.312
 21
-47.4991
  0
LINE
  8
0
 10
232.312
 20
-47.4991
 11
232.312
 21
-47.0009
  0
LINE
  8
0
 10
232.312
 20
-47.0009
 11
232.403
 21
-46.5111
  0
LINE
  8
0
 10
232.403
 20
-46.5111
 11
232.583
 21
-46.0465
  0
LINE
  8
0
 10
232.583
 20
-46.0465
 11
232.845
 21
-45.6229
  0
LINE
  8
0
 10
232.845
 20
-45.6229
 11
233.181
 21
-45.2547
  0
LINE
  8
0
 10
233.181
 20
-45.2547
 11
233.579
 21
-44.9544
  0
LINE
  8
0
 10
233.579
 20
-44.9544
 11
234.025
 21
-44.7323
  0
LINE
  8
0
 10
234.025
 20
-44.7323
 11
234.504
 21
-44.596
  0
LINE
  8
0
 10
234.504
 20
-44.596
 11
235
 21
-44.55
  0
LINE
  8
0
 10
235
 20
-44.55
 11
235.496
 21
-44.596
  0
LINE
  8
0
 10
235.496
 20
-44.596
 11
235.975
 21
-44.7323
  0
LINE
  8
0
 10
235.975
 20
-44.7323
 11
236.421
 21
-44.9544
  0
LINE
  8
0
 10
236.421
 20
-44.9544
 11
236.819
 21
-45.2547
  0
LINE
  8
0
 10
236.819
 20
-45.2547
 11
237.155
 21
-45.6229
  0
LINE
  8
0
 10
237.155
 20
-45.6229
 11
237.417
 21
-46.0465
  0
LINE
  8
0
 10
237.417
 20
-46.0465
 11
237.597
 21
-46.5111
  0
LINE
  8
0
 10
237.597
 20
-46.5111
 11
237.688
 21
-47.0009
  0
LINE
  8
0
 10
237.688
 20
-47.0009
 11
237.688
 21
-47.4991
  0
LINE
  8
0
 10
237.688
 20
-47.4991
 11
237.597
 21
-47.9889
  0
LINE
  8
0
 10
237.597
 20
-47.9889
 11
237.417
 21
-48.4535
  0
LINE
  8
0
 10
237.417
 20
-48.4535
 11
237.155
 21
-48.8771
  0
LINE
  8
0
 10
237.155
 20
-48.8771
 11
236.819
 21
-49.2453
  0
LINE
  8
0
 10
236.819
 20
-49.2453
 11
236.421
 21
-49.5456
  0
LINE
  8
0
 10
236.421
 20
-49.5456
 11
235.975
 21
-49.7677
  0
LINE
  8
0
 10
235.975
 20
-49.7677
 11
235.496
 21
-49.904
  0
LINE
  8
0
 10
235.496
 20
-49.904
 11
235
 21
-49.95
  0
LINE
  8
0
 10
235
 20
-49.95
 11
234.504
 21
-49.904
  0
LINE
  8
0
 10
97.7508
 20
-66.7438
 11
97.2548
 21
-66.6942
  0
LINE
  8
0
 10
97.2548
 20
-66.6942
 11
96.7662
 21
-66.5954
  0
LINE
  8
0
 10
96.7662
 20
-66.5954
 11
96.2899
 21
-66.4485
  0
LINE
  8
0
 10
96.2899
 20
-66.4485
 11
95.8306
 21
-66.2548
  0
LINE
  8
0
 10
95.8306
 20
-66.2548
 11
95.3928
 21
-66.0164
  0
LINE
  8
0
 10
95.3928
 20
-66.0164
 11
94.981
 21
-65.7357
  0
LINE
  8
0
 10
94.981
 20
-65.7357
 11
94.5991
 21
-65.4153
  0
LINE
  8
0
 10
94.5991
 20
-65.4153
 11
94.2511
 21
-65.0584
  0
LINE
  8
0
 10
94.2511
 20
-65.0584
 11
93.9403
 21
-64.6687
  0
LINE
  8
0
 10
93.9403
 20
-64.6687
 11
93.6699
 21
-64.25
  0
LINE
  8
0
 10
93.6699
 20
-64.25
 11
93.4425
 21
-63.8064
  0
LINE
  8
0
 10
93.4425
 20
-63.8064
 11
93.2604
 21
-63.3424
  0
LINE
  8
0
 10
93.2604
 20
-63.3424
 11
93.1254
 21
-62.8626
  0
LINE
  8
0
 10
93.1254
 20
-62.8626
 11
93.0388
 21
-62.3717
  0
LINE
  8
0
 10
93.0388
 20
-62.3717
 11
93.0016
 21
-61.8746
  0
LINE
  8
0
 10
93.0016
 20
-61.8746
 11
93.014
 21
-61.3763
  0
LINE
  8
0
 10
93.014
 20
-61.3763
 11
93.076
 21
-60.8818
  0
LINE
  8
0
 10
93.076
 20
-60.8818
 11
93.1869
 21
-60.3958
  0
LINE
  8
0
 10
93.1869
 20
-60.3958
 11
93.3456
 21
-59.9233
  0
LINE
  8
0
 10
93.3456
 20
-59.9233
 11
93.5506
 21
-59.4689
  0
LINE
  8
0
 10
93.5506
 20
-59.4689
 11
93.7999
 21
-59.0373
  0
LINE
  8
0
 10
93.7999
 20
-59.0373
 11
94.0908
 21
-58.6325
  0
LINE
  8
0
 10
94.0908
 20
-58.6325
 11
94.4207
 21
-58.2588
  0
LINE
  8
0
 10
94.4207
 20
-58.2588
 11
94.7861
 21
-57.9198
  0
LINE
  8
0
 10
94.7861
 20
-57.9198
 11
95.1834
 21
-57.6188
  0
LINE
  8
0
 10
95.1834
 20
-57.6188
 11
95.6087
 21
-57.3589
  0
LINE
  8
0
 10
95.6087
 20
-57.3589
 11
96.0578
 21
-57.1426
  0
LINE
  8
0
 10
96.0578
 20
-57.1426
 11
96.5262
 21
-56.9721
  0
LINE
  8
0
 10
96.5262
 20
-56.9721
 11
97.0093
 21
-56.8491
  0
LINE
  8
0
 10
97.0093
 20
-56.8491
 11
97.5022
 21
-56.7748
  0
LINE
  8
0
 10
97.5022
 20
-56.7748
 11
98
 21
-56.75
  0
LINE
  8
0
 10
98
 20
-56.75
 11
98.4978
 21
-56.7748
  0
LINE
  8
0
 10
98.4978
 20
-56.7748
 11
98.9907
 21
-56.8491
  0
LINE
  8
0
 10
98.9907
 20
-56.8491
 11
99.4738
 21
-56.9721
  0
LINE
  8
0
 10
99.4738
 20
-56.9721
 11
99.9422
 21
-57.1426
  0
LINE
  8
0
 10
99.9422
 20
-57.1426
 11
100.391
 21
-57.3589
  0
LINE
  8
0
 10
100.391
 20
-57.3589
 11
100.817
 21
-57.6188
  0
LINE
  8
0
 10
100.817
 20
-57.6188
 11
101.214
 21
-57.9198
  0
LINE
  8
0
 10
101.214
 20
-57.9198
 11
101.579
 21
-58.2588
  0
LINE
  8
0
 10
101.579
 20
-58.2588
 11
101.909
 21
-58.6325
  0
LINE
  8
0
 10
101.909
 20
-58.6325
 11
102.2
 21
-59.0373
  0
LINE
  8
0
 10
102.2
 20
-59.0373
 11
102.449
 21
-59.4689
  0
LINE
  8
0
 10
102.449
 20
-59.4689
 11
102.654
 21
-59.9233
  0
LINE
  8
0
 10
102.654
 20
-59.9233
 11
102.813
 21
-60.3958
  0
LINE
  8
0
 10
102.813
 20
-60.3958
 11
102.924
 21
-60.8818
  0
LINE
  8
0
 10
102.924
 20
-60.8818
 11
102.986
 21
-61.3763
  0
LINE
  8
0
 10
102.986
 20
-61.3763
 11
102.998
 21
-61.8746
  0
LINE
  8
0
 10
102.998
 20
-61.8746
 11
102.961
 21
-62.3717
  0
LINE
  8
0
 10
102.961
 20
-62.3717
 11
102.875
 21
-62.8626
  0
LINE
  8
0
 10
102.875
 20
-62.8626
 11
102.74
 21
-63.3424
  0
LINE
  8
0
 10
102.74
 20
-63.3424
 11
102.558
 21
-63.8064
  0
LINE
  8
0
 10
102.558
 20
-63.8064
 11
102.33
 21
-64.25
  0
LINE
  8
0
 10
102.33
 20
-64.25
 11
102.06
 21
-64.6687
  0
LINE
  8
0
 10
102.06
 20
-64.6687
 11
101.749
 21
-65.0584
  0
LINE
  8
0
 10
101.749
 20
-65.0584
 11
101.401
 21
-65.4153
  0
LINE
  8
0
 10
101.401
 20
-65.4153
 11
101.019
 21
-65.7357
  0
LINE
  8
0
 10
101.019
 20
-65.7357
 11
100.607
 21
-66.0164
  0
LINE
  8
0
 10
100.607
 20
-66.0164
 11
100.169
 21
-66.2548
  0
LINE
  8
0
 10
100.169
 20
-66.2548
 11
99.7101
 21
-66.4485
  0
LINE
  8
0
 10
99.7101
 20
-66.4485
 11
99.2338
 21
-66.5954
  0
LINE
  8
0
 10
99.2338
 20
-66.5954
 11
98.7452
 21
-66.6942
  0
LINE
  8
0
 10
98.7452
 20
-66.6942
 11
98.2492
 21
-66.7438
  0
LINE
  8
0
 10
98.2492
 20
-66.7438
 11
97.7508
 21
-66.7438
  0
LINE
  8
0
 10
-98.2492
 20
-66.7438
 11
-98.7452
 21
-66.6942
  0
LINE
  8
0
 10
-98.7452
 20
-66.6942
 11
-99.2338
 21
-66.5954
  0
LINE
  8
0
 10
-99.2338
 20
-66.5954
 11
-99.7101
 21
-66.4485
  0
LINE
  8
0
 10
-99.7101
 20
-66.4485
 11
-100.169
 21
-66.2548
  0
LINE
  8
0
 10
-100.169
 20
-66.2548
 11
-100.607
 21
-66.0164
  0
LINE
  8
0
 10
-100.607
 20
-66.0164
 11
-101.019
 21
-65.7357
  0
LINE
  8
0
 10
-101.019
 20
-65.7357
 11
-101.401
 21
-65.4153
  0
LINE
  8
0
 10
-101.401
 20
-65.4153
 11
-101.749
 21
-65.0584
  0
LINE
  8
0
 10
-101.749
 20
-65.0584
 11
-102.06
 21
-64.6687
  0
LINE
  8
0
 10
-102.06
 20
-64.6687
 11
-102.33
 21
-64.25
  0
LINE
  8
0
 10
-102.33
 20
-64.25
 11
-102.558
 21
-63.8064
  0
LINE
  8
0
 10
-102.558
 20
-63.8064
 11
-102.74
 21
-63.3424
  0
LINE
  8
0
 10
-102.74
 20
-63.3424
 11
-102.875
 21
-62.8626
  0
LINE
  8
0
 10
-102.875
 20
-62.8626
 11
-102.961
 21
-62.3717
  0
LINE
  8
0
 10
-102.961
 20
-62.3717
 11
-102.998
 21
-61.8746
  0
LINE
  8
0
 10
-102.998
 20
-61.8746
 11
-102.986
 21
-61.3763
  0
LINE
  8
0
 10
-102.986
 20
-61.3763
 11
-102.924
 21
-60.8818
  0
LINE
  8
0
 10
-102.924
 20
-60.8818
 11
-102.813
 21
-60.3958
  0
LINE
  8
0
 10
-102.813
 20
-60.3958
 11
-102.654
 21
-59.9233
  0
LINE
  8
0
 10
-102.654
 20
-59.9233
 11
-102.449
 21
-59.4689
  0
LINE
  8
0
 10
-102.449
 20
-59.4689
 11
-102.2
 21
-59.0373
  0
LINE
  8
0
 10
-102.2
 20
-59.0373
 11
-101.909
 21
-58.6325
  0
LINE
  8
0
 10
-101.909
 20
-58.6325
 11
-101.579
 21
-58.2588
  0
LINE
  8
0
 10
-101.579
 20
-58.2588
 11
-101.214
 21
-57.9198
  0
LINE
  8
0
 10
-101.214
 20
-57.9198
 11
-100.817
 21
-57.6188
  0
LINE
  8
0
 10
-100.817
 20
-57.6188
 11
-100.391
 21
-57.3589
  0
LINE
  8
0
 10
-100.391
 20
-57.3589
 11
-99.9422
 21
-57.1426
  0
LINE
  8
0
 10
-99.9422
 20
-57.1426
 11
-99.4738
 21
-56.9721
  0
LINE
  8
0
 10
-99.4738
 20
-56.9721
 11
-98.9907
 21
-56.8491
  0
LINE
  8
0
 10
-98.9907
 20
-56.8491
 11
-98.4978
 21
-56.7748
  0
LINE
  8
0
 10
-98.4978
 20
-56.7748
 11
-98
 21
-56.75
  0
LINE
  8
0
 10
-98
 20
-56.75
 11
-97.5022
 21
-56.7748
  0
LINE
  8
0
 10
-97.5022
 20
-56.7748
 11
-97.0093
 21
-56.8491
  0
LINE
  8
0
 10
-97.0093
 20
-56.8491
 11
-96.5262
 21
-56.9721
  0
LINE
  8
0
 10
-96.5262
 20
-56.9721
 11
-96.0578
 21
-57.1426
  0
LINE
  8
0
 10
-96.0578
 20
-57.1426
 11
-95.6087
 21
-57.3589
  0
LINE
  8
0
 10
-95.6087
 20
-57.3589
 11
-95.1834
 21
-57.6188
  0
LINE
  8
0
 10
-95.1834
 20
-57.6188
 11
-94.7861
 21
-57.9198
  0
LINE
  8
0
 10
-94.7861
 20
-57.9198
 11
-94.4207
 21
-58.2588
  0
LINE
  8
0
 10
-94.4207
 20
-58.2588
 11
-94.0908
 21
-58.6325
  0
LINE
  8
0
 10
-94.0908
 20
-58.6325
 11
-93.7999
 21
-59.0373
  0
LINE
  8
0
 10
-93.7999
 20
-59.0373
 11
-93.5506
 21
-59.4689
  0
LINE
  8
0
 10
-93.5506
 20
-59.4689
 11
-93.3456
 21
-59.9233
  0
LINE
  8
0
 10
-93.3456
 20
-59.9233
 11
-93.1869
 21
-60.3958
  0
LINE
  8
0
 10
-93.1869
 20
-60.3958
 11
-93.076
 21
-60.8818
  0
LINE
  8
0
 10
-93.076
 20
-60.8818
 11
-93.014
 21
-61.3763
  0
LINE
  8
0
 10
-93.014
 20
-61.3763
 11
-93.0016
 21
-61.8746
  0
LINE
  8
0
 10
-93.0016
 20
-61.8746
 11
-93.0388
 21
-62.3717
  0
LINE
  8
0
 10
-93.0388
 20
-62.3717
 11
-93.1254
 21
-62.8626
  0
LINE
  8
0
 10
-93.1254
 20
-62.8626
 11
-93.2604
 21
-63.3424
  0
LINE
  8
0
 10
-93.2604
 20
-63.3424
 11
-93.4425
 21
-63.8064
  0
LINE
  8
0
 10
-93.4425
 20
-63.8064
 11
-93.6699
 21
-64.25
  0
LINE
  8
0
 10
-93.6699
 20
-64.25
 11
-93.9403
 21
-64.6687
  0
LINE
  8
0
 10
-93.9403
 20
-64.6687
 11
-94.2511
 21
-65.0584
  0
LINE
  8
0
 10
-94.2511
 20
-65.0584
 11
-94.5991
 21
-65.4153
  0
LINE
  8
0
 10
-94.5991
 20
-65.4153
 11
-94.981
 21
-65.7357
  0
LINE
  8
0
 10
-94.981
 20
-65.7357
 11
-95.3928
 21
-66.0164
  0
LINE
  8
0
 10
-95.3928
 20
-66.0164
 11
-95.8306
 21
-66.2548
  0
LINE
  8
0
 10
-95.8306
 20
-66.2548
 11
-96.2899
 21
-66.4485
  0
LINE
  8
0
 10
-96.2899
 20
-66.4485
 11
-96.7662
 21
-66.5954
  0
LINE
  8
0
 10
-96.7662
 20
-66.5954
 11
-97.2548
 21
-66.6942
  0
LINE
  8
0
 10
-97.2548
 20
-66.6942
 11
-97.7508
 21
-66.7438
  0
LINE
  8
0
 10
-97.7508
 20
-66.7438
 11
-98.2492
 21
-66.7438
  0
LINE
  8
0
 10
107.5
 20
-64.25
 11
107.5
 21
-59.25
  0
LINE
  8
0
 10
107.5
 20
-59.25
 11
110.5
 21
-59.25
  0
LINE
  8
0
 10
110.5
 20
-59.25
 11
110.5
 21
-64.25
  0
LINE
  8
0
 10
110.5
 20
-64.25
 11
107.5
 21
-64.25
  0
LINE
  8
0
 10
85.5
 20
-64.25
 11
85.5
 21
-59.25
  0
LINE
  8
0
 10
85.5
 20
-59.25
 11
88.5
 21
-59.25
  0
LINE
  8
0
 10
88.5
 20
-59.25
 11
88.5
 21
-64.25
  0
LINE
  8
0
 10
88.5
 20
-64.25
 11
85.5
 21
-64.25
  0
LINE
  8
0
 10
-88.5
 20
-64.25
 11
-88.5
 21
-59.25
  0
LINE
  8
0
 10
-88.5
 20
-59.25
 11
-85.5
 21
-59.25
  0
LINE
  8
0
 10
-85.5
 20
-59.25
 11
-85.5
 21
-64.25
  0
LINE
  8
0
 10
-85.5
 20
-64.25
 11
-88.5
 21
-64.25
  0
LINE
  8
0
 10
-110.5
 20
-64.25
 11
-110.5
 21
-59.25
  0
LINE
  8
0
 10
-110.5
 20
-59.25
 11
-107.5
 21
-59.25
  0
LINE
  8
0
 10
-107.5
 20
-59.25
 11
-107.5
 21
-64.25
  0
LINE
  8
0
 10
-107.5
 20
-64.25
 11
-110.5
 21
-64.25
  0
LINE
  8
0
 10
-173.456
 20
-63.4457
 11
-173.929
 21
-63.3428
  0
LINE
  8
0
 10
-173.929
 20
-63.3428
 11
-174.353
 21
-63.1109
  0
LINE
  8
0
 10
-174.353
 20
-63.1109
 11
-174.695
 21
-62.7688
  0
LINE
  8
0
 10
-174.695
 20
-62.7688
 11
-174.927
 21
-62.3441
  0
LINE
  8
0
 10
-174.927
 20
-62.3441
 11
-175.03
 21
-61.8713
  0
LINE
  8
0
 10
-175.03
 20
-61.8713
 11
-174.996
 21
-61.3886
  0
LINE
  8
0
 10
-174.996
 20
-61.3886
 11
-174.827
 21
-60.9353
  0
LINE
  8
0
 10
-174.827
 20
-60.9353
 11
-174.537
 21
-60.5479
  0
LINE
  8
0
 10
-174.537
 20
-60.5479
 11
-174.149
 21
-60.2579
  0
LINE
  8
0
 10
-174.149
 20
-60.2579
 11
-173.696
 21
-60.0888
  0
LINE
  8
0
 10
-173.696
 20
-60.0888
 11
-173.213
 21
-60.0543
  0
LINE
  8
0
 10
-173.213
 20
-60.0543
 11
-170.385
 21
-60.0543
  0
LINE
  8
0
 10
-170.385
 20
-60.0543
 11
-169.912
 21
-60.1572
  0
LINE
  8
0
 10
-169.912
 20
-60.1572
 11
-169.487
 21
-60.3891
  0
LINE
  8
0
 10
-169.487
 20
-60.3891
 11
-169.145
 21
-60.7312
  0
LINE
  8
0
 10
-169.145
 20
-60.7312
 11
-168.913
 21
-61.1559
  0
LINE
  8
0
 10
-168.913
 20
-61.1559
 11
-168.81
 21
-61.6287
  0
LINE
  8
0
 10
-168.81
 20
-61.6287
 11
-168.845
 21
-62.1114
  0
LINE
  8
0
 10
-168.845
 20
-62.1114
 11
-169.014
 21
-62.5647
  0
LINE
  8
0
 10
-169.014
 20
-62.5647
 11
-169.304
 21
-62.9521
  0
LINE
  8
0
 10
-169.304
 20
-62.9521
 11
-169.691
 21
-63.2421
  0
LINE
  8
0
 10
-169.691
 20
-63.2421
 11
-170.145
 21
-63.4111
  0
LINE
  8
0
 10
-170.145
 20
-63.4111
 11
-170.627
 21
-63.4457
  0
LINE
  8
0
 10
-170.627
 20
-63.4457
 11
-173.456
 21
-63.4457
  0
LINE
  8
0
 10
20.3848
 20
-63.4457
 11
19.912
 21
-63.3428
  0
LINE
  8
0
 10
19.912
 20
-63.3428
 11
19.4873
 21
-63.1109
  0
LINE
  8
0
 10
19.4873
 20
-63.1109
 11
19.1452
 21
-62.7688
  0
LINE
  8
0
 10
19.1452
 20
-62.7688
 11
18.9133
 21
-62.3441
  0
LINE
  8
0
 10
18.9133
 20
-62.3441
 11
18.8104
 21
-61.8713
  0
LINE
  8
0
 10
18.8104
 20
-61.8713
 11
18.8449
 21
-61.3886
  0
LINE
  8
0
 10
18.8449
 20
-61.3886
 11
19.014
 21
-60.9353
  0
LINE
  8
0
 10
19.014
 20
-60.9353
 11
19.304
 21
-60.5479
  0
LINE
  8
0
 10
19.304
 20
-60.5479
 11
19.6914
 21
-60.2579
  0
LINE
  8
0
 10
19.6914
 20
-60.2579
 11
20.1447
 21
-60.0888
  0
LINE
  8
0
 10
20.1447
 20
-60.0888
 11
20.6274
 21
-60.0543
  0
LINE
  8
0
 10
20.6274
 20
-60.0543
 11
23.4558
 21
-60.0543
  0
LINE
  8
0
 10
23.4558
 20
-60.0543
 11
23.9286
 21
-60.1572
  0
LINE
  8
0
 10
23.9286
 20
-60.1572
 11
24.3533
 21
-60.3891
  0
LINE
  8
0
 10
24.3533
 20
-60.3891
 11
24.6954
 21
-60.7312
  0
LINE
  8
0
 10
24.6954
 20
-60.7312
 11
24.9273
 21
-61.1559
  0
LINE
  8
0
 10
24.9273
 20
-61.1559
 11
25.0302
 21
-61.6287
  0
LINE
  8
0
 10
25.0302
 20
-61.6287
 11
24.9957
 21
-62.1114
  0
LINE
  8
0
 10
24.9957
 20
-62.1114
 11
24.8266
 21
-62.5647
  0
LINE
  8
0
 10
24.8266
 20
-62.5647
 11
24.5366
 21
-62.9521
  0
LINE
  8
0
 10
24.5366
 20
-62.9521
 11
24.1492
 21
-63.2421
  0
LINE
  8
0
 10
24.1492
 20
-63.2421
 11
23.6959
 21
-63.4111
  0
LINE
  8
0
 10
23.6959
 20
-63.4111
 11
23.2132
 21
-63.4457
  0
LINE
  8
0
 10
23.2132
 20
-63.4457
 11
20.3848
 21
-63.4457
  0
LINE
  8
0
 10
-129.615
 20
-63.4457
 11
-130.088
 21
-63.3428
  0
LINE
  8
0
 10
-130.088
 20
-63.3428
 11
-130.513
 21
-63.1109
  0
LINE
  8
0
 10
-130.513
 20
-63.1109
 11
-130.855
 21
-62.7688
  0
LINE
  8
0
 10
-130.855
 20
-62.7688
 11
-131.087
 21
-62.3441
  0
LINE
  8
0
 10
-131.087
 20
-62.3441
 11
-131.19
 21
-61.8713
  0
LINE
  8
0
 10
-131.19
 20
-61.8713
 11
-131.155
 21
-61.3886
  0
LINE
  8
0
 10
-131.155
 20
-61.3886
 11
-130.986
 21
-60.9353
  0
LINE
  8
0
 10
-130.986
 20
-60.9353
 11
-130.696
 21
-60.5479
  0
LINE
  8
0
 10
-130.696
 20
-60.5479
 11
-130.309
 21
-60.2579
  0
LINE
  8
0
 10
-130.309
 20
-60.2579
 11
-129.855
 21
-60.0888
  0
LINE
  8
0
 10
-129.855
 20
-60.0888
 11
-129.373
 21
-60.0543
  0
LINE
  8
0
 10
-129.373
 20
-60.0543
 11
-126.544
 21
-60.0543
  0
LINE
  8
0
 10
-126.544
 20
-60.0543
 11
-126.071
 21
-60.1572
  0
LINE
  8
0
 10
-126.071
 20
-60.1572
 11
-125.647
 21
-60.3891
  0
LINE
  8
0
 10
-125.647
 20
-60.3891
 11
-125.305
 21
-60.7312
  0
LINE
  8
0
 10
-125.305
 20
-60.7312
 11
-125.073
 21
-61.1559
  0
LINE
  8
0
 10
-125.073
 20
-61.1559
 11
-124.97
 21
-61.6287
  0
LINE
  8
0
 10
-124.97
 20
-61.6287
 11
-125.004
 21
-62.1114
  0
LINE
  8
0
 10
-125.004
 20
-62.1114
 11
-125.173
 21
-62.5647
  0
LINE
  8
0
 10
-125.173
 20
-62.5647
 11
-125.463
 21
-62.9521
  0
LINE
  8
0
 10
-125.463
 20
-62.9521
 11
-125.851
 21
-63.2421
  0
LINE
  8
0
 10
-125.851
 20
-63.2421
 11
-126.304
 21
-63.4111
  0
LINE
  8
0
 10
-126.304
 20
-63.4111
 11
-126.787
 21
-63.4457
  0
LINE
  8
0
 10
-126.787
 20
-63.4457
 11
-129.615
 21
-63.4457
  0
LINE
  8
0
 10
-23.4558
 20
-63.4457
 11
-23.9286
 21
-63.3428
  0
LINE
  8
0
 10
-23.9286
 20
-63.3428
 11
-24.3533
 21
-63.1109
  0
LINE
  8
0
 10
-24.3533
 20
-63.1109
 11
-24.6954
 21
-62.7688
  0
LINE
  8
0
 10
-24.6954
 20
-62.7688
 11
-24.9273
 21
-62.3441
  0
LINE
  8
0
 10
-24.9273
 20
-62.3441
 11
-25.0302
 21
-61.8713
  0
LINE
  8
0
 10
-25.0302
 20
-61.8713
 11
-24.9957
 21
-61.3886
  0
LINE
  8
0
 10
-24.9957
 20
-61.3886
 11
-24.8266
 21
-60.9353
  0
LINE
  8
0
 10
-24.8266
 20
-60.9353
 11
-24.5366
 21
-60.5479
  0
LINE
  8
0
 10
-24.5366
 20
-60.5479
 11
-24.1492
 21
-60.2579
  0
LINE
  8
0
 10
-24.1492
 20
-60.2579
 11
-23.6959
 21
-60.0888
  0
LINE
  8
0
 10
-23.6959
 20
-60.0888
 11
-23.2132
 21
-60.0543
  0
LINE
  8
0
 10
-23.2132
 20
-60.0543
 11
-20.3848
 21
-60.0543
  0
LINE
  8
0
 10
-20.3848
 20
-60.0543
 11
-19.912
 21
-60.1572
  0
LINE
  8
0
 10
-19.912
 20
-60.1572
 11
-19.4873
 21
-60.3891
  0
LINE
  8
0
 10
-19.4873
 20
-60.3891
 11
-19.1452
 21
-60.7312
  0
LINE
  8
0
 10
-19.1452
 20
-60.7312
 11
-18.9133
 21
-61.1559
  0
LINE
  8
0
 10
-18.9133
 20
-61.1559
 11
-18.8104
 21
-61.6287
  0
LINE
  8
0
 10
-18.8104
 20
-61.6287
 11
-18.8449
 21
-62.1114
  0
LINE
  8
0
 10
-18.8449
 20
-62.1114
 11
-19.014
 21
-62.5647
  0
LINE
  8
0
 10
-19.014
 20
-62.5647
 11
-19.304
 21
-62.9521
  0
LINE
  8
0
 10
-19.304
 20
-62.9521
 11
-19.6914
 21
-63.2421
  0
LINE
  8
0
 10
-19.6914
 20
-63.2421
 11
-20.1447
 21
-63.4111
  0
LINE
  8
0
 10
-20.1447
 20
-63.4111
 11
-20.6274
 21
-63.4457
  0
LINE
  8
0
 10
-20.6274
 20
-63.4457
 11
-23.4558
 21
-63.4457
  0
LINE
  8
0
 10
126.544
 20
-63.4457
 11
126.071
 21
-63.3428
  0
LINE
  8
0
 10
126.071
 20
-63.3428
 11
125.647
 21
-63.1109
  0
LINE
  8
0
 10
125.647
 20
-63.1109
 11
125.305
 21
-62.7688
  0
LINE
  8
0
 10
125.305
 20
-62.7688
 11
125.073
 21
-62.3441
  0
LINE
  8
0
 10
125.073
 20
-62.3441
 11
124.97
 21
-61.8713
  0
LINE
  8
0
 10
124.97
 20
-61.8713
 11
125.004
 21
-61.3886
  0
LINE
  8
0
 10
125.004
 20
-61.3886
 11
125.173
 21
-60.9353
  0
LINE
  8
0
 10
125.173
 20
-60.9353
 11
125.463
 21
-60.5479
  0
LINE
  8
0
 10
125.463
 20
-60.5479
 11
125.851
 21
-60.2579
  0
LINE
  8
0
 10
125.851
 20
-60.2579
 11
126.304
 21
-60.0888
  0
LINE
  8
0
 10
126.304
 20
-60.0888
 11
126.787
 21
-60.0543
  0
LINE
  8
0
 10
126.787
 20
-60.0543
 11
129.615
 21
-60.0543
  0
LINE
  8
0
 10
129.615
 20
-60.0543
 11
130.088
 21
-60.1572
  0
LINE
  8
0
 10
130.088
 20
-60.1572
 11
130.513
 21
-60.3891
  0
LINE
  8
0
 10
130.513
 20
-60.3891
 11
130.855
 21
-60.7312
  0
LINE
  8
0
 10
130.855
 20
-60.7312
 11
131.087
 21
-61.1559
  0
LINE
  8
0
 10
131.087
 20
-61.1559
 11
131.19
 21
-61.6287
  0
LINE
  8
0
 10
131.19
 20
-61.6287
 11
131.155
 21
-62.1114
  0
LINE
  8
0
 10
131.155
 20
-62.1114
 11
130.986
 21
-62.5647
  0
LINE
  8
0
 10
130.986
 20
-62.5647
 11
130.696
 21
-62.9521
  0
LINE
  8
0
 10
130.696
 20
-62.9521
 11
130.309
 21
-63.2421
  0
LINE
  8
0
 10
130.309
 20
-63.2421
 11
129.855
 21
-63.4111
  0
LINE
  8
0
 10
129.855
 20
-63.4111
 11
129.373
 21
-63.4457
  0
LINE
  8
0
 10
129.373
 20
-63.4457
 11
126.544
 21
-63.4457
  0
LINE
  8
0
 10
170.385
 20
-63.4457
 11
169.912
 21
-63.3428
  0
LINE
  8
0
 10
169.912
 20
-63.3428
 11
169.487
 21
-63.1109
  0
LINE
  8
0
 10
169.487
 20
-63.1109
 11
169.145
 21
-62.7688
  0
LINE
  8
0
 10
169.145
 20
-62.7688
 11
168.913
 21
-62.3441
  0
LINE
  8
0
 10
168.913
 20
-62.3441
 11
168.81
 21
-61.8713
  0
LINE
  8
0
 10
168.81
 20
-61.8713
 11
168.845
 21
-61.3886
  0
LINE
  8
0
 10
168.845
 20
-61.3886
 11
169.014
 21
-60.9353
  0
LINE
  8
0
 10
169.014
 20
-60.9353
 11
169.304
 21
-60.5479
  0
LINE
  8
0
 10
169.304
 20
-60.5479
 11
169.691
 21
-60.2579
  0
LINE
  8
0
 10
169.691
 20
-60.2579
 11
170.145
 21
-60.0888
  0
LINE
  8
0
 10
170.145
 20
-60.0888
 11
170.627
 21
-60.0543
  0
LINE
  8
0
 10
170.627
 20
-60.0543
 11
173.456
 21
-60.0543
  0
LINE
  8
0
 10
173.456
 20
-60.0543
 11
173.929
 21
-60.1572
  0
LINE
  8
0
 10
173.929
 20
-60.1572
 11
174.353
 21
-60.3891
  0
LINE
  8
0
 10
174.353
 20
-60.3891
 11
174.695
 21
-60.7312
  0
LINE
  8
0
 10
174.695
 20
-60.7312
 11
174.927
 21
-61.1559
  0
LINE
  8
0
 10
174.927
 20
-61.1559
 11
175.03
 21
-61.6287
  0
LINE
  8
0
 10
175.03
 20
-61.6287
 11
174.996
 21
-62.1114
  0
LINE
  8
0
 10
174.996
 20
-62.1114
 11
174.827
 21
-62.5647
  0
LINE
  8
0
 10
174.827
 20
-62.5647
 11
174.537
 21
-62.9521
  0
LINE
  8
0
 10
174.537
 20
-62.9521
 11
174.149
 21
-63.2421
  0
LINE
  8
0
 10
174.149
 20
-63.2421
 11
173.696
 21
-63.4111
  0
LINE
  8
0
 10
173.696
 20
-63.4111
 11
173.213
 21
-63.4457
  0
LINE
  8
0
 10
173.213
 20
-63.4457
 11
170.385
 21
-63.4457
  0
ENDSEC
  0
SECTION
  2
OBJECTS
  0
DICTIONARY
  0
ENDSEC
  0
EOF
