  0
SECTION
  2
BLOCKS
  0
ENDSEC
  0
SECTION
  2
ENTITIES
  0
LINE
  8
0
 10
-167.613
 20
-59.5348
 11
-167.93
 21
-59.1691
  0
LINE
  8
0
 10
-167.93
 20
-59.1691
 11
-168.131
 21
-58.7289
  0
LINE
  8
0
 10
-168.131
 20
-58.7289
 11
-168.2
 21
-58.25
  0
LINE
  8
0
 10
-168.2
 20
-58.25
 11
-168.131
 21
-57.771
  0
LINE
  8
0
 10
-168.131
 20
-57.771
 11
-167.93
 21
-57.3309
  0
LINE
  8
0
 10
-167.93
 20
-57.3309
 11
-167.613
 21
-56.9652
  0
LINE
  8
0
 10
-167.613
 20
-56.9652
 11
-165.613
 21
-54.9652
  0
LINE
  8
0
 10
-165.613
 20
-54.9652
 11
-165.206
 21
-54.7036
  0
LINE
  8
0
 10
-165.206
 20
-54.7036
 11
-164.742
 21
-54.5673
  0
LINE
  8
0
 10
-164.742
 20
-54.5673
 11
-164.258
 21
-54.5673
  0
LINE
  8
0
 10
-164.258
 20
-54.5673
 11
-163.794
 21
-54.7036
  0
LINE
  8
0
 10
-163.794
 20
-54.7036
 11
-163.387
 21
-54.9652
  0
LINE
  8
0
 10
-163.387
 20
-54.9652
 11
-163.07
 21
-55.3309
  0
LINE
  8
0
 10
-163.07
 20
-55.3309
 11
-162.869
 21
-55.771
  0
LINE
  8
0
 10
-162.869
 20
-55.771
 11
-162.8
 21
-56.25
  0
LINE
  8
0
 10
-162.8
 20
-56.25
 11
-162.869
 21
-56.7289
  0
LINE
  8
0
 10
-162.869
 20
-56.7289
 11
-163.07
 21
-57.1691
  0
LINE
  8
0
 10
-163.07
 20
-57.1691
 11
-163.387
 21
-57.5348
  0
LINE
  8
0
 10
-163.387
 20
-57.5348
 11
-165.387
 21
-59.5348
  0
LINE
  8
0
 10
-165.387
 20
-59.5348
 11
-165.722
 21
-59.75
  0
LINE
  8
0
 10
-165.722
 20
-59.75
 11
-134.266
 21
-59.75
  0
LINE
  8
0
 10
-134.266
 20
-59.75
 11
-134.419
 21
-59.6801
  0
LINE
  8
0
 10
-134.419
 20
-59.6801
 11
-134.785
 21
-59.3633
  0
LINE
  8
0
 10
-134.785
 20
-59.3633
 11
-136.785
 21
-57.3633
  0
LINE
  8
0
 10
-136.785
 20
-57.3633
 11
-137.046
 21
-56.9562
  0
LINE
  8
0
 10
-137.046
 20
-56.9562
 11
-137.183
 21
-56.4919
  0
LINE
  8
0
 10
-137.183
 20
-56.4919
 11
-137.183
 21
-56.0081
  0
LINE
  8
0
 10
-137.183
 20
-56.0081
 11
-137.046
 21
-55.5438
  0
LINE
  8
0
 10
-137.046
 20
-55.5438
 11
-136.785
 21
-55.1367
  0
LINE
  8
0
 10
-136.785
 20
-55.1367
 11
-136.419
 21
-54.8199
  0
LINE
  8
0
 10
-136.419
 20
-54.8199
 11
-135.979
 21
-54.6189
  0
LINE
  8
0
 10
-135.979
 20
-54.6189
 11
-135.5
 21
-54.55
  0
LINE
  8
0
 10
-135.5
 20
-54.55
 11
-135.021
 21
-54.6189
  0
LINE
  8
0
 10
-135.021
 20
-54.6189
 11
-134.581
 21
-54.8199
  0
LINE
  8
0
 10
-134.581
 20
-54.8199
 11
-134.215
 21
-55.1367
  0
LINE
  8
0
 10
-134.215
 20
-55.1367
 11
-132.215
 21
-57.1367
  0
LINE
  8
0
 10
-132.215
 20
-57.1367
 11
-131.954
 21
-57.5438
  0
LINE
  8
0
 10
-131.954
 20
-57.5438
 11
-131.817
 21
-58.0081
  0
LINE
  8
0
 10
-131.817
 20
-58.0081
 11
-131.817
 21
-58.4919
  0
LINE
  8
0
 10
-131.817
 20
-58.4919
 11
-131.954
 21
-58.9562
  0
LINE
  8
0
 10
-131.954
 20
-58.9562
 11
-132.215
 21
-59.3633
  0
LINE
  8
0
 10
-132.215
 20
-59.3633
 11
-132.581
 21
-59.6801
  0
LINE
  8
0
 10
-132.581
 20
-59.6801
 11
-132.734
 21
-59.75
  0
LINE
  8
0
 10
-132.734
 20
-59.75
 11
-122.509
 21
-59.75
  0
LINE
  8
0
 10
-122.509
 20
-59.75
 11
-113.983
 21
-51.2232
  0
LINE
  8
0
 10
-113.983
 20
-51.2232
 11
-105.456
 21
-59.75
  0
LINE
  8
0
 10
-105.456
 20
-59.75
 11
-90.5442
 21
-59.75
  0
LINE
  8
0
 10
-90.5442
 20
-59.75
 11
-81.0442
 21
-50.25
  0
LINE
  8
0
 10
-81.0442
 20
-50.25
 11
-36.9905
 21
-50.25
  0
LINE
  8
0
 10
-36.9905
 20
-50.25
 11
-27.4905
 21
-59.75
  0
LINE
  8
0
 10
-27.4905
 20
-59.75
 11
-17.2784
 21
-59.75
  0
LINE
  8
0
 10
-17.2784
 20
-59.75
 11
-17.6133
 21
-59.5348
  0
LINE
  8
0
 10
-17.6133
 20
-59.5348
 11
-17.9301
 21
-59.1691
  0
LINE
  8
0
 10
-17.9301
 20
-59.1691
 11
-18.1311
 21
-58.7289
  0
LINE
  8
0
 10
-18.1311
 20
-58.7289
 11
-18.2
 21
-58.25
  0
LINE
  8
0
 10
-18.2
 20
-58.25
 11
-18.1311
 21
-57.771
  0
LINE
  8
0
 10
-18.1311
 20
-57.771
 11
-17.9301
 21
-57.3309
  0
LINE
  8
0
 10
-17.9301
 20
-57.3309
 11
-17.6133
 21
-56.9652
  0
LINE
  8
0
 10
-17.6133
 20
-56.9652
 11
-15.6133
 21
-54.9652
  0
LINE
  8
0
 10
-15.6133
 20
-54.9652
 11
-15.2062
 21
-54.7036
  0
LINE
  8
0
 10
-15.2062
 20
-54.7036
 11
-14.7419
 21
-54.5673
  0
LINE
  8
0
 10
-14.7419
 20
-54.5673
 11
-14.2581
 21
-54.5673
  0
LINE
  8
0
 10
-14.2581
 20
-54.5673
 11
-13.7938
 21
-54.7036
  0
LINE
  8
0
 10
-13.7938
 20
-54.7036
 11
-13.3867
 21
-54.9652
  0
LINE
  8
0
 10
-13.3867
 20
-54.9652
 11
-13.0699
 21
-55.3309
  0
LINE
  8
0
 10
-13.0699
 20
-55.3309
 11
-12.8689
 21
-55.771
  0
LINE
  8
0
 10
-12.8689
 20
-55.771
 11
-12.8
 21
-56.25
  0
LINE
  8
0
 10
-12.8
 20
-56.25
 11
-12.8689
 21
-56.7289
  0
LINE
  8
0
 10
-12.8689
 20
-56.7289
 11
-13.0699
 21
-57.1691
  0
LINE
  8
0
 10
-13.0699
 20
-57.1691
 11
-13.3867
 21
-57.5348
  0
LINE
  8
0
 10
-13.3867
 20
-57.5348
 11
-15.3867
 21
-59.5348
  0
LINE
  8
0
 10
-15.3867
 20
-59.5348
 11
-15.7216
 21
-59.75
  0
LINE
  8
0
 10
-15.7216
 20
-59.75
 11
15.7339
 21
-59.75
  0
LINE
  8
0
 10
15.7339
 20
-59.75
 11
15.5809
 21
-59.6801
  0
LINE
  8
0
 10
15.5809
 20
-59.6801
 11
15.2152
 21
-59.3633
  0
LINE
  8
0
 10
15.2152
 20
-59.3633
 11
13.2152
 21
-57.3633
  0
LINE
  8
0
 10
13.2152
 20
-57.3633
 11
12.9536
 21
-56.9562
  0
LINE
  8
0
 10
12.9536
 20
-56.9562
 11
12.8173
 21
-56.4919
  0
LINE
  8
0
 10
12.8173
 20
-56.4919
 11
12.8173
 21
-56.0081
  0
LINE
  8
0
 10
12.8173
 20
-56.0081
 11
12.9536
 21
-55.5438
  0
LINE
  8
0
 10
12.9536
 20
-55.5438
 11
13.2152
 21
-55.1367
  0
LINE
  8
0
 10
13.2152
 20
-55.1367
 11
13.5809
 21
-54.8199
  0
LINE
  8
0
 10
13.5809
 20
-54.8199
 11
14.021
 21
-54.6189
  0
LINE
  8
0
 10
14.021
 20
-54.6189
 11
14.5
 21
-54.55
  0
LINE
  8
0
 10
14.5
 20
-54.55
 11
14.9789
 21
-54.6189
  0
LINE
  8
0
 10
14.9789
 20
-54.6189
 11
15.4191
 21
-54.8199
  0
LINE
  8
0
 10
15.4191
 20
-54.8199
 11
15.7848
 21
-55.1367
  0
LINE
  8
0
 10
15.7848
 20
-55.1367
 11
17.7848
 21
-57.1367
  0
LINE
  8
0
 10
17.7848
 20
-57.1367
 11
18.0464
 21
-57.5438
  0
LINE
  8
0
 10
18.0464
 20
-57.5438
 11
18.1827
 21
-58.0081
  0
LINE
  8
0
 10
18.1827
 20
-58.0081
 11
18.1827
 21
-58.4919
  0
LINE
  8
0
 10
18.1827
 20
-58.4919
 11
18.0464
 21
-58.9562
  0
LINE
  8
0
 10
18.0464
 20
-58.9562
 11
17.7848
 21
-59.3633
  0
LINE
  8
0
 10
17.7848
 20
-59.3633
 11
17.4191
 21
-59.6801
  0
LINE
  8
0
 10
17.4191
 20
-59.6801
 11
17.2661
 21
-59.75
  0
LINE
  8
0
 10
17.2661
 20
-59.75
 11
27.4905
 21
-59.75
  0
LINE
  8
0
 10
27.4905
 20
-59.75
 11
36.9905
 21
-50.25
  0
LINE
  8
0
 10
36.9905
 20
-50.25
 11
81.0442
 21
-50.25
  0
LINE
  8
0
 10
81.0442
 20
-50.25
 11
90.5442
 21
-59.75
  0
LINE
  8
0
 10
90.5442
 20
-59.75
 11
105.456
 21
-59.75
  0
LINE
  8
0
 10
105.456
 20
-59.75
 11
113.983
 21
-51.2232
  0
LINE
  8
0
 10
113.983
 20
-51.2232
 11
122.509
 21
-59.75
  0
LINE
  8
0
 10
122.509
 20
-59.75
 11
132.722
 21
-59.75
  0
LINE
  8
0
 10
132.722
 20
-59.75
 11
132.387
 21
-59.5348
  0
LINE
  8
0
 10
132.387
 20
-59.5348
 11
132.07
 21
-59.1691
  0
LINE
  8
0
 10
132.07
 20
-59.1691
 11
131.869
 21
-58.7289
  0
LINE
  8
0
 10
131.869
 20
-58.7289
 11
131.8
 21
-58.25
  0
LINE
  8
0
 10
131.8
 20
-58.25
 11
131.869
 21
-57.771
  0
LINE
  8
0
 10
131.869
 20
-57.771
 11
132.07
 21
-57.3309
  0
LINE
  8
0
 10
132.07
 20
-57.3309
 11
132.387
 21
-56.9652
  0
LINE
  8
0
 10
132.387
 20
-56.9652
 11
134.387
 21
-54.9652
  0
LINE
  8
0
 10
134.387
 20
-54.9652
 11
134.794
 21
-54.7036
  0
LINE
  8
0
 10
134.794
 20
-54.7036
 11
135.258
 21
-54.5673
  0
LINE
  8
0
 10
135.258
 20
-54.5673
 11
135.742
 21
-54.5673
  0
LINE
  8
0
 10
135.742
 20
-54.5673
 11
136.206
 21
-54.7036
  0
LINE
  8
0
 10
136.206
 20
-54.7036
 11
136.613
 21
-54.9652
  0
LINE
  8
0
 10
136.613
 20
-54.9652
 11
136.93
 21
-55.3309
  0
LINE
  8
0
 10
136.93
 20
-55.3309
 11
137.131
 21
-55.771
  0
LINE
  8
0
 10
137.131
 20
-55.771
 11
137.2
 21
-56.25
  0
LINE
  8
0
 10
137.2
 20
-56.25
 11
137.131
 21
-56.7289
  0
LINE
  8
0
 10
137.131
 20
-56.7289
 11
136.93
 21
-57.1691
  0
LINE
  8
0
 10
136.93
 20
-57.1691
 11
136.613
 21
-57.5348
  0
LINE
  8
0
 10
136.613
 20
-57.5348
 11
134.613
 21
-59.5348
  0
LINE
  8
0
 10
134.613
 20
-59.5348
 11
134.278
 21
-59.75
  0
LINE
  8
0
 10
134.278
 20
-59.75
 11
165.734
 21
-59.75
  0
LINE
  8
0
 10
165.734
 20
-59.75
 11
165.581
 21
-59.6801
  0
LINE
  8
0
 10
165.581
 20
-59.6801
 11
165.215
 21
-59.3633
  0
LINE
  8
0
 10
165.215
 20
-59.3633
 11
163.215
 21
-57.3633
  0
LINE
  8
0
 10
163.215
 20
-57.3633
 11
162.954
 21
-56.9562
  0
LINE
  8
0
 10
162.954
 20
-56.9562
 11
162.817
 21
-56.4919
  0
LINE
  8
0
 10
162.817
 20
-56.4919
 11
162.817
 21
-56.0081
  0
LINE
  8
0
 10
162.817
 20
-56.0081
 11
162.954
 21
-55.5438
  0
LINE
  8
0
 10
162.954
 20
-55.5438
 11
163.215
 21
-55.1367
  0
LINE
  8
0
 10
163.215
 20
-55.1367
 11
163.581
 21
-54.8199
  0
LINE
  8
0
 10
163.581
 20
-54.8199
 11
164.021
 21
-54.6189
  0
LINE
  8
0
 10
164.021
 20
-54.6189
 11
164.5
 21
-54.55
  0
LINE
  8
0
 10
164.5
 20
-54.55
 11
164.979
 21
-54.6189
  0
LINE
  8
0
 10
164.979
 20
-54.6189
 11
165.419
 21
-54.8199
  0
LINE
  8
0
 10
165.419
 20
-54.8199
 11
165.785
 21
-55.1367
  0
LINE
  8
0
 10
165.785
 20
-55.1367
 11
167.785
 21
-57.1367
  0
LINE
  8
0
 10
167.785
 20
-57.1367
 11
168.046
 21
-57.5438
  0
LINE
  8
0
 10
168.046
 20
-57.5438
 11
168.183
 21
-58.0081
  0
LINE
  8
0
 10
168.183
 20
-58.0081
 11
168.183
 21
-58.4919
  0
LINE
  8
0
 10
168.183
 20
-58.4919
 11
168.046
 21
-58.9562
  0
LINE
  8
0
 10
168.046
 20
-58.9562
 11
167.785
 21
-59.3633
  0
LINE
  8
0
 10
167.785
 20
-59.3633
 11
167.419
 21
-59.6801
  0
LINE
  8
0
 10
167.419
 20
-59.6801
 11
167.266
 21
-59.75
  0
LINE
  8
0
 10
167.266
 20
-59.75
 11
177.491
 21
-59.75
  0
LINE
  8
0
 10
177.491
 20
-59.75
 11
186.991
 21
-50.25
  0
LINE
  8
0
 10
186.991
 20
-50.25
 11
245
 21
-50.25
  0
LINE
  8
0
 10
245
 20
-50.25
 11
245
 21
6.11032
  0
LINE
  8
0
 10
245
 20
6.11032
 11
245.046
 21
6.2321
  0
LINE
  8
0
 10
245.046
 20
6.2321
 11
245.174
 21
6.70876
  0
LINE
  8
0
 10
245.174
 20
6.70876
 11
245.253
 21
7.19577
  0
LINE
  8
0
 10
245.253
 20
7.19577
 11
245.284
 21
7.68828
  0
LINE
  8
0
 10
245.284
 20
7.68828
 11
245.266
 21
8.18141
  0
LINE
  8
0
 10
245.266
 20
8.18141
 11
245.198
 21
8.67026
  0
LINE
  8
0
 10
245.198
 20
8.67026
 11
245.082
 21
9.14995
  0
LINE
  8
0
 10
245.082
 20
9.14995
 11
245
 21
9.38551
  0
LINE
  8
0
 10
245
 20
9.38551
 11
245
 21
9.75
  0
LINE
  8
0
 10
245
 20
9.75
 11
244.857
 21
9.75
  0
LINE
  8
0
 10
244.857
 20
9.75
 11
244.711
 21
10.063
  0
LINE
  8
0
 10
244.711
 20
10.063
 11
244.459
 21
10.4872
  0
LINE
  8
0
 10
244.459
 20
10.4872
 11
244.166
 21
10.8843
  0
LINE
  8
0
 10
244.166
 20
10.8843
 11
243.835
 21
11.2502
  0
LINE
  8
0
 10
243.835
 20
11.2502
 11
220.586
 21
34.4964
  0
LINE
  8
0
 10
220.586
 20
34.4964
 11
220.229
 21
34.8365
  0
LINE
  8
0
 10
220.229
 20
34.8365
 11
219.839
 21
35.1393
  0
LINE
  8
0
 10
219.839
 20
35.1393
 11
219.421
 21
35.4019
  0
LINE
  8
0
 10
219.421
 20
35.4019
 11
218.979
 21
35.6215
  0
LINE
  8
0
 10
218.979
 20
35.6215
 11
218.518
 21
35.7961
  0
LINE
  8
0
 10
218.518
 20
35.7961
 11
218.041
 21
35.9238
  0
LINE
  8
0
 10
218.041
 20
35.9238
 11
217.554
 21
36.0034
  0
LINE
  8
0
 10
217.554
 20
36.0034
 11
217.062
 21
36.0341
  0
LINE
  8
0
 10
217.062
 20
36.0341
 11
216.569
 21
36.0157
  0
LINE
  8
0
 10
216.569
 20
36.0157
 11
216.08
 21
35.9482
  0
LINE
  8
0
 10
216.08
 20
35.9482
 11
215.6
 21
35.8324
  0
LINE
  8
0
 10
215.6
 20
35.8324
 11
215.134
 21
35.6694
  0
LINE
  8
0
 10
215.134
 20
35.6694
 11
214.687
 21
35.4609
  0
LINE
  8
0
 10
214.687
 20
35.4609
 11
214.263
 21
35.2088
  0
LINE
  8
0
 10
214.263
 20
35.2088
 11
213.866
 21
34.9158
  0
LINE
  8
0
 10
213.866
 20
34.9158
 11
213.5
 21
34.5847
  0
LINE
  8
0
 10
213.5
 20
34.5847
 11
190.254
 21
11.3363
  0
LINE
  8
0
 10
190.254
 20
11.3363
 11
189.914
 21
10.9788
  0
LINE
  8
0
 10
189.914
 20
10.9788
 11
189.611
 21
10.5892
  0
LINE
  8
0
 10
189.611
 20
10.5892
 11
189.348
 21
10.1714
  0
LINE
  8
0
 10
189.348
 20
10.1714
 11
189.139
 21
9.75
  0
LINE
  8
0
 10
189.139
 20
9.75
 11
-189.139
 21
9.75
  0
LINE
  8
0
 10
-189.139
 20
9.75
 11
-189.348
 21
10.1714
  0
LINE
  8
0
 10
-189.348
 20
10.1714
 11
-189.611
 21
10.5892
  0
LINE
  8
0
 10
-189.611
 20
10.5892
 11
-189.914
 21
10.9788
  0
LINE
  8
0
 10
-189.914
 20
10.9788
 11
-190.254
 21
11.3363
  0
LINE
  8
0
 10
-190.254
 20
11.3363
 11
-213.5
 21
34.5847
  0
LINE
  8
0
 10
-213.5
 20
34.5847
 11
-213.866
 21
34.9158
  0
LINE
  8
0
 10
-213.866
 20
34.9158
 11
-214.263
 21
35.2088
  0
LINE
  8
0
 10
-214.263
 20
35.2088
 11
-214.687
 21
35.4609
  0
LINE
  8
0
 10
-214.687
 20
35.4609
 11
-215.134
 21
35.6694
  0
LINE
  8
0
 10
-215.134
 20
35.6694
 11
-215.6
 21
35.8324
  0
LINE
  8
0
 10
-215.6
 20
35.8324
 11
-216.08
 21
35.9482
  0
LINE
  8
0
 10
-216.08
 20
35.9482
 11
-216.569
 21
36.0157
  0
LINE
  8
0
 10
-216.569
 20
36.0157
 11
-217.062
 21
36.0341
  0
LINE
  8
0
 10
-217.062
 20
36.0341
 11
-217.554
 21
36.0034
  0
LINE
  8
0
 10
-217.554
 20
36.0034
 11
-218.041
 21
35.9238
  0
LINE
  8
0
 10
-218.041
 20
35.9238
 11
-218.518
 21
35.7961
  0
LINE
  8
0
 10
-218.518
 20
35.7961
 11
-218.979
 21
35.6215
  0
LINE
  8
0
 10
-218.979
 20
35.6215
 11
-219.421
 21
35.4019
  0
LINE
  8
0
 10
-219.421
 20
35.4019
 11
-219.839
 21
35.1393
  0
LINE
  8
0
 10
-219.839
 20
35.1393
 11
-220.229
 21
34.8365
  0
LINE
  8
0
 10
-220.229
 20
34.8365
 11
-220.586
 21
34.4964
  0
LINE
  8
0
 10
-220.586
 20
34.4964
 11
-243.835
 21
11.2502
  0
LINE
  8
0
 10
-243.835
 20
11.2502
 11
-244.166
 21
10.8843
  0
LINE
  8
0
 10
-244.166
 20
10.8843
 11
-244.459
 21
10.4872
  0
LINE
  8
0
 10
-244.459
 20
10.4872
 11
-244.711
 21
10.063
  0
LINE
  8
0
 10
-244.711
 20
10.063
 11
-244.857
 21
9.75
  0
LINE
  8
0
 10
-244.857
 20
9.75
 11
-245
 21
9.75
  0
LINE
  8
0
 10
-245
 20
9.75
 11
-245
 21
9.38551
  0
LINE
  8
0
 10
-245
 20
9.38551
 11
-245.082
 21
9.14995
  0
LINE
  8
0
 10
-245.082
 20
9.14995
 11
-245.198
 21
8.67026
  0
LINE
  8
0
 10
-245.198
 20
8.67026
 11
-245.266
 21
8.18141
  0
LINE
  8
0
 10
-245.266
 20
8.18141
 11
-245.284
 21
7.68828
  0
LINE
  8
0
 10
-245.284
 20
7.68828
 11
-245.253
 21
7.19577
  0
LINE
  8
0
 10
-245.253
 20
7.19577
 11
-245.174
 21
6.70876
  0
LINE
  8
0
 10
-245.174
 20
6.70876
 11
-245.046
 21
6.2321
  0
LINE
  8
0
 10
-245.046
 20
6.2321
 11
-245
 21
6.11032
  0
LINE
  8
0
 10
-245
 20
6.11032
 11
-245
 21
-50.25
  0
LINE
  8
0
 10
-245
 20
-50.25
 11
-186.991
 21
-50.25
  0
LINE
  8
0
 10
-186.991
 20
-50.25
 11
-177.491
 21
-59.75
  0
LINE
  8
0
 10
-177.491
 20
-59.75
 11
-167.278
 21
-59.75
  0
LINE
  8
0
 10
-167.278
 20
-59.75
 11
-167.613
 21
-59.5348
  0
LINE
  8
0
 10
-217.361
 20
26.5949
 11
-217.815
 21
26.764
  0
LINE
  8
0
 10
-217.815
 20
26.764
 11
-218.202
 21
27.054
  0
LINE
  8
0
 10
-218.202
 20
27.054
 11
-218.492
 21
27.4414
  0
LINE
  8
0
 10
-218.492
 20
27.4414
 11
-218.661
 21
27.8947
  0
LINE
  8
0
 10
-218.661
 20
27.8947
 11
-218.696
 21
28.3774
  0
LINE
  8
0
 10
-218.696
 20
28.3774
 11
-218.696
 21
31.2058
  0
LINE
  8
0
 10
-218.696
 20
31.2058
 11
-218.593
 21
31.6786
  0
LINE
  8
0
 10
-218.593
 20
31.6786
 11
-218.361
 21
32.1033
  0
LINE
  8
0
 10
-218.361
 20
32.1033
 11
-218.019
 21
32.4454
  0
LINE
  8
0
 10
-218.019
 20
32.4454
 11
-217.594
 21
32.6773
  0
LINE
  8
0
 10
-217.594
 20
32.6773
 11
-217.121
 21
32.7802
  0
LINE
  8
0
 10
-217.121
 20
32.7802
 11
-216.639
 21
32.7457
  0
LINE
  8
0
 10
-216.639
 20
32.7457
 11
-216.185
 21
32.5766
  0
LINE
  8
0
 10
-216.185
 20
32.5766
 11
-215.798
 21
32.2866
  0
LINE
  8
0
 10
-215.798
 20
32.2866
 11
-215.508
 21
31.8992
  0
LINE
  8
0
 10
-215.508
 20
31.8992
 11
-215.339
 21
31.4459
  0
LINE
  8
0
 10
-215.339
 20
31.4459
 11
-215.304
 21
30.9632
  0
LINE
  8
0
 10
-215.304
 20
30.9632
 11
-215.304
 21
28.1348
  0
LINE
  8
0
 10
-215.304
 20
28.1348
 11
-215.407
 21
27.662
  0
LINE
  8
0
 10
-215.407
 20
27.662
 11
-215.639
 21
27.2373
  0
LINE
  8
0
 10
-215.639
 20
27.2373
 11
-215.981
 21
26.8952
  0
LINE
  8
0
 10
-215.981
 20
26.8952
 11
-216.406
 21
26.6633
  0
LINE
  8
0
 10
-216.406
 20
26.6633
 11
-216.879
 21
26.5604
  0
LINE
  8
0
 10
-216.879
 20
26.5604
 11
-217.361
 21
26.5949
  0
LINE
  8
0
 10
216.406
 20
26.6633
 11
215.981
 21
26.8952
  0
LINE
  8
0
 10
215.981
 20
26.8952
 11
215.639
 21
27.2373
  0
LINE
  8
0
 10
215.639
 20
27.2373
 11
215.407
 21
27.662
  0
LINE
  8
0
 10
215.407
 20
27.662
 11
215.304
 21
28.1348
  0
LINE
  8
0
 10
215.304
 20
28.1348
 11
215.304
 21
30.9632
  0
LINE
  8
0
 10
215.304
 20
30.9632
 11
215.339
 21
31.4459
  0
LINE
  8
0
 10
215.339
 20
31.4459
 11
215.508
 21
31.8992
  0
LINE
  8
0
 10
215.508
 20
31.8992
 11
215.798
 21
32.2866
  0
LINE
  8
0
 10
215.798
 20
32.2866
 11
216.185
 21
32.5766
  0
LINE
  8
0
 10
216.185
 20
32.5766
 11
216.639
 21
32.7457
  0
LINE
  8
0
 10
216.639
 20
32.7457
 11
217.121
 21
32.7802
  0
LINE
  8
0
 10
217.121
 20
32.7802
 11
217.594
 21
32.6773
  0
LINE
  8
0
 10
217.594
 20
32.6773
 11
218.019
 21
32.4454
  0
LINE
  8
0
 10
218.019
 20
32.4454
 11
218.361
 21
32.1033
  0
LINE
  8
0
 10
218.361
 20
32.1033
 11
218.593
 21
31.6786
  0
LINE
  8
0
 10
218.593
 20
31.6786
 11
218.696
 21
31.2058
  0
LINE
  8
0
 10
218.696
 20
31.2058
 11
218.696
 21
28.3774
  0
LINE
  8
0
 10
218.696
 20
28.3774
 11
218.661
 21
27.8947
  0
LINE
  8
0
 10
218.661
 20
27.8947
 11
218.492
 21
27.4414
  0
LINE
  8
0
 10
218.492
 20
27.4414
 11
218.202
 21
27.054
  0
LINE
  8
0
 10
218.202
 20
27.054
 11
217.815
 21
26.764
  0
LINE
  8
0
 10
217.815
 20
26.764
 11
217.361
 21
26.5949
  0
LINE
  8
0
 10
217.361
 20
26.5949
 11
216.879
 21
26.5604
  0
LINE
  8
0
 10
216.879
 20
26.5604
 11
216.406
 21
26.6633
  0
LINE
  8
0
 10
216.379
 20
-4.73456
 11
215.883
 21
-4.69998
  0
LINE
  8
0
 10
215.883
 20
-4.69998
 11
215.389
 21
-4.64574
  0
LINE
  8
0
 10
215.389
 20
-4.64574
 11
214.897
 21
-4.57188
  0
LINE
  8
0
 10
214.897
 20
-4.57188
 11
214.409
 21
-4.47856
  0
LINE
  8
0
 10
214.409
 20
-4.47856
 11
213.925
 21
-4.36589
  0
LINE
  8
0
 10
213.925
 20
-4.36589
 11
213.446
 21
-4.23405
  0
LINE
  8
0
 10
213.446
 20
-4.23405
 11
212.972
 21
-4.08328
  0
LINE
  8
0
 10
212.972
 20
-4.08328
 11
212.505
 21
-3.9138
  0
LINE
  8
0
 10
212.505
 20
-3.9138
 11
212.045
 21
-3.72588
  0
LINE
  8
0
 10
212.045
 20
-3.72588
 11
211.592
 21
-3.51979
  0
LINE
  8
0
 10
211.592
 20
-3.51979
 11
211.149
 21
-3.2959
  0
LINE
  8
0
 10
211.149
 20
-3.2959
 11
210.714
 21
-3.05453
  0
LINE
  8
0
 10
210.714
 20
-3.05453
 11
210.29
 21
-2.7961
  0
LINE
  8
0
 10
210.29
 20
-2.7961
 11
209.876
 21
-2.52097
  0
LINE
  8
0
 10
209.876
 20
-2.52097
 11
209.473
 21
-2.22961
  0
LINE
  8
0
 10
209.473
 20
-2.22961
 11
209.082
 21
-1.92247
  0
LINE
  8
0
 10
209.082
 20
-1.92247
 11
208.704
 21
-1.60004
  0
LINE
  8
0
 10
208.704
 20
-1.60004
 11
208.339
 21
-1.26282
  0
LINE
  8
0
 10
208.339
 20
-1.26282
 11
207.987
 21
-0.911346
  0
LINE
  8
0
 10
207.987
 20
-0.911346
 11
207.65
 21
-0.546173
  0
LINE
  8
0
 10
207.65
 20
-0.546173
 11
207.328
 21
-0.167892
  0
LINE
  8
0
 10
207.328
 20
-0.167892
 11
207.02
 21
0.2229
  0
LINE
  8
0
 10
207.02
 20
0.2229
 11
206.729
 21
0.625595
  0
LINE
  8
0
 10
206.729
 20
0.625595
 11
206.454
 21
1.03957
  0
LINE
  8
0
 10
206.454
 20
1.03957
 11
206.195
 21
1.46416
  0
LINE
  8
0
 10
206.195
 20
1.46416
 11
205.954
 21
1.89867
  0
LINE
  8
0
 10
205.954
 20
1.89867
 11
205.73
 21
2.34245
  0
LINE
  8
0
 10
205.73
 20
2.34245
 11
205.524
 21
2.79477
  0
LINE
  8
0
 10
205.524
 20
2.79477
 11
205.336
 21
3.25493
  0
LINE
  8
0
 10
205.336
 20
3.25493
 11
205.167
 21
3.7222
  0
LINE
  8
0
 10
205.167
 20
3.7222
 11
205.016
 21
4.19583
  0
LINE
  8
0
 10
205.016
 20
4.19583
 11
204.884
 21
4.67508
  0
LINE
  8
0
 10
204.884
 20
4.67508
 11
204.771
 21
5.15919
  0
LINE
  8
0
 10
204.771
 20
5.15919
 11
204.678
 21
5.64742
  0
LINE
  8
0
 10
204.678
 20
5.64742
 11
204.604
 21
6.13895
  0
LINE
  8
0
 10
204.604
 20
6.13895
 11
204.55
 21
6.63304
  0
LINE
  8
0
 10
204.55
 20
6.63304
 11
204.515
 21
7.12889
  0
LINE
  8
0
 10
204.515
 20
7.12889
 11
204.501
 21
7.62572
  0
LINE
  8
0
 10
204.501
 20
7.62572
 11
204.506
 21
8.12276
  0
LINE
  8
0
 10
204.506
 20
8.12276
 11
204.53
 21
8.61919
  0
LINE
  8
0
 10
204.53
 20
8.61919
 11
204.575
 21
9.11426
  0
LINE
  8
0
 10
204.575
 20
9.11426
 11
204.639
 21
9.60716
  0
LINE
  8
0
 10
204.639
 20
9.60716
 11
204.722
 21
10.0971
  0
LINE
  8
0
 10
204.722
 20
10.0971
 11
204.825
 21
10.5834
  0
LINE
  8
0
 10
204.825
 20
10.5834
 11
204.948
 21
11.0652
  0
LINE
  8
0
 10
204.948
 20
11.0652
 11
205.089
 21
11.5417
  0
LINE
  8
0
 10
205.089
 20
11.5417
 11
205.249
 21
12.0123
  0
LINE
  8
0
 10
205.249
 20
12.0123
 11
205.428
 21
12.4761
  0
LINE
  8
0
 10
205.428
 20
12.4761
 11
205.625
 21
12.9324
  0
LINE
  8
0
 10
205.625
 20
12.9324
 11
205.84
 21
13.3805
  0
LINE
  8
0
 10
205.84
 20
13.3805
 11
206.073
 21
13.8198
  0
LINE
  8
0
 10
206.073
 20
13.8198
 11
206.323
 21
14.2494
  0
LINE
  8
0
 10
206.323
 20
14.2494
 11
206.589
 21
14.6688
  0
LINE
  8
0
 10
206.589
 20
14.6688
 11
206.873
 21
15.0772
  0
LINE
  8
0
 10
206.873
 20
15.0772
 11
207.172
 21
15.474
  0
LINE
  8
0
 10
207.172
 20
15.474
 11
207.487
 21
15.8586
  0
LINE
  8
0
 10
207.487
 20
15.8586
 11
207.817
 21
16.2304
  0
LINE
  8
0
 10
207.817
 20
16.2304
 11
208.161
 21
16.5888
  0
LINE
  8
0
 10
208.161
 20
16.5888
 11
208.52
 21
16.9332
  0
LINE
  8
0
 10
208.52
 20
16.9332
 11
208.891
 21
17.2631
  0
LINE
  8
0
 10
208.891
 20
17.2631
 11
209.276
 21
17.578
  0
LINE
  8
0
 10
209.276
 20
17.578
 11
209.673
 21
17.8773
  0
LINE
  8
0
 10
209.673
 20
17.8773
 11
210.081
 21
18.1606
  0
LINE
  8
0
 10
210.081
 20
18.1606
 11
210.501
 21
18.4274
  0
LINE
  8
0
 10
210.501
 20
18.4274
 11
210.93
 21
18.6774
  0
LINE
  8
0
 10
210.93
 20
18.6774
 11
211.369
 21
18.91
  0
LINE
  8
0
 10
211.369
 20
18.91
 11
211.818
 21
19.1251
  0
LINE
  8
0
 10
211.818
 20
19.1251
 11
212.274
 21
19.3221
  0
LINE
  8
0
 10
212.274
 20
19.3221
 11
212.738
 21
19.5009
  0
LINE
  8
0
 10
212.738
 20
19.5009
 11
213.208
 21
19.661
  0
LINE
  8
0
 10
213.208
 20
19.661
 11
213.685
 21
19.8024
  0
LINE
  8
0
 10
213.685
 20
19.8024
 11
214.167
 21
19.9246
  0
LINE
  8
0
 10
214.167
 20
19.9246
 11
214.653
 21
20.0276
  0
LINE
  8
0
 10
214.653
 20
20.0276
 11
215.143
 21
20.1113
  0
LINE
  8
0
 10
215.143
 20
20.1113
 11
215.636
 21
20.1753
  0
LINE
  8
0
 10
215.636
 20
20.1753
 11
216.131
 21
20.2197
  0
LINE
  8
0
 10
216.131
 20
20.2197
 11
216.627
 21
20.2444
  0
LINE
  8
0
 10
216.627
 20
20.2444
 11
217.124
 21
20.2494
  0
LINE
  8
0
 10
217.124
 20
20.2494
 11
217.621
 21
20.2346
  0
LINE
  8
0
 10
217.621
 20
20.2346
 11
218.117
 21
20.2
  0
LINE
  8
0
 10
218.117
 20
20.2
 11
218.611
 21
20.1457
  0
LINE
  8
0
 10
218.611
 20
20.1457
 11
219.103
 21
20.0719
  0
LINE
  8
0
 10
219.103
 20
20.0719
 11
219.591
 21
19.9786
  0
LINE
  8
0
 10
219.591
 20
19.9786
 11
220.075
 21
19.8659
  0
LINE
  8
0
 10
220.075
 20
19.8659
 11
220.554
 21
19.7341
  0
LINE
  8
0
 10
220.554
 20
19.7341
 11
221.028
 21
19.5833
  0
LINE
  8
0
 10
221.028
 20
19.5833
 11
221.495
 21
19.4138
  0
LINE
  8
0
 10
221.495
 20
19.4138
 11
221.955
 21
19.2259
  0
LINE
  8
0
 10
221.955
 20
19.2259
 11
222.408
 21
19.0198
  0
LINE
  8
0
 10
222.408
 20
19.0198
 11
222.851
 21
18.7959
  0
LINE
  8
0
 10
222.851
 20
18.7959
 11
223.286
 21
18.5545
  0
LINE
  8
0
 10
223.286
 20
18.5545
 11
223.71
 21
18.2961
  0
LINE
  8
0
 10
223.71
 20
18.2961
 11
224.124
 21
18.021
  0
LINE
  8
0
 10
224.124
 20
18.021
 11
224.527
 21
17.7296
  0
LINE
  8
0
 10
224.527
 20
17.7296
 11
224.918
 21
17.4225
  0
LINE
  8
0
 10
224.918
 20
17.4225
 11
225.296
 21
17.1
  0
LINE
  8
0
 10
225.296
 20
17.1
 11
225.661
 21
16.7628
  0
LINE
  8
0
 10
225.661
 20
16.7628
 11
226.013
 21
16.4113
  0
LINE
  8
0
 10
226.013
 20
16.4113
 11
226.35
 21
16.0462
  0
LINE
  8
0
 10
226.35
 20
16.0462
 11
226.672
 21
15.6679
  0
LINE
  8
0
 10
226.672
 20
15.6679
 11
226.98
 21
15.2771
  0
LINE
  8
0
 10
226.98
 20
15.2771
 11
227.271
 21
14.8744
  0
LINE
  8
0
 10
227.271
 20
14.8744
 11
227.546
 21
14.4604
  0
LINE
  8
0
 10
227.546
 20
14.4604
 11
227.805
 21
14.0358
  0
LINE
  8
0
 10
227.805
 20
14.0358
 11
228.046
 21
13.6013
  0
LINE
  8
0
 10
228.046
 20
13.6013
 11
228.27
 21
13.1575
  0
LINE
  8
0
 10
228.27
 20
13.1575
 11
228.476
 21
12.7052
  0
LINE
  8
0
 10
228.476
 20
12.7052
 11
228.664
 21
12.2451
  0
LINE
  8
0
 10
228.664
 20
12.2451
 11
228.833
 21
11.7778
  0
LINE
  8
0
 10
228.833
 20
11.7778
 11
228.984
 21
11.3042
  0
LINE
  8
0
 10
228.984
 20
11.3042
 11
229.116
 21
10.8249
  0
LINE
  8
0
 10
229.116
 20
10.8249
 11
229.229
 21
10.3408
  0
LINE
  8
0
 10
229.229
 20
10.3408
 11
229.322
 21
9.85257
  0
LINE
  8
0
 10
229.322
 20
9.85257
 11
229.396
 21
9.36104
  0
LINE
  8
0
 10
229.396
 20
9.36104
 11
229.45
 21
8.86694
  0
LINE
  8
0
 10
229.45
 20
8.86694
 11
229.485
 21
8.37109
  0
LINE
  8
0
 10
229.485
 20
8.37109
 11
229.499
 21
7.87427
  0
LINE
  8
0
 10
229.499
 20
7.87427
 11
229.494
 21
7.37723
  0
LINE
  8
0
 10
229.494
 20
7.37723
 11
229.47
 21
6.8808
  0
LINE
  8
0
 10
229.47
 20
6.8808
 11
229.425
 21
6.38573
  0
LINE
  8
0
 10
229.425
 20
6.38573
 11
229.361
 21
5.89282
  0
LINE
  8
0
 10
229.361
 20
5.89282
 11
229.278
 21
5.40285
  0
LINE
  8
0
 10
229.278
 20
5.40285
 11
229.175
 21
4.91658
  0
LINE
  8
0
 10
229.175
 20
4.91658
 11
229.052
 21
4.4348
  0
LINE
  8
0
 10
229.052
 20
4.4348
 11
228.911
 21
3.95827
  0
LINE
  8
0
 10
228.911
 20
3.95827
 11
228.751
 21
3.48772
  0
LINE
  8
0
 10
228.751
 20
3.48772
 11
228.572
 21
3.02391
  0
LINE
  8
0
 10
228.572
 20
3.02391
 11
228.375
 21
2.56758
  0
LINE
  8
0
 10
228.375
 20
2.56758
 11
228.16
 21
2.11945
  0
LINE
  8
0
 10
228.16
 20
2.11945
 11
227.927
 21
1.68021
  0
LINE
  8
0
 10
227.927
 20
1.68021
 11
227.677
 21
1.25058
  0
LINE
  8
0
 10
227.677
 20
1.25058
 11
227.411
 21
0.831223
  0
LINE
  8
0
 10
227.411
 20
0.831223
 11
227.127
 21
0.422806
  0
LINE
  8
0
 10
227.127
 20
0.422806
 11
226.828
 21
0.0259705
  0
LINE
  8
0
 10
226.828
 20
0.0259705
 11
226.513
 21
-0.358643
  0
LINE
  8
0
 10
226.513
 20
-0.358643
 11
226.183
 21
-0.730438
  0
LINE
  8
0
 10
226.183
 20
-0.730438
 11
225.839
 21
-1.08882
  0
LINE
  8
0
 10
225.839
 20
-1.08882
 11
225.48
 21
-1.43324
  0
LINE
  8
0
 10
225.48
 20
-1.43324
 11
225.109
 21
-1.76314
  0
LINE
  8
0
 10
225.109
 20
-1.76314
 11
224.724
 21
-2.07799
  0
LINE
  8
0
 10
224.724
 20
-2.07799
 11
224.327
 21
-2.37729
  0
LINE
  8
0
 10
224.327
 20
-2.37729
 11
223.919
 21
-2.66058
  0
LINE
  8
0
 10
223.919
 20
-2.66058
 11
223.499
 21
-2.92743
  0
LINE
  8
0
 10
223.499
 20
-2.92743
 11
223.07
 21
-3.17738
  0
LINE
  8
0
 10
223.07
 20
-3.17738
 11
222.631
 21
-3.41005
  0
LINE
  8
0
 10
222.631
 20
-3.41005
 11
222.182
 21
-3.62508
  0
LINE
  8
0
 10
222.182
 20
-3.62508
 11
221.726
 21
-3.82213
  0
LINE
  8
0
 10
221.726
 20
-3.82213
 11
221.262
 21
-4.00087
  0
LINE
  8
0
 10
221.262
 20
-4.00087
 11
220.792
 21
-4.16103
  0
LINE
  8
0
 10
220.792
 20
-4.16103
 11
220.315
 21
-4.30235
  0
LINE
  8
0
 10
220.315
 20
-4.30235
 11
219.833
 21
-4.42462
  0
LINE
  8
0
 10
219.833
 20
-4.42462
 11
219.347
 21
-4.52765
  0
LINE
  8
0
 10
219.347
 20
-4.52765
 11
218.857
 21
-4.61125
  0
LINE
  8
0
 10
218.857
 20
-4.61125
 11
218.364
 21
-4.67532
  0
LINE
  8
0
 10
218.364
 20
-4.67532
 11
217.869
 21
-4.71974
  0
LINE
  8
0
 10
217.869
 20
-4.71974
 11
217.373
 21
-4.74443
  0
LINE
  8
0
 10
217.373
 20
-4.74443
 11
216.876
 21
-4.74937
  0
LINE
  8
0
 10
216.876
 20
-4.74937
 11
216.379
 21
-4.73456
  0
LINE
  8
0
 10
-217.373
 20
-4.74443
 11
-217.869
 21
-4.71974
  0
LINE
  8
0
 10
-217.869
 20
-4.71974
 11
-218.364
 21
-4.67532
  0
LINE
  8
0
 10
-218.364
 20
-4.67532
 11
-218.857
 21
-4.61125
  0
LINE
  8
0
 10
-218.857
 20
-4.61125
 11
-219.347
 21
-4.52765
  0
LINE
  8
0
 10
-219.347
 20
-4.52765
 11
-219.833
 21
-4.42462
  0
LINE
  8
0
 10
-219.833
 20
-4.42462
 11
-220.315
 21
-4.30235
  0
LINE
  8
0
 10
-220.315
 20
-4.30235
 11
-220.792
 21
-4.16103
  0
LINE
  8
0
 10
-220.792
 20
-4.16103
 11
-221.262
 21
-4.00087
  0
LINE
  8
0
 10
-221.262
 20
-4.00087
 11
-221.726
 21
-3.82213
  0
LINE
  8
0
 10
-221.726
 20
-3.82213
 11
-222.182
 21
-3.62508
  0
LINE
  8
0
 10
-222.182
 20
-3.62508
 11
-222.631
 21
-3.41005
  0
LINE
  8
0
 10
-222.631
 20
-3.41005
 11
-223.07
 21
-3.17738
  0
LINE
  8
0
 10
-223.07
 20
-3.17738
 11
-223.499
 21
-2.92743
  0
LINE
  8
0
 10
-223.499
 20
-2.92743
 11
-223.919
 21
-2.66058
  0
LINE
  8
0
 10
-223.919
 20
-2.66058
 11
-224.327
 21
-2.37729
  0
LINE
  8
0
 10
-224.327
 20
-2.37729
 11
-224.724
 21
-2.07799
  0
LINE
  8
0
 10
-224.724
 20
-2.07799
 11
-225.109
 21
-1.76314
  0
LINE
  8
0
 10
-225.109
 20
-1.76314
 11
-225.48
 21
-1.43324
  0
LINE
  8
0
 10
-225.48
 20
-1.43324
 11
-225.839
 21
-1.08882
  0
LINE
  8
0
 10
-225.839
 20
-1.08882
 11
-226.183
 21
-0.730438
  0
LINE
  8
0
 10
-226.183
 20
-0.730438
 11
-226.513
 21
-0.358643
  0
LINE
  8
0
 10
-226.513
 20
-0.358643
 11
-226.828
 21
0.0259705
  0
LINE
  8
0
 10
-226.828
 20
0.0259705
 11
-227.127
 21
0.422806
  0
LINE
  8
0
 10
-227.127
 20
0.422806
 11
-227.411
 21
0.831223
  0
LINE
  8
0
 10
-227.411
 20
0.831223
 11
-227.677
 21
1.25058
  0
LINE
  8
0
 10
-227.677
 20
1.25058
 11
-227.927
 21
1.68021
  0
LINE
  8
0
 10
-227.927
 20
1.68021
 11
-228.16
 21
2.11945
  0
LINE
  8
0
 10
-228.16
 20
2.11945
 11
-228.375
 21
2.56758
  0
LINE
  8
0
 10
-228.375
 20
2.56758
 11
-228.572
 21
3.02391
  0
LINE
  8
0
 10
-228.572
 20
3.02391
 11
-228.751
 21
3.48772
  0
LINE
  8
0
 10
-228.751
 20
3.48772
 11
-228.911
 21
3.95827
  0
LINE
  8
0
 10
-228.911
 20
3.95827
 11
-229.052
 21
4.4348
  0
LINE
  8
0
 10
-229.052
 20
4.4348
 11
-229.175
 21
4.91658
  0
LINE
  8
0
 10
-229.175
 20
4.91658
 11
-229.278
 21
5.40285
  0
LINE
  8
0
 10
-229.278
 20
5.40285
 11
-229.361
 21
5.89282
  0
LINE
  8
0
 10
-229.361
 20
5.89282
 11
-229.425
 21
6.38573
  0
LINE
  8
0
 10
-229.425
 20
6.38573
 11
-229.47
 21
6.8808
  0
LINE
  8
0
 10
-229.47
 20
6.8808
 11
-229.494
 21
7.37723
  0
LINE
  8
0
 10
-229.494
 20
7.37723
 11
-229.499
 21
7.87427
  0
LINE
  8
0
 10
-229.499
 20
7.87427
 11
-229.485
 21
8.37109
  0
LINE
  8
0
 10
-229.485
 20
8.37109
 11
-229.45
 21
8.86694
  0
LINE
  8
0
 10
-229.45
 20
8.86694
 11
-229.396
 21
9.36104
  0
LINE
  8
0
 10
-229.396
 20
9.36104
 11
-229.322
 21
9.85257
  0
LINE
  8
0
 10
-229.322
 20
9.85257
 11
-229.229
 21
10.3408
  0
LINE
  8
0
 10
-229.229
 20
10.3408
 11
-229.116
 21
10.8249
  0
LINE
  8
0
 10
-229.116
 20
10.8249
 11
-228.984
 21
11.3042
  0
LINE
  8
0
 10
-228.984
 20
11.3042
 11
-228.833
 21
11.7778
  0
LINE
  8
0
 10
-228.833
 20
11.7778
 11
-228.664
 21
12.2451
  0
LINE
  8
0
 10
-228.664
 20
12.2451
 11
-228.476
 21
12.7052
  0
LINE
  8
0
 10
-228.476
 20
12.7052
 11
-228.27
 21
13.1575
  0
LINE
  8
0
 10
-228.27
 20
13.1575
 11
-228.046
 21
13.6013
  0
LINE
  8
0
 10
-228.046
 20
13.6013
 11
-227.805
 21
14.0358
  0
LINE
  8
0
 10
-227.805
 20
14.0358
 11
-227.546
 21
14.4604
  0
LINE
  8
0
 10
-227.546
 20
14.4604
 11
-227.271
 21
14.8744
  0
LINE
  8
0
 10
-227.271
 20
14.8744
 11
-226.98
 21
15.2771
  0
LINE
  8
0
 10
-226.98
 20
15.2771
 11
-226.672
 21
15.6679
  0
LINE
  8
0
 10
-226.672
 20
15.6679
 11
-226.35
 21
16.0462
  0
LINE
  8
0
 10
-226.35
 20
16.0462
 11
-226.013
 21
16.4113
  0
LINE
  8
0
 10
-226.013
 20
16.4113
 11
-225.661
 21
16.7628
  0
LINE
  8
0
 10
-225.661
 20
16.7628
 11
-225.296
 21
17.1
  0
LINE
  8
0
 10
-225.296
 20
17.1
 11
-224.918
 21
17.4225
  0
LINE
  8
0
 10
-224.918
 20
17.4225
 11
-224.527
 21
17.7296
  0
LINE
  8
0
 10
-224.527
 20
17.7296
 11
-224.124
 21
18.021
  0
LINE
  8
0
 10
-224.124
 20
18.021
 11
-223.71
 21
18.2961
  0
LINE
  8
0
 10
-223.71
 20
18.2961
 11
-223.286
 21
18.5545
  0
LINE
  8
0
 10
-223.286
 20
18.5545
 11
-222.851
 21
18.7959
  0
LINE
  8
0
 10
-222.851
 20
18.7959
 11
-222.408
 21
19.0198
  0
LINE
  8
0
 10
-222.408
 20
19.0198
 11
-221.955
 21
19.2259
  0
LINE
  8
0
 10
-221.955
 20
19.2259
 11
-221.495
 21
19.4138
  0
LINE
  8
0
 10
-221.495
 20
19.4138
 11
-221.028
 21
19.5833
  0
LINE
  8
0
 10
-221.028
 20
19.5833
 11
-220.554
 21
19.7341
  0
LINE
  8
0
 10
-220.554
 20
19.7341
 11
-220.075
 21
19.8659
  0
LINE
  8
0
 10
-220.075
 20
19.8659
 11
-219.591
 21
19.9786
  0
LINE
  8
0
 10
-219.591
 20
19.9786
 11
-219.103
 21
20.0719
  0
LINE
  8
0
 10
-219.103
 20
20.0719
 11
-218.611
 21
20.1457
  0
LINE
  8
0
 10
-218.611
 20
20.1457
 11
-218.117
 21
20.2
  0
LINE
  8
0
 10
-218.117
 20
20.2
 11
-217.621
 21
20.2346
  0
LINE
  8
0
 10
-217.621
 20
20.2346
 11
-217.124
 21
20.2494
  0
LINE
  8
0
 10
-217.124
 20
20.2494
 11
-216.627
 21
20.2444
  0
LINE
  8
0
 10
-216.627
 20
20.2444
 11
-216.131
 21
20.2197
  0
LINE
  8
0
 10
-216.131
 20
20.2197
 11
-215.636
 21
20.1753
  0
LINE
  8
0
 10
-215.636
 20
20.1753
 11
-215.143
 21
20.1113
  0
LINE
  8
0
 10
-215.143
 20
20.1113
 11
-214.653
 21
20.0276
  0
LINE
  8
0
 10
-214.653
 20
20.0276
 11
-214.167
 21
19.9246
  0
LINE
  8
0
 10
-214.167
 20
19.9246
 11
-213.685
 21
19.8024
  0
LINE
  8
0
 10
-213.685
 20
19.8024
 11
-213.208
 21
19.661
  0
LINE
  8
0
 10
-213.208
 20
19.661
 11
-212.738
 21
19.5009
  0
LINE
  8
0
 10
-212.738
 20
19.5009
 11
-212.274
 21
19.3221
  0
LINE
  8
0
 10
-212.274
 20
19.3221
 11
-211.818
 21
19.1251
  0
LINE
  8
0
 10
-211.818
 20
19.1251
 11
-211.369
 21
18.91
  0
LINE
  8
0
 10
-211.369
 20
18.91
 11
-210.93
 21
18.6774
  0
LINE
  8
0
 10
-210.93
 20
18.6774
 11
-210.501
 21
18.4274
  0
LINE
  8
0
 10
-210.501
 20
18.4274
 11
-210.081
 21
18.1606
  0
LINE
  8
0
 10
-210.081
 20
18.1606
 11
-209.673
 21
17.8773
  0
LINE
  8
0
 10
-209.673
 20
17.8773
 11
-209.276
 21
17.578
  0
LINE
  8
0
 10
-209.276
 20
17.578
 11
-208.891
 21
17.2631
  0
LINE
  8
0
 10
-208.891
 20
17.2631
 11
-208.52
 21
16.9332
  0
LINE
  8
0
 10
-208.52
 20
16.9332
 11
-208.161
 21
16.5888
  0
LINE
  8
0
 10
-208.161
 20
16.5888
 11
-207.817
 21
16.2304
  0
LINE
  8
0
 10
-207.817
 20
16.2304
 11
-207.487
 21
15.8586
  0
LINE
  8
0
 10
-207.487
 20
15.8586
 11
-207.172
 21
15.474
  0
LINE
  8
0
 10
-207.172
 20
15.474
 11
-206.873
 21
15.0772
  0
LINE
  8
0
 10
-206.873
 20
15.0772
 11
-206.589
 21
14.6688
  0
LINE
  8
0
 10
-206.589
 20
14.6688
 11
-206.323
 21
14.2494
  0
LINE
  8
0
 10
-206.323
 20
14.2494
 11
-206.073
 21
13.8198
  0
LINE
  8
0
 10
-206.073
 20
13.8198
 11
-205.84
 21
13.3805
  0
LINE
  8
0
 10
-205.84
 20
13.3805
 11
-205.625
 21
12.9324
  0
LINE
  8
0
 10
-205.625
 20
12.9324
 11
-205.428
 21
12.4761
  0
LINE
  8
0
 10
-205.428
 20
12.4761
 11
-205.249
 21
12.0123
  0
LINE
  8
0
 10
-205.249
 20
12.0123
 11
-205.089
 21
11.5417
  0
LINE
  8
0
 10
-205.089
 20
11.5417
 11
-204.948
 21
11.0652
  0
LINE
  8
0
 10
-204.948
 20
11.0652
 11
-204.825
 21
10.5834
  0
LINE
  8
0
 10
-204.825
 20
10.5834
 11
-204.722
 21
10.0971
  0
LINE
  8
0
 10
-204.722
 20
10.0971
 11
-204.639
 21
9.60716
  0
LINE
  8
0
 10
-204.639
 20
9.60716
 11
-204.575
 21
9.11426
  0
LINE
  8
0
 10
-204.575
 20
9.11426
 11
-204.53
 21
8.61919
  0
LINE
  8
0
 10
-204.53
 20
8.61919
 11
-204.506
 21
8.12276
  0
LINE
  8
0
 10
-204.506
 20
8.12276
 11
-204.501
 21
7.62572
  0
LINE
  8
0
 10
-204.501
 20
7.62572
 11
-204.515
 21
7.12889
  0
LINE
  8
0
 10
-204.515
 20
7.12889
 11
-204.55
 21
6.63304
  0
LINE
  8
0
 10
-204.55
 20
6.63304
 11
-204.604
 21
6.13895
  0
LINE
  8
0
 10
-204.604
 20
6.13895
 11
-204.678
 21
5.64742
  0
LINE
  8
0
 10
-204.678
 20
5.64742
 11
-204.771
 21
5.15919
  0
LINE
  8
0
 10
-204.771
 20
5.15919
 11
-204.884
 21
4.67508
  0
LINE
  8
0
 10
-204.884
 20
4.67508
 11
-205.016
 21
4.19583
  0
LINE
  8
0
 10
-205.016
 20
4.19583
 11
-205.167
 21
3.7222
  0
LINE
  8
0
 10
-205.167
 20
3.7222
 11
-205.336
 21
3.25493
  0
LINE
  8
0
 10
-205.336
 20
3.25493
 11
-205.524
 21
2.79477
  0
LINE
  8
0
 10
-205.524
 20
2.79477
 11
-205.73
 21
2.34245
  0
LINE
  8
0
 10
-205.73
 20
2.34245
 11
-205.954
 21
1.89867
  0
LINE
  8
0
 10
-205.954
 20
1.89867
 11
-206.195
 21
1.46416
  0
LINE
  8
0
 10
-206.195
 20
1.46416
 11
-206.454
 21
1.03957
  0
LINE
  8
0
 10
-206.454
 20
1.03957
 11
-206.729
 21
0.625595
  0
LINE
  8
0
 10
-206.729
 20
0.625595
 11
-207.02
 21
0.2229
  0
LINE
  8
0
 10
-207.02
 20
0.2229
 11
-207.328
 21
-0.167892
  0
LINE
  8
0
 10
-207.328
 20
-0.167892
 11
-207.65
 21
-0.546173
  0
LINE
  8
0
 10
-207.65
 20
-0.546173
 11
-207.987
 21
-0.911346
  0
LINE
  8
0
 10
-207.987
 20
-0.911346
 11
-208.339
 21
-1.26282
  0
LINE
  8
0
 10
-208.339
 20
-1.26282
 11
-208.704
 21
-1.60004
  0
LINE
  8
0
 10
-208.704
 20
-1.60004
 11
-209.082
 21
-1.92247
  0
LINE
  8
0
 10
-209.082
 20
-1.92247
 11
-209.473
 21
-2.22961
  0
LINE
  8
0
 10
-209.473
 20
-2.22961
 11
-209.876
 21
-2.52097
  0
LINE
  8
0
 10
-209.876
 20
-2.52097
 11
-210.29
 21
-2.7961
  0
LINE
  8
0
 10
-210.29
 20
-2.7961
 11
-210.714
 21
-3.05453
  0
LINE
  8
0
 10
-210.714
 20
-3.05453
 11
-211.149
 21
-3.2959
  0
LINE
  8
0
 10
-211.149
 20
-3.2959
 11
-211.592
 21
-3.51979
  0
LINE
  8
0
 10
-211.592
 20
-3.51979
 11
-212.045
 21
-3.72588
  0
LINE
  8
0
 10
-212.045
 20
-3.72588
 11
-212.505
 21
-3.9138
  0
LINE
  8
0
 10
-212.505
 20
-3.9138
 11
-212.972
 21
-4.08328
  0
LINE
  8
0
 10
-212.972
 20
-4.08328
 11
-213.446
 21
-4.23405
  0
LINE
  8
0
 10
-213.446
 20
-4.23405
 11
-213.925
 21
-4.36589
  0
LINE
  8
0
 10
-213.925
 20
-4.36589
 11
-214.409
 21
-4.47856
  0
LINE
  8
0
 10
-214.409
 20
-4.47856
 11
-214.897
 21
-4.57188
  0
LINE
  8
0
 10
-214.897
 20
-4.57188
 11
-215.389
 21
-4.64574
  0
LINE
  8
0
 10
-215.389
 20
-4.64574
 11
-215.883
 21
-4.69998
  0
LINE
  8
0
 10
-215.883
 20
-4.69998
 11
-216.379
 21
-4.73456
  0
LINE
  8
0
 10
-216.379
 20
-4.73456
 11
-216.876
 21
-4.74937
  0
LINE
  8
0
 10
-216.876
 20
-4.74937
 11
-217.373
 21
-4.74443
  0
LINE
  8
0
 10
-196.615
 20
6.05432
 11
-197.088
 21
6.15718
  0
LINE
  8
0
 10
-197.088
 20
6.15718
 11
-197.513
 21
6.38907
  0
LINE
  8
0
 10
-197.513
 20
6.38907
 11
-197.855
 21
6.73122
  0
LINE
  8
0
 10
-197.855
 20
6.73122
 11
-198.087
 21
7.1559
  0
LINE
  8
0
 10
-198.087
 20
7.1559
 11
-198.19
 21
7.62872
  0
LINE
  8
0
 10
-198.19
 20
7.62872
 11
-198.155
 21
8.11136
  0
LINE
  8
0
 10
-198.155
 20
8.11136
 11
-197.986
 21
8.56471
  0
LINE
  8
0
 10
-197.986
 20
8.56471
 11
-197.696
 21
8.95207
  0
LINE
  8
0
 10
-197.696
 20
8.95207
 11
-197.309
 21
9.24205
  0
LINE
  8
0
 10
-197.309
 20
9.24205
 11
-196.855
 21
9.41115
  0
LINE
  8
0
 10
-196.855
 20
9.41115
 11
-196.373
 21
9.44566
  0
LINE
  8
0
 10
-196.373
 20
9.44566
 11
-193.544
 21
9.44566
  0
LINE
  8
0
 10
-193.544
 20
9.44566
 11
-193.071
 21
9.3428
  0
LINE
  8
0
 10
-193.071
 20
9.3428
 11
-192.647
 21
9.11092
  0
LINE
  8
0
 10
-192.647
 20
9.11092
 11
-192.305
 21
8.76877
  0
LINE
  8
0
 10
-192.305
 20
8.76877
 11
-192.073
 21
8.34409
  0
LINE
  8
0
 10
-192.073
 20
8.34409
 11
-191.97
 21
7.87126
  0
LINE
  8
0
 10
-191.97
 20
7.87126
 11
-192.004
 21
7.38863
  0
LINE
  8
0
 10
-192.004
 20
7.38863
 11
-192.173
 21
6.93527
  0
LINE
  8
0
 10
-192.173
 20
6.93527
 11
-192.463
 21
6.54791
  0
LINE
  8
0
 10
-192.463
 20
6.54791
 11
-192.851
 21
6.25793
  0
LINE
  8
0
 10
-192.851
 20
6.25793
 11
-193.304
 21
6.08884
  0
LINE
  8
0
 10
-193.304
 20
6.08884
 11
-193.787
 21
6.05432
  0
LINE
  8
0
 10
-193.787
 20
6.05432
 11
-196.615
 21
6.05432
  0
LINE
  8
0
 10
193.787
 20
6.05432
 11
193.304
 21
6.08884
  0
LINE
  8
0
 10
193.304
 20
6.08884
 11
192.851
 21
6.25793
  0
LINE
  8
0
 10
192.851
 20
6.25793
 11
192.463
 21
6.54791
  0
LINE
  8
0
 10
192.463
 20
6.54791
 11
192.173
 21
6.93527
  0
LINE
  8
0
 10
192.173
 20
6.93527
 11
192.004
 21
7.38863
  0
LINE
  8
0
 10
192.004
 20
7.38863
 11
191.97
 21
7.87126
  0
LINE
  8
0
 10
191.97
 20
7.87126
 11
192.073
 21
8.34409
  0
LINE
  8
0
 10
192.073
 20
8.34409
 11
192.305
 21
8.76877
  0
LINE
  8
0
 10
192.305
 20
8.76877
 11
192.647
 21
9.11092
  0
LINE
  8
0
 10
192.647
 20
9.11092
 11
193.071
 21
9.3428
  0
LINE
  8
0
 10
193.071
 20
9.3428
 11
193.544
 21
9.44566
  0
LINE
  8
0
 10
193.544
 20
9.44566
 11
196.373
 21
9.44566
  0
LINE
  8
0
 10
196.373
 20
9.44566
 11
196.855
 21
9.41115
  0
LINE
  8
0
 10
196.855
 20
9.41115
 11
197.309
 21
9.24205
  0
LINE
  8
0
 10
197.309
 20
9.24205
 11
197.696
 21
8.95207
  0
LINE
  8
0
 10
197.696
 20
8.95207
 11
197.986
 21
8.56471
  0
LINE
  8
0
 10
197.986
 20
8.56471
 11
198.155
 21
8.11136
  0
LINE
  8
0
 10
198.155
 20
8.11136
 11
198.19
 21
7.62872
  0
LINE
  8
0
 10
198.19
 20
7.62872
 11
198.087
 21
7.1559
  0
LINE
  8
0
 10
198.087
 20
7.1559
 11
197.855
 21
6.73122
  0
LINE
  8
0
 10
197.855
 20
6.73122
 11
197.513
 21
6.38907
  0
LINE
  8
0
 10
197.513
 20
6.38907
 11
197.088
 21
6.15718
  0
LINE
  8
0
 10
197.088
 20
6.15718
 11
196.615
 21
6.05432
  0
LINE
  8
0
 10
196.615
 20
6.05432
 11
193.787
 21
6.05432
  0
LINE
  8
0
 10
237.627
 20
6.05432
 11
237.145
 21
6.08884
  0
LINE
  8
0
 10
237.145
 20
6.08884
 11
236.691
 21
6.25793
  0
LINE
  8
0
 10
236.691
 20
6.25793
 11
236.304
 21
6.54791
  0
LINE
  8
0
 10
236.304
 20
6.54791
 11
236.014
 21
6.93527
  0
LINE
  8
0
 10
236.014
 20
6.93527
 11
235.845
 21
7.38863
  0
LINE
  8
0
 10
235.845
 20
7.38863
 11
235.81
 21
7.87126
  0
LINE
  8
0
 10
235.81
 20
7.87126
 11
235.913
 21
8.34409
  0
LINE
  8
0
 10
235.913
 20
8.34409
 11
236.145
 21
8.76877
  0
LINE
  8
0
 10
236.145
 20
8.76877
 11
236.487
 21
9.11092
  0
LINE
  8
0
 10
236.487
 20
9.11092
 11
236.912
 21
9.3428
  0
LINE
  8
0
 10
236.912
 20
9.3428
 11
237.385
 21
9.44566
  0
LINE
  8
0
 10
237.385
 20
9.44566
 11
240.213
 21
9.44566
  0
LINE
  8
0
 10
240.213
 20
9.44566
 11
240.696
 21
9.41115
  0
LINE
  8
0
 10
240.696
 20
9.41115
 11
241.149
 21
9.24205
  0
LINE
  8
0
 10
241.149
 20
9.24205
 11
241.537
 21
8.95207
  0
LINE
  8
0
 10
241.537
 20
8.95207
 11
241.827
 21
8.56471
  0
LINE
  8
0
 10
241.827
 20
8.56471
 11
241.996
 21
8.11136
  0
LINE
  8
0
 10
241.996
 20
8.11136
 11
242.03
 21
7.62872
  0
LINE
  8
0
 10
242.03
 20
7.62872
 11
241.927
 21
7.1559
  0
LINE
  8
0
 10
241.927
 20
7.1559
 11
241.695
 21
6.73122
  0
LINE
  8
0
 10
241.695
 20
6.73122
 11
241.353
 21
6.38907
  0
LINE
  8
0
 10
241.353
 20
6.38907
 11
240.929
 21
6.15718
  0
LINE
  8
0
 10
240.929
 20
6.15718
 11
240.456
 21
6.05432
  0
LINE
  8
0
 10
240.456
 20
6.05432
 11
237.627
 21
6.05432
  0
LINE
  8
0
 10
-240.456
 20
6.05432
 11
-240.929
 21
6.15718
  0
LINE
  8
0
 10
-240.929
 20
6.15718
 11
-241.353
 21
6.38907
  0
LINE
  8
0
 10
-241.353
 20
6.38907
 11
-241.695
 21
6.73122
  0
LINE
  8
0
 10
-241.695
 20
6.73122
 11
-241.927
 21
7.1559
  0
LINE
  8
0
 10
-241.927
 20
7.1559
 11
-242.03
 21
7.62872
  0
LINE
  8
0
 10
-242.03
 20
7.62872
 11
-241.996
 21
8.11136
  0
LINE
  8
0
 10
-241.996
 20
8.11136
 11
-241.827
 21
8.56471
  0
LINE
  8
0
 10
-241.827
 20
8.56471
 11
-241.537
 21
8.95207
  0
LINE
  8
0
 10
-241.537
 20
8.95207
 11
-241.149
 21
9.24205
  0
LINE
  8
0
 10
-241.149
 20
9.24205
 11
-240.696
 21
9.41115
  0
LINE
  8
0
 10
-240.696
 20
9.41115
 11
-240.213
 21
9.44566
  0
LINE
  8
0
 10
-240.213
 20
9.44566
 11
-237.385
 21
9.44566
  0
LINE
  8
0
 10
-237.385
 20
9.44566
 11
-236.912
 21
9.3428
  0
LINE
  8
0
 10
-236.912
 20
9.3428
 11
-236.487
 21
9.11092
  0
LINE
  8
0
 10
-236.487
 20
9.11092
 11
-236.145
 21
8.76877
  0
LINE
  8
0
 10
-236.145
 20
8.76877
 11
-235.913
 21
8.34409
  0
LINE
  8
0
 10
-235.913
 20
8.34409
 11
-235.81
 21
7.87126
  0
LINE
  8
0
 10
-235.81
 20
7.87126
 11
-235.845
 21
7.38863
  0
LINE
  8
0
 10
-235.845
 20
7.38863
 11
-236.014
 21
6.93527
  0
LINE
  8
0
 10
-236.014
 20
6.93527
 11
-236.304
 21
6.54791
  0
LINE
  8
0
 10
-236.304
 20
6.54791
 11
-236.691
 21
6.25793
  0
LINE
  8
0
 10
-236.691
 20
6.25793
 11
-237.145
 21
6.08884
  0
LINE
  8
0
 10
-237.145
 20
6.08884
 11
-237.627
 21
6.05432
  0
LINE
  8
0
 10
-237.627
 20
6.05432
 11
-240.456
 21
6.05432
  0
LINE
  8
0
 10
-22.45
 20
-3.2
 11
-22.45
 21
3.2
  0
LINE
  8
0
 10
-22.45
 20
3.2
 11
-7.54999
 21
3.2
  0
LINE
  8
0
 10
-7.54999
 20
3.2
 11
-7.54999
 21
-3.2
  0
LINE
  8
0
 10
-7.54999
 20
-3.2
 11
-22.45
 21
-3.2
  0
LINE
  8
0
 10
152.55
 20
-3.2
 11
152.55
 21
3.2
  0
LINE
  8
0
 10
152.55
 20
3.2
 11
167.45
 21
3.2
  0
LINE
  8
0
 10
167.45
 20
3.2
 11
167.45
 21
-3.2
  0
LINE
  8
0
 10
167.45
 20
-3.2
 11
152.55
 21
-3.2
  0
LINE
  8
0
 10
7.54999
 20
-3.2
 11
7.54999
 21
3.2
  0
LINE
  8
0
 10
7.54999
 20
3.2
 11
22.45
 21
3.2
  0
LINE
  8
0
 10
22.45
 20
3.2
 11
22.45
 21
-3.2
  0
LINE
  8
0
 10
22.45
 20
-3.2
 11
7.54999
 21
-3.2
  0
LINE
  8
0
 10
-137.45
 20
-3.2
 11
-137.45
 21
3.2
  0
LINE
  8
0
 10
-137.45
 20
3.2
 11
-122.55
 21
3.2
  0
LINE
  8
0
 10
-122.55
 20
3.2
 11
-122.55
 21
-3.2
  0
LINE
  8
0
 10
-122.55
 20
-3.2
 11
-137.45
 21
-3.2
  0
LINE
  8
0
 10
122.55
 20
-3.2
 11
122.55
 21
3.2
  0
LINE
  8
0
 10
122.55
 20
3.2
 11
137.45
 21
3.2
  0
LINE
  8
0
 10
137.45
 20
3.2
 11
137.45
 21
-3.2
  0
LINE
  8
0
 10
137.45
 20
-3.2
 11
122.55
 21
-3.2
  0
LINE
  8
0
 10
-167.45
 20
-3.2
 11
-167.45
 21
3.2
  0
LINE
  8
0
 10
-167.45
 20
3.2
 11
-152.55
 21
3.2
  0
LINE
  8
0
 10
-152.55
 20
3.2
 11
-152.55
 21
-3.2
  0
LINE
  8
0
 10
-152.55
 20
-3.2
 11
-167.45
 21
-3.2
  0
LINE
  8
0
 10
-0.371857
 20
-2.5864
 11
-0.854614
 21
-2.46928
  0
LINE
  8
0
 10
-0.854614
 20
-2.46928
 11
-1.30649
 21
-2.26292
  0
LINE
  8
0
 10
-1.30649
 20
-2.26292
 11
-1.71114
 21
-1.97476
  0
LINE
  8
0
 10
-1.71114
 20
-1.97476
 11
-2.05396
 21
-1.61523
  0
LINE
  8
0
 10
-2.05396
 20
-1.61523
 11
-2.32253
 21
-1.19734
  0
LINE
  8
0
 10
-2.32253
 20
-1.19734
 11
-2.50714
 21
-0.73616
  0
LINE
  8
0
 10
-2.50714
 20
-0.73616
 11
-2.60117
 21
-0.248367
  0
LINE
  8
0
 10
-2.60117
 20
-0.248367
 11
-2.60117
 21
0.248367
  0
LINE
  8
0
 10
-2.60117
 20
0.248367
 11
-2.50714
 21
0.73616
  0
LINE
  8
0
 10
-2.50714
 20
0.73616
 11
-2.32253
 21
1.19734
  0
LINE
  8
0
 10
-2.32253
 20
1.19734
 11
-2.05396
 21
1.61523
  0
LINE
  8
0
 10
-2.05396
 20
1.61523
 11
-1.71114
 21
1.97476
  0
LINE
  8
0
 10
-1.71114
 20
1.97476
 11
-1.30649
 21
2.26292
  0
LINE
  8
0
 10
-1.30649
 20
2.26292
 11
-0.854614
 21
2.46928
  0
LINE
  8
0
 10
-0.854614
 20
2.46928
 11
-0.371857
 21
2.5864
  0
LINE
  8
0
 10
-0.371857
 20
2.5864
 11
0.124329
 21
2.61003
  0
LINE
  8
0
 10
0.124329
 20
2.61003
 11
0.616028
 21
2.53934
  0
LINE
  8
0
 10
0.616028
 20
2.53934
 11
1.08546
 21
2.37686
  0
LINE
  8
0
 10
1.08546
 20
2.37686
 11
1.51569
 21
2.12848
  0
LINE
  8
0
 10
1.51569
 20
2.12848
 11
1.89111
 21
1.80316
  0
LINE
  8
0
 10
1.89111
 20
1.80316
 11
2.19818
 21
1.41269
  0
LINE
  8
0
 10
2.19818
 20
1.41269
 11
2.42581
 21
0.971146
  0
LINE
  8
0
 10
2.42581
 20
0.971146
 11
2.56577
 21
0.494507
  0
LINE
  8
0
 10
2.56577
 20
0.494507
 11
2.61299
 21
0
  0
LINE
  8
0
 10
2.61299
 20
0
 11
2.56577
 21
-0.494507
  0
LINE
  8
0
 10
2.56577
 20
-0.494507
 11
2.42581
 21
-0.971146
  0
LINE
  8
0
 10
2.42581
 20
-0.971146
 11
2.19818
 21
-1.41269
  0
LINE
  8
0
 10
2.19818
 20
-1.41269
 11
1.89111
 21
-1.80316
  0
LINE
  8
0
 10
1.89111
 20
-1.80316
 11
1.51569
 21
-2.12848
  0
LINE
  8
0
 10
1.51569
 20
-2.12848
 11
1.08546
 21
-2.37686
  0
LINE
  8
0
 10
1.08546
 20
-2.37686
 11
0.616028
 21
-2.53934
  0
LINE
  8
0
 10
0.616028
 20
-2.53934
 11
0.124329
 21
-2.61003
  0
LINE
  8
0
 10
0.124329
 20
-2.61003
 11
-0.371857
 21
-2.5864
  0
LINE
  8
0
 10
-145.616
 20
-2.53934
 11
-146.085
 21
-2.37686
  0
LINE
  8
0
 10
-146.085
 20
-2.37686
 11
-146.516
 21
-2.12848
  0
LINE
  8
0
 10
-146.516
 20
-2.12848
 11
-146.891
 21
-1.80316
  0
LINE
  8
0
 10
-146.891
 20
-1.80316
 11
-147.198
 21
-1.41269
  0
LINE
  8
0
 10
-147.198
 20
-1.41269
 11
-147.426
 21
-0.971146
  0
LINE
  8
0
 10
-147.426
 20
-0.971146
 11
-147.566
 21
-0.494507
  0
LINE
  8
0
 10
-147.566
 20
-0.494507
 11
-147.613
 21
0
  0
LINE
  8
0
 10
-147.613
 20
0
 11
-147.566
 21
0.494507
  0
LINE
  8
0
 10
-147.566
 20
0.494507
 11
-147.426
 21
0.971146
  0
LINE
  8
0
 10
-147.426
 20
0.971146
 11
-147.198
 21
1.41269
  0
LINE
  8
0
 10
-147.198
 20
1.41269
 11
-146.891
 21
1.80316
  0
LINE
  8
0
 10
-146.891
 20
1.80316
 11
-146.516
 21
2.12848
  0
LINE
  8
0
 10
-146.516
 20
2.12848
 11
-146.085
 21
2.37686
  0
LINE
  8
0
 10
-146.085
 20
2.37686
 11
-145.616
 21
2.53934
  0
LINE
  8
0
 10
-145.616
 20
2.53934
 11
-145.124
 21
2.61003
  0
LINE
  8
0
 10
-145.124
 20
2.61003
 11
-144.628
 21
2.5864
  0
LINE
  8
0
 10
-144.628
 20
2.5864
 11
-144.145
 21
2.46928
  0
LINE
  8
0
 10
-144.145
 20
2.46928
 11
-143.693
 21
2.26292
  0
LINE
  8
0
 10
-143.693
 20
2.26292
 11
-143.289
 21
1.97476
  0
LINE
  8
0
 10
-143.289
 20
1.97476
 11
-142.946
 21
1.61523
  0
LINE
  8
0
 10
-142.946
 20
1.61523
 11
-142.677
 21
1.19734
  0
LINE
  8
0
 10
-142.677
 20
1.19734
 11
-142.493
 21
0.73616
  0
LINE
  8
0
 10
-142.493
 20
0.73616
 11
-142.399
 21
0.248367
  0
LINE
  8
0
 10
-142.399
 20
0.248367
 11
-142.399
 21
-0.248367
  0
LINE
  8
0
 10
-142.399
 20
-0.248367
 11
-142.493
 21
-0.73616
  0
LINE
  8
0
 10
-142.493
 20
-0.73616
 11
-142.677
 21
-1.19734
  0
LINE
  8
0
 10
-142.677
 20
-1.19734
 11
-142.946
 21
-1.61523
  0
LINE
  8
0
 10
-142.946
 20
-1.61523
 11
-143.289
 21
-1.97476
  0
LINE
  8
0
 10
-143.289
 20
-1.97476
 11
-143.693
 21
-2.26292
  0
LINE
  8
0
 10
-143.693
 20
-2.26292
 11
-144.145
 21
-2.46928
  0
LINE
  8
0
 10
-144.145
 20
-2.46928
 11
-144.628
 21
-2.5864
  0
LINE
  8
0
 10
-144.628
 20
-2.5864
 11
-145.124
 21
-2.61003
  0
LINE
  8
0
 10
-145.124
 20
-2.61003
 11
-145.616
 21
-2.53934
  0
LINE
  8
0
 10
144.628
 20
-2.5864
 11
144.145
 21
-2.46928
  0
LINE
  8
0
 10
144.145
 20
-2.46928
 11
143.693
 21
-2.26292
  0
LINE
  8
0
 10
143.693
 20
-2.26292
 11
143.289
 21
-1.97476
  0
LINE
  8
0
 10
143.289
 20
-1.97476
 11
142.946
 21
-1.61523
  0
LINE
  8
0
 10
142.946
 20
-1.61523
 11
142.677
 21
-1.19734
  0
LINE
  8
0
 10
142.677
 20
-1.19734
 11
142.493
 21
-0.73616
  0
LINE
  8
0
 10
142.493
 20
-0.73616
 11
142.399
 21
-0.248367
  0
LINE
  8
0
 10
142.399
 20
-0.248367
 11
142.399
 21
0.248367
  0
LINE
  8
0
 10
142.399
 20
0.248367
 11
142.493
 21
0.73616
  0
LINE
  8
0
 10
142.493
 20
0.73616
 11
142.677
 21
1.19734
  0
LINE
  8
0
 10
142.677
 20
1.19734
 11
142.946
 21
1.61523
  0
LINE
  8
0
 10
142.946
 20
1.61523
 11
143.289
 21
1.97476
  0
LINE
  8
0
 10
143.289
 20
1.97476
 11
143.693
 21
2.26292
  0
LINE
  8
0
 10
143.693
 20
2.26292
 11
144.145
 21
2.46928
  0
LINE
  8
0
 10
144.145
 20
2.46928
 11
144.628
 21
2.5864
  0
LINE
  8
0
 10
144.628
 20
2.5864
 11
145.124
 21
2.61003
  0
LINE
  8
0
 10
145.124
 20
2.61003
 11
145.616
 21
2.53934
  0
LINE
  8
0
 10
145.616
 20
2.53934
 11
146.085
 21
2.37686
  0
LINE
  8
0
 10
146.085
 20
2.37686
 11
146.516
 21
2.12848
  0
LINE
  8
0
 10
146.516
 20
2.12848
 11
146.891
 21
1.80316
  0
LINE
  8
0
 10
146.891
 20
1.80316
 11
147.198
 21
1.41269
  0
LINE
  8
0
 10
147.198
 20
1.41269
 11
147.426
 21
0.971146
  0
LINE
  8
0
 10
147.426
 20
0.971146
 11
147.566
 21
0.494507
  0
LINE
  8
0
 10
147.566
 20
0.494507
 11
147.613
 21
0
  0
LINE
  8
0
 10
147.613
 20
0
 11
147.566
 21
-0.494507
  0
LINE
  8
0
 10
147.566
 20
-0.494507
 11
147.426
 21
-0.971146
  0
LINE
  8
0
 10
147.426
 20
-0.971146
 11
147.198
 21
-1.41269
  0
LINE
  8
0
 10
147.198
 20
-1.41269
 11
146.891
 21
-1.80316
  0
LINE
  8
0
 10
146.891
 20
-1.80316
 11
146.516
 21
-2.12848
  0
LINE
  8
0
 10
146.516
 20
-2.12848
 11
146.085
 21
-2.37686
  0
LINE
  8
0
 10
146.085
 20
-2.37686
 11
145.616
 21
-2.53934
  0
LINE
  8
0
 10
145.616
 20
-2.53934
 11
145.124
 21
-2.61003
  0
LINE
  8
0
 10
145.124
 20
-2.61003
 11
144.628
 21
-2.5864
  0
LINE
  8
0
 10
234.504
 20
-15.654
 11
234.025
 21
-15.5177
  0
LINE
  8
0
 10
234.025
 20
-15.5177
 11
233.579
 21
-15.2956
  0
LINE
  8
0
 10
233.579
 20
-15.2956
 11
233.181
 21
-14.9953
  0
LINE
  8
0
 10
233.181
 20
-14.9953
 11
232.845
 21
-14.6271
  0
LINE
  8
0
 10
232.845
 20
-14.6271
 11
232.583
 21
-14.2035
  0
LINE
  8
0
 10
232.583
 20
-14.2035
 11
232.403
 21
-13.7389
  0
LINE
  8
0
 10
232.403
 20
-13.7389
 11
232.312
 21
-13.2491
  0
LINE
  8
0
 10
232.312
 20
-13.2491
 11
232.312
 21
-12.7509
  0
LINE
  8
0
 10
232.312
 20
-12.7509
 11
232.403
 21
-12.2611
  0
LINE
  8
0
 10
232.403
 20
-12.2611
 11
232.583
 21
-11.7965
  0
LINE
  8
0
 10
232.583
 20
-11.7965
 11
232.845
 21
-11.3729
  0
LINE
  8
0
 10
232.845
 20
-11.3729
 11
233.181
 21
-11.0047
  0
LINE
  8
0
 10
233.181
 20
-11.0047
 11
233.579
 21
-10.7044
  0
LINE
  8
0
 10
233.579
 20
-10.7044
 11
234.025
 21
-10.4823
  0
LINE
  8
0
 10
234.025
 20
-10.4823
 11
234.504
 21
-10.346
  0
LINE
  8
0
 10
234.504
 20
-10.346
 11
235
 21
-10.3
  0
LINE
  8
0
 10
235
 20
-10.3
 11
235.496
 21
-10.346
  0
LINE
  8
0
 10
235.496
 20
-10.346
 11
235.975
 21
-10.4823
  0
LINE
  8
0
 10
235.975
 20
-10.4823
 11
236.421
 21
-10.7044
  0
LINE
  8
0
 10
236.421
 20
-10.7044
 11
236.819
 21
-11.0047
  0
LINE
  8
0
 10
236.819
 20
-11.0047
 11
237.155
 21
-11.3729
  0
LINE
  8
0
 10
237.155
 20
-11.3729
 11
237.417
 21
-11.7965
  0
LINE
  8
0
 10
237.417
 20
-11.7965
 11
237.597
 21
-12.2611
  0
LINE
  8
0
 10
237.597
 20
-12.2611
 11
237.688
 21
-12.7509
  0
LINE
  8
0
 10
237.688
 20
-12.7509
 11
237.688
 21
-13.2491
  0
LINE
  8
0
 10
237.688
 20
-13.2491
 11
237.597
 21
-13.7389
  0
LINE
  8
0
 10
237.597
 20
-13.7389
 11
237.417
 21
-14.2035
  0
LINE
  8
0
 10
237.417
 20
-14.2035
 11
237.155
 21
-14.6271
  0
LINE
  8
0
 10
237.155
 20
-14.6271
 11
236.819
 21
-14.9953
  0
LINE
  8
0
 10
236.819
 20
-14.9953
 11
236.421
 21
-15.2956
  0
LINE
  8
0
 10
236.421
 20
-15.2956
 11
235.975
 21
-15.5177
  0
LINE
  8
0
 10
235.975
 20
-15.5177
 11
235.496
 21
-15.654
  0
LINE
  8
0
 10
235.496
 20
-15.654
 11
235
 21
-15.7
  0
LINE
  8
0
 10
235
 20
-15.7
 11
234.504
 21
-15.654
  0
LINE
  8
0
 10
-235.496
 20
-15.654
 11
-235.975
 21
-15.5177
  0
LINE
  8
0
 10
-235.975
 20
-15.5177
 11
-236.421
 21
-15.2956
  0
LINE
  8
0
 10
-236.421
 20
-15.2956
 11
-236.819
 21
-14.9953
  0
LINE
  8
0
 10
-236.819
 20
-14.9953
 11
-237.155
 21
-14.6271
  0
LINE
  8
0
 10
-237.155
 20
-14.6271
 11
-237.417
 21
-14.2035
  0
LINE
  8
0
 10
-237.417
 20
-14.2035
 11
-237.597
 21
-13.7389
  0
LINE
  8
0
 10
-237.597
 20
-13.7389
 11
-237.688
 21
-13.2491
  0
LINE
  8
0
 10
-237.688
 20
-13.2491
 11
-237.688
 21
-12.7509
  0
LINE
  8
0
 10
-237.688
 20
-12.7509
 11
-237.597
 21
-12.2611
  0
LINE
  8
0
 10
-237.597
 20
-12.2611
 11
-237.417
 21
-11.7965
  0
LINE
  8
0
 10
-237.417
 20
-11.7965
 11
-237.155
 21
-11.3729
  0
LINE
  8
0
 10
-237.155
 20
-11.3729
 11
-236.819
 21
-11.0047
  0
LINE
  8
0
 10
-236.819
 20
-11.0047
 11
-236.421
 21
-10.7044
  0
LINE
  8
0
 10
-236.421
 20
-10.7044
 11
-235.975
 21
-10.4823
  0
LINE
  8
0
 10
-235.975
 20
-10.4823
 11
-235.496
 21
-10.346
  0
LINE
  8
0
 10
-235.496
 20
-10.346
 11
-235
 21
-10.3
  0
LINE
  8
0
 10
-235
 20
-10.3
 11
-234.504
 21
-10.346
  0
LINE
  8
0
 10
-234.504
 20
-10.346
 11
-234.025
 21
-10.4823
  0
LINE
  8
0
 10
-234.025
 20
-10.4823
 11
-233.579
 21
-10.7044
  0
LINE
  8
0
 10
-233.579
 20
-10.7044
 11
-233.181
 21
-11.0047
  0
LINE
  8
0
 10
-233.181
 20
-11.0047
 11
-232.845
 21
-11.3729
  0
LINE
  8
0
 10
-232.845
 20
-11.3729
 11
-232.583
 21
-11.7965
  0
LINE
  8
0
 10
-232.583
 20
-11.7965
 11
-232.403
 21
-12.2611
  0
LINE
  8
0
 10
-232.403
 20
-12.2611
 11
-232.312
 21
-12.7509
  0
LINE
  8
0
 10
-232.312
 20
-12.7509
 11
-232.312
 21
-13.2491
  0
LINE
  8
0
 10
-232.312
 20
-13.2491
 11
-232.403
 21
-13.7389
  0
LINE
  8
0
 10
-232.403
 20
-13.7389
 11
-232.583
 21
-14.2035
  0
LINE
  8
0
 10
-232.583
 20
-14.2035
 11
-232.845
 21
-14.6271
  0
LINE
  8
0
 10
-232.845
 20
-14.6271
 11
-233.181
 21
-14.9953
  0
LINE
  8
0
 10
-233.181
 20
-14.9953
 11
-233.579
 21
-15.2956
  0
LINE
  8
0
 10
-233.579
 20
-15.2956
 11
-234.025
 21
-15.5177
  0
LINE
  8
0
 10
-234.025
 20
-15.5177
 11
-234.504
 21
-15.654
  0
LINE
  8
0
 10
-234.504
 20
-15.654
 11
-235
 21
-15.7
  0
LINE
  8
0
 10
-235
 20
-15.7
 11
-235.496
 21
-15.654
  0
LINE
  8
0
 10
216.406
 20
-17.1773
 11
215.981
 21
-16.9454
  0
LINE
  8
0
 10
215.981
 20
-16.9454
 11
215.639
 21
-16.6033
  0
LINE
  8
0
 10
215.639
 20
-16.6033
 11
215.407
 21
-16.1786
  0
LINE
  8
0
 10
215.407
 20
-16.1786
 11
215.304
 21
-15.7058
  0
LINE
  8
0
 10
215.304
 20
-15.7058
 11
215.304
 21
-12.8774
  0
LINE
  8
0
 10
215.304
 20
-12.8774
 11
215.339
 21
-12.3947
  0
LINE
  8
0
 10
215.339
 20
-12.3947
 11
215.508
 21
-11.9414
  0
LINE
  8
0
 10
215.508
 20
-11.9414
 11
215.798
 21
-11.554
  0
LINE
  8
0
 10
215.798
 20
-11.554
 11
216.185
 21
-11.264
  0
LINE
  8
0
 10
216.185
 20
-11.264
 11
216.639
 21
-11.0949
  0
LINE
  8
0
 10
216.639
 20
-11.0949
 11
217.121
 21
-11.0604
  0
LINE
  8
0
 10
217.121
 20
-11.0604
 11
217.594
 21
-11.1633
  0
LINE
  8
0
 10
217.594
 20
-11.1633
 11
218.019
 21
-11.3952
  0
LINE
  8
0
 10
218.019
 20
-11.3952
 11
218.361
 21
-11.7373
  0
LINE
  8
0
 10
218.361
 20
-11.7373
 11
218.593
 21
-12.162
  0
LINE
  8
0
 10
218.593
 20
-12.162
 11
218.696
 21
-12.6348
  0
LINE
  8
0
 10
218.696
 20
-12.6348
 11
218.696
 21
-15.4632
  0
LINE
  8
0
 10
218.696
 20
-15.4632
 11
218.661
 21
-15.9459
  0
LINE
  8
0
 10
218.661
 20
-15.9459
 11
218.492
 21
-16.3992
  0
LINE
  8
0
 10
218.492
 20
-16.3992
 11
218.202
 21
-16.7866
  0
LINE
  8
0
 10
218.202
 20
-16.7866
 11
217.815
 21
-17.0766
  0
LINE
  8
0
 10
217.815
 20
-17.0766
 11
217.361
 21
-17.2457
  0
LINE
  8
0
 10
217.361
 20
-17.2457
 11
216.879
 21
-17.2802
  0
LINE
  8
0
 10
216.879
 20
-17.2802
 11
216.406
 21
-17.1773
  0
LINE
  8
0
 10
-217.361
 20
-17.2457
 11
-217.815
 21
-17.0766
  0
LINE
  8
0
 10
-217.815
 20
-17.0766
 11
-218.202
 21
-16.7866
  0
LINE
  8
0
 10
-218.202
 20
-16.7866
 11
-218.492
 21
-16.3992
  0
LINE
  8
0
 10
-218.492
 20
-16.3992
 11
-218.661
 21
-15.9459
  0
LINE
  8
0
 10
-218.661
 20
-15.9459
 11
-218.696
 21
-15.4632
  0
LINE
  8
0
 10
-218.696
 20
-15.4632
 11
-218.696
 21
-12.6348
  0
LINE
  8
0
 10
-218.696
 20
-12.6348
 11
-218.593
 21
-12.162
  0
LINE
  8
0
 10
-218.593
 20
-12.162
 11
-218.361
 21
-11.7373
  0
LINE
  8
0
 10
-218.361
 20
-11.7373
 11
-218.019
 21
-11.3952
  0
LINE
  8
0
 10
-218.019
 20
-11.3952
 11
-217.594
 21
-11.1633
  0
LINE
  8
0
 10
-217.594
 20
-11.1633
 11
-217.121
 21
-11.0604
  0
LINE
  8
0
 10
-217.121
 20
-11.0604
 11
-216.639
 21
-11.0949
  0
LINE
  8
0
 10
-216.639
 20
-11.0949
 11
-216.185
 21
-11.264
  0
LINE
  8
0
 10
-216.185
 20
-11.264
 11
-215.798
 21
-11.554
  0
LINE
  8
0
 10
-215.798
 20
-11.554
 11
-215.508
 21
-11.9414
  0
LINE
  8
0
 10
-215.508
 20
-11.9414
 11
-215.339
 21
-12.3947
  0
LINE
  8
0
 10
-215.339
 20
-12.3947
 11
-215.304
 21
-12.8774
  0
LINE
  8
0
 10
-215.304
 20
-12.8774
 11
-215.304
 21
-15.7058
  0
LINE
  8
0
 10
-215.304
 20
-15.7058
 11
-215.407
 21
-16.1786
  0
LINE
  8
0
 10
-215.407
 20
-16.1786
 11
-215.639
 21
-16.6033
  0
LINE
  8
0
 10
-215.639
 20
-16.6033
 11
-215.981
 21
-16.9454
  0
LINE
  8
0
 10
-215.981
 20
-16.9454
 11
-216.406
 21
-17.1773
  0
LINE
  8
0
 10
-216.406
 20
-17.1773
 11
-216.879
 21
-17.2802
  0
LINE
  8
0
 10
-216.879
 20
-17.2802
 11
-217.361
 21
-17.2457
  0
LINE
  8
0
 10
-164.979
 20
-28.8811
 11
-165.419
 21
-28.6801
  0
LINE
  8
0
 10
-165.419
 20
-28.6801
 11
-165.785
 21
-28.3633
  0
LINE
  8
0
 10
-165.785
 20
-28.3633
 11
-167.785
 21
-26.3633
  0
LINE
  8
0
 10
-167.785
 20
-26.3633
 11
-168.046
 21
-25.9562
  0
LINE
  8
0
 10
-168.046
 20
-25.9562
 11
-168.183
 21
-25.4919
  0
LINE
  8
0
 10
-168.183
 20
-25.4919
 11
-168.183
 21
-25.0081
  0
LINE
  8
0
 10
-168.183
 20
-25.0081
 11
-168.046
 21
-24.5438
  0
LINE
  8
0
 10
-168.046
 20
-24.5438
 11
-167.785
 21
-24.1367
  0
LINE
  8
0
 10
-167.785
 20
-24.1367
 11
-167.419
 21
-23.8199
  0
LINE
  8
0
 10
-167.419
 20
-23.8199
 11
-166.979
 21
-23.6189
  0
LINE
  8
0
 10
-166.979
 20
-23.6189
 11
-166.5
 21
-23.55
  0
LINE
  8
0
 10
-166.5
 20
-23.55
 11
-166.021
 21
-23.6189
  0
LINE
  8
0
 10
-166.021
 20
-23.6189
 11
-165.581
 21
-23.8199
  0
LINE
  8
0
 10
-165.581
 20
-23.8199
 11
-165.215
 21
-24.1367
  0
LINE
  8
0
 10
-165.215
 20
-24.1367
 11
-163.215
 21
-26.1367
  0
LINE
  8
0
 10
-163.215
 20
-26.1367
 11
-162.954
 21
-26.5438
  0
LINE
  8
0
 10
-162.954
 20
-26.5438
 11
-162.817
 21
-27.0081
  0
LINE
  8
0
 10
-162.817
 20
-27.0081
 11
-162.817
 21
-27.4919
  0
LINE
  8
0
 10
-162.817
 20
-27.4919
 11
-162.954
 21
-27.9562
  0
LINE
  8
0
 10
-162.954
 20
-27.9562
 11
-163.215
 21
-28.3633
  0
LINE
  8
0
 10
-163.215
 20
-28.3633
 11
-163.581
 21
-28.6801
  0
LINE
  8
0
 10
-163.581
 20
-28.6801
 11
-164.021
 21
-28.8811
  0
LINE
  8
0
 10
-164.021
 20
-28.8811
 11
-164.5
 21
-28.95
  0
LINE
  8
0
 10
-164.5
 20
-28.95
 11
-164.979
 21
-28.8811
  0
LINE
  8
0
 10
-14.9789
 20
-28.8811
 11
-15.4191
 21
-28.6801
  0
LINE
  8
0
 10
-15.4191
 20
-28.6801
 11
-15.7848
 21
-28.3633
  0
LINE
  8
0
 10
-15.7848
 20
-28.3633
 11
-17.7848
 21
-26.3633
  0
LINE
  8
0
 10
-17.7848
 20
-26.3633
 11
-18.0464
 21
-25.9562
  0
LINE
  8
0
 10
-18.0464
 20
-25.9562
 11
-18.1827
 21
-25.4919
  0
LINE
  8
0
 10
-18.1827
 20
-25.4919
 11
-18.1827
 21
-25.0081
  0
LINE
  8
0
 10
-18.1827
 20
-25.0081
 11
-18.0464
 21
-24.5438
  0
LINE
  8
0
 10
-18.0464
 20
-24.5438
 11
-17.7848
 21
-24.1367
  0
LINE
  8
0
 10
-17.7848
 20
-24.1367
 11
-17.4191
 21
-23.8199
  0
LINE
  8
0
 10
-17.4191
 20
-23.8199
 11
-16.9789
 21
-23.6189
  0
LINE
  8
0
 10
-16.9789
 20
-23.6189
 11
-16.5
 21
-23.55
  0
LINE
  8
0
 10
-16.5
 20
-23.55
 11
-16.021
 21
-23.6189
  0
LINE
  8
0
 10
-16.021
 20
-23.6189
 11
-15.5809
 21
-23.8199
  0
LINE
  8
0
 10
-15.5809
 20
-23.8199
 11
-15.2152
 21
-24.1367
  0
LINE
  8
0
 10
-15.2152
 20
-24.1367
 11
-13.2152
 21
-26.1367
  0
LINE
  8
0
 10
-13.2152
 20
-26.1367
 11
-12.9536
 21
-26.5438
  0
LINE
  8
0
 10
-12.9536
 20
-26.5438
 11
-12.8173
 21
-27.0081
  0
LINE
  8
0
 10
-12.8173
 20
-27.0081
 11
-12.8173
 21
-27.4919
  0
LINE
  8
0
 10
-12.8173
 20
-27.4919
 11
-12.9536
 21
-27.9562
  0
LINE
  8
0
 10
-12.9536
 20
-27.9562
 11
-13.2152
 21
-28.3633
  0
LINE
  8
0
 10
-13.2152
 20
-28.3633
 11
-13.5809
 21
-28.6801
  0
LINE
  8
0
 10
-13.5809
 20
-28.6801
 11
-14.021
 21
-28.8811
  0
LINE
  8
0
 10
-14.021
 20
-28.8811
 11
-14.5
 21
-28.95
  0
LINE
  8
0
 10
-14.5
 20
-28.95
 11
-14.9789
 21
-28.8811
  0
LINE
  8
0
 10
135.021
 20
-28.8811
 11
134.581
 21
-28.6801
  0
LINE
  8
0
 10
134.581
 20
-28.6801
 11
134.215
 21
-28.3633
  0
LINE
  8
0
 10
134.215
 20
-28.3633
 11
132.215
 21
-26.3633
  0
LINE
  8
0
 10
132.215
 20
-26.3633
 11
131.954
 21
-25.9562
  0
LINE
  8
0
 10
131.954
 20
-25.9562
 11
131.817
 21
-25.4919
  0
LINE
  8
0
 10
131.817
 20
-25.4919
 11
131.817
 21
-25.0081
  0
LINE
  8
0
 10
131.817
 20
-25.0081
 11
131.954
 21
-24.5438
  0
LINE
  8
0
 10
131.954
 20
-24.5438
 11
132.215
 21
-24.1367
  0
LINE
  8
0
 10
132.215
 20
-24.1367
 11
132.581
 21
-23.8199
  0
LINE
  8
0
 10
132.581
 20
-23.8199
 11
133.021
 21
-23.6189
  0
LINE
  8
0
 10
133.021
 20
-23.6189
 11
133.5
 21
-23.55
  0
LINE
  8
0
 10
133.5
 20
-23.55
 11
133.979
 21
-23.6189
  0
LINE
  8
0
 10
133.979
 20
-23.6189
 11
134.419
 21
-23.8199
  0
LINE
  8
0
 10
134.419
 20
-23.8199
 11
134.785
 21
-24.1367
  0
LINE
  8
0
 10
134.785
 20
-24.1367
 11
136.785
 21
-26.1367
  0
LINE
  8
0
 10
136.785
 20
-26.1367
 11
137.046
 21
-26.5438
  0
LINE
  8
0
 10
137.046
 20
-26.5438
 11
137.183
 21
-27.0081
  0
LINE
  8
0
 10
137.183
 20
-27.0081
 11
137.183
 21
-27.4919
  0
LINE
  8
0
 10
137.183
 20
-27.4919
 11
137.046
 21
-27.9562
  0
LINE
  8
0
 10
137.046
 20
-27.9562
 11
136.785
 21
-28.3633
  0
LINE
  8
0
 10
136.785
 20
-28.3633
 11
136.419
 21
-28.6801
  0
LINE
  8
0
 10
136.419
 20
-28.6801
 11
135.979
 21
-28.8811
  0
LINE
  8
0
 10
135.979
 20
-28.8811
 11
135.5
 21
-28.95
  0
LINE
  8
0
 10
135.5
 20
-28.95
 11
135.021
 21
-28.8811
  0
LINE
  8
0
 10
164.258
 20
-28.9327
 11
163.794
 21
-28.7964
  0
LINE
  8
0
 10
163.794
 20
-28.7964
 11
163.387
 21
-28.5348
  0
LINE
  8
0
 10
163.387
 20
-28.5348
 11
163.07
 21
-28.1691
  0
LINE
  8
0
 10
163.07
 20
-28.1691
 11
162.869
 21
-27.7289
  0
LINE
  8
0
 10
162.869
 20
-27.7289
 11
162.8
 21
-27.25
  0
LINE
  8
0
 10
162.8
 20
-27.25
 11
162.869
 21
-26.771
  0
LINE
  8
0
 10
162.869
 20
-26.771
 11
163.07
 21
-26.3309
  0
LINE
  8
0
 10
163.07
 20
-26.3309
 11
163.387
 21
-25.9652
  0
LINE
  8
0
 10
163.387
 20
-25.9652
 11
165.387
 21
-23.9652
  0
LINE
  8
0
 10
165.387
 20
-23.9652
 11
165.794
 21
-23.7036
  0
LINE
  8
0
 10
165.794
 20
-23.7036
 11
166.258
 21
-23.5673
  0
LINE
  8
0
 10
166.258
 20
-23.5673
 11
166.742
 21
-23.5673
  0
LINE
  8
0
 10
166.742
 20
-23.5673
 11
167.206
 21
-23.7036
  0
LINE
  8
0
 10
167.206
 20
-23.7036
 11
167.613
 21
-23.9652
  0
LINE
  8
0
 10
167.613
 20
-23.9652
 11
167.93
 21
-24.3309
  0
LINE
  8
0
 10
167.93
 20
-24.3309
 11
168.131
 21
-24.771
  0
LINE
  8
0
 10
168.131
 20
-24.771
 11
168.2
 21
-25.25
  0
LINE
  8
0
 10
168.2
 20
-25.25
 11
168.131
 21
-25.7289
  0
LINE
  8
0
 10
168.131
 20
-25.7289
 11
167.93
 21
-26.1691
  0
LINE
  8
0
 10
167.93
 20
-26.1691
 11
167.613
 21
-26.5348
  0
LINE
  8
0
 10
167.613
 20
-26.5348
 11
165.613
 21
-28.5348
  0
LINE
  8
0
 10
165.613
 20
-28.5348
 11
165.206
 21
-28.7964
  0
LINE
  8
0
 10
165.206
 20
-28.7964
 11
164.742
 21
-28.9327
  0
LINE
  8
0
 10
164.742
 20
-28.9327
 11
164.258
 21
-28.9327
  0
LINE
  8
0
 10
14.2581
 20
-28.9327
 11
13.7938
 21
-28.7964
  0
LINE
  8
0
 10
13.7938
 20
-28.7964
 11
13.3867
 21
-28.5348
  0
LINE
  8
0
 10
13.3867
 20
-28.5348
 11
13.0699
 21
-28.1691
  0
LINE
  8
0
 10
13.0699
 20
-28.1691
 11
12.8689
 21
-27.7289
  0
LINE
  8
0
 10
12.8689
 20
-27.7289
 11
12.8
 21
-27.25
  0
LINE
  8
0
 10
12.8
 20
-27.25
 11
12.8689
 21
-26.771
  0
LINE
  8
0
 10
12.8689
 20
-26.771
 11
13.0699
 21
-26.3309
  0
LINE
  8
0
 10
13.0699
 20
-26.3309
 11
13.3867
 21
-25.9652
  0
LINE
  8
0
 10
13.3867
 20
-25.9652
 11
15.3867
 21
-23.9652
  0
LINE
  8
0
 10
15.3867
 20
-23.9652
 11
15.7938
 21
-23.7036
  0
LINE
  8
0
 10
15.7938
 20
-23.7036
 11
16.2581
 21
-23.5673
  0
LINE
  8
0
 10
16.2581
 20
-23.5673
 11
16.7419
 21
-23.5673
  0
LINE
  8
0
 10
16.7419
 20
-23.5673
 11
17.2062
 21
-23.7036
  0
LINE
  8
0
 10
17.2062
 20
-23.7036
 11
17.6133
 21
-23.9652
  0
LINE
  8
0
 10
17.6133
 20
-23.9652
 11
17.9301
 21
-24.3309
  0
LINE
  8
0
 10
17.9301
 20
-24.3309
 11
18.1311
 21
-24.771
  0
LINE
  8
0
 10
18.1311
 20
-24.771
 11
18.2
 21
-25.25
  0
LINE
  8
0
 10
18.2
 20
-25.25
 11
18.1311
 21
-25.7289
  0
LINE
  8
0
 10
18.1311
 20
-25.7289
 11
17.9301
 21
-26.1691
  0
LINE
  8
0
 10
17.9301
 20
-26.1691
 11
17.6133
 21
-26.5348
  0
LINE
  8
0
 10
17.6133
 20
-26.5348
 11
15.6133
 21
-28.5348
  0
LINE
  8
0
 10
15.6133
 20
-28.5348
 11
15.2062
 21
-28.7964
  0
LINE
  8
0
 10
15.2062
 20
-28.7964
 11
14.7419
 21
-28.9327
  0
LINE
  8
0
 10
14.7419
 20
-28.9327
 11
14.2581
 21
-28.9327
  0
LINE
  8
0
 10
-135.742
 20
-28.9327
 11
-136.206
 21
-28.7964
  0
LINE
  8
0
 10
-136.206
 20
-28.7964
 11
-136.613
 21
-28.5348
  0
LINE
  8
0
 10
-136.613
 20
-28.5348
 11
-136.93
 21
-28.1691
  0
LINE
  8
0
 10
-136.93
 20
-28.1691
 11
-137.131
 21
-27.7289
  0
LINE
  8
0
 10
-137.131
 20
-27.7289
 11
-137.2
 21
-27.25
  0
LINE
  8
0
 10
-137.2
 20
-27.25
 11
-137.131
 21
-26.771
  0
LINE
  8
0
 10
-137.131
 20
-26.771
 11
-136.93
 21
-26.3309
  0
LINE
  8
0
 10
-136.93
 20
-26.3309
 11
-136.613
 21
-25.9652
  0
LINE
  8
0
 10
-136.613
 20
-25.9652
 11
-134.613
 21
-23.9652
  0
LINE
  8
0
 10
-134.613
 20
-23.9652
 11
-134.206
 21
-23.7036
  0
LINE
  8
0
 10
-134.206
 20
-23.7036
 11
-133.742
 21
-23.5673
  0
LINE
  8
0
 10
-133.742
 20
-23.5673
 11
-133.258
 21
-23.5673
  0
LINE
  8
0
 10
-133.258
 20
-23.5673
 11
-132.794
 21
-23.7036
  0
LINE
  8
0
 10
-132.794
 20
-23.7036
 11
-132.387
 21
-23.9652
  0
LINE
  8
0
 10
-132.387
 20
-23.9652
 11
-132.07
 21
-24.3309
  0
LINE
  8
0
 10
-132.07
 20
-24.3309
 11
-131.869
 21
-24.771
  0
LINE
  8
0
 10
-131.869
 20
-24.771
 11
-131.8
 21
-25.25
  0
LINE
  8
0
 10
-131.8
 20
-25.25
 11
-131.869
 21
-25.7289
  0
LINE
  8
0
 10
-131.869
 20
-25.7289
 11
-132.07
 21
-26.1691
  0
LINE
  8
0
 10
-132.07
 20
-26.1691
 11
-132.387
 21
-26.5348
  0
LINE
  8
0
 10
-132.387
 20
-26.5348
 11
-134.387
 21
-28.5348
  0
LINE
  8
0
 10
-134.387
 20
-28.5348
 11
-134.794
 21
-28.7964
  0
LINE
  8
0
 10
-134.794
 20
-28.7964
 11
-135.258
 21
-28.9327
  0
LINE
  8
0
 10
-135.258
 20
-28.9327
 11
-135.742
 21
-28.9327
  0
LINE
  8
0
 10
-0.248581
 20
-52.7472
 11
-0.74527
 21
-52.7247
  0
LINE
  8
0
 10
-0.74527
 20
-52.7247
 11
-1.24042
 21
-52.6798
  0
LINE
  8
0
 10
-1.24042
 20
-52.6798
 11
-1.73305
 21
-52.6126
  0
LINE
  8
0
 10
-1.73305
 20
-52.6126
 11
-2.22214
 21
-52.5232
  0
LINE
  8
0
 10
-2.22214
 20
-52.5232
 11
-2.70668
 21
-52.4118
  0
LINE
  8
0
 10
-2.70668
 20
-52.4118
 11
-3.18568
 21
-52.2786
  0
LINE
  8
0
 10
-3.18568
 20
-52.2786
 11
-3.65819
 21
-52.1239
  0
LINE
  8
0
 10
-3.65819
 20
-52.1239
 11
-4.12323
 21
-51.948
  0
LINE
  8
0
 10
-4.12323
 20
-51.948
 11
-4.57983
 21
-51.7513
  0
LINE
  8
0
 10
-4.57983
 20
-51.7513
 11
-5.02708
 21
-51.5341
  0
LINE
  8
0
 10
-5.02708
 20
-51.5341
 11
-5.46407
 21
-51.2969
  0
LINE
  8
0
 10
-5.46407
 20
-51.2969
 11
-5.88989
 21
-51.0403
  0
LINE
  8
0
 10
-5.88989
 20
-51.0403
 11
-6.30368
 21
-50.7646
  0
LINE
  8
0
 10
-6.30368
 20
-50.7646
 11
-6.70459
 21
-50.4706
  0
LINE
  8
0
 10
-6.70459
 20
-50.4706
 11
-7.0918
 21
-50.1587
  0
LINE
  8
0
 10
-7.0918
 20
-50.1587
 11
-7.46452
 21
-49.8297
  0
LINE
  8
0
 10
-7.46452
 20
-49.8297
 11
-7.82199
 21
-49.4841
  0
LINE
  8
0
 10
-7.82199
 20
-49.4841
 11
-8.16348
 21
-49.1227
  0
LINE
  8
0
 10
-8.16348
 20
-49.1227
 11
-8.4883
 21
-48.7463
  0
LINE
  8
0
 10
-8.4883
 20
-48.7463
 11
-8.79578
 21
-48.3556
  0
LINE
  8
0
 10
-8.79578
 20
-48.3556
 11
-9.08528
 21
-47.9514
  0
LINE
  8
0
 10
-9.08528
 20
-47.9514
 11
-9.35623
 21
-47.5345
  0
LINE
  8
0
 10
-9.35623
 20
-47.5345
 11
-9.60806
 21
-47.1058
  0
LINE
  8
0
 10
-9.60806
 20
-47.1058
 11
-9.84026
 21
-46.6662
  0
LINE
  8
0
 10
-9.84026
 20
-46.6662
 11
-10.0524
 21
-46.2165
  0
LINE
  8
0
 10
-10.0524
 20
-46.2165
 11
-10.2439
 21
-45.7577
  0
LINE
  8
0
 10
-10.2439
 20
-45.7577
 11
-10.4146
 21
-45.2907
  0
LINE
  8
0
 10
-10.4146
 20
-45.2907
 11
-10.5639
 21
-44.8165
  0
LINE
  8
0
 10
-10.5639
 20
-44.8165
 11
-10.6917
 21
-44.336
  0
LINE
  8
0
 10
-10.6917
 20
-44.336
 11
-10.7976
 21
-43.8503
  0
LINE
  8
0
 10
-10.7976
 20
-43.8503
 11
-10.8815
 21
-43.3602
  0
LINE
  8
0
 10
-10.8815
 20
-43.3602
 11
-10.9431
 21
-42.8668
  0
LINE
  8
0
 10
-10.9431
 20
-42.8668
 11
-10.9824
 21
-42.3712
  0
LINE
  8
0
 10
-10.9824
 20
-42.3712
 11
-10.9993
 21
-41.8743
  0
LINE
  8
0
 10
-10.9993
 20
-41.8743
 11
-10.9937
 21
-41.3771
  0
LINE
  8
0
 10
-10.9937
 20
-41.3771
 11
-10.9656
 21
-40.8808
  0
LINE
  8
0
 10
-10.9656
 20
-40.8808
 11
-10.9151
 21
-40.3861
  0
LINE
  8
0
 10
-10.9151
 20
-40.3861
 11
-10.8423
 21
-39.8943
  0
LINE
  8
0
 10
-10.8423
 20
-39.8943
 11
-10.7474
 21
-39.4062
  0
LINE
  8
0
 10
-10.7474
 20
-39.4062
 11
-10.6305
 21
-38.923
  0
LINE
  8
0
 10
-10.6305
 20
-38.923
 11
-10.4919
 21
-38.4455
  0
LINE
  8
0
 10
-10.4919
 20
-38.4455
 11
-10.3319
 21
-37.9748
  0
LINE
  8
0
 10
-10.3319
 20
-37.9748
 11
-10.1507
 21
-37.5118
  0
LINE
  8
0
 10
-10.1507
 20
-37.5118
 11
-9.94885
 21
-37.0574
  0
LINE
  8
0
 10
-9.94885
 20
-37.0574
 11
-9.72664
 21
-36.6127
  0
LINE
  8
0
 10
-9.72664
 20
-36.6127
 11
-9.48457
 21
-36.1784
  0
LINE
  8
0
 10
-9.48457
 20
-36.1784
 11
-9.22311
 21
-35.7555
  0
LINE
  8
0
 10
-9.22311
 20
-35.7555
 11
-8.94281
 21
-35.3448
  0
LINE
  8
0
 10
-8.94281
 20
-35.3448
 11
-8.64424
 21
-34.9473
  0
LINE
  8
0
 10
-8.64424
 20
-34.9473
 11
-8.32802
 21
-34.5636
  0
LINE
  8
0
 10
-8.32802
 20
-34.5636
 11
-7.99478
 21
-34.1946
  0
LINE
  8
0
 10
-7.99478
 20
-34.1946
 11
-7.6452
 21
-33.8411
  0
LINE
  8
0
 10
-7.6452
 20
-33.8411
 11
-7.28001
 21
-33.5037
  0
LINE
  8
0
 10
-7.28001
 20
-33.5037
 11
-6.89995
 21
-33.1832
  0
LINE
  8
0
 10
-6.89995
 20
-33.1832
 11
-6.5058
 21
-32.8801
  0
LINE
  8
0
 10
-6.5058
 20
-32.8801
 11
-6.09834
 21
-32.5952
  0
LINE
  8
0
 10
-6.09834
 20
-32.5952
 11
-5.67844
 21
-32.329
  0
LINE
  8
0
 10
-5.67844
 20
-32.329
 11
-5.24692
 21
-32.082
  0
LINE
  8
0
 10
-5.24692
 20
-32.082
 11
-4.80469
 21
-31.8548
  0
LINE
  8
0
 10
-4.80469
 20
-31.8548
 11
-4.35265
 21
-31.6478
  0
LINE
  8
0
 10
-4.35265
 20
-31.6478
 11
-3.89171
 21
-31.4614
  0
LINE
  8
0
 10
-3.89171
 20
-31.4614
 11
-3.42282
 21
-31.2961
  0
LINE
  8
0
 10
-3.42282
 20
-31.2961
 11
-2.94693
 21
-31.1521
  0
LINE
  8
0
 10
-2.94693
 20
-31.1521
 11
-2.46503
 21
-31.0298
  0
LINE
  8
0
 10
-2.46503
 20
-31.0298
 11
-1.97809
 21
-30.9293
  0
LINE
  8
0
 10
-1.97809
 20
-30.9293
 11
-1.48712
 21
-30.851
  0
LINE
  8
0
 10
-1.48712
 20
-30.851
 11
-0.993103
 21
-30.7949
  0
LINE
  8
0
 10
-0.993103
 20
-30.7949
 11
-0.497055
 21
-30.7612
  0
LINE
  8
0
 10
-0.497055
 20
-30.7612
 11
0
 21
-30.75
  0
LINE
  8
0
 10
0
 20
-30.75
 11
0.497055
 21
-30.7612
  0
LINE
  8
0
 10
0.497055
 20
-30.7612
 11
0.993103
 21
-30.7949
  0
LINE
  8
0
 10
0.993103
 20
-30.7949
 11
1.48712
 21
-30.851
  0
LINE
  8
0
 10
1.48712
 20
-30.851
 11
1.97809
 21
-30.9293
  0
LINE
  8
0
 10
1.97809
 20
-30.9293
 11
2.46503
 21
-31.0298
  0
LINE
  8
0
 10
2.46503
 20
-31.0298
 11
2.94693
 21
-31.1521
  0
LINE
  8
0
 10
2.94693
 20
-31.1521
 11
3.42282
 21
-31.2961
  0
LINE
  8
0
 10
3.42282
 20
-31.2961
 11
3.89171
 21
-31.4614
  0
LINE
  8
0
 10
3.89171
 20
-31.4614
 11
4.35265
 21
-31.6478
  0
LINE
  8
0
 10
4.35265
 20
-31.6478
 11
4.80469
 21
-31.8548
  0
LINE
  8
0
 10
4.80469
 20
-31.8548
 11
5.24692
 21
-32.082
  0
LINE
  8
0
 10
5.24692
 20
-32.082
 11
5.67844
 21
-32.329
  0
LINE
  8
0
 10
5.67844
 20
-32.329
 11
6.09834
 21
-32.5952
  0
LINE
  8
0
 10
6.09834
 20
-32.5952
 11
6.5058
 21
-32.8801
  0
LINE
  8
0
 10
6.5058
 20
-32.8801
 11
6.89995
 21
-33.1832
  0
LINE
  8
0
 10
6.89995
 20
-33.1832
 11
7.28001
 21
-33.5037
  0
LINE
  8
0
 10
7.28001
 20
-33.5037
 11
7.6452
 21
-33.8411
  0
LINE
  8
0
 10
7.6452
 20
-33.8411
 11
7.99478
 21
-34.1946
  0
LINE
  8
0
 10
7.99478
 20
-34.1946
 11
8.32802
 21
-34.5636
  0
LINE
  8
0
 10
8.32802
 20
-34.5636
 11
8.64424
 21
-34.9473
  0
LINE
  8
0
 10
8.64424
 20
-34.9473
 11
8.94281
 21
-35.3448
  0
LINE
  8
0
 10
8.94281
 20
-35.3448
 11
9.22311
 21
-35.7555
  0
LINE
  8
0
 10
9.22311
 20
-35.7555
 11
9.48457
 21
-36.1784
  0
LINE
  8
0
 10
9.48457
 20
-36.1784
 11
9.72664
 21
-36.6127
  0
LINE
  8
0
 10
9.72664
 20
-36.6127
 11
9.94885
 21
-37.0574
  0
LINE
  8
0
 10
9.94885
 20
-37.0574
 11
10.1507
 21
-37.5118
  0
LINE
  8
0
 10
10.1507
 20
-37.5118
 11
10.3319
 21
-37.9748
  0
LINE
  8
0
 10
10.3319
 20
-37.9748
 11
10.4919
 21
-38.4455
  0
LINE
  8
0
 10
10.4919
 20
-38.4455
 11
10.6305
 21
-38.923
  0
LINE
  8
0
 10
10.6305
 20
-38.923
 11
10.7474
 21
-39.4062
  0
LINE
  8
0
 10
10.7474
 20
-39.4062
 11
10.8423
 21
-39.8943
  0
LINE
  8
0
 10
10.8423
 20
-39.8943
 11
10.9151
 21
-40.3861
  0
LINE
  8
0
 10
10.9151
 20
-40.3861
 11
10.9656
 21
-40.8808
  0
LINE
  8
0
 10
10.9656
 20
-40.8808
 11
10.9937
 21
-41.3771
  0
LINE
  8
0
 10
10.9937
 20
-41.3771
 11
10.9993
 21
-41.8743
  0
LINE
  8
0
 10
10.9993
 20
-41.8743
 11
10.9824
 21
-42.3712
  0
LINE
  8
0
 10
10.9824
 20
-42.3712
 11
10.9431
 21
-42.8668
  0
LINE
  8
0
 10
10.9431
 20
-42.8668
 11
10.8815
 21
-43.3602
  0
LINE
  8
0
 10
10.8815
 20
-43.3602
 11
10.7976
 21
-43.8503
  0
LINE
  8
0
 10
10.7976
 20
-43.8503
 11
10.6917
 21
-44.336
  0
LINE
  8
0
 10
10.6917
 20
-44.336
 11
10.5639
 21
-44.8165
  0
LINE
  8
0
 10
10.5639
 20
-44.8165
 11
10.4146
 21
-45.2907
  0
LINE
  8
0
 10
10.4146
 20
-45.2907
 11
10.2439
 21
-45.7577
  0
LINE
  8
0
 10
10.2439
 20
-45.7577
 11
10.0524
 21
-46.2165
  0
LINE
  8
0
 10
10.0524
 20
-46.2165
 11
9.84026
 21
-46.6662
  0
LINE
  8
0
 10
9.84026
 20
-46.6662
 11
9.60806
 21
-47.1058
  0
LINE
  8
0
 10
9.60806
 20
-47.1058
 11
9.35623
 21
-47.5345
  0
LINE
  8
0
 10
9.35623
 20
-47.5345
 11
9.08528
 21
-47.9514
  0
LINE
  8
0
 10
9.08528
 20
-47.9514
 11
8.79578
 21
-48.3556
  0
LINE
  8
0
 10
8.79578
 20
-48.3556
 11
8.4883
 21
-48.7463
  0
LINE
  8
0
 10
8.4883
 20
-48.7463
 11
8.16348
 21
-49.1227
  0
LINE
  8
0
 10
8.16348
 20
-49.1227
 11
7.82199
 21
-49.4841
  0
LINE
  8
0
 10
7.82199
 20
-49.4841
 11
7.46452
 21
-49.8297
  0
LINE
  8
0
 10
7.46452
 20
-49.8297
 11
7.0918
 21
-50.1587
  0
LINE
  8
0
 10
7.0918
 20
-50.1587
 11
6.70459
 21
-50.4706
  0
LINE
  8
0
 10
6.70459
 20
-50.4706
 11
6.30368
 21
-50.7646
  0
LINE
  8
0
 10
6.30368
 20
-50.7646
 11
5.88989
 21
-51.0403
  0
LINE
  8
0
 10
5.88989
 20
-51.0403
 11
5.46407
 21
-51.2969
  0
LINE
  8
0
 10
5.46407
 20
-51.2969
 11
5.02708
 21
-51.5341
  0
LINE
  8
0
 10
5.02708
 20
-51.5341
 11
4.57983
 21
-51.7513
  0
LINE
  8
0
 10
4.57983
 20
-51.7513
 11
4.12323
 21
-51.948
  0
LINE
  8
0
 10
4.12323
 20
-51.948
 11
3.65819
 21
-52.1239
  0
LINE
  8
0
 10
3.65819
 20
-52.1239
 11
3.18568
 21
-52.2786
  0
LINE
  8
0
 10
3.18568
 20
-52.2786
 11
2.70668
 21
-52.4118
  0
LINE
  8
0
 10
2.70668
 20
-52.4118
 11
2.22214
 21
-52.5232
  0
LINE
  8
0
 10
2.22214
 20
-52.5232
 11
1.73305
 21
-52.6126
  0
LINE
  8
0
 10
1.73305
 20
-52.6126
 11
1.24042
 21
-52.6798
  0
LINE
  8
0
 10
1.24042
 20
-52.6798
 11
0.74527
 21
-52.7247
  0
LINE
  8
0
 10
0.74527
 20
-52.7247
 11
0.248581
 21
-52.7472
  0
LINE
  8
0
 10
0.248581
 20
-52.7472
 11
-0.248581
 21
-52.7472
  0
LINE
  8
0
 10
149.751
 20
-52.7472
 11
149.255
 21
-52.7247
  0
LINE
  8
0
 10
149.255
 20
-52.7247
 11
148.76
 21
-52.6798
  0
LINE
  8
0
 10
148.76
 20
-52.6798
 11
148.267
 21
-52.6126
  0
LINE
  8
0
 10
148.267
 20
-52.6126
 11
147.778
 21
-52.5232
  0
LINE
  8
0
 10
147.778
 20
-52.5232
 11
147.293
 21
-52.4118
  0
LINE
  8
0
 10
147.293
 20
-52.4118
 11
146.814
 21
-52.2786
  0
LINE
  8
0
 10
146.814
 20
-52.2786
 11
146.342
 21
-52.1239
  0
LINE
  8
0
 10
146.342
 20
-52.1239
 11
145.877
 21
-51.948
  0
LINE
  8
0
 10
145.877
 20
-51.948
 11
145.42
 21
-51.7513
  0
LINE
  8
0
 10
145.42
 20
-51.7513
 11
144.973
 21
-51.5341
  0
LINE
  8
0
 10
144.973
 20
-51.5341
 11
144.536
 21
-51.2969
  0
LINE
  8
0
 10
144.536
 20
-51.2969
 11
144.11
 21
-51.0403
  0
LINE
  8
0
 10
144.11
 20
-51.0403
 11
143.696
 21
-50.7646
  0
LINE
  8
0
 10
143.696
 20
-50.7646
 11
143.295
 21
-50.4706
  0
LINE
  8
0
 10
143.295
 20
-50.4706
 11
142.908
 21
-50.1587
  0
LINE
  8
0
 10
142.908
 20
-50.1587
 11
142.535
 21
-49.8297
  0
LINE
  8
0
 10
142.535
 20
-49.8297
 11
142.178
 21
-49.4841
  0
LINE
  8
0
 10
142.178
 20
-49.4841
 11
141.837
 21
-49.1227
  0
LINE
  8
0
 10
141.837
 20
-49.1227
 11
141.512
 21
-48.7463
  0
LINE
  8
0
 10
141.512
 20
-48.7463
 11
141.204
 21
-48.3556
  0
LINE
  8
0
 10
141.204
 20
-48.3556
 11
140.915
 21
-47.9514
  0
LINE
  8
0
 10
140.915
 20
-47.9514
 11
140.644
 21
-47.5345
  0
LINE
  8
0
 10
140.644
 20
-47.5345
 11
140.392
 21
-47.1058
  0
LINE
  8
0
 10
140.392
 20
-47.1058
 11
140.16
 21
-46.6662
  0
LINE
  8
0
 10
140.16
 20
-46.6662
 11
139.948
 21
-46.2165
  0
LINE
  8
0
 10
139.948
 20
-46.2165
 11
139.756
 21
-45.7577
  0
LINE
  8
0
 10
139.756
 20
-45.7577
 11
139.585
 21
-45.2907
  0
LINE
  8
0
 10
139.585
 20
-45.2907
 11
139.436
 21
-44.8165
  0
LINE
  8
0
 10
139.436
 20
-44.8165
 11
139.308
 21
-44.336
  0
LINE
  8
0
 10
139.308
 20
-44.336
 11
139.202
 21
-43.8503
  0
LINE
  8
0
 10
139.202
 20
-43.8503
 11
139.118
 21
-43.3602
  0
LINE
  8
0
 10
139.118
 20
-43.3602
 11
139.057
 21
-42.8668
  0
LINE
  8
0
 10
139.057
 20
-42.8668
 11
139.018
 21
-42.3712
  0
LINE
  8
0
 10
139.018
 20
-42.3712
 11
139.001
 21
-41.8743
  0
LINE
  8
0
 10
139.001
 20
-41.8743
 11
139.006
 21
-41.3771
  0
LINE
  8
0
 10
139.006
 20
-41.3771
 11
139.034
 21
-40.8808
  0
LINE
  8
0
 10
139.034
 20
-40.8808
 11
139.085
 21
-40.3861
  0
LINE
  8
0
 10
139.085
 20
-40.3861
 11
139.158
 21
-39.8943
  0
LINE
  8
0
 10
139.158
 20
-39.8943
 11
139.253
 21
-39.4062
  0
LINE
  8
0
 10
139.253
 20
-39.4062
 11
139.369
 21
-38.923
  0
LINE
  8
0
 10
139.369
 20
-38.923
 11
139.508
 21
-38.4455
  0
LINE
  8
0
 10
139.508
 20
-38.4455
 11
139.668
 21
-37.9748
  0
LINE
  8
0
 10
139.668
 20
-37.9748
 11
139.849
 21
-37.5118
  0
LINE
  8
0
 10
139.849
 20
-37.5118
 11
140.051
 21
-37.0574
  0
LINE
  8
0
 10
140.051
 20
-37.0574
 11
140.273
 21
-36.6127
  0
LINE
  8
0
 10
140.273
 20
-36.6127
 11
140.515
 21
-36.1784
  0
LINE
  8
0
 10
140.515
 20
-36.1784
 11
140.777
 21
-35.7555
  0
LINE
  8
0
 10
140.777
 20
-35.7555
 11
141.057
 21
-35.3448
  0
LINE
  8
0
 10
141.057
 20
-35.3448
 11
141.356
 21
-34.9473
  0
LINE
  8
0
 10
141.356
 20
-34.9473
 11
141.672
 21
-34.5636
  0
LINE
  8
0
 10
141.672
 20
-34.5636
 11
142.005
 21
-34.1946
  0
LINE
  8
0
 10
142.005
 20
-34.1946
 11
142.355
 21
-33.8411
  0
LINE
  8
0
 10
142.355
 20
-33.8411
 11
142.72
 21
-33.5037
  0
LINE
  8
0
 10
142.72
 20
-33.5037
 11
143.1
 21
-33.1832
  0
LINE
  8
0
 10
143.1
 20
-33.1832
 11
143.494
 21
-32.8801
  0
LINE
  8
0
 10
143.494
 20
-32.8801
 11
143.902
 21
-32.5952
  0
LINE
  8
0
 10
143.902
 20
-32.5952
 11
144.322
 21
-32.329
  0
LINE
  8
0
 10
144.322
 20
-32.329
 11
144.753
 21
-32.082
  0
LINE
  8
0
 10
144.753
 20
-32.082
 11
145.195
 21
-31.8548
  0
LINE
  8
0
 10
145.195
 20
-31.8548
 11
145.647
 21
-31.6478
  0
LINE
  8
0
 10
145.647
 20
-31.6478
 11
146.108
 21
-31.4614
  0
LINE
  8
0
 10
146.108
 20
-31.4614
 11
146.577
 21
-31.2961
  0
LINE
  8
0
 10
146.577
 20
-31.2961
 11
147.053
 21
-31.1521
  0
LINE
  8
0
 10
147.053
 20
-31.1521
 11
147.535
 21
-31.0298
  0
LINE
  8
0
 10
147.535
 20
-31.0298
 11
148.022
 21
-30.9293
  0
LINE
  8
0
 10
148.022
 20
-30.9293
 11
148.513
 21
-30.851
  0
LINE
  8
0
 10
148.513
 20
-30.851
 11
149.007
 21
-30.7949
  0
LINE
  8
0
 10
149.007
 20
-30.7949
 11
149.503
 21
-30.7612
  0
LINE
  8
0
 10
149.503
 20
-30.7612
 11
150
 21
-30.75
  0
LINE
  8
0
 10
150
 20
-30.75
 11
150.497
 21
-30.7612
  0
LINE
  8
0
 10
150.497
 20
-30.7612
 11
150.993
 21
-30.7949
  0
LINE
  8
0
 10
150.993
 20
-30.7949
 11
151.487
 21
-30.851
  0
LINE
  8
0
 10
151.487
 20
-30.851
 11
151.978
 21
-30.9293
  0
LINE
  8
0
 10
151.978
 20
-30.9293
 11
152.465
 21
-31.0298
  0
LINE
  8
0
 10
152.465
 20
-31.0298
 11
152.947
 21
-31.1521
  0
LINE
  8
0
 10
152.947
 20
-31.1521
 11
153.423
 21
-31.2961
  0
LINE
  8
0
 10
153.423
 20
-31.2961
 11
153.892
 21
-31.4614
  0
LINE
  8
0
 10
153.892
 20
-31.4614
 11
154.353
 21
-31.6478
  0
LINE
  8
0
 10
154.353
 20
-31.6478
 11
154.805
 21
-31.8548
  0
LINE
  8
0
 10
154.805
 20
-31.8548
 11
155.247
 21
-32.082
  0
LINE
  8
0
 10
155.247
 20
-32.082
 11
155.678
 21
-32.329
  0
LINE
  8
0
 10
155.678
 20
-32.329
 11
156.098
 21
-32.5952
  0
LINE
  8
0
 10
156.098
 20
-32.5952
 11
156.506
 21
-32.8801
  0
LINE
  8
0
 10
156.506
 20
-32.8801
 11
156.9
 21
-33.1832
  0
LINE
  8
0
 10
156.9
 20
-33.1832
 11
157.28
 21
-33.5037
  0
LINE
  8
0
 10
157.28
 20
-33.5037
 11
157.645
 21
-33.8411
  0
LINE
  8
0
 10
157.645
 20
-33.8411
 11
157.995
 21
-34.1946
  0
LINE
  8
0
 10
157.995
 20
-34.1946
 11
158.328
 21
-34.5636
  0
LINE
  8
0
 10
158.328
 20
-34.5636
 11
158.644
 21
-34.9473
  0
LINE
  8
0
 10
158.644
 20
-34.9473
 11
158.943
 21
-35.3448
  0
LINE
  8
0
 10
158.943
 20
-35.3448
 11
159.223
 21
-35.7555
  0
LINE
  8
0
 10
159.223
 20
-35.7555
 11
159.485
 21
-36.1784
  0
LINE
  8
0
 10
159.485
 20
-36.1784
 11
159.727
 21
-36.6127
  0
LINE
  8
0
 10
159.727
 20
-36.6127
 11
159.949
 21
-37.0574
  0
LINE
  8
0
 10
159.949
 20
-37.0574
 11
160.151
 21
-37.5118
  0
LINE
  8
0
 10
160.151
 20
-37.5118
 11
160.332
 21
-37.9748
  0
LINE
  8
0
 10
160.332
 20
-37.9748
 11
160.492
 21
-38.4455
  0
LINE
  8
0
 10
160.492
 20
-38.4455
 11
160.631
 21
-38.923
  0
LINE
  8
0
 10
160.631
 20
-38.923
 11
160.747
 21
-39.4062
  0
LINE
  8
0
 10
160.747
 20
-39.4062
 11
160.842
 21
-39.8943
  0
LINE
  8
0
 10
160.842
 20
-39.8943
 11
160.915
 21
-40.3861
  0
LINE
  8
0
 10
160.915
 20
-40.3861
 11
160.966
 21
-40.8808
  0
LINE
  8
0
 10
160.966
 20
-40.8808
 11
160.994
 21
-41.3771
  0
LINE
  8
0
 10
160.994
 20
-41.3771
 11
160.999
 21
-41.8743
  0
LINE
  8
0
 10
160.999
 20
-41.8743
 11
160.982
 21
-42.3712
  0
LINE
  8
0
 10
160.982
 20
-42.3712
 11
160.943
 21
-42.8668
  0
LINE
  8
0
 10
160.943
 20
-42.8668
 11
160.882
 21
-43.3602
  0
LINE
  8
0
 10
160.882
 20
-43.3602
 11
160.798
 21
-43.8503
  0
LINE
  8
0
 10
160.798
 20
-43.8503
 11
160.692
 21
-44.336
  0
LINE
  8
0
 10
160.692
 20
-44.336
 11
160.564
 21
-44.8165
  0
LINE
  8
0
 10
160.564
 20
-44.8165
 11
160.415
 21
-45.2907
  0
LINE
  8
0
 10
160.415
 20
-45.2907
 11
160.244
 21
-45.7577
  0
LINE
  8
0
 10
160.244
 20
-45.7577
 11
160.052
 21
-46.2165
  0
LINE
  8
0
 10
160.052
 20
-46.2165
 11
159.84
 21
-46.6662
  0
LINE
  8
0
 10
159.84
 20
-46.6662
 11
159.608
 21
-47.1058
  0
LINE
  8
0
 10
159.608
 20
-47.1058
 11
159.356
 21
-47.5345
  0
LINE
  8
0
 10
159.356
 20
-47.5345
 11
159.085
 21
-47.9514
  0
LINE
  8
0
 10
159.085
 20
-47.9514
 11
158.796
 21
-48.3556
  0
LINE
  8
0
 10
158.796
 20
-48.3556
 11
158.488
 21
-48.7463
  0
LINE
  8
0
 10
158.488
 20
-48.7463
 11
158.163
 21
-49.1227
  0
LINE
  8
0
 10
158.163
 20
-49.1227
 11
157.822
 21
-49.4841
  0
LINE
  8
0
 10
157.822
 20
-49.4841
 11
157.465
 21
-49.8297
  0
LINE
  8
0
 10
157.465
 20
-49.8297
 11
157.092
 21
-50.1587
  0
LINE
  8
0
 10
157.092
 20
-50.1587
 11
156.705
 21
-50.4706
  0
LINE
  8
0
 10
156.705
 20
-50.4706
 11
156.304
 21
-50.7646
  0
LINE
  8
0
 10
156.304
 20
-50.7646
 11
155.89
 21
-51.0403
  0
LINE
  8
0
 10
155.89
 20
-51.0403
 11
155.464
 21
-51.2969
  0
LINE
  8
0
 10
155.464
 20
-51.2969
 11
155.027
 21
-51.5341
  0
LINE
  8
0
 10
155.027
 20
-51.5341
 11
154.58
 21
-51.7513
  0
LINE
  8
0
 10
154.58
 20
-51.7513
 11
154.123
 21
-51.948
  0
LINE
  8
0
 10
154.123
 20
-51.948
 11
153.658
 21
-52.1239
  0
LINE
  8
0
 10
153.658
 20
-52.1239
 11
153.186
 21
-52.2786
  0
LINE
  8
0
 10
153.186
 20
-52.2786
 11
152.707
 21
-52.4118
  0
LINE
  8
0
 10
152.707
 20
-52.4118
 11
152.222
 21
-52.5232
  0
LINE
  8
0
 10
152.222
 20
-52.5232
 11
151.733
 21
-52.6126
  0
LINE
  8
0
 10
151.733
 20
-52.6126
 11
151.24
 21
-52.6798
  0
LINE
  8
0
 10
151.24
 20
-52.6798
 11
150.745
 21
-52.7247
  0
LINE
  8
0
 10
150.745
 20
-52.7247
 11
150.249
 21
-52.7472
  0
LINE
  8
0
 10
150.249
 20
-52.7472
 11
149.751
 21
-52.7472
  0
LINE
  8
0
 10
-150.249
 20
-52.7472
 11
-150.745
 21
-52.7247
  0
LINE
  8
0
 10
-150.745
 20
-52.7247
 11
-151.24
 21
-52.6798
  0
LINE
  8
0
 10
-151.24
 20
-52.6798
 11
-151.733
 21
-52.6126
  0
LINE
  8
0
 10
-151.733
 20
-52.6126
 11
-152.222
 21
-52.5232
  0
LINE
  8
0
 10
-152.222
 20
-52.5232
 11
-152.707
 21
-52.4118
  0
LINE
  8
0
 10
-152.707
 20
-52.4118
 11
-153.186
 21
-52.2786
  0
LINE
  8
0
 10
-153.186
 20
-52.2786
 11
-153.658
 21
-52.1239
  0
LINE
  8
0
 10
-153.658
 20
-52.1239
 11
-154.123
 21
-51.948
  0
LINE
  8
0
 10
-154.123
 20
-51.948
 11
-154.58
 21
-51.7513
  0
LINE
  8
0
 10
-154.58
 20
-51.7513
 11
-155.027
 21
-51.5341
  0
LINE
  8
0
 10
-155.027
 20
-51.5341
 11
-155.464
 21
-51.2969
  0
LINE
  8
0
 10
-155.464
 20
-51.2969
 11
-155.89
 21
-51.0403
  0
LINE
  8
0
 10
-155.89
 20
-51.0403
 11
-156.304
 21
-50.7646
  0
LINE
  8
0
 10
-156.304
 20
-50.7646
 11
-156.705
 21
-50.4706
  0
LINE
  8
0
 10
-156.705
 20
-50.4706
 11
-157.092
 21
-50.1587
  0
LINE
  8
0
 10
-157.092
 20
-50.1587
 11
-157.465
 21
-49.8297
  0
LINE
  8
0
 10
-157.465
 20
-49.8297
 11
-157.822
 21
-49.4841
  0
LINE
  8
0
 10
-157.822
 20
-49.4841
 11
-158.163
 21
-49.1227
  0
LINE
  8
0
 10
-158.163
 20
-49.1227
 11
-158.488
 21
-48.7463
  0
LINE
  8
0
 10
-158.488
 20
-48.7463
 11
-158.796
 21
-48.3556
  0
LINE
  8
0
 10
-158.796
 20
-48.3556
 11
-159.085
 21
-47.9514
  0
LINE
  8
0
 10
-159.085
 20
-47.9514
 11
-159.356
 21
-47.5345
  0
LINE
  8
0
 10
-159.356
 20
-47.5345
 11
-159.608
 21
-47.1058
  0
LINE
  8
0
 10
-159.608
 20
-47.1058
 11
-159.84
 21
-46.6662
  0
LINE
  8
0
 10
-159.84
 20
-46.6662
 11
-160.052
 21
-46.2165
  0
LINE
  8
0
 10
-160.052
 20
-46.2165
 11
-160.244
 21
-45.7577
  0
LINE
  8
0
 10
-160.244
 20
-45.7577
 11
-160.415
 21
-45.2907
  0
LINE
  8
0
 10
-160.415
 20
-45.2907
 11
-160.564
 21
-44.8165
  0
LINE
  8
0
 10
-160.564
 20
-44.8165
 11
-160.692
 21
-44.336
  0
LINE
  8
0
 10
-160.692
 20
-44.336
 11
-160.798
 21
-43.8503
  0
LINE
  8
0
 10
-160.798
 20
-43.8503
 11
-160.882
 21
-43.3602
  0
LINE
  8
0
 10
-160.882
 20
-43.3602
 11
-160.943
 21
-42.8668
  0
LINE
  8
0
 10
-160.943
 20
-42.8668
 11
-160.982
 21
-42.3712
  0
LINE
  8
0
 10
-160.982
 20
-42.3712
 11
-160.999
 21
-41.8743
  0
LINE
  8
0
 10
-160.999
 20
-41.8743
 11
-160.994
 21
-41.3771
  0
LINE
  8
0
 10
-160.994
 20
-41.3771
 11
-160.966
 21
-40.8808
  0
LINE
  8
0
 10
-160.966
 20
-40.8808
 11
-160.915
 21
-40.3861
  0
LINE
  8
0
 10
-160.915
 20
-40.3861
 11
-160.842
 21
-39.8943
  0
LINE
  8
0
 10
-160.842
 20
-39.8943
 11
-160.747
 21
-39.4062
  0
LINE
  8
0
 10
-160.747
 20
-39.4062
 11
-160.631
 21
-38.923
  0
LINE
  8
0
 10
-160.631
 20
-38.923
 11
-160.492
 21
-38.4455
  0
LINE
  8
0
 10
-160.492
 20
-38.4455
 11
-160.332
 21
-37.9748
  0
LINE
  8
0
 10
-160.332
 20
-37.9748
 11
-160.151
 21
-37.5118
  0
LINE
  8
0
 10
-160.151
 20
-37.5118
 11
-159.949
 21
-37.0574
  0
LINE
  8
0
 10
-159.949
 20
-37.0574
 11
-159.727
 21
-36.6127
  0
LINE
  8
0
 10
-159.727
 20
-36.6127
 11
-159.485
 21
-36.1784
  0
LINE
  8
0
 10
-159.485
 20
-36.1784
 11
-159.223
 21
-35.7555
  0
LINE
  8
0
 10
-159.223
 20
-35.7555
 11
-158.943
 21
-35.3448
  0
LINE
  8
0
 10
-158.943
 20
-35.3448
 11
-158.644
 21
-34.9473
  0
LINE
  8
0
 10
-158.644
 20
-34.9473
 11
-158.328
 21
-34.5636
  0
LINE
  8
0
 10
-158.328
 20
-34.5636
 11
-157.995
 21
-34.1946
  0
LINE
  8
0
 10
-157.995
 20
-34.1946
 11
-157.645
 21
-33.8411
  0
LINE
  8
0
 10
-157.645
 20
-33.8411
 11
-157.28
 21
-33.5037
  0
LINE
  8
0
 10
-157.28
 20
-33.5037
 11
-156.9
 21
-33.1832
  0
LINE
  8
0
 10
-156.9
 20
-33.1832
 11
-156.506
 21
-32.8801
  0
LINE
  8
0
 10
-156.506
 20
-32.8801
 11
-156.098
 21
-32.5952
  0
LINE
  8
0
 10
-156.098
 20
-32.5952
 11
-155.678
 21
-32.329
  0
LINE
  8
0
 10
-155.678
 20
-32.329
 11
-155.247
 21
-32.082
  0
LINE
  8
0
 10
-155.247
 20
-32.082
 11
-154.805
 21
-31.8548
  0
LINE
  8
0
 10
-154.805
 20
-31.8548
 11
-154.353
 21
-31.6478
  0
LINE
  8
0
 10
-154.353
 20
-31.6478
 11
-153.892
 21
-31.4614
  0
LINE
  8
0
 10
-153.892
 20
-31.4614
 11
-153.423
 21
-31.2961
  0
LINE
  8
0
 10
-153.423
 20
-31.2961
 11
-152.947
 21
-31.1521
  0
LINE
  8
0
 10
-152.947
 20
-31.1521
 11
-152.465
 21
-31.0298
  0
LINE
  8
0
 10
-152.465
 20
-31.0298
 11
-151.978
 21
-30.9293
  0
LINE
  8
0
 10
-151.978
 20
-30.9293
 11
-151.487
 21
-30.851
  0
LINE
  8
0
 10
-151.487
 20
-30.851
 11
-150.993
 21
-30.7949
  0
LINE
  8
0
 10
-150.993
 20
-30.7949
 11
-150.497
 21
-30.7612
  0
LINE
  8
0
 10
-150.497
 20
-30.7612
 11
-150
 21
-30.75
  0
LINE
  8
0
 10
-150
 20
-30.75
 11
-149.503
 21
-30.7612
  0
LINE
  8
0
 10
-149.503
 20
-30.7612
 11
-149.007
 21
-30.7949
  0
LINE
  8
0
 10
-149.007
 20
-30.7949
 11
-148.513
 21
-30.851
  0
LINE
  8
0
 10
-148.513
 20
-30.851
 11
-148.022
 21
-30.9293
  0
LINE
  8
0
 10
-148.022
 20
-30.9293
 11
-147.535
 21
-31.0298
  0
LINE
  8
0
 10
-147.535
 20
-31.0298
 11
-147.053
 21
-31.1521
  0
LINE
  8
0
 10
-147.053
 20
-31.1521
 11
-146.577
 21
-31.2961
  0
LINE
  8
0
 10
-146.577
 20
-31.2961
 11
-146.108
 21
-31.4614
  0
LINE
  8
0
 10
-146.108
 20
-31.4614
 11
-145.647
 21
-31.6478
  0
LINE
  8
0
 10
-145.647
 20
-31.6478
 11
-145.195
 21
-31.8548
  0
LINE
  8
0
 10
-145.195
 20
-31.8548
 11
-144.753
 21
-32.082
  0
LINE
  8
0
 10
-144.753
 20
-32.082
 11
-144.322
 21
-32.329
  0
LINE
  8
0
 10
-144.322
 20
-32.329
 11
-143.902
 21
-32.5952
  0
LINE
  8
0
 10
-143.902
 20
-32.5952
 11
-143.494
 21
-32.8801
  0
LINE
  8
0
 10
-143.494
 20
-32.8801
 11
-143.1
 21
-33.1832
  0
LINE
  8
0
 10
-143.1
 20
-33.1832
 11
-142.72
 21
-33.5037
  0
LINE
  8
0
 10
-142.72
 20
-33.5037
 11
-142.355
 21
-33.8411
  0
LINE
  8
0
 10
-142.355
 20
-33.8411
 11
-142.005
 21
-34.1946
  0
LINE
  8
0
 10
-142.005
 20
-34.1946
 11
-141.672
 21
-34.5636
  0
LINE
  8
0
 10
-141.672
 20
-34.5636
 11
-141.356
 21
-34.9473
  0
LINE
  8
0
 10
-141.356
 20
-34.9473
 11
-141.057
 21
-35.3448
  0
LINE
  8
0
 10
-141.057
 20
-35.3448
 11
-140.777
 21
-35.7555
  0
LINE
  8
0
 10
-140.777
 20
-35.7555
 11
-140.515
 21
-36.1784
  0
LINE
  8
0
 10
-140.515
 20
-36.1784
 11
-140.273
 21
-36.6127
  0
LINE
  8
0
 10
-140.273
 20
-36.6127
 11
-140.051
 21
-37.0574
  0
LINE
  8
0
 10
-140.051
 20
-37.0574
 11
-139.849
 21
-37.5118
  0
LINE
  8
0
 10
-139.849
 20
-37.5118
 11
-139.668
 21
-37.9748
  0
LINE
  8
0
 10
-139.668
 20
-37.9748
 11
-139.508
 21
-38.4455
  0
LINE
  8
0
 10
-139.508
 20
-38.4455
 11
-139.369
 21
-38.923
  0
LINE
  8
0
 10
-139.369
 20
-38.923
 11
-139.253
 21
-39.4062
  0
LINE
  8
0
 10
-139.253
 20
-39.4062
 11
-139.158
 21
-39.8943
  0
LINE
  8
0
 10
-139.158
 20
-39.8943
 11
-139.085
 21
-40.3861
  0
LINE
  8
0
 10
-139.085
 20
-40.3861
 11
-139.034
 21
-40.8808
  0
LINE
  8
0
 10
-139.034
 20
-40.8808
 11
-139.006
 21
-41.3771
  0
LINE
  8
0
 10
-139.006
 20
-41.3771
 11
-139.001
 21
-41.8743
  0
LINE
  8
0
 10
-139.001
 20
-41.8743
 11
-139.018
 21
-42.3712
  0
LINE
  8
0
 10
-139.018
 20
-42.3712
 11
-139.057
 21
-42.8668
  0
LINE
  8
0
 10
-139.057
 20
-42.8668
 11
-139.118
 21
-43.3602
  0
LINE
  8
0
 10
-139.118
 20
-43.3602
 11
-139.202
 21
-43.8503
  0
LINE
  8
0
 10
-139.202
 20
-43.8503
 11
-139.308
 21
-44.336
  0
LINE
  8
0
 10
-139.308
 20
-44.336
 11
-139.436
 21
-44.8165
  0
LINE
  8
0
 10
-139.436
 20
-44.8165
 11
-139.585
 21
-45.2907
  0
LINE
  8
0
 10
-139.585
 20
-45.2907
 11
-139.756
 21
-45.7577
  0
LINE
  8
0
 10
-139.756
 20
-45.7577
 11
-139.948
 21
-46.2165
  0
LINE
  8
0
 10
-139.948
 20
-46.2165
 11
-140.16
 21
-46.6662
  0
LINE
  8
0
 10
-140.16
 20
-46.6662
 11
-140.392
 21
-47.1058
  0
LINE
  8
0
 10
-140.392
 20
-47.1058
 11
-140.644
 21
-47.5345
  0
LINE
  8
0
 10
-140.644
 20
-47.5345
 11
-140.915
 21
-47.9514
  0
LINE
  8
0
 10
-140.915
 20
-47.9514
 11
-141.204
 21
-48.3556
  0
LINE
  8
0
 10
-141.204
 20
-48.3556
 11
-141.512
 21
-48.7463
  0
LINE
  8
0
 10
-141.512
 20
-48.7463
 11
-141.837
 21
-49.1227
  0
LINE
  8
0
 10
-141.837
 20
-49.1227
 11
-142.178
 21
-49.4841
  0
LINE
  8
0
 10
-142.178
 20
-49.4841
 11
-142.535
 21
-49.8297
  0
LINE
  8
0
 10
-142.535
 20
-49.8297
 11
-142.908
 21
-50.1587
  0
LINE
  8
0
 10
-142.908
 20
-50.1587
 11
-143.295
 21
-50.4706
  0
LINE
  8
0
 10
-143.295
 20
-50.4706
 11
-143.696
 21
-50.7646
  0
LINE
  8
0
 10
-143.696
 20
-50.7646
 11
-144.11
 21
-51.0403
  0
LINE
  8
0
 10
-144.11
 20
-51.0403
 11
-144.536
 21
-51.2969
  0
LINE
  8
0
 10
-144.536
 20
-51.2969
 11
-144.973
 21
-51.5341
  0
LINE
  8
0
 10
-144.973
 20
-51.5341
 11
-145.42
 21
-51.7513
  0
LINE
  8
0
 10
-145.42
 20
-51.7513
 11
-145.877
 21
-51.948
  0
LINE
  8
0
 10
-145.877
 20
-51.948
 11
-146.342
 21
-52.1239
  0
LINE
  8
0
 10
-146.342
 20
-52.1239
 11
-146.814
 21
-52.2786
  0
LINE
  8
0
 10
-146.814
 20
-52.2786
 11
-147.293
 21
-52.4118
  0
LINE
  8
0
 10
-147.293
 20
-52.4118
 11
-147.778
 21
-52.5232
  0
LINE
  8
0
 10
-147.778
 20
-52.5232
 11
-148.267
 21
-52.6126
  0
LINE
  8
0
 10
-148.267
 20
-52.6126
 11
-148.76
 21
-52.6798
  0
LINE
  8
0
 10
-148.76
 20
-52.6798
 11
-149.255
 21
-52.7247
  0
LINE
  8
0
 10
-149.255
 20
-52.7247
 11
-149.751
 21
-52.7472
  0
LINE
  8
0
 10
-149.751
 20
-52.7472
 11
-150.249
 21
-52.7472
  0
LINE
  8
0
 10
97.7508
 20
-46.7438
 11
97.2548
 21
-46.6942
  0
LINE
  8
0
 10
97.2548
 20
-46.6942
 11
96.7662
 21
-46.5954
  0
LINE
  8
0
 10
96.7662
 20
-46.5954
 11
96.2899
 21
-46.4485
  0
LINE
  8
0
 10
96.2899
 20
-46.4485
 11
95.8306
 21
-46.2548
  0
LINE
  8
0
 10
95.8306
 20
-46.2548
 11
95.3928
 21
-46.0164
  0
LINE
  8
0
 10
95.3928
 20
-46.0164
 11
94.981
 21
-45.7357
  0
LINE
  8
0
 10
94.981
 20
-45.7357
 11
94.5991
 21
-45.4153
  0
LINE
  8
0
 10
94.5991
 20
-45.4153
 11
94.2511
 21
-45.0584
  0
LINE
  8
0
 10
94.2511
 20
-45.0584
 11
93.9403
 21
-44.6687
  0
LINE
  8
0
 10
93.9403
 20
-44.6687
 11
93.6699
 21
-44.25
  0
LINE
  8
0
 10
93.6699
 20
-44.25
 11
93.4425
 21
-43.8064
  0
LINE
  8
0
 10
93.4425
 20
-43.8064
 11
93.2604
 21
-43.3424
  0
LINE
  8
0
 10
93.2604
 20
-43.3424
 11
93.1254
 21
-42.8626
  0
LINE
  8
0
 10
93.1254
 20
-42.8626
 11
93.0388
 21
-42.3717
  0
LINE
  8
0
 10
93.0388
 20
-42.3717
 11
93.0016
 21
-41.8746
  0
LINE
  8
0
 10
93.0016
 20
-41.8746
 11
93.014
 21
-41.3763
  0
LINE
  8
0
 10
93.014
 20
-41.3763
 11
93.076
 21
-40.8818
  0
LINE
  8
0
 10
93.076
 20
-40.8818
 11
93.1869
 21
-40.3958
  0
LINE
  8
0
 10
93.1869
 20
-40.3958
 11
93.3456
 21
-39.9233
  0
LINE
  8
0
 10
93.3456
 20
-39.9233
 11
93.5506
 21
-39.4689
  0
LINE
  8
0
 10
93.5506
 20
-39.4689
 11
93.7999
 21
-39.0373
  0
LINE
  8
0
 10
93.7999
 20
-39.0373
 11
94.0908
 21
-38.6325
  0
LINE
  8
0
 10
94.0908
 20
-38.6325
 11
94.4207
 21
-38.2588
  0
LINE
  8
0
 10
94.4207
 20
-38.2588
 11
94.7861
 21
-37.9198
  0
LINE
  8
0
 10
94.7861
 20
-37.9198
 11
95.1834
 21
-37.6188
  0
LINE
  8
0
 10
95.1834
 20
-37.6188
 11
95.6087
 21
-37.3589
  0
LINE
  8
0
 10
95.6087
 20
-37.3589
 11
96.0578
 21
-37.1426
  0
LINE
  8
0
 10
96.0578
 20
-37.1426
 11
96.5262
 21
-36.9721
  0
LINE
  8
0
 10
96.5262
 20
-36.9721
 11
97.0093
 21
-36.8491
  0
LINE
  8
0
 10
97.0093
 20
-36.8491
 11
97.5022
 21
-36.7748
  0
LINE
  8
0
 10
97.5022
 20
-36.7748
 11
98
 21
-36.75
  0
LINE
  8
0
 10
98
 20
-36.75
 11
98.4978
 21
-36.7748
  0
LINE
  8
0
 10
98.4978
 20
-36.7748
 11
98.9907
 21
-36.8491
  0
LINE
  8
0
 10
98.9907
 20
-36.8491
 11
99.4738
 21
-36.9721
  0
LINE
  8
0
 10
99.4738
 20
-36.9721
 11
99.9422
 21
-37.1426
  0
LINE
  8
0
 10
99.9422
 20
-37.1426
 11
100.391
 21
-37.3589
  0
LINE
  8
0
 10
100.391
 20
-37.3589
 11
100.817
 21
-37.6188
  0
LINE
  8
0
 10
100.817
 20
-37.6188
 11
101.214
 21
-37.9198
  0
LINE
  8
0
 10
101.214
 20
-37.9198
 11
101.579
 21
-38.2588
  0
LINE
  8
0
 10
101.579
 20
-38.2588
 11
101.909
 21
-38.6325
  0
LINE
  8
0
 10
101.909
 20
-38.6325
 11
102.2
 21
-39.0373
  0
LINE
  8
0
 10
102.2
 20
-39.0373
 11
102.449
 21
-39.4689
  0
LINE
  8
0
 10
102.449
 20
-39.4689
 11
102.654
 21
-39.9233
  0
LINE
  8
0
 10
102.654
 20
-39.9233
 11
102.813
 21
-40.3958
  0
LINE
  8
0
 10
102.813
 20
-40.3958
 11
102.924
 21
-40.8818
  0
LINE
  8
0
 10
102.924
 20
-40.8818
 11
102.986
 21
-41.3763
  0
LINE
  8
0
 10
102.986
 20
-41.3763
 11
102.998
 21
-41.8746
  0
LINE
  8
0
 10
102.998
 20
-41.8746
 11
102.961
 21
-42.3717
  0
LINE
  8
0
 10
102.961
 20
-42.3717
 11
102.875
 21
-42.8626
  0
LINE
  8
0
 10
102.875
 20
-42.8626
 11
102.74
 21
-43.3424
  0
LINE
  8
0
 10
102.74
 20
-43.3424
 11
102.558
 21
-43.8064
  0
LINE
  8
0
 10
102.558
 20
-43.8064
 11
102.33
 21
-44.25
  0
LINE
  8
0
 10
102.33
 20
-44.25
 11
102.06
 21
-44.6687
  0
LINE
  8
0
 10
102.06
 20
-44.6687
 11
101.749
 21
-45.0584
  0
LINE
  8
0
 10
101.749
 20
-45.0584
 11
101.401
 21
-45.4153
  0
LINE
  8
0
 10
101.401
 20
-45.4153
 11
101.019
 21
-45.7357
  0
LINE
  8
0
 10
101.019
 20
-45.7357
 11
100.607
 21
-46.0164
  0
LINE
  8
0
 10
100.607
 20
-46.0164
 11
100.169
 21
-46.2548
  0
LINE
  8
0
 10
100.169
 20
-46.2548
 11
99.7101
 21
-46.4485
  0
LINE
  8
0
 10
99.7101
 20
-46.4485
 11
99.2338
 21
-46.5954
  0
LINE
  8
0
 10
99.2338
 20
-46.5954
 11
98.7452
 21
-46.6942
  0
LINE
  8
0
 10
98.7452
 20
-46.6942
 11
98.2492
 21
-46.7438
  0
LINE
  8
0
 10
98.2492
 20
-46.7438
 11
97.7508
 21
-46.7438
  0
LINE
  8
0
 10
-98.2492
 20
-46.7438
 11
-98.7452
 21
-46.6942
  0
LINE
  8
0
 10
-98.7452
 20
-46.6942
 11
-99.2338
 21
-46.5954
  0
LINE
  8
0
 10
-99.2338
 20
-46.5954
 11
-99.7101
 21
-46.4485
  0
LINE
  8
0
 10
-99.7101
 20
-46.4485
 11
-100.169
 21
-46.2548
  0
LINE
  8
0
 10
-100.169
 20
-46.2548
 11
-100.607
 21
-46.0164
  0
LINE
  8
0
 10
-100.607
 20
-46.0164
 11
-101.019
 21
-45.7357
  0
LINE
  8
0
 10
-101.019
 20
-45.7357
 11
-101.401
 21
-45.4153
  0
LINE
  8
0
 10
-101.401
 20
-45.4153
 11
-101.749
 21
-45.0584
  0
LINE
  8
0
 10
-101.749
 20
-45.0584
 11
-102.06
 21
-44.6687
  0
LINE
  8
0
 10
-102.06
 20
-44.6687
 11
-102.33
 21
-44.25
  0
LINE
  8
0
 10
-102.33
 20
-44.25
 11
-102.558
 21
-43.8064
  0
LINE
  8
0
 10
-102.558
 20
-43.8064
 11
-102.74
 21
-43.3424
  0
LINE
  8
0
 10
-102.74
 20
-43.3424
 11
-102.875
 21
-42.8626
  0
LINE
  8
0
 10
-102.875
 20
-42.8626
 11
-102.961
 21
-42.3717
  0
LINE
  8
0
 10
-102.961
 20
-42.3717
 11
-102.998
 21
-41.8746
  0
LINE
  8
0
 10
-102.998
 20
-41.8746
 11
-102.986
 21
-41.3763
  0
LINE
  8
0
 10
-102.986
 20
-41.3763
 11
-102.924
 21
-40.8818
  0
LINE
  8
0
 10
-102.924
 20
-40.8818
 11
-102.813
 21
-40.3958
  0
LINE
  8
0
 10
-102.813
 20
-40.3958
 11
-102.654
 21
-39.9233
  0
LINE
  8
0
 10
-102.654
 20
-39.9233
 11
-102.449
 21
-39.4689
  0
LINE
  8
0
 10
-102.449
 20
-39.4689
 11
-102.2
 21
-39.0373
  0
LINE
  8
0
 10
-102.2
 20
-39.0373
 11
-101.909
 21
-38.6325
  0
LINE
  8
0
 10
-101.909
 20
-38.6325
 11
-101.579
 21
-38.2588
  0
LINE
  8
0
 10
-101.579
 20
-38.2588
 11
-101.214
 21
-37.9198
  0
LINE
  8
0
 10
-101.214
 20
-37.9198
 11
-100.817
 21
-37.6188
  0
LINE
  8
0
 10
-100.817
 20
-37.6188
 11
-100.391
 21
-37.3589
  0
LINE
  8
0
 10
-100.391
 20
-37.3589
 11
-99.9422
 21
-37.1426
  0
LINE
  8
0
 10
-99.9422
 20
-37.1426
 11
-99.4738
 21
-36.9721
  0
LINE
  8
0
 10
-99.4738
 20
-36.9721
 11
-98.9907
 21
-36.8491
  0
LINE
  8
0
 10
-98.9907
 20
-36.8491
 11
-98.4978
 21
-36.7748
  0
LINE
  8
0
 10
-98.4978
 20
-36.7748
 11
-98
 21
-36.75
  0
LINE
  8
0
 10
-98
 20
-36.75
 11
-97.5022
 21
-36.7748
  0
LINE
  8
0
 10
-97.5022
 20
-36.7748
 11
-97.0093
 21
-36.8491
  0
LINE
  8
0
 10
-97.0093
 20
-36.8491
 11
-96.5262
 21
-36.9721
  0
LINE
  8
0
 10
-96.5262
 20
-36.9721
 11
-96.0578
 21
-37.1426
  0
LINE
  8
0
 10
-96.0578
 20
-37.1426
 11
-95.6087
 21
-37.3589
  0
LINE
  8
0
 10
-95.6087
 20
-37.3589
 11
-95.1834
 21
-37.6188
  0
LINE
  8
0
 10
-95.1834
 20
-37.6188
 11
-94.7861
 21
-37.9198
  0
LINE
  8
0
 10
-94.7861
 20
-37.9198
 11
-94.4207
 21
-38.2588
  0
LINE
  8
0
 10
-94.4207
 20
-38.2588
 11
-94.0908
 21
-38.6325
  0
LINE
  8
0
 10
-94.0908
 20
-38.6325
 11
-93.7999
 21
-39.0373
  0
LINE
  8
0
 10
-93.7999
 20
-39.0373
 11
-93.5506
 21
-39.4689
  0
LINE
  8
0
 10
-93.5506
 20
-39.4689
 11
-93.3456
 21
-39.9233
  0
LINE
  8
0
 10
-93.3456
 20
-39.9233
 11
-93.1869
 21
-40.3958
  0
LINE
  8
0
 10
-93.1869
 20
-40.3958
 11
-93.076
 21
-40.8818
  0
LINE
  8
0
 10
-93.076
 20
-40.8818
 11
-93.014
 21
-41.3763
  0
LINE
  8
0
 10
-93.014
 20
-41.3763
 11
-93.0016
 21
-41.8746
  0
LINE
  8
0
 10
-93.0016
 20
-41.8746
 11
-93.0388
 21
-42.3717
  0
LINE
  8
0
 10
-93.0388
 20
-42.3717
 11
-93.1254
 21
-42.8626
  0
LINE
  8
0
 10
-93.1254
 20
-42.8626
 11
-93.2604
 21
-43.3424
  0
LINE
  8
0
 10
-93.2604
 20
-43.3424
 11
-93.4425
 21
-43.8064
  0
LINE
  8
0
 10
-93.4425
 20
-43.8064
 11
-93.6699
 21
-44.25
  0
LINE
  8
0
 10
-93.6699
 20
-44.25
 11
-93.9403
 21
-44.6687
  0
LINE
  8
0
 10
-93.9403
 20
-44.6687
 11
-94.2511
 21
-45.0584
  0
LINE
  8
0
 10
-94.2511
 20
-45.0584
 11
-94.5991
 21
-45.4153
  0
LINE
  8
0
 10
-94.5991
 20
-45.4153
 11
-94.981
 21
-45.7357
  0
LINE
  8
0
 10
-94.981
 20
-45.7357
 11
-95.3928
 21
-46.0164
  0
LINE
  8
0
 10
-95.3928
 20
-46.0164
 11
-95.8306
 21
-46.2548
  0
LINE
  8
0
 10
-95.8306
 20
-46.2548
 11
-96.2899
 21
-46.4485
  0
LINE
  8
0
 10
-96.2899
 20
-46.4485
 11
-96.7662
 21
-46.5954
  0
LINE
  8
0
 10
-96.7662
 20
-46.5954
 11
-97.2548
 21
-46.6942
  0
LINE
  8
0
 10
-97.2548
 20
-46.6942
 11
-97.7508
 21
-46.7438
  0
LINE
  8
0
 10
-97.7508
 20
-46.7438
 11
-98.2492
 21
-46.7438
  0
LINE
  8
0
 10
-235.496
 20
-43.154
 11
-235.975
 21
-43.0177
  0
LINE
  8
0
 10
-235.975
 20
-43.0177
 11
-236.421
 21
-42.7956
  0
LINE
  8
0
 10
-236.421
 20
-42.7956
 11
-236.819
 21
-42.4953
  0
LINE
  8
0
 10
-236.819
 20
-42.4953
 11
-237.155
 21
-42.1271
  0
LINE
  8
0
 10
-237.155
 20
-42.1271
 11
-237.417
 21
-41.7035
  0
LINE
  8
0
 10
-237.417
 20
-41.7035
 11
-237.597
 21
-41.2389
  0
LINE
  8
0
 10
-237.597
 20
-41.2389
 11
-237.688
 21
-40.7491
  0
LINE
  8
0
 10
-237.688
 20
-40.7491
 11
-237.688
 21
-40.2509
  0
LINE
  8
0
 10
-237.688
 20
-40.2509
 11
-237.597
 21
-39.7611
  0
LINE
  8
0
 10
-237.597
 20
-39.7611
 11
-237.417
 21
-39.2965
  0
LINE
  8
0
 10
-237.417
 20
-39.2965
 11
-237.155
 21
-38.8729
  0
LINE
  8
0
 10
-237.155
 20
-38.8729
 11
-236.819
 21
-38.5047
  0
LINE
  8
0
 10
-236.819
 20
-38.5047
 11
-236.421
 21
-38.2044
  0
LINE
  8
0
 10
-236.421
 20
-38.2044
 11
-235.975
 21
-37.9823
  0
LINE
  8
0
 10
-235.975
 20
-37.9823
 11
-235.496
 21
-37.846
  0
LINE
  8
0
 10
-235.496
 20
-37.846
 11
-235
 21
-37.8
  0
LINE
  8
0
 10
-235
 20
-37.8
 11
-234.504
 21
-37.846
  0
LINE
  8
0
 10
-234.504
 20
-37.846
 11
-234.025
 21
-37.9823
  0
LINE
  8
0
 10
-234.025
 20
-37.9823
 11
-233.579
 21
-38.2044
  0
LINE
  8
0
 10
-233.579
 20
-38.2044
 11
-233.181
 21
-38.5047
  0
LINE
  8
0
 10
-233.181
 20
-38.5047
 11
-232.845
 21
-38.8729
  0
LINE
  8
0
 10
-232.845
 20
-38.8729
 11
-232.583
 21
-39.2965
  0
LINE
  8
0
 10
-232.583
 20
-39.2965
 11
-232.403
 21
-39.7611
  0
LINE
  8
0
 10
-232.403
 20
-39.7611
 11
-232.312
 21
-40.2509
  0
LINE
  8
0
 10
-232.312
 20
-40.2509
 11
-232.312
 21
-40.7491
  0
LINE
  8
0
 10
-232.312
 20
-40.7491
 11
-232.403
 21
-41.2389
  0
LINE
  8
0
 10
-232.403
 20
-41.2389
 11
-232.583
 21
-41.7035
  0
LINE
  8
0
 10
-232.583
 20
-41.7035
 11
-232.845
 21
-42.1271
  0
LINE
  8
0
 10
-232.845
 20
-42.1271
 11
-233.181
 21
-42.4953
  0
LINE
  8
0
 10
-233.181
 20
-42.4953
 11
-233.579
 21
-42.7956
  0
LINE
  8
0
 10
-233.579
 20
-42.7956
 11
-234.025
 21
-43.0177
  0
LINE
  8
0
 10
-234.025
 20
-43.0177
 11
-234.504
 21
-43.154
  0
LINE
  8
0
 10
-234.504
 20
-43.154
 11
-235
 21
-43.2
  0
LINE
  8
0
 10
-235
 20
-43.2
 11
-235.496
 21
-43.154
  0
LINE
  8
0
 10
234.504
 20
-43.154
 11
234.025
 21
-43.0177
  0
LINE
  8
0
 10
234.025
 20
-43.0177
 11
233.579
 21
-42.7956
  0
LINE
  8
0
 10
233.579
 20
-42.7956
 11
233.181
 21
-42.4953
  0
LINE
  8
0
 10
233.181
 20
-42.4953
 11
232.845
 21
-42.1271
  0
LINE
  8
0
 10
232.845
 20
-42.1271
 11
232.583
 21
-41.7035
  0
LINE
  8
0
 10
232.583
 20
-41.7035
 11
232.403
 21
-41.2389
  0
LINE
  8
0
 10
232.403
 20
-41.2389
 11
232.312
 21
-40.7491
  0
LINE
  8
0
 10
232.312
 20
-40.7491
 11
232.312
 21
-40.2509
  0
LINE
  8
0
 10
232.312
 20
-40.2509
 11
232.403
 21
-39.7611
  0
LINE
  8
0
 10
232.403
 20
-39.7611
 11
232.583
 21
-39.2965
  0
LINE
  8
0
 10
232.583
 20
-39.2965
 11
232.845
 21
-38.8729
  0
LINE
  8
0
 10
232.845
 20
-38.8729
 11
233.181
 21
-38.5047
  0
LINE
  8
0
 10
233.181
 20
-38.5047
 11
233.579
 21
-38.2044
  0
LINE
  8
0
 10
233.579
 20
-38.2044
 11
234.025
 21
-37.9823
  0
LINE
  8
0
 10
234.025
 20
-37.9823
 11
234.504
 21
-37.846
  0
LINE
  8
0
 10
234.504
 20
-37.846
 11
235
 21
-37.8
  0
LINE
  8
0
 10
235
 20
-37.8
 11
235.496
 21
-37.846
  0
LINE
  8
0
 10
235.496
 20
-37.846
 11
235.975
 21
-37.9823
  0
LINE
  8
0
 10
235.975
 20
-37.9823
 11
236.421
 21
-38.2044
  0
LINE
  8
0
 10
236.421
 20
-38.2044
 11
236.819
 21
-38.5047
  0
LINE
  8
0
 10
236.819
 20
-38.5047
 11
237.155
 21
-38.8729
  0
LINE
  8
0
 10
237.155
 20
-38.8729
 11
237.417
 21
-39.2965
  0
LINE
  8
0
 10
237.417
 20
-39.2965
 11
237.597
 21
-39.7611
  0
LINE
  8
0
 10
237.597
 20
-39.7611
 11
237.688
 21
-40.2509
  0
LINE
  8
0
 10
237.688
 20
-40.2509
 11
237.688
 21
-40.7491
  0
LINE
  8
0
 10
237.688
 20
-40.7491
 11
237.597
 21
-41.2389
  0
LINE
  8
0
 10
237.597
 20
-41.2389
 11
237.417
 21
-41.7035
  0
LINE
  8
0
 10
237.417
 20
-41.7035
 11
237.155
 21
-42.1271
  0
LINE
  8
0
 10
237.155
 20
-42.1271
 11
236.819
 21
-42.4953
  0
LINE
  8
0
 10
236.819
 20
-42.4953
 11
236.421
 21
-42.7956
  0
LINE
  8
0
 10
236.421
 20
-42.7956
 11
235.975
 21
-43.0177
  0
LINE
  8
0
 10
235.975
 20
-43.0177
 11
235.496
 21
-43.154
  0
LINE
  8
0
 10
235.496
 20
-43.154
 11
235
 21
-43.2
  0
LINE
  8
0
 10
235
 20
-43.2
 11
234.504
 21
-43.154
  0
LINE
  8
0
 10
86
 20
-44.25
 11
86
 21
-39.25
  0
LINE
  8
0
 10
86
 20
-39.25
 11
88
 21
-39.25
  0
LINE
  8
0
 10
88
 20
-39.25
 11
88
 21
-44.25
  0
LINE
  8
0
 10
88
 20
-44.25
 11
86
 21
-44.25
  0
LINE
  8
0
 10
108
 20
-44.25
 11
108
 21
-39.25
  0
LINE
  8
0
 10
108
 20
-39.25
 11
110
 21
-39.25
  0
LINE
  8
0
 10
110
 20
-39.25
 11
110
 21
-44.25
  0
LINE
  8
0
 10
110
 20
-44.25
 11
108
 21
-44.25
  0
LINE
  8
0
 10
-88
 20
-44.25
 11
-88
 21
-39.25
  0
LINE
  8
0
 10
-88
 20
-39.25
 11
-86
 21
-39.25
  0
LINE
  8
0
 10
-86
 20
-39.25
 11
-86
 21
-44.25
  0
LINE
  8
0
 10
-86
 20
-44.25
 11
-88
 21
-44.25
  0
LINE
  8
0
 10
-110
 20
-44.25
 11
-110
 21
-39.25
  0
LINE
  8
0
 10
-110
 20
-39.25
 11
-108
 21
-39.25
  0
LINE
  8
0
 10
-108
 20
-39.25
 11
-108
 21
-44.25
  0
LINE
  8
0
 10
-108
 20
-44.25
 11
-110
 21
-44.25
  0
ENDSEC
  0
SECTION
  2
OBJECTS
  0
DICTIONARY
  0
ENDSEC
  0
EOF
