  0
SECTION
  2
BLOCKS
  0
ENDSEC
  0
SECTION
  2
ENTITIES
  0
LINE
  8
0
 10
-167.613
 20
-59.5348
 11
-167.93
 21
-59.1691
  0
LINE
  8
0
 10
-167.93
 20
-59.1691
 11
-168.131
 21
-58.7289
  0
LINE
  8
0
 10
-168.131
 20
-58.7289
 11
-168.2
 21
-58.25
  0
LINE
  8
0
 10
-168.2
 20
-58.25
 11
-168.131
 21
-57.771
  0
LINE
  8
0
 10
-168.131
 20
-57.771
 11
-167.93
 21
-57.3309
  0
LINE
  8
0
 10
-167.93
 20
-57.3309
 11
-167.613
 21
-56.9652
  0
LINE
  8
0
 10
-167.613
 20
-56.9652
 11
-165.613
 21
-54.9652
  0
LINE
  8
0
 10
-165.613
 20
-54.9652
 11
-165.206
 21
-54.7036
  0
LINE
  8
0
 10
-165.206
 20
-54.7036
 11
-164.742
 21
-54.5673
  0
LINE
  8
0
 10
-164.742
 20
-54.5673
 11
-164.258
 21
-54.5673
  0
LINE
  8
0
 10
-164.258
 20
-54.5673
 11
-163.794
 21
-54.7036
  0
LINE
  8
0
 10
-163.794
 20
-54.7036
 11
-163.387
 21
-54.9652
  0
LINE
  8
0
 10
-163.387
 20
-54.9652
 11
-163.07
 21
-55.3309
  0
LINE
  8
0
 10
-163.07
 20
-55.3309
 11
-162.869
 21
-55.771
  0
LINE
  8
0
 10
-162.869
 20
-55.771
 11
-162.8
 21
-56.25
  0
LINE
  8
0
 10
-162.8
 20
-56.25
 11
-162.869
 21
-56.7289
  0
LINE
  8
0
 10
-162.869
 20
-56.7289
 11
-163.07
 21
-57.1691
  0
LINE
  8
0
 10
-163.07
 20
-57.1691
 11
-163.387
 21
-57.5348
  0
LINE
  8
0
 10
-163.387
 20
-57.5348
 11
-165.387
 21
-59.5348
  0
LINE
  8
0
 10
-165.387
 20
-59.5348
 11
-165.722
 21
-59.75
  0
LINE
  8
0
 10
-165.722
 20
-59.75
 11
-134.266
 21
-59.75
  0
LINE
  8
0
 10
-134.266
 20
-59.75
 11
-134.419
 21
-59.6801
  0
LINE
  8
0
 10
-134.419
 20
-59.6801
 11
-134.785
 21
-59.3633
  0
LINE
  8
0
 10
-134.785
 20
-59.3633
 11
-136.785
 21
-57.3633
  0
LINE
  8
0
 10
-136.785
 20
-57.3633
 11
-137.046
 21
-56.9562
  0
LINE
  8
0
 10
-137.046
 20
-56.9562
 11
-137.183
 21
-56.4919
  0
LINE
  8
0
 10
-137.183
 20
-56.4919
 11
-137.183
 21
-56.0081
  0
LINE
  8
0
 10
-137.183
 20
-56.0081
 11
-137.046
 21
-55.5438
  0
LINE
  8
0
 10
-137.046
 20
-55.5438
 11
-136.785
 21
-55.1367
  0
LINE
  8
0
 10
-136.785
 20
-55.1367
 11
-136.419
 21
-54.8199
  0
LINE
  8
0
 10
-136.419
 20
-54.8199
 11
-135.979
 21
-54.6189
  0
LINE
  8
0
 10
-135.979
 20
-54.6189
 11
-135.5
 21
-54.55
  0
LINE
  8
0
 10
-135.5
 20
-54.55
 11
-135.021
 21
-54.6189
  0
LINE
  8
0
 10
-135.021
 20
-54.6189
 11
-134.581
 21
-54.8199
  0
LINE
  8
0
 10
-134.581
 20
-54.8199
 11
-134.215
 21
-55.1367
  0
LINE
  8
0
 10
-134.215
 20
-55.1367
 11
-132.215
 21
-57.1367
  0
LINE
  8
0
 10
-132.215
 20
-57.1367
 11
-131.954
 21
-57.5438
  0
LINE
  8
0
 10
-131.954
 20
-57.5438
 11
-131.817
 21
-58.0081
  0
LINE
  8
0
 10
-131.817
 20
-58.0081
 11
-131.817
 21
-58.4919
  0
LINE
  8
0
 10
-131.817
 20
-58.4919
 11
-131.954
 21
-58.9562
  0
LINE
  8
0
 10
-131.954
 20
-58.9562
 11
-132.215
 21
-59.3633
  0
LINE
  8
0
 10
-132.215
 20
-59.3633
 11
-132.581
 21
-59.6801
  0
LINE
  8
0
 10
-132.581
 20
-59.6801
 11
-132.734
 21
-59.75
  0
LINE
  8
0
 10
-132.734
 20
-59.75
 11
-122.509
 21
-59.75
  0
LINE
  8
0
 10
-122.509
 20
-59.75
 11
-113.983
 21
-51.2232
  0
LINE
  8
0
 10
-113.983
 20
-51.2232
 11
-105.456
 21
-59.75
  0
LINE
  8
0
 10
-105.456
 20
-59.75
 11
-90.5442
 21
-59.75
  0
LINE
  8
0
 10
-90.5442
 20
-59.75
 11
-81.0442
 21
-50.25
  0
LINE
  8
0
 10
-81.0442
 20
-50.25
 11
-36.9905
 21
-50.25
  0
LINE
  8
0
 10
-36.9905
 20
-50.25
 11
-27.4905
 21
-59.75
  0
LINE
  8
0
 10
-27.4905
 20
-59.75
 11
-17.2784
 21
-59.75
  0
LINE
  8
0
 10
-17.2784
 20
-59.75
 11
-17.6133
 21
-59.5348
  0
LINE
  8
0
 10
-17.6133
 20
-59.5348
 11
-17.9301
 21
-59.1691
  0
LINE
  8
0
 10
-17.9301
 20
-59.1691
 11
-18.1311
 21
-58.7289
  0
LINE
  8
0
 10
-18.1311
 20
-58.7289
 11
-18.2
 21
-58.25
  0
LINE
  8
0
 10
-18.2
 20
-58.25
 11
-18.1311
 21
-57.771
  0
LINE
  8
0
 10
-18.1311
 20
-57.771
 11
-17.9301
 21
-57.3309
  0
LINE
  8
0
 10
-17.9301
 20
-57.3309
 11
-17.6133
 21
-56.9652
  0
LINE
  8
0
 10
-17.6133
 20
-56.9652
 11
-15.6133
 21
-54.9652
  0
LINE
  8
0
 10
-15.6133
 20
-54.9652
 11
-15.2062
 21
-54.7036
  0
LINE
  8
0
 10
-15.2062
 20
-54.7036
 11
-14.7419
 21
-54.5673
  0
LINE
  8
0
 10
-14.7419
 20
-54.5673
 11
-14.2581
 21
-54.5673
  0
LINE
  8
0
 10
-14.2581
 20
-54.5673
 11
-13.7938
 21
-54.7036
  0
LINE
  8
0
 10
-13.7938
 20
-54.7036
 11
-13.3867
 21
-54.9652
  0
LINE
  8
0
 10
-13.3867
 20
-54.9652
 11
-13.0699
 21
-55.3309
  0
LINE
  8
0
 10
-13.0699
 20
-55.3309
 11
-12.8689
 21
-55.771
  0
LINE
  8
0
 10
-12.8689
 20
-55.771
 11
-12.8
 21
-56.25
  0
LINE
  8
0
 10
-12.8
 20
-56.25
 11
-12.8689
 21
-56.7289
  0
LINE
  8
0
 10
-12.8689
 20
-56.7289
 11
-13.0699
 21
-57.1691
  0
LINE
  8
0
 10
-13.0699
 20
-57.1691
 11
-13.3867
 21
-57.5348
  0
LINE
  8
0
 10
-13.3867
 20
-57.5348
 11
-15.3867
 21
-59.5348
  0
LINE
  8
0
 10
-15.3867
 20
-59.5348
 11
-15.7216
 21
-59.75
  0
LINE
  8
0
 10
-15.7216
 20
-59.75
 11
15.7339
 21
-59.75
  0
LINE
  8
0
 10
15.7339
 20
-59.75
 11
15.5809
 21
-59.6801
  0
LINE
  8
0
 10
15.5809
 20
-59.6801
 11
15.2152
 21
-59.3633
  0
LINE
  8
0
 10
15.2152
 20
-59.3633
 11
13.2152
 21
-57.3633
  0
LINE
  8
0
 10
13.2152
 20
-57.3633
 11
12.9536
 21
-56.9562
  0
LINE
  8
0
 10
12.9536
 20
-56.9562
 11
12.8173
 21
-56.4919
  0
LINE
  8
0
 10
12.8173
 20
-56.4919
 11
12.8173
 21
-56.0081
  0
LINE
  8
0
 10
12.8173
 20
-56.0081
 11
12.9536
 21
-55.5438
  0
LINE
  8
0
 10
12.9536
 20
-55.5438
 11
13.2152
 21
-55.1367
  0
LINE
  8
0
 10
13.2152
 20
-55.1367
 11
13.5809
 21
-54.8199
  0
LINE
  8
0
 10
13.5809
 20
-54.8199
 11
14.021
 21
-54.6189
  0
LINE
  8
0
 10
14.021
 20
-54.6189
 11
14.5
 21
-54.55
  0
LINE
  8
0
 10
14.5
 20
-54.55
 11
14.9789
 21
-54.6189
  0
LINE
  8
0
 10
14.9789
 20
-54.6189
 11
15.4191
 21
-54.8199
  0
LINE
  8
0
 10
15.4191
 20
-54.8199
 11
15.7848
 21
-55.1367
  0
LINE
  8
0
 10
15.7848
 20
-55.1367
 11
17.7848
 21
-57.1367
  0
LINE
  8
0
 10
17.7848
 20
-57.1367
 11
18.0464
 21
-57.5438
  0
LINE
  8
0
 10
18.0464
 20
-57.5438
 11
18.1827
 21
-58.0081
  0
LINE
  8
0
 10
18.1827
 20
-58.0081
 11
18.1827
 21
-58.4919
  0
LINE
  8
0
 10
18.1827
 20
-58.4919
 11
18.0464
 21
-58.9562
  0
LINE
  8
0
 10
18.0464
 20
-58.9562
 11
17.7848
 21
-59.3633
  0
LINE
  8
0
 10
17.7848
 20
-59.3633
 11
17.4191
 21
-59.6801
  0
LINE
  8
0
 10
17.4191
 20
-59.6801
 11
17.2661
 21
-59.75
  0
LINE
  8
0
 10
17.2661
 20
-59.75
 11
27.4905
 21
-59.75
  0
LINE
  8
0
 10
27.4905
 20
-59.75
 11
36.9905
 21
-50.25
  0
LINE
  8
0
 10
36.9905
 20
-50.25
 11
81.0442
 21
-50.25
  0
LINE
  8
0
 10
81.0442
 20
-50.25
 11
90.5442
 21
-59.75
  0
LINE
  8
0
 10
90.5442
 20
-59.75
 11
105.456
 21
-59.75
  0
LINE
  8
0
 10
105.456
 20
-59.75
 11
113.983
 21
-51.2232
  0
LINE
  8
0
 10
113.983
 20
-51.2232
 11
122.509
 21
-59.75
  0
LINE
  8
0
 10
122.509
 20
-59.75
 11
132.722
 21
-59.75
  0
LINE
  8
0
 10
132.722
 20
-59.75
 11
132.387
 21
-59.5348
  0
LINE
  8
0
 10
132.387
 20
-59.5348
 11
132.07
 21
-59.1691
  0
LINE
  8
0
 10
132.07
 20
-59.1691
 11
131.869
 21
-58.7289
  0
LINE
  8
0
 10
131.869
 20
-58.7289
 11
131.8
 21
-58.25
  0
LINE
  8
0
 10
131.8
 20
-58.25
 11
131.869
 21
-57.771
  0
LINE
  8
0
 10
131.869
 20
-57.771
 11
132.07
 21
-57.3309
  0
LINE
  8
0
 10
132.07
 20
-57.3309
 11
132.387
 21
-56.9652
  0
LINE
  8
0
 10
132.387
 20
-56.9652
 11
134.387
 21
-54.9652
  0
LINE
  8
0
 10
134.387
 20
-54.9652
 11
134.794
 21
-54.7036
  0
LINE
  8
0
 10
134.794
 20
-54.7036
 11
135.258
 21
-54.5673
  0
LINE
  8
0
 10
135.258
 20
-54.5673
 11
135.742
 21
-54.5673
  0
LINE
  8
0
 10
135.742
 20
-54.5673
 11
136.206
 21
-54.7036
  0
LINE
  8
0
 10
136.206
 20
-54.7036
 11
136.613
 21
-54.9652
  0
LINE
  8
0
 10
136.613
 20
-54.9652
 11
136.93
 21
-55.3309
  0
LINE
  8
0
 10
136.93
 20
-55.3309
 11
137.131
 21
-55.771
  0
LINE
  8
0
 10
137.131
 20
-55.771
 11
137.2
 21
-56.25
  0
LINE
  8
0
 10
137.2
 20
-56.25
 11
137.131
 21
-56.7289
  0
LINE
  8
0
 10
137.131
 20
-56.7289
 11
136.93
 21
-57.1691
  0
LINE
  8
0
 10
136.93
 20
-57.1691
 11
136.613
 21
-57.5348
  0
LINE
  8
0
 10
136.613
 20
-57.5348
 11
134.613
 21
-59.5348
  0
LINE
  8
0
 10
134.613
 20
-59.5348
 11
134.278
 21
-59.75
  0
LINE
  8
0
 10
134.278
 20
-59.75
 11
165.734
 21
-59.75
  0
LINE
  8
0
 10
165.734
 20
-59.75
 11
165.581
 21
-59.6801
  0
LINE
  8
0
 10
165.581
 20
-59.6801
 11
165.215
 21
-59.3633
  0
LINE
  8
0
 10
165.215
 20
-59.3633
 11
163.215
 21
-57.3633
  0
LINE
  8
0
 10
163.215
 20
-57.3633
 11
162.954
 21
-56.9562
  0
LINE
  8
0
 10
162.954
 20
-56.9562
 11
162.817
 21
-56.4919
  0
LINE
  8
0
 10
162.817
 20
-56.4919
 11
162.817
 21
-56.0081
  0
LINE
  8
0
 10
162.817
 20
-56.0081
 11
162.954
 21
-55.5438
  0
LINE
  8
0
 10
162.954
 20
-55.5438
 11
163.215
 21
-55.1367
  0
LINE
  8
0
 10
163.215
 20
-55.1367
 11
163.581
 21
-54.8199
  0
LINE
  8
0
 10
163.581
 20
-54.8199
 11
164.021
 21
-54.6189
  0
LINE
  8
0
 10
164.021
 20
-54.6189
 11
164.5
 21
-54.55
  0
LINE
  8
0
 10
164.5
 20
-54.55
 11
164.979
 21
-54.6189
  0
LINE
  8
0
 10
164.979
 20
-54.6189
 11
165.419
 21
-54.8199
  0
LINE
  8
0
 10
165.419
 20
-54.8199
 11
165.785
 21
-55.1367
  0
LINE
  8
0
 10
165.785
 20
-55.1367
 11
167.785
 21
-57.1367
  0
LINE
  8
0
 10
167.785
 20
-57.1367
 11
168.046
 21
-57.5438
  0
LINE
  8
0
 10
168.046
 20
-57.5438
 11
168.183
 21
-58.0081
  0
LINE
  8
0
 10
168.183
 20
-58.0081
 11
168.183
 21
-58.4919
  0
LINE
  8
0
 10
168.183
 20
-58.4919
 11
168.046
 21
-58.9562
  0
LINE
  8
0
 10
168.046
 20
-58.9562
 11
167.785
 21
-59.3633
  0
LINE
  8
0
 10
167.785
 20
-59.3633
 11
167.419
 21
-59.6801
  0
LINE
  8
0
 10
167.419
 20
-59.6801
 11
167.266
 21
-59.75
  0
LINE
  8
0
 10
167.266
 20
-59.75
 11
177.491
 21
-59.75
  0
LINE
  8
0
 10
177.491
 20
-59.75
 11
186.991
 21
-50.25
  0
LINE
  8
0
 10
186.991
 20
-50.25
 11
245
 21
-50.25
  0
LINE
  8
0
 10
245
 20
-50.25
 11
245
 21
9.75
  0
LINE
  8
0
 10
245
 20
9.75
 11
-245
 21
9.75
  0
LINE
  8
0
 10
-245
 20
9.75
 11
-245
 21
-50.25
  0
LINE
  8
0
 10
-245
 20
-50.25
 11
-186.991
 21
-50.25
  0
LINE
  8
0
 10
-186.991
 20
-50.25
 11
-177.491
 21
-59.75
  0
LINE
  8
0
 10
-177.491
 20
-59.75
 11
-167.278
 21
-59.75
  0
LINE
  8
0
 10
-167.278
 20
-59.75
 11
-167.613
 21
-59.5348
  0
LINE
  8
0
 10
152.55
 20
-3.2
 11
152.55
 21
3.2
  0
LINE
  8
0
 10
152.55
 20
3.2
 11
167.45
 21
3.2
  0
LINE
  8
0
 10
167.45
 20
3.2
 11
167.45
 21
-3.2
  0
LINE
  8
0
 10
167.45
 20
-3.2
 11
152.55
 21
-3.2
  0
LINE
  8
0
 10
-137.45
 20
-3.2
 11
-137.45
 21
3.2
  0
LINE
  8
0
 10
-137.45
 20
3.2
 11
-122.55
 21
3.2
  0
LINE
  8
0
 10
-122.55
 20
3.2
 11
-122.55
 21
-3.2
  0
LINE
  8
0
 10
-122.55
 20
-3.2
 11
-137.45
 21
-3.2
  0
LINE
  8
0
 10
122.55
 20
-3.2
 11
122.55
 21
3.2
  0
LINE
  8
0
 10
122.55
 20
3.2
 11
137.45
 21
3.2
  0
LINE
  8
0
 10
137.45
 20
3.2
 11
137.45
 21
-3.2
  0
LINE
  8
0
 10
137.45
 20
-3.2
 11
122.55
 21
-3.2
  0
LINE
  8
0
 10
-22.45
 20
-3.2
 11
-22.45
 21
3.2
  0
LINE
  8
0
 10
-22.45
 20
3.2
 11
-7.54999
 21
3.2
  0
LINE
  8
0
 10
-7.54999
 20
3.2
 11
-7.54999
 21
-3.2
  0
LINE
  8
0
 10
-7.54999
 20
-3.2
 11
-22.45
 21
-3.2
  0
LINE
  8
0
 10
-167.45
 20
-3.2
 11
-167.45
 21
3.2
  0
LINE
  8
0
 10
-167.45
 20
3.2
 11
-152.55
 21
3.2
  0
LINE
  8
0
 10
-152.55
 20
3.2
 11
-152.55
 21
-3.2
  0
LINE
  8
0
 10
-152.55
 20
-3.2
 11
-167.45
 21
-3.2
  0
LINE
  8
0
 10
7.54999
 20
-3.2
 11
7.54999
 21
3.2
  0
LINE
  8
0
 10
7.54999
 20
3.2
 11
22.45
 21
3.2
  0
LINE
  8
0
 10
22.45
 20
3.2
 11
22.45
 21
-3.2
  0
LINE
  8
0
 10
22.45
 20
-3.2
 11
7.54999
 21
-3.2
  0
LINE
  8
0
 10
-145.616
 20
-2.53934
 11
-146.085
 21
-2.37686
  0
LINE
  8
0
 10
-146.085
 20
-2.37686
 11
-146.516
 21
-2.12848
  0
LINE
  8
0
 10
-146.516
 20
-2.12848
 11
-146.891
 21
-1.80316
  0
LINE
  8
0
 10
-146.891
 20
-1.80316
 11
-147.198
 21
-1.41269
  0
LINE
  8
0
 10
-147.198
 20
-1.41269
 11
-147.426
 21
-0.971146
  0
LINE
  8
0
 10
-147.426
 20
-0.971146
 11
-147.566
 21
-0.494507
  0
LINE
  8
0
 10
-147.566
 20
-0.494507
 11
-147.613
 21
0
  0
LINE
  8
0
 10
-147.613
 20
0
 11
-147.566
 21
0.494507
  0
LINE
  8
0
 10
-147.566
 20
0.494507
 11
-147.426
 21
0.971146
  0
LINE
  8
0
 10
-147.426
 20
0.971146
 11
-147.198
 21
1.41269
  0
LINE
  8
0
 10
-147.198
 20
1.41269
 11
-146.891
 21
1.80316
  0
LINE
  8
0
 10
-146.891
 20
1.80316
 11
-146.516
 21
2.12848
  0
LINE
  8
0
 10
-146.516
 20
2.12848
 11
-146.085
 21
2.37686
  0
LINE
  8
0
 10
-146.085
 20
2.37686
 11
-145.616
 21
2.53934
  0
LINE
  8
0
 10
-145.616
 20
2.53934
 11
-145.124
 21
2.61003
  0
LINE
  8
0
 10
-145.124
 20
2.61003
 11
-144.628
 21
2.5864
  0
LINE
  8
0
 10
-144.628
 20
2.5864
 11
-144.145
 21
2.46928
  0
LINE
  8
0
 10
-144.145
 20
2.46928
 11
-143.693
 21
2.26292
  0
LINE
  8
0
 10
-143.693
 20
2.26292
 11
-143.289
 21
1.97476
  0
LINE
  8
0
 10
-143.289
 20
1.97476
 11
-142.946
 21
1.61523
  0
LINE
  8
0
 10
-142.946
 20
1.61523
 11
-142.677
 21
1.19734
  0
LINE
  8
0
 10
-142.677
 20
1.19734
 11
-142.493
 21
0.73616
  0
LINE
  8
0
 10
-142.493
 20
0.73616
 11
-142.399
 21
0.248367
  0
LINE
  8
0
 10
-142.399
 20
0.248367
 11
-142.399
 21
-0.248367
  0
LINE
  8
0
 10
-142.399
 20
-0.248367
 11
-142.493
 21
-0.73616
  0
LINE
  8
0
 10
-142.493
 20
-0.73616
 11
-142.677
 21
-1.19734
  0
LINE
  8
0
 10
-142.677
 20
-1.19734
 11
-142.946
 21
-1.61523
  0
LINE
  8
0
 10
-142.946
 20
-1.61523
 11
-143.289
 21
-1.97476
  0
LINE
  8
0
 10
-143.289
 20
-1.97476
 11
-143.693
 21
-2.26292
  0
LINE
  8
0
 10
-143.693
 20
-2.26292
 11
-144.145
 21
-2.46928
  0
LINE
  8
0
 10
-144.145
 20
-2.46928
 11
-144.628
 21
-2.5864
  0
LINE
  8
0
 10
-144.628
 20
-2.5864
 11
-145.124
 21
-2.61003
  0
LINE
  8
0
 10
-145.124
 20
-2.61003
 11
-145.616
 21
-2.53934
  0
LINE
  8
0
 10
144.628
 20
-2.5864
 11
144.145
 21
-2.46928
  0
LINE
  8
0
 10
144.145
 20
-2.46928
 11
143.693
 21
-2.26292
  0
LINE
  8
0
 10
143.693
 20
-2.26292
 11
143.289
 21
-1.97476
  0
LINE
  8
0
 10
143.289
 20
-1.97476
 11
142.946
 21
-1.61523
  0
LINE
  8
0
 10
142.946
 20
-1.61523
 11
142.677
 21
-1.19734
  0
LINE
  8
0
 10
142.677
 20
-1.19734
 11
142.493
 21
-0.73616
  0
LINE
  8
0
 10
142.493
 20
-0.73616
 11
142.399
 21
-0.248367
  0
LINE
  8
0
 10
142.399
 20
-0.248367
 11
142.399
 21
0.248367
  0
LINE
  8
0
 10
142.399
 20
0.248367
 11
142.493
 21
0.73616
  0
LINE
  8
0
 10
142.493
 20
0.73616
 11
142.677
 21
1.19734
  0
LINE
  8
0
 10
142.677
 20
1.19734
 11
142.946
 21
1.61523
  0
LINE
  8
0
 10
142.946
 20
1.61523
 11
143.289
 21
1.97476
  0
LINE
  8
0
 10
143.289
 20
1.97476
 11
143.693
 21
2.26292
  0
LINE
  8
0
 10
143.693
 20
2.26292
 11
144.145
 21
2.46928
  0
LINE
  8
0
 10
144.145
 20
2.46928
 11
144.628
 21
2.5864
  0
LINE
  8
0
 10
144.628
 20
2.5864
 11
145.124
 21
2.61003
  0
LINE
  8
0
 10
145.124
 20
2.61003
 11
145.616
 21
2.53934
  0
LINE
  8
0
 10
145.616
 20
2.53934
 11
146.085
 21
2.37686
  0
LINE
  8
0
 10
146.085
 20
2.37686
 11
146.516
 21
2.12848
  0
LINE
  8
0
 10
146.516
 20
2.12848
 11
146.891
 21
1.80316
  0
LINE
  8
0
 10
146.891
 20
1.80316
 11
147.198
 21
1.41269
  0
LINE
  8
0
 10
147.198
 20
1.41269
 11
147.426
 21
0.971146
  0
LINE
  8
0
 10
147.426
 20
0.971146
 11
147.566
 21
0.494507
  0
LINE
  8
0
 10
147.566
 20
0.494507
 11
147.613
 21
0
  0
LINE
  8
0
 10
147.613
 20
0
 11
147.566
 21
-0.494507
  0
LINE
  8
0
 10
147.566
 20
-0.494507
 11
147.426
 21
-0.971146
  0
LINE
  8
0
 10
147.426
 20
-0.971146
 11
147.198
 21
-1.41269
  0
LINE
  8
0
 10
147.198
 20
-1.41269
 11
146.891
 21
-1.80316
  0
LINE
  8
0
 10
146.891
 20
-1.80316
 11
146.516
 21
-2.12848
  0
LINE
  8
0
 10
146.516
 20
-2.12848
 11
146.085
 21
-2.37686
  0
LINE
  8
0
 10
146.085
 20
-2.37686
 11
145.616
 21
-2.53934
  0
LINE
  8
0
 10
145.616
 20
-2.53934
 11
145.124
 21
-2.61003
  0
LINE
  8
0
 10
145.124
 20
-2.61003
 11
144.628
 21
-2.5864
  0
LINE
  8
0
 10
-0.371857
 20
-2.5864
 11
-0.854614
 21
-2.46928
  0
LINE
  8
0
 10
-0.854614
 20
-2.46928
 11
-1.30649
 21
-2.26292
  0
LINE
  8
0
 10
-1.30649
 20
-2.26292
 11
-1.71114
 21
-1.97476
  0
LINE
  8
0
 10
-1.71114
 20
-1.97476
 11
-2.05396
 21
-1.61523
  0
LINE
  8
0
 10
-2.05396
 20
-1.61523
 11
-2.32253
 21
-1.19734
  0
LINE
  8
0
 10
-2.32253
 20
-1.19734
 11
-2.50714
 21
-0.73616
  0
LINE
  8
0
 10
-2.50714
 20
-0.73616
 11
-2.60117
 21
-0.248367
  0
LINE
  8
0
 10
-2.60117
 20
-0.248367
 11
-2.60117
 21
0.248367
  0
LINE
  8
0
 10
-2.60117
 20
0.248367
 11
-2.50714
 21
0.73616
  0
LINE
  8
0
 10
-2.50714
 20
0.73616
 11
-2.32253
 21
1.19734
  0
LINE
  8
0
 10
-2.32253
 20
1.19734
 11
-2.05396
 21
1.61523
  0
LINE
  8
0
 10
-2.05396
 20
1.61523
 11
-1.71114
 21
1.97476
  0
LINE
  8
0
 10
-1.71114
 20
1.97476
 11
-1.30649
 21
2.26292
  0
LINE
  8
0
 10
-1.30649
 20
2.26292
 11
-0.854614
 21
2.46928
  0
LINE
  8
0
 10
-0.854614
 20
2.46928
 11
-0.371857
 21
2.5864
  0
LINE
  8
0
 10
-0.371857
 20
2.5864
 11
0.124329
 21
2.61003
  0
LINE
  8
0
 10
0.124329
 20
2.61003
 11
0.616028
 21
2.53934
  0
LINE
  8
0
 10
0.616028
 20
2.53934
 11
1.08546
 21
2.37686
  0
LINE
  8
0
 10
1.08546
 20
2.37686
 11
1.51569
 21
2.12848
  0
LINE
  8
0
 10
1.51569
 20
2.12848
 11
1.89111
 21
1.80316
  0
LINE
  8
0
 10
1.89111
 20
1.80316
 11
2.19818
 21
1.41269
  0
LINE
  8
0
 10
2.19818
 20
1.41269
 11
2.42581
 21
0.971146
  0
LINE
  8
0
 10
2.42581
 20
0.971146
 11
2.56577
 21
0.494507
  0
LINE
  8
0
 10
2.56577
 20
0.494507
 11
2.61299
 21
0
  0
LINE
  8
0
 10
2.61299
 20
0
 11
2.56577
 21
-0.494507
  0
LINE
  8
0
 10
2.56577
 20
-0.494507
 11
2.42581
 21
-0.971146
  0
LINE
  8
0
 10
2.42581
 20
-0.971146
 11
2.19818
 21
-1.41269
  0
LINE
  8
0
 10
2.19818
 20
-1.41269
 11
1.89111
 21
-1.80316
  0
LINE
  8
0
 10
1.89111
 20
-1.80316
 11
1.51569
 21
-2.12848
  0
LINE
  8
0
 10
1.51569
 20
-2.12848
 11
1.08546
 21
-2.37686
  0
LINE
  8
0
 10
1.08546
 20
-2.37686
 11
0.616028
 21
-2.53934
  0
LINE
  8
0
 10
0.616028
 20
-2.53934
 11
0.124329
 21
-2.61003
  0
LINE
  8
0
 10
0.124329
 20
-2.61003
 11
-0.371857
 21
-2.5864
  0
LINE
  8
0
 10
234.504
 20
-15.654
 11
234.025
 21
-15.5177
  0
LINE
  8
0
 10
234.025
 20
-15.5177
 11
233.579
 21
-15.2956
  0
LINE
  8
0
 10
233.579
 20
-15.2956
 11
233.181
 21
-14.9953
  0
LINE
  8
0
 10
233.181
 20
-14.9953
 11
232.845
 21
-14.6271
  0
LINE
  8
0
 10
232.845
 20
-14.6271
 11
232.583
 21
-14.2035
  0
LINE
  8
0
 10
232.583
 20
-14.2035
 11
232.403
 21
-13.7389
  0
LINE
  8
0
 10
232.403
 20
-13.7389
 11
232.312
 21
-13.2491
  0
LINE
  8
0
 10
232.312
 20
-13.2491
 11
232.312
 21
-12.7509
  0
LINE
  8
0
 10
232.312
 20
-12.7509
 11
232.403
 21
-12.2611
  0
LINE
  8
0
 10
232.403
 20
-12.2611
 11
232.583
 21
-11.7965
  0
LINE
  8
0
 10
232.583
 20
-11.7965
 11
232.845
 21
-11.3729
  0
LINE
  8
0
 10
232.845
 20
-11.3729
 11
233.181
 21
-11.0047
  0
LINE
  8
0
 10
233.181
 20
-11.0047
 11
233.579
 21
-10.7044
  0
LINE
  8
0
 10
233.579
 20
-10.7044
 11
234.025
 21
-10.4823
  0
LINE
  8
0
 10
234.025
 20
-10.4823
 11
234.504
 21
-10.346
  0
LINE
  8
0
 10
234.504
 20
-10.346
 11
235
 21
-10.3
  0
LINE
  8
0
 10
235
 20
-10.3
 11
235.496
 21
-10.346
  0
LINE
  8
0
 10
235.496
 20
-10.346
 11
235.975
 21
-10.4823
  0
LINE
  8
0
 10
235.975
 20
-10.4823
 11
236.421
 21
-10.7044
  0
LINE
  8
0
 10
236.421
 20
-10.7044
 11
236.819
 21
-11.0047
  0
LINE
  8
0
 10
236.819
 20
-11.0047
 11
237.155
 21
-11.3729
  0
LINE
  8
0
 10
237.155
 20
-11.3729
 11
237.417
 21
-11.7965
  0
LINE
  8
0
 10
237.417
 20
-11.7965
 11
237.597
 21
-12.2611
  0
LINE
  8
0
 10
237.597
 20
-12.2611
 11
237.688
 21
-12.7509
  0
LINE
  8
0
 10
237.688
 20
-12.7509
 11
237.688
 21
-13.2491
  0
LINE
  8
0
 10
237.688
 20
-13.2491
 11
237.597
 21
-13.7389
  0
LINE
  8
0
 10
237.597
 20
-13.7389
 11
237.417
 21
-14.2035
  0
LINE
  8
0
 10
237.417
 20
-14.2035
 11
237.155
 21
-14.6271
  0
LINE
  8
0
 10
237.155
 20
-14.6271
 11
236.819
 21
-14.9953
  0
LINE
  8
0
 10
236.819
 20
-14.9953
 11
236.421
 21
-15.2956
  0
LINE
  8
0
 10
236.421
 20
-15.2956
 11
235.975
 21
-15.5177
  0
LINE
  8
0
 10
235.975
 20
-15.5177
 11
235.496
 21
-15.654
  0
LINE
  8
0
 10
235.496
 20
-15.654
 11
235
 21
-15.7
  0
LINE
  8
0
 10
235
 20
-15.7
 11
234.504
 21
-15.654
  0
LINE
  8
0
 10
-235.496
 20
-15.654
 11
-235.975
 21
-15.5177
  0
LINE
  8
0
 10
-235.975
 20
-15.5177
 11
-236.421
 21
-15.2956
  0
LINE
  8
0
 10
-236.421
 20
-15.2956
 11
-236.819
 21
-14.9953
  0
LINE
  8
0
 10
-236.819
 20
-14.9953
 11
-237.155
 21
-14.6271
  0
LINE
  8
0
 10
-237.155
 20
-14.6271
 11
-237.417
 21
-14.2035
  0
LINE
  8
0
 10
-237.417
 20
-14.2035
 11
-237.597
 21
-13.7389
  0
LINE
  8
0
 10
-237.597
 20
-13.7389
 11
-237.688
 21
-13.2491
  0
LINE
  8
0
 10
-237.688
 20
-13.2491
 11
-237.688
 21
-12.7509
  0
LINE
  8
0
 10
-237.688
 20
-12.7509
 11
-237.597
 21
-12.2611
  0
LINE
  8
0
 10
-237.597
 20
-12.2611
 11
-237.417
 21
-11.7965
  0
LINE
  8
0
 10
-237.417
 20
-11.7965
 11
-237.155
 21
-11.3729
  0
LINE
  8
0
 10
-237.155
 20
-11.3729
 11
-236.819
 21
-11.0047
  0
LINE
  8
0
 10
-236.819
 20
-11.0047
 11
-236.421
 21
-10.7044
  0
LINE
  8
0
 10
-236.421
 20
-10.7044
 11
-235.975
 21
-10.4823
  0
LINE
  8
0
 10
-235.975
 20
-10.4823
 11
-235.496
 21
-10.346
  0
LINE
  8
0
 10
-235.496
 20
-10.346
 11
-235
 21
-10.3
  0
LINE
  8
0
 10
-235
 20
-10.3
 11
-234.504
 21
-10.346
  0
LINE
  8
0
 10
-234.504
 20
-10.346
 11
-234.025
 21
-10.4823
  0
LINE
  8
0
 10
-234.025
 20
-10.4823
 11
-233.579
 21
-10.7044
  0
LINE
  8
0
 10
-233.579
 20
-10.7044
 11
-233.181
 21
-11.0047
  0
LINE
  8
0
 10
-233.181
 20
-11.0047
 11
-232.845
 21
-11.3729
  0
LINE
  8
0
 10
-232.845
 20
-11.3729
 11
-232.583
 21
-11.7965
  0
LINE
  8
0
 10
-232.583
 20
-11.7965
 11
-232.403
 21
-12.2611
  0
LINE
  8
0
 10
-232.403
 20
-12.2611
 11
-232.312
 21
-12.7509
  0
LINE
  8
0
 10
-232.312
 20
-12.7509
 11
-232.312
 21
-13.2491
  0
LINE
  8
0
 10
-232.312
 20
-13.2491
 11
-232.403
 21
-13.7389
  0
LINE
  8
0
 10
-232.403
 20
-13.7389
 11
-232.583
 21
-14.2035
  0
LINE
  8
0
 10
-232.583
 20
-14.2035
 11
-232.845
 21
-14.6271
  0
LINE
  8
0
 10
-232.845
 20
-14.6271
 11
-233.181
 21
-14.9953
  0
LINE
  8
0
 10
-233.181
 20
-14.9953
 11
-233.579
 21
-15.2956
  0
LINE
  8
0
 10
-233.579
 20
-15.2956
 11
-234.025
 21
-15.5177
  0
LINE
  8
0
 10
-234.025
 20
-15.5177
 11
-234.504
 21
-15.654
  0
LINE
  8
0
 10
-234.504
 20
-15.654
 11
-235
 21
-15.7
  0
LINE
  8
0
 10
-235
 20
-15.7
 11
-235.496
 21
-15.654
  0
LINE
  8
0
 10
-215.996
 20
-17.404
 11
-216.475
 21
-17.2677
  0
LINE
  8
0
 10
-216.475
 20
-17.2677
 11
-216.921
 21
-17.0456
  0
LINE
  8
0
 10
-216.921
 20
-17.0456
 11
-217.319
 21
-16.7453
  0
LINE
  8
0
 10
-217.319
 20
-16.7453
 11
-217.655
 21
-16.3771
  0
LINE
  8
0
 10
-217.655
 20
-16.3771
 11
-217.917
 21
-15.9535
  0
LINE
  8
0
 10
-217.917
 20
-15.9535
 11
-218.097
 21
-15.4889
  0
LINE
  8
0
 10
-218.097
 20
-15.4889
 11
-218.188
 21
-14.9991
  0
LINE
  8
0
 10
-218.188
 20
-14.9991
 11
-218.188
 21
-14.5009
  0
LINE
  8
0
 10
-218.188
 20
-14.5009
 11
-218.097
 21
-14.0111
  0
LINE
  8
0
 10
-218.097
 20
-14.0111
 11
-217.917
 21
-13.5465
  0
LINE
  8
0
 10
-217.917
 20
-13.5465
 11
-217.655
 21
-13.1229
  0
LINE
  8
0
 10
-217.655
 20
-13.1229
 11
-217.319
 21
-12.7547
  0
LINE
  8
0
 10
-217.319
 20
-12.7547
 11
-216.921
 21
-12.4544
  0
LINE
  8
0
 10
-216.921
 20
-12.4544
 11
-216.475
 21
-12.2323
  0
LINE
  8
0
 10
-216.475
 20
-12.2323
 11
-215.996
 21
-12.096
  0
LINE
  8
0
 10
-215.996
 20
-12.096
 11
-215.5
 21
-12.05
  0
LINE
  8
0
 10
-215.5
 20
-12.05
 11
-215.004
 21
-12.096
  0
LINE
  8
0
 10
-215.004
 20
-12.096
 11
-214.525
 21
-12.2323
  0
LINE
  8
0
 10
-214.525
 20
-12.2323
 11
-214.079
 21
-12.4544
  0
LINE
  8
0
 10
-214.079
 20
-12.4544
 11
-213.681
 21
-12.7547
  0
LINE
  8
0
 10
-213.681
 20
-12.7547
 11
-213.345
 21
-13.1229
  0
LINE
  8
0
 10
-213.345
 20
-13.1229
 11
-213.083
 21
-13.5465
  0
LINE
  8
0
 10
-213.083
 20
-13.5465
 11
-212.903
 21
-14.0111
  0
LINE
  8
0
 10
-212.903
 20
-14.0111
 11
-212.812
 21
-14.5009
  0
LINE
  8
0
 10
-212.812
 20
-14.5009
 11
-212.812
 21
-14.9991
  0
LINE
  8
0
 10
-212.812
 20
-14.9991
 11
-212.903
 21
-15.4889
  0
LINE
  8
0
 10
-212.903
 20
-15.4889
 11
-213.083
 21
-15.9535
  0
LINE
  8
0
 10
-213.083
 20
-15.9535
 11
-213.345
 21
-16.3771
  0
LINE
  8
0
 10
-213.345
 20
-16.3771
 11
-213.681
 21
-16.7453
  0
LINE
  8
0
 10
-213.681
 20
-16.7453
 11
-214.079
 21
-17.0456
  0
LINE
  8
0
 10
-214.079
 20
-17.0456
 11
-214.525
 21
-17.2677
  0
LINE
  8
0
 10
-214.525
 20
-17.2677
 11
-215.004
 21
-17.404
  0
LINE
  8
0
 10
-215.004
 20
-17.404
 11
-215.5
 21
-17.45
  0
LINE
  8
0
 10
-215.5
 20
-17.45
 11
-215.996
 21
-17.404
  0
LINE
  8
0
 10
215.004
 20
-17.404
 11
214.525
 21
-17.2677
  0
LINE
  8
0
 10
214.525
 20
-17.2677
 11
214.079
 21
-17.0456
  0
LINE
  8
0
 10
214.079
 20
-17.0456
 11
213.681
 21
-16.7453
  0
LINE
  8
0
 10
213.681
 20
-16.7453
 11
213.345
 21
-16.3771
  0
LINE
  8
0
 10
213.345
 20
-16.3771
 11
213.083
 21
-15.9535
  0
LINE
  8
0
 10
213.083
 20
-15.9535
 11
212.903
 21
-15.4889
  0
LINE
  8
0
 10
212.903
 20
-15.4889
 11
212.812
 21
-14.9991
  0
LINE
  8
0
 10
212.812
 20
-14.9991
 11
212.812
 21
-14.5009
  0
LINE
  8
0
 10
212.812
 20
-14.5009
 11
212.903
 21
-14.0111
  0
LINE
  8
0
 10
212.903
 20
-14.0111
 11
213.083
 21
-13.5465
  0
LINE
  8
0
 10
213.083
 20
-13.5465
 11
213.345
 21
-13.1229
  0
LINE
  8
0
 10
213.345
 20
-13.1229
 11
213.681
 21
-12.7547
  0
LINE
  8
0
 10
213.681
 20
-12.7547
 11
214.079
 21
-12.4544
  0
LINE
  8
0
 10
214.079
 20
-12.4544
 11
214.525
 21
-12.2323
  0
LINE
  8
0
 10
214.525
 20
-12.2323
 11
215.004
 21
-12.096
  0
LINE
  8
0
 10
215.004
 20
-12.096
 11
215.5
 21
-12.05
  0
LINE
  8
0
 10
215.5
 20
-12.05
 11
215.996
 21
-12.096
  0
LINE
  8
0
 10
215.996
 20
-12.096
 11
216.475
 21
-12.2323
  0
LINE
  8
0
 10
216.475
 20
-12.2323
 11
216.921
 21
-12.4544
  0
LINE
  8
0
 10
216.921
 20
-12.4544
 11
217.319
 21
-12.7547
  0
LINE
  8
0
 10
217.319
 20
-12.7547
 11
217.655
 21
-13.1229
  0
LINE
  8
0
 10
217.655
 20
-13.1229
 11
217.917
 21
-13.5465
  0
LINE
  8
0
 10
217.917
 20
-13.5465
 11
218.097
 21
-14.0111
  0
LINE
  8
0
 10
218.097
 20
-14.0111
 11
218.188
 21
-14.5009
  0
LINE
  8
0
 10
218.188
 20
-14.5009
 11
218.188
 21
-14.9991
  0
LINE
  8
0
 10
218.188
 20
-14.9991
 11
218.097
 21
-15.4889
  0
LINE
  8
0
 10
218.097
 20
-15.4889
 11
217.917
 21
-15.9535
  0
LINE
  8
0
 10
217.917
 20
-15.9535
 11
217.655
 21
-16.3771
  0
LINE
  8
0
 10
217.655
 20
-16.3771
 11
217.319
 21
-16.7453
  0
LINE
  8
0
 10
217.319
 20
-16.7453
 11
216.921
 21
-17.0456
  0
LINE
  8
0
 10
216.921
 20
-17.0456
 11
216.475
 21
-17.2677
  0
LINE
  8
0
 10
216.475
 20
-17.2677
 11
215.996
 21
-17.404
  0
LINE
  8
0
 10
215.996
 20
-17.404
 11
215.5
 21
-17.45
  0
LINE
  8
0
 10
215.5
 20
-17.45
 11
215.004
 21
-17.404
  0
LINE
  8
0
 10
-14.9789
 20
-28.8811
 11
-15.4191
 21
-28.6801
  0
LINE
  8
0
 10
-15.4191
 20
-28.6801
 11
-15.7848
 21
-28.3633
  0
LINE
  8
0
 10
-15.7848
 20
-28.3633
 11
-17.7848
 21
-26.3633
  0
LINE
  8
0
 10
-17.7848
 20
-26.3633
 11
-18.0464
 21
-25.9562
  0
LINE
  8
0
 10
-18.0464
 20
-25.9562
 11
-18.1827
 21
-25.4919
  0
LINE
  8
0
 10
-18.1827
 20
-25.4919
 11
-18.1827
 21
-25.0081
  0
LINE
  8
0
 10
-18.1827
 20
-25.0081
 11
-18.0464
 21
-24.5438
  0
LINE
  8
0
 10
-18.0464
 20
-24.5438
 11
-17.7848
 21
-24.1367
  0
LINE
  8
0
 10
-17.7848
 20
-24.1367
 11
-17.4191
 21
-23.8199
  0
LINE
  8
0
 10
-17.4191
 20
-23.8199
 11
-16.9789
 21
-23.6189
  0
LINE
  8
0
 10
-16.9789
 20
-23.6189
 11
-16.5
 21
-23.55
  0
LINE
  8
0
 10
-16.5
 20
-23.55
 11
-16.021
 21
-23.6189
  0
LINE
  8
0
 10
-16.021
 20
-23.6189
 11
-15.5809
 21
-23.8199
  0
LINE
  8
0
 10
-15.5809
 20
-23.8199
 11
-15.2152
 21
-24.1367
  0
LINE
  8
0
 10
-15.2152
 20
-24.1367
 11
-13.2152
 21
-26.1367
  0
LINE
  8
0
 10
-13.2152
 20
-26.1367
 11
-12.9536
 21
-26.5438
  0
LINE
  8
0
 10
-12.9536
 20
-26.5438
 11
-12.8173
 21
-27.0081
  0
LINE
  8
0
 10
-12.8173
 20
-27.0081
 11
-12.8173
 21
-27.4919
  0
LINE
  8
0
 10
-12.8173
 20
-27.4919
 11
-12.9536
 21
-27.9562
  0
LINE
  8
0
 10
-12.9536
 20
-27.9562
 11
-13.2152
 21
-28.3633
  0
LINE
  8
0
 10
-13.2152
 20
-28.3633
 11
-13.5809
 21
-28.6801
  0
LINE
  8
0
 10
-13.5809
 20
-28.6801
 11
-14.021
 21
-28.8811
  0
LINE
  8
0
 10
-14.021
 20
-28.8811
 11
-14.5
 21
-28.95
  0
LINE
  8
0
 10
-14.5
 20
-28.95
 11
-14.9789
 21
-28.8811
  0
LINE
  8
0
 10
135.021
 20
-28.8811
 11
134.581
 21
-28.6801
  0
LINE
  8
0
 10
134.581
 20
-28.6801
 11
134.215
 21
-28.3633
  0
LINE
  8
0
 10
134.215
 20
-28.3633
 11
132.215
 21
-26.3633
  0
LINE
  8
0
 10
132.215
 20
-26.3633
 11
131.954
 21
-25.9562
  0
LINE
  8
0
 10
131.954
 20
-25.9562
 11
131.817
 21
-25.4919
  0
LINE
  8
0
 10
131.817
 20
-25.4919
 11
131.817
 21
-25.0081
  0
LINE
  8
0
 10
131.817
 20
-25.0081
 11
131.954
 21
-24.5438
  0
LINE
  8
0
 10
131.954
 20
-24.5438
 11
132.215
 21
-24.1367
  0
LINE
  8
0
 10
132.215
 20
-24.1367
 11
132.581
 21
-23.8199
  0
LINE
  8
0
 10
132.581
 20
-23.8199
 11
133.021
 21
-23.6189
  0
LINE
  8
0
 10
133.021
 20
-23.6189
 11
133.5
 21
-23.55
  0
LINE
  8
0
 10
133.5
 20
-23.55
 11
133.979
 21
-23.6189
  0
LINE
  8
0
 10
133.979
 20
-23.6189
 11
134.419
 21
-23.8199
  0
LINE
  8
0
 10
134.419
 20
-23.8199
 11
134.785
 21
-24.1367
  0
LINE
  8
0
 10
134.785
 20
-24.1367
 11
136.785
 21
-26.1367
  0
LINE
  8
0
 10
136.785
 20
-26.1367
 11
137.046
 21
-26.5438
  0
LINE
  8
0
 10
137.046
 20
-26.5438
 11
137.183
 21
-27.0081
  0
LINE
  8
0
 10
137.183
 20
-27.0081
 11
137.183
 21
-27.4919
  0
LINE
  8
0
 10
137.183
 20
-27.4919
 11
137.046
 21
-27.9562
  0
LINE
  8
0
 10
137.046
 20
-27.9562
 11
136.785
 21
-28.3633
  0
LINE
  8
0
 10
136.785
 20
-28.3633
 11
136.419
 21
-28.6801
  0
LINE
  8
0
 10
136.419
 20
-28.6801
 11
135.979
 21
-28.8811
  0
LINE
  8
0
 10
135.979
 20
-28.8811
 11
135.5
 21
-28.95
  0
LINE
  8
0
 10
135.5
 20
-28.95
 11
135.021
 21
-28.8811
  0
LINE
  8
0
 10
-164.979
 20
-28.8811
 11
-165.419
 21
-28.6801
  0
LINE
  8
0
 10
-165.419
 20
-28.6801
 11
-165.785
 21
-28.3633
  0
LINE
  8
0
 10
-165.785
 20
-28.3633
 11
-167.785
 21
-26.3633
  0
LINE
  8
0
 10
-167.785
 20
-26.3633
 11
-168.046
 21
-25.9562
  0
LINE
  8
0
 10
-168.046
 20
-25.9562
 11
-168.183
 21
-25.4919
  0
LINE
  8
0
 10
-168.183
 20
-25.4919
 11
-168.183
 21
-25.0081
  0
LINE
  8
0
 10
-168.183
 20
-25.0081
 11
-168.046
 21
-24.5438
  0
LINE
  8
0
 10
-168.046
 20
-24.5438
 11
-167.785
 21
-24.1367
  0
LINE
  8
0
 10
-167.785
 20
-24.1367
 11
-167.419
 21
-23.8199
  0
LINE
  8
0
 10
-167.419
 20
-23.8199
 11
-166.979
 21
-23.6189
  0
LINE
  8
0
 10
-166.979
 20
-23.6189
 11
-166.5
 21
-23.55
  0
LINE
  8
0
 10
-166.5
 20
-23.55
 11
-166.021
 21
-23.6189
  0
LINE
  8
0
 10
-166.021
 20
-23.6189
 11
-165.581
 21
-23.8199
  0
LINE
  8
0
 10
-165.581
 20
-23.8199
 11
-165.215
 21
-24.1367
  0
LINE
  8
0
 10
-165.215
 20
-24.1367
 11
-163.215
 21
-26.1367
  0
LINE
  8
0
 10
-163.215
 20
-26.1367
 11
-162.954
 21
-26.5438
  0
LINE
  8
0
 10
-162.954
 20
-26.5438
 11
-162.817
 21
-27.0081
  0
LINE
  8
0
 10
-162.817
 20
-27.0081
 11
-162.817
 21
-27.4919
  0
LINE
  8
0
 10
-162.817
 20
-27.4919
 11
-162.954
 21
-27.9562
  0
LINE
  8
0
 10
-162.954
 20
-27.9562
 11
-163.215
 21
-28.3633
  0
LINE
  8
0
 10
-163.215
 20
-28.3633
 11
-163.581
 21
-28.6801
  0
LINE
  8
0
 10
-163.581
 20
-28.6801
 11
-164.021
 21
-28.8811
  0
LINE
  8
0
 10
-164.021
 20
-28.8811
 11
-164.5
 21
-28.95
  0
LINE
  8
0
 10
-164.5
 20
-28.95
 11
-164.979
 21
-28.8811
  0
LINE
  8
0
 10
14.2581
 20
-28.9327
 11
13.7938
 21
-28.7964
  0
LINE
  8
0
 10
13.7938
 20
-28.7964
 11
13.3867
 21
-28.5348
  0
LINE
  8
0
 10
13.3867
 20
-28.5348
 11
13.0699
 21
-28.1691
  0
LINE
  8
0
 10
13.0699
 20
-28.1691
 11
12.8689
 21
-27.7289
  0
LINE
  8
0
 10
12.8689
 20
-27.7289
 11
12.8
 21
-27.25
  0
LINE
  8
0
 10
12.8
 20
-27.25
 11
12.8689
 21
-26.771
  0
LINE
  8
0
 10
12.8689
 20
-26.771
 11
13.0699
 21
-26.3309
  0
LINE
  8
0
 10
13.0699
 20
-26.3309
 11
13.3867
 21
-25.9652
  0
LINE
  8
0
 10
13.3867
 20
-25.9652
 11
15.3867
 21
-23.9652
  0
LINE
  8
0
 10
15.3867
 20
-23.9652
 11
15.7938
 21
-23.7036
  0
LINE
  8
0
 10
15.7938
 20
-23.7036
 11
16.2581
 21
-23.5673
  0
LINE
  8
0
 10
16.2581
 20
-23.5673
 11
16.7419
 21
-23.5673
  0
LINE
  8
0
 10
16.7419
 20
-23.5673
 11
17.2062
 21
-23.7036
  0
LINE
  8
0
 10
17.2062
 20
-23.7036
 11
17.6133
 21
-23.9652
  0
LINE
  8
0
 10
17.6133
 20
-23.9652
 11
17.9301
 21
-24.3309
  0
LINE
  8
0
 10
17.9301
 20
-24.3309
 11
18.1311
 21
-24.771
  0
LINE
  8
0
 10
18.1311
 20
-24.771
 11
18.2
 21
-25.25
  0
LINE
  8
0
 10
18.2
 20
-25.25
 11
18.1311
 21
-25.7289
  0
LINE
  8
0
 10
18.1311
 20
-25.7289
 11
17.9301
 21
-26.1691
  0
LINE
  8
0
 10
17.9301
 20
-26.1691
 11
17.6133
 21
-26.5348
  0
LINE
  8
0
 10
17.6133
 20
-26.5348
 11
15.6133
 21
-28.5348
  0
LINE
  8
0
 10
15.6133
 20
-28.5348
 11
15.2062
 21
-28.7964
  0
LINE
  8
0
 10
15.2062
 20
-28.7964
 11
14.7419
 21
-28.9327
  0
LINE
  8
0
 10
14.7419
 20
-28.9327
 11
14.2581
 21
-28.9327
  0
LINE
  8
0
 10
164.258
 20
-28.9327
 11
163.794
 21
-28.7964
  0
LINE
  8
0
 10
163.794
 20
-28.7964
 11
163.387
 21
-28.5348
  0
LINE
  8
0
 10
163.387
 20
-28.5348
 11
163.07
 21
-28.1691
  0
LINE
  8
0
 10
163.07
 20
-28.1691
 11
162.869
 21
-27.7289
  0
LINE
  8
0
 10
162.869
 20
-27.7289
 11
162.8
 21
-27.25
  0
LINE
  8
0
 10
162.8
 20
-27.25
 11
162.869
 21
-26.771
  0
LINE
  8
0
 10
162.869
 20
-26.771
 11
163.07
 21
-26.3309
  0
LINE
  8
0
 10
163.07
 20
-26.3309
 11
163.387
 21
-25.9652
  0
LINE
  8
0
 10
163.387
 20
-25.9652
 11
165.387
 21
-23.9652
  0
LINE
  8
0
 10
165.387
 20
-23.9652
 11
165.794
 21
-23.7036
  0
LINE
  8
0
 10
165.794
 20
-23.7036
 11
166.258
 21
-23.5673
  0
LINE
  8
0
 10
166.258
 20
-23.5673
 11
166.742
 21
-23.5673
  0
LINE
  8
0
 10
166.742
 20
-23.5673
 11
167.206
 21
-23.7036
  0
LINE
  8
0
 10
167.206
 20
-23.7036
 11
167.613
 21
-23.9652
  0
LINE
  8
0
 10
167.613
 20
-23.9652
 11
167.93
 21
-24.3309
  0
LINE
  8
0
 10
167.93
 20
-24.3309
 11
168.131
 21
-24.771
  0
LINE
  8
0
 10
168.131
 20
-24.771
 11
168.2
 21
-25.25
  0
LINE
  8
0
 10
168.2
 20
-25.25
 11
168.131
 21
-25.7289
  0
LINE
  8
0
 10
168.131
 20
-25.7289
 11
167.93
 21
-26.1691
  0
LINE
  8
0
 10
167.93
 20
-26.1691
 11
167.613
 21
-26.5348
  0
LINE
  8
0
 10
167.613
 20
-26.5348
 11
165.613
 21
-28.5348
  0
LINE
  8
0
 10
165.613
 20
-28.5348
 11
165.206
 21
-28.7964
  0
LINE
  8
0
 10
165.206
 20
-28.7964
 11
164.742
 21
-28.9327
  0
LINE
  8
0
 10
164.742
 20
-28.9327
 11
164.258
 21
-28.9327
  0
LINE
  8
0
 10
-135.742
 20
-28.9327
 11
-136.206
 21
-28.7964
  0
LINE
  8
0
 10
-136.206
 20
-28.7964
 11
-136.613
 21
-28.5348
  0
LINE
  8
0
 10
-136.613
 20
-28.5348
 11
-136.93
 21
-28.1691
  0
LINE
  8
0
 10
-136.93
 20
-28.1691
 11
-137.131
 21
-27.7289
  0
LINE
  8
0
 10
-137.131
 20
-27.7289
 11
-137.2
 21
-27.25
  0
LINE
  8
0
 10
-137.2
 20
-27.25
 11
-137.131
 21
-26.771
  0
LINE
  8
0
 10
-137.131
 20
-26.771
 11
-136.93
 21
-26.3309
  0
LINE
  8
0
 10
-136.93
 20
-26.3309
 11
-136.613
 21
-25.9652
  0
LINE
  8
0
 10
-136.613
 20
-25.9652
 11
-134.613
 21
-23.9652
  0
LINE
  8
0
 10
-134.613
 20
-23.9652
 11
-134.206
 21
-23.7036
  0
LINE
  8
0
 10
-134.206
 20
-23.7036
 11
-133.742
 21
-23.5673
  0
LINE
  8
0
 10
-133.742
 20
-23.5673
 11
-133.258
 21
-23.5673
  0
LINE
  8
0
 10
-133.258
 20
-23.5673
 11
-132.794
 21
-23.7036
  0
LINE
  8
0
 10
-132.794
 20
-23.7036
 11
-132.387
 21
-23.9652
  0
LINE
  8
0
 10
-132.387
 20
-23.9652
 11
-132.07
 21
-24.3309
  0
LINE
  8
0
 10
-132.07
 20
-24.3309
 11
-131.869
 21
-24.771
  0
LINE
  8
0
 10
-131.869
 20
-24.771
 11
-131.8
 21
-25.25
  0
LINE
  8
0
 10
-131.8
 20
-25.25
 11
-131.869
 21
-25.7289
  0
LINE
  8
0
 10
-131.869
 20
-25.7289
 11
-132.07
 21
-26.1691
  0
LINE
  8
0
 10
-132.07
 20
-26.1691
 11
-132.387
 21
-26.5348
  0
LINE
  8
0
 10
-132.387
 20
-26.5348
 11
-134.387
 21
-28.5348
  0
LINE
  8
0
 10
-134.387
 20
-28.5348
 11
-134.794
 21
-28.7964
  0
LINE
  8
0
 10
-134.794
 20
-28.7964
 11
-135.258
 21
-28.9327
  0
LINE
  8
0
 10
-135.258
 20
-28.9327
 11
-135.742
 21
-28.9327
  0
LINE
  8
0
 10
202.004
 20
-33.154
 11
201.525
 21
-33.0177
  0
LINE
  8
0
 10
201.525
 20
-33.0177
 11
201.079
 21
-32.7956
  0
LINE
  8
0
 10
201.079
 20
-32.7956
 11
200.681
 21
-32.4953
  0
LINE
  8
0
 10
200.681
 20
-32.4953
 11
200.345
 21
-32.1271
  0
LINE
  8
0
 10
200.345
 20
-32.1271
 11
200.083
 21
-31.7035
  0
LINE
  8
0
 10
200.083
 20
-31.7035
 11
199.903
 21
-31.2389
  0
LINE
  8
0
 10
199.903
 20
-31.2389
 11
199.812
 21
-30.7491
  0
LINE
  8
0
 10
199.812
 20
-30.7491
 11
199.812
 21
-30.2509
  0
LINE
  8
0
 10
199.812
 20
-30.2509
 11
199.903
 21
-29.7611
  0
LINE
  8
0
 10
199.903
 20
-29.7611
 11
200.083
 21
-29.2965
  0
LINE
  8
0
 10
200.083
 20
-29.2965
 11
200.345
 21
-28.8729
  0
LINE
  8
0
 10
200.345
 20
-28.8729
 11
200.681
 21
-28.5047
  0
LINE
  8
0
 10
200.681
 20
-28.5047
 11
201.079
 21
-28.2044
  0
LINE
  8
0
 10
201.079
 20
-28.2044
 11
201.525
 21
-27.9823
  0
LINE
  8
0
 10
201.525
 20
-27.9823
 11
202.004
 21
-27.846
  0
LINE
  8
0
 10
202.004
 20
-27.846
 11
202.5
 21
-27.8
  0
LINE
  8
0
 10
202.5
 20
-27.8
 11
202.996
 21
-27.846
  0
LINE
  8
0
 10
202.996
 20
-27.846
 11
203.475
 21
-27.9823
  0
LINE
  8
0
 10
203.475
 20
-27.9823
 11
203.921
 21
-28.2044
  0
LINE
  8
0
 10
203.921
 20
-28.2044
 11
204.319
 21
-28.5047
  0
LINE
  8
0
 10
204.319
 20
-28.5047
 11
204.655
 21
-28.8729
  0
LINE
  8
0
 10
204.655
 20
-28.8729
 11
204.917
 21
-29.2965
  0
LINE
  8
0
 10
204.917
 20
-29.2965
 11
205.097
 21
-29.7611
  0
LINE
  8
0
 10
205.097
 20
-29.7611
 11
205.188
 21
-30.2509
  0
LINE
  8
0
 10
205.188
 20
-30.2509
 11
205.188
 21
-30.7491
  0
LINE
  8
0
 10
205.188
 20
-30.7491
 11
205.097
 21
-31.2389
  0
LINE
  8
0
 10
205.097
 20
-31.2389
 11
204.917
 21
-31.7035
  0
LINE
  8
0
 10
204.917
 20
-31.7035
 11
204.655
 21
-32.1271
  0
LINE
  8
0
 10
204.655
 20
-32.1271
 11
204.319
 21
-32.4953
  0
LINE
  8
0
 10
204.319
 20
-32.4953
 11
203.921
 21
-32.7956
  0
LINE
  8
0
 10
203.921
 20
-32.7956
 11
203.475
 21
-33.0177
  0
LINE
  8
0
 10
203.475
 20
-33.0177
 11
202.996
 21
-33.154
  0
LINE
  8
0
 10
202.996
 20
-33.154
 11
202.5
 21
-33.2
  0
LINE
  8
0
 10
202.5
 20
-33.2
 11
202.004
 21
-33.154
  0
LINE
  8
0
 10
-202.996
 20
-33.154
 11
-203.475
 21
-33.0177
  0
LINE
  8
0
 10
-203.475
 20
-33.0177
 11
-203.921
 21
-32.7956
  0
LINE
  8
0
 10
-203.921
 20
-32.7956
 11
-204.319
 21
-32.4953
  0
LINE
  8
0
 10
-204.319
 20
-32.4953
 11
-204.655
 21
-32.1271
  0
LINE
  8
0
 10
-204.655
 20
-32.1271
 11
-204.917
 21
-31.7035
  0
LINE
  8
0
 10
-204.917
 20
-31.7035
 11
-205.097
 21
-31.2389
  0
LINE
  8
0
 10
-205.097
 20
-31.2389
 11
-205.188
 21
-30.7491
  0
LINE
  8
0
 10
-205.188
 20
-30.7491
 11
-205.188
 21
-30.2509
  0
LINE
  8
0
 10
-205.188
 20
-30.2509
 11
-205.097
 21
-29.7611
  0
LINE
  8
0
 10
-205.097
 20
-29.7611
 11
-204.917
 21
-29.2965
  0
LINE
  8
0
 10
-204.917
 20
-29.2965
 11
-204.655
 21
-28.8729
  0
LINE
  8
0
 10
-204.655
 20
-28.8729
 11
-204.319
 21
-28.5047
  0
LINE
  8
0
 10
-204.319
 20
-28.5047
 11
-203.921
 21
-28.2044
  0
LINE
  8
0
 10
-203.921
 20
-28.2044
 11
-203.475
 21
-27.9823
  0
LINE
  8
0
 10
-203.475
 20
-27.9823
 11
-202.996
 21
-27.846
  0
LINE
  8
0
 10
-202.996
 20
-27.846
 11
-202.5
 21
-27.8
  0
LINE
  8
0
 10
-202.5
 20
-27.8
 11
-202.004
 21
-27.846
  0
LINE
  8
0
 10
-202.004
 20
-27.846
 11
-201.525
 21
-27.9823
  0
LINE
  8
0
 10
-201.525
 20
-27.9823
 11
-201.079
 21
-28.2044
  0
LINE
  8
0
 10
-201.079
 20
-28.2044
 11
-200.681
 21
-28.5047
  0
LINE
  8
0
 10
-200.681
 20
-28.5047
 11
-200.345
 21
-28.8729
  0
LINE
  8
0
 10
-200.345
 20
-28.8729
 11
-200.083
 21
-29.2965
  0
LINE
  8
0
 10
-200.083
 20
-29.2965
 11
-199.903
 21
-29.7611
  0
LINE
  8
0
 10
-199.903
 20
-29.7611
 11
-199.812
 21
-30.2509
  0
LINE
  8
0
 10
-199.812
 20
-30.2509
 11
-199.812
 21
-30.7491
  0
LINE
  8
0
 10
-199.812
 20
-30.7491
 11
-199.903
 21
-31.2389
  0
LINE
  8
0
 10
-199.903
 20
-31.2389
 11
-200.083
 21
-31.7035
  0
LINE
  8
0
 10
-200.083
 20
-31.7035
 11
-200.345
 21
-32.1271
  0
LINE
  8
0
 10
-200.345
 20
-32.1271
 11
-200.681
 21
-32.4953
  0
LINE
  8
0
 10
-200.681
 20
-32.4953
 11
-201.079
 21
-32.7956
  0
LINE
  8
0
 10
-201.079
 20
-32.7956
 11
-201.525
 21
-33.0177
  0
LINE
  8
0
 10
-201.525
 20
-33.0177
 11
-202.004
 21
-33.154
  0
LINE
  8
0
 10
-202.004
 20
-33.154
 11
-202.5
 21
-33.2
  0
LINE
  8
0
 10
-202.5
 20
-33.2
 11
-202.996
 21
-33.154
  0
LINE
  8
0
 10
149.751
 20
-52.7472
 11
149.255
 21
-52.7247
  0
LINE
  8
0
 10
149.255
 20
-52.7247
 11
148.76
 21
-52.6798
  0
LINE
  8
0
 10
148.76
 20
-52.6798
 11
148.267
 21
-52.6126
  0
LINE
  8
0
 10
148.267
 20
-52.6126
 11
147.778
 21
-52.5232
  0
LINE
  8
0
 10
147.778
 20
-52.5232
 11
147.293
 21
-52.4118
  0
LINE
  8
0
 10
147.293
 20
-52.4118
 11
146.814
 21
-52.2786
  0
LINE
  8
0
 10
146.814
 20
-52.2786
 11
146.342
 21
-52.1239
  0
LINE
  8
0
 10
146.342
 20
-52.1239
 11
145.877
 21
-51.948
  0
LINE
  8
0
 10
145.877
 20
-51.948
 11
145.42
 21
-51.7513
  0
LINE
  8
0
 10
145.42
 20
-51.7513
 11
144.973
 21
-51.5341
  0
LINE
  8
0
 10
144.973
 20
-51.5341
 11
144.536
 21
-51.2969
  0
LINE
  8
0
 10
144.536
 20
-51.2969
 11
144.11
 21
-51.0403
  0
LINE
  8
0
 10
144.11
 20
-51.0403
 11
143.696
 21
-50.7646
  0
LINE
  8
0
 10
143.696
 20
-50.7646
 11
143.295
 21
-50.4706
  0
LINE
  8
0
 10
143.295
 20
-50.4706
 11
142.908
 21
-50.1587
  0
LINE
  8
0
 10
142.908
 20
-50.1587
 11
142.535
 21
-49.8297
  0
LINE
  8
0
 10
142.535
 20
-49.8297
 11
142.178
 21
-49.4841
  0
LINE
  8
0
 10
142.178
 20
-49.4841
 11
141.837
 21
-49.1227
  0
LINE
  8
0
 10
141.837
 20
-49.1227
 11
141.512
 21
-48.7463
  0
LINE
  8
0
 10
141.512
 20
-48.7463
 11
141.204
 21
-48.3556
  0
LINE
  8
0
 10
141.204
 20
-48.3556
 11
140.915
 21
-47.9514
  0
LINE
  8
0
 10
140.915
 20
-47.9514
 11
140.644
 21
-47.5345
  0
LINE
  8
0
 10
140.644
 20
-47.5345
 11
140.392
 21
-47.1058
  0
LINE
  8
0
 10
140.392
 20
-47.1058
 11
140.16
 21
-46.6662
  0
LINE
  8
0
 10
140.16
 20
-46.6662
 11
139.948
 21
-46.2165
  0
LINE
  8
0
 10
139.948
 20
-46.2165
 11
139.756
 21
-45.7577
  0
LINE
  8
0
 10
139.756
 20
-45.7577
 11
139.585
 21
-45.2907
  0
LINE
  8
0
 10
139.585
 20
-45.2907
 11
139.436
 21
-44.8165
  0
LINE
  8
0
 10
139.436
 20
-44.8165
 11
139.308
 21
-44.336
  0
LINE
  8
0
 10
139.308
 20
-44.336
 11
139.202
 21
-43.8503
  0
LINE
  8
0
 10
139.202
 20
-43.8503
 11
139.118
 21
-43.3602
  0
LINE
  8
0
 10
139.118
 20
-43.3602
 11
139.057
 21
-42.8668
  0
LINE
  8
0
 10
139.057
 20
-42.8668
 11
139.018
 21
-42.3712
  0
LINE
  8
0
 10
139.018
 20
-42.3712
 11
139.001
 21
-41.8743
  0
LINE
  8
0
 10
139.001
 20
-41.8743
 11
139.006
 21
-41.3771
  0
LINE
  8
0
 10
139.006
 20
-41.3771
 11
139.034
 21
-40.8808
  0
LINE
  8
0
 10
139.034
 20
-40.8808
 11
139.085
 21
-40.3861
  0
LINE
  8
0
 10
139.085
 20
-40.3861
 11
139.158
 21
-39.8943
  0
LINE
  8
0
 10
139.158
 20
-39.8943
 11
139.253
 21
-39.4062
  0
LINE
  8
0
 10
139.253
 20
-39.4062
 11
139.369
 21
-38.923
  0
LINE
  8
0
 10
139.369
 20
-38.923
 11
139.508
 21
-38.4455
  0
LINE
  8
0
 10
139.508
 20
-38.4455
 11
139.668
 21
-37.9748
  0
LINE
  8
0
 10
139.668
 20
-37.9748
 11
139.849
 21
-37.5118
  0
LINE
  8
0
 10
139.849
 20
-37.5118
 11
140.051
 21
-37.0574
  0
LINE
  8
0
 10
140.051
 20
-37.0574
 11
140.273
 21
-36.6127
  0
LINE
  8
0
 10
140.273
 20
-36.6127
 11
140.515
 21
-36.1784
  0
LINE
  8
0
 10
140.515
 20
-36.1784
 11
140.777
 21
-35.7555
  0
LINE
  8
0
 10
140.777
 20
-35.7555
 11
141.057
 21
-35.3448
  0
LINE
  8
0
 10
141.057
 20
-35.3448
 11
141.356
 21
-34.9473
  0
LINE
  8
0
 10
141.356
 20
-34.9473
 11
141.672
 21
-34.5636
  0
LINE
  8
0
 10
141.672
 20
-34.5636
 11
142.005
 21
-34.1946
  0
LINE
  8
0
 10
142.005
 20
-34.1946
 11
142.355
 21
-33.8411
  0
LINE
  8
0
 10
142.355
 20
-33.8411
 11
142.72
 21
-33.5037
  0
LINE
  8
0
 10
142.72
 20
-33.5037
 11
143.1
 21
-33.1832
  0
LINE
  8
0
 10
143.1
 20
-33.1832
 11
143.494
 21
-32.8801
  0
LINE
  8
0
 10
143.494
 20
-32.8801
 11
143.902
 21
-32.5952
  0
LINE
  8
0
 10
143.902
 20
-32.5952
 11
144.322
 21
-32.329
  0
LINE
  8
0
 10
144.322
 20
-32.329
 11
144.753
 21
-32.082
  0
LINE
  8
0
 10
144.753
 20
-32.082
 11
145.195
 21
-31.8548
  0
LINE
  8
0
 10
145.195
 20
-31.8548
 11
145.647
 21
-31.6478
  0
LINE
  8
0
 10
145.647
 20
-31.6478
 11
146.108
 21
-31.4614
  0
LINE
  8
0
 10
146.108
 20
-31.4614
 11
146.577
 21
-31.2961
  0
LINE
  8
0
 10
146.577
 20
-31.2961
 11
147.053
 21
-31.1521
  0
LINE
  8
0
 10
147.053
 20
-31.1521
 11
147.535
 21
-31.0298
  0
LINE
  8
0
 10
147.535
 20
-31.0298
 11
148.022
 21
-30.9293
  0
LINE
  8
0
 10
148.022
 20
-30.9293
 11
148.513
 21
-30.851
  0
LINE
  8
0
 10
148.513
 20
-30.851
 11
149.007
 21
-30.7949
  0
LINE
  8
0
 10
149.007
 20
-30.7949
 11
149.503
 21
-30.7612
  0
LINE
  8
0
 10
149.503
 20
-30.7612
 11
150
 21
-30.75
  0
LINE
  8
0
 10
150
 20
-30.75
 11
150.497
 21
-30.7612
  0
LINE
  8
0
 10
150.497
 20
-30.7612
 11
150.993
 21
-30.7949
  0
LINE
  8
0
 10
150.993
 20
-30.7949
 11
151.487
 21
-30.851
  0
LINE
  8
0
 10
151.487
 20
-30.851
 11
151.978
 21
-30.9293
  0
LINE
  8
0
 10
151.978
 20
-30.9293
 11
152.465
 21
-31.0298
  0
LINE
  8
0
 10
152.465
 20
-31.0298
 11
152.947
 21
-31.1521
  0
LINE
  8
0
 10
152.947
 20
-31.1521
 11
153.423
 21
-31.2961
  0
LINE
  8
0
 10
153.423
 20
-31.2961
 11
153.892
 21
-31.4614
  0
LINE
  8
0
 10
153.892
 20
-31.4614
 11
154.353
 21
-31.6478
  0
LINE
  8
0
 10
154.353
 20
-31.6478
 11
154.805
 21
-31.8548
  0
LINE
  8
0
 10
154.805
 20
-31.8548
 11
155.247
 21
-32.082
  0
LINE
  8
0
 10
155.247
 20
-32.082
 11
155.678
 21
-32.329
  0
LINE
  8
0
 10
155.678
 20
-32.329
 11
156.098
 21
-32.5952
  0
LINE
  8
0
 10
156.098
 20
-32.5952
 11
156.506
 21
-32.8801
  0
LINE
  8
0
 10
156.506
 20
-32.8801
 11
156.9
 21
-33.1832
  0
LINE
  8
0
 10
156.9
 20
-33.1832
 11
157.28
 21
-33.5037
  0
LINE
  8
0
 10
157.28
 20
-33.5037
 11
157.645
 21
-33.8411
  0
LINE
  8
0
 10
157.645
 20
-33.8411
 11
157.995
 21
-34.1946
  0
LINE
  8
0
 10
157.995
 20
-34.1946
 11
158.328
 21
-34.5636
  0
LINE
  8
0
 10
158.328
 20
-34.5636
 11
158.644
 21
-34.9473
  0
LINE
  8
0
 10
158.644
 20
-34.9473
 11
158.943
 21
-35.3448
  0
LINE
  8
0
 10
158.943
 20
-35.3448
 11
159.223
 21
-35.7555
  0
LINE
  8
0
 10
159.223
 20
-35.7555
 11
159.485
 21
-36.1784
  0
LINE
  8
0
 10
159.485
 20
-36.1784
 11
159.727
 21
-36.6127
  0
LINE
  8
0
 10
159.727
 20
-36.6127
 11
159.949
 21
-37.0574
  0
LINE
  8
0
 10
159.949
 20
-37.0574
 11
160.151
 21
-37.5118
  0
LINE
  8
0
 10
160.151
 20
-37.5118
 11
160.332
 21
-37.9748
  0
LINE
  8
0
 10
160.332
 20
-37.9748
 11
160.492
 21
-38.4455
  0
LINE
  8
0
 10
160.492
 20
-38.4455
 11
160.631
 21
-38.923
  0
LINE
  8
0
 10
160.631
 20
-38.923
 11
160.747
 21
-39.4062
  0
LINE
  8
0
 10
160.747
 20
-39.4062
 11
160.842
 21
-39.8943
  0
LINE
  8
0
 10
160.842
 20
-39.8943
 11
160.915
 21
-40.3861
  0
LINE
  8
0
 10
160.915
 20
-40.3861
 11
160.966
 21
-40.8808
  0
LINE
  8
0
 10
160.966
 20
-40.8808
 11
160.994
 21
-41.3771
  0
LINE
  8
0
 10
160.994
 20
-41.3771
 11
160.999
 21
-41.8743
  0
LINE
  8
0
 10
160.999
 20
-41.8743
 11
160.982
 21
-42.3712
  0
LINE
  8
0
 10
160.982
 20
-42.3712
 11
160.943
 21
-42.8668
  0
LINE
  8
0
 10
160.943
 20
-42.8668
 11
160.882
 21
-43.3602
  0
LINE
  8
0
 10
160.882
 20
-43.3602
 11
160.798
 21
-43.8503
  0
LINE
  8
0
 10
160.798
 20
-43.8503
 11
160.692
 21
-44.336
  0
LINE
  8
0
 10
160.692
 20
-44.336
 11
160.564
 21
-44.8165
  0
LINE
  8
0
 10
160.564
 20
-44.8165
 11
160.415
 21
-45.2907
  0
LINE
  8
0
 10
160.415
 20
-45.2907
 11
160.244
 21
-45.7577
  0
LINE
  8
0
 10
160.244
 20
-45.7577
 11
160.052
 21
-46.2165
  0
LINE
  8
0
 10
160.052
 20
-46.2165
 11
159.84
 21
-46.6662
  0
LINE
  8
0
 10
159.84
 20
-46.6662
 11
159.608
 21
-47.1058
  0
LINE
  8
0
 10
159.608
 20
-47.1058
 11
159.356
 21
-47.5345
  0
LINE
  8
0
 10
159.356
 20
-47.5345
 11
159.085
 21
-47.9514
  0
LINE
  8
0
 10
159.085
 20
-47.9514
 11
158.796
 21
-48.3556
  0
LINE
  8
0
 10
158.796
 20
-48.3556
 11
158.488
 21
-48.7463
  0
LINE
  8
0
 10
158.488
 20
-48.7463
 11
158.163
 21
-49.1227
  0
LINE
  8
0
 10
158.163
 20
-49.1227
 11
157.822
 21
-49.4841
  0
LINE
  8
0
 10
157.822
 20
-49.4841
 11
157.465
 21
-49.8297
  0
LINE
  8
0
 10
157.465
 20
-49.8297
 11
157.092
 21
-50.1587
  0
LINE
  8
0
 10
157.092
 20
-50.1587
 11
156.705
 21
-50.4706
  0
LINE
  8
0
 10
156.705
 20
-50.4706
 11
156.304
 21
-50.7646
  0
LINE
  8
0
 10
156.304
 20
-50.7646
 11
155.89
 21
-51.0403
  0
LINE
  8
0
 10
155.89
 20
-51.0403
 11
155.464
 21
-51.2969
  0
LINE
  8
0
 10
155.464
 20
-51.2969
 11
155.027
 21
-51.5341
  0
LINE
  8
0
 10
155.027
 20
-51.5341
 11
154.58
 21
-51.7513
  0
LINE
  8
0
 10
154.58
 20
-51.7513
 11
154.123
 21
-51.948
  0
LINE
  8
0
 10
154.123
 20
-51.948
 11
153.658
 21
-52.1239
  0
LINE
  8
0
 10
153.658
 20
-52.1239
 11
153.186
 21
-52.2786
  0
LINE
  8
0
 10
153.186
 20
-52.2786
 11
152.707
 21
-52.4118
  0
LINE
  8
0
 10
152.707
 20
-52.4118
 11
152.222
 21
-52.5232
  0
LINE
  8
0
 10
152.222
 20
-52.5232
 11
151.733
 21
-52.6126
  0
LINE
  8
0
 10
151.733
 20
-52.6126
 11
151.24
 21
-52.6798
  0
LINE
  8
0
 10
151.24
 20
-52.6798
 11
150.745
 21
-52.7247
  0
LINE
  8
0
 10
150.745
 20
-52.7247
 11
150.249
 21
-52.7472
  0
LINE
  8
0
 10
150.249
 20
-52.7472
 11
149.751
 21
-52.7472
  0
LINE
  8
0
 10
-0.248581
 20
-52.7472
 11
-0.74527
 21
-52.7247
  0
LINE
  8
0
 10
-0.74527
 20
-52.7247
 11
-1.24042
 21
-52.6798
  0
LINE
  8
0
 10
-1.24042
 20
-52.6798
 11
-1.73305
 21
-52.6126
  0
LINE
  8
0
 10
-1.73305
 20
-52.6126
 11
-2.22214
 21
-52.5232
  0
LINE
  8
0
 10
-2.22214
 20
-52.5232
 11
-2.70668
 21
-52.4118
  0
LINE
  8
0
 10
-2.70668
 20
-52.4118
 11
-3.18568
 21
-52.2786
  0
LINE
  8
0
 10
-3.18568
 20
-52.2786
 11
-3.65819
 21
-52.1239
  0
LINE
  8
0
 10
-3.65819
 20
-52.1239
 11
-4.12323
 21
-51.948
  0
LINE
  8
0
 10
-4.12323
 20
-51.948
 11
-4.57983
 21
-51.7513
  0
LINE
  8
0
 10
-4.57983
 20
-51.7513
 11
-5.02708
 21
-51.5341
  0
LINE
  8
0
 10
-5.02708
 20
-51.5341
 11
-5.46407
 21
-51.2969
  0
LINE
  8
0
 10
-5.46407
 20
-51.2969
 11
-5.88989
 21
-51.0403
  0
LINE
  8
0
 10
-5.88989
 20
-51.0403
 11
-6.30368
 21
-50.7646
  0
LINE
  8
0
 10
-6.30368
 20
-50.7646
 11
-6.70459
 21
-50.4706
  0
LINE
  8
0
 10
-6.70459
 20
-50.4706
 11
-7.0918
 21
-50.1587
  0
LINE
  8
0
 10
-7.0918
 20
-50.1587
 11
-7.46452
 21
-49.8297
  0
LINE
  8
0
 10
-7.46452
 20
-49.8297
 11
-7.82199
 21
-49.4841
  0
LINE
  8
0
 10
-7.82199
 20
-49.4841
 11
-8.16348
 21
-49.1227
  0
LINE
  8
0
 10
-8.16348
 20
-49.1227
 11
-8.4883
 21
-48.7463
  0
LINE
  8
0
 10
-8.4883
 20
-48.7463
 11
-8.79578
 21
-48.3556
  0
LINE
  8
0
 10
-8.79578
 20
-48.3556
 11
-9.08528
 21
-47.9514
  0
LINE
  8
0
 10
-9.08528
 20
-47.9514
 11
-9.35623
 21
-47.5345
  0
LINE
  8
0
 10
-9.35623
 20
-47.5345
 11
-9.60806
 21
-47.1058
  0
LINE
  8
0
 10
-9.60806
 20
-47.1058
 11
-9.84026
 21
-46.6662
  0
LINE
  8
0
 10
-9.84026
 20
-46.6662
 11
-10.0524
 21
-46.2165
  0
LINE
  8
0
 10
-10.0524
 20
-46.2165
 11
-10.2439
 21
-45.7577
  0
LINE
  8
0
 10
-10.2439
 20
-45.7577
 11
-10.4146
 21
-45.2907
  0
LINE
  8
0
 10
-10.4146
 20
-45.2907
 11
-10.5639
 21
-44.8165
  0
LINE
  8
0
 10
-10.5639
 20
-44.8165
 11
-10.6917
 21
-44.336
  0
LINE
  8
0
 10
-10.6917
 20
-44.336
 11
-10.7976
 21
-43.8503
  0
LINE
  8
0
 10
-10.7976
 20
-43.8503
 11
-10.8815
 21
-43.3602
  0
LINE
  8
0
 10
-10.8815
 20
-43.3602
 11
-10.9431
 21
-42.8668
  0
LINE
  8
0
 10
-10.9431
 20
-42.8668
 11
-10.9824
 21
-42.3712
  0
LINE
  8
0
 10
-10.9824
 20
-42.3712
 11
-10.9993
 21
-41.8743
  0
LINE
  8
0
 10
-10.9993
 20
-41.8743
 11
-10.9937
 21
-41.3771
  0
LINE
  8
0
 10
-10.9937
 20
-41.3771
 11
-10.9656
 21
-40.8808
  0
LINE
  8
0
 10
-10.9656
 20
-40.8808
 11
-10.9151
 21
-40.3861
  0
LINE
  8
0
 10
-10.9151
 20
-40.3861
 11
-10.8423
 21
-39.8943
  0
LINE
  8
0
 10
-10.8423
 20
-39.8943
 11
-10.7474
 21
-39.4062
  0
LINE
  8
0
 10
-10.7474
 20
-39.4062
 11
-10.6305
 21
-38.923
  0
LINE
  8
0
 10
-10.6305
 20
-38.923
 11
-10.4919
 21
-38.4455
  0
LINE
  8
0
 10
-10.4919
 20
-38.4455
 11
-10.3319
 21
-37.9748
  0
LINE
  8
0
 10
-10.3319
 20
-37.9748
 11
-10.1507
 21
-37.5118
  0
LINE
  8
0
 10
-10.1507
 20
-37.5118
 11
-9.94885
 21
-37.0574
  0
LINE
  8
0
 10
-9.94885
 20
-37.0574
 11
-9.72664
 21
-36.6127
  0
LINE
  8
0
 10
-9.72664
 20
-36.6127
 11
-9.48457
 21
-36.1784
  0
LINE
  8
0
 10
-9.48457
 20
-36.1784
 11
-9.22311
 21
-35.7555
  0
LINE
  8
0
 10
-9.22311
 20
-35.7555
 11
-8.94281
 21
-35.3448
  0
LINE
  8
0
 10
-8.94281
 20
-35.3448
 11
-8.64424
 21
-34.9473
  0
LINE
  8
0
 10
-8.64424
 20
-34.9473
 11
-8.32802
 21
-34.5636
  0
LINE
  8
0
 10
-8.32802
 20
-34.5636
 11
-7.99478
 21
-34.1946
  0
LINE
  8
0
 10
-7.99478
 20
-34.1946
 11
-7.6452
 21
-33.8411
  0
LINE
  8
0
 10
-7.6452
 20
-33.8411
 11
-7.28001
 21
-33.5037
  0
LINE
  8
0
 10
-7.28001
 20
-33.5037
 11
-6.89995
 21
-33.1832
  0
LINE
  8
0
 10
-6.89995
 20
-33.1832
 11
-6.5058
 21
-32.8801
  0
LINE
  8
0
 10
-6.5058
 20
-32.8801
 11
-6.09834
 21
-32.5952
  0
LINE
  8
0
 10
-6.09834
 20
-32.5952
 11
-5.67844
 21
-32.329
  0
LINE
  8
0
 10
-5.67844
 20
-32.329
 11
-5.24692
 21
-32.082
  0
LINE
  8
0
 10
-5.24692
 20
-32.082
 11
-4.80469
 21
-31.8548
  0
LINE
  8
0
 10
-4.80469
 20
-31.8548
 11
-4.35265
 21
-31.6478
  0
LINE
  8
0
 10
-4.35265
 20
-31.6478
 11
-3.89171
 21
-31.4614
  0
LINE
  8
0
 10
-3.89171
 20
-31.4614
 11
-3.42282
 21
-31.2961
  0
LINE
  8
0
 10
-3.42282
 20
-31.2961
 11
-2.94693
 21
-31.1521
  0
LINE
  8
0
 10
-2.94693
 20
-31.1521
 11
-2.46503
 21
-31.0298
  0
LINE
  8
0
 10
-2.46503
 20
-31.0298
 11
-1.97809
 21
-30.9293
  0
LINE
  8
0
 10
-1.97809
 20
-30.9293
 11
-1.48712
 21
-30.851
  0
LINE
  8
0
 10
-1.48712
 20
-30.851
 11
-0.993103
 21
-30.7949
  0
LINE
  8
0
 10
-0.993103
 20
-30.7949
 11
-0.497055
 21
-30.7612
  0
LINE
  8
0
 10
-0.497055
 20
-30.7612
 11
0
 21
-30.75
  0
LINE
  8
0
 10
0
 20
-30.75
 11
0.497055
 21
-30.7612
  0
LINE
  8
0
 10
0.497055
 20
-30.7612
 11
0.993103
 21
-30.7949
  0
LINE
  8
0
 10
0.993103
 20
-30.7949
 11
1.48712
 21
-30.851
  0
LINE
  8
0
 10
1.48712
 20
-30.851
 11
1.97809
 21
-30.9293
  0
LINE
  8
0
 10
1.97809
 20
-30.9293
 11
2.46503
 21
-31.0298
  0
LINE
  8
0
 10
2.46503
 20
-31.0298
 11
2.94693
 21
-31.1521
  0
LINE
  8
0
 10
2.94693
 20
-31.1521
 11
3.42282
 21
-31.2961
  0
LINE
  8
0
 10
3.42282
 20
-31.2961
 11
3.89171
 21
-31.4614
  0
LINE
  8
0
 10
3.89171
 20
-31.4614
 11
4.35265
 21
-31.6478
  0
LINE
  8
0
 10
4.35265
 20
-31.6478
 11
4.80469
 21
-31.8548
  0
LINE
  8
0
 10
4.80469
 20
-31.8548
 11
5.24692
 21
-32.082
  0
LINE
  8
0
 10
5.24692
 20
-32.082
 11
5.67844
 21
-32.329
  0
LINE
  8
0
 10
5.67844
 20
-32.329
 11
6.09834
 21
-32.5952
  0
LINE
  8
0
 10
6.09834
 20
-32.5952
 11
6.5058
 21
-32.8801
  0
LINE
  8
0
 10
6.5058
 20
-32.8801
 11
6.89995
 21
-33.1832
  0
LINE
  8
0
 10
6.89995
 20
-33.1832
 11
7.28001
 21
-33.5037
  0
LINE
  8
0
 10
7.28001
 20
-33.5037
 11
7.6452
 21
-33.8411
  0
LINE
  8
0
 10
7.6452
 20
-33.8411
 11
7.99478
 21
-34.1946
  0
LINE
  8
0
 10
7.99478
 20
-34.1946
 11
8.32802
 21
-34.5636
  0
LINE
  8
0
 10
8.32802
 20
-34.5636
 11
8.64424
 21
-34.9473
  0
LINE
  8
0
 10
8.64424
 20
-34.9473
 11
8.94281
 21
-35.3448
  0
LINE
  8
0
 10
8.94281
 20
-35.3448
 11
9.22311
 21
-35.7555
  0
LINE
  8
0
 10
9.22311
 20
-35.7555
 11
9.48457
 21
-36.1784
  0
LINE
  8
0
 10
9.48457
 20
-36.1784
 11
9.72664
 21
-36.6127
  0
LINE
  8
0
 10
9.72664
 20
-36.6127
 11
9.94885
 21
-37.0574
  0
LINE
  8
0
 10
9.94885
 20
-37.0574
 11
10.1507
 21
-37.5118
  0
LINE
  8
0
 10
10.1507
 20
-37.5118
 11
10.3319
 21
-37.9748
  0
LINE
  8
0
 10
10.3319
 20
-37.9748
 11
10.4919
 21
-38.4455
  0
LINE
  8
0
 10
10.4919
 20
-38.4455
 11
10.6305
 21
-38.923
  0
LINE
  8
0
 10
10.6305
 20
-38.923
 11
10.7474
 21
-39.4062
  0
LINE
  8
0
 10
10.7474
 20
-39.4062
 11
10.8423
 21
-39.8943
  0
LINE
  8
0
 10
10.8423
 20
-39.8943
 11
10.9151
 21
-40.3861
  0
LINE
  8
0
 10
10.9151
 20
-40.3861
 11
10.9656
 21
-40.8808
  0
LINE
  8
0
 10
10.9656
 20
-40.8808
 11
10.9937
 21
-41.3771
  0
LINE
  8
0
 10
10.9937
 20
-41.3771
 11
10.9993
 21
-41.8743
  0
LINE
  8
0
 10
10.9993
 20
-41.8743
 11
10.9824
 21
-42.3712
  0
LINE
  8
0
 10
10.9824
 20
-42.3712
 11
10.9431
 21
-42.8668
  0
LINE
  8
0
 10
10.9431
 20
-42.8668
 11
10.8815
 21
-43.3602
  0
LINE
  8
0
 10
10.8815
 20
-43.3602
 11
10.7976
 21
-43.8503
  0
LINE
  8
0
 10
10.7976
 20
-43.8503
 11
10.6917
 21
-44.336
  0
LINE
  8
0
 10
10.6917
 20
-44.336
 11
10.5639
 21
-44.8165
  0
LINE
  8
0
 10
10.5639
 20
-44.8165
 11
10.4146
 21
-45.2907
  0
LINE
  8
0
 10
10.4146
 20
-45.2907
 11
10.2439
 21
-45.7577
  0
LINE
  8
0
 10
10.2439
 20
-45.7577
 11
10.0524
 21
-46.2165
  0
LINE
  8
0
 10
10.0524
 20
-46.2165
 11
9.84026
 21
-46.6662
  0
LINE
  8
0
 10
9.84026
 20
-46.6662
 11
9.60806
 21
-47.1058
  0
LINE
  8
0
 10
9.60806
 20
-47.1058
 11
9.35623
 21
-47.5345
  0
LINE
  8
0
 10
9.35623
 20
-47.5345
 11
9.08528
 21
-47.9514
  0
LINE
  8
0
 10
9.08528
 20
-47.9514
 11
8.79578
 21
-48.3556
  0
LINE
  8
0
 10
8.79578
 20
-48.3556
 11
8.4883
 21
-48.7463
  0
LINE
  8
0
 10
8.4883
 20
-48.7463
 11
8.16348
 21
-49.1227
  0
LINE
  8
0
 10
8.16348
 20
-49.1227
 11
7.82199
 21
-49.4841
  0
LINE
  8
0
 10
7.82199
 20
-49.4841
 11
7.46452
 21
-49.8297
  0
LINE
  8
0
 10
7.46452
 20
-49.8297
 11
7.0918
 21
-50.1587
  0
LINE
  8
0
 10
7.0918
 20
-50.1587
 11
6.70459
 21
-50.4706
  0
LINE
  8
0
 10
6.70459
 20
-50.4706
 11
6.30368
 21
-50.7646
  0
LINE
  8
0
 10
6.30368
 20
-50.7646
 11
5.88989
 21
-51.0403
  0
LINE
  8
0
 10
5.88989
 20
-51.0403
 11
5.46407
 21
-51.2969
  0
LINE
  8
0
 10
5.46407
 20
-51.2969
 11
5.02708
 21
-51.5341
  0
LINE
  8
0
 10
5.02708
 20
-51.5341
 11
4.57983
 21
-51.7513
  0
LINE
  8
0
 10
4.57983
 20
-51.7513
 11
4.12323
 21
-51.948
  0
LINE
  8
0
 10
4.12323
 20
-51.948
 11
3.65819
 21
-52.1239
  0
LINE
  8
0
 10
3.65819
 20
-52.1239
 11
3.18568
 21
-52.2786
  0
LINE
  8
0
 10
3.18568
 20
-52.2786
 11
2.70668
 21
-52.4118
  0
LINE
  8
0
 10
2.70668
 20
-52.4118
 11
2.22214
 21
-52.5232
  0
LINE
  8
0
 10
2.22214
 20
-52.5232
 11
1.73305
 21
-52.6126
  0
LINE
  8
0
 10
1.73305
 20
-52.6126
 11
1.24042
 21
-52.6798
  0
LINE
  8
0
 10
1.24042
 20
-52.6798
 11
0.74527
 21
-52.7247
  0
LINE
  8
0
 10
0.74527
 20
-52.7247
 11
0.248581
 21
-52.7472
  0
LINE
  8
0
 10
0.248581
 20
-52.7472
 11
-0.248581
 21
-52.7472
  0
LINE
  8
0
 10
-150.249
 20
-52.7472
 11
-150.745
 21
-52.7247
  0
LINE
  8
0
 10
-150.745
 20
-52.7247
 11
-151.24
 21
-52.6798
  0
LINE
  8
0
 10
-151.24
 20
-52.6798
 11
-151.733
 21
-52.6126
  0
LINE
  8
0
 10
-151.733
 20
-52.6126
 11
-152.222
 21
-52.5232
  0
LINE
  8
0
 10
-152.222
 20
-52.5232
 11
-152.707
 21
-52.4118
  0
LINE
  8
0
 10
-152.707
 20
-52.4118
 11
-153.186
 21
-52.2786
  0
LINE
  8
0
 10
-153.186
 20
-52.2786
 11
-153.658
 21
-52.1239
  0
LINE
  8
0
 10
-153.658
 20
-52.1239
 11
-154.123
 21
-51.948
  0
LINE
  8
0
 10
-154.123
 20
-51.948
 11
-154.58
 21
-51.7513
  0
LINE
  8
0
 10
-154.58
 20
-51.7513
 11
-155.027
 21
-51.5341
  0
LINE
  8
0
 10
-155.027
 20
-51.5341
 11
-155.464
 21
-51.2969
  0
LINE
  8
0
 10
-155.464
 20
-51.2969
 11
-155.89
 21
-51.0403
  0
LINE
  8
0
 10
-155.89
 20
-51.0403
 11
-156.304
 21
-50.7646
  0
LINE
  8
0
 10
-156.304
 20
-50.7646
 11
-156.705
 21
-50.4706
  0
LINE
  8
0
 10
-156.705
 20
-50.4706
 11
-157.092
 21
-50.1587
  0
LINE
  8
0
 10
-157.092
 20
-50.1587
 11
-157.465
 21
-49.8297
  0
LINE
  8
0
 10
-157.465
 20
-49.8297
 11
-157.822
 21
-49.4841
  0
LINE
  8
0
 10
-157.822
 20
-49.4841
 11
-158.163
 21
-49.1227
  0
LINE
  8
0
 10
-158.163
 20
-49.1227
 11
-158.488
 21
-48.7463
  0
LINE
  8
0
 10
-158.488
 20
-48.7463
 11
-158.796
 21
-48.3556
  0
LINE
  8
0
 10
-158.796
 20
-48.3556
 11
-159.085
 21
-47.9514
  0
LINE
  8
0
 10
-159.085
 20
-47.9514
 11
-159.356
 21
-47.5345
  0
LINE
  8
0
 10
-159.356
 20
-47.5345
 11
-159.608
 21
-47.1058
  0
LINE
  8
0
 10
-159.608
 20
-47.1058
 11
-159.84
 21
-46.6662
  0
LINE
  8
0
 10
-159.84
 20
-46.6662
 11
-160.052
 21
-46.2165
  0
LINE
  8
0
 10
-160.052
 20
-46.2165
 11
-160.244
 21
-45.7577
  0
LINE
  8
0
 10
-160.244
 20
-45.7577
 11
-160.415
 21
-45.2907
  0
LINE
  8
0
 10
-160.415
 20
-45.2907
 11
-160.564
 21
-44.8165
  0
LINE
  8
0
 10
-160.564
 20
-44.8165
 11
-160.692
 21
-44.336
  0
LINE
  8
0
 10
-160.692
 20
-44.336
 11
-160.798
 21
-43.8503
  0
LINE
  8
0
 10
-160.798
 20
-43.8503
 11
-160.882
 21
-43.3602
  0
LINE
  8
0
 10
-160.882
 20
-43.3602
 11
-160.943
 21
-42.8668
  0
LINE
  8
0
 10
-160.943
 20
-42.8668
 11
-160.982
 21
-42.3712
  0
LINE
  8
0
 10
-160.982
 20
-42.3712
 11
-160.999
 21
-41.8743
  0
LINE
  8
0
 10
-160.999
 20
-41.8743
 11
-160.994
 21
-41.3771
  0
LINE
  8
0
 10
-160.994
 20
-41.3771
 11
-160.966
 21
-40.8808
  0
LINE
  8
0
 10
-160.966
 20
-40.8808
 11
-160.915
 21
-40.3861
  0
LINE
  8
0
 10
-160.915
 20
-40.3861
 11
-160.842
 21
-39.8943
  0
LINE
  8
0
 10
-160.842
 20
-39.8943
 11
-160.747
 21
-39.4062
  0
LINE
  8
0
 10
-160.747
 20
-39.4062
 11
-160.631
 21
-38.923
  0
LINE
  8
0
 10
-160.631
 20
-38.923
 11
-160.492
 21
-38.4455
  0
LINE
  8
0
 10
-160.492
 20
-38.4455
 11
-160.332
 21
-37.9748
  0
LINE
  8
0
 10
-160.332
 20
-37.9748
 11
-160.151
 21
-37.5118
  0
LINE
  8
0
 10
-160.151
 20
-37.5118
 11
-159.949
 21
-37.0574
  0
LINE
  8
0
 10
-159.949
 20
-37.0574
 11
-159.727
 21
-36.6127
  0
LINE
  8
0
 10
-159.727
 20
-36.6127
 11
-159.485
 21
-36.1784
  0
LINE
  8
0
 10
-159.485
 20
-36.1784
 11
-159.223
 21
-35.7555
  0
LINE
  8
0
 10
-159.223
 20
-35.7555
 11
-158.943
 21
-35.3448
  0
LINE
  8
0
 10
-158.943
 20
-35.3448
 11
-158.644
 21
-34.9473
  0
LINE
  8
0
 10
-158.644
 20
-34.9473
 11
-158.328
 21
-34.5636
  0
LINE
  8
0
 10
-158.328
 20
-34.5636
 11
-157.995
 21
-34.1946
  0
LINE
  8
0
 10
-157.995
 20
-34.1946
 11
-157.645
 21
-33.8411
  0
LINE
  8
0
 10
-157.645
 20
-33.8411
 11
-157.28
 21
-33.5037
  0
LINE
  8
0
 10
-157.28
 20
-33.5037
 11
-156.9
 21
-33.1832
  0
LINE
  8
0
 10
-156.9
 20
-33.1832
 11
-156.506
 21
-32.8801
  0
LINE
  8
0
 10
-156.506
 20
-32.8801
 11
-156.098
 21
-32.5952
  0
LINE
  8
0
 10
-156.098
 20
-32.5952
 11
-155.678
 21
-32.329
  0
LINE
  8
0
 10
-155.678
 20
-32.329
 11
-155.247
 21
-32.082
  0
LINE
  8
0
 10
-155.247
 20
-32.082
 11
-154.805
 21
-31.8548
  0
LINE
  8
0
 10
-154.805
 20
-31.8548
 11
-154.353
 21
-31.6478
  0
LINE
  8
0
 10
-154.353
 20
-31.6478
 11
-153.892
 21
-31.4614
  0
LINE
  8
0
 10
-153.892
 20
-31.4614
 11
-153.423
 21
-31.2961
  0
LINE
  8
0
 10
-153.423
 20
-31.2961
 11
-152.947
 21
-31.1521
  0
LINE
  8
0
 10
-152.947
 20
-31.1521
 11
-152.465
 21
-31.0298
  0
LINE
  8
0
 10
-152.465
 20
-31.0298
 11
-151.978
 21
-30.9293
  0
LINE
  8
0
 10
-151.978
 20
-30.9293
 11
-151.487
 21
-30.851
  0
LINE
  8
0
 10
-151.487
 20
-30.851
 11
-150.993
 21
-30.7949
  0
LINE
  8
0
 10
-150.993
 20
-30.7949
 11
-150.497
 21
-30.7612
  0
LINE
  8
0
 10
-150.497
 20
-30.7612
 11
-150
 21
-30.75
  0
LINE
  8
0
 10
-150
 20
-30.75
 11
-149.503
 21
-30.7612
  0
LINE
  8
0
 10
-149.503
 20
-30.7612
 11
-149.007
 21
-30.7949
  0
LINE
  8
0
 10
-149.007
 20
-30.7949
 11
-148.513
 21
-30.851
  0
LINE
  8
0
 10
-148.513
 20
-30.851
 11
-148.022
 21
-30.9293
  0
LINE
  8
0
 10
-148.022
 20
-30.9293
 11
-147.535
 21
-31.0298
  0
LINE
  8
0
 10
-147.535
 20
-31.0298
 11
-147.053
 21
-31.1521
  0
LINE
  8
0
 10
-147.053
 20
-31.1521
 11
-146.577
 21
-31.2961
  0
LINE
  8
0
 10
-146.577
 20
-31.2961
 11
-146.108
 21
-31.4614
  0
LINE
  8
0
 10
-146.108
 20
-31.4614
 11
-145.647
 21
-31.6478
  0
LINE
  8
0
 10
-145.647
 20
-31.6478
 11
-145.195
 21
-31.8548
  0
LINE
  8
0
 10
-145.195
 20
-31.8548
 11
-144.753
 21
-32.082
  0
LINE
  8
0
 10
-144.753
 20
-32.082
 11
-144.322
 21
-32.329
  0
LINE
  8
0
 10
-144.322
 20
-32.329
 11
-143.902
 21
-32.5952
  0
LINE
  8
0
 10
-143.902
 20
-32.5952
 11
-143.494
 21
-32.8801
  0
LINE
  8
0
 10
-143.494
 20
-32.8801
 11
-143.1
 21
-33.1832
  0
LINE
  8
0
 10
-143.1
 20
-33.1832
 11
-142.72
 21
-33.5037
  0
LINE
  8
0
 10
-142.72
 20
-33.5037
 11
-142.355
 21
-33.8411
  0
LINE
  8
0
 10
-142.355
 20
-33.8411
 11
-142.005
 21
-34.1946
  0
LINE
  8
0
 10
-142.005
 20
-34.1946
 11
-141.672
 21
-34.5636
  0
LINE
  8
0
 10
-141.672
 20
-34.5636
 11
-141.356
 21
-34.9473
  0
LINE
  8
0
 10
-141.356
 20
-34.9473
 11
-141.057
 21
-35.3448
  0
LINE
  8
0
 10
-141.057
 20
-35.3448
 11
-140.777
 21
-35.7555
  0
LINE
  8
0
 10
-140.777
 20
-35.7555
 11
-140.515
 21
-36.1784
  0
LINE
  8
0
 10
-140.515
 20
-36.1784
 11
-140.273
 21
-36.6127
  0
LINE
  8
0
 10
-140.273
 20
-36.6127
 11
-140.051
 21
-37.0574
  0
LINE
  8
0
 10
-140.051
 20
-37.0574
 11
-139.849
 21
-37.5118
  0
LINE
  8
0
 10
-139.849
 20
-37.5118
 11
-139.668
 21
-37.9748
  0
LINE
  8
0
 10
-139.668
 20
-37.9748
 11
-139.508
 21
-38.4455
  0
LINE
  8
0
 10
-139.508
 20
-38.4455
 11
-139.369
 21
-38.923
  0
LINE
  8
0
 10
-139.369
 20
-38.923
 11
-139.253
 21
-39.4062
  0
LINE
  8
0
 10
-139.253
 20
-39.4062
 11
-139.158
 21
-39.8943
  0
LINE
  8
0
 10
-139.158
 20
-39.8943
 11
-139.085
 21
-40.3861
  0
LINE
  8
0
 10
-139.085
 20
-40.3861
 11
-139.034
 21
-40.8808
  0
LINE
  8
0
 10
-139.034
 20
-40.8808
 11
-139.006
 21
-41.3771
  0
LINE
  8
0
 10
-139.006
 20
-41.3771
 11
-139.001
 21
-41.8743
  0
LINE
  8
0
 10
-139.001
 20
-41.8743
 11
-139.018
 21
-42.3712
  0
LINE
  8
0
 10
-139.018
 20
-42.3712
 11
-139.057
 21
-42.8668
  0
LINE
  8
0
 10
-139.057
 20
-42.8668
 11
-139.118
 21
-43.3602
  0
LINE
  8
0
 10
-139.118
 20
-43.3602
 11
-139.202
 21
-43.8503
  0
LINE
  8
0
 10
-139.202
 20
-43.8503
 11
-139.308
 21
-44.336
  0
LINE
  8
0
 10
-139.308
 20
-44.336
 11
-139.436
 21
-44.8165
  0
LINE
  8
0
 10
-139.436
 20
-44.8165
 11
-139.585
 21
-45.2907
  0
LINE
  8
0
 10
-139.585
 20
-45.2907
 11
-139.756
 21
-45.7577
  0
LINE
  8
0
 10
-139.756
 20
-45.7577
 11
-139.948
 21
-46.2165
  0
LINE
  8
0
 10
-139.948
 20
-46.2165
 11
-140.16
 21
-46.6662
  0
LINE
  8
0
 10
-140.16
 20
-46.6662
 11
-140.392
 21
-47.1058
  0
LINE
  8
0
 10
-140.392
 20
-47.1058
 11
-140.644
 21
-47.5345
  0
LINE
  8
0
 10
-140.644
 20
-47.5345
 11
-140.915
 21
-47.9514
  0
LINE
  8
0
 10
-140.915
 20
-47.9514
 11
-141.204
 21
-48.3556
  0
LINE
  8
0
 10
-141.204
 20
-48.3556
 11
-141.512
 21
-48.7463
  0
LINE
  8
0
 10
-141.512
 20
-48.7463
 11
-141.837
 21
-49.1227
  0
LINE
  8
0
 10
-141.837
 20
-49.1227
 11
-142.178
 21
-49.4841
  0
LINE
  8
0
 10
-142.178
 20
-49.4841
 11
-142.535
 21
-49.8297
  0
LINE
  8
0
 10
-142.535
 20
-49.8297
 11
-142.908
 21
-50.1587
  0
LINE
  8
0
 10
-142.908
 20
-50.1587
 11
-143.295
 21
-50.4706
  0
LINE
  8
0
 10
-143.295
 20
-50.4706
 11
-143.696
 21
-50.7646
  0
LINE
  8
0
 10
-143.696
 20
-50.7646
 11
-144.11
 21
-51.0403
  0
LINE
  8
0
 10
-144.11
 20
-51.0403
 11
-144.536
 21
-51.2969
  0
LINE
  8
0
 10
-144.536
 20
-51.2969
 11
-144.973
 21
-51.5341
  0
LINE
  8
0
 10
-144.973
 20
-51.5341
 11
-145.42
 21
-51.7513
  0
LINE
  8
0
 10
-145.42
 20
-51.7513
 11
-145.877
 21
-51.948
  0
LINE
  8
0
 10
-145.877
 20
-51.948
 11
-146.342
 21
-52.1239
  0
LINE
  8
0
 10
-146.342
 20
-52.1239
 11
-146.814
 21
-52.2786
  0
LINE
  8
0
 10
-146.814
 20
-52.2786
 11
-147.293
 21
-52.4118
  0
LINE
  8
0
 10
-147.293
 20
-52.4118
 11
-147.778
 21
-52.5232
  0
LINE
  8
0
 10
-147.778
 20
-52.5232
 11
-148.267
 21
-52.6126
  0
LINE
  8
0
 10
-148.267
 20
-52.6126
 11
-148.76
 21
-52.6798
  0
LINE
  8
0
 10
-148.76
 20
-52.6798
 11
-149.255
 21
-52.7247
  0
LINE
  8
0
 10
-149.255
 20
-52.7247
 11
-149.751
 21
-52.7472
  0
LINE
  8
0
 10
-149.751
 20
-52.7472
 11
-150.249
 21
-52.7472
  0
LINE
  8
0
 10
97.7508
 20
-46.7438
 11
97.2548
 21
-46.6942
  0
LINE
  8
0
 10
97.2548
 20
-46.6942
 11
96.7662
 21
-46.5954
  0
LINE
  8
0
 10
96.7662
 20
-46.5954
 11
96.2899
 21
-46.4485
  0
LINE
  8
0
 10
96.2899
 20
-46.4485
 11
95.8306
 21
-46.2548
  0
LINE
  8
0
 10
95.8306
 20
-46.2548
 11
95.3928
 21
-46.0164
  0
LINE
  8
0
 10
95.3928
 20
-46.0164
 11
94.981
 21
-45.7357
  0
LINE
  8
0
 10
94.981
 20
-45.7357
 11
94.5991
 21
-45.4153
  0
LINE
  8
0
 10
94.5991
 20
-45.4153
 11
94.2511
 21
-45.0584
  0
LINE
  8
0
 10
94.2511
 20
-45.0584
 11
93.9403
 21
-44.6687
  0
LINE
  8
0
 10
93.9403
 20
-44.6687
 11
93.6699
 21
-44.25
  0
LINE
  8
0
 10
93.6699
 20
-44.25
 11
93.4425
 21
-43.8064
  0
LINE
  8
0
 10
93.4425
 20
-43.8064
 11
93.2604
 21
-43.3424
  0
LINE
  8
0
 10
93.2604
 20
-43.3424
 11
93.1254
 21
-42.8626
  0
LINE
  8
0
 10
93.1254
 20
-42.8626
 11
93.0388
 21
-42.3717
  0
LINE
  8
0
 10
93.0388
 20
-42.3717
 11
93.0016
 21
-41.8746
  0
LINE
  8
0
 10
93.0016
 20
-41.8746
 11
93.014
 21
-41.3763
  0
LINE
  8
0
 10
93.014
 20
-41.3763
 11
93.076
 21
-40.8818
  0
LINE
  8
0
 10
93.076
 20
-40.8818
 11
93.1869
 21
-40.3958
  0
LINE
  8
0
 10
93.1869
 20
-40.3958
 11
93.3456
 21
-39.9233
  0
LINE
  8
0
 10
93.3456
 20
-39.9233
 11
93.5506
 21
-39.4689
  0
LINE
  8
0
 10
93.5506
 20
-39.4689
 11
93.7999
 21
-39.0373
  0
LINE
  8
0
 10
93.7999
 20
-39.0373
 11
94.0908
 21
-38.6325
  0
LINE
  8
0
 10
94.0908
 20
-38.6325
 11
94.4207
 21
-38.2588
  0
LINE
  8
0
 10
94.4207
 20
-38.2588
 11
94.7861
 21
-37.9198
  0
LINE
  8
0
 10
94.7861
 20
-37.9198
 11
95.1834
 21
-37.6188
  0
LINE
  8
0
 10
95.1834
 20
-37.6188
 11
95.6087
 21
-37.3589
  0
LINE
  8
0
 10
95.6087
 20
-37.3589
 11
96.0578
 21
-37.1426
  0
LINE
  8
0
 10
96.0578
 20
-37.1426
 11
96.5262
 21
-36.9721
  0
LINE
  8
0
 10
96.5262
 20
-36.9721
 11
97.0093
 21
-36.8491
  0
LINE
  8
0
 10
97.0093
 20
-36.8491
 11
97.5022
 21
-36.7748
  0
LINE
  8
0
 10
97.5022
 20
-36.7748
 11
98
 21
-36.75
  0
LINE
  8
0
 10
98
 20
-36.75
 11
98.4978
 21
-36.7748
  0
LINE
  8
0
 10
98.4978
 20
-36.7748
 11
98.9907
 21
-36.8491
  0
LINE
  8
0
 10
98.9907
 20
-36.8491
 11
99.4738
 21
-36.9721
  0
LINE
  8
0
 10
99.4738
 20
-36.9721
 11
99.9422
 21
-37.1426
  0
LINE
  8
0
 10
99.9422
 20
-37.1426
 11
100.391
 21
-37.3589
  0
LINE
  8
0
 10
100.391
 20
-37.3589
 11
100.817
 21
-37.6188
  0
LINE
  8
0
 10
100.817
 20
-37.6188
 11
101.214
 21
-37.9198
  0
LINE
  8
0
 10
101.214
 20
-37.9198
 11
101.579
 21
-38.2588
  0
LINE
  8
0
 10
101.579
 20
-38.2588
 11
101.909
 21
-38.6325
  0
LINE
  8
0
 10
101.909
 20
-38.6325
 11
102.2
 21
-39.0373
  0
LINE
  8
0
 10
102.2
 20
-39.0373
 11
102.449
 21
-39.4689
  0
LINE
  8
0
 10
102.449
 20
-39.4689
 11
102.654
 21
-39.9233
  0
LINE
  8
0
 10
102.654
 20
-39.9233
 11
102.813
 21
-40.3958
  0
LINE
  8
0
 10
102.813
 20
-40.3958
 11
102.924
 21
-40.8818
  0
LINE
  8
0
 10
102.924
 20
-40.8818
 11
102.986
 21
-41.3763
  0
LINE
  8
0
 10
102.986
 20
-41.3763
 11
102.998
 21
-41.8746
  0
LINE
  8
0
 10
102.998
 20
-41.8746
 11
102.961
 21
-42.3717
  0
LINE
  8
0
 10
102.961
 20
-42.3717
 11
102.875
 21
-42.8626
  0
LINE
  8
0
 10
102.875
 20
-42.8626
 11
102.74
 21
-43.3424
  0
LINE
  8
0
 10
102.74
 20
-43.3424
 11
102.558
 21
-43.8064
  0
LINE
  8
0
 10
102.558
 20
-43.8064
 11
102.33
 21
-44.25
  0
LINE
  8
0
 10
102.33
 20
-44.25
 11
102.06
 21
-44.6687
  0
LINE
  8
0
 10
102.06
 20
-44.6687
 11
101.749
 21
-45.0584
  0
LINE
  8
0
 10
101.749
 20
-45.0584
 11
101.401
 21
-45.4153
  0
LINE
  8
0
 10
101.401
 20
-45.4153
 11
101.019
 21
-45.7357
  0
LINE
  8
0
 10
101.019
 20
-45.7357
 11
100.607
 21
-46.0164
  0
LINE
  8
0
 10
100.607
 20
-46.0164
 11
100.169
 21
-46.2548
  0
LINE
  8
0
 10
100.169
 20
-46.2548
 11
99.7101
 21
-46.4485
  0
LINE
  8
0
 10
99.7101
 20
-46.4485
 11
99.2338
 21
-46.5954
  0
LINE
  8
0
 10
99.2338
 20
-46.5954
 11
98.7452
 21
-46.6942
  0
LINE
  8
0
 10
98.7452
 20
-46.6942
 11
98.2492
 21
-46.7438
  0
LINE
  8
0
 10
98.2492
 20
-46.7438
 11
97.7508
 21
-46.7438
  0
LINE
  8
0
 10
-98.2492
 20
-46.7438
 11
-98.7452
 21
-46.6942
  0
LINE
  8
0
 10
-98.7452
 20
-46.6942
 11
-99.2338
 21
-46.5954
  0
LINE
  8
0
 10
-99.2338
 20
-46.5954
 11
-99.7101
 21
-46.4485
  0
LINE
  8
0
 10
-99.7101
 20
-46.4485
 11
-100.169
 21
-46.2548
  0
LINE
  8
0
 10
-100.169
 20
-46.2548
 11
-100.607
 21
-46.0164
  0
LINE
  8
0
 10
-100.607
 20
-46.0164
 11
-101.019
 21
-45.7357
  0
LINE
  8
0
 10
-101.019
 20
-45.7357
 11
-101.401
 21
-45.4153
  0
LINE
  8
0
 10
-101.401
 20
-45.4153
 11
-101.749
 21
-45.0584
  0
LINE
  8
0
 10
-101.749
 20
-45.0584
 11
-102.06
 21
-44.6687
  0
LINE
  8
0
 10
-102.06
 20
-44.6687
 11
-102.33
 21
-44.25
  0
LINE
  8
0
 10
-102.33
 20
-44.25
 11
-102.558
 21
-43.8064
  0
LINE
  8
0
 10
-102.558
 20
-43.8064
 11
-102.74
 21
-43.3424
  0
LINE
  8
0
 10
-102.74
 20
-43.3424
 11
-102.875
 21
-42.8626
  0
LINE
  8
0
 10
-102.875
 20
-42.8626
 11
-102.961
 21
-42.3717
  0
LINE
  8
0
 10
-102.961
 20
-42.3717
 11
-102.998
 21
-41.8746
  0
LINE
  8
0
 10
-102.998
 20
-41.8746
 11
-102.986
 21
-41.3763
  0
LINE
  8
0
 10
-102.986
 20
-41.3763
 11
-102.924
 21
-40.8818
  0
LINE
  8
0
 10
-102.924
 20
-40.8818
 11
-102.813
 21
-40.3958
  0
LINE
  8
0
 10
-102.813
 20
-40.3958
 11
-102.654
 21
-39.9233
  0
LINE
  8
0
 10
-102.654
 20
-39.9233
 11
-102.449
 21
-39.4689
  0
LINE
  8
0
 10
-102.449
 20
-39.4689
 11
-102.2
 21
-39.0373
  0
LINE
  8
0
 10
-102.2
 20
-39.0373
 11
-101.909
 21
-38.6325
  0
LINE
  8
0
 10
-101.909
 20
-38.6325
 11
-101.579
 21
-38.2588
  0
LINE
  8
0
 10
-101.579
 20
-38.2588
 11
-101.214
 21
-37.9198
  0
LINE
  8
0
 10
-101.214
 20
-37.9198
 11
-100.817
 21
-37.6188
  0
LINE
  8
0
 10
-100.817
 20
-37.6188
 11
-100.391
 21
-37.3589
  0
LINE
  8
0
 10
-100.391
 20
-37.3589
 11
-99.9422
 21
-37.1426
  0
LINE
  8
0
 10
-99.9422
 20
-37.1426
 11
-99.4738
 21
-36.9721
  0
LINE
  8
0
 10
-99.4738
 20
-36.9721
 11
-98.9907
 21
-36.8491
  0
LINE
  8
0
 10
-98.9907
 20
-36.8491
 11
-98.4978
 21
-36.7748
  0
LINE
  8
0
 10
-98.4978
 20
-36.7748
 11
-98
 21
-36.75
  0
LINE
  8
0
 10
-98
 20
-36.75
 11
-97.5022
 21
-36.7748
  0
LINE
  8
0
 10
-97.5022
 20
-36.7748
 11
-97.0093
 21
-36.8491
  0
LINE
  8
0
 10
-97.0093
 20
-36.8491
 11
-96.5262
 21
-36.9721
  0
LINE
  8
0
 10
-96.5262
 20
-36.9721
 11
-96.0578
 21
-37.1426
  0
LINE
  8
0
 10
-96.0578
 20
-37.1426
 11
-95.6087
 21
-37.3589
  0
LINE
  8
0
 10
-95.6087
 20
-37.3589
 11
-95.1834
 21
-37.6188
  0
LINE
  8
0
 10
-95.1834
 20
-37.6188
 11
-94.7861
 21
-37.9198
  0
LINE
  8
0
 10
-94.7861
 20
-37.9198
 11
-94.4207
 21
-38.2588
  0
LINE
  8
0
 10
-94.4207
 20
-38.2588
 11
-94.0908
 21
-38.6325
  0
LINE
  8
0
 10
-94.0908
 20
-38.6325
 11
-93.7999
 21
-39.0373
  0
LINE
  8
0
 10
-93.7999
 20
-39.0373
 11
-93.5506
 21
-39.4689
  0
LINE
  8
0
 10
-93.5506
 20
-39.4689
 11
-93.3456
 21
-39.9233
  0
LINE
  8
0
 10
-93.3456
 20
-39.9233
 11
-93.1869
 21
-40.3958
  0
LINE
  8
0
 10
-93.1869
 20
-40.3958
 11
-93.076
 21
-40.8818
  0
LINE
  8
0
 10
-93.076
 20
-40.8818
 11
-93.014
 21
-41.3763
  0
LINE
  8
0
 10
-93.014
 20
-41.3763
 11
-93.0016
 21
-41.8746
  0
LINE
  8
0
 10
-93.0016
 20
-41.8746
 11
-93.0388
 21
-42.3717
  0
LINE
  8
0
 10
-93.0388
 20
-42.3717
 11
-93.1254
 21
-42.8626
  0
LINE
  8
0
 10
-93.1254
 20
-42.8626
 11
-93.2604
 21
-43.3424
  0
LINE
  8
0
 10
-93.2604
 20
-43.3424
 11
-93.4425
 21
-43.8064
  0
LINE
  8
0
 10
-93.4425
 20
-43.8064
 11
-93.6699
 21
-44.25
  0
LINE
  8
0
 10
-93.6699
 20
-44.25
 11
-93.9403
 21
-44.6687
  0
LINE
  8
0
 10
-93.9403
 20
-44.6687
 11
-94.2511
 21
-45.0584
  0
LINE
  8
0
 10
-94.2511
 20
-45.0584
 11
-94.5991
 21
-45.4153
  0
LINE
  8
0
 10
-94.5991
 20
-45.4153
 11
-94.981
 21
-45.7357
  0
LINE
  8
0
 10
-94.981
 20
-45.7357
 11
-95.3928
 21
-46.0164
  0
LINE
  8
0
 10
-95.3928
 20
-46.0164
 11
-95.8306
 21
-46.2548
  0
LINE
  8
0
 10
-95.8306
 20
-46.2548
 11
-96.2899
 21
-46.4485
  0
LINE
  8
0
 10
-96.2899
 20
-46.4485
 11
-96.7662
 21
-46.5954
  0
LINE
  8
0
 10
-96.7662
 20
-46.5954
 11
-97.2548
 21
-46.6942
  0
LINE
  8
0
 10
-97.2548
 20
-46.6942
 11
-97.7508
 21
-46.7438
  0
LINE
  8
0
 10
-97.7508
 20
-46.7438
 11
-98.2492
 21
-46.7438
  0
LINE
  8
0
 10
-235.496
 20
-43.154
 11
-235.975
 21
-43.0177
  0
LINE
  8
0
 10
-235.975
 20
-43.0177
 11
-236.421
 21
-42.7956
  0
LINE
  8
0
 10
-236.421
 20
-42.7956
 11
-236.819
 21
-42.4953
  0
LINE
  8
0
 10
-236.819
 20
-42.4953
 11
-237.155
 21
-42.1271
  0
LINE
  8
0
 10
-237.155
 20
-42.1271
 11
-237.417
 21
-41.7035
  0
LINE
  8
0
 10
-237.417
 20
-41.7035
 11
-237.597
 21
-41.2389
  0
LINE
  8
0
 10
-237.597
 20
-41.2389
 11
-237.688
 21
-40.7491
  0
LINE
  8
0
 10
-237.688
 20
-40.7491
 11
-237.688
 21
-40.2509
  0
LINE
  8
0
 10
-237.688
 20
-40.2509
 11
-237.597
 21
-39.7611
  0
LINE
  8
0
 10
-237.597
 20
-39.7611
 11
-237.417
 21
-39.2965
  0
LINE
  8
0
 10
-237.417
 20
-39.2965
 11
-237.155
 21
-38.8729
  0
LINE
  8
0
 10
-237.155
 20
-38.8729
 11
-236.819
 21
-38.5047
  0
LINE
  8
0
 10
-236.819
 20
-38.5047
 11
-236.421
 21
-38.2044
  0
LINE
  8
0
 10
-236.421
 20
-38.2044
 11
-235.975
 21
-37.9823
  0
LINE
  8
0
 10
-235.975
 20
-37.9823
 11
-235.496
 21
-37.846
  0
LINE
  8
0
 10
-235.496
 20
-37.846
 11
-235
 21
-37.8
  0
LINE
  8
0
 10
-235
 20
-37.8
 11
-234.504
 21
-37.846
  0
LINE
  8
0
 10
-234.504
 20
-37.846
 11
-234.025
 21
-37.9823
  0
LINE
  8
0
 10
-234.025
 20
-37.9823
 11
-233.579
 21
-38.2044
  0
LINE
  8
0
 10
-233.579
 20
-38.2044
 11
-233.181
 21
-38.5047
  0
LINE
  8
0
 10
-233.181
 20
-38.5047
 11
-232.845
 21
-38.8729
  0
LINE
  8
0
 10
-232.845
 20
-38.8729
 11
-232.583
 21
-39.2965
  0
LINE
  8
0
 10
-232.583
 20
-39.2965
 11
-232.403
 21
-39.7611
  0
LINE
  8
0
 10
-232.403
 20
-39.7611
 11
-232.312
 21
-40.2509
  0
LINE
  8
0
 10
-232.312
 20
-40.2509
 11
-232.312
 21
-40.7491
  0
LINE
  8
0
 10
-232.312
 20
-40.7491
 11
-232.403
 21
-41.2389
  0
LINE
  8
0
 10
-232.403
 20
-41.2389
 11
-232.583
 21
-41.7035
  0
LINE
  8
0
 10
-232.583
 20
-41.7035
 11
-232.845
 21
-42.1271
  0
LINE
  8
0
 10
-232.845
 20
-42.1271
 11
-233.181
 21
-42.4953
  0
LINE
  8
0
 10
-233.181
 20
-42.4953
 11
-233.579
 21
-42.7956
  0
LINE
  8
0
 10
-233.579
 20
-42.7956
 11
-234.025
 21
-43.0177
  0
LINE
  8
0
 10
-234.025
 20
-43.0177
 11
-234.504
 21
-43.154
  0
LINE
  8
0
 10
-234.504
 20
-43.154
 11
-235
 21
-43.2
  0
LINE
  8
0
 10
-235
 20
-43.2
 11
-235.496
 21
-43.154
  0
LINE
  8
0
 10
234.504
 20
-43.154
 11
234.025
 21
-43.0177
  0
LINE
  8
0
 10
234.025
 20
-43.0177
 11
233.579
 21
-42.7956
  0
LINE
  8
0
 10
233.579
 20
-42.7956
 11
233.181
 21
-42.4953
  0
LINE
  8
0
 10
233.181
 20
-42.4953
 11
232.845
 21
-42.1271
  0
LINE
  8
0
 10
232.845
 20
-42.1271
 11
232.583
 21
-41.7035
  0
LINE
  8
0
 10
232.583
 20
-41.7035
 11
232.403
 21
-41.2389
  0
LINE
  8
0
 10
232.403
 20
-41.2389
 11
232.312
 21
-40.7491
  0
LINE
  8
0
 10
232.312
 20
-40.7491
 11
232.312
 21
-40.2509
  0
LINE
  8
0
 10
232.312
 20
-40.2509
 11
232.403
 21
-39.7611
  0
LINE
  8
0
 10
232.403
 20
-39.7611
 11
232.583
 21
-39.2965
  0
LINE
  8
0
 10
232.583
 20
-39.2965
 11
232.845
 21
-38.8729
  0
LINE
  8
0
 10
232.845
 20
-38.8729
 11
233.181
 21
-38.5047
  0
LINE
  8
0
 10
233.181
 20
-38.5047
 11
233.579
 21
-38.2044
  0
LINE
  8
0
 10
233.579
 20
-38.2044
 11
234.025
 21
-37.9823
  0
LINE
  8
0
 10
234.025
 20
-37.9823
 11
234.504
 21
-37.846
  0
LINE
  8
0
 10
234.504
 20
-37.846
 11
235
 21
-37.8
  0
LINE
  8
0
 10
235
 20
-37.8
 11
235.496
 21
-37.846
  0
LINE
  8
0
 10
235.496
 20
-37.846
 11
235.975
 21
-37.9823
  0
LINE
  8
0
 10
235.975
 20
-37.9823
 11
236.421
 21
-38.2044
  0
LINE
  8
0
 10
236.421
 20
-38.2044
 11
236.819
 21
-38.5047
  0
LINE
  8
0
 10
236.819
 20
-38.5047
 11
237.155
 21
-38.8729
  0
LINE
  8
0
 10
237.155
 20
-38.8729
 11
237.417
 21
-39.2965
  0
LINE
  8
0
 10
237.417
 20
-39.2965
 11
237.597
 21
-39.7611
  0
LINE
  8
0
 10
237.597
 20
-39.7611
 11
237.688
 21
-40.2509
  0
LINE
  8
0
 10
237.688
 20
-40.2509
 11
237.688
 21
-40.7491
  0
LINE
  8
0
 10
237.688
 20
-40.7491
 11
237.597
 21
-41.2389
  0
LINE
  8
0
 10
237.597
 20
-41.2389
 11
237.417
 21
-41.7035
  0
LINE
  8
0
 10
237.417
 20
-41.7035
 11
237.155
 21
-42.1271
  0
LINE
  8
0
 10
237.155
 20
-42.1271
 11
236.819
 21
-42.4953
  0
LINE
  8
0
 10
236.819
 20
-42.4953
 11
236.421
 21
-42.7956
  0
LINE
  8
0
 10
236.421
 20
-42.7956
 11
235.975
 21
-43.0177
  0
LINE
  8
0
 10
235.975
 20
-43.0177
 11
235.496
 21
-43.154
  0
LINE
  8
0
 10
235.496
 20
-43.154
 11
235
 21
-43.2
  0
LINE
  8
0
 10
235
 20
-43.2
 11
234.504
 21
-43.154
  0
LINE
  8
0
 10
86
 20
-44.25
 11
86
 21
-39.25
  0
LINE
  8
0
 10
86
 20
-39.25
 11
88
 21
-39.25
  0
LINE
  8
0
 10
88
 20
-39.25
 11
88
 21
-44.25
  0
LINE
  8
0
 10
88
 20
-44.25
 11
86
 21
-44.25
  0
LINE
  8
0
 10
-110
 20
-44.25
 11
-110
 21
-39.25
  0
LINE
  8
0
 10
-110
 20
-39.25
 11
-108
 21
-39.25
  0
LINE
  8
0
 10
-108
 20
-39.25
 11
-108
 21
-44.25
  0
LINE
  8
0
 10
-108
 20
-44.25
 11
-110
 21
-44.25
  0
LINE
  8
0
 10
108
 20
-44.25
 11
108
 21
-39.25
  0
LINE
  8
0
 10
108
 20
-39.25
 11
110
 21
-39.25
  0
LINE
  8
0
 10
110
 20
-39.25
 11
110
 21
-44.25
  0
LINE
  8
0
 10
110
 20
-44.25
 11
108
 21
-44.25
  0
LINE
  8
0
 10
-88
 20
-44.25
 11
-88
 21
-39.25
  0
LINE
  8
0
 10
-88
 20
-39.25
 11
-86
 21
-39.25
  0
LINE
  8
0
 10
-86
 20
-39.25
 11
-86
 21
-44.25
  0
LINE
  8
0
 10
-86
 20
-44.25
 11
-88
 21
-44.25
  0
ENDSEC
  0
SECTION
  2
OBJECTS
  0
DICTIONARY
  0
ENDSEC
  0
EOF
