  0
SECTION
  2
BLOCKS
  0
ENDSEC
  0
SECTION
  2
ENTITIES
  0
LINE
  8
0
 10
9.75
 20
245
 11
-60.25
 21
245
  0
LINE
  8
0
 10
-60.25
 20
245
 11
-60.25
 21
-265
  0
LINE
  8
0
 10
-60.25
 20
-265
 11
9.75
 21
-265
  0
LINE
  8
0
 10
9.75
 20
-265
 11
9.75
 21
245
  0
LINE
  8
0
 10
-9.99911
 20
232.312
 11
-10.4889
 21
232.403
  0
LINE
  8
0
 10
-10.4889
 20
232.403
 11
-10.9535
 21
232.583
  0
LINE
  8
0
 10
-10.9535
 20
232.583
 11
-11.3771
 21
232.845
  0
LINE
  8
0
 10
-11.3771
 20
232.845
 11
-11.7453
 21
233.181
  0
LINE
  8
0
 10
-11.7453
 20
233.181
 11
-12.0456
 21
233.579
  0
LINE
  8
0
 10
-12.0456
 20
233.579
 11
-12.2677
 21
234.025
  0
LINE
  8
0
 10
-12.2677
 20
234.025
 11
-12.404
 21
234.504
  0
LINE
  8
0
 10
-12.404
 20
234.504
 11
-12.45
 21
235
  0
LINE
  8
0
 10
-12.45
 20
235
 11
-12.404
 21
235.496
  0
LINE
  8
0
 10
-12.404
 20
235.496
 11
-12.2677
 21
235.975
  0
LINE
  8
0
 10
-12.2677
 20
235.975
 11
-12.0456
 21
236.421
  0
LINE
  8
0
 10
-12.0456
 20
236.421
 11
-11.7453
 21
236.819
  0
LINE
  8
0
 10
-11.7453
 20
236.819
 11
-11.3771
 21
237.155
  0
LINE
  8
0
 10
-11.3771
 20
237.155
 11
-10.9535
 21
237.417
  0
LINE
  8
0
 10
-10.9535
 20
237.417
 11
-10.4889
 21
237.597
  0
LINE
  8
0
 10
-10.4889
 20
237.597
 11
-9.99911
 21
237.688
  0
LINE
  8
0
 10
-9.99911
 20
237.688
 11
-9.50087
 21
237.688
  0
LINE
  8
0
 10
-9.50087
 20
237.688
 11
-9.01111
 21
237.597
  0
LINE
  8
0
 10
-9.01111
 20
237.597
 11
-8.54649
 21
237.417
  0
LINE
  8
0
 10
-8.54649
 20
237.417
 11
-8.12288
 21
237.155
  0
LINE
  8
0
 10
-8.12288
 20
237.155
 11
-7.75467
 21
236.819
  0
LINE
  8
0
 10
-7.75467
 20
236.819
 11
-7.45441
 21
236.421
  0
LINE
  8
0
 10
-7.45441
 20
236.421
 11
-7.23232
 21
235.975
  0
LINE
  8
0
 10
-7.23232
 20
235.975
 11
-7.09596
 21
235.496
  0
LINE
  8
0
 10
-7.09596
 20
235.496
 11
-7.04999
 21
235
  0
LINE
  8
0
 10
-7.04999
 20
235
 11
-7.09596
 21
234.504
  0
LINE
  8
0
 10
-7.09596
 20
234.504
 11
-7.23232
 21
234.025
  0
LINE
  8
0
 10
-7.23232
 20
234.025
 11
-7.45441
 21
233.579
  0
LINE
  8
0
 10
-7.45441
 20
233.579
 11
-7.75467
 21
233.181
  0
LINE
  8
0
 10
-7.75467
 20
233.181
 11
-8.12288
 21
232.845
  0
LINE
  8
0
 10
-8.12288
 20
232.845
 11
-8.54649
 21
232.583
  0
LINE
  8
0
 10
-8.54649
 20
232.583
 11
-9.01111
 21
232.403
  0
LINE
  8
0
 10
-9.01111
 20
232.403
 11
-9.50087
 21
232.312
  0
LINE
  8
0
 10
-9.50087
 20
232.312
 11
-9.99911
 21
232.312
  0
LINE
  8
0
 10
-47.4991
 20
232.312
 11
-47.9889
 21
232.403
  0
LINE
  8
0
 10
-47.9889
 20
232.403
 11
-48.4535
 21
232.583
  0
LINE
  8
0
 10
-48.4535
 20
232.583
 11
-48.8771
 21
232.845
  0
LINE
  8
0
 10
-48.8771
 20
232.845
 11
-49.2453
 21
233.181
  0
LINE
  8
0
 10
-49.2453
 20
233.181
 11
-49.5456
 21
233.579
  0
LINE
  8
0
 10
-49.5456
 20
233.579
 11
-49.7677
 21
234.025
  0
LINE
  8
0
 10
-49.7677
 20
234.025
 11
-49.904
 21
234.504
  0
LINE
  8
0
 10
-49.904
 20
234.504
 11
-49.95
 21
235
  0
LINE
  8
0
 10
-49.95
 20
235
 11
-49.904
 21
235.496
  0
LINE
  8
0
 10
-49.904
 20
235.496
 11
-49.7677
 21
235.975
  0
LINE
  8
0
 10
-49.7677
 20
235.975
 11
-49.5456
 21
236.421
  0
LINE
  8
0
 10
-49.5456
 20
236.421
 11
-49.2453
 21
236.819
  0
LINE
  8
0
 10
-49.2453
 20
236.819
 11
-48.8771
 21
237.155
  0
LINE
  8
0
 10
-48.8771
 20
237.155
 11
-48.4535
 21
237.417
  0
LINE
  8
0
 10
-48.4535
 20
237.417
 11
-47.9889
 21
237.597
  0
LINE
  8
0
 10
-47.9889
 20
237.597
 11
-47.4991
 21
237.688
  0
LINE
  8
0
 10
-47.4991
 20
237.688
 11
-47.0009
 21
237.688
  0
LINE
  8
0
 10
-47.0009
 20
237.688
 11
-46.5111
 21
237.597
  0
LINE
  8
0
 10
-46.5111
 20
237.597
 11
-46.0465
 21
237.417
  0
LINE
  8
0
 10
-46.0465
 20
237.417
 11
-45.6229
 21
237.155
  0
LINE
  8
0
 10
-45.6229
 20
237.155
 11
-45.2547
 21
236.819
  0
LINE
  8
0
 10
-45.2547
 20
236.819
 11
-44.9544
 21
236.421
  0
LINE
  8
0
 10
-44.9544
 20
236.421
 11
-44.7323
 21
235.975
  0
LINE
  8
0
 10
-44.7323
 20
235.975
 11
-44.596
 21
235.496
  0
LINE
  8
0
 10
-44.596
 20
235.496
 11
-44.55
 21
235
  0
LINE
  8
0
 10
-44.55
 20
235
 11
-44.596
 21
234.504
  0
LINE
  8
0
 10
-44.596
 20
234.504
 11
-44.7323
 21
234.025
  0
LINE
  8
0
 10
-44.7323
 20
234.025
 11
-44.9544
 21
233.579
  0
LINE
  8
0
 10
-44.9544
 20
233.579
 11
-45.2547
 21
233.181
  0
LINE
  8
0
 10
-45.2547
 20
233.181
 11
-45.6229
 21
232.845
  0
LINE
  8
0
 10
-45.6229
 20
232.845
 11
-46.0465
 21
232.583
  0
LINE
  8
0
 10
-46.0465
 20
232.583
 11
-46.5111
 21
232.403
  0
LINE
  8
0
 10
-46.5111
 20
232.403
 11
-47.0009
 21
232.312
  0
LINE
  8
0
 10
-47.0009
 20
232.312
 11
-47.4991
 21
232.312
  0
LINE
  8
0
 10
-27.813
 20
191.188
 11
-27.813
 21
192.562
  0
LINE
  8
0
 10
-27.813
 20
192.562
 11
-32.0352
 21
192.562
  0
LINE
  8
0
 10
-32.0352
 20
192.562
 11
-32.0352
 21
197.938
  0
LINE
  8
0
 10
-32.0352
 20
197.938
 11
-27.813
 21
197.938
  0
LINE
  8
0
 10
-27.813
 20
197.938
 11
-27.813
 21
231.812
  0
LINE
  8
0
 10
-27.813
 20
231.812
 11
-22.687
 21
231.812
  0
LINE
  8
0
 10
-22.687
 20
231.812
 11
-22.687
 21
197.938
  0
LINE
  8
0
 10
-22.687
 20
197.938
 11
-18.4648
 21
197.938
  0
LINE
  8
0
 10
-18.4648
 20
197.938
 11
-18.4648
 21
192.562
  0
LINE
  8
0
 10
-18.4648
 20
192.562
 11
-22.687
 21
192.562
  0
LINE
  8
0
 10
-22.687
 20
192.562
 11
-22.687
 21
191.188
  0
LINE
  8
0
 10
-22.687
 20
191.188
 11
-27.813
 21
191.188
  0
LINE
  8
0
 10
-9.99911
 20
212.312
 11
-10.4889
 21
212.403
  0
LINE
  8
0
 10
-10.4889
 20
212.403
 11
-10.9535
 21
212.583
  0
LINE
  8
0
 10
-10.9535
 20
212.583
 11
-11.3771
 21
212.845
  0
LINE
  8
0
 10
-11.3771
 20
212.845
 11
-11.7453
 21
213.181
  0
LINE
  8
0
 10
-11.7453
 20
213.181
 11
-12.0456
 21
213.579
  0
LINE
  8
0
 10
-12.0456
 20
213.579
 11
-12.2677
 21
214.025
  0
LINE
  8
0
 10
-12.2677
 20
214.025
 11
-12.404
 21
214.504
  0
LINE
  8
0
 10
-12.404
 20
214.504
 11
-12.45
 21
215
  0
LINE
  8
0
 10
-12.45
 20
215
 11
-12.404
 21
215.496
  0
LINE
  8
0
 10
-12.404
 20
215.496
 11
-12.2677
 21
215.975
  0
LINE
  8
0
 10
-12.2677
 20
215.975
 11
-12.0456
 21
216.421
  0
LINE
  8
0
 10
-12.0456
 20
216.421
 11
-11.7453
 21
216.819
  0
LINE
  8
0
 10
-11.7453
 20
216.819
 11
-11.3771
 21
217.155
  0
LINE
  8
0
 10
-11.3771
 20
217.155
 11
-10.9535
 21
217.417
  0
LINE
  8
0
 10
-10.9535
 20
217.417
 11
-10.4889
 21
217.597
  0
LINE
  8
0
 10
-10.4889
 20
217.597
 11
-9.99911
 21
217.688
  0
LINE
  8
0
 10
-9.99911
 20
217.688
 11
-9.50087
 21
217.688
  0
LINE
  8
0
 10
-9.50087
 20
217.688
 11
-9.01111
 21
217.597
  0
LINE
  8
0
 10
-9.01111
 20
217.597
 11
-8.54649
 21
217.417
  0
LINE
  8
0
 10
-8.54649
 20
217.417
 11
-8.12288
 21
217.155
  0
LINE
  8
0
 10
-8.12288
 20
217.155
 11
-7.75467
 21
216.819
  0
LINE
  8
0
 10
-7.75467
 20
216.819
 11
-7.45441
 21
216.421
  0
LINE
  8
0
 10
-7.45441
 20
216.421
 11
-7.23232
 21
215.975
  0
LINE
  8
0
 10
-7.23232
 20
215.975
 11
-7.09596
 21
215.496
  0
LINE
  8
0
 10
-7.09596
 20
215.496
 11
-7.04999
 21
215
  0
LINE
  8
0
 10
-7.04999
 20
215
 11
-7.09596
 21
214.504
  0
LINE
  8
0
 10
-7.09596
 20
214.504
 11
-7.23232
 21
214.025
  0
LINE
  8
0
 10
-7.23232
 20
214.025
 11
-7.45441
 21
213.579
  0
LINE
  8
0
 10
-7.45441
 20
213.579
 11
-7.75467
 21
213.181
  0
LINE
  8
0
 10
-7.75467
 20
213.181
 11
-8.12288
 21
212.845
  0
LINE
  8
0
 10
-8.12288
 20
212.845
 11
-8.54649
 21
212.583
  0
LINE
  8
0
 10
-8.54649
 20
212.583
 11
-9.01111
 21
212.403
  0
LINE
  8
0
 10
-9.01111
 20
212.403
 11
-9.50087
 21
212.312
  0
LINE
  8
0
 10
-9.50087
 20
212.312
 11
-9.99911
 21
212.312
  0
LINE
  8
0
 10
-47.4991
 20
212.312
 11
-47.9889
 21
212.403
  0
LINE
  8
0
 10
-47.9889
 20
212.403
 11
-48.4535
 21
212.583
  0
LINE
  8
0
 10
-48.4535
 20
212.583
 11
-48.8771
 21
212.845
  0
LINE
  8
0
 10
-48.8771
 20
212.845
 11
-49.2453
 21
213.181
  0
LINE
  8
0
 10
-49.2453
 20
213.181
 11
-49.5456
 21
213.579
  0
LINE
  8
0
 10
-49.5456
 20
213.579
 11
-49.7677
 21
214.025
  0
LINE
  8
0
 10
-49.7677
 20
214.025
 11
-49.904
 21
214.504
  0
LINE
  8
0
 10
-49.904
 20
214.504
 11
-49.95
 21
215
  0
LINE
  8
0
 10
-49.95
 20
215
 11
-49.904
 21
215.496
  0
LINE
  8
0
 10
-49.904
 20
215.496
 11
-49.7677
 21
215.975
  0
LINE
  8
0
 10
-49.7677
 20
215.975
 11
-49.5456
 21
216.421
  0
LINE
  8
0
 10
-49.5456
 20
216.421
 11
-49.2453
 21
216.819
  0
LINE
  8
0
 10
-49.2453
 20
216.819
 11
-48.8771
 21
217.155
  0
LINE
  8
0
 10
-48.8771
 20
217.155
 11
-48.4535
 21
217.417
  0
LINE
  8
0
 10
-48.4535
 20
217.417
 11
-47.9889
 21
217.597
  0
LINE
  8
0
 10
-47.9889
 20
217.597
 11
-47.4991
 21
217.688
  0
LINE
  8
0
 10
-47.4991
 20
217.688
 11
-47.0009
 21
217.688
  0
LINE
  8
0
 10
-47.0009
 20
217.688
 11
-46.5111
 21
217.597
  0
LINE
  8
0
 10
-46.5111
 20
217.597
 11
-46.0465
 21
217.417
  0
LINE
  8
0
 10
-46.0465
 20
217.417
 11
-45.6229
 21
217.155
  0
LINE
  8
0
 10
-45.6229
 20
217.155
 11
-45.2547
 21
216.819
  0
LINE
  8
0
 10
-45.2547
 20
216.819
 11
-44.9544
 21
216.421
  0
LINE
  8
0
 10
-44.9544
 20
216.421
 11
-44.7323
 21
215.975
  0
LINE
  8
0
 10
-44.7323
 20
215.975
 11
-44.596
 21
215.496
  0
LINE
  8
0
 10
-44.596
 20
215.496
 11
-44.55
 21
215
  0
LINE
  8
0
 10
-44.55
 20
215
 11
-44.596
 21
214.504
  0
LINE
  8
0
 10
-44.596
 20
214.504
 11
-44.7323
 21
214.025
  0
LINE
  8
0
 10
-44.7323
 20
214.025
 11
-44.9544
 21
213.579
  0
LINE
  8
0
 10
-44.9544
 20
213.579
 11
-45.2547
 21
213.181
  0
LINE
  8
0
 10
-45.2547
 20
213.181
 11
-45.6229
 21
212.845
  0
LINE
  8
0
 10
-45.6229
 20
212.845
 11
-46.0465
 21
212.583
  0
LINE
  8
0
 10
-46.0465
 20
212.583
 11
-46.5111
 21
212.403
  0
LINE
  8
0
 10
-46.5111
 20
212.403
 11
-47.0009
 21
212.312
  0
LINE
  8
0
 10
-47.0009
 20
212.312
 11
-47.4991
 21
212.312
  0
LINE
  8
0
 10
-3.2
 20
152.55
 11
-3.2
 21
167.45
  0
LINE
  8
0
 10
-3.2
 20
167.45
 11
3.2
 21
167.45
  0
LINE
  8
0
 10
3.2
 20
167.45
 11
3.2
 21
152.55
  0
LINE
  8
0
 10
3.2
 20
152.55
 11
-3.2
 21
152.55
  0
LINE
  8
0
 10
-34.7
 20
152.55
 11
-34.7
 21
167.45
  0
LINE
  8
0
 10
-34.7
 20
167.45
 11
-28.3
 21
167.45
  0
LINE
  8
0
 10
-28.3
 20
167.45
 11
-28.3
 21
152.55
  0
LINE
  8
0
 10
-28.3
 20
152.55
 11
-34.7
 21
152.55
  0
LINE
  8
0
 10
-31.9945
 20
142.434
 11
-32.4711
 21
142.574
  0
LINE
  8
0
 10
-32.4711
 20
142.574
 11
-32.9127
 21
142.802
  0
LINE
  8
0
 10
-32.9127
 20
142.802
 11
-33.3032
 21
143.109
  0
LINE
  8
0
 10
-33.3032
 20
143.109
 11
-33.6285
 21
143.484
  0
LINE
  8
0
 10
-33.6285
 20
143.484
 11
-33.8769
 21
143.915
  0
LINE
  8
0
 10
-33.8769
 20
143.915
 11
-34.0393
 21
144.384
  0
LINE
  8
0
 10
-34.0393
 20
144.384
 11
-34.11
 21
144.876
  0
LINE
  8
0
 10
-34.11
 20
144.876
 11
-34.0864
 21
145.372
  0
LINE
  8
0
 10
-34.0864
 20
145.372
 11
-33.9693
 21
145.855
  0
LINE
  8
0
 10
-33.9693
 20
145.855
 11
-33.7629
 21
146.307
  0
LINE
  8
0
 10
-33.7629
 20
146.307
 11
-33.4748
 21
146.711
  0
LINE
  8
0
 10
-33.4748
 20
146.711
 11
-33.1152
 21
147.054
  0
LINE
  8
0
 10
-33.1152
 20
147.054
 11
-32.6973
 21
147.323
  0
LINE
  8
0
 10
-32.6973
 20
147.323
 11
-32.2362
 21
147.507
  0
LINE
  8
0
 10
-32.2362
 20
147.507
 11
-31.7484
 21
147.601
  0
LINE
  8
0
 10
-31.7484
 20
147.601
 11
-31.2516
 21
147.601
  0
LINE
  8
0
 10
-31.2516
 20
147.601
 11
-30.7638
 21
147.507
  0
LINE
  8
0
 10
-30.7638
 20
147.507
 11
-30.3026
 21
147.323
  0
LINE
  8
0
 10
-30.3026
 20
147.323
 11
-29.8848
 21
147.054
  0
LINE
  8
0
 10
-29.8848
 20
147.054
 11
-29.5252
 21
146.711
  0
LINE
  8
0
 10
-29.5252
 20
146.711
 11
-29.2371
 21
146.307
  0
LINE
  8
0
 10
-29.2371
 20
146.307
 11
-29.0307
 21
145.855
  0
LINE
  8
0
 10
-29.0307
 20
145.855
 11
-28.9136
 21
145.372
  0
LINE
  8
0
 10
-28.9136
 20
145.372
 11
-28.89
 21
144.876
  0
LINE
  8
0
 10
-28.89
 20
144.876
 11
-28.9606
 21
144.384
  0
LINE
  8
0
 10
-28.9606
 20
144.384
 11
-29.1231
 21
143.915
  0
LINE
  8
0
 10
-29.1231
 20
143.915
 11
-29.3715
 21
143.484
  0
LINE
  8
0
 10
-29.3715
 20
143.484
 11
-29.6968
 21
143.109
  0
LINE
  8
0
 10
-29.6968
 20
143.109
 11
-30.0873
 21
142.802
  0
LINE
  8
0
 10
-30.0873
 20
142.802
 11
-30.5288
 21
142.574
  0
LINE
  8
0
 10
-30.5288
 20
142.574
 11
-31.0055
 21
142.434
  0
LINE
  8
0
 10
-31.0055
 20
142.434
 11
-31.5
 21
142.387
  0
LINE
  8
0
 10
-31.5
 20
142.387
 11
-31.9945
 21
142.434
  0
LINE
  8
0
 10
-0.494507
 20
142.434
 11
-0.971146
 21
142.574
  0
LINE
  8
0
 10
-0.971146
 20
142.574
 11
-1.41269
 21
142.802
  0
LINE
  8
0
 10
-1.41269
 20
142.802
 11
-1.80316
 21
143.109
  0
LINE
  8
0
 10
-1.80316
 20
143.109
 11
-2.12848
 21
143.484
  0
LINE
  8
0
 10
-2.12848
 20
143.484
 11
-2.37686
 21
143.915
  0
LINE
  8
0
 10
-2.37686
 20
143.915
 11
-2.53934
 21
144.384
  0
LINE
  8
0
 10
-2.53934
 20
144.384
 11
-2.61003
 21
144.876
  0
LINE
  8
0
 10
-2.61003
 20
144.876
 11
-2.5864
 21
145.372
  0
LINE
  8
0
 10
-2.5864
 20
145.372
 11
-2.46928
 21
145.855
  0
LINE
  8
0
 10
-2.46928
 20
145.855
 11
-2.26292
 21
146.307
  0
LINE
  8
0
 10
-2.26292
 20
146.307
 11
-1.97476
 21
146.711
  0
LINE
  8
0
 10
-1.97476
 20
146.711
 11
-1.61523
 21
147.054
  0
LINE
  8
0
 10
-1.61523
 20
147.054
 11
-1.19734
 21
147.323
  0
LINE
  8
0
 10
-1.19734
 20
147.323
 11
-0.73616
 21
147.507
  0
LINE
  8
0
 10
-0.73616
 20
147.507
 11
-0.248367
 21
147.601
  0
LINE
  8
0
 10
-0.248367
 20
147.601
 11
0.248367
 21
147.601
  0
LINE
  8
0
 10
0.248367
 20
147.601
 11
0.73616
 21
147.507
  0
LINE
  8
0
 10
0.73616
 20
147.507
 11
1.19734
 21
147.323
  0
LINE
  8
0
 10
1.19734
 20
147.323
 11
1.61523
 21
147.054
  0
LINE
  8
0
 10
1.61523
 20
147.054
 11
1.97476
 21
146.711
  0
LINE
  8
0
 10
1.97476
 20
146.711
 11
2.26292
 21
146.307
  0
LINE
  8
0
 10
2.26292
 20
146.307
 11
2.46928
 21
145.855
  0
LINE
  8
0
 10
2.46928
 20
145.855
 11
2.5864
 21
145.372
  0
LINE
  8
0
 10
2.5864
 20
145.372
 11
2.61003
 21
144.876
  0
LINE
  8
0
 10
2.61003
 20
144.876
 11
2.53934
 21
144.384
  0
LINE
  8
0
 10
2.53934
 20
144.384
 11
2.37686
 21
143.915
  0
LINE
  8
0
 10
2.37686
 20
143.915
 11
2.12848
 21
143.484
  0
LINE
  8
0
 10
2.12848
 20
143.484
 11
1.80316
 21
143.109
  0
LINE
  8
0
 10
1.80316
 20
143.109
 11
1.41269
 21
142.802
  0
LINE
  8
0
 10
1.41269
 20
142.802
 11
0.971146
 21
142.574
  0
LINE
  8
0
 10
0.971146
 20
142.574
 11
0.494507
 21
142.434
  0
LINE
  8
0
 10
0.494507
 20
142.434
 11
0
 21
142.387
  0
LINE
  8
0
 10
0
 20
142.387
 11
-0.494507
 21
142.434
  0
LINE
  8
0
 10
-3.2
 20
122.55
 11
-3.2
 21
137.45
  0
LINE
  8
0
 10
-3.2
 20
137.45
 11
3.2
 21
137.45
  0
LINE
  8
0
 10
3.2
 20
137.45
 11
3.2
 21
122.55
  0
LINE
  8
0
 10
3.2
 20
122.55
 11
-3.2
 21
122.55
  0
LINE
  8
0
 10
-34.7
 20
122.55
 11
-34.7
 21
137.45
  0
LINE
  8
0
 10
-34.7
 20
137.45
 11
-28.3
 21
137.45
  0
LINE
  8
0
 10
-28.3
 20
137.45
 11
-28.3
 21
122.55
  0
LINE
  8
0
 10
-28.3
 20
122.55
 11
-34.7
 21
122.55
  0
LINE
  8
0
 10
-3.2
 20
7.54999
 11
-3.2
 21
22.45
  0
LINE
  8
0
 10
-3.2
 20
22.45
 11
3.2
 21
22.45
  0
LINE
  8
0
 10
3.2
 20
22.45
 11
3.2
 21
7.54999
  0
LINE
  8
0
 10
3.2
 20
7.54999
 11
-3.2
 21
7.54999
  0
LINE
  8
0
 10
-34.7
 20
7.54999
 11
-34.7
 21
22.45
  0
LINE
  8
0
 10
-34.7
 20
22.45
 11
-28.3
 21
22.45
  0
LINE
  8
0
 10
-28.3
 20
22.45
 11
-28.3
 21
7.54999
  0
LINE
  8
0
 10
-28.3
 20
7.54999
 11
-34.7
 21
7.54999
  0
LINE
  8
0
 10
-31.9945
 20
-2.56577
 11
-32.4711
 21
-2.42581
  0
LINE
  8
0
 10
-32.4711
 20
-2.42581
 11
-32.9127
 21
-2.19818
  0
LINE
  8
0
 10
-32.9127
 20
-2.19818
 11
-33.3032
 21
-1.89111
  0
LINE
  8
0
 10
-33.3032
 20
-1.89111
 11
-33.6285
 21
-1.51569
  0
LINE
  8
0
 10
-33.6285
 20
-1.51569
 11
-33.8769
 21
-1.08546
  0
LINE
  8
0
 10
-33.8769
 20
-1.08546
 11
-34.0393
 21
-0.616028
  0
LINE
  8
0
 10
-34.0393
 20
-0.616028
 11
-34.11
 21
-0.124329
  0
LINE
  8
0
 10
-34.11
 20
-0.124329
 11
-34.0864
 21
0.371857
  0
LINE
  8
0
 10
-34.0864
 20
0.371857
 11
-33.9693
 21
0.854614
  0
LINE
  8
0
 10
-33.9693
 20
0.854614
 11
-33.7629
 21
1.30649
  0
LINE
  8
0
 10
-33.7629
 20
1.30649
 11
-33.4748
 21
1.71114
  0
LINE
  8
0
 10
-33.4748
 20
1.71114
 11
-33.1152
 21
2.05396
  0
LINE
  8
0
 10
-33.1152
 20
2.05396
 11
-32.6973
 21
2.32253
  0
LINE
  8
0
 10
-32.6973
 20
2.32253
 11
-32.2362
 21
2.50714
  0
LINE
  8
0
 10
-32.2362
 20
2.50714
 11
-31.7484
 21
2.60117
  0
LINE
  8
0
 10
-31.7484
 20
2.60117
 11
-31.2516
 21
2.60117
  0
LINE
  8
0
 10
-31.2516
 20
2.60117
 11
-30.7638
 21
2.50714
  0
LINE
  8
0
 10
-30.7638
 20
2.50714
 11
-30.3026
 21
2.32253
  0
LINE
  8
0
 10
-30.3026
 20
2.32253
 11
-29.8848
 21
2.05396
  0
LINE
  8
0
 10
-29.8848
 20
2.05396
 11
-29.5252
 21
1.71114
  0
LINE
  8
0
 10
-29.5252
 20
1.71114
 11
-29.2371
 21
1.30649
  0
LINE
  8
0
 10
-29.2371
 20
1.30649
 11
-29.0307
 21
0.854614
  0
LINE
  8
0
 10
-29.0307
 20
0.854614
 11
-28.9136
 21
0.371857
  0
LINE
  8
0
 10
-28.9136
 20
0.371857
 11
-28.89
 21
-0.124329
  0
LINE
  8
0
 10
-28.89
 20
-0.124329
 11
-28.9606
 21
-0.616028
  0
LINE
  8
0
 10
-28.9606
 20
-0.616028
 11
-29.1231
 21
-1.08546
  0
LINE
  8
0
 10
-29.1231
 20
-1.08546
 11
-29.3715
 21
-1.51569
  0
LINE
  8
0
 10
-29.3715
 20
-1.51569
 11
-29.6968
 21
-1.89111
  0
LINE
  8
0
 10
-29.6968
 20
-1.89111
 11
-30.0873
 21
-2.19818
  0
LINE
  8
0
 10
-30.0873
 20
-2.19818
 11
-30.5288
 21
-2.42581
  0
LINE
  8
0
 10
-30.5288
 20
-2.42581
 11
-31.0055
 21
-2.56577
  0
LINE
  8
0
 10
-31.0055
 20
-2.56577
 11
-31.5
 21
-2.61299
  0
LINE
  8
0
 10
-31.5
 20
-2.61299
 11
-31.9945
 21
-2.56577
  0
LINE
  8
0
 10
-0.494507
 20
-2.56577
 11
-0.971146
 21
-2.42581
  0
LINE
  8
0
 10
-0.971146
 20
-2.42581
 11
-1.41269
 21
-2.19818
  0
LINE
  8
0
 10
-1.41269
 20
-2.19818
 11
-1.80316
 21
-1.89111
  0
LINE
  8
0
 10
-1.80316
 20
-1.89111
 11
-2.12848
 21
-1.51569
  0
LINE
  8
0
 10
-2.12848
 20
-1.51569
 11
-2.37686
 21
-1.08546
  0
LINE
  8
0
 10
-2.37686
 20
-1.08546
 11
-2.53934
 21
-0.616028
  0
LINE
  8
0
 10
-2.53934
 20
-0.616028
 11
-2.61003
 21
-0.124329
  0
LINE
  8
0
 10
-2.61003
 20
-0.124329
 11
-2.5864
 21
0.371857
  0
LINE
  8
0
 10
-2.5864
 20
0.371857
 11
-2.46928
 21
0.854614
  0
LINE
  8
0
 10
-2.46928
 20
0.854614
 11
-2.26292
 21
1.30649
  0
LINE
  8
0
 10
-2.26292
 20
1.30649
 11
-1.97476
 21
1.71114
  0
LINE
  8
0
 10
-1.97476
 20
1.71114
 11
-1.61523
 21
2.05396
  0
LINE
  8
0
 10
-1.61523
 20
2.05396
 11
-1.19734
 21
2.32253
  0
LINE
  8
0
 10
-1.19734
 20
2.32253
 11
-0.73616
 21
2.50714
  0
LINE
  8
0
 10
-0.73616
 20
2.50714
 11
-0.248367
 21
2.60117
  0
LINE
  8
0
 10
-0.248367
 20
2.60117
 11
0.248367
 21
2.60117
  0
LINE
  8
0
 10
0.248367
 20
2.60117
 11
0.73616
 21
2.50714
  0
LINE
  8
0
 10
0.73616
 20
2.50714
 11
1.19734
 21
2.32253
  0
LINE
  8
0
 10
1.19734
 20
2.32253
 11
1.61523
 21
2.05396
  0
LINE
  8
0
 10
1.61523
 20
2.05396
 11
1.97476
 21
1.71114
  0
LINE
  8
0
 10
1.97476
 20
1.71114
 11
2.26292
 21
1.30649
  0
LINE
  8
0
 10
2.26292
 20
1.30649
 11
2.46928
 21
0.854614
  0
LINE
  8
0
 10
2.46928
 20
0.854614
 11
2.5864
 21
0.371857
  0
LINE
  8
0
 10
2.5864
 20
0.371857
 11
2.61003
 21
-0.124329
  0
LINE
  8
0
 10
2.61003
 20
-0.124329
 11
2.53934
 21
-0.616028
  0
LINE
  8
0
 10
2.53934
 20
-0.616028
 11
2.37686
 21
-1.08546
  0
LINE
  8
0
 10
2.37686
 20
-1.08546
 11
2.12848
 21
-1.51569
  0
LINE
  8
0
 10
2.12848
 20
-1.51569
 11
1.80316
 21
-1.89111
  0
LINE
  8
0
 10
1.80316
 20
-1.89111
 11
1.41269
 21
-2.19818
  0
LINE
  8
0
 10
1.41269
 20
-2.19818
 11
0.971146
 21
-2.42581
  0
LINE
  8
0
 10
0.971146
 20
-2.42581
 11
0.494507
 21
-2.56577
  0
LINE
  8
0
 10
0.494507
 20
-2.56577
 11
0
 21
-2.61299
  0
LINE
  8
0
 10
0
 20
-2.61299
 11
-0.494507
 21
-2.56577
  0
LINE
  8
0
 10
-34.7
 20
-22.45
 11
-34.7
 21
-7.54999
  0
LINE
  8
0
 10
-34.7
 20
-7.54999
 11
-28.3
 21
-7.54999
  0
LINE
  8
0
 10
-28.3
 20
-7.54999
 11
-28.3
 21
-22.45
  0
LINE
  8
0
 10
-28.3
 20
-22.45
 11
-34.7
 21
-22.45
  0
LINE
  8
0
 10
-3.2
 20
-22.45
 11
-3.2
 21
-7.54999
  0
LINE
  8
0
 10
-3.2
 20
-7.54999
 11
3.2
 21
-7.54999
  0
LINE
  8
0
 10
3.2
 20
-7.54999
 11
3.2
 21
-22.45
  0
LINE
  8
0
 10
3.2
 20
-22.45
 11
-3.2
 21
-22.45
  0
LINE
  8
0
 10
-34.7
 20
-137.45
 11
-34.7
 21
-122.55
  0
LINE
  8
0
 10
-34.7
 20
-122.55
 11
-28.3
 21
-122.55
  0
LINE
  8
0
 10
-28.3
 20
-122.55
 11
-28.3
 21
-137.45
  0
LINE
  8
0
 10
-28.3
 20
-137.45
 11
-34.7
 21
-137.45
  0
LINE
  8
0
 10
-3.2
 20
-137.45
 11
-3.2
 21
-122.55
  0
LINE
  8
0
 10
-3.2
 20
-122.55
 11
3.2
 21
-122.55
  0
LINE
  8
0
 10
3.2
 20
-122.55
 11
3.2
 21
-137.45
  0
LINE
  8
0
 10
3.2
 20
-137.45
 11
-3.2
 21
-137.45
  0
LINE
  8
0
 10
-0.494507
 20
-147.566
 11
-0.971146
 21
-147.426
  0
LINE
  8
0
 10
-0.971146
 20
-147.426
 11
-1.41269
 21
-147.198
  0
LINE
  8
0
 10
-1.41269
 20
-147.198
 11
-1.80316
 21
-146.891
  0
LINE
  8
0
 10
-1.80316
 20
-146.891
 11
-2.12848
 21
-146.516
  0
LINE
  8
0
 10
-2.12848
 20
-146.516
 11
-2.37686
 21
-146.085
  0
LINE
  8
0
 10
-2.37686
 20
-146.085
 11
-2.53934
 21
-145.616
  0
LINE
  8
0
 10
-2.53934
 20
-145.616
 11
-2.61003
 21
-145.124
  0
LINE
  8
0
 10
-2.61003
 20
-145.124
 11
-2.5864
 21
-144.628
  0
LINE
  8
0
 10
-2.5864
 20
-144.628
 11
-2.46928
 21
-144.145
  0
LINE
  8
0
 10
-2.46928
 20
-144.145
 11
-2.26292
 21
-143.693
  0
LINE
  8
0
 10
-2.26292
 20
-143.693
 11
-1.97476
 21
-143.289
  0
LINE
  8
0
 10
-1.97476
 20
-143.289
 11
-1.61523
 21
-142.946
  0
LINE
  8
0
 10
-1.61523
 20
-142.946
 11
-1.19734
 21
-142.677
  0
LINE
  8
0
 10
-1.19734
 20
-142.677
 11
-0.73616
 21
-142.493
  0
LINE
  8
0
 10
-0.73616
 20
-142.493
 11
-0.248367
 21
-142.399
  0
LINE
  8
0
 10
-0.248367
 20
-142.399
 11
0.248367
 21
-142.399
  0
LINE
  8
0
 10
0.248367
 20
-142.399
 11
0.73616
 21
-142.493
  0
LINE
  8
0
 10
0.73616
 20
-142.493
 11
1.19734
 21
-142.677
  0
LINE
  8
0
 10
1.19734
 20
-142.677
 11
1.61523
 21
-142.946
  0
LINE
  8
0
 10
1.61523
 20
-142.946
 11
1.97476
 21
-143.289
  0
LINE
  8
0
 10
1.97476
 20
-143.289
 11
2.26292
 21
-143.693
  0
LINE
  8
0
 10
2.26292
 20
-143.693
 11
2.46928
 21
-144.145
  0
LINE
  8
0
 10
2.46928
 20
-144.145
 11
2.5864
 21
-144.628
  0
LINE
  8
0
 10
2.5864
 20
-144.628
 11
2.61003
 21
-145.124
  0
LINE
  8
0
 10
2.61003
 20
-145.124
 11
2.53934
 21
-145.616
  0
LINE
  8
0
 10
2.53934
 20
-145.616
 11
2.37686
 21
-146.085
  0
LINE
  8
0
 10
2.37686
 20
-146.085
 11
2.12848
 21
-146.516
  0
LINE
  8
0
 10
2.12848
 20
-146.516
 11
1.80316
 21
-146.891
  0
LINE
  8
0
 10
1.80316
 20
-146.891
 11
1.41269
 21
-147.198
  0
LINE
  8
0
 10
1.41269
 20
-147.198
 11
0.971146
 21
-147.426
  0
LINE
  8
0
 10
0.971146
 20
-147.426
 11
0.494507
 21
-147.566
  0
LINE
  8
0
 10
0.494507
 20
-147.566
 11
0
 21
-147.613
  0
LINE
  8
0
 10
0
 20
-147.613
 11
-0.494507
 21
-147.566
  0
LINE
  8
0
 10
-31.9945
 20
-147.566
 11
-32.4711
 21
-147.426
  0
LINE
  8
0
 10
-32.4711
 20
-147.426
 11
-32.9127
 21
-147.198
  0
LINE
  8
0
 10
-32.9127
 20
-147.198
 11
-33.3032
 21
-146.891
  0
LINE
  8
0
 10
-33.3032
 20
-146.891
 11
-33.6285
 21
-146.516
  0
LINE
  8
0
 10
-33.6285
 20
-146.516
 11
-33.8769
 21
-146.085
  0
LINE
  8
0
 10
-33.8769
 20
-146.085
 11
-34.0393
 21
-145.616
  0
LINE
  8
0
 10
-34.0393
 20
-145.616
 11
-34.11
 21
-145.124
  0
LINE
  8
0
 10
-34.11
 20
-145.124
 11
-34.0864
 21
-144.628
  0
LINE
  8
0
 10
-34.0864
 20
-144.628
 11
-33.9693
 21
-144.145
  0
LINE
  8
0
 10
-33.9693
 20
-144.145
 11
-33.7629
 21
-143.693
  0
LINE
  8
0
 10
-33.7629
 20
-143.693
 11
-33.4748
 21
-143.289
  0
LINE
  8
0
 10
-33.4748
 20
-143.289
 11
-33.1152
 21
-142.946
  0
LINE
  8
0
 10
-33.1152
 20
-142.946
 11
-32.6973
 21
-142.677
  0
LINE
  8
0
 10
-32.6973
 20
-142.677
 11
-32.2362
 21
-142.493
  0
LINE
  8
0
 10
-32.2362
 20
-142.493
 11
-31.7484
 21
-142.399
  0
LINE
  8
0
 10
-31.7484
 20
-142.399
 11
-31.2516
 21
-142.399
  0
LINE
  8
0
 10
-31.2516
 20
-142.399
 11
-30.7638
 21
-142.493
  0
LINE
  8
0
 10
-30.7638
 20
-142.493
 11
-30.3026
 21
-142.677
  0
LINE
  8
0
 10
-30.3026
 20
-142.677
 11
-29.8848
 21
-142.946
  0
LINE
  8
0
 10
-29.8848
 20
-142.946
 11
-29.5252
 21
-143.289
  0
LINE
  8
0
 10
-29.5252
 20
-143.289
 11
-29.2371
 21
-143.693
  0
LINE
  8
0
 10
-29.2371
 20
-143.693
 11
-29.0307
 21
-144.145
  0
LINE
  8
0
 10
-29.0307
 20
-144.145
 11
-28.9136
 21
-144.628
  0
LINE
  8
0
 10
-28.9136
 20
-144.628
 11
-28.89
 21
-145.124
  0
LINE
  8
0
 10
-28.89
 20
-145.124
 11
-28.9606
 21
-145.616
  0
LINE
  8
0
 10
-28.9606
 20
-145.616
 11
-29.1231
 21
-146.085
  0
LINE
  8
0
 10
-29.1231
 20
-146.085
 11
-29.3715
 21
-146.516
  0
LINE
  8
0
 10
-29.3715
 20
-146.516
 11
-29.6968
 21
-146.891
  0
LINE
  8
0
 10
-29.6968
 20
-146.891
 11
-30.0873
 21
-147.198
  0
LINE
  8
0
 10
-30.0873
 20
-147.198
 11
-30.5288
 21
-147.426
  0
LINE
  8
0
 10
-30.5288
 20
-147.426
 11
-31.0055
 21
-147.566
  0
LINE
  8
0
 10
-31.0055
 20
-147.566
 11
-31.5
 21
-147.613
  0
LINE
  8
0
 10
-31.5
 20
-147.613
 11
-31.9945
 21
-147.566
  0
LINE
  8
0
 10
-34.7
 20
-167.45
 11
-34.7
 21
-152.55
  0
LINE
  8
0
 10
-34.7
 20
-152.55
 11
-28.3
 21
-152.55
  0
LINE
  8
0
 10
-28.3
 20
-152.55
 11
-28.3
 21
-167.45
  0
LINE
  8
0
 10
-28.3
 20
-167.45
 11
-34.7
 21
-167.45
  0
LINE
  8
0
 10
-3.2
 20
-167.45
 11
-3.2
 21
-152.55
  0
LINE
  8
0
 10
-3.2
 20
-152.55
 11
3.2
 21
-152.55
  0
LINE
  8
0
 10
3.2
 20
-152.55
 11
3.2
 21
-167.45
  0
LINE
  8
0
 10
3.2
 20
-167.45
 11
-3.2
 21
-167.45
  0
LINE
  8
0
 10
-17.7
 20
-211.45
 11
-17.7
 21
-205.05
  0
LINE
  8
0
 10
-17.7
 20
-205.05
 11
-2.79999
 21
-205.05
  0
LINE
  8
0
 10
-2.79999
 20
-205.05
 11
-2.79999
 21
-211.45
  0
LINE
  8
0
 10
-2.79999
 20
-211.45
 11
-17.7
 21
-211.45
  0
LINE
  8
0
 10
-47.7
 20
-211.45
 11
-47.7
 21
-205.05
  0
LINE
  8
0
 10
-47.7
 20
-205.05
 11
-32.8
 21
-205.05
  0
LINE
  8
0
 10
-32.8
 20
-205.05
 11
-32.8
 21
-211.45
  0
LINE
  8
0
 10
-32.8
 20
-211.45
 11
-47.7
 21
-211.45
  0
LINE
  8
0
 10
-25.6219
 20
-210.836
 11
-26.1046
 21
-210.719
  0
LINE
  8
0
 10
-26.1046
 20
-210.719
 11
-26.5565
 21
-210.513
  0
LINE
  8
0
 10
-26.5565
 20
-210.513
 11
-26.9612
 21
-210.225
  0
LINE
  8
0
 10
-26.9612
 20
-210.225
 11
-27.304
 21
-209.865
  0
LINE
  8
0
 10
-27.304
 20
-209.865
 11
-27.5725
 21
-209.447
  0
LINE
  8
0
 10
-27.5725
 20
-209.447
 11
-27.7571
 21
-208.986
  0
LINE
  8
0
 10
-27.7571
 20
-208.986
 11
-27.8512
 21
-208.498
  0
LINE
  8
0
 10
-27.8512
 20
-208.498
 11
-27.8512
 21
-208.002
  0
LINE
  8
0
 10
-27.8512
 20
-208.002
 11
-27.7571
 21
-207.514
  0
LINE
  8
0
 10
-27.7571
 20
-207.514
 11
-27.5725
 21
-207.053
  0
LINE
  8
0
 10
-27.5725
 20
-207.053
 11
-27.304
 21
-206.635
  0
LINE
  8
0
 10
-27.304
 20
-206.635
 11
-26.9612
 21
-206.275
  0
LINE
  8
0
 10
-26.9612
 20
-206.275
 11
-26.5565
 21
-205.987
  0
LINE
  8
0
 10
-26.5565
 20
-205.987
 11
-26.1046
 21
-205.781
  0
LINE
  8
0
 10
-26.1046
 20
-205.781
 11
-25.6219
 21
-205.664
  0
LINE
  8
0
 10
-25.6219
 20
-205.664
 11
-25.1257
 21
-205.64
  0
LINE
  8
0
 10
-25.1257
 20
-205.64
 11
-24.634
 21
-205.711
  0
LINE
  8
0
 10
-24.634
 20
-205.711
 11
-24.1645
 21
-205.873
  0
LINE
  8
0
 10
-24.1645
 20
-205.873
 11
-23.7343
 21
-206.122
  0
LINE
  8
0
 10
-23.7343
 20
-206.122
 11
-23.3589
 21
-206.447
  0
LINE
  8
0
 10
-23.3589
 20
-206.447
 11
-23.0518
 21
-206.837
  0
LINE
  8
0
 10
-23.0518
 20
-206.837
 11
-22.8242
 21
-207.279
  0
LINE
  8
0
 10
-22.8242
 20
-207.279
 11
-22.6842
 21
-207.755
  0
LINE
  8
0
 10
-22.6842
 20
-207.755
 11
-22.637
 21
-208.25
  0
LINE
  8
0
 10
-22.637
 20
-208.25
 11
-22.6842
 21
-208.745
  0
LINE
  8
0
 10
-22.6842
 20
-208.745
 11
-22.8242
 21
-209.221
  0
LINE
  8
0
 10
-22.8242
 20
-209.221
 11
-23.0518
 21
-209.663
  0
LINE
  8
0
 10
-23.0518
 20
-209.663
 11
-23.3589
 21
-210.053
  0
LINE
  8
0
 10
-23.3589
 20
-210.053
 11
-23.7343
 21
-210.378
  0
LINE
  8
0
 10
-23.7343
 20
-210.378
 11
-24.1645
 21
-210.627
  0
LINE
  8
0
 10
-24.1645
 20
-210.627
 11
-24.634
 21
-210.789
  0
LINE
  8
0
 10
-24.634
 20
-210.789
 11
-25.1257
 21
-210.86
  0
LINE
  8
0
 10
-25.1257
 20
-210.86
 11
-25.6219
 21
-210.836
  0
LINE
  8
0
 10
-9.99911
 20
-217.688
 11
-10.4889
 21
-217.597
  0
LINE
  8
0
 10
-10.4889
 20
-217.597
 11
-10.9535
 21
-217.417
  0
LINE
  8
0
 10
-10.9535
 20
-217.417
 11
-11.3771
 21
-217.155
  0
LINE
  8
0
 10
-11.3771
 20
-217.155
 11
-11.7453
 21
-216.819
  0
LINE
  8
0
 10
-11.7453
 20
-216.819
 11
-12.0456
 21
-216.421
  0
LINE
  8
0
 10
-12.0456
 20
-216.421
 11
-12.2677
 21
-215.975
  0
LINE
  8
0
 10
-12.2677
 20
-215.975
 11
-12.404
 21
-215.496
  0
LINE
  8
0
 10
-12.404
 20
-215.496
 11
-12.45
 21
-215
  0
LINE
  8
0
 10
-12.45
 20
-215
 11
-12.404
 21
-214.504
  0
LINE
  8
0
 10
-12.404
 20
-214.504
 11
-12.2677
 21
-214.025
  0
LINE
  8
0
 10
-12.2677
 20
-214.025
 11
-12.0456
 21
-213.579
  0
LINE
  8
0
 10
-12.0456
 20
-213.579
 11
-11.7453
 21
-213.181
  0
LINE
  8
0
 10
-11.7453
 20
-213.181
 11
-11.3771
 21
-212.845
  0
LINE
  8
0
 10
-11.3771
 20
-212.845
 11
-10.9535
 21
-212.583
  0
LINE
  8
0
 10
-10.9535
 20
-212.583
 11
-10.4889
 21
-212.403
  0
LINE
  8
0
 10
-10.4889
 20
-212.403
 11
-9.99911
 21
-212.312
  0
LINE
  8
0
 10
-9.99911
 20
-212.312
 11
-9.50087
 21
-212.312
  0
LINE
  8
0
 10
-9.50087
 20
-212.312
 11
-9.01111
 21
-212.403
  0
LINE
  8
0
 10
-9.01111
 20
-212.403
 11
-8.54649
 21
-212.583
  0
LINE
  8
0
 10
-8.54649
 20
-212.583
 11
-8.12288
 21
-212.845
  0
LINE
  8
0
 10
-8.12288
 20
-212.845
 11
-7.75467
 21
-213.181
  0
LINE
  8
0
 10
-7.75467
 20
-213.181
 11
-7.45441
 21
-213.579
  0
LINE
  8
0
 10
-7.45441
 20
-213.579
 11
-7.23232
 21
-214.025
  0
LINE
  8
0
 10
-7.23232
 20
-214.025
 11
-7.09596
 21
-214.504
  0
LINE
  8
0
 10
-7.09596
 20
-214.504
 11
-7.04999
 21
-215
  0
LINE
  8
0
 10
-7.04999
 20
-215
 11
-7.09596
 21
-215.496
  0
LINE
  8
0
 10
-7.09596
 20
-215.496
 11
-7.23232
 21
-215.975
  0
LINE
  8
0
 10
-7.23232
 20
-215.975
 11
-7.45441
 21
-216.421
  0
LINE
  8
0
 10
-7.45441
 20
-216.421
 11
-7.75467
 21
-216.819
  0
LINE
  8
0
 10
-7.75467
 20
-216.819
 11
-8.12288
 21
-217.155
  0
LINE
  8
0
 10
-8.12288
 20
-217.155
 11
-8.54649
 21
-217.417
  0
LINE
  8
0
 10
-8.54649
 20
-217.417
 11
-9.01111
 21
-217.597
  0
LINE
  8
0
 10
-9.01111
 20
-217.597
 11
-9.50087
 21
-217.688
  0
LINE
  8
0
 10
-9.50087
 20
-217.688
 11
-9.99911
 21
-217.688
  0
LINE
  8
0
 10
-47.4991
 20
-217.688
 11
-47.9889
 21
-217.597
  0
LINE
  8
0
 10
-47.9889
 20
-217.597
 11
-48.4535
 21
-217.417
  0
LINE
  8
0
 10
-48.4535
 20
-217.417
 11
-48.8771
 21
-217.155
  0
LINE
  8
0
 10
-48.8771
 20
-217.155
 11
-49.2453
 21
-216.819
  0
LINE
  8
0
 10
-49.2453
 20
-216.819
 11
-49.5456
 21
-216.421
  0
LINE
  8
0
 10
-49.5456
 20
-216.421
 11
-49.7677
 21
-215.975
  0
LINE
  8
0
 10
-49.7677
 20
-215.975
 11
-49.904
 21
-215.496
  0
LINE
  8
0
 10
-49.904
 20
-215.496
 11
-49.95
 21
-215
  0
LINE
  8
0
 10
-49.95
 20
-215
 11
-49.904
 21
-214.504
  0
LINE
  8
0
 10
-49.904
 20
-214.504
 11
-49.7677
 21
-214.025
  0
LINE
  8
0
 10
-49.7677
 20
-214.025
 11
-49.5456
 21
-213.579
  0
LINE
  8
0
 10
-49.5456
 20
-213.579
 11
-49.2453
 21
-213.181
  0
LINE
  8
0
 10
-49.2453
 20
-213.181
 11
-48.8771
 21
-212.845
  0
LINE
  8
0
 10
-48.8771
 20
-212.845
 11
-48.4535
 21
-212.583
  0
LINE
  8
0
 10
-48.4535
 20
-212.583
 11
-47.9889
 21
-212.403
  0
LINE
  8
0
 10
-47.9889
 20
-212.403
 11
-47.4991
 21
-212.312
  0
LINE
  8
0
 10
-47.4991
 20
-212.312
 11
-47.0009
 21
-212.312
  0
LINE
  8
0
 10
-47.0009
 20
-212.312
 11
-46.5111
 21
-212.403
  0
LINE
  8
0
 10
-46.5111
 20
-212.403
 11
-46.0465
 21
-212.583
  0
LINE
  8
0
 10
-46.0465
 20
-212.583
 11
-45.6229
 21
-212.845
  0
LINE
  8
0
 10
-45.6229
 20
-212.845
 11
-45.2547
 21
-213.181
  0
LINE
  8
0
 10
-45.2547
 20
-213.181
 11
-44.9544
 21
-213.579
  0
LINE
  8
0
 10
-44.9544
 20
-213.579
 11
-44.7323
 21
-214.025
  0
LINE
  8
0
 10
-44.7323
 20
-214.025
 11
-44.596
 21
-214.504
  0
LINE
  8
0
 10
-44.596
 20
-214.504
 11
-44.55
 21
-215
  0
LINE
  8
0
 10
-44.55
 20
-215
 11
-44.596
 21
-215.496
  0
LINE
  8
0
 10
-44.596
 20
-215.496
 11
-44.7323
 21
-215.975
  0
LINE
  8
0
 10
-44.7323
 20
-215.975
 11
-44.9544
 21
-216.421
  0
LINE
  8
0
 10
-44.9544
 20
-216.421
 11
-45.2547
 21
-216.819
  0
LINE
  8
0
 10
-45.2547
 20
-216.819
 11
-45.6229
 21
-217.155
  0
LINE
  8
0
 10
-45.6229
 20
-217.155
 11
-46.0465
 21
-217.417
  0
LINE
  8
0
 10
-46.0465
 20
-217.417
 11
-46.5111
 21
-217.597
  0
LINE
  8
0
 10
-46.5111
 20
-217.597
 11
-47.0009
 21
-217.688
  0
LINE
  8
0
 10
-47.0009
 20
-217.688
 11
-47.4991
 21
-217.688
  0
LINE
  8
0
 10
-47.4991
 20
-237.688
 11
-47.9889
 21
-237.597
  0
LINE
  8
0
 10
-47.9889
 20
-237.597
 11
-48.4535
 21
-237.417
  0
LINE
  8
0
 10
-48.4535
 20
-237.417
 11
-48.8771
 21
-237.155
  0
LINE
  8
0
 10
-48.8771
 20
-237.155
 11
-49.2453
 21
-236.819
  0
LINE
  8
0
 10
-49.2453
 20
-236.819
 11
-49.5456
 21
-236.421
  0
LINE
  8
0
 10
-49.5456
 20
-236.421
 11
-49.7677
 21
-235.975
  0
LINE
  8
0
 10
-49.7677
 20
-235.975
 11
-49.904
 21
-235.496
  0
LINE
  8
0
 10
-49.904
 20
-235.496
 11
-49.95
 21
-235
  0
LINE
  8
0
 10
-49.95
 20
-235
 11
-49.904
 21
-234.504
  0
LINE
  8
0
 10
-49.904
 20
-234.504
 11
-49.7677
 21
-234.025
  0
LINE
  8
0
 10
-49.7677
 20
-234.025
 11
-49.5456
 21
-233.579
  0
LINE
  8
0
 10
-49.5456
 20
-233.579
 11
-49.2453
 21
-233.181
  0
LINE
  8
0
 10
-49.2453
 20
-233.181
 11
-48.8771
 21
-232.845
  0
LINE
  8
0
 10
-48.8771
 20
-232.845
 11
-48.4535
 21
-232.583
  0
LINE
  8
0
 10
-48.4535
 20
-232.583
 11
-47.9889
 21
-232.403
  0
LINE
  8
0
 10
-47.9889
 20
-232.403
 11
-47.4991
 21
-232.312
  0
LINE
  8
0
 10
-47.4991
 20
-232.312
 11
-47.0009
 21
-232.312
  0
LINE
  8
0
 10
-47.0009
 20
-232.312
 11
-46.5111
 21
-232.403
  0
LINE
  8
0
 10
-46.5111
 20
-232.403
 11
-46.0465
 21
-232.583
  0
LINE
  8
0
 10
-46.0465
 20
-232.583
 11
-45.6229
 21
-232.845
  0
LINE
  8
0
 10
-45.6229
 20
-232.845
 11
-45.2547
 21
-233.181
  0
LINE
  8
0
 10
-45.2547
 20
-233.181
 11
-44.9544
 21
-233.579
  0
LINE
  8
0
 10
-44.9544
 20
-233.579
 11
-44.7323
 21
-234.025
  0
LINE
  8
0
 10
-44.7323
 20
-234.025
 11
-44.596
 21
-234.504
  0
LINE
  8
0
 10
-44.596
 20
-234.504
 11
-44.55
 21
-235
  0
LINE
  8
0
 10
-44.55
 20
-235
 11
-44.596
 21
-235.496
  0
LINE
  8
0
 10
-44.596
 20
-235.496
 11
-44.7323
 21
-235.975
  0
LINE
  8
0
 10
-44.7323
 20
-235.975
 11
-44.9544
 21
-236.421
  0
LINE
  8
0
 10
-44.9544
 20
-236.421
 11
-45.2547
 21
-236.819
  0
LINE
  8
0
 10
-45.2547
 20
-236.819
 11
-45.6229
 21
-237.155
  0
LINE
  8
0
 10
-45.6229
 20
-237.155
 11
-46.0465
 21
-237.417
  0
LINE
  8
0
 10
-46.0465
 20
-237.417
 11
-46.5111
 21
-237.597
  0
LINE
  8
0
 10
-46.5111
 20
-237.597
 11
-47.0009
 21
-237.688
  0
LINE
  8
0
 10
-47.0009
 20
-237.688
 11
-47.4991
 21
-237.688
  0
LINE
  8
0
 10
-9.99911
 20
-237.688
 11
-10.4889
 21
-237.597
  0
LINE
  8
0
 10
-10.4889
 20
-237.597
 11
-10.9535
 21
-237.417
  0
LINE
  8
0
 10
-10.9535
 20
-237.417
 11
-11.3771
 21
-237.155
  0
LINE
  8
0
 10
-11.3771
 20
-237.155
 11
-11.7453
 21
-236.819
  0
LINE
  8
0
 10
-11.7453
 20
-236.819
 11
-12.0456
 21
-236.421
  0
LINE
  8
0
 10
-12.0456
 20
-236.421
 11
-12.2677
 21
-235.975
  0
LINE
  8
0
 10
-12.2677
 20
-235.975
 11
-12.404
 21
-235.496
  0
LINE
  8
0
 10
-12.404
 20
-235.496
 11
-12.45
 21
-235
  0
LINE
  8
0
 10
-12.45
 20
-235
 11
-12.404
 21
-234.504
  0
LINE
  8
0
 10
-12.404
 20
-234.504
 11
-12.2677
 21
-234.025
  0
LINE
  8
0
 10
-12.2677
 20
-234.025
 11
-12.0456
 21
-233.579
  0
LINE
  8
0
 10
-12.0456
 20
-233.579
 11
-11.7453
 21
-233.181
  0
LINE
  8
0
 10
-11.7453
 20
-233.181
 11
-11.3771
 21
-232.845
  0
LINE
  8
0
 10
-11.3771
 20
-232.845
 11
-10.9535
 21
-232.583
  0
LINE
  8
0
 10
-10.9535
 20
-232.583
 11
-10.4889
 21
-232.403
  0
LINE
  8
0
 10
-10.4889
 20
-232.403
 11
-9.99911
 21
-232.312
  0
LINE
  8
0
 10
-9.99911
 20
-232.312
 11
-9.50087
 21
-232.312
  0
LINE
  8
0
 10
-9.50087
 20
-232.312
 11
-9.01111
 21
-232.403
  0
LINE
  8
0
 10
-9.01111
 20
-232.403
 11
-8.54649
 21
-232.583
  0
LINE
  8
0
 10
-8.54649
 20
-232.583
 11
-8.12288
 21
-232.845
  0
LINE
  8
0
 10
-8.12288
 20
-232.845
 11
-7.75467
 21
-233.181
  0
LINE
  8
0
 10
-7.75467
 20
-233.181
 11
-7.45441
 21
-233.579
  0
LINE
  8
0
 10
-7.45441
 20
-233.579
 11
-7.23232
 21
-234.025
  0
LINE
  8
0
 10
-7.23232
 20
-234.025
 11
-7.09596
 21
-234.504
  0
LINE
  8
0
 10
-7.09596
 20
-234.504
 11
-7.04999
 21
-235
  0
LINE
  8
0
 10
-7.04999
 20
-235
 11
-7.09596
 21
-235.496
  0
LINE
  8
0
 10
-7.09596
 20
-235.496
 11
-7.23232
 21
-235.975
  0
LINE
  8
0
 10
-7.23232
 20
-235.975
 11
-7.45441
 21
-236.421
  0
LINE
  8
0
 10
-7.45441
 20
-236.421
 11
-7.75467
 21
-236.819
  0
LINE
  8
0
 10
-7.75467
 20
-236.819
 11
-8.12288
 21
-237.155
  0
LINE
  8
0
 10
-8.12288
 20
-237.155
 11
-8.54649
 21
-237.417
  0
LINE
  8
0
 10
-8.54649
 20
-237.417
 11
-9.01111
 21
-237.597
  0
LINE
  8
0
 10
-9.01111
 20
-237.597
 11
-9.50087
 21
-237.688
  0
LINE
  8
0
 10
-9.50087
 20
-237.688
 11
-9.99911
 21
-237.688
  0
ENDSEC
  0
SECTION
  2
OBJECTS
  0
DICTIONARY
  0
ENDSEC
  0
EOF
