  0
SECTION
  2
BLOCKS
  0
ENDSEC
  0
SECTION
  2
ENTITIES
  0
LINE
  8
0
 10
9.75
 20
220
 11
-2.75
 21
220
  0
LINE
  8
0
 10
-2.75
 20
220
 11
-2.75
 21
224.875
  0
LINE
  8
0
 10
-2.75
 20
224.875
 11
-4.375
 21
226.5
  0
LINE
  8
0
 10
-4.375
 20
226.5
 11
-16.125
 21
226.5
  0
LINE
  8
0
 10
-16.125
 20
226.5
 11
-17.75
 21
224.875
  0
LINE
  8
0
 10
-17.75
 20
224.875
 11
-17.75
 21
220
  0
LINE
  8
0
 10
-17.75
 20
220
 11
-22.687
 21
220
  0
LINE
  8
0
 10
-22.687
 20
220
 11
-22.687
 21
212.938
  0
LINE
  8
0
 10
-22.687
 20
212.938
 11
-20.55
 21
212.938
  0
LINE
  8
0
 10
-20.55
 20
212.938
 11
-20.55
 21
207.562
  0
LINE
  8
0
 10
-20.55
 20
207.562
 11
-22.687
 21
207.562
  0
LINE
  8
0
 10
-22.687
 20
207.562
 11
-22.687
 21
206.188
  0
LINE
  8
0
 10
-22.687
 20
206.188
 11
-27.813
 21
206.188
  0
LINE
  8
0
 10
-27.813
 20
206.188
 11
-27.813
 21
207.562
  0
LINE
  8
0
 10
-27.813
 20
207.562
 11
-29.95
 21
207.562
  0
LINE
  8
0
 10
-29.95
 20
207.562
 11
-29.95
 21
212.938
  0
LINE
  8
0
 10
-29.95
 20
212.938
 11
-27.813
 21
212.938
  0
LINE
  8
0
 10
-27.813
 20
212.938
 11
-27.813
 21
220
  0
LINE
  8
0
 10
-27.813
 20
220
 11
-32.75
 21
220
  0
LINE
  8
0
 10
-32.75
 20
220
 11
-32.75
 21
224.875
  0
LINE
  8
0
 10
-32.75
 20
224.875
 11
-34.375
 21
226.5
  0
LINE
  8
0
 10
-34.375
 20
226.5
 11
-46.125
 21
226.5
  0
LINE
  8
0
 10
-46.125
 20
226.5
 11
-47.75
 21
224.875
  0
LINE
  8
0
 10
-47.75
 20
224.875
 11
-47.75
 21
220
  0
LINE
  8
0
 10
-47.75
 20
220
 11
-60.25
 21
220
  0
LINE
  8
0
 10
-60.25
 20
220
 11
-60.25
 21
-245.4
  0
LINE
  8
0
 10
-60.25
 20
-245.4
 11
9.75
 21
-245.4
  0
LINE
  8
0
 10
9.75
 20
-245.4
 11
9.75
 21
220
  0
LINE
  8
0
 10
-47.4991
 20
207.312
 11
-47.9889
 21
207.403
  0
LINE
  8
0
 10
-47.9889
 20
207.403
 11
-48.4535
 21
207.583
  0
LINE
  8
0
 10
-48.4535
 20
207.583
 11
-48.8771
 21
207.845
  0
LINE
  8
0
 10
-48.8771
 20
207.845
 11
-49.2453
 21
208.181
  0
LINE
  8
0
 10
-49.2453
 20
208.181
 11
-49.5456
 21
208.579
  0
LINE
  8
0
 10
-49.5456
 20
208.579
 11
-49.7677
 21
209.025
  0
LINE
  8
0
 10
-49.7677
 20
209.025
 11
-49.904
 21
209.504
  0
LINE
  8
0
 10
-49.904
 20
209.504
 11
-49.95
 21
210
  0
LINE
  8
0
 10
-49.95
 20
210
 11
-49.904
 21
210.496
  0
LINE
  8
0
 10
-49.904
 20
210.496
 11
-49.7677
 21
210.975
  0
LINE
  8
0
 10
-49.7677
 20
210.975
 11
-49.5456
 21
211.421
  0
LINE
  8
0
 10
-49.5456
 20
211.421
 11
-49.2453
 21
211.819
  0
LINE
  8
0
 10
-49.2453
 20
211.819
 11
-48.8771
 21
212.155
  0
LINE
  8
0
 10
-48.8771
 20
212.155
 11
-48.4535
 21
212.417
  0
LINE
  8
0
 10
-48.4535
 20
212.417
 11
-47.9889
 21
212.597
  0
LINE
  8
0
 10
-47.9889
 20
212.597
 11
-47.4991
 21
212.688
  0
LINE
  8
0
 10
-47.4991
 20
212.688
 11
-47.0009
 21
212.688
  0
LINE
  8
0
 10
-47.0009
 20
212.688
 11
-46.5111
 21
212.597
  0
LINE
  8
0
 10
-46.5111
 20
212.597
 11
-46.0465
 21
212.417
  0
LINE
  8
0
 10
-46.0465
 20
212.417
 11
-45.6229
 21
212.155
  0
LINE
  8
0
 10
-45.6229
 20
212.155
 11
-45.2547
 21
211.819
  0
LINE
  8
0
 10
-45.2547
 20
211.819
 11
-44.9544
 21
211.421
  0
LINE
  8
0
 10
-44.9544
 20
211.421
 11
-44.7323
 21
210.975
  0
LINE
  8
0
 10
-44.7323
 20
210.975
 11
-44.596
 21
210.496
  0
LINE
  8
0
 10
-44.596
 20
210.496
 11
-44.55
 21
210
  0
LINE
  8
0
 10
-44.55
 20
210
 11
-44.596
 21
209.504
  0
LINE
  8
0
 10
-44.596
 20
209.504
 11
-44.7323
 21
209.025
  0
LINE
  8
0
 10
-44.7323
 20
209.025
 11
-44.9544
 21
208.579
  0
LINE
  8
0
 10
-44.9544
 20
208.579
 11
-45.2547
 21
208.181
  0
LINE
  8
0
 10
-45.2547
 20
208.181
 11
-45.6229
 21
207.845
  0
LINE
  8
0
 10
-45.6229
 20
207.845
 11
-46.0465
 21
207.583
  0
LINE
  8
0
 10
-46.0465
 20
207.583
 11
-46.5111
 21
207.403
  0
LINE
  8
0
 10
-46.5111
 20
207.403
 11
-47.0009
 21
207.312
  0
LINE
  8
0
 10
-47.0009
 20
207.312
 11
-47.4991
 21
207.312
  0
LINE
  8
0
 10
-9.99911
 20
207.312
 11
-10.4889
 21
207.403
  0
LINE
  8
0
 10
-10.4889
 20
207.403
 11
-10.9535
 21
207.583
  0
LINE
  8
0
 10
-10.9535
 20
207.583
 11
-11.3771
 21
207.845
  0
LINE
  8
0
 10
-11.3771
 20
207.845
 11
-11.7453
 21
208.181
  0
LINE
  8
0
 10
-11.7453
 20
208.181
 11
-12.0456
 21
208.579
  0
LINE
  8
0
 10
-12.0456
 20
208.579
 11
-12.2677
 21
209.025
  0
LINE
  8
0
 10
-12.2677
 20
209.025
 11
-12.404
 21
209.504
  0
LINE
  8
0
 10
-12.404
 20
209.504
 11
-12.45
 21
210
  0
LINE
  8
0
 10
-12.45
 20
210
 11
-12.404
 21
210.496
  0
LINE
  8
0
 10
-12.404
 20
210.496
 11
-12.2677
 21
210.975
  0
LINE
  8
0
 10
-12.2677
 20
210.975
 11
-12.0456
 21
211.421
  0
LINE
  8
0
 10
-12.0456
 20
211.421
 11
-11.7453
 21
211.819
  0
LINE
  8
0
 10
-11.7453
 20
211.819
 11
-11.3771
 21
212.155
  0
LINE
  8
0
 10
-11.3771
 20
212.155
 11
-10.9535
 21
212.417
  0
LINE
  8
0
 10
-10.9535
 20
212.417
 11
-10.4889
 21
212.597
  0
LINE
  8
0
 10
-10.4889
 20
212.597
 11
-9.99911
 21
212.688
  0
LINE
  8
0
 10
-9.99911
 20
212.688
 11
-9.50087
 21
212.688
  0
LINE
  8
0
 10
-9.50087
 20
212.688
 11
-9.01111
 21
212.597
  0
LINE
  8
0
 10
-9.01111
 20
212.597
 11
-8.54649
 21
212.417
  0
LINE
  8
0
 10
-8.54649
 20
212.417
 11
-8.12288
 21
212.155
  0
LINE
  8
0
 10
-8.12288
 20
212.155
 11
-7.75467
 21
211.819
  0
LINE
  8
0
 10
-7.75467
 20
211.819
 11
-7.45441
 21
211.421
  0
LINE
  8
0
 10
-7.45441
 20
211.421
 11
-7.23232
 21
210.975
  0
LINE
  8
0
 10
-7.23232
 20
210.975
 11
-7.09596
 21
210.496
  0
LINE
  8
0
 10
-7.09596
 20
210.496
 11
-7.04999
 21
210
  0
LINE
  8
0
 10
-7.04999
 20
210
 11
-7.09596
 21
209.504
  0
LINE
  8
0
 10
-7.09596
 20
209.504
 11
-7.23232
 21
209.025
  0
LINE
  8
0
 10
-7.23232
 20
209.025
 11
-7.45441
 21
208.579
  0
LINE
  8
0
 10
-7.45441
 20
208.579
 11
-7.75467
 21
208.181
  0
LINE
  8
0
 10
-7.75467
 20
208.181
 11
-8.12288
 21
207.845
  0
LINE
  8
0
 10
-8.12288
 20
207.845
 11
-8.54649
 21
207.583
  0
LINE
  8
0
 10
-8.54649
 20
207.583
 11
-9.01111
 21
207.403
  0
LINE
  8
0
 10
-9.01111
 20
207.403
 11
-9.50087
 21
207.312
  0
LINE
  8
0
 10
-9.50087
 20
207.312
 11
-9.99911
 21
207.312
  0
LINE
  8
0
 10
-9.99911
 20
187.312
 11
-10.4889
 21
187.403
  0
LINE
  8
0
 10
-10.4889
 20
187.403
 11
-10.9535
 21
187.583
  0
LINE
  8
0
 10
-10.9535
 20
187.583
 11
-11.3771
 21
187.845
  0
LINE
  8
0
 10
-11.3771
 20
187.845
 11
-11.7453
 21
188.181
  0
LINE
  8
0
 10
-11.7453
 20
188.181
 11
-12.0456
 21
188.579
  0
LINE
  8
0
 10
-12.0456
 20
188.579
 11
-12.2677
 21
189.025
  0
LINE
  8
0
 10
-12.2677
 20
189.025
 11
-12.404
 21
189.504
  0
LINE
  8
0
 10
-12.404
 20
189.504
 11
-12.45
 21
190
  0
LINE
  8
0
 10
-12.45
 20
190
 11
-12.404
 21
190.496
  0
LINE
  8
0
 10
-12.404
 20
190.496
 11
-12.2677
 21
190.975
  0
LINE
  8
0
 10
-12.2677
 20
190.975
 11
-12.0456
 21
191.421
  0
LINE
  8
0
 10
-12.0456
 20
191.421
 11
-11.7453
 21
191.819
  0
LINE
  8
0
 10
-11.7453
 20
191.819
 11
-11.3771
 21
192.155
  0
LINE
  8
0
 10
-11.3771
 20
192.155
 11
-10.9535
 21
192.417
  0
LINE
  8
0
 10
-10.9535
 20
192.417
 11
-10.4889
 21
192.597
  0
LINE
  8
0
 10
-10.4889
 20
192.597
 11
-9.99911
 21
192.688
  0
LINE
  8
0
 10
-9.99911
 20
192.688
 11
-9.50087
 21
192.688
  0
LINE
  8
0
 10
-9.50087
 20
192.688
 11
-9.01111
 21
192.597
  0
LINE
  8
0
 10
-9.01111
 20
192.597
 11
-8.54649
 21
192.417
  0
LINE
  8
0
 10
-8.54649
 20
192.417
 11
-8.12288
 21
192.155
  0
LINE
  8
0
 10
-8.12288
 20
192.155
 11
-7.75467
 21
191.819
  0
LINE
  8
0
 10
-7.75467
 20
191.819
 11
-7.45441
 21
191.421
  0
LINE
  8
0
 10
-7.45441
 20
191.421
 11
-7.23232
 21
190.975
  0
LINE
  8
0
 10
-7.23232
 20
190.975
 11
-7.09596
 21
190.496
  0
LINE
  8
0
 10
-7.09596
 20
190.496
 11
-7.04999
 21
190
  0
LINE
  8
0
 10
-7.04999
 20
190
 11
-7.09596
 21
189.504
  0
LINE
  8
0
 10
-7.09596
 20
189.504
 11
-7.23232
 21
189.025
  0
LINE
  8
0
 10
-7.23232
 20
189.025
 11
-7.45441
 21
188.579
  0
LINE
  8
0
 10
-7.45441
 20
188.579
 11
-7.75467
 21
188.181
  0
LINE
  8
0
 10
-7.75467
 20
188.181
 11
-8.12288
 21
187.845
  0
LINE
  8
0
 10
-8.12288
 20
187.845
 11
-8.54649
 21
187.583
  0
LINE
  8
0
 10
-8.54649
 20
187.583
 11
-9.01111
 21
187.403
  0
LINE
  8
0
 10
-9.01111
 20
187.403
 11
-9.50087
 21
187.312
  0
LINE
  8
0
 10
-9.50087
 20
187.312
 11
-9.99911
 21
187.312
  0
LINE
  8
0
 10
-47.4991
 20
187.312
 11
-47.9889
 21
187.403
  0
LINE
  8
0
 10
-47.9889
 20
187.403
 11
-48.4535
 21
187.583
  0
LINE
  8
0
 10
-48.4535
 20
187.583
 11
-48.8771
 21
187.845
  0
LINE
  8
0
 10
-48.8771
 20
187.845
 11
-49.2453
 21
188.181
  0
LINE
  8
0
 10
-49.2453
 20
188.181
 11
-49.5456
 21
188.579
  0
LINE
  8
0
 10
-49.5456
 20
188.579
 11
-49.7677
 21
189.025
  0
LINE
  8
0
 10
-49.7677
 20
189.025
 11
-49.904
 21
189.504
  0
LINE
  8
0
 10
-49.904
 20
189.504
 11
-49.95
 21
190
  0
LINE
  8
0
 10
-49.95
 20
190
 11
-49.904
 21
190.496
  0
LINE
  8
0
 10
-49.904
 20
190.496
 11
-49.7677
 21
190.975
  0
LINE
  8
0
 10
-49.7677
 20
190.975
 11
-49.5456
 21
191.421
  0
LINE
  8
0
 10
-49.5456
 20
191.421
 11
-49.2453
 21
191.819
  0
LINE
  8
0
 10
-49.2453
 20
191.819
 11
-48.8771
 21
192.155
  0
LINE
  8
0
 10
-48.8771
 20
192.155
 11
-48.4535
 21
192.417
  0
LINE
  8
0
 10
-48.4535
 20
192.417
 11
-47.9889
 21
192.597
  0
LINE
  8
0
 10
-47.9889
 20
192.597
 11
-47.4991
 21
192.688
  0
LINE
  8
0
 10
-47.4991
 20
192.688
 11
-47.0009
 21
192.688
  0
LINE
  8
0
 10
-47.0009
 20
192.688
 11
-46.5111
 21
192.597
  0
LINE
  8
0
 10
-46.5111
 20
192.597
 11
-46.0465
 21
192.417
  0
LINE
  8
0
 10
-46.0465
 20
192.417
 11
-45.6229
 21
192.155
  0
LINE
  8
0
 10
-45.6229
 20
192.155
 11
-45.2547
 21
191.819
  0
LINE
  8
0
 10
-45.2547
 20
191.819
 11
-44.9544
 21
191.421
  0
LINE
  8
0
 10
-44.9544
 20
191.421
 11
-44.7323
 21
190.975
  0
LINE
  8
0
 10
-44.7323
 20
190.975
 11
-44.596
 21
190.496
  0
LINE
  8
0
 10
-44.596
 20
190.496
 11
-44.55
 21
190
  0
LINE
  8
0
 10
-44.55
 20
190
 11
-44.596
 21
189.504
  0
LINE
  8
0
 10
-44.596
 20
189.504
 11
-44.7323
 21
189.025
  0
LINE
  8
0
 10
-44.7323
 20
189.025
 11
-44.9544
 21
188.579
  0
LINE
  8
0
 10
-44.9544
 20
188.579
 11
-45.2547
 21
188.181
  0
LINE
  8
0
 10
-45.2547
 20
188.181
 11
-45.6229
 21
187.845
  0
LINE
  8
0
 10
-45.6229
 20
187.845
 11
-46.0465
 21
187.583
  0
LINE
  8
0
 10
-46.0465
 20
187.583
 11
-46.5111
 21
187.403
  0
LINE
  8
0
 10
-46.5111
 20
187.403
 11
-47.0009
 21
187.312
  0
LINE
  8
0
 10
-47.0009
 20
187.312
 11
-47.4991
 21
187.312
  0
LINE
  8
0
 10
-34.7
 20
127.55
 11
-34.7
 21
142.45
  0
LINE
  8
0
 10
-34.7
 20
142.45
 11
-28.3
 21
142.45
  0
LINE
  8
0
 10
-28.3
 20
142.45
 11
-28.3
 21
127.55
  0
LINE
  8
0
 10
-28.3
 20
127.55
 11
-34.7
 21
127.55
  0
LINE
  8
0
 10
-3.2
 20
142.45
 11
3.2
 21
142.45
  0
LINE
  8
0
 10
3.2
 20
142.45
 11
3.2
 21
127.55
  0
LINE
  8
0
 10
3.2
 20
127.55
 11
-3.2
 21
127.55
  0
LINE
  8
0
 10
-3.2
 20
127.55
 11
-3.2
 21
142.45
  0
LINE
  8
0
 10
-31.7484
 20
117.399
 11
-32.2362
 21
117.493
  0
LINE
  8
0
 10
-32.2362
 20
117.493
 11
-32.6973
 21
117.677
  0
LINE
  8
0
 10
-32.6973
 20
117.677
 11
-33.1152
 21
117.946
  0
LINE
  8
0
 10
-33.1152
 20
117.946
 11
-33.4748
 21
118.289
  0
LINE
  8
0
 10
-33.4748
 20
118.289
 11
-33.7629
 21
118.693
  0
LINE
  8
0
 10
-33.7629
 20
118.693
 11
-33.9693
 21
119.145
  0
LINE
  8
0
 10
-33.9693
 20
119.145
 11
-34.0864
 21
119.628
  0
LINE
  8
0
 10
-34.0864
 20
119.628
 11
-34.11
 21
120.124
  0
LINE
  8
0
 10
-34.11
 20
120.124
 11
-34.0393
 21
120.616
  0
LINE
  8
0
 10
-34.0393
 20
120.616
 11
-33.8769
 21
121.085
  0
LINE
  8
0
 10
-33.8769
 20
121.085
 11
-33.6285
 21
121.516
  0
LINE
  8
0
 10
-33.6285
 20
121.516
 11
-33.3032
 21
121.891
  0
LINE
  8
0
 10
-33.3032
 20
121.891
 11
-32.9127
 21
122.198
  0
LINE
  8
0
 10
-32.9127
 20
122.198
 11
-32.4711
 21
122.426
  0
LINE
  8
0
 10
-32.4711
 20
122.426
 11
-31.9945
 21
122.566
  0
LINE
  8
0
 10
-31.9945
 20
122.566
 11
-31.5
 21
122.613
  0
LINE
  8
0
 10
-31.5
 20
122.613
 11
-31.0055
 21
122.566
  0
LINE
  8
0
 10
-31.0055
 20
122.566
 11
-30.5288
 21
122.426
  0
LINE
  8
0
 10
-30.5288
 20
122.426
 11
-30.0873
 21
122.198
  0
LINE
  8
0
 10
-30.0873
 20
122.198
 11
-29.6968
 21
121.891
  0
LINE
  8
0
 10
-29.6968
 20
121.891
 11
-29.3715
 21
121.516
  0
LINE
  8
0
 10
-29.3715
 20
121.516
 11
-29.1231
 21
121.085
  0
LINE
  8
0
 10
-29.1231
 20
121.085
 11
-28.9606
 21
120.616
  0
LINE
  8
0
 10
-28.9606
 20
120.616
 11
-28.89
 21
120.124
  0
LINE
  8
0
 10
-28.89
 20
120.124
 11
-28.9136
 21
119.628
  0
LINE
  8
0
 10
-28.9136
 20
119.628
 11
-29.0307
 21
119.145
  0
LINE
  8
0
 10
-29.0307
 20
119.145
 11
-29.2371
 21
118.693
  0
LINE
  8
0
 10
-29.2371
 20
118.693
 11
-29.5252
 21
118.289
  0
LINE
  8
0
 10
-29.5252
 20
118.289
 11
-29.8848
 21
117.946
  0
LINE
  8
0
 10
-29.8848
 20
117.946
 11
-30.3026
 21
117.677
  0
LINE
  8
0
 10
-30.3026
 20
117.677
 11
-30.7638
 21
117.493
  0
LINE
  8
0
 10
-30.7638
 20
117.493
 11
-31.2516
 21
117.399
  0
LINE
  8
0
 10
-31.2516
 20
117.399
 11
-31.7484
 21
117.399
  0
LINE
  8
0
 10
-0.248367
 20
117.399
 11
-0.73616
 21
117.493
  0
LINE
  8
0
 10
-0.73616
 20
117.493
 11
-1.19734
 21
117.677
  0
LINE
  8
0
 10
-1.19734
 20
117.677
 11
-1.61523
 21
117.946
  0
LINE
  8
0
 10
-1.61523
 20
117.946
 11
-1.97476
 21
118.289
  0
LINE
  8
0
 10
-1.97476
 20
118.289
 11
-2.26292
 21
118.693
  0
LINE
  8
0
 10
-2.26292
 20
118.693
 11
-2.46928
 21
119.145
  0
LINE
  8
0
 10
-2.46928
 20
119.145
 11
-2.5864
 21
119.628
  0
LINE
  8
0
 10
-2.5864
 20
119.628
 11
-2.61003
 21
120.124
  0
LINE
  8
0
 10
-2.61003
 20
120.124
 11
-2.53934
 21
120.616
  0
LINE
  8
0
 10
-2.53934
 20
120.616
 11
-2.37686
 21
121.085
  0
LINE
  8
0
 10
-2.37686
 20
121.085
 11
-2.12848
 21
121.516
  0
LINE
  8
0
 10
-2.12848
 20
121.516
 11
-1.80316
 21
121.891
  0
LINE
  8
0
 10
-1.80316
 20
121.891
 11
-1.41269
 21
122.198
  0
LINE
  8
0
 10
-1.41269
 20
122.198
 11
-0.971146
 21
122.426
  0
LINE
  8
0
 10
-0.971146
 20
122.426
 11
-0.494507
 21
122.566
  0
LINE
  8
0
 10
-0.494507
 20
122.566
 11
0
 21
122.613
  0
LINE
  8
0
 10
0
 20
122.613
 11
0.494507
 21
122.566
  0
LINE
  8
0
 10
0.494507
 20
122.566
 11
0.971146
 21
122.426
  0
LINE
  8
0
 10
0.971146
 20
122.426
 11
1.41269
 21
122.198
  0
LINE
  8
0
 10
1.41269
 20
122.198
 11
1.80316
 21
121.891
  0
LINE
  8
0
 10
1.80316
 20
121.891
 11
2.12848
 21
121.516
  0
LINE
  8
0
 10
2.12848
 20
121.516
 11
2.37686
 21
121.085
  0
LINE
  8
0
 10
2.37686
 20
121.085
 11
2.53934
 21
120.616
  0
LINE
  8
0
 10
2.53934
 20
120.616
 11
2.61003
 21
120.124
  0
LINE
  8
0
 10
2.61003
 20
120.124
 11
2.5864
 21
119.628
  0
LINE
  8
0
 10
2.5864
 20
119.628
 11
2.46928
 21
119.145
  0
LINE
  8
0
 10
2.46928
 20
119.145
 11
2.26292
 21
118.693
  0
LINE
  8
0
 10
2.26292
 20
118.693
 11
1.97476
 21
118.289
  0
LINE
  8
0
 10
1.97476
 20
118.289
 11
1.61523
 21
117.946
  0
LINE
  8
0
 10
1.61523
 20
117.946
 11
1.19734
 21
117.677
  0
LINE
  8
0
 10
1.19734
 20
117.677
 11
0.73616
 21
117.493
  0
LINE
  8
0
 10
0.73616
 20
117.493
 11
0.248367
 21
117.399
  0
LINE
  8
0
 10
0.248367
 20
117.399
 11
-0.248367
 21
117.399
  0
LINE
  8
0
 10
-3.2
 20
97.55
 11
-3.2
 21
112.45
  0
LINE
  8
0
 10
-3.2
 20
112.45
 11
3.2
 21
112.45
  0
LINE
  8
0
 10
3.2
 20
112.45
 11
3.2
 21
97.55
  0
LINE
  8
0
 10
3.2
 20
97.55
 11
-3.2
 21
97.55
  0
LINE
  8
0
 10
-34.7
 20
97.55
 11
-34.7
 21
112.45
  0
LINE
  8
0
 10
-34.7
 20
112.45
 11
-28.3
 21
112.45
  0
LINE
  8
0
 10
-28.3
 20
112.45
 11
-28.3
 21
97.55
  0
LINE
  8
0
 10
-28.3
 20
97.55
 11
-34.7
 21
97.55
  0
LINE
  8
0
 10
-34.7
 20
-112.45
 11
-34.7
 21
-97.55
  0
LINE
  8
0
 10
-34.7
 20
-97.55
 11
-28.3
 21
-97.55
  0
LINE
  8
0
 10
-28.3
 20
-97.55
 11
-28.3
 21
-112.45
  0
LINE
  8
0
 10
-28.3
 20
-112.45
 11
-34.7
 21
-112.45
  0
LINE
  8
0
 10
-3.2
 20
-112.45
 11
-3.2
 21
-97.55
  0
LINE
  8
0
 10
-3.2
 20
-97.55
 11
3.2
 21
-97.55
  0
LINE
  8
0
 10
3.2
 20
-97.55
 11
3.2
 21
-112.45
  0
LINE
  8
0
 10
3.2
 20
-112.45
 11
-3.2
 21
-112.45
  0
LINE
  8
0
 10
-31.9945
 20
-122.566
 11
-32.4711
 21
-122.426
  0
LINE
  8
0
 10
-32.4711
 20
-122.426
 11
-32.9127
 21
-122.198
  0
LINE
  8
0
 10
-32.9127
 20
-122.198
 11
-33.3032
 21
-121.891
  0
LINE
  8
0
 10
-33.3032
 20
-121.891
 11
-33.6285
 21
-121.516
  0
LINE
  8
0
 10
-33.6285
 20
-121.516
 11
-33.8769
 21
-121.085
  0
LINE
  8
0
 10
-33.8769
 20
-121.085
 11
-34.0393
 21
-120.616
  0
LINE
  8
0
 10
-34.0393
 20
-120.616
 11
-34.11
 21
-120.124
  0
LINE
  8
0
 10
-34.11
 20
-120.124
 11
-34.0864
 21
-119.628
  0
LINE
  8
0
 10
-34.0864
 20
-119.628
 11
-33.9693
 21
-119.145
  0
LINE
  8
0
 10
-33.9693
 20
-119.145
 11
-33.7629
 21
-118.693
  0
LINE
  8
0
 10
-33.7629
 20
-118.693
 11
-33.4748
 21
-118.289
  0
LINE
  8
0
 10
-33.4748
 20
-118.289
 11
-33.1152
 21
-117.946
  0
LINE
  8
0
 10
-33.1152
 20
-117.946
 11
-32.6973
 21
-117.677
  0
LINE
  8
0
 10
-32.6973
 20
-117.677
 11
-32.2362
 21
-117.493
  0
LINE
  8
0
 10
-32.2362
 20
-117.493
 11
-31.7484
 21
-117.399
  0
LINE
  8
0
 10
-31.7484
 20
-117.399
 11
-31.2516
 21
-117.399
  0
LINE
  8
0
 10
-31.2516
 20
-117.399
 11
-30.7638
 21
-117.493
  0
LINE
  8
0
 10
-30.7638
 20
-117.493
 11
-30.3026
 21
-117.677
  0
LINE
  8
0
 10
-30.3026
 20
-117.677
 11
-29.8848
 21
-117.946
  0
LINE
  8
0
 10
-29.8848
 20
-117.946
 11
-29.5252
 21
-118.289
  0
LINE
  8
0
 10
-29.5252
 20
-118.289
 11
-29.2371
 21
-118.693
  0
LINE
  8
0
 10
-29.2371
 20
-118.693
 11
-29.0307
 21
-119.145
  0
LINE
  8
0
 10
-29.0307
 20
-119.145
 11
-28.9136
 21
-119.628
  0
LINE
  8
0
 10
-28.9136
 20
-119.628
 11
-28.89
 21
-120.124
  0
LINE
  8
0
 10
-28.89
 20
-120.124
 11
-28.9606
 21
-120.616
  0
LINE
  8
0
 10
-28.9606
 20
-120.616
 11
-29.1231
 21
-121.085
  0
LINE
  8
0
 10
-29.1231
 20
-121.085
 11
-29.3715
 21
-121.516
  0
LINE
  8
0
 10
-29.3715
 20
-121.516
 11
-29.6968
 21
-121.891
  0
LINE
  8
0
 10
-29.6968
 20
-121.891
 11
-30.0873
 21
-122.198
  0
LINE
  8
0
 10
-30.0873
 20
-122.198
 11
-30.5288
 21
-122.426
  0
LINE
  8
0
 10
-30.5288
 20
-122.426
 11
-31.0055
 21
-122.566
  0
LINE
  8
0
 10
-31.0055
 20
-122.566
 11
-31.5
 21
-122.613
  0
LINE
  8
0
 10
-31.5
 20
-122.613
 11
-31.9945
 21
-122.566
  0
LINE
  8
0
 10
-2.5864
 20
-119.628
 11
-2.46928
 21
-119.145
  0
LINE
  8
0
 10
-2.46928
 20
-119.145
 11
-2.26292
 21
-118.693
  0
LINE
  8
0
 10
-2.26292
 20
-118.693
 11
-1.97476
 21
-118.289
  0
LINE
  8
0
 10
-1.97476
 20
-118.289
 11
-1.61523
 21
-117.946
  0
LINE
  8
0
 10
-1.61523
 20
-117.946
 11
-1.19734
 21
-117.677
  0
LINE
  8
0
 10
-1.19734
 20
-117.677
 11
-0.73616
 21
-117.493
  0
LINE
  8
0
 10
-0.73616
 20
-117.493
 11
-0.248367
 21
-117.399
  0
LINE
  8
0
 10
-0.248367
 20
-117.399
 11
0.248367
 21
-117.399
  0
LINE
  8
0
 10
0.248367
 20
-117.399
 11
0.73616
 21
-117.493
  0
LINE
  8
0
 10
0.73616
 20
-117.493
 11
1.19734
 21
-117.677
  0
LINE
  8
0
 10
1.19734
 20
-117.677
 11
1.61523
 21
-117.946
  0
LINE
  8
0
 10
1.61523
 20
-117.946
 11
1.97476
 21
-118.289
  0
LINE
  8
0
 10
1.97476
 20
-118.289
 11
2.26292
 21
-118.693
  0
LINE
  8
0
 10
2.26292
 20
-118.693
 11
2.46928
 21
-119.145
  0
LINE
  8
0
 10
2.46928
 20
-119.145
 11
2.5864
 21
-119.628
  0
LINE
  8
0
 10
2.5864
 20
-119.628
 11
2.61003
 21
-120.124
  0
LINE
  8
0
 10
2.61003
 20
-120.124
 11
2.53934
 21
-120.616
  0
LINE
  8
0
 10
2.53934
 20
-120.616
 11
2.37686
 21
-121.085
  0
LINE
  8
0
 10
2.37686
 20
-121.085
 11
2.12848
 21
-121.516
  0
LINE
  8
0
 10
2.12848
 20
-121.516
 11
1.80316
 21
-121.891
  0
LINE
  8
0
 10
1.80316
 20
-121.891
 11
1.41269
 21
-122.198
  0
LINE
  8
0
 10
1.41269
 20
-122.198
 11
0.971146
 21
-122.426
  0
LINE
  8
0
 10
0.971146
 20
-122.426
 11
0.494507
 21
-122.566
  0
LINE
  8
0
 10
0.494507
 20
-122.566
 11
0
 21
-122.613
  0
LINE
  8
0
 10
0
 20
-122.613
 11
-0.494507
 21
-122.566
  0
LINE
  8
0
 10
-0.494507
 20
-122.566
 11
-0.971146
 21
-122.426
  0
LINE
  8
0
 10
-0.971146
 20
-122.426
 11
-1.41269
 21
-122.198
  0
LINE
  8
0
 10
-1.41269
 20
-122.198
 11
-1.80316
 21
-121.891
  0
LINE
  8
0
 10
-1.80316
 20
-121.891
 11
-3.2
 21
-127.55
  0
LINE
  8
0
 10
-3.2
 20
-127.55
 11
-2.37686
 21
-121.085
  0
LINE
  8
0
 10
-2.37686
 20
-121.085
 11
-2.53934
 21
-120.616
  0
LINE
  8
0
 10
-2.53934
 20
-120.616
 11
-2.61003
 21
-120.124
  0
LINE
  8
0
 10
-2.61003
 20
-120.124
 11
-2.5864
 21
-119.628
  0
LINE
  8
0
 10
-3.2
 20
-127.55
 11
-1.80316
 21
-121.891
  0
LINE
  8
0
 10
-1.80316
 20
-121.891
 11
-2.12848
 21
-121.516
  0
LINE
  8
0
 10
-2.12848
 20
-121.516
 11
-2.37686
 21
-121.085
  0
LINE
  8
0
 10
-2.37686
 20
-121.085
 11
-3.2
 21
-127.55
  0
LINE
  8
0
 10
-34.7
 20
-142.45
 11
-34.7
 21
-127.55
  0
LINE
  8
0
 10
-34.7
 20
-127.55
 11
-28.3
 21
-127.55
  0
LINE
  8
0
 10
-28.3
 20
-127.55
 11
-28.3
 21
-142.45
  0
LINE
  8
0
 10
-28.3
 20
-142.45
 11
-34.7
 21
-142.45
  0
LINE
  8
0
 10
-3.2
 20
-142.45
 11
-3.2
 21
-127.55
  0
LINE
  8
0
 10
-3.2
 20
-127.55
 11
3.2
 21
-127.55
  0
LINE
  8
0
 10
3.2
 20
-127.55
 11
3.2
 21
-142.45
  0
LINE
  8
0
 10
3.2
 20
-142.45
 11
-3.2
 21
-142.45
  0
LINE
  8
0
 10
-9.99911
 20
-192.688
 11
-10.4889
 21
-192.597
  0
LINE
  8
0
 10
-10.4889
 20
-192.597
 11
-10.9535
 21
-192.417
  0
LINE
  8
0
 10
-10.9535
 20
-192.417
 11
-11.3771
 21
-192.155
  0
LINE
  8
0
 10
-11.3771
 20
-192.155
 11
-11.7453
 21
-191.819
  0
LINE
  8
0
 10
-11.7453
 20
-191.819
 11
-12.0456
 21
-191.421
  0
LINE
  8
0
 10
-12.0456
 20
-191.421
 11
-12.2677
 21
-190.975
  0
LINE
  8
0
 10
-12.2677
 20
-190.975
 11
-12.404
 21
-190.496
  0
LINE
  8
0
 10
-12.404
 20
-190.496
 11
-12.45
 21
-190
  0
LINE
  8
0
 10
-12.45
 20
-190
 11
-12.404
 21
-189.504
  0
LINE
  8
0
 10
-12.404
 20
-189.504
 11
-12.2677
 21
-189.025
  0
LINE
  8
0
 10
-12.2677
 20
-189.025
 11
-12.0456
 21
-188.579
  0
LINE
  8
0
 10
-12.0456
 20
-188.579
 11
-11.7453
 21
-188.181
  0
LINE
  8
0
 10
-11.7453
 20
-188.181
 11
-11.3771
 21
-187.845
  0
LINE
  8
0
 10
-11.3771
 20
-187.845
 11
-10.9535
 21
-187.583
  0
LINE
  8
0
 10
-10.9535
 20
-187.583
 11
-10.4889
 21
-187.403
  0
LINE
  8
0
 10
-10.4889
 20
-187.403
 11
-9.99911
 21
-187.312
  0
LINE
  8
0
 10
-9.99911
 20
-187.312
 11
-9.50087
 21
-187.312
  0
LINE
  8
0
 10
-9.50087
 20
-187.312
 11
-9.01111
 21
-187.403
  0
LINE
  8
0
 10
-9.01111
 20
-187.403
 11
-8.54649
 21
-187.583
  0
LINE
  8
0
 10
-8.54649
 20
-187.583
 11
-8.12288
 21
-187.845
  0
LINE
  8
0
 10
-8.12288
 20
-187.845
 11
-7.75467
 21
-188.181
  0
LINE
  8
0
 10
-7.75467
 20
-188.181
 11
-7.45441
 21
-188.579
  0
LINE
  8
0
 10
-7.45441
 20
-188.579
 11
-7.23232
 21
-189.025
  0
LINE
  8
0
 10
-7.23232
 20
-189.025
 11
-7.09596
 21
-189.504
  0
LINE
  8
0
 10
-7.09596
 20
-189.504
 11
-7.04999
 21
-190
  0
LINE
  8
0
 10
-7.04999
 20
-190
 11
-7.09596
 21
-190.496
  0
LINE
  8
0
 10
-7.09596
 20
-190.496
 11
-7.23232
 21
-190.975
  0
LINE
  8
0
 10
-7.23232
 20
-190.975
 11
-7.45441
 21
-191.421
  0
LINE
  8
0
 10
-7.45441
 20
-191.421
 11
-7.75467
 21
-191.819
  0
LINE
  8
0
 10
-7.75467
 20
-191.819
 11
-8.12288
 21
-192.155
  0
LINE
  8
0
 10
-8.12288
 20
-192.155
 11
-8.54649
 21
-192.417
  0
LINE
  8
0
 10
-8.54649
 20
-192.417
 11
-9.01111
 21
-192.597
  0
LINE
  8
0
 10
-9.01111
 20
-192.597
 11
-9.50087
 21
-192.688
  0
LINE
  8
0
 10
-9.50087
 20
-192.688
 11
-9.99911
 21
-192.688
  0
LINE
  8
0
 10
-47.4991
 20
-192.688
 11
-47.9889
 21
-192.597
  0
LINE
  8
0
 10
-47.9889
 20
-192.597
 11
-48.4535
 21
-192.417
  0
LINE
  8
0
 10
-48.4535
 20
-192.417
 11
-48.8771
 21
-192.155
  0
LINE
  8
0
 10
-48.8771
 20
-192.155
 11
-49.2453
 21
-191.819
  0
LINE
  8
0
 10
-49.2453
 20
-191.819
 11
-49.5456
 21
-191.421
  0
LINE
  8
0
 10
-49.5456
 20
-191.421
 11
-49.7677
 21
-190.975
  0
LINE
  8
0
 10
-49.7677
 20
-190.975
 11
-49.904
 21
-190.496
  0
LINE
  8
0
 10
-49.904
 20
-190.496
 11
-49.95
 21
-190
  0
LINE
  8
0
 10
-49.95
 20
-190
 11
-49.904
 21
-189.504
  0
LINE
  8
0
 10
-49.904
 20
-189.504
 11
-49.7677
 21
-189.025
  0
LINE
  8
0
 10
-49.7677
 20
-189.025
 11
-49.5456
 21
-188.579
  0
LINE
  8
0
 10
-49.5456
 20
-188.579
 11
-49.2453
 21
-188.181
  0
LINE
  8
0
 10
-49.2453
 20
-188.181
 11
-48.8771
 21
-187.845
  0
LINE
  8
0
 10
-48.8771
 20
-187.845
 11
-48.4535
 21
-187.583
  0
LINE
  8
0
 10
-48.4535
 20
-187.583
 11
-47.9889
 21
-187.403
  0
LINE
  8
0
 10
-47.9889
 20
-187.403
 11
-47.4991
 21
-187.312
  0
LINE
  8
0
 10
-47.4991
 20
-187.312
 11
-47.0009
 21
-187.312
  0
LINE
  8
0
 10
-47.0009
 20
-187.312
 11
-46.5111
 21
-187.403
  0
LINE
  8
0
 10
-46.5111
 20
-187.403
 11
-46.0465
 21
-187.583
  0
LINE
  8
0
 10
-46.0465
 20
-187.583
 11
-45.6229
 21
-187.845
  0
LINE
  8
0
 10
-45.6229
 20
-187.845
 11
-45.2547
 21
-188.181
  0
LINE
  8
0
 10
-45.2547
 20
-188.181
 11
-44.9544
 21
-188.579
  0
LINE
  8
0
 10
-44.9544
 20
-188.579
 11
-44.7323
 21
-189.025
  0
LINE
  8
0
 10
-44.7323
 20
-189.025
 11
-44.596
 21
-189.504
  0
LINE
  8
0
 10
-44.596
 20
-189.504
 11
-44.55
 21
-190
  0
LINE
  8
0
 10
-44.55
 20
-190
 11
-44.596
 21
-190.496
  0
LINE
  8
0
 10
-44.596
 20
-190.496
 11
-44.7323
 21
-190.975
  0
LINE
  8
0
 10
-44.7323
 20
-190.975
 11
-44.9544
 21
-191.421
  0
LINE
  8
0
 10
-44.9544
 20
-191.421
 11
-45.2547
 21
-191.819
  0
LINE
  8
0
 10
-45.2547
 20
-191.819
 11
-45.6229
 21
-192.155
  0
LINE
  8
0
 10
-45.6229
 20
-192.155
 11
-46.0465
 21
-192.417
  0
LINE
  8
0
 10
-46.0465
 20
-192.417
 11
-46.5111
 21
-192.597
  0
LINE
  8
0
 10
-46.5111
 20
-192.597
 11
-47.0009
 21
-192.688
  0
LINE
  8
0
 10
-47.0009
 20
-192.688
 11
-47.4991
 21
-192.688
  0
LINE
  8
0
 10
-47.4991
 20
-212.688
 11
-47.9889
 21
-212.597
  0
LINE
  8
0
 10
-47.9889
 20
-212.597
 11
-48.4535
 21
-212.417
  0
LINE
  8
0
 10
-48.4535
 20
-212.417
 11
-48.8771
 21
-212.155
  0
LINE
  8
0
 10
-48.8771
 20
-212.155
 11
-49.2453
 21
-211.819
  0
LINE
  8
0
 10
-49.2453
 20
-211.819
 11
-49.5456
 21
-211.421
  0
LINE
  8
0
 10
-49.5456
 20
-211.421
 11
-49.7677
 21
-210.975
  0
LINE
  8
0
 10
-49.7677
 20
-210.975
 11
-49.904
 21
-210.496
  0
LINE
  8
0
 10
-49.904
 20
-210.496
 11
-49.95
 21
-210
  0
LINE
  8
0
 10
-49.95
 20
-210
 11
-49.904
 21
-209.504
  0
LINE
  8
0
 10
-49.904
 20
-209.504
 11
-49.7677
 21
-209.025
  0
LINE
  8
0
 10
-49.7677
 20
-209.025
 11
-49.5456
 21
-208.579
  0
LINE
  8
0
 10
-49.5456
 20
-208.579
 11
-49.2453
 21
-208.181
  0
LINE
  8
0
 10
-49.2453
 20
-208.181
 11
-48.8771
 21
-207.845
  0
LINE
  8
0
 10
-48.8771
 20
-207.845
 11
-48.4535
 21
-207.583
  0
LINE
  8
0
 10
-48.4535
 20
-207.583
 11
-47.9889
 21
-207.403
  0
LINE
  8
0
 10
-47.9889
 20
-207.403
 11
-47.4991
 21
-207.312
  0
LINE
  8
0
 10
-47.4991
 20
-207.312
 11
-47.0009
 21
-207.312
  0
LINE
  8
0
 10
-47.0009
 20
-207.312
 11
-46.5111
 21
-207.403
  0
LINE
  8
0
 10
-46.5111
 20
-207.403
 11
-46.0465
 21
-207.583
  0
LINE
  8
0
 10
-46.0465
 20
-207.583
 11
-45.6229
 21
-207.845
  0
LINE
  8
0
 10
-45.6229
 20
-207.845
 11
-45.2547
 21
-208.181
  0
LINE
  8
0
 10
-45.2547
 20
-208.181
 11
-44.9544
 21
-208.579
  0
LINE
  8
0
 10
-44.9544
 20
-208.579
 11
-44.7323
 21
-209.025
  0
LINE
  8
0
 10
-44.7323
 20
-209.025
 11
-44.596
 21
-209.504
  0
LINE
  8
0
 10
-44.596
 20
-209.504
 11
-44.55
 21
-210
  0
LINE
  8
0
 10
-44.55
 20
-210
 11
-44.596
 21
-210.496
  0
LINE
  8
0
 10
-44.596
 20
-210.496
 11
-44.7323
 21
-210.975
  0
LINE
  8
0
 10
-44.7323
 20
-210.975
 11
-44.9544
 21
-211.421
  0
LINE
  8
0
 10
-44.9544
 20
-211.421
 11
-45.2547
 21
-211.819
  0
LINE
  8
0
 10
-45.2547
 20
-211.819
 11
-45.6229
 21
-212.155
  0
LINE
  8
0
 10
-45.6229
 20
-212.155
 11
-46.0465
 21
-212.417
  0
LINE
  8
0
 10
-46.0465
 20
-212.417
 11
-46.5111
 21
-212.597
  0
LINE
  8
0
 10
-46.5111
 20
-212.597
 11
-47.0009
 21
-212.688
  0
LINE
  8
0
 10
-47.0009
 20
-212.688
 11
-47.4991
 21
-212.688
  0
LINE
  8
0
 10
-9.99911
 20
-212.688
 11
-10.4889
 21
-212.597
  0
LINE
  8
0
 10
-10.4889
 20
-212.597
 11
-10.9535
 21
-212.417
  0
LINE
  8
0
 10
-10.9535
 20
-212.417
 11
-11.3771
 21
-212.155
  0
LINE
  8
0
 10
-11.3771
 20
-212.155
 11
-11.7453
 21
-211.819
  0
LINE
  8
0
 10
-11.7453
 20
-211.819
 11
-12.0456
 21
-211.421
  0
LINE
  8
0
 10
-12.0456
 20
-211.421
 11
-12.2677
 21
-210.975
  0
LINE
  8
0
 10
-12.2677
 20
-210.975
 11
-12.404
 21
-210.496
  0
LINE
  8
0
 10
-12.404
 20
-210.496
 11
-12.45
 21
-210
  0
LINE
  8
0
 10
-12.45
 20
-210
 11
-12.404
 21
-209.504
  0
LINE
  8
0
 10
-12.404
 20
-209.504
 11
-12.2677
 21
-209.025
  0
LINE
  8
0
 10
-12.2677
 20
-209.025
 11
-12.0456
 21
-208.579
  0
LINE
  8
0
 10
-12.0456
 20
-208.579
 11
-11.7453
 21
-208.181
  0
LINE
  8
0
 10
-11.7453
 20
-208.181
 11
-11.3771
 21
-207.845
  0
LINE
  8
0
 10
-11.3771
 20
-207.845
 11
-10.9535
 21
-207.583
  0
LINE
  8
0
 10
-10.9535
 20
-207.583
 11
-10.4889
 21
-207.403
  0
LINE
  8
0
 10
-10.4889
 20
-207.403
 11
-9.99911
 21
-207.312
  0
LINE
  8
0
 10
-9.99911
 20
-207.312
 11
-9.50087
 21
-207.312
  0
LINE
  8
0
 10
-9.50087
 20
-207.312
 11
-9.01111
 21
-207.403
  0
LINE
  8
0
 10
-9.01111
 20
-207.403
 11
-8.54649
 21
-207.583
  0
LINE
  8
0
 10
-8.54649
 20
-207.583
 11
-8.12288
 21
-207.845
  0
LINE
  8
0
 10
-8.12288
 20
-207.845
 11
-7.75467
 21
-208.181
  0
LINE
  8
0
 10
-7.75467
 20
-208.181
 11
-7.45441
 21
-208.579
  0
LINE
  8
0
 10
-7.45441
 20
-208.579
 11
-7.23232
 21
-209.025
  0
LINE
  8
0
 10
-7.23232
 20
-209.025
 11
-7.09596
 21
-209.504
  0
LINE
  8
0
 10
-7.09596
 20
-209.504
 11
-7.04999
 21
-210
  0
LINE
  8
0
 10
-7.04999
 20
-210
 11
-7.09596
 21
-210.496
  0
LINE
  8
0
 10
-7.09596
 20
-210.496
 11
-7.23232
 21
-210.975
  0
LINE
  8
0
 10
-7.23232
 20
-210.975
 11
-7.45441
 21
-211.421
  0
LINE
  8
0
 10
-7.45441
 20
-211.421
 11
-7.75467
 21
-211.819
  0
LINE
  8
0
 10
-7.75467
 20
-211.819
 11
-8.12288
 21
-212.155
  0
LINE
  8
0
 10
-8.12288
 20
-212.155
 11
-8.54649
 21
-212.417
  0
LINE
  8
0
 10
-8.54649
 20
-212.417
 11
-9.01111
 21
-212.597
  0
LINE
  8
0
 10
-9.01111
 20
-212.597
 11
-9.50087
 21
-212.688
  0
LINE
  8
0
 10
-9.50087
 20
-212.688
 11
-9.99911
 21
-212.688
  0
LINE
  8
0
 10
-47.7
 20
-226.45
 11
-47.7
 21
-220.05
  0
LINE
  8
0
 10
-47.7
 20
-220.05
 11
-32.8
 21
-220.05
  0
LINE
  8
0
 10
-32.8
 20
-220.05
 11
-32.8
 21
-226.45
  0
LINE
  8
0
 10
-32.8
 20
-226.45
 11
-47.7
 21
-226.45
  0
LINE
  8
0
 10
-17.7
 20
-226.45
 11
-17.7
 21
-220.05
  0
LINE
  8
0
 10
-17.7
 20
-220.05
 11
-2.79999
 21
-220.05
  0
LINE
  8
0
 10
-2.79999
 20
-220.05
 11
-2.79999
 21
-226.45
  0
LINE
  8
0
 10
-2.79999
 20
-226.45
 11
-17.7
 21
-226.45
  0
LINE
  8
0
 10
-25.6219
 20
-225.836
 11
-26.1046
 21
-225.719
  0
LINE
  8
0
 10
-26.1046
 20
-225.719
 11
-26.5565
 21
-225.513
  0
LINE
  8
0
 10
-26.5565
 20
-225.513
 11
-26.9612
 21
-225.225
  0
LINE
  8
0
 10
-26.9612
 20
-225.225
 11
-27.304
 21
-224.865
  0
LINE
  8
0
 10
-27.304
 20
-224.865
 11
-27.5725
 21
-224.447
  0
LINE
  8
0
 10
-27.5725
 20
-224.447
 11
-27.7571
 21
-223.986
  0
LINE
  8
0
 10
-27.7571
 20
-223.986
 11
-27.8512
 21
-223.498
  0
LINE
  8
0
 10
-27.8512
 20
-223.498
 11
-27.8512
 21
-223.002
  0
LINE
  8
0
 10
-27.8512
 20
-223.002
 11
-27.7571
 21
-222.514
  0
LINE
  8
0
 10
-27.7571
 20
-222.514
 11
-27.5725
 21
-222.053
  0
LINE
  8
0
 10
-27.5725
 20
-222.053
 11
-27.304
 21
-221.635
  0
LINE
  8
0
 10
-27.304
 20
-221.635
 11
-26.9612
 21
-221.275
  0
LINE
  8
0
 10
-26.9612
 20
-221.275
 11
-26.5565
 21
-220.987
  0
LINE
  8
0
 10
-26.5565
 20
-220.987
 11
-26.1046
 21
-220.781
  0
LINE
  8
0
 10
-26.1046
 20
-220.781
 11
-25.6219
 21
-220.664
  0
LINE
  8
0
 10
-25.6219
 20
-220.664
 11
-25.1257
 21
-220.64
  0
LINE
  8
0
 10
-25.1257
 20
-220.64
 11
-24.634
 21
-220.711
  0
LINE
  8
0
 10
-24.634
 20
-220.711
 11
-24.1645
 21
-220.873
  0
LINE
  8
0
 10
-24.1645
 20
-220.873
 11
-23.7343
 21
-221.122
  0
LINE
  8
0
 10
-23.7343
 20
-221.122
 11
-23.3589
 21
-221.447
  0
LINE
  8
0
 10
-23.3589
 20
-221.447
 11
-23.0518
 21
-221.837
  0
LINE
  8
0
 10
-23.0518
 20
-221.837
 11
-22.8242
 21
-222.279
  0
LINE
  8
0
 10
-22.8242
 20
-222.279
 11
-22.6842
 21
-222.755
  0
LINE
  8
0
 10
-22.6842
 20
-222.755
 11
-22.637
 21
-223.25
  0
LINE
  8
0
 10
-22.637
 20
-223.25
 11
-22.6842
 21
-223.745
  0
LINE
  8
0
 10
-22.6842
 20
-223.745
 11
-22.8242
 21
-224.221
  0
LINE
  8
0
 10
-22.8242
 20
-224.221
 11
-23.0518
 21
-224.663
  0
LINE
  8
0
 10
-23.0518
 20
-224.663
 11
-23.3589
 21
-225.053
  0
LINE
  8
0
 10
-23.3589
 20
-225.053
 11
-23.7343
 21
-225.378
  0
LINE
  8
0
 10
-23.7343
 20
-225.378
 11
-24.1645
 21
-225.627
  0
LINE
  8
0
 10
-24.1645
 20
-225.627
 11
-24.634
 21
-225.789
  0
LINE
  8
0
 10
-24.634
 20
-225.789
 11
-25.1257
 21
-225.86
  0
LINE
  8
0
 10
-25.1257
 20
-225.86
 11
-25.6219
 21
-225.836
  0
ENDSEC
  0
SECTION
  2
OBJECTS
  0
DICTIONARY
  0
ENDSEC
  0
EOF
