  0
SECTION
  2
BLOCKS
  0
ENDSEC
  0
SECTION
  2
ENTITIES
  0
LINE
  8
0
 10
9.75
 20
245
 11
-2.75
 21
245
  0
LINE
  8
0
 10
-2.75
 20
245
 11
-2.75
 21
249.875
  0
LINE
  8
0
 10
-2.75
 20
249.875
 11
-4.375
 21
251.5
  0
LINE
  8
0
 10
-4.375
 20
251.5
 11
-16.125
 21
251.5
  0
LINE
  8
0
 10
-16.125
 20
251.5
 11
-17.75
 21
249.875
  0
LINE
  8
0
 10
-17.75
 20
249.875
 11
-17.75
 21
245
  0
LINE
  8
0
 10
-17.75
 20
245
 11
-22.85
 21
245
  0
LINE
  8
0
 10
-22.85
 20
245
 11
-22.85
 21
238.1
  0
LINE
  8
0
 10
-22.85
 20
238.1
 11
-21.3
 21
238.1
  0
LINE
  8
0
 10
-21.3
 20
238.1
 11
-21.3
 21
232.4
  0
LINE
  8
0
 10
-21.3
 20
232.4
 11
-22.85
 21
232.4
  0
LINE
  8
0
 10
-22.85
 20
232.4
 11
-22.85
 21
225.5
  0
LINE
  8
0
 10
-22.85
 20
225.5
 11
-27.65
 21
225.5
  0
LINE
  8
0
 10
-27.65
 20
225.5
 11
-27.65
 21
232.4
  0
LINE
  8
0
 10
-27.65
 20
232.4
 11
-29.2
 21
232.4
  0
LINE
  8
0
 10
-29.2
 20
232.4
 11
-29.2
 21
238.1
  0
LINE
  8
0
 10
-29.2
 20
238.1
 11
-27.65
 21
238.1
  0
LINE
  8
0
 10
-27.65
 20
238.1
 11
-27.65
 21
245
  0
LINE
  8
0
 10
-27.65
 20
245
 11
-32.75
 21
245
  0
LINE
  8
0
 10
-32.75
 20
245
 11
-32.75
 21
249.875
  0
LINE
  8
0
 10
-32.75
 20
249.875
 11
-34.375
 21
251.5
  0
LINE
  8
0
 10
-34.375
 20
251.5
 11
-46.125
 21
251.5
  0
LINE
  8
0
 10
-46.125
 20
251.5
 11
-47.75
 21
249.875
  0
LINE
  8
0
 10
-47.75
 20
249.875
 11
-47.75
 21
245
  0
LINE
  8
0
 10
-47.75
 20
245
 11
-60.25
 21
245
  0
LINE
  8
0
 10
-60.25
 20
245
 11
-60.25
 21
-265
  0
LINE
  8
0
 10
-60.25
 20
-265
 11
9.75
 21
-265
  0
LINE
  8
0
 10
9.75
 20
-265
 11
9.75
 21
245
  0
LINE
  8
0
 10
-9.99911
 20
232.312
 11
-10.4889
 21
232.403
  0
LINE
  8
0
 10
-10.4889
 20
232.403
 11
-10.9535
 21
232.583
  0
LINE
  8
0
 10
-10.9535
 20
232.583
 11
-11.3771
 21
232.845
  0
LINE
  8
0
 10
-11.3771
 20
232.845
 11
-11.7453
 21
233.181
  0
LINE
  8
0
 10
-11.7453
 20
233.181
 11
-12.0456
 21
233.579
  0
LINE
  8
0
 10
-12.0456
 20
233.579
 11
-12.2677
 21
234.025
  0
LINE
  8
0
 10
-12.2677
 20
234.025
 11
-12.404
 21
234.504
  0
LINE
  8
0
 10
-12.404
 20
234.504
 11
-12.45
 21
235
  0
LINE
  8
0
 10
-12.45
 20
235
 11
-12.404
 21
235.496
  0
LINE
  8
0
 10
-12.404
 20
235.496
 11
-12.2677
 21
235.975
  0
LINE
  8
0
 10
-12.2677
 20
235.975
 11
-12.0456
 21
236.421
  0
LINE
  8
0
 10
-12.0456
 20
236.421
 11
-11.7453
 21
236.819
  0
LINE
  8
0
 10
-11.7453
 20
236.819
 11
-11.3771
 21
237.155
  0
LINE
  8
0
 10
-11.3771
 20
237.155
 11
-10.9535
 21
237.417
  0
LINE
  8
0
 10
-10.9535
 20
237.417
 11
-10.4889
 21
237.597
  0
LINE
  8
0
 10
-10.4889
 20
237.597
 11
-9.99911
 21
237.688
  0
LINE
  8
0
 10
-9.99911
 20
237.688
 11
-9.50087
 21
237.688
  0
LINE
  8
0
 10
-9.50087
 20
237.688
 11
-9.01111
 21
237.597
  0
LINE
  8
0
 10
-9.01111
 20
237.597
 11
-8.54649
 21
237.417
  0
LINE
  8
0
 10
-8.54649
 20
237.417
 11
-8.12288
 21
237.155
  0
LINE
  8
0
 10
-8.12288
 20
237.155
 11
-7.75467
 21
236.819
  0
LINE
  8
0
 10
-7.75467
 20
236.819
 11
-7.45441
 21
236.421
  0
LINE
  8
0
 10
-7.45441
 20
236.421
 11
-7.23232
 21
235.975
  0
LINE
  8
0
 10
-7.23232
 20
235.975
 11
-7.09596
 21
235.496
  0
LINE
  8
0
 10
-7.09596
 20
235.496
 11
-7.04999
 21
235
  0
LINE
  8
0
 10
-7.04999
 20
235
 11
-7.09596
 21
234.504
  0
LINE
  8
0
 10
-7.09596
 20
234.504
 11
-7.23232
 21
234.025
  0
LINE
  8
0
 10
-7.23232
 20
234.025
 11
-7.45441
 21
233.579
  0
LINE
  8
0
 10
-7.45441
 20
233.579
 11
-7.75467
 21
233.181
  0
LINE
  8
0
 10
-7.75467
 20
233.181
 11
-8.12288
 21
232.845
  0
LINE
  8
0
 10
-8.12288
 20
232.845
 11
-8.54649
 21
232.583
  0
LINE
  8
0
 10
-8.54649
 20
232.583
 11
-9.01111
 21
232.403
  0
LINE
  8
0
 10
-9.01111
 20
232.403
 11
-9.50087
 21
232.312
  0
LINE
  8
0
 10
-9.50087
 20
232.312
 11
-9.99911
 21
232.312
  0
LINE
  8
0
 10
-47.4991
 20
232.312
 11
-47.9889
 21
232.403
  0
LINE
  8
0
 10
-47.9889
 20
232.403
 11
-48.4535
 21
232.583
  0
LINE
  8
0
 10
-48.4535
 20
232.583
 11
-48.8771
 21
232.845
  0
LINE
  8
0
 10
-48.8771
 20
232.845
 11
-49.2453
 21
233.181
  0
LINE
  8
0
 10
-49.2453
 20
233.181
 11
-49.5456
 21
233.579
  0
LINE
  8
0
 10
-49.5456
 20
233.579
 11
-49.7677
 21
234.025
  0
LINE
  8
0
 10
-49.7677
 20
234.025
 11
-49.904
 21
234.504
  0
LINE
  8
0
 10
-49.904
 20
234.504
 11
-49.95
 21
235
  0
LINE
  8
0
 10
-49.95
 20
235
 11
-49.904
 21
235.496
  0
LINE
  8
0
 10
-49.904
 20
235.496
 11
-49.7677
 21
235.975
  0
LINE
  8
0
 10
-49.7677
 20
235.975
 11
-49.5456
 21
236.421
  0
LINE
  8
0
 10
-49.5456
 20
236.421
 11
-49.2453
 21
236.819
  0
LINE
  8
0
 10
-49.2453
 20
236.819
 11
-48.8771
 21
237.155
  0
LINE
  8
0
 10
-48.8771
 20
237.155
 11
-48.4535
 21
237.417
  0
LINE
  8
0
 10
-48.4535
 20
237.417
 11
-47.9889
 21
237.597
  0
LINE
  8
0
 10
-47.9889
 20
237.597
 11
-47.4991
 21
237.688
  0
LINE
  8
0
 10
-47.4991
 20
237.688
 11
-47.0009
 21
237.688
  0
LINE
  8
0
 10
-47.0009
 20
237.688
 11
-46.5111
 21
237.597
  0
LINE
  8
0
 10
-46.5111
 20
237.597
 11
-46.0465
 21
237.417
  0
LINE
  8
0
 10
-46.0465
 20
237.417
 11
-45.6229
 21
237.155
  0
LINE
  8
0
 10
-45.6229
 20
237.155
 11
-45.2547
 21
236.819
  0
LINE
  8
0
 10
-45.2547
 20
236.819
 11
-44.9544
 21
236.421
  0
LINE
  8
0
 10
-44.9544
 20
236.421
 11
-44.7323
 21
235.975
  0
LINE
  8
0
 10
-44.7323
 20
235.975
 11
-44.596
 21
235.496
  0
LINE
  8
0
 10
-44.596
 20
235.496
 11
-44.55
 21
235
  0
LINE
  8
0
 10
-44.55
 20
235
 11
-44.596
 21
234.504
  0
LINE
  8
0
 10
-44.596
 20
234.504
 11
-44.7323
 21
234.025
  0
LINE
  8
0
 10
-44.7323
 20
234.025
 11
-44.9544
 21
233.579
  0
LINE
  8
0
 10
-44.9544
 20
233.579
 11
-45.2547
 21
233.181
  0
LINE
  8
0
 10
-45.2547
 20
233.181
 11
-45.6229
 21
232.845
  0
LINE
  8
0
 10
-45.6229
 20
232.845
 11
-46.0465
 21
232.583
  0
LINE
  8
0
 10
-46.0465
 20
232.583
 11
-46.5111
 21
232.403
  0
LINE
  8
0
 10
-46.5111
 20
232.403
 11
-47.0009
 21
232.312
  0
LINE
  8
0
 10
-47.0009
 20
232.312
 11
-47.4991
 21
232.312
  0
LINE
  8
0
 10
-9.99911
 20
212.312
 11
-10.4889
 21
212.403
  0
LINE
  8
0
 10
-10.4889
 20
212.403
 11
-10.9535
 21
212.583
  0
LINE
  8
0
 10
-10.9535
 20
212.583
 11
-11.3771
 21
212.845
  0
LINE
  8
0
 10
-11.3771
 20
212.845
 11
-11.7453
 21
213.181
  0
LINE
  8
0
 10
-11.7453
 20
213.181
 11
-12.0456
 21
213.579
  0
LINE
  8
0
 10
-12.0456
 20
213.579
 11
-12.2677
 21
214.025
  0
LINE
  8
0
 10
-12.2677
 20
214.025
 11
-12.404
 21
214.504
  0
LINE
  8
0
 10
-12.404
 20
214.504
 11
-12.45
 21
215
  0
LINE
  8
0
 10
-12.45
 20
215
 11
-12.404
 21
215.496
  0
LINE
  8
0
 10
-12.404
 20
215.496
 11
-12.2677
 21
215.975
  0
LINE
  8
0
 10
-12.2677
 20
215.975
 11
-12.0456
 21
216.421
  0
LINE
  8
0
 10
-12.0456
 20
216.421
 11
-11.7453
 21
216.819
  0
LINE
  8
0
 10
-11.7453
 20
216.819
 11
-11.3771
 21
217.155
  0
LINE
  8
0
 10
-11.3771
 20
217.155
 11
-10.9535
 21
217.417
  0
LINE
  8
0
 10
-10.9535
 20
217.417
 11
-10.4889
 21
217.597
  0
LINE
  8
0
 10
-10.4889
 20
217.597
 11
-9.99911
 21
217.688
  0
LINE
  8
0
 10
-9.99911
 20
217.688
 11
-9.50087
 21
217.688
  0
LINE
  8
0
 10
-9.50087
 20
217.688
 11
-9.01111
 21
217.597
  0
LINE
  8
0
 10
-9.01111
 20
217.597
 11
-8.54649
 21
217.417
  0
LINE
  8
0
 10
-8.54649
 20
217.417
 11
-8.12288
 21
217.155
  0
LINE
  8
0
 10
-8.12288
 20
217.155
 11
-7.75467
 21
216.819
  0
LINE
  8
0
 10
-7.75467
 20
216.819
 11
-7.45441
 21
216.421
  0
LINE
  8
0
 10
-7.45441
 20
216.421
 11
-7.23232
 21
215.975
  0
LINE
  8
0
 10
-7.23232
 20
215.975
 11
-7.09596
 21
215.496
  0
LINE
  8
0
 10
-7.09596
 20
215.496
 11
-7.04999
 21
215
  0
LINE
  8
0
 10
-7.04999
 20
215
 11
-7.09596
 21
214.504
  0
LINE
  8
0
 10
-7.09596
 20
214.504
 11
-7.23232
 21
214.025
  0
LINE
  8
0
 10
-7.23232
 20
214.025
 11
-7.45441
 21
213.579
  0
LINE
  8
0
 10
-7.45441
 20
213.579
 11
-7.75467
 21
213.181
  0
LINE
  8
0
 10
-7.75467
 20
213.181
 11
-8.12288
 21
212.845
  0
LINE
  8
0
 10
-8.12288
 20
212.845
 11
-8.54649
 21
212.583
  0
LINE
  8
0
 10
-8.54649
 20
212.583
 11
-9.01111
 21
212.403
  0
LINE
  8
0
 10
-9.01111
 20
212.403
 11
-9.50087
 21
212.312
  0
LINE
  8
0
 10
-9.50087
 20
212.312
 11
-9.99911
 21
212.312
  0
LINE
  8
0
 10
-47.4991
 20
212.312
 11
-47.9889
 21
212.403
  0
LINE
  8
0
 10
-47.9889
 20
212.403
 11
-48.4535
 21
212.583
  0
LINE
  8
0
 10
-48.4535
 20
212.583
 11
-48.8771
 21
212.845
  0
LINE
  8
0
 10
-48.8771
 20
212.845
 11
-49.2453
 21
213.181
  0
LINE
  8
0
 10
-49.2453
 20
213.181
 11
-49.5456
 21
213.579
  0
LINE
  8
0
 10
-49.5456
 20
213.579
 11
-49.7677
 21
214.025
  0
LINE
  8
0
 10
-49.7677
 20
214.025
 11
-49.904
 21
214.504
  0
LINE
  8
0
 10
-49.904
 20
214.504
 11
-49.95
 21
215
  0
LINE
  8
0
 10
-49.95
 20
215
 11
-49.904
 21
215.496
  0
LINE
  8
0
 10
-49.904
 20
215.496
 11
-49.7677
 21
215.975
  0
LINE
  8
0
 10
-49.7677
 20
215.975
 11
-49.5456
 21
216.421
  0
LINE
  8
0
 10
-49.5456
 20
216.421
 11
-49.2453
 21
216.819
  0
LINE
  8
0
 10
-49.2453
 20
216.819
 11
-48.8771
 21
217.155
  0
LINE
  8
0
 10
-48.8771
 20
217.155
 11
-48.4535
 21
217.417
  0
LINE
  8
0
 10
-48.4535
 20
217.417
 11
-47.9889
 21
217.597
  0
LINE
  8
0
 10
-47.9889
 20
217.597
 11
-47.4991
 21
217.688
  0
LINE
  8
0
 10
-47.4991
 20
217.688
 11
-47.0009
 21
217.688
  0
LINE
  8
0
 10
-47.0009
 20
217.688
 11
-46.5111
 21
217.597
  0
LINE
  8
0
 10
-46.5111
 20
217.597
 11
-46.0465
 21
217.417
  0
LINE
  8
0
 10
-46.0465
 20
217.417
 11
-45.6229
 21
217.155
  0
LINE
  8
0
 10
-45.6229
 20
217.155
 11
-45.2547
 21
216.819
  0
LINE
  8
0
 10
-45.2547
 20
216.819
 11
-44.9544
 21
216.421
  0
LINE
  8
0
 10
-44.9544
 20
216.421
 11
-44.7323
 21
215.975
  0
LINE
  8
0
 10
-44.7323
 20
215.975
 11
-44.596
 21
215.496
  0
LINE
  8
0
 10
-44.596
 20
215.496
 11
-44.55
 21
215
  0
LINE
  8
0
 10
-44.55
 20
215
 11
-44.596
 21
214.504
  0
LINE
  8
0
 10
-44.596
 20
214.504
 11
-44.7323
 21
214.025
  0
LINE
  8
0
 10
-44.7323
 20
214.025
 11
-44.9544
 21
213.579
  0
LINE
  8
0
 10
-44.9544
 20
213.579
 11
-45.2547
 21
213.181
  0
LINE
  8
0
 10
-45.2547
 20
213.181
 11
-45.6229
 21
212.845
  0
LINE
  8
0
 10
-45.6229
 20
212.845
 11
-46.0465
 21
212.583
  0
LINE
  8
0
 10
-46.0465
 20
212.583
 11
-46.5111
 21
212.403
  0
LINE
  8
0
 10
-46.5111
 20
212.403
 11
-47.0009
 21
212.312
  0
LINE
  8
0
 10
-47.0009
 20
212.312
 11
-47.4991
 21
212.312
  0
LINE
  8
0
 10
-3.2
 20
152.55
 11
-3.2
 21
167.45
  0
LINE
  8
0
 10
-3.2
 20
167.45
 11
3.2
 21
167.45
  0
LINE
  8
0
 10
3.2
 20
167.45
 11
3.2
 21
152.55
  0
LINE
  8
0
 10
3.2
 20
152.55
 11
-3.2
 21
152.55
  0
LINE
  8
0
 10
-34.7
 20
152.55
 11
-34.7
 21
167.45
  0
LINE
  8
0
 10
-34.7
 20
167.45
 11
-28.3
 21
167.45
  0
LINE
  8
0
 10
-28.3
 20
167.45
 11
-28.3
 21
152.55
  0
LINE
  8
0
 10
-28.3
 20
152.55
 11
-34.7
 21
152.55
  0
LINE
  8
0
 10
-31.9961
 20
142.346
 11
-32.4753
 21
142.482
  0
LINE
  8
0
 10
-32.4753
 20
142.482
 11
-32.9214
 21
142.704
  0
LINE
  8
0
 10
-32.9214
 20
142.704
 11
-33.319
 21
143.005
  0
LINE
  8
0
 10
-33.319
 20
143.005
 11
-33.6546
 21
143.373
  0
LINE
  8
0
 10
-33.6546
 20
143.373
 11
-33.9169
 21
143.797
  0
LINE
  8
0
 10
-33.9169
 20
143.797
 11
-34.0969
 21
144.261
  0
LINE
  8
0
 10
-34.0969
 20
144.261
 11
-34.1885
 21
144.751
  0
LINE
  8
0
 10
-34.1885
 20
144.751
 11
-34.1885
 21
145.249
  0
LINE
  8
0
 10
-34.1885
 20
145.249
 11
-34.0969
 21
145.739
  0
LINE
  8
0
 10
-34.0969
 20
145.739
 11
-33.9169
 21
146.203
  0
LINE
  8
0
 10
-33.9169
 20
146.203
 11
-33.6546
 21
146.627
  0
LINE
  8
0
 10
-33.6546
 20
146.627
 11
-33.319
 21
146.995
  0
LINE
  8
0
 10
-33.319
 20
146.995
 11
-32.9214
 21
147.296
  0
LINE
  8
0
 10
-32.9214
 20
147.296
 11
-32.4753
 21
147.518
  0
LINE
  8
0
 10
-32.4753
 20
147.518
 11
-31.9961
 21
147.654
  0
LINE
  8
0
 10
-31.9961
 20
147.654
 11
-31.5
 21
147.7
  0
LINE
  8
0
 10
-31.5
 20
147.7
 11
-31.0039
 21
147.654
  0
LINE
  8
0
 10
-31.0039
 20
147.654
 11
-30.5246
 21
147.518
  0
LINE
  8
0
 10
-30.5246
 20
147.518
 11
-30.0786
 21
147.296
  0
LINE
  8
0
 10
-30.0786
 20
147.296
 11
-29.681
 21
146.995
  0
LINE
  8
0
 10
-29.681
 20
146.995
 11
-29.3454
 21
146.627
  0
LINE
  8
0
 10
-29.3454
 20
146.627
 11
-29.0831
 21
146.203
  0
LINE
  8
0
 10
-29.0831
 20
146.203
 11
-28.9031
 21
145.739
  0
LINE
  8
0
 10
-28.9031
 20
145.739
 11
-28.8115
 21
145.249
  0
LINE
  8
0
 10
-28.8115
 20
145.249
 11
-28.8115
 21
144.751
  0
LINE
  8
0
 10
-28.8115
 20
144.751
 11
-28.9031
 21
144.261
  0
LINE
  8
0
 10
-28.9031
 20
144.261
 11
-29.0831
 21
143.797
  0
LINE
  8
0
 10
-29.0831
 20
143.797
 11
-29.3454
 21
143.373
  0
LINE
  8
0
 10
-29.3454
 20
143.373
 11
-29.681
 21
143.005
  0
LINE
  8
0
 10
-29.681
 20
143.005
 11
-30.0786
 21
142.704
  0
LINE
  8
0
 10
-30.0786
 20
142.704
 11
-30.5246
 21
142.482
  0
LINE
  8
0
 10
-30.5246
 20
142.482
 11
-31.0039
 21
142.346
  0
LINE
  8
0
 10
-31.0039
 20
142.346
 11
-31.5
 21
142.3
  0
LINE
  8
0
 10
-31.5
 20
142.3
 11
-31.9961
 21
142.346
  0
LINE
  8
0
 10
-0.496109
 20
142.346
 11
-0.975342
 21
142.482
  0
LINE
  8
0
 10
-0.975342
 20
142.482
 11
-1.42136
 21
142.704
  0
LINE
  8
0
 10
-1.42136
 20
142.704
 11
-1.81897
 21
143.005
  0
LINE
  8
0
 10
-1.81897
 20
143.005
 11
-2.15463
 21
143.373
  0
LINE
  8
0
 10
-2.15463
 20
143.373
 11
-2.41693
 21
143.797
  0
LINE
  8
0
 10
-2.41693
 20
143.797
 11
-2.59692
 21
144.261
  0
LINE
  8
0
 10
-2.59692
 20
144.261
 11
-2.68848
 21
144.751
  0
LINE
  8
0
 10
-2.68848
 20
144.751
 11
-2.68848
 21
145.249
  0
LINE
  8
0
 10
-2.68848
 20
145.249
 11
-2.59692
 21
145.739
  0
LINE
  8
0
 10
-2.59692
 20
145.739
 11
-2.41693
 21
146.203
  0
LINE
  8
0
 10
-2.41693
 20
146.203
 11
-2.15463
 21
146.627
  0
LINE
  8
0
 10
-2.15463
 20
146.627
 11
-1.81897
 21
146.995
  0
LINE
  8
0
 10
-1.81897
 20
146.995
 11
-1.42136
 21
147.296
  0
LINE
  8
0
 10
-1.42136
 20
147.296
 11
-0.975342
 21
147.518
  0
LINE
  8
0
 10
-0.975342
 20
147.518
 11
-0.496109
 21
147.654
  0
LINE
  8
0
 10
-0.496109
 20
147.654
 11
0
 21
147.7
  0
LINE
  8
0
 10
0
 20
147.7
 11
0.496109
 21
147.654
  0
LINE
  8
0
 10
0.496109
 20
147.654
 11
0.975342
 21
147.518
  0
LINE
  8
0
 10
0.975342
 20
147.518
 11
1.42136
 21
147.296
  0
LINE
  8
0
 10
1.42136
 20
147.296
 11
1.81897
 21
146.995
  0
LINE
  8
0
 10
1.81897
 20
146.995
 11
2.15463
 21
146.627
  0
LINE
  8
0
 10
2.15463
 20
146.627
 11
2.41693
 21
146.203
  0
LINE
  8
0
 10
2.41693
 20
146.203
 11
2.59692
 21
145.739
  0
LINE
  8
0
 10
2.59692
 20
145.739
 11
2.68848
 21
145.249
  0
LINE
  8
0
 10
2.68848
 20
145.249
 11
2.68848
 21
144.751
  0
LINE
  8
0
 10
2.68848
 20
144.751
 11
2.59692
 21
144.261
  0
LINE
  8
0
 10
2.59692
 20
144.261
 11
2.41693
 21
143.797
  0
LINE
  8
0
 10
2.41693
 20
143.797
 11
2.15463
 21
143.373
  0
LINE
  8
0
 10
2.15463
 20
143.373
 11
1.81897
 21
143.005
  0
LINE
  8
0
 10
1.81897
 20
143.005
 11
1.42136
 21
142.704
  0
LINE
  8
0
 10
1.42136
 20
142.704
 11
0.975342
 21
142.482
  0
LINE
  8
0
 10
0.975342
 20
142.482
 11
0.496109
 21
142.346
  0
LINE
  8
0
 10
0.496109
 20
142.346
 11
0
 21
142.3
  0
LINE
  8
0
 10
0
 20
142.3
 11
-0.496109
 21
142.346
  0
LINE
  8
0
 10
-3.2
 20
122.55
 11
-3.2
 21
137.45
  0
LINE
  8
0
 10
-3.2
 20
137.45
 11
3.2
 21
137.45
  0
LINE
  8
0
 10
3.2
 20
137.45
 11
3.2
 21
122.55
  0
LINE
  8
0
 10
3.2
 20
122.55
 11
-3.2
 21
122.55
  0
LINE
  8
0
 10
-34.7
 20
122.55
 11
-34.7
 21
137.45
  0
LINE
  8
0
 10
-34.7
 20
137.45
 11
-28.3
 21
137.45
  0
LINE
  8
0
 10
-28.3
 20
137.45
 11
-28.3
 21
122.55
  0
LINE
  8
0
 10
-28.3
 20
122.55
 11
-34.7
 21
122.55
  0
LINE
  8
0
 10
-3.2
 20
7.54999
 11
-3.2
 21
22.45
  0
LINE
  8
0
 10
-3.2
 20
22.45
 11
3.2
 21
22.45
  0
LINE
  8
0
 10
3.2
 20
22.45
 11
3.2
 21
7.54999
  0
LINE
  8
0
 10
3.2
 20
7.54999
 11
-3.2
 21
7.54999
  0
LINE
  8
0
 10
-34.7
 20
7.54999
 11
-34.7
 21
22.45
  0
LINE
  8
0
 10
-34.7
 20
22.45
 11
-28.3
 21
22.45
  0
LINE
  8
0
 10
-28.3
 20
22.45
 11
-28.3
 21
7.54999
  0
LINE
  8
0
 10
-28.3
 20
7.54999
 11
-34.7
 21
7.54999
  0
LINE
  8
0
 10
-31.9961
 20
-2.65402
 11
-32.4753
 21
-2.51767
  0
LINE
  8
0
 10
-32.4753
 20
-2.51767
 11
-32.9214
 21
-2.29558
  0
LINE
  8
0
 10
-32.9214
 20
-2.29558
 11
-33.319
 21
-1.99532
  0
LINE
  8
0
 10
-33.319
 20
-1.99532
 11
-33.6546
 21
-1.62711
  0
LINE
  8
0
 10
-33.6546
 20
-1.62711
 11
-33.9169
 21
-1.20349
  0
LINE
  8
0
 10
-33.9169
 20
-1.20349
 11
-34.0969
 21
-0.738876
  0
LINE
  8
0
 10
-34.0969
 20
-0.738876
 11
-34.1885
 21
-0.249115
  0
LINE
  8
0
 10
-34.1885
 20
-0.249115
 11
-34.1885
 21
0.249115
  0
LINE
  8
0
 10
-34.1885
 20
0.249115
 11
-34.0969
 21
0.738876
  0
LINE
  8
0
 10
-34.0969
 20
0.738876
 11
-33.9169
 21
1.20349
  0
LINE
  8
0
 10
-33.9169
 20
1.20349
 11
-33.6546
 21
1.62711
  0
LINE
  8
0
 10
-33.6546
 20
1.62711
 11
-33.319
 21
1.99532
  0
LINE
  8
0
 10
-33.319
 20
1.99532
 11
-32.9214
 21
2.29558
  0
LINE
  8
0
 10
-32.9214
 20
2.29558
 11
-32.4753
 21
2.51767
  0
LINE
  8
0
 10
-32.4753
 20
2.51767
 11
-31.9961
 21
2.65402
  0
LINE
  8
0
 10
-31.9961
 20
2.65402
 11
-31.5
 21
2.7
  0
LINE
  8
0
 10
-31.5
 20
2.7
 11
-31.0039
 21
2.65402
  0
LINE
  8
0
 10
-31.0039
 20
2.65402
 11
-30.5246
 21
2.51767
  0
LINE
  8
0
 10
-30.5246
 20
2.51767
 11
-30.0786
 21
2.29558
  0
LINE
  8
0
 10
-30.0786
 20
2.29558
 11
-29.681
 21
1.99532
  0
LINE
  8
0
 10
-29.681
 20
1.99532
 11
-29.3454
 21
1.62711
  0
LINE
  8
0
 10
-29.3454
 20
1.62711
 11
-29.0831
 21
1.20349
  0
LINE
  8
0
 10
-29.0831
 20
1.20349
 11
-28.9031
 21
0.738876
  0
LINE
  8
0
 10
-28.9031
 20
0.738876
 11
-28.8115
 21
0.249115
  0
LINE
  8
0
 10
-28.8115
 20
0.249115
 11
-28.8115
 21
-0.249115
  0
LINE
  8
0
 10
-28.8115
 20
-0.249115
 11
-28.9031
 21
-0.738876
  0
LINE
  8
0
 10
-28.9031
 20
-0.738876
 11
-29.0831
 21
-1.20349
  0
LINE
  8
0
 10
-29.0831
 20
-1.20349
 11
-29.3454
 21
-1.62711
  0
LINE
  8
0
 10
-29.3454
 20
-1.62711
 11
-29.681
 21
-1.99532
  0
LINE
  8
0
 10
-29.681
 20
-1.99532
 11
-30.0786
 21
-2.29558
  0
LINE
  8
0
 10
-30.0786
 20
-2.29558
 11
-30.5246
 21
-2.51767
  0
LINE
  8
0
 10
-30.5246
 20
-2.51767
 11
-31.0039
 21
-2.65402
  0
LINE
  8
0
 10
-31.0039
 20
-2.65402
 11
-31.5
 21
-2.7
  0
LINE
  8
0
 10
-31.5
 20
-2.7
 11
-31.9961
 21
-2.65402
  0
LINE
  8
0
 10
-0.496109
 20
-2.65402
 11
-0.975342
 21
-2.51767
  0
LINE
  8
0
 10
-0.975342
 20
-2.51767
 11
-1.42136
 21
-2.29558
  0
LINE
  8
0
 10
-1.42136
 20
-2.29558
 11
-1.81897
 21
-1.99532
  0
LINE
  8
0
 10
-1.81897
 20
-1.99532
 11
-2.15463
 21
-1.62711
  0
LINE
  8
0
 10
-2.15463
 20
-1.62711
 11
-2.41693
 21
-1.20349
  0
LINE
  8
0
 10
-2.41693
 20
-1.20349
 11
-2.59692
 21
-0.738876
  0
LINE
  8
0
 10
-2.59692
 20
-0.738876
 11
-2.68848
 21
-0.249115
  0
LINE
  8
0
 10
-2.68848
 20
-0.249115
 11
-2.68848
 21
0.249115
  0
LINE
  8
0
 10
-2.68848
 20
0.249115
 11
-2.59692
 21
0.738876
  0
LINE
  8
0
 10
-2.59692
 20
0.738876
 11
-2.41693
 21
1.20349
  0
LINE
  8
0
 10
-2.41693
 20
1.20349
 11
-2.15463
 21
1.62711
  0
LINE
  8
0
 10
-2.15463
 20
1.62711
 11
-1.81897
 21
1.99532
  0
LINE
  8
0
 10
-1.81897
 20
1.99532
 11
-1.42136
 21
2.29558
  0
LINE
  8
0
 10
-1.42136
 20
2.29558
 11
-0.975342
 21
2.51767
  0
LINE
  8
0
 10
-0.975342
 20
2.51767
 11
-0.496109
 21
2.65402
  0
LINE
  8
0
 10
-0.496109
 20
2.65402
 11
0
 21
2.7
  0
LINE
  8
0
 10
0
 20
2.7
 11
0.496109
 21
2.65402
  0
LINE
  8
0
 10
0.496109
 20
2.65402
 11
0.975342
 21
2.51767
  0
LINE
  8
0
 10
0.975342
 20
2.51767
 11
1.42136
 21
2.29558
  0
LINE
  8
0
 10
1.42136
 20
2.29558
 11
1.81897
 21
1.99532
  0
LINE
  8
0
 10
1.81897
 20
1.99532
 11
2.15463
 21
1.62711
  0
LINE
  8
0
 10
2.15463
 20
1.62711
 11
2.41693
 21
1.20349
  0
LINE
  8
0
 10
2.41693
 20
1.20349
 11
2.59692
 21
0.738876
  0
LINE
  8
0
 10
2.59692
 20
0.738876
 11
2.68848
 21
0.249115
  0
LINE
  8
0
 10
2.68848
 20
0.249115
 11
2.68848
 21
-0.249115
  0
LINE
  8
0
 10
2.68848
 20
-0.249115
 11
2.59692
 21
-0.738876
  0
LINE
  8
0
 10
2.59692
 20
-0.738876
 11
2.41693
 21
-1.20349
  0
LINE
  8
0
 10
2.41693
 20
-1.20349
 11
2.15463
 21
-1.62711
  0
LINE
  8
0
 10
2.15463
 20
-1.62711
 11
1.81897
 21
-1.99532
  0
LINE
  8
0
 10
1.81897
 20
-1.99532
 11
1.42136
 21
-2.29558
  0
LINE
  8
0
 10
1.42136
 20
-2.29558
 11
0.975342
 21
-2.51767
  0
LINE
  8
0
 10
0.975342
 20
-2.51767
 11
0.496109
 21
-2.65402
  0
LINE
  8
0
 10
0.496109
 20
-2.65402
 11
0
 21
-2.7
  0
LINE
  8
0
 10
0
 20
-2.7
 11
-0.496109
 21
-2.65402
  0
LINE
  8
0
 10
-34.7
 20
-22.45
 11
-34.7
 21
-7.54999
  0
LINE
  8
0
 10
-34.7
 20
-7.54999
 11
-28.3
 21
-7.54999
  0
LINE
  8
0
 10
-28.3
 20
-7.54999
 11
-28.3
 21
-22.45
  0
LINE
  8
0
 10
-28.3
 20
-22.45
 11
-34.7
 21
-22.45
  0
LINE
  8
0
 10
-3.2
 20
-22.45
 11
-3.2
 21
-7.54999
  0
LINE
  8
0
 10
-3.2
 20
-7.54999
 11
3.2
 21
-7.54999
  0
LINE
  8
0
 10
3.2
 20
-7.54999
 11
3.2
 21
-22.45
  0
LINE
  8
0
 10
3.2
 20
-22.45
 11
-3.2
 21
-22.45
  0
LINE
  8
0
 10
-34.7
 20
-137.45
 11
-34.7
 21
-122.55
  0
LINE
  8
0
 10
-34.7
 20
-122.55
 11
-28.3
 21
-122.55
  0
LINE
  8
0
 10
-28.3
 20
-122.55
 11
-28.3
 21
-137.45
  0
LINE
  8
0
 10
-28.3
 20
-137.45
 11
-34.7
 21
-137.45
  0
LINE
  8
0
 10
-3.2
 20
-137.45
 11
-3.2
 21
-122.55
  0
LINE
  8
0
 10
-3.2
 20
-122.55
 11
3.2
 21
-122.55
  0
LINE
  8
0
 10
3.2
 20
-122.55
 11
3.2
 21
-137.45
  0
LINE
  8
0
 10
3.2
 20
-137.45
 11
-3.2
 21
-137.45
  0
LINE
  8
0
 10
-0.496109
 20
-147.654
 11
-0.975342
 21
-147.518
  0
LINE
  8
0
 10
-0.975342
 20
-147.518
 11
-1.42136
 21
-147.296
  0
LINE
  8
0
 10
-1.42136
 20
-147.296
 11
-1.81897
 21
-146.995
  0
LINE
  8
0
 10
-1.81897
 20
-146.995
 11
-2.15463
 21
-146.627
  0
LINE
  8
0
 10
-2.15463
 20
-146.627
 11
-2.41693
 21
-146.203
  0
LINE
  8
0
 10
-2.41693
 20
-146.203
 11
-2.59692
 21
-145.739
  0
LINE
  8
0
 10
-2.59692
 20
-145.739
 11
-2.68848
 21
-145.249
  0
LINE
  8
0
 10
-2.68848
 20
-145.249
 11
-2.68848
 21
-144.751
  0
LINE
  8
0
 10
-2.68848
 20
-144.751
 11
-2.59692
 21
-144.261
  0
LINE
  8
0
 10
-2.59692
 20
-144.261
 11
-2.41693
 21
-143.797
  0
LINE
  8
0
 10
-2.41693
 20
-143.797
 11
-2.15463
 21
-143.373
  0
LINE
  8
0
 10
-2.15463
 20
-143.373
 11
-1.81897
 21
-143.005
  0
LINE
  8
0
 10
-1.81897
 20
-143.005
 11
-1.42136
 21
-142.704
  0
LINE
  8
0
 10
-1.42136
 20
-142.704
 11
-0.975342
 21
-142.482
  0
LINE
  8
0
 10
-0.975342
 20
-142.482
 11
-0.496109
 21
-142.346
  0
LINE
  8
0
 10
-0.496109
 20
-142.346
 11
0
 21
-142.3
  0
LINE
  8
0
 10
0
 20
-142.3
 11
0.496109
 21
-142.346
  0
LINE
  8
0
 10
0.496109
 20
-142.346
 11
0.975342
 21
-142.482
  0
LINE
  8
0
 10
0.975342
 20
-142.482
 11
1.42136
 21
-142.704
  0
LINE
  8
0
 10
1.42136
 20
-142.704
 11
1.81897
 21
-143.005
  0
LINE
  8
0
 10
1.81897
 20
-143.005
 11
2.15463
 21
-143.373
  0
LINE
  8
0
 10
2.15463
 20
-143.373
 11
2.41693
 21
-143.797
  0
LINE
  8
0
 10
2.41693
 20
-143.797
 11
2.59692
 21
-144.261
  0
LINE
  8
0
 10
2.59692
 20
-144.261
 11
2.68848
 21
-144.751
  0
LINE
  8
0
 10
2.68848
 20
-144.751
 11
2.68848
 21
-145.249
  0
LINE
  8
0
 10
2.68848
 20
-145.249
 11
2.59692
 21
-145.739
  0
LINE
  8
0
 10
2.59692
 20
-145.739
 11
2.41693
 21
-146.203
  0
LINE
  8
0
 10
2.41693
 20
-146.203
 11
2.15463
 21
-146.627
  0
LINE
  8
0
 10
2.15463
 20
-146.627
 11
1.81897
 21
-146.995
  0
LINE
  8
0
 10
1.81897
 20
-146.995
 11
1.42136
 21
-147.296
  0
LINE
  8
0
 10
1.42136
 20
-147.296
 11
0.975342
 21
-147.518
  0
LINE
  8
0
 10
0.975342
 20
-147.518
 11
0.496109
 21
-147.654
  0
LINE
  8
0
 10
0.496109
 20
-147.654
 11
0
 21
-147.7
  0
LINE
  8
0
 10
0
 20
-147.7
 11
-0.496109
 21
-147.654
  0
LINE
  8
0
 10
-31.9961
 20
-147.654
 11
-32.4753
 21
-147.518
  0
LINE
  8
0
 10
-32.4753
 20
-147.518
 11
-32.9214
 21
-147.296
  0
LINE
  8
0
 10
-32.9214
 20
-147.296
 11
-33.319
 21
-146.995
  0
LINE
  8
0
 10
-33.319
 20
-146.995
 11
-33.6546
 21
-146.627
  0
LINE
  8
0
 10
-33.6546
 20
-146.627
 11
-33.9169
 21
-146.203
  0
LINE
  8
0
 10
-33.9169
 20
-146.203
 11
-34.0969
 21
-145.739
  0
LINE
  8
0
 10
-34.0969
 20
-145.739
 11
-34.1885
 21
-145.249
  0
LINE
  8
0
 10
-34.1885
 20
-145.249
 11
-34.1885
 21
-144.751
  0
LINE
  8
0
 10
-34.1885
 20
-144.751
 11
-34.0969
 21
-144.261
  0
LINE
  8
0
 10
-34.0969
 20
-144.261
 11
-33.9169
 21
-143.797
  0
LINE
  8
0
 10
-33.9169
 20
-143.797
 11
-33.6546
 21
-143.373
  0
LINE
  8
0
 10
-33.6546
 20
-143.373
 11
-33.319
 21
-143.005
  0
LINE
  8
0
 10
-33.319
 20
-143.005
 11
-32.9214
 21
-142.704
  0
LINE
  8
0
 10
-32.9214
 20
-142.704
 11
-32.4753
 21
-142.482
  0
LINE
  8
0
 10
-32.4753
 20
-142.482
 11
-31.9961
 21
-142.346
  0
LINE
  8
0
 10
-31.9961
 20
-142.346
 11
-31.5
 21
-142.3
  0
LINE
  8
0
 10
-31.5
 20
-142.3
 11
-31.0039
 21
-142.346
  0
LINE
  8
0
 10
-31.0039
 20
-142.346
 11
-30.5246
 21
-142.482
  0
LINE
  8
0
 10
-30.5246
 20
-142.482
 11
-30.0786
 21
-142.704
  0
LINE
  8
0
 10
-30.0786
 20
-142.704
 11
-29.681
 21
-143.005
  0
LINE
  8
0
 10
-29.681
 20
-143.005
 11
-29.3454
 21
-143.373
  0
LINE
  8
0
 10
-29.3454
 20
-143.373
 11
-29.0831
 21
-143.797
  0
LINE
  8
0
 10
-29.0831
 20
-143.797
 11
-28.9031
 21
-144.261
  0
LINE
  8
0
 10
-28.9031
 20
-144.261
 11
-28.8115
 21
-144.751
  0
LINE
  8
0
 10
-28.8115
 20
-144.751
 11
-28.8115
 21
-145.249
  0
LINE
  8
0
 10
-28.8115
 20
-145.249
 11
-28.9031
 21
-145.739
  0
LINE
  8
0
 10
-28.9031
 20
-145.739
 11
-29.0831
 21
-146.203
  0
LINE
  8
0
 10
-29.0831
 20
-146.203
 11
-29.3454
 21
-146.627
  0
LINE
  8
0
 10
-29.3454
 20
-146.627
 11
-29.681
 21
-146.995
  0
LINE
  8
0
 10
-29.681
 20
-146.995
 11
-30.0786
 21
-147.296
  0
LINE
  8
0
 10
-30.0786
 20
-147.296
 11
-30.5246
 21
-147.518
  0
LINE
  8
0
 10
-30.5246
 20
-147.518
 11
-31.0039
 21
-147.654
  0
LINE
  8
0
 10
-31.0039
 20
-147.654
 11
-31.5
 21
-147.7
  0
LINE
  8
0
 10
-31.5
 20
-147.7
 11
-31.9961
 21
-147.654
  0
LINE
  8
0
 10
-34.7
 20
-167.45
 11
-34.7
 21
-152.55
  0
LINE
  8
0
 10
-34.7
 20
-152.55
 11
-28.3
 21
-152.55
  0
LINE
  8
0
 10
-28.3
 20
-152.55
 11
-28.3
 21
-167.45
  0
LINE
  8
0
 10
-28.3
 20
-167.45
 11
-34.7
 21
-167.45
  0
LINE
  8
0
 10
-3.2
 20
-167.45
 11
-3.2
 21
-152.55
  0
LINE
  8
0
 10
-3.2
 20
-152.55
 11
3.2
 21
-152.55
  0
LINE
  8
0
 10
3.2
 20
-152.55
 11
3.2
 21
-167.45
  0
LINE
  8
0
 10
3.2
 20
-167.45
 11
-3.2
 21
-167.45
  0
LINE
  8
0
 10
-47.4991
 20
-217.688
 11
-47.9889
 21
-217.597
  0
LINE
  8
0
 10
-47.9889
 20
-217.597
 11
-48.4535
 21
-217.417
  0
LINE
  8
0
 10
-48.4535
 20
-217.417
 11
-48.8771
 21
-217.155
  0
LINE
  8
0
 10
-48.8771
 20
-217.155
 11
-49.2453
 21
-216.819
  0
LINE
  8
0
 10
-49.2453
 20
-216.819
 11
-49.5456
 21
-216.421
  0
LINE
  8
0
 10
-49.5456
 20
-216.421
 11
-49.7677
 21
-215.975
  0
LINE
  8
0
 10
-49.7677
 20
-215.975
 11
-49.904
 21
-215.496
  0
LINE
  8
0
 10
-49.904
 20
-215.496
 11
-49.95
 21
-215
  0
LINE
  8
0
 10
-49.95
 20
-215
 11
-49.904
 21
-214.504
  0
LINE
  8
0
 10
-49.904
 20
-214.504
 11
-49.7677
 21
-214.025
  0
LINE
  8
0
 10
-49.7677
 20
-214.025
 11
-49.5456
 21
-213.579
  0
LINE
  8
0
 10
-49.5456
 20
-213.579
 11
-49.2453
 21
-213.181
  0
LINE
  8
0
 10
-49.2453
 20
-213.181
 11
-48.8771
 21
-212.845
  0
LINE
  8
0
 10
-48.8771
 20
-212.845
 11
-48.4535
 21
-212.583
  0
LINE
  8
0
 10
-48.4535
 20
-212.583
 11
-47.9889
 21
-212.403
  0
LINE
  8
0
 10
-47.9889
 20
-212.403
 11
-47.4991
 21
-212.312
  0
LINE
  8
0
 10
-47.4991
 20
-212.312
 11
-47.0009
 21
-212.312
  0
LINE
  8
0
 10
-47.0009
 20
-212.312
 11
-46.5111
 21
-212.403
  0
LINE
  8
0
 10
-46.5111
 20
-212.403
 11
-46.0465
 21
-212.583
  0
LINE
  8
0
 10
-46.0465
 20
-212.583
 11
-45.6229
 21
-212.845
  0
LINE
  8
0
 10
-45.6229
 20
-212.845
 11
-45.2547
 21
-213.181
  0
LINE
  8
0
 10
-45.2547
 20
-213.181
 11
-44.9544
 21
-213.579
  0
LINE
  8
0
 10
-44.9544
 20
-213.579
 11
-44.7323
 21
-214.025
  0
LINE
  8
0
 10
-44.7323
 20
-214.025
 11
-44.596
 21
-214.504
  0
LINE
  8
0
 10
-44.596
 20
-214.504
 11
-44.55
 21
-215
  0
LINE
  8
0
 10
-44.55
 20
-215
 11
-44.596
 21
-215.496
  0
LINE
  8
0
 10
-44.596
 20
-215.496
 11
-44.7323
 21
-215.975
  0
LINE
  8
0
 10
-44.7323
 20
-215.975
 11
-44.9544
 21
-216.421
  0
LINE
  8
0
 10
-44.9544
 20
-216.421
 11
-45.2547
 21
-216.819
  0
LINE
  8
0
 10
-45.2547
 20
-216.819
 11
-45.6229
 21
-217.155
  0
LINE
  8
0
 10
-45.6229
 20
-217.155
 11
-46.0465
 21
-217.417
  0
LINE
  8
0
 10
-46.0465
 20
-217.417
 11
-46.5111
 21
-217.597
  0
LINE
  8
0
 10
-46.5111
 20
-217.597
 11
-47.0009
 21
-217.688
  0
LINE
  8
0
 10
-47.0009
 20
-217.688
 11
-47.4991
 21
-217.688
  0
LINE
  8
0
 10
-9.99911
 20
-217.688
 11
-10.4889
 21
-217.597
  0
LINE
  8
0
 10
-10.4889
 20
-217.597
 11
-10.9535
 21
-217.417
  0
LINE
  8
0
 10
-10.9535
 20
-217.417
 11
-11.3771
 21
-217.155
  0
LINE
  8
0
 10
-11.3771
 20
-217.155
 11
-11.7453
 21
-216.819
  0
LINE
  8
0
 10
-11.7453
 20
-216.819
 11
-12.0456
 21
-216.421
  0
LINE
  8
0
 10
-12.0456
 20
-216.421
 11
-12.2677
 21
-215.975
  0
LINE
  8
0
 10
-12.2677
 20
-215.975
 11
-12.404
 21
-215.496
  0
LINE
  8
0
 10
-12.404
 20
-215.496
 11
-12.45
 21
-215
  0
LINE
  8
0
 10
-12.45
 20
-215
 11
-12.404
 21
-214.504
  0
LINE
  8
0
 10
-12.404
 20
-214.504
 11
-12.2677
 21
-214.025
  0
LINE
  8
0
 10
-12.2677
 20
-214.025
 11
-12.0456
 21
-213.579
  0
LINE
  8
0
 10
-12.0456
 20
-213.579
 11
-11.7453
 21
-213.181
  0
LINE
  8
0
 10
-11.7453
 20
-213.181
 11
-11.3771
 21
-212.845
  0
LINE
  8
0
 10
-11.3771
 20
-212.845
 11
-10.9535
 21
-212.583
  0
LINE
  8
0
 10
-10.9535
 20
-212.583
 11
-10.4889
 21
-212.403
  0
LINE
  8
0
 10
-10.4889
 20
-212.403
 11
-9.99911
 21
-212.312
  0
LINE
  8
0
 10
-9.99911
 20
-212.312
 11
-9.50087
 21
-212.312
  0
LINE
  8
0
 10
-9.50087
 20
-212.312
 11
-9.01111
 21
-212.403
  0
LINE
  8
0
 10
-9.01111
 20
-212.403
 11
-8.54649
 21
-212.583
  0
LINE
  8
0
 10
-8.54649
 20
-212.583
 11
-8.12288
 21
-212.845
  0
LINE
  8
0
 10
-8.12288
 20
-212.845
 11
-7.75467
 21
-213.181
  0
LINE
  8
0
 10
-7.75467
 20
-213.181
 11
-7.45441
 21
-213.579
  0
LINE
  8
0
 10
-7.45441
 20
-213.579
 11
-7.23232
 21
-214.025
  0
LINE
  8
0
 10
-7.23232
 20
-214.025
 11
-7.09596
 21
-214.504
  0
LINE
  8
0
 10
-7.09596
 20
-214.504
 11
-7.04999
 21
-215
  0
LINE
  8
0
 10
-7.04999
 20
-215
 11
-7.09596
 21
-215.496
  0
LINE
  8
0
 10
-7.09596
 20
-215.496
 11
-7.23232
 21
-215.975
  0
LINE
  8
0
 10
-7.23232
 20
-215.975
 11
-7.45441
 21
-216.421
  0
LINE
  8
0
 10
-7.45441
 20
-216.421
 11
-7.75467
 21
-216.819
  0
LINE
  8
0
 10
-7.75467
 20
-216.819
 11
-8.12288
 21
-217.155
  0
LINE
  8
0
 10
-8.12288
 20
-217.155
 11
-8.54649
 21
-217.417
  0
LINE
  8
0
 10
-8.54649
 20
-217.417
 11
-9.01111
 21
-217.597
  0
LINE
  8
0
 10
-9.01111
 20
-217.597
 11
-9.50087
 21
-217.688
  0
LINE
  8
0
 10
-9.50087
 20
-217.688
 11
-9.99911
 21
-217.688
  0
LINE
  8
0
 10
-9.99911
 20
-237.688
 11
-10.4889
 21
-237.597
  0
LINE
  8
0
 10
-10.4889
 20
-237.597
 11
-10.9535
 21
-237.417
  0
LINE
  8
0
 10
-10.9535
 20
-237.417
 11
-11.3771
 21
-237.155
  0
LINE
  8
0
 10
-11.3771
 20
-237.155
 11
-11.7453
 21
-236.819
  0
LINE
  8
0
 10
-11.7453
 20
-236.819
 11
-12.0456
 21
-236.421
  0
LINE
  8
0
 10
-12.0456
 20
-236.421
 11
-12.2677
 21
-235.975
  0
LINE
  8
0
 10
-12.2677
 20
-235.975
 11
-12.404
 21
-235.496
  0
LINE
  8
0
 10
-12.404
 20
-235.496
 11
-12.45
 21
-235
  0
LINE
  8
0
 10
-12.45
 20
-235
 11
-12.404
 21
-234.504
  0
LINE
  8
0
 10
-12.404
 20
-234.504
 11
-12.2677
 21
-234.025
  0
LINE
  8
0
 10
-12.2677
 20
-234.025
 11
-12.0456
 21
-233.579
  0
LINE
  8
0
 10
-12.0456
 20
-233.579
 11
-11.7453
 21
-233.181
  0
LINE
  8
0
 10
-11.7453
 20
-233.181
 11
-11.3771
 21
-232.845
  0
LINE
  8
0
 10
-11.3771
 20
-232.845
 11
-10.9535
 21
-232.583
  0
LINE
  8
0
 10
-10.9535
 20
-232.583
 11
-10.4889
 21
-232.403
  0
LINE
  8
0
 10
-10.4889
 20
-232.403
 11
-9.99911
 21
-232.312
  0
LINE
  8
0
 10
-9.99911
 20
-232.312
 11
-9.50087
 21
-232.312
  0
LINE
  8
0
 10
-9.50087
 20
-232.312
 11
-9.01111
 21
-232.403
  0
LINE
  8
0
 10
-9.01111
 20
-232.403
 11
-8.54649
 21
-232.583
  0
LINE
  8
0
 10
-8.54649
 20
-232.583
 11
-8.12288
 21
-232.845
  0
LINE
  8
0
 10
-8.12288
 20
-232.845
 11
-7.75467
 21
-233.181
  0
LINE
  8
0
 10
-7.75467
 20
-233.181
 11
-7.45441
 21
-233.579
  0
LINE
  8
0
 10
-7.45441
 20
-233.579
 11
-7.23232
 21
-234.025
  0
LINE
  8
0
 10
-7.23232
 20
-234.025
 11
-7.09596
 21
-234.504
  0
LINE
  8
0
 10
-7.09596
 20
-234.504
 11
-7.04999
 21
-235
  0
LINE
  8
0
 10
-7.04999
 20
-235
 11
-7.09596
 21
-235.496
  0
LINE
  8
0
 10
-7.09596
 20
-235.496
 11
-7.23232
 21
-235.975
  0
LINE
  8
0
 10
-7.23232
 20
-235.975
 11
-7.45441
 21
-236.421
  0
LINE
  8
0
 10
-7.45441
 20
-236.421
 11
-7.75467
 21
-236.819
  0
LINE
  8
0
 10
-7.75467
 20
-236.819
 11
-8.12288
 21
-237.155
  0
LINE
  8
0
 10
-8.12288
 20
-237.155
 11
-8.54649
 21
-237.417
  0
LINE
  8
0
 10
-8.54649
 20
-237.417
 11
-9.01111
 21
-237.597
  0
LINE
  8
0
 10
-9.01111
 20
-237.597
 11
-9.50087
 21
-237.688
  0
LINE
  8
0
 10
-9.50087
 20
-237.688
 11
-9.99911
 21
-237.688
  0
LINE
  8
0
 10
-47.4991
 20
-237.688
 11
-47.9889
 21
-237.597
  0
LINE
  8
0
 10
-47.9889
 20
-237.597
 11
-48.4535
 21
-237.417
  0
LINE
  8
0
 10
-48.4535
 20
-237.417
 11
-48.8771
 21
-237.155
  0
LINE
  8
0
 10
-48.8771
 20
-237.155
 11
-49.2453
 21
-236.819
  0
LINE
  8
0
 10
-49.2453
 20
-236.819
 11
-49.5456
 21
-236.421
  0
LINE
  8
0
 10
-49.5456
 20
-236.421
 11
-49.7677
 21
-235.975
  0
LINE
  8
0
 10
-49.7677
 20
-235.975
 11
-49.904
 21
-235.496
  0
LINE
  8
0
 10
-49.904
 20
-235.496
 11
-49.95
 21
-235
  0
LINE
  8
0
 10
-49.95
 20
-235
 11
-49.904
 21
-234.504
  0
LINE
  8
0
 10
-49.904
 20
-234.504
 11
-49.7677
 21
-234.025
  0
LINE
  8
0
 10
-49.7677
 20
-234.025
 11
-49.5456
 21
-233.579
  0
LINE
  8
0
 10
-49.5456
 20
-233.579
 11
-49.2453
 21
-233.181
  0
LINE
  8
0
 10
-49.2453
 20
-233.181
 11
-48.8771
 21
-232.845
  0
LINE
  8
0
 10
-48.8771
 20
-232.845
 11
-48.4535
 21
-232.583
  0
LINE
  8
0
 10
-48.4535
 20
-232.583
 11
-47.9889
 21
-232.403
  0
LINE
  8
0
 10
-47.9889
 20
-232.403
 11
-47.4991
 21
-232.312
  0
LINE
  8
0
 10
-47.4991
 20
-232.312
 11
-47.0009
 21
-232.312
  0
LINE
  8
0
 10
-47.0009
 20
-232.312
 11
-46.5111
 21
-232.403
  0
LINE
  8
0
 10
-46.5111
 20
-232.403
 11
-46.0465
 21
-232.583
  0
LINE
  8
0
 10
-46.0465
 20
-232.583
 11
-45.6229
 21
-232.845
  0
LINE
  8
0
 10
-45.6229
 20
-232.845
 11
-45.2547
 21
-233.181
  0
LINE
  8
0
 10
-45.2547
 20
-233.181
 11
-44.9544
 21
-233.579
  0
LINE
  8
0
 10
-44.9544
 20
-233.579
 11
-44.7323
 21
-234.025
  0
LINE
  8
0
 10
-44.7323
 20
-234.025
 11
-44.596
 21
-234.504
  0
LINE
  8
0
 10
-44.596
 20
-234.504
 11
-44.55
 21
-235
  0
LINE
  8
0
 10
-44.55
 20
-235
 11
-44.596
 21
-235.496
  0
LINE
  8
0
 10
-44.596
 20
-235.496
 11
-44.7323
 21
-235.975
  0
LINE
  8
0
 10
-44.7323
 20
-235.975
 11
-44.9544
 21
-236.421
  0
LINE
  8
0
 10
-44.9544
 20
-236.421
 11
-45.2547
 21
-236.819
  0
LINE
  8
0
 10
-45.2547
 20
-236.819
 11
-45.6229
 21
-237.155
  0
LINE
  8
0
 10
-45.6229
 20
-237.155
 11
-46.0465
 21
-237.417
  0
LINE
  8
0
 10
-46.0465
 20
-237.417
 11
-46.5111
 21
-237.597
  0
LINE
  8
0
 10
-46.5111
 20
-237.597
 11
-47.0009
 21
-237.688
  0
LINE
  8
0
 10
-47.0009
 20
-237.688
 11
-47.4991
 21
-237.688
  0
LINE
  8
0
 10
-17.7
 20
-251.45
 11
-17.7
 21
-245.05
  0
LINE
  8
0
 10
-17.7
 20
-245.05
 11
-2.79999
 21
-245.05
  0
LINE
  8
0
 10
-2.79999
 20
-245.05
 11
-2.79999
 21
-251.45
  0
LINE
  8
0
 10
-2.79999
 20
-251.45
 11
-17.7
 21
-251.45
  0
LINE
  8
0
 10
-47.7
 20
-251.45
 11
-47.7
 21
-245.05
  0
LINE
  8
0
 10
-47.7
 20
-245.05
 11
-32.8
 21
-245.05
  0
LINE
  8
0
 10
-32.8
 20
-245.05
 11
-32.8
 21
-251.45
  0
LINE
  8
0
 10
-32.8
 20
-251.45
 11
-47.7
 21
-251.45
  0
LINE
  8
0
 10
-25.4991
 20
-250.938
 11
-25.9889
 21
-250.847
  0
LINE
  8
0
 10
-25.9889
 20
-250.847
 11
-26.4535
 21
-250.667
  0
LINE
  8
0
 10
-26.4535
 20
-250.667
 11
-26.8771
 21
-250.405
  0
LINE
  8
0
 10
-26.8771
 20
-250.405
 11
-27.2453
 21
-250.069
  0
LINE
  8
0
 10
-27.2453
 20
-250.069
 11
-27.5456
 21
-249.671
  0
LINE
  8
0
 10
-27.5456
 20
-249.671
 11
-27.7677
 21
-249.225
  0
LINE
  8
0
 10
-27.7677
 20
-249.225
 11
-27.904
 21
-248.746
  0
LINE
  8
0
 10
-27.904
 20
-248.746
 11
-27.95
 21
-248.25
  0
LINE
  8
0
 10
-27.95
 20
-248.25
 11
-27.904
 21
-247.754
  0
LINE
  8
0
 10
-27.904
 20
-247.754
 11
-27.7677
 21
-247.275
  0
LINE
  8
0
 10
-27.7677
 20
-247.275
 11
-27.5456
 21
-246.829
  0
LINE
  8
0
 10
-27.5456
 20
-246.829
 11
-27.2453
 21
-246.431
  0
LINE
  8
0
 10
-27.2453
 20
-246.431
 11
-26.8771
 21
-246.095
  0
LINE
  8
0
 10
-26.8771
 20
-246.095
 11
-26.4535
 21
-245.833
  0
LINE
  8
0
 10
-26.4535
 20
-245.833
 11
-25.9889
 21
-245.653
  0
LINE
  8
0
 10
-25.9889
 20
-245.653
 11
-25.4991
 21
-245.562
  0
LINE
  8
0
 10
-25.4991
 20
-245.562
 11
-25.0009
 21
-245.562
  0
LINE
  8
0
 10
-25.0009
 20
-245.562
 11
-24.5111
 21
-245.653
  0
LINE
  8
0
 10
-24.5111
 20
-245.653
 11
-24.0465
 21
-245.833
  0
LINE
  8
0
 10
-24.0465
 20
-245.833
 11
-23.6229
 21
-246.095
  0
LINE
  8
0
 10
-23.6229
 20
-246.095
 11
-23.2547
 21
-246.431
  0
LINE
  8
0
 10
-23.2547
 20
-246.431
 11
-22.9544
 21
-246.829
  0
LINE
  8
0
 10
-22.9544
 20
-246.829
 11
-22.7323
 21
-247.275
  0
LINE
  8
0
 10
-22.7323
 20
-247.275
 11
-22.596
 21
-247.754
  0
LINE
  8
0
 10
-22.596
 20
-247.754
 11
-22.55
 21
-248.25
  0
LINE
  8
0
 10
-22.55
 20
-248.25
 11
-22.596
 21
-248.746
  0
LINE
  8
0
 10
-22.596
 20
-248.746
 11
-22.7323
 21
-249.225
  0
LINE
  8
0
 10
-22.7323
 20
-249.225
 11
-22.9544
 21
-249.671
  0
LINE
  8
0
 10
-22.9544
 20
-249.671
 11
-23.2547
 21
-250.069
  0
LINE
  8
0
 10
-23.2547
 20
-250.069
 11
-23.6229
 21
-250.405
  0
LINE
  8
0
 10
-23.6229
 20
-250.405
 11
-24.0465
 21
-250.667
  0
LINE
  8
0
 10
-24.0465
 20
-250.667
 11
-24.5111
 21
-250.847
  0
LINE
  8
0
 10
-24.5111
 20
-250.847
 11
-25.0009
 21
-250.938
  0
LINE
  8
0
 10
-25.0009
 20
-250.938
 11
-25.4991
 21
-250.938
  0
ENDSEC
  0
SECTION
  2
OBJECTS
  0
DICTIONARY
  0
ENDSEC
  0
EOF
