  0
SECTION
  2
BLOCKS
  0
ENDSEC
  0
SECTION
  2
ENTITIES
  0
LINE
  8
0
 10
-12.588
 11
-12.588
 20
-30.247
 21
-29.753
  0
LINE
  8
0
 10
-12.588
 11
-12.495
 20
-29.753
 21
-29.267
  0
LINE
  8
0
 10
-12.495
 11
-12.311
 20
-29.267
 21
-28.809
  0
LINE
  8
0
 10
-12.311
 11
-12.044
 20
-28.809
 21
-28.393
  0
LINE
  8
0
 10
-12.044
 11
-11.703
 20
-28.393
 21
-28.035
  0
LINE
  8
0
 10
-11.703
 11
-11.3
 20
-28.035
 21
-27.748
  0
LINE
  8
0
 10
-11.3
 11
-10.85
 20
-27.748
 21
-27.543
  0
LINE
  8
0
 10
-10.85
 11
-10.37
 20
-27.543
 21
-27.426
  0
LINE
  8
0
 10
-10.37
 11
-9.876
 20
-27.426
 21
-27.403
  0
LINE
  8
0
 10
-9.876
 11
-9.387
 20
-27.403
 21
-27.473
  0
LINE
  8
0
 10
-9.387
 11
-8.92
 20
-27.473
 21
-27.635
  0
LINE
  8
0
 10
-8.92
 11
-8.492
 20
-27.635
 21
-27.882
  0
LINE
  8
0
 10
-8.492
 11
-8.118
 20
-27.882
 21
-28.206
  0
LINE
  8
0
 10
-8.118
 11
-7.813
 20
-28.206
 21
-28.594
  0
LINE
  8
0
 10
-7.813
 11
-7.586
 20
-28.594
 21
-29.034
  0
LINE
  8
0
 10
-7.586
 11
-7.447
 20
-29.034
 21
-29.508
  0
LINE
  8
0
 10
-7.447
 11
-7.4
 20
-29.508
 21
-30
  0
LINE
  8
0
 10
-7.4
 11
-7.447
 20
-30
 21
-30.492
  0
LINE
  8
0
 10
-7.447
 11
-7.586
 20
-30.492
 21
-30.966
  0
LINE
  8
0
 10
-7.586
 11
-7.813
 20
-30.966
 21
-31.406
  0
LINE
  8
0
 10
-7.813
 11
-8.118
 20
-31.406
 21
-31.794
  0
LINE
  8
0
 10
-8.118
 11
-8.492
 20
-31.794
 21
-32.118
  0
LINE
  8
0
 10
-8.492
 11
-8.92
 20
-32.118
 21
-32.365
  0
LINE
  8
0
 10
-8.92
 11
-9.387
 20
-32.365
 21
-32.527
  0
LINE
  8
0
 10
-9.387
 11
-9.876
 20
-32.527
 21
-32.597
  0
LINE
  8
0
 10
-9.876
 11
-10.37
 20
-32.597
 21
-32.574
  0
LINE
  8
0
 10
-10.37
 11
-10.85
 20
-32.574
 21
-32.457
  0
LINE
  8
0
 10
-10.85
 11
-11.3
 20
-32.457
 21
-32.252
  0
LINE
  8
0
 10
-11.3
 11
-11.703
 20
-32.252
 21
-31.965
  0
LINE
  8
0
 10
-11.703
 11
-12.044
 20
-31.965
 21
-31.607
  0
LINE
  8
0
 10
-12.044
 11
-12.311
 20
-31.607
 21
-31.191
  0
LINE
  8
0
 10
-12.311
 11
-12.495
 20
-31.191
 21
-30.733
  0
LINE
  8
0
 10
-12.495
 11
-12.588
 20
-30.733
 21
-30.247
  0
LINE
  8
0
 10
-12.588
 11
-12.588
 20
-10.247
 21
-9.753
  0
LINE
  8
0
 10
-12.588
 11
-12.495
 20
-9.753
 21
-9.267
  0
LINE
  8
0
 10
-12.495
 11
-12.311
 20
-9.267
 21
-8.809
  0
LINE
  8
0
 10
-12.311
 11
-12.044
 20
-8.809
 21
-8.393
  0
LINE
  8
0
 10
-12.044
 11
-11.703
 20
-8.393
 21
-8.035
  0
LINE
  8
0
 10
-11.703
 11
-11.3
 20
-8.035
 21
-7.748
  0
LINE
  8
0
 10
-11.3
 11
-10.85
 20
-7.748
 21
-7.543
  0
LINE
  8
0
 10
-10.85
 11
-10.37
 20
-7.543
 21
-7.426
  0
LINE
  8
0
 10
-10.37
 11
-9.876
 20
-7.426
 21
-7.403
  0
LINE
  8
0
 10
-9.876
 11
-9.387
 20
-7.403
 21
-7.473
  0
LINE
  8
0
 10
-9.387
 11
-8.92
 20
-7.473
 21
-7.635
  0
LINE
  8
0
 10
-8.92
 11
-8.492
 20
-7.635
 21
-7.882
  0
LINE
  8
0
 10
-8.492
 11
-8.118
 20
-7.882
 21
-8.206
  0
LINE
  8
0
 10
-8.118
 11
-7.813
 20
-8.206
 21
-8.594
  0
LINE
  8
0
 10
-7.813
 11
-7.586
 20
-8.594
 21
-9.034
  0
LINE
  8
0
 10
-7.586
 11
-7.447
 20
-9.034
 21
-9.508
  0
LINE
  8
0
 10
-7.447
 11
-7.4
 20
-9.508
 21
-10
  0
LINE
  8
0
 10
-7.4
 11
-7.447
 20
-10
 21
-10.492
  0
LINE
  8
0
 10
-7.447
 11
-7.586
 20
-10.492
 21
-10.966
  0
LINE
  8
0
 10
-7.586
 11
-7.813
 20
-10.966
 21
-11.406
  0
LINE
  8
0
 10
-7.813
 11
-8.118
 20
-11.406
 21
-11.794
  0
LINE
  8
0
 10
-8.118
 11
-8.492
 20
-11.794
 21
-12.118
  0
LINE
  8
0
 10
-8.492
 11
-8.92
 20
-12.118
 21
-12.365
  0
LINE
  8
0
 10
-8.92
 11
-9.387
 20
-12.365
 21
-12.527
  0
LINE
  8
0
 10
-9.387
 11
-9.876
 20
-12.527
 21
-12.597
  0
LINE
  8
0
 10
-9.876
 11
-10.37
 20
-12.597
 21
-12.574
  0
LINE
  8
0
 10
-10.37
 11
-10.85
 20
-12.574
 21
-12.457
  0
LINE
  8
0
 10
-10.85
 11
-11.3
 20
-12.457
 21
-12.252
  0
LINE
  8
0
 10
-11.3
 11
-11.703
 20
-12.252
 21
-11.965
  0
LINE
  8
0
 10
-11.703
 11
-12.044
 20
-11.965
 21
-11.607
  0
LINE
  8
0
 10
-12.044
 11
-12.311
 20
-11.607
 21
-11.191
  0
LINE
  8
0
 10
-12.311
 11
-12.495
 20
-11.191
 21
-10.733
  0
LINE
  8
0
 10
-12.495
 11
-12.588
 20
-10.733
 21
-10.247
  0
LINE
  8
0
 10
-12.588
 11
-12.588
 20
9.753
 21
10.247
  0
LINE
  8
0
 10
-12.588
 11
-12.495
 20
10.247
 21
10.733
  0
LINE
  8
0
 10
-12.495
 11
-12.311
 20
10.733
 21
11.191
  0
LINE
  8
0
 10
-12.311
 11
-12.044
 20
11.191
 21
11.607
  0
LINE
  8
0
 10
-12.044
 11
-11.703
 20
11.607
 21
11.965
  0
LINE
  8
0
 10
-11.703
 11
-11.3
 20
11.965
 21
12.252
  0
LINE
  8
0
 10
-11.3
 11
-10.85
 20
12.252
 21
12.457
  0
LINE
  8
0
 10
-10.85
 11
-10.37
 20
12.457
 21
12.574
  0
LINE
  8
0
 10
-10.37
 11
-9.876
 20
12.574
 21
12.597
  0
LINE
  8
0
 10
-9.876
 11
-9.387
 20
12.597
 21
12.527
  0
LINE
  8
0
 10
-9.387
 11
-8.92
 20
12.527
 21
12.365
  0
LINE
  8
0
 10
-8.92
 11
-8.492
 20
12.365
 21
12.118
  0
LINE
  8
0
 10
-8.492
 11
-8.118
 20
12.118
 21
11.794
  0
LINE
  8
0
 10
-8.118
 11
-7.813
 20
11.794
 21
11.406
  0
LINE
  8
0
 10
-7.813
 11
-7.586
 20
11.406
 21
10.966
  0
LINE
  8
0
 10
-7.586
 11
-7.447
 20
10.966
 21
10.492
  0
LINE
  8
0
 10
-7.447
 11
-7.4
 20
10.492
 21
10
  0
LINE
  8
0
 10
-7.4
 11
-7.447
 20
10
 21
9.508
  0
LINE
  8
0
 10
-7.447
 11
-7.586
 20
9.508
 21
9.034
  0
LINE
  8
0
 10
-7.586
 11
-7.813
 20
9.034
 21
8.594
  0
LINE
  8
0
 10
-7.813
 11
-8.118
 20
8.594
 21
8.206
  0
LINE
  8
0
 10
-8.118
 11
-8.492
 20
8.206
 21
7.882
  0
LINE
  8
0
 10
-8.492
 11
-8.92
 20
7.882
 21
7.635
  0
LINE
  8
0
 10
-8.92
 11
-9.387
 20
7.635
 21
7.473
  0
LINE
  8
0
 10
-9.387
 11
-9.876
 20
7.473
 21
7.403
  0
LINE
  8
0
 10
-9.876
 11
-10.37
 20
7.403
 21
7.426
  0
LINE
  8
0
 10
-10.37
 11
-10.85
 20
7.426
 21
7.543
  0
LINE
  8
0
 10
-10.85
 11
-11.3
 20
7.543
 21
7.748
  0
LINE
  8
0
 10
-11.3
 11
-11.703
 20
7.748
 21
8.035
  0
LINE
  8
0
 10
-11.703
 11
-12.044
 20
8.035
 21
8.393
  0
LINE
  8
0
 10
-12.044
 11
-12.311
 20
8.393
 21
8.809
  0
LINE
  8
0
 10
-12.311
 11
-12.495
 20
8.809
 21
9.267
  0
LINE
  8
0
 10
-12.495
 11
-12.588
 20
9.267
 21
9.753
  0
LINE
  8
0
 10
-12.588
 11
-12.588
 20
29.753
 21
30.247
  0
LINE
  8
0
 10
-12.588
 11
-12.495
 20
30.247
 21
30.733
  0
LINE
  8
0
 10
-12.495
 11
-12.311
 20
30.733
 21
31.191
  0
LINE
  8
0
 10
-12.311
 11
-12.044
 20
31.191
 21
31.607
  0
LINE
  8
0
 10
-12.044
 11
-11.703
 20
31.607
 21
31.965
  0
LINE
  8
0
 10
-11.703
 11
-11.3
 20
31.965
 21
32.252
  0
LINE
  8
0
 10
-11.3
 11
-10.85
 20
32.252
 21
32.457
  0
LINE
  8
0
 10
-10.85
 11
-10.37
 20
32.457
 21
32.574
  0
LINE
  8
0
 10
-10.37
 11
-9.876
 20
32.574
 21
32.597
  0
LINE
  8
0
 10
-9.876
 11
-9.387
 20
32.597
 21
32.527
  0
LINE
  8
0
 10
-9.387
 11
-8.92
 20
32.527
 21
32.365
  0
LINE
  8
0
 10
-8.92
 11
-8.492
 20
32.365
 21
32.118
  0
LINE
  8
0
 10
-8.492
 11
-8.118
 20
32.118
 21
31.794
  0
LINE
  8
0
 10
-8.118
 11
-7.813
 20
31.794
 21
31.406
  0
LINE
  8
0
 10
-7.813
 11
-7.586
 20
31.406
 21
30.966
  0
LINE
  8
0
 10
-7.586
 11
-7.447
 20
30.966
 21
30.492
  0
LINE
  8
0
 10
-7.447
 11
-7.4
 20
30.492
 21
30
  0
LINE
  8
0
 10
-7.4
 11
-7.447
 20
30
 21
29.508
  0
LINE
  8
0
 10
-7.447
 11
-7.586
 20
29.508
 21
29.034
  0
LINE
  8
0
 10
-7.586
 11
-7.813
 20
29.034
 21
28.594
  0
LINE
  8
0
 10
-7.813
 11
-8.118
 20
28.594
 21
28.206
  0
LINE
  8
0
 10
-8.118
 11
-8.492
 20
28.206
 21
27.882
  0
LINE
  8
0
 10
-8.492
 11
-8.92
 20
27.882
 21
27.635
  0
LINE
  8
0
 10
-8.92
 11
-9.387
 20
27.635
 21
27.473
  0
LINE
  8
0
 10
-9.387
 11
-9.876
 20
27.473
 21
27.403
  0
LINE
  8
0
 10
-9.876
 11
-10.37
 20
27.403
 21
27.426
  0
LINE
  8
0
 10
-10.37
 11
-10.85
 20
27.426
 21
27.543
  0
LINE
  8
0
 10
-10.85
 11
-11.3
 20
27.543
 21
27.748
  0
LINE
  8
0
 10
-11.3
 11
-11.703
 20
27.748
 21
28.035
  0
LINE
  8
0
 10
-11.703
 11
-12.044
 20
28.035
 21
28.393
  0
LINE
  8
0
 10
-12.044
 11
-12.311
 20
28.393
 21
28.809
  0
LINE
  8
0
 10
-12.311
 11
-12.495
 20
28.809
 21
29.267
  0
LINE
  8
0
 10
-12.495
 11
-12.588
 20
29.267
 21
29.753
  0
LINE
  8
0
 10
-19
 11
-19
 20
-60
 21
60
  0
LINE
  8
0
 10
-19
 11
19
 20
60
 21
60
  0
LINE
  8
0
 10
19
 11
19
 20
60
 21
-60
  0
LINE
  8
0
 10
19
 11
-19
 20
-60
 21
-60
  0
LINE
  8
0
 10
7.412
 11
7.412
 20
-30.247
 21
-29.753
  0
LINE
  8
0
 10
7.412
 11
7.505
 20
-29.753
 21
-29.267
  0
LINE
  8
0
 10
7.505
 11
7.689
 20
-29.267
 21
-28.809
  0
LINE
  8
0
 10
7.689
 11
7.956
 20
-28.809
 21
-28.393
  0
LINE
  8
0
 10
7.956
 11
8.297
 20
-28.393
 21
-28.035
  0
LINE
  8
0
 10
8.297
 11
8.7
 20
-28.035
 21
-27.748
  0
LINE
  8
0
 10
8.7
 11
9.15
 20
-27.748
 21
-27.543
  0
LINE
  8
0
 10
9.15
 11
9.63
 20
-27.543
 21
-27.426
  0
LINE
  8
0
 10
9.63
 11
10.124
 20
-27.426
 21
-27.403
  0
LINE
  8
0
 10
10.124
 11
10.613
 20
-27.403
 21
-27.473
  0
LINE
  8
0
 10
10.613
 11
11.08
 20
-27.473
 21
-27.635
  0
LINE
  8
0
 10
11.08
 11
11.508
 20
-27.635
 21
-27.882
  0
LINE
  8
0
 10
11.508
 11
11.882
 20
-27.882
 21
-28.206
  0
LINE
  8
0
 10
11.882
 11
12.187
 20
-28.206
 21
-28.594
  0
LINE
  8
0
 10
12.187
 11
12.414
 20
-28.594
 21
-29.034
  0
LINE
  8
0
 10
12.414
 11
12.553
 20
-29.034
 21
-29.508
  0
LINE
  8
0
 10
12.553
 11
12.6
 20
-29.508
 21
-30
  0
LINE
  8
0
 10
12.6
 11
12.553
 20
-30
 21
-30.492
  0
LINE
  8
0
 10
12.553
 11
12.414
 20
-30.492
 21
-30.966
  0
LINE
  8
0
 10
12.414
 11
12.187
 20
-30.966
 21
-31.406
  0
LINE
  8
0
 10
12.187
 11
11.882
 20
-31.406
 21
-31.794
  0
LINE
  8
0
 10
11.882
 11
11.508
 20
-31.794
 21
-32.118
  0
LINE
  8
0
 10
11.508
 11
11.08
 20
-32.118
 21
-32.365
  0
LINE
  8
0
 10
11.08
 11
10.613
 20
-32.365
 21
-32.527
  0
LINE
  8
0
 10
10.613
 11
10.124
 20
-32.527
 21
-32.597
  0
LINE
  8
0
 10
10.124
 11
9.63
 20
-32.597
 21
-32.574
  0
LINE
  8
0
 10
9.63
 11
9.15
 20
-32.574
 21
-32.457
  0
LINE
  8
0
 10
9.15
 11
8.7
 20
-32.457
 21
-32.252
  0
LINE
  8
0
 10
8.7
 11
8.297
 20
-32.252
 21
-31.965
  0
LINE
  8
0
 10
8.297
 11
7.956
 20
-31.965
 21
-31.607
  0
LINE
  8
0
 10
7.956
 11
7.689
 20
-31.607
 21
-31.191
  0
LINE
  8
0
 10
7.689
 11
7.505
 20
-31.191
 21
-30.733
  0
LINE
  8
0
 10
7.505
 11
7.412
 20
-30.733
 21
-30.247
  0
LINE
  8
0
 10
7.412
 11
7.412
 20
-10.247
 21
-9.753
  0
LINE
  8
0
 10
7.412
 11
7.505
 20
-9.753
 21
-9.267
  0
LINE
  8
0
 10
7.505
 11
7.689
 20
-9.267
 21
-8.809
  0
LINE
  8
0
 10
7.689
 11
7.956
 20
-8.809
 21
-8.393
  0
LINE
  8
0
 10
7.956
 11
8.297
 20
-8.393
 21
-8.035
  0
LINE
  8
0
 10
8.297
 11
8.7
 20
-8.035
 21
-7.748
  0
LINE
  8
0
 10
8.7
 11
9.15
 20
-7.748
 21
-7.543
  0
LINE
  8
0
 10
9.15
 11
9.63
 20
-7.543
 21
-7.426
  0
LINE
  8
0
 10
9.63
 11
10.124
 20
-7.426
 21
-7.403
  0
LINE
  8
0
 10
10.124
 11
10.613
 20
-7.403
 21
-7.473
  0
LINE
  8
0
 10
10.613
 11
11.08
 20
-7.473
 21
-7.635
  0
LINE
  8
0
 10
11.08
 11
11.508
 20
-7.635
 21
-7.882
  0
LINE
  8
0
 10
11.508
 11
11.882
 20
-7.882
 21
-8.206
  0
LINE
  8
0
 10
11.882
 11
12.187
 20
-8.206
 21
-8.594
  0
LINE
  8
0
 10
12.187
 11
12.414
 20
-8.594
 21
-9.034
  0
LINE
  8
0
 10
12.414
 11
12.553
 20
-9.034
 21
-9.508
  0
LINE
  8
0
 10
12.553
 11
12.6
 20
-9.508
 21
-10
  0
LINE
  8
0
 10
12.6
 11
12.553
 20
-10
 21
-10.492
  0
LINE
  8
0
 10
12.553
 11
12.414
 20
-10.492
 21
-10.966
  0
LINE
  8
0
 10
12.414
 11
12.187
 20
-10.966
 21
-11.406
  0
LINE
  8
0
 10
12.187
 11
11.882
 20
-11.406
 21
-11.794
  0
LINE
  8
0
 10
11.882
 11
11.508
 20
-11.794
 21
-12.118
  0
LINE
  8
0
 10
11.508
 11
11.08
 20
-12.118
 21
-12.365
  0
LINE
  8
0
 10
11.08
 11
10.613
 20
-12.365
 21
-12.527
  0
LINE
  8
0
 10
10.613
 11
10.124
 20
-12.527
 21
-12.597
  0
LINE
  8
0
 10
10.124
 11
9.63
 20
-12.597
 21
-12.574
  0
LINE
  8
0
 10
9.63
 11
9.15
 20
-12.574
 21
-12.457
  0
LINE
  8
0
 10
9.15
 11
8.7
 20
-12.457
 21
-12.252
  0
LINE
  8
0
 10
8.7
 11
8.297
 20
-12.252
 21
-11.965
  0
LINE
  8
0
 10
8.297
 11
7.956
 20
-11.965
 21
-11.607
  0
LINE
  8
0
 10
7.956
 11
7.689
 20
-11.607
 21
-11.191
  0
LINE
  8
0
 10
7.689
 11
7.505
 20
-11.191
 21
-10.733
  0
LINE
  8
0
 10
7.505
 11
7.412
 20
-10.733
 21
-10.247
  0
LINE
  8
0
 10
7.412
 11
7.412
 20
9.753
 21
10.247
  0
LINE
  8
0
 10
7.412
 11
7.505
 20
10.247
 21
10.733
  0
LINE
  8
0
 10
7.505
 11
7.689
 20
10.733
 21
11.191
  0
LINE
  8
0
 10
7.689
 11
7.956
 20
11.191
 21
11.607
  0
LINE
  8
0
 10
7.956
 11
8.297
 20
11.607
 21
11.965
  0
LINE
  8
0
 10
8.297
 11
8.7
 20
11.965
 21
12.252
  0
LINE
  8
0
 10
8.7
 11
9.15
 20
12.252
 21
12.457
  0
LINE
  8
0
 10
9.15
 11
9.63
 20
12.457
 21
12.574
  0
LINE
  8
0
 10
9.63
 11
10.124
 20
12.574
 21
12.597
  0
LINE
  8
0
 10
10.124
 11
10.613
 20
12.597
 21
12.527
  0
LINE
  8
0
 10
10.613
 11
11.08
 20
12.527
 21
12.365
  0
LINE
  8
0
 10
11.08
 11
11.508
 20
12.365
 21
12.118
  0
LINE
  8
0
 10
11.508
 11
11.882
 20
12.118
 21
11.794
  0
LINE
  8
0
 10
11.882
 11
12.187
 20
11.794
 21
11.406
  0
LINE
  8
0
 10
12.187
 11
12.414
 20
11.406
 21
10.966
  0
LINE
  8
0
 10
12.414
 11
12.553
 20
10.966
 21
10.492
  0
LINE
  8
0
 10
12.553
 11
12.6
 20
10.492
 21
10
  0
LINE
  8
0
 10
12.6
 11
12.553
 20
10
 21
9.508
  0
LINE
  8
0
 10
12.553
 11
12.414
 20
9.508
 21
9.034
  0
LINE
  8
0
 10
12.414
 11
12.187
 20
9.034
 21
8.594
  0
LINE
  8
0
 10
12.187
 11
11.882
 20
8.594
 21
8.206
  0
LINE
  8
0
 10
11.882
 11
11.508
 20
8.206
 21
7.882
  0
LINE
  8
0
 10
11.508
 11
11.08
 20
7.882
 21
7.635
  0
LINE
  8
0
 10
11.08
 11
10.613
 20
7.635
 21
7.473
  0
LINE
  8
0
 10
10.613
 11
10.124
 20
7.473
 21
7.403
  0
LINE
  8
0
 10
10.124
 11
9.63
 20
7.403
 21
7.426
  0
LINE
  8
0
 10
9.63
 11
9.15
 20
7.426
 21
7.543
  0
LINE
  8
0
 10
9.15
 11
8.7
 20
7.543
 21
7.748
  0
LINE
  8
0
 10
8.7
 11
8.297
 20
7.748
 21
8.035
  0
LINE
  8
0
 10
8.297
 11
7.956
 20
8.035
 21
8.393
  0
LINE
  8
0
 10
7.956
 11
7.689
 20
8.393
 21
8.809
  0
LINE
  8
0
 10
7.689
 11
7.505
 20
8.809
 21
9.267
  0
LINE
  8
0
 10
7.505
 11
7.412
 20
9.267
 21
9.753
  0
LINE
  8
0
 10
7.412
 11
7.412
 20
29.753
 21
30.247
  0
LINE
  8
0
 10
7.412
 11
7.505
 20
30.247
 21
30.733
  0
LINE
  8
0
 10
7.505
 11
7.689
 20
30.733
 21
31.191
  0
LINE
  8
0
 10
7.689
 11
7.956
 20
31.191
 21
31.607
  0
LINE
  8
0
 10
7.956
 11
8.297
 20
31.607
 21
31.965
  0
LINE
  8
0
 10
8.297
 11
8.7
 20
31.965
 21
32.252
  0
LINE
  8
0
 10
8.7
 11
9.15
 20
32.252
 21
32.457
  0
LINE
  8
0
 10
9.15
 11
9.63
 20
32.457
 21
32.574
  0
LINE
  8
0
 10
9.63
 11
10.124
 20
32.574
 21
32.597
  0
LINE
  8
0
 10
10.124
 11
10.613
 20
32.597
 21
32.527
  0
LINE
  8
0
 10
10.613
 11
11.08
 20
32.527
 21
32.365
  0
LINE
  8
0
 10
11.08
 11
11.508
 20
32.365
 21
32.118
  0
LINE
  8
0
 10
11.508
 11
11.882
 20
32.118
 21
31.794
  0
LINE
  8
0
 10
11.882
 11
12.187
 20
31.794
 21
31.406
  0
LINE
  8
0
 10
12.187
 11
12.414
 20
31.406
 21
30.966
  0
LINE
  8
0
 10
12.414
 11
12.553
 20
30.966
 21
30.492
  0
LINE
  8
0
 10
12.553
 11
12.6
 20
30.492
 21
30
  0
LINE
  8
0
 10
12.6
 11
12.553
 20
30
 21
29.508
  0
LINE
  8
0
 10
12.553
 11
12.414
 20
29.508
 21
29.034
  0
LINE
  8
0
 10
12.414
 11
12.187
 20
29.034
 21
28.594
  0
LINE
  8
0
 10
12.187
 11
11.882
 20
28.594
 21
28.206
  0
LINE
  8
0
 10
11.882
 11
11.508
 20
28.206
 21
27.882
  0
LINE
  8
0
 10
11.508
 11
11.08
 20
27.882
 21
27.635
  0
LINE
  8
0
 10
11.08
 11
10.613
 20
27.635
 21
27.473
  0
LINE
  8
0
 10
10.613
 11
10.124
 20
27.473
 21
27.403
  0
LINE
  8
0
 10
10.124
 11
9.63
 20
27.403
 21
27.426
  0
LINE
  8
0
 10
9.63
 11
9.15
 20
27.426
 21
27.543
  0
LINE
  8
0
 10
9.15
 11
8.7
 20
27.543
 21
27.748
  0
LINE
  8
0
 10
8.7
 11
8.297
 20
27.748
 21
28.035
  0
LINE
  8
0
 10
8.297
 11
7.956
 20
28.035
 21
28.393
  0
LINE
  8
0
 10
7.956
 11
7.689
 20
28.393
 21
28.809
  0
LINE
  8
0
 10
7.689
 11
7.505
 20
28.809
 21
29.267
  0
LINE
  8
0
 10
7.505
 11
7.412
 20
29.267
 21
29.753
  0
ENDSEC
  0
SECTION
  2
OBJECTS
  0
DICTIONARY
  0
ENDSEC
  0
EOF
