  0
SECTION
  2
HEADER
  9
$ACADVER
  1
AC1014
  9
$HANDSEED
  5
FFFF
  9
$MEASUREMENT
 70
     1
  0
ENDSEC
  0
SECTION
  2
TABLES
  0
TABLE
  2
VPORT
  5
8
330
0
100
AcDbSymbolTable
 70
     4
  0
VPORT
  5
2E
330
8
100
AcDbSymbolTableRecord
100
AcDbViewportTableRecord
  2
*ACTIVE
 70
     0
 10
0.0
 20
0.0
 11
1.0
 21
1.0
 12
210.0
 22
148.5
 13
0.0
 23
0.0
 14
10.0
 24
10.0
 15
10.0
 25
10.0
 16
0.0
 26
0.0
 36
1.0
 17
0.0
 27
0.0
 37
0.0
 40
341.0
 41
1.24
 42
50.0
 43
0.0
 44
0.0
 50
0.0
 51
0.0
 71
     0
 72
   100
 73
     1
 74
     3
 75
     0
 76
     0
 77
     0
 78
     0
  0
ENDTAB
  0
TABLE
  2
LTYPE
  5
5
330
0
100
AcDbSymbolTable
 70
     1
  0
LTYPE
  5
14
330
5
100
AcDbSymbolTableRecord
100
AcDbLinetypeTableRecord
  2
BYBLOCK
 70
     0
  3

 72
    65
 73
     0
 40
0.0
  0
LTYPE
  5
15
330
5
100
AcDbSymbolTableRecord
100
AcDbLinetypeTableRecord
  2
BYLAYER
 70
     0
  3

 72
    65
 73
     0
 40
0.0
  0
LTYPE
  5
16
330
5
100
AcDbSymbolTableRecord
100
AcDbLinetypeTableRecord
  2
CONTINUOUS
 70
     0
  3
Solid line
 72
    65
 73
     0
 40
0.0
  0
ENDTAB
  0
TABLE
  2
LAYER
  5
2
100
AcDbSymbolTable
 70
2
  0
LAYER
  5
50
100
AcDbSymbolTableRecord
100
AcDbLayerTableRecord
  2
0
 70
0
  6
CONTINUOUS
  0
LAYER
  5
51
100
AcDbSymbolTableRecord
100
AcDbLayerTableRecord
  2
Layer_1
 70
0
  6
CONTINUOUS
  0
ENDTAB
  0
TABLE
  2
STYLE
  5
3
330
0
100
AcDbSymbolTable
 70
     1
  0
STYLE
  5
11
330
3
100
AcDbSymbolTableRecord
100
AcDbTextStyleTableRecord
  2
STANDARD
 70
     0
 40
0.0
 41
1.0
 50
0.0
 71
     0
 42
2.5
  3
txt
  4

  0
ENDTAB
  0
TABLE
  2
VIEW
  5
6
330
0
100
AcDbSymbolTable
 70
     0
  0
ENDTAB
  0
TABLE
  2
UCS
  5
7
330
0
100
AcDbSymbolTable
 70
     0
  0
ENDTAB
  0
TABLE
  2
APPID
  5
9
330
0
100
AcDbSymbolTable
 70
     2
  0
APPID
  5
12
330
9
100
AcDbSymbolTableRecord
100
AcDbRegAppTableRecord
  2
ACAD
 70
     0
  0
ENDTAB
  0
TABLE
  2
DIMSTYLE
  5
A
330
0
100
AcDbSymbolTable
 70
     1
  0
DIMSTYLE
105
27
330
A
100
AcDbSymbolTableRecord
100
AcDbDimStyleTableRecord
  2
ISO-25
 70
     0
  3

  4

  5

  6

  7

 40
1.0
 41
2.5
 42
0.625
 43
3.75
 44
1.25
 45
0.0
 46
0.0
 47
0.0
 48
0.0
140
2.5
141
2.5
142
0.0
143
0.03937007874016
144
1.0
145
0.0
146
1.0
147
0.625
 71
     0
 72
     0
 73
     0
 74
     0
 75
     0
 76
     0
 77
     1
 78
     8
170
     0
171
     3
172
     1
173
     0
174
     0
175
     0
176
     0
177
     0
178
     0
270
     2
271
     2
272
     2
273
     2
274
     3
340
11
275
     0
280
     0
281
     0
282
     0
283
     0
284
     8
285
     0
286
     0
287
     3
288
     0
  0
ENDTAB
  0
TABLE
  2
BLOCK_RECORD
  5
1
330
0
100
AcDbSymbolTable
 70
     1
  0
BLOCK_RECORD
  5
1F
330
1
100
AcDbSymbolTableRecord
100
AcDbBlockTableRecord
  2
*MODEL_SPACE
  0
BLOCK_RECORD
  5
1B
330
1
100
AcDbSymbolTableRecord
100
AcDbBlockTableRecord
  2
*PAPER_SPACE
  0
ENDTAB
  0
ENDSEC
  0
SECTION
  2
BLOCKS
  0
BLOCK
  5
20
330
1F
100
AcDbEntity
  8
0
100
AcDbBlockBegin
  2
*MODEL_SPACE
 70
     0
 10
0.0
 20
0.0
 30
0.0
  3
*MODEL_SPACE
  1

  0
ENDBLK
  5
21
330
1F
100
AcDbEntity
  8
0
100
AcDbBlockEnd
  0
BLOCK
  5
1C
330
1B
100
AcDbEntity
 67
     1
  8
0
100
AcDbBlockBegin
  2
*PAPER_SPACE
  1

  0
ENDBLK
  5
1D
330
1B
100
AcDbEntity
 67
     1
  8
0
100
AcDbBlockEnd
  0
ENDSEC
  0
SECTION
  2
ENTITIES
  0
LWPOLYLINE
  5
100
100
AcDbEntity
  8
Layer_1
 62
7
100
AcDbPolyline
 90
14
 70
0
 10
1867.856480
 20
2019.528084
 30
0.0
 10
1872.250160
 20
2019.528084
 30
0.0
 10
1872.250160
 20
2003.370644
 30
0.0
 10
1867.856480
 20
2003.370644
 30
0.0
 10
1867.856480
 20
1983.811524
 30
0.0
 10
1854.250160
 20
1983.811524
 30
0.0
 10
1854.250160
 20
2003.370644
 30
0.0
 10
1849.856480
 20
2003.370644
 30
0.0
 10
1849.856480
 20
2019.528084
 30
0.0
 10
1854.250160
 20
2019.528084
 30
0.0
 10
1854.250160
 20
2039.087124
 30
0.0
 10
1839.793440
 20
2039.087124
 30
0.0
 10
1839.793440
 20
2052.906084
 30
0.0
 10
1835.187120
 20
2057.512324
 30
0.0
  0
LWPOLYLINE
  5
101
100
AcDbEntity
  8
Layer_1
 62
7
100
AcDbPolyline
 90
6
 70
0
 10
1801.880080
 20
2057.512324
 30
0.0
 10
1797.273760
 20
2052.906084
 30
0.0
 10
1797.273760
 20
2039.087124
 30
0.0
 10
1513.809200
 20
2039.087124
 30
0.0
 10
1513.809200
 20
2052.906084
 30
0.0
 10
1509.202880
 20
2057.512324
 30
0.0
  0
LWPOLYLINE
  5
102
100
AcDbEntity
  8
Layer_1
 62
7
100
AcDbPolyline
 90
18
 70
0
 10
1475.895840
 20
2057.512324
 30
0.0
 10
1471.289520
 20
2052.906084
 30
0.0
 10
1471.289520
 20
2039.087124
 30
0.0
 10
1456.832800
 20
2039.087124
 30
0.0
 10
1456.832800
 20
2019.528084
 30
0.0
 10
1461.226560
 20
2019.528084
 30
0.0
 10
1461.226560
 20
2003.370644
 30
0.0
 10
1456.832800
 20
2003.370644
 30
0.0
 10
1456.832800
 20
1983.811524
 30
0.0
 10
1443.226560
 20
1983.811524
 30
0.0
 10
1443.226560
 20
2003.370644
 30
0.0
 10
1438.832800
 20
2003.370644
 30
0.0
 10
1438.832800
 20
2019.528084
 30
0.0
 10
1443.226560
 20
2019.528084
 30
0.0
 10
1443.226560
 20
2039.087124
 30
0.0
 10
1428.769840
 20
2039.087124
 30
0.0
 10
1428.769840
 20
2052.906084
 30
0.0
 10
1424.163520
 20
2057.512324
 30
0.0
  0
LWPOLYLINE
  5
103
100
AcDbEntity
  8
Layer_1
 62
7
100
AcDbPolyline
 90
6
 70
0
 10
1390.856480
 20
2057.512324
 30
0.0
 10
1386.250160
 20
2052.906084
 30
0.0
 10
1386.250160
 20
2039.087124
 30
0.0
 10
1102.785600
 20
2039.087124
 30
0.0
 10
1102.785600
 20
2052.906084
 30
0.0
 10
1098.179280
 20
2057.512324
 30
0.0
  0
LWPOLYLINE
  5
104
100
AcDbEntity
  8
Layer_1
 62
7
100
AcDbPolyline
 90
18
 70
0
 10
1064.872240
 20
2057.512324
 30
0.0
 10
1060.265920
 20
2052.906084
 30
0.0
 10
1060.265920
 20
2039.087124
 30
0.0
 10
1045.809200
 20
2039.087124
 30
0.0
 10
1045.809200
 20
2019.528084
 30
0.0
 10
1050.202880
 20
2019.528084
 30
0.0
 10
1050.202880
 20
2003.370644
 30
0.0
 10
1045.809200
 20
2003.370644
 30
0.0
 10
1045.809200
 20
1983.811524
 30
0.0
 10
1032.202880
 20
1983.811524
 30
0.0
 10
1032.202880
 20
2003.370644
 30
0.0
 10
1027.809200
 20
2003.370644
 30
0.0
 10
1027.809200
 20
2019.528084
 30
0.0
 10
1032.202880
 20
2019.528084
 30
0.0
 10
1032.202880
 20
2039.087124
 30
0.0
 10
1017.746240
 20
2039.087124
 30
0.0
 10
1017.746240
 20
2052.906084
 30
0.0
 10
1013.139920
 20
2057.512324
 30
0.0
  0
LWPOLYLINE
  5
105
100
AcDbEntity
  8
Layer_1
 62
7
100
AcDbPolyline
 90
13
 70
0
 10
979.832800
 20
2057.512324
 30
0.0
 10
975.226560
 20
2052.906084
 30
0.0
 10
975.226560
 20
2039.087124
 30
0.0
 10
812.234400
 20
2039.087124
 30
0.0
 10
812.234400
 20
2022.787924
 30
0.0
 10
817.903680
 20
2022.787924
 30
0.0
 10
817.903680
 20
1998.693444
 30
0.0
 10
812.234400
 20
1998.693444
 30
0.0
 10
812.234400
 20
1925.701364
 30
0.0
 10
755.541488
 20
1925.701364
 30
0.0
 10
755.541488
 20
1819.402084
 30
0.0
 10
741.722592
 20
1819.402084
 30
0.0
 10
737.116296
 20
1814.795844
 30
0.0
  0
LWPOLYLINE
  5
106
100
AcDbEntity
  8
Layer_1
 62
7
100
AcDbPolyline
 90
18
 70
0
 10
737.116296
 20
1781.488724
 30
0.0
 10
741.722592
 20
1776.882404
 30
0.0
 10
755.541488
 20
1776.882404
 30
0.0
 10
755.541488
 20
1762.425764
 30
0.0
 10
775.100544
 20
1762.425764
 30
0.0
 10
775.100544
 20
1766.819444
 30
0.0
 10
791.258024
 20
1766.819444
 30
0.0
 10
791.258024
 20
1762.425764
 30
0.0
 10
810.817040
 20
1762.425764
 30
0.0
 10
810.817040
 20
1748.819444
 30
0.0
 10
791.258024
 20
1748.819444
 30
0.0
 10
791.258024
 20
1744.425764
 30
0.0
 10
775.100544
 20
1744.425764
 30
0.0
 10
775.100544
 20
1748.819444
 30
0.0
 10
755.541488
 20
1748.819444
 30
0.0
 10
755.541488
 20
1734.362724
 30
0.0
 10
741.722592
 20
1734.362724
 30
0.0
 10
737.116296
 20
1729.756484
 30
0.0
  0
LWPOLYLINE
  5
107
100
AcDbEntity
  8
Layer_1
 62
7
100
AcDbPolyline
 90
6
 70
0
 10
737.116296
 20
1696.449364
 30
0.0
 10
741.722592
 20
1691.843044
 30
0.0
 10
755.541488
 20
1691.843044
 30
0.0
 10
755.541488
 20
1408.378492
 30
0.0
 10
741.722592
 20
1408.378492
 30
0.0
 10
737.116296
 20
1403.772188
 30
0.0
  0
LWPOLYLINE
  5
108
100
AcDbEntity
  8
Layer_1
 62
7
100
AcDbPolyline
 90
18
 70
0
 10
737.116296
 20
1370.465124
 30
0.0
 10
741.722592
 20
1365.858804
 30
0.0
 10
755.541488
 20
1365.858804
 30
0.0
 10
755.541488
 20
1351.402084
 30
0.0
 10
775.100544
 20
1351.402084
 30
0.0
 10
775.100544
 20
1355.795844
 30
0.0
 10
791.258024
 20
1355.795844
 30
0.0
 10
791.258024
 20
1351.402084
 30
0.0
 10
810.817040
 20
1351.402084
 30
0.0
 10
810.817040
 20
1337.795844
 30
0.0
 10
791.258024
 20
1337.795844
 30
0.0
 10
791.258024
 20
1333.402084
 30
0.0
 10
775.100544
 20
1333.402084
 30
0.0
 10
775.100544
 20
1337.795844
 30
0.0
 10
755.541488
 20
1337.795844
 30
0.0
 10
755.541488
 20
1323.339124
 30
0.0
 10
741.722592
 20
1323.339124
 30
0.0
 10
737.116296
 20
1318.732804
 30
0.0
  0
LWPOLYLINE
  5
109
100
AcDbEntity
  8
Layer_1
 62
7
100
AcDbPolyline
 90
6
 70
0
 10
737.116296
 20
1285.425764
 30
0.0
 10
741.722592
 20
1280.819444
 30
0.0
 10
755.541488
 20
1280.819444
 30
0.0
 10
755.541488
 20
997.354884
 30
0.0
 10
741.722592
 20
997.354884
 30
0.0
 10
737.116296
 20
992.748564
 30
0.0
  0
LWPOLYLINE
  5
10a
100
AcDbEntity
  8
Layer_1
 62
7
100
AcDbPolyline
 90
18
 70
0
 10
737.116296
 20
959.441444
 30
0.0
 10
741.722592
 20
954.835204
 30
0.0
 10
755.541488
 20
954.835204
 30
0.0
 10
755.541488
 20
940.378484
 30
0.0
 10
775.100544
 20
940.378484
 30
0.0
 10
775.100544
 20
944.772164
 30
0.0
 10
791.258024
 20
944.772164
 30
0.0
 10
791.258024
 20
940.378484
 30
0.0
 10
810.817040
 20
940.378484
 30
0.0
 10
810.817040
 20
926.772164
 30
0.0
 10
791.258024
 20
926.772164
 30
0.0
 10
791.258024
 20
922.378484
 30
0.0
 10
775.100544
 20
922.378484
 30
0.0
 10
775.100544
 20
926.772164
 30
0.0
 10
755.541488
 20
926.772164
 30
0.0
 10
755.541488
 20
912.315524
 30
0.0
 10
741.722592
 20
912.315524
 30
0.0
 10
737.116296
 20
907.709204
 30
0.0
  0
LWPOLYLINE
  5
10b
100
AcDbEntity
  8
Layer_1
 62
7
100
AcDbPolyline
 90
163
 70
0
 10
737.116296
 20
874.402084
 30
0.0
 10
741.722592
 20
869.795844
 30
0.0
 10
755.541488
 20
869.795844
 30
0.0
 10
755.541488
 20
763.496564
 30
0.0
 10
812.234400
 20
763.496564
 30
0.0
 10
812.234400
 20
650.110804
 30
0.0
 10
975.226560
 20
650.110804
 30
0.0
 10
975.226560
 20
636.291844
 30
0.0
 10
979.832800
 20
631.685604
 30
0.0
 10
1013.139920
 20
631.685604
 30
0.0
 10
1017.746240
 20
636.291844
 30
0.0
 10
1017.746240
 20
650.110804
 30
0.0
 10
1032.202880
 20
650.110804
 30
0.0
 10
1032.202880
 20
669.669844
 30
0.0
 10
1027.809200
 20
669.669844
 30
0.0
 10
1027.809200
 20
685.827284
 30
0.0
 10
1032.202880
 20
685.827284
 30
0.0
 10
1032.202880
 20
705.386324
 30
0.0
 10
1045.809200
 20
705.386324
 30
0.0
 10
1045.809200
 20
685.827284
 30
0.0
 10
1050.202880
 20
685.827284
 30
0.0
 10
1050.202880
 20
669.669844
 30
0.0
 10
1045.809200
 20
669.669844
 30
0.0
 10
1045.809200
 20
650.110804
 30
0.0
 10
1060.265920
 20
650.110804
 30
0.0
 10
1060.265920
 20
636.291844
 30
0.0
 10
1064.872240
 20
631.685604
 30
0.0
 10
1098.179280
 20
631.685604
 30
0.0
 10
1102.785600
 20
636.291844
 30
0.0
 10
1102.785600
 20
650.110804
 30
0.0
 10
1386.250160
 20
650.110804
 30
0.0
 10
1386.250160
 20
636.291844
 30
0.0
 10
1390.856480
 20
631.685604
 30
0.0
 10
1424.163520
 20
631.685604
 30
0.0
 10
1428.769840
 20
636.291844
 30
0.0
 10
1428.769840
 20
650.110804
 30
0.0
 10
1443.226560
 20
650.110804
 30
0.0
 10
1443.226560
 20
669.669844
 30
0.0
 10
1438.832800
 20
669.669844
 30
0.0
 10
1438.832800
 20
685.827284
 30
0.0
 10
1443.226560
 20
685.827284
 30
0.0
 10
1443.226560
 20
705.386324
 30
0.0
 10
1456.832800
 20
705.386324
 30
0.0
 10
1456.832800
 20
685.827284
 30
0.0
 10
1461.226560
 20
685.827284
 30
0.0
 10
1461.226560
 20
669.669844
 30
0.0
 10
1456.832800
 20
669.669844
 30
0.0
 10
1456.832800
 20
650.110804
 30
0.0
 10
1471.289520
 20
650.110804
 30
0.0
 10
1471.289520
 20
636.291844
 30
0.0
 10
1475.895840
 20
631.685604
 30
0.0
 10
1509.202880
 20
631.685604
 30
0.0
 10
1513.809200
 20
636.291844
 30
0.0
 10
1513.809200
 20
650.110804
 30
0.0
 10
1797.273760
 20
650.110804
 30
0.0
 10
1797.273760
 20
636.291844
 30
0.0
 10
1801.880080
 20
631.685604
 30
0.0
 10
1835.187120
 20
631.685604
 30
0.0
 10
1839.793440
 20
636.291844
 30
0.0
 10
1839.793440
 20
650.110804
 30
0.0
 10
1854.250160
 20
650.110804
 30
0.0
 10
1854.250160
 20
669.669844
 30
0.0
 10
1849.856480
 20
669.669844
 30
0.0
 10
1849.856480
 20
685.827284
 30
0.0
 10
1854.250160
 20
685.827284
 30
0.0
 10
1854.250160
 20
705.386324
 30
0.0
 10
1867.856480
 20
705.386324
 30
0.0
 10
1867.856480
 20
685.827284
 30
0.0
 10
1872.250160
 20
685.827284
 30
0.0
 10
1872.250160
 20
669.669844
 30
0.0
 10
1867.856480
 20
669.669844
 30
0.0
 10
1867.856480
 20
650.110804
 30
0.0
 10
1882.313120
 20
650.110804
 30
0.0
 10
1882.313120
 20
636.291844
 30
0.0
 10
1886.919440
 20
631.685604
 30
0.0
 10
1920.226560
 20
631.685604
 30
0.0
 10
1924.832800
 20
636.291844
 30
0.0
 10
1924.832800
 20
650.110804
 30
0.0
 10
2087.824960
 20
650.110804
 30
0.0
 10
2087.824960
 20
763.496564
 30
0.0
 10
2144.517840
 20
763.496564
 30
0.0
 10
2144.517840
 20
869.795844
 30
0.0
 10
2158.336800
 20
869.795844
 30
0.0
 10
2162.943040
 20
874.402084
 30
0.0
 10
2162.943040
 20
907.709204
 30
0.0
 10
2158.336800
 20
912.315524
 30
0.0
 10
2144.517840
 20
912.315524
 30
0.0
 10
2144.517840
 20
926.772164
 30
0.0
 10
2124.958800
 20
926.772164
 30
0.0
 10
2124.958800
 20
922.378484
 30
0.0
 10
2108.801360
 20
922.378484
 30
0.0
 10
2108.801360
 20
926.772164
 30
0.0
 10
2089.242320
 20
926.772164
 30
0.0
 10
2089.242320
 20
940.378484
 30
0.0
 10
2108.801360
 20
940.378484
 30
0.0
 10
2108.801360
 20
944.772164
 30
0.0
 10
2124.958800
 20
944.772164
 30
0.0
 10
2124.958800
 20
940.378484
 30
0.0
 10
2144.517840
 20
940.378484
 30
0.0
 10
2144.517840
 20
954.835204
 30
0.0
 10
2158.336800
 20
954.835204
 30
0.0
 10
2162.943040
 20
959.441444
 30
0.0
 10
2162.943040
 20
992.748564
 30
0.0
 10
2158.336800
 20
997.354884
 30
0.0
 10
2144.517840
 20
997.354884
 30
0.0
 10
2144.517840
 20
1280.819444
 30
0.0
 10
2158.336800
 20
1280.819444
 30
0.0
 10
2162.943040
 20
1285.425764
 30
0.0
 10
2162.943040
 20
1318.732804
 30
0.0
 10
2158.336800
 20
1323.339124
 30
0.0
 10
2144.517840
 20
1323.339124
 30
0.0
 10
2144.517840
 20
1337.795844
 30
0.0
 10
2124.958800
 20
1337.795844
 30
0.0
 10
2124.958800
 20
1333.402084
 30
0.0
 10
2108.801360
 20
1333.402084
 30
0.0
 10
2108.801360
 20
1337.795844
 30
0.0
 10
2089.242320
 20
1337.795844
 30
0.0
 10
2089.242320
 20
1351.402084
 30
0.0
 10
2108.801360
 20
1351.402084
 30
0.0
 10
2108.801360
 20
1355.795844
 30
0.0
 10
2124.958800
 20
1355.795844
 30
0.0
 10
2124.958800
 20
1351.402084
 30
0.0
 10
2144.517840
 20
1351.402084
 30
0.0
 10
2144.517840
 20
1365.858804
 30
0.0
 10
2158.336800
 20
1365.858804
 30
0.0
 10
2162.943040
 20
1370.465124
 30
0.0
 10
2162.943040
 20
1403.772188
 30
0.0
 10
2158.336800
 20
1408.378492
 30
0.0
 10
2144.517840
 20
1408.378492
 30
0.0
 10
2144.517840
 20
1691.843044
 30
0.0
 10
2158.336800
 20
1691.843044
 30
0.0
 10
2162.943040
 20
1696.449364
 30
0.0
 10
2162.943040
 20
1729.756484
 30
0.0
 10
2158.336800
 20
1734.362724
 30
0.0
 10
2144.517840
 20
1734.362724
 30
0.0
 10
2144.517840
 20
1748.819444
 30
0.0
 10
2124.958800
 20
1748.819444
 30
0.0
 10
2124.958800
 20
1744.425764
 30
0.0
 10
2108.801360
 20
1744.425764
 30
0.0
 10
2108.801360
 20
1748.819444
 30
0.0
 10
2089.242320
 20
1748.819444
 30
0.0
 10
2089.242320
 20
1762.425764
 30
0.0
 10
2108.801360
 20
1762.425764
 30
0.0
 10
2108.801360
 20
1766.819444
 30
0.0
 10
2124.958800
 20
1766.819444
 30
0.0
 10
2124.958800
 20
1762.425764
 30
0.0
 10
2144.517840
 20
1762.425764
 30
0.0
 10
2144.517840
 20
1776.882404
 30
0.0
 10
2158.336800
 20
1776.882404
 30
0.0
 10
2162.943040
 20
1781.488724
 30
0.0
 10
2162.943040
 20
1814.795844
 30
0.0
 10
2158.336800
 20
1819.402084
 30
0.0
 10
2144.517840
 20
1819.402084
 30
0.0
 10
2144.517840
 20
1925.701364
 30
0.0
 10
2087.824960
 20
1925.701364
 30
0.0
 10
2087.824960
 20
1998.693444
 30
0.0
 10
2082.155680
 20
1998.693444
 30
0.0
 10
2082.155680
 20
2022.787924
 30
0.0
 10
2087.824960
 20
2022.787924
 30
0.0
 10
2087.824960
 20
2039.087124
 30
0.0
 10
1924.832800
 20
2039.087124
 30
0.0
 10
1924.832800
 20
2052.906084
 30
0.0
 10
1920.226560
 20
2057.512324
 30
0.0
  0
LWPOLYLINE
  5
10c
100
AcDbEntity
  8
Layer_1
 62
7
100
AcDbPolyline
 90
5
 70
0
 10
1886.919440
 20
2057.512324
 30
0.0
 10
1882.313120
 20
2052.906084
 30
0.0
 10
1882.313120
 20
2039.087124
 30
0.0
 10
1867.856480
 20
2039.087124
 30
0.0
 10
1867.856480
 20
2019.528084
 30
0.0
  0
LWPOLYLINE
  5
10d
100
AcDbEntity
  8
Layer_1
 62
7
100
AcDbPolyline
 90
5
 70
0
 10
2045.305280
 20
1998.693444
 30
0.0
 10
2045.305280
 20
2022.787924
 30
0.0
 10
2056.643840
 20
2022.787924
 30
0.0
 10
2056.643840
 20
1998.693444
 30
0.0
 10
2045.305280
 20
1998.693444
 30
0.0
  0
LWPOLYLINE
  5
10e
100
AcDbEntity
  8
Layer_1
 62
7
100
AcDbPolyline
 90
5
 70
0
 10
843.415520
 20
1998.693444
 30
0.0
 10
843.415520
 20
2022.787924
 30
0.0
 10
854.754080
 20
2022.787924
 30
0.0
 10
854.754080
 20
1998.693444
 30
0.0
 10
843.415520
 20
1998.693444
 30
0.0
  0
LWPOLYLINE
  5
10f
100
AcDbEntity
  8
Layer_1
 62
7
100
AcDbPolyline
 90
23
 70
0
 10
1218.112000
 20
1888.196164
 30
0.0
 10
1216.795920
 20
1888.584484
 30
0.0
 10
1215.641920
 20
1889.324324
 30
0.0
 10
1214.743920
 20
1890.361764
 30
0.0
 10
1214.174160
 20
1891.609044
 30
0.0
 10
1213.978800
 20
1892.966804
 30
0.0
 10
1214.174160
 20
1894.324644
 30
0.0
 10
1214.743920
 20
1895.571844
 30
0.0
 10
1215.641920
 20
1896.609364
 30
0.0
 10
1216.795920
 20
1897.349204
 30
0.0
 10
1218.112000
 20
1897.737524
 30
0.0
 10
1219.483440
 20
1897.737524
 30
0.0
 10
1220.799520
 20
1897.349204
 30
0.0
 10
1221.953520
 20
1896.609364
 30
0.0
 10
1222.851520
 20
1895.571844
 30
0.0
 10
1223.421280
 20
1894.324644
 30
0.0
 10
1223.616640
 20
1892.966804
 30
0.0
 10
1223.421280
 20
1891.609044
 30
0.0
 10
1222.851520
 20
1890.361764
 30
0.0
 10
1221.953520
 20
1889.324324
 30
0.0
 10
1220.799520
 20
1888.584484
 30
0.0
 10
1219.483440
 20
1888.196164
 30
0.0
 10
1218.112000
 20
1888.196164
 30
0.0
  0
LWPOLYLINE
  5
110
100
AcDbEntity
  8
Layer_1
 62
7
100
AcDbPolyline
 90
23
 70
0
 10
1446.509280
 20
1885.497524
 30
0.0
 10
1445.193200
 20
1885.885924
 30
0.0
 10
1444.039360
 20
1886.625764
 30
0.0
 10
1443.141120
 20
1887.663204
 30
0.0
 10
1442.571360
 20
1888.910484
 30
0.0
 10
1442.376160
 20
1890.268244
 30
0.0
 10
1442.571360
 20
1891.626084
 30
0.0
 10
1443.141120
 20
1892.873284
 30
0.0
 10
1444.039360
 20
1893.910804
 30
0.0
 10
1445.193200
 20
1894.650644
 30
0.0
 10
1446.509280
 20
1895.038964
 30
0.0
 10
1447.880880
 20
1895.038964
 30
0.0
 10
1449.196880
 20
1894.650644
 30
0.0
 10
1450.350720
 20
1893.910804
 30
0.0
 10
1451.248960
 20
1892.873284
 30
0.0
 10
1451.818720
 20
1891.626084
 30
0.0
 10
1452.013920
 20
1890.268244
 30
0.0
 10
1451.818720
 20
1888.910484
 30
0.0
 10
1451.248960
 20
1887.663204
 30
0.0
 10
1450.350720
 20
1886.625764
 30
0.0
 10
1449.196880
 20
1885.885924
 30
0.0
 10
1447.880880
 20
1885.497524
 30
0.0
 10
1446.509280
 20
1885.497524
 30
0.0
  0
LWPOLYLINE
  5
111
100
AcDbEntity
  8
Layer_1
 62
7
100
AcDbPolyline
 90
23
 70
0
 10
1707.296720
 20
1885.497524
 30
0.0
 10
1705.980640
 20
1885.885924
 30
0.0
 10
1704.826640
 20
1886.625764
 30
0.0
 10
1703.928640
 20
1887.663204
 30
0.0
 10
1703.358880
 20
1888.910484
 30
0.0
 10
1703.163520
 20
1890.268244
 30
0.0
 10
1703.358880
 20
1891.626084
 30
0.0
 10
1703.928640
 20
1892.873284
 30
0.0
 10
1704.826640
 20
1893.910804
 30
0.0
 10
1705.980640
 20
1894.650644
 30
0.0
 10
1707.296720
 20
1895.038964
 30
0.0
 10
1708.668160
 20
1895.038964
 30
0.0
 10
1709.984240
 20
1894.650644
 30
0.0
 10
1711.138240
 20
1893.910804
 30
0.0
 10
1712.036240
 20
1892.873284
 30
0.0
 10
1712.606000
 20
1891.626084
 30
0.0
 10
1712.801360
 20
1890.268244
 30
0.0
 10
1712.606000
 20
1888.910484
 30
0.0
 10
1712.036240
 20
1887.663204
 30
0.0
 10
1711.138240
 20
1886.625764
 30
0.0
 10
1709.984240
 20
1885.885924
 30
0.0
 10
1708.668160
 20
1885.497524
 30
0.0
 10
1707.296720
 20
1885.497524
 30
0.0
  0
LWPOLYLINE
  5
112
100
AcDbEntity
  8
Layer_1
 62
7
100
AcDbPolyline
 90
23
 70
0
 10
1391.813440
 20
1885.497524
 30
0.0
 10
1390.497280
 20
1885.885924
 30
0.0
 10
1389.343280
 20
1886.625764
 30
0.0
 10
1388.445280
 20
1887.663204
 30
0.0
 10
1387.875520
 20
1888.910484
 30
0.0
 10
1387.680240
 20
1890.268244
 30
0.0
 10
1387.875520
 20
1891.626084
 30
0.0
 10
1388.445280
 20
1892.873284
 30
0.0
 10
1389.343280
 20
1893.910804
 30
0.0
 10
1390.497280
 20
1894.650644
 30
0.0
 10
1391.813440
 20
1895.038964
 30
0.0
 10
1393.184800
 20
1895.038964
 30
0.0
 10
1394.500960
 20
1894.650644
 30
0.0
 10
1395.654960
 20
1893.910804
 30
0.0
 10
1396.552960
 20
1892.873284
 30
0.0
 10
1397.122720
 20
1891.626084
 30
0.0
 10
1397.318000
 20
1890.268244
 30
0.0
 10
1397.122720
 20
1888.910484
 30
0.0
 10
1396.552960
 20
1887.663204
 30
0.0
 10
1395.654960
 20
1886.625764
 30
0.0
 10
1394.500960
 20
1885.885924
 30
0.0
 10
1393.184800
 20
1885.497524
 30
0.0
 10
1391.813440
 20
1885.497524
 30
0.0
  0
LWPOLYLINE
  5
113
100
AcDbEntity
  8
Layer_1
 62
7
100
AcDbPolyline
 90
5
 70
0
 10
1758.405120
 20
1881.276724
 30
0.0
 10
1771.234720
 20
1894.103524
 30
0.0
 10
1847.200400
 20
1818.137844
 30
0.0
 10
1834.373600
 20
1805.308244
 30
0.0
 10
1758.405120
 20
1881.276724
 30
0.0
  0
LWPOLYLINE
  5
114
100
AcDbEntity
  8
Layer_1
 62
7
100
AcDbPolyline
 90
5
 70
0
 10
1052.858960
 20
1818.137844
 30
0.0
 10
1128.824640
 20
1894.103524
 30
0.0
 10
1141.654240
 20
1881.276724
 30
0.0
 10
1065.685760
 20
1805.308244
 30
0.0
 10
1052.858960
 20
1818.137844
 30
0.0
  0
LWPOLYLINE
  5
115
100
AcDbEntity
  8
Layer_1
 62
7
100
AcDbPolyline
 90
5
 70
0
 10
1910.738960
 20
1728.942884
 30
0.0
 10
1923.568560
 20
1741.769684
 30
0.0
 10
1999.534240
 20
1665.804004
 30
0.0
 10
1986.707440
 20
1652.974404
 30
0.0
 10
1910.738960
 20
1728.942884
 30
0.0
  0
LWPOLYLINE
  5
116
100
AcDbEntity
  8
Layer_1
 62
7
100
AcDbPolyline
 90
5
 70
0
 10
900.525120
 20
1665.804004
 30
0.0
 10
976.490800
 20
1741.769684
 30
0.0
 10
989.320400
 20
1728.942884
 30
0.0
 10
913.351920
 20
1652.974404
 30
0.0
 10
900.525120
 20
1665.804004
 30
0.0
  0
LWPOLYLINE
  5
117
100
AcDbEntity
  8
Layer_1
 62
7
100
AcDbPolyline
 90
23
 70
0
 10
1707.296720
 20
1559.514140
 30
0.0
 10
1705.980640
 20
1559.900500
 30
0.0
 10
1704.826640
 20
1560.642044
 30
0.0
 10
1703.928640
 20
1561.678676
 30
0.0
 10
1703.358880
 20
1562.926484
 30
0.0
 10
1703.163520
 20
1564.283996
 30
0.0
 10
1703.358880
 20
1565.641508
 30
0.0
 10
1703.928640
 20
1566.889324
 30
0.0
 10
1704.826640
 20
1567.925948
 30
0.0
 10
1705.980640
 20
1568.667500
 30
0.0
 10
1707.296720
 20
1569.053860
 30
0.0
 10
1708.668160
 20
1569.053860
 30
0.0
 10
1709.984240
 20
1568.667500
 30
0.0
 10
1711.138240
 20
1567.925948
 30
0.0
 10
1712.036240
 20
1566.889324
 30
0.0
 10
1712.606000
 20
1565.641508
 30
0.0
 10
1712.801360
 20
1564.283996
 30
0.0
 10
1712.606000
 20
1562.926484
 30
0.0
 10
1712.036240
 20
1561.678676
 30
0.0
 10
1711.138240
 20
1560.642044
 30
0.0
 10
1709.984240
 20
1559.900500
 30
0.0
 10
1708.668160
 20
1559.514140
 30
0.0
 10
1707.296720
 20
1559.514140
 30
0.0
  0
LWPOLYLINE
  5
118
100
AcDbEntity
  8
Layer_1
 62
7
100
AcDbPolyline
 90
23
 70
0
 10
1391.813440
 20
1559.514140
 30
0.0
 10
1390.497280
 20
1559.900500
 30
0.0
 10
1389.343280
 20
1560.642044
 30
0.0
 10
1388.445280
 20
1561.678676
 30
0.0
 10
1387.875520
 20
1562.926484
 30
0.0
 10
1387.680240
 20
1564.283996
 30
0.0
 10
1387.875520
 20
1565.641508
 30
0.0
 10
1388.445280
 20
1566.889324
 30
0.0
 10
1389.343280
 20
1567.925948
 30
0.0
 10
1390.497280
 20
1568.667500
 30
0.0
 10
1391.813440
 20
1569.053860
 30
0.0
 10
1393.184800
 20
1569.053860
 30
0.0
 10
1394.500960
 20
1568.667500
 30
0.0
 10
1395.654960
 20
1567.925948
 30
0.0
 10
1396.552960
 20
1566.889324
 30
0.0
 10
1397.122720
 20
1565.641508
 30
0.0
 10
1397.318000
 20
1564.283996
 30
0.0
 10
1397.122720
 20
1562.926484
 30
0.0
 10
1396.552960
 20
1561.678676
 30
0.0
 10
1395.654960
 20
1560.642044
 30
0.0
 10
1394.500960
 20
1559.900500
 30
0.0
 10
1393.184800
 20
1559.514140
 30
0.0
 10
1391.813440
 20
1559.514140
 30
0.0
  0
LWPOLYLINE
  5
119
100
AcDbEntity
  8
Layer_1
 62
7
100
AcDbPolyline
 90
23
 70
0
 10
1446.509280
 20
1559.514140
 30
0.0
 10
1445.193200
 20
1559.900500
 30
0.0
 10
1444.039360
 20
1560.642044
 30
0.0
 10
1443.141120
 20
1561.678676
 30
0.0
 10
1442.571360
 20
1562.926484
 30
0.0
 10
1442.376160
 20
1564.283996
 30
0.0
 10
1442.571360
 20
1565.641508
 30
0.0
 10
1443.141120
 20
1566.889324
 30
0.0
 10
1444.039360
 20
1567.925948
 30
0.0
 10
1445.193200
 20
1568.667500
 30
0.0
 10
1446.509280
 20
1569.053860
 30
0.0
 10
1447.880880
 20
1569.053860
 30
0.0
 10
1449.196880
 20
1568.667500
 30
0.0
 10
1450.350720
 20
1567.925948
 30
0.0
 10
1451.248960
 20
1566.889324
 30
0.0
 10
1451.818720
 20
1565.641508
 30
0.0
 10
1452.013920
 20
1564.283996
 30
0.0
 10
1451.818720
 20
1562.926484
 30
0.0
 10
1451.248960
 20
1561.678676
 30
0.0
 10
1450.350720
 20
1560.642044
 30
0.0
 10
1449.196880
 20
1559.900500
 30
0.0
 10
1447.880880
 20
1559.514140
 30
0.0
 10
1446.509280
 20
1559.514140
 30
0.0
  0
LWPOLYLINE
  5
11a
100
AcDbEntity
  8
Layer_1
 62
7
100
AcDbPolyline
 90
23
 70
0
 10
1218.112000
 20
1556.815556
 30
0.0
 10
1216.795920
 20
1557.201924
 30
0.0
 10
1215.641920
 20
1557.943468
 30
0.0
 10
1214.743920
 20
1558.980092
 30
0.0
 10
1214.174160
 20
1560.227620
 30
0.0
 10
1213.978800
 20
1561.585420
 30
0.0
 10
1214.174160
 20
1562.942932
 30
0.0
 10
1214.743920
 20
1564.190740
 30
0.0
 10
1215.641920
 20
1565.227372
 30
0.0
 10
1216.795920
 20
1565.968916
 30
0.0
 10
1218.112000
 20
1566.355276
 30
0.0
 10
1219.483440
 20
1566.355276
 30
0.0
 10
1220.799520
 20
1565.968916
 30
0.0
 10
1221.953520
 20
1565.227372
 30
0.0
 10
1222.851520
 20
1564.190740
 30
0.0
 10
1223.421280
 20
1562.942932
 30
0.0
 10
1223.616640
 20
1561.585420
 30
0.0
 10
1223.421280
 20
1560.227620
 30
0.0
 10
1222.851520
 20
1558.980092
 30
0.0
 10
1221.953520
 20
1557.943468
 30
0.0
 10
1220.799520
 20
1557.201924
 30
0.0
 10
1219.483440
 20
1556.815556
 30
0.0
 10
1218.112000
 20
1556.815556
 30
0.0
  0
LWPOLYLINE
  5
11b
100
AcDbEntity
  8
Layer_1
 62
7
100
AcDbPolyline
 90
29
 70
0
 10
1356.516160
 20
1409.385068
 30
0.0
 10
1355.198000
 20
1409.846548
 30
0.0
 10
1354.015440
 20
1410.589508
 30
0.0
 10
1353.028080
 20
1411.576820
 30
0.0
 10
1352.285120
 20
1412.759436
 30
0.0
 10
1351.823920
 20
1414.077540
 30
0.0
 10
1351.667440
 20
1415.465100
 30
0.0
 10
1351.823920
 20
1416.852660
 30
0.0
 10
1352.285120
 20
1418.170772
 30
0.0
 10
1353.028080
 20
1419.353388
 30
0.0
 10
1354.015440
 20
1420.340692
 30
0.0
 10
1355.198000
 20
1421.083652
 30
0.0
 10
1356.516160
 20
1421.544852
 30
0.0
 10
1357.903680
 20
1421.701324
 30
0.0
 10
1359.291280
 20
1421.544852
 30
0.0
 10
1360.609360
 20
1421.083652
 30
0.0
 10
1361.792000
 20
1420.340692
 30
0.0
 10
1362.779280
 20
1419.353388
 30
0.0
 10
1363.522240
 20
1418.170772
 30
0.0
 10
1363.983760
 20
1416.852660
 30
0.0
 10
1364.139920
 20
1415.465100
 30
0.0
 10
1363.983760
 20
1414.077540
 30
0.0
 10
1363.522240
 20
1412.759436
 30
0.0
 10
1362.779280
 20
1411.576820
 30
0.0
 10
1361.792000
 20
1410.589508
 30
0.0
 10
1360.609360
 20
1409.846548
 30
0.0
 10
1359.291280
 20
1409.385068
 30
0.0
 10
1357.903680
 20
1409.228884
 30
0.0
 10
1356.516160
 20
1409.385068
 30
0.0
  0
LWPOLYLINE
  5
11c
100
AcDbEntity
  8
Layer_1
 62
7
100
AcDbPolyline
 90
29
 70
0
 10
1214.783840
 20
1409.385068
 30
0.0
 10
1213.465760
 20
1409.846548
 30
0.0
 10
1212.283120
 20
1410.589508
 30
0.0
 10
1211.295840
 20
1411.576820
 30
0.0
 10
1210.552880
 20
1412.759436
 30
0.0
 10
1210.091680
 20
1414.077540
 30
0.0
 10
1209.935200
 20
1415.465100
 30
0.0
 10
1210.091680
 20
1416.852660
 30
0.0
 10
1210.552880
 20
1418.170772
 30
0.0
 10
1211.295840
 20
1419.353388
 30
0.0
 10
1212.283120
 20
1420.340692
 30
0.0
 10
1213.465760
 20
1421.083652
 30
0.0
 10
1214.783840
 20
1421.544852
 30
0.0
 10
1216.171440
 20
1421.701324
 30
0.0
 10
1217.558960
 20
1421.544852
 30
0.0
 10
1218.877120
 20
1421.083652
 30
0.0
 10
1220.059680
 20
1420.340692
 30
0.0
 10
1221.047040
 20
1419.353388
 30
0.0
 10
1221.790000
 20
1418.170772
 30
0.0
 10
1222.251440
 20
1416.852660
 30
0.0
 10
1222.407600
 20
1415.465100
 30
0.0
 10
1222.251440
 20
1414.077540
 30
0.0
 10
1221.790000
 20
1412.759436
 30
0.0
 10
1221.047040
 20
1411.576820
 30
0.0
 10
1220.059680
 20
1410.589508
 30
0.0
 10
1218.877120
 20
1409.846548
 30
0.0
 10
1217.558960
 20
1409.385068
 30
0.0
 10
1216.171440
 20
1409.228884
 30
0.0
 10
1214.783840
 20
1409.385068
 30
0.0
  0
LWPOLYLINE
  5
11d
100
AcDbEntity
  8
Layer_1
 62
7
100
AcDbPolyline
 90
8
 70
0
 10
1437.260080
 20
1338.449444
 30
0.0
 10
1437.260080
 20
1350.748484
 30
0.0
 10
1446.875920
 20
1358.416804
 30
0.0
 10
1458.866560
 20
1355.680004
 30
0.0
 10
1464.202880
 20
1344.598964
 30
0.0
 10
1458.866560
 20
1333.517924
 30
0.0
 10
1446.875920
 20
1330.781124
 30
0.0
 10
1437.260080
 20
1338.449444
 30
0.0
  0
LWPOLYLINE
  5
11e
100
AcDbEntity
  8
Layer_1
 62
7
100
AcDbPolyline
 90
29
 70
0
 10
1703.760240
 20
1073.479844
 30
0.0
 10
1702.442160
 20
1073.941044
 30
0.0
 10
1701.259520
 20
1074.684004
 30
0.0
 10
1700.272240
 20
1075.671284
 30
0.0
 10
1699.529200
 20
1076.853924
 30
0.0
 10
1699.067760
 20
1078.172004
 30
0.0
 10
1698.911600
 20
1079.559604
 30
0.0
 10
1699.067760
 20
1080.947124
 30
0.0
 10
1699.529200
 20
1082.265284
 30
0.0
 10
1700.272240
 20
1083.447844
 30
0.0
 10
1701.259520
 20
1084.435204
 30
0.0
 10
1702.442160
 20
1085.178164
 30
0.0
 10
1703.760240
 20
1085.639604
 30
0.0
 10
1705.147760
 20
1085.795844
 30
0.0
 10
1706.535360
 20
1085.639604
 30
0.0
 10
1707.853440
 20
1085.178164
 30
0.0
 10
1709.036080
 20
1084.435204
 30
0.0
 10
1710.023360
 20
1083.447844
 30
0.0
 10
1710.766320
 20
1082.265284
 30
0.0
 10
1711.227520
 20
1080.947124
 30
0.0
 10
1711.384000
 20
1079.559604
 30
0.0
 10
1711.227520
 20
1078.172004
 30
0.0
 10
1710.766320
 20
1076.853924
 30
0.0
 10
1710.023360
 20
1075.671284
 30
0.0
 10
1709.036080
 20
1074.684004
 30
0.0
 10
1707.853440
 20
1073.941044
 30
0.0
 10
1706.535360
 20
1073.479844
 30
0.0
 10
1705.147760
 20
1073.323364
 30
0.0
 10
1703.760240
 20
1073.479844
 30
0.0
  0
LWPOLYLINE
  5
11f
100
AcDbEntity
  8
Layer_1
 62
7
100
AcDbPolyline
 90
29
 70
0
 10
1547.854720
 20
1073.479844
 30
0.0
 10
1546.536640
 20
1073.941044
 30
0.0
 10
1545.354000
 20
1074.684004
 30
0.0
 10
1544.366720
 20
1075.671284
 30
0.0
 10
1543.623760
 20
1076.853924
 30
0.0
 10
1543.162240
 20
1078.172004
 30
0.0
 10
1543.006080
 20
1079.559604
 30
0.0
 10
1543.162240
 20
1080.947124
 30
0.0
 10
1543.623760
 20
1082.265284
 30
0.0
 10
1544.366720
 20
1083.447844
 30
0.0
 10
1545.354000
 20
1084.435204
 30
0.0
 10
1546.536640
 20
1085.178164
 30
0.0
 10
1547.854720
 20
1085.639604
 30
0.0
 10
1549.242320
 20
1085.795844
 30
0.0
 10
1550.629840
 20
1085.639604
 30
0.0
 10
1551.947920
 20
1085.178164
 30
0.0
 10
1553.130560
 20
1084.435204
 30
0.0
 10
1554.117840
 20
1083.447844
 30
0.0
 10
1554.860800
 20
1082.265284
 30
0.0
 10
1555.322000
 20
1080.947124
 30
0.0
 10
1555.478480
 20
1079.559604
 30
0.0
 10
1555.322000
 20
1078.172004
 30
0.0
 10
1554.860800
 20
1076.853924
 30
0.0
 10
1554.117840
 20
1075.671284
 30
0.0
 10
1553.130560
 20
1074.684004
 30
0.0
 10
1551.947920
 20
1073.941044
 30
0.0
 10
1550.629840
 20
1073.479844
 30
0.0
 10
1549.242320
 20
1073.323364
 30
0.0
 10
1547.854720
 20
1073.479844
 30
0.0
  0
LWPOLYLINE
  5
120
100
AcDbEntity
  8
Layer_1
 62
7
100
AcDbPolyline
 90
5
 70
0
 10
1910.738960
 20
960.255044
 30
0.0
 10
1986.707440
 20
1036.223524
 30
0.0
 10
1999.534240
 20
1023.393924
 30
0.0
 10
1923.568560
 20
947.428244
 30
0.0
 10
1910.738960
 20
960.255044
 30
0.0
  0
LWPOLYLINE
  5
121
100
AcDbEntity
  8
Layer_1
 62
7
100
AcDbPolyline
 90
5
 70
0
 10
900.525120
 20
1023.393924
 30
0.0
 10
913.351920
 20
1036.223524
 30
0.0
 10
989.320400
 20
960.255044
 30
0.0
 10
976.490800
 20
947.428244
 30
0.0
 10
900.525120
 20
1023.393924
 30
0.0
  0
LWPOLYLINE
  5
122
100
AcDbEntity
  8
Layer_1
 62
7
100
AcDbPolyline
 90
29
 70
0
 10
1214.783840
 20
984.187924
 30
0.0
 10
1213.465760
 20
984.650004
 30
0.0
 10
1212.283120
 20
985.392644
 30
0.0
 10
1211.295840
 20
986.379124
 30
0.0
 10
1210.552880
 20
987.561204
 30
0.0
 10
1210.091680
 20
988.879284
 30
0.0
 10
1209.935200
 20
990.268244
 30
0.0
 10
1210.091680
 20
991.657204
 30
0.0
 10
1210.552880
 20
992.975364
 30
0.0
 10
1211.295840
 20
994.157364
 30
0.0
 10
1212.283120
 20
995.143844
 30
0.0
 10
1213.465760
 20
995.886484
 30
0.0
 10
1214.783840
 20
996.348564
 30
0.0
 10
1216.171440
 20
996.504484
 30
0.0
 10
1217.558960
 20
996.348564
 30
0.0
 10
1218.877120
 20
995.886484
 30
0.0
 10
1220.059680
 20
995.143844
 30
0.0
 10
1221.047040
 20
994.157364
 30
0.0
 10
1221.790000
 20
992.975364
 30
0.0
 10
1222.251440
 20
991.657204
 30
0.0
 10
1222.407600
 20
990.268244
 30
0.0
 10
1222.251440
 20
988.879284
 30
0.0
 10
1221.790000
 20
987.561204
 30
0.0
 10
1221.047040
 20
986.379124
 30
0.0
 10
1220.059680
 20
985.392644
 30
0.0
 10
1218.877120
 20
984.650004
 30
0.0
 10
1217.558960
 20
984.187924
 30
0.0
 10
1216.171440
 20
984.032004
 30
0.0
 10
1214.783840
 20
984.187924
 30
0.0
  0
LWPOLYLINE
  5
123
100
AcDbEntity
  8
Layer_1
 62
7
100
AcDbPolyline
 90
29
 70
0
 10
1356.516160
 20
984.187924
 30
0.0
 10
1355.198000
 20
984.650004
 30
0.0
 10
1354.015440
 20
985.392644
 30
0.0
 10
1353.028080
 20
986.379124
 30
0.0
 10
1352.285120
 20
987.561204
 30
0.0
 10
1351.823920
 20
988.879284
 30
0.0
 10
1351.667440
 20
990.268244
 30
0.0
 10
1351.823920
 20
991.657204
 30
0.0
 10
1352.285120
 20
992.975364
 30
0.0
 10
1353.028080
 20
994.157364
 30
0.0
 10
1354.015440
 20
995.143844
 30
0.0
 10
1355.198000
 20
995.886484
 30
0.0
 10
1356.516160
 20
996.348564
 30
0.0
 10
1357.903680
 20
996.504484
 30
0.0
 10
1359.291280
 20
996.348564
 30
0.0
 10
1360.609360
 20
995.886484
 30
0.0
 10
1361.792000
 20
995.143844
 30
0.0
 10
1362.779280
 20
994.157364
 30
0.0
 10
1363.522240
 20
992.975364
 30
0.0
 10
1363.983760
 20
991.657204
 30
0.0
 10
1364.139920
 20
990.268244
 30
0.0
 10
1363.983760
 20
988.879284
 30
0.0
 10
1363.522240
 20
987.561204
 30
0.0
 10
1362.779280
 20
986.379124
 30
0.0
 10
1361.792000
 20
985.392644
 30
0.0
 10
1360.609360
 20
984.650004
 30
0.0
 10
1359.291280
 20
984.187924
 30
0.0
 10
1357.903680
 20
984.032004
 30
0.0
 10
1356.516160
 20
984.187924
 30
0.0
  0
LWPOLYLINE
  5
124
100
AcDbEntity
  8
Layer_1
 62
7
100
AcDbPolyline
 90
29
 70
0
 10
1703.760240
 20
937.416244
 30
0.0
 10
1702.442160
 20
937.878324
 30
0.0
 10
1701.259520
 20
938.621044
 30
0.0
 10
1700.272240
 20
939.607444
 30
0.0
 10
1699.529200
 20
940.789524
 30
0.0
 10
1699.067760
 20
942.107604
 30
0.0
 10
1698.911600
 20
943.496564
 30
0.0
 10
1699.067760
 20
944.885604
 30
0.0
 10
1699.529200
 20
946.203684
 30
0.0
 10
1700.272240
 20
947.385764
 30
0.0
 10
1701.259520
 20
948.372164
 30
0.0
 10
1702.442160
 20
949.114884
 30
0.0
 10
1703.760240
 20
949.576884
 30
0.0
 10
1705.147760
 20
949.732804
 30
0.0
 10
1706.535360
 20
949.576884
 30
0.0
 10
1707.853440
 20
949.114884
 30
0.0
 10
1709.036080
 20
948.372164
 30
0.0
 10
1710.023360
 20
947.385764
 30
0.0
 10
1710.766320
 20
946.203684
 30
0.0
 10
1711.227520
 20
944.885604
 30
0.0
 10
1711.384000
 20
943.496564
 30
0.0
 10
1711.227520
 20
942.107604
 30
0.0
 10
1710.766320
 20
940.789524
 30
0.0
 10
1710.023360
 20
939.607444
 30
0.0
 10
1709.036080
 20
938.621044
 30
0.0
 10
1707.853440
 20
937.878324
 30
0.0
 10
1706.535360
 20
937.416244
 30
0.0
 10
1705.147760
 20
937.260404
 30
0.0
 10
1703.760240
 20
937.416244
 30
0.0
  0
LWPOLYLINE
  5
125
100
AcDbEntity
  8
Layer_1
 62
7
100
AcDbPolyline
 90
29
 70
0
 10
1547.854720
 20
937.416244
 30
0.0
 10
1546.536640
 20
937.878324
 30
0.0
 10
1545.354000
 20
938.621044
 30
0.0
 10
1544.366720
 20
939.607444
 30
0.0
 10
1543.623760
 20
940.789524
 30
0.0
 10
1543.162240
 20
942.107604
 30
0.0
 10
1543.006080
 20
943.496564
 30
0.0
 10
1543.162240
 20
944.885604
 30
0.0
 10
1543.623760
 20
946.203684
 30
0.0
 10
1544.366720
 20
947.385764
 30
0.0
 10
1545.354000
 20
948.372164
 30
0.0
 10
1546.536640
 20
949.114884
 30
0.0
 10
1547.854720
 20
949.576884
 30
0.0
 10
1549.242320
 20
949.732804
 30
0.0
 10
1550.629840
 20
949.576884
 30
0.0
 10
1551.947920
 20
949.114884
 30
0.0
 10
1553.130560
 20
948.372164
 30
0.0
 10
1554.117840
 20
947.385764
 30
0.0
 10
1554.860800
 20
946.203684
 30
0.0
 10
1555.322000
 20
944.885604
 30
0.0
 10
1555.478480
 20
943.496564
 30
0.0
 10
1555.322000
 20
942.107604
 30
0.0
 10
1554.860800
 20
940.789524
 30
0.0
 10
1554.117840
 20
939.607444
 30
0.0
 10
1553.130560
 20
938.621044
 30
0.0
 10
1551.947920
 20
937.878324
 30
0.0
 10
1550.629840
 20
937.416244
 30
0.0
 10
1549.242320
 20
937.260404
 30
0.0
 10
1547.854720
 20
937.416244
 30
0.0
  0
LWPOLYLINE
  5
126
100
AcDbEntity
  8
Layer_1
 62
7
100
AcDbPolyline
 90
5
 70
0
 10
1758.405120
 20
807.921204
 30
0.0
 10
1834.373600
 20
883.889684
 30
0.0
 10
1847.200400
 20
871.060084
 30
0.0
 10
1771.234720
 20
795.094404
 30
0.0
 10
1758.405120
 20
807.921204
 30
0.0
  0
LWPOLYLINE
  5
127
100
AcDbEntity
  8
Layer_1
 62
7
100
AcDbPolyline
 90
5
 70
0
 10
1052.858960
 20
871.060084
 30
0.0
 10
1065.685760
 20
883.889684
 30
0.0
 10
1141.654240
 20
807.921204
 30
0.0
 10
1128.824640
 20
795.094404
 30
0.0
 10
1052.858960
 20
871.060084
 30
0.0
  0
LWPOLYLINE
  5
128
100
AcDbEntity
  8
Layer_1
 62
7
100
AcDbPolyline
 90
29
 70
0
 10
-235.055440
 20
650.115380
 30
0.0
 10
-235.055440
 20
860.022900
 30
0.0
 10
-248.874400
 20
860.022900
 30
0.0
 10
-253.480640
 20
864.629220
 30
0.0
 10
-253.480640
 20
897.936260
 30
0.0
 10
-248.874400
 20
902.542580
 30
0.0
 10
-235.055440
 20
902.542580
 30
0.0
 10
-235.055440
 20
916.999300
 30
0.0
 10
-215.496400
 20
916.999300
 30
0.0
 10
-215.496400
 20
912.605620
 30
0.0
 10
-199.338960
 20
912.605620
 30
0.0
 10
-199.338960
 20
916.999300
 30
0.0
 10
-179.779840
 20
916.999300
 30
0.0
 10
-179.779840
 20
930.605620
 30
0.0
 10
-199.338960
 20
930.605620
 30
0.0
 10
-199.338960
 20
934.999300
 30
0.0
 10
-215.496400
 20
934.999300
 30
0.0
 10
-215.496400
 20
930.605620
 30
0.0
 10
-235.055440
 20
930.605620
 30
0.0
 10
-235.055440
 20
945.062260
 30
0.0
 10
-248.874400
 20
945.062260
 30
0.0
 10
-253.480640
 20
949.668580
 30
0.0
 10
-253.480640
 20
982.975700
 30
0.0
 10
-248.874400
 20
987.581940
 30
0.0
 10
-235.055440
 20
987.581940
 30
0.0
 10
-235.055440
 20
1207.266980
 30
0.0
 10
-15.370400
 20
1207.266980
 30
0.0
 10
-15.370400
 20
1221.085940
 30
0.0
 10
-10.764160
 20
1225.692180
 30
0.0
  0
LWPOLYLINE
  5
129
100
AcDbEntity
  8
Layer_1
 62
7
100
AcDbPolyline
 90
18
 70
0
 10
22.542960
 20
1225.692180
 30
0.0
 10
27.149280
 20
1221.085940
 30
0.0
 10
27.149280
 20
1207.266980
 30
0.0
 10
41.605920
 20
1207.266980
 30
0.0
 10
41.605920
 20
1187.707940
 30
0.0
 10
37.212240
 20
1187.707940
 30
0.0
 10
37.212240
 20
1171.550500
 30
0.0
 10
41.605920
 20
1171.550500
 30
0.0
 10
41.605920
 20
1151.991460
 30
0.0
 10
55.212240
 20
1151.991460
 30
0.0
 10
55.212240
 20
1171.550500
 30
0.0
 10
59.605920
 20
1171.550500
 30
0.0
 10
59.605920
 20
1187.707940
 30
0.0
 10
55.212240
 20
1187.707940
 30
0.0
 10
55.212240
 20
1207.266980
 30
0.0
 10
69.668960
 20
1207.266980
 30
0.0
 10
69.668960
 20
1221.085940
 30
0.0
 10
74.275200
 20
1225.692180
 30
0.0
  0
LWPOLYLINE
  5
12a
100
AcDbEntity
  8
Layer_1
 62
7
100
AcDbPolyline
 90
4
 70
0
 10
107.582320
 20
1225.692180
 30
0.0
 10
112.188640
 20
1221.085940
 30
0.0
 10
112.188640
 20
1207.266980
 30
0.0
 10
322.096160
 20
1207.266980
 30
0.0
  0
LWPOLYLINE
  5
12b
100
AcDbEntity
  8
Layer_1
 62
7
100
AcDbPolyline
 90
7
 70
0
 10
-217.905840
 20
1187.424500
 30
0.0
 10
-229.244400
 20
1198.763060
 30
0.0
 10
-229.527920
 20
1198.763060
 30
0.0
 10
-229.527920
 20
1159.078020
 30
0.0
 10
-229.244400
 20
1159.078020
 30
0.0
 10
-217.905840
 20
1170.416580
 30
0.0
 10
-217.905840
 20
1187.424500
 30
0.0
  0
LWPOLYLINE
  5
12c
100
AcDbEntity
  8
Layer_1
 62
7
100
AcDbPolyline
 90
7
 70
0
 10
-186.866480
 20
1201.739460
 30
0.0
 10
-226.551520
 20
1201.739460
 30
0.0
 10
-226.551520
 20
1201.456020
 30
0.0
 10
-215.212960
 20
1190.117380
 30
0.0
 10
-198.205040
 20
1190.117380
 30
0.0
 10
-186.866480
 20
1201.456020
 30
0.0
 10
-186.866480
 20
1201.739460
 30
0.0
  0
LWPOLYLINE
  5
12d
100
AcDbEntity
  8
Layer_1
 62
7
100
AcDbPolyline
 90
7
 70
0
 10
-186.866480
 20
1156.385140
 30
0.0
 10
-198.205040
 20
1167.723700
 30
0.0
 10
-215.212960
 20
1167.723700
 30
0.0
 10
-226.551520
 20
1156.385140
 30
0.0
 10
-226.551520
 20
1156.101620
 30
0.0
 10
-186.866480
 20
1156.101620
 30
0.0
 10
-186.866480
 20
1156.385140
 30
0.0
  0
LWPOLYLINE
  5
12e
100
AcDbEntity
  8
Layer_1
 62
7
100
AcDbPolyline
 90
35
 70
0
 10
-199.089520
 20
1179.626420
 30
0.0
 10
-199.347440
 20
1181.015380
 30
0.0
 10
-199.857680
 20
1182.330660
 30
0.0
 10
-200.600320
 20
1183.532500
 30
0.0
 10
-201.552800
 20
1184.575700
 30
0.0
 10
-202.680960
 20
1185.428900
 30
0.0
 10
-203.945200
 20
1186.058180
 30
0.0
 10
-205.303040
 20
1186.443700
 30
0.0
 10
-206.709040
 20
1186.574100
 30
0.0
 10
-208.114960
 20
1186.443700
 30
0.0
 10
-209.472800
 20
1186.058180
 30
0.0
 10
-210.737040
 20
1185.428900
 30
0.0
 10
-211.865200
 20
1184.575700
 30
0.0
 10
-212.817680
 20
1183.532500
 30
0.0
 10
-213.560320
 20
1182.330660
 30
0.0
 10
-214.070560
 20
1181.015380
 30
0.0
 10
-214.328560
 20
1179.626420
 30
0.0
 10
-214.328560
 20
1178.214740
 30
0.0
 10
-214.070560
 20
1176.825780
 30
0.0
 10
-213.560320
 20
1175.510500
 30
0.0
 10
-212.817680
 20
1174.308580
 30
0.0
 10
-211.865200
 20
1173.265460
 30
0.0
 10
-210.737040
 20
1172.412180
 30
0.0
 10
-209.472800
 20
1171.782900
 30
0.0
 10
-208.114960
 20
1171.397380
 30
0.0
 10
-206.709040
 20
1171.266980
 30
0.0
 10
-205.303040
 20
1171.397380
 30
0.0
 10
-203.945200
 20
1171.782900
 30
0.0
 10
-202.680960
 20
1172.412180
 30
0.0
 10
-201.552800
 20
1173.265460
 30
0.0
 10
-200.600320
 20
1174.308580
 30
0.0
 10
-199.857680
 20
1175.510500
 30
0.0
 10
-199.347440
 20
1176.825780
 30
0.0
 10
-199.089520
 20
1178.214740
 30
0.0
 10
-199.089520
 20
1179.626420
 30
0.0
  0
LWPOLYLINE
  5
12f
100
AcDbEntity
  8
Layer_1
 62
7
100
AcDbPolyline
 90
7
 70
0
 10
-130.173600
 20
1201.739460
 30
0.0
 10
-169.858640
 20
1201.739460
 30
0.0
 10
-169.858640
 20
1201.456020
 30
0.0
 10
-158.520000
 20
1190.117380
 30
0.0
 10
-141.512160
 20
1190.117380
 30
0.0
 10
-130.173600
 20
1201.456020
 30
0.0
 10
-130.173600
 20
1201.739460
 30
0.0
  0
LWPOLYLINE
  5
130
100
AcDbEntity
  8
Layer_1
 62
7
100
AcDbPolyline
 90
7
 70
0
 10
-130.173600
 20
1156.385140
 30
0.0
 10
-141.512160
 20
1167.723700
 30
0.0
 10
-158.520000
 20
1167.723700
 30
0.0
 10
-169.858640
 20
1156.385140
 30
0.0
 10
-169.858640
 20
1156.101620
 30
0.0
 10
-130.173600
 20
1156.101620
 30
0.0
 10
-130.173600
 20
1156.385140
 30
0.0
  0
LWPOLYLINE
  5
131
100
AcDbEntity
  8
Layer_1
 62
7
100
AcDbPolyline
 90
5
 70
0
 10
-90.273120
 20
833.782580
 30
0.0
 10
-166.238800
 20
757.816340
 30
0.0
 10
-153.412000
 20
744.988180
 30
0.0
 10
-77.446320
 20
820.955860
 30
0.0
 10
-90.273120
 20
833.782580
 30
0.0
  0
LWPOLYLINE
  5
132
100
AcDbEntity
  8
Layer_1
 62
7
100
AcDbPolyline
 90
35
 70
0
 10
-142.396560
 20
1179.626420
 30
0.0
 10
-142.654480
 20
1181.015380
 30
0.0
 10
-143.164720
 20
1182.330660
 30
0.0
 10
-143.907440
 20
1183.532500
 30
0.0
 10
-144.859840
 20
1184.575700
 30
0.0
 10
-145.988080
 20
1185.428900
 30
0.0
 10
-147.252320
 20
1186.058180
 30
0.0
 10
-148.610080
 20
1186.443700
 30
0.0
 10
-150.016080
 20
1186.574100
 30
0.0
 10
-151.422080
 20
1186.443700
 30
0.0
 10
-152.779840
 20
1186.058180
 30
0.0
 10
-154.044160
 20
1185.428900
 30
0.0
 10
-155.172320
 20
1184.575700
 30
0.0
 10
-156.124800
 20
1183.532500
 30
0.0
 10
-156.867440
 20
1182.330660
 30
0.0
 10
-157.377680
 20
1181.015380
 30
0.0
 10
-157.635600
 20
1179.626420
 30
0.0
 10
-157.635600
 20
1178.214740
 30
0.0
 10
-157.377680
 20
1176.825780
 30
0.0
 10
-156.867440
 20
1175.510500
 30
0.0
 10
-156.124800
 20
1174.308580
 30
0.0
 10
-155.172320
 20
1173.265460
 30
0.0
 10
-154.044160
 20
1172.412180
 30
0.0
 10
-152.779840
 20
1171.782900
 30
0.0
 10
-151.422080
 20
1171.397380
 30
0.0
 10
-150.016080
 20
1171.266980
 30
0.0
 10
-148.610080
 20
1171.397380
 30
0.0
 10
-147.252320
 20
1171.782900
 30
0.0
 10
-145.988080
 20
1172.412180
 30
0.0
 10
-144.859840
 20
1173.265460
 30
0.0
 10
-143.907440
 20
1174.308580
 30
0.0
 10
-143.164720
 20
1175.510500
 30
0.0
 10
-142.654480
 20
1176.825780
 30
0.0
 10
-142.396560
 20
1178.214740
 30
0.0
 10
-142.396560
 20
1179.626420
 30
0.0
  0
LWPOLYLINE
  5
133
100
AcDbEntity
  8
Layer_1
 62
7
100
AcDbPolyline
 90
7
 70
0
 10
-127.197200
 20
1198.763060
 30
0.0
 10
-127.480640
 20
1198.763060
 30
0.0
 10
-138.819280
 20
1187.424500
 30
0.0
 10
-138.819280
 20
1170.416580
 30
0.0
 10
-127.480640
 20
1159.078020
 30
0.0
 10
-127.197200
 20
1159.078020
 30
0.0
 10
-127.197200
 20
1198.763060
 30
0.0
  0
LWPOLYLINE
  5
134
100
AcDbEntity
  8
Layer_1
 62
7
100
AcDbPolyline
 90
5
 70
0
 10
62.060720
 20
986.116500
 30
0.0
 10
-13.904880
 20
910.150820
 30
0.0
 10
-1.078160
 20
897.321140
 30
0.0
 10
74.890320
 20
973.289700
 30
0.0
 10
62.060720
 20
986.116500
 30
0.0
  0
LWPOLYLINE
  5
135
100
AcDbEntity
  8
Layer_1
 62
7
100
AcDbPolyline
 90
5
 70
0
 10
214.395200
 20
1138.450340
 30
0.0
 10
138.428960
 20
1062.484660
 30
0.0
 10
151.255680
 20
1049.657860
 30
0.0
 10
227.223360
 20
1125.623540
 30
0.0
 10
214.395200
 20
1138.450340
 30
0.0
  0
LWPOLYLINE
  5
136
100
AcDbEntity
  8
Layer_1
 62
7
100
AcDbPolyline
 90
17
 70
0
 10
335.909280
 20
954.845604
 30
0.0
 10
322.090320
 20
954.845604
 30
0.0
 10
322.090320
 20
940.388884
 30
0.0
 10
302.531280
 20
940.388884
 30
0.0
 10
302.531280
 20
944.782564
 30
0.0
 10
286.373840
 20
944.782564
 30
0.0
 10
286.373840
 20
940.388884
 30
0.0
 10
266.814800
 20
940.388884
 30
0.0
 10
266.814800
 20
926.782564
 30
0.0
 10
286.373840
 20
926.782564
 30
0.0
 10
286.373840
 20
922.388884
 30
0.0
 10
302.531280
 20
922.388884
 30
0.0
 10
302.531280
 20
926.782564
 30
0.0
 10
322.090320
 20
926.782564
 30
0.0
 10
322.090320
 20
912.325924
 30
0.0
 10
335.909280
 20
912.325924
 30
0.0
 10
340.515520
 20
907.719604
 30
0.0
  0
LWPOLYLINE
  5
137
100
AcDbEntity
  8
Layer_1
 62
7
100
AcDbPolyline
 90
33
 70
0
 10
340.515520
 20
874.412484
 30
0.0
 10
335.909280
 20
869.806244
 30
0.0
 10
322.090320
 20
869.806244
 30
0.0
 10
322.090320
 20
650.121204
 30
0.0
 10
102.405280
 20
650.121204
 30
0.0
 10
102.405280
 20
636.302244
 30
0.0
 10
97.799040
 20
631.696004
 30
0.0
 10
64.491920
 20
631.696004
 30
0.0
 10
59.885600
 20
636.302244
 30
0.0
 10
59.885600
 20
650.121204
 30
0.0
 10
45.428960
 20
650.121204
 30
0.0
 10
45.428960
 20
669.680244
 30
0.0
 10
49.822640
 20
669.680244
 30
0.0
 10
49.822640
 20
685.837684
 30
0.0
 10
45.428960
 20
685.837684
 30
0.0
 10
45.428960
 20
705.396724
 30
0.0
 10
31.822640
 20
705.396724
 30
0.0
 10
31.822640
 20
685.837684
 30
0.0
 10
27.428960
 20
685.837684
 30
0.0
 10
27.428960
 20
669.680244
 30
0.0
 10
31.822640
 20
669.680244
 30
0.0
 10
31.822640
 20
650.121204
 30
0.0
 10
17.365920
 20
650.121204
 30
0.0
 10
17.365920
 20
636.302244
 30
0.0
 10
12.759680
 20
631.696004
 30
0.0
 10
-20.547440
 20
631.696004
 30
0.0
 10
-25.153760
 20
636.302244
 30
0.0
 10
-25.153760
 20
650.121204
 30
0.0
 10
-235.061200
 20
650.121204
 30
0.0
 10
322.090320
 20
1207.272804
 30
0.0
 10
322.090320
 20
997.365284
 30
0.0
 10
335.909280
 20
997.365284
 30
0.0
 10
340.515520
 20
992.758964
 30
0.0
  0
LWPOLYLINE
  5
138
100
AcDbEntity
  8
Layer_1
 62
7
100
AcDbPolyline
 90
2
 70
0
 10
340.515520
 20
959.451924
 30
0.0
 10
335.909280
 20
954.845604
 30
0.0
  0
LWPOLYLINE
  5
139
100
AcDbEntity
  8
Layer_1
 62
7
100
AcDbPolyline
 90
5
 70
0
 10
-64.220800
 20
807.730324
 30
0.0
 10
-140.188480
 20
731.764644
 30
0.0
 10
-127.360320
 20
718.937844
 30
0.0
 10
-51.394080
 20
794.903524
 30
0.0
 10
-64.220800
 20
807.730324
 30
0.0
  0
LWPOLYLINE
  5
13a
100
AcDbEntity
  8
Layer_1
 62
7
100
AcDbPolyline
 90
5
 70
0
 10
88.113040
 20
960.067044
 30
0.0
 10
12.144560
 20
884.098484
 30
0.0
 10
24.974160
 20
871.271684
 30
0.0
 10
100.939840
 20
947.237364
 30
0.0
 10
88.113040
 20
960.067044
 30
0.0
  0
LWPOLYLINE
  5
13b
100
AcDbEntity
  8
Layer_1
 62
7
100
AcDbPolyline
 90
5
 70
0
 10
240.446880
 20
1112.400004
 30
0.0
 10
164.481200
 20
1036.432324
 30
0.0
 10
177.308000
 20
1023.605604
 30
0.0
 10
253.273680
 20
1099.571844
 30
0.0
 10
240.446880
 20
1112.400004
 30
0.0
  0
LWPOLYLINE
  5
13c
100
AcDbEntity
  8
Layer_1
 62
7
100
AcDbPolyline
 90
7
 70
0
 10
225.854160
 20
686.971604
 30
0.0
 10
214.515520
 20
698.310164
 30
0.0
 10
214.232080
 20
698.310164
 30
0.0
 10
214.232080
 20
658.625124
 30
0.0
 10
214.515520
 20
658.625124
 30
0.0
 10
225.854160
 20
669.963684
 30
0.0
 10
225.854160
 20
686.971604
 30
0.0
  0
LWPOLYLINE
  5
13d
100
AcDbEntity
  8
Layer_1
 62
7
100
AcDbPolyline
 90
7
 70
0
 10
256.893520
 20
701.286564
 30
0.0
 10
217.208480
 20
701.286564
 30
0.0
 10
217.208480
 20
701.003044
 30
0.0
 10
228.547040
 20
689.664484
 30
0.0
 10
245.554960
 20
689.664484
 30
0.0
 10
256.893520
 20
701.003044
 30
0.0
 10
256.893520
 20
701.286564
 30
0.0
  0
LWPOLYLINE
  5
13e
100
AcDbEntity
  8
Layer_1
 62
7
100
AcDbPolyline
 90
7
 70
0
 10
256.893520
 20
655.932164
 30
0.0
 10
245.554960
 20
667.270804
 30
0.0
 10
228.547040
 20
667.270804
 30
0.0
 10
217.208480
 20
655.932164
 30
0.0
 10
217.208480
 20
655.648724
 30
0.0
 10
256.893520
 20
655.648724
 30
0.0
 10
256.893520
 20
655.932164
 30
0.0
  0
LWPOLYLINE
  5
13f
100
AcDbEntity
  8
Layer_1
 62
7
100
AcDbPolyline
 90
35
 70
0
 10
244.670480
 20
679.173444
 30
0.0
 10
244.412560
 20
680.562404
 30
0.0
 10
243.902320
 20
681.877684
 30
0.0
 10
243.159680
 20
683.079604
 30
0.0
 10
242.207200
 20
684.122724
 30
0.0
 10
241.079040
 20
684.976004
 30
0.0
 10
239.814800
 20
685.605284
 30
0.0
 10
238.456960
 20
685.990804
 30
0.0
 10
237.050960
 20
686.121204
 30
0.0
 10
235.644960
 20
685.990804
 30
0.0
 10
234.287200
 20
685.605284
 30
0.0
 10
233.022960
 20
684.976004
 30
0.0
 10
231.894800
 20
684.122724
 30
0.0
 10
230.942320
 20
683.079604
 30
0.0
 10
230.199680
 20
681.877684
 30
0.0
 10
229.689440
 20
680.562404
 30
0.0
 10
229.431440
 20
679.173444
 30
0.0
 10
229.431440
 20
677.761764
 30
0.0
 10
229.689440
 20
676.372804
 30
0.0
 10
230.199680
 20
675.057524
 30
0.0
 10
230.942320
 20
673.855684
 30
0.0
 10
231.894800
 20
672.812484
 30
0.0
 10
233.022960
 20
671.959284
 30
0.0
 10
234.287200
 20
671.330004
 30
0.0
 10
235.644960
 20
670.944484
 30
0.0
 10
237.050960
 20
670.814084
 30
0.0
 10
238.456960
 20
670.944484
 30
0.0
 10
239.814800
 20
671.330004
 30
0.0
 10
241.079040
 20
671.959284
 30
0.0
 10
242.207200
 20
672.812484
 30
0.0
 10
243.159680
 20
673.855684
 30
0.0
 10
243.902320
 20
675.057524
 30
0.0
 10
244.412560
 20
676.372804
 30
0.0
 10
244.670480
 20
677.761764
 30
0.0
 10
244.670480
 20
679.173444
 30
0.0
  0
LWPOLYLINE
  5
140
100
AcDbEntity
  8
Layer_1
 62
7
100
AcDbPolyline
 90
7
 70
0
 10
313.586400
 20
655.932164
 30
0.0
 10
302.247840
 20
667.270804
 30
0.0
 10
285.239920
 20
667.270804
 30
0.0
 10
273.901360
 20
655.932164
 30
0.0
 10
273.901360
 20
655.648724
 30
0.0
 10
313.586400
 20
655.648724
 30
0.0
 10
313.586400
 20
655.932164
 30
0.0
  0
LWPOLYLINE
  5
141
100
AcDbEntity
  8
Layer_1
 62
7
100
AcDbPolyline
 90
7
 70
0
 10
313.586400
 20
701.286564
 30
0.0
 10
273.901360
 20
701.286564
 30
0.0
 10
273.901360
 20
701.003044
 30
0.0
 10
285.239920
 20
689.664484
 30
0.0
 10
302.247840
 20
689.664484
 30
0.0
 10
313.586400
 20
701.003044
 30
0.0
 10
313.586400
 20
701.286564
 30
0.0
  0
LWPOLYLINE
  5
142
100
AcDbEntity
  8
Layer_1
 62
7
100
AcDbPolyline
 90
35
 70
0
 10
301.363440
 20
679.173444
 30
0.0
 10
301.105440
 20
680.562404
 30
0.0
 10
300.595200
 20
681.877684
 30
0.0
 10
299.852560
 20
683.079604
 30
0.0
 10
298.900080
 20
684.122724
 30
0.0
 10
297.771920
 20
684.976004
 30
0.0
 10
296.507680
 20
685.605284
 30
0.0
 10
295.149920
 20
685.990804
 30
0.0
 10
293.743920
 20
686.121204
 30
0.0
 10
292.337920
 20
685.990804
 30
0.0
 10
290.980080
 20
685.605284
 30
0.0
 10
289.715840
 20
684.976004
 30
0.0
 10
288.587680
 20
684.122724
 30
0.0
 10
287.635200
 20
683.079604
 30
0.0
 10
286.892560
 20
681.877684
 30
0.0
 10
286.382320
 20
680.562404
 30
0.0
 10
286.124400
 20
679.173444
 30
0.0
 10
286.124400
 20
677.761764
 30
0.0
 10
286.382320
 20
676.372804
 30
0.0
 10
286.892560
 20
675.057524
 30
0.0
 10
287.635200
 20
673.855684
 30
0.0
 10
288.587680
 20
672.812484
 30
0.0
 10
289.715840
 20
671.959284
 30
0.0
 10
290.980080
 20
671.330004
 30
0.0
 10
292.337920
 20
670.944484
 30
0.0
 10
293.743920
 20
670.814084
 30
0.0
 10
295.149920
 20
670.944484
 30
0.0
 10
296.507680
 20
671.330004
 30
0.0
 10
297.771920
 20
671.959284
 30
0.0
 10
298.900080
 20
672.812484
 30
0.0
 10
299.852560
 20
673.855684
 30
0.0
 10
300.595200
 20
675.057524
 30
0.0
 10
301.105440
 20
676.372804
 30
0.0
 10
301.363440
 20
677.761764
 30
0.0
 10
301.363440
 20
679.173444
 30
0.0
  0
LWPOLYLINE
  5
143
100
AcDbEntity
  8
Layer_1
 62
7
100
AcDbPolyline
 90
7
 70
0
 10
316.562800
 20
698.310164
 30
0.0
 10
316.279360
 20
698.310164
 30
0.0
 10
304.940720
 20
686.971604
 30
0.0
 10
304.940720
 20
669.963684
 30
0.0
 10
316.279360
 20
658.625124
 30
0.0
 10
316.562800
 20
658.625124
 30
0.0
 10
316.562800
 20
698.310164
 30
0.0
  0
LWPOLYLINE
  5
144
100
AcDbEntity
  8
Layer_1
 62
7
100
AcDbPolyline
 90
26
 70
0
 10
737.239120
 20
2077.354845
 30
0.0
 10
701.806056
 20
2077.354845
 30
0.0
 10
701.806056
 20
2091.173725
 30
0.0
 10
697.199752
 20
2095.780045
 30
0.0
 10
663.892664
 20
2095.780045
 30
0.0
 10
659.286368
 20
2091.173725
 30
0.0
 10
659.286368
 20
2077.354845
 30
0.0
 10
644.829672
 20
2077.354845
 30
0.0
 10
644.829672
 20
2057.795805
 30
0.0
 10
649.223376
 20
2057.795805
 30
0.0
 10
649.223376
 20
2041.638365
 30
0.0
 10
644.829672
 20
2041.638365
 30
0.0
 10
644.829672
 20
2022.079245
 30
0.0
 10
631.223376
 20
2022.079245
 30
0.0
 10
631.223376
 20
2041.638365
 30
0.0
 10
626.829672
 20
2041.638365
 30
0.0
 10
626.829672
 20
2057.795805
 30
0.0
 10
631.223376
 20
2057.795805
 30
0.0
 10
631.223376
 20
2077.354845
 30
0.0
 10
616.766680
 20
2077.354845
 30
0.0
 10
616.766680
 20
2091.173725
 30
0.0
 10
612.160384
 20
2095.780045
 30
0.0
 10
578.853296
 20
2095.780045
 30
0.0
 10
574.247000
 20
2091.173725
 30
0.0
 10
574.247000
 20
2077.354845
 30
0.0
 10
538.813928
 20
2077.354845
 30
0.0
  0
LWPOLYLINE
  5
145
100
AcDbEntity
  8
Layer_1
 62
7
100
AcDbPolyline
 90
3
 70
0
 10
538.813928
 20
631.685565
 30
0.0
 10
737.239120
 20
631.685565
 30
0.0
 10
737.239120
 20
2077.354845
 30
0.0
  0
LWPOLYLINE
  5
146
100
AcDbEntity
  8
Layer_1
 62
7
100
AcDbPolyline
 90
35
 70
0
 10
681.257392
 20
2041.388925
 30
0.0
 10
679.869016
 20
2041.646845
 30
0.0
 10
678.552040
 20
2042.157085
 30
0.0
 10
677.351280
 20
2042.899725
 30
0.0
 10
676.307560
 20
2043.852205
 30
0.0
 10
675.456320
 20
2044.980365
 30
0.0
 10
674.826744
 20
2046.244605
 30
0.0
 10
674.440384
 20
2047.602445
 30
0.0
 10
674.309992
 20
2049.008445
 30
0.0
 10
674.440384
 20
2050.414365
 30
0.0
 10
674.826744
 20
2051.772205
 30
0.0
 10
675.456320
 20
2053.036445
 30
0.0
 10
676.307560
 20
2054.164605
 30
0.0
 10
677.351280
 20
2055.117085
 30
0.0
 10
678.552040
 20
2055.859725
 30
0.0
 10
679.869016
 20
2056.369965
 30
0.0
 10
681.257392
 20
2056.627965
 30
0.0
 10
682.669728
 20
2056.627965
 30
0.0
 10
684.058024
 20
2056.369965
 30
0.0
 10
685.375056
 20
2055.859725
 30
0.0
 10
686.575840
 20
2055.117085
 30
0.0
 10
687.619584
 20
2054.164605
 30
0.0
 10
688.470720
 20
2053.036445
 30
0.0
 10
689.100264
 20
2051.772205
 30
0.0
 10
689.486800
 20
2050.414365
 30
0.0
 10
689.617104
 20
2049.008445
 30
0.0
 10
689.486800
 20
2047.602445
 30
0.0
 10
689.100264
 20
2046.244605
 30
0.0
 10
688.470720
 20
2044.980365
 30
0.0
 10
687.619584
 20
2043.852205
 30
0.0
 10
686.575840
 20
2042.899725
 30
0.0
 10
685.375056
 20
2042.157085
 30
0.0
 10
684.058024
 20
2041.646845
 30
0.0
 10
682.669728
 20
2041.388925
 30
0.0
 10
681.257392
 20
2041.388925
 30
0.0
  0
LWPOLYLINE
  5
147
100
AcDbEntity
  8
Layer_1
 62
7
100
AcDbPolyline
 90
35
 70
0
 10
574.958208
 20
2041.388925
 30
0.0
 10
573.569800
 20
2041.646845
 30
0.0
 10
572.252824
 20
2042.157085
 30
0.0
 10
571.052072
 20
2042.899725
 30
0.0
 10
570.008352
 20
2043.852205
 30
0.0
 10
569.157104
 20
2044.980365
 30
0.0
 10
568.527536
 20
2046.244605
 30
0.0
 10
568.141168
 20
2047.602445
 30
0.0
 10
568.010776
 20
2049.008445
 30
0.0
 10
568.141168
 20
2050.414365
 30
0.0
 10
568.527536
 20
2051.772205
 30
0.0
 10
569.157104
 20
2053.036445
 30
0.0
 10
570.008352
 20
2054.164605
 30
0.0
 10
571.052072
 20
2055.117085
 30
0.0
 10
572.252824
 20
2055.859725
 30
0.0
 10
573.569800
 20
2056.369965
 30
0.0
 10
574.958208
 20
2056.627965
 30
0.0
 10
576.370432
 20
2056.627965
 30
0.0
 10
577.758840
 20
2056.369965
 30
0.0
 10
579.075816
 20
2055.859725
 30
0.0
 10
580.276576
 20
2055.117085
 30
0.0
 10
581.320288
 20
2054.164605
 30
0.0
 10
582.171536
 20
2053.036445
 30
0.0
 10
582.801104
 20
2051.772205
 30
0.0
 10
583.187472
 20
2050.414365
 30
0.0
 10
583.317864
 20
2049.008445
 30
0.0
 10
583.187472
 20
2047.602445
 30
0.0
 10
582.801104
 20
2046.244605
 30
0.0
 10
582.171536
 20
2044.980365
 30
0.0
 10
581.320288
 20
2043.852205
 30
0.0
 10
580.276576
 20
2042.899725
 30
0.0
 10
579.075816
 20
2042.157085
 30
0.0
 10
577.758840
 20
2041.646845
 30
0.0
 10
576.370432
 20
2041.388925
 30
0.0
 10
574.958208
 20
2041.388925
 30
0.0
  0
LWPOLYLINE
  5
148
100
AcDbEntity
  8
Layer_1
 62
7
100
AcDbPolyline
 90
35
 70
0
 10
681.257392
 20
1984.695965
 30
0.0
 10
679.869016
 20
1984.953965
 30
0.0
 10
678.552040
 20
1985.464205
 30
0.0
 10
677.351280
 20
1986.206845
 30
0.0
 10
676.307560
 20
1987.159245
 30
0.0
 10
675.456320
 20
1988.287485
 30
0.0
 10
674.826744
 20
1989.551725
 30
0.0
 10
674.440384
 20
1990.909485
 30
0.0
 10
674.309992
 20
1992.315485
 30
0.0
 10
674.440384
 20
1993.721485
 30
0.0
 10
674.826744
 20
1995.079245
 30
0.0
 10
675.456320
 20
1996.343565
 30
0.0
 10
676.307560
 20
1997.471725
 30
0.0
 10
677.351280
 20
1998.424205
 30
0.0
 10
678.552040
 20
1999.166845
 30
0.0
 10
679.869016
 20
1999.677085
 30
0.0
 10
681.257392
 20
1999.935005
 30
0.0
 10
682.669728
 20
1999.935005
 30
0.0
 10
684.058024
 20
1999.677085
 30
0.0
 10
685.375056
 20
1999.166845
 30
0.0
 10
686.575840
 20
1998.424205
 30
0.0
 10
687.619584
 20
1997.471725
 30
0.0
 10
688.470720
 20
1996.343565
 30
0.0
 10
689.100264
 20
1995.079245
 30
0.0
 10
689.486800
 20
1993.721485
 30
0.0
 10
689.617104
 20
1992.315485
 30
0.0
 10
689.486800
 20
1990.909485
 30
0.0
 10
689.100264
 20
1989.551725
 30
0.0
 10
688.470720
 20
1988.287485
 30
0.0
 10
687.619584
 20
1987.159245
 30
0.0
 10
686.575840
 20
1986.206845
 30
0.0
 10
685.375056
 20
1985.464205
 30
0.0
 10
684.058024
 20
1984.953965
 30
0.0
 10
682.669728
 20
1984.695965
 30
0.0
 10
681.257392
 20
1984.695965
 30
0.0
  0
LWPOLYLINE
  5
149
100
AcDbEntity
  8
Layer_1
 62
7
100
AcDbPolyline
 90
35
 70
0
 10
574.958208
 20
1984.695965
 30
0.0
 10
573.569800
 20
1984.953965
 30
0.0
 10
572.252824
 20
1985.464205
 30
0.0
 10
571.052072
 20
1986.206845
 30
0.0
 10
570.008352
 20
1987.159245
 30
0.0
 10
569.157104
 20
1988.287485
 30
0.0
 10
568.527536
 20
1989.551725
 30
0.0
 10
568.141168
 20
1990.909485
 30
0.0
 10
568.010776
 20
1992.315485
 30
0.0
 10
568.141168
 20
1993.721485
 30
0.0
 10
568.527536
 20
1995.079245
 30
0.0
 10
569.157104
 20
1996.343565
 30
0.0
 10
570.008352
 20
1997.471725
 30
0.0
 10
571.052072
 20
1998.424205
 30
0.0
 10
572.252824
 20
1999.166845
 30
0.0
 10
573.569800
 20
1999.677085
 30
0.0
 10
574.958208
 20
1999.935005
 30
0.0
 10
576.370432
 20
1999.935005
 30
0.0
 10
577.758840
 20
1999.677085
 30
0.0
 10
579.075816
 20
1999.166845
 30
0.0
 10
580.276576
 20
1998.424205
 30
0.0
 10
581.320288
 20
1997.471725
 30
0.0
 10
582.171536
 20
1996.343565
 30
0.0
 10
582.801104
 20
1995.079245
 30
0.0
 10
583.187472
 20
1993.721485
 30
0.0
 10
583.317864
 20
1992.315485
 30
0.0
 10
583.187472
 20
1990.909485
 30
0.0
 10
582.801104
 20
1989.551725
 30
0.0
 10
582.171536
 20
1988.287485
 30
0.0
 10
581.320288
 20
1987.159245
 30
0.0
 10
580.276576
 20
1986.206845
 30
0.0
 10
579.075816
 20
1985.464205
 30
0.0
 10
577.758840
 20
1984.953965
 30
0.0
 10
576.370432
 20
1984.695965
 30
0.0
 10
574.958208
 20
1984.695965
 30
0.0
  0
LWPOLYLINE
  5
14a
100
AcDbEntity
  8
Layer_1
 62
7
100
AcDbPolyline
 90
5
 70
0
 10
700.530464
 20
1815.291885
 30
0.0
 10
700.530464
 20
1857.528125
 30
0.0
 10
718.672192
 20
1857.528125
 30
0.0
 10
718.672192
 20
1815.291885
 30
0.0
 10
700.530464
 20
1815.291885
 30
0.0
  0
LWPOLYLINE
  5
14b
100
AcDbEntity
  8
Layer_1
 62
7
100
AcDbPolyline
 90
5
 70
0
 10
611.239120
 20
1815.291885
 30
0.0
 10
611.239120
 20
1857.528125
 30
0.0
 10
629.380856
 20
1857.528125
 30
0.0
 10
629.380856
 20
1815.291885
 30
0.0
 10
611.239120
 20
1815.291885
 30
0.0
  0
LWPOLYLINE
  5
14c
100
AcDbEntity
  8
Layer_1
 62
7
100
AcDbPolyline
 90
35
 70
0
 10
618.903720
 20
1786.367165
 30
0.0
 10
617.545360
 20
1786.752685
 30
0.0
 10
616.280824
 20
1787.381965
 30
0.0
 10
615.153768
 20
1788.235165
 30
0.0
 10
614.202464
 20
1789.278365
 30
0.0
 10
613.458936
 20
1790.480205
 30
0.0
 10
612.948696
 20
1791.795485
 30
0.0
 10
612.689048
 20
1793.184445
 30
0.0
 10
612.689048
 20
1794.596125
 30
0.0
 10
612.948696
 20
1795.985085
 30
0.0
 10
613.458936
 20
1797.300365
 30
0.0
 10
614.202464
 20
1798.502285
 30
0.0
 10
615.153768
 20
1799.545405
 30
0.0
 10
616.280824
 20
1800.398685
 30
0.0
 10
617.545360
 20
1801.027965
 30
0.0
 10
618.903720
 20
1801.413485
 30
0.0
 10
620.309992
 20
1801.543885
 30
0.0
 10
621.716256
 20
1801.413485
 30
0.0
 10
623.074904
 20
1801.027965
 30
0.0
 10
624.339152
 20
1800.398685
 30
0.0
 10
625.466208
 20
1799.545405
 30
0.0
 10
626.417520
 20
1798.502285
 30
0.0
 10
627.161048
 20
1797.300365
 30
0.0
 10
627.671280
 20
1795.985085
 30
0.0
 10
627.930936
 20
1794.596125
 30
0.0
 10
627.930936
 20
1793.184445
 30
0.0
 10
627.671280
 20
1791.795485
 30
0.0
 10
627.161048
 20
1790.480205
 30
0.0
 10
626.417520
 20
1789.278365
 30
0.0
 10
625.466208
 20
1788.235165
 30
0.0
 10
624.339152
 20
1787.381965
 30
0.0
 10
623.074904
 20
1786.752685
 30
0.0
 10
621.716256
 20
1786.367165
 30
0.0
 10
620.309992
 20
1786.236765
 30
0.0
 10
618.903720
 20
1786.367165
 30
0.0
  0
LWPOLYLINE
  5
14d
100
AcDbEntity
  8
Layer_1
 62
7
100
AcDbPolyline
 90
35
 70
0
 10
708.195032
 20
1786.367165
 30
0.0
 10
706.836576
 20
1786.752685
 30
0.0
 10
705.572280
 20
1787.381965
 30
0.0
 10
704.445192
 20
1788.235165
 30
0.0
 10
703.493712
 20
1789.278365
 30
0.0
 10
702.750184
 20
1790.480205
 30
0.0
 10
702.239984
 20
1791.795485
 30
0.0
 10
701.980440
 20
1793.184445
 30
0.0
 10
701.980440
 20
1794.596125
 30
0.0
 10
702.239984
 20
1795.985085
 30
0.0
 10
702.750184
 20
1797.300365
 30
0.0
 10
703.493712
 20
1798.502285
 30
0.0
 10
704.445192
 20
1799.545405
 30
0.0
 10
705.572280
 20
1800.398685
 30
0.0
 10
706.836576
 20
1801.027965
 30
0.0
 10
708.195032
 20
1801.413485
 30
0.0
 10
709.601328
 20
1801.543885
 30
0.0
 10
711.007624
 20
1801.413485
 30
0.0
 10
712.366080
 20
1801.027965
 30
0.0
 10
713.630376
 20
1800.398685
 30
0.0
 10
714.757464
 20
1799.545405
 30
0.0
 10
715.708944
 20
1798.502285
 30
0.0
 10
716.452472
 20
1797.300365
 30
0.0
 10
716.962680
 20
1795.985085
 30
0.0
 10
717.222216
 20
1794.596125
 30
0.0
 10
717.222216
 20
1793.184445
 30
0.0
 10
716.962680
 20
1791.795485
 30
0.0
 10
716.452472
 20
1790.480205
 30
0.0
 10
715.708944
 20
1789.278365
 30
0.0
 10
714.757464
 20
1788.235165
 30
0.0
 10
713.630376
 20
1787.381965
 30
0.0
 10
712.366080
 20
1786.752685
 30
0.0
 10
711.007624
 20
1786.367165
 30
0.0
 10
709.601328
 20
1786.236765
 30
0.0
 10
708.195032
 20
1786.367165
 30
0.0
  0
LWPOLYLINE
  5
14e
100
AcDbEntity
  8
Layer_1
 62
7
100
AcDbPolyline
 90
5
 70
0
 10
700.530464
 20
1730.252525
 30
0.0
 10
700.530464
 20
1772.488765
 30
0.0
 10
718.672192
 20
1772.488765
 30
0.0
 10
718.672192
 20
1730.252525
 30
0.0
 10
700.530464
 20
1730.252525
 30
0.0
  0
LWPOLYLINE
  5
14f
100
AcDbEntity
  8
Layer_1
 62
7
100
AcDbPolyline
 90
5
 70
0
 10
611.239120
 20
1730.252525
 30
0.0
 10
611.239120
 20
1772.488765
 30
0.0
 10
629.380856
 20
1772.488765
 30
0.0
 10
629.380856
 20
1730.252525
 30
0.0
 10
611.239120
 20
1730.252525
 30
0.0
  0
LWPOLYLINE
  5
150
100
AcDbEntity
  8
Layer_1
 62
7
100
AcDbPolyline
 90
5
 70
0
 10
700.530464
 20
1404.268205
 30
0.0
 10
700.530464
 20
1446.504477
 30
0.0
 10
718.672192
 20
1446.504477
 30
0.0
 10
718.672192
 20
1404.268205
 30
0.0
 10
700.530464
 20
1404.268205
 30
0.0
  0
LWPOLYLINE
  5
151
100
AcDbEntity
  8
Layer_1
 62
7
100
AcDbPolyline
 90
5
 70
0
 10
611.239120
 20
1404.268205
 30
0.0
 10
611.239120
 20
1446.504477
 30
0.0
 10
629.380856
 20
1446.504477
 30
0.0
 10
629.380856
 20
1404.268205
 30
0.0
 10
611.239120
 20
1404.268205
 30
0.0
  0
LWPOLYLINE
  5
152
100
AcDbEntity
  8
Layer_1
 62
7
100
AcDbPolyline
 90
35
 70
0
 10
618.903720
 20
1375.343485
 30
0.0
 10
617.545360
 20
1375.729965
 30
0.0
 10
616.280824
 20
1376.359485
 30
0.0
 10
615.153768
 20
1377.210685
 30
0.0
 10
614.202464
 20
1378.254365
 30
0.0
 10
613.458936
 20
1379.455245
 30
0.0
 10
612.948696
 20
1380.772205
 30
0.0
 10
612.689048
 20
1382.160525
 30
0.0
 10
612.689048
 20
1383.572845
 30
0.0
 10
612.948696
 20
1384.961165
 30
0.0
 10
613.458936
 20
1386.278125
 30
0.0
 10
614.202464
 20
1387.478925
 30
0.0
 10
615.153768
 20
1388.522685
 30
0.0
 10
616.280824
 20
1389.373805
 30
0.0
 10
617.545360
 20
1390.003405
 30
0.0
 10
618.903720
 20
1390.389885
 30
0.0
 10
620.309992
 20
1390.520205
 30
0.0
 10
621.716256
 20
1390.389885
 30
0.0
 10
623.074904
 20
1390.003405
 30
0.0
 10
624.339152
 20
1389.373805
 30
0.0
 10
625.466208
 20
1388.522685
 30
0.0
 10
626.417520
 20
1387.478925
 30
0.0
 10
627.161048
 20
1386.278125
 30
0.0
 10
627.671280
 20
1384.961165
 30
0.0
 10
627.930936
 20
1383.572845
 30
0.0
 10
627.930936
 20
1382.160525
 30
0.0
 10
627.671280
 20
1380.772205
 30
0.0
 10
627.161048
 20
1379.455245
 30
0.0
 10
626.417520
 20
1378.254365
 30
0.0
 10
625.466208
 20
1377.210685
 30
0.0
 10
624.339152
 20
1376.359485
 30
0.0
 10
623.074904
 20
1375.729965
 30
0.0
 10
621.716256
 20
1375.343485
 30
0.0
 10
620.309992
 20
1375.213165
 30
0.0
 10
618.903720
 20
1375.343485
 30
0.0
  0
LWPOLYLINE
  5
153
100
AcDbEntity
  8
Layer_1
 62
7
100
AcDbPolyline
 90
35
 70
0
 10
708.195032
 20
1375.343485
 30
0.0
 10
706.836576
 20
1375.729965
 30
0.0
 10
705.572280
 20
1376.359485
 30
0.0
 10
704.445192
 20
1377.210685
 30
0.0
 10
703.493712
 20
1378.254365
 30
0.0
 10
702.750184
 20
1379.455245
 30
0.0
 10
702.239984
 20
1380.772205
 30
0.0
 10
701.980440
 20
1382.160525
 30
0.0
 10
701.980440
 20
1383.572845
 30
0.0
 10
702.239984
 20
1384.961165
 30
0.0
 10
702.750184
 20
1386.278125
 30
0.0
 10
703.493712
 20
1387.478925
 30
0.0
 10
704.445192
 20
1388.522685
 30
0.0
 10
705.572280
 20
1389.373805
 30
0.0
 10
706.836576
 20
1390.003405
 30
0.0
 10
708.195032
 20
1390.389885
 30
0.0
 10
709.601328
 20
1390.520205
 30
0.0
 10
711.007624
 20
1390.389885
 30
0.0
 10
712.366080
 20
1390.003405
 30
0.0
 10
713.630376
 20
1389.373805
 30
0.0
 10
714.757464
 20
1388.522685
 30
0.0
 10
715.708944
 20
1387.478925
 30
0.0
 10
716.452472
 20
1386.278125
 30
0.0
 10
716.962680
 20
1384.961165
 30
0.0
 10
717.222216
 20
1383.572845
 30
0.0
 10
717.222216
 20
1382.160525
 30
0.0
 10
716.962680
 20
1380.772205
 30
0.0
 10
716.452472
 20
1379.455245
 30
0.0
 10
715.708944
 20
1378.254365
 30
0.0
 10
714.757464
 20
1377.210685
 30
0.0
 10
713.630376
 20
1376.359485
 30
0.0
 10
712.366080
 20
1375.729965
 30
0.0
 10
711.007624
 20
1375.343485
 30
0.0
 10
709.601328
 20
1375.213165
 30
0.0
 10
708.195032
 20
1375.343485
 30
0.0
  0
LWPOLYLINE
  5
154
100
AcDbEntity
  8
Layer_1
 62
7
100
AcDbPolyline
 90
5
 70
0
 10
611.239120
 20
1319.228925
 30
0.0
 10
611.239120
 20
1361.465165
 30
0.0
 10
629.380856
 20
1361.465165
 30
0.0
 10
629.380856
 20
1319.228925
 30
0.0
 10
611.239120
 20
1319.228925
 30
0.0
  0
LWPOLYLINE
  5
155
100
AcDbEntity
  8
Layer_1
 62
7
100
AcDbPolyline
 90
5
 70
0
 10
700.530464
 20
1319.228925
 30
0.0
 10
700.530464
 20
1361.465165
 30
0.0
 10
718.672192
 20
1361.465165
 30
0.0
 10
718.672192
 20
1319.228925
 30
0.0
 10
700.530464
 20
1319.228925
 30
0.0
  0
LWPOLYLINE
  5
156
100
AcDbEntity
  8
Layer_1
 62
7
100
AcDbPolyline
 90
5
 70
0
 10
611.239120
 20
993.244605
 30
0.0
 10
611.239120
 20
1035.480845
 30
0.0
 10
629.380856
 20
1035.480845
 30
0.0
 10
629.380856
 20
993.244605
 30
0.0
 10
611.239120
 20
993.244605
 30
0.0
  0
LWPOLYLINE
  5
157
100
AcDbEntity
  8
Layer_1
 62
7
100
AcDbPolyline
 90
5
 70
0
 10
700.530464
 20
993.244605
 30
0.0
 10
700.530464
 20
1035.480845
 30
0.0
 10
718.672192
 20
1035.480845
 30
0.0
 10
718.672192
 20
993.244605
 30
0.0
 10
700.530464
 20
993.244605
 30
0.0
  0
LWPOLYLINE
  5
158
100
AcDbEntity
  8
Layer_1
 62
7
100
AcDbPolyline
 90
35
 70
0
 10
708.195032
 20
964.319885
 30
0.0
 10
706.836576
 20
964.705405
 30
0.0
 10
705.572280
 20
965.334685
 30
0.0
 10
704.445192
 20
966.187965
 30
0.0
 10
703.493712
 20
967.231085
 30
0.0
 10
702.750184
 20
968.433005
 30
0.0
 10
702.239984
 20
969.748285
 30
0.0
 10
701.980440
 20
971.137245
 30
0.0
 10
701.980440
 20
972.548925
 30
0.0
 10
702.239984
 20
973.937885
 30
0.0
 10
702.750184
 20
975.253165
 30
0.0
 10
703.493712
 20
976.455005
 30
0.0
 10
704.445192
 20
977.498205
 30
0.0
 10
705.572280
 20
978.351405
 30
0.0
 10
706.836576
 20
978.980685
 30
0.0
 10
708.195032
 20
979.366205
 30
0.0
 10
709.601328
 20
979.496605
 30
0.0
 10
711.007624
 20
979.366205
 30
0.0
 10
712.366080
 20
978.980685
 30
0.0
 10
713.630376
 20
978.351405
 30
0.0
 10
714.757464
 20
977.498205
 30
0.0
 10
715.708944
 20
976.455005
 30
0.0
 10
716.452472
 20
975.253165
 30
0.0
 10
716.962680
 20
973.937885
 30
0.0
 10
717.222216
 20
972.548925
 30
0.0
 10
717.222216
 20
971.137245
 30
0.0
 10
716.962680
 20
969.748285
 30
0.0
 10
716.452472
 20
968.433005
 30
0.0
 10
715.708944
 20
967.231085
 30
0.0
 10
714.757464
 20
966.187965
 30
0.0
 10
713.630376
 20
965.334685
 30
0.0
 10
712.366080
 20
964.705405
 30
0.0
 10
711.007624
 20
964.319885
 30
0.0
 10
709.601328
 20
964.189485
 30
0.0
 10
708.195032
 20
964.319885
 30
0.0
  0
LWPOLYLINE
  5
159
100
AcDbEntity
  8
Layer_1
 62
7
100
AcDbPolyline
 90
35
 70
0
 10
618.903720
 20
964.319885
 30
0.0
 10
617.545360
 20
964.705405
 30
0.0
 10
616.280824
 20
965.334685
 30
0.0
 10
615.153768
 20
966.187965
 30
0.0
 10
614.202464
 20
967.231085
 30
0.0
 10
613.458936
 20
968.433005
 30
0.0
 10
612.948696
 20
969.748285
 30
0.0
 10
612.689048
 20
971.137245
 30
0.0
 10
612.689048
 20
972.548925
 30
0.0
 10
612.948696
 20
973.937885
 30
0.0
 10
613.458936
 20
975.253165
 30
0.0
 10
614.202464
 20
976.455005
 30
0.0
 10
615.153768
 20
977.498205
 30
0.0
 10
616.280824
 20
978.351405
 30
0.0
 10
617.545360
 20
978.980685
 30
0.0
 10
618.903720
 20
979.366205
 30
0.0
 10
620.309992
 20
979.496605
 30
0.0
 10
621.716256
 20
979.366205
 30
0.0
 10
623.074904
 20
978.980685
 30
0.0
 10
624.339152
 20
978.351405
 30
0.0
 10
625.466208
 20
977.498205
 30
0.0
 10
626.417520
 20
976.455005
 30
0.0
 10
627.161048
 20
975.253165
 30
0.0
 10
627.671280
 20
973.937885
 30
0.0
 10
627.930936
 20
972.548925
 30
0.0
 10
627.930936
 20
971.137245
 30
0.0
 10
627.671280
 20
969.748285
 30
0.0
 10
627.161048
 20
968.433005
 30
0.0
 10
626.417520
 20
967.231085
 30
0.0
 10
625.466208
 20
966.187965
 30
0.0
 10
624.339152
 20
965.334685
 30
0.0
 10
623.074904
 20
964.705405
 30
0.0
 10
621.716256
 20
964.319885
 30
0.0
 10
620.309992
 20
964.189485
 30
0.0
 10
618.903720
 20
964.319885
 30
0.0
  0
LWPOLYLINE
  5
15a
100
AcDbEntity
  8
Layer_1
 62
7
100
AcDbPolyline
 90
5
 70
0
 10
611.239120
 20
908.205245
 30
0.0
 10
611.239120
 20
950.441485
 30
0.0
 10
629.380856
 20
950.441485
 30
0.0
 10
629.380856
 20
908.205245
 30
0.0
 10
611.239120
 20
908.205245
 30
0.0
  0
LWPOLYLINE
  5
15b
100
AcDbEntity
  8
Layer_1
 62
7
100
AcDbPolyline
 90
5
 70
0
 10
700.530464
 20
908.205245
 30
0.0
 10
700.530464
 20
950.441485
 30
0.0
 10
718.672192
 20
950.441485
 30
0.0
 10
718.672192
 20
908.205245
 30
0.0
 10
700.530464
 20
908.205245
 30
0.0
  0
LWPOLYLINE
  5
15c
100
AcDbEntity
  8
Layer_1
 62
7
100
AcDbPolyline
 90
35
 70
0
 10
574.958208
 20
765.798365
 30
0.0
 10
573.569800
 20
766.056285
 30
0.0
 10
572.252824
 20
766.566525
 30
0.0
 10
571.052072
 20
767.309165
 30
0.0
 10
570.008352
 20
768.261645
 30
0.0
 10
569.157104
 20
769.389805
 30
0.0
 10
568.527536
 20
770.654045
 30
0.0
 10
568.141168
 20
772.011885
 30
0.0
 10
568.010776
 20
773.417885
 30
0.0
 10
568.141168
 20
774.823885
 30
0.0
 10
568.527536
 20
776.181645
 30
0.0
 10
569.157104
 20
777.445885
 30
0.0
 10
570.008352
 20
778.574045
 30
0.0
 10
571.052072
 20
779.526525
 30
0.0
 10
572.252824
 20
780.269165
 30
0.0
 10
573.569800
 20
780.779405
 30
0.0
 10
574.958208
 20
781.037405
 30
0.0
 10
576.370432
 20
781.037405
 30
0.0
 10
577.758840
 20
780.779405
 30
0.0
 10
579.075816
 20
780.269165
 30
0.0
 10
580.276576
 20
779.526525
 30
0.0
 10
581.320288
 20
778.574045
 30
0.0
 10
582.171536
 20
777.445885
 30
0.0
 10
582.801104
 20
776.181645
 30
0.0
 10
583.187472
 20
774.823885
 30
0.0
 10
583.317864
 20
773.417885
 30
0.0
 10
583.187472
 20
772.011885
 30
0.0
 10
582.801104
 20
770.654045
 30
0.0
 10
582.171536
 20
769.389805
 30
0.0
 10
581.320288
 20
768.261645
 30
0.0
 10
580.276576
 20
767.309165
 30
0.0
 10
579.075816
 20
766.566525
 30
0.0
 10
577.758840
 20
766.056285
 30
0.0
 10
576.370432
 20
765.798365
 30
0.0
 10
574.958208
 20
765.798365
 30
0.0
  0
LWPOLYLINE
  5
15d
100
AcDbEntity
  8
Layer_1
 62
7
100
AcDbPolyline
 90
35
 70
0
 10
681.257392
 20
765.798365
 30
0.0
 10
679.869016
 20
766.056285
 30
0.0
 10
678.552040
 20
766.566525
 30
0.0
 10
677.351280
 20
767.309165
 30
0.0
 10
676.307560
 20
768.261645
 30
0.0
 10
675.456320
 20
769.389805
 30
0.0
 10
674.826744
 20
770.654045
 30
0.0
 10
674.440384
 20
772.011885
 30
0.0
 10
674.309992
 20
773.417885
 30
0.0
 10
674.440384
 20
774.823885
 30
0.0
 10
674.826744
 20
776.181645
 30
0.0
 10
675.456320
 20
777.445885
 30
0.0
 10
676.307560
 20
778.574045
 30
0.0
 10
677.351280
 20
779.526525
 30
0.0
 10
678.552040
 20
780.269165
 30
0.0
 10
679.869016
 20
780.779405
 30
0.0
 10
681.257392
 20
781.037405
 30
0.0
 10
682.669728
 20
781.037405
 30
0.0
 10
684.058024
 20
780.779405
 30
0.0
 10
685.375056
 20
780.269165
 30
0.0
 10
686.575840
 20
779.526525
 30
0.0
 10
687.619584
 20
778.574045
 30
0.0
 10
688.470720
 20
777.445885
 30
0.0
 10
689.100264
 20
776.181645
 30
0.0
 10
689.486800
 20
774.823885
 30
0.0
 10
689.617104
 20
773.417885
 30
0.0
 10
689.486800
 20
772.011885
 30
0.0
 10
689.100264
 20
770.654045
 30
0.0
 10
688.470720
 20
769.389805
 30
0.0
 10
687.619584
 20
768.261645
 30
0.0
 10
686.575840
 20
767.309165
 30
0.0
 10
685.375056
 20
766.566525
 30
0.0
 10
684.058024
 20
766.056285
 30
0.0
 10
682.669728
 20
765.798365
 30
0.0
 10
681.257392
 20
765.798365
 30
0.0
  0
LWPOLYLINE
  5
15e
100
AcDbEntity
  8
Layer_1
 62
7
100
AcDbPolyline
 90
35
 70
0
 10
681.257392
 20
709.105405
 30
0.0
 10
679.869016
 20
709.363405
 30
0.0
 10
678.552040
 20
709.873645
 30
0.0
 10
677.351280
 20
710.616285
 30
0.0
 10
676.307560
 20
711.568765
 30
0.0
 10
675.456320
 20
712.696925
 30
0.0
 10
674.826744
 20
713.961165
 30
0.0
 10
674.440384
 20
715.318925
 30
0.0
 10
674.309992
 20
716.724925
 30
0.0
 10
674.440384
 20
718.130925
 30
0.0
 10
674.826744
 20
719.488765
 30
0.0
 10
675.456320
 20
720.753005
 30
0.0
 10
676.307560
 20
721.881165
 30
0.0
 10
677.351280
 20
722.833645
 30
0.0
 10
678.552040
 20
723.576285
 30
0.0
 10
679.869016
 20
724.086525
 30
0.0
 10
681.257392
 20
724.344445
 30
0.0
 10
682.669728
 20
724.344445
 30
0.0
 10
684.058024
 20
724.086525
 30
0.0
 10
685.375056
 20
723.576285
 30
0.0
 10
686.575840
 20
722.833645
 30
0.0
 10
687.619584
 20
721.881165
 30
0.0
 10
688.470720
 20
720.753005
 30
0.0
 10
689.100264
 20
719.488765
 30
0.0
 10
689.486800
 20
718.130925
 30
0.0
 10
689.617104
 20
716.724925
 30
0.0
 10
689.486800
 20
715.318925
 30
0.0
 10
689.100264
 20
713.961165
 30
0.0
 10
688.470720
 20
712.696925
 30
0.0
 10
687.619584
 20
711.568765
 30
0.0
 10
686.575840
 20
710.616285
 30
0.0
 10
685.375056
 20
709.873645
 30
0.0
 10
684.058024
 20
709.363405
 30
0.0
 10
682.669728
 20
709.105405
 30
0.0
 10
681.257392
 20
709.105405
 30
0.0
  0
LWPOLYLINE
  5
15f
100
AcDbEntity
  8
Layer_1
 62
7
100
AcDbPolyline
 90
35
 70
0
 10
574.958208
 20
709.105405
 30
0.0
 10
573.569800
 20
709.363405
 30
0.0
 10
572.252824
 20
709.873645
 30
0.0
 10
571.052072
 20
710.616285
 30
0.0
 10
570.008352
 20
711.568765
 30
0.0
 10
569.157104
 20
712.696925
 30
0.0
 10
568.527536
 20
713.961165
 30
0.0
 10
568.141168
 20
715.318925
 30
0.0
 10
568.010776
 20
716.724925
 30
0.0
 10
568.141168
 20
718.130925
 30
0.0
 10
568.527536
 20
719.488765
 30
0.0
 10
569.157104
 20
720.753005
 30
0.0
 10
570.008352
 20
721.881165
 30
0.0
 10
571.052072
 20
722.833645
 30
0.0
 10
572.252824
 20
723.576285
 30
0.0
 10
573.569800
 20
724.086525
 30
0.0
 10
574.958208
 20
724.344445
 30
0.0
 10
576.370432
 20
724.344445
 30
0.0
 10
577.758840
 20
724.086525
 30
0.0
 10
579.075816
 20
723.576285
 30
0.0
 10
580.276576
 20
722.833645
 30
0.0
 10
581.320288
 20
721.881165
 30
0.0
 10
582.171536
 20
720.753005
 30
0.0
 10
582.801104
 20
719.488765
 30
0.0
 10
583.187472
 20
718.130925
 30
0.0
 10
583.317864
 20
716.724925
 30
0.0
 10
583.187472
 20
715.318925
 30
0.0
 10
582.801104
 20
713.961165
 30
0.0
 10
582.171536
 20
712.696925
 30
0.0
 10
581.320288
 20
711.568765
 30
0.0
 10
580.276576
 20
710.616285
 30
0.0
 10
579.075816
 20
709.873645
 30
0.0
 10
577.758840
 20
709.363405
 30
0.0
 10
576.370432
 20
709.105405
 30
0.0
 10
574.958208
 20
709.105405
 30
0.0
  0
LWPOLYLINE
  5
160
100
AcDbEntity
  8
Layer_1
 62
7
100
AcDbPolyline
 90
5
 70
0
 10
659.428096
 20
670.095005
 30
0.0
 10
659.428096
 20
688.236765
 30
0.0
 10
701.664352
 20
688.236765
 30
0.0
 10
701.664352
 20
670.095005
 30
0.0
 10
659.428096
 20
670.095005
 30
0.0
  0
LWPOLYLINE
  5
161
100
AcDbEntity
  8
Layer_1
 62
7
100
AcDbPolyline
 90
5
 70
0
 10
574.388728
 20
670.095005
 30
0.0
 10
574.388728
 20
688.236765
 30
0.0
 10
616.624952
 20
688.236765
 30
0.0
 10
616.624952
 20
670.095005
 30
0.0
 10
574.388728
 20
670.095005
 30
0.0
  0
LWPOLYLINE
  5
162
100
AcDbEntity
  8
Layer_1
 62
7
100
AcDbPolyline
 90
35
 70
0
 10
637.320416
 20
671.546365
 30
0.0
 10
635.932008
 20
671.804285
 30
0.0
 10
634.615032
 20
672.314525
 30
0.0
 10
633.414272
 20
673.057245
 30
0.0
 10
632.370560
 20
674.009645
 30
0.0
 10
631.519312
 20
675.137885
 30
0.0
 10
630.889736
 20
676.402125
 30
0.0
 10
630.503376
 20
677.759885
 30
0.0
 10
630.372984
 20
679.165885
 30
0.0
 10
630.503376
 20
680.571885
 30
0.0
 10
630.889736
 20
681.929645
 30
0.0
 10
631.519312
 20
683.193885
 30
0.0
 10
632.370560
 20
684.322125
 30
0.0
 10
633.414272
 20
685.274525
 30
0.0
 10
634.615032
 20
686.017245
 30
0.0
 10
635.932008
 20
686.527485
 30
0.0
 10
637.320416
 20
686.785405
 30
0.0
 10
638.732632
 20
686.785405
 30
0.0
 10
640.121048
 20
686.527485
 30
0.0
 10
641.438024
 20
686.017245
 30
0.0
 10
642.638776
 20
685.274525
 30
0.0
 10
643.682496
 20
684.322125
 30
0.0
 10
644.533736
 20
683.193885
 30
0.0
 10
645.163312
 20
681.929645
 30
0.0
 10
645.549672
 20
680.571885
 30
0.0
 10
645.680072
 20
679.165885
 30
0.0
 10
645.549672
 20
677.759885
 30
0.0
 10
645.163312
 20
676.402125
 30
0.0
 10
644.533736
 20
675.137885
 30
0.0
 10
643.682496
 20
674.009645
 30
0.0
 10
642.638776
 20
673.057245
 30
0.0
 10
641.438024
 20
672.314525
 30
0.0
 10
640.121048
 20
671.804285
 30
0.0
 10
638.732632
 20
671.546365
 30
0.0
 10
637.320416
 20
671.546365
 30
0.0
  0
LWPOLYLINE
  5
163
100
AcDbEntity
  8
Layer_1
 62
7
100
AcDbPolyline
 90
29
 70
0
 10
538.818723
 20
2077.354908
 30
0.0
 10
503.385653
 20
2077.354908
 30
0.0
 10
503.385653
 20
2091.173804
 30
0.0
 10
498.779353
 20
2095.780108
 30
0.0
 10
465.472266
 20
2095.780108
 30
0.0
 10
460.865967
 20
2091.173804
 30
0.0
 10
460.865967
 20
2077.354908
 30
0.0
 10
446.409274
 20
2077.354908
 30
0.0
 10
446.409274
 20
2057.795852
 30
0.0
 10
450.802975
 20
2057.795852
 30
0.0
 10
450.802975
 20
2041.638372
 30
0.0
 10
446.409274
 20
2041.638372
 30
0.0
 10
446.409274
 20
2022.079316
 30
0.0
 10
432.802975
 20
2022.079316
 30
0.0
 10
432.802975
 20
2041.638372
 30
0.0
 10
428.409272
 20
2041.638372
 30
0.0
 10
428.409272
 20
2057.795852
 30
0.0
 10
432.802975
 20
2057.795852
 30
0.0
 10
432.802975
 20
2077.354908
 30
0.0
 10
418.346280
 20
2077.354908
 30
0.0
 10
418.346280
 20
2091.173804
 30
0.0
 10
413.739984
 20
2095.780108
 30
0.0
 10
380.432896
 20
2095.780108
 30
0.0
 10
375.826600
 20
2091.173804
 30
0.0
 10
375.826600
 20
2077.354908
 30
0.0
 10
340.393528
 20
2077.354908
 30
0.0
 10
340.393528
 20
631.685604
 30
0.0
 10
538.818723
 20
631.685604
 30
0.0
 10
538.818723
 20
2077.354908
 30
0.0
  0
LWPOLYLINE
  5
164
100
AcDbEntity
  8
Layer_1
 62
7
100
AcDbPolyline
 90
35
 70
0
 10
482.836994
 20
2041.388924
 30
0.0
 10
481.448613
 20
2041.646876
 30
0.0
 10
480.131637
 20
2042.157116
 30
0.0
 10
478.930881
 20
2042.899788
 30
0.0
 10
477.887164
 20
2043.852236
 30
0.0
 10
477.035920
 20
2044.980420
 30
0.0
 10
476.406346
 20
2046.244676
 30
0.0
 10
476.019983
 20
2047.602468
 30
0.0
 10
475.889590
 20
2049.008452
 30
0.0
 10
476.019983
 20
2050.414436
 30
0.0
 10
476.406346
 20
2051.772236
 30
0.0
 10
477.035920
 20
2053.036484
 30
0.0
 10
477.887164
 20
2054.164676
 30
0.0
 10
478.930881
 20
2055.117116
 30
0.0
 10
480.131637
 20
2055.859788
 30
0.0
 10
481.448613
 20
2056.370028
 30
0.0
 10
482.836994
 20
2056.627980
 30
0.0
 10
484.249328
 20
2056.627980
 30
0.0
 10
485.637624
 20
2056.370028
 30
0.0
 10
486.954657
 20
2055.859788
 30
0.0
 10
488.155442
 20
2055.117116
 30
0.0
 10
489.199186
 20
2054.164676
 30
0.0
 10
490.050317
 20
2053.036484
 30
0.0
 10
490.679863
 20
2051.772236
 30
0.0
 10
491.066396
 20
2050.414436
 30
0.0
 10
491.196704
 20
2049.008452
 30
0.0
 10
491.066396
 20
2047.602468
 30
0.0
 10
490.679863
 20
2046.244676
 30
0.0
 10
490.050317
 20
2044.980420
 30
0.0
 10
489.199186
 20
2043.852236
 30
0.0
 10
488.155442
 20
2042.899788
 30
0.0
 10
486.954657
 20
2042.157116
 30
0.0
 10
485.637624
 20
2041.646876
 30
0.0
 10
484.249328
 20
2041.388924
 30
0.0
 10
482.836994
 20
2041.388924
 30
0.0
  0
LWPOLYLINE
  5
165
100
AcDbEntity
  8
Layer_1
 62
7
100
AcDbPolyline
 90
35
 70
0
 10
376.537808
 20
2041.388924
 30
0.0
 10
375.149400
 20
2041.646876
 30
0.0
 10
373.832424
 20
2042.157116
 30
0.0
 10
372.631672
 20
2042.899788
 30
0.0
 10
371.587952
 20
2043.852236
 30
0.0
 10
370.736704
 20
2044.980420
 30
0.0
 10
370.107136
 20
2046.244676
 30
0.0
 10
369.720768
 20
2047.602468
 30
0.0
 10
369.590376
 20
2049.008452
 30
0.0
 10
369.720768
 20
2050.414436
 30
0.0
 10
370.107136
 20
2051.772236
 30
0.0
 10
370.736704
 20
2053.036484
 30
0.0
 10
371.587952
 20
2054.164676
 30
0.0
 10
372.631672
 20
2055.117116
 30
0.0
 10
373.832424
 20
2055.859788
 30
0.0
 10
375.149400
 20
2056.370028
 30
0.0
 10
376.537808
 20
2056.627980
 30
0.0
 10
377.950032
 20
2056.627980
 30
0.0
 10
379.338440
 20
2056.370028
 30
0.0
 10
380.655416
 20
2055.859788
 30
0.0
 10
381.856176
 20
2055.117116
 30
0.0
 10
382.899888
 20
2054.164676
 30
0.0
 10
383.751136
 20
2053.036484
 30
0.0
 10
384.380704
 20
2051.772236
 30
0.0
 10
384.767072
 20
2050.414436
 30
0.0
 10
384.897464
 20
2049.008452
 30
0.0
 10
384.767072
 20
2047.602468
 30
0.0
 10
384.380704
 20
2046.244676
 30
0.0
 10
383.751136
 20
2044.980420
 30
0.0
 10
382.899888
 20
2043.852236
 30
0.0
 10
381.856176
 20
2042.899788
 30
0.0
 10
380.655416
 20
2042.157116
 30
0.0
 10
379.338440
 20
2041.646876
 30
0.0
 10
377.950032
 20
2041.388924
 30
0.0
 10
376.537808
 20
2041.388924
 30
0.0
  0
LWPOLYLINE
  5
166
100
AcDbEntity
  8
Layer_1
 62
7
100
AcDbPolyline
 90
35
 70
0
 10
482.836994
 20
1984.696012
 30
0.0
 10
481.448613
 20
1984.953964
 30
0.0
 10
480.131637
 20
1985.464204
 30
0.0
 10
478.930881
 20
1986.206876
 30
0.0
 10
477.887164
 20
1987.159316
 30
0.0
 10
477.035920
 20
1988.287508
 30
0.0
 10
476.406346
 20
1989.551756
 30
0.0
 10
476.019983
 20
1990.909556
 30
0.0
 10
475.889590
 20
1992.315540
 30
0.0
 10
476.019983
 20
1993.721524
 30
0.0
 10
476.406346
 20
1995.079316
 30
0.0
 10
477.035920
 20
1996.343572
 30
0.0
 10
477.887164
 20
1997.471756
 30
0.0
 10
478.930881
 20
1998.424204
 30
0.0
 10
480.131637
 20
1999.166876
 30
0.0
 10
481.448613
 20
1999.677116
 30
0.0
 10
482.836994
 20
1999.935068
 30
0.0
 10
484.249328
 20
1999.935068
 30
0.0
 10
485.637624
 20
1999.677116
 30
0.0
 10
486.954657
 20
1999.166876
 30
0.0
 10
488.155442
 20
1998.424204
 30
0.0
 10
489.199186
 20
1997.471756
 30
0.0
 10
490.050317
 20
1996.343572
 30
0.0
 10
490.679863
 20
1995.079316
 30
0.0
 10
491.066396
 20
1993.721524
 30
0.0
 10
491.196704
 20
1992.315540
 30
0.0
 10
491.066396
 20
1990.909556
 30
0.0
 10
490.679863
 20
1989.551756
 30
0.0
 10
490.050317
 20
1988.287508
 30
0.0
 10
489.199186
 20
1987.159316
 30
0.0
 10
488.155442
 20
1986.206876
 30
0.0
 10
486.954657
 20
1985.464204
 30
0.0
 10
485.637624
 20
1984.953964
 30
0.0
 10
484.249328
 20
1984.696012
 30
0.0
 10
482.836994
 20
1984.696012
 30
0.0
  0
LWPOLYLINE
  5
167
100
AcDbEntity
  8
Layer_1
 62
7
100
AcDbPolyline
 90
35
 70
0
 10
376.537808
 20
1984.696012
 30
0.0
 10
375.149400
 20
1984.953964
 30
0.0
 10
373.832424
 20
1985.464204
 30
0.0
 10
372.631672
 20
1986.206876
 30
0.0
 10
371.587952
 20
1987.159316
 30
0.0
 10
370.736704
 20
1988.287508
 30
0.0
 10
370.107136
 20
1989.551756
 30
0.0
 10
369.720768
 20
1990.909556
 30
0.0
 10
369.590376
 20
1992.315540
 30
0.0
 10
369.720768
 20
1993.721524
 30
0.0
 10
370.107136
 20
1995.079316
 30
0.0
 10
370.736704
 20
1996.343572
 30
0.0
 10
371.587952
 20
1997.471756
 30
0.0
 10
372.631672
 20
1998.424204
 30
0.0
 10
373.832424
 20
1999.166876
 30
0.0
 10
375.149400
 20
1999.677116
 30
0.0
 10
376.537808
 20
1999.935068
 30
0.0
 10
377.950032
 20
1999.935068
 30
0.0
 10
379.338440
 20
1999.677116
 30
0.0
 10
380.655416
 20
1999.166876
 30
0.0
 10
381.856176
 20
1998.424204
 30
0.0
 10
382.899888
 20
1997.471756
 30
0.0
 10
383.751136
 20
1996.343572
 30
0.0
 10
384.380704
 20
1995.079316
 30
0.0
 10
384.767072
 20
1993.721524
 30
0.0
 10
384.897464
 20
1992.315540
 30
0.0
 10
384.767072
 20
1990.909556
 30
0.0
 10
384.380704
 20
1989.551756
 30
0.0
 10
383.751136
 20
1988.287508
 30
0.0
 10
382.899888
 20
1987.159316
 30
0.0
 10
381.856176
 20
1986.206876
 30
0.0
 10
380.655416
 20
1985.464204
 30
0.0
 10
379.338440
 20
1984.953964
 30
0.0
 10
377.950032
 20
1984.696012
 30
0.0
 10
376.537808
 20
1984.696012
 30
0.0
  0
LWPOLYLINE
  5
168
100
AcDbEntity
  8
Layer_1
 62
7
100
AcDbPolyline
 90
5
 70
0
 10
502.110062
 20
1815.291916
 30
0.0
 10
502.110062
 20
1857.528140
 30
0.0
 10
520.251794
 20
1857.528140
 30
0.0
 10
520.251794
 20
1815.291916
 30
0.0
 10
502.110062
 20
1815.291916
 30
0.0
  0
LWPOLYLINE
  5
169
100
AcDbEntity
  8
Layer_1
 62
7
100
AcDbPolyline
 90
5
 70
0
 10
412.818720
 20
1815.291916
 30
0.0
 10
412.818720
 20
1857.528140
 30
0.0
 10
430.960456
 20
1857.528140
 30
0.0
 10
430.960456
 20
1815.291916
 30
0.0
 10
412.818720
 20
1815.291916
 30
0.0
  0
LWPOLYLINE
  5
16a
100
AcDbEntity
  8
Layer_1
 62
7
100
AcDbPolyline
 90
35
 70
0
 10
420.483320
 20
1786.367196
 30
0.0
 10
419.124960
 20
1786.752708
 30
0.0
 10
417.860424
 20
1787.381996
 30
0.0
 10
416.733368
 20
1788.235228
 30
0.0
 10
415.782064
 20
1789.278372
 30
0.0
 10
415.038536
 20
1790.480260
 30
0.0
 10
414.528296
 20
1791.795540
 30
0.0
 10
414.268648
 20
1793.184516
 30
0.0
 10
414.268648
 20
1794.596172
 30
0.0
 10
414.528296
 20
1795.985148
 30
0.0
 10
415.038536
 20
1797.300420
 30
0.0
 10
415.782064
 20
1798.502308
 30
0.0
 10
416.733368
 20
1799.545460
 30
0.0
 10
417.860424
 20
1800.398692
 30
0.0
 10
419.124960
 20
1801.027980
 30
0.0
 10
420.483320
 20
1801.413492
 30
0.0
 10
421.889592
 20
1801.543884
 30
0.0
 10
423.295856
 20
1801.413492
 30
0.0
 10
424.654504
 20
1801.027980
 30
0.0
 10
425.918752
 20
1800.398692
 30
0.0
 10
427.045808
 20
1799.545460
 30
0.0
 10
427.997120
 20
1798.502308
 30
0.0
 10
428.740648
 20
1797.300420
 30
0.0
 10
429.250880
 20
1795.985148
 30
0.0
 10
429.510536
 20
1794.596172
 30
0.0
 10
429.510536
 20
1793.184516
 30
0.0
 10
429.250880
 20
1791.795540
 30
0.0
 10
428.740648
 20
1790.480260
 30
0.0
 10
427.997120
 20
1789.278372
 30
0.0
 10
427.045808
 20
1788.235228
 30
0.0
 10
425.918752
 20
1787.381996
 30
0.0
 10
424.654504
 20
1786.752708
 30
0.0
 10
423.295856
 20
1786.367196
 30
0.0
 10
421.889592
 20
1786.236796
 30
0.0
 10
420.483320
 20
1786.367196
 30
0.0
  0
LWPOLYLINE
  5
16b
100
AcDbEntity
  8
Layer_1
 62
7
100
AcDbPolyline
 90
35
 70
0
 10
509.774634
 20
1786.367196
 30
0.0
 10
508.416179
 20
1786.752708
 30
0.0
 10
507.151876
 20
1787.381996
 30
0.0
 10
506.024793
 20
1788.235228
 30
0.0
 10
505.073315
 20
1789.278372
 30
0.0
 10
504.329788
 20
1790.480260
 30
0.0
 10
503.819580
 20
1791.795540
 30
0.0
 10
503.560040
 20
1793.184516
 30
0.0
 10
503.560040
 20
1794.596172
 30
0.0
 10
503.819580
 20
1795.985148
 30
0.0
 10
504.329788
 20
1797.300420
 30
0.0
 10
505.073315
 20
1798.502308
 30
0.0
 10
506.024793
 20
1799.545460
 30
0.0
 10
507.151876
 20
1800.398692
 30
0.0
 10
508.416179
 20
1801.027980
 30
0.0
 10
509.774634
 20
1801.413492
 30
0.0
 10
511.180928
 20
1801.543884
 30
0.0
 10
512.587222
 20
1801.413492
 30
0.0
 10
513.945677
 20
1801.027980
 30
0.0
 10
515.209980
 20
1800.398692
 30
0.0
 10
516.337063
 20
1799.545460
 30
0.0
 10
517.288541
 20
1798.502308
 30
0.0
 10
518.032068
 20
1797.300420
 30
0.0
 10
518.542276
 20
1795.985148
 30
0.0
 10
518.801816
 20
1794.596172
 30
0.0
 10
518.801816
 20
1793.184516
 30
0.0
 10
518.542276
 20
1791.795540
 30
0.0
 10
518.032068
 20
1790.480260
 30
0.0
 10
517.288541
 20
1789.278372
 30
0.0
 10
516.337063
 20
1788.235228
 30
0.0
 10
515.209980
 20
1787.381996
 30
0.0
 10
513.945677
 20
1786.752708
 30
0.0
 10
512.587222
 20
1786.367196
 30
0.0
 10
511.180928
 20
1786.236796
 30
0.0
 10
509.774634
 20
1786.367196
 30
0.0
  0
LWPOLYLINE
  5
16c
100
AcDbEntity
  8
Layer_1
 62
7
100
AcDbPolyline
 90
5
 70
0
 10
502.110062
 20
1730.252548
 30
0.0
 10
502.110062
 20
1772.488764
 30
0.0
 10
520.251794
 20
1772.488764
 30
0.0
 10
520.251794
 20
1730.252548
 30
0.0
 10
502.110062
 20
1730.252548
 30
0.0
  0
LWPOLYLINE
  5
16d
100
AcDbEntity
  8
Layer_1
 62
7
100
AcDbPolyline
 90
5
 70
0
 10
412.818720
 20
1730.252548
 30
0.0
 10
412.818720
 20
1772.488764
 30
0.0
 10
430.960456
 20
1772.488764
 30
0.0
 10
430.960456
 20
1730.252548
 30
0.0
 10
412.818720
 20
1730.252548
 30
0.0
  0
LWPOLYLINE
  5
16e
100
AcDbEntity
  8
Layer_1
 62
7
100
AcDbPolyline
 90
5
 70
0
 10
502.110062
 20
1404.268244
 30
0.0
 10
502.110062
 20
1446.504516
 30
0.0
 10
520.251794
 20
1446.504516
 30
0.0
 10
520.251794
 20
1404.268244
 30
0.0
 10
502.110062
 20
1404.268244
 30
0.0
  0
LWPOLYLINE
  5
16f
100
AcDbEntity
  8
Layer_1
 62
7
100
AcDbPolyline
 90
5
 70
0
 10
412.818720
 20
1404.268244
 30
0.0
 10
412.818720
 20
1446.504516
 30
0.0
 10
430.960456
 20
1446.504516
 30
0.0
 10
430.960456
 20
1404.268244
 30
0.0
 10
412.818720
 20
1404.268244
 30
0.0
  0
LWPOLYLINE
  5
170
100
AcDbEntity
  8
Layer_1
 62
7
100
AcDbPolyline
 90
35
 70
0
 10
420.483320
 20
1375.343524
 30
0.0
 10
419.124960
 20
1375.730004
 30
0.0
 10
417.860424
 20
1376.359524
 30
0.0
 10
416.733368
 20
1377.210724
 30
0.0
 10
415.782064
 20
1378.254404
 30
0.0
 10
415.038536
 20
1379.455284
 30
0.0
 10
414.528296
 20
1380.772244
 30
0.0
 10
414.268648
 20
1382.160564
 30
0.0
 10
414.268648
 20
1383.572884
 30
0.0
 10
414.528296
 20
1384.961204
 30
0.0
 10
415.038536
 20
1386.278164
 30
0.0
 10
415.782064
 20
1387.478964
 30
0.0
 10
416.733368
 20
1388.522724
 30
0.0
 10
417.860424
 20
1389.373844
 30
0.0
 10
419.124960
 20
1390.003444
 30
0.0
 10
420.483320
 20
1390.389924
 30
0.0
 10
421.889592
 20
1390.520244
 30
0.0
 10
423.295856
 20
1390.389924
 30
0.0
 10
424.654504
 20
1390.003444
 30
0.0
 10
425.918752
 20
1389.373844
 30
0.0
 10
427.045808
 20
1388.522724
 30
0.0
 10
427.997120
 20
1387.478964
 30
0.0
 10
428.740648
 20
1386.278164
 30
0.0
 10
429.250880
 20
1384.961204
 30
0.0
 10
429.510536
 20
1383.572884
 30
0.0
 10
429.510536
 20
1382.160564
 30
0.0
 10
429.250880
 20
1380.772244
 30
0.0
 10
428.740648
 20
1379.455284
 30
0.0
 10
427.997120
 20
1378.254404
 30
0.0
 10
427.045808
 20
1377.210724
 30
0.0
 10
425.918752
 20
1376.359524
 30
0.0
 10
424.654504
 20
1375.730004
 30
0.0
 10
423.295856
 20
1375.343524
 30
0.0
 10
421.889592
 20
1375.213204
 30
0.0
 10
420.483320
 20
1375.343524
 30
0.0
  0
LWPOLYLINE
  5
171
100
AcDbEntity
  8
Layer_1
 62
7
100
AcDbPolyline
 90
35
 70
0
 10
509.774634
 20
1375.343524
 30
0.0
 10
508.416179
 20
1375.730004
 30
0.0
 10
507.151876
 20
1376.359524
 30
0.0
 10
506.024793
 20
1377.210724
 30
0.0
 10
505.073315
 20
1378.254404
 30
0.0
 10
504.329788
 20
1379.455284
 30
0.0
 10
503.819580
 20
1380.772244
 30
0.0
 10
503.560040
 20
1382.160564
 30
0.0
 10
503.560040
 20
1383.572884
 30
0.0
 10
503.819580
 20
1384.961204
 30
0.0
 10
504.329788
 20
1386.278164
 30
0.0
 10
505.073315
 20
1387.478964
 30
0.0
 10
506.024793
 20
1388.522724
 30
0.0
 10
507.151876
 20
1389.373844
 30
0.0
 10
508.416179
 20
1390.003444
 30
0.0
 10
509.774634
 20
1390.389924
 30
0.0
 10
511.180928
 20
1390.520244
 30
0.0
 10
512.587222
 20
1390.389924
 30
0.0
 10
513.945677
 20
1390.003444
 30
0.0
 10
515.209980
 20
1389.373844
 30
0.0
 10
516.337063
 20
1388.522724
 30
0.0
 10
517.288541
 20
1387.478964
 30
0.0
 10
518.032068
 20
1386.278164
 30
0.0
 10
518.542276
 20
1384.961204
 30
0.0
 10
518.801816
 20
1383.572884
 30
0.0
 10
518.801816
 20
1382.160564
 30
0.0
 10
518.542276
 20
1380.772244
 30
0.0
 10
518.032068
 20
1379.455284
 30
0.0
 10
517.288541
 20
1378.254404
 30
0.0
 10
516.337063
 20
1377.210724
 30
0.0
 10
515.209980
 20
1376.359524
 30
0.0
 10
513.945677
 20
1375.730004
 30
0.0
 10
512.587222
 20
1375.343524
 30
0.0
 10
511.180928
 20
1375.213204
 30
0.0
 10
509.774634
 20
1375.343524
 30
0.0
  0
LWPOLYLINE
  5
172
100
AcDbEntity
  8
Layer_1
 62
7
100
AcDbPolyline
 90
5
 70
0
 10
412.818720
 20
1319.228964
 30
0.0
 10
412.818720
 20
1361.465204
 30
0.0
 10
430.960456
 20
1361.465204
 30
0.0
 10
430.960456
 20
1319.228964
 30
0.0
 10
412.818720
 20
1319.228964
 30
0.0
  0
LWPOLYLINE
  5
173
100
AcDbEntity
  8
Layer_1
 62
7
100
AcDbPolyline
 90
5
 70
0
 10
502.110062
 20
1319.228964
 30
0.0
 10
502.110062
 20
1361.465204
 30
0.0
 10
520.251794
 20
1361.465204
 30
0.0
 10
520.251794
 20
1319.228964
 30
0.0
 10
502.110062
 20
1319.228964
 30
0.0
  0
LWPOLYLINE
  5
174
100
AcDbEntity
  8
Layer_1
 62
7
100
AcDbPolyline
 90
5
 70
0
 10
412.818720
 20
993.244644
 30
0.0
 10
412.818720
 20
1035.480884
 30
0.0
 10
430.960456
 20
1035.480884
 30
0.0
 10
430.960456
 20
993.244644
 30
0.0
 10
412.818720
 20
993.244644
 30
0.0
  0
LWPOLYLINE
  5
175
100
AcDbEntity
  8
Layer_1
 62
7
100
AcDbPolyline
 90
5
 70
0
 10
502.110062
 20
993.244644
 30
0.0
 10
502.110062
 20
1035.480884
 30
0.0
 10
520.251794
 20
1035.480884
 30
0.0
 10
520.251794
 20
993.244644
 30
0.0
 10
502.110062
 20
993.244644
 30
0.0
  0
LWPOLYLINE
  5
176
100
AcDbEntity
  8
Layer_1
 62
7
100
AcDbPolyline
 90
35
 70
0
 10
509.774634
 20
964.319924
 30
0.0
 10
508.416179
 20
964.705444
 30
0.0
 10
507.151876
 20
965.334724
 30
0.0
 10
506.024793
 20
966.188004
 30
0.0
 10
505.073315
 20
967.231124
 30
0.0
 10
504.329788
 20
968.433044
 30
0.0
 10
503.819580
 20
969.748324
 30
0.0
 10
503.560040
 20
971.137284
 30
0.0
 10
503.560040
 20
972.548964
 30
0.0
 10
503.819580
 20
973.937924
 30
0.0
 10
504.329788
 20
975.253204
 30
0.0
 10
505.073315
 20
976.455044
 30
0.0
 10
506.024793
 20
977.498244
 30
0.0
 10
507.151876
 20
978.351444
 30
0.0
 10
508.416179
 20
978.980724
 30
0.0
 10
509.774634
 20
979.366244
 30
0.0
 10
511.180928
 20
979.496644
 30
0.0
 10
512.587222
 20
979.366244
 30
0.0
 10
513.945677
 20
978.980724
 30
0.0
 10
515.209980
 20
978.351444
 30
0.0
 10
516.337063
 20
977.498244
 30
0.0
 10
517.288541
 20
976.455044
 30
0.0
 10
518.032068
 20
975.253204
 30
0.0
 10
518.542276
 20
973.937924
 30
0.0
 10
518.801816
 20
972.548964
 30
0.0
 10
518.801816
 20
971.137284
 30
0.0
 10
518.542276
 20
969.748324
 30
0.0
 10
518.032068
 20
968.433044
 30
0.0
 10
517.288541
 20
967.231124
 30
0.0
 10
516.337063
 20
966.188004
 30
0.0
 10
515.209980
 20
965.334724
 30
0.0
 10
513.945677
 20
964.705444
 30
0.0
 10
512.587222
 20
964.319924
 30
0.0
 10
511.180928
 20
964.189524
 30
0.0
 10
509.774634
 20
964.319924
 30
0.0
  0
LWPOLYLINE
  5
177
100
AcDbEntity
  8
Layer_1
 62
7
100
AcDbPolyline
 90
35
 70
0
 10
420.483320
 20
964.319924
 30
0.0
 10
419.124960
 20
964.705444
 30
0.0
 10
417.860424
 20
965.334724
 30
0.0
 10
416.733368
 20
966.188004
 30
0.0
 10
415.782064
 20
967.231124
 30
0.0
 10
415.038536
 20
968.433044
 30
0.0
 10
414.528296
 20
969.748324
 30
0.0
 10
414.268648
 20
971.137284
 30
0.0
 10
414.268648
 20
972.548964
 30
0.0
 10
414.528296
 20
973.937924
 30
0.0
 10
415.038536
 20
975.253204
 30
0.0
 10
415.782064
 20
976.455044
 30
0.0
 10
416.733368
 20
977.498244
 30
0.0
 10
417.860424
 20
978.351444
 30
0.0
 10
419.124960
 20
978.980724
 30
0.0
 10
420.483320
 20
979.366244
 30
0.0
 10
421.889592
 20
979.496644
 30
0.0
 10
423.295856
 20
979.366244
 30
0.0
 10
424.654504
 20
978.980724
 30
0.0
 10
425.918752
 20
978.351444
 30
0.0
 10
427.045808
 20
977.498244
 30
0.0
 10
427.997120
 20
976.455044
 30
0.0
 10
428.740648
 20
975.253204
 30
0.0
 10
429.250880
 20
973.937924
 30
0.0
 10
429.510536
 20
972.548964
 30
0.0
 10
429.510536
 20
971.137284
 30
0.0
 10
429.250880
 20
969.748324
 30
0.0
 10
428.740648
 20
968.433044
 30
0.0
 10
427.997120
 20
967.231124
 30
0.0
 10
427.045808
 20
966.188004
 30
0.0
 10
425.918752
 20
965.334724
 30
0.0
 10
424.654504
 20
964.705444
 30
0.0
 10
423.295856
 20
964.319924
 30
0.0
 10
421.889592
 20
964.189524
 30
0.0
 10
420.483320
 20
964.319924
 30
0.0
  0
LWPOLYLINE
  5
178
100
AcDbEntity
  8
Layer_1
 62
7
100
AcDbPolyline
 90
5
 70
0
 10
412.818720
 20
908.205284
 30
0.0
 10
412.818720
 20
950.441524
 30
0.0
 10
430.960456
 20
950.441524
 30
0.0
 10
430.960456
 20
908.205284
 30
0.0
 10
412.818720
 20
908.205284
 30
0.0
  0
LWPOLYLINE
  5
179
100
AcDbEntity
  8
Layer_1
 62
7
100
AcDbPolyline
 90
5
 70
0
 10
502.110062
 20
908.205284
 30
0.0
 10
502.110062
 20
950.441524
 30
0.0
 10
520.251794
 20
950.441524
 30
0.0
 10
520.251794
 20
908.205284
 30
0.0
 10
502.110062
 20
908.205284
 30
0.0
  0
LWPOLYLINE
  5
17a
100
AcDbEntity
  8
Layer_1
 62
7
100
AcDbPolyline
 90
35
 70
0
 10
376.537808
 20
765.798404
 30
0.0
 10
375.149400
 20
766.056324
 30
0.0
 10
373.832424
 20
766.566564
 30
0.0
 10
372.631672
 20
767.309204
 30
0.0
 10
371.587952
 20
768.261684
 30
0.0
 10
370.736704
 20
769.389844
 30
0.0
 10
370.107136
 20
770.654084
 30
0.0
 10
369.720768
 20
772.011924
 30
0.0
 10
369.590376
 20
773.417924
 30
0.0
 10
369.720768
 20
774.823924
 30
0.0
 10
370.107136
 20
776.181684
 30
0.0
 10
370.736704
 20
777.445924
 30
0.0
 10
371.587952
 20
778.574084
 30
0.0
 10
372.631672
 20
779.526564
 30
0.0
 10
373.832424
 20
780.269204
 30
0.0
 10
375.149400
 20
780.779444
 30
0.0
 10
376.537808
 20
781.037444
 30
0.0
 10
377.950032
 20
781.037444
 30
0.0
 10
379.338440
 20
780.779444
 30
0.0
 10
380.655416
 20
780.269204
 30
0.0
 10
381.856176
 20
779.526564
 30
0.0
 10
382.899888
 20
778.574084
 30
0.0
 10
383.751136
 20
777.445924
 30
0.0
 10
384.380704
 20
776.181684
 30
0.0
 10
384.767072
 20
774.823924
 30
0.0
 10
384.897464
 20
773.417924
 30
0.0
 10
384.767072
 20
772.011924
 30
0.0
 10
384.380704
 20
770.654084
 30
0.0
 10
383.751136
 20
769.389844
 30
0.0
 10
382.899888
 20
768.261684
 30
0.0
 10
381.856176
 20
767.309204
 30
0.0
 10
380.655416
 20
766.566564
 30
0.0
 10
379.338440
 20
766.056324
 30
0.0
 10
377.950032
 20
765.798404
 30
0.0
 10
376.537808
 20
765.798404
 30
0.0
  0
LWPOLYLINE
  5
17b
100
AcDbEntity
  8
Layer_1
 62
7
100
AcDbPolyline
 90
35
 70
0
 10
482.836994
 20
765.798404
 30
0.0
 10
481.448613
 20
766.056324
 30
0.0
 10
480.131637
 20
766.566564
 30
0.0
 10
478.930881
 20
767.309204
 30
0.0
 10
477.887164
 20
768.261684
 30
0.0
 10
477.035920
 20
769.389844
 30
0.0
 10
476.406346
 20
770.654084
 30
0.0
 10
476.019983
 20
772.011924
 30
0.0
 10
475.889590
 20
773.417924
 30
0.0
 10
476.019983
 20
774.823924
 30
0.0
 10
476.406346
 20
776.181684
 30
0.0
 10
477.035920
 20
777.445924
 30
0.0
 10
477.887164
 20
778.574084
 30
0.0
 10
478.930881
 20
779.526564
 30
0.0
 10
480.131637
 20
780.269204
 30
0.0
 10
481.448613
 20
780.779444
 30
0.0
 10
482.836994
 20
781.037444
 30
0.0
 10
484.249328
 20
781.037444
 30
0.0
 10
485.637624
 20
780.779444
 30
0.0
 10
486.954657
 20
780.269204
 30
0.0
 10
488.155442
 20
779.526564
 30
0.0
 10
489.199186
 20
778.574084
 30
0.0
 10
490.050317
 20
777.445924
 30
0.0
 10
490.679863
 20
776.181684
 30
0.0
 10
491.066396
 20
774.823924
 30
0.0
 10
491.196704
 20
773.417924
 30
0.0
 10
491.066396
 20
772.011924
 30
0.0
 10
490.679863
 20
770.654084
 30
0.0
 10
490.050317
 20
769.389844
 30
0.0
 10
489.199186
 20
768.261684
 30
0.0
 10
488.155442
 20
767.309204
 30
0.0
 10
486.954657
 20
766.566564
 30
0.0
 10
485.637624
 20
766.056324
 30
0.0
 10
484.249328
 20
765.798404
 30
0.0
 10
482.836994
 20
765.798404
 30
0.0
  0
LWPOLYLINE
  5
17c
100
AcDbEntity
  8
Layer_1
 62
7
100
AcDbPolyline
 90
35
 70
0
 10
482.836994
 20
709.105444
 30
0.0
 10
481.448613
 20
709.363444
 30
0.0
 10
480.131637
 20
709.873684
 30
0.0
 10
478.930881
 20
710.616324
 30
0.0
 10
477.887164
 20
711.568804
 30
0.0
 10
477.035920
 20
712.696964
 30
0.0
 10
476.406346
 20
713.961204
 30
0.0
 10
476.019983
 20
715.318964
 30
0.0
 10
475.889590
 20
716.724964
 30
0.0
 10
476.019983
 20
718.130964
 30
0.0
 10
476.406346
 20
719.488804
 30
0.0
 10
477.035920
 20
720.753044
 30
0.0
 10
477.887164
 20
721.881204
 30
0.0
 10
478.930881
 20
722.833684
 30
0.0
 10
480.131637
 20
723.576324
 30
0.0
 10
481.448613
 20
724.086564
 30
0.0
 10
482.836994
 20
724.344484
 30
0.0
 10
484.249328
 20
724.344484
 30
0.0
 10
485.637624
 20
724.086564
 30
0.0
 10
486.954657
 20
723.576324
 30
0.0
 10
488.155442
 20
722.833684
 30
0.0
 10
489.199186
 20
721.881204
 30
0.0
 10
490.050317
 20
720.753044
 30
0.0
 10
490.679863
 20
719.488804
 30
0.0
 10
491.066396
 20
718.130964
 30
0.0
 10
491.196704
 20
716.724964
 30
0.0
 10
491.066396
 20
715.318964
 30
0.0
 10
490.679863
 20
713.961204
 30
0.0
 10
490.050317
 20
712.696964
 30
0.0
 10
489.199186
 20
711.568804
 30
0.0
 10
488.155442
 20
710.616324
 30
0.0
 10
486.954657
 20
709.873684
 30
0.0
 10
485.637624
 20
709.363444
 30
0.0
 10
484.249328
 20
709.105444
 30
0.0
 10
482.836994
 20
709.105444
 30
0.0
  0
LWPOLYLINE
  5
17d
100
AcDbEntity
  8
Layer_1
 62
7
100
AcDbPolyline
 90
35
 70
0
 10
376.537808
 20
709.105444
 30
0.0
 10
375.149400
 20
709.363444
 30
0.0
 10
373.832424
 20
709.873684
 30
0.0
 10
372.631672
 20
710.616324
 30
0.0
 10
371.587952
 20
711.568804
 30
0.0
 10
370.736704
 20
712.696964
 30
0.0
 10
370.107136
 20
713.961204
 30
0.0
 10
369.720768
 20
715.318964
 30
0.0
 10
369.590376
 20
716.724964
 30
0.0
 10
369.720768
 20
718.130964
 30
0.0
 10
370.107136
 20
719.488804
 30
0.0
 10
370.736704
 20
720.753044
 30
0.0
 10
371.587952
 20
721.881204
 30
0.0
 10
372.631672
 20
722.833684
 30
0.0
 10
373.832424
 20
723.576324
 30
0.0
 10
375.149400
 20
724.086564
 30
0.0
 10
376.537808
 20
724.344484
 30
0.0
 10
377.950032
 20
724.344484
 30
0.0
 10
379.338440
 20
724.086564
 30
0.0
 10
380.655416
 20
723.576324
 30
0.0
 10
381.856176
 20
722.833684
 30
0.0
 10
382.899888
 20
721.881204
 30
0.0
 10
383.751136
 20
720.753044
 30
0.0
 10
384.380704
 20
719.488804
 30
0.0
 10
384.767072
 20
718.130964
 30
0.0
 10
384.897464
 20
716.724964
 30
0.0
 10
384.767072
 20
715.318964
 30
0.0
 10
384.380704
 20
713.961204
 30
0.0
 10
383.751136
 20
712.696964
 30
0.0
 10
382.899888
 20
711.568804
 30
0.0
 10
381.856176
 20
710.616324
 30
0.0
 10
380.655416
 20
709.873684
 30
0.0
 10
379.338440
 20
709.363444
 30
0.0
 10
377.950032
 20
709.105444
 30
0.0
 10
376.537808
 20
709.105444
 30
0.0
  0
LWPOLYLINE
  5
17e
100
AcDbEntity
  8
Layer_1
 62
7
100
AcDbPolyline
 90
5
 70
0
 10
461.007700
 20
670.095044
 30
0.0
 10
461.007700
 20
688.236804
 30
0.0
 10
503.243949
 20
688.236804
 30
0.0
 10
503.243949
 20
670.095044
 30
0.0
 10
461.007700
 20
670.095044
 30
0.0
  0
LWPOLYLINE
  5
17f
100
AcDbEntity
  8
Layer_1
 62
7
100
AcDbPolyline
 90
5
 70
0
 10
375.968328
 20
670.095044
 30
0.0
 10
375.968328
 20
688.236804
 30
0.0
 10
418.204552
 20
688.236804
 30
0.0
 10
418.204552
 20
670.095044
 30
0.0
 10
375.968328
 20
670.095044
 30
0.0
  0
LWPOLYLINE
  5
180
100
AcDbEntity
  8
Layer_1
 62
7
100
AcDbPolyline
 90
35
 70
0
 10
438.900014
 20
671.546404
 30
0.0
 10
437.511605
 20
671.804324
 30
0.0
 10
436.194629
 20
672.314564
 30
0.0
 10
434.993873
 20
673.057284
 30
0.0
 10
433.950156
 20
674.009684
 30
0.0
 10
433.098912
 20
675.137924
 30
0.0
 10
432.469338
 20
676.402164
 30
0.0
 10
432.082975
 20
677.759924
 30
0.0
 10
431.952582
 20
679.165924
 30
0.0
 10
432.082975
 20
680.571924
 30
0.0
 10
432.469338
 20
681.929684
 30
0.0
 10
433.098912
 20
683.193924
 30
0.0
 10
433.950156
 20
684.322164
 30
0.0
 10
434.993873
 20
685.274564
 30
0.0
 10
436.194629
 20
686.017284
 30
0.0
 10
437.511605
 20
686.527524
 30
0.0
 10
438.900014
 20
686.785444
 30
0.0
 10
440.312235
 20
686.785444
 30
0.0
 10
441.700645
 20
686.527524
 30
0.0
 10
443.017621
 20
686.017284
 30
0.0
 10
444.218377
 20
685.274564
 30
0.0
 10
445.262094
 20
684.322164
 30
0.0
 10
446.113338
 20
683.193924
 30
0.0
 10
446.742912
 20
681.929684
 30
0.0
 10
447.129274
 20
680.571924
 30
0.0
 10
447.259668
 20
679.165924
 30
0.0
 10
447.129274
 20
677.759924
 30
0.0
 10
446.742912
 20
676.402164
 30
0.0
 10
446.113338
 20
675.137924
 30
0.0
 10
445.262094
 20
674.009684
 30
0.0
 10
444.218377
 20
673.057284
 30
0.0
 10
443.017621
 20
672.314564
 30
0.0
 10
441.700645
 20
671.804324
 30
0.0
 10
440.312235
 20
671.546404
 30
0.0
 10
438.900014
 20
671.546404
 30
0.0
  0
LWPOLYLINE
  5
181
100
AcDbEntity
  8
Layer_1
 62
7
100
AcDbPolyline
 90
48
 70
0
 10
1901.747472
 20
2276.619316
 30
0.0
 10
1902.461808
 20
2275.404116
 30
0.0
 10
1903.119448
 20
2274.157956
 30
0.0
 10
1903.720392
 20
2272.883236
 30
0.0
 10
1904.264640
 20
2271.582676
 30
0.0
 10
1904.749368
 20
2270.258916
 30
0.0
 10
1905.171728
 20
2268.914756
 30
0.0
 10
1905.534560
 20
2267.552676
 30
0.0
 10
1905.835032
 20
2266.175876
 30
0.0
 10
1906.073144
 20
2264.786676
 30
0.0
 10
1906.246056
 20
2263.388036
 30
0.0
 10
1906.356608
 20
2261.983156
 30
0.0
 10
1906.404768
 20
2260.574676
 30
0.0
 10
1906.390640
 20
2259.165236
 30
0.0
 10
1906.311264
 20
2257.758436
 30
0.0
 10
1906.166688
 20
2256.356116
 30
0.0
 10
1905.959760
 20
2254.962036
 30
0.0
 10
1905.690464
 20
2253.578436
 30
0.0
 10
1905.361648
 20
2252.208756
 30
0.0
 10
1904.967632
 20
2250.855236
 30
0.0
 10
1904.514088
 20
2249.520916
 30
0.0
 10
1904.001016
 20
2248.208516
 30
0.0
 10
1903.428416
 20
2246.920436
 30
0.0
 10
1902.799128
 20
2245.659876
 30
0.0
 10
1902.113144
 20
2244.428756
 30
0.0
 10
1901.370464
 20
2243.230036
 30
0.0
 10
1900.576768
 20
2242.065796
 30
0.0
 10
1899.729208
 20
2240.939076
 30
0.0
 10
1898.833456
 20
2239.851396
 30
0.0
 10
1897.889520
 20
2238.805396
 30
0.0
 10
1896.897400
 20
2237.803396
 30
0.0
 10
1895.862752
 20
2236.846916
 30
0.0
 10
1894.785584
 20
2235.938436
 30
0.0
 10
1893.668736
 20
2235.079236
 30
0.0
 10
1892.512200
 20
2234.271716
 30
0.0
 10
1891.321648
 20
2233.517076
 30
0.0
 10
1890.099920
 20
2232.816916
 30
0.0
 10
1888.847000
 20
2232.172916
 30
0.0
 10
1887.565744
 20
2231.586116
 30
0.0
 10
1886.258968
 20
2231.057716
 30
0.0
 10
1884.929520
 20
2230.589156
 30
0.0
 10
1883.580232
 20
2230.180996
 30
0.0
 10
1882.213936
 20
2229.834356
 30
0.0
 10
1880.833456
 20
2229.549476
 30
0.0
 10
1879.441648
 20
2229.327476
 30
0.0
 10
1878.041336
 20
2229.168436
 30
0.0
 10
1876.635352
 20
2229.072916
 30
0.0
 10
1875.226528
 20
2229.040916
 30
0.0
  0
LWPOLYLINE
  5
182
100
AcDbEntity
  8
Layer_1
 62
7
100
AcDbPolyline
 90
2
 70
0
 10
1875.226528
 20
2229.041156
 30
0.0
 10
1873.817712
 20
2229.073156
 30
0.0
  0
LWPOLYLINE
  5
183
100
AcDbEntity
  8
Layer_1
 62
7
100
AcDbPolyline
 90
110
 70
0
 10
1873.817712
 20
2229.072916
 30
0.0
 10
1872.411728
 20
2229.168436
 30
0.0
 10
1871.011416
 20
2229.327476
 30
0.0
 10
1869.619600
 20
2229.549476
 30
0.0
 10
1868.239128
 20
2229.834356
 30
0.0
 10
1866.872832
 20
2230.180996
 30
0.0
 10
1865.523536
 20
2230.589156
 30
0.0
 10
1864.194088
 20
2231.057716
 30
0.0
 10
1862.887320
 20
2231.586116
 30
0.0
 10
1861.606056
 20
2232.172916
 30
0.0
 10
1860.353144
 20
2232.816916
 30
0.0
 10
1859.131408
 20
2233.517076
 30
0.0
 10
1857.940864
 20
2234.271716
 30
0.0
 10
1856.784328
 20
2235.079236
 30
0.0
 10
1855.667472
 20
2235.938436
 30
0.0
 10
1854.590312
 20
2236.846916
 30
0.0
 10
1853.555664
 20
2237.803396
 30
0.0
 10
1852.563536
 20
2238.805396
 30
0.0
 10
1851.619600
 20
2239.851396
 30
0.0
 10
1850.723856
 20
2240.939076
 30
0.0
 10
1849.876296
 20
2242.065796
 30
0.0
 10
1849.082592
 20
2243.230036
 30
0.0
 10
1848.339912
 20
2244.428756
 30
0.0
 10
1847.653928
 20
2245.659876
 30
0.0
 10
1847.024640
 20
2246.920436
 30
0.0
 10
1846.452040
 20
2248.208516
 30
0.0
 10
1845.938968
 20
2249.520916
 30
0.0
 10
1845.485424
 20
2250.855236
 30
0.0
 10
1845.091408
 20
2252.208756
 30
0.0
 10
1844.762592
 20
2253.578436
 30
0.0
 10
1844.493304
 20
2254.962036
 30
0.0
 10
1844.286376
 20
2256.356116
 30
0.0
 10
1844.141808
 20
2257.758436
 30
0.0
 10
1844.062448
 20
2259.165236
 30
0.0
 10
1844.048280
 20
2260.574676
 30
0.0
 10
1844.096424
 20
2261.983156
 30
0.0
 10
1844.207000
 20
2263.388036
 30
0.0
 10
1844.379912
 20
2264.786676
 30
0.0
 10
1844.618024
 20
2266.175876
 30
0.0
 10
1844.918496
 20
2267.552676
 30
0.0
 10
1845.281336
 20
2268.914756
 30
0.0
 10
1845.703696
 20
2270.258916
 30
0.0
 10
1846.188416
 20
2271.582676
 30
0.0
 10
1846.732672
 20
2272.883236
 30
0.0
 10
1847.333616
 20
2274.157956
 30
0.0
 10
1847.991256
 20
2275.404116
 30
0.0
 10
1848.705584
 20
2276.619316
 30
0.0
 10
1849.102432
 20
2277.230196
 30
0.0
 10
1829.914720
 20
2277.230196
 30
0.0
 10
1819.950936
 20
2267.267236
 30
0.0
 10
1819.950936
 20
2255.970356
 30
0.0
 10
1783.100544
 20
2255.970356
 30
0.0
 10
1783.100544
 20
2267.267236
 30
0.0
 10
1773.136768
 20
2277.230196
 30
0.0
 10
1682.512296
 20
2277.230196
 30
0.0
 10
1672.549368
 20
2267.267236
 30
0.0
 10
1672.549368
 20
2255.970356
 30
0.0
 10
1505.305270
 20
2255.970356
 30
0.0
 10
1505.305270
 20
2267.267236
 30
0.0
 10
1495.342342
 20
2277.230196
 30
0.0
 10
1476.154313
 20
2277.230196
 30
0.0
 10
1476.551277
 20
2276.619316
 30
0.0
 10
1477.265126
 20
2275.404116
 30
0.0
 10
1477.923330
 20
2274.157956
 30
0.0
 10
1478.524672
 20
2272.883236
 30
0.0
 10
1479.067506
 20
2271.582676
 30
0.0
 10
1479.551381
 20
2270.258916
 30
0.0
 10
1479.974594
 20
2268.914756
 30
0.0
 10
1480.336861
 20
2267.552676
 30
0.0
 10
1480.637050
 20
2266.175876
 30
0.0
 10
1480.874877
 20
2264.786676
 30
0.0
 10
1481.049491
 20
2263.388036
 30
0.0
 10
1481.160893
 20
2261.983156
 30
0.0
 10
1481.208797
 20
2260.574676
 30
0.0
 10
1481.192926
 20
2259.165236
 30
0.0
 10
1481.113268
 20
2257.758436
 30
0.0
 10
1480.970121
 20
2256.356116
 30
0.0
 10
1480.763758
 20
2254.962036
 30
0.0
 10
1480.494751
 20
2253.578436
 30
0.0
 10
1480.163381
 20
2252.208756
 30
0.0
 10
1479.770499
 20
2250.855236
 30
0.0
 10
1479.316955
 20
2249.520916
 30
0.0
 10
1478.803318
 20
2248.208516
 30
0.0
 10
1478.231145
 20
2246.920436
 30
0.0
 10
1477.601258
 20
2245.659876
 30
0.0
 10
1476.915075
 20
2244.428756
 30
0.0
 10
1476.173929
 20
2243.230036
 30
0.0
 10
1475.379378
 20
2242.065796
 30
0.0
 10
1474.533038
 20
2240.939076
 30
0.0
 10
1473.636666
 20
2239.851396
 30
0.0
 10
1472.692049
 20
2238.805396
 30
0.0
 10
1471.701113
 20
2237.803396
 30
0.0
 10
1470.665929
 20
2236.846916
 30
0.0
 10
1469.588594
 20
2235.938436
 30
0.0
 10
1468.471318
 20
2235.079236
 30
0.0
 10
1467.316313
 20
2234.271716
 30
0.0
 10
1466.126046
 20
2233.517076
 30
0.0
 10
1464.902839
 20
2232.816916
 30
0.0
 10
1463.649274
 20
2232.172916
 30
0.0
 10
1462.367901
 20
2231.586116
 30
0.0
 10
1461.061299
 20
2231.057716
 30
0.0
 10
1459.732162
 20
2230.589156
 30
0.0
 10
1458.383182
 20
2230.180996
 30
0.0
 10
1457.017166
 20
2229.834356
 30
0.0
 10
1455.636864
 20
2229.549476
 30
0.0
 10
1454.245138
 20
2229.327476
 30
0.0
 10
1452.844775
 20
2229.168436
 30
0.0
 10
1451.438655
 20
2229.072916
 30
0.0
 10
1450.029680
 20
2229.041156
 30
0.0
 10
1448.620705
 20
2229.073156
 30
0.0
  0
LWPOLYLINE
  5
184
100
AcDbEntity
  8
Layer_1
 62
7
100
AcDbPolyline
 90
109
 70
0
 10
1448.620705
 20
2229.072916
 30
0.0
 10
1447.214585
 20
2229.168436
 30
0.0
 10
1445.814222
 20
2229.327476
 30
0.0
 10
1444.422496
 20
2229.549476
 30
0.0
 10
1443.042194
 20
2229.834356
 30
0.0
 10
1441.676178
 20
2230.180996
 30
0.0
 10
1440.327198
 20
2230.589156
 30
0.0
 10
1438.998061
 20
2231.057716
 30
0.0
 10
1437.691459
 20
2231.586116
 30
0.0
 10
1436.410086
 20
2232.172916
 30
0.0
 10
1435.156521
 20
2232.816916
 30
0.0
 10
1433.933314
 20
2233.517076
 30
0.0
 10
1432.743047
 20
2234.271716
 30
0.0
 10
1431.588042
 20
2235.079236
 30
0.0
 10
1430.470766
 20
2235.938436
 30
0.0
 10
1429.393431
 20
2236.846916
 30
0.0
 10
1428.358247
 20
2237.803396
 30
0.0
 10
1427.367311
 20
2238.805396
 30
0.0
 10
1426.422694
 20
2239.851396
 30
0.0
 10
1425.526322
 20
2240.939076
 30
0.0
 10
1424.679982
 20
2242.065796
 30
0.0
 10
1423.885431
 20
2243.230036
 30
0.0
 10
1423.144285
 20
2244.428756
 30
0.0
 10
1422.458102
 20
2245.659876
 30
0.0
 10
1421.828215
 20
2246.920436
 30
0.0
 10
1421.256042
 20
2248.208516
 30
0.0
 10
1420.742405
 20
2249.520916
 30
0.0
 10
1420.288861
 20
2250.855236
 30
0.0
 10
1419.895979
 20
2252.208756
 30
0.0
 10
1419.564609
 20
2253.578436
 30
0.0
 10
1419.295602
 20
2254.962036
 30
0.0
 10
1419.089239
 20
2256.356116
 30
0.0
 10
1418.946090
 20
2257.758436
 30
0.0
 10
1418.866434
 20
2259.165236
 30
0.0
 10
1418.850564
 20
2260.574676
 30
0.0
 10
1418.898466
 20
2261.983156
 30
0.0
 10
1419.009869
 20
2263.388036
 30
0.0
 10
1419.184483
 20
2264.786676
 30
0.0
 10
1419.422310
 20
2266.175876
 30
0.0
 10
1419.722499
 20
2267.552676
 30
0.0
 10
1420.084766
 20
2268.914756
 30
0.0
 10
1420.507979
 20
2270.258916
 30
0.0
 10
1420.991854
 20
2271.582676
 30
0.0
 10
1421.534688
 20
2272.883236
 30
0.0
 10
1422.136030
 20
2274.157956
 30
0.0
 10
1422.794234
 20
2275.404116
 30
0.0
 10
1423.508083
 20
2276.619316
 30
0.0
 10
1423.905047
 20
2277.230196
 30
0.0
 10
1404.717018
 20
2277.230196
 30
0.0
 10
1394.754090
 20
2267.267236
 30
0.0
 10
1394.754090
 20
2255.970356
 30
0.0
 10
1227.509992
 20
2255.970356
 30
0.0
 10
1227.509992
 20
2267.267236
 30
0.0
 10
1217.547064
 20
2277.230196
 30
0.0
 10
1126.922592
 20
2277.230196
 30
0.0
 10
1116.958816
 20
2267.267236
 30
0.0
 10
1116.958816
 20
2255.970356
 30
0.0
 10
1080.108424
 20
2255.970356
 30
0.0
 10
1080.108424
 20
2267.267236
 30
0.0
 10
1070.144640
 20
2277.230196
 30
0.0
 10
1050.956928
 20
2277.230196
 30
0.0
 10
1051.353776
 20
2276.619316
 30
0.0
 10
1052.068104
 20
2275.404116
 30
0.0
 10
1052.725744
 20
2274.157956
 30
0.0
 10
1053.326688
 20
2272.883236
 30
0.0
 10
1053.870944
 20
2271.582676
 30
0.0
 10
1054.355664
 20
2270.258916
 30
0.0
 10
1054.778024
 20
2268.914756
 30
0.0
 10
1055.140864
 20
2267.552676
 30
0.0
 10
1055.441336
 20
2266.175876
 30
0.0
 10
1055.679448
 20
2264.786676
 30
0.0
 10
1055.852360
 20
2263.388036
 30
0.0
 10
1055.962912
 20
2261.983156
 30
0.0
 10
1056.011072
 20
2260.574676
 30
0.0
 10
1055.996936
 20
2259.165236
 30
0.0
 10
1055.917560
 20
2257.758436
 30
0.0
 10
1055.772984
 20
2256.356116
 30
0.0
 10
1055.566056
 20
2254.962036
 30
0.0
 10
1055.296768
 20
2253.578436
 30
0.0
 10
1054.967952
 20
2252.208756
 30
0.0
 10
1054.573936
 20
2250.855236
 30
0.0
 10
1054.120392
 20
2249.520916
 30
0.0
 10
1053.607320
 20
2248.208516
 30
0.0
 10
1053.034720
 20
2246.920436
 30
0.0
 10
1052.405432
 20
2245.659876
 30
0.0
 10
1051.719448
 20
2244.428756
 30
0.0
 10
1050.976768
 20
2243.230036
 30
0.0
 10
1050.183064
 20
2242.065796
 30
0.0
 10
1049.335504
 20
2240.939076
 30
0.0
 10
1048.439760
 20
2239.851396
 30
0.0
 10
1047.495824
 20
2238.805396
 30
0.0
 10
1046.503696
 20
2237.803396
 30
0.0
 10
1045.469048
 20
2236.846916
 30
0.0
 10
1044.391888
 20
2235.938436
 30
0.0
 10
1043.275032
 20
2235.079236
 30
0.0
 10
1042.118496
 20
2234.271716
 30
0.0
 10
1040.927952
 20
2233.517076
 30
0.0
 10
1039.706216
 20
2232.816916
 30
0.0
 10
1038.453304
 20
2232.172916
 30
0.0
 10
1037.172040
 20
2231.586116
 30
0.0
 10
1035.865272
 20
2231.057716
 30
0.0
 10
1034.535824
 20
2230.589156
 30
0.0
 10
1033.186528
 20
2230.180996
 30
0.0
 10
1031.820232
 20
2229.834356
 30
0.0
 10
1030.439760
 20
2229.549476
 30
0.0
 10
1029.047944
 20
2229.327476
 30
0.0
 10
1027.647632
 20
2229.168436
 30
0.0
 10
1026.241648
 20
2229.072916
 30
0.0
 10
1024.832832
 20
2229.040916
 30
0.0
  0
LWPOLYLINE
  5
185
100
AcDbEntity
  8
Layer_1
 62
7
100
AcDbPolyline
 90
2
 70
0
 10
1024.832832
 20
2229.041156
 30
0.0
 10
1023.424008
 20
2229.073156
 30
0.0
  0
LWPOLYLINE
  5
186
100
AcDbEntity
  8
Layer_1
 62
7
100
AcDbPolyline
 90
136
 70
0
 10
1023.424008
 20
2229.072916
 30
0.0
 10
1022.018024
 20
2229.168436
 30
0.0
 10
1020.617712
 20
2229.327476
 30
0.0
 10
1019.225904
 20
2229.549476
 30
0.0
 10
1017.845424
 20
2229.834356
 30
0.0
 10
1016.479128
 20
2230.180996
 30
0.0
 10
1015.129840
 20
2230.589156
 30
0.0
 10
1013.800392
 20
2231.057716
 30
0.0
 10
1012.493616
 20
2231.586116
 30
0.0
 10
1011.212360
 20
2232.172916
 30
0.0
 10
1009.959440
 20
2232.816916
 30
0.0
 10
1008.737712
 20
2233.517076
 30
0.0
 10
1007.547160
 20
2234.271716
 30
0.0
 10
1006.390624
 20
2235.079236
 30
0.0
 10
1005.273776
 20
2235.938436
 30
0.0
 10
1004.196608
 20
2236.846916
 30
0.0
 10
1003.161960
 20
2237.803396
 30
0.0
 10
1002.169840
 20
2238.805396
 30
0.0
 10
1001.225904
 20
2239.851396
 30
0.0
 10
1000.330152
 20
2240.939076
 30
0.0
 10
999.482592
 20
2242.065796
 30
0.0
 10
998.688896
 20
2243.230036
 30
0.0
 10
997.946216
 20
2244.428756
 30
0.0
 10
997.260232
 20
2245.659876
 30
0.0
 10
996.630944
 20
2246.920436
 30
0.0
 10
996.058344
 20
2248.208516
 30
0.0
 10
995.545272
 20
2249.520916
 30
0.0
 10
995.091728
 20
2250.855236
 30
0.0
 10
994.697712
 20
2252.208756
 30
0.0
 10
994.368896
 20
2253.578436
 30
0.0
 10
994.099600
 20
2254.962036
 30
0.0
 10
993.892672
 20
2256.356116
 30
0.0
 10
993.748104
 20
2257.758436
 30
0.0
 10
993.668744
 20
2259.165236
 30
0.0
 10
993.654576
 20
2260.574676
 30
0.0
 10
993.702720
 20
2261.983156
 30
0.0
 10
993.813304
 20
2263.388036
 30
0.0
 10
993.986216
 20
2264.786676
 30
0.0
 10
994.224328
 20
2266.175876
 30
0.0
 10
994.524800
 20
2267.552676
 30
0.0
 10
994.887632
 20
2268.914756
 30
0.0
 10
995.309992
 20
2270.258916
 30
0.0
 10
995.794720
 20
2271.582676
 30
0.0
 10
996.338968
 20
2272.883236
 30
0.0
 10
996.939912
 20
2274.157956
 30
0.0
 10
997.597552
 20
2275.404116
 30
0.0
 10
998.311888
 20
2276.619316
 30
0.0
 10
998.708736
 20
2277.230196
 30
0.0
 10
979.521016
 20
2277.230196
 30
0.0
 10
969.557240
 20
2267.267236
 30
0.0
 10
969.557240
 20
2255.970356
 30
0.0
 10
755.541488
 20
2255.970356
 30
0.0
 10
755.541488
 20
2220.537236
 30
0.0
 10
741.722592
 20
2220.537236
 30
0.0
 10
737.116296
 20
2215.930916
 30
0.0
 10
737.116296
 20
2182.623876
 30
0.0
 10
741.722592
 20
2178.017556
 30
0.0
 10
755.541488
 20
2178.017556
 30
0.0
 10
755.541488
 20
2163.560836
 30
0.0
 10
775.100544
 20
2163.560836
 30
0.0
 10
775.100544
 20
2167.954596
 30
0.0
 10
791.258024
 20
2167.954596
 30
0.0
 10
791.258024
 20
2163.560836
 30
0.0
 10
810.817080
 20
2163.560836
 30
0.0
 10
810.817080
 20
2149.954596
 30
0.0
 10
791.258024
 20
2149.954596
 30
0.0
 10
791.258024
 20
2145.560836
 30
0.0
 10
775.100544
 20
2145.560836
 30
0.0
 10
775.100544
 20
2149.954596
 30
0.0
 10
755.541488
 20
2149.954596
 30
0.0
 10
755.541488
 20
2135.497876
 30
0.0
 10
741.722592
 20
2135.497876
 30
0.0
 10
737.116296
 20
2130.891556
 30
0.0
 10
737.116296
 20
2097.584516
 30
0.0
 10
741.722592
 20
2092.978196
 30
0.0
 10
755.541488
 20
2092.978196
 30
0.0
 10
755.541488
 20
2057.545156
 30
0.0
 10
1357.903696
 20
2057.545156
 30
0.0
 10
1357.903696
 20
2075.970356
 30
0.0
 10
1386.250153
 20
2075.970356
 30
0.0
 10
1386.250153
 20
2062.151396
 30
0.0
 10
1390.856452
 20
2057.545156
 30
0.0
 10
1424.163538
 20
2057.545156
 30
0.0
 10
1428.769838
 20
2062.151396
 30
0.0
 10
1428.769838
 20
2075.970356
 30
0.0
 10
1443.226558
 20
2075.970356
 30
0.0
 10
1443.226558
 20
2095.529316
 30
0.0
 10
1438.832830
 20
2095.529316
 30
0.0
 10
1438.832830
 20
2111.686836
 30
0.0
 10
1443.226558
 20
2111.686836
 30
0.0
 10
1443.226558
 20
2131.245876
 30
0.0
 10
1456.832802
 20
2131.245876
 30
0.0
 10
1456.832802
 20
2111.686836
 30
0.0
 10
1461.226530
 20
2111.686836
 30
0.0
 10
1461.226530
 20
2095.529316
 30
0.0
 10
1456.832802
 20
2095.529316
 30
0.0
 10
1456.832802
 20
2075.970356
 30
0.0
 10
1471.289522
 20
2075.970356
 30
0.0
 10
1471.289522
 20
2062.151396
 30
0.0
 10
1475.895822
 20
2057.545156
 30
0.0
 10
1509.202908
 20
2057.545156
 30
0.0
 10
1513.809207
 20
2062.151396
 30
0.0
 10
1513.809207
 20
2075.970356
 30
0.0
 10
1542.155664
 20
2075.970356
 30
0.0
 10
1542.155664
 20
2057.545156
 30
0.0
 10
2144.517872
 20
2057.545156
 30
0.0
 10
2144.517872
 20
2092.978196
 30
0.0
 10
2158.336768
 20
2092.978196
 30
0.0
 10
2162.943064
 20
2097.584516
 30
0.0
 10
2162.943064
 20
2130.891556
 30
0.0
 10
2158.336768
 20
2135.497876
 30
0.0
 10
2144.517872
 20
2135.497876
 30
0.0
 10
2144.517872
 20
2149.954596
 30
0.0
 10
2124.958816
 20
2149.954596
 30
0.0
 10
2124.958816
 20
2145.560836
 30
0.0
 10
2108.801336
 20
2145.560836
 30
0.0
 10
2108.801336
 20
2149.954596
 30
0.0
 10
2089.242280
 20
2149.954596
 30
0.0
 10
2089.242280
 20
2163.560836
 30
0.0
 10
2108.801336
 20
2163.560836
 30
0.0
 10
2108.801336
 20
2167.954596
 30
0.0
 10
2124.958816
 20
2167.954596
 30
0.0
 10
2124.958816
 20
2163.560836
 30
0.0
 10
2144.517872
 20
2163.560836
 30
0.0
 10
2144.517872
 20
2178.017556
 30
0.0
 10
2158.336768
 20
2178.017556
 30
0.0
 10
2162.943064
 20
2182.623876
 30
0.0
 10
2162.943064
 20
2215.930916
 30
0.0
 10
2158.336768
 20
2220.537236
 30
0.0
 10
2144.517872
 20
2220.537236
 30
0.0
 10
2144.517872
 20
2255.970356
 30
0.0
 10
1930.502120
 20
2255.970356
 30
0.0
 10
1930.502120
 20
2267.267236
 30
0.0
 10
1920.538344
 20
2277.230196
 30
0.0
 10
1901.350624
 20
2277.230196
 30
0.0
 10
1901.747472
 20
2276.619316
 30
0.0
  0
LWPOLYLINE
  5
187
100
AcDbEntity
  8
Layer_1
 62
7
100
AcDbPolyline
 90
5
 70
0
 10
1017.604480
 20
2094.253796
 30
0.0
 10
1017.604480
 20
2076.112036
 30
0.0
 10
975.368264
 20
2076.112036
 30
0.0
 10
975.368264
 20
2094.253796
 30
0.0
 10
1017.604480
 20
2094.253796
 30
0.0
  0
LWPOLYLINE
  5
188
100
AcDbEntity
  8
Layer_1
 62
7
100
AcDbPolyline
 90
5
 70
0
 10
1102.643856
 20
2094.253796
 30
0.0
 10
1102.643856
 20
2076.112036
 30
0.0
 10
1060.407632
 20
2076.112036
 30
0.0
 10
1060.407632
 20
2094.253796
 30
0.0
 10
1102.643856
 20
2094.253796
 30
0.0
  0
LWPOLYLINE
  5
189
100
AcDbEntity
  8
Layer_1
 62
7
100
AcDbPolyline
 90
5
 70
0
 10
1924.691096
 20
2094.253796
 30
0.0
 10
1924.691096
 20
2076.112036
 30
0.0
 10
1882.454880
 20
2076.112036
 30
0.0
 10
1882.454880
 20
2094.253796
 30
0.0
 10
1924.691096
 20
2094.253796
 30
0.0
  0
LWPOLYLINE
  5
18a
100
AcDbEntity
  8
Layer_1
 62
7
100
AcDbPolyline
 90
5
 70
0
 10
1839.651728
 20
2094.253796
 30
0.0
 10
1839.651728
 20
2076.112036
 30
0.0
 10
1797.415504
 20
2076.112036
 30
0.0
 10
1797.415504
 20
2094.253796
 30
0.0
 10
1839.651728
 20
2094.253796
 30
0.0
  0
LWPOLYLINE
  5
18b
100
AcDbEntity
  8
Layer_1
 62
7
100
AcDbPolyline
 90
35
 70
0
 10
1861.759128
 20
2092.803796
 30
0.0
 10
1863.148104
 20
2092.544276
 30
0.0
 10
1864.463384
 20
2092.034036
 30
0.0
 10
1865.665272
 20
2091.290516
 30
0.0
 10
1866.708424
 20
2090.339076
 30
0.0
 10
1867.561648
 20
2089.211956
 30
0.0
 10
1868.190944
 20
2087.947636
 30
0.0
 10
1868.576448
 20
2086.589236
 30
0.0
 10
1868.706848
 20
2085.182916
 30
0.0
 10
1868.576448
 20
2083.776596
 30
0.0
 10
1868.190944
 20
2082.418196
 30
0.0
 10
1867.561648
 20
2081.153876
 30
0.0
 10
1866.708424
 20
2080.026756
 30
0.0
 10
1865.665272
 20
2079.075316
 30
0.0
 10
1864.463384
 20
2078.331796
 30
0.0
 10
1863.148104
 20
2077.821556
 30
0.0
 10
1861.759128
 20
2077.562036
 30
0.0
 10
1860.347472
 20
2077.562036
 30
0.0
 10
1858.958496
 20
2077.821556
 30
0.0
 10
1857.643224
 20
2078.331796
 30
0.0
 10
1856.441336
 20
2079.075316
 30
0.0
 10
1855.398184
 20
2080.026756
 30
0.0
 10
1854.544952
 20
2081.153876
 30
0.0
 10
1853.915664
 20
2082.418196
 30
0.0
 10
1853.530152
 20
2083.776596
 30
0.0
 10
1853.399760
 20
2085.182916
 30
0.0
 10
1853.530152
 20
2086.589236
 30
0.0
 10
1853.915664
 20
2087.947636
 30
0.0
 10
1854.544952
 20
2089.211956
 30
0.0
 10
1855.398184
 20
2090.339076
 30
0.0
 10
1856.441336
 20
2091.290516
 30
0.0
 10
1857.643224
 20
2092.034036
 30
0.0
 10
1858.958496
 20
2092.544276
 30
0.0
 10
1860.347472
 20
2092.803796
 30
0.0
 10
1861.759128
 20
2092.803796
 30
0.0
  0
LWPOLYLINE
  5
18c
100
AcDbEntity
  8
Layer_1
 62
7
100
AcDbPolyline
 90
35
 70
0
 10
1039.711888
 20
2092.803796
 30
0.0
 10
1041.100864
 20
2092.544276
 30
0.0
 10
1042.416136
 20
2092.034036
 30
0.0
 10
1043.618024
 20
2091.290516
 30
0.0
 10
1044.661176
 20
2090.339076
 30
0.0
 10
1045.514408
 20
2089.211956
 30
0.0
 10
1046.143696
 20
2087.947636
 30
0.0
 10
1046.529208
 20
2086.589236
 30
0.0
 10
1046.659600
 20
2085.182916
 30
0.0
 10
1046.529208
 20
2083.776596
 30
0.0
 10
1046.143696
 20
2082.418196
 30
0.0
 10
1045.514408
 20
2081.153876
 30
0.0
 10
1044.661176
 20
2080.026756
 30
0.0
 10
1043.618024
 20
2079.075316
 30
0.0
 10
1042.416136
 20
2078.331796
 30
0.0
 10
1041.100864
 20
2077.821556
 30
0.0
 10
1039.711888
 20
2077.562036
 30
0.0
 10
1038.300232
 20
2077.562036
 30
0.0
 10
1036.911256
 20
2077.821556
 30
0.0
 10
1035.595976
 20
2078.331796
 30
0.0
 10
1034.394088
 20
2079.075316
 30
0.0
 10
1033.350936
 20
2080.026756
 30
0.0
 10
1032.497712
 20
2081.153876
 30
0.0
 10
1031.868416
 20
2082.418196
 30
0.0
 10
1031.482912
 20
2083.776596
 30
0.0
 10
1031.352512
 20
2085.182916
 30
0.0
 10
1031.482912
 20
2086.589236
 30
0.0
 10
1031.868416
 20
2087.947636
 30
0.0
 10
1032.497712
 20
2089.211956
 30
0.0
 10
1033.350936
 20
2090.339076
 30
0.0
 10
1034.394088
 20
2091.290516
 30
0.0
 10
1035.595976
 20
2092.034036
 30
0.0
 10
1036.911256
 20
2092.544276
 30
0.0
 10
1038.300232
 20
2092.803796
 30
0.0
 10
1039.711888
 20
2092.803796
 30
0.0
  0
LWPOLYLINE
  5
18d
100
AcDbEntity
  8
Layer_1
 62
7
100
AcDbPolyline
 90
35
 70
0
 10
2117.577400
 20
2120.343876
 30
0.0
 10
2118.935192
 20
2119.957476
 30
0.0
 10
2120.199448
 20
2119.327956
 30
0.0
 10
2121.327632
 20
2118.476676
 30
0.0
 10
2122.280072
 20
2117.432996
 30
0.0
 10
2123.022752
 20
2116.232196
 30
0.0
 10
2123.532984
 20
2114.915236
 30
0.0
 10
2123.790944
 20
2113.526836
 30
0.0
 10
2123.790944
 20
2112.114516
 30
0.0
 10
2123.532984
 20
2110.726196
 30
0.0
 10
2123.022752
 20
2109.409156
 30
0.0
 10
2122.280072
 20
2108.208436
 30
0.0
 10
2121.327632
 20
2107.164676
 30
0.0
 10
2120.199448
 20
2106.313556
 30
0.0
 10
2118.935192
 20
2105.683956
 30
0.0
 10
2117.577400
 20
2105.297476
 30
0.0
 10
2116.171408
 20
2105.167156
 30
0.0
 10
2114.765424
 20
2105.297476
 30
0.0
 10
2113.407632
 20
2105.683956
 30
0.0
 10
2112.143384
 20
2106.313556
 30
0.0
 10
2111.015192
 20
2107.164676
 30
0.0
 10
2110.062752
 20
2108.208436
 30
0.0
 10
2109.320072
 20
2109.409156
 30
0.0
 10
2108.809840
 20
2110.726196
 30
0.0
 10
2108.551888
 20
2112.114516
 30
0.0
 10
2108.551888
 20
2113.526836
 30
0.0
 10
2108.809840
 20
2114.915236
 30
0.0
 10
2109.320072
 20
2116.232196
 30
0.0
 10
2110.062752
 20
2117.432996
 30
0.0
 10
2111.015192
 20
2118.476676
 30
0.0
 10
2112.143384
 20
2119.327956
 30
0.0
 10
2113.407632
 20
2119.957476
 30
0.0
 10
2114.765424
 20
2120.343876
 30
0.0
 10
2116.171408
 20
2120.474276
 30
0.0
 10
2117.577400
 20
2120.343876
 30
0.0
  0
LWPOLYLINE
  5
18e
100
AcDbEntity
  8
Layer_1
 62
7
100
AcDbPolyline
 90
35
 70
0
 10
785.293936
 20
2120.343876
 30
0.0
 10
786.651728
 20
2119.957476
 30
0.0
 10
787.915976
 20
2119.327956
 30
0.0
 10
789.044168
 20
2118.476676
 30
0.0
 10
789.996608
 20
2117.432996
 30
0.0
 10
790.739288
 20
2116.232196
 30
0.0
 10
791.249520
 20
2114.915236
 30
0.0
 10
791.507472
 20
2113.526836
 30
0.0
 10
791.507472
 20
2112.114516
 30
0.0
 10
791.249520
 20
2110.726196
 30
0.0
 10
790.739288
 20
2109.409156
 30
0.0
 10
789.996608
 20
2108.208436
 30
0.0
 10
789.044168
 20
2107.164676
 30
0.0
 10
787.915976
 20
2106.313556
 30
0.0
 10
786.651728
 20
2105.683956
 30
0.0
 10
785.293936
 20
2105.297476
 30
0.0
 10
783.887952
 20
2105.167156
 30
0.0
 10
782.481960
 20
2105.297476
 30
0.0
 10
781.124168
 20
2105.683956
 30
0.0
 10
779.859912
 20
2106.313556
 30
0.0
 10
778.731728
 20
2107.164676
 30
0.0
 10
777.779288
 20
2108.208436
 30
0.0
 10
777.036608
 20
2109.409156
 30
0.0
 10
776.526376
 20
2110.726196
 30
0.0
 10
776.268416
 20
2112.114516
 30
0.0
 10
776.268416
 20
2113.526836
 30
0.0
 10
776.526376
 20
2114.915236
 30
0.0
 10
777.036608
 20
2116.232196
 30
0.0
 10
777.779288
 20
2117.432996
 30
0.0
 10
778.731728
 20
2118.476676
 30
0.0
 10
779.859912
 20
2119.327956
 30
0.0
 10
781.124168
 20
2119.957476
 30
0.0
 10
782.481960
 20
2120.343876
 30
0.0
 10
783.887952
 20
2120.474276
 30
0.0
 10
785.293936
 20
2120.343876
 30
0.0
  0
LWPOLYLINE
  5
18f
100
AcDbEntity
  8
Layer_1
 62
7
100
AcDbPolyline
 90
5
 70
0
 10
1102.643856
 20
2183.545156
 30
0.0
 10
1102.643856
 20
2165.403396
 30
0.0
 10
1060.407632
 20
2165.403396
 30
0.0
 10
1060.407632
 20
2183.545156
 30
0.0
 10
1102.643856
 20
2183.545156
 30
0.0
  0
LWPOLYLINE
  5
190
100
AcDbEntity
  8
Layer_1
 62
7
100
AcDbPolyline
 90
5
 70
0
 10
1017.604480
 20
2183.545156
 30
0.0
 10
1017.604480
 20
2165.403396
 30
0.0
 10
975.368264
 20
2165.403396
 30
0.0
 10
975.368264
 20
2183.545156
 30
0.0
 10
1017.604480
 20
2183.545156
 30
0.0
  0
LWPOLYLINE
  5
191
100
AcDbEntity
  8
Layer_1
 62
7
100
AcDbPolyline
 90
5
 70
0
 10
1428.628134
 20
2183.545156
 30
0.0
 10
1428.628134
 20
2165.403396
 30
0.0
 10
1386.391885
 20
2165.403396
 30
0.0
 10
1386.391885
 20
2183.545156
 30
0.0
 10
1428.628134
 20
2183.545156
 30
0.0
  0
LWPOLYLINE
  5
192
100
AcDbEntity
  8
Layer_1
 62
7
100
AcDbPolyline
 90
5
 70
0
 10
1839.651728
 20
2183.545156
 30
0.0
 10
1839.651728
 20
2165.403396
 30
0.0
 10
1797.415504
 20
2165.403396
 30
0.0
 10
1797.415504
 20
2183.545156
 30
0.0
 10
1839.651728
 20
2183.545156
 30
0.0
  0
LWPOLYLINE
  5
193
100
AcDbEntity
  8
Layer_1
 62
7
100
AcDbPolyline
 90
5
 70
0
 10
1924.691096
 20
2183.545156
 30
0.0
 10
1924.691096
 20
2165.403396
 30
0.0
 10
1882.454880
 20
2165.403396
 30
0.0
 10
1882.454880
 20
2183.545156
 30
0.0
 10
1924.691096
 20
2183.545156
 30
0.0
  0
LWPOLYLINE
  5
194
100
AcDbEntity
  8
Layer_1
 62
7
100
AcDbPolyline
 90
5
 70
0
 10
1513.667475
 20
2183.545156
 30
0.0
 10
1513.667475
 20
2165.403396
 30
0.0
 10
1471.431226
 20
2165.403396
 30
0.0
 10
1471.431226
 20
2183.545156
 30
0.0
 10
1513.667475
 20
2183.545156
 30
0.0
  0
LWPOLYLINE
  5
195
100
AcDbEntity
  8
Layer_1
 62
7
100
AcDbPolyline
 90
35
 70
0
 10
1039.711888
 20
2182.095236
 30
0.0
 10
1041.100864
 20
2181.835556
 30
0.0
 10
1042.416136
 20
2181.325316
 30
0.0
 10
1043.618024
 20
2180.581796
 30
0.0
 10
1044.661176
 20
2179.630516
 30
0.0
 10
1045.514408
 20
2178.503396
 30
0.0
 10
1046.143696
 20
2177.238916
 30
0.0
 10
1046.529208
 20
2175.880516
 30
0.0
 10
1046.659600
 20
2174.474276
 30
0.0
 10
1046.529208
 20
2173.067956
 30
0.0
 10
1046.143696
 20
2171.709316
 30
0.0
 10
1045.514408
 20
2170.445076
 30
0.0
 10
1044.661176
 20
2169.318036
 30
0.0
 10
1043.618024
 20
2168.366756
 30
0.0
 10
1042.416136
 20
2167.623236
 30
0.0
 10
1041.100864
 20
2167.112996
 30
0.0
 10
1039.711888
 20
2166.853316
 30
0.0
 10
1038.300232
 20
2166.853316
 30
0.0
 10
1036.911256
 20
2167.112996
 30
0.0
 10
1035.595976
 20
2167.623236
 30
0.0
 10
1034.394088
 20
2168.366756
 30
0.0
 10
1033.350936
 20
2169.318036
 30
0.0
 10
1032.497712
 20
2170.445076
 30
0.0
 10
1031.868416
 20
2171.709316
 30
0.0
 10
1031.482912
 20
2173.067956
 30
0.0
 10
1031.352512
 20
2174.474276
 30
0.0
 10
1031.482912
 20
2175.880516
 30
0.0
 10
1031.868416
 20
2177.238916
 30
0.0
 10
1032.497712
 20
2178.503396
 30
0.0
 10
1033.350936
 20
2179.630516
 30
0.0
 10
1034.394088
 20
2180.581796
 30
0.0
 10
1035.595976
 20
2181.325316
 30
0.0
 10
1036.911256
 20
2181.835556
 30
0.0
 10
1038.300232
 20
2182.095236
 30
0.0
 10
1039.711888
 20
2182.095236
 30
0.0
  0
LWPOLYLINE
  5
196
100
AcDbEntity
  8
Layer_1
 62
7
100
AcDbPolyline
 90
35
 70
0
 10
1861.759128
 20
2182.095236
 30
0.0
 10
1863.148104
 20
2181.835556
 30
0.0
 10
1864.463384
 20
2181.325316
 30
0.0
 10
1865.665272
 20
2180.581796
 30
0.0
 10
1866.708424
 20
2179.630516
 30
0.0
 10
1867.561648
 20
2178.503396
 30
0.0
 10
1868.190944
 20
2177.238916
 30
0.0
 10
1868.576448
 20
2175.880516
 30
0.0
 10
1868.706848
 20
2174.474276
 30
0.0
 10
1868.576448
 20
2173.067956
 30
0.0
 10
1868.190944
 20
2171.709316
 30
0.0
 10
1867.561648
 20
2170.445076
 30
0.0
 10
1866.708424
 20
2169.318036
 30
0.0
 10
1865.665272
 20
2168.366756
 30
0.0
 10
1864.463384
 20
2167.623236
 30
0.0
 10
1863.148104
 20
2167.112996
 30
0.0
 10
1861.759128
 20
2166.853316
 30
0.0
 10
1860.347472
 20
2166.853316
 30
0.0
 10
1858.958496
 20
2167.112996
 30
0.0
 10
1857.643224
 20
2167.623236
 30
0.0
 10
1856.441336
 20
2168.366756
 30
0.0
 10
1855.398184
 20
2169.318036
 30
0.0
 10
1854.544952
 20
2170.445076
 30
0.0
 10
1853.915664
 20
2171.709316
 30
0.0
 10
1853.530152
 20
2173.067956
 30
0.0
 10
1853.399760
 20
2174.474276
 30
0.0
 10
1853.530152
 20
2175.880516
 30
0.0
 10
1853.915664
 20
2177.238916
 30
0.0
 10
1854.544952
 20
2178.503396
 30
0.0
 10
1855.398184
 20
2179.630516
 30
0.0
 10
1856.441336
 20
2180.581796
 30
0.0
 10
1857.643224
 20
2181.325316
 30
0.0
 10
1858.958496
 20
2181.835556
 30
0.0
 10
1860.347472
 20
2182.095236
 30
0.0
 10
1861.759128
 20
2182.095236
 30
0.0
  0
LWPOLYLINE
  5
197
100
AcDbEntity
  8
Layer_1
 62
7
100
AcDbPolyline
 90
35
 70
0
 10
1450.735833
 20
2182.095236
 30
0.0
 10
1452.124132
 20
2181.835556
 30
0.0
 10
1453.441148
 20
2181.325316
 30
0.0
 10
1454.641960
 20
2180.581796
 30
0.0
 10
1455.685705
 20
2179.630516
 30
0.0
 10
1456.536836
 20
2178.503396
 30
0.0
 10
1457.166382
 20
2177.238916
 30
0.0
 10
1457.552886
 20
2175.880516
 30
0.0
 10
1457.683223
 20
2174.474276
 30
0.0
 10
1457.552886
 20
2173.067956
 30
0.0
 10
1457.166382
 20
2171.709316
 30
0.0
 10
1456.536836
 20
2170.445076
 30
0.0
 10
1455.685705
 20
2169.318036
 30
0.0
 10
1454.641960
 20
2168.366756
 30
0.0
 10
1453.441148
 20
2167.623236
 30
0.0
 10
1452.124132
 20
2167.112996
 30
0.0
 10
1450.735833
 20
2166.853316
 30
0.0
 10
1449.323527
 20
2166.853316
 30
0.0
 10
1447.935228
 20
2167.112996
 30
0.0
 10
1446.618212
 20
2167.623236
 30
0.0
 10
1445.417400
 20
2168.366756
 30
0.0
 10
1444.373655
 20
2169.318036
 30
0.0
 10
1443.522524
 20
2170.445076
 30
0.0
 10
1442.892978
 20
2171.709316
 30
0.0
 10
1442.506474
 20
2173.067956
 30
0.0
 10
1442.376137
 20
2174.474276
 30
0.0
 10
1442.506474
 20
2175.880516
 30
0.0
 10
1442.892978
 20
2177.238916
 30
0.0
 10
1443.522524
 20
2178.503396
 30
0.0
 10
1444.373655
 20
2179.630516
 30
0.0
 10
1445.417400
 20
2180.581796
 30
0.0
 10
1446.618212
 20
2181.325316
 30
0.0
 10
1447.935228
 20
2181.835556
 30
0.0
 10
1449.323527
 20
2182.095236
 30
0.0
 10
1450.735833
 20
2182.095236
 30
0.0
  0
LWPOLYLINE
  5
198
100
AcDbEntity
  8
Layer_1
 62
7
100
AcDbPolyline
 90
35
 70
0
 10
2117.577400
 20
2226.643076
 30
0.0
 10
2118.935192
 20
2226.256676
 30
0.0
 10
2120.199448
 20
2225.627156
 30
0.0
 10
2121.327632
 20
2224.775876
 30
0.0
 10
2122.280072
 20
2223.732196
 30
0.0
 10
2123.022752
 20
2222.531396
 30
0.0
 10
2123.532984
 20
2221.214436
 30
0.0
 10
2123.790944
 20
2219.826036
 30
0.0
 10
2123.790944
 20
2218.413796
 30
0.0
 10
2123.532984
 20
2217.025396
 30
0.0
 10
2123.022752
 20
2215.708436
 30
0.0
 10
2122.280072
 20
2214.507716
 30
0.0
 10
2121.327632
 20
2213.463956
 30
0.0
 10
2120.199448
 20
2212.612676
 30
0.0
 10
2118.935192
 20
2211.983156
 30
0.0
 10
2117.577400
 20
2211.596756
 30
0.0
 10
2116.171408
 20
2211.466356
 30
0.0
 10
2114.765424
 20
2211.596756
 30
0.0
 10
2113.407632
 20
2211.983156
 30
0.0
 10
2112.143384
 20
2212.612676
 30
0.0
 10
2111.015192
 20
2213.463956
 30
0.0
 10
2110.062752
 20
2214.507716
 30
0.0
 10
2109.320072
 20
2215.708436
 30
0.0
 10
2108.809840
 20
2217.025396
 30
0.0
 10
2108.551888
 20
2218.413796
 30
0.0
 10
2108.551888
 20
2219.826036
 30
0.0
 10
2108.809840
 20
2221.214436
 30
0.0
 10
2109.320072
 20
2222.531396
 30
0.0
 10
2110.062752
 20
2223.732196
 30
0.0
 10
2111.015192
 20
2224.775876
 30
0.0
 10
2112.143384
 20
2225.627156
 30
0.0
 10
2113.407632
 20
2226.256676
 30
0.0
 10
2114.765424
 20
2226.643076
 30
0.0
 10
2116.171408
 20
2226.773476
 30
0.0
 10
2117.577400
 20
2226.643076
 30
0.0
  0
LWPOLYLINE
  5
199
100
AcDbEntity
  8
Layer_1
 62
7
100
AcDbPolyline
 90
35
 70
0
 10
785.293936
 20
2226.643076
 30
0.0
 10
786.651728
 20
2226.256676
 30
0.0
 10
787.915976
 20
2225.627156
 30
0.0
 10
789.044168
 20
2224.775876
 30
0.0
 10
789.996608
 20
2223.732196
 30
0.0
 10
790.739288
 20
2222.531396
 30
0.0
 10
791.249520
 20
2221.214436
 30
0.0
 10
791.507472
 20
2219.826036
 30
0.0
 10
791.507472
 20
2218.413796
 30
0.0
 10
791.249520
 20
2217.025396
 30
0.0
 10
790.739288
 20
2215.708436
 30
0.0
 10
789.996608
 20
2214.507716
 30
0.0
 10
789.044168
 20
2213.463956
 30
0.0
 10
787.915976
 20
2212.612676
 30
0.0
 10
786.651728
 20
2211.983156
 30
0.0
 10
785.293936
 20
2211.596756
 30
0.0
 10
783.887952
 20
2211.466356
 30
0.0
 10
782.481960
 20
2211.596756
 30
0.0
 10
781.124168
 20
2211.983156
 30
0.0
 10
779.859912
 20
2212.612676
 30
0.0
 10
778.731728
 20
2213.463956
 30
0.0
 10
777.779288
 20
2214.507716
 30
0.0
 10
777.036608
 20
2215.708436
 30
0.0
 10
776.526376
 20
2217.025396
 30
0.0
 10
776.268416
 20
2218.413796
 30
0.0
 10
776.268416
 20
2219.826036
 30
0.0
 10
776.526376
 20
2221.214436
 30
0.0
 10
777.036608
 20
2222.531396
 30
0.0
 10
777.779288
 20
2223.732196
 30
0.0
 10
778.731728
 20
2224.775876
 30
0.0
 10
779.859912
 20
2225.627156
 30
0.0
 10
781.124168
 20
2226.256676
 30
0.0
 10
782.481960
 20
2226.643076
 30
0.0
 10
783.887952
 20
2226.773476
 30
0.0
 10
785.293936
 20
2226.643076
 30
0.0
  0
LWPOLYLINE
  5
19a
100
AcDbEntity
  8
Layer_1
 62
7
100
AcDbPolyline
 90
23
 70
0
 10
1450.715460
 20
2224.740196
 30
0.0
 10
1452.031484
 20
2224.353796
 30
0.0
 10
1453.185350
 20
2223.612276
 30
0.0
 10
1454.083592
 20
2222.575636
 30
0.0
 10
1454.653355
 20
2221.327796
 30
0.0
 10
1454.848578
 20
2219.970356
 30
0.0
 10
1454.653355
 20
2218.612516
 30
0.0
 10
1454.083592
 20
2217.364996
 30
0.0
 10
1453.185350
 20
2216.328356
 30
0.0
 10
1452.031484
 20
2215.586836
 30
0.0
 10
1450.715460
 20
2215.200436
 30
0.0
 10
1449.343900
 20
2215.200436
 30
0.0
 10
1448.027876
 20
2215.586836
 30
0.0
 10
1446.874010
 20
2216.328356
 30
0.0
 10
1445.975768
 20
2217.364996
 30
0.0
 10
1445.406005
 20
2218.612516
 30
0.0
 10
1445.210782
 20
2219.970356
 30
0.0
 10
1445.406005
 20
2221.327796
 30
0.0
 10
1445.975768
 20
2222.575636
 30
0.0
 10
1446.874010
 20
2223.612276
 30
0.0
 10
1448.027876
 20
2224.353796
 30
0.0
 10
1449.343900
 20
2224.740196
 30
0.0
 10
1450.715460
 20
2224.740196
 30
0.0
  0
LWPOLYLINE
  5
19b
100
AcDbEntity
  8
Layer_1
 62
7
100
AcDbPolyline
 90
23
 70
0
 10
1875.912512
 20
2224.740196
 30
0.0
 10
1877.227792
 20
2224.353796
 30
0.0
 10
1878.381488
 20
2223.612276
 30
0.0
 10
1879.280072
 20
2222.575636
 30
0.0
 10
1879.849840
 20
2221.327796
 30
0.0
 10
1880.045424
 20
2219.970356
 30
0.0
 10
1879.849840
 20
2218.612516
 30
0.0
 10
1879.280072
 20
2217.364996
 30
0.0
 10
1878.381488
 20
2216.328356
 30
0.0
 10
1877.227792
 20
2215.586836
 30
0.0
 10
1875.912512
 20
2215.200436
 30
0.0
 10
1874.540544
 20
2215.200436
 30
0.0
 10
1873.225272
 20
2215.586836
 30
0.0
 10
1872.071568
 20
2216.328356
 30
0.0
 10
1871.172984
 20
2217.364996
 30
0.0
 10
1870.603224
 20
2218.612516
 30
0.0
 10
1870.407632
 20
2219.970356
 30
0.0
 10
1870.603224
 20
2221.327796
 30
0.0
 10
1871.172984
 20
2222.575636
 30
0.0
 10
1872.071568
 20
2223.612276
 30
0.0
 10
1873.225272
 20
2224.353796
 30
0.0
 10
1874.540544
 20
2224.740196
 30
0.0
 10
1875.912512
 20
2224.740196
 30
0.0
  0
LWPOLYLINE
  5
19c
100
AcDbEntity
  8
Layer_1
 62
7
100
AcDbPolyline
 90
23
 70
0
 10
1025.518816
 20
2224.740196
 30
0.0
 10
1026.834088
 20
2224.353796
 30
0.0
 10
1027.987792
 20
2223.612276
 30
0.0
 10
1028.886376
 20
2222.575636
 30
0.0
 10
1029.456136
 20
2221.327796
 30
0.0
 10
1029.651728
 20
2219.970356
 30
0.0
 10
1029.456136
 20
2218.612516
 30
0.0
 10
1028.886376
 20
2217.364996
 30
0.0
 10
1027.987792
 20
2216.328356
 30
0.0
 10
1026.834088
 20
2215.586836
 30
0.0
 10
1025.518816
 20
2215.200436
 30
0.0
 10
1024.146848
 20
2215.200436
 30
0.0
 10
1022.831568
 20
2215.586836
 30
0.0
 10
1021.677872
 20
2216.328356
 30
0.0
 10
1020.779288
 20
2217.364996
 30
0.0
 10
1020.209520
 20
2218.612516
 30
0.0
 10
1020.013936
 20
2219.970356
 30
0.0
 10
1020.209520
 20
2221.327796
 30
0.0
 10
1020.779288
 20
2222.575636
 30
0.0
 10
1021.677872
 20
2223.612276
 30
0.0
 10
1022.831568
 20
2224.353796
 30
0.0
 10
1024.146848
 20
2224.740196
 30
0.0
 10
1025.518816
 20
2224.740196
 30
0.0
  0
LWPOLYLINE
  5
19d
100
AcDbEntity
  8
Layer_1
 62
7
100
AcDbPolyline
 90
64
 70
0
 10
1172.940800
 20
2274.377956
 30
0.0
 10
1174.346784
 20
2274.237316
 30
0.0
 10
1175.731792
 20
2273.957316
 30
0.0
 10
1177.081936
 20
2273.540836
 30
0.0
 10
1178.383888
 20
2272.991796
 30
0.0
 10
1179.624896
 20
2272.316036
 30
0.0
 10
1180.792200
 20
2271.520356
 30
0.0
 10
1181.874752
 20
2270.612116
 30
0.0
 10
1182.861208
 20
2269.600436
 30
0.0
 10
1183.742216
 20
2268.495796
 30
0.0
 10
1184.508704
 20
2267.308916
 30
0.0
 10
1185.153304
 20
2266.051476
 30
0.0
 10
1185.669488
 20
2264.736196
 30
0.0
 10
1186.052168
 20
2263.376116
 30
0.0
 10
1186.297648
 20
2261.984596
 30
0.0
 10
1186.403096
 20
2260.575476
 30
0.0
 10
1186.367976
 20
2259.162996
 30
0.0
 10
1186.192200
 20
2257.761236
 30
0.0
 10
1185.877840
 20
2256.383636
 30
0.0
 10
1185.427976
 20
2255.044276
 30
0.0
 10
1184.846880
 20
2253.756196
 30
0.0
 10
1184.140200
 20
2252.532756
 30
0.0
 10
1183.315600
 20
2251.385556
 30
0.0
 10
1182.380456
 20
2250.325956
 30
0.0
 10
1181.344672
 20
2249.364996
 30
0.0
 10
1180.218464
 20
2248.511796
 30
0.0
 10
1179.012896
 20
2247.775076
 30
0.0
 10
1177.739856
 20
2247.161956
 30
0.0
 10
1176.412104
 20
2246.678596
 30
0.0
 10
1175.042688
 20
2246.329956
 30
0.0
 10
1173.645488
 20
2246.119396
 30
0.0
 10
1172.234408
 20
2246.048996
 30
0.0
 10
1170.823320
 20
2246.119476
 30
0.0
 10
1169.426120
 20
2246.329956
 30
0.0
 10
1168.056704
 20
2246.678596
 30
0.0
 10
1166.728952
 20
2247.161956
 30
0.0
 10
1165.456768
 20
2247.775076
 30
0.0
 10
1164.249208
 20
2248.511796
 30
0.0
 10
1163.123856
 20
2249.364996
 30
0.0
 10
1162.089208
 20
2250.325956
 30
0.0
 10
1161.153776
 20
2251.385556
 30
0.0
 10
1160.328896
 20
2252.532756
 30
0.0
 10
1159.623064
 20
2253.756196
 30
0.0
 10
1159.041960
 20
2255.044276
 30
0.0
 10
1158.591256
 20
2256.383636
 30
0.0
 10
1158.276608
 20
2257.761236
 30
0.0
 10
1158.100864
 20
2259.162996
 30
0.0
 10
1158.066864
 20
2260.575476
 30
0.0
 10
1158.171728
 20
2261.984596
 30
0.0
 10
1158.415504
 20
2263.376116
 30
0.0
 10
1158.798184
 20
2264.736196
 30
0.0
 10
1159.314088
 20
2266.051476
 30
0.0
 10
1159.960392
 20
2267.308916
 30
0.0
 10
1160.725744
 20
2268.495796
 30
0.0
 10
1161.607320
 20
2269.600436
 30
0.0
 10
1162.593776
 20
2270.612116
 30
0.0
 10
1163.676608
 20
2271.520356
 30
0.0
 10
1164.844480
 20
2272.316036
 30
0.0
 10
1166.086056
 20
2272.991796
 30
0.0
 10
1167.386880
 20
2273.540836
 30
0.0
 10
1168.737016
 20
2273.957316
 30
0.0
 10
1170.122024
 20
2274.237316
 30
0.0
 10
1171.528008
 20
2274.377956
 30
0.0
 10
1172.940800
 20
2274.377956
 30
0.0
  0
LWPOLYLINE
  5
19e
100
AcDbEntity
  8
Layer_1
 62
7
100
AcDbPolyline
 90
64
 70
0
 10
1728.531352
 20
2274.377956
 30
0.0
 10
1729.937336
 20
2274.237316
 30
0.0
 10
1731.322344
 20
2273.957316
 30
0.0
 10
1732.672480
 20
2273.540836
 30
0.0
 10
1733.973304
 20
2272.991796
 30
0.0
 10
1735.214880
 20
2272.316036
 30
0.0
 10
1736.382752
 20
2271.520356
 30
0.0
 10
1737.465584
 20
2270.612116
 30
0.0
 10
1738.452040
 20
2269.600436
 30
0.0
 10
1739.333616
 20
2268.495796
 30
0.0
 10
1740.098968
 20
2267.308916
 30
0.0
 10
1740.745272
 20
2266.051476
 30
0.0
 10
1741.261176
 20
2264.736196
 30
0.0
 10
1741.643856
 20
2263.376116
 30
0.0
 10
1741.887632
 20
2261.984596
 30
0.0
 10
1741.992512
 20
2260.575476
 30
0.0
 10
1741.958512
 20
2259.162996
 30
0.0
 10
1741.782752
 20
2257.761236
 30
0.0
 10
1741.468104
 20
2256.383636
 30
0.0
 10
1741.017400
 20
2255.044276
 30
0.0
 10
1740.436296
 20
2253.756196
 30
0.0
 10
1739.730464
 20
2252.532756
 30
0.0
 10
1738.905584
 20
2251.385556
 30
0.0
 10
1737.970152
 20
2250.325956
 30
0.0
 10
1736.935504
 20
2249.364996
 30
0.0
 10
1735.810152
 20
2248.511796
 30
0.0
 10
1734.602592
 20
2247.775076
 30
0.0
 10
1733.330408
 20
2247.161956
 30
0.0
 10
1732.002656
 20
2246.678596
 30
0.0
 10
1730.633240
 20
2246.329956
 30
0.0
 10
1729.236040
 20
2246.119396
 30
0.0
 10
1727.824952
 20
2246.048996
 30
0.0
 10
1726.413872
 20
2246.119476
 30
0.0
 10
1725.016672
 20
2246.329956
 30
0.0
 10
1723.647256
 20
2246.678596
 30
0.0
 10
1722.319504
 20
2247.161956
 30
0.0
 10
1721.046464
 20
2247.775076
 30
0.0
 10
1719.840896
 20
2248.511796
 30
0.0
 10
1718.714688
 20
2249.364996
 30
0.0
 10
1717.678904
 20
2250.325956
 30
0.0
 10
1716.743760
 20
2251.385556
 30
0.0
 10
1715.919160
 20
2252.532756
 30
0.0
 10
1715.212480
 20
2253.756196
 30
0.0
 10
1714.631384
 20
2255.044276
 30
0.0
 10
1714.181520
 20
2256.383636
 30
0.0
 10
1713.867160
 20
2257.761236
 30
0.0
 10
1713.691408
 20
2259.162996
 30
0.0
 10
1713.656288
 20
2260.575476
 30
0.0
 10
1713.761712
 20
2261.984596
 30
0.0
 10
1714.007192
 20
2263.376116
 30
0.0
 10
1714.389872
 20
2264.736196
 30
0.0
 10
1714.906056
 20
2266.051476
 30
0.0
 10
1715.550656
 20
2267.308916
 30
0.0
 10
1716.317144
 20
2268.495796
 30
0.0
 10
1717.198152
 20
2269.600436
 30
0.0
 10
1718.184608
 20
2270.612116
 30
0.0
 10
1719.267160
 20
2271.520356
 30
0.0
 10
1720.434464
 20
2272.316036
 30
0.0
 10
1721.675472
 20
2272.991796
 30
0.0
 10
1722.977424
 20
2273.540836
 30
0.0
 10
1724.327568
 20
2273.957316
 30
0.0
 10
1725.712576
 20
2274.237316
 30
0.0
 10
1727.118560
 20
2274.377956
 30
0.0
 10
1728.531352
 20
2274.377956
 30
0.0
  0
LWPOLYLINE
  5
19f
100
AcDbEntity
  8
Layer_1
 62
7
100
AcDbPolyline
 90
5
 70
0
 10
1207.667472
 20
2267.308916
 30
0.0
 10
1207.667472
 20
2253.135716
 30
0.0
 10
1199.163536
 20
2253.135716
 30
0.0
 10
1199.163536
 20
2267.308916
 30
0.0
 10
1207.667472
 20
2267.308916
 30
0.0
  0
LWPOLYLINE
  5
1a0
100
AcDbEntity
  8
Layer_1
 62
7
100
AcDbPolyline
 90
5
 70
0
 10
1700.895824
 20
2267.308916
 30
0.0
 10
1700.895824
 20
2253.135716
 30
0.0
 10
1692.391888
 20
2253.135716
 30
0.0
 10
1692.391888
 20
2267.308916
 30
0.0
 10
1700.895824
 20
2267.308916
 30
0.0
  0
LWPOLYLINE
  5
1a1
100
AcDbEntity
  8
Layer_1
 62
7
100
AcDbPolyline
 90
5
 70
0
 10
1763.258024
 20
2267.308916
 30
0.0
 10
1763.258024
 20
2253.135716
 30
0.0
 10
1754.754088
 20
2253.135716
 30
0.0
 10
1754.754088
 20
2267.308916
 30
0.0
 10
1763.258024
 20
2267.308916
 30
0.0
  0
LWPOLYLINE
  5
1a2
100
AcDbEntity
  8
Layer_1
 62
7
100
AcDbPolyline
 90
5
 70
0
 10
1145.305272
 20
2267.308916
 30
0.0
 10
1145.305272
 20
2253.135716
 30
0.0
 10
1136.801336
 20
2253.135716
 30
0.0
 10
1136.801336
 20
2267.308916
 30
0.0
 10
1145.305272
 20
2267.308916
 30
0.0
  0
LWPOLYLINE
  5
1a3
100
AcDbEntity
  8
Layer_1
 62
7
100
AcDbPolyline
 90
23
 70
0
 10
1836.332360
 20
2264.845876
 30
0.0
 10
1837.579600
 20
2264.276116
 30
0.0
 10
1838.617080
 20
2263.378116
 30
0.0
 10
1839.356928
 20
2262.224116
 30
0.0
 10
1839.745272
 20
2260.907956
 30
0.0
 10
1839.745272
 20
2259.536596
 30
0.0
 10
1839.356928
 20
2258.220436
 30
0.0
 10
1838.617080
 20
2257.066516
 30
0.0
 10
1837.579600
 20
2256.168436
 30
0.0
 10
1836.332360
 20
2255.598676
 30
0.0
 10
1834.974560
 20
2255.403396
 30
0.0
 10
1833.616768
 20
2255.598676
 30
0.0
 10
1832.369520
 20
2256.168436
 30
0.0
 10
1831.332040
 20
2257.066516
 30
0.0
 10
1830.592200
 20
2258.220436
 30
0.0
 10
1830.203856
 20
2259.536596
 30
0.0
 10
1830.203856
 20
2260.907956
 30
0.0
 10
1830.592200
 20
2262.224116
 30
0.0
 10
1831.332040
 20
2263.378116
 30
0.0
 10
1832.369520
 20
2264.276116
 30
0.0
 10
1833.616768
 20
2264.845876
 30
0.0
 10
1834.974560
 20
2265.041156
 30
0.0
 10
1836.332360
 20
2264.845876
 30
0.0
  0
LWPOLYLINE
  5
1a4
100
AcDbEntity
  8
Layer_1
 62
7
100
AcDbPolyline
 90
23
 70
0
 10
1491.639160
 20
2264.845876
 30
0.0
 10
1492.886971
 20
2264.276116
 30
0.0
 10
1493.923602
 20
2263.378116
 30
0.0
 10
1494.665145
 20
2262.224116
 30
0.0
 10
1495.051506
 20
2260.907956
 30
0.0
 10
1495.051506
 20
2259.536596
 30
0.0
 10
1494.665145
 20
2258.220436
 30
0.0
 10
1493.923602
 20
2257.066516
 30
0.0
 10
1492.886971
 20
2256.168436
 30
0.0
 10
1491.639160
 20
2255.598676
 30
0.0
 10
1490.281649
 20
2255.403396
 30
0.0
 10
1488.924137
 20
2255.598676
 30
0.0
 10
1487.676326
 20
2256.168436
 30
0.0
 10
1486.639696
 20
2257.066516
 30
0.0
 10
1485.898153
 20
2258.220436
 30
0.0
 10
1485.511790
 20
2259.536596
 30
0.0
 10
1485.511790
 20
2260.907956
 30
0.0
 10
1485.898153
 20
2262.224116
 30
0.0
 10
1486.639696
 20
2263.378116
 30
0.0
 10
1487.676326
 20
2264.276116
 30
0.0
 10
1488.924137
 20
2264.845876
 30
0.0
 10
1490.281649
 20
2265.041156
 30
0.0
 10
1491.639160
 20
2264.845876
 30
0.0
  0
LWPOLYLINE
  5
1a5
100
AcDbEntity
  8
Layer_1
 62
7
100
AcDbPolyline
 90
23
 70
0
 10
1411.135223
 20
2264.845876
 30
0.0
 10
1412.383034
 20
2264.276116
 30
0.0
 10
1413.419664
 20
2263.378116
 30
0.0
 10
1414.161207
 20
2262.224116
 30
0.0
 10
1414.547570
 20
2260.907956
 30
0.0
 10
1414.547570
 20
2259.536596
 30
0.0
 10
1414.161207
 20
2258.220436
 30
0.0
 10
1413.419664
 20
2257.066516
 30
0.0
 10
1412.383034
 20
2256.168436
 30
0.0
 10
1411.135223
 20
2255.598676
 30
0.0
 10
1409.777711
 20
2255.403396
 30
0.0
 10
1408.420200
 20
2255.598676
 30
0.0
 10
1407.172389
 20
2256.168436
 30
0.0
 10
1406.135758
 20
2257.066516
 30
0.0
 10
1405.394215
 20
2258.220436
 30
0.0
 10
1405.007854
 20
2259.536596
 30
0.0
 10
1405.007854
 20
2260.907956
 30
0.0
 10
1405.394215
 20
2262.224116
 30
0.0
 10
1406.135758
 20
2263.378116
 30
0.0
 10
1407.172389
 20
2264.276116
 30
0.0
 10
1408.420200
 20
2264.845876
 30
0.0
 10
1409.777711
 20
2265.041156
 30
0.0
 10
1411.135223
 20
2264.845876
 30
0.0
  0
LWPOLYLINE
  5
1a6
100
AcDbEntity
  8
Layer_1
 62
7
100
AcDbPolyline
 90
23
 70
0
 10
1066.442592
 20
2264.845876
 30
0.0
 10
1067.689840
 20
2264.276116
 30
0.0
 10
1068.727320
 20
2263.378116
 30
0.0
 10
1069.467160
 20
2262.224116
 30
0.0
 10
1069.855504
 20
2260.907956
 30
0.0
 10
1069.855504
 20
2259.536596
 30
0.0
 10
1069.467160
 20
2258.220436
 30
0.0
 10
1068.727320
 20
2257.066516
 30
0.0
 10
1067.689840
 20
2256.168436
 30
0.0
 10
1066.442592
 20
2255.598676
 30
0.0
 10
1065.084800
 20
2255.403396
 30
0.0
 10
1063.727000
 20
2255.598676
 30
0.0
 10
1062.479760
 20
2256.168436
 30
0.0
 10
1061.442280
 20
2257.066516
 30
0.0
 10
1060.702432
 20
2258.220436
 30
0.0
 10
1060.314088
 20
2259.536596
 30
0.0
 10
1060.314088
 20
2260.907956
 30
0.0
 10
1060.702432
 20
2262.224116
 30
0.0
 10
1061.442280
 20
2263.378116
 30
0.0
 10
1062.479760
 20
2264.276116
 30
0.0
 10
1063.727000
 20
2264.845876
 30
0.0
 10
1065.084800
 20
2265.041156
 30
0.0
 10
1066.442592
 20
2264.845876
 30
0.0
  0
LWPOLYLINE
  5
1a7
100
AcDbEntity
  8
Layer_1
 62
7
100
AcDbPolyline
 90
23
 70
0
 10
985.938656
 20
2264.845876
 30
0.0
 10
987.185904
 20
2264.276116
 30
0.0
 10
988.223384
 20
2263.378116
 30
0.0
 10
988.963224
 20
2262.224116
 30
0.0
 10
989.351568
 20
2260.907956
 30
0.0
 10
989.351568
 20
2259.536596
 30
0.0
 10
988.963224
 20
2258.220436
 30
0.0
 10
988.223384
 20
2257.066516
 30
0.0
 10
987.185904
 20
2256.168436
 30
0.0
 10
985.938656
 20
2255.598676
 30
0.0
 10
984.580864
 20
2255.403396
 30
0.0
 10
983.223064
 20
2255.598676
 30
0.0
 10
981.975824
 20
2256.168436
 30
0.0
 10
980.938344
 20
2257.066516
 30
0.0
 10
980.198496
 20
2258.220436
 30
0.0
 10
979.810152
 20
2259.536596
 30
0.0
 10
979.810152
 20
2260.907956
 30
0.0
 10
980.198496
 20
2262.224116
 30
0.0
 10
980.938344
 20
2263.378116
 30
0.0
 10
981.975824
 20
2264.276116
 30
0.0
 10
983.223064
 20
2264.845876
 30
0.0
 10
984.580864
 20
2265.041156
 30
0.0
 10
985.938656
 20
2264.845876
 30
0.0
  0
LWPOLYLINE
  5
1a8
100
AcDbEntity
  8
Layer_1
 62
7
100
AcDbPolyline
 90
23
 70
0
 10
1916.836296
 20
2264.845876
 30
0.0
 10
1918.083536
 20
2264.276116
 30
0.0
 10
1919.121016
 20
2263.378116
 30
0.0
 10
1919.860864
 20
2262.224116
 30
0.0
 10
1920.249208
 20
2260.907956
 30
0.0
 10
1920.249208
 20
2259.536596
 30
0.0
 10
1919.860864
 20
2258.220436
 30
0.0
 10
1919.121016
 20
2257.066516
 30
0.0
 10
1918.083536
 20
2256.168436
 30
0.0
 10
1916.836296
 20
2255.598676
 30
0.0
 10
1915.478496
 20
2255.403396
 30
0.0
 10
1914.120704
 20
2255.598676
 30
0.0
 10
1912.873456
 20
2256.168436
 30
0.0
 10
1911.835976
 20
2257.066516
 30
0.0
 10
1911.096136
 20
2258.220436
 30
0.0
 10
1910.707792
 20
2259.536596
 30
0.0
 10
1910.707792
 20
2260.907956
 30
0.0
 10
1911.096136
 20
2262.224116
 30
0.0
 10
1911.835976
 20
2263.378116
 30
0.0
 10
1912.873456
 20
2264.276116
 30
0.0
 10
1914.120704
 20
2264.845876
 30
0.0
 10
1915.478496
 20
2265.041156
 30
0.0
 10
1916.836296
 20
2264.845876
 30
0.0
  0
LWPOLYLINE
  5
1a9
100
AcDbEntity
  8
Layer_1
 62
7
100
AcDbPolyline
 90
51
 70
0
 10
321.939849
 20
1244.223700
 30
0.0
 10
321.939849
 20
1454.131140
 30
0.0
 10
335.758809
 20
1454.131140
 30
0.0
 10
340.365049
 20
1458.737460
 30
0.0
 10
340.365049
 20
1492.044500
 30
0.0
 10
335.758809
 20
1496.650820
 30
0.0
 10
321.939849
 20
1496.650820
 30
0.0
 10
321.939849
 20
1511.107540
 30
0.0
 10
302.380809
 20
1511.107540
 30
0.0
 10
302.380809
 20
1506.713860
 30
0.0
 10
286.223369
 20
1506.713860
 30
0.0
 10
286.223369
 20
1511.107540
 30
0.0
 10
266.664249
 20
1511.107540
 30
0.0
 10
266.664249
 20
1524.713860
 30
0.0
 10
286.223369
 20
1524.713860
 30
0.0
 10
286.223369
 20
1529.107540
 30
0.0
 10
302.380809
 20
1529.107540
 30
0.0
 10
302.380809
 20
1524.713860
 30
0.0
 10
321.939849
 20
1524.713860
 30
0.0
 10
321.939849
 20
1539.170500
 30
0.0
 10
335.758809
 20
1539.170500
 30
0.0
 10
340.365049
 20
1543.776820
 30
0.0
 10
340.365049
 20
1577.083940
 30
0.0
 10
335.758809
 20
1581.690180
 30
0.0
 10
321.939849
 20
1581.690180
 30
0.0
 10
321.939849
 20
1801.375220
 30
0.0
 10
102.254809
 20
1801.375220
 30
0.0
 10
102.254809
 20
1815.194180
 30
0.0
 10
97.648513
 20
1819.800420
 30
0.0
 10
64.341425
 20
1819.800420
 30
0.0
 10
59.735129
 20
1815.194180
 30
0.0
 10
59.735129
 20
1801.375220
 30
0.0
 10
45.278433
 20
1801.375220
 30
0.0
 10
45.278433
 20
1781.816180
 30
0.0
 10
49.672137
 20
1781.816180
 30
0.0
 10
49.672137
 20
1765.658740
 30
0.0
 10
45.278433
 20
1765.658740
 30
0.0
 10
45.278433
 20
1746.099700
 30
0.0
 10
31.672137
 20
1746.099700
 30
0.0
 10
31.672137
 20
1765.658740
 30
0.0
 10
27.278433
 20
1765.658740
 30
0.0
 10
27.278433
 20
1781.816180
 30
0.0
 10
31.672137
 20
1781.816180
 30
0.0
 10
31.672137
 20
1801.375220
 30
0.0
 10
17.215441
 20
1801.375220
 30
0.0
 10
17.215441
 20
1815.194180
 30
0.0
 10
12.609145
 20
1819.800420
 30
0.0
 10
-20.697943
 20
1819.800420
 30
0.0
 10
-25.304247
 20
1815.194180
 30
0.0
 10
-25.304247
 20
1801.375220
 30
0.0
 10
-235.211743
 20
1801.375220
 30
0.0
  0
LWPOLYLINE
  5
1aa
100
AcDbEntity
  8
Layer_1
 62
7
100
AcDbPolyline
 90
7
 70
0
 10
304.790249
 20
1781.532740
 30
0.0
 10
316.128889
 20
1792.871300
 30
0.0
 10
316.412329
 20
1792.871300
 30
0.0
 10
316.412329
 20
1753.186260
 30
0.0
 10
316.128889
 20
1753.186260
 30
0.0
 10
304.790249
 20
1764.524820
 30
0.0
 10
304.790249
 20
1781.532740
 30
0.0
  0
LWPOLYLINE
  5
1ab
100
AcDbEntity
  8
Layer_1
 62
7
100
AcDbPolyline
 90
7
 70
0
 10
273.750889
 20
1795.847700
 30
0.0
 10
313.435929
 20
1795.847700
 30
0.0
 10
313.435929
 20
1795.564260
 30
0.0
 10
302.097369
 20
1784.225620
 30
0.0
 10
285.089449
 20
1784.225620
 30
0.0
 10
273.750889
 20
1795.564260
 30
0.0
 10
273.750889
 20
1795.847700
 30
0.0
  0
LWPOLYLINE
  5
1ac
100
AcDbEntity
  8
Layer_1
 62
7
100
AcDbPolyline
 90
11
 70
0
 10
273.750889
 20
1750.493380
 30
0.0
 10
285.089449
 20
1761.831940
 30
0.0
 10
302.097369
 20
1761.831940
 30
0.0
 10
313.435929
 20
1750.493380
 30
0.0
 10
313.435929
 20
1750.209860
 30
0.0
 10
305.640649
 20
1750.209860
 30
0.0
 10
305.640649
 20
1739.013060
 30
0.0
 10
281.546169
 20
1739.013060
 30
0.0
 10
281.546169
 20
1750.209860
 30
0.0
 10
273.750889
 20
1750.209860
 30
0.0
 10
273.750889
 20
1750.493380
 30
0.0
  0
LWPOLYLINE
  5
1ad
100
AcDbEntity
  8
Layer_1
 62
7
100
AcDbPolyline
 90
5
 70
0
 10
281.546169
 20
1713.501220
 30
0.0
 10
305.640649
 20
1713.501220
 30
0.0
 10
305.640649
 20
1702.162660
 30
0.0
 10
281.546169
 20
1702.162660
 30
0.0
 10
281.546169
 20
1713.501220
 30
0.0
  0
LWPOLYLINE
  5
1ae
100
AcDbEntity
  8
Layer_1
 62
7
100
AcDbPolyline
 90
35
 70
0
 10
285.973929
 20
1773.734660
 30
0.0
 10
286.231849
 20
1775.123620
 30
0.0
 10
286.742089
 20
1776.438900
 30
0.0
 10
287.484729
 20
1777.640740
 30
0.0
 10
288.437209
 20
1778.683940
 30
0.0
 10
289.565369
 20
1779.537140
 30
0.0
 10
290.829609
 20
1780.166420
 30
0.0
 10
292.187449
 20
1780.551940
 30
0.0
 10
293.593449
 20
1780.682340
 30
0.0
 10
294.999369
 20
1780.551940
 30
0.0
 10
296.357209
 20
1780.166420
 30
0.0
 10
297.621449
 20
1779.537140
 30
0.0
 10
298.749609
 20
1778.683940
 30
0.0
 10
299.702089
 20
1777.640740
 30
0.0
 10
300.444729
 20
1776.438900
 30
0.0
 10
300.954969
 20
1775.123620
 30
0.0
 10
301.212969
 20
1773.734660
 30
0.0
 10
301.212969
 20
1772.322980
 30
0.0
 10
300.954969
 20
1770.934020
 30
0.0
 10
300.444729
 20
1769.618740
 30
0.0
 10
299.702089
 20
1768.416820
 30
0.0
 10
298.749609
 20
1767.373700
 30
0.0
 10
297.621449
 20
1766.520420
 30
0.0
 10
296.357209
 20
1765.891140
 30
0.0
 10
294.999369
 20
1765.505620
 30
0.0
 10
293.593449
 20
1765.375220
 30
0.0
 10
292.187449
 20
1765.505620
 30
0.0
 10
290.829609
 20
1765.891140
 30
0.0
 10
289.565369
 20
1766.520420
 30
0.0
 10
288.437209
 20
1767.373700
 30
0.0
 10
287.484729
 20
1768.416820
 30
0.0
 10
286.742089
 20
1769.618740
 30
0.0
 10
286.231849
 20
1770.934020
 30
0.0
 10
285.973929
 20
1772.322980
 30
0.0
 10
285.973929
 20
1773.734660
 30
0.0
  0
LWPOLYLINE
  5
1af
100
AcDbEntity
  8
Layer_1
 62
7
100
AcDbPolyline
 90
7
 70
0
 10
217.058009
 20
1750.493380
 30
0.0
 10
228.396569
 20
1761.831940
 30
0.0
 10
245.404409
 20
1761.831940
 30
0.0
 10
256.743049
 20
1750.493380
 30
0.0
 10
256.743049
 20
1750.209860
 30
0.0
 10
217.058009
 20
1750.209860
 30
0.0
 10
217.058009
 20
1750.493380
 30
0.0
  0
LWPOLYLINE
  5
1b0
100
AcDbEntity
  8
Layer_1
 62
7
100
AcDbPolyline
 90
7
 70
0
 10
217.058009
 20
1795.847700
 30
0.0
 10
256.743049
 20
1795.847700
 30
0.0
 10
256.743049
 20
1795.564260
 30
0.0
 10
245.404409
 20
1784.225620
 30
0.0
 10
228.396569
 20
1784.225620
 30
0.0
 10
217.058009
 20
1795.564260
 30
0.0
 10
217.058009
 20
1795.847700
 30
0.0
  0
LWPOLYLINE
  5
1b1
100
AcDbEntity
  8
Layer_1
 62
7
100
AcDbPolyline
 90
5
 70
0
 10
177.157529
 20
1427.890820
 30
0.0
 10
253.123209
 20
1351.924580
 30
0.0
 10
240.296409
 20
1339.096420
 30
0.0
 10
164.330729
 20
1415.064100
 30
0.0
 10
177.157529
 20
1427.890820
 30
0.0
  0
LWPOLYLINE
  5
1b2
100
AcDbEntity
  8
Layer_1
 62
7
100
AcDbPolyline
 90
35
 70
0
 10
229.280969
 20
1773.734660
 30
0.0
 10
229.538969
 20
1775.123620
 30
0.0
 10
230.049209
 20
1776.438900
 30
0.0
 10
230.791849
 20
1777.640740
 30
0.0
 10
231.744249
 20
1778.683940
 30
0.0
 10
232.872489
 20
1779.537140
 30
0.0
 10
234.136729
 20
1780.166420
 30
0.0
 10
235.494489
 20
1780.551940
 30
0.0
 10
236.900489
 20
1780.682340
 30
0.0
 10
238.306489
 20
1780.551940
 30
0.0
 10
239.664249
 20
1780.166420
 30
0.0
 10
240.928569
 20
1779.537140
 30
0.0
 10
242.056729
 20
1778.683940
 30
0.0
 10
243.009209
 20
1777.640740
 30
0.0
 10
243.751849
 20
1776.438900
 30
0.0
 10
244.262089
 20
1775.123620
 30
0.0
 10
244.520009
 20
1773.734660
 30
0.0
 10
244.520009
 20
1772.322980
 30
0.0
 10
244.262089
 20
1770.934020
 30
0.0
 10
243.751849
 20
1769.618740
 30
0.0
 10
243.009209
 20
1768.416820
 30
0.0
 10
242.056729
 20
1767.373700
 30
0.0
 10
240.928569
 20
1766.520420
 30
0.0
 10
239.664249
 20
1765.891140
 30
0.0
 10
238.306489
 20
1765.505620
 30
0.0
 10
236.900489
 20
1765.375220
 30
0.0
 10
235.494489
 20
1765.505620
 30
0.0
 10
234.136729
 20
1765.891140
 30
0.0
 10
232.872489
 20
1766.520420
 30
0.0
 10
231.744249
 20
1767.373700
 30
0.0
 10
230.791849
 20
1768.416820
 30
0.0
 10
230.049209
 20
1769.618740
 30
0.0
 10
229.538969
 20
1770.934020
 30
0.0
 10
229.280969
 20
1772.322980
 30
0.0
 10
229.280969
 20
1773.734660
 30
0.0
  0
LWPOLYLINE
  5
1b3
100
AcDbEntity
  8
Layer_1
 62
7
100
AcDbPolyline
 90
7
 70
0
 10
214.081609
 20
1792.871300
 30
0.0
 10
214.365049
 20
1792.871300
 30
0.0
 10
225.703689
 20
1781.532740
 30
0.0
 10
225.703689
 20
1764.524820
 30
0.0
 10
214.365049
 20
1753.186260
 30
0.0
 10
214.081609
 20
1753.186260
 30
0.0
 10
214.081609
 20
1792.871300
 30
0.0
  0
LWPOLYLINE
  5
1b4
100
AcDbEntity
  8
Layer_1
 62
7
100
AcDbPolyline
 90
5
 70
0
 10
24.823633
 20
1580.224740
 30
0.0
 10
100.789297
 20
1504.259060
 30
0.0
 10
87.962529
 20
1491.429380
 30
0.0
 10
11.994025
 20
1567.397940
 30
0.0
 10
24.823633
 20
1580.224740
 30
0.0
  0
LWPOLYLINE
  5
1b5
100
AcDbEntity
  8
Layer_1
 62
7
100
AcDbPolyline
 90
5
 70
0
 10
-127.510799
 20
1732.558580
 30
0.0
 10
-51.544559
 20
1656.592900
 30
0.0
 10
-64.371327
 20
1643.766100
 30
0.0
 10
-140.338983
 20
1719.731780
 30
0.0
 10
-127.510799
 20
1732.558580
 30
0.0
  0
LWPOLYLINE
  5
1b6
100
AcDbEntity
  8
Layer_1
 62
7
100
AcDbPolyline
 90
52
 70
0
 10
-234.828936
 20
1591.153572
 30
0.0
 10
-248.647832
 20
1591.153572
 30
0.0
 10
-253.254128
 20
1586.547268
 30
0.0
 10
-253.254128
 20
1553.240180
 30
0.0
 10
-248.647832
 20
1548.633884
 30
0.0
 10
-234.828936
 20
1548.633884
 30
0.0
 10
-234.828936
 20
1534.177188
 30
0.0
 10
-215.269880
 20
1534.177188
 30
0.0
 10
-215.269880
 20
1538.570892
 30
0.0
 10
-199.112400
 20
1538.570892
 30
0.0
 10
-199.112400
 20
1534.177188
 30
0.0
 10
-179.553344
 20
1534.177188
 30
0.0
 10
-179.553344
 20
1520.570892
 30
0.0
 10
-199.112400
 20
1520.570892
 30
0.0
 10
-199.112400
 20
1516.177188
 30
0.0
 10
-215.269880
 20
1516.177188
 30
0.0
 10
-215.269880
 20
1520.570892
 30
0.0
 10
-234.828936
 20
1520.570892
 30
0.0
 10
-234.828936
 20
1506.114196
 30
0.0
 10
-248.647832
 20
1506.114196
 30
0.0
 10
-253.254128
 20
1501.507900
 30
0.0
 10
-253.254128
 20
1468.200812
 30
0.0
 10
-248.647832
 20
1463.594516
 30
0.0
 10
-234.828936
 20
1463.594516
 30
0.0
 10
-234.828936
 20
1243.909500
 30
0.0
 10
-15.143864
 20
1243.909500
 30
0.0
 10
-15.143864
 20
1230.090540
 30
0.0
 10
-10.537624
 20
1225.484300
 30
0.0
 10
22.769496
 20
1225.484300
 30
0.0
 10
27.375816
 20
1230.090540
 30
0.0
 10
27.375816
 20
1243.909500
 30
0.0
 10
41.832456
 20
1243.909500
 30
0.0
 10
41.832456
 20
1263.468540
 30
0.0
 10
37.438776
 20
1263.468540
 30
0.0
 10
37.438776
 20
1279.625980
 30
0.0
 10
41.832456
 20
1279.625980
 30
0.0
 10
41.832456
 20
1299.185100
 30
0.0
 10
55.438776
 20
1299.185100
 30
0.0
 10
55.438776
 20
1279.625980
 30
0.0
 10
59.832456
 20
1279.625980
 30
0.0
 10
59.832456
 20
1263.468540
 30
0.0
 10
55.438776
 20
1263.468540
 30
0.0
 10
55.438776
 20
1243.909500
 30
0.0
 10
69.895496
 20
1243.909500
 30
0.0
 10
69.895496
 20
1230.090540
 30
0.0
 10
74.501736
 20
1225.484300
 30
0.0
 10
107.808856
 20
1225.484300
 30
0.0
 10
112.415176
 20
1230.090540
 30
0.0
 10
112.415176
 20
1243.909500
 30
0.0
 10
322.322696
 20
1243.909500
 30
0.0
 10
-234.828936
 20
1801.061068
 30
0.0
 10
-234.828936
 20
1591.153572
 30
0.0
  0
LWPOLYLINE
  5
1b7
100
AcDbEntity
  8
Layer_1
 62
7
100
AcDbPolyline
 90
7
 70
0
 10
-197.978536
 20
1261.059100
 30
0.0
 10
-186.639960
 20
1249.720460
 30
0.0
 10
-186.639960
 20
1249.437020
 30
0.0
 10
-226.325000
 20
1249.437020
 30
0.0
 10
-226.325000
 20
1249.720460
 30
0.0
 10
-214.986416
 20
1261.059100
 30
0.0
 10
-197.978536
 20
1261.059100
 30
0.0
  0
LWPOLYLINE
  5
1b8
100
AcDbEntity
  8
Layer_1
 62
7
100
AcDbPolyline
 90
7
 70
0
 10
-229.017912
 20
1292.098460
 30
0.0
 10
-217.679328
 20
1280.759900
 30
0.0
 10
-217.679328
 20
1263.751980
 30
0.0
 10
-229.017912
 20
1252.413420
 30
0.0
 10
-229.301376
 20
1252.413420
 30
0.0
 10
-229.301376
 20
1292.098460
 30
0.0
 10
-229.017912
 20
1292.098460
 30
0.0
  0
LWPOLYLINE
  5
1b9
100
AcDbEntity
  8
Layer_1
 62
7
100
AcDbPolyline
 90
11
 70
0
 10
-183.663576
 20
1292.098460
 30
0.0
 10
-183.663576
 20
1284.303180
 30
0.0
 10
-172.466728
 20
1284.303180
 30
0.0
 10
-172.466728
 20
1260.208700
 30
0.0
 10
-183.663576
 20
1260.208700
 30
0.0
 10
-183.663576
 20
1252.413420
 30
0.0
 10
-183.947040
 20
1252.413420
 30
0.0
 10
-195.285624
 20
1263.751980
 30
0.0
 10
-195.285624
 20
1280.759900
 30
0.0
 10
-183.947040
 20
1292.098460
 30
0.0
 10
-183.663576
 20
1292.098460
 30
0.0
  0
LWPOLYLINE
  5
1ba
100
AcDbEntity
  8
Layer_1
 62
7
100
AcDbPolyline
 90
5
 70
0
 10
-135.616336
 20
1284.303180
 30
0.0
 10
-135.616336
 20
1260.208700
 30
0.0
 10
-146.954920
 20
1260.208700
 30
0.0
 10
-146.954920
 20
1284.303180
 30
0.0
 10
-135.616336
 20
1284.303180
 30
0.0
  0
LWPOLYLINE
  5
1bb
100
AcDbEntity
  8
Layer_1
 62
7
100
AcDbPolyline
 90
35
 70
0
 10
-205.776648
 20
1279.875420
 30
0.0
 10
-204.387672
 20
1279.617500
 30
0.0
 10
-203.072400
 20
1279.107260
 30
0.0
 10
-201.870504
 20
1278.364620
 30
0.0
 10
-200.827360
 20
1277.412140
 30
0.0
 10
-199.974128
 20
1276.283980
 30
0.0
 10
-199.344840
 20
1275.019740
 30
0.0
 10
-198.959328
 20
1273.661900
 30
0.0
 10
-198.828936
 20
1272.255900
 30
0.0
 10
-198.959328
 20
1270.849980
 30
0.0
 10
-199.344840
 20
1269.492140
 30
0.0
 10
-199.974128
 20
1268.227900
 30
0.0
 10
-200.827360
 20
1267.099740
 30
0.0
 10
-201.870504
 20
1266.147260
 30
0.0
 10
-203.072400
 20
1265.404620
 30
0.0
 10
-204.387672
 20
1264.894380
 30
0.0
 10
-205.776648
 20
1264.636380
 30
0.0
 10
-207.188304
 20
1264.636380
 30
0.0
 10
-208.577280
 20
1264.894380
 30
0.0
 10
-209.892552
 20
1265.404620
 30
0.0
 10
-211.094448
 20
1266.147260
 30
0.0
 10
-212.137592
 20
1267.099740
 30
0.0
 10
-212.990824
 20
1268.227900
 30
0.0
 10
-213.620112
 20
1269.492140
 30
0.0
 10
-214.005624
 20
1270.849980
 30
0.0
 10
-214.136016
 20
1272.255900
 30
0.0
 10
-214.005624
 20
1273.661900
 30
0.0
 10
-213.620112
 20
1275.019740
 30
0.0
 10
-212.990824
 20
1276.283980
 30
0.0
 10
-212.137592
 20
1277.412140
 30
0.0
 10
-211.094448
 20
1278.364620
 30
0.0
 10
-209.892552
 20
1279.107260
 30
0.0
 10
-208.577280
 20
1279.617500
 30
0.0
 10
-207.188304
 20
1279.875420
 30
0.0
 10
-205.776648
 20
1279.875420
 30
0.0
  0
LWPOLYLINE
  5
1bc
100
AcDbEntity
  8
Layer_1
 62
7
100
AcDbPolyline
 90
7
 70
0
 10
-229.017912
 20
1348.791340
 30
0.0
 10
-217.679328
 20
1337.452780
 30
0.0
 10
-217.679328
 20
1320.444940
 30
0.0
 10
-229.017912
 20
1309.106300
 30
0.0
 10
-229.301376
 20
1309.106300
 30
0.0
 10
-229.301376
 20
1348.791340
 30
0.0
 10
-229.017912
 20
1348.791340
 30
0.0
  0
LWPOLYLINE
  5
1bd
100
AcDbEntity
  8
Layer_1
 62
7
100
AcDbPolyline
 90
7
 70
0
 10
-183.663576
 20
1348.791340
 30
0.0
 10
-183.663576
 20
1309.106300
 30
0.0
 10
-183.947040
 20
1309.106300
 30
0.0
 10
-195.285624
 20
1320.444940
 30
0.0
 10
-195.285624
 20
1337.452780
 30
0.0
 10
-183.947040
 20
1348.791340
 30
0.0
 10
-183.663576
 20
1348.791340
 30
0.0
  0
LWPOLYLINE
  5
1be
100
AcDbEntity
  8
Layer_1
 62
7
100
AcDbPolyline
 90
5
 70
0
 10
227.449896
 20
1325.552940
 30
0.0
 10
214.621736
 20
1312.726140
 30
0.0
 10
138.655496
 20
1388.691820
 30
0.0
 10
151.482216
 20
1401.518620
 30
0.0
 10
227.449896
 20
1325.552940
 30
0.0
  0
LWPOLYLINE
  5
1bf
100
AcDbEntity
  8
Layer_1
 62
7
100
AcDbPolyline
 90
35
 70
0
 10
-205.776648
 20
1336.568380
 30
0.0
 10
-204.387672
 20
1336.310380
 30
0.0
 10
-203.072400
 20
1335.800140
 30
0.0
 10
-201.870504
 20
1335.057500
 30
0.0
 10
-200.827360
 20
1334.105100
 30
0.0
 10
-199.974128
 20
1332.976860
 30
0.0
 10
-199.344840
 20
1331.712620
 30
0.0
 10
-198.959328
 20
1330.354860
 30
0.0
 10
-198.828936
 20
1328.948860
 30
0.0
 10
-198.959328
 20
1327.542860
 30
0.0
 10
-199.344840
 20
1326.185100
 30
0.0
 10
-199.974128
 20
1324.920780
 30
0.0
 10
-200.827360
 20
1323.792620
 30
0.0
 10
-201.870504
 20
1322.840140
 30
0.0
 10
-203.072400
 20
1322.097500
 30
0.0
 10
-204.387672
 20
1321.587260
 30
0.0
 10
-205.776648
 20
1321.329340
 30
0.0
 10
-207.188304
 20
1321.329340
 30
0.0
 10
-208.577280
 20
1321.587260
 30
0.0
 10
-209.892552
 20
1322.097500
 30
0.0
 10
-211.094448
 20
1322.840140
 30
0.0
 10
-212.137592
 20
1323.792620
 30
0.0
 10
-212.990824
 20
1324.920780
 30
0.0
 10
-213.620112
 20
1326.185100
 30
0.0
 10
-214.005624
 20
1327.542860
 30
0.0
 10
-214.136016
 20
1328.948860
 30
0.0
 10
-214.005624
 20
1330.354860
 30
0.0
 10
-213.620112
 20
1331.712620
 30
0.0
 10
-212.990824
 20
1332.976860
 30
0.0
 10
-212.137592
 20
1334.105100
 30
0.0
 10
-211.094448
 20
1335.057500
 30
0.0
 10
-209.892552
 20
1335.800140
 30
0.0
 10
-208.577280
 20
1336.310380
 30
0.0
 10
-207.188304
 20
1336.568380
 30
0.0
 10
-205.776648
 20
1336.568380
 30
0.0
  0
LWPOLYLINE
  5
1c0
100
AcDbEntity
  8
Layer_1
 62
7
100
AcDbPolyline
 90
7
 70
0
 10
-186.639960
 20
1351.767740
 30
0.0
 10
-186.639960
 20
1351.484300
 30
0.0
 10
-197.978536
 20
1340.145660
 30
0.0
 10
-214.986416
 20
1340.145660
 30
0.0
 10
-226.325000
 20
1351.484300
 30
0.0
 10
-226.325000
 20
1351.767740
 30
0.0
 10
-186.639960
 20
1351.767740
 30
0.0
  0
LWPOLYLINE
  5
1c1
100
AcDbEntity
  8
Layer_1
 62
7
100
AcDbPolyline
 90
5
 70
0
 10
75.116936
 20
1477.886796
 30
0.0
 10
62.287256
 20
1465.060028
 30
0.0
 10
-13.678424
 20
1541.025692
 30
0.0
 10
-0.851624
 20
1553.855300
 30
0.0
 10
75.116936
 20
1477.886796
 30
0.0
  0
LWPOLYLINE
  5
1c2
100
AcDbEntity
  8
Layer_1
 62
7
100
AcDbPolyline
 90
5
 70
0
 10
-77.219800
 20
1630.220652
 30
0.0
 10
-90.046568
 20
1617.393884
 30
0.0
 10
-166.012240
 20
1693.360124
 30
0.0
 10
-153.185472
 20
1706.188308
 30
0.0
 10
-77.219800
 20
1630.220652
 30
0.0
  0
ENDSEC
  0
SECTION
  2
OBJECTS
  0
DICTIONARY
  5
C
330
0
100
AcDbDictionary
  3
ACAD_GROUP
350
D
  3
ACAD_MLINESTYLE
350
17
  0
DICTIONARY
  5
D
330
C
100
AcDbDictionary
  0
DICTIONARY
  5
1A
330
C
100
AcDbDictionary
  0
DICTIONARY
  5
17
330
C
100
AcDbDictionary
  3
STANDARD
350
18
  0
DICTIONARY
  5
19
330
C
100
AcDbDictionary
  0
ENDSEC
  0
EOF
