  0
SECTION
  2
HEADER
  9
$ACADVER
  1
AC1014
  9
$HANDSEED
  5
FFFF
  9
$MEASUREMENT
 70
     1
  0
ENDSEC
  0
SECTION
  2
TABLES
  0
TABLE
  2
VPORT
  5
8
330
0
100
AcDbSymbolTable
 70
     4
  0
VPORT
  5
2E
330
8
100
AcDbSymbolTableRecord
100
AcDbViewportTableRecord
  2
*ACTIVE
 70
     0
 10
0.0
 20
0.0
 11
1.0
 21
1.0
 12
210.0
 22
148.5
 13
0.0
 23
0.0
 14
10.0
 24
10.0
 15
10.0
 25
10.0
 16
0.0
 26
0.0
 36
1.0
 17
0.0
 27
0.0
 37
0.0
 40
341.0
 41
1.24
 42
50.0
 43
0.0
 44
0.0
 50
0.0
 51
0.0
 71
     0
 72
   100
 73
     1
 74
     3
 75
     0
 76
     0
 77
     0
 78
     0
  0
ENDTAB
  0
TABLE
  2
LTYPE
  5
5
330
0
100
AcDbSymbolTable
 70
     1
  0
LTYPE
  5
14
330
5
100
AcDbSymbolTableRecord
100
AcDbLinetypeTableRecord
  2
BYBLOCK
 70
     0
  3

 72
    65
 73
     0
 40
0.0
  0
LTYPE
  5
15
330
5
100
AcDbSymbolTableRecord
100
AcDbLinetypeTableRecord
  2
BYLAYER
 70
     0
  3

 72
    65
 73
     0
 40
0.0
  0
LTYPE
  5
16
330
5
100
AcDbSymbolTableRecord
100
AcDbLinetypeTableRecord
  2
CONTINUOUS
 70
     0
  3
Solid line
 72
    65
 73
     0
 40
0.0
  0
ENDTAB
  0
TABLE
  2
LAYER
  5
2
100
AcDbSymbolTable
 70
2
  0
LAYER
  5
50
100
AcDbSymbolTableRecord
100
AcDbLayerTableRecord
  2
0
 70
0
  6
CONTINUOUS
  0
LAYER
  5
51
100
AcDbSymbolTableRecord
100
AcDbLayerTableRecord
  2
Layer_1
 70
0
  6
CONTINUOUS
  0
ENDTAB
  0
TABLE
  2
STYLE
  5
3
330
0
100
AcDbSymbolTable
 70
     1
  0
STYLE
  5
11
330
3
100
AcDbSymbolTableRecord
100
AcDbTextStyleTableRecord
  2
STANDARD
 70
     0
 40
0.0
 41
1.0
 50
0.0
 71
     0
 42
2.5
  3
txt
  4

  0
ENDTAB
  0
TABLE
  2
VIEW
  5
6
330
0
100
AcDbSymbolTable
 70
     0
  0
ENDTAB
  0
TABLE
  2
UCS
  5
7
330
0
100
AcDbSymbolTable
 70
     0
  0
ENDTAB
  0
TABLE
  2
APPID
  5
9
330
0
100
AcDbSymbolTable
 70
     2
  0
APPID
  5
12
330
9
100
AcDbSymbolTableRecord
100
AcDbRegAppTableRecord
  2
ACAD
 70
     0
  0
ENDTAB
  0
TABLE
  2
DIMSTYLE
  5
A
330
0
100
AcDbSymbolTable
 70
     1
  0
DIMSTYLE
105
27
330
A
100
AcDbSymbolTableRecord
100
AcDbDimStyleTableRecord
  2
ISO-25
 70
     0
  3

  4

  5

  6

  7

 40
1.0
 41
2.5
 42
0.625
 43
3.75
 44
1.25
 45
0.0
 46
0.0
 47
0.0
 48
0.0
140
2.5
141
2.5
142
0.0
143
0.03937007874016
144
1.0
145
0.0
146
1.0
147
0.625
 71
     0
 72
     0
 73
     0
 74
     0
 75
     0
 76
     0
 77
     1
 78
     8
170
     0
171
     3
172
     1
173
     0
174
     0
175
     0
176
     0
177
     0
178
     0
270
     2
271
     2
272
     2
273
     2
274
     3
340
11
275
     0
280
     0
281
     0
282
     0
283
     0
284
     8
285
     0
286
     0
287
     3
288
     0
  0
ENDTAB
  0
TABLE
  2
BLOCK_RECORD
  5
1
330
0
100
AcDbSymbolTable
 70
     1
  0
BLOCK_RECORD
  5
1F
330
1
100
AcDbSymbolTableRecord
100
AcDbBlockTableRecord
  2
*MODEL_SPACE
  0
BLOCK_RECORD
  5
1B
330
1
100
AcDbSymbolTableRecord
100
AcDbBlockTableRecord
  2
*PAPER_SPACE
  0
ENDTAB
  0
ENDSEC
  0
SECTION
  2
BLOCKS
  0
BLOCK
  5
20
330
1F
100
AcDbEntity
  8
0
100
AcDbBlockBegin
  2
*MODEL_SPACE
 70
     0
 10
0.0
 20
0.0
 30
0.0
  3
*MODEL_SPACE
  1

  0
ENDBLK
  5
21
330
1F
100
AcDbEntity
  8
0
100
AcDbBlockEnd
  0
BLOCK
  5
1C
330
1B
100
AcDbEntity
 67
     1
  8
0
100
AcDbBlockBegin
  2
*PAPER_SPACE
  1

  0
ENDBLK
  5
1D
330
1B
100
AcDbEntity
 67
     1
  8
0
100
AcDbBlockEnd
  0
ENDSEC
  0
SECTION
  2
ENTITIES
  0
LWPOLYLINE
  5
100
100
AcDbEntity
  8
Layer_1
 62
7
100
AcDbPolyline
 90
12
 70
0
 10
25.822862
 20
249.656446
 30
0.0
 10
26.394744
 20
249.718454
 30
0.0
 10
26.776464
 20
249.904494
 30
0.0
 10
26.995568
 20
250.232463
 30
0.0
 10
27.068608
 20
250.720291
 30
0.0
 10
26.995568
 20
251.202599
 30
0.0
 10
26.776464
 20
251.525065
 30
0.0
 10
26.394744
 20
251.706961
 30
0.0
 10
25.822862
 20
251.767601
 30
0.0
 10
24.929893
 20
251.767601
 30
0.0
 10
24.929893
 20
249.656446
 30
0.0
 10
25.822862
 20
249.656446
 30
0.0
  0
LWPOLYLINE
  5
101
100
AcDbEntity
  8
Layer_1
 62
7
100
AcDbPolyline
 90
28
 70
0
 10
24.929893
 20
248.190214
 30
0.0
 10
24.929893
 20
245.075847
 30
0.0
 10
22.807714
 20
245.075847
 30
0.0
 10
22.807714
 20
253.305492
 30
0.0
 10
26.048860
 20
253.305492
 30
0.0
 10
27.457211
 20
253.169059
 30
0.0
 10
27.998092
 20
252.998528
 30
0.0
 10
28.430110
 20
252.759787
 30
0.0
 10
28.762902
 20
252.447314
 30
0.0
 10
29.000613
 20
252.055606
 30
0.0
 10
29.143241
 20
251.584662
 30
0.0
 10
29.190786
 20
251.034483
 30
0.0
 10
29.091563
 20
250.291717
 30
0.0
 10
28.793911
 20
249.695031
 30
0.0
 10
28.301948
 20
249.240275
 30
0.0
 10
27.608799
 20
248.923328
 30
0.0
 10
28.020828
 20
248.760718
 30
0.0
 10
28.386013
 20
248.471333
 30
0.0
 10
28.734651
 20
248.033115
 30
0.0
 10
29.086056
 20
247.412999
 30
0.0
 10
30.238096
 20
245.075847
 30
0.0
 10
27.978114
 20
245.075847
 30
0.0
 10
26.974902
 20
247.120854
 30
0.0
 10
26.668974
 20
247.640374
 30
0.0
 10
26.357540
 20
247.964216
 30
0.0
 10
25.996491
 20
248.133712
 30
0.0
 10
25.530718
 20
248.190214
 30
0.0
 10
24.929893
 20
248.190214
 30
0.0
  0
LWPOLYLINE
  5
102
100
AcDbEntity
  8
Layer_1
 62
7
100
AcDbPolyline
 90
13
 70
0
 10
31.494868
 20
253.305492
 30
0.0
 10
37.221993
 20
253.305492
 30
0.0
 10
37.221993
 20
251.701453
 30
0.0
 10
33.617047
 20
251.701453
 30
0.0
 10
33.617047
 20
250.169077
 30
0.0
 10
37.007021
 20
250.169077
 30
0.0
 10
37.007021
 20
248.565039
 30
0.0
 10
33.617047
 20
248.565039
 30
0.0
 10
33.617047
 20
246.679882
 30
0.0
 10
37.343261
 20
246.679882
 30
0.0
 10
37.343261
 20
245.075847
 30
0.0
 10
31.494868
 20
245.075847
 30
0.0
 10
31.494868
 20
253.305492
 30
0.0
  0
LWPOLYLINE
  5
103
100
AcDbEntity
  8
Layer_1
 62
7
100
AcDbPolyline
 90
11
 70
0
 10
39.211882
 20
253.305492
 30
0.0
 10
44.939006
 20
253.305492
 30
0.0
 10
44.939006
 20
251.701453
 30
0.0
 10
41.334061
 20
251.701453
 30
0.0
 10
41.334061
 20
250.169077
 30
0.0
 10
44.724035
 20
250.169077
 30
0.0
 10
44.724035
 20
248.565039
 30
0.0
 10
41.334061
 20
248.565039
 30
0.0
 10
41.334061
 20
245.075847
 30
0.0
 10
39.211882
 20
245.075847
 30
0.0
 10
39.211882
 20
253.305492
 30
0.0
  0
LWPOLYLINE
  5
104
100
AcDbEntity
  8
Layer_1
 62
7
100
AcDbPolyline
 90
13
 70
0
 10
46.928896
 20
253.305492
 30
0.0
 10
52.656020
 20
253.305492
 30
0.0
 10
52.656020
 20
251.701453
 30
0.0
 10
49.051075
 20
251.701453
 30
0.0
 10
49.051075
 20
250.169077
 30
0.0
 10
52.441049
 20
250.169077
 30
0.0
 10
52.441049
 20
248.565039
 30
0.0
 10
49.051075
 20
248.565039
 30
0.0
 10
49.051075
 20
246.679882
 30
0.0
 10
52.777288
 20
246.679882
 30
0.0
 10
52.777288
 20
245.075847
 30
0.0
 10
46.928896
 20
245.075847
 30
0.0
 10
46.928896
 20
253.305492
 30
0.0
  0
LWPOLYLINE
  5
105
100
AcDbEntity
  8
Layer_1
 62
7
100
AcDbPolyline
 90
12
 70
0
 10
57.661056
 20
249.656446
 30
0.0
 10
58.232939
 20
249.718454
 30
0.0
 10
58.614660
 20
249.904494
 30
0.0
 10
58.833762
 20
250.232463
 30
0.0
 10
58.906802
 20
250.720291
 30
0.0
 10
58.833762
 20
251.202599
 30
0.0
 10
58.614660
 20
251.525065
 30
0.0
 10
58.232939
 20
251.706961
 30
0.0
 10
57.661056
 20
251.767601
 30
0.0
 10
56.768088
 20
251.767601
 30
0.0
 10
56.768088
 20
249.656446
 30
0.0
 10
57.661056
 20
249.656446
 30
0.0
  0
LWPOLYLINE
  5
106
100
AcDbEntity
  8
Layer_1
 62
7
100
AcDbPolyline
 90
28
 70
0
 10
56.768088
 20
248.190214
 30
0.0
 10
56.768088
 20
245.075847
 30
0.0
 10
54.645910
 20
245.075847
 30
0.0
 10
54.645910
 20
253.305492
 30
0.0
 10
57.887054
 20
253.305492
 30
0.0
 10
59.295405
 20
253.169059
 30
0.0
 10
59.836286
 20
252.998528
 30
0.0
 10
60.268304
 20
252.759787
 30
0.0
 10
60.601097
 20
252.447314
 30
0.0
 10
60.838807
 20
252.055606
 30
0.0
 10
60.981435
 20
251.584662
 30
0.0
 10
61.028981
 20
251.034483
 30
0.0
 10
60.929758
 20
250.291717
 30
0.0
 10
60.632106
 20
249.695031
 30
0.0
 10
60.140142
 20
249.240275
 30
0.0
 10
59.446993
 20
248.923328
 30
0.0
 10
59.859023
 20
248.760718
 30
0.0
 10
60.224207
 20
248.471333
 30
0.0
 10
60.572846
 20
248.033115
 30
0.0
 10
60.924251
 20
247.412999
 30
0.0
 10
62.076290
 20
245.075847
 30
0.0
 10
59.816309
 20
245.075847
 30
0.0
 10
58.813096
 20
247.120854
 30
0.0
 10
58.507168
 20
247.640374
 30
0.0
 10
58.195735
 20
247.964216
 30
0.0
 10
57.834686
 20
248.133712
 30
0.0
 10
57.368911
 20
248.190214
 30
0.0
 10
56.768088
 20
248.190214
 30
0.0
  0
LWPOLYLINE
  5
107
100
AcDbEntity
  8
Layer_1
 62
7
100
AcDbPolyline
 90
13
 70
0
 10
63.333063
 20
253.305492
 30
0.0
 10
69.060187
 20
253.305492
 30
0.0
 10
69.060187
 20
251.701453
 30
0.0
 10
65.455241
 20
251.701453
 30
0.0
 10
65.455241
 20
250.169077
 30
0.0
 10
68.845216
 20
250.169077
 30
0.0
 10
68.845216
 20
248.565039
 30
0.0
 10
65.455241
 20
248.565039
 30
0.0
 10
65.455241
 20
246.679882
 30
0.0
 10
69.181455
 20
246.679882
 30
0.0
 10
69.181455
 20
245.075847
 30
0.0
 10
63.333063
 20
245.075847
 30
0.0
 10
63.333063
 20
253.305492
 30
0.0
  0
LWPOLYLINE
  5
108
100
AcDbEntity
  8
Layer_1
 62
7
100
AcDbPolyline
 90
11
 70
0
 10
71.050077
 20
253.305492
 30
0.0
 10
73.420300
 20
253.305492
 30
0.0
 10
76.413400
 20
247.661047
 30
0.0
 10
76.413400
 20
253.305492
 30
0.0
 10
78.425336
 20
253.305492
 30
0.0
 10
78.425336
 20
245.075847
 30
0.0
 10
76.055110
 20
245.075847
 30
0.0
 10
73.062011
 20
250.720291
 30
0.0
 10
73.062011
 20
245.075847
 30
0.0
 10
71.050077
 20
245.075847
 30
0.0
 10
71.050077
 20
253.305492
 30
0.0
  0
LWPOLYLINE
  5
109
100
AcDbEntity
  8
Layer_1
 62
7
100
AcDbPolyline
 90
47
 70
0
 10
87.035318
 20
245.527842
 30
0.0
 10
85.817131
 20
245.070335
 30
0.0
 10
84.494215
 20
244.915993
 30
0.0
 10
83.519596
 20
244.987652
 30
0.0
 10
82.651777
 20
245.202626
 30
0.0
 10
81.890756
 20
245.560916
 30
0.0
 10
81.236535
 20
246.062521
 30
0.0
 10
80.710812
 20
246.689527
 30
0.0
 10
80.335296
 20
247.418509
 30
0.0
 10
80.109987
 20
248.249466
 30
0.0
 10
80.034884
 20
249.182400
 30
0.0
 10
80.109987
 20
250.117396
 30
0.0
 10
80.335296
 20
250.949041
 30
0.0
 10
80.710812
 20
251.677335
 30
0.0
 10
81.236535
 20
252.302279
 30
0.0
 10
81.890756
 20
252.806293
 30
0.0
 10
82.651777
 20
253.166303
 30
0.0
 10
83.519596
 20
253.382312
 30
0.0
 10
84.494215
 20
253.454319
 30
0.0
 10
85.817131
 20
253.299980
 30
0.0
 10
87.035318
 20
252.842469
 30
0.0
 10
87.035318
 20
251.139216
 30
0.0
 10
86.449648
 20
251.487854
 30
0.0
 10
85.872255
 20
251.729015
 30
0.0
 10
85.283828
 20
251.869570
 30
0.0
 10
84.665092
 20
251.916428
 30
0.0
 10
84.127655
 20
251.870949
 30
0.0
 10
83.650854
 20
251.734522
 30
0.0
 10
83.234687
 20
251.507147
 30
0.0
 10
82.879156
 20
251.188825
 30
0.0
 10
82.594589
 20
250.790569
 30
0.0
 10
82.391328
 20
250.323413
 30
0.0
 10
82.269372
 20
249.787357
 30
0.0
 10
82.228721
 20
249.182400
 30
0.0
 10
82.269372
 20
248.579852
 30
0.0
 10
82.391328
 20
248.045517
 30
0.0
 10
82.594589
 20
247.579396
 30
0.0
 10
82.879156
 20
247.181490
 30
0.0
 10
83.234687
 20
246.863161
 30
0.0
 10
83.650854
 20
246.635785
 30
0.0
 10
84.127655
 20
246.499359
 30
0.0
 10
84.665092
 20
246.453884
 30
0.0
 10
85.283828
 20
246.500737
 30
0.0
 10
85.872255
 20
246.641299
 30
0.0
 10
86.449648
 20
246.882454
 30
0.0
 10
87.035318
 20
247.231099
 30
0.0
 10
87.035318
 20
245.527842
 30
0.0
  0
LWPOLYLINE
  5
10a
100
AcDbEntity
  8
Layer_1
 62
7
100
AcDbPolyline
 90
13
 70
0
 10
88.799207
 20
253.305492
 30
0.0
 10
94.526334
 20
253.305492
 30
0.0
 10
94.526334
 20
251.701453
 30
0.0
 10
90.921386
 20
251.701453
 30
0.0
 10
90.921386
 20
250.169077
 30
0.0
 10
94.311360
 20
250.169077
 30
0.0
 10
94.311360
 20
248.565039
 30
0.0
 10
90.921386
 20
248.565039
 30
0.0
 10
90.921386
 20
246.679882
 30
0.0
 10
94.647602
 20
246.679882
 30
0.0
 10
94.647602
 20
245.075847
 30
0.0
 10
88.799207
 20
245.075847
 30
0.0
 10
88.799207
 20
253.305492
 30
0.0
  0
LWPOLYLINE
  5
10b
100
AcDbEntity
  8
Layer_1
 62
7
100
AcDbPolyline
 90
56
 70
0
 10
102.243348
 20
253.046420
 30
0.0
 10
102.243348
 20
251.304578
 30
0.0
 10
100.920431
 20
251.762089
 30
0.0
 10
99.702245
 20
251.916428
 30
0.0
 10
99.040784
 20
251.864058
 30
0.0
 10
98.577767
 20
251.706965
 30
0.0
 10
98.304913
 20
251.439622
 30
0.0
 10
98.213966
 20
251.056533
 30
0.0
 10
98.274596
 20
250.761629
 30
0.0
 10
98.456499
 20
250.538390
 30
0.0
 10
98.803762
 20
250.368887
 30
0.0
 10
99.349467
 20
250.224198
 30
0.0
 10
100.253461
 20
250.042297
 30
0.0
 10
101.427545
 20
249.695028
 30
0.0
 10
102.204763
 20
249.204450
 30
0.0
 10
102.457973
 20
248.893700
 30
0.0
 10
102.638840
 20
248.523696
 30
0.0
 10
102.783538
 20
247.605924
 30
0.0
 10
102.732892
 20
246.968580
 30
0.0
 10
102.580963
 20
246.418054
 30
0.0
 10
102.327750
 20
245.954345
 30
0.0
 10
101.973253
 20
245.577451
 30
0.0
 10
101.517464
 20
245.288064
 30
0.0
 10
100.954878
 20
245.081359
 30
0.0
 10
100.285497
 20
244.957335
 30
0.0
 10
99.509320
 20
244.915993
 30
0.0
 10
97.938356
 20
245.064823
 30
0.0
 10
96.361882
 20
245.505795
 30
0.0
 10
96.361882
 20
247.297243
 30
0.0
 10
97.883235
 20
246.663347
 30
0.0
 10
98.608081
 20
246.506249
 30
0.0
 10
99.305370
 20
246.453884
 30
0.0
 10
99.918593
 20
246.511762
 30
0.0
 10
100.369215
 20
246.685397
 30
0.0
 10
100.646198
 20
246.966513
 30
0.0
 10
100.738531
 20
247.346855
 30
0.0
 10
100.675137
 20
247.688606
 30
0.0
 10
100.484971
 20
247.942166
 30
0.0
 10
100.111519
 20
248.140601
 30
0.0
 10
99.487270
 20
248.316994
 30
0.0
 10
98.665961
 20
248.498894
 30
0.0
 10
97.596602
 20
248.842022
 30
0.0
 10
96.857975
 20
249.342253
 30
0.0
 10
96.609583
 20
249.656788
 30
0.0
 10
96.432161
 20
250.021623
 30
0.0
 10
96.290223
 20
250.902192
 30
0.0
 10
96.339833
 20
251.481308
 30
0.0
 10
96.488661
 20
251.989459
 30
0.0
 10
96.736708
 20
252.426643
 30
0.0
 10
97.083973
 20
252.792860
 30
0.0
 10
97.524255
 20
253.082244
 30
0.0
 10
98.051354
 20
253.288948
 30
0.0
 10
98.665270
 20
253.412973
 30
0.0
 10
99.366005
 20
253.454319
 30
0.0
 10
100.760578
 20
253.349589
 30
0.0
 10
102.243348
 20
253.046420
 30
0.0
  0
LWPOLYLINE
  5
10c
100
AcDbEntity
  8
Layer_1
 62
7
100
AcDbPolyline
 90
9
 70
0
 10
23.529623
 20
239.900136
 30
0.0
 10
26.942748
 20
239.900136
 30
0.0
 10
26.942748
 20
239.178322
 30
0.0
 10
25.714916
 20
239.178322
 30
0.0
 10
25.714916
 20
236.196797
 30
0.0
 10
24.759936
 20
236.196797
 30
0.0
 10
24.759936
 20
239.178322
 30
0.0
 10
23.529623
 20
239.178322
 30
0.0
 10
23.529623
 20
239.900136
 30
0.0
  0
LWPOLYLINE
  5
10d
100
AcDbEntity
  8
Layer_1
 62
7
100
AcDbPolyline
 90
24
 70
0
 10
30.187200
 20
237.888476
 30
0.0
 10
30.187200
 20
236.196797
 30
0.0
 10
29.294232
 20
236.196797
 30
0.0
 10
29.294232
 20
236.472130
 30
0.0
 10
29.294232
 20
237.486643
 30
0.0
 10
29.276875
 20
237.987697
 30
0.0
 10
29.222305
 20
238.188614
 30
0.0
 10
29.080917
 20
238.322559
 30
0.0
 10
28.877520
 20
238.372168
 30
0.0
 10
28.629471
 20
238.318216
 30
0.0
 10
28.440956
 20
238.156367
 30
0.0
 10
28.321893
 20
237.901499
 30
0.0
 10
28.282206
 20
237.563537
 30
0.0
 10
28.282206
 20
236.196797
 30
0.0
 10
27.394199
 20
236.196797
 30
0.0
 10
27.394199
 20
240.056409
 30
0.0
 10
28.282206
 20
240.056409
 30
0.0
 10
28.282206
 20
238.568127
 30
0.0
 10
28.708847
 20
238.925313
 30
0.0
 10
29.207420
 20
239.041896
 30
0.0
 10
29.630339
 20
238.968100
 30
0.0
 10
29.936680
 20
238.746720
 30
0.0
 10
30.124572
 20
238.384570
 30
0.0
 10
30.187206
 20
237.888476
 30
0.0
  0
LWPOLYLINE
  5
10e
100
AcDbEntity
  8
Layer_1
 62
7
100
AcDbPolyline
 90
24
 70
0
 10
33.788841
 20
237.593303
 30
0.0
 10
33.788841
 20
237.340293
 30
0.0
 10
31.712690
 20
237.340293
 30
0.0
 10
31.785246
 20
237.066822
 30
0.0
 10
31.938412
 20
236.871486
 30
0.0
 10
32.170335
 20
236.754284
 30
0.0
 10
32.479155
 20
236.715216
 30
0.0
 10
33.052142
 20
236.797072
 30
0.0
 10
33.657376
 20
237.050079
 30
0.0
 10
33.657376
 20
236.365470
 30
0.0
 10
33.027338
 20
236.186877
 30
0.0
 10
32.397299
 20
236.124864
 30
0.0
 10
31.726951
 20
236.220362
 30
0.0
 10
31.224037
 20
236.506857
 30
0.0
 10
30.911498
 20
236.968223
 30
0.0
 10
30.807319
 20
237.583380
 30
0.0
 10
30.909638
 20
238.190473
 30
0.0
 10
31.216597
 20
238.652463
 30
0.0
 10
31.705247
 20
238.944536
 30
0.0
 10
32.347690
 20
239.041896
 30
0.0
 10
32.936799
 20
238.943295
 30
0.0
 10
33.394447
 20
238.647502
 30
0.0
 10
33.690240
 20
238.186752
 30
0.0
 10
33.788841
 20
237.593303
 30
0.0
  0
LWPOLYLINE
  5
10f
100
AcDbEntity
  8
Layer_1
 62
7
100
AcDbPolyline
 90
9
 70
0
 10
32.876030
 20
237.888476
 30
0.0
 10
32.838821
 20
238.116678
 30
0.0
 10
32.727200
 20
238.295274
 30
0.0
 10
32.557907
 20
238.412474
 30
0.0
 10
32.342729
 20
238.451543
 30
0.0
 10
32.108943
 20
238.414955
 30
0.0
 10
31.923530
 20
238.305197
 30
0.0
 10
31.722610
 20
237.888476
 30
0.0
 10
32.876030
 20
237.888476
 30
0.0
  0
LWPOLYLINE
  5
110
100
AcDbEntity
  8
Layer_1
 62
7
100
AcDbPolyline
 90
37
 70
0
 10
36.628979
 20
238.888107
 30
0.0
 10
36.628979
 20
238.213418
 30
0.0
 10
36.078315
 20
238.392011
 30
0.0
 10
35.577261
 20
238.451543
 30
0.0
 10
35.200229
 20
238.387053
 30
0.0
 10
35.078687
 20
238.193575
 30
0.0
 10
35.170463
 20
238.029864
 30
0.0
 10
35.505325
 20
237.945527
 30
0.0
 10
35.661597
 20
237.923204
 30
0.0
 10
36.232103
 20
237.808481
 30
0.0
 10
36.579370
 20
237.637950
 30
0.0
 10
36.756101
 20
237.383080
 30
0.0
 10
36.815014
 20
237.015351
 30
0.0
 10
36.733156
 20
236.626538
 30
0.0
 10
36.487591
 20
236.348107
 30
0.0
 10
36.079553
 20
236.180674
 30
0.0
 10
35.510287
 20
236.124864
 30
0.0
 10
34.939780
 20
236.169511
 30
0.0
 10
34.337027
 20
236.298498
 30
0.0
 10
34.337027
 20
236.973184
 30
0.0
 10
34.880248
 20
236.779707
 30
0.0
 10
35.448277
 20
236.715216
 30
0.0
 10
35.840190
 20
236.787149
 30
0.0
 10
35.971655
 20
237.000470
 30
0.0
 10
35.879876
 20
237.176582
 30
0.0
 10
35.520209
 20
237.268361
 30
0.0
 10
35.363940
 20
237.288201
 30
0.0
 10
34.859783
 20
237.394240
 30
0.0
 10
34.532982
 20
237.563534
 30
0.0
 10
34.354388
 20
237.816540
 30
0.0
 10
34.294857
 20
238.173730
 30
0.0
 10
34.370511
 20
238.558199
 30
0.0
 10
34.597475
 20
238.828573
 30
0.0
 10
34.980707
 20
238.988561
 30
0.0
 10
35.525171
 20
239.041893
 30
0.0
 10
36.041107
 20
239.004685
 30
0.0
 10
36.628979
 20
238.888105
 30
0.0
  0
LWPOLYLINE
  5
111
100
AcDbEntity
  8
Layer_1
 62
7
100
AcDbPolyline
 90
24
 70
0
 10
40.257905
 20
237.593303
 30
0.0
 10
40.257905
 20
237.340293
 30
0.0
 10
38.181751
 20
237.340293
 30
0.0
 10
38.254308
 20
237.066822
 30
0.0
 10
38.407475
 20
236.871486
 30
0.0
 10
38.639397
 20
236.754284
 30
0.0
 10
38.948216
 20
236.715216
 30
0.0
 10
39.521206
 20
236.797072
 30
0.0
 10
40.126440
 20
237.050079
 30
0.0
 10
40.126440
 20
236.365470
 30
0.0
 10
39.496402
 20
236.186877
 30
0.0
 10
38.866360
 20
236.124864
 30
0.0
 10
38.196014
 20
236.220362
 30
0.0
 10
37.693100
 20
236.506857
 30
0.0
 10
37.380560
 20
236.968223
 30
0.0
 10
37.276382
 20
237.583380
 30
0.0
 10
37.378700
 20
238.190473
 30
0.0
 10
37.685658
 20
238.652463
 30
0.0
 10
38.174309
 20
238.944536
 30
0.0
 10
38.816751
 20
239.041896
 30
0.0
 10
39.405862
 20
238.943295
 30
0.0
 10
39.863511
 20
238.647502
 30
0.0
 10
40.159304
 20
238.186752
 30
0.0
 10
40.257905
 20
237.593303
 30
0.0
  0
LWPOLYLINE
  5
112
100
AcDbEntity
  8
Layer_1
 62
7
100
AcDbPolyline
 90
9
 70
0
 10
39.345091
 20
237.888476
 30
0.0
 10
39.307883
 20
238.116678
 30
0.0
 10
39.196264
 20
238.295274
 30
0.0
 10
39.026971
 20
238.412474
 30
0.0
 10
38.811790
 20
238.451543
 30
0.0
 10
38.578005
 20
238.414955
 30
0.0
 10
38.392591
 20
238.305197
 30
0.0
 10
38.191674
 20
237.888476
 30
0.0
 10
39.345091
 20
237.888476
 30
0.0
  0
LWPOLYLINE
  5
113
100
AcDbEntity
  8
Layer_1
 62
7
100
AcDbPolyline
 90
17
 70
0
 10
44.172084
 20
236.769787
 30
0.0
 10
44.423229
 20
236.821876
 30
0.0
 10
44.606165
 20
236.978146
 30
0.0
 10
44.719646
 20
237.233633
 30
0.0
 10
44.757475
 20
237.583380
 30
0.0
 10
44.719646
 20
237.933125
 30
0.0
 10
44.606165
 20
238.188614
 30
0.0
 10
44.423229
 20
238.344881
 30
0.0
 10
44.172084
 20
238.396973
 30
0.0
 10
43.919695
 20
238.344261
 30
0.0
 10
43.733040
 20
238.186133
 30
0.0
 10
43.619559
 20
237.931264
 30
0.0
 10
43.581732
 20
237.583380
 30
0.0
 10
43.619559
 20
237.234874
 30
0.0
 10
43.733040
 20
236.978146
 30
0.0
 10
43.919695
 20
236.821876
 30
0.0
 10
44.172084
 20
236.769787
 30
0.0
  0
LWPOLYLINE
  5
114
100
AcDbEntity
  8
Layer_1
 62
7
100
AcDbPolyline
 90
18
 70
0
 10
43.581732
 20
238.568127
 30
0.0
 10
43.988530
 20
238.925313
 30
0.0
 10
44.501985
 20
239.041896
 30
0.0
 10
44.969553
 20
238.939574
 30
0.0
 10
45.345347
 20
238.632617
 30
0.0
 10
45.592770
 20
238.166909
 30
0.0
 10
45.675248
 20
237.583380
 30
0.0
 10
45.592770
 20
236.999229
 30
0.0
 10
45.345347
 20
236.531662
 30
0.0
 10
44.969553
 20
236.226563
 30
0.0
 10
44.501985
 20
236.124864
 30
0.0
 10
43.988530
 20
236.238966
 30
0.0
 10
43.581732
 20
236.598633
 30
0.0
 10
43.581732
 20
236.196797
 30
0.0
 10
42.693725
 20
236.196797
 30
0.0
 10
42.693725
 20
240.056409
 30
0.0
 10
43.581732
 20
240.056409
 30
0.0
 10
43.581732
 20
238.568127
 30
0.0
  0
LWPOLYLINE
  5
115
100
AcDbEntity
  8
Layer_1
 62
7
100
AcDbPolyline
 90
17
 70
0
 10
47.657142
 20
238.406896
 30
0.0
 10
47.396692
 20
238.353564
 30
0.0
 10
47.205697
 20
238.193575
 30
0.0
 10
47.090355
 20
237.935605
 30
0.0
 10
47.051908
 20
237.583380
 30
0.0
 10
47.090355
 20
237.230532
 30
0.0
 10
47.205697
 20
236.970704
 30
0.0
 10
47.396692
 20
236.812574
 30
0.0
 10
47.657142
 20
236.759864
 30
0.0
 10
47.913250
 20
236.812574
 30
0.0
 10
48.101146
 20
236.970704
 30
0.0
 10
48.216487
 20
237.230532
 30
0.0
 10
48.254937
 20
237.583380
 30
0.0
 10
48.216487
 20
237.935605
 30
0.0
 10
48.101146
 20
238.193575
 30
0.0
 10
47.913250
 20
238.353564
 30
0.0
 10
47.657142
 20
238.406896
 30
0.0
  0
LWPOLYLINE
  5
116
100
AcDbEntity
  8
Layer_1
 62
7
100
AcDbPolyline
 90
17
 70
0
 10
47.657142
 20
239.041896
 30
0.0
 10
48.295241
 20
238.945156
 30
0.0
 10
48.775834
 20
238.654944
 30
0.0
 10
49.079069
 20
238.193573
 30
0.0
 10
49.180152
 20
237.583380
 30
0.0
 10
49.079069
 20
236.973185
 30
0.0
 10
48.775834
 20
236.511819
 30
0.0
 10
48.295241
 20
236.221602
 30
0.0
 10
47.657142
 20
236.124864
 30
0.0
 10
47.015941
 20
236.221602
 30
0.0
 10
46.531011
 20
236.511819
 30
0.0
 10
46.227773
 20
236.973185
 30
0.0
 10
46.126694
 20
237.583380
 30
0.0
 10
46.227773
 20
238.193573
 30
0.0
 10
46.531011
 20
238.654944
 30
0.0
 10
47.015941
 20
238.945156
 30
0.0
 10
47.657142
 20
239.041896
 30
0.0
  0
LWPOLYLINE
  5
117
100
AcDbEntity
  8
Layer_1
 62
7
100
AcDbPolyline
 90
17
 70
0
 10
51.149642
 20
238.406896
 30
0.0
 10
50.889192
 20
238.353564
 30
0.0
 10
50.698197
 20
238.193575
 30
0.0
 10
50.582855
 20
237.935605
 30
0.0
 10
50.544408
 20
237.583380
 30
0.0
 10
50.582855
 20
237.230532
 30
0.0
 10
50.698197
 20
236.970704
 30
0.0
 10
50.889192
 20
236.812574
 30
0.0
 10
51.149642
 20
236.759864
 30
0.0
 10
51.405750
 20
236.812574
 30
0.0
 10
51.593646
 20
236.970704
 30
0.0
 10
51.708987
 20
237.230532
 30
0.0
 10
51.747437
 20
237.583380
 30
0.0
 10
51.708987
 20
237.935605
 30
0.0
 10
51.593646
 20
238.193575
 30
0.0
 10
51.405750
 20
238.353564
 30
0.0
 10
51.149642
 20
238.406896
 30
0.0
  0
LWPOLYLINE
  5
118
100
AcDbEntity
  8
Layer_1
 62
7
100
AcDbPolyline
 90
17
 70
0
 10
51.149642
 20
239.041896
 30
0.0
 10
51.787741
 20
238.945156
 30
0.0
 10
52.268334
 20
238.654944
 30
0.0
 10
52.571569
 20
238.193573
 30
0.0
 10
52.672652
 20
237.583380
 30
0.0
 10
52.571569
 20
236.973185
 30
0.0
 10
52.268334
 20
236.511819
 30
0.0
 10
51.787741
 20
236.221602
 30
0.0
 10
51.149642
 20
236.124864
 30
0.0
 10
50.508441
 20
236.221602
 30
0.0
 10
50.023511
 20
236.511819
 30
0.0
 10
49.720273
 20
236.973185
 30
0.0
 10
49.619194
 20
237.583380
 30
0.0
 10
49.720273
 20
238.193573
 30
0.0
 10
50.023511
 20
238.654944
 30
0.0
 10
50.508441
 20
238.945156
 30
0.0
 10
51.149642
 20
239.041896
 30
0.0
  0
LWPOLYLINE
  5
119
100
AcDbEntity
  8
Layer_1
 62
7
100
AcDbPolyline
 90
12
 70
0
 10
53.320053
 20
240.056409
 30
0.0
 10
54.208062
 20
240.056409
 30
0.0
 10
54.208062
 20
237.955450
 30
0.0
 10
55.230014
 20
238.974922
 30
0.0
 10
56.261889
 20
238.974922
 30
0.0
 10
54.905072
 20
237.699963
 30
0.0
 10
56.368549
 20
236.196797
 30
0.0
 10
55.292027
 20
236.196797
 30
0.0
 10
54.208062
 20
237.355178
 30
0.0
 10
54.208062
 20
236.196797
 30
0.0
 10
53.320053
 20
236.196797
 30
0.0
 10
53.320053
 20
240.056409
 30
0.0
  0
LWPOLYLINE
  5
11a
100
AcDbEntity
  8
Layer_1
 62
7
100
AcDbPolyline
 90
37
 70
0
 10
58.873822
 20
238.888107
 30
0.0
 10
58.873822
 20
238.213418
 30
0.0
 10
58.323158
 20
238.392011
 30
0.0
 10
57.822104
 20
238.451543
 30
0.0
 10
57.445072
 20
238.387053
 30
0.0
 10
57.323530
 20
238.193575
 30
0.0
 10
57.415306
 20
238.029864
 30
0.0
 10
57.750171
 20
237.945527
 30
0.0
 10
57.906440
 20
237.923204
 30
0.0
 10
58.476946
 20
237.808481
 30
0.0
 10
58.824213
 20
237.637950
 30
0.0
 10
59.000944
 20
237.383080
 30
0.0
 10
59.059857
 20
237.015351
 30
0.0
 10
58.978000
 20
236.626538
 30
0.0
 10
58.732437
 20
236.348107
 30
0.0
 10
58.324397
 20
236.180674
 30
0.0
 10
57.755132
 20
236.124864
 30
0.0
 10
57.184623
 20
236.169511
 30
0.0
 10
56.581870
 20
236.298498
 30
0.0
 10
56.581870
 20
236.973184
 30
0.0
 10
57.125091
 20
236.779707
 30
0.0
 10
57.693120
 20
236.715216
 30
0.0
 10
58.085033
 20
236.787149
 30
0.0
 10
58.216498
 20
237.000470
 30
0.0
 10
58.124722
 20
237.176582
 30
0.0
 10
57.765053
 20
237.268361
 30
0.0
 10
57.608783
 20
237.288201
 30
0.0
 10
57.104627
 20
237.394240
 30
0.0
 10
56.777825
 20
237.563534
 30
0.0
 10
56.599231
 20
237.816540
 30
0.0
 10
56.539700
 20
238.173730
 30
0.0
 10
56.615354
 20
238.558199
 30
0.0
 10
56.842319
 20
238.828573
 30
0.0
 10
57.225550
 20
238.988561
 30
0.0
 10
57.770014
 20
239.041893
 30
0.0
 10
58.285950
 20
239.004685
 30
0.0
 10
58.873822
 20
238.888105
 30
0.0
  0
LWPOLYLINE
  5
11b
100
AcDbEntity
  8
Layer_1
 62
7
100
AcDbPolyline
 90
37
 70
0
 10
63.666088
 20
238.888107
 30
0.0
 10
63.666088
 20
238.213418
 30
0.0
 10
63.115424
 20
238.392011
 30
0.0
 10
62.614370
 20
238.451543
 30
0.0
 10
62.237338
 20
238.387053
 30
0.0
 10
62.115796
 20
238.193575
 30
0.0
 10
62.207572
 20
238.029864
 30
0.0
 10
62.542437
 20
237.945527
 30
0.0
 10
62.698706
 20
237.923204
 30
0.0
 10
63.269212
 20
237.808481
 30
0.0
 10
63.616479
 20
237.637950
 30
0.0
 10
63.793210
 20
237.383080
 30
0.0
 10
63.852123
 20
237.015351
 30
0.0
 10
63.770265
 20
236.626538
 30
0.0
 10
63.524700
 20
236.348107
 30
0.0
 10
63.116662
 20
236.180674
 30
0.0
 10
62.547396
 20
236.124864
 30
0.0
 10
61.976889
 20
236.169511
 30
0.0
 10
61.374136
 20
236.298498
 30
0.0
 10
61.374136
 20
236.973184
 30
0.0
 10
61.917357
 20
236.779707
 30
0.0
 10
62.485386
 20
236.715216
 30
0.0
 10
62.877299
 20
236.787149
 30
0.0
 10
63.008764
 20
237.000470
 30
0.0
 10
62.916985
 20
237.176582
 30
0.0
 10
62.557319
 20
237.268361
 30
0.0
 10
62.401049
 20
237.288201
 30
0.0
 10
61.896893
 20
237.394240
 30
0.0
 10
61.570091
 20
237.563534
 30
0.0
 10
61.391497
 20
237.816540
 30
0.0
 10
61.331966
 20
238.173730
 30
0.0
 10
61.407620
 20
238.558199
 30
0.0
 10
61.634584
 20
238.828573
 30
0.0
 10
62.017816
 20
238.988561
 30
0.0
 10
62.562280
 20
239.041893
 30
0.0
 10
63.078216
 20
239.004685
 30
0.0
 10
63.666088
 20
238.888105
 30
0.0
  0
LWPOLYLINE
  5
11c
100
AcDbEntity
  8
Layer_1
 62
7
100
AcDbPolyline
 90
24
 70
0
 10
67.314857
 20
237.888476
 30
0.0
 10
67.314857
 20
236.196797
 30
0.0
 10
66.421889
 20
236.196797
 30
0.0
 10
66.421889
 20
236.472130
 30
0.0
 10
66.421889
 20
237.486643
 30
0.0
 10
66.404532
 20
237.987697
 30
0.0
 10
66.349962
 20
238.188614
 30
0.0
 10
66.208574
 20
238.322559
 30
0.0
 10
66.005177
 20
238.372168
 30
0.0
 10
65.757128
 20
238.318216
 30
0.0
 10
65.568613
 20
238.156367
 30
0.0
 10
65.449550
 20
237.901499
 30
0.0
 10
65.409863
 20
237.563537
 30
0.0
 10
65.409863
 20
236.196797
 30
0.0
 10
64.521856
 20
236.196797
 30
0.0
 10
64.521856
 20
240.056409
 30
0.0
 10
65.409863
 20
240.056409
 30
0.0
 10
65.409863
 20
238.568127
 30
0.0
 10
65.836504
 20
238.925313
 30
0.0
 10
66.335077
 20
239.041896
 30
0.0
 10
66.757996
 20
238.968100
 30
0.0
 10
67.064337
 20
238.746720
 30
0.0
 10
67.252229
 20
238.384570
 30
0.0
 10
67.314863
 20
237.888476
 30
0.0
  0
LWPOLYLINE
  5
11d
100
AcDbEntity
  8
Layer_1
 62
7
100
AcDbPolyline
 90
17
 70
0
 10
69.465424
 20
238.406896
 30
0.0
 10
69.204974
 20
238.353564
 30
0.0
 10
69.013979
 20
238.193575
 30
0.0
 10
68.898635
 20
237.935605
 30
0.0
 10
68.860190
 20
237.583380
 30
0.0
 10
68.898635
 20
237.230532
 30
0.0
 10
69.013979
 20
236.970704
 30
0.0
 10
69.204974
 20
236.812574
 30
0.0
 10
69.465424
 20
236.759864
 30
0.0
 10
69.721531
 20
236.812574
 30
0.0
 10
69.909428
 20
236.970704
 30
0.0
 10
70.024767
 20
237.230532
 30
0.0
 10
70.063216
 20
237.583380
 30
0.0
 10
70.024767
 20
237.935605
 30
0.0
 10
69.909428
 20
238.193575
 30
0.0
 10
69.721531
 20
238.353564
 30
0.0
 10
69.465424
 20
238.406896
 30
0.0
  0
LWPOLYLINE
  5
11e
100
AcDbEntity
  8
Layer_1
 62
7
100
AcDbPolyline
 90
17
 70
0
 10
69.465424
 20
239.041896
 30
0.0
 10
70.103523
 20
238.945156
 30
0.0
 10
70.584116
 20
238.654944
 30
0.0
 10
70.887350
 20
238.193573
 30
0.0
 10
70.988431
 20
237.583380
 30
0.0
 10
70.887350
 20
236.973185
 30
0.0
 10
70.584116
 20
236.511819
 30
0.0
 10
70.103523
 20
236.221602
 30
0.0
 10
69.465424
 20
236.124864
 30
0.0
 10
68.824222
 20
236.221602
 30
0.0
 10
68.339290
 20
236.511819
 30
0.0
 10
68.036054
 20
236.973185
 30
0.0
 10
67.934975
 20
237.583380
 30
0.0
 10
68.036054
 20
238.193573
 30
0.0
 10
68.339290
 20
238.654944
 30
0.0
 10
68.824222
 20
238.945156
 30
0.0
 10
69.465424
 20
239.041896
 30
0.0
  0
LWPOLYLINE
  5
11f
100
AcDbEntity
  8
Layer_1
 62
7
100
AcDbPolyline
 90
25
 70
0
 10
71.606069
 20
237.278284
 30
0.0
 10
71.606069
 20
238.974922
 30
0.0
 10
72.499037
 20
238.974922
 30
0.0
 10
72.499037
 20
238.697111
 30
0.0
 10
72.496497
 20
238.129082
 30
0.0
 10
72.493957
 20
237.675159
 30
0.0
 10
72.511313
 20
237.191466
 30
0.0
 10
72.570845
 20
236.978146
 30
0.0
 10
72.712230
 20
236.844200
 30
0.0
 10
72.915630
 20
236.797072
 30
0.0
 10
73.163674
 20
236.850402
 30
0.0
 10
73.352192
 20
237.010393
 30
0.0
 10
73.471252
 20
237.265259
 30
0.0
 10
73.510942
 20
237.603223
 30
0.0
 10
73.510942
 20
238.974922
 30
0.0
 10
74.398948
 20
238.974922
 30
0.0
 10
74.398948
 20
236.196797
 30
0.0
 10
73.510942
 20
236.196797
 30
0.0
 10
73.510942
 20
236.598633
 30
0.0
 10
73.084301
 20
236.238966
 30
0.0
 10
72.590688
 20
236.124864
 30
0.0
 10
72.166528
 20
236.198658
 30
0.0
 10
71.856470
 20
236.420040
 30
0.0
 10
71.668574
 20
236.782187
 30
0.0
 10
71.605942
 20
237.278284
 30
0.0
  0
LWPOLYLINE
  5
120
100
AcDbEntity
  8
Layer_1
 62
7
100
AcDbPolyline
 90
5
 70
0
 10
75.257319
 20
240.056409
 30
0.0
 10
76.145325
 20
240.056409
 30
0.0
 10
76.145325
 20
236.196797
 30
0.0
 10
75.257319
 20
236.196797
 30
0.0
 10
75.257319
 20
240.056409
 30
0.0
  0
LWPOLYLINE
  5
121
100
AcDbEntity
  8
Layer_1
 62
7
100
AcDbPolyline
 90
18
 70
0
 10
78.893687
 20
238.568127
 30
0.0
 10
78.893687
 20
240.056409
 30
0.0
 10
79.786655
 20
240.056409
 30
0.0
 10
79.786655
 20
236.196797
 30
0.0
 10
78.893687
 20
236.196797
 30
0.0
 10
78.893687
 20
236.598633
 30
0.0
 10
78.489370
 20
236.238966
 30
0.0
 10
77.978392
 20
236.124864
 30
0.0
 10
77.510823
 20
236.226563
 30
0.0
 10
77.135033
 20
236.531662
 30
0.0
 10
76.887606
 20
236.999229
 30
0.0
 10
76.805132
 20
237.583380
 30
0.0
 10
76.887606
 20
238.166909
 30
0.0
 10
77.135033
 20
238.632617
 30
0.0
 10
77.510823
 20
238.939574
 30
0.0
 10
77.978392
 20
239.041896
 30
0.0
 10
78.486889
 20
238.925313
 30
0.0
 10
78.893687
 20
238.568127
 30
0.0
  0
LWPOLYLINE
  5
122
100
AcDbEntity
  8
Layer_1
 62
7
100
AcDbPolyline
 90
17
 70
0
 10
78.308296
 20
236.769787
 30
0.0
 10
78.559441
 20
236.821876
 30
0.0
 10
78.742376
 20
236.978146
 30
0.0
 10
78.855858
 20
237.233633
 30
0.0
 10
78.893687
 20
237.583380
 30
0.0
 10
78.855858
 20
237.933125
 30
0.0
 10
78.742376
 20
238.188614
 30
0.0
 10
78.559441
 20
238.344881
 30
0.0
 10
78.308296
 20
238.396973
 30
0.0
 10
78.058387
 20
238.344881
 30
0.0
 10
77.874213
 20
238.188614
 30
0.0
 10
77.762590
 20
237.933125
 30
0.0
 10
77.725386
 20
237.583380
 30
0.0
 10
77.762590
 20
237.233633
 30
0.0
 10
77.874213
 20
236.978146
 30
0.0
 10
78.058387
 20
236.821876
 30
0.0
 10
78.308296
 20
236.769787
 30
0.0
  0
LWPOLYLINE
  5
123
100
AcDbEntity
  8
Layer_1
 62
7
100
AcDbPolyline
 90
17
 70
0
 10
84.474741
 20
238.218380
 30
0.0
 10
84.241575
 20
238.297755
 30
0.0
 10
84.010892
 20
238.325046
 30
0.0
 10
83.707654
 20
238.269853
 30
0.0
 10
83.482553
 20
238.104283
 30
0.0
 10
83.344886
 20
237.838252
 30
0.0
 10
83.298998
 20
237.476725
 30
0.0
 10
83.298998
 20
236.196802
 30
0.0
 10
82.410991
 20
236.196802
 30
0.0
 10
82.410991
 20
238.974927
 30
0.0
 10
83.298998
 20
238.974927
 30
0.0
 10
83.298998
 20
238.518523
 30
0.0
 10
83.690912
 20
238.915398
 30
0.0
 10
84.224213
 20
239.041902
 30
0.0
 10
84.320950
 20
239.036934
 30
0.0
 10
84.472261
 20
239.022061
 30
0.0
 10
84.474801
 20
238.218388
 30
0.0
  0
LWPOLYLINE
  5
124
100
AcDbEntity
  8
Layer_1
 62
7
100
AcDbPolyline
 90
24
 70
0
 10
87.694389
 20
237.593303
 30
0.0
 10
87.694389
 20
237.340293
 30
0.0
 10
85.618235
 20
237.340293
 30
0.0
 10
85.690792
 20
237.066822
 30
0.0
 10
85.843959
 20
236.871486
 30
0.0
 10
86.075882
 20
236.754284
 30
0.0
 10
86.384700
 20
236.715216
 30
0.0
 10
86.957690
 20
236.797072
 30
0.0
 10
87.562924
 20
237.050079
 30
0.0
 10
87.562924
 20
236.365470
 30
0.0
 10
86.932886
 20
236.186877
 30
0.0
 10
86.302847
 20
236.124864
 30
0.0
 10
85.632498
 20
236.220362
 30
0.0
 10
85.129584
 20
236.506857
 30
0.0
 10
84.817045
 20
236.968223
 30
0.0
 10
84.712866
 20
237.583380
 30
0.0
 10
84.815185
 20
238.190473
 30
0.0
 10
85.122142
 20
238.652463
 30
0.0
 10
85.610793
 20
238.944536
 30
0.0
 10
86.253235
 20
239.041896
 30
0.0
 10
86.842346
 20
238.943295
 30
0.0
 10
87.299995
 20
238.647502
 30
0.0
 10
87.595788
 20
238.186752
 30
0.0
 10
87.694389
 20
237.593303
 30
0.0
  0
LWPOLYLINE
  5
125
100
AcDbEntity
  8
Layer_1
 62
7
100
AcDbPolyline
 90
9
 70
0
 10
86.781575
 20
237.888476
 30
0.0
 10
86.744368
 20
238.116678
 30
0.0
 10
86.632748
 20
238.295274
 30
0.0
 10
86.463455
 20
238.412474
 30
0.0
 10
86.248277
 20
238.451543
 30
0.0
 10
86.014491
 20
238.414955
 30
0.0
 10
85.829075
 20
238.305197
 30
0.0
 10
85.628158
 20
237.888476
 30
0.0
 10
86.781575
 20
237.888476
 30
0.0
  0
LWPOLYLINE
  5
126
100
AcDbEntity
  8
Layer_1
 62
7
100
AcDbPolyline
 90
37
 70
0
 10
90.938841
 20
238.513556
 30
0.0
 10
91.338197
 20
238.905470
 30
0.0
 10
91.849174
 20
239.041896
 30
0.0
 10
92.270850
 20
238.968100
 30
0.0
 10
92.578431
 20
238.746720
 30
0.0
 10
92.766323
 20
238.384570
 30
0.0
 10
92.828959
 20
237.888476
 30
0.0
 10
92.828959
 20
236.196797
 30
0.0
 10
91.935991
 20
236.196797
 30
0.0
 10
91.935991
 20
237.645393
 30
0.0
 10
91.938531
 20
237.712364
 30
0.0
 10
91.941071
 20
237.811582
 30
0.0
 10
91.854257
 20
238.238223
 30
0.0
 10
91.573962
 20
238.372168
 30
0.0
 10
91.349477
 20
238.320077
 30
0.0
 10
91.182049
 20
238.163809
 30
0.0
 10
91.078486
 20
237.908940
 30
0.0
 10
91.040661
 20
237.561056
 30
0.0
 10
91.040661
 20
236.196797
 30
0.0
 10
90.147693
 20
236.196797
 30
0.0
 10
90.147693
 20
237.645393
 30
0.0
 10
90.068318
 20
238.238223
 30
0.0
 10
89.957936
 20
238.338680
 30
0.0
 10
89.785546
 20
238.372168
 30
0.0
 10
89.559202
 20
238.319457
 30
0.0
 10
89.391151
 20
238.161329
 30
0.0
 10
89.286971
 20
237.907700
 30
0.0
 10
89.252244
 20
237.563537
 30
0.0
 10
89.252244
 20
236.196797
 30
0.0
 10
88.359276
 20
236.196797
 30
0.0
 10
88.359276
 20
238.974922
 30
0.0
 10
89.252244
 20
238.974922
 30
0.0
 10
89.252244
 20
238.568127
 30
0.0
 10
89.626796
 20
238.922832
 30
0.0
 10
90.095603
 20
239.041896
 30
0.0
 10
90.604100
 20
238.902989
 30
0.0
 10
90.938962
 20
238.513556
 30
0.0
  0
LWPOLYLINE
  5
127
100
AcDbEntity
  8
Layer_1
 62
7
100
AcDbPolyline
 90
11
 70
0
 10
94.907591
 20
237.446954
 30
0.0
 10
94.488392
 20
237.352697
 30
0.0
 10
94.349485
 20
237.074883
 30
0.0
 10
94.461107
 20
236.809473
 30
0.0
 10
94.776126
 20
236.715216
 30
0.0
 10
95.006809
 20
236.759864
 30
0.0
 10
95.197806
 20
236.893809
 30
0.0
 10
95.326169
 20
237.097207
 30
0.0
 10
95.368959
 20
237.345255
 30
0.0
 10
95.368959
 20
237.446954
 30
0.0
 10
94.907591
 20
237.446954
 30
0.0
  0
LWPOLYLINE
  5
128
100
AcDbEntity
  8
Layer_1
 62
7
100
AcDbPolyline
 90
28
 70
0
 10
96.264408
 20
237.781819
 30
0.0
 10
96.264408
 20
236.196797
 30
0.0
 10
95.368959
 20
236.196797
 30
0.0
 10
95.368959
 20
236.608556
 30
0.0
 10
94.967123
 20
236.238966
 30
0.0
 10
94.423902
 20
236.124864
 30
0.0
 10
94.032606
 20
236.187496
 30
0.0
 10
93.721928
 20
236.375393
 30
0.0
 10
93.521010
 20
236.665606
 30
0.0
 10
93.454037
 20
237.030236
 30
0.0
 10
93.537753
 20
237.453774
 30
0.0
 10
93.788902
 20
237.747091
 30
0.0
 10
94.221742
 20
237.918242
 30
0.0
 10
94.845581
 20
237.975293
 30
0.0
 10
95.368959
 20
237.975293
 30
0.0
 10
95.368959
 20
238.044748
 30
0.0
 10
95.327409
 20
238.227061
 30
0.0
 10
95.202767
 20
238.352325
 30
0.0
 10
94.684350
 20
238.451543
 30
0.0
 10
94.153530
 20
238.394492
 30
0.0
 10
93.697123
 20
238.223341
 30
0.0
 10
93.697123
 20
238.900508
 30
0.0
 10
94.270110
 20
239.004688
 30
0.0
 10
94.845581
 20
239.041896
 30
0.0
 10
95.492361
 20
238.967480
 30
0.0
 10
95.929546
 20
238.744239
 30
0.0
 10
96.180690
 20
238.356045
 30
0.0
 10
96.264408
 20
237.781819
 30
0.0
  0
LWPOLYLINE
  5
129
100
AcDbEntity
  8
Layer_1
 62
7
100
AcDbPolyline
 90
5
 70
0
 10
97.095366
 20
238.974922
 30
0.0
 10
97.983373
 20
238.974922
 30
0.0
 10
97.983373
 20
236.196797
 30
0.0
 10
97.095366
 20
236.196797
 30
0.0
 10
97.095366
 20
238.974922
 30
0.0
  0
LWPOLYLINE
  5
12a
100
AcDbEntity
  8
Layer_1
 62
7
100
AcDbPolyline
 90
5
 70
0
 10
97.095366
 20
240.056409
 30
0.0
 10
97.983373
 20
240.056409
 30
0.0
 10
97.983373
 20
239.332111
 30
0.0
 10
97.095366
 20
239.332111
 30
0.0
 10
97.095366
 20
240.056409
 30
0.0
  0
LWPOLYLINE
  5
12b
100
AcDbEntity
  8
Layer_1
 62
7
100
AcDbPolyline
 90
24
 70
0
 10
101.634623
 20
237.888476
 30
0.0
 10
101.634623
 20
236.196797
 30
0.0
 10
100.741655
 20
236.196797
 30
0.0
 10
100.741655
 20
236.472130
 30
0.0
 10
100.741655
 20
237.491601
 30
0.0
 10
100.724298
 20
237.987697
 30
0.0
 10
100.669731
 20
238.188614
 30
0.0
 10
100.528343
 20
238.322559
 30
0.0
 10
100.324945
 20
238.372168
 30
0.0
 10
100.076897
 20
238.318216
 30
0.0
 10
99.888381
 20
238.156367
 30
0.0
 10
99.769319
 20
237.901499
 30
0.0
 10
99.729631
 20
237.563537
 30
0.0
 10
99.729631
 20
236.196797
 30
0.0
 10
98.841625
 20
236.196797
 30
0.0
 10
98.841625
 20
238.974922
 30
0.0
 10
99.729631
 20
238.974922
 30
0.0
 10
99.729631
 20
238.568127
 30
0.0
 10
100.156272
 20
238.925313
 30
0.0
 10
100.654846
 20
239.041896
 30
0.0
 10
101.077765
 20
238.968100
 30
0.0
 10
101.384106
 20
238.746720
 30
0.0
 10
101.571998
 20
238.384570
 30
0.0
 10
101.634631
 20
237.888476
 30
0.0
  0
LWPOLYLINE
  5
12c
100
AcDbEntity
  8
Layer_1
 62
7
100
AcDbPolyline
 90
11
 70
0
 10
24.536694
 20
231.096954
 30
0.0
 10
24.117494
 20
231.002697
 30
0.0
 10
23.978588
 20
230.724883
 30
0.0
 10
24.090209
 20
230.459473
 30
0.0
 10
24.405229
 20
230.365216
 30
0.0
 10
24.635911
 20
230.409864
 30
0.0
 10
24.826908
 20
230.543809
 30
0.0
 10
24.955271
 20
230.747207
 30
0.0
 10
24.998061
 20
230.995255
 30
0.0
 10
24.998061
 20
231.096954
 30
0.0
 10
24.536694
 20
231.096954
 30
0.0
  0
LWPOLYLINE
  5
12d
100
AcDbEntity
  8
Layer_1
 62
7
100
AcDbPolyline
 90
28
 70
0
 10
25.893510
 20
231.431819
 30
0.0
 10
25.893510
 20
229.846797
 30
0.0
 10
24.998061
 20
229.846797
 30
0.0
 10
24.998061
 20
230.258556
 30
0.0
 10
24.596225
 20
229.888966
 30
0.0
 10
24.053002
 20
229.774864
 30
0.0
 10
23.661708
 20
229.837496
 30
0.0
 10
23.351029
 20
230.025393
 30
0.0
 10
23.150111
 20
230.315606
 30
0.0
 10
23.083139
 20
230.680236
 30
0.0
 10
23.166854
 20
231.103774
 30
0.0
 10
23.418002
 20
231.397091
 30
0.0
 10
23.850843
 20
231.568242
 30
0.0
 10
24.474682
 20
231.625293
 30
0.0
 10
24.998061
 20
231.625293
 30
0.0
 10
24.998061
 20
231.694748
 30
0.0
 10
24.956511
 20
231.877061
 30
0.0
 10
24.831869
 20
232.002325
 30
0.0
 10
24.313451
 20
232.101543
 30
0.0
 10
23.782631
 20
232.044492
 30
0.0
 10
23.326225
 20
231.873341
 30
0.0
 10
23.326225
 20
232.550508
 30
0.0
 10
23.899213
 20
232.654688
 30
0.0
 10
24.474682
 20
232.691896
 30
0.0
 10
25.121462
 20
232.617480
 30
0.0
 10
25.558647
 20
232.394239
 30
0.0
 10
25.809792
 20
232.006045
 30
0.0
 10
25.893510
 20
231.431819
 30
0.0
  0
LWPOLYLINE
  5
12e
100
AcDbEntity
  8
Layer_1
 62
7
100
AcDbPolyline
 90
21
 70
0
 10
27.694330
 20
233.413713
 30
0.0
 10
27.694330
 20
232.624922
 30
0.0
 10
28.609623
 20
232.624922
 30
0.0
 10
28.609623
 20
231.989922
 30
0.0
 10
27.694330
 20
231.989922
 30
0.0
 10
27.694330
 20
230.811700
 30
0.0
 10
27.771225
 20
230.548771
 30
0.0
 10
28.076322
 20
230.481797
 30
0.0
 10
28.532729
 20
230.481797
 30
0.0
 10
28.532729
 20
229.846797
 30
0.0
 10
27.771225
 20
229.846797
 30
0.0
 10
27.321639
 20
229.901368
 30
0.0
 10
27.024604
 20
230.065079
 30
0.0
 10
26.860892
 20
230.362114
 30
0.0
 10
26.806322
 20
230.811700
 30
0.0
 10
26.806322
 20
231.989922
 30
0.0
 10
26.364799
 20
231.989922
 30
0.0
 10
26.364799
 20
232.624922
 30
0.0
 10
26.806322
 20
232.624922
 30
0.0
 10
26.806322
 20
233.413713
 30
0.0
 10
27.694330
 20
233.413713
 30
0.0
  0
LWPOLYLINE
  5
12f
100
AcDbEntity
  8
Layer_1
 62
7
100
AcDbPolyline
 90
11
 70
0
 10
30.961107
 20
233.550136
 30
0.0
 10
32.027709
 20
233.550136
 30
0.0
 10
33.374604
 20
231.010136
 30
0.0
 10
33.374604
 20
233.550136
 30
0.0
 10
34.279975
 20
233.550136
 30
0.0
 10
34.279975
 20
229.846797
 30
0.0
 10
33.213373
 20
229.846797
 30
0.0
 10
31.866479
 20
232.386797
 30
0.0
 10
31.866479
 20
229.846797
 30
0.0
 10
30.961107
 20
229.846797
 30
0.0
 10
30.961107
 20
233.550136
 30
0.0
  0
LWPOLYLINE
  5
130
100
AcDbEntity
  8
Layer_1
 62
7
100
AcDbPolyline
 90
17
 70
0
 10
36.499995
 20
232.056896
 30
0.0
 10
36.239544
 20
232.003564
 30
0.0
 10
36.048549
 20
231.843575
 30
0.0
 10
35.933206
 20
231.585605
 30
0.0
 10
35.894761
 20
231.233380
 30
0.0
 10
35.933206
 20
230.880532
 30
0.0
 10
36.048549
 20
230.620704
 30
0.0
 10
36.239544
 20
230.462574
 30
0.0
 10
36.499995
 20
230.409864
 30
0.0
 10
36.756101
 20
230.462574
 30
0.0
 10
36.943998
 20
230.620704
 30
0.0
 10
37.059337
 20
230.880532
 30
0.0
 10
37.097787
 20
231.233380
 30
0.0
 10
37.059337
 20
231.585605
 30
0.0
 10
36.943998
 20
231.843575
 30
0.0
 10
36.756101
 20
232.003564
 30
0.0
 10
36.499995
 20
232.056896
 30
0.0
  0
LWPOLYLINE
  5
131
100
AcDbEntity
  8
Layer_1
 62
7
100
AcDbPolyline
 90
17
 70
0
 10
36.499995
 20
232.691896
 30
0.0
 10
37.138094
 20
232.595156
 30
0.0
 10
37.618687
 20
232.304944
 30
0.0
 10
37.921920
 20
231.843573
 30
0.0
 10
38.023001
 20
231.233380
 30
0.0
 10
37.921920
 20
230.623185
 30
0.0
 10
37.618687
 20
230.161819
 30
0.0
 10
37.138094
 20
229.871602
 30
0.0
 10
36.499995
 20
229.774864
 30
0.0
 10
35.858793
 20
229.871602
 30
0.0
 10
35.373860
 20
230.161819
 30
0.0
 10
35.070624
 20
230.623185
 30
0.0
 10
34.969546
 20
231.233380
 30
0.0
 10
35.070624
 20
231.843573
 30
0.0
 10
35.373860
 20
232.304944
 30
0.0
 10
35.858793
 20
232.595156
 30
0.0
 10
36.499995
 20
232.691896
 30
0.0
  0
LWPOLYLINE
  5
132
100
AcDbEntity
  8
Layer_1
 62
7
100
AcDbPolyline
 90
8
 70
0
 10
38.320658
 20
232.624922
 30
0.0
 10
39.208665
 20
232.624922
 30
0.0
 10
39.900716
 20
230.705040
 30
0.0
 10
40.590287
 20
232.624922
 30
0.0
 10
41.480777
 20
232.624922
 30
0.0
 10
40.386889
 20
229.846797
 30
0.0
 10
39.412065
 20
229.846797
 30
0.0
 10
38.320658
 20
232.624922
 30
0.0
  0
LWPOLYLINE
  5
133
100
AcDbEntity
  8
Layer_1
 62
7
100
AcDbPolyline
 90
11
 70
0
 10
43.229507
 20
231.096954
 30
0.0
 10
42.810306
 20
231.002697
 30
0.0
 10
42.671402
 20
230.724883
 30
0.0
 10
42.783021
 20
230.459473
 30
0.0
 10
43.098040
 20
230.365216
 30
0.0
 10
43.328724
 20
230.409864
 30
0.0
 10
43.519722
 20
230.543809
 30
0.0
 10
43.648083
 20
230.747207
 30
0.0
 10
43.690873
 20
230.995255
 30
0.0
 10
43.690873
 20
231.096954
 30
0.0
 10
43.229507
 20
231.096954
 30
0.0
  0
LWPOLYLINE
  5
134
100
AcDbEntity
  8
Layer_1
 62
7
100
AcDbPolyline
 90
28
 70
0
 10
44.586322
 20
231.431819
 30
0.0
 10
44.586322
 20
229.846797
 30
0.0
 10
43.690873
 20
229.846797
 30
0.0
 10
43.690873
 20
230.258556
 30
0.0
 10
43.289037
 20
229.888966
 30
0.0
 10
42.745815
 20
229.774864
 30
0.0
 10
42.354519
 20
229.837496
 30
0.0
 10
42.043841
 20
230.025393
 30
0.0
 10
41.842923
 20
230.315606
 30
0.0
 10
41.775950
 20
230.680236
 30
0.0
 10
41.859666
 20
231.103774
 30
0.0
 10
42.110815
 20
231.397091
 30
0.0
 10
42.543656
 20
231.568242
 30
0.0
 10
43.167495
 20
231.625293
 30
0.0
 10
43.690873
 20
231.625293
 30
0.0
 10
43.690873
 20
231.694748
 30
0.0
 10
43.649323
 20
231.877061
 30
0.0
 10
43.524681
 20
232.002325
 30
0.0
 10
43.006264
 20
232.101543
 30
0.0
 10
42.475444
 20
232.044492
 30
0.0
 10
42.019037
 20
231.873341
 30
0.0
 10
42.019037
 20
232.550508
 30
0.0
 10
42.592027
 20
232.654688
 30
0.0
 10
43.167495
 20
232.691896
 30
0.0
 10
43.814274
 20
232.617480
 30
0.0
 10
44.251459
 20
232.394239
 30
0.0
 10
44.502604
 20
232.006045
 30
0.0
 10
44.586322
 20
231.431819
 30
0.0
  0
LWPOLYLINE
  5
135
100
AcDbEntity
  8
Layer_1
 62
7
100
AcDbPolyline
 90
7
 70
0
 10
47.223062
 20
233.550136
 30
0.0
 10
48.178040
 20
233.550136
 30
0.0
 10
48.178040
 20
230.568614
 30
0.0
 10
49.854838
 20
230.568614
 30
0.0
 10
49.854838
 20
229.846797
 30
0.0
 10
47.223062
 20
229.846797
 30
0.0
 10
47.223062
 20
233.550136
 30
0.0
  0
LWPOLYLINE
  5
136
100
AcDbEntity
  8
Layer_1
 62
7
100
AcDbPolyline
 90
11
 70
0
 10
51.663100
 20
231.096954
 30
0.0
 10
51.243902
 20
231.002697
 30
0.0
 10
51.104995
 20
230.724883
 30
0.0
 10
51.216616
 20
230.459473
 30
0.0
 10
51.531636
 20
230.365216
 30
0.0
 10
51.762317
 20
230.409864
 30
0.0
 10
51.953315
 20
230.543809
 30
0.0
 10
52.081678
 20
230.747207
 30
0.0
 10
52.124466
 20
230.995255
 30
0.0
 10
52.124466
 20
231.096954
 30
0.0
 10
51.663100
 20
231.096954
 30
0.0
  0
LWPOLYLINE
  5
137
100
AcDbEntity
  8
Layer_1
 62
7
100
AcDbPolyline
 90
28
 70
0
 10
53.019915
 20
231.431819
 30
0.0
 10
53.019915
 20
229.846797
 30
0.0
 10
52.124466
 20
229.846797
 30
0.0
 10
52.124466
 20
230.258556
 30
0.0
 10
51.722632
 20
229.888966
 30
0.0
 10
51.179408
 20
229.774864
 30
0.0
 10
50.788115
 20
229.837496
 30
0.0
 10
50.477437
 20
230.025393
 30
0.0
 10
50.276518
 20
230.315606
 30
0.0
 10
50.209546
 20
230.680236
 30
0.0
 10
50.293261
 20
231.103774
 30
0.0
 10
50.544408
 20
231.397091
 30
0.0
 10
50.977249
 20
231.568242
 30
0.0
 10
51.601088
 20
231.625293
 30
0.0
 10
52.124466
 20
231.625293
 30
0.0
 10
52.124466
 20
231.694748
 30
0.0
 10
52.082918
 20
231.877061
 30
0.0
 10
51.958277
 20
232.002325
 30
0.0
 10
51.439857
 20
232.101543
 30
0.0
 10
50.909037
 20
232.044492
 30
0.0
 10
50.452632
 20
231.873341
 30
0.0
 10
50.452632
 20
232.550508
 30
0.0
 10
51.025620
 20
232.654688
 30
0.0
 10
51.601088
 20
232.691896
 30
0.0
 10
52.247868
 20
232.617480
 30
0.0
 10
52.685053
 20
232.394239
 30
0.0
 10
52.936198
 20
232.006045
 30
0.0
 10
53.019915
 20
231.431819
 30
0.0
  0
LWPOLYLINE
  5
138
100
AcDbEntity
  8
Layer_1
 62
7
100
AcDbPolyline
 90
17
 70
0
 10
55.329232
 20
230.419787
 30
0.0
 10
55.580378
 20
230.471876
 30
0.0
 10
55.763315
 20
230.628146
 30
0.0
 10
55.876794
 20
230.883633
 30
0.0
 10
55.914623
 20
231.233380
 30
0.0
 10
55.876794
 20
231.583125
 30
0.0
 10
55.763315
 20
231.838614
 30
0.0
 10
55.580378
 20
231.994881
 30
0.0
 10
55.329232
 20
232.046973
 30
0.0
 10
55.076844
 20
231.994261
 30
0.0
 10
54.890190
 20
231.836133
 30
0.0
 10
54.776707
 20
231.581264
 30
0.0
 10
54.738882
 20
231.233380
 30
0.0
 10
54.776707
 20
230.884874
 30
0.0
 10
54.890190
 20
230.628146
 30
0.0
 10
55.076844
 20
230.471876
 30
0.0
 10
55.329232
 20
230.419787
 30
0.0
  0
LWPOLYLINE
  5
139
100
AcDbEntity
  8
Layer_1
 62
7
100
AcDbPolyline
 90
18
 70
0
 10
54.738882
 20
232.218127
 30
0.0
 10
55.145678
 20
232.575313
 30
0.0
 10
55.659136
 20
232.691896
 30
0.0
 10
56.126701
 20
232.589574
 30
0.0
 10
56.502495
 20
232.282617
 30
0.0
 10
56.749918
 20
231.816909
 30
0.0
 10
56.832396
 20
231.233380
 30
0.0
 10
56.749918
 20
230.649229
 30
0.0
 10
56.502495
 20
230.181662
 30
0.0
 10
56.126701
 20
229.876563
 30
0.0
 10
55.659136
 20
229.774864
 30
0.0
 10
55.145678
 20
229.888966
 30
0.0
 10
54.738882
 20
230.248633
 30
0.0
 10
54.738882
 20
229.846797
 30
0.0
 10
53.850873
 20
229.846797
 30
0.0
 10
53.850873
 20
233.706409
 30
0.0
 10
54.738882
 20
233.706409
 30
0.0
 10
54.738882
 20
232.218127
 30
0.0
  0
LWPOLYLINE
  5
13a
100
AcDbEntity
  8
Layer_1
 62
7
100
AcDbPolyline
 90
37
 70
0
 10
59.662610
 20
232.538107
 30
0.0
 10
59.662610
 20
231.863418
 30
0.0
 10
59.111947
 20
232.042011
 30
0.0
 10
58.610892
 20
232.101543
 30
0.0
 10
58.233860
 20
232.037053
 30
0.0
 10
58.112319
 20
231.843575
 30
0.0
 10
58.204097
 20
231.679864
 30
0.0
 10
58.538959
 20
231.595527
 30
0.0
 10
58.695229
 20
231.573204
 30
0.0
 10
59.265734
 20
231.458481
 30
0.0
 10
59.613001
 20
231.287950
 30
0.0
 10
59.789732
 20
231.033080
 30
0.0
 10
59.848646
 20
230.665351
 30
0.0
 10
59.766789
 20
230.276538
 30
0.0
 10
59.521225
 20
229.998107
 30
0.0
 10
59.113186
 20
229.830674
 30
0.0
 10
58.543921
 20
229.774864
 30
0.0
 10
57.973412
 20
229.819511
 30
0.0
 10
57.370658
 20
229.948498
 30
0.0
 10
57.370658
 20
230.623184
 30
0.0
 10
57.913882
 20
230.429707
 30
0.0
 10
58.481908
 20
230.365216
 30
0.0
 10
58.873822
 20
230.437149
 30
0.0
 10
59.005287
 20
230.650470
 30
0.0
 10
58.913511
 20
230.826582
 30
0.0
 10
58.553841
 20
230.918361
 30
0.0
 10
58.397572
 20
230.938201
 30
0.0
 10
57.893416
 20
231.044240
 30
0.0
 10
57.566616
 20
231.213534
 30
0.0
 10
57.388023
 20
231.466540
 30
0.0
 10
57.328491
 20
231.823730
 30
0.0
 10
57.404145
 20
232.208199
 30
0.0
 10
57.631107
 20
232.478573
 30
0.0
 10
58.014338
 20
232.638561
 30
0.0
 10
58.558803
 20
232.691893
 30
0.0
 10
59.074741
 20
232.654685
 30
0.0
 10
59.662610
 20
232.538105
 30
0.0
  0
LWPOLYLINE
  5
13b
100
AcDbEntity
  8
Layer_1
 62
7
100
AcDbPolyline
 90
9
 70
0
 10
60.793706
 20
232.188361
 30
0.0
 10
60.982222
 20
232.106505
 30
0.0
 10
61.066556
 20
231.920470
 30
0.0
 10
60.984700
 20
231.726992
 30
0.0
 10
60.793706
 20
231.645136
 30
0.0
 10
60.597748
 20
231.726992
 30
0.0
 10
60.513412
 20
231.920470
 30
0.0
 10
60.597748
 20
232.108986
 30
0.0
 10
60.793706
 20
232.188361
 30
0.0
  0
LWPOLYLINE
  5
13c
100
AcDbEntity
  8
Layer_1
 62
7
100
AcDbPolyline
 90
16
 70
0
 10
60.441479
 20
228.998476
 30
0.0
 10
60.441479
 20
229.110098
 30
0.0
 10
60.818511
 20
229.343261
 30
0.0
 10
60.979741
 20
229.745098
 30
0.0
 10
60.925171
 20
229.846797
 30
0.0
 10
60.711850
 20
229.774864
 30
0.0
 10
60.509071
 20
229.843698
 30
0.0
 10
60.441479
 20
230.050197
 30
0.0
 10
60.538216
 20
230.258556
 30
0.0
 10
60.761459
 20
230.345373
 30
0.0
 10
60.938193
 20
230.303204
 30
0.0
 10
61.076479
 20
230.176700
 30
0.0
 10
61.183139
 20
229.821992
 30
0.0
 10
61.136785
 20
229.553792
 30
0.0
 10
60.997724
 20
229.327140
 30
0.0
 10
60.441479
 20
228.998476
 30
0.0
  0
LWPOLYLINE
  5
13d
100
AcDbEntity
  8
Layer_1
 62
7
100
AcDbPolyline
 90
18
 70
0
 10
65.355287
 20
230.248633
 30
0.0
 10
65.355287
 20
228.790117
 30
0.0
 10
64.467280
 20
228.790117
 30
0.0
 10
64.467280
 20
232.624922
 30
0.0
 10
65.355287
 20
232.624922
 30
0.0
 10
65.355287
 20
232.218127
 30
0.0
 10
65.762084
 20
232.575313
 30
0.0
 10
66.275540
 20
232.691896
 30
0.0
 10
66.743108
 20
232.589574
 30
0.0
 10
67.118902
 20
232.282617
 30
0.0
 10
67.366325
 20
231.816909
 30
0.0
 10
67.448803
 20
231.233380
 30
0.0
 10
67.366325
 20
230.649229
 30
0.0
 10
67.118902
 20
230.181662
 30
0.0
 10
66.743108
 20
229.876563
 30
0.0
 10
66.275540
 20
229.774864
 30
0.0
 10
65.762084
 20
229.888966
 30
0.0
 10
65.355287
 20
230.248633
 30
0.0
  0
LWPOLYLINE
  5
13e
100
AcDbEntity
  8
Layer_1
 62
7
100
AcDbPolyline
 90
17
 70
0
 10
65.945639
 20
232.046973
 30
0.0
 10
65.693250
 20
231.994261
 30
0.0
 10
65.506597
 20
231.836133
 30
0.0
 10
65.393114
 20
231.581264
 30
0.0
 10
65.355287
 20
231.233380
 30
0.0
 10
65.393114
 20
230.884874
 30
0.0
 10
65.506597
 20
230.628146
 30
0.0
 10
65.693250
 20
230.471876
 30
0.0
 10
65.945639
 20
230.419787
 30
0.0
 10
66.196784
 20
230.471876
 30
0.0
 10
66.379722
 20
230.628146
 30
0.0
 10
66.493201
 20
230.883633
 30
0.0
 10
66.531030
 20
231.233380
 30
0.0
 10
66.493201
 20
231.583125
 30
0.0
 10
66.379722
 20
231.838614
 30
0.0
 10
66.196784
 20
231.994881
 30
0.0
 10
65.945639
 20
232.046973
 30
0.0
  0
LWPOLYLINE
  5
13f
100
AcDbEntity
  8
Layer_1
 62
7
100
AcDbPolyline
 90
5
 70
0
 10
68.108607
 20
233.706409
 30
0.0
 10
68.996616
 20
233.706409
 30
0.0
 10
68.996616
 20
229.846797
 30
0.0
 10
68.108607
 20
229.846797
 30
0.0
 10
68.108607
 20
233.706409
 30
0.0
  0
LWPOLYLINE
  5
140
100
AcDbEntity
  8
Layer_1
 62
7
100
AcDbPolyline
 90
24
 70
0
 10
72.628021
 20
231.243303
 30
0.0
 10
72.628021
 20
230.990293
 30
0.0
 10
70.551870
 20
230.990293
 30
0.0
 10
70.624426
 20
230.716822
 30
0.0
 10
70.777591
 20
230.521486
 30
0.0
 10
71.009515
 20
230.404284
 30
0.0
 10
71.318334
 20
230.365216
 30
0.0
 10
71.891322
 20
230.447072
 30
0.0
 10
72.496556
 20
230.700079
 30
0.0
 10
72.496556
 20
230.015470
 30
0.0
 10
71.866517
 20
229.836877
 30
0.0
 10
71.236479
 20
229.774864
 30
0.0
 10
70.566131
 20
229.870362
 30
0.0
 10
70.063216
 20
230.156857
 30
0.0
 10
69.750678
 20
230.618223
 30
0.0
 10
69.646498
 20
231.233380
 30
0.0
 10
69.748818
 20
231.840473
 30
0.0
 10
70.055777
 20
232.302463
 30
0.0
 10
70.544428
 20
232.594536
 30
0.0
 10
71.186870
 20
232.691896
 30
0.0
 10
71.775979
 20
232.593295
 30
0.0
 10
72.233626
 20
232.297502
 30
0.0
 10
72.529420
 20
231.836752
 30
0.0
 10
72.628021
 20
231.243303
 30
0.0
  0
LWPOLYLINE
  5
141
100
AcDbEntity
  8
Layer_1
 62
7
100
AcDbPolyline
 90
9
 70
0
 10
71.715209
 20
231.538476
 30
0.0
 10
71.678001
 20
231.766678
 30
0.0
 10
71.566382
 20
231.945274
 30
0.0
 10
71.397087
 20
232.062474
 30
0.0
 10
71.181908
 20
232.101543
 30
0.0
 10
70.948123
 20
232.064955
 30
0.0
 10
70.762709
 20
231.955197
 30
0.0
 10
70.561790
 20
231.538476
 30
0.0
 10
71.715209
 20
231.538476
 30
0.0
  0
LWPOLYLINE
  5
142
100
AcDbEntity
  8
Layer_1
 62
7
100
AcDbPolyline
 90
11
 70
0
 10
74.542944
 20
231.096954
 30
0.0
 10
74.123745
 20
231.002697
 30
0.0
 10
73.984838
 20
230.724883
 30
0.0
 10
74.096459
 20
230.459473
 30
0.0
 10
74.411479
 20
230.365216
 30
0.0
 10
74.642161
 20
230.409864
 30
0.0
 10
74.833158
 20
230.543809
 30
0.0
 10
74.961521
 20
230.747207
 30
0.0
 10
75.004312
 20
230.995255
 30
0.0
 10
75.004312
 20
231.096954
 30
0.0
 10
74.542944
 20
231.096954
 30
0.0
  0
LWPOLYLINE
  5
143
100
AcDbEntity
  8
Layer_1
 62
7
100
AcDbPolyline
 90
28
 70
0
 10
75.899761
 20
231.431819
 30
0.0
 10
75.899761
 20
229.846797
 30
0.0
 10
75.004312
 20
229.846797
 30
0.0
 10
75.004312
 20
230.258556
 30
0.0
 10
74.602475
 20
229.888966
 30
0.0
 10
74.059251
 20
229.774864
 30
0.0
 10
73.667958
 20
229.837496
 30
0.0
 10
73.357280
 20
230.025393
 30
0.0
 10
73.156361
 20
230.315606
 30
0.0
 10
73.089389
 20
230.680236
 30
0.0
 10
73.173105
 20
231.103774
 30
0.0
 10
73.424251
 20
231.397091
 30
0.0
 10
73.857093
 20
231.568242
 30
0.0
 10
74.480931
 20
231.625293
 30
0.0
 10
75.004312
 20
231.625293
 30
0.0
 10
75.004312
 20
231.694748
 30
0.0
 10
74.962762
 20
231.877061
 30
0.0
 10
74.838120
 20
232.002325
 30
0.0
 10
74.319700
 20
232.101543
 30
0.0
 10
73.788882
 20
232.044492
 30
0.0
 10
73.332475
 20
231.873341
 30
0.0
 10
73.332475
 20
232.550508
 30
0.0
 10
73.905463
 20
232.654688
 30
0.0
 10
74.480931
 20
232.691896
 30
0.0
 10
75.127713
 20
232.617480
 30
0.0
 10
75.564896
 20
232.394239
 30
0.0
 10
75.816042
 20
232.006045
 30
0.0
 10
75.899761
 20
231.431819
 30
0.0
  0
LWPOLYLINE
  5
144
100
AcDbEntity
  8
Layer_1
 62
7
100
AcDbPolyline
 90
37
 70
0
 10
78.901126
 20
232.538107
 30
0.0
 10
78.901126
 20
231.863418
 30
0.0
 10
78.350463
 20
232.042011
 30
0.0
 10
77.849408
 20
232.101543
 30
0.0
 10
77.472376
 20
232.037053
 30
0.0
 10
77.350834
 20
231.843575
 30
0.0
 10
77.442610
 20
231.679864
 30
0.0
 10
77.777475
 20
231.595527
 30
0.0
 10
77.933745
 20
231.573204
 30
0.0
 10
78.504250
 20
231.458481
 30
0.0
 10
78.851517
 20
231.287950
 30
0.0
 10
79.028248
 20
231.033080
 30
0.0
 10
79.087162
 20
230.665351
 30
0.0
 10
79.005304
 20
230.276538
 30
0.0
 10
78.759741
 20
229.998107
 30
0.0
 10
78.351702
 20
229.830674
 30
0.0
 10
77.782437
 20
229.774864
 30
0.0
 10
77.211928
 20
229.819511
 30
0.0
 10
76.609174
 20
229.948498
 30
0.0
 10
76.609174
 20
230.623184
 30
0.0
 10
77.152396
 20
230.429707
 30
0.0
 10
77.720424
 20
230.365216
 30
0.0
 10
78.112338
 20
230.437149
 30
0.0
 10
78.243803
 20
230.650470
 30
0.0
 10
78.152027
 20
230.826582
 30
0.0
 10
77.792357
 20
230.918361
 30
0.0
 10
77.636088
 20
230.938201
 30
0.0
 10
77.131932
 20
231.044240
 30
0.0
 10
76.805132
 20
231.213534
 30
0.0
 10
76.626537
 20
231.466540
 30
0.0
 10
76.567007
 20
231.823730
 30
0.0
 10
76.642660
 20
232.208199
 30
0.0
 10
76.869623
 20
232.478573
 30
0.0
 10
77.252854
 20
232.638561
 30
0.0
 10
77.797319
 20
232.691893
 30
0.0
 10
78.313257
 20
232.654685
 30
0.0
 10
78.901126
 20
232.538105
 30
0.0
  0
LWPOLYLINE
  5
145
100
AcDbEntity
  8
Layer_1
 62
7
100
AcDbPolyline
 90
24
 70
0
 10
82.530053
 20
231.243303
 30
0.0
 10
82.530053
 20
230.990293
 30
0.0
 10
80.453902
 20
230.990293
 30
0.0
 10
80.526458
 20
230.716822
 30
0.0
 10
80.679623
 20
230.521486
 30
0.0
 10
80.911547
 20
230.404284
 30
0.0
 10
81.220366
 20
230.365216
 30
0.0
 10
81.793354
 20
230.447072
 30
0.0
 10
82.398588
 20
230.700079
 30
0.0
 10
82.398588
 20
230.015470
 30
0.0
 10
81.768549
 20
229.836877
 30
0.0
 10
81.138511
 20
229.774864
 30
0.0
 10
80.468162
 20
229.870362
 30
0.0
 10
79.965248
 20
230.156857
 30
0.0
 10
79.652709
 20
230.618223
 30
0.0
 10
79.548530
 20
231.233380
 30
0.0
 10
79.650849
 20
231.840473
 30
0.0
 10
79.957806
 20
232.302463
 30
0.0
 10
80.446458
 20
232.594536
 30
0.0
 10
81.088902
 20
232.691896
 30
0.0
 10
81.678010
 20
232.593295
 30
0.0
 10
82.135658
 20
232.297502
 30
0.0
 10
82.431452
 20
231.836752
 30
0.0
 10
82.530053
 20
231.243303
 30
0.0
  0
LWPOLYLINE
  5
146
100
AcDbEntity
  8
Layer_1
 62
7
100
AcDbPolyline
 90
9
 70
0
 10
81.617241
 20
231.538476
 30
0.0
 10
81.580032
 20
231.766678
 30
0.0
 10
81.468412
 20
231.945274
 30
0.0
 10
81.299118
 20
232.062474
 30
0.0
 10
81.083940
 20
232.101543
 30
0.0
 10
80.850155
 20
232.064955
 30
0.0
 10
80.664741
 20
231.955197
 30
0.0
 10
80.463822
 20
231.538476
 30
0.0
 10
81.617241
 20
231.538476
 30
0.0
  0
LWPOLYLINE
  5
147
100
AcDbEntity
  8
Layer_1
 62
7
100
AcDbPolyline
 90
17
 70
0
 10
87.029623
 20
231.868380
 30
0.0
 10
86.796459
 20
231.947755
 30
0.0
 10
86.565777
 20
231.975046
 30
0.0
 10
86.262537
 20
231.919853
 30
0.0
 10
86.037437
 20
231.754283
 30
0.0
 10
85.899769
 20
231.488252
 30
0.0
 10
85.853882
 20
231.126725
 30
0.0
 10
85.853882
 20
229.846802
 30
0.0
 10
84.965873
 20
229.846802
 30
0.0
 10
84.965873
 20
232.624927
 30
0.0
 10
85.853882
 20
232.624927
 30
0.0
 10
85.853882
 20
232.168523
 30
0.0
 10
86.245796
 20
232.565398
 30
0.0
 10
86.779097
 20
232.691902
 30
0.0
 10
86.875834
 20
232.686934
 30
0.0
 10
87.027142
 20
232.672061
 30
0.0
 10
87.029682
 20
231.868388
 30
0.0
  0
LWPOLYLINE
  5
148
100
AcDbEntity
  8
Layer_1
 62
7
100
AcDbPolyline
 90
24
 70
0
 10
90.249271
 20
231.243303
 30
0.0
 10
90.249271
 20
230.990293
 30
0.0
 10
88.173120
 20
230.990293
 30
0.0
 10
88.245676
 20
230.716822
 30
0.0
 10
88.398841
 20
230.521486
 30
0.0
 10
88.630765
 20
230.404284
 30
0.0
 10
88.939584
 20
230.365216
 30
0.0
 10
89.512572
 20
230.447072
 30
0.0
 10
90.117806
 20
230.700079
 30
0.0
 10
90.117806
 20
230.015470
 30
0.0
 10
89.487767
 20
229.836877
 30
0.0
 10
88.857729
 20
229.774864
 30
0.0
 10
88.187381
 20
229.870362
 30
0.0
 10
87.684466
 20
230.156857
 30
0.0
 10
87.371928
 20
230.618223
 30
0.0
 10
87.267748
 20
231.233380
 30
0.0
 10
87.370068
 20
231.840473
 30
0.0
 10
87.677027
 20
232.302463
 30
0.0
 10
88.165678
 20
232.594536
 30
0.0
 10
88.808120
 20
232.691896
 30
0.0
 10
89.397229
 20
232.593295
 30
0.0
 10
89.854876
 20
232.297502
 30
0.0
 10
90.150670
 20
231.836752
 30
0.0
 10
90.249271
 20
231.243303
 30
0.0
  0
LWPOLYLINE
  5
149
100
AcDbEntity
  8
Layer_1
 62
7
100
AcDbPolyline
 90
9
 70
0
 10
89.336459
 20
231.538476
 30
0.0
 10
89.299251
 20
231.766678
 30
0.0
 10
89.187632
 20
231.945274
 30
0.0
 10
89.018337
 20
232.062474
 30
0.0
 10
88.803158
 20
232.101543
 30
0.0
 10
88.569373
 20
232.064955
 30
0.0
 10
88.383959
 20
231.955197
 30
0.0
 10
88.183040
 20
231.538476
 30
0.0
 10
89.336459
 20
231.538476
 30
0.0
  0
LWPOLYLINE
  5
14a
100
AcDbEntity
  8
Layer_1
 62
7
100
AcDbPolyline
 90
21
 70
0
 10
91.888860
 20
233.413713
 30
0.0
 10
91.888860
 20
232.624922
 30
0.0
 10
92.804155
 20
232.624922
 30
0.0
 10
92.804155
 20
231.989922
 30
0.0
 10
91.888860
 20
231.989922
 30
0.0
 10
91.888860
 20
230.811700
 30
0.0
 10
91.965757
 20
230.548771
 30
0.0
 10
92.270854
 20
230.481797
 30
0.0
 10
92.727261
 20
230.481797
 30
0.0
 10
92.727261
 20
229.846797
 30
0.0
 10
91.965757
 20
229.846797
 30
0.0
 10
91.516170
 20
229.901368
 30
0.0
 10
91.219136
 20
230.065079
 30
0.0
 10
91.055424
 20
230.362114
 30
0.0
 10
91.000854
 20
230.811700
 30
0.0
 10
91.000854
 20
231.989922
 30
0.0
 10
90.559331
 20
231.989922
 30
0.0
 10
90.559331
 20
232.624922
 30
0.0
 10
91.000854
 20
232.624922
 30
0.0
 10
91.000854
 20
233.413713
 30
0.0
 10
91.888860
 20
233.413713
 30
0.0
  0
LWPOLYLINE
  5
14b
100
AcDbEntity
  8
Layer_1
 62
7
100
AcDbPolyline
 90
25
 70
0
 10
93.320091
 20
230.928284
 30
0.0
 10
93.320091
 20
232.624922
 30
0.0
 10
94.213062
 20
232.624922
 30
0.0
 10
94.213062
 20
232.347111
 30
0.0
 10
94.210522
 20
231.779082
 30
0.0
 10
94.207982
 20
231.325159
 30
0.0
 10
94.225339
 20
230.841466
 30
0.0
 10
94.284871
 20
230.628146
 30
0.0
 10
94.426258
 20
230.494200
 30
0.0
 10
94.629656
 20
230.447072
 30
0.0
 10
94.877701
 20
230.500402
 30
0.0
 10
95.066217
 20
230.660393
 30
0.0
 10
95.185279
 20
230.915259
 30
0.0
 10
95.224967
 20
231.253223
 30
0.0
 10
95.224967
 20
232.624922
 30
0.0
 10
96.112976
 20
232.624922
 30
0.0
 10
96.112976
 20
229.846797
 30
0.0
 10
95.224967
 20
229.846797
 30
0.0
 10
95.224967
 20
230.248633
 30
0.0
 10
94.798326
 20
229.888966
 30
0.0
 10
94.304714
 20
229.774864
 30
0.0
 10
93.880553
 20
229.848658
 30
0.0
 10
93.570496
 20
230.070040
 30
0.0
 10
93.382599
 20
230.432187
 30
0.0
 10
93.319967
 20
230.928284
 30
0.0
  0
LWPOLYLINE
  5
14c
100
AcDbEntity
  8
Layer_1
 62
7
100
AcDbPolyline
 90
17
 70
0
 10
99.035091
 20
231.868380
 30
0.0
 10
98.801928
 20
231.947755
 30
0.0
 10
98.571245
 20
231.975046
 30
0.0
 10
98.268006
 20
231.919853
 30
0.0
 10
98.042905
 20
231.754283
 30
0.0
 10
97.905237
 20
231.488252
 30
0.0
 10
97.859350
 20
231.126725
 30
0.0
 10
97.859350
 20
229.846802
 30
0.0
 10
96.971341
 20
229.846802
 30
0.0
 10
96.971341
 20
232.624927
 30
0.0
 10
97.859350
 20
232.624927
 30
0.0
 10
97.859350
 20
232.168523
 30
0.0
 10
98.251264
 20
232.565398
 30
0.0
 10
98.784565
 20
232.691902
 30
0.0
 10
98.881303
 20
232.686934
 30
0.0
 10
99.032610
 20
232.672061
 30
0.0
 10
99.035150
 20
231.868388
 30
0.0
  0
LWPOLYLINE
  5
14d
100
AcDbEntity
  8
Layer_1
 62
7
100
AcDbPolyline
 90
24
 70
0
 10
102.274584
 20
231.538476
 30
0.0
 10
102.274584
 20
229.846797
 30
0.0
 10
101.381616
 20
229.846797
 30
0.0
 10
101.381616
 20
230.122130
 30
0.0
 10
101.381616
 20
231.141601
 30
0.0
 10
101.364260
 20
231.637697
 30
0.0
 10
101.309689
 20
231.838614
 30
0.0
 10
101.168304
 20
231.972559
 30
0.0
 10
100.964904
 20
232.022168
 30
0.0
 10
100.716857
 20
231.968216
 30
0.0
 10
100.528343
 20
231.806367
 30
0.0
 10
100.409278
 20
231.551499
 30
0.0
 10
100.369593
 20
231.213537
 30
0.0
 10
100.369593
 20
229.846797
 30
0.0
 10
99.481584
 20
229.846797
 30
0.0
 10
99.481584
 20
232.624922
 30
0.0
 10
100.369593
 20
232.624922
 30
0.0
 10
100.369593
 20
232.218127
 30
0.0
 10
100.796234
 20
232.575313
 30
0.0
 10
101.294808
 20
232.691896
 30
0.0
 10
101.717726
 20
232.618100
 30
0.0
 10
102.024064
 20
232.396720
 30
0.0
 10
102.211959
 20
232.034570
 30
0.0
 10
102.274593
 20
231.538476
 30
0.0
  0
LWPOLYLINE
  5
14e
100
AcDbEntity
  8
Layer_1
 62
7
100
AcDbPolyline
 90
21
 70
0
 10
29.609251
 20
226.734365
 30
0.0
 10
29.609251
 20
225.945577
 30
0.0
 10
30.524546
 20
225.945577
 30
0.0
 10
30.524546
 20
225.310577
 30
0.0
 10
29.609251
 20
225.310577
 30
0.0
 10
29.609251
 20
224.132356
 30
0.0
 10
29.686146
 20
223.869426
 30
0.0
 10
29.991245
 20
223.802452
 30
0.0
 10
30.447652
 20
223.802452
 30
0.0
 10
30.447652
 20
223.167452
 30
0.0
 10
29.686146
 20
223.167452
 30
0.0
 10
29.236561
 20
223.222023
 30
0.0
 10
28.939527
 20
223.385734
 30
0.0
 10
28.775815
 20
223.682770
 30
0.0
 10
28.721245
 20
224.132356
 30
0.0
 10
28.721245
 20
225.310577
 30
0.0
 10
28.279722
 20
225.310577
 30
0.0
 10
28.279722
 20
225.945577
 30
0.0
 10
28.721245
 20
225.945577
 30
0.0
 10
28.721245
 20
226.734365
 30
0.0
 10
29.609251
 20
226.734365
 30
0.0
  0
LWPOLYLINE
  5
14f
100
AcDbEntity
  8
Layer_1
 62
7
100
AcDbPolyline
 90
24
 70
0
 10
33.863257
 20
224.859131
 30
0.0
 10
33.863257
 20
223.167452
 30
0.0
 10
32.970287
 20
223.167452
 30
0.0
 10
32.970287
 20
223.442785
 30
0.0
 10
32.970287
 20
224.457298
 30
0.0
 10
32.952930
 20
224.958352
 30
0.0
 10
32.898359
 20
225.159269
 30
0.0
 10
32.756972
 20
225.293215
 30
0.0
 10
32.553574
 20
225.342824
 30
0.0
 10
32.305526
 20
225.288872
 30
0.0
 10
32.117013
 20
225.127022
 30
0.0
 10
31.997948
 20
224.872153
 30
0.0
 10
31.958263
 20
224.534192
 30
0.0
 10
31.958263
 20
223.167452
 30
0.0
 10
31.070254
 20
223.167452
 30
0.0
 10
31.070254
 20
227.027061
 30
0.0
 10
31.958263
 20
227.027061
 30
0.0
 10
31.958263
 20
225.538782
 30
0.0
 10
32.384901
 20
225.895968
 30
0.0
 10
32.883478
 20
226.012551
 30
0.0
 10
33.306395
 20
225.938755
 30
0.0
 10
33.612734
 20
225.717375
 30
0.0
 10
33.800628
 20
225.355224
 30
0.0
 10
33.863263
 20
224.859131
 30
0.0
  0
LWPOLYLINE
  5
150
100
AcDbEntity
  8
Layer_1
 62
7
100
AcDbPolyline
 90
24
 70
0
 10
37.464896
 20
224.563958
 30
0.0
 10
37.464896
 20
224.310949
 30
0.0
 10
35.388745
 20
224.310949
 30
0.0
 10
35.461301
 20
224.037477
 30
0.0
 10
35.614466
 20
223.842141
 30
0.0
 10
35.846390
 20
223.724939
 30
0.0
 10
36.155209
 20
223.685872
 30
0.0
 10
36.728197
 20
223.767727
 30
0.0
 10
37.333431
 20
224.020734
 30
0.0
 10
37.333431
 20
223.336125
 30
0.0
 10
36.703392
 20
223.157532
 30
0.0
 10
36.073354
 20
223.095519
 30
0.0
 10
35.403006
 20
223.191017
 30
0.0
 10
34.900091
 20
223.477512
 30
0.0
 10
34.587553
 20
223.938878
 30
0.0
 10
34.483373
 20
224.554035
 30
0.0
 10
34.585693
 20
225.161128
 30
0.0
 10
34.892652
 20
225.623115
 30
0.0
 10
35.381303
 20
225.915190
 30
0.0
 10
36.023745
 20
226.012551
 30
0.0
 10
36.612854
 20
225.913950
 30
0.0
 10
37.070501
 20
225.618157
 30
0.0
 10
37.366295
 20
225.157407
 30
0.0
 10
37.464896
 20
224.563958
 30
0.0
  0
LWPOLYLINE
  5
151
100
AcDbEntity
  8
Layer_1
 62
7
100
AcDbPolyline
 90
9
 70
0
 10
36.552084
 20
224.859131
 30
0.0
 10
36.514876
 20
225.087333
 30
0.0
 10
36.403257
 20
225.265929
 30
0.0
 10
36.233962
 20
225.383129
 30
0.0
 10
36.018783
 20
225.422199
 30
0.0
 10
35.784998
 20
225.385610
 30
0.0
 10
35.599584
 20
225.275852
 30
0.0
 10
35.398665
 20
224.859131
 30
0.0
 10
36.552084
 20
224.859131
 30
0.0
  0
LWPOLYLINE
  5
152
100
AcDbEntity
  8
Layer_1
 62
7
100
AcDbPolyline
 90
37
 70
0
 10
40.709350
 20
225.484211
 30
0.0
 10
41.108706
 20
225.876125
 30
0.0
 10
41.619681
 20
226.012551
 30
0.0
 10
42.041359
 20
225.938755
 30
0.0
 10
42.348940
 20
225.717375
 30
0.0
 10
42.536832
 20
225.355224
 30
0.0
 10
42.599466
 20
224.859131
 30
0.0
 10
42.599466
 20
223.167452
 30
0.0
 10
41.706498
 20
223.167452
 30
0.0
 10
41.706498
 20
224.616048
 30
0.0
 10
41.709038
 20
224.683019
 30
0.0
 10
41.711578
 20
224.782237
 30
0.0
 10
41.624761
 20
225.208878
 30
0.0
 10
41.344469
 20
225.342824
 30
0.0
 10
41.119984
 20
225.290732
 30
0.0
 10
40.952555
 20
225.134465
 30
0.0
 10
40.848993
 20
224.879595
 30
0.0
 10
40.811168
 20
224.531711
 30
0.0
 10
40.811168
 20
223.167452
 30
0.0
 10
39.918200
 20
223.167452
 30
0.0
 10
39.918200
 20
224.616048
 30
0.0
 10
39.838825
 20
225.208878
 30
0.0
 10
39.728442
 20
225.309335
 30
0.0
 10
39.556049
 20
225.342824
 30
0.0
 10
39.329706
 20
225.290112
 30
0.0
 10
39.161655
 20
225.131984
 30
0.0
 10
39.057475
 20
224.878355
 30
0.0
 10
39.022751
 20
224.534192
 30
0.0
 10
39.022751
 20
223.167452
 30
0.0
 10
38.129780
 20
223.167452
 30
0.0
 10
38.129780
 20
225.945577
 30
0.0
 10
39.022751
 20
225.945577
 30
0.0
 10
39.022751
 20
225.538782
 30
0.0
 10
39.397299
 20
225.893487
 30
0.0
 10
39.866110
 20
226.012551
 30
0.0
 10
40.374604
 20
225.873644
 30
0.0
 10
40.709469
 20
225.484211
 30
0.0
  0
LWPOLYLINE
  5
153
100
AcDbEntity
  8
Layer_1
 62
7
100
AcDbPolyline
 90
14
 70
0
 10
44.950950
 20
225.945577
 30
0.0
 10
45.814155
 20
225.945577
 30
0.0
 10
46.280482
 20
224.030657
 30
0.0
 10
46.749290
 20
225.945577
 30
0.0
 10
47.490950
 20
225.945577
 30
0.0
 10
47.957280
 20
224.050500
 30
0.0
 10
48.426088
 20
225.945577
 30
0.0
 10
49.289290
 20
225.945577
 30
0.0
 10
48.557553
 20
223.167452
 30
0.0
 10
47.587690
 20
223.167452
 30
0.0
 10
47.118882
 20
225.077413
 30
0.0
 10
46.652553
 20
223.167452
 30
0.0
 10
45.682690
 20
223.167452
 30
0.0
 10
44.950950
 20
225.945577
 30
0.0
  0
LWPOLYLINE
  5
154
100
AcDbEntity
  8
Layer_1
 62
7
100
AcDbPolyline
 90
24
 70
0
 10
52.685053
 20
224.859131
 30
0.0
 10
52.685053
 20
223.167452
 30
0.0
 10
51.792084
 20
223.167452
 30
0.0
 10
51.792084
 20
223.442785
 30
0.0
 10
51.792084
 20
224.457298
 30
0.0
 10
51.774728
 20
224.958352
 30
0.0
 10
51.720157
 20
225.159269
 30
0.0
 10
51.578770
 20
225.293215
 30
0.0
 10
51.375372
 20
225.342824
 30
0.0
 10
51.127323
 20
225.288872
 30
0.0
 10
50.938808
 20
225.127022
 30
0.0
 10
50.819746
 20
224.872153
 30
0.0
 10
50.780058
 20
224.534192
 30
0.0
 10
50.780058
 20
223.167452
 30
0.0
 10
49.892052
 20
223.167452
 30
0.0
 10
49.892052
 20
227.027061
 30
0.0
 10
50.780058
 20
227.027061
 30
0.0
 10
50.780058
 20
225.538782
 30
0.0
 10
51.206699
 20
225.895968
 30
0.0
 10
51.705273
 20
226.012551
 30
0.0
 10
52.128191
 20
225.938755
 30
0.0
 10
52.434532
 20
225.717375
 30
0.0
 10
52.622424
 20
225.355224
 30
0.0
 10
52.685058
 20
224.859131
 30
0.0
  0
LWPOLYLINE
  5
155
100
AcDbEntity
  8
Layer_1
 62
7
100
AcDbPolyline
 90
24
 70
0
 10
56.286694
 20
224.563958
 30
0.0
 10
56.286694
 20
224.310949
 30
0.0
 10
54.210540
 20
224.310949
 30
0.0
 10
54.283096
 20
224.037477
 30
0.0
 10
54.436264
 20
223.842141
 30
0.0
 10
54.668188
 20
223.724939
 30
0.0
 10
54.977007
 20
223.685872
 30
0.0
 10
55.549995
 20
223.767727
 30
0.0
 10
56.155229
 20
224.020734
 30
0.0
 10
56.155229
 20
223.336125
 30
0.0
 10
55.525190
 20
223.157532
 30
0.0
 10
54.895152
 20
223.095519
 30
0.0
 10
54.224803
 20
223.191017
 30
0.0
 10
53.721889
 20
223.477512
 30
0.0
 10
53.409350
 20
223.938878
 30
0.0
 10
53.305171
 20
224.554035
 30
0.0
 10
53.407489
 20
225.161128
 30
0.0
 10
53.714447
 20
225.623115
 30
0.0
 10
54.203099
 20
225.915190
 30
0.0
 10
54.845540
 20
226.012551
 30
0.0
 10
55.434651
 20
225.913950
 30
0.0
 10
55.892299
 20
225.618157
 30
0.0
 10
56.188093
 20
225.157407
 30
0.0
 10
56.286694
 20
224.563958
 30
0.0
  0
LWPOLYLINE
  5
156
100
AcDbEntity
  8
Layer_1
 62
7
100
AcDbPolyline
 90
9
 70
0
 10
55.373882
 20
224.859131
 30
0.0
 10
55.336673
 20
225.087333
 30
0.0
 10
55.225053
 20
225.265929
 30
0.0
 10
55.055759
 20
225.383129
 30
0.0
 10
54.840581
 20
225.422199
 30
0.0
 10
54.606796
 20
225.385610
 30
0.0
 10
54.421382
 20
225.275852
 30
0.0
 10
54.220463
 20
224.859131
 30
0.0
 10
55.373882
 20
224.859131
 30
0.0
  0
LWPOLYLINE
  5
157
100
AcDbEntity
  8
Layer_1
 62
7
100
AcDbPolyline
 90
24
 70
0
 10
59.749428
 20
224.859131
 30
0.0
 10
59.749428
 20
223.167452
 30
0.0
 10
58.856459
 20
223.167452
 30
0.0
 10
58.856459
 20
223.442785
 30
0.0
 10
58.856459
 20
224.462256
 30
0.0
 10
58.839103
 20
224.958352
 30
0.0
 10
58.784532
 20
225.159269
 30
0.0
 10
58.643145
 20
225.293215
 30
0.0
 10
58.439747
 20
225.342824
 30
0.0
 10
58.191698
 20
225.288872
 30
0.0
 10
58.003183
 20
225.127022
 30
0.0
 10
57.884121
 20
224.872153
 30
0.0
 10
57.844433
 20
224.534192
 30
0.0
 10
57.844433
 20
223.167452
 30
0.0
 10
56.956427
 20
223.167452
 30
0.0
 10
56.956427
 20
225.945577
 30
0.0
 10
57.844433
 20
225.945577
 30
0.0
 10
57.844433
 20
225.538782
 30
0.0
 10
58.271074
 20
225.895968
 30
0.0
 10
58.769648
 20
226.012551
 30
0.0
 10
59.192566
 20
225.938755
 30
0.0
 10
59.498907
 20
225.717375
 30
0.0
 10
59.686799
 20
225.355224
 30
0.0
 10
59.749433
 20
224.859131
 30
0.0
  0
LWPOLYLINE
  5
158
100
AcDbEntity
  8
Layer_1
 62
7
100
AcDbPolyline
 90
17
 70
0
 10
61.979370
 20
225.945577
 30
0.0
 10
62.867376
 20
225.945577
 30
0.0
 10
63.613998
 20
224.060423
 30
0.0
 10
64.248998
 20
225.945577
 30
0.0
 10
65.137007
 20
225.945577
 30
0.0
 10
63.968706
 20
222.904522
 30
0.0
 10
63.777708
 20
222.510749
 30
0.0
 10
63.556947
 20
222.257122
 30
0.0
 10
63.285955
 20
222.117595
 30
0.0
 10
62.939312
 20
222.071086
 30
0.0
 10
62.425854
 20
222.071086
 30
0.0
 10
62.425854
 20
222.653997
 30
0.0
 10
62.703665
 20
222.653997
 30
0.0
 10
63.031088
 20
222.725929
 30
0.0
 10
63.192319
 20
222.983897
 30
0.0
 10
63.217126
 20
223.060792
 30
0.0
 10
61.979373
 20
225.945577
 30
0.0
  0
LWPOLYLINE
  5
159
100
AcDbEntity
  8
Layer_1
 62
7
100
AcDbPolyline
 90
17
 70
0
 10
66.979995
 20
225.377551
 30
0.0
 10
66.719544
 20
225.324219
 30
0.0
 10
66.528549
 20
225.164231
 30
0.0
 10
66.413206
 20
224.906259
 30
0.0
 10
66.374761
 20
224.554035
 30
0.0
 10
66.413206
 20
224.201187
 30
0.0
 10
66.528549
 20
223.941359
 30
0.0
 10
66.719544
 20
223.783229
 30
0.0
 10
66.979995
 20
223.730519
 30
0.0
 10
67.236101
 20
223.783229
 30
0.0
 10
67.423998
 20
223.941359
 30
0.0
 10
67.539337
 20
224.201187
 30
0.0
 10
67.577787
 20
224.554035
 30
0.0
 10
67.539337
 20
224.906259
 30
0.0
 10
67.423998
 20
225.164231
 30
0.0
 10
67.236101
 20
225.324219
 30
0.0
 10
66.979995
 20
225.377551
 30
0.0
  0
LWPOLYLINE
  5
15a
100
AcDbEntity
  8
Layer_1
 62
7
100
AcDbPolyline
 90
17
 70
0
 10
66.979995
 20
226.012551
 30
0.0
 10
67.618094
 20
225.915811
 30
0.0
 10
68.098687
 20
225.625596
 30
0.0
 10
68.401920
 20
225.164228
 30
0.0
 10
68.503001
 20
224.554035
 30
0.0
 10
68.401920
 20
223.943838
 30
0.0
 10
68.098687
 20
223.482471
 30
0.0
 10
67.618094
 20
223.192257
 30
0.0
 10
66.979995
 20
223.095519
 30
0.0
 10
66.338793
 20
223.192257
 30
0.0
 10
65.853860
 20
223.482471
 30
0.0
 10
65.550624
 20
223.943838
 30
0.0
 10
65.449546
 20
224.554035
 30
0.0
 10
65.550624
 20
225.164228
 30
0.0
 10
65.853860
 20
225.625596
 30
0.0
 10
66.338793
 20
225.915811
 30
0.0
 10
66.979995
 20
226.012551
 30
0.0
  0
LWPOLYLINE
  5
15b
100
AcDbEntity
  8
Layer_1
 62
7
100
AcDbPolyline
 90
25
 70
0
 10
69.120639
 20
224.248936
 30
0.0
 10
69.120639
 20
225.945577
 30
0.0
 10
70.013607
 20
225.945577
 30
0.0
 10
70.013607
 20
225.667766
 30
0.0
 10
70.011067
 20
225.099737
 30
0.0
 10
70.008527
 20
224.645811
 30
0.0
 10
70.025884
 20
224.162122
 30
0.0
 10
70.085413
 20
223.948801
 30
0.0
 10
70.226801
 20
223.814856
 30
0.0
 10
70.430198
 20
223.767727
 30
0.0
 10
70.678245
 20
223.821056
 30
0.0
 10
70.866762
 20
223.981048
 30
0.0
 10
70.985822
 20
224.235914
 30
0.0
 10
71.025512
 20
224.573878
 30
0.0
 10
71.025512
 20
225.945577
 30
0.0
 10
71.913519
 20
225.945577
 30
0.0
 10
71.913519
 20
223.167452
 30
0.0
 10
71.025512
 20
223.167452
 30
0.0
 10
71.025512
 20
223.569288
 30
0.0
 10
70.598871
 20
223.209622
 30
0.0
 10
70.105259
 20
223.095519
 30
0.0
 10
69.681097
 20
223.169313
 30
0.0
 10
69.371038
 20
223.390695
 30
0.0
 10
69.183144
 20
223.752842
 30
0.0
 10
69.120512
 20
224.248936
 30
0.0
  0
LWPOLYLINE
  5
15c
100
AcDbEntity
  8
Layer_1
 62
7
100
AcDbPolyline
 90
5
 70
0
 10
73.416812
 20
226.870792
 30
0.0
 10
73.416812
 20
225.494131
 30
0.0
 10
72.828940
 20
225.494131
 30
0.0
 10
72.828940
 20
226.870792
 30
0.0
 10
73.416812
 20
226.870792
 30
0.0
  0
LWPOLYLINE
  5
15d
100
AcDbEntity
  8
Layer_1
 62
7
100
AcDbPolyline
 90
17
 70
0
 10
76.393373
 20
225.189035
 30
0.0
 10
76.160209
 20
225.268410
 30
0.0
 10
75.929527
 20
225.295701
 30
0.0
 10
75.626287
 20
225.240508
 30
0.0
 10
75.401187
 20
225.074938
 30
0.0
 10
75.263519
 20
224.808907
 30
0.0
 10
75.217632
 20
224.447380
 30
0.0
 10
75.217632
 20
223.167458
 30
0.0
 10
74.329623
 20
223.167458
 30
0.0
 10
74.329623
 20
225.945583
 30
0.0
 10
75.217632
 20
225.945583
 30
0.0
 10
75.217632
 20
225.489178
 30
0.0
 10
75.609546
 20
225.886053
 30
0.0
 10
76.142847
 20
226.012557
 30
0.0
 10
76.239584
 20
226.007590
 30
0.0
 10
76.390892
 20
225.992716
 30
0.0
 10
76.393432
 20
225.189044
 30
0.0
  0
LWPOLYLINE
  5
15e
100
AcDbEntity
  8
Layer_1
 62
7
100
AcDbPolyline
 90
24
 70
0
 10
79.613021
 20
224.563958
 30
0.0
 10
79.613021
 20
224.310949
 30
0.0
 10
77.536870
 20
224.310949
 30
0.0
 10
77.609426
 20
224.037477
 30
0.0
 10
77.762591
 20
223.842141
 30
0.0
 10
77.994515
 20
223.724939
 30
0.0
 10
78.303334
 20
223.685872
 30
0.0
 10
78.876322
 20
223.767727
 30
0.0
 10
79.481556
 20
224.020734
 30
0.0
 10
79.481556
 20
223.336125
 30
0.0
 10
78.851517
 20
223.157532
 30
0.0
 10
78.221479
 20
223.095519
 30
0.0
 10
77.551131
 20
223.191017
 30
0.0
 10
77.048216
 20
223.477512
 30
0.0
 10
76.735678
 20
223.938878
 30
0.0
 10
76.631498
 20
224.554035
 30
0.0
 10
76.733818
 20
225.161128
 30
0.0
 10
77.040777
 20
225.623115
 30
0.0
 10
77.529428
 20
225.915190
 30
0.0
 10
78.171870
 20
226.012551
 30
0.0
 10
78.760979
 20
225.913950
 30
0.0
 10
79.218626
 20
225.618157
 30
0.0
 10
79.514420
 20
225.157407
 30
0.0
 10
79.613021
 20
224.563958
 30
0.0
  0
LWPOLYLINE
  5
15f
100
AcDbEntity
  8
Layer_1
 62
7
100
AcDbPolyline
 90
9
 70
0
 10
78.700209
 20
224.859131
 30
0.0
 10
78.663001
 20
225.087333
 30
0.0
 10
78.551382
 20
225.265929
 30
0.0
 10
78.382087
 20
225.383129
 30
0.0
 10
78.166908
 20
225.422199
 30
0.0
 10
77.933123
 20
225.385610
 30
0.0
 10
77.747709
 20
225.275852
 30
0.0
 10
77.546790
 20
224.859131
 30
0.0
 10
78.700209
 20
224.859131
 30
0.0
  0
LWPOLYLINE
  5
160
100
AcDbEntity
  8
Layer_1
 62
7
100
AcDbPolyline
 90
18
 70
0
 10
83.938959
 20
225.538782
 30
0.0
 10
83.938959
 20
227.027061
 30
0.0
 10
84.831928
 20
227.027061
 30
0.0
 10
84.831928
 20
223.167452
 30
0.0
 10
83.938959
 20
223.167452
 30
0.0
 10
83.938959
 20
223.569288
 30
0.0
 10
83.534642
 20
223.209622
 30
0.0
 10
83.023665
 20
223.095519
 30
0.0
 10
82.556097
 20
223.197219
 30
0.0
 10
82.180306
 20
223.502317
 30
0.0
 10
81.932881
 20
223.969884
 30
0.0
 10
81.850405
 20
224.554035
 30
0.0
 10
81.932881
 20
225.137564
 30
0.0
 10
82.180306
 20
225.603272
 30
0.0
 10
82.556097
 20
225.910229
 30
0.0
 10
83.023665
 20
226.012551
 30
0.0
 10
83.532162
 20
225.895968
 30
0.0
 10
83.938959
 20
225.538782
 30
0.0
  0
LWPOLYLINE
  5
161
100
AcDbEntity
  8
Layer_1
 62
7
100
AcDbPolyline
 90
17
 70
0
 10
83.353569
 20
223.740442
 30
0.0
 10
83.604715
 20
223.792530
 30
0.0
 10
83.787652
 20
223.948801
 30
0.0
 10
83.901130
 20
224.204287
 30
0.0
 10
83.938959
 20
224.554035
 30
0.0
 10
83.901130
 20
224.903780
 30
0.0
 10
83.787652
 20
225.159269
 30
0.0
 10
83.604715
 20
225.315537
 30
0.0
 10
83.353569
 20
225.367628
 30
0.0
 10
83.103660
 20
225.315537
 30
0.0
 10
82.919485
 20
225.159269
 30
0.0
 10
82.807865
 20
224.903780
 30
0.0
 10
82.770658
 20
224.554035
 30
0.0
 10
82.807865
 20
224.204287
 30
0.0
 10
82.919485
 20
223.948801
 30
0.0
 10
83.103660
 20
223.792530
 30
0.0
 10
83.353569
 20
223.740442
 30
0.0
  0
LWPOLYLINE
  5
162
100
AcDbEntity
  8
Layer_1
 62
7
100
AcDbPolyline
 90
17
 70
0
 10
87.012261
 20
225.377551
 30
0.0
 10
86.751810
 20
225.324219
 30
0.0
 10
86.560815
 20
225.164231
 30
0.0
 10
86.445472
 20
224.906259
 30
0.0
 10
86.407027
 20
224.554035
 30
0.0
 10
86.445472
 20
224.201187
 30
0.0
 10
86.560815
 20
223.941359
 30
0.0
 10
86.751810
 20
223.783229
 30
0.0
 10
87.012261
 20
223.730519
 30
0.0
 10
87.268367
 20
223.783229
 30
0.0
 10
87.456264
 20
223.941359
 30
0.0
 10
87.571603
 20
224.201187
 30
0.0
 10
87.610053
 20
224.554035
 30
0.0
 10
87.571603
 20
224.906259
 30
0.0
 10
87.456264
 20
225.164231
 30
0.0
 10
87.268367
 20
225.324219
 30
0.0
 10
87.012261
 20
225.377551
 30
0.0
  0
LWPOLYLINE
  5
163
100
AcDbEntity
  8
Layer_1
 62
7
100
AcDbPolyline
 90
17
 70
0
 10
87.012261
 20
226.012551
 30
0.0
 10
87.650359
 20
225.915811
 30
0.0
 10
88.130950
 20
225.625596
 30
0.0
 10
88.434186
 20
225.164228
 30
0.0
 10
88.535267
 20
224.554035
 30
0.0
 10
88.434186
 20
223.943838
 30
0.0
 10
88.130950
 20
223.482471
 30
0.0
 10
87.650359
 20
223.192257
 30
0.0
 10
87.012261
 20
223.095519
 30
0.0
 10
86.371058
 20
223.192257
 30
0.0
 10
85.886126
 20
223.482471
 30
0.0
 10
85.582889
 20
223.943838
 30
0.0
 10
85.481812
 20
224.554035
 30
0.0
 10
85.582889
 20
225.164228
 30
0.0
 10
85.886126
 20
225.625596
 30
0.0
 10
86.371058
 20
225.915811
 30
0.0
 10
87.012261
 20
226.012551
 30
0.0
  0
LWPOLYLINE
  5
164
100
AcDbEntity
  8
Layer_1
 62
7
100
AcDbPolyline
 90
24
 70
0
 10
91.975678
 20
224.859131
 30
0.0
 10
91.975678
 20
223.167452
 30
0.0
 10
91.082709
 20
223.167452
 30
0.0
 10
91.082709
 20
223.442785
 30
0.0
 10
91.082709
 20
224.462256
 30
0.0
 10
91.065353
 20
224.958352
 30
0.0
 10
91.010782
 20
225.159269
 30
0.0
 10
90.869395
 20
225.293215
 30
0.0
 10
90.665997
 20
225.342824
 30
0.0
 10
90.417948
 20
225.288872
 30
0.0
 10
90.229433
 20
225.127022
 30
0.0
 10
90.110371
 20
224.872153
 30
0.0
 10
90.070683
 20
224.534192
 30
0.0
 10
90.070683
 20
223.167452
 30
0.0
 10
89.182677
 20
223.167452
 30
0.0
 10
89.182677
 20
225.945577
 30
0.0
 10
90.070683
 20
225.945577
 30
0.0
 10
90.070683
 20
225.538782
 30
0.0
 10
90.497324
 20
225.895968
 30
0.0
 10
90.995898
 20
226.012551
 30
0.0
 10
91.418816
 20
225.938755
 30
0.0
 10
91.725157
 20
225.717375
 30
0.0
 10
91.913049
 20
225.355224
 30
0.0
 10
91.975683
 20
224.859131
 30
0.0
  0
LWPOLYLINE
  5
165
100
AcDbEntity
  8
Layer_1
 62
7
100
AcDbPolyline
 90
24
 70
0
 10
95.577319
 20
224.563958
 30
0.0
 10
95.577319
 20
224.310949
 30
0.0
 10
93.501165
 20
224.310949
 30
0.0
 10
93.573721
 20
224.037477
 30
0.0
 10
93.726889
 20
223.842141
 30
0.0
 10
93.958813
 20
223.724939
 30
0.0
 10
94.267632
 20
223.685872
 30
0.0
 10
94.840620
 20
223.767727
 30
0.0
 10
95.445854
 20
224.020734
 30
0.0
 10
95.445854
 20
223.336125
 30
0.0
 10
94.815815
 20
223.157532
 30
0.0
 10
94.185777
 20
223.095519
 30
0.0
 10
93.515428
 20
223.191017
 30
0.0
 10
93.012514
 20
223.477512
 30
0.0
 10
92.699975
 20
223.938878
 30
0.0
 10
92.595796
 20
224.554035
 30
0.0
 10
92.698114
 20
225.161128
 30
0.0
 10
93.005072
 20
225.623115
 30
0.0
 10
93.493724
 20
225.915190
 30
0.0
 10
94.136165
 20
226.012551
 30
0.0
 10
94.725276
 20
225.913950
 30
0.0
 10
95.182924
 20
225.618157
 30
0.0
 10
95.478718
 20
225.157407
 30
0.0
 10
95.577319
 20
224.563958
 30
0.0
  0
LWPOLYLINE
  5
166
100
AcDbEntity
  8
Layer_1
 62
7
100
AcDbPolyline
 90
9
 70
0
 10
94.664507
 20
224.859131
 30
0.0
 10
94.627298
 20
225.087333
 30
0.0
 10
94.515678
 20
225.265929
 30
0.0
 10
94.346384
 20
225.383129
 30
0.0
 10
94.131206
 20
225.422199
 30
0.0
 10
93.897421
 20
225.385610
 30
0.0
 10
93.712007
 20
225.275852
 30
0.0
 10
93.511088
 20
224.859131
 30
0.0
 10
94.664507
 20
224.859131
 30
0.0
  0
LWPOLYLINE
  5
167
100
AcDbEntity
  8
Layer_1
 62
7
100
AcDbPolyline
 90
10
 70
0
 10
96.611674
 20
224.055461
 30
0.0
 10
96.517415
 20
224.055461
 30
0.0
 10
96.368588
 20
225.159269
 30
0.0
 10
96.281771
 20
226.260596
 30
0.0
 10
96.358665
 20
226.503683
 30
0.0
 10
96.567027
 20
226.605381
 30
0.0
 10
96.777245
 20
226.512982
 30
0.0
 10
96.847319
 20
226.235792
 30
0.0
 10
96.760501
 20
225.144387
 30
0.0
 10
96.611674
 20
224.055461
 30
0.0
  0
LWPOLYLINE
  5
168
100
AcDbEntity
  8
Layer_1
 62
7
100
AcDbPolyline
 90
9
 70
0
 10
96.371069
 20
223.564327
 30
0.0
 10
96.562065
 20
223.646183
 30
0.0
 10
96.753062
 20
223.564327
 30
0.0
 10
96.837396
 20
223.375811
 30
0.0
 10
96.755540
 20
223.177375
 30
0.0
 10
96.562065
 20
223.095519
 30
0.0
 10
96.368588
 20
223.179856
 30
0.0
 10
96.286732
 20
223.375811
 30
0.0
 10
96.371069
 20
223.564327
 30
0.0
  0
LWPOLYLINE
  5
169
100
AcDbEntity
  8
Layer_1
 62
7
100
AcDbPolyline
 90
5
 70
0
 10
16.820162
 20
257.719430
 30
0.0
 10
106.622726
 20
257.719430
 30
0.0
 10
106.622726
 20
219.232619
 30
0.0
 10
16.820162
 20
219.232619
 30
0.0
 10
16.820162
 20
257.719430
 30
0.0
  0
LWPOLYLINE
  5
16a
100
AcDbEntity
  8
Layer_1
 62
7
100
AcDbPolyline
 90
7
 70
0
 10
20.812102
 20
215.953818
 30
0.0
 10
22.934281
 20
215.953818
 30
0.0
 10
22.934281
 20
209.328211
 30
0.0
 10
26.660495
 20
209.328211
 30
0.0
 10
26.660495
 20
207.724173
 30
0.0
 10
20.812102
 20
207.724173
 30
0.0
 10
20.812102
 20
215.953818
 30
0.0
  0
LWPOLYLINE
  5
16b
100
AcDbEntity
  8
Layer_1
 62
7
100
AcDbPolyline
 90
5
 70
0
 10
27.999950
 20
215.953818
 30
0.0
 10
30.122129
 20
215.953818
 30
0.0
 10
30.122129
 20
207.724173
 30
0.0
 10
27.999950
 20
207.724173
 30
0.0
 10
27.999950
 20
215.953818
 30
0.0
  0
LWPOLYLINE
  5
16c
100
AcDbEntity
  8
Layer_1
 62
7
100
AcDbPolyline
 90
12
 70
0
 10
35.507502
 20
212.767795
 30
0.0
 10
35.948470
 20
212.822912
 30
0.0
 10
36.268178
 20
212.988281
 30
0.0
 10
36.462477
 20
213.261128
 30
0.0
 10
36.527249
 20
213.638716
 30
0.0
 10
36.462477
 20
214.012159
 30
0.0
 10
36.268178
 20
214.283636
 30
0.0
 10
35.948470
 20
214.453129
 30
0.0
 10
35.507502
 20
214.509634
 30
0.0
 10
34.333412
 20
214.509634
 30
0.0
 10
34.333412
 20
212.767795
 30
0.0
 10
35.507502
 20
212.767795
 30
0.0
  0
LWPOLYLINE
  5
16d
100
AcDbEntity
  8
Layer_1
 62
7
100
AcDbPolyline
 90
12
 70
0
 10
35.579158
 20
209.168358
 30
0.0
 10
36.138639
 20
209.235882
 30
0.0
 10
36.538273
 20
209.438453
 30
0.0
 10
36.782183
 20
209.777450
 30
0.0
 10
36.863492
 20
210.254253
 30
0.0
 10
36.783561
 20
210.721406
 30
0.0
 10
36.543785
 20
211.053515
 30
0.0
 10
36.142773
 20
211.256084
 30
0.0
 10
35.579158
 20
211.323610
 30
0.0
 10
34.333412
 20
211.323610
 30
0.0
 10
34.333412
 20
209.168358
 30
0.0
 10
35.579158
 20
209.168358
 30
0.0
  0
LWPOLYLINE
  5
16e
100
AcDbEntity
  8
Layer_1
 62
7
100
AcDbPolyline
 90
26
 70
0
 10
37.552509
 20
212.128384
 30
0.0
 10
38.158841
 20
211.845883
 30
0.0
 10
38.610843
 20
211.395269
 30
0.0
 10
38.891957
 20
210.799953
 30
0.0
 10
38.985670
 20
210.083376
 30
0.0
 10
38.935367
 20
209.525958
 30
0.0
 10
38.784470
 20
209.044334
 30
0.0
 10
38.532979
 20
208.638502
 30
0.0
 10
38.180894
 20
208.308463
 30
0.0
 10
37.726139
 20
208.052837
 30
0.0
 10
37.166655
 20
207.870246
 30
0.0
 10
35.733499
 20
207.724173
 30
0.0
 10
32.211234
 20
207.724173
 30
0.0
 10
32.211234
 20
215.953818
 30
0.0
 10
35.397257
 20
215.953818
 30
0.0
 10
36.874511
 20
215.824276
 30
0.0
 10
37.435374
 20
215.662358
 30
0.0
 10
37.877728
 20
215.435675
 30
0.0
 10
38.215343
 20
215.137671
 30
0.0
 10
38.456497
 20
214.761811
 30
0.0
 10
38.601192
 20
214.308093
 30
0.0
 10
38.649428
 20
213.776519
 30
0.0
 10
38.579142
 20
213.219787
 30
0.0
 10
38.368309
 20
212.751256
 30
0.0
 10
38.023794
 20
212.386074
 30
0.0
 10
37.552509
 20
212.128384
 30
0.0
  0
LWPOLYLINE
  5
16f
100
AcDbEntity
  8
Layer_1
 62
7
100
AcDbPolyline
 90
12
 70
0
 10
43.825338
 20
212.304772
 30
0.0
 10
44.397222
 20
212.366782
 30
0.0
 10
44.778942
 20
212.552820
 30
0.0
 10
44.998047
 20
212.880789
 30
0.0
 10
45.071087
 20
213.368618
 30
0.0
 10
44.998047
 20
213.850928
 30
0.0
 10
44.778942
 20
214.173394
 30
0.0
 10
44.397222
 20
214.355289
 30
0.0
 10
43.825338
 20
214.415927
 30
0.0
 10
42.932370
 20
214.415927
 30
0.0
 10
42.932370
 20
212.304772
 30
0.0
 10
43.825338
 20
212.304772
 30
0.0
  0
LWPOLYLINE
  5
170
100
AcDbEntity
  8
Layer_1
 62
7
100
AcDbPolyline
 90
28
 70
0
 10
42.932370
 20
210.838541
 30
0.0
 10
42.932370
 20
207.724173
 30
0.0
 10
40.810192
 20
207.724173
 30
0.0
 10
40.810192
 20
215.953818
 30
0.0
 10
44.051339
 20
215.953818
 30
0.0
 10
45.459689
 20
215.817386
 30
0.0
 10
46.000570
 20
215.646856
 30
0.0
 10
46.432589
 20
215.408116
 30
0.0
 10
46.765381
 20
215.095642
 30
0.0
 10
47.003091
 20
214.703933
 30
0.0
 10
47.145719
 20
214.232990
 30
0.0
 10
47.193265
 20
213.682813
 30
0.0
 10
47.094040
 20
212.940044
 30
0.0
 10
46.796390
 20
212.343358
 30
0.0
 10
46.304425
 20
211.888603
 30
0.0
 10
45.611277
 20
211.571658
 30
0.0
 10
46.023305
 20
211.409046
 30
0.0
 10
46.388492
 20
211.119659
 30
0.0
 10
46.737129
 20
210.681442
 30
0.0
 10
47.088533
 20
210.061326
 30
0.0
 10
48.240575
 20
207.724173
 30
0.0
 10
45.980590
 20
207.724173
 30
0.0
 10
44.977381
 20
209.769184
 30
0.0
 10
44.671452
 20
210.288702
 30
0.0
 10
44.360020
 20
210.612543
 30
0.0
 10
43.998969
 20
210.782039
 30
0.0
 10
43.533196
 20
210.838541
 30
0.0
 10
42.932370
 20
210.838541
 30
0.0
  0
LWPOLYLINE
  5
171
100
AcDbEntity
  8
Layer_1
 62
7
100
AcDbPolyline
 90
9
 70
0
 10
54.491354
 20
209.223479
 30
0.0
 10
51.173039
 20
209.223479
 30
0.0
 10
50.649384
 20
207.724173
 30
0.0
 10
48.516182
 20
207.724173
 30
0.0
 10
51.564402
 20
215.953818
 30
0.0
 10
54.094479
 20
215.953818
 30
0.0
 10
57.142699
 20
207.724173
 30
0.0
 10
55.009497
 20
207.724173
 30
0.0
 10
54.491354
 20
209.223479
 30
0.0
  0
LWPOLYLINE
  5
172
100
AcDbEntity
  8
Layer_1
 62
7
100
AcDbPolyline
 90
4
 70
0
 10
51.702206
 20
210.750346
 30
0.0
 10
53.956676
 20
210.750346
 30
0.0
 10
52.832198
 20
214.024564
 30
0.0
 10
51.702206
 20
210.750346
 30
0.0
  0
LWPOLYLINE
  5
173
100
AcDbEntity
  8
Layer_1
 62
7
100
AcDbPolyline
 90
12
 70
0
 10
61.243741
 20
212.304772
 30
0.0
 10
61.815625
 20
212.366782
 30
0.0
 10
62.197345
 20
212.552820
 30
0.0
 10
62.416450
 20
212.880789
 30
0.0
 10
62.489490
 20
213.368618
 30
0.0
 10
62.416450
 20
213.850928
 30
0.0
 10
62.197345
 20
214.173394
 30
0.0
 10
61.815625
 20
214.355289
 30
0.0
 10
61.243741
 20
214.415927
 30
0.0
 10
60.350773
 20
214.415927
 30
0.0
 10
60.350773
 20
212.304772
 30
0.0
 10
61.243741
 20
212.304772
 30
0.0
  0
LWPOLYLINE
  5
174
100
AcDbEntity
  8
Layer_1
 62
7
100
AcDbPolyline
 90
28
 70
0
 10
60.350773
 20
210.838541
 30
0.0
 10
60.350773
 20
207.724173
 30
0.0
 10
58.228595
 20
207.724173
 30
0.0
 10
58.228595
 20
215.953818
 30
0.0
 10
61.469742
 20
215.953818
 30
0.0
 10
62.878091
 20
215.817386
 30
0.0
 10
63.418973
 20
215.646856
 30
0.0
 10
63.850992
 20
215.408116
 30
0.0
 10
64.183784
 20
215.095642
 30
0.0
 10
64.421494
 20
214.703933
 30
0.0
 10
64.564121
 20
214.232990
 30
0.0
 10
64.611668
 20
213.682813
 30
0.0
 10
64.512443
 20
212.940044
 30
0.0
 10
64.214793
 20
212.343358
 30
0.0
 10
63.722828
 20
211.888603
 30
0.0
 10
63.029680
 20
211.571658
 30
0.0
 10
63.441708
 20
211.409046
 30
0.0
 10
63.806895
 20
211.119659
 30
0.0
 10
64.155532
 20
210.681442
 30
0.0
 10
64.506936
 20
210.061326
 30
0.0
 10
65.658978
 20
207.724173
 30
0.0
 10
63.398993
 20
207.724173
 30
0.0
 10
62.395784
 20
209.769184
 30
0.0
 10
62.089855
 20
210.288702
 30
0.0
 10
61.778422
 20
210.612543
 30
0.0
 10
61.417372
 20
210.782039
 30
0.0
 10
60.951599
 20
210.838541
 30
0.0
 10
60.350773
 20
210.838541
 30
0.0
  0
LWPOLYLINE
  5
175
100
AcDbEntity
  8
Layer_1
 62
7
100
AcDbPolyline
 90
10
 70
0
 10
65.151859
 20
215.953818
 30
0.0
 10
67.472476
 20
215.953818
 30
0.0
 10
69.346606
 20
213.021354
 30
0.0
 10
71.220740
 20
215.953818
 30
0.0
 10
73.546866
 20
215.953818
 30
0.0
 10
70.410452
 20
211.191318
 30
0.0
 10
70.410452
 20
207.724173
 30
0.0
 10
68.288273
 20
207.724173
 30
0.0
 10
68.288273
 20
211.191318
 30
0.0
 10
65.151859
 20
215.953818
 30
0.0
  0
LWPOLYLINE
  5
176
100
AcDbEntity
  8
Layer_1
 62
7
100
AcDbPolyline
 90
7
 70
0
 10
78.403075
 20
215.953818
 30
0.0
 10
80.525254
 20
215.953818
 30
0.0
 10
80.525254
 20
209.328211
 30
0.0
 10
84.251468
 20
209.328211
 30
0.0
 10
84.251468
 20
207.724173
 30
0.0
 10
78.403075
 20
207.724173
 30
0.0
 10
78.403075
 20
215.953818
 30
0.0
  0
LWPOLYLINE
  5
177
100
AcDbEntity
  8
Layer_1
 62
7
100
AcDbPolyline
 90
13
 70
0
 10
85.590922
 20
215.953818
 30
0.0
 10
91.318047
 20
215.953818
 30
0.0
 10
91.318047
 20
214.349783
 30
0.0
 10
87.713101
 20
214.349783
 30
0.0
 10
87.713101
 20
212.817404
 30
0.0
 10
91.103075
 20
212.817404
 30
0.0
 10
91.103075
 20
211.213368
 30
0.0
 10
87.713101
 20
211.213368
 30
0.0
 10
87.713101
 20
209.328211
 30
0.0
 10
91.439315
 20
209.328211
 30
0.0
 10
91.439315
 20
207.724173
 30
0.0
 10
85.590922
 20
207.724173
 30
0.0
 10
85.590922
 20
215.953818
 30
0.0
  0
LWPOLYLINE
  5
178
100
AcDbEntity
  8
Layer_1
 62
7
100
AcDbPolyline
 90
11
 70
0
 10
93.307936
 20
215.953818
 30
0.0
 10
95.678160
 20
215.953818
 30
0.0
 10
98.671259
 20
210.309374
 30
0.0
 10
98.671259
 20
215.953818
 30
0.0
 10
100.683196
 20
215.953818
 30
0.0
 10
100.683196
 20
207.724173
 30
0.0
 10
98.312970
 20
207.724173
 30
0.0
 10
95.319870
 20
213.368618
 30
0.0
 10
95.319870
 20
207.724173
 30
0.0
 10
93.307936
 20
207.724173
 30
0.0
 10
93.307936
 20
215.953818
 30
0.0
  0
LWPOLYLINE
  5
179
100
AcDbEntity
  8
Layer_1
 62
7
100
AcDbPolyline
 90
20
 70
0
 10
104.888968
 20
214.349783
 30
0.0
 10
104.888968
 20
209.328211
 30
0.0
 10
105.649644
 20
209.328211
 30
0.0
 10
106.261490
 20
209.368517
 30
0.0
 10
106.796168
 20
209.489440
 30
0.0
 10
107.253678
 20
209.690978
 30
0.0
 10
107.634019
 20
209.973131
 30
0.0
 10
107.935462
 20
210.332109
 30
0.0
 10
108.150780
 20
210.764124
 30
0.0
 10
108.279972
 20
211.269176
 30
0.0
 10
108.323039
 20
211.847265
 30
0.0
 10
108.280317
 20
212.422593
 30
0.0
 10
108.152158
 20
212.924887
 30
0.0
 10
107.938564
 20
213.354147
 30
0.0
 10
107.639534
 20
213.710372
 30
0.0
 10
107.258846
 20
213.990111
 30
0.0
 10
106.800302
 20
214.189925
 30
0.0
 10
106.263902
 20
214.309815
 30
0.0
 10
105.649644
 20
214.349783
 30
0.0
 10
104.888968
 20
214.349783
 30
0.0
  0
LWPOLYLINE
  5
17a
100
AcDbEntity
  8
Layer_1
 62
7
100
AcDbPolyline
 90
20
 70
0
 10
102.766789
 20
215.953818
 30
0.0
 10
105.004724
 20
215.953818
 30
0.0
 10
106.639073
 20
215.886288
 30
0.0
 10
107.793872
 20
215.683723
 30
0.0
 10
108.648251
 20
215.325428
 30
0.0
 10
109.370349
 20
214.779729
 30
0.0
 10
109.874704
 20
214.180278
 30
0.0
 10
110.230243
 20
213.495397
 30
0.0
 10
110.441077
 20
212.719558
 30
0.0
 10
110.511365
 20
211.847265
 30
0.0
 10
110.441077
 20
210.965318
 30
0.0
 10
110.230243
 20
210.182594
 30
0.0
 10
109.874704
 20
209.497709
 30
0.0
 10
109.370349
 20
208.898263
 30
0.0
 10
108.642738
 20
208.351181
 30
0.0
 10
107.782849
 20
207.988756
 30
0.0
 10
106.625292
 20
207.790319
 30
0.0
 10
105.004724
 20
207.724173
 30
0.0
 10
102.766789
 20
207.724173
 30
0.0
 10
102.766789
 20
215.953818
 30
0.0
  0
LWPOLYLINE
  5
17b
100
AcDbEntity
  8
Layer_1
 62
7
100
AcDbPolyline
 90
5
 70
0
 10
112.137450
 20
215.953818
 30
0.0
 10
114.259629
 20
215.953818
 30
0.0
 10
114.259629
 20
207.724173
 30
0.0
 10
112.137450
 20
207.724173
 30
0.0
 10
112.137450
 20
215.953818
 30
0.0
  0
LWPOLYLINE
  5
17c
100
AcDbEntity
  8
Layer_1
 62
7
100
AcDbPolyline
 90
11
 70
0
 10
116.348734
 20
215.953818
 30
0.0
 10
118.718960
 20
215.953818
 30
0.0
 10
121.712059
 20
210.309374
 30
0.0
 10
121.712059
 20
215.953818
 30
0.0
 10
123.723993
 20
215.953818
 30
0.0
 10
123.723993
 20
207.724173
 30
0.0
 10
121.353770
 20
207.724173
 30
0.0
 10
118.360670
 20
213.368618
 30
0.0
 10
118.360670
 20
207.724173
 30
0.0
 10
116.348734
 20
207.724173
 30
0.0
 10
116.348734
 20
215.953818
 30
0.0
  0
LWPOLYLINE
  5
17d
100
AcDbEntity
  8
Layer_1
 62
7
100
AcDbPolyline
 90
51
 70
0
 10
133.204896
 20
208.336022
 30
0.0
 10
132.395982
 20
207.998403
 30
0.0
 10
131.556763
 20
207.757247
 30
0.0
 10
130.688595
 20
207.612553
 30
0.0
 10
129.792874
 20
207.564322
 30
0.0
 10
128.818255
 20
207.635980
 30
0.0
 10
127.950435
 20
207.850954
 30
0.0
 10
127.189414
 20
208.209244
 30
0.0
 10
126.535192
 20
208.710850
 30
0.0
 10
126.009471
 20
209.337857
 30
0.0
 10
125.633955
 20
210.066838
 30
0.0
 10
125.408646
 20
210.897796
 30
0.0
 10
125.333543
 20
211.830729
 30
0.0
 10
125.410024
 20
212.772615
 30
0.0
 10
125.639468
 20
213.608394
 30
0.0
 10
126.021873
 20
214.338066
 30
0.0
 10
126.557242
 20
214.961632
 30
0.0
 10
127.225588
 20
215.460821
 30
0.0
 10
128.006935
 20
215.817387
 30
0.0
 10
128.901282
 20
216.031329
 30
0.0
 10
129.908631
 20
216.102645
 30
0.0
 10
131.479593
 20
215.948306
 30
0.0
 10
132.901727
 20
215.490799
 30
0.0
 10
132.901727
 20
213.787543
 30
0.0
 10
132.214081
 20
214.129291
 30
0.0
 10
131.529202
 20
214.371830
 30
0.0
 10
130.849825
 20
214.516520
 30
0.0
 10
130.167699
 20
214.564757
 30
0.0
 10
129.569974
 20
214.520311
 30
0.0
 10
129.044596
 20
214.386984
 30
0.0
 10
128.591567
 20
214.164776
 30
0.0
 10
128.210886
 20
213.853687
 30
0.0
 10
127.911851
 20
213.462667
 30
0.0
 10
127.698255
 20
212.995167
 30
0.0
 10
127.570098
 20
212.451188
 30
0.0
 10
127.527381
 20
211.830729
 30
0.0
 10
127.568720
 20
211.214744
 30
0.0
 10
127.692742
 20
210.673175
 30
0.0
 10
127.899448
 20
210.206020
 30
0.0
 10
128.188839
 20
209.813281
 30
0.0
 10
128.554360
 20
209.502188
 30
0.0
 10
128.989475
 20
209.279979
 30
0.0
 10
129.494182
 20
209.146654
 30
0.0
 10
130.068481
 20
209.102213
 30
0.0
 10
130.680331
 20
209.140799
 30
0.0
 10
131.192962
 20
209.273091
 30
0.0
 10
131.192962
 20
210.871614
 30
0.0
 10
129.897604
 20
210.871614
 30
0.0
 10
129.897604
 20
212.293749
 30
0.0
 10
133.204896
 20
212.293749
 30
0.0
 10
133.204896
 20
208.336022
 30
0.0
  0
LWPOLYLINE
  5
17e
100
AcDbEntity
  8
Layer_1
 62
7
100
AcDbPolyline
 90
11
 70
0
 10
24.385086
 20
202.956576
 30
0.0
 10
26.962292
 20
202.956576
 30
0.0
 10
26.962292
 20
202.234759
 30
0.0
 10
25.340066
 20
202.234759
 30
0.0
 10
25.340066
 20
201.545189
 30
0.0
 10
26.865555
 20
201.545189
 30
0.0
 10
26.865555
 20
200.823371
 30
0.0
 10
25.340066
 20
200.823371
 30
0.0
 10
25.340066
 20
199.253236
 30
0.0
 10
24.385086
 20
199.253236
 30
0.0
 10
24.385086
 20
202.956576
 30
0.0
  0
LWPOLYLINE
  5
17f
100
AcDbEntity
  8
Layer_1
 62
7
100
AcDbPolyline
 90
24
 70
0
 10
30.382860
 20
200.649740
 30
0.0
 10
30.382860
 20
200.396733
 30
0.0
 10
28.306706
 20
200.396733
 30
0.0
 10
28.379263
 20
200.123259
 30
0.0
 10
28.532430
 20
199.927923
 30
0.0
 10
28.764351
 20
199.810721
 30
0.0
 10
29.073171
 20
199.771653
 30
0.0
 10
29.646161
 20
199.853509
 30
0.0
 10
30.251395
 20
200.106518
 30
0.0
 10
30.251395
 20
199.421907
 30
0.0
 10
29.621356
 20
199.243314
 30
0.0
 10
28.991315
 20
199.181304
 30
0.0
 10
28.320969
 20
199.276801
 30
0.0
 10
27.818055
 20
199.563294
 30
0.0
 10
27.505515
 20
200.024661
 30
0.0
 10
27.401334
 20
200.639817
 30
0.0
 10
27.503654
 20
201.246911
 30
0.0
 10
27.810613
 20
201.708900
 30
0.0
 10
28.299264
 20
202.000972
 30
0.0
 10
28.941706
 20
202.098333
 30
0.0
 10
29.530817
 20
201.999732
 30
0.0
 10
29.988465
 20
201.703939
 30
0.0
 10
30.284259
 20
201.243190
 30
0.0
 10
30.382860
 20
200.649740
 30
0.0
  0
LWPOLYLINE
  5
180
100
AcDbEntity
  8
Layer_1
 62
7
100
AcDbPolyline
 90
9
 70
0
 10
29.470046
 20
200.944916
 30
0.0
 10
29.432837
 20
201.173118
 30
0.0
 10
29.321219
 20
201.351714
 30
0.0
 10
29.151925
 20
201.468914
 30
0.0
 10
28.936745
 20
201.507983
 30
0.0
 10
28.702960
 20
201.471394
 30
0.0
 10
28.517546
 20
201.361634
 30
0.0
 10
28.316629
 20
200.944916
 30
0.0
 10
29.470046
 20
200.944916
 30
0.0
  0
LWPOLYLINE
  5
181
100
AcDbEntity
  8
Layer_1
 62
7
100
AcDbPolyline
 90
24
 70
0
 10
33.825751
 20
200.649740
 30
0.0
 10
33.825751
 20
200.396733
 30
0.0
 10
31.749597
 20
200.396733
 30
0.0
 10
31.822153
 20
200.123259
 30
0.0
 10
31.975321
 20
199.927923
 30
0.0
 10
32.207242
 20
199.810721
 30
0.0
 10
32.516062
 20
199.771653
 30
0.0
 10
33.089049
 20
199.853509
 30
0.0
 10
33.694286
 20
200.106518
 30
0.0
 10
33.694286
 20
199.421907
 30
0.0
 10
33.064245
 20
199.243314
 30
0.0
 10
32.434206
 20
199.181304
 30
0.0
 10
31.763860
 20
199.276801
 30
0.0
 10
31.260946
 20
199.563294
 30
0.0
 10
30.948405
 20
200.024661
 30
0.0
 10
30.844225
 20
200.639817
 30
0.0
 10
30.946545
 20
201.246911
 30
0.0
 10
31.253504
 20
201.708900
 30
0.0
 10
31.742155
 20
202.000972
 30
0.0
 10
32.384597
 20
202.098333
 30
0.0
 10
32.973708
 20
201.999732
 30
0.0
 10
33.431356
 20
201.703939
 30
0.0
 10
33.727150
 20
201.243190
 30
0.0
 10
33.825751
 20
200.649740
 30
0.0
  0
LWPOLYLINE
  5
182
100
AcDbEntity
  8
Layer_1
 62
7
100
AcDbPolyline
 90
9
 70
0
 10
32.912937
 20
200.944916
 30
0.0
 10
32.875728
 20
201.173118
 30
0.0
 10
32.764110
 20
201.351714
 30
0.0
 10
32.594816
 20
201.468914
 30
0.0
 10
32.379636
 20
201.507983
 30
0.0
 10
32.145851
 20
201.471394
 30
0.0
 10
31.960437
 20
201.361634
 30
0.0
 10
31.759520
 20
200.944916
 30
0.0
 10
32.912937
 20
200.944916
 30
0.0
  0
LWPOLYLINE
  5
183
100
AcDbEntity
  8
Layer_1
 62
7
100
AcDbPolyline
 90
5
 70
0
 10
34.495475
 20
203.112845
 30
0.0
 10
35.383485
 20
203.112845
 30
0.0
 10
35.383485
 20
199.253236
 30
0.0
 10
34.495475
 20
199.253236
 30
0.0
 10
34.495475
 20
203.112845
 30
0.0
  0
LWPOLYLINE
  5
184
100
AcDbEntity
  8
Layer_1
 62
7
100
AcDbPolyline
 90
21
 70
0
 10
39.835924
 20
203.112845
 30
0.0
 10
39.835924
 20
202.529935
 30
0.0
 10
39.344792
 20
202.529935
 30
0.0
 10
39.081863
 20
202.460483
 30
0.0
 10
39.007449
 20
202.224839
 30
0.0
 10
39.007449
 20
202.031361
 30
0.0
 10
39.766472
 20
202.031361
 30
0.0
 10
39.766472
 20
201.396361
 30
0.0
 10
39.007449
 20
201.396361
 30
0.0
 10
39.007449
 20
199.253236
 30
0.0
 10
38.119440
 20
199.253236
 30
0.0
 10
38.119440
 20
201.396361
 30
0.0
 10
37.677917
 20
201.396361
 30
0.0
 10
37.677917
 20
202.031361
 30
0.0
 10
38.119440
 20
202.031361
 30
0.0
 10
38.119440
 20
202.224839
 30
0.0
 10
38.182692
 20
202.619229
 30
0.0
 10
38.372449
 20
202.894564
 30
0.0
 10
38.694909
 20
203.058272
 30
0.0
 10
39.156276
 20
203.112845
 30
0.0
 10
39.835924
 20
203.112845
 30
0.0
  0
LWPOLYLINE
  5
185
100
AcDbEntity
  8
Layer_1
 62
7
100
AcDbPolyline
 90
17
 70
0
 10
42.284148
 20
201.274817
 30
0.0
 10
42.050985
 20
201.354192
 30
0.0
 10
41.820299
 20
201.381483
 30
0.0
 10
41.517061
 20
201.326292
 30
0.0
 10
41.291959
 20
201.160723
 30
0.0
 10
41.154294
 20
200.894691
 30
0.0
 10
41.108405
 20
200.533162
 30
0.0
 10
41.108405
 20
199.253242
 30
0.0
 10
40.220398
 20
199.253242
 30
0.0
 10
40.220398
 20
202.031367
 30
0.0
 10
41.108405
 20
202.031367
 30
0.0
 10
41.108405
 20
201.574960
 30
0.0
 10
41.500321
 20
201.971835
 30
0.0
 10
42.033620
 20
202.098338
 30
0.0
 10
42.130360
 20
202.093371
 30
0.0
 10
42.281667
 20
202.078498
 30
0.0
 10
42.284207
 20
201.274825
 30
0.0
  0
LWPOLYLINE
  5
186
100
AcDbEntity
  8
Layer_1
 62
7
100
AcDbPolyline
 90
24
 70
0
 10
45.503796
 20
200.649740
 30
0.0
 10
45.503796
 20
200.396733
 30
0.0
 10
43.427645
 20
200.396733
 30
0.0
 10
43.500201
 20
200.123259
 30
0.0
 10
43.653366
 20
199.927923
 30
0.0
 10
43.885290
 20
199.810721
 30
0.0
 10
44.194110
 20
199.771653
 30
0.0
 10
44.767097
 20
199.853509
 30
0.0
 10
45.372331
 20
200.106518
 30
0.0
 10
45.372331
 20
199.421907
 30
0.0
 10
44.742292
 20
199.243314
 30
0.0
 10
44.112254
 20
199.181304
 30
0.0
 10
43.441905
 20
199.276801
 30
0.0
 10
42.938991
 20
199.563294
 30
0.0
 10
42.626453
 20
200.024661
 30
0.0
 10
42.522273
 20
200.639817
 30
0.0
 10
42.624593
 20
201.246911
 30
0.0
 10
42.931549
 20
201.708900
 30
0.0
 10
43.420202
 20
202.000972
 30
0.0
 10
44.062645
 20
202.098333
 30
0.0
 10
44.651753
 20
201.999732
 30
0.0
 10
45.109401
 20
201.703939
 30
0.0
 10
45.405195
 20
201.243190
 30
0.0
 10
45.503796
 20
200.649740
 30
0.0
  0
LWPOLYLINE
  5
187
100
AcDbEntity
  8
Layer_1
 62
7
100
AcDbPolyline
 90
9
 70
0
 10
44.590985
 20
200.944916
 30
0.0
 10
44.553775
 20
201.173118
 30
0.0
 10
44.442155
 20
201.351714
 30
0.0
 10
44.272862
 20
201.468914
 30
0.0
 10
44.057683
 20
201.507983
 30
0.0
 10
43.823898
 20
201.471394
 30
0.0
 10
43.638485
 20
201.361634
 30
0.0
 10
43.437565
 20
200.944916
 30
0.0
 10
44.590985
 20
200.944916
 30
0.0
  0
LWPOLYLINE
  5
188
100
AcDbEntity
  8
Layer_1
 62
7
100
AcDbPolyline
 90
24
 70
0
 10
48.946687
 20
200.649740
 30
0.0
 10
48.946687
 20
200.396733
 30
0.0
 10
46.870536
 20
200.396733
 30
0.0
 10
46.943092
 20
200.123259
 30
0.0
 10
47.096257
 20
199.927923
 30
0.0
 10
47.328181
 20
199.810721
 30
0.0
 10
47.637001
 20
199.771653
 30
0.0
 10
48.209988
 20
199.853509
 30
0.0
 10
48.815222
 20
200.106518
 30
0.0
 10
48.815222
 20
199.421907
 30
0.0
 10
48.185183
 20
199.243314
 30
0.0
 10
47.555145
 20
199.181304
 30
0.0
 10
46.884796
 20
199.276801
 30
0.0
 10
46.381882
 20
199.563294
 30
0.0
 10
46.069343
 20
200.024661
 30
0.0
 10
45.965164
 20
200.639817
 30
0.0
 10
46.067484
 20
201.246911
 30
0.0
 10
46.374440
 20
201.708900
 30
0.0
 10
46.863093
 20
202.000972
 30
0.0
 10
47.505536
 20
202.098333
 30
0.0
 10
48.094644
 20
201.999732
 30
0.0
 10
48.552292
 20
201.703939
 30
0.0
 10
48.848086
 20
201.243190
 30
0.0
 10
48.946687
 20
200.649740
 30
0.0
  0
LWPOLYLINE
  5
189
100
AcDbEntity
  8
Layer_1
 62
7
100
AcDbPolyline
 90
9
 70
0
 10
48.033876
 20
200.944916
 30
0.0
 10
47.996666
 20
201.173118
 30
0.0
 10
47.885046
 20
201.351714
 30
0.0
 10
47.715753
 20
201.468914
 30
0.0
 10
47.500574
 20
201.507983
 30
0.0
 10
47.266789
 20
201.471394
 30
0.0
 10
47.081376
 20
201.361634
 30
0.0
 10
46.880456
 20
200.944916
 30
0.0
 10
48.033876
 20
200.944916
 30
0.0
  0
LWPOLYLINE
  5
18a
100
AcDbEntity
  8
Layer_1
 62
7
100
AcDbPolyline
 90
21
 70
0
 10
52.352370
 20
202.820150
 30
0.0
 10
52.352370
 20
202.031361
 30
0.0
 10
53.267664
 20
202.031361
 30
0.0
 10
53.267664
 20
201.396361
 30
0.0
 10
52.352370
 20
201.396361
 30
0.0
 10
52.352370
 20
200.218137
 30
0.0
 10
52.429267
 20
199.955208
 30
0.0
 10
52.734363
 20
199.888236
 30
0.0
 10
53.190770
 20
199.888236
 30
0.0
 10
53.190770
 20
199.253236
 30
0.0
 10
52.429267
 20
199.253236
 30
0.0
 10
51.979680
 20
199.307807
 30
0.0
 10
51.682645
 20
199.471518
 30
0.0
 10
51.518933
 20
199.768553
 30
0.0
 10
51.464363
 20
200.218137
 30
0.0
 10
51.464363
 20
201.396361
 30
0.0
 10
51.022840
 20
201.396361
 30
0.0
 10
51.022840
 20
202.031361
 30
0.0
 10
51.464363
 20
202.031361
 30
0.0
 10
51.464363
 20
202.820150
 30
0.0
 10
52.352370
 20
202.820150
 30
0.0
  0
LWPOLYLINE
  5
18b
100
AcDbEntity
  8
Layer_1
 62
7
100
AcDbPolyline
 90
17
 70
0
 10
55.135456
 20
201.463333
 30
0.0
 10
54.875006
 20
201.410002
 30
0.0
 10
54.684011
 20
201.250012
 30
0.0
 10
54.568669
 20
200.992043
 30
0.0
 10
54.530222
 20
200.639817
 30
0.0
 10
54.568669
 20
200.286971
 30
0.0
 10
54.684011
 20
200.027143
 30
0.0
 10
54.875006
 20
199.869012
 30
0.0
 10
55.135456
 20
199.816304
 30
0.0
 10
55.391564
 20
199.869012
 30
0.0
 10
55.579459
 20
200.027143
 30
0.0
 10
55.694801
 20
200.286971
 30
0.0
 10
55.733251
 20
200.639817
 30
0.0
 10
55.694801
 20
200.992043
 30
0.0
 10
55.579459
 20
201.250012
 30
0.0
 10
55.391564
 20
201.410002
 30
0.0
 10
55.135456
 20
201.463333
 30
0.0
  0
LWPOLYLINE
  5
18c
100
AcDbEntity
  8
Layer_1
 62
7
100
AcDbPolyline
 90
17
 70
0
 10
55.135456
 20
202.098333
 30
0.0
 10
55.773555
 20
202.001593
 30
0.0
 10
56.254148
 20
201.711381
 30
0.0
 10
56.557384
 20
201.250012
 30
0.0
 10
56.658465
 20
200.639817
 30
0.0
 10
56.557384
 20
200.029622
 30
0.0
 10
56.254148
 20
199.568256
 30
0.0
 10
55.773555
 20
199.278042
 30
0.0
 10
55.135456
 20
199.181304
 30
0.0
 10
54.494255
 20
199.278042
 30
0.0
 10
54.009324
 20
199.568256
 30
0.0
 10
53.706087
 20
200.029622
 30
0.0
 10
53.605007
 20
200.639817
 30
0.0
 10
53.706087
 20
201.250012
 30
0.0
 10
54.009324
 20
201.711381
 30
0.0
 10
54.494255
 20
202.001593
 30
0.0
 10
55.135456
 20
202.098333
 30
0.0
  0
LWPOLYLINE
  5
18d
100
AcDbEntity
  8
Layer_1
 62
7
100
AcDbPolyline
 90
21
 70
0
 10
60.041824
 20
202.820150
 30
0.0
 10
60.041824
 20
202.031361
 30
0.0
 10
60.957116
 20
202.031361
 30
0.0
 10
60.957116
 20
201.396361
 30
0.0
 10
60.041824
 20
201.396361
 30
0.0
 10
60.041824
 20
200.218137
 30
0.0
 10
60.118719
 20
199.955208
 30
0.0
 10
60.423815
 20
199.888236
 30
0.0
 10
60.880222
 20
199.888236
 30
0.0
 10
60.880222
 20
199.253236
 30
0.0
 10
60.118719
 20
199.253236
 30
0.0
 10
59.669133
 20
199.307807
 30
0.0
 10
59.372097
 20
199.471518
 30
0.0
 10
59.208385
 20
199.768553
 30
0.0
 10
59.153815
 20
200.218137
 30
0.0
 10
59.153815
 20
201.396361
 30
0.0
 10
58.712292
 20
201.396361
 30
0.0
 10
58.712292
 20
202.031361
 30
0.0
 10
59.153815
 20
202.031361
 30
0.0
 10
59.153815
 20
202.820150
 30
0.0
 10
60.041824
 20
202.820150
 30
0.0
  0
LWPOLYLINE
  5
18e
100
AcDbEntity
  8
Layer_1
 62
7
100
AcDbPolyline
 90
11
 70
0
 10
62.748017
 20
200.503393
 30
0.0
 10
62.328815
 20
200.409134
 30
0.0
 10
62.189911
 20
200.131323
 30
0.0
 10
62.301530
 20
199.865913
 30
0.0
 10
62.616549
 20
199.771653
 30
0.0
 10
62.847233
 20
199.816302
 30
0.0
 10
63.038231
 20
199.950246
 30
0.0
 10
63.166593
 20
200.153646
 30
0.0
 10
63.209382
 20
200.401692
 30
0.0
 10
63.209382
 20
200.503393
 30
0.0
 10
62.748017
 20
200.503393
 30
0.0
  0
LWPOLYLINE
  5
18f
100
AcDbEntity
  8
Layer_1
 62
7
100
AcDbPolyline
 90
28
 70
0
 10
64.104831
 20
200.838256
 30
0.0
 10
64.104831
 20
199.253236
 30
0.0
 10
63.209382
 20
199.253236
 30
0.0
 10
63.209382
 20
199.664993
 30
0.0
 10
62.807546
 20
199.295403
 30
0.0
 10
62.264324
 20
199.181304
 30
0.0
 10
61.873029
 20
199.243934
 30
0.0
 10
61.562350
 20
199.431829
 30
0.0
 10
61.361432
 20
199.722044
 30
0.0
 10
61.294459
 20
200.086673
 30
0.0
 10
61.378176
 20
200.510212
 30
0.0
 10
61.629324
 20
200.803528
 30
0.0
 10
62.062165
 20
200.974680
 30
0.0
 10
62.686004
 20
201.031733
 30
0.0
 10
63.209382
 20
201.031733
 30
0.0
 10
63.209382
 20
201.101185
 30
0.0
 10
63.167832
 20
201.283498
 30
0.0
 10
63.043190
 20
201.408762
 30
0.0
 10
62.524773
 20
201.507983
 30
0.0
 10
61.993953
 20
201.450932
 30
0.0
 10
61.537546
 20
201.279778
 30
0.0
 10
61.537546
 20
201.956948
 30
0.0
 10
62.110536
 20
202.061127
 30
0.0
 10
62.686004
 20
202.098333
 30
0.0
 10
63.332784
 20
202.023917
 30
0.0
 10
63.769969
 20
201.800679
 30
0.0
 10
64.021113
 20
201.412482
 30
0.0
 10
64.104831
 20
200.838256
 30
0.0
  0
LWPOLYLINE
  5
190
100
AcDbEntity
  8
Layer_1
 62
7
100
AcDbPolyline
 90
12
 70
0
 10
64.935789
 20
203.112845
 30
0.0
 10
65.823796
 20
203.112845
 30
0.0
 10
65.823796
 20
201.011887
 30
0.0
 10
66.845751
 20
202.031361
 30
0.0
 10
67.877626
 20
202.031361
 30
0.0
 10
66.520808
 20
200.756400
 30
0.0
 10
67.984286
 20
199.253236
 30
0.0
 10
66.907761
 20
199.253236
 30
0.0
 10
65.823796
 20
200.411615
 30
0.0
 10
65.823796
 20
199.253236
 30
0.0
 10
64.935789
 20
199.253236
 30
0.0
 10
64.935789
 20
203.112845
 30
0.0
  0
LWPOLYLINE
  5
191
100
AcDbEntity
  8
Layer_1
 62
7
100
AcDbPolyline
 90
24
 70
0
 10
70.953405
 20
200.649740
 30
0.0
 10
70.953405
 20
200.396733
 30
0.0
 10
68.877254
 20
200.396733
 30
0.0
 10
68.949810
 20
200.123259
 30
0.0
 10
69.102975
 20
199.927923
 30
0.0
 10
69.334899
 20
199.810721
 30
0.0
 10
69.643719
 20
199.771653
 30
0.0
 10
70.216706
 20
199.853509
 30
0.0
 10
70.821940
 20
200.106518
 30
0.0
 10
70.821940
 20
199.421907
 30
0.0
 10
70.191901
 20
199.243314
 30
0.0
 10
69.561863
 20
199.181304
 30
0.0
 10
68.891515
 20
199.276801
 30
0.0
 10
68.388600
 20
199.563294
 30
0.0
 10
68.076062
 20
200.024661
 30
0.0
 10
67.971882
 20
200.639817
 30
0.0
 10
68.074202
 20
201.246911
 30
0.0
 10
68.381161
 20
201.708900
 30
0.0
 10
68.869812
 20
202.000972
 30
0.0
 10
69.512254
 20
202.098333
 30
0.0
 10
70.101363
 20
201.999732
 30
0.0
 10
70.559011
 20
201.703939
 30
0.0
 10
70.854804
 20
201.243190
 30
0.0
 10
70.953405
 20
200.649740
 30
0.0
  0
LWPOLYLINE
  5
192
100
AcDbEntity
  8
Layer_1
 62
7
100
AcDbPolyline
 90
9
 70
0
 10
70.040594
 20
200.944916
 30
0.0
 10
70.003385
 20
201.173118
 30
0.0
 10
69.891767
 20
201.351714
 30
0.0
 10
69.722471
 20
201.468914
 30
0.0
 10
69.507292
 20
201.507983
 30
0.0
 10
69.273507
 20
201.471394
 30
0.0
 10
69.088094
 20
201.361634
 30
0.0
 10
68.887174
 20
200.944916
 30
0.0
 10
70.040594
 20
200.944916
 30
0.0
  0
LWPOLYLINE
  5
193
100
AcDbEntity
  8
Layer_1
 62
7
100
AcDbPolyline
 90
21
 70
0
 10
74.359090
 20
202.820150
 30
0.0
 10
74.359090
 20
202.031361
 30
0.0
 10
75.274382
 20
202.031361
 30
0.0
 10
75.274382
 20
201.396361
 30
0.0
 10
74.359090
 20
201.396361
 30
0.0
 10
74.359090
 20
200.218137
 30
0.0
 10
74.435985
 20
199.955208
 30
0.0
 10
74.741081
 20
199.888236
 30
0.0
 10
75.197488
 20
199.888236
 30
0.0
 10
75.197488
 20
199.253236
 30
0.0
 10
74.435985
 20
199.253236
 30
0.0
 10
73.986399
 20
199.307807
 30
0.0
 10
73.689363
 20
199.471518
 30
0.0
 10
73.525651
 20
199.768553
 30
0.0
 10
73.471081
 20
200.218137
 30
0.0
 10
73.471081
 20
201.396361
 30
0.0
 10
73.029558
 20
201.396361
 30
0.0
 10
73.029558
 20
202.031361
 30
0.0
 10
73.471081
 20
202.031361
 30
0.0
 10
73.471081
 20
202.820150
 30
0.0
 10
74.359090
 20
202.820150
 30
0.0
  0
LWPOLYLINE
  5
194
100
AcDbEntity
  8
Layer_1
 62
7
100
AcDbPolyline
 90
24
 70
0
 10
78.613094
 20
200.944916
 30
0.0
 10
78.613094
 20
199.253236
 30
0.0
 10
77.720126
 20
199.253236
 30
0.0
 10
77.720126
 20
199.528567
 30
0.0
 10
77.720126
 20
200.543079
 30
0.0
 10
77.702769
 20
201.044134
 30
0.0
 10
77.648198
 20
201.245054
 30
0.0
 10
77.506814
 20
201.378996
 30
0.0
 10
77.303413
 20
201.428608
 30
0.0
 10
77.055366
 20
201.374656
 30
0.0
 10
76.866852
 20
201.212807
 30
0.0
 10
76.747788
 20
200.957936
 30
0.0
 10
76.708102
 20
200.619974
 30
0.0
 10
76.708102
 20
199.253236
 30
0.0
 10
75.820093
 20
199.253236
 30
0.0
 10
75.820093
 20
203.112845
 30
0.0
 10
76.708102
 20
203.112845
 30
0.0
 10
76.708102
 20
201.624564
 30
0.0
 10
77.134743
 20
201.981752
 30
0.0
 10
77.633317
 20
202.098333
 30
0.0
 10
78.056235
 20
202.024537
 30
0.0
 10
78.362573
 20
201.803157
 30
0.0
 10
78.550468
 20
201.441008
 30
0.0
 10
78.613102
 20
200.944916
 30
0.0
  0
LWPOLYLINE
  5
195
100
AcDbEntity
  8
Layer_1
 62
7
100
AcDbPolyline
 90
24
 70
0
 10
82.214735
 20
200.649740
 30
0.0
 10
82.214735
 20
200.396733
 30
0.0
 10
80.138581
 20
200.396733
 30
0.0
 10
80.211138
 20
200.123259
 30
0.0
 10
80.364305
 20
199.927923
 30
0.0
 10
80.596226
 20
199.810721
 30
0.0
 10
80.905046
 20
199.771653
 30
0.0
 10
81.478036
 20
199.853509
 30
0.0
 10
82.083270
 20
200.106518
 30
0.0
 10
82.083270
 20
199.421907
 30
0.0
 10
81.453231
 20
199.243314
 30
0.0
 10
80.823190
 20
199.181304
 30
0.0
 10
80.152844
 20
199.276801
 30
0.0
 10
79.649930
 20
199.563294
 30
0.0
 10
79.337390
 20
200.024661
 30
0.0
 10
79.233209
 20
200.639817
 30
0.0
 10
79.335529
 20
201.246911
 30
0.0
 10
79.642488
 20
201.708900
 30
0.0
 10
80.131139
 20
202.000972
 30
0.0
 10
80.773581
 20
202.098333
 30
0.0
 10
81.362692
 20
201.999732
 30
0.0
 10
81.820340
 20
201.703939
 30
0.0
 10
82.116134
 20
201.243190
 30
0.0
 10
82.214735
 20
200.649740
 30
0.0
  0
LWPOLYLINE
  5
196
100
AcDbEntity
  8
Layer_1
 62
7
100
AcDbPolyline
 90
9
 70
0
 10
81.301921
 20
200.944916
 30
0.0
 10
81.264712
 20
201.173118
 30
0.0
 10
81.153094
 20
201.351714
 30
0.0
 10
80.983800
 20
201.468914
 30
0.0
 10
80.768620
 20
201.507983
 30
0.0
 10
80.534835
 20
201.471394
 30
0.0
 10
80.349421
 20
201.361634
 30
0.0
 10
80.148504
 20
200.944916
 30
0.0
 10
81.301921
 20
200.944916
 30
0.0
  0
LWPOLYLINE
  5
197
100
AcDbEntity
  8
Layer_1
 62
7
100
AcDbPolyline
 90
37
 70
0
 10
85.054870
 20
201.944544
 30
0.0
 10
85.054870
 20
201.269858
 30
0.0
 10
84.504206
 20
201.448451
 30
0.0
 10
84.003151
 20
201.507983
 30
0.0
 10
83.626120
 20
201.443490
 30
0.0
 10
83.504578
 20
201.250012
 30
0.0
 10
83.596356
 20
201.086304
 30
0.0
 10
83.931219
 20
201.001967
 30
0.0
 10
84.087488
 20
200.979643
 30
0.0
 10
84.657993
 20
200.864919
 30
0.0
 10
85.005261
 20
200.694387
 30
0.0
 10
85.181992
 20
200.439519
 30
0.0
 10
85.240905
 20
200.071791
 30
0.0
 10
85.159048
 20
199.682977
 30
0.0
 10
84.913485
 20
199.404544
 30
0.0
 10
84.505446
 20
199.237114
 30
0.0
 10
83.936180
 20
199.181304
 30
0.0
 10
83.365671
 20
199.225951
 30
0.0
 10
82.762917
 20
199.354935
 30
0.0
 10
82.762917
 20
200.029621
 30
0.0
 10
83.306142
 20
199.836147
 30
0.0
 10
83.874167
 20
199.771653
 30
0.0
 10
84.266081
 20
199.843589
 30
0.0
 10
84.397546
 20
200.056907
 30
0.0
 10
84.305770
 20
200.233022
 30
0.0
 10
83.946100
 20
200.324798
 30
0.0
 10
83.789831
 20
200.344638
 30
0.0
 10
83.285676
 20
200.450676
 30
0.0
 10
82.958876
 20
200.619968
 30
0.0
 10
82.780282
 20
200.872976
 30
0.0
 10
82.720751
 20
201.230164
 30
0.0
 10
82.796405
 20
201.614635
 30
0.0
 10
83.023366
 20
201.885007
 30
0.0
 10
83.406599
 20
202.044995
 30
0.0
 10
83.951062
 20
202.098327
 30
0.0
 10
84.467001
 20
202.061122
 30
0.0
 10
85.054870
 20
201.944539
 30
0.0
  0
LWPOLYLINE
  5
198
100
AcDbEntity
  8
Layer_1
 62
7
100
AcDbPolyline
 90
24
 70
0
 10
88.683796
 20
200.649740
 30
0.0
 10
88.683796
 20
200.396733
 30
0.0
 10
86.607645
 20
200.396733
 30
0.0
 10
86.680201
 20
200.123259
 30
0.0
 10
86.833366
 20
199.927923
 30
0.0
 10
87.065290
 20
199.810721
 30
0.0
 10
87.374110
 20
199.771653
 30
0.0
 10
87.947097
 20
199.853509
 30
0.0
 10
88.552331
 20
200.106518
 30
0.0
 10
88.552331
 20
199.421907
 30
0.0
 10
87.922292
 20
199.243314
 30
0.0
 10
87.292254
 20
199.181304
 30
0.0
 10
86.621905
 20
199.276801
 30
0.0
 10
86.118991
 20
199.563294
 30
0.0
 10
85.806453
 20
200.024661
 30
0.0
 10
85.702273
 20
200.639817
 30
0.0
 10
85.804593
 20
201.246911
 30
0.0
 10
86.111549
 20
201.708900
 30
0.0
 10
86.600202
 20
202.000972
 30
0.0
 10
87.242645
 20
202.098333
 30
0.0
 10
87.831753
 20
201.999732
 30
0.0
 10
88.289401
 20
201.703939
 30
0.0
 10
88.585195
 20
201.243190
 30
0.0
 10
88.683796
 20
200.649740
 30
0.0
  0
LWPOLYLINE
  5
199
100
AcDbEntity
  8
Layer_1
 62
7
100
AcDbPolyline
 90
9
 70
0
 10
87.770985
 20
200.944916
 30
0.0
 10
87.733775
 20
201.173118
 30
0.0
 10
87.622155
 20
201.351714
 30
0.0
 10
87.452862
 20
201.468914
 30
0.0
 10
87.237683
 20
201.507983
 30
0.0
 10
87.003898
 20
201.471394
 30
0.0
 10
86.818485
 20
201.361634
 30
0.0
 10
86.617565
 20
200.944916
 30
0.0
 10
87.770985
 20
200.944916
 30
0.0
  0
LWPOLYLINE
  5
19a
100
AcDbEntity
  8
Layer_1
 62
7
100
AcDbPolyline
 90
17
 70
0
 10
92.597975
 20
199.826224
 30
0.0
 10
92.849122
 20
199.878313
 30
0.0
 10
93.032058
 20
200.034583
 30
0.0
 10
93.145537
 20
200.290071
 30
0.0
 10
93.183366
 20
200.639817
 30
0.0
 10
93.145537
 20
200.989563
 30
0.0
 10
93.032058
 20
201.245054
 30
0.0
 10
92.849122
 20
201.401321
 30
0.0
 10
92.597975
 20
201.453413
 30
0.0
 10
92.345587
 20
201.400701
 30
0.0
 10
92.158933
 20
201.242573
 30
0.0
 10
92.045450
 20
200.987702
 30
0.0
 10
92.007626
 20
200.639817
 30
0.0
 10
92.045450
 20
200.291312
 30
0.0
 10
92.158933
 20
200.034583
 30
0.0
 10
92.345587
 20
199.878313
 30
0.0
 10
92.597975
 20
199.826224
 30
0.0
  0
LWPOLYLINE
  5
19b
100
AcDbEntity
  8
Layer_1
 62
7
100
AcDbPolyline
 90
18
 70
0
 10
92.007626
 20
201.624564
 30
0.0
 10
92.414421
 20
201.981752
 30
0.0
 10
92.927879
 20
202.098333
 30
0.0
 10
93.395445
 20
201.996011
 30
0.0
 10
93.771238
 20
201.689057
 30
0.0
 10
94.018663
 20
201.223347
 30
0.0
 10
94.101142
 20
200.639817
 30
0.0
 10
94.018663
 20
200.055667
 30
0.0
 10
93.771238
 20
199.588099
 30
0.0
 10
93.395445
 20
199.283002
 30
0.0
 10
92.927879
 20
199.181304
 30
0.0
 10
92.414421
 20
199.295403
 30
0.0
 10
92.007626
 20
199.655073
 30
0.0
 10
92.007626
 20
199.253236
 30
0.0
 10
91.119616
 20
199.253236
 30
0.0
 10
91.119616
 20
203.112845
 30
0.0
 10
92.007626
 20
203.112845
 30
0.0
 10
92.007626
 20
201.624564
 30
0.0
  0
LWPOLYLINE
  5
19c
100
AcDbEntity
  8
Layer_1
 62
7
100
AcDbPolyline
 90
17
 70
0
 10
96.083036
 20
201.463333
 30
0.0
 10
95.822584
 20
201.410002
 30
0.0
 10
95.631590
 20
201.250012
 30
0.0
 10
95.516247
 20
200.992043
 30
0.0
 10
95.477799
 20
200.639817
 30
0.0
 10
95.516247
 20
200.286971
 30
0.0
 10
95.631590
 20
200.027143
 30
0.0
 10
95.822584
 20
199.869012
 30
0.0
 10
96.083036
 20
199.816304
 30
0.0
 10
96.339142
 20
199.869012
 30
0.0
 10
96.527039
 20
200.027143
 30
0.0
 10
96.642378
 20
200.286971
 30
0.0
 10
96.680828
 20
200.639817
 30
0.0
 10
96.642378
 20
200.992043
 30
0.0
 10
96.527039
 20
201.250012
 30
0.0
 10
96.339142
 20
201.410002
 30
0.0
 10
96.083036
 20
201.463333
 30
0.0
  0
LWPOLYLINE
  5
19d
100
AcDbEntity
  8
Layer_1
 62
7
100
AcDbPolyline
 90
17
 70
0
 10
96.083036
 20
202.098333
 30
0.0
 10
96.721134
 20
202.001593
 30
0.0
 10
97.201725
 20
201.711381
 30
0.0
 10
97.504961
 20
201.250012
 30
0.0
 10
97.606042
 20
200.639817
 30
0.0
 10
97.504961
 20
200.029622
 30
0.0
 10
97.201725
 20
199.568256
 30
0.0
 10
96.721134
 20
199.278042
 30
0.0
 10
96.083036
 20
199.181304
 30
0.0
 10
95.441833
 20
199.278042
 30
0.0
 10
94.956901
 20
199.568256
 30
0.0
 10
94.653664
 20
200.029622
 30
0.0
 10
94.552584
 20
200.639817
 30
0.0
 10
94.653664
 20
201.250012
 30
0.0
 10
94.956901
 20
201.711381
 30
0.0
 10
95.441833
 20
202.001593
 30
0.0
 10
96.083036
 20
202.098333
 30
0.0
  0
LWPOLYLINE
  5
19e
100
AcDbEntity
  8
Layer_1
 62
7
100
AcDbPolyline
 90
17
 70
0
 10
99.575536
 20
201.463333
 30
0.0
 10
99.315084
 20
201.410002
 30
0.0
 10
99.124090
 20
201.250012
 30
0.0
 10
99.008747
 20
200.992043
 30
0.0
 10
98.970299
 20
200.639817
 30
0.0
 10
99.008747
 20
200.286971
 30
0.0
 10
99.124090
 20
200.027143
 30
0.0
 10
99.315084
 20
199.869012
 30
0.0
 10
99.575536
 20
199.816304
 30
0.0
 10
99.831642
 20
199.869012
 30
0.0
 10
100.019539
 20
200.027143
 30
0.0
 10
100.134878
 20
200.286971
 30
0.0
 10
100.173328
 20
200.639817
 30
0.0
 10
100.134878
 20
200.992043
 30
0.0
 10
100.019539
 20
201.250012
 30
0.0
 10
99.831642
 20
201.410002
 30
0.0
 10
99.575536
 20
201.463333
 30
0.0
  0
LWPOLYLINE
  5
19f
100
AcDbEntity
  8
Layer_1
 62
7
100
AcDbPolyline
 90
17
 70
0
 10
99.575536
 20
202.098333
 30
0.0
 10
100.213634
 20
202.001593
 30
0.0
 10
100.694225
 20
201.711381
 30
0.0
 10
100.997461
 20
201.250012
 30
0.0
 10
101.098542
 20
200.639817
 30
0.0
 10
100.997461
 20
200.029622
 30
0.0
 10
100.694225
 20
199.568256
 30
0.0
 10
100.213634
 20
199.278042
 30
0.0
 10
99.575536
 20
199.181304
 30
0.0
 10
98.934333
 20
199.278042
 30
0.0
 10
98.449401
 20
199.568256
 30
0.0
 10
98.146164
 20
200.029622
 30
0.0
 10
98.045084
 20
200.639817
 30
0.0
 10
98.146164
 20
201.250012
 30
0.0
 10
98.449401
 20
201.711381
 30
0.0
 10
98.934333
 20
202.001593
 30
0.0
 10
99.575536
 20
202.098333
 30
0.0
  0
LWPOLYLINE
  5
1a0
100
AcDbEntity
  8
Layer_1
 62
7
100
AcDbPolyline
 90
12
 70
0
 10
101.745946
 20
203.112845
 30
0.0
 10
102.633953
 20
203.112845
 30
0.0
 10
102.633953
 20
201.011887
 30
0.0
 10
103.655905
 20
202.031361
 30
0.0
 10
104.687780
 20
202.031361
 30
0.0
 10
103.330965
 20
200.756400
 30
0.0
 10
104.794440
 20
199.253236
 30
0.0
 10
103.717917
 20
199.253236
 30
0.0
 10
102.633953
 20
200.411615
 30
0.0
 10
102.633953
 20
199.253236
 30
0.0
 10
101.745946
 20
199.253236
 30
0.0
 10
101.745946
 20
203.112845
 30
0.0
  0
LWPOLYLINE
  5
1a1
100
AcDbEntity
  8
Layer_1
 62
7
100
AcDbPolyline
 90
37
 70
0
 10
107.299715
 20
201.944544
 30
0.0
 10
107.299715
 20
201.269858
 30
0.0
 10
106.749049
 20
201.448451
 30
0.0
 10
106.247995
 20
201.507983
 30
0.0
 10
105.870965
 20
201.443490
 30
0.0
 10
105.749421
 20
201.250012
 30
0.0
 10
105.841199
 20
201.086304
 30
0.0
 10
106.176062
 20
201.001967
 30
0.0
 10
106.332331
 20
200.979643
 30
0.0
 10
106.902838
 20
200.864919
 30
0.0
 10
107.250106
 20
200.694387
 30
0.0
 10
107.426837
 20
200.439519
 30
0.0
 10
107.485751
 20
200.071791
 30
0.0
 10
107.403893
 20
199.682977
 30
0.0
 10
107.158328
 20
199.404544
 30
0.0
 10
106.750289
 20
199.237114
 30
0.0
 10
106.181023
 20
199.181304
 30
0.0
 10
105.610517
 20
199.225951
 30
0.0
 10
105.007761
 20
199.354935
 30
0.0
 10
105.007761
 20
200.029621
 30
0.0
 10
105.550985
 20
199.836147
 30
0.0
 10
106.119011
 20
199.771653
 30
0.0
 10
106.510924
 20
199.843589
 30
0.0
 10
106.642392
 20
200.056907
 30
0.0
 10
106.550613
 20
200.233022
 30
0.0
 10
106.190946
 20
200.324798
 30
0.0
 10
106.034674
 20
200.344638
 30
0.0
 10
105.530520
 20
200.450676
 30
0.0
 10
105.203719
 20
200.619968
 30
0.0
 10
105.025125
 20
200.872976
 30
0.0
 10
104.965594
 20
201.230164
 30
0.0
 10
105.041248
 20
201.614635
 30
0.0
 10
105.268209
 20
201.885007
 30
0.0
 10
105.651443
 20
202.044995
 30
0.0
 10
106.195905
 20
202.098327
 30
0.0
 10
106.711844
 20
202.061122
 30
0.0
 10
107.299715
 20
201.944539
 30
0.0
  0
LWPOLYLINE
  5
1a2
100
AcDbEntity
  8
Layer_1
 62
7
100
AcDbPolyline
 90
24
 70
0
 10
112.714578
 20
200.944916
 30
0.0
 10
112.714578
 20
199.253236
 30
0.0
 10
111.821610
 20
199.253236
 30
0.0
 10
111.821610
 20
199.528567
 30
0.0
 10
111.821610
 20
200.543079
 30
0.0
 10
111.804253
 20
201.044134
 30
0.0
 10
111.749683
 20
201.245054
 30
0.0
 10
111.608298
 20
201.378996
 30
0.0
 10
111.404900
 20
201.428608
 30
0.0
 10
111.156850
 20
201.374656
 30
0.0
 10
110.968336
 20
201.212807
 30
0.0
 10
110.849274
 20
200.957936
 30
0.0
 10
110.809586
 20
200.619974
 30
0.0
 10
110.809586
 20
199.253236
 30
0.0
 10
109.921580
 20
199.253236
 30
0.0
 10
109.921580
 20
203.112845
 30
0.0
 10
110.809586
 20
203.112845
 30
0.0
 10
110.809586
 20
201.624564
 30
0.0
 10
111.236227
 20
201.981752
 30
0.0
 10
111.734801
 20
202.098333
 30
0.0
 10
112.157719
 20
202.024537
 30
0.0
 10
112.464058
 20
201.803157
 30
0.0
 10
112.651952
 20
201.441008
 30
0.0
 10
112.714586
 20
200.944916
 30
0.0
  0
LWPOLYLINE
  5
1a3
100
AcDbEntity
  8
Layer_1
 62
7
100
AcDbPolyline
 90
17
 70
0
 10
114.865145
 20
201.463333
 30
0.0
 10
114.604694
 20
201.410002
 30
0.0
 10
114.413699
 20
201.250012
 30
0.0
 10
114.298356
 20
200.992043
 30
0.0
 10
114.259911
 20
200.639817
 30
0.0
 10
114.298356
 20
200.286971
 30
0.0
 10
114.413699
 20
200.027143
 30
0.0
 10
114.604694
 20
199.869012
 30
0.0
 10
114.865145
 20
199.816304
 30
0.0
 10
115.121251
 20
199.869012
 30
0.0
 10
115.309148
 20
200.027143
 30
0.0
 10
115.424487
 20
200.286971
 30
0.0
 10
115.462937
 20
200.639817
 30
0.0
 10
115.424487
 20
200.992043
 30
0.0
 10
115.309148
 20
201.250012
 30
0.0
 10
115.121251
 20
201.410002
 30
0.0
 10
114.865145
 20
201.463333
 30
0.0
  0
LWPOLYLINE
  5
1a4
100
AcDbEntity
  8
Layer_1
 62
7
100
AcDbPolyline
 90
17
 70
0
 10
114.865145
 20
202.098333
 30
0.0
 10
115.503243
 20
202.001593
 30
0.0
 10
115.983834
 20
201.711381
 30
0.0
 10
116.287070
 20
201.250012
 30
0.0
 10
116.388151
 20
200.639817
 30
0.0
 10
116.287070
 20
200.029622
 30
0.0
 10
115.983834
 20
199.568256
 30
0.0
 10
115.503243
 20
199.278042
 30
0.0
 10
114.865145
 20
199.181304
 30
0.0
 10
114.223942
 20
199.278042
 30
0.0
 10
113.739011
 20
199.568256
 30
0.0
 10
113.435774
 20
200.029622
 30
0.0
 10
113.334696
 20
200.639817
 30
0.0
 10
113.435774
 20
201.250012
 30
0.0
 10
113.739011
 20
201.711381
 30
0.0
 10
114.223942
 20
202.001593
 30
0.0
 10
114.865145
 20
202.098333
 30
0.0
  0
LWPOLYLINE
  5
1a5
100
AcDbEntity
  8
Layer_1
 62
7
100
AcDbPolyline
 90
37
 70
0
 10
119.610280
 20
201.569993
 30
0.0
 10
120.009636
 20
201.961907
 30
0.0
 10
120.520613
 20
202.098333
 30
0.0
 10
120.942289
 20
202.024537
 30
0.0
 10
121.249870
 20
201.803157
 30
0.0
 10
121.437762
 20
201.441008
 30
0.0
 10
121.500398
 20
200.944916
 30
0.0
 10
121.500398
 20
199.253236
 30
0.0
 10
120.607430
 20
199.253236
 30
0.0
 10
120.607430
 20
200.701829
 30
0.0
 10
120.609970
 20
200.768804
 30
0.0
 10
120.612510
 20
200.868022
 30
0.0
 10
120.525693
 20
201.294663
 30
0.0
 10
120.245398
 20
201.428608
 30
0.0
 10
120.020915
 20
201.376515
 30
0.0
 10
119.853485
 20
201.220246
 30
0.0
 10
119.749924
 20
200.965378
 30
0.0
 10
119.712100
 20
200.617493
 30
0.0
 10
119.712100
 20
199.253236
 30
0.0
 10
118.819129
 20
199.253236
 30
0.0
 10
118.819129
 20
200.701829
 30
0.0
 10
118.739754
 20
201.294663
 30
0.0
 10
118.629373
 20
201.395120
 30
0.0
 10
118.456981
 20
201.428608
 30
0.0
 10
118.230638
 20
201.375896
 30
0.0
 10
118.062587
 20
201.217768
 30
0.0
 10
117.958407
 20
200.964138
 30
0.0
 10
117.923680
 20
200.619974
 30
0.0
 10
117.923680
 20
199.253236
 30
0.0
 10
117.030712
 20
199.253236
 30
0.0
 10
117.030712
 20
202.031361
 30
0.0
 10
117.923680
 20
202.031361
 30
0.0
 10
117.923680
 20
201.624564
 30
0.0
 10
118.298231
 20
201.979272
 30
0.0
 10
118.767039
 20
202.098333
 30
0.0
 10
119.275536
 20
201.959429
 30
0.0
 10
119.610398
 20
201.569993
 30
0.0
  0
LWPOLYLINE
  5
1a6
100
AcDbEntity
  8
Layer_1
 62
7
100
AcDbPolyline
 90
24
 70
0
 10
125.107001
 20
200.649740
 30
0.0
 10
125.107001
 20
200.396733
 30
0.0
 10
123.030847
 20
200.396733
 30
0.0
 10
123.103403
 20
200.123259
 30
0.0
 10
123.256571
 20
199.927923
 30
0.0
 10
123.488492
 20
199.810721
 30
0.0
 10
123.797312
 20
199.771653
 30
0.0
 10
124.370299
 20
199.853509
 30
0.0
 10
124.975536
 20
200.106518
 30
0.0
 10
124.975536
 20
199.421907
 30
0.0
 10
124.345495
 20
199.243314
 30
0.0
 10
123.715456
 20
199.181304
 30
0.0
 10
123.045110
 20
199.276801
 30
0.0
 10
122.542196
 20
199.563294
 30
0.0
 10
122.229655
 20
200.024661
 30
0.0
 10
122.125475
 20
200.639817
 30
0.0
 10
122.227795
 20
201.246911
 30
0.0
 10
122.534754
 20
201.708900
 30
0.0
 10
123.023405
 20
202.000972
 30
0.0
 10
123.665847
 20
202.098333
 30
0.0
 10
124.254958
 20
201.999732
 30
0.0
 10
124.712606
 20
201.703939
 30
0.0
 10
125.008400
 20
201.243190
 30
0.0
 10
125.107001
 20
200.649740
 30
0.0
  0
LWPOLYLINE
  5
1a7
100
AcDbEntity
  8
Layer_1
 62
7
100
AcDbPolyline
 90
9
 70
0
 10
124.194187
 20
200.944916
 30
0.0
 10
124.156978
 20
201.173118
 30
0.0
 10
124.045360
 20
201.351714
 30
0.0
 10
123.876066
 20
201.468914
 30
0.0
 10
123.660886
 20
201.507983
 30
0.0
 10
123.427101
 20
201.471394
 30
0.0
 10
123.241687
 20
201.361634
 30
0.0
 10
123.040770
 20
200.944916
 30
0.0
 10
124.194187
 20
200.944916
 30
0.0
  0
LWPOLYLINE
  5
1a8
100
AcDbEntity
  8
Layer_1
 62
7
100
AcDbPolyline
 90
17
 70
0
 10
125.625417
 20
198.404916
 30
0.0
 10
125.625417
 20
198.516538
 30
0.0
 10
125.995007
 20
198.749701
 30
0.0
 10
126.158719
 20
199.151538
 30
0.0
 10
126.136395
 20
199.233393
 30
0.0
 10
126.101667
 20
199.253234
 30
0.0
 10
125.888347
 20
199.181301
 30
0.0
 10
125.691150
 20
199.250133
 30
0.0
 10
125.625417
 20
199.456631
 30
0.0
 10
125.722155
 20
199.667471
 30
0.0
 10
125.945398
 20
199.751807
 30
0.0
 10
126.115930
 20
199.708399
 30
0.0
 10
126.255456
 20
199.578176
 30
0.0
 10
126.362116
 20
199.228429
 30
0.0
 10
126.316072
 20
198.960228
 30
0.0
 10
126.177941
 20
198.733575
 30
0.0
 10
125.625417
 20
198.404913
 30
0.0
  0
LWPOLYLINE
  5
1a9
100
AcDbEntity
  8
Layer_1
 62
7
100
AcDbPolyline
 90
17
 70
0
 10
36.202039
 20
193.146879
 30
0.0
 10
36.453184
 20
193.198968
 30
0.0
 10
36.636120
 20
193.355238
 30
0.0
 10
36.749601
 20
193.610726
 30
0.0
 10
36.787430
 20
193.960472
 30
0.0
 10
36.749601
 20
194.310218
 30
0.0
 10
36.636120
 20
194.565706
 30
0.0
 10
36.453184
 20
194.721975
 30
0.0
 10
36.202039
 20
194.774068
 30
0.0
 10
35.949649
 20
194.721355
 30
0.0
 10
35.762995
 20
194.563228
 30
0.0
 10
35.649514
 20
194.308357
 30
0.0
 10
35.611687
 20
193.960472
 30
0.0
 10
35.649514
 20
193.611967
 30
0.0
 10
35.762995
 20
193.355238
 30
0.0
 10
35.949649
 20
193.198968
 30
0.0
 10
36.202039
 20
193.146879
 30
0.0
  0
LWPOLYLINE
  5
1aa
100
AcDbEntity
  8
Layer_1
 62
7
100
AcDbPolyline
 90
18
 70
0
 10
35.611687
 20
194.945219
 30
0.0
 10
36.018485
 20
195.302408
 30
0.0
 10
36.531940
 20
195.418988
 30
0.0
 10
36.999508
 20
195.316666
 30
0.0
 10
37.375299
 20
195.009712
 30
0.0
 10
37.622725
 20
194.544001
 30
0.0
 10
37.705203
 20
193.960472
 30
0.0
 10
37.622725
 20
193.376322
 30
0.0
 10
37.375299
 20
192.908754
 30
0.0
 10
36.999508
 20
192.603655
 30
0.0
 10
36.531940
 20
192.501956
 30
0.0
 10
36.018485
 20
192.616058
 30
0.0
 10
35.611687
 20
192.975728
 30
0.0
 10
35.611687
 20
192.573892
 30
0.0
 10
34.723680
 20
192.573892
 30
0.0
 10
34.723680
 20
196.433501
 30
0.0
 10
35.611687
 20
196.433501
 30
0.0
 10
35.611687
 20
194.945219
 30
0.0
  0
LWPOLYLINE
  5
1ab
100
AcDbEntity
  8
Layer_1
 62
7
100
AcDbPolyline
 90
25
 70
0
 10
38.335241
 20
193.655376
 30
0.0
 10
38.335241
 20
195.352017
 30
0.0
 10
39.228209
 20
195.352017
 30
0.0
 10
39.228209
 20
195.074203
 30
0.0
 10
39.225669
 20
194.506177
 30
0.0
 10
39.223129
 20
194.052251
 30
0.0
 10
39.240486
 20
193.568558
 30
0.0
 10
39.300018
 20
193.355238
 30
0.0
 10
39.441403
 20
193.221292
 30
0.0
 10
39.644803
 20
193.174164
 30
0.0
 10
39.892847
 20
193.227494
 30
0.0
 10
40.081364
 20
193.387485
 30
0.0
 10
40.200425
 20
193.642352
 30
0.0
 10
40.240114
 20
193.980318
 30
0.0
 10
40.240114
 20
195.352017
 30
0.0
 10
41.128124
 20
195.352017
 30
0.0
 10
41.128124
 20
192.573892
 30
0.0
 10
40.240114
 20
192.573892
 30
0.0
 10
40.240114
 20
192.975728
 30
0.0
 10
39.813473
 20
192.616058
 30
0.0
 10
39.319861
 20
192.501956
 30
0.0
 10
38.895700
 20
192.575751
 30
0.0
 10
38.585643
 20
192.797132
 30
0.0
 10
38.397746
 20
193.159281
 30
0.0
 10
38.335114
 20
193.655376
 30
0.0
  0
LWPOLYLINE
  5
1ac
100
AcDbEntity
  8
Layer_1
 62
7
100
AcDbPolyline
 90
21
 70
0
 10
42.956356
 20
196.140805
 30
0.0
 10
42.956356
 20
195.352017
 30
0.0
 10
43.871648
 20
195.352017
 30
0.0
 10
43.871648
 20
194.717017
 30
0.0
 10
42.956356
 20
194.717017
 30
0.0
 10
42.956356
 20
193.538792
 30
0.0
 10
43.033251
 20
193.275863
 30
0.0
 10
43.338347
 20
193.208892
 30
0.0
 10
43.794754
 20
193.208892
 30
0.0
 10
43.794754
 20
192.573892
 30
0.0
 10
43.033251
 20
192.573892
 30
0.0
 10
42.583664
 20
192.628461
 30
0.0
 10
42.286629
 20
192.792171
 30
0.0
 10
42.122917
 20
193.089207
 30
0.0
 10
42.068347
 20
193.538792
 30
0.0
 10
42.068347
 20
194.717017
 30
0.0
 10
41.626824
 20
194.717017
 30
0.0
 10
41.626824
 20
195.352017
 30
0.0
 10
42.068347
 20
195.352017
 30
0.0
 10
42.068347
 20
196.140805
 30
0.0
 10
42.956356
 20
196.140805
 30
0.0
  0
LWPOLYLINE
  5
1ad
100
AcDbEntity
  8
Layer_1
 62
7
100
AcDbPolyline
 90
18
 70
0
 10
47.071453
 20
192.975728
 30
0.0
 10
47.071453
 20
191.517212
 30
0.0
 10
46.183446
 20
191.517212
 30
0.0
 10
46.183446
 20
195.352017
 30
0.0
 10
47.071453
 20
195.352017
 30
0.0
 10
47.071453
 20
194.945219
 30
0.0
 10
47.478251
 20
195.302408
 30
0.0
 10
47.991706
 20
195.418988
 30
0.0
 10
48.459273
 20
195.316666
 30
0.0
 10
48.835065
 20
195.009712
 30
0.0
 10
49.082491
 20
194.544001
 30
0.0
 10
49.164969
 20
193.960472
 30
0.0
 10
49.082491
 20
193.376322
 30
0.0
 10
48.835065
 20
192.908754
 30
0.0
 10
48.459273
 20
192.603655
 30
0.0
 10
47.991706
 20
192.501956
 30
0.0
 10
47.478251
 20
192.616058
 30
0.0
 10
47.071453
 20
192.975728
 30
0.0
  0
LWPOLYLINE
  5
1ae
100
AcDbEntity
  8
Layer_1
 62
7
100
AcDbPolyline
 90
17
 70
0
 10
47.661805
 20
194.774068
 30
0.0
 10
47.409415
 20
194.721355
 30
0.0
 10
47.222761
 20
194.563228
 30
0.0
 10
47.109280
 20
194.308357
 30
0.0
 10
47.071453
 20
193.960472
 30
0.0
 10
47.109280
 20
193.611967
 30
0.0
 10
47.222761
 20
193.355238
 30
0.0
 10
47.409415
 20
193.198968
 30
0.0
 10
47.661805
 20
193.146879
 30
0.0
 10
47.912950
 20
193.198968
 30
0.0
 10
48.095886
 20
193.355238
 30
0.0
 10
48.209367
 20
193.610726
 30
0.0
 10
48.247196
 20
193.960472
 30
0.0
 10
48.209367
 20
194.310218
 30
0.0
 10
48.095886
 20
194.565706
 30
0.0
 10
47.912950
 20
194.721975
 30
0.0
 10
47.661805
 20
194.774068
 30
0.0
  0
LWPOLYLINE
  5
1af
100
AcDbEntity
  8
Layer_1
 62
7
100
AcDbPolyline
 90
5
 70
0
 10
49.824773
 20
196.433501
 30
0.0
 10
50.712780
 20
196.433501
 30
0.0
 10
50.712780
 20
192.573892
 30
0.0
 10
49.824773
 20
192.573892
 30
0.0
 10
49.824773
 20
196.433501
 30
0.0
  0
LWPOLYLINE
  5
1b0
100
AcDbEntity
  8
Layer_1
 62
7
100
AcDbPolyline
 90
24
 70
0
 10
54.344187
 20
193.970395
 30
0.0
 10
54.344187
 20
193.717385
 30
0.0
 10
52.268036
 20
193.717385
 30
0.0
 10
52.340592
 20
193.443914
 30
0.0
 10
52.493757
 20
193.248578
 30
0.0
 10
52.725681
 20
193.131376
 30
0.0
 10
53.034501
 20
193.092308
 30
0.0
 10
53.607488
 20
193.174164
 30
0.0
 10
54.212722
 20
193.427171
 30
0.0
 10
54.212722
 20
192.742562
 30
0.0
 10
53.582683
 20
192.563969
 30
0.0
 10
52.952645
 20
192.501956
 30
0.0
 10
52.282296
 20
192.597455
 30
0.0
 10
51.779382
 20
192.883949
 30
0.0
 10
51.466843
 20
193.345315
 30
0.0
 10
51.362664
 20
193.960472
 30
0.0
 10
51.464984
 20
194.567566
 30
0.0
 10
51.771940
 20
195.029555
 30
0.0
 10
52.260593
 20
195.321628
 30
0.0
 10
52.903036
 20
195.418988
 30
0.0
 10
53.492144
 20
195.320387
 30
0.0
 10
53.949792
 20
195.024594
 30
0.0
 10
54.245586
 20
194.563845
 30
0.0
 10
54.344187
 20
193.970395
 30
0.0
  0
LWPOLYLINE
  5
1b1
100
AcDbEntity
  8
Layer_1
 62
7
100
AcDbPolyline
 90
9
 70
0
 10
53.431376
 20
194.265571
 30
0.0
 10
53.394166
 20
194.493773
 30
0.0
 10
53.282546
 20
194.672366
 30
0.0
 10
53.113253
 20
194.789568
 30
0.0
 10
52.898074
 20
194.828635
 30
0.0
 10
52.664289
 20
194.792049
 30
0.0
 10
52.478876
 20
194.682289
 30
0.0
 10
52.277956
 20
194.265571
 30
0.0
 10
53.431376
 20
194.265571
 30
0.0
  0
LWPOLYLINE
  5
1b2
100
AcDbEntity
  8
Layer_1
 62
7
100
AcDbPolyline
 90
11
 70
0
 10
56.259110
 20
193.824046
 30
0.0
 10
55.839911
 20
193.729789
 30
0.0
 10
55.701004
 20
193.451978
 30
0.0
 10
55.812626
 20
193.186568
 30
0.0
 10
56.127645
 20
193.092308
 30
0.0
 10
56.358326
 20
193.136957
 30
0.0
 10
56.549324
 20
193.270901
 30
0.0
 10
56.677687
 20
193.474301
 30
0.0
 10
56.720475
 20
193.722347
 30
0.0
 10
56.720475
 20
193.824046
 30
0.0
 10
56.259110
 20
193.824046
 30
0.0
  0
LWPOLYLINE
  5
1b3
100
AcDbEntity
  8
Layer_1
 62
7
100
AcDbPolyline
 90
28
 70
0
 10
57.615924
 20
194.158911
 30
0.0
 10
57.615924
 20
192.573892
 30
0.0
 10
56.720475
 20
192.573892
 30
0.0
 10
56.720475
 20
192.985648
 30
0.0
 10
56.318642
 20
192.616058
 30
0.0
 10
55.775417
 20
192.501956
 30
0.0
 10
55.384124
 20
192.564588
 30
0.0
 10
55.073446
 20
192.752485
 30
0.0
 10
54.872527
 20
193.042698
 30
0.0
 10
54.805555
 20
193.407328
 30
0.0
 10
54.889270
 20
193.830866
 30
0.0
 10
55.140417
 20
194.124183
 30
0.0
 10
55.573259
 20
194.295335
 30
0.0
 10
56.197097
 20
194.352385
 30
0.0
 10
56.720475
 20
194.352385
 30
0.0
 10
56.720475
 20
194.421840
 30
0.0
 10
56.678928
 20
194.604153
 30
0.0
 10
56.554286
 20
194.729417
 30
0.0
 10
56.035866
 20
194.828635
 30
0.0
 10
55.505046
 20
194.771587
 30
0.0
 10
55.048642
 20
194.600433
 30
0.0
 10
55.048642
 20
195.277603
 30
0.0
 10
55.621629
 20
195.381783
 30
0.0
 10
56.197097
 20
195.418988
 30
0.0
 10
56.843878
 20
195.344572
 30
0.0
 10
57.281062
 20
195.121331
 30
0.0
 10
57.532207
 20
194.733137
 30
0.0
 10
57.615924
 20
194.158911
 30
0.0
  0
LWPOLYLINE
  5
1b4
100
AcDbEntity
  8
Layer_1
 62
7
100
AcDbPolyline
 90
37
 70
0
 10
60.617292
 20
195.265199
 30
0.0
 10
60.617292
 20
194.590510
 30
0.0
 10
60.066629
 20
194.769106
 30
0.0
 10
59.565574
 20
194.828635
 30
0.0
 10
59.188542
 20
194.764145
 30
0.0
 10
59.067001
 20
194.570667
 30
0.0
 10
59.158776
 20
194.406956
 30
0.0
 10
59.493642
 20
194.322622
 30
0.0
 10
59.649911
 20
194.300299
 30
0.0
 10
60.220416
 20
194.185577
 30
0.0
 10
60.567683
 20
194.015045
 30
0.0
 10
60.744415
 20
193.760177
 30
0.0
 10
60.803328
 20
193.392449
 30
0.0
 10
60.721470
 20
193.003635
 30
0.0
 10
60.475905
 20
192.725202
 30
0.0
 10
60.067867
 20
192.557770
 30
0.0
 10
59.498600
 20
192.501959
 30
0.0
 10
58.928094
 20
192.546609
 30
0.0
 10
58.325340
 20
192.675593
 30
0.0
 10
58.325340
 20
193.350279
 30
0.0
 10
58.868562
 20
193.156805
 30
0.0
 10
59.436590
 20
193.092311
 30
0.0
 10
59.828504
 20
193.164244
 30
0.0
 10
59.959969
 20
193.377565
 30
0.0
 10
59.868190
 20
193.553680
 30
0.0
 10
59.508523
 20
193.645455
 30
0.0
 10
59.352254
 20
193.665296
 30
0.0
 10
58.848097
 20
193.771336
 30
0.0
 10
58.521296
 20
193.940629
 30
0.0
 10
58.342702
 20
194.193635
 30
0.0
 10
58.283171
 20
194.550824
 30
0.0
 10
58.358825
 20
194.935295
 30
0.0
 10
58.585789
 20
195.205667
 30
0.0
 10
58.969021
 20
195.365656
 30
0.0
 10
59.513485
 20
195.418988
 30
0.0
 10
60.029421
 20
195.381783
 30
0.0
 10
60.617292
 20
195.265199
 30
0.0
  0
LWPOLYLINE
  5
1b5
100
AcDbEntity
  8
Layer_1
 62
7
100
AcDbPolyline
 90
24
 70
0
 10
64.246219
 20
193.970395
 30
0.0
 10
64.246219
 20
193.717385
 30
0.0
 10
62.170065
 20
193.717385
 30
0.0
 10
62.242622
 20
193.443914
 30
0.0
 10
62.395789
 20
193.248578
 30
0.0
 10
62.627711
 20
193.131376
 30
0.0
 10
62.936530
 20
193.092308
 30
0.0
 10
63.509520
 20
193.174164
 30
0.0
 10
64.114754
 20
193.427171
 30
0.0
 10
64.114754
 20
192.742562
 30
0.0
 10
63.484715
 20
192.563969
 30
0.0
 10
62.854674
 20
192.501956
 30
0.0
 10
62.184328
 20
192.597455
 30
0.0
 10
61.681414
 20
192.883949
 30
0.0
 10
61.368875
 20
193.345315
 30
0.0
 10
61.264696
 20
193.960472
 30
0.0
 10
61.367014
 20
194.567566
 30
0.0
 10
61.673972
 20
195.029555
 30
0.0
 10
62.162623
 20
195.321628
 30
0.0
 10
62.805065
 20
195.418988
 30
0.0
 10
63.394176
 20
195.320387
 30
0.0
 10
63.851824
 20
195.024594
 30
0.0
 10
64.147618
 20
194.563845
 30
0.0
 10
64.246219
 20
193.970395
 30
0.0
  0
LWPOLYLINE
  5
1b6
100
AcDbEntity
  8
Layer_1
 62
7
100
AcDbPolyline
 90
9
 70
0
 10
63.333405
 20
194.265571
 30
0.0
 10
63.296197
 20
194.493773
 30
0.0
 10
63.184578
 20
194.672366
 30
0.0
 10
63.015285
 20
194.789568
 30
0.0
 10
62.800106
 20
194.828635
 30
0.0
 10
62.566319
 20
194.792049
 30
0.0
 10
62.380905
 20
194.682289
 30
0.0
 10
62.179988
 20
194.265571
 30
0.0
 10
63.333405
 20
194.265571
 30
0.0
  0
LWPOLYLINE
  5
1b7
100
AcDbEntity
  8
Layer_1
 62
7
100
AcDbPolyline
 90
17
 70
0
 10
68.745789
 20
194.595472
 30
0.0
 10
68.512626
 20
194.674847
 30
0.0
 10
68.281940
 20
194.702138
 30
0.0
 10
67.978702
 20
194.646947
 30
0.0
 10
67.753600
 20
194.481378
 30
0.0
 10
67.615934
 20
194.215344
 30
0.0
 10
67.570046
 20
193.853817
 30
0.0
 10
67.570046
 20
192.573897
 30
0.0
 10
66.682039
 20
192.573897
 30
0.0
 10
66.682039
 20
195.352022
 30
0.0
 10
67.570046
 20
195.352022
 30
0.0
 10
67.570046
 20
194.895615
 30
0.0
 10
67.961959
 20
195.292490
 30
0.0
 10
68.495261
 20
195.418994
 30
0.0
 10
68.592001
 20
195.414026
 30
0.0
 10
68.743308
 20
195.399153
 30
0.0
 10
68.745848
 20
194.595480
 30
0.0
  0
LWPOLYLINE
  5
1b8
100
AcDbEntity
  8
Layer_1
 62
7
100
AcDbPolyline
 90
24
 70
0
 10
71.965437
 20
193.970395
 30
0.0
 10
71.965437
 20
193.717385
 30
0.0
 10
69.889286
 20
193.717385
 30
0.0
 10
69.961842
 20
193.443914
 30
0.0
 10
70.115007
 20
193.248578
 30
0.0
 10
70.346931
 20
193.131376
 30
0.0
 10
70.655751
 20
193.092308
 30
0.0
 10
71.228738
 20
193.174164
 30
0.0
 10
71.833972
 20
193.427171
 30
0.0
 10
71.833972
 20
192.742562
 30
0.0
 10
71.203933
 20
192.563969
 30
0.0
 10
70.573895
 20
192.501956
 30
0.0
 10
69.903546
 20
192.597455
 30
0.0
 10
69.400632
 20
192.883949
 30
0.0
 10
69.088093
 20
193.345315
 30
0.0
 10
68.983914
 20
193.960472
 30
0.0
 10
69.086234
 20
194.567566
 30
0.0
 10
69.393190
 20
195.029555
 30
0.0
 10
69.881843
 20
195.321628
 30
0.0
 10
70.524286
 20
195.418988
 30
0.0
 10
71.113394
 20
195.320387
 30
0.0
 10
71.571042
 20
195.024594
 30
0.0
 10
71.866836
 20
194.563845
 30
0.0
 10
71.965437
 20
193.970395
 30
0.0
  0
LWPOLYLINE
  5
1b9
100
AcDbEntity
  8
Layer_1
 62
7
100
AcDbPolyline
 90
9
 70
0
 10
71.052626
 20
194.265571
 30
0.0
 10
71.015416
 20
194.493773
 30
0.0
 10
70.903796
 20
194.672366
 30
0.0
 10
70.734503
 20
194.789568
 30
0.0
 10
70.519324
 20
194.828635
 30
0.0
 10
70.285539
 20
194.792049
 30
0.0
 10
70.100126
 20
194.682289
 30
0.0
 10
69.899206
 20
194.265571
 30
0.0
 10
71.052626
 20
194.265571
 30
0.0
  0
LWPOLYLINE
  5
1ba
100
AcDbEntity
  8
Layer_1
 62
7
100
AcDbPolyline
 90
21
 70
0
 10
73.605026
 20
196.140805
 30
0.0
 10
73.605026
 20
195.352017
 30
0.0
 10
74.520321
 20
195.352017
 30
0.0
 10
74.520321
 20
194.717017
 30
0.0
 10
73.605026
 20
194.717017
 30
0.0
 10
73.605026
 20
193.538792
 30
0.0
 10
73.681921
 20
193.275863
 30
0.0
 10
73.987020
 20
193.208892
 30
0.0
 10
74.443424
 20
193.208892
 30
0.0
 10
74.443424
 20
192.573892
 30
0.0
 10
73.681921
 20
192.573892
 30
0.0
 10
73.232336
 20
192.628461
 30
0.0
 10
72.935299
 20
192.792171
 30
0.0
 10
72.771590
 20
193.089207
 30
0.0
 10
72.717020
 20
193.538792
 30
0.0
 10
72.717020
 20
194.717017
 30
0.0
 10
72.275495
 20
194.717017
 30
0.0
 10
72.275495
 20
195.352017
 30
0.0
 10
72.717020
 20
195.352017
 30
0.0
 10
72.717020
 20
196.140805
 30
0.0
 10
73.605026
 20
196.140805
 30
0.0
  0
LWPOLYLINE
  5
1bb
100
AcDbEntity
  8
Layer_1
 62
7
100
AcDbPolyline
 90
25
 70
0
 10
75.036257
 20
193.655376
 30
0.0
 10
75.036257
 20
195.352017
 30
0.0
 10
75.929225
 20
195.352017
 30
0.0
 10
75.929225
 20
195.074203
 30
0.0
 10
75.926685
 20
194.506177
 30
0.0
 10
75.924145
 20
194.052251
 30
0.0
 10
75.941502
 20
193.568558
 30
0.0
 10
76.001034
 20
193.355238
 30
0.0
 10
76.142419
 20
193.221292
 30
0.0
 10
76.345819
 20
193.174164
 30
0.0
 10
76.593863
 20
193.227494
 30
0.0
 10
76.782380
 20
193.387485
 30
0.0
 10
76.901441
 20
193.642352
 30
0.0
 10
76.941130
 20
193.980318
 30
0.0
 10
76.941130
 20
195.352017
 30
0.0
 10
77.829140
 20
195.352017
 30
0.0
 10
77.829140
 20
192.573892
 30
0.0
 10
76.941130
 20
192.573892
 30
0.0
 10
76.941130
 20
192.975728
 30
0.0
 10
76.514489
 20
192.616058
 30
0.0
 10
76.020877
 20
192.501956
 30
0.0
 10
75.596716
 20
192.575751
 30
0.0
 10
75.286659
 20
192.797132
 30
0.0
 10
75.098762
 20
193.159281
 30
0.0
 10
75.036130
 20
193.655376
 30
0.0
  0
LWPOLYLINE
  5
1bc
100
AcDbEntity
  8
Layer_1
 62
7
100
AcDbPolyline
 90
17
 70
0
 10
80.751257
 20
194.595472
 30
0.0
 10
80.518094
 20
194.674847
 30
0.0
 10
80.287411
 20
194.702138
 30
0.0
 10
79.984172
 20
194.646947
 30
0.0
 10
79.759071
 20
194.481378
 30
0.0
 10
79.621403
 20
194.215344
 30
0.0
 10
79.575517
 20
193.853817
 30
0.0
 10
79.575517
 20
192.573897
 30
0.0
 10
78.687507
 20
192.573897
 30
0.0
 10
78.687507
 20
195.352022
 30
0.0
 10
79.575517
 20
195.352022
 30
0.0
 10
79.575517
 20
194.895615
 30
0.0
 10
79.967430
 20
195.292490
 30
0.0
 10
80.500731
 20
195.418994
 30
0.0
 10
80.597469
 20
195.414026
 30
0.0
 10
80.748776
 20
195.399153
 30
0.0
 10
80.751316
 20
194.595480
 30
0.0
  0
LWPOLYLINE
  5
1bd
100
AcDbEntity
  8
Layer_1
 62
7
100
AcDbPolyline
 90
24
 70
0
 10
83.990751
 20
194.265571
 30
0.0
 10
83.990751
 20
192.573892
 30
0.0
 10
83.097780
 20
192.573892
 30
0.0
 10
83.097780
 20
192.849222
 30
0.0
 10
83.097780
 20
193.868696
 30
0.0
 10
83.080423
 20
194.364789
 30
0.0
 10
83.025853
 20
194.565706
 30
0.0
 10
82.884465
 20
194.699651
 30
0.0
 10
82.681067
 20
194.749260
 30
0.0
 10
82.433020
 20
194.695310
 30
0.0
 10
82.244506
 20
194.533462
 30
0.0
 10
82.125442
 20
194.278591
 30
0.0
 10
82.085756
 20
193.940629
 30
0.0
 10
82.085756
 20
192.573892
 30
0.0
 10
81.197747
 20
192.573892
 30
0.0
 10
81.197747
 20
195.352017
 30
0.0
 10
82.085756
 20
195.352017
 30
0.0
 10
82.085756
 20
194.945219
 30
0.0
 10
82.512397
 20
195.302408
 30
0.0
 10
83.010971
 20
195.418988
 30
0.0
 10
83.433888
 20
195.345192
 30
0.0
 10
83.740228
 20
195.123812
 30
0.0
 10
83.928122
 20
194.761663
 30
0.0
 10
83.990756
 20
194.265571
 30
0.0
  0
LWPOLYLINE
  5
1be
100
AcDbEntity
  8
Layer_1
 62
7
100
AcDbPolyline
 90
11
 70
0
 10
87.830517
 20
193.824046
 30
0.0
 10
87.411315
 20
193.729789
 30
0.0
 10
87.272411
 20
193.451978
 30
0.0
 10
87.384030
 20
193.186568
 30
0.0
 10
87.699049
 20
193.092308
 30
0.0
 10
87.929733
 20
193.136957
 30
0.0
 10
88.120731
 20
193.270901
 30
0.0
 10
88.249093
 20
193.474301
 30
0.0
 10
88.291882
 20
193.722347
 30
0.0
 10
88.291882
 20
193.824046
 30
0.0
 10
87.830517
 20
193.824046
 30
0.0
  0
LWPOLYLINE
  5
1bf
100
AcDbEntity
  8
Layer_1
 62
7
100
AcDbPolyline
 90
28
 70
0
 10
89.187331
 20
194.158911
 30
0.0
 10
89.187331
 20
192.573892
 30
0.0
 10
88.291882
 20
192.573892
 30
0.0
 10
88.291882
 20
192.985648
 30
0.0
 10
87.890046
 20
192.616058
 30
0.0
 10
87.346824
 20
192.501956
 30
0.0
 10
86.955529
 20
192.564588
 30
0.0
 10
86.644850
 20
192.752485
 30
0.0
 10
86.443932
 20
193.042698
 30
0.0
 10
86.376959
 20
193.407328
 30
0.0
 10
86.460676
 20
193.830866
 30
0.0
 10
86.711824
 20
194.124183
 30
0.0
 10
87.144665
 20
194.295335
 30
0.0
 10
87.768504
 20
194.352385
 30
0.0
 10
88.291882
 20
194.352385
 30
0.0
 10
88.291882
 20
194.421840
 30
0.0
 10
88.250332
 20
194.604153
 30
0.0
 10
88.125690
 20
194.729417
 30
0.0
 10
87.607273
 20
194.828635
 30
0.0
 10
87.076453
 20
194.771587
 30
0.0
 10
86.620046
 20
194.600433
 30
0.0
 10
86.620046
 20
195.277603
 30
0.0
 10
87.193036
 20
195.381783
 30
0.0
 10
87.768504
 20
195.418988
 30
0.0
 10
88.415284
 20
195.344572
 30
0.0
 10
88.852469
 20
195.121331
 30
0.0
 10
89.103613
 20
194.733137
 30
0.0
 10
89.187331
 20
194.158911
 30
0.0
  0
LWPOLYLINE
  5
1c0
100
AcDbEntity
  8
Layer_1
 62
7
100
AcDbPolyline
 90
37
 70
0
 10
92.188699
 20
195.265199
 30
0.0
 10
92.188699
 20
194.590510
 30
0.0
 10
91.638036
 20
194.769106
 30
0.0
 10
91.136981
 20
194.828635
 30
0.0
 10
90.759949
 20
194.764145
 30
0.0
 10
90.638405
 20
194.570667
 30
0.0
 10
90.730183
 20
194.406956
 30
0.0
 10
91.065046
 20
194.322622
 30
0.0
 10
91.221315
 20
194.300299
 30
0.0
 10
91.791822
 20
194.185577
 30
0.0
 10
92.139090
 20
194.015045
 30
0.0
 10
92.315821
 20
193.760177
 30
0.0
 10
92.374735
 20
193.392449
 30
0.0
 10
92.292877
 20
193.003635
 30
0.0
 10
92.047312
 20
192.725202
 30
0.0
 10
91.639274
 20
192.557770
 30
0.0
 10
91.070007
 20
192.501959
 30
0.0
 10
90.499501
 20
192.546609
 30
0.0
 10
89.896745
 20
192.675593
 30
0.0
 10
89.896745
 20
193.350279
 30
0.0
 10
90.439969
 20
193.156805
 30
0.0
 10
91.007995
 20
193.092311
 30
0.0
 10
91.399911
 20
193.164244
 30
0.0
 10
91.531376
 20
193.377565
 30
0.0
 10
91.439597
 20
193.553680
 30
0.0
 10
91.079930
 20
193.645455
 30
0.0
 10
90.923661
 20
193.665296
 30
0.0
 10
90.419504
 20
193.771336
 30
0.0
 10
90.092703
 20
193.940629
 30
0.0
 10
89.914109
 20
194.193635
 30
0.0
 10
89.854578
 20
194.550824
 30
0.0
 10
89.930232
 20
194.935295
 30
0.0
 10
90.157196
 20
195.205667
 30
0.0
 10
90.540427
 20
195.365656
 30
0.0
 10
91.084892
 20
195.418988
 30
0.0
 10
91.600828
 20
195.381783
 30
0.0
 10
92.188699
 20
195.265199
 30
0.0
  0
LWPOLYLINE
  5
1c1
100
AcDbEntity
  8
Layer_1
 62
7
100
AcDbPolyline
 90
37
 70
0
 10
96.980965
 20
195.265199
 30
0.0
 10
96.980965
 20
194.590510
 30
0.0
 10
96.430299
 20
194.769106
 30
0.0
 10
95.929245
 20
194.828635
 30
0.0
 10
95.552215
 20
194.764145
 30
0.0
 10
95.430671
 20
194.570667
 30
0.0
 10
95.522449
 20
194.406956
 30
0.0
 10
95.857312
 20
194.322622
 30
0.0
 10
96.013581
 20
194.300299
 30
0.0
 10
96.584088
 20
194.185577
 30
0.0
 10
96.931356
 20
194.015045
 30
0.0
 10
97.108087
 20
193.760177
 30
0.0
 10
97.167001
 20
193.392449
 30
0.0
 10
97.085143
 20
193.003635
 30
0.0
 10
96.839578
 20
192.725202
 30
0.0
 10
96.431539
 20
192.557770
 30
0.0
 10
95.862273
 20
192.501959
 30
0.0
 10
95.291767
 20
192.546609
 30
0.0
 10
94.689011
 20
192.675593
 30
0.0
 10
94.689011
 20
193.350279
 30
0.0
 10
95.232235
 20
193.156805
 30
0.0
 10
95.800261
 20
193.092311
 30
0.0
 10
96.192174
 20
193.164244
 30
0.0
 10
96.323642
 20
193.377565
 30
0.0
 10
96.231863
 20
193.553680
 30
0.0
 10
95.872196
 20
193.645455
 30
0.0
 10
95.715924
 20
193.665296
 30
0.0
 10
95.211770
 20
193.771336
 30
0.0
 10
94.884969
 20
193.940629
 30
0.0
 10
94.706375
 20
194.193635
 30
0.0
 10
94.646844
 20
194.550824
 30
0.0
 10
94.722498
 20
194.935295
 30
0.0
 10
94.949459
 20
195.205667
 30
0.0
 10
95.332693
 20
195.365656
 30
0.0
 10
95.877155
 20
195.418988
 30
0.0
 10
96.393094
 20
195.381783
 30
0.0
 10
96.980965
 20
195.265199
 30
0.0
  0
LWPOLYLINE
  5
1c2
100
AcDbEntity
  8
Layer_1
 62
7
100
AcDbPolyline
 90
17
 70
0
 10
99.158815
 20
194.783988
 30
0.0
 10
98.898365
 20
194.730656
 30
0.0
 10
98.707370
 20
194.570667
 30
0.0
 10
98.592028
 20
194.312698
 30
0.0
 10
98.553581
 20
193.960472
 30
0.0
 10
98.592028
 20
193.607625
 30
0.0
 10
98.707370
 20
193.347796
 30
0.0
 10
98.898365
 20
193.189667
 30
0.0
 10
99.158815
 20
193.136956
 30
0.0
 10
99.414923
 20
193.189667
 30
0.0
 10
99.602821
 20
193.347796
 30
0.0
 10
99.718160
 20
193.607625
 30
0.0
 10
99.756610
 20
193.960472
 30
0.0
 10
99.718160
 20
194.312698
 30
0.0
 10
99.602821
 20
194.570667
 30
0.0
 10
99.414923
 20
194.730656
 30
0.0
 10
99.158815
 20
194.783988
 30
0.0
  0
LWPOLYLINE
  5
1c3
100
AcDbEntity
  8
Layer_1
 62
7
100
AcDbPolyline
 90
17
 70
0
 10
99.158815
 20
195.418988
 30
0.0
 10
99.796915
 20
195.322248
 30
0.0
 10
100.277507
 20
195.032036
 30
0.0
 10
100.580743
 20
194.570666
 30
0.0
 10
100.681824
 20
193.960472
 30
0.0
 10
100.580743
 20
193.350277
 30
0.0
 10
100.277507
 20
192.888911
 30
0.0
 10
99.796915
 20
192.598695
 30
0.0
 10
99.158815
 20
192.501956
 30
0.0
 10
98.517614
 20
192.598695
 30
0.0
 10
98.032683
 20
192.888911
 30
0.0
 10
97.729446
 20
193.350277
 30
0.0
 10
97.628366
 20
193.960472
 30
0.0
 10
97.729446
 20
194.570666
 30
0.0
 10
98.032683
 20
195.032036
 30
0.0
 10
98.517614
 20
195.322248
 30
0.0
 10
99.158815
 20
195.418988
 30
0.0
  0
LWPOLYLINE
  5
1c4
100
AcDbEntity
  8
Layer_1
 62
7
100
AcDbPolyline
 90
17
 70
0
 10
102.651315
 20
194.783988
 30
0.0
 10
102.390865
 20
194.730656
 30
0.0
 10
102.199870
 20
194.570667
 30
0.0
 10
102.084528
 20
194.312698
 30
0.0
 10
102.046081
 20
193.960472
 30
0.0
 10
102.084528
 20
193.607625
 30
0.0
 10
102.199870
 20
193.347796
 30
0.0
 10
102.390865
 20
193.189667
 30
0.0
 10
102.651315
 20
193.136956
 30
0.0
 10
102.907423
 20
193.189667
 30
0.0
 10
103.095321
 20
193.347796
 30
0.0
 10
103.210660
 20
193.607625
 30
0.0
 10
103.249110
 20
193.960472
 30
0.0
 10
103.210660
 20
194.312698
 30
0.0
 10
103.095321
 20
194.570667
 30
0.0
 10
102.907423
 20
194.730656
 30
0.0
 10
102.651315
 20
194.783988
 30
0.0
  0
LWPOLYLINE
  5
1c5
100
AcDbEntity
  8
Layer_1
 62
7
100
AcDbPolyline
 90
17
 70
0
 10
102.651315
 20
195.418988
 30
0.0
 10
103.289415
 20
195.322248
 30
0.0
 10
103.770007
 20
195.032036
 30
0.0
 10
104.073243
 20
194.570666
 30
0.0
 10
104.174324
 20
193.960472
 30
0.0
 10
104.073243
 20
193.350277
 30
0.0
 10
103.770007
 20
192.888911
 30
0.0
 10
103.289415
 20
192.598695
 30
0.0
 10
102.651315
 20
192.501956
 30
0.0
 10
102.010114
 20
192.598695
 30
0.0
 10
101.525183
 20
192.888911
 30
0.0
 10
101.221946
 20
193.350277
 30
0.0
 10
101.120866
 20
193.960472
 30
0.0
 10
101.221946
 20
194.570666
 30
0.0
 10
101.525183
 20
195.032036
 30
0.0
 10
102.010114
 20
195.322248
 30
0.0
 10
102.651315
 20
195.418988
 30
0.0
  0
LWPOLYLINE
  5
1c6
100
AcDbEntity
  8
Layer_1
 62
7
100
AcDbPolyline
 90
24
 70
0
 10
107.614735
 20
194.265571
 30
0.0
 10
107.614735
 20
192.573892
 30
0.0
 10
106.721767
 20
192.573892
 30
0.0
 10
106.721767
 20
192.849222
 30
0.0
 10
106.721767
 20
193.868696
 30
0.0
 10
106.704410
 20
194.364789
 30
0.0
 10
106.649839
 20
194.565706
 30
0.0
 10
106.508455
 20
194.699651
 30
0.0
 10
106.305054
 20
194.749260
 30
0.0
 10
106.057007
 20
194.695310
 30
0.0
 10
105.868493
 20
194.533462
 30
0.0
 10
105.749429
 20
194.278591
 30
0.0
 10
105.709743
 20
193.940629
 30
0.0
 10
105.709743
 20
192.573892
 30
0.0
 10
104.821734
 20
192.573892
 30
0.0
 10
104.821734
 20
195.352017
 30
0.0
 10
105.709743
 20
195.352017
 30
0.0
 10
105.709743
 20
194.945219
 30
0.0
 10
106.136384
 20
195.302408
 30
0.0
 10
106.634958
 20
195.418988
 30
0.0
 10
107.057875
 20
195.345192
 30
0.0
 10
107.364214
 20
195.123812
 30
0.0
 10
107.552109
 20
194.761663
 30
0.0
 10
107.614743
 20
194.265571
 30
0.0
  0
LWPOLYLINE
  5
1c7
100
AcDbEntity
  8
Layer_1
 62
7
100
AcDbPolyline
 90
11
 70
0
 10
111.454501
 20
193.824046
 30
0.0
 10
111.035299
 20
193.729789
 30
0.0
 10
110.896395
 20
193.451978
 30
0.0
 10
111.008017
 20
193.186568
 30
0.0
 10
111.323036
 20
193.092308
 30
0.0
 10
111.553717
 20
193.136957
 30
0.0
 10
111.744715
 20
193.270901
 30
0.0
 10
111.873077
 20
193.474301
 30
0.0
 10
111.915866
 20
193.722347
 30
0.0
 10
111.915866
 20
193.824046
 30
0.0
 10
111.454501
 20
193.824046
 30
0.0
  0
LWPOLYLINE
  5
1c8
100
AcDbEntity
  8
Layer_1
 62
7
100
AcDbPolyline
 90
28
 70
0
 10
112.811315
 20
194.158911
 30
0.0
 10
112.811315
 20
192.573892
 30
0.0
 10
111.915866
 20
192.573892
 30
0.0
 10
111.915866
 20
192.985648
 30
0.0
 10
111.514030
 20
192.616058
 30
0.0
 10
110.970808
 20
192.501956
 30
0.0
 10
110.579513
 20
192.564588
 30
0.0
 10
110.268834
 20
192.752485
 30
0.0
 10
110.067918
 20
193.042698
 30
0.0
 10
110.000946
 20
193.407328
 30
0.0
 10
110.084661
 20
193.830866
 30
0.0
 10
110.335808
 20
194.124183
 30
0.0
 10
110.768650
 20
194.295335
 30
0.0
 10
111.392488
 20
194.352385
 30
0.0
 10
111.915866
 20
194.352385
 30
0.0
 10
111.915866
 20
194.421840
 30
0.0
 10
111.874317
 20
194.604153
 30
0.0
 10
111.749674
 20
194.729417
 30
0.0
 10
111.231257
 20
194.828635
 30
0.0
 10
110.700437
 20
194.771587
 30
0.0
 10
110.244030
 20
194.600433
 30
0.0
 10
110.244030
 20
195.277603
 30
0.0
 10
110.817020
 20
195.381783
 30
0.0
 10
111.392488
 20
195.418988
 30
0.0
 10
112.039269
 20
195.344572
 30
0.0
 10
112.476453
 20
195.121331
 30
0.0
 10
112.727598
 20
194.733137
 30
0.0
 10
112.811315
 20
194.158911
 30
0.0
  0
LWPOLYLINE
  5
1c9
100
AcDbEntity
  8
Layer_1
 62
7
100
AcDbPolyline
 90
37
 70
0
 10
115.812683
 20
195.265199
 30
0.0
 10
115.812683
 20
194.590510
 30
0.0
 10
115.262020
 20
194.769106
 30
0.0
 10
114.760965
 20
194.828635
 30
0.0
 10
114.383933
 20
194.764145
 30
0.0
 10
114.262392
 20
194.570667
 30
0.0
 10
114.354167
 20
194.406956
 30
0.0
 10
114.689030
 20
194.322622
 30
0.0
 10
114.845299
 20
194.300299
 30
0.0
 10
115.415807
 20
194.185577
 30
0.0
 10
115.763074
 20
194.015045
 30
0.0
 10
115.939806
 20
193.760177
 30
0.0
 10
115.998719
 20
193.392449
 30
0.0
 10
115.916861
 20
193.003635
 30
0.0
 10
115.671296
 20
192.725202
 30
0.0
 10
115.263258
 20
192.557770
 30
0.0
 10
114.693991
 20
192.501959
 30
0.0
 10
114.123485
 20
192.546609
 30
0.0
 10
113.520731
 20
192.675593
 30
0.0
 10
113.520731
 20
193.350279
 30
0.0
 10
114.063953
 20
193.156805
 30
0.0
 10
114.631981
 20
193.092311
 30
0.0
 10
115.023895
 20
193.164244
 30
0.0
 10
115.155360
 20
193.377565
 30
0.0
 10
115.063581
 20
193.553680
 30
0.0
 10
114.703914
 20
193.645455
 30
0.0
 10
114.547645
 20
193.665296
 30
0.0
 10
114.043488
 20
193.771336
 30
0.0
 10
113.716687
 20
193.940629
 30
0.0
 10
113.538093
 20
194.193635
 30
0.0
 10
113.478562
 20
194.550824
 30
0.0
 10
113.554216
 20
194.935295
 30
0.0
 10
113.781180
 20
195.205667
 30
0.0
 10
114.164411
 20
195.365656
 30
0.0
 10
114.708876
 20
195.418988
 30
0.0
 10
115.224812
 20
195.381783
 30
0.0
 10
115.812683
 20
195.265199
 30
0.0
  0
LWPOLYLINE
  5
1ca
100
AcDbEntity
  8
Layer_1
 62
7
100
AcDbPolyline
 90
17
 70
0
 10
49.648661
 20
189.002017
 30
0.0
 10
50.536667
 20
189.002017
 30
0.0
 10
51.283289
 20
187.116860
 30
0.0
 10
51.918289
 20
189.002017
 30
0.0
 10
52.806296
 20
189.002017
 30
0.0
 10
51.637995
 20
185.960962
 30
0.0
 10
51.446997
 20
185.567188
 30
0.0
 10
51.226238
 20
185.313558
 30
0.0
 10
50.955245
 20
185.174033
 30
0.0
 10
50.608600
 20
185.127523
 30
0.0
 10
50.095145
 20
185.127523
 30
0.0
 10
50.095145
 20
185.710433
 30
0.0
 10
50.372956
 20
185.710433
 30
0.0
 10
50.700379
 20
185.782366
 30
0.0
 10
50.861610
 20
186.040337
 30
0.0
 10
50.886417
 20
186.117231
 30
0.0
 10
49.648664
 20
189.002017
 30
0.0
  0
LWPOLYLINE
  5
1cb
100
AcDbEntity
  8
Layer_1
 62
7
100
AcDbPolyline
 90
17
 70
0
 10
54.649286
 20
188.433988
 30
0.0
 10
54.388834
 20
188.380656
 30
0.0
 10
54.197840
 20
188.220667
 30
0.0
 10
54.082497
 20
187.962698
 30
0.0
 10
54.044049
 20
187.610472
 30
0.0
 10
54.082497
 20
187.257625
 30
0.0
 10
54.197840
 20
186.997796
 30
0.0
 10
54.388834
 20
186.839667
 30
0.0
 10
54.649286
 20
186.786956
 30
0.0
 10
54.905392
 20
186.839667
 30
0.0
 10
55.093289
 20
186.997796
 30
0.0
 10
55.208628
 20
187.257625
 30
0.0
 10
55.247078
 20
187.610472
 30
0.0
 10
55.208628
 20
187.962698
 30
0.0
 10
55.093289
 20
188.220667
 30
0.0
 10
54.905392
 20
188.380656
 30
0.0
 10
54.649286
 20
188.433988
 30
0.0
  0
LWPOLYLINE
  5
1cc
100
AcDbEntity
  8
Layer_1
 62
7
100
AcDbPolyline
 90
17
 70
0
 10
54.649286
 20
189.068988
 30
0.0
 10
55.287384
 20
188.972248
 30
0.0
 10
55.767975
 20
188.682036
 30
0.0
 10
56.071211
 20
188.220666
 30
0.0
 10
56.172292
 20
187.610472
 30
0.0
 10
56.071211
 20
187.000277
 30
0.0
 10
55.767975
 20
186.538911
 30
0.0
 10
55.287384
 20
186.248695
 30
0.0
 10
54.649286
 20
186.151956
 30
0.0
 10
54.008083
 20
186.248695
 30
0.0
 10
53.523151
 20
186.538911
 30
0.0
 10
53.219914
 20
187.000277
 30
0.0
 10
53.118834
 20
187.610472
 30
0.0
 10
53.219914
 20
188.220666
 30
0.0
 10
53.523151
 20
188.682036
 30
0.0
 10
54.008083
 20
188.972248
 30
0.0
 10
54.649286
 20
189.068988
 30
0.0
  0
LWPOLYLINE
  5
1cd
100
AcDbEntity
  8
Layer_1
 62
7
100
AcDbPolyline
 90
25
 70
0
 10
56.789930
 20
187.305376
 30
0.0
 10
56.789930
 20
189.002017
 30
0.0
 10
57.682898
 20
189.002017
 30
0.0
 10
57.682898
 20
188.724203
 30
0.0
 10
57.680358
 20
188.156177
 30
0.0
 10
57.677818
 20
187.702251
 30
0.0
 10
57.695175
 20
187.218558
 30
0.0
 10
57.754707
 20
187.005238
 30
0.0
 10
57.896095
 20
186.871292
 30
0.0
 10
58.099492
 20
186.824164
 30
0.0
 10
58.347539
 20
186.877494
 30
0.0
 10
58.536056
 20
187.037485
 30
0.0
 10
58.655116
 20
187.292352
 30
0.0
 10
58.694806
 20
187.630318
 30
0.0
 10
58.694806
 20
189.002017
 30
0.0
 10
59.582813
 20
189.002017
 30
0.0
 10
59.582813
 20
186.223892
 30
0.0
 10
58.694806
 20
186.223892
 30
0.0
 10
58.694806
 20
186.625728
 30
0.0
 10
58.268165
 20
186.266058
 30
0.0
 10
57.774550
 20
186.151956
 30
0.0
 10
57.350390
 20
186.225751
 30
0.0
 10
57.040332
 20
186.447132
 30
0.0
 10
56.852437
 20
186.809281
 30
0.0
 10
56.789806
 20
187.305376
 30
0.0
  0
LWPOLYLINE
  5
1ce
100
AcDbEntity
  8
Layer_1
 62
7
100
AcDbPolyline
 90
5
 70
0
 10
61.086100
 20
189.927231
 30
0.0
 10
61.086100
 20
188.550571
 30
0.0
 10
60.498231
 20
188.550571
 30
0.0
 10
60.498231
 20
189.927231
 30
0.0
 10
61.086100
 20
189.927231
 30
0.0
  0
LWPOLYLINE
  5
1cf
100
AcDbEntity
  8
Layer_1
 62
7
100
AcDbPolyline
 90
8
 70
0
 10
61.649167
 20
189.002017
 30
0.0
 10
62.537174
 20
189.002017
 30
0.0
 10
63.229225
 20
187.082132
 30
0.0
 10
63.918796
 20
189.002017
 30
0.0
 10
64.809286
 20
189.002017
 30
0.0
 10
63.715398
 20
186.223892
 30
0.0
 10
62.740574
 20
186.223892
 30
0.0
 10
61.649167
 20
189.002017
 30
0.0
  0
LWPOLYLINE
  5
1d0
100
AcDbEntity
  8
Layer_1
 62
7
100
AcDbPolyline
 90
24
 70
0
 10
68.085985
 20
187.620395
 30
0.0
 10
68.085985
 20
187.367385
 30
0.0
 10
66.009831
 20
187.367385
 30
0.0
 10
66.082388
 20
187.093914
 30
0.0
 10
66.235555
 20
186.898578
 30
0.0
 10
66.467476
 20
186.781376
 30
0.0
 10
66.776296
 20
186.742308
 30
0.0
 10
67.349286
 20
186.824164
 30
0.0
 10
67.954520
 20
187.077171
 30
0.0
 10
67.954520
 20
186.392562
 30
0.0
 10
67.324481
 20
186.213969
 30
0.0
 10
66.694440
 20
186.151956
 30
0.0
 10
66.024094
 20
186.247455
 30
0.0
 10
65.521180
 20
186.533949
 30
0.0
 10
65.208640
 20
186.995315
 30
0.0
 10
65.104459
 20
187.610472
 30
0.0
 10
65.206779
 20
188.217566
 30
0.0
 10
65.513738
 20
188.679555
 30
0.0
 10
66.002389
 20
188.971628
 30
0.0
 10
66.644831
 20
189.068988
 30
0.0
 10
67.233942
 20
188.970387
 30
0.0
 10
67.691590
 20
188.674594
 30
0.0
 10
67.987384
 20
188.213845
 30
0.0
 10
68.085985
 20
187.620395
 30
0.0
  0
LWPOLYLINE
  5
1d1
100
AcDbEntity
  8
Layer_1
 62
7
100
AcDbPolyline
 90
9
 70
0
 10
67.173171
 20
187.915571
 30
0.0
 10
67.135962
 20
188.143773
 30
0.0
 10
67.024344
 20
188.322366
 30
0.0
 10
66.855050
 20
188.439568
 30
0.0
 10
66.639870
 20
188.478635
 30
0.0
 10
66.406085
 20
188.442049
 30
0.0
 10
66.220671
 20
188.332289
 30
0.0
 10
66.019754
 20
187.915571
 30
0.0
 10
67.173171
 20
187.915571
 30
0.0
  0
LWPOLYLINE
  5
1d2
100
AcDbEntity
  8
Layer_1
 62
7
100
AcDbPolyline
 90
17
 70
0
 10
72.585555
 20
188.245472
 30
0.0
 10
72.352392
 20
188.324847
 30
0.0
 10
72.121706
 20
188.352138
 30
0.0
 10
71.818468
 20
188.296947
 30
0.0
 10
71.593366
 20
188.131378
 30
0.0
 10
71.455700
 20
187.865344
 30
0.0
 10
71.409812
 20
187.503817
 30
0.0
 10
71.409812
 20
186.223897
 30
0.0
 10
70.521805
 20
186.223897
 30
0.0
 10
70.521805
 20
189.002022
 30
0.0
 10
71.409812
 20
189.002022
 30
0.0
 10
71.409812
 20
188.545615
 30
0.0
 10
71.801725
 20
188.942490
 30
0.0
 10
72.335026
 20
189.068994
 30
0.0
 10
72.431767
 20
189.064026
 30
0.0
 10
72.583074
 20
189.049153
 30
0.0
 10
72.585614
 20
188.245480
 30
0.0
  0
LWPOLYLINE
  5
1d3
100
AcDbEntity
  8
Layer_1
 62
7
100
AcDbPolyline
 90
24
 70
0
 10
75.805203
 20
187.620395
 30
0.0
 10
75.805203
 20
187.367385
 30
0.0
 10
73.729049
 20
187.367385
 30
0.0
 10
73.801606
 20
187.093914
 30
0.0
 10
73.954773
 20
186.898578
 30
0.0
 10
74.186697
 20
186.781376
 30
0.0
 10
74.495517
 20
186.742308
 30
0.0
 10
75.068504
 20
186.824164
 30
0.0
 10
75.673738
 20
187.077171
 30
0.0
 10
75.673738
 20
186.392562
 30
0.0
 10
75.043699
 20
186.213969
 30
0.0
 10
74.413661
 20
186.151956
 30
0.0
 10
73.743312
 20
186.247455
 30
0.0
 10
73.240398
 20
186.533949
 30
0.0
 10
72.927859
 20
186.995315
 30
0.0
 10
72.823680
 20
187.610472
 30
0.0
 10
72.925998
 20
188.217566
 30
0.0
 10
73.232956
 20
188.679555
 30
0.0
 10
73.721608
 20
188.971628
 30
0.0
 10
74.364049
 20
189.068988
 30
0.0
 10
74.953160
 20
188.970387
 30
0.0
 10
75.410808
 20
188.674594
 30
0.0
 10
75.706602
 20
188.213845
 30
0.0
 10
75.805203
 20
187.620395
 30
0.0
  0
LWPOLYLINE
  5
1d4
100
AcDbEntity
  8
Layer_1
 62
7
100
AcDbPolyline
 90
9
 70
0
 10
74.892392
 20
187.915571
 30
0.0
 10
74.855182
 20
188.143773
 30
0.0
 10
74.743562
 20
188.322366
 30
0.0
 10
74.574269
 20
188.439568
 30
0.0
 10
74.359090
 20
188.478635
 30
0.0
 10
74.125305
 20
188.442049
 30
0.0
 10
73.939892
 20
188.332289
 30
0.0
 10
73.738972
 20
187.915571
 30
0.0
 10
74.892392
 20
187.915571
 30
0.0
  0
LWPOLYLINE
  5
1d5
100
AcDbEntity
  8
Layer_1
 62
7
100
AcDbPolyline
 90
11
 70
0
 10
77.720126
 20
187.474046
 30
0.0
 10
77.300924
 20
187.379789
 30
0.0
 10
77.162020
 20
187.101978
 30
0.0
 10
77.273642
 20
186.836568
 30
0.0
 10
77.588661
 20
186.742308
 30
0.0
 10
77.819342
 20
186.786957
 30
0.0
 10
78.010340
 20
186.920901
 30
0.0
 10
78.138702
 20
187.124301
 30
0.0
 10
78.181491
 20
187.372347
 30
0.0
 10
78.181491
 20
187.474046
 30
0.0
 10
77.720126
 20
187.474046
 30
0.0
  0
LWPOLYLINE
  5
1d6
100
AcDbEntity
  8
Layer_1
 62
7
100
AcDbPolyline
 90
28
 70
0
 10
79.076940
 20
187.808911
 30
0.0
 10
79.076940
 20
186.223892
 30
0.0
 10
78.181491
 20
186.223892
 30
0.0
 10
78.181491
 20
186.635648
 30
0.0
 10
77.779655
 20
186.266058
 30
0.0
 10
77.236433
 20
186.151956
 30
0.0
 10
76.845138
 20
186.214588
 30
0.0
 10
76.534459
 20
186.402485
 30
0.0
 10
76.333543
 20
186.692698
 30
0.0
 10
76.266571
 20
187.057328
 30
0.0
 10
76.350286
 20
187.480866
 30
0.0
 10
76.601433
 20
187.774183
 30
0.0
 10
77.034275
 20
187.945335
 30
0.0
 10
77.658113
 20
188.002385
 30
0.0
 10
78.181491
 20
188.002385
 30
0.0
 10
78.181491
 20
188.071840
 30
0.0
 10
78.139942
 20
188.254153
 30
0.0
 10
78.015299
 20
188.379417
 30
0.0
 10
77.496882
 20
188.478635
 30
0.0
 10
76.966062
 20
188.421587
 30
0.0
 10
76.509655
 20
188.250433
 30
0.0
 10
76.509655
 20
188.927603
 30
0.0
 10
77.082645
 20
189.031783
 30
0.0
 10
77.658113
 20
189.068988
 30
0.0
 10
78.304894
 20
188.994572
 30
0.0
 10
78.742078
 20
188.771331
 30
0.0
 10
78.993223
 20
188.383137
 30
0.0
 10
79.076940
 20
187.808911
 30
0.0
  0
LWPOLYLINE
  5
1d7
100
AcDbEntity
  8
Layer_1
 62
7
100
AcDbPolyline
 90
18
 70
0
 10
81.798017
 20
188.595219
 30
0.0
 10
81.798017
 20
190.083501
 30
0.0
 10
82.690985
 20
190.083501
 30
0.0
 10
82.690985
 20
186.223892
 30
0.0
 10
81.798017
 20
186.223892
 30
0.0
 10
81.798017
 20
186.625728
 30
0.0
 10
81.393699
 20
186.266058
 30
0.0
 10
80.882722
 20
186.151956
 30
0.0
 10
80.415153
 20
186.253655
 30
0.0
 10
80.039363
 20
186.558754
 30
0.0
 10
79.791935
 20
187.026322
 30
0.0
 10
79.709459
 20
187.610472
 30
0.0
 10
79.791935
 20
188.194001
 30
0.0
 10
80.039363
 20
188.659712
 30
0.0
 10
80.415153
 20
188.966666
 30
0.0
 10
80.882722
 20
189.068988
 30
0.0
 10
81.391219
 20
188.952408
 30
0.0
 10
81.798017
 20
188.595219
 30
0.0
  0
LWPOLYLINE
  5
1d8
100
AcDbEntity
  8
Layer_1
 62
7
100
AcDbPolyline
 90
17
 70
0
 10
81.212626
 20
186.796879
 30
0.0
 10
81.463771
 20
186.848968
 30
0.0
 10
81.646706
 20
187.005238
 30
0.0
 10
81.760187
 20
187.260726
 30
0.0
 10
81.798017
 20
187.610472
 30
0.0
 10
81.760187
 20
187.960218
 30
0.0
 10
81.646706
 20
188.215706
 30
0.0
 10
81.463771
 20
188.371975
 30
0.0
 10
81.212626
 20
188.424068
 30
0.0
 10
80.962716
 20
188.371975
 30
0.0
 10
80.778542
 20
188.215706
 30
0.0
 10
80.666920
 20
187.960218
 30
0.0
 10
80.629715
 20
187.610472
 30
0.0
 10
80.666920
 20
187.260726
 30
0.0
 10
80.778542
 20
187.005238
 30
0.0
 10
80.962716
 20
186.848968
 30
0.0
 10
81.212626
 20
186.796879
 30
0.0
  0
LWPOLYLINE
  5
1d9
100
AcDbEntity
  8
Layer_1
 62
7
100
AcDbPolyline
 90
21
 70
0
 10
86.285183
 20
189.790805
 30
0.0
 10
86.285183
 20
189.002017
 30
0.0
 10
87.200475
 20
189.002017
 30
0.0
 10
87.200475
 20
188.367017
 30
0.0
 10
86.285183
 20
188.367017
 30
0.0
 10
86.285183
 20
187.188792
 30
0.0
 10
86.362078
 20
186.925863
 30
0.0
 10
86.667174
 20
186.858892
 30
0.0
 10
87.123581
 20
186.858892
 30
0.0
 10
87.123581
 20
186.223892
 30
0.0
 10
86.362078
 20
186.223892
 30
0.0
 10
85.912492
 20
186.278461
 30
0.0
 10
85.615456
 20
186.442171
 30
0.0
 10
85.451745
 20
186.739207
 30
0.0
 10
85.397174
 20
187.188792
 30
0.0
 10
85.397174
 20
188.367017
 30
0.0
 10
84.955651
 20
188.367017
 30
0.0
 10
84.955651
 20
189.002017
 30
0.0
 10
85.397174
 20
189.002017
 30
0.0
 10
85.397174
 20
189.790805
 30
0.0
 10
86.285183
 20
189.790805
 30
0.0
  0
LWPOLYLINE
  5
1da
100
AcDbEntity
  8
Layer_1
 62
7
100
AcDbPolyline
 90
24
 70
0
 10
90.539187
 20
187.915571
 30
0.0
 10
90.539187
 20
186.223892
 30
0.0
 10
89.646219
 20
186.223892
 30
0.0
 10
89.646219
 20
186.499222
 30
0.0
 10
89.646219
 20
187.513735
 30
0.0
 10
89.628862
 20
188.014789
 30
0.0
 10
89.574292
 20
188.215706
 30
0.0
 10
89.432904
 20
188.349651
 30
0.0
 10
89.229506
 20
188.399260
 30
0.0
 10
88.981458
 20
188.345310
 30
0.0
 10
88.792942
 20
188.183462
 30
0.0
 10
88.673880
 20
187.928591
 30
0.0
 10
88.634192
 20
187.590629
 30
0.0
 10
88.634192
 20
186.223892
 30
0.0
 10
87.746186
 20
186.223892
 30
0.0
 10
87.746186
 20
190.083501
 30
0.0
 10
88.634192
 20
190.083501
 30
0.0
 10
88.634192
 20
188.595219
 30
0.0
 10
89.060833
 20
188.952408
 30
0.0
 10
89.559407
 20
189.068988
 30
0.0
 10
89.982326
 20
188.995192
 30
0.0
 10
90.288667
 20
188.773812
 30
0.0
 10
90.476558
 20
188.411663
 30
0.0
 10
90.539192
 20
187.915571
 30
0.0
  0
LWPOLYLINE
  5
1db
100
AcDbEntity
  8
Layer_1
 62
7
100
AcDbPolyline
 90
24
 70
0
 10
94.140828
 20
187.620395
 30
0.0
 10
94.140828
 20
187.367385
 30
0.0
 10
92.064674
 20
187.367385
 30
0.0
 10
92.137231
 20
187.093914
 30
0.0
 10
92.290398
 20
186.898578
 30
0.0
 10
92.522322
 20
186.781376
 30
0.0
 10
92.831142
 20
186.742308
 30
0.0
 10
93.404129
 20
186.824164
 30
0.0
 10
94.009363
 20
187.077171
 30
0.0
 10
94.009363
 20
186.392562
 30
0.0
 10
93.379324
 20
186.213969
 30
0.0
 10
92.749286
 20
186.151956
 30
0.0
 10
92.078937
 20
186.247455
 30
0.0
 10
91.576023
 20
186.533949
 30
0.0
 10
91.263484
 20
186.995315
 30
0.0
 10
91.159305
 20
187.610472
 30
0.0
 10
91.261623
 20
188.217566
 30
0.0
 10
91.568581
 20
188.679555
 30
0.0
 10
92.057233
 20
188.971628
 30
0.0
 10
92.699674
 20
189.068988
 30
0.0
 10
93.288785
 20
188.970387
 30
0.0
 10
93.746433
 20
188.674594
 30
0.0
 10
94.042227
 20
188.213845
 30
0.0
 10
94.140828
 20
187.620395
 30
0.0
  0
LWPOLYLINE
  5
1dc
100
AcDbEntity
  8
Layer_1
 62
7
100
AcDbPolyline
 90
9
 70
0
 10
93.228017
 20
187.915571
 30
0.0
 10
93.190807
 20
188.143773
 30
0.0
 10
93.079187
 20
188.322366
 30
0.0
 10
92.909894
 20
188.439568
 30
0.0
 10
92.694715
 20
188.478635
 30
0.0
 10
92.460930
 20
188.442049
 30
0.0
 10
92.275517
 20
188.332289
 30
0.0
 10
92.074597
 20
187.915571
 30
0.0
 10
93.228017
 20
187.915571
 30
0.0
  0
LWPOLYLINE
  5
1dd
100
AcDbEntity
  8
Layer_1
 62
7
100
AcDbPolyline
 90
37
 70
0
 10
97.385280
 20
188.540648
 30
0.0
 10
97.784636
 20
188.932562
 30
0.0
 10
98.295613
 20
189.068988
 30
0.0
 10
98.717289
 20
188.995192
 30
0.0
 10
99.024870
 20
188.773812
 30
0.0
 10
99.212762
 20
188.411663
 30
0.0
 10
99.275398
 20
187.915571
 30
0.0
 10
99.275398
 20
186.223892
 30
0.0
 10
98.382430
 20
186.223892
 30
0.0
 10
98.382430
 20
187.672485
 30
0.0
 10
98.384970
 20
187.739456
 30
0.0
 10
98.387510
 20
187.838677
 30
0.0
 10
98.300693
 20
188.265318
 30
0.0
 10
98.020398
 20
188.399260
 30
0.0
 10
97.795915
 20
188.347170
 30
0.0
 10
97.628485
 20
188.190901
 30
0.0
 10
97.524924
 20
187.936033
 30
0.0
 10
97.487100
 20
187.588148
 30
0.0
 10
97.487100
 20
186.223892
 30
0.0
 10
96.594129
 20
186.223892
 30
0.0
 10
96.594129
 20
187.672485
 30
0.0
 10
96.514754
 20
188.265318
 30
0.0
 10
96.404373
 20
188.365774
 30
0.0
 10
96.231981
 20
188.399260
 30
0.0
 10
96.005638
 20
188.346550
 30
0.0
 10
95.837587
 20
188.188421
 30
0.0
 10
95.733407
 20
187.934793
 30
0.0
 10
95.698680
 20
187.590629
 30
0.0
 10
95.698680
 20
186.223892
 30
0.0
 10
94.805712
 20
186.223892
 30
0.0
 10
94.805712
 20
189.002017
 30
0.0
 10
95.698680
 20
189.002017
 30
0.0
 10
95.698680
 20
188.595219
 30
0.0
 10
96.073231
 20
188.949927
 30
0.0
 10
96.542039
 20
189.068988
 30
0.0
 10
97.050536
 20
188.930081
 30
0.0
 10
97.385398
 20
188.540648
 30
0.0
  0
LWPOLYLINE
  5
1de
100
AcDbEntity
  8
Layer_1
 62
7
100
AcDbPolyline
 90
9
 70
0
 10
100.123719
 20
186.625728
 30
0.0
 10
100.317196
 20
186.707581
 30
0.0
 10
100.510671
 20
186.625728
 30
0.0
 10
100.592526
 20
186.432251
 30
0.0
 10
100.510671
 20
186.233812
 30
0.0
 10
100.317196
 20
186.151956
 30
0.0
 10
100.123719
 20
186.236292
 30
0.0
 10
100.041863
 20
186.432251
 30
0.0
 10
100.123719
 20
186.625728
 30
0.0
  0
LWPOLYLINE
  5
1df
100
AcDbEntity
  8
Layer_1
 62
7
100
AcDbPolyline
 90
5
 70
0
 10
106.566829
 20
219.232292
 30
0.0
 10
136.556911
 20
219.232292
 30
0.0
 10
136.556911
 20
184.166531
 30
0.0
 10
16.820162
 20
184.166531
 30
0.0
 10
16.820162
 20
219.232292
 30
0.0
  0
ENDSEC
  0
SECTION
  2
OBJECTS
  0
DICTIONARY
  5
C
330
0
100
AcDbDictionary
  3
ACAD_GROUP
350
D
  3
ACAD_MLINESTYLE
350
17
  0
DICTIONARY
  5
D
330
C
100
AcDbDictionary
  0
DICTIONARY
  5
1A
330
C
100
AcDbDictionary
  0
DICTIONARY
  5
17
330
C
100
AcDbDictionary
  3
STANDARD
350
18
  0
DICTIONARY
  5
19
330
C
100
AcDbDictionary
  0
ENDSEC
  0
EOF
