  0
SECTION
  2
BLOCKS
  0
ENDSEC
  0
SECTION
  2
ENTITIES
  0
LINE
  8
0
 10
-27.4
 20
-54.198
 11
-33.1
 21
-54.198
  0
LINE
  8
0
 10
-33.1
 20
-54.198
 11
-33.1
 21
-52.648
  0
LINE
  8
0
 10
-33.1
 20
-52.648
 11
-40
 21
-52.648
  0
LINE
  8
0
 10
-40
 20
-52.648
 11
-40
 21
-57.748
  0
LINE
  8
0
 10
-40
 20
-57.748
 11
-44.875
 21
-57.748
  0
LINE
  8
0
 10
-44.875
 20
-57.748
 11
-46.5
 21
-59.373
  0
LINE
  8
0
 10
-46.5
 20
-59.373
 11
-46.5
 21
-71.123
  0
LINE
  8
0
 10
-46.5
 20
-71.123
 11
-44.875
 21
-72.748
  0
LINE
  8
0
 10
-44.875
 20
-72.748
 11
-40
 21
-72.748
  0
LINE
  8
0
 10
-40
 20
-72.748
 11
-40
 21
-98.5102
  0
LINE
  8
0
 10
-40
 20
-98.5102
 11
-75.7477
 21
-98.5102
  0
LINE
  8
0
 10
-75.7477
 20
-98.5102
 11
-76.2365
 21
-98.5918
  0
LINE
  8
0
 10
-76.2365
 20
-98.5918
 11
-76.7051
 21
-98.7527
  0
LINE
  8
0
 10
-76.7051
 20
-98.7527
 11
-77.1408
 21
-98.9885
  0
LINE
  8
0
 10
-77.1408
 20
-98.9885
 11
-77.5318
 21
-99.2928
  0
LINE
  8
0
 10
-77.5318
 20
-99.2928
 11
-77.8674
 21
-99.6574
  0
LINE
  8
0
 10
-77.8674
 20
-99.6574
 11
-78.1384
 21
-100.072
  0
LINE
  8
0
 10
-78.1384
 20
-100.072
 11
-78.3374
 21
-100.526
  0
LINE
  8
0
 10
-78.3374
 20
-100.526
 11
-78.4591
 21
-101.006
  0
LINE
  8
0
 10
-78.4591
 20
-101.006
 11
-78.5
 21
-101.5
  0
LINE
  8
0
 10
-78.5
 20
-101.5
 11
-78.5
 21
-128.5
  0
LINE
  8
0
 10
-78.5
 20
-128.5
 11
-78.4591
 21
-128.994
  0
LINE
  8
0
 10
-78.4591
 20
-128.994
 11
-78.3374
 21
-129.474
  0
LINE
  8
0
 10
-78.3374
 20
-129.474
 11
-78.1384
 21
-129.928
  0
LINE
  8
0
 10
-78.1384
 20
-129.928
 11
-77.8674
 21
-130.343
  0
LINE
  8
0
 10
-77.8674
 20
-130.343
 11
-77.5318
 21
-130.707
  0
LINE
  8
0
 10
-77.5318
 20
-130.707
 11
-77.1408
 21
-131.012
  0
LINE
  8
0
 10
-77.1408
 20
-131.012
 11
-76.7051
 21
-131.247
  0
LINE
  8
0
 10
-76.7051
 20
-131.247
 11
-76.2365
 21
-131.408
  0
LINE
  8
0
 10
-76.2365
 20
-131.408
 11
-75.7477
 21
-131.49
  0
LINE
  8
0
 10
-75.7477
 20
-131.49
 11
-40
 21
-131.49
  0
LINE
  8
0
 10
-40
 20
-131.49
 11
-40
 21
-134.784
  0
LINE
  8
0
 10
-40
 20
-134.784
 11
-53
 21
-134.784
  0
LINE
  8
0
 10
-53
 20
-134.784
 11
-64.2391
 21
-136.662
  0
LINE
  8
0
 10
-64.2391
 20
-136.662
 11
-64.7305
 21
-136.753
  0
LINE
  8
0
 10
-64.7305
 20
-136.753
 11
-65.2181
 21
-136.863
  0
LINE
  8
0
 10
-65.2181
 20
-136.863
 11
-65.7013
 21
-136.991
  0
LINE
  8
0
 10
-65.7013
 20
-136.991
 11
-66.1795
 21
-137.137
  0
LINE
  8
0
 10
-66.1795
 20
-137.137
 11
-66.6519
 21
-137.3
  0
LINE
  8
0
 10
-66.6519
 20
-137.3
 11
-67.118
 21
-137.481
  0
LINE
  8
0
 10
-67.118
 20
-137.481
 11
-67.5771
 21
-137.678
  0
LINE
  8
0
 10
-67.5771
 20
-137.678
 11
-68.0286
 21
-137.893
  0
LINE
  8
0
 10
-68.0286
 20
-137.893
 11
-68.4719
 21
-138.124
  0
LINE
  8
0
 10
-68.4719
 20
-138.124
 11
-68.9063
 21
-138.371
  0
LINE
  8
0
 10
-68.9063
 20
-138.371
 11
-69.3313
 21
-138.634
  0
LINE
  8
0
 10
-69.3313
 20
-138.634
 11
-69.7462
 21
-138.913
  0
LINE
  8
0
 10
-69.7462
 20
-138.913
 11
-70.1506
 21
-139.207
  0
LINE
  8
0
 10
-70.1506
 20
-139.207
 11
-70.5439
 21
-139.515
  0
LINE
  8
0
 10
-70.5439
 20
-139.515
 11
-70.9255
 21
-139.838
  0
LINE
  8
0
 10
-70.9255
 20
-139.838
 11
-71.2949
 21
-140.175
  0
LINE
  8
0
 10
-71.2949
 20
-140.175
 11
-71.6516
 21
-140.525
  0
LINE
  8
0
 10
-71.6516
 20
-140.525
 11
-71.9951
 21
-140.888
  0
LINE
  8
0
 10
-71.9951
 20
-140.888
 11
-72.325
 21
-141.264
  0
LINE
  8
0
 10
-72.325
 20
-141.264
 11
-72.6407
 21
-141.651
  0
LINE
  8
0
 10
-72.6407
 20
-141.651
 11
-72.942
 21
-142.05
  0
LINE
  8
0
 10
-72.942
 20
-142.05
 11
-73.2282
 21
-142.46
  0
LINE
  8
0
 10
-73.2282
 20
-142.46
 11
-73.4992
 21
-142.88
  0
LINE
  8
0
 10
-73.4992
 20
-142.88
 11
-73.7544
 21
-143.31
  0
LINE
  8
0
 10
-73.7544
 20
-143.31
 11
-73.9936
 21
-143.749
  0
LINE
  8
0
 10
-73.9936
 20
-143.749
 11
-74.2164
 21
-144.196
  0
LINE
  8
0
 10
-74.2164
 20
-144.196
 11
-74.4225
 21
-144.652
  0
LINE
  8
0
 10
-74.4225
 20
-144.652
 11
-74.6117
 21
-145.114
  0
LINE
  8
0
 10
-74.6117
 20
-145.114
 11
-74.7836
 21
-145.584
  0
LINE
  8
0
 10
-74.7836
 20
-145.584
 11
-74.9381
 21
-146.059
  0
LINE
  8
0
 10
-74.9381
 20
-146.059
 11
-75.0749
 21
-146.54
  0
LINE
  8
0
 10
-75.0749
 20
-146.54
 11
-75.1938
 21
-147.025
  0
LINE
  8
0
 10
-75.1938
 20
-147.025
 11
-75.2947
 21
-147.515
  0
LINE
  8
0
 10
-75.2947
 20
-147.515
 11
-75.3775
 21
-148.008
  0
LINE
  8
0
 10
-75.3775
 20
-148.008
 11
-75.4419
 21
-148.503
  0
LINE
  8
0
 10
-75.4419
 20
-148.503
 11
-75.4881
 21
-149.001
  0
LINE
  8
0
 10
-75.4881
 20
-149.001
 11
-75.5158
 21
-149.5
  0
LINE
  8
0
 10
-75.5158
 20
-149.5
 11
-75.525
 21
-150
  0
LINE
  8
0
 10
-75.525
 20
-150
 11
-75.5158
 21
-150.5
  0
LINE
  8
0
 10
-75.5158
 20
-150.5
 11
-75.4881
 21
-150.999
  0
LINE
  8
0
 10
-75.4881
 20
-150.999
 11
-75.4419
 21
-151.497
  0
LINE
  8
0
 10
-75.4419
 20
-151.497
 11
-75.3775
 21
-151.992
  0
LINE
  8
0
 10
-75.3775
 20
-151.992
 11
-75.2947
 21
-152.485
  0
LINE
  8
0
 10
-75.2947
 20
-152.485
 11
-75.1938
 21
-152.975
  0
LINE
  8
0
 10
-75.1938
 20
-152.975
 11
-75.0749
 21
-153.46
  0
LINE
  8
0
 10
-75.0749
 20
-153.46
 11
-74.9381
 21
-153.941
  0
LINE
  8
0
 10
-74.9381
 20
-153.941
 11
-74.7836
 21
-154.416
  0
LINE
  8
0
 10
-74.7836
 20
-154.416
 11
-74.6117
 21
-154.886
  0
LINE
  8
0
 10
-74.6117
 20
-154.886
 11
-74.4225
 21
-155.348
  0
LINE
  8
0
 10
-74.4225
 20
-155.348
 11
-74.2164
 21
-155.804
  0
LINE
  8
0
 10
-74.2164
 20
-155.804
 11
-73.9936
 21
-156.251
  0
LINE
  8
0
 10
-73.9936
 20
-156.251
 11
-73.7544
 21
-156.69
  0
LINE
  8
0
 10
-73.7544
 20
-156.69
 11
-73.4992
 21
-157.12
  0
LINE
  8
0
 10
-73.4992
 20
-157.12
 11
-73.2282
 21
-157.54
  0
LINE
  8
0
 10
-73.2282
 20
-157.54
 11
-72.942
 21
-157.95
  0
LINE
  8
0
 10
-72.942
 20
-157.95
 11
-72.6407
 21
-158.349
  0
LINE
  8
0
 10
-72.6407
 20
-158.349
 11
-72.325
 21
-158.736
  0
LINE
  8
0
 10
-72.325
 20
-158.736
 11
-71.9951
 21
-159.112
  0
LINE
  8
0
 10
-71.9951
 20
-159.112
 11
-71.6516
 21
-159.475
  0
LINE
  8
0
 10
-71.6516
 20
-159.475
 11
-71.2949
 21
-159.825
  0
LINE
  8
0
 10
-71.2949
 20
-159.825
 11
-70.9255
 21
-160.162
  0
LINE
  8
0
 10
-70.9255
 20
-160.162
 11
-70.5439
 21
-160.485
  0
LINE
  8
0
 10
-70.5439
 20
-160.485
 11
-70.1506
 21
-160.793
  0
LINE
  8
0
 10
-70.1506
 20
-160.793
 11
-69.7462
 21
-161.087
  0
LINE
  8
0
 10
-69.7462
 20
-161.087
 11
-69.3313
 21
-161.366
  0
LINE
  8
0
 10
-69.3313
 20
-161.366
 11
-68.9063
 21
-161.629
  0
LINE
  8
0
 10
-68.9063
 20
-161.629
 11
-68.4719
 21
-161.876
  0
LINE
  8
0
 10
-68.4719
 20
-161.876
 11
-68.0286
 21
-162.107
  0
LINE
  8
0
 10
-68.0286
 20
-162.107
 11
-67.5771
 21
-162.322
  0
LINE
  8
0
 10
-67.5771
 20
-162.322
 11
-67.118
 21
-162.519
  0
LINE
  8
0
 10
-67.118
 20
-162.519
 11
-66.6519
 21
-162.7
  0
LINE
  8
0
 10
-66.6519
 20
-162.7
 11
-66.1795
 21
-162.863
  0
LINE
  8
0
 10
-66.1795
 20
-162.863
 11
-65.7013
 21
-163.009
  0
LINE
  8
0
 10
-65.7013
 20
-163.009
 11
-65.2181
 21
-163.137
  0
LINE
  8
0
 10
-65.2181
 20
-163.137
 11
-64.7305
 21
-163.247
  0
LINE
  8
0
 10
-64.7305
 20
-163.247
 11
-64.2391
 21
-163.338
  0
LINE
  8
0
 10
-64.2391
 20
-163.338
 11
-53
 21
-165.216
  0
LINE
  8
0
 10
-53
 20
-165.216
 11
-40
 21
-165.216
  0
LINE
  8
0
 10
-40
 20
-165.216
 11
-40
 21
-171.3
  0
LINE
  8
0
 10
-40
 20
-171.3
 11
40
 21
-171.3
  0
LINE
  8
0
 10
40
 20
-171.3
 11
40
 21
-72.748
  0
LINE
  8
0
 10
40
 20
-72.748
 11
44.875
 21
-72.748
  0
LINE
  8
0
 10
44.875
 20
-72.748
 11
46.5
 21
-71.123
  0
LINE
  8
0
 10
46.5
 20
-71.123
 11
46.5
 21
-59.373
  0
LINE
  8
0
 10
46.5
 20
-59.373
 11
44.875
 21
-57.748
  0
LINE
  8
0
 10
44.875
 20
-57.748
 11
40
 21
-57.748
  0
LINE
  8
0
 10
40
 20
-57.748
 11
40
 21
-52.648
  0
LINE
  8
0
 10
40
 20
-52.648
 11
33.1
 21
-52.648
  0
LINE
  8
0
 10
33.1
 20
-52.648
 11
33.1
 21
-54.198
  0
LINE
  8
0
 10
33.1
 20
-54.198
 11
27.4
 21
-54.198
  0
LINE
  8
0
 10
27.4
 20
-54.198
 11
27.4
 21
-52.648
  0
LINE
  8
0
 10
27.4
 20
-52.648
 11
20.5
 21
-52.648
  0
LINE
  8
0
 10
20.5
 20
-52.648
 11
20.5
 21
-47.848
  0
LINE
  8
0
 10
20.5
 20
-47.848
 11
27.4
 21
-47.848
  0
LINE
  8
0
 10
27.4
 20
-47.848
 11
27.4
 21
-46.298
  0
LINE
  8
0
 10
27.4
 20
-46.298
 11
33.1
 21
-46.298
  0
LINE
  8
0
 10
33.1
 20
-46.298
 11
33.1
 21
-47.848
  0
LINE
  8
0
 10
33.1
 20
-47.848
 11
40
 21
-47.848
  0
LINE
  8
0
 10
40
 20
-47.848
 11
40
 21
-42.748
  0
LINE
  8
0
 10
40
 20
-42.748
 11
44.875
 21
-42.748
  0
LINE
  8
0
 10
44.875
 20
-42.748
 11
46.5
 21
-41.123
  0
LINE
  8
0
 10
46.5
 20
-41.123
 11
46.5
 21
-29.373
  0
LINE
  8
0
 10
46.5
 20
-29.373
 11
44.875
 21
-27.748
  0
LINE
  8
0
 10
44.875
 20
-27.748
 11
40
 21
-27.748
  0
LINE
  8
0
 10
40
 20
-27.748
 11
40
 21
27.748
  0
LINE
  8
0
 10
40
 20
27.748
 11
44.875
 21
27.748
  0
LINE
  8
0
 10
44.875
 20
27.748
 11
46.5
 21
29.373
  0
LINE
  8
0
 10
46.5
 20
29.373
 11
46.5
 21
41.123
  0
LINE
  8
0
 10
46.5
 20
41.123
 11
44.875
 21
42.748
  0
LINE
  8
0
 10
44.875
 20
42.748
 11
40
 21
42.748
  0
LINE
  8
0
 10
40
 20
42.748
 11
40
 21
47.848
  0
LINE
  8
0
 10
40
 20
47.848
 11
33.1
 21
47.848
  0
LINE
  8
0
 10
33.1
 20
47.848
 11
33.1
 21
46.298
  0
LINE
  8
0
 10
33.1
 20
46.298
 11
27.4
 21
46.298
  0
LINE
  8
0
 10
27.4
 20
46.298
 11
27.4
 21
47.848
  0
LINE
  8
0
 10
27.4
 20
47.848
 11
20.5
 21
47.848
  0
LINE
  8
0
 10
20.5
 20
47.848
 11
20.5
 21
52.648
  0
LINE
  8
0
 10
20.5
 20
52.648
 11
27.4
 21
52.648
  0
LINE
  8
0
 10
27.4
 20
52.648
 11
27.4
 21
54.198
  0
LINE
  8
0
 10
27.4
 20
54.198
 11
33.1
 21
54.198
  0
LINE
  8
0
 10
33.1
 20
54.198
 11
33.1
 21
52.648
  0
LINE
  8
0
 10
33.1
 20
52.648
 11
40
 21
52.648
  0
LINE
  8
0
 10
40
 20
52.648
 11
40
 21
57.748
  0
LINE
  8
0
 10
40
 20
57.748
 11
44.875
 21
57.748
  0
LINE
  8
0
 10
44.875
 20
57.748
 11
46.5
 21
59.373
  0
LINE
  8
0
 10
46.5
 20
59.373
 11
46.5
 21
71.123
  0
LINE
  8
0
 10
46.5
 20
71.123
 11
44.875
 21
72.748
  0
LINE
  8
0
 10
44.875
 20
72.748
 11
40
 21
72.748
  0
LINE
  8
0
 10
40
 20
72.748
 11
40
 21
171.3
  0
LINE
  8
0
 10
40
 20
171.3
 11
-40
 21
171.3
  0
LINE
  8
0
 10
-40
 20
171.3
 11
-40
 21
165.216
  0
LINE
  8
0
 10
-40
 20
165.216
 11
-53
 21
165.216
  0
LINE
  8
0
 10
-53
 20
165.216
 11
-64.2391
 21
163.338
  0
LINE
  8
0
 10
-64.2391
 20
163.338
 11
-64.7305
 21
163.247
  0
LINE
  8
0
 10
-64.7305
 20
163.247
 11
-65.2181
 21
163.137
  0
LINE
  8
0
 10
-65.2181
 20
163.137
 11
-65.7013
 21
163.009
  0
LINE
  8
0
 10
-65.7013
 20
163.009
 11
-66.1795
 21
162.863
  0
LINE
  8
0
 10
-66.1795
 20
162.863
 11
-66.6519
 21
162.7
  0
LINE
  8
0
 10
-66.6519
 20
162.7
 11
-67.118
 21
162.519
  0
LINE
  8
0
 10
-67.118
 20
162.519
 11
-67.5771
 21
162.322
  0
LINE
  8
0
 10
-67.5771
 20
162.322
 11
-68.0286
 21
162.107
  0
LINE
  8
0
 10
-68.0286
 20
162.107
 11
-68.4719
 21
161.876
  0
LINE
  8
0
 10
-68.4719
 20
161.876
 11
-68.9063
 21
161.629
  0
LINE
  8
0
 10
-68.9063
 20
161.629
 11
-69.3313
 21
161.366
  0
LINE
  8
0
 10
-69.3313
 20
161.366
 11
-69.7462
 21
161.087
  0
LINE
  8
0
 10
-69.7462
 20
161.087
 11
-70.1506
 21
160.793
  0
LINE
  8
0
 10
-70.1506
 20
160.793
 11
-70.5439
 21
160.485
  0
LINE
  8
0
 10
-70.5439
 20
160.485
 11
-70.9255
 21
160.162
  0
LINE
  8
0
 10
-70.9255
 20
160.162
 11
-71.2949
 21
159.825
  0
LINE
  8
0
 10
-71.2949
 20
159.825
 11
-71.6516
 21
159.475
  0
LINE
  8
0
 10
-71.6516
 20
159.475
 11
-71.9951
 21
159.112
  0
LINE
  8
0
 10
-71.9951
 20
159.112
 11
-72.325
 21
158.736
  0
LINE
  8
0
 10
-72.325
 20
158.736
 11
-72.6407
 21
158.349
  0
LINE
  8
0
 10
-72.6407
 20
158.349
 11
-72.942
 21
157.95
  0
LINE
  8
0
 10
-72.942
 20
157.95
 11
-73.2282
 21
157.54
  0
LINE
  8
0
 10
-73.2282
 20
157.54
 11
-73.4992
 21
157.12
  0
LINE
  8
0
 10
-73.4992
 20
157.12
 11
-73.7544
 21
156.69
  0
LINE
  8
0
 10
-73.7544
 20
156.69
 11
-73.9936
 21
156.251
  0
LINE
  8
0
 10
-73.9936
 20
156.251
 11
-74.2164
 21
155.804
  0
LINE
  8
0
 10
-74.2164
 20
155.804
 11
-74.4225
 21
155.348
  0
LINE
  8
0
 10
-74.4225
 20
155.348
 11
-74.6117
 21
154.886
  0
LINE
  8
0
 10
-74.6117
 20
154.886
 11
-74.7836
 21
154.416
  0
LINE
  8
0
 10
-74.7836
 20
154.416
 11
-74.9381
 21
153.941
  0
LINE
  8
0
 10
-74.9381
 20
153.941
 11
-75.0749
 21
153.46
  0
LINE
  8
0
 10
-75.0749
 20
153.46
 11
-75.1938
 21
152.975
  0
LINE
  8
0
 10
-75.1938
 20
152.975
 11
-75.2947
 21
152.485
  0
LINE
  8
0
 10
-75.2947
 20
152.485
 11
-75.3775
 21
151.992
  0
LINE
  8
0
 10
-75.3775
 20
151.992
 11
-75.4419
 21
151.497
  0
LINE
  8
0
 10
-75.4419
 20
151.497
 11
-75.4881
 21
150.999
  0
LINE
  8
0
 10
-75.4881
 20
150.999
 11
-75.5158
 21
150.5
  0
LINE
  8
0
 10
-75.5158
 20
150.5
 11
-75.525
 21
150
  0
LINE
  8
0
 10
-75.525
 20
150
 11
-75.5158
 21
149.5
  0
LINE
  8
0
 10
-75.5158
 20
149.5
 11
-75.4881
 21
149.001
  0
LINE
  8
0
 10
-75.4881
 20
149.001
 11
-75.4419
 21
148.503
  0
LINE
  8
0
 10
-75.4419
 20
148.503
 11
-75.3775
 21
148.008
  0
LINE
  8
0
 10
-75.3775
 20
148.008
 11
-75.2947
 21
147.515
  0
LINE
  8
0
 10
-75.2947
 20
147.515
 11
-75.1938
 21
147.025
  0
LINE
  8
0
 10
-75.1938
 20
147.025
 11
-75.0749
 21
146.54
  0
LINE
  8
0
 10
-75.0749
 20
146.54
 11
-74.9381
 21
146.059
  0
LINE
  8
0
 10
-74.9381
 20
146.059
 11
-74.7836
 21
145.584
  0
LINE
  8
0
 10
-74.7836
 20
145.584
 11
-74.6117
 21
145.114
  0
LINE
  8
0
 10
-74.6117
 20
145.114
 11
-74.4225
 21
144.652
  0
LINE
  8
0
 10
-74.4225
 20
144.652
 11
-74.2164
 21
144.196
  0
LINE
  8
0
 10
-74.2164
 20
144.196
 11
-73.9936
 21
143.749
  0
LINE
  8
0
 10
-73.9936
 20
143.749
 11
-73.7544
 21
143.31
  0
LINE
  8
0
 10
-73.7544
 20
143.31
 11
-73.4992
 21
142.88
  0
LINE
  8
0
 10
-73.4992
 20
142.88
 11
-73.2282
 21
142.46
  0
LINE
  8
0
 10
-73.2282
 20
142.46
 11
-72.942
 21
142.05
  0
LINE
  8
0
 10
-72.942
 20
142.05
 11
-72.6407
 21
141.651
  0
LINE
  8
0
 10
-72.6407
 20
141.651
 11
-72.325
 21
141.264
  0
LINE
  8
0
 10
-72.325
 20
141.264
 11
-71.9951
 21
140.888
  0
LINE
  8
0
 10
-71.9951
 20
140.888
 11
-71.6516
 21
140.525
  0
LINE
  8
0
 10
-71.6516
 20
140.525
 11
-71.2949
 21
140.175
  0
LINE
  8
0
 10
-71.2949
 20
140.175
 11
-70.9255
 21
139.838
  0
LINE
  8
0
 10
-70.9255
 20
139.838
 11
-70.5439
 21
139.515
  0
LINE
  8
0
 10
-70.5439
 20
139.515
 11
-70.1506
 21
139.207
  0
LINE
  8
0
 10
-70.1506
 20
139.207
 11
-69.7462
 21
138.913
  0
LINE
  8
0
 10
-69.7462
 20
138.913
 11
-69.3313
 21
138.634
  0
LINE
  8
0
 10
-69.3313
 20
138.634
 11
-68.9063
 21
138.371
  0
LINE
  8
0
 10
-68.9063
 20
138.371
 11
-68.4719
 21
138.124
  0
LINE
  8
0
 10
-68.4719
 20
138.124
 11
-68.0286
 21
137.893
  0
LINE
  8
0
 10
-68.0286
 20
137.893
 11
-67.5771
 21
137.678
  0
LINE
  8
0
 10
-67.5771
 20
137.678
 11
-67.118
 21
137.481
  0
LINE
  8
0
 10
-67.118
 20
137.481
 11
-66.6519
 21
137.3
  0
LINE
  8
0
 10
-66.6519
 20
137.3
 11
-66.1795
 21
137.137
  0
LINE
  8
0
 10
-66.1795
 20
137.137
 11
-65.7013
 21
136.991
  0
LINE
  8
0
 10
-65.7013
 20
136.991
 11
-65.2181
 21
136.863
  0
LINE
  8
0
 10
-65.2181
 20
136.863
 11
-64.7305
 21
136.753
  0
LINE
  8
0
 10
-64.7305
 20
136.753
 11
-64.2391
 21
136.662
  0
LINE
  8
0
 10
-64.2391
 20
136.662
 11
-53
 21
134.784
  0
LINE
  8
0
 10
-53
 20
134.784
 11
-40
 21
134.784
  0
LINE
  8
0
 10
-40
 20
134.784
 11
-40
 21
131.49
  0
LINE
  8
0
 10
-40
 20
131.49
 11
-75.7477
 21
131.49
  0
LINE
  8
0
 10
-75.7477
 20
131.49
 11
-76.2365
 21
131.408
  0
LINE
  8
0
 10
-76.2365
 20
131.408
 11
-76.7051
 21
131.247
  0
LINE
  8
0
 10
-76.7051
 20
131.247
 11
-77.1408
 21
131.012
  0
LINE
  8
0
 10
-77.1408
 20
131.012
 11
-77.5318
 21
130.707
  0
LINE
  8
0
 10
-77.5318
 20
130.707
 11
-77.8674
 21
130.343
  0
LINE
  8
0
 10
-77.8674
 20
130.343
 11
-78.1384
 21
129.928
  0
LINE
  8
0
 10
-78.1384
 20
129.928
 11
-78.3374
 21
129.474
  0
LINE
  8
0
 10
-78.3374
 20
129.474
 11
-78.4591
 21
128.994
  0
LINE
  8
0
 10
-78.4591
 20
128.994
 11
-78.5
 21
128.5
  0
LINE
  8
0
 10
-78.5
 20
128.5
 11
-78.5
 21
101.5
  0
LINE
  8
0
 10
-78.5
 20
101.5
 11
-78.4591
 21
101.006
  0
LINE
  8
0
 10
-78.4591
 20
101.006
 11
-78.3374
 21
100.526
  0
LINE
  8
0
 10
-78.3374
 20
100.526
 11
-78.1384
 21
100.072
  0
LINE
  8
0
 10
-78.1384
 20
100.072
 11
-77.8674
 21
99.6574
  0
LINE
  8
0
 10
-77.8674
 20
99.6574
 11
-77.5318
 21
99.2928
  0
LINE
  8
0
 10
-77.5318
 20
99.2928
 11
-77.1408
 21
98.9885
  0
LINE
  8
0
 10
-77.1408
 20
98.9885
 11
-76.7051
 21
98.7527
  0
LINE
  8
0
 10
-76.7051
 20
98.7527
 11
-76.2365
 21
98.5918
  0
LINE
  8
0
 10
-76.2365
 20
98.5918
 11
-75.7477
 21
98.5102
  0
LINE
  8
0
 10
-75.7477
 20
98.5102
 11
-40
 21
98.5102
  0
LINE
  8
0
 10
-40
 20
98.5102
 11
-40
 21
72.748
  0
LINE
  8
0
 10
-40
 20
72.748
 11
-44.875
 21
72.748
  0
LINE
  8
0
 10
-44.875
 20
72.748
 11
-46.5
 21
71.123
  0
LINE
  8
0
 10
-46.5
 20
71.123
 11
-46.5
 21
59.373
  0
LINE
  8
0
 10
-46.5
 20
59.373
 11
-44.875
 21
57.748
  0
LINE
  8
0
 10
-44.875
 20
57.748
 11
-40
 21
57.748
  0
LINE
  8
0
 10
-40
 20
57.748
 11
-40
 21
52.648
  0
LINE
  8
0
 10
-40
 20
52.648
 11
-33.1
 21
52.648
  0
LINE
  8
0
 10
-33.1
 20
52.648
 11
-33.1
 21
54.198
  0
LINE
  8
0
 10
-33.1
 20
54.198
 11
-27.4
 21
54.198
  0
LINE
  8
0
 10
-27.4
 20
54.198
 11
-27.4
 21
52.648
  0
LINE
  8
0
 10
-27.4
 20
52.648
 11
-20.5
 21
52.648
  0
LINE
  8
0
 10
-20.5
 20
52.648
 11
-20.5
 21
47.848
  0
LINE
  8
0
 10
-20.5
 20
47.848
 11
-27.4
 21
47.848
  0
LINE
  8
0
 10
-27.4
 20
47.848
 11
-27.4
 21
46.298
  0
LINE
  8
0
 10
-27.4
 20
46.298
 11
-33.1
 21
46.298
  0
LINE
  8
0
 10
-33.1
 20
46.298
 11
-33.1
 21
47.848
  0
LINE
  8
0
 10
-33.1
 20
47.848
 11
-40
 21
47.848
  0
LINE
  8
0
 10
-40
 20
47.848
 11
-40
 21
42.748
  0
LINE
  8
0
 10
-40
 20
42.748
 11
-44.875
 21
42.748
  0
LINE
  8
0
 10
-44.875
 20
42.748
 11
-46.5
 21
41.123
  0
LINE
  8
0
 10
-46.5
 20
41.123
 11
-46.5
 21
29.373
  0
LINE
  8
0
 10
-46.5
 20
29.373
 11
-44.875
 21
27.748
  0
LINE
  8
0
 10
-44.875
 20
27.748
 11
-40
 21
27.748
  0
LINE
  8
0
 10
-40
 20
27.748
 11
-40
 21
15.2156
  0
LINE
  8
0
 10
-40
 20
15.2156
 11
-53
 21
15.2156
  0
LINE
  8
0
 10
-53
 20
15.2156
 11
-64.2391
 21
13.3384
  0
LINE
  8
0
 10
-64.2391
 20
13.3384
 11
-64.7305
 21
13.2465
  0
LINE
  8
0
 10
-64.7305
 20
13.2465
 11
-65.2181
 21
13.1366
  0
LINE
  8
0
 10
-65.2181
 20
13.1366
 11
-65.7013
 21
13.0087
  0
LINE
  8
0
 10
-65.7013
 20
13.0087
 11
-66.1795
 21
12.863
  0
LINE
  8
0
 10
-66.1795
 20
12.863
 11
-66.6519
 21
12.6998
  0
LINE
  8
0
 10
-66.6519
 20
12.6998
 11
-67.118
 21
12.5192
  0
LINE
  8
0
 10
-67.118
 20
12.5192
 11
-67.5771
 21
12.3216
  0
LINE
  8
0
 10
-67.5771
 20
12.3216
 11
-68.0286
 21
12.1071
  0
LINE
  8
0
 10
-68.0286
 20
12.1071
 11
-68.4719
 21
11.876
  0
LINE
  8
0
 10
-68.4719
 20
11.876
 11
-68.9063
 21
11.6288
  0
LINE
  8
0
 10
-68.9063
 20
11.6288
 11
-69.3313
 21
11.3656
  0
LINE
  8
0
 10
-69.3313
 20
11.3656
 11
-69.7462
 21
11.087
  0
LINE
  8
0
 10
-69.7462
 20
11.087
 11
-70.1506
 21
10.7932
  0
LINE
  8
0
 10
-70.1506
 20
10.7932
 11
-70.5439
 21
10.4846
  0
LINE
  8
0
 10
-70.5439
 20
10.4846
 11
-70.9255
 21
10.1618
  0
LINE
  8
0
 10
-70.9255
 20
10.1618
 11
-71.2949
 21
9.82501
  0
LINE
  8
0
 10
-71.2949
 20
9.82501
 11
-71.6516
 21
9.47484
  0
LINE
  8
0
 10
-71.6516
 20
9.47484
 11
-71.9951
 21
9.11172
  0
LINE
  8
0
 10
-71.9951
 20
9.11172
 11
-72.325
 21
8.73618
  0
LINE
  8
0
 10
-72.325
 20
8.73618
 11
-72.6407
 21
8.34868
  0
LINE
  8
0
 10
-72.6407
 20
8.34868
 11
-72.942
 21
7.94978
  0
LINE
  8
0
 10
-72.942
 20
7.94978
 11
-73.2282
 21
7.54004
  0
LINE
  8
0
 10
-73.2282
 20
7.54004
 11
-73.4992
 21
7.11998
  0
LINE
  8
0
 10
-73.4992
 20
7.11998
 11
-73.7544
 21
6.69022
  0
LINE
  8
0
 10
-73.7544
 20
6.69022
 11
-73.9936
 21
6.2513
  0
LINE
  8
0
 10
-73.9936
 20
6.2513
 11
-74.2164
 21
5.80385
  0
LINE
  8
0
 10
-74.2164
 20
5.80385
 11
-74.4225
 21
5.34846
  0
LINE
  8
0
 10
-74.4225
 20
5.34846
 11
-74.6117
 21
4.88579
  0
LINE
  8
0
 10
-74.6117
 20
4.88579
 11
-74.7836
 21
4.41643
  0
LINE
  8
0
 10
-74.7836
 20
4.41643
 11
-74.9381
 21
3.94104
  0
LINE
  8
0
 10
-74.9381
 20
3.94104
 11
-75.0749
 21
3.46027
  0
LINE
  8
0
 10
-75.0749
 20
3.46027
 11
-75.1938
 21
2.97476
  0
LINE
  8
0
 10
-75.1938
 20
2.97476
 11
-75.2947
 21
2.4852
  0
LINE
  8
0
 10
-75.2947
 20
2.4852
 11
-75.3775
 21
1.99225
  0
LINE
  8
0
 10
-75.3775
 20
1.99225
 11
-75.4419
 21
1.49657
  0
LINE
  8
0
 10
-75.4419
 20
1.49657
 11
-75.4881
 21
0.99884
  0
LINE
  8
0
 10
-75.4881
 20
0.99884
 11
-75.5158
 21
0.499756
  0
LINE
  8
0
 10
-75.5158
 20
0.499756
 11
-75.525
 21
0
  0
LINE
  8
0
 10
-75.525
 20
0
 11
-75.5158
 21
-0.499756
  0
LINE
  8
0
 10
-75.5158
 20
-0.499756
 11
-75.4881
 21
-0.99884
  0
LINE
  8
0
 10
-75.4881
 20
-0.99884
 11
-75.4419
 21
-1.49657
  0
LINE
  8
0
 10
-75.4419
 20
-1.49657
 11
-75.3775
 21
-1.99225
  0
LINE
  8
0
 10
-75.3775
 20
-1.99225
 11
-75.2947
 21
-2.4852
  0
LINE
  8
0
 10
-75.2947
 20
-2.4852
 11
-75.1938
 21
-2.97476
  0
LINE
  8
0
 10
-75.1938
 20
-2.97476
 11
-75.0749
 21
-3.46027
  0
LINE
  8
0
 10
-75.0749
 20
-3.46027
 11
-74.9381
 21
-3.94104
  0
LINE
  8
0
 10
-74.9381
 20
-3.94104
 11
-74.7836
 21
-4.41643
  0
LINE
  8
0
 10
-74.7836
 20
-4.41643
 11
-74.6117
 21
-4.88579
  0
LINE
  8
0
 10
-74.6117
 20
-4.88579
 11
-74.4225
 21
-5.34846
  0
LINE
  8
0
 10
-74.4225
 20
-5.34846
 11
-74.2164
 21
-5.80385
  0
LINE
  8
0
 10
-74.2164
 20
-5.80385
 11
-73.9936
 21
-6.2513
  0
LINE
  8
0
 10
-73.9936
 20
-6.2513
 11
-73.7544
 21
-6.69022
  0
LINE
  8
0
 10
-73.7544
 20
-6.69022
 11
-73.4992
 21
-7.11998
  0
LINE
  8
0
 10
-73.4992
 20
-7.11998
 11
-73.2282
 21
-7.54004
  0
LINE
  8
0
 10
-73.2282
 20
-7.54004
 11
-72.942
 21
-7.94978
  0
LINE
  8
0
 10
-72.942
 20
-7.94978
 11
-72.6407
 21
-8.34868
  0
LINE
  8
0
 10
-72.6407
 20
-8.34868
 11
-72.325
 21
-8.73618
  0
LINE
  8
0
 10
-72.325
 20
-8.73618
 11
-71.9951
 21
-9.11172
  0
LINE
  8
0
 10
-71.9951
 20
-9.11172
 11
-71.6516
 21
-9.47484
  0
LINE
  8
0
 10
-71.6516
 20
-9.47484
 11
-71.2949
 21
-9.82501
  0
LINE
  8
0
 10
-71.2949
 20
-9.82501
 11
-70.9255
 21
-10.1618
  0
LINE
  8
0
 10
-70.9255
 20
-10.1618
 11
-70.5439
 21
-10.4846
  0
LINE
  8
0
 10
-70.5439
 20
-10.4846
 11
-70.1506
 21
-10.7932
  0
LINE
  8
0
 10
-70.1506
 20
-10.7932
 11
-69.7462
 21
-11.087
  0
LINE
  8
0
 10
-69.7462
 20
-11.087
 11
-69.3313
 21
-11.3656
  0
LINE
  8
0
 10
-69.3313
 20
-11.3656
 11
-68.9063
 21
-11.6288
  0
LINE
  8
0
 10
-68.9063
 20
-11.6288
 11
-68.4719
 21
-11.876
  0
LINE
  8
0
 10
-68.4719
 20
-11.876
 11
-68.0286
 21
-12.1071
  0
LINE
  8
0
 10
-68.0286
 20
-12.1071
 11
-67.5771
 21
-12.3216
  0
LINE
  8
0
 10
-67.5771
 20
-12.3216
 11
-67.118
 21
-12.5192
  0
LINE
  8
0
 10
-67.118
 20
-12.5192
 11
-66.6519
 21
-12.6998
  0
LINE
  8
0
 10
-66.6519
 20
-12.6998
 11
-66.1795
 21
-12.863
  0
LINE
  8
0
 10
-66.1795
 20
-12.863
 11
-65.7013
 21
-13.0087
  0
LINE
  8
0
 10
-65.7013
 20
-13.0087
 11
-65.2181
 21
-13.1366
  0
LINE
  8
0
 10
-65.2181
 20
-13.1366
 11
-64.7305
 21
-13.2465
  0
LINE
  8
0
 10
-64.7305
 20
-13.2465
 11
-64.2391
 21
-13.3384
  0
LINE
  8
0
 10
-64.2391
 20
-13.3384
 11
-53
 21
-15.2156
  0
LINE
  8
0
 10
-53
 20
-15.2156
 11
-40
 21
-15.2156
  0
LINE
  8
0
 10
-40
 20
-15.2156
 11
-40
 21
-27.748
  0
LINE
  8
0
 10
-40
 20
-27.748
 11
-44.875
 21
-27.748
  0
LINE
  8
0
 10
-44.875
 20
-27.748
 11
-46.5
 21
-29.373
  0
LINE
  8
0
 10
-46.5
 20
-29.373
 11
-46.5
 21
-41.123
  0
LINE
  8
0
 10
-46.5
 20
-41.123
 11
-44.875
 21
-42.748
  0
LINE
  8
0
 10
-44.875
 20
-42.748
 11
-40
 21
-42.748
  0
LINE
  8
0
 10
-40
 20
-42.748
 11
-40
 21
-47.848
  0
LINE
  8
0
 10
-40
 20
-47.848
 11
-33.1
 21
-47.848
  0
LINE
  8
0
 10
-33.1
 20
-47.848
 11
-33.1
 21
-46.298
  0
LINE
  8
0
 10
-33.1
 20
-46.298
 11
-27.4
 21
-46.298
  0
LINE
  8
0
 10
-27.4
 20
-46.298
 11
-27.4
 21
-47.848
  0
LINE
  8
0
 10
-27.4
 20
-47.848
 11
-20.5
 21
-47.848
  0
LINE
  8
0
 10
-20.5
 20
-47.848
 11
-20.5
 21
-52.648
  0
LINE
  8
0
 10
-20.5
 20
-52.648
 11
-27.4
 21
-52.648
  0
LINE
  8
0
 10
-27.4
 20
-52.648
 11
-27.4
 21
-54.198
  0
LINE
  8
0
 10
29.7509
 20
158.612
 11
29.2611
 21
158.703
  0
LINE
  8
0
 10
29.2611
 20
158.703
 11
28.7965
 21
158.883
  0
LINE
  8
0
 10
28.7965
 20
158.883
 11
28.3729
 21
159.145
  0
LINE
  8
0
 10
28.3729
 20
159.145
 11
28.0047
 21
159.481
  0
LINE
  8
0
 10
28.0047
 20
159.481
 11
27.7044
 21
159.879
  0
LINE
  8
0
 10
27.7044
 20
159.879
 11
27.4823
 21
160.325
  0
LINE
  8
0
 10
27.4823
 20
160.325
 11
27.346
 21
160.804
  0
LINE
  8
0
 10
27.346
 20
160.804
 11
27.3
 21
161.3
  0
LINE
  8
0
 10
27.3
 20
161.3
 11
27.346
 21
161.796
  0
LINE
  8
0
 10
27.346
 20
161.796
 11
27.4823
 21
162.275
  0
LINE
  8
0
 10
27.4823
 20
162.275
 11
27.7044
 21
162.721
  0
LINE
  8
0
 10
27.7044
 20
162.721
 11
28.0047
 21
163.119
  0
LINE
  8
0
 10
28.0047
 20
163.119
 11
28.3729
 21
163.455
  0
LINE
  8
0
 10
28.3729
 20
163.455
 11
28.7965
 21
163.717
  0
LINE
  8
0
 10
28.7965
 20
163.717
 11
29.2611
 21
163.897
  0
LINE
  8
0
 10
29.2611
 20
163.897
 11
29.7509
 21
163.988
  0
LINE
  8
0
 10
29.7509
 20
163.988
 11
30.2491
 21
163.988
  0
LINE
  8
0
 10
30.2491
 20
163.988
 11
30.7389
 21
163.897
  0
LINE
  8
0
 10
30.7389
 20
163.897
 11
31.2035
 21
163.717
  0
LINE
  8
0
 10
31.2035
 20
163.717
 11
31.6271
 21
163.455
  0
LINE
  8
0
 10
31.6271
 20
163.455
 11
31.9953
 21
163.119
  0
LINE
  8
0
 10
31.9953
 20
163.119
 11
32.2956
 21
162.721
  0
LINE
  8
0
 10
32.2956
 20
162.721
 11
32.5177
 21
162.275
  0
LINE
  8
0
 10
32.5177
 20
162.275
 11
32.654
 21
161.796
  0
LINE
  8
0
 10
32.654
 20
161.796
 11
32.7
 21
161.3
  0
LINE
  8
0
 10
32.7
 20
161.3
 11
32.654
 21
160.804
  0
LINE
  8
0
 10
32.654
 20
160.804
 11
32.5177
 21
160.325
  0
LINE
  8
0
 10
32.5177
 20
160.325
 11
32.2956
 21
159.879
  0
LINE
  8
0
 10
32.2956
 20
159.879
 11
31.9953
 21
159.481
  0
LINE
  8
0
 10
31.9953
 20
159.481
 11
31.6271
 21
159.145
  0
LINE
  8
0
 10
31.6271
 20
159.145
 11
31.2035
 21
158.883
  0
LINE
  8
0
 10
31.2035
 20
158.883
 11
30.7389
 21
158.703
  0
LINE
  8
0
 10
30.7389
 20
158.703
 11
30.2491
 21
158.612
  0
LINE
  8
0
 10
30.2491
 20
158.612
 11
29.7509
 21
158.612
  0
LINE
  8
0
 10
-30.2491
 20
158.612
 11
-30.7389
 21
158.703
  0
LINE
  8
0
 10
-30.7389
 20
158.703
 11
-31.2035
 21
158.883
  0
LINE
  8
0
 10
-31.2035
 20
158.883
 11
-31.6271
 21
159.145
  0
LINE
  8
0
 10
-31.6271
 20
159.145
 11
-31.9953
 21
159.481
  0
LINE
  8
0
 10
-31.9953
 20
159.481
 11
-32.2956
 21
159.879
  0
LINE
  8
0
 10
-32.2956
 20
159.879
 11
-32.5177
 21
160.325
  0
LINE
  8
0
 10
-32.5177
 20
160.325
 11
-32.654
 21
160.804
  0
LINE
  8
0
 10
-32.654
 20
160.804
 11
-32.7
 21
161.3
  0
LINE
  8
0
 10
-32.7
 20
161.3
 11
-32.654
 21
161.796
  0
LINE
  8
0
 10
-32.654
 20
161.796
 11
-32.5177
 21
162.275
  0
LINE
  8
0
 10
-32.5177
 20
162.275
 11
-32.2956
 21
162.721
  0
LINE
  8
0
 10
-32.2956
 20
162.721
 11
-31.9953
 21
163.119
  0
LINE
  8
0
 10
-31.9953
 20
163.119
 11
-31.6271
 21
163.455
  0
LINE
  8
0
 10
-31.6271
 20
163.455
 11
-31.2035
 21
163.717
  0
LINE
  8
0
 10
-31.2035
 20
163.717
 11
-30.7389
 21
163.897
  0
LINE
  8
0
 10
-30.7389
 20
163.897
 11
-30.2491
 21
163.988
  0
LINE
  8
0
 10
-30.2491
 20
163.988
 11
-29.7509
 21
163.988
  0
LINE
  8
0
 10
-29.7509
 20
163.988
 11
-29.2611
 21
163.897
  0
LINE
  8
0
 10
-29.2611
 20
163.897
 11
-28.7965
 21
163.717
  0
LINE
  8
0
 10
-28.7965
 20
163.717
 11
-28.3729
 21
163.455
  0
LINE
  8
0
 10
-28.3729
 20
163.455
 11
-28.0047
 21
163.119
  0
LINE
  8
0
 10
-28.0047
 20
163.119
 11
-27.7044
 21
162.721
  0
LINE
  8
0
 10
-27.7044
 20
162.721
 11
-27.4823
 21
162.275
  0
LINE
  8
0
 10
-27.4823
 20
162.275
 11
-27.346
 21
161.796
  0
LINE
  8
0
 10
-27.346
 20
161.796
 11
-27.3
 21
161.3
  0
LINE
  8
0
 10
-27.3
 20
161.3
 11
-27.346
 21
160.804
  0
LINE
  8
0
 10
-27.346
 20
160.804
 11
-27.4823
 21
160.325
  0
LINE
  8
0
 10
-27.4823
 20
160.325
 11
-27.7044
 21
159.879
  0
LINE
  8
0
 10
-27.7044
 20
159.879
 11
-28.0047
 21
159.481
  0
LINE
  8
0
 10
-28.0047
 20
159.481
 11
-28.3729
 21
159.145
  0
LINE
  8
0
 10
-28.3729
 20
159.145
 11
-28.7965
 21
158.883
  0
LINE
  8
0
 10
-28.7965
 20
158.883
 11
-29.2611
 21
158.703
  0
LINE
  8
0
 10
-29.2611
 20
158.703
 11
-29.7509
 21
158.612
  0
LINE
  8
0
 10
-29.7509
 20
158.612
 11
-30.2491
 21
158.612
  0
LINE
  8
0
 10
-67.3185
 20
156.642
 11
-67.7486
 21
156.864
  0
LINE
  8
0
 10
-67.7486
 20
156.864
 11
-68.0988
 21
157.198
  0
LINE
  8
0
 10
-68.0988
 20
157.198
 11
-68.3407
 21
157.617
  0
LINE
  8
0
 10
-68.3407
 20
157.617
 11
-68.4548
 21
158.087
  0
LINE
  8
0
 10
-68.4548
 20
158.087
 11
-68.4318
 21
158.571
  0
LINE
  8
0
 10
-68.4318
 20
158.571
 11
-68.2735
 21
159.028
  0
LINE
  8
0
 10
-68.2735
 20
159.028
 11
-67.9928
 21
159.422
  0
LINE
  8
0
 10
-67.9928
 20
159.422
 11
-67.6125
 21
159.721
  0
LINE
  8
0
 10
-67.6125
 20
159.721
 11
-67.1633
 21
159.901
  0
LINE
  8
0
 10
-67.1633
 20
159.901
 11
-66.6816
 21
159.947
  0
LINE
  8
0
 10
-66.6816
 20
159.947
 11
-66.2065
 21
159.855
  0
LINE
  8
0
 10
-66.2065
 20
159.855
 11
-65.7764
 21
159.634
  0
LINE
  8
0
 10
-65.7764
 20
159.634
 11
-65.4262
 21
159.3
  0
LINE
  8
0
 10
-65.4262
 20
159.3
 11
-65.1843
 21
158.881
  0
LINE
  8
0
 10
-65.1843
 20
158.881
 11
-65.0702
 21
158.41
  0
LINE
  8
0
 10
-65.0702
 20
158.41
 11
-65.0932
 21
157.927
  0
LINE
  8
0
 10
-65.0932
 20
157.927
 11
-65.2515
 21
157.47
  0
LINE
  8
0
 10
-65.2515
 20
157.47
 11
-65.5322
 21
157.076
  0
LINE
  8
0
 10
-65.5322
 20
157.076
 11
-65.9125
 21
156.777
  0
LINE
  8
0
 10
-65.9125
 20
156.777
 11
-66.3617
 21
156.597
  0
LINE
  8
0
 10
-66.3617
 20
156.597
 11
-66.8434
 21
156.551
  0
LINE
  8
0
 10
-66.8434
 20
156.551
 11
-67.3185
 21
156.642
  0
LINE
  8
0
 10
-62.4994
 20
143.018
 11
-62.9962
 21
143.071
  0
LINE
  8
0
 10
-62.9962
 20
143.071
 11
-63.4879
 21
143.16
  0
LINE
  8
0
 10
-63.4879
 20
143.16
 11
-63.9721
 21
143.284
  0
LINE
  8
0
 10
-63.9721
 20
143.284
 11
-64.4462
 21
143.441
  0
LINE
  8
0
 10
-64.4462
 20
143.441
 11
-64.9079
 21
143.633
  0
LINE
  8
0
 10
-64.9079
 20
143.633
 11
-65.3547
 21
143.856
  0
LINE
  8
0
 10
-65.3547
 20
143.856
 11
-65.7845
 21
144.111
  0
LINE
  8
0
 10
-65.7845
 20
144.111
 11
-66.1949
 21
144.396
  0
LINE
  8
0
 10
-66.1949
 20
144.396
 11
-66.584
 21
144.71
  0
LINE
  8
0
 10
-66.584
 20
144.71
 11
-66.9497
 21
145.05
  0
LINE
  8
0
 10
-66.9497
 20
145.05
 11
-67.2902
 21
145.416
  0
LINE
  8
0
 10
-67.2902
 20
145.416
 11
-67.6038
 21
145.805
  0
LINE
  8
0
 10
-67.6038
 20
145.805
 11
-67.8888
 21
146.216
  0
LINE
  8
0
 10
-67.8888
 20
146.216
 11
-68.1438
 21
146.645
  0
LINE
  8
0
 10
-68.1438
 20
146.645
 11
-68.3674
 21
147.092
  0
LINE
  8
0
 10
-68.3674
 20
147.092
 11
-68.5586
 21
147.554
  0
LINE
  8
0
 10
-68.5586
 20
147.554
 11
-68.7164
 21
148.028
  0
LINE
  8
0
 10
-68.7164
 20
148.028
 11
-68.84
 21
148.512
  0
LINE
  8
0
 10
-68.84
 20
148.512
 11
-68.9287
 21
149.004
  0
LINE
  8
0
 10
-68.9287
 20
149.004
 11
-68.9822
 21
149.501
  0
LINE
  8
0
 10
-68.9822
 20
149.501
 11
-69
 21
150
  0
LINE
  8
0
 10
-69
 20
150
 11
-68.9822
 21
150.499
  0
LINE
  8
0
 10
-68.9822
 20
150.499
 11
-68.9287
 21
150.996
  0
LINE
  8
0
 10
-68.9287
 20
150.996
 11
-68.84
 21
151.488
  0
LINE
  8
0
 10
-68.84
 20
151.488
 11
-68.7164
 21
151.972
  0
LINE
  8
0
 10
-68.7164
 20
151.972
 11
-68.5586
 21
152.446
  0
LINE
  8
0
 10
-68.5586
 20
152.446
 11
-68.3674
 21
152.908
  0
LINE
  8
0
 10
-68.3674
 20
152.908
 11
-68.1438
 21
153.355
  0
LINE
  8
0
 10
-68.1438
 20
153.355
 11
-67.8888
 21
153.784
  0
LINE
  8
0
 10
-67.8888
 20
153.784
 11
-67.6038
 21
154.195
  0
LINE
  8
0
 10
-67.6038
 20
154.195
 11
-67.2902
 21
154.584
  0
LINE
  8
0
 10
-67.2902
 20
154.584
 11
-66.9497
 21
154.95
  0
LINE
  8
0
 10
-66.9497
 20
154.95
 11
-66.584
 21
155.29
  0
LINE
  8
0
 10
-66.584
 20
155.29
 11
-66.1949
 21
155.604
  0
LINE
  8
0
 10
-66.1949
 20
155.604
 11
-65.7845
 21
155.889
  0
LINE
  8
0
 10
-65.7845
 20
155.889
 11
-65.3547
 21
156.144
  0
LINE
  8
0
 10
-65.3547
 20
156.144
 11
-64.9079
 21
156.367
  0
LINE
  8
0
 10
-64.9079
 20
156.367
 11
-64.4462
 21
156.559
  0
LINE
  8
0
 10
-64.4462
 20
156.559
 11
-63.9721
 21
156.716
  0
LINE
  8
0
 10
-63.9721
 20
156.716
 11
-63.4879
 21
156.84
  0
LINE
  8
0
 10
-63.4879
 20
156.84
 11
-62.9962
 21
156.929
  0
LINE
  8
0
 10
-62.9962
 20
156.929
 11
-62.4994
 21
156.982
  0
LINE
  8
0
 10
-62.4994
 20
156.982
 11
-62
 21
157
  0
LINE
  8
0
 10
-62
 20
157
 11
-61.5006
 21
156.982
  0
LINE
  8
0
 10
-61.5006
 20
156.982
 11
-61.0038
 21
156.929
  0
LINE
  8
0
 10
-61.0038
 20
156.929
 11
-60.512
 21
156.84
  0
LINE
  8
0
 10
-60.512
 20
156.84
 11
-60.0279
 21
156.716
  0
LINE
  8
0
 10
-60.0279
 20
156.716
 11
-59.5537
 21
156.559
  0
LINE
  8
0
 10
-59.5537
 20
156.559
 11
-59.0921
 21
156.367
  0
LINE
  8
0
 10
-59.0921
 20
156.367
 11
-58.6452
 21
156.144
  0
LINE
  8
0
 10
-58.6452
 20
156.144
 11
-58.2155
 21
155.889
  0
LINE
  8
0
 10
-58.2155
 20
155.889
 11
-57.8051
 21
155.604
  0
LINE
  8
0
 10
-57.8051
 20
155.604
 11
-57.416
 21
155.29
  0
LINE
  8
0
 10
-57.416
 20
155.29
 11
-57.0502
 21
154.95
  0
LINE
  8
0
 10
-57.0502
 20
154.95
 11
-56.7097
 21
154.584
  0
LINE
  8
0
 10
-56.7097
 20
154.584
 11
-56.3962
 21
154.195
  0
LINE
  8
0
 10
-56.3962
 20
154.195
 11
-56.1112
 21
153.784
  0
LINE
  8
0
 10
-56.1112
 20
153.784
 11
-55.8562
 21
153.355
  0
LINE
  8
0
 10
-55.8562
 20
153.355
 11
-55.6326
 21
152.908
  0
LINE
  8
0
 10
-55.6326
 20
152.908
 11
-55.4413
 21
152.446
  0
LINE
  8
0
 10
-55.4413
 20
152.446
 11
-55.2835
 21
151.972
  0
LINE
  8
0
 10
-55.2835
 20
151.972
 11
-55.16
 21
151.488
  0
LINE
  8
0
 10
-55.16
 20
151.488
 11
-55.0712
 21
150.996
  0
LINE
  8
0
 10
-55.0712
 20
150.996
 11
-55.0178
 21
150.499
  0
LINE
  8
0
 10
-55.0178
 20
150.499
 11
-55
 21
150
  0
LINE
  8
0
 10
-55
 20
150
 11
-55.0178
 21
149.501
  0
LINE
  8
0
 10
-55.0178
 20
149.501
 11
-55.0712
 21
149.004
  0
LINE
  8
0
 10
-55.0712
 20
149.004
 11
-55.16
 21
148.512
  0
LINE
  8
0
 10
-55.16
 20
148.512
 11
-55.2835
 21
148.028
  0
LINE
  8
0
 10
-55.2835
 20
148.028
 11
-55.4413
 21
147.554
  0
LINE
  8
0
 10
-55.4413
 20
147.554
 11
-55.6326
 21
147.092
  0
LINE
  8
0
 10
-55.6326
 20
147.092
 11
-55.8562
 21
146.645
  0
LINE
  8
0
 10
-55.8562
 20
146.645
 11
-56.1112
 21
146.216
  0
LINE
  8
0
 10
-56.1112
 20
146.216
 11
-56.3962
 21
145.805
  0
LINE
  8
0
 10
-56.3962
 20
145.805
 11
-56.7097
 21
145.416
  0
LINE
  8
0
 10
-56.7097
 20
145.416
 11
-57.0502
 21
145.05
  0
LINE
  8
0
 10
-57.0502
 20
145.05
 11
-57.416
 21
144.71
  0
LINE
  8
0
 10
-57.416
 20
144.71
 11
-57.8051
 21
144.396
  0
LINE
  8
0
 10
-57.8051
 20
144.396
 11
-58.2155
 21
144.111
  0
LINE
  8
0
 10
-58.2155
 20
144.111
 11
-58.6452
 21
143.856
  0
LINE
  8
0
 10
-58.6452
 20
143.856
 11
-59.0921
 21
143.633
  0
LINE
  8
0
 10
-59.0921
 20
143.633
 11
-59.5537
 21
143.441
  0
LINE
  8
0
 10
-59.5537
 20
143.441
 11
-60.0279
 21
143.284
  0
LINE
  8
0
 10
-60.0279
 20
143.284
 11
-60.512
 21
143.16
  0
LINE
  8
0
 10
-60.512
 20
143.16
 11
-61.0038
 21
143.071
  0
LINE
  8
0
 10
-61.0038
 20
143.071
 11
-61.5006
 21
143.018
  0
LINE
  8
0
 10
-61.5006
 20
143.018
 11
-62
 21
143
  0
LINE
  8
0
 10
-62
 20
143
 11
-62.4994
 21
143.018
  0
LINE
  8
0
 10
-52.7169
 20
148.317
 11
-53.1812
 21
148.454
  0
LINE
  8
0
 10
-53.1812
 20
148.454
 11
-53.5883
 21
148.715
  0
LINE
  8
0
 10
-53.5883
 20
148.715
 11
-53.9051
 21
149.081
  0
LINE
  8
0
 10
-53.9051
 20
149.081
 11
-54.1061
 21
149.521
  0
LINE
  8
0
 10
-54.1061
 20
149.521
 11
-54.175
 21
150
  0
LINE
  8
0
 10
-54.175
 20
150
 11
-54.1061
 21
150.479
  0
LINE
  8
0
 10
-54.1061
 20
150.479
 11
-53.9051
 21
150.919
  0
LINE
  8
0
 10
-53.9051
 20
150.919
 11
-53.5883
 21
151.285
  0
LINE
  8
0
 10
-53.5883
 20
151.285
 11
-53.1812
 21
151.546
  0
LINE
  8
0
 10
-53.1812
 20
151.546
 11
-52.7169
 21
151.683
  0
LINE
  8
0
 10
-52.7169
 20
151.683
 11
-52.2331
 21
151.683
  0
LINE
  8
0
 10
-52.2331
 20
151.683
 11
-51.7688
 21
151.546
  0
LINE
  8
0
 10
-51.7688
 20
151.546
 11
-51.3617
 21
151.285
  0
LINE
  8
0
 10
-51.3617
 20
151.285
 11
-51.0449
 21
150.919
  0
LINE
  8
0
 10
-51.0449
 20
150.919
 11
-50.8439
 21
150.479
  0
LINE
  8
0
 10
-50.8439
 20
150.479
 11
-50.775
 21
150
  0
LINE
  8
0
 10
-50.775
 20
150
 11
-50.8439
 21
149.521
  0
LINE
  8
0
 10
-50.8439
 20
149.521
 11
-51.0449
 21
149.081
  0
LINE
  8
0
 10
-51.0449
 20
149.081
 11
-51.3617
 21
148.715
  0
LINE
  8
0
 10
-51.3617
 20
148.715
 11
-51.7688
 21
148.454
  0
LINE
  8
0
 10
-51.7688
 20
148.454
 11
-52.2331
 21
148.317
  0
LINE
  8
0
 10
-52.2331
 20
148.317
 11
-52.7169
 21
148.317
  0
LINE
  8
0
 10
-67.1633
 20
140.099
 11
-67.6125
 21
140.279
  0
LINE
  8
0
 10
-67.6125
 20
140.279
 11
-67.9928
 21
140.578
  0
LINE
  8
0
 10
-67.9928
 20
140.578
 11
-68.2735
 21
140.972
  0
LINE
  8
0
 10
-68.2735
 20
140.972
 11
-68.4318
 21
141.429
  0
LINE
  8
0
 10
-68.4318
 20
141.429
 11
-68.4548
 21
141.913
  0
LINE
  8
0
 10
-68.4548
 20
141.913
 11
-68.3407
 21
142.383
  0
LINE
  8
0
 10
-68.3407
 20
142.383
 11
-68.0988
 21
142.802
  0
LINE
  8
0
 10
-68.0988
 20
142.802
 11
-67.7486
 21
143.136
  0
LINE
  8
0
 10
-67.7486
 20
143.136
 11
-67.3185
 21
143.358
  0
LINE
  8
0
 10
-67.3185
 20
143.358
 11
-66.8434
 21
143.449
  0
LINE
  8
0
 10
-66.8434
 20
143.449
 11
-66.3617
 21
143.403
  0
LINE
  8
0
 10
-66.3617
 20
143.403
 11
-65.9125
 21
143.223
  0
LINE
  8
0
 10
-65.9125
 20
143.223
 11
-65.5322
 21
142.924
  0
LINE
  8
0
 10
-65.5322
 20
142.924
 11
-65.2515
 21
142.53
  0
LINE
  8
0
 10
-65.2515
 20
142.53
 11
-65.0932
 21
142.073
  0
LINE
  8
0
 10
-65.0932
 20
142.073
 11
-65.0702
 21
141.59
  0
LINE
  8
0
 10
-65.0702
 20
141.59
 11
-65.1843
 21
141.119
  0
LINE
  8
0
 10
-65.1843
 20
141.119
 11
-65.4262
 21
140.7
  0
LINE
  8
0
 10
-65.4262
 20
140.7
 11
-65.7764
 21
140.366
  0
LINE
  8
0
 10
-65.7764
 20
140.366
 11
-66.2065
 21
140.145
  0
LINE
  8
0
 10
-66.2065
 20
140.145
 11
-66.6816
 21
140.053
  0
LINE
  8
0
 10
-66.6816
 20
140.053
 11
-67.1633
 21
140.099
  0
LINE
  8
0
 10
-52.2419
 20
123.317
 11
-52.7062
 21
123.454
  0
LINE
  8
0
 10
-52.7062
 20
123.454
 11
-53.1133
 21
123.715
  0
LINE
  8
0
 10
-53.1133
 20
123.715
 11
-53.4301
 21
124.081
  0
LINE
  8
0
 10
-53.4301
 20
124.081
 11
-53.6311
 21
124.521
  0
LINE
  8
0
 10
-53.6311
 20
124.521
 11
-53.7
 21
125
  0
LINE
  8
0
 10
-53.7
 20
125
 11
-53.6311
 21
125.479
  0
LINE
  8
0
 10
-53.6311
 20
125.479
 11
-53.4301
 21
125.919
  0
LINE
  8
0
 10
-53.4301
 20
125.919
 11
-53.1133
 21
126.285
  0
LINE
  8
0
 10
-53.1133
 20
126.285
 11
-52.7062
 21
126.546
  0
LINE
  8
0
 10
-52.7062
 20
126.546
 11
-52.2419
 21
126.683
  0
LINE
  8
0
 10
-52.2419
 20
126.683
 11
-51.7581
 21
126.683
  0
LINE
  8
0
 10
-51.7581
 20
126.683
 11
-51.2938
 21
126.546
  0
LINE
  8
0
 10
-51.2938
 20
126.546
 11
-50.8867
 21
126.285
  0
LINE
  8
0
 10
-50.8867
 20
126.285
 11
-50.5699
 21
125.919
  0
LINE
  8
0
 10
-50.5699
 20
125.919
 11
-50.3689
 21
125.479
  0
LINE
  8
0
 10
-50.3689
 20
125.479
 11
-50.3
 21
125
  0
LINE
  8
0
 10
-50.3
 20
125
 11
-50.3689
 21
124.521
  0
LINE
  8
0
 10
-50.3689
 20
124.521
 11
-50.5699
 21
124.081
  0
LINE
  8
0
 10
-50.5699
 20
124.081
 11
-50.8867
 21
123.715
  0
LINE
  8
0
 10
-50.8867
 20
123.715
 11
-51.2938
 21
123.454
  0
LINE
  8
0
 10
-51.2938
 20
123.454
 11
-51.7581
 21
123.317
  0
LINE
  8
0
 10
-51.7581
 20
123.317
 11
-52.2419
 21
123.317
  0
LINE
  8
0
 10
-72.2419
 20
123.317
 11
-72.7062
 21
123.454
  0
LINE
  8
0
 10
-72.7062
 20
123.454
 11
-73.1133
 21
123.715
  0
LINE
  8
0
 10
-73.1133
 20
123.715
 11
-73.4301
 21
124.081
  0
LINE
  8
0
 10
-73.4301
 20
124.081
 11
-73.6311
 21
124.521
  0
LINE
  8
0
 10
-73.6311
 20
124.521
 11
-73.7
 21
125
  0
LINE
  8
0
 10
-73.7
 20
125
 11
-73.6311
 21
125.479
  0
LINE
  8
0
 10
-73.6311
 20
125.479
 11
-73.4301
 21
125.919
  0
LINE
  8
0
 10
-73.4301
 20
125.919
 11
-73.1133
 21
126.285
  0
LINE
  8
0
 10
-73.1133
 20
126.285
 11
-72.7062
 21
126.546
  0
LINE
  8
0
 10
-72.7062
 20
126.546
 11
-72.2419
 21
126.683
  0
LINE
  8
0
 10
-72.2419
 20
126.683
 11
-71.7581
 21
126.683
  0
LINE
  8
0
 10
-71.7581
 20
126.683
 11
-71.2938
 21
126.546
  0
LINE
  8
0
 10
-71.2938
 20
126.546
 11
-70.8867
 21
126.285
  0
LINE
  8
0
 10
-70.8867
 20
126.285
 11
-70.5699
 21
125.919
  0
LINE
  8
0
 10
-70.5699
 20
125.919
 11
-70.3689
 21
125.479
  0
LINE
  8
0
 10
-70.3689
 20
125.479
 11
-70.3
 21
125
  0
LINE
  8
0
 10
-70.3
 20
125
 11
-70.3689
 21
124.521
  0
LINE
  8
0
 10
-70.3689
 20
124.521
 11
-70.5699
 21
124.081
  0
LINE
  8
0
 10
-70.5699
 20
124.081
 11
-70.8867
 21
123.715
  0
LINE
  8
0
 10
-70.8867
 20
123.715
 11
-71.2938
 21
123.454
  0
LINE
  8
0
 10
-71.2938
 20
123.454
 11
-71.7581
 21
123.317
  0
LINE
  8
0
 10
-71.7581
 20
123.317
 11
-72.2419
 21
123.317
  0
LINE
  8
0
 10
-62.2498
 20
105.303
 11
-62.7486
 21
105.329
  0
LINE
  8
0
 10
-62.7486
 20
105.329
 11
-63.2455
 21
105.38
  0
LINE
  8
0
 10
-63.2455
 20
105.38
 11
-63.739
 21
105.457
  0
LINE
  8
0
 10
-63.739
 20
105.457
 11
-64.228
 21
105.559
  0
LINE
  8
0
 10
-64.228
 20
105.559
 11
-64.711
 21
105.687
  0
LINE
  8
0
 10
-64.711
 20
105.687
 11
-65.1869
 21
105.838
  0
LINE
  8
0
 10
-65.1869
 20
105.838
 11
-65.6543
 21
106.015
  0
LINE
  8
0
 10
-65.6543
 20
106.015
 11
-66.112
 21
106.215
  0
LINE
  8
0
 10
-66.112
 20
106.215
 11
-66.5588
 21
106.438
  0
LINE
  8
0
 10
-66.5588
 20
106.438
 11
-66.9935
 21
106.684
  0
LINE
  8
0
 10
-66.9935
 20
106.684
 11
-67.415
 21
106.952
  0
LINE
  8
0
 10
-67.415
 20
106.952
 11
-67.8221
 21
107.242
  0
LINE
  8
0
 10
-67.8221
 20
107.242
 11
-68.2137
 21
107.552
  0
LINE
  8
0
 10
-68.2137
 20
107.552
 11
-68.5889
 21
107.881
  0
LINE
  8
0
 10
-68.5889
 20
107.881
 11
-68.9467
 21
108.23
  0
LINE
  8
0
 10
-68.9467
 20
108.23
 11
-69.286
 21
108.597
  0
LINE
  8
0
 10
-69.286
 20
108.597
 11
-69.606
 21
108.98
  0
LINE
  8
0
 10
-69.606
 20
108.98
 11
-69.9058
 21
109.38
  0
LINE
  8
0
 10
-69.9058
 20
109.38
 11
-70.1846
 21
109.794
  0
LINE
  8
0
 10
-70.1846
 20
109.794
 11
-70.4418
 21
110.222
  0
LINE
  8
0
 10
-70.4418
 20
110.222
 11
-70.6765
 21
110.663
  0
LINE
  8
0
 10
-70.6765
 20
110.663
 11
-70.8883
 21
111.116
  0
LINE
  8
0
 10
-70.8883
 20
111.116
 11
-71.0764
 21
111.578
  0
LINE
  8
0
 10
-71.0764
 20
111.578
 11
-71.2406
 21
112.05
  0
LINE
  8
0
 10
-71.2406
 20
112.05
 11
-71.3802
 21
112.53
  0
LINE
  8
0
 10
-71.3802
 20
112.53
 11
-71.4949
 21
113.016
  0
LINE
  8
0
 10
-71.4949
 20
113.016
 11
-71.5844
 21
113.507
  0
LINE
  8
0
 10
-71.5844
 20
113.507
 11
-71.6486
 21
114.003
  0
LINE
  8
0
 10
-71.6486
 20
114.003
 11
-71.6871
 21
114.501
  0
LINE
  8
0
 10
-71.6871
 20
114.501
 11
-71.7
 21
115
  0
LINE
  8
0
 10
-71.7
 20
115
 11
-71.6871
 21
115.499
  0
LINE
  8
0
 10
-71.6871
 20
115.499
 11
-71.6486
 21
115.997
  0
LINE
  8
0
 10
-71.6486
 20
115.997
 11
-71.5844
 21
116.493
  0
LINE
  8
0
 10
-71.5844
 20
116.493
 11
-71.4949
 21
116.984
  0
LINE
  8
0
 10
-71.4949
 20
116.984
 11
-71.3802
 21
117.47
  0
LINE
  8
0
 10
-71.3802
 20
117.47
 11
-71.2406
 21
117.95
  0
LINE
  8
0
 10
-71.2406
 20
117.95
 11
-71.0764
 21
118.422
  0
LINE
  8
0
 10
-71.0764
 20
118.422
 11
-70.8883
 21
118.884
  0
LINE
  8
0
 10
-70.8883
 20
118.884
 11
-70.6765
 21
119.337
  0
LINE
  8
0
 10
-70.6765
 20
119.337
 11
-70.4418
 21
119.778
  0
LINE
  8
0
 10
-70.4418
 20
119.778
 11
-70.1846
 21
120.206
  0
LINE
  8
0
 10
-70.1846
 20
120.206
 11
-69.9058
 21
120.62
  0
LINE
  8
0
 10
-69.9058
 20
120.62
 11
-69.606
 21
121.02
  0
LINE
  8
0
 10
-69.606
 20
121.02
 11
-69.286
 21
121.403
  0
LINE
  8
0
 10
-69.286
 20
121.403
 11
-68.9467
 21
121.77
  0
LINE
  8
0
 10
-68.9467
 20
121.77
 11
-68.5889
 21
122.119
  0
LINE
  8
0
 10
-68.5889
 20
122.119
 11
-68.2137
 21
122.448
  0
LINE
  8
0
 10
-68.2137
 20
122.448
 11
-67.8221
 21
122.758
  0
LINE
  8
0
 10
-67.8221
 20
122.758
 11
-67.415
 21
123.048
  0
LINE
  8
0
 10
-67.415
 20
123.048
 11
-66.9935
 21
123.316
  0
LINE
  8
0
 10
-66.9935
 20
123.316
 11
-66.5588
 21
123.562
  0
LINE
  8
0
 10
-66.5588
 20
123.562
 11
-66.112
 21
123.785
  0
LINE
  8
0
 10
-66.112
 20
123.785
 11
-65.6543
 21
123.985
  0
LINE
  8
0
 10
-65.6543
 20
123.985
 11
-65.1869
 21
124.162
  0
LINE
  8
0
 10
-65.1869
 20
124.162
 11
-64.711
 21
124.313
  0
LINE
  8
0
 10
-64.711
 20
124.313
 11
-64.228
 21
124.441
  0
LINE
  8
0
 10
-64.228
 20
124.441
 11
-63.739
 21
124.543
  0
LINE
  8
0
 10
-63.739
 20
124.543
 11
-63.2455
 21
124.62
  0
LINE
  8
0
 10
-63.2455
 20
124.62
 11
-62.7486
 21
124.671
  0
LINE
  8
0
 10
-62.7486
 20
124.671
 11
-62.2498
 21
124.697
  0
LINE
  8
0
 10
-62.2498
 20
124.697
 11
-61.7502
 21
124.697
  0
LINE
  8
0
 10
-61.7502
 20
124.697
 11
-61.2514
 21
124.671
  0
LINE
  8
0
 10
-61.2514
 20
124.671
 11
-60.7545
 21
124.62
  0
LINE
  8
0
 10
-60.7545
 20
124.62
 11
-60.261
 21
124.543
  0
LINE
  8
0
 10
-60.261
 20
124.543
 11
-59.772
 21
124.441
  0
LINE
  8
0
 10
-59.772
 20
124.441
 11
-59.289
 21
124.313
  0
LINE
  8
0
 10
-59.289
 20
124.313
 11
-58.8131
 21
124.162
  0
LINE
  8
0
 10
-58.8131
 20
124.162
 11
-58.3457
 21
123.985
  0
LINE
  8
0
 10
-58.3457
 20
123.985
 11
-57.888
 21
123.785
  0
LINE
  8
0
 10
-57.888
 20
123.785
 11
-57.4412
 21
123.562
  0
LINE
  8
0
 10
-57.4412
 20
123.562
 11
-57.0065
 21
123.316
  0
LINE
  8
0
 10
-57.0065
 20
123.316
 11
-56.585
 21
123.048
  0
LINE
  8
0
 10
-56.585
 20
123.048
 11
-56.1779
 21
122.758
  0
LINE
  8
0
 10
-56.1779
 20
122.758
 11
-55.7862
 21
122.448
  0
LINE
  8
0
 10
-55.7862
 20
122.448
 11
-55.411
 21
122.119
  0
LINE
  8
0
 10
-55.411
 20
122.119
 11
-55.0533
 21
121.77
  0
LINE
  8
0
 10
-55.0533
 20
121.77
 11
-54.714
 21
121.403
  0
LINE
  8
0
 10
-54.714
 20
121.403
 11
-54.394
 21
121.02
  0
LINE
  8
0
 10
-54.394
 20
121.02
 11
-54.0942
 21
120.62
  0
LINE
  8
0
 10
-54.0942
 20
120.62
 11
-53.8154
 21
120.206
  0
LINE
  8
0
 10
-53.8154
 20
120.206
 11
-53.5582
 21
119.778
  0
LINE
  8
0
 10
-53.5582
 20
119.778
 11
-53.3235
 21
119.337
  0
LINE
  8
0
 10
-53.3235
 20
119.337
 11
-53.1117
 21
118.884
  0
LINE
  8
0
 10
-53.1117
 20
118.884
 11
-52.9235
 21
118.422
  0
LINE
  8
0
 10
-52.9235
 20
118.422
 11
-52.7594
 21
117.95
  0
LINE
  8
0
 10
-52.7594
 20
117.95
 11
-52.6198
 21
117.47
  0
LINE
  8
0
 10
-52.6198
 20
117.47
 11
-52.5051
 21
116.984
  0
LINE
  8
0
 10
-52.5051
 20
116.984
 11
-52.4155
 21
116.493
  0
LINE
  8
0
 10
-52.4155
 20
116.493
 11
-52.3514
 21
115.997
  0
LINE
  8
0
 10
-52.3514
 20
115.997
 11
-52.3129
 21
115.499
  0
LINE
  8
0
 10
-52.3129
 20
115.499
 11
-52.3
 21
115
  0
LINE
  8
0
 10
-52.3
 20
115
 11
-52.3129
 21
114.501
  0
LINE
  8
0
 10
-52.3129
 20
114.501
 11
-52.3514
 21
114.003
  0
LINE
  8
0
 10
-52.3514
 20
114.003
 11
-52.4155
 21
113.507
  0
LINE
  8
0
 10
-52.4155
 20
113.507
 11
-52.5051
 21
113.016
  0
LINE
  8
0
 10
-52.5051
 20
113.016
 11
-52.6198
 21
112.53
  0
LINE
  8
0
 10
-52.6198
 20
112.53
 11
-52.7594
 21
112.05
  0
LINE
  8
0
 10
-52.7594
 20
112.05
 11
-52.9235
 21
111.578
  0
LINE
  8
0
 10
-52.9235
 20
111.578
 11
-53.1117
 21
111.116
  0
LINE
  8
0
 10
-53.1117
 20
111.116
 11
-53.3235
 21
110.663
  0
LINE
  8
0
 10
-53.3235
 20
110.663
 11
-53.5582
 21
110.222
  0
LINE
  8
0
 10
-53.5582
 20
110.222
 11
-53.8154
 21
109.794
  0
LINE
  8
0
 10
-53.8154
 20
109.794
 11
-54.0942
 21
109.38
  0
LINE
  8
0
 10
-54.0942
 20
109.38
 11
-54.394
 21
108.98
  0
LINE
  8
0
 10
-54.394
 20
108.98
 11
-54.714
 21
108.597
  0
LINE
  8
0
 10
-54.714
 20
108.597
 11
-55.0533
 21
108.23
  0
LINE
  8
0
 10
-55.0533
 20
108.23
 11
-55.411
 21
107.881
  0
LINE
  8
0
 10
-55.411
 20
107.881
 11
-55.7862
 21
107.552
  0
LINE
  8
0
 10
-55.7862
 20
107.552
 11
-56.1779
 21
107.242
  0
LINE
  8
0
 10
-56.1779
 20
107.242
 11
-56.585
 21
106.952
  0
LINE
  8
0
 10
-56.585
 20
106.952
 11
-57.0065
 21
106.684
  0
LINE
  8
0
 10
-57.0065
 20
106.684
 11
-57.4412
 21
106.438
  0
LINE
  8
0
 10
-57.4412
 20
106.438
 11
-57.888
 21
106.215
  0
LINE
  8
0
 10
-57.888
 20
106.215
 11
-58.3457
 21
106.015
  0
LINE
  8
0
 10
-58.3457
 20
106.015
 11
-58.8131
 21
105.838
  0
LINE
  8
0
 10
-58.8131
 20
105.838
 11
-59.289
 21
105.687
  0
LINE
  8
0
 10
-59.289
 20
105.687
 11
-59.772
 21
105.559
  0
LINE
  8
0
 10
-59.772
 20
105.559
 11
-60.261
 21
105.457
  0
LINE
  8
0
 10
-60.261
 20
105.457
 11
-60.7545
 21
105.38
  0
LINE
  8
0
 10
-60.7545
 20
105.38
 11
-61.2514
 21
105.329
  0
LINE
  8
0
 10
-61.2514
 20
105.329
 11
-61.7502
 21
105.303
  0
LINE
  8
0
 10
-61.7502
 20
105.303
 11
-62.2498
 21
105.303
  0
LINE
  8
0
 10
-52.2419
 20
103.317
 11
-52.7062
 21
103.454
  0
LINE
  8
0
 10
-52.7062
 20
103.454
 11
-53.1133
 21
103.715
  0
LINE
  8
0
 10
-53.1133
 20
103.715
 11
-53.4301
 21
104.081
  0
LINE
  8
0
 10
-53.4301
 20
104.081
 11
-53.6311
 21
104.521
  0
LINE
  8
0
 10
-53.6311
 20
104.521
 11
-53.7
 21
105
  0
LINE
  8
0
 10
-53.7
 20
105
 11
-53.6311
 21
105.479
  0
LINE
  8
0
 10
-53.6311
 20
105.479
 11
-53.4301
 21
105.919
  0
LINE
  8
0
 10
-53.4301
 20
105.919
 11
-53.1133
 21
106.285
  0
LINE
  8
0
 10
-53.1133
 20
106.285
 11
-52.7062
 21
106.546
  0
LINE
  8
0
 10
-52.7062
 20
106.546
 11
-52.2419
 21
106.683
  0
LINE
  8
0
 10
-52.2419
 20
106.683
 11
-51.7581
 21
106.683
  0
LINE
  8
0
 10
-51.7581
 20
106.683
 11
-51.2938
 21
106.546
  0
LINE
  8
0
 10
-51.2938
 20
106.546
 11
-50.8867
 21
106.285
  0
LINE
  8
0
 10
-50.8867
 20
106.285
 11
-50.5699
 21
105.919
  0
LINE
  8
0
 10
-50.5699
 20
105.919
 11
-50.3689
 21
105.479
  0
LINE
  8
0
 10
-50.3689
 20
105.479
 11
-50.3
 21
105
  0
LINE
  8
0
 10
-50.3
 20
105
 11
-50.3689
 21
104.521
  0
LINE
  8
0
 10
-50.3689
 20
104.521
 11
-50.5699
 21
104.081
  0
LINE
  8
0
 10
-50.5699
 20
104.081
 11
-50.8867
 21
103.715
  0
LINE
  8
0
 10
-50.8867
 20
103.715
 11
-51.2938
 21
103.454
  0
LINE
  8
0
 10
-51.2938
 20
103.454
 11
-51.7581
 21
103.317
  0
LINE
  8
0
 10
-51.7581
 20
103.317
 11
-52.2419
 21
103.317
  0
LINE
  8
0
 10
-72.2419
 20
103.317
 11
-72.7062
 21
103.454
  0
LINE
  8
0
 10
-72.7062
 20
103.454
 11
-73.1133
 21
103.715
  0
LINE
  8
0
 10
-73.1133
 20
103.715
 11
-73.4301
 21
104.081
  0
LINE
  8
0
 10
-73.4301
 20
104.081
 11
-73.6311
 21
104.521
  0
LINE
  8
0
 10
-73.6311
 20
104.521
 11
-73.7
 21
105
  0
LINE
  8
0
 10
-73.7
 20
105
 11
-73.6311
 21
105.479
  0
LINE
  8
0
 10
-73.6311
 20
105.479
 11
-73.4301
 21
105.919
  0
LINE
  8
0
 10
-73.4301
 20
105.919
 11
-73.1133
 21
106.285
  0
LINE
  8
0
 10
-73.1133
 20
106.285
 11
-72.7062
 21
106.546
  0
LINE
  8
0
 10
-72.7062
 20
106.546
 11
-72.2419
 21
106.683
  0
LINE
  8
0
 10
-72.2419
 20
106.683
 11
-71.7581
 21
106.683
  0
LINE
  8
0
 10
-71.7581
 20
106.683
 11
-71.2938
 21
106.546
  0
LINE
  8
0
 10
-71.2938
 20
106.546
 11
-70.8867
 21
106.285
  0
LINE
  8
0
 10
-70.8867
 20
106.285
 11
-70.5699
 21
105.919
  0
LINE
  8
0
 10
-70.5699
 20
105.919
 11
-70.3689
 21
105.479
  0
LINE
  8
0
 10
-70.3689
 20
105.479
 11
-70.3
 21
105
  0
LINE
  8
0
 10
-70.3
 20
105
 11
-70.3689
 21
104.521
  0
LINE
  8
0
 10
-70.3689
 20
104.521
 11
-70.5699
 21
104.081
  0
LINE
  8
0
 10
-70.5699
 20
104.081
 11
-70.8867
 21
103.715
  0
LINE
  8
0
 10
-70.8867
 20
103.715
 11
-71.2938
 21
103.454
  0
LINE
  8
0
 10
-71.2938
 20
103.454
 11
-71.7581
 21
103.317
  0
LINE
  8
0
 10
-71.7581
 20
103.317
 11
-72.2419
 21
103.317
  0
LINE
  8
0
 10
-67.3185
 20
6.64238
 11
-67.7486
 21
6.86411
  0
LINE
  8
0
 10
-67.7486
 20
6.86411
 11
-68.0988
 21
7.19801
  0
LINE
  8
0
 10
-68.0988
 20
7.19801
 11
-68.3407
 21
7.61707
  0
LINE
  8
0
 10
-68.3407
 20
7.61707
 11
-68.4548
 21
8.0873
  0
LINE
  8
0
 10
-68.4548
 20
8.0873
 11
-68.4318
 21
8.57062
  0
LINE
  8
0
 10
-68.4318
 20
8.57062
 11
-68.2735
 21
9.02786
  0
LINE
  8
0
 10
-68.2735
 20
9.02786
 11
-67.9928
 21
9.42201
  0
LINE
  8
0
 10
-67.9928
 20
9.42201
 11
-67.6125
 21
9.72113
  0
LINE
  8
0
 10
-67.6125
 20
9.72113
 11
-67.1633
 21
9.90097
  0
LINE
  8
0
 10
-67.1633
 20
9.90097
 11
-66.6816
 21
9.94696
  0
LINE
  8
0
 10
-66.6816
 20
9.94696
 11
-66.2065
 21
9.85539
  0
LINE
  8
0
 10
-66.2065
 20
9.85539
 11
-65.7764
 21
9.63367
  0
LINE
  8
0
 10
-65.7764
 20
9.63367
 11
-65.4262
 21
9.29976
  0
LINE
  8
0
 10
-65.4262
 20
9.29976
 11
-65.1843
 21
8.88071
  0
LINE
  8
0
 10
-65.1843
 20
8.88071
 11
-65.0702
 21
8.41048
  0
LINE
  8
0
 10
-65.0702
 20
8.41048
 11
-65.0932
 21
7.92715
  0
LINE
  8
0
 10
-65.0932
 20
7.92715
 11
-65.2515
 21
7.46989
  0
LINE
  8
0
 10
-65.2515
 20
7.46989
 11
-65.5322
 21
7.07574
  0
LINE
  8
0
 10
-65.5322
 20
7.07574
 11
-65.9125
 21
6.77664
  0
LINE
  8
0
 10
-65.9125
 20
6.77664
 11
-66.3617
 21
6.5968
  0
LINE
  8
0
 10
-66.3617
 20
6.5968
 11
-66.8434
 21
6.55081
  0
LINE
  8
0
 10
-66.8434
 20
6.55081
 11
-67.3185
 21
6.64238
  0
LINE
  8
0
 10
-62.4994
 20
-6.98216
 11
-62.9962
 21
-6.92874
  0
LINE
  8
0
 10
-62.9962
 20
-6.92874
 11
-63.4879
 21
-6.84003
  0
LINE
  8
0
 10
-63.4879
 20
-6.84003
 11
-63.9721
 21
-6.71645
  0
LINE
  8
0
 10
-63.9721
 20
-6.71645
 11
-64.4462
 21
-6.55864
  0
LINE
  8
0
 10
-64.4462
 20
-6.55864
 11
-64.9079
 21
-6.36742
  0
LINE
  8
0
 10
-64.9079
 20
-6.36742
 11
-65.3547
 21
-6.14374
  0
LINE
  8
0
 10
-65.3547
 20
-6.14374
 11
-65.7845
 21
-5.88876
  0
LINE
  8
0
 10
-65.7845
 20
-5.88876
 11
-66.1949
 21
-5.60378
  0
LINE
  8
0
 10
-66.1949
 20
-5.60378
 11
-66.584
 21
-5.29024
  0
LINE
  8
0
 10
-66.584
 20
-5.29024
 11
-66.9497
 21
-4.94974
  0
LINE
  8
0
 10
-66.9497
 20
-4.94974
 11
-67.2902
 21
-4.58401
  0
LINE
  8
0
 10
-67.2902
 20
-4.58401
 11
-67.6038
 21
-4.19493
  0
LINE
  8
0
 10
-67.6038
 20
-4.19493
 11
-67.8888
 21
-3.78448
  0
LINE
  8
0
 10
-67.8888
 20
-3.78448
 11
-68.1438
 21
-3.35474
  0
LINE
  8
0
 10
-68.1438
 20
-3.35474
 11
-68.3674
 21
-2.9079
  0
LINE
  8
0
 10
-68.3674
 20
-2.9079
 11
-68.5586
 21
-2.44624
  0
LINE
  8
0
 10
-68.5586
 20
-2.44624
 11
-68.7164
 21
-1.97212
  0
LINE
  8
0
 10
-68.7164
 20
-1.97212
 11
-68.84
 21
-1.48795
  0
LINE
  8
0
 10
-68.84
 20
-1.48795
 11
-68.9287
 21
-0.996201
  0
LINE
  8
0
 10
-68.9287
 20
-0.996201
 11
-68.9822
 21
-0.499359
  0
LINE
  8
0
 10
-68.9822
 20
-0.499359
 11
-69
 21
0
  0
LINE
  8
0
 10
-69
 20
0
 11
-68.9822
 21
0.499359
  0
LINE
  8
0
 10
-68.9822
 20
0.499359
 11
-68.9287
 21
0.996201
  0
LINE
  8
0
 10
-68.9287
 20
0.996201
 11
-68.84
 21
1.48795
  0
LINE
  8
0
 10
-68.84
 20
1.48795
 11
-68.7164
 21
1.97212
  0
LINE
  8
0
 10
-68.7164
 20
1.97212
 11
-68.5586
 21
2.44624
  0
LINE
  8
0
 10
-68.5586
 20
2.44624
 11
-68.3674
 21
2.9079
  0
LINE
  8
0
 10
-68.3674
 20
2.9079
 11
-68.1438
 21
3.35474
  0
LINE
  8
0
 10
-68.1438
 20
3.35474
 11
-67.8888
 21
3.78448
  0
LINE
  8
0
 10
-67.8888
 20
3.78448
 11
-67.6038
 21
4.19493
  0
LINE
  8
0
 10
-67.6038
 20
4.19493
 11
-67.2902
 21
4.58401
  0
LINE
  8
0
 10
-67.2902
 20
4.58401
 11
-66.9497
 21
4.94974
  0
LINE
  8
0
 10
-66.9497
 20
4.94974
 11
-66.584
 21
5.29024
  0
LINE
  8
0
 10
-66.584
 20
5.29024
 11
-66.1949
 21
5.60378
  0
LINE
  8
0
 10
-66.1949
 20
5.60378
 11
-65.7845
 21
5.88876
  0
LINE
  8
0
 10
-65.7845
 20
5.88876
 11
-65.3547
 21
6.14374
  0
LINE
  8
0
 10
-65.3547
 20
6.14374
 11
-64.9079
 21
6.36742
  0
LINE
  8
0
 10
-64.9079
 20
6.36742
 11
-64.4462
 21
6.55864
  0
LINE
  8
0
 10
-64.4462
 20
6.55864
 11
-63.9721
 21
6.71645
  0
LINE
  8
0
 10
-63.9721
 20
6.71645
 11
-63.4879
 21
6.84003
  0
LINE
  8
0
 10
-63.4879
 20
6.84003
 11
-62.9962
 21
6.92874
  0
LINE
  8
0
 10
-62.9962
 20
6.92874
 11
-62.4994
 21
6.98216
  0
LINE
  8
0
 10
-62.4994
 20
6.98216
 11
-62
 21
7
  0
LINE
  8
0
 10
-62
 20
7
 11
-61.5006
 21
6.98216
  0
LINE
  8
0
 10
-61.5006
 20
6.98216
 11
-61.0038
 21
6.92874
  0
LINE
  8
0
 10
-61.0038
 20
6.92874
 11
-60.512
 21
6.84003
  0
LINE
  8
0
 10
-60.512
 20
6.84003
 11
-60.0279
 21
6.71645
  0
LINE
  8
0
 10
-60.0279
 20
6.71645
 11
-59.5537
 21
6.55864
  0
LINE
  8
0
 10
-59.5537
 20
6.55864
 11
-59.0921
 21
6.36742
  0
LINE
  8
0
 10
-59.0921
 20
6.36742
 11
-58.6452
 21
6.14374
  0
LINE
  8
0
 10
-58.6452
 20
6.14374
 11
-58.2155
 21
5.88876
  0
LINE
  8
0
 10
-58.2155
 20
5.88876
 11
-57.8051
 21
5.60378
  0
LINE
  8
0
 10
-57.8051
 20
5.60378
 11
-57.416
 21
5.29024
  0
LINE
  8
0
 10
-57.416
 20
5.29024
 11
-57.0502
 21
4.94974
  0
LINE
  8
0
 10
-57.0502
 20
4.94974
 11
-56.7097
 21
4.58401
  0
LINE
  8
0
 10
-56.7097
 20
4.58401
 11
-56.3962
 21
4.19493
  0
LINE
  8
0
 10
-56.3962
 20
4.19493
 11
-56.1112
 21
3.78448
  0
LINE
  8
0
 10
-56.1112
 20
3.78448
 11
-55.8562
 21
3.35474
  0
LINE
  8
0
 10
-55.8562
 20
3.35474
 11
-55.6326
 21
2.9079
  0
LINE
  8
0
 10
-55.6326
 20
2.9079
 11
-55.4413
 21
2.44624
  0
LINE
  8
0
 10
-55.4413
 20
2.44624
 11
-55.2835
 21
1.97212
  0
LINE
  8
0
 10
-55.2835
 20
1.97212
 11
-55.16
 21
1.48795
  0
LINE
  8
0
 10
-55.16
 20
1.48795
 11
-55.0712
 21
0.996201
  0
LINE
  8
0
 10
-55.0712
 20
0.996201
 11
-55.0178
 21
0.499359
  0
LINE
  8
0
 10
-55.0178
 20
0.499359
 11
-55
 21
0
  0
LINE
  8
0
 10
-55
 20
0
 11
-55.0178
 21
-0.499359
  0
LINE
  8
0
 10
-55.0178
 20
-0.499359
 11
-55.0712
 21
-0.996201
  0
LINE
  8
0
 10
-55.0712
 20
-0.996201
 11
-55.16
 21
-1.48795
  0
LINE
  8
0
 10
-55.16
 20
-1.48795
 11
-55.2835
 21
-1.97212
  0
LINE
  8
0
 10
-55.2835
 20
-1.97212
 11
-55.4413
 21
-2.44624
  0
LINE
  8
0
 10
-55.4413
 20
-2.44624
 11
-55.6326
 21
-2.9079
  0
LINE
  8
0
 10
-55.6326
 20
-2.9079
 11
-55.8562
 21
-3.35474
  0
LINE
  8
0
 10
-55.8562
 20
-3.35474
 11
-56.1112
 21
-3.78448
  0
LINE
  8
0
 10
-56.1112
 20
-3.78448
 11
-56.3962
 21
-4.19493
  0
LINE
  8
0
 10
-56.3962
 20
-4.19493
 11
-56.7097
 21
-4.58401
  0
LINE
  8
0
 10
-56.7097
 20
-4.58401
 11
-57.0502
 21
-4.94974
  0
LINE
  8
0
 10
-57.0502
 20
-4.94974
 11
-57.416
 21
-5.29024
  0
LINE
  8
0
 10
-57.416
 20
-5.29024
 11
-57.8051
 21
-5.60378
  0
LINE
  8
0
 10
-57.8051
 20
-5.60378
 11
-58.2155
 21
-5.88876
  0
LINE
  8
0
 10
-58.2155
 20
-5.88876
 11
-58.6452
 21
-6.14374
  0
LINE
  8
0
 10
-58.6452
 20
-6.14374
 11
-59.0921
 21
-6.36742
  0
LINE
  8
0
 10
-59.0921
 20
-6.36742
 11
-59.5537
 21
-6.55864
  0
LINE
  8
0
 10
-59.5537
 20
-6.55864
 11
-60.0279
 21
-6.71645
  0
LINE
  8
0
 10
-60.0279
 20
-6.71645
 11
-60.512
 21
-6.84003
  0
LINE
  8
0
 10
-60.512
 20
-6.84003
 11
-61.0038
 21
-6.92874
  0
LINE
  8
0
 10
-61.0038
 20
-6.92874
 11
-61.5006
 21
-6.98216
  0
LINE
  8
0
 10
-61.5006
 20
-6.98216
 11
-62
 21
-7
  0
LINE
  8
0
 10
-62
 20
-7
 11
-62.4994
 21
-6.98216
  0
LINE
  8
0
 10
-52.7169
 20
-1.68269
 11
-53.1812
 21
-1.54637
  0
LINE
  8
0
 10
-53.1812
 20
-1.54637
 11
-53.5883
 21
-1.28476
  0
LINE
  8
0
 10
-53.5883
 20
-1.28476
 11
-53.9051
 21
-0.919083
  0
LINE
  8
0
 10
-53.9051
 20
-0.919083
 11
-54.1061
 21
-0.478943
  0
LINE
  8
0
 10
-54.1061
 20
-0.478943
 11
-54.175
 21
0
  0
LINE
  8
0
 10
-54.175
 20
0
 11
-54.1061
 21
0.478943
  0
LINE
  8
0
 10
-54.1061
 20
0.478943
 11
-53.9051
 21
0.919083
  0
LINE
  8
0
 10
-53.9051
 20
0.919083
 11
-53.5883
 21
1.28476
  0
LINE
  8
0
 10
-53.5883
 20
1.28476
 11
-53.1812
 21
1.54637
  0
LINE
  8
0
 10
-53.1812
 20
1.54637
 11
-52.7169
 21
1.68269
  0
LINE
  8
0
 10
-52.7169
 20
1.68269
 11
-52.2331
 21
1.68269
  0
LINE
  8
0
 10
-52.2331
 20
1.68269
 11
-51.7688
 21
1.54637
  0
LINE
  8
0
 10
-51.7688
 20
1.54637
 11
-51.3617
 21
1.28476
  0
LINE
  8
0
 10
-51.3617
 20
1.28476
 11
-51.0449
 21
0.919083
  0
LINE
  8
0
 10
-51.0449
 20
0.919083
 11
-50.8439
 21
0.478943
  0
LINE
  8
0
 10
-50.8439
 20
0.478943
 11
-50.775
 21
0
  0
LINE
  8
0
 10
-50.775
 20
0
 11
-50.8439
 21
-0.478943
  0
LINE
  8
0
 10
-50.8439
 20
-0.478943
 11
-51.0449
 21
-0.919083
  0
LINE
  8
0
 10
-51.0449
 20
-0.919083
 11
-51.3617
 21
-1.28476
  0
LINE
  8
0
 10
-51.3617
 20
-1.28476
 11
-51.7688
 21
-1.54637
  0
LINE
  8
0
 10
-51.7688
 20
-1.54637
 11
-52.2331
 21
-1.68269
  0
LINE
  8
0
 10
-52.2331
 20
-1.68269
 11
-52.7169
 21
-1.68269
  0
LINE
  8
0
 10
-67.1633
 20
-9.90097
 11
-67.6125
 21
-9.72113
  0
LINE
  8
0
 10
-67.6125
 20
-9.72113
 11
-67.9928
 21
-9.42201
  0
LINE
  8
0
 10
-67.9928
 20
-9.42201
 11
-68.2735
 21
-9.02786
  0
LINE
  8
0
 10
-68.2735
 20
-9.02786
 11
-68.4318
 21
-8.57062
  0
LINE
  8
0
 10
-68.4318
 20
-8.57062
 11
-68.4548
 21
-8.0873
  0
LINE
  8
0
 10
-68.4548
 20
-8.0873
 11
-68.3407
 21
-7.61707
  0
LINE
  8
0
 10
-68.3407
 20
-7.61707
 11
-68.0988
 21
-7.19801
  0
LINE
  8
0
 10
-68.0988
 20
-7.19801
 11
-67.7486
 21
-6.86411
  0
LINE
  8
0
 10
-67.7486
 20
-6.86411
 11
-67.3185
 21
-6.64238
  0
LINE
  8
0
 10
-67.3185
 20
-6.64238
 11
-66.8434
 21
-6.55081
  0
LINE
  8
0
 10
-66.8434
 20
-6.55081
 11
-66.3617
 21
-6.5968
  0
LINE
  8
0
 10
-66.3617
 20
-6.5968
 11
-65.9125
 21
-6.77664
  0
LINE
  8
0
 10
-65.9125
 20
-6.77664
 11
-65.5322
 21
-7.07574
  0
LINE
  8
0
 10
-65.5322
 20
-7.07574
 11
-65.2515
 21
-7.46989
  0
LINE
  8
0
 10
-65.2515
 20
-7.46989
 11
-65.0932
 21
-7.92715
  0
LINE
  8
0
 10
-65.0932
 20
-7.92715
 11
-65.0702
 21
-8.41048
  0
LINE
  8
0
 10
-65.0702
 20
-8.41048
 11
-65.1843
 21
-8.88071
  0
LINE
  8
0
 10
-65.1843
 20
-8.88071
 11
-65.4262
 21
-9.29976
  0
LINE
  8
0
 10
-65.4262
 20
-9.29976
 11
-65.7764
 21
-9.63367
  0
LINE
  8
0
 10
-65.7764
 20
-9.63367
 11
-66.2065
 21
-9.85539
  0
LINE
  8
0
 10
-66.2065
 20
-9.85539
 11
-66.6816
 21
-9.94696
  0
LINE
  8
0
 10
-66.6816
 20
-9.94696
 11
-67.1633
 21
-9.90097
  0
LINE
  8
0
 10
-52.2419
 20
-106.683
 11
-52.7062
 21
-106.546
  0
LINE
  8
0
 10
-52.7062
 20
-106.546
 11
-53.1133
 21
-106.285
  0
LINE
  8
0
 10
-53.1133
 20
-106.285
 11
-53.4301
 21
-105.919
  0
LINE
  8
0
 10
-53.4301
 20
-105.919
 11
-53.6311
 21
-105.479
  0
LINE
  8
0
 10
-53.6311
 20
-105.479
 11
-53.7
 21
-105
  0
LINE
  8
0
 10
-53.7
 20
-105
 11
-53.6311
 21
-104.521
  0
LINE
  8
0
 10
-53.6311
 20
-104.521
 11
-53.4301
 21
-104.081
  0
LINE
  8
0
 10
-53.4301
 20
-104.081
 11
-53.1133
 21
-103.715
  0
LINE
  8
0
 10
-53.1133
 20
-103.715
 11
-52.7062
 21
-103.454
  0
LINE
  8
0
 10
-52.7062
 20
-103.454
 11
-52.2419
 21
-103.317
  0
LINE
  8
0
 10
-52.2419
 20
-103.317
 11
-51.7581
 21
-103.317
  0
LINE
  8
0
 10
-51.7581
 20
-103.317
 11
-51.2938
 21
-103.454
  0
LINE
  8
0
 10
-51.2938
 20
-103.454
 11
-50.8867
 21
-103.715
  0
LINE
  8
0
 10
-50.8867
 20
-103.715
 11
-50.5699
 21
-104.081
  0
LINE
  8
0
 10
-50.5699
 20
-104.081
 11
-50.3689
 21
-104.521
  0
LINE
  8
0
 10
-50.3689
 20
-104.521
 11
-50.3
 21
-105
  0
LINE
  8
0
 10
-50.3
 20
-105
 11
-50.3689
 21
-105.479
  0
LINE
  8
0
 10
-50.3689
 20
-105.479
 11
-50.5699
 21
-105.919
  0
LINE
  8
0
 10
-50.5699
 20
-105.919
 11
-50.8867
 21
-106.285
  0
LINE
  8
0
 10
-50.8867
 20
-106.285
 11
-51.2938
 21
-106.546
  0
LINE
  8
0
 10
-51.2938
 20
-106.546
 11
-51.7581
 21
-106.683
  0
LINE
  8
0
 10
-51.7581
 20
-106.683
 11
-52.2419
 21
-106.683
  0
LINE
  8
0
 10
-72.2419
 20
-106.683
 11
-72.7062
 21
-106.546
  0
LINE
  8
0
 10
-72.7062
 20
-106.546
 11
-73.1133
 21
-106.285
  0
LINE
  8
0
 10
-73.1133
 20
-106.285
 11
-73.4301
 21
-105.919
  0
LINE
  8
0
 10
-73.4301
 20
-105.919
 11
-73.6311
 21
-105.479
  0
LINE
  8
0
 10
-73.6311
 20
-105.479
 11
-73.7
 21
-105
  0
LINE
  8
0
 10
-73.7
 20
-105
 11
-73.6311
 21
-104.521
  0
LINE
  8
0
 10
-73.6311
 20
-104.521
 11
-73.4301
 21
-104.081
  0
LINE
  8
0
 10
-73.4301
 20
-104.081
 11
-73.1133
 21
-103.715
  0
LINE
  8
0
 10
-73.1133
 20
-103.715
 11
-72.7062
 21
-103.454
  0
LINE
  8
0
 10
-72.7062
 20
-103.454
 11
-72.2419
 21
-103.317
  0
LINE
  8
0
 10
-72.2419
 20
-103.317
 11
-71.7581
 21
-103.317
  0
LINE
  8
0
 10
-71.7581
 20
-103.317
 11
-71.2938
 21
-103.454
  0
LINE
  8
0
 10
-71.2938
 20
-103.454
 11
-70.8867
 21
-103.715
  0
LINE
  8
0
 10
-70.8867
 20
-103.715
 11
-70.5699
 21
-104.081
  0
LINE
  8
0
 10
-70.5699
 20
-104.081
 11
-70.3689
 21
-104.521
  0
LINE
  8
0
 10
-70.3689
 20
-104.521
 11
-70.3
 21
-105
  0
LINE
  8
0
 10
-70.3
 20
-105
 11
-70.3689
 21
-105.479
  0
LINE
  8
0
 10
-70.3689
 20
-105.479
 11
-70.5699
 21
-105.919
  0
LINE
  8
0
 10
-70.5699
 20
-105.919
 11
-70.8867
 21
-106.285
  0
LINE
  8
0
 10
-70.8867
 20
-106.285
 11
-71.2938
 21
-106.546
  0
LINE
  8
0
 10
-71.2938
 20
-106.546
 11
-71.7581
 21
-106.683
  0
LINE
  8
0
 10
-71.7581
 20
-106.683
 11
-72.2419
 21
-106.683
  0
LINE
  8
0
 10
-62.2498
 20
-124.697
 11
-62.7486
 21
-124.671
  0
LINE
  8
0
 10
-62.7486
 20
-124.671
 11
-63.2455
 21
-124.62
  0
LINE
  8
0
 10
-63.2455
 20
-124.62
 11
-63.739
 21
-124.543
  0
LINE
  8
0
 10
-63.739
 20
-124.543
 11
-64.228
 21
-124.441
  0
LINE
  8
0
 10
-64.228
 20
-124.441
 11
-64.711
 21
-124.313
  0
LINE
  8
0
 10
-64.711
 20
-124.313
 11
-65.1869
 21
-124.162
  0
LINE
  8
0
 10
-65.1869
 20
-124.162
 11
-65.6543
 21
-123.985
  0
LINE
  8
0
 10
-65.6543
 20
-123.985
 11
-66.112
 21
-123.785
  0
LINE
  8
0
 10
-66.112
 20
-123.785
 11
-66.5588
 21
-123.562
  0
LINE
  8
0
 10
-66.5588
 20
-123.562
 11
-66.9935
 21
-123.316
  0
LINE
  8
0
 10
-66.9935
 20
-123.316
 11
-67.415
 21
-123.048
  0
LINE
  8
0
 10
-67.415
 20
-123.048
 11
-67.8221
 21
-122.758
  0
LINE
  8
0
 10
-67.8221
 20
-122.758
 11
-68.2137
 21
-122.448
  0
LINE
  8
0
 10
-68.2137
 20
-122.448
 11
-68.5889
 21
-122.119
  0
LINE
  8
0
 10
-68.5889
 20
-122.119
 11
-68.9467
 21
-121.77
  0
LINE
  8
0
 10
-68.9467
 20
-121.77
 11
-69.286
 21
-121.403
  0
LINE
  8
0
 10
-69.286
 20
-121.403
 11
-69.606
 21
-121.02
  0
LINE
  8
0
 10
-69.606
 20
-121.02
 11
-69.9058
 21
-120.62
  0
LINE
  8
0
 10
-69.9058
 20
-120.62
 11
-70.1846
 21
-120.206
  0
LINE
  8
0
 10
-70.1846
 20
-120.206
 11
-70.4418
 21
-119.778
  0
LINE
  8
0
 10
-70.4418
 20
-119.778
 11
-70.6765
 21
-119.337
  0
LINE
  8
0
 10
-70.6765
 20
-119.337
 11
-70.8883
 21
-118.884
  0
LINE
  8
0
 10
-70.8883
 20
-118.884
 11
-71.0764
 21
-118.422
  0
LINE
  8
0
 10
-71.0764
 20
-118.422
 11
-71.2406
 21
-117.95
  0
LINE
  8
0
 10
-71.2406
 20
-117.95
 11
-71.3802
 21
-117.47
  0
LINE
  8
0
 10
-71.3802
 20
-117.47
 11
-71.4949
 21
-116.984
  0
LINE
  8
0
 10
-71.4949
 20
-116.984
 11
-71.5844
 21
-116.493
  0
LINE
  8
0
 10
-71.5844
 20
-116.493
 11
-71.6486
 21
-115.997
  0
LINE
  8
0
 10
-71.6486
 20
-115.997
 11
-71.6871
 21
-115.499
  0
LINE
  8
0
 10
-71.6871
 20
-115.499
 11
-71.7
 21
-115
  0
LINE
  8
0
 10
-71.7
 20
-115
 11
-71.6871
 21
-114.501
  0
LINE
  8
0
 10
-71.6871
 20
-114.501
 11
-71.6486
 21
-114.003
  0
LINE
  8
0
 10
-71.6486
 20
-114.003
 11
-71.5844
 21
-113.507
  0
LINE
  8
0
 10
-71.5844
 20
-113.507
 11
-71.4949
 21
-113.016
  0
LINE
  8
0
 10
-71.4949
 20
-113.016
 11
-71.3802
 21
-112.53
  0
LINE
  8
0
 10
-71.3802
 20
-112.53
 11
-71.2406
 21
-112.05
  0
LINE
  8
0
 10
-71.2406
 20
-112.05
 11
-71.0764
 21
-111.578
  0
LINE
  8
0
 10
-71.0764
 20
-111.578
 11
-70.8883
 21
-111.116
  0
LINE
  8
0
 10
-70.8883
 20
-111.116
 11
-70.6765
 21
-110.663
  0
LINE
  8
0
 10
-70.6765
 20
-110.663
 11
-70.4418
 21
-110.222
  0
LINE
  8
0
 10
-70.4418
 20
-110.222
 11
-70.1846
 21
-109.794
  0
LINE
  8
0
 10
-70.1846
 20
-109.794
 11
-69.9058
 21
-109.38
  0
LINE
  8
0
 10
-69.9058
 20
-109.38
 11
-69.606
 21
-108.98
  0
LINE
  8
0
 10
-69.606
 20
-108.98
 11
-69.286
 21
-108.597
  0
LINE
  8
0
 10
-69.286
 20
-108.597
 11
-68.9467
 21
-108.23
  0
LINE
  8
0
 10
-68.9467
 20
-108.23
 11
-68.5889
 21
-107.881
  0
LINE
  8
0
 10
-68.5889
 20
-107.881
 11
-68.2137
 21
-107.552
  0
LINE
  8
0
 10
-68.2137
 20
-107.552
 11
-67.8221
 21
-107.242
  0
LINE
  8
0
 10
-67.8221
 20
-107.242
 11
-67.415
 21
-106.952
  0
LINE
  8
0
 10
-67.415
 20
-106.952
 11
-66.9935
 21
-106.684
  0
LINE
  8
0
 10
-66.9935
 20
-106.684
 11
-66.5588
 21
-106.438
  0
LINE
  8
0
 10
-66.5588
 20
-106.438
 11
-66.112
 21
-106.215
  0
LINE
  8
0
 10
-66.112
 20
-106.215
 11
-65.6543
 21
-106.015
  0
LINE
  8
0
 10
-65.6543
 20
-106.015
 11
-65.1869
 21
-105.838
  0
LINE
  8
0
 10
-65.1869
 20
-105.838
 11
-64.711
 21
-105.687
  0
LINE
  8
0
 10
-64.711
 20
-105.687
 11
-64.228
 21
-105.559
  0
LINE
  8
0
 10
-64.228
 20
-105.559
 11
-63.739
 21
-105.457
  0
LINE
  8
0
 10
-63.739
 20
-105.457
 11
-63.2455
 21
-105.38
  0
LINE
  8
0
 10
-63.2455
 20
-105.38
 11
-62.7486
 21
-105.329
  0
LINE
  8
0
 10
-62.7486
 20
-105.329
 11
-62.2498
 21
-105.303
  0
LINE
  8
0
 10
-62.2498
 20
-105.303
 11
-61.7502
 21
-105.303
  0
LINE
  8
0
 10
-61.7502
 20
-105.303
 11
-61.2514
 21
-105.329
  0
LINE
  8
0
 10
-61.2514
 20
-105.329
 11
-60.7545
 21
-105.38
  0
LINE
  8
0
 10
-60.7545
 20
-105.38
 11
-60.261
 21
-105.457
  0
LINE
  8
0
 10
-60.261
 20
-105.457
 11
-59.772
 21
-105.559
  0
LINE
  8
0
 10
-59.772
 20
-105.559
 11
-59.289
 21
-105.687
  0
LINE
  8
0
 10
-59.289
 20
-105.687
 11
-58.8131
 21
-105.838
  0
LINE
  8
0
 10
-58.8131
 20
-105.838
 11
-58.3457
 21
-106.015
  0
LINE
  8
0
 10
-58.3457
 20
-106.015
 11
-57.888
 21
-106.215
  0
LINE
  8
0
 10
-57.888
 20
-106.215
 11
-57.4412
 21
-106.438
  0
LINE
  8
0
 10
-57.4412
 20
-106.438
 11
-57.0065
 21
-106.684
  0
LINE
  8
0
 10
-57.0065
 20
-106.684
 11
-56.585
 21
-106.952
  0
LINE
  8
0
 10
-56.585
 20
-106.952
 11
-56.1779
 21
-107.242
  0
LINE
  8
0
 10
-56.1779
 20
-107.242
 11
-55.7862
 21
-107.552
  0
LINE
  8
0
 10
-55.7862
 20
-107.552
 11
-55.411
 21
-107.881
  0
LINE
  8
0
 10
-55.411
 20
-107.881
 11
-55.0533
 21
-108.23
  0
LINE
  8
0
 10
-55.0533
 20
-108.23
 11
-54.714
 21
-108.597
  0
LINE
  8
0
 10
-54.714
 20
-108.597
 11
-54.394
 21
-108.98
  0
LINE
  8
0
 10
-54.394
 20
-108.98
 11
-54.0942
 21
-109.38
  0
LINE
  8
0
 10
-54.0942
 20
-109.38
 11
-53.8154
 21
-109.794
  0
LINE
  8
0
 10
-53.8154
 20
-109.794
 11
-53.5582
 21
-110.222
  0
LINE
  8
0
 10
-53.5582
 20
-110.222
 11
-53.3235
 21
-110.663
  0
LINE
  8
0
 10
-53.3235
 20
-110.663
 11
-53.1117
 21
-111.116
  0
LINE
  8
0
 10
-53.1117
 20
-111.116
 11
-52.9235
 21
-111.578
  0
LINE
  8
0
 10
-52.9235
 20
-111.578
 11
-52.7594
 21
-112.05
  0
LINE
  8
0
 10
-52.7594
 20
-112.05
 11
-52.6198
 21
-112.53
  0
LINE
  8
0
 10
-52.6198
 20
-112.53
 11
-52.5051
 21
-113.016
  0
LINE
  8
0
 10
-52.5051
 20
-113.016
 11
-52.4155
 21
-113.507
  0
LINE
  8
0
 10
-52.4155
 20
-113.507
 11
-52.3514
 21
-114.003
  0
LINE
  8
0
 10
-52.3514
 20
-114.003
 11
-52.3129
 21
-114.501
  0
LINE
  8
0
 10
-52.3129
 20
-114.501
 11
-52.3
 21
-115
  0
LINE
  8
0
 10
-52.3
 20
-115
 11
-52.3129
 21
-115.499
  0
LINE
  8
0
 10
-52.3129
 20
-115.499
 11
-52.3514
 21
-115.997
  0
LINE
  8
0
 10
-52.3514
 20
-115.997
 11
-52.4155
 21
-116.493
  0
LINE
  8
0
 10
-52.4155
 20
-116.493
 11
-52.5051
 21
-116.984
  0
LINE
  8
0
 10
-52.5051
 20
-116.984
 11
-52.6198
 21
-117.47
  0
LINE
  8
0
 10
-52.6198
 20
-117.47
 11
-52.7594
 21
-117.95
  0
LINE
  8
0
 10
-52.7594
 20
-117.95
 11
-52.9235
 21
-118.422
  0
LINE
  8
0
 10
-52.9235
 20
-118.422
 11
-53.1117
 21
-118.884
  0
LINE
  8
0
 10
-53.1117
 20
-118.884
 11
-53.3235
 21
-119.337
  0
LINE
  8
0
 10
-53.3235
 20
-119.337
 11
-53.5582
 21
-119.778
  0
LINE
  8
0
 10
-53.5582
 20
-119.778
 11
-53.8154
 21
-120.206
  0
LINE
  8
0
 10
-53.8154
 20
-120.206
 11
-54.0942
 21
-120.62
  0
LINE
  8
0
 10
-54.0942
 20
-120.62
 11
-54.394
 21
-121.02
  0
LINE
  8
0
 10
-54.394
 20
-121.02
 11
-54.714
 21
-121.403
  0
LINE
  8
0
 10
-54.714
 20
-121.403
 11
-55.0533
 21
-121.77
  0
LINE
  8
0
 10
-55.0533
 20
-121.77
 11
-55.411
 21
-122.119
  0
LINE
  8
0
 10
-55.411
 20
-122.119
 11
-55.7862
 21
-122.448
  0
LINE
  8
0
 10
-55.7862
 20
-122.448
 11
-56.1779
 21
-122.758
  0
LINE
  8
0
 10
-56.1779
 20
-122.758
 11
-56.585
 21
-123.048
  0
LINE
  8
0
 10
-56.585
 20
-123.048
 11
-57.0065
 21
-123.316
  0
LINE
  8
0
 10
-57.0065
 20
-123.316
 11
-57.4412
 21
-123.562
  0
LINE
  8
0
 10
-57.4412
 20
-123.562
 11
-57.888
 21
-123.785
  0
LINE
  8
0
 10
-57.888
 20
-123.785
 11
-58.3457
 21
-123.985
  0
LINE
  8
0
 10
-58.3457
 20
-123.985
 11
-58.8131
 21
-124.162
  0
LINE
  8
0
 10
-58.8131
 20
-124.162
 11
-59.289
 21
-124.313
  0
LINE
  8
0
 10
-59.289
 20
-124.313
 11
-59.772
 21
-124.441
  0
LINE
  8
0
 10
-59.772
 20
-124.441
 11
-60.261
 21
-124.543
  0
LINE
  8
0
 10
-60.261
 20
-124.543
 11
-60.7545
 21
-124.62
  0
LINE
  8
0
 10
-60.7545
 20
-124.62
 11
-61.2514
 21
-124.671
  0
LINE
  8
0
 10
-61.2514
 20
-124.671
 11
-61.7502
 21
-124.697
  0
LINE
  8
0
 10
-61.7502
 20
-124.697
 11
-62.2498
 21
-124.697
  0
LINE
  8
0
 10
-52.2419
 20
-126.683
 11
-52.7062
 21
-126.546
  0
LINE
  8
0
 10
-52.7062
 20
-126.546
 11
-53.1133
 21
-126.285
  0
LINE
  8
0
 10
-53.1133
 20
-126.285
 11
-53.4301
 21
-125.919
  0
LINE
  8
0
 10
-53.4301
 20
-125.919
 11
-53.6311
 21
-125.479
  0
LINE
  8
0
 10
-53.6311
 20
-125.479
 11
-53.7
 21
-125
  0
LINE
  8
0
 10
-53.7
 20
-125
 11
-53.6311
 21
-124.521
  0
LINE
  8
0
 10
-53.6311
 20
-124.521
 11
-53.4301
 21
-124.081
  0
LINE
  8
0
 10
-53.4301
 20
-124.081
 11
-53.1133
 21
-123.715
  0
LINE
  8
0
 10
-53.1133
 20
-123.715
 11
-52.7062
 21
-123.454
  0
LINE
  8
0
 10
-52.7062
 20
-123.454
 11
-52.2419
 21
-123.317
  0
LINE
  8
0
 10
-52.2419
 20
-123.317
 11
-51.7581
 21
-123.317
  0
LINE
  8
0
 10
-51.7581
 20
-123.317
 11
-51.2938
 21
-123.454
  0
LINE
  8
0
 10
-51.2938
 20
-123.454
 11
-50.8867
 21
-123.715
  0
LINE
  8
0
 10
-50.8867
 20
-123.715
 11
-50.5699
 21
-124.081
  0
LINE
  8
0
 10
-50.5699
 20
-124.081
 11
-50.3689
 21
-124.521
  0
LINE
  8
0
 10
-50.3689
 20
-124.521
 11
-50.3
 21
-125
  0
LINE
  8
0
 10
-50.3
 20
-125
 11
-50.3689
 21
-125.479
  0
LINE
  8
0
 10
-50.3689
 20
-125.479
 11
-50.5699
 21
-125.919
  0
LINE
  8
0
 10
-50.5699
 20
-125.919
 11
-50.8867
 21
-126.285
  0
LINE
  8
0
 10
-50.8867
 20
-126.285
 11
-51.2938
 21
-126.546
  0
LINE
  8
0
 10
-51.2938
 20
-126.546
 11
-51.7581
 21
-126.683
  0
LINE
  8
0
 10
-51.7581
 20
-126.683
 11
-52.2419
 21
-126.683
  0
LINE
  8
0
 10
-72.2419
 20
-126.683
 11
-72.7062
 21
-126.546
  0
LINE
  8
0
 10
-72.7062
 20
-126.546
 11
-73.1133
 21
-126.285
  0
LINE
  8
0
 10
-73.1133
 20
-126.285
 11
-73.4301
 21
-125.919
  0
LINE
  8
0
 10
-73.4301
 20
-125.919
 11
-73.6311
 21
-125.479
  0
LINE
  8
0
 10
-73.6311
 20
-125.479
 11
-73.7
 21
-125
  0
LINE
  8
0
 10
-73.7
 20
-125
 11
-73.6311
 21
-124.521
  0
LINE
  8
0
 10
-73.6311
 20
-124.521
 11
-73.4301
 21
-124.081
  0
LINE
  8
0
 10
-73.4301
 20
-124.081
 11
-73.1133
 21
-123.715
  0
LINE
  8
0
 10
-73.1133
 20
-123.715
 11
-72.7062
 21
-123.454
  0
LINE
  8
0
 10
-72.7062
 20
-123.454
 11
-72.2419
 21
-123.317
  0
LINE
  8
0
 10
-72.2419
 20
-123.317
 11
-71.7581
 21
-123.317
  0
LINE
  8
0
 10
-71.7581
 20
-123.317
 11
-71.2938
 21
-123.454
  0
LINE
  8
0
 10
-71.2938
 20
-123.454
 11
-70.8867
 21
-123.715
  0
LINE
  8
0
 10
-70.8867
 20
-123.715
 11
-70.5699
 21
-124.081
  0
LINE
  8
0
 10
-70.5699
 20
-124.081
 11
-70.3689
 21
-124.521
  0
LINE
  8
0
 10
-70.3689
 20
-124.521
 11
-70.3
 21
-125
  0
LINE
  8
0
 10
-70.3
 20
-125
 11
-70.3689
 21
-125.479
  0
LINE
  8
0
 10
-70.3689
 20
-125.479
 11
-70.5699
 21
-125.919
  0
LINE
  8
0
 10
-70.5699
 20
-125.919
 11
-70.8867
 21
-126.285
  0
LINE
  8
0
 10
-70.8867
 20
-126.285
 11
-71.2938
 21
-126.546
  0
LINE
  8
0
 10
-71.2938
 20
-126.546
 11
-71.7581
 21
-126.683
  0
LINE
  8
0
 10
-71.7581
 20
-126.683
 11
-72.2419
 21
-126.683
  0
LINE
  8
0
 10
-67.3185
 20
-143.358
 11
-67.7486
 21
-143.136
  0
LINE
  8
0
 10
-67.7486
 20
-143.136
 11
-68.0988
 21
-142.802
  0
LINE
  8
0
 10
-68.0988
 20
-142.802
 11
-68.3407
 21
-142.383
  0
LINE
  8
0
 10
-68.3407
 20
-142.383
 11
-68.4548
 21
-141.913
  0
LINE
  8
0
 10
-68.4548
 20
-141.913
 11
-68.4318
 21
-141.429
  0
LINE
  8
0
 10
-68.4318
 20
-141.429
 11
-68.2735
 21
-140.972
  0
LINE
  8
0
 10
-68.2735
 20
-140.972
 11
-67.9928
 21
-140.578
  0
LINE
  8
0
 10
-67.9928
 20
-140.578
 11
-67.6125
 21
-140.279
  0
LINE
  8
0
 10
-67.6125
 20
-140.279
 11
-67.1633
 21
-140.099
  0
LINE
  8
0
 10
-67.1633
 20
-140.099
 11
-66.6816
 21
-140.053
  0
LINE
  8
0
 10
-66.6816
 20
-140.053
 11
-66.2065
 21
-140.145
  0
LINE
  8
0
 10
-66.2065
 20
-140.145
 11
-65.7764
 21
-140.366
  0
LINE
  8
0
 10
-65.7764
 20
-140.366
 11
-65.4262
 21
-140.7
  0
LINE
  8
0
 10
-65.4262
 20
-140.7
 11
-65.1843
 21
-141.119
  0
LINE
  8
0
 10
-65.1843
 20
-141.119
 11
-65.0702
 21
-141.59
  0
LINE
  8
0
 10
-65.0702
 20
-141.59
 11
-65.0932
 21
-142.073
  0
LINE
  8
0
 10
-65.0932
 20
-142.073
 11
-65.2515
 21
-142.53
  0
LINE
  8
0
 10
-65.2515
 20
-142.53
 11
-65.5322
 21
-142.924
  0
LINE
  8
0
 10
-65.5322
 20
-142.924
 11
-65.9125
 21
-143.223
  0
LINE
  8
0
 10
-65.9125
 20
-143.223
 11
-66.3617
 21
-143.403
  0
LINE
  8
0
 10
-66.3617
 20
-143.403
 11
-66.8434
 21
-143.449
  0
LINE
  8
0
 10
-66.8434
 20
-143.449
 11
-67.3185
 21
-143.358
  0
LINE
  8
0
 10
-62.4994
 20
-156.982
 11
-62.9962
 21
-156.929
  0
LINE
  8
0
 10
-62.9962
 20
-156.929
 11
-63.4879
 21
-156.84
  0
LINE
  8
0
 10
-63.4879
 20
-156.84
 11
-63.9721
 21
-156.716
  0
LINE
  8
0
 10
-63.9721
 20
-156.716
 11
-64.4462
 21
-156.559
  0
LINE
  8
0
 10
-64.4462
 20
-156.559
 11
-64.9079
 21
-156.367
  0
LINE
  8
0
 10
-64.9079
 20
-156.367
 11
-65.3547
 21
-156.144
  0
LINE
  8
0
 10
-65.3547
 20
-156.144
 11
-65.7845
 21
-155.889
  0
LINE
  8
0
 10
-65.7845
 20
-155.889
 11
-66.1949
 21
-155.604
  0
LINE
  8
0
 10
-66.1949
 20
-155.604
 11
-66.584
 21
-155.29
  0
LINE
  8
0
 10
-66.584
 20
-155.29
 11
-66.9497
 21
-154.95
  0
LINE
  8
0
 10
-66.9497
 20
-154.95
 11
-67.2902
 21
-154.584
  0
LINE
  8
0
 10
-67.2902
 20
-154.584
 11
-67.6038
 21
-154.195
  0
LINE
  8
0
 10
-67.6038
 20
-154.195
 11
-67.8888
 21
-153.784
  0
LINE
  8
0
 10
-67.8888
 20
-153.784
 11
-68.1438
 21
-153.355
  0
LINE
  8
0
 10
-68.1438
 20
-153.355
 11
-68.3674
 21
-152.908
  0
LINE
  8
0
 10
-68.3674
 20
-152.908
 11
-68.5586
 21
-152.446
  0
LINE
  8
0
 10
-68.5586
 20
-152.446
 11
-68.7164
 21
-151.972
  0
LINE
  8
0
 10
-68.7164
 20
-151.972
 11
-68.84
 21
-151.488
  0
LINE
  8
0
 10
-68.84
 20
-151.488
 11
-68.9287
 21
-150.996
  0
LINE
  8
0
 10
-68.9287
 20
-150.996
 11
-68.9822
 21
-150.499
  0
LINE
  8
0
 10
-68.9822
 20
-150.499
 11
-69
 21
-150
  0
LINE
  8
0
 10
-69
 20
-150
 11
-68.9822
 21
-149.501
  0
LINE
  8
0
 10
-68.9822
 20
-149.501
 11
-68.9287
 21
-149.004
  0
LINE
  8
0
 10
-68.9287
 20
-149.004
 11
-68.84
 21
-148.512
  0
LINE
  8
0
 10
-68.84
 20
-148.512
 11
-68.7164
 21
-148.028
  0
LINE
  8
0
 10
-68.7164
 20
-148.028
 11
-68.5586
 21
-147.554
  0
LINE
  8
0
 10
-68.5586
 20
-147.554
 11
-68.3674
 21
-147.092
  0
LINE
  8
0
 10
-68.3674
 20
-147.092
 11
-68.1438
 21
-146.645
  0
LINE
  8
0
 10
-68.1438
 20
-146.645
 11
-67.8888
 21
-146.216
  0
LINE
  8
0
 10
-67.8888
 20
-146.216
 11
-67.6038
 21
-145.805
  0
LINE
  8
0
 10
-67.6038
 20
-145.805
 11
-67.2902
 21
-145.416
  0
LINE
  8
0
 10
-67.2902
 20
-145.416
 11
-66.9497
 21
-145.05
  0
LINE
  8
0
 10
-66.9497
 20
-145.05
 11
-66.584
 21
-144.71
  0
LINE
  8
0
 10
-66.584
 20
-144.71
 11
-66.1949
 21
-144.396
  0
LINE
  8
0
 10
-66.1949
 20
-144.396
 11
-65.7845
 21
-144.111
  0
LINE
  8
0
 10
-65.7845
 20
-144.111
 11
-65.3547
 21
-143.856
  0
LINE
  8
0
 10
-65.3547
 20
-143.856
 11
-64.9079
 21
-143.633
  0
LINE
  8
0
 10
-64.9079
 20
-143.633
 11
-64.4462
 21
-143.441
  0
LINE
  8
0
 10
-64.4462
 20
-143.441
 11
-63.9721
 21
-143.284
  0
LINE
  8
0
 10
-63.9721
 20
-143.284
 11
-63.4879
 21
-143.16
  0
LINE
  8
0
 10
-63.4879
 20
-143.16
 11
-62.9962
 21
-143.071
  0
LINE
  8
0
 10
-62.9962
 20
-143.071
 11
-62.4994
 21
-143.018
  0
LINE
  8
0
 10
-62.4994
 20
-143.018
 11
-62
 21
-143
  0
LINE
  8
0
 10
-62
 20
-143
 11
-61.5006
 21
-143.018
  0
LINE
  8
0
 10
-61.5006
 20
-143.018
 11
-61.0038
 21
-143.071
  0
LINE
  8
0
 10
-61.0038
 20
-143.071
 11
-60.512
 21
-143.16
  0
LINE
  8
0
 10
-60.512
 20
-143.16
 11
-60.0279
 21
-143.284
  0
LINE
  8
0
 10
-60.0279
 20
-143.284
 11
-59.5537
 21
-143.441
  0
LINE
  8
0
 10
-59.5537
 20
-143.441
 11
-59.0921
 21
-143.633
  0
LINE
  8
0
 10
-59.0921
 20
-143.633
 11
-58.6452
 21
-143.856
  0
LINE
  8
0
 10
-58.6452
 20
-143.856
 11
-58.2155
 21
-144.111
  0
LINE
  8
0
 10
-58.2155
 20
-144.111
 11
-57.8051
 21
-144.396
  0
LINE
  8
0
 10
-57.8051
 20
-144.396
 11
-57.416
 21
-144.71
  0
LINE
  8
0
 10
-57.416
 20
-144.71
 11
-57.0502
 21
-145.05
  0
LINE
  8
0
 10
-57.0502
 20
-145.05
 11
-56.7097
 21
-145.416
  0
LINE
  8
0
 10
-56.7097
 20
-145.416
 11
-56.3962
 21
-145.805
  0
LINE
  8
0
 10
-56.3962
 20
-145.805
 11
-56.1112
 21
-146.216
  0
LINE
  8
0
 10
-56.1112
 20
-146.216
 11
-55.8562
 21
-146.645
  0
LINE
  8
0
 10
-55.8562
 20
-146.645
 11
-55.6326
 21
-147.092
  0
LINE
  8
0
 10
-55.6326
 20
-147.092
 11
-55.4413
 21
-147.554
  0
LINE
  8
0
 10
-55.4413
 20
-147.554
 11
-55.2835
 21
-148.028
  0
LINE
  8
0
 10
-55.2835
 20
-148.028
 11
-55.16
 21
-148.512
  0
LINE
  8
0
 10
-55.16
 20
-148.512
 11
-55.0712
 21
-149.004
  0
LINE
  8
0
 10
-55.0712
 20
-149.004
 11
-55.0178
 21
-149.501
  0
LINE
  8
0
 10
-55.0178
 20
-149.501
 11
-55
 21
-150
  0
LINE
  8
0
 10
-55
 20
-150
 11
-55.0178
 21
-150.499
  0
LINE
  8
0
 10
-55.0178
 20
-150.499
 11
-55.0712
 21
-150.996
  0
LINE
  8
0
 10
-55.0712
 20
-150.996
 11
-55.16
 21
-151.488
  0
LINE
  8
0
 10
-55.16
 20
-151.488
 11
-55.2835
 21
-151.972
  0
LINE
  8
0
 10
-55.2835
 20
-151.972
 11
-55.4413
 21
-152.446
  0
LINE
  8
0
 10
-55.4413
 20
-152.446
 11
-55.6326
 21
-152.908
  0
LINE
  8
0
 10
-55.6326
 20
-152.908
 11
-55.8562
 21
-153.355
  0
LINE
  8
0
 10
-55.8562
 20
-153.355
 11
-56.1112
 21
-153.784
  0
LINE
  8
0
 10
-56.1112
 20
-153.784
 11
-56.3962
 21
-154.195
  0
LINE
  8
0
 10
-56.3962
 20
-154.195
 11
-56.7097
 21
-154.584
  0
LINE
  8
0
 10
-56.7097
 20
-154.584
 11
-57.0502
 21
-154.95
  0
LINE
  8
0
 10
-57.0502
 20
-154.95
 11
-57.416
 21
-155.29
  0
LINE
  8
0
 10
-57.416
 20
-155.29
 11
-57.8051
 21
-155.604
  0
LINE
  8
0
 10
-57.8051
 20
-155.604
 11
-58.2155
 21
-155.889
  0
LINE
  8
0
 10
-58.2155
 20
-155.889
 11
-58.6452
 21
-156.144
  0
LINE
  8
0
 10
-58.6452
 20
-156.144
 11
-59.0921
 21
-156.367
  0
LINE
  8
0
 10
-59.0921
 20
-156.367
 11
-59.5537
 21
-156.559
  0
LINE
  8
0
 10
-59.5537
 20
-156.559
 11
-60.0279
 21
-156.716
  0
LINE
  8
0
 10
-60.0279
 20
-156.716
 11
-60.512
 21
-156.84
  0
LINE
  8
0
 10
-60.512
 20
-156.84
 11
-61.0038
 21
-156.929
  0
LINE
  8
0
 10
-61.0038
 20
-156.929
 11
-61.5006
 21
-156.982
  0
LINE
  8
0
 10
-61.5006
 20
-156.982
 11
-62
 21
-157
  0
LINE
  8
0
 10
-62
 20
-157
 11
-62.4994
 21
-156.982
  0
LINE
  8
0
 10
-52.7169
 20
-151.683
 11
-53.1812
 21
-151.546
  0
LINE
  8
0
 10
-53.1812
 20
-151.546
 11
-53.5883
 21
-151.285
  0
LINE
  8
0
 10
-53.5883
 20
-151.285
 11
-53.9051
 21
-150.919
  0
LINE
  8
0
 10
-53.9051
 20
-150.919
 11
-54.1061
 21
-150.479
  0
LINE
  8
0
 10
-54.1061
 20
-150.479
 11
-54.175
 21
-150
  0
LINE
  8
0
 10
-54.175
 20
-150
 11
-54.1061
 21
-149.521
  0
LINE
  8
0
 10
-54.1061
 20
-149.521
 11
-53.9051
 21
-149.081
  0
LINE
  8
0
 10
-53.9051
 20
-149.081
 11
-53.5883
 21
-148.715
  0
LINE
  8
0
 10
-53.5883
 20
-148.715
 11
-53.1812
 21
-148.454
  0
LINE
  8
0
 10
-53.1812
 20
-148.454
 11
-52.7169
 21
-148.317
  0
LINE
  8
0
 10
-52.7169
 20
-148.317
 11
-52.2331
 21
-148.317
  0
LINE
  8
0
 10
-52.2331
 20
-148.317
 11
-51.7688
 21
-148.454
  0
LINE
  8
0
 10
-51.7688
 20
-148.454
 11
-51.3617
 21
-148.715
  0
LINE
  8
0
 10
-51.3617
 20
-148.715
 11
-51.0449
 21
-149.081
  0
LINE
  8
0
 10
-51.0449
 20
-149.081
 11
-50.8439
 21
-149.521
  0
LINE
  8
0
 10
-50.8439
 20
-149.521
 11
-50.775
 21
-150
  0
LINE
  8
0
 10
-50.775
 20
-150
 11
-50.8439
 21
-150.479
  0
LINE
  8
0
 10
-50.8439
 20
-150.479
 11
-51.0449
 21
-150.919
  0
LINE
  8
0
 10
-51.0449
 20
-150.919
 11
-51.3617
 21
-151.285
  0
LINE
  8
0
 10
-51.3617
 20
-151.285
 11
-51.7688
 21
-151.546
  0
LINE
  8
0
 10
-51.7688
 20
-151.546
 11
-52.2331
 21
-151.683
  0
LINE
  8
0
 10
-52.2331
 20
-151.683
 11
-52.7169
 21
-151.683
  0
LINE
  8
0
 10
-67.1633
 20
-159.901
 11
-67.6125
 21
-159.721
  0
LINE
  8
0
 10
-67.6125
 20
-159.721
 11
-67.9928
 21
-159.422
  0
LINE
  8
0
 10
-67.9928
 20
-159.422
 11
-68.2735
 21
-159.028
  0
LINE
  8
0
 10
-68.2735
 20
-159.028
 11
-68.4318
 21
-158.571
  0
LINE
  8
0
 10
-68.4318
 20
-158.571
 11
-68.4548
 21
-158.087
  0
LINE
  8
0
 10
-68.4548
 20
-158.087
 11
-68.3407
 21
-157.617
  0
LINE
  8
0
 10
-68.3407
 20
-157.617
 11
-68.0988
 21
-157.198
  0
LINE
  8
0
 10
-68.0988
 20
-157.198
 11
-67.7486
 21
-156.864
  0
LINE
  8
0
 10
-67.7486
 20
-156.864
 11
-67.3185
 21
-156.642
  0
LINE
  8
0
 10
-67.3185
 20
-156.642
 11
-66.8434
 21
-156.551
  0
LINE
  8
0
 10
-66.8434
 20
-156.551
 11
-66.3617
 21
-156.597
  0
LINE
  8
0
 10
-66.3617
 20
-156.597
 11
-65.9125
 21
-156.777
  0
LINE
  8
0
 10
-65.9125
 20
-156.777
 11
-65.5322
 21
-157.076
  0
LINE
  8
0
 10
-65.5322
 20
-157.076
 11
-65.2515
 21
-157.47
  0
LINE
  8
0
 10
-65.2515
 20
-157.47
 11
-65.0932
 21
-157.927
  0
LINE
  8
0
 10
-65.0932
 20
-157.927
 11
-65.0702
 21
-158.41
  0
LINE
  8
0
 10
-65.0702
 20
-158.41
 11
-65.1843
 21
-158.881
  0
LINE
  8
0
 10
-65.1843
 20
-158.881
 11
-65.4262
 21
-159.3
  0
LINE
  8
0
 10
-65.4262
 20
-159.3
 11
-65.7764
 21
-159.634
  0
LINE
  8
0
 10
-65.7764
 20
-159.634
 11
-66.2065
 21
-159.855
  0
LINE
  8
0
 10
-66.2065
 20
-159.855
 11
-66.6816
 21
-159.947
  0
LINE
  8
0
 10
-66.6816
 20
-159.947
 11
-67.1633
 21
-159.901
  0
LINE
  8
0
 10
28.7965
 20
-158.883
 11
29.2611
 21
-158.703
  0
LINE
  8
0
 10
29.2611
 20
-158.703
 11
29.7509
 21
-158.612
  0
LINE
  8
0
 10
29.7509
 20
-158.612
 11
30.2491
 21
-158.612
  0
LINE
  8
0
 10
30.2491
 20
-158.612
 11
30.7389
 21
-158.703
  0
LINE
  8
0
 10
30.7389
 20
-158.703
 11
31.2035
 21
-158.883
  0
LINE
  8
0
 10
31.2035
 20
-158.883
 11
31.6271
 21
-159.145
  0
LINE
  8
0
 10
31.6271
 20
-159.145
 11
31.9953
 21
-159.481
  0
LINE
  8
0
 10
31.9953
 20
-159.481
 11
32.2956
 21
-159.879
  0
LINE
  8
0
 10
32.2956
 20
-159.879
 11
32.5177
 21
-160.325
  0
LINE
  8
0
 10
32.5177
 20
-160.325
 11
32.654
 21
-160.804
  0
LINE
  8
0
 10
32.654
 20
-160.804
 11
32.7
 21
-161.3
  0
LINE
  8
0
 10
32.7
 20
-161.3
 11
32.654
 21
-161.796
  0
LINE
  8
0
 10
32.654
 20
-161.796
 11
32.5177
 21
-162.275
  0
LINE
  8
0
 10
32.5177
 20
-162.275
 11
32.2956
 21
-162.721
  0
LINE
  8
0
 10
32.2956
 20
-162.721
 11
31.9953
 21
-163.119
  0
LINE
  8
0
 10
31.9953
 20
-163.119
 11
31.6271
 21
-163.455
  0
LINE
  8
0
 10
31.6271
 20
-163.455
 11
31.2035
 21
-163.717
  0
LINE
  8
0
 10
31.2035
 20
-163.717
 11
30.7389
 21
-163.897
  0
LINE
  8
0
 10
30.7389
 20
-163.897
 11
30.2491
 21
-163.988
  0
LINE
  8
0
 10
30.2491
 20
-163.988
 11
29.7509
 21
-163.988
  0
LINE
  8
0
 10
29.7509
 20
-163.988
 11
29.2611
 21
-163.897
  0
LINE
  8
0
 10
29.2611
 20
-163.897
 11
28.7965
 21
-163.717
  0
LINE
  8
0
 10
28.7965
 20
-163.717
 11
28.3729
 21
-163.455
  0
LINE
  8
0
 10
28.3729
 20
-163.455
 11
28.0047
 21
-163.119
  0
LINE
  8
0
 10
28.0047
 20
-163.119
 11
27.7044
 21
-162.721
  0
LINE
  8
0
 10
27.7044
 20
-162.721
 11
27.4823
 21
-162.275
  0
LINE
  8
0
 10
27.4823
 20
-162.275
 11
27.346
 21
-161.796
  0
LINE
  8
0
 10
27.346
 20
-161.796
 11
27.3
 21
-161.3
  0
LINE
  8
0
 10
27.3
 20
-161.3
 11
27.346
 21
-160.804
  0
LINE
  8
0
 10
27.346
 20
-160.804
 11
27.4823
 21
-160.325
  0
LINE
  8
0
 10
27.4823
 20
-160.325
 11
27.7044
 21
-159.879
  0
LINE
  8
0
 10
27.7044
 20
-159.879
 11
28.0047
 21
-159.481
  0
LINE
  8
0
 10
28.0047
 20
-159.481
 11
28.3729
 21
-159.145
  0
LINE
  8
0
 10
28.3729
 20
-159.145
 11
28.7965
 21
-158.883
  0
LINE
  8
0
 10
-27.4823
 20
-160.325
 11
-27.346
 21
-160.804
  0
LINE
  8
0
 10
-27.346
 20
-160.804
 11
-27.3
 21
-161.3
  0
LINE
  8
0
 10
-27.3
 20
-161.3
 11
-27.346
 21
-161.796
  0
LINE
  8
0
 10
-27.346
 20
-161.796
 11
-27.4823
 21
-162.275
  0
LINE
  8
0
 10
-27.4823
 20
-162.275
 11
-27.7044
 21
-162.721
  0
LINE
  8
0
 10
-27.7044
 20
-162.721
 11
-28.0047
 21
-163.119
  0
LINE
  8
0
 10
-28.0047
 20
-163.119
 11
-28.3729
 21
-163.455
  0
LINE
  8
0
 10
-28.3729
 20
-163.455
 11
-28.7965
 21
-163.717
  0
LINE
  8
0
 10
-28.7965
 20
-163.717
 11
-29.2611
 21
-163.897
  0
LINE
  8
0
 10
-29.2611
 20
-163.897
 11
-29.7509
 21
-163.988
  0
LINE
  8
0
 10
-29.7509
 20
-163.988
 11
-30.2491
 21
-163.988
  0
LINE
  8
0
 10
-30.2491
 20
-163.988
 11
-30.7389
 21
-163.897
  0
LINE
  8
0
 10
-30.7389
 20
-163.897
 11
-31.2035
 21
-163.717
  0
LINE
  8
0
 10
-31.2035
 20
-163.717
 11
-31.6271
 21
-163.455
  0
LINE
  8
0
 10
-31.6271
 20
-163.455
 11
-31.9953
 21
-163.119
  0
LINE
  8
0
 10
-31.9953
 20
-163.119
 11
-32.2956
 21
-162.721
  0
LINE
  8
0
 10
-32.2956
 20
-162.721
 11
-32.5177
 21
-162.275
  0
LINE
  8
0
 10
-32.5177
 20
-162.275
 11
-32.654
 21
-161.796
  0
LINE
  8
0
 10
-32.654
 20
-161.796
 11
-32.7
 21
-161.3
  0
LINE
  8
0
 10
-32.7
 20
-161.3
 11
-32.654
 21
-160.804
  0
LINE
  8
0
 10
-32.654
 20
-160.804
 11
-32.5177
 21
-160.325
  0
LINE
  8
0
 10
-32.5177
 20
-160.325
 11
-32.2956
 21
-159.879
  0
LINE
  8
0
 10
-32.2956
 20
-159.879
 11
-31.9953
 21
-159.481
  0
LINE
  8
0
 10
-31.9953
 20
-159.481
 11
-31.6271
 21
-159.145
  0
LINE
  8
0
 10
-31.6271
 20
-159.145
 11
-31.2035
 21
-158.883
  0
LINE
  8
0
 10
-31.2035
 20
-158.883
 11
-30.7389
 21
-158.703
  0
LINE
  8
0
 10
-30.7389
 20
-158.703
 11
-30.2491
 21
-158.612
  0
LINE
  8
0
 10
-30.2491
 20
-158.612
 11
-29.7509
 21
-158.612
  0
LINE
  8
0
 10
-29.7509
 20
-158.612
 11
-29.2611
 21
-158.703
  0
LINE
  8
0
 10
-29.2611
 20
-158.703
 11
-28.7965
 21
-158.883
  0
LINE
  8
0
 10
-28.7965
 20
-158.883
 11
-28.3729
 21
-159.145
  0
LINE
  8
0
 10
-28.3729
 20
-159.145
 11
-28.0047
 21
-159.481
  0
LINE
  8
0
 10
-28.0047
 20
-159.481
 11
-27.7044
 21
-159.879
  0
LINE
  8
0
 10
-27.7044
 20
-159.879
 11
-27.4823
 21
-160.325
  0
ENDSEC
  0
SECTION
  2
OBJECTS
  0
DICTIONARY
  0
ENDSEC
  0
EOF
