  0
SECTION
  2
HEADER
  9
$ACADVER
  1
AC1014
  9
$HANDSEED
  5
FFFF
  9
$MEASUREMENT
 70
     1
  0
ENDSEC
  0
SECTION
  2
TABLES
  0
TABLE
  2
VPORT
  5
8
330
0
100
AcDbSymbolTable
 70
     4
  0
VPORT
  5
2E
330
8
100
AcDbSymbolTableRecord
100
AcDbViewportTableRecord
  2
*ACTIVE
 70
     0
 10
0.0
 20
0.0
 11
1.0
 21
1.0
 12
210.0
 22
148.5
 13
0.0
 23
0.0
 14
10.0
 24
10.0
 15
10.0
 25
10.0
 16
0.0
 26
0.0
 36
1.0
 17
0.0
 27
0.0
 37
0.0
 40
341.0
 41
1.24
 42
50.0
 43
0.0
 44
0.0
 50
0.0
 51
0.0
 71
     0
 72
   100
 73
     1
 74
     3
 75
     0
 76
     0
 77
     0
 78
     0
  0
ENDTAB
  0
TABLE
  2
LTYPE
  5
5
330
0
100
AcDbSymbolTable
 70
     1
  0
LTYPE
  5
14
330
5
100
AcDbSymbolTableRecord
100
AcDbLinetypeTableRecord
  2
BYBLOCK
 70
     0
  3

 72
    65
 73
     0
 40
0.0
  0
LTYPE
  5
15
330
5
100
AcDbSymbolTableRecord
100
AcDbLinetypeTableRecord
  2
BYLAYER
 70
     0
  3

 72
    65
 73
     0
 40
0.0
  0
LTYPE
  5
16
330
5
100
AcDbSymbolTableRecord
100
AcDbLinetypeTableRecord
  2
CONTINUOUS
 70
     0
  3
Solid line
 72
    65
 73
     0
 40
0.0
  0
ENDTAB
  0
TABLE
  2
LAYER
  5
2
100
AcDbSymbolTable
 70
2
  0
LAYER
  5
50
100
AcDbSymbolTableRecord
100
AcDbLayerTableRecord
  2
0
 70
0
  6
CONTINUOUS
  0
LAYER
  5
51
100
AcDbSymbolTableRecord
100
AcDbLayerTableRecord
  2
Layer_1
 70
0
  6
CONTINUOUS
  0
ENDTAB
  0
TABLE
  2
STYLE
  5
3
330
0
100
AcDbSymbolTable
 70
     1
  0
STYLE
  5
11
330
3
100
AcDbSymbolTableRecord
100
AcDbTextStyleTableRecord
  2
STANDARD
 70
     0
 40
0.0
 41
1.0
 50
0.0
 71
     0
 42
2.5
  3
txt
  4

  0
ENDTAB
  0
TABLE
  2
VIEW
  5
6
330
0
100
AcDbSymbolTable
 70
     0
  0
ENDTAB
  0
TABLE
  2
UCS
  5
7
330
0
100
AcDbSymbolTable
 70
     0
  0
ENDTAB
  0
TABLE
  2
APPID
  5
9
330
0
100
AcDbSymbolTable
 70
     2
  0
APPID
  5
12
330
9
100
AcDbSymbolTableRecord
100
AcDbRegAppTableRecord
  2
ACAD
 70
     0
  0
ENDTAB
  0
TABLE
  2
DIMSTYLE
  5
A
330
0
100
AcDbSymbolTable
 70
     1
  0
DIMSTYLE
105
27
330
A
100
AcDbSymbolTableRecord
100
AcDbDimStyleTableRecord
  2
ISO-25
 70
     0
  3

  4

  5

  6

  7

 40
1.0
 41
2.5
 42
0.625
 43
3.75
 44
1.25
 45
0.0
 46
0.0
 47
0.0
 48
0.0
140
2.5
141
2.5
142
0.0
143
0.03937007874016
144
1.0
145
0.0
146
1.0
147
0.625
 71
     0
 72
     0
 73
     0
 74
     0
 75
     0
 76
     0
 77
     1
 78
     8
170
     0
171
     3
172
     1
173
     0
174
     0
175
     0
176
     0
177
     0
178
     0
270
     2
271
     2
272
     2
273
     2
274
     3
340
11
275
     0
280
     0
281
     0
282
     0
283
     0
284
     8
285
     0
286
     0
287
     3
288
     0
  0
ENDTAB
  0
TABLE
  2
BLOCK_RECORD
  5
1
330
0
100
AcDbSymbolTable
 70
     1
  0
BLOCK_RECORD
  5
1F
330
1
100
AcDbSymbolTableRecord
100
AcDbBlockTableRecord
  2
*MODEL_SPACE
  0
BLOCK_RECORD
  5
1B
330
1
100
AcDbSymbolTableRecord
100
AcDbBlockTableRecord
  2
*PAPER_SPACE
  0
ENDTAB
  0
ENDSEC
  0
SECTION
  2
BLOCKS
  0
BLOCK
  5
20
330
1F
100
AcDbEntity
  8
0
100
AcDbBlockBegin
  2
*MODEL_SPACE
 70
     0
 10
0.0
 20
0.0
 30
0.0
  3
*MODEL_SPACE
  1

  0
ENDBLK
  5
21
330
1F
100
AcDbEntity
  8
0
100
AcDbBlockEnd
  0
BLOCK
  5
1C
330
1B
100
AcDbEntity
 67
     1
  8
0
100
AcDbBlockBegin
  2
*PAPER_SPACE
  1

  0
ENDBLK
  5
1D
330
1B
100
AcDbEntity
 67
     1
  8
0
100
AcDbBlockEnd
  0
ENDSEC
  0
SECTION
  2
ENTITIES
  0
LWPOLYLINE
  5
100
100
AcDbEntity
  8
Layer_1
 62
7
100
AcDbPolyline
 90
374
 70
0
 10
358.581700
 20
181.072481
 30
0.0
 10
358.329698
 20
180.643785
 30
0.0
 10
358.097697
 20
180.204168
 30
0.0
 10
357.885697
 20
179.754475
 30
0.0
 10
357.693699
 20
179.295666
 30
0.0
 10
357.522697
 20
178.828673
 30
0.0
 10
357.373698
 20
178.354483
 30
0.0
 10
357.245699
 20
177.873972
 30
0.0
 10
357.139699
 20
177.388267
 30
0.0
 10
357.055699
 20
176.898188
 30
0.0
 10
356.994699
 20
176.404779
 30
0.0
 10
356.955699
 20
175.909169
 30
0.0
 10
356.938709
 20
175.412288
 30
0.0
 10
356.943693
 20
174.915069
 30
0.0
 10
356.971695
 20
174.418782
 30
0.0
 10
357.022698
 20
173.924074
 30
0.0
 10
357.095698
 20
173.432274
 30
0.0
 10
357.190700
 20
172.944170
 30
0.0
 10
357.306699
 20
172.460978
 30
0.0
 10
357.445699
 20
171.983486
 30
0.0
 10
357.605699
 20
171.512768
 30
0.0
 10
357.786699
 20
171.049782
 30
0.0
 10
357.988700
 20
170.595376
 30
0.0
 10
358.210699
 20
170.150678
 30
0.0
 10
358.452699
 20
169.716367
 30
0.0
 10
358.714700
 20
169.293485
 30
0.0
 10
358.994698
 20
168.882767
 30
0.0
 10
359.293698
 20
168.485285
 30
0.0
 10
359.609700
 20
168.101576
 30
0.0
 10
359.942699
 20
167.732570
 30
0.0
 10
360.292697
 20
167.379087
 30
0.0
 10
360.657698
 20
167.041662
 30
0.0
 10
361.037699
 20
166.721170
 30
0.0
 10
361.431698
 20
166.418064
 30
0.0
 10
361.839698
 20
166.133189
 30
0.0
 10
362.259699
 20
165.866968
 30
0.0
 10
362.690697
 20
165.619968
 30
0.0
 10
363.132699
 20
165.392779
 30
0.0
 10
363.584698
 20
165.185769
 30
0.0
 10
364.045700
 20
164.999361
 30
0.0
 10
364.514699
 20
164.834063
 30
0.0
 10
364.990698
 20
164.690074
 30
0.0
 10
365.472697
 20
164.567787
 30
0.0
 10
365.959700
 20
164.467287
 30
0.0
 10
366.450699
 20
164.388971
 30
0.0
 10
366.944697
 20
164.332865
 30
0.0
 10
367.440697
 20
164.299168
 30
0.0
 10
367.937699
 20
164.287879
 30
0.0
 10
368.434698
 20
164.299252
 30
0.0
 10
368.930698
 20
164.332865
 30
0.0
 10
369.424697
 20
164.388971
 30
0.0
 10
369.915699
 20
164.467287
 30
0.0
 10
370.402699
 20
164.567787
 30
0.0
 10
370.884698
 20
164.690074
 30
0.0
 10
371.360699
 20
164.834063
 30
0.0
 10
371.829699
 20
164.999361
 30
0.0
 10
372.290698
 20
165.185769
 30
0.0
 10
372.742699
 20
165.392779
 30
0.0
 10
373.184699
 20
165.619968
 30
0.0
 10
373.615700
 20
165.866968
 30
0.0
 10
374.035697
 20
166.133189
 30
0.0
 10
374.443698
 20
166.418064
 30
0.0
 10
374.837700
 20
166.721170
 30
0.0
 10
375.217698
 20
167.041662
 30
0.0
 10
375.582698
 20
167.379087
 30
0.0
 10
375.932699
 20
167.732570
 30
0.0
 10
376.265699
 20
168.101576
 30
0.0
 10
376.581697
 20
168.485285
 30
0.0
 10
376.880698
 20
168.882767
 30
0.0
 10
377.160699
 20
169.293485
 30
0.0
 10
377.422700
 20
169.716367
 30
0.0
 10
377.664700
 20
170.150678
 30
0.0
 10
377.886699
 20
170.595376
 30
0.0
 10
378.088699
 20
171.049782
 30
0.0
 10
378.269700
 20
171.512768
 30
0.0
 10
378.429700
 20
171.983486
 30
0.0
 10
378.568700
 20
172.460978
 30
0.0
 10
378.684699
 20
172.944170
 30
0.0
 10
378.779698
 20
173.432274
 30
0.0
 10
378.852697
 20
173.924074
 30
0.0
 10
378.903698
 20
174.418782
 30
0.0
 10
378.931694
 20
174.915069
 30
0.0
 10
378.936692
 20
175.412288
 30
0.0
 10
378.919708
 20
175.909169
 30
0.0
 10
378.880699
 20
176.404779
 30
0.0
 10
378.819700
 20
176.898188
 30
0.0
 10
378.735699
 20
177.388267
 30
0.0
 10
378.629699
 20
177.873972
 30
0.0
 10
378.501697
 20
178.354483
 30
0.0
 10
378.352698
 20
178.828673
 30
0.0
 10
378.181700
 20
179.295666
 30
0.0
 10
377.989698
 20
179.754475
 30
0.0
 10
377.777699
 20
180.204168
 30
0.0
 10
377.545698
 20
180.643785
 30
0.0
 10
377.293699
 20
181.072481
 30
0.0
 10
377.153700
 20
181.287986
 30
0.0
 10
383.922698
 20
181.287986
 30
0.0
 10
387.437700
 20
177.773275
 30
0.0
 10
387.437700
 20
173.787987
 30
0.0
 10
400.437699
 20
173.787987
 30
0.0
 10
400.437699
 20
177.773275
 30
0.0
 10
403.952698
 20
181.287986
 30
0.0
 10
435.922998
 20
181.287986
 30
0.0
 10
439.437697
 20
177.773275
 30
0.0
 10
439.437697
 20
173.787987
 30
0.0
 10
498.437698
 20
173.787987
 30
0.0
 10
498.437698
 20
177.773275
 30
0.0
 10
501.952398
 20
181.287986
 30
0.0
 10
508.721508
 20
181.287986
 30
0.0
 10
508.581468
 20
181.072481
 30
0.0
 10
508.329638
 20
180.643785
 30
0.0
 10
508.097438
 20
180.204168
 30
0.0
 10
507.885298
 20
179.754475
 30
0.0
 10
507.693798
 20
179.295666
 30
0.0
 10
507.523098
 20
178.828673
 30
0.0
 10
507.373798
 20
178.354483
 30
0.0
 10
507.245998
 20
177.873972
 30
0.0
 10
507.140098
 20
177.388267
 30
0.0
 10
507.056198
 20
176.898188
 30
0.0
 10
506.994598
 20
176.404779
 30
0.0
 10
506.955298
 20
175.909169
 30
0.0
 10
506.938399
 20
175.412288
 30
0.0
 10
506.943998
 20
174.915069
 30
0.0
 10
506.972099
 20
174.418782
 30
0.0
 10
507.022598
 20
173.924074
 30
0.0
 10
507.095398
 20
173.432274
 30
0.0
 10
507.190298
 20
172.944170
 30
0.0
 10
507.307198
 20
172.460978
 30
0.0
 10
507.445798
 20
171.983486
 30
0.0
 10
507.605798
 20
171.512768
 30
0.0
 10
507.786998
 20
171.049782
 30
0.0
 10
507.988848
 20
170.595376
 30
0.0
 10
508.211058
 20
170.150678
 30
0.0
 10
508.453128
 20
169.716367
 30
0.0
 10
508.714588
 20
169.293485
 30
0.0
 10
508.994888
 20
168.882767
 30
0.0
 10
509.293458
 20
168.485285
 30
0.0
 10
509.609678
 20
168.101576
 30
0.0
 10
509.942918
 20
167.732570
 30
0.0
 10
510.292498
 20
167.379087
 30
0.0
 10
510.657688
 20
167.041662
 30
0.0
 10
511.037748
 20
166.721170
 30
0.0
 10
511.431898
 20
166.418064
 30
0.0
 10
511.839358
 20
166.133189
 30
0.0
 10
512.259258
 20
165.866968
 30
0.0
 10
512.690778
 20
165.619968
 30
0.0
 10
513.133008
 20
165.392779
 30
0.0
 10
513.585048
 20
165.185769
 30
0.0
 10
514.045988
 20
164.999361
 30
0.0
 10
514.514878
 20
164.834063
 30
0.0
 10
514.990768
 20
164.690074
 30
0.0
 10
515.472668
 20
164.567787
 30
0.0
 10
515.959608
 20
164.467287
 30
0.0
 10
516.450578
 20
164.388971
 30
0.0
 10
516.944595
 20
164.332865
 30
0.0
 10
517.440643
 20
164.299168
 30
0.0
 10
517.937698
 20
164.287963
 30
0.0
 10
518.434753
 20
164.299252
 30
0.0
 10
518.930801
 20
164.332865
 30
0.0
 10
519.424818
 20
164.388971
 30
0.0
 10
519.915788
 20
164.467287
 30
0.0
 10
520.402728
 20
164.567787
 30
0.0
 10
520.884628
 20
164.690074
 30
0.0
 10
521.360518
 20
164.834063
 30
0.0
 10
521.829408
 20
164.999361
 30
0.0
 10
522.290348
 20
165.185769
 30
0.0
 10
522.742388
 20
165.392779
 30
0.0
 10
523.184618
 20
165.619968
 30
0.0
 10
523.616138
 20
165.866968
 30
0.0
 10
524.036038
 20
166.133189
 30
0.0
 10
524.443498
 20
166.418064
 30
0.0
 10
524.837648
 20
166.721170
 30
0.0
 10
525.217708
 20
167.041662
 30
0.0
 10
525.582898
 20
167.379087
 30
0.0
 10
525.932478
 20
167.732570
 30
0.0
 10
526.265718
 20
168.101576
 30
0.0
 10
526.581938
 20
168.485285
 30
0.0
 10
526.880508
 20
168.882767
 30
0.0
 10
527.160808
 20
169.293485
 30
0.0
 10
527.422268
 20
169.716367
 30
0.0
 10
527.664338
 20
170.150678
 30
0.0
 10
527.886548
 20
170.595376
 30
0.0
 10
528.088398
 20
171.049782
 30
0.0
 10
528.269598
 20
171.512768
 30
0.0
 10
528.429598
 20
171.983486
 30
0.0
 10
528.568198
 20
172.460978
 30
0.0
 10
528.685098
 20
172.944170
 30
0.0
 10
528.779998
 20
173.432274
 30
0.0
 10
528.852798
 20
173.924074
 30
0.0
 10
528.903298
 20
174.418782
 30
0.0
 10
528.931399
 20
174.915069
 30
0.0
 10
528.936998
 20
175.412288
 30
0.0
 10
528.920099
 20
175.909169
 30
0.0
 10
528.880798
 20
176.404779
 30
0.0
 10
528.819198
 20
176.898188
 30
0.0
 10
528.735298
 20
177.388267
 30
0.0
 10
528.629398
 20
177.873972
 30
0.0
 10
528.501598
 20
178.354483
 30
0.0
 10
528.352298
 20
178.828673
 30
0.0
 10
528.181598
 20
179.295666
 30
0.0
 10
527.990098
 20
179.754475
 30
0.0
 10
527.777958
 20
180.204168
 30
0.0
 10
527.545758
 20
180.643785
 30
0.0
 10
527.293928
 20
181.072481
 30
0.0
 10
527.153888
 20
181.287986
 30
0.0
 10
533.922998
 20
181.287986
 30
0.0
 10
537.437698
 20
177.773275
 30
0.0
 10
537.437698
 20
173.787987
 30
0.0
 10
596.437699
 20
173.787987
 30
0.0
 10
596.437699
 20
177.773275
 30
0.0
 10
599.952399
 20
181.287986
 30
0.0
 10
631.922699
 20
181.287986
 30
0.0
 10
635.437698
 20
177.773275
 30
0.0
 10
635.437698
 20
173.787987
 30
0.0
 10
648.437697
 20
173.787987
 30
0.0
 10
648.437697
 20
177.773275
 30
0.0
 10
651.952699
 20
181.287986
 30
0.0
 10
658.721697
 20
181.287986
 30
0.0
 10
658.581698
 20
181.072481
 30
0.0
 10
658.329699
 20
180.643785
 30
0.0
 10
658.097698
 20
180.204168
 30
0.0
 10
657.885698
 20
179.754475
 30
0.0
 10
657.693697
 20
179.295666
 30
0.0
 10
657.522698
 20
178.828673
 30
0.0
 10
657.373699
 20
178.354483
 30
0.0
 10
657.245697
 20
177.873972
 30
0.0
 10
657.139697
 20
177.388267
 30
0.0
 10
657.055697
 20
176.898188
 30
0.0
 10
656.994697
 20
176.404779
 30
0.0
 10
656.955697
 20
175.909169
 30
0.0
 10
656.938707
 20
175.412288
 30
0.0
 10
656.943694
 20
174.915069
 30
0.0
 10
656.971696
 20
174.418782
 30
0.0
 10
657.022699
 20
173.924074
 30
0.0
 10
657.095699
 20
173.432274
 30
0.0
 10
657.190698
 20
172.944170
 30
0.0
 10
657.306697
 20
172.460978
 30
0.0
 10
657.445697
 20
171.983486
 30
0.0
 10
657.605697
 20
171.512768
 30
0.0
 10
657.786698
 20
171.049782
 30
0.0
 10
657.988698
 20
170.595376
 30
0.0
 10
658.210697
 20
170.150678
 30
0.0
 10
658.452697
 20
169.716367
 30
0.0
 10
658.714698
 20
169.293485
 30
0.0
 10
658.994699
 20
168.882767
 30
0.0
 10
659.293699
 20
168.485285
 30
0.0
 10
659.609698
 20
168.101576
 30
0.0
 10
659.942698
 20
167.732570
 30
0.0
 10
660.292698
 20
167.379087
 30
0.0
 10
660.657699
 20
167.041662
 30
0.0
 10
661.037697
 20
166.721170
 30
0.0
 10
661.431699
 20
166.418064
 30
0.0
 10
661.839699
 20
166.133189
 30
0.0
 10
662.259697
 20
165.866968
 30
0.0
 10
662.690698
 20
165.619968
 30
0.0
 10
663.132698
 20
165.392779
 30
0.0
 10
663.584699
 20
165.185769
 30
0.0
 10
664.045698
 20
164.999361
 30
0.0
 10
664.514698
 20
164.834063
 30
0.0
 10
664.990699
 20
164.690074
 30
0.0
 10
665.472698
 20
164.567787
 30
0.0
 10
665.959698
 20
164.467287
 30
0.0
 10
666.450700
 20
164.388971
 30
0.0
 10
666.944699
 20
164.332865
 30
0.0
 10
667.440699
 20
164.299168
 30
0.0
 10
667.937698
 20
164.287879
 30
0.0
 10
668.434699
 20
164.299252
 30
0.0
 10
668.930699
 20
164.332865
 30
0.0
 10
669.424698
 20
164.388971
 30
0.0
 10
669.915697
 20
164.467287
 30
0.0
 10
670.402700
 20
164.567787
 30
0.0
 10
670.884699
 20
164.690074
 30
0.0
 10
671.360697
 20
164.834063
 30
0.0
 10
671.829697
 20
164.999361
 30
0.0
 10
672.290699
 20
165.185769
 30
0.0
 10
672.742697
 20
165.392779
 30
0.0
 10
673.184700
 20
165.619968
 30
0.0
 10
673.615698
 20
165.866968
 30
0.0
 10
674.035698
 20
166.133189
 30
0.0
 10
674.443699
 20
166.418064
 30
0.0
 10
674.837698
 20
166.721170
 30
0.0
 10
675.217699
 20
167.041662
 30
0.0
 10
675.582700
 20
167.379087
 30
0.0
 10
675.932697
 20
167.732570
 30
0.0
 10
676.265697
 20
168.101576
 30
0.0
 10
676.581699
 20
168.485285
 30
0.0
 10
676.880699
 20
168.882767
 30
0.0
 10
677.160697
 20
169.293485
 30
0.0
 10
677.422698
 20
169.716367
 30
0.0
 10
677.664698
 20
170.150678
 30
0.0
 10
677.886697
 20
170.595376
 30
0.0
 10
678.088697
 20
171.049782
 30
0.0
 10
678.269698
 20
171.512768
 30
0.0
 10
678.429698
 20
171.983486
 30
0.0
 10
678.568698
 20
172.460978
 30
0.0
 10
678.684697
 20
172.944170
 30
0.0
 10
678.779699
 20
173.432274
 30
0.0
 10
678.852698
 20
173.924074
 30
0.0
 10
678.903699
 20
174.418782
 30
0.0
 10
678.931695
 20
174.915069
 30
0.0
 10
678.936693
 20
175.412288
 30
0.0
 10
678.919709
 20
175.909169
 30
0.0
 10
678.880698
 20
176.404779
 30
0.0
 10
678.819698
 20
176.898188
 30
0.0
 10
678.735698
 20
177.388267
 30
0.0
 10
678.629698
 20
177.873972
 30
0.0
 10
678.501699
 20
178.354483
 30
0.0
 10
678.352699
 20
178.828673
 30
0.0
 10
678.181698
 20
179.295666
 30
0.0
 10
677.989700
 20
179.754475
 30
0.0
 10
677.777700
 20
180.204168
 30
0.0
 10
677.545699
 20
180.643785
 30
0.0
 10
677.293697
 20
181.072481
 30
0.0
 10
677.153698
 20
181.287986
 30
0.0
 10
683.922699
 20
181.287986
 30
0.0
 10
687.437698
 20
177.773275
 30
0.0
 10
687.437698
 20
173.787987
 30
0.0
 10
762.937699
 20
173.787987
 30
0.0
 10
762.937699
 20
161.287969
 30
0.0
 10
767.812699
 20
161.287969
 30
0.0
 10
769.437698
 20
159.662962
 30
0.0
 10
769.437698
 20
147.912978
 30
0.0
 10
767.812699
 20
146.287971
 30
0.0
 10
762.937699
 20
146.287971
 30
0.0
 10
762.937699
 20
141.187962
 30
0.0
 10
756.037699
 20
141.187962
 30
0.0
 10
756.037699
 20
142.737982
 30
0.0
 10
750.337699
 20
142.737982
 30
0.0
 10
750.337699
 20
141.187962
 30
0.0
 10
743.437699
 20
141.187962
 30
0.0
 10
743.437699
 20
136.387982
 30
0.0
 10
750.337699
 20
136.387982
 30
0.0
 10
750.337699
 20
134.837962
 30
0.0
 10
756.037699
 20
134.837962
 30
0.0
 10
756.037699
 20
136.387982
 30
0.0
 10
762.937699
 20
136.387982
 30
0.0
 10
762.937699
 20
131.287973
 30
0.0
 10
767.812699
 20
131.287973
 30
0.0
 10
769.437698
 20
129.662966
 30
0.0
 10
769.437698
 20
117.912982
 30
0.0
 10
767.812699
 20
116.287975
 30
0.0
 10
762.937699
 20
116.287975
 30
0.0
 10
762.937699
 20
103.787986
 30
0.0
 10
272.937697
 20
103.787986
 30
0.0
 10
272.937697
 20
116.287975
 30
0.0
 10
268.062698
 20
116.287975
 30
0.0
 10
266.437699
 20
117.912982
 30
0.0
 10
266.437699
 20
129.662966
 30
0.0
 10
268.062698
 20
131.287973
 30
0.0
 10
272.937697
 20
131.287973
 30
0.0
 10
272.937697
 20
136.387982
 30
0.0
 10
279.837698
 20
136.387982
 30
0.0
 10
279.837698
 20
134.837962
 30
0.0
 10
285.537697
 20
134.837962
 30
0.0
 10
285.537697
 20
136.387982
 30
0.0
 10
292.437698
 20
136.387982
 30
0.0
 10
292.437698
 20
141.187962
 30
0.0
 10
285.537697
 20
141.187962
 30
0.0
 10
285.537697
 20
142.737982
 30
0.0
 10
279.837698
 20
142.737982
 30
0.0
 10
279.837698
 20
141.187962
 30
0.0
 10
272.937697
 20
141.187962
 30
0.0
 10
272.937697
 20
146.287971
 30
0.0
 10
268.062698
 20
146.287971
 30
0.0
 10
266.437699
 20
147.912978
 30
0.0
 10
266.437699
 20
159.662962
 30
0.0
 10
268.062698
 20
161.287969
 30
0.0
 10
272.937697
 20
161.287969
 30
0.0
 10
272.937697
 20
173.787987
 30
0.0
 10
348.437699
 20
173.787987
 30
0.0
 10
348.437699
 20
177.773275
 30
0.0
 10
351.952697
 20
181.287986
 30
0.0
 10
358.721699
 20
181.287986
 30
0.0
 10
358.581700
 20
181.072481
 30
0.0
  0
LWPOLYLINE
  5
101
100
AcDbEntity
  8
Layer_1
 62
7
100
AcDbPolyline
 90
5
 70
0
 10
380.487698
 20
116.737978
 30
0.0
 10
380.487698
 20
110.337968
 30
0.0
 10
395.387699
 20
110.337968
 30
0.0
 10
395.387699
 20
116.737978
 30
0.0
 10
380.487698
 20
116.737978
 30
0.0
  0
LWPOLYLINE
  5
102
100
AcDbEntity
  8
Layer_1
 62
7
100
AcDbPolyline
 90
5
 70
0
 10
350.487699
 20
116.737978
 30
0.0
 10
350.487699
 20
110.337968
 30
0.0
 10
365.387697
 20
110.337968
 30
0.0
 10
365.387697
 20
116.737978
 30
0.0
 10
350.487699
 20
116.737978
 30
0.0
  0
LWPOLYLINE
  5
103
100
AcDbEntity
  8
Layer_1
 62
7
100
AcDbPolyline
 90
5
 70
0
 10
640.487697
 20
116.737978
 30
0.0
 10
640.487697
 20
110.337968
 30
0.0
 10
655.387699
 20
110.337968
 30
0.0
 10
655.387699
 20
116.737978
 30
0.0
 10
640.487697
 20
116.737978
 30
0.0
  0
LWPOLYLINE
  5
104
100
AcDbEntity
  8
Layer_1
 62
7
100
AcDbPolyline
 90
5
 70
0
 10
670.487699
 20
116.737978
 30
0.0
 10
670.487699
 20
110.337968
 30
0.0
 10
685.387698
 20
110.337968
 30
0.0
 10
685.387698
 20
116.737978
 30
0.0
 10
670.487699
 20
116.737978
 30
0.0
  0
LWPOLYLINE
  5
105
100
AcDbEntity
  8
Layer_1
 62
7
100
AcDbPolyline
 90
35
 70
0
 10
372.688699
 20
116.226450
 30
0.0
 10
372.198699
 20
116.134897
 30
0.0
 10
371.734697
 20
115.954896
 30
0.0
 10
371.310698
 20
115.692599
 30
0.0
 10
370.942697
 20
115.356952
 30
0.0
 10
370.641699
 20
114.959329
 30
0.0
 10
370.419697
 20
114.513305
 30
0.0
 10
370.283700
 20
114.034092
 30
0.0
 10
370.237697
 20
113.537973
 30
0.0
 10
370.283700
 20
113.041855
 30
0.0
 10
370.419697
 20
112.562641
 30
0.0
 10
370.641699
 20
112.116617
 30
0.0
 10
370.942697
 20
111.718994
 30
0.0
 10
371.310698
 20
111.383348
 30
0.0
 10
371.734697
 20
111.121050
 30
0.0
 10
372.198699
 20
110.941049
 30
0.0
 10
372.688699
 20
110.849496
 30
0.0
 10
373.186700
 20
110.849496
 30
0.0
 10
373.676699
 20
110.941049
 30
0.0
 10
374.140698
 20
111.121050
 30
0.0
 10
374.564697
 20
111.383348
 30
0.0
 10
374.932698
 20
111.718994
 30
0.0
 10
375.233700
 20
112.116617
 30
0.0
 10
375.455698
 20
112.562641
 30
0.0
 10
375.591699
 20
113.041855
 30
0.0
 10
375.637698
 20
113.537973
 30
0.0
 10
375.591699
 20
114.034092
 30
0.0
 10
375.455698
 20
114.513305
 30
0.0
 10
375.233700
 20
114.959329
 30
0.0
 10
374.932698
 20
115.356952
 30
0.0
 10
374.564697
 20
115.692599
 30
0.0
 10
374.140698
 20
115.954896
 30
0.0
 10
373.676699
 20
116.134897
 30
0.0
 10
373.186700
 20
116.226450
 30
0.0
 10
372.688699
 20
116.226450
 30
0.0
  0
LWPOLYLINE
  5
106
100
AcDbEntity
  8
Layer_1
 62
7
100
AcDbPolyline
 90
35
 70
0
 10
662.688697
 20
116.226450
 30
0.0
 10
662.198697
 20
116.134897
 30
0.0
 10
661.734699
 20
115.954896
 30
0.0
 10
661.310699
 20
115.692599
 30
0.0
 10
660.942698
 20
115.356952
 30
0.0
 10
660.641697
 20
114.959329
 30
0.0
 10
660.419698
 20
114.513305
 30
0.0
 10
660.283698
 20
114.034092
 30
0.0
 10
660.237699
 20
113.537973
 30
0.0
 10
660.283698
 20
113.041855
 30
0.0
 10
660.419698
 20
112.562641
 30
0.0
 10
660.641697
 20
112.116617
 30
0.0
 10
660.942698
 20
111.718994
 30
0.0
 10
661.310699
 20
111.383348
 30
0.0
 10
661.734699
 20
111.121050
 30
0.0
 10
662.198697
 20
110.941049
 30
0.0
 10
662.688697
 20
110.849496
 30
0.0
 10
663.186698
 20
110.849496
 30
0.0
 10
663.676698
 20
110.941049
 30
0.0
 10
664.140699
 20
111.121050
 30
0.0
 10
664.564699
 20
111.383348
 30
0.0
 10
664.932700
 20
111.718994
 30
0.0
 10
665.233698
 20
112.116617
 30
0.0
 10
665.455700
 20
112.562641
 30
0.0
 10
665.591697
 20
113.041855
 30
0.0
 10
665.637699
 20
113.537973
 30
0.0
 10
665.591697
 20
114.034092
 30
0.0
 10
665.455700
 20
114.513305
 30
0.0
 10
665.233698
 20
114.959329
 30
0.0
 10
664.932700
 20
115.356952
 30
0.0
 10
664.564699
 20
115.692599
 30
0.0
 10
664.140699
 20
115.954896
 30
0.0
 10
663.676698
 20
116.134897
 30
0.0
 10
663.186698
 20
116.226450
 30
0.0
 10
662.688697
 20
116.226450
 30
0.0
  0
LWPOLYLINE
  5
107
100
AcDbEntity
  8
Layer_1
 62
7
100
AcDbPolyline
 90
35
 70
0
 10
752.441697
 20
125.941978
 30
0.0
 10
751.962698
 20
125.805665
 30
0.0
 10
751.516699
 20
125.583584
 30
0.0
 10
751.118698
 20
125.283272
 30
0.0
 10
750.782699
 20
124.915085
 30
0.0
 10
750.520698
 20
124.491469
 30
0.0
 10
750.340699
 20
124.026875
 30
0.0
 10
750.249700
 20
123.537078
 30
0.0
 10
750.249700
 20
123.038843
 30
0.0
 10
750.340699
 20
122.549075
 30
0.0
 10
750.520698
 20
122.084452
 30
0.0
 10
750.782699
 20
121.660865
 30
0.0
 10
751.118698
 20
121.292650
 30
0.0
 10
751.516699
 20
120.992393
 30
0.0
 10
751.962698
 20
120.770284
 30
0.0
 10
752.441697
 20
120.633943
 30
0.0
 10
752.937697
 20
120.587969
 30
0.0
 10
753.433700
 20
120.633943
 30
0.0
 10
753.912698
 20
120.770284
 30
0.0
 10
754.358700
 20
120.992393
 30
0.0
 10
754.756698
 20
121.292650
 30
0.0
 10
755.092698
 20
121.660865
 30
0.0
 10
755.354699
 20
122.084452
 30
0.0
 10
755.534697
 20
122.549075
 30
0.0
 10
755.625700
 20
123.038843
 30
0.0
 10
755.625700
 20
123.537078
 30
0.0
 10
755.534697
 20
124.026875
 30
0.0
 10
755.354699
 20
124.491469
 30
0.0
 10
755.092698
 20
124.915085
 30
0.0
 10
754.756698
 20
125.283272
 30
0.0
 10
754.358700
 20
125.583584
 30
0.0
 10
753.912698
 20
125.805665
 30
0.0
 10
753.433700
 20
125.941978
 30
0.0
 10
752.937697
 20
125.987981
 30
0.0
 10
752.441697
 20
125.941978
 30
0.0
  0
LWPOLYLINE
  5
108
100
AcDbEntity
  8
Layer_1
 62
7
100
AcDbPolyline
 90
35
 70
0
 10
282.441697
 20
125.941978
 30
0.0
 10
281.962698
 20
125.805665
 30
0.0
 10
281.516697
 20
125.583584
 30
0.0
 10
281.118699
 20
125.283272
 30
0.0
 10
280.782699
 20
124.915085
 30
0.0
 10
280.520698
 20
124.491469
 30
0.0
 10
280.340699
 20
124.026875
 30
0.0
 10
280.249697
 20
123.537078
 30
0.0
 10
280.249697
 20
123.038843
 30
0.0
 10
280.340699
 20
122.549075
 30
0.0
 10
280.520698
 20
122.084452
 30
0.0
 10
280.782699
 20
121.660865
 30
0.0
 10
281.118699
 20
121.292650
 30
0.0
 10
281.516697
 20
120.992393
 30
0.0
 10
281.962698
 20
120.770284
 30
0.0
 10
282.441697
 20
120.633943
 30
0.0
 10
282.937700
 20
120.587969
 30
0.0
 10
283.433700
 20
120.633943
 30
0.0
 10
283.912699
 20
120.770284
 30
0.0
 10
284.358697
 20
120.992393
 30
0.0
 10
284.756698
 20
121.292650
 30
0.0
 10
285.092698
 20
121.660865
 30
0.0
 10
285.354699
 20
122.084452
 30
0.0
 10
285.534697
 20
122.549075
 30
0.0
 10
285.625697
 20
123.038843
 30
0.0
 10
285.625697
 20
123.537078
 30
0.0
 10
285.534697
 20
124.026875
 30
0.0
 10
285.354699
 20
124.491469
 30
0.0
 10
285.092698
 20
124.915085
 30
0.0
 10
284.756698
 20
125.283272
 30
0.0
 10
284.358697
 20
125.583584
 30
0.0
 10
283.912699
 20
125.805665
 30
0.0
 10
283.433700
 20
125.941978
 30
0.0
 10
282.937700
 20
125.987981
 30
0.0
 10
282.441697
 20
125.941978
 30
0.0
  0
LWPOLYLINE
  5
109
100
AcDbEntity
  8
Layer_1
 62
7
100
AcDbPolyline
 90
5
 70
0
 10
640.487697
 20
148.237986
 30
0.0
 10
640.487697
 20
141.837976
 30
0.0
 10
655.387699
 20
141.837976
 30
0.0
 10
655.387699
 20
148.237986
 30
0.0
 10
640.487697
 20
148.237986
 30
0.0
  0
LWPOLYLINE
  5
10a
100
AcDbEntity
  8
Layer_1
 62
7
100
AcDbPolyline
 90
5
 70
0
 10
350.487699
 20
148.237986
 30
0.0
 10
350.487699
 20
141.837976
 30
0.0
 10
365.387697
 20
141.837976
 30
0.0
 10
365.387697
 20
148.237986
 30
0.0
 10
350.487699
 20
148.237986
 30
0.0
  0
LWPOLYLINE
  5
10b
100
AcDbEntity
  8
Layer_1
 62
7
100
AcDbPolyline
 90
5
 70
0
 10
495.487698
 20
148.237986
 30
0.0
 10
495.487698
 20
141.837976
 30
0.0
 10
510.387708
 20
141.837976
 30
0.0
 10
510.387708
 20
148.237986
 30
0.0
 10
495.487698
 20
148.237986
 30
0.0
  0
LWPOLYLINE
  5
10c
100
AcDbEntity
  8
Layer_1
 62
7
100
AcDbPolyline
 90
5
 70
0
 10
380.487698
 20
148.237986
 30
0.0
 10
380.487698
 20
141.837976
 30
0.0
 10
395.387699
 20
141.837976
 30
0.0
 10
395.387699
 20
148.237986
 30
0.0
 10
380.487698
 20
148.237986
 30
0.0
  0
LWPOLYLINE
  5
10d
100
AcDbEntity
  8
Layer_1
 62
7
100
AcDbPolyline
 90
5
 70
0
 10
670.487699
 20
148.237986
 30
0.0
 10
670.487699
 20
141.837976
 30
0.0
 10
685.387698
 20
141.837976
 30
0.0
 10
685.387698
 20
148.237986
 30
0.0
 10
670.487699
 20
148.237986
 30
0.0
  0
LWPOLYLINE
  5
10e
100
AcDbEntity
  8
Layer_1
 62
7
100
AcDbPolyline
 90
5
 70
0
 10
525.487688
 20
148.237986
 30
0.0
 10
525.487688
 20
141.837976
 30
0.0
 10
540.387698
 20
141.837976
 30
0.0
 10
540.387698
 20
148.237986
 30
0.0
 10
525.487688
 20
148.237986
 30
0.0
  0
LWPOLYLINE
  5
10f
100
AcDbEntity
  8
Layer_1
 62
7
100
AcDbPolyline
 90
35
 70
0
 10
372.688699
 20
147.726486
 30
0.0
 10
372.198699
 20
147.634877
 30
0.0
 10
371.734697
 20
147.454875
 30
0.0
 10
371.310698
 20
147.192578
 30
0.0
 10
370.942697
 20
146.856988
 30
0.0
 10
370.641699
 20
146.459365
 30
0.0
 10
370.419697
 20
146.013284
 30
0.0
 10
370.283700
 20
145.534071
 30
0.0
 10
370.237697
 20
145.037981
 30
0.0
 10
370.283700
 20
144.541862
 30
0.0
 10
370.419697
 20
144.062564
 30
0.0
 10
370.641699
 20
143.616568
 30
0.0
 10
370.942697
 20
143.218974
 30
0.0
 10
371.310698
 20
142.883383
 30
0.0
 10
371.734697
 20
142.621086
 30
0.0
 10
372.198699
 20
142.441085
 30
0.0
 10
372.688699
 20
142.349475
 30
0.0
 10
373.186700
 20
142.349475
 30
0.0
 10
373.676699
 20
142.441085
 30
0.0
 10
374.140698
 20
142.621086
 30
0.0
 10
374.564697
 20
142.883383
 30
0.0
 10
374.932698
 20
143.218974
 30
0.0
 10
375.233700
 20
143.616568
 30
0.0
 10
375.455698
 20
144.062564
 30
0.0
 10
375.591699
 20
144.541862
 30
0.0
 10
375.637698
 20
145.037981
 30
0.0
 10
375.591699
 20
145.534071
 30
0.0
 10
375.455698
 20
146.013284
 30
0.0
 10
375.233700
 20
146.459365
 30
0.0
 10
374.932698
 20
146.856988
 30
0.0
 10
374.564697
 20
147.192578
 30
0.0
 10
374.140698
 20
147.454875
 30
0.0
 10
373.676699
 20
147.634877
 30
0.0
 10
373.186700
 20
147.726486
 30
0.0
 10
372.688699
 20
147.726486
 30
0.0
  0
LWPOLYLINE
  5
110
100
AcDbEntity
  8
Layer_1
 62
7
100
AcDbPolyline
 90
35
 70
0
 10
662.688697
 20
147.726486
 30
0.0
 10
662.198697
 20
147.634877
 30
0.0
 10
661.734699
 20
147.454875
 30
0.0
 10
661.310699
 20
147.192578
 30
0.0
 10
660.942698
 20
146.856988
 30
0.0
 10
660.641697
 20
146.459365
 30
0.0
 10
660.419698
 20
146.013284
 30
0.0
 10
660.283698
 20
145.534071
 30
0.0
 10
660.237699
 20
145.037981
 30
0.0
 10
660.283698
 20
144.541862
 30
0.0
 10
660.419698
 20
144.062564
 30
0.0
 10
660.641697
 20
143.616568
 30
0.0
 10
660.942698
 20
143.218974
 30
0.0
 10
661.310699
 20
142.883383
 30
0.0
 10
661.734699
 20
142.621086
 30
0.0
 10
662.198697
 20
142.441085
 30
0.0
 10
662.688697
 20
142.349475
 30
0.0
 10
663.186698
 20
142.349475
 30
0.0
 10
663.676698
 20
142.441085
 30
0.0
 10
664.140699
 20
142.621086
 30
0.0
 10
664.564699
 20
142.883383
 30
0.0
 10
664.932700
 20
143.218974
 30
0.0
 10
665.233698
 20
143.616568
 30
0.0
 10
665.455700
 20
144.062564
 30
0.0
 10
665.591697
 20
144.541862
 30
0.0
 10
665.637699
 20
145.037981
 30
0.0
 10
665.591697
 20
145.534071
 30
0.0
 10
665.455700
 20
146.013284
 30
0.0
 10
665.233698
 20
146.459365
 30
0.0
 10
664.932700
 20
146.856988
 30
0.0
 10
664.564699
 20
147.192578
 30
0.0
 10
664.140699
 20
147.454875
 30
0.0
 10
663.676698
 20
147.634877
 30
0.0
 10
663.186698
 20
147.726486
 30
0.0
 10
662.688697
 20
147.726486
 30
0.0
  0
LWPOLYLINE
  5
111
100
AcDbEntity
  8
Layer_1
 62
7
100
AcDbPolyline
 90
35
 70
0
 10
517.688583
 20
147.726486
 30
0.0
 10
517.198822
 20
147.634877
 30
0.0
 10
516.734208
 20
147.454875
 30
0.0
 10
516.310588
 20
147.192578
 30
0.0
 10
515.942378
 20
146.856988
 30
0.0
 10
515.642118
 20
146.459365
 30
0.0
 10
515.420028
 20
146.013284
 30
0.0
 10
515.283678
 20
145.534071
 30
0.0
 10
515.237698
 20
145.037981
 30
0.0
 10
515.283678
 20
144.541862
 30
0.0
 10
515.420028
 20
144.062564
 30
0.0
 10
515.642118
 20
143.616568
 30
0.0
 10
515.942378
 20
143.218974
 30
0.0
 10
516.310588
 20
142.883383
 30
0.0
 10
516.734208
 20
142.621086
 30
0.0
 10
517.198822
 20
142.441085
 30
0.0
 10
517.688583
 20
142.349475
 30
0.0
 10
518.186813
 20
142.349475
 30
0.0
 10
518.676574
 20
142.441085
 30
0.0
 10
519.141188
 20
142.621086
 30
0.0
 10
519.564808
 20
142.883383
 30
0.0
 10
519.933018
 20
143.218974
 30
0.0
 10
520.233278
 20
143.616568
 30
0.0
 10
520.455368
 20
144.062564
 30
0.0
 10
520.591718
 20
144.541862
 30
0.0
 10
520.637698
 20
145.037981
 30
0.0
 10
520.591718
 20
145.534071
 30
0.0
 10
520.455368
 20
146.013284
 30
0.0
 10
520.233278
 20
146.459365
 30
0.0
 10
519.933018
 20
146.856988
 30
0.0
 10
519.564808
 20
147.192578
 30
0.0
 10
519.141188
 20
147.454875
 30
0.0
 10
518.676574
 20
147.634877
 30
0.0
 10
518.186813
 20
147.726486
 30
0.0
 10
517.688583
 20
147.726486
 30
0.0
  0
LWPOLYLINE
  5
112
100
AcDbEntity
  8
Layer_1
 62
7
100
AcDbPolyline
 90
35
 70
0
 10
282.441697
 20
163.441974
 30
0.0
 10
281.962698
 20
163.305661
 30
0.0
 10
281.516697
 20
163.083580
 30
0.0
 10
281.118699
 20
162.783267
 30
0.0
 10
280.782699
 20
162.415080
 30
0.0
 10
280.520698
 20
161.991465
 30
0.0
 10
280.340699
 20
161.526870
 30
0.0
 10
280.249697
 20
161.037074
 30
0.0
 10
280.249697
 20
160.538867
 30
0.0
 10
280.340699
 20
160.049070
 30
0.0
 10
280.520698
 20
159.584476
 30
0.0
 10
280.782699
 20
159.160889
 30
0.0
 10
281.118699
 20
158.792673
 30
0.0
 10
281.516697
 20
158.492361
 30
0.0
 10
281.962698
 20
158.270280
 30
0.0
 10
282.441697
 20
158.133967
 30
0.0
 10
282.937700
 20
158.087964
 30
0.0
 10
283.433700
 20
158.133967
 30
0.0
 10
283.912699
 20
158.270280
 30
0.0
 10
284.358697
 20
158.492361
 30
0.0
 10
284.756698
 20
158.792673
 30
0.0
 10
285.092698
 20
159.160889
 30
0.0
 10
285.354699
 20
159.584476
 30
0.0
 10
285.534697
 20
160.049070
 30
0.0
 10
285.625697
 20
160.538867
 30
0.0
 10
285.625697
 20
161.037074
 30
0.0
 10
285.534697
 20
161.526870
 30
0.0
 10
285.354699
 20
161.991465
 30
0.0
 10
285.092698
 20
162.415080
 30
0.0
 10
284.756698
 20
162.783267
 30
0.0
 10
284.358697
 20
163.083580
 30
0.0
 10
283.912699
 20
163.305661
 30
0.0
 10
283.433700
 20
163.441974
 30
0.0
 10
282.937700
 20
163.487976
 30
0.0
 10
282.441697
 20
163.441974
 30
0.0
  0
LWPOLYLINE
  5
113
100
AcDbEntity
  8
Layer_1
 62
7
100
AcDbPolyline
 90
35
 70
0
 10
752.441697
 20
163.441974
 30
0.0
 10
751.962698
 20
163.305661
 30
0.0
 10
751.516699
 20
163.083580
 30
0.0
 10
751.118698
 20
162.783267
 30
0.0
 10
750.782699
 20
162.415080
 30
0.0
 10
750.520698
 20
161.991465
 30
0.0
 10
750.340699
 20
161.526870
 30
0.0
 10
750.249700
 20
161.037074
 30
0.0
 10
750.249700
 20
160.538867
 30
0.0
 10
750.340699
 20
160.049070
 30
0.0
 10
750.520698
 20
159.584476
 30
0.0
 10
750.782699
 20
159.160889
 30
0.0
 10
751.118698
 20
158.792673
 30
0.0
 10
751.516699
 20
158.492361
 30
0.0
 10
751.962698
 20
158.270280
 30
0.0
 10
752.441697
 20
158.133967
 30
0.0
 10
752.937697
 20
158.087964
 30
0.0
 10
753.433700
 20
158.133967
 30
0.0
 10
753.912698
 20
158.270280
 30
0.0
 10
754.358700
 20
158.492361
 30
0.0
 10
754.756698
 20
158.792673
 30
0.0
 10
755.092698
 20
159.160889
 30
0.0
 10
755.354699
 20
159.584476
 30
0.0
 10
755.534697
 20
160.049070
 30
0.0
 10
755.625700
 20
160.538867
 30
0.0
 10
755.625700
 20
161.037074
 30
0.0
 10
755.534697
 20
161.526870
 30
0.0
 10
755.354699
 20
161.991465
 30
0.0
 10
755.092698
 20
162.415080
 30
0.0
 10
754.756698
 20
162.783267
 30
0.0
 10
754.358700
 20
163.083580
 30
0.0
 10
753.912698
 20
163.305661
 30
0.0
 10
753.433700
 20
163.441974
 30
0.0
 10
752.937697
 20
163.487976
 30
0.0
 10
752.441697
 20
163.441974
 30
0.0
  0
LWPOLYLINE
  5
114
100
AcDbEntity
  8
Layer_1
 62
7
100
AcDbPolyline
 90
23
 70
0
 10
367.695699
 20
162.770680
 30
0.0
 10
367.231698
 20
162.634367
 30
0.0
 10
366.824699
 20
162.372775
 30
0.0
 10
366.507699
 20
162.007072
 30
0.0
 10
366.306697
 20
161.566861
 30
0.0
 10
366.237700
 20
161.087987
 30
0.0
 10
366.306697
 20
160.608971
 30
0.0
 10
366.507699
 20
160.168874
 30
0.0
 10
366.824699
 20
159.803170
 30
0.0
 10
367.231698
 20
159.541578
 30
0.0
 10
367.695699
 20
159.405265
 30
0.0
 10
368.179699
 20
159.405265
 30
0.0
 10
368.643698
 20
159.541578
 30
0.0
 10
369.050699
 20
159.803170
 30
0.0
 10
369.367699
 20
160.168874
 30
0.0
 10
369.568698
 20
160.608971
 30
0.0
 10
369.637699
 20
161.087987
 30
0.0
 10
369.568698
 20
161.566861
 30
0.0
 10
369.367699
 20
162.007072
 30
0.0
 10
369.050699
 20
162.372775
 30
0.0
 10
368.643698
 20
162.634367
 30
0.0
 10
368.179699
 20
162.770680
 30
0.0
 10
367.695699
 20
162.770680
 30
0.0
  0
LWPOLYLINE
  5
115
100
AcDbEntity
  8
Layer_1
 62
7
100
AcDbPolyline
 90
23
 70
0
 10
517.695770
 20
162.770680
 30
0.0
 10
517.231506
 20
162.634367
 30
0.0
 10
516.824448
 20
162.372775
 30
0.0
 10
516.507568
 20
162.007072
 30
0.0
 10
516.306568
 20
161.566861
 30
0.0
 10
516.237698
 20
161.087987
 30
0.0
 10
516.306568
 20
160.608971
 30
0.0
 10
516.507568
 20
160.168874
 30
0.0
 10
516.824448
 20
159.803170
 30
0.0
 10
517.231506
 20
159.541578
 30
0.0
 10
517.695770
 20
159.405265
 30
0.0
 10
518.179626
 20
159.405265
 30
0.0
 10
518.643890
 20
159.541578
 30
0.0
 10
519.050948
 20
159.803170
 30
0.0
 10
519.367828
 20
160.168874
 30
0.0
 10
519.568828
 20
160.608971
 30
0.0
 10
519.637698
 20
161.087987
 30
0.0
 10
519.568828
 20
161.566861
 30
0.0
 10
519.367828
 20
162.007072
 30
0.0
 10
519.050948
 20
162.372775
 30
0.0
 10
518.643890
 20
162.634367
 30
0.0
 10
518.179626
 20
162.770680
 30
0.0
 10
517.695770
 20
162.770680
 30
0.0
  0
LWPOLYLINE
  5
116
100
AcDbEntity
  8
Layer_1
 62
7
100
AcDbPolyline
 90
23
 70
0
 10
667.695698
 20
162.770680
 30
0.0
 10
667.231699
 20
162.634367
 30
0.0
 10
666.824698
 20
162.372775
 30
0.0
 10
666.507697
 20
162.007072
 30
0.0
 10
666.306699
 20
161.566861
 30
0.0
 10
666.237698
 20
161.087987
 30
0.0
 10
666.306699
 20
160.608971
 30
0.0
 10
666.507697
 20
160.168874
 30
0.0
 10
666.824698
 20
159.803170
 30
0.0
 10
667.231699
 20
159.541578
 30
0.0
 10
667.695698
 20
159.405265
 30
0.0
 10
668.179697
 20
159.405265
 30
0.0
 10
668.643699
 20
159.541578
 30
0.0
 10
669.050697
 20
159.803170
 30
0.0
 10
669.367698
 20
160.168874
 30
0.0
 10
669.568699
 20
160.608971
 30
0.0
 10
669.637697
 20
161.087987
 30
0.0
 10
669.568699
 20
161.566861
 30
0.0
 10
669.367698
 20
162.007072
 30
0.0
 10
669.050697
 20
162.372775
 30
0.0
 10
668.643699
 20
162.634367
 30
0.0
 10
668.179697
 20
162.770680
 30
0.0
 10
667.695698
 20
162.770680
 30
0.0
  0
LWPOLYLINE
  5
117
100
AcDbEntity
  8
Layer_1
 62
7
100
AcDbPolyline
 90
64
 70
0
 10
615.688498
 20
180.281779
 30
0.0
 10
615.192498
 20
180.232164
 30
0.0
 10
614.703898
 20
180.133386
 30
0.0
 10
614.227597
 20
179.986462
 30
0.0
 10
613.768297
 20
179.792772
 30
0.0
 10
613.330497
 20
179.554379
 30
0.0
 10
612.918698
 20
179.273681
 30
0.0
 10
612.536798
 20
178.953274
 30
0.0
 10
612.188798
 20
178.596376
 30
0.0
 10
611.877998
 20
178.206684
 30
0.0
 10
611.607598
 20
177.787979
 30
0.0
 10
611.380198
 20
177.344382
 30
0.0
 10
611.198099
 20
176.880380
 30
0.0
 10
611.063098
 20
176.400574
 30
0.0
 10
610.976499
 20
175.909677
 30
0.0
 10
610.939299
 20
175.412571
 30
0.0
 10
610.951688
 20
174.914279
 30
0.0
 10
611.013698
 20
174.419769
 30
0.0
 10
611.124597
 20
173.933783
 30
0.0
 10
611.283299
 20
173.461286
 30
0.0
 10
611.488297
 20
173.006880
 30
0.0
 10
611.737598
 20
172.575278
 30
0.0
 10
612.028499
 20
172.170571
 30
0.0
 10
612.358397
 20
171.796768
 30
0.0
 10
612.723798
 20
171.457762
 30
0.0
 10
613.121100
 20
171.156772
 30
0.0
 10
613.546397
 20
170.896874
 30
0.0
 10
613.995497
 20
170.680579
 30
0.0
 10
614.463899
 20
170.510060
 30
0.0
 10
614.946998
 20
170.387068
 30
0.0
 10
615.439899
 20
170.312787
 30
0.0
 10
615.937697
 20
170.287951
 30
0.0
 10
616.435498
 20
170.312815
 30
0.0
 10
616.928399
 20
170.387068
 30
0.0
 10
617.411498
 20
170.510060
 30
0.0
 10
617.879900
 20
170.680579
 30
0.0
 10
618.328698
 20
170.896874
 30
0.0
 10
618.754698
 20
171.156772
 30
0.0
 10
619.151697
 20
171.457762
 30
0.0
 10
619.516698
 20
171.796768
 30
0.0
 10
619.846698
 20
172.170571
 30
0.0
 10
620.137697
 20
172.575278
 30
0.0
 10
620.386699
 20
173.006880
 30
0.0
 10
620.591700
 20
173.461286
 30
0.0
 10
620.750698
 20
173.933783
 30
0.0
 10
620.861699
 20
174.419769
 30
0.0
 10
620.923697
 20
174.914279
 30
0.0
 10
620.935692
 20
175.412571
 30
0.0
 10
620.898698
 20
175.909677
 30
0.0
 10
620.812699
 20
176.400574
 30
0.0
 10
620.677698
 20
176.880380
 30
0.0
 10
620.495699
 20
177.344382
 30
0.0
 10
620.267697
 20
177.787979
 30
0.0
 10
619.997698
 20
178.206684
 30
0.0
 10
619.686698
 20
178.596376
 30
0.0
 10
619.338698
 20
178.953274
 30
0.0
 10
618.956699
 20
179.273681
 30
0.0
 10
618.544699
 20
179.554379
 30
0.0
 10
618.106699
 20
179.792772
 30
0.0
 10
617.647797
 20
179.986462
 30
0.0
 10
617.171499
 20
180.133386
 30
0.0
 10
616.682899
 20
180.232164
 30
0.0
 10
616.186899
 20
180.281779
 30
0.0
 10
615.688498
 20
180.281779
 30
0.0
  0
LWPOLYLINE
  5
118
100
AcDbEntity
  8
Layer_1
 62
7
100
AcDbPolyline
 90
64
 70
0
 10
419.688497
 20
180.281779
 30
0.0
 10
419.192497
 20
180.232164
 30
0.0
 10
418.703897
 20
180.133386
 30
0.0
 10
418.227599
 20
179.986462
 30
0.0
 10
417.768698
 20
179.792772
 30
0.0
 10
417.330697
 20
179.554379
 30
0.0
 10
416.918698
 20
179.273681
 30
0.0
 10
416.536699
 20
178.953274
 30
0.0
 10
416.188699
 20
178.596376
 30
0.0
 10
415.877699
 20
178.206684
 30
0.0
 10
415.607700
 20
177.787979
 30
0.0
 10
415.379698
 20
177.344382
 30
0.0
 10
415.197698
 20
176.880380
 30
0.0
 10
415.062697
 20
176.400574
 30
0.0
 10
414.976699
 20
175.909677
 30
0.0
 10
414.939699
 20
175.412571
 30
0.0
 10
414.951694
 20
174.914279
 30
0.0
 10
415.013698
 20
174.419769
 30
0.0
 10
415.124699
 20
173.933783
 30
0.0
 10
415.283697
 20
173.461286
 30
0.0
 10
415.488698
 20
173.006880
 30
0.0
 10
415.737700
 20
172.575278
 30
0.0
 10
416.028699
 20
172.170571
 30
0.0
 10
416.358699
 20
171.796768
 30
0.0
 10
416.723699
 20
171.457762
 30
0.0
 10
417.120699
 20
171.156772
 30
0.0
 10
417.546699
 20
170.896874
 30
0.0
 10
417.995497
 20
170.680579
 30
0.0
 10
418.463898
 20
170.510060
 30
0.0
 10
418.946998
 20
170.387068
 30
0.0
 10
419.439899
 20
170.312787
 30
0.0
 10
419.937700
 20
170.287951
 30
0.0
 10
420.435497
 20
170.312815
 30
0.0
 10
420.928398
 20
170.387068
 30
0.0
 10
421.411498
 20
170.510060
 30
0.0
 10
421.879899
 20
170.680579
 30
0.0
 10
422.329000
 20
170.896874
 30
0.0
 10
422.754297
 20
171.156772
 30
0.0
 10
423.151598
 20
171.457762
 30
0.0
 10
423.517000
 20
171.796768
 30
0.0
 10
423.846898
 20
172.170571
 30
0.0
 10
424.137798
 20
172.575278
 30
0.0
 10
424.387099
 20
173.006880
 30
0.0
 10
424.592097
 20
173.461286
 30
0.0
 10
424.750799
 20
173.933783
 30
0.0
 10
424.861698
 20
174.419769
 30
0.0
 10
424.923700
 20
174.914279
 30
0.0
 10
424.936089
 20
175.412571
 30
0.0
 10
424.898898
 20
175.909677
 30
0.0
 10
424.812298
 20
176.400574
 30
0.0
 10
424.677297
 20
176.880380
 30
0.0
 10
424.495199
 20
177.344382
 30
0.0
 10
424.267798
 20
177.787979
 30
0.0
 10
423.997399
 20
178.206684
 30
0.0
 10
423.686599
 20
178.596376
 30
0.0
 10
423.338599
 20
178.953274
 30
0.0
 10
422.956698
 20
179.273681
 30
0.0
 10
422.544900
 20
179.554379
 30
0.0
 10
422.107100
 20
179.792772
 30
0.0
 10
421.647800
 20
179.986462
 30
0.0
 10
421.171499
 20
180.133386
 30
0.0
 10
420.682899
 20
180.232164
 30
0.0
 10
420.186899
 20
180.281779
 30
0.0
 10
419.688497
 20
180.281779
 30
0.0
  0
LWPOLYLINE
  5
119
100
AcDbEntity
  8
Layer_1
 62
7
100
AcDbPolyline
 90
5
 70
0
 10
625.437698
 20
177.787979
 30
0.0
 10
625.437698
 20
172.787989
 30
0.0
 10
628.437697
 20
172.787989
 30
0.0
 10
628.437697
 20
177.787979
 30
0.0
 10
625.437698
 20
177.787979
 30
0.0
  0
LWPOLYLINE
  5
11a
100
AcDbEntity
  8
Layer_1
 62
7
100
AcDbPolyline
 90
5
 70
0
 10
407.437699
 20
177.787979
 30
0.0
 10
407.437699
 20
172.787989
 30
0.0
 10
410.437699
 20
172.787989
 30
0.0
 10
410.437699
 20
177.787979
 30
0.0
 10
407.437699
 20
177.787979
 30
0.0
  0
LWPOLYLINE
  5
11b
100
AcDbEntity
  8
Layer_1
 62
7
100
AcDbPolyline
 90
5
 70
0
 10
429.437698
 20
177.787979
 30
0.0
 10
429.437698
 20
172.787989
 30
0.0
 10
432.437697
 20
172.787989
 30
0.0
 10
432.437697
 20
177.787979
 30
0.0
 10
429.437698
 20
177.787979
 30
0.0
  0
LWPOLYLINE
  5
11c
100
AcDbEntity
  8
Layer_1
 62
7
100
AcDbPolyline
 90
5
 70
0
 10
603.437700
 20
177.787979
 30
0.0
 10
603.437700
 20
172.787989
 30
0.0
 10
606.437699
 20
172.787989
 30
0.0
 10
606.437699
 20
177.787979
 30
0.0
 10
603.437700
 20
177.787979
 30
0.0
  0
LWPOLYLINE
  5
11d
100
AcDbEntity
  8
Layer_1
 62
7
100
AcDbPolyline
 90
23
 70
0
 10
381.658697
 20
176.919073
 30
0.0
 10
381.218699
 20
176.718074
 30
0.0
 10
380.852699
 20
176.401280
 30
0.0
 10
380.591697
 20
175.994174
 30
0.0
 10
380.454698
 20
175.529862
 30
0.0
 10
380.454698
 20
175.046077
 30
0.0
 10
380.591697
 20
174.581765
 30
0.0
 10
380.852699
 20
174.174688
 30
0.0
 10
381.218699
 20
173.857865
 30
0.0
 10
381.658697
 20
173.656866
 30
0.0
 10
382.137699
 20
173.587976
 30
0.0
 10
382.616698
 20
173.656866
 30
0.0
 10
383.056699
 20
173.857865
 30
0.0
 10
383.422699
 20
174.174688
 30
0.0
 10
383.683698
 20
174.581765
 30
0.0
 10
383.820697
 20
175.046077
 30
0.0
 10
383.820697
 20
175.529862
 30
0.0
 10
383.683698
 20
175.994174
 30
0.0
 10
383.422699
 20
176.401280
 30
0.0
 10
383.056699
 20
176.718074
 30
0.0
 10
382.616698
 20
176.919073
 30
0.0
 10
382.137699
 20
176.987963
 30
0.0
 10
381.658697
 20
176.919073
 30
0.0
  0
LWPOLYLINE
  5
11e
100
AcDbEntity
  8
Layer_1
 62
7
100
AcDbPolyline
 90
23
 70
0
 10
503.258798
 20
176.919073
 30
0.0
 10
502.818598
 20
176.718074
 30
0.0
 10
502.452898
 20
176.401280
 30
0.0
 10
502.191298
 20
175.994174
 30
0.0
 10
502.054998
 20
175.529862
 30
0.0
 10
502.054998
 20
175.046077
 30
0.0
 10
502.191298
 20
174.581765
 30
0.0
 10
502.452898
 20
174.174688
 30
0.0
 10
502.818598
 20
173.857865
 30
0.0
 10
503.258798
 20
173.656866
 30
0.0
 10
503.737698
 20
173.587976
 30
0.0
 10
504.216598
 20
173.656866
 30
0.0
 10
504.656798
 20
173.857865
 30
0.0
 10
505.022498
 20
174.174688
 30
0.0
 10
505.284098
 20
174.581765
 30
0.0
 10
505.420398
 20
175.046077
 30
0.0
 10
505.420398
 20
175.529862
 30
0.0
 10
505.284098
 20
175.994174
 30
0.0
 10
505.022498
 20
176.401280
 30
0.0
 10
504.656798
 20
176.718074
 30
0.0
 10
504.216598
 20
176.919073
 30
0.0
 10
503.737698
 20
176.987963
 30
0.0
 10
503.258798
 20
176.919073
 30
0.0
  0
LWPOLYLINE
  5
11f
100
AcDbEntity
  8
Layer_1
 62
7
100
AcDbPolyline
 90
23
 70
0
 10
531.658798
 20
176.919073
 30
0.0
 10
531.218598
 20
176.718074
 30
0.0
 10
530.852898
 20
176.401280
 30
0.0
 10
530.591298
 20
175.994174
 30
0.0
 10
530.454998
 20
175.529862
 30
0.0
 10
530.454998
 20
175.046077
 30
0.0
 10
530.591298
 20
174.581765
 30
0.0
 10
530.852898
 20
174.174688
 30
0.0
 10
531.218598
 20
173.857865
 30
0.0
 10
531.658798
 20
173.656866
 30
0.0
 10
532.137698
 20
173.587976
 30
0.0
 10
532.616598
 20
173.656866
 30
0.0
 10
533.056798
 20
173.857865
 30
0.0
 10
533.422498
 20
174.174688
 30
0.0
 10
533.684098
 20
174.581765
 30
0.0
 10
533.820398
 20
175.046077
 30
0.0
 10
533.820398
 20
175.529862
 30
0.0
 10
533.684098
 20
175.994174
 30
0.0
 10
533.422498
 20
176.401280
 30
0.0
 10
533.056798
 20
176.718074
 30
0.0
 10
532.616598
 20
176.919073
 30
0.0
 10
532.137698
 20
176.987963
 30
0.0
 10
531.658798
 20
176.919073
 30
0.0
  0
LWPOLYLINE
  5
120
100
AcDbEntity
  8
Layer_1
 62
7
100
AcDbPolyline
 90
23
 70
0
 10
653.258699
 20
176.919073
 30
0.0
 10
652.818697
 20
176.718074
 30
0.0
 10
652.452698
 20
176.401280
 30
0.0
 10
652.191698
 20
175.994174
 30
0.0
 10
652.054699
 20
175.529862
 30
0.0
 10
652.054699
 20
175.046077
 30
0.0
 10
652.191698
 20
174.581765
 30
0.0
 10
652.452698
 20
174.174688
 30
0.0
 10
652.818697
 20
173.857865
 30
0.0
 10
653.258699
 20
173.656866
 30
0.0
 10
653.737698
 20
173.587976
 30
0.0
 10
654.216699
 20
173.656866
 30
0.0
 10
654.656698
 20
173.857865
 30
0.0
 10
655.022698
 20
174.174688
 30
0.0
 10
655.283700
 20
174.581765
 30
0.0
 10
655.420699
 20
175.046077
 30
0.0
 10
655.420699
 20
175.529862
 30
0.0
 10
655.283700
 20
175.994174
 30
0.0
 10
655.022698
 20
176.401280
 30
0.0
 10
654.656698
 20
176.718074
 30
0.0
 10
654.216699
 20
176.919073
 30
0.0
 10
653.737698
 20
176.987963
 30
0.0
 10
653.258699
 20
176.919073
 30
0.0
  0
LWPOLYLINE
  5
121
100
AcDbEntity
  8
Layer_1
 62
7
100
AcDbPolyline
 90
23
 70
0
 10
681.658698
 20
176.919073
 30
0.0
 10
681.218697
 20
176.718074
 30
0.0
 10
680.852697
 20
176.401280
 30
0.0
 10
680.591698
 20
175.994174
 30
0.0
 10
680.454699
 20
175.529862
 30
0.0
 10
680.454699
 20
175.046077
 30
0.0
 10
680.591698
 20
174.581765
 30
0.0
 10
680.852697
 20
174.174688
 30
0.0
 10
681.218697
 20
173.857865
 30
0.0
 10
681.658698
 20
173.656866
 30
0.0
 10
682.137697
 20
173.587976
 30
0.0
 10
682.616699
 20
173.656866
 30
0.0
 10
683.056698
 20
173.857865
 30
0.0
 10
683.422697
 20
174.174688
 30
0.0
 10
683.683699
 20
174.581765
 30
0.0
 10
683.820699
 20
175.046077
 30
0.0
 10
683.820699
 20
175.529862
 30
0.0
 10
683.683699
 20
175.994174
 30
0.0
 10
683.422697
 20
176.401280
 30
0.0
 10
683.056698
 20
176.718074
 30
0.0
 10
682.616699
 20
176.919073
 30
0.0
 10
682.137697
 20
176.987963
 30
0.0
 10
681.658698
 20
176.919073
 30
0.0
  0
LWPOLYLINE
  5
122
100
AcDbEntity
  8
Layer_1
 62
7
100
AcDbPolyline
 90
23
 70
0
 10
353.258698
 20
176.919073
 30
0.0
 10
352.818699
 20
176.718074
 30
0.0
 10
352.452699
 20
176.401280
 30
0.0
 10
352.191697
 20
175.994174
 30
0.0
 10
352.054698
 20
175.529862
 30
0.0
 10
352.054698
 20
175.046077
 30
0.0
 10
352.191697
 20
174.581765
 30
0.0
 10
352.452699
 20
174.174688
 30
0.0
 10
352.818699
 20
173.857865
 30
0.0
 10
353.258698
 20
173.656866
 30
0.0
 10
353.737699
 20
173.587976
 30
0.0
 10
354.216698
 20
173.656866
 30
0.0
 10
354.656700
 20
173.857865
 30
0.0
 10
355.022699
 20
174.174688
 30
0.0
 10
355.283699
 20
174.581765
 30
0.0
 10
355.420698
 20
175.046077
 30
0.0
 10
355.420698
 20
175.529862
 30
0.0
 10
355.283699
 20
175.994174
 30
0.0
 10
355.022699
 20
176.401280
 30
0.0
 10
354.656700
 20
176.718074
 30
0.0
 10
354.216698
 20
176.919073
 30
0.0
 10
353.737699
 20
176.987963
 30
0.0
 10
353.258698
 20
176.919073
 30
0.0
  0
LWPOLYLINE
  5
123
100
AcDbEntity
  8
Layer_1
 62
7
100
AcDbPolyline
 90
14
 70
0
 10
665.331274
 20
90.422477
 30
0.0
 10
666.881266
 20
90.422477
 30
0.0
 10
666.881266
 20
84.722492
 30
0.0
 10
665.331274
 20
84.722492
 30
0.0
 10
665.331274
 20
77.822469
 30
0.0
 10
660.531266
 20
77.822469
 30
0.0
 10
660.531266
 20
84.722492
 30
0.0
 10
658.981274
 20
84.722492
 30
0.0
 10
658.981274
 20
90.422477
 30
0.0
 10
660.531266
 20
90.422477
 30
0.0
 10
660.531266
 20
97.322472
 30
0.0
 10
655.431257
 20
97.322472
 30
0.0
 10
655.431257
 20
102.197494
 30
0.0
 10
653.806249
 20
103.822473
 30
0.0
  0
LWPOLYLINE
  5
124
100
AcDbEntity
  8
Layer_1
 62
7
100
AcDbPolyline
 90
6
 70
0
 10
642.056266
 20
103.822473
 30
0.0
 10
640.431259
 20
102.197494
 30
0.0
 10
640.431259
 20
97.322472
 30
0.0
 10
540.431261
 20
97.322472
 30
0.0
 10
540.431261
 20
102.197494
 30
0.0
 10
538.806254
 20
103.822473
 30
0.0
  0
LWPOLYLINE
  5
125
100
AcDbEntity
  8
Layer_1
 62
7
100
AcDbPolyline
 90
18
 70
0
 10
527.056270
 20
103.822473
 30
0.0
 10
525.431263
 20
102.197494
 30
0.0
 10
525.431263
 20
97.322472
 30
0.0
 10
520.331253
 20
97.322472
 30
0.0
 10
520.331253
 20
90.422477
 30
0.0
 10
521.881274
 20
90.422477
 30
0.0
 10
521.881274
 20
84.722492
 30
0.0
 10
520.331253
 20
84.722492
 30
0.0
 10
520.331253
 20
77.822469
 30
0.0
 10
515.531274
 20
77.822469
 30
0.0
 10
515.531274
 20
84.722492
 30
0.0
 10
513.981253
 20
84.722492
 30
0.0
 10
513.981253
 20
90.422477
 30
0.0
 10
515.531274
 20
90.422477
 30
0.0
 10
515.531274
 20
97.322472
 30
0.0
 10
510.431265
 20
97.322472
 30
0.0
 10
510.431265
 20
102.197494
 30
0.0
 10
508.806257
 20
103.822473
 30
0.0
  0
LWPOLYLINE
  5
126
100
AcDbEntity
  8
Layer_1
 62
7
100
AcDbPolyline
 90
6
 70
0
 10
497.056274
 20
103.822473
 30
0.0
 10
495.431266
 20
102.197494
 30
0.0
 10
495.431266
 20
97.322472
 30
0.0
 10
395.431269
 20
97.322472
 30
0.0
 10
395.431269
 20
102.197494
 30
0.0
 10
393.806261
 20
103.822473
 30
0.0
  0
LWPOLYLINE
  5
127
100
AcDbEntity
  8
Layer_1
 62
7
100
AcDbPolyline
 90
18
 70
0
 10
382.056278
 20
103.822473
 30
0.0
 10
380.431271
 20
102.197494
 30
0.0
 10
380.431271
 20
97.322472
 30
0.0
 10
375.331261
 20
97.322472
 30
0.0
 10
375.331261
 20
90.422477
 30
0.0
 10
376.881254
 20
90.422477
 30
0.0
 10
376.881254
 20
84.722492
 30
0.0
 10
375.331261
 20
84.722492
 30
0.0
 10
375.331261
 20
77.822469
 30
0.0
 10
370.531254
 20
77.822469
 30
0.0
 10
370.531254
 20
84.722492
 30
0.0
 10
368.981261
 20
84.722492
 30
0.0
 10
368.981261
 20
90.422477
 30
0.0
 10
370.531254
 20
90.422477
 30
0.0
 10
370.531254
 20
97.322472
 30
0.0
 10
365.431272
 20
97.322472
 30
0.0
 10
365.431272
 20
102.197494
 30
0.0
 10
363.806265
 20
103.822473
 30
0.0
  0
LWPOLYLINE
  5
128
100
AcDbEntity
  8
Layer_1
 62
7
100
AcDbPolyline
 90
13
 70
0
 10
352.056253
 20
103.822473
 30
0.0
 10
350.431274
 20
102.197494
 30
0.0
 10
350.431274
 20
97.322472
 30
0.0
 10
292.931262
 20
97.322472
 30
0.0
 10
292.931262
 20
91.572476
 30
0.0
 10
294.931258
 20
91.572476
 30
0.0
 10
294.931258
 20
83.072479
 30
0.0
 10
292.931262
 20
83.072479
 30
0.0
 10
292.931262
 20
57.322496
 30
0.0
 10
272.931263
 20
57.322496
 30
0.0
 10
272.931263
 20
19.822472
 30
0.0
 10
268.056241
 20
19.822472
 30
0.0
 10
266.431262
 20
18.197493
 30
0.0
  0
LWPOLYLINE
  5
129
100
AcDbEntity
  8
Layer_1
 62
7
100
AcDbPolyline
 90
18
 70
0
 10
266.431262
 20
6.447481
 30
0.0
 10
268.056241
 20
4.822474
 30
0.0
 10
272.931263
 20
4.822474
 30
0.0
 10
272.931263
 20
-0.277508
 30
0.0
 10
279.831257
 20
-0.277508
 30
0.0
 10
279.831257
 20
1.272485
 30
0.0
 10
285.531243
 20
1.272485
 30
0.0
 10
285.531243
 20
-0.277508
 30
0.0
 10
292.431249
 20
-0.277508
 30
0.0
 10
292.431249
 20
-5.077515
 30
0.0
 10
285.531243
 20
-5.077515
 30
0.0
 10
285.531243
 20
-6.627508
 30
0.0
 10
279.831257
 20
-6.627508
 30
0.0
 10
279.831257
 20
-5.077515
 30
0.0
 10
272.931263
 20
-5.077515
 30
0.0
 10
272.931263
 20
-10.177525
 30
0.0
 10
268.056241
 20
-10.177525
 30
0.0
 10
266.431262
 20
-11.802504
 30
0.0
  0
LWPOLYLINE
  5
12a
100
AcDbEntity
  8
Layer_1
 62
7
100
AcDbPolyline
 90
6
 70
0
 10
266.431262
 20
-23.552516
 30
0.0
 10
268.056241
 20
-25.177523
 30
0.0
 10
272.931263
 20
-25.177523
 30
0.0
 10
272.931263
 20
-125.177520
 30
0.0
 10
268.056241
 20
-125.177520
 30
0.0
 10
266.431262
 20
-126.802528
 30
0.0
  0
LWPOLYLINE
  5
12b
100
AcDbEntity
  8
Layer_1
 62
7
100
AcDbPolyline
 90
18
 70
0
 10
266.431262
 20
-138.552511
 30
0.0
 10
268.056241
 20
-140.177519
 30
0.0
 10
272.931263
 20
-140.177519
 30
0.0
 10
272.931263
 20
-145.277528
 30
0.0
 10
279.831257
 20
-145.277528
 30
0.0
 10
279.831257
 20
-143.727507
 30
0.0
 10
285.531243
 20
-143.727507
 30
0.0
 10
285.531243
 20
-145.277528
 30
0.0
 10
292.431249
 20
-145.277528
 30
0.0
 10
292.431249
 20
-150.077507
 30
0.0
 10
285.531243
 20
-150.077507
 30
0.0
 10
285.531243
 20
-151.627528
 30
0.0
 10
279.831257
 20
-151.627528
 30
0.0
 10
279.831257
 20
-150.077507
 30
0.0
 10
272.931263
 20
-150.077507
 30
0.0
 10
272.931263
 20
-155.177517
 30
0.0
 10
268.056241
 20
-155.177517
 30
0.0
 10
266.431262
 20
-156.802524
 30
0.0
  0
LWPOLYLINE
  5
12c
100
AcDbEntity
  8
Layer_1
 62
7
100
AcDbPolyline
 90
6
 70
0
 10
266.431262
 20
-168.552508
 30
0.0
 10
268.056241
 20
-170.177515
 30
0.0
 10
272.931263
 20
-170.177515
 30
0.0
 10
272.931263
 20
-270.177513
 30
0.0
 10
268.056241
 20
-270.177513
 30
0.0
 10
266.431262
 20
-271.802520
 30
0.0
  0
LWPOLYLINE
  5
12d
100
AcDbEntity
  8
Layer_1
 62
7
100
AcDbPolyline
 90
18
 70
0
 10
266.431262
 20
-283.552532
 30
0.0
 10
268.056241
 20
-285.177511
 30
0.0
 10
272.931263
 20
-285.177511
 30
0.0
 10
272.931263
 20
-290.277520
 30
0.0
 10
279.831257
 20
-290.277520
 30
0.0
 10
279.831257
 20
-288.727528
 30
0.0
 10
285.531243
 20
-288.727528
 30
0.0
 10
285.531243
 20
-290.277520
 30
0.0
 10
292.431249
 20
-290.277520
 30
0.0
 10
292.431249
 20
-295.077528
 30
0.0
 10
285.531243
 20
-295.077528
 30
0.0
 10
285.531243
 20
-296.627520
 30
0.0
 10
279.831257
 20
-296.627520
 30
0.0
 10
279.831257
 20
-295.077528
 30
0.0
 10
272.931263
 20
-295.077528
 30
0.0
 10
272.931263
 20
-300.177509
 30
0.0
 10
268.056241
 20
-300.177509
 30
0.0
 10
266.431262
 20
-301.802516
 30
0.0
  0
LWPOLYLINE
  5
12e
100
AcDbEntity
  8
Layer_1
 62
7
100
AcDbPolyline
 90
163
 70
0
 10
266.431262
 20
-313.552528
 30
0.0
 10
268.056241
 20
-315.177507
 30
0.0
 10
272.931263
 20
-315.177507
 30
0.0
 10
272.931263
 20
-352.677531
 30
0.0
 10
292.931262
 20
-352.677531
 30
0.0
 10
292.931262
 20
-392.677508
 30
0.0
 10
350.431274
 20
-392.677508
 30
0.0
 10
350.431274
 20
-397.552530
 30
0.0
 10
352.056253
 20
-399.177509
 30
0.0
 10
363.806265
 20
-399.177509
 30
0.0
 10
365.431272
 20
-397.552530
 30
0.0
 10
365.431272
 20
-392.677508
 30
0.0
 10
370.531254
 20
-392.677508
 30
0.0
 10
370.531254
 20
-385.777513
 30
0.0
 10
368.981261
 20
-385.777513
 30
0.0
 10
368.981261
 20
-380.077527
 30
0.0
 10
370.531254
 20
-380.077527
 30
0.0
 10
370.531254
 20
-373.177532
 30
0.0
 10
375.331261
 20
-373.177532
 30
0.0
 10
375.331261
 20
-380.077527
 30
0.0
 10
376.881254
 20
-380.077527
 30
0.0
 10
376.881254
 20
-385.777513
 30
0.0
 10
375.331261
 20
-385.777513
 30
0.0
 10
375.331261
 20
-392.677508
 30
0.0
 10
380.431271
 20
-392.677508
 30
0.0
 10
380.431271
 20
-397.552530
 30
0.0
 10
382.056278
 20
-399.177509
 30
0.0
 10
393.806261
 20
-399.177509
 30
0.0
 10
395.431269
 20
-397.552530
 30
0.0
 10
395.431269
 20
-392.677508
 30
0.0
 10
495.431266
 20
-392.677508
 30
0.0
 10
495.431266
 20
-397.552530
 30
0.0
 10
497.056274
 20
-399.177509
 30
0.0
 10
508.806257
 20
-399.177509
 30
0.0
 10
510.431265
 20
-397.552530
 30
0.0
 10
510.431265
 20
-392.677508
 30
0.0
 10
515.531274
 20
-392.677508
 30
0.0
 10
515.531274
 20
-385.777513
 30
0.0
 10
513.981253
 20
-385.777513
 30
0.0
 10
513.981253
 20
-380.077527
 30
0.0
 10
515.531274
 20
-380.077527
 30
0.0
 10
515.531274
 20
-373.177532
 30
0.0
 10
520.331253
 20
-373.177532
 30
0.0
 10
520.331253
 20
-380.077527
 30
0.0
 10
521.881274
 20
-380.077527
 30
0.0
 10
521.881274
 20
-385.777513
 30
0.0
 10
520.331253
 20
-385.777513
 30
0.0
 10
520.331253
 20
-392.677508
 30
0.0
 10
525.431263
 20
-392.677508
 30
0.0
 10
525.431263
 20
-397.552530
 30
0.0
 10
527.056270
 20
-399.177509
 30
0.0
 10
538.806254
 20
-399.177509
 30
0.0
 10
540.431261
 20
-397.552530
 30
0.0
 10
540.431261
 20
-392.677508
 30
0.0
 10
640.431259
 20
-392.677508
 30
0.0
 10
640.431259
 20
-397.552530
 30
0.0
 10
642.056266
 20
-399.177509
 30
0.0
 10
653.806249
 20
-399.177509
 30
0.0
 10
655.431257
 20
-397.552530
 30
0.0
 10
655.431257
 20
-392.677508
 30
0.0
 10
660.531266
 20
-392.677508
 30
0.0
 10
660.531266
 20
-385.777513
 30
0.0
 10
658.981274
 20
-385.777513
 30
0.0
 10
658.981274
 20
-380.077527
 30
0.0
 10
660.531266
 20
-380.077527
 30
0.0
 10
660.531266
 20
-373.177532
 30
0.0
 10
665.331274
 20
-373.177532
 30
0.0
 10
665.331274
 20
-380.077527
 30
0.0
 10
666.881266
 20
-380.077527
 30
0.0
 10
666.881266
 20
-385.777513
 30
0.0
 10
665.331274
 20
-385.777513
 30
0.0
 10
665.331274
 20
-392.677508
 30
0.0
 10
670.431255
 20
-392.677508
 30
0.0
 10
670.431255
 20
-397.552530
 30
0.0
 10
672.056262
 20
-399.177509
 30
0.0
 10
683.806274
 20
-399.177509
 30
0.0
 10
685.431253
 20
-397.552530
 30
0.0
 10
685.431253
 20
-392.677508
 30
0.0
 10
742.931265
 20
-392.677508
 30
0.0
 10
742.931265
 20
-352.677531
 30
0.0
 10
762.931253
 20
-352.677531
 30
0.0
 10
762.931253
 20
-315.177507
 30
0.0
 10
767.806275
 20
-315.177507
 30
0.0
 10
769.431255
 20
-313.552528
 30
0.0
 10
769.431255
 20
-301.802516
 30
0.0
 10
767.806275
 20
-300.177509
 30
0.0
 10
762.931253
 20
-300.177509
 30
0.0
 10
762.931253
 20
-295.077528
 30
0.0
 10
756.031259
 20
-295.077528
 30
0.0
 10
756.031259
 20
-296.627520
 30
0.0
 10
750.331273
 20
-296.627520
 30
0.0
 10
750.331273
 20
-295.077528
 30
0.0
 10
743.431278
 20
-295.077528
 30
0.0
 10
743.431278
 20
-290.277520
 30
0.0
 10
750.331273
 20
-290.277520
 30
0.0
 10
750.331273
 20
-288.727528
 30
0.0
 10
756.031259
 20
-288.727528
 30
0.0
 10
756.031259
 20
-290.277520
 30
0.0
 10
762.931253
 20
-290.277520
 30
0.0
 10
762.931253
 20
-285.177511
 30
0.0
 10
767.806275
 20
-285.177511
 30
0.0
 10
769.431255
 20
-283.552532
 30
0.0
 10
769.431255
 20
-271.802520
 30
0.0
 10
767.806275
 20
-270.177513
 30
0.0
 10
762.931253
 20
-270.177513
 30
0.0
 10
762.931253
 20
-170.177515
 30
0.0
 10
767.806275
 20
-170.177515
 30
0.0
 10
769.431255
 20
-168.552508
 30
0.0
 10
769.431255
 20
-156.802524
 30
0.0
 10
767.806275
 20
-155.177517
 30
0.0
 10
762.931253
 20
-155.177517
 30
0.0
 10
762.931253
 20
-150.077507
 30
0.0
 10
756.031259
 20
-150.077507
 30
0.0
 10
756.031259
 20
-151.627528
 30
0.0
 10
750.331273
 20
-151.627528
 30
0.0
 10
750.331273
 20
-150.077507
 30
0.0
 10
743.431278
 20
-150.077507
 30
0.0
 10
743.431278
 20
-145.277528
 30
0.0
 10
750.331273
 20
-145.277528
 30
0.0
 10
750.331273
 20
-143.727507
 30
0.0
 10
756.031259
 20
-143.727507
 30
0.0
 10
756.031259
 20
-145.277528
 30
0.0
 10
762.931253
 20
-145.277528
 30
0.0
 10
762.931253
 20
-140.177519
 30
0.0
 10
767.806275
 20
-140.177519
 30
0.0
 10
769.431255
 20
-138.552511
 30
0.0
 10
769.431255
 20
-126.802528
 30
0.0
 10
767.806275
 20
-125.177520
 30
0.0
 10
762.931253
 20
-125.177520
 30
0.0
 10
762.931253
 20
-25.177523
 30
0.0
 10
767.806275
 20
-25.177523
 30
0.0
 10
769.431255
 20
-23.552516
 30
0.0
 10
769.431255
 20
-11.802504
 30
0.0
 10
767.806275
 20
-10.177525
 30
0.0
 10
762.931253
 20
-10.177525
 30
0.0
 10
762.931253
 20
-5.077515
 30
0.0
 10
756.031259
 20
-5.077515
 30
0.0
 10
756.031259
 20
-6.627508
 30
0.0
 10
750.331273
 20
-6.627508
 30
0.0
 10
750.331273
 20
-5.077515
 30
0.0
 10
743.431278
 20
-5.077515
 30
0.0
 10
743.431278
 20
-0.277508
 30
0.0
 10
750.331273
 20
-0.277508
 30
0.0
 10
750.331273
 20
1.272485
 30
0.0
 10
756.031259
 20
1.272485
 30
0.0
 10
756.031259
 20
-0.277508
 30
0.0
 10
762.931253
 20
-0.277508
 30
0.0
 10
762.931253
 20
4.822474
 30
0.0
 10
767.806275
 20
4.822474
 30
0.0
 10
769.431255
 20
6.447481
 30
0.0
 10
769.431255
 20
18.197493
 30
0.0
 10
767.806275
 20
19.822472
 30
0.0
 10
762.931253
 20
19.822472
 30
0.0
 10
762.931253
 20
57.322496
 30
0.0
 10
742.931265
 20
57.322496
 30
0.0
 10
742.931265
 20
83.072479
 30
0.0
 10
740.931269
 20
83.072479
 30
0.0
 10
740.931269
 20
91.572476
 30
0.0
 10
742.931265
 20
91.572476
 30
0.0
 10
742.931265
 20
97.322472
 30
0.0
 10
685.431253
 20
97.322472
 30
0.0
 10
685.431253
 20
102.197494
 30
0.0
 10
683.806274
 20
103.822473
 30
0.0
  0
LWPOLYLINE
  5
12f
100
AcDbEntity
  8
Layer_1
 62
7
100
AcDbPolyline
 90
5
 70
0
 10
672.056262
 20
103.822473
 30
0.0
 10
670.431255
 20
102.197494
 30
0.0
 10
670.431255
 20
97.322472
 30
0.0
 10
665.331274
 20
97.322472
 30
0.0
 10
665.331274
 20
90.422477
 30
0.0
  0
LWPOLYLINE
  5
130
100
AcDbEntity
  8
Layer_1
 62
7
100
AcDbPolyline
 90
5
 70
0
 10
727.931267
 20
83.072479
 30
0.0
 10
727.931267
 20
91.572476
 30
0.0
 10
731.931259
 20
91.572476
 30
0.0
 10
731.931259
 20
83.072479
 30
0.0
 10
727.931267
 20
83.072479
 30
0.0
  0
LWPOLYLINE
  5
131
100
AcDbEntity
  8
Layer_1
 62
7
100
AcDbPolyline
 90
5
 70
0
 10
303.931268
 20
83.072479
 30
0.0
 10
303.931268
 20
91.572476
 30
0.0
 10
307.931260
 20
91.572476
 30
0.0
 10
307.931260
 20
83.072479
 30
0.0
 10
303.931268
 20
83.072479
 30
0.0
  0
LWPOLYLINE
  5
132
100
AcDbEntity
  8
Layer_1
 62
7
100
AcDbPolyline
 90
5
 70
0
 10
626.719266
 20
41.650470
 30
0.0
 10
631.245264
 20
46.175480
 30
0.0
 10
658.044268
 20
19.376476
 30
0.0
 10
653.519258
 20
14.850478
 30
0.0
 10
626.719266
 20
41.650470
 30
0.0
  0
LWPOLYLINE
  5
133
100
AcDbEntity
  8
Layer_1
 62
7
100
AcDbPolyline
 90
5
 70
0
 10
377.818260
 20
19.376476
 30
0.0
 10
404.617263
 20
46.175480
 30
0.0
 10
409.143261
 20
41.650470
 30
0.0
 10
382.343270
 20
14.850478
 30
0.0
 10
377.818260
 20
19.376476
 30
0.0
  0
LWPOLYLINE
  5
134
100
AcDbEntity
  8
Layer_1
 62
7
100
AcDbPolyline
 90
5
 70
0
 10
680.459260
 20
-12.089524
 30
0.0
 10
684.985257
 20
-7.564514
 30
0.0
 10
711.784261
 20
-34.363518
 30
0.0
 10
707.259251
 20
-38.889515
 30
0.0
 10
680.459260
 20
-12.089524
 30
0.0
  0
LWPOLYLINE
  5
135
100
AcDbEntity
  8
Layer_1
 62
7
100
AcDbPolyline
 90
5
 70
0
 10
324.078266
 20
-34.363518
 30
0.0
 10
350.877270
 20
-7.564514
 30
0.0
 10
355.403268
 20
-12.089524
 30
0.0
 10
328.603276
 20
-38.889515
 30
0.0
 10
324.078266
 20
-34.363518
 30
0.0
  0
LWPOLYLINE
  5
136
100
AcDbEntity
  8
Layer_1
 62
7
100
AcDbPolyline
 90
5
 70
0
 10
680.459260
 20
-283.265512
 30
0.0
 10
707.259251
 20
-256.465520
 30
0.0
 10
711.784261
 20
-260.991518
 30
0.0
 10
684.985257
 20
-287.790522
 30
0.0
 10
680.459260
 20
-283.265512
 30
0.0
  0
LWPOLYLINE
  5
137
100
AcDbEntity
  8
Layer_1
 62
7
100
AcDbPolyline
 90
5
 70
0
 10
324.078266
 20
-260.991518
 30
0.0
 10
328.603276
 20
-256.465520
 30
0.0
 10
355.403268
 20
-283.265512
 30
0.0
 10
350.877270
 20
-287.790522
 30
0.0
 10
324.078266
 20
-260.991518
 30
0.0
  0
LWPOLYLINE
  5
138
100
AcDbEntity
  8
Layer_1
 62
7
100
AcDbPolyline
 90
5
 70
0
 10
626.719266
 20
-337.005505
 30
0.0
 10
653.519258
 20
-310.205514
 30
0.0
 10
658.044268
 20
-314.731512
 30
0.0
 10
631.245264
 20
-341.530515
 30
0.0
 10
626.719266
 20
-337.005505
 30
0.0
  0
LWPOLYLINE
  5
139
100
AcDbEntity
  8
Layer_1
 62
7
100
AcDbPolyline
 90
5
 70
0
 10
377.818260
 20
-314.731512
 30
0.0
 10
382.343270
 20
-310.205514
 30
0.0
 10
409.143261
 20
-337.005505
 30
0.0
 10
404.617263
 20
-341.530515
 30
0.0
 10
377.818260
 20
-314.731512
 30
0.0
  0
LWPOLYLINE
  5
13a
100
AcDbEntity
  8
Layer_1
 62
7
100
AcDbPolyline
 90
26
 70
0
 10
266.474583
 20
110.822473
 30
0.0
 10
253.974586
 20
110.822473
 30
0.0
 10
253.974586
 20
115.697467
 30
0.0
 10
252.349584
 20
117.322475
 30
0.0
 10
240.599584
 20
117.322475
 30
0.0
 10
238.974585
 20
115.697467
 30
0.0
 10
238.974585
 20
110.822473
 30
0.0
 10
233.874584
 20
110.822473
 30
0.0
 10
233.874584
 20
103.922479
 30
0.0
 10
235.424585
 20
103.922479
 30
0.0
 10
235.424585
 20
98.222493
 30
0.0
 10
233.874584
 20
98.222493
 30
0.0
 10
233.874584
 20
91.322470
 30
0.0
 10
229.074585
 20
91.322470
 30
0.0
 10
229.074585
 20
98.222493
 30
0.0
 10
227.524584
 20
98.222493
 30
0.0
 10
227.524584
 20
103.922479
 30
0.0
 10
229.074585
 20
103.922479
 30
0.0
 10
229.074585
 20
110.822473
 30
0.0
 10
223.974584
 20
110.822473
 30
0.0
 10
223.974584
 20
115.697467
 30
0.0
 10
222.349585
 20
117.322475
 30
0.0
 10
210.599584
 20
117.322475
 30
0.0
 10
208.974586
 20
115.697467
 30
0.0
 10
208.974586
 20
110.822473
 30
0.0
 10
196.474585
 20
110.822473
 30
0.0
  0
LWPOLYLINE
  5
13b
100
AcDbEntity
  8
Layer_1
 62
7
100
AcDbPolyline
 90
3
 70
0
 10
196.474585
 20
-399.177523
 30
0.0
 10
266.474583
 20
-399.177523
 30
0.0
 10
266.474583
 20
110.822473
 30
0.0
  0
LWPOLYLINE
  5
13c
100
AcDbEntity
  8
Layer_1
 62
7
100
AcDbPolyline
 90
35
 70
0
 10
246.725474
 20
98.134496
 30
0.0
 10
246.235686
 20
98.225485
 30
0.0
 10
245.771086
 20
98.405486
 30
0.0
 10
245.347484
 20
98.667473
 30
0.0
 10
244.979283
 20
99.003487
 30
0.0
 10
244.678985
 20
99.401476
 30
0.0
 10
244.456884
 20
99.847472
 30
0.0
 10
244.320585
 20
100.326488
 30
0.0
 10
244.274586
 20
100.822493
 30
0.0
 10
244.320585
 20
101.318471
 30
0.0
 10
244.456884
 20
101.797487
 30
0.0
 10
244.678985
 20
102.243482
 30
0.0
 10
244.979283
 20
102.641472
 30
0.0
 10
245.347484
 20
102.977486
 30
0.0
 10
245.771086
 20
103.239473
 30
0.0
 10
246.235686
 20
103.419474
 30
0.0
 10
246.725474
 20
103.510491
 30
0.0
 10
247.223715
 20
103.510491
 30
0.0
 10
247.713475
 20
103.419474
 30
0.0
 10
248.178094
 20
103.239473
 30
0.0
 10
248.601704
 20
102.977486
 30
0.0
 10
248.969914
 20
102.641472
 30
0.0
 10
249.270176
 20
102.243482
 30
0.0
 10
249.492265
 20
101.797487
 30
0.0
 10
249.628626
 20
101.318471
 30
0.0
 10
249.674594
 20
100.822493
 30
0.0
 10
249.628626
 20
100.326488
 30
0.0
 10
249.492265
 20
99.847472
 30
0.0
 10
249.270176
 20
99.401476
 30
0.0
 10
248.969914
 20
99.003487
 30
0.0
 10
248.601704
 20
98.667473
 30
0.0
 10
248.178094
 20
98.405486
 30
0.0
 10
247.713475
 20
98.225485
 30
0.0
 10
247.223715
 20
98.134496
 30
0.0
 10
246.725474
 20
98.134496
 30
0.0
  0
LWPOLYLINE
  5
13d
100
AcDbEntity
  8
Layer_1
 62
7
100
AcDbPolyline
 90
35
 70
0
 10
209.225484
 20
98.134496
 30
0.0
 10
208.735684
 20
98.225485
 30
0.0
 10
208.271085
 20
98.405486
 30
0.0
 10
207.847486
 20
98.667473
 30
0.0
 10
207.479285
 20
99.003487
 30
0.0
 10
207.178983
 20
99.401476
 30
0.0
 10
206.956886
 20
99.847472
 30
0.0
 10
206.820584
 20
100.326488
 30
0.0
 10
206.774584
 20
100.822493
 30
0.0
 10
206.820584
 20
101.318471
 30
0.0
 10
206.956886
 20
101.797487
 30
0.0
 10
207.178983
 20
102.243482
 30
0.0
 10
207.479285
 20
102.641472
 30
0.0
 10
207.847486
 20
102.977486
 30
0.0
 10
208.271085
 20
103.239473
 30
0.0
 10
208.735684
 20
103.419474
 30
0.0
 10
209.225484
 20
103.510491
 30
0.0
 10
209.723685
 20
103.510491
 30
0.0
 10
210.213485
 20
103.419474
 30
0.0
 10
210.678085
 20
103.239473
 30
0.0
 10
211.101686
 20
102.977486
 30
0.0
 10
211.469884
 20
102.641472
 30
0.0
 10
211.770186
 20
102.243482
 30
0.0
 10
211.992283
 20
101.797487
 30
0.0
 10
212.128585
 20
101.318471
 30
0.0
 10
212.174585
 20
100.822493
 30
0.0
 10
212.128585
 20
100.326488
 30
0.0
 10
211.992283
 20
99.847472
 30
0.0
 10
211.770186
 20
99.401476
 30
0.0
 10
211.469884
 20
99.003487
 30
0.0
 10
211.101686
 20
98.667473
 30
0.0
 10
210.678085
 20
98.405486
 30
0.0
 10
210.213485
 20
98.225485
 30
0.0
 10
209.723685
 20
98.134496
 30
0.0
 10
209.225484
 20
98.134496
 30
0.0
  0
LWPOLYLINE
  5
13e
100
AcDbEntity
  8
Layer_1
 62
7
100
AcDbPolyline
 90
35
 70
0
 10
246.725474
 20
78.134480
 30
0.0
 10
246.235686
 20
78.225496
 30
0.0
 10
245.771086
 20
78.405498
 30
0.0
 10
245.347484
 20
78.667485
 30
0.0
 10
244.979283
 20
79.003470
 30
0.0
 10
244.678985
 20
79.401488
 30
0.0
 10
244.456884
 20
79.847484
 30
0.0
 10
244.320585
 20
80.326471
 30
0.0
 10
244.274586
 20
80.822477
 30
0.0
 10
244.320585
 20
81.318483
 30
0.0
 10
244.456884
 20
81.797470
 30
0.0
 10
244.678985
 20
82.243494
 30
0.0
 10
244.979283
 20
82.641484
 30
0.0
 10
245.347484
 20
82.977498
 30
0.0
 10
245.771086
 20
83.239485
 30
0.0
 10
246.235686
 20
83.419486
 30
0.0
 10
246.725474
 20
83.510474
 30
0.0
 10
247.223715
 20
83.510474
 30
0.0
 10
247.713475
 20
83.419486
 30
0.0
 10
248.178094
 20
83.239485
 30
0.0
 10
248.601704
 20
82.977498
 30
0.0
 10
248.969914
 20
82.641484
 30
0.0
 10
249.270176
 20
82.243494
 30
0.0
 10
249.492265
 20
81.797470
 30
0.0
 10
249.628626
 20
81.318483
 30
0.0
 10
249.674594
 20
80.822477
 30
0.0
 10
249.628626
 20
80.326471
 30
0.0
 10
249.492265
 20
79.847484
 30
0.0
 10
249.270176
 20
79.401488
 30
0.0
 10
248.969914
 20
79.003470
 30
0.0
 10
248.601704
 20
78.667485
 30
0.0
 10
248.178094
 20
78.405498
 30
0.0
 10
247.713475
 20
78.225496
 30
0.0
 10
247.223715
 20
78.134480
 30
0.0
 10
246.725474
 20
78.134480
 30
0.0
  0
LWPOLYLINE
  5
13f
100
AcDbEntity
  8
Layer_1
 62
7
100
AcDbPolyline
 90
35
 70
0
 10
209.225484
 20
78.134480
 30
0.0
 10
208.735684
 20
78.225496
 30
0.0
 10
208.271085
 20
78.405498
 30
0.0
 10
207.847486
 20
78.667485
 30
0.0
 10
207.479285
 20
79.003470
 30
0.0
 10
207.178983
 20
79.401488
 30
0.0
 10
206.956886
 20
79.847484
 30
0.0
 10
206.820584
 20
80.326471
 30
0.0
 10
206.774584
 20
80.822477
 30
0.0
 10
206.820584
 20
81.318483
 30
0.0
 10
206.956886
 20
81.797470
 30
0.0
 10
207.178983
 20
82.243494
 30
0.0
 10
207.479285
 20
82.641484
 30
0.0
 10
207.847486
 20
82.977498
 30
0.0
 10
208.271085
 20
83.239485
 30
0.0
 10
208.735684
 20
83.419486
 30
0.0
 10
209.225484
 20
83.510474
 30
0.0
 10
209.723685
 20
83.510474
 30
0.0
 10
210.213485
 20
83.419486
 30
0.0
 10
210.678085
 20
83.239485
 30
0.0
 10
211.101686
 20
82.977498
 30
0.0
 10
211.469884
 20
82.641484
 30
0.0
 10
211.770186
 20
82.243494
 30
0.0
 10
211.992283
 20
81.797470
 30
0.0
 10
212.128585
 20
81.318483
 30
0.0
 10
212.174585
 20
80.822477
 30
0.0
 10
212.128585
 20
80.326471
 30
0.0
 10
211.992283
 20
79.847484
 30
0.0
 10
211.770186
 20
79.401488
 30
0.0
 10
211.469884
 20
79.003470
 30
0.0
 10
211.101686
 20
78.667485
 30
0.0
 10
210.678085
 20
78.405498
 30
0.0
 10
210.213485
 20
78.225496
 30
0.0
 10
209.723685
 20
78.134480
 30
0.0
 10
209.225484
 20
78.134480
 30
0.0
  0
LWPOLYLINE
  5
140
100
AcDbEntity
  8
Layer_1
 62
7
100
AcDbPolyline
 90
5
 70
0
 10
253.524585
 20
18.372485
 30
0.0
 10
253.524585
 20
33.272492
 30
0.0
 10
259.924584
 20
33.272492
 30
0.0
 10
259.924584
 20
18.372485
 30
0.0
 10
253.524585
 20
18.372485
 30
0.0
  0
LWPOLYLINE
  5
141
100
AcDbEntity
  8
Layer_1
 62
7
100
AcDbPolyline
 90
5
 70
0
 10
222.024583
 20
18.372485
 30
0.0
 10
222.024583
 20
33.272492
 30
0.0
 10
228.424585
 20
33.272492
 30
0.0
 10
228.424585
 20
18.372485
 30
0.0
 10
222.024583
 20
18.372485
 30
0.0
  0
LWPOLYLINE
  5
142
100
AcDbEntity
  8
Layer_1
 62
7
100
AcDbPolyline
 90
35
 70
0
 10
224.728484
 20
8.168486
 30
0.0
 10
224.249285
 20
8.304489
 30
0.0
 10
223.803185
 20
8.526485
 30
0.0
 10
223.405584
 20
8.827475
 30
0.0
 10
223.069985
 20
9.195493
 30
0.0
 10
222.807685
 20
9.619475
 30
0.0
 10
222.627684
 20
10.083477
 30
0.0
 10
222.536086
 20
10.573471
 30
0.0
 10
222.536086
 20
11.071481
 30
0.0
 10
222.627684
 20
11.561475
 30
0.0
 10
222.807685
 20
12.025476
 30
0.0
 10
223.069985
 20
12.449487
 30
0.0
 10
223.405584
 20
12.817477
 30
0.0
 10
223.803185
 20
13.118495
 30
0.0
 10
224.249285
 20
13.340491
 30
0.0
 10
224.728484
 20
13.476494
 30
0.0
 10
225.224586
 20
13.522496
 30
0.0
 10
225.720684
 20
13.476494
 30
0.0
 10
226.199985
 20
13.340491
 30
0.0
 10
226.645984
 20
13.118495
 30
0.0
 10
227.043584
 20
12.817477
 30
0.0
 10
227.379186
 20
12.449487
 30
0.0
 10
227.641486
 20
12.025476
 30
0.0
 10
227.821484
 20
11.561475
 30
0.0
 10
227.913085
 20
11.071481
 30
0.0
 10
227.913085
 20
10.573471
 30
0.0
 10
227.821484
 20
10.083477
 30
0.0
 10
227.641486
 20
9.619475
 30
0.0
 10
227.379186
 20
9.195493
 30
0.0
 10
227.043584
 20
8.827475
 30
0.0
 10
226.645984
 20
8.526485
 30
0.0
 10
226.199985
 20
8.304489
 30
0.0
 10
225.720684
 20
8.168486
 30
0.0
 10
225.224586
 20
8.122484
 30
0.0
 10
224.728484
 20
8.168486
 30
0.0
  0
LWPOLYLINE
  5
143
100
AcDbEntity
  8
Layer_1
 62
7
100
AcDbPolyline
 90
35
 70
0
 10
256.228475
 20
8.168486
 30
0.0
 10
255.749242
 20
8.304489
 30
0.0
 10
255.303226
 20
8.526485
 30
0.0
 10
254.905614
 20
8.827475
 30
0.0
 10
254.569953
 20
9.195493
 30
0.0
 10
254.307653
 20
9.619475
 30
0.0
 10
254.127666
 20
10.083477
 30
0.0
 10
254.036105
 20
10.573471
 30
0.0
 10
254.036105
 20
11.071481
 30
0.0
 10
254.127666
 20
11.561475
 30
0.0
 10
254.307653
 20
12.025476
 30
0.0
 10
254.569953
 20
12.449487
 30
0.0
 10
254.905614
 20
12.817477
 30
0.0
 10
255.303226
 20
13.118495
 30
0.0
 10
255.749242
 20
13.340491
 30
0.0
 10
256.228475
 20
13.476494
 30
0.0
 10
256.724585
 20
13.522496
 30
0.0
 10
257.220695
 20
13.476494
 30
0.0
 10
257.699928
 20
13.340491
 30
0.0
 10
258.145943
 20
13.118495
 30
0.0
 10
258.543555
 20
12.817477
 30
0.0
 10
258.879216
 20
12.449487
 30
0.0
 10
259.141516
 20
12.025476
 30
0.0
 10
259.321506
 20
11.561475
 30
0.0
 10
259.413065
 20
11.071481
 30
0.0
 10
259.413065
 20
10.573471
 30
0.0
 10
259.321506
 20
10.083477
 30
0.0
 10
259.141516
 20
9.619475
 30
0.0
 10
258.879216
 20
9.195493
 30
0.0
 10
258.543555
 20
8.827475
 30
0.0
 10
258.145943
 20
8.526485
 30
0.0
 10
257.699928
 20
8.304489
 30
0.0
 10
257.220695
 20
8.168486
 30
0.0
 10
256.724585
 20
8.122484
 30
0.0
 10
256.228475
 20
8.168486
 30
0.0
  0
LWPOLYLINE
  5
144
100
AcDbEntity
  8
Layer_1
 62
7
100
AcDbPolyline
 90
5
 70
0
 10
253.524585
 20
-11.627512
 30
0.0
 10
253.524585
 20
3.272495
 30
0.0
 10
259.924584
 20
3.272495
 30
0.0
 10
259.924584
 20
-11.627512
 30
0.0
 10
253.524585
 20
-11.627512
 30
0.0
  0
LWPOLYLINE
  5
145
100
AcDbEntity
  8
Layer_1
 62
7
100
AcDbPolyline
 90
5
 70
0
 10
222.024583
 20
-11.627512
 30
0.0
 10
222.024583
 20
3.272495
 30
0.0
 10
228.424585
 20
3.272495
 30
0.0
 10
228.424585
 20
-11.627512
 30
0.0
 10
222.024583
 20
-11.627512
 30
0.0
  0
LWPOLYLINE
  5
146
100
AcDbEntity
  8
Layer_1
 62
7
100
AcDbPolyline
 90
5
 70
0
 10
253.524585
 20
-126.627536
 30
0.0
 10
253.524585
 20
-111.727517
 30
0.0
 10
259.924584
 20
-111.727517
 30
0.0
 10
259.924584
 20
-126.627536
 30
0.0
 10
253.524585
 20
-126.627536
 30
0.0
  0
LWPOLYLINE
  5
147
100
AcDbEntity
  8
Layer_1
 62
7
100
AcDbPolyline
 90
5
 70
0
 10
222.024583
 20
-126.627536
 30
0.0
 10
222.024583
 20
-111.727517
 30
0.0
 10
228.424585
 20
-111.727517
 30
0.0
 10
228.424585
 20
-126.627536
 30
0.0
 10
222.024583
 20
-126.627536
 30
0.0
  0
LWPOLYLINE
  5
148
100
AcDbEntity
  8
Layer_1
 62
7
100
AcDbPolyline
 90
35
 70
0
 10
224.728484
 20
-136.831534
 30
0.0
 10
224.249285
 20
-136.695193
 30
0.0
 10
223.803185
 20
-136.473112
 30
0.0
 10
223.405584
 20
-136.172827
 30
0.0
 10
223.069985
 20
-135.804640
 30
0.0
 10
222.807685
 20
-135.380997
 30
0.0
 10
222.627684
 20
-134.916402
 30
0.0
 10
222.536086
 20
-134.426634
 30
0.0
 10
222.536086
 20
-133.928399
 30
0.0
 10
222.627684
 20
-133.438630
 30
0.0
 10
222.807685
 20
-132.974036
 30
0.0
 10
223.069985
 20
-132.550421
 30
0.0
 10
223.405584
 20
-132.182205
 30
0.0
 10
223.803185
 20
-131.881949
 30
0.0
 10
224.249285
 20
-131.659840
 30
0.0
 10
224.728484
 20
-131.523499
 30
0.0
 10
225.224586
 20
-131.477525
 30
0.0
 10
225.720684
 20
-131.523499
 30
0.0
 10
226.199985
 20
-131.659840
 30
0.0
 10
226.645984
 20
-131.881949
 30
0.0
 10
227.043584
 20
-132.182205
 30
0.0
 10
227.379186
 20
-132.550421
 30
0.0
 10
227.641486
 20
-132.974036
 30
0.0
 10
227.821484
 20
-133.438630
 30
0.0
 10
227.913085
 20
-133.928399
 30
0.0
 10
227.913085
 20
-134.426634
 30
0.0
 10
227.821484
 20
-134.916402
 30
0.0
 10
227.641486
 20
-135.380997
 30
0.0
 10
227.379186
 20
-135.804640
 30
0.0
 10
227.043584
 20
-136.172827
 30
0.0
 10
226.645984
 20
-136.473112
 30
0.0
 10
226.199985
 20
-136.695193
 30
0.0
 10
225.720684
 20
-136.831534
 30
0.0
 10
225.224586
 20
-136.877508
 30
0.0
 10
224.728484
 20
-136.831534
 30
0.0
  0
LWPOLYLINE
  5
149
100
AcDbEntity
  8
Layer_1
 62
7
100
AcDbPolyline
 90
35
 70
0
 10
256.228475
 20
-136.831534
 30
0.0
 10
255.749242
 20
-136.695193
 30
0.0
 10
255.303226
 20
-136.473112
 30
0.0
 10
254.905614
 20
-136.172827
 30
0.0
 10
254.569953
 20
-135.804640
 30
0.0
 10
254.307653
 20
-135.380997
 30
0.0
 10
254.127666
 20
-134.916402
 30
0.0
 10
254.036105
 20
-134.426634
 30
0.0
 10
254.036105
 20
-133.928399
 30
0.0
 10
254.127666
 20
-133.438630
 30
0.0
 10
254.307653
 20
-132.974036
 30
0.0
 10
254.569953
 20
-132.550421
 30
0.0
 10
254.905614
 20
-132.182205
 30
0.0
 10
255.303226
 20
-131.881949
 30
0.0
 10
255.749242
 20
-131.659840
 30
0.0
 10
256.228475
 20
-131.523499
 30
0.0
 10
256.724585
 20
-131.477525
 30
0.0
 10
257.220695
 20
-131.523499
 30
0.0
 10
257.699928
 20
-131.659840
 30
0.0
 10
258.145943
 20
-131.881949
 30
0.0
 10
258.543555
 20
-132.182205
 30
0.0
 10
258.879216
 20
-132.550421
 30
0.0
 10
259.141516
 20
-132.974036
 30
0.0
 10
259.321506
 20
-133.438630
 30
0.0
 10
259.413065
 20
-133.928399
 30
0.0
 10
259.413065
 20
-134.426634
 30
0.0
 10
259.321506
 20
-134.916402
 30
0.0
 10
259.141516
 20
-135.380997
 30
0.0
 10
258.879216
 20
-135.804640
 30
0.0
 10
258.543555
 20
-136.172827
 30
0.0
 10
258.145943
 20
-136.473112
 30
0.0
 10
257.699928
 20
-136.695193
 30
0.0
 10
257.220695
 20
-136.831534
 30
0.0
 10
256.724585
 20
-136.877508
 30
0.0
 10
256.228475
 20
-136.831534
 30
0.0
  0
LWPOLYLINE
  5
14a
100
AcDbEntity
  8
Layer_1
 62
7
100
AcDbPolyline
 90
5
 70
0
 10
222.024583
 20
-156.627504
 30
0.0
 10
222.024583
 20
-141.727497
 30
0.0
 10
228.424585
 20
-141.727497
 30
0.0
 10
228.424585
 20
-156.627504
 30
0.0
 10
222.024583
 20
-156.627504
 30
0.0
  0
LWPOLYLINE
  5
14b
100
AcDbEntity
  8
Layer_1
 62
7
100
AcDbPolyline
 90
5
 70
0
 10
253.524585
 20
-156.627504
 30
0.0
 10
253.524585
 20
-141.727497
 30
0.0
 10
259.924584
 20
-141.727497
 30
0.0
 10
259.924584
 20
-156.627504
 30
0.0
 10
253.524585
 20
-156.627504
 30
0.0
  0
LWPOLYLINE
  5
14c
100
AcDbEntity
  8
Layer_1
 62
7
100
AcDbPolyline
 90
5
 70
0
 10
222.024583
 20
-271.627528
 30
0.0
 10
222.024583
 20
-256.727521
 30
0.0
 10
228.424585
 20
-256.727521
 30
0.0
 10
228.424585
 20
-271.627528
 30
0.0
 10
222.024583
 20
-271.627528
 30
0.0
  0
LWPOLYLINE
  5
14d
100
AcDbEntity
  8
Layer_1
 62
7
100
AcDbPolyline
 90
5
 70
0
 10
253.524585
 20
-271.627528
 30
0.0
 10
253.524585
 20
-256.727521
 30
0.0
 10
259.924584
 20
-256.727521
 30
0.0
 10
259.924584
 20
-271.627528
 30
0.0
 10
253.524585
 20
-271.627528
 30
0.0
  0
LWPOLYLINE
  5
14e
100
AcDbEntity
  8
Layer_1
 62
7
100
AcDbPolyline
 90
35
 70
0
 10
256.228475
 20
-281.831526
 30
0.0
 10
255.749242
 20
-281.695523
 30
0.0
 10
255.303226
 20
-281.473527
 30
0.0
 10
254.905614
 20
-281.172509
 30
0.0
 10
254.569953
 20
-280.804520
 30
0.0
 10
254.307653
 20
-280.380509
 30
0.0
 10
254.127666
 20
-279.916507
 30
0.0
 10
254.036105
 20
-279.426513
 30
0.0
 10
254.036105
 20
-278.928504
 30
0.0
 10
254.127666
 20
-278.438510
 30
0.0
 10
254.307653
 20
-277.974508
 30
0.0
 10
254.569953
 20
-277.550526
 30
0.0
 10
254.905614
 20
-277.182508
 30
0.0
 10
255.303226
 20
-276.881518
 30
0.0
 10
255.749242
 20
-276.659522
 30
0.0
 10
256.228475
 20
-276.523519
 30
0.0
 10
256.724585
 20
-276.477517
 30
0.0
 10
257.220695
 20
-276.523519
 30
0.0
 10
257.699928
 20
-276.659522
 30
0.0
 10
258.145943
 20
-276.881518
 30
0.0
 10
258.543555
 20
-277.182508
 30
0.0
 10
258.879216
 20
-277.550526
 30
0.0
 10
259.141516
 20
-277.974508
 30
0.0
 10
259.321506
 20
-278.438510
 30
0.0
 10
259.413065
 20
-278.928504
 30
0.0
 10
259.413065
 20
-279.426513
 30
0.0
 10
259.321506
 20
-279.916507
 30
0.0
 10
259.141516
 20
-280.380509
 30
0.0
 10
258.879216
 20
-280.804520
 30
0.0
 10
258.543555
 20
-281.172509
 30
0.0
 10
258.145943
 20
-281.473527
 30
0.0
 10
257.699928
 20
-281.695523
 30
0.0
 10
257.220695
 20
-281.831526
 30
0.0
 10
256.724585
 20
-281.877529
 30
0.0
 10
256.228475
 20
-281.831526
 30
0.0
  0
LWPOLYLINE
  5
14f
100
AcDbEntity
  8
Layer_1
 62
7
100
AcDbPolyline
 90
35
 70
0
 10
224.728484
 20
-281.831526
 30
0.0
 10
224.249285
 20
-281.695523
 30
0.0
 10
223.803185
 20
-281.473527
 30
0.0
 10
223.405584
 20
-281.172509
 30
0.0
 10
223.069985
 20
-280.804520
 30
0.0
 10
222.807685
 20
-280.380509
 30
0.0
 10
222.627684
 20
-279.916507
 30
0.0
 10
222.536086
 20
-279.426513
 30
0.0
 10
222.536086
 20
-278.928504
 30
0.0
 10
222.627684
 20
-278.438510
 30
0.0
 10
222.807685
 20
-277.974508
 30
0.0
 10
223.069985
 20
-277.550526
 30
0.0
 10
223.405584
 20
-277.182508
 30
0.0
 10
223.803185
 20
-276.881518
 30
0.0
 10
224.249285
 20
-276.659522
 30
0.0
 10
224.728484
 20
-276.523519
 30
0.0
 10
225.224586
 20
-276.477517
 30
0.0
 10
225.720684
 20
-276.523519
 30
0.0
 10
226.199985
 20
-276.659522
 30
0.0
 10
226.645984
 20
-276.881518
 30
0.0
 10
227.043584
 20
-277.182508
 30
0.0
 10
227.379186
 20
-277.550526
 30
0.0
 10
227.641486
 20
-277.974508
 30
0.0
 10
227.821484
 20
-278.438510
 30
0.0
 10
227.913085
 20
-278.928504
 30
0.0
 10
227.913085
 20
-279.426513
 30
0.0
 10
227.821484
 20
-279.916507
 30
0.0
 10
227.641486
 20
-280.380509
 30
0.0
 10
227.379186
 20
-280.804520
 30
0.0
 10
227.043584
 20
-281.172509
 30
0.0
 10
226.645984
 20
-281.473527
 30
0.0
 10
226.199985
 20
-281.695523
 30
0.0
 10
225.720684
 20
-281.831526
 30
0.0
 10
225.224586
 20
-281.877529
 30
0.0
 10
224.728484
 20
-281.831526
 30
0.0
  0
LWPOLYLINE
  5
150
100
AcDbEntity
  8
Layer_1
 62
7
100
AcDbPolyline
 90
5
 70
0
 10
222.024583
 20
-301.627524
 30
0.0
 10
222.024583
 20
-286.727517
 30
0.0
 10
228.424585
 20
-286.727517
 30
0.0
 10
228.424585
 20
-301.627524
 30
0.0
 10
222.024583
 20
-301.627524
 30
0.0
  0
LWPOLYLINE
  5
151
100
AcDbEntity
  8
Layer_1
 62
7
100
AcDbPolyline
 90
5
 70
0
 10
253.524585
 20
-301.627524
 30
0.0
 10
253.524585
 20
-286.727517
 30
0.0
 10
259.924584
 20
-286.727517
 30
0.0
 10
259.924584
 20
-301.627524
 30
0.0
 10
253.524585
 20
-301.627524
 30
0.0
  0
LWPOLYLINE
  5
152
100
AcDbEntity
  8
Layer_1
 62
7
100
AcDbPolyline
 90
35
 70
0
 10
209.225484
 20
-351.865507
 30
0.0
 10
208.735684
 20
-351.774519
 30
0.0
 10
208.271085
 20
-351.594517
 30
0.0
 10
207.847486
 20
-351.332530
 30
0.0
 10
207.479285
 20
-350.996517
 30
0.0
 10
207.178983
 20
-350.598527
 30
0.0
 10
206.956886
 20
-350.152531
 30
0.0
 10
206.820584
 20
-349.673515
 30
0.0
 10
206.774584
 20
-349.177510
 30
0.0
 10
206.820584
 20
-348.681504
 30
0.0
 10
206.956886
 20
-348.202517
 30
0.0
 10
207.178983
 20
-347.756521
 30
0.0
 10
207.479285
 20
-347.358531
 30
0.0
 10
207.847486
 20
-347.022517
 30
0.0
 10
208.271085
 20
-346.760530
 30
0.0
 10
208.735684
 20
-346.580529
 30
0.0
 10
209.225484
 20
-346.489512
 30
0.0
 10
209.723685
 20
-346.489512
 30
0.0
 10
210.213485
 20
-346.580529
 30
0.0
 10
210.678085
 20
-346.760530
 30
0.0
 10
211.101686
 20
-347.022517
 30
0.0
 10
211.469884
 20
-347.358531
 30
0.0
 10
211.770186
 20
-347.756521
 30
0.0
 10
211.992283
 20
-348.202517
 30
0.0
 10
212.128585
 20
-348.681504
 30
0.0
 10
212.174585
 20
-349.177510
 30
0.0
 10
212.128585
 20
-349.673515
 30
0.0
 10
211.992283
 20
-350.152531
 30
0.0
 10
211.770186
 20
-350.598527
 30
0.0
 10
211.469884
 20
-350.996517
 30
0.0
 10
211.101686
 20
-351.332530
 30
0.0
 10
210.678085
 20
-351.594517
 30
0.0
 10
210.213485
 20
-351.774519
 30
0.0
 10
209.723685
 20
-351.865507
 30
0.0
 10
209.225484
 20
-351.865507
 30
0.0
  0
LWPOLYLINE
  5
153
100
AcDbEntity
  8
Layer_1
 62
7
100
AcDbPolyline
 90
35
 70
0
 10
246.725474
 20
-351.865507
 30
0.0
 10
246.235686
 20
-351.774519
 30
0.0
 10
245.771086
 20
-351.594517
 30
0.0
 10
245.347484
 20
-351.332530
 30
0.0
 10
244.979283
 20
-350.996517
 30
0.0
 10
244.678985
 20
-350.598527
 30
0.0
 10
244.456884
 20
-350.152531
 30
0.0
 10
244.320585
 20
-349.673515
 30
0.0
 10
244.274586
 20
-349.177510
 30
0.0
 10
244.320585
 20
-348.681504
 30
0.0
 10
244.456884
 20
-348.202517
 30
0.0
 10
244.678985
 20
-347.756521
 30
0.0
 10
244.979283
 20
-347.358531
 30
0.0
 10
245.347484
 20
-347.022517
 30
0.0
 10
245.771086
 20
-346.760530
 30
0.0
 10
246.235686
 20
-346.580529
 30
0.0
 10
246.725474
 20
-346.489512
 30
0.0
 10
247.223715
 20
-346.489512
 30
0.0
 10
247.713475
 20
-346.580529
 30
0.0
 10
248.178094
 20
-346.760530
 30
0.0
 10
248.601704
 20
-347.022517
 30
0.0
 10
248.969914
 20
-347.358531
 30
0.0
 10
249.270176
 20
-347.756521
 30
0.0
 10
249.492265
 20
-348.202517
 30
0.0
 10
249.628626
 20
-348.681504
 30
0.0
 10
249.674594
 20
-349.177510
 30
0.0
 10
249.628626
 20
-349.673515
 30
0.0
 10
249.492265
 20
-350.152531
 30
0.0
 10
249.270176
 20
-350.598527
 30
0.0
 10
248.969914
 20
-350.996517
 30
0.0
 10
248.601704
 20
-351.332530
 30
0.0
 10
248.178094
 20
-351.594517
 30
0.0
 10
247.713475
 20
-351.774519
 30
0.0
 10
247.223715
 20
-351.865507
 30
0.0
 10
246.725474
 20
-351.865507
 30
0.0
  0
LWPOLYLINE
  5
154
100
AcDbEntity
  8
Layer_1
 62
7
100
AcDbPolyline
 90
35
 70
0
 10
246.725474
 20
-371.865523
 30
0.0
 10
246.235686
 20
-371.774507
 30
0.0
 10
245.771086
 20
-371.594505
 30
0.0
 10
245.347484
 20
-371.332519
 30
0.0
 10
244.979283
 20
-370.996505
 30
0.0
 10
244.678985
 20
-370.598515
 30
0.0
 10
244.456884
 20
-370.152519
 30
0.0
 10
244.320585
 20
-369.673532
 30
0.0
 10
244.274586
 20
-369.177526
 30
0.0
 10
244.320585
 20
-368.681521
 30
0.0
 10
244.456884
 20
-368.202505
 30
0.0
 10
244.678985
 20
-367.756509
 30
0.0
 10
244.979283
 20
-367.358519
 30
0.0
 10
245.347484
 20
-367.022505
 30
0.0
 10
245.771086
 20
-366.760519
 30
0.0
 10
246.235686
 20
-366.580517
 30
0.0
 10
246.725474
 20
-366.489529
 30
0.0
 10
247.223715
 20
-366.489529
 30
0.0
 10
247.713475
 20
-366.580517
 30
0.0
 10
248.178094
 20
-366.760519
 30
0.0
 10
248.601704
 20
-367.022505
 30
0.0
 10
248.969914
 20
-367.358519
 30
0.0
 10
249.270176
 20
-367.756509
 30
0.0
 10
249.492265
 20
-368.202505
 30
0.0
 10
249.628626
 20
-368.681521
 30
0.0
 10
249.674594
 20
-369.177526
 30
0.0
 10
249.628626
 20
-369.673532
 30
0.0
 10
249.492265
 20
-370.152519
 30
0.0
 10
249.270176
 20
-370.598515
 30
0.0
 10
248.969914
 20
-370.996505
 30
0.0
 10
248.601704
 20
-371.332519
 30
0.0
 10
248.178094
 20
-371.594505
 30
0.0
 10
247.713475
 20
-371.774507
 30
0.0
 10
247.223715
 20
-371.865523
 30
0.0
 10
246.725474
 20
-371.865523
 30
0.0
  0
LWPOLYLINE
  5
155
100
AcDbEntity
  8
Layer_1
 62
7
100
AcDbPolyline
 90
35
 70
0
 10
209.225484
 20
-371.865523
 30
0.0
 10
208.735684
 20
-371.774507
 30
0.0
 10
208.271085
 20
-371.594505
 30
0.0
 10
207.847486
 20
-371.332519
 30
0.0
 10
207.479285
 20
-370.996505
 30
0.0
 10
207.178983
 20
-370.598515
 30
0.0
 10
206.956886
 20
-370.152519
 30
0.0
 10
206.820584
 20
-369.673532
 30
0.0
 10
206.774584
 20
-369.177526
 30
0.0
 10
206.820584
 20
-368.681521
 30
0.0
 10
206.956886
 20
-368.202505
 30
0.0
 10
207.178983
 20
-367.756509
 30
0.0
 10
207.479285
 20
-367.358519
 30
0.0
 10
207.847486
 20
-367.022505
 30
0.0
 10
208.271085
 20
-366.760519
 30
0.0
 10
208.735684
 20
-366.580517
 30
0.0
 10
209.225484
 20
-366.489529
 30
0.0
 10
209.723685
 20
-366.489529
 30
0.0
 10
210.213485
 20
-366.580517
 30
0.0
 10
210.678085
 20
-366.760519
 30
0.0
 10
211.101686
 20
-367.022505
 30
0.0
 10
211.469884
 20
-367.358519
 30
0.0
 10
211.770186
 20
-367.756509
 30
0.0
 10
211.992283
 20
-368.202505
 30
0.0
 10
212.128585
 20
-368.681521
 30
0.0
 10
212.174585
 20
-369.177526
 30
0.0
 10
212.128585
 20
-369.673532
 30
0.0
 10
211.992283
 20
-370.152519
 30
0.0
 10
211.770186
 20
-370.598515
 30
0.0
 10
211.469884
 20
-370.996505
 30
0.0
 10
211.101686
 20
-371.332519
 30
0.0
 10
210.678085
 20
-371.594505
 30
0.0
 10
210.213485
 20
-371.774507
 30
0.0
 10
209.723685
 20
-371.865523
 30
0.0
 10
209.225484
 20
-371.865523
 30
0.0
  0
LWPOLYLINE
  5
156
100
AcDbEntity
  8
Layer_1
 62
7
100
AcDbPolyline
 90
5
 70
0
 10
239.024583
 20
-385.627526
 30
0.0
 10
239.024583
 20
-379.227516
 30
0.0
 10
253.924596
 20
-379.227516
 30
0.0
 10
253.924596
 20
-385.627526
 30
0.0
 10
239.024583
 20
-385.627526
 30
0.0
  0
LWPOLYLINE
  5
157
100
AcDbEntity
  8
Layer_1
 62
7
100
AcDbPolyline
 90
5
 70
0
 10
209.024584
 20
-385.627526
 30
0.0
 10
209.024584
 20
-379.227516
 30
0.0
 10
223.924585
 20
-379.227516
 30
0.0
 10
223.924585
 20
-385.627526
 30
0.0
 10
209.024584
 20
-385.627526
 30
0.0
  0
LWPOLYLINE
  5
158
100
AcDbEntity
  8
Layer_1
 62
7
100
AcDbPolyline
 90
35
 70
0
 10
231.225485
 20
-385.115518
 30
0.0
 10
230.735686
 20
-385.024530
 30
0.0
 10
230.271086
 20
-384.844528
 30
0.0
 10
229.847484
 20
-384.582513
 30
0.0
 10
229.479286
 20
-384.246528
 30
0.0
 10
229.178985
 20
-383.848510
 30
0.0
 10
228.956884
 20
-383.402514
 30
0.0
 10
228.820585
 20
-382.923526
 30
0.0
 10
228.774585
 20
-382.427521
 30
0.0
 10
228.820585
 20
-381.931515
 30
0.0
 10
228.956884
 20
-381.452528
 30
0.0
 10
229.178985
 20
-381.006532
 30
0.0
 10
229.479286
 20
-380.608514
 30
0.0
 10
229.847484
 20
-380.272528
 30
0.0
 10
230.271086
 20
-380.010513
 30
0.0
 10
230.735686
 20
-379.830512
 30
0.0
 10
231.225485
 20
-379.739523
 30
0.0
 10
231.723684
 20
-379.739523
 30
0.0
 10
232.213486
 20
-379.830512
 30
0.0
 10
232.678086
 20
-380.010513
 30
0.0
 10
233.101684
 20
-380.272528
 30
0.0
 10
233.469886
 20
-380.608514
 30
0.0
 10
233.770184
 20
-381.006532
 30
0.0
 10
233.992285
 20
-381.452528
 30
0.0
 10
234.128584
 20
-381.931515
 30
0.0
 10
234.174586
 20
-382.427521
 30
0.0
 10
234.128584
 20
-382.923526
 30
0.0
 10
233.992285
 20
-383.402514
 30
0.0
 10
233.770184
 20
-383.848510
 30
0.0
 10
233.469886
 20
-384.246528
 30
0.0
 10
233.101684
 20
-384.582513
 30
0.0
 10
232.678086
 20
-384.844528
 30
0.0
 10
232.213486
 20
-385.024530
 30
0.0
 10
231.723684
 20
-385.115518
 30
0.0
 10
231.225485
 20
-385.115518
 30
0.0
  0
LWPOLYLINE
  5
159
100
AcDbEntity
  8
Layer_1
 62
7
100
AcDbPolyline
 90
29
 70
0
 10
196.476277
 20
110.822496
 30
0.0
 10
183.976277
 20
110.822496
 30
0.0
 10
183.976277
 20
115.697495
 30
0.0
 10
182.351277
 20
117.322497
 30
0.0
 10
170.601277
 20
117.322497
 30
0.0
 10
168.976277
 20
115.697495
 30
0.0
 10
168.976277
 20
110.822496
 30
0.0
 10
163.876277
 20
110.822496
 30
0.0
 10
163.876277
 20
103.922495
 30
0.0
 10
165.426277
 20
103.922495
 30
0.0
 10
165.426277
 20
98.222496
 30
0.0
 10
163.876277
 20
98.222496
 30
0.0
 10
163.876277
 20
91.322495
 30
0.0
 10
159.076277
 20
91.322495
 30
0.0
 10
159.076277
 20
98.222496
 30
0.0
 10
157.526276
 20
98.222496
 30
0.0
 10
157.526276
 20
103.922495
 30
0.0
 10
159.076277
 20
103.922495
 30
0.0
 10
159.076277
 20
110.822496
 30
0.0
 10
153.976276
 20
110.822496
 30
0.0
 10
153.976276
 20
115.697495
 30
0.0
 10
152.351277
 20
117.322497
 30
0.0
 10
140.601277
 20
117.322497
 30
0.0
 10
138.976278
 20
115.697495
 30
0.0
 10
138.976278
 20
110.822496
 30
0.0
 10
126.476277
 20
110.822496
 30
0.0
 10
126.476277
 20
-399.177509
 30
0.0
 10
196.476277
 20
-399.177509
 30
0.0
 10
196.476277
 20
110.822496
 30
0.0
  0
LWPOLYLINE
  5
15a
100
AcDbEntity
  8
Layer_1
 62
7
100
AcDbPolyline
 90
35
 70
0
 10
176.727167
 20
98.134496
 30
0.0
 10
176.237377
 20
98.225496
 30
0.0
 10
175.772777
 20
98.405497
 30
0.0
 10
175.349177
 20
98.667495
 30
0.0
 10
174.980977
 20
99.003498
 30
0.0
 10
174.680677
 20
99.401496
 30
0.0
 10
174.458577
 20
99.847497
 30
0.0
 10
174.322277
 20
100.326496
 30
0.0
 10
174.276277
 20
100.822496
 30
0.0
 10
174.322277
 20
101.318496
 30
0.0
 10
174.458577
 20
101.797498
 30
0.0
 10
174.680677
 20
102.243496
 30
0.0
 10
174.980977
 20
102.641497
 30
0.0
 10
175.349177
 20
102.977497
 30
0.0
 10
175.772777
 20
103.239495
 30
0.0
 10
176.237377
 20
103.419496
 30
0.0
 10
176.727167
 20
103.510496
 30
0.0
 10
177.225407
 20
103.510496
 30
0.0
 10
177.715167
 20
103.419496
 30
0.0
 10
178.179787
 20
103.239495
 30
0.0
 10
178.603397
 20
102.977497
 30
0.0
 10
178.971607
 20
102.641497
 30
0.0
 10
179.271867
 20
102.243496
 30
0.0
 10
179.493957
 20
101.797498
 30
0.0
 10
179.630317
 20
101.318496
 30
0.0
 10
179.676287
 20
100.822496
 30
0.0
 10
179.630317
 20
100.326496
 30
0.0
 10
179.493957
 20
99.847497
 30
0.0
 10
179.271867
 20
99.401496
 30
0.0
 10
178.971607
 20
99.003498
 30
0.0
 10
178.603397
 20
98.667495
 30
0.0
 10
178.179787
 20
98.405497
 30
0.0
 10
177.715167
 20
98.225496
 30
0.0
 10
177.225407
 20
98.134496
 30
0.0
 10
176.727167
 20
98.134496
 30
0.0
  0
LWPOLYLINE
  5
15b
100
AcDbEntity
  8
Layer_1
 62
7
100
AcDbPolyline
 90
35
 70
0
 10
139.227176
 20
98.134496
 30
0.0
 10
138.737377
 20
98.225496
 30
0.0
 10
138.272777
 20
98.405497
 30
0.0
 10
137.849178
 20
98.667495
 30
0.0
 10
137.480977
 20
99.003498
 30
0.0
 10
137.180676
 20
99.401496
 30
0.0
 10
136.958578
 20
99.847497
 30
0.0
 10
136.822276
 20
100.326496
 30
0.0
 10
136.776277
 20
100.822496
 30
0.0
 10
136.822276
 20
101.318496
 30
0.0
 10
136.958578
 20
101.797498
 30
0.0
 10
137.180676
 20
102.243496
 30
0.0
 10
137.480977
 20
102.641497
 30
0.0
 10
137.849178
 20
102.977497
 30
0.0
 10
138.272777
 20
103.239495
 30
0.0
 10
138.737377
 20
103.419496
 30
0.0
 10
139.227176
 20
103.510496
 30
0.0
 10
139.725377
 20
103.510496
 30
0.0
 10
140.215177
 20
103.419496
 30
0.0
 10
140.679777
 20
103.239495
 30
0.0
 10
141.103378
 20
102.977497
 30
0.0
 10
141.471577
 20
102.641497
 30
0.0
 10
141.771878
 20
102.243496
 30
0.0
 10
141.993976
 20
101.797498
 30
0.0
 10
142.130278
 20
101.318496
 30
0.0
 10
142.176277
 20
100.822496
 30
0.0
 10
142.130278
 20
100.326496
 30
0.0
 10
141.993976
 20
99.847497
 30
0.0
 10
141.771878
 20
99.401496
 30
0.0
 10
141.471577
 20
99.003498
 30
0.0
 10
141.103378
 20
98.667495
 30
0.0
 10
140.679777
 20
98.405497
 30
0.0
 10
140.215177
 20
98.225496
 30
0.0
 10
139.725377
 20
98.134496
 30
0.0
 10
139.227176
 20
98.134496
 30
0.0
  0
LWPOLYLINE
  5
15c
100
AcDbEntity
  8
Layer_1
 62
7
100
AcDbPolyline
 90
35
 70
0
 10
176.727167
 20
78.134496
 30
0.0
 10
176.237377
 20
78.225496
 30
0.0
 10
175.772777
 20
78.405497
 30
0.0
 10
175.349177
 20
78.667496
 30
0.0
 10
174.980977
 20
79.003495
 30
0.0
 10
174.680677
 20
79.401496
 30
0.0
 10
174.458577
 20
79.847495
 30
0.0
 10
174.322277
 20
80.326497
 30
0.0
 10
174.276277
 20
80.822497
 30
0.0
 10
174.322277
 20
81.318496
 30
0.0
 10
174.458577
 20
81.797495
 30
0.0
 10
174.680677
 20
82.243497
 30
0.0
 10
174.980977
 20
82.641495
 30
0.0
 10
175.349177
 20
82.977497
 30
0.0
 10
175.772777
 20
83.239496
 30
0.0
 10
176.237377
 20
83.419497
 30
0.0
 10
176.727167
 20
83.510497
 30
0.0
 10
177.225407
 20
83.510497
 30
0.0
 10
177.715167
 20
83.419497
 30
0.0
 10
178.179787
 20
83.239496
 30
0.0
 10
178.603397
 20
82.977497
 30
0.0
 10
178.971607
 20
82.641495
 30
0.0
 10
179.271867
 20
82.243497
 30
0.0
 10
179.493957
 20
81.797495
 30
0.0
 10
179.630317
 20
81.318496
 30
0.0
 10
179.676287
 20
80.822497
 30
0.0
 10
179.630317
 20
80.326497
 30
0.0
 10
179.493957
 20
79.847495
 30
0.0
 10
179.271867
 20
79.401496
 30
0.0
 10
178.971607
 20
79.003495
 30
0.0
 10
178.603397
 20
78.667496
 30
0.0
 10
178.179787
 20
78.405497
 30
0.0
 10
177.715167
 20
78.225496
 30
0.0
 10
177.225407
 20
78.134496
 30
0.0
 10
176.727167
 20
78.134496
 30
0.0
  0
LWPOLYLINE
  5
15d
100
AcDbEntity
  8
Layer_1
 62
7
100
AcDbPolyline
 90
35
 70
0
 10
139.227176
 20
78.134496
 30
0.0
 10
138.737377
 20
78.225496
 30
0.0
 10
138.272777
 20
78.405497
 30
0.0
 10
137.849178
 20
78.667496
 30
0.0
 10
137.480977
 20
79.003495
 30
0.0
 10
137.180676
 20
79.401496
 30
0.0
 10
136.958578
 20
79.847495
 30
0.0
 10
136.822276
 20
80.326497
 30
0.0
 10
136.776277
 20
80.822497
 30
0.0
 10
136.822276
 20
81.318496
 30
0.0
 10
136.958578
 20
81.797495
 30
0.0
 10
137.180676
 20
82.243497
 30
0.0
 10
137.480977
 20
82.641495
 30
0.0
 10
137.849178
 20
82.977497
 30
0.0
 10
138.272777
 20
83.239496
 30
0.0
 10
138.737377
 20
83.419497
 30
0.0
 10
139.227176
 20
83.510497
 30
0.0
 10
139.725377
 20
83.510497
 30
0.0
 10
140.215177
 20
83.419497
 30
0.0
 10
140.679777
 20
83.239496
 30
0.0
 10
141.103378
 20
82.977497
 30
0.0
 10
141.471577
 20
82.641495
 30
0.0
 10
141.771878
 20
82.243497
 30
0.0
 10
141.993976
 20
81.797495
 30
0.0
 10
142.130278
 20
81.318496
 30
0.0
 10
142.176277
 20
80.822497
 30
0.0
 10
142.130278
 20
80.326497
 30
0.0
 10
141.993976
 20
79.847495
 30
0.0
 10
141.771878
 20
79.401496
 30
0.0
 10
141.471577
 20
79.003495
 30
0.0
 10
141.103378
 20
78.667496
 30
0.0
 10
140.679777
 20
78.405497
 30
0.0
 10
140.215177
 20
78.225496
 30
0.0
 10
139.725377
 20
78.134496
 30
0.0
 10
139.227176
 20
78.134496
 30
0.0
  0
LWPOLYLINE
  5
15e
100
AcDbEntity
  8
Layer_1
 62
7
100
AcDbPolyline
 90
5
 70
0
 10
183.526277
 20
18.372496
 30
0.0
 10
183.526277
 20
33.272497
 30
0.0
 10
189.926277
 20
33.272497
 30
0.0
 10
189.926277
 20
18.372496
 30
0.0
 10
183.526277
 20
18.372496
 30
0.0
  0
LWPOLYLINE
  5
15f
100
AcDbEntity
  8
Layer_1
 62
7
100
AcDbPolyline
 90
5
 70
0
 10
152.026276
 20
18.372496
 30
0.0
 10
152.026276
 20
33.272497
 30
0.0
 10
158.426277
 20
33.272497
 30
0.0
 10
158.426277
 20
18.372496
 30
0.0
 10
152.026276
 20
18.372496
 30
0.0
  0
LWPOLYLINE
  5
160
100
AcDbEntity
  8
Layer_1
 62
7
100
AcDbPolyline
 90
35
 70
0
 10
154.730176
 20
8.168497
 30
0.0
 10
154.250977
 20
8.304497
 30
0.0
 10
153.804877
 20
8.526496
 30
0.0
 10
153.407277
 20
8.827498
 30
0.0
 10
153.071678
 20
9.195496
 30
0.0
 10
152.809377
 20
9.619495
 30
0.0
 10
152.629376
 20
10.083497
 30
0.0
 10
152.537778
 20
10.573496
 30
0.0
 10
152.537778
 20
11.071497
 30
0.0
 10
152.629376
 20
11.561497
 30
0.0
 10
152.809377
 20
12.025496
 30
0.0
 10
153.071678
 20
12.449495
 30
0.0
 10
153.407277
 20
12.817496
 30
0.0
 10
153.804877
 20
13.118497
 30
0.0
 10
154.250977
 20
13.340496
 30
0.0
 10
154.730176
 20
13.476496
 30
0.0
 10
155.226278
 20
13.522496
 30
0.0
 10
155.722376
 20
13.476496
 30
0.0
 10
156.201677
 20
13.340496
 30
0.0
 10
156.647676
 20
13.118497
 30
0.0
 10
157.045276
 20
12.817496
 30
0.0
 10
157.380878
 20
12.449495
 30
0.0
 10
157.643178
 20
12.025496
 30
0.0
 10
157.823177
 20
11.561497
 30
0.0
 10
157.914777
 20
11.071497
 30
0.0
 10
157.914777
 20
10.573496
 30
0.0
 10
157.823177
 20
10.083497
 30
0.0
 10
157.643178
 20
9.619495
 30
0.0
 10
157.380878
 20
9.195496
 30
0.0
 10
157.045276
 20
8.827498
 30
0.0
 10
156.647676
 20
8.526496
 30
0.0
 10
156.201677
 20
8.304497
 30
0.0
 10
155.722376
 20
8.168497
 30
0.0
 10
155.226278
 20
8.122495
 30
0.0
 10
154.730176
 20
8.168497
 30
0.0
  0
LWPOLYLINE
  5
161
100
AcDbEntity
  8
Layer_1
 62
7
100
AcDbPolyline
 90
35
 70
0
 10
186.230168
 20
8.168497
 30
0.0
 10
185.750935
 20
8.304497
 30
0.0
 10
185.304917
 20
8.526496
 30
0.0
 10
184.907307
 20
8.827498
 30
0.0
 10
184.571647
 20
9.195496
 30
0.0
 10
184.309347
 20
9.619495
 30
0.0
 10
184.129357
 20
10.083497
 30
0.0
 10
184.037797
 20
10.573496
 30
0.0
 10
184.037797
 20
11.071497
 30
0.0
 10
184.129357
 20
11.561497
 30
0.0
 10
184.309347
 20
12.025496
 30
0.0
 10
184.571647
 20
12.449495
 30
0.0
 10
184.907307
 20
12.817496
 30
0.0
 10
185.304917
 20
13.118497
 30
0.0
 10
185.750935
 20
13.340496
 30
0.0
 10
186.230168
 20
13.476496
 30
0.0
 10
186.726277
 20
13.522496
 30
0.0
 10
187.222386
 20
13.476496
 30
0.0
 10
187.701619
 20
13.340496
 30
0.0
 10
188.147637
 20
13.118497
 30
0.0
 10
188.545247
 20
12.817496
 30
0.0
 10
188.880907
 20
12.449495
 30
0.0
 10
189.143207
 20
12.025496
 30
0.0
 10
189.323197
 20
11.561497
 30
0.0
 10
189.414757
 20
11.071497
 30
0.0
 10
189.414757
 20
10.573496
 30
0.0
 10
189.323197
 20
10.083497
 30
0.0
 10
189.143207
 20
9.619495
 30
0.0
 10
188.880907
 20
9.195496
 30
0.0
 10
188.545247
 20
8.827498
 30
0.0
 10
188.147637
 20
8.526496
 30
0.0
 10
187.701619
 20
8.304497
 30
0.0
 10
187.222386
 20
8.168497
 30
0.0
 10
186.726277
 20
8.122495
 30
0.0
 10
186.230168
 20
8.168497
 30
0.0
  0
LWPOLYLINE
  5
162
100
AcDbEntity
  8
Layer_1
 62
7
100
AcDbPolyline
 90
5
 70
0
 10
183.526277
 20
-11.627503
 30
0.0
 10
183.526277
 20
3.272495
 30
0.0
 10
189.926277
 20
3.272495
 30
0.0
 10
189.926277
 20
-11.627503
 30
0.0
 10
183.526277
 20
-11.627503
 30
0.0
  0
LWPOLYLINE
  5
163
100
AcDbEntity
  8
Layer_1
 62
7
100
AcDbPolyline
 90
5
 70
0
 10
152.026276
 20
-11.627503
 30
0.0
 10
152.026276
 20
3.272495
 30
0.0
 10
158.426277
 20
3.272495
 30
0.0
 10
158.426277
 20
-11.627503
 30
0.0
 10
152.026276
 20
-11.627503
 30
0.0
  0
LWPOLYLINE
  5
164
100
AcDbEntity
  8
Layer_1
 62
7
100
AcDbPolyline
 90
5
 70
0
 10
183.526277
 20
-126.627522
 30
0.0
 10
183.526277
 20
-111.727504
 30
0.0
 10
189.926277
 20
-111.727504
 30
0.0
 10
189.926277
 20
-126.627522
 30
0.0
 10
183.526277
 20
-126.627522
 30
0.0
  0
LWPOLYLINE
  5
165
100
AcDbEntity
  8
Layer_1
 62
7
100
AcDbPolyline
 90
5
 70
0
 10
152.026276
 20
-126.627522
 30
0.0
 10
152.026276
 20
-111.727504
 30
0.0
 10
158.426277
 20
-111.727504
 30
0.0
 10
158.426277
 20
-126.627522
 30
0.0
 10
152.026276
 20
-126.627522
 30
0.0
  0
LWPOLYLINE
  5
166
100
AcDbEntity
  8
Layer_1
 62
7
100
AcDbPolyline
 90
35
 70
0
 10
154.730176
 20
-136.831520
 30
0.0
 10
154.250977
 20
-136.695179
 30
0.0
 10
153.804877
 20
-136.473098
 30
0.0
 10
153.407277
 20
-136.172814
 30
0.0
 10
153.071678
 20
-135.804626
 30
0.0
 10
152.809377
 20
-135.380983
 30
0.0
 10
152.629376
 20
-134.916388
 30
0.0
 10
152.537778
 20
-134.426620
 30
0.0
 10
152.537778
 20
-133.928385
 30
0.0
 10
152.629376
 20
-133.438616
 30
0.0
 10
152.809377
 20
-132.974022
 30
0.0
 10
153.071678
 20
-132.550407
 30
0.0
 10
153.407277
 20
-132.182191
 30
0.0
 10
153.804877
 20
-131.881935
 30
0.0
 10
154.250977
 20
-131.659826
 30
0.0
 10
154.730176
 20
-131.523485
 30
0.0
 10
155.226278
 20
-131.477511
 30
0.0
 10
155.722376
 20
-131.523485
 30
0.0
 10
156.201677
 20
-131.659826
 30
0.0
 10
156.647676
 20
-131.881935
 30
0.0
 10
157.045276
 20
-132.182191
 30
0.0
 10
157.380878
 20
-132.550407
 30
0.0
 10
157.643178
 20
-132.974022
 30
0.0
 10
157.823177
 20
-133.438616
 30
0.0
 10
157.914777
 20
-133.928385
 30
0.0
 10
157.914777
 20
-134.426620
 30
0.0
 10
157.823177
 20
-134.916388
 30
0.0
 10
157.643178
 20
-135.380983
 30
0.0
 10
157.380878
 20
-135.804626
 30
0.0
 10
157.045276
 20
-136.172814
 30
0.0
 10
156.647676
 20
-136.473098
 30
0.0
 10
156.201677
 20
-136.695179
 30
0.0
 10
155.722376
 20
-136.831520
 30
0.0
 10
155.226278
 20
-136.877494
 30
0.0
 10
154.730176
 20
-136.831520
 30
0.0
  0
LWPOLYLINE
  5
167
100
AcDbEntity
  8
Layer_1
 62
7
100
AcDbPolyline
 90
35
 70
0
 10
186.230168
 20
-136.831520
 30
0.0
 10
185.750935
 20
-136.695179
 30
0.0
 10
185.304917
 20
-136.473098
 30
0.0
 10
184.907307
 20
-136.172814
 30
0.0
 10
184.571647
 20
-135.804626
 30
0.0
 10
184.309347
 20
-135.380983
 30
0.0
 10
184.129357
 20
-134.916388
 30
0.0
 10
184.037797
 20
-134.426620
 30
0.0
 10
184.037797
 20
-133.928385
 30
0.0
 10
184.129357
 20
-133.438616
 30
0.0
 10
184.309347
 20
-132.974022
 30
0.0
 10
184.571647
 20
-132.550407
 30
0.0
 10
184.907307
 20
-132.182191
 30
0.0
 10
185.304917
 20
-131.881935
 30
0.0
 10
185.750935
 20
-131.659826
 30
0.0
 10
186.230168
 20
-131.523485
 30
0.0
 10
186.726277
 20
-131.477511
 30
0.0
 10
187.222386
 20
-131.523485
 30
0.0
 10
187.701619
 20
-131.659826
 30
0.0
 10
188.147637
 20
-131.881935
 30
0.0
 10
188.545247
 20
-132.182191
 30
0.0
 10
188.880907
 20
-132.550407
 30
0.0
 10
189.143207
 20
-132.974022
 30
0.0
 10
189.323197
 20
-133.438616
 30
0.0
 10
189.414757
 20
-133.928385
 30
0.0
 10
189.414757
 20
-134.426620
 30
0.0
 10
189.323197
 20
-134.916388
 30
0.0
 10
189.143207
 20
-135.380983
 30
0.0
 10
188.880907
 20
-135.804626
 30
0.0
 10
188.545247
 20
-136.172814
 30
0.0
 10
188.147637
 20
-136.473098
 30
0.0
 10
187.701619
 20
-136.695179
 30
0.0
 10
187.222386
 20
-136.831520
 30
0.0
 10
186.726277
 20
-136.877494
 30
0.0
 10
186.230168
 20
-136.831520
 30
0.0
  0
LWPOLYLINE
  5
168
100
AcDbEntity
  8
Layer_1
 62
7
100
AcDbPolyline
 90
5
 70
0
 10
152.026276
 20
-156.627490
 30
0.0
 10
152.026276
 20
-141.727483
 30
0.0
 10
158.426277
 20
-141.727483
 30
0.0
 10
158.426277
 20
-156.627490
 30
0.0
 10
152.026276
 20
-156.627490
 30
0.0
  0
LWPOLYLINE
  5
169
100
AcDbEntity
  8
Layer_1
 62
7
100
AcDbPolyline
 90
5
 70
0
 10
183.526277
 20
-156.627490
 30
0.0
 10
183.526277
 20
-141.727483
 30
0.0
 10
189.926277
 20
-141.727483
 30
0.0
 10
189.926277
 20
-156.627490
 30
0.0
 10
183.526277
 20
-156.627490
 30
0.0
  0
LWPOLYLINE
  5
16a
100
AcDbEntity
  8
Layer_1
 62
7
100
AcDbPolyline
 90
5
 70
0
 10
152.026276
 20
-271.627514
 30
0.0
 10
152.026276
 20
-256.727507
 30
0.0
 10
158.426277
 20
-256.727507
 30
0.0
 10
158.426277
 20
-271.627514
 30
0.0
 10
152.026276
 20
-271.627514
 30
0.0
  0
LWPOLYLINE
  5
16b
100
AcDbEntity
  8
Layer_1
 62
7
100
AcDbPolyline
 90
5
 70
0
 10
183.526277
 20
-271.627514
 30
0.0
 10
183.526277
 20
-256.727507
 30
0.0
 10
189.926277
 20
-256.727507
 30
0.0
 10
189.926277
 20
-271.627514
 30
0.0
 10
183.526277
 20
-271.627514
 30
0.0
  0
LWPOLYLINE
  5
16c
100
AcDbEntity
  8
Layer_1
 62
7
100
AcDbPolyline
 90
35
 70
0
 10
186.230168
 20
-281.831512
 30
0.0
 10
185.750935
 20
-281.695510
 30
0.0
 10
185.304917
 20
-281.473514
 30
0.0
 10
184.907307
 20
-281.172495
 30
0.0
 10
184.571647
 20
-280.804506
 30
0.0
 10
184.309347
 20
-280.380495
 30
0.0
 10
184.129357
 20
-279.916494
 30
0.0
 10
184.037797
 20
-279.426499
 30
0.0
 10
184.037797
 20
-278.928490
 30
0.0
 10
184.129357
 20
-278.438496
 30
0.0
 10
184.309347
 20
-277.974494
 30
0.0
 10
184.571647
 20
-277.550512
 30
0.0
 10
184.907307
 20
-277.182494
 30
0.0
 10
185.304917
 20
-276.881504
 30
0.0
 10
185.750935
 20
-276.659508
 30
0.0
 10
186.230168
 20
-276.523505
 30
0.0
 10
186.726277
 20
-276.477503
 30
0.0
 10
187.222386
 20
-276.523505
 30
0.0
 10
187.701619
 20
-276.659508
 30
0.0
 10
188.147637
 20
-276.881504
 30
0.0
 10
188.545247
 20
-277.182494
 30
0.0
 10
188.880907
 20
-277.550512
 30
0.0
 10
189.143207
 20
-277.974494
 30
0.0
 10
189.323197
 20
-278.438496
 30
0.0
 10
189.414757
 20
-278.928490
 30
0.0
 10
189.414757
 20
-279.426499
 30
0.0
 10
189.323197
 20
-279.916494
 30
0.0
 10
189.143207
 20
-280.380495
 30
0.0
 10
188.880907
 20
-280.804506
 30
0.0
 10
188.545247
 20
-281.172495
 30
0.0
 10
188.147637
 20
-281.473514
 30
0.0
 10
187.701619
 20
-281.695510
 30
0.0
 10
187.222386
 20
-281.831512
 30
0.0
 10
186.726277
 20
-281.877515
 30
0.0
 10
186.230168
 20
-281.831512
 30
0.0
  0
LWPOLYLINE
  5
16d
100
AcDbEntity
  8
Layer_1
 62
7
100
AcDbPolyline
 90
35
 70
0
 10
154.730176
 20
-281.831512
 30
0.0
 10
154.250977
 20
-281.695510
 30
0.0
 10
153.804877
 20
-281.473514
 30
0.0
 10
153.407277
 20
-281.172495
 30
0.0
 10
153.071678
 20
-280.804506
 30
0.0
 10
152.809377
 20
-280.380495
 30
0.0
 10
152.629376
 20
-279.916494
 30
0.0
 10
152.537778
 20
-279.426499
 30
0.0
 10
152.537778
 20
-278.928490
 30
0.0
 10
152.629376
 20
-278.438496
 30
0.0
 10
152.809377
 20
-277.974494
 30
0.0
 10
153.071678
 20
-277.550512
 30
0.0
 10
153.407277
 20
-277.182494
 30
0.0
 10
153.804877
 20
-276.881504
 30
0.0
 10
154.250977
 20
-276.659508
 30
0.0
 10
154.730176
 20
-276.523505
 30
0.0
 10
155.226278
 20
-276.477503
 30
0.0
 10
155.722376
 20
-276.523505
 30
0.0
 10
156.201677
 20
-276.659508
 30
0.0
 10
156.647676
 20
-276.881504
 30
0.0
 10
157.045276
 20
-277.182494
 30
0.0
 10
157.380878
 20
-277.550512
 30
0.0
 10
157.643178
 20
-277.974494
 30
0.0
 10
157.823177
 20
-278.438496
 30
0.0
 10
157.914777
 20
-278.928490
 30
0.0
 10
157.914777
 20
-279.426499
 30
0.0
 10
157.823177
 20
-279.916494
 30
0.0
 10
157.643178
 20
-280.380495
 30
0.0
 10
157.380878
 20
-280.804506
 30
0.0
 10
157.045276
 20
-281.172495
 30
0.0
 10
156.647676
 20
-281.473514
 30
0.0
 10
156.201677
 20
-281.695510
 30
0.0
 10
155.722376
 20
-281.831512
 30
0.0
 10
155.226278
 20
-281.877515
 30
0.0
 10
154.730176
 20
-281.831512
 30
0.0
  0
LWPOLYLINE
  5
16e
100
AcDbEntity
  8
Layer_1
 62
7
100
AcDbPolyline
 90
5
 70
0
 10
152.026276
 20
-301.627510
 30
0.0
 10
152.026276
 20
-286.727504
 30
0.0
 10
158.426277
 20
-286.727504
 30
0.0
 10
158.426277
 20
-301.627510
 30
0.0
 10
152.026276
 20
-301.627510
 30
0.0
  0
LWPOLYLINE
  5
16f
100
AcDbEntity
  8
Layer_1
 62
7
100
AcDbPolyline
 90
5
 70
0
 10
183.526277
 20
-301.627510
 30
0.0
 10
183.526277
 20
-286.727504
 30
0.0
 10
189.926277
 20
-286.727504
 30
0.0
 10
189.926277
 20
-301.627510
 30
0.0
 10
183.526277
 20
-301.627510
 30
0.0
  0
LWPOLYLINE
  5
170
100
AcDbEntity
  8
Layer_1
 62
7
100
AcDbPolyline
 90
35
 70
0
 10
139.227176
 20
-351.865493
 30
0.0
 10
138.737377
 20
-351.774505
 30
0.0
 10
138.272777
 20
-351.594503
 30
0.0
 10
137.849178
 20
-351.332516
 30
0.0
 10
137.480977
 20
-350.996503
 30
0.0
 10
137.180676
 20
-350.598513
 30
0.0
 10
136.958578
 20
-350.152517
 30
0.0
 10
136.822276
 20
-349.673501
 30
0.0
 10
136.776277
 20
-349.177496
 30
0.0
 10
136.822276
 20
-348.681490
 30
0.0
 10
136.958578
 20
-348.202503
 30
0.0
 10
137.180676
 20
-347.756507
 30
0.0
 10
137.480977
 20
-347.358517
 30
0.0
 10
137.849178
 20
-347.022503
 30
0.0
 10
138.272777
 20
-346.760516
 30
0.0
 10
138.737377
 20
-346.580515
 30
0.0
 10
139.227176
 20
-346.489498
 30
0.0
 10
139.725377
 20
-346.489498
 30
0.0
 10
140.215177
 20
-346.580515
 30
0.0
 10
140.679777
 20
-346.760516
 30
0.0
 10
141.103378
 20
-347.022503
 30
0.0
 10
141.471577
 20
-347.358517
 30
0.0
 10
141.771878
 20
-347.756507
 30
0.0
 10
141.993976
 20
-348.202503
 30
0.0
 10
142.130278
 20
-348.681490
 30
0.0
 10
142.176277
 20
-349.177496
 30
0.0
 10
142.130278
 20
-349.673501
 30
0.0
 10
141.993976
 20
-350.152517
 30
0.0
 10
141.771878
 20
-350.598513
 30
0.0
 10
141.471577
 20
-350.996503
 30
0.0
 10
141.103378
 20
-351.332516
 30
0.0
 10
140.679777
 20
-351.594503
 30
0.0
 10
140.215177
 20
-351.774505
 30
0.0
 10
139.725377
 20
-351.865493
 30
0.0
 10
139.227176
 20
-351.865493
 30
0.0
  0
LWPOLYLINE
  5
171
100
AcDbEntity
  8
Layer_1
 62
7
100
AcDbPolyline
 90
35
 70
0
 10
176.727167
 20
-351.865493
 30
0.0
 10
176.237377
 20
-351.774505
 30
0.0
 10
175.772777
 20
-351.594503
 30
0.0
 10
175.349177
 20
-351.332516
 30
0.0
 10
174.980977
 20
-350.996503
 30
0.0
 10
174.680677
 20
-350.598513
 30
0.0
 10
174.458577
 20
-350.152517
 30
0.0
 10
174.322277
 20
-349.673501
 30
0.0
 10
174.276277
 20
-349.177496
 30
0.0
 10
174.322277
 20
-348.681490
 30
0.0
 10
174.458577
 20
-348.202503
 30
0.0
 10
174.680677
 20
-347.756507
 30
0.0
 10
174.980977
 20
-347.358517
 30
0.0
 10
175.349177
 20
-347.022503
 30
0.0
 10
175.772777
 20
-346.760516
 30
0.0
 10
176.237377
 20
-346.580515
 30
0.0
 10
176.727167
 20
-346.489498
 30
0.0
 10
177.225407
 20
-346.489498
 30
0.0
 10
177.715167
 20
-346.580515
 30
0.0
 10
178.179787
 20
-346.760516
 30
0.0
 10
178.603397
 20
-347.022503
 30
0.0
 10
178.971607
 20
-347.358517
 30
0.0
 10
179.271867
 20
-347.756507
 30
0.0
 10
179.493957
 20
-348.202503
 30
0.0
 10
179.630317
 20
-348.681490
 30
0.0
 10
179.676287
 20
-349.177496
 30
0.0
 10
179.630317
 20
-349.673501
 30
0.0
 10
179.493957
 20
-350.152517
 30
0.0
 10
179.271867
 20
-350.598513
 30
0.0
 10
178.971607
 20
-350.996503
 30
0.0
 10
178.603397
 20
-351.332516
 30
0.0
 10
178.179787
 20
-351.594503
 30
0.0
 10
177.715167
 20
-351.774505
 30
0.0
 10
177.225407
 20
-351.865493
 30
0.0
 10
176.727167
 20
-351.865493
 30
0.0
  0
LWPOLYLINE
  5
172
100
AcDbEntity
  8
Layer_1
 62
7
100
AcDbPolyline
 90
35
 70
0
 10
176.727167
 20
-371.865510
 30
0.0
 10
176.237377
 20
-371.774493
 30
0.0
 10
175.772777
 20
-371.594492
 30
0.0
 10
175.349177
 20
-371.332505
 30
0.0
 10
174.980977
 20
-370.996491
 30
0.0
 10
174.680677
 20
-370.598501
 30
0.0
 10
174.458577
 20
-370.152505
 30
0.0
 10
174.322277
 20
-369.673518
 30
0.0
 10
174.276277
 20
-369.177512
 30
0.0
 10
174.322277
 20
-368.681507
 30
0.0
 10
174.458577
 20
-368.202491
 30
0.0
 10
174.680677
 20
-367.756495
 30
0.0
 10
174.980977
 20
-367.358505
 30
0.0
 10
175.349177
 20
-367.022492
 30
0.0
 10
175.772777
 20
-366.760505
 30
0.0
 10
176.237377
 20
-366.580503
 30
0.0
 10
176.727167
 20
-366.489515
 30
0.0
 10
177.225407
 20
-366.489515
 30
0.0
 10
177.715167
 20
-366.580503
 30
0.0
 10
178.179787
 20
-366.760505
 30
0.0
 10
178.603397
 20
-367.022492
 30
0.0
 10
178.971607
 20
-367.358505
 30
0.0
 10
179.271867
 20
-367.756495
 30
0.0
 10
179.493957
 20
-368.202491
 30
0.0
 10
179.630317
 20
-368.681507
 30
0.0
 10
179.676287
 20
-369.177512
 30
0.0
 10
179.630317
 20
-369.673518
 30
0.0
 10
179.493957
 20
-370.152505
 30
0.0
 10
179.271867
 20
-370.598501
 30
0.0
 10
178.971607
 20
-370.996491
 30
0.0
 10
178.603397
 20
-371.332505
 30
0.0
 10
178.179787
 20
-371.594492
 30
0.0
 10
177.715167
 20
-371.774493
 30
0.0
 10
177.225407
 20
-371.865510
 30
0.0
 10
176.727167
 20
-371.865510
 30
0.0
  0
LWPOLYLINE
  5
173
100
AcDbEntity
  8
Layer_1
 62
7
100
AcDbPolyline
 90
35
 70
0
 10
139.227176
 20
-371.865510
 30
0.0
 10
138.737377
 20
-371.774493
 30
0.0
 10
138.272777
 20
-371.594492
 30
0.0
 10
137.849178
 20
-371.332505
 30
0.0
 10
137.480977
 20
-370.996491
 30
0.0
 10
137.180676
 20
-370.598501
 30
0.0
 10
136.958578
 20
-370.152505
 30
0.0
 10
136.822276
 20
-369.673518
 30
0.0
 10
136.776277
 20
-369.177512
 30
0.0
 10
136.822276
 20
-368.681507
 30
0.0
 10
136.958578
 20
-368.202491
 30
0.0
 10
137.180676
 20
-367.756495
 30
0.0
 10
137.480977
 20
-367.358505
 30
0.0
 10
137.849178
 20
-367.022492
 30
0.0
 10
138.272777
 20
-366.760505
 30
0.0
 10
138.737377
 20
-366.580503
 30
0.0
 10
139.227176
 20
-366.489515
 30
0.0
 10
139.725377
 20
-366.489515
 30
0.0
 10
140.215177
 20
-366.580503
 30
0.0
 10
140.679777
 20
-366.760505
 30
0.0
 10
141.103378
 20
-367.022492
 30
0.0
 10
141.471577
 20
-367.358505
 30
0.0
 10
141.771878
 20
-367.756495
 30
0.0
 10
141.993976
 20
-368.202491
 30
0.0
 10
142.130278
 20
-368.681507
 30
0.0
 10
142.176277
 20
-369.177512
 30
0.0
 10
142.130278
 20
-369.673518
 30
0.0
 10
141.993976
 20
-370.152505
 30
0.0
 10
141.771878
 20
-370.598501
 30
0.0
 10
141.471577
 20
-370.996491
 30
0.0
 10
141.103378
 20
-371.332505
 30
0.0
 10
140.679777
 20
-371.594492
 30
0.0
 10
140.215177
 20
-371.774493
 30
0.0
 10
139.725377
 20
-371.865510
 30
0.0
 10
139.227176
 20
-371.865510
 30
0.0
  0
LWPOLYLINE
  5
174
100
AcDbEntity
  8
Layer_1
 62
7
100
AcDbPolyline
 90
5
 70
0
 10
169.026277
 20
-385.627512
 30
0.0
 10
169.026277
 20
-379.227502
 30
0.0
 10
183.926287
 20
-379.227502
 30
0.0
 10
183.926287
 20
-385.627512
 30
0.0
 10
169.026277
 20
-385.627512
 30
0.0
  0
LWPOLYLINE
  5
175
100
AcDbEntity
  8
Layer_1
 62
7
100
AcDbPolyline
 90
5
 70
0
 10
139.026276
 20
-385.627512
 30
0.0
 10
139.026276
 20
-379.227502
 30
0.0
 10
153.926278
 20
-379.227502
 30
0.0
 10
153.926278
 20
-385.627512
 30
0.0
 10
139.026276
 20
-385.627512
 30
0.0
  0
LWPOLYLINE
  5
176
100
AcDbEntity
  8
Layer_1
 62
7
100
AcDbPolyline
 90
35
 70
0
 10
161.227177
 20
-385.115504
 30
0.0
 10
160.737377
 20
-385.024516
 30
0.0
 10
160.272777
 20
-384.844514
 30
0.0
 10
159.849177
 20
-384.582499
 30
0.0
 10
159.480977
 20
-384.246514
 30
0.0
 10
159.180677
 20
-383.848496
 30
0.0
 10
158.958577
 20
-383.402500
 30
0.0
 10
158.822277
 20
-382.923512
 30
0.0
 10
158.776277
 20
-382.427507
 30
0.0
 10
158.822277
 20
-381.931501
 30
0.0
 10
158.958577
 20
-381.452514
 30
0.0
 10
159.180677
 20
-381.006518
 30
0.0
 10
159.480977
 20
-380.608500
 30
0.0
 10
159.849177
 20
-380.272514
 30
0.0
 10
160.272777
 20
-380.010499
 30
0.0
 10
160.737377
 20
-379.830498
 30
0.0
 10
161.227177
 20
-379.739510
 30
0.0
 10
161.725377
 20
-379.739510
 30
0.0
 10
162.215177
 20
-379.830498
 30
0.0
 10
162.679777
 20
-380.010499
 30
0.0
 10
163.103377
 20
-380.272514
 30
0.0
 10
163.471577
 20
-380.608500
 30
0.0
 10
163.771877
 20
-381.006518
 30
0.0
 10
163.993977
 20
-381.452514
 30
0.0
 10
164.130277
 20
-381.931501
 30
0.0
 10
164.176277
 20
-382.427507
 30
0.0
 10
164.130277
 20
-382.923512
 30
0.0
 10
163.993977
 20
-383.402500
 30
0.0
 10
163.771877
 20
-383.848496
 30
0.0
 10
163.471577
 20
-384.246514
 30
0.0
 10
163.103377
 20
-384.582499
 30
0.0
 10
162.679777
 20
-384.844514
 30
0.0
 10
162.215177
 20
-385.024516
 30
0.0
 10
161.725377
 20
-385.115504
 30
0.0
 10
161.227177
 20
-385.115504
 30
0.0
  0
LWPOLYLINE
  5
177
100
AcDbEntity
  8
Layer_1
 62
7
100
AcDbPolyline
 90
3
 70
0
 10
45.920462
 20
-183.156599
 30
0.0
 10
45.920462
 20
-188.031621
 30
0.0
 10
44.295455
 20
-189.656600
 30
0.0
  0
LWPOLYLINE
  5
178
100
AcDbEntity
  8
Layer_1
 62
7
100
AcDbPolyline
 90
18
 70
0
 10
32.545443
 20
-189.656600
 30
0.0
 10
30.920464
 20
-188.031621
 30
0.0
 10
30.920464
 20
-183.156599
 30
0.0
 10
25.820454
 20
-183.156599
 30
0.0
 10
25.820454
 20
-176.256604
 30
0.0
 10
27.370447
 20
-176.256604
 30
0.0
 10
27.370447
 20
-170.556619
 30
0.0
 10
25.820454
 20
-170.556619
 30
0.0
 10
25.820454
 20
-163.656624
 30
0.0
 10
21.020447
 20
-163.656624
 30
0.0
 10
21.020447
 20
-170.556619
 30
0.0
 10
19.470454
 20
-170.556619
 30
0.0
 10
19.470454
 20
-176.256604
 30
0.0
 10
21.020447
 20
-176.256604
 30
0.0
 10
21.020447
 20
-183.156599
 30
0.0
 10
15.920465
 20
-183.156599
 30
0.0
 10
15.920465
 20
-188.031621
 30
0.0
 10
14.295458
 20
-189.656600
 30
0.0
  0
LWPOLYLINE
  5
179
100
AcDbEntity
  8
Layer_1
 62
7
100
AcDbPolyline
 90
35
 70
0
 10
2.545446
 20
-189.656600
 30
0.0
 10
0.920467
 20
-188.031621
 30
0.0
 10
0.920467
 20
-183.156599
 30
0.0
 10
-51.579527
 20
-183.156599
 30
0.0
 10
-51.579527
 20
-188.031621
 30
0.0
 10
-53.204534
 20
-189.656600
 30
0.0
 10
-59.954527
 20
-189.656600
 30
0.0
 10
-61.579535
 20
-188.031621
 30
0.0
 10
-61.579535
 20
-183.156599
 30
0.0
 10
-76.579533
 20
-183.156599
 30
0.0
 10
-76.579533
 20
-105.656599
 30
0.0
 10
-81.454555
 20
-105.656599
 30
0.0
 10
-83.079534
 20
-104.031620
 30
0.0
 10
-83.079534
 20
-92.281608
 30
0.0
 10
-81.454555
 20
-90.656601
 30
0.0
 10
-76.579533
 20
-90.656601
 30
0.0
 10
-76.579533
 20
-85.556619
 30
0.0
 10
-69.679538
 20
-85.556619
 30
0.0
 10
-69.679538
 20
-87.106612
 30
0.0
 10
-63.979553
 20
-87.106612
 30
0.0
 10
-63.979553
 20
-85.556619
 30
0.0
 10
-57.079530
 20
-85.556619
 30
0.0
 10
-57.079530
 20
-80.756612
 30
0.0
 10
-63.979553
 20
-80.756612
 30
0.0
 10
-63.979553
 20
-79.206619
 30
0.0
 10
-69.679538
 20
-79.206619
 30
0.0
 10
-69.679538
 20
-80.756612
 30
0.0
 10
-76.579533
 20
-80.756612
 30
0.0
 10
-76.579533
 20
-75.656602
 30
0.0
 10
-81.454555
 20
-75.656602
 30
0.0
 10
-83.079534
 20
-74.031595
 30
0.0
 10
-83.079534
 20
-62.281611
 30
0.0
 10
-81.454555
 20
-60.656604
 30
0.0
 10
-76.579533
 20
-60.656604
 30
0.0
 10
-76.579533
 20
13.394099
 30
0.0
  0
LWPOLYLINE
  5
17a
100
AcDbEntity
  8
Layer_1
 62
7
100
AcDbPolyline
 90
2
 70
0
 10
119.971170
 20
-183.156599
 30
0.0
 10
45.920462
 20
-183.156599
 30
0.0
  0
LWPOLYLINE
  5
17b
100
AcDbEntity
  8
Layer_1
 62
7
100
AcDbPolyline
 90
7
 70
0
 10
-70.529535
 20
-170.156597
 30
0.0
 10
-74.529527
 20
-166.156605
 30
0.0
 10
-74.629547
 20
-166.156605
 30
0.0
 10
-74.629547
 20
-180.156605
 30
0.0
 10
-74.529527
 20
-180.156605
 30
0.0
 10
-70.529535
 20
-176.156613
 30
0.0
 10
-70.529535
 20
-170.156597
 30
0.0
  0
LWPOLYLINE
  5
17c
100
AcDbEntity
  8
Layer_1
 62
7
100
AcDbPolyline
 90
7
 70
0
 10
-59.579539
 20
-165.106597
 30
0.0
 10
-73.579539
 20
-165.106597
 30
0.0
 10
-73.579539
 20
-165.206617
 30
0.0
 10
-69.579547
 20
-169.206609
 30
0.0
 10
-63.579531
 20
-169.206609
 30
0.0
 10
-59.579539
 20
-165.206617
 30
0.0
 10
-59.579539
 20
-165.106597
 30
0.0
  0
LWPOLYLINE
  5
17d
100
AcDbEntity
  8
Layer_1
 62
7
100
AcDbPolyline
 90
7
 70
0
 10
-59.579539
 20
-181.106621
 30
0.0
 10
-63.579531
 20
-177.106601
 30
0.0
 10
-69.579547
 20
-177.106601
 30
0.0
 10
-73.579539
 20
-181.106621
 30
0.0
 10
-73.579539
 20
-181.206613
 30
0.0
 10
-59.579539
 20
-181.206613
 30
0.0
 10
-59.579539
 20
-181.106621
 30
0.0
  0
LWPOLYLINE
  5
17e
100
AcDbEntity
  8
Layer_1
 62
7
100
AcDbPolyline
 90
35
 70
0
 10
-63.891556
 20
-172.907614
 30
0.0
 10
-63.982544
 20
-172.417620
 30
0.0
 10
-64.162545
 20
-171.953619
 30
0.0
 10
-64.424532
 20
-171.529608
 30
0.0
 10
-64.760546
 20
-171.161618
 30
0.0
 10
-65.158536
 20
-170.860600
 30
0.0
 10
-65.604532
 20
-170.638604
 30
0.0
 10
-66.083547
 20
-170.502601
 30
0.0
 10
-66.579553
 20
-170.456599
 30
0.0
 10
-67.075530
 20
-170.502601
 30
0.0
 10
-67.554546
 20
-170.638604
 30
0.0
 10
-68.000542
 20
-170.860600
 30
0.0
 10
-68.398532
 20
-171.161618
 30
0.0
 10
-68.734545
 20
-171.529608
 30
0.0
 10
-68.996532
 20
-171.953619
 30
0.0
 10
-69.176534
 20
-172.417620
 30
0.0
 10
-69.267550
 20
-172.907614
 30
0.0
 10
-69.267550
 20
-173.405624
 30
0.0
 10
-69.176534
 20
-173.895618
 30
0.0
 10
-68.996532
 20
-174.359619
 30
0.0
 10
-68.734545
 20
-174.783602
 30
0.0
 10
-68.398532
 20
-175.151620
 30
0.0
 10
-68.000542
 20
-175.452610
 30
0.0
 10
-67.554546
 20
-175.674606
 30
0.0
 10
-67.075530
 20
-175.810609
 30
0.0
 10
-66.579553
 20
-175.856611
 30
0.0
 10
-66.083547
 20
-175.810609
 30
0.0
 10
-65.604532
 20
-175.674606
 30
0.0
 10
-65.158536
 20
-175.452610
 30
0.0
 10
-64.760546
 20
-175.151620
 30
0.0
 10
-64.424532
 20
-174.783602
 30
0.0
 10
-64.162545
 20
-174.359619
 30
0.0
 10
-63.982544
 20
-173.895618
 30
0.0
 10
-63.891556
 20
-173.405624
 30
0.0
 10
-63.891556
 20
-172.907614
 30
0.0
  0
LWPOLYLINE
  5
17f
100
AcDbEntity
  8
Layer_1
 62
7
100
AcDbPolyline
 90
7
 70
0
 10
-39.579551
 20
-165.106597
 30
0.0
 10
-53.579551
 20
-165.106597
 30
0.0
 10
-53.579551
 20
-165.206617
 30
0.0
 10
-49.579531
 20
-169.206609
 30
0.0
 10
-43.579543
 20
-169.206609
 30
0.0
 10
-39.579551
 20
-165.206617
 30
0.0
 10
-39.579551
 20
-165.106597
 30
0.0
  0
LWPOLYLINE
  5
180
100
AcDbEntity
  8
Layer_1
 62
7
100
AcDbPolyline
 90
7
 70
0
 10
-39.579551
 20
-181.106621
 30
0.0
 10
-43.579543
 20
-177.106601
 30
0.0
 10
-49.579531
 20
-177.106601
 30
0.0
 10
-53.579551
 20
-181.106621
 30
0.0
 10
-53.579551
 20
-181.206613
 30
0.0
 10
-39.579551
 20
-181.206613
 30
0.0
 10
-39.579551
 20
-181.106621
 30
0.0
  0
LWPOLYLINE
  5
181
100
AcDbEntity
  8
Layer_1
 62
7
100
AcDbPolyline
 90
5
 70
0
 10
-47.777542
 20
-20.074917
 30
0.0
 10
-52.302552
 20
-24.600407
 30
0.0
 10
-25.503548
 20
-51.399602
 30
0.0
 10
-20.978538
 20
-46.874621
 30
0.0
 10
-47.777542
 20
-20.074917
 30
0.0
  0
LWPOLYLINE
  5
182
100
AcDbEntity
  8
Layer_1
 62
7
100
AcDbPolyline
 90
35
 70
0
 10
-43.891539
 20
-172.907614
 30
0.0
 10
-43.982528
 20
-172.417620
 30
0.0
 10
-44.162529
 20
-171.953619
 30
0.0
 10
-44.424544
 20
-171.529608
 30
0.0
 10
-44.760530
 20
-171.161618
 30
0.0
 10
-45.158548
 20
-170.860600
 30
0.0
 10
-45.604543
 20
-170.638604
 30
0.0
 10
-46.083531
 20
-170.502601
 30
0.0
 10
-46.579537
 20
-170.456599
 30
0.0
 10
-47.075542
 20
-170.502601
 30
0.0
 10
-47.554530
 20
-170.638604
 30
0.0
 10
-48.000554
 20
-170.860600
 30
0.0
 10
-48.398543
 20
-171.161618
 30
0.0
 10
-48.734557
 20
-171.529608
 30
0.0
 10
-48.996544
 20
-171.953619
 30
0.0
 10
-49.176545
 20
-172.417620
 30
0.0
 10
-49.267534
 20
-172.907614
 30
0.0
 10
-49.267534
 20
-173.405624
 30
0.0
 10
-49.176545
 20
-173.895618
 30
0.0
 10
-48.996544
 20
-174.359619
 30
0.0
 10
-48.734557
 20
-174.783602
 30
0.0
 10
-48.398543
 20
-175.151620
 30
0.0
 10
-48.000554
 20
-175.452610
 30
0.0
 10
-47.554530
 20
-175.674606
 30
0.0
 10
-47.075542
 20
-175.810609
 30
0.0
 10
-46.579537
 20
-175.856611
 30
0.0
 10
-46.083531
 20
-175.810609
 30
0.0
 10
-45.604543
 20
-175.674606
 30
0.0
 10
-45.158548
 20
-175.452610
 30
0.0
 10
-44.760530
 20
-175.151620
 30
0.0
 10
-44.424544
 20
-174.783602
 30
0.0
 10
-44.162529
 20
-174.359619
 30
0.0
 10
-43.982528
 20
-173.895618
 30
0.0
 10
-43.891539
 20
-173.405624
 30
0.0
 10
-43.891539
 20
-172.907614
 30
0.0
  0
LWPOLYLINE
  5
183
100
AcDbEntity
  8
Layer_1
 62
7
100
AcDbPolyline
 90
7
 70
0
 10
-38.529543
 20
-166.156605
 30
0.0
 10
-38.629534
 20
-166.156605
 30
0.0
 10
-42.629554
 20
-170.156597
 30
0.0
 10
-42.629554
 20
-176.156613
 30
0.0
 10
-38.629534
 20
-180.156605
 30
0.0
 10
-38.529543
 20
-180.156605
 30
0.0
 10
-38.529543
 20
-166.156605
 30
0.0
  0
LWPOLYLINE
  5
184
100
AcDbEntity
  8
Layer_1
 62
7
100
AcDbPolyline
 90
5
 70
0
 10
5.962452
 20
-73.814594
 30
0.0
 10
1.437470
 20
-78.340620
 30
0.0
 10
28.236446
 20
-105.139624
 30
0.0
 10
32.762443
 20
-100.614614
 30
0.0
 10
5.962452
 20
-73.814594
 30
0.0
  0
LWPOLYLINE
  5
185
100
AcDbEntity
  8
Layer_1
 62
7
100
AcDbPolyline
 90
5
 70
0
 10
59.702445
 20
-127.555604
 30
0.0
 10
55.177464
 20
-132.080614
 30
0.0
 10
81.976665
 20
-158.879618
 30
0.0
 10
86.502155
 20
-154.354608
 30
0.0
 10
59.702445
 20
-127.555604
 30
0.0
  0
LWPOLYLINE
  5
186
100
AcDbEntity
  8
Layer_1
 62
7
100
AcDbPolyline
 90
17
 70
0
 10
124.849381
 20
-79.111911
 30
0.0
 10
119.974359
 20
-79.111911
 30
0.0
 10
119.974359
 20
-84.211892
 30
0.0
 10
113.074365
 20
-84.211892
 30
0.0
 10
113.074365
 20
-82.661900
 30
0.0
 10
107.374379
 20
-82.661900
 30
0.0
 10
107.374379
 20
-84.211892
 30
0.0
 10
100.474384
 20
-84.211892
 30
0.0
 10
100.474384
 20
-89.011900
 30
0.0
 10
107.374379
 20
-89.011900
 30
0.0
 10
107.374379
 20
-90.561892
 30
0.0
 10
113.074365
 20
-90.561892
 30
0.0
 10
113.074365
 20
-89.011900
 30
0.0
 10
119.974359
 20
-89.011900
 30
0.0
 10
119.974359
 20
-94.111909
 30
0.0
 10
124.849381
 20
-94.111909
 30
0.0
 10
126.474361
 20
-95.736917
 30
0.0
  0
LWPOLYLINE
  5
187
100
AcDbEntity
  8
Layer_1
 62
7
100
AcDbPolyline
 90
33
 70
0
 10
126.474361
 20
-107.486900
 30
0.0
 10
124.849381
 20
-109.111908
 30
0.0
 10
119.974359
 20
-109.111908
 30
0.0
 10
119.974359
 20
-183.162616
 30
0.0
 10
-76.576316
 20
13.388087
 30
0.0
 10
-2.525635
 20
13.388087
 30
0.0
 10
-2.525635
 20
18.263109
 30
0.0
 10
-0.900628
 20
19.888088
 30
0.0
 10
10.849384
 20
19.888088
 30
0.0
 10
12.474363
 20
18.263109
 30
0.0
 10
12.474363
 20
13.388087
 30
0.0
 10
17.574372
 20
13.388087
 30
0.0
 10
17.574372
 20
6.488093
 30
0.0
 10
16.024380
 20
6.488093
 30
0.0
 10
16.024380
 20
0.788107
 30
0.0
 10
17.574372
 20
0.788107
 30
0.0
 10
17.574372
 20
-6.111888
 30
0.0
 10
22.374380
 20
-6.111888
 30
0.0
 10
22.374380
 20
0.788107
 30
0.0
 10
23.924372
 20
0.788107
 30
0.0
 10
23.924372
 20
6.488093
 30
0.0
 10
22.374380
 20
6.488093
 30
0.0
 10
22.374380
 20
13.388087
 30
0.0
 10
27.474361
 20
13.388087
 30
0.0
 10
27.474361
 20
18.263109
 30
0.0
 10
29.099368
 20
19.888088
 30
0.0
 10
40.849380
 20
19.888088
 30
0.0
 10
42.474359
 20
18.263109
 30
0.0
 10
42.474359
 20
13.388087
 30
0.0
 10
119.974359
 20
13.388087
 30
0.0
 10
119.974359
 20
-64.111913
 30
0.0
 10
124.849381
 20
-64.111913
 30
0.0
 10
126.474361
 20
-65.736892
 30
0.0
  0
LWPOLYLINE
  5
188
100
AcDbEntity
  8
Layer_1
 62
7
100
AcDbPolyline
 90
2
 70
0
 10
126.474361
 20
-77.486904
 30
0.0
 10
124.849381
 20
-79.111911
 30
0.0
  0
LWPOLYLINE
  5
189
100
AcDbEntity
  8
Layer_1
 62
7
100
AcDbPolyline
 90
5
 70
0
 10
-38.581839
 20
-10.888894
 30
0.0
 10
-43.107328
 20
-15.413904
 30
0.0
 10
-16.307619
 20
-42.212908
 30
0.0
 10
-11.782637
 20
-37.687898
 30
0.0
 10
-38.581839
 20
-10.888894
 30
0.0
  0
LWPOLYLINE
  5
18a
100
AcDbEntity
  8
Layer_1
 62
7
100
AcDbPolyline
 90
5
 70
0
 10
15.158381
 20
-64.628888
 30
0.0
 10
10.632383
 20
-69.153898
 30
0.0
 10
37.432375
 20
-95.953889
 30
0.0
 10
41.957385
 20
-91.427891
 30
0.0
 10
15.158381
 20
-64.628888
 30
0.0
  0
LWPOLYLINE
  5
18b
100
AcDbEntity
  8
Layer_1
 62
7
100
AcDbPolyline
 90
5
 70
0
 10
68.898374
 20
-118.368909
 30
0.0
 10
64.373364
 20
-122.893891
 30
0.0
 10
91.172368
 20
-149.693600
 30
0.0
 10
95.697378
 20
-145.168111
 30
0.0
 10
68.898374
 20
-118.368909
 30
0.0
  0
LWPOLYLINE
  5
18c
100
AcDbEntity
  8
Layer_1
 62
7
100
AcDbPolyline
 90
7
 70
0
 10
86.024381
 20
6.388101
 30
0.0
 10
82.024361
 20
10.388093
 30
0.0
 10
81.924369
 20
10.388093
 30
0.0
 10
81.924369
 20
-3.611907
 30
0.0
 10
82.024361
 20
-3.611907
 30
0.0
 10
86.024381
 20
0.388085
 30
0.0
 10
86.024381
 20
6.388101
 30
0.0
  0
LWPOLYLINE
  5
18d
100
AcDbEntity
  8
Layer_1
 62
7
100
AcDbPolyline
 90
7
 70
0
 10
96.974377
 20
-4.561895
 30
0.0
 10
92.974385
 20
-0.561903
 30
0.0
 10
86.974369
 20
-0.561903
 30
0.0
 10
82.974377
 20
-4.561895
 30
0.0
 10
82.974377
 20
-4.661915
 30
0.0
 10
96.974377
 20
-4.661915
 30
0.0
 10
96.974377
 20
-4.561895
 30
0.0
  0
LWPOLYLINE
  5
18e
100
AcDbEntity
  8
Layer_1
 62
7
100
AcDbPolyline
 90
7
 70
0
 10
96.974377
 20
11.438101
 30
0.0
 10
82.974377
 20
11.438101
 30
0.0
 10
82.974377
 20
11.338110
 30
0.0
 10
86.974369
 20
7.338090
 30
0.0
 10
92.974385
 20
7.338090
 30
0.0
 10
96.974377
 20
11.338110
 30
0.0
 10
96.974377
 20
11.438101
 30
0.0
  0
LWPOLYLINE
  5
18f
100
AcDbEntity
  8
Layer_1
 62
7
100
AcDbPolyline
 90
35
 70
0
 10
92.662360
 20
3.637112
 30
0.0
 10
92.571372
 20
4.127106
 30
0.0
 10
92.391371
 20
4.591108
 30
0.0
 10
92.129384
 20
5.015090
 30
0.0
 10
91.793370
 20
5.383108
 30
0.0
 10
91.395380
 20
5.684098
 30
0.0
 10
90.949384
 20
5.906094
 30
0.0
 10
90.470369
 20
6.042097
 30
0.0
 10
89.974363
 20
6.088099
 30
0.0
 10
89.478357
 20
6.042097
 30
0.0
 10
88.999370
 20
5.906094
 30
0.0
 10
88.553374
 20
5.684098
 30
0.0
 10
88.155384
 20
5.383108
 30
0.0
 10
87.819371
 20
5.015090
 30
0.0
 10
87.557384
 20
4.591108
 30
0.0
 10
87.377382
 20
4.127106
 30
0.0
 10
87.286366
 20
3.637112
 30
0.0
 10
87.286366
 20
3.139103
 30
0.0
 10
87.377382
 20
2.649108
 30
0.0
 10
87.557384
 20
2.185107
 30
0.0
 10
87.819371
 20
1.761096
 30
0.0
 10
88.155384
 20
1.393107
 30
0.0
 10
88.553374
 20
1.092088
 30
0.0
 10
88.999370
 20
0.870092
 30
0.0
 10
89.478357
 20
0.734090
 30
0.0
 10
89.974363
 20
0.688087
 30
0.0
 10
90.470369
 20
0.734090
 30
0.0
 10
90.949384
 20
0.870092
 30
0.0
 10
91.395380
 20
1.092088
 30
0.0
 10
91.793370
 20
1.393107
 30
0.0
 10
92.129384
 20
1.761096
 30
0.0
 10
92.391371
 20
2.185107
 30
0.0
 10
92.571372
 20
2.649108
 30
0.0
 10
92.662360
 20
3.139103
 30
0.0
 10
92.662360
 20
3.637112
 30
0.0
  0
LWPOLYLINE
  5
190
100
AcDbEntity
  8
Layer_1
 62
7
100
AcDbPolyline
 90
7
 70
0
 10
116.974365
 20
11.438101
 30
0.0
 10
102.974365
 20
11.438101
 30
0.0
 10
102.974365
 20
11.338110
 30
0.0
 10
106.974357
 20
7.338090
 30
0.0
 10
112.974373
 20
7.338090
 30
0.0
 10
116.974365
 20
11.338110
 30
0.0
 10
116.974365
 20
11.438101
 30
0.0
  0
LWPOLYLINE
  5
191
100
AcDbEntity
  8
Layer_1
 62
7
100
AcDbPolyline
 90
7
 70
0
 10
116.974365
 20
-4.561895
 30
0.0
 10
112.974373
 20
-0.561903
 30
0.0
 10
106.974357
 20
-0.561903
 30
0.0
 10
102.974365
 20
-4.561895
 30
0.0
 10
102.974365
 20
-4.661915
 30
0.0
 10
116.974365
 20
-4.661915
 30
0.0
 10
116.974365
 20
-4.561895
 30
0.0
  0
LWPOLYLINE
  5
192
100
AcDbEntity
  8
Layer_1
 62
7
100
AcDbPolyline
 90
35
 70
0
 10
112.662377
 20
3.637112
 30
0.0
 10
112.571360
 20
4.127106
 30
0.0
 10
112.391359
 20
4.591108
 30
0.0
 10
112.129372
 20
5.015090
 30
0.0
 10
111.793358
 20
5.383108
 30
0.0
 10
111.395368
 20
5.684098
 30
0.0
 10
110.949373
 20
5.906094
 30
0.0
 10
110.470385
 20
6.042097
 30
0.0
 10
109.974379
 20
6.088099
 30
0.0
 10
109.478374
 20
6.042097
 30
0.0
 10
108.999358
 20
5.906094
 30
0.0
 10
108.553362
 20
5.684098
 30
0.0
 10
108.155373
 20
5.383108
 30
0.0
 10
107.819359
 20
5.015090
 30
0.0
 10
107.557372
 20
4.591108
 30
0.0
 10
107.377371
 20
4.127106
 30
0.0
 10
107.286382
 20
3.637112
 30
0.0
 10
107.286382
 20
3.139103
 30
0.0
 10
107.377371
 20
2.649108
 30
0.0
 10
107.557372
 20
2.185107
 30
0.0
 10
107.819359
 20
1.761096
 30
0.0
 10
108.155373
 20
1.393107
 30
0.0
 10
108.553362
 20
1.092088
 30
0.0
 10
108.999358
 20
0.870092
 30
0.0
 10
109.478374
 20
0.734090
 30
0.0
 10
109.974379
 20
0.688087
 30
0.0
 10
110.470385
 20
0.734090
 30
0.0
 10
110.949373
 20
0.870092
 30
0.0
 10
111.395368
 20
1.092088
 30
0.0
 10
111.793358
 20
1.393107
 30
0.0
 10
112.129372
 20
1.761096
 30
0.0
 10
112.391359
 20
2.185107
 30
0.0
 10
112.571360
 20
2.649108
 30
0.0
 10
112.662377
 20
3.139103
 30
0.0
 10
112.662377
 20
3.637112
 30
0.0
  0
LWPOLYLINE
  5
193
100
AcDbEntity
  8
Layer_1
 62
7
100
AcDbPolyline
 90
7
 70
0
 10
118.024373
 20
10.388093
 30
0.0
 10
117.924382
 20
10.388093
 30
0.0
 10
113.924362
 20
6.388101
 30
0.0
 10
113.924362
 20
0.388085
 30
0.0
 10
117.924382
 20
-3.611907
 30
0.0
 10
118.024373
 20
-3.611907
 30
0.0
 10
118.024373
 20
10.388093
 30
0.0
  0
LWPOLYLINE
  5
194
100
AcDbEntity
  8
Layer_1
 62
7
100
AcDbPolyline
 90
51
 70
0
 10
-76.574284
 20
-392.695705
 30
0.0
 10
-76.574284
 20
-318.644997
 30
0.0
 10
-81.449306
 20
-318.644997
 30
0.0
 10
-83.074285
 20
-317.019989
 30
0.0
 10
-83.074285
 20
-305.270006
 30
0.0
 10
-81.449306
 20
-303.644999
 30
0.0
 10
-76.574284
 20
-303.644999
 30
0.0
 10
-76.574284
 20
-298.544989
 30
0.0
 10
-69.674289
 20
-298.544989
 30
0.0
 10
-69.674289
 20
-300.094982
 30
0.0
 10
-63.974303
 20
-300.094982
 30
0.0
 10
-63.974303
 20
-298.544989
 30
0.0
 10
-57.074280
 20
-298.544989
 30
0.0
 10
-57.074280
 20
-293.744982
 30
0.0
 10
-63.974303
 20
-293.744982
 30
0.0
 10
-63.974303
 20
-292.194989
 30
0.0
 10
-69.674289
 20
-292.194989
 30
0.0
 10
-69.674289
 20
-293.744982
 30
0.0
 10
-76.574284
 20
-293.744982
 30
0.0
 10
-76.574284
 20
-288.645000
 30
0.0
 10
-81.449306
 20
-288.645000
 30
0.0
 10
-83.074285
 20
-287.019993
 30
0.0
 10
-83.074285
 20
-275.269981
 30
0.0
 10
-81.449306
 20
-273.645002
 30
0.0
 10
-76.574284
 20
-273.645002
 30
0.0
 10
-76.574284
 20
-196.145002
 30
0.0
 10
0.925717
 20
-196.145002
 30
0.0
 10
0.925717
 20
-191.269980
 30
0.0
 10
2.550696
 20
-189.645001
 30
0.0
 10
14.300707
 20
-189.645001
 30
0.0
 10
15.925715
 20
-191.269980
 30
0.0
 10
15.925715
 20
-196.145002
 30
0.0
 10
21.025696
 20
-196.145002
 30
0.0
 10
21.025696
 20
-203.044997
 30
0.0
 10
19.475703
 20
-203.044997
 30
0.0
 10
19.475703
 20
-208.744982
 30
0.0
 10
21.025696
 20
-208.744982
 30
0.0
 10
21.025696
 20
-215.644977
 30
0.0
 10
25.825703
 20
-215.644977
 30
0.0
 10
25.825703
 20
-208.744982
 30
0.0
 10
27.375696
 20
-208.744982
 30
0.0
 10
27.375696
 20
-203.044997
 30
0.0
 10
25.825703
 20
-203.044997
 30
0.0
 10
25.825703
 20
-196.145002
 30
0.0
 10
30.925713
 20
-196.145002
 30
0.0
 10
30.925713
 20
-191.269980
 30
0.0
 10
32.550692
 20
-189.645001
 30
0.0
 10
44.300704
 20
-189.645001
 30
0.0
 10
45.925711
 20
-191.269980
 30
0.0
 10
45.925711
 20
-196.145002
 30
0.0
 10
119.976420
 20
-196.145002
 30
0.0
  0
LWPOLYLINE
  5
195
100
AcDbEntity
  8
Layer_1
 62
7
100
AcDbPolyline
 90
7
 70
0
 10
-70.524286
 20
-203.144988
 30
0.0
 10
-74.524278
 20
-199.144996
 30
0.0
 10
-74.624297
 20
-199.144996
 30
0.0
 10
-74.624297
 20
-213.144996
 30
0.0
 10
-74.524278
 20
-213.144996
 30
0.0
 10
-70.524286
 20
-209.145004
 30
0.0
 10
-70.524286
 20
-203.144988
 30
0.0
  0
LWPOLYLINE
  5
196
100
AcDbEntity
  8
Layer_1
 62
7
100
AcDbPolyline
 90
7
 70
0
 10
-59.574289
 20
-198.094988
 30
0.0
 10
-73.574290
 20
-198.094988
 30
0.0
 10
-73.574290
 20
-198.194979
 30
0.0
 10
-69.574298
 20
-202.195000
 30
0.0
 10
-63.574281
 20
-202.195000
 30
0.0
 10
-59.574289
 20
-198.194979
 30
0.0
 10
-59.574289
 20
-198.094988
 30
0.0
  0
LWPOLYLINE
  5
197
100
AcDbEntity
  8
Layer_1
 62
7
100
AcDbPolyline
 90
7
 70
0
 10
-59.574289
 20
-214.094984
 30
0.0
 10
-63.574281
 20
-210.094992
 30
0.0
 10
-69.574298
 20
-210.094992
 30
0.0
 10
-73.574290
 20
-214.094984
 30
0.0
 10
-73.574290
 20
-214.195004
 30
0.0
 10
-59.574289
 20
-214.195004
 30
0.0
 10
-59.574289
 20
-214.094984
 30
0.0
  0
LWPOLYLINE
  5
198
100
AcDbEntity
  8
Layer_1
 62
7
100
AcDbPolyline
 90
35
 70
0
 10
-63.886306
 20
-205.895977
 30
0.0
 10
-63.977295
 20
-205.405983
 30
0.0
 10
-64.157296
 20
-204.941981
 30
0.0
 10
-64.419283
 20
-204.517999
 30
0.0
 10
-64.755297
 20
-204.149981
 30
0.0
 10
-65.153287
 20
-203.848991
 30
0.0
 10
-65.599282
 20
-203.626995
 30
0.0
 10
-66.078298
 20
-203.490992
 30
0.0
 10
-66.574304
 20
-203.444990
 30
0.0
 10
-67.070281
 20
-203.490992
 30
0.0
 10
-67.549297
 20
-203.626995
 30
0.0
 10
-67.995293
 20
-203.848991
 30
0.0
 10
-68.393282
 20
-204.149981
 30
0.0
 10
-68.729296
 20
-204.517999
 30
0.0
 10
-68.991283
 20
-204.941981
 30
0.0
 10
-69.171284
 20
-205.405983
 30
0.0
 10
-69.262301
 20
-205.895977
 30
0.0
 10
-69.262301
 20
-206.393987
 30
0.0
 10
-69.171284
 20
-206.883981
 30
0.0
 10
-68.991283
 20
-207.347982
 30
0.0
 10
-68.729296
 20
-207.771993
 30
0.0
 10
-68.393282
 20
-208.139983
 30
0.0
 10
-67.995293
 20
-208.441001
 30
0.0
 10
-67.549297
 20
-208.662997
 30
0.0
 10
-67.070281
 20
-208.799000
 30
0.0
 10
-66.574304
 20
-208.845002
 30
0.0
 10
-66.078298
 20
-208.799000
 30
0.0
 10
-65.599282
 20
-208.662997
 30
0.0
 10
-65.153287
 20
-208.441001
 30
0.0
 10
-64.755297
 20
-208.139983
 30
0.0
 10
-64.419283
 20
-207.771993
 30
0.0
 10
-64.157296
 20
-207.347982
 30
0.0
 10
-63.977295
 20
-206.883981
 30
0.0
 10
-63.886306
 20
-206.393987
 30
0.0
 10
-63.886306
 20
-205.895977
 30
0.0
  0
LWPOLYLINE
  5
199
100
AcDbEntity
  8
Layer_1
 62
7
100
AcDbPolyline
 90
7
 70
0
 10
-39.574301
 20
-198.094988
 30
0.0
 10
-53.574301
 20
-198.094988
 30
0.0
 10
-53.574301
 20
-198.194979
 30
0.0
 10
-49.574281
 20
-202.195000
 30
0.0
 10
-43.574293
 20
-202.195000
 30
0.0
 10
-39.574301
 20
-198.194979
 30
0.0
 10
-39.574301
 20
-198.094988
 30
0.0
  0
LWPOLYLINE
  5
19a
100
AcDbEntity
  8
Layer_1
 62
7
100
AcDbPolyline
 90
7
 70
0
 10
-39.574301
 20
-214.094984
 30
0.0
 10
-43.574293
 20
-210.094992
 30
0.0
 10
-49.574281
 20
-210.094992
 30
0.0
 10
-53.574301
 20
-214.094984
 30
0.0
 10
-53.574301
 20
-214.195004
 30
0.0
 10
-39.574301
 20
-214.195004
 30
0.0
 10
-39.574301
 20
-214.094984
 30
0.0
  0
LWPOLYLINE
  5
19b
100
AcDbEntity
  8
Layer_1
 62
7
100
AcDbPolyline
 90
5
 70
0
 10
-25.498299
 20
-327.901999
 30
0.0
 10
-52.297302
 20
-354.701200
 30
0.0
 10
-47.772292
 20
-359.226690
 30
0.0
 10
-20.973289
 20
-332.426980
 30
0.0
 10
-25.498299
 20
-327.901999
 30
0.0
  0
LWPOLYLINE
  5
19c
100
AcDbEntity
  8
Layer_1
 62
7
100
AcDbPolyline
 90
35
 70
0
 10
-43.886290
 20
-205.895977
 30
0.0
 10
-43.977278
 20
-205.405983
 30
0.0
 10
-44.157280
 20
-204.941981
 30
0.0
 10
-44.419295
 20
-204.517999
 30
0.0
 10
-44.755280
 20
-204.149981
 30
0.0
 10
-45.153298
 20
-203.848991
 30
0.0
 10
-45.599294
 20
-203.626995
 30
0.0
 10
-46.078282
 20
-203.490992
 30
0.0
 10
-46.574287
 20
-203.444990
 30
0.0
 10
-47.070293
 20
-203.490992
 30
0.0
 10
-47.549280
 20
-203.626995
 30
0.0
 10
-47.995304
 20
-203.848991
 30
0.0
 10
-48.393294
 20
-204.149981
 30
0.0
 10
-48.729308
 20
-204.517999
 30
0.0
 10
-48.991295
 20
-204.941981
 30
0.0
 10
-49.171296
 20
-205.405983
 30
0.0
 10
-49.262285
 20
-205.895977
 30
0.0
 10
-49.262285
 20
-206.393987
 30
0.0
 10
-49.171296
 20
-206.883981
 30
0.0
 10
-48.991295
 20
-207.347982
 30
0.0
 10
-48.729308
 20
-207.771993
 30
0.0
 10
-48.393294
 20
-208.139983
 30
0.0
 10
-47.995304
 20
-208.441001
 30
0.0
 10
-47.549280
 20
-208.662997
 30
0.0
 10
-47.070293
 20
-208.799000
 30
0.0
 10
-46.574287
 20
-208.845002
 30
0.0
 10
-46.078282
 20
-208.799000
 30
0.0
 10
-45.599294
 20
-208.662997
 30
0.0
 10
-45.153298
 20
-208.441001
 30
0.0
 10
-44.755280
 20
-208.139983
 30
0.0
 10
-44.419295
 20
-207.771993
 30
0.0
 10
-44.157280
 20
-207.347982
 30
0.0
 10
-43.977278
 20
-206.883981
 30
0.0
 10
-43.886290
 20
-206.393987
 30
0.0
 10
-43.886290
 20
-205.895977
 30
0.0
  0
LWPOLYLINE
  5
19d
100
AcDbEntity
  8
Layer_1
 62
7
100
AcDbPolyline
 90
7
 70
0
 10
-38.524293
 20
-199.144996
 30
0.0
 10
-38.624285
 20
-199.144996
 30
0.0
 10
-42.624305
 20
-203.144988
 30
0.0
 10
-42.624305
 20
-209.145004
 30
0.0
 10
-38.624285
 20
-213.144996
 30
0.0
 10
-38.524293
 20
-213.144996
 30
0.0
 10
-38.524293
 20
-199.144996
 30
0.0
  0
LWPOLYLINE
  5
19e
100
AcDbEntity
  8
Layer_1
 62
7
100
AcDbPolyline
 90
5
 70
0
 10
28.241695
 20
-274.161977
 30
0.0
 10
1.442719
 20
-300.960981
 30
0.0
 10
5.967701
 20
-305.487007
 30
0.0
 10
32.767693
 20
-278.686987
 30
0.0
 10
28.241695
 20
-274.161977
 30
0.0
  0
LWPOLYLINE
  5
19f
100
AcDbEntity
  8
Layer_1
 62
7
100
AcDbPolyline
 90
5
 70
0
 10
81.981914
 20
-220.421983
 30
0.0
 10
55.182713
 20
-247.220987
 30
0.0
 10
59.707695
 20
-251.745997
 30
0.0
 10
86.507404
 20
-224.946993
 30
0.0
 10
81.981914
 20
-220.421983
 30
0.0
  0
LWPOLYLINE
  5
1a0
100
AcDbEntity
  8
Layer_1
 62
7
100
AcDbPolyline
 90
17
 70
0
 10
124.849381
 20
-285.193654
 30
0.0
 10
119.974359
 20
-285.193654
 30
0.0
 10
119.974359
 20
-290.293664
 30
0.0
 10
113.074365
 20
-290.293664
 30
0.0
 10
113.074365
 20
-288.743671
 30
0.0
 10
107.374379
 20
-288.743671
 30
0.0
 10
107.374379
 20
-290.293664
 30
0.0
 10
100.474384
 20
-290.293664
 30
0.0
 10
100.474384
 20
-295.093671
 30
0.0
 10
107.374379
 20
-295.093671
 30
0.0
 10
107.374379
 20
-296.643664
 30
0.0
 10
113.074365
 20
-296.643664
 30
0.0
 10
113.074365
 20
-295.093671
 30
0.0
 10
119.974359
 20
-295.093671
 30
0.0
 10
119.974359
 20
-300.193652
 30
0.0
 10
124.849381
 20
-300.193652
 30
0.0
 10
126.474361
 20
-301.818660
 30
0.0
  0
LWPOLYLINE
  5
1a1
100
AcDbEntity
  8
Layer_1
 62
7
100
AcDbPolyline
 90
33
 70
0
 10
126.474361
 20
-313.568671
 30
0.0
 10
124.849381
 20
-315.193650
 30
0.0
 10
119.974359
 20
-315.193650
 30
0.0
 10
119.974359
 20
-392.693651
 30
0.0
 10
42.474359
 20
-392.693651
 30
0.0
 10
42.474359
 20
-397.568673
 30
0.0
 10
40.849380
 20
-399.193652
 30
0.0
 10
29.099368
 20
-399.193652
 30
0.0
 10
27.474361
 20
-397.568673
 30
0.0
 10
27.474361
 20
-392.693651
 30
0.0
 10
22.374380
 20
-392.693651
 30
0.0
 10
22.374380
 20
-385.793656
 30
0.0
 10
23.924372
 20
-385.793656
 30
0.0
 10
23.924372
 20
-380.093670
 30
0.0
 10
22.374380
 20
-380.093670
 30
0.0
 10
22.374380
 20
-373.193676
 30
0.0
 10
17.574372
 20
-373.193676
 30
0.0
 10
17.574372
 20
-380.093670
 30
0.0
 10
16.024380
 20
-380.093670
 30
0.0
 10
16.024380
 20
-385.793656
 30
0.0
 10
17.574372
 20
-385.793656
 30
0.0
 10
17.574372
 20
-392.693651
 30
0.0
 10
12.474363
 20
-392.693651
 30
0.0
 10
12.474363
 20
-397.568673
 30
0.0
 10
10.849384
 20
-399.193652
 30
0.0
 10
-0.900628
 20
-399.193652
 30
0.0
 10
-2.525635
 20
-397.568673
 30
0.0
 10
-2.525635
 20
-392.693651
 30
0.0
 10
-76.576316
 20
-392.693651
 30
0.0
 10
119.974359
 20
-196.142947
 30
0.0
 10
119.974359
 20
-270.193656
 30
0.0
 10
124.849381
 20
-270.193656
 30
0.0
 10
126.474361
 20
-271.818663
 30
0.0
  0
LWPOLYLINE
  5
1a2
100
AcDbEntity
  8
Layer_1
 62
7
100
AcDbPolyline
 90
2
 70
0
 10
126.474361
 20
-283.568647
 30
0.0
 10
124.849381
 20
-285.193654
 30
0.0
  0
LWPOLYLINE
  5
1a3
100
AcDbEntity
  8
Layer_1
 62
7
100
AcDbPolyline
 90
5
 70
0
 10
-16.307619
 20
-337.092656
 30
0.0
 10
-43.107328
 20
-363.891659
 30
0.0
 10
-38.581839
 20
-368.416669
 30
0.0
 10
-11.782637
 20
-341.617666
 30
0.0
 10
-16.307619
 20
-337.092656
 30
0.0
  0
LWPOLYLINE
  5
1a4
100
AcDbEntity
  8
Layer_1
 62
7
100
AcDbPolyline
 90
5
 70
0
 10
37.432375
 20
-283.351646
 30
0.0
 10
10.632383
 20
-310.151666
 30
0.0
 10
15.158381
 20
-314.676676
 30
0.0
 10
41.957385
 20
-287.877672
 30
0.0
 10
37.432375
 20
-283.351646
 30
0.0
  0
LWPOLYLINE
  5
1a5
100
AcDbEntity
  8
Layer_1
 62
7
100
AcDbPolyline
 90
5
 70
0
 10
91.172368
 20
-229.611963
 30
0.0
 10
64.373364
 20
-256.411672
 30
0.0
 10
68.898374
 20
-260.936654
 30
0.0
 10
95.697378
 20
-234.137453
 30
0.0
 10
91.172368
 20
-229.611963
 30
0.0
  0
LWPOLYLINE
  5
1a6
100
AcDbEntity
  8
Layer_1
 62
7
100
AcDbPolyline
 90
7
 70
0
 10
86.024381
 20
-379.693648
 30
0.0
 10
82.024361
 20
-375.693656
 30
0.0
 10
81.924369
 20
-375.693656
 30
0.0
 10
81.924369
 20
-389.693657
 30
0.0
 10
82.024361
 20
-389.693657
 30
0.0
 10
86.024381
 20
-385.693665
 30
0.0
 10
86.024381
 20
-379.693648
 30
0.0
  0
LWPOLYLINE
  5
1a7
100
AcDbEntity
  8
Layer_1
 62
7
100
AcDbPolyline
 90
7
 70
0
 10
96.974377
 20
-374.643649
 30
0.0
 10
82.974377
 20
-374.643649
 30
0.0
 10
82.974377
 20
-374.743668
 30
0.0
 10
86.974369
 20
-378.743660
 30
0.0
 10
92.974385
 20
-378.743660
 30
0.0
 10
96.974377
 20
-374.743668
 30
0.0
 10
96.974377
 20
-374.643649
 30
0.0
  0
LWPOLYLINE
  5
1a8
100
AcDbEntity
  8
Layer_1
 62
7
100
AcDbPolyline
 90
7
 70
0
 10
96.974377
 20
-390.643673
 30
0.0
 10
92.974385
 20
-386.643653
 30
0.0
 10
86.974369
 20
-386.643653
 30
0.0
 10
82.974377
 20
-390.643673
 30
0.0
 10
82.974377
 20
-390.743664
 30
0.0
 10
96.974377
 20
-390.743664
 30
0.0
 10
96.974377
 20
-390.643673
 30
0.0
  0
LWPOLYLINE
  5
1a9
100
AcDbEntity
  8
Layer_1
 62
7
100
AcDbPolyline
 90
35
 70
0
 10
92.662360
 20
-382.444666
 30
0.0
 10
92.571372
 20
-381.954672
 30
0.0
 10
92.391371
 20
-381.490670
 30
0.0
 10
92.129384
 20
-381.066660
 30
0.0
 10
91.793370
 20
-380.698670
 30
0.0
 10
91.395380
 20
-380.397652
 30
0.0
 10
90.949384
 20
-380.175656
 30
0.0
 10
90.470369
 20
-380.039653
 30
0.0
 10
89.974363
 20
-379.993651
 30
0.0
 10
89.478357
 20
-380.039653
 30
0.0
 10
88.999370
 20
-380.175656
 30
0.0
 10
88.553374
 20
-380.397652
 30
0.0
 10
88.155384
 20
-380.698670
 30
0.0
 10
87.819371
 20
-381.066660
 30
0.0
 10
87.557384
 20
-381.490670
 30
0.0
 10
87.377382
 20
-381.954672
 30
0.0
 10
87.286366
 20
-382.444666
 30
0.0
 10
87.286366
 20
-382.942675
 30
0.0
 10
87.377382
 20
-383.432670
 30
0.0
 10
87.557384
 20
-383.896671
 30
0.0
 10
87.819371
 20
-384.320654
 30
0.0
 10
88.155384
 20
-384.688671
 30
0.0
 10
88.553374
 20
-384.989661
 30
0.0
 10
88.999370
 20
-385.211657
 30
0.0
 10
89.478357
 20
-385.347660
 30
0.0
 10
89.974363
 20
-385.393662
 30
0.0
 10
90.470369
 20
-385.347660
 30
0.0
 10
90.949384
 20
-385.211657
 30
0.0
 10
91.395380
 20
-384.989661
 30
0.0
 10
91.793370
 20
-384.688671
 30
0.0
 10
92.129384
 20
-384.320654
 30
0.0
 10
92.391371
 20
-383.896671
 30
0.0
 10
92.571372
 20
-383.432670
 30
0.0
 10
92.662360
 20
-382.942675
 30
0.0
 10
92.662360
 20
-382.444666
 30
0.0
  0
LWPOLYLINE
  5
1aa
100
AcDbEntity
  8
Layer_1
 62
7
100
AcDbPolyline
 90
7
 70
0
 10
116.974365
 20
-390.643673
 30
0.0
 10
112.974373
 20
-386.643653
 30
0.0
 10
106.974357
 20
-386.643653
 30
0.0
 10
102.974365
 20
-390.643673
 30
0.0
 10
102.974365
 20
-390.743664
 30
0.0
 10
116.974365
 20
-390.743664
 30
0.0
 10
116.974365
 20
-390.643673
 30
0.0
  0
LWPOLYLINE
  5
1ab
100
AcDbEntity
  8
Layer_1
 62
7
100
AcDbPolyline
 90
7
 70
0
 10
116.974365
 20
-374.643649
 30
0.0
 10
102.974365
 20
-374.643649
 30
0.0
 10
102.974365
 20
-374.743668
 30
0.0
 10
106.974357
 20
-378.743660
 30
0.0
 10
112.974373
 20
-378.743660
 30
0.0
 10
116.974365
 20
-374.743668
 30
0.0
 10
116.974365
 20
-374.643649
 30
0.0
  0
LWPOLYLINE
  5
1ac
100
AcDbEntity
  8
Layer_1
 62
7
100
AcDbPolyline
 90
35
 70
0
 10
112.662377
 20
-382.444666
 30
0.0
 10
112.571360
 20
-381.954672
 30
0.0
 10
112.391359
 20
-381.490670
 30
0.0
 10
112.129372
 20
-381.066660
 30
0.0
 10
111.793358
 20
-380.698670
 30
0.0
 10
111.395368
 20
-380.397652
 30
0.0
 10
110.949373
 20
-380.175656
 30
0.0
 10
110.470385
 20
-380.039653
 30
0.0
 10
109.974379
 20
-379.993651
 30
0.0
 10
109.478374
 20
-380.039653
 30
0.0
 10
108.999358
 20
-380.175656
 30
0.0
 10
108.553362
 20
-380.397652
 30
0.0
 10
108.155373
 20
-380.698670
 30
0.0
 10
107.819359
 20
-381.066660
 30
0.0
 10
107.557372
 20
-381.490670
 30
0.0
 10
107.377371
 20
-381.954672
 30
0.0
 10
107.286382
 20
-382.444666
 30
0.0
 10
107.286382
 20
-382.942675
 30
0.0
 10
107.377371
 20
-383.432670
 30
0.0
 10
107.557372
 20
-383.896671
 30
0.0
 10
107.819359
 20
-384.320654
 30
0.0
 10
108.155373
 20
-384.688671
 30
0.0
 10
108.553362
 20
-384.989661
 30
0.0
 10
108.999358
 20
-385.211657
 30
0.0
 10
109.478374
 20
-385.347660
 30
0.0
 10
109.974379
 20
-385.393662
 30
0.0
 10
110.470385
 20
-385.347660
 30
0.0
 10
110.949373
 20
-385.211657
 30
0.0
 10
111.395368
 20
-384.989661
 30
0.0
 10
111.793358
 20
-384.688671
 30
0.0
 10
112.129372
 20
-384.320654
 30
0.0
 10
112.391359
 20
-383.896671
 30
0.0
 10
112.571360
 20
-383.432670
 30
0.0
 10
112.662377
 20
-382.942675
 30
0.0
 10
112.662377
 20
-382.444666
 30
0.0
  0
LWPOLYLINE
  5
1ad
100
AcDbEntity
  8
Layer_1
 62
7
100
AcDbPolyline
 90
7
 70
0
 10
118.024373
 20
-375.693656
 30
0.0
 10
117.924382
 20
-375.693656
 30
0.0
 10
113.924362
 20
-379.693648
 30
0.0
 10
113.924362
 20
-385.693665
 30
0.0
 10
117.924382
 20
-389.693657
 30
0.0
 10
118.024373
 20
-389.693657
 30
0.0
 10
118.024373
 20
-375.693656
 30
0.0
  0
ENDSEC
  0
SECTION
  2
OBJECTS
  0
DICTIONARY
  5
C
330
0
100
AcDbDictionary
  3
ACAD_GROUP
350
D
  3
ACAD_MLINESTYLE
350
17
  0
DICTIONARY
  5
D
330
C
100
AcDbDictionary
  0
DICTIONARY
  5
1A
330
C
100
AcDbDictionary
  0
DICTIONARY
  5
17
330
C
100
AcDbDictionary
  3
STANDARD
350
18
  0
DICTIONARY
  5
19
330
C
100
AcDbDictionary
  0
ENDSEC
  0
EOF
