solid OpenSCAD_Model
  facet normal 0.866025 0.5 0
    outer loop
      vertex 5 0 10
      vertex 2.5 4.33013 -10
      vertex 2.5 4.33013 10
    endloop
  endfacet
  facet normal 0.866025 0.5 0
    outer loop
      vertex 2.5 4.33013 -10
      vertex 5 0 10
      vertex 5 0 -10
    endloop
  endfacet
  facet normal -0.866025 0.5 0
    outer loop
      vertex -5 0 -10
      vertex -2.5 4.33013 10
      vertex -2.5 4.33013 -10
    endloop
  endfacet
  facet normal -0.866025 0.5 0
    outer loop
      vertex -2.5 4.33013 10
      vertex -5 0 -10
      vertex -5 0 10
    endloop
  endfacet
  facet normal 0 1 -0
    outer loop
      vertex 2.5 4.33013 -10
      vertex -2.5 4.33013 10
      vertex 2.5 4.33013 10
    endloop
  endfacet
  facet normal 0 1 0
    outer loop
      vertex -2.5 4.33013 10
      vertex 2.5 4.33013 -10
      vertex -2.5 4.33013 -10
    endloop
  endfacet
  facet normal -0 0 1
    outer loop
      vertex 1.73205 0.999999 10
      vertex 5 0 10
      vertex 2.5 4.33013 10
    endloop
  endfacet
  facet normal 0 0 1
    outer loop
      vertex 1.96961 -0.347296 10
      vertex 5 0 10
      vertex 2 0 10
    endloop
  endfacet
  facet normal 0 0 1
    outer loop
      vertex 5 0 10
      vertex 1.96961 0.347296 10
      vertex 2 0 10
    endloop
  endfacet
  facet normal 0 0 1
    outer loop
      vertex 5 0 10
      vertex 1.87938 0.68404 10
      vertex 1.96961 0.347296 10
    endloop
  endfacet
  facet normal 0 0 1
    outer loop
      vertex 5 0 10
      vertex 1.73205 0.999999 10
      vertex 1.87938 0.68404 10
    endloop
  endfacet
  facet normal 0 0 1
    outer loop
      vertex 2.5 4.33013 10
      vertex 1.53209 1.28557 10
      vertex 1.73205 0.999999 10
    endloop
  endfacet
  facet normal 0 0 1
    outer loop
      vertex 2.5 4.33013 10
      vertex 1.28557 1.53209 10
      vertex 1.53209 1.28557 10
    endloop
  endfacet
  facet normal 0 0 1
    outer loop
      vertex 2.5 4.33013 10
      vertex 1 1.73205 10
      vertex 1.28557 1.53209 10
    endloop
  endfacet
  facet normal 0 0 1
    outer loop
      vertex 2.5 4.33013 10
      vertex 0.68404 1.87938 10
      vertex 1 1.73205 10
    endloop
  endfacet
  facet normal 0 0 1
    outer loop
      vertex 2.5 4.33013 10
      vertex 0.347296 1.96961 10
      vertex 0.68404 1.87938 10
    endloop
  endfacet
  facet normal 0 0 1
    outer loop
      vertex 2.5 4.33013 10
      vertex 0 2 10
      vertex 0.347296 1.96961 10
    endloop
  endfacet
  facet normal -0 0 1
    outer loop
      vertex -2.5 4.33013 10
      vertex 0 2 10
      vertex 2.5 4.33013 10
    endloop
  endfacet
  facet normal 0 0 1
    outer loop
      vertex 0 2 10
      vertex -2.5 4.33013 10
      vertex -0.347296 1.96961 10
    endloop
  endfacet
  facet normal 0 0 1
    outer loop
      vertex -0.347296 1.96961 10
      vertex -2.5 4.33013 10
      vertex -0.68404 1.87938 10
    endloop
  endfacet
  facet normal 0 0 1
    outer loop
      vertex -0.68404 1.87938 10
      vertex -2.5 4.33013 10
      vertex -0.999999 1.73205 10
    endloop
  endfacet
  facet normal 0 0 1
    outer loop
      vertex -1.87938 0.68404 10
      vertex -5 0 10
      vertex -1.96961 0.347296 10
    endloop
  endfacet
  facet normal 0 0 1
    outer loop
      vertex -1.73205 1 10
      vertex -5 0 10
      vertex -1.87938 0.68404 10
    endloop
  endfacet
  facet normal 0 0 1
    outer loop
      vertex -5 0 10
      vertex -1.73205 1 10
      vertex -2.5 4.33013 10
    endloop
  endfacet
  facet normal 0 0 1
    outer loop
      vertex -1.53209 1.28557 10
      vertex -2.5 4.33013 10
      vertex -1.73205 1 10
    endloop
  endfacet
  facet normal 0 0 1
    outer loop
      vertex -1.28557 1.53209 10
      vertex -2.5 4.33013 10
      vertex -1.53209 1.28557 10
    endloop
  endfacet
  facet normal 0 0 1
    outer loop
      vertex -0.999999 1.73205 10
      vertex -2.5 4.33013 10
      vertex -1.28557 1.53209 10
    endloop
  endfacet
  facet normal 0 0 1
    outer loop
      vertex 1.87938 -0.68404 10
      vertex 5 0 10
      vertex 1.96961 -0.347296 10
    endloop
  endfacet
  facet normal 0 0 1
    outer loop
      vertex 1.73205 -0.999999 10
      vertex 5 0 10
      vertex 1.87938 -0.68404 10
    endloop
  endfacet
  facet normal 0 0 1
    outer loop
      vertex 5 0 10
      vertex 1.73205 -0.999999 10
      vertex 2.5 -4.33013 10
    endloop
  endfacet
  facet normal -0 0 1
    outer loop
      vertex 1.53209 -1.28557 10
      vertex 2.5 -4.33013 10
      vertex 1.73205 -0.999999 10
    endloop
  endfacet
  facet normal -0 0 1
    outer loop
      vertex 1.28557 -1.53209 10
      vertex 2.5 -4.33013 10
      vertex 1.53209 -1.28557 10
    endloop
  endfacet
  facet normal -0 0 1
    outer loop
      vertex 0.999999 -1.73205 10
      vertex 2.5 -4.33013 10
      vertex 1.28557 -1.53209 10
    endloop
  endfacet
  facet normal -0 0 1
    outer loop
      vertex 0.68404 -1.87938 10
      vertex 2.5 -4.33013 10
      vertex 0.999999 -1.73205 10
    endloop
  endfacet
  facet normal -0 0 1
    outer loop
      vertex 0.347296 -1.96961 10
      vertex 2.5 -4.33013 10
      vertex 0.68404 -1.87938 10
    endloop
  endfacet
  facet normal -0 0 1
    outer loop
      vertex 0 -2 10
      vertex 2.5 -4.33013 10
      vertex 0.347296 -1.96961 10
    endloop
  endfacet
  facet normal 0 0 1
    outer loop
      vertex -2.5 -4.33013 10
      vertex 0 -2 10
      vertex -0.347296 -1.96961 10
    endloop
  endfacet
  facet normal 0 0 1
    outer loop
      vertex -2.5 -4.33013 10
      vertex -0.347296 -1.96961 10
      vertex -0.68404 -1.87938 10
    endloop
  endfacet
  facet normal 0 0 1
    outer loop
      vertex -2.5 -4.33013 10
      vertex -0.68404 -1.87938 10
      vertex -1 -1.73205 10
    endloop
  endfacet
  facet normal 0 0 1
    outer loop
      vertex -2.5 -4.33013 10
      vertex -1 -1.73205 10
      vertex -1.28557 -1.53209 10
    endloop
  endfacet
  facet normal 0 0 1
    outer loop
      vertex -1.96961 0.347296 10
      vertex -5 0 10
      vertex -2 0 10
    endloop
  endfacet
  facet normal 0 0 1
    outer loop
      vertex 0 -2 10
      vertex -2.5 -4.33013 10
      vertex 2.5 -4.33013 10
    endloop
  endfacet
  facet normal 0 0 1
    outer loop
      vertex -1.53209 -1.28557 10
      vertex -2.5 -4.33013 10
      vertex -1.28557 -1.53209 10
    endloop
  endfacet
  facet normal 0 0 1
    outer loop
      vertex -1.73205 -1 10
      vertex -2.5 -4.33013 10
      vertex -1.53209 -1.28557 10
    endloop
  endfacet
  facet normal 0 0 1
    outer loop
      vertex -5 0 10
      vertex -1.73205 -1 10
      vertex -1.87938 -0.68404 10
    endloop
  endfacet
  facet normal 0 0 1
    outer loop
      vertex -5 0 10
      vertex -1.87938 -0.68404 10
      vertex -1.96961 -0.347296 10
    endloop
  endfacet
  facet normal 0 0 1
    outer loop
      vertex -2 0 10
      vertex -5 0 10
      vertex -1.96961 -0.347296 10
    endloop
  endfacet
  facet normal 0 0 1
    outer loop
      vertex -1.73205 -1 10
      vertex -5 0 10
      vertex -2.5 -4.33013 10
    endloop
  endfacet
  facet normal 0.866025 -0.5 0
    outer loop
      vertex 2.5 -4.33013 10
      vertex 5 0 -10
      vertex 5 0 10
    endloop
  endfacet
  facet normal 0.866025 -0.5 0
    outer loop
      vertex 5 0 -10
      vertex 2.5 -4.33013 10
      vertex 2.5 -4.33013 -10
    endloop
  endfacet
  facet normal 0 0 -1
    outer loop
      vertex 1.73205 -0.999999 -10
      vertex 5 0 -10
      vertex 2.5 -4.33013 -10
    endloop
  endfacet
  facet normal 0 0 -1
    outer loop
      vertex 1.96961 0.347296 -10
      vertex 5 0 -10
      vertex 2 0 -10
    endloop
  endfacet
  facet normal -0 0 -1
    outer loop
      vertex 5 0 -10
      vertex 1.96961 -0.347296 -10
      vertex 2 0 -10
    endloop
  endfacet
  facet normal 0 0 -1
    outer loop
      vertex 5 0 -10
      vertex 1.87938 -0.68404 -10
      vertex 1.96961 -0.347296 -10
    endloop
  endfacet
  facet normal 0 0 -1
    outer loop
      vertex 5 0 -10
      vertex 1.73205 -0.999999 -10
      vertex 1.87938 -0.68404 -10
    endloop
  endfacet
  facet normal 0 0 -1
    outer loop
      vertex 2.5 -4.33013 -10
      vertex 1.53209 -1.28557 -10
      vertex 1.73205 -0.999999 -10
    endloop
  endfacet
  facet normal 0 0 -1
    outer loop
      vertex 2.5 -4.33013 -10
      vertex 1.28557 -1.53209 -10
      vertex 1.53209 -1.28557 -10
    endloop
  endfacet
  facet normal 0 0 -1
    outer loop
      vertex 2.5 -4.33013 -10
      vertex 0.999999 -1.73205 -10
      vertex 1.28557 -1.53209 -10
    endloop
  endfacet
  facet normal 0 0 -1
    outer loop
      vertex 2.5 -4.33013 -10
      vertex 0.68404 -1.87938 -10
      vertex 0.999999 -1.73205 -10
    endloop
  endfacet
  facet normal 0 0 -1
    outer loop
      vertex 2.5 -4.33013 -10
      vertex 0.347296 -1.96961 -10
      vertex 0.68404 -1.87938 -10
    endloop
  endfacet
  facet normal 0 0 -1
    outer loop
      vertex 2.5 -4.33013 -10
      vertex 0 -2 -10
      vertex 0.347296 -1.96961 -10
    endloop
  endfacet
  facet normal 0 0 -1
    outer loop
      vertex -2.5 -4.33013 -10
      vertex 0 -2 -10
      vertex 2.5 -4.33013 -10
    endloop
  endfacet
  facet normal -0 0 -1
    outer loop
      vertex 0 -2 -10
      vertex -2.5 -4.33013 -10
      vertex -0.347296 -1.96961 -10
    endloop
  endfacet
  facet normal -0 0 -1
    outer loop
      vertex -0.347296 -1.96961 -10
      vertex -2.5 -4.33013 -10
      vertex -0.68404 -1.87938 -10
    endloop
  endfacet
  facet normal -0 0 -1
    outer loop
      vertex -0.68404 -1.87938 -10
      vertex -2.5 -4.33013 -10
      vertex -1 -1.73205 -10
    endloop
  endfacet
  facet normal 0 0 -1
    outer loop
      vertex -5 0 -10
      vertex -2 0 -10
      vertex -1.96961 -0.347296 -10
    endloop
  endfacet
  facet normal -0 0 -1
    outer loop
      vertex -1 -1.73205 -10
      vertex -2.5 -4.33013 -10
      vertex -1.28557 -1.53209 -10
    endloop
  endfacet
  facet normal 0 0 -1
    outer loop
      vertex -2.5 -4.33013 -10
      vertex -1.53209 -1.28557 -10
      vertex -1.28557 -1.53209 -10
    endloop
  endfacet
  facet normal 0 0 -1
    outer loop
      vertex -2.5 -4.33013 -10
      vertex -1.73205 -1 -10
      vertex -1.53209 -1.28557 -10
    endloop
  endfacet
  facet normal 0 0 -1
    outer loop
      vertex -5 0 -10
      vertex -1.73205 -1 -10
      vertex -2.5 -4.33013 -10
    endloop
  endfacet
  facet normal 0 0 -1
    outer loop
      vertex -1.73205 -1 -10
      vertex -5 0 -10
      vertex -1.87938 -0.68404 -10
    endloop
  endfacet
  facet normal 0 0 -1
    outer loop
      vertex -1.87938 -0.68404 -10
      vertex -5 0 -10
      vertex -1.96961 -0.347296 -10
    endloop
  endfacet
  facet normal 0 0 -1
    outer loop
      vertex -2 0 -10
      vertex -5 0 -10
      vertex -2.5 4.33013 -10
    endloop
  endfacet
  facet normal 0 0 -1
    outer loop
      vertex 1.87938 0.68404 -10
      vertex 5 0 -10
      vertex 1.96961 0.347296 -10
    endloop
  endfacet
  facet normal 0 0 -1
    outer loop
      vertex 1.73205 0.999999 -10
      vertex 5 0 -10
      vertex 1.87938 0.68404 -10
    endloop
  endfacet
  facet normal 0 0 -1
    outer loop
      vertex 5 0 -10
      vertex 1.73205 0.999999 -10
      vertex 2.5 4.33013 -10
    endloop
  endfacet
  facet normal 0 0 -1
    outer loop
      vertex 1.53209 1.28557 -10
      vertex 2.5 4.33013 -10
      vertex 1.73205 0.999999 -10
    endloop
  endfacet
  facet normal 0 0 -1
    outer loop
      vertex 1.28557 1.53209 -10
      vertex 2.5 4.33013 -10
      vertex 1.53209 1.28557 -10
    endloop
  endfacet
  facet normal 0 0 -1
    outer loop
      vertex 1 1.73205 -10
      vertex 2.5 4.33013 -10
      vertex 1.28557 1.53209 -10
    endloop
  endfacet
  facet normal 0 0 -1
    outer loop
      vertex 0.68404 1.87938 -10
      vertex 2.5 4.33013 -10
      vertex 1 1.73205 -10
    endloop
  endfacet
  facet normal 0 0 -1
    outer loop
      vertex 0.347296 1.96961 -10
      vertex 2.5 4.33013 -10
      vertex 0.68404 1.87938 -10
    endloop
  endfacet
  facet normal 0 0 -1
    outer loop
      vertex 0 2 -10
      vertex 2.5 4.33013 -10
      vertex 0.347296 1.96961 -10
    endloop
  endfacet
  facet normal 0 0 -1
    outer loop
      vertex -2.5 4.33013 -10
      vertex 0 2 -10
      vertex -0.347296 1.96961 -10
    endloop
  endfacet
  facet normal 0 0 -1
    outer loop
      vertex -2.5 4.33013 -10
      vertex -0.347296 1.96961 -10
      vertex -0.68404 1.87938 -10
    endloop
  endfacet
  facet normal 0 0 -1
    outer loop
      vertex -2.5 4.33013 -10
      vertex -0.68404 1.87938 -10
      vertex -0.999999 1.73205 -10
    endloop
  endfacet
  facet normal 0 0 -1
    outer loop
      vertex -2.5 4.33013 -10
      vertex -0.999999 1.73205 -10
      vertex -1.28557 1.53209 -10
    endloop
  endfacet
  facet normal 0 0 -1
    outer loop
      vertex 0 2 -10
      vertex -2.5 4.33013 -10
      vertex 2.5 4.33013 -10
    endloop
  endfacet
  facet normal 0 0 -1
    outer loop
      vertex -1.53209 1.28557 -10
      vertex -2.5 4.33013 -10
      vertex -1.28557 1.53209 -10
    endloop
  endfacet
  facet normal 0 0 -1
    outer loop
      vertex -1.73205 1 -10
      vertex -2.5 4.33013 -10
      vertex -1.53209 1.28557 -10
    endloop
  endfacet
  facet normal 0 0 -1
    outer loop
      vertex -1.87938 0.68404 -10
      vertex -2.5 4.33013 -10
      vertex -1.73205 1 -10
    endloop
  endfacet
  facet normal 0 0 -1
    outer loop
      vertex -1.96961 0.347296 -10
      vertex -2.5 4.33013 -10
      vertex -1.87938 0.68404 -10
    endloop
  endfacet
  facet normal 0 0 -1
    outer loop
      vertex -2.5 4.33013 -10
      vertex -1.96961 0.347296 -10
      vertex -2 0 -10
    endloop
  endfacet
  facet normal 0 -1 0
    outer loop
      vertex -2.5 -4.33013 -10
      vertex 2.5 -4.33013 10
      vertex -2.5 -4.33013 10
    endloop
  endfacet
  facet normal 0 -1 -0
    outer loop
      vertex 2.5 -4.33013 10
      vertex -2.5 -4.33013 -10
      vertex 2.5 -4.33013 -10
    endloop
  endfacet
  facet normal -0.866025 -0.5 0
    outer loop
      vertex -2.5 -4.33013 -10
      vertex -5 0 10
      vertex -5 0 -10
    endloop
  endfacet
  facet normal -0.866025 -0.5 0
    outer loop
      vertex -5 0 10
      vertex -2.5 -4.33013 -10
      vertex -2.5 -4.33013 10
    endloop
  endfacet
  facet normal -0.996195 -0.0871574 0
    outer loop
      vertex 2 0 -10
      vertex 1.96961 0.347296 10
      vertex 1.96961 0.347296 -10
    endloop
  endfacet
  facet normal -0.996195 -0.0871574 0
    outer loop
      vertex 1.96961 0.347296 10
      vertex 2 0 -10
      vertex 2 0 10
    endloop
  endfacet
  facet normal 0.996195 -0.0871574 0
    outer loop
      vertex -2 0 10
      vertex -1.96961 0.347296 -10
      vertex -1.96961 0.347296 10
    endloop
  endfacet
  facet normal 0.996195 -0.0871574 0
    outer loop
      vertex -1.96961 0.347296 -10
      vertex -2 0 10
      vertex -2 0 -10
    endloop
  endfacet
  facet normal -0.0871574 -0.996195 0
    outer loop
      vertex 0 2 -10
      vertex 0.347296 1.96961 10
      vertex 0 2 10
    endloop
  endfacet
  facet normal -0.0871574 -0.996195 -0
    outer loop
      vertex 0.347296 1.96961 10
      vertex 0 2 -10
      vertex 0.347296 1.96961 -10
    endloop
  endfacet
  facet normal 0.0871574 0.996195 -0
    outer loop
      vertex 0 -2 -10
      vertex -0.347296 -1.96961 10
      vertex 0 -2 10
    endloop
  endfacet
  facet normal 0.0871574 0.996195 0
    outer loop
      vertex -0.347296 -1.96961 10
      vertex 0 -2 -10
      vertex -0.347296 -1.96961 -10
    endloop
  endfacet
  facet normal 0.819152 0.573576 0
    outer loop
      vertex -1.53209 -1.28557 10
      vertex -1.73205 -1 -10
      vertex -1.73205 -1 10
    endloop
  endfacet
  facet normal 0.819152 0.573576 0
    outer loop
      vertex -1.73205 -1 -10
      vertex -1.53209 -1.28557 10
      vertex -1.53209 -1.28557 -10
    endloop
  endfacet
  facet normal -0.707107 -0.707107 0
    outer loop
      vertex 1.53209 1.28557 -10
      vertex 1.28557 1.53209 10
      vertex 1.28557 1.53209 -10
    endloop
  endfacet
  facet normal -0.707107 -0.707107 0
    outer loop
      vertex 1.28557 1.53209 10
      vertex 1.53209 1.28557 -10
      vertex 1.53209 1.28557 10
    endloop
  endfacet
  facet normal 0.573575 -0.819153 0
    outer loop
      vertex -1.28557 1.53209 -10
      vertex -0.999999 1.73205 10
      vertex -1.28557 1.53209 10
    endloop
  endfacet
  facet normal 0.573575 -0.819153 0
    outer loop
      vertex -0.999999 1.73205 10
      vertex -1.28557 1.53209 -10
      vertex -0.999999 1.73205 -10
    endloop
  endfacet
  facet normal 0.258818 -0.965926 0
    outer loop
      vertex -0.68404 1.87938 -10
      vertex -0.347296 1.96961 10
      vertex -0.68404 1.87938 10
    endloop
  endfacet
  facet normal 0.258818 -0.965926 0
    outer loop
      vertex -0.347296 1.96961 10
      vertex -0.68404 1.87938 -10
      vertex -0.347296 1.96961 -10
    endloop
  endfacet
  facet normal -0.707107 0.707107 0
    outer loop
      vertex 1.28557 -1.53209 -10
      vertex 1.53209 -1.28557 10
      vertex 1.53209 -1.28557 -10
    endloop
  endfacet
  facet normal -0.707107 0.707107 0
    outer loop
      vertex 1.53209 -1.28557 10
      vertex 1.28557 -1.53209 -10
      vertex 1.28557 -1.53209 10
    endloop
  endfacet
  facet normal -0.906307 -0.422621 0
    outer loop
      vertex 1.87938 0.68404 -10
      vertex 1.73205 0.999999 10
      vertex 1.73205 0.999999 -10
    endloop
  endfacet
  facet normal -0.906307 -0.422621 0
    outer loop
      vertex 1.73205 0.999999 10
      vertex 1.87938 0.68404 -10
      vertex 1.87938 0.68404 10
    endloop
  endfacet
  facet normal -0.965926 -0.258818 0
    outer loop
      vertex 1.96961 0.347296 -10
      vertex 1.87938 0.68404 10
      vertex 1.87938 0.68404 -10
    endloop
  endfacet
  facet normal -0.965926 -0.258818 0
    outer loop
      vertex 1.87938 0.68404 10
      vertex 1.96961 0.347296 -10
      vertex 1.96961 0.347296 10
    endloop
  endfacet
  facet normal -0.819153 -0.573575 0
    outer loop
      vertex 1.73205 0.999999 -10
      vertex 1.53209 1.28557 10
      vertex 1.53209 1.28557 -10
    endloop
  endfacet
  facet normal -0.819153 -0.573575 0
    outer loop
      vertex 1.53209 1.28557 10
      vertex 1.73205 0.999999 -10
      vertex 1.73205 0.999999 10
    endloop
  endfacet
  facet normal -0.422619 -0.906307 0
    outer loop
      vertex 0.68404 1.87938 -10
      vertex 1 1.73205 10
      vertex 0.68404 1.87938 10
    endloop
  endfacet
  facet normal -0.422619 -0.906307 -0
    outer loop
      vertex 1 1.73205 10
      vertex 0.68404 1.87938 -10
      vertex 1 1.73205 -10
    endloop
  endfacet
  facet normal -0.258818 -0.965926 0
    outer loop
      vertex 0.347296 1.96961 -10
      vertex 0.68404 1.87938 10
      vertex 0.347296 1.96961 10
    endloop
  endfacet
  facet normal -0.258818 -0.965926 -0
    outer loop
      vertex 0.68404 1.87938 10
      vertex 0.347296 1.96961 -10
      vertex 0.68404 1.87938 -10
    endloop
  endfacet
  facet normal -0.573576 -0.819152 0
    outer loop
      vertex 1 1.73205 -10
      vertex 1.28557 1.53209 10
      vertex 1 1.73205 10
    endloop
  endfacet
  facet normal -0.573576 -0.819152 -0
    outer loop
      vertex 1.28557 1.53209 10
      vertex 1 1.73205 -10
      vertex 1.28557 1.53209 -10
    endloop
  endfacet
  facet normal 0.906307 -0.422619 0
    outer loop
      vertex -1.87938 0.68404 10
      vertex -1.73205 1 -10
      vertex -1.73205 1 10
    endloop
  endfacet
  facet normal 0.906307 -0.422619 0
    outer loop
      vertex -1.73205 1 -10
      vertex -1.87938 0.68404 10
      vertex -1.87938 0.68404 -10
    endloop
  endfacet
  facet normal 0.707107 -0.707107 0
    outer loop
      vertex -1.53209 1.28557 10
      vertex -1.28557 1.53209 -10
      vertex -1.28557 1.53209 10
    endloop
  endfacet
  facet normal 0.707107 -0.707107 0
    outer loop
      vertex -1.28557 1.53209 -10
      vertex -1.53209 1.28557 10
      vertex -1.53209 1.28557 -10
    endloop
  endfacet
  facet normal 0.965926 -0.258818 0
    outer loop
      vertex -1.96961 0.347296 10
      vertex -1.87938 0.68404 -10
      vertex -1.87938 0.68404 10
    endloop
  endfacet
  facet normal 0.965926 -0.258818 0
    outer loop
      vertex -1.87938 0.68404 -10
      vertex -1.96961 0.347296 10
      vertex -1.96961 0.347296 -10
    endloop
  endfacet
  facet normal 0.422621 -0.906307 0
    outer loop
      vertex -0.999999 1.73205 -10
      vertex -0.68404 1.87938 10
      vertex -0.999999 1.73205 10
    endloop
  endfacet
  facet normal 0.422621 -0.906307 0
    outer loop
      vertex -0.68404 1.87938 10
      vertex -0.999999 1.73205 -10
      vertex -0.68404 1.87938 -10
    endloop
  endfacet
  facet normal 0.0871574 -0.996195 0
    outer loop
      vertex -0.347296 1.96961 -10
      vertex 0 2 10
      vertex -0.347296 1.96961 10
    endloop
  endfacet
  facet normal 0.0871574 -0.996195 0
    outer loop
      vertex 0 2 10
      vertex -0.347296 1.96961 -10
      vertex 0 2 -10
    endloop
  endfacet
  facet normal -0.0871574 0.996195 0
    outer loop
      vertex 0.347296 -1.96961 -10
      vertex 0 -2 10
      vertex 0.347296 -1.96961 10
    endloop
  endfacet
  facet normal -0.0871574 0.996195 0
    outer loop
      vertex 0 -2 10
      vertex 0.347296 -1.96961 -10
      vertex 0 -2 -10
    endloop
  endfacet
  facet normal 0.422619 0.906307 -0
    outer loop
      vertex -0.68404 -1.87938 -10
      vertex -1 -1.73205 10
      vertex -0.68404 -1.87938 10
    endloop
  endfacet
  facet normal 0.422619 0.906307 0
    outer loop
      vertex -1 -1.73205 10
      vertex -0.68404 -1.87938 -10
      vertex -1 -1.73205 -10
    endloop
  endfacet
  facet normal 0.707107 0.707107 0
    outer loop
      vertex -1.28557 -1.53209 10
      vertex -1.53209 -1.28557 -10
      vertex -1.53209 -1.28557 10
    endloop
  endfacet
  facet normal 0.707107 0.707107 0
    outer loop
      vertex -1.53209 -1.28557 -10
      vertex -1.28557 -1.53209 10
      vertex -1.28557 -1.53209 -10
    endloop
  endfacet
  facet normal 0.258818 0.965926 -0
    outer loop
      vertex -0.347296 -1.96961 -10
      vertex -0.68404 -1.87938 10
      vertex -0.347296 -1.96961 10
    endloop
  endfacet
  facet normal 0.258818 0.965926 0
    outer loop
      vertex -0.68404 -1.87938 10
      vertex -0.347296 -1.96961 -10
      vertex -0.68404 -1.87938 -10
    endloop
  endfacet
  facet normal 0.906307 0.422619 0
    outer loop
      vertex -1.73205 -1 10
      vertex -1.87938 -0.68404 -10
      vertex -1.87938 -0.68404 10
    endloop
  endfacet
  facet normal 0.906307 0.422619 0
    outer loop
      vertex -1.87938 -0.68404 -10
      vertex -1.73205 -1 10
      vertex -1.73205 -1 -10
    endloop
  endfacet
  facet normal 0.996195 0.0871574 0
    outer loop
      vertex -1.96961 -0.347296 10
      vertex -2 0 -10
      vertex -2 0 10
    endloop
  endfacet
  facet normal 0.996195 0.0871574 0
    outer loop
      vertex -2 0 -10
      vertex -1.96961 -0.347296 10
      vertex -1.96961 -0.347296 -10
    endloop
  endfacet
  facet normal 0.819152 -0.573576 0
    outer loop
      vertex -1.73205 1 10
      vertex -1.53209 1.28557 -10
      vertex -1.53209 1.28557 10
    endloop
  endfacet
  facet normal 0.819152 -0.573576 0
    outer loop
      vertex -1.53209 1.28557 -10
      vertex -1.73205 1 10
      vertex -1.73205 1 -10
    endloop
  endfacet
  facet normal -0.996195 0.0871574 0
    outer loop
      vertex 1.96961 -0.347296 -10
      vertex 2 0 10
      vertex 2 0 -10
    endloop
  endfacet
  facet normal -0.996195 0.0871574 0
    outer loop
      vertex 2 0 10
      vertex 1.96961 -0.347296 -10
      vertex 1.96961 -0.347296 10
    endloop
  endfacet
  facet normal -0.258818 0.965926 0
    outer loop
      vertex 0.68404 -1.87938 -10
      vertex 0.347296 -1.96961 10
      vertex 0.68404 -1.87938 10
    endloop
  endfacet
  facet normal -0.258818 0.965926 0
    outer loop
      vertex 0.347296 -1.96961 10
      vertex 0.68404 -1.87938 -10
      vertex 0.347296 -1.96961 -10
    endloop
  endfacet
  facet normal -0.422621 0.906307 0
    outer loop
      vertex 0.999999 -1.73205 -10
      vertex 0.68404 -1.87938 10
      vertex 0.999999 -1.73205 10
    endloop
  endfacet
  facet normal -0.422621 0.906307 0
    outer loop
      vertex 0.68404 -1.87938 10
      vertex 0.999999 -1.73205 -10
      vertex 0.68404 -1.87938 -10
    endloop
  endfacet
  facet normal -0.906307 0.422621 0
    outer loop
      vertex 1.73205 -0.999999 -10
      vertex 1.87938 -0.68404 10
      vertex 1.87938 -0.68404 -10
    endloop
  endfacet
  facet normal -0.906307 0.422621 0
    outer loop
      vertex 1.87938 -0.68404 10
      vertex 1.73205 -0.999999 -10
      vertex 1.73205 -0.999999 10
    endloop
  endfacet
  facet normal -0.819153 0.573575 0
    outer loop
      vertex 1.53209 -1.28557 -10
      vertex 1.73205 -0.999999 10
      vertex 1.73205 -0.999999 -10
    endloop
  endfacet
  facet normal -0.819153 0.573575 0
    outer loop
      vertex 1.73205 -0.999999 10
      vertex 1.53209 -1.28557 -10
      vertex 1.53209 -1.28557 10
    endloop
  endfacet
  facet normal -0.965926 0.258818 0
    outer loop
      vertex 1.87938 -0.68404 -10
      vertex 1.96961 -0.347296 10
      vertex 1.96961 -0.347296 -10
    endloop
  endfacet
  facet normal -0.965926 0.258818 0
    outer loop
      vertex 1.96961 -0.347296 10
      vertex 1.87938 -0.68404 -10
      vertex 1.87938 -0.68404 10
    endloop
  endfacet
  facet normal 0.573576 0.819152 -0
    outer loop
      vertex -1 -1.73205 -10
      vertex -1.28557 -1.53209 10
      vertex -1 -1.73205 10
    endloop
  endfacet
  facet normal 0.573576 0.819152 0
    outer loop
      vertex -1.28557 -1.53209 10
      vertex -1 -1.73205 -10
      vertex -1.28557 -1.53209 -10
    endloop
  endfacet
  facet normal 0.965926 0.258818 0
    outer loop
      vertex -1.87938 -0.68404 10
      vertex -1.96961 -0.347296 -10
      vertex -1.96961 -0.347296 10
    endloop
  endfacet
  facet normal 0.965926 0.258818 0
    outer loop
      vertex -1.96961 -0.347296 -10
      vertex -1.87938 -0.68404 10
      vertex -1.87938 -0.68404 -10
    endloop
  endfacet
  facet normal -0.573575 0.819153 0
    outer loop
      vertex 1.28557 -1.53209 -10
      vertex 0.999999 -1.73205 10
      vertex 1.28557 -1.53209 10
    endloop
  endfacet
  facet normal -0.573575 0.819153 0
    outer loop
      vertex 0.999999 -1.73205 10
      vertex 1.28557 -1.53209 -10
      vertex 0.999999 -1.73205 -10
    endloop
  endfacet
endsolid OpenSCAD_Model
