  0
SECTION
  2
BLOCKS
  0
ENDSEC
  0
SECTION
  2
ENTITIES
  0
LINE
  8
0
 10
-55
 11
-55
 20
-211
 21
-161
  0
LINE
  8
0
 10
-55
 11
-5
 20
-161
 21
-161
  0
LINE
  8
0
 10
-5
 11
-5
 20
-161
 21
-211
  0
LINE
  8
0
 10
-5
 11
-55
 20
-211
 21
-211
  0
LINE
  8
0
 10
-55
 11
-55
 20
-159
 21
-109
  0
LINE
  8
0
 10
-55
 11
-5
 20
-109
 21
-109
  0
LINE
  8
0
 10
-5
 11
-5
 20
-109
 21
-159
  0
LINE
  8
0
 10
-5
 11
-55
 20
-159
 21
-159
  0
LINE
  8
0
 10
-55
 11
-55
 20
-107
 21
-57
  0
LINE
  8
0
 10
-55
 11
-5
 20
-57
 21
-57
  0
LINE
  8
0
 10
-5
 11
-5
 20
-57
 21
-107
  0
LINE
  8
0
 10
-5
 11
-55
 20
-107
 21
-107
  0
LINE
  8
0
 10
-55
 11
-55
 20
-55
 21
-5
  0
LINE
  8
0
 10
-55
 11
-5
 20
-5
 21
-5
  0
LINE
  8
0
 10
-5
 11
-5
 20
-5
 21
-55
  0
LINE
  8
0
 10
-5
 11
-55
 20
-55
 21
-55
  0
LINE
  8
0
 10
-55
 11
-55
 20
-3
 21
47
  0
LINE
  8
0
 10
-55
 11
-5
 20
47
 21
47
  0
LINE
  8
0
 10
-5
 11
-5
 20
47
 21
-3
  0
LINE
  8
0
 10
-5
 11
-55
 20
-3
 21
-3
  0
LINE
  8
0
 10
-55
 11
-55
 20
49
 21
99
  0
LINE
  8
0
 10
-55
 11
-5
 20
99
 21
99
  0
LINE
  8
0
 10
-5
 11
-5
 20
99
 21
49
  0
LINE
  8
0
 10
-5
 11
-55
 20
49
 21
49
  0
LINE
  8
0
 10
-55
 11
-55
 20
101
 21
151
  0
LINE
  8
0
 10
-55
 11
-5
 20
151
 21
151
  0
LINE
  8
0
 10
-5
 11
-5
 20
151
 21
101
  0
LINE
  8
0
 10
-5
 11
-55
 20
101
 21
101
  0
LINE
  8
0
 10
-52.65
 11
-52.65
 20
122.6
 21
129.4
  0
LINE
  8
0
 10
-52.65
 11
-37.35
 20
129.4
 21
129.4
  0
LINE
  8
0
 10
-37.35
 11
-37.35
 20
129.4
 21
122.6
  0
LINE
  8
0
 10
-37.35
 11
-52.65
 20
122.6
 21
122.6
  0
LINE
  8
0
 10
-52.6
 11
-52.6
 20
70.65
 21
77.35
  0
LINE
  8
0
 10
-52.6
 11
-37.4
 20
77.35
 21
77.35
  0
LINE
  8
0
 10
-37.4
 11
-37.4
 20
77.35
 21
70.65
  0
LINE
  8
0
 10
-37.4
 11
-52.6
 20
70.65
 21
70.65
  0
LINE
  8
0
 10
-52.55
 11
-52.55
 20
18.7
 21
25.3
  0
LINE
  8
0
 10
-52.55
 11
-37.45
 20
25.3
 21
25.3
  0
LINE
  8
0
 10
-37.45
 11
-37.45
 20
25.3
 21
18.7
  0
LINE
  8
0
 10
-37.45
 11
-52.55
 20
18.7
 21
18.7
  0
LINE
  8
0
 10
-52.5
 11
-52.5
 20
-33.25
 21
-26.75
  0
LINE
  8
0
 10
-52.5
 11
-37.5
 20
-26.75
 21
-26.75
  0
LINE
  8
0
 10
-37.5
 11
-37.5
 20
-26.75
 21
-33.25
  0
LINE
  8
0
 10
-37.5
 11
-52.5
 20
-33.25
 21
-33.25
  0
LINE
  8
0
 10
-52.45
 11
-52.45
 20
-85.2
 21
-78.8
  0
LINE
  8
0
 10
-52.45
 11
-37.55
 20
-78.8
 21
-78.8
  0
LINE
  8
0
 10
-37.55
 11
-37.55
 20
-78.8
 21
-85.2
  0
LINE
  8
0
 10
-37.55
 11
-52.45
 20
-85.2
 21
-85.2
  0
LINE
  8
0
 10
-52.4
 11
-52.4
 20
-137.15
 21
-130.85
  0
LINE
  8
0
 10
-52.4
 11
-37.6
 20
-130.85
 21
-130.85
  0
LINE
  8
0
 10
-37.6
 11
-37.6
 20
-130.85
 21
-137.15
  0
LINE
  8
0
 10
-37.6
 11
-52.4
 20
-137.15
 21
-137.15
  0
LINE
  8
0
 10
-52.35
 11
-52.35
 20
-189.1
 21
-182.9
  0
LINE
  8
0
 10
-52.35
 11
-37.65
 20
-182.9
 21
-182.9
  0
LINE
  8
0
 10
-37.65
 11
-37.65
 20
-182.9
 21
-189.1
  0
LINE
  8
0
 10
-37.65
 11
-52.35
 20
-189.1
 21
-189.1
  0
LINE
  8
0
 10
-36.243
 11
-36.243
 20
-171.645
 21
-170.121
  0
LINE
  8
0
 10
-36.243
 11
-31.304
 20
-170.121
 21
-170.121
  0
LINE
  8
0
 10
-31.304
 11
-31.304
 20
-170.121
 21
-171.645
  0
LINE
  8
0
 10
-31.304
 11
-36.243
 20
-171.645
 21
-171.645
  0
LINE
  8
0
 10
-36.243
 11
-36.243
 20
-119.645
 21
-118.121
  0
LINE
  8
0
 10
-36.243
 11
-31.304
 20
-118.121
 21
-118.121
  0
LINE
  8
0
 10
-31.304
 11
-31.304
 20
-118.121
 21
-119.645
  0
LINE
  8
0
 10
-31.304
 11
-36.243
 20
-119.645
 21
-119.645
  0
LINE
  8
0
 10
-36.243
 11
-36.243
 20
-67.645
 21
-66.121
  0
LINE
  8
0
 10
-36.243
 11
-31.304
 20
-66.121
 21
-66.121
  0
LINE
  8
0
 10
-31.304
 11
-31.304
 20
-66.121
 21
-67.645
  0
LINE
  8
0
 10
-31.304
 11
-36.243
 20
-67.645
 21
-67.645
  0
LINE
  8
0
 10
-33.438
 11
-33.438
 20
-18.165
 21
-11.674
  0
LINE
  8
0
 10
-33.438
 11
-33.349
 20
-11.674
 21
-10.961
  0
LINE
  8
0
 10
-33.349
 11
-33.103
 20
-10.961
 21
-10.376
  0
LINE
  8
0
 10
-33.103
 11
-32.736
 20
-10.376
 21
-9.981
  0
LINE
  8
0
 10
-32.736
 11
-32.29
 20
-9.981
 21
-9.84
  0
LINE
  8
0
 10
-32.29
 11
-28.234
 20
-9.84
 21
-9.84
  0
LINE
  8
0
 10
-28.234
 11
-27.789
 20
-9.84
 21
-9.981
  0
LINE
  8
0
 10
-27.789
 11
-27.423
 20
-9.981
 21
-10.376
  0
LINE
  8
0
 10
-27.423
 11
-27.175
 20
-10.376
 21
-10.961
  0
LINE
  8
0
 10
-27.175
 11
-27.087
 20
-10.961
 21
-11.674
  0
LINE
  8
0
 10
-27.087
 11
-27.087
 20
-11.674
 21
-18.165
  0
LINE
  8
0
 10
-27.087
 11
-27.175
 20
-18.165
 21
-18.877
  0
LINE
  8
0
 10
-27.175
 11
-27.423
 20
-18.877
 21
-19.464
  0
LINE
  8
0
 10
-27.423
 11
-27.789
 20
-19.464
 21
-19.859
  0
LINE
  8
0
 10
-27.789
 11
-28.234
 20
-19.859
 21
-20
  0
LINE
  8
0
 10
-28.234
 11
-32.29
 20
-20
 21
-20
  0
LINE
  8
0
 10
-32.29
 11
-32.736
 20
-20
 21
-19.859
  0
LINE
  8
0
 10
-32.736
 11
-33.103
 20
-19.859
 21
-19.464
  0
LINE
  8
0
 10
-33.103
 11
-33.349
 20
-19.464
 21
-18.877
  0
LINE
  8
0
 10
-33.349
 11
-33.438
 20
-18.877
 21
-18.165
  0
LINE
  8
0
 10
-33.438
 11
-33.438
 20
84
 21
87.866
  0
LINE
  8
0
 10
-33.438
 11
-33.349
 20
87.866
 21
88.579
  0
LINE
  8
0
 10
-33.349
 11
-33.103
 20
88.579
 21
89.165
  0
LINE
  8
0
 10
-33.103
 11
-32.736
 20
89.165
 21
89.56
  0
LINE
  8
0
 10
-32.736
 11
-32.29
 20
89.56
 21
89.701
  0
LINE
  8
0
 10
-32.29
 11
-28.234
 20
89.701
 21
89.701
  0
LINE
  8
0
 10
-28.234
 11
-28.098
 20
89.701
 21
89.792
  0
LINE
  8
0
 10
-28.098
 11
-28.04
 20
89.792
 21
90.011
  0
LINE
  8
0
 10
-28.04
 11
-28.04
 20
90.011
 21
92.326
  0
LINE
  8
0
 10
-28.04
 11
-28.098
 20
92.326
 21
92.545
  0
LINE
  8
0
 10
-28.098
 11
-28.234
 20
92.545
 21
92.636
  0
LINE
  8
0
 10
-28.234
 11
-32.29
 20
92.636
 21
92.636
  0
LINE
  8
0
 10
-32.29
 11
-32.428
 20
92.636
 21
92.545
  0
LINE
  8
0
 10
-32.428
 11
-32.485
 20
92.545
 21
92.326
  0
LINE
  8
0
 10
-32.485
 11
-32.485
 20
92.326
 21
91.734
  0
LINE
  8
0
 10
-32.485
 11
-33.438
 20
91.734
 21
91.734
  0
LINE
  8
0
 10
-33.438
 11
-33.438
 20
91.734
 21
92.326
  0
LINE
  8
0
 10
-33.438
 11
-33.349
 20
92.326
 21
93.039
  0
LINE
  8
0
 10
-33.349
 11
-33.103
 20
93.039
 21
93.624
  0
LINE
  8
0
 10
-33.103
 11
-32.736
 20
93.624
 21
94.019
  0
LINE
  8
0
 10
-32.736
 11
-32.29
 20
94.019
 21
94.16
  0
LINE
  8
0
 10
-32.29
 11
-28.234
 20
94.16
 21
94.16
  0
LINE
  8
0
 10
-28.234
 11
-27.789
 20
94.16
 21
94.019
  0
LINE
  8
0
 10
-27.789
 11
-27.423
 20
94.019
 21
93.624
  0
LINE
  8
0
 10
-27.423
 11
-27.175
 20
93.624
 21
93.039
  0
LINE
  8
0
 10
-27.175
 11
-27.087
 20
93.039
 21
92.326
  0
LINE
  8
0
 10
-27.087
 11
-27.087
 20
92.326
 21
90.011
  0
LINE
  8
0
 10
-27.087
 11
-27.175
 20
90.011
 21
89.299
  0
LINE
  8
0
 10
-27.175
 11
-27.423
 20
89.299
 21
88.714
  0
LINE
  8
0
 10
-27.423
 11
-27.789
 20
88.714
 21
88.319
  0
LINE
  8
0
 10
-27.789
 11
-28.234
 20
88.319
 21
88.177
  0
LINE
  8
0
 10
-28.234
 11
-32.29
 20
88.177
 21
88.177
  0
LINE
  8
0
 10
-32.29
 11
-32.428
 20
88.177
 21
88.085
  0
LINE
  8
0
 10
-32.428
 11
-32.485
 20
88.085
 21
87.866
  0
LINE
  8
0
 10
-32.485
 11
-32.485
 20
87.866
 21
85.835
  0
LINE
  8
0
 10
-32.485
 11
-32.428
 20
85.835
 21
85.616
  0
LINE
  8
0
 10
-32.428
 11
-32.29
 20
85.616
 21
85.525
  0
LINE
  8
0
 10
-32.29
 11
-27.087
 20
85.525
 21
85.525
  0
LINE
  8
0
 10
-27.087
 11
-27.087
 20
85.525
 21
84
  0
LINE
  8
0
 10
-27.087
 11
-33.438
 20
84
 21
84
  0
LINE
  8
0
 10
-33.438
 11
-33.438
 20
137.835
 21
138.259
  0
LINE
  8
0
 10
-33.438
 11
-32.485
 20
138.259
 21
138.259
  0
LINE
  8
0
 10
-32.485
 11
-32.485
 20
138.259
 21
137.835
  0
LINE
  8
0
 10
-32.485
 11
-32.428
 20
137.835
 21
137.616
  0
LINE
  8
0
 10
-32.428
 11
-32.29
 20
137.616
 21
137.525
  0
LINE
  8
0
 10
-32.29
 11
-28.234
 20
137.525
 21
137.525
  0
LINE
  8
0
 10
-28.234
 11
-28.098
 20
137.525
 21
137.616
  0
LINE
  8
0
 10
-28.098
 11
-28.04
 20
137.616
 21
137.835
  0
LINE
  8
0
 10
-28.04
 11
-28.04
 20
137.835
 21
140.106
  0
LINE
  8
0
 10
-28.04
 11
-28.098
 20
140.106
 21
140.325
  0
LINE
  8
0
 10
-28.098
 11
-28.234
 20
140.325
 21
140.417
  0
LINE
  8
0
 10
-28.234
 11
-32.29
 20
140.417
 21
140.417
  0
LINE
  8
0
 10
-32.29
 11
-32.29
 20
140.417
 21
141.941
  0
LINE
  8
0
 10
-32.29
 11
-28.499
 20
141.941
 21
141.941
  0
LINE
  8
0
 10
-28.499
 11
-28.361
 20
141.941
 21
142.033
  0
LINE
  8
0
 10
-28.361
 11
-28.304
 20
142.033
 21
142.251
  0
LINE
  8
0
 10
-28.304
 11
-28.304
 20
142.251
 21
144.326
  0
LINE
  8
0
 10
-28.304
 11
-28.361
 20
144.326
 21
144.545
  0
LINE
  8
0
 10
-28.361
 11
-28.499
 20
144.545
 21
144.636
  0
LINE
  8
0
 10
-28.499
 11
-32.29
 20
144.636
 21
144.636
  0
LINE
  8
0
 10
-32.29
 11
-32.428
 20
144.636
 21
144.545
  0
LINE
  8
0
 10
-32.428
 11
-32.485
 20
144.545
 21
144.326
  0
LINE
  8
0
 10
-32.485
 11
-32.485
 20
144.326
 21
143.761
  0
LINE
  8
0
 10
-32.485
 11
-33.438
 20
143.761
 21
143.761
  0
LINE
  8
0
 10
-33.438
 11
-33.438
 20
143.761
 21
144.326
  0
LINE
  8
0
 10
-33.438
 11
-33.349
 20
144.326
 21
145.039
  0
LINE
  8
0
 10
-33.349
 11
-33.103
 20
145.039
 21
145.624
  0
LINE
  8
0
 10
-33.103
 11
-32.736
 20
145.624
 21
146.019
  0
LINE
  8
0
 10
-32.736
 11
-32.29
 20
146.019
 21
146.16
  0
LINE
  8
0
 10
-32.29
 11
-28.499
 20
146.16
 21
146.16
  0
LINE
  8
0
 10
-28.499
 11
-28.052
 20
146.16
 21
146.019
  0
LINE
  8
0
 10
-28.052
 11
-27.688
 20
146.019
 21
145.624
  0
LINE
  8
0
 10
-27.688
 11
-27.44
 20
145.624
 21
145.039
  0
LINE
  8
0
 10
-27.44
 11
-27.351
 20
145.039
 21
144.326
  0
LINE
  8
0
 10
-27.351
 11
-27.351
 20
144.326
 21
142.251
  0
LINE
  8
0
 10
-27.351
 11
-27.466
 20
142.251
 21
141.461
  0
LINE
  8
0
 10
-27.466
 11
-27.189
 20
141.461
 21
140.869
  0
LINE
  8
0
 10
-27.189
 11
-27.087
 20
140.869
 21
140.106
  0
LINE
  8
0
 10
-27.087
 11
-27.087
 20
140.106
 21
137.835
  0
LINE
  8
0
 10
-27.087
 11
-27.175
 20
137.835
 21
137.123
  0
LINE
  8
0
 10
-27.175
 11
-27.423
 20
137.123
 21
136.536
  0
LINE
  8
0
 10
-27.423
 11
-27.789
 20
136.536
 21
136.141
  0
LINE
  8
0
 10
-27.789
 11
-28.234
 20
136.141
 21
136
  0
LINE
  8
0
 10
-28.234
 11
-32.29
 20
136
 21
136
  0
LINE
  8
0
 10
-32.29
 11
-32.736
 20
136
 21
136.141
  0
LINE
  8
0
 10
-32.736
 11
-33.103
 20
136.141
 21
136.536
  0
LINE
  8
0
 10
-33.103
 11
-33.349
 20
136.536
 21
137.123
  0
LINE
  8
0
 10
-33.349
 11
-33.438
 20
137.123
 21
137.835
  0
LINE
  8
0
 10
-32.7
 11
-32.654
 20
-186
 21
-185.504
  0
LINE
  8
0
 10
-32.654
 11
-32.518
 20
-185.504
 21
-185.025
  0
LINE
  8
0
 10
-32.518
 11
-32.296
 20
-185.025
 21
-184.579
  0
LINE
  8
0
 10
-32.296
 11
-31.995
 20
-184.579
 21
-184.181
  0
LINE
  8
0
 10
-31.995
 11
-31.627
 20
-184.181
 21
-183.845
  0
LINE
  8
0
 10
-31.627
 11
-31.203
 20
-183.845
 21
-183.583
  0
LINE
  8
0
 10
-31.203
 11
-30.739
 20
-183.583
 21
-183.403
  0
LINE
  8
0
 10
-30.739
 11
-30.249
 20
-183.403
 21
-183.312
  0
LINE
  8
0
 10
-30.249
 11
-29.751
 20
-183.312
 21
-183.312
  0
LINE
  8
0
 10
-29.751
 11
-29.261
 20
-183.312
 21
-183.403
  0
LINE
  8
0
 10
-29.261
 11
-28.797
 20
-183.403
 21
-183.583
  0
LINE
  8
0
 10
-28.797
 11
-28.373
 20
-183.583
 21
-183.845
  0
LINE
  8
0
 10
-28.373
 11
-28.005
 20
-183.845
 21
-184.181
  0
LINE
  8
0
 10
-28.005
 11
-27.704
 20
-184.181
 21
-184.579
  0
LINE
  8
0
 10
-27.704
 11
-27.482
 20
-184.579
 21
-185.025
  0
LINE
  8
0
 10
-27.482
 11
-27.346
 20
-185.025
 21
-185.504
  0
LINE
  8
0
 10
-27.346
 11
-27.3
 20
-185.504
 21
-186
  0
LINE
  8
0
 10
-27.3
 11
-27.346
 20
-186
 21
-186.496
  0
LINE
  8
0
 10
-27.346
 11
-27.482
 20
-186.496
 21
-186.975
  0
LINE
  8
0
 10
-27.482
 11
-27.704
 20
-186.975
 21
-187.421
  0
LINE
  8
0
 10
-27.704
 11
-28.005
 20
-187.421
 21
-187.819
  0
LINE
  8
0
 10
-28.005
 11
-28.373
 20
-187.819
 21
-188.155
  0
LINE
  8
0
 10
-28.373
 11
-28.797
 20
-188.155
 21
-188.417
  0
LINE
  8
0
 10
-28.797
 11
-29.261
 20
-188.417
 21
-188.597
  0
LINE
  8
0
 10
-29.261
 11
-29.751
 20
-188.597
 21
-188.688
  0
LINE
  8
0
 10
-29.751
 11
-30.249
 20
-188.688
 21
-188.688
  0
LINE
  8
0
 10
-30.249
 11
-30.739
 20
-188.688
 21
-188.597
  0
LINE
  8
0
 10
-30.739
 11
-31.203
 20
-188.597
 21
-188.417
  0
LINE
  8
0
 10
-31.203
 11
-31.627
 20
-188.417
 21
-188.155
  0
LINE
  8
0
 10
-31.627
 11
-31.995
 20
-188.155
 21
-187.819
  0
LINE
  8
0
 10
-31.995
 11
-32.296
 20
-187.819
 21
-187.421
  0
LINE
  8
0
 10
-32.296
 11
-32.518
 20
-187.421
 21
-186.975
  0
LINE
  8
0
 10
-32.518
 11
-32.654
 20
-186.975
 21
-186.496
  0
LINE
  8
0
 10
-32.654
 11
-32.7
 20
-186.496
 21
-186
  0
LINE
  8
0
 10
-32.7
 11
-32.654
 20
-134
 21
-133.504
  0
LINE
  8
0
 10
-32.654
 11
-32.518
 20
-133.504
 21
-133.025
  0
LINE
  8
0
 10
-32.518
 11
-32.296
 20
-133.025
 21
-132.579
  0
LINE
  8
0
 10
-32.296
 11
-31.995
 20
-132.579
 21
-132.181
  0
LINE
  8
0
 10
-31.995
 11
-31.627
 20
-132.181
 21
-131.845
  0
LINE
  8
0
 10
-31.627
 11
-31.203
 20
-131.845
 21
-131.583
  0
LINE
  8
0
 10
-31.203
 11
-30.739
 20
-131.583
 21
-131.403
  0
LINE
  8
0
 10
-30.739
 11
-30.249
 20
-131.403
 21
-131.312
  0
LINE
  8
0
 10
-30.249
 11
-29.751
 20
-131.312
 21
-131.312
  0
LINE
  8
0
 10
-29.751
 11
-29.261
 20
-131.312
 21
-131.403
  0
LINE
  8
0
 10
-29.261
 11
-28.797
 20
-131.403
 21
-131.583
  0
LINE
  8
0
 10
-28.797
 11
-28.373
 20
-131.583
 21
-131.845
  0
LINE
  8
0
 10
-28.373
 11
-28.005
 20
-131.845
 21
-132.181
  0
LINE
  8
0
 10
-28.005
 11
-27.704
 20
-132.181
 21
-132.579
  0
LINE
  8
0
 10
-27.704
 11
-27.482
 20
-132.579
 21
-133.025
  0
LINE
  8
0
 10
-27.482
 11
-27.346
 20
-133.025
 21
-133.504
  0
LINE
  8
0
 10
-27.346
 11
-27.3
 20
-133.504
 21
-134
  0
LINE
  8
0
 10
-27.3
 11
-27.346
 20
-134
 21
-134.496
  0
LINE
  8
0
 10
-27.346
 11
-27.482
 20
-134.496
 21
-134.975
  0
LINE
  8
0
 10
-27.482
 11
-27.704
 20
-134.975
 21
-135.421
  0
LINE
  8
0
 10
-27.704
 11
-28.005
 20
-135.421
 21
-135.819
  0
LINE
  8
0
 10
-28.005
 11
-28.373
 20
-135.819
 21
-136.155
  0
LINE
  8
0
 10
-28.373
 11
-28.797
 20
-136.155
 21
-136.417
  0
LINE
  8
0
 10
-28.797
 11
-29.261
 20
-136.417
 21
-136.597
  0
LINE
  8
0
 10
-29.261
 11
-29.751
 20
-136.597
 21
-136.688
  0
LINE
  8
0
 10
-29.751
 11
-30.249
 20
-136.688
 21
-136.688
  0
LINE
  8
0
 10
-30.249
 11
-30.739
 20
-136.688
 21
-136.597
  0
LINE
  8
0
 10
-30.739
 11
-31.203
 20
-136.597
 21
-136.417
  0
LINE
  8
0
 10
-31.203
 11
-31.627
 20
-136.417
 21
-136.155
  0
LINE
  8
0
 10
-31.627
 11
-31.995
 20
-136.155
 21
-135.819
  0
LINE
  8
0
 10
-31.995
 11
-32.296
 20
-135.819
 21
-135.421
  0
LINE
  8
0
 10
-32.296
 11
-32.518
 20
-135.421
 21
-134.975
  0
LINE
  8
0
 10
-32.518
 11
-32.654
 20
-134.975
 21
-134.496
  0
LINE
  8
0
 10
-32.654
 11
-32.7
 20
-134.496
 21
-134
  0
LINE
  8
0
 10
-32.7
 11
-32.654
 20
-82
 21
-81.504
  0
LINE
  8
0
 10
-32.654
 11
-32.518
 20
-81.504
 21
-81.025
  0
LINE
  8
0
 10
-32.518
 11
-32.296
 20
-81.025
 21
-80.579
  0
LINE
  8
0
 10
-32.296
 11
-31.995
 20
-80.579
 21
-80.181
  0
LINE
  8
0
 10
-31.995
 11
-31.627
 20
-80.181
 21
-79.845
  0
LINE
  8
0
 10
-31.627
 11
-31.203
 20
-79.845
 21
-79.583
  0
LINE
  8
0
 10
-31.203
 11
-30.739
 20
-79.583
 21
-79.403
  0
LINE
  8
0
 10
-30.739
 11
-30.249
 20
-79.403
 21
-79.312
  0
LINE
  8
0
 10
-30.249
 11
-29.751
 20
-79.312
 21
-79.312
  0
LINE
  8
0
 10
-29.751
 11
-29.261
 20
-79.312
 21
-79.403
  0
LINE
  8
0
 10
-29.261
 11
-28.797
 20
-79.403
 21
-79.583
  0
LINE
  8
0
 10
-28.797
 11
-28.373
 20
-79.583
 21
-79.845
  0
LINE
  8
0
 10
-28.373
 11
-28.005
 20
-79.845
 21
-80.181
  0
LINE
  8
0
 10
-28.005
 11
-27.704
 20
-80.181
 21
-80.579
  0
LINE
  8
0
 10
-27.704
 11
-27.482
 20
-80.579
 21
-81.025
  0
LINE
  8
0
 10
-27.482
 11
-27.346
 20
-81.025
 21
-81.504
  0
LINE
  8
0
 10
-27.346
 11
-27.3
 20
-81.504
 21
-82
  0
LINE
  8
0
 10
-27.3
 11
-27.346
 20
-82
 21
-82.496
  0
LINE
  8
0
 10
-27.346
 11
-27.482
 20
-82.496
 21
-82.975
  0
LINE
  8
0
 10
-27.482
 11
-27.704
 20
-82.975
 21
-83.421
  0
LINE
  8
0
 10
-27.704
 11
-28.005
 20
-83.421
 21
-83.819
  0
LINE
  8
0
 10
-28.005
 11
-28.373
 20
-83.819
 21
-84.155
  0
LINE
  8
0
 10
-28.373
 11
-28.797
 20
-84.155
 21
-84.417
  0
LINE
  8
0
 10
-28.797
 11
-29.261
 20
-84.417
 21
-84.597
  0
LINE
  8
0
 10
-29.261
 11
-29.751
 20
-84.597
 21
-84.688
  0
LINE
  8
0
 10
-29.751
 11
-30.249
 20
-84.688
 21
-84.688
  0
LINE
  8
0
 10
-30.249
 11
-30.739
 20
-84.688
 21
-84.597
  0
LINE
  8
0
 10
-30.739
 11
-31.203
 20
-84.597
 21
-84.417
  0
LINE
  8
0
 10
-31.203
 11
-31.627
 20
-84.417
 21
-84.155
  0
LINE
  8
0
 10
-31.627
 11
-31.995
 20
-84.155
 21
-83.819
  0
LINE
  8
0
 10
-31.995
 11
-32.296
 20
-83.819
 21
-83.421
  0
LINE
  8
0
 10
-32.296
 11
-32.518
 20
-83.421
 21
-82.975
  0
LINE
  8
0
 10
-32.518
 11
-32.654
 20
-82.975
 21
-82.496
  0
LINE
  8
0
 10
-32.654
 11
-32.7
 20
-82.496
 21
-82
  0
LINE
  8
0
 10
-32.7
 11
-32.654
 20
-30
 21
-29.504
  0
LINE
  8
0
 10
-32.654
 11
-32.518
 20
-29.504
 21
-29.025
  0
LINE
  8
0
 10
-32.518
 11
-32.296
 20
-29.025
 21
-28.579
  0
LINE
  8
0
 10
-32.296
 11
-31.995
 20
-28.579
 21
-28.181
  0
LINE
  8
0
 10
-31.995
 11
-31.627
 20
-28.181
 21
-27.845
  0
LINE
  8
0
 10
-31.627
 11
-31.203
 20
-27.845
 21
-27.583
  0
LINE
  8
0
 10
-31.203
 11
-30.739
 20
-27.583
 21
-27.403
  0
LINE
  8
0
 10
-30.739
 11
-30.249
 20
-27.403
 21
-27.312
  0
LINE
  8
0
 10
-30.249
 11
-29.751
 20
-27.312
 21
-27.312
  0
LINE
  8
0
 10
-29.751
 11
-29.261
 20
-27.312
 21
-27.403
  0
LINE
  8
0
 10
-29.261
 11
-28.797
 20
-27.403
 21
-27.583
  0
LINE
  8
0
 10
-28.797
 11
-28.373
 20
-27.583
 21
-27.845
  0
LINE
  8
0
 10
-28.373
 11
-28.005
 20
-27.845
 21
-28.181
  0
LINE
  8
0
 10
-28.005
 11
-27.704
 20
-28.181
 21
-28.579
  0
LINE
  8
0
 10
-27.704
 11
-27.482
 20
-28.579
 21
-29.025
  0
LINE
  8
0
 10
-27.482
 11
-27.346
 20
-29.025
 21
-29.504
  0
LINE
  8
0
 10
-27.346
 11
-27.3
 20
-29.504
 21
-30
  0
LINE
  8
0
 10
-27.3
 11
-27.346
 20
-30
 21
-30.496
  0
LINE
  8
0
 10
-27.346
 11
-27.482
 20
-30.496
 21
-30.975
  0
LINE
  8
0
 10
-27.482
 11
-27.704
 20
-30.975
 21
-31.421
  0
LINE
  8
0
 10
-27.704
 11
-28.005
 20
-31.421
 21
-31.819
  0
LINE
  8
0
 10
-28.005
 11
-28.373
 20
-31.819
 21
-32.155
  0
LINE
  8
0
 10
-28.373
 11
-28.797
 20
-32.155
 21
-32.417
  0
LINE
  8
0
 10
-28.797
 11
-29.261
 20
-32.417
 21
-32.597
  0
LINE
  8
0
 10
-29.261
 11
-29.751
 20
-32.597
 21
-32.688
  0
LINE
  8
0
 10
-29.751
 11
-30.249
 20
-32.688
 21
-32.688
  0
LINE
  8
0
 10
-30.249
 11
-30.739
 20
-32.688
 21
-32.597
  0
LINE
  8
0
 10
-30.739
 11
-31.203
 20
-32.597
 21
-32.417
  0
LINE
  8
0
 10
-31.203
 11
-31.627
 20
-32.417
 21
-32.155
  0
LINE
  8
0
 10
-31.627
 11
-31.995
 20
-32.155
 21
-31.819
  0
LINE
  8
0
 10
-31.995
 11
-32.296
 20
-31.819
 21
-31.421
  0
LINE
  8
0
 10
-32.296
 11
-32.518
 20
-31.421
 21
-30.975
  0
LINE
  8
0
 10
-32.518
 11
-32.654
 20
-30.975
 21
-30.496
  0
LINE
  8
0
 10
-32.654
 11
-32.7
 20
-30.496
 21
-30
  0
LINE
  8
0
 10
-32.7
 11
-32.654
 20
22
 21
22.496
  0
LINE
  8
0
 10
-32.654
 11
-32.518
 20
22.496
 21
22.975
  0
LINE
  8
0
 10
-32.518
 11
-32.296
 20
22.975
 21
23.421
  0
LINE
  8
0
 10
-32.296
 11
-31.995
 20
23.421
 21
23.819
  0
LINE
  8
0
 10
-31.995
 11
-31.627
 20
23.819
 21
24.155
  0
LINE
  8
0
 10
-31.627
 11
-31.203
 20
24.155
 21
24.417
  0
LINE
  8
0
 10
-31.203
 11
-30.739
 20
24.417
 21
24.597
  0
LINE
  8
0
 10
-30.739
 11
-30.249
 20
24.597
 21
24.688
  0
LINE
  8
0
 10
-30.249
 11
-29.751
 20
24.688
 21
24.688
  0
LINE
  8
0
 10
-29.751
 11
-29.261
 20
24.688
 21
24.597
  0
LINE
  8
0
 10
-29.261
 11
-28.797
 20
24.597
 21
24.417
  0
LINE
  8
0
 10
-28.797
 11
-28.373
 20
24.417
 21
24.155
  0
LINE
  8
0
 10
-28.373
 11
-28.005
 20
24.155
 21
23.819
  0
LINE
  8
0
 10
-28.005
 11
-27.704
 20
23.819
 21
23.421
  0
LINE
  8
0
 10
-27.704
 11
-27.482
 20
23.421
 21
22.975
  0
LINE
  8
0
 10
-27.482
 11
-27.346
 20
22.975
 21
22.496
  0
LINE
  8
0
 10
-27.346
 11
-27.3
 20
22.496
 21
22
  0
LINE
  8
0
 10
-27.3
 11
-27.346
 20
22
 21
21.504
  0
LINE
  8
0
 10
-27.346
 11
-27.482
 20
21.504
 21
21.025
  0
LINE
  8
0
 10
-27.482
 11
-27.704
 20
21.025
 21
20.579
  0
LINE
  8
0
 10
-27.704
 11
-28.005
 20
20.579
 21
20.181
  0
LINE
  8
0
 10
-28.005
 11
-28.373
 20
20.181
 21
19.845
  0
LINE
  8
0
 10
-28.373
 11
-28.797
 20
19.845
 21
19.583
  0
LINE
  8
0
 10
-28.797
 11
-29.261
 20
19.583
 21
19.403
  0
LINE
  8
0
 10
-29.261
 11
-29.751
 20
19.403
 21
19.312
  0
LINE
  8
0
 10
-29.751
 11
-30.249
 20
19.312
 21
19.312
  0
LINE
  8
0
 10
-30.249
 11
-30.739
 20
19.312
 21
19.403
  0
LINE
  8
0
 10
-30.739
 11
-31.203
 20
19.403
 21
19.583
  0
LINE
  8
0
 10
-31.203
 11
-31.627
 20
19.583
 21
19.845
  0
LINE
  8
0
 10
-31.627
 11
-31.995
 20
19.845
 21
20.181
  0
LINE
  8
0
 10
-31.995
 11
-32.296
 20
20.181
 21
20.579
  0
LINE
  8
0
 10
-32.296
 11
-32.518
 20
20.579
 21
21.025
  0
LINE
  8
0
 10
-32.518
 11
-32.654
 20
21.025
 21
21.504
  0
LINE
  8
0
 10
-32.654
 11
-32.7
 20
21.504
 21
22
  0
LINE
  8
0
 10
-32.7
 11
-32.654
 20
74
 21
74.496
  0
LINE
  8
0
 10
-32.654
 11
-32.518
 20
74.496
 21
74.975
  0
LINE
  8
0
 10
-32.518
 11
-32.296
 20
74.975
 21
75.421
  0
LINE
  8
0
 10
-32.296
 11
-31.995
 20
75.421
 21
75.819
  0
LINE
  8
0
 10
-31.995
 11
-31.627
 20
75.819
 21
76.155
  0
LINE
  8
0
 10
-31.627
 11
-31.203
 20
76.155
 21
76.417
  0
LINE
  8
0
 10
-31.203
 11
-30.739
 20
76.417
 21
76.597
  0
LINE
  8
0
 10
-30.739
 11
-30.249
 20
76.597
 21
76.688
  0
LINE
  8
0
 10
-30.249
 11
-29.751
 20
76.688
 21
76.688
  0
LINE
  8
0
 10
-29.751
 11
-29.261
 20
76.688
 21
76.597
  0
LINE
  8
0
 10
-29.261
 11
-28.797
 20
76.597
 21
76.417
  0
LINE
  8
0
 10
-28.797
 11
-28.373
 20
76.417
 21
76.155
  0
LINE
  8
0
 10
-28.373
 11
-28.005
 20
76.155
 21
75.819
  0
LINE
  8
0
 10
-28.005
 11
-27.704
 20
75.819
 21
75.421
  0
LINE
  8
0
 10
-27.704
 11
-27.482
 20
75.421
 21
74.975
  0
LINE
  8
0
 10
-27.482
 11
-27.346
 20
74.975
 21
74.496
  0
LINE
  8
0
 10
-27.346
 11
-27.3
 20
74.496
 21
74
  0
LINE
  8
0
 10
-27.3
 11
-27.346
 20
74
 21
73.504
  0
LINE
  8
0
 10
-27.346
 11
-27.482
 20
73.504
 21
73.025
  0
LINE
  8
0
 10
-27.482
 11
-27.704
 20
73.025
 21
72.579
  0
LINE
  8
0
 10
-27.704
 11
-28.005
 20
72.579
 21
72.181
  0
LINE
  8
0
 10
-28.005
 11
-28.373
 20
72.181
 21
71.845
  0
LINE
  8
0
 10
-28.373
 11
-28.797
 20
71.845
 21
71.583
  0
LINE
  8
0
 10
-28.797
 11
-29.261
 20
71.583
 21
71.403
  0
LINE
  8
0
 10
-29.261
 11
-29.751
 20
71.403
 21
71.312
  0
LINE
  8
0
 10
-29.751
 11
-30.249
 20
71.312
 21
71.312
  0
LINE
  8
0
 10
-30.249
 11
-30.739
 20
71.312
 21
71.403
  0
LINE
  8
0
 10
-30.739
 11
-31.203
 20
71.403
 21
71.583
  0
LINE
  8
0
 10
-31.203
 11
-31.627
 20
71.583
 21
71.845
  0
LINE
  8
0
 10
-31.627
 11
-31.995
 20
71.845
 21
72.181
  0
LINE
  8
0
 10
-31.995
 11
-32.296
 20
72.181
 21
72.579
  0
LINE
  8
0
 10
-32.296
 11
-32.518
 20
72.579
 21
73.025
  0
LINE
  8
0
 10
-32.518
 11
-32.654
 20
73.025
 21
73.504
  0
LINE
  8
0
 10
-32.654
 11
-32.7
 20
73.504
 21
74
  0
LINE
  8
0
 10
-32.7
 11
-32.654
 20
126
 21
126.496
  0
LINE
  8
0
 10
-32.654
 11
-32.518
 20
126.496
 21
126.975
  0
LINE
  8
0
 10
-32.518
 11
-32.296
 20
126.975
 21
127.421
  0
LINE
  8
0
 10
-32.296
 11
-31.995
 20
127.421
 21
127.819
  0
LINE
  8
0
 10
-31.995
 11
-31.627
 20
127.819
 21
128.155
  0
LINE
  8
0
 10
-31.627
 11
-31.203
 20
128.155
 21
128.417
  0
LINE
  8
0
 10
-31.203
 11
-30.739
 20
128.417
 21
128.597
  0
LINE
  8
0
 10
-30.739
 11
-30.249
 20
128.597
 21
128.688
  0
LINE
  8
0
 10
-30.249
 11
-29.751
 20
128.688
 21
128.688
  0
LINE
  8
0
 10
-29.751
 11
-29.261
 20
128.688
 21
128.597
  0
LINE
  8
0
 10
-29.261
 11
-28.797
 20
128.597
 21
128.417
  0
LINE
  8
0
 10
-28.797
 11
-28.373
 20
128.417
 21
128.155
  0
LINE
  8
0
 10
-28.373
 11
-28.005
 20
128.155
 21
127.819
  0
LINE
  8
0
 10
-28.005
 11
-27.704
 20
127.819
 21
127.421
  0
LINE
  8
0
 10
-27.704
 11
-27.482
 20
127.421
 21
126.975
  0
LINE
  8
0
 10
-27.482
 11
-27.346
 20
126.975
 21
126.496
  0
LINE
  8
0
 10
-27.346
 11
-27.3
 20
126.496
 21
126
  0
LINE
  8
0
 10
-27.3
 11
-27.346
 20
126
 21
125.504
  0
LINE
  8
0
 10
-27.346
 11
-27.482
 20
125.504
 21
125.025
  0
LINE
  8
0
 10
-27.482
 11
-27.704
 20
125.025
 21
124.579
  0
LINE
  8
0
 10
-27.704
 11
-28.005
 20
124.579
 21
124.181
  0
LINE
  8
0
 10
-28.005
 11
-28.373
 20
124.181
 21
123.845
  0
LINE
  8
0
 10
-28.373
 11
-28.797
 20
123.845
 21
123.583
  0
LINE
  8
0
 10
-28.797
 11
-29.261
 20
123.583
 21
123.403
  0
LINE
  8
0
 10
-29.261
 11
-29.751
 20
123.403
 21
123.312
  0
LINE
  8
0
 10
-29.751
 11
-30.249
 20
123.312
 21
123.312
  0
LINE
  8
0
 10
-30.249
 11
-30.739
 20
123.312
 21
123.403
  0
LINE
  8
0
 10
-30.739
 11
-31.203
 20
123.403
 21
123.583
  0
LINE
  8
0
 10
-31.203
 11
-31.627
 20
123.583
 21
123.845
  0
LINE
  8
0
 10
-31.627
 11
-31.995
 20
123.845
 21
124.181
  0
LINE
  8
0
 10
-31.995
 11
-32.296
 20
124.181
 21
124.579
  0
LINE
  8
0
 10
-32.296
 11
-32.518
 20
124.579
 21
125.025
  0
LINE
  8
0
 10
-32.518
 11
-32.654
 20
125.025
 21
125.504
  0
LINE
  8
0
 10
-32.654
 11
-32.7
 20
125.504
 21
126
  0
LINE
  8
0
 10
-32.485
 11
-32.485
 20
-16.91
 21
-11.674
  0
LINE
  8
0
 10
-32.485
 11
-32.428
 20
-11.674
 21
-11.455
  0
LINE
  8
0
 10
-32.428
 11
-32.29
 20
-11.455
 21
-11.364
  0
LINE
  8
0
 10
-32.29
 11
-28.357
 20
-11.364
 21
-11.364
  0
LINE
  8
0
 10
-28.357
 11
-32.485
 20
-11.364
 21
-16.91
  0
LINE
  8
0
 10
-32.337
 11
-30.181
 20
38.731
 21
42.16
  0
LINE
  8
0
 10
-30.181
 11
-28.81
 20
42.16
 21
42.16
  0
LINE
  8
0
 10
-28.81
 11
-28.81
 20
42.16
 21
32
  0
LINE
  8
0
 10
-28.81
 11
-29.958
 20
32
 21
32
  0
LINE
  8
0
 10
-29.958
 11
-29.958
 20
32
 21
40.129
  0
LINE
  8
0
 10
-29.958
 11
-30.84
 20
40.129
 21
38.731
  0
LINE
  8
0
 10
-30.84
 11
-32.337
 20
38.731
 21
38.731
  0
LINE
  8
0
 10
-32.167
 11
-28.04
 20
-18.475
 21
-12.93
  0
LINE
  8
0
 10
-28.04
 11
-28.04
 20
-12.93
 21
-18.165
  0
LINE
  8
0
 10
-28.04
 11
-28.098
 20
-18.165
 21
-18.384
  0
LINE
  8
0
 10
-28.098
 11
-28.234
 20
-18.384
 21
-18.475
  0
LINE
  8
0
 10
-28.234
 11
-32.167
 20
-18.475
 21
-18.475
  0
LINE
  8
0
 10
-30
 11
-30
 20
-174.165
 21
-173.741
  0
LINE
  8
0
 10
-30
 11
-29.048
 20
-173.741
 21
-173.741
  0
LINE
  8
0
 10
-29.048
 11
-29.048
 20
-173.741
 21
-174.165
  0
LINE
  8
0
 10
-29.048
 11
-28.99
 20
-174.165
 21
-174.384
  0
LINE
  8
0
 10
-28.99
 11
-28.853
 20
-174.384
 21
-174.475
  0
LINE
  8
0
 10
-28.853
 11
-24.796
 20
-174.475
 21
-174.475
  0
LINE
  8
0
 10
-24.796
 11
-24.66
 20
-174.475
 21
-174.384
  0
LINE
  8
0
 10
-24.66
 11
-24.603
 20
-174.384
 21
-174.165
  0
LINE
  8
0
 10
-24.603
 11
-24.603
 20
-174.165
 21
-171.894
  0
LINE
  8
0
 10
-24.603
 11
-24.66
 20
-171.894
 21
-171.675
  0
LINE
  8
0
 10
-24.66
 11
-24.796
 20
-171.675
 21
-171.583
  0
LINE
  8
0
 10
-24.796
 11
-28.853
 20
-171.583
 21
-171.583
  0
LINE
  8
0
 10
-28.853
 11
-28.853
 20
-171.583
 21
-170.059
  0
LINE
  8
0
 10
-28.853
 11
-25.061
 20
-170.059
 21
-170.059
  0
LINE
  8
0
 10
-25.061
 11
-24.924
 20
-170.059
 21
-169.967
  0
LINE
  8
0
 10
-24.924
 11
-24.866
 20
-169.967
 21
-169.749
  0
LINE
  8
0
 10
-24.866
 11
-24.866
 20
-169.749
 21
-167.674
  0
LINE
  8
0
 10
-24.866
 11
-24.924
 20
-167.674
 21
-167.455
  0
LINE
  8
0
 10
-24.924
 11
-25.061
 20
-167.455
 21
-167.364
  0
LINE
  8
0
 10
-25.061
 11
-28.853
 20
-167.364
 21
-167.364
  0
LINE
  8
0
 10
-28.853
 11
-28.99
 20
-167.364
 21
-167.455
  0
LINE
  8
0
 10
-28.99
 11
-29.048
 20
-167.455
 21
-167.674
  0
LINE
  8
0
 10
-29.048
 11
-29.048
 20
-167.674
 21
-168.239
  0
LINE
  8
0
 10
-29.048
 11
-30
 20
-168.239
 21
-168.239
  0
LINE
  8
0
 10
-30
 11
-30
 20
-168.239
 21
-167.674
  0
LINE
  8
0
 10
-30
 11
-29.911
 20
-167.674
 21
-166.961
  0
LINE
  8
0
 10
-29.911
 11
-29.665
 20
-166.961
 21
-166.376
  0
LINE
  8
0
 10
-29.665
 11
-29.299
 20
-166.376
 21
-165.981
  0
LINE
  8
0
 10
-29.299
 11
-28.853
 20
-165.981
 21
-165.84
  0
LINE
  8
0
 10
-28.853
 11
-25.061
 20
-165.84
 21
-165.84
  0
LINE
  8
0
 10
-25.061
 11
-24.615
 20
-165.84
 21
-165.981
  0
LINE
  8
0
 10
-24.615
 11
-24.25
 20
-165.981
 21
-166.376
  0
LINE
  8
0
 10
-24.25
 11
-24.002
 20
-166.376
 21
-166.961
  0
LINE
  8
0
 10
-24.002
 11
-23.914
 20
-166.961
 21
-167.674
  0
LINE
  8
0
 10
-23.914
 11
-23.914
 20
-167.674
 21
-169.749
  0
LINE
  8
0
 10
-23.914
 11
-24.029
 20
-169.749
 21
-170.539
  0
LINE
  8
0
 10
-24.029
 11
-23.751
 20
-170.539
 21
-171.131
  0
LINE
  8
0
 10
-23.751
 11
-23.65
 20
-171.131
 21
-171.894
  0
LINE
  8
0
 10
-23.65
 11
-23.65
 20
-171.894
 21
-174.165
  0
LINE
  8
0
 10
-23.65
 11
-23.737
 20
-174.165
 21
-174.877
  0
LINE
  8
0
 10
-23.737
 11
-23.985
 20
-174.877
 21
-175.464
  0
LINE
  8
0
 10
-23.985
 11
-24.351
 20
-175.464
 21
-175.859
  0
LINE
  8
0
 10
-24.351
 11
-24.796
 20
-175.859
 21
-176
  0
LINE
  8
0
 10
-24.796
 11
-28.853
 20
-176
 21
-176
  0
LINE
  8
0
 10
-28.853
 11
-29.299
 20
-176
 21
-175.859
  0
LINE
  8
0
 10
-29.299
 11
-29.665
 20
-175.859
 21
-175.464
  0
LINE
  8
0
 10
-29.665
 11
-29.911
 20
-175.464
 21
-174.877
  0
LINE
  8
0
 10
-29.911
 11
-30
 20
-174.877
 21
-174.165
  0
LINE
  8
0
 10
-30
 11
-30
 20
-124
 21
-120.134
  0
LINE
  8
0
 10
-30
 11
-29.911
 20
-120.134
 21
-119.421
  0
LINE
  8
0
 10
-29.911
 11
-29.665
 20
-119.421
 21
-118.835
  0
LINE
  8
0
 10
-29.665
 11
-29.299
 20
-118.835
 21
-118.44
  0
LINE
  8
0
 10
-29.299
 11
-28.853
 20
-118.44
 21
-118.299
  0
LINE
  8
0
 10
-28.853
 11
-24.796
 20
-118.299
 21
-118.299
  0
LINE
  8
0
 10
-24.796
 11
-24.66
 20
-118.299
 21
-118.208
  0
LINE
  8
0
 10
-24.66
 11
-24.603
 20
-118.208
 21
-117.989
  0
LINE
  8
0
 10
-24.603
 11
-24.603
 20
-117.989
 21
-115.674
  0
LINE
  8
0
 10
-24.603
 11
-24.66
 20
-115.674
 21
-115.455
  0
LINE
  8
0
 10
-24.66
 11
-24.796
 20
-115.455
 21
-115.364
  0
LINE
  8
0
 10
-24.796
 11
-28.853
 20
-115.364
 21
-115.364
  0
LINE
  8
0
 10
-28.853
 11
-28.99
 20
-115.364
 21
-115.455
  0
LINE
  8
0
 10
-28.99
 11
-29.048
 20
-115.455
 21
-115.674
  0
LINE
  8
0
 10
-29.048
 11
-29.048
 20
-115.674
 21
-116.266
  0
LINE
  8
0
 10
-29.048
 11
-30
 20
-116.266
 21
-116.266
  0
LINE
  8
0
 10
-30
 11
-30
 20
-116.266
 21
-115.674
  0
LINE
  8
0
 10
-30
 11
-29.911
 20
-115.674
 21
-114.961
  0
LINE
  8
0
 10
-29.911
 11
-29.665
 20
-114.961
 21
-114.376
  0
LINE
  8
0
 10
-29.665
 11
-29.299
 20
-114.376
 21
-113.981
  0
LINE
  8
0
 10
-29.299
 11
-28.853
 20
-113.981
 21
-113.84
  0
LINE
  8
0
 10
-28.853
 11
-24.796
 20
-113.84
 21
-113.84
  0
LINE
  8
0
 10
-24.796
 11
-24.351
 20
-113.84
 21
-113.981
  0
LINE
  8
0
 10
-24.351
 11
-23.985
 20
-113.981
 21
-114.376
  0
LINE
  8
0
 10
-23.985
 11
-23.737
 20
-114.376
 21
-114.961
  0
LINE
  8
0
 10
-23.737
 11
-23.65
 20
-114.961
 21
-115.674
  0
LINE
  8
0
 10
-23.65
 11
-23.65
 20
-115.674
 21
-117.989
  0
LINE
  8
0
 10
-23.65
 11
-23.737
 20
-117.989
 21
-118.701
  0
LINE
  8
0
 10
-23.737
 11
-23.985
 20
-118.701
 21
-119.286
  0
LINE
  8
0
 10
-23.985
 11
-24.351
 20
-119.286
 21
-119.681
  0
LINE
  8
0
 10
-24.351
 11
-24.796
 20
-119.681
 21
-119.823
  0
LINE
  8
0
 10
-24.796
 11
-28.853
 20
-119.823
 21
-119.823
  0
LINE
  8
0
 10
-28.853
 11
-28.99
 20
-119.823
 21
-119.915
  0
LINE
  8
0
 10
-28.99
 11
-29.048
 20
-119.915
 21
-120.134
  0
LINE
  8
0
 10
-29.048
 11
-29.048
 20
-120.134
 21
-122.165
  0
LINE
  8
0
 10
-29.048
 11
-28.99
 20
-122.165
 21
-122.384
  0
LINE
  8
0
 10
-28.99
 11
-28.853
 20
-122.384
 21
-122.475
  0
LINE
  8
0
 10
-28.853
 11
-23.65
 20
-122.475
 21
-122.475
  0
LINE
  8
0
 10
-23.65
 11
-23.65
 20
-122.475
 21
-124
  0
LINE
  8
0
 10
-23.65
 11
-30
 20
-124
 21
-124
  0
LINE
  8
0
 10
-28.9
 11
-26.744
 20
-65.269
 21
-61.84
  0
LINE
  8
0
 10
-26.744
 11
-25.373
 20
-61.84
 21
-61.84
  0
LINE
  8
0
 10
-25.373
 11
-25.373
 20
-61.84
 21
-72
  0
LINE
  8
0
 10
-25.373
 11
-26.52
 20
-72
 21
-72
  0
LINE
  8
0
 10
-26.52
 11
-26.52
 20
-72
 21
-63.871
  0
LINE
  8
0
 10
-26.52
 11
-27.403
 20
-63.871
 21
-65.269
  0
LINE
  8
0
 10
-27.403
 11
-28.9
 20
-65.269
 21
-65.269
  0
LINE
  8
0
 10
-22.65
 11
-22.65
 20
122.6
 21
129.4
  0
LINE
  8
0
 10
-22.65
 11
-7.35
 20
129.4
 21
129.4
  0
LINE
  8
0
 10
-7.35
 11
-7.35
 20
129.4
 21
122.6
  0
LINE
  8
0
 10
-7.35
 11
-22.65
 20
122.6
 21
122.6
  0
LINE
  8
0
 10
-22.6
 11
-22.6
 20
70.65
 21
77.35
  0
LINE
  8
0
 10
-22.6
 11
-7.4
 20
77.35
 21
77.35
  0
LINE
  8
0
 10
-7.4
 11
-7.4
 20
77.35
 21
70.65
  0
LINE
  8
0
 10
-7.4
 11
-22.6
 20
70.65
 21
70.65
  0
LINE
  8
0
 10
-22.55
 11
-22.55
 20
18.7
 21
25.3
  0
LINE
  8
0
 10
-22.55
 11
-7.45
 20
25.3
 21
25.3
  0
LINE
  8
0
 10
-7.45
 11
-7.45
 20
25.3
 21
18.7
  0
LINE
  8
0
 10
-7.45
 11
-22.55
 20
18.7
 21
18.7
  0
LINE
  8
0
 10
-22.5
 11
-22.5
 20
-33.25
 21
-26.75
  0
LINE
  8
0
 10
-22.5
 11
-7.5
 20
-26.75
 21
-26.75
  0
LINE
  8
0
 10
-7.5
 11
-7.5
 20
-26.75
 21
-33.25
  0
LINE
  8
0
 10
-7.5
 11
-22.5
 20
-33.25
 21
-33.25
  0
LINE
  8
0
 10
-22.45
 11
-22.45
 20
-85.2
 21
-78.8
  0
LINE
  8
0
 10
-22.45
 11
-7.55
 20
-78.8
 21
-78.8
  0
LINE
  8
0
 10
-7.55
 11
-7.55
 20
-78.8
 21
-85.2
  0
LINE
  8
0
 10
-7.55
 11
-22.45
 20
-85.2
 21
-85.2
  0
LINE
  8
0
 10
-22.4
 11
-22.4
 20
-137.15
 21
-130.85
  0
LINE
  8
0
 10
-22.4
 11
-7.6
 20
-130.85
 21
-130.85
  0
LINE
  8
0
 10
-7.6
 11
-7.6
 20
-130.85
 21
-137.15
  0
LINE
  8
0
 10
-7.6
 11
-22.4
 20
-137.15
 21
-137.15
  0
LINE
  8
0
 10
-22.35
 11
-22.35
 20
-189.1
 21
-182.9
  0
LINE
  8
0
 10
-22.35
 11
-7.65
 20
-182.9
 21
-182.9
  0
LINE
  8
0
 10
-7.65
 11
-7.65
 20
-182.9
 21
-189.1
  0
LINE
  8
0
 10
-7.65
 11
-22.35
 20
-189.1
 21
-189.1
  0
ENDSEC
  0
SECTION
  2
OBJECTS
  0
DICTIONARY
  0
ENDSEC
  0
EOF
