  0
SECTION
  2
BLOCKS
  0
ENDSEC
  0
SECTION
  2
ENTITIES
  0
LINE
  8
0
 10
-55
 11
-55
 20
-55
 21
-5
  0
LINE
  8
0
 10
-55
 11
-5
 20
-5
 21
-5
  0
LINE
  8
0
 10
-5
 11
-5
 20
-5
 21
-55
  0
LINE
  8
0
 10
-5
 11
-55
 20
-55
 21
-55
  0
LINE
  8
0
 10
-55
 11
-55
 20
3.25
 21
53.25
  0
LINE
  8
0
 10
-55
 11
-5
 20
53.25
 21
53.25
  0
LINE
  8
0
 10
-5
 11
-5
 20
53.25
 21
3.25
  0
LINE
  8
0
 10
-5
 11
-7.5
 20
3.25
 21
3.25
  0
LINE
  8
0
 10
-7.5
 11
-7.5
 20
3.25
 21
-1.625
  0
LINE
  8
0
 10
-7.5
 11
-9.125
 20
-1.625
 21
-3.25
  0
LINE
  8
0
 10
-9.125
 11
-20.875
 20
-3.25
 21
-3.25
  0
LINE
  8
0
 10
-20.875
 11
-22.5
 20
-3.25
 21
-1.625
  0
LINE
  8
0
 10
-22.5
 11
-22.5
 20
-1.625
 21
3.25
  0
LINE
  8
0
 10
-22.5
 11
-27.2
 20
3.25
 21
3.25
  0
LINE
  8
0
 10
-27.2
 11
-27.2
 20
3.25
 21
10.15
  0
LINE
  8
0
 10
-27.2
 11
-25.405
 20
10.15
 21
10.15
  0
LINE
  8
0
 10
-25.405
 11
-25.405
 20
10.15
 21
15.85
  0
LINE
  8
0
 10
-25.405
 11
-27.2
 20
15.85
 21
15.85
  0
LINE
  8
0
 10
-27.2
 11
-27.2
 20
15.85
 21
22.75
  0
LINE
  8
0
 10
-27.2
 11
-32.8
 20
22.75
 21
22.75
  0
LINE
  8
0
 10
-32.8
 11
-32.8
 20
22.75
 21
15.85
  0
LINE
  8
0
 10
-32.8
 11
-34.595
 20
15.85
 21
15.85
  0
LINE
  8
0
 10
-34.595
 11
-34.595
 20
15.85
 21
10.15
  0
LINE
  8
0
 10
-34.595
 11
-32.8
 20
10.15
 21
10.15
  0
LINE
  8
0
 10
-32.8
 11
-32.8
 20
10.15
 21
3.25
  0
LINE
  8
0
 10
-32.8
 11
-37.5
 20
3.25
 21
3.25
  0
LINE
  8
0
 10
-37.5
 11
-37.5
 20
3.25
 21
-1.625
  0
LINE
  8
0
 10
-37.5
 11
-39.125
 20
-1.625
 21
-3.25
  0
LINE
  8
0
 10
-39.125
 11
-50.875
 20
-3.25
 21
-3.25
  0
LINE
  8
0
 10
-50.875
 11
-52.5
 20
-3.25
 21
-1.625
  0
LINE
  8
0
 10
-52.5
 11
-52.5
 20
-1.625
 21
3.25
  0
LINE
  8
0
 10
-52.5
 11
-55
 20
3.25
 21
3.25
  0
LINE
  8
0
 10
-52.6
 11
-52.6
 20
-33.35
 21
-26.65
  0
LINE
  8
0
 10
-52.6
 11
-37.4
 20
-26.65
 21
-26.65
  0
LINE
  8
0
 10
-37.4
 11
-37.4
 20
-26.65
 21
-33.35
  0
LINE
  8
0
 10
-37.4
 11
-52.6
 20
-33.35
 21
-33.35
  0
LINE
  8
0
 10
-32.7
 11
-32.654
 20
-30
 21
-29.504
  0
LINE
  8
0
 10
-32.654
 11
-32.518
 20
-29.504
 21
-29.025
  0
LINE
  8
0
 10
-32.518
 11
-32.296
 20
-29.025
 21
-28.579
  0
LINE
  8
0
 10
-32.296
 11
-31.995
 20
-28.579
 21
-28.181
  0
LINE
  8
0
 10
-31.995
 11
-31.627
 20
-28.181
 21
-27.845
  0
LINE
  8
0
 10
-31.627
 11
-31.203
 20
-27.845
 21
-27.583
  0
LINE
  8
0
 10
-31.203
 11
-30.739
 20
-27.583
 21
-27.403
  0
LINE
  8
0
 10
-30.739
 11
-30.249
 20
-27.403
 21
-27.312
  0
LINE
  8
0
 10
-30.249
 11
-29.751
 20
-27.312
 21
-27.312
  0
LINE
  8
0
 10
-29.751
 11
-29.261
 20
-27.312
 21
-27.403
  0
LINE
  8
0
 10
-29.261
 11
-28.797
 20
-27.403
 21
-27.583
  0
LINE
  8
0
 10
-28.797
 11
-28.373
 20
-27.583
 21
-27.845
  0
LINE
  8
0
 10
-28.373
 11
-28.005
 20
-27.845
 21
-28.181
  0
LINE
  8
0
 10
-28.005
 11
-27.704
 20
-28.181
 21
-28.579
  0
LINE
  8
0
 10
-27.704
 11
-27.482
 20
-28.579
 21
-29.025
  0
LINE
  8
0
 10
-27.482
 11
-27.346
 20
-29.025
 21
-29.504
  0
LINE
  8
0
 10
-27.346
 11
-27.3
 20
-29.504
 21
-30
  0
LINE
  8
0
 10
-27.3
 11
-27.346
 20
-30
 21
-30.496
  0
LINE
  8
0
 10
-27.346
 11
-27.482
 20
-30.496
 21
-30.975
  0
LINE
  8
0
 10
-27.482
 11
-27.704
 20
-30.975
 21
-31.421
  0
LINE
  8
0
 10
-27.704
 11
-28.005
 20
-31.421
 21
-31.819
  0
LINE
  8
0
 10
-28.005
 11
-28.373
 20
-31.819
 21
-32.155
  0
LINE
  8
0
 10
-28.373
 11
-28.797
 20
-32.155
 21
-32.417
  0
LINE
  8
0
 10
-28.797
 11
-29.261
 20
-32.417
 21
-32.597
  0
LINE
  8
0
 10
-29.261
 11
-29.751
 20
-32.597
 21
-32.688
  0
LINE
  8
0
 10
-29.751
 11
-30.249
 20
-32.688
 21
-32.688
  0
LINE
  8
0
 10
-30.249
 11
-30.739
 20
-32.688
 21
-32.597
  0
LINE
  8
0
 10
-30.739
 11
-31.203
 20
-32.597
 21
-32.417
  0
LINE
  8
0
 10
-31.203
 11
-31.627
 20
-32.417
 21
-32.155
  0
LINE
  8
0
 10
-31.627
 11
-31.995
 20
-32.155
 21
-31.819
  0
LINE
  8
0
 10
-31.995
 11
-32.296
 20
-31.819
 21
-31.421
  0
LINE
  8
0
 10
-32.296
 11
-32.518
 20
-31.421
 21
-30.975
  0
LINE
  8
0
 10
-32.518
 11
-32.654
 20
-30.975
 21
-30.496
  0
LINE
  8
0
 10
-32.654
 11
-32.7
 20
-30.496
 21
-30
  0
LINE
  8
0
 10
-22.6
 11
-22.6
 20
-33.35
 21
-26.65
  0
LINE
  8
0
 10
-22.6
 11
-7.4
 20
-26.65
 21
-26.65
  0
LINE
  8
0
 10
-7.4
 11
-7.4
 20
-26.65
 21
-33.35
  0
LINE
  8
0
 10
-7.4
 11
-22.6
 20
-33.35
 21
-33.35
  0
ENDSEC
  0
SECTION
  2
OBJECTS
  0
DICTIONARY
  0
ENDSEC
  0
EOF
