  0
SECTION
  2
BLOCKS
  0
ENDSEC
  0
SECTION
  2
ENTITIES
  0
LINE
  8
0
 10
-5
 20
-7
 11
-55
 21
-7
  0
LINE
  8
0
 10
-55
 20
-7
 11
-55
 21
-77
  0
LINE
  8
0
 10
-55
 20
-77
 11
-5
 21
-77
  0
LINE
  8
0
 10
-5
 20
-77
 11
-5
 21
-7
  0
LINE
  8
0
 10
-19.6448
 20
-20
 11
-19.6448
 21
-11.8713
  0
LINE
  8
0
 10
-19.6448
 20
-11.8713
 11
-20.5273
 21
-13.269
  0
LINE
  8
0
 10
-20.5273
 20
-13.269
 11
-22.0251
 21
-13.269
  0
LINE
  8
0
 10
-22.0251
 20
-13.269
 11
-19.8682
 21
-9.84009
  0
LINE
  8
0
 10
-19.8682
 20
-9.84009
 11
-18.4973
 21
-9.84009
  0
LINE
  8
0
 10
-18.4973
 20
-9.84009
 11
-18.4973
 21
-20
  0
LINE
  8
0
 10
-18.4973
 20
-20
 11
-19.6448
 21
-20
  0
LINE
  8
0
 10
-35.7275
 20
-20
 11
-36.1731
 21
-19.8584
  0
LINE
  8
0
 10
-36.1731
 20
-19.8584
 11
-36.5393
 21
-19.4629
  0
LINE
  8
0
 10
-36.5393
 20
-19.4629
 11
-36.7871
 21
-18.8782
  0
LINE
  8
0
 10
-36.7871
 20
-18.8782
 11
-36.875
 21
-18.1653
  0
LINE
  8
0
 10
-36.875
 20
-18.1653
 11
-36.875
 21
-11.6736
  0
LINE
  8
0
 10
-36.875
 20
-11.6736
 11
-36.7871
 21
-10.9619
  0
LINE
  8
0
 10
-36.7871
 20
-10.9619
 11
-36.5393
 21
-10.376
  0
LINE
  8
0
 10
-36.5393
 20
-10.376
 11
-36.1731
 21
-9.98047
  0
LINE
  8
0
 10
-36.1731
 20
-9.98047
 11
-35.7275
 21
-9.84009
  0
LINE
  8
0
 10
-35.7275
 20
-9.84009
 11
-31.6711
 21
-9.84009
  0
LINE
  8
0
 10
-31.6711
 20
-9.84009
 11
-31.2256
 21
-9.98047
  0
LINE
  8
0
 10
-31.2256
 20
-9.98047
 11
-30.8594
 21
-10.376
  0
LINE
  8
0
 10
-30.8594
 20
-10.376
 11
-30.6128
 21
-10.9619
  0
LINE
  8
0
 10
-30.6128
 20
-10.9619
 11
-30.5249
 21
-11.6736
  0
LINE
  8
0
 10
-30.5249
 20
-11.6736
 11
-30.5249
 21
-18.1653
  0
LINE
  8
0
 10
-30.5249
 20
-18.1653
 11
-30.6128
 21
-18.8782
  0
LINE
  8
0
 10
-30.6128
 20
-18.8782
 11
-30.8594
 21
-19.4629
  0
LINE
  8
0
 10
-30.8594
 20
-19.4629
 11
-31.2256
 21
-19.8584
  0
LINE
  8
0
 10
-31.2256
 20
-19.8584
 11
-31.6711
 21
-20
  0
LINE
  8
0
 10
-31.6711
 20
-20
 11
-35.7275
 21
-20
  0
LINE
  8
0
 10
-31.7944
 20
-11.3635
 11
-35.7275
 21
-11.3635
  0
LINE
  8
0
 10
-35.7275
 20
-11.3635
 11
-35.8643
 21
-11.4551
  0
LINE
  8
0
 10
-35.8643
 20
-11.4551
 11
-35.9216
 21
-11.6736
  0
LINE
  8
0
 10
-35.9216
 20
-11.6736
 11
-35.9216
 21
-16.9092
  0
LINE
  8
0
 10
-35.9216
 20
-16.9092
 11
-31.7944
 21
-11.3635
  0
LINE
  8
0
 10
-31.5344
 20
-18.3838
 11
-31.4771
 21
-18.1653
  0
LINE
  8
0
 10
-31.4771
 20
-18.1653
 11
-31.4771
 21
-12.9297
  0
LINE
  8
0
 10
-31.4771
 20
-12.9297
 11
-35.6042
 21
-18.4753
  0
LINE
  8
0
 10
-35.6042
 20
-18.4753
 11
-31.6711
 21
-18.4753
  0
LINE
  8
0
 10
-31.6711
 20
-18.4753
 11
-31.5344
 21
-18.3838
  0
LINE
  8
0
 10
-43.1177
 20
-15.6445
 11
-43.1177
 21
-14.1211
  0
LINE
  8
0
 10
-43.1177
 20
-14.1211
 11
-38.1787
 21
-14.1211
  0
LINE
  8
0
 10
-38.1787
 20
-14.1211
 11
-38.1787
 21
-15.6445
  0
LINE
  8
0
 10
-38.1787
 20
-15.6445
 11
-43.1177
 21
-15.6445
  0
LINE
  8
0
 10
-27.5134
 20
-20.0195
 11
-27.5134
 21
-18.4949
  0
LINE
  8
0
 10
-27.5134
 20
-18.4949
 11
-26.4551
 21
-18.4949
  0
LINE
  8
0
 10
-26.4551
 20
-18.4949
 11
-26.4551
 21
-20.0195
  0
LINE
  8
0
 10
-26.4551
 20
-20.0195
 11
-27.5134
 21
-20.0195
  0
LINE
  8
0
 10
-22.45
 20
-33.2
 11
-22.45
 21
-26.8
  0
LINE
  8
0
 10
-22.45
 20
-26.8
 11
-7.54999
 21
-26.8
  0
LINE
  8
0
 10
-7.54999
 20
-26.8
 11
-7.54999
 21
-33.2
  0
LINE
  8
0
 10
-7.54999
 20
-33.2
 11
-22.45
 21
-33.2
  0
LINE
  8
0
 10
-52.45
 20
-33.2
 11
-52.45
 21
-26.8
  0
LINE
  8
0
 10
-52.45
 20
-26.8
 11
-37.55
 21
-26.8
  0
LINE
  8
0
 10
-37.55
 20
-26.8
 11
-37.55
 21
-33.2
  0
LINE
  8
0
 10
-37.55
 20
-33.2
 11
-52.45
 21
-33.2
  0
LINE
  8
0
 10
-30.4877
 20
-32.452
 11
-30.9567
 21
-32.3097
  0
LINE
  8
0
 10
-30.9567
 20
-32.3097
 11
-31.3889
 21
-32.0787
  0
LINE
  8
0
 10
-31.3889
 20
-32.0787
 11
-31.7678
 21
-31.7678
  0
LINE
  8
0
 10
-31.7678
 20
-31.7678
 11
-32.0787
 21
-31.3889
  0
LINE
  8
0
 10
-32.0787
 20
-31.3889
 11
-32.3097
 21
-30.9567
  0
LINE
  8
0
 10
-32.3097
 20
-30.9567
 11
-32.452
 21
-30.4877
  0
LINE
  8
0
 10
-32.452
 20
-30.4877
 11
-32.5
 21
-30
  0
LINE
  8
0
 10
-32.5
 20
-30
 11
-32.452
 21
-29.5123
  0
LINE
  8
0
 10
-32.452
 20
-29.5123
 11
-32.3097
 21
-29.0433
  0
LINE
  8
0
 10
-32.3097
 20
-29.0433
 11
-32.0787
 21
-28.6111
  0
LINE
  8
0
 10
-32.0787
 20
-28.6111
 11
-31.7678
 21
-28.2322
  0
LINE
  8
0
 10
-31.7678
 20
-28.2322
 11
-31.3889
 21
-27.9213
  0
LINE
  8
0
 10
-31.3889
 20
-27.9213
 11
-30.9567
 21
-27.6903
  0
LINE
  8
0
 10
-30.9567
 20
-27.6903
 11
-30.4877
 21
-27.548
  0
LINE
  8
0
 10
-30.4877
 20
-27.548
 11
-30
 21
-27.5
  0
LINE
  8
0
 10
-30
 20
-27.5
 11
-29.5123
 21
-27.548
  0
LINE
  8
0
 10
-29.5123
 20
-27.548
 11
-29.0433
 21
-27.6903
  0
LINE
  8
0
 10
-29.0433
 20
-27.6903
 11
-28.6111
 21
-27.9213
  0
LINE
  8
0
 10
-28.6111
 20
-27.9213
 11
-28.2322
 21
-28.2322
  0
LINE
  8
0
 10
-28.2322
 20
-28.2322
 11
-27.9213
 21
-28.6111
  0
LINE
  8
0
 10
-27.9213
 20
-28.6111
 11
-27.6903
 21
-29.0433
  0
LINE
  8
0
 10
-27.6903
 20
-29.0433
 11
-27.548
 21
-29.5123
  0
LINE
  8
0
 10
-27.548
 20
-29.5123
 11
-27.5
 21
-30
  0
LINE
  8
0
 10
-27.5
 20
-30
 11
-27.548
 21
-30.4877
  0
LINE
  8
0
 10
-27.548
 20
-30.4877
 11
-27.6903
 21
-30.9567
  0
LINE
  8
0
 10
-27.6903
 20
-30.9567
 11
-27.9213
 21
-31.3889
  0
LINE
  8
0
 10
-27.9213
 20
-31.3889
 11
-28.2322
 21
-31.7678
  0
LINE
  8
0
 10
-28.2322
 20
-31.7678
 11
-28.6111
 21
-32.0787
  0
LINE
  8
0
 10
-28.6111
 20
-32.0787
 11
-29.0433
 21
-32.3097
  0
LINE
  8
0
 10
-29.0433
 20
-32.3097
 11
-29.5123
 21
-32.452
  0
LINE
  8
0
 10
-29.5123
 20
-32.452
 11
-30
 21
-32.5
  0
LINE
  8
0
 10
-30
 20
-32.5
 11
-30.4877
 21
-32.452
  0
LINE
  8
0
 10
-43
 20
-41.05
 11
-47
 21
-37.05
  0
LINE
  8
0
 10
-47
 20
-37.05
 11
-47
 21
-36.95
  0
LINE
  8
0
 10
-47
 20
-36.95
 11
-33
 21
-36.95
  0
LINE
  8
0
 10
-33
 20
-36.95
 11
-33
 21
-37.05
  0
LINE
  8
0
 10
-33
 20
-37.05
 11
-37
 21
-41.05
  0
LINE
  8
0
 10
-37
 20
-41.05
 11
-43
 21
-41.05
  0
LINE
  8
0
 10
-23
 20
-41.05
 11
-27
 21
-37.05
  0
LINE
  8
0
 10
-27
 20
-37.05
 11
-27
 21
-36.95
  0
LINE
  8
0
 10
-27
 20
-36.95
 11
-13
 21
-36.95
  0
LINE
  8
0
 10
-13
 20
-36.95
 11
-13
 21
-37.05
  0
LINE
  8
0
 10
-13
 20
-37.05
 11
-17
 21
-41.05
  0
LINE
  8
0
 10
-17
 20
-41.05
 11
-23
 21
-41.05
  0
LINE
  8
0
 10
-48.05
 20
-52
 11
-48.05
 21
-38
  0
LINE
  8
0
 10
-48.05
 20
-38
 11
-47.95
 21
-38
  0
LINE
  8
0
 10
-47.95
 20
-38
 11
-43.95
 21
-42
  0
LINE
  8
0
 10
-43.95
 20
-42
 11
-43.95
 21
-48
  0
LINE
  8
0
 10
-43.95
 20
-48
 11
-47.95
 21
-52
  0
LINE
  8
0
 10
-47.95
 20
-52
 11
-48.05
 21
-52
  0
LINE
  8
0
 10
-28.05
 20
-52
 11
-28.05
 21
-38
  0
LINE
  8
0
 10
-28.05
 20
-38
 11
-27.95
 21
-38
  0
LINE
  8
0
 10
-27.95
 20
-38
 11
-23.95
 21
-42
  0
LINE
  8
0
 10
-23.95
 20
-42
 11
-23.95
 21
-48
  0
LINE
  8
0
 10
-23.95
 20
-48
 11
-27.95
 21
-52
  0
LINE
  8
0
 10
-27.95
 20
-52
 11
-28.05
 21
-52
  0
LINE
  8
0
 10
-12.05
 20
-52
 11
-16.05
 21
-48
  0
LINE
  8
0
 10
-16.05
 20
-48
 11
-16.05
 21
-42
  0
LINE
  8
0
 10
-16.05
 20
-42
 11
-12.05
 21
-38
  0
LINE
  8
0
 10
-12.05
 20
-38
 11
-11.95
 21
-38
  0
LINE
  8
0
 10
-11.95
 20
-38
 11
-11.95
 21
-52
  0
LINE
  8
0
 10
-11.95
 20
-52
 11
-12.05
 21
-52
  0
LINE
  8
0
 10
-32.05
 20
-52
 11
-36.05
 21
-48
  0
LINE
  8
0
 10
-36.05
 20
-48
 11
-36.05
 21
-42
  0
LINE
  8
0
 10
-36.05
 20
-42
 11
-32.05
 21
-38
  0
LINE
  8
0
 10
-32.05
 20
-38
 11
-31.95
 21
-38
  0
LINE
  8
0
 10
-31.95
 20
-38
 11
-31.95
 21
-52
  0
LINE
  8
0
 10
-31.95
 20
-52
 11
-32.05
 21
-52
  0
LINE
  8
0
 10
-20.4877
 20
-47.452
 11
-20.9567
 21
-47.3097
  0
LINE
  8
0
 10
-20.9567
 20
-47.3097
 11
-21.3889
 21
-47.0787
  0
LINE
  8
0
 10
-21.3889
 20
-47.0787
 11
-21.7678
 21
-46.7678
  0
LINE
  8
0
 10
-21.7678
 20
-46.7678
 11
-22.0787
 21
-46.3889
  0
LINE
  8
0
 10
-22.0787
 20
-46.3889
 11
-22.3097
 21
-45.9567
  0
LINE
  8
0
 10
-22.3097
 20
-45.9567
 11
-22.452
 21
-45.4877
  0
LINE
  8
0
 10
-22.452
 20
-45.4877
 11
-22.5
 21
-45
  0
LINE
  8
0
 10
-22.5
 20
-45
 11
-22.452
 21
-44.5123
  0
LINE
  8
0
 10
-22.452
 20
-44.5123
 11
-22.3097
 21
-44.0433
  0
LINE
  8
0
 10
-22.3097
 20
-44.0433
 11
-22.0787
 21
-43.6111
  0
LINE
  8
0
 10
-22.0787
 20
-43.6111
 11
-21.7678
 21
-43.2322
  0
LINE
  8
0
 10
-21.7678
 20
-43.2322
 11
-21.3889
 21
-42.9213
  0
LINE
  8
0
 10
-21.3889
 20
-42.9213
 11
-20.9567
 21
-42.6903
  0
LINE
  8
0
 10
-20.9567
 20
-42.6903
 11
-20.4877
 21
-42.548
  0
LINE
  8
0
 10
-20.4877
 20
-42.548
 11
-20
 21
-42.5
  0
LINE
  8
0
 10
-20
 20
-42.5
 11
-19.5123
 21
-42.548
  0
LINE
  8
0
 10
-19.5123
 20
-42.548
 11
-19.0433
 21
-42.6903
  0
LINE
  8
0
 10
-19.0433
 20
-42.6903
 11
-18.6111
 21
-42.9213
  0
LINE
  8
0
 10
-18.6111
 20
-42.9213
 11
-18.2322
 21
-43.2322
  0
LINE
  8
0
 10
-18.2322
 20
-43.2322
 11
-17.9213
 21
-43.6111
  0
LINE
  8
0
 10
-17.9213
 20
-43.6111
 11
-17.6903
 21
-44.0433
  0
LINE
  8
0
 10
-17.6903
 20
-44.0433
 11
-17.548
 21
-44.5123
  0
LINE
  8
0
 10
-17.548
 20
-44.5123
 11
-17.5
 21
-45
  0
LINE
  8
0
 10
-17.5
 20
-45
 11
-17.548
 21
-45.4877
  0
LINE
  8
0
 10
-17.548
 20
-45.4877
 11
-17.6903
 21
-45.9567
  0
LINE
  8
0
 10
-17.6903
 20
-45.9567
 11
-17.9213
 21
-46.3889
  0
LINE
  8
0
 10
-17.9213
 20
-46.3889
 11
-18.2322
 21
-46.7678
  0
LINE
  8
0
 10
-18.2322
 20
-46.7678
 11
-18.6111
 21
-47.0787
  0
LINE
  8
0
 10
-18.6111
 20
-47.0787
 11
-19.0433
 21
-47.3097
  0
LINE
  8
0
 10
-19.0433
 20
-47.3097
 11
-19.5123
 21
-47.452
  0
LINE
  8
0
 10
-19.5123
 20
-47.452
 11
-20
 21
-47.5
  0
LINE
  8
0
 10
-20
 20
-47.5
 11
-20.4877
 21
-47.452
  0
LINE
  8
0
 10
-40.4877
 20
-47.452
 11
-40.9567
 21
-47.3097
  0
LINE
  8
0
 10
-40.9567
 20
-47.3097
 11
-41.3889
 21
-47.0787
  0
LINE
  8
0
 10
-41.3889
 20
-47.0787
 11
-41.7678
 21
-46.7678
  0
LINE
  8
0
 10
-41.7678
 20
-46.7678
 11
-42.0787
 21
-46.3889
  0
LINE
  8
0
 10
-42.0787
 20
-46.3889
 11
-42.3097
 21
-45.9567
  0
LINE
  8
0
 10
-42.3097
 20
-45.9567
 11
-42.452
 21
-45.4877
  0
LINE
  8
0
 10
-42.452
 20
-45.4877
 11
-42.5
 21
-45
  0
LINE
  8
0
 10
-42.5
 20
-45
 11
-42.452
 21
-44.5123
  0
LINE
  8
0
 10
-42.452
 20
-44.5123
 11
-42.3097
 21
-44.0433
  0
LINE
  8
0
 10
-42.3097
 20
-44.0433
 11
-42.0787
 21
-43.6111
  0
LINE
  8
0
 10
-42.0787
 20
-43.6111
 11
-41.7678
 21
-43.2322
  0
LINE
  8
0
 10
-41.7678
 20
-43.2322
 11
-41.3889
 21
-42.9213
  0
LINE
  8
0
 10
-41.3889
 20
-42.9213
 11
-40.9567
 21
-42.6903
  0
LINE
  8
0
 10
-40.9567
 20
-42.6903
 11
-40.4877
 21
-42.548
  0
LINE
  8
0
 10
-40.4877
 20
-42.548
 11
-40
 21
-42.5
  0
LINE
  8
0
 10
-40
 20
-42.5
 11
-39.5123
 21
-42.548
  0
LINE
  8
0
 10
-39.5123
 20
-42.548
 11
-39.0433
 21
-42.6903
  0
LINE
  8
0
 10
-39.0433
 20
-42.6903
 11
-38.6111
 21
-42.9213
  0
LINE
  8
0
 10
-38.6111
 20
-42.9213
 11
-38.2322
 21
-43.2322
  0
LINE
  8
0
 10
-38.2322
 20
-43.2322
 11
-37.9213
 21
-43.6111
  0
LINE
  8
0
 10
-37.9213
 20
-43.6111
 11
-37.6903
 21
-44.0433
  0
LINE
  8
0
 10
-37.6903
 20
-44.0433
 11
-37.548
 21
-44.5123
  0
LINE
  8
0
 10
-37.548
 20
-44.5123
 11
-37.5
 21
-45
  0
LINE
  8
0
 10
-37.5
 20
-45
 11
-37.548
 21
-45.4877
  0
LINE
  8
0
 10
-37.548
 20
-45.4877
 11
-37.6903
 21
-45.9567
  0
LINE
  8
0
 10
-37.6903
 20
-45.9567
 11
-37.9213
 21
-46.3889
  0
LINE
  8
0
 10
-37.9213
 20
-46.3889
 11
-38.2322
 21
-46.7678
  0
LINE
  8
0
 10
-38.2322
 20
-46.7678
 11
-38.6111
 21
-47.0787
  0
LINE
  8
0
 10
-38.6111
 20
-47.0787
 11
-39.0433
 21
-47.3097
  0
LINE
  8
0
 10
-39.0433
 20
-47.3097
 11
-39.5123
 21
-47.452
  0
LINE
  8
0
 10
-39.5123
 20
-47.452
 11
-40
 21
-47.5
  0
LINE
  8
0
 10
-40
 20
-47.5
 11
-40.4877
 21
-47.452
  0
LINE
  8
0
 10
-27
 20
-53.05
 11
-27
 21
-52.95
  0
LINE
  8
0
 10
-27
 20
-52.95
 11
-23
 21
-48.95
  0
LINE
  8
0
 10
-23
 20
-48.95
 11
-17
 21
-48.95
  0
LINE
  8
0
 10
-17
 20
-48.95
 11
-13
 21
-52.95
  0
LINE
  8
0
 10
-13
 20
-52.95
 11
-13
 21
-53.05
  0
LINE
  8
0
 10
-13
 20
-53.05
 11
-27
 21
-53.05
  0
LINE
  8
0
 10
-47
 20
-53.05
 11
-47
 21
-52.95
  0
LINE
  8
0
 10
-47
 20
-52.95
 11
-43
 21
-48.95
  0
LINE
  8
0
 10
-43
 20
-48.95
 11
-37
 21
-48.95
  0
LINE
  8
0
 10
-37
 20
-48.95
 11
-33
 21
-52.95
  0
LINE
  8
0
 10
-33
 20
-52.95
 11
-33
 21
-53.05
  0
LINE
  8
0
 10
-33
 20
-53.05
 11
-47
 21
-53.05
  0
LINE
  8
0
 10
-30.4957
 20
-66.8748
 11
-30.9864
 21
-66.7997
  0
LINE
  8
0
 10
-30.9864
 20
-66.7997
 11
-31.4669
 21
-66.6753
  0
LINE
  8
0
 10
-31.4669
 20
-66.6753
 11
-31.9323
 21
-66.5029
  0
LINE
  8
0
 10
-31.9323
 20
-66.5029
 11
-32.378
 21
-66.2843
  0
LINE
  8
0
 10
-32.378
 20
-66.2843
 11
-32.7992
 21
-66.0217
  0
LINE
  8
0
 10
-32.7992
 20
-66.0217
 11
-33.1917
 21
-65.7179
  0
LINE
  8
0
 10
-33.1917
 20
-65.7179
 11
-33.5515
 21
-65.3759
  0
LINE
  8
0
 10
-33.5515
 20
-65.3759
 11
-33.8748
 21
-64.9993
  0
LINE
  8
0
 10
-33.8748
 20
-64.9993
 11
-34.1584
 21
-64.5919
  0
LINE
  8
0
 10
-34.1584
 20
-64.5919
 11
-34.3992
 21
-64.1579
  0
LINE
  8
0
 10
-34.3992
 20
-64.1579
 11
-34.595
 21
-63.7018
  0
LINE
  8
0
 10
-34.595
 20
-63.7018
 11
-34.7436
 21
-63.2282
  0
LINE
  8
0
 10
-34.7436
 20
-63.2282
 11
-34.8435
 21
-62.742
  0
LINE
  8
0
 10
-34.8435
 20
-62.742
 11
-34.8937
 21
-62.2482
  0
LINE
  8
0
 10
-34.8937
 20
-62.2482
 11
-34.8937
 21
-61.7518
  0
LINE
  8
0
 10
-34.8937
 20
-61.7518
 11
-34.8435
 21
-61.258
  0
LINE
  8
0
 10
-34.8435
 20
-61.258
 11
-34.7436
 21
-60.7718
  0
LINE
  8
0
 10
-34.7436
 20
-60.7718
 11
-34.595
 21
-60.2982
  0
LINE
  8
0
 10
-34.595
 20
-60.2982
 11
-34.3992
 21
-59.8421
  0
LINE
  8
0
 10
-34.3992
 20
-59.8421
 11
-34.1584
 21
-59.4081
  0
LINE
  8
0
 10
-34.1584
 20
-59.4081
 11
-33.8748
 21
-59.0007
  0
LINE
  8
0
 10
-33.8748
 20
-59.0007
 11
-33.5515
 21
-58.6241
  0
LINE
  8
0
 10
-33.5515
 20
-58.6241
 11
-33.1917
 21
-58.2821
  0
LINE
  8
0
 10
-33.1917
 20
-58.2821
 11
-32.7992
 21
-57.9783
  0
LINE
  8
0
 10
-32.7992
 20
-57.9783
 11
-32.378
 21
-57.7157
  0
LINE
  8
0
 10
-32.378
 20
-57.7157
 11
-31.9323
 21
-57.4971
  0
LINE
  8
0
 10
-31.9323
 20
-57.4971
 11
-31.4669
 21
-57.3247
  0
LINE
  8
0
 10
-31.4669
 20
-57.3247
 11
-30.9864
 21
-57.2003
  0
LINE
  8
0
 10
-30.9864
 20
-57.2003
 11
-30.4957
 21
-57.1251
  0
LINE
  8
0
 10
-30.4957
 20
-57.1251
 11
-30
 21
-57.1
  0
LINE
  8
0
 10
-30
 20
-57.1
 11
-29.5043
 21
-57.1251
  0
LINE
  8
0
 10
-29.5043
 20
-57.1251
 11
-29.0136
 21
-57.2003
  0
LINE
  8
0
 10
-29.0136
 20
-57.2003
 11
-28.5331
 21
-57.3247
  0
LINE
  8
0
 10
-28.5331
 20
-57.3247
 11
-28.0677
 21
-57.4971
  0
LINE
  8
0
 10
-28.0677
 20
-57.4971
 11
-27.622
 21
-57.7157
  0
LINE
  8
0
 10
-27.622
 20
-57.7157
 11
-27.2008
 21
-57.9783
  0
LINE
  8
0
 10
-27.2008
 20
-57.9783
 11
-26.8083
 21
-58.2821
  0
LINE
  8
0
 10
-26.8083
 20
-58.2821
 11
-26.4485
 21
-58.6241
  0
LINE
  8
0
 10
-26.4485
 20
-58.6241
 11
-26.1252
 21
-59.0007
  0
LINE
  8
0
 10
-26.1252
 20
-59.0007
 11
-25.8416
 21
-59.4081
  0
LINE
  8
0
 10
-25.8416
 20
-59.4081
 11
-25.6008
 21
-59.8421
  0
LINE
  8
0
 10
-25.6008
 20
-59.8421
 11
-25.405
 21
-60.2982
  0
LINE
  8
0
 10
-25.405
 20
-60.2982
 11
-25.2564
 21
-60.7718
  0
LINE
  8
0
 10
-25.2564
 20
-60.7718
 11
-25.1565
 21
-61.258
  0
LINE
  8
0
 10
-25.1565
 20
-61.258
 11
-25.1063
 21
-61.7518
  0
LINE
  8
0
 10
-25.1063
 20
-61.7518
 11
-25.1063
 21
-62.2482
  0
LINE
  8
0
 10
-25.1063
 20
-62.2482
 11
-25.1565
 21
-62.742
  0
LINE
  8
0
 10
-25.1565
 20
-62.742
 11
-25.2564
 21
-63.2282
  0
LINE
  8
0
 10
-25.2564
 20
-63.2282
 11
-25.405
 21
-63.7018
  0
LINE
  8
0
 10
-25.405
 20
-63.7018
 11
-25.6008
 21
-64.1579
  0
LINE
  8
0
 10
-25.6008
 20
-64.1579
 11
-25.8416
 21
-64.5919
  0
LINE
  8
0
 10
-25.8416
 20
-64.5919
 11
-26.1252
 21
-64.9993
  0
LINE
  8
0
 10
-26.1252
 20
-64.9993
 11
-26.4485
 21
-65.3759
  0
LINE
  8
0
 10
-26.4485
 20
-65.3759
 11
-26.8083
 21
-65.7179
  0
LINE
  8
0
 10
-26.8083
 20
-65.7179
 11
-27.2008
 21
-66.0217
  0
LINE
  8
0
 10
-27.2008
 20
-66.0217
 11
-27.622
 21
-66.2843
  0
LINE
  8
0
 10
-27.622
 20
-66.2843
 11
-28.0676
 21
-66.5029
  0
LINE
  8
0
 10
-28.0676
 20
-66.5029
 11
-28.5331
 21
-66.6753
  0
LINE
  8
0
 10
-28.5331
 20
-66.6753
 11
-29.0136
 21
-66.7997
  0
LINE
  8
0
 10
-29.0136
 20
-66.7997
 11
-29.5043
 21
-66.8748
  0
LINE
  8
0
 10
-29.5043
 20
-66.8748
 11
-30
 21
-66.9
  0
LINE
  8
0
 10
-30
 20
-66.9
 11
-30.4957
 21
-66.8748
  0
LINE
  8
0
 10
-20.6
 20
-64.5
 11
-20.6
 21
-59.5
  0
LINE
  8
0
 10
-20.6
 20
-59.5
 11
-17.6
 21
-59.5
  0
LINE
  8
0
 10
-17.6
 20
-59.5
 11
-17.6
 21
-64.5
  0
LINE
  8
0
 10
-17.6
 20
-64.5
 11
-20.6
 21
-64.5
  0
LINE
  8
0
 10
-42.4
 20
-64.5
 11
-42.4
 21
-59.5
  0
LINE
  8
0
 10
-42.4
 20
-59.5
 11
-39.4
 21
-59.5
  0
LINE
  8
0
 10
-39.4
 20
-59.5
 11
-39.4
 21
-64.5
  0
LINE
  8
0
 10
-39.4
 20
-64.5
 11
-42.4
 21
-64.5
  0
LINE
  8
0
 10
17.5
 20
-49.875
 11
17.5
 21
-45
  0
LINE
  8
0
 10
17.5
 20
-45
 11
22.55
 21
-45
  0
LINE
  8
0
 10
22.55
 20
-45
 11
22.55
 21
-38.1
  0
LINE
  8
0
 10
22.55
 20
-38.1
 11
21.05
 21
-38.1
  0
LINE
  8
0
 10
21.05
 20
-38.1
 11
21.05
 21
-32.4
  0
LINE
  8
0
 10
21.05
 20
-32.4
 11
22.55
 21
-32.4
  0
LINE
  8
0
 10
22.55
 20
-32.4
 11
22.55
 21
-25.5
  0
LINE
  8
0
 10
22.55
 20
-25.5
 11
27.45
 21
-25.5
  0
LINE
  8
0
 10
27.45
 20
-25.5
 11
27.45
 21
-32.4
  0
LINE
  8
0
 10
27.45
 20
-32.4
 11
28.95
 21
-32.4
  0
LINE
  8
0
 10
28.95
 20
-32.4
 11
28.95
 21
-38.1
  0
LINE
  8
0
 10
28.95
 20
-38.1
 11
27.45
 21
-38.1
  0
LINE
  8
0
 10
27.45
 20
-38.1
 11
27.45
 21
-45
  0
LINE
  8
0
 10
27.45
 20
-45
 11
32.5
 21
-45
  0
LINE
  8
0
 10
32.5
 20
-45
 11
32.5
 21
-49.875
  0
LINE
  8
0
 10
32.5
 20
-49.875
 11
34.125
 21
-51.5
  0
LINE
  8
0
 10
34.125
 20
-51.5
 11
45.875
 21
-51.5
  0
LINE
  8
0
 10
45.875
 20
-51.5
 11
47.5
 21
-49.875
  0
LINE
  8
0
 10
47.5
 20
-49.875
 11
47.5
 21
-45
  0
LINE
  8
0
 10
47.5
 20
-45
 11
50
 21
-45
  0
LINE
  8
0
 10
50
 20
-45
 11
50
 21
-7
  0
LINE
  8
0
 10
50
 20
-7
 11
0
 21
-7
  0
LINE
  8
0
 10
0
 20
-7
 11
0
 21
-45
  0
LINE
  8
0
 10
0
 20
-45
 11
2.5
 21
-45
  0
LINE
  8
0
 10
2.5
 20
-45
 11
2.5
 21
-49.875
  0
LINE
  8
0
 10
2.5
 20
-49.875
 11
4.125
 21
-51.5
  0
LINE
  8
0
 10
4.125
 20
-51.5
 11
15.875
 21
-51.5
  0
LINE
  8
0
 10
15.875
 20
-51.5
 11
17.5
 21
-49.875
  0
LINE
  8
0
 10
26.1475
 20
-20
 11
25.7458
 21
-19.8792
  0
LINE
  8
0
 10
25.7458
 20
-19.8792
 11
25.4065
 21
-19.5557
  0
LINE
  8
0
 10
25.4065
 20
-19.5557
 11
25.155
 21
-19.0759
  0
LINE
  8
0
 10
25.155
 20
-19.0759
 11
25.0183
 21
-18.4753
  0
LINE
  8
0
 10
25.0183
 20
-18.4753
 11
30.2039
 21
-18.4753
  0
LINE
  8
0
 10
30.2039
 20
-18.4753
 11
30.3406
 21
-18.3838
  0
LINE
  8
0
 10
30.3406
 20
-18.3838
 11
30.3979
 21
-18.1653
  0
LINE
  8
0
 10
30.3979
 20
-18.1653
 11
30.3979
 21
-16.1328
  0
LINE
  8
0
 10
30.3979
 20
-16.1328
 11
30.3406
 21
-15.9143
  0
LINE
  8
0
 10
30.3406
 20
-15.9143
 11
30.2039
 21
-15.8228
  0
LINE
  8
0
 10
30.2039
 20
-15.8228
 11
26.1475
 21
-15.8228
  0
LINE
  8
0
 10
26.1475
 20
-15.8228
 11
25.7019
 21
-15.6812
  0
LINE
  8
0
 10
25.7019
 20
-15.6812
 11
25.3357
 21
-15.2869
  0
LINE
  8
0
 10
25.3357
 20
-15.2869
 11
25.0891
 21
-14.7009
  0
LINE
  8
0
 10
25.0891
 20
-14.7009
 11
25
 21
-13.988
  0
LINE
  8
0
 10
25
 20
-13.988
 11
25
 21
-11.6736
  0
LINE
  8
0
 10
25
 20
-11.6736
 11
25.0891
 21
-10.9619
  0
LINE
  8
0
 10
25.0891
 20
-10.9619
 11
25.3357
 21
-10.376
  0
LINE
  8
0
 10
25.3357
 20
-10.376
 11
25.7019
 21
-9.98047
  0
LINE
  8
0
 10
25.7019
 20
-9.98047
 11
26.1475
 21
-9.84009
  0
LINE
  8
0
 10
26.1475
 20
-9.84009
 11
30.2039
 21
-9.84009
  0
LINE
  8
0
 10
30.2039
 20
-9.84009
 11
30.6494
 21
-9.98047
  0
LINE
  8
0
 10
30.6494
 20
-9.98047
 11
31.0156
 21
-10.376
  0
LINE
  8
0
 10
31.0156
 20
-10.376
 11
31.2622
 21
-10.9619
  0
LINE
  8
0
 10
31.2622
 20
-10.9619
 11
31.3501
 21
-11.6736
  0
LINE
  8
0
 10
31.3501
 20
-11.6736
 11
31.3501
 21
-18.1653
  0
LINE
  8
0
 10
31.3501
 20
-18.1653
 11
31.2622
 21
-18.8782
  0
LINE
  8
0
 10
31.2622
 20
-18.8782
 11
31.0156
 21
-19.4629
  0
LINE
  8
0
 10
31.0156
 20
-19.4629
 11
30.6494
 21
-19.8584
  0
LINE
  8
0
 10
30.6494
 20
-19.8584
 11
30.2039
 21
-20
  0
LINE
  8
0
 10
30.2039
 20
-20
 11
26.1475
 21
-20
  0
LINE
  8
0
 10
30.3979
 20
-11.6736
 11
30.3406
 21
-11.4551
  0
LINE
  8
0
 10
30.3406
 20
-11.4551
 11
30.2039
 21
-11.3635
  0
LINE
  8
0
 10
30.2039
 20
-11.3635
 11
26.1475
 21
-11.3635
  0
LINE
  8
0
 10
26.1475
 20
-11.3635
 11
26.0107
 21
-11.4551
  0
LINE
  8
0
 10
26.0107
 20
-11.4551
 11
25.9534
 21
-11.6736
  0
LINE
  8
0
 10
25.9534
 20
-11.6736
 11
25.9534
 21
-13.988
  0
LINE
  8
0
 10
25.9534
 20
-13.988
 11
26.0107
 21
-14.2065
  0
LINE
  8
0
 10
26.0107
 20
-14.2065
 11
26.1475
 21
-14.2993
  0
LINE
  8
0
 10
26.1475
 20
-14.2993
 11
30.3979
 21
-14.2993
  0
LINE
  8
0
 10
30.3979
 20
-14.2993
 11
30.3979
 21
-11.6736
  0
LINE
  8
0
 10
12.3975
 20
-20
 11
11.9519
 21
-19.8584
  0
LINE
  8
0
 10
11.9519
 20
-19.8584
 11
11.5857
 21
-19.4629
  0
LINE
  8
0
 10
11.5857
 20
-19.4629
 11
11.3379
 21
-18.8782
  0
LINE
  8
0
 10
11.3379
 20
-18.8782
 11
11.25
 21
-18.1653
  0
LINE
  8
0
 10
11.25
 20
-18.1653
 11
11.25
 21
-17.7417
  0
LINE
  8
0
 10
11.25
 20
-17.7417
 11
12.2034
 21
-17.7417
  0
LINE
  8
0
 10
12.2034
 20
-17.7417
 11
12.2034
 21
-18.1653
  0
LINE
  8
0
 10
12.2034
 20
-18.1653
 11
12.2607
 21
-18.3838
  0
LINE
  8
0
 10
12.2607
 20
-18.3838
 11
12.3975
 21
-18.4753
  0
LINE
  8
0
 10
12.3975
 20
-18.4753
 11
16.4539
 21
-18.4753
  0
LINE
  8
0
 10
16.4539
 20
-18.4753
 11
16.5906
 21
-18.3838
  0
LINE
  8
0
 10
16.5906
 20
-18.3838
 11
16.6479
 21
-18.1653
  0
LINE
  8
0
 10
16.6479
 20
-18.1653
 11
16.6479
 21
-15.8936
  0
LINE
  8
0
 10
16.6479
 20
-15.8936
 11
16.5906
 21
-15.675
  0
LINE
  8
0
 10
16.5906
 20
-15.675
 11
16.4539
 21
-15.5835
  0
LINE
  8
0
 10
16.4539
 20
-15.5835
 11
12.3975
 21
-15.5835
  0
LINE
  8
0
 10
12.3975
 20
-15.5835
 11
12.3975
 21
-14.0588
  0
LINE
  8
0
 10
12.3975
 20
-14.0588
 11
16.189
 21
-14.0588
  0
LINE
  8
0
 10
16.189
 20
-14.0588
 11
16.3257
 21
-13.9673
  0
LINE
  8
0
 10
16.3257
 20
-13.9673
 11
16.3831
 21
-13.7488
  0
LINE
  8
0
 10
16.3831
 20
-13.7488
 11
16.3831
 21
-11.6736
  0
LINE
  8
0
 10
16.3831
 20
-11.6736
 11
16.3257
 21
-11.4551
  0
LINE
  8
0
 10
16.3257
 20
-11.4551
 11
16.189
 21
-11.3635
  0
LINE
  8
0
 10
16.189
 20
-11.3635
 11
12.3975
 21
-11.3635
  0
LINE
  8
0
 10
12.3975
 20
-11.3635
 11
12.2607
 21
-11.4551
  0
LINE
  8
0
 10
12.2607
 20
-11.4551
 11
12.2034
 21
-11.6736
  0
LINE
  8
0
 10
12.2034
 20
-11.6736
 11
12.2034
 21
-12.2388
  0
LINE
  8
0
 10
12.2034
 20
-12.2388
 11
11.25
 21
-12.2388
  0
LINE
  8
0
 10
11.25
 20
-12.2388
 11
11.25
 21
-11.6736
  0
LINE
  8
0
 10
11.25
 20
-11.6736
 11
11.3379
 21
-10.9619
  0
LINE
  8
0
 10
11.3379
 20
-10.9619
 11
11.5857
 21
-10.376
  0
LINE
  8
0
 10
11.5857
 20
-10.376
 11
11.9519
 21
-9.98047
  0
LINE
  8
0
 10
11.9519
 20
-9.98047
 11
12.3975
 21
-9.84009
  0
LINE
  8
0
 10
12.3975
 20
-9.84009
 11
16.189
 21
-9.84009
  0
LINE
  8
0
 10
16.189
 20
-9.84009
 11
16.6345
 21
-9.98047
  0
LINE
  8
0
 10
16.6345
 20
-9.98047
 11
17.0007
 21
-10.376
  0
LINE
  8
0
 10
17.0007
 20
-10.376
 11
17.2473
 21
-10.9619
  0
LINE
  8
0
 10
17.2473
 20
-10.9619
 11
17.3352
 21
-11.6736
  0
LINE
  8
0
 10
17.3352
 20
-11.6736
 11
17.3352
 21
-13.7488
  0
LINE
  8
0
 10
17.3352
 20
-13.7488
 11
17.2217
 21
-14.5386
  0
LINE
  8
0
 10
17.2217
 20
-14.5386
 11
17.4988
 21
-15.1318
  0
LINE
  8
0
 10
17.4988
 20
-15.1318
 11
17.6001
 21
-15.8936
  0
LINE
  8
0
 10
17.6001
 20
-15.8936
 11
17.6001
 21
-18.1653
  0
LINE
  8
0
 10
17.6001
 20
-18.1653
 11
17.5122
 21
-18.8782
  0
LINE
  8
0
 10
17.5122
 20
-18.8782
 11
17.2656
 21
-19.4629
  0
LINE
  8
0
 10
17.2656
 20
-19.4629
 11
16.8994
 21
-19.8584
  0
LINE
  8
0
 10
16.8994
 20
-19.8584
 11
16.4539
 21
-20
  0
LINE
  8
0
 10
16.4539
 20
-20
 11
12.3975
 21
-20
  0
LINE
  8
0
 10
33.0225
 20
-20
 11
32.5769
 21
-19.8584
  0
LINE
  8
0
 10
32.5769
 20
-19.8584
 11
32.2107
 21
-19.4629
  0
LINE
  8
0
 10
32.2107
 20
-19.4629
 11
31.9629
 21
-18.8782
  0
LINE
  8
0
 10
31.9629
 20
-18.8782
 11
31.875
 21
-18.1653
  0
LINE
  8
0
 10
31.875
 20
-18.1653
 11
31.875
 21
-17.572
  0
LINE
  8
0
 10
31.875
 20
-17.572
 11
32.8284
 21
-17.572
  0
LINE
  8
0
 10
32.8284
 20
-17.572
 11
32.8284
 21
-18.1653
  0
LINE
  8
0
 10
32.8284
 20
-18.1653
 11
32.8857
 21
-18.3838
  0
LINE
  8
0
 10
32.8857
 20
-18.3838
 11
33.0225
 21
-18.4753
  0
LINE
  8
0
 10
33.0225
 20
-18.4753
 11
37.0789
 21
-18.4753
  0
LINE
  8
0
 10
37.0789
 20
-18.4753
 11
37.2156
 21
-18.3838
  0
LINE
  8
0
 10
37.2156
 20
-18.3838
 11
37.2729
 21
-18.1653
  0
LINE
  8
0
 10
37.2729
 20
-18.1653
 11
37.2729
 21
-15.8508
  0
LINE
  8
0
 10
37.2729
 20
-15.8508
 11
37.2156
 21
-15.6323
  0
LINE
  8
0
 10
37.2156
 20
-15.6323
 11
37.0789
 21
-15.5408
  0
LINE
  8
0
 10
37.0789
 20
-15.5408
 11
31.875
 21
-15.5408
  0
LINE
  8
0
 10
31.875
 20
-15.5408
 11
31.875
 21
-14.0161
  0
LINE
  8
0
 10
31.875
 20
-14.0161
 11
31.8933
 21
-14.0161
  0
LINE
  8
0
 10
31.8933
 20
-14.0161
 11
31.8799
 21
-13.8684
  0
LINE
  8
0
 10
31.8799
 20
-13.8684
 11
31.875
 21
-13.7061
  0
LINE
  8
0
 10
31.875
 20
-13.7061
 11
31.875
 21
-9.84009
  0
LINE
  8
0
 10
31.875
 20
-9.84009
 11
38.2251
 21
-9.84009
  0
LINE
  8
0
 10
38.2251
 20
-9.84009
 11
38.2251
 21
-11.3635
  0
LINE
  8
0
 10
38.2251
 20
-11.3635
 11
33.0225
 21
-11.3635
  0
LINE
  8
0
 10
33.0225
 20
-11.3635
 11
32.8857
 21
-11.4551
  0
LINE
  8
0
 10
32.8857
 20
-11.4551
 11
32.8284
 21
-11.6736
  0
LINE
  8
0
 10
32.8284
 20
-11.6736
 11
32.8284
 21
-13.7061
  0
LINE
  8
0
 10
32.8284
 20
-13.7061
 11
32.8857
 21
-13.9246
  0
LINE
  8
0
 10
32.8857
 20
-13.9246
 11
33.0225
 21
-14.0161
  0
LINE
  8
0
 10
33.0225
 20
-14.0161
 11
37.0789
 21
-14.0161
  0
LINE
  8
0
 10
37.0789
 20
-14.0161
 11
37.5244
 21
-14.1577
  0
LINE
  8
0
 10
37.5244
 20
-14.1577
 11
37.8906
 21
-14.5532
  0
LINE
  8
0
 10
37.8906
 20
-14.5532
 11
38.1372
 21
-15.1379
  0
LINE
  8
0
 10
38.1372
 20
-15.1379
 11
38.2251
 21
-15.8508
  0
LINE
  8
0
 10
38.2251
 20
-15.8508
 11
38.2251
 21
-18.1653
  0
LINE
  8
0
 10
38.2251
 20
-18.1653
 11
38.1372
 21
-18.8782
  0
LINE
  8
0
 10
38.1372
 20
-18.8782
 11
37.8906
 21
-19.4629
  0
LINE
  8
0
 10
37.8906
 20
-19.4629
 11
37.5244
 21
-19.8584
  0
LINE
  8
0
 10
37.5244
 20
-19.8584
 11
37.0789
 21
-20
  0
LINE
  8
0
 10
37.0789
 20
-20
 11
33.0225
 21
-20
  0
LINE
  8
0
 10
20.6116
 20
-20.0195
 11
20.6116
 21
-18.4949
  0
LINE
  8
0
 10
20.6116
 20
-18.4949
 11
21.6699
 21
-18.4949
  0
LINE
  8
0
 10
21.6699
 20
-18.4949
 11
21.6699
 21
-20.0195
  0
LINE
  8
0
 10
21.6699
 20
-20.0195
 11
20.6116
 21
-20.0195
  0
ENDSEC
  0
SECTION
  2
OBJECTS
  0
DICTIONARY
  0
ENDSEC
  0
EOF
