  0
SECTION
  2
BLOCKS
  0
ENDSEC
  0
SECTION
  2
ENTITIES
  0
LINE
  8
0
 10
32
 20
225
 11
24.5
 21
225
  0
LINE
  8
0
 10
24.5
 20
225
 11
24.5
 21
229.875
  0
LINE
  8
0
 10
24.5
 20
229.875
 11
22.875
 21
231.5
  0
LINE
  8
0
 10
22.875
 20
231.5
 11
11.125
 21
231.5
  0
LINE
  8
0
 10
11.125
 20
231.5
 11
9.5
 21
229.875
  0
LINE
  8
0
 10
9.5
 20
229.875
 11
9.5
 21
225
  0
LINE
  8
0
 10
9.5
 20
225
 11
4.79999
 21
225
  0
LINE
  8
0
 10
4.79999
 20
225
 11
4.79999
 21
218.1
  0
LINE
  8
0
 10
4.79999
 20
218.1
 11
6.59499
 21
218.1
  0
LINE
  8
0
 10
6.59499
 20
218.1
 11
6.59499
 21
212.4
  0
LINE
  8
0
 10
6.59499
 20
212.4
 11
4.79999
 21
212.4
  0
LINE
  8
0
 10
4.79999
 20
212.4
 11
4.79999
 21
205.5
  0
LINE
  8
0
 10
4.79999
 20
205.5
 11
-0.799988
 21
205.5
  0
LINE
  8
0
 10
-0.799988
 20
205.5
 11
-0.799988
 21
212.4
  0
LINE
  8
0
 10
-0.799988
 20
212.4
 11
-2.59499
 21
212.4
  0
LINE
  8
0
 10
-2.59499
 20
212.4
 11
-2.59499
 21
218.1
  0
LINE
  8
0
 10
-2.59499
 20
218.1
 11
-0.799988
 21
218.1
  0
LINE
  8
0
 10
-0.799988
 20
218.1
 11
-0.799988
 21
225
  0
LINE
  8
0
 10
-0.799988
 20
225
 11
-5.5
 21
225
  0
LINE
  8
0
 10
-5.5
 20
225
 11
-5.5
 21
229.875
  0
LINE
  8
0
 10
-5.5
 20
229.875
 11
-7.125
 21
231.5
  0
LINE
  8
0
 10
-7.125
 20
231.5
 11
-18.875
 21
231.5
  0
LINE
  8
0
 10
-18.875
 20
231.5
 11
-20.5
 21
229.875
  0
LINE
  8
0
 10
-20.5
 20
229.875
 11
-20.5
 21
225
  0
LINE
  8
0
 10
-20.5
 20
225
 11
-25.2
 21
225
  0
LINE
  8
0
 10
-25.2
 20
225
 11
-25.2
 21
218.1
  0
LINE
  8
0
 10
-25.2
 20
218.1
 11
-23.405
 21
218.1
  0
LINE
  8
0
 10
-23.405
 20
218.1
 11
-23.405
 21
212.4
  0
LINE
  8
0
 10
-23.405
 20
212.4
 11
-25.2
 21
212.4
  0
LINE
  8
0
 10
-25.2
 20
212.4
 11
-25.2
 21
205.5
  0
LINE
  8
0
 10
-25.2
 20
205.5
 11
-30.8
 21
205.5
  0
LINE
  8
0
 10
-30.8
 20
205.5
 11
-30.8
 21
212.4
  0
LINE
  8
0
 10
-30.8
 20
212.4
 11
-32.595
 21
212.4
  0
LINE
  8
0
 10
-32.595
 20
212.4
 11
-32.595
 21
218.1
  0
LINE
  8
0
 10
-32.595
 20
218.1
 11
-30.8
 21
218.1
  0
LINE
  8
0
 10
-30.8
 20
218.1
 11
-30.8
 21
225
  0
LINE
  8
0
 10
-30.8
 20
225
 11
-35.5
 21
225
  0
LINE
  8
0
 10
-35.5
 20
225
 11
-35.5
 21
229.875
  0
LINE
  8
0
 10
-35.5
 20
229.875
 11
-37.125
 21
231.5
  0
LINE
  8
0
 10
-37.125
 20
231.5
 11
-48.875
 21
231.5
  0
LINE
  8
0
 10
-48.875
 20
231.5
 11
-50.5
 21
229.875
  0
LINE
  8
0
 10
-50.5
 20
229.875
 11
-50.5
 21
225
  0
LINE
  8
0
 10
-50.5
 20
225
 11
-58
 21
225
  0
LINE
  8
0
 10
-58
 20
225
 11
-58
 21
-285
  0
LINE
  8
0
 10
-58
 20
-285
 11
32
 21
-285
  0
LINE
  8
0
 10
32
 20
-285
 11
32
 21
225
  0
LINE
  8
0
 10
-51.7491
 20
212.312
 11
-52.2389
 21
212.403
  0
LINE
  8
0
 10
-52.2389
 20
212.403
 11
-52.7035
 21
212.583
  0
LINE
  8
0
 10
-52.7035
 20
212.583
 11
-53.1271
 21
212.845
  0
LINE
  8
0
 10
-53.1271
 20
212.845
 11
-53.4953
 21
213.181
  0
LINE
  8
0
 10
-53.4953
 20
213.181
 11
-53.7956
 21
213.579
  0
LINE
  8
0
 10
-53.7956
 20
213.579
 11
-54.0177
 21
214.025
  0
LINE
  8
0
 10
-54.0177
 20
214.025
 11
-54.154
 21
214.504
  0
LINE
  8
0
 10
-54.154
 20
214.504
 11
-54.2
 21
215
  0
LINE
  8
0
 10
-54.2
 20
215
 11
-54.154
 21
215.496
  0
LINE
  8
0
 10
-54.154
 20
215.496
 11
-54.0177
 21
215.975
  0
LINE
  8
0
 10
-54.0177
 20
215.975
 11
-53.7956
 21
216.421
  0
LINE
  8
0
 10
-53.7956
 20
216.421
 11
-53.4953
 21
216.819
  0
LINE
  8
0
 10
-53.4953
 20
216.819
 11
-53.1271
 21
217.155
  0
LINE
  8
0
 10
-53.1271
 20
217.155
 11
-52.7035
 21
217.417
  0
LINE
  8
0
 10
-52.7035
 20
217.417
 11
-52.2389
 21
217.597
  0
LINE
  8
0
 10
-52.2389
 20
217.597
 11
-51.7491
 21
217.688
  0
LINE
  8
0
 10
-51.7491
 20
217.688
 11
-51.2509
 21
217.688
  0
LINE
  8
0
 10
-51.2509
 20
217.688
 11
-50.7611
 21
217.597
  0
LINE
  8
0
 10
-50.7611
 20
217.597
 11
-50.2965
 21
217.417
  0
LINE
  8
0
 10
-50.2965
 20
217.417
 11
-49.8729
 21
217.155
  0
LINE
  8
0
 10
-49.8729
 20
217.155
 11
-49.5047
 21
216.819
  0
LINE
  8
0
 10
-49.5047
 20
216.819
 11
-49.2044
 21
216.421
  0
LINE
  8
0
 10
-49.2044
 20
216.421
 11
-48.9823
 21
215.975
  0
LINE
  8
0
 10
-48.9823
 20
215.975
 11
-48.846
 21
215.496
  0
LINE
  8
0
 10
-48.846
 20
215.496
 11
-48.8
 21
215
  0
LINE
  8
0
 10
-48.8
 20
215
 11
-48.846
 21
214.504
  0
LINE
  8
0
 10
-48.846
 20
214.504
 11
-48.9823
 21
214.025
  0
LINE
  8
0
 10
-48.9823
 20
214.025
 11
-49.2044
 21
213.579
  0
LINE
  8
0
 10
-49.2044
 20
213.579
 11
-49.5047
 21
213.181
  0
LINE
  8
0
 10
-49.5047
 20
213.181
 11
-49.8729
 21
212.845
  0
LINE
  8
0
 10
-49.8729
 20
212.845
 11
-50.2965
 21
212.583
  0
LINE
  8
0
 10
-50.2965
 20
212.583
 11
-50.7611
 21
212.403
  0
LINE
  8
0
 10
-50.7611
 20
212.403
 11
-51.2509
 21
212.312
  0
LINE
  8
0
 10
-51.2509
 20
212.312
 11
-51.7491
 21
212.312
  0
LINE
  8
0
 10
-13.2491
 20
212.312
 11
-13.7389
 21
212.403
  0
LINE
  8
0
 10
-13.7389
 20
212.403
 11
-14.2035
 21
212.583
  0
LINE
  8
0
 10
-14.2035
 20
212.583
 11
-14.6271
 21
212.845
  0
LINE
  8
0
 10
-14.6271
 20
212.845
 11
-14.9953
 21
213.181
  0
LINE
  8
0
 10
-14.9953
 20
213.181
 11
-15.2956
 21
213.579
  0
LINE
  8
0
 10
-15.2956
 20
213.579
 11
-15.5177
 21
214.025
  0
LINE
  8
0
 10
-15.5177
 20
214.025
 11
-15.654
 21
214.504
  0
LINE
  8
0
 10
-15.654
 20
214.504
 11
-15.7
 21
215
  0
LINE
  8
0
 10
-15.7
 20
215
 11
-15.654
 21
215.496
  0
LINE
  8
0
 10
-15.654
 20
215.496
 11
-15.5177
 21
215.975
  0
LINE
  8
0
 10
-15.5177
 20
215.975
 11
-15.2956
 21
216.421
  0
LINE
  8
0
 10
-15.2956
 20
216.421
 11
-14.9953
 21
216.819
  0
LINE
  8
0
 10
-14.9953
 20
216.819
 11
-14.6271
 21
217.155
  0
LINE
  8
0
 10
-14.6271
 20
217.155
 11
-14.2035
 21
217.417
  0
LINE
  8
0
 10
-14.2035
 20
217.417
 11
-13.7389
 21
217.597
  0
LINE
  8
0
 10
-13.7389
 20
217.597
 11
-13.2491
 21
217.688
  0
LINE
  8
0
 10
-13.2491
 20
217.688
 11
-12.7509
 21
217.688
  0
LINE
  8
0
 10
-12.7509
 20
217.688
 11
-12.2611
 21
217.597
  0
LINE
  8
0
 10
-12.2611
 20
217.597
 11
-11.7965
 21
217.417
  0
LINE
  8
0
 10
-11.7965
 20
217.417
 11
-11.3729
 21
217.155
  0
LINE
  8
0
 10
-11.3729
 20
217.155
 11
-11.0047
 21
216.819
  0
LINE
  8
0
 10
-11.0047
 20
216.819
 11
-10.7044
 21
216.421
  0
LINE
  8
0
 10
-10.7044
 20
216.421
 11
-10.4823
 21
215.975
  0
LINE
  8
0
 10
-10.4823
 20
215.975
 11
-10.346
 21
215.496
  0
LINE
  8
0
 10
-10.346
 20
215.496
 11
-10.3
 21
215
  0
LINE
  8
0
 10
-10.3
 20
215
 11
-10.346
 21
214.504
  0
LINE
  8
0
 10
-10.346
 20
214.504
 11
-10.4823
 21
214.025
  0
LINE
  8
0
 10
-10.4823
 20
214.025
 11
-10.7044
 21
213.579
  0
LINE
  8
0
 10
-10.7044
 20
213.579
 11
-11.0047
 21
213.181
  0
LINE
  8
0
 10
-11.0047
 20
213.181
 11
-11.3729
 21
212.845
  0
LINE
  8
0
 10
-11.3729
 20
212.845
 11
-11.7965
 21
212.583
  0
LINE
  8
0
 10
-11.7965
 20
212.583
 11
-12.2611
 21
212.403
  0
LINE
  8
0
 10
-12.2611
 20
212.403
 11
-12.7509
 21
212.312
  0
LINE
  8
0
 10
-12.7509
 20
212.312
 11
-13.2491
 21
212.312
  0
LINE
  8
0
 10
-51.7491
 20
192.312
 11
-52.2389
 21
192.403
  0
LINE
  8
0
 10
-52.2389
 20
192.403
 11
-52.7035
 21
192.583
  0
LINE
  8
0
 10
-52.7035
 20
192.583
 11
-53.1271
 21
192.845
  0
LINE
  8
0
 10
-53.1271
 20
192.845
 11
-53.4953
 21
193.181
  0
LINE
  8
0
 10
-53.4953
 20
193.181
 11
-53.7956
 21
193.579
  0
LINE
  8
0
 10
-53.7956
 20
193.579
 11
-54.0177
 21
194.025
  0
LINE
  8
0
 10
-54.0177
 20
194.025
 11
-54.154
 21
194.504
  0
LINE
  8
0
 10
-54.154
 20
194.504
 11
-54.2
 21
195
  0
LINE
  8
0
 10
-54.2
 20
195
 11
-54.154
 21
195.496
  0
LINE
  8
0
 10
-54.154
 20
195.496
 11
-54.0177
 21
195.975
  0
LINE
  8
0
 10
-54.0177
 20
195.975
 11
-53.7956
 21
196.421
  0
LINE
  8
0
 10
-53.7956
 20
196.421
 11
-53.4953
 21
196.819
  0
LINE
  8
0
 10
-53.4953
 20
196.819
 11
-53.1271
 21
197.155
  0
LINE
  8
0
 10
-53.1271
 20
197.155
 11
-52.7035
 21
197.417
  0
LINE
  8
0
 10
-52.7035
 20
197.417
 11
-52.2389
 21
197.597
  0
LINE
  8
0
 10
-52.2389
 20
197.597
 11
-51.7491
 21
197.688
  0
LINE
  8
0
 10
-51.7491
 20
197.688
 11
-51.2509
 21
197.688
  0
LINE
  8
0
 10
-51.2509
 20
197.688
 11
-50.7611
 21
197.597
  0
LINE
  8
0
 10
-50.7611
 20
197.597
 11
-50.2965
 21
197.417
  0
LINE
  8
0
 10
-50.2965
 20
197.417
 11
-49.8729
 21
197.155
  0
LINE
  8
0
 10
-49.8729
 20
197.155
 11
-49.5047
 21
196.819
  0
LINE
  8
0
 10
-49.5047
 20
196.819
 11
-49.2044
 21
196.421
  0
LINE
  8
0
 10
-49.2044
 20
196.421
 11
-48.9823
 21
195.975
  0
LINE
  8
0
 10
-48.9823
 20
195.975
 11
-48.846
 21
195.496
  0
LINE
  8
0
 10
-48.846
 20
195.496
 11
-48.8
 21
195
  0
LINE
  8
0
 10
-48.8
 20
195
 11
-48.846
 21
194.504
  0
LINE
  8
0
 10
-48.846
 20
194.504
 11
-48.9823
 21
194.025
  0
LINE
  8
0
 10
-48.9823
 20
194.025
 11
-49.2044
 21
193.579
  0
LINE
  8
0
 10
-49.2044
 20
193.579
 11
-49.5047
 21
193.181
  0
LINE
  8
0
 10
-49.5047
 20
193.181
 11
-49.8729
 21
192.845
  0
LINE
  8
0
 10
-49.8729
 20
192.845
 11
-50.2965
 21
192.583
  0
LINE
  8
0
 10
-50.2965
 20
192.583
 11
-50.7611
 21
192.403
  0
LINE
  8
0
 10
-50.7611
 20
192.403
 11
-51.2509
 21
192.312
  0
LINE
  8
0
 10
-51.2509
 20
192.312
 11
-51.7491
 21
192.312
  0
LINE
  8
0
 10
-13.2491
 20
192.312
 11
-13.7389
 21
192.403
  0
LINE
  8
0
 10
-13.7389
 20
192.403
 11
-14.2035
 21
192.583
  0
LINE
  8
0
 10
-14.2035
 20
192.583
 11
-14.6271
 21
192.845
  0
LINE
  8
0
 10
-14.6271
 20
192.845
 11
-14.9953
 21
193.181
  0
LINE
  8
0
 10
-14.9953
 20
193.181
 11
-15.2956
 21
193.579
  0
LINE
  8
0
 10
-15.2956
 20
193.579
 11
-15.5177
 21
194.025
  0
LINE
  8
0
 10
-15.5177
 20
194.025
 11
-15.654
 21
194.504
  0
LINE
  8
0
 10
-15.654
 20
194.504
 11
-15.7
 21
195
  0
LINE
  8
0
 10
-15.7
 20
195
 11
-15.654
 21
195.496
  0
LINE
  8
0
 10
-15.654
 20
195.496
 11
-15.5177
 21
195.975
  0
LINE
  8
0
 10
-15.5177
 20
195.975
 11
-15.2956
 21
196.421
  0
LINE
  8
0
 10
-15.2956
 20
196.421
 11
-14.9953
 21
196.819
  0
LINE
  8
0
 10
-14.9953
 20
196.819
 11
-14.6271
 21
197.155
  0
LINE
  8
0
 10
-14.6271
 20
197.155
 11
-14.2035
 21
197.417
  0
LINE
  8
0
 10
-14.2035
 20
197.417
 11
-13.7389
 21
197.597
  0
LINE
  8
0
 10
-13.7389
 20
197.597
 11
-13.2491
 21
197.688
  0
LINE
  8
0
 10
-13.2491
 20
197.688
 11
-12.7509
 21
197.688
  0
LINE
  8
0
 10
-12.7509
 20
197.688
 11
-12.2611
 21
197.597
  0
LINE
  8
0
 10
-12.2611
 20
197.597
 11
-11.7965
 21
197.417
  0
LINE
  8
0
 10
-11.7965
 20
197.417
 11
-11.3729
 21
197.155
  0
LINE
  8
0
 10
-11.3729
 20
197.155
 11
-11.0047
 21
196.819
  0
LINE
  8
0
 10
-11.0047
 20
196.819
 11
-10.7044
 21
196.421
  0
LINE
  8
0
 10
-10.7044
 20
196.421
 11
-10.4823
 21
195.975
  0
LINE
  8
0
 10
-10.4823
 20
195.975
 11
-10.346
 21
195.496
  0
LINE
  8
0
 10
-10.346
 20
195.496
 11
-10.3
 21
195
  0
LINE
  8
0
 10
-10.3
 20
195
 11
-10.346
 21
194.504
  0
LINE
  8
0
 10
-10.346
 20
194.504
 11
-10.4823
 21
194.025
  0
LINE
  8
0
 10
-10.4823
 20
194.025
 11
-10.7044
 21
193.579
  0
LINE
  8
0
 10
-10.7044
 20
193.579
 11
-11.0047
 21
193.181
  0
LINE
  8
0
 10
-11.0047
 20
193.181
 11
-11.3729
 21
192.845
  0
LINE
  8
0
 10
-11.3729
 20
192.845
 11
-11.7965
 21
192.583
  0
LINE
  8
0
 10
-11.7965
 20
192.583
 11
-12.2611
 21
192.403
  0
LINE
  8
0
 10
-12.2611
 20
192.403
 11
-12.7509
 21
192.312
  0
LINE
  8
0
 10
-12.7509
 20
192.312
 11
-13.2491
 21
192.312
  0
LINE
  8
0
 10
-3.17499
 20
132.575
 11
-3.17499
 21
147.425
  0
LINE
  8
0
 10
-3.17499
 20
147.425
 11
3.17499
 21
147.425
  0
LINE
  8
0
 10
3.17499
 20
147.425
 11
3.17499
 21
132.575
  0
LINE
  8
0
 10
3.17499
 20
132.575
 11
-3.17499
 21
132.575
  0
LINE
  8
0
 10
-29.175
 20
132.575
 11
-29.175
 21
147.425
  0
LINE
  8
0
 10
-29.175
 20
147.425
 11
-22.825
 21
147.425
  0
LINE
  8
0
 10
-22.825
 20
147.425
 11
-22.825
 21
132.575
  0
LINE
  8
0
 10
-22.825
 20
132.575
 11
-29.175
 21
132.575
  0
LINE
  8
0
 10
-0.496109
 20
122.346
 11
-0.975342
 21
122.482
  0
LINE
  8
0
 10
-0.975342
 20
122.482
 11
-1.42136
 21
122.704
  0
LINE
  8
0
 10
-1.42136
 20
122.704
 11
-1.81897
 21
123.005
  0
LINE
  8
0
 10
-1.81897
 20
123.005
 11
-2.15463
 21
123.373
  0
LINE
  8
0
 10
-2.15463
 20
123.373
 11
-2.41693
 21
123.797
  0
LINE
  8
0
 10
-2.41693
 20
123.797
 11
-2.59692
 21
124.261
  0
LINE
  8
0
 10
-2.59692
 20
124.261
 11
-2.68848
 21
124.751
  0
LINE
  8
0
 10
-2.68848
 20
124.751
 11
-2.68848
 21
125.249
  0
LINE
  8
0
 10
-2.68848
 20
125.249
 11
-2.59692
 21
125.739
  0
LINE
  8
0
 10
-2.59692
 20
125.739
 11
-2.41693
 21
126.203
  0
LINE
  8
0
 10
-2.41693
 20
126.203
 11
-2.15463
 21
126.627
  0
LINE
  8
0
 10
-2.15463
 20
126.627
 11
-1.81897
 21
126.995
  0
LINE
  8
0
 10
-1.81897
 20
126.995
 11
-1.42136
 21
127.296
  0
LINE
  8
0
 10
-1.42136
 20
127.296
 11
-0.975342
 21
127.518
  0
LINE
  8
0
 10
-0.975342
 20
127.518
 11
-0.496109
 21
127.654
  0
LINE
  8
0
 10
-0.496109
 20
127.654
 11
0
 21
127.7
  0
LINE
  8
0
 10
0
 20
127.7
 11
0.496109
 21
127.654
  0
LINE
  8
0
 10
0.496109
 20
127.654
 11
0.975342
 21
127.518
  0
LINE
  8
0
 10
0.975342
 20
127.518
 11
1.42136
 21
127.296
  0
LINE
  8
0
 10
1.42136
 20
127.296
 11
1.81897
 21
126.995
  0
LINE
  8
0
 10
1.81897
 20
126.995
 11
2.15463
 21
126.627
  0
LINE
  8
0
 10
2.15463
 20
126.627
 11
2.41693
 21
126.203
  0
LINE
  8
0
 10
2.41693
 20
126.203
 11
2.59692
 21
125.739
  0
LINE
  8
0
 10
2.59692
 20
125.739
 11
2.68848
 21
125.249
  0
LINE
  8
0
 10
2.68848
 20
125.249
 11
2.68848
 21
124.751
  0
LINE
  8
0
 10
2.68848
 20
124.751
 11
2.59692
 21
124.261
  0
LINE
  8
0
 10
2.59692
 20
124.261
 11
2.41693
 21
123.797
  0
LINE
  8
0
 10
2.41693
 20
123.797
 11
2.15463
 21
123.373
  0
LINE
  8
0
 10
2.15463
 20
123.373
 11
1.81897
 21
123.005
  0
LINE
  8
0
 10
1.81897
 20
123.005
 11
1.42136
 21
122.704
  0
LINE
  8
0
 10
1.42136
 20
122.704
 11
0.975342
 21
122.482
  0
LINE
  8
0
 10
0.975342
 20
122.482
 11
0.496109
 21
122.346
  0
LINE
  8
0
 10
0.496109
 20
122.346
 11
0
 21
122.3
  0
LINE
  8
0
 10
0
 20
122.3
 11
-0.496109
 21
122.346
  0
LINE
  8
0
 10
-26.4961
 20
122.346
 11
-26.9753
 21
122.482
  0
LINE
  8
0
 10
-26.9753
 20
122.482
 11
-27.4214
 21
122.704
  0
LINE
  8
0
 10
-27.4214
 20
122.704
 11
-27.819
 21
123.005
  0
LINE
  8
0
 10
-27.819
 20
123.005
 11
-28.1546
 21
123.373
  0
LINE
  8
0
 10
-28.1546
 20
123.373
 11
-28.4169
 21
123.797
  0
LINE
  8
0
 10
-28.4169
 20
123.797
 11
-28.5969
 21
124.261
  0
LINE
  8
0
 10
-28.5969
 20
124.261
 11
-28.6885
 21
124.751
  0
LINE
  8
0
 10
-28.6885
 20
124.751
 11
-28.6885
 21
125.249
  0
LINE
  8
0
 10
-28.6885
 20
125.249
 11
-28.5969
 21
125.739
  0
LINE
  8
0
 10
-28.5969
 20
125.739
 11
-28.4169
 21
126.203
  0
LINE
  8
0
 10
-28.4169
 20
126.203
 11
-28.1546
 21
126.627
  0
LINE
  8
0
 10
-28.1546
 20
126.627
 11
-27.819
 21
126.995
  0
LINE
  8
0
 10
-27.819
 20
126.995
 11
-27.4214
 21
127.296
  0
LINE
  8
0
 10
-27.4214
 20
127.296
 11
-26.9753
 21
127.518
  0
LINE
  8
0
 10
-26.9753
 20
127.518
 11
-26.4961
 21
127.654
  0
LINE
  8
0
 10
-26.4961
 20
127.654
 11
-26
 21
127.7
  0
LINE
  8
0
 10
-26
 20
127.7
 11
-25.5039
 21
127.654
  0
LINE
  8
0
 10
-25.5039
 20
127.654
 11
-25.0246
 21
127.518
  0
LINE
  8
0
 10
-25.0246
 20
127.518
 11
-24.5786
 21
127.296
  0
LINE
  8
0
 10
-24.5786
 20
127.296
 11
-24.181
 21
126.995
  0
LINE
  8
0
 10
-24.181
 20
126.995
 11
-23.8454
 21
126.627
  0
LINE
  8
0
 10
-23.8454
 20
126.627
 11
-23.5831
 21
126.203
  0
LINE
  8
0
 10
-23.5831
 20
126.203
 11
-23.4031
 21
125.739
  0
LINE
  8
0
 10
-23.4031
 20
125.739
 11
-23.3115
 21
125.249
  0
LINE
  8
0
 10
-23.3115
 20
125.249
 11
-23.3115
 21
124.751
  0
LINE
  8
0
 10
-23.3115
 20
124.751
 11
-23.4031
 21
124.261
  0
LINE
  8
0
 10
-23.4031
 20
124.261
 11
-23.5831
 21
123.797
  0
LINE
  8
0
 10
-23.5831
 20
123.797
 11
-23.8454
 21
123.373
  0
LINE
  8
0
 10
-23.8454
 20
123.373
 11
-24.181
 21
123.005
  0
LINE
  8
0
 10
-24.181
 20
123.005
 11
-24.5786
 21
122.704
  0
LINE
  8
0
 10
-24.5786
 20
122.704
 11
-25.0246
 21
122.482
  0
LINE
  8
0
 10
-25.0246
 20
122.482
 11
-25.5039
 21
122.346
  0
LINE
  8
0
 10
-25.5039
 20
122.346
 11
-26
 21
122.3
  0
LINE
  8
0
 10
-26
 20
122.3
 11
-26.4961
 21
122.346
  0
LINE
  8
0
 10
-3.17499
 20
102.575
 11
-3.17499
 21
117.425
  0
LINE
  8
0
 10
-3.17499
 20
117.425
 11
3.17499
 21
117.425
  0
LINE
  8
0
 10
3.17499
 20
117.425
 11
3.17499
 21
102.575
  0
LINE
  8
0
 10
3.17499
 20
102.575
 11
-3.17499
 21
102.575
  0
LINE
  8
0
 10
-29.175
 20
102.575
 11
-29.175
 21
117.425
  0
LINE
  8
0
 10
-29.175
 20
117.425
 11
-22.825
 21
117.425
  0
LINE
  8
0
 10
-22.825
 20
117.425
 11
-22.825
 21
102.575
  0
LINE
  8
0
 10
-22.825
 20
102.575
 11
-29.175
 21
102.575
  0
LINE
  8
0
 10
-3.17499
 20
-117.425
 11
-3.17499
 21
-102.575
  0
LINE
  8
0
 10
-3.17499
 20
-102.575
 11
3.17499
 21
-102.575
  0
LINE
  8
0
 10
3.17499
 20
-102.575
 11
3.17499
 21
-117.425
  0
LINE
  8
0
 10
3.17499
 20
-117.425
 11
-3.17499
 21
-117.425
  0
LINE
  8
0
 10
-29.175
 20
-117.425
 11
-29.175
 21
-102.575
  0
LINE
  8
0
 10
-29.175
 20
-102.575
 11
-22.825
 21
-102.575
  0
LINE
  8
0
 10
-22.825
 20
-102.575
 11
-22.825
 21
-117.425
  0
LINE
  8
0
 10
-22.825
 20
-117.425
 11
-29.175
 21
-117.425
  0
LINE
  8
0
 10
-0.496109
 20
-127.654
 11
-0.975342
 21
-127.518
  0
LINE
  8
0
 10
-0.975342
 20
-127.518
 11
-1.42136
 21
-127.296
  0
LINE
  8
0
 10
-1.42136
 20
-127.296
 11
-1.81897
 21
-126.995
  0
LINE
  8
0
 10
-1.81897
 20
-126.995
 11
-2.15463
 21
-126.627
  0
LINE
  8
0
 10
-2.15463
 20
-126.627
 11
-2.41693
 21
-126.203
  0
LINE
  8
0
 10
-2.41693
 20
-126.203
 11
-2.59692
 21
-125.739
  0
LINE
  8
0
 10
-2.59692
 20
-125.739
 11
-2.68848
 21
-125.249
  0
LINE
  8
0
 10
-2.68848
 20
-125.249
 11
-2.68848
 21
-124.751
  0
LINE
  8
0
 10
-2.68848
 20
-124.751
 11
-2.59692
 21
-124.261
  0
LINE
  8
0
 10
-2.59692
 20
-124.261
 11
-2.41693
 21
-123.797
  0
LINE
  8
0
 10
-2.41693
 20
-123.797
 11
-2.15463
 21
-123.373
  0
LINE
  8
0
 10
-2.15463
 20
-123.373
 11
-1.81897
 21
-123.005
  0
LINE
  8
0
 10
-1.81897
 20
-123.005
 11
-1.42136
 21
-122.704
  0
LINE
  8
0
 10
-1.42136
 20
-122.704
 11
-0.975342
 21
-122.482
  0
LINE
  8
0
 10
-0.975342
 20
-122.482
 11
-0.496109
 21
-122.346
  0
LINE
  8
0
 10
-0.496109
 20
-122.346
 11
0
 21
-122.3
  0
LINE
  8
0
 10
0
 20
-122.3
 11
0.496109
 21
-122.346
  0
LINE
  8
0
 10
0.496109
 20
-122.346
 11
0.975342
 21
-122.482
  0
LINE
  8
0
 10
0.975342
 20
-122.482
 11
1.42136
 21
-122.704
  0
LINE
  8
0
 10
1.42136
 20
-122.704
 11
1.81897
 21
-123.005
  0
LINE
  8
0
 10
1.81897
 20
-123.005
 11
2.15463
 21
-123.373
  0
LINE
  8
0
 10
2.15463
 20
-123.373
 11
2.41693
 21
-123.797
  0
LINE
  8
0
 10
2.41693
 20
-123.797
 11
2.59692
 21
-124.261
  0
LINE
  8
0
 10
2.59692
 20
-124.261
 11
2.68848
 21
-124.751
  0
LINE
  8
0
 10
2.68848
 20
-124.751
 11
2.68848
 21
-125.249
  0
LINE
  8
0
 10
2.68848
 20
-125.249
 11
2.59692
 21
-125.739
  0
LINE
  8
0
 10
2.59692
 20
-125.739
 11
2.41693
 21
-126.203
  0
LINE
  8
0
 10
2.41693
 20
-126.203
 11
2.15463
 21
-126.627
  0
LINE
  8
0
 10
2.15463
 20
-126.627
 11
1.81897
 21
-126.995
  0
LINE
  8
0
 10
1.81897
 20
-126.995
 11
1.42136
 21
-127.296
  0
LINE
  8
0
 10
1.42136
 20
-127.296
 11
0.975342
 21
-127.518
  0
LINE
  8
0
 10
0.975342
 20
-127.518
 11
0.496109
 21
-127.654
  0
LINE
  8
0
 10
0.496109
 20
-127.654
 11
0
 21
-127.7
  0
LINE
  8
0
 10
0
 20
-127.7
 11
-0.496109
 21
-127.654
  0
LINE
  8
0
 10
-26.4961
 20
-127.654
 11
-26.9753
 21
-127.518
  0
LINE
  8
0
 10
-26.9753
 20
-127.518
 11
-27.4214
 21
-127.296
  0
LINE
  8
0
 10
-27.4214
 20
-127.296
 11
-27.819
 21
-126.995
  0
LINE
  8
0
 10
-27.819
 20
-126.995
 11
-28.1546
 21
-126.627
  0
LINE
  8
0
 10
-28.1546
 20
-126.627
 11
-28.4169
 21
-126.203
  0
LINE
  8
0
 10
-28.4169
 20
-126.203
 11
-28.5969
 21
-125.739
  0
LINE
  8
0
 10
-28.5969
 20
-125.739
 11
-28.6885
 21
-125.249
  0
LINE
  8
0
 10
-28.6885
 20
-125.249
 11
-28.6885
 21
-124.751
  0
LINE
  8
0
 10
-28.6885
 20
-124.751
 11
-28.5969
 21
-124.261
  0
LINE
  8
0
 10
-28.5969
 20
-124.261
 11
-28.4169
 21
-123.797
  0
LINE
  8
0
 10
-28.4169
 20
-123.797
 11
-28.1546
 21
-123.373
  0
LINE
  8
0
 10
-28.1546
 20
-123.373
 11
-27.819
 21
-123.005
  0
LINE
  8
0
 10
-27.819
 20
-123.005
 11
-27.4214
 21
-122.704
  0
LINE
  8
0
 10
-27.4214
 20
-122.704
 11
-26.9753
 21
-122.482
  0
LINE
  8
0
 10
-26.9753
 20
-122.482
 11
-26.4961
 21
-122.346
  0
LINE
  8
0
 10
-26.4961
 20
-122.346
 11
-26
 21
-122.3
  0
LINE
  8
0
 10
-26
 20
-122.3
 11
-25.5039
 21
-122.346
  0
LINE
  8
0
 10
-25.5039
 20
-122.346
 11
-25.0246
 21
-122.482
  0
LINE
  8
0
 10
-25.0246
 20
-122.482
 11
-24.5786
 21
-122.704
  0
LINE
  8
0
 10
-24.5786
 20
-122.704
 11
-24.181
 21
-123.005
  0
LINE
  8
0
 10
-24.181
 20
-123.005
 11
-23.8454
 21
-123.373
  0
LINE
  8
0
 10
-23.8454
 20
-123.373
 11
-23.5831
 21
-123.797
  0
LINE
  8
0
 10
-23.5831
 20
-123.797
 11
-23.4031
 21
-124.261
  0
LINE
  8
0
 10
-23.4031
 20
-124.261
 11
-23.3115
 21
-124.751
  0
LINE
  8
0
 10
-23.3115
 20
-124.751
 11
-23.3115
 21
-125.249
  0
LINE
  8
0
 10
-23.3115
 20
-125.249
 11
-23.4031
 21
-125.739
  0
LINE
  8
0
 10
-23.4031
 20
-125.739
 11
-23.5831
 21
-126.203
  0
LINE
  8
0
 10
-23.5831
 20
-126.203
 11
-23.8454
 21
-126.627
  0
LINE
  8
0
 10
-23.8454
 20
-126.627
 11
-24.181
 21
-126.995
  0
LINE
  8
0
 10
-24.181
 20
-126.995
 11
-24.5786
 21
-127.296
  0
LINE
  8
0
 10
-24.5786
 20
-127.296
 11
-25.0246
 21
-127.518
  0
LINE
  8
0
 10
-25.0246
 20
-127.518
 11
-25.5039
 21
-127.654
  0
LINE
  8
0
 10
-25.5039
 20
-127.654
 11
-26
 21
-127.7
  0
LINE
  8
0
 10
-26
 20
-127.7
 11
-26.4961
 21
-127.654
  0
LINE
  8
0
 10
-3.17499
 20
-147.425
 11
-3.17499
 21
-132.575
  0
LINE
  8
0
 10
-3.17499
 20
-132.575
 11
3.17499
 21
-132.575
  0
LINE
  8
0
 10
3.17499
 20
-132.575
 11
3.17499
 21
-147.425
  0
LINE
  8
0
 10
3.17499
 20
-147.425
 11
-3.17499
 21
-147.425
  0
LINE
  8
0
 10
-29.175
 20
-147.425
 11
-29.175
 21
-132.575
  0
LINE
  8
0
 10
-29.175
 20
-132.575
 11
-22.825
 21
-132.575
  0
LINE
  8
0
 10
-22.825
 20
-132.575
 11
-22.825
 21
-147.425
  0
LINE
  8
0
 10
-22.825
 20
-147.425
 11
-29.175
 21
-147.425
  0
LINE
  8
0
 10
-51.7491
 20
-197.688
 11
-52.2389
 21
-197.597
  0
LINE
  8
0
 10
-52.2389
 20
-197.597
 11
-52.7035
 21
-197.417
  0
LINE
  8
0
 10
-52.7035
 20
-197.417
 11
-53.1271
 21
-197.155
  0
LINE
  8
0
 10
-53.1271
 20
-197.155
 11
-53.4953
 21
-196.819
  0
LINE
  8
0
 10
-53.4953
 20
-196.819
 11
-53.7956
 21
-196.421
  0
LINE
  8
0
 10
-53.7956
 20
-196.421
 11
-54.0177
 21
-195.975
  0
LINE
  8
0
 10
-54.0177
 20
-195.975
 11
-54.154
 21
-195.496
  0
LINE
  8
0
 10
-54.154
 20
-195.496
 11
-54.2
 21
-195
  0
LINE
  8
0
 10
-54.2
 20
-195
 11
-54.154
 21
-194.504
  0
LINE
  8
0
 10
-54.154
 20
-194.504
 11
-54.0177
 21
-194.025
  0
LINE
  8
0
 10
-54.0177
 20
-194.025
 11
-53.7956
 21
-193.579
  0
LINE
  8
0
 10
-53.7956
 20
-193.579
 11
-53.4953
 21
-193.181
  0
LINE
  8
0
 10
-53.4953
 20
-193.181
 11
-53.1271
 21
-192.845
  0
LINE
  8
0
 10
-53.1271
 20
-192.845
 11
-52.7035
 21
-192.583
  0
LINE
  8
0
 10
-52.7035
 20
-192.583
 11
-52.2389
 21
-192.403
  0
LINE
  8
0
 10
-52.2389
 20
-192.403
 11
-51.7491
 21
-192.312
  0
LINE
  8
0
 10
-51.7491
 20
-192.312
 11
-51.2509
 21
-192.312
  0
LINE
  8
0
 10
-51.2509
 20
-192.312
 11
-50.7611
 21
-192.403
  0
LINE
  8
0
 10
-50.7611
 20
-192.403
 11
-50.2965
 21
-192.583
  0
LINE
  8
0
 10
-50.2965
 20
-192.583
 11
-49.8729
 21
-192.845
  0
LINE
  8
0
 10
-49.8729
 20
-192.845
 11
-49.5047
 21
-193.181
  0
LINE
  8
0
 10
-49.5047
 20
-193.181
 11
-49.2044
 21
-193.579
  0
LINE
  8
0
 10
-49.2044
 20
-193.579
 11
-48.9823
 21
-194.025
  0
LINE
  8
0
 10
-48.9823
 20
-194.025
 11
-48.846
 21
-194.504
  0
LINE
  8
0
 10
-48.846
 20
-194.504
 11
-48.8
 21
-195
  0
LINE
  8
0
 10
-48.8
 20
-195
 11
-48.846
 21
-195.496
  0
LINE
  8
0
 10
-48.846
 20
-195.496
 11
-48.9823
 21
-195.975
  0
LINE
  8
0
 10
-48.9823
 20
-195.975
 11
-49.2044
 21
-196.421
  0
LINE
  8
0
 10
-49.2044
 20
-196.421
 11
-49.5047
 21
-196.819
  0
LINE
  8
0
 10
-49.5047
 20
-196.819
 11
-49.8729
 21
-197.155
  0
LINE
  8
0
 10
-49.8729
 20
-197.155
 11
-50.2965
 21
-197.417
  0
LINE
  8
0
 10
-50.2965
 20
-197.417
 11
-50.7611
 21
-197.597
  0
LINE
  8
0
 10
-50.7611
 20
-197.597
 11
-51.2509
 21
-197.688
  0
LINE
  8
0
 10
-51.2509
 20
-197.688
 11
-51.7491
 21
-197.688
  0
LINE
  8
0
 10
-13.2491
 20
-197.688
 11
-13.7389
 21
-197.597
  0
LINE
  8
0
 10
-13.7389
 20
-197.597
 11
-14.2035
 21
-197.417
  0
LINE
  8
0
 10
-14.2035
 20
-197.417
 11
-14.6271
 21
-197.155
  0
LINE
  8
0
 10
-14.6271
 20
-197.155
 11
-14.9953
 21
-196.819
  0
LINE
  8
0
 10
-14.9953
 20
-196.819
 11
-15.2956
 21
-196.421
  0
LINE
  8
0
 10
-15.2956
 20
-196.421
 11
-15.5177
 21
-195.975
  0
LINE
  8
0
 10
-15.5177
 20
-195.975
 11
-15.654
 21
-195.496
  0
LINE
  8
0
 10
-15.654
 20
-195.496
 11
-15.7
 21
-195
  0
LINE
  8
0
 10
-15.7
 20
-195
 11
-15.654
 21
-194.504
  0
LINE
  8
0
 10
-15.654
 20
-194.504
 11
-15.5177
 21
-194.025
  0
LINE
  8
0
 10
-15.5177
 20
-194.025
 11
-15.2956
 21
-193.579
  0
LINE
  8
0
 10
-15.2956
 20
-193.579
 11
-14.9953
 21
-193.181
  0
LINE
  8
0
 10
-14.9953
 20
-193.181
 11
-14.6271
 21
-192.845
  0
LINE
  8
0
 10
-14.6271
 20
-192.845
 11
-14.2035
 21
-192.583
  0
LINE
  8
0
 10
-14.2035
 20
-192.583
 11
-13.7389
 21
-192.403
  0
LINE
  8
0
 10
-13.7389
 20
-192.403
 11
-13.2491
 21
-192.312
  0
LINE
  8
0
 10
-13.2491
 20
-192.312
 11
-12.7509
 21
-192.312
  0
LINE
  8
0
 10
-12.7509
 20
-192.312
 11
-12.2611
 21
-192.403
  0
LINE
  8
0
 10
-12.2611
 20
-192.403
 11
-11.7965
 21
-192.583
  0
LINE
  8
0
 10
-11.7965
 20
-192.583
 11
-11.3729
 21
-192.845
  0
LINE
  8
0
 10
-11.3729
 20
-192.845
 11
-11.0047
 21
-193.181
  0
LINE
  8
0
 10
-11.0047
 20
-193.181
 11
-10.7044
 21
-193.579
  0
LINE
  8
0
 10
-10.7044
 20
-193.579
 11
-10.4823
 21
-194.025
  0
LINE
  8
0
 10
-10.4823
 20
-194.025
 11
-10.346
 21
-194.504
  0
LINE
  8
0
 10
-10.346
 20
-194.504
 11
-10.3
 21
-195
  0
LINE
  8
0
 10
-10.3
 20
-195
 11
-10.346
 21
-195.496
  0
LINE
  8
0
 10
-10.346
 20
-195.496
 11
-10.4823
 21
-195.975
  0
LINE
  8
0
 10
-10.4823
 20
-195.975
 11
-10.7044
 21
-196.421
  0
LINE
  8
0
 10
-10.7044
 20
-196.421
 11
-11.0047
 21
-196.819
  0
LINE
  8
0
 10
-11.0047
 20
-196.819
 11
-11.3729
 21
-197.155
  0
LINE
  8
0
 10
-11.3729
 20
-197.155
 11
-11.7965
 21
-197.417
  0
LINE
  8
0
 10
-11.7965
 20
-197.417
 11
-12.2611
 21
-197.597
  0
LINE
  8
0
 10
-12.2611
 20
-197.597
 11
-12.7509
 21
-197.688
  0
LINE
  8
0
 10
-12.7509
 20
-197.688
 11
-13.2491
 21
-197.688
  0
LINE
  8
0
 10
-51.7491
 20
-217.688
 11
-52.2389
 21
-217.597
  0
LINE
  8
0
 10
-52.2389
 20
-217.597
 11
-52.7035
 21
-217.417
  0
LINE
  8
0
 10
-52.7035
 20
-217.417
 11
-53.1271
 21
-217.155
  0
LINE
  8
0
 10
-53.1271
 20
-217.155
 11
-53.4953
 21
-216.819
  0
LINE
  8
0
 10
-53.4953
 20
-216.819
 11
-53.7956
 21
-216.421
  0
LINE
  8
0
 10
-53.7956
 20
-216.421
 11
-54.0177
 21
-215.975
  0
LINE
  8
0
 10
-54.0177
 20
-215.975
 11
-54.154
 21
-215.496
  0
LINE
  8
0
 10
-54.154
 20
-215.496
 11
-54.2
 21
-215
  0
LINE
  8
0
 10
-54.2
 20
-215
 11
-54.154
 21
-214.504
  0
LINE
  8
0
 10
-54.154
 20
-214.504
 11
-54.0177
 21
-214.025
  0
LINE
  8
0
 10
-54.0177
 20
-214.025
 11
-53.7956
 21
-213.579
  0
LINE
  8
0
 10
-53.7956
 20
-213.579
 11
-53.4953
 21
-213.181
  0
LINE
  8
0
 10
-53.4953
 20
-213.181
 11
-53.1271
 21
-212.845
  0
LINE
  8
0
 10
-53.1271
 20
-212.845
 11
-52.7035
 21
-212.583
  0
LINE
  8
0
 10
-52.7035
 20
-212.583
 11
-52.2389
 21
-212.403
  0
LINE
  8
0
 10
-52.2389
 20
-212.403
 11
-51.7491
 21
-212.312
  0
LINE
  8
0
 10
-51.7491
 20
-212.312
 11
-51.2509
 21
-212.312
  0
LINE
  8
0
 10
-51.2509
 20
-212.312
 11
-50.7611
 21
-212.403
  0
LINE
  8
0
 10
-50.7611
 20
-212.403
 11
-50.2965
 21
-212.583
  0
LINE
  8
0
 10
-50.2965
 20
-212.583
 11
-49.8729
 21
-212.845
  0
LINE
  8
0
 10
-49.8729
 20
-212.845
 11
-49.5047
 21
-213.181
  0
LINE
  8
0
 10
-49.5047
 20
-213.181
 11
-49.2044
 21
-213.579
  0
LINE
  8
0
 10
-49.2044
 20
-213.579
 11
-48.9823
 21
-214.025
  0
LINE
  8
0
 10
-48.9823
 20
-214.025
 11
-48.846
 21
-214.504
  0
LINE
  8
0
 10
-48.846
 20
-214.504
 11
-48.8
 21
-215
  0
LINE
  8
0
 10
-48.8
 20
-215
 11
-48.846
 21
-215.496
  0
LINE
  8
0
 10
-48.846
 20
-215.496
 11
-48.9823
 21
-215.975
  0
LINE
  8
0
 10
-48.9823
 20
-215.975
 11
-49.2044
 21
-216.421
  0
LINE
  8
0
 10
-49.2044
 20
-216.421
 11
-49.5047
 21
-216.819
  0
LINE
  8
0
 10
-49.5047
 20
-216.819
 11
-49.8729
 21
-217.155
  0
LINE
  8
0
 10
-49.8729
 20
-217.155
 11
-50.2965
 21
-217.417
  0
LINE
  8
0
 10
-50.2965
 20
-217.417
 11
-50.7611
 21
-217.597
  0
LINE
  8
0
 10
-50.7611
 20
-217.597
 11
-51.2509
 21
-217.688
  0
LINE
  8
0
 10
-51.2509
 20
-217.688
 11
-51.7491
 21
-217.688
  0
LINE
  8
0
 10
-13.2491
 20
-217.688
 11
-13.7389
 21
-217.597
  0
LINE
  8
0
 10
-13.7389
 20
-217.597
 11
-14.2035
 21
-217.417
  0
LINE
  8
0
 10
-14.2035
 20
-217.417
 11
-14.6271
 21
-217.155
  0
LINE
  8
0
 10
-14.6271
 20
-217.155
 11
-14.9953
 21
-216.819
  0
LINE
  8
0
 10
-14.9953
 20
-216.819
 11
-15.2956
 21
-216.421
  0
LINE
  8
0
 10
-15.2956
 20
-216.421
 11
-15.5177
 21
-215.975
  0
LINE
  8
0
 10
-15.5177
 20
-215.975
 11
-15.654
 21
-215.496
  0
LINE
  8
0
 10
-15.654
 20
-215.496
 11
-15.7
 21
-215
  0
LINE
  8
0
 10
-15.7
 20
-215
 11
-15.654
 21
-214.504
  0
LINE
  8
0
 10
-15.654
 20
-214.504
 11
-15.5177
 21
-214.025
  0
LINE
  8
0
 10
-15.5177
 20
-214.025
 11
-15.2956
 21
-213.579
  0
LINE
  8
0
 10
-15.2956
 20
-213.579
 11
-14.9953
 21
-213.181
  0
LINE
  8
0
 10
-14.9953
 20
-213.181
 11
-14.6271
 21
-212.845
  0
LINE
  8
0
 10
-14.6271
 20
-212.845
 11
-14.2035
 21
-212.583
  0
LINE
  8
0
 10
-14.2035
 20
-212.583
 11
-13.7389
 21
-212.403
  0
LINE
  8
0
 10
-13.7389
 20
-212.403
 11
-13.2491
 21
-212.312
  0
LINE
  8
0
 10
-13.2491
 20
-212.312
 11
-12.7509
 21
-212.312
  0
LINE
  8
0
 10
-12.7509
 20
-212.312
 11
-12.2611
 21
-212.403
  0
LINE
  8
0
 10
-12.2611
 20
-212.403
 11
-11.7965
 21
-212.583
  0
LINE
  8
0
 10
-11.7965
 20
-212.583
 11
-11.3729
 21
-212.845
  0
LINE
  8
0
 10
-11.3729
 20
-212.845
 11
-11.0047
 21
-213.181
  0
LINE
  8
0
 10
-11.0047
 20
-213.181
 11
-10.7044
 21
-213.579
  0
LINE
  8
0
 10
-10.7044
 20
-213.579
 11
-10.4823
 21
-214.025
  0
LINE
  8
0
 10
-10.4823
 20
-214.025
 11
-10.346
 21
-214.504
  0
LINE
  8
0
 10
-10.346
 20
-214.504
 11
-10.3
 21
-215
  0
LINE
  8
0
 10
-10.3
 20
-215
 11
-10.346
 21
-215.496
  0
LINE
  8
0
 10
-10.346
 20
-215.496
 11
-10.4823
 21
-215.975
  0
LINE
  8
0
 10
-10.4823
 20
-215.975
 11
-10.7044
 21
-216.421
  0
LINE
  8
0
 10
-10.7044
 20
-216.421
 11
-11.0047
 21
-216.819
  0
LINE
  8
0
 10
-11.0047
 20
-216.819
 11
-11.3729
 21
-217.155
  0
LINE
  8
0
 10
-11.3729
 20
-217.155
 11
-11.7965
 21
-217.417
  0
LINE
  8
0
 10
-11.7965
 20
-217.417
 11
-12.2611
 21
-217.597
  0
LINE
  8
0
 10
-12.2611
 20
-217.597
 11
-12.7509
 21
-217.688
  0
LINE
  8
0
 10
-12.7509
 20
-217.688
 11
-13.2491
 21
-217.688
  0
LINE
  8
0
 10
-20.425
 20
-231.425
 11
-20.425
 21
-225.075
  0
LINE
  8
0
 10
-20.425
 20
-225.075
 11
-5.575
 21
-225.075
  0
LINE
  8
0
 10
-5.575
 20
-225.075
 11
-5.575
 21
-231.425
  0
LINE
  8
0
 10
-5.575
 20
-231.425
 11
-20.425
 21
-231.425
  0
LINE
  8
0
 10
-50.425
 20
-231.425
 11
-50.425
 21
-225.075
  0
LINE
  8
0
 10
-50.425
 20
-225.075
 11
-35.575
 21
-225.075
  0
LINE
  8
0
 10
-35.575
 20
-225.075
 11
-35.575
 21
-231.425
  0
LINE
  8
0
 10
-35.575
 20
-231.425
 11
-50.425
 21
-231.425
  0
LINE
  8
0
 10
9.575
 20
-231.425
 11
9.575
 21
-225.075
  0
LINE
  8
0
 10
9.575
 20
-225.075
 11
24.425
 21
-225.075
  0
LINE
  8
0
 10
24.425
 20
-225.075
 11
24.425
 21
-231.425
  0
LINE
  8
0
 10
24.425
 20
-231.425
 11
9.575
 21
-231.425
  0
LINE
  8
0
 10
1.75087
 20
-230.938
 11
1.26111
 21
-230.847
  0
LINE
  8
0
 10
1.26111
 20
-230.847
 11
0.796494
 21
-230.667
  0
LINE
  8
0
 10
0.796494
 20
-230.667
 11
0.372879
 21
-230.405
  0
LINE
  8
0
 10
0.372879
 20
-230.405
 11
0.00466919
 21
-230.069
  0
LINE
  8
0
 10
0.00466919
 20
-230.069
 11
-0.295578
 21
-229.671
  0
LINE
  8
0
 10
-0.295578
 20
-229.671
 11
-0.51767
 21
-229.225
  0
LINE
  8
0
 10
-0.51767
 20
-229.225
 11
-0.654022
 21
-228.746
  0
LINE
  8
0
 10
-0.654022
 20
-228.746
 11
-0.699997
 21
-228.25
  0
LINE
  8
0
 10
-0.699997
 20
-228.25
 11
-0.654022
 21
-227.754
  0
LINE
  8
0
 10
-0.654022
 20
-227.754
 11
-0.51767
 21
-227.275
  0
LINE
  8
0
 10
-0.51767
 20
-227.275
 11
-0.295578
 21
-226.829
  0
LINE
  8
0
 10
-0.295578
 20
-226.829
 11
0.00466919
 21
-226.431
  0
LINE
  8
0
 10
0.00466919
 20
-226.431
 11
0.372879
 21
-226.095
  0
LINE
  8
0
 10
0.372879
 20
-226.095
 11
0.796494
 21
-225.833
  0
LINE
  8
0
 10
0.796494
 20
-225.833
 11
1.26111
 21
-225.653
  0
LINE
  8
0
 10
1.26111
 20
-225.653
 11
1.75087
 21
-225.562
  0
LINE
  8
0
 10
1.75087
 20
-225.562
 11
2.24911
 21
-225.562
  0
LINE
  8
0
 10
2.24911
 20
-225.562
 11
2.73888
 21
-225.653
  0
LINE
  8
0
 10
2.73888
 20
-225.653
 11
3.20349
 21
-225.833
  0
LINE
  8
0
 10
3.20349
 20
-225.833
 11
3.62711
 21
-226.095
  0
LINE
  8
0
 10
3.62711
 20
-226.095
 11
3.99532
 21
-226.431
  0
LINE
  8
0
 10
3.99532
 20
-226.431
 11
4.29558
 21
-226.829
  0
LINE
  8
0
 10
4.29558
 20
-226.829
 11
4.51767
 21
-227.275
  0
LINE
  8
0
 10
4.51767
 20
-227.275
 11
4.65402
 21
-227.754
  0
LINE
  8
0
 10
4.65402
 20
-227.754
 11
4.7
 21
-228.25
  0
LINE
  8
0
 10
4.7
 20
-228.25
 11
4.65402
 21
-228.746
  0
LINE
  8
0
 10
4.65402
 20
-228.746
 11
4.51767
 21
-229.225
  0
LINE
  8
0
 10
4.51767
 20
-229.225
 11
4.29558
 21
-229.671
  0
LINE
  8
0
 10
4.29558
 20
-229.671
 11
3.99532
 21
-230.069
  0
LINE
  8
0
 10
3.99532
 20
-230.069
 11
3.62711
 21
-230.405
  0
LINE
  8
0
 10
3.62711
 20
-230.405
 11
3.20349
 21
-230.667
  0
LINE
  8
0
 10
3.20349
 20
-230.667
 11
2.73888
 21
-230.847
  0
LINE
  8
0
 10
2.73888
 20
-230.847
 11
2.24911
 21
-230.938
  0
LINE
  8
0
 10
2.24911
 20
-230.938
 11
1.75087
 21
-230.938
  0
LINE
  8
0
 10
-28.2491
 20
-230.938
 11
-28.7389
 21
-230.847
  0
LINE
  8
0
 10
-28.7389
 20
-230.847
 11
-29.2035
 21
-230.667
  0
LINE
  8
0
 10
-29.2035
 20
-230.667
 11
-29.6271
 21
-230.405
  0
LINE
  8
0
 10
-29.6271
 20
-230.405
 11
-29.9953
 21
-230.069
  0
LINE
  8
0
 10
-29.9953
 20
-230.069
 11
-30.2956
 21
-229.671
  0
LINE
  8
0
 10
-30.2956
 20
-229.671
 11
-30.5177
 21
-229.225
  0
LINE
  8
0
 10
-30.5177
 20
-229.225
 11
-30.654
 21
-228.746
  0
LINE
  8
0
 10
-30.654
 20
-228.746
 11
-30.7
 21
-228.25
  0
LINE
  8
0
 10
-30.7
 20
-228.25
 11
-30.654
 21
-227.754
  0
LINE
  8
0
 10
-30.654
 20
-227.754
 11
-30.5177
 21
-227.275
  0
LINE
  8
0
 10
-30.5177
 20
-227.275
 11
-30.2956
 21
-226.829
  0
LINE
  8
0
 10
-30.2956
 20
-226.829
 11
-29.9953
 21
-226.431
  0
LINE
  8
0
 10
-29.9953
 20
-226.431
 11
-29.6271
 21
-226.095
  0
LINE
  8
0
 10
-29.6271
 20
-226.095
 11
-29.2035
 21
-225.833
  0
LINE
  8
0
 10
-29.2035
 20
-225.833
 11
-28.7389
 21
-225.653
  0
LINE
  8
0
 10
-28.7389
 20
-225.653
 11
-28.2491
 21
-225.562
  0
LINE
  8
0
 10
-28.2491
 20
-225.562
 11
-27.7509
 21
-225.562
  0
LINE
  8
0
 10
-27.7509
 20
-225.562
 11
-27.2611
 21
-225.653
  0
LINE
  8
0
 10
-27.2611
 20
-225.653
 11
-26.7965
 21
-225.833
  0
LINE
  8
0
 10
-26.7965
 20
-225.833
 11
-26.3729
 21
-226.095
  0
LINE
  8
0
 10
-26.3729
 20
-226.095
 11
-26.0047
 21
-226.431
  0
LINE
  8
0
 10
-26.0047
 20
-226.431
 11
-25.7044
 21
-226.829
  0
LINE
  8
0
 10
-25.7044
 20
-226.829
 11
-25.4823
 21
-227.275
  0
LINE
  8
0
 10
-25.4823
 20
-227.275
 11
-25.346
 21
-227.754
  0
LINE
  8
0
 10
-25.346
 20
-227.754
 11
-25.3
 21
-228.25
  0
LINE
  8
0
 10
-25.3
 20
-228.25
 11
-25.346
 21
-228.746
  0
LINE
  8
0
 10
-25.346
 20
-228.746
 11
-25.4823
 21
-229.225
  0
LINE
  8
0
 10
-25.4823
 20
-229.225
 11
-25.7044
 21
-229.671
  0
LINE
  8
0
 10
-25.7044
 20
-229.671
 11
-26.0047
 21
-230.069
  0
LINE
  8
0
 10
-26.0047
 20
-230.069
 11
-26.3729
 21
-230.405
  0
LINE
  8
0
 10
-26.3729
 20
-230.405
 11
-26.7965
 21
-230.667
  0
LINE
  8
0
 10
-26.7965
 20
-230.667
 11
-27.2611
 21
-230.847
  0
LINE
  8
0
 10
-27.2611
 20
-230.847
 11
-27.7509
 21
-230.938
  0
LINE
  8
0
 10
-27.7509
 20
-230.938
 11
-28.2491
 21
-230.938
  0
ENDSEC
  0
SECTION
  2
OBJECTS
  0
DICTIONARY
  0
ENDSEC
  0
EOF
