  0
SECTION
  2
BLOCKS
  0
ENDSEC
  0
SECTION
  2
ENTITIES
  0
LINE
  8
0
 10
-7.72401
 20
-50.078
 11
-8.10864
 21
-49.7631
  0
LINE
  8
0
 10
-8.10864
 20
-49.7631
 11
-8.48044
 21
-49.4332
  0
LINE
  8
0
 10
-8.48044
 20
-49.4332
 11
-8.83882
 21
-49.0888
  0
LINE
  8
0
 10
-8.83882
 20
-49.0888
 11
-9.18324
 21
-48.7304
  0
LINE
  8
0
 10
-9.18324
 20
-48.7304
 11
-9.51314
 21
-48.3586
  0
LINE
  8
0
 10
-9.51314
 20
-48.3586
 11
-9.82799
 21
-47.974
  0
LINE
  8
0
 10
-9.82799
 20
-47.974
 11
-10.1273
 21
-47.5772
  0
LINE
  8
0
 10
-10.1273
 20
-47.5772
 11
-10.4106
 21
-47.1688
  0
LINE
  8
0
 10
-10.4106
 20
-47.1688
 11
-10.6774
 21
-46.7494
  0
LINE
  8
0
 10
-10.6774
 20
-46.7494
 11
-10.9274
 21
-46.3198
  0
LINE
  8
0
 10
-10.9274
 20
-46.3198
 11
-11.16
 21
-45.8805
  0
LINE
  8
0
 10
-11.16
 20
-45.8805
 11
-11.3751
 21
-45.4324
  0
LINE
  8
0
 10
-11.3751
 20
-45.4324
 11
-11.5721
 21
-44.9761
  0
LINE
  8
0
 10
-11.5721
 20
-44.9761
 11
-11.7509
 21
-44.5123
  0
LINE
  8
0
 10
-11.7509
 20
-44.5123
 11
-11.911
 21
-44.0417
  0
LINE
  8
0
 10
-11.911
 20
-44.0417
 11
-12.0524
 21
-43.5652
  0
LINE
  8
0
 10
-12.0524
 20
-43.5652
 11
-12.1746
 21
-43.0834
  0
LINE
  8
0
 10
-12.1746
 20
-43.0834
 11
-12.2776
 21
-42.5971
  0
LINE
  8
0
 10
-12.2776
 20
-42.5971
 11
-12.3613
 21
-42.1072
  0
LINE
  8
0
 10
-12.3613
 20
-42.1072
 11
-12.4253
 21
-41.6143
  0
LINE
  8
0
 10
-12.4253
 20
-41.6143
 11
-12.4697
 21
-41.1192
  0
LINE
  8
0
 10
-12.4697
 20
-41.1192
 11
-12.4944
 21
-40.6228
  0
LINE
  8
0
 10
-12.4944
 20
-40.6228
 11
-12.4994
 21
-40.1257
  0
LINE
  8
0
 10
-12.4994
 20
-40.1257
 11
-12.4846
 21
-39.6289
  0
LINE
  8
0
 10
-12.4846
 20
-39.6289
 11
-12.45
 21
-39.133
  0
LINE
  8
0
 10
-12.45
 20
-39.133
 11
-12.3957
 21
-38.6389
  0
LINE
  8
0
 10
-12.3957
 20
-38.6389
 11
-12.3219
 21
-38.1474
  0
LINE
  8
0
 10
-12.3219
 20
-38.1474
 11
-12.2286
 21
-37.6592
  0
LINE
  8
0
 10
-12.2286
 20
-37.6592
 11
-12.1159
 21
-37.1751
  0
LINE
  8
0
 10
-12.1159
 20
-37.1751
 11
-11.9841
 21
-36.6958
  0
LINE
  8
0
 10
-11.9841
 20
-36.6958
 11
-11.8333
 21
-36.2222
  0
LINE
  8
0
 10
-11.8333
 20
-36.2222
 11
-11.6638
 21
-35.7549
  0
LINE
  8
0
 10
-11.6638
 20
-35.7549
 11
-11.4759
 21
-35.2948
  0
LINE
  8
0
 10
-11.4759
 20
-35.2948
 11
-11.2698
 21
-34.8425
  0
LINE
  8
0
 10
-11.2698
 20
-34.8425
 11
-11.0459
 21
-34.3987
  0
LINE
  8
0
 10
-11.0459
 20
-34.3987
 11
-10.8045
 21
-33.9642
  0
LINE
  8
0
 10
-10.8045
 20
-33.9642
 11
-10.5461
 21
-33.5396
  0
LINE
  8
0
 10
-10.5461
 20
-33.5396
 11
-10.271
 21
-33.1256
  0
LINE
  8
0
 10
-10.271
 20
-33.1256
 11
-9.97961
 21
-32.7229
  0
LINE
  8
0
 10
-9.97961
 20
-32.7229
 11
-9.67247
 21
-32.3321
  0
LINE
  8
0
 10
-9.67247
 20
-32.3321
 11
-9.35004
 21
-31.9538
  0
LINE
  8
0
 10
-9.35004
 20
-31.9538
 11
-9.01282
 21
-31.5886
  0
LINE
  8
0
 10
-9.01282
 20
-31.5886
 11
-8.66135
 21
-31.2372
  0
LINE
  8
0
 10
-8.66135
 20
-31.2372
 11
-8.29617
 21
-30.8999
  0
LINE
  8
0
 10
-8.29617
 20
-30.8999
 11
-7.91789
 21
-30.5775
  0
LINE
  8
0
 10
-7.91789
 20
-30.5775
 11
-7.52708
 21
-30.2704
  0
LINE
  8
0
 10
-7.52708
 20
-30.2704
 11
-7.12439
 21
-29.979
  0
LINE
  8
0
 10
-7.12439
 20
-29.979
 11
-6.71042
 21
-29.7039
  0
LINE
  8
0
 10
-6.71042
 20
-29.7039
 11
-6.28583
 21
-29.4454
  0
LINE
  8
0
 10
-6.28583
 20
-29.4454
 11
-5.85132
 21
-29.2041
  0
LINE
  8
0
 10
-5.85132
 20
-29.2041
 11
-5.40753
 21
-28.9802
  0
LINE
  8
0
 10
-5.40753
 20
-28.9802
 11
-4.95522
 21
-28.7741
  0
LINE
  8
0
 10
-4.95522
 20
-28.7741
 11
-4.49506
 21
-28.5862
  0
LINE
  8
0
 10
-4.49506
 20
-28.5862
 11
-4.02779
 21
-28.4167
  0
LINE
  8
0
 10
-4.02779
 20
-28.4167
 11
-3.55415
 21
-28.2659
  0
LINE
  8
0
 10
-3.55415
 20
-28.2659
 11
-3.07491
 21
-28.1341
  0
LINE
  8
0
 10
-3.07491
 20
-28.1341
 11
-2.59079
 21
-28.0214
  0
LINE
  8
0
 10
-2.59079
 20
-28.0214
 11
-2.10257
 21
-27.9281
  0
LINE
  8
0
 10
-2.10257
 20
-27.9281
 11
-1.61104
 21
-27.8542
  0
LINE
  8
0
 10
-1.61104
 20
-27.8542
 11
-1.11694
 21
-27.8
  0
LINE
  8
0
 10
-1.11694
 20
-27.8
 11
-0.621094
 21
-27.7654
  0
LINE
  8
0
 10
-0.621094
 20
-27.7654
 11
-0.124268
 21
-27.7506
  0
LINE
  8
0
 10
-0.124268
 20
-27.7506
 11
0.372757
 21
-27.7556
  0
LINE
  8
0
 10
0.372757
 20
-27.7556
 11
0.869186
 21
-27.7803
  0
LINE
  8
0
 10
0.869186
 20
-27.7803
 11
1.36426
 21
-27.8247
  0
LINE
  8
0
 10
1.36426
 20
-27.8247
 11
1.85716
 21
-27.8887
  0
LINE
  8
0
 10
1.85716
 20
-27.8887
 11
2.34714
 21
-27.9723
  0
LINE
  8
0
 10
2.34714
 20
-27.9723
 11
2.8334
 21
-28.0754
  0
LINE
  8
0
 10
2.8334
 20
-28.0754
 11
3.31519
 21
-28.1976
  0
LINE
  8
0
 10
3.31519
 20
-28.1976
 11
3.79172
 21
-28.339
  0
LINE
  8
0
 10
3.79172
 20
-28.339
 11
4.26227
 21
-28.4991
  0
LINE
  8
0
 10
4.26227
 20
-28.4991
 11
4.72607
 21
-28.6779
  0
LINE
  8
0
 10
4.72607
 20
-28.6779
 11
5.1824
 21
-28.8749
  0
LINE
  8
0
 10
5.1824
 20
-28.8749
 11
5.63054
 21
-29.0899
  0
LINE
  8
0
 10
5.63054
 20
-29.0899
 11
6.06978
 21
-29.3226
  0
LINE
  8
0
 10
6.06978
 20
-29.3226
 11
6.4994
 21
-29.5726
  0
LINE
  8
0
 10
6.4994
 20
-29.5726
 11
6.91876
 21
-29.8394
  0
LINE
  8
0
 10
6.91876
 20
-29.8394
 11
7.32718
 21
-30.1227
  0
LINE
  8
0
 10
7.32718
 20
-30.1227
 11
7.72401
 21
-30.422
  0
LINE
  8
0
 10
7.72401
 20
-30.422
 11
8.10864
 21
-30.7368
  0
LINE
  8
0
 10
8.10864
 20
-30.7368
 11
8.48044
 21
-31.0667
  0
LINE
  8
0
 10
8.48044
 20
-31.0667
 11
8.83882
 21
-31.4112
  0
LINE
  8
0
 10
8.83882
 20
-31.4112
 11
9.18324
 21
-31.7695
  0
LINE
  8
0
 10
9.18324
 20
-31.7695
 11
9.51314
 21
-32.1413
  0
LINE
  8
0
 10
9.51314
 20
-32.1413
 11
9.82799
 21
-32.526
  0
LINE
  8
0
 10
9.82799
 20
-32.526
 11
10.1273
 21
-32.9228
  0
LINE
  8
0
 10
10.1273
 20
-32.9228
 11
10.4106
 21
-33.3312
  0
LINE
  8
0
 10
10.4106
 20
-33.3312
 11
10.6774
 21
-33.7506
  0
LINE
  8
0
 10
10.6774
 20
-33.7506
 11
10.9274
 21
-34.1802
  0
LINE
  8
0
 10
10.9274
 20
-34.1802
 11
11.16
 21
-34.6194
  0
LINE
  8
0
 10
11.16
 20
-34.6194
 11
11.3751
 21
-35.0676
  0
LINE
  8
0
 10
11.3751
 20
-35.0676
 11
11.5721
 21
-35.5239
  0
LINE
  8
0
 10
11.5721
 20
-35.5239
 11
11.7509
 21
-35.9877
  0
LINE
  8
0
 10
11.7509
 20
-35.9877
 11
11.911
 21
-36.4583
  0
LINE
  8
0
 10
11.911
 20
-36.4583
 11
12.0524
 21
-36.9348
  0
LINE
  8
0
 10
12.0524
 20
-36.9348
 11
12.1746
 21
-37.4166
  0
LINE
  8
0
 10
12.1746
 20
-37.4166
 11
12.2776
 21
-37.9028
  0
LINE
  8
0
 10
12.2776
 20
-37.9028
 11
12.3613
 21
-38.3928
  0
LINE
  8
0
 10
12.3613
 20
-38.3928
 11
12.4253
 21
-38.8857
  0
LINE
  8
0
 10
12.4253
 20
-38.8857
 11
12.4697
 21
-39.3808
  0
LINE
  8
0
 10
12.4697
 20
-39.3808
 11
12.4944
 21
-39.8772
  0
LINE
  8
0
 10
12.4944
 20
-39.8772
 11
12.4994
 21
-40.3743
  0
LINE
  8
0
 10
12.4994
 20
-40.3743
 11
12.4846
 21
-40.8711
  0
LINE
  8
0
 10
12.4846
 20
-40.8711
 11
12.45
 21
-41.3669
  0
LINE
  8
0
 10
12.45
 20
-41.3669
 11
12.3957
 21
-41.861
  0
LINE
  8
0
 10
12.3957
 20
-41.861
 11
12.3219
 21
-42.3526
  0
LINE
  8
0
 10
12.3219
 20
-42.3526
 11
12.2286
 21
-42.8408
  0
LINE
  8
0
 10
12.2286
 20
-42.8408
 11
12.1159
 21
-43.3249
  0
LINE
  8
0
 10
12.1159
 20
-43.3249
 11
11.9841
 21
-43.8042
  0
LINE
  8
0
 10
11.9841
 20
-43.8042
 11
11.8333
 21
-44.2778
  0
LINE
  8
0
 10
11.8333
 20
-44.2778
 11
11.6638
 21
-44.7451
  0
LINE
  8
0
 10
11.6638
 20
-44.7451
 11
11.4759
 21
-45.2052
  0
LINE
  8
0
 10
11.4759
 20
-45.2052
 11
11.2698
 21
-45.6575
  0
LINE
  8
0
 10
11.2698
 20
-45.6575
 11
11.0459
 21
-46.1013
  0
LINE
  8
0
 10
11.0459
 20
-46.1013
 11
10.8045
 21
-46.5358
  0
LINE
  8
0
 10
10.8045
 20
-46.5358
 11
10.5461
 21
-46.9604
  0
LINE
  8
0
 10
10.5461
 20
-46.9604
 11
10.271
 21
-47.3744
  0
LINE
  8
0
 10
10.271
 20
-47.3744
 11
9.97961
 21
-47.7771
  0
LINE
  8
0
 10
9.97961
 20
-47.7771
 11
9.67247
 21
-48.1679
  0
LINE
  8
0
 10
9.67247
 20
-48.1679
 11
9.35004
 21
-48.5462
  0
LINE
  8
0
 10
9.35004
 20
-48.5462
 11
9.01282
 21
-48.9113
  0
LINE
  8
0
 10
9.01282
 20
-48.9113
 11
8.66135
 21
-49.2628
  0
LINE
  8
0
 10
8.66135
 20
-49.2628
 11
8.29617
 21
-49.6
  0
LINE
  8
0
 10
8.29617
 20
-49.6
 11
7.91789
 21
-49.9225
  0
LINE
  8
0
 10
7.91789
 20
-49.9225
 11
7.52708
 21
-50.2296
  0
LINE
  8
0
 10
7.52708
 20
-50.2296
 11
7.49892
 21
-50.25
  0
LINE
  8
0
 10
7.49892
 20
-50.25
 11
210
 21
-50.25
  0
LINE
  8
0
 10
210
 20
-50.25
 11
210
 21
-42.75
  0
LINE
  8
0
 10
210
 20
-42.75
 11
214.875
 21
-42.75
  0
LINE
  8
0
 10
214.875
 20
-42.75
 11
216.5
 21
-41.125
  0
LINE
  8
0
 10
216.5
 20
-41.125
 11
216.5
 21
-29.375
  0
LINE
  8
0
 10
216.5
 20
-29.375
 11
214.875
 21
-27.75
  0
LINE
  8
0
 10
214.875
 20
-27.75
 11
210
 21
-27.75
  0
LINE
  8
0
 10
210
 20
-27.75
 11
210
 21
-22.7
  0
LINE
  8
0
 10
210
 20
-22.7
 11
203.1
 21
-22.7
  0
LINE
  8
0
 10
203.1
 20
-22.7
 11
203.1
 21
-24.2
  0
LINE
  8
0
 10
203.1
 20
-24.2
 11
197.4
 21
-24.2
  0
LINE
  8
0
 10
197.4
 20
-24.2
 11
197.4
 21
-22.7
  0
LINE
  8
0
 10
197.4
 20
-22.7
 11
190.5
 21
-22.7
  0
LINE
  8
0
 10
190.5
 20
-22.7
 11
190.5
 21
-17.8
  0
LINE
  8
0
 10
190.5
 20
-17.8
 11
197.4
 21
-17.8
  0
LINE
  8
0
 10
197.4
 20
-17.8
 11
197.4
 21
-16.3
  0
LINE
  8
0
 10
197.4
 20
-16.3
 11
203.1
 21
-16.3
  0
LINE
  8
0
 10
203.1
 20
-16.3
 11
203.1
 21
-17.8
  0
LINE
  8
0
 10
203.1
 20
-17.8
 11
210
 21
-17.8
  0
LINE
  8
0
 10
210
 20
-17.8
 11
210
 21
-12.75
  0
LINE
  8
0
 10
210
 20
-12.75
 11
214.875
 21
-12.75
  0
LINE
  8
0
 10
214.875
 20
-12.75
 11
216.5
 21
-11.125
  0
LINE
  8
0
 10
216.5
 20
-11.125
 11
216.5
 21
0.625
  0
LINE
  8
0
 10
216.5
 20
0.625
 11
214.875
 21
2.25
  0
LINE
  8
0
 10
214.875
 20
2.25
 11
210
 21
2.25
  0
LINE
  8
0
 10
210
 20
2.25
 11
210
 21
9.75
  0
LINE
  8
0
 10
210
 20
9.75
 11
-210
 21
9.75
  0
LINE
  8
0
 10
-210
 20
9.75
 11
-210
 21
2.25
  0
LINE
  8
0
 10
-210
 20
2.25
 11
-214.875
 21
2.25
  0
LINE
  8
0
 10
-214.875
 20
2.25
 11
-216.5
 21
0.625
  0
LINE
  8
0
 10
-216.5
 20
0.625
 11
-216.5
 21
-11.125
  0
LINE
  8
0
 10
-216.5
 20
-11.125
 11
-214.875
 21
-12.75
  0
LINE
  8
0
 10
-214.875
 20
-12.75
 11
-210
 21
-12.75
  0
LINE
  8
0
 10
-210
 20
-12.75
 11
-210
 21
-17.8
  0
LINE
  8
0
 10
-210
 20
-17.8
 11
-203.1
 21
-17.8
  0
LINE
  8
0
 10
-203.1
 20
-17.8
 11
-203.1
 21
-16.3
  0
LINE
  8
0
 10
-203.1
 20
-16.3
 11
-197.4
 21
-16.3
  0
LINE
  8
0
 10
-197.4
 20
-16.3
 11
-197.4
 21
-17.8
  0
LINE
  8
0
 10
-197.4
 20
-17.8
 11
-190.5
 21
-17.8
  0
LINE
  8
0
 10
-190.5
 20
-17.8
 11
-190.5
 21
-22.7
  0
LINE
  8
0
 10
-190.5
 20
-22.7
 11
-197.4
 21
-22.7
  0
LINE
  8
0
 10
-197.4
 20
-22.7
 11
-197.4
 21
-24.2
  0
LINE
  8
0
 10
-197.4
 20
-24.2
 11
-203.1
 21
-24.2
  0
LINE
  8
0
 10
-203.1
 20
-24.2
 11
-203.1
 21
-22.7
  0
LINE
  8
0
 10
-203.1
 20
-22.7
 11
-210
 21
-22.7
  0
LINE
  8
0
 10
-210
 20
-22.7
 11
-210
 21
-27.75
  0
LINE
  8
0
 10
-210
 20
-27.75
 11
-214.875
 21
-27.75
  0
LINE
  8
0
 10
-214.875
 20
-27.75
 11
-216.5
 21
-29.375
  0
LINE
  8
0
 10
-216.5
 20
-29.375
 11
-216.5
 21
-41.125
  0
LINE
  8
0
 10
-216.5
 20
-41.125
 11
-214.875
 21
-42.75
  0
LINE
  8
0
 10
-214.875
 20
-42.75
 11
-210
 21
-42.75
  0
LINE
  8
0
 10
-210
 20
-42.75
 11
-210
 21
-50.25
  0
LINE
  8
0
 10
-210
 20
-50.25
 11
-7.49597
 21
-50.25
  0
LINE
  8
0
 10
-7.49597
 20
-50.25
 11
-7.72401
 21
-50.078
  0
LINE
  8
0
 10
-102.45
 20
-3.2
 11
-102.45
 21
3.2
  0
LINE
  8
0
 10
-102.45
 20
3.2
 11
-87.55
 21
3.2
  0
LINE
  8
0
 10
-87.55
 20
3.2
 11
-87.55
 21
-3.2
  0
LINE
  8
0
 10
-87.55
 20
-3.2
 11
-102.45
 21
-3.2
  0
LINE
  8
0
 10
87.55
 20
-3.2
 11
87.55
 21
3.2
  0
LINE
  8
0
 10
87.55
 20
3.2
 11
102.45
 21
3.2
  0
LINE
  8
0
 10
102.45
 20
3.2
 11
102.45
 21
-3.2
  0
LINE
  8
0
 10
102.45
 20
-3.2
 11
87.55
 21
-3.2
  0
LINE
  8
0
 10
117.55
 20
-3.2
 11
117.55
 21
3.2
  0
LINE
  8
0
 10
117.55
 20
3.2
 11
132.45
 21
3.2
  0
LINE
  8
0
 10
132.45
 20
3.2
 11
132.45
 21
-3.2
  0
LINE
  8
0
 10
132.45
 20
-3.2
 11
117.55
 21
-3.2
  0
LINE
  8
0
 10
-132.45
 20
-3.2
 11
-132.45
 21
3.2
  0
LINE
  8
0
 10
-132.45
 20
3.2
 11
-117.55
 21
3.2
  0
LINE
  8
0
 10
-117.55
 20
3.2
 11
-117.55
 21
-3.2
  0
LINE
  8
0
 10
-117.55
 20
-3.2
 11
-132.45
 21
-3.2
  0
LINE
  8
0
 10
110
 20
-2.49998
 11
109.512
 21
-2.45195
  0
LINE
  8
0
 10
109.512
 20
-2.45195
 11
109.043
 21
-2.30969
  0
LINE
  8
0
 10
109.043
 20
-2.30969
 11
108.611
 21
-2.07866
  0
LINE
  8
0
 10
108.611
 20
-2.07866
 11
108.232
 21
-1.76776
  0
LINE
  8
0
 10
108.232
 20
-1.76776
 11
107.921
 21
-1.38892
  0
LINE
  8
0
 10
107.921
 20
-1.38892
 11
107.69
 21
-0.956696
  0
LINE
  8
0
 10
107.69
 20
-0.956696
 11
107.548
 21
-0.487717
  0
LINE
  8
0
 10
107.548
 20
-0.487717
 11
107.5
 21
0
  0
LINE
  8
0
 10
107.5
 20
0
 11
107.548
 21
0.487717
  0
LINE
  8
0
 10
107.548
 20
0.487717
 11
107.69
 21
0.956696
  0
LINE
  8
0
 10
107.69
 20
0.956696
 11
107.921
 21
1.38892
  0
LINE
  8
0
 10
107.921
 20
1.38892
 11
108.232
 21
1.76776
  0
LINE
  8
0
 10
108.232
 20
1.76776
 11
108.611
 21
2.07866
  0
LINE
  8
0
 10
108.611
 20
2.07866
 11
109.043
 21
2.30969
  0
LINE
  8
0
 10
109.043
 20
2.30969
 11
109.512
 21
2.45195
  0
LINE
  8
0
 10
109.512
 20
2.45195
 11
110
 21
2.49998
  0
LINE
  8
0
 10
110
 20
2.49998
 11
110.488
 21
2.45195
  0
LINE
  8
0
 10
110.488
 20
2.45195
 11
110.957
 21
2.30969
  0
LINE
  8
0
 10
110.957
 20
2.30969
 11
111.389
 21
2.07866
  0
LINE
  8
0
 10
111.389
 20
2.07866
 11
111.768
 21
1.76776
  0
LINE
  8
0
 10
111.768
 20
1.76776
 11
112.079
 21
1.38892
  0
LINE
  8
0
 10
112.079
 20
1.38892
 11
112.31
 21
0.956696
  0
LINE
  8
0
 10
112.31
 20
0.956696
 11
112.452
 21
0.487717
  0
LINE
  8
0
 10
112.452
 20
0.487717
 11
112.5
 21
0
  0
LINE
  8
0
 10
112.5
 20
0
 11
112.452
 21
-0.487717
  0
LINE
  8
0
 10
112.452
 20
-0.487717
 11
112.31
 21
-0.956696
  0
LINE
  8
0
 10
112.31
 20
-0.956696
 11
112.079
 21
-1.38892
  0
LINE
  8
0
 10
112.079
 20
-1.38892
 11
111.768
 21
-1.76776
  0
LINE
  8
0
 10
111.768
 20
-1.76776
 11
111.389
 21
-2.07866
  0
LINE
  8
0
 10
111.389
 20
-2.07866
 11
110.957
 21
-2.30969
  0
LINE
  8
0
 10
110.957
 20
-2.30969
 11
110.488
 21
-2.45195
  0
LINE
  8
0
 10
110.488
 20
-2.45195
 11
110
 21
-2.49998
  0
LINE
  8
0
 10
-110
 20
-2.49998
 11
-110.488
 21
-2.45195
  0
LINE
  8
0
 10
-110.488
 20
-2.45195
 11
-110.957
 21
-2.30969
  0
LINE
  8
0
 10
-110.957
 20
-2.30969
 11
-111.389
 21
-2.07866
  0
LINE
  8
0
 10
-111.389
 20
-2.07866
 11
-111.768
 21
-1.76776
  0
LINE
  8
0
 10
-111.768
 20
-1.76776
 11
-112.079
 21
-1.38892
  0
LINE
  8
0
 10
-112.079
 20
-1.38892
 11
-112.31
 21
-0.956696
  0
LINE
  8
0
 10
-112.31
 20
-0.956696
 11
-112.452
 21
-0.487717
  0
LINE
  8
0
 10
-112.452
 20
-0.487717
 11
-112.5
 21
0
  0
LINE
  8
0
 10
-112.5
 20
0
 11
-112.452
 21
0.487717
  0
LINE
  8
0
 10
-112.452
 20
0.487717
 11
-112.31
 21
0.956696
  0
LINE
  8
0
 10
-112.31
 20
0.956696
 11
-112.079
 21
1.38892
  0
LINE
  8
0
 10
-112.079
 20
1.38892
 11
-111.768
 21
1.76776
  0
LINE
  8
0
 10
-111.768
 20
1.76776
 11
-111.389
 21
2.07866
  0
LINE
  8
0
 10
-111.389
 20
2.07866
 11
-110.957
 21
2.30969
  0
LINE
  8
0
 10
-110.957
 20
2.30969
 11
-110.488
 21
2.45195
  0
LINE
  8
0
 10
-110.488
 20
2.45195
 11
-110
 21
2.49998
  0
LINE
  8
0
 10
-110
 20
2.49998
 11
-109.512
 21
2.45195
  0
LINE
  8
0
 10
-109.512
 20
2.45195
 11
-109.043
 21
2.30969
  0
LINE
  8
0
 10
-109.043
 20
2.30969
 11
-108.611
 21
2.07866
  0
LINE
  8
0
 10
-108.611
 20
2.07866
 11
-108.232
 21
1.76776
  0
LINE
  8
0
 10
-108.232
 20
1.76776
 11
-107.921
 21
1.38892
  0
LINE
  8
0
 10
-107.921
 20
1.38892
 11
-107.69
 21
0.956696
  0
LINE
  8
0
 10
-107.69
 20
0.956696
 11
-107.548
 21
0.487717
  0
LINE
  8
0
 10
-107.548
 20
0.487717
 11
-107.5
 21
0
  0
LINE
  8
0
 10
-107.5
 20
0
 11
-107.548
 21
-0.487717
  0
LINE
  8
0
 10
-107.548
 20
-0.487717
 11
-107.69
 21
-0.956696
  0
LINE
  8
0
 10
-107.69
 20
-0.956696
 11
-107.921
 21
-1.38892
  0
LINE
  8
0
 10
-107.921
 20
-1.38892
 11
-108.232
 21
-1.76776
  0
LINE
  8
0
 10
-108.232
 20
-1.76776
 11
-108.611
 21
-2.07866
  0
LINE
  8
0
 10
-108.611
 20
-2.07866
 11
-109.043
 21
-2.30969
  0
LINE
  8
0
 10
-109.043
 20
-2.30969
 11
-109.512
 21
-2.45195
  0
LINE
  8
0
 10
-109.512
 20
-2.45195
 11
-110
 21
-2.49998
  0
LINE
  8
0
 10
199.512
 20
-12.202
 11
199.043
 21
-12.0597
  0
LINE
  8
0
 10
199.043
 20
-12.0597
 11
198.611
 21
-11.8287
  0
LINE
  8
0
 10
198.611
 20
-11.8287
 11
198.232
 21
-11.5178
  0
LINE
  8
0
 10
198.232
 20
-11.5178
 11
197.921
 21
-11.1389
  0
LINE
  8
0
 10
197.921
 20
-11.1389
 11
197.69
 21
-10.7067
  0
LINE
  8
0
 10
197.69
 20
-10.7067
 11
197.548
 21
-10.2377
  0
LINE
  8
0
 10
197.548
 20
-10.2377
 11
197.5
 21
-9.75
  0
LINE
  8
0
 10
197.5
 20
-9.75
 11
197.548
 21
-9.26227
  0
LINE
  8
0
 10
197.548
 20
-9.26227
 11
197.69
 21
-8.79329
  0
LINE
  8
0
 10
197.69
 20
-8.79329
 11
197.921
 21
-8.36107
  0
LINE
  8
0
 10
197.921
 20
-8.36107
 11
198.232
 21
-7.98222
  0
LINE
  8
0
 10
198.232
 20
-7.98222
 11
198.611
 21
-7.67133
  0
LINE
  8
0
 10
198.611
 20
-7.67133
 11
199.043
 21
-7.44029
  0
LINE
  8
0
 10
199.043
 20
-7.44029
 11
199.512
 21
-7.29803
  0
LINE
  8
0
 10
199.512
 20
-7.29803
 11
200
 21
-7.25
  0
LINE
  8
0
 10
200
 20
-7.25
 11
200.488
 21
-7.29803
  0
LINE
  8
0
 10
200.488
 20
-7.29803
 11
200.957
 21
-7.44029
  0
LINE
  8
0
 10
200.957
 20
-7.44029
 11
201.389
 21
-7.67133
  0
LINE
  8
0
 10
201.389
 20
-7.67133
 11
201.768
 21
-7.98222
  0
LINE
  8
0
 10
201.768
 20
-7.98222
 11
202.079
 21
-8.36107
  0
LINE
  8
0
 10
202.079
 20
-8.36107
 11
202.31
 21
-8.79329
  0
LINE
  8
0
 10
202.31
 20
-8.79329
 11
202.452
 21
-9.26227
  0
LINE
  8
0
 10
202.452
 20
-9.26227
 11
202.5
 21
-9.75
  0
LINE
  8
0
 10
202.5
 20
-9.75
 11
202.452
 21
-10.2377
  0
LINE
  8
0
 10
202.452
 20
-10.2377
 11
202.31
 21
-10.7067
  0
LINE
  8
0
 10
202.31
 20
-10.7067
 11
202.079
 21
-11.1389
  0
LINE
  8
0
 10
202.079
 20
-11.1389
 11
201.768
 21
-11.5178
  0
LINE
  8
0
 10
201.768
 20
-11.5178
 11
201.389
 21
-11.8287
  0
LINE
  8
0
 10
201.389
 20
-11.8287
 11
200.957
 21
-12.0597
  0
LINE
  8
0
 10
200.957
 20
-12.0597
 11
200.488
 21
-12.202
  0
LINE
  8
0
 10
200.488
 20
-12.202
 11
200
 21
-12.25
  0
LINE
  8
0
 10
200
 20
-12.25
 11
199.512
 21
-12.202
  0
LINE
  8
0
 10
-200.488
 20
-12.202
 11
-200.957
 21
-12.0597
  0
LINE
  8
0
 10
-200.957
 20
-12.0597
 11
-201.389
 21
-11.8287
  0
LINE
  8
0
 10
-201.389
 20
-11.8287
 11
-201.768
 21
-11.5178
  0
LINE
  8
0
 10
-201.768
 20
-11.5178
 11
-202.079
 21
-11.1389
  0
LINE
  8
0
 10
-202.079
 20
-11.1389
 11
-202.31
 21
-10.7067
  0
LINE
  8
0
 10
-202.31
 20
-10.7067
 11
-202.452
 21
-10.2377
  0
LINE
  8
0
 10
-202.452
 20
-10.2377
 11
-202.5
 21
-9.75
  0
LINE
  8
0
 10
-202.5
 20
-9.75
 11
-202.452
 21
-9.26227
  0
LINE
  8
0
 10
-202.452
 20
-9.26227
 11
-202.31
 21
-8.79329
  0
LINE
  8
0
 10
-202.31
 20
-8.79329
 11
-202.079
 21
-8.36107
  0
LINE
  8
0
 10
-202.079
 20
-8.36107
 11
-201.768
 21
-7.98222
  0
LINE
  8
0
 10
-201.768
 20
-7.98222
 11
-201.389
 21
-7.67133
  0
LINE
  8
0
 10
-201.389
 20
-7.67133
 11
-200.957
 21
-7.44029
  0
LINE
  8
0
 10
-200.957
 20
-7.44029
 11
-200.488
 21
-7.29803
  0
LINE
  8
0
 10
-200.488
 20
-7.29803
 11
-200
 21
-7.25
  0
LINE
  8
0
 10
-200
 20
-7.25
 11
-199.512
 21
-7.29803
  0
LINE
  8
0
 10
-199.512
 20
-7.29803
 11
-199.043
 21
-7.44029
  0
LINE
  8
0
 10
-199.043
 20
-7.44029
 11
-198.611
 21
-7.67133
  0
LINE
  8
0
 10
-198.611
 20
-7.67133
 11
-198.232
 21
-7.98222
  0
LINE
  8
0
 10
-198.232
 20
-7.98222
 11
-197.921
 21
-8.36107
  0
LINE
  8
0
 10
-197.921
 20
-8.36107
 11
-197.69
 21
-8.79329
  0
LINE
  8
0
 10
-197.69
 20
-8.79329
 11
-197.548
 21
-9.26227
  0
LINE
  8
0
 10
-197.548
 20
-9.26227
 11
-197.5
 21
-9.75
  0
LINE
  8
0
 10
-197.5
 20
-9.75
 11
-197.548
 21
-10.2377
  0
LINE
  8
0
 10
-197.548
 20
-10.2377
 11
-197.69
 21
-10.7067
  0
LINE
  8
0
 10
-197.69
 20
-10.7067
 11
-197.921
 21
-11.1389
  0
LINE
  8
0
 10
-197.921
 20
-11.1389
 11
-198.232
 21
-11.5178
  0
LINE
  8
0
 10
-198.232
 20
-11.5178
 11
-198.611
 21
-11.8287
  0
LINE
  8
0
 10
-198.611
 20
-11.8287
 11
-199.043
 21
-12.0597
  0
LINE
  8
0
 10
-199.043
 20
-12.0597
 11
-199.512
 21
-12.202
  0
LINE
  8
0
 10
-199.512
 20
-12.202
 11
-200
 21
-12.25
  0
LINE
  8
0
 10
-200
 20
-12.25
 11
-200.488
 21
-12.202
  0
LINE
  8
0
 10
-0.361359
 20
-21.405
 11
-0.814713
 21
-21.2359
  0
LINE
  8
0
 10
-0.814713
 20
-21.2359
 11
-1.20207
 21
-20.946
  0
LINE
  8
0
 10
-1.20207
 20
-20.946
 11
-1.49205
 21
-20.5586
  0
LINE
  8
0
 10
-1.49205
 20
-20.5586
 11
-1.66115
 21
-20.1053
  0
LINE
  8
0
 10
-1.66115
 20
-20.1053
 11
-1.69566
 21
-19.6226
  0
LINE
  8
0
 10
-1.69566
 20
-19.6226
 11
-1.69566
 21
-16.7942
  0
LINE
  8
0
 10
-1.69566
 20
-16.7942
 11
-1.5928
 21
-16.3214
  0
LINE
  8
0
 10
-1.5928
 20
-16.3214
 11
-1.36092
 21
-15.8967
  0
LINE
  8
0
 10
-1.36092
 20
-15.8967
 11
-1.01877
 21
-15.5546
  0
LINE
  8
0
 10
-1.01877
 20
-15.5546
 11
-0.594086
 21
-15.3226
  0
LINE
  8
0
 10
-0.594086
 20
-15.3226
 11
-0.121262
 21
-15.2198
  0
LINE
  8
0
 10
-0.121262
 20
-15.2198
 11
0.361359
 21
-15.2543
  0
LINE
  8
0
 10
0.361359
 20
-15.2543
 11
0.814713
 21
-15.4234
  0
LINE
  8
0
 10
0.814713
 20
-15.4234
 11
1.20207
 21
-15.7134
  0
LINE
  8
0
 10
1.20207
 20
-15.7134
 11
1.49205
 21
-16.1008
  0
LINE
  8
0
 10
1.49205
 20
-16.1008
 11
1.66115
 21
-16.5541
  0
LINE
  8
0
 10
1.66115
 20
-16.5541
 11
1.69566
 21
-17.0367
  0
LINE
  8
0
 10
1.69566
 20
-17.0367
 11
1.69566
 21
-19.8652
  0
LINE
  8
0
 10
1.69566
 20
-19.8652
 11
1.5928
 21
-20.338
  0
LINE
  8
0
 10
1.5928
 20
-20.338
 11
1.36092
 21
-20.7627
  0
LINE
  8
0
 10
1.36092
 20
-20.7627
 11
1.01877
 21
-21.1048
  0
LINE
  8
0
 10
1.01877
 20
-21.1048
 11
0.594086
 21
-21.3367
  0
LINE
  8
0
 10
0.594086
 20
-21.3367
 11
0.121262
 21
-21.4396
  0
LINE
  8
0
 10
0.121262
 20
-21.4396
 11
-0.361359
 21
-21.405
  0
LINE
  8
0
 10
117.55
 20
-29.7
 11
117.55
 21
-23.3
  0
LINE
  8
0
 10
117.55
 20
-23.3
 11
132.45
 21
-23.3
  0
LINE
  8
0
 10
132.45
 20
-23.3
 11
132.45
 21
-29.7
  0
LINE
  8
0
 10
132.45
 20
-29.7
 11
117.55
 21
-29.7
  0
LINE
  8
0
 10
87.55
 20
-29.7
 11
87.55
 21
-23.3
  0
LINE
  8
0
 10
87.55
 20
-23.3
 11
102.45
 21
-23.3
  0
LINE
  8
0
 10
102.45
 20
-23.3
 11
102.45
 21
-29.7
  0
LINE
  8
0
 10
102.45
 20
-29.7
 11
87.55
 21
-29.7
  0
LINE
  8
0
 10
-102.45
 20
-29.7
 11
-102.45
 21
-23.3
  0
LINE
  8
0
 10
-102.45
 20
-23.3
 11
-87.55
 21
-23.3
  0
LINE
  8
0
 10
-87.55
 20
-23.3
 11
-87.55
 21
-29.7
  0
LINE
  8
0
 10
-87.55
 20
-29.7
 11
-102.45
 21
-29.7
  0
LINE
  8
0
 10
-132.45
 20
-29.7
 11
-132.45
 21
-23.3
  0
LINE
  8
0
 10
-132.45
 20
-23.3
 11
-117.55
 21
-23.3
  0
LINE
  8
0
 10
-117.55
 20
-23.3
 11
-117.55
 21
-29.7
  0
LINE
  8
0
 10
-117.55
 20
-29.7
 11
-132.45
 21
-29.7
  0
LINE
  8
0
 10
-110
 20
-29
 11
-110.488
 21
-28.952
  0
LINE
  8
0
 10
-110.488
 20
-28.952
 11
-110.957
 21
-28.8097
  0
LINE
  8
0
 10
-110.957
 20
-28.8097
 11
-111.389
 21
-28.5787
  0
LINE
  8
0
 10
-111.389
 20
-28.5787
 11
-111.768
 21
-28.2678
  0
LINE
  8
0
 10
-111.768
 20
-28.2678
 11
-112.079
 21
-27.8889
  0
LINE
  8
0
 10
-112.079
 20
-27.8889
 11
-112.31
 21
-27.4567
  0
LINE
  8
0
 10
-112.31
 20
-27.4567
 11
-112.452
 21
-26.9877
  0
LINE
  8
0
 10
-112.452
 20
-26.9877
 11
-112.5
 21
-26.5
  0
LINE
  8
0
 10
-112.5
 20
-26.5
 11
-112.452
 21
-26.0123
  0
LINE
  8
0
 10
-112.452
 20
-26.0123
 11
-112.31
 21
-25.5433
  0
LINE
  8
0
 10
-112.31
 20
-25.5433
 11
-112.079
 21
-25.1111
  0
LINE
  8
0
 10
-112.079
 20
-25.1111
 11
-111.768
 21
-24.7322
  0
LINE
  8
0
 10
-111.768
 20
-24.7322
 11
-111.389
 21
-24.4213
  0
LINE
  8
0
 10
-111.389
 20
-24.4213
 11
-110.957
 21
-24.1903
  0
LINE
  8
0
 10
-110.957
 20
-24.1903
 11
-110.488
 21
-24.048
  0
LINE
  8
0
 10
-110.488
 20
-24.048
 11
-110
 21
-24
  0
LINE
  8
0
 10
-110
 20
-24
 11
-109.512
 21
-24.048
  0
LINE
  8
0
 10
-109.512
 20
-24.048
 11
-109.043
 21
-24.1903
  0
LINE
  8
0
 10
-109.043
 20
-24.1903
 11
-108.611
 21
-24.4213
  0
LINE
  8
0
 10
-108.611
 20
-24.4213
 11
-108.232
 21
-24.7322
  0
LINE
  8
0
 10
-108.232
 20
-24.7322
 11
-107.921
 21
-25.1111
  0
LINE
  8
0
 10
-107.921
 20
-25.1111
 11
-107.69
 21
-25.5433
  0
LINE
  8
0
 10
-107.69
 20
-25.5433
 11
-107.548
 21
-26.0123
  0
LINE
  8
0
 10
-107.548
 20
-26.0123
 11
-107.5
 21
-26.5
  0
LINE
  8
0
 10
-107.5
 20
-26.5
 11
-107.548
 21
-26.9877
  0
LINE
  8
0
 10
-107.548
 20
-26.9877
 11
-107.69
 21
-27.4567
  0
LINE
  8
0
 10
-107.69
 20
-27.4567
 11
-107.921
 21
-27.8889
  0
LINE
  8
0
 10
-107.921
 20
-27.8889
 11
-108.232
 21
-28.2678
  0
LINE
  8
0
 10
-108.232
 20
-28.2678
 11
-108.611
 21
-28.5787
  0
LINE
  8
0
 10
-108.611
 20
-28.5787
 11
-109.043
 21
-28.8097
  0
LINE
  8
0
 10
-109.043
 20
-28.8097
 11
-109.512
 21
-28.952
  0
LINE
  8
0
 10
-109.512
 20
-28.952
 11
-110
 21
-29
  0
LINE
  8
0
 10
110
 20
-29
 11
109.512
 21
-28.952
  0
LINE
  8
0
 10
109.512
 20
-28.952
 11
109.043
 21
-28.8097
  0
LINE
  8
0
 10
109.043
 20
-28.8097
 11
108.611
 21
-28.5787
  0
LINE
  8
0
 10
108.611
 20
-28.5787
 11
108.232
 21
-28.2678
  0
LINE
  8
0
 10
108.232
 20
-28.2678
 11
107.921
 21
-27.8889
  0
LINE
  8
0
 10
107.921
 20
-27.8889
 11
107.69
 21
-27.4567
  0
LINE
  8
0
 10
107.69
 20
-27.4567
 11
107.548
 21
-26.9877
  0
LINE
  8
0
 10
107.548
 20
-26.9877
 11
107.5
 21
-26.5
  0
LINE
  8
0
 10
107.5
 20
-26.5
 11
107.548
 21
-26.0123
  0
LINE
  8
0
 10
107.548
 20
-26.0123
 11
107.69
 21
-25.5433
  0
LINE
  8
0
 10
107.69
 20
-25.5433
 11
107.921
 21
-25.1111
  0
LINE
  8
0
 10
107.921
 20
-25.1111
 11
108.232
 21
-24.7322
  0
LINE
  8
0
 10
108.232
 20
-24.7322
 11
108.611
 21
-24.4213
  0
LINE
  8
0
 10
108.611
 20
-24.4213
 11
109.043
 21
-24.1903
  0
LINE
  8
0
 10
109.043
 20
-24.1903
 11
109.512
 21
-24.048
  0
LINE
  8
0
 10
109.512
 20
-24.048
 11
110
 21
-24
  0
LINE
  8
0
 10
110
 20
-24
 11
110.488
 21
-24.048
  0
LINE
  8
0
 10
110.488
 20
-24.048
 11
110.957
 21
-24.1903
  0
LINE
  8
0
 10
110.957
 20
-24.1903
 11
111.389
 21
-24.4213
  0
LINE
  8
0
 10
111.389
 20
-24.4213
 11
111.768
 21
-24.7322
  0
LINE
  8
0
 10
111.768
 20
-24.7322
 11
112.079
 21
-25.1111
  0
LINE
  8
0
 10
112.079
 20
-25.1111
 11
112.31
 21
-25.5433
  0
LINE
  8
0
 10
112.31
 20
-25.5433
 11
112.452
 21
-26.0123
  0
LINE
  8
0
 10
112.452
 20
-26.0123
 11
112.5
 21
-26.5
  0
LINE
  8
0
 10
112.5
 20
-26.5
 11
112.452
 21
-26.9877
  0
LINE
  8
0
 10
112.452
 20
-26.9877
 11
112.31
 21
-27.4567
  0
LINE
  8
0
 10
112.31
 20
-27.4567
 11
112.079
 21
-27.8889
  0
LINE
  8
0
 10
112.079
 20
-27.8889
 11
111.768
 21
-28.2678
  0
LINE
  8
0
 10
111.768
 20
-28.2678
 11
111.389
 21
-28.5787
  0
LINE
  8
0
 10
111.389
 20
-28.5787
 11
110.957
 21
-28.8097
  0
LINE
  8
0
 10
110.957
 20
-28.8097
 11
110.488
 21
-28.952
  0
LINE
  8
0
 10
110.488
 20
-28.952
 11
110
 21
-29
  0
LINE
  8
0
 10
199.512
 20
-39.702
 11
199.043
 21
-39.5597
  0
LINE
  8
0
 10
199.043
 20
-39.5597
 11
198.611
 21
-39.3287
  0
LINE
  8
0
 10
198.611
 20
-39.3287
 11
198.232
 21
-39.0178
  0
LINE
  8
0
 10
198.232
 20
-39.0178
 11
197.921
 21
-38.6389
  0
LINE
  8
0
 10
197.921
 20
-38.6389
 11
197.69
 21
-38.2067
  0
LINE
  8
0
 10
197.69
 20
-38.2067
 11
197.548
 21
-37.7377
  0
LINE
  8
0
 10
197.548
 20
-37.7377
 11
197.5
 21
-37.25
  0
LINE
  8
0
 10
197.5
 20
-37.25
 11
197.548
 21
-36.7623
  0
LINE
  8
0
 10
197.548
 20
-36.7623
 11
197.69
 21
-36.2933
  0
LINE
  8
0
 10
197.69
 20
-36.2933
 11
197.921
 21
-35.8611
  0
LINE
  8
0
 10
197.921
 20
-35.8611
 11
198.232
 21
-35.4822
  0
LINE
  8
0
 10
198.232
 20
-35.4822
 11
198.611
 21
-35.1713
  0
LINE
  8
0
 10
198.611
 20
-35.1713
 11
199.043
 21
-34.9403
  0
LINE
  8
0
 10
199.043
 20
-34.9403
 11
199.512
 21
-34.798
  0
LINE
  8
0
 10
199.512
 20
-34.798
 11
200
 21
-34.75
  0
LINE
  8
0
 10
200
 20
-34.75
 11
200.488
 21
-34.798
  0
LINE
  8
0
 10
200.488
 20
-34.798
 11
200.957
 21
-34.9403
  0
LINE
  8
0
 10
200.957
 20
-34.9403
 11
201.389
 21
-35.1713
  0
LINE
  8
0
 10
201.389
 20
-35.1713
 11
201.768
 21
-35.4822
  0
LINE
  8
0
 10
201.768
 20
-35.4822
 11
202.079
 21
-35.8611
  0
LINE
  8
0
 10
202.079
 20
-35.8611
 11
202.31
 21
-36.2933
  0
LINE
  8
0
 10
202.31
 20
-36.2933
 11
202.452
 21
-36.7623
  0
LINE
  8
0
 10
202.452
 20
-36.7623
 11
202.5
 21
-37.25
  0
LINE
  8
0
 10
202.5
 20
-37.25
 11
202.452
 21
-37.7377
  0
LINE
  8
0
 10
202.452
 20
-37.7377
 11
202.31
 21
-38.2067
  0
LINE
  8
0
 10
202.31
 20
-38.2067
 11
202.079
 21
-38.6389
  0
LINE
  8
0
 10
202.079
 20
-38.6389
 11
201.768
 21
-39.0178
  0
LINE
  8
0
 10
201.768
 20
-39.0178
 11
201.389
 21
-39.3287
  0
LINE
  8
0
 10
201.389
 20
-39.3287
 11
200.957
 21
-39.5597
  0
LINE
  8
0
 10
200.957
 20
-39.5597
 11
200.488
 21
-39.702
  0
LINE
  8
0
 10
200.488
 20
-39.702
 11
200
 21
-39.75
  0
LINE
  8
0
 10
200
 20
-39.75
 11
199.512
 21
-39.702
  0
LINE
  8
0
 10
-200.488
 20
-39.702
 11
-200.957
 21
-39.5597
  0
LINE
  8
0
 10
-200.957
 20
-39.5597
 11
-201.389
 21
-39.3287
  0
LINE
  8
0
 10
-201.389
 20
-39.3287
 11
-201.768
 21
-39.0178
  0
LINE
  8
0
 10
-201.768
 20
-39.0178
 11
-202.079
 21
-38.6389
  0
LINE
  8
0
 10
-202.079
 20
-38.6389
 11
-202.31
 21
-38.2067
  0
LINE
  8
0
 10
-202.31
 20
-38.2067
 11
-202.452
 21
-37.7377
  0
LINE
  8
0
 10
-202.452
 20
-37.7377
 11
-202.5
 21
-37.25
  0
LINE
  8
0
 10
-202.5
 20
-37.25
 11
-202.452
 21
-36.7623
  0
LINE
  8
0
 10
-202.452
 20
-36.7623
 11
-202.31
 21
-36.2933
  0
LINE
  8
0
 10
-202.31
 20
-36.2933
 11
-202.079
 21
-35.8611
  0
LINE
  8
0
 10
-202.079
 20
-35.8611
 11
-201.768
 21
-35.4822
  0
LINE
  8
0
 10
-201.768
 20
-35.4822
 11
-201.389
 21
-35.1713
  0
LINE
  8
0
 10
-201.389
 20
-35.1713
 11
-200.957
 21
-34.9403
  0
LINE
  8
0
 10
-200.957
 20
-34.9403
 11
-200.488
 21
-34.798
  0
LINE
  8
0
 10
-200.488
 20
-34.798
 11
-200
 21
-34.75
  0
LINE
  8
0
 10
-200
 20
-34.75
 11
-199.512
 21
-34.798
  0
LINE
  8
0
 10
-199.512
 20
-34.798
 11
-199.043
 21
-34.9403
  0
LINE
  8
0
 10
-199.043
 20
-34.9403
 11
-198.611
 21
-35.1713
  0
LINE
  8
0
 10
-198.611
 20
-35.1713
 11
-198.232
 21
-35.4822
  0
LINE
  8
0
 10
-198.232
 20
-35.4822
 11
-197.921
 21
-35.8611
  0
LINE
  8
0
 10
-197.921
 20
-35.8611
 11
-197.69
 21
-36.2933
  0
LINE
  8
0
 10
-197.69
 20
-36.2933
 11
-197.548
 21
-36.7623
  0
LINE
  8
0
 10
-197.548
 20
-36.7623
 11
-197.5
 21
-37.25
  0
LINE
  8
0
 10
-197.5
 20
-37.25
 11
-197.548
 21
-37.7377
  0
LINE
  8
0
 10
-197.548
 20
-37.7377
 11
-197.69
 21
-38.2067
  0
LINE
  8
0
 10
-197.69
 20
-38.2067
 11
-197.921
 21
-38.6389
  0
LINE
  8
0
 10
-197.921
 20
-38.6389
 11
-198.232
 21
-39.0178
  0
LINE
  8
0
 10
-198.232
 20
-39.0178
 11
-198.611
 21
-39.3287
  0
LINE
  8
0
 10
-198.611
 20
-39.3287
 11
-199.043
 21
-39.5597
  0
LINE
  8
0
 10
-199.043
 20
-39.5597
 11
-199.512
 21
-39.702
  0
LINE
  8
0
 10
-199.512
 20
-39.702
 11
-200
 21
-39.75
  0
LINE
  8
0
 10
-200
 20
-39.75
 11
-200.488
 21
-39.702
  0
LINE
  8
0
 10
104.751
 20
-45.2438
 11
104.255
 21
-45.1942
  0
LINE
  8
0
 10
104.255
 20
-45.1942
 11
103.766
 21
-45.0954
  0
LINE
  8
0
 10
103.766
 20
-45.0954
 11
103.29
 21
-44.9485
  0
LINE
  8
0
 10
103.29
 20
-44.9485
 11
102.831
 21
-44.7548
  0
LINE
  8
0
 10
102.831
 20
-44.7548
 11
102.393
 21
-44.5164
  0
LINE
  8
0
 10
102.393
 20
-44.5164
 11
101.981
 21
-44.2357
  0
LINE
  8
0
 10
101.981
 20
-44.2357
 11
101.599
 21
-43.9153
  0
LINE
  8
0
 10
101.599
 20
-43.9153
 11
101.251
 21
-43.5584
  0
LINE
  8
0
 10
101.251
 20
-43.5584
 11
100.94
 21
-43.1687
  0
LINE
  8
0
 10
100.94
 20
-43.1687
 11
100.67
 21
-42.75
  0
LINE
  8
0
 10
100.67
 20
-42.75
 11
100.442
 21
-42.3064
  0
LINE
  8
0
 10
100.442
 20
-42.3064
 11
100.26
 21
-41.8424
  0
LINE
  8
0
 10
100.26
 20
-41.8424
 11
100.125
 21
-41.3626
  0
LINE
  8
0
 10
100.125
 20
-41.3626
 11
100.039
 21
-40.8717
  0
LINE
  8
0
 10
100.039
 20
-40.8717
 11
100.002
 21
-40.3746
  0
LINE
  8
0
 10
100.002
 20
-40.3746
 11
100.014
 21
-39.8763
  0
LINE
  8
0
 10
100.014
 20
-39.8763
 11
100.076
 21
-39.3818
  0
LINE
  8
0
 10
100.076
 20
-39.3818
 11
100.187
 21
-38.8958
  0
LINE
  8
0
 10
100.187
 20
-38.8958
 11
100.346
 21
-38.4233
  0
LINE
  8
0
 10
100.346
 20
-38.4233
 11
100.551
 21
-37.9689
  0
LINE
  8
0
 10
100.551
 20
-37.9689
 11
100.8
 21
-37.5373
  0
LINE
  8
0
 10
100.8
 20
-37.5373
 11
101.091
 21
-37.1326
  0
LINE
  8
0
 10
101.091
 20
-37.1326
 11
101.421
 21
-36.7588
  0
LINE
  8
0
 10
101.421
 20
-36.7588
 11
101.786
 21
-36.4198
  0
LINE
  8
0
 10
101.786
 20
-36.4198
 11
102.183
 21
-36.1188
  0
LINE
  8
0
 10
102.183
 20
-36.1188
 11
102.609
 21
-35.8589
  0
LINE
  8
0
 10
102.609
 20
-35.8589
 11
103.058
 21
-35.6426
  0
LINE
  8
0
 10
103.058
 20
-35.6426
 11
103.526
 21
-35.4721
  0
LINE
  8
0
 10
103.526
 20
-35.4721
 11
104.009
 21
-35.3491
  0
LINE
  8
0
 10
104.009
 20
-35.3491
 11
104.502
 21
-35.2748
  0
LINE
  8
0
 10
104.502
 20
-35.2748
 11
105
 21
-35.25
  0
LINE
  8
0
 10
105
 20
-35.25
 11
105.498
 21
-35.2748
  0
LINE
  8
0
 10
105.498
 20
-35.2748
 11
105.991
 21
-35.3491
  0
LINE
  8
0
 10
105.991
 20
-35.3491
 11
106.474
 21
-35.4721
  0
LINE
  8
0
 10
106.474
 20
-35.4721
 11
106.942
 21
-35.6426
  0
LINE
  8
0
 10
106.942
 20
-35.6426
 11
107.391
 21
-35.8589
  0
LINE
  8
0
 10
107.391
 20
-35.8589
 11
107.817
 21
-36.1188
  0
LINE
  8
0
 10
107.817
 20
-36.1188
 11
108.214
 21
-36.4198
  0
LINE
  8
0
 10
108.214
 20
-36.4198
 11
108.579
 21
-36.7588
  0
LINE
  8
0
 10
108.579
 20
-36.7588
 11
108.909
 21
-37.1326
  0
LINE
  8
0
 10
108.909
 20
-37.1326
 11
109.2
 21
-37.5373
  0
LINE
  8
0
 10
109.2
 20
-37.5373
 11
109.449
 21
-37.9689
  0
LINE
  8
0
 10
109.449
 20
-37.9689
 11
109.654
 21
-38.4233
  0
LINE
  8
0
 10
109.654
 20
-38.4233
 11
109.813
 21
-38.8958
  0
LINE
  8
0
 10
109.813
 20
-38.8958
 11
109.924
 21
-39.3818
  0
LINE
  8
0
 10
109.924
 20
-39.3818
 11
109.986
 21
-39.8763
  0
LINE
  8
0
 10
109.986
 20
-39.8763
 11
109.998
 21
-40.3746
  0
LINE
  8
0
 10
109.998
 20
-40.3746
 11
109.961
 21
-40.8717
  0
LINE
  8
0
 10
109.961
 20
-40.8717
 11
109.875
 21
-41.3626
  0
LINE
  8
0
 10
109.875
 20
-41.3626
 11
109.74
 21
-41.8424
  0
LINE
  8
0
 10
109.74
 20
-41.8424
 11
109.558
 21
-42.3064
  0
LINE
  8
0
 10
109.558
 20
-42.3064
 11
109.33
 21
-42.75
  0
LINE
  8
0
 10
109.33
 20
-42.75
 11
109.06
 21
-43.1687
  0
LINE
  8
0
 10
109.06
 20
-43.1687
 11
108.749
 21
-43.5584
  0
LINE
  8
0
 10
108.749
 20
-43.5584
 11
108.401
 21
-43.9153
  0
LINE
  8
0
 10
108.401
 20
-43.9153
 11
108.019
 21
-44.2357
  0
LINE
  8
0
 10
108.019
 20
-44.2357
 11
107.607
 21
-44.5164
  0
LINE
  8
0
 10
107.607
 20
-44.5164
 11
107.169
 21
-44.7548
  0
LINE
  8
0
 10
107.169
 20
-44.7548
 11
106.71
 21
-44.9485
  0
LINE
  8
0
 10
106.71
 20
-44.9485
 11
106.234
 21
-45.0954
  0
LINE
  8
0
 10
106.234
 20
-45.0954
 11
105.745
 21
-45.1942
  0
LINE
  8
0
 10
105.745
 20
-45.1942
 11
105.249
 21
-45.2438
  0
LINE
  8
0
 10
105.249
 20
-45.2438
 11
104.751
 21
-45.2438
  0
LINE
  8
0
 10
-105.249
 20
-45.2438
 11
-105.745
 21
-45.1942
  0
LINE
  8
0
 10
-105.745
 20
-45.1942
 11
-106.234
 21
-45.0954
  0
LINE
  8
0
 10
-106.234
 20
-45.0954
 11
-106.71
 21
-44.9485
  0
LINE
  8
0
 10
-106.71
 20
-44.9485
 11
-107.169
 21
-44.7548
  0
LINE
  8
0
 10
-107.169
 20
-44.7548
 11
-107.607
 21
-44.5164
  0
LINE
  8
0
 10
-107.607
 20
-44.5164
 11
-108.019
 21
-44.2357
  0
LINE
  8
0
 10
-108.019
 20
-44.2357
 11
-108.401
 21
-43.9153
  0
LINE
  8
0
 10
-108.401
 20
-43.9153
 11
-108.749
 21
-43.5584
  0
LINE
  8
0
 10
-108.749
 20
-43.5584
 11
-109.06
 21
-43.1687
  0
LINE
  8
0
 10
-109.06
 20
-43.1687
 11
-109.33
 21
-42.75
  0
LINE
  8
0
 10
-109.33
 20
-42.75
 11
-109.558
 21
-42.3064
  0
LINE
  8
0
 10
-109.558
 20
-42.3064
 11
-109.74
 21
-41.8424
  0
LINE
  8
0
 10
-109.74
 20
-41.8424
 11
-109.875
 21
-41.3626
  0
LINE
  8
0
 10
-109.875
 20
-41.3626
 11
-109.961
 21
-40.8717
  0
LINE
  8
0
 10
-109.961
 20
-40.8717
 11
-109.998
 21
-40.3746
  0
LINE
  8
0
 10
-109.998
 20
-40.3746
 11
-109.986
 21
-39.8763
  0
LINE
  8
0
 10
-109.986
 20
-39.8763
 11
-109.924
 21
-39.3818
  0
LINE
  8
0
 10
-109.924
 20
-39.3818
 11
-109.813
 21
-38.8958
  0
LINE
  8
0
 10
-109.813
 20
-38.8958
 11
-109.654
 21
-38.4233
  0
LINE
  8
0
 10
-109.654
 20
-38.4233
 11
-109.449
 21
-37.9689
  0
LINE
  8
0
 10
-109.449
 20
-37.9689
 11
-109.2
 21
-37.5373
  0
LINE
  8
0
 10
-109.2
 20
-37.5373
 11
-108.909
 21
-37.1326
  0
LINE
  8
0
 10
-108.909
 20
-37.1326
 11
-108.579
 21
-36.7588
  0
LINE
  8
0
 10
-108.579
 20
-36.7588
 11
-108.214
 21
-36.4198
  0
LINE
  8
0
 10
-108.214
 20
-36.4198
 11
-107.817
 21
-36.1188
  0
LINE
  8
0
 10
-107.817
 20
-36.1188
 11
-107.391
 21
-35.8589
  0
LINE
  8
0
 10
-107.391
 20
-35.8589
 11
-106.942
 21
-35.6426
  0
LINE
  8
0
 10
-106.942
 20
-35.6426
 11
-106.474
 21
-35.4721
  0
LINE
  8
0
 10
-106.474
 20
-35.4721
 11
-105.991
 21
-35.3491
  0
LINE
  8
0
 10
-105.991
 20
-35.3491
 11
-105.498
 21
-35.2748
  0
LINE
  8
0
 10
-105.498
 20
-35.2748
 11
-105
 21
-35.25
  0
LINE
  8
0
 10
-105
 20
-35.25
 11
-104.502
 21
-35.2748
  0
LINE
  8
0
 10
-104.502
 20
-35.2748
 11
-104.009
 21
-35.3491
  0
LINE
  8
0
 10
-104.009
 20
-35.3491
 11
-103.526
 21
-35.4721
  0
LINE
  8
0
 10
-103.526
 20
-35.4721
 11
-103.058
 21
-35.6426
  0
LINE
  8
0
 10
-103.058
 20
-35.6426
 11
-102.609
 21
-35.8589
  0
LINE
  8
0
 10
-102.609
 20
-35.8589
 11
-102.183
 21
-36.1188
  0
LINE
  8
0
 10
-102.183
 20
-36.1188
 11
-101.786
 21
-36.4198
  0
LINE
  8
0
 10
-101.786
 20
-36.4198
 11
-101.421
 21
-36.7588
  0
LINE
  8
0
 10
-101.421
 20
-36.7588
 11
-101.091
 21
-37.1326
  0
LINE
  8
0
 10
-101.091
 20
-37.1326
 11
-100.8
 21
-37.5373
  0
LINE
  8
0
 10
-100.8
 20
-37.5373
 11
-100.551
 21
-37.9689
  0
LINE
  8
0
 10
-100.551
 20
-37.9689
 11
-100.346
 21
-38.4233
  0
LINE
  8
0
 10
-100.346
 20
-38.4233
 11
-100.187
 21
-38.8958
  0
LINE
  8
0
 10
-100.187
 20
-38.8958
 11
-100.076
 21
-39.3818
  0
LINE
  8
0
 10
-100.076
 20
-39.3818
 11
-100.014
 21
-39.8763
  0
LINE
  8
0
 10
-100.014
 20
-39.8763
 11
-100.002
 21
-40.3746
  0
LINE
  8
0
 10
-100.002
 20
-40.3746
 11
-100.039
 21
-40.8717
  0
LINE
  8
0
 10
-100.039
 20
-40.8717
 11
-100.125
 21
-41.3626
  0
LINE
  8
0
 10
-100.125
 20
-41.3626
 11
-100.26
 21
-41.8424
  0
LINE
  8
0
 10
-100.26
 20
-41.8424
 11
-100.442
 21
-42.3064
  0
LINE
  8
0
 10
-100.442
 20
-42.3064
 11
-100.67
 21
-42.75
  0
LINE
  8
0
 10
-100.67
 20
-42.75
 11
-100.94
 21
-43.1687
  0
LINE
  8
0
 10
-100.94
 20
-43.1687
 11
-101.251
 21
-43.5584
  0
LINE
  8
0
 10
-101.251
 20
-43.5584
 11
-101.599
 21
-43.9153
  0
LINE
  8
0
 10
-101.599
 20
-43.9153
 11
-101.981
 21
-44.2357
  0
LINE
  8
0
 10
-101.981
 20
-44.2357
 11
-102.393
 21
-44.5164
  0
LINE
  8
0
 10
-102.393
 20
-44.5164
 11
-102.831
 21
-44.7548
  0
LINE
  8
0
 10
-102.831
 20
-44.7548
 11
-103.29
 21
-44.9485
  0
LINE
  8
0
 10
-103.29
 20
-44.9485
 11
-103.766
 21
-45.0954
  0
LINE
  8
0
 10
-103.766
 20
-45.0954
 11
-104.255
 21
-45.1942
  0
LINE
  8
0
 10
-104.255
 20
-45.1942
 11
-104.751
 21
-45.2438
  0
LINE
  8
0
 10
-104.751
 20
-45.2438
 11
-105.249
 21
-45.2438
  0
LINE
  8
0
 10
114.5
 20
-42.75
 11
114.5
 21
-37.75
  0
LINE
  8
0
 10
114.5
 20
-37.75
 11
117.5
 21
-37.75
  0
LINE
  8
0
 10
117.5
 20
-37.75
 11
117.5
 21
-42.75
  0
LINE
  8
0
 10
117.5
 20
-42.75
 11
114.5
 21
-42.75
  0
LINE
  8
0
 10
-95.5
 20
-42.75
 11
-95.5
 21
-37.75
  0
LINE
  8
0
 10
-95.5
 20
-37.75
 11
-92.5
 21
-37.75
  0
LINE
  8
0
 10
-92.5
 20
-37.75
 11
-92.5
 21
-42.75
  0
LINE
  8
0
 10
-92.5
 20
-42.75
 11
-95.5
 21
-42.75
  0
LINE
  8
0
 10
92.5
 20
-42.75
 11
92.5
 21
-37.75
  0
LINE
  8
0
 10
92.5
 20
-37.75
 11
95.5
 21
-37.75
  0
LINE
  8
0
 10
95.5
 20
-37.75
 11
95.5
 21
-42.75
  0
LINE
  8
0
 10
95.5
 20
-42.75
 11
92.5
 21
-42.75
  0
LINE
  8
0
 10
-117.5
 20
-42.75
 11
-117.5
 21
-37.75
  0
LINE
  8
0
 10
-117.5
 20
-37.75
 11
-114.5
 21
-37.75
  0
LINE
  8
0
 10
-114.5
 20
-37.75
 11
-114.5
 21
-42.75
  0
LINE
  8
0
 10
-114.5
 20
-42.75
 11
-117.5
 21
-42.75
  0
LINE
  8
0
 10
20.3848
 20
-41.9457
 11
19.912
 21
-41.8428
  0
LINE
  8
0
 10
19.912
 20
-41.8428
 11
19.4873
 21
-41.6109
  0
LINE
  8
0
 10
19.4873
 20
-41.6109
 11
19.1452
 21
-41.2688
  0
LINE
  8
0
 10
19.1452
 20
-41.2688
 11
18.9133
 21
-40.8441
  0
LINE
  8
0
 10
18.9133
 20
-40.8441
 11
18.8104
 21
-40.3713
  0
LINE
  8
0
 10
18.8104
 20
-40.3713
 11
18.8449
 21
-39.8886
  0
LINE
  8
0
 10
18.8449
 20
-39.8886
 11
19.014
 21
-39.4353
  0
LINE
  8
0
 10
19.014
 20
-39.4353
 11
19.304
 21
-39.0479
  0
LINE
  8
0
 10
19.304
 20
-39.0479
 11
19.6914
 21
-38.7579
  0
LINE
  8
0
 10
19.6914
 20
-38.7579
 11
20.1447
 21
-38.5888
  0
LINE
  8
0
 10
20.1447
 20
-38.5888
 11
20.6274
 21
-38.5543
  0
LINE
  8
0
 10
20.6274
 20
-38.5543
 11
23.4558
 21
-38.5543
  0
LINE
  8
0
 10
23.4558
 20
-38.5543
 11
23.9286
 21
-38.6572
  0
LINE
  8
0
 10
23.9286
 20
-38.6572
 11
24.3533
 21
-38.8891
  0
LINE
  8
0
 10
24.3533
 20
-38.8891
 11
24.6954
 21
-39.2312
  0
LINE
  8
0
 10
24.6954
 20
-39.2312
 11
24.9273
 21
-39.6559
  0
LINE
  8
0
 10
24.9273
 20
-39.6559
 11
25.0302
 21
-40.1287
  0
LINE
  8
0
 10
25.0302
 20
-40.1287
 11
24.9957
 21
-40.6114
  0
LINE
  8
0
 10
24.9957
 20
-40.6114
 11
24.8266
 21
-41.0647
  0
LINE
  8
0
 10
24.8266
 20
-41.0647
 11
24.5366
 21
-41.4521
  0
LINE
  8
0
 10
24.5366
 20
-41.4521
 11
24.1492
 21
-41.7421
  0
LINE
  8
0
 10
24.1492
 20
-41.7421
 11
23.6959
 21
-41.9111
  0
LINE
  8
0
 10
23.6959
 20
-41.9111
 11
23.2132
 21
-41.9457
  0
LINE
  8
0
 10
23.2132
 20
-41.9457
 11
20.3848
 21
-41.9457
  0
LINE
  8
0
 10
-23.4558
 20
-41.9457
 11
-23.9286
 21
-41.8428
  0
LINE
  8
0
 10
-23.9286
 20
-41.8428
 11
-24.3533
 21
-41.6109
  0
LINE
  8
0
 10
-24.3533
 20
-41.6109
 11
-24.6954
 21
-41.2688
  0
LINE
  8
0
 10
-24.6954
 20
-41.2688
 11
-24.9273
 21
-40.8441
  0
LINE
  8
0
 10
-24.9273
 20
-40.8441
 11
-25.0302
 21
-40.3713
  0
LINE
  8
0
 10
-25.0302
 20
-40.3713
 11
-24.9957
 21
-39.8886
  0
LINE
  8
0
 10
-24.9957
 20
-39.8886
 11
-24.8266
 21
-39.4353
  0
LINE
  8
0
 10
-24.8266
 20
-39.4353
 11
-24.5366
 21
-39.0479
  0
LINE
  8
0
 10
-24.5366
 20
-39.0479
 11
-24.1492
 21
-38.7579
  0
LINE
  8
0
 10
-24.1492
 20
-38.7579
 11
-23.6959
 21
-38.5888
  0
LINE
  8
0
 10
-23.6959
 20
-38.5888
 11
-23.2132
 21
-38.5543
  0
LINE
  8
0
 10
-23.2132
 20
-38.5543
 11
-20.3848
 21
-38.5543
  0
LINE
  8
0
 10
-20.3848
 20
-38.5543
 11
-19.912
 21
-38.6572
  0
LINE
  8
0
 10
-19.912
 20
-38.6572
 11
-19.4873
 21
-38.8891
  0
LINE
  8
0
 10
-19.4873
 20
-38.8891
 11
-19.1452
 21
-39.2312
  0
LINE
  8
0
 10
-19.1452
 20
-39.2312
 11
-18.9133
 21
-39.6559
  0
LINE
  8
0
 10
-18.9133
 20
-39.6559
 11
-18.8104
 21
-40.1287
  0
LINE
  8
0
 10
-18.8104
 20
-40.1287
 11
-18.8449
 21
-40.6114
  0
LINE
  8
0
 10
-18.8449
 20
-40.6114
 11
-19.014
 21
-41.0647
  0
LINE
  8
0
 10
-19.014
 20
-41.0647
 11
-19.304
 21
-41.4521
  0
LINE
  8
0
 10
-19.304
 20
-41.4521
 11
-19.6914
 21
-41.7421
  0
LINE
  8
0
 10
-19.6914
 20
-41.7421
 11
-20.1447
 21
-41.9111
  0
LINE
  8
0
 10
-20.1447
 20
-41.9111
 11
-20.6274
 21
-41.9457
  0
LINE
  8
0
 10
-20.6274
 20
-41.9457
 11
-23.4558
 21
-41.9457
  0
ENDSEC
  0
SECTION
  2
OBJECTS
  0
DICTIONARY
  0
ENDSEC
  0
EOF
