  0
SECTION
  2
BLOCKS
  0
ENDSEC
  0
SECTION
  2
ENTITIES
  0
LINE
  8
0
 10
-7.32718
 20
-57.8773
 11
-7.72401
 21
-57.578
  0
LINE
  8
0
 10
-7.72401
 20
-57.578
 11
-8.10864
 21
-57.2631
  0
LINE
  8
0
 10
-8.10864
 20
-57.2631
 11
-8.48044
 21
-56.9332
  0
LINE
  8
0
 10
-8.48044
 20
-56.9332
 11
-8.83882
 21
-56.5888
  0
LINE
  8
0
 10
-8.83882
 20
-56.5888
 11
-9.18324
 21
-56.2304
  0
LINE
  8
0
 10
-9.18324
 20
-56.2304
 11
-9.51314
 21
-55.8586
  0
LINE
  8
0
 10
-9.51314
 20
-55.8586
 11
-9.82799
 21
-55.474
  0
LINE
  8
0
 10
-9.82799
 20
-55.474
 11
-10.1273
 21
-55.0772
  0
LINE
  8
0
 10
-10.1273
 20
-55.0772
 11
-10.4106
 21
-54.6688
  0
LINE
  8
0
 10
-10.4106
 20
-54.6688
 11
-10.6774
 21
-54.2494
  0
LINE
  8
0
 10
-10.6774
 20
-54.2494
 11
-10.9274
 21
-53.8198
  0
LINE
  8
0
 10
-10.9274
 20
-53.8198
 11
-11.16
 21
-53.3805
  0
LINE
  8
0
 10
-11.16
 20
-53.3805
 11
-11.3751
 21
-52.9324
  0
LINE
  8
0
 10
-11.3751
 20
-52.9324
 11
-11.5721
 21
-52.4761
  0
LINE
  8
0
 10
-11.5721
 20
-52.4761
 11
-11.7509
 21
-52.0123
  0
LINE
  8
0
 10
-11.7509
 20
-52.0123
 11
-11.911
 21
-51.5417
  0
LINE
  8
0
 10
-11.911
 20
-51.5417
 11
-12.0524
 21
-51.0652
  0
LINE
  8
0
 10
-12.0524
 20
-51.0652
 11
-12.1746
 21
-50.5834
  0
LINE
  8
0
 10
-12.1746
 20
-50.5834
 11
-12.2776
 21
-50.0971
  0
LINE
  8
0
 10
-12.2776
 20
-50.0971
 11
-12.3613
 21
-49.6072
  0
LINE
  8
0
 10
-12.3613
 20
-49.6072
 11
-12.4253
 21
-49.1143
  0
LINE
  8
0
 10
-12.4253
 20
-49.1143
 11
-12.4697
 21
-48.6192
  0
LINE
  8
0
 10
-12.4697
 20
-48.6192
 11
-12.4944
 21
-48.1228
  0
LINE
  8
0
 10
-12.4944
 20
-48.1228
 11
-12.4994
 21
-47.6257
  0
LINE
  8
0
 10
-12.4994
 20
-47.6257
 11
-12.4846
 21
-47.1289
  0
LINE
  8
0
 10
-12.4846
 20
-47.1289
 11
-12.45
 21
-46.633
  0
LINE
  8
0
 10
-12.45
 20
-46.633
 11
-12.3957
 21
-46.1389
  0
LINE
  8
0
 10
-12.3957
 20
-46.1389
 11
-12.3219
 21
-45.6474
  0
LINE
  8
0
 10
-12.3219
 20
-45.6474
 11
-12.2286
 21
-45.1592
  0
LINE
  8
0
 10
-12.2286
 20
-45.1592
 11
-12.1159
 21
-44.6751
  0
LINE
  8
0
 10
-12.1159
 20
-44.6751
 11
-11.9841
 21
-44.1958
  0
LINE
  8
0
 10
-11.9841
 20
-44.1958
 11
-11.8333
 21
-43.7222
  0
LINE
  8
0
 10
-11.8333
 20
-43.7222
 11
-11.6638
 21
-43.2549
  0
LINE
  8
0
 10
-11.6638
 20
-43.2549
 11
-11.4759
 21
-42.7948
  0
LINE
  8
0
 10
-11.4759
 20
-42.7948
 11
-11.2698
 21
-42.3425
  0
LINE
  8
0
 10
-11.2698
 20
-42.3425
 11
-11.0459
 21
-41.8987
  0
LINE
  8
0
 10
-11.0459
 20
-41.8987
 11
-10.8045
 21
-41.4642
  0
LINE
  8
0
 10
-10.8045
 20
-41.4642
 11
-10.5461
 21
-41.0396
  0
LINE
  8
0
 10
-10.5461
 20
-41.0396
 11
-10.271
 21
-40.6256
  0
LINE
  8
0
 10
-10.271
 20
-40.6256
 11
-9.97961
 21
-40.2229
  0
LINE
  8
0
 10
-9.97961
 20
-40.2229
 11
-9.67247
 21
-39.8321
  0
LINE
  8
0
 10
-9.67247
 20
-39.8321
 11
-9.35004
 21
-39.4538
  0
LINE
  8
0
 10
-9.35004
 20
-39.4538
 11
-9.01282
 21
-39.0886
  0
LINE
  8
0
 10
-9.01282
 20
-39.0886
 11
-8.66135
 21
-38.7372
  0
LINE
  8
0
 10
-8.66135
 20
-38.7372
 11
-8.29617
 21
-38.3999
  0
LINE
  8
0
 10
-8.29617
 20
-38.3999
 11
-7.91789
 21
-38.0775
  0
LINE
  8
0
 10
-7.91789
 20
-38.0775
 11
-7.52708
 21
-37.7704
  0
LINE
  8
0
 10
-7.52708
 20
-37.7704
 11
-7.12439
 21
-37.479
  0
LINE
  8
0
 10
-7.12439
 20
-37.479
 11
-6.71042
 21
-37.2039
  0
LINE
  8
0
 10
-6.71042
 20
-37.2039
 11
-6.28583
 21
-36.9454
  0
LINE
  8
0
 10
-6.28583
 20
-36.9454
 11
-5.85132
 21
-36.7041
  0
LINE
  8
0
 10
-5.85132
 20
-36.7041
 11
-5.40753
 21
-36.4802
  0
LINE
  8
0
 10
-5.40753
 20
-36.4802
 11
-4.95522
 21
-36.2741
  0
LINE
  8
0
 10
-4.95522
 20
-36.2741
 11
-4.49506
 21
-36.0862
  0
LINE
  8
0
 10
-4.49506
 20
-36.0862
 11
-4.02779
 21
-35.9167
  0
LINE
  8
0
 10
-4.02779
 20
-35.9167
 11
-3.55415
 21
-35.7659
  0
LINE
  8
0
 10
-3.55415
 20
-35.7659
 11
-3.07491
 21
-35.6341
  0
LINE
  8
0
 10
-3.07491
 20
-35.6341
 11
-2.59079
 21
-35.5214
  0
LINE
  8
0
 10
-2.59079
 20
-35.5214
 11
-2.10257
 21
-35.4281
  0
LINE
  8
0
 10
-2.10257
 20
-35.4281
 11
-1.61104
 21
-35.3542
  0
LINE
  8
0
 10
-1.61104
 20
-35.3542
 11
-1.11694
 21
-35.3
  0
LINE
  8
0
 10
-1.11694
 20
-35.3
 11
-0.621094
 21
-35.2654
  0
LINE
  8
0
 10
-0.621094
 20
-35.2654
 11
-0.124268
 21
-35.2506
  0
LINE
  8
0
 10
-0.124268
 20
-35.2506
 11
0.372757
 21
-35.2556
  0
LINE
  8
0
 10
0.372757
 20
-35.2556
 11
0.869186
 21
-35.2803
  0
LINE
  8
0
 10
0.869186
 20
-35.2803
 11
1.36426
 21
-35.3247
  0
LINE
  8
0
 10
1.36426
 20
-35.3247
 11
1.85716
 21
-35.3887
  0
LINE
  8
0
 10
1.85716
 20
-35.3887
 11
2.34714
 21
-35.4723
  0
LINE
  8
0
 10
2.34714
 20
-35.4723
 11
2.8334
 21
-35.5754
  0
LINE
  8
0
 10
2.8334
 20
-35.5754
 11
3.31519
 21
-35.6976
  0
LINE
  8
0
 10
3.31519
 20
-35.6976
 11
3.79172
 21
-35.839
  0
LINE
  8
0
 10
3.79172
 20
-35.839
 11
4.26227
 21
-35.9991
  0
LINE
  8
0
 10
4.26227
 20
-35.9991
 11
4.72607
 21
-36.1779
  0
LINE
  8
0
 10
4.72607
 20
-36.1779
 11
5.1824
 21
-36.3749
  0
LINE
  8
0
 10
5.1824
 20
-36.3749
 11
5.63054
 21
-36.5899
  0
LINE
  8
0
 10
5.63054
 20
-36.5899
 11
6.06978
 21
-36.8226
  0
LINE
  8
0
 10
6.06978
 20
-36.8226
 11
6.4994
 21
-37.0726
  0
LINE
  8
0
 10
6.4994
 20
-37.0726
 11
6.91876
 21
-37.3394
  0
LINE
  8
0
 10
6.91876
 20
-37.3394
 11
7.32718
 21
-37.6227
  0
LINE
  8
0
 10
7.32718
 20
-37.6227
 11
7.72401
 21
-37.922
  0
LINE
  8
0
 10
7.72401
 20
-37.922
 11
8.10864
 21
-38.2368
  0
LINE
  8
0
 10
8.10864
 20
-38.2368
 11
8.48044
 21
-38.5667
  0
LINE
  8
0
 10
8.48044
 20
-38.5667
 11
8.83882
 21
-38.9112
  0
LINE
  8
0
 10
8.83882
 20
-38.9112
 11
9.18324
 21
-39.2695
  0
LINE
  8
0
 10
9.18324
 20
-39.2695
 11
9.51314
 21
-39.6413
  0
LINE
  8
0
 10
9.51314
 20
-39.6413
 11
9.82799
 21
-40.026
  0
LINE
  8
0
 10
9.82799
 20
-40.026
 11
10.1273
 21
-40.4228
  0
LINE
  8
0
 10
10.1273
 20
-40.4228
 11
10.4106
 21
-40.8312
  0
LINE
  8
0
 10
10.4106
 20
-40.8312
 11
10.6774
 21
-41.2506
  0
LINE
  8
0
 10
10.6774
 20
-41.2506
 11
10.9274
 21
-41.6802
  0
LINE
  8
0
 10
10.9274
 20
-41.6802
 11
11.16
 21
-42.1194
  0
LINE
  8
0
 10
11.16
 20
-42.1194
 11
11.3751
 21
-42.5676
  0
LINE
  8
0
 10
11.3751
 20
-42.5676
 11
11.5721
 21
-43.0239
  0
LINE
  8
0
 10
11.5721
 20
-43.0239
 11
11.7509
 21
-43.4877
  0
LINE
  8
0
 10
11.7509
 20
-43.4877
 11
11.911
 21
-43.9583
  0
LINE
  8
0
 10
11.911
 20
-43.9583
 11
12.0524
 21
-44.4348
  0
LINE
  8
0
 10
12.0524
 20
-44.4348
 11
12.1746
 21
-44.9166
  0
LINE
  8
0
 10
12.1746
 20
-44.9166
 11
12.2776
 21
-45.4028
  0
LINE
  8
0
 10
12.2776
 20
-45.4028
 11
12.3613
 21
-45.8928
  0
LINE
  8
0
 10
12.3613
 20
-45.8928
 11
12.4253
 21
-46.3857
  0
LINE
  8
0
 10
12.4253
 20
-46.3857
 11
12.4697
 21
-46.8808
  0
LINE
  8
0
 10
12.4697
 20
-46.8808
 11
12.4944
 21
-47.3772
  0
LINE
  8
0
 10
12.4944
 20
-47.3772
 11
12.4994
 21
-47.8743
  0
LINE
  8
0
 10
12.4994
 20
-47.8743
 11
12.4846
 21
-48.3711
  0
LINE
  8
0
 10
12.4846
 20
-48.3711
 11
12.45
 21
-48.8669
  0
LINE
  8
0
 10
12.45
 20
-48.8669
 11
12.3957
 21
-49.361
  0
LINE
  8
0
 10
12.3957
 20
-49.361
 11
12.3219
 21
-49.8526
  0
LINE
  8
0
 10
12.3219
 20
-49.8526
 11
12.2286
 21
-50.3408
  0
LINE
  8
0
 10
12.2286
 20
-50.3408
 11
12.1159
 21
-50.8249
  0
LINE
  8
0
 10
12.1159
 20
-50.8249
 11
11.9841
 21
-51.3042
  0
LINE
  8
0
 10
11.9841
 20
-51.3042
 11
11.8333
 21
-51.7778
  0
LINE
  8
0
 10
11.8333
 20
-51.7778
 11
11.6638
 21
-52.2451
  0
LINE
  8
0
 10
11.6638
 20
-52.2451
 11
11.4759
 21
-52.7052
  0
LINE
  8
0
 10
11.4759
 20
-52.7052
 11
11.2698
 21
-53.1575
  0
LINE
  8
0
 10
11.2698
 20
-53.1575
 11
11.0459
 21
-53.6013
  0
LINE
  8
0
 10
11.0459
 20
-53.6013
 11
10.8045
 21
-54.0358
  0
LINE
  8
0
 10
10.8045
 20
-54.0358
 11
10.5461
 21
-54.4604
  0
LINE
  8
0
 10
10.5461
 20
-54.4604
 11
10.271
 21
-54.8744
  0
LINE
  8
0
 10
10.271
 20
-54.8744
 11
9.97961
 21
-55.2771
  0
LINE
  8
0
 10
9.97961
 20
-55.2771
 11
9.67247
 21
-55.6679
  0
LINE
  8
0
 10
9.67247
 20
-55.6679
 11
9.35004
 21
-56.0462
  0
LINE
  8
0
 10
9.35004
 20
-56.0462
 11
9.01282
 21
-56.4113
  0
LINE
  8
0
 10
9.01282
 20
-56.4113
 11
8.66135
 21
-56.7628
  0
LINE
  8
0
 10
8.66135
 20
-56.7628
 11
8.29617
 21
-57.1
  0
LINE
  8
0
 10
8.29617
 20
-57.1
 11
7.91789
 21
-57.4225
  0
LINE
  8
0
 10
7.91789
 20
-57.4225
 11
7.52708
 21
-57.7296
  0
LINE
  8
0
 10
7.52708
 20
-57.7296
 11
7.15338
 21
-58
  0
LINE
  8
0
 10
7.15338
 20
-58
 11
225
 21
-58
  0
LINE
  8
0
 10
225
 20
-58
 11
225
 21
-50.5
  0
LINE
  8
0
 10
225
 20
-50.5
 11
229.875
 21
-50.5
  0
LINE
  8
0
 10
229.875
 20
-50.5
 11
231.5
 21
-48.875
  0
LINE
  8
0
 10
231.5
 20
-48.875
 11
231.5
 21
-37.125
  0
LINE
  8
0
 10
231.5
 20
-37.125
 11
229.875
 21
-35.5
  0
LINE
  8
0
 10
229.875
 20
-35.5
 11
225
 21
-35.5
  0
LINE
  8
0
 10
225
 20
-35.5
 11
225
 21
-30.8
  0
LINE
  8
0
 10
225
 20
-30.8
 11
218.1
 21
-30.8
  0
LINE
  8
0
 10
218.1
 20
-30.8
 11
218.1
 21
-32.595
  0
LINE
  8
0
 10
218.1
 20
-32.595
 11
212.4
 21
-32.595
  0
LINE
  8
0
 10
212.4
 20
-32.595
 11
212.4
 21
-30.8
  0
LINE
  8
0
 10
212.4
 20
-30.8
 11
205.5
 21
-30.8
  0
LINE
  8
0
 10
205.5
 20
-30.8
 11
205.5
 21
-25.2
  0
LINE
  8
0
 10
205.5
 20
-25.2
 11
212.4
 21
-25.2
  0
LINE
  8
0
 10
212.4
 20
-25.2
 11
212.4
 21
-23.405
  0
LINE
  8
0
 10
212.4
 20
-23.405
 11
218.1
 21
-23.405
  0
LINE
  8
0
 10
218.1
 20
-23.405
 11
218.1
 21
-25.2
  0
LINE
  8
0
 10
218.1
 20
-25.2
 11
225
 21
-25.2
  0
LINE
  8
0
 10
225
 20
-25.2
 11
225
 21
-20.5
  0
LINE
  8
0
 10
225
 20
-20.5
 11
229.875
 21
-20.5
  0
LINE
  8
0
 10
229.875
 20
-20.5
 11
231.5
 21
-18.875
  0
LINE
  8
0
 10
231.5
 20
-18.875
 11
231.5
 21
-7.125
  0
LINE
  8
0
 10
231.5
 20
-7.125
 11
229.875
 21
-5.5
  0
LINE
  8
0
 10
229.875
 20
-5.5
 11
225
 21
-5.5
  0
LINE
  8
0
 10
225
 20
-5.5
 11
225
 21
-0.799988
  0
LINE
  8
0
 10
225
 20
-0.799988
 11
218.1
 21
-0.799988
  0
LINE
  8
0
 10
218.1
 20
-0.799988
 11
218.1
 21
-2.59499
  0
LINE
  8
0
 10
218.1
 20
-2.59499
 11
212.4
 21
-2.59499
  0
LINE
  8
0
 10
212.4
 20
-2.59499
 11
212.4
 21
-0.799988
  0
LINE
  8
0
 10
212.4
 20
-0.799988
 11
205.5
 21
-0.799988
  0
LINE
  8
0
 10
205.5
 20
-0.799988
 11
205.5
 21
4.79999
  0
LINE
  8
0
 10
205.5
 20
4.79999
 11
212.4
 21
4.79999
  0
LINE
  8
0
 10
212.4
 20
4.79999
 11
212.4
 21
6.59499
  0
LINE
  8
0
 10
212.4
 20
6.59499
 11
218.1
 21
6.59499
  0
LINE
  8
0
 10
218.1
 20
6.59499
 11
218.1
 21
4.79999
  0
LINE
  8
0
 10
218.1
 20
4.79999
 11
225
 21
4.79999
  0
LINE
  8
0
 10
225
 20
4.79999
 11
225
 21
9.5
  0
LINE
  8
0
 10
225
 20
9.5
 11
229.875
 21
9.5
  0
LINE
  8
0
 10
229.875
 20
9.5
 11
231.5
 21
11.125
  0
LINE
  8
0
 10
231.5
 20
11.125
 11
231.5
 21
22.875
  0
LINE
  8
0
 10
231.5
 20
22.875
 11
229.875
 21
24.5
  0
LINE
  8
0
 10
229.875
 20
24.5
 11
225
 21
24.5
  0
LINE
  8
0
 10
225
 20
24.5
 11
225
 21
32
  0
LINE
  8
0
 10
225
 20
32
 11
-225
 21
32
  0
LINE
  8
0
 10
-225
 20
32
 11
-225
 21
24.5
  0
LINE
  8
0
 10
-225
 20
24.5
 11
-229.875
 21
24.5
  0
LINE
  8
0
 10
-229.875
 20
24.5
 11
-231.5
 21
22.875
  0
LINE
  8
0
 10
-231.5
 20
22.875
 11
-231.5
 21
11.125
  0
LINE
  8
0
 10
-231.5
 20
11.125
 11
-229.875
 21
9.5
  0
LINE
  8
0
 10
-229.875
 20
9.5
 11
-225
 21
9.5
  0
LINE
  8
0
 10
-225
 20
9.5
 11
-225
 21
4.79999
  0
LINE
  8
0
 10
-225
 20
4.79999
 11
-218.1
 21
4.79999
  0
LINE
  8
0
 10
-218.1
 20
4.79999
 11
-218.1
 21
6.59499
  0
LINE
  8
0
 10
-218.1
 20
6.59499
 11
-212.4
 21
6.59499
  0
LINE
  8
0
 10
-212.4
 20
6.59499
 11
-212.4
 21
4.79999
  0
LINE
  8
0
 10
-212.4
 20
4.79999
 11
-205.5
 21
4.79999
  0
LINE
  8
0
 10
-205.5
 20
4.79999
 11
-205.5
 21
-0.799988
  0
LINE
  8
0
 10
-205.5
 20
-0.799988
 11
-212.4
 21
-0.799988
  0
LINE
  8
0
 10
-212.4
 20
-0.799988
 11
-212.4
 21
-2.59499
  0
LINE
  8
0
 10
-212.4
 20
-2.59499
 11
-218.1
 21
-2.59499
  0
LINE
  8
0
 10
-218.1
 20
-2.59499
 11
-218.1
 21
-0.799988
  0
LINE
  8
0
 10
-218.1
 20
-0.799988
 11
-225
 21
-0.799988
  0
LINE
  8
0
 10
-225
 20
-0.799988
 11
-225
 21
-5.5
  0
LINE
  8
0
 10
-225
 20
-5.5
 11
-229.875
 21
-5.5
  0
LINE
  8
0
 10
-229.875
 20
-5.5
 11
-231.5
 21
-7.125
  0
LINE
  8
0
 10
-231.5
 20
-7.125
 11
-231.5
 21
-18.875
  0
LINE
  8
0
 10
-231.5
 20
-18.875
 11
-229.875
 21
-20.5
  0
LINE
  8
0
 10
-229.875
 20
-20.5
 11
-225
 21
-20.5
  0
LINE
  8
0
 10
-225
 20
-20.5
 11
-225
 21
-25.2
  0
LINE
  8
0
 10
-225
 20
-25.2
 11
-218.1
 21
-25.2
  0
LINE
  8
0
 10
-218.1
 20
-25.2
 11
-218.1
 21
-23.405
  0
LINE
  8
0
 10
-218.1
 20
-23.405
 11
-212.4
 21
-23.405
  0
LINE
  8
0
 10
-212.4
 20
-23.405
 11
-212.4
 21
-25.2
  0
LINE
  8
0
 10
-212.4
 20
-25.2
 11
-205.5
 21
-25.2
  0
LINE
  8
0
 10
-205.5
 20
-25.2
 11
-205.5
 21
-30.8
  0
LINE
  8
0
 10
-205.5
 20
-30.8
 11
-212.4
 21
-30.8
  0
LINE
  8
0
 10
-212.4
 20
-30.8
 11
-212.4
 21
-32.595
  0
LINE
  8
0
 10
-212.4
 20
-32.595
 11
-218.1
 21
-32.595
  0
LINE
  8
0
 10
-218.1
 20
-32.595
 11
-218.1
 21
-30.8
  0
LINE
  8
0
 10
-218.1
 20
-30.8
 11
-225
 21
-30.8
  0
LINE
  8
0
 10
-225
 20
-30.8
 11
-225
 21
-35.5
  0
LINE
  8
0
 10
-225
 20
-35.5
 11
-229.875
 21
-35.5
  0
LINE
  8
0
 10
-229.875
 20
-35.5
 11
-231.5
 21
-37.125
  0
LINE
  8
0
 10
-231.5
 20
-37.125
 11
-231.5
 21
-48.875
  0
LINE
  8
0
 10
-231.5
 20
-48.875
 11
-229.875
 21
-50.5
  0
LINE
  8
0
 10
-229.875
 20
-50.5
 11
-225
 21
-50.5
  0
LINE
  8
0
 10
-225
 20
-50.5
 11
-225
 21
-58
  0
LINE
  8
0
 10
-225
 20
-58
 11
-7.1503
 21
-58
  0
LINE
  8
0
 10
-7.1503
 20
-58
 11
-7.32718
 21
-57.8773
  0
LINE
  8
0
 10
-117.425
 20
-3.17499
 11
-117.425
 21
3.17499
  0
LINE
  8
0
 10
-117.425
 20
3.17499
 11
-102.575
 21
3.17499
  0
LINE
  8
0
 10
-102.575
 20
3.17499
 11
-102.575
 21
-3.17499
  0
LINE
  8
0
 10
-102.575
 20
-3.17499
 11
-117.425
 21
-3.17499
  0
LINE
  8
0
 10
102.575
 20
-3.17499
 11
102.575
 21
3.17499
  0
LINE
  8
0
 10
102.575
 20
3.17499
 11
117.425
 21
3.17499
  0
LINE
  8
0
 10
117.425
 20
3.17499
 11
117.425
 21
-3.17499
  0
LINE
  8
0
 10
117.425
 20
-3.17499
 11
102.575
 21
-3.17499
  0
LINE
  8
0
 10
-147.425
 20
-3.17499
 11
-147.425
 21
3.17499
  0
LINE
  8
0
 10
-147.425
 20
3.17499
 11
-132.575
 21
3.17499
  0
LINE
  8
0
 10
-132.575
 20
3.17499
 11
-132.575
 21
-3.17499
  0
LINE
  8
0
 10
-132.575
 20
-3.17499
 11
-147.425
 21
-3.17499
  0
LINE
  8
0
 10
132.575
 20
-3.17499
 11
132.575
 21
3.17499
  0
LINE
  8
0
 10
132.575
 20
3.17499
 11
147.425
 21
3.17499
  0
LINE
  8
0
 10
147.425
 20
3.17499
 11
147.425
 21
-3.17499
  0
LINE
  8
0
 10
147.425
 20
-3.17499
 11
132.575
 21
-3.17499
  0
LINE
  8
0
 10
124.751
 20
-2.68848
 11
124.261
 21
-2.59692
  0
LINE
  8
0
 10
124.261
 20
-2.59692
 11
123.797
 21
-2.41693
  0
LINE
  8
0
 10
123.797
 20
-2.41693
 11
123.373
 21
-2.15463
  0
LINE
  8
0
 10
123.373
 20
-2.15463
 11
123.005
 21
-1.81897
  0
LINE
  8
0
 10
123.005
 20
-1.81897
 11
122.704
 21
-1.42136
  0
LINE
  8
0
 10
122.704
 20
-1.42136
 11
122.482
 21
-0.975342
  0
LINE
  8
0
 10
122.482
 20
-0.975342
 11
122.346
 21
-0.496109
  0
LINE
  8
0
 10
122.346
 20
-0.496109
 11
122.3
 21
0
  0
LINE
  8
0
 10
122.3
 20
0
 11
122.346
 21
0.496109
  0
LINE
  8
0
 10
122.346
 20
0.496109
 11
122.482
 21
0.975342
  0
LINE
  8
0
 10
122.482
 20
0.975342
 11
122.704
 21
1.42136
  0
LINE
  8
0
 10
122.704
 20
1.42136
 11
123.005
 21
1.81897
  0
LINE
  8
0
 10
123.005
 20
1.81897
 11
123.373
 21
2.15463
  0
LINE
  8
0
 10
123.373
 20
2.15463
 11
123.797
 21
2.41693
  0
LINE
  8
0
 10
123.797
 20
2.41693
 11
124.261
 21
2.59692
  0
LINE
  8
0
 10
124.261
 20
2.59692
 11
124.751
 21
2.68848
  0
LINE
  8
0
 10
124.751
 20
2.68848
 11
125.249
 21
2.68848
  0
LINE
  8
0
 10
125.249
 20
2.68848
 11
125.739
 21
2.59692
  0
LINE
  8
0
 10
125.739
 20
2.59692
 11
126.203
 21
2.41693
  0
LINE
  8
0
 10
126.203
 20
2.41693
 11
126.627
 21
2.15463
  0
LINE
  8
0
 10
126.627
 20
2.15463
 11
126.995
 21
1.81897
  0
LINE
  8
0
 10
126.995
 20
1.81897
 11
127.296
 21
1.42136
  0
LINE
  8
0
 10
127.296
 20
1.42136
 11
127.518
 21
0.975342
  0
LINE
  8
0
 10
127.518
 20
0.975342
 11
127.654
 21
0.496109
  0
LINE
  8
0
 10
127.654
 20
0.496109
 11
127.7
 21
0
  0
LINE
  8
0
 10
127.7
 20
0
 11
127.654
 21
-0.496109
  0
LINE
  8
0
 10
127.654
 20
-0.496109
 11
127.518
 21
-0.975342
  0
LINE
  8
0
 10
127.518
 20
-0.975342
 11
127.296
 21
-1.42136
  0
LINE
  8
0
 10
127.296
 20
-1.42136
 11
126.995
 21
-1.81897
  0
LINE
  8
0
 10
126.995
 20
-1.81897
 11
126.627
 21
-2.15463
  0
LINE
  8
0
 10
126.627
 20
-2.15463
 11
126.203
 21
-2.41693
  0
LINE
  8
0
 10
126.203
 20
-2.41693
 11
125.739
 21
-2.59692
  0
LINE
  8
0
 10
125.739
 20
-2.59692
 11
125.249
 21
-2.68848
  0
LINE
  8
0
 10
125.249
 20
-2.68848
 11
124.751
 21
-2.68848
  0
LINE
  8
0
 10
-125.249
 20
-2.68848
 11
-125.739
 21
-2.59692
  0
LINE
  8
0
 10
-125.739
 20
-2.59692
 11
-126.203
 21
-2.41693
  0
LINE
  8
0
 10
-126.203
 20
-2.41693
 11
-126.627
 21
-2.15463
  0
LINE
  8
0
 10
-126.627
 20
-2.15463
 11
-126.995
 21
-1.81897
  0
LINE
  8
0
 10
-126.995
 20
-1.81897
 11
-127.296
 21
-1.42136
  0
LINE
  8
0
 10
-127.296
 20
-1.42136
 11
-127.518
 21
-0.975342
  0
LINE
  8
0
 10
-127.518
 20
-0.975342
 11
-127.654
 21
-0.496109
  0
LINE
  8
0
 10
-127.654
 20
-0.496109
 11
-127.7
 21
0
  0
LINE
  8
0
 10
-127.7
 20
0
 11
-127.654
 21
0.496109
  0
LINE
  8
0
 10
-127.654
 20
0.496109
 11
-127.518
 21
0.975342
  0
LINE
  8
0
 10
-127.518
 20
0.975342
 11
-127.296
 21
1.42136
  0
LINE
  8
0
 10
-127.296
 20
1.42136
 11
-126.995
 21
1.81897
  0
LINE
  8
0
 10
-126.995
 20
1.81897
 11
-126.627
 21
2.15463
  0
LINE
  8
0
 10
-126.627
 20
2.15463
 11
-126.203
 21
2.41693
  0
LINE
  8
0
 10
-126.203
 20
2.41693
 11
-125.739
 21
2.59692
  0
LINE
  8
0
 10
-125.739
 20
2.59692
 11
-125.249
 21
2.68848
  0
LINE
  8
0
 10
-125.249
 20
2.68848
 11
-124.751
 21
2.68848
  0
LINE
  8
0
 10
-124.751
 20
2.68848
 11
-124.261
 21
2.59692
  0
LINE
  8
0
 10
-124.261
 20
2.59692
 11
-123.797
 21
2.41693
  0
LINE
  8
0
 10
-123.797
 20
2.41693
 11
-123.373
 21
2.15463
  0
LINE
  8
0
 10
-123.373
 20
2.15463
 11
-123.005
 21
1.81897
  0
LINE
  8
0
 10
-123.005
 20
1.81897
 11
-122.704
 21
1.42136
  0
LINE
  8
0
 10
-122.704
 20
1.42136
 11
-122.482
 21
0.975342
  0
LINE
  8
0
 10
-122.482
 20
0.975342
 11
-122.346
 21
0.496109
  0
LINE
  8
0
 10
-122.346
 20
0.496109
 11
-122.3
 21
0
  0
LINE
  8
0
 10
-122.3
 20
0
 11
-122.346
 21
-0.496109
  0
LINE
  8
0
 10
-122.346
 20
-0.496109
 11
-122.482
 21
-0.975342
  0
LINE
  8
0
 10
-122.482
 20
-0.975342
 11
-122.704
 21
-1.42136
  0
LINE
  8
0
 10
-122.704
 20
-1.42136
 11
-123.005
 21
-1.81897
  0
LINE
  8
0
 10
-123.005
 20
-1.81897
 11
-123.373
 21
-2.15463
  0
LINE
  8
0
 10
-123.373
 20
-2.15463
 11
-123.797
 21
-2.41693
  0
LINE
  8
0
 10
-123.797
 20
-2.41693
 11
-124.261
 21
-2.59692
  0
LINE
  8
0
 10
-124.261
 20
-2.59692
 11
-124.751
 21
-2.68848
  0
LINE
  8
0
 10
-124.751
 20
-2.68848
 11
-125.249
 21
-2.68848
  0
LINE
  8
0
 10
-215.496
 20
-15.654
 11
-215.975
 21
-15.5177
  0
LINE
  8
0
 10
-215.975
 20
-15.5177
 11
-216.421
 21
-15.2956
  0
LINE
  8
0
 10
-216.421
 20
-15.2956
 11
-216.819
 21
-14.9953
  0
LINE
  8
0
 10
-216.819
 20
-14.9953
 11
-217.155
 21
-14.6271
  0
LINE
  8
0
 10
-217.155
 20
-14.6271
 11
-217.417
 21
-14.2035
  0
LINE
  8
0
 10
-217.417
 20
-14.2035
 11
-217.597
 21
-13.7389
  0
LINE
  8
0
 10
-217.597
 20
-13.7389
 11
-217.688
 21
-13.2491
  0
LINE
  8
0
 10
-217.688
 20
-13.2491
 11
-217.688
 21
-12.7509
  0
LINE
  8
0
 10
-217.688
 20
-12.7509
 11
-217.597
 21
-12.2611
  0
LINE
  8
0
 10
-217.597
 20
-12.2611
 11
-217.417
 21
-11.7965
  0
LINE
  8
0
 10
-217.417
 20
-11.7965
 11
-217.155
 21
-11.3729
  0
LINE
  8
0
 10
-217.155
 20
-11.3729
 11
-216.819
 21
-11.0047
  0
LINE
  8
0
 10
-216.819
 20
-11.0047
 11
-216.421
 21
-10.7044
  0
LINE
  8
0
 10
-216.421
 20
-10.7044
 11
-215.975
 21
-10.4823
  0
LINE
  8
0
 10
-215.975
 20
-10.4823
 11
-215.496
 21
-10.346
  0
LINE
  8
0
 10
-215.496
 20
-10.346
 11
-215
 21
-10.3
  0
LINE
  8
0
 10
-215
 20
-10.3
 11
-214.504
 21
-10.346
  0
LINE
  8
0
 10
-214.504
 20
-10.346
 11
-214.025
 21
-10.4823
  0
LINE
  8
0
 10
-214.025
 20
-10.4823
 11
-213.579
 21
-10.7044
  0
LINE
  8
0
 10
-213.579
 20
-10.7044
 11
-213.181
 21
-11.0047
  0
LINE
  8
0
 10
-213.181
 20
-11.0047
 11
-212.845
 21
-11.3729
  0
LINE
  8
0
 10
-212.845
 20
-11.3729
 11
-212.583
 21
-11.7965
  0
LINE
  8
0
 10
-212.583
 20
-11.7965
 11
-212.403
 21
-12.2611
  0
LINE
  8
0
 10
-212.403
 20
-12.2611
 11
-212.312
 21
-12.7509
  0
LINE
  8
0
 10
-212.312
 20
-12.7509
 11
-212.312
 21
-13.2491
  0
LINE
  8
0
 10
-212.312
 20
-13.2491
 11
-212.403
 21
-13.7389
  0
LINE
  8
0
 10
-212.403
 20
-13.7389
 11
-212.583
 21
-14.2035
  0
LINE
  8
0
 10
-212.583
 20
-14.2035
 11
-212.845
 21
-14.6271
  0
LINE
  8
0
 10
-212.845
 20
-14.6271
 11
-213.181
 21
-14.9953
  0
LINE
  8
0
 10
-213.181
 20
-14.9953
 11
-213.579
 21
-15.2956
  0
LINE
  8
0
 10
-213.579
 20
-15.2956
 11
-214.025
 21
-15.5177
  0
LINE
  8
0
 10
-214.025
 20
-15.5177
 11
-214.504
 21
-15.654
  0
LINE
  8
0
 10
-214.504
 20
-15.654
 11
-215
 21
-15.7
  0
LINE
  8
0
 10
-215
 20
-15.7
 11
-215.496
 21
-15.654
  0
LINE
  8
0
 10
214.504
 20
-15.654
 11
214.025
 21
-15.5177
  0
LINE
  8
0
 10
214.025
 20
-15.5177
 11
213.579
 21
-15.2956
  0
LINE
  8
0
 10
213.579
 20
-15.2956
 11
213.181
 21
-14.9953
  0
LINE
  8
0
 10
213.181
 20
-14.9953
 11
212.845
 21
-14.6271
  0
LINE
  8
0
 10
212.845
 20
-14.6271
 11
212.583
 21
-14.2035
  0
LINE
  8
0
 10
212.583
 20
-14.2035
 11
212.403
 21
-13.7389
  0
LINE
  8
0
 10
212.403
 20
-13.7389
 11
212.312
 21
-13.2491
  0
LINE
  8
0
 10
212.312
 20
-13.2491
 11
212.312
 21
-12.7509
  0
LINE
  8
0
 10
212.312
 20
-12.7509
 11
212.403
 21
-12.2611
  0
LINE
  8
0
 10
212.403
 20
-12.2611
 11
212.583
 21
-11.7965
  0
LINE
  8
0
 10
212.583
 20
-11.7965
 11
212.845
 21
-11.3729
  0
LINE
  8
0
 10
212.845
 20
-11.3729
 11
213.181
 21
-11.0047
  0
LINE
  8
0
 10
213.181
 20
-11.0047
 11
213.579
 21
-10.7044
  0
LINE
  8
0
 10
213.579
 20
-10.7044
 11
214.025
 21
-10.4823
  0
LINE
  8
0
 10
214.025
 20
-10.4823
 11
214.504
 21
-10.346
  0
LINE
  8
0
 10
214.504
 20
-10.346
 11
215
 21
-10.3
  0
LINE
  8
0
 10
215
 20
-10.3
 11
215.496
 21
-10.346
  0
LINE
  8
0
 10
215.496
 20
-10.346
 11
215.975
 21
-10.4823
  0
LINE
  8
0
 10
215.975
 20
-10.4823
 11
216.421
 21
-10.7044
  0
LINE
  8
0
 10
216.421
 20
-10.7044
 11
216.819
 21
-11.0047
  0
LINE
  8
0
 10
216.819
 20
-11.0047
 11
217.155
 21
-11.3729
  0
LINE
  8
0
 10
217.155
 20
-11.3729
 11
217.417
 21
-11.7965
  0
LINE
  8
0
 10
217.417
 20
-11.7965
 11
217.597
 21
-12.2611
  0
LINE
  8
0
 10
217.597
 20
-12.2611
 11
217.688
 21
-12.7509
  0
LINE
  8
0
 10
217.688
 20
-12.7509
 11
217.688
 21
-13.2491
  0
LINE
  8
0
 10
217.688
 20
-13.2491
 11
217.597
 21
-13.7389
  0
LINE
  8
0
 10
217.597
 20
-13.7389
 11
217.417
 21
-14.2035
  0
LINE
  8
0
 10
217.417
 20
-14.2035
 11
217.155
 21
-14.6271
  0
LINE
  8
0
 10
217.155
 20
-14.6271
 11
216.819
 21
-14.9953
  0
LINE
  8
0
 10
216.819
 20
-14.9953
 11
216.421
 21
-15.2956
  0
LINE
  8
0
 10
216.421
 20
-15.2956
 11
215.975
 21
-15.5177
  0
LINE
  8
0
 10
215.975
 20
-15.5177
 11
215.496
 21
-15.654
  0
LINE
  8
0
 10
215.496
 20
-15.654
 11
215
 21
-15.7
  0
LINE
  8
0
 10
215
 20
-15.7
 11
214.504
 21
-15.654
  0
LINE
  8
0
 10
-0.361359
 20
-28.905
 11
-0.814713
 21
-28.7359
  0
LINE
  8
0
 10
-0.814713
 20
-28.7359
 11
-1.20207
 21
-28.446
  0
LINE
  8
0
 10
-1.20207
 20
-28.446
 11
-1.49205
 21
-28.0586
  0
LINE
  8
0
 10
-1.49205
 20
-28.0586
 11
-1.66115
 21
-27.6053
  0
LINE
  8
0
 10
-1.66115
 20
-27.6053
 11
-1.69566
 21
-27.1226
  0
LINE
  8
0
 10
-1.69566
 20
-27.1226
 11
-1.69566
 21
-24.2942
  0
LINE
  8
0
 10
-1.69566
 20
-24.2942
 11
-1.5928
 21
-23.8214
  0
LINE
  8
0
 10
-1.5928
 20
-23.8214
 11
-1.36092
 21
-23.3967
  0
LINE
  8
0
 10
-1.36092
 20
-23.3967
 11
-1.01877
 21
-23.0546
  0
LINE
  8
0
 10
-1.01877
 20
-23.0546
 11
-0.594086
 21
-22.8227
  0
LINE
  8
0
 10
-0.594086
 20
-22.8227
 11
-0.121262
 21
-22.7198
  0
LINE
  8
0
 10
-0.121262
 20
-22.7198
 11
0.361359
 21
-22.7543
  0
LINE
  8
0
 10
0.361359
 20
-22.7543
 11
0.814713
 21
-22.9234
  0
LINE
  8
0
 10
0.814713
 20
-22.9234
 11
1.20207
 21
-23.2134
  0
LINE
  8
0
 10
1.20207
 20
-23.2134
 11
1.49205
 21
-23.6008
  0
LINE
  8
0
 10
1.49205
 20
-23.6008
 11
1.66115
 21
-24.0541
  0
LINE
  8
0
 10
1.66115
 20
-24.0541
 11
1.69566
 21
-24.5367
  0
LINE
  8
0
 10
1.69566
 20
-24.5367
 11
1.69566
 21
-27.3652
  0
LINE
  8
0
 10
1.69566
 20
-27.3652
 11
1.5928
 21
-27.838
  0
LINE
  8
0
 10
1.5928
 20
-27.838
 11
1.36092
 21
-28.2627
  0
LINE
  8
0
 10
1.36092
 20
-28.2627
 11
1.01877
 21
-28.6048
  0
LINE
  8
0
 10
1.01877
 20
-28.6048
 11
0.594086
 21
-28.8367
  0
LINE
  8
0
 10
0.594086
 20
-28.8367
 11
0.121262
 21
-28.9396
  0
LINE
  8
0
 10
0.121262
 20
-28.9396
 11
-0.361359
 21
-28.905
  0
LINE
  8
0
 10
132.575
 20
-29.175
 11
132.575
 21
-22.825
  0
LINE
  8
0
 10
132.575
 20
-22.825
 11
147.425
 21
-22.825
  0
LINE
  8
0
 10
147.425
 20
-22.825
 11
147.425
 21
-29.175
  0
LINE
  8
0
 10
147.425
 20
-29.175
 11
132.575
 21
-29.175
  0
LINE
  8
0
 10
-117.425
 20
-29.175
 11
-117.425
 21
-22.825
  0
LINE
  8
0
 10
-117.425
 20
-22.825
 11
-102.575
 21
-22.825
  0
LINE
  8
0
 10
-102.575
 20
-22.825
 11
-102.575
 21
-29.175
  0
LINE
  8
0
 10
-102.575
 20
-29.175
 11
-117.425
 21
-29.175
  0
LINE
  8
0
 10
102.575
 20
-29.175
 11
102.575
 21
-22.825
  0
LINE
  8
0
 10
102.575
 20
-22.825
 11
117.425
 21
-22.825
  0
LINE
  8
0
 10
117.425
 20
-22.825
 11
117.425
 21
-29.175
  0
LINE
  8
0
 10
117.425
 20
-29.175
 11
102.575
 21
-29.175
  0
LINE
  8
0
 10
-147.425
 20
-29.175
 11
-147.425
 21
-22.825
  0
LINE
  8
0
 10
-147.425
 20
-22.825
 11
-132.575
 21
-22.825
  0
LINE
  8
0
 10
-132.575
 20
-22.825
 11
-132.575
 21
-29.175
  0
LINE
  8
0
 10
-132.575
 20
-29.175
 11
-147.425
 21
-29.175
  0
LINE
  8
0
 10
-125.249
 20
-28.6885
 11
-125.739
 21
-28.5969
  0
LINE
  8
0
 10
-125.739
 20
-28.5969
 11
-126.203
 21
-28.4169
  0
LINE
  8
0
 10
-126.203
 20
-28.4169
 11
-126.627
 21
-28.1546
  0
LINE
  8
0
 10
-126.627
 20
-28.1546
 11
-126.995
 21
-27.819
  0
LINE
  8
0
 10
-126.995
 20
-27.819
 11
-127.296
 21
-27.4214
  0
LINE
  8
0
 10
-127.296
 20
-27.4214
 11
-127.518
 21
-26.9753
  0
LINE
  8
0
 10
-127.518
 20
-26.9753
 11
-127.654
 21
-26.4961
  0
LINE
  8
0
 10
-127.654
 20
-26.4961
 11
-127.7
 21
-26
  0
LINE
  8
0
 10
-127.7
 20
-26
 11
-127.654
 21
-25.5039
  0
LINE
  8
0
 10
-127.654
 20
-25.5039
 11
-127.518
 21
-25.0246
  0
LINE
  8
0
 10
-127.518
 20
-25.0246
 11
-127.296
 21
-24.5786
  0
LINE
  8
0
 10
-127.296
 20
-24.5786
 11
-126.995
 21
-24.181
  0
LINE
  8
0
 10
-126.995
 20
-24.181
 11
-126.627
 21
-23.8454
  0
LINE
  8
0
 10
-126.627
 20
-23.8454
 11
-126.203
 21
-23.5831
  0
LINE
  8
0
 10
-126.203
 20
-23.5831
 11
-125.739
 21
-23.4031
  0
LINE
  8
0
 10
-125.739
 20
-23.4031
 11
-125.249
 21
-23.3115
  0
LINE
  8
0
 10
-125.249
 20
-23.3115
 11
-124.751
 21
-23.3115
  0
LINE
  8
0
 10
-124.751
 20
-23.3115
 11
-124.261
 21
-23.4031
  0
LINE
  8
0
 10
-124.261
 20
-23.4031
 11
-123.797
 21
-23.5831
  0
LINE
  8
0
 10
-123.797
 20
-23.5831
 11
-123.373
 21
-23.8454
  0
LINE
  8
0
 10
-123.373
 20
-23.8454
 11
-123.005
 21
-24.181
  0
LINE
  8
0
 10
-123.005
 20
-24.181
 11
-122.704
 21
-24.5786
  0
LINE
  8
0
 10
-122.704
 20
-24.5786
 11
-122.482
 21
-25.0246
  0
LINE
  8
0
 10
-122.482
 20
-25.0246
 11
-122.346
 21
-25.5039
  0
LINE
  8
0
 10
-122.346
 20
-25.5039
 11
-122.3
 21
-26
  0
LINE
  8
0
 10
-122.3
 20
-26
 11
-122.346
 21
-26.4961
  0
LINE
  8
0
 10
-122.346
 20
-26.4961
 11
-122.482
 21
-26.9753
  0
LINE
  8
0
 10
-122.482
 20
-26.9753
 11
-122.704
 21
-27.4214
  0
LINE
  8
0
 10
-122.704
 20
-27.4214
 11
-123.005
 21
-27.819
  0
LINE
  8
0
 10
-123.005
 20
-27.819
 11
-123.373
 21
-28.1546
  0
LINE
  8
0
 10
-123.373
 20
-28.1546
 11
-123.797
 21
-28.4169
  0
LINE
  8
0
 10
-123.797
 20
-28.4169
 11
-124.261
 21
-28.5969
  0
LINE
  8
0
 10
-124.261
 20
-28.5969
 11
-124.751
 21
-28.6885
  0
LINE
  8
0
 10
-124.751
 20
-28.6885
 11
-125.249
 21
-28.6885
  0
LINE
  8
0
 10
124.751
 20
-28.6885
 11
124.261
 21
-28.5969
  0
LINE
  8
0
 10
124.261
 20
-28.5969
 11
123.797
 21
-28.4169
  0
LINE
  8
0
 10
123.797
 20
-28.4169
 11
123.373
 21
-28.1546
  0
LINE
  8
0
 10
123.373
 20
-28.1546
 11
123.005
 21
-27.819
  0
LINE
  8
0
 10
123.005
 20
-27.819
 11
122.704
 21
-27.4214
  0
LINE
  8
0
 10
122.704
 20
-27.4214
 11
122.482
 21
-26.9753
  0
LINE
  8
0
 10
122.482
 20
-26.9753
 11
122.346
 21
-26.4961
  0
LINE
  8
0
 10
122.346
 20
-26.4961
 11
122.3
 21
-26
  0
LINE
  8
0
 10
122.3
 20
-26
 11
122.346
 21
-25.5039
  0
LINE
  8
0
 10
122.346
 20
-25.5039
 11
122.482
 21
-25.0246
  0
LINE
  8
0
 10
122.482
 20
-25.0246
 11
122.704
 21
-24.5786
  0
LINE
  8
0
 10
122.704
 20
-24.5786
 11
123.005
 21
-24.181
  0
LINE
  8
0
 10
123.005
 20
-24.181
 11
123.373
 21
-23.8454
  0
LINE
  8
0
 10
123.373
 20
-23.8454
 11
123.797
 21
-23.5831
  0
LINE
  8
0
 10
123.797
 20
-23.5831
 11
124.261
 21
-23.4031
  0
LINE
  8
0
 10
124.261
 20
-23.4031
 11
124.751
 21
-23.3115
  0
LINE
  8
0
 10
124.751
 20
-23.3115
 11
125.249
 21
-23.3115
  0
LINE
  8
0
 10
125.249
 20
-23.3115
 11
125.739
 21
-23.4031
  0
LINE
  8
0
 10
125.739
 20
-23.4031
 11
126.203
 21
-23.5831
  0
LINE
  8
0
 10
126.203
 20
-23.5831
 11
126.627
 21
-23.8454
  0
LINE
  8
0
 10
126.627
 20
-23.8454
 11
126.995
 21
-24.181
  0
LINE
  8
0
 10
126.995
 20
-24.181
 11
127.296
 21
-24.5786
  0
LINE
  8
0
 10
127.296
 20
-24.5786
 11
127.518
 21
-25.0246
  0
LINE
  8
0
 10
127.518
 20
-25.0246
 11
127.654
 21
-25.5039
  0
LINE
  8
0
 10
127.654
 20
-25.5039
 11
127.7
 21
-26
  0
LINE
  8
0
 10
127.7
 20
-26
 11
127.654
 21
-26.4961
  0
LINE
  8
0
 10
127.654
 20
-26.4961
 11
127.518
 21
-26.9753
  0
LINE
  8
0
 10
127.518
 20
-26.9753
 11
127.296
 21
-27.4214
  0
LINE
  8
0
 10
127.296
 20
-27.4214
 11
126.995
 21
-27.819
  0
LINE
  8
0
 10
126.995
 20
-27.819
 11
126.627
 21
-28.1546
  0
LINE
  8
0
 10
126.627
 20
-28.1546
 11
126.203
 21
-28.4169
  0
LINE
  8
0
 10
126.203
 20
-28.4169
 11
125.739
 21
-28.5969
  0
LINE
  8
0
 10
125.739
 20
-28.5969
 11
125.249
 21
-28.6885
  0
LINE
  8
0
 10
125.249
 20
-28.6885
 11
124.751
 21
-28.6885
  0
LINE
  8
0
 10
112.25
 20
-52.5936
 11
111.754
 21
-52.5422
  0
LINE
  8
0
 10
111.754
 20
-52.5422
 11
111.265
 21
-52.4401
  0
LINE
  8
0
 10
111.265
 20
-52.4401
 11
110.789
 21
-52.2882
  0
LINE
  8
0
 10
110.789
 20
-52.2882
 11
110.332
 21
-52.0883
  0
LINE
  8
0
 10
110.332
 20
-52.0883
 11
109.897
 21
-51.8423
  0
LINE
  8
0
 10
109.897
 20
-51.8423
 11
109.49
 21
-51.553
  0
LINE
  8
0
 10
109.49
 20
-51.553
 11
109.115
 21
-51.2233
  0
LINE
  8
0
 10
109.115
 20
-51.2233
 11
108.776
 21
-50.8569
  0
LINE
  8
0
 10
108.776
 20
-50.8569
 11
108.476
 21
-50.4575
  0
LINE
  8
0
 10
108.476
 20
-50.4575
 11
108.219
 21
-50.0294
  0
LINE
  8
0
 10
108.219
 20
-50.0294
 11
108.007
 21
-49.5771
  0
LINE
  8
0
 10
108.007
 20
-49.5771
 11
107.843
 21
-49.1055
  0
LINE
  8
0
 10
107.843
 20
-49.1055
 11
107.729
 21
-48.6195
  0
LINE
  8
0
 10
107.729
 20
-48.6195
 11
107.664
 21
-48.1243
  0
LINE
  8
0
 10
107.664
 20
-48.1243
 11
107.652
 21
-47.6251
  0
LINE
  8
0
 10
107.652
 20
-47.6251
 11
107.69
 21
-47.1273
  0
LINE
  8
0
 10
107.69
 20
-47.1273
 11
107.78
 21
-46.636
  0
LINE
  8
0
 10
107.78
 20
-46.636
 11
107.919
 21
-46.1566
  0
LINE
  8
0
 10
107.919
 20
-46.1566
 11
108.107
 21
-45.694
  0
LINE
  8
0
 10
108.107
 20
-45.694
 11
108.342
 21
-45.2533
  0
LINE
  8
0
 10
108.342
 20
-45.2533
 11
108.621
 21
-44.839
  0
LINE
  8
0
 10
108.621
 20
-44.839
 11
108.941
 21
-44.4555
  0
LINE
  8
0
 10
108.941
 20
-44.4555
 11
109.298
 21
-44.107
  0
LINE
  8
0
 10
109.298
 20
-44.107
 11
109.69
 21
-43.7971
  0
LINE
  8
0
 10
109.69
 20
-43.7971
 11
110.111
 21
-43.5291
  0
LINE
  8
0
 10
110.111
 20
-43.5291
 11
110.558
 21
-43.3059
  0
LINE
  8
0
 10
110.558
 20
-43.3059
 11
111.025
 21
-43.1297
  0
LINE
  8
0
 10
111.025
 20
-43.1297
 11
111.508
 21
-43.0025
  0
LINE
  8
0
 10
111.508
 20
-43.0025
 11
112.001
 21
-42.9257
  0
LINE
  8
0
 10
112.001
 20
-42.9257
 11
112.5
 21
-42.9
  0
LINE
  8
0
 10
112.5
 20
-42.9
 11
112.999
 21
-42.9257
  0
LINE
  8
0
 10
112.999
 20
-42.9257
 11
113.492
 21
-43.0025
  0
LINE
  8
0
 10
113.492
 20
-43.0025
 11
113.975
 21
-43.1297
  0
LINE
  8
0
 10
113.975
 20
-43.1297
 11
114.442
 21
-43.3059
  0
LINE
  8
0
 10
114.442
 20
-43.3059
 11
114.889
 21
-43.5291
  0
LINE
  8
0
 10
114.889
 20
-43.5291
 11
115.31
 21
-43.7971
  0
LINE
  8
0
 10
115.31
 20
-43.7971
 11
115.702
 21
-44.107
  0
LINE
  8
0
 10
115.702
 20
-44.107
 11
116.059
 21
-44.4555
  0
LINE
  8
0
 10
116.059
 20
-44.4555
 11
116.379
 21
-44.839
  0
LINE
  8
0
 10
116.379
 20
-44.839
 11
116.658
 21
-45.2533
  0
LINE
  8
0
 10
116.658
 20
-45.2533
 11
116.893
 21
-45.694
  0
LINE
  8
0
 10
116.893
 20
-45.694
 11
117.081
 21
-46.1566
  0
LINE
  8
0
 10
117.081
 20
-46.1566
 11
117.22
 21
-46.636
  0
LINE
  8
0
 10
117.22
 20
-46.636
 11
117.31
 21
-47.1273
  0
LINE
  8
0
 10
117.31
 20
-47.1273
 11
117.348
 21
-47.6251
  0
LINE
  8
0
 10
117.348
 20
-47.6251
 11
117.336
 21
-48.1243
  0
LINE
  8
0
 10
117.336
 20
-48.1243
 11
117.271
 21
-48.6195
  0
LINE
  8
0
 10
117.271
 20
-48.6195
 11
117.157
 21
-49.1055
  0
LINE
  8
0
 10
117.157
 20
-49.1055
 11
116.993
 21
-49.5771
  0
LINE
  8
0
 10
116.993
 20
-49.5771
 11
116.781
 21
-50.0294
  0
LINE
  8
0
 10
116.781
 20
-50.0294
 11
116.524
 21
-50.4575
  0
LINE
  8
0
 10
116.524
 20
-50.4575
 11
116.224
 21
-50.8569
  0
LINE
  8
0
 10
116.224
 20
-50.8569
 11
115.885
 21
-51.2233
  0
LINE
  8
0
 10
115.885
 20
-51.2233
 11
115.51
 21
-51.553
  0
LINE
  8
0
 10
115.51
 20
-51.553
 11
115.103
 21
-51.8423
  0
LINE
  8
0
 10
115.103
 20
-51.8423
 11
114.668
 21
-52.0883
  0
LINE
  8
0
 10
114.668
 20
-52.0883
 11
114.211
 21
-52.2882
  0
LINE
  8
0
 10
114.211
 20
-52.2882
 11
113.735
 21
-52.4401
  0
LINE
  8
0
 10
113.735
 20
-52.4401
 11
113.246
 21
-52.5422
  0
LINE
  8
0
 10
113.246
 20
-52.5422
 11
112.75
 21
-52.5936
  0
LINE
  8
0
 10
112.75
 20
-52.5936
 11
112.25
 21
-52.5936
  0
LINE
  8
0
 10
-112.75
 20
-52.5936
 11
-113.246
 21
-52.5422
  0
LINE
  8
0
 10
-113.246
 20
-52.5422
 11
-113.735
 21
-52.4401
  0
LINE
  8
0
 10
-113.735
 20
-52.4401
 11
-114.211
 21
-52.2882
  0
LINE
  8
0
 10
-114.211
 20
-52.2882
 11
-114.668
 21
-52.0883
  0
LINE
  8
0
 10
-114.668
 20
-52.0883
 11
-115.103
 21
-51.8423
  0
LINE
  8
0
 10
-115.103
 20
-51.8423
 11
-115.51
 21
-51.553
  0
LINE
  8
0
 10
-115.51
 20
-51.553
 11
-115.885
 21
-51.2233
  0
LINE
  8
0
 10
-115.885
 20
-51.2233
 11
-116.224
 21
-50.8569
  0
LINE
  8
0
 10
-116.224
 20
-50.8569
 11
-116.524
 21
-50.4575
  0
LINE
  8
0
 10
-116.524
 20
-50.4575
 11
-116.781
 21
-50.0294
  0
LINE
  8
0
 10
-116.781
 20
-50.0294
 11
-116.993
 21
-49.5771
  0
LINE
  8
0
 10
-116.993
 20
-49.5771
 11
-117.157
 21
-49.1055
  0
LINE
  8
0
 10
-117.157
 20
-49.1055
 11
-117.271
 21
-48.6195
  0
LINE
  8
0
 10
-117.271
 20
-48.6195
 11
-117.336
 21
-48.1243
  0
LINE
  8
0
 10
-117.336
 20
-48.1243
 11
-117.348
 21
-47.6251
  0
LINE
  8
0
 10
-117.348
 20
-47.6251
 11
-117.31
 21
-47.1273
  0
LINE
  8
0
 10
-117.31
 20
-47.1273
 11
-117.22
 21
-46.636
  0
LINE
  8
0
 10
-117.22
 20
-46.636
 11
-117.081
 21
-46.1566
  0
LINE
  8
0
 10
-117.081
 20
-46.1566
 11
-116.893
 21
-45.694
  0
LINE
  8
0
 10
-116.893
 20
-45.694
 11
-116.658
 21
-45.2533
  0
LINE
  8
0
 10
-116.658
 20
-45.2533
 11
-116.379
 21
-44.839
  0
LINE
  8
0
 10
-116.379
 20
-44.839
 11
-116.059
 21
-44.4555
  0
LINE
  8
0
 10
-116.059
 20
-44.4555
 11
-115.702
 21
-44.107
  0
LINE
  8
0
 10
-115.702
 20
-44.107
 11
-115.31
 21
-43.7971
  0
LINE
  8
0
 10
-115.31
 20
-43.7971
 11
-114.889
 21
-43.5291
  0
LINE
  8
0
 10
-114.889
 20
-43.5291
 11
-114.442
 21
-43.3059
  0
LINE
  8
0
 10
-114.442
 20
-43.3059
 11
-113.975
 21
-43.1297
  0
LINE
  8
0
 10
-113.975
 20
-43.1297
 11
-113.492
 21
-43.0025
  0
LINE
  8
0
 10
-113.492
 20
-43.0025
 11
-112.999
 21
-42.9257
  0
LINE
  8
0
 10
-112.999
 20
-42.9257
 11
-112.5
 21
-42.9
  0
LINE
  8
0
 10
-112.5
 20
-42.9
 11
-112.001
 21
-42.9257
  0
LINE
  8
0
 10
-112.001
 20
-42.9257
 11
-111.508
 21
-43.0025
  0
LINE
  8
0
 10
-111.508
 20
-43.0025
 11
-111.025
 21
-43.1297
  0
LINE
  8
0
 10
-111.025
 20
-43.1297
 11
-110.558
 21
-43.3059
  0
LINE
  8
0
 10
-110.558
 20
-43.3059
 11
-110.111
 21
-43.5291
  0
LINE
  8
0
 10
-110.111
 20
-43.5291
 11
-109.69
 21
-43.7971
  0
LINE
  8
0
 10
-109.69
 20
-43.7971
 11
-109.298
 21
-44.107
  0
LINE
  8
0
 10
-109.298
 20
-44.107
 11
-108.941
 21
-44.4555
  0
LINE
  8
0
 10
-108.941
 20
-44.4555
 11
-108.621
 21
-44.839
  0
LINE
  8
0
 10
-108.621
 20
-44.839
 11
-108.342
 21
-45.2533
  0
LINE
  8
0
 10
-108.342
 20
-45.2533
 11
-108.107
 21
-45.694
  0
LINE
  8
0
 10
-108.107
 20
-45.694
 11
-107.919
 21
-46.1566
  0
LINE
  8
0
 10
-107.919
 20
-46.1566
 11
-107.78
 21
-46.636
  0
LINE
  8
0
 10
-107.78
 20
-46.636
 11
-107.69
 21
-47.1273
  0
LINE
  8
0
 10
-107.69
 20
-47.1273
 11
-107.652
 21
-47.6251
  0
LINE
  8
0
 10
-107.652
 20
-47.6251
 11
-107.664
 21
-48.1243
  0
LINE
  8
0
 10
-107.664
 20
-48.1243
 11
-107.729
 21
-48.6195
  0
LINE
  8
0
 10
-107.729
 20
-48.6195
 11
-107.843
 21
-49.1055
  0
LINE
  8
0
 10
-107.843
 20
-49.1055
 11
-108.007
 21
-49.5771
  0
LINE
  8
0
 10
-108.007
 20
-49.5771
 11
-108.219
 21
-50.0294
  0
LINE
  8
0
 10
-108.219
 20
-50.0294
 11
-108.476
 21
-50.4575
  0
LINE
  8
0
 10
-108.476
 20
-50.4575
 11
-108.776
 21
-50.8569
  0
LINE
  8
0
 10
-108.776
 20
-50.8569
 11
-109.115
 21
-51.2233
  0
LINE
  8
0
 10
-109.115
 20
-51.2233
 11
-109.49
 21
-51.553
  0
LINE
  8
0
 10
-109.49
 20
-51.553
 11
-109.897
 21
-51.8423
  0
LINE
  8
0
 10
-109.897
 20
-51.8423
 11
-110.332
 21
-52.0883
  0
LINE
  8
0
 10
-110.332
 20
-52.0883
 11
-110.789
 21
-52.2882
  0
LINE
  8
0
 10
-110.789
 20
-52.2882
 11
-111.265
 21
-52.4401
  0
LINE
  8
0
 10
-111.265
 20
-52.4401
 11
-111.754
 21
-52.5422
  0
LINE
  8
0
 10
-111.754
 20
-52.5422
 11
-112.25
 21
-52.5936
  0
LINE
  8
0
 10
-112.25
 20
-52.5936
 11
-112.75
 21
-52.5936
  0
LINE
  8
0
 10
100.15
 20
-50.25
 11
100.15
 21
-45.25
  0
LINE
  8
0
 10
100.15
 20
-45.25
 11
103.15
 21
-45.25
  0
LINE
  8
0
 10
103.15
 20
-45.25
 11
103.15
 21
-50.25
  0
LINE
  8
0
 10
103.15
 20
-50.25
 11
100.15
 21
-50.25
  0
LINE
  8
0
 10
-124.85
 20
-50.25
 11
-124.85
 21
-45.25
  0
LINE
  8
0
 10
-124.85
 20
-45.25
 11
-121.85
 21
-45.25
  0
LINE
  8
0
 10
-121.85
 20
-45.25
 11
-121.85
 21
-50.25
  0
LINE
  8
0
 10
-121.85
 20
-50.25
 11
-124.85
 21
-50.25
  0
LINE
  8
0
 10
121.85
 20
-50.25
 11
121.85
 21
-45.25
  0
LINE
  8
0
 10
121.85
 20
-45.25
 11
124.85
 21
-45.25
  0
LINE
  8
0
 10
124.85
 20
-45.25
 11
124.85
 21
-50.25
  0
LINE
  8
0
 10
124.85
 20
-50.25
 11
121.85
 21
-50.25
  0
LINE
  8
0
 10
-103.15
 20
-50.25
 11
-103.15
 21
-45.25
  0
LINE
  8
0
 10
-103.15
 20
-45.25
 11
-100.15
 21
-45.25
  0
LINE
  8
0
 10
-100.15
 20
-45.25
 11
-100.15
 21
-50.25
  0
LINE
  8
0
 10
-100.15
 20
-50.25
 11
-103.15
 21
-50.25
  0
LINE
  8
0
 10
20.3848
 20
-49.4457
 11
19.912
 21
-49.3428
  0
LINE
  8
0
 10
19.912
 20
-49.3428
 11
19.4873
 21
-49.1109
  0
LINE
  8
0
 10
19.4873
 20
-49.1109
 11
19.1452
 21
-48.7688
  0
LINE
  8
0
 10
19.1452
 20
-48.7688
 11
18.9133
 21
-48.3441
  0
LINE
  8
0
 10
18.9133
 20
-48.3441
 11
18.8104
 21
-47.8713
  0
LINE
  8
0
 10
18.8104
 20
-47.8713
 11
18.8449
 21
-47.3886
  0
LINE
  8
0
 10
18.8449
 20
-47.3886
 11
19.014
 21
-46.9353
  0
LINE
  8
0
 10
19.014
 20
-46.9353
 11
19.304
 21
-46.5479
  0
LINE
  8
0
 10
19.304
 20
-46.5479
 11
19.6914
 21
-46.2579
  0
LINE
  8
0
 10
19.6914
 20
-46.2579
 11
20.1447
 21
-46.0888
  0
LINE
  8
0
 10
20.1447
 20
-46.0888
 11
20.6274
 21
-46.0543
  0
LINE
  8
0
 10
20.6274
 20
-46.0543
 11
23.4558
 21
-46.0543
  0
LINE
  8
0
 10
23.4558
 20
-46.0543
 11
23.9286
 21
-46.1572
  0
LINE
  8
0
 10
23.9286
 20
-46.1572
 11
24.3533
 21
-46.3891
  0
LINE
  8
0
 10
24.3533
 20
-46.3891
 11
24.6954
 21
-46.7312
  0
LINE
  8
0
 10
24.6954
 20
-46.7312
 11
24.9273
 21
-47.1559
  0
LINE
  8
0
 10
24.9273
 20
-47.1559
 11
25.0302
 21
-47.6287
  0
LINE
  8
0
 10
25.0302
 20
-47.6287
 11
24.9957
 21
-48.1114
  0
LINE
  8
0
 10
24.9957
 20
-48.1114
 11
24.8266
 21
-48.5647
  0
LINE
  8
0
 10
24.8266
 20
-48.5647
 11
24.5366
 21
-48.9521
  0
LINE
  8
0
 10
24.5366
 20
-48.9521
 11
24.1492
 21
-49.2421
  0
LINE
  8
0
 10
24.1492
 20
-49.2421
 11
23.6959
 21
-49.4111
  0
LINE
  8
0
 10
23.6959
 20
-49.4111
 11
23.2132
 21
-49.4457
  0
LINE
  8
0
 10
23.2132
 20
-49.4457
 11
20.3848
 21
-49.4457
  0
LINE
  8
0
 10
-23.4558
 20
-49.4457
 11
-23.9286
 21
-49.3428
  0
LINE
  8
0
 10
-23.9286
 20
-49.3428
 11
-24.3533
 21
-49.1109
  0
LINE
  8
0
 10
-24.3533
 20
-49.1109
 11
-24.6954
 21
-48.7688
  0
LINE
  8
0
 10
-24.6954
 20
-48.7688
 11
-24.9273
 21
-48.3441
  0
LINE
  8
0
 10
-24.9273
 20
-48.3441
 11
-25.0302
 21
-47.8713
  0
LINE
  8
0
 10
-25.0302
 20
-47.8713
 11
-24.9957
 21
-47.3886
  0
LINE
  8
0
 10
-24.9957
 20
-47.3886
 11
-24.8266
 21
-46.9353
  0
LINE
  8
0
 10
-24.8266
 20
-46.9353
 11
-24.5366
 21
-46.5479
  0
LINE
  8
0
 10
-24.5366
 20
-46.5479
 11
-24.1492
 21
-46.2579
  0
LINE
  8
0
 10
-24.1492
 20
-46.2579
 11
-23.6959
 21
-46.0888
  0
LINE
  8
0
 10
-23.6959
 20
-46.0888
 11
-23.2132
 21
-46.0543
  0
LINE
  8
0
 10
-23.2132
 20
-46.0543
 11
-20.3848
 21
-46.0543
  0
LINE
  8
0
 10
-20.3848
 20
-46.0543
 11
-19.912
 21
-46.1572
  0
LINE
  8
0
 10
-19.912
 20
-46.1572
 11
-19.4873
 21
-46.3891
  0
LINE
  8
0
 10
-19.4873
 20
-46.3891
 11
-19.1452
 21
-46.7312
  0
LINE
  8
0
 10
-19.1452
 20
-46.7312
 11
-18.9133
 21
-47.1559
  0
LINE
  8
0
 10
-18.9133
 20
-47.1559
 11
-18.8104
 21
-47.6287
  0
LINE
  8
0
 10
-18.8104
 20
-47.6287
 11
-18.8449
 21
-48.1114
  0
LINE
  8
0
 10
-18.8449
 20
-48.1114
 11
-19.014
 21
-48.5647
  0
LINE
  8
0
 10
-19.014
 20
-48.5647
 11
-19.304
 21
-48.9521
  0
LINE
  8
0
 10
-19.304
 20
-48.9521
 11
-19.6914
 21
-49.2421
  0
LINE
  8
0
 10
-19.6914
 20
-49.2421
 11
-20.1447
 21
-49.4111
  0
LINE
  8
0
 10
-20.1447
 20
-49.4111
 11
-20.6274
 21
-49.4457
  0
LINE
  8
0
 10
-20.6274
 20
-49.4457
 11
-23.4558
 21
-49.4457
  0
LINE
  8
0
 10
214.504
 20
-54.154
 11
214.025
 21
-54.0177
  0
LINE
  8
0
 10
214.025
 20
-54.0177
 11
213.579
 21
-53.7956
  0
LINE
  8
0
 10
213.579
 20
-53.7956
 11
213.181
 21
-53.4953
  0
LINE
  8
0
 10
213.181
 20
-53.4953
 11
212.845
 21
-53.1271
  0
LINE
  8
0
 10
212.845
 20
-53.1271
 11
212.583
 21
-52.7035
  0
LINE
  8
0
 10
212.583
 20
-52.7035
 11
212.403
 21
-52.2389
  0
LINE
  8
0
 10
212.403
 20
-52.2389
 11
212.312
 21
-51.7491
  0
LINE
  8
0
 10
212.312
 20
-51.7491
 11
212.312
 21
-51.2509
  0
LINE
  8
0
 10
212.312
 20
-51.2509
 11
212.403
 21
-50.7611
  0
LINE
  8
0
 10
212.403
 20
-50.7611
 11
212.583
 21
-50.2965
  0
LINE
  8
0
 10
212.583
 20
-50.2965
 11
212.845
 21
-49.8729
  0
LINE
  8
0
 10
212.845
 20
-49.8729
 11
213.181
 21
-49.5047
  0
LINE
  8
0
 10
213.181
 20
-49.5047
 11
213.579
 21
-49.2044
  0
LINE
  8
0
 10
213.579
 20
-49.2044
 11
214.025
 21
-48.9823
  0
LINE
  8
0
 10
214.025
 20
-48.9823
 11
214.504
 21
-48.846
  0
LINE
  8
0
 10
214.504
 20
-48.846
 11
215
 21
-48.8
  0
LINE
  8
0
 10
215
 20
-48.8
 11
215.496
 21
-48.846
  0
LINE
  8
0
 10
215.496
 20
-48.846
 11
215.975
 21
-48.9823
  0
LINE
  8
0
 10
215.975
 20
-48.9823
 11
216.421
 21
-49.2044
  0
LINE
  8
0
 10
216.421
 20
-49.2044
 11
216.819
 21
-49.5047
  0
LINE
  8
0
 10
216.819
 20
-49.5047
 11
217.155
 21
-49.8729
  0
LINE
  8
0
 10
217.155
 20
-49.8729
 11
217.417
 21
-50.2965
  0
LINE
  8
0
 10
217.417
 20
-50.2965
 11
217.597
 21
-50.7611
  0
LINE
  8
0
 10
217.597
 20
-50.7611
 11
217.688
 21
-51.2509
  0
LINE
  8
0
 10
217.688
 20
-51.2509
 11
217.688
 21
-51.7491
  0
LINE
  8
0
 10
217.688
 20
-51.7491
 11
217.597
 21
-52.2389
  0
LINE
  8
0
 10
217.597
 20
-52.2389
 11
217.417
 21
-52.7035
  0
LINE
  8
0
 10
217.417
 20
-52.7035
 11
217.155
 21
-53.1271
  0
LINE
  8
0
 10
217.155
 20
-53.1271
 11
216.819
 21
-53.4953
  0
LINE
  8
0
 10
216.819
 20
-53.4953
 11
216.421
 21
-53.7956
  0
LINE
  8
0
 10
216.421
 20
-53.7956
 11
215.975
 21
-54.0177
  0
LINE
  8
0
 10
215.975
 20
-54.0177
 11
215.496
 21
-54.154
  0
LINE
  8
0
 10
215.496
 20
-54.154
 11
215
 21
-54.2
  0
LINE
  8
0
 10
215
 20
-54.2
 11
214.504
 21
-54.154
  0
LINE
  8
0
 10
-215.496
 20
-54.154
 11
-215.975
 21
-54.0177
  0
LINE
  8
0
 10
-215.975
 20
-54.0177
 11
-216.421
 21
-53.7956
  0
LINE
  8
0
 10
-216.421
 20
-53.7956
 11
-216.819
 21
-53.4953
  0
LINE
  8
0
 10
-216.819
 20
-53.4953
 11
-217.155
 21
-53.1271
  0
LINE
  8
0
 10
-217.155
 20
-53.1271
 11
-217.417
 21
-52.7035
  0
LINE
  8
0
 10
-217.417
 20
-52.7035
 11
-217.597
 21
-52.2389
  0
LINE
  8
0
 10
-217.597
 20
-52.2389
 11
-217.688
 21
-51.7491
  0
LINE
  8
0
 10
-217.688
 20
-51.7491
 11
-217.688
 21
-51.2509
  0
LINE
  8
0
 10
-217.688
 20
-51.2509
 11
-217.597
 21
-50.7611
  0
LINE
  8
0
 10
-217.597
 20
-50.7611
 11
-217.417
 21
-50.2965
  0
LINE
  8
0
 10
-217.417
 20
-50.2965
 11
-217.155
 21
-49.8729
  0
LINE
  8
0
 10
-217.155
 20
-49.8729
 11
-216.819
 21
-49.5047
  0
LINE
  8
0
 10
-216.819
 20
-49.5047
 11
-216.421
 21
-49.2044
  0
LINE
  8
0
 10
-216.421
 20
-49.2044
 11
-215.975
 21
-48.9823
  0
LINE
  8
0
 10
-215.975
 20
-48.9823
 11
-215.496
 21
-48.846
  0
LINE
  8
0
 10
-215.496
 20
-48.846
 11
-215
 21
-48.8
  0
LINE
  8
0
 10
-215
 20
-48.8
 11
-214.504
 21
-48.846
  0
LINE
  8
0
 10
-214.504
 20
-48.846
 11
-214.025
 21
-48.9823
  0
LINE
  8
0
 10
-214.025
 20
-48.9823
 11
-213.579
 21
-49.2044
  0
LINE
  8
0
 10
-213.579
 20
-49.2044
 11
-213.181
 21
-49.5047
  0
LINE
  8
0
 10
-213.181
 20
-49.5047
 11
-212.845
 21
-49.8729
  0
LINE
  8
0
 10
-212.845
 20
-49.8729
 11
-212.583
 21
-50.2965
  0
LINE
  8
0
 10
-212.583
 20
-50.2965
 11
-212.403
 21
-50.7611
  0
LINE
  8
0
 10
-212.403
 20
-50.7611
 11
-212.312
 21
-51.2509
  0
LINE
  8
0
 10
-212.312
 20
-51.2509
 11
-212.312
 21
-51.7491
  0
LINE
  8
0
 10
-212.312
 20
-51.7491
 11
-212.403
 21
-52.2389
  0
LINE
  8
0
 10
-212.403
 20
-52.2389
 11
-212.583
 21
-52.7035
  0
LINE
  8
0
 10
-212.583
 20
-52.7035
 11
-212.845
 21
-53.1271
  0
LINE
  8
0
 10
-212.845
 20
-53.1271
 11
-213.181
 21
-53.4953
  0
LINE
  8
0
 10
-213.181
 20
-53.4953
 11
-213.579
 21
-53.7956
  0
LINE
  8
0
 10
-213.579
 20
-53.7956
 11
-214.025
 21
-54.0177
  0
LINE
  8
0
 10
-214.025
 20
-54.0177
 11
-214.504
 21
-54.154
  0
LINE
  8
0
 10
-214.504
 20
-54.154
 11
-215
 21
-54.2
  0
LINE
  8
0
 10
-215
 20
-54.2
 11
-215.496
 21
-54.154
  0
ENDSEC
  0
SECTION
  2
OBJECTS
  0
DICTIONARY
  0
ENDSEC
  0
EOF
