  0
SECTION
  2
BLOCKS
  0
ENDSEC
  0
SECTION
  2
ENTITIES
  0
LINE
  8
0
 10
-157.822
 20
-49.9841
 11
-158.163
 21
-49.6227
  0
LINE
  8
0
 10
-158.163
 20
-49.6227
 11
-158.488
 21
-49.2463
  0
LINE
  8
0
 10
-158.488
 20
-49.2463
 11
-158.796
 21
-48.8556
  0
LINE
  8
0
 10
-158.796
 20
-48.8556
 11
-159.085
 21
-48.4514
  0
LINE
  8
0
 10
-159.085
 20
-48.4514
 11
-159.356
 21
-48.0345
  0
LINE
  8
0
 10
-159.356
 20
-48.0345
 11
-159.608
 21
-47.6058
  0
LINE
  8
0
 10
-159.608
 20
-47.6058
 11
-159.84
 21
-47.1662
  0
LINE
  8
0
 10
-159.84
 20
-47.1662
 11
-160.052
 21
-46.7165
  0
LINE
  8
0
 10
-160.052
 20
-46.7165
 11
-160.244
 21
-46.2577
  0
LINE
  8
0
 10
-160.244
 20
-46.2577
 11
-160.415
 21
-45.7907
  0
LINE
  8
0
 10
-160.415
 20
-45.7907
 11
-160.564
 21
-45.3165
  0
LINE
  8
0
 10
-160.564
 20
-45.3165
 11
-160.692
 21
-44.836
  0
LINE
  8
0
 10
-160.692
 20
-44.836
 11
-160.798
 21
-44.3503
  0
LINE
  8
0
 10
-160.798
 20
-44.3503
 11
-160.882
 21
-43.8602
  0
LINE
  8
0
 10
-160.882
 20
-43.8602
 11
-160.943
 21
-43.3668
  0
LINE
  8
0
 10
-160.943
 20
-43.3668
 11
-160.982
 21
-42.8712
  0
LINE
  8
0
 10
-160.982
 20
-42.8712
 11
-160.999
 21
-42.3743
  0
LINE
  8
0
 10
-160.999
 20
-42.3743
 11
-160.994
 21
-41.8771
  0
LINE
  8
0
 10
-160.994
 20
-41.8771
 11
-160.966
 21
-41.3808
  0
LINE
  8
0
 10
-160.966
 20
-41.3808
 11
-160.915
 21
-40.8861
  0
LINE
  8
0
 10
-160.915
 20
-40.8861
 11
-160.842
 21
-40.3943
  0
LINE
  8
0
 10
-160.842
 20
-40.3943
 11
-160.747
 21
-39.9062
  0
LINE
  8
0
 10
-160.747
 20
-39.9062
 11
-160.631
 21
-39.423
  0
LINE
  8
0
 10
-160.631
 20
-39.423
 11
-160.492
 21
-38.9455
  0
LINE
  8
0
 10
-160.492
 20
-38.9455
 11
-160.332
 21
-38.4748
  0
LINE
  8
0
 10
-160.332
 20
-38.4748
 11
-160.151
 21
-38.0118
  0
LINE
  8
0
 10
-160.151
 20
-38.0118
 11
-159.949
 21
-37.5574
  0
LINE
  8
0
 10
-159.949
 20
-37.5574
 11
-159.727
 21
-37.1127
  0
LINE
  8
0
 10
-159.727
 20
-37.1127
 11
-159.485
 21
-36.6784
  0
LINE
  8
0
 10
-159.485
 20
-36.6784
 11
-159.223
 21
-36.2555
  0
LINE
  8
0
 10
-159.223
 20
-36.2555
 11
-158.943
 21
-35.8448
  0
LINE
  8
0
 10
-158.943
 20
-35.8448
 11
-158.644
 21
-35.4473
  0
LINE
  8
0
 10
-158.644
 20
-35.4473
 11
-158.328
 21
-35.0636
  0
LINE
  8
0
 10
-158.328
 20
-35.0636
 11
-157.995
 21
-34.6946
  0
LINE
  8
0
 10
-157.995
 20
-34.6946
 11
-157.645
 21
-34.3411
  0
LINE
  8
0
 10
-157.645
 20
-34.3411
 11
-157.28
 21
-34.0037
  0
LINE
  8
0
 10
-157.28
 20
-34.0037
 11
-156.9
 21
-33.6832
  0
LINE
  8
0
 10
-156.9
 20
-33.6832
 11
-156.506
 21
-33.3801
  0
LINE
  8
0
 10
-156.506
 20
-33.3801
 11
-156.098
 21
-33.0952
  0
LINE
  8
0
 10
-156.098
 20
-33.0952
 11
-155.678
 21
-32.829
  0
LINE
  8
0
 10
-155.678
 20
-32.829
 11
-155.247
 21
-32.582
  0
LINE
  8
0
 10
-155.247
 20
-32.582
 11
-154.805
 21
-32.3548
  0
LINE
  8
0
 10
-154.805
 20
-32.3548
 11
-154.353
 21
-32.1478
  0
LINE
  8
0
 10
-154.353
 20
-32.1478
 11
-153.892
 21
-31.9614
  0
LINE
  8
0
 10
-153.892
 20
-31.9614
 11
-153.423
 21
-31.7961
  0
LINE
  8
0
 10
-153.423
 20
-31.7961
 11
-152.947
 21
-31.6521
  0
LINE
  8
0
 10
-152.947
 20
-31.6521
 11
-152.465
 21
-31.5298
  0
LINE
  8
0
 10
-152.465
 20
-31.5298
 11
-151.978
 21
-31.4293
  0
LINE
  8
0
 10
-151.978
 20
-31.4293
 11
-151.487
 21
-31.351
  0
LINE
  8
0
 10
-151.487
 20
-31.351
 11
-150.993
 21
-31.2949
  0
LINE
  8
0
 10
-150.993
 20
-31.2949
 11
-150.497
 21
-31.2612
  0
LINE
  8
0
 10
-150.497
 20
-31.2612
 11
-150
 21
-31.25
  0
LINE
  8
0
 10
-150
 20
-31.25
 11
-149.503
 21
-31.2612
  0
LINE
  8
0
 10
-149.503
 20
-31.2612
 11
-149.007
 21
-31.2949
  0
LINE
  8
0
 10
-149.007
 20
-31.2949
 11
-148.513
 21
-31.351
  0
LINE
  8
0
 10
-148.513
 20
-31.351
 11
-148.022
 21
-31.4293
  0
LINE
  8
0
 10
-148.022
 20
-31.4293
 11
-147.535
 21
-31.5298
  0
LINE
  8
0
 10
-147.535
 20
-31.5298
 11
-147.053
 21
-31.6521
  0
LINE
  8
0
 10
-147.053
 20
-31.6521
 11
-146.577
 21
-31.7961
  0
LINE
  8
0
 10
-146.577
 20
-31.7961
 11
-146.108
 21
-31.9614
  0
LINE
  8
0
 10
-146.108
 20
-31.9614
 11
-145.647
 21
-32.1478
  0
LINE
  8
0
 10
-145.647
 20
-32.1478
 11
-145.195
 21
-32.3548
  0
LINE
  8
0
 10
-145.195
 20
-32.3548
 11
-144.753
 21
-32.582
  0
LINE
  8
0
 10
-144.753
 20
-32.582
 11
-144.322
 21
-32.829
  0
LINE
  8
0
 10
-144.322
 20
-32.829
 11
-143.902
 21
-33.0952
  0
LINE
  8
0
 10
-143.902
 20
-33.0952
 11
-143.494
 21
-33.3801
  0
LINE
  8
0
 10
-143.494
 20
-33.3801
 11
-143.1
 21
-33.6832
  0
LINE
  8
0
 10
-143.1
 20
-33.6832
 11
-142.72
 21
-34.0037
  0
LINE
  8
0
 10
-142.72
 20
-34.0037
 11
-142.355
 21
-34.3411
  0
LINE
  8
0
 10
-142.355
 20
-34.3411
 11
-142.005
 21
-34.6946
  0
LINE
  8
0
 10
-142.005
 20
-34.6946
 11
-141.672
 21
-35.0636
  0
LINE
  8
0
 10
-141.672
 20
-35.0636
 11
-141.356
 21
-35.4473
  0
LINE
  8
0
 10
-141.356
 20
-35.4473
 11
-141.057
 21
-35.8448
  0
LINE
  8
0
 10
-141.057
 20
-35.8448
 11
-140.777
 21
-36.2555
  0
LINE
  8
0
 10
-140.777
 20
-36.2555
 11
-140.515
 21
-36.6784
  0
LINE
  8
0
 10
-140.515
 20
-36.6784
 11
-140.273
 21
-37.1127
  0
LINE
  8
0
 10
-140.273
 20
-37.1127
 11
-140.051
 21
-37.5574
  0
LINE
  8
0
 10
-140.051
 20
-37.5574
 11
-139.849
 21
-38.0118
  0
LINE
  8
0
 10
-139.849
 20
-38.0118
 11
-139.668
 21
-38.4748
  0
LINE
  8
0
 10
-139.668
 20
-38.4748
 11
-139.508
 21
-38.9455
  0
LINE
  8
0
 10
-139.508
 20
-38.9455
 11
-139.369
 21
-39.423
  0
LINE
  8
0
 10
-139.369
 20
-39.423
 11
-139.253
 21
-39.9062
  0
LINE
  8
0
 10
-139.253
 20
-39.9062
 11
-139.158
 21
-40.3943
  0
LINE
  8
0
 10
-139.158
 20
-40.3943
 11
-139.085
 21
-40.8861
  0
LINE
  8
0
 10
-139.085
 20
-40.8861
 11
-139.034
 21
-41.3808
  0
LINE
  8
0
 10
-139.034
 20
-41.3808
 11
-139.006
 21
-41.8771
  0
LINE
  8
0
 10
-139.006
 20
-41.8771
 11
-139.001
 21
-42.3743
  0
LINE
  8
0
 10
-139.001
 20
-42.3743
 11
-139.018
 21
-42.8712
  0
LINE
  8
0
 10
-139.018
 20
-42.8712
 11
-139.057
 21
-43.3668
  0
LINE
  8
0
 10
-139.057
 20
-43.3668
 11
-139.118
 21
-43.8602
  0
LINE
  8
0
 10
-139.118
 20
-43.8602
 11
-139.202
 21
-44.3503
  0
LINE
  8
0
 10
-139.202
 20
-44.3503
 11
-139.308
 21
-44.836
  0
LINE
  8
0
 10
-139.308
 20
-44.836
 11
-139.436
 21
-45.3165
  0
LINE
  8
0
 10
-139.436
 20
-45.3165
 11
-139.585
 21
-45.7907
  0
LINE
  8
0
 10
-139.585
 20
-45.7907
 11
-139.756
 21
-46.2577
  0
LINE
  8
0
 10
-139.756
 20
-46.2577
 11
-139.948
 21
-46.7165
  0
LINE
  8
0
 10
-139.948
 20
-46.7165
 11
-140.16
 21
-47.1662
  0
LINE
  8
0
 10
-140.16
 20
-47.1662
 11
-140.392
 21
-47.6058
  0
LINE
  8
0
 10
-140.392
 20
-47.6058
 11
-140.644
 21
-48.0345
  0
LINE
  8
0
 10
-140.644
 20
-48.0345
 11
-140.915
 21
-48.4514
  0
LINE
  8
0
 10
-140.915
 20
-48.4514
 11
-141.204
 21
-48.8556
  0
LINE
  8
0
 10
-141.204
 20
-48.8556
 11
-141.512
 21
-49.2463
  0
LINE
  8
0
 10
-141.512
 20
-49.2463
 11
-141.837
 21
-49.6227
  0
LINE
  8
0
 10
-141.837
 20
-49.6227
 11
-142.178
 21
-49.9841
  0
LINE
  8
0
 10
-142.178
 20
-49.9841
 11
-142.453
 21
-50.25
  0
LINE
  8
0
 10
-142.453
 20
-50.25
 11
-7.54692
 21
-50.25
  0
LINE
  8
0
 10
-7.54692
 20
-50.25
 11
-7.82199
 21
-49.9841
  0
LINE
  8
0
 10
-7.82199
 20
-49.9841
 11
-8.16348
 21
-49.6227
  0
LINE
  8
0
 10
-8.16348
 20
-49.6227
 11
-8.4883
 21
-49.2463
  0
LINE
  8
0
 10
-8.4883
 20
-49.2463
 11
-8.79578
 21
-48.8556
  0
LINE
  8
0
 10
-8.79578
 20
-48.8556
 11
-9.08528
 21
-48.4514
  0
LINE
  8
0
 10
-9.08528
 20
-48.4514
 11
-9.35623
 21
-48.0345
  0
LINE
  8
0
 10
-9.35623
 20
-48.0345
 11
-9.60806
 21
-47.6058
  0
LINE
  8
0
 10
-9.60806
 20
-47.6058
 11
-9.84026
 21
-47.1662
  0
LINE
  8
0
 10
-9.84026
 20
-47.1662
 11
-10.0524
 21
-46.7165
  0
LINE
  8
0
 10
-10.0524
 20
-46.7165
 11
-10.2439
 21
-46.2577
  0
LINE
  8
0
 10
-10.2439
 20
-46.2577
 11
-10.4146
 21
-45.7907
  0
LINE
  8
0
 10
-10.4146
 20
-45.7907
 11
-10.5639
 21
-45.3165
  0
LINE
  8
0
 10
-10.5639
 20
-45.3165
 11
-10.6917
 21
-44.836
  0
LINE
  8
0
 10
-10.6917
 20
-44.836
 11
-10.7976
 21
-44.3503
  0
LINE
  8
0
 10
-10.7976
 20
-44.3503
 11
-10.8815
 21
-43.8602
  0
LINE
  8
0
 10
-10.8815
 20
-43.8602
 11
-10.9431
 21
-43.3668
  0
LINE
  8
0
 10
-10.9431
 20
-43.3668
 11
-10.9824
 21
-42.8712
  0
LINE
  8
0
 10
-10.9824
 20
-42.8712
 11
-10.9993
 21
-42.3743
  0
LINE
  8
0
 10
-10.9993
 20
-42.3743
 11
-10.9937
 21
-41.8771
  0
LINE
  8
0
 10
-10.9937
 20
-41.8771
 11
-10.9656
 21
-41.3808
  0
LINE
  8
0
 10
-10.9656
 20
-41.3808
 11
-10.9151
 21
-40.8861
  0
LINE
  8
0
 10
-10.9151
 20
-40.8861
 11
-10.8423
 21
-40.3943
  0
LINE
  8
0
 10
-10.8423
 20
-40.3943
 11
-10.7474
 21
-39.9062
  0
LINE
  8
0
 10
-10.7474
 20
-39.9062
 11
-10.6305
 21
-39.423
  0
LINE
  8
0
 10
-10.6305
 20
-39.423
 11
-10.4919
 21
-38.9455
  0
LINE
  8
0
 10
-10.4919
 20
-38.9455
 11
-10.3319
 21
-38.4748
  0
LINE
  8
0
 10
-10.3319
 20
-38.4748
 11
-10.1507
 21
-38.0118
  0
LINE
  8
0
 10
-10.1507
 20
-38.0118
 11
-9.94885
 21
-37.5574
  0
LINE
  8
0
 10
-9.94885
 20
-37.5574
 11
-9.72664
 21
-37.1127
  0
LINE
  8
0
 10
-9.72664
 20
-37.1127
 11
-9.48457
 21
-36.6784
  0
LINE
  8
0
 10
-9.48457
 20
-36.6784
 11
-9.22311
 21
-36.2555
  0
LINE
  8
0
 10
-9.22311
 20
-36.2555
 11
-8.94281
 21
-35.8448
  0
LINE
  8
0
 10
-8.94281
 20
-35.8448
 11
-8.64424
 21
-35.4473
  0
LINE
  8
0
 10
-8.64424
 20
-35.4473
 11
-8.32802
 21
-35.0636
  0
LINE
  8
0
 10
-8.32802
 20
-35.0636
 11
-7.99478
 21
-34.6946
  0
LINE
  8
0
 10
-7.99478
 20
-34.6946
 11
-7.6452
 21
-34.3411
  0
LINE
  8
0
 10
-7.6452
 20
-34.3411
 11
-7.28001
 21
-34.0037
  0
LINE
  8
0
 10
-7.28001
 20
-34.0037
 11
-6.89995
 21
-33.6832
  0
LINE
  8
0
 10
-6.89995
 20
-33.6832
 11
-6.5058
 21
-33.3801
  0
LINE
  8
0
 10
-6.5058
 20
-33.3801
 11
-6.09834
 21
-33.0952
  0
LINE
  8
0
 10
-6.09834
 20
-33.0952
 11
-5.67844
 21
-32.829
  0
LINE
  8
0
 10
-5.67844
 20
-32.829
 11
-5.24692
 21
-32.582
  0
LINE
  8
0
 10
-5.24692
 20
-32.582
 11
-4.80469
 21
-32.3548
  0
LINE
  8
0
 10
-4.80469
 20
-32.3548
 11
-4.35265
 21
-32.1478
  0
LINE
  8
0
 10
-4.35265
 20
-32.1478
 11
-3.89171
 21
-31.9614
  0
LINE
  8
0
 10
-3.89171
 20
-31.9614
 11
-3.42282
 21
-31.7961
  0
LINE
  8
0
 10
-3.42282
 20
-31.7961
 11
-2.94693
 21
-31.6521
  0
LINE
  8
0
 10
-2.94693
 20
-31.6521
 11
-2.46503
 21
-31.5298
  0
LINE
  8
0
 10
-2.46503
 20
-31.5298
 11
-1.97809
 21
-31.4293
  0
LINE
  8
0
 10
-1.97809
 20
-31.4293
 11
-1.48712
 21
-31.351
  0
LINE
  8
0
 10
-1.48712
 20
-31.351
 11
-0.993103
 21
-31.2949
  0
LINE
  8
0
 10
-0.993103
 20
-31.2949
 11
-0.497055
 21
-31.2612
  0
LINE
  8
0
 10
-0.497055
 20
-31.2612
 11
0
 21
-31.25
  0
LINE
  8
0
 10
0
 20
-31.25
 11
0.497055
 21
-31.2612
  0
LINE
  8
0
 10
0.497055
 20
-31.2612
 11
0.993103
 21
-31.2949
  0
LINE
  8
0
 10
0.993103
 20
-31.2949
 11
1.48712
 21
-31.351
  0
LINE
  8
0
 10
1.48712
 20
-31.351
 11
1.97809
 21
-31.4293
  0
LINE
  8
0
 10
1.97809
 20
-31.4293
 11
2.46503
 21
-31.5298
  0
LINE
  8
0
 10
2.46503
 20
-31.5298
 11
2.94693
 21
-31.6521
  0
LINE
  8
0
 10
2.94693
 20
-31.6521
 11
3.42282
 21
-31.7961
  0
LINE
  8
0
 10
3.42282
 20
-31.7961
 11
3.89171
 21
-31.9614
  0
LINE
  8
0
 10
3.89171
 20
-31.9614
 11
4.35265
 21
-32.1478
  0
LINE
  8
0
 10
4.35265
 20
-32.1478
 11
4.80469
 21
-32.3548
  0
LINE
  8
0
 10
4.80469
 20
-32.3548
 11
5.24692
 21
-32.582
  0
LINE
  8
0
 10
5.24692
 20
-32.582
 11
5.67844
 21
-32.829
  0
LINE
  8
0
 10
5.67844
 20
-32.829
 11
6.09834
 21
-33.0952
  0
LINE
  8
0
 10
6.09834
 20
-33.0952
 11
6.5058
 21
-33.3801
  0
LINE
  8
0
 10
6.5058
 20
-33.3801
 11
6.89995
 21
-33.6832
  0
LINE
  8
0
 10
6.89995
 20
-33.6832
 11
7.28001
 21
-34.0037
  0
LINE
  8
0
 10
7.28001
 20
-34.0037
 11
7.6452
 21
-34.3411
  0
LINE
  8
0
 10
7.6452
 20
-34.3411
 11
7.99478
 21
-34.6946
  0
LINE
  8
0
 10
7.99478
 20
-34.6946
 11
8.32802
 21
-35.0636
  0
LINE
  8
0
 10
8.32802
 20
-35.0636
 11
8.64424
 21
-35.4473
  0
LINE
  8
0
 10
8.64424
 20
-35.4473
 11
8.94281
 21
-35.8448
  0
LINE
  8
0
 10
8.94281
 20
-35.8448
 11
9.22311
 21
-36.2555
  0
LINE
  8
0
 10
9.22311
 20
-36.2555
 11
9.48457
 21
-36.6784
  0
LINE
  8
0
 10
9.48457
 20
-36.6784
 11
9.72664
 21
-37.1127
  0
LINE
  8
0
 10
9.72664
 20
-37.1127
 11
9.94885
 21
-37.5574
  0
LINE
  8
0
 10
9.94885
 20
-37.5574
 11
10.1507
 21
-38.0118
  0
LINE
  8
0
 10
10.1507
 20
-38.0118
 11
10.3319
 21
-38.4748
  0
LINE
  8
0
 10
10.3319
 20
-38.4748
 11
10.4919
 21
-38.9455
  0
LINE
  8
0
 10
10.4919
 20
-38.9455
 11
10.6305
 21
-39.423
  0
LINE
  8
0
 10
10.6305
 20
-39.423
 11
10.7474
 21
-39.9062
  0
LINE
  8
0
 10
10.7474
 20
-39.9062
 11
10.8423
 21
-40.3943
  0
LINE
  8
0
 10
10.8423
 20
-40.3943
 11
10.9151
 21
-40.8861
  0
LINE
  8
0
 10
10.9151
 20
-40.8861
 11
10.9656
 21
-41.3808
  0
LINE
  8
0
 10
10.9656
 20
-41.3808
 11
10.9937
 21
-41.8771
  0
LINE
  8
0
 10
10.9937
 20
-41.8771
 11
10.9993
 21
-42.3743
  0
LINE
  8
0
 10
10.9993
 20
-42.3743
 11
10.9824
 21
-42.8712
  0
LINE
  8
0
 10
10.9824
 20
-42.8712
 11
10.9431
 21
-43.3668
  0
LINE
  8
0
 10
10.9431
 20
-43.3668
 11
10.8815
 21
-43.8602
  0
LINE
  8
0
 10
10.8815
 20
-43.8602
 11
10.7976
 21
-44.3503
  0
LINE
  8
0
 10
10.7976
 20
-44.3503
 11
10.6917
 21
-44.836
  0
LINE
  8
0
 10
10.6917
 20
-44.836
 11
10.5639
 21
-45.3165
  0
LINE
  8
0
 10
10.5639
 20
-45.3165
 11
10.4146
 21
-45.7907
  0
LINE
  8
0
 10
10.4146
 20
-45.7907
 11
10.2439
 21
-46.2577
  0
LINE
  8
0
 10
10.2439
 20
-46.2577
 11
10.0524
 21
-46.7165
  0
LINE
  8
0
 10
10.0524
 20
-46.7165
 11
9.84026
 21
-47.1662
  0
LINE
  8
0
 10
9.84026
 20
-47.1662
 11
9.60806
 21
-47.6058
  0
LINE
  8
0
 10
9.60806
 20
-47.6058
 11
9.35623
 21
-48.0345
  0
LINE
  8
0
 10
9.35623
 20
-48.0345
 11
9.08528
 21
-48.4514
  0
LINE
  8
0
 10
9.08528
 20
-48.4514
 11
8.79578
 21
-48.8556
  0
LINE
  8
0
 10
8.79578
 20
-48.8556
 11
8.4883
 21
-49.2463
  0
LINE
  8
0
 10
8.4883
 20
-49.2463
 11
8.16348
 21
-49.6227
  0
LINE
  8
0
 10
8.16348
 20
-49.6227
 11
7.82199
 21
-49.9841
  0
LINE
  8
0
 10
7.82199
 20
-49.9841
 11
7.54692
 21
-50.25
  0
LINE
  8
0
 10
7.54692
 20
-50.25
 11
142.453
 21
-50.25
  0
LINE
  8
0
 10
142.453
 20
-50.25
 11
142.178
 21
-49.9841
  0
LINE
  8
0
 10
142.178
 20
-49.9841
 11
141.837
 21
-49.6227
  0
LINE
  8
0
 10
141.837
 20
-49.6227
 11
141.512
 21
-49.2463
  0
LINE
  8
0
 10
141.512
 20
-49.2463
 11
141.204
 21
-48.8556
  0
LINE
  8
0
 10
141.204
 20
-48.8556
 11
140.915
 21
-48.4514
  0
LINE
  8
0
 10
140.915
 20
-48.4514
 11
140.644
 21
-48.0345
  0
LINE
  8
0
 10
140.644
 20
-48.0345
 11
140.392
 21
-47.6058
  0
LINE
  8
0
 10
140.392
 20
-47.6058
 11
140.16
 21
-47.1662
  0
LINE
  8
0
 10
140.16
 20
-47.1662
 11
139.948
 21
-46.7165
  0
LINE
  8
0
 10
139.948
 20
-46.7165
 11
139.756
 21
-46.2577
  0
LINE
  8
0
 10
139.756
 20
-46.2577
 11
139.585
 21
-45.7907
  0
LINE
  8
0
 10
139.585
 20
-45.7907
 11
139.436
 21
-45.3165
  0
LINE
  8
0
 10
139.436
 20
-45.3165
 11
139.308
 21
-44.836
  0
LINE
  8
0
 10
139.308
 20
-44.836
 11
139.202
 21
-44.3503
  0
LINE
  8
0
 10
139.202
 20
-44.3503
 11
139.118
 21
-43.8602
  0
LINE
  8
0
 10
139.118
 20
-43.8602
 11
139.057
 21
-43.3668
  0
LINE
  8
0
 10
139.057
 20
-43.3668
 11
139.018
 21
-42.8712
  0
LINE
  8
0
 10
139.018
 20
-42.8712
 11
139.001
 21
-42.3743
  0
LINE
  8
0
 10
139.001
 20
-42.3743
 11
139.006
 21
-41.8771
  0
LINE
  8
0
 10
139.006
 20
-41.8771
 11
139.034
 21
-41.3808
  0
LINE
  8
0
 10
139.034
 20
-41.3808
 11
139.085
 21
-40.8861
  0
LINE
  8
0
 10
139.085
 20
-40.8861
 11
139.158
 21
-40.3943
  0
LINE
  8
0
 10
139.158
 20
-40.3943
 11
139.253
 21
-39.9062
  0
LINE
  8
0
 10
139.253
 20
-39.9062
 11
139.369
 21
-39.423
  0
LINE
  8
0
 10
139.369
 20
-39.423
 11
139.508
 21
-38.9455
  0
LINE
  8
0
 10
139.508
 20
-38.9455
 11
139.668
 21
-38.4748
  0
LINE
  8
0
 10
139.668
 20
-38.4748
 11
139.849
 21
-38.0118
  0
LINE
  8
0
 10
139.849
 20
-38.0118
 11
140.051
 21
-37.5574
  0
LINE
  8
0
 10
140.051
 20
-37.5574
 11
140.273
 21
-37.1127
  0
LINE
  8
0
 10
140.273
 20
-37.1127
 11
140.515
 21
-36.6784
  0
LINE
  8
0
 10
140.515
 20
-36.6784
 11
140.777
 21
-36.2555
  0
LINE
  8
0
 10
140.777
 20
-36.2555
 11
141.057
 21
-35.8448
  0
LINE
  8
0
 10
141.057
 20
-35.8448
 11
141.356
 21
-35.4473
  0
LINE
  8
0
 10
141.356
 20
-35.4473
 11
141.672
 21
-35.0636
  0
LINE
  8
0
 10
141.672
 20
-35.0636
 11
142.005
 21
-34.6946
  0
LINE
  8
0
 10
142.005
 20
-34.6946
 11
142.355
 21
-34.3411
  0
LINE
  8
0
 10
142.355
 20
-34.3411
 11
142.72
 21
-34.0037
  0
LINE
  8
0
 10
142.72
 20
-34.0037
 11
143.1
 21
-33.6832
  0
LINE
  8
0
 10
143.1
 20
-33.6832
 11
143.494
 21
-33.3801
  0
LINE
  8
0
 10
143.494
 20
-33.3801
 11
143.902
 21
-33.0952
  0
LINE
  8
0
 10
143.902
 20
-33.0952
 11
144.322
 21
-32.829
  0
LINE
  8
0
 10
144.322
 20
-32.829
 11
144.753
 21
-32.582
  0
LINE
  8
0
 10
144.753
 20
-32.582
 11
145.195
 21
-32.3548
  0
LINE
  8
0
 10
145.195
 20
-32.3548
 11
145.647
 21
-32.1478
  0
LINE
  8
0
 10
145.647
 20
-32.1478
 11
146.108
 21
-31.9614
  0
LINE
  8
0
 10
146.108
 20
-31.9614
 11
146.577
 21
-31.7961
  0
LINE
  8
0
 10
146.577
 20
-31.7961
 11
147.053
 21
-31.6521
  0
LINE
  8
0
 10
147.053
 20
-31.6521
 11
147.535
 21
-31.5298
  0
LINE
  8
0
 10
147.535
 20
-31.5298
 11
148.022
 21
-31.4293
  0
LINE
  8
0
 10
148.022
 20
-31.4293
 11
148.513
 21
-31.351
  0
LINE
  8
0
 10
148.513
 20
-31.351
 11
149.007
 21
-31.2949
  0
LINE
  8
0
 10
149.007
 20
-31.2949
 11
149.503
 21
-31.2612
  0
LINE
  8
0
 10
149.503
 20
-31.2612
 11
150
 21
-31.25
  0
LINE
  8
0
 10
150
 20
-31.25
 11
150.497
 21
-31.2612
  0
LINE
  8
0
 10
150.497
 20
-31.2612
 11
150.993
 21
-31.2949
  0
LINE
  8
0
 10
150.993
 20
-31.2949
 11
151.487
 21
-31.351
  0
LINE
  8
0
 10
151.487
 20
-31.351
 11
151.978
 21
-31.4293
  0
LINE
  8
0
 10
151.978
 20
-31.4293
 11
152.465
 21
-31.5298
  0
LINE
  8
0
 10
152.465
 20
-31.5298
 11
152.947
 21
-31.6521
  0
LINE
  8
0
 10
152.947
 20
-31.6521
 11
153.423
 21
-31.7961
  0
LINE
  8
0
 10
153.423
 20
-31.7961
 11
153.892
 21
-31.9614
  0
LINE
  8
0
 10
153.892
 20
-31.9614
 11
154.353
 21
-32.1478
  0
LINE
  8
0
 10
154.353
 20
-32.1478
 11
154.805
 21
-32.3548
  0
LINE
  8
0
 10
154.805
 20
-32.3548
 11
155.247
 21
-32.582
  0
LINE
  8
0
 10
155.247
 20
-32.582
 11
155.678
 21
-32.829
  0
LINE
  8
0
 10
155.678
 20
-32.829
 11
156.098
 21
-33.0952
  0
LINE
  8
0
 10
156.098
 20
-33.0952
 11
156.506
 21
-33.3801
  0
LINE
  8
0
 10
156.506
 20
-33.3801
 11
156.9
 21
-33.6832
  0
LINE
  8
0
 10
156.9
 20
-33.6832
 11
157.28
 21
-34.0037
  0
LINE
  8
0
 10
157.28
 20
-34.0037
 11
157.645
 21
-34.3411
  0
LINE
  8
0
 10
157.645
 20
-34.3411
 11
157.995
 21
-34.6946
  0
LINE
  8
0
 10
157.995
 20
-34.6946
 11
158.328
 21
-35.0636
  0
LINE
  8
0
 10
158.328
 20
-35.0636
 11
158.644
 21
-35.4473
  0
LINE
  8
0
 10
158.644
 20
-35.4473
 11
158.943
 21
-35.8448
  0
LINE
  8
0
 10
158.943
 20
-35.8448
 11
159.223
 21
-36.2555
  0
LINE
  8
0
 10
159.223
 20
-36.2555
 11
159.485
 21
-36.6784
  0
LINE
  8
0
 10
159.485
 20
-36.6784
 11
159.727
 21
-37.1127
  0
LINE
  8
0
 10
159.727
 20
-37.1127
 11
159.949
 21
-37.5574
  0
LINE
  8
0
 10
159.949
 20
-37.5574
 11
160.151
 21
-38.0118
  0
LINE
  8
0
 10
160.151
 20
-38.0118
 11
160.332
 21
-38.4748
  0
LINE
  8
0
 10
160.332
 20
-38.4748
 11
160.492
 21
-38.9455
  0
LINE
  8
0
 10
160.492
 20
-38.9455
 11
160.631
 21
-39.423
  0
LINE
  8
0
 10
160.631
 20
-39.423
 11
160.747
 21
-39.9062
  0
LINE
  8
0
 10
160.747
 20
-39.9062
 11
160.842
 21
-40.3943
  0
LINE
  8
0
 10
160.842
 20
-40.3943
 11
160.915
 21
-40.8861
  0
LINE
  8
0
 10
160.915
 20
-40.8861
 11
160.966
 21
-41.3808
  0
LINE
  8
0
 10
160.966
 20
-41.3808
 11
160.994
 21
-41.8771
  0
LINE
  8
0
 10
160.994
 20
-41.8771
 11
160.999
 21
-42.3743
  0
LINE
  8
0
 10
160.999
 20
-42.3743
 11
160.982
 21
-42.8712
  0
LINE
  8
0
 10
160.982
 20
-42.8712
 11
160.943
 21
-43.3668
  0
LINE
  8
0
 10
160.943
 20
-43.3668
 11
160.882
 21
-43.8602
  0
LINE
  8
0
 10
160.882
 20
-43.8602
 11
160.798
 21
-44.3503
  0
LINE
  8
0
 10
160.798
 20
-44.3503
 11
160.692
 21
-44.836
  0
LINE
  8
0
 10
160.692
 20
-44.836
 11
160.564
 21
-45.3165
  0
LINE
  8
0
 10
160.564
 20
-45.3165
 11
160.415
 21
-45.7907
  0
LINE
  8
0
 10
160.415
 20
-45.7907
 11
160.244
 21
-46.2577
  0
LINE
  8
0
 10
160.244
 20
-46.2577
 11
160.052
 21
-46.7165
  0
LINE
  8
0
 10
160.052
 20
-46.7165
 11
159.84
 21
-47.1662
  0
LINE
  8
0
 10
159.84
 20
-47.1662
 11
159.608
 21
-47.6058
  0
LINE
  8
0
 10
159.608
 20
-47.6058
 11
159.356
 21
-48.0345
  0
LINE
  8
0
 10
159.356
 20
-48.0345
 11
159.085
 21
-48.4514
  0
LINE
  8
0
 10
159.085
 20
-48.4514
 11
158.796
 21
-48.8556
  0
LINE
  8
0
 10
158.796
 20
-48.8556
 11
158.488
 21
-49.2463
  0
LINE
  8
0
 10
158.488
 20
-49.2463
 11
158.163
 21
-49.6227
  0
LINE
  8
0
 10
158.163
 20
-49.6227
 11
157.822
 21
-49.9841
  0
LINE
  8
0
 10
157.822
 20
-49.9841
 11
157.547
 21
-50.25
  0
LINE
  8
0
 10
157.547
 20
-50.25
 11
230
 21
-50.25
  0
LINE
  8
0
 10
230
 20
-50.25
 11
230
 21
-42.75
  0
LINE
  8
0
 10
230
 20
-42.75
 11
234.875
 21
-42.75
  0
LINE
  8
0
 10
234.875
 20
-42.75
 11
236.5
 21
-41.125
  0
LINE
  8
0
 10
236.5
 20
-41.125
 11
236.5
 21
-29.375
  0
LINE
  8
0
 10
236.5
 20
-29.375
 11
234.875
 21
-27.75
  0
LINE
  8
0
 10
234.875
 20
-27.75
 11
230
 21
-27.75
  0
LINE
  8
0
 10
230
 20
-27.75
 11
230
 21
-22.7
  0
LINE
  8
0
 10
230
 20
-22.7
 11
223.1
 21
-22.7
  0
LINE
  8
0
 10
223.1
 20
-22.7
 11
223.1
 21
-24.2
  0
LINE
  8
0
 10
223.1
 20
-24.2
 11
217.4
 21
-24.2
  0
LINE
  8
0
 10
217.4
 20
-24.2
 11
217.4
 21
-22.7
  0
LINE
  8
0
 10
217.4
 20
-22.7
 11
210.5
 21
-22.7
  0
LINE
  8
0
 10
210.5
 20
-22.7
 11
210.5
 21
-17.8
  0
LINE
  8
0
 10
210.5
 20
-17.8
 11
217.4
 21
-17.8
  0
LINE
  8
0
 10
217.4
 20
-17.8
 11
217.4
 21
-16.3
  0
LINE
  8
0
 10
217.4
 20
-16.3
 11
223.1
 21
-16.3
  0
LINE
  8
0
 10
223.1
 20
-16.3
 11
223.1
 21
-17.8
  0
LINE
  8
0
 10
223.1
 20
-17.8
 11
230
 21
-17.8
  0
LINE
  8
0
 10
230
 20
-17.8
 11
230
 21
-12.75
  0
LINE
  8
0
 10
230
 20
-12.75
 11
234.875
 21
-12.75
  0
LINE
  8
0
 10
234.875
 20
-12.75
 11
236.5
 21
-11.125
  0
LINE
  8
0
 10
236.5
 20
-11.125
 11
236.5
 21
0.625
  0
LINE
  8
0
 10
236.5
 20
0.625
 11
234.875
 21
2.25
  0
LINE
  8
0
 10
234.875
 20
2.25
 11
230
 21
2.25
  0
LINE
  8
0
 10
230
 20
2.25
 11
230
 21
9.75
  0
LINE
  8
0
 10
230
 20
9.75
 11
-230
 21
9.75
  0
LINE
  8
0
 10
-230
 20
9.75
 11
-230
 21
2.25
  0
LINE
  8
0
 10
-230
 20
2.25
 11
-234.875
 21
2.25
  0
LINE
  8
0
 10
-234.875
 20
2.25
 11
-236.5
 21
0.625
  0
LINE
  8
0
 10
-236.5
 20
0.625
 11
-236.5
 21
-11.125
  0
LINE
  8
0
 10
-236.5
 20
-11.125
 11
-234.875
 21
-12.75
  0
LINE
  8
0
 10
-234.875
 20
-12.75
 11
-230
 21
-12.75
  0
LINE
  8
0
 10
-230
 20
-12.75
 11
-230
 21
-17.8
  0
LINE
  8
0
 10
-230
 20
-17.8
 11
-223.1
 21
-17.8
  0
LINE
  8
0
 10
-223.1
 20
-17.8
 11
-223.1
 21
-16.3
  0
LINE
  8
0
 10
-223.1
 20
-16.3
 11
-217.4
 21
-16.3
  0
LINE
  8
0
 10
-217.4
 20
-16.3
 11
-217.4
 21
-17.8
  0
LINE
  8
0
 10
-217.4
 20
-17.8
 11
-210.5
 21
-17.8
  0
LINE
  8
0
 10
-210.5
 20
-17.8
 11
-210.5
 21
-22.7
  0
LINE
  8
0
 10
-210.5
 20
-22.7
 11
-217.4
 21
-22.7
  0
LINE
  8
0
 10
-217.4
 20
-22.7
 11
-217.4
 21
-24.2
  0
LINE
  8
0
 10
-217.4
 20
-24.2
 11
-223.1
 21
-24.2
  0
LINE
  8
0
 10
-223.1
 20
-24.2
 11
-223.1
 21
-22.7
  0
LINE
  8
0
 10
-223.1
 20
-22.7
 11
-230
 21
-22.7
  0
LINE
  8
0
 10
-230
 20
-22.7
 11
-230
 21
-27.75
  0
LINE
  8
0
 10
-230
 20
-27.75
 11
-234.875
 21
-27.75
  0
LINE
  8
0
 10
-234.875
 20
-27.75
 11
-236.5
 21
-29.375
  0
LINE
  8
0
 10
-236.5
 20
-29.375
 11
-236.5
 21
-41.125
  0
LINE
  8
0
 10
-236.5
 20
-41.125
 11
-234.875
 21
-42.75
  0
LINE
  8
0
 10
-234.875
 20
-42.75
 11
-230
 21
-42.75
  0
LINE
  8
0
 10
-230
 20
-42.75
 11
-230
 21
-50.25
  0
LINE
  8
0
 10
-230
 20
-50.25
 11
-157.547
 21
-50.25
  0
LINE
  8
0
 10
-157.547
 20
-50.25
 11
-157.822
 21
-49.9841
  0
LINE
  8
0
 10
-122.45
 20
-3.2
 11
-122.45
 21
3.2
  0
LINE
  8
0
 10
-122.45
 20
3.2
 11
-107.55
 21
3.2
  0
LINE
  8
0
 10
-107.55
 20
3.2
 11
-107.55
 21
-3.2
  0
LINE
  8
0
 10
-107.55
 20
-3.2
 11
-122.45
 21
-3.2
  0
LINE
  8
0
 10
107.55
 20
-3.2
 11
107.55
 21
3.2
  0
LINE
  8
0
 10
107.55
 20
3.2
 11
122.45
 21
3.2
  0
LINE
  8
0
 10
122.45
 20
3.2
 11
122.45
 21
-3.2
  0
LINE
  8
0
 10
122.45
 20
-3.2
 11
107.55
 21
-3.2
  0
LINE
  8
0
 10
-152.45
 20
-3.2
 11
-152.45
 21
3.2
  0
LINE
  8
0
 10
-152.45
 20
3.2
 11
-137.55
 21
3.2
  0
LINE
  8
0
 10
-137.55
 20
3.2
 11
-137.55
 21
-3.2
  0
LINE
  8
0
 10
-137.55
 20
-3.2
 11
-152.45
 21
-3.2
  0
LINE
  8
0
 10
137.55
 20
-3.2
 11
137.55
 21
3.2
  0
LINE
  8
0
 10
137.55
 20
3.2
 11
152.45
 21
3.2
  0
LINE
  8
0
 10
152.45
 20
3.2
 11
152.45
 21
-3.2
  0
LINE
  8
0
 10
152.45
 20
-3.2
 11
137.55
 21
-3.2
  0
LINE
  8
0
 10
-130
 20
-2.49998
 11
-130.488
 21
-2.45195
  0
LINE
  8
0
 10
-130.488
 20
-2.45195
 11
-130.957
 21
-2.30969
  0
LINE
  8
0
 10
-130.957
 20
-2.30969
 11
-131.389
 21
-2.07866
  0
LINE
  8
0
 10
-131.389
 20
-2.07866
 11
-131.768
 21
-1.76776
  0
LINE
  8
0
 10
-131.768
 20
-1.76776
 11
-132.079
 21
-1.38892
  0
LINE
  8
0
 10
-132.079
 20
-1.38892
 11
-132.31
 21
-0.956696
  0
LINE
  8
0
 10
-132.31
 20
-0.956696
 11
-132.452
 21
-0.487717
  0
LINE
  8
0
 10
-132.452
 20
-0.487717
 11
-132.5
 21
0
  0
LINE
  8
0
 10
-132.5
 20
0
 11
-132.452
 21
0.487717
  0
LINE
  8
0
 10
-132.452
 20
0.487717
 11
-132.31
 21
0.956696
  0
LINE
  8
0
 10
-132.31
 20
0.956696
 11
-132.079
 21
1.38892
  0
LINE
  8
0
 10
-132.079
 20
1.38892
 11
-131.768
 21
1.76776
  0
LINE
  8
0
 10
-131.768
 20
1.76776
 11
-131.389
 21
2.07866
  0
LINE
  8
0
 10
-131.389
 20
2.07866
 11
-130.957
 21
2.30969
  0
LINE
  8
0
 10
-130.957
 20
2.30969
 11
-130.488
 21
2.45195
  0
LINE
  8
0
 10
-130.488
 20
2.45195
 11
-130
 21
2.49998
  0
LINE
  8
0
 10
-130
 20
2.49998
 11
-129.512
 21
2.45195
  0
LINE
  8
0
 10
-129.512
 20
2.45195
 11
-129.043
 21
2.30969
  0
LINE
  8
0
 10
-129.043
 20
2.30969
 11
-128.611
 21
2.07866
  0
LINE
  8
0
 10
-128.611
 20
2.07866
 11
-128.232
 21
1.76776
  0
LINE
  8
0
 10
-128.232
 20
1.76776
 11
-127.921
 21
1.38892
  0
LINE
  8
0
 10
-127.921
 20
1.38892
 11
-127.69
 21
0.956696
  0
LINE
  8
0
 10
-127.69
 20
0.956696
 11
-127.548
 21
0.487717
  0
LINE
  8
0
 10
-127.548
 20
0.487717
 11
-127.5
 21
0
  0
LINE
  8
0
 10
-127.5
 20
0
 11
-127.548
 21
-0.487717
  0
LINE
  8
0
 10
-127.548
 20
-0.487717
 11
-127.69
 21
-0.956696
  0
LINE
  8
0
 10
-127.69
 20
-0.956696
 11
-127.921
 21
-1.38892
  0
LINE
  8
0
 10
-127.921
 20
-1.38892
 11
-128.232
 21
-1.76776
  0
LINE
  8
0
 10
-128.232
 20
-1.76776
 11
-128.611
 21
-2.07866
  0
LINE
  8
0
 10
-128.611
 20
-2.07866
 11
-129.043
 21
-2.30969
  0
LINE
  8
0
 10
-129.043
 20
-2.30969
 11
-129.512
 21
-2.45195
  0
LINE
  8
0
 10
-129.512
 20
-2.45195
 11
-130
 21
-2.49998
  0
LINE
  8
0
 10
130
 20
-2.49998
 11
129.512
 21
-2.45195
  0
LINE
  8
0
 10
129.512
 20
-2.45195
 11
129.043
 21
-2.30969
  0
LINE
  8
0
 10
129.043
 20
-2.30969
 11
128.611
 21
-2.07866
  0
LINE
  8
0
 10
128.611
 20
-2.07866
 11
128.232
 21
-1.76776
  0
LINE
  8
0
 10
128.232
 20
-1.76776
 11
127.921
 21
-1.38892
  0
LINE
  8
0
 10
127.921
 20
-1.38892
 11
127.69
 21
-0.956696
  0
LINE
  8
0
 10
127.69
 20
-0.956696
 11
127.548
 21
-0.487717
  0
LINE
  8
0
 10
127.548
 20
-0.487717
 11
127.5
 21
0
  0
LINE
  8
0
 10
127.5
 20
0
 11
127.548
 21
0.487717
  0
LINE
  8
0
 10
127.548
 20
0.487717
 11
127.69
 21
0.956696
  0
LINE
  8
0
 10
127.69
 20
0.956696
 11
127.921
 21
1.38892
  0
LINE
  8
0
 10
127.921
 20
1.38892
 11
128.232
 21
1.76776
  0
LINE
  8
0
 10
128.232
 20
1.76776
 11
128.611
 21
2.07866
  0
LINE
  8
0
 10
128.611
 20
2.07866
 11
129.043
 21
2.30969
  0
LINE
  8
0
 10
129.043
 20
2.30969
 11
129.512
 21
2.45195
  0
LINE
  8
0
 10
129.512
 20
2.45195
 11
130
 21
2.49998
  0
LINE
  8
0
 10
130
 20
2.49998
 11
130.488
 21
2.45195
  0
LINE
  8
0
 10
130.488
 20
2.45195
 11
130.957
 21
2.30969
  0
LINE
  8
0
 10
130.957
 20
2.30969
 11
131.389
 21
2.07866
  0
LINE
  8
0
 10
131.389
 20
2.07866
 11
131.768
 21
1.76776
  0
LINE
  8
0
 10
131.768
 20
1.76776
 11
132.079
 21
1.38892
  0
LINE
  8
0
 10
132.079
 20
1.38892
 11
132.31
 21
0.956696
  0
LINE
  8
0
 10
132.31
 20
0.956696
 11
132.452
 21
0.487717
  0
LINE
  8
0
 10
132.452
 20
0.487717
 11
132.5
 21
0
  0
LINE
  8
0
 10
132.5
 20
0
 11
132.452
 21
-0.487717
  0
LINE
  8
0
 10
132.452
 20
-0.487717
 11
132.31
 21
-0.956696
  0
LINE
  8
0
 10
132.31
 20
-0.956696
 11
132.079
 21
-1.38892
  0
LINE
  8
0
 10
132.079
 20
-1.38892
 11
131.768
 21
-1.76776
  0
LINE
  8
0
 10
131.768
 20
-1.76776
 11
131.389
 21
-2.07866
  0
LINE
  8
0
 10
131.389
 20
-2.07866
 11
130.957
 21
-2.30969
  0
LINE
  8
0
 10
130.957
 20
-2.30969
 11
130.488
 21
-2.45195
  0
LINE
  8
0
 10
130.488
 20
-2.45195
 11
130
 21
-2.49998
  0
LINE
  8
0
 10
219.512
 20
-12.202
 11
219.043
 21
-12.0597
  0
LINE
  8
0
 10
219.043
 20
-12.0597
 11
218.611
 21
-11.8287
  0
LINE
  8
0
 10
218.611
 20
-11.8287
 11
218.232
 21
-11.5178
  0
LINE
  8
0
 10
218.232
 20
-11.5178
 11
217.921
 21
-11.1389
  0
LINE
  8
0
 10
217.921
 20
-11.1389
 11
217.69
 21
-10.7067
  0
LINE
  8
0
 10
217.69
 20
-10.7067
 11
217.548
 21
-10.2377
  0
LINE
  8
0
 10
217.548
 20
-10.2377
 11
217.5
 21
-9.75
  0
LINE
  8
0
 10
217.5
 20
-9.75
 11
217.548
 21
-9.26227
  0
LINE
  8
0
 10
217.548
 20
-9.26227
 11
217.69
 21
-8.79329
  0
LINE
  8
0
 10
217.69
 20
-8.79329
 11
217.921
 21
-8.36107
  0
LINE
  8
0
 10
217.921
 20
-8.36107
 11
218.232
 21
-7.98222
  0
LINE
  8
0
 10
218.232
 20
-7.98222
 11
218.611
 21
-7.67133
  0
LINE
  8
0
 10
218.611
 20
-7.67133
 11
219.043
 21
-7.44029
  0
LINE
  8
0
 10
219.043
 20
-7.44029
 11
219.512
 21
-7.29803
  0
LINE
  8
0
 10
219.512
 20
-7.29803
 11
220
 21
-7.25
  0
LINE
  8
0
 10
220
 20
-7.25
 11
220.488
 21
-7.29803
  0
LINE
  8
0
 10
220.488
 20
-7.29803
 11
220.957
 21
-7.44029
  0
LINE
  8
0
 10
220.957
 20
-7.44029
 11
221.389
 21
-7.67133
  0
LINE
  8
0
 10
221.389
 20
-7.67133
 11
221.768
 21
-7.98222
  0
LINE
  8
0
 10
221.768
 20
-7.98222
 11
222.079
 21
-8.36107
  0
LINE
  8
0
 10
222.079
 20
-8.36107
 11
222.31
 21
-8.79329
  0
LINE
  8
0
 10
222.31
 20
-8.79329
 11
222.452
 21
-9.26227
  0
LINE
  8
0
 10
222.452
 20
-9.26227
 11
222.5
 21
-9.75
  0
LINE
  8
0
 10
222.5
 20
-9.75
 11
222.452
 21
-10.2377
  0
LINE
  8
0
 10
222.452
 20
-10.2377
 11
222.31
 21
-10.7067
  0
LINE
  8
0
 10
222.31
 20
-10.7067
 11
222.079
 21
-11.1389
  0
LINE
  8
0
 10
222.079
 20
-11.1389
 11
221.768
 21
-11.5178
  0
LINE
  8
0
 10
221.768
 20
-11.5178
 11
221.389
 21
-11.8287
  0
LINE
  8
0
 10
221.389
 20
-11.8287
 11
220.957
 21
-12.0597
  0
LINE
  8
0
 10
220.957
 20
-12.0597
 11
220.488
 21
-12.202
  0
LINE
  8
0
 10
220.488
 20
-12.202
 11
220
 21
-12.25
  0
LINE
  8
0
 10
220
 20
-12.25
 11
219.512
 21
-12.202
  0
LINE
  8
0
 10
-220.488
 20
-12.202
 11
-220.957
 21
-12.0597
  0
LINE
  8
0
 10
-220.957
 20
-12.0597
 11
-221.389
 21
-11.8287
  0
LINE
  8
0
 10
-221.389
 20
-11.8287
 11
-221.768
 21
-11.5178
  0
LINE
  8
0
 10
-221.768
 20
-11.5178
 11
-222.079
 21
-11.1389
  0
LINE
  8
0
 10
-222.079
 20
-11.1389
 11
-222.31
 21
-10.7067
  0
LINE
  8
0
 10
-222.31
 20
-10.7067
 11
-222.452
 21
-10.2377
  0
LINE
  8
0
 10
-222.452
 20
-10.2377
 11
-222.5
 21
-9.75
  0
LINE
  8
0
 10
-222.5
 20
-9.75
 11
-222.452
 21
-9.26227
  0
LINE
  8
0
 10
-222.452
 20
-9.26227
 11
-222.31
 21
-8.79329
  0
LINE
  8
0
 10
-222.31
 20
-8.79329
 11
-222.079
 21
-8.36107
  0
LINE
  8
0
 10
-222.079
 20
-8.36107
 11
-221.768
 21
-7.98222
  0
LINE
  8
0
 10
-221.768
 20
-7.98222
 11
-221.389
 21
-7.67133
  0
LINE
  8
0
 10
-221.389
 20
-7.67133
 11
-220.957
 21
-7.44029
  0
LINE
  8
0
 10
-220.957
 20
-7.44029
 11
-220.488
 21
-7.29803
  0
LINE
  8
0
 10
-220.488
 20
-7.29803
 11
-220
 21
-7.25
  0
LINE
  8
0
 10
-220
 20
-7.25
 11
-219.512
 21
-7.29803
  0
LINE
  8
0
 10
-219.512
 20
-7.29803
 11
-219.043
 21
-7.44029
  0
LINE
  8
0
 10
-219.043
 20
-7.44029
 11
-218.611
 21
-7.67133
  0
LINE
  8
0
 10
-218.611
 20
-7.67133
 11
-218.232
 21
-7.98222
  0
LINE
  8
0
 10
-218.232
 20
-7.98222
 11
-217.921
 21
-8.36107
  0
LINE
  8
0
 10
-217.921
 20
-8.36107
 11
-217.69
 21
-8.79329
  0
LINE
  8
0
 10
-217.69
 20
-8.79329
 11
-217.548
 21
-9.26227
  0
LINE
  8
0
 10
-217.548
 20
-9.26227
 11
-217.5
 21
-9.75
  0
LINE
  8
0
 10
-217.5
 20
-9.75
 11
-217.548
 21
-10.2377
  0
LINE
  8
0
 10
-217.548
 20
-10.2377
 11
-217.69
 21
-10.7067
  0
LINE
  8
0
 10
-217.69
 20
-10.7067
 11
-217.921
 21
-11.1389
  0
LINE
  8
0
 10
-217.921
 20
-11.1389
 11
-218.232
 21
-11.5178
  0
LINE
  8
0
 10
-218.232
 20
-11.5178
 11
-218.611
 21
-11.8287
  0
LINE
  8
0
 10
-218.611
 20
-11.8287
 11
-219.043
 21
-12.0597
  0
LINE
  8
0
 10
-219.043
 20
-12.0597
 11
-219.512
 21
-12.202
  0
LINE
  8
0
 10
-219.512
 20
-12.202
 11
-220
 21
-12.25
  0
LINE
  8
0
 10
-220
 20
-12.25
 11
-220.488
 21
-12.202
  0
LINE
  8
0
 10
-22.45
 20
-29.7
 11
-22.45
 21
-23.3
  0
LINE
  8
0
 10
-22.45
 20
-23.3
 11
-7.54999
 21
-23.3
  0
LINE
  8
0
 10
-7.54999
 20
-23.3
 11
-7.54999
 21
-29.7
  0
LINE
  8
0
 10
-7.54999
 20
-29.7
 11
-22.45
 21
-29.7
  0
LINE
  8
0
 10
107.55
 20
-29.7
 11
107.55
 21
-23.3
  0
LINE
  8
0
 10
107.55
 20
-23.3
 11
122.45
 21
-23.3
  0
LINE
  8
0
 10
122.45
 20
-23.3
 11
122.45
 21
-29.7
  0
LINE
  8
0
 10
122.45
 20
-29.7
 11
107.55
 21
-29.7
  0
LINE
  8
0
 10
7.54999
 20
-29.7
 11
7.54999
 21
-23.3
  0
LINE
  8
0
 10
7.54999
 20
-23.3
 11
22.45
 21
-23.3
  0
LINE
  8
0
 10
22.45
 20
-23.3
 11
22.45
 21
-29.7
  0
LINE
  8
0
 10
22.45
 20
-29.7
 11
7.54999
 21
-29.7
  0
LINE
  8
0
 10
-152.45
 20
-29.7
 11
-152.45
 21
-23.3
  0
LINE
  8
0
 10
-152.45
 20
-23.3
 11
-137.55
 21
-23.3
  0
LINE
  8
0
 10
-137.55
 20
-23.3
 11
-137.55
 21
-29.7
  0
LINE
  8
0
 10
-137.55
 20
-29.7
 11
-152.45
 21
-29.7
  0
LINE
  8
0
 10
137.55
 20
-29.7
 11
137.55
 21
-23.3
  0
LINE
  8
0
 10
137.55
 20
-23.3
 11
152.45
 21
-23.3
  0
LINE
  8
0
 10
152.45
 20
-23.3
 11
152.45
 21
-29.7
  0
LINE
  8
0
 10
152.45
 20
-29.7
 11
137.55
 21
-29.7
  0
LINE
  8
0
 10
-122.45
 20
-29.7
 11
-122.45
 21
-23.3
  0
LINE
  8
0
 10
-122.45
 20
-23.3
 11
-107.55
 21
-23.3
  0
LINE
  8
0
 10
-107.55
 20
-23.3
 11
-107.55
 21
-29.7
  0
LINE
  8
0
 10
-107.55
 20
-29.7
 11
-122.45
 21
-29.7
  0
LINE
  8
0
 10
130
 20
-29
 11
129.512
 21
-28.952
  0
LINE
  8
0
 10
129.512
 20
-28.952
 11
129.043
 21
-28.8097
  0
LINE
  8
0
 10
129.043
 20
-28.8097
 11
128.611
 21
-28.5787
  0
LINE
  8
0
 10
128.611
 20
-28.5787
 11
128.232
 21
-28.2678
  0
LINE
  8
0
 10
128.232
 20
-28.2678
 11
127.921
 21
-27.8889
  0
LINE
  8
0
 10
127.921
 20
-27.8889
 11
127.69
 21
-27.4567
  0
LINE
  8
0
 10
127.69
 20
-27.4567
 11
127.548
 21
-26.9877
  0
LINE
  8
0
 10
127.548
 20
-26.9877
 11
127.5
 21
-26.5
  0
LINE
  8
0
 10
127.5
 20
-26.5
 11
127.548
 21
-26.0123
  0
LINE
  8
0
 10
127.548
 20
-26.0123
 11
127.69
 21
-25.5433
  0
LINE
  8
0
 10
127.69
 20
-25.5433
 11
127.921
 21
-25.1111
  0
LINE
  8
0
 10
127.921
 20
-25.1111
 11
128.232
 21
-24.7322
  0
LINE
  8
0
 10
128.232
 20
-24.7322
 11
128.611
 21
-24.4213
  0
LINE
  8
0
 10
128.611
 20
-24.4213
 11
129.043
 21
-24.1903
  0
LINE
  8
0
 10
129.043
 20
-24.1903
 11
129.512
 21
-24.048
  0
LINE
  8
0
 10
129.512
 20
-24.048
 11
130
 21
-24
  0
LINE
  8
0
 10
130
 20
-24
 11
130.488
 21
-24.048
  0
LINE
  8
0
 10
130.488
 20
-24.048
 11
130.957
 21
-24.1903
  0
LINE
  8
0
 10
130.957
 20
-24.1903
 11
131.389
 21
-24.4213
  0
LINE
  8
0
 10
131.389
 20
-24.4213
 11
131.768
 21
-24.7322
  0
LINE
  8
0
 10
131.768
 20
-24.7322
 11
132.079
 21
-25.1111
  0
LINE
  8
0
 10
132.079
 20
-25.1111
 11
132.31
 21
-25.5433
  0
LINE
  8
0
 10
132.31
 20
-25.5433
 11
132.452
 21
-26.0123
  0
LINE
  8
0
 10
132.452
 20
-26.0123
 11
132.5
 21
-26.5
  0
LINE
  8
0
 10
132.5
 20
-26.5
 11
132.452
 21
-26.9877
  0
LINE
  8
0
 10
132.452
 20
-26.9877
 11
132.31
 21
-27.4567
  0
LINE
  8
0
 10
132.31
 20
-27.4567
 11
132.079
 21
-27.8889
  0
LINE
  8
0
 10
132.079
 20
-27.8889
 11
131.768
 21
-28.2678
  0
LINE
  8
0
 10
131.768
 20
-28.2678
 11
131.389
 21
-28.5787
  0
LINE
  8
0
 10
131.389
 20
-28.5787
 11
130.957
 21
-28.8097
  0
LINE
  8
0
 10
130.957
 20
-28.8097
 11
130.488
 21
-28.952
  0
LINE
  8
0
 10
130.488
 20
-28.952
 11
130
 21
-29
  0
LINE
  8
0
 10
0
 20
-29
 11
-0.487717
 21
-28.952
  0
LINE
  8
0
 10
-0.487717
 20
-28.952
 11
-0.956696
 21
-28.8097
  0
LINE
  8
0
 10
-0.956696
 20
-28.8097
 11
-1.38892
 21
-28.5787
  0
LINE
  8
0
 10
-1.38892
 20
-28.5787
 11
-1.76776
 21
-28.2678
  0
LINE
  8
0
 10
-1.76776
 20
-28.2678
 11
-2.07866
 21
-27.8889
  0
LINE
  8
0
 10
-2.07866
 20
-27.8889
 11
-2.30969
 21
-27.4567
  0
LINE
  8
0
 10
-2.30969
 20
-27.4567
 11
-2.45195
 21
-26.9877
  0
LINE
  8
0
 10
-2.45195
 20
-26.9877
 11
-2.5
 21
-26.5
  0
LINE
  8
0
 10
-2.5
 20
-26.5
 11
-2.45195
 21
-26.0123
  0
LINE
  8
0
 10
-2.45195
 20
-26.0123
 11
-2.30969
 21
-25.5433
  0
LINE
  8
0
 10
-2.30969
 20
-25.5433
 11
-2.07866
 21
-25.1111
  0
LINE
  8
0
 10
-2.07866
 20
-25.1111
 11
-1.76776
 21
-24.7322
  0
LINE
  8
0
 10
-1.76776
 20
-24.7322
 11
-1.38892
 21
-24.4213
  0
LINE
  8
0
 10
-1.38892
 20
-24.4213
 11
-0.956696
 21
-24.1903
  0
LINE
  8
0
 10
-0.956696
 20
-24.1903
 11
-0.487717
 21
-24.048
  0
LINE
  8
0
 10
-0.487717
 20
-24.048
 11
0
 21
-24
  0
LINE
  8
0
 10
0
 20
-24
 11
0.487717
 21
-24.048
  0
LINE
  8
0
 10
0.487717
 20
-24.048
 11
0.956696
 21
-24.1903
  0
LINE
  8
0
 10
0.956696
 20
-24.1903
 11
1.38892
 21
-24.4213
  0
LINE
  8
0
 10
1.38892
 20
-24.4213
 11
1.76776
 21
-24.7322
  0
LINE
  8
0
 10
1.76776
 20
-24.7322
 11
2.07866
 21
-25.1111
  0
LINE
  8
0
 10
2.07866
 20
-25.1111
 11
2.30969
 21
-25.5433
  0
LINE
  8
0
 10
2.30969
 20
-25.5433
 11
2.45195
 21
-26.0123
  0
LINE
  8
0
 10
2.45195
 20
-26.0123
 11
2.5
 21
-26.5
  0
LINE
  8
0
 10
2.5
 20
-26.5
 11
2.45195
 21
-26.9877
  0
LINE
  8
0
 10
2.45195
 20
-26.9877
 11
2.30969
 21
-27.4567
  0
LINE
  8
0
 10
2.30969
 20
-27.4567
 11
2.07866
 21
-27.8889
  0
LINE
  8
0
 10
2.07866
 20
-27.8889
 11
1.76776
 21
-28.2678
  0
LINE
  8
0
 10
1.76776
 20
-28.2678
 11
1.38892
 21
-28.5787
  0
LINE
  8
0
 10
1.38892
 20
-28.5787
 11
0.956696
 21
-28.8097
  0
LINE
  8
0
 10
0.956696
 20
-28.8097
 11
0.487717
 21
-28.952
  0
LINE
  8
0
 10
0.487717
 20
-28.952
 11
0
 21
-29
  0
LINE
  8
0
 10
-130
 20
-29
 11
-130.488
 21
-28.952
  0
LINE
  8
0
 10
-130.488
 20
-28.952
 11
-130.957
 21
-28.8097
  0
LINE
  8
0
 10
-130.957
 20
-28.8097
 11
-131.389
 21
-28.5787
  0
LINE
  8
0
 10
-131.389
 20
-28.5787
 11
-131.768
 21
-28.2678
  0
LINE
  8
0
 10
-131.768
 20
-28.2678
 11
-132.079
 21
-27.8889
  0
LINE
  8
0
 10
-132.079
 20
-27.8889
 11
-132.31
 21
-27.4567
  0
LINE
  8
0
 10
-132.31
 20
-27.4567
 11
-132.452
 21
-26.9877
  0
LINE
  8
0
 10
-132.452
 20
-26.9877
 11
-132.5
 21
-26.5
  0
LINE
  8
0
 10
-132.5
 20
-26.5
 11
-132.452
 21
-26.0123
  0
LINE
  8
0
 10
-132.452
 20
-26.0123
 11
-132.31
 21
-25.5433
  0
LINE
  8
0
 10
-132.31
 20
-25.5433
 11
-132.079
 21
-25.1111
  0
LINE
  8
0
 10
-132.079
 20
-25.1111
 11
-131.768
 21
-24.7322
  0
LINE
  8
0
 10
-131.768
 20
-24.7322
 11
-131.389
 21
-24.4213
  0
LINE
  8
0
 10
-131.389
 20
-24.4213
 11
-130.957
 21
-24.1903
  0
LINE
  8
0
 10
-130.957
 20
-24.1903
 11
-130.488
 21
-24.048
  0
LINE
  8
0
 10
-130.488
 20
-24.048
 11
-130
 21
-24
  0
LINE
  8
0
 10
-130
 20
-24
 11
-129.512
 21
-24.048
  0
LINE
  8
0
 10
-129.512
 20
-24.048
 11
-129.043
 21
-24.1903
  0
LINE
  8
0
 10
-129.043
 20
-24.1903
 11
-128.611
 21
-24.4213
  0
LINE
  8
0
 10
-128.611
 20
-24.4213
 11
-128.232
 21
-24.7322
  0
LINE
  8
0
 10
-128.232
 20
-24.7322
 11
-127.921
 21
-25.1111
  0
LINE
  8
0
 10
-127.921
 20
-25.1111
 11
-127.69
 21
-25.5433
  0
LINE
  8
0
 10
-127.69
 20
-25.5433
 11
-127.548
 21
-26.0123
  0
LINE
  8
0
 10
-127.548
 20
-26.0123
 11
-127.5
 21
-26.5
  0
LINE
  8
0
 10
-127.5
 20
-26.5
 11
-127.548
 21
-26.9877
  0
LINE
  8
0
 10
-127.548
 20
-26.9877
 11
-127.69
 21
-27.4567
  0
LINE
  8
0
 10
-127.69
 20
-27.4567
 11
-127.921
 21
-27.8889
  0
LINE
  8
0
 10
-127.921
 20
-27.8889
 11
-128.232
 21
-28.2678
  0
LINE
  8
0
 10
-128.232
 20
-28.2678
 11
-128.611
 21
-28.5787
  0
LINE
  8
0
 10
-128.611
 20
-28.5787
 11
-129.043
 21
-28.8097
  0
LINE
  8
0
 10
-129.043
 20
-28.8097
 11
-129.512
 21
-28.952
  0
LINE
  8
0
 10
-129.512
 20
-28.952
 11
-130
 21
-29
  0
LINE
  8
0
 10
-220.488
 20
-39.702
 11
-220.957
 21
-39.5597
  0
LINE
  8
0
 10
-220.957
 20
-39.5597
 11
-221.389
 21
-39.3287
  0
LINE
  8
0
 10
-221.389
 20
-39.3287
 11
-221.768
 21
-39.0178
  0
LINE
  8
0
 10
-221.768
 20
-39.0178
 11
-222.079
 21
-38.6389
  0
LINE
  8
0
 10
-222.079
 20
-38.6389
 11
-222.31
 21
-38.2067
  0
LINE
  8
0
 10
-222.31
 20
-38.2067
 11
-222.452
 21
-37.7377
  0
LINE
  8
0
 10
-222.452
 20
-37.7377
 11
-222.5
 21
-37.25
  0
LINE
  8
0
 10
-222.5
 20
-37.25
 11
-222.452
 21
-36.7623
  0
LINE
  8
0
 10
-222.452
 20
-36.7623
 11
-222.31
 21
-36.2933
  0
LINE
  8
0
 10
-222.31
 20
-36.2933
 11
-222.079
 21
-35.8611
  0
LINE
  8
0
 10
-222.079
 20
-35.8611
 11
-221.768
 21
-35.4822
  0
LINE
  8
0
 10
-221.768
 20
-35.4822
 11
-221.389
 21
-35.1713
  0
LINE
  8
0
 10
-221.389
 20
-35.1713
 11
-220.957
 21
-34.9403
  0
LINE
  8
0
 10
-220.957
 20
-34.9403
 11
-220.488
 21
-34.798
  0
LINE
  8
0
 10
-220.488
 20
-34.798
 11
-220
 21
-34.75
  0
LINE
  8
0
 10
-220
 20
-34.75
 11
-219.512
 21
-34.798
  0
LINE
  8
0
 10
-219.512
 20
-34.798
 11
-219.043
 21
-34.9403
  0
LINE
  8
0
 10
-219.043
 20
-34.9403
 11
-218.611
 21
-35.1713
  0
LINE
  8
0
 10
-218.611
 20
-35.1713
 11
-218.232
 21
-35.4822
  0
LINE
  8
0
 10
-218.232
 20
-35.4822
 11
-217.921
 21
-35.8611
  0
LINE
  8
0
 10
-217.921
 20
-35.8611
 11
-217.69
 21
-36.2933
  0
LINE
  8
0
 10
-217.69
 20
-36.2933
 11
-217.548
 21
-36.7623
  0
LINE
  8
0
 10
-217.548
 20
-36.7623
 11
-217.5
 21
-37.25
  0
LINE
  8
0
 10
-217.5
 20
-37.25
 11
-217.548
 21
-37.7377
  0
LINE
  8
0
 10
-217.548
 20
-37.7377
 11
-217.69
 21
-38.2067
  0
LINE
  8
0
 10
-217.69
 20
-38.2067
 11
-217.921
 21
-38.6389
  0
LINE
  8
0
 10
-217.921
 20
-38.6389
 11
-218.232
 21
-39.0178
  0
LINE
  8
0
 10
-218.232
 20
-39.0178
 11
-218.611
 21
-39.3287
  0
LINE
  8
0
 10
-218.611
 20
-39.3287
 11
-219.043
 21
-39.5597
  0
LINE
  8
0
 10
-219.043
 20
-39.5597
 11
-219.512
 21
-39.702
  0
LINE
  8
0
 10
-219.512
 20
-39.702
 11
-220
 21
-39.75
  0
LINE
  8
0
 10
-220
 20
-39.75
 11
-220.488
 21
-39.702
  0
LINE
  8
0
 10
219.512
 20
-39.702
 11
219.043
 21
-39.5597
  0
LINE
  8
0
 10
219.043
 20
-39.5597
 11
218.611
 21
-39.3287
  0
LINE
  8
0
 10
218.611
 20
-39.3287
 11
218.232
 21
-39.0178
  0
LINE
  8
0
 10
218.232
 20
-39.0178
 11
217.921
 21
-38.6389
  0
LINE
  8
0
 10
217.921
 20
-38.6389
 11
217.69
 21
-38.2067
  0
LINE
  8
0
 10
217.69
 20
-38.2067
 11
217.548
 21
-37.7377
  0
LINE
  8
0
 10
217.548
 20
-37.7377
 11
217.5
 21
-37.25
  0
LINE
  8
0
 10
217.5
 20
-37.25
 11
217.548
 21
-36.7623
  0
LINE
  8
0
 10
217.548
 20
-36.7623
 11
217.69
 21
-36.2933
  0
LINE
  8
0
 10
217.69
 20
-36.2933
 11
217.921
 21
-35.8611
  0
LINE
  8
0
 10
217.921
 20
-35.8611
 11
218.232
 21
-35.4822
  0
LINE
  8
0
 10
218.232
 20
-35.4822
 11
218.611
 21
-35.1713
  0
LINE
  8
0
 10
218.611
 20
-35.1713
 11
219.043
 21
-34.9403
  0
LINE
  8
0
 10
219.043
 20
-34.9403
 11
219.512
 21
-34.798
  0
LINE
  8
0
 10
219.512
 20
-34.798
 11
220
 21
-34.75
  0
LINE
  8
0
 10
220
 20
-34.75
 11
220.488
 21
-34.798
  0
LINE
  8
0
 10
220.488
 20
-34.798
 11
220.957
 21
-34.9403
  0
LINE
  8
0
 10
220.957
 20
-34.9403
 11
221.389
 21
-35.1713
  0
LINE
  8
0
 10
221.389
 20
-35.1713
 11
221.768
 21
-35.4822
  0
LINE
  8
0
 10
221.768
 20
-35.4822
 11
222.079
 21
-35.8611
  0
LINE
  8
0
 10
222.079
 20
-35.8611
 11
222.31
 21
-36.2933
  0
LINE
  8
0
 10
222.31
 20
-36.2933
 11
222.452
 21
-36.7623
  0
LINE
  8
0
 10
222.452
 20
-36.7623
 11
222.5
 21
-37.25
  0
LINE
  8
0
 10
222.5
 20
-37.25
 11
222.452
 21
-37.7377
  0
LINE
  8
0
 10
222.452
 20
-37.7377
 11
222.31
 21
-38.2067
  0
LINE
  8
0
 10
222.31
 20
-38.2067
 11
222.079
 21
-38.6389
  0
LINE
  8
0
 10
222.079
 20
-38.6389
 11
221.768
 21
-39.0178
  0
LINE
  8
0
 10
221.768
 20
-39.0178
 11
221.389
 21
-39.3287
  0
LINE
  8
0
 10
221.389
 20
-39.3287
 11
220.957
 21
-39.5597
  0
LINE
  8
0
 10
220.957
 20
-39.5597
 11
220.488
 21
-39.702
  0
LINE
  8
0
 10
220.488
 20
-39.702
 11
220
 21
-39.75
  0
LINE
  8
0
 10
220
 20
-39.75
 11
219.512
 21
-39.702
  0
LINE
  8
0
 10
-115.249
 20
-47.2438
 11
-115.745
 21
-47.1942
  0
LINE
  8
0
 10
-115.745
 20
-47.1942
 11
-116.234
 21
-47.0954
  0
LINE
  8
0
 10
-116.234
 20
-47.0954
 11
-116.71
 21
-46.9485
  0
LINE
  8
0
 10
-116.71
 20
-46.9485
 11
-117.169
 21
-46.7548
  0
LINE
  8
0
 10
-117.169
 20
-46.7548
 11
-117.607
 21
-46.5164
  0
LINE
  8
0
 10
-117.607
 20
-46.5164
 11
-118.019
 21
-46.2357
  0
LINE
  8
0
 10
-118.019
 20
-46.2357
 11
-118.401
 21
-45.9153
  0
LINE
  8
0
 10
-118.401
 20
-45.9153
 11
-118.749
 21
-45.5584
  0
LINE
  8
0
 10
-118.749
 20
-45.5584
 11
-119.06
 21
-45.1687
  0
LINE
  8
0
 10
-119.06
 20
-45.1687
 11
-119.33
 21
-44.75
  0
LINE
  8
0
 10
-119.33
 20
-44.75
 11
-119.558
 21
-44.3064
  0
LINE
  8
0
 10
-119.558
 20
-44.3064
 11
-119.74
 21
-43.8424
  0
LINE
  8
0
 10
-119.74
 20
-43.8424
 11
-119.875
 21
-43.3626
  0
LINE
  8
0
 10
-119.875
 20
-43.3626
 11
-119.961
 21
-42.8717
  0
LINE
  8
0
 10
-119.961
 20
-42.8717
 11
-119.998
 21
-42.3746
  0
LINE
  8
0
 10
-119.998
 20
-42.3746
 11
-119.986
 21
-41.8763
  0
LINE
  8
0
 10
-119.986
 20
-41.8763
 11
-119.924
 21
-41.3818
  0
LINE
  8
0
 10
-119.924
 20
-41.3818
 11
-119.813
 21
-40.8958
  0
LINE
  8
0
 10
-119.813
 20
-40.8958
 11
-119.654
 21
-40.4233
  0
LINE
  8
0
 10
-119.654
 20
-40.4233
 11
-119.449
 21
-39.9689
  0
LINE
  8
0
 10
-119.449
 20
-39.9689
 11
-119.2
 21
-39.5373
  0
LINE
  8
0
 10
-119.2
 20
-39.5373
 11
-118.909
 21
-39.1326
  0
LINE
  8
0
 10
-118.909
 20
-39.1326
 11
-118.579
 21
-38.7588
  0
LINE
  8
0
 10
-118.579
 20
-38.7588
 11
-118.214
 21
-38.4198
  0
LINE
  8
0
 10
-118.214
 20
-38.4198
 11
-117.817
 21
-38.1188
  0
LINE
  8
0
 10
-117.817
 20
-38.1188
 11
-117.391
 21
-37.8589
  0
LINE
  8
0
 10
-117.391
 20
-37.8589
 11
-116.942
 21
-37.6426
  0
LINE
  8
0
 10
-116.942
 20
-37.6426
 11
-116.474
 21
-37.4721
  0
LINE
  8
0
 10
-116.474
 20
-37.4721
 11
-115.991
 21
-37.3491
  0
LINE
  8
0
 10
-115.991
 20
-37.3491
 11
-115.498
 21
-37.2748
  0
LINE
  8
0
 10
-115.498
 20
-37.2748
 11
-115
 21
-37.25
  0
LINE
  8
0
 10
-115
 20
-37.25
 11
-114.502
 21
-37.2748
  0
LINE
  8
0
 10
-114.502
 20
-37.2748
 11
-114.009
 21
-37.3491
  0
LINE
  8
0
 10
-114.009
 20
-37.3491
 11
-113.526
 21
-37.4721
  0
LINE
  8
0
 10
-113.526
 20
-37.4721
 11
-113.058
 21
-37.6426
  0
LINE
  8
0
 10
-113.058
 20
-37.6426
 11
-112.609
 21
-37.8589
  0
LINE
  8
0
 10
-112.609
 20
-37.8589
 11
-112.183
 21
-38.1188
  0
LINE
  8
0
 10
-112.183
 20
-38.1188
 11
-111.786
 21
-38.4198
  0
LINE
  8
0
 10
-111.786
 20
-38.4198
 11
-111.421
 21
-38.7588
  0
LINE
  8
0
 10
-111.421
 20
-38.7588
 11
-111.091
 21
-39.1326
  0
LINE
  8
0
 10
-111.091
 20
-39.1326
 11
-110.8
 21
-39.5373
  0
LINE
  8
0
 10
-110.8
 20
-39.5373
 11
-110.551
 21
-39.9689
  0
LINE
  8
0
 10
-110.551
 20
-39.9689
 11
-110.346
 21
-40.4233
  0
LINE
  8
0
 10
-110.346
 20
-40.4233
 11
-110.187
 21
-40.8958
  0
LINE
  8
0
 10
-110.187
 20
-40.8958
 11
-110.076
 21
-41.3818
  0
LINE
  8
0
 10
-110.076
 20
-41.3818
 11
-110.014
 21
-41.8763
  0
LINE
  8
0
 10
-110.014
 20
-41.8763
 11
-110.002
 21
-42.3746
  0
LINE
  8
0
 10
-110.002
 20
-42.3746
 11
-110.039
 21
-42.8717
  0
LINE
  8
0
 10
-110.039
 20
-42.8717
 11
-110.125
 21
-43.3626
  0
LINE
  8
0
 10
-110.125
 20
-43.3626
 11
-110.26
 21
-43.8424
  0
LINE
  8
0
 10
-110.26
 20
-43.8424
 11
-110.442
 21
-44.3064
  0
LINE
  8
0
 10
-110.442
 20
-44.3064
 11
-110.67
 21
-44.75
  0
LINE
  8
0
 10
-110.67
 20
-44.75
 11
-110.94
 21
-45.1687
  0
LINE
  8
0
 10
-110.94
 20
-45.1687
 11
-111.251
 21
-45.5584
  0
LINE
  8
0
 10
-111.251
 20
-45.5584
 11
-111.599
 21
-45.9153
  0
LINE
  8
0
 10
-111.599
 20
-45.9153
 11
-111.981
 21
-46.2357
  0
LINE
  8
0
 10
-111.981
 20
-46.2357
 11
-112.393
 21
-46.5164
  0
LINE
  8
0
 10
-112.393
 20
-46.5164
 11
-112.831
 21
-46.7548
  0
LINE
  8
0
 10
-112.831
 20
-46.7548
 11
-113.29
 21
-46.9485
  0
LINE
  8
0
 10
-113.29
 20
-46.9485
 11
-113.766
 21
-47.0954
  0
LINE
  8
0
 10
-113.766
 20
-47.0954
 11
-114.255
 21
-47.1942
  0
LINE
  8
0
 10
-114.255
 20
-47.1942
 11
-114.751
 21
-47.2438
  0
LINE
  8
0
 10
-114.751
 20
-47.2438
 11
-115.249
 21
-47.2438
  0
LINE
  8
0
 10
114.751
 20
-47.2438
 11
114.255
 21
-47.1942
  0
LINE
  8
0
 10
114.255
 20
-47.1942
 11
113.766
 21
-47.0954
  0
LINE
  8
0
 10
113.766
 20
-47.0954
 11
113.29
 21
-46.9485
  0
LINE
  8
0
 10
113.29
 20
-46.9485
 11
112.831
 21
-46.7548
  0
LINE
  8
0
 10
112.831
 20
-46.7548
 11
112.393
 21
-46.5164
  0
LINE
  8
0
 10
112.393
 20
-46.5164
 11
111.981
 21
-46.2357
  0
LINE
  8
0
 10
111.981
 20
-46.2357
 11
111.599
 21
-45.9153
  0
LINE
  8
0
 10
111.599
 20
-45.9153
 11
111.251
 21
-45.5584
  0
LINE
  8
0
 10
111.251
 20
-45.5584
 11
110.94
 21
-45.1687
  0
LINE
  8
0
 10
110.94
 20
-45.1687
 11
110.67
 21
-44.75
  0
LINE
  8
0
 10
110.67
 20
-44.75
 11
110.442
 21
-44.3064
  0
LINE
  8
0
 10
110.442
 20
-44.3064
 11
110.26
 21
-43.8424
  0
LINE
  8
0
 10
110.26
 20
-43.8424
 11
110.125
 21
-43.3626
  0
LINE
  8
0
 10
110.125
 20
-43.3626
 11
110.039
 21
-42.8717
  0
LINE
  8
0
 10
110.039
 20
-42.8717
 11
110.002
 21
-42.3746
  0
LINE
  8
0
 10
110.002
 20
-42.3746
 11
110.014
 21
-41.8763
  0
LINE
  8
0
 10
110.014
 20
-41.8763
 11
110.076
 21
-41.3818
  0
LINE
  8
0
 10
110.076
 20
-41.3818
 11
110.187
 21
-40.8958
  0
LINE
  8
0
 10
110.187
 20
-40.8958
 11
110.346
 21
-40.4233
  0
LINE
  8
0
 10
110.346
 20
-40.4233
 11
110.551
 21
-39.9689
  0
LINE
  8
0
 10
110.551
 20
-39.9689
 11
110.8
 21
-39.5373
  0
LINE
  8
0
 10
110.8
 20
-39.5373
 11
111.091
 21
-39.1326
  0
LINE
  8
0
 10
111.091
 20
-39.1326
 11
111.421
 21
-38.7588
  0
LINE
  8
0
 10
111.421
 20
-38.7588
 11
111.786
 21
-38.4198
  0
LINE
  8
0
 10
111.786
 20
-38.4198
 11
112.183
 21
-38.1188
  0
LINE
  8
0
 10
112.183
 20
-38.1188
 11
112.609
 21
-37.8589
  0
LINE
  8
0
 10
112.609
 20
-37.8589
 11
113.058
 21
-37.6426
  0
LINE
  8
0
 10
113.058
 20
-37.6426
 11
113.526
 21
-37.4721
  0
LINE
  8
0
 10
113.526
 20
-37.4721
 11
114.009
 21
-37.3491
  0
LINE
  8
0
 10
114.009
 20
-37.3491
 11
114.502
 21
-37.2748
  0
LINE
  8
0
 10
114.502
 20
-37.2748
 11
115
 21
-37.25
  0
LINE
  8
0
 10
115
 20
-37.25
 11
115.498
 21
-37.2748
  0
LINE
  8
0
 10
115.498
 20
-37.2748
 11
115.991
 21
-37.3491
  0
LINE
  8
0
 10
115.991
 20
-37.3491
 11
116.474
 21
-37.4721
  0
LINE
  8
0
 10
116.474
 20
-37.4721
 11
116.942
 21
-37.6426
  0
LINE
  8
0
 10
116.942
 20
-37.6426
 11
117.391
 21
-37.8589
  0
LINE
  8
0
 10
117.391
 20
-37.8589
 11
117.817
 21
-38.1188
  0
LINE
  8
0
 10
117.817
 20
-38.1188
 11
118.214
 21
-38.4198
  0
LINE
  8
0
 10
118.214
 20
-38.4198
 11
118.579
 21
-38.7588
  0
LINE
  8
0
 10
118.579
 20
-38.7588
 11
118.909
 21
-39.1326
  0
LINE
  8
0
 10
118.909
 20
-39.1326
 11
119.2
 21
-39.5373
  0
LINE
  8
0
 10
119.2
 20
-39.5373
 11
119.449
 21
-39.9689
  0
LINE
  8
0
 10
119.449
 20
-39.9689
 11
119.654
 21
-40.4233
  0
LINE
  8
0
 10
119.654
 20
-40.4233
 11
119.813
 21
-40.8958
  0
LINE
  8
0
 10
119.813
 20
-40.8958
 11
119.924
 21
-41.3818
  0
LINE
  8
0
 10
119.924
 20
-41.3818
 11
119.986
 21
-41.8763
  0
LINE
  8
0
 10
119.986
 20
-41.8763
 11
119.998
 21
-42.3746
  0
LINE
  8
0
 10
119.998
 20
-42.3746
 11
119.961
 21
-42.8717
  0
LINE
  8
0
 10
119.961
 20
-42.8717
 11
119.875
 21
-43.3626
  0
LINE
  8
0
 10
119.875
 20
-43.3626
 11
119.74
 21
-43.8424
  0
LINE
  8
0
 10
119.74
 20
-43.8424
 11
119.558
 21
-44.3064
  0
LINE
  8
0
 10
119.558
 20
-44.3064
 11
119.33
 21
-44.75
  0
LINE
  8
0
 10
119.33
 20
-44.75
 11
119.06
 21
-45.1687
  0
LINE
  8
0
 10
119.06
 20
-45.1687
 11
118.749
 21
-45.5584
  0
LINE
  8
0
 10
118.749
 20
-45.5584
 11
118.401
 21
-45.9153
  0
LINE
  8
0
 10
118.401
 20
-45.9153
 11
118.019
 21
-46.2357
  0
LINE
  8
0
 10
118.019
 20
-46.2357
 11
117.607
 21
-46.5164
  0
LINE
  8
0
 10
117.607
 20
-46.5164
 11
117.169
 21
-46.7548
  0
LINE
  8
0
 10
117.169
 20
-46.7548
 11
116.71
 21
-46.9485
  0
LINE
  8
0
 10
116.71
 20
-46.9485
 11
116.234
 21
-47.0954
  0
LINE
  8
0
 10
116.234
 20
-47.0954
 11
115.745
 21
-47.1942
  0
LINE
  8
0
 10
115.745
 20
-47.1942
 11
115.249
 21
-47.2438
  0
LINE
  8
0
 10
115.249
 20
-47.2438
 11
114.751
 21
-47.2438
  0
LINE
  8
0
 10
-127.5
 20
-44.75
 11
-127.5
 21
-39.75
  0
LINE
  8
0
 10
-127.5
 20
-39.75
 11
-124.5
 21
-39.75
  0
LINE
  8
0
 10
-124.5
 20
-39.75
 11
-124.5
 21
-44.75
  0
LINE
  8
0
 10
-124.5
 20
-44.75
 11
-127.5
 21
-44.75
  0
LINE
  8
0
 10
-105.5
 20
-44.75
 11
-105.5
 21
-39.75
  0
LINE
  8
0
 10
-105.5
 20
-39.75
 11
-102.5
 21
-39.75
  0
LINE
  8
0
 10
-102.5
 20
-39.75
 11
-102.5
 21
-44.75
  0
LINE
  8
0
 10
-102.5
 20
-44.75
 11
-105.5
 21
-44.75
  0
LINE
  8
0
 10
102.5
 20
-44.75
 11
102.5
 21
-39.75
  0
LINE
  8
0
 10
102.5
 20
-39.75
 11
105.5
 21
-39.75
  0
LINE
  8
0
 10
105.5
 20
-39.75
 11
105.5
 21
-44.75
  0
LINE
  8
0
 10
105.5
 20
-44.75
 11
102.5
 21
-44.75
  0
LINE
  8
0
 10
124.5
 20
-44.75
 11
124.5
 21
-39.75
  0
LINE
  8
0
 10
124.5
 20
-39.75
 11
127.5
 21
-39.75
  0
LINE
  8
0
 10
127.5
 20
-39.75
 11
127.5
 21
-44.75
  0
LINE
  8
0
 10
127.5
 20
-44.75
 11
124.5
 21
-44.75
  0
ENDSEC
  0
SECTION
  2
OBJECTS
  0
DICTIONARY
  0
ENDSEC
  0
EOF
