  0
SECTION
  2
BLOCKS
  0
ENDSEC
  0
SECTION
  2
ENTITIES
  0
LINE
  8
0
 10
-160.564
 20
-49.8165
 11
-160.692
 21
-49.336
  0
LINE
  8
0
 10
-160.692
 20
-49.336
 11
-160.798
 21
-48.8503
  0
LINE
  8
0
 10
-160.798
 20
-48.8503
 11
-160.882
 21
-48.3602
  0
LINE
  8
0
 10
-160.882
 20
-48.3602
 11
-160.943
 21
-47.8668
  0
LINE
  8
0
 10
-160.943
 20
-47.8668
 11
-160.982
 21
-47.3712
  0
LINE
  8
0
 10
-160.982
 20
-47.3712
 11
-160.999
 21
-46.8743
  0
LINE
  8
0
 10
-160.999
 20
-46.8743
 11
-160.994
 21
-46.3771
  0
LINE
  8
0
 10
-160.994
 20
-46.3771
 11
-160.966
 21
-45.8808
  0
LINE
  8
0
 10
-160.966
 20
-45.8808
 11
-160.915
 21
-45.3861
  0
LINE
  8
0
 10
-160.915
 20
-45.3861
 11
-160.842
 21
-44.8943
  0
LINE
  8
0
 10
-160.842
 20
-44.8943
 11
-160.747
 21
-44.4062
  0
LINE
  8
0
 10
-160.747
 20
-44.4062
 11
-160.631
 21
-43.923
  0
LINE
  8
0
 10
-160.631
 20
-43.923
 11
-160.492
 21
-43.4455
  0
LINE
  8
0
 10
-160.492
 20
-43.4455
 11
-160.332
 21
-42.9748
  0
LINE
  8
0
 10
-160.332
 20
-42.9748
 11
-160.151
 21
-42.5118
  0
LINE
  8
0
 10
-160.151
 20
-42.5118
 11
-159.949
 21
-42.0574
  0
LINE
  8
0
 10
-159.949
 20
-42.0574
 11
-159.727
 21
-41.6127
  0
LINE
  8
0
 10
-159.727
 20
-41.6127
 11
-159.485
 21
-41.1784
  0
LINE
  8
0
 10
-159.485
 20
-41.1784
 11
-159.223
 21
-40.7555
  0
LINE
  8
0
 10
-159.223
 20
-40.7555
 11
-158.943
 21
-40.3448
  0
LINE
  8
0
 10
-158.943
 20
-40.3448
 11
-158.644
 21
-39.9473
  0
LINE
  8
0
 10
-158.644
 20
-39.9473
 11
-158.328
 21
-39.5636
  0
LINE
  8
0
 10
-158.328
 20
-39.5636
 11
-157.995
 21
-39.1946
  0
LINE
  8
0
 10
-157.995
 20
-39.1946
 11
-157.645
 21
-38.8411
  0
LINE
  8
0
 10
-157.645
 20
-38.8411
 11
-157.28
 21
-38.5037
  0
LINE
  8
0
 10
-157.28
 20
-38.5037
 11
-156.9
 21
-38.1832
  0
LINE
  8
0
 10
-156.9
 20
-38.1832
 11
-156.506
 21
-37.8801
  0
LINE
  8
0
 10
-156.506
 20
-37.8801
 11
-156.098
 21
-37.5952
  0
LINE
  8
0
 10
-156.098
 20
-37.5952
 11
-155.678
 21
-37.329
  0
LINE
  8
0
 10
-155.678
 20
-37.329
 11
-155.247
 21
-37.082
  0
LINE
  8
0
 10
-155.247
 20
-37.082
 11
-154.805
 21
-36.8548
  0
LINE
  8
0
 10
-154.805
 20
-36.8548
 11
-154.353
 21
-36.6478
  0
LINE
  8
0
 10
-154.353
 20
-36.6478
 11
-153.892
 21
-36.4614
  0
LINE
  8
0
 10
-153.892
 20
-36.4614
 11
-153.423
 21
-36.2961
  0
LINE
  8
0
 10
-153.423
 20
-36.2961
 11
-152.947
 21
-36.1521
  0
LINE
  8
0
 10
-152.947
 20
-36.1521
 11
-152.465
 21
-36.0298
  0
LINE
  8
0
 10
-152.465
 20
-36.0298
 11
-151.978
 21
-35.9293
  0
LINE
  8
0
 10
-151.978
 20
-35.9293
 11
-151.487
 21
-35.851
  0
LINE
  8
0
 10
-151.487
 20
-35.851
 11
-150.993
 21
-35.7949
  0
LINE
  8
0
 10
-150.993
 20
-35.7949
 11
-150.497
 21
-35.7612
  0
LINE
  8
0
 10
-150.497
 20
-35.7612
 11
-150
 21
-35.75
  0
LINE
  8
0
 10
-150
 20
-35.75
 11
-149.503
 21
-35.7612
  0
LINE
  8
0
 10
-149.503
 20
-35.7612
 11
-149.007
 21
-35.7949
  0
LINE
  8
0
 10
-149.007
 20
-35.7949
 11
-148.513
 21
-35.851
  0
LINE
  8
0
 10
-148.513
 20
-35.851
 11
-148.022
 21
-35.9293
  0
LINE
  8
0
 10
-148.022
 20
-35.9293
 11
-147.535
 21
-36.0298
  0
LINE
  8
0
 10
-147.535
 20
-36.0298
 11
-147.053
 21
-36.1521
  0
LINE
  8
0
 10
-147.053
 20
-36.1521
 11
-146.577
 21
-36.2961
  0
LINE
  8
0
 10
-146.577
 20
-36.2961
 11
-146.108
 21
-36.4614
  0
LINE
  8
0
 10
-146.108
 20
-36.4614
 11
-145.647
 21
-36.6478
  0
LINE
  8
0
 10
-145.647
 20
-36.6478
 11
-145.195
 21
-36.8548
  0
LINE
  8
0
 10
-145.195
 20
-36.8548
 11
-144.753
 21
-37.082
  0
LINE
  8
0
 10
-144.753
 20
-37.082
 11
-144.322
 21
-37.329
  0
LINE
  8
0
 10
-144.322
 20
-37.329
 11
-143.902
 21
-37.5952
  0
LINE
  8
0
 10
-143.902
 20
-37.5952
 11
-143.494
 21
-37.8801
  0
LINE
  8
0
 10
-143.494
 20
-37.8801
 11
-143.1
 21
-38.1832
  0
LINE
  8
0
 10
-143.1
 20
-38.1832
 11
-142.72
 21
-38.5037
  0
LINE
  8
0
 10
-142.72
 20
-38.5037
 11
-142.355
 21
-38.8411
  0
LINE
  8
0
 10
-142.355
 20
-38.8411
 11
-142.005
 21
-39.1946
  0
LINE
  8
0
 10
-142.005
 20
-39.1946
 11
-141.672
 21
-39.5636
  0
LINE
  8
0
 10
-141.672
 20
-39.5636
 11
-141.356
 21
-39.9473
  0
LINE
  8
0
 10
-141.356
 20
-39.9473
 11
-141.057
 21
-40.3448
  0
LINE
  8
0
 10
-141.057
 20
-40.3448
 11
-140.777
 21
-40.7555
  0
LINE
  8
0
 10
-140.777
 20
-40.7555
 11
-140.515
 21
-41.1784
  0
LINE
  8
0
 10
-140.515
 20
-41.1784
 11
-140.273
 21
-41.6127
  0
LINE
  8
0
 10
-140.273
 20
-41.6127
 11
-140.051
 21
-42.0574
  0
LINE
  8
0
 10
-140.051
 20
-42.0574
 11
-139.849
 21
-42.5118
  0
LINE
  8
0
 10
-139.849
 20
-42.5118
 11
-139.668
 21
-42.9748
  0
LINE
  8
0
 10
-139.668
 20
-42.9748
 11
-139.508
 21
-43.4455
  0
LINE
  8
0
 10
-139.508
 20
-43.4455
 11
-139.369
 21
-43.923
  0
LINE
  8
0
 10
-139.369
 20
-43.923
 11
-139.253
 21
-44.4062
  0
LINE
  8
0
 10
-139.253
 20
-44.4062
 11
-139.158
 21
-44.8943
  0
LINE
  8
0
 10
-139.158
 20
-44.8943
 11
-139.085
 21
-45.3861
  0
LINE
  8
0
 10
-139.085
 20
-45.3861
 11
-139.034
 21
-45.8808
  0
LINE
  8
0
 10
-139.034
 20
-45.8808
 11
-139.006
 21
-46.3771
  0
LINE
  8
0
 10
-139.006
 20
-46.3771
 11
-139.001
 21
-46.8743
  0
LINE
  8
0
 10
-139.001
 20
-46.8743
 11
-139.018
 21
-47.3712
  0
LINE
  8
0
 10
-139.018
 20
-47.3712
 11
-139.057
 21
-47.8668
  0
LINE
  8
0
 10
-139.057
 20
-47.8668
 11
-139.118
 21
-48.3602
  0
LINE
  8
0
 10
-139.118
 20
-48.3602
 11
-139.202
 21
-48.8503
  0
LINE
  8
0
 10
-139.202
 20
-48.8503
 11
-139.308
 21
-49.336
  0
LINE
  8
0
 10
-139.308
 20
-49.336
 11
-139.436
 21
-49.8165
  0
LINE
  8
0
 10
-139.436
 20
-49.8165
 11
-139.573
 21
-50.25
  0
LINE
  8
0
 10
-139.573
 20
-50.25
 11
-118.562
 21
-50.25
  0
LINE
  8
0
 10
-118.562
 20
-50.25
 11
-118.749
 21
-50.0584
  0
LINE
  8
0
 10
-118.749
 20
-50.0584
 11
-119.06
 21
-49.6687
  0
LINE
  8
0
 10
-119.06
 20
-49.6687
 11
-119.33
 21
-49.25
  0
LINE
  8
0
 10
-119.33
 20
-49.25
 11
-119.558
 21
-48.8064
  0
LINE
  8
0
 10
-119.558
 20
-48.8064
 11
-119.74
 21
-48.3424
  0
LINE
  8
0
 10
-119.74
 20
-48.3424
 11
-119.875
 21
-47.8626
  0
LINE
  8
0
 10
-119.875
 20
-47.8626
 11
-119.961
 21
-47.3717
  0
LINE
  8
0
 10
-119.961
 20
-47.3717
 11
-119.998
 21
-46.8746
  0
LINE
  8
0
 10
-119.998
 20
-46.8746
 11
-119.986
 21
-46.3763
  0
LINE
  8
0
 10
-119.986
 20
-46.3763
 11
-119.924
 21
-45.8818
  0
LINE
  8
0
 10
-119.924
 20
-45.8818
 11
-119.813
 21
-45.3958
  0
LINE
  8
0
 10
-119.813
 20
-45.3958
 11
-119.654
 21
-44.9233
  0
LINE
  8
0
 10
-119.654
 20
-44.9233
 11
-119.449
 21
-44.4689
  0
LINE
  8
0
 10
-119.449
 20
-44.4689
 11
-119.2
 21
-44.0373
  0
LINE
  8
0
 10
-119.2
 20
-44.0373
 11
-118.909
 21
-43.6326
  0
LINE
  8
0
 10
-118.909
 20
-43.6326
 11
-118.579
 21
-43.2588
  0
LINE
  8
0
 10
-118.579
 20
-43.2588
 11
-118.214
 21
-42.9198
  0
LINE
  8
0
 10
-118.214
 20
-42.9198
 11
-117.817
 21
-42.6188
  0
LINE
  8
0
 10
-117.817
 20
-42.6188
 11
-117.391
 21
-42.3589
  0
LINE
  8
0
 10
-117.391
 20
-42.3589
 11
-116.942
 21
-42.1426
  0
LINE
  8
0
 10
-116.942
 20
-42.1426
 11
-116.474
 21
-41.9721
  0
LINE
  8
0
 10
-116.474
 20
-41.9721
 11
-115.991
 21
-41.8491
  0
LINE
  8
0
 10
-115.991
 20
-41.8491
 11
-115.498
 21
-41.7748
  0
LINE
  8
0
 10
-115.498
 20
-41.7748
 11
-115
 21
-41.75
  0
LINE
  8
0
 10
-115
 20
-41.75
 11
-114.502
 21
-41.7748
  0
LINE
  8
0
 10
-114.502
 20
-41.7748
 11
-114.009
 21
-41.8491
  0
LINE
  8
0
 10
-114.009
 20
-41.8491
 11
-113.526
 21
-41.9721
  0
LINE
  8
0
 10
-113.526
 20
-41.9721
 11
-113.058
 21
-42.1426
  0
LINE
  8
0
 10
-113.058
 20
-42.1426
 11
-112.609
 21
-42.3589
  0
LINE
  8
0
 10
-112.609
 20
-42.3589
 11
-112.183
 21
-42.6188
  0
LINE
  8
0
 10
-112.183
 20
-42.6188
 11
-111.786
 21
-42.9198
  0
LINE
  8
0
 10
-111.786
 20
-42.9198
 11
-111.421
 21
-43.2588
  0
LINE
  8
0
 10
-111.421
 20
-43.2588
 11
-111.091
 21
-43.6326
  0
LINE
  8
0
 10
-111.091
 20
-43.6326
 11
-110.8
 21
-44.0373
  0
LINE
  8
0
 10
-110.8
 20
-44.0373
 11
-110.551
 21
-44.4689
  0
LINE
  8
0
 10
-110.551
 20
-44.4689
 11
-110.346
 21
-44.9233
  0
LINE
  8
0
 10
-110.346
 20
-44.9233
 11
-110.187
 21
-45.3958
  0
LINE
  8
0
 10
-110.187
 20
-45.3958
 11
-110.076
 21
-45.8818
  0
LINE
  8
0
 10
-110.076
 20
-45.8818
 11
-110.014
 21
-46.3763
  0
LINE
  8
0
 10
-110.014
 20
-46.3763
 11
-110.002
 21
-46.8746
  0
LINE
  8
0
 10
-110.002
 20
-46.8746
 11
-110.039
 21
-47.3717
  0
LINE
  8
0
 10
-110.039
 20
-47.3717
 11
-110.125
 21
-47.8626
  0
LINE
  8
0
 10
-110.125
 20
-47.8626
 11
-110.26
 21
-48.3424
  0
LINE
  8
0
 10
-110.26
 20
-48.3424
 11
-110.442
 21
-48.8064
  0
LINE
  8
0
 10
-110.442
 20
-48.8064
 11
-110.67
 21
-49.25
  0
LINE
  8
0
 10
-110.67
 20
-49.25
 11
-110.94
 21
-49.6687
  0
LINE
  8
0
 10
-110.94
 20
-49.6687
 11
-111.251
 21
-50.0584
  0
LINE
  8
0
 10
-111.251
 20
-50.0584
 11
-111.438
 21
-50.25
  0
LINE
  8
0
 10
-111.438
 20
-50.25
 11
-10.4274
 21
-50.25
  0
LINE
  8
0
 10
-10.4274
 20
-50.25
 11
-10.5639
 21
-49.8165
  0
LINE
  8
0
 10
-10.5639
 20
-49.8165
 11
-10.6917
 21
-49.336
  0
LINE
  8
0
 10
-10.6917
 20
-49.336
 11
-10.7976
 21
-48.8503
  0
LINE
  8
0
 10
-10.7976
 20
-48.8503
 11
-10.8815
 21
-48.3602
  0
LINE
  8
0
 10
-10.8815
 20
-48.3602
 11
-10.9431
 21
-47.8668
  0
LINE
  8
0
 10
-10.9431
 20
-47.8668
 11
-10.9824
 21
-47.3712
  0
LINE
  8
0
 10
-10.9824
 20
-47.3712
 11
-10.9993
 21
-46.8743
  0
LINE
  8
0
 10
-10.9993
 20
-46.8743
 11
-10.9937
 21
-46.3771
  0
LINE
  8
0
 10
-10.9937
 20
-46.3771
 11
-10.9656
 21
-45.8808
  0
LINE
  8
0
 10
-10.9656
 20
-45.8808
 11
-10.9151
 21
-45.3861
  0
LINE
  8
0
 10
-10.9151
 20
-45.3861
 11
-10.8423
 21
-44.8943
  0
LINE
  8
0
 10
-10.8423
 20
-44.8943
 11
-10.7474
 21
-44.4062
  0
LINE
  8
0
 10
-10.7474
 20
-44.4062
 11
-10.6305
 21
-43.923
  0
LINE
  8
0
 10
-10.6305
 20
-43.923
 11
-10.4919
 21
-43.4455
  0
LINE
  8
0
 10
-10.4919
 20
-43.4455
 11
-10.3319
 21
-42.9748
  0
LINE
  8
0
 10
-10.3319
 20
-42.9748
 11
-10.1507
 21
-42.5118
  0
LINE
  8
0
 10
-10.1507
 20
-42.5118
 11
-9.94885
 21
-42.0574
  0
LINE
  8
0
 10
-9.94885
 20
-42.0574
 11
-9.72664
 21
-41.6127
  0
LINE
  8
0
 10
-9.72664
 20
-41.6127
 11
-9.48457
 21
-41.1784
  0
LINE
  8
0
 10
-9.48457
 20
-41.1784
 11
-9.22311
 21
-40.7555
  0
LINE
  8
0
 10
-9.22311
 20
-40.7555
 11
-8.94281
 21
-40.3448
  0
LINE
  8
0
 10
-8.94281
 20
-40.3448
 11
-8.64424
 21
-39.9473
  0
LINE
  8
0
 10
-8.64424
 20
-39.9473
 11
-8.32802
 21
-39.5636
  0
LINE
  8
0
 10
-8.32802
 20
-39.5636
 11
-7.99478
 21
-39.1946
  0
LINE
  8
0
 10
-7.99478
 20
-39.1946
 11
-7.6452
 21
-38.8411
  0
LINE
  8
0
 10
-7.6452
 20
-38.8411
 11
-7.28001
 21
-38.5037
  0
LINE
  8
0
 10
-7.28001
 20
-38.5037
 11
-6.89995
 21
-38.1832
  0
LINE
  8
0
 10
-6.89995
 20
-38.1832
 11
-6.5058
 21
-37.8801
  0
LINE
  8
0
 10
-6.5058
 20
-37.8801
 11
-6.09834
 21
-37.5952
  0
LINE
  8
0
 10
-6.09834
 20
-37.5952
 11
-5.67844
 21
-37.329
  0
LINE
  8
0
 10
-5.67844
 20
-37.329
 11
-5.24692
 21
-37.082
  0
LINE
  8
0
 10
-5.24692
 20
-37.082
 11
-4.80469
 21
-36.8548
  0
LINE
  8
0
 10
-4.80469
 20
-36.8548
 11
-4.35265
 21
-36.6478
  0
LINE
  8
0
 10
-4.35265
 20
-36.6478
 11
-3.89171
 21
-36.4614
  0
LINE
  8
0
 10
-3.89171
 20
-36.4614
 11
-3.42282
 21
-36.2961
  0
LINE
  8
0
 10
-3.42282
 20
-36.2961
 11
-2.94693
 21
-36.1521
  0
LINE
  8
0
 10
-2.94693
 20
-36.1521
 11
-2.46503
 21
-36.0298
  0
LINE
  8
0
 10
-2.46503
 20
-36.0298
 11
-1.97809
 21
-35.9293
  0
LINE
  8
0
 10
-1.97809
 20
-35.9293
 11
-1.48712
 21
-35.851
  0
LINE
  8
0
 10
-1.48712
 20
-35.851
 11
-0.993103
 21
-35.7949
  0
LINE
  8
0
 10
-0.993103
 20
-35.7949
 11
-0.497055
 21
-35.7612
  0
LINE
  8
0
 10
-0.497055
 20
-35.7612
 11
0
 21
-35.75
  0
LINE
  8
0
 10
0
 20
-35.75
 11
0.497055
 21
-35.7612
  0
LINE
  8
0
 10
0.497055
 20
-35.7612
 11
0.993103
 21
-35.7949
  0
LINE
  8
0
 10
0.993103
 20
-35.7949
 11
1.48712
 21
-35.851
  0
LINE
  8
0
 10
1.48712
 20
-35.851
 11
1.97809
 21
-35.9293
  0
LINE
  8
0
 10
1.97809
 20
-35.9293
 11
2.46503
 21
-36.0298
  0
LINE
  8
0
 10
2.46503
 20
-36.0298
 11
2.94693
 21
-36.1521
  0
LINE
  8
0
 10
2.94693
 20
-36.1521
 11
3.42282
 21
-36.2961
  0
LINE
  8
0
 10
3.42282
 20
-36.2961
 11
3.89171
 21
-36.4614
  0
LINE
  8
0
 10
3.89171
 20
-36.4614
 11
4.35265
 21
-36.6478
  0
LINE
  8
0
 10
4.35265
 20
-36.6478
 11
4.80469
 21
-36.8548
  0
LINE
  8
0
 10
4.80469
 20
-36.8548
 11
5.24692
 21
-37.082
  0
LINE
  8
0
 10
5.24692
 20
-37.082
 11
5.67844
 21
-37.329
  0
LINE
  8
0
 10
5.67844
 20
-37.329
 11
6.09834
 21
-37.5952
  0
LINE
  8
0
 10
6.09834
 20
-37.5952
 11
6.5058
 21
-37.8801
  0
LINE
  8
0
 10
6.5058
 20
-37.8801
 11
6.89995
 21
-38.1832
  0
LINE
  8
0
 10
6.89995
 20
-38.1832
 11
7.28001
 21
-38.5037
  0
LINE
  8
0
 10
7.28001
 20
-38.5037
 11
7.6452
 21
-38.8411
  0
LINE
  8
0
 10
7.6452
 20
-38.8411
 11
7.99478
 21
-39.1946
  0
LINE
  8
0
 10
7.99478
 20
-39.1946
 11
8.32802
 21
-39.5636
  0
LINE
  8
0
 10
8.32802
 20
-39.5636
 11
8.64424
 21
-39.9473
  0
LINE
  8
0
 10
8.64424
 20
-39.9473
 11
8.94281
 21
-40.3448
  0
LINE
  8
0
 10
8.94281
 20
-40.3448
 11
9.22311
 21
-40.7555
  0
LINE
  8
0
 10
9.22311
 20
-40.7555
 11
9.48457
 21
-41.1784
  0
LINE
  8
0
 10
9.48457
 20
-41.1784
 11
9.72664
 21
-41.6127
  0
LINE
  8
0
 10
9.72664
 20
-41.6127
 11
9.94885
 21
-42.0574
  0
LINE
  8
0
 10
9.94885
 20
-42.0574
 11
10.1507
 21
-42.5118
  0
LINE
  8
0
 10
10.1507
 20
-42.5118
 11
10.3319
 21
-42.9748
  0
LINE
  8
0
 10
10.3319
 20
-42.9748
 11
10.4919
 21
-43.4455
  0
LINE
  8
0
 10
10.4919
 20
-43.4455
 11
10.6305
 21
-43.923
  0
LINE
  8
0
 10
10.6305
 20
-43.923
 11
10.7474
 21
-44.4062
  0
LINE
  8
0
 10
10.7474
 20
-44.4062
 11
10.8423
 21
-44.8943
  0
LINE
  8
0
 10
10.8423
 20
-44.8943
 11
10.9151
 21
-45.3861
  0
LINE
  8
0
 10
10.9151
 20
-45.3861
 11
10.9656
 21
-45.8808
  0
LINE
  8
0
 10
10.9656
 20
-45.8808
 11
10.9937
 21
-46.3771
  0
LINE
  8
0
 10
10.9937
 20
-46.3771
 11
10.9993
 21
-46.8743
  0
LINE
  8
0
 10
10.9993
 20
-46.8743
 11
10.9824
 21
-47.3712
  0
LINE
  8
0
 10
10.9824
 20
-47.3712
 11
10.9431
 21
-47.8668
  0
LINE
  8
0
 10
10.9431
 20
-47.8668
 11
10.8815
 21
-48.3602
  0
LINE
  8
0
 10
10.8815
 20
-48.3602
 11
10.7976
 21
-48.8503
  0
LINE
  8
0
 10
10.7976
 20
-48.8503
 11
10.6917
 21
-49.336
  0
LINE
  8
0
 10
10.6917
 20
-49.336
 11
10.5639
 21
-49.8165
  0
LINE
  8
0
 10
10.5639
 20
-49.8165
 11
10.4274
 21
-50.25
  0
LINE
  8
0
 10
10.4274
 20
-50.25
 11
111.438
 21
-50.25
  0
LINE
  8
0
 10
111.438
 20
-50.25
 11
111.251
 21
-50.0584
  0
LINE
  8
0
 10
111.251
 20
-50.0584
 11
110.94
 21
-49.6687
  0
LINE
  8
0
 10
110.94
 20
-49.6687
 11
110.67
 21
-49.25
  0
LINE
  8
0
 10
110.67
 20
-49.25
 11
110.442
 21
-48.8064
  0
LINE
  8
0
 10
110.442
 20
-48.8064
 11
110.26
 21
-48.3424
  0
LINE
  8
0
 10
110.26
 20
-48.3424
 11
110.125
 21
-47.8626
  0
LINE
  8
0
 10
110.125
 20
-47.8626
 11
110.039
 21
-47.3717
  0
LINE
  8
0
 10
110.039
 20
-47.3717
 11
110.002
 21
-46.8746
  0
LINE
  8
0
 10
110.002
 20
-46.8746
 11
110.014
 21
-46.3763
  0
LINE
  8
0
 10
110.014
 20
-46.3763
 11
110.076
 21
-45.8818
  0
LINE
  8
0
 10
110.076
 20
-45.8818
 11
110.187
 21
-45.3958
  0
LINE
  8
0
 10
110.187
 20
-45.3958
 11
110.346
 21
-44.9233
  0
LINE
  8
0
 10
110.346
 20
-44.9233
 11
110.551
 21
-44.4689
  0
LINE
  8
0
 10
110.551
 20
-44.4689
 11
110.8
 21
-44.0373
  0
LINE
  8
0
 10
110.8
 20
-44.0373
 11
111.091
 21
-43.6326
  0
LINE
  8
0
 10
111.091
 20
-43.6326
 11
111.421
 21
-43.2588
  0
LINE
  8
0
 10
111.421
 20
-43.2588
 11
111.786
 21
-42.9198
  0
LINE
  8
0
 10
111.786
 20
-42.9198
 11
112.183
 21
-42.6188
  0
LINE
  8
0
 10
112.183
 20
-42.6188
 11
112.609
 21
-42.3589
  0
LINE
  8
0
 10
112.609
 20
-42.3589
 11
113.058
 21
-42.1426
  0
LINE
  8
0
 10
113.058
 20
-42.1426
 11
113.526
 21
-41.9721
  0
LINE
  8
0
 10
113.526
 20
-41.9721
 11
114.009
 21
-41.8491
  0
LINE
  8
0
 10
114.009
 20
-41.8491
 11
114.502
 21
-41.7748
  0
LINE
  8
0
 10
114.502
 20
-41.7748
 11
115
 21
-41.75
  0
LINE
  8
0
 10
115
 20
-41.75
 11
115.498
 21
-41.7748
  0
LINE
  8
0
 10
115.498
 20
-41.7748
 11
115.991
 21
-41.8491
  0
LINE
  8
0
 10
115.991
 20
-41.8491
 11
116.474
 21
-41.9721
  0
LINE
  8
0
 10
116.474
 20
-41.9721
 11
116.942
 21
-42.1426
  0
LINE
  8
0
 10
116.942
 20
-42.1426
 11
117.391
 21
-42.3589
  0
LINE
  8
0
 10
117.391
 20
-42.3589
 11
117.817
 21
-42.6188
  0
LINE
  8
0
 10
117.817
 20
-42.6188
 11
118.214
 21
-42.9198
  0
LINE
  8
0
 10
118.214
 20
-42.9198
 11
118.579
 21
-43.2588
  0
LINE
  8
0
 10
118.579
 20
-43.2588
 11
118.909
 21
-43.6326
  0
LINE
  8
0
 10
118.909
 20
-43.6326
 11
119.2
 21
-44.0373
  0
LINE
  8
0
 10
119.2
 20
-44.0373
 11
119.449
 21
-44.4689
  0
LINE
  8
0
 10
119.449
 20
-44.4689
 11
119.654
 21
-44.9233
  0
LINE
  8
0
 10
119.654
 20
-44.9233
 11
119.813
 21
-45.3958
  0
LINE
  8
0
 10
119.813
 20
-45.3958
 11
119.924
 21
-45.8818
  0
LINE
  8
0
 10
119.924
 20
-45.8818
 11
119.986
 21
-46.3763
  0
LINE
  8
0
 10
119.986
 20
-46.3763
 11
119.998
 21
-46.8746
  0
LINE
  8
0
 10
119.998
 20
-46.8746
 11
119.961
 21
-47.3717
  0
LINE
  8
0
 10
119.961
 20
-47.3717
 11
119.875
 21
-47.8626
  0
LINE
  8
0
 10
119.875
 20
-47.8626
 11
119.74
 21
-48.3424
  0
LINE
  8
0
 10
119.74
 20
-48.3424
 11
119.558
 21
-48.8064
  0
LINE
  8
0
 10
119.558
 20
-48.8064
 11
119.33
 21
-49.25
  0
LINE
  8
0
 10
119.33
 20
-49.25
 11
119.06
 21
-49.6687
  0
LINE
  8
0
 10
119.06
 20
-49.6687
 11
118.749
 21
-50.0584
  0
LINE
  8
0
 10
118.749
 20
-50.0584
 11
118.562
 21
-50.25
  0
LINE
  8
0
 10
118.562
 20
-50.25
 11
139.573
 21
-50.25
  0
LINE
  8
0
 10
139.573
 20
-50.25
 11
139.436
 21
-49.8165
  0
LINE
  8
0
 10
139.436
 20
-49.8165
 11
139.308
 21
-49.336
  0
LINE
  8
0
 10
139.308
 20
-49.336
 11
139.202
 21
-48.8503
  0
LINE
  8
0
 10
139.202
 20
-48.8503
 11
139.118
 21
-48.3602
  0
LINE
  8
0
 10
139.118
 20
-48.3602
 11
139.057
 21
-47.8668
  0
LINE
  8
0
 10
139.057
 20
-47.8668
 11
139.018
 21
-47.3712
  0
LINE
  8
0
 10
139.018
 20
-47.3712
 11
139.001
 21
-46.8743
  0
LINE
  8
0
 10
139.001
 20
-46.8743
 11
139.006
 21
-46.3771
  0
LINE
  8
0
 10
139.006
 20
-46.3771
 11
139.034
 21
-45.8808
  0
LINE
  8
0
 10
139.034
 20
-45.8808
 11
139.085
 21
-45.3861
  0
LINE
  8
0
 10
139.085
 20
-45.3861
 11
139.158
 21
-44.8943
  0
LINE
  8
0
 10
139.158
 20
-44.8943
 11
139.253
 21
-44.4062
  0
LINE
  8
0
 10
139.253
 20
-44.4062
 11
139.369
 21
-43.923
  0
LINE
  8
0
 10
139.369
 20
-43.923
 11
139.508
 21
-43.4455
  0
LINE
  8
0
 10
139.508
 20
-43.4455
 11
139.668
 21
-42.9748
  0
LINE
  8
0
 10
139.668
 20
-42.9748
 11
139.849
 21
-42.5118
  0
LINE
  8
0
 10
139.849
 20
-42.5118
 11
140.051
 21
-42.0574
  0
LINE
  8
0
 10
140.051
 20
-42.0574
 11
140.273
 21
-41.6127
  0
LINE
  8
0
 10
140.273
 20
-41.6127
 11
140.515
 21
-41.1784
  0
LINE
  8
0
 10
140.515
 20
-41.1784
 11
140.777
 21
-40.7555
  0
LINE
  8
0
 10
140.777
 20
-40.7555
 11
141.057
 21
-40.3448
  0
LINE
  8
0
 10
141.057
 20
-40.3448
 11
141.356
 21
-39.9473
  0
LINE
  8
0
 10
141.356
 20
-39.9473
 11
141.672
 21
-39.5636
  0
LINE
  8
0
 10
141.672
 20
-39.5636
 11
142.005
 21
-39.1946
  0
LINE
  8
0
 10
142.005
 20
-39.1946
 11
142.355
 21
-38.8411
  0
LINE
  8
0
 10
142.355
 20
-38.8411
 11
142.72
 21
-38.5037
  0
LINE
  8
0
 10
142.72
 20
-38.5037
 11
143.1
 21
-38.1832
  0
LINE
  8
0
 10
143.1
 20
-38.1832
 11
143.494
 21
-37.8801
  0
LINE
  8
0
 10
143.494
 20
-37.8801
 11
143.902
 21
-37.5952
  0
LINE
  8
0
 10
143.902
 20
-37.5952
 11
144.322
 21
-37.329
  0
LINE
  8
0
 10
144.322
 20
-37.329
 11
144.753
 21
-37.082
  0
LINE
  8
0
 10
144.753
 20
-37.082
 11
145.195
 21
-36.8548
  0
LINE
  8
0
 10
145.195
 20
-36.8548
 11
145.647
 21
-36.6478
  0
LINE
  8
0
 10
145.647
 20
-36.6478
 11
146.108
 21
-36.4614
  0
LINE
  8
0
 10
146.108
 20
-36.4614
 11
146.577
 21
-36.2961
  0
LINE
  8
0
 10
146.577
 20
-36.2961
 11
147.053
 21
-36.1521
  0
LINE
  8
0
 10
147.053
 20
-36.1521
 11
147.535
 21
-36.0298
  0
LINE
  8
0
 10
147.535
 20
-36.0298
 11
148.022
 21
-35.9293
  0
LINE
  8
0
 10
148.022
 20
-35.9293
 11
148.513
 21
-35.851
  0
LINE
  8
0
 10
148.513
 20
-35.851
 11
149.007
 21
-35.7949
  0
LINE
  8
0
 10
149.007
 20
-35.7949
 11
149.503
 21
-35.7612
  0
LINE
  8
0
 10
149.503
 20
-35.7612
 11
150
 21
-35.75
  0
LINE
  8
0
 10
150
 20
-35.75
 11
150.497
 21
-35.7612
  0
LINE
  8
0
 10
150.497
 20
-35.7612
 11
150.993
 21
-35.7949
  0
LINE
  8
0
 10
150.993
 20
-35.7949
 11
151.487
 21
-35.851
  0
LINE
  8
0
 10
151.487
 20
-35.851
 11
151.978
 21
-35.9293
  0
LINE
  8
0
 10
151.978
 20
-35.9293
 11
152.465
 21
-36.0298
  0
LINE
  8
0
 10
152.465
 20
-36.0298
 11
152.947
 21
-36.1521
  0
LINE
  8
0
 10
152.947
 20
-36.1521
 11
153.423
 21
-36.2961
  0
LINE
  8
0
 10
153.423
 20
-36.2961
 11
153.892
 21
-36.4614
  0
LINE
  8
0
 10
153.892
 20
-36.4614
 11
154.353
 21
-36.6478
  0
LINE
  8
0
 10
154.353
 20
-36.6478
 11
154.805
 21
-36.8548
  0
LINE
  8
0
 10
154.805
 20
-36.8548
 11
155.247
 21
-37.082
  0
LINE
  8
0
 10
155.247
 20
-37.082
 11
155.678
 21
-37.329
  0
LINE
  8
0
 10
155.678
 20
-37.329
 11
156.098
 21
-37.5952
  0
LINE
  8
0
 10
156.098
 20
-37.5952
 11
156.506
 21
-37.8801
  0
LINE
  8
0
 10
156.506
 20
-37.8801
 11
156.9
 21
-38.1832
  0
LINE
  8
0
 10
156.9
 20
-38.1832
 11
157.28
 21
-38.5037
  0
LINE
  8
0
 10
157.28
 20
-38.5037
 11
157.645
 21
-38.8411
  0
LINE
  8
0
 10
157.645
 20
-38.8411
 11
157.995
 21
-39.1946
  0
LINE
  8
0
 10
157.995
 20
-39.1946
 11
158.328
 21
-39.5636
  0
LINE
  8
0
 10
158.328
 20
-39.5636
 11
158.644
 21
-39.9473
  0
LINE
  8
0
 10
158.644
 20
-39.9473
 11
158.943
 21
-40.3448
  0
LINE
  8
0
 10
158.943
 20
-40.3448
 11
159.223
 21
-40.7555
  0
LINE
  8
0
 10
159.223
 20
-40.7555
 11
159.485
 21
-41.1784
  0
LINE
  8
0
 10
159.485
 20
-41.1784
 11
159.727
 21
-41.6127
  0
LINE
  8
0
 10
159.727
 20
-41.6127
 11
159.949
 21
-42.0574
  0
LINE
  8
0
 10
159.949
 20
-42.0574
 11
160.151
 21
-42.5118
  0
LINE
  8
0
 10
160.151
 20
-42.5118
 11
160.332
 21
-42.9748
  0
LINE
  8
0
 10
160.332
 20
-42.9748
 11
160.492
 21
-43.4455
  0
LINE
  8
0
 10
160.492
 20
-43.4455
 11
160.631
 21
-43.923
  0
LINE
  8
0
 10
160.631
 20
-43.923
 11
160.747
 21
-44.4062
  0
LINE
  8
0
 10
160.747
 20
-44.4062
 11
160.842
 21
-44.8943
  0
LINE
  8
0
 10
160.842
 20
-44.8943
 11
160.915
 21
-45.3861
  0
LINE
  8
0
 10
160.915
 20
-45.3861
 11
160.966
 21
-45.8808
  0
LINE
  8
0
 10
160.966
 20
-45.8808
 11
160.994
 21
-46.3771
  0
LINE
  8
0
 10
160.994
 20
-46.3771
 11
160.999
 21
-46.8743
  0
LINE
  8
0
 10
160.999
 20
-46.8743
 11
160.982
 21
-47.3712
  0
LINE
  8
0
 10
160.982
 20
-47.3712
 11
160.943
 21
-47.8668
  0
LINE
  8
0
 10
160.943
 20
-47.8668
 11
160.882
 21
-48.3602
  0
LINE
  8
0
 10
160.882
 20
-48.3602
 11
160.798
 21
-48.8503
  0
LINE
  8
0
 10
160.798
 20
-48.8503
 11
160.692
 21
-49.336
  0
LINE
  8
0
 10
160.692
 20
-49.336
 11
160.564
 21
-49.8165
  0
LINE
  8
0
 10
160.564
 20
-49.8165
 11
160.427
 21
-50.25
  0
LINE
  8
0
 10
160.427
 20
-50.25
 11
230
 21
-50.25
  0
LINE
  8
0
 10
230
 20
-50.25
 11
230
 21
-42.75
  0
LINE
  8
0
 10
230
 20
-42.75
 11
234.875
 21
-42.75
  0
LINE
  8
0
 10
234.875
 20
-42.75
 11
236.5
 21
-41.125
  0
LINE
  8
0
 10
236.5
 20
-41.125
 11
236.5
 21
-29.375
  0
LINE
  8
0
 10
236.5
 20
-29.375
 11
234.875
 21
-27.75
  0
LINE
  8
0
 10
234.875
 20
-27.75
 11
230
 21
-27.75
  0
LINE
  8
0
 10
230
 20
-27.75
 11
230
 21
-22.7
  0
LINE
  8
0
 10
230
 20
-22.7
 11
223.1
 21
-22.7
  0
LINE
  8
0
 10
223.1
 20
-22.7
 11
223.1
 21
-24.2
  0
LINE
  8
0
 10
223.1
 20
-24.2
 11
217.4
 21
-24.2
  0
LINE
  8
0
 10
217.4
 20
-24.2
 11
217.4
 21
-22.7
  0
LINE
  8
0
 10
217.4
 20
-22.7
 11
210.5
 21
-22.7
  0
LINE
  8
0
 10
210.5
 20
-22.7
 11
210.5
 21
-17.8
  0
LINE
  8
0
 10
210.5
 20
-17.8
 11
217.4
 21
-17.8
  0
LINE
  8
0
 10
217.4
 20
-17.8
 11
217.4
 21
-16.3
  0
LINE
  8
0
 10
217.4
 20
-16.3
 11
223.1
 21
-16.3
  0
LINE
  8
0
 10
223.1
 20
-16.3
 11
223.1
 21
-17.8
  0
LINE
  8
0
 10
223.1
 20
-17.8
 11
230
 21
-17.8
  0
LINE
  8
0
 10
230
 20
-17.8
 11
230
 21
-12.75
  0
LINE
  8
0
 10
230
 20
-12.75
 11
234.875
 21
-12.75
  0
LINE
  8
0
 10
234.875
 20
-12.75
 11
236.5
 21
-11.125
  0
LINE
  8
0
 10
236.5
 20
-11.125
 11
236.5
 21
0.625
  0
LINE
  8
0
 10
236.5
 20
0.625
 11
234.875
 21
2.25
  0
LINE
  8
0
 10
234.875
 20
2.25
 11
230
 21
2.25
  0
LINE
  8
0
 10
230
 20
2.25
 11
230
 21
9.75
  0
LINE
  8
0
 10
230
 20
9.75
 11
-230
 21
9.75
  0
LINE
  8
0
 10
-230
 20
9.75
 11
-230
 21
2.25
  0
LINE
  8
0
 10
-230
 20
2.25
 11
-234.875
 21
2.25
  0
LINE
  8
0
 10
-234.875
 20
2.25
 11
-236.5
 21
0.625
  0
LINE
  8
0
 10
-236.5
 20
0.625
 11
-236.5
 21
-11.125
  0
LINE
  8
0
 10
-236.5
 20
-11.125
 11
-234.875
 21
-12.75
  0
LINE
  8
0
 10
-234.875
 20
-12.75
 11
-230
 21
-12.75
  0
LINE
  8
0
 10
-230
 20
-12.75
 11
-230
 21
-17.8
  0
LINE
  8
0
 10
-230
 20
-17.8
 11
-223.1
 21
-17.8
  0
LINE
  8
0
 10
-223.1
 20
-17.8
 11
-223.1
 21
-16.3
  0
LINE
  8
0
 10
-223.1
 20
-16.3
 11
-217.4
 21
-16.3
  0
LINE
  8
0
 10
-217.4
 20
-16.3
 11
-217.4
 21
-17.8
  0
LINE
  8
0
 10
-217.4
 20
-17.8
 11
-210.5
 21
-17.8
  0
LINE
  8
0
 10
-210.5
 20
-17.8
 11
-210.5
 21
-22.7
  0
LINE
  8
0
 10
-210.5
 20
-22.7
 11
-217.4
 21
-22.7
  0
LINE
  8
0
 10
-217.4
 20
-22.7
 11
-217.4
 21
-24.2
  0
LINE
  8
0
 10
-217.4
 20
-24.2
 11
-223.1
 21
-24.2
  0
LINE
  8
0
 10
-223.1
 20
-24.2
 11
-223.1
 21
-22.7
  0
LINE
  8
0
 10
-223.1
 20
-22.7
 11
-230
 21
-22.7
  0
LINE
  8
0
 10
-230
 20
-22.7
 11
-230
 21
-27.75
  0
LINE
  8
0
 10
-230
 20
-27.75
 11
-234.875
 21
-27.75
  0
LINE
  8
0
 10
-234.875
 20
-27.75
 11
-236.5
 21
-29.375
  0
LINE
  8
0
 10
-236.5
 20
-29.375
 11
-236.5
 21
-41.125
  0
LINE
  8
0
 10
-236.5
 20
-41.125
 11
-234.875
 21
-42.75
  0
LINE
  8
0
 10
-234.875
 20
-42.75
 11
-230
 21
-42.75
  0
LINE
  8
0
 10
-230
 20
-42.75
 11
-230
 21
-50.25
  0
LINE
  8
0
 10
-230
 20
-50.25
 11
-160.427
 21
-50.25
  0
LINE
  8
0
 10
-160.427
 20
-50.25
 11
-160.564
 21
-49.8165
  0
LINE
  8
0
 10
-152.45
 20
-3.2
 11
-152.45
 21
3.2
  0
LINE
  8
0
 10
-152.45
 20
3.2
 11
-137.55
 21
3.2
  0
LINE
  8
0
 10
-137.55
 20
3.2
 11
-137.55
 21
-3.2
  0
LINE
  8
0
 10
-137.55
 20
-3.2
 11
-152.45
 21
-3.2
  0
LINE
  8
0
 10
107.55
 20
-3.2
 11
107.55
 21
3.2
  0
LINE
  8
0
 10
107.55
 20
3.2
 11
122.45
 21
3.2
  0
LINE
  8
0
 10
122.45
 20
3.2
 11
122.45
 21
-3.2
  0
LINE
  8
0
 10
122.45
 20
-3.2
 11
107.55
 21
-3.2
  0
LINE
  8
0
 10
-122.45
 20
-3.2
 11
-122.45
 21
3.2
  0
LINE
  8
0
 10
-122.45
 20
3.2
 11
-107.55
 21
3.2
  0
LINE
  8
0
 10
-107.55
 20
3.2
 11
-107.55
 21
-3.2
  0
LINE
  8
0
 10
-107.55
 20
-3.2
 11
-122.45
 21
-3.2
  0
LINE
  8
0
 10
137.55
 20
-3.2
 11
137.55
 21
3.2
  0
LINE
  8
0
 10
137.55
 20
3.2
 11
152.45
 21
3.2
  0
LINE
  8
0
 10
152.45
 20
3.2
 11
152.45
 21
-3.2
  0
LINE
  8
0
 10
152.45
 20
-3.2
 11
137.55
 21
-3.2
  0
LINE
  8
0
 10
130
 20
-2.49998
 11
129.512
 21
-2.45195
  0
LINE
  8
0
 10
129.512
 20
-2.45195
 11
129.043
 21
-2.30969
  0
LINE
  8
0
 10
129.043
 20
-2.30969
 11
128.611
 21
-2.07866
  0
LINE
  8
0
 10
128.611
 20
-2.07866
 11
128.232
 21
-1.76776
  0
LINE
  8
0
 10
128.232
 20
-1.76776
 11
127.921
 21
-1.38892
  0
LINE
  8
0
 10
127.921
 20
-1.38892
 11
127.69
 21
-0.956696
  0
LINE
  8
0
 10
127.69
 20
-0.956696
 11
127.548
 21
-0.487717
  0
LINE
  8
0
 10
127.548
 20
-0.487717
 11
127.5
 21
0
  0
LINE
  8
0
 10
127.5
 20
0
 11
127.548
 21
0.487717
  0
LINE
  8
0
 10
127.548
 20
0.487717
 11
127.69
 21
0.956696
  0
LINE
  8
0
 10
127.69
 20
0.956696
 11
127.921
 21
1.38892
  0
LINE
  8
0
 10
127.921
 20
1.38892
 11
128.232
 21
1.76776
  0
LINE
  8
0
 10
128.232
 20
1.76776
 11
128.611
 21
2.07866
  0
LINE
  8
0
 10
128.611
 20
2.07866
 11
129.043
 21
2.30969
  0
LINE
  8
0
 10
129.043
 20
2.30969
 11
129.512
 21
2.45195
  0
LINE
  8
0
 10
129.512
 20
2.45195
 11
130
 21
2.49998
  0
LINE
  8
0
 10
130
 20
2.49998
 11
130.488
 21
2.45195
  0
LINE
  8
0
 10
130.488
 20
2.45195
 11
130.957
 21
2.30969
  0
LINE
  8
0
 10
130.957
 20
2.30969
 11
131.389
 21
2.07866
  0
LINE
  8
0
 10
131.389
 20
2.07866
 11
131.768
 21
1.76776
  0
LINE
  8
0
 10
131.768
 20
1.76776
 11
132.079
 21
1.38892
  0
LINE
  8
0
 10
132.079
 20
1.38892
 11
132.31
 21
0.956696
  0
LINE
  8
0
 10
132.31
 20
0.956696
 11
132.452
 21
0.487717
  0
LINE
  8
0
 10
132.452
 20
0.487717
 11
132.5
 21
0
  0
LINE
  8
0
 10
132.5
 20
0
 11
132.452
 21
-0.487717
  0
LINE
  8
0
 10
132.452
 20
-0.487717
 11
132.31
 21
-0.956696
  0
LINE
  8
0
 10
132.31
 20
-0.956696
 11
132.079
 21
-1.38892
  0
LINE
  8
0
 10
132.079
 20
-1.38892
 11
131.768
 21
-1.76776
  0
LINE
  8
0
 10
131.768
 20
-1.76776
 11
131.389
 21
-2.07866
  0
LINE
  8
0
 10
131.389
 20
-2.07866
 11
130.957
 21
-2.30969
  0
LINE
  8
0
 10
130.957
 20
-2.30969
 11
130.488
 21
-2.45195
  0
LINE
  8
0
 10
130.488
 20
-2.45195
 11
130
 21
-2.49998
  0
LINE
  8
0
 10
-130
 20
-2.49998
 11
-130.488
 21
-2.45195
  0
LINE
  8
0
 10
-130.488
 20
-2.45195
 11
-130.957
 21
-2.30969
  0
LINE
  8
0
 10
-130.957
 20
-2.30969
 11
-131.389
 21
-2.07866
  0
LINE
  8
0
 10
-131.389
 20
-2.07866
 11
-131.768
 21
-1.76776
  0
LINE
  8
0
 10
-131.768
 20
-1.76776
 11
-132.079
 21
-1.38892
  0
LINE
  8
0
 10
-132.079
 20
-1.38892
 11
-132.31
 21
-0.956696
  0
LINE
  8
0
 10
-132.31
 20
-0.956696
 11
-132.452
 21
-0.487717
  0
LINE
  8
0
 10
-132.452
 20
-0.487717
 11
-132.5
 21
0
  0
LINE
  8
0
 10
-132.5
 20
0
 11
-132.452
 21
0.487717
  0
LINE
  8
0
 10
-132.452
 20
0.487717
 11
-132.31
 21
0.956696
  0
LINE
  8
0
 10
-132.31
 20
0.956696
 11
-132.079
 21
1.38892
  0
LINE
  8
0
 10
-132.079
 20
1.38892
 11
-131.768
 21
1.76776
  0
LINE
  8
0
 10
-131.768
 20
1.76776
 11
-131.389
 21
2.07866
  0
LINE
  8
0
 10
-131.389
 20
2.07866
 11
-130.957
 21
2.30969
  0
LINE
  8
0
 10
-130.957
 20
2.30969
 11
-130.488
 21
2.45195
  0
LINE
  8
0
 10
-130.488
 20
2.45195
 11
-130
 21
2.49998
  0
LINE
  8
0
 10
-130
 20
2.49998
 11
-129.512
 21
2.45195
  0
LINE
  8
0
 10
-129.512
 20
2.45195
 11
-129.043
 21
2.30969
  0
LINE
  8
0
 10
-129.043
 20
2.30969
 11
-128.611
 21
2.07866
  0
LINE
  8
0
 10
-128.611
 20
2.07866
 11
-128.232
 21
1.76776
  0
LINE
  8
0
 10
-128.232
 20
1.76776
 11
-127.921
 21
1.38892
  0
LINE
  8
0
 10
-127.921
 20
1.38892
 11
-127.69
 21
0.956696
  0
LINE
  8
0
 10
-127.69
 20
0.956696
 11
-127.548
 21
0.487717
  0
LINE
  8
0
 10
-127.548
 20
0.487717
 11
-127.5
 21
0
  0
LINE
  8
0
 10
-127.5
 20
0
 11
-127.548
 21
-0.487717
  0
LINE
  8
0
 10
-127.548
 20
-0.487717
 11
-127.69
 21
-0.956696
  0
LINE
  8
0
 10
-127.69
 20
-0.956696
 11
-127.921
 21
-1.38892
  0
LINE
  8
0
 10
-127.921
 20
-1.38892
 11
-128.232
 21
-1.76776
  0
LINE
  8
0
 10
-128.232
 20
-1.76776
 11
-128.611
 21
-2.07866
  0
LINE
  8
0
 10
-128.611
 20
-2.07866
 11
-129.043
 21
-2.30969
  0
LINE
  8
0
 10
-129.043
 20
-2.30969
 11
-129.512
 21
-2.45195
  0
LINE
  8
0
 10
-129.512
 20
-2.45195
 11
-130
 21
-2.49998
  0
LINE
  8
0
 10
219.512
 20
-12.202
 11
219.043
 21
-12.0597
  0
LINE
  8
0
 10
219.043
 20
-12.0597
 11
218.611
 21
-11.8287
  0
LINE
  8
0
 10
218.611
 20
-11.8287
 11
218.232
 21
-11.5178
  0
LINE
  8
0
 10
218.232
 20
-11.5178
 11
217.921
 21
-11.1389
  0
LINE
  8
0
 10
217.921
 20
-11.1389
 11
217.69
 21
-10.7067
  0
LINE
  8
0
 10
217.69
 20
-10.7067
 11
217.548
 21
-10.2377
  0
LINE
  8
0
 10
217.548
 20
-10.2377
 11
217.5
 21
-9.75
  0
LINE
  8
0
 10
217.5
 20
-9.75
 11
217.548
 21
-9.26227
  0
LINE
  8
0
 10
217.548
 20
-9.26227
 11
217.69
 21
-8.79329
  0
LINE
  8
0
 10
217.69
 20
-8.79329
 11
217.921
 21
-8.36107
  0
LINE
  8
0
 10
217.921
 20
-8.36107
 11
218.232
 21
-7.98222
  0
LINE
  8
0
 10
218.232
 20
-7.98222
 11
218.611
 21
-7.67133
  0
LINE
  8
0
 10
218.611
 20
-7.67133
 11
219.043
 21
-7.44029
  0
LINE
  8
0
 10
219.043
 20
-7.44029
 11
219.512
 21
-7.29803
  0
LINE
  8
0
 10
219.512
 20
-7.29803
 11
220
 21
-7.25
  0
LINE
  8
0
 10
220
 20
-7.25
 11
220.488
 21
-7.29803
  0
LINE
  8
0
 10
220.488
 20
-7.29803
 11
220.957
 21
-7.44029
  0
LINE
  8
0
 10
220.957
 20
-7.44029
 11
221.389
 21
-7.67133
  0
LINE
  8
0
 10
221.389
 20
-7.67133
 11
221.768
 21
-7.98222
  0
LINE
  8
0
 10
221.768
 20
-7.98222
 11
222.079
 21
-8.36107
  0
LINE
  8
0
 10
222.079
 20
-8.36107
 11
222.31
 21
-8.79329
  0
LINE
  8
0
 10
222.31
 20
-8.79329
 11
222.452
 21
-9.26227
  0
LINE
  8
0
 10
222.452
 20
-9.26227
 11
222.5
 21
-9.75
  0
LINE
  8
0
 10
222.5
 20
-9.75
 11
222.452
 21
-10.2377
  0
LINE
  8
0
 10
222.452
 20
-10.2377
 11
222.31
 21
-10.7067
  0
LINE
  8
0
 10
222.31
 20
-10.7067
 11
222.079
 21
-11.1389
  0
LINE
  8
0
 10
222.079
 20
-11.1389
 11
221.768
 21
-11.5178
  0
LINE
  8
0
 10
221.768
 20
-11.5178
 11
221.389
 21
-11.8287
  0
LINE
  8
0
 10
221.389
 20
-11.8287
 11
220.957
 21
-12.0597
  0
LINE
  8
0
 10
220.957
 20
-12.0597
 11
220.488
 21
-12.202
  0
LINE
  8
0
 10
220.488
 20
-12.202
 11
220
 21
-12.25
  0
LINE
  8
0
 10
220
 20
-12.25
 11
219.512
 21
-12.202
  0
LINE
  8
0
 10
-220.488
 20
-12.202
 11
-220.957
 21
-12.0597
  0
LINE
  8
0
 10
-220.957
 20
-12.0597
 11
-221.389
 21
-11.8287
  0
LINE
  8
0
 10
-221.389
 20
-11.8287
 11
-221.768
 21
-11.5178
  0
LINE
  8
0
 10
-221.768
 20
-11.5178
 11
-222.079
 21
-11.1389
  0
LINE
  8
0
 10
-222.079
 20
-11.1389
 11
-222.31
 21
-10.7067
  0
LINE
  8
0
 10
-222.31
 20
-10.7067
 11
-222.452
 21
-10.2377
  0
LINE
  8
0
 10
-222.452
 20
-10.2377
 11
-222.5
 21
-9.75
  0
LINE
  8
0
 10
-222.5
 20
-9.75
 11
-222.452
 21
-9.26227
  0
LINE
  8
0
 10
-222.452
 20
-9.26227
 11
-222.31
 21
-8.79329
  0
LINE
  8
0
 10
-222.31
 20
-8.79329
 11
-222.079
 21
-8.36107
  0
LINE
  8
0
 10
-222.079
 20
-8.36107
 11
-221.768
 21
-7.98222
  0
LINE
  8
0
 10
-221.768
 20
-7.98222
 11
-221.389
 21
-7.67133
  0
LINE
  8
0
 10
-221.389
 20
-7.67133
 11
-220.957
 21
-7.44029
  0
LINE
  8
0
 10
-220.957
 20
-7.44029
 11
-220.488
 21
-7.29803
  0
LINE
  8
0
 10
-220.488
 20
-7.29803
 11
-220
 21
-7.25
  0
LINE
  8
0
 10
-220
 20
-7.25
 11
-219.512
 21
-7.29803
  0
LINE
  8
0
 10
-219.512
 20
-7.29803
 11
-219.043
 21
-7.44029
  0
LINE
  8
0
 10
-219.043
 20
-7.44029
 11
-218.611
 21
-7.67133
  0
LINE
  8
0
 10
-218.611
 20
-7.67133
 11
-218.232
 21
-7.98222
  0
LINE
  8
0
 10
-218.232
 20
-7.98222
 11
-217.921
 21
-8.36107
  0
LINE
  8
0
 10
-217.921
 20
-8.36107
 11
-217.69
 21
-8.79329
  0
LINE
  8
0
 10
-217.69
 20
-8.79329
 11
-217.548
 21
-9.26227
  0
LINE
  8
0
 10
-217.548
 20
-9.26227
 11
-217.5
 21
-9.75
  0
LINE
  8
0
 10
-217.5
 20
-9.75
 11
-217.548
 21
-10.2377
  0
LINE
  8
0
 10
-217.548
 20
-10.2377
 11
-217.69
 21
-10.7067
  0
LINE
  8
0
 10
-217.69
 20
-10.7067
 11
-217.921
 21
-11.1389
  0
LINE
  8
0
 10
-217.921
 20
-11.1389
 11
-218.232
 21
-11.5178
  0
LINE
  8
0
 10
-218.232
 20
-11.5178
 11
-218.611
 21
-11.8287
  0
LINE
  8
0
 10
-218.611
 20
-11.8287
 11
-219.043
 21
-12.0597
  0
LINE
  8
0
 10
-219.043
 20
-12.0597
 11
-219.512
 21
-12.202
  0
LINE
  8
0
 10
-219.512
 20
-12.202
 11
-220
 21
-12.25
  0
LINE
  8
0
 10
-220
 20
-12.25
 11
-220.488
 21
-12.202
  0
LINE
  8
0
 10
137.55
 20
-29.7
 11
137.55
 21
-23.3
  0
LINE
  8
0
 10
137.55
 20
-23.3
 11
152.45
 21
-23.3
  0
LINE
  8
0
 10
152.45
 20
-23.3
 11
152.45
 21
-29.7
  0
LINE
  8
0
 10
152.45
 20
-29.7
 11
137.55
 21
-29.7
  0
LINE
  8
0
 10
-22.45
 20
-29.7
 11
-22.45
 21
-23.3
  0
LINE
  8
0
 10
-22.45
 20
-23.3
 11
-7.54999
 21
-23.3
  0
LINE
  8
0
 10
-7.54999
 20
-23.3
 11
-7.54999
 21
-29.7
  0
LINE
  8
0
 10
-7.54999
 20
-29.7
 11
-22.45
 21
-29.7
  0
LINE
  8
0
 10
-122.45
 20
-29.7
 11
-122.45
 21
-23.3
  0
LINE
  8
0
 10
-122.45
 20
-23.3
 11
-107.55
 21
-23.3
  0
LINE
  8
0
 10
-107.55
 20
-23.3
 11
-107.55
 21
-29.7
  0
LINE
  8
0
 10
-107.55
 20
-29.7
 11
-122.45
 21
-29.7
  0
LINE
  8
0
 10
7.54999
 20
-29.7
 11
7.54999
 21
-23.3
  0
LINE
  8
0
 10
7.54999
 20
-23.3
 11
22.45
 21
-23.3
  0
LINE
  8
0
 10
22.45
 20
-23.3
 11
22.45
 21
-29.7
  0
LINE
  8
0
 10
22.45
 20
-29.7
 11
7.54999
 21
-29.7
  0
LINE
  8
0
 10
107.55
 20
-29.7
 11
107.55
 21
-23.3
  0
LINE
  8
0
 10
107.55
 20
-23.3
 11
122.45
 21
-23.3
  0
LINE
  8
0
 10
122.45
 20
-23.3
 11
122.45
 21
-29.7
  0
LINE
  8
0
 10
122.45
 20
-29.7
 11
107.55
 21
-29.7
  0
LINE
  8
0
 10
-152.45
 20
-29.7
 11
-152.45
 21
-23.3
  0
LINE
  8
0
 10
-152.45
 20
-23.3
 11
-137.55
 21
-23.3
  0
LINE
  8
0
 10
-137.55
 20
-23.3
 11
-137.55
 21
-29.7
  0
LINE
  8
0
 10
-137.55
 20
-29.7
 11
-152.45
 21
-29.7
  0
LINE
  8
0
 10
130
 20
-29
 11
129.512
 21
-28.952
  0
LINE
  8
0
 10
129.512
 20
-28.952
 11
129.043
 21
-28.8097
  0
LINE
  8
0
 10
129.043
 20
-28.8097
 11
128.611
 21
-28.5787
  0
LINE
  8
0
 10
128.611
 20
-28.5787
 11
128.232
 21
-28.2678
  0
LINE
  8
0
 10
128.232
 20
-28.2678
 11
127.921
 21
-27.8889
  0
LINE
  8
0
 10
127.921
 20
-27.8889
 11
127.69
 21
-27.4567
  0
LINE
  8
0
 10
127.69
 20
-27.4567
 11
127.548
 21
-26.9877
  0
LINE
  8
0
 10
127.548
 20
-26.9877
 11
127.5
 21
-26.5
  0
LINE
  8
0
 10
127.5
 20
-26.5
 11
127.548
 21
-26.0123
  0
LINE
  8
0
 10
127.548
 20
-26.0123
 11
127.69
 21
-25.5433
  0
LINE
  8
0
 10
127.69
 20
-25.5433
 11
127.921
 21
-25.1111
  0
LINE
  8
0
 10
127.921
 20
-25.1111
 11
128.232
 21
-24.7322
  0
LINE
  8
0
 10
128.232
 20
-24.7322
 11
128.611
 21
-24.4213
  0
LINE
  8
0
 10
128.611
 20
-24.4213
 11
129.043
 21
-24.1903
  0
LINE
  8
0
 10
129.043
 20
-24.1903
 11
129.512
 21
-24.048
  0
LINE
  8
0
 10
129.512
 20
-24.048
 11
130
 21
-24
  0
LINE
  8
0
 10
130
 20
-24
 11
130.488
 21
-24.048
  0
LINE
  8
0
 10
130.488
 20
-24.048
 11
130.957
 21
-24.1903
  0
LINE
  8
0
 10
130.957
 20
-24.1903
 11
131.389
 21
-24.4213
  0
LINE
  8
0
 10
131.389
 20
-24.4213
 11
131.768
 21
-24.7322
  0
LINE
  8
0
 10
131.768
 20
-24.7322
 11
132.079
 21
-25.1111
  0
LINE
  8
0
 10
132.079
 20
-25.1111
 11
132.31
 21
-25.5433
  0
LINE
  8
0
 10
132.31
 20
-25.5433
 11
132.452
 21
-26.0123
  0
LINE
  8
0
 10
132.452
 20
-26.0123
 11
132.5
 21
-26.5
  0
LINE
  8
0
 10
132.5
 20
-26.5
 11
132.452
 21
-26.9877
  0
LINE
  8
0
 10
132.452
 20
-26.9877
 11
132.31
 21
-27.4567
  0
LINE
  8
0
 10
132.31
 20
-27.4567
 11
132.079
 21
-27.8889
  0
LINE
  8
0
 10
132.079
 20
-27.8889
 11
131.768
 21
-28.2678
  0
LINE
  8
0
 10
131.768
 20
-28.2678
 11
131.389
 21
-28.5787
  0
LINE
  8
0
 10
131.389
 20
-28.5787
 11
130.957
 21
-28.8097
  0
LINE
  8
0
 10
130.957
 20
-28.8097
 11
130.488
 21
-28.952
  0
LINE
  8
0
 10
130.488
 20
-28.952
 11
130
 21
-29
  0
LINE
  8
0
 10
0
 20
-29
 11
-0.487717
 21
-28.952
  0
LINE
  8
0
 10
-0.487717
 20
-28.952
 11
-0.956696
 21
-28.8097
  0
LINE
  8
0
 10
-0.956696
 20
-28.8097
 11
-1.38892
 21
-28.5787
  0
LINE
  8
0
 10
-1.38892
 20
-28.5787
 11
-1.76776
 21
-28.2678
  0
LINE
  8
0
 10
-1.76776
 20
-28.2678
 11
-2.07866
 21
-27.8889
  0
LINE
  8
0
 10
-2.07866
 20
-27.8889
 11
-2.30969
 21
-27.4567
  0
LINE
  8
0
 10
-2.30969
 20
-27.4567
 11
-2.45195
 21
-26.9877
  0
LINE
  8
0
 10
-2.45195
 20
-26.9877
 11
-2.5
 21
-26.5
  0
LINE
  8
0
 10
-2.5
 20
-26.5
 11
-2.45195
 21
-26.0123
  0
LINE
  8
0
 10
-2.45195
 20
-26.0123
 11
-2.30969
 21
-25.5433
  0
LINE
  8
0
 10
-2.30969
 20
-25.5433
 11
-2.07866
 21
-25.1111
  0
LINE
  8
0
 10
-2.07866
 20
-25.1111
 11
-1.76776
 21
-24.7322
  0
LINE
  8
0
 10
-1.76776
 20
-24.7322
 11
-1.38892
 21
-24.4213
  0
LINE
  8
0
 10
-1.38892
 20
-24.4213
 11
-0.956696
 21
-24.1903
  0
LINE
  8
0
 10
-0.956696
 20
-24.1903
 11
-0.487717
 21
-24.048
  0
LINE
  8
0
 10
-0.487717
 20
-24.048
 11
0
 21
-24
  0
LINE
  8
0
 10
0
 20
-24
 11
0.487717
 21
-24.048
  0
LINE
  8
0
 10
0.487717
 20
-24.048
 11
0.956696
 21
-24.1903
  0
LINE
  8
0
 10
0.956696
 20
-24.1903
 11
1.38892
 21
-24.4213
  0
LINE
  8
0
 10
1.38892
 20
-24.4213
 11
1.76776
 21
-24.7322
  0
LINE
  8
0
 10
1.76776
 20
-24.7322
 11
2.07866
 21
-25.1111
  0
LINE
  8
0
 10
2.07866
 20
-25.1111
 11
2.30969
 21
-25.5433
  0
LINE
  8
0
 10
2.30969
 20
-25.5433
 11
2.45195
 21
-26.0123
  0
LINE
  8
0
 10
2.45195
 20
-26.0123
 11
2.5
 21
-26.5
  0
LINE
  8
0
 10
2.5
 20
-26.5
 11
2.45195
 21
-26.9877
  0
LINE
  8
0
 10
2.45195
 20
-26.9877
 11
2.30969
 21
-27.4567
  0
LINE
  8
0
 10
2.30969
 20
-27.4567
 11
2.07866
 21
-27.8889
  0
LINE
  8
0
 10
2.07866
 20
-27.8889
 11
1.76776
 21
-28.2678
  0
LINE
  8
0
 10
1.76776
 20
-28.2678
 11
1.38892
 21
-28.5787
  0
LINE
  8
0
 10
1.38892
 20
-28.5787
 11
0.956696
 21
-28.8097
  0
LINE
  8
0
 10
0.956696
 20
-28.8097
 11
0.487717
 21
-28.952
  0
LINE
  8
0
 10
0.487717
 20
-28.952
 11
0
 21
-29
  0
LINE
  8
0
 10
-130
 20
-29
 11
-130.488
 21
-28.952
  0
LINE
  8
0
 10
-130.488
 20
-28.952
 11
-130.957
 21
-28.8097
  0
LINE
  8
0
 10
-130.957
 20
-28.8097
 11
-131.389
 21
-28.5787
  0
LINE
  8
0
 10
-131.389
 20
-28.5787
 11
-131.768
 21
-28.2678
  0
LINE
  8
0
 10
-131.768
 20
-28.2678
 11
-132.079
 21
-27.8889
  0
LINE
  8
0
 10
-132.079
 20
-27.8889
 11
-132.31
 21
-27.4567
  0
LINE
  8
0
 10
-132.31
 20
-27.4567
 11
-132.452
 21
-26.9877
  0
LINE
  8
0
 10
-132.452
 20
-26.9877
 11
-132.5
 21
-26.5
  0
LINE
  8
0
 10
-132.5
 20
-26.5
 11
-132.452
 21
-26.0123
  0
LINE
  8
0
 10
-132.452
 20
-26.0123
 11
-132.31
 21
-25.5433
  0
LINE
  8
0
 10
-132.31
 20
-25.5433
 11
-132.079
 21
-25.1111
  0
LINE
  8
0
 10
-132.079
 20
-25.1111
 11
-131.768
 21
-24.7322
  0
LINE
  8
0
 10
-131.768
 20
-24.7322
 11
-131.389
 21
-24.4213
  0
LINE
  8
0
 10
-131.389
 20
-24.4213
 11
-130.957
 21
-24.1903
  0
LINE
  8
0
 10
-130.957
 20
-24.1903
 11
-130.488
 21
-24.048
  0
LINE
  8
0
 10
-130.488
 20
-24.048
 11
-130
 21
-24
  0
LINE
  8
0
 10
-130
 20
-24
 11
-129.512
 21
-24.048
  0
LINE
  8
0
 10
-129.512
 20
-24.048
 11
-129.043
 21
-24.1903
  0
LINE
  8
0
 10
-129.043
 20
-24.1903
 11
-128.611
 21
-24.4213
  0
LINE
  8
0
 10
-128.611
 20
-24.4213
 11
-128.232
 21
-24.7322
  0
LINE
  8
0
 10
-128.232
 20
-24.7322
 11
-127.921
 21
-25.1111
  0
LINE
  8
0
 10
-127.921
 20
-25.1111
 11
-127.69
 21
-25.5433
  0
LINE
  8
0
 10
-127.69
 20
-25.5433
 11
-127.548
 21
-26.0123
  0
LINE
  8
0
 10
-127.548
 20
-26.0123
 11
-127.5
 21
-26.5
  0
LINE
  8
0
 10
-127.5
 20
-26.5
 11
-127.548
 21
-26.9877
  0
LINE
  8
0
 10
-127.548
 20
-26.9877
 11
-127.69
 21
-27.4567
  0
LINE
  8
0
 10
-127.69
 20
-27.4567
 11
-127.921
 21
-27.8889
  0
LINE
  8
0
 10
-127.921
 20
-27.8889
 11
-128.232
 21
-28.2678
  0
LINE
  8
0
 10
-128.232
 20
-28.2678
 11
-128.611
 21
-28.5787
  0
LINE
  8
0
 10
-128.611
 20
-28.5787
 11
-129.043
 21
-28.8097
  0
LINE
  8
0
 10
-129.043
 20
-28.8097
 11
-129.512
 21
-28.952
  0
LINE
  8
0
 10
-129.512
 20
-28.952
 11
-130
 21
-29
  0
LINE
  8
0
 10
-220.488
 20
-39.702
 11
-220.957
 21
-39.5597
  0
LINE
  8
0
 10
-220.957
 20
-39.5597
 11
-221.389
 21
-39.3287
  0
LINE
  8
0
 10
-221.389
 20
-39.3287
 11
-221.768
 21
-39.0178
  0
LINE
  8
0
 10
-221.768
 20
-39.0178
 11
-222.079
 21
-38.6389
  0
LINE
  8
0
 10
-222.079
 20
-38.6389
 11
-222.31
 21
-38.2067
  0
LINE
  8
0
 10
-222.31
 20
-38.2067
 11
-222.452
 21
-37.7377
  0
LINE
  8
0
 10
-222.452
 20
-37.7377
 11
-222.5
 21
-37.25
  0
LINE
  8
0
 10
-222.5
 20
-37.25
 11
-222.452
 21
-36.7623
  0
LINE
  8
0
 10
-222.452
 20
-36.7623
 11
-222.31
 21
-36.2933
  0
LINE
  8
0
 10
-222.31
 20
-36.2933
 11
-222.079
 21
-35.8611
  0
LINE
  8
0
 10
-222.079
 20
-35.8611
 11
-221.768
 21
-35.4822
  0
LINE
  8
0
 10
-221.768
 20
-35.4822
 11
-221.389
 21
-35.1713
  0
LINE
  8
0
 10
-221.389
 20
-35.1713
 11
-220.957
 21
-34.9403
  0
LINE
  8
0
 10
-220.957
 20
-34.9403
 11
-220.488
 21
-34.798
  0
LINE
  8
0
 10
-220.488
 20
-34.798
 11
-220
 21
-34.75
  0
LINE
  8
0
 10
-220
 20
-34.75
 11
-219.512
 21
-34.798
  0
LINE
  8
0
 10
-219.512
 20
-34.798
 11
-219.043
 21
-34.9403
  0
LINE
  8
0
 10
-219.043
 20
-34.9403
 11
-218.611
 21
-35.1713
  0
LINE
  8
0
 10
-218.611
 20
-35.1713
 11
-218.232
 21
-35.4822
  0
LINE
  8
0
 10
-218.232
 20
-35.4822
 11
-217.921
 21
-35.8611
  0
LINE
  8
0
 10
-217.921
 20
-35.8611
 11
-217.69
 21
-36.2933
  0
LINE
  8
0
 10
-217.69
 20
-36.2933
 11
-217.548
 21
-36.7623
  0
LINE
  8
0
 10
-217.548
 20
-36.7623
 11
-217.5
 21
-37.25
  0
LINE
  8
0
 10
-217.5
 20
-37.25
 11
-217.548
 21
-37.7377
  0
LINE
  8
0
 10
-217.548
 20
-37.7377
 11
-217.69
 21
-38.2067
  0
LINE
  8
0
 10
-217.69
 20
-38.2067
 11
-217.921
 21
-38.6389
  0
LINE
  8
0
 10
-217.921
 20
-38.6389
 11
-218.232
 21
-39.0178
  0
LINE
  8
0
 10
-218.232
 20
-39.0178
 11
-218.611
 21
-39.3287
  0
LINE
  8
0
 10
-218.611
 20
-39.3287
 11
-219.043
 21
-39.5597
  0
LINE
  8
0
 10
-219.043
 20
-39.5597
 11
-219.512
 21
-39.702
  0
LINE
  8
0
 10
-219.512
 20
-39.702
 11
-220
 21
-39.75
  0
LINE
  8
0
 10
-220
 20
-39.75
 11
-220.488
 21
-39.702
  0
LINE
  8
0
 10
219.512
 20
-39.702
 11
219.043
 21
-39.5597
  0
LINE
  8
0
 10
219.043
 20
-39.5597
 11
218.611
 21
-39.3287
  0
LINE
  8
0
 10
218.611
 20
-39.3287
 11
218.232
 21
-39.0178
  0
LINE
  8
0
 10
218.232
 20
-39.0178
 11
217.921
 21
-38.6389
  0
LINE
  8
0
 10
217.921
 20
-38.6389
 11
217.69
 21
-38.2067
  0
LINE
  8
0
 10
217.69
 20
-38.2067
 11
217.548
 21
-37.7377
  0
LINE
  8
0
 10
217.548
 20
-37.7377
 11
217.5
 21
-37.25
  0
LINE
  8
0
 10
217.5
 20
-37.25
 11
217.548
 21
-36.7623
  0
LINE
  8
0
 10
217.548
 20
-36.7623
 11
217.69
 21
-36.2933
  0
LINE
  8
0
 10
217.69
 20
-36.2933
 11
217.921
 21
-35.8611
  0
LINE
  8
0
 10
217.921
 20
-35.8611
 11
218.232
 21
-35.4822
  0
LINE
  8
0
 10
218.232
 20
-35.4822
 11
218.611
 21
-35.1713
  0
LINE
  8
0
 10
218.611
 20
-35.1713
 11
219.043
 21
-34.9403
  0
LINE
  8
0
 10
219.043
 20
-34.9403
 11
219.512
 21
-34.798
  0
LINE
  8
0
 10
219.512
 20
-34.798
 11
220
 21
-34.75
  0
LINE
  8
0
 10
220
 20
-34.75
 11
220.488
 21
-34.798
  0
LINE
  8
0
 10
220.488
 20
-34.798
 11
220.957
 21
-34.9403
  0
LINE
  8
0
 10
220.957
 20
-34.9403
 11
221.389
 21
-35.1713
  0
LINE
  8
0
 10
221.389
 20
-35.1713
 11
221.768
 21
-35.4822
  0
LINE
  8
0
 10
221.768
 20
-35.4822
 11
222.079
 21
-35.8611
  0
LINE
  8
0
 10
222.079
 20
-35.8611
 11
222.31
 21
-36.2933
  0
LINE
  8
0
 10
222.31
 20
-36.2933
 11
222.452
 21
-36.7623
  0
LINE
  8
0
 10
222.452
 20
-36.7623
 11
222.5
 21
-37.25
  0
LINE
  8
0
 10
222.5
 20
-37.25
 11
222.452
 21
-37.7377
  0
LINE
  8
0
 10
222.452
 20
-37.7377
 11
222.31
 21
-38.2067
  0
LINE
  8
0
 10
222.31
 20
-38.2067
 11
222.079
 21
-38.6389
  0
LINE
  8
0
 10
222.079
 20
-38.6389
 11
221.768
 21
-39.0178
  0
LINE
  8
0
 10
221.768
 20
-39.0178
 11
221.389
 21
-39.3287
  0
LINE
  8
0
 10
221.389
 20
-39.3287
 11
220.957
 21
-39.5597
  0
LINE
  8
0
 10
220.957
 20
-39.5597
 11
220.488
 21
-39.702
  0
LINE
  8
0
 10
220.488
 20
-39.702
 11
220
 21
-39.75
  0
LINE
  8
0
 10
220
 20
-39.75
 11
219.512
 21
-39.702
  0
LINE
  8
0
 10
124.5
 20
-49.25
 11
124.5
 21
-44.25
  0
LINE
  8
0
 10
124.5
 20
-44.25
 11
127.5
 21
-44.25
  0
LINE
  8
0
 10
127.5
 20
-44.25
 11
127.5
 21
-49.25
  0
LINE
  8
0
 10
127.5
 20
-49.25
 11
124.5
 21
-49.25
  0
LINE
  8
0
 10
-127.5
 20
-49.25
 11
-127.5
 21
-44.25
  0
LINE
  8
0
 10
-127.5
 20
-44.25
 11
-124.5
 21
-44.25
  0
LINE
  8
0
 10
-124.5
 20
-44.25
 11
-124.5
 21
-49.25
  0
LINE
  8
0
 10
-124.5
 20
-49.25
 11
-127.5
 21
-49.25
  0
LINE
  8
0
 10
102.5
 20
-49.25
 11
102.5
 21
-44.25
  0
LINE
  8
0
 10
102.5
 20
-44.25
 11
105.5
 21
-44.25
  0
LINE
  8
0
 10
105.5
 20
-44.25
 11
105.5
 21
-49.25
  0
LINE
  8
0
 10
105.5
 20
-49.25
 11
102.5
 21
-49.25
  0
LINE
  8
0
 10
-105.5
 20
-49.25
 11
-105.5
 21
-44.25
  0
LINE
  8
0
 10
-105.5
 20
-44.25
 11
-102.5
 21
-44.25
  0
LINE
  8
0
 10
-102.5
 20
-44.25
 11
-102.5
 21
-49.25
  0
LINE
  8
0
 10
-102.5
 20
-49.25
 11
-105.5
 21
-49.25
  0
ENDSEC
  0
SECTION
  2
OBJECTS
  0
DICTIONARY
  0
ENDSEC
  0
EOF
