  0
SECTION
  2
BLOCKS
  0
ENDSEC
  0
SECTION
  2
ENTITIES
  0
LINE
  8
0
 10
-57
 20
-14.875
 11
-57
 21
-10
  0
LINE
  8
0
 10
-57
 20
-10
 11
-19
 21
-10
  0
LINE
  8
0
 10
-19
 20
-10
 11
-19
 21
-14.875
  0
LINE
  8
0
 10
-19
 20
-14.875
 11
-17.375
 21
-16.5
  0
LINE
  8
0
 10
-17.375
 20
-16.5
 11
17.375
 21
-16.5
  0
LINE
  8
0
 10
17.375
 20
-16.5
 11
19
 21
-14.875
  0
LINE
  8
0
 10
19
 20
-14.875
 11
19
 21
-10
  0
LINE
  8
0
 10
19
 20
-10
 11
57
 21
-10
  0
LINE
  8
0
 10
57
 20
-10
 11
57
 21
-14.875
  0
LINE
  8
0
 10
57
 20
-14.875
 11
58.625
 21
-16.5
  0
LINE
  8
0
 10
58.625
 20
-16.5
 11
93.375
 21
-16.5
  0
LINE
  8
0
 10
93.375
 20
-16.5
 11
95
 21
-14.875
  0
LINE
  8
0
 10
95
 20
-14.875
 11
95
 21
-10
  0
LINE
  8
0
 10
95
 20
-10
 11
100
 21
-10
  0
LINE
  8
0
 10
100
 20
-10
 11
100
 21
10
  0
LINE
  8
0
 10
100
 20
10
 11
57
 21
10
  0
LINE
  8
0
 10
57
 20
10
 11
57
 21
14.875
  0
LINE
  8
0
 10
57
 20
14.875
 11
55.375
 21
16.5
  0
LINE
  8
0
 10
55.375
 20
16.5
 11
20.625
 21
16.5
  0
LINE
  8
0
 10
20.625
 20
16.5
 11
19
 21
14.875
  0
LINE
  8
0
 10
19
 20
14.875
 11
19
 21
10
  0
LINE
  8
0
 10
19
 20
10
 11
-19
 21
10
  0
LINE
  8
0
 10
-19
 20
10
 11
-19
 21
14.875
  0
LINE
  8
0
 10
-19
 20
14.875
 11
-20.625
 21
16.5
  0
LINE
  8
0
 10
-20.625
 20
16.5
 11
-55.375
 21
16.5
  0
LINE
  8
0
 10
-55.375
 20
16.5
 11
-57
 21
14.875
  0
LINE
  8
0
 10
-57
 20
14.875
 11
-57
 21
10
  0
LINE
  8
0
 10
-57
 20
10
 11
-100
 21
10
  0
LINE
  8
0
 10
-100
 20
10
 11
-100
 21
-10
  0
LINE
  8
0
 10
-100
 20
-10
 11
-95
 21
-10
  0
LINE
  8
0
 10
-95
 20
-10
 11
-95
 21
-14.875
  0
LINE
  8
0
 10
-95
 20
-14.875
 11
-93.375
 21
-16.5
  0
LINE
  8
0
 10
-93.375
 20
-16.5
 11
-58.625
 21
-16.5
  0
LINE
  8
0
 10
-58.625
 20
-16.5
 11
-57
 21
-14.875
  0
ENDSEC
  0
SECTION
  2
OBJECTS
  0
DICTIONARY
  0
ENDSEC
  0
EOF
