  0
SECTION
  2
BLOCKS
  0
ENDSEC
  0
SECTION
  2
ENTITIES
  0
LINE
  8
0
 10
-72
 20
-14.875
 11
-72
 21
-10
  0
LINE
  8
0
 10
-72
 20
-10
 11
-24
 21
-10
  0
LINE
  8
0
 10
-24
 20
-10
 11
-24
 21
-14.875
  0
LINE
  8
0
 10
-24
 20
-14.875
 11
-22.375
 21
-16.5
  0
LINE
  8
0
 10
-22.375
 20
-16.5
 11
22.375
 21
-16.5
  0
LINE
  8
0
 10
22.375
 20
-16.5
 11
24
 21
-14.875
  0
LINE
  8
0
 10
24
 20
-14.875
 11
24
 21
-10
  0
LINE
  8
0
 10
24
 20
-10
 11
72
 21
-10
  0
LINE
  8
0
 10
72
 20
-10
 11
72
 21
-14.875
  0
LINE
  8
0
 10
72
 20
-14.875
 11
73.625
 21
-16.5
  0
LINE
  8
0
 10
73.625
 20
-16.5
 11
118.375
 21
-16.5
  0
LINE
  8
0
 10
118.375
 20
-16.5
 11
120
 21
-14.875
  0
LINE
  8
0
 10
120
 20
-14.875
 11
120
 21
-10
  0
LINE
  8
0
 10
120
 20
-10
 11
125
 21
-10
  0
LINE
  8
0
 10
125
 20
-10
 11
125
 21
10
  0
LINE
  8
0
 10
125
 20
10
 11
72
 21
10
  0
LINE
  8
0
 10
72
 20
10
 11
72
 21
14.875
  0
LINE
  8
0
 10
72
 20
14.875
 11
70.375
 21
16.5
  0
LINE
  8
0
 10
70.375
 20
16.5
 11
25.625
 21
16.5
  0
LINE
  8
0
 10
25.625
 20
16.5
 11
24
 21
14.875
  0
LINE
  8
0
 10
24
 20
14.875
 11
24
 21
10
  0
LINE
  8
0
 10
24
 20
10
 11
-24
 21
10
  0
LINE
  8
0
 10
-24
 20
10
 11
-24
 21
14.875
  0
LINE
  8
0
 10
-24
 20
14.875
 11
-25.625
 21
16.5
  0
LINE
  8
0
 10
-25.625
 20
16.5
 11
-70.375
 21
16.5
  0
LINE
  8
0
 10
-70.375
 20
16.5
 11
-72
 21
14.875
  0
LINE
  8
0
 10
-72
 20
14.875
 11
-72
 21
10
  0
LINE
  8
0
 10
-72
 20
10
 11
-125
 21
10
  0
LINE
  8
0
 10
-125
 20
10
 11
-125
 21
-10
  0
LINE
  8
0
 10
-125
 20
-10
 11
-120
 21
-10
  0
LINE
  8
0
 10
-120
 20
-10
 11
-120
 21
-14.875
  0
LINE
  8
0
 10
-120
 20
-14.875
 11
-118.375
 21
-16.5
  0
LINE
  8
0
 10
-118.375
 20
-16.5
 11
-73.625
 21
-16.5
  0
LINE
  8
0
 10
-73.625
 20
-16.5
 11
-72
 21
-14.875
  0
ENDSEC
  0
SECTION
  2
OBJECTS
  0
DICTIONARY
  0
ENDSEC
  0
EOF
