  0
SECTION
  2
BLOCKS
  0
ENDSEC
  0
SECTION
  2
ENTITIES
  0
LINE
  8
0
 10
-164
 20
-14.875
 11
-164
 21
-10
  0
LINE
  8
0
 10
-164
 20
-10
 11
-123
 21
-10
  0
LINE
  8
0
 10
-123
 20
-10
 11
-123
 21
-14.875
  0
LINE
  8
0
 10
-123
 20
-14.875
 11
-121.375
 21
-16.5
  0
LINE
  8
0
 10
-121.375
 20
-16.5
 11
-83.625
 21
-16.5
  0
LINE
  8
0
 10
-83.625
 20
-16.5
 11
-82
 21
-14.875
  0
LINE
  8
0
 10
-82
 20
-14.875
 11
-82
 21
-10
  0
LINE
  8
0
 10
-82
 20
-10
 11
-41
 21
-10
  0
LINE
  8
0
 10
-41
 20
-10
 11
-41
 21
-14.875
  0
LINE
  8
0
 10
-41
 20
-14.875
 11
-39.375
 21
-16.5
  0
LINE
  8
0
 10
-39.375
 20
-16.5
 11
-1.625
 21
-16.5
  0
LINE
  8
0
 10
-1.625
 20
-16.5
 11
0
 21
-14.875
  0
LINE
  8
0
 10
0
 20
-14.875
 11
0
 21
-10
  0
LINE
  8
0
 10
0
 20
-10
 11
41
 21
-10
  0
LINE
  8
0
 10
41
 20
-10
 11
41
 21
-14.875
  0
LINE
  8
0
 10
41
 20
-14.875
 11
42.625
 21
-16.5
  0
LINE
  8
0
 10
42.625
 20
-16.5
 11
80.375
 21
-16.5
  0
LINE
  8
0
 10
80.375
 20
-16.5
 11
82
 21
-14.875
  0
LINE
  8
0
 10
82
 20
-14.875
 11
82
 21
-10
  0
LINE
  8
0
 10
82
 20
-10
 11
123
 21
-10
  0
LINE
  8
0
 10
123
 20
-10
 11
123
 21
-14.875
  0
LINE
  8
0
 10
123
 20
-14.875
 11
124.625
 21
-16.5
  0
LINE
  8
0
 10
124.625
 20
-16.5
 11
162.375
 21
-16.5
  0
LINE
  8
0
 10
162.375
 20
-16.5
 11
164
 21
-14.875
  0
LINE
  8
0
 10
164
 20
-14.875
 11
164
 21
-10
  0
LINE
  8
0
 10
164
 20
-10
 11
210
 21
-10
  0
LINE
  8
0
 10
210
 20
-10
 11
210
 21
10
  0
LINE
  8
0
 10
210
 20
10
 11
205
 21
10
  0
LINE
  8
0
 10
205
 20
10
 11
205
 21
14.875
  0
LINE
  8
0
 10
205
 20
14.875
 11
203.375
 21
16.5
  0
LINE
  8
0
 10
203.375
 20
16.5
 11
165.625
 21
16.5
  0
LINE
  8
0
 10
165.625
 20
16.5
 11
164
 21
14.875
  0
LINE
  8
0
 10
164
 20
14.875
 11
164
 21
10
  0
LINE
  8
0
 10
164
 20
10
 11
123
 21
10
  0
LINE
  8
0
 10
123
 20
10
 11
123
 21
14.875
  0
LINE
  8
0
 10
123
 20
14.875
 11
121.375
 21
16.5
  0
LINE
  8
0
 10
121.375
 20
16.5
 11
83.625
 21
16.5
  0
LINE
  8
0
 10
83.625
 20
16.5
 11
82
 21
14.875
  0
LINE
  8
0
 10
82
 20
14.875
 11
82
 21
10
  0
LINE
  8
0
 10
82
 20
10
 11
41
 21
10
  0
LINE
  8
0
 10
41
 20
10
 11
41
 21
14.875
  0
LINE
  8
0
 10
41
 20
14.875
 11
39.375
 21
16.5
  0
LINE
  8
0
 10
39.375
 20
16.5
 11
1.625
 21
16.5
  0
LINE
  8
0
 10
1.625
 20
16.5
 11
0
 21
14.875
  0
LINE
  8
0
 10
0
 20
14.875
 11
0
 21
10
  0
LINE
  8
0
 10
0
 20
10
 11
-41
 21
10
  0
LINE
  8
0
 10
-41
 20
10
 11
-41
 21
14.875
  0
LINE
  8
0
 10
-41
 20
14.875
 11
-42.625
 21
16.5
  0
LINE
  8
0
 10
-42.625
 20
16.5
 11
-80.375
 21
16.5
  0
LINE
  8
0
 10
-80.375
 20
16.5
 11
-82
 21
14.875
  0
LINE
  8
0
 10
-82
 20
14.875
 11
-82
 21
10
  0
LINE
  8
0
 10
-82
 20
10
 11
-123
 21
10
  0
LINE
  8
0
 10
-123
 20
10
 11
-123
 21
14.875
  0
LINE
  8
0
 10
-123
 20
14.875
 11
-124.625
 21
16.5
  0
LINE
  8
0
 10
-124.625
 20
16.5
 11
-162.375
 21
16.5
  0
LINE
  8
0
 10
-162.375
 20
16.5
 11
-164
 21
14.875
  0
LINE
  8
0
 10
-164
 20
14.875
 11
-164
 21
10
  0
LINE
  8
0
 10
-164
 20
10
 11
-210
 21
10
  0
LINE
  8
0
 10
-210
 20
10
 11
-210
 21
-10
  0
LINE
  8
0
 10
-210
 20
-10
 11
-205
 21
-10
  0
LINE
  8
0
 10
-205
 20
-10
 11
-205
 21
-14.875
  0
LINE
  8
0
 10
-205
 20
-14.875
 11
-203.375
 21
-16.5
  0
LINE
  8
0
 10
-203.375
 20
-16.5
 11
-165.625
 21
-16.5
  0
LINE
  8
0
 10
-165.625
 20
-16.5
 11
-164
 21
-14.875
  0
ENDSEC
  0
SECTION
  2
OBJECTS
  0
DICTIONARY
  0
ENDSEC
  0
EOF
