  0
SECTION
  2
BLOCKS
  0
ENDSEC
  0
SECTION
  2
ENTITIES
  0
LINE
  8
0
 10
-176
 20
-14.875
 11
-176
 21
-10
  0
LINE
  8
0
 10
-176
 20
-10
 11
-132
 21
-10
  0
LINE
  8
0
 10
-132
 20
-10
 11
-132
 21
-14.875
  0
LINE
  8
0
 10
-132
 20
-14.875
 11
-130.375
 21
-16.5
  0
LINE
  8
0
 10
-130.375
 20
-16.5
 11
-89.625
 21
-16.5
  0
LINE
  8
0
 10
-89.625
 20
-16.5
 11
-88
 21
-14.875
  0
LINE
  8
0
 10
-88
 20
-14.875
 11
-88
 21
-10
  0
LINE
  8
0
 10
-88
 20
-10
 11
-44
 21
-10
  0
LINE
  8
0
 10
-44
 20
-10
 11
-44
 21
-14.875
  0
LINE
  8
0
 10
-44
 20
-14.875
 11
-42.375
 21
-16.5
  0
LINE
  8
0
 10
-42.375
 20
-16.5
 11
-1.625
 21
-16.5
  0
LINE
  8
0
 10
-1.625
 20
-16.5
 11
0
 21
-14.875
  0
LINE
  8
0
 10
0
 20
-14.875
 11
0
 21
-10
  0
LINE
  8
0
 10
0
 20
-10
 11
44
 21
-10
  0
LINE
  8
0
 10
44
 20
-10
 11
44
 21
-14.875
  0
LINE
  8
0
 10
44
 20
-14.875
 11
45.625
 21
-16.5
  0
LINE
  8
0
 10
45.625
 20
-16.5
 11
86.375
 21
-16.5
  0
LINE
  8
0
 10
86.375
 20
-16.5
 11
88
 21
-14.875
  0
LINE
  8
0
 10
88
 20
-14.875
 11
88
 21
-10
  0
LINE
  8
0
 10
88
 20
-10
 11
132
 21
-10
  0
LINE
  8
0
 10
132
 20
-10
 11
132
 21
-14.875
  0
LINE
  8
0
 10
132
 20
-14.875
 11
133.625
 21
-16.5
  0
LINE
  8
0
 10
133.625
 20
-16.5
 11
174.375
 21
-16.5
  0
LINE
  8
0
 10
174.375
 20
-16.5
 11
176
 21
-14.875
  0
LINE
  8
0
 10
176
 20
-14.875
 11
176
 21
-10
  0
LINE
  8
0
 10
176
 20
-10
 11
225
 21
-10
  0
LINE
  8
0
 10
225
 20
-10
 11
225
 21
10
  0
LINE
  8
0
 10
225
 20
10
 11
220
 21
10
  0
LINE
  8
0
 10
220
 20
10
 11
220
 21
14.875
  0
LINE
  8
0
 10
220
 20
14.875
 11
218.375
 21
16.5
  0
LINE
  8
0
 10
218.375
 20
16.5
 11
177.625
 21
16.5
  0
LINE
  8
0
 10
177.625
 20
16.5
 11
176
 21
14.875
  0
LINE
  8
0
 10
176
 20
14.875
 11
176
 21
10
  0
LINE
  8
0
 10
176
 20
10
 11
132
 21
10
  0
LINE
  8
0
 10
132
 20
10
 11
132
 21
14.875
  0
LINE
  8
0
 10
132
 20
14.875
 11
130.375
 21
16.5
  0
LINE
  8
0
 10
130.375
 20
16.5
 11
89.625
 21
16.5
  0
LINE
  8
0
 10
89.625
 20
16.5
 11
88
 21
14.875
  0
LINE
  8
0
 10
88
 20
14.875
 11
88
 21
10
  0
LINE
  8
0
 10
88
 20
10
 11
44
 21
10
  0
LINE
  8
0
 10
44
 20
10
 11
44
 21
14.875
  0
LINE
  8
0
 10
44
 20
14.875
 11
42.375
 21
16.5
  0
LINE
  8
0
 10
42.375
 20
16.5
 11
1.625
 21
16.5
  0
LINE
  8
0
 10
1.625
 20
16.5
 11
0
 21
14.875
  0
LINE
  8
0
 10
0
 20
14.875
 11
0
 21
10
  0
LINE
  8
0
 10
0
 20
10
 11
-44
 21
10
  0
LINE
  8
0
 10
-44
 20
10
 11
-44
 21
14.875
  0
LINE
  8
0
 10
-44
 20
14.875
 11
-45.625
 21
16.5
  0
LINE
  8
0
 10
-45.625
 20
16.5
 11
-86.375
 21
16.5
  0
LINE
  8
0
 10
-86.375
 20
16.5
 11
-88
 21
14.875
  0
LINE
  8
0
 10
-88
 20
14.875
 11
-88
 21
10
  0
LINE
  8
0
 10
-88
 20
10
 11
-132
 21
10
  0
LINE
  8
0
 10
-132
 20
10
 11
-132
 21
14.875
  0
LINE
  8
0
 10
-132
 20
14.875
 11
-133.625
 21
16.5
  0
LINE
  8
0
 10
-133.625
 20
16.5
 11
-174.375
 21
16.5
  0
LINE
  8
0
 10
-174.375
 20
16.5
 11
-176
 21
14.875
  0
LINE
  8
0
 10
-176
 20
14.875
 11
-176
 21
10
  0
LINE
  8
0
 10
-176
 20
10
 11
-225
 21
10
  0
LINE
  8
0
 10
-225
 20
10
 11
-225
 21
-10
  0
LINE
  8
0
 10
-225
 20
-10
 11
-220
 21
-10
  0
LINE
  8
0
 10
-220
 20
-10
 11
-220
 21
-14.875
  0
LINE
  8
0
 10
-220
 20
-14.875
 11
-218.375
 21
-16.5
  0
LINE
  8
0
 10
-218.375
 20
-16.5
 11
-177.625
 21
-16.5
  0
LINE
  8
0
 10
-177.625
 20
-16.5
 11
-176
 21
-14.875
  0
ENDSEC
  0
SECTION
  2
OBJECTS
  0
DICTIONARY
  0
ENDSEC
  0
EOF
