  0
SECTION
  2
BLOCKS
  0
ENDSEC
  0
SECTION
  2
ENTITIES
  0
LINE
  8
0
 10
-180
 20
-14.875
 11
-180
 21
-10
  0
LINE
  8
0
 10
-180
 20
-10
 11
-135
 21
-10
  0
LINE
  8
0
 10
-135
 20
-10
 11
-135
 21
-14.875
  0
LINE
  8
0
 10
-135
 20
-14.875
 11
-133.375
 21
-16.5
  0
LINE
  8
0
 10
-133.375
 20
-16.5
 11
-91.625
 21
-16.5
  0
LINE
  8
0
 10
-91.625
 20
-16.5
 11
-90
 21
-14.875
  0
LINE
  8
0
 10
-90
 20
-14.875
 11
-90
 21
-10
  0
LINE
  8
0
 10
-90
 20
-10
 11
-45
 21
-10
  0
LINE
  8
0
 10
-45
 20
-10
 11
-45
 21
-14.875
  0
LINE
  8
0
 10
-45
 20
-14.875
 11
-43.375
 21
-16.5
  0
LINE
  8
0
 10
-43.375
 20
-16.5
 11
-1.625
 21
-16.5
  0
LINE
  8
0
 10
-1.625
 20
-16.5
 11
0
 21
-14.875
  0
LINE
  8
0
 10
0
 20
-14.875
 11
0
 21
-10
  0
LINE
  8
0
 10
0
 20
-10
 11
45
 21
-10
  0
LINE
  8
0
 10
45
 20
-10
 11
45
 21
-14.875
  0
LINE
  8
0
 10
45
 20
-14.875
 11
46.625
 21
-16.5
  0
LINE
  8
0
 10
46.625
 20
-16.5
 11
88.375
 21
-16.5
  0
LINE
  8
0
 10
88.375
 20
-16.5
 11
90
 21
-14.875
  0
LINE
  8
0
 10
90
 20
-14.875
 11
90
 21
-10
  0
LINE
  8
0
 10
90
 20
-10
 11
135
 21
-10
  0
LINE
  8
0
 10
135
 20
-10
 11
135
 21
-14.875
  0
LINE
  8
0
 10
135
 20
-14.875
 11
136.625
 21
-16.5
  0
LINE
  8
0
 10
136.625
 20
-16.5
 11
178.375
 21
-16.5
  0
LINE
  8
0
 10
178.375
 20
-16.5
 11
180
 21
-14.875
  0
LINE
  8
0
 10
180
 20
-14.875
 11
180
 21
-10
  0
LINE
  8
0
 10
180
 20
-10
 11
230
 21
-10
  0
LINE
  8
0
 10
230
 20
-10
 11
230
 21
10
  0
LINE
  8
0
 10
230
 20
10
 11
225
 21
10
  0
LINE
  8
0
 10
225
 20
10
 11
225
 21
14.875
  0
LINE
  8
0
 10
225
 20
14.875
 11
223.375
 21
16.5
  0
LINE
  8
0
 10
223.375
 20
16.5
 11
181.625
 21
16.5
  0
LINE
  8
0
 10
181.625
 20
16.5
 11
180
 21
14.875
  0
LINE
  8
0
 10
180
 20
14.875
 11
180
 21
10
  0
LINE
  8
0
 10
180
 20
10
 11
135
 21
10
  0
LINE
  8
0
 10
135
 20
10
 11
135
 21
14.875
  0
LINE
  8
0
 10
135
 20
14.875
 11
133.375
 21
16.5
  0
LINE
  8
0
 10
133.375
 20
16.5
 11
91.625
 21
16.5
  0
LINE
  8
0
 10
91.625
 20
16.5
 11
90
 21
14.875
  0
LINE
  8
0
 10
90
 20
14.875
 11
90
 21
10
  0
LINE
  8
0
 10
90
 20
10
 11
45
 21
10
  0
LINE
  8
0
 10
45
 20
10
 11
45
 21
14.875
  0
LINE
  8
0
 10
45
 20
14.875
 11
43.375
 21
16.5
  0
LINE
  8
0
 10
43.375
 20
16.5
 11
1.625
 21
16.5
  0
LINE
  8
0
 10
1.625
 20
16.5
 11
0
 21
14.875
  0
LINE
  8
0
 10
0
 20
14.875
 11
0
 21
10
  0
LINE
  8
0
 10
0
 20
10
 11
-45
 21
10
  0
LINE
  8
0
 10
-45
 20
10
 11
-45
 21
14.875
  0
LINE
  8
0
 10
-45
 20
14.875
 11
-46.625
 21
16.5
  0
LINE
  8
0
 10
-46.625
 20
16.5
 11
-88.375
 21
16.5
  0
LINE
  8
0
 10
-88.375
 20
16.5
 11
-90
 21
14.875
  0
LINE
  8
0
 10
-90
 20
14.875
 11
-90
 21
10
  0
LINE
  8
0
 10
-90
 20
10
 11
-135
 21
10
  0
LINE
  8
0
 10
-135
 20
10
 11
-135
 21
14.875
  0
LINE
  8
0
 10
-135
 20
14.875
 11
-136.625
 21
16.5
  0
LINE
  8
0
 10
-136.625
 20
16.5
 11
-178.375
 21
16.5
  0
LINE
  8
0
 10
-178.375
 20
16.5
 11
-180
 21
14.875
  0
LINE
  8
0
 10
-180
 20
14.875
 11
-180
 21
10
  0
LINE
  8
0
 10
-180
 20
10
 11
-230
 21
10
  0
LINE
  8
0
 10
-230
 20
10
 11
-230
 21
-10
  0
LINE
  8
0
 10
-230
 20
-10
 11
-225
 21
-10
  0
LINE
  8
0
 10
-225
 20
-10
 11
-225
 21
-14.875
  0
LINE
  8
0
 10
-225
 20
-14.875
 11
-223.375
 21
-16.5
  0
LINE
  8
0
 10
-223.375
 20
-16.5
 11
-181.625
 21
-16.5
  0
LINE
  8
0
 10
-181.625
 20
-16.5
 11
-180
 21
-14.875
  0
ENDSEC
  0
SECTION
  2
OBJECTS
  0
DICTIONARY
  0
ENDSEC
  0
EOF
