  0
SECTION
  2
BLOCKS
  0
ENDSEC
  0
SECTION
  2
ENTITIES
  0
LINE
  8
0
 10
-48.4493
 20
245
 11
-122.5
 21
245
  0
LINE
  8
0
 10
-122.5
 20
245
 11
-122.5
 21
249.875
  0
LINE
  8
0
 10
-122.5
 20
249.875
 11
-124.125
 21
251.5
  0
LINE
  8
0
 10
-124.125
 20
251.5
 11
-135.875
 21
251.5
  0
LINE
  8
0
 10
-135.875
 20
251.5
 11
-137.5
 21
249.875
  0
LINE
  8
0
 10
-137.5
 20
249.875
 11
-137.5
 21
245
  0
LINE
  8
0
 10
-137.5
 20
245
 11
-142.6
 21
245
  0
LINE
  8
0
 10
-142.6
 20
245
 11
-142.6
 21
238.1
  0
LINE
  8
0
 10
-142.6
 20
238.1
 11
-141.05
 21
238.1
  0
LINE
  8
0
 10
-141.05
 20
238.1
 11
-141.05
 21
232.4
  0
LINE
  8
0
 10
-141.05
 20
232.4
 11
-142.6
 21
232.4
  0
LINE
  8
0
 10
-142.6
 20
232.4
 11
-142.6
 21
225.5
  0
LINE
  8
0
 10
-142.6
 20
225.5
 11
-147.4
 21
225.5
  0
LINE
  8
0
 10
-147.4
 20
225.5
 11
-147.4
 21
232.4
  0
LINE
  8
0
 10
-147.4
 20
232.4
 11
-148.95
 21
232.4
  0
LINE
  8
0
 10
-148.95
 20
232.4
 11
-148.95
 21
238.1
  0
LINE
  8
0
 10
-148.95
 20
238.1
 11
-147.4
 21
238.1
  0
LINE
  8
0
 10
-147.4
 20
238.1
 11
-147.4
 21
245
  0
LINE
  8
0
 10
-147.4
 20
245
 11
-152.5
 21
245
  0
LINE
  8
0
 10
-152.5
 20
245
 11
-152.5
 21
249.875
  0
LINE
  8
0
 10
-152.5
 20
249.875
 11
-154.125
 21
251.5
  0
LINE
  8
0
 10
-154.125
 20
251.5
 11
-165.875
 21
251.5
  0
LINE
  8
0
 10
-165.875
 20
251.5
 11
-167.5
 21
249.875
  0
LINE
  8
0
 10
-167.5
 20
249.875
 11
-167.5
 21
245
  0
LINE
  8
0
 10
-167.5
 20
245
 11
-245
 21
245
  0
LINE
  8
0
 10
-245
 20
245
 11
-245
 21
167.5
  0
LINE
  8
0
 10
-245
 20
167.5
 11
-249.875
 21
167.5
  0
LINE
  8
0
 10
-249.875
 20
167.5
 11
-251.5
 21
165.875
  0
LINE
  8
0
 10
-251.5
 20
165.875
 11
-251.5
 21
154.125
  0
LINE
  8
0
 10
-251.5
 20
154.125
 11
-249.875
 21
152.5
  0
LINE
  8
0
 10
-249.875
 20
152.5
 11
-245
 21
152.5
  0
LINE
  8
0
 10
-245
 20
152.5
 11
-245
 21
147.4
  0
LINE
  8
0
 10
-245
 20
147.4
 11
-238.1
 21
147.4
  0
LINE
  8
0
 10
-238.1
 20
147.4
 11
-238.1
 21
148.95
  0
LINE
  8
0
 10
-238.1
 20
148.95
 11
-232.4
 21
148.95
  0
LINE
  8
0
 10
-232.4
 20
148.95
 11
-232.4
 21
147.4
  0
LINE
  8
0
 10
-232.4
 20
147.4
 11
-225.5
 21
147.4
  0
LINE
  8
0
 10
-225.5
 20
147.4
 11
-225.5
 21
142.6
  0
LINE
  8
0
 10
-225.5
 20
142.6
 11
-232.4
 21
142.6
  0
LINE
  8
0
 10
-232.4
 20
142.6
 11
-232.4
 21
141.05
  0
LINE
  8
0
 10
-232.4
 20
141.05
 11
-238.1
 21
141.05
  0
LINE
  8
0
 10
-238.1
 20
141.05
 11
-238.1
 21
142.6
  0
LINE
  8
0
 10
-238.1
 20
142.6
 11
-245
 21
142.6
  0
LINE
  8
0
 10
-245
 20
142.6
 11
-245
 21
137.5
  0
LINE
  8
0
 10
-245
 20
137.5
 11
-249.875
 21
137.5
  0
LINE
  8
0
 10
-249.875
 20
137.5
 11
-251.5
 21
135.875
  0
LINE
  8
0
 10
-251.5
 20
135.875
 11
-251.5
 21
124.125
  0
LINE
  8
0
 10
-251.5
 20
124.125
 11
-249.875
 21
122.5
  0
LINE
  8
0
 10
-249.875
 20
122.5
 11
-245
 21
122.5
  0
LINE
  8
0
 10
-245
 20
122.5
 11
-245
 21
48.4493
  0
LINE
  8
0
 10
-245
 20
48.4493
 11
-48.4493
 21
245
  0
LINE
  8
0
 10
-238
 20
238.95
 11
-242
 21
242.95
  0
LINE
  8
0
 10
-242
 20
242.95
 11
-242
 21
243.05
  0
LINE
  8
0
 10
-242
 20
243.05
 11
-228
 21
243.05
  0
LINE
  8
0
 10
-228
 20
243.05
 11
-228
 21
242.95
  0
LINE
  8
0
 10
-228
 20
242.95
 11
-232
 21
238.95
  0
LINE
  8
0
 10
-232
 20
238.95
 11
-238
 21
238.95
  0
LINE
  8
0
 10
-243.05
 20
228
 11
-243.05
 21
242
  0
LINE
  8
0
 10
-243.05
 20
242
 11
-242.95
 21
242
  0
LINE
  8
0
 10
-242.95
 20
242
 11
-238.95
 21
238
  0
LINE
  8
0
 10
-238.95
 20
238
 11
-238.95
 21
232
  0
LINE
  8
0
 10
-238.95
 20
232
 11
-242.95
 21
228
  0
LINE
  8
0
 10
-242.95
 20
228
 11
-243.05
 21
228
  0
LINE
  8
0
 10
-227.05
 20
228
 11
-231.05
 21
232
  0
LINE
  8
0
 10
-231.05
 20
232
 11
-231.05
 21
238
  0
LINE
  8
0
 10
-231.05
 20
238
 11
-227.05
 21
242
  0
LINE
  8
0
 10
-227.05
 20
242
 11
-226.95
 21
242
  0
LINE
  8
0
 10
-226.95
 20
242
 11
-226.95
 21
239.25
  0
LINE
  8
0
 10
-226.95
 20
239.25
 11
-223
 21
239.25
  0
LINE
  8
0
 10
-223
 20
239.25
 11
-223
 21
230.75
  0
LINE
  8
0
 10
-223
 20
230.75
 11
-226.95
 21
230.75
  0
LINE
  8
0
 10
-226.95
 20
230.75
 11
-226.95
 21
228
  0
LINE
  8
0
 10
-226.95
 20
228
 11
-227.05
 21
228
  0
LINE
  8
0
 10
-214
 20
230.75
 11
-214
 21
239.25
  0
LINE
  8
0
 10
-214
 20
239.25
 11
-210
 21
239.25
  0
LINE
  8
0
 10
-210
 20
239.25
 11
-210
 21
230.75
  0
LINE
  8
0
 10
-210
 20
230.75
 11
-214
 21
230.75
  0
LINE
  8
0
 10
-235.249
 20
232.312
 11
-235.739
 21
232.403
  0
LINE
  8
0
 10
-235.739
 20
232.403
 11
-236.203
 21
232.583
  0
LINE
  8
0
 10
-236.203
 20
232.583
 11
-236.627
 21
232.845
  0
LINE
  8
0
 10
-236.627
 20
232.845
 11
-236.995
 21
233.181
  0
LINE
  8
0
 10
-236.995
 20
233.181
 11
-237.296
 21
233.579
  0
LINE
  8
0
 10
-237.296
 20
233.579
 11
-237.518
 21
234.025
  0
LINE
  8
0
 10
-237.518
 20
234.025
 11
-237.654
 21
234.504
  0
LINE
  8
0
 10
-237.654
 20
234.504
 11
-237.7
 21
235
  0
LINE
  8
0
 10
-237.7
 20
235
 11
-237.654
 21
235.496
  0
LINE
  8
0
 10
-237.654
 20
235.496
 11
-237.518
 21
235.975
  0
LINE
  8
0
 10
-237.518
 20
235.975
 11
-237.296
 21
236.421
  0
LINE
  8
0
 10
-237.296
 20
236.421
 11
-236.995
 21
236.819
  0
LINE
  8
0
 10
-236.995
 20
236.819
 11
-236.627
 21
237.155
  0
LINE
  8
0
 10
-236.627
 20
237.155
 11
-236.203
 21
237.417
  0
LINE
  8
0
 10
-236.203
 20
237.417
 11
-235.739
 21
237.597
  0
LINE
  8
0
 10
-235.739
 20
237.597
 11
-235.249
 21
237.688
  0
LINE
  8
0
 10
-235.249
 20
237.688
 11
-234.751
 21
237.688
  0
LINE
  8
0
 10
-234.751
 20
237.688
 11
-234.261
 21
237.597
  0
LINE
  8
0
 10
-234.261
 20
237.597
 11
-233.797
 21
237.417
  0
LINE
  8
0
 10
-233.797
 20
237.417
 11
-233.373
 21
237.155
  0
LINE
  8
0
 10
-233.373
 20
237.155
 11
-233.005
 21
236.819
  0
LINE
  8
0
 10
-233.005
 20
236.819
 11
-232.704
 21
236.421
  0
LINE
  8
0
 10
-232.704
 20
236.421
 11
-232.482
 21
235.975
  0
LINE
  8
0
 10
-232.482
 20
235.975
 11
-232.346
 21
235.496
  0
LINE
  8
0
 10
-232.346
 20
235.496
 11
-232.3
 21
235
  0
LINE
  8
0
 10
-232.3
 20
235
 11
-232.346
 21
234.504
  0
LINE
  8
0
 10
-232.346
 20
234.504
 11
-232.482
 21
234.025
  0
LINE
  8
0
 10
-232.482
 20
234.025
 11
-232.704
 21
233.579
  0
LINE
  8
0
 10
-232.704
 20
233.579
 11
-233.005
 21
233.181
  0
LINE
  8
0
 10
-233.005
 20
233.181
 11
-233.373
 21
232.845
  0
LINE
  8
0
 10
-233.373
 20
232.845
 11
-233.797
 21
232.583
  0
LINE
  8
0
 10
-233.797
 20
232.583
 11
-234.261
 21
232.403
  0
LINE
  8
0
 10
-234.261
 20
232.403
 11
-234.751
 21
232.312
  0
LINE
  8
0
 10
-234.751
 20
232.312
 11
-235.249
 21
232.312
  0
LINE
  8
0
 10
-227.05
 20
208
 11
-231.05
 21
212
  0
LINE
  8
0
 10
-231.05
 20
212
 11
-231.05
 21
218
  0
LINE
  8
0
 10
-231.05
 20
218
 11
-227.05
 21
222
  0
LINE
  8
0
 10
-227.05
 20
222
 11
-226.95
 21
222
  0
LINE
  8
0
 10
-226.95
 20
222
 11
-226.95
 21
208
  0
LINE
  8
0
 10
-226.95
 20
208
 11
-227.05
 21
208
  0
LINE
  8
0
 10
-243.05
 20
208
 11
-243.05
 21
222
  0
LINE
  8
0
 10
-243.05
 20
222
 11
-242.95
 21
222
  0
LINE
  8
0
 10
-242.95
 20
222
 11
-238.95
 21
218
  0
LINE
  8
0
 10
-238.95
 20
218
 11
-238.95
 21
212
  0
LINE
  8
0
 10
-238.95
 20
212
 11
-242.95
 21
208
  0
LINE
  8
0
 10
-242.95
 20
208
 11
-243.05
 21
208
  0
LINE
  8
0
 10
-113.243
 20
193.924
 11
-86.4438
 21
220.723
  0
LINE
  8
0
 10
-86.4438
 20
220.723
 11
-81.9183
 21
216.198
  0
LINE
  8
0
 10
-81.9183
 20
216.198
 11
-108.718
 21
189.399
  0
LINE
  8
0
 10
-108.718
 20
189.399
 11
-113.243
 21
193.924
  0
LINE
  8
0
 10
-235.249
 20
212.312
 11
-235.739
 21
212.403
  0
LINE
  8
0
 10
-235.739
 20
212.403
 11
-236.203
 21
212.583
  0
LINE
  8
0
 10
-236.203
 20
212.583
 11
-236.627
 21
212.845
  0
LINE
  8
0
 10
-236.627
 20
212.845
 11
-236.995
 21
213.181
  0
LINE
  8
0
 10
-236.995
 20
213.181
 11
-237.296
 21
213.579
  0
LINE
  8
0
 10
-237.296
 20
213.579
 11
-237.518
 21
214.025
  0
LINE
  8
0
 10
-237.518
 20
214.025
 11
-237.654
 21
214.504
  0
LINE
  8
0
 10
-237.654
 20
214.504
 11
-237.7
 21
215
  0
LINE
  8
0
 10
-237.7
 20
215
 11
-237.654
 21
215.496
  0
LINE
  8
0
 10
-237.654
 20
215.496
 11
-237.518
 21
215.975
  0
LINE
  8
0
 10
-237.518
 20
215.975
 11
-237.296
 21
216.421
  0
LINE
  8
0
 10
-237.296
 20
216.421
 11
-236.995
 21
216.819
  0
LINE
  8
0
 10
-236.995
 20
216.819
 11
-236.627
 21
217.155
  0
LINE
  8
0
 10
-236.627
 20
217.155
 11
-236.203
 21
217.417
  0
LINE
  8
0
 10
-236.203
 20
217.417
 11
-235.739
 21
217.597
  0
LINE
  8
0
 10
-235.739
 20
217.597
 11
-235.249
 21
217.688
  0
LINE
  8
0
 10
-235.249
 20
217.688
 11
-234.751
 21
217.688
  0
LINE
  8
0
 10
-234.751
 20
217.688
 11
-234.261
 21
217.597
  0
LINE
  8
0
 10
-234.261
 20
217.597
 11
-233.797
 21
217.417
  0
LINE
  8
0
 10
-233.797
 20
217.417
 11
-233.373
 21
217.155
  0
LINE
  8
0
 10
-233.373
 20
217.155
 11
-233.005
 21
216.819
  0
LINE
  8
0
 10
-233.005
 20
216.819
 11
-232.704
 21
216.421
  0
LINE
  8
0
 10
-232.704
 20
216.421
 11
-232.482
 21
215.975
  0
LINE
  8
0
 10
-232.482
 20
215.975
 11
-232.346
 21
215.496
  0
LINE
  8
0
 10
-232.346
 20
215.496
 11
-232.3
 21
215
  0
LINE
  8
0
 10
-232.3
 20
215
 11
-232.346
 21
214.504
  0
LINE
  8
0
 10
-232.346
 20
214.504
 11
-232.482
 21
214.025
  0
LINE
  8
0
 10
-232.482
 20
214.025
 11
-232.704
 21
213.579
  0
LINE
  8
0
 10
-232.704
 20
213.579
 11
-233.005
 21
213.181
  0
LINE
  8
0
 10
-233.005
 20
213.181
 11
-233.373
 21
212.845
  0
LINE
  8
0
 10
-233.373
 20
212.845
 11
-233.797
 21
212.583
  0
LINE
  8
0
 10
-233.797
 20
212.583
 11
-234.261
 21
212.403
  0
LINE
  8
0
 10
-234.261
 20
212.403
 11
-234.751
 21
212.312
  0
LINE
  8
0
 10
-234.751
 20
212.312
 11
-235.249
 21
212.312
  0
LINE
  8
0
 10
-242
 20
206.95
 11
-242
 21
207.05
  0
LINE
  8
0
 10
-242
 20
207.05
 11
-238
 21
211.05
  0
LINE
  8
0
 10
-238
 20
211.05
 11
-232
 21
211.05
  0
LINE
  8
0
 10
-232
 20
211.05
 11
-228
 21
207.05
  0
LINE
  8
0
 10
-228
 20
207.05
 11
-228
 21
206.95
  0
LINE
  8
0
 10
-228
 20
206.95
 11
-242
 21
206.95
  0
LINE
  8
0
 10
-166.983
 20
140.184
 11
-140.184
 21
166.983
  0
LINE
  8
0
 10
-140.184
 20
166.983
 11
-135.658
 21
162.458
  0
LINE
  8
0
 10
-135.658
 20
162.458
 11
-162.458
 21
135.658
  0
LINE
  8
0
 10
-162.458
 20
135.658
 11
-166.983
 21
140.184
  0
LINE
  8
0
 10
-220.723
 20
86.4438
 11
-193.924
 21
113.243
  0
LINE
  8
0
 10
-193.924
 20
113.243
 11
-189.399
 21
108.718
  0
LINE
  8
0
 10
-189.399
 20
108.718
 11
-216.198
 21
81.9183
  0
LINE
  8
0
 10
-216.198
 20
81.9183
 11
-220.723
 21
86.4438
  0
LINE
  8
0
 10
245
 20
122.5
 11
249.875
 21
122.5
  0
LINE
  8
0
 10
249.875
 20
122.5
 11
251.5
 21
124.125
  0
LINE
  8
0
 10
251.5
 20
124.125
 11
251.5
 21
135.875
  0
LINE
  8
0
 10
251.5
 20
135.875
 11
249.875
 21
137.5
  0
LINE
  8
0
 10
249.875
 20
137.5
 11
245
 21
137.5
  0
LINE
  8
0
 10
245
 20
137.5
 11
245
 21
142.6
  0
LINE
  8
0
 10
245
 20
142.6
 11
238.1
 21
142.6
  0
LINE
  8
0
 10
238.1
 20
142.6
 11
238.1
 21
141.05
  0
LINE
  8
0
 10
238.1
 20
141.05
 11
232.4
 21
141.05
  0
LINE
  8
0
 10
232.4
 20
141.05
 11
232.4
 21
142.6
  0
LINE
  8
0
 10
232.4
 20
142.6
 11
225.5
 21
142.6
  0
LINE
  8
0
 10
225.5
 20
142.6
 11
225.5
 21
147.4
  0
LINE
  8
0
 10
225.5
 20
147.4
 11
232.4
 21
147.4
  0
LINE
  8
0
 10
232.4
 20
147.4
 11
232.4
 21
148.95
  0
LINE
  8
0
 10
232.4
 20
148.95
 11
238.1
 21
148.95
  0
LINE
  8
0
 10
238.1
 20
148.95
 11
238.1
 21
147.4
  0
LINE
  8
0
 10
238.1
 20
147.4
 11
245
 21
147.4
  0
LINE
  8
0
 10
245
 20
147.4
 11
245
 21
152.5
  0
LINE
  8
0
 10
245
 20
152.5
 11
249.875
 21
152.5
  0
LINE
  8
0
 10
249.875
 20
152.5
 11
251.5
 21
154.125
  0
LINE
  8
0
 10
251.5
 20
154.125
 11
251.5
 21
165.875
  0
LINE
  8
0
 10
251.5
 20
165.875
 11
249.875
 21
167.5
  0
LINE
  8
0
 10
249.875
 20
167.5
 11
245
 21
167.5
  0
LINE
  8
0
 10
245
 20
167.5
 11
245
 21
245
  0
LINE
  8
0
 10
245
 20
245
 11
167.5
 21
245
  0
LINE
  8
0
 10
167.5
 20
245
 11
167.5
 21
249.875
  0
LINE
  8
0
 10
167.5
 20
249.875
 11
165.875
 21
251.5
  0
LINE
  8
0
 10
165.875
 20
251.5
 11
154.125
 21
251.5
  0
LINE
  8
0
 10
154.125
 20
251.5
 11
152.5
 21
249.875
  0
LINE
  8
0
 10
152.5
 20
249.875
 11
152.5
 21
245
  0
LINE
  8
0
 10
152.5
 20
245
 11
147.4
 21
245
  0
LINE
  8
0
 10
147.4
 20
245
 11
147.4
 21
238.1
  0
LINE
  8
0
 10
147.4
 20
238.1
 11
148.95
 21
238.1
  0
LINE
  8
0
 10
148.95
 20
238.1
 11
148.95
 21
232.4
  0
LINE
  8
0
 10
148.95
 20
232.4
 11
147.4
 21
232.4
  0
LINE
  8
0
 10
147.4
 20
232.4
 11
147.4
 21
225.5
  0
LINE
  8
0
 10
147.4
 20
225.5
 11
142.6
 21
225.5
  0
LINE
  8
0
 10
142.6
 20
225.5
 11
142.6
 21
232.4
  0
LINE
  8
0
 10
142.6
 20
232.4
 11
141.05
 21
232.4
  0
LINE
  8
0
 10
141.05
 20
232.4
 11
141.05
 21
238.1
  0
LINE
  8
0
 10
141.05
 20
238.1
 11
142.6
 21
238.1
  0
LINE
  8
0
 10
142.6
 20
238.1
 11
142.6
 21
245
  0
LINE
  8
0
 10
142.6
 20
245
 11
137.5
 21
245
  0
LINE
  8
0
 10
137.5
 20
245
 11
137.5
 21
249.875
  0
LINE
  8
0
 10
137.5
 20
249.875
 11
135.875
 21
251.5
  0
LINE
  8
0
 10
135.875
 20
251.5
 11
124.125
 21
251.5
  0
LINE
  8
0
 10
124.125
 20
251.5
 11
122.5
 21
249.875
  0
LINE
  8
0
 10
122.5
 20
249.875
 11
122.5
 21
245
  0
LINE
  8
0
 10
122.5
 20
245
 11
48.4493
 21
245
  0
LINE
  8
0
 10
48.4493
 20
245
 11
245
 21
48.4493
  0
LINE
  8
0
 10
245
 20
48.4493
 11
245
 21
122.5
  0
LINE
  8
0
 10
232
 20
238.95
 11
228
 21
242.95
  0
LINE
  8
0
 10
228
 20
242.95
 11
228
 21
243.05
  0
LINE
  8
0
 10
228
 20
243.05
 11
242
 21
243.05
  0
LINE
  8
0
 10
242
 20
243.05
 11
242
 21
242.95
  0
LINE
  8
0
 10
242
 20
242.95
 11
238
 21
238.95
  0
LINE
  8
0
 10
238
 20
238.95
 11
232
 21
238.95
  0
LINE
  8
0
 10
242.95
 20
228
 11
238.95
 21
232
  0
LINE
  8
0
 10
238.95
 20
232
 11
238.95
 21
238
  0
LINE
  8
0
 10
238.95
 20
238
 11
242.95
 21
242
  0
LINE
  8
0
 10
242.95
 20
242
 11
243.05
 21
242
  0
LINE
  8
0
 10
243.05
 20
242
 11
243.05
 21
228
  0
LINE
  8
0
 10
243.05
 20
228
 11
242.95
 21
228
  0
LINE
  8
0
 10
226.95
 20
228
 11
226.95
 21
230.75
  0
LINE
  8
0
 10
226.95
 20
230.75
 11
223
 21
230.75
  0
LINE
  8
0
 10
223
 20
230.75
 11
223
 21
239.25
  0
LINE
  8
0
 10
223
 20
239.25
 11
226.95
 21
239.25
  0
LINE
  8
0
 10
226.95
 20
239.25
 11
226.95
 21
242
  0
LINE
  8
0
 10
226.95
 20
242
 11
227.05
 21
242
  0
LINE
  8
0
 10
227.05
 20
242
 11
231.05
 21
238
  0
LINE
  8
0
 10
231.05
 20
238
 11
231.05
 21
232
  0
LINE
  8
0
 10
231.05
 20
232
 11
227.05
 21
228
  0
LINE
  8
0
 10
227.05
 20
228
 11
226.95
 21
228
  0
LINE
  8
0
 10
210
 20
230.75
 11
210
 21
239.25
  0
LINE
  8
0
 10
210
 20
239.25
 11
214
 21
239.25
  0
LINE
  8
0
 10
214
 20
239.25
 11
214
 21
230.75
  0
LINE
  8
0
 10
214
 20
230.75
 11
210
 21
230.75
  0
LINE
  8
0
 10
234.751
 20
232.312
 11
234.261
 21
232.403
  0
LINE
  8
0
 10
234.261
 20
232.403
 11
233.797
 21
232.583
  0
LINE
  8
0
 10
233.797
 20
232.583
 11
233.373
 21
232.845
  0
LINE
  8
0
 10
233.373
 20
232.845
 11
233.005
 21
233.181
  0
LINE
  8
0
 10
233.005
 20
233.181
 11
232.704
 21
233.579
  0
LINE
  8
0
 10
232.704
 20
233.579
 11
232.482
 21
234.025
  0
LINE
  8
0
 10
232.482
 20
234.025
 11
232.346
 21
234.504
  0
LINE
  8
0
 10
232.346
 20
234.504
 11
232.3
 21
235
  0
LINE
  8
0
 10
232.3
 20
235
 11
232.346
 21
235.496
  0
LINE
  8
0
 10
232.346
 20
235.496
 11
232.482
 21
235.975
  0
LINE
  8
0
 10
232.482
 20
235.975
 11
232.704
 21
236.421
  0
LINE
  8
0
 10
232.704
 20
236.421
 11
233.005
 21
236.819
  0
LINE
  8
0
 10
233.005
 20
236.819
 11
233.373
 21
237.155
  0
LINE
  8
0
 10
233.373
 20
237.155
 11
233.797
 21
237.417
  0
LINE
  8
0
 10
233.797
 20
237.417
 11
234.261
 21
237.597
  0
LINE
  8
0
 10
234.261
 20
237.597
 11
234.751
 21
237.688
  0
LINE
  8
0
 10
234.751
 20
237.688
 11
235.249
 21
237.688
  0
LINE
  8
0
 10
235.249
 20
237.688
 11
235.739
 21
237.597
  0
LINE
  8
0
 10
235.739
 20
237.597
 11
236.203
 21
237.417
  0
LINE
  8
0
 10
236.203
 20
237.417
 11
236.627
 21
237.155
  0
LINE
  8
0
 10
236.627
 20
237.155
 11
236.995
 21
236.819
  0
LINE
  8
0
 10
236.995
 20
236.819
 11
237.296
 21
236.421
  0
LINE
  8
0
 10
237.296
 20
236.421
 11
237.518
 21
235.975
  0
LINE
  8
0
 10
237.518
 20
235.975
 11
237.654
 21
235.496
  0
LINE
  8
0
 10
237.654
 20
235.496
 11
237.7
 21
235
  0
LINE
  8
0
 10
237.7
 20
235
 11
237.654
 21
234.504
  0
LINE
  8
0
 10
237.654
 20
234.504
 11
237.518
 21
234.025
  0
LINE
  8
0
 10
237.518
 20
234.025
 11
237.296
 21
233.579
  0
LINE
  8
0
 10
237.296
 20
233.579
 11
236.995
 21
233.181
  0
LINE
  8
0
 10
236.995
 20
233.181
 11
236.627
 21
232.845
  0
LINE
  8
0
 10
236.627
 20
232.845
 11
236.203
 21
232.583
  0
LINE
  8
0
 10
236.203
 20
232.583
 11
235.739
 21
232.403
  0
LINE
  8
0
 10
235.739
 20
232.403
 11
235.249
 21
232.312
  0
LINE
  8
0
 10
235.249
 20
232.312
 11
234.751
 21
232.312
  0
LINE
  8
0
 10
242.95
 20
208
 11
238.95
 21
212
  0
LINE
  8
0
 10
238.95
 20
212
 11
238.95
 21
218
  0
LINE
  8
0
 10
238.95
 20
218
 11
242.95
 21
222
  0
LINE
  8
0
 10
242.95
 20
222
 11
243.05
 21
222
  0
LINE
  8
0
 10
243.05
 20
222
 11
243.05
 21
208
  0
LINE
  8
0
 10
243.05
 20
208
 11
242.95
 21
208
  0
LINE
  8
0
 10
226.95
 20
208
 11
226.95
 21
222
  0
LINE
  8
0
 10
226.95
 20
222
 11
227.05
 21
222
  0
LINE
  8
0
 10
227.05
 20
222
 11
231.05
 21
218
  0
LINE
  8
0
 10
231.05
 20
218
 11
231.05
 21
212
  0
LINE
  8
0
 10
231.05
 20
212
 11
227.05
 21
208
  0
LINE
  8
0
 10
227.05
 20
208
 11
226.95
 21
208
  0
LINE
  8
0
 10
81.9183
 20
216.198
 11
86.4438
 21
220.723
  0
LINE
  8
0
 10
86.4438
 20
220.723
 11
113.243
 21
193.924
  0
LINE
  8
0
 10
113.243
 20
193.924
 11
108.718
 21
189.399
  0
LINE
  8
0
 10
108.718
 20
189.399
 11
81.9183
 21
216.198
  0
LINE
  8
0
 10
234.751
 20
212.312
 11
234.261
 21
212.403
  0
LINE
  8
0
 10
234.261
 20
212.403
 11
233.797
 21
212.583
  0
LINE
  8
0
 10
233.797
 20
212.583
 11
233.373
 21
212.845
  0
LINE
  8
0
 10
233.373
 20
212.845
 11
233.005
 21
213.181
  0
LINE
  8
0
 10
233.005
 20
213.181
 11
232.704
 21
213.579
  0
LINE
  8
0
 10
232.704
 20
213.579
 11
232.482
 21
214.025
  0
LINE
  8
0
 10
232.482
 20
214.025
 11
232.346
 21
214.504
  0
LINE
  8
0
 10
232.346
 20
214.504
 11
232.3
 21
215
  0
LINE
  8
0
 10
232.3
 20
215
 11
232.346
 21
215.496
  0
LINE
  8
0
 10
232.346
 20
215.496
 11
232.482
 21
215.975
  0
LINE
  8
0
 10
232.482
 20
215.975
 11
232.704
 21
216.421
  0
LINE
  8
0
 10
232.704
 20
216.421
 11
233.005
 21
216.819
  0
LINE
  8
0
 10
233.005
 20
216.819
 11
233.373
 21
217.155
  0
LINE
  8
0
 10
233.373
 20
217.155
 11
233.797
 21
217.417
  0
LINE
  8
0
 10
233.797
 20
217.417
 11
234.261
 21
217.597
  0
LINE
  8
0
 10
234.261
 20
217.597
 11
234.751
 21
217.688
  0
LINE
  8
0
 10
234.751
 20
217.688
 11
235.249
 21
217.688
  0
LINE
  8
0
 10
235.249
 20
217.688
 11
235.739
 21
217.597
  0
LINE
  8
0
 10
235.739
 20
217.597
 11
236.203
 21
217.417
  0
LINE
  8
0
 10
236.203
 20
217.417
 11
236.627
 21
217.155
  0
LINE
  8
0
 10
236.627
 20
217.155
 11
236.995
 21
216.819
  0
LINE
  8
0
 10
236.995
 20
216.819
 11
237.296
 21
216.421
  0
LINE
  8
0
 10
237.296
 20
216.421
 11
237.518
 21
215.975
  0
LINE
  8
0
 10
237.518
 20
215.975
 11
237.654
 21
215.496
  0
LINE
  8
0
 10
237.654
 20
215.496
 11
237.7
 21
215
  0
LINE
  8
0
 10
237.7
 20
215
 11
237.654
 21
214.504
  0
LINE
  8
0
 10
237.654
 20
214.504
 11
237.518
 21
214.025
  0
LINE
  8
0
 10
237.518
 20
214.025
 11
237.296
 21
213.579
  0
LINE
  8
0
 10
237.296
 20
213.579
 11
236.995
 21
213.181
  0
LINE
  8
0
 10
236.995
 20
213.181
 11
236.627
 21
212.845
  0
LINE
  8
0
 10
236.627
 20
212.845
 11
236.203
 21
212.583
  0
LINE
  8
0
 10
236.203
 20
212.583
 11
235.739
 21
212.403
  0
LINE
  8
0
 10
235.739
 20
212.403
 11
235.249
 21
212.312
  0
LINE
  8
0
 10
235.249
 20
212.312
 11
234.751
 21
212.312
  0
LINE
  8
0
 10
228
 20
206.95
 11
228
 21
207.05
  0
LINE
  8
0
 10
228
 20
207.05
 11
232
 21
211.05
  0
LINE
  8
0
 10
232
 20
211.05
 11
238
 21
211.05
  0
LINE
  8
0
 10
238
 20
211.05
 11
242
 21
207.05
  0
LINE
  8
0
 10
242
 20
207.05
 11
242
 21
206.95
  0
LINE
  8
0
 10
242
 20
206.95
 11
228
 21
206.95
  0
LINE
  8
0
 10
135.658
 20
162.458
 11
140.184
 21
166.983
  0
LINE
  8
0
 10
140.184
 20
166.983
 11
166.983
 21
140.184
  0
LINE
  8
0
 10
166.983
 20
140.184
 11
162.458
 21
135.658
  0
LINE
  8
0
 10
162.458
 20
135.658
 11
135.658
 21
162.458
  0
LINE
  8
0
 10
189.399
 20
108.718
 11
193.924
 21
113.243
  0
LINE
  8
0
 10
193.924
 20
113.243
 11
220.723
 21
86.4438
  0
LINE
  8
0
 10
220.723
 20
86.4438
 11
216.198
 21
81.9183
  0
LINE
  8
0
 10
216.198
 20
81.9183
 11
189.399
 21
108.718
  0
LINE
  8
0
 10
-152.5
 20
-249.875
 11
-152.5
 21
-245
  0
LINE
  8
0
 10
-152.5
 20
-245
 11
-147.4
 21
-245
  0
LINE
  8
0
 10
-147.4
 20
-245
 11
-147.4
 21
-238.1
  0
LINE
  8
0
 10
-147.4
 20
-238.1
 11
-148.95
 21
-238.1
  0
LINE
  8
0
 10
-148.95
 20
-238.1
 11
-148.95
 21
-232.4
  0
LINE
  8
0
 10
-148.95
 20
-232.4
 11
-147.4
 21
-232.4
  0
LINE
  8
0
 10
-147.4
 20
-232.4
 11
-147.4
 21
-225.5
  0
LINE
  8
0
 10
-147.4
 20
-225.5
 11
-142.6
 21
-225.5
  0
LINE
  8
0
 10
-142.6
 20
-225.5
 11
-142.6
 21
-232.4
  0
LINE
  8
0
 10
-142.6
 20
-232.4
 11
-141.05
 21
-232.4
  0
LINE
  8
0
 10
-141.05
 20
-232.4
 11
-141.05
 21
-238.1
  0
LINE
  8
0
 10
-141.05
 20
-238.1
 11
-142.6
 21
-238.1
  0
LINE
  8
0
 10
-142.6
 20
-238.1
 11
-142.6
 21
-245
  0
LINE
  8
0
 10
-142.6
 20
-245
 11
-137.5
 21
-245
  0
LINE
  8
0
 10
-137.5
 20
-245
 11
-137.5
 21
-249.875
  0
LINE
  8
0
 10
-137.5
 20
-249.875
 11
-135.875
 21
-251.5
  0
LINE
  8
0
 10
-135.875
 20
-251.5
 11
-124.125
 21
-251.5
  0
LINE
  8
0
 10
-124.125
 20
-251.5
 11
-122.5
 21
-249.875
  0
LINE
  8
0
 10
-122.5
 20
-249.875
 11
-122.5
 21
-245
  0
LINE
  8
0
 10
-122.5
 20
-245
 11
-48.4493
 21
-245
  0
LINE
  8
0
 10
-48.4493
 20
-245
 11
-245
 21
-48.4493
  0
LINE
  8
0
 10
-245
 20
-48.4493
 11
-245
 21
-122.5
  0
LINE
  8
0
 10
-245
 20
-122.5
 11
-249.875
 21
-122.5
  0
LINE
  8
0
 10
-249.875
 20
-122.5
 11
-251.5
 21
-124.125
  0
LINE
  8
0
 10
-251.5
 20
-124.125
 11
-251.5
 21
-135.875
  0
LINE
  8
0
 10
-251.5
 20
-135.875
 11
-249.875
 21
-137.5
  0
LINE
  8
0
 10
-249.875
 20
-137.5
 11
-245
 21
-137.5
  0
LINE
  8
0
 10
-245
 20
-137.5
 11
-245
 21
-142.6
  0
LINE
  8
0
 10
-245
 20
-142.6
 11
-238.1
 21
-142.6
  0
LINE
  8
0
 10
-238.1
 20
-142.6
 11
-238.1
 21
-141.05
  0
LINE
  8
0
 10
-238.1
 20
-141.05
 11
-232.4
 21
-141.05
  0
LINE
  8
0
 10
-232.4
 20
-141.05
 11
-232.4
 21
-142.6
  0
LINE
  8
0
 10
-232.4
 20
-142.6
 11
-225.5
 21
-142.6
  0
LINE
  8
0
 10
-225.5
 20
-142.6
 11
-225.5
 21
-147.4
  0
LINE
  8
0
 10
-225.5
 20
-147.4
 11
-232.4
 21
-147.4
  0
LINE
  8
0
 10
-232.4
 20
-147.4
 11
-232.4
 21
-148.95
  0
LINE
  8
0
 10
-232.4
 20
-148.95
 11
-238.1
 21
-148.95
  0
LINE
  8
0
 10
-238.1
 20
-148.95
 11
-238.1
 21
-147.4
  0
LINE
  8
0
 10
-238.1
 20
-147.4
 11
-245
 21
-147.4
  0
LINE
  8
0
 10
-245
 20
-147.4
 11
-245
 21
-152.5
  0
LINE
  8
0
 10
-245
 20
-152.5
 11
-249.875
 21
-152.5
  0
LINE
  8
0
 10
-249.875
 20
-152.5
 11
-251.5
 21
-154.125
  0
LINE
  8
0
 10
-251.5
 20
-154.125
 11
-251.5
 21
-165.875
  0
LINE
  8
0
 10
-251.5
 20
-165.875
 11
-249.875
 21
-167.5
  0
LINE
  8
0
 10
-249.875
 20
-167.5
 11
-245
 21
-167.5
  0
LINE
  8
0
 10
-245
 20
-167.5
 11
-245
 21
-245
  0
LINE
  8
0
 10
-245
 20
-245
 11
-167.5
 21
-245
  0
LINE
  8
0
 10
-167.5
 20
-245
 11
-167.5
 21
-249.875
  0
LINE
  8
0
 10
-167.5
 20
-249.875
 11
-165.875
 21
-251.5
  0
LINE
  8
0
 10
-165.875
 20
-251.5
 11
-154.125
 21
-251.5
  0
LINE
  8
0
 10
-154.125
 20
-251.5
 11
-152.5
 21
-249.875
  0
LINE
  8
0
 10
-220.723
 20
-86.4438
 11
-216.198
 21
-81.9183
  0
LINE
  8
0
 10
-216.198
 20
-81.9183
 11
-189.399
 21
-108.718
  0
LINE
  8
0
 10
-189.399
 20
-108.718
 11
-193.924
 21
-113.243
  0
LINE
  8
0
 10
-193.924
 20
-113.243
 11
-220.723
 21
-86.4438
  0
LINE
  8
0
 10
-166.983
 20
-140.184
 11
-162.458
 21
-135.658
  0
LINE
  8
0
 10
-162.458
 20
-135.658
 11
-135.658
 21
-162.458
  0
LINE
  8
0
 10
-135.658
 20
-162.458
 11
-140.184
 21
-166.983
  0
LINE
  8
0
 10
-140.184
 20
-166.983
 11
-166.983
 21
-140.184
  0
LINE
  8
0
 10
-113.243
 20
-193.924
 11
-108.718
 21
-189.399
  0
LINE
  8
0
 10
-108.718
 20
-189.399
 11
-81.9183
 21
-216.198
  0
LINE
  8
0
 10
-81.9183
 20
-216.198
 11
-86.4438
 21
-220.723
  0
LINE
  8
0
 10
-86.4438
 20
-220.723
 11
-113.243
 21
-193.924
  0
LINE
  8
0
 10
-238
 20
-211.05
 11
-242
 21
-207.05
  0
LINE
  8
0
 10
-242
 20
-207.05
 11
-242
 21
-206.95
  0
LINE
  8
0
 10
-242
 20
-206.95
 11
-228
 21
-206.95
  0
LINE
  8
0
 10
-228
 20
-206.95
 11
-228
 21
-207.05
  0
LINE
  8
0
 10
-228
 20
-207.05
 11
-232
 21
-211.05
  0
LINE
  8
0
 10
-232
 20
-211.05
 11
-238
 21
-211.05
  0
LINE
  8
0
 10
-227.05
 20
-222
 11
-231.05
 21
-218
  0
LINE
  8
0
 10
-231.05
 20
-218
 11
-231.05
 21
-212
  0
LINE
  8
0
 10
-231.05
 20
-212
 11
-227.05
 21
-208
  0
LINE
  8
0
 10
-227.05
 20
-208
 11
-226.95
 21
-208
  0
LINE
  8
0
 10
-226.95
 20
-208
 11
-226.95
 21
-222
  0
LINE
  8
0
 10
-226.95
 20
-222
 11
-227.05
 21
-222
  0
LINE
  8
0
 10
-243.05
 20
-222
 11
-243.05
 21
-208
  0
LINE
  8
0
 10
-243.05
 20
-208
 11
-242.95
 21
-208
  0
LINE
  8
0
 10
-242.95
 20
-208
 11
-238.95
 21
-212
  0
LINE
  8
0
 10
-238.95
 20
-212
 11
-238.95
 21
-218
  0
LINE
  8
0
 10
-238.95
 20
-218
 11
-242.95
 21
-222
  0
LINE
  8
0
 10
-242.95
 20
-222
 11
-243.05
 21
-222
  0
LINE
  8
0
 10
-235.249
 20
-217.688
 11
-235.739
 21
-217.597
  0
LINE
  8
0
 10
-235.739
 20
-217.597
 11
-236.203
 21
-217.417
  0
LINE
  8
0
 10
-236.203
 20
-217.417
 11
-236.627
 21
-217.155
  0
LINE
  8
0
 10
-236.627
 20
-217.155
 11
-236.995
 21
-216.819
  0
LINE
  8
0
 10
-236.995
 20
-216.819
 11
-237.296
 21
-216.421
  0
LINE
  8
0
 10
-237.296
 20
-216.421
 11
-237.518
 21
-215.975
  0
LINE
  8
0
 10
-237.518
 20
-215.975
 11
-237.654
 21
-215.496
  0
LINE
  8
0
 10
-237.654
 20
-215.496
 11
-237.7
 21
-215
  0
LINE
  8
0
 10
-237.7
 20
-215
 11
-237.654
 21
-214.504
  0
LINE
  8
0
 10
-237.654
 20
-214.504
 11
-237.518
 21
-214.025
  0
LINE
  8
0
 10
-237.518
 20
-214.025
 11
-237.296
 21
-213.579
  0
LINE
  8
0
 10
-237.296
 20
-213.579
 11
-236.995
 21
-213.181
  0
LINE
  8
0
 10
-236.995
 20
-213.181
 11
-236.627
 21
-212.845
  0
LINE
  8
0
 10
-236.627
 20
-212.845
 11
-236.203
 21
-212.583
  0
LINE
  8
0
 10
-236.203
 20
-212.583
 11
-235.739
 21
-212.403
  0
LINE
  8
0
 10
-235.739
 20
-212.403
 11
-235.249
 21
-212.312
  0
LINE
  8
0
 10
-235.249
 20
-212.312
 11
-234.751
 21
-212.312
  0
LINE
  8
0
 10
-234.751
 20
-212.312
 11
-234.261
 21
-212.403
  0
LINE
  8
0
 10
-234.261
 20
-212.403
 11
-233.797
 21
-212.583
  0
LINE
  8
0
 10
-233.797
 20
-212.583
 11
-233.373
 21
-212.845
  0
LINE
  8
0
 10
-233.373
 20
-212.845
 11
-233.005
 21
-213.181
  0
LINE
  8
0
 10
-233.005
 20
-213.181
 11
-232.704
 21
-213.579
  0
LINE
  8
0
 10
-232.704
 20
-213.579
 11
-232.482
 21
-214.025
  0
LINE
  8
0
 10
-232.482
 20
-214.025
 11
-232.346
 21
-214.504
  0
LINE
  8
0
 10
-232.346
 20
-214.504
 11
-232.3
 21
-215
  0
LINE
  8
0
 10
-232.3
 20
-215
 11
-232.346
 21
-215.496
  0
LINE
  8
0
 10
-232.346
 20
-215.496
 11
-232.482
 21
-215.975
  0
LINE
  8
0
 10
-232.482
 20
-215.975
 11
-232.704
 21
-216.421
  0
LINE
  8
0
 10
-232.704
 20
-216.421
 11
-233.005
 21
-216.819
  0
LINE
  8
0
 10
-233.005
 20
-216.819
 11
-233.373
 21
-217.155
  0
LINE
  8
0
 10
-233.373
 20
-217.155
 11
-233.797
 21
-217.417
  0
LINE
  8
0
 10
-233.797
 20
-217.417
 11
-234.261
 21
-217.597
  0
LINE
  8
0
 10
-234.261
 20
-217.597
 11
-234.751
 21
-217.688
  0
LINE
  8
0
 10
-234.751
 20
-217.688
 11
-235.249
 21
-217.688
  0
LINE
  8
0
 10
-243.05
 20
-242
 11
-243.05
 21
-228
  0
LINE
  8
0
 10
-243.05
 20
-228
 11
-242.95
 21
-228
  0
LINE
  8
0
 10
-242.95
 20
-228
 11
-238.95
 21
-232
  0
LINE
  8
0
 10
-238.95
 20
-232
 11
-238.95
 21
-238
  0
LINE
  8
0
 10
-238.95
 20
-238
 11
-242.95
 21
-242
  0
LINE
  8
0
 10
-242.95
 20
-242
 11
-243.05
 21
-242
  0
LINE
  8
0
 10
-227.05
 20
-242
 11
-231.05
 21
-238
  0
LINE
  8
0
 10
-231.05
 20
-238
 11
-231.05
 21
-232
  0
LINE
  8
0
 10
-231.05
 20
-232
 11
-227.05
 21
-228
  0
LINE
  8
0
 10
-227.05
 20
-228
 11
-226.95
 21
-228
  0
LINE
  8
0
 10
-226.95
 20
-228
 11
-226.95
 21
-242
  0
LINE
  8
0
 10
-226.95
 20
-242
 11
-227.05
 21
-242
  0
LINE
  8
0
 10
-235.249
 20
-237.688
 11
-235.739
 21
-237.597
  0
LINE
  8
0
 10
-235.739
 20
-237.597
 11
-236.203
 21
-237.417
  0
LINE
  8
0
 10
-236.203
 20
-237.417
 11
-236.627
 21
-237.155
  0
LINE
  8
0
 10
-236.627
 20
-237.155
 11
-236.995
 21
-236.819
  0
LINE
  8
0
 10
-236.995
 20
-236.819
 11
-237.296
 21
-236.421
  0
LINE
  8
0
 10
-237.296
 20
-236.421
 11
-237.518
 21
-235.975
  0
LINE
  8
0
 10
-237.518
 20
-235.975
 11
-237.654
 21
-235.496
  0
LINE
  8
0
 10
-237.654
 20
-235.496
 11
-237.7
 21
-235
  0
LINE
  8
0
 10
-237.7
 20
-235
 11
-237.654
 21
-234.504
  0
LINE
  8
0
 10
-237.654
 20
-234.504
 11
-237.518
 21
-234.025
  0
LINE
  8
0
 10
-237.518
 20
-234.025
 11
-237.296
 21
-233.579
  0
LINE
  8
0
 10
-237.296
 20
-233.579
 11
-236.995
 21
-233.181
  0
LINE
  8
0
 10
-236.995
 20
-233.181
 11
-236.627
 21
-232.845
  0
LINE
  8
0
 10
-236.627
 20
-232.845
 11
-236.203
 21
-232.583
  0
LINE
  8
0
 10
-236.203
 20
-232.583
 11
-235.739
 21
-232.403
  0
LINE
  8
0
 10
-235.739
 20
-232.403
 11
-235.249
 21
-232.312
  0
LINE
  8
0
 10
-235.249
 20
-232.312
 11
-234.751
 21
-232.312
  0
LINE
  8
0
 10
-234.751
 20
-232.312
 11
-234.261
 21
-232.403
  0
LINE
  8
0
 10
-234.261
 20
-232.403
 11
-233.797
 21
-232.583
  0
LINE
  8
0
 10
-233.797
 20
-232.583
 11
-233.373
 21
-232.845
  0
LINE
  8
0
 10
-233.373
 20
-232.845
 11
-233.005
 21
-233.181
  0
LINE
  8
0
 10
-233.005
 20
-233.181
 11
-232.704
 21
-233.579
  0
LINE
  8
0
 10
-232.704
 20
-233.579
 11
-232.482
 21
-234.025
  0
LINE
  8
0
 10
-232.482
 20
-234.025
 11
-232.346
 21
-234.504
  0
LINE
  8
0
 10
-232.346
 20
-234.504
 11
-232.3
 21
-235
  0
LINE
  8
0
 10
-232.3
 20
-235
 11
-232.346
 21
-235.496
  0
LINE
  8
0
 10
-232.346
 20
-235.496
 11
-232.482
 21
-235.975
  0
LINE
  8
0
 10
-232.482
 20
-235.975
 11
-232.704
 21
-236.421
  0
LINE
  8
0
 10
-232.704
 20
-236.421
 11
-233.005
 21
-236.819
  0
LINE
  8
0
 10
-233.005
 20
-236.819
 11
-233.373
 21
-237.155
  0
LINE
  8
0
 10
-233.373
 20
-237.155
 11
-233.797
 21
-237.417
  0
LINE
  8
0
 10
-233.797
 20
-237.417
 11
-234.261
 21
-237.597
  0
LINE
  8
0
 10
-234.261
 20
-237.597
 11
-234.751
 21
-237.688
  0
LINE
  8
0
 10
-234.751
 20
-237.688
 11
-235.249
 21
-237.688
  0
LINE
  8
0
 10
-242
 20
-243.05
 11
-242
 21
-242.95
  0
LINE
  8
0
 10
-242
 20
-242.95
 11
-238
 21
-238.95
  0
LINE
  8
0
 10
-238
 20
-238.95
 11
-232
 21
-238.95
  0
LINE
  8
0
 10
-232
 20
-238.95
 11
-228
 21
-242.95
  0
LINE
  8
0
 10
-228
 20
-242.95
 11
-228
 21
-243.05
  0
LINE
  8
0
 10
-228
 20
-243.05
 11
-242
 21
-243.05
  0
LINE
  8
0
 10
137.5
 20
-249.875
 11
137.5
 21
-245
  0
LINE
  8
0
 10
137.5
 20
-245
 11
142.6
 21
-245
  0
LINE
  8
0
 10
142.6
 20
-245
 11
142.6
 21
-238.1
  0
LINE
  8
0
 10
142.6
 20
-238.1
 11
141.05
 21
-238.1
  0
LINE
  8
0
 10
141.05
 20
-238.1
 11
141.05
 21
-232.4
  0
LINE
  8
0
 10
141.05
 20
-232.4
 11
142.6
 21
-232.4
  0
LINE
  8
0
 10
142.6
 20
-232.4
 11
142.6
 21
-225.5
  0
LINE
  8
0
 10
142.6
 20
-225.5
 11
147.4
 21
-225.5
  0
LINE
  8
0
 10
147.4
 20
-225.5
 11
147.4
 21
-232.4
  0
LINE
  8
0
 10
147.4
 20
-232.4
 11
148.95
 21
-232.4
  0
LINE
  8
0
 10
148.95
 20
-232.4
 11
148.95
 21
-238.1
  0
LINE
  8
0
 10
148.95
 20
-238.1
 11
147.4
 21
-238.1
  0
LINE
  8
0
 10
147.4
 20
-238.1
 11
147.4
 21
-245
  0
LINE
  8
0
 10
147.4
 20
-245
 11
152.5
 21
-245
  0
LINE
  8
0
 10
152.5
 20
-245
 11
152.5
 21
-249.875
  0
LINE
  8
0
 10
152.5
 20
-249.875
 11
154.125
 21
-251.5
  0
LINE
  8
0
 10
154.125
 20
-251.5
 11
165.875
 21
-251.5
  0
LINE
  8
0
 10
165.875
 20
-251.5
 11
167.5
 21
-249.875
  0
LINE
  8
0
 10
167.5
 20
-249.875
 11
167.5
 21
-245
  0
LINE
  8
0
 10
167.5
 20
-245
 11
245
 21
-245
  0
LINE
  8
0
 10
245
 20
-245
 11
245
 21
-167.5
  0
LINE
  8
0
 10
245
 20
-167.5
 11
249.875
 21
-167.5
  0
LINE
  8
0
 10
249.875
 20
-167.5
 11
251.5
 21
-165.875
  0
LINE
  8
0
 10
251.5
 20
-165.875
 11
251.5
 21
-154.125
  0
LINE
  8
0
 10
251.5
 20
-154.125
 11
249.875
 21
-152.5
  0
LINE
  8
0
 10
249.875
 20
-152.5
 11
245
 21
-152.5
  0
LINE
  8
0
 10
245
 20
-152.5
 11
245
 21
-147.4
  0
LINE
  8
0
 10
245
 20
-147.4
 11
238.1
 21
-147.4
  0
LINE
  8
0
 10
238.1
 20
-147.4
 11
238.1
 21
-148.95
  0
LINE
  8
0
 10
238.1
 20
-148.95
 11
232.4
 21
-148.95
  0
LINE
  8
0
 10
232.4
 20
-148.95
 11
232.4
 21
-147.4
  0
LINE
  8
0
 10
232.4
 20
-147.4
 11
225.5
 21
-147.4
  0
LINE
  8
0
 10
225.5
 20
-147.4
 11
225.5
 21
-142.6
  0
LINE
  8
0
 10
225.5
 20
-142.6
 11
232.4
 21
-142.6
  0
LINE
  8
0
 10
232.4
 20
-142.6
 11
232.4
 21
-141.05
  0
LINE
  8
0
 10
232.4
 20
-141.05
 11
238.1
 21
-141.05
  0
LINE
  8
0
 10
238.1
 20
-141.05
 11
238.1
 21
-142.6
  0
LINE
  8
0
 10
238.1
 20
-142.6
 11
245
 21
-142.6
  0
LINE
  8
0
 10
245
 20
-142.6
 11
245
 21
-137.5
  0
LINE
  8
0
 10
245
 20
-137.5
 11
249.875
 21
-137.5
  0
LINE
  8
0
 10
249.875
 20
-137.5
 11
251.5
 21
-135.875
  0
LINE
  8
0
 10
251.5
 20
-135.875
 11
251.5
 21
-124.125
  0
LINE
  8
0
 10
251.5
 20
-124.125
 11
249.875
 21
-122.5
  0
LINE
  8
0
 10
249.875
 20
-122.5
 11
245
 21
-122.5
  0
LINE
  8
0
 10
245
 20
-122.5
 11
245
 21
-48.4493
  0
LINE
  8
0
 10
245
 20
-48.4493
 11
48.4493
 21
-245
  0
LINE
  8
0
 10
48.4493
 20
-245
 11
122.5
 21
-245
  0
LINE
  8
0
 10
122.5
 20
-245
 11
122.5
 21
-249.875
  0
LINE
  8
0
 10
122.5
 20
-249.875
 11
124.125
 21
-251.5
  0
LINE
  8
0
 10
124.125
 20
-251.5
 11
135.875
 21
-251.5
  0
LINE
  8
0
 10
135.875
 20
-251.5
 11
137.5
 21
-249.875
  0
LINE
  8
0
 10
189.399
 20
-108.718
 11
216.198
 21
-81.9183
  0
LINE
  8
0
 10
216.198
 20
-81.9183
 11
220.723
 21
-86.4438
  0
LINE
  8
0
 10
220.723
 20
-86.4438
 11
193.924
 21
-113.243
  0
LINE
  8
0
 10
193.924
 20
-113.243
 11
189.399
 21
-108.718
  0
LINE
  8
0
 10
135.658
 20
-162.458
 11
162.458
 21
-135.658
  0
LINE
  8
0
 10
162.458
 20
-135.658
 11
166.983
 21
-140.184
  0
LINE
  8
0
 10
166.983
 20
-140.184
 11
140.184
 21
-166.983
  0
LINE
  8
0
 10
140.184
 20
-166.983
 11
135.658
 21
-162.458
  0
LINE
  8
0
 10
81.9183
 20
-216.198
 11
108.718
 21
-189.399
  0
LINE
  8
0
 10
108.718
 20
-189.399
 11
113.243
 21
-193.924
  0
LINE
  8
0
 10
113.243
 20
-193.924
 11
86.4438
 21
-220.723
  0
LINE
  8
0
 10
86.4438
 20
-220.723
 11
81.9183
 21
-216.198
  0
LINE
  8
0
 10
232
 20
-211.05
 11
228
 21
-207.05
  0
LINE
  8
0
 10
228
 20
-207.05
 11
228
 21
-206.95
  0
LINE
  8
0
 10
228
 20
-206.95
 11
242
 21
-206.95
  0
LINE
  8
0
 10
242
 20
-206.95
 11
242
 21
-207.05
  0
LINE
  8
0
 10
242
 20
-207.05
 11
238
 21
-211.05
  0
LINE
  8
0
 10
238
 20
-211.05
 11
232
 21
-211.05
  0
LINE
  8
0
 10
226.95
 20
-222
 11
226.95
 21
-208
  0
LINE
  8
0
 10
226.95
 20
-208
 11
227.05
 21
-208
  0
LINE
  8
0
 10
227.05
 20
-208
 11
231.05
 21
-212
  0
LINE
  8
0
 10
231.05
 20
-212
 11
231.05
 21
-218
  0
LINE
  8
0
 10
231.05
 20
-218
 11
227.05
 21
-222
  0
LINE
  8
0
 10
227.05
 20
-222
 11
226.95
 21
-222
  0
LINE
  8
0
 10
242.95
 20
-222
 11
238.95
 21
-218
  0
LINE
  8
0
 10
238.95
 20
-218
 11
238.95
 21
-212
  0
LINE
  8
0
 10
238.95
 20
-212
 11
242.95
 21
-208
  0
LINE
  8
0
 10
242.95
 20
-208
 11
243.05
 21
-208
  0
LINE
  8
0
 10
243.05
 20
-208
 11
243.05
 21
-222
  0
LINE
  8
0
 10
243.05
 20
-222
 11
242.95
 21
-222
  0
LINE
  8
0
 10
234.751
 20
-217.688
 11
234.261
 21
-217.597
  0
LINE
  8
0
 10
234.261
 20
-217.597
 11
233.797
 21
-217.417
  0
LINE
  8
0
 10
233.797
 20
-217.417
 11
233.373
 21
-217.155
  0
LINE
  8
0
 10
233.373
 20
-217.155
 11
233.005
 21
-216.819
  0
LINE
  8
0
 10
233.005
 20
-216.819
 11
232.704
 21
-216.421
  0
LINE
  8
0
 10
232.704
 20
-216.421
 11
232.482
 21
-215.975
  0
LINE
  8
0
 10
232.482
 20
-215.975
 11
232.346
 21
-215.496
  0
LINE
  8
0
 10
232.346
 20
-215.496
 11
232.3
 21
-215
  0
LINE
  8
0
 10
232.3
 20
-215
 11
232.346
 21
-214.504
  0
LINE
  8
0
 10
232.346
 20
-214.504
 11
232.482
 21
-214.025
  0
LINE
  8
0
 10
232.482
 20
-214.025
 11
232.704
 21
-213.579
  0
LINE
  8
0
 10
232.704
 20
-213.579
 11
233.005
 21
-213.181
  0
LINE
  8
0
 10
233.005
 20
-213.181
 11
233.373
 21
-212.845
  0
LINE
  8
0
 10
233.373
 20
-212.845
 11
233.797
 21
-212.583
  0
LINE
  8
0
 10
233.797
 20
-212.583
 11
234.261
 21
-212.403
  0
LINE
  8
0
 10
234.261
 20
-212.403
 11
234.751
 21
-212.312
  0
LINE
  8
0
 10
234.751
 20
-212.312
 11
235.249
 21
-212.312
  0
LINE
  8
0
 10
235.249
 20
-212.312
 11
235.739
 21
-212.403
  0
LINE
  8
0
 10
235.739
 20
-212.403
 11
236.203
 21
-212.583
  0
LINE
  8
0
 10
236.203
 20
-212.583
 11
236.627
 21
-212.845
  0
LINE
  8
0
 10
236.627
 20
-212.845
 11
236.995
 21
-213.181
  0
LINE
  8
0
 10
236.995
 20
-213.181
 11
237.296
 21
-213.579
  0
LINE
  8
0
 10
237.296
 20
-213.579
 11
237.518
 21
-214.025
  0
LINE
  8
0
 10
237.518
 20
-214.025
 11
237.654
 21
-214.504
  0
LINE
  8
0
 10
237.654
 20
-214.504
 11
237.7
 21
-215
  0
LINE
  8
0
 10
237.7
 20
-215
 11
237.654
 21
-215.496
  0
LINE
  8
0
 10
237.654
 20
-215.496
 11
237.518
 21
-215.975
  0
LINE
  8
0
 10
237.518
 20
-215.975
 11
237.296
 21
-216.421
  0
LINE
  8
0
 10
237.296
 20
-216.421
 11
236.995
 21
-216.819
  0
LINE
  8
0
 10
236.995
 20
-216.819
 11
236.627
 21
-217.155
  0
LINE
  8
0
 10
236.627
 20
-217.155
 11
236.203
 21
-217.417
  0
LINE
  8
0
 10
236.203
 20
-217.417
 11
235.739
 21
-217.597
  0
LINE
  8
0
 10
235.739
 20
-217.597
 11
235.249
 21
-217.688
  0
LINE
  8
0
 10
235.249
 20
-217.688
 11
234.751
 21
-217.688
  0
LINE
  8
0
 10
226.95
 20
-242
 11
226.95
 21
-228
  0
LINE
  8
0
 10
226.95
 20
-228
 11
227.05
 21
-228
  0
LINE
  8
0
 10
227.05
 20
-228
 11
231.05
 21
-232
  0
LINE
  8
0
 10
231.05
 20
-232
 11
231.05
 21
-238
  0
LINE
  8
0
 10
231.05
 20
-238
 11
227.05
 21
-242
  0
LINE
  8
0
 10
227.05
 20
-242
 11
226.95
 21
-242
  0
LINE
  8
0
 10
242.95
 20
-242
 11
238.95
 21
-238
  0
LINE
  8
0
 10
238.95
 20
-238
 11
238.95
 21
-232
  0
LINE
  8
0
 10
238.95
 20
-232
 11
242.95
 21
-228
  0
LINE
  8
0
 10
242.95
 20
-228
 11
243.05
 21
-228
  0
LINE
  8
0
 10
243.05
 20
-228
 11
243.05
 21
-242
  0
LINE
  8
0
 10
243.05
 20
-242
 11
242.95
 21
-242
  0
LINE
  8
0
 10
234.751
 20
-237.688
 11
234.261
 21
-237.597
  0
LINE
  8
0
 10
234.261
 20
-237.597
 11
233.797
 21
-237.417
  0
LINE
  8
0
 10
233.797
 20
-237.417
 11
233.373
 21
-237.155
  0
LINE
  8
0
 10
233.373
 20
-237.155
 11
233.005
 21
-236.819
  0
LINE
  8
0
 10
233.005
 20
-236.819
 11
232.704
 21
-236.421
  0
LINE
  8
0
 10
232.704
 20
-236.421
 11
232.482
 21
-235.975
  0
LINE
  8
0
 10
232.482
 20
-235.975
 11
232.346
 21
-235.496
  0
LINE
  8
0
 10
232.346
 20
-235.496
 11
232.3
 21
-235
  0
LINE
  8
0
 10
232.3
 20
-235
 11
232.346
 21
-234.504
  0
LINE
  8
0
 10
232.346
 20
-234.504
 11
232.482
 21
-234.025
  0
LINE
  8
0
 10
232.482
 20
-234.025
 11
232.704
 21
-233.579
  0
LINE
  8
0
 10
232.704
 20
-233.579
 11
233.005
 21
-233.181
  0
LINE
  8
0
 10
233.005
 20
-233.181
 11
233.373
 21
-232.845
  0
LINE
  8
0
 10
233.373
 20
-232.845
 11
233.797
 21
-232.583
  0
LINE
  8
0
 10
233.797
 20
-232.583
 11
234.261
 21
-232.403
  0
LINE
  8
0
 10
234.261
 20
-232.403
 11
234.751
 21
-232.312
  0
LINE
  8
0
 10
234.751
 20
-232.312
 11
235.249
 21
-232.312
  0
LINE
  8
0
 10
235.249
 20
-232.312
 11
235.739
 21
-232.403
  0
LINE
  8
0
 10
235.739
 20
-232.403
 11
236.203
 21
-232.583
  0
LINE
  8
0
 10
236.203
 20
-232.583
 11
236.627
 21
-232.845
  0
LINE
  8
0
 10
236.627
 20
-232.845
 11
236.995
 21
-233.181
  0
LINE
  8
0
 10
236.995
 20
-233.181
 11
237.296
 21
-233.579
  0
LINE
  8
0
 10
237.296
 20
-233.579
 11
237.518
 21
-234.025
  0
LINE
  8
0
 10
237.518
 20
-234.025
 11
237.654
 21
-234.504
  0
LINE
  8
0
 10
237.654
 20
-234.504
 11
237.7
 21
-235
  0
LINE
  8
0
 10
237.7
 20
-235
 11
237.654
 21
-235.496
  0
LINE
  8
0
 10
237.654
 20
-235.496
 11
237.518
 21
-235.975
  0
LINE
  8
0
 10
237.518
 20
-235.975
 11
237.296
 21
-236.421
  0
LINE
  8
0
 10
237.296
 20
-236.421
 11
236.995
 21
-236.819
  0
LINE
  8
0
 10
236.995
 20
-236.819
 11
236.627
 21
-237.155
  0
LINE
  8
0
 10
236.627
 20
-237.155
 11
236.203
 21
-237.417
  0
LINE
  8
0
 10
236.203
 20
-237.417
 11
235.739
 21
-237.597
  0
LINE
  8
0
 10
235.739
 20
-237.597
 11
235.249
 21
-237.688
  0
LINE
  8
0
 10
235.249
 20
-237.688
 11
234.751
 21
-237.688
  0
LINE
  8
0
 10
228
 20
-243.05
 11
228
 21
-242.95
  0
LINE
  8
0
 10
228
 20
-242.95
 11
232
 21
-238.95
  0
LINE
  8
0
 10
232
 20
-238.95
 11
238
 21
-238.95
  0
LINE
  8
0
 10
238
 20
-238.95
 11
242
 21
-242.95
  0
LINE
  8
0
 10
242
 20
-242.95
 11
242
 21
-243.05
  0
LINE
  8
0
 10
242
 20
-243.05
 11
228
 21
-243.05
  0
ENDSEC
  0
SECTION
  2
OBJECTS
  0
DICTIONARY
  0
ENDSEC
  0
EOF
