  0
SECTION
  2
BLOCKS
  0
ENDSEC
  0
SECTION
  2
ENTITIES
  0
LINE
  8
0
 10
230
 20
107.5
 11
234.875
 21
107.5
  0
LINE
  8
0
 10
234.875
 20
107.5
 11
236.5
 21
109.125
  0
LINE
  8
0
 10
236.5
 20
109.125
 11
236.5
 21
120.875
  0
LINE
  8
0
 10
236.5
 20
120.875
 11
234.875
 21
122.5
  0
LINE
  8
0
 10
234.875
 20
122.5
 11
230
 21
122.5
  0
LINE
  8
0
 10
230
 20
122.5
 11
230
 21
127.55
  0
LINE
  8
0
 10
230
 20
127.55
 11
223.1
 21
127.55
  0
LINE
  8
0
 10
223.1
 20
127.55
 11
223.1
 21
126.05
  0
LINE
  8
0
 10
223.1
 20
126.05
 11
217.4
 21
126.05
  0
LINE
  8
0
 10
217.4
 20
126.05
 11
217.4
 21
127.55
  0
LINE
  8
0
 10
217.4
 20
127.55
 11
210.5
 21
127.55
  0
LINE
  8
0
 10
210.5
 20
127.55
 11
210.5
 21
132.45
  0
LINE
  8
0
 10
210.5
 20
132.45
 11
217.4
 21
132.45
  0
LINE
  8
0
 10
217.4
 20
132.45
 11
217.4
 21
133.95
  0
LINE
  8
0
 10
217.4
 20
133.95
 11
223.1
 21
133.95
  0
LINE
  8
0
 10
223.1
 20
133.95
 11
223.1
 21
132.45
  0
LINE
  8
0
 10
223.1
 20
132.45
 11
230
 21
132.45
  0
LINE
  8
0
 10
230
 20
132.45
 11
230
 21
137.5
  0
LINE
  8
0
 10
230
 20
137.5
 11
234.875
 21
137.5
  0
LINE
  8
0
 10
234.875
 20
137.5
 11
236.5
 21
139.125
  0
LINE
  8
0
 10
236.5
 20
139.125
 11
236.5
 21
150.875
  0
LINE
  8
0
 10
236.5
 20
150.875
 11
234.875
 21
152.5
  0
LINE
  8
0
 10
234.875
 20
152.5
 11
230
 21
152.5
  0
LINE
  8
0
 10
230
 20
152.5
 11
230
 21
205
  0
LINE
  8
0
 10
230
 20
205
 11
234.875
 21
205
  0
LINE
  8
0
 10
234.875
 20
205
 11
236.5
 21
206.625
  0
LINE
  8
0
 10
236.5
 20
206.625
 11
236.5
 21
213.375
  0
LINE
  8
0
 10
236.5
 20
213.375
 11
234.875
 21
215
  0
LINE
  8
0
 10
234.875
 20
215
 11
230
 21
215
  0
LINE
  8
0
 10
230
 20
215
 11
230
 21
230
  0
LINE
  8
0
 10
230
 20
230
 11
152.5
 21
230
  0
LINE
  8
0
 10
152.5
 20
230
 11
152.5
 21
234.875
  0
LINE
  8
0
 10
152.5
 20
234.875
 11
150.875
 21
236.5
  0
LINE
  8
0
 10
150.875
 20
236.5
 11
139.125
 21
236.5
  0
LINE
  8
0
 10
139.125
 20
236.5
 11
137.5
 21
234.875
  0
LINE
  8
0
 10
137.5
 20
234.875
 11
137.5
 21
230
  0
LINE
  8
0
 10
137.5
 20
230
 11
132.45
 21
230
  0
LINE
  8
0
 10
132.45
 20
230
 11
132.45
 21
223.1
  0
LINE
  8
0
 10
132.45
 20
223.1
 11
133.95
 21
223.1
  0
LINE
  8
0
 10
133.95
 20
223.1
 11
133.95
 21
217.4
  0
LINE
  8
0
 10
133.95
 20
217.4
 11
132.45
 21
217.4
  0
LINE
  8
0
 10
132.45
 20
217.4
 11
132.45
 21
210.5
  0
LINE
  8
0
 10
132.45
 20
210.5
 11
127.55
 21
210.5
  0
LINE
  8
0
 10
127.55
 20
210.5
 11
127.55
 21
217.4
  0
LINE
  8
0
 10
127.55
 20
217.4
 11
126.05
 21
217.4
  0
LINE
  8
0
 10
126.05
 20
217.4
 11
126.05
 21
223.1
  0
LINE
  8
0
 10
126.05
 20
223.1
 11
127.55
 21
223.1
  0
LINE
  8
0
 10
127.55
 20
223.1
 11
127.55
 21
230
  0
LINE
  8
0
 10
127.55
 20
230
 11
122.5
 21
230
  0
LINE
  8
0
 10
122.5
 20
230
 11
122.5
 21
234.875
  0
LINE
  8
0
 10
122.5
 20
234.875
 11
120.875
 21
236.5
  0
LINE
  8
0
 10
120.875
 20
236.5
 11
109.125
 21
236.5
  0
LINE
  8
0
 10
109.125
 20
236.5
 11
107.5
 21
234.875
  0
LINE
  8
0
 10
107.5
 20
234.875
 11
107.5
 21
230
  0
LINE
  8
0
 10
107.5
 20
230
 11
42.2361
 21
230
  0
LINE
  8
0
 10
42.2361
 20
230
 11
230
 21
42.2361
  0
LINE
  8
0
 10
230
 20
42.2361
 11
230
 21
107.5
  0
LINE
  8
0
 10
217
 20
223.95
 11
213
 21
227.95
  0
LINE
  8
0
 10
213
 20
227.95
 11
213
 21
228.05
  0
LINE
  8
0
 10
213
 20
228.05
 11
227
 21
228.05
  0
LINE
  8
0
 10
227
 20
228.05
 11
227
 21
227.95
  0
LINE
  8
0
 10
227
 20
227.95
 11
223
 21
223.95
  0
LINE
  8
0
 10
223
 20
223.95
 11
217
 21
223.95
  0
LINE
  8
0
 10
227.95
 20
213
 11
223.95
 21
217
  0
LINE
  8
0
 10
223.95
 20
217
 11
223.95
 21
223
  0
LINE
  8
0
 10
223.95
 20
223
 11
227.95
 21
227
  0
LINE
  8
0
 10
227.95
 20
227
 11
228.05
 21
227
  0
LINE
  8
0
 10
228.05
 20
227
 11
228.05
 21
213
  0
LINE
  8
0
 10
228.05
 20
213
 11
227.95
 21
213
  0
LINE
  8
0
 10
211.95
 20
213
 11
211.95
 21
215.75
  0
LINE
  8
0
 10
211.95
 20
215.75
 11
208
 21
215.75
  0
LINE
  8
0
 10
208
 20
215.75
 11
208
 21
224.25
  0
LINE
  8
0
 10
208
 20
224.25
 11
211.95
 21
224.25
  0
LINE
  8
0
 10
211.95
 20
224.25
 11
211.95
 21
227
  0
LINE
  8
0
 10
211.95
 20
227
 11
212.05
 21
227
  0
LINE
  8
0
 10
212.05
 20
227
 11
216.05
 21
223
  0
LINE
  8
0
 10
216.05
 20
223
 11
216.05
 21
217
  0
LINE
  8
0
 10
216.05
 20
217
 11
212.05
 21
213
  0
LINE
  8
0
 10
212.05
 20
213
 11
211.95
 21
213
  0
LINE
  8
0
 10
195
 20
215.75
 11
195
 21
224.25
  0
LINE
  8
0
 10
195
 20
224.25
 11
199
 21
224.25
  0
LINE
  8
0
 10
199
 20
224.25
 11
199
 21
215.75
  0
LINE
  8
0
 10
199
 20
215.75
 11
195
 21
215.75
  0
LINE
  8
0
 10
219.512
 20
217.548
 11
219.043
 21
217.69
  0
LINE
  8
0
 10
219.043
 20
217.69
 11
218.611
 21
217.921
  0
LINE
  8
0
 10
218.611
 20
217.921
 11
218.232
 21
218.232
  0
LINE
  8
0
 10
218.232
 20
218.232
 11
217.921
 21
218.611
  0
LINE
  8
0
 10
217.921
 20
218.611
 11
217.69
 21
219.043
  0
LINE
  8
0
 10
217.69
 20
219.043
 11
217.548
 21
219.512
  0
LINE
  8
0
 10
217.548
 20
219.512
 11
217.5
 21
220
  0
LINE
  8
0
 10
217.5
 20
220
 11
217.548
 21
220.488
  0
LINE
  8
0
 10
217.548
 20
220.488
 11
217.69
 21
220.957
  0
LINE
  8
0
 10
217.69
 20
220.957
 11
217.921
 21
221.389
  0
LINE
  8
0
 10
217.921
 20
221.389
 11
218.232
 21
221.768
  0
LINE
  8
0
 10
218.232
 20
221.768
 11
218.611
 21
222.079
  0
LINE
  8
0
 10
218.611
 20
222.079
 11
219.043
 21
222.31
  0
LINE
  8
0
 10
219.043
 20
222.31
 11
219.512
 21
222.452
  0
LINE
  8
0
 10
219.512
 20
222.452
 11
220
 21
222.5
  0
LINE
  8
0
 10
220
 20
222.5
 11
220.488
 21
222.452
  0
LINE
  8
0
 10
220.488
 20
222.452
 11
220.957
 21
222.31
  0
LINE
  8
0
 10
220.957
 20
222.31
 11
221.389
 21
222.079
  0
LINE
  8
0
 10
221.389
 20
222.079
 11
221.768
 21
221.768
  0
LINE
  8
0
 10
221.768
 20
221.768
 11
222.079
 21
221.389
  0
LINE
  8
0
 10
222.079
 20
221.389
 11
222.31
 21
220.957
  0
LINE
  8
0
 10
222.31
 20
220.957
 11
222.452
 21
220.488
  0
LINE
  8
0
 10
222.452
 20
220.488
 11
222.5
 21
220
  0
LINE
  8
0
 10
222.5
 20
220
 11
222.452
 21
219.512
  0
LINE
  8
0
 10
222.452
 20
219.512
 11
222.31
 21
219.043
  0
LINE
  8
0
 10
222.31
 20
219.043
 11
222.079
 21
218.611
  0
LINE
  8
0
 10
222.079
 20
218.611
 11
221.768
 21
218.232
  0
LINE
  8
0
 10
221.768
 20
218.232
 11
221.389
 21
217.921
  0
LINE
  8
0
 10
221.389
 20
217.921
 11
220.957
 21
217.69
  0
LINE
  8
0
 10
220.957
 20
217.69
 11
220.488
 21
217.548
  0
LINE
  8
0
 10
220.488
 20
217.548
 11
220
 21
217.5
  0
LINE
  8
0
 10
220
 20
217.5
 11
219.512
 21
217.548
  0
LINE
  8
0
 10
71.3117
 20
205.591
 11
75.8372
 21
210.117
  0
LINE
  8
0
 10
75.8372
 20
210.117
 11
102.637
 21
183.317
  0
LINE
  8
0
 10
102.637
 20
183.317
 11
98.1111
 21
178.792
  0
LINE
  8
0
 10
98.1111
 20
178.792
 11
71.3117
 21
205.591
  0
LINE
  8
0
 10
211.95
 20
193
 11
211.95
 21
207
  0
LINE
  8
0
 10
211.95
 20
207
 11
212.05
 21
207
  0
LINE
  8
0
 10
212.05
 20
207
 11
216.05
 21
203
  0
LINE
  8
0
 10
216.05
 20
203
 11
216.05
 21
197
  0
LINE
  8
0
 10
216.05
 20
197
 11
212.05
 21
193
  0
LINE
  8
0
 10
212.05
 20
193
 11
211.95
 21
193
  0
LINE
  8
0
 10
227.95
 20
193
 11
223.95
 21
197
  0
LINE
  8
0
 10
223.95
 20
197
 11
223.95
 21
203
  0
LINE
  8
0
 10
223.95
 20
203
 11
227.95
 21
207
  0
LINE
  8
0
 10
227.95
 20
207
 11
228.05
 21
207
  0
LINE
  8
0
 10
228.05
 20
207
 11
228.05
 21
193
  0
LINE
  8
0
 10
228.05
 20
193
 11
227.95
 21
193
  0
LINE
  8
0
 10
219.512
 20
197.548
 11
219.043
 21
197.69
  0
LINE
  8
0
 10
219.043
 20
197.69
 11
218.611
 21
197.921
  0
LINE
  8
0
 10
218.611
 20
197.921
 11
218.232
 21
198.232
  0
LINE
  8
0
 10
218.232
 20
198.232
 11
217.921
 21
198.611
  0
LINE
  8
0
 10
217.921
 20
198.611
 11
217.69
 21
199.043
  0
LINE
  8
0
 10
217.69
 20
199.043
 11
217.548
 21
199.512
  0
LINE
  8
0
 10
217.548
 20
199.512
 11
217.5
 21
200
  0
LINE
  8
0
 10
217.5
 20
200
 11
217.548
 21
200.488
  0
LINE
  8
0
 10
217.548
 20
200.488
 11
217.69
 21
200.957
  0
LINE
  8
0
 10
217.69
 20
200.957
 11
217.921
 21
201.389
  0
LINE
  8
0
 10
217.921
 20
201.389
 11
218.232
 21
201.768
  0
LINE
  8
0
 10
218.232
 20
201.768
 11
218.611
 21
202.079
  0
LINE
  8
0
 10
218.611
 20
202.079
 11
219.043
 21
202.31
  0
LINE
  8
0
 10
219.043
 20
202.31
 11
219.512
 21
202.452
  0
LINE
  8
0
 10
219.512
 20
202.452
 11
220
 21
202.5
  0
LINE
  8
0
 10
220
 20
202.5
 11
220.488
 21
202.452
  0
LINE
  8
0
 10
220.488
 20
202.452
 11
220.957
 21
202.31
  0
LINE
  8
0
 10
220.957
 20
202.31
 11
221.389
 21
202.079
  0
LINE
  8
0
 10
221.389
 20
202.079
 11
221.768
 21
201.768
  0
LINE
  8
0
 10
221.768
 20
201.768
 11
222.079
 21
201.389
  0
LINE
  8
0
 10
222.079
 20
201.389
 11
222.31
 21
200.957
  0
LINE
  8
0
 10
222.31
 20
200.957
 11
222.452
 21
200.488
  0
LINE
  8
0
 10
222.452
 20
200.488
 11
222.5
 21
200
  0
LINE
  8
0
 10
222.5
 20
200
 11
222.452
 21
199.512
  0
LINE
  8
0
 10
222.452
 20
199.512
 11
222.31
 21
199.043
  0
LINE
  8
0
 10
222.31
 20
199.043
 11
222.079
 21
198.611
  0
LINE
  8
0
 10
222.079
 20
198.611
 11
221.768
 21
198.232
  0
LINE
  8
0
 10
221.768
 20
198.232
 11
221.389
 21
197.921
  0
LINE
  8
0
 10
221.389
 20
197.921
 11
220.957
 21
197.69
  0
LINE
  8
0
 10
220.957
 20
197.69
 11
220.488
 21
197.548
  0
LINE
  8
0
 10
220.488
 20
197.548
 11
220
 21
197.5
  0
LINE
  8
0
 10
220
 20
197.5
 11
219.512
 21
197.548
  0
LINE
  8
0
 10
213
 20
191.95
 11
213
 21
192.05
  0
LINE
  8
0
 10
213
 20
192.05
 11
217
 21
196.05
  0
LINE
  8
0
 10
217
 20
196.05
 11
223
 21
196.05
  0
LINE
  8
0
 10
223
 20
196.05
 11
227
 21
192.05
  0
LINE
  8
0
 10
227
 20
192.05
 11
227
 21
191.95
  0
LINE
  8
0
 10
227
 20
191.95
 11
213
 21
191.95
  0
LINE
  8
0
 10
125.052
 20
151.851
 11
129.577
 21
156.377
  0
LINE
  8
0
 10
129.577
 20
156.377
 11
156.377
 21
129.577
  0
LINE
  8
0
 10
156.377
 20
129.577
 11
151.851
 21
125.052
  0
LINE
  8
0
 10
151.851
 20
125.052
 11
125.052
 21
151.851
  0
LINE
  8
0
 10
178.792
 20
98.1111
 11
183.317
 21
102.637
  0
LINE
  8
0
 10
183.317
 20
102.637
 11
210.117
 21
75.8372
  0
LINE
  8
0
 10
210.117
 20
75.8372
 11
205.591
 21
71.3117
  0
LINE
  8
0
 10
205.591
 20
71.3117
 11
178.792
 21
98.1111
  0
LINE
  8
0
 10
-42.2361
 20
230
 11
-107.5
 21
230
  0
LINE
  8
0
 10
-107.5
 20
230
 11
-107.5
 21
234.875
  0
LINE
  8
0
 10
-107.5
 20
234.875
 11
-109.125
 21
236.5
  0
LINE
  8
0
 10
-109.125
 20
236.5
 11
-120.875
 21
236.5
  0
LINE
  8
0
 10
-120.875
 20
236.5
 11
-122.5
 21
234.875
  0
LINE
  8
0
 10
-122.5
 20
234.875
 11
-122.5
 21
230
  0
LINE
  8
0
 10
-122.5
 20
230
 11
-127.55
 21
230
  0
LINE
  8
0
 10
-127.55
 20
230
 11
-127.55
 21
223.1
  0
LINE
  8
0
 10
-127.55
 20
223.1
 11
-126.05
 21
223.1
  0
LINE
  8
0
 10
-126.05
 20
223.1
 11
-126.05
 21
217.4
  0
LINE
  8
0
 10
-126.05
 20
217.4
 11
-127.55
 21
217.4
  0
LINE
  8
0
 10
-127.55
 20
217.4
 11
-127.55
 21
210.5
  0
LINE
  8
0
 10
-127.55
 20
210.5
 11
-132.45
 21
210.5
  0
LINE
  8
0
 10
-132.45
 20
210.5
 11
-132.45
 21
217.4
  0
LINE
  8
0
 10
-132.45
 20
217.4
 11
-133.95
 21
217.4
  0
LINE
  8
0
 10
-133.95
 20
217.4
 11
-133.95
 21
223.1
  0
LINE
  8
0
 10
-133.95
 20
223.1
 11
-132.45
 21
223.1
  0
LINE
  8
0
 10
-132.45
 20
223.1
 11
-132.45
 21
230
  0
LINE
  8
0
 10
-132.45
 20
230
 11
-137.5
 21
230
  0
LINE
  8
0
 10
-137.5
 20
230
 11
-137.5
 21
234.875
  0
LINE
  8
0
 10
-137.5
 20
234.875
 11
-139.125
 21
236.5
  0
LINE
  8
0
 10
-139.125
 20
236.5
 11
-150.875
 21
236.5
  0
LINE
  8
0
 10
-150.875
 20
236.5
 11
-152.5
 21
234.875
  0
LINE
  8
0
 10
-152.5
 20
234.875
 11
-152.5
 21
230
  0
LINE
  8
0
 10
-152.5
 20
230
 11
-230
 21
230
  0
LINE
  8
0
 10
-230
 20
230
 11
-230
 21
152.5
  0
LINE
  8
0
 10
-230
 20
152.5
 11
-234.875
 21
152.5
  0
LINE
  8
0
 10
-234.875
 20
152.5
 11
-236.5
 21
150.875
  0
LINE
  8
0
 10
-236.5
 20
150.875
 11
-236.5
 21
139.125
  0
LINE
  8
0
 10
-236.5
 20
139.125
 11
-234.875
 21
137.5
  0
LINE
  8
0
 10
-234.875
 20
137.5
 11
-230
 21
137.5
  0
LINE
  8
0
 10
-230
 20
137.5
 11
-230
 21
132.45
  0
LINE
  8
0
 10
-230
 20
132.45
 11
-223.1
 21
132.45
  0
LINE
  8
0
 10
-223.1
 20
132.45
 11
-223.1
 21
133.95
  0
LINE
  8
0
 10
-223.1
 20
133.95
 11
-217.4
 21
133.95
  0
LINE
  8
0
 10
-217.4
 20
133.95
 11
-217.4
 21
132.45
  0
LINE
  8
0
 10
-217.4
 20
132.45
 11
-210.5
 21
132.45
  0
LINE
  8
0
 10
-210.5
 20
132.45
 11
-210.5
 21
127.55
  0
LINE
  8
0
 10
-210.5
 20
127.55
 11
-217.4
 21
127.55
  0
LINE
  8
0
 10
-217.4
 20
127.55
 11
-217.4
 21
126.05
  0
LINE
  8
0
 10
-217.4
 20
126.05
 11
-223.1
 21
126.05
  0
LINE
  8
0
 10
-223.1
 20
126.05
 11
-223.1
 21
127.55
  0
LINE
  8
0
 10
-223.1
 20
127.55
 11
-230
 21
127.55
  0
LINE
  8
0
 10
-230
 20
127.55
 11
-230
 21
122.5
  0
LINE
  8
0
 10
-230
 20
122.5
 11
-234.875
 21
122.5
  0
LINE
  8
0
 10
-234.875
 20
122.5
 11
-236.5
 21
120.875
  0
LINE
  8
0
 10
-236.5
 20
120.875
 11
-236.5
 21
109.125
  0
LINE
  8
0
 10
-236.5
 20
109.125
 11
-234.875
 21
107.5
  0
LINE
  8
0
 10
-234.875
 20
107.5
 11
-230
 21
107.5
  0
LINE
  8
0
 10
-230
 20
107.5
 11
-230
 21
42.2361
  0
LINE
  8
0
 10
-230
 20
42.2361
 11
-42.2361
 21
230
  0
LINE
  8
0
 10
-223
 20
223.95
 11
-227
 21
227.95
  0
LINE
  8
0
 10
-227
 20
227.95
 11
-227
 21
228.05
  0
LINE
  8
0
 10
-227
 20
228.05
 11
-213
 21
228.05
  0
LINE
  8
0
 10
-213
 20
228.05
 11
-213
 21
227.95
  0
LINE
  8
0
 10
-213
 20
227.95
 11
-217
 21
223.95
  0
LINE
  8
0
 10
-217
 20
223.95
 11
-223
 21
223.95
  0
LINE
  8
0
 10
-212.05
 20
213
 11
-216.05
 21
217
  0
LINE
  8
0
 10
-216.05
 20
217
 11
-216.05
 21
223
  0
LINE
  8
0
 10
-216.05
 20
223
 11
-212.05
 21
227
  0
LINE
  8
0
 10
-212.05
 20
227
 11
-211.95
 21
227
  0
LINE
  8
0
 10
-211.95
 20
227
 11
-211.95
 21
224.25
  0
LINE
  8
0
 10
-211.95
 20
224.25
 11
-208
 21
224.25
  0
LINE
  8
0
 10
-208
 20
224.25
 11
-208
 21
215.75
  0
LINE
  8
0
 10
-208
 20
215.75
 11
-211.95
 21
215.75
  0
LINE
  8
0
 10
-211.95
 20
215.75
 11
-211.95
 21
213
  0
LINE
  8
0
 10
-211.95
 20
213
 11
-212.05
 21
213
  0
LINE
  8
0
 10
-228.05
 20
213
 11
-228.05
 21
227
  0
LINE
  8
0
 10
-228.05
 20
227
 11
-227.95
 21
227
  0
LINE
  8
0
 10
-227.95
 20
227
 11
-223.95
 21
223
  0
LINE
  8
0
 10
-223.95
 20
223
 11
-223.95
 21
217
  0
LINE
  8
0
 10
-223.95
 20
217
 11
-227.95
 21
213
  0
LINE
  8
0
 10
-227.95
 20
213
 11
-228.05
 21
213
  0
LINE
  8
0
 10
-199
 20
215.75
 11
-199
 21
224.25
  0
LINE
  8
0
 10
-199
 20
224.25
 11
-195
 21
224.25
  0
LINE
  8
0
 10
-195
 20
224.25
 11
-195
 21
215.75
  0
LINE
  8
0
 10
-195
 20
215.75
 11
-199
 21
215.75
  0
LINE
  8
0
 10
-220.488
 20
217.548
 11
-220.957
 21
217.69
  0
LINE
  8
0
 10
-220.957
 20
217.69
 11
-221.389
 21
217.921
  0
LINE
  8
0
 10
-221.389
 20
217.921
 11
-221.768
 21
218.232
  0
LINE
  8
0
 10
-221.768
 20
218.232
 11
-222.079
 21
218.611
  0
LINE
  8
0
 10
-222.079
 20
218.611
 11
-222.31
 21
219.043
  0
LINE
  8
0
 10
-222.31
 20
219.043
 11
-222.452
 21
219.512
  0
LINE
  8
0
 10
-222.452
 20
219.512
 11
-222.5
 21
220
  0
LINE
  8
0
 10
-222.5
 20
220
 11
-222.452
 21
220.488
  0
LINE
  8
0
 10
-222.452
 20
220.488
 11
-222.31
 21
220.957
  0
LINE
  8
0
 10
-222.31
 20
220.957
 11
-222.079
 21
221.389
  0
LINE
  8
0
 10
-222.079
 20
221.389
 11
-221.768
 21
221.768
  0
LINE
  8
0
 10
-221.768
 20
221.768
 11
-221.389
 21
222.079
  0
LINE
  8
0
 10
-221.389
 20
222.079
 11
-220.957
 21
222.31
  0
LINE
  8
0
 10
-220.957
 20
222.31
 11
-220.488
 21
222.452
  0
LINE
  8
0
 10
-220.488
 20
222.452
 11
-220
 21
222.5
  0
LINE
  8
0
 10
-220
 20
222.5
 11
-219.512
 21
222.452
  0
LINE
  8
0
 10
-219.512
 20
222.452
 11
-219.043
 21
222.31
  0
LINE
  8
0
 10
-219.043
 20
222.31
 11
-218.611
 21
222.079
  0
LINE
  8
0
 10
-218.611
 20
222.079
 11
-218.232
 21
221.768
  0
LINE
  8
0
 10
-218.232
 20
221.768
 11
-217.921
 21
221.389
  0
LINE
  8
0
 10
-217.921
 20
221.389
 11
-217.69
 21
220.957
  0
LINE
  8
0
 10
-217.69
 20
220.957
 11
-217.548
 21
220.488
  0
LINE
  8
0
 10
-217.548
 20
220.488
 11
-217.5
 21
220
  0
LINE
  8
0
 10
-217.5
 20
220
 11
-217.548
 21
219.512
  0
LINE
  8
0
 10
-217.548
 20
219.512
 11
-217.69
 21
219.043
  0
LINE
  8
0
 10
-217.69
 20
219.043
 11
-217.921
 21
218.611
  0
LINE
  8
0
 10
-217.921
 20
218.611
 11
-218.232
 21
218.232
  0
LINE
  8
0
 10
-218.232
 20
218.232
 11
-218.611
 21
217.921
  0
LINE
  8
0
 10
-218.611
 20
217.921
 11
-219.043
 21
217.69
  0
LINE
  8
0
 10
-219.043
 20
217.69
 11
-219.512
 21
217.548
  0
LINE
  8
0
 10
-219.512
 20
217.548
 11
-220
 21
217.5
  0
LINE
  8
0
 10
-220
 20
217.5
 11
-220.488
 21
217.548
  0
LINE
  8
0
 10
-102.637
 20
183.317
 11
-75.8372
 21
210.117
  0
LINE
  8
0
 10
-75.8372
 20
210.117
 11
-71.3117
 21
205.591
  0
LINE
  8
0
 10
-71.3117
 20
205.591
 11
-98.1111
 21
178.792
  0
LINE
  8
0
 10
-98.1111
 20
178.792
 11
-102.637
 21
183.317
  0
LINE
  8
0
 10
-228.05
 20
193
 11
-228.05
 21
207
  0
LINE
  8
0
 10
-228.05
 20
207
 11
-227.95
 21
207
  0
LINE
  8
0
 10
-227.95
 20
207
 11
-223.95
 21
203
  0
LINE
  8
0
 10
-223.95
 20
203
 11
-223.95
 21
197
  0
LINE
  8
0
 10
-223.95
 20
197
 11
-227.95
 21
193
  0
LINE
  8
0
 10
-227.95
 20
193
 11
-228.05
 21
193
  0
LINE
  8
0
 10
-212.05
 20
193
 11
-216.05
 21
197
  0
LINE
  8
0
 10
-216.05
 20
197
 11
-216.05
 21
203
  0
LINE
  8
0
 10
-216.05
 20
203
 11
-212.05
 21
207
  0
LINE
  8
0
 10
-212.05
 20
207
 11
-211.95
 21
207
  0
LINE
  8
0
 10
-211.95
 20
207
 11
-211.95
 21
193
  0
LINE
  8
0
 10
-211.95
 20
193
 11
-212.05
 21
193
  0
LINE
  8
0
 10
-220.488
 20
197.548
 11
-220.957
 21
197.69
  0
LINE
  8
0
 10
-220.957
 20
197.69
 11
-221.389
 21
197.921
  0
LINE
  8
0
 10
-221.389
 20
197.921
 11
-221.768
 21
198.232
  0
LINE
  8
0
 10
-221.768
 20
198.232
 11
-222.079
 21
198.611
  0
LINE
  8
0
 10
-222.079
 20
198.611
 11
-222.31
 21
199.043
  0
LINE
  8
0
 10
-222.31
 20
199.043
 11
-222.452
 21
199.512
  0
LINE
  8
0
 10
-222.452
 20
199.512
 11
-222.5
 21
200
  0
LINE
  8
0
 10
-222.5
 20
200
 11
-222.452
 21
200.488
  0
LINE
  8
0
 10
-222.452
 20
200.488
 11
-222.31
 21
200.957
  0
LINE
  8
0
 10
-222.31
 20
200.957
 11
-222.079
 21
201.389
  0
LINE
  8
0
 10
-222.079
 20
201.389
 11
-221.768
 21
201.768
  0
LINE
  8
0
 10
-221.768
 20
201.768
 11
-221.389
 21
202.079
  0
LINE
  8
0
 10
-221.389
 20
202.079
 11
-220.957
 21
202.31
  0
LINE
  8
0
 10
-220.957
 20
202.31
 11
-220.488
 21
202.452
  0
LINE
  8
0
 10
-220.488
 20
202.452
 11
-220
 21
202.5
  0
LINE
  8
0
 10
-220
 20
202.5
 11
-219.512
 21
202.452
  0
LINE
  8
0
 10
-219.512
 20
202.452
 11
-219.043
 21
202.31
  0
LINE
  8
0
 10
-219.043
 20
202.31
 11
-218.611
 21
202.079
  0
LINE
  8
0
 10
-218.611
 20
202.079
 11
-218.232
 21
201.768
  0
LINE
  8
0
 10
-218.232
 20
201.768
 11
-217.921
 21
201.389
  0
LINE
  8
0
 10
-217.921
 20
201.389
 11
-217.69
 21
200.957
  0
LINE
  8
0
 10
-217.69
 20
200.957
 11
-217.548
 21
200.488
  0
LINE
  8
0
 10
-217.548
 20
200.488
 11
-217.5
 21
200
  0
LINE
  8
0
 10
-217.5
 20
200
 11
-217.548
 21
199.512
  0
LINE
  8
0
 10
-217.548
 20
199.512
 11
-217.69
 21
199.043
  0
LINE
  8
0
 10
-217.69
 20
199.043
 11
-217.921
 21
198.611
  0
LINE
  8
0
 10
-217.921
 20
198.611
 11
-218.232
 21
198.232
  0
LINE
  8
0
 10
-218.232
 20
198.232
 11
-218.611
 21
197.921
  0
LINE
  8
0
 10
-218.611
 20
197.921
 11
-219.043
 21
197.69
  0
LINE
  8
0
 10
-219.043
 20
197.69
 11
-219.512
 21
197.548
  0
LINE
  8
0
 10
-219.512
 20
197.548
 11
-220
 21
197.5
  0
LINE
  8
0
 10
-220
 20
197.5
 11
-220.488
 21
197.548
  0
LINE
  8
0
 10
-227
 20
191.95
 11
-227
 21
192.05
  0
LINE
  8
0
 10
-227
 20
192.05
 11
-223
 21
196.05
  0
LINE
  8
0
 10
-223
 20
196.05
 11
-217
 21
196.05
  0
LINE
  8
0
 10
-217
 20
196.05
 11
-213
 21
192.05
  0
LINE
  8
0
 10
-213
 20
192.05
 11
-213
 21
191.95
  0
LINE
  8
0
 10
-213
 20
191.95
 11
-227
 21
191.95
  0
LINE
  8
0
 10
-156.377
 20
129.577
 11
-129.577
 21
156.377
  0
LINE
  8
0
 10
-129.577
 20
156.377
 11
-125.052
 21
151.851
  0
LINE
  8
0
 10
-125.052
 20
151.851
 11
-151.851
 21
125.052
  0
LINE
  8
0
 10
-151.851
 20
125.052
 11
-156.377
 21
129.577
  0
LINE
  8
0
 10
-210.117
 20
75.8372
 11
-183.317
 21
102.637
  0
LINE
  8
0
 10
-183.317
 20
102.637
 11
-178.792
 21
98.1111
  0
LINE
  8
0
 10
-178.792
 20
98.1111
 11
-205.591
 21
71.3117
  0
LINE
  8
0
 10
-205.591
 20
71.3117
 11
-210.117
 21
75.8372
  0
LINE
  8
0
 10
122.5
 20
-234.875
 11
122.5
 21
-230
  0
LINE
  8
0
 10
122.5
 20
-230
 11
127.55
 21
-230
  0
LINE
  8
0
 10
127.55
 20
-230
 11
127.55
 21
-223.1
  0
LINE
  8
0
 10
127.55
 20
-223.1
 11
126.05
 21
-223.1
  0
LINE
  8
0
 10
126.05
 20
-223.1
 11
126.05
 21
-217.4
  0
LINE
  8
0
 10
126.05
 20
-217.4
 11
127.55
 21
-217.4
  0
LINE
  8
0
 10
127.55
 20
-217.4
 11
127.55
 21
-210.5
  0
LINE
  8
0
 10
127.55
 20
-210.5
 11
132.45
 21
-210.5
  0
LINE
  8
0
 10
132.45
 20
-210.5
 11
132.45
 21
-217.4
  0
LINE
  8
0
 10
132.45
 20
-217.4
 11
133.95
 21
-217.4
  0
LINE
  8
0
 10
133.95
 20
-217.4
 11
133.95
 21
-223.1
  0
LINE
  8
0
 10
133.95
 20
-223.1
 11
132.45
 21
-223.1
  0
LINE
  8
0
 10
132.45
 20
-223.1
 11
132.45
 21
-230
  0
LINE
  8
0
 10
132.45
 20
-230
 11
137.5
 21
-230
  0
LINE
  8
0
 10
137.5
 20
-230
 11
137.5
 21
-234.875
  0
LINE
  8
0
 10
137.5
 20
-234.875
 11
139.125
 21
-236.5
  0
LINE
  8
0
 10
139.125
 20
-236.5
 11
150.875
 21
-236.5
  0
LINE
  8
0
 10
150.875
 20
-236.5
 11
152.5
 21
-234.875
  0
LINE
  8
0
 10
152.5
 20
-234.875
 11
152.5
 21
-230
  0
LINE
  8
0
 10
152.5
 20
-230
 11
230
 21
-230
  0
LINE
  8
0
 10
230
 20
-230
 11
230
 21
-152.5
  0
LINE
  8
0
 10
230
 20
-152.5
 11
234.875
 21
-152.5
  0
LINE
  8
0
 10
234.875
 20
-152.5
 11
236.5
 21
-150.875
  0
LINE
  8
0
 10
236.5
 20
-150.875
 11
236.5
 21
-139.125
  0
LINE
  8
0
 10
236.5
 20
-139.125
 11
234.875
 21
-137.5
  0
LINE
  8
0
 10
234.875
 20
-137.5
 11
230
 21
-137.5
  0
LINE
  8
0
 10
230
 20
-137.5
 11
230
 21
-132.45
  0
LINE
  8
0
 10
230
 20
-132.45
 11
223.1
 21
-132.45
  0
LINE
  8
0
 10
223.1
 20
-132.45
 11
223.1
 21
-133.95
  0
LINE
  8
0
 10
223.1
 20
-133.95
 11
217.4
 21
-133.95
  0
LINE
  8
0
 10
217.4
 20
-133.95
 11
217.4
 21
-132.45
  0
LINE
  8
0
 10
217.4
 20
-132.45
 11
210.5
 21
-132.45
  0
LINE
  8
0
 10
210.5
 20
-132.45
 11
210.5
 21
-127.55
  0
LINE
  8
0
 10
210.5
 20
-127.55
 11
217.4
 21
-127.55
  0
LINE
  8
0
 10
217.4
 20
-127.55
 11
217.4
 21
-126.05
  0
LINE
  8
0
 10
217.4
 20
-126.05
 11
223.1
 21
-126.05
  0
LINE
  8
0
 10
223.1
 20
-126.05
 11
223.1
 21
-127.55
  0
LINE
  8
0
 10
223.1
 20
-127.55
 11
230
 21
-127.55
  0
LINE
  8
0
 10
230
 20
-127.55
 11
230
 21
-122.5
  0
LINE
  8
0
 10
230
 20
-122.5
 11
234.875
 21
-122.5
  0
LINE
  8
0
 10
234.875
 20
-122.5
 11
236.5
 21
-120.875
  0
LINE
  8
0
 10
236.5
 20
-120.875
 11
236.5
 21
-109.125
  0
LINE
  8
0
 10
236.5
 20
-109.125
 11
234.875
 21
-107.5
  0
LINE
  8
0
 10
234.875
 20
-107.5
 11
230
 21
-107.5
  0
LINE
  8
0
 10
230
 20
-107.5
 11
230
 21
-42.2361
  0
LINE
  8
0
 10
230
 20
-42.2361
 11
42.2361
 21
-230
  0
LINE
  8
0
 10
42.2361
 20
-230
 11
107.5
 21
-230
  0
LINE
  8
0
 10
107.5
 20
-230
 11
107.5
 21
-234.875
  0
LINE
  8
0
 10
107.5
 20
-234.875
 11
109.125
 21
-236.5
  0
LINE
  8
0
 10
109.125
 20
-236.5
 11
120.875
 21
-236.5
  0
LINE
  8
0
 10
120.875
 20
-236.5
 11
122.5
 21
-234.875
  0
LINE
  8
0
 10
178.792
 20
-98.1111
 11
205.591
 21
-71.3117
  0
LINE
  8
0
 10
205.591
 20
-71.3117
 11
210.117
 21
-75.8372
  0
LINE
  8
0
 10
210.117
 20
-75.8372
 11
183.317
 21
-102.637
  0
LINE
  8
0
 10
183.317
 20
-102.637
 11
178.792
 21
-98.1111
  0
LINE
  8
0
 10
125.052
 20
-151.851
 11
151.851
 21
-125.052
  0
LINE
  8
0
 10
151.851
 20
-125.052
 11
156.377
 21
-129.577
  0
LINE
  8
0
 10
156.377
 20
-129.577
 11
129.577
 21
-156.377
  0
LINE
  8
0
 10
129.577
 20
-156.377
 11
125.052
 21
-151.851
  0
LINE
  8
0
 10
71.3117
 20
-205.591
 11
98.1111
 21
-178.792
  0
LINE
  8
0
 10
98.1111
 20
-178.792
 11
102.637
 21
-183.317
  0
LINE
  8
0
 10
102.637
 20
-183.317
 11
75.8372
 21
-210.117
  0
LINE
  8
0
 10
75.8372
 20
-210.117
 11
71.3117
 21
-205.591
  0
LINE
  8
0
 10
217
 20
-196.05
 11
213
 21
-192.05
  0
LINE
  8
0
 10
213
 20
-192.05
 11
213
 21
-191.95
  0
LINE
  8
0
 10
213
 20
-191.95
 11
227
 21
-191.95
  0
LINE
  8
0
 10
227
 20
-191.95
 11
227
 21
-192.05
  0
LINE
  8
0
 10
227
 20
-192.05
 11
223
 21
-196.05
  0
LINE
  8
0
 10
223
 20
-196.05
 11
217
 21
-196.05
  0
LINE
  8
0
 10
211.95
 20
-207
 11
211.95
 21
-193
  0
LINE
  8
0
 10
211.95
 20
-193
 11
212.05
 21
-193
  0
LINE
  8
0
 10
212.05
 20
-193
 11
216.05
 21
-197
  0
LINE
  8
0
 10
216.05
 20
-197
 11
216.05
 21
-203
  0
LINE
  8
0
 10
216.05
 20
-203
 11
212.05
 21
-207
  0
LINE
  8
0
 10
212.05
 20
-207
 11
211.95
 21
-207
  0
LINE
  8
0
 10
227.95
 20
-207
 11
223.95
 21
-203
  0
LINE
  8
0
 10
223.95
 20
-203
 11
223.95
 21
-197
  0
LINE
  8
0
 10
223.95
 20
-197
 11
227.95
 21
-193
  0
LINE
  8
0
 10
227.95
 20
-193
 11
228.05
 21
-193
  0
LINE
  8
0
 10
228.05
 20
-193
 11
228.05
 21
-207
  0
LINE
  8
0
 10
228.05
 20
-207
 11
227.95
 21
-207
  0
LINE
  8
0
 10
219.512
 20
-202.452
 11
219.043
 21
-202.31
  0
LINE
  8
0
 10
219.043
 20
-202.31
 11
218.611
 21
-202.079
  0
LINE
  8
0
 10
218.611
 20
-202.079
 11
218.232
 21
-201.768
  0
LINE
  8
0
 10
218.232
 20
-201.768
 11
217.921
 21
-201.389
  0
LINE
  8
0
 10
217.921
 20
-201.389
 11
217.69
 21
-200.957
  0
LINE
  8
0
 10
217.69
 20
-200.957
 11
217.548
 21
-200.488
  0
LINE
  8
0
 10
217.548
 20
-200.488
 11
217.5
 21
-200
  0
LINE
  8
0
 10
217.5
 20
-200
 11
217.548
 21
-199.512
  0
LINE
  8
0
 10
217.548
 20
-199.512
 11
217.69
 21
-199.043
  0
LINE
  8
0
 10
217.69
 20
-199.043
 11
217.921
 21
-198.611
  0
LINE
  8
0
 10
217.921
 20
-198.611
 11
218.232
 21
-198.232
  0
LINE
  8
0
 10
218.232
 20
-198.232
 11
218.611
 21
-197.921
  0
LINE
  8
0
 10
218.611
 20
-197.921
 11
219.043
 21
-197.69
  0
LINE
  8
0
 10
219.043
 20
-197.69
 11
219.512
 21
-197.548
  0
LINE
  8
0
 10
219.512
 20
-197.548
 11
220
 21
-197.5
  0
LINE
  8
0
 10
220
 20
-197.5
 11
220.488
 21
-197.548
  0
LINE
  8
0
 10
220.488
 20
-197.548
 11
220.957
 21
-197.69
  0
LINE
  8
0
 10
220.957
 20
-197.69
 11
221.389
 21
-197.921
  0
LINE
  8
0
 10
221.389
 20
-197.921
 11
221.768
 21
-198.232
  0
LINE
  8
0
 10
221.768
 20
-198.232
 11
222.079
 21
-198.611
  0
LINE
  8
0
 10
222.079
 20
-198.611
 11
222.31
 21
-199.043
  0
LINE
  8
0
 10
222.31
 20
-199.043
 11
222.452
 21
-199.512
  0
LINE
  8
0
 10
222.452
 20
-199.512
 11
222.5
 21
-200
  0
LINE
  8
0
 10
222.5
 20
-200
 11
222.452
 21
-200.488
  0
LINE
  8
0
 10
222.452
 20
-200.488
 11
222.31
 21
-200.957
  0
LINE
  8
0
 10
222.31
 20
-200.957
 11
222.079
 21
-201.389
  0
LINE
  8
0
 10
222.079
 20
-201.389
 11
221.768
 21
-201.768
  0
LINE
  8
0
 10
221.768
 20
-201.768
 11
221.389
 21
-202.079
  0
LINE
  8
0
 10
221.389
 20
-202.079
 11
220.957
 21
-202.31
  0
LINE
  8
0
 10
220.957
 20
-202.31
 11
220.488
 21
-202.452
  0
LINE
  8
0
 10
220.488
 20
-202.452
 11
220
 21
-202.5
  0
LINE
  8
0
 10
220
 20
-202.5
 11
219.512
 21
-202.452
  0
LINE
  8
0
 10
227.95
 20
-227
 11
223.95
 21
-223
  0
LINE
  8
0
 10
223.95
 20
-223
 11
223.95
 21
-217
  0
LINE
  8
0
 10
223.95
 20
-217
 11
227.95
 21
-213
  0
LINE
  8
0
 10
227.95
 20
-213
 11
228.05
 21
-213
  0
LINE
  8
0
 10
228.05
 20
-213
 11
228.05
 21
-227
  0
LINE
  8
0
 10
228.05
 20
-227
 11
227.95
 21
-227
  0
LINE
  8
0
 10
211.95
 20
-227
 11
211.95
 21
-213
  0
LINE
  8
0
 10
211.95
 20
-213
 11
212.05
 21
-213
  0
LINE
  8
0
 10
212.05
 20
-213
 11
216.05
 21
-217
  0
LINE
  8
0
 10
216.05
 20
-217
 11
216.05
 21
-223
  0
LINE
  8
0
 10
216.05
 20
-223
 11
212.05
 21
-227
  0
LINE
  8
0
 10
212.05
 20
-227
 11
211.95
 21
-227
  0
LINE
  8
0
 10
219.512
 20
-222.452
 11
219.043
 21
-222.31
  0
LINE
  8
0
 10
219.043
 20
-222.31
 11
218.611
 21
-222.079
  0
LINE
  8
0
 10
218.611
 20
-222.079
 11
218.232
 21
-221.768
  0
LINE
  8
0
 10
218.232
 20
-221.768
 11
217.921
 21
-221.389
  0
LINE
  8
0
 10
217.921
 20
-221.389
 11
217.69
 21
-220.957
  0
LINE
  8
0
 10
217.69
 20
-220.957
 11
217.548
 21
-220.488
  0
LINE
  8
0
 10
217.548
 20
-220.488
 11
217.5
 21
-220
  0
LINE
  8
0
 10
217.5
 20
-220
 11
217.548
 21
-219.512
  0
LINE
  8
0
 10
217.548
 20
-219.512
 11
217.69
 21
-219.043
  0
LINE
  8
0
 10
217.69
 20
-219.043
 11
217.921
 21
-218.611
  0
LINE
  8
0
 10
217.921
 20
-218.611
 11
218.232
 21
-218.232
  0
LINE
  8
0
 10
218.232
 20
-218.232
 11
218.611
 21
-217.921
  0
LINE
  8
0
 10
218.611
 20
-217.921
 11
219.043
 21
-217.69
  0
LINE
  8
0
 10
219.043
 20
-217.69
 11
219.512
 21
-217.548
  0
LINE
  8
0
 10
219.512
 20
-217.548
 11
220
 21
-217.5
  0
LINE
  8
0
 10
220
 20
-217.5
 11
220.488
 21
-217.548
  0
LINE
  8
0
 10
220.488
 20
-217.548
 11
220.957
 21
-217.69
  0
LINE
  8
0
 10
220.957
 20
-217.69
 11
221.389
 21
-217.921
  0
LINE
  8
0
 10
221.389
 20
-217.921
 11
221.768
 21
-218.232
  0
LINE
  8
0
 10
221.768
 20
-218.232
 11
222.079
 21
-218.611
  0
LINE
  8
0
 10
222.079
 20
-218.611
 11
222.31
 21
-219.043
  0
LINE
  8
0
 10
222.31
 20
-219.043
 11
222.452
 21
-219.512
  0
LINE
  8
0
 10
222.452
 20
-219.512
 11
222.5
 21
-220
  0
LINE
  8
0
 10
222.5
 20
-220
 11
222.452
 21
-220.488
  0
LINE
  8
0
 10
222.452
 20
-220.488
 11
222.31
 21
-220.957
  0
LINE
  8
0
 10
222.31
 20
-220.957
 11
222.079
 21
-221.389
  0
LINE
  8
0
 10
222.079
 20
-221.389
 11
221.768
 21
-221.768
  0
LINE
  8
0
 10
221.768
 20
-221.768
 11
221.389
 21
-222.079
  0
LINE
  8
0
 10
221.389
 20
-222.079
 11
220.957
 21
-222.31
  0
LINE
  8
0
 10
220.957
 20
-222.31
 11
220.488
 21
-222.452
  0
LINE
  8
0
 10
220.488
 20
-222.452
 11
220
 21
-222.5
  0
LINE
  8
0
 10
220
 20
-222.5
 11
219.512
 21
-222.452
  0
LINE
  8
0
 10
213
 20
-228.05
 11
213
 21
-227.95
  0
LINE
  8
0
 10
213
 20
-227.95
 11
217
 21
-223.95
  0
LINE
  8
0
 10
217
 20
-223.95
 11
223
 21
-223.95
  0
LINE
  8
0
 10
223
 20
-223.95
 11
227
 21
-227.95
  0
LINE
  8
0
 10
227
 20
-227.95
 11
227
 21
-228.05
  0
LINE
  8
0
 10
227
 20
-228.05
 11
213
 21
-228.05
  0
LINE
  8
0
 10
-137.5
 20
-234.875
 11
-137.5
 21
-230
  0
LINE
  8
0
 10
-137.5
 20
-230
 11
-132.45
 21
-230
  0
LINE
  8
0
 10
-132.45
 20
-230
 11
-132.45
 21
-223.1
  0
LINE
  8
0
 10
-132.45
 20
-223.1
 11
-133.95
 21
-223.1
  0
LINE
  8
0
 10
-133.95
 20
-223.1
 11
-133.95
 21
-217.4
  0
LINE
  8
0
 10
-133.95
 20
-217.4
 11
-132.45
 21
-217.4
  0
LINE
  8
0
 10
-132.45
 20
-217.4
 11
-132.45
 21
-210.5
  0
LINE
  8
0
 10
-132.45
 20
-210.5
 11
-127.55
 21
-210.5
  0
LINE
  8
0
 10
-127.55
 20
-210.5
 11
-127.55
 21
-217.4
  0
LINE
  8
0
 10
-127.55
 20
-217.4
 11
-126.05
 21
-217.4
  0
LINE
  8
0
 10
-126.05
 20
-217.4
 11
-126.05
 21
-223.1
  0
LINE
  8
0
 10
-126.05
 20
-223.1
 11
-127.55
 21
-223.1
  0
LINE
  8
0
 10
-127.55
 20
-223.1
 11
-127.55
 21
-230
  0
LINE
  8
0
 10
-127.55
 20
-230
 11
-122.5
 21
-230
  0
LINE
  8
0
 10
-122.5
 20
-230
 11
-122.5
 21
-234.875
  0
LINE
  8
0
 10
-122.5
 20
-234.875
 11
-120.875
 21
-236.5
  0
LINE
  8
0
 10
-120.875
 20
-236.5
 11
-109.125
 21
-236.5
  0
LINE
  8
0
 10
-109.125
 20
-236.5
 11
-107.5
 21
-234.875
  0
LINE
  8
0
 10
-107.5
 20
-234.875
 11
-107.5
 21
-230
  0
LINE
  8
0
 10
-107.5
 20
-230
 11
-42.2361
 21
-230
  0
LINE
  8
0
 10
-42.2361
 20
-230
 11
-230
 21
-42.2361
  0
LINE
  8
0
 10
-230
 20
-42.2361
 11
-230
 21
-107.5
  0
LINE
  8
0
 10
-230
 20
-107.5
 11
-234.875
 21
-107.5
  0
LINE
  8
0
 10
-234.875
 20
-107.5
 11
-236.5
 21
-109.125
  0
LINE
  8
0
 10
-236.5
 20
-109.125
 11
-236.5
 21
-120.875
  0
LINE
  8
0
 10
-236.5
 20
-120.875
 11
-234.875
 21
-122.5
  0
LINE
  8
0
 10
-234.875
 20
-122.5
 11
-230
 21
-122.5
  0
LINE
  8
0
 10
-230
 20
-122.5
 11
-230
 21
-127.55
  0
LINE
  8
0
 10
-230
 20
-127.55
 11
-223.1
 21
-127.55
  0
LINE
  8
0
 10
-223.1
 20
-127.55
 11
-223.1
 21
-126.05
  0
LINE
  8
0
 10
-223.1
 20
-126.05
 11
-217.4
 21
-126.05
  0
LINE
  8
0
 10
-217.4
 20
-126.05
 11
-217.4
 21
-127.55
  0
LINE
  8
0
 10
-217.4
 20
-127.55
 11
-210.5
 21
-127.55
  0
LINE
  8
0
 10
-210.5
 20
-127.55
 11
-210.5
 21
-132.45
  0
LINE
  8
0
 10
-210.5
 20
-132.45
 11
-217.4
 21
-132.45
  0
LINE
  8
0
 10
-217.4
 20
-132.45
 11
-217.4
 21
-133.95
  0
LINE
  8
0
 10
-217.4
 20
-133.95
 11
-223.1
 21
-133.95
  0
LINE
  8
0
 10
-223.1
 20
-133.95
 11
-223.1
 21
-132.45
  0
LINE
  8
0
 10
-223.1
 20
-132.45
 11
-230
 21
-132.45
  0
LINE
  8
0
 10
-230
 20
-132.45
 11
-230
 21
-137.5
  0
LINE
  8
0
 10
-230
 20
-137.5
 11
-234.875
 21
-137.5
  0
LINE
  8
0
 10
-234.875
 20
-137.5
 11
-236.5
 21
-139.125
  0
LINE
  8
0
 10
-236.5
 20
-139.125
 11
-236.5
 21
-150.875
  0
LINE
  8
0
 10
-236.5
 20
-150.875
 11
-234.875
 21
-152.5
  0
LINE
  8
0
 10
-234.875
 20
-152.5
 11
-230
 21
-152.5
  0
LINE
  8
0
 10
-230
 20
-152.5
 11
-230
 21
-230
  0
LINE
  8
0
 10
-230
 20
-230
 11
-152.5
 21
-230
  0
LINE
  8
0
 10
-152.5
 20
-230
 11
-152.5
 21
-234.875
  0
LINE
  8
0
 10
-152.5
 20
-234.875
 11
-150.875
 21
-236.5
  0
LINE
  8
0
 10
-150.875
 20
-236.5
 11
-139.125
 21
-236.5
  0
LINE
  8
0
 10
-139.125
 20
-236.5
 11
-137.5
 21
-234.875
  0
LINE
  8
0
 10
-210.117
 20
-75.8372
 11
-205.591
 21
-71.3117
  0
LINE
  8
0
 10
-205.591
 20
-71.3117
 11
-178.792
 21
-98.1111
  0
LINE
  8
0
 10
-178.792
 20
-98.1111
 11
-183.317
 21
-102.637
  0
LINE
  8
0
 10
-183.317
 20
-102.637
 11
-210.117
 21
-75.8372
  0
LINE
  8
0
 10
-156.377
 20
-129.577
 11
-151.851
 21
-125.052
  0
LINE
  8
0
 10
-151.851
 20
-125.052
 11
-125.052
 21
-151.851
  0
LINE
  8
0
 10
-125.052
 20
-151.851
 11
-129.577
 21
-156.377
  0
LINE
  8
0
 10
-129.577
 20
-156.377
 11
-156.377
 21
-129.577
  0
LINE
  8
0
 10
-102.637
 20
-183.317
 11
-98.1111
 21
-178.792
  0
LINE
  8
0
 10
-98.1111
 20
-178.792
 11
-71.3117
 21
-205.591
  0
LINE
  8
0
 10
-71.3117
 20
-205.591
 11
-75.8372
 21
-210.117
  0
LINE
  8
0
 10
-75.8372
 20
-210.117
 11
-102.637
 21
-183.317
  0
LINE
  8
0
 10
-223
 20
-196.05
 11
-227
 21
-192.05
  0
LINE
  8
0
 10
-227
 20
-192.05
 11
-227
 21
-191.95
  0
LINE
  8
0
 10
-227
 20
-191.95
 11
-213
 21
-191.95
  0
LINE
  8
0
 10
-213
 20
-191.95
 11
-213
 21
-192.05
  0
LINE
  8
0
 10
-213
 20
-192.05
 11
-217
 21
-196.05
  0
LINE
  8
0
 10
-217
 20
-196.05
 11
-223
 21
-196.05
  0
LINE
  8
0
 10
-228.05
 20
-207
 11
-228.05
 21
-193
  0
LINE
  8
0
 10
-228.05
 20
-193
 11
-227.95
 21
-193
  0
LINE
  8
0
 10
-227.95
 20
-193
 11
-223.95
 21
-197
  0
LINE
  8
0
 10
-223.95
 20
-197
 11
-223.95
 21
-203
  0
LINE
  8
0
 10
-223.95
 20
-203
 11
-227.95
 21
-207
  0
LINE
  8
0
 10
-227.95
 20
-207
 11
-228.05
 21
-207
  0
LINE
  8
0
 10
-212.05
 20
-207
 11
-216.05
 21
-203
  0
LINE
  8
0
 10
-216.05
 20
-203
 11
-216.05
 21
-197
  0
LINE
  8
0
 10
-216.05
 20
-197
 11
-212.05
 21
-193
  0
LINE
  8
0
 10
-212.05
 20
-193
 11
-211.95
 21
-193
  0
LINE
  8
0
 10
-211.95
 20
-193
 11
-211.95
 21
-207
  0
LINE
  8
0
 10
-211.95
 20
-207
 11
-212.05
 21
-207
  0
LINE
  8
0
 10
-220.488
 20
-202.452
 11
-220.957
 21
-202.31
  0
LINE
  8
0
 10
-220.957
 20
-202.31
 11
-221.389
 21
-202.079
  0
LINE
  8
0
 10
-221.389
 20
-202.079
 11
-221.768
 21
-201.768
  0
LINE
  8
0
 10
-221.768
 20
-201.768
 11
-222.079
 21
-201.389
  0
LINE
  8
0
 10
-222.079
 20
-201.389
 11
-222.31
 21
-200.957
  0
LINE
  8
0
 10
-222.31
 20
-200.957
 11
-222.452
 21
-200.488
  0
LINE
  8
0
 10
-222.452
 20
-200.488
 11
-222.5
 21
-200
  0
LINE
  8
0
 10
-222.5
 20
-200
 11
-222.452
 21
-199.512
  0
LINE
  8
0
 10
-222.452
 20
-199.512
 11
-222.31
 21
-199.043
  0
LINE
  8
0
 10
-222.31
 20
-199.043
 11
-222.079
 21
-198.611
  0
LINE
  8
0
 10
-222.079
 20
-198.611
 11
-221.768
 21
-198.232
  0
LINE
  8
0
 10
-221.768
 20
-198.232
 11
-221.389
 21
-197.921
  0
LINE
  8
0
 10
-221.389
 20
-197.921
 11
-220.957
 21
-197.69
  0
LINE
  8
0
 10
-220.957
 20
-197.69
 11
-220.488
 21
-197.548
  0
LINE
  8
0
 10
-220.488
 20
-197.548
 11
-220
 21
-197.5
  0
LINE
  8
0
 10
-220
 20
-197.5
 11
-219.512
 21
-197.548
  0
LINE
  8
0
 10
-219.512
 20
-197.548
 11
-219.043
 21
-197.69
  0
LINE
  8
0
 10
-219.043
 20
-197.69
 11
-218.611
 21
-197.921
  0
LINE
  8
0
 10
-218.611
 20
-197.921
 11
-218.232
 21
-198.232
  0
LINE
  8
0
 10
-218.232
 20
-198.232
 11
-217.921
 21
-198.611
  0
LINE
  8
0
 10
-217.921
 20
-198.611
 11
-217.69
 21
-199.043
  0
LINE
  8
0
 10
-217.69
 20
-199.043
 11
-217.548
 21
-199.512
  0
LINE
  8
0
 10
-217.548
 20
-199.512
 11
-217.5
 21
-200
  0
LINE
  8
0
 10
-217.5
 20
-200
 11
-217.548
 21
-200.488
  0
LINE
  8
0
 10
-217.548
 20
-200.488
 11
-217.69
 21
-200.957
  0
LINE
  8
0
 10
-217.69
 20
-200.957
 11
-217.921
 21
-201.389
  0
LINE
  8
0
 10
-217.921
 20
-201.389
 11
-218.232
 21
-201.768
  0
LINE
  8
0
 10
-218.232
 20
-201.768
 11
-218.611
 21
-202.079
  0
LINE
  8
0
 10
-218.611
 20
-202.079
 11
-219.043
 21
-202.31
  0
LINE
  8
0
 10
-219.043
 20
-202.31
 11
-219.512
 21
-202.452
  0
LINE
  8
0
 10
-219.512
 20
-202.452
 11
-220
 21
-202.5
  0
LINE
  8
0
 10
-220
 20
-202.5
 11
-220.488
 21
-202.452
  0
LINE
  8
0
 10
-212.05
 20
-227
 11
-216.05
 21
-223
  0
LINE
  8
0
 10
-216.05
 20
-223
 11
-216.05
 21
-217
  0
LINE
  8
0
 10
-216.05
 20
-217
 11
-212.05
 21
-213
  0
LINE
  8
0
 10
-212.05
 20
-213
 11
-211.95
 21
-213
  0
LINE
  8
0
 10
-211.95
 20
-213
 11
-211.95
 21
-227
  0
LINE
  8
0
 10
-211.95
 20
-227
 11
-212.05
 21
-227
  0
LINE
  8
0
 10
-228.05
 20
-227
 11
-228.05
 21
-213
  0
LINE
  8
0
 10
-228.05
 20
-213
 11
-227.95
 21
-213
  0
LINE
  8
0
 10
-227.95
 20
-213
 11
-223.95
 21
-217
  0
LINE
  8
0
 10
-223.95
 20
-217
 11
-223.95
 21
-223
  0
LINE
  8
0
 10
-223.95
 20
-223
 11
-227.95
 21
-227
  0
LINE
  8
0
 10
-227.95
 20
-227
 11
-228.05
 21
-227
  0
LINE
  8
0
 10
-220.488
 20
-222.452
 11
-220.957
 21
-222.31
  0
LINE
  8
0
 10
-220.957
 20
-222.31
 11
-221.389
 21
-222.079
  0
LINE
  8
0
 10
-221.389
 20
-222.079
 11
-221.768
 21
-221.768
  0
LINE
  8
0
 10
-221.768
 20
-221.768
 11
-222.079
 21
-221.389
  0
LINE
  8
0
 10
-222.079
 20
-221.389
 11
-222.31
 21
-220.957
  0
LINE
  8
0
 10
-222.31
 20
-220.957
 11
-222.452
 21
-220.488
  0
LINE
  8
0
 10
-222.452
 20
-220.488
 11
-222.5
 21
-220
  0
LINE
  8
0
 10
-222.5
 20
-220
 11
-222.452
 21
-219.512
  0
LINE
  8
0
 10
-222.452
 20
-219.512
 11
-222.31
 21
-219.043
  0
LINE
  8
0
 10
-222.31
 20
-219.043
 11
-222.079
 21
-218.611
  0
LINE
  8
0
 10
-222.079
 20
-218.611
 11
-221.768
 21
-218.232
  0
LINE
  8
0
 10
-221.768
 20
-218.232
 11
-221.389
 21
-217.921
  0
LINE
  8
0
 10
-221.389
 20
-217.921
 11
-220.957
 21
-217.69
  0
LINE
  8
0
 10
-220.957
 20
-217.69
 11
-220.488
 21
-217.548
  0
LINE
  8
0
 10
-220.488
 20
-217.548
 11
-220
 21
-217.5
  0
LINE
  8
0
 10
-220
 20
-217.5
 11
-219.512
 21
-217.548
  0
LINE
  8
0
 10
-219.512
 20
-217.548
 11
-219.043
 21
-217.69
  0
LINE
  8
0
 10
-219.043
 20
-217.69
 11
-218.611
 21
-217.921
  0
LINE
  8
0
 10
-218.611
 20
-217.921
 11
-218.232
 21
-218.232
  0
LINE
  8
0
 10
-218.232
 20
-218.232
 11
-217.921
 21
-218.611
  0
LINE
  8
0
 10
-217.921
 20
-218.611
 11
-217.69
 21
-219.043
  0
LINE
  8
0
 10
-217.69
 20
-219.043
 11
-217.548
 21
-219.512
  0
LINE
  8
0
 10
-217.548
 20
-219.512
 11
-217.5
 21
-220
  0
LINE
  8
0
 10
-217.5
 20
-220
 11
-217.548
 21
-220.488
  0
LINE
  8
0
 10
-217.548
 20
-220.488
 11
-217.69
 21
-220.957
  0
LINE
  8
0
 10
-217.69
 20
-220.957
 11
-217.921
 21
-221.389
  0
LINE
  8
0
 10
-217.921
 20
-221.389
 11
-218.232
 21
-221.768
  0
LINE
  8
0
 10
-218.232
 20
-221.768
 11
-218.611
 21
-222.079
  0
LINE
  8
0
 10
-218.611
 20
-222.079
 11
-219.043
 21
-222.31
  0
LINE
  8
0
 10
-219.043
 20
-222.31
 11
-219.512
 21
-222.452
  0
LINE
  8
0
 10
-219.512
 20
-222.452
 11
-220
 21
-222.5
  0
LINE
  8
0
 10
-220
 20
-222.5
 11
-220.488
 21
-222.452
  0
LINE
  8
0
 10
-227
 20
-228.05
 11
-227
 21
-227.95
  0
LINE
  8
0
 10
-227
 20
-227.95
 11
-223
 21
-223.95
  0
LINE
  8
0
 10
-223
 20
-223.95
 11
-217
 21
-223.95
  0
LINE
  8
0
 10
-217
 20
-223.95
 11
-213
 21
-227.95
  0
LINE
  8
0
 10
-213
 20
-227.95
 11
-213
 21
-228.05
  0
LINE
  8
0
 10
-213
 20
-228.05
 11
-227
 21
-228.05
  0
ENDSEC
  0
SECTION
  2
OBJECTS
  0
DICTIONARY
  0
ENDSEC
  0
EOF
