  0
SECTION
  2
BLOCKS
  0
ENDSEC
  0
SECTION
  2
ENTITIES
  0
LINE
  8
0
 10
-132.5
 20
-229.875
 11
-132.5
 21
-225
  0
LINE
  8
0
 10
-132.5
 20
-225
 11
-127.45
 21
-225
  0
LINE
  8
0
 10
-127.45
 20
-225
 11
-127.45
 21
-218.1
  0
LINE
  8
0
 10
-127.45
 20
-218.1
 11
-129.095
 21
-218.1
  0
LINE
  8
0
 10
-129.095
 20
-218.1
 11
-129.095
 21
-212.4
  0
LINE
  8
0
 10
-129.095
 20
-212.4
 11
-127.45
 21
-212.4
  0
LINE
  8
0
 10
-127.45
 20
-212.4
 11
-127.45
 21
-205.5
  0
LINE
  8
0
 10
-127.45
 20
-205.5
 11
-122.55
 21
-205.5
  0
LINE
  8
0
 10
-122.55
 20
-205.5
 11
-122.55
 21
-212.4
  0
LINE
  8
0
 10
-122.55
 20
-212.4
 11
-120.905
 21
-212.4
  0
LINE
  8
0
 10
-120.905
 20
-212.4
 11
-120.905
 21
-218.1
  0
LINE
  8
0
 10
-120.905
 20
-218.1
 11
-122.55
 21
-218.1
  0
LINE
  8
0
 10
-122.55
 20
-218.1
 11
-122.55
 21
-225
  0
LINE
  8
0
 10
-122.55
 20
-225
 11
-117.5
 21
-225
  0
LINE
  8
0
 10
-117.5
 20
-225
 11
-117.5
 21
-229.875
  0
LINE
  8
0
 10
-117.5
 20
-229.875
 11
-115.875
 21
-231.5
  0
LINE
  8
0
 10
-115.875
 20
-231.5
 11
-104.125
 21
-231.5
  0
LINE
  8
0
 10
-104.125
 20
-231.5
 11
-102.5
 21
-229.875
  0
LINE
  8
0
 10
-102.5
 20
-229.875
 11
-102.5
 21
-225
  0
LINE
  8
0
 10
-102.5
 20
-225
 11
102.5
 21
-225
  0
LINE
  8
0
 10
102.5
 20
-225
 11
102.5
 21
-229.875
  0
LINE
  8
0
 10
102.5
 20
-229.875
 11
104.125
 21
-231.5
  0
LINE
  8
0
 10
104.125
 20
-231.5
 11
115.875
 21
-231.5
  0
LINE
  8
0
 10
115.875
 20
-231.5
 11
117.5
 21
-229.875
  0
LINE
  8
0
 10
117.5
 20
-229.875
 11
117.5
 21
-225
  0
LINE
  8
0
 10
117.5
 20
-225
 11
122.55
 21
-225
  0
LINE
  8
0
 10
122.55
 20
-225
 11
122.55
 21
-218.1
  0
LINE
  8
0
 10
122.55
 20
-218.1
 11
120.905
 21
-218.1
  0
LINE
  8
0
 10
120.905
 20
-218.1
 11
120.905
 21
-212.4
  0
LINE
  8
0
 10
120.905
 20
-212.4
 11
122.55
 21
-212.4
  0
LINE
  8
0
 10
122.55
 20
-212.4
 11
122.55
 21
-205.5
  0
LINE
  8
0
 10
122.55
 20
-205.5
 11
127.45
 21
-205.5
  0
LINE
  8
0
 10
127.45
 20
-205.5
 11
127.45
 21
-212.4
  0
LINE
  8
0
 10
127.45
 20
-212.4
 11
129.095
 21
-212.4
  0
LINE
  8
0
 10
129.095
 20
-212.4
 11
129.095
 21
-218.1
  0
LINE
  8
0
 10
129.095
 20
-218.1
 11
127.45
 21
-218.1
  0
LINE
  8
0
 10
127.45
 20
-218.1
 11
127.45
 21
-225
  0
LINE
  8
0
 10
127.45
 20
-225
 11
132.5
 21
-225
  0
LINE
  8
0
 10
132.5
 20
-225
 11
132.5
 21
-229.875
  0
LINE
  8
0
 10
132.5
 20
-229.875
 11
134.125
 21
-231.5
  0
LINE
  8
0
 10
134.125
 20
-231.5
 11
145.875
 21
-231.5
  0
LINE
  8
0
 10
145.875
 20
-231.5
 11
147.5
 21
-229.875
  0
LINE
  8
0
 10
147.5
 20
-229.875
 11
147.5
 21
-225
  0
LINE
  8
0
 10
147.5
 20
-225
 11
225
 21
-225
  0
LINE
  8
0
 10
225
 20
-225
 11
225
 21
-147.5
  0
LINE
  8
0
 10
225
 20
-147.5
 11
229.875
 21
-147.5
  0
LINE
  8
0
 10
229.875
 20
-147.5
 11
231.5
 21
-145.875
  0
LINE
  8
0
 10
231.5
 20
-145.875
 11
231.5
 21
-134.125
  0
LINE
  8
0
 10
231.5
 20
-134.125
 11
229.875
 21
-132.5
  0
LINE
  8
0
 10
229.875
 20
-132.5
 11
225
 21
-132.5
  0
LINE
  8
0
 10
225
 20
-132.5
 11
225
 21
-127.45
  0
LINE
  8
0
 10
225
 20
-127.45
 11
218.1
 21
-127.45
  0
LINE
  8
0
 10
218.1
 20
-127.45
 11
218.1
 21
-129.095
  0
LINE
  8
0
 10
218.1
 20
-129.095
 11
212.4
 21
-129.095
  0
LINE
  8
0
 10
212.4
 20
-129.095
 11
212.4
 21
-127.45
  0
LINE
  8
0
 10
212.4
 20
-127.45
 11
205.5
 21
-127.45
  0
LINE
  8
0
 10
205.5
 20
-127.45
 11
205.5
 21
-122.55
  0
LINE
  8
0
 10
205.5
 20
-122.55
 11
212.4
 21
-122.55
  0
LINE
  8
0
 10
212.4
 20
-122.55
 11
212.4
 21
-120.905
  0
LINE
  8
0
 10
212.4
 20
-120.905
 11
218.1
 21
-120.905
  0
LINE
  8
0
 10
218.1
 20
-120.905
 11
218.1
 21
-122.55
  0
LINE
  8
0
 10
218.1
 20
-122.55
 11
225
 21
-122.55
  0
LINE
  8
0
 10
225
 20
-122.55
 11
225
 21
-117.5
  0
LINE
  8
0
 10
225
 20
-117.5
 11
229.875
 21
-117.5
  0
LINE
  8
0
 10
229.875
 20
-117.5
 11
231.5
 21
-115.875
  0
LINE
  8
0
 10
231.5
 20
-115.875
 11
231.5
 21
-104.125
  0
LINE
  8
0
 10
231.5
 20
-104.125
 11
229.875
 21
-102.5
  0
LINE
  8
0
 10
229.875
 20
-102.5
 11
225
 21
-102.5
  0
LINE
  8
0
 10
225
 20
-102.5
 11
225
 21
102.5
  0
LINE
  8
0
 10
225
 20
102.5
 11
229.875
 21
102.5
  0
LINE
  8
0
 10
229.875
 20
102.5
 11
231.5
 21
104.125
  0
LINE
  8
0
 10
231.5
 20
104.125
 11
231.5
 21
115.875
  0
LINE
  8
0
 10
231.5
 20
115.875
 11
229.875
 21
117.5
  0
LINE
  8
0
 10
229.875
 20
117.5
 11
225
 21
117.5
  0
LINE
  8
0
 10
225
 20
117.5
 11
225
 21
122.55
  0
LINE
  8
0
 10
225
 20
122.55
 11
218.1
 21
122.55
  0
LINE
  8
0
 10
218.1
 20
122.55
 11
218.1
 21
120.905
  0
LINE
  8
0
 10
218.1
 20
120.905
 11
212.4
 21
120.905
  0
LINE
  8
0
 10
212.4
 20
120.905
 11
212.4
 21
122.55
  0
LINE
  8
0
 10
212.4
 20
122.55
 11
205.5
 21
122.55
  0
LINE
  8
0
 10
205.5
 20
122.55
 11
205.5
 21
127.45
  0
LINE
  8
0
 10
205.5
 20
127.45
 11
212.4
 21
127.45
  0
LINE
  8
0
 10
212.4
 20
127.45
 11
212.4
 21
129.095
  0
LINE
  8
0
 10
212.4
 20
129.095
 11
218.1
 21
129.095
  0
LINE
  8
0
 10
218.1
 20
129.095
 11
218.1
 21
127.45
  0
LINE
  8
0
 10
218.1
 20
127.45
 11
225
 21
127.45
  0
LINE
  8
0
 10
225
 20
127.45
 11
225
 21
132.5
  0
LINE
  8
0
 10
225
 20
132.5
 11
229.875
 21
132.5
  0
LINE
  8
0
 10
229.875
 20
132.5
 11
231.5
 21
134.125
  0
LINE
  8
0
 10
231.5
 20
134.125
 11
231.5
 21
145.875
  0
LINE
  8
0
 10
231.5
 20
145.875
 11
229.875
 21
147.5
  0
LINE
  8
0
 10
229.875
 20
147.5
 11
225
 21
147.5
  0
LINE
  8
0
 10
225
 20
147.5
 11
225
 21
225
  0
LINE
  8
0
 10
225
 20
225
 11
147.5
 21
225
  0
LINE
  8
0
 10
147.5
 20
225
 11
147.5
 21
229.875
  0
LINE
  8
0
 10
147.5
 20
229.875
 11
145.875
 21
231.5
  0
LINE
  8
0
 10
145.875
 20
231.5
 11
134.125
 21
231.5
  0
LINE
  8
0
 10
134.125
 20
231.5
 11
132.5
 21
229.875
  0
LINE
  8
0
 10
132.5
 20
229.875
 11
132.5
 21
225
  0
LINE
  8
0
 10
132.5
 20
225
 11
127.45
 21
225
  0
LINE
  8
0
 10
127.45
 20
225
 11
127.45
 21
218.1
  0
LINE
  8
0
 10
127.45
 20
218.1
 11
129.095
 21
218.1
  0
LINE
  8
0
 10
129.095
 20
218.1
 11
129.095
 21
212.4
  0
LINE
  8
0
 10
129.095
 20
212.4
 11
127.45
 21
212.4
  0
LINE
  8
0
 10
127.45
 20
212.4
 11
127.45
 21
205.5
  0
LINE
  8
0
 10
127.45
 20
205.5
 11
122.55
 21
205.5
  0
LINE
  8
0
 10
122.55
 20
205.5
 11
122.55
 21
212.4
  0
LINE
  8
0
 10
122.55
 20
212.4
 11
120.905
 21
212.4
  0
LINE
  8
0
 10
120.905
 20
212.4
 11
120.905
 21
218.1
  0
LINE
  8
0
 10
120.905
 20
218.1
 11
122.55
 21
218.1
  0
LINE
  8
0
 10
122.55
 20
218.1
 11
122.55
 21
225
  0
LINE
  8
0
 10
122.55
 20
225
 11
117.5
 21
225
  0
LINE
  8
0
 10
117.5
 20
225
 11
117.5
 21
229.875
  0
LINE
  8
0
 10
117.5
 20
229.875
 11
115.875
 21
231.5
  0
LINE
  8
0
 10
115.875
 20
231.5
 11
104.125
 21
231.5
  0
LINE
  8
0
 10
104.125
 20
231.5
 11
102.5
 21
229.875
  0
LINE
  8
0
 10
102.5
 20
229.875
 11
102.5
 21
225
  0
LINE
  8
0
 10
102.5
 20
225
 11
-102.5
 21
225
  0
LINE
  8
0
 10
-102.5
 20
225
 11
-102.5
 21
229.875
  0
LINE
  8
0
 10
-102.5
 20
229.875
 11
-104.125
 21
231.5
  0
LINE
  8
0
 10
-104.125
 20
231.5
 11
-115.875
 21
231.5
  0
LINE
  8
0
 10
-115.875
 20
231.5
 11
-117.5
 21
229.875
  0
LINE
  8
0
 10
-117.5
 20
229.875
 11
-117.5
 21
225
  0
LINE
  8
0
 10
-117.5
 20
225
 11
-122.55
 21
225
  0
LINE
  8
0
 10
-122.55
 20
225
 11
-122.55
 21
218.1
  0
LINE
  8
0
 10
-122.55
 20
218.1
 11
-120.905
 21
218.1
  0
LINE
  8
0
 10
-120.905
 20
218.1
 11
-120.905
 21
212.4
  0
LINE
  8
0
 10
-120.905
 20
212.4
 11
-122.55
 21
212.4
  0
LINE
  8
0
 10
-122.55
 20
212.4
 11
-122.55
 21
205.5
  0
LINE
  8
0
 10
-122.55
 20
205.5
 11
-127.45
 21
205.5
  0
LINE
  8
0
 10
-127.45
 20
205.5
 11
-127.45
 21
212.4
  0
LINE
  8
0
 10
-127.45
 20
212.4
 11
-129.095
 21
212.4
  0
LINE
  8
0
 10
-129.095
 20
212.4
 11
-129.095
 21
218.1
  0
LINE
  8
0
 10
-129.095
 20
218.1
 11
-127.45
 21
218.1
  0
LINE
  8
0
 10
-127.45
 20
218.1
 11
-127.45
 21
225
  0
LINE
  8
0
 10
-127.45
 20
225
 11
-132.5
 21
225
  0
LINE
  8
0
 10
-132.5
 20
225
 11
-132.5
 21
229.875
  0
LINE
  8
0
 10
-132.5
 20
229.875
 11
-134.125
 21
231.5
  0
LINE
  8
0
 10
-134.125
 20
231.5
 11
-145.875
 21
231.5
  0
LINE
  8
0
 10
-145.875
 20
231.5
 11
-147.5
 21
229.875
  0
LINE
  8
0
 10
-147.5
 20
229.875
 11
-147.5
 21
225
  0
LINE
  8
0
 10
-147.5
 20
225
 11
-225
 21
225
  0
LINE
  8
0
 10
-225
 20
225
 11
-225
 21
147.5
  0
LINE
  8
0
 10
-225
 20
147.5
 11
-229.875
 21
147.5
  0
LINE
  8
0
 10
-229.875
 20
147.5
 11
-231.5
 21
145.875
  0
LINE
  8
0
 10
-231.5
 20
145.875
 11
-231.5
 21
134.125
  0
LINE
  8
0
 10
-231.5
 20
134.125
 11
-229.875
 21
132.5
  0
LINE
  8
0
 10
-229.875
 20
132.5
 11
-225
 21
132.5
  0
LINE
  8
0
 10
-225
 20
132.5
 11
-225
 21
127.45
  0
LINE
  8
0
 10
-225
 20
127.45
 11
-218.1
 21
127.45
  0
LINE
  8
0
 10
-218.1
 20
127.45
 11
-218.1
 21
129.095
  0
LINE
  8
0
 10
-218.1
 20
129.095
 11
-212.4
 21
129.095
  0
LINE
  8
0
 10
-212.4
 20
129.095
 11
-212.4
 21
127.45
  0
LINE
  8
0
 10
-212.4
 20
127.45
 11
-205.5
 21
127.45
  0
LINE
  8
0
 10
-205.5
 20
127.45
 11
-205.5
 21
122.55
  0
LINE
  8
0
 10
-205.5
 20
122.55
 11
-212.4
 21
122.55
  0
LINE
  8
0
 10
-212.4
 20
122.55
 11
-212.4
 21
120.905
  0
LINE
  8
0
 10
-212.4
 20
120.905
 11
-218.1
 21
120.905
  0
LINE
  8
0
 10
-218.1
 20
120.905
 11
-218.1
 21
122.55
  0
LINE
  8
0
 10
-218.1
 20
122.55
 11
-225
 21
122.55
  0
LINE
  8
0
 10
-225
 20
122.55
 11
-225
 21
117.5
  0
LINE
  8
0
 10
-225
 20
117.5
 11
-229.875
 21
117.5
  0
LINE
  8
0
 10
-229.875
 20
117.5
 11
-231.5
 21
115.875
  0
LINE
  8
0
 10
-231.5
 20
115.875
 11
-231.5
 21
104.125
  0
LINE
  8
0
 10
-231.5
 20
104.125
 11
-229.875
 21
102.5
  0
LINE
  8
0
 10
-229.875
 20
102.5
 11
-225
 21
102.5
  0
LINE
  8
0
 10
-225
 20
102.5
 11
-225
 21
-102.5
  0
LINE
  8
0
 10
-225
 20
-102.5
 11
-229.875
 21
-102.5
  0
LINE
  8
0
 10
-229.875
 20
-102.5
 11
-231.5
 21
-104.125
  0
LINE
  8
0
 10
-231.5
 20
-104.125
 11
-231.5
 21
-115.875
  0
LINE
  8
0
 10
-231.5
 20
-115.875
 11
-229.875
 21
-117.5
  0
LINE
  8
0
 10
-229.875
 20
-117.5
 11
-225
 21
-117.5
  0
LINE
  8
0
 10
-225
 20
-117.5
 11
-225
 21
-122.55
  0
LINE
  8
0
 10
-225
 20
-122.55
 11
-218.1
 21
-122.55
  0
LINE
  8
0
 10
-218.1
 20
-122.55
 11
-218.1
 21
-120.905
  0
LINE
  8
0
 10
-218.1
 20
-120.905
 11
-212.4
 21
-120.905
  0
LINE
  8
0
 10
-212.4
 20
-120.905
 11
-212.4
 21
-122.55
  0
LINE
  8
0
 10
-212.4
 20
-122.55
 11
-205.5
 21
-122.55
  0
LINE
  8
0
 10
-205.5
 20
-122.55
 11
-205.5
 21
-127.45
  0
LINE
  8
0
 10
-205.5
 20
-127.45
 11
-212.4
 21
-127.45
  0
LINE
  8
0
 10
-212.4
 20
-127.45
 11
-212.4
 21
-129.095
  0
LINE
  8
0
 10
-212.4
 20
-129.095
 11
-218.1
 21
-129.095
  0
LINE
  8
0
 10
-218.1
 20
-129.095
 11
-218.1
 21
-127.45
  0
LINE
  8
0
 10
-218.1
 20
-127.45
 11
-225
 21
-127.45
  0
LINE
  8
0
 10
-225
 20
-127.45
 11
-225
 21
-132.5
  0
LINE
  8
0
 10
-225
 20
-132.5
 11
-229.875
 21
-132.5
  0
LINE
  8
0
 10
-229.875
 20
-132.5
 11
-231.5
 21
-134.125
  0
LINE
  8
0
 10
-231.5
 20
-134.125
 11
-231.5
 21
-145.875
  0
LINE
  8
0
 10
-231.5
 20
-145.875
 11
-229.875
 21
-147.5
  0
LINE
  8
0
 10
-229.875
 20
-147.5
 11
-225
 21
-147.5
  0
LINE
  8
0
 10
-225
 20
-147.5
 11
-225
 21
-225
  0
LINE
  8
0
 10
-225
 20
-225
 11
-147.5
 21
-225
  0
LINE
  8
0
 10
-147.5
 20
-225
 11
-147.5
 21
-229.875
  0
LINE
  8
0
 10
-147.5
 20
-229.875
 11
-145.875
 21
-231.5
  0
LINE
  8
0
 10
-145.875
 20
-231.5
 11
-134.125
 21
-231.5
  0
LINE
  8
0
 10
-134.125
 20
-231.5
 11
-132.5
 21
-229.875
  0
LINE
  8
0
 10
-218
 20
218.95
 11
-222
 21
222.95
  0
LINE
  8
0
 10
-222
 20
222.95
 11
-222
 21
223.05
  0
LINE
  8
0
 10
-222
 20
223.05
 11
-208
 21
223.05
  0
LINE
  8
0
 10
-208
 20
223.05
 11
-208
 21
222.95
  0
LINE
  8
0
 10
-208
 20
222.95
 11
-212
 21
218.95
  0
LINE
  8
0
 10
-212
 20
218.95
 11
-218
 21
218.95
  0
LINE
  8
0
 10
212
 20
218.95
 11
208
 21
222.95
  0
LINE
  8
0
 10
208
 20
222.95
 11
208
 21
223.05
  0
LINE
  8
0
 10
208
 20
223.05
 11
222
 21
223.05
  0
LINE
  8
0
 10
222
 20
223.05
 11
222
 21
222.95
  0
LINE
  8
0
 10
222
 20
222.95
 11
218
 21
218.95
  0
LINE
  8
0
 10
218
 20
218.95
 11
212
 21
218.95
  0
LINE
  8
0
 10
-223.05
 20
208
 11
-223.05
 21
222
  0
LINE
  8
0
 10
-223.05
 20
222
 11
-222.95
 21
222
  0
LINE
  8
0
 10
-222.95
 20
222
 11
-218.95
 21
218
  0
LINE
  8
0
 10
-218.95
 20
218
 11
-218.95
 21
212
  0
LINE
  8
0
 10
-218.95
 20
212
 11
-222.95
 21
208
  0
LINE
  8
0
 10
-222.95
 20
208
 11
-223.05
 21
208
  0
LINE
  8
0
 10
222.95
 20
208
 11
218.95
 21
212
  0
LINE
  8
0
 10
218.95
 20
212
 11
218.95
 21
218
  0
LINE
  8
0
 10
218.95
 20
218
 11
222.95
 21
222
  0
LINE
  8
0
 10
222.95
 20
222
 11
223.05
 21
222
  0
LINE
  8
0
 10
223.05
 20
222
 11
223.05
 21
208
  0
LINE
  8
0
 10
223.05
 20
208
 11
222.95
 21
208
  0
LINE
  8
0
 10
-207.05
 20
208
 11
-211.05
 21
212
  0
LINE
  8
0
 10
-211.05
 20
212
 11
-211.05
 21
218
  0
LINE
  8
0
 10
-211.05
 20
218
 11
-207.05
 21
222
  0
LINE
  8
0
 10
-207.05
 20
222
 11
-206.95
 21
222
  0
LINE
  8
0
 10
-206.95
 20
222
 11
-206.95
 21
208
  0
LINE
  8
0
 10
-206.95
 20
208
 11
-207.05
 21
208
  0
LINE
  8
0
 10
206.95
 20
208
 11
206.95
 21
222
  0
LINE
  8
0
 10
206.95
 20
222
 11
207.05
 21
222
  0
LINE
  8
0
 10
207.05
 20
222
 11
211.05
 21
218
  0
LINE
  8
0
 10
211.05
 20
218
 11
211.05
 21
212
  0
LINE
  8
0
 10
211.05
 20
212
 11
207.05
 21
208
  0
LINE
  8
0
 10
207.05
 20
208
 11
206.95
 21
208
  0
LINE
  8
0
 10
-215.488
 20
212.548
 11
-215.957
 21
212.69
  0
LINE
  8
0
 10
-215.957
 20
212.69
 11
-216.389
 21
212.921
  0
LINE
  8
0
 10
-216.389
 20
212.921
 11
-216.768
 21
213.232
  0
LINE
  8
0
 10
-216.768
 20
213.232
 11
-217.079
 21
213.611
  0
LINE
  8
0
 10
-217.079
 20
213.611
 11
-217.31
 21
214.043
  0
LINE
  8
0
 10
-217.31
 20
214.043
 11
-217.452
 21
214.512
  0
LINE
  8
0
 10
-217.452
 20
214.512
 11
-217.5
 21
215
  0
LINE
  8
0
 10
-217.5
 20
215
 11
-217.452
 21
215.488
  0
LINE
  8
0
 10
-217.452
 20
215.488
 11
-217.31
 21
215.957
  0
LINE
  8
0
 10
-217.31
 20
215.957
 11
-217.079
 21
216.389
  0
LINE
  8
0
 10
-217.079
 20
216.389
 11
-216.768
 21
216.768
  0
LINE
  8
0
 10
-216.768
 20
216.768
 11
-216.389
 21
217.079
  0
LINE
  8
0
 10
-216.389
 20
217.079
 11
-215.957
 21
217.31
  0
LINE
  8
0
 10
-215.957
 20
217.31
 11
-215.488
 21
217.452
  0
LINE
  8
0
 10
-215.488
 20
217.452
 11
-215
 21
217.5
  0
LINE
  8
0
 10
-215
 20
217.5
 11
-214.512
 21
217.452
  0
LINE
  8
0
 10
-214.512
 20
217.452
 11
-214.043
 21
217.31
  0
LINE
  8
0
 10
-214.043
 20
217.31
 11
-213.611
 21
217.079
  0
LINE
  8
0
 10
-213.611
 20
217.079
 11
-213.232
 21
216.768
  0
LINE
  8
0
 10
-213.232
 20
216.768
 11
-212.921
 21
216.389
  0
LINE
  8
0
 10
-212.921
 20
216.389
 11
-212.69
 21
215.957
  0
LINE
  8
0
 10
-212.69
 20
215.957
 11
-212.548
 21
215.488
  0
LINE
  8
0
 10
-212.548
 20
215.488
 11
-212.5
 21
215
  0
LINE
  8
0
 10
-212.5
 20
215
 11
-212.548
 21
214.512
  0
LINE
  8
0
 10
-212.548
 20
214.512
 11
-212.69
 21
214.043
  0
LINE
  8
0
 10
-212.69
 20
214.043
 11
-212.921
 21
213.611
  0
LINE
  8
0
 10
-212.921
 20
213.611
 11
-213.232
 21
213.232
  0
LINE
  8
0
 10
-213.232
 20
213.232
 11
-213.611
 21
212.921
  0
LINE
  8
0
 10
-213.611
 20
212.921
 11
-214.043
 21
212.69
  0
LINE
  8
0
 10
-214.043
 20
212.69
 11
-214.512
 21
212.548
  0
LINE
  8
0
 10
-214.512
 20
212.548
 11
-215
 21
212.5
  0
LINE
  8
0
 10
-215
 20
212.5
 11
-215.488
 21
212.548
  0
LINE
  8
0
 10
214.512
 20
212.548
 11
214.043
 21
212.69
  0
LINE
  8
0
 10
214.043
 20
212.69
 11
213.611
 21
212.921
  0
LINE
  8
0
 10
213.611
 20
212.921
 11
213.232
 21
213.232
  0
LINE
  8
0
 10
213.232
 20
213.232
 11
212.921
 21
213.611
  0
LINE
  8
0
 10
212.921
 20
213.611
 11
212.69
 21
214.043
  0
LINE
  8
0
 10
212.69
 20
214.043
 11
212.548
 21
214.512
  0
LINE
  8
0
 10
212.548
 20
214.512
 11
212.5
 21
215
  0
LINE
  8
0
 10
212.5
 20
215
 11
212.548
 21
215.488
  0
LINE
  8
0
 10
212.548
 20
215.488
 11
212.69
 21
215.957
  0
LINE
  8
0
 10
212.69
 20
215.957
 11
212.921
 21
216.389
  0
LINE
  8
0
 10
212.921
 20
216.389
 11
213.232
 21
216.768
  0
LINE
  8
0
 10
213.232
 20
216.768
 11
213.611
 21
217.079
  0
LINE
  8
0
 10
213.611
 20
217.079
 11
214.043
 21
217.31
  0
LINE
  8
0
 10
214.043
 20
217.31
 11
214.512
 21
217.452
  0
LINE
  8
0
 10
214.512
 20
217.452
 11
215
 21
217.5
  0
LINE
  8
0
 10
215
 20
217.5
 11
215.488
 21
217.452
  0
LINE
  8
0
 10
215.488
 20
217.452
 11
215.957
 21
217.31
  0
LINE
  8
0
 10
215.957
 20
217.31
 11
216.389
 21
217.079
  0
LINE
  8
0
 10
216.389
 20
217.079
 11
216.768
 21
216.768
  0
LINE
  8
0
 10
216.768
 20
216.768
 11
217.079
 21
216.389
  0
LINE
  8
0
 10
217.079
 20
216.389
 11
217.31
 21
215.957
  0
LINE
  8
0
 10
217.31
 20
215.957
 11
217.452
 21
215.488
  0
LINE
  8
0
 10
217.452
 20
215.488
 11
217.5
 21
215
  0
LINE
  8
0
 10
217.5
 20
215
 11
217.452
 21
214.512
  0
LINE
  8
0
 10
217.452
 20
214.512
 11
217.31
 21
214.043
  0
LINE
  8
0
 10
217.31
 20
214.043
 11
217.079
 21
213.611
  0
LINE
  8
0
 10
217.079
 20
213.611
 11
216.768
 21
213.232
  0
LINE
  8
0
 10
216.768
 20
213.232
 11
216.389
 21
212.921
  0
LINE
  8
0
 10
216.389
 20
212.921
 11
215.957
 21
212.69
  0
LINE
  8
0
 10
215.957
 20
212.69
 11
215.488
 21
212.548
  0
LINE
  8
0
 10
215.488
 20
212.548
 11
215
 21
212.5
  0
LINE
  8
0
 10
215
 20
212.5
 11
214.512
 21
212.548
  0
LINE
  8
0
 10
222.95
 20
188
 11
218.95
 21
192
  0
LINE
  8
0
 10
218.95
 20
192
 11
218.95
 21
198
  0
LINE
  8
0
 10
218.95
 20
198
 11
222.95
 21
202
  0
LINE
  8
0
 10
222.95
 20
202
 11
223.05
 21
202
  0
LINE
  8
0
 10
223.05
 20
202
 11
223.05
 21
188
  0
LINE
  8
0
 10
223.05
 20
188
 11
222.95
 21
188
  0
LINE
  8
0
 10
-207.05
 20
188
 11
-211.05
 21
192
  0
LINE
  8
0
 10
-211.05
 20
192
 11
-211.05
 21
198
  0
LINE
  8
0
 10
-211.05
 20
198
 11
-207.05
 21
202
  0
LINE
  8
0
 10
-207.05
 20
202
 11
-206.95
 21
202
  0
LINE
  8
0
 10
-206.95
 20
202
 11
-206.95
 21
188
  0
LINE
  8
0
 10
-206.95
 20
188
 11
-207.05
 21
188
  0
LINE
  8
0
 10
206.95
 20
188
 11
206.95
 21
202
  0
LINE
  8
0
 10
206.95
 20
202
 11
207.05
 21
202
  0
LINE
  8
0
 10
207.05
 20
202
 11
211.05
 21
198
  0
LINE
  8
0
 10
211.05
 20
198
 11
211.05
 21
192
  0
LINE
  8
0
 10
211.05
 20
192
 11
207.05
 21
188
  0
LINE
  8
0
 10
207.05
 20
188
 11
206.95
 21
188
  0
LINE
  8
0
 10
-223.05
 20
188
 11
-223.05
 21
202
  0
LINE
  8
0
 10
-223.05
 20
202
 11
-222.95
 21
202
  0
LINE
  8
0
 10
-222.95
 20
202
 11
-218.95
 21
198
  0
LINE
  8
0
 10
-218.95
 20
198
 11
-218.95
 21
192
  0
LINE
  8
0
 10
-218.95
 20
192
 11
-222.95
 21
188
  0
LINE
  8
0
 10
-222.95
 20
188
 11
-223.05
 21
188
  0
LINE
  8
0
 10
-215.488
 20
192.548
 11
-215.957
 21
192.69
  0
LINE
  8
0
 10
-215.957
 20
192.69
 11
-216.389
 21
192.921
  0
LINE
  8
0
 10
-216.389
 20
192.921
 11
-216.768
 21
193.232
  0
LINE
  8
0
 10
-216.768
 20
193.232
 11
-217.079
 21
193.611
  0
LINE
  8
0
 10
-217.079
 20
193.611
 11
-217.31
 21
194.043
  0
LINE
  8
0
 10
-217.31
 20
194.043
 11
-217.452
 21
194.512
  0
LINE
  8
0
 10
-217.452
 20
194.512
 11
-217.5
 21
195
  0
LINE
  8
0
 10
-217.5
 20
195
 11
-217.452
 21
195.488
  0
LINE
  8
0
 10
-217.452
 20
195.488
 11
-217.31
 21
195.957
  0
LINE
  8
0
 10
-217.31
 20
195.957
 11
-217.079
 21
196.389
  0
LINE
  8
0
 10
-217.079
 20
196.389
 11
-216.768
 21
196.768
  0
LINE
  8
0
 10
-216.768
 20
196.768
 11
-216.389
 21
197.079
  0
LINE
  8
0
 10
-216.389
 20
197.079
 11
-215.957
 21
197.31
  0
LINE
  8
0
 10
-215.957
 20
197.31
 11
-215.488
 21
197.452
  0
LINE
  8
0
 10
-215.488
 20
197.452
 11
-215
 21
197.5
  0
LINE
  8
0
 10
-215
 20
197.5
 11
-214.512
 21
197.452
  0
LINE
  8
0
 10
-214.512
 20
197.452
 11
-214.043
 21
197.31
  0
LINE
  8
0
 10
-214.043
 20
197.31
 11
-213.611
 21
197.079
  0
LINE
  8
0
 10
-213.611
 20
197.079
 11
-213.232
 21
196.768
  0
LINE
  8
0
 10
-213.232
 20
196.768
 11
-212.921
 21
196.389
  0
LINE
  8
0
 10
-212.921
 20
196.389
 11
-212.69
 21
195.957
  0
LINE
  8
0
 10
-212.69
 20
195.957
 11
-212.548
 21
195.488
  0
LINE
  8
0
 10
-212.548
 20
195.488
 11
-212.5
 21
195
  0
LINE
  8
0
 10
-212.5
 20
195
 11
-212.548
 21
194.512
  0
LINE
  8
0
 10
-212.548
 20
194.512
 11
-212.69
 21
194.043
  0
LINE
  8
0
 10
-212.69
 20
194.043
 11
-212.921
 21
193.611
  0
LINE
  8
0
 10
-212.921
 20
193.611
 11
-213.232
 21
193.232
  0
LINE
  8
0
 10
-213.232
 20
193.232
 11
-213.611
 21
192.921
  0
LINE
  8
0
 10
-213.611
 20
192.921
 11
-214.043
 21
192.69
  0
LINE
  8
0
 10
-214.043
 20
192.69
 11
-214.512
 21
192.548
  0
LINE
  8
0
 10
-214.512
 20
192.548
 11
-215
 21
192.5
  0
LINE
  8
0
 10
-215
 20
192.5
 11
-215.488
 21
192.548
  0
LINE
  8
0
 10
214.512
 20
192.548
 11
214.043
 21
192.69
  0
LINE
  8
0
 10
214.043
 20
192.69
 11
213.611
 21
192.921
  0
LINE
  8
0
 10
213.611
 20
192.921
 11
213.232
 21
193.232
  0
LINE
  8
0
 10
213.232
 20
193.232
 11
212.921
 21
193.611
  0
LINE
  8
0
 10
212.921
 20
193.611
 11
212.69
 21
194.043
  0
LINE
  8
0
 10
212.69
 20
194.043
 11
212.548
 21
194.512
  0
LINE
  8
0
 10
212.548
 20
194.512
 11
212.5
 21
195
  0
LINE
  8
0
 10
212.5
 20
195
 11
212.548
 21
195.488
  0
LINE
  8
0
 10
212.548
 20
195.488
 11
212.69
 21
195.957
  0
LINE
  8
0
 10
212.69
 20
195.957
 11
212.921
 21
196.389
  0
LINE
  8
0
 10
212.921
 20
196.389
 11
213.232
 21
196.768
  0
LINE
  8
0
 10
213.232
 20
196.768
 11
213.611
 21
197.079
  0
LINE
  8
0
 10
213.611
 20
197.079
 11
214.043
 21
197.31
  0
LINE
  8
0
 10
214.043
 20
197.31
 11
214.512
 21
197.452
  0
LINE
  8
0
 10
214.512
 20
197.452
 11
215
 21
197.5
  0
LINE
  8
0
 10
215
 20
197.5
 11
215.488
 21
197.452
  0
LINE
  8
0
 10
215.488
 20
197.452
 11
215.957
 21
197.31
  0
LINE
  8
0
 10
215.957
 20
197.31
 11
216.389
 21
197.079
  0
LINE
  8
0
 10
216.389
 20
197.079
 11
216.768
 21
196.768
  0
LINE
  8
0
 10
216.768
 20
196.768
 11
217.079
 21
196.389
  0
LINE
  8
0
 10
217.079
 20
196.389
 11
217.31
 21
195.957
  0
LINE
  8
0
 10
217.31
 20
195.957
 11
217.452
 21
195.488
  0
LINE
  8
0
 10
217.452
 20
195.488
 11
217.5
 21
195
  0
LINE
  8
0
 10
217.5
 20
195
 11
217.452
 21
194.512
  0
LINE
  8
0
 10
217.452
 20
194.512
 11
217.31
 21
194.043
  0
LINE
  8
0
 10
217.31
 20
194.043
 11
217.079
 21
193.611
  0
LINE
  8
0
 10
217.079
 20
193.611
 11
216.768
 21
193.232
  0
LINE
  8
0
 10
216.768
 20
193.232
 11
216.389
 21
192.921
  0
LINE
  8
0
 10
216.389
 20
192.921
 11
215.957
 21
192.69
  0
LINE
  8
0
 10
215.957
 20
192.69
 11
215.488
 21
192.548
  0
LINE
  8
0
 10
215.488
 20
192.548
 11
215
 21
192.5
  0
LINE
  8
0
 10
215
 20
192.5
 11
214.512
 21
192.548
  0
LINE
  8
0
 10
208
 20
186.95
 11
208
 21
187.05
  0
LINE
  8
0
 10
208
 20
187.05
 11
212
 21
191.05
  0
LINE
  8
0
 10
212
 20
191.05
 11
218
 21
191.05
  0
LINE
  8
0
 10
218
 20
191.05
 11
222
 21
187.05
  0
LINE
  8
0
 10
222
 20
187.05
 11
222
 21
186.95
  0
LINE
  8
0
 10
222
 20
186.95
 11
208
 21
186.95
  0
LINE
  8
0
 10
-222
 20
186.95
 11
-222
 21
187.05
  0
LINE
  8
0
 10
-222
 20
187.05
 11
-218
 21
191.05
  0
LINE
  8
0
 10
-218
 20
191.05
 11
-212
 21
191.05
  0
LINE
  8
0
 10
-212
 20
191.05
 11
-208
 21
187.05
  0
LINE
  8
0
 10
-208
 20
187.05
 11
-208
 21
186.95
  0
LINE
  8
0
 10
-208
 20
186.95
 11
-222
 21
186.95
  0
LINE
  8
0
 10
132.05
 20
71.8
 11
132.05
 21
78.2
  0
LINE
  8
0
 10
132.05
 20
78.2
 11
175.95
 21
78.2
  0
LINE
  8
0
 10
175.95
 20
78.2
 11
175.95
 21
71.8
  0
LINE
  8
0
 10
175.95
 20
71.8
 11
132.05
 21
71.8
  0
LINE
  8
0
 10
-219.95
 20
78.2
 11
-176.05
 21
78.2
  0
LINE
  8
0
 10
-176.05
 20
78.2
 11
-176.05
 21
71.8
  0
LINE
  8
0
 10
-176.05
 20
71.8
 11
-219.95
 21
71.8
  0
LINE
  8
0
 10
-219.95
 20
71.8
 11
-219.95
 21
78.2
  0
LINE
  8
0
 10
-43.95
 20
71.8
 11
-43.95
 21
78.2
  0
LINE
  8
0
 10
-43.95
 20
78.2
 11
-0.0499878
 21
78.2
  0
LINE
  8
0
 10
-0.0499878
 20
78.2
 11
-0.0499878
 21
71.8
  0
LINE
  8
0
 10
-0.0499878
 20
71.8
 11
-43.95
 21
71.8
  0
LINE
  8
0
 10
44.05
 20
71.8
 11
44.05
 21
78.2
  0
LINE
  8
0
 10
44.05
 20
78.2
 11
87.95
 21
78.2
  0
LINE
  8
0
 10
87.95
 20
78.2
 11
87.95
 21
71.8
  0
LINE
  8
0
 10
87.95
 20
71.8
 11
44.05
 21
71.8
  0
LINE
  8
0
 10
-4.50484
 20
-2.16942
 11
-4.50484
 21
2.16942
  0
LINE
  8
0
 10
-4.50484
 20
2.16942
 11
-1.11259
 21
4.87463
  0
LINE
  8
0
 10
-1.11259
 20
4.87463
 11
3.11745
 21
3.90915
  0
LINE
  8
0
 10
3.11745
 20
3.90915
 11
5
 21
0
  0
LINE
  8
0
 10
5
 20
0
 11
3.11745
 21
-3.90915
  0
LINE
  8
0
 10
3.11745
 20
-3.90915
 11
-1.11259
 21
-4.87463
  0
LINE
  8
0
 10
-1.11259
 20
-4.87463
 11
-4.50484
 21
-2.16942
  0
LINE
  8
0
 10
44.05
 20
-78.2
 11
44.05
 21
-71.8
  0
LINE
  8
0
 10
44.05
 20
-71.8
 11
87.95
 21
-71.8
  0
LINE
  8
0
 10
87.95
 20
-71.8
 11
87.95
 21
-78.2
  0
LINE
  8
0
 10
87.95
 20
-78.2
 11
44.05
 21
-78.2
  0
LINE
  8
0
 10
132.05
 20
-78.2
 11
132.05
 21
-71.8
  0
LINE
  8
0
 10
132.05
 20
-71.8
 11
175.95
 21
-71.8
  0
LINE
  8
0
 10
175.95
 20
-71.8
 11
175.95
 21
-78.2
  0
LINE
  8
0
 10
175.95
 20
-78.2
 11
132.05
 21
-78.2
  0
LINE
  8
0
 10
-43.95
 20
-78.2
 11
-43.95
 21
-71.8
  0
LINE
  8
0
 10
-43.95
 20
-71.8
 11
-0.0499878
 21
-71.8
  0
LINE
  8
0
 10
-0.0499878
 20
-71.8
 11
-0.0499878
 21
-78.2
  0
LINE
  8
0
 10
-0.0499878
 20
-78.2
 11
-43.95
 21
-78.2
  0
LINE
  8
0
 10
-219.95
 20
-78.2
 11
-219.95
 21
-71.8
  0
LINE
  8
0
 10
-219.95
 20
-71.8
 11
-176.05
 21
-71.8
  0
LINE
  8
0
 10
-176.05
 20
-71.8
 11
-176.05
 21
-78.2
  0
LINE
  8
0
 10
-176.05
 20
-78.2
 11
-219.95
 21
-78.2
  0
LINE
  8
0
 10
-131.95
 20
-78.2
 11
-131.95
 21
-71.8
  0
LINE
  8
0
 10
-131.95
 20
-71.8
 11
-88.05
 21
-71.8
  0
LINE
  8
0
 10
-88.05
 20
-71.8
 11
-88.05
 21
-78.2
  0
LINE
  8
0
 10
-88.05
 20
-78.2
 11
-131.95
 21
-78.2
  0
LINE
  8
0
 10
212
 20
-191.05
 11
208
 21
-187.05
  0
LINE
  8
0
 10
208
 20
-187.05
 11
208
 21
-186.95
  0
LINE
  8
0
 10
208
 20
-186.95
 11
222
 21
-186.95
  0
LINE
  8
0
 10
222
 20
-186.95
 11
222
 21
-187.05
  0
LINE
  8
0
 10
222
 20
-187.05
 11
218
 21
-191.05
  0
LINE
  8
0
 10
218
 20
-191.05
 11
212
 21
-191.05
  0
LINE
  8
0
 10
-218
 20
-191.05
 11
-222
 21
-187.05
  0
LINE
  8
0
 10
-222
 20
-187.05
 11
-222
 21
-186.95
  0
LINE
  8
0
 10
-222
 20
-186.95
 11
-208
 21
-186.95
  0
LINE
  8
0
 10
-208
 20
-186.95
 11
-208
 21
-187.05
  0
LINE
  8
0
 10
-208
 20
-187.05
 11
-212
 21
-191.05
  0
LINE
  8
0
 10
-212
 20
-191.05
 11
-218
 21
-191.05
  0
LINE
  8
0
 10
222.95
 20
-202
 11
218.95
 21
-198
  0
LINE
  8
0
 10
218.95
 20
-198
 11
218.95
 21
-192
  0
LINE
  8
0
 10
218.95
 20
-192
 11
222.95
 21
-188
  0
LINE
  8
0
 10
222.95
 20
-188
 11
223.05
 21
-188
  0
LINE
  8
0
 10
223.05
 20
-188
 11
223.05
 21
-202
  0
LINE
  8
0
 10
223.05
 20
-202
 11
222.95
 21
-202
  0
LINE
  8
0
 10
-223.05
 20
-202
 11
-223.05
 21
-188
  0
LINE
  8
0
 10
-223.05
 20
-188
 11
-222.95
 21
-188
  0
LINE
  8
0
 10
-222.95
 20
-188
 11
-218.95
 21
-192
  0
LINE
  8
0
 10
-218.95
 20
-192
 11
-218.95
 21
-198
  0
LINE
  8
0
 10
-218.95
 20
-198
 11
-222.95
 21
-202
  0
LINE
  8
0
 10
-222.95
 20
-202
 11
-223.05
 21
-202
  0
LINE
  8
0
 10
-207.05
 20
-202
 11
-211.05
 21
-198
  0
LINE
  8
0
 10
-211.05
 20
-198
 11
-211.05
 21
-192
  0
LINE
  8
0
 10
-211.05
 20
-192
 11
-207.05
 21
-188
  0
LINE
  8
0
 10
-207.05
 20
-188
 11
-206.95
 21
-188
  0
LINE
  8
0
 10
-206.95
 20
-188
 11
-206.95
 21
-202
  0
LINE
  8
0
 10
-206.95
 20
-202
 11
-207.05
 21
-202
  0
LINE
  8
0
 10
206.95
 20
-202
 11
206.95
 21
-188
  0
LINE
  8
0
 10
206.95
 20
-188
 11
207.05
 21
-188
  0
LINE
  8
0
 10
207.05
 20
-188
 11
211.05
 21
-192
  0
LINE
  8
0
 10
211.05
 20
-192
 11
211.05
 21
-198
  0
LINE
  8
0
 10
211.05
 20
-198
 11
207.05
 21
-202
  0
LINE
  8
0
 10
207.05
 20
-202
 11
206.95
 21
-202
  0
LINE
  8
0
 10
-215.488
 20
-197.452
 11
-215.957
 21
-197.31
  0
LINE
  8
0
 10
-215.957
 20
-197.31
 11
-216.389
 21
-197.079
  0
LINE
  8
0
 10
-216.389
 20
-197.079
 11
-216.768
 21
-196.768
  0
LINE
  8
0
 10
-216.768
 20
-196.768
 11
-217.079
 21
-196.389
  0
LINE
  8
0
 10
-217.079
 20
-196.389
 11
-217.31
 21
-195.957
  0
LINE
  8
0
 10
-217.31
 20
-195.957
 11
-217.452
 21
-195.488
  0
LINE
  8
0
 10
-217.452
 20
-195.488
 11
-217.5
 21
-195
  0
LINE
  8
0
 10
-217.5
 20
-195
 11
-217.452
 21
-194.512
  0
LINE
  8
0
 10
-217.452
 20
-194.512
 11
-217.31
 21
-194.043
  0
LINE
  8
0
 10
-217.31
 20
-194.043
 11
-217.079
 21
-193.611
  0
LINE
  8
0
 10
-217.079
 20
-193.611
 11
-216.768
 21
-193.232
  0
LINE
  8
0
 10
-216.768
 20
-193.232
 11
-216.389
 21
-192.921
  0
LINE
  8
0
 10
-216.389
 20
-192.921
 11
-215.957
 21
-192.69
  0
LINE
  8
0
 10
-215.957
 20
-192.69
 11
-215.488
 21
-192.548
  0
LINE
  8
0
 10
-215.488
 20
-192.548
 11
-215
 21
-192.5
  0
LINE
  8
0
 10
-215
 20
-192.5
 11
-214.512
 21
-192.548
  0
LINE
  8
0
 10
-214.512
 20
-192.548
 11
-214.043
 21
-192.69
  0
LINE
  8
0
 10
-214.043
 20
-192.69
 11
-213.611
 21
-192.921
  0
LINE
  8
0
 10
-213.611
 20
-192.921
 11
-213.232
 21
-193.232
  0
LINE
  8
0
 10
-213.232
 20
-193.232
 11
-212.921
 21
-193.611
  0
LINE
  8
0
 10
-212.921
 20
-193.611
 11
-212.69
 21
-194.043
  0
LINE
  8
0
 10
-212.69
 20
-194.043
 11
-212.548
 21
-194.512
  0
LINE
  8
0
 10
-212.548
 20
-194.512
 11
-212.5
 21
-195
  0
LINE
  8
0
 10
-212.5
 20
-195
 11
-212.548
 21
-195.488
  0
LINE
  8
0
 10
-212.548
 20
-195.488
 11
-212.69
 21
-195.957
  0
LINE
  8
0
 10
-212.69
 20
-195.957
 11
-212.921
 21
-196.389
  0
LINE
  8
0
 10
-212.921
 20
-196.389
 11
-213.232
 21
-196.768
  0
LINE
  8
0
 10
-213.232
 20
-196.768
 11
-213.611
 21
-197.079
  0
LINE
  8
0
 10
-213.611
 20
-197.079
 11
-214.043
 21
-197.31
  0
LINE
  8
0
 10
-214.043
 20
-197.31
 11
-214.512
 21
-197.452
  0
LINE
  8
0
 10
-214.512
 20
-197.452
 11
-215
 21
-197.5
  0
LINE
  8
0
 10
-215
 20
-197.5
 11
-215.488
 21
-197.452
  0
LINE
  8
0
 10
214.512
 20
-197.452
 11
214.043
 21
-197.31
  0
LINE
  8
0
 10
214.043
 20
-197.31
 11
213.611
 21
-197.079
  0
LINE
  8
0
 10
213.611
 20
-197.079
 11
213.232
 21
-196.768
  0
LINE
  8
0
 10
213.232
 20
-196.768
 11
212.921
 21
-196.389
  0
LINE
  8
0
 10
212.921
 20
-196.389
 11
212.69
 21
-195.957
  0
LINE
  8
0
 10
212.69
 20
-195.957
 11
212.548
 21
-195.488
  0
LINE
  8
0
 10
212.548
 20
-195.488
 11
212.5
 21
-195
  0
LINE
  8
0
 10
212.5
 20
-195
 11
212.548
 21
-194.512
  0
LINE
  8
0
 10
212.548
 20
-194.512
 11
212.69
 21
-194.043
  0
LINE
  8
0
 10
212.69
 20
-194.043
 11
212.921
 21
-193.611
  0
LINE
  8
0
 10
212.921
 20
-193.611
 11
213.232
 21
-193.232
  0
LINE
  8
0
 10
213.232
 20
-193.232
 11
213.611
 21
-192.921
  0
LINE
  8
0
 10
213.611
 20
-192.921
 11
214.043
 21
-192.69
  0
LINE
  8
0
 10
214.043
 20
-192.69
 11
214.512
 21
-192.548
  0
LINE
  8
0
 10
214.512
 20
-192.548
 11
215
 21
-192.5
  0
LINE
  8
0
 10
215
 20
-192.5
 11
215.488
 21
-192.548
  0
LINE
  8
0
 10
215.488
 20
-192.548
 11
215.957
 21
-192.69
  0
LINE
  8
0
 10
215.957
 20
-192.69
 11
216.389
 21
-192.921
  0
LINE
  8
0
 10
216.389
 20
-192.921
 11
216.768
 21
-193.232
  0
LINE
  8
0
 10
216.768
 20
-193.232
 11
217.079
 21
-193.611
  0
LINE
  8
0
 10
217.079
 20
-193.611
 11
217.31
 21
-194.043
  0
LINE
  8
0
 10
217.31
 20
-194.043
 11
217.452
 21
-194.512
  0
LINE
  8
0
 10
217.452
 20
-194.512
 11
217.5
 21
-195
  0
LINE
  8
0
 10
217.5
 20
-195
 11
217.452
 21
-195.488
  0
LINE
  8
0
 10
217.452
 20
-195.488
 11
217.31
 21
-195.957
  0
LINE
  8
0
 10
217.31
 20
-195.957
 11
217.079
 21
-196.389
  0
LINE
  8
0
 10
217.079
 20
-196.389
 11
216.768
 21
-196.768
  0
LINE
  8
0
 10
216.768
 20
-196.768
 11
216.389
 21
-197.079
  0
LINE
  8
0
 10
216.389
 20
-197.079
 11
215.957
 21
-197.31
  0
LINE
  8
0
 10
215.957
 20
-197.31
 11
215.488
 21
-197.452
  0
LINE
  8
0
 10
215.488
 20
-197.452
 11
215
 21
-197.5
  0
LINE
  8
0
 10
215
 20
-197.5
 11
214.512
 21
-197.452
  0
LINE
  8
0
 10
-207.05
 20
-222
 11
-211.05
 21
-218
  0
LINE
  8
0
 10
-211.05
 20
-218
 11
-211.05
 21
-212
  0
LINE
  8
0
 10
-211.05
 20
-212
 11
-207.05
 21
-208
  0
LINE
  8
0
 10
-207.05
 20
-208
 11
-206.95
 21
-208
  0
LINE
  8
0
 10
-206.95
 20
-208
 11
-206.95
 21
-222
  0
LINE
  8
0
 10
-206.95
 20
-222
 11
-207.05
 21
-222
  0
LINE
  8
0
 10
206.95
 20
-222
 11
206.95
 21
-208
  0
LINE
  8
0
 10
206.95
 20
-208
 11
207.05
 21
-208
  0
LINE
  8
0
 10
207.05
 20
-208
 11
211.05
 21
-212
  0
LINE
  8
0
 10
211.05
 20
-212
 11
211.05
 21
-218
  0
LINE
  8
0
 10
211.05
 20
-218
 11
207.05
 21
-222
  0
LINE
  8
0
 10
207.05
 20
-222
 11
206.95
 21
-222
  0
LINE
  8
0
 10
-223.05
 20
-222
 11
-223.05
 21
-208
  0
LINE
  8
0
 10
-223.05
 20
-208
 11
-222.95
 21
-208
  0
LINE
  8
0
 10
-222.95
 20
-208
 11
-218.95
 21
-212
  0
LINE
  8
0
 10
-218.95
 20
-212
 11
-218.95
 21
-218
  0
LINE
  8
0
 10
-218.95
 20
-218
 11
-222.95
 21
-222
  0
LINE
  8
0
 10
-222.95
 20
-222
 11
-223.05
 21
-222
  0
LINE
  8
0
 10
222.95
 20
-222
 11
218.95
 21
-218
  0
LINE
  8
0
 10
218.95
 20
-218
 11
218.95
 21
-212
  0
LINE
  8
0
 10
218.95
 20
-212
 11
222.95
 21
-208
  0
LINE
  8
0
 10
222.95
 20
-208
 11
223.05
 21
-208
  0
LINE
  8
0
 10
223.05
 20
-208
 11
223.05
 21
-222
  0
LINE
  8
0
 10
223.05
 20
-222
 11
222.95
 21
-222
  0
LINE
  8
0
 10
-215.488
 20
-217.452
 11
-215.957
 21
-217.31
  0
LINE
  8
0
 10
-215.957
 20
-217.31
 11
-216.389
 21
-217.079
  0
LINE
  8
0
 10
-216.389
 20
-217.079
 11
-216.768
 21
-216.768
  0
LINE
  8
0
 10
-216.768
 20
-216.768
 11
-217.079
 21
-216.389
  0
LINE
  8
0
 10
-217.079
 20
-216.389
 11
-217.31
 21
-215.957
  0
LINE
  8
0
 10
-217.31
 20
-215.957
 11
-217.452
 21
-215.488
  0
LINE
  8
0
 10
-217.452
 20
-215.488
 11
-217.5
 21
-215
  0
LINE
  8
0
 10
-217.5
 20
-215
 11
-217.452
 21
-214.512
  0
LINE
  8
0
 10
-217.452
 20
-214.512
 11
-217.31
 21
-214.043
  0
LINE
  8
0
 10
-217.31
 20
-214.043
 11
-217.079
 21
-213.611
  0
LINE
  8
0
 10
-217.079
 20
-213.611
 11
-216.768
 21
-213.232
  0
LINE
  8
0
 10
-216.768
 20
-213.232
 11
-216.389
 21
-212.921
  0
LINE
  8
0
 10
-216.389
 20
-212.921
 11
-215.957
 21
-212.69
  0
LINE
  8
0
 10
-215.957
 20
-212.69
 11
-215.488
 21
-212.548
  0
LINE
  8
0
 10
-215.488
 20
-212.548
 11
-215
 21
-212.5
  0
LINE
  8
0
 10
-215
 20
-212.5
 11
-214.512
 21
-212.548
  0
LINE
  8
0
 10
-214.512
 20
-212.548
 11
-214.043
 21
-212.69
  0
LINE
  8
0
 10
-214.043
 20
-212.69
 11
-213.611
 21
-212.921
  0
LINE
  8
0
 10
-213.611
 20
-212.921
 11
-213.232
 21
-213.232
  0
LINE
  8
0
 10
-213.232
 20
-213.232
 11
-212.921
 21
-213.611
  0
LINE
  8
0
 10
-212.921
 20
-213.611
 11
-212.69
 21
-214.043
  0
LINE
  8
0
 10
-212.69
 20
-214.043
 11
-212.548
 21
-214.512
  0
LINE
  8
0
 10
-212.548
 20
-214.512
 11
-212.5
 21
-215
  0
LINE
  8
0
 10
-212.5
 20
-215
 11
-212.548
 21
-215.488
  0
LINE
  8
0
 10
-212.548
 20
-215.488
 11
-212.69
 21
-215.957
  0
LINE
  8
0
 10
-212.69
 20
-215.957
 11
-212.921
 21
-216.389
  0
LINE
  8
0
 10
-212.921
 20
-216.389
 11
-213.232
 21
-216.768
  0
LINE
  8
0
 10
-213.232
 20
-216.768
 11
-213.611
 21
-217.079
  0
LINE
  8
0
 10
-213.611
 20
-217.079
 11
-214.043
 21
-217.31
  0
LINE
  8
0
 10
-214.043
 20
-217.31
 11
-214.512
 21
-217.452
  0
LINE
  8
0
 10
-214.512
 20
-217.452
 11
-215
 21
-217.5
  0
LINE
  8
0
 10
-215
 20
-217.5
 11
-215.488
 21
-217.452
  0
LINE
  8
0
 10
214.512
 20
-217.452
 11
214.043
 21
-217.31
  0
LINE
  8
0
 10
214.043
 20
-217.31
 11
213.611
 21
-217.079
  0
LINE
  8
0
 10
213.611
 20
-217.079
 11
213.232
 21
-216.768
  0
LINE
  8
0
 10
213.232
 20
-216.768
 11
212.921
 21
-216.389
  0
LINE
  8
0
 10
212.921
 20
-216.389
 11
212.69
 21
-215.957
  0
LINE
  8
0
 10
212.69
 20
-215.957
 11
212.548
 21
-215.488
  0
LINE
  8
0
 10
212.548
 20
-215.488
 11
212.5
 21
-215
  0
LINE
  8
0
 10
212.5
 20
-215
 11
212.548
 21
-214.512
  0
LINE
  8
0
 10
212.548
 20
-214.512
 11
212.69
 21
-214.043
  0
LINE
  8
0
 10
212.69
 20
-214.043
 11
212.921
 21
-213.611
  0
LINE
  8
0
 10
212.921
 20
-213.611
 11
213.232
 21
-213.232
  0
LINE
  8
0
 10
213.232
 20
-213.232
 11
213.611
 21
-212.921
  0
LINE
  8
0
 10
213.611
 20
-212.921
 11
214.043
 21
-212.69
  0
LINE
  8
0
 10
214.043
 20
-212.69
 11
214.512
 21
-212.548
  0
LINE
  8
0
 10
214.512
 20
-212.548
 11
215
 21
-212.5
  0
LINE
  8
0
 10
215
 20
-212.5
 11
215.488
 21
-212.548
  0
LINE
  8
0
 10
215.488
 20
-212.548
 11
215.957
 21
-212.69
  0
LINE
  8
0
 10
215.957
 20
-212.69
 11
216.389
 21
-212.921
  0
LINE
  8
0
 10
216.389
 20
-212.921
 11
216.768
 21
-213.232
  0
LINE
  8
0
 10
216.768
 20
-213.232
 11
217.079
 21
-213.611
  0
LINE
  8
0
 10
217.079
 20
-213.611
 11
217.31
 21
-214.043
  0
LINE
  8
0
 10
217.31
 20
-214.043
 11
217.452
 21
-214.512
  0
LINE
  8
0
 10
217.452
 20
-214.512
 11
217.5
 21
-215
  0
LINE
  8
0
 10
217.5
 20
-215
 11
217.452
 21
-215.488
  0
LINE
  8
0
 10
217.452
 20
-215.488
 11
217.31
 21
-215.957
  0
LINE
  8
0
 10
217.31
 20
-215.957
 11
217.079
 21
-216.389
  0
LINE
  8
0
 10
217.079
 20
-216.389
 11
216.768
 21
-216.768
  0
LINE
  8
0
 10
216.768
 20
-216.768
 11
216.389
 21
-217.079
  0
LINE
  8
0
 10
216.389
 20
-217.079
 11
215.957
 21
-217.31
  0
LINE
  8
0
 10
215.957
 20
-217.31
 11
215.488
 21
-217.452
  0
LINE
  8
0
 10
215.488
 20
-217.452
 11
215
 21
-217.5
  0
LINE
  8
0
 10
215
 20
-217.5
 11
214.512
 21
-217.452
  0
LINE
  8
0
 10
208
 20
-223.05
 11
208
 21
-222.95
  0
LINE
  8
0
 10
208
 20
-222.95
 11
212
 21
-218.95
  0
LINE
  8
0
 10
212
 20
-218.95
 11
218
 21
-218.95
  0
LINE
  8
0
 10
218
 20
-218.95
 11
222
 21
-222.95
  0
LINE
  8
0
 10
222
 20
-222.95
 11
222
 21
-223.05
  0
LINE
  8
0
 10
222
 20
-223.05
 11
208
 21
-223.05
  0
LINE
  8
0
 10
-222
 20
-223.05
 11
-222
 21
-222.95
  0
LINE
  8
0
 10
-222
 20
-222.95
 11
-218
 21
-218.95
  0
LINE
  8
0
 10
-218
 20
-218.95
 11
-212
 21
-218.95
  0
LINE
  8
0
 10
-212
 20
-218.95
 11
-208
 21
-222.95
  0
LINE
  8
0
 10
-208
 20
-222.95
 11
-208
 21
-223.05
  0
LINE
  8
0
 10
-208
 20
-223.05
 11
-222
 21
-223.05
  0
LINE
  8
0
 10
-88.05
 20
78.2
 11
-88.05
 21
71.8
  0
LINE
  8
0
 10
-88.05
 20
71.8
 11
-131.95
 21
71.8
  0
LINE
  8
0
 10
-131.95
 20
71.8
 11
-131.95
 21
78.2
  0
LINE
  8
0
 10
-131.95
 20
78.2
 11
-88.05
 21
78.2
  0
ENDSEC
  0
SECTION
  2
OBJECTS
  0
DICTIONARY
  0
ENDSEC
  0
EOF
