  0
SECTION
  2
BLOCKS
  0
ENDSEC
  0
SECTION
  2
ENTITIES
  0
LINE
  8
0
 10
-16.2742
 20
210
 11
-87.5
 21
210
  0
LINE
  8
0
 10
-87.5
 20
210
 11
-87.5
 21
214.875
  0
LINE
  8
0
 10
-87.5
 20
214.875
 11
-89.125
 21
216.5
  0
LINE
  8
0
 10
-89.125
 20
216.5
 11
-100.875
 21
216.5
  0
LINE
  8
0
 10
-100.875
 20
216.5
 11
-102.5
 21
214.875
  0
LINE
  8
0
 10
-102.5
 20
214.875
 11
-102.5
 21
210
  0
LINE
  8
0
 10
-102.5
 20
210
 11
-107.55
 21
210
  0
LINE
  8
0
 10
-107.55
 20
210
 11
-107.55
 21
203.1
  0
LINE
  8
0
 10
-107.55
 20
203.1
 11
-106.05
 21
203.1
  0
LINE
  8
0
 10
-106.05
 20
203.1
 11
-106.05
 21
197.4
  0
LINE
  8
0
 10
-106.05
 20
197.4
 11
-107.55
 21
197.4
  0
LINE
  8
0
 10
-107.55
 20
197.4
 11
-107.55
 21
190.5
  0
LINE
  8
0
 10
-107.55
 20
190.5
 11
-112.45
 21
190.5
  0
LINE
  8
0
 10
-112.45
 20
190.5
 11
-112.45
 21
197.4
  0
LINE
  8
0
 10
-112.45
 20
197.4
 11
-113.95
 21
197.4
  0
LINE
  8
0
 10
-113.95
 20
197.4
 11
-113.95
 21
203.1
  0
LINE
  8
0
 10
-113.95
 20
203.1
 11
-112.45
 21
203.1
  0
LINE
  8
0
 10
-112.45
 20
203.1
 11
-112.45
 21
210
  0
LINE
  8
0
 10
-112.45
 20
210
 11
-117.5
 21
210
  0
LINE
  8
0
 10
-117.5
 20
210
 11
-117.5
 21
214.875
  0
LINE
  8
0
 10
-117.5
 20
214.875
 11
-119.125
 21
216.5
  0
LINE
  8
0
 10
-119.125
 20
216.5
 11
-130.875
 21
216.5
  0
LINE
  8
0
 10
-130.875
 20
216.5
 11
-132.5
 21
214.875
  0
LINE
  8
0
 10
-132.5
 20
214.875
 11
-132.5
 21
210
  0
LINE
  8
0
 10
-132.5
 20
210
 11
-210
 21
210
  0
LINE
  8
0
 10
-210
 20
210
 11
-210
 21
132.5
  0
LINE
  8
0
 10
-210
 20
132.5
 11
-214.875
 21
132.5
  0
LINE
  8
0
 10
-214.875
 20
132.5
 11
-216.5
 21
130.875
  0
LINE
  8
0
 10
-216.5
 20
130.875
 11
-216.5
 21
119.125
  0
LINE
  8
0
 10
-216.5
 20
119.125
 11
-214.875
 21
117.5
  0
LINE
  8
0
 10
-214.875
 20
117.5
 11
-210
 21
117.5
  0
LINE
  8
0
 10
-210
 20
117.5
 11
-210
 21
112.45
  0
LINE
  8
0
 10
-210
 20
112.45
 11
-203.1
 21
112.45
  0
LINE
  8
0
 10
-203.1
 20
112.45
 11
-203.1
 21
113.95
  0
LINE
  8
0
 10
-203.1
 20
113.95
 11
-197.4
 21
113.95
  0
LINE
  8
0
 10
-197.4
 20
113.95
 11
-197.4
 21
112.45
  0
LINE
  8
0
 10
-197.4
 20
112.45
 11
-190.5
 21
112.45
  0
LINE
  8
0
 10
-190.5
 20
112.45
 11
-190.5
 21
107.55
  0
LINE
  8
0
 10
-190.5
 20
107.55
 11
-197.4
 21
107.55
  0
LINE
  8
0
 10
-197.4
 20
107.55
 11
-197.4
 21
106.05
  0
LINE
  8
0
 10
-197.4
 20
106.05
 11
-203.1
 21
106.05
  0
LINE
  8
0
 10
-203.1
 20
106.05
 11
-203.1
 21
107.55
  0
LINE
  8
0
 10
-203.1
 20
107.55
 11
-210
 21
107.55
  0
LINE
  8
0
 10
-210
 20
107.55
 11
-210
 21
102.5
  0
LINE
  8
0
 10
-210
 20
102.5
 11
-214.875
 21
102.5
  0
LINE
  8
0
 10
-214.875
 20
102.5
 11
-216.5
 21
100.875
  0
LINE
  8
0
 10
-216.5
 20
100.875
 11
-216.5
 21
89.125
  0
LINE
  8
0
 10
-216.5
 20
89.125
 11
-214.875
 21
87.5
  0
LINE
  8
0
 10
-214.875
 20
87.5
 11
-210
 21
87.5
  0
LINE
  8
0
 10
-210
 20
87.5
 11
-210
 21
16.2742
  0
LINE
  8
0
 10
-210
 20
16.2742
 11
-16.2742
 21
210
  0
LINE
  8
0
 10
-203
 20
203.95
 11
-207
 21
207.95
  0
LINE
  8
0
 10
-207
 20
207.95
 11
-207
 21
208.05
  0
LINE
  8
0
 10
-207
 20
208.05
 11
-193
 21
208.05
  0
LINE
  8
0
 10
-193
 20
208.05
 11
-193
 21
207.95
  0
LINE
  8
0
 10
-193
 20
207.95
 11
-197
 21
203.95
  0
LINE
  8
0
 10
-197
 20
203.95
 11
-203
 21
203.95
  0
LINE
  8
0
 10
-208.05
 20
193
 11
-208.05
 21
207
  0
LINE
  8
0
 10
-208.05
 20
207
 11
-207.95
 21
207
  0
LINE
  8
0
 10
-207.95
 20
207
 11
-203.95
 21
203
  0
LINE
  8
0
 10
-203.95
 20
203
 11
-203.95
 21
197
  0
LINE
  8
0
 10
-203.95
 20
197
 11
-207.95
 21
193
  0
LINE
  8
0
 10
-207.95
 20
193
 11
-208.05
 21
193
  0
LINE
  8
0
 10
-192.05
 20
193
 11
-196.05
 21
197
  0
LINE
  8
0
 10
-196.05
 20
197
 11
-196.05
 21
203
  0
LINE
  8
0
 10
-196.05
 20
203
 11
-192.05
 21
207
  0
LINE
  8
0
 10
-192.05
 20
207
 11
-191.95
 21
207
  0
LINE
  8
0
 10
-191.95
 20
207
 11
-191.95
 21
204.25
  0
LINE
  8
0
 10
-191.95
 20
204.25
 11
-188
 21
204.25
  0
LINE
  8
0
 10
-188
 20
204.25
 11
-188
 21
195.75
  0
LINE
  8
0
 10
-188
 20
195.75
 11
-191.95
 21
195.75
  0
LINE
  8
0
 10
-191.95
 20
195.75
 11
-191.95
 21
193
  0
LINE
  8
0
 10
-191.95
 20
193
 11
-192.05
 21
193
  0
LINE
  8
0
 10
-69.049
 20
170.943
 11
-35.1786
 21
204.813
  0
LINE
  8
0
 10
-35.1786
 20
204.813
 11
-30.6531
 21
200.288
  0
LINE
  8
0
 10
-30.6531
 20
200.288
 11
-64.5235
 21
166.418
  0
LINE
  8
0
 10
-64.5235
 20
166.418
 11
-69.049
 21
170.943
  0
LINE
  8
0
 10
-179
 20
204.25
 11
-175
 21
204.25
  0
LINE
  8
0
 10
-175
 20
204.25
 11
-175
 21
195.75
  0
LINE
  8
0
 10
-175
 20
195.75
 11
-179
 21
195.75
  0
LINE
  8
0
 10
-179
 20
195.75
 11
-179
 21
204.25
  0
LINE
  8
0
 10
-200.488
 20
197.548
 11
-200.957
 21
197.69
  0
LINE
  8
0
 10
-200.957
 20
197.69
 11
-201.389
 21
197.921
  0
LINE
  8
0
 10
-201.389
 20
197.921
 11
-201.768
 21
198.232
  0
LINE
  8
0
 10
-201.768
 20
198.232
 11
-202.079
 21
198.611
  0
LINE
  8
0
 10
-202.079
 20
198.611
 11
-202.31
 21
199.043
  0
LINE
  8
0
 10
-202.31
 20
199.043
 11
-202.452
 21
199.512
  0
LINE
  8
0
 10
-202.452
 20
199.512
 11
-202.5
 21
200
  0
LINE
  8
0
 10
-202.5
 20
200
 11
-202.452
 21
200.488
  0
LINE
  8
0
 10
-202.452
 20
200.488
 11
-202.31
 21
200.957
  0
LINE
  8
0
 10
-202.31
 20
200.957
 11
-202.079
 21
201.389
  0
LINE
  8
0
 10
-202.079
 20
201.389
 11
-201.768
 21
201.768
  0
LINE
  8
0
 10
-201.768
 20
201.768
 11
-201.389
 21
202.079
  0
LINE
  8
0
 10
-201.389
 20
202.079
 11
-200.957
 21
202.31
  0
LINE
  8
0
 10
-200.957
 20
202.31
 11
-200.488
 21
202.452
  0
LINE
  8
0
 10
-200.488
 20
202.452
 11
-200
 21
202.5
  0
LINE
  8
0
 10
-200
 20
202.5
 11
-199.512
 21
202.452
  0
LINE
  8
0
 10
-199.512
 20
202.452
 11
-199.043
 21
202.31
  0
LINE
  8
0
 10
-199.043
 20
202.31
 11
-198.611
 21
202.079
  0
LINE
  8
0
 10
-198.611
 20
202.079
 11
-198.232
 21
201.768
  0
LINE
  8
0
 10
-198.232
 20
201.768
 11
-197.921
 21
201.389
  0
LINE
  8
0
 10
-197.921
 20
201.389
 11
-197.69
 21
200.957
  0
LINE
  8
0
 10
-197.69
 20
200.957
 11
-197.548
 21
200.488
  0
LINE
  8
0
 10
-197.548
 20
200.488
 11
-197.5
 21
200
  0
LINE
  8
0
 10
-197.5
 20
200
 11
-197.548
 21
199.512
  0
LINE
  8
0
 10
-197.548
 20
199.512
 11
-197.69
 21
199.043
  0
LINE
  8
0
 10
-197.69
 20
199.043
 11
-197.921
 21
198.611
  0
LINE
  8
0
 10
-197.921
 20
198.611
 11
-198.232
 21
198.232
  0
LINE
  8
0
 10
-198.232
 20
198.232
 11
-198.611
 21
197.921
  0
LINE
  8
0
 10
-198.611
 20
197.921
 11
-199.043
 21
197.69
  0
LINE
  8
0
 10
-199.043
 20
197.69
 11
-199.512
 21
197.548
  0
LINE
  8
0
 10
-199.512
 20
197.548
 11
-200
 21
197.5
  0
LINE
  8
0
 10
-200
 20
197.5
 11
-200.488
 21
197.548
  0
LINE
  8
0
 10
-192.05
 20
173
 11
-196.05
 21
177
  0
LINE
  8
0
 10
-196.05
 20
177
 11
-196.05
 21
183
  0
LINE
  8
0
 10
-196.05
 20
183
 11
-192.05
 21
187
  0
LINE
  8
0
 10
-192.05
 20
187
 11
-191.95
 21
187
  0
LINE
  8
0
 10
-191.95
 20
187
 11
-191.95
 21
173
  0
LINE
  8
0
 10
-191.95
 20
173
 11
-192.05
 21
173
  0
LINE
  8
0
 10
-208.05
 20
173
 11
-208.05
 21
187
  0
LINE
  8
0
 10
-208.05
 20
187
 11
-207.95
 21
187
  0
LINE
  8
0
 10
-207.95
 20
187
 11
-203.95
 21
183
  0
LINE
  8
0
 10
-203.95
 20
183
 11
-203.95
 21
177
  0
LINE
  8
0
 10
-203.95
 20
177
 11
-207.95
 21
173
  0
LINE
  8
0
 10
-207.95
 20
173
 11
-208.05
 21
173
  0
LINE
  8
0
 10
-200.488
 20
177.548
 11
-200.957
 21
177.69
  0
LINE
  8
0
 10
-200.957
 20
177.69
 11
-201.389
 21
177.921
  0
LINE
  8
0
 10
-201.389
 20
177.921
 11
-201.768
 21
178.232
  0
LINE
  8
0
 10
-201.768
 20
178.232
 11
-202.079
 21
178.611
  0
LINE
  8
0
 10
-202.079
 20
178.611
 11
-202.31
 21
179.043
  0
LINE
  8
0
 10
-202.31
 20
179.043
 11
-202.452
 21
179.512
  0
LINE
  8
0
 10
-202.452
 20
179.512
 11
-202.5
 21
180
  0
LINE
  8
0
 10
-202.5
 20
180
 11
-202.452
 21
180.488
  0
LINE
  8
0
 10
-202.452
 20
180.488
 11
-202.31
 21
180.957
  0
LINE
  8
0
 10
-202.31
 20
180.957
 11
-202.079
 21
181.389
  0
LINE
  8
0
 10
-202.079
 20
181.389
 11
-201.768
 21
181.768
  0
LINE
  8
0
 10
-201.768
 20
181.768
 11
-201.389
 21
182.079
  0
LINE
  8
0
 10
-201.389
 20
182.079
 11
-200.957
 21
182.31
  0
LINE
  8
0
 10
-200.957
 20
182.31
 11
-200.488
 21
182.452
  0
LINE
  8
0
 10
-200.488
 20
182.452
 11
-200
 21
182.5
  0
LINE
  8
0
 10
-200
 20
182.5
 11
-199.512
 21
182.452
  0
LINE
  8
0
 10
-199.512
 20
182.452
 11
-199.043
 21
182.31
  0
LINE
  8
0
 10
-199.043
 20
182.31
 11
-198.611
 21
182.079
  0
LINE
  8
0
 10
-198.611
 20
182.079
 11
-198.232
 21
181.768
  0
LINE
  8
0
 10
-198.232
 20
181.768
 11
-197.921
 21
181.389
  0
LINE
  8
0
 10
-197.921
 20
181.389
 11
-197.69
 21
180.957
  0
LINE
  8
0
 10
-197.69
 20
180.957
 11
-197.548
 21
180.488
  0
LINE
  8
0
 10
-197.548
 20
180.488
 11
-197.5
 21
180
  0
LINE
  8
0
 10
-197.5
 20
180
 11
-197.548
 21
179.512
  0
LINE
  8
0
 10
-197.548
 20
179.512
 11
-197.69
 21
179.043
  0
LINE
  8
0
 10
-197.69
 20
179.043
 11
-197.921
 21
178.611
  0
LINE
  8
0
 10
-197.921
 20
178.611
 11
-198.232
 21
178.232
  0
LINE
  8
0
 10
-198.232
 20
178.232
 11
-198.611
 21
177.921
  0
LINE
  8
0
 10
-198.611
 20
177.921
 11
-199.043
 21
177.69
  0
LINE
  8
0
 10
-199.043
 20
177.69
 11
-199.512
 21
177.548
  0
LINE
  8
0
 10
-199.512
 20
177.548
 11
-200
 21
177.5
  0
LINE
  8
0
 10
-200
 20
177.5
 11
-200.488
 21
177.548
  0
LINE
  8
0
 10
-207
 20
171.95
 11
-207
 21
172.05
  0
LINE
  8
0
 10
-207
 20
172.05
 11
-203
 21
176.05
  0
LINE
  8
0
 10
-203
 20
176.05
 11
-197
 21
176.05
  0
LINE
  8
0
 10
-197
 20
176.05
 11
-193
 21
172.05
  0
LINE
  8
0
 10
-193
 20
172.05
 11
-193
 21
171.95
  0
LINE
  8
0
 10
-193
 20
171.95
 11
-207
 21
171.95
  0
LINE
  8
0
 10
-136.931
 20
103.061
 11
-103.061
 21
136.931
  0
LINE
  8
0
 10
-103.061
 20
136.931
 11
-98.5353
 21
132.406
  0
LINE
  8
0
 10
-98.5353
 20
132.406
 11
-132.406
 21
98.5353
  0
LINE
  8
0
 10
-132.406
 20
98.5353
 11
-136.931
 21
103.061
  0
LINE
  8
0
 10
-204.813
 20
35.1786
 11
-170.943
 21
69.049
  0
LINE
  8
0
 10
-170.943
 20
69.049
 11
-166.418
 21
64.5235
  0
LINE
  8
0
 10
-166.418
 20
64.5235
 11
-200.288
 21
30.6531
  0
LINE
  8
0
 10
-200.288
 20
30.6531
 11
-204.813
 21
35.1786
  0
LINE
  8
0
 10
210
 20
16.2742
 11
210
 21
87.5
  0
LINE
  8
0
 10
210
 20
87.5
 11
214.875
 21
87.5
  0
LINE
  8
0
 10
214.875
 20
87.5
 11
216.5
 21
89.125
  0
LINE
  8
0
 10
216.5
 20
89.125
 11
216.5
 21
100.875
  0
LINE
  8
0
 10
216.5
 20
100.875
 11
214.875
 21
102.5
  0
LINE
  8
0
 10
214.875
 20
102.5
 11
210
 21
102.5
  0
LINE
  8
0
 10
210
 20
102.5
 11
210
 21
107.55
  0
LINE
  8
0
 10
210
 20
107.55
 11
203.1
 21
107.55
  0
LINE
  8
0
 10
203.1
 20
107.55
 11
203.1
 21
106.05
  0
LINE
  8
0
 10
203.1
 20
106.05
 11
197.4
 21
106.05
  0
LINE
  8
0
 10
197.4
 20
106.05
 11
197.4
 21
107.55
  0
LINE
  8
0
 10
197.4
 20
107.55
 11
190.5
 21
107.55
  0
LINE
  8
0
 10
190.5
 20
107.55
 11
190.5
 21
112.45
  0
LINE
  8
0
 10
190.5
 20
112.45
 11
197.4
 21
112.45
  0
LINE
  8
0
 10
197.4
 20
112.45
 11
197.4
 21
113.95
  0
LINE
  8
0
 10
197.4
 20
113.95
 11
203.1
 21
113.95
  0
LINE
  8
0
 10
203.1
 20
113.95
 11
203.1
 21
112.45
  0
LINE
  8
0
 10
203.1
 20
112.45
 11
210
 21
112.45
  0
LINE
  8
0
 10
210
 20
112.45
 11
210
 21
117.5
  0
LINE
  8
0
 10
210
 20
117.5
 11
214.875
 21
117.5
  0
LINE
  8
0
 10
214.875
 20
117.5
 11
216.5
 21
119.125
  0
LINE
  8
0
 10
216.5
 20
119.125
 11
216.5
 21
130.875
  0
LINE
  8
0
 10
216.5
 20
130.875
 11
214.875
 21
132.5
  0
LINE
  8
0
 10
214.875
 20
132.5
 11
210
 21
132.5
  0
LINE
  8
0
 10
210
 20
132.5
 11
210
 21
210
  0
LINE
  8
0
 10
210
 20
210
 11
132.5
 21
210
  0
LINE
  8
0
 10
132.5
 20
210
 11
132.5
 21
214.875
  0
LINE
  8
0
 10
132.5
 20
214.875
 11
130.875
 21
216.5
  0
LINE
  8
0
 10
130.875
 20
216.5
 11
119.125
 21
216.5
  0
LINE
  8
0
 10
119.125
 20
216.5
 11
117.5
 21
214.875
  0
LINE
  8
0
 10
117.5
 20
214.875
 11
117.5
 21
210
  0
LINE
  8
0
 10
117.5
 20
210
 11
112.45
 21
210
  0
LINE
  8
0
 10
112.45
 20
210
 11
112.45
 21
203.1
  0
LINE
  8
0
 10
112.45
 20
203.1
 11
113.95
 21
203.1
  0
LINE
  8
0
 10
113.95
 20
203.1
 11
113.95
 21
197.4
  0
LINE
  8
0
 10
113.95
 20
197.4
 11
112.45
 21
197.4
  0
LINE
  8
0
 10
112.45
 20
197.4
 11
112.45
 21
190.5
  0
LINE
  8
0
 10
112.45
 20
190.5
 11
107.55
 21
190.5
  0
LINE
  8
0
 10
107.55
 20
190.5
 11
107.55
 21
197.4
  0
LINE
  8
0
 10
107.55
 20
197.4
 11
106.05
 21
197.4
  0
LINE
  8
0
 10
106.05
 20
197.4
 11
106.05
 21
203.1
  0
LINE
  8
0
 10
106.05
 20
203.1
 11
107.55
 21
203.1
  0
LINE
  8
0
 10
107.55
 20
203.1
 11
107.55
 21
210
  0
LINE
  8
0
 10
107.55
 20
210
 11
102.5
 21
210
  0
LINE
  8
0
 10
102.5
 20
210
 11
102.5
 21
214.875
  0
LINE
  8
0
 10
102.5
 20
214.875
 11
100.875
 21
216.5
  0
LINE
  8
0
 10
100.875
 20
216.5
 11
89.125
 21
216.5
  0
LINE
  8
0
 10
89.125
 20
216.5
 11
87.5
 21
214.875
  0
LINE
  8
0
 10
87.5
 20
214.875
 11
87.5
 21
210
  0
LINE
  8
0
 10
87.5
 20
210
 11
16.2742
 21
210
  0
LINE
  8
0
 10
16.2742
 20
210
 11
210
 21
16.2742
  0
LINE
  8
0
 10
197
 20
203.95
 11
193
 21
207.95
  0
LINE
  8
0
 10
193
 20
207.95
 11
193
 21
208.05
  0
LINE
  8
0
 10
193
 20
208.05
 11
207
 21
208.05
  0
LINE
  8
0
 10
207
 20
208.05
 11
207
 21
207.95
  0
LINE
  8
0
 10
207
 20
207.95
 11
203
 21
203.95
  0
LINE
  8
0
 10
203
 20
203.95
 11
197
 21
203.95
  0
LINE
  8
0
 10
207.95
 20
193
 11
203.95
 21
197
  0
LINE
  8
0
 10
203.95
 20
197
 11
203.95
 21
203
  0
LINE
  8
0
 10
203.95
 20
203
 11
207.95
 21
207
  0
LINE
  8
0
 10
207.95
 20
207
 11
208.05
 21
207
  0
LINE
  8
0
 10
208.05
 20
207
 11
208.05
 21
193
  0
LINE
  8
0
 10
208.05
 20
193
 11
207.95
 21
193
  0
LINE
  8
0
 10
191.95
 20
193
 11
191.95
 21
195.75
  0
LINE
  8
0
 10
191.95
 20
195.75
 11
188
 21
195.75
  0
LINE
  8
0
 10
188
 20
195.75
 11
188
 21
204.25
  0
LINE
  8
0
 10
188
 20
204.25
 11
191.95
 21
204.25
  0
LINE
  8
0
 10
191.95
 20
204.25
 11
191.95
 21
207
  0
LINE
  8
0
 10
191.95
 20
207
 11
192.05
 21
207
  0
LINE
  8
0
 10
192.05
 20
207
 11
196.05
 21
203
  0
LINE
  8
0
 10
196.05
 20
203
 11
196.05
 21
197
  0
LINE
  8
0
 10
196.05
 20
197
 11
192.05
 21
193
  0
LINE
  8
0
 10
192.05
 20
193
 11
191.95
 21
193
  0
LINE
  8
0
 10
30.6531
 20
200.288
 11
35.1786
 21
204.813
  0
LINE
  8
0
 10
35.1786
 20
204.813
 11
69.049
 21
170.943
  0
LINE
  8
0
 10
69.049
 20
170.943
 11
64.5235
 21
166.418
  0
LINE
  8
0
 10
64.5235
 20
166.418
 11
30.6531
 21
200.288
  0
LINE
  8
0
 10
175
 20
195.75
 11
175
 21
204.25
  0
LINE
  8
0
 10
175
 20
204.25
 11
179
 21
204.25
  0
LINE
  8
0
 10
179
 20
204.25
 11
179
 21
195.75
  0
LINE
  8
0
 10
179
 20
195.75
 11
175
 21
195.75
  0
LINE
  8
0
 10
199.512
 20
197.548
 11
199.043
 21
197.69
  0
LINE
  8
0
 10
199.043
 20
197.69
 11
198.611
 21
197.921
  0
LINE
  8
0
 10
198.611
 20
197.921
 11
198.232
 21
198.232
  0
LINE
  8
0
 10
198.232
 20
198.232
 11
197.921
 21
198.611
  0
LINE
  8
0
 10
197.921
 20
198.611
 11
197.69
 21
199.043
  0
LINE
  8
0
 10
197.69
 20
199.043
 11
197.548
 21
199.512
  0
LINE
  8
0
 10
197.548
 20
199.512
 11
197.5
 21
200
  0
LINE
  8
0
 10
197.5
 20
200
 11
197.548
 21
200.488
  0
LINE
  8
0
 10
197.548
 20
200.488
 11
197.69
 21
200.957
  0
LINE
  8
0
 10
197.69
 20
200.957
 11
197.921
 21
201.389
  0
LINE
  8
0
 10
197.921
 20
201.389
 11
198.232
 21
201.768
  0
LINE
  8
0
 10
198.232
 20
201.768
 11
198.611
 21
202.079
  0
LINE
  8
0
 10
198.611
 20
202.079
 11
199.043
 21
202.31
  0
LINE
  8
0
 10
199.043
 20
202.31
 11
199.512
 21
202.452
  0
LINE
  8
0
 10
199.512
 20
202.452
 11
200
 21
202.5
  0
LINE
  8
0
 10
200
 20
202.5
 11
200.488
 21
202.452
  0
LINE
  8
0
 10
200.488
 20
202.452
 11
200.957
 21
202.31
  0
LINE
  8
0
 10
200.957
 20
202.31
 11
201.389
 21
202.079
  0
LINE
  8
0
 10
201.389
 20
202.079
 11
201.768
 21
201.768
  0
LINE
  8
0
 10
201.768
 20
201.768
 11
202.079
 21
201.389
  0
LINE
  8
0
 10
202.079
 20
201.389
 11
202.31
 21
200.957
  0
LINE
  8
0
 10
202.31
 20
200.957
 11
202.452
 21
200.488
  0
LINE
  8
0
 10
202.452
 20
200.488
 11
202.5
 21
200
  0
LINE
  8
0
 10
202.5
 20
200
 11
202.452
 21
199.512
  0
LINE
  8
0
 10
202.452
 20
199.512
 11
202.31
 21
199.043
  0
LINE
  8
0
 10
202.31
 20
199.043
 11
202.079
 21
198.611
  0
LINE
  8
0
 10
202.079
 20
198.611
 11
201.768
 21
198.232
  0
LINE
  8
0
 10
201.768
 20
198.232
 11
201.389
 21
197.921
  0
LINE
  8
0
 10
201.389
 20
197.921
 11
200.957
 21
197.69
  0
LINE
  8
0
 10
200.957
 20
197.69
 11
200.488
 21
197.548
  0
LINE
  8
0
 10
200.488
 20
197.548
 11
200
 21
197.5
  0
LINE
  8
0
 10
200
 20
197.5
 11
199.512
 21
197.548
  0
LINE
  8
0
 10
191.95
 20
173
 11
191.95
 21
187
  0
LINE
  8
0
 10
191.95
 20
187
 11
192.05
 21
187
  0
LINE
  8
0
 10
192.05
 20
187
 11
196.05
 21
183
  0
LINE
  8
0
 10
196.05
 20
183
 11
196.05
 21
177
  0
LINE
  8
0
 10
196.05
 20
177
 11
192.05
 21
173
  0
LINE
  8
0
 10
192.05
 20
173
 11
191.95
 21
173
  0
LINE
  8
0
 10
207.95
 20
173
 11
203.95
 21
177
  0
LINE
  8
0
 10
203.95
 20
177
 11
203.95
 21
183
  0
LINE
  8
0
 10
203.95
 20
183
 11
207.95
 21
187
  0
LINE
  8
0
 10
207.95
 20
187
 11
208.05
 21
187
  0
LINE
  8
0
 10
208.05
 20
187
 11
208.05
 21
173
  0
LINE
  8
0
 10
208.05
 20
173
 11
207.95
 21
173
  0
LINE
  8
0
 10
199.512
 20
177.548
 11
199.043
 21
177.69
  0
LINE
  8
0
 10
199.043
 20
177.69
 11
198.611
 21
177.921
  0
LINE
  8
0
 10
198.611
 20
177.921
 11
198.232
 21
178.232
  0
LINE
  8
0
 10
198.232
 20
178.232
 11
197.921
 21
178.611
  0
LINE
  8
0
 10
197.921
 20
178.611
 11
197.69
 21
179.043
  0
LINE
  8
0
 10
197.69
 20
179.043
 11
197.548
 21
179.512
  0
LINE
  8
0
 10
197.548
 20
179.512
 11
197.5
 21
180
  0
LINE
  8
0
 10
197.5
 20
180
 11
197.548
 21
180.488
  0
LINE
  8
0
 10
197.548
 20
180.488
 11
197.69
 21
180.957
  0
LINE
  8
0
 10
197.69
 20
180.957
 11
197.921
 21
181.389
  0
LINE
  8
0
 10
197.921
 20
181.389
 11
198.232
 21
181.768
  0
LINE
  8
0
 10
198.232
 20
181.768
 11
198.611
 21
182.079
  0
LINE
  8
0
 10
198.611
 20
182.079
 11
199.043
 21
182.31
  0
LINE
  8
0
 10
199.043
 20
182.31
 11
199.512
 21
182.452
  0
LINE
  8
0
 10
199.512
 20
182.452
 11
200
 21
182.5
  0
LINE
  8
0
 10
200
 20
182.5
 11
200.488
 21
182.452
  0
LINE
  8
0
 10
200.488
 20
182.452
 11
200.957
 21
182.31
  0
LINE
  8
0
 10
200.957
 20
182.31
 11
201.389
 21
182.079
  0
LINE
  8
0
 10
201.389
 20
182.079
 11
201.768
 21
181.768
  0
LINE
  8
0
 10
201.768
 20
181.768
 11
202.079
 21
181.389
  0
LINE
  8
0
 10
202.079
 20
181.389
 11
202.31
 21
180.957
  0
LINE
  8
0
 10
202.31
 20
180.957
 11
202.452
 21
180.488
  0
LINE
  8
0
 10
202.452
 20
180.488
 11
202.5
 21
180
  0
LINE
  8
0
 10
202.5
 20
180
 11
202.452
 21
179.512
  0
LINE
  8
0
 10
202.452
 20
179.512
 11
202.31
 21
179.043
  0
LINE
  8
0
 10
202.31
 20
179.043
 11
202.079
 21
178.611
  0
LINE
  8
0
 10
202.079
 20
178.611
 11
201.768
 21
178.232
  0
LINE
  8
0
 10
201.768
 20
178.232
 11
201.389
 21
177.921
  0
LINE
  8
0
 10
201.389
 20
177.921
 11
200.957
 21
177.69
  0
LINE
  8
0
 10
200.957
 20
177.69
 11
200.488
 21
177.548
  0
LINE
  8
0
 10
200.488
 20
177.548
 11
200
 21
177.5
  0
LINE
  8
0
 10
200
 20
177.5
 11
199.512
 21
177.548
  0
LINE
  8
0
 10
193
 20
171.95
 11
193
 21
172.05
  0
LINE
  8
0
 10
193
 20
172.05
 11
197
 21
176.05
  0
LINE
  8
0
 10
197
 20
176.05
 11
203
 21
176.05
  0
LINE
  8
0
 10
203
 20
176.05
 11
207
 21
172.05
  0
LINE
  8
0
 10
207
 20
172.05
 11
207
 21
171.95
  0
LINE
  8
0
 10
207
 20
171.95
 11
193
 21
171.95
  0
LINE
  8
0
 10
98.5353
 20
132.406
 11
103.061
 21
136.931
  0
LINE
  8
0
 10
103.061
 20
136.931
 11
136.931
 21
103.061
  0
LINE
  8
0
 10
136.931
 20
103.061
 11
132.406
 21
98.5353
  0
LINE
  8
0
 10
132.406
 20
98.5353
 11
98.5353
 21
132.406
  0
LINE
  8
0
 10
166.418
 20
64.5235
 11
170.943
 21
69.049
  0
LINE
  8
0
 10
170.943
 20
69.049
 11
204.813
 21
35.1786
  0
LINE
  8
0
 10
204.813
 20
35.1786
 11
200.288
 21
30.6531
  0
LINE
  8
0
 10
200.288
 20
30.6531
 11
166.418
 21
64.5235
  0
LINE
  8
0
 10
-117.5
 20
-214.875
 11
-117.5
 21
-210
  0
LINE
  8
0
 10
-117.5
 20
-210
 11
-112.45
 21
-210
  0
LINE
  8
0
 10
-112.45
 20
-210
 11
-112.45
 21
-203.1
  0
LINE
  8
0
 10
-112.45
 20
-203.1
 11
-113.95
 21
-203.1
  0
LINE
  8
0
 10
-113.95
 20
-203.1
 11
-113.95
 21
-197.4
  0
LINE
  8
0
 10
-113.95
 20
-197.4
 11
-112.45
 21
-197.4
  0
LINE
  8
0
 10
-112.45
 20
-197.4
 11
-112.45
 21
-190.5
  0
LINE
  8
0
 10
-112.45
 20
-190.5
 11
-107.55
 21
-190.5
  0
LINE
  8
0
 10
-107.55
 20
-190.5
 11
-107.55
 21
-197.4
  0
LINE
  8
0
 10
-107.55
 20
-197.4
 11
-106.05
 21
-197.4
  0
LINE
  8
0
 10
-106.05
 20
-197.4
 11
-106.05
 21
-203.1
  0
LINE
  8
0
 10
-106.05
 20
-203.1
 11
-107.55
 21
-203.1
  0
LINE
  8
0
 10
-107.55
 20
-203.1
 11
-107.55
 21
-210
  0
LINE
  8
0
 10
-107.55
 20
-210
 11
-102.5
 21
-210
  0
LINE
  8
0
 10
-102.5
 20
-210
 11
-102.5
 21
-214.875
  0
LINE
  8
0
 10
-102.5
 20
-214.875
 11
-100.875
 21
-216.5
  0
LINE
  8
0
 10
-100.875
 20
-216.5
 11
-89.125
 21
-216.5
  0
LINE
  8
0
 10
-89.125
 20
-216.5
 11
-87.5
 21
-214.875
  0
LINE
  8
0
 10
-87.5
 20
-214.875
 11
-87.5
 21
-210
  0
LINE
  8
0
 10
-87.5
 20
-210
 11
-16.2742
 21
-210
  0
LINE
  8
0
 10
-16.2742
 20
-210
 11
-210
 21
-16.2742
  0
LINE
  8
0
 10
-210
 20
-16.2742
 11
-210
 21
-87.5
  0
LINE
  8
0
 10
-210
 20
-87.5
 11
-214.875
 21
-87.5
  0
LINE
  8
0
 10
-214.875
 20
-87.5
 11
-216.5
 21
-89.125
  0
LINE
  8
0
 10
-216.5
 20
-89.125
 11
-216.5
 21
-100.875
  0
LINE
  8
0
 10
-216.5
 20
-100.875
 11
-214.875
 21
-102.5
  0
LINE
  8
0
 10
-214.875
 20
-102.5
 11
-210
 21
-102.5
  0
LINE
  8
0
 10
-210
 20
-102.5
 11
-210
 21
-107.55
  0
LINE
  8
0
 10
-210
 20
-107.55
 11
-203.1
 21
-107.55
  0
LINE
  8
0
 10
-203.1
 20
-107.55
 11
-203.1
 21
-106.05
  0
LINE
  8
0
 10
-203.1
 20
-106.05
 11
-197.4
 21
-106.05
  0
LINE
  8
0
 10
-197.4
 20
-106.05
 11
-197.4
 21
-107.55
  0
LINE
  8
0
 10
-197.4
 20
-107.55
 11
-190.5
 21
-107.55
  0
LINE
  8
0
 10
-190.5
 20
-107.55
 11
-190.5
 21
-112.45
  0
LINE
  8
0
 10
-190.5
 20
-112.45
 11
-197.4
 21
-112.45
  0
LINE
  8
0
 10
-197.4
 20
-112.45
 11
-197.4
 21
-113.95
  0
LINE
  8
0
 10
-197.4
 20
-113.95
 11
-203.1
 21
-113.95
  0
LINE
  8
0
 10
-203.1
 20
-113.95
 11
-203.1
 21
-112.45
  0
LINE
  8
0
 10
-203.1
 20
-112.45
 11
-210
 21
-112.45
  0
LINE
  8
0
 10
-210
 20
-112.45
 11
-210
 21
-117.5
  0
LINE
  8
0
 10
-210
 20
-117.5
 11
-214.875
 21
-117.5
  0
LINE
  8
0
 10
-214.875
 20
-117.5
 11
-216.5
 21
-119.125
  0
LINE
  8
0
 10
-216.5
 20
-119.125
 11
-216.5
 21
-130.875
  0
LINE
  8
0
 10
-216.5
 20
-130.875
 11
-214.875
 21
-132.5
  0
LINE
  8
0
 10
-214.875
 20
-132.5
 11
-210
 21
-132.5
  0
LINE
  8
0
 10
-210
 20
-132.5
 11
-210
 21
-210
  0
LINE
  8
0
 10
-210
 20
-210
 11
-132.5
 21
-210
  0
LINE
  8
0
 10
-132.5
 20
-210
 11
-132.5
 21
-214.875
  0
LINE
  8
0
 10
-132.5
 20
-214.875
 11
-130.875
 21
-216.5
  0
LINE
  8
0
 10
-130.875
 20
-216.5
 11
-119.125
 21
-216.5
  0
LINE
  8
0
 10
-119.125
 20
-216.5
 11
-117.5
 21
-214.875
  0
LINE
  8
0
 10
-204.813
 20
-35.1786
 11
-200.288
 21
-30.6531
  0
LINE
  8
0
 10
-200.288
 20
-30.6531
 11
-166.418
 21
-64.5235
  0
LINE
  8
0
 10
-166.418
 20
-64.5235
 11
-170.943
 21
-69.049
  0
LINE
  8
0
 10
-170.943
 20
-69.049
 11
-204.813
 21
-35.1786
  0
LINE
  8
0
 10
-136.931
 20
-103.061
 11
-132.406
 21
-98.5353
  0
LINE
  8
0
 10
-132.406
 20
-98.5353
 11
-98.5353
 21
-132.406
  0
LINE
  8
0
 10
-98.5353
 20
-132.406
 11
-103.061
 21
-136.931
  0
LINE
  8
0
 10
-103.061
 20
-136.931
 11
-136.931
 21
-103.061
  0
LINE
  8
0
 10
-69.049
 20
-170.943
 11
-64.5235
 21
-166.418
  0
LINE
  8
0
 10
-64.5235
 20
-166.418
 11
-30.6531
 21
-200.288
  0
LINE
  8
0
 10
-30.6531
 20
-200.288
 11
-35.1786
 21
-204.813
  0
LINE
  8
0
 10
-35.1786
 20
-204.813
 11
-69.049
 21
-170.943
  0
LINE
  8
0
 10
-203
 20
-176.05
 11
-207
 21
-172.05
  0
LINE
  8
0
 10
-207
 20
-172.05
 11
-207
 21
-171.95
  0
LINE
  8
0
 10
-207
 20
-171.95
 11
-193
 21
-171.95
  0
LINE
  8
0
 10
-193
 20
-171.95
 11
-193
 21
-172.05
  0
LINE
  8
0
 10
-193
 20
-172.05
 11
-197
 21
-176.05
  0
LINE
  8
0
 10
-197
 20
-176.05
 11
-203
 21
-176.05
  0
LINE
  8
0
 10
-192.05
 20
-187
 11
-196.05
 21
-183
  0
LINE
  8
0
 10
-196.05
 20
-183
 11
-196.05
 21
-177
  0
LINE
  8
0
 10
-196.05
 20
-177
 11
-192.05
 21
-173
  0
LINE
  8
0
 10
-192.05
 20
-173
 11
-191.95
 21
-173
  0
LINE
  8
0
 10
-191.95
 20
-173
 11
-191.95
 21
-187
  0
LINE
  8
0
 10
-191.95
 20
-187
 11
-192.05
 21
-187
  0
LINE
  8
0
 10
-208.05
 20
-187
 11
-208.05
 21
-173
  0
LINE
  8
0
 10
-208.05
 20
-173
 11
-207.95
 21
-173
  0
LINE
  8
0
 10
-207.95
 20
-173
 11
-203.95
 21
-177
  0
LINE
  8
0
 10
-203.95
 20
-177
 11
-203.95
 21
-183
  0
LINE
  8
0
 10
-203.95
 20
-183
 11
-207.95
 21
-187
  0
LINE
  8
0
 10
-207.95
 20
-187
 11
-208.05
 21
-187
  0
LINE
  8
0
 10
-200.488
 20
-182.452
 11
-200.957
 21
-182.31
  0
LINE
  8
0
 10
-200.957
 20
-182.31
 11
-201.389
 21
-182.079
  0
LINE
  8
0
 10
-201.389
 20
-182.079
 11
-201.768
 21
-181.768
  0
LINE
  8
0
 10
-201.768
 20
-181.768
 11
-202.079
 21
-181.389
  0
LINE
  8
0
 10
-202.079
 20
-181.389
 11
-202.31
 21
-180.957
  0
LINE
  8
0
 10
-202.31
 20
-180.957
 11
-202.452
 21
-180.488
  0
LINE
  8
0
 10
-202.452
 20
-180.488
 11
-202.5
 21
-180
  0
LINE
  8
0
 10
-202.5
 20
-180
 11
-202.452
 21
-179.512
  0
LINE
  8
0
 10
-202.452
 20
-179.512
 11
-202.31
 21
-179.043
  0
LINE
  8
0
 10
-202.31
 20
-179.043
 11
-202.079
 21
-178.611
  0
LINE
  8
0
 10
-202.079
 20
-178.611
 11
-201.768
 21
-178.232
  0
LINE
  8
0
 10
-201.768
 20
-178.232
 11
-201.389
 21
-177.921
  0
LINE
  8
0
 10
-201.389
 20
-177.921
 11
-200.957
 21
-177.69
  0
LINE
  8
0
 10
-200.957
 20
-177.69
 11
-200.488
 21
-177.548
  0
LINE
  8
0
 10
-200.488
 20
-177.548
 11
-200
 21
-177.5
  0
LINE
  8
0
 10
-200
 20
-177.5
 11
-199.512
 21
-177.548
  0
LINE
  8
0
 10
-199.512
 20
-177.548
 11
-199.043
 21
-177.69
  0
LINE
  8
0
 10
-199.043
 20
-177.69
 11
-198.611
 21
-177.921
  0
LINE
  8
0
 10
-198.611
 20
-177.921
 11
-198.232
 21
-178.232
  0
LINE
  8
0
 10
-198.232
 20
-178.232
 11
-197.921
 21
-178.611
  0
LINE
  8
0
 10
-197.921
 20
-178.611
 11
-197.69
 21
-179.043
  0
LINE
  8
0
 10
-197.69
 20
-179.043
 11
-197.548
 21
-179.512
  0
LINE
  8
0
 10
-197.548
 20
-179.512
 11
-197.5
 21
-180
  0
LINE
  8
0
 10
-197.5
 20
-180
 11
-197.548
 21
-180.488
  0
LINE
  8
0
 10
-197.548
 20
-180.488
 11
-197.69
 21
-180.957
  0
LINE
  8
0
 10
-197.69
 20
-180.957
 11
-197.921
 21
-181.389
  0
LINE
  8
0
 10
-197.921
 20
-181.389
 11
-198.232
 21
-181.768
  0
LINE
  8
0
 10
-198.232
 20
-181.768
 11
-198.611
 21
-182.079
  0
LINE
  8
0
 10
-198.611
 20
-182.079
 11
-199.043
 21
-182.31
  0
LINE
  8
0
 10
-199.043
 20
-182.31
 11
-199.512
 21
-182.452
  0
LINE
  8
0
 10
-199.512
 20
-182.452
 11
-200
 21
-182.5
  0
LINE
  8
0
 10
-200
 20
-182.5
 11
-200.488
 21
-182.452
  0
LINE
  8
0
 10
-208.05
 20
-207
 11
-208.05
 21
-193
  0
LINE
  8
0
 10
-208.05
 20
-193
 11
-207.95
 21
-193
  0
LINE
  8
0
 10
-207.95
 20
-193
 11
-203.95
 21
-197
  0
LINE
  8
0
 10
-203.95
 20
-197
 11
-203.95
 21
-203
  0
LINE
  8
0
 10
-203.95
 20
-203
 11
-207.95
 21
-207
  0
LINE
  8
0
 10
-207.95
 20
-207
 11
-208.05
 21
-207
  0
LINE
  8
0
 10
-192.05
 20
-207
 11
-196.05
 21
-203
  0
LINE
  8
0
 10
-196.05
 20
-203
 11
-196.05
 21
-197
  0
LINE
  8
0
 10
-196.05
 20
-197
 11
-192.05
 21
-193
  0
LINE
  8
0
 10
-192.05
 20
-193
 11
-191.95
 21
-193
  0
LINE
  8
0
 10
-191.95
 20
-193
 11
-191.95
 21
-207
  0
LINE
  8
0
 10
-191.95
 20
-207
 11
-192.05
 21
-207
  0
LINE
  8
0
 10
-200.488
 20
-202.452
 11
-200.957
 21
-202.31
  0
LINE
  8
0
 10
-200.957
 20
-202.31
 11
-201.389
 21
-202.079
  0
LINE
  8
0
 10
-201.389
 20
-202.079
 11
-201.768
 21
-201.768
  0
LINE
  8
0
 10
-201.768
 20
-201.768
 11
-202.079
 21
-201.389
  0
LINE
  8
0
 10
-202.079
 20
-201.389
 11
-202.31
 21
-200.957
  0
LINE
  8
0
 10
-202.31
 20
-200.957
 11
-202.452
 21
-200.488
  0
LINE
  8
0
 10
-202.452
 20
-200.488
 11
-202.5
 21
-200
  0
LINE
  8
0
 10
-202.5
 20
-200
 11
-202.452
 21
-199.512
  0
LINE
  8
0
 10
-202.452
 20
-199.512
 11
-202.31
 21
-199.043
  0
LINE
  8
0
 10
-202.31
 20
-199.043
 11
-202.079
 21
-198.611
  0
LINE
  8
0
 10
-202.079
 20
-198.611
 11
-201.768
 21
-198.232
  0
LINE
  8
0
 10
-201.768
 20
-198.232
 11
-201.389
 21
-197.921
  0
LINE
  8
0
 10
-201.389
 20
-197.921
 11
-200.957
 21
-197.69
  0
LINE
  8
0
 10
-200.957
 20
-197.69
 11
-200.488
 21
-197.548
  0
LINE
  8
0
 10
-200.488
 20
-197.548
 11
-200
 21
-197.5
  0
LINE
  8
0
 10
-200
 20
-197.5
 11
-199.512
 21
-197.548
  0
LINE
  8
0
 10
-199.512
 20
-197.548
 11
-199.043
 21
-197.69
  0
LINE
  8
0
 10
-199.043
 20
-197.69
 11
-198.611
 21
-197.921
  0
LINE
  8
0
 10
-198.611
 20
-197.921
 11
-198.232
 21
-198.232
  0
LINE
  8
0
 10
-198.232
 20
-198.232
 11
-197.921
 21
-198.611
  0
LINE
  8
0
 10
-197.921
 20
-198.611
 11
-197.69
 21
-199.043
  0
LINE
  8
0
 10
-197.69
 20
-199.043
 11
-197.548
 21
-199.512
  0
LINE
  8
0
 10
-197.548
 20
-199.512
 11
-197.5
 21
-200
  0
LINE
  8
0
 10
-197.5
 20
-200
 11
-197.548
 21
-200.488
  0
LINE
  8
0
 10
-197.548
 20
-200.488
 11
-197.69
 21
-200.957
  0
LINE
  8
0
 10
-197.69
 20
-200.957
 11
-197.921
 21
-201.389
  0
LINE
  8
0
 10
-197.921
 20
-201.389
 11
-198.232
 21
-201.768
  0
LINE
  8
0
 10
-198.232
 20
-201.768
 11
-198.611
 21
-202.079
  0
LINE
  8
0
 10
-198.611
 20
-202.079
 11
-199.043
 21
-202.31
  0
LINE
  8
0
 10
-199.043
 20
-202.31
 11
-199.512
 21
-202.452
  0
LINE
  8
0
 10
-199.512
 20
-202.452
 11
-200
 21
-202.5
  0
LINE
  8
0
 10
-200
 20
-202.5
 11
-200.488
 21
-202.452
  0
LINE
  8
0
 10
-207
 20
-208.05
 11
-207
 21
-207.95
  0
LINE
  8
0
 10
-207
 20
-207.95
 11
-203
 21
-203.95
  0
LINE
  8
0
 10
-203
 20
-203.95
 11
-197
 21
-203.95
  0
LINE
  8
0
 10
-197
 20
-203.95
 11
-193
 21
-207.95
  0
LINE
  8
0
 10
-193
 20
-207.95
 11
-193
 21
-208.05
  0
LINE
  8
0
 10
-193
 20
-208.05
 11
-207
 21
-208.05
  0
LINE
  8
0
 10
102.5
 20
-214.875
 11
102.5
 21
-210
  0
LINE
  8
0
 10
102.5
 20
-210
 11
107.55
 21
-210
  0
LINE
  8
0
 10
107.55
 20
-210
 11
107.55
 21
-203.1
  0
LINE
  8
0
 10
107.55
 20
-203.1
 11
106.05
 21
-203.1
  0
LINE
  8
0
 10
106.05
 20
-203.1
 11
106.05
 21
-197.4
  0
LINE
  8
0
 10
106.05
 20
-197.4
 11
107.55
 21
-197.4
  0
LINE
  8
0
 10
107.55
 20
-197.4
 11
107.55
 21
-190.5
  0
LINE
  8
0
 10
107.55
 20
-190.5
 11
112.45
 21
-190.5
  0
LINE
  8
0
 10
112.45
 20
-190.5
 11
112.45
 21
-197.4
  0
LINE
  8
0
 10
112.45
 20
-197.4
 11
113.95
 21
-197.4
  0
LINE
  8
0
 10
113.95
 20
-197.4
 11
113.95
 21
-203.1
  0
LINE
  8
0
 10
113.95
 20
-203.1
 11
112.45
 21
-203.1
  0
LINE
  8
0
 10
112.45
 20
-203.1
 11
112.45
 21
-210
  0
LINE
  8
0
 10
112.45
 20
-210
 11
117.5
 21
-210
  0
LINE
  8
0
 10
117.5
 20
-210
 11
117.5
 21
-214.875
  0
LINE
  8
0
 10
117.5
 20
-214.875
 11
119.125
 21
-216.5
  0
LINE
  8
0
 10
119.125
 20
-216.5
 11
130.875
 21
-216.5
  0
LINE
  8
0
 10
130.875
 20
-216.5
 11
132.5
 21
-214.875
  0
LINE
  8
0
 10
132.5
 20
-214.875
 11
132.5
 21
-210
  0
LINE
  8
0
 10
132.5
 20
-210
 11
210
 21
-210
  0
LINE
  8
0
 10
210
 20
-210
 11
210
 21
-132.5
  0
LINE
  8
0
 10
210
 20
-132.5
 11
214.875
 21
-132.5
  0
LINE
  8
0
 10
214.875
 20
-132.5
 11
216.5
 21
-130.875
  0
LINE
  8
0
 10
216.5
 20
-130.875
 11
216.5
 21
-119.125
  0
LINE
  8
0
 10
216.5
 20
-119.125
 11
214.875
 21
-117.5
  0
LINE
  8
0
 10
214.875
 20
-117.5
 11
210
 21
-117.5
  0
LINE
  8
0
 10
210
 20
-117.5
 11
210
 21
-112.45
  0
LINE
  8
0
 10
210
 20
-112.45
 11
203.1
 21
-112.45
  0
LINE
  8
0
 10
203.1
 20
-112.45
 11
203.1
 21
-113.95
  0
LINE
  8
0
 10
203.1
 20
-113.95
 11
197.4
 21
-113.95
  0
LINE
  8
0
 10
197.4
 20
-113.95
 11
197.4
 21
-112.45
  0
LINE
  8
0
 10
197.4
 20
-112.45
 11
190.5
 21
-112.45
  0
LINE
  8
0
 10
190.5
 20
-112.45
 11
190.5
 21
-107.55
  0
LINE
  8
0
 10
190.5
 20
-107.55
 11
197.4
 21
-107.55
  0
LINE
  8
0
 10
197.4
 20
-107.55
 11
197.4
 21
-106.05
  0
LINE
  8
0
 10
197.4
 20
-106.05
 11
203.1
 21
-106.05
  0
LINE
  8
0
 10
203.1
 20
-106.05
 11
203.1
 21
-107.55
  0
LINE
  8
0
 10
203.1
 20
-107.55
 11
210
 21
-107.55
  0
LINE
  8
0
 10
210
 20
-107.55
 11
210
 21
-102.5
  0
LINE
  8
0
 10
210
 20
-102.5
 11
214.875
 21
-102.5
  0
LINE
  8
0
 10
214.875
 20
-102.5
 11
216.5
 21
-100.875
  0
LINE
  8
0
 10
216.5
 20
-100.875
 11
216.5
 21
-89.125
  0
LINE
  8
0
 10
216.5
 20
-89.125
 11
214.875
 21
-87.5
  0
LINE
  8
0
 10
214.875
 20
-87.5
 11
210
 21
-87.5
  0
LINE
  8
0
 10
210
 20
-87.5
 11
210
 21
-16.2742
  0
LINE
  8
0
 10
210
 20
-16.2742
 11
16.2742
 21
-210
  0
LINE
  8
0
 10
16.2742
 20
-210
 11
87.5
 21
-210
  0
LINE
  8
0
 10
87.5
 20
-210
 11
87.5
 21
-214.875
  0
LINE
  8
0
 10
87.5
 20
-214.875
 11
89.125
 21
-216.5
  0
LINE
  8
0
 10
89.125
 20
-216.5
 11
100.875
 21
-216.5
  0
LINE
  8
0
 10
100.875
 20
-216.5
 11
102.5
 21
-214.875
  0
LINE
  8
0
 10
166.418
 20
-64.5235
 11
200.288
 21
-30.6531
  0
LINE
  8
0
 10
200.288
 20
-30.6531
 11
204.813
 21
-35.1786
  0
LINE
  8
0
 10
204.813
 20
-35.1786
 11
170.943
 21
-69.049
  0
LINE
  8
0
 10
170.943
 20
-69.049
 11
166.418
 21
-64.5235
  0
LINE
  8
0
 10
98.5353
 20
-132.406
 11
132.406
 21
-98.5353
  0
LINE
  8
0
 10
132.406
 20
-98.5353
 11
136.931
 21
-103.061
  0
LINE
  8
0
 10
136.931
 20
-103.061
 11
103.061
 21
-136.931
  0
LINE
  8
0
 10
103.061
 20
-136.931
 11
98.5353
 21
-132.406
  0
LINE
  8
0
 10
30.6531
 20
-200.288
 11
64.5235
 21
-166.418
  0
LINE
  8
0
 10
64.5235
 20
-166.418
 11
69.049
 21
-170.943
  0
LINE
  8
0
 10
69.049
 20
-170.943
 11
35.1786
 21
-204.813
  0
LINE
  8
0
 10
35.1786
 20
-204.813
 11
30.6531
 21
-200.288
  0
LINE
  8
0
 10
197
 20
-176.05
 11
193
 21
-172.05
  0
LINE
  8
0
 10
193
 20
-172.05
 11
193
 21
-171.95
  0
LINE
  8
0
 10
193
 20
-171.95
 11
207
 21
-171.95
  0
LINE
  8
0
 10
207
 20
-171.95
 11
207
 21
-172.05
  0
LINE
  8
0
 10
207
 20
-172.05
 11
203
 21
-176.05
  0
LINE
  8
0
 10
203
 20
-176.05
 11
197
 21
-176.05
  0
LINE
  8
0
 10
207.95
 20
-187
 11
203.95
 21
-183
  0
LINE
  8
0
 10
203.95
 20
-183
 11
203.95
 21
-177
  0
LINE
  8
0
 10
203.95
 20
-177
 11
207.95
 21
-173
  0
LINE
  8
0
 10
207.95
 20
-173
 11
208.05
 21
-173
  0
LINE
  8
0
 10
208.05
 20
-173
 11
208.05
 21
-187
  0
LINE
  8
0
 10
208.05
 20
-187
 11
207.95
 21
-187
  0
LINE
  8
0
 10
191.95
 20
-187
 11
191.95
 21
-173
  0
LINE
  8
0
 10
191.95
 20
-173
 11
192.05
 21
-173
  0
LINE
  8
0
 10
192.05
 20
-173
 11
196.05
 21
-177
  0
LINE
  8
0
 10
196.05
 20
-177
 11
196.05
 21
-183
  0
LINE
  8
0
 10
196.05
 20
-183
 11
192.05
 21
-187
  0
LINE
  8
0
 10
192.05
 20
-187
 11
191.95
 21
-187
  0
LINE
  8
0
 10
199.512
 20
-182.452
 11
199.043
 21
-182.31
  0
LINE
  8
0
 10
199.043
 20
-182.31
 11
198.611
 21
-182.079
  0
LINE
  8
0
 10
198.611
 20
-182.079
 11
198.232
 21
-181.768
  0
LINE
  8
0
 10
198.232
 20
-181.768
 11
197.921
 21
-181.389
  0
LINE
  8
0
 10
197.921
 20
-181.389
 11
197.69
 21
-180.957
  0
LINE
  8
0
 10
197.69
 20
-180.957
 11
197.548
 21
-180.488
  0
LINE
  8
0
 10
197.548
 20
-180.488
 11
197.5
 21
-180
  0
LINE
  8
0
 10
197.5
 20
-180
 11
197.548
 21
-179.512
  0
LINE
  8
0
 10
197.548
 20
-179.512
 11
197.69
 21
-179.043
  0
LINE
  8
0
 10
197.69
 20
-179.043
 11
197.921
 21
-178.611
  0
LINE
  8
0
 10
197.921
 20
-178.611
 11
198.232
 21
-178.232
  0
LINE
  8
0
 10
198.232
 20
-178.232
 11
198.611
 21
-177.921
  0
LINE
  8
0
 10
198.611
 20
-177.921
 11
199.043
 21
-177.69
  0
LINE
  8
0
 10
199.043
 20
-177.69
 11
199.512
 21
-177.548
  0
LINE
  8
0
 10
199.512
 20
-177.548
 11
200
 21
-177.5
  0
LINE
  8
0
 10
200
 20
-177.5
 11
200.488
 21
-177.548
  0
LINE
  8
0
 10
200.488
 20
-177.548
 11
200.957
 21
-177.69
  0
LINE
  8
0
 10
200.957
 20
-177.69
 11
201.389
 21
-177.921
  0
LINE
  8
0
 10
201.389
 20
-177.921
 11
201.768
 21
-178.232
  0
LINE
  8
0
 10
201.768
 20
-178.232
 11
202.079
 21
-178.611
  0
LINE
  8
0
 10
202.079
 20
-178.611
 11
202.31
 21
-179.043
  0
LINE
  8
0
 10
202.31
 20
-179.043
 11
202.452
 21
-179.512
  0
LINE
  8
0
 10
202.452
 20
-179.512
 11
202.5
 21
-180
  0
LINE
  8
0
 10
202.5
 20
-180
 11
202.452
 21
-180.488
  0
LINE
  8
0
 10
202.452
 20
-180.488
 11
202.31
 21
-180.957
  0
LINE
  8
0
 10
202.31
 20
-180.957
 11
202.079
 21
-181.389
  0
LINE
  8
0
 10
202.079
 20
-181.389
 11
201.768
 21
-181.768
  0
LINE
  8
0
 10
201.768
 20
-181.768
 11
201.389
 21
-182.079
  0
LINE
  8
0
 10
201.389
 20
-182.079
 11
200.957
 21
-182.31
  0
LINE
  8
0
 10
200.957
 20
-182.31
 11
200.488
 21
-182.452
  0
LINE
  8
0
 10
200.488
 20
-182.452
 11
200
 21
-182.5
  0
LINE
  8
0
 10
200
 20
-182.5
 11
199.512
 21
-182.452
  0
LINE
  8
0
 10
207.95
 20
-207
 11
203.95
 21
-203
  0
LINE
  8
0
 10
203.95
 20
-203
 11
203.95
 21
-197
  0
LINE
  8
0
 10
203.95
 20
-197
 11
207.95
 21
-193
  0
LINE
  8
0
 10
207.95
 20
-193
 11
208.05
 21
-193
  0
LINE
  8
0
 10
208.05
 20
-193
 11
208.05
 21
-207
  0
LINE
  8
0
 10
208.05
 20
-207
 11
207.95
 21
-207
  0
LINE
  8
0
 10
191.95
 20
-207
 11
191.95
 21
-193
  0
LINE
  8
0
 10
191.95
 20
-193
 11
192.05
 21
-193
  0
LINE
  8
0
 10
192.05
 20
-193
 11
196.05
 21
-197
  0
LINE
  8
0
 10
196.05
 20
-197
 11
196.05
 21
-203
  0
LINE
  8
0
 10
196.05
 20
-203
 11
192.05
 21
-207
  0
LINE
  8
0
 10
192.05
 20
-207
 11
191.95
 21
-207
  0
LINE
  8
0
 10
199.512
 20
-202.452
 11
199.043
 21
-202.31
  0
LINE
  8
0
 10
199.043
 20
-202.31
 11
198.611
 21
-202.079
  0
LINE
  8
0
 10
198.611
 20
-202.079
 11
198.232
 21
-201.768
  0
LINE
  8
0
 10
198.232
 20
-201.768
 11
197.921
 21
-201.389
  0
LINE
  8
0
 10
197.921
 20
-201.389
 11
197.69
 21
-200.957
  0
LINE
  8
0
 10
197.69
 20
-200.957
 11
197.548
 21
-200.488
  0
LINE
  8
0
 10
197.548
 20
-200.488
 11
197.5
 21
-200
  0
LINE
  8
0
 10
197.5
 20
-200
 11
197.548
 21
-199.512
  0
LINE
  8
0
 10
197.548
 20
-199.512
 11
197.69
 21
-199.043
  0
LINE
  8
0
 10
197.69
 20
-199.043
 11
197.921
 21
-198.611
  0
LINE
  8
0
 10
197.921
 20
-198.611
 11
198.232
 21
-198.232
  0
LINE
  8
0
 10
198.232
 20
-198.232
 11
198.611
 21
-197.921
  0
LINE
  8
0
 10
198.611
 20
-197.921
 11
199.043
 21
-197.69
  0
LINE
  8
0
 10
199.043
 20
-197.69
 11
199.512
 21
-197.548
  0
LINE
  8
0
 10
199.512
 20
-197.548
 11
200
 21
-197.5
  0
LINE
  8
0
 10
200
 20
-197.5
 11
200.488
 21
-197.548
  0
LINE
  8
0
 10
200.488
 20
-197.548
 11
200.957
 21
-197.69
  0
LINE
  8
0
 10
200.957
 20
-197.69
 11
201.389
 21
-197.921
  0
LINE
  8
0
 10
201.389
 20
-197.921
 11
201.768
 21
-198.232
  0
LINE
  8
0
 10
201.768
 20
-198.232
 11
202.079
 21
-198.611
  0
LINE
  8
0
 10
202.079
 20
-198.611
 11
202.31
 21
-199.043
  0
LINE
  8
0
 10
202.31
 20
-199.043
 11
202.452
 21
-199.512
  0
LINE
  8
0
 10
202.452
 20
-199.512
 11
202.5
 21
-200
  0
LINE
  8
0
 10
202.5
 20
-200
 11
202.452
 21
-200.488
  0
LINE
  8
0
 10
202.452
 20
-200.488
 11
202.31
 21
-200.957
  0
LINE
  8
0
 10
202.31
 20
-200.957
 11
202.079
 21
-201.389
  0
LINE
  8
0
 10
202.079
 20
-201.389
 11
201.768
 21
-201.768
  0
LINE
  8
0
 10
201.768
 20
-201.768
 11
201.389
 21
-202.079
  0
LINE
  8
0
 10
201.389
 20
-202.079
 11
200.957
 21
-202.31
  0
LINE
  8
0
 10
200.957
 20
-202.31
 11
200.488
 21
-202.452
  0
LINE
  8
0
 10
200.488
 20
-202.452
 11
200
 21
-202.5
  0
LINE
  8
0
 10
200
 20
-202.5
 11
199.512
 21
-202.452
  0
LINE
  8
0
 10
193
 20
-208.05
 11
193
 21
-207.95
  0
LINE
  8
0
 10
193
 20
-207.95
 11
197
 21
-203.95
  0
LINE
  8
0
 10
197
 20
-203.95
 11
203
 21
-203.95
  0
LINE
  8
0
 10
203
 20
-203.95
 11
207
 21
-207.95
  0
LINE
  8
0
 10
207
 20
-207.95
 11
207
 21
-208.05
  0
LINE
  8
0
 10
207
 20
-208.05
 11
193
 21
-208.05
  0
ENDSEC
  0
SECTION
  2
OBJECTS
  0
DICTIONARY
  0
ENDSEC
  0
EOF
