  0
SECTION
  2
BLOCKS
  0
ENDSEC
  0
SECTION
  2
ENTITIES
  0
LINE
  8
0
 10
112.45
 20
203.1
 11
113.95
 21
203.1
  0
LINE
  8
0
 10
113.95
 20
203.1
 11
113.95
 21
197.4
  0
LINE
  8
0
 10
113.95
 20
197.4
 11
112.45
 21
197.4
  0
LINE
  8
0
 10
112.45
 20
197.4
 11
112.45
 21
190.5
  0
LINE
  8
0
 10
112.45
 20
190.5
 11
107.55
 21
190.5
  0
LINE
  8
0
 10
107.55
 20
190.5
 11
107.55
 21
197.4
  0
LINE
  8
0
 10
107.55
 20
197.4
 11
106.05
 21
197.4
  0
LINE
  8
0
 10
106.05
 20
197.4
 11
106.05
 21
203.1
  0
LINE
  8
0
 10
106.05
 20
203.1
 11
107.55
 21
203.1
  0
LINE
  8
0
 10
107.55
 20
203.1
 11
107.55
 21
210
  0
LINE
  8
0
 10
107.55
 20
210
 11
102.5
 21
210
  0
LINE
  8
0
 10
102.5
 20
210
 11
102.5
 21
214.875
  0
LINE
  8
0
 10
102.5
 20
214.875
 11
100.875
 21
216.5
  0
LINE
  8
0
 10
100.875
 20
216.5
 11
89.125
 21
216.5
  0
LINE
  8
0
 10
89.125
 20
216.5
 11
87.5
 21
214.875
  0
LINE
  8
0
 10
87.5
 20
214.875
 11
87.5
 21
210
  0
LINE
  8
0
 10
87.5
 20
210
 11
-87.5
 21
210
  0
LINE
  8
0
 10
-87.5
 20
210
 11
-87.5
 21
214.875
  0
LINE
  8
0
 10
-87.5
 20
214.875
 11
-89.125
 21
216.5
  0
LINE
  8
0
 10
-89.125
 20
216.5
 11
-100.875
 21
216.5
  0
LINE
  8
0
 10
-100.875
 20
216.5
 11
-102.5
 21
214.875
  0
LINE
  8
0
 10
-102.5
 20
214.875
 11
-102.5
 21
210
  0
LINE
  8
0
 10
-102.5
 20
210
 11
-107.55
 21
210
  0
LINE
  8
0
 10
-107.55
 20
210
 11
-107.55
 21
203.1
  0
LINE
  8
0
 10
-107.55
 20
203.1
 11
-106.05
 21
203.1
  0
LINE
  8
0
 10
-106.05
 20
203.1
 11
-106.05
 21
197.4
  0
LINE
  8
0
 10
-106.05
 20
197.4
 11
-107.55
 21
197.4
  0
LINE
  8
0
 10
-107.55
 20
197.4
 11
-107.55
 21
190.5
  0
LINE
  8
0
 10
-107.55
 20
190.5
 11
-112.45
 21
190.5
  0
LINE
  8
0
 10
-112.45
 20
190.5
 11
-112.45
 21
197.4
  0
LINE
  8
0
 10
-112.45
 20
197.4
 11
-113.95
 21
197.4
  0
LINE
  8
0
 10
-113.95
 20
197.4
 11
-113.95
 21
203.1
  0
LINE
  8
0
 10
-113.95
 20
203.1
 11
-112.45
 21
203.1
  0
LINE
  8
0
 10
-112.45
 20
203.1
 11
-112.45
 21
210
  0
LINE
  8
0
 10
-112.45
 20
210
 11
-117.5
 21
210
  0
LINE
  8
0
 10
-117.5
 20
210
 11
-117.5
 21
214.875
  0
LINE
  8
0
 10
-117.5
 20
214.875
 11
-119.125
 21
216.5
  0
LINE
  8
0
 10
-119.125
 20
216.5
 11
-130.875
 21
216.5
  0
LINE
  8
0
 10
-130.875
 20
216.5
 11
-132.5
 21
214.875
  0
LINE
  8
0
 10
-132.5
 20
214.875
 11
-132.5
 21
210
  0
LINE
  8
0
 10
-132.5
 20
210
 11
-190
 21
210
  0
LINE
  8
0
 10
-190
 20
210
 11
-190
 21
204.25
  0
LINE
  8
0
 10
-190
 20
204.25
 11
-188
 21
204.25
  0
LINE
  8
0
 10
-188
 20
204.25
 11
-188
 21
195.75
  0
LINE
  8
0
 10
-188
 20
195.75
 11
-190
 21
195.75
  0
LINE
  8
0
 10
-190
 20
195.75
 11
-190
 21
170
  0
LINE
  8
0
 10
-190
 20
170
 11
-210
 21
170
  0
LINE
  8
0
 10
-210
 20
170
 11
-210
 21
132.5
  0
LINE
  8
0
 10
-210
 20
132.5
 11
-214.875
 21
132.5
  0
LINE
  8
0
 10
-214.875
 20
132.5
 11
-216.5
 21
130.875
  0
LINE
  8
0
 10
-216.5
 20
130.875
 11
-216.5
 21
119.125
  0
LINE
  8
0
 10
-216.5
 20
119.125
 11
-214.875
 21
117.5
  0
LINE
  8
0
 10
-214.875
 20
117.5
 11
-210
 21
117.5
  0
LINE
  8
0
 10
-210
 20
117.5
 11
-210
 21
112.45
  0
LINE
  8
0
 10
-210
 20
112.45
 11
-203.1
 21
112.45
  0
LINE
  8
0
 10
-203.1
 20
112.45
 11
-203.1
 21
113.95
  0
LINE
  8
0
 10
-203.1
 20
113.95
 11
-197.4
 21
113.95
  0
LINE
  8
0
 10
-197.4
 20
113.95
 11
-197.4
 21
112.45
  0
LINE
  8
0
 10
-197.4
 20
112.45
 11
-190.5
 21
112.45
  0
LINE
  8
0
 10
-190.5
 20
112.45
 11
-190.5
 21
107.55
  0
LINE
  8
0
 10
-190.5
 20
107.55
 11
-197.4
 21
107.55
  0
LINE
  8
0
 10
-197.4
 20
107.55
 11
-197.4
 21
106.05
  0
LINE
  8
0
 10
-197.4
 20
106.05
 11
-203.1
 21
106.05
  0
LINE
  8
0
 10
-203.1
 20
106.05
 11
-203.1
 21
107.55
  0
LINE
  8
0
 10
-203.1
 20
107.55
 11
-210
 21
107.55
  0
LINE
  8
0
 10
-210
 20
107.55
 11
-210
 21
102.5
  0
LINE
  8
0
 10
-210
 20
102.5
 11
-214.875
 21
102.5
  0
LINE
  8
0
 10
-214.875
 20
102.5
 11
-216.5
 21
100.875
  0
LINE
  8
0
 10
-216.5
 20
100.875
 11
-216.5
 21
89.125
  0
LINE
  8
0
 10
-216.5
 20
89.125
 11
-214.875
 21
87.5
  0
LINE
  8
0
 10
-214.875
 20
87.5
 11
-210
 21
87.5
  0
LINE
  8
0
 10
-210
 20
87.5
 11
-210
 21
-87.5
  0
LINE
  8
0
 10
-210
 20
-87.5
 11
-214.875
 21
-87.5
  0
LINE
  8
0
 10
-214.875
 20
-87.5
 11
-216.5
 21
-89.125
  0
LINE
  8
0
 10
-216.5
 20
-89.125
 11
-216.5
 21
-100.875
  0
LINE
  8
0
 10
-216.5
 20
-100.875
 11
-214.875
 21
-102.5
  0
LINE
  8
0
 10
-214.875
 20
-102.5
 11
-210
 21
-102.5
  0
LINE
  8
0
 10
-210
 20
-102.5
 11
-210
 21
-107.55
  0
LINE
  8
0
 10
-210
 20
-107.55
 11
-203.1
 21
-107.55
  0
LINE
  8
0
 10
-203.1
 20
-107.55
 11
-203.1
 21
-106.05
  0
LINE
  8
0
 10
-203.1
 20
-106.05
 11
-197.4
 21
-106.05
  0
LINE
  8
0
 10
-197.4
 20
-106.05
 11
-197.4
 21
-107.55
  0
LINE
  8
0
 10
-197.4
 20
-107.55
 11
-190.5
 21
-107.55
  0
LINE
  8
0
 10
-190.5
 20
-107.55
 11
-190.5
 21
-112.45
  0
LINE
  8
0
 10
-190.5
 20
-112.45
 11
-197.4
 21
-112.45
  0
LINE
  8
0
 10
-197.4
 20
-112.45
 11
-197.4
 21
-113.95
  0
LINE
  8
0
 10
-197.4
 20
-113.95
 11
-203.1
 21
-113.95
  0
LINE
  8
0
 10
-203.1
 20
-113.95
 11
-203.1
 21
-112.45
  0
LINE
  8
0
 10
-203.1
 20
-112.45
 11
-210
 21
-112.45
  0
LINE
  8
0
 10
-210
 20
-112.45
 11
-210
 21
-117.5
  0
LINE
  8
0
 10
-210
 20
-117.5
 11
-214.875
 21
-117.5
  0
LINE
  8
0
 10
-214.875
 20
-117.5
 11
-216.5
 21
-119.125
  0
LINE
  8
0
 10
-216.5
 20
-119.125
 11
-216.5
 21
-130.875
  0
LINE
  8
0
 10
-216.5
 20
-130.875
 11
-214.875
 21
-132.5
  0
LINE
  8
0
 10
-214.875
 20
-132.5
 11
-210
 21
-132.5
  0
LINE
  8
0
 10
-210
 20
-132.5
 11
-210
 21
-170
  0
LINE
  8
0
 10
-210
 20
-170
 11
-190
 21
-170
  0
LINE
  8
0
 10
-190
 20
-170
 11
-190
 21
-210
  0
LINE
  8
0
 10
-190
 20
-210
 11
-132.5
 21
-210
  0
LINE
  8
0
 10
-132.5
 20
-210
 11
-132.5
 21
-214.875
  0
LINE
  8
0
 10
-132.5
 20
-214.875
 11
-130.875
 21
-216.5
  0
LINE
  8
0
 10
-130.875
 20
-216.5
 11
-119.125
 21
-216.5
  0
LINE
  8
0
 10
-119.125
 20
-216.5
 11
-117.5
 21
-214.875
  0
LINE
  8
0
 10
-117.5
 20
-214.875
 11
-117.5
 21
-210
  0
LINE
  8
0
 10
-117.5
 20
-210
 11
-112.45
 21
-210
  0
LINE
  8
0
 10
-112.45
 20
-210
 11
-112.45
 21
-203.1
  0
LINE
  8
0
 10
-112.45
 20
-203.1
 11
-113.95
 21
-203.1
  0
LINE
  8
0
 10
-113.95
 20
-203.1
 11
-113.95
 21
-197.4
  0
LINE
  8
0
 10
-113.95
 20
-197.4
 11
-112.45
 21
-197.4
  0
LINE
  8
0
 10
-112.45
 20
-197.4
 11
-112.45
 21
-190.5
  0
LINE
  8
0
 10
-112.45
 20
-190.5
 11
-107.55
 21
-190.5
  0
LINE
  8
0
 10
-107.55
 20
-190.5
 11
-107.55
 21
-197.4
  0
LINE
  8
0
 10
-107.55
 20
-197.4
 11
-106.05
 21
-197.4
  0
LINE
  8
0
 10
-106.05
 20
-197.4
 11
-106.05
 21
-203.1
  0
LINE
  8
0
 10
-106.05
 20
-203.1
 11
-107.55
 21
-203.1
  0
LINE
  8
0
 10
-107.55
 20
-203.1
 11
-107.55
 21
-210
  0
LINE
  8
0
 10
-107.55
 20
-210
 11
-102.5
 21
-210
  0
LINE
  8
0
 10
-102.5
 20
-210
 11
-102.5
 21
-214.875
  0
LINE
  8
0
 10
-102.5
 20
-214.875
 11
-100.875
 21
-216.5
  0
LINE
  8
0
 10
-100.875
 20
-216.5
 11
-89.125
 21
-216.5
  0
LINE
  8
0
 10
-89.125
 20
-216.5
 11
-87.5
 21
-214.875
  0
LINE
  8
0
 10
-87.5
 20
-214.875
 11
-87.5
 21
-210
  0
LINE
  8
0
 10
-87.5
 20
-210
 11
87.5
 21
-210
  0
LINE
  8
0
 10
87.5
 20
-210
 11
87.5
 21
-214.875
  0
LINE
  8
0
 10
87.5
 20
-214.875
 11
89.125
 21
-216.5
  0
LINE
  8
0
 10
89.125
 20
-216.5
 11
100.875
 21
-216.5
  0
LINE
  8
0
 10
100.875
 20
-216.5
 11
102.5
 21
-214.875
  0
LINE
  8
0
 10
102.5
 20
-214.875
 11
102.5
 21
-210
  0
LINE
  8
0
 10
102.5
 20
-210
 11
107.55
 21
-210
  0
LINE
  8
0
 10
107.55
 20
-210
 11
107.55
 21
-203.1
  0
LINE
  8
0
 10
107.55
 20
-203.1
 11
106.05
 21
-203.1
  0
LINE
  8
0
 10
106.05
 20
-203.1
 11
106.05
 21
-197.4
  0
LINE
  8
0
 10
106.05
 20
-197.4
 11
107.55
 21
-197.4
  0
LINE
  8
0
 10
107.55
 20
-197.4
 11
107.55
 21
-190.5
  0
LINE
  8
0
 10
107.55
 20
-190.5
 11
112.45
 21
-190.5
  0
LINE
  8
0
 10
112.45
 20
-190.5
 11
112.45
 21
-197.4
  0
LINE
  8
0
 10
112.45
 20
-197.4
 11
113.95
 21
-197.4
  0
LINE
  8
0
 10
113.95
 20
-197.4
 11
113.95
 21
-203.1
  0
LINE
  8
0
 10
113.95
 20
-203.1
 11
112.45
 21
-203.1
  0
LINE
  8
0
 10
112.45
 20
-203.1
 11
112.45
 21
-210
  0
LINE
  8
0
 10
112.45
 20
-210
 11
117.5
 21
-210
  0
LINE
  8
0
 10
117.5
 20
-210
 11
117.5
 21
-214.875
  0
LINE
  8
0
 10
117.5
 20
-214.875
 11
119.125
 21
-216.5
  0
LINE
  8
0
 10
119.125
 20
-216.5
 11
130.875
 21
-216.5
  0
LINE
  8
0
 10
130.875
 20
-216.5
 11
132.5
 21
-214.875
  0
LINE
  8
0
 10
132.5
 20
-214.875
 11
132.5
 21
-210
  0
LINE
  8
0
 10
132.5
 20
-210
 11
190
 21
-210
  0
LINE
  8
0
 10
190
 20
-210
 11
190
 21
-170
  0
LINE
  8
0
 10
190
 20
-170
 11
210
 21
-170
  0
LINE
  8
0
 10
210
 20
-170
 11
210
 21
-132.5
  0
LINE
  8
0
 10
210
 20
-132.5
 11
214.875
 21
-132.5
  0
LINE
  8
0
 10
214.875
 20
-132.5
 11
216.5
 21
-130.875
  0
LINE
  8
0
 10
216.5
 20
-130.875
 11
216.5
 21
-119.125
  0
LINE
  8
0
 10
216.5
 20
-119.125
 11
214.875
 21
-117.5
  0
LINE
  8
0
 10
214.875
 20
-117.5
 11
210
 21
-117.5
  0
LINE
  8
0
 10
210
 20
-117.5
 11
210
 21
-112.45
  0
LINE
  8
0
 10
210
 20
-112.45
 11
203.1
 21
-112.45
  0
LINE
  8
0
 10
203.1
 20
-112.45
 11
203.1
 21
-113.95
  0
LINE
  8
0
 10
203.1
 20
-113.95
 11
197.4
 21
-113.95
  0
LINE
  8
0
 10
197.4
 20
-113.95
 11
197.4
 21
-112.45
  0
LINE
  8
0
 10
197.4
 20
-112.45
 11
190.5
 21
-112.45
  0
LINE
  8
0
 10
190.5
 20
-112.45
 11
190.5
 21
-107.55
  0
LINE
  8
0
 10
190.5
 20
-107.55
 11
197.4
 21
-107.55
  0
LINE
  8
0
 10
197.4
 20
-107.55
 11
197.4
 21
-106.05
  0
LINE
  8
0
 10
197.4
 20
-106.05
 11
203.1
 21
-106.05
  0
LINE
  8
0
 10
203.1
 20
-106.05
 11
203.1
 21
-107.55
  0
LINE
  8
0
 10
203.1
 20
-107.55
 11
210
 21
-107.55
  0
LINE
  8
0
 10
210
 20
-107.55
 11
210
 21
-102.5
  0
LINE
  8
0
 10
210
 20
-102.5
 11
214.875
 21
-102.5
  0
LINE
  8
0
 10
214.875
 20
-102.5
 11
216.5
 21
-100.875
  0
LINE
  8
0
 10
216.5
 20
-100.875
 11
216.5
 21
-89.125
  0
LINE
  8
0
 10
216.5
 20
-89.125
 11
214.875
 21
-87.5
  0
LINE
  8
0
 10
214.875
 20
-87.5
 11
210
 21
-87.5
  0
LINE
  8
0
 10
210
 20
-87.5
 11
210
 21
87.5
  0
LINE
  8
0
 10
210
 20
87.5
 11
214.875
 21
87.5
  0
LINE
  8
0
 10
214.875
 20
87.5
 11
216.5
 21
89.125
  0
LINE
  8
0
 10
216.5
 20
89.125
 11
216.5
 21
100.875
  0
LINE
  8
0
 10
216.5
 20
100.875
 11
214.875
 21
102.5
  0
LINE
  8
0
 10
214.875
 20
102.5
 11
210
 21
102.5
  0
LINE
  8
0
 10
210
 20
102.5
 11
210
 21
107.55
  0
LINE
  8
0
 10
210
 20
107.55
 11
203.1
 21
107.55
  0
LINE
  8
0
 10
203.1
 20
107.55
 11
203.1
 21
106.05
  0
LINE
  8
0
 10
203.1
 20
106.05
 11
197.4
 21
106.05
  0
LINE
  8
0
 10
197.4
 20
106.05
 11
197.4
 21
107.55
  0
LINE
  8
0
 10
197.4
 20
107.55
 11
190.5
 21
107.55
  0
LINE
  8
0
 10
190.5
 20
107.55
 11
190.5
 21
112.45
  0
LINE
  8
0
 10
190.5
 20
112.45
 11
197.4
 21
112.45
  0
LINE
  8
0
 10
197.4
 20
112.45
 11
197.4
 21
113.95
  0
LINE
  8
0
 10
197.4
 20
113.95
 11
203.1
 21
113.95
  0
LINE
  8
0
 10
203.1
 20
113.95
 11
203.1
 21
112.45
  0
LINE
  8
0
 10
203.1
 20
112.45
 11
210
 21
112.45
  0
LINE
  8
0
 10
210
 20
112.45
 11
210
 21
117.5
  0
LINE
  8
0
 10
210
 20
117.5
 11
214.875
 21
117.5
  0
LINE
  8
0
 10
214.875
 20
117.5
 11
216.5
 21
119.125
  0
LINE
  8
0
 10
216.5
 20
119.125
 11
216.5
 21
130.875
  0
LINE
  8
0
 10
216.5
 20
130.875
 11
214.875
 21
132.5
  0
LINE
  8
0
 10
214.875
 20
132.5
 11
210
 21
132.5
  0
LINE
  8
0
 10
210
 20
132.5
 11
210
 21
170
  0
LINE
  8
0
 10
210
 20
170
 11
190
 21
170
  0
LINE
  8
0
 10
190
 20
170
 11
190
 21
195.75
  0
LINE
  8
0
 10
190
 20
195.75
 11
188
 21
195.75
  0
LINE
  8
0
 10
188
 20
195.75
 11
188
 21
204.25
  0
LINE
  8
0
 10
188
 20
204.25
 11
190
 21
204.25
  0
LINE
  8
0
 10
190
 20
204.25
 11
190
 21
210
  0
LINE
  8
0
 10
190
 20
210
 11
132.5
 21
210
  0
LINE
  8
0
 10
132.5
 20
210
 11
132.5
 21
214.875
  0
LINE
  8
0
 10
132.5
 20
214.875
 11
130.875
 21
216.5
  0
LINE
  8
0
 10
130.875
 20
216.5
 11
119.125
 21
216.5
  0
LINE
  8
0
 10
119.125
 20
216.5
 11
117.5
 21
214.875
  0
LINE
  8
0
 10
117.5
 20
214.875
 11
117.5
 21
210
  0
LINE
  8
0
 10
117.5
 20
210
 11
112.45
 21
210
  0
LINE
  8
0
 10
112.45
 20
210
 11
112.45
 21
203.1
  0
LINE
  8
0
 10
-179
 20
195.75
 11
-179
 21
204.25
  0
LINE
  8
0
 10
-179
 20
204.25
 11
-175
 21
204.25
  0
LINE
  8
0
 10
-175
 20
204.25
 11
-175
 21
195.75
  0
LINE
  8
0
 10
-175
 20
195.75
 11
-179
 21
195.75
  0
LINE
  8
0
 10
175
 20
195.75
 11
175
 21
204.25
  0
LINE
  8
0
 10
175
 20
204.25
 11
179
 21
204.25
  0
LINE
  8
0
 10
179
 20
204.25
 11
179
 21
195.75
  0
LINE
  8
0
 10
179
 20
195.75
 11
175
 21
195.75
  0
LINE
  8
0
 10
64.5942
 20
166.347
 11
69.1197
 21
170.872
  0
LINE
  8
0
 10
69.1197
 20
170.872
 11
102.99
 21
137.002
  0
LINE
  8
0
 10
102.99
 20
137.002
 11
98.4646
 21
132.476
  0
LINE
  8
0
 10
98.4646
 20
132.476
 11
64.5942
 21
166.347
  0
LINE
  8
0
 10
-102.99
 20
137.002
 11
-69.1197
 21
170.872
  0
LINE
  8
0
 10
-69.1197
 20
170.872
 11
-64.5942
 21
166.347
  0
LINE
  8
0
 10
-64.5942
 20
166.347
 11
-98.4646
 21
132.476
  0
LINE
  8
0
 10
-98.4646
 20
132.476
 11
-102.99
 21
137.002
  0
LINE
  8
0
 10
132.476
 20
98.4646
 11
137.002
 21
102.99
  0
LINE
  8
0
 10
137.002
 20
102.99
 11
170.872
 21
69.1197
  0
LINE
  8
0
 10
170.872
 20
69.1197
 11
166.347
 21
64.5942
  0
LINE
  8
0
 10
166.347
 20
64.5942
 11
132.476
 21
98.4646
  0
LINE
  8
0
 10
-170.872
 20
69.1197
 11
-137.002
 21
102.99
  0
LINE
  8
0
 10
-137.002
 20
102.99
 11
-132.476
 21
98.4646
  0
LINE
  8
0
 10
-132.476
 20
98.4646
 11
-166.347
 21
64.5942
  0
LINE
  8
0
 10
-166.347
 20
64.5942
 11
-170.872
 21
69.1197
  0
LINE
  8
0
 10
-4.50484
 20
-2.16942
 11
-4.50484
 21
2.16942
  0
LINE
  8
0
 10
-4.50484
 20
2.16942
 11
-1.11259
 21
4.87463
  0
LINE
  8
0
 10
-1.11259
 20
4.87463
 11
3.11745
 21
3.90915
  0
LINE
  8
0
 10
3.11745
 20
3.90915
 11
5
 21
0
  0
LINE
  8
0
 10
5
 20
0
 11
3.11745
 21
-3.90915
  0
LINE
  8
0
 10
3.11745
 20
-3.90915
 11
-1.11259
 21
-4.87463
  0
LINE
  8
0
 10
-1.11259
 20
-4.87463
 11
-4.50484
 21
-2.16942
  0
LINE
  8
0
 10
132.476
 20
-98.4646
 11
166.347
 21
-64.5942
  0
LINE
  8
0
 10
166.347
 20
-64.5942
 11
170.872
 21
-69.1197
  0
LINE
  8
0
 10
170.872
 20
-69.1197
 11
137.002
 21
-102.99
  0
LINE
  8
0
 10
137.002
 20
-102.99
 11
132.476
 21
-98.4646
  0
LINE
  8
0
 10
-170.872
 20
-69.1197
 11
-166.347
 21
-64.5942
  0
LINE
  8
0
 10
-166.347
 20
-64.5942
 11
-132.476
 21
-98.4646
  0
LINE
  8
0
 10
-132.476
 20
-98.4646
 11
-137.002
 21
-102.99
  0
LINE
  8
0
 10
-137.002
 20
-102.99
 11
-170.872
 21
-69.1197
  0
LINE
  8
0
 10
-102.99
 20
-137.002
 11
-98.4646
 21
-132.476
  0
LINE
  8
0
 10
-98.4646
 20
-132.476
 11
-64.5942
 21
-166.347
  0
LINE
  8
0
 10
-64.5942
 20
-166.347
 11
-69.1197
 21
-170.872
  0
LINE
  8
0
 10
-69.1197
 20
-170.872
 11
-102.99
 21
-137.002
  0
LINE
  8
0
 10
64.5942
 20
-166.347
 11
98.4646
 21
-132.476
  0
LINE
  8
0
 10
98.4646
 20
-132.476
 11
102.99
 21
-137.002
  0
LINE
  8
0
 10
102.99
 20
-137.002
 11
69.1197
 21
-170.872
  0
LINE
  8
0
 10
69.1197
 20
-170.872
 11
64.5942
 21
-166.347
  0
ENDSEC
  0
SECTION
  2
OBJECTS
  0
DICTIONARY
  0
ENDSEC
  0
EOF
