  0
SECTION
  2
BLOCKS
  0
ENDSEC
  0
SECTION
  2
ENTITIES
  0
LINE
  8
0
 10
-132.5
 20
-229.875
 11
-132.5
 21
-225
  0
LINE
  8
0
 10
-132.5
 20
-225
 11
-127.8
 21
-225
  0
LINE
  8
0
 10
-127.8
 20
-225
 11
-127.8
 21
-218.1
  0
LINE
  8
0
 10
-127.8
 20
-218.1
 11
-129.595
 21
-218.1
  0
LINE
  8
0
 10
-129.595
 20
-218.1
 11
-129.595
 21
-212.4
  0
LINE
  8
0
 10
-129.595
 20
-212.4
 11
-127.8
 21
-212.4
  0
LINE
  8
0
 10
-127.8
 20
-212.4
 11
-127.8
 21
-205.5
  0
LINE
  8
0
 10
-127.8
 20
-205.5
 11
-122.2
 21
-205.5
  0
LINE
  8
0
 10
-122.2
 20
-205.5
 11
-122.2
 21
-212.4
  0
LINE
  8
0
 10
-122.2
 20
-212.4
 11
-120.405
 21
-212.4
  0
LINE
  8
0
 10
-120.405
 20
-212.4
 11
-120.405
 21
-218.1
  0
LINE
  8
0
 10
-120.405
 20
-218.1
 11
-122.2
 21
-218.1
  0
LINE
  8
0
 10
-122.2
 20
-218.1
 11
-122.2
 21
-225
  0
LINE
  8
0
 10
-122.2
 20
-225
 11
-117.5
 21
-225
  0
LINE
  8
0
 10
-117.5
 20
-225
 11
-117.5
 21
-229.875
  0
LINE
  8
0
 10
-117.5
 20
-229.875
 11
-115.875
 21
-231.5
  0
LINE
  8
0
 10
-115.875
 20
-231.5
 11
-104.125
 21
-231.5
  0
LINE
  8
0
 10
-104.125
 20
-231.5
 11
-102.5
 21
-229.875
  0
LINE
  8
0
 10
-102.5
 20
-229.875
 11
-102.5
 21
-225
  0
LINE
  8
0
 10
-102.5
 20
-225
 11
102.5
 21
-225
  0
LINE
  8
0
 10
102.5
 20
-225
 11
102.5
 21
-229.875
  0
LINE
  8
0
 10
102.5
 20
-229.875
 11
104.125
 21
-231.5
  0
LINE
  8
0
 10
104.125
 20
-231.5
 11
115.875
 21
-231.5
  0
LINE
  8
0
 10
115.875
 20
-231.5
 11
117.5
 21
-229.875
  0
LINE
  8
0
 10
117.5
 20
-229.875
 11
117.5
 21
-225
  0
LINE
  8
0
 10
117.5
 20
-225
 11
122.2
 21
-225
  0
LINE
  8
0
 10
122.2
 20
-225
 11
122.2
 21
-218.1
  0
LINE
  8
0
 10
122.2
 20
-218.1
 11
120.405
 21
-218.1
  0
LINE
  8
0
 10
120.405
 20
-218.1
 11
120.405
 21
-212.4
  0
LINE
  8
0
 10
120.405
 20
-212.4
 11
122.2
 21
-212.4
  0
LINE
  8
0
 10
122.2
 20
-212.4
 11
122.2
 21
-205.5
  0
LINE
  8
0
 10
122.2
 20
-205.5
 11
127.8
 21
-205.5
  0
LINE
  8
0
 10
127.8
 20
-205.5
 11
127.8
 21
-212.4
  0
LINE
  8
0
 10
127.8
 20
-212.4
 11
129.595
 21
-212.4
  0
LINE
  8
0
 10
129.595
 20
-212.4
 11
129.595
 21
-218.1
  0
LINE
  8
0
 10
129.595
 20
-218.1
 11
127.8
 21
-218.1
  0
LINE
  8
0
 10
127.8
 20
-218.1
 11
127.8
 21
-225
  0
LINE
  8
0
 10
127.8
 20
-225
 11
132.5
 21
-225
  0
LINE
  8
0
 10
132.5
 20
-225
 11
132.5
 21
-229.875
  0
LINE
  8
0
 10
132.5
 20
-229.875
 11
134.125
 21
-231.5
  0
LINE
  8
0
 10
134.125
 20
-231.5
 11
145.875
 21
-231.5
  0
LINE
  8
0
 10
145.875
 20
-231.5
 11
147.5
 21
-229.875
  0
LINE
  8
0
 10
147.5
 20
-229.875
 11
147.5
 21
-225
  0
LINE
  8
0
 10
147.5
 20
-225
 11
205
 21
-225
  0
LINE
  8
0
 10
205
 20
-225
 11
205
 21
-185
  0
LINE
  8
0
 10
205
 20
-185
 11
225
 21
-185
  0
LINE
  8
0
 10
225
 20
-185
 11
225
 21
-147.5
  0
LINE
  8
0
 10
225
 20
-147.5
 11
229.875
 21
-147.5
  0
LINE
  8
0
 10
229.875
 20
-147.5
 11
231.5
 21
-145.875
  0
LINE
  8
0
 10
231.5
 20
-145.875
 11
231.5
 21
-134.125
  0
LINE
  8
0
 10
231.5
 20
-134.125
 11
229.875
 21
-132.5
  0
LINE
  8
0
 10
229.875
 20
-132.5
 11
225
 21
-132.5
  0
LINE
  8
0
 10
225
 20
-132.5
 11
225
 21
-127.8
  0
LINE
  8
0
 10
225
 20
-127.8
 11
218.1
 21
-127.8
  0
LINE
  8
0
 10
218.1
 20
-127.8
 11
218.1
 21
-129.595
  0
LINE
  8
0
 10
218.1
 20
-129.595
 11
212.4
 21
-129.595
  0
LINE
  8
0
 10
212.4
 20
-129.595
 11
212.4
 21
-127.8
  0
LINE
  8
0
 10
212.4
 20
-127.8
 11
205.5
 21
-127.8
  0
LINE
  8
0
 10
205.5
 20
-127.8
 11
205.5
 21
-122.2
  0
LINE
  8
0
 10
205.5
 20
-122.2
 11
212.4
 21
-122.2
  0
LINE
  8
0
 10
212.4
 20
-122.2
 11
212.4
 21
-120.405
  0
LINE
  8
0
 10
212.4
 20
-120.405
 11
218.1
 21
-120.405
  0
LINE
  8
0
 10
218.1
 20
-120.405
 11
218.1
 21
-122.2
  0
LINE
  8
0
 10
218.1
 20
-122.2
 11
225
 21
-122.2
  0
LINE
  8
0
 10
225
 20
-122.2
 11
225
 21
-117.5
  0
LINE
  8
0
 10
225
 20
-117.5
 11
229.875
 21
-117.5
  0
LINE
  8
0
 10
229.875
 20
-117.5
 11
231.5
 21
-115.875
  0
LINE
  8
0
 10
231.5
 20
-115.875
 11
231.5
 21
-104.125
  0
LINE
  8
0
 10
231.5
 20
-104.125
 11
229.875
 21
-102.5
  0
LINE
  8
0
 10
229.875
 20
-102.5
 11
225
 21
-102.5
  0
LINE
  8
0
 10
225
 20
-102.5
 11
225
 21
102.5
  0
LINE
  8
0
 10
225
 20
102.5
 11
229.875
 21
102.5
  0
LINE
  8
0
 10
229.875
 20
102.5
 11
231.5
 21
104.125
  0
LINE
  8
0
 10
231.5
 20
104.125
 11
231.5
 21
115.875
  0
LINE
  8
0
 10
231.5
 20
115.875
 11
229.875
 21
117.5
  0
LINE
  8
0
 10
229.875
 20
117.5
 11
225
 21
117.5
  0
LINE
  8
0
 10
225
 20
117.5
 11
225
 21
122.2
  0
LINE
  8
0
 10
225
 20
122.2
 11
218.1
 21
122.2
  0
LINE
  8
0
 10
218.1
 20
122.2
 11
218.1
 21
120.405
  0
LINE
  8
0
 10
218.1
 20
120.405
 11
212.4
 21
120.405
  0
LINE
  8
0
 10
212.4
 20
120.405
 11
212.4
 21
122.2
  0
LINE
  8
0
 10
212.4
 20
122.2
 11
205.5
 21
122.2
  0
LINE
  8
0
 10
205.5
 20
122.2
 11
205.5
 21
127.8
  0
LINE
  8
0
 10
205.5
 20
127.8
 11
212.4
 21
127.8
  0
LINE
  8
0
 10
212.4
 20
127.8
 11
212.4
 21
129.595
  0
LINE
  8
0
 10
212.4
 20
129.595
 11
218.1
 21
129.595
  0
LINE
  8
0
 10
218.1
 20
129.595
 11
218.1
 21
127.8
  0
LINE
  8
0
 10
218.1
 20
127.8
 11
225
 21
127.8
  0
LINE
  8
0
 10
225
 20
127.8
 11
225
 21
132.5
  0
LINE
  8
0
 10
225
 20
132.5
 11
229.875
 21
132.5
  0
LINE
  8
0
 10
229.875
 20
132.5
 11
231.5
 21
134.125
  0
LINE
  8
0
 10
231.5
 20
134.125
 11
231.5
 21
145.875
  0
LINE
  8
0
 10
231.5
 20
145.875
 11
229.875
 21
147.5
  0
LINE
  8
0
 10
229.875
 20
147.5
 11
225
 21
147.5
  0
LINE
  8
0
 10
225
 20
147.5
 11
225
 21
185
  0
LINE
  8
0
 10
225
 20
185
 11
205
 21
185
  0
LINE
  8
0
 10
205
 20
185
 11
205
 21
225
  0
LINE
  8
0
 10
205
 20
225
 11
147.5
 21
225
  0
LINE
  8
0
 10
147.5
 20
225
 11
147.5
 21
229.875
  0
LINE
  8
0
 10
147.5
 20
229.875
 11
145.875
 21
231.5
  0
LINE
  8
0
 10
145.875
 20
231.5
 11
134.125
 21
231.5
  0
LINE
  8
0
 10
134.125
 20
231.5
 11
132.5
 21
229.875
  0
LINE
  8
0
 10
132.5
 20
229.875
 11
132.5
 21
225
  0
LINE
  8
0
 10
132.5
 20
225
 11
127.8
 21
225
  0
LINE
  8
0
 10
127.8
 20
225
 11
127.8
 21
218.1
  0
LINE
  8
0
 10
127.8
 20
218.1
 11
129.595
 21
218.1
  0
LINE
  8
0
 10
129.595
 20
218.1
 11
129.595
 21
212.4
  0
LINE
  8
0
 10
129.595
 20
212.4
 11
127.8
 21
212.4
  0
LINE
  8
0
 10
127.8
 20
212.4
 11
127.8
 21
205.5
  0
LINE
  8
0
 10
127.8
 20
205.5
 11
122.2
 21
205.5
  0
LINE
  8
0
 10
122.2
 20
205.5
 11
122.2
 21
212.4
  0
LINE
  8
0
 10
122.2
 20
212.4
 11
120.405
 21
212.4
  0
LINE
  8
0
 10
120.405
 20
212.4
 11
120.405
 21
218.1
  0
LINE
  8
0
 10
120.405
 20
218.1
 11
122.2
 21
218.1
  0
LINE
  8
0
 10
122.2
 20
218.1
 11
122.2
 21
225
  0
LINE
  8
0
 10
122.2
 20
225
 11
117.5
 21
225
  0
LINE
  8
0
 10
117.5
 20
225
 11
117.5
 21
229.875
  0
LINE
  8
0
 10
117.5
 20
229.875
 11
115.875
 21
231.5
  0
LINE
  8
0
 10
115.875
 20
231.5
 11
104.125
 21
231.5
  0
LINE
  8
0
 10
104.125
 20
231.5
 11
102.5
 21
229.875
  0
LINE
  8
0
 10
102.5
 20
229.875
 11
102.5
 21
225
  0
LINE
  8
0
 10
102.5
 20
225
 11
-102.5
 21
225
  0
LINE
  8
0
 10
-102.5
 20
225
 11
-102.5
 21
229.875
  0
LINE
  8
0
 10
-102.5
 20
229.875
 11
-104.125
 21
231.5
  0
LINE
  8
0
 10
-104.125
 20
231.5
 11
-115.875
 21
231.5
  0
LINE
  8
0
 10
-115.875
 20
231.5
 11
-117.5
 21
229.875
  0
LINE
  8
0
 10
-117.5
 20
229.875
 11
-117.5
 21
225
  0
LINE
  8
0
 10
-117.5
 20
225
 11
-122.2
 21
225
  0
LINE
  8
0
 10
-122.2
 20
225
 11
-122.2
 21
218.1
  0
LINE
  8
0
 10
-122.2
 20
218.1
 11
-120.405
 21
218.1
  0
LINE
  8
0
 10
-120.405
 20
218.1
 11
-120.405
 21
212.4
  0
LINE
  8
0
 10
-120.405
 20
212.4
 11
-122.2
 21
212.4
  0
LINE
  8
0
 10
-122.2
 20
212.4
 11
-122.2
 21
205.5
  0
LINE
  8
0
 10
-122.2
 20
205.5
 11
-127.8
 21
205.5
  0
LINE
  8
0
 10
-127.8
 20
205.5
 11
-127.8
 21
212.4
  0
LINE
  8
0
 10
-127.8
 20
212.4
 11
-129.595
 21
212.4
  0
LINE
  8
0
 10
-129.595
 20
212.4
 11
-129.595
 21
218.1
  0
LINE
  8
0
 10
-129.595
 20
218.1
 11
-127.8
 21
218.1
  0
LINE
  8
0
 10
-127.8
 20
218.1
 11
-127.8
 21
225
  0
LINE
  8
0
 10
-127.8
 20
225
 11
-132.5
 21
225
  0
LINE
  8
0
 10
-132.5
 20
225
 11
-132.5
 21
229.875
  0
LINE
  8
0
 10
-132.5
 20
229.875
 11
-134.125
 21
231.5
  0
LINE
  8
0
 10
-134.125
 20
231.5
 11
-145.875
 21
231.5
  0
LINE
  8
0
 10
-145.875
 20
231.5
 11
-147.5
 21
229.875
  0
LINE
  8
0
 10
-147.5
 20
229.875
 11
-147.5
 21
225
  0
LINE
  8
0
 10
-147.5
 20
225
 11
-205
 21
225
  0
LINE
  8
0
 10
-205
 20
225
 11
-205
 21
185
  0
LINE
  8
0
 10
-205
 20
185
 11
-225
 21
185
  0
LINE
  8
0
 10
-225
 20
185
 11
-225
 21
147.5
  0
LINE
  8
0
 10
-225
 20
147.5
 11
-229.875
 21
147.5
  0
LINE
  8
0
 10
-229.875
 20
147.5
 11
-231.5
 21
145.875
  0
LINE
  8
0
 10
-231.5
 20
145.875
 11
-231.5
 21
134.125
  0
LINE
  8
0
 10
-231.5
 20
134.125
 11
-229.875
 21
132.5
  0
LINE
  8
0
 10
-229.875
 20
132.5
 11
-225
 21
132.5
  0
LINE
  8
0
 10
-225
 20
132.5
 11
-225
 21
127.8
  0
LINE
  8
0
 10
-225
 20
127.8
 11
-218.1
 21
127.8
  0
LINE
  8
0
 10
-218.1
 20
127.8
 11
-218.1
 21
129.595
  0
LINE
  8
0
 10
-218.1
 20
129.595
 11
-212.4
 21
129.595
  0
LINE
  8
0
 10
-212.4
 20
129.595
 11
-212.4
 21
127.8
  0
LINE
  8
0
 10
-212.4
 20
127.8
 11
-205.5
 21
127.8
  0
LINE
  8
0
 10
-205.5
 20
127.8
 11
-205.5
 21
122.2
  0
LINE
  8
0
 10
-205.5
 20
122.2
 11
-212.4
 21
122.2
  0
LINE
  8
0
 10
-212.4
 20
122.2
 11
-212.4
 21
120.405
  0
LINE
  8
0
 10
-212.4
 20
120.405
 11
-218.1
 21
120.405
  0
LINE
  8
0
 10
-218.1
 20
120.405
 11
-218.1
 21
122.2
  0
LINE
  8
0
 10
-218.1
 20
122.2
 11
-225
 21
122.2
  0
LINE
  8
0
 10
-225
 20
122.2
 11
-225
 21
117.5
  0
LINE
  8
0
 10
-225
 20
117.5
 11
-229.875
 21
117.5
  0
LINE
  8
0
 10
-229.875
 20
117.5
 11
-231.5
 21
115.875
  0
LINE
  8
0
 10
-231.5
 20
115.875
 11
-231.5
 21
104.125
  0
LINE
  8
0
 10
-231.5
 20
104.125
 11
-229.875
 21
102.5
  0
LINE
  8
0
 10
-229.875
 20
102.5
 11
-225
 21
102.5
  0
LINE
  8
0
 10
-225
 20
102.5
 11
-225
 21
-102.5
  0
LINE
  8
0
 10
-225
 20
-102.5
 11
-229.875
 21
-102.5
  0
LINE
  8
0
 10
-229.875
 20
-102.5
 11
-231.5
 21
-104.125
  0
LINE
  8
0
 10
-231.5
 20
-104.125
 11
-231.5
 21
-115.875
  0
LINE
  8
0
 10
-231.5
 20
-115.875
 11
-229.875
 21
-117.5
  0
LINE
  8
0
 10
-229.875
 20
-117.5
 11
-225
 21
-117.5
  0
LINE
  8
0
 10
-225
 20
-117.5
 11
-225
 21
-122.2
  0
LINE
  8
0
 10
-225
 20
-122.2
 11
-218.1
 21
-122.2
  0
LINE
  8
0
 10
-218.1
 20
-122.2
 11
-218.1
 21
-120.405
  0
LINE
  8
0
 10
-218.1
 20
-120.405
 11
-212.4
 21
-120.405
  0
LINE
  8
0
 10
-212.4
 20
-120.405
 11
-212.4
 21
-122.2
  0
LINE
  8
0
 10
-212.4
 20
-122.2
 11
-205.5
 21
-122.2
  0
LINE
  8
0
 10
-205.5
 20
-122.2
 11
-205.5
 21
-127.8
  0
LINE
  8
0
 10
-205.5
 20
-127.8
 11
-212.4
 21
-127.8
  0
LINE
  8
0
 10
-212.4
 20
-127.8
 11
-212.4
 21
-129.595
  0
LINE
  8
0
 10
-212.4
 20
-129.595
 11
-218.1
 21
-129.595
  0
LINE
  8
0
 10
-218.1
 20
-129.595
 11
-218.1
 21
-127.8
  0
LINE
  8
0
 10
-218.1
 20
-127.8
 11
-225
 21
-127.8
  0
LINE
  8
0
 10
-225
 20
-127.8
 11
-225
 21
-132.5
  0
LINE
  8
0
 10
-225
 20
-132.5
 11
-229.875
 21
-132.5
  0
LINE
  8
0
 10
-229.875
 20
-132.5
 11
-231.5
 21
-134.125
  0
LINE
  8
0
 10
-231.5
 20
-134.125
 11
-231.5
 21
-145.875
  0
LINE
  8
0
 10
-231.5
 20
-145.875
 11
-229.875
 21
-147.5
  0
LINE
  8
0
 10
-229.875
 20
-147.5
 11
-225
 21
-147.5
  0
LINE
  8
0
 10
-225
 20
-147.5
 11
-225
 21
-185
  0
LINE
  8
0
 10
-225
 20
-185
 11
-205
 21
-185
  0
LINE
  8
0
 10
-205
 20
-185
 11
-205
 21
-225
  0
LINE
  8
0
 10
-205
 20
-225
 11
-147.5
 21
-225
  0
LINE
  8
0
 10
-147.5
 20
-225
 11
-147.5
 21
-229.875
  0
LINE
  8
0
 10
-147.5
 20
-229.875
 11
-145.875
 21
-231.5
  0
LINE
  8
0
 10
-145.875
 20
-231.5
 11
-134.125
 21
-231.5
  0
LINE
  8
0
 10
-134.125
 20
-231.5
 11
-132.5
 21
-229.875
  0
LINE
  8
0
 10
-175.925
 20
71.825
 11
-175.925
 21
78.175
  0
LINE
  8
0
 10
-175.925
 20
78.175
 11
-132.075
 21
78.175
  0
LINE
  8
0
 10
-132.075
 20
78.175
 11
-132.075
 21
71.825
  0
LINE
  8
0
 10
-132.075
 20
71.825
 11
-175.925
 21
71.825
  0
LINE
  8
0
 10
-87.925
 20
71.825
 11
-87.925
 21
78.175
  0
LINE
  8
0
 10
-87.925
 20
78.175
 11
-44.075
 21
78.175
  0
LINE
  8
0
 10
-44.075
 20
78.175
 11
-44.075
 21
71.825
  0
LINE
  8
0
 10
-44.075
 20
71.825
 11
-87.925
 21
71.825
  0
LINE
  8
0
 10
0.0749969
 20
71.825
 11
0.0749969
 21
78.175
  0
LINE
  8
0
 10
0.0749969
 20
78.175
 11
43.925
 21
78.175
  0
LINE
  8
0
 10
43.925
 20
78.175
 11
43.925
 21
71.825
  0
LINE
  8
0
 10
43.925
 20
71.825
 11
0.0749969
 21
71.825
  0
LINE
  8
0
 10
88.075
 20
71.825
 11
88.075
 21
78.175
  0
LINE
  8
0
 10
88.075
 20
78.175
 11
131.925
 21
78.175
  0
LINE
  8
0
 10
131.925
 20
78.175
 11
131.925
 21
71.825
  0
LINE
  8
0
 10
131.925
 20
71.825
 11
88.075
 21
71.825
  0
LINE
  8
0
 10
176.075
 20
71.825
 11
176.075
 21
78.175
  0
LINE
  8
0
 10
176.075
 20
78.175
 11
219.925
 21
78.175
  0
LINE
  8
0
 10
219.925
 20
78.175
 11
219.925
 21
71.825
  0
LINE
  8
0
 10
219.925
 20
71.825
 11
176.075
 21
71.825
  0
LINE
  8
0
 10
-4.50484
 20
-2.16942
 11
-4.50484
 21
2.16942
  0
LINE
  8
0
 10
-4.50484
 20
2.16942
 11
-1.11259
 21
4.87463
  0
LINE
  8
0
 10
-1.11259
 20
4.87463
 11
3.11745
 21
3.90915
  0
LINE
  8
0
 10
3.11745
 20
3.90915
 11
5
 21
0
  0
LINE
  8
0
 10
5
 20
0
 11
3.11745
 21
-3.90915
  0
LINE
  8
0
 10
3.11745
 20
-3.90915
 11
-1.11259
 21
-4.87463
  0
LINE
  8
0
 10
-1.11259
 20
-4.87463
 11
-4.50484
 21
-2.16942
  0
LINE
  8
0
 10
176.075
 20
-78.175
 11
176.075
 21
-71.825
  0
LINE
  8
0
 10
176.075
 20
-71.825
 11
219.925
 21
-71.825
  0
LINE
  8
0
 10
219.925
 20
-71.825
 11
219.925
 21
-78.175
  0
LINE
  8
0
 10
219.925
 20
-78.175
 11
176.075
 21
-78.175
  0
LINE
  8
0
 10
-175.925
 20
-78.175
 11
-175.925
 21
-71.825
  0
LINE
  8
0
 10
-175.925
 20
-71.825
 11
-132.075
 21
-71.825
  0
LINE
  8
0
 10
-132.075
 20
-71.825
 11
-132.075
 21
-78.175
  0
LINE
  8
0
 10
-132.075
 20
-78.175
 11
-175.925
 21
-78.175
  0
LINE
  8
0
 10
88.075
 20
-78.175
 11
88.075
 21
-71.825
  0
LINE
  8
0
 10
88.075
 20
-71.825
 11
131.925
 21
-71.825
  0
LINE
  8
0
 10
131.925
 20
-71.825
 11
131.925
 21
-78.175
  0
LINE
  8
0
 10
131.925
 20
-78.175
 11
88.075
 21
-78.175
  0
LINE
  8
0
 10
0.0749969
 20
-78.175
 11
0.0749969
 21
-71.825
  0
LINE
  8
0
 10
0.0749969
 20
-71.825
 11
43.925
 21
-71.825
  0
LINE
  8
0
 10
43.925
 20
-71.825
 11
43.925
 21
-78.175
  0
LINE
  8
0
 10
43.925
 20
-78.175
 11
0.0749969
 21
-78.175
  0
LINE
  8
0
 10
-87.925
 20
-78.175
 11
-87.925
 21
-71.825
  0
LINE
  8
0
 10
-87.925
 20
-71.825
 11
-44.075
 21
-71.825
  0
LINE
  8
0
 10
-44.075
 20
-71.825
 11
-44.075
 21
-78.175
  0
LINE
  8
0
 10
-44.075
 20
-78.175
 11
-87.925
 21
-78.175
  0
ENDSEC
  0
SECTION
  2
OBJECTS
  0
DICTIONARY
  0
ENDSEC
  0
EOF
