  0
SECTION
  2
BLOCKS
  0
ENDSEC
  0
SECTION
  2
ENTITIES
  0
LINE
  8
0
 10
147.4
 20
238.1
 11
148.95
 21
238.1
  0
LINE
  8
0
 10
148.95
 20
238.1
 11
148.95
 21
232.4
  0
LINE
  8
0
 10
148.95
 20
232.4
 11
147.4
 21
232.4
  0
LINE
  8
0
 10
147.4
 20
232.4
 11
147.4
 21
225.5
  0
LINE
  8
0
 10
147.4
 20
225.5
 11
142.6
 21
225.5
  0
LINE
  8
0
 10
142.6
 20
225.5
 11
142.6
 21
232.4
  0
LINE
  8
0
 10
142.6
 20
232.4
 11
141.05
 21
232.4
  0
LINE
  8
0
 10
141.05
 20
232.4
 11
141.05
 21
238.1
  0
LINE
  8
0
 10
141.05
 20
238.1
 11
142.6
 21
238.1
  0
LINE
  8
0
 10
142.6
 20
238.1
 11
142.6
 21
245
  0
LINE
  8
0
 10
142.6
 20
245
 11
137.5
 21
245
  0
LINE
  8
0
 10
137.5
 20
245
 11
137.5
 21
249.875
  0
LINE
  8
0
 10
137.5
 20
249.875
 11
135.875
 21
251.5
  0
LINE
  8
0
 10
135.875
 20
251.5
 11
124.125
 21
251.5
  0
LINE
  8
0
 10
124.125
 20
251.5
 11
122.5
 21
249.875
  0
LINE
  8
0
 10
122.5
 20
249.875
 11
122.5
 21
245
  0
LINE
  8
0
 10
122.5
 20
245
 11
22.5
 21
245
  0
LINE
  8
0
 10
22.5
 20
245
 11
22.5
 21
249.875
  0
LINE
  8
0
 10
22.5
 20
249.875
 11
20.875
 21
251.5
  0
LINE
  8
0
 10
20.875
 20
251.5
 11
9.125
 21
251.5
  0
LINE
  8
0
 10
9.125
 20
251.5
 11
7.5
 21
249.875
  0
LINE
  8
0
 10
7.5
 20
249.875
 11
7.5
 21
245
  0
LINE
  8
0
 10
7.5
 20
245
 11
2.39999
 21
245
  0
LINE
  8
0
 10
2.39999
 20
245
 11
2.39999
 21
238.1
  0
LINE
  8
0
 10
2.39999
 20
238.1
 11
3.95
 21
238.1
  0
LINE
  8
0
 10
3.95
 20
238.1
 11
3.95
 21
232.4
  0
LINE
  8
0
 10
3.95
 20
232.4
 11
2.39999
 21
232.4
  0
LINE
  8
0
 10
2.39999
 20
232.4
 11
2.39999
 21
225.5
  0
LINE
  8
0
 10
2.39999
 20
225.5
 11
-2.39999
 21
225.5
  0
LINE
  8
0
 10
-2.39999
 20
225.5
 11
-2.39999
 21
232.4
  0
LINE
  8
0
 10
-2.39999
 20
232.4
 11
-3.95
 21
232.4
  0
LINE
  8
0
 10
-3.95
 20
232.4
 11
-3.95
 21
238.1
  0
LINE
  8
0
 10
-3.95
 20
238.1
 11
-2.39999
 21
238.1
  0
LINE
  8
0
 10
-2.39999
 20
238.1
 11
-2.39999
 21
245
  0
LINE
  8
0
 10
-2.39999
 20
245
 11
-7.5
 21
245
  0
LINE
  8
0
 10
-7.5
 20
245
 11
-7.5
 21
249.875
  0
LINE
  8
0
 10
-7.5
 20
249.875
 11
-9.125
 21
251.5
  0
LINE
  8
0
 10
-9.125
 20
251.5
 11
-20.875
 21
251.5
  0
LINE
  8
0
 10
-20.875
 20
251.5
 11
-22.5
 21
249.875
  0
LINE
  8
0
 10
-22.5
 20
249.875
 11
-22.5
 21
245
  0
LINE
  8
0
 10
-22.5
 20
245
 11
-122.5
 21
245
  0
LINE
  8
0
 10
-122.5
 20
245
 11
-122.5
 21
249.875
  0
LINE
  8
0
 10
-122.5
 20
249.875
 11
-124.125
 21
251.5
  0
LINE
  8
0
 10
-124.125
 20
251.5
 11
-135.875
 21
251.5
  0
LINE
  8
0
 10
-135.875
 20
251.5
 11
-137.5
 21
249.875
  0
LINE
  8
0
 10
-137.5
 20
249.875
 11
-137.5
 21
245
  0
LINE
  8
0
 10
-137.5
 20
245
 11
-142.6
 21
245
  0
LINE
  8
0
 10
-142.6
 20
245
 11
-142.6
 21
238.1
  0
LINE
  8
0
 10
-142.6
 20
238.1
 11
-141.05
 21
238.1
  0
LINE
  8
0
 10
-141.05
 20
238.1
 11
-141.05
 21
232.4
  0
LINE
  8
0
 10
-141.05
 20
232.4
 11
-142.6
 21
232.4
  0
LINE
  8
0
 10
-142.6
 20
232.4
 11
-142.6
 21
225.5
  0
LINE
  8
0
 10
-142.6
 20
225.5
 11
-147.4
 21
225.5
  0
LINE
  8
0
 10
-147.4
 20
225.5
 11
-147.4
 21
232.4
  0
LINE
  8
0
 10
-147.4
 20
232.4
 11
-148.95
 21
232.4
  0
LINE
  8
0
 10
-148.95
 20
232.4
 11
-148.95
 21
238.1
  0
LINE
  8
0
 10
-148.95
 20
238.1
 11
-147.4
 21
238.1
  0
LINE
  8
0
 10
-147.4
 20
238.1
 11
-147.4
 21
245
  0
LINE
  8
0
 10
-147.4
 20
245
 11
-152.5
 21
245
  0
LINE
  8
0
 10
-152.5
 20
245
 11
-152.5
 21
249.875
  0
LINE
  8
0
 10
-152.5
 20
249.875
 11
-154.125
 21
251.5
  0
LINE
  8
0
 10
-154.125
 20
251.5
 11
-165.875
 21
251.5
  0
LINE
  8
0
 10
-165.875
 20
251.5
 11
-167.5
 21
249.875
  0
LINE
  8
0
 10
-167.5
 20
249.875
 11
-167.5
 21
245
  0
LINE
  8
0
 10
-167.5
 20
245
 11
-225
 21
245
  0
LINE
  8
0
 10
-225
 20
245
 11
-225
 21
239.25
  0
LINE
  8
0
 10
-225
 20
239.25
 11
-223
 21
239.25
  0
LINE
  8
0
 10
-223
 20
239.25
 11
-223
 21
230.75
  0
LINE
  8
0
 10
-223
 20
230.75
 11
-225
 21
230.75
  0
LINE
  8
0
 10
-225
 20
230.75
 11
-225
 21
205
  0
LINE
  8
0
 10
-225
 20
205
 11
-245
 21
205
  0
LINE
  8
0
 10
-245
 20
205
 11
-245
 21
167.5
  0
LINE
  8
0
 10
-245
 20
167.5
 11
-249.875
 21
167.5
  0
LINE
  8
0
 10
-249.875
 20
167.5
 11
-251.5
 21
165.875
  0
LINE
  8
0
 10
-251.5
 20
165.875
 11
-251.5
 21
154.125
  0
LINE
  8
0
 10
-251.5
 20
154.125
 11
-249.875
 21
152.5
  0
LINE
  8
0
 10
-249.875
 20
152.5
 11
-245
 21
152.5
  0
LINE
  8
0
 10
-245
 20
152.5
 11
-245
 21
147.4
  0
LINE
  8
0
 10
-245
 20
147.4
 11
-238.1
 21
147.4
  0
LINE
  8
0
 10
-238.1
 20
147.4
 11
-238.1
 21
148.95
  0
LINE
  8
0
 10
-238.1
 20
148.95
 11
-232.4
 21
148.95
  0
LINE
  8
0
 10
-232.4
 20
148.95
 11
-232.4
 21
147.4
  0
LINE
  8
0
 10
-232.4
 20
147.4
 11
-225.5
 21
147.4
  0
LINE
  8
0
 10
-225.5
 20
147.4
 11
-225.5
 21
142.6
  0
LINE
  8
0
 10
-225.5
 20
142.6
 11
-232.4
 21
142.6
  0
LINE
  8
0
 10
-232.4
 20
142.6
 11
-232.4
 21
141.05
  0
LINE
  8
0
 10
-232.4
 20
141.05
 11
-238.1
 21
141.05
  0
LINE
  8
0
 10
-238.1
 20
141.05
 11
-238.1
 21
142.6
  0
LINE
  8
0
 10
-238.1
 20
142.6
 11
-245
 21
142.6
  0
LINE
  8
0
 10
-245
 20
142.6
 11
-245
 21
137.5
  0
LINE
  8
0
 10
-245
 20
137.5
 11
-249.875
 21
137.5
  0
LINE
  8
0
 10
-249.875
 20
137.5
 11
-251.5
 21
135.875
  0
LINE
  8
0
 10
-251.5
 20
135.875
 11
-251.5
 21
124.125
  0
LINE
  8
0
 10
-251.5
 20
124.125
 11
-249.875
 21
122.5
  0
LINE
  8
0
 10
-249.875
 20
122.5
 11
-245
 21
122.5
  0
LINE
  8
0
 10
-245
 20
122.5
 11
-245
 21
22.5
  0
LINE
  8
0
 10
-245
 20
22.5
 11
-249.875
 21
22.5
  0
LINE
  8
0
 10
-249.875
 20
22.5
 11
-251.5
 21
20.875
  0
LINE
  8
0
 10
-251.5
 20
20.875
 11
-251.5
 21
9.125
  0
LINE
  8
0
 10
-251.5
 20
9.125
 11
-249.875
 21
7.5
  0
LINE
  8
0
 10
-249.875
 20
7.5
 11
-245
 21
7.5
  0
LINE
  8
0
 10
-245
 20
7.5
 11
-245
 21
2.39999
  0
LINE
  8
0
 10
-245
 20
2.39999
 11
-238.1
 21
2.39999
  0
LINE
  8
0
 10
-238.1
 20
2.39999
 11
-238.1
 21
3.95
  0
LINE
  8
0
 10
-238.1
 20
3.95
 11
-232.4
 21
3.95
  0
LINE
  8
0
 10
-232.4
 20
3.95
 11
-232.4
 21
2.39999
  0
LINE
  8
0
 10
-232.4
 20
2.39999
 11
-225.5
 21
2.39999
  0
LINE
  8
0
 10
-225.5
 20
2.39999
 11
-225.5
 21
-2.39999
  0
LINE
  8
0
 10
-225.5
 20
-2.39999
 11
-232.4
 21
-2.39999
  0
LINE
  8
0
 10
-232.4
 20
-2.39999
 11
-232.4
 21
-3.95
  0
LINE
  8
0
 10
-232.4
 20
-3.95
 11
-238.1
 21
-3.95
  0
LINE
  8
0
 10
-238.1
 20
-3.95
 11
-238.1
 21
-2.39999
  0
LINE
  8
0
 10
-238.1
 20
-2.39999
 11
-245
 21
-2.39999
  0
LINE
  8
0
 10
-245
 20
-2.39999
 11
-245
 21
-7.5
  0
LINE
  8
0
 10
-245
 20
-7.5
 11
-249.875
 21
-7.5
  0
LINE
  8
0
 10
-249.875
 20
-7.5
 11
-251.5
 21
-9.125
  0
LINE
  8
0
 10
-251.5
 20
-9.125
 11
-251.5
 21
-20.875
  0
LINE
  8
0
 10
-251.5
 20
-20.875
 11
-249.875
 21
-22.5
  0
LINE
  8
0
 10
-249.875
 20
-22.5
 11
-245
 21
-22.5
  0
LINE
  8
0
 10
-245
 20
-22.5
 11
-245
 21
-122.5
  0
LINE
  8
0
 10
-245
 20
-122.5
 11
-249.875
 21
-122.5
  0
LINE
  8
0
 10
-249.875
 20
-122.5
 11
-251.5
 21
-124.125
  0
LINE
  8
0
 10
-251.5
 20
-124.125
 11
-251.5
 21
-135.875
  0
LINE
  8
0
 10
-251.5
 20
-135.875
 11
-249.875
 21
-137.5
  0
LINE
  8
0
 10
-249.875
 20
-137.5
 11
-245
 21
-137.5
  0
LINE
  8
0
 10
-245
 20
-137.5
 11
-245
 21
-142.6
  0
LINE
  8
0
 10
-245
 20
-142.6
 11
-238.1
 21
-142.6
  0
LINE
  8
0
 10
-238.1
 20
-142.6
 11
-238.1
 21
-141.05
  0
LINE
  8
0
 10
-238.1
 20
-141.05
 11
-232.4
 21
-141.05
  0
LINE
  8
0
 10
-232.4
 20
-141.05
 11
-232.4
 21
-142.6
  0
LINE
  8
0
 10
-232.4
 20
-142.6
 11
-225.5
 21
-142.6
  0
LINE
  8
0
 10
-225.5
 20
-142.6
 11
-225.5
 21
-147.4
  0
LINE
  8
0
 10
-225.5
 20
-147.4
 11
-232.4
 21
-147.4
  0
LINE
  8
0
 10
-232.4
 20
-147.4
 11
-232.4
 21
-148.95
  0
LINE
  8
0
 10
-232.4
 20
-148.95
 11
-238.1
 21
-148.95
  0
LINE
  8
0
 10
-238.1
 20
-148.95
 11
-238.1
 21
-147.4
  0
LINE
  8
0
 10
-238.1
 20
-147.4
 11
-245
 21
-147.4
  0
LINE
  8
0
 10
-245
 20
-147.4
 11
-245
 21
-152.5
  0
LINE
  8
0
 10
-245
 20
-152.5
 11
-249.875
 21
-152.5
  0
LINE
  8
0
 10
-249.875
 20
-152.5
 11
-251.5
 21
-154.125
  0
LINE
  8
0
 10
-251.5
 20
-154.125
 11
-251.5
 21
-165.875
  0
LINE
  8
0
 10
-251.5
 20
-165.875
 11
-249.875
 21
-167.5
  0
LINE
  8
0
 10
-249.875
 20
-167.5
 11
-245
 21
-167.5
  0
LINE
  8
0
 10
-245
 20
-167.5
 11
-245
 21
-205
  0
LINE
  8
0
 10
-245
 20
-205
 11
-225
 21
-205
  0
LINE
  8
0
 10
-225
 20
-205
 11
-225
 21
-245
  0
LINE
  8
0
 10
-225
 20
-245
 11
-167.5
 21
-245
  0
LINE
  8
0
 10
-167.5
 20
-245
 11
-167.5
 21
-249.875
  0
LINE
  8
0
 10
-167.5
 20
-249.875
 11
-165.875
 21
-251.5
  0
LINE
  8
0
 10
-165.875
 20
-251.5
 11
-154.125
 21
-251.5
  0
LINE
  8
0
 10
-154.125
 20
-251.5
 11
-152.5
 21
-249.875
  0
LINE
  8
0
 10
-152.5
 20
-249.875
 11
-152.5
 21
-245
  0
LINE
  8
0
 10
-152.5
 20
-245
 11
-147.4
 21
-245
  0
LINE
  8
0
 10
-147.4
 20
-245
 11
-147.4
 21
-238.1
  0
LINE
  8
0
 10
-147.4
 20
-238.1
 11
-148.95
 21
-238.1
  0
LINE
  8
0
 10
-148.95
 20
-238.1
 11
-148.95
 21
-232.4
  0
LINE
  8
0
 10
-148.95
 20
-232.4
 11
-147.4
 21
-232.4
  0
LINE
  8
0
 10
-147.4
 20
-232.4
 11
-147.4
 21
-225.5
  0
LINE
  8
0
 10
-147.4
 20
-225.5
 11
-142.6
 21
-225.5
  0
LINE
  8
0
 10
-142.6
 20
-225.5
 11
-142.6
 21
-232.4
  0
LINE
  8
0
 10
-142.6
 20
-232.4
 11
-141.05
 21
-232.4
  0
LINE
  8
0
 10
-141.05
 20
-232.4
 11
-141.05
 21
-238.1
  0
LINE
  8
0
 10
-141.05
 20
-238.1
 11
-142.6
 21
-238.1
  0
LINE
  8
0
 10
-142.6
 20
-238.1
 11
-142.6
 21
-245
  0
LINE
  8
0
 10
-142.6
 20
-245
 11
-137.5
 21
-245
  0
LINE
  8
0
 10
-137.5
 20
-245
 11
-137.5
 21
-249.875
  0
LINE
  8
0
 10
-137.5
 20
-249.875
 11
-135.875
 21
-251.5
  0
LINE
  8
0
 10
-135.875
 20
-251.5
 11
-124.125
 21
-251.5
  0
LINE
  8
0
 10
-124.125
 20
-251.5
 11
-122.5
 21
-249.875
  0
LINE
  8
0
 10
-122.5
 20
-249.875
 11
-122.5
 21
-245
  0
LINE
  8
0
 10
-122.5
 20
-245
 11
-22.5
 21
-245
  0
LINE
  8
0
 10
-22.5
 20
-245
 11
-22.5
 21
-249.875
  0
LINE
  8
0
 10
-22.5
 20
-249.875
 11
-20.875
 21
-251.5
  0
LINE
  8
0
 10
-20.875
 20
-251.5
 11
-9.125
 21
-251.5
  0
LINE
  8
0
 10
-9.125
 20
-251.5
 11
-7.5
 21
-249.875
  0
LINE
  8
0
 10
-7.5
 20
-249.875
 11
-7.5
 21
-245
  0
LINE
  8
0
 10
-7.5
 20
-245
 11
-2.39999
 21
-245
  0
LINE
  8
0
 10
-2.39999
 20
-245
 11
-2.39999
 21
-238.1
  0
LINE
  8
0
 10
-2.39999
 20
-238.1
 11
-3.95
 21
-238.1
  0
LINE
  8
0
 10
-3.95
 20
-238.1
 11
-3.95
 21
-232.4
  0
LINE
  8
0
 10
-3.95
 20
-232.4
 11
-2.39999
 21
-232.4
  0
LINE
  8
0
 10
-2.39999
 20
-232.4
 11
-2.39999
 21
-225.5
  0
LINE
  8
0
 10
-2.39999
 20
-225.5
 11
2.39999
 21
-225.5
  0
LINE
  8
0
 10
2.39999
 20
-225.5
 11
2.39999
 21
-232.4
  0
LINE
  8
0
 10
2.39999
 20
-232.4
 11
3.95
 21
-232.4
  0
LINE
  8
0
 10
3.95
 20
-232.4
 11
3.95
 21
-238.1
  0
LINE
  8
0
 10
3.95
 20
-238.1
 11
2.39999
 21
-238.1
  0
LINE
  8
0
 10
2.39999
 20
-238.1
 11
2.39999
 21
-245
  0
LINE
  8
0
 10
2.39999
 20
-245
 11
7.5
 21
-245
  0
LINE
  8
0
 10
7.5
 20
-245
 11
7.5
 21
-249.875
  0
LINE
  8
0
 10
7.5
 20
-249.875
 11
9.125
 21
-251.5
  0
LINE
  8
0
 10
9.125
 20
-251.5
 11
20.875
 21
-251.5
  0
LINE
  8
0
 10
20.875
 20
-251.5
 11
22.5
 21
-249.875
  0
LINE
  8
0
 10
22.5
 20
-249.875
 11
22.5
 21
-245
  0
LINE
  8
0
 10
22.5
 20
-245
 11
122.5
 21
-245
  0
LINE
  8
0
 10
122.5
 20
-245
 11
122.5
 21
-249.875
  0
LINE
  8
0
 10
122.5
 20
-249.875
 11
124.125
 21
-251.5
  0
LINE
  8
0
 10
124.125
 20
-251.5
 11
135.875
 21
-251.5
  0
LINE
  8
0
 10
135.875
 20
-251.5
 11
137.5
 21
-249.875
  0
LINE
  8
0
 10
137.5
 20
-249.875
 11
137.5
 21
-245
  0
LINE
  8
0
 10
137.5
 20
-245
 11
142.6
 21
-245
  0
LINE
  8
0
 10
142.6
 20
-245
 11
142.6
 21
-238.1
  0
LINE
  8
0
 10
142.6
 20
-238.1
 11
141.05
 21
-238.1
  0
LINE
  8
0
 10
141.05
 20
-238.1
 11
141.05
 21
-232.4
  0
LINE
  8
0
 10
141.05
 20
-232.4
 11
142.6
 21
-232.4
  0
LINE
  8
0
 10
142.6
 20
-232.4
 11
142.6
 21
-225.5
  0
LINE
  8
0
 10
142.6
 20
-225.5
 11
147.4
 21
-225.5
  0
LINE
  8
0
 10
147.4
 20
-225.5
 11
147.4
 21
-232.4
  0
LINE
  8
0
 10
147.4
 20
-232.4
 11
148.95
 21
-232.4
  0
LINE
  8
0
 10
148.95
 20
-232.4
 11
148.95
 21
-238.1
  0
LINE
  8
0
 10
148.95
 20
-238.1
 11
147.4
 21
-238.1
  0
LINE
  8
0
 10
147.4
 20
-238.1
 11
147.4
 21
-245
  0
LINE
  8
0
 10
147.4
 20
-245
 11
152.5
 21
-245
  0
LINE
  8
0
 10
152.5
 20
-245
 11
152.5
 21
-249.875
  0
LINE
  8
0
 10
152.5
 20
-249.875
 11
154.125
 21
-251.5
  0
LINE
  8
0
 10
154.125
 20
-251.5
 11
165.875
 21
-251.5
  0
LINE
  8
0
 10
165.875
 20
-251.5
 11
167.5
 21
-249.875
  0
LINE
  8
0
 10
167.5
 20
-249.875
 11
167.5
 21
-245
  0
LINE
  8
0
 10
167.5
 20
-245
 11
225
 21
-245
  0
LINE
  8
0
 10
225
 20
-245
 11
225
 21
-205
  0
LINE
  8
0
 10
225
 20
-205
 11
245
 21
-205
  0
LINE
  8
0
 10
245
 20
-205
 11
245
 21
-167.5
  0
LINE
  8
0
 10
245
 20
-167.5
 11
249.875
 21
-167.5
  0
LINE
  8
0
 10
249.875
 20
-167.5
 11
251.5
 21
-165.875
  0
LINE
  8
0
 10
251.5
 20
-165.875
 11
251.5
 21
-154.125
  0
LINE
  8
0
 10
251.5
 20
-154.125
 11
249.875
 21
-152.5
  0
LINE
  8
0
 10
249.875
 20
-152.5
 11
245
 21
-152.5
  0
LINE
  8
0
 10
245
 20
-152.5
 11
245
 21
-147.4
  0
LINE
  8
0
 10
245
 20
-147.4
 11
238.1
 21
-147.4
  0
LINE
  8
0
 10
238.1
 20
-147.4
 11
238.1
 21
-148.95
  0
LINE
  8
0
 10
238.1
 20
-148.95
 11
232.4
 21
-148.95
  0
LINE
  8
0
 10
232.4
 20
-148.95
 11
232.4
 21
-147.4
  0
LINE
  8
0
 10
232.4
 20
-147.4
 11
225.5
 21
-147.4
  0
LINE
  8
0
 10
225.5
 20
-147.4
 11
225.5
 21
-142.6
  0
LINE
  8
0
 10
225.5
 20
-142.6
 11
232.4
 21
-142.6
  0
LINE
  8
0
 10
232.4
 20
-142.6
 11
232.4
 21
-141.05
  0
LINE
  8
0
 10
232.4
 20
-141.05
 11
238.1
 21
-141.05
  0
LINE
  8
0
 10
238.1
 20
-141.05
 11
238.1
 21
-142.6
  0
LINE
  8
0
 10
238.1
 20
-142.6
 11
245
 21
-142.6
  0
LINE
  8
0
 10
245
 20
-142.6
 11
245
 21
-137.5
  0
LINE
  8
0
 10
245
 20
-137.5
 11
249.875
 21
-137.5
  0
LINE
  8
0
 10
249.875
 20
-137.5
 11
251.5
 21
-135.875
  0
LINE
  8
0
 10
251.5
 20
-135.875
 11
251.5
 21
-124.125
  0
LINE
  8
0
 10
251.5
 20
-124.125
 11
249.875
 21
-122.5
  0
LINE
  8
0
 10
249.875
 20
-122.5
 11
245
 21
-122.5
  0
LINE
  8
0
 10
245
 20
-122.5
 11
245
 21
-22.5
  0
LINE
  8
0
 10
245
 20
-22.5
 11
249.875
 21
-22.5
  0
LINE
  8
0
 10
249.875
 20
-22.5
 11
251.5
 21
-20.875
  0
LINE
  8
0
 10
251.5
 20
-20.875
 11
251.5
 21
-9.125
  0
LINE
  8
0
 10
251.5
 20
-9.125
 11
249.875
 21
-7.5
  0
LINE
  8
0
 10
249.875
 20
-7.5
 11
245
 21
-7.5
  0
LINE
  8
0
 10
245
 20
-7.5
 11
245
 21
-2.39999
  0
LINE
  8
0
 10
245
 20
-2.39999
 11
238.1
 21
-2.39999
  0
LINE
  8
0
 10
238.1
 20
-2.39999
 11
238.1
 21
-3.95
  0
LINE
  8
0
 10
238.1
 20
-3.95
 11
232.4
 21
-3.95
  0
LINE
  8
0
 10
232.4
 20
-3.95
 11
232.4
 21
-2.39999
  0
LINE
  8
0
 10
232.4
 20
-2.39999
 11
225.5
 21
-2.39999
  0
LINE
  8
0
 10
225.5
 20
-2.39999
 11
225.5
 21
2.39999
  0
LINE
  8
0
 10
225.5
 20
2.39999
 11
232.4
 21
2.39999
  0
LINE
  8
0
 10
232.4
 20
2.39999
 11
232.4
 21
3.95
  0
LINE
  8
0
 10
232.4
 20
3.95
 11
238.1
 21
3.95
  0
LINE
  8
0
 10
238.1
 20
3.95
 11
238.1
 21
2.39999
  0
LINE
  8
0
 10
238.1
 20
2.39999
 11
245
 21
2.39999
  0
LINE
  8
0
 10
245
 20
2.39999
 11
245
 21
7.5
  0
LINE
  8
0
 10
245
 20
7.5
 11
249.875
 21
7.5
  0
LINE
  8
0
 10
249.875
 20
7.5
 11
251.5
 21
9.125
  0
LINE
  8
0
 10
251.5
 20
9.125
 11
251.5
 21
20.875
  0
LINE
  8
0
 10
251.5
 20
20.875
 11
249.875
 21
22.5
  0
LINE
  8
0
 10
249.875
 20
22.5
 11
245
 21
22.5
  0
LINE
  8
0
 10
245
 20
22.5
 11
245
 21
122.5
  0
LINE
  8
0
 10
245
 20
122.5
 11
249.875
 21
122.5
  0
LINE
  8
0
 10
249.875
 20
122.5
 11
251.5
 21
124.125
  0
LINE
  8
0
 10
251.5
 20
124.125
 11
251.5
 21
135.875
  0
LINE
  8
0
 10
251.5
 20
135.875
 11
249.875
 21
137.5
  0
LINE
  8
0
 10
249.875
 20
137.5
 11
245
 21
137.5
  0
LINE
  8
0
 10
245
 20
137.5
 11
245
 21
142.6
  0
LINE
  8
0
 10
245
 20
142.6
 11
238.1
 21
142.6
  0
LINE
  8
0
 10
238.1
 20
142.6
 11
238.1
 21
141.05
  0
LINE
  8
0
 10
238.1
 20
141.05
 11
232.4
 21
141.05
  0
LINE
  8
0
 10
232.4
 20
141.05
 11
232.4
 21
142.6
  0
LINE
  8
0
 10
232.4
 20
142.6
 11
225.5
 21
142.6
  0
LINE
  8
0
 10
225.5
 20
142.6
 11
225.5
 21
147.4
  0
LINE
  8
0
 10
225.5
 20
147.4
 11
232.4
 21
147.4
  0
LINE
  8
0
 10
232.4
 20
147.4
 11
232.4
 21
148.95
  0
LINE
  8
0
 10
232.4
 20
148.95
 11
238.1
 21
148.95
  0
LINE
  8
0
 10
238.1
 20
148.95
 11
238.1
 21
147.4
  0
LINE
  8
0
 10
238.1
 20
147.4
 11
245
 21
147.4
  0
LINE
  8
0
 10
245
 20
147.4
 11
245
 21
152.5
  0
LINE
  8
0
 10
245
 20
152.5
 11
249.875
 21
152.5
  0
LINE
  8
0
 10
249.875
 20
152.5
 11
251.5
 21
154.125
  0
LINE
  8
0
 10
251.5
 20
154.125
 11
251.5
 21
165.875
  0
LINE
  8
0
 10
251.5
 20
165.875
 11
249.875
 21
167.5
  0
LINE
  8
0
 10
249.875
 20
167.5
 11
245
 21
167.5
  0
LINE
  8
0
 10
245
 20
167.5
 11
245
 21
205
  0
LINE
  8
0
 10
245
 20
205
 11
225
 21
205
  0
LINE
  8
0
 10
225
 20
205
 11
225
 21
230.75
  0
LINE
  8
0
 10
225
 20
230.75
 11
223
 21
230.75
  0
LINE
  8
0
 10
223
 20
230.75
 11
223
 21
239.25
  0
LINE
  8
0
 10
223
 20
239.25
 11
225
 21
239.25
  0
LINE
  8
0
 10
225
 20
239.25
 11
225
 21
245
  0
LINE
  8
0
 10
225
 20
245
 11
167.5
 21
245
  0
LINE
  8
0
 10
167.5
 20
245
 11
167.5
 21
249.875
  0
LINE
  8
0
 10
167.5
 20
249.875
 11
165.875
 21
251.5
  0
LINE
  8
0
 10
165.875
 20
251.5
 11
154.125
 21
251.5
  0
LINE
  8
0
 10
154.125
 20
251.5
 11
152.5
 21
249.875
  0
LINE
  8
0
 10
152.5
 20
249.875
 11
152.5
 21
245
  0
LINE
  8
0
 10
152.5
 20
245
 11
147.4
 21
245
  0
LINE
  8
0
 10
147.4
 20
245
 11
147.4
 21
238.1
  0
LINE
  8
0
 10
210
 20
230.75
 11
210
 21
239.25
  0
LINE
  8
0
 10
210
 20
239.25
 11
214
 21
239.25
  0
LINE
  8
0
 10
214
 20
239.25
 11
214
 21
230.75
  0
LINE
  8
0
 10
214
 20
230.75
 11
210
 21
230.75
  0
LINE
  8
0
 10
-214
 20
230.75
 11
-214
 21
239.25
  0
LINE
  8
0
 10
-214
 20
239.25
 11
-210
 21
239.25
  0
LINE
  8
0
 10
-210
 20
239.25
 11
-210
 21
230.75
  0
LINE
  8
0
 10
-210
 20
230.75
 11
-214
 21
230.75
  0
LINE
  8
0
 10
-81.8154
 20
191.769
 11
-82.2797
 21
191.906
  0
LINE
  8
0
 10
-82.2797
 20
191.906
 11
-82.6868
 21
192.167
  0
LINE
  8
0
 10
-82.6868
 20
192.167
 11
-83.0036
 21
192.533
  0
LINE
  8
0
 10
-83.0036
 20
192.533
 11
-83.2046
 21
192.973
  0
LINE
  8
0
 10
-83.2046
 20
192.973
 11
-83.2735
 21
193.452
  0
LINE
  8
0
 10
-83.2735
 20
193.452
 11
-83.2046
 21
193.931
  0
LINE
  8
0
 10
-83.2046
 20
193.931
 11
-83.0036
 21
194.371
  0
LINE
  8
0
 10
-83.0036
 20
194.371
 11
-82.6868
 21
194.737
  0
LINE
  8
0
 10
-82.6868
 20
194.737
 11
-82.2797
 21
194.998
  0
LINE
  8
0
 10
-82.2797
 20
194.998
 11
-81.8154
 21
195.135
  0
LINE
  8
0
 10
-81.8154
 20
195.135
 11
-81.3316
 21
195.135
  0
LINE
  8
0
 10
-81.3316
 20
195.135
 11
-80.8673
 21
194.998
  0
LINE
  8
0
 10
-80.8673
 20
194.998
 11
-80.4602
 21
194.737
  0
LINE
  8
0
 10
-80.4602
 20
194.737
 11
-80.1434
 21
194.371
  0
LINE
  8
0
 10
-80.1434
 20
194.371
 11
-79.9424
 21
193.931
  0
LINE
  8
0
 10
-79.9424
 20
193.931
 11
-79.8735
 21
193.452
  0
LINE
  8
0
 10
-79.8735
 20
193.452
 11
-79.9424
 21
192.973
  0
LINE
  8
0
 10
-79.9424
 20
192.973
 11
-80.1434
 21
192.533
  0
LINE
  8
0
 10
-80.1434
 20
192.533
 11
-80.4602
 21
192.167
  0
LINE
  8
0
 10
-80.4602
 20
192.167
 11
-80.8673
 21
191.906
  0
LINE
  8
0
 10
-80.8673
 20
191.906
 11
-81.3316
 21
191.769
  0
LINE
  8
0
 10
-81.3316
 20
191.769
 11
-81.8154
 21
191.769
  0
LINE
  8
0
 10
-1.24193
 20
190.817
 11
-1.70619
 21
190.954
  0
LINE
  8
0
 10
-1.70619
 20
190.954
 11
-2.11325
 21
191.215
  0
LINE
  8
0
 10
-2.11325
 20
191.215
 11
-2.43013
 21
191.581
  0
LINE
  8
0
 10
-2.43013
 20
191.581
 11
-2.63113
 21
192.021
  0
LINE
  8
0
 10
-2.63113
 20
192.021
 11
-2.7
 21
192.5
  0
LINE
  8
0
 10
-2.7
 20
192.5
 11
-2.63113
 21
192.979
  0
LINE
  8
0
 10
-2.63113
 20
192.979
 11
-2.43013
 21
193.419
  0
LINE
  8
0
 10
-2.43013
 20
193.419
 11
-2.11325
 21
193.785
  0
LINE
  8
0
 10
-2.11325
 20
193.785
 11
-1.70619
 21
194.046
  0
LINE
  8
0
 10
-1.70619
 20
194.046
 11
-1.24193
 21
194.183
  0
LINE
  8
0
 10
-1.24193
 20
194.183
 11
-0.758057
 21
194.183
  0
LINE
  8
0
 10
-0.758057
 20
194.183
 11
-0.293793
 21
194.046
  0
LINE
  8
0
 10
-0.293793
 20
194.046
 11
0.113251
 21
193.785
  0
LINE
  8
0
 10
0.113251
 20
193.785
 11
0.43013
 21
193.419
  0
LINE
  8
0
 10
0.43013
 20
193.419
 11
0.631134
 21
192.979
  0
LINE
  8
0
 10
0.631134
 20
192.979
 11
0.699997
 21
192.5
  0
LINE
  8
0
 10
0.699997
 20
192.5
 11
0.631134
 21
192.021
  0
LINE
  8
0
 10
0.631134
 20
192.021
 11
0.43013
 21
191.581
  0
LINE
  8
0
 10
0.43013
 20
191.581
 11
0.113251
 21
191.215
  0
LINE
  8
0
 10
0.113251
 20
191.215
 11
-0.293793
 21
190.954
  0
LINE
  8
0
 10
-0.293793
 20
190.954
 11
-0.758057
 21
190.817
  0
LINE
  8
0
 10
-0.758057
 20
190.817
 11
-1.24193
 21
190.817
  0
LINE
  8
0
 10
90.7581
 20
190.817
 11
90.2938
 21
190.954
  0
LINE
  8
0
 10
90.2938
 20
190.954
 11
89.8867
 21
191.215
  0
LINE
  8
0
 10
89.8867
 20
191.215
 11
89.5699
 21
191.581
  0
LINE
  8
0
 10
89.5699
 20
191.581
 11
89.3689
 21
192.021
  0
LINE
  8
0
 10
89.3689
 20
192.021
 11
89.3
 21
192.5
  0
LINE
  8
0
 10
89.3
 20
192.5
 11
89.3689
 21
192.979
  0
LINE
  8
0
 10
89.3689
 20
192.979
 11
89.5699
 21
193.419
  0
LINE
  8
0
 10
89.5699
 20
193.419
 11
89.8867
 21
193.785
  0
LINE
  8
0
 10
89.8867
 20
193.785
 11
90.2938
 21
194.046
  0
LINE
  8
0
 10
90.2938
 20
194.046
 11
90.7581
 21
194.183
  0
LINE
  8
0
 10
90.7581
 20
194.183
 11
91.2419
 21
194.183
  0
LINE
  8
0
 10
91.2419
 20
194.183
 11
91.7062
 21
194.046
  0
LINE
  8
0
 10
91.7062
 20
194.046
 11
92.1133
 21
193.785
  0
LINE
  8
0
 10
92.1133
 20
193.785
 11
92.4301
 21
193.419
  0
LINE
  8
0
 10
92.4301
 20
193.419
 11
92.6311
 21
192.979
  0
LINE
  8
0
 10
92.6311
 20
192.979
 11
92.7
 21
192.5
  0
LINE
  8
0
 10
92.7
 20
192.5
 11
92.6311
 21
192.021
  0
LINE
  8
0
 10
92.6311
 20
192.021
 11
92.4301
 21
191.581
  0
LINE
  8
0
 10
92.4301
 20
191.581
 11
92.1133
 21
191.215
  0
LINE
  8
0
 10
92.1133
 20
191.215
 11
91.7062
 21
190.954
  0
LINE
  8
0
 10
91.7062
 20
190.954
 11
91.2419
 21
190.817
  0
LINE
  8
0
 10
91.2419
 20
190.817
 11
90.7581
 21
190.817
  0
LINE
  8
0
 10
-20.5374
 20
190.817
 11
-21.0017
 21
190.954
  0
LINE
  8
0
 10
-21.0017
 20
190.954
 11
-21.4088
 21
191.215
  0
LINE
  8
0
 10
-21.4088
 20
191.215
 11
-21.7256
 21
191.581
  0
LINE
  8
0
 10
-21.7256
 20
191.581
 11
-21.9266
 21
192.021
  0
LINE
  8
0
 10
-21.9266
 20
192.021
 11
-21.9955
 21
192.5
  0
LINE
  8
0
 10
-21.9955
 20
192.5
 11
-21.9266
 21
192.979
  0
LINE
  8
0
 10
-21.9266
 20
192.979
 11
-21.7256
 21
193.419
  0
LINE
  8
0
 10
-21.7256
 20
193.419
 11
-21.4088
 21
193.785
  0
LINE
  8
0
 10
-21.4088
 20
193.785
 11
-21.0017
 21
194.046
  0
LINE
  8
0
 10
-21.0017
 20
194.046
 11
-20.5374
 21
194.183
  0
LINE
  8
0
 10
-20.5374
 20
194.183
 11
-20.0536
 21
194.183
  0
LINE
  8
0
 10
-20.0536
 20
194.183
 11
-19.5893
 21
194.046
  0
LINE
  8
0
 10
-19.5893
 20
194.046
 11
-19.1822
 21
193.785
  0
LINE
  8
0
 10
-19.1822
 20
193.785
 11
-18.8654
 21
193.419
  0
LINE
  8
0
 10
-18.8654
 20
193.419
 11
-18.6644
 21
192.979
  0
LINE
  8
0
 10
-18.6644
 20
192.979
 11
-18.5955
 21
192.5
  0
LINE
  8
0
 10
-18.5955
 20
192.5
 11
-18.6644
 21
192.021
  0
LINE
  8
0
 10
-18.6644
 20
192.021
 11
-18.8654
 21
191.581
  0
LINE
  8
0
 10
-18.8654
 20
191.581
 11
-19.1822
 21
191.215
  0
LINE
  8
0
 10
-19.1822
 20
191.215
 11
-19.5893
 21
190.954
  0
LINE
  8
0
 10
-19.5893
 20
190.954
 11
-20.0536
 21
190.817
  0
LINE
  8
0
 10
-20.0536
 20
190.817
 11
-20.5374
 21
190.817
  0
LINE
  8
0
 10
108.788
 20
189.328
 11
113.314
 21
193.853
  0
LINE
  8
0
 10
113.314
 20
193.853
 11
140.113
 21
167.054
  0
LINE
  8
0
 10
140.113
 20
167.054
 11
135.588
 21
162.528
  0
LINE
  8
0
 10
135.588
 20
162.528
 11
108.788
 21
189.328
  0
LINE
  8
0
 10
-140.113
 20
167.054
 11
-113.314
 21
193.853
  0
LINE
  8
0
 10
-113.314
 20
193.853
 11
-108.788
 21
189.328
  0
LINE
  8
0
 10
-108.788
 20
189.328
 11
-135.588
 21
162.528
  0
LINE
  8
0
 10
-135.588
 20
162.528
 11
-140.113
 21
167.054
  0
LINE
  8
0
 10
162.528
 20
135.588
 11
167.054
 21
140.113
  0
LINE
  8
0
 10
167.054
 20
140.113
 11
193.853
 21
113.314
  0
LINE
  8
0
 10
193.853
 20
113.314
 11
189.328
 21
108.788
  0
LINE
  8
0
 10
189.328
 20
108.788
 11
162.528
 21
135.588
  0
LINE
  8
0
 10
-193.853
 20
113.314
 11
-167.054
 21
140.113
  0
LINE
  8
0
 10
-167.054
 20
140.113
 11
-162.528
 21
135.588
  0
LINE
  8
0
 10
-162.528
 20
135.588
 11
-189.328
 21
108.788
  0
LINE
  8
0
 10
-189.328
 20
108.788
 11
-193.853
 21
113.314
  0
LINE
  8
0
 10
90.7581
 20
75.8173
 11
90.2938
 21
75.9536
  0
LINE
  8
0
 10
90.2938
 20
75.9536
 11
89.8867
 21
76.2152
  0
LINE
  8
0
 10
89.8867
 20
76.2152
 11
89.5699
 21
76.5809
  0
LINE
  8
0
 10
89.5699
 20
76.5809
 11
89.3689
 21
77.0211
  0
LINE
  8
0
 10
89.3689
 20
77.0211
 11
89.3
 21
77.5
  0
LINE
  8
0
 10
89.3
 20
77.5
 11
89.3689
 21
77.9789
  0
LINE
  8
0
 10
89.3689
 20
77.9789
 11
89.5699
 21
78.4191
  0
LINE
  8
0
 10
89.5699
 20
78.4191
 11
89.8867
 21
78.7848
  0
LINE
  8
0
 10
89.8867
 20
78.7848
 11
90.2938
 21
79.0464
  0
LINE
  8
0
 10
90.2938
 20
79.0464
 11
90.7581
 21
79.1827
  0
LINE
  8
0
 10
90.7581
 20
79.1827
 11
91.2419
 21
79.1827
  0
LINE
  8
0
 10
91.2419
 20
79.1827
 11
91.7062
 21
79.0464
  0
LINE
  8
0
 10
91.7062
 20
79.0464
 11
92.1133
 21
78.7848
  0
LINE
  8
0
 10
92.1133
 20
78.7848
 11
92.4301
 21
78.4191
  0
LINE
  8
0
 10
92.4301
 20
78.4191
 11
92.6311
 21
77.9789
  0
LINE
  8
0
 10
92.6311
 20
77.9789
 11
92.7
 21
77.5
  0
LINE
  8
0
 10
92.7
 20
77.5
 11
92.6311
 21
77.0211
  0
LINE
  8
0
 10
92.6311
 20
77.0211
 11
92.4301
 21
76.5809
  0
LINE
  8
0
 10
92.4301
 20
76.5809
 11
92.1133
 21
76.2152
  0
LINE
  8
0
 10
92.1133
 20
76.2152
 11
91.7062
 21
75.9536
  0
LINE
  8
0
 10
91.7062
 20
75.9536
 11
91.2419
 21
75.8173
  0
LINE
  8
0
 10
91.2419
 20
75.8173
 11
90.7581
 21
75.8173
  0
LINE
  8
0
 10
-20.5374
 20
75.8173
 11
-21.0017
 21
75.9536
  0
LINE
  8
0
 10
-21.0017
 20
75.9536
 11
-21.4088
 21
76.2152
  0
LINE
  8
0
 10
-21.4088
 20
76.2152
 11
-21.7256
 21
76.5809
  0
LINE
  8
0
 10
-21.7256
 20
76.5809
 11
-21.9266
 21
77.0211
  0
LINE
  8
0
 10
-21.9266
 20
77.0211
 11
-21.9955
 21
77.5
  0
LINE
  8
0
 10
-21.9955
 20
77.5
 11
-21.9266
 21
77.9789
  0
LINE
  8
0
 10
-21.9266
 20
77.9789
 11
-21.7256
 21
78.4191
  0
LINE
  8
0
 10
-21.7256
 20
78.4191
 11
-21.4088
 21
78.7848
  0
LINE
  8
0
 10
-21.4088
 20
78.7848
 11
-21.0017
 21
79.0464
  0
LINE
  8
0
 10
-21.0017
 20
79.0464
 11
-20.5374
 21
79.1827
  0
LINE
  8
0
 10
-20.5374
 20
79.1827
 11
-20.0536
 21
79.1827
  0
LINE
  8
0
 10
-20.0536
 20
79.1827
 11
-19.5893
 21
79.0464
  0
LINE
  8
0
 10
-19.5893
 20
79.0464
 11
-19.1822
 21
78.7848
  0
LINE
  8
0
 10
-19.1822
 20
78.7848
 11
-18.8654
 21
78.4191
  0
LINE
  8
0
 10
-18.8654
 20
78.4191
 11
-18.6644
 21
77.9789
  0
LINE
  8
0
 10
-18.6644
 20
77.9789
 11
-18.5955
 21
77.5
  0
LINE
  8
0
 10
-18.5955
 20
77.5
 11
-18.6644
 21
77.0211
  0
LINE
  8
0
 10
-18.6644
 20
77.0211
 11
-18.8654
 21
76.5809
  0
LINE
  8
0
 10
-18.8654
 20
76.5809
 11
-19.1822
 21
76.2152
  0
LINE
  8
0
 10
-19.1822
 20
76.2152
 11
-19.5893
 21
75.9536
  0
LINE
  8
0
 10
-19.5893
 20
75.9536
 11
-20.0536
 21
75.8173
  0
LINE
  8
0
 10
-20.0536
 20
75.8173
 11
-20.5374
 21
75.8173
  0
LINE
  8
0
 10
-1.24193
 20
75.8173
 11
-1.70619
 21
75.9536
  0
LINE
  8
0
 10
-1.70619
 20
75.9536
 11
-2.11325
 21
76.2152
  0
LINE
  8
0
 10
-2.11325
 20
76.2152
 11
-2.43013
 21
76.5809
  0
LINE
  8
0
 10
-2.43013
 20
76.5809
 11
-2.63113
 21
77.0211
  0
LINE
  8
0
 10
-2.63113
 20
77.0211
 11
-2.7
 21
77.5
  0
LINE
  8
0
 10
-2.7
 20
77.5
 11
-2.63113
 21
77.9789
  0
LINE
  8
0
 10
-2.63113
 20
77.9789
 11
-2.43013
 21
78.4191
  0
LINE
  8
0
 10
-2.43013
 20
78.4191
 11
-2.11325
 21
78.7848
  0
LINE
  8
0
 10
-2.11325
 20
78.7848
 11
-1.70619
 21
79.0464
  0
LINE
  8
0
 10
-1.70619
 20
79.0464
 11
-1.24193
 21
79.1827
  0
LINE
  8
0
 10
-1.24193
 20
79.1827
 11
-0.758057
 21
79.1827
  0
LINE
  8
0
 10
-0.758057
 20
79.1827
 11
-0.293793
 21
79.0464
  0
LINE
  8
0
 10
-0.293793
 20
79.0464
 11
0.113251
 21
78.7848
  0
LINE
  8
0
 10
0.113251
 20
78.7848
 11
0.43013
 21
78.4191
  0
LINE
  8
0
 10
0.43013
 20
78.4191
 11
0.631134
 21
77.9789
  0
LINE
  8
0
 10
0.631134
 20
77.9789
 11
0.699997
 21
77.5
  0
LINE
  8
0
 10
0.699997
 20
77.5
 11
0.631134
 21
77.0211
  0
LINE
  8
0
 10
0.631134
 20
77.0211
 11
0.43013
 21
76.5809
  0
LINE
  8
0
 10
0.43013
 20
76.5809
 11
0.113251
 21
76.2152
  0
LINE
  8
0
 10
0.113251
 20
76.2152
 11
-0.293793
 21
75.9536
  0
LINE
  8
0
 10
-0.293793
 20
75.9536
 11
-0.758057
 21
75.8173
  0
LINE
  8
0
 10
-0.758057
 20
75.8173
 11
-1.24193
 21
75.8173
  0
LINE
  8
0
 10
-81.8154
 20
74.8653
 11
-82.2797
 21
75.0016
  0
LINE
  8
0
 10
-82.2797
 20
75.0016
 11
-82.6868
 21
75.2632
  0
LINE
  8
0
 10
-82.6868
 20
75.2632
 11
-83.0036
 21
75.6289
  0
LINE
  8
0
 10
-83.0036
 20
75.6289
 11
-83.2046
 21
76.069
  0
LINE
  8
0
 10
-83.2046
 20
76.069
 11
-83.2735
 21
76.548
  0
LINE
  8
0
 10
-83.2735
 20
76.548
 11
-83.2046
 21
77.0269
  0
LINE
  8
0
 10
-83.2046
 20
77.0269
 11
-83.0036
 21
77.4671
  0
LINE
  8
0
 10
-83.0036
 20
77.4671
 11
-82.6868
 21
77.8328
  0
LINE
  8
0
 10
-82.6868
 20
77.8328
 11
-82.2797
 21
78.0944
  0
LINE
  8
0
 10
-82.2797
 20
78.0944
 11
-81.8154
 21
78.2307
  0
LINE
  8
0
 10
-81.8154
 20
78.2307
 11
-81.3316
 21
78.2307
  0
LINE
  8
0
 10
-81.3316
 20
78.2307
 11
-80.8673
 21
78.0944
  0
LINE
  8
0
 10
-80.8673
 20
78.0944
 11
-80.4602
 21
77.8328
  0
LINE
  8
0
 10
-80.4602
 20
77.8328
 11
-80.1434
 21
77.4671
  0
LINE
  8
0
 10
-80.1434
 20
77.4671
 11
-79.9424
 21
77.0269
  0
LINE
  8
0
 10
-79.9424
 20
77.0269
 11
-79.8735
 21
76.548
  0
LINE
  8
0
 10
-79.8735
 20
76.548
 11
-79.9424
 21
76.069
  0
LINE
  8
0
 10
-79.9424
 20
76.069
 11
-80.1434
 21
75.6289
  0
LINE
  8
0
 10
-80.1434
 20
75.6289
 11
-80.4602
 21
75.2632
  0
LINE
  8
0
 10
-80.4602
 20
75.2632
 11
-80.8673
 21
75.0016
  0
LINE
  8
0
 10
-80.8673
 20
75.0016
 11
-81.3316
 21
74.8653
  0
LINE
  8
0
 10
-81.3316
 20
74.8653
 11
-81.8154
 21
74.8653
  0
LINE
  8
0
 10
-32.9895
 20
22.8551
 11
-33.4545
 21
23.0179
  0
LINE
  8
0
 10
-33.4545
 20
23.0179
 11
-33.8717
 21
23.28
  0
LINE
  8
0
 10
-33.8717
 20
23.28
 11
-34.22
 21
23.6283
  0
LINE
  8
0
 10
-34.22
 20
23.6283
 11
-34.4821
 21
24.0455
  0
LINE
  8
0
 10
-34.4821
 20
24.0455
 11
-34.6448
 21
24.5105
  0
LINE
  8
0
 10
-34.6448
 20
24.5105
 11
-34.7
 21
25
  0
LINE
  8
0
 10
-34.7
 20
25
 11
-34.6448
 21
25.4895
  0
LINE
  8
0
 10
-34.6448
 20
25.4895
 11
-34.4821
 21
25.9545
  0
LINE
  8
0
 10
-34.4821
 20
25.9545
 11
-34.22
 21
26.3717
  0
LINE
  8
0
 10
-34.22
 20
26.3717
 11
-33.8717
 21
26.72
  0
LINE
  8
0
 10
-33.8717
 20
26.72
 11
-33.4545
 21
26.9821
  0
LINE
  8
0
 10
-33.4545
 20
26.9821
 11
-32.9895
 21
27.1448
  0
LINE
  8
0
 10
-32.9895
 20
27.1448
 11
-32.5
 21
27.2
  0
LINE
  8
0
 10
-32.5
 20
27.2
 11
-32.0105
 21
27.1448
  0
LINE
  8
0
 10
-32.0105
 20
27.1448
 11
-31.5455
 21
26.9821
  0
LINE
  8
0
 10
-31.5455
 20
26.9821
 11
-31.1283
 21
26.72
  0
LINE
  8
0
 10
-31.1283
 20
26.72
 11
-30.78
 21
26.3717
  0
LINE
  8
0
 10
-30.78
 20
26.3717
 11
-30.5179
 21
25.9545
  0
LINE
  8
0
 10
-30.5179
 20
25.9545
 11
-30.3551
 21
25.4895
  0
LINE
  8
0
 10
-30.3551
 20
25.4895
 11
-30.3
 21
25
  0
LINE
  8
0
 10
-30.3
 20
25
 11
-30.3551
 21
24.5105
  0
LINE
  8
0
 10
-30.3551
 20
24.5105
 11
-30.5179
 21
24.0455
  0
LINE
  8
0
 10
-30.5179
 20
24.0455
 11
-30.78
 21
23.6283
  0
LINE
  8
0
 10
-30.78
 20
23.6283
 11
-31.1283
 21
23.28
  0
LINE
  8
0
 10
-31.1283
 20
23.28
 11
-31.5455
 21
23.0179
  0
LINE
  8
0
 10
-31.5455
 20
23.0179
 11
-32.0105
 21
22.8551
  0
LINE
  8
0
 10
-32.0105
 20
22.8551
 11
-32.5
 21
22.8
  0
LINE
  8
0
 10
-32.5
 20
22.8
 11
-32.9895
 21
22.8551
  0
LINE
  8
0
 10
-82.9895
 20
22.8551
 11
-83.4545
 21
23.0179
  0
LINE
  8
0
 10
-83.4545
 20
23.0179
 11
-83.8717
 21
23.28
  0
LINE
  8
0
 10
-83.8717
 20
23.28
 11
-84.22
 21
23.6283
  0
LINE
  8
0
 10
-84.22
 20
23.6283
 11
-84.4821
 21
24.0455
  0
LINE
  8
0
 10
-84.4821
 20
24.0455
 11
-84.6448
 21
24.5105
  0
LINE
  8
0
 10
-84.6448
 20
24.5105
 11
-84.7
 21
25
  0
LINE
  8
0
 10
-84.7
 20
25
 11
-84.6448
 21
25.4895
  0
LINE
  8
0
 10
-84.6448
 20
25.4895
 11
-84.4821
 21
25.9545
  0
LINE
  8
0
 10
-84.4821
 20
25.9545
 11
-84.22
 21
26.3717
  0
LINE
  8
0
 10
-84.22
 20
26.3717
 11
-83.8717
 21
26.72
  0
LINE
  8
0
 10
-83.8717
 20
26.72
 11
-83.4545
 21
26.9821
  0
LINE
  8
0
 10
-83.4545
 20
26.9821
 11
-82.9895
 21
27.1448
  0
LINE
  8
0
 10
-82.9895
 20
27.1448
 11
-82.5
 21
27.2
  0
LINE
  8
0
 10
-82.5
 20
27.2
 11
-82.0105
 21
27.1448
  0
LINE
  8
0
 10
-82.0105
 20
27.1448
 11
-81.5455
 21
26.9821
  0
LINE
  8
0
 10
-81.5455
 20
26.9821
 11
-81.1283
 21
26.72
  0
LINE
  8
0
 10
-81.1283
 20
26.72
 11
-80.78
 21
26.3717
  0
LINE
  8
0
 10
-80.78
 20
26.3717
 11
-80.5179
 21
25.9545
  0
LINE
  8
0
 10
-80.5179
 20
25.9545
 11
-80.3551
 21
25.4895
  0
LINE
  8
0
 10
-80.3551
 20
25.4895
 11
-80.3
 21
25
  0
LINE
  8
0
 10
-80.3
 20
25
 11
-80.3551
 21
24.5105
  0
LINE
  8
0
 10
-80.3551
 20
24.5105
 11
-80.5179
 21
24.0455
  0
LINE
  8
0
 10
-80.5179
 20
24.0455
 11
-80.78
 21
23.6283
  0
LINE
  8
0
 10
-80.78
 20
23.6283
 11
-81.1283
 21
23.28
  0
LINE
  8
0
 10
-81.1283
 20
23.28
 11
-81.5455
 21
23.0179
  0
LINE
  8
0
 10
-81.5455
 20
23.0179
 11
-82.0105
 21
22.8551
  0
LINE
  8
0
 10
-82.0105
 20
22.8551
 11
-82.5
 21
22.8
  0
LINE
  8
0
 10
-82.5
 20
22.8
 11
-82.9895
 21
22.8551
  0
LINE
  8
0
 10
-4.50484
 20
-2.16942
 11
-4.50484
 21
2.16942
  0
LINE
  8
0
 10
-4.50484
 20
2.16942
 11
-1.11259
 21
4.87463
  0
LINE
  8
0
 10
-1.11259
 20
4.87463
 11
3.11745
 21
3.90915
  0
LINE
  8
0
 10
3.11745
 20
3.90915
 11
5
 21
0
  0
LINE
  8
0
 10
5
 20
0
 11
3.11745
 21
-3.90915
  0
LINE
  8
0
 10
3.11745
 20
-3.90915
 11
-1.11259
 21
-4.87463
  0
LINE
  8
0
 10
-1.11259
 20
-4.87463
 11
-4.50484
 21
-2.16942
  0
LINE
  8
0
 10
89.5105
 20
-95.6448
 11
89.0455
 21
-95.4821
  0
LINE
  8
0
 10
89.0455
 20
-95.4821
 11
88.6283
 21
-95.22
  0
LINE
  8
0
 10
88.6283
 20
-95.22
 11
88.28
 21
-94.8717
  0
LINE
  8
0
 10
88.28
 20
-94.8717
 11
88.0179
 21
-94.4545
  0
LINE
  8
0
 10
88.0179
 20
-94.4545
 11
87.8551
 21
-93.9895
  0
LINE
  8
0
 10
87.8551
 20
-93.9895
 11
87.8
 21
-93.5
  0
LINE
  8
0
 10
87.8
 20
-93.5
 11
87.8551
 21
-93.0105
  0
LINE
  8
0
 10
87.8551
 20
-93.0105
 11
88.0179
 21
-92.5455
  0
LINE
  8
0
 10
88.0179
 20
-92.5455
 11
88.28
 21
-92.1283
  0
LINE
  8
0
 10
88.28
 20
-92.1283
 11
88.6283
 21
-91.78
  0
LINE
  8
0
 10
88.6283
 20
-91.78
 11
89.0455
 21
-91.5179
  0
LINE
  8
0
 10
89.0455
 20
-91.5179
 11
89.5105
 21
-91.3551
  0
LINE
  8
0
 10
89.5105
 20
-91.3551
 11
90
 21
-91.3
  0
LINE
  8
0
 10
90
 20
-91.3
 11
90.4895
 21
-91.3551
  0
LINE
  8
0
 10
90.4895
 20
-91.3551
 11
90.9545
 21
-91.5179
  0
LINE
  8
0
 10
90.9545
 20
-91.5179
 11
91.3717
 21
-91.78
  0
LINE
  8
0
 10
91.3717
 20
-91.78
 11
91.72
 21
-92.1283
  0
LINE
  8
0
 10
91.72
 20
-92.1283
 11
91.9821
 21
-92.5455
  0
LINE
  8
0
 10
91.9821
 20
-92.5455
 11
92.1448
 21
-93.0105
  0
LINE
  8
0
 10
92.1448
 20
-93.0105
 11
92.2
 21
-93.5
  0
LINE
  8
0
 10
92.2
 20
-93.5
 11
92.1448
 21
-93.9895
  0
LINE
  8
0
 10
92.1448
 20
-93.9895
 11
91.9821
 21
-94.4545
  0
LINE
  8
0
 10
91.9821
 20
-94.4545
 11
91.72
 21
-94.8717
  0
LINE
  8
0
 10
91.72
 20
-94.8717
 11
91.3717
 21
-95.22
  0
LINE
  8
0
 10
91.3717
 20
-95.22
 11
90.9545
 21
-95.4821
  0
LINE
  8
0
 10
90.9545
 20
-95.4821
 11
90.4895
 21
-95.6448
  0
LINE
  8
0
 10
90.4895
 20
-95.6448
 11
90
 21
-95.7
  0
LINE
  8
0
 10
90
 20
-95.7
 11
89.5105
 21
-95.6448
  0
LINE
  8
0
 10
34.5105
 20
-95.6448
 11
34.0455
 21
-95.4821
  0
LINE
  8
0
 10
34.0455
 20
-95.4821
 11
33.6283
 21
-95.22
  0
LINE
  8
0
 10
33.6283
 20
-95.22
 11
33.28
 21
-94.8717
  0
LINE
  8
0
 10
33.28
 20
-94.8717
 11
33.0179
 21
-94.4545
  0
LINE
  8
0
 10
33.0179
 20
-94.4545
 11
32.8551
 21
-93.9895
  0
LINE
  8
0
 10
32.8551
 20
-93.9895
 11
32.8
 21
-93.5
  0
LINE
  8
0
 10
32.8
 20
-93.5
 11
32.8551
 21
-93.0105
  0
LINE
  8
0
 10
32.8551
 20
-93.0105
 11
33.0179
 21
-92.5455
  0
LINE
  8
0
 10
33.0179
 20
-92.5455
 11
33.28
 21
-92.1283
  0
LINE
  8
0
 10
33.28
 20
-92.1283
 11
33.6283
 21
-91.78
  0
LINE
  8
0
 10
33.6283
 20
-91.78
 11
34.0455
 21
-91.5179
  0
LINE
  8
0
 10
34.0455
 20
-91.5179
 11
34.5105
 21
-91.3551
  0
LINE
  8
0
 10
34.5105
 20
-91.3551
 11
35
 21
-91.3
  0
LINE
  8
0
 10
35
 20
-91.3
 11
35.4895
 21
-91.3551
  0
LINE
  8
0
 10
35.4895
 20
-91.3551
 11
35.9545
 21
-91.5179
  0
LINE
  8
0
 10
35.9545
 20
-91.5179
 11
36.3717
 21
-91.78
  0
LINE
  8
0
 10
36.3717
 20
-91.78
 11
36.72
 21
-92.1283
  0
LINE
  8
0
 10
36.72
 20
-92.1283
 11
36.9821
 21
-92.5455
  0
LINE
  8
0
 10
36.9821
 20
-92.5455
 11
37.1448
 21
-93.0105
  0
LINE
  8
0
 10
37.1448
 20
-93.0105
 11
37.2
 21
-93.5
  0
LINE
  8
0
 10
37.2
 20
-93.5
 11
37.1448
 21
-93.9895
  0
LINE
  8
0
 10
37.1448
 20
-93.9895
 11
36.9821
 21
-94.4545
  0
LINE
  8
0
 10
36.9821
 20
-94.4545
 11
36.72
 21
-94.8717
  0
LINE
  8
0
 10
36.72
 20
-94.8717
 11
36.3717
 21
-95.22
  0
LINE
  8
0
 10
36.3717
 20
-95.22
 11
35.9545
 21
-95.4821
  0
LINE
  8
0
 10
35.9545
 20
-95.4821
 11
35.4895
 21
-95.6448
  0
LINE
  8
0
 10
35.4895
 20
-95.6448
 11
35
 21
-95.7
  0
LINE
  8
0
 10
35
 20
-95.7
 11
34.5105
 21
-95.6448
  0
LINE
  8
0
 10
162.528
 20
-135.588
 11
189.328
 21
-108.788
  0
LINE
  8
0
 10
189.328
 20
-108.788
 11
193.853
 21
-113.314
  0
LINE
  8
0
 10
193.853
 20
-113.314
 11
167.054
 21
-140.113
  0
LINE
  8
0
 10
167.054
 20
-140.113
 11
162.528
 21
-135.588
  0
LINE
  8
0
 10
-193.853
 20
-113.314
 11
-189.328
 21
-108.788
  0
LINE
  8
0
 10
-189.328
 20
-108.788
 11
-162.528
 21
-135.588
  0
LINE
  8
0
 10
-162.528
 20
-135.588
 11
-167.054
 21
-140.113
  0
LINE
  8
0
 10
-167.054
 20
-140.113
 11
-193.853
 21
-113.314
  0
LINE
  8
0
 10
-82.9895
 20
-127.145
 11
-83.4545
 21
-126.982
  0
LINE
  8
0
 10
-83.4545
 20
-126.982
 11
-83.8717
 21
-126.72
  0
LINE
  8
0
 10
-83.8717
 20
-126.72
 11
-84.22
 21
-126.372
  0
LINE
  8
0
 10
-84.22
 20
-126.372
 11
-84.4821
 21
-125.955
  0
LINE
  8
0
 10
-84.4821
 20
-125.955
 11
-84.6448
 21
-125.49
  0
LINE
  8
0
 10
-84.6448
 20
-125.49
 11
-84.7
 21
-125
  0
LINE
  8
0
 10
-84.7
 20
-125
 11
-84.6448
 21
-124.51
  0
LINE
  8
0
 10
-84.6448
 20
-124.51
 11
-84.4821
 21
-124.045
  0
LINE
  8
0
 10
-84.4821
 20
-124.045
 11
-84.22
 21
-123.628
  0
LINE
  8
0
 10
-84.22
 20
-123.628
 11
-83.8717
 21
-123.28
  0
LINE
  8
0
 10
-83.8717
 20
-123.28
 11
-83.4545
 21
-123.018
  0
LINE
  8
0
 10
-83.4545
 20
-123.018
 11
-82.9895
 21
-122.855
  0
LINE
  8
0
 10
-82.9895
 20
-122.855
 11
-82.5
 21
-122.8
  0
LINE
  8
0
 10
-82.5
 20
-122.8
 11
-82.0105
 21
-122.855
  0
LINE
  8
0
 10
-82.0105
 20
-122.855
 11
-81.5455
 21
-123.018
  0
LINE
  8
0
 10
-81.5455
 20
-123.018
 11
-81.1283
 21
-123.28
  0
LINE
  8
0
 10
-81.1283
 20
-123.28
 11
-80.78
 21
-123.628
  0
LINE
  8
0
 10
-80.78
 20
-123.628
 11
-80.5179
 21
-124.045
  0
LINE
  8
0
 10
-80.5179
 20
-124.045
 11
-80.3551
 21
-124.51
  0
LINE
  8
0
 10
-80.3551
 20
-124.51
 11
-80.3
 21
-125
  0
LINE
  8
0
 10
-80.3
 20
-125
 11
-80.3551
 21
-125.49
  0
LINE
  8
0
 10
-80.3551
 20
-125.49
 11
-80.5179
 21
-125.955
  0
LINE
  8
0
 10
-80.5179
 20
-125.955
 11
-80.78
 21
-126.372
  0
LINE
  8
0
 10
-80.78
 20
-126.372
 11
-81.1283
 21
-126.72
  0
LINE
  8
0
 10
-81.1283
 20
-126.72
 11
-81.5455
 21
-126.982
  0
LINE
  8
0
 10
-81.5455
 20
-126.982
 11
-82.0105
 21
-127.145
  0
LINE
  8
0
 10
-82.0105
 20
-127.145
 11
-82.5
 21
-127.2
  0
LINE
  8
0
 10
-82.5
 20
-127.2
 11
-82.9895
 21
-127.145
  0
LINE
  8
0
 10
-32.9895
 20
-127.145
 11
-33.4545
 21
-126.982
  0
LINE
  8
0
 10
-33.4545
 20
-126.982
 11
-33.8717
 21
-126.72
  0
LINE
  8
0
 10
-33.8717
 20
-126.72
 11
-34.22
 21
-126.372
  0
LINE
  8
0
 10
-34.22
 20
-126.372
 11
-34.4821
 21
-125.955
  0
LINE
  8
0
 10
-34.4821
 20
-125.955
 11
-34.6448
 21
-125.49
  0
LINE
  8
0
 10
-34.6448
 20
-125.49
 11
-34.7
 21
-125
  0
LINE
  8
0
 10
-34.7
 20
-125
 11
-34.6448
 21
-124.51
  0
LINE
  8
0
 10
-34.6448
 20
-124.51
 11
-34.4821
 21
-124.045
  0
LINE
  8
0
 10
-34.4821
 20
-124.045
 11
-34.22
 21
-123.628
  0
LINE
  8
0
 10
-34.22
 20
-123.628
 11
-33.8717
 21
-123.28
  0
LINE
  8
0
 10
-33.8717
 20
-123.28
 11
-33.4545
 21
-123.018
  0
LINE
  8
0
 10
-33.4545
 20
-123.018
 11
-32.9895
 21
-122.855
  0
LINE
  8
0
 10
-32.9895
 20
-122.855
 11
-32.5
 21
-122.8
  0
LINE
  8
0
 10
-32.5
 20
-122.8
 11
-32.0105
 21
-122.855
  0
LINE
  8
0
 10
-32.0105
 20
-122.855
 11
-31.5455
 21
-123.018
  0
LINE
  8
0
 10
-31.5455
 20
-123.018
 11
-31.1283
 21
-123.28
  0
LINE
  8
0
 10
-31.1283
 20
-123.28
 11
-30.78
 21
-123.628
  0
LINE
  8
0
 10
-30.78
 20
-123.628
 11
-30.5179
 21
-124.045
  0
LINE
  8
0
 10
-30.5179
 20
-124.045
 11
-30.3551
 21
-124.51
  0
LINE
  8
0
 10
-30.3551
 20
-124.51
 11
-30.3
 21
-125
  0
LINE
  8
0
 10
-30.3
 20
-125
 11
-30.3551
 21
-125.49
  0
LINE
  8
0
 10
-30.3551
 20
-125.49
 11
-30.5179
 21
-125.955
  0
LINE
  8
0
 10
-30.5179
 20
-125.955
 11
-30.78
 21
-126.372
  0
LINE
  8
0
 10
-30.78
 20
-126.372
 11
-31.1283
 21
-126.72
  0
LINE
  8
0
 10
-31.1283
 20
-126.72
 11
-31.5455
 21
-126.982
  0
LINE
  8
0
 10
-31.5455
 20
-126.982
 11
-32.0105
 21
-127.145
  0
LINE
  8
0
 10
-32.0105
 20
-127.145
 11
-32.5
 21
-127.2
  0
LINE
  8
0
 10
-32.5
 20
-127.2
 11
-32.9895
 21
-127.145
  0
LINE
  8
0
 10
89.5105
 20
-143.645
 11
89.0455
 21
-143.482
  0
LINE
  8
0
 10
89.0455
 20
-143.482
 11
88.6283
 21
-143.22
  0
LINE
  8
0
 10
88.6283
 20
-143.22
 11
88.28
 21
-142.872
  0
LINE
  8
0
 10
88.28
 20
-142.872
 11
88.0179
 21
-142.455
  0
LINE
  8
0
 10
88.0179
 20
-142.455
 11
87.8551
 21
-141.99
  0
LINE
  8
0
 10
87.8551
 20
-141.99
 11
87.8
 21
-141.5
  0
LINE
  8
0
 10
87.8
 20
-141.5
 11
87.8551
 21
-141.01
  0
LINE
  8
0
 10
87.8551
 20
-141.01
 11
88.0179
 21
-140.545
  0
LINE
  8
0
 10
88.0179
 20
-140.545
 11
88.28
 21
-140.128
  0
LINE
  8
0
 10
88.28
 20
-140.128
 11
88.6283
 21
-139.78
  0
LINE
  8
0
 10
88.6283
 20
-139.78
 11
89.0455
 21
-139.518
  0
LINE
  8
0
 10
89.0455
 20
-139.518
 11
89.5105
 21
-139.355
  0
LINE
  8
0
 10
89.5105
 20
-139.355
 11
90
 21
-139.3
  0
LINE
  8
0
 10
90
 20
-139.3
 11
90.4895
 21
-139.355
  0
LINE
  8
0
 10
90.4895
 20
-139.355
 11
90.9545
 21
-139.518
  0
LINE
  8
0
 10
90.9545
 20
-139.518
 11
91.3717
 21
-139.78
  0
LINE
  8
0
 10
91.3717
 20
-139.78
 11
91.72
 21
-140.128
  0
LINE
  8
0
 10
91.72
 20
-140.128
 11
91.9821
 21
-140.545
  0
LINE
  8
0
 10
91.9821
 20
-140.545
 11
92.1448
 21
-141.01
  0
LINE
  8
0
 10
92.1448
 20
-141.01
 11
92.2
 21
-141.5
  0
LINE
  8
0
 10
92.2
 20
-141.5
 11
92.1448
 21
-141.99
  0
LINE
  8
0
 10
92.1448
 20
-141.99
 11
91.9821
 21
-142.455
  0
LINE
  8
0
 10
91.9821
 20
-142.455
 11
91.72
 21
-142.872
  0
LINE
  8
0
 10
91.72
 20
-142.872
 11
91.3717
 21
-143.22
  0
LINE
  8
0
 10
91.3717
 20
-143.22
 11
90.9545
 21
-143.482
  0
LINE
  8
0
 10
90.9545
 20
-143.482
 11
90.4895
 21
-143.645
  0
LINE
  8
0
 10
90.4895
 20
-143.645
 11
90
 21
-143.7
  0
LINE
  8
0
 10
90
 20
-143.7
 11
89.5105
 21
-143.645
  0
LINE
  8
0
 10
34.5105
 20
-143.645
 11
34.0455
 21
-143.482
  0
LINE
  8
0
 10
34.0455
 20
-143.482
 11
33.6283
 21
-143.22
  0
LINE
  8
0
 10
33.6283
 20
-143.22
 11
33.28
 21
-142.872
  0
LINE
  8
0
 10
33.28
 20
-142.872
 11
33.0179
 21
-142.455
  0
LINE
  8
0
 10
33.0179
 20
-142.455
 11
32.8551
 21
-141.99
  0
LINE
  8
0
 10
32.8551
 20
-141.99
 11
32.8
 21
-141.5
  0
LINE
  8
0
 10
32.8
 20
-141.5
 11
32.8551
 21
-141.01
  0
LINE
  8
0
 10
32.8551
 20
-141.01
 11
33.0179
 21
-140.545
  0
LINE
  8
0
 10
33.0179
 20
-140.545
 11
33.28
 21
-140.128
  0
LINE
  8
0
 10
33.28
 20
-140.128
 11
33.6283
 21
-139.78
  0
LINE
  8
0
 10
33.6283
 20
-139.78
 11
34.0455
 21
-139.518
  0
LINE
  8
0
 10
34.0455
 20
-139.518
 11
34.5105
 21
-139.355
  0
LINE
  8
0
 10
34.5105
 20
-139.355
 11
35
 21
-139.3
  0
LINE
  8
0
 10
35
 20
-139.3
 11
35.4895
 21
-139.355
  0
LINE
  8
0
 10
35.4895
 20
-139.355
 11
35.9545
 21
-139.518
  0
LINE
  8
0
 10
35.9545
 20
-139.518
 11
36.3717
 21
-139.78
  0
LINE
  8
0
 10
36.3717
 20
-139.78
 11
36.72
 21
-140.128
  0
LINE
  8
0
 10
36.72
 20
-140.128
 11
36.9821
 21
-140.545
  0
LINE
  8
0
 10
36.9821
 20
-140.545
 11
37.1448
 21
-141.01
  0
LINE
  8
0
 10
37.1448
 20
-141.01
 11
37.2
 21
-141.5
  0
LINE
  8
0
 10
37.2
 20
-141.5
 11
37.1448
 21
-141.99
  0
LINE
  8
0
 10
37.1448
 20
-141.99
 11
36.9821
 21
-142.455
  0
LINE
  8
0
 10
36.9821
 20
-142.455
 11
36.72
 21
-142.872
  0
LINE
  8
0
 10
36.72
 20
-142.872
 11
36.3717
 21
-143.22
  0
LINE
  8
0
 10
36.3717
 20
-143.22
 11
35.9545
 21
-143.482
  0
LINE
  8
0
 10
35.9545
 20
-143.482
 11
35.4895
 21
-143.645
  0
LINE
  8
0
 10
35.4895
 20
-143.645
 11
35
 21
-143.7
  0
LINE
  8
0
 10
35
 20
-143.7
 11
34.5105
 21
-143.645
  0
LINE
  8
0
 10
108.788
 20
-189.328
 11
135.588
 21
-162.528
  0
LINE
  8
0
 10
135.588
 20
-162.528
 11
140.113
 21
-167.054
  0
LINE
  8
0
 10
140.113
 20
-167.054
 11
113.314
 21
-193.853
  0
LINE
  8
0
 10
113.314
 20
-193.853
 11
108.788
 21
-189.328
  0
LINE
  8
0
 10
-140.113
 20
-167.054
 11
-135.588
 21
-162.528
  0
LINE
  8
0
 10
-135.588
 20
-162.528
 11
-108.788
 21
-189.328
  0
LINE
  8
0
 10
-108.788
 20
-189.328
 11
-113.314
 21
-193.853
  0
LINE
  8
0
 10
-113.314
 20
-193.853
 11
-140.113
 21
-167.054
  0
ENDSEC
  0
SECTION
  2
OBJECTS
  0
DICTIONARY
  0
ENDSEC
  0
EOF
