  0
SECTION
  2
BLOCKS
  0
ENDSEC
  0
SECTION
  2
ENTITIES
  0
LINE
  8
0
 10
-137.5
 20
-234.875
 11
-137.5
 21
-230
  0
LINE
  8
0
 10
-137.5
 20
-230
 11
-132.45
 21
-230
  0
LINE
  8
0
 10
-132.45
 20
-230
 11
-132.45
 21
-223.1
  0
LINE
  8
0
 10
-132.45
 20
-223.1
 11
-133.95
 21
-223.1
  0
LINE
  8
0
 10
-133.95
 20
-223.1
 11
-133.95
 21
-217.4
  0
LINE
  8
0
 10
-133.95
 20
-217.4
 11
-132.45
 21
-217.4
  0
LINE
  8
0
 10
-132.45
 20
-217.4
 11
-132.45
 21
-210.5
  0
LINE
  8
0
 10
-132.45
 20
-210.5
 11
-127.55
 21
-210.5
  0
LINE
  8
0
 10
-127.55
 20
-210.5
 11
-127.55
 21
-217.4
  0
LINE
  8
0
 10
-127.55
 20
-217.4
 11
-126.05
 21
-217.4
  0
LINE
  8
0
 10
-126.05
 20
-217.4
 11
-126.05
 21
-223.1
  0
LINE
  8
0
 10
-126.05
 20
-223.1
 11
-127.55
 21
-223.1
  0
LINE
  8
0
 10
-127.55
 20
-223.1
 11
-127.55
 21
-230
  0
LINE
  8
0
 10
-127.55
 20
-230
 11
-122.5
 21
-230
  0
LINE
  8
0
 10
-122.5
 20
-230
 11
-122.5
 21
-234.875
  0
LINE
  8
0
 10
-122.5
 20
-234.875
 11
-120.875
 21
-236.5
  0
LINE
  8
0
 10
-120.875
 20
-236.5
 11
-109.125
 21
-236.5
  0
LINE
  8
0
 10
-109.125
 20
-236.5
 11
-107.5
 21
-234.875
  0
LINE
  8
0
 10
-107.5
 20
-234.875
 11
-107.5
 21
-230
  0
LINE
  8
0
 10
-107.5
 20
-230
 11
-22.5
 21
-230
  0
LINE
  8
0
 10
-22.5
 20
-230
 11
-22.5
 21
-234.875
  0
LINE
  8
0
 10
-22.5
 20
-234.875
 11
-20.875
 21
-236.5
  0
LINE
  8
0
 10
-20.875
 20
-236.5
 11
-9.125
 21
-236.5
  0
LINE
  8
0
 10
-9.125
 20
-236.5
 11
-7.5
 21
-234.875
  0
LINE
  8
0
 10
-7.5
 20
-234.875
 11
-7.5
 21
-230
  0
LINE
  8
0
 10
-7.5
 20
-230
 11
-2.45
 21
-230
  0
LINE
  8
0
 10
-2.45
 20
-230
 11
-2.45
 21
-223.1
  0
LINE
  8
0
 10
-2.45
 20
-223.1
 11
-3.95
 21
-223.1
  0
LINE
  8
0
 10
-3.95
 20
-223.1
 11
-3.95
 21
-217.4
  0
LINE
  8
0
 10
-3.95
 20
-217.4
 11
-2.45
 21
-217.4
  0
LINE
  8
0
 10
-2.45
 20
-217.4
 11
-2.45
 21
-210.5
  0
LINE
  8
0
 10
-2.45
 20
-210.5
 11
2.45
 21
-210.5
  0
LINE
  8
0
 10
2.45
 20
-210.5
 11
2.45
 21
-217.4
  0
LINE
  8
0
 10
2.45
 20
-217.4
 11
3.95
 21
-217.4
  0
LINE
  8
0
 10
3.95
 20
-217.4
 11
3.95
 21
-223.1
  0
LINE
  8
0
 10
3.95
 20
-223.1
 11
2.45
 21
-223.1
  0
LINE
  8
0
 10
2.45
 20
-223.1
 11
2.45
 21
-230
  0
LINE
  8
0
 10
2.45
 20
-230
 11
7.5
 21
-230
  0
LINE
  8
0
 10
7.5
 20
-230
 11
7.5
 21
-234.875
  0
LINE
  8
0
 10
7.5
 20
-234.875
 11
9.125
 21
-236.5
  0
LINE
  8
0
 10
9.125
 20
-236.5
 11
20.875
 21
-236.5
  0
LINE
  8
0
 10
20.875
 20
-236.5
 11
22.5
 21
-234.875
  0
LINE
  8
0
 10
22.5
 20
-234.875
 11
22.5
 21
-230
  0
LINE
  8
0
 10
22.5
 20
-230
 11
107.5
 21
-230
  0
LINE
  8
0
 10
107.5
 20
-230
 11
107.5
 21
-234.875
  0
LINE
  8
0
 10
107.5
 20
-234.875
 11
109.125
 21
-236.5
  0
LINE
  8
0
 10
109.125
 20
-236.5
 11
120.875
 21
-236.5
  0
LINE
  8
0
 10
120.875
 20
-236.5
 11
122.5
 21
-234.875
  0
LINE
  8
0
 10
122.5
 20
-234.875
 11
122.5
 21
-230
  0
LINE
  8
0
 10
122.5
 20
-230
 11
127.55
 21
-230
  0
LINE
  8
0
 10
127.55
 20
-230
 11
127.55
 21
-223.1
  0
LINE
  8
0
 10
127.55
 20
-223.1
 11
126.05
 21
-223.1
  0
LINE
  8
0
 10
126.05
 20
-223.1
 11
126.05
 21
-217.4
  0
LINE
  8
0
 10
126.05
 20
-217.4
 11
127.55
 21
-217.4
  0
LINE
  8
0
 10
127.55
 20
-217.4
 11
127.55
 21
-210.5
  0
LINE
  8
0
 10
127.55
 20
-210.5
 11
132.45
 21
-210.5
  0
LINE
  8
0
 10
132.45
 20
-210.5
 11
132.45
 21
-217.4
  0
LINE
  8
0
 10
132.45
 20
-217.4
 11
133.95
 21
-217.4
  0
LINE
  8
0
 10
133.95
 20
-217.4
 11
133.95
 21
-223.1
  0
LINE
  8
0
 10
133.95
 20
-223.1
 11
132.45
 21
-223.1
  0
LINE
  8
0
 10
132.45
 20
-223.1
 11
132.45
 21
-230
  0
LINE
  8
0
 10
132.45
 20
-230
 11
137.5
 21
-230
  0
LINE
  8
0
 10
137.5
 20
-230
 11
137.5
 21
-234.875
  0
LINE
  8
0
 10
137.5
 20
-234.875
 11
139.125
 21
-236.5
  0
LINE
  8
0
 10
139.125
 20
-236.5
 11
150.875
 21
-236.5
  0
LINE
  8
0
 10
150.875
 20
-236.5
 11
152.5
 21
-234.875
  0
LINE
  8
0
 10
152.5
 20
-234.875
 11
152.5
 21
-230
  0
LINE
  8
0
 10
152.5
 20
-230
 11
210
 21
-230
  0
LINE
  8
0
 10
210
 20
-230
 11
210
 21
-190
  0
LINE
  8
0
 10
210
 20
-190
 11
230
 21
-190
  0
LINE
  8
0
 10
230
 20
-190
 11
230
 21
-152.5
  0
LINE
  8
0
 10
230
 20
-152.5
 11
234.875
 21
-152.5
  0
LINE
  8
0
 10
234.875
 20
-152.5
 11
236.5
 21
-150.875
  0
LINE
  8
0
 10
236.5
 20
-150.875
 11
236.5
 21
-139.125
  0
LINE
  8
0
 10
236.5
 20
-139.125
 11
234.875
 21
-137.5
  0
LINE
  8
0
 10
234.875
 20
-137.5
 11
230
 21
-137.5
  0
LINE
  8
0
 10
230
 20
-137.5
 11
230
 21
-132.45
  0
LINE
  8
0
 10
230
 20
-132.45
 11
223.1
 21
-132.45
  0
LINE
  8
0
 10
223.1
 20
-132.45
 11
223.1
 21
-133.95
  0
LINE
  8
0
 10
223.1
 20
-133.95
 11
217.4
 21
-133.95
  0
LINE
  8
0
 10
217.4
 20
-133.95
 11
217.4
 21
-132.45
  0
LINE
  8
0
 10
217.4
 20
-132.45
 11
210.5
 21
-132.45
  0
LINE
  8
0
 10
210.5
 20
-132.45
 11
210.5
 21
-127.55
  0
LINE
  8
0
 10
210.5
 20
-127.55
 11
217.4
 21
-127.55
  0
LINE
  8
0
 10
217.4
 20
-127.55
 11
217.4
 21
-126.05
  0
LINE
  8
0
 10
217.4
 20
-126.05
 11
223.1
 21
-126.05
  0
LINE
  8
0
 10
223.1
 20
-126.05
 11
223.1
 21
-127.55
  0
LINE
  8
0
 10
223.1
 20
-127.55
 11
230
 21
-127.55
  0
LINE
  8
0
 10
230
 20
-127.55
 11
230
 21
-122.5
  0
LINE
  8
0
 10
230
 20
-122.5
 11
234.875
 21
-122.5
  0
LINE
  8
0
 10
234.875
 20
-122.5
 11
236.5
 21
-120.875
  0
LINE
  8
0
 10
236.5
 20
-120.875
 11
236.5
 21
-109.125
  0
LINE
  8
0
 10
236.5
 20
-109.125
 11
234.875
 21
-107.5
  0
LINE
  8
0
 10
234.875
 20
-107.5
 11
230
 21
-107.5
  0
LINE
  8
0
 10
230
 20
-107.5
 11
230
 21
-22.5
  0
LINE
  8
0
 10
230
 20
-22.5
 11
234.875
 21
-22.5
  0
LINE
  8
0
 10
234.875
 20
-22.5
 11
236.5
 21
-20.875
  0
LINE
  8
0
 10
236.5
 20
-20.875
 11
236.5
 21
-9.125
  0
LINE
  8
0
 10
236.5
 20
-9.125
 11
234.875
 21
-7.5
  0
LINE
  8
0
 10
234.875
 20
-7.5
 11
230
 21
-7.5
  0
LINE
  8
0
 10
230
 20
-7.5
 11
230
 21
-2.45
  0
LINE
  8
0
 10
230
 20
-2.45
 11
223.1
 21
-2.45
  0
LINE
  8
0
 10
223.1
 20
-2.45
 11
223.1
 21
-3.95
  0
LINE
  8
0
 10
223.1
 20
-3.95
 11
217.4
 21
-3.95
  0
LINE
  8
0
 10
217.4
 20
-3.95
 11
217.4
 21
-2.45
  0
LINE
  8
0
 10
217.4
 20
-2.45
 11
210.5
 21
-2.45
  0
LINE
  8
0
 10
210.5
 20
-2.45
 11
210.5
 21
2.45
  0
LINE
  8
0
 10
210.5
 20
2.45
 11
217.4
 21
2.45
  0
LINE
  8
0
 10
217.4
 20
2.45
 11
217.4
 21
3.95
  0
LINE
  8
0
 10
217.4
 20
3.95
 11
223.1
 21
3.95
  0
LINE
  8
0
 10
223.1
 20
3.95
 11
223.1
 21
2.45
  0
LINE
  8
0
 10
223.1
 20
2.45
 11
230
 21
2.45
  0
LINE
  8
0
 10
230
 20
2.45
 11
230
 21
7.5
  0
LINE
  8
0
 10
230
 20
7.5
 11
234.875
 21
7.5
  0
LINE
  8
0
 10
234.875
 20
7.5
 11
236.5
 21
9.125
  0
LINE
  8
0
 10
236.5
 20
9.125
 11
236.5
 21
20.875
  0
LINE
  8
0
 10
236.5
 20
20.875
 11
234.875
 21
22.5
  0
LINE
  8
0
 10
234.875
 20
22.5
 11
230
 21
22.5
  0
LINE
  8
0
 10
230
 20
22.5
 11
230
 21
107.5
  0
LINE
  8
0
 10
230
 20
107.5
 11
234.875
 21
107.5
  0
LINE
  8
0
 10
234.875
 20
107.5
 11
236.5
 21
109.125
  0
LINE
  8
0
 10
236.5
 20
109.125
 11
236.5
 21
120.875
  0
LINE
  8
0
 10
236.5
 20
120.875
 11
234.875
 21
122.5
  0
LINE
  8
0
 10
234.875
 20
122.5
 11
230
 21
122.5
  0
LINE
  8
0
 10
230
 20
122.5
 11
230
 21
127.55
  0
LINE
  8
0
 10
230
 20
127.55
 11
223.1
 21
127.55
  0
LINE
  8
0
 10
223.1
 20
127.55
 11
223.1
 21
126.05
  0
LINE
  8
0
 10
223.1
 20
126.05
 11
217.4
 21
126.05
  0
LINE
  8
0
 10
217.4
 20
126.05
 11
217.4
 21
127.55
  0
LINE
  8
0
 10
217.4
 20
127.55
 11
210.5
 21
127.55
  0
LINE
  8
0
 10
210.5
 20
127.55
 11
210.5
 21
132.45
  0
LINE
  8
0
 10
210.5
 20
132.45
 11
217.4
 21
132.45
  0
LINE
  8
0
 10
217.4
 20
132.45
 11
217.4
 21
133.95
  0
LINE
  8
0
 10
217.4
 20
133.95
 11
223.1
 21
133.95
  0
LINE
  8
0
 10
223.1
 20
133.95
 11
223.1
 21
132.45
  0
LINE
  8
0
 10
223.1
 20
132.45
 11
230
 21
132.45
  0
LINE
  8
0
 10
230
 20
132.45
 11
230
 21
137.5
  0
LINE
  8
0
 10
230
 20
137.5
 11
234.875
 21
137.5
  0
LINE
  8
0
 10
234.875
 20
137.5
 11
236.5
 21
139.125
  0
LINE
  8
0
 10
236.5
 20
139.125
 11
236.5
 21
150.875
  0
LINE
  8
0
 10
236.5
 20
150.875
 11
234.875
 21
152.5
  0
LINE
  8
0
 10
234.875
 20
152.5
 11
230
 21
152.5
  0
LINE
  8
0
 10
230
 20
152.5
 11
230
 21
190
  0
LINE
  8
0
 10
230
 20
190
 11
210
 21
190
  0
LINE
  8
0
 10
210
 20
190
 11
210
 21
215.75
  0
LINE
  8
0
 10
210
 20
215.75
 11
208
 21
215.75
  0
LINE
  8
0
 10
208
 20
215.75
 11
208
 21
224.25
  0
LINE
  8
0
 10
208
 20
224.25
 11
210
 21
224.25
  0
LINE
  8
0
 10
210
 20
224.25
 11
210
 21
230
  0
LINE
  8
0
 10
210
 20
230
 11
152.5
 21
230
  0
LINE
  8
0
 10
152.5
 20
230
 11
152.5
 21
234.875
  0
LINE
  8
0
 10
152.5
 20
234.875
 11
150.875
 21
236.5
  0
LINE
  8
0
 10
150.875
 20
236.5
 11
139.125
 21
236.5
  0
LINE
  8
0
 10
139.125
 20
236.5
 11
137.5
 21
234.875
  0
LINE
  8
0
 10
137.5
 20
234.875
 11
137.5
 21
230
  0
LINE
  8
0
 10
137.5
 20
230
 11
132.45
 21
230
  0
LINE
  8
0
 10
132.45
 20
230
 11
132.45
 21
223.1
  0
LINE
  8
0
 10
132.45
 20
223.1
 11
133.95
 21
223.1
  0
LINE
  8
0
 10
133.95
 20
223.1
 11
133.95
 21
217.4
  0
LINE
  8
0
 10
133.95
 20
217.4
 11
132.45
 21
217.4
  0
LINE
  8
0
 10
132.45
 20
217.4
 11
132.45
 21
210.5
  0
LINE
  8
0
 10
132.45
 20
210.5
 11
127.55
 21
210.5
  0
LINE
  8
0
 10
127.55
 20
210.5
 11
127.55
 21
217.4
  0
LINE
  8
0
 10
127.55
 20
217.4
 11
126.05
 21
217.4
  0
LINE
  8
0
 10
126.05
 20
217.4
 11
126.05
 21
223.1
  0
LINE
  8
0
 10
126.05
 20
223.1
 11
127.55
 21
223.1
  0
LINE
  8
0
 10
127.55
 20
223.1
 11
127.55
 21
230
  0
LINE
  8
0
 10
127.55
 20
230
 11
122.5
 21
230
  0
LINE
  8
0
 10
122.5
 20
230
 11
122.5
 21
234.875
  0
LINE
  8
0
 10
122.5
 20
234.875
 11
120.875
 21
236.5
  0
LINE
  8
0
 10
120.875
 20
236.5
 11
109.125
 21
236.5
  0
LINE
  8
0
 10
109.125
 20
236.5
 11
107.5
 21
234.875
  0
LINE
  8
0
 10
107.5
 20
234.875
 11
107.5
 21
230
  0
LINE
  8
0
 10
107.5
 20
230
 11
22.5
 21
230
  0
LINE
  8
0
 10
22.5
 20
230
 11
22.5
 21
234.875
  0
LINE
  8
0
 10
22.5
 20
234.875
 11
20.875
 21
236.5
  0
LINE
  8
0
 10
20.875
 20
236.5
 11
9.125
 21
236.5
  0
LINE
  8
0
 10
9.125
 20
236.5
 11
7.5
 21
234.875
  0
LINE
  8
0
 10
7.5
 20
234.875
 11
7.5
 21
230
  0
LINE
  8
0
 10
7.5
 20
230
 11
2.45
 21
230
  0
LINE
  8
0
 10
2.45
 20
230
 11
2.45
 21
223.1
  0
LINE
  8
0
 10
2.45
 20
223.1
 11
3.95
 21
223.1
  0
LINE
  8
0
 10
3.95
 20
223.1
 11
3.95
 21
217.4
  0
LINE
  8
0
 10
3.95
 20
217.4
 11
2.45
 21
217.4
  0
LINE
  8
0
 10
2.45
 20
217.4
 11
2.45
 21
210.5
  0
LINE
  8
0
 10
2.45
 20
210.5
 11
-2.45
 21
210.5
  0
LINE
  8
0
 10
-2.45
 20
210.5
 11
-2.45
 21
217.4
  0
LINE
  8
0
 10
-2.45
 20
217.4
 11
-3.95
 21
217.4
  0
LINE
  8
0
 10
-3.95
 20
217.4
 11
-3.95
 21
223.1
  0
LINE
  8
0
 10
-3.95
 20
223.1
 11
-2.45
 21
223.1
  0
LINE
  8
0
 10
-2.45
 20
223.1
 11
-2.45
 21
230
  0
LINE
  8
0
 10
-2.45
 20
230
 11
-7.5
 21
230
  0
LINE
  8
0
 10
-7.5
 20
230
 11
-7.5
 21
234.875
  0
LINE
  8
0
 10
-7.5
 20
234.875
 11
-9.125
 21
236.5
  0
LINE
  8
0
 10
-9.125
 20
236.5
 11
-20.875
 21
236.5
  0
LINE
  8
0
 10
-20.875
 20
236.5
 11
-22.5
 21
234.875
  0
LINE
  8
0
 10
-22.5
 20
234.875
 11
-22.5
 21
230
  0
LINE
  8
0
 10
-22.5
 20
230
 11
-107.5
 21
230
  0
LINE
  8
0
 10
-107.5
 20
230
 11
-107.5
 21
234.875
  0
LINE
  8
0
 10
-107.5
 20
234.875
 11
-109.125
 21
236.5
  0
LINE
  8
0
 10
-109.125
 20
236.5
 11
-120.875
 21
236.5
  0
LINE
  8
0
 10
-120.875
 20
236.5
 11
-122.5
 21
234.875
  0
LINE
  8
0
 10
-122.5
 20
234.875
 11
-122.5
 21
230
  0
LINE
  8
0
 10
-122.5
 20
230
 11
-127.55
 21
230
  0
LINE
  8
0
 10
-127.55
 20
230
 11
-127.55
 21
223.1
  0
LINE
  8
0
 10
-127.55
 20
223.1
 11
-126.05
 21
223.1
  0
LINE
  8
0
 10
-126.05
 20
223.1
 11
-126.05
 21
217.4
  0
LINE
  8
0
 10
-126.05
 20
217.4
 11
-127.55
 21
217.4
  0
LINE
  8
0
 10
-127.55
 20
217.4
 11
-127.55
 21
210.5
  0
LINE
  8
0
 10
-127.55
 20
210.5
 11
-132.45
 21
210.5
  0
LINE
  8
0
 10
-132.45
 20
210.5
 11
-132.45
 21
217.4
  0
LINE
  8
0
 10
-132.45
 20
217.4
 11
-133.95
 21
217.4
  0
LINE
  8
0
 10
-133.95
 20
217.4
 11
-133.95
 21
223.1
  0
LINE
  8
0
 10
-133.95
 20
223.1
 11
-132.45
 21
223.1
  0
LINE
  8
0
 10
-132.45
 20
223.1
 11
-132.45
 21
230
  0
LINE
  8
0
 10
-132.45
 20
230
 11
-137.5
 21
230
  0
LINE
  8
0
 10
-137.5
 20
230
 11
-137.5
 21
234.875
  0
LINE
  8
0
 10
-137.5
 20
234.875
 11
-139.125
 21
236.5
  0
LINE
  8
0
 10
-139.125
 20
236.5
 11
-150.875
 21
236.5
  0
LINE
  8
0
 10
-150.875
 20
236.5
 11
-152.5
 21
234.875
  0
LINE
  8
0
 10
-152.5
 20
234.875
 11
-152.5
 21
230
  0
LINE
  8
0
 10
-152.5
 20
230
 11
-210
 21
230
  0
LINE
  8
0
 10
-210
 20
230
 11
-210
 21
224.25
  0
LINE
  8
0
 10
-210
 20
224.25
 11
-208
 21
224.25
  0
LINE
  8
0
 10
-208
 20
224.25
 11
-208
 21
215.75
  0
LINE
  8
0
 10
-208
 20
215.75
 11
-210
 21
215.75
  0
LINE
  8
0
 10
-210
 20
215.75
 11
-210
 21
190
  0
LINE
  8
0
 10
-210
 20
190
 11
-230
 21
190
  0
LINE
  8
0
 10
-230
 20
190
 11
-230
 21
152.5
  0
LINE
  8
0
 10
-230
 20
152.5
 11
-234.875
 21
152.5
  0
LINE
  8
0
 10
-234.875
 20
152.5
 11
-236.5
 21
150.875
  0
LINE
  8
0
 10
-236.5
 20
150.875
 11
-236.5
 21
139.125
  0
LINE
  8
0
 10
-236.5
 20
139.125
 11
-234.875
 21
137.5
  0
LINE
  8
0
 10
-234.875
 20
137.5
 11
-230
 21
137.5
  0
LINE
  8
0
 10
-230
 20
137.5
 11
-230
 21
132.45
  0
LINE
  8
0
 10
-230
 20
132.45
 11
-223.1
 21
132.45
  0
LINE
  8
0
 10
-223.1
 20
132.45
 11
-223.1
 21
133.95
  0
LINE
  8
0
 10
-223.1
 20
133.95
 11
-217.4
 21
133.95
  0
LINE
  8
0
 10
-217.4
 20
133.95
 11
-217.4
 21
132.45
  0
LINE
  8
0
 10
-217.4
 20
132.45
 11
-210.5
 21
132.45
  0
LINE
  8
0
 10
-210.5
 20
132.45
 11
-210.5
 21
127.55
  0
LINE
  8
0
 10
-210.5
 20
127.55
 11
-217.4
 21
127.55
  0
LINE
  8
0
 10
-217.4
 20
127.55
 11
-217.4
 21
126.05
  0
LINE
  8
0
 10
-217.4
 20
126.05
 11
-223.1
 21
126.05
  0
LINE
  8
0
 10
-223.1
 20
126.05
 11
-223.1
 21
127.55
  0
LINE
  8
0
 10
-223.1
 20
127.55
 11
-230
 21
127.55
  0
LINE
  8
0
 10
-230
 20
127.55
 11
-230
 21
122.5
  0
LINE
  8
0
 10
-230
 20
122.5
 11
-234.875
 21
122.5
  0
LINE
  8
0
 10
-234.875
 20
122.5
 11
-236.5
 21
120.875
  0
LINE
  8
0
 10
-236.5
 20
120.875
 11
-236.5
 21
109.125
  0
LINE
  8
0
 10
-236.5
 20
109.125
 11
-234.875
 21
107.5
  0
LINE
  8
0
 10
-234.875
 20
107.5
 11
-230
 21
107.5
  0
LINE
  8
0
 10
-230
 20
107.5
 11
-230
 21
22.5
  0
LINE
  8
0
 10
-230
 20
22.5
 11
-234.875
 21
22.5
  0
LINE
  8
0
 10
-234.875
 20
22.5
 11
-236.5
 21
20.875
  0
LINE
  8
0
 10
-236.5
 20
20.875
 11
-236.5
 21
9.125
  0
LINE
  8
0
 10
-236.5
 20
9.125
 11
-234.875
 21
7.5
  0
LINE
  8
0
 10
-234.875
 20
7.5
 11
-230
 21
7.5
  0
LINE
  8
0
 10
-230
 20
7.5
 11
-230
 21
2.45
  0
LINE
  8
0
 10
-230
 20
2.45
 11
-223.1
 21
2.45
  0
LINE
  8
0
 10
-223.1
 20
2.45
 11
-223.1
 21
3.95
  0
LINE
  8
0
 10
-223.1
 20
3.95
 11
-217.4
 21
3.95
  0
LINE
  8
0
 10
-217.4
 20
3.95
 11
-217.4
 21
2.45
  0
LINE
  8
0
 10
-217.4
 20
2.45
 11
-210.5
 21
2.45
  0
LINE
  8
0
 10
-210.5
 20
2.45
 11
-210.5
 21
-2.45
  0
LINE
  8
0
 10
-210.5
 20
-2.45
 11
-217.4
 21
-2.45
  0
LINE
  8
0
 10
-217.4
 20
-2.45
 11
-217.4
 21
-3.95
  0
LINE
  8
0
 10
-217.4
 20
-3.95
 11
-223.1
 21
-3.95
  0
LINE
  8
0
 10
-223.1
 20
-3.95
 11
-223.1
 21
-2.45
  0
LINE
  8
0
 10
-223.1
 20
-2.45
 11
-230
 21
-2.45
  0
LINE
  8
0
 10
-230
 20
-2.45
 11
-230
 21
-7.5
  0
LINE
  8
0
 10
-230
 20
-7.5
 11
-234.875
 21
-7.5
  0
LINE
  8
0
 10
-234.875
 20
-7.5
 11
-236.5
 21
-9.125
  0
LINE
  8
0
 10
-236.5
 20
-9.125
 11
-236.5
 21
-20.875
  0
LINE
  8
0
 10
-236.5
 20
-20.875
 11
-234.875
 21
-22.5
  0
LINE
  8
0
 10
-234.875
 20
-22.5
 11
-230
 21
-22.5
  0
LINE
  8
0
 10
-230
 20
-22.5
 11
-230
 21
-107.5
  0
LINE
  8
0
 10
-230
 20
-107.5
 11
-234.875
 21
-107.5
  0
LINE
  8
0
 10
-234.875
 20
-107.5
 11
-236.5
 21
-109.125
  0
LINE
  8
0
 10
-236.5
 20
-109.125
 11
-236.5
 21
-120.875
  0
LINE
  8
0
 10
-236.5
 20
-120.875
 11
-234.875
 21
-122.5
  0
LINE
  8
0
 10
-234.875
 20
-122.5
 11
-230
 21
-122.5
  0
LINE
  8
0
 10
-230
 20
-122.5
 11
-230
 21
-127.55
  0
LINE
  8
0
 10
-230
 20
-127.55
 11
-223.1
 21
-127.55
  0
LINE
  8
0
 10
-223.1
 20
-127.55
 11
-223.1
 21
-126.05
  0
LINE
  8
0
 10
-223.1
 20
-126.05
 11
-217.4
 21
-126.05
  0
LINE
  8
0
 10
-217.4
 20
-126.05
 11
-217.4
 21
-127.55
  0
LINE
  8
0
 10
-217.4
 20
-127.55
 11
-210.5
 21
-127.55
  0
LINE
  8
0
 10
-210.5
 20
-127.55
 11
-210.5
 21
-132.45
  0
LINE
  8
0
 10
-210.5
 20
-132.45
 11
-217.4
 21
-132.45
  0
LINE
  8
0
 10
-217.4
 20
-132.45
 11
-217.4
 21
-133.95
  0
LINE
  8
0
 10
-217.4
 20
-133.95
 11
-223.1
 21
-133.95
  0
LINE
  8
0
 10
-223.1
 20
-133.95
 11
-223.1
 21
-132.45
  0
LINE
  8
0
 10
-223.1
 20
-132.45
 11
-230
 21
-132.45
  0
LINE
  8
0
 10
-230
 20
-132.45
 11
-230
 21
-137.5
  0
LINE
  8
0
 10
-230
 20
-137.5
 11
-234.875
 21
-137.5
  0
LINE
  8
0
 10
-234.875
 20
-137.5
 11
-236.5
 21
-139.125
  0
LINE
  8
0
 10
-236.5
 20
-139.125
 11
-236.5
 21
-150.875
  0
LINE
  8
0
 10
-236.5
 20
-150.875
 11
-234.875
 21
-152.5
  0
LINE
  8
0
 10
-234.875
 20
-152.5
 11
-230
 21
-152.5
  0
LINE
  8
0
 10
-230
 20
-152.5
 11
-230
 21
-190
  0
LINE
  8
0
 10
-230
 20
-190
 11
-210
 21
-190
  0
LINE
  8
0
 10
-210
 20
-190
 11
-210
 21
-230
  0
LINE
  8
0
 10
-210
 20
-230
 11
-152.5
 21
-230
  0
LINE
  8
0
 10
-152.5
 20
-230
 11
-152.5
 21
-234.875
  0
LINE
  8
0
 10
-152.5
 20
-234.875
 11
-150.875
 21
-236.5
  0
LINE
  8
0
 10
-150.875
 20
-236.5
 11
-139.125
 21
-236.5
  0
LINE
  8
0
 10
-139.125
 20
-236.5
 11
-137.5
 21
-234.875
  0
LINE
  8
0
 10
195
 20
215.75
 11
195
 21
224.25
  0
LINE
  8
0
 10
195
 20
224.25
 11
199
 21
224.25
  0
LINE
  8
0
 10
199
 20
224.25
 11
199
 21
215.75
  0
LINE
  8
0
 10
199
 20
215.75
 11
195
 21
215.75
  0
LINE
  8
0
 10
-199
 20
215.75
 11
-199
 21
224.25
  0
LINE
  8
0
 10
-199
 20
224.25
 11
-195
 21
224.25
  0
LINE
  8
0
 10
-195
 20
224.25
 11
-195
 21
215.75
  0
LINE
  8
0
 10
-195
 20
215.75
 11
-199
 21
215.75
  0
LINE
  8
0
 10
-129.507
 20
156.447
 11
-102.707
 21
183.247
  0
LINE
  8
0
 10
-102.707
 20
183.247
 11
-98.1818
 21
178.721
  0
LINE
  8
0
 10
-98.1818
 20
178.721
 11
-124.981
 21
151.922
  0
LINE
  8
0
 10
-124.981
 20
151.922
 11
-129.507
 21
156.447
  0
LINE
  8
0
 10
98.1818
 20
178.721
 11
102.707
 21
183.247
  0
LINE
  8
0
 10
102.707
 20
183.247
 11
129.507
 21
156.447
  0
LINE
  8
0
 10
129.507
 20
156.447
 11
124.981
 21
151.922
  0
LINE
  8
0
 10
124.981
 20
151.922
 11
98.1818
 21
178.721
  0
LINE
  8
0
 10
-183.247
 20
102.707
 11
-156.447
 21
129.507
  0
LINE
  8
0
 10
-156.447
 20
129.507
 11
-151.922
 21
124.981
  0
LINE
  8
0
 10
-151.922
 20
124.981
 11
-178.721
 21
98.1818
  0
LINE
  8
0
 10
-178.721
 20
98.1818
 11
-183.247
 21
102.707
  0
LINE
  8
0
 10
151.922
 20
124.981
 11
156.447
 21
129.507
  0
LINE
  8
0
 10
156.447
 20
129.507
 11
183.247
 21
102.707
  0
LINE
  8
0
 10
183.247
 20
102.707
 11
178.721
 21
98.1818
  0
LINE
  8
0
 10
178.721
 20
98.1818
 11
151.922
 21
124.981
  0
LINE
  8
0
 10
-4.50484
 20
-2.16942
 11
-4.50484
 21
2.16942
  0
LINE
  8
0
 10
-4.50484
 20
2.16942
 11
-1.11259
 21
4.87463
  0
LINE
  8
0
 10
-1.11259
 20
4.87463
 11
3.11745
 21
3.90915
  0
LINE
  8
0
 10
3.11745
 20
3.90915
 11
5
 21
0
  0
LINE
  8
0
 10
5
 20
0
 11
3.11745
 21
-3.90915
  0
LINE
  8
0
 10
3.11745
 20
-3.90915
 11
-1.11259
 21
-4.87463
  0
LINE
  8
0
 10
-1.11259
 20
-4.87463
 11
-4.50484
 21
-2.16942
  0
LINE
  8
0
 10
-183.247
 20
-102.707
 11
-178.721
 21
-98.1818
  0
LINE
  8
0
 10
-178.721
 20
-98.1818
 11
-151.922
 21
-124.981
  0
LINE
  8
0
 10
-151.922
 20
-124.981
 11
-156.447
 21
-129.507
  0
LINE
  8
0
 10
-156.447
 20
-129.507
 11
-183.247
 21
-102.707
  0
LINE
  8
0
 10
151.922
 20
-124.981
 11
178.721
 21
-98.1818
  0
LINE
  8
0
 10
178.721
 20
-98.1818
 11
183.247
 21
-102.707
  0
LINE
  8
0
 10
183.247
 20
-102.707
 11
156.447
 21
-129.507
  0
LINE
  8
0
 10
156.447
 20
-129.507
 11
151.922
 21
-124.981
  0
LINE
  8
0
 10
-129.507
 20
-156.447
 11
-124.981
 21
-151.922
  0
LINE
  8
0
 10
-124.981
 20
-151.922
 11
-98.1818
 21
-178.721
  0
LINE
  8
0
 10
-98.1818
 20
-178.721
 11
-102.707
 21
-183.247
  0
LINE
  8
0
 10
-102.707
 20
-183.247
 11
-129.507
 21
-156.447
  0
LINE
  8
0
 10
98.1818
 20
-178.721
 11
124.981
 21
-151.922
  0
LINE
  8
0
 10
124.981
 20
-151.922
 11
129.507
 21
-156.447
  0
LINE
  8
0
 10
129.507
 20
-156.447
 11
102.707
 21
-183.247
  0
LINE
  8
0
 10
102.707
 20
-183.247
 11
98.1818
 21
-178.721
  0
ENDSEC
  0
SECTION
  2
OBJECTS
  0
DICTIONARY
  0
ENDSEC
  0
EOF
