  0
SECTION
  2
BLOCKS
  0
ENDSEC
  0
SECTION
  2
ENTITIES
  0
LINE
  8
0
 10
-117.5
 20
-214.875
 11
-117.5
 21
-210
  0
LINE
  8
0
 10
-117.5
 20
-210
 11
-112.45
 21
-210
  0
LINE
  8
0
 10
-112.45
 20
-210
 11
-112.45
 21
-203.1
  0
LINE
  8
0
 10
-112.45
 20
-203.1
 11
-114.345
 21
-203.1
  0
LINE
  8
0
 10
-114.345
 20
-203.1
 11
-114.345
 21
-197.4
  0
LINE
  8
0
 10
-114.345
 20
-197.4
 11
-112.45
 21
-197.4
  0
LINE
  8
0
 10
-112.45
 20
-197.4
 11
-112.45
 21
-190.5
  0
LINE
  8
0
 10
-112.45
 20
-190.5
 11
-107.55
 21
-190.5
  0
LINE
  8
0
 10
-107.55
 20
-190.5
 11
-107.55
 21
-197.4
  0
LINE
  8
0
 10
-107.55
 20
-197.4
 11
-105.655
 21
-197.4
  0
LINE
  8
0
 10
-105.655
 20
-197.4
 11
-105.655
 21
-203.1
  0
LINE
  8
0
 10
-105.655
 20
-203.1
 11
-107.55
 21
-203.1
  0
LINE
  8
0
 10
-107.55
 20
-203.1
 11
-107.55
 21
-210
  0
LINE
  8
0
 10
-107.55
 20
-210
 11
-102.5
 21
-210
  0
LINE
  8
0
 10
-102.5
 20
-210
 11
-102.5
 21
-214.875
  0
LINE
  8
0
 10
-102.5
 20
-214.875
 11
-100.875
 21
-216.5
  0
LINE
  8
0
 10
-100.875
 20
-216.5
 11
-89.125
 21
-216.5
  0
LINE
  8
0
 10
-89.125
 20
-216.5
 11
-87.5
 21
-214.875
  0
LINE
  8
0
 10
-87.5
 20
-214.875
 11
-87.5
 21
-210
  0
LINE
  8
0
 10
-87.5
 20
-210
 11
87.5
 21
-210
  0
LINE
  8
0
 10
87.5
 20
-210
 11
87.5
 21
-214.875
  0
LINE
  8
0
 10
87.5
 20
-214.875
 11
89.125
 21
-216.5
  0
LINE
  8
0
 10
89.125
 20
-216.5
 11
100.875
 21
-216.5
  0
LINE
  8
0
 10
100.875
 20
-216.5
 11
102.5
 21
-214.875
  0
LINE
  8
0
 10
102.5
 20
-214.875
 11
102.5
 21
-210
  0
LINE
  8
0
 10
102.5
 20
-210
 11
107.55
 21
-210
  0
LINE
  8
0
 10
107.55
 20
-210
 11
107.55
 21
-203.1
  0
LINE
  8
0
 10
107.55
 20
-203.1
 11
105.655
 21
-203.1
  0
LINE
  8
0
 10
105.655
 20
-203.1
 11
105.655
 21
-197.4
  0
LINE
  8
0
 10
105.655
 20
-197.4
 11
107.55
 21
-197.4
  0
LINE
  8
0
 10
107.55
 20
-197.4
 11
107.55
 21
-190.5
  0
LINE
  8
0
 10
107.55
 20
-190.5
 11
112.45
 21
-190.5
  0
LINE
  8
0
 10
112.45
 20
-190.5
 11
112.45
 21
-197.4
  0
LINE
  8
0
 10
112.45
 20
-197.4
 11
114.345
 21
-197.4
  0
LINE
  8
0
 10
114.345
 20
-197.4
 11
114.345
 21
-203.1
  0
LINE
  8
0
 10
114.345
 20
-203.1
 11
112.45
 21
-203.1
  0
LINE
  8
0
 10
112.45
 20
-203.1
 11
112.45
 21
-210
  0
LINE
  8
0
 10
112.45
 20
-210
 11
117.5
 21
-210
  0
LINE
  8
0
 10
117.5
 20
-210
 11
117.5
 21
-214.875
  0
LINE
  8
0
 10
117.5
 20
-214.875
 11
119.125
 21
-216.5
  0
LINE
  8
0
 10
119.125
 20
-216.5
 11
130.875
 21
-216.5
  0
LINE
  8
0
 10
130.875
 20
-216.5
 11
132.5
 21
-214.875
  0
LINE
  8
0
 10
132.5
 20
-214.875
 11
132.5
 21
-210
  0
LINE
  8
0
 10
132.5
 20
-210
 11
190
 21
-210
  0
LINE
  8
0
 10
190
 20
-210
 11
190
 21
-170
  0
LINE
  8
0
 10
190
 20
-170
 11
210
 21
-170
  0
LINE
  8
0
 10
210
 20
-170
 11
210
 21
-132.5
  0
LINE
  8
0
 10
210
 20
-132.5
 11
214.875
 21
-132.5
  0
LINE
  8
0
 10
214.875
 20
-132.5
 11
216.5
 21
-130.875
  0
LINE
  8
0
 10
216.5
 20
-130.875
 11
216.5
 21
-119.125
  0
LINE
  8
0
 10
216.5
 20
-119.125
 11
214.875
 21
-117.5
  0
LINE
  8
0
 10
214.875
 20
-117.5
 11
210
 21
-117.5
  0
LINE
  8
0
 10
210
 20
-117.5
 11
210
 21
-112.45
  0
LINE
  8
0
 10
210
 20
-112.45
 11
203.1
 21
-112.45
  0
LINE
  8
0
 10
203.1
 20
-112.45
 11
203.1
 21
-114.345
  0
LINE
  8
0
 10
203.1
 20
-114.345
 11
197.4
 21
-114.345
  0
LINE
  8
0
 10
197.4
 20
-114.345
 11
197.4
 21
-112.45
  0
LINE
  8
0
 10
197.4
 20
-112.45
 11
190.5
 21
-112.45
  0
LINE
  8
0
 10
190.5
 20
-112.45
 11
190.5
 21
-107.55
  0
LINE
  8
0
 10
190.5
 20
-107.55
 11
197.4
 21
-107.55
  0
LINE
  8
0
 10
197.4
 20
-107.55
 11
197.4
 21
-105.655
  0
LINE
  8
0
 10
197.4
 20
-105.655
 11
203.1
 21
-105.655
  0
LINE
  8
0
 10
203.1
 20
-105.655
 11
203.1
 21
-107.55
  0
LINE
  8
0
 10
203.1
 20
-107.55
 11
210
 21
-107.55
  0
LINE
  8
0
 10
210
 20
-107.55
 11
210
 21
-102.5
  0
LINE
  8
0
 10
210
 20
-102.5
 11
214.875
 21
-102.5
  0
LINE
  8
0
 10
214.875
 20
-102.5
 11
216.5
 21
-100.875
  0
LINE
  8
0
 10
216.5
 20
-100.875
 11
216.5
 21
-89.125
  0
LINE
  8
0
 10
216.5
 20
-89.125
 11
214.875
 21
-87.5
  0
LINE
  8
0
 10
214.875
 20
-87.5
 11
210
 21
-87.5
  0
LINE
  8
0
 10
210
 20
-87.5
 11
210
 21
87.5
  0
LINE
  8
0
 10
210
 20
87.5
 11
214.875
 21
87.5
  0
LINE
  8
0
 10
214.875
 20
87.5
 11
216.5
 21
89.125
  0
LINE
  8
0
 10
216.5
 20
89.125
 11
216.5
 21
100.875
  0
LINE
  8
0
 10
216.5
 20
100.875
 11
214.875
 21
102.5
  0
LINE
  8
0
 10
214.875
 20
102.5
 11
210
 21
102.5
  0
LINE
  8
0
 10
210
 20
102.5
 11
210
 21
107.55
  0
LINE
  8
0
 10
210
 20
107.55
 11
203.1
 21
107.55
  0
LINE
  8
0
 10
203.1
 20
107.55
 11
203.1
 21
105.655
  0
LINE
  8
0
 10
203.1
 20
105.655
 11
197.4
 21
105.655
  0
LINE
  8
0
 10
197.4
 20
105.655
 11
197.4
 21
107.55
  0
LINE
  8
0
 10
197.4
 20
107.55
 11
190.5
 21
107.55
  0
LINE
  8
0
 10
190.5
 20
107.55
 11
190.5
 21
112.45
  0
LINE
  8
0
 10
190.5
 20
112.45
 11
197.4
 21
112.45
  0
LINE
  8
0
 10
197.4
 20
112.45
 11
197.4
 21
114.345
  0
LINE
  8
0
 10
197.4
 20
114.345
 11
203.1
 21
114.345
  0
LINE
  8
0
 10
203.1
 20
114.345
 11
203.1
 21
112.45
  0
LINE
  8
0
 10
203.1
 20
112.45
 11
210
 21
112.45
  0
LINE
  8
0
 10
210
 20
112.45
 11
210
 21
117.5
  0
LINE
  8
0
 10
210
 20
117.5
 11
214.875
 21
117.5
  0
LINE
  8
0
 10
214.875
 20
117.5
 11
216.5
 21
119.125
  0
LINE
  8
0
 10
216.5
 20
119.125
 11
216.5
 21
130.875
  0
LINE
  8
0
 10
216.5
 20
130.875
 11
214.875
 21
132.5
  0
LINE
  8
0
 10
214.875
 20
132.5
 11
210
 21
132.5
  0
LINE
  8
0
 10
210
 20
132.5
 11
210
 21
170
  0
LINE
  8
0
 10
210
 20
170
 11
190
 21
170
  0
LINE
  8
0
 10
190
 20
170
 11
190
 21
210
  0
LINE
  8
0
 10
190
 20
210
 11
132.5
 21
210
  0
LINE
  8
0
 10
132.5
 20
210
 11
132.5
 21
214.875
  0
LINE
  8
0
 10
132.5
 20
214.875
 11
130.875
 21
216.5
  0
LINE
  8
0
 10
130.875
 20
216.5
 11
119.125
 21
216.5
  0
LINE
  8
0
 10
119.125
 20
216.5
 11
117.5
 21
214.875
  0
LINE
  8
0
 10
117.5
 20
214.875
 11
117.5
 21
210
  0
LINE
  8
0
 10
117.5
 20
210
 11
112.45
 21
210
  0
LINE
  8
0
 10
112.45
 20
210
 11
112.45
 21
203.1
  0
LINE
  8
0
 10
112.45
 20
203.1
 11
114.345
 21
203.1
  0
LINE
  8
0
 10
114.345
 20
203.1
 11
114.345
 21
197.4
  0
LINE
  8
0
 10
114.345
 20
197.4
 11
112.45
 21
197.4
  0
LINE
  8
0
 10
112.45
 20
197.4
 11
112.45
 21
190.5
  0
LINE
  8
0
 10
112.45
 20
190.5
 11
107.55
 21
190.5
  0
LINE
  8
0
 10
107.55
 20
190.5
 11
107.55
 21
197.4
  0
LINE
  8
0
 10
107.55
 20
197.4
 11
105.655
 21
197.4
  0
LINE
  8
0
 10
105.655
 20
197.4
 11
105.655
 21
203.1
  0
LINE
  8
0
 10
105.655
 20
203.1
 11
107.55
 21
203.1
  0
LINE
  8
0
 10
107.55
 20
203.1
 11
107.55
 21
210
  0
LINE
  8
0
 10
107.55
 20
210
 11
102.5
 21
210
  0
LINE
  8
0
 10
102.5
 20
210
 11
102.5
 21
214.875
  0
LINE
  8
0
 10
102.5
 20
214.875
 11
100.875
 21
216.5
  0
LINE
  8
0
 10
100.875
 20
216.5
 11
89.125
 21
216.5
  0
LINE
  8
0
 10
89.125
 20
216.5
 11
87.5
 21
214.875
  0
LINE
  8
0
 10
87.5
 20
214.875
 11
87.5
 21
210
  0
LINE
  8
0
 10
87.5
 20
210
 11
-87.5
 21
210
  0
LINE
  8
0
 10
-87.5
 20
210
 11
-87.5
 21
214.875
  0
LINE
  8
0
 10
-87.5
 20
214.875
 11
-89.125
 21
216.5
  0
LINE
  8
0
 10
-89.125
 20
216.5
 11
-100.875
 21
216.5
  0
LINE
  8
0
 10
-100.875
 20
216.5
 11
-102.5
 21
214.875
  0
LINE
  8
0
 10
-102.5
 20
214.875
 11
-102.5
 21
210
  0
LINE
  8
0
 10
-102.5
 20
210
 11
-107.55
 21
210
  0
LINE
  8
0
 10
-107.55
 20
210
 11
-107.55
 21
203.1
  0
LINE
  8
0
 10
-107.55
 20
203.1
 11
-105.655
 21
203.1
  0
LINE
  8
0
 10
-105.655
 20
203.1
 11
-105.655
 21
197.4
  0
LINE
  8
0
 10
-105.655
 20
197.4
 11
-107.55
 21
197.4
  0
LINE
  8
0
 10
-107.55
 20
197.4
 11
-107.55
 21
190.5
  0
LINE
  8
0
 10
-107.55
 20
190.5
 11
-112.45
 21
190.5
  0
LINE
  8
0
 10
-112.45
 20
190.5
 11
-112.45
 21
197.4
  0
LINE
  8
0
 10
-112.45
 20
197.4
 11
-114.345
 21
197.4
  0
LINE
  8
0
 10
-114.345
 20
197.4
 11
-114.345
 21
203.1
  0
LINE
  8
0
 10
-114.345
 20
203.1
 11
-112.45
 21
203.1
  0
LINE
  8
0
 10
-112.45
 20
203.1
 11
-112.45
 21
210
  0
LINE
  8
0
 10
-112.45
 20
210
 11
-117.5
 21
210
  0
LINE
  8
0
 10
-117.5
 20
210
 11
-117.5
 21
214.875
  0
LINE
  8
0
 10
-117.5
 20
214.875
 11
-119.125
 21
216.5
  0
LINE
  8
0
 10
-119.125
 20
216.5
 11
-130.875
 21
216.5
  0
LINE
  8
0
 10
-130.875
 20
216.5
 11
-132.5
 21
214.875
  0
LINE
  8
0
 10
-132.5
 20
214.875
 11
-132.5
 21
210
  0
LINE
  8
0
 10
-132.5
 20
210
 11
-190
 21
210
  0
LINE
  8
0
 10
-190
 20
210
 11
-190
 21
170
  0
LINE
  8
0
 10
-190
 20
170
 11
-210
 21
170
  0
LINE
  8
0
 10
-210
 20
170
 11
-210
 21
132.5
  0
LINE
  8
0
 10
-210
 20
132.5
 11
-214.875
 21
132.5
  0
LINE
  8
0
 10
-214.875
 20
132.5
 11
-216.5
 21
130.875
  0
LINE
  8
0
 10
-216.5
 20
130.875
 11
-216.5
 21
119.125
  0
LINE
  8
0
 10
-216.5
 20
119.125
 11
-214.875
 21
117.5
  0
LINE
  8
0
 10
-214.875
 20
117.5
 11
-210
 21
117.5
  0
LINE
  8
0
 10
-210
 20
117.5
 11
-210
 21
112.45
  0
LINE
  8
0
 10
-210
 20
112.45
 11
-203.1
 21
112.45
  0
LINE
  8
0
 10
-203.1
 20
112.45
 11
-203.1
 21
114.345
  0
LINE
  8
0
 10
-203.1
 20
114.345
 11
-197.4
 21
114.345
  0
LINE
  8
0
 10
-197.4
 20
114.345
 11
-197.4
 21
112.45
  0
LINE
  8
0
 10
-197.4
 20
112.45
 11
-190.5
 21
112.45
  0
LINE
  8
0
 10
-190.5
 20
112.45
 11
-190.5
 21
107.55
  0
LINE
  8
0
 10
-190.5
 20
107.55
 11
-197.4
 21
107.55
  0
LINE
  8
0
 10
-197.4
 20
107.55
 11
-197.4
 21
105.655
  0
LINE
  8
0
 10
-197.4
 20
105.655
 11
-203.1
 21
105.655
  0
LINE
  8
0
 10
-203.1
 20
105.655
 11
-203.1
 21
107.55
  0
LINE
  8
0
 10
-203.1
 20
107.55
 11
-210
 21
107.55
  0
LINE
  8
0
 10
-210
 20
107.55
 11
-210
 21
102.5
  0
LINE
  8
0
 10
-210
 20
102.5
 11
-214.875
 21
102.5
  0
LINE
  8
0
 10
-214.875
 20
102.5
 11
-216.5
 21
100.875
  0
LINE
  8
0
 10
-216.5
 20
100.875
 11
-216.5
 21
89.125
  0
LINE
  8
0
 10
-216.5
 20
89.125
 11
-214.875
 21
87.5
  0
LINE
  8
0
 10
-214.875
 20
87.5
 11
-210
 21
87.5
  0
LINE
  8
0
 10
-210
 20
87.5
 11
-210
 21
-87.5
  0
LINE
  8
0
 10
-210
 20
-87.5
 11
-214.875
 21
-87.5
  0
LINE
  8
0
 10
-214.875
 20
-87.5
 11
-216.5
 21
-89.125
  0
LINE
  8
0
 10
-216.5
 20
-89.125
 11
-216.5
 21
-100.875
  0
LINE
  8
0
 10
-216.5
 20
-100.875
 11
-214.875
 21
-102.5
  0
LINE
  8
0
 10
-214.875
 20
-102.5
 11
-210
 21
-102.5
  0
LINE
  8
0
 10
-210
 20
-102.5
 11
-210
 21
-107.55
  0
LINE
  8
0
 10
-210
 20
-107.55
 11
-203.1
 21
-107.55
  0
LINE
  8
0
 10
-203.1
 20
-107.55
 11
-203.1
 21
-105.655
  0
LINE
  8
0
 10
-203.1
 20
-105.655
 11
-197.4
 21
-105.655
  0
LINE
  8
0
 10
-197.4
 20
-105.655
 11
-197.4
 21
-107.55
  0
LINE
  8
0
 10
-197.4
 20
-107.55
 11
-190.5
 21
-107.55
  0
LINE
  8
0
 10
-190.5
 20
-107.55
 11
-190.5
 21
-112.45
  0
LINE
  8
0
 10
-190.5
 20
-112.45
 11
-197.4
 21
-112.45
  0
LINE
  8
0
 10
-197.4
 20
-112.45
 11
-197.4
 21
-114.345
  0
LINE
  8
0
 10
-197.4
 20
-114.345
 11
-203.1
 21
-114.345
  0
LINE
  8
0
 10
-203.1
 20
-114.345
 11
-203.1
 21
-112.45
  0
LINE
  8
0
 10
-203.1
 20
-112.45
 11
-210
 21
-112.45
  0
LINE
  8
0
 10
-210
 20
-112.45
 11
-210
 21
-117.5
  0
LINE
  8
0
 10
-210
 20
-117.5
 11
-214.875
 21
-117.5
  0
LINE
  8
0
 10
-214.875
 20
-117.5
 11
-216.5
 21
-119.125
  0
LINE
  8
0
 10
-216.5
 20
-119.125
 11
-216.5
 21
-130.875
  0
LINE
  8
0
 10
-216.5
 20
-130.875
 11
-214.875
 21
-132.5
  0
LINE
  8
0
 10
-214.875
 20
-132.5
 11
-210
 21
-132.5
  0
LINE
  8
0
 10
-210
 20
-132.5
 11
-210
 21
-170
  0
LINE
  8
0
 10
-210
 20
-170
 11
-190
 21
-170
  0
LINE
  8
0
 10
-190
 20
-170
 11
-190
 21
-210
  0
LINE
  8
0
 10
-190
 20
-210
 11
-132.5
 21
-210
  0
LINE
  8
0
 10
-132.5
 20
-210
 11
-132.5
 21
-214.875
  0
LINE
  8
0
 10
-132.5
 20
-214.875
 11
-130.875
 21
-216.5
  0
LINE
  8
0
 10
-130.875
 20
-216.5
 11
-119.125
 21
-216.5
  0
LINE
  8
0
 10
-119.125
 20
-216.5
 11
-117.5
 21
-214.875
  0
LINE
  8
0
 10
82.05
 20
73.2
 11
122.95
 21
73.2
  0
LINE
  8
0
 10
122.95
 20
73.2
 11
122.95
 21
66.8
  0
LINE
  8
0
 10
122.95
 20
66.8
 11
82.05
 21
66.8
  0
LINE
  8
0
 10
82.05
 20
66.8
 11
82.05
 21
73.2
  0
LINE
  8
0
 10
-163.95
 20
66.8
 11
-163.95
 21
73.2
  0
LINE
  8
0
 10
-163.95
 20
73.2
 11
-123.05
 21
73.2
  0
LINE
  8
0
 10
-123.05
 20
73.2
 11
-123.05
 21
66.8
  0
LINE
  8
0
 10
-123.05
 20
66.8
 11
-163.95
 21
66.8
  0
LINE
  8
0
 10
0.0499878
 20
66.8
 11
0.0499878
 21
73.2
  0
LINE
  8
0
 10
0.0499878
 20
73.2
 11
40.95
 21
73.2
  0
LINE
  8
0
 10
40.95
 20
73.2
 11
40.95
 21
66.8
  0
LINE
  8
0
 10
40.95
 20
66.8
 11
0.0499878
 21
66.8
  0
LINE
  8
0
 10
-81.95
 20
66.8
 11
-81.95
 21
73.2
  0
LINE
  8
0
 10
-81.95
 20
73.2
 11
-41.05
 21
73.2
  0
LINE
  8
0
 10
-41.05
 20
73.2
 11
-41.05
 21
66.8
  0
LINE
  8
0
 10
-41.05
 20
66.8
 11
-81.95
 21
66.8
  0
LINE
  8
0
 10
-4.50484
 20
-2.16942
 11
-4.50484
 21
2.16942
  0
LINE
  8
0
 10
-4.50484
 20
2.16942
 11
-1.11259
 21
4.87463
  0
LINE
  8
0
 10
-1.11259
 20
4.87463
 11
3.11745
 21
3.90915
  0
LINE
  8
0
 10
3.11745
 20
3.90915
 11
5
 21
0
  0
LINE
  8
0
 10
5
 20
0
 11
3.11745
 21
-3.90915
  0
LINE
  8
0
 10
3.11745
 20
-3.90915
 11
-1.11259
 21
-4.87463
  0
LINE
  8
0
 10
-1.11259
 20
-4.87463
 11
-4.50484
 21
-2.16942
  0
LINE
  8
0
 10
164.05
 20
-73.2
 11
164.05
 21
-66.8
  0
LINE
  8
0
 10
164.05
 20
-66.8
 11
204.95
 21
-66.8
  0
LINE
  8
0
 10
204.95
 20
-66.8
 11
204.95
 21
-73.2
  0
LINE
  8
0
 10
204.95
 20
-73.2
 11
164.05
 21
-73.2
  0
LINE
  8
0
 10
-163.95
 20
-73.2
 11
-163.95
 21
-66.8
  0
LINE
  8
0
 10
-163.95
 20
-66.8
 11
-123.05
 21
-66.8
  0
LINE
  8
0
 10
-123.05
 20
-66.8
 11
-123.05
 21
-73.2
  0
LINE
  8
0
 10
-123.05
 20
-73.2
 11
-163.95
 21
-73.2
  0
LINE
  8
0
 10
82.05
 20
-73.2
 11
82.05
 21
-66.8
  0
LINE
  8
0
 10
82.05
 20
-66.8
 11
122.95
 21
-66.8
  0
LINE
  8
0
 10
122.95
 20
-66.8
 11
122.95
 21
-73.2
  0
LINE
  8
0
 10
122.95
 20
-73.2
 11
82.05
 21
-73.2
  0
LINE
  8
0
 10
-81.95
 20
-73.2
 11
-81.95
 21
-66.8
  0
LINE
  8
0
 10
-81.95
 20
-66.8
 11
-41.05
 21
-66.8
  0
LINE
  8
0
 10
-41.05
 20
-66.8
 11
-41.05
 21
-73.2
  0
LINE
  8
0
 10
-41.05
 20
-73.2
 11
-81.95
 21
-73.2
  0
LINE
  8
0
 10
0.0499878
 20
-73.2
 11
0.0499878
 21
-66.8
  0
LINE
  8
0
 10
0.0499878
 20
-66.8
 11
40.95
 21
-66.8
  0
LINE
  8
0
 10
40.95
 20
-66.8
 11
40.95
 21
-73.2
  0
LINE
  8
0
 10
40.95
 20
-73.2
 11
0.0499878
 21
-73.2
  0
LINE
  8
0
 10
204.95
 20
73.2
 11
204.95
 21
66.8
  0
LINE
  8
0
 10
204.95
 20
66.8
 11
164.05
 21
66.8
  0
LINE
  8
0
 10
164.05
 20
66.8
 11
164.05
 21
73.2
  0
LINE
  8
0
 10
164.05
 20
73.2
 11
204.95
 21
73.2
  0
ENDSEC
  0
SECTION
  2
OBJECTS
  0
DICTIONARY
  0
ENDSEC
  0
EOF
