  0
SECTION
  2
BLOCKS
  0
ENDSEC
  0
SECTION
  2
ENTITIES
  0
LINE
  8
0
 10
165.875
 20
251.5
 11
154.125
 21
251.5
  0
LINE
  8
0
 10
154.125
 20
251.5
 11
152.5
 21
249.875
  0
LINE
  8
0
 10
152.5
 20
249.875
 11
152.5
 21
245
  0
LINE
  8
0
 10
152.5
 20
245
 11
147.4
 21
245
  0
LINE
  8
0
 10
147.4
 20
245
 11
147.4
 21
238.1
  0
LINE
  8
0
 10
147.4
 20
238.1
 11
148.95
 21
238.1
  0
LINE
  8
0
 10
148.95
 20
238.1
 11
148.95
 21
232.4
  0
LINE
  8
0
 10
148.95
 20
232.4
 11
147.4
 21
232.4
  0
LINE
  8
0
 10
147.4
 20
232.4
 11
147.4
 21
225.5
  0
LINE
  8
0
 10
147.4
 20
225.5
 11
142.6
 21
225.5
  0
LINE
  8
0
 10
142.6
 20
225.5
 11
142.6
 21
232.4
  0
LINE
  8
0
 10
142.6
 20
232.4
 11
141.05
 21
232.4
  0
LINE
  8
0
 10
141.05
 20
232.4
 11
141.05
 21
238.1
  0
LINE
  8
0
 10
141.05
 20
238.1
 11
142.6
 21
238.1
  0
LINE
  8
0
 10
142.6
 20
238.1
 11
142.6
 21
245
  0
LINE
  8
0
 10
142.6
 20
245
 11
137.5
 21
245
  0
LINE
  8
0
 10
137.5
 20
245
 11
137.5
 21
249.875
  0
LINE
  8
0
 10
137.5
 20
249.875
 11
135.875
 21
251.5
  0
LINE
  8
0
 10
135.875
 20
251.5
 11
124.125
 21
251.5
  0
LINE
  8
0
 10
124.125
 20
251.5
 11
122.5
 21
249.875
  0
LINE
  8
0
 10
122.5
 20
249.875
 11
122.5
 21
245
  0
LINE
  8
0
 10
122.5
 20
245
 11
22.5
 21
245
  0
LINE
  8
0
 10
22.5
 20
245
 11
22.5
 21
249.875
  0
LINE
  8
0
 10
22.5
 20
249.875
 11
20.875
 21
251.5
  0
LINE
  8
0
 10
20.875
 20
251.5
 11
9.125
 21
251.5
  0
LINE
  8
0
 10
9.125
 20
251.5
 11
7.5
 21
249.875
  0
LINE
  8
0
 10
7.5
 20
249.875
 11
7.5
 21
245
  0
LINE
  8
0
 10
7.5
 20
245
 11
2.39999
 21
245
  0
LINE
  8
0
 10
2.39999
 20
245
 11
2.39999
 21
238.1
  0
LINE
  8
0
 10
2.39999
 20
238.1
 11
3.95
 21
238.1
  0
LINE
  8
0
 10
3.95
 20
238.1
 11
3.95
 21
232.4
  0
LINE
  8
0
 10
3.95
 20
232.4
 11
2.39999
 21
232.4
  0
LINE
  8
0
 10
2.39999
 20
232.4
 11
2.39999
 21
225.5
  0
LINE
  8
0
 10
2.39999
 20
225.5
 11
-2.39999
 21
225.5
  0
LINE
  8
0
 10
-2.39999
 20
225.5
 11
-2.39999
 21
232.4
  0
LINE
  8
0
 10
-2.39999
 20
232.4
 11
-3.95
 21
232.4
  0
LINE
  8
0
 10
-3.95
 20
232.4
 11
-3.95
 21
238.1
  0
LINE
  8
0
 10
-3.95
 20
238.1
 11
-2.39999
 21
238.1
  0
LINE
  8
0
 10
-2.39999
 20
238.1
 11
-2.39999
 21
245
  0
LINE
  8
0
 10
-2.39999
 20
245
 11
-7.5
 21
245
  0
LINE
  8
0
 10
-7.5
 20
245
 11
-7.5
 21
249.875
  0
LINE
  8
0
 10
-7.5
 20
249.875
 11
-9.125
 21
251.5
  0
LINE
  8
0
 10
-9.125
 20
251.5
 11
-20.875
 21
251.5
  0
LINE
  8
0
 10
-20.875
 20
251.5
 11
-22.5
 21
249.875
  0
LINE
  8
0
 10
-22.5
 20
249.875
 11
-22.5
 21
245
  0
LINE
  8
0
 10
-22.5
 20
245
 11
-122.5
 21
245
  0
LINE
  8
0
 10
-122.5
 20
245
 11
-122.5
 21
249.875
  0
LINE
  8
0
 10
-122.5
 20
249.875
 11
-124.125
 21
251.5
  0
LINE
  8
0
 10
-124.125
 20
251.5
 11
-135.875
 21
251.5
  0
LINE
  8
0
 10
-135.875
 20
251.5
 11
-137.5
 21
249.875
  0
LINE
  8
0
 10
-137.5
 20
249.875
 11
-137.5
 21
245
  0
LINE
  8
0
 10
-137.5
 20
245
 11
-142.6
 21
245
  0
LINE
  8
0
 10
-142.6
 20
245
 11
-142.6
 21
238.1
  0
LINE
  8
0
 10
-142.6
 20
238.1
 11
-141.05
 21
238.1
  0
LINE
  8
0
 10
-141.05
 20
238.1
 11
-141.05
 21
232.4
  0
LINE
  8
0
 10
-141.05
 20
232.4
 11
-142.6
 21
232.4
  0
LINE
  8
0
 10
-142.6
 20
232.4
 11
-142.6
 21
225.5
  0
LINE
  8
0
 10
-142.6
 20
225.5
 11
-147.4
 21
225.5
  0
LINE
  8
0
 10
-147.4
 20
225.5
 11
-147.4
 21
232.4
  0
LINE
  8
0
 10
-147.4
 20
232.4
 11
-148.95
 21
232.4
  0
LINE
  8
0
 10
-148.95
 20
232.4
 11
-148.95
 21
238.1
  0
LINE
  8
0
 10
-148.95
 20
238.1
 11
-147.4
 21
238.1
  0
LINE
  8
0
 10
-147.4
 20
238.1
 11
-147.4
 21
245
  0
LINE
  8
0
 10
-147.4
 20
245
 11
-152.5
 21
245
  0
LINE
  8
0
 10
-152.5
 20
245
 11
-152.5
 21
249.875
  0
LINE
  8
0
 10
-152.5
 20
249.875
 11
-154.125
 21
251.5
  0
LINE
  8
0
 10
-154.125
 20
251.5
 11
-165.875
 21
251.5
  0
LINE
  8
0
 10
-165.875
 20
251.5
 11
-167.5
 21
249.875
  0
LINE
  8
0
 10
-167.5
 20
249.875
 11
-167.5
 21
245
  0
LINE
  8
0
 10
-167.5
 20
245
 11
-225
 21
245
  0
LINE
  8
0
 10
-225
 20
245
 11
-225
 21
239.25
  0
LINE
  8
0
 10
-225
 20
239.25
 11
-223
 21
239.25
  0
LINE
  8
0
 10
-223
 20
239.25
 11
-223
 21
230.75
  0
LINE
  8
0
 10
-223
 20
230.75
 11
-225
 21
230.75
  0
LINE
  8
0
 10
-225
 20
230.75
 11
-225
 21
205
  0
LINE
  8
0
 10
-225
 20
205
 11
-245
 21
205
  0
LINE
  8
0
 10
-245
 20
205
 11
-245
 21
167.5
  0
LINE
  8
0
 10
-245
 20
167.5
 11
-249.875
 21
167.5
  0
LINE
  8
0
 10
-249.875
 20
167.5
 11
-251.5
 21
165.875
  0
LINE
  8
0
 10
-251.5
 20
165.875
 11
-251.5
 21
154.125
  0
LINE
  8
0
 10
-251.5
 20
154.125
 11
-249.875
 21
152.5
  0
LINE
  8
0
 10
-249.875
 20
152.5
 11
-245
 21
152.5
  0
LINE
  8
0
 10
-245
 20
152.5
 11
-245
 21
147.4
  0
LINE
  8
0
 10
-245
 20
147.4
 11
-238.1
 21
147.4
  0
LINE
  8
0
 10
-238.1
 20
147.4
 11
-238.1
 21
148.95
  0
LINE
  8
0
 10
-238.1
 20
148.95
 11
-232.4
 21
148.95
  0
LINE
  8
0
 10
-232.4
 20
148.95
 11
-232.4
 21
147.4
  0
LINE
  8
0
 10
-232.4
 20
147.4
 11
-225.5
 21
147.4
  0
LINE
  8
0
 10
-225.5
 20
147.4
 11
-225.5
 21
142.6
  0
LINE
  8
0
 10
-225.5
 20
142.6
 11
-232.4
 21
142.6
  0
LINE
  8
0
 10
-232.4
 20
142.6
 11
-232.4
 21
141.05
  0
LINE
  8
0
 10
-232.4
 20
141.05
 11
-238.1
 21
141.05
  0
LINE
  8
0
 10
-238.1
 20
141.05
 11
-238.1
 21
142.6
  0
LINE
  8
0
 10
-238.1
 20
142.6
 11
-245
 21
142.6
  0
LINE
  8
0
 10
-245
 20
142.6
 11
-245
 21
137.5
  0
LINE
  8
0
 10
-245
 20
137.5
 11
-249.875
 21
137.5
  0
LINE
  8
0
 10
-249.875
 20
137.5
 11
-251.5
 21
135.875
  0
LINE
  8
0
 10
-251.5
 20
135.875
 11
-251.5
 21
124.125
  0
LINE
  8
0
 10
-251.5
 20
124.125
 11
-249.875
 21
122.5
  0
LINE
  8
0
 10
-249.875
 20
122.5
 11
-245
 21
122.5
  0
LINE
  8
0
 10
-245
 20
122.5
 11
-245
 21
22.5
  0
LINE
  8
0
 10
-245
 20
22.5
 11
-249.875
 21
22.5
  0
LINE
  8
0
 10
-249.875
 20
22.5
 11
-251.5
 21
20.875
  0
LINE
  8
0
 10
-251.5
 20
20.875
 11
-251.5
 21
9.125
  0
LINE
  8
0
 10
-251.5
 20
9.125
 11
-249.875
 21
7.5
  0
LINE
  8
0
 10
-249.875
 20
7.5
 11
-245
 21
7.5
  0
LINE
  8
0
 10
-245
 20
7.5
 11
-245
 21
2.39999
  0
LINE
  8
0
 10
-245
 20
2.39999
 11
-238.1
 21
2.39999
  0
LINE
  8
0
 10
-238.1
 20
2.39999
 11
-238.1
 21
3.95
  0
LINE
  8
0
 10
-238.1
 20
3.95
 11
-232.4
 21
3.95
  0
LINE
  8
0
 10
-232.4
 20
3.95
 11
-232.4
 21
2.39999
  0
LINE
  8
0
 10
-232.4
 20
2.39999
 11
-225.5
 21
2.39999
  0
LINE
  8
0
 10
-225.5
 20
2.39999
 11
-225.5
 21
-2.39999
  0
LINE
  8
0
 10
-225.5
 20
-2.39999
 11
-232.4
 21
-2.39999
  0
LINE
  8
0
 10
-232.4
 20
-2.39999
 11
-232.4
 21
-3.95
  0
LINE
  8
0
 10
-232.4
 20
-3.95
 11
-238.1
 21
-3.95
  0
LINE
  8
0
 10
-238.1
 20
-3.95
 11
-238.1
 21
-2.39999
  0
LINE
  8
0
 10
-238.1
 20
-2.39999
 11
-245
 21
-2.39999
  0
LINE
  8
0
 10
-245
 20
-2.39999
 11
-245
 21
-7.5
  0
LINE
  8
0
 10
-245
 20
-7.5
 11
-249.875
 21
-7.5
  0
LINE
  8
0
 10
-249.875
 20
-7.5
 11
-251.5
 21
-9.125
  0
LINE
  8
0
 10
-251.5
 20
-9.125
 11
-251.5
 21
-20.875
  0
LINE
  8
0
 10
-251.5
 20
-20.875
 11
-249.875
 21
-22.5
  0
LINE
  8
0
 10
-249.875
 20
-22.5
 11
-245
 21
-22.5
  0
LINE
  8
0
 10
-245
 20
-22.5
 11
-245
 21
-122.5
  0
LINE
  8
0
 10
-245
 20
-122.5
 11
-249.875
 21
-122.5
  0
LINE
  8
0
 10
-249.875
 20
-122.5
 11
-251.5
 21
-124.125
  0
LINE
  8
0
 10
-251.5
 20
-124.125
 11
-251.5
 21
-135.875
  0
LINE
  8
0
 10
-251.5
 20
-135.875
 11
-249.875
 21
-137.5
  0
LINE
  8
0
 10
-249.875
 20
-137.5
 11
-245
 21
-137.5
  0
LINE
  8
0
 10
-245
 20
-137.5
 11
-245
 21
-142.6
  0
LINE
  8
0
 10
-245
 20
-142.6
 11
-238.1
 21
-142.6
  0
LINE
  8
0
 10
-238.1
 20
-142.6
 11
-238.1
 21
-141.05
  0
LINE
  8
0
 10
-238.1
 20
-141.05
 11
-232.4
 21
-141.05
  0
LINE
  8
0
 10
-232.4
 20
-141.05
 11
-232.4
 21
-142.6
  0
LINE
  8
0
 10
-232.4
 20
-142.6
 11
-225.5
 21
-142.6
  0
LINE
  8
0
 10
-225.5
 20
-142.6
 11
-225.5
 21
-147.4
  0
LINE
  8
0
 10
-225.5
 20
-147.4
 11
-232.4
 21
-147.4
  0
LINE
  8
0
 10
-232.4
 20
-147.4
 11
-232.4
 21
-148.95
  0
LINE
  8
0
 10
-232.4
 20
-148.95
 11
-238.1
 21
-148.95
  0
LINE
  8
0
 10
-238.1
 20
-148.95
 11
-238.1
 21
-147.4
  0
LINE
  8
0
 10
-238.1
 20
-147.4
 11
-245
 21
-147.4
  0
LINE
  8
0
 10
-245
 20
-147.4
 11
-245
 21
-152.5
  0
LINE
  8
0
 10
-245
 20
-152.5
 11
-249.875
 21
-152.5
  0
LINE
  8
0
 10
-249.875
 20
-152.5
 11
-251.5
 21
-154.125
  0
LINE
  8
0
 10
-251.5
 20
-154.125
 11
-251.5
 21
-165.875
  0
LINE
  8
0
 10
-251.5
 20
-165.875
 11
-249.875
 21
-167.5
  0
LINE
  8
0
 10
-249.875
 20
-167.5
 11
-245
 21
-167.5
  0
LINE
  8
0
 10
-245
 20
-167.5
 11
-245
 21
-205
  0
LINE
  8
0
 10
-245
 20
-205
 11
-225
 21
-205
  0
LINE
  8
0
 10
-225
 20
-205
 11
-225
 21
-245
  0
LINE
  8
0
 10
-225
 20
-245
 11
-167.5
 21
-245
  0
LINE
  8
0
 10
-167.5
 20
-245
 11
-167.5
 21
-249.875
  0
LINE
  8
0
 10
-167.5
 20
-249.875
 11
-165.875
 21
-251.5
  0
LINE
  8
0
 10
-165.875
 20
-251.5
 11
-154.125
 21
-251.5
  0
LINE
  8
0
 10
-154.125
 20
-251.5
 11
-152.5
 21
-249.875
  0
LINE
  8
0
 10
-152.5
 20
-249.875
 11
-152.5
 21
-245
  0
LINE
  8
0
 10
-152.5
 20
-245
 11
-147.4
 21
-245
  0
LINE
  8
0
 10
-147.4
 20
-245
 11
-147.4
 21
-238.1
  0
LINE
  8
0
 10
-147.4
 20
-238.1
 11
-148.95
 21
-238.1
  0
LINE
  8
0
 10
-148.95
 20
-238.1
 11
-148.95
 21
-232.4
  0
LINE
  8
0
 10
-148.95
 20
-232.4
 11
-147.4
 21
-232.4
  0
LINE
  8
0
 10
-147.4
 20
-232.4
 11
-147.4
 21
-225.5
  0
LINE
  8
0
 10
-147.4
 20
-225.5
 11
-142.6
 21
-225.5
  0
LINE
  8
0
 10
-142.6
 20
-225.5
 11
-142.6
 21
-232.4
  0
LINE
  8
0
 10
-142.6
 20
-232.4
 11
-141.05
 21
-232.4
  0
LINE
  8
0
 10
-141.05
 20
-232.4
 11
-141.05
 21
-238.1
  0
LINE
  8
0
 10
-141.05
 20
-238.1
 11
-142.6
 21
-238.1
  0
LINE
  8
0
 10
-142.6
 20
-238.1
 11
-142.6
 21
-245
  0
LINE
  8
0
 10
-142.6
 20
-245
 11
-137.5
 21
-245
  0
LINE
  8
0
 10
-137.5
 20
-245
 11
-137.5
 21
-249.875
  0
LINE
  8
0
 10
-137.5
 20
-249.875
 11
-135.875
 21
-251.5
  0
LINE
  8
0
 10
-135.875
 20
-251.5
 11
-124.125
 21
-251.5
  0
LINE
  8
0
 10
-124.125
 20
-251.5
 11
-122.5
 21
-249.875
  0
LINE
  8
0
 10
-122.5
 20
-249.875
 11
-122.5
 21
-245
  0
LINE
  8
0
 10
-122.5
 20
-245
 11
-22.5
 21
-245
  0
LINE
  8
0
 10
-22.5
 20
-245
 11
-22.5
 21
-249.875
  0
LINE
  8
0
 10
-22.5
 20
-249.875
 11
-20.875
 21
-251.5
  0
LINE
  8
0
 10
-20.875
 20
-251.5
 11
-9.125
 21
-251.5
  0
LINE
  8
0
 10
-9.125
 20
-251.5
 11
-7.5
 21
-249.875
  0
LINE
  8
0
 10
-7.5
 20
-249.875
 11
-7.5
 21
-245
  0
LINE
  8
0
 10
-7.5
 20
-245
 11
-2.39999
 21
-245
  0
LINE
  8
0
 10
-2.39999
 20
-245
 11
-2.39999
 21
-238.1
  0
LINE
  8
0
 10
-2.39999
 20
-238.1
 11
-3.95
 21
-238.1
  0
LINE
  8
0
 10
-3.95
 20
-238.1
 11
-3.95
 21
-232.4
  0
LINE
  8
0
 10
-3.95
 20
-232.4
 11
-2.39999
 21
-232.4
  0
LINE
  8
0
 10
-2.39999
 20
-232.4
 11
-2.39999
 21
-225.5
  0
LINE
  8
0
 10
-2.39999
 20
-225.5
 11
2.39999
 21
-225.5
  0
LINE
  8
0
 10
2.39999
 20
-225.5
 11
2.39999
 21
-232.4
  0
LINE
  8
0
 10
2.39999
 20
-232.4
 11
3.95
 21
-232.4
  0
LINE
  8
0
 10
3.95
 20
-232.4
 11
3.95
 21
-238.1
  0
LINE
  8
0
 10
3.95
 20
-238.1
 11
2.39999
 21
-238.1
  0
LINE
  8
0
 10
2.39999
 20
-238.1
 11
2.39999
 21
-245
  0
LINE
  8
0
 10
2.39999
 20
-245
 11
7.5
 21
-245
  0
LINE
  8
0
 10
7.5
 20
-245
 11
7.5
 21
-249.875
  0
LINE
  8
0
 10
7.5
 20
-249.875
 11
9.125
 21
-251.5
  0
LINE
  8
0
 10
9.125
 20
-251.5
 11
20.875
 21
-251.5
  0
LINE
  8
0
 10
20.875
 20
-251.5
 11
22.5
 21
-249.875
  0
LINE
  8
0
 10
22.5
 20
-249.875
 11
22.5
 21
-245
  0
LINE
  8
0
 10
22.5
 20
-245
 11
122.5
 21
-245
  0
LINE
  8
0
 10
122.5
 20
-245
 11
122.5
 21
-249.875
  0
LINE
  8
0
 10
122.5
 20
-249.875
 11
124.125
 21
-251.5
  0
LINE
  8
0
 10
124.125
 20
-251.5
 11
135.875
 21
-251.5
  0
LINE
  8
0
 10
135.875
 20
-251.5
 11
137.5
 21
-249.875
  0
LINE
  8
0
 10
137.5
 20
-249.875
 11
137.5
 21
-245
  0
LINE
  8
0
 10
137.5
 20
-245
 11
142.6
 21
-245
  0
LINE
  8
0
 10
142.6
 20
-245
 11
142.6
 21
-238.1
  0
LINE
  8
0
 10
142.6
 20
-238.1
 11
141.05
 21
-238.1
  0
LINE
  8
0
 10
141.05
 20
-238.1
 11
141.05
 21
-232.4
  0
LINE
  8
0
 10
141.05
 20
-232.4
 11
142.6
 21
-232.4
  0
LINE
  8
0
 10
142.6
 20
-232.4
 11
142.6
 21
-225.5
  0
LINE
  8
0
 10
142.6
 20
-225.5
 11
147.4
 21
-225.5
  0
LINE
  8
0
 10
147.4
 20
-225.5
 11
147.4
 21
-232.4
  0
LINE
  8
0
 10
147.4
 20
-232.4
 11
148.95
 21
-232.4
  0
LINE
  8
0
 10
148.95
 20
-232.4
 11
148.95
 21
-238.1
  0
LINE
  8
0
 10
148.95
 20
-238.1
 11
147.4
 21
-238.1
  0
LINE
  8
0
 10
147.4
 20
-238.1
 11
147.4
 21
-245
  0
LINE
  8
0
 10
147.4
 20
-245
 11
152.5
 21
-245
  0
LINE
  8
0
 10
152.5
 20
-245
 11
152.5
 21
-249.875
  0
LINE
  8
0
 10
152.5
 20
-249.875
 11
154.125
 21
-251.5
  0
LINE
  8
0
 10
154.125
 20
-251.5
 11
165.875
 21
-251.5
  0
LINE
  8
0
 10
165.875
 20
-251.5
 11
167.5
 21
-249.875
  0
LINE
  8
0
 10
167.5
 20
-249.875
 11
167.5
 21
-245
  0
LINE
  8
0
 10
167.5
 20
-245
 11
225
 21
-245
  0
LINE
  8
0
 10
225
 20
-245
 11
225
 21
-205
  0
LINE
  8
0
 10
225
 20
-205
 11
245
 21
-205
  0
LINE
  8
0
 10
245
 20
-205
 11
245
 21
-167.5
  0
LINE
  8
0
 10
245
 20
-167.5
 11
249.875
 21
-167.5
  0
LINE
  8
0
 10
249.875
 20
-167.5
 11
251.5
 21
-165.875
  0
LINE
  8
0
 10
251.5
 20
-165.875
 11
251.5
 21
-154.125
  0
LINE
  8
0
 10
251.5
 20
-154.125
 11
249.875
 21
-152.5
  0
LINE
  8
0
 10
249.875
 20
-152.5
 11
245
 21
-152.5
  0
LINE
  8
0
 10
245
 20
-152.5
 11
245
 21
-147.4
  0
LINE
  8
0
 10
245
 20
-147.4
 11
238.1
 21
-147.4
  0
LINE
  8
0
 10
238.1
 20
-147.4
 11
238.1
 21
-148.95
  0
LINE
  8
0
 10
238.1
 20
-148.95
 11
232.4
 21
-148.95
  0
LINE
  8
0
 10
232.4
 20
-148.95
 11
232.4
 21
-147.4
  0
LINE
  8
0
 10
232.4
 20
-147.4
 11
225.5
 21
-147.4
  0
LINE
  8
0
 10
225.5
 20
-147.4
 11
225.5
 21
-142.6
  0
LINE
  8
0
 10
225.5
 20
-142.6
 11
232.4
 21
-142.6
  0
LINE
  8
0
 10
232.4
 20
-142.6
 11
232.4
 21
-141.05
  0
LINE
  8
0
 10
232.4
 20
-141.05
 11
238.1
 21
-141.05
  0
LINE
  8
0
 10
238.1
 20
-141.05
 11
238.1
 21
-142.6
  0
LINE
  8
0
 10
238.1
 20
-142.6
 11
245
 21
-142.6
  0
LINE
  8
0
 10
245
 20
-142.6
 11
245
 21
-137.5
  0
LINE
  8
0
 10
245
 20
-137.5
 11
249.875
 21
-137.5
  0
LINE
  8
0
 10
249.875
 20
-137.5
 11
251.5
 21
-135.875
  0
LINE
  8
0
 10
251.5
 20
-135.875
 11
251.5
 21
-124.125
  0
LINE
  8
0
 10
251.5
 20
-124.125
 11
249.875
 21
-122.5
  0
LINE
  8
0
 10
249.875
 20
-122.5
 11
245
 21
-122.5
  0
LINE
  8
0
 10
245
 20
-122.5
 11
245
 21
-22.5
  0
LINE
  8
0
 10
245
 20
-22.5
 11
249.875
 21
-22.5
  0
LINE
  8
0
 10
249.875
 20
-22.5
 11
251.5
 21
-20.875
  0
LINE
  8
0
 10
251.5
 20
-20.875
 11
251.5
 21
-9.125
  0
LINE
  8
0
 10
251.5
 20
-9.125
 11
249.875
 21
-7.5
  0
LINE
  8
0
 10
249.875
 20
-7.5
 11
245
 21
-7.5
  0
LINE
  8
0
 10
245
 20
-7.5
 11
245
 21
-2.39999
  0
LINE
  8
0
 10
245
 20
-2.39999
 11
238.1
 21
-2.39999
  0
LINE
  8
0
 10
238.1
 20
-2.39999
 11
238.1
 21
-3.95
  0
LINE
  8
0
 10
238.1
 20
-3.95
 11
232.4
 21
-3.95
  0
LINE
  8
0
 10
232.4
 20
-3.95
 11
232.4
 21
-2.39999
  0
LINE
  8
0
 10
232.4
 20
-2.39999
 11
225.5
 21
-2.39999
  0
LINE
  8
0
 10
225.5
 20
-2.39999
 11
225.5
 21
2.39999
  0
LINE
  8
0
 10
225.5
 20
2.39999
 11
232.4
 21
2.39999
  0
LINE
  8
0
 10
232.4
 20
2.39999
 11
232.4
 21
3.95
  0
LINE
  8
0
 10
232.4
 20
3.95
 11
238.1
 21
3.95
  0
LINE
  8
0
 10
238.1
 20
3.95
 11
238.1
 21
2.39999
  0
LINE
  8
0
 10
238.1
 20
2.39999
 11
245
 21
2.39999
  0
LINE
  8
0
 10
245
 20
2.39999
 11
245
 21
7.5
  0
LINE
  8
0
 10
245
 20
7.5
 11
249.875
 21
7.5
  0
LINE
  8
0
 10
249.875
 20
7.5
 11
251.5
 21
9.125
  0
LINE
  8
0
 10
251.5
 20
9.125
 11
251.5
 21
20.875
  0
LINE
  8
0
 10
251.5
 20
20.875
 11
249.875
 21
22.5
  0
LINE
  8
0
 10
249.875
 20
22.5
 11
245
 21
22.5
  0
LINE
  8
0
 10
245
 20
22.5
 11
245
 21
122.5
  0
LINE
  8
0
 10
245
 20
122.5
 11
249.875
 21
122.5
  0
LINE
  8
0
 10
249.875
 20
122.5
 11
251.5
 21
124.125
  0
LINE
  8
0
 10
251.5
 20
124.125
 11
251.5
 21
135.875
  0
LINE
  8
0
 10
251.5
 20
135.875
 11
249.875
 21
137.5
  0
LINE
  8
0
 10
249.875
 20
137.5
 11
245
 21
137.5
  0
LINE
  8
0
 10
245
 20
137.5
 11
245
 21
142.6
  0
LINE
  8
0
 10
245
 20
142.6
 11
238.1
 21
142.6
  0
LINE
  8
0
 10
238.1
 20
142.6
 11
238.1
 21
141.05
  0
LINE
  8
0
 10
238.1
 20
141.05
 11
232.4
 21
141.05
  0
LINE
  8
0
 10
232.4
 20
141.05
 11
232.4
 21
142.6
  0
LINE
  8
0
 10
232.4
 20
142.6
 11
225.5
 21
142.6
  0
LINE
  8
0
 10
225.5
 20
142.6
 11
225.5
 21
147.4
  0
LINE
  8
0
 10
225.5
 20
147.4
 11
232.4
 21
147.4
  0
LINE
  8
0
 10
232.4
 20
147.4
 11
232.4
 21
148.95
  0
LINE
  8
0
 10
232.4
 20
148.95
 11
238.1
 21
148.95
  0
LINE
  8
0
 10
238.1
 20
148.95
 11
238.1
 21
147.4
  0
LINE
  8
0
 10
238.1
 20
147.4
 11
245
 21
147.4
  0
LINE
  8
0
 10
245
 20
147.4
 11
245
 21
152.5
  0
LINE
  8
0
 10
245
 20
152.5
 11
249.875
 21
152.5
  0
LINE
  8
0
 10
249.875
 20
152.5
 11
251.5
 21
154.125
  0
LINE
  8
0
 10
251.5
 20
154.125
 11
251.5
 21
165.875
  0
LINE
  8
0
 10
251.5
 20
165.875
 11
249.875
 21
167.5
  0
LINE
  8
0
 10
249.875
 20
167.5
 11
245
 21
167.5
  0
LINE
  8
0
 10
245
 20
167.5
 11
245
 21
205
  0
LINE
  8
0
 10
245
 20
205
 11
225
 21
205
  0
LINE
  8
0
 10
225
 20
205
 11
225
 21
230.75
  0
LINE
  8
0
 10
225
 20
230.75
 11
223
 21
230.75
  0
LINE
  8
0
 10
223
 20
230.75
 11
223
 21
239.25
  0
LINE
  8
0
 10
223
 20
239.25
 11
225
 21
239.25
  0
LINE
  8
0
 10
225
 20
239.25
 11
225
 21
245
  0
LINE
  8
0
 10
225
 20
245
 11
167.5
 21
245
  0
LINE
  8
0
 10
167.5
 20
245
 11
167.5
 21
249.875
  0
LINE
  8
0
 10
167.5
 20
249.875
 11
165.875
 21
251.5
  0
LINE
  8
0
 10
-214
 20
230.75
 11
-214
 21
239.25
  0
LINE
  8
0
 10
-214
 20
239.25
 11
-210
 21
239.25
  0
LINE
  8
0
 10
-210
 20
239.25
 11
-210
 21
230.75
  0
LINE
  8
0
 10
-210
 20
230.75
 11
-214
 21
230.75
  0
LINE
  8
0
 10
-140.113
 20
167.054
 11
-113.314
 21
193.853
  0
LINE
  8
0
 10
-113.314
 20
193.853
 11
-108.788
 21
189.328
  0
LINE
  8
0
 10
-108.788
 20
189.328
 11
-135.588
 21
162.528
  0
LINE
  8
0
 10
-135.588
 20
162.528
 11
-140.113
 21
167.054
  0
LINE
  8
0
 10
108.788
 20
189.328
 11
113.314
 21
193.853
  0
LINE
  8
0
 10
113.314
 20
193.853
 11
140.113
 21
167.054
  0
LINE
  8
0
 10
140.113
 20
167.054
 11
135.588
 21
162.528
  0
LINE
  8
0
 10
135.588
 20
162.528
 11
108.788
 21
189.328
  0
LINE
  8
0
 10
-76.8154
 20
181.769
 11
-77.2797
 21
181.906
  0
LINE
  8
0
 10
-77.2797
 20
181.906
 11
-77.6868
 21
182.167
  0
LINE
  8
0
 10
-77.6868
 20
182.167
 11
-78.0036
 21
182.533
  0
LINE
  8
0
 10
-78.0036
 20
182.533
 11
-78.2046
 21
182.973
  0
LINE
  8
0
 10
-78.2046
 20
182.973
 11
-78.2735
 21
183.452
  0
LINE
  8
0
 10
-78.2735
 20
183.452
 11
-78.2046
 21
183.931
  0
LINE
  8
0
 10
-78.2046
 20
183.931
 11
-78.0036
 21
184.371
  0
LINE
  8
0
 10
-78.0036
 20
184.371
 11
-77.6868
 21
184.737
  0
LINE
  8
0
 10
-77.6868
 20
184.737
 11
-77.2797
 21
184.998
  0
LINE
  8
0
 10
-77.2797
 20
184.998
 11
-76.8154
 21
185.135
  0
LINE
  8
0
 10
-76.8154
 20
185.135
 11
-76.3316
 21
185.135
  0
LINE
  8
0
 10
-76.3316
 20
185.135
 11
-75.8673
 21
184.998
  0
LINE
  8
0
 10
-75.8673
 20
184.998
 11
-75.4602
 21
184.737
  0
LINE
  8
0
 10
-75.4602
 20
184.737
 11
-75.1434
 21
184.371
  0
LINE
  8
0
 10
-75.1434
 20
184.371
 11
-74.9424
 21
183.931
  0
LINE
  8
0
 10
-74.9424
 20
183.931
 11
-74.8735
 21
183.452
  0
LINE
  8
0
 10
-74.8735
 20
183.452
 11
-74.9424
 21
182.973
  0
LINE
  8
0
 10
-74.9424
 20
182.973
 11
-75.1434
 21
182.533
  0
LINE
  8
0
 10
-75.1434
 20
182.533
 11
-75.4602
 21
182.167
  0
LINE
  8
0
 10
-75.4602
 20
182.167
 11
-75.8673
 21
181.906
  0
LINE
  8
0
 10
-75.8673
 20
181.906
 11
-76.3316
 21
181.769
  0
LINE
  8
0
 10
-76.3316
 20
181.769
 11
-76.8154
 21
181.769
  0
LINE
  8
0
 10
-15.5374
 20
180.817
 11
-16.0017
 21
180.954
  0
LINE
  8
0
 10
-16.0017
 20
180.954
 11
-16.4088
 21
181.215
  0
LINE
  8
0
 10
-16.4088
 20
181.215
 11
-16.7256
 21
181.581
  0
LINE
  8
0
 10
-16.7256
 20
181.581
 11
-16.9266
 21
182.021
  0
LINE
  8
0
 10
-16.9266
 20
182.021
 11
-16.9955
 21
182.5
  0
LINE
  8
0
 10
-16.9955
 20
182.5
 11
-16.9266
 21
182.979
  0
LINE
  8
0
 10
-16.9266
 20
182.979
 11
-16.7256
 21
183.419
  0
LINE
  8
0
 10
-16.7256
 20
183.419
 11
-16.4088
 21
183.785
  0
LINE
  8
0
 10
-16.4088
 20
183.785
 11
-16.0017
 21
184.046
  0
LINE
  8
0
 10
-16.0017
 20
184.046
 11
-15.5374
 21
184.183
  0
LINE
  8
0
 10
-15.5374
 20
184.183
 11
-15.0536
 21
184.183
  0
LINE
  8
0
 10
-15.0536
 20
184.183
 11
-14.5893
 21
184.046
  0
LINE
  8
0
 10
-14.5893
 20
184.046
 11
-14.1822
 21
183.785
  0
LINE
  8
0
 10
-14.1822
 20
183.785
 11
-13.8654
 21
183.419
  0
LINE
  8
0
 10
-13.8654
 20
183.419
 11
-13.6644
 21
182.979
  0
LINE
  8
0
 10
-13.6644
 20
182.979
 11
-13.5955
 21
182.5
  0
LINE
  8
0
 10
-13.5955
 20
182.5
 11
-13.6644
 21
182.021
  0
LINE
  8
0
 10
-13.6644
 20
182.021
 11
-13.8654
 21
181.581
  0
LINE
  8
0
 10
-13.8654
 20
181.581
 11
-14.1822
 21
181.215
  0
LINE
  8
0
 10
-14.1822
 20
181.215
 11
-14.5893
 21
180.954
  0
LINE
  8
0
 10
-14.5893
 20
180.954
 11
-15.0536
 21
180.817
  0
LINE
  8
0
 10
-15.0536
 20
180.817
 11
-15.5374
 21
180.817
  0
LINE
  8
0
 10
95.7581
 20
180.817
 11
95.2938
 21
180.954
  0
LINE
  8
0
 10
95.2938
 20
180.954
 11
94.8867
 21
181.215
  0
LINE
  8
0
 10
94.8867
 20
181.215
 11
94.5699
 21
181.581
  0
LINE
  8
0
 10
94.5699
 20
181.581
 11
94.3689
 21
182.021
  0
LINE
  8
0
 10
94.3689
 20
182.021
 11
94.3
 21
182.5
  0
LINE
  8
0
 10
94.3
 20
182.5
 11
94.3689
 21
182.979
  0
LINE
  8
0
 10
94.3689
 20
182.979
 11
94.5699
 21
183.419
  0
LINE
  8
0
 10
94.5699
 20
183.419
 11
94.8867
 21
183.785
  0
LINE
  8
0
 10
94.8867
 20
183.785
 11
95.2938
 21
184.046
  0
LINE
  8
0
 10
95.2938
 20
184.046
 11
95.7581
 21
184.183
  0
LINE
  8
0
 10
95.7581
 20
184.183
 11
96.2419
 21
184.183
  0
LINE
  8
0
 10
96.2419
 20
184.183
 11
96.7062
 21
184.046
  0
LINE
  8
0
 10
96.7062
 20
184.046
 11
97.1133
 21
183.785
  0
LINE
  8
0
 10
97.1133
 20
183.785
 11
97.4301
 21
183.419
  0
LINE
  8
0
 10
97.4301
 20
183.419
 11
97.6311
 21
182.979
  0
LINE
  8
0
 10
97.6311
 20
182.979
 11
97.7
 21
182.5
  0
LINE
  8
0
 10
97.7
 20
182.5
 11
97.6311
 21
182.021
  0
LINE
  8
0
 10
97.6311
 20
182.021
 11
97.4301
 21
181.581
  0
LINE
  8
0
 10
97.4301
 20
181.581
 11
97.1133
 21
181.215
  0
LINE
  8
0
 10
97.1133
 20
181.215
 11
96.7062
 21
180.954
  0
LINE
  8
0
 10
96.7062
 20
180.954
 11
96.2419
 21
180.817
  0
LINE
  8
0
 10
96.2419
 20
180.817
 11
95.7581
 21
180.817
  0
LINE
  8
0
 10
3.75806
 20
180.817
 11
3.29379
 21
180.954
  0
LINE
  8
0
 10
3.29379
 20
180.954
 11
2.88673
 21
181.215
  0
LINE
  8
0
 10
2.88673
 20
181.215
 11
2.56985
 21
181.581
  0
LINE
  8
0
 10
2.56985
 20
181.581
 11
2.36885
 21
182.021
  0
LINE
  8
0
 10
2.36885
 20
182.021
 11
2.29999
 21
182.5
  0
LINE
  8
0
 10
2.29999
 20
182.5
 11
2.36885
 21
182.979
  0
LINE
  8
0
 10
2.36885
 20
182.979
 11
2.56985
 21
183.419
  0
LINE
  8
0
 10
2.56985
 20
183.419
 11
2.88673
 21
183.785
  0
LINE
  8
0
 10
2.88673
 20
183.785
 11
3.29379
 21
184.046
  0
LINE
  8
0
 10
3.29379
 20
184.046
 11
3.75806
 21
184.183
  0
LINE
  8
0
 10
3.75806
 20
184.183
 11
4.24193
 21
184.183
  0
LINE
  8
0
 10
4.24193
 20
184.183
 11
4.70619
 21
184.046
  0
LINE
  8
0
 10
4.70619
 20
184.046
 11
5.11325
 21
183.785
  0
LINE
  8
0
 10
5.11325
 20
183.785
 11
5.43013
 21
183.419
  0
LINE
  8
0
 10
5.43013
 20
183.419
 11
5.63113
 21
182.979
  0
LINE
  8
0
 10
5.63113
 20
182.979
 11
5.7
 21
182.5
  0
LINE
  8
0
 10
5.7
 20
182.5
 11
5.63113
 21
182.021
  0
LINE
  8
0
 10
5.63113
 20
182.021
 11
5.43013
 21
181.581
  0
LINE
  8
0
 10
5.43013
 20
181.581
 11
5.11325
 21
181.215
  0
LINE
  8
0
 10
5.11325
 20
181.215
 11
4.70619
 21
180.954
  0
LINE
  8
0
 10
4.70619
 20
180.954
 11
4.24193
 21
180.817
  0
LINE
  8
0
 10
4.24193
 20
180.817
 11
3.75806
 21
180.817
  0
LINE
  8
0
 10
-193.853
 20
113.314
 11
-167.054
 21
140.113
  0
LINE
  8
0
 10
-167.054
 20
140.113
 11
-162.528
 21
135.588
  0
LINE
  8
0
 10
-162.528
 20
135.588
 11
-189.328
 21
108.788
  0
LINE
  8
0
 10
-189.328
 20
108.788
 11
-193.853
 21
113.314
  0
LINE
  8
0
 10
162.528
 20
135.588
 11
167.054
 21
140.113
  0
LINE
  8
0
 10
167.054
 20
140.113
 11
193.853
 21
113.314
  0
LINE
  8
0
 10
193.853
 20
113.314
 11
189.328
 21
108.788
  0
LINE
  8
0
 10
189.328
 20
108.788
 11
162.528
 21
135.588
  0
LINE
  8
0
 10
-15.5374
 20
65.8173
 11
-16.0017
 21
65.9536
  0
LINE
  8
0
 10
-16.0017
 20
65.9536
 11
-16.4088
 21
66.2152
  0
LINE
  8
0
 10
-16.4088
 20
66.2152
 11
-16.7256
 21
66.5809
  0
LINE
  8
0
 10
-16.7256
 20
66.5809
 11
-16.9266
 21
67.0211
  0
LINE
  8
0
 10
-16.9266
 20
67.0211
 11
-16.9955
 21
67.5
  0
LINE
  8
0
 10
-16.9955
 20
67.5
 11
-16.9266
 21
67.9789
  0
LINE
  8
0
 10
-16.9266
 20
67.9789
 11
-16.7256
 21
68.4191
  0
LINE
  8
0
 10
-16.7256
 20
68.4191
 11
-16.4088
 21
68.7848
  0
LINE
  8
0
 10
-16.4088
 20
68.7848
 11
-16.0017
 21
69.0464
  0
LINE
  8
0
 10
-16.0017
 20
69.0464
 11
-15.5374
 21
69.1827
  0
LINE
  8
0
 10
-15.5374
 20
69.1827
 11
-15.0536
 21
69.1827
  0
LINE
  8
0
 10
-15.0536
 20
69.1827
 11
-14.5893
 21
69.0464
  0
LINE
  8
0
 10
-14.5893
 20
69.0464
 11
-14.1822
 21
68.7848
  0
LINE
  8
0
 10
-14.1822
 20
68.7848
 11
-13.8654
 21
68.4191
  0
LINE
  8
0
 10
-13.8654
 20
68.4191
 11
-13.6644
 21
67.9789
  0
LINE
  8
0
 10
-13.6644
 20
67.9789
 11
-13.5955
 21
67.5
  0
LINE
  8
0
 10
-13.5955
 20
67.5
 11
-13.6644
 21
67.0211
  0
LINE
  8
0
 10
-13.6644
 20
67.0211
 11
-13.8654
 21
66.5809
  0
LINE
  8
0
 10
-13.8654
 20
66.5809
 11
-14.1822
 21
66.2152
  0
LINE
  8
0
 10
-14.1822
 20
66.2152
 11
-14.5893
 21
65.9536
  0
LINE
  8
0
 10
-14.5893
 20
65.9536
 11
-15.0536
 21
65.8173
  0
LINE
  8
0
 10
-15.0536
 20
65.8173
 11
-15.5374
 21
65.8173
  0
LINE
  8
0
 10
95.7581
 20
65.8173
 11
95.2938
 21
65.9536
  0
LINE
  8
0
 10
95.2938
 20
65.9536
 11
94.8867
 21
66.2152
  0
LINE
  8
0
 10
94.8867
 20
66.2152
 11
94.5699
 21
66.5809
  0
LINE
  8
0
 10
94.5699
 20
66.5809
 11
94.3689
 21
67.0211
  0
LINE
  8
0
 10
94.3689
 20
67.0211
 11
94.3
 21
67.5
  0
LINE
  8
0
 10
94.3
 20
67.5
 11
94.3689
 21
67.9789
  0
LINE
  8
0
 10
94.3689
 20
67.9789
 11
94.5699
 21
68.4191
  0
LINE
  8
0
 10
94.5699
 20
68.4191
 11
94.8867
 21
68.7848
  0
LINE
  8
0
 10
94.8867
 20
68.7848
 11
95.2938
 21
69.0464
  0
LINE
  8
0
 10
95.2938
 20
69.0464
 11
95.7581
 21
69.1827
  0
LINE
  8
0
 10
95.7581
 20
69.1827
 11
96.2419
 21
69.1827
  0
LINE
  8
0
 10
96.2419
 20
69.1827
 11
96.7062
 21
69.0464
  0
LINE
  8
0
 10
96.7062
 20
69.0464
 11
97.1133
 21
68.7848
  0
LINE
  8
0
 10
97.1133
 20
68.7848
 11
97.4301
 21
68.4191
  0
LINE
  8
0
 10
97.4301
 20
68.4191
 11
97.6311
 21
67.9789
  0
LINE
  8
0
 10
97.6311
 20
67.9789
 11
97.7
 21
67.5
  0
LINE
  8
0
 10
97.7
 20
67.5
 11
97.6311
 21
67.0211
  0
LINE
  8
0
 10
97.6311
 20
67.0211
 11
97.4301
 21
66.5809
  0
LINE
  8
0
 10
97.4301
 20
66.5809
 11
97.1133
 21
66.2152
  0
LINE
  8
0
 10
97.1133
 20
66.2152
 11
96.7062
 21
65.9536
  0
LINE
  8
0
 10
96.7062
 20
65.9536
 11
96.2419
 21
65.8173
  0
LINE
  8
0
 10
96.2419
 20
65.8173
 11
95.7581
 21
65.8173
  0
LINE
  8
0
 10
3.75806
 20
65.8173
 11
3.29379
 21
65.9536
  0
LINE
  8
0
 10
3.29379
 20
65.9536
 11
2.88673
 21
66.2152
  0
LINE
  8
0
 10
2.88673
 20
66.2152
 11
2.56985
 21
66.5809
  0
LINE
  8
0
 10
2.56985
 20
66.5809
 11
2.36885
 21
67.0211
  0
LINE
  8
0
 10
2.36885
 20
67.0211
 11
2.29999
 21
67.5
  0
LINE
  8
0
 10
2.29999
 20
67.5
 11
2.36885
 21
67.9789
  0
LINE
  8
0
 10
2.36885
 20
67.9789
 11
2.56985
 21
68.4191
  0
LINE
  8
0
 10
2.56985
 20
68.4191
 11
2.88673
 21
68.7848
  0
LINE
  8
0
 10
2.88673
 20
68.7848
 11
3.29379
 21
69.0464
  0
LINE
  8
0
 10
3.29379
 20
69.0464
 11
3.75806
 21
69.1827
  0
LINE
  8
0
 10
3.75806
 20
69.1827
 11
4.24193
 21
69.1827
  0
LINE
  8
0
 10
4.24193
 20
69.1827
 11
4.70619
 21
69.0464
  0
LINE
  8
0
 10
4.70619
 20
69.0464
 11
5.11325
 21
68.7848
  0
LINE
  8
0
 10
5.11325
 20
68.7848
 11
5.43013
 21
68.4191
  0
LINE
  8
0
 10
5.43013
 20
68.4191
 11
5.63113
 21
67.9789
  0
LINE
  8
0
 10
5.63113
 20
67.9789
 11
5.7
 21
67.5
  0
LINE
  8
0
 10
5.7
 20
67.5
 11
5.63113
 21
67.0211
  0
LINE
  8
0
 10
5.63113
 20
67.0211
 11
5.43013
 21
66.5809
  0
LINE
  8
0
 10
5.43013
 20
66.5809
 11
5.11325
 21
66.2152
  0
LINE
  8
0
 10
5.11325
 20
66.2152
 11
4.70619
 21
65.9536
  0
LINE
  8
0
 10
4.70619
 20
65.9536
 11
4.24193
 21
65.8173
  0
LINE
  8
0
 10
4.24193
 20
65.8173
 11
3.75806
 21
65.8173
  0
LINE
  8
0
 10
-76.8154
 20
64.8653
 11
-77.2797
 21
65.0016
  0
LINE
  8
0
 10
-77.2797
 20
65.0016
 11
-77.6868
 21
65.2632
  0
LINE
  8
0
 10
-77.6868
 20
65.2632
 11
-78.0036
 21
65.6289
  0
LINE
  8
0
 10
-78.0036
 20
65.6289
 11
-78.2046
 21
66.069
  0
LINE
  8
0
 10
-78.2046
 20
66.069
 11
-78.2735
 21
66.548
  0
LINE
  8
0
 10
-78.2735
 20
66.548
 11
-78.2046
 21
67.0269
  0
LINE
  8
0
 10
-78.2046
 20
67.0269
 11
-78.0036
 21
67.4671
  0
LINE
  8
0
 10
-78.0036
 20
67.4671
 11
-77.6868
 21
67.8328
  0
LINE
  8
0
 10
-77.6868
 20
67.8328
 11
-77.2797
 21
68.0944
  0
LINE
  8
0
 10
-77.2797
 20
68.0944
 11
-76.8154
 21
68.2307
  0
LINE
  8
0
 10
-76.8154
 20
68.2307
 11
-76.3316
 21
68.2307
  0
LINE
  8
0
 10
-76.3316
 20
68.2307
 11
-75.8673
 21
68.0944
  0
LINE
  8
0
 10
-75.8673
 20
68.0944
 11
-75.4602
 21
67.8328
  0
LINE
  8
0
 10
-75.4602
 20
67.8328
 11
-75.1434
 21
67.4671
  0
LINE
  8
0
 10
-75.1434
 20
67.4671
 11
-74.9424
 21
67.0269
  0
LINE
  8
0
 10
-74.9424
 20
67.0269
 11
-74.8735
 21
66.548
  0
LINE
  8
0
 10
-74.8735
 20
66.548
 11
-74.9424
 21
66.069
  0
LINE
  8
0
 10
-74.9424
 20
66.069
 11
-75.1434
 21
65.6289
  0
LINE
  8
0
 10
-75.1434
 20
65.6289
 11
-75.4602
 21
65.2632
  0
LINE
  8
0
 10
-75.4602
 20
65.2632
 11
-75.8673
 21
65.0016
  0
LINE
  8
0
 10
-75.8673
 20
65.0016
 11
-76.3316
 21
64.8653
  0
LINE
  8
0
 10
-76.3316
 20
64.8653
 11
-76.8154
 21
64.8653
  0
LINE
  8
0
 10
-32.9895
 20
12.8551
 11
-33.4545
 21
13.0179
  0
LINE
  8
0
 10
-33.4545
 20
13.0179
 11
-33.8717
 21
13.28
  0
LINE
  8
0
 10
-33.8717
 20
13.28
 11
-34.22
 21
13.6283
  0
LINE
  8
0
 10
-34.22
 20
13.6283
 11
-34.4821
 21
14.0455
  0
LINE
  8
0
 10
-34.4821
 20
14.0455
 11
-34.6448
 21
14.5105
  0
LINE
  8
0
 10
-34.6448
 20
14.5105
 11
-34.7
 21
15
  0
LINE
  8
0
 10
-34.7
 20
15
 11
-34.6448
 21
15.4895
  0
LINE
  8
0
 10
-34.6448
 20
15.4895
 11
-34.4821
 21
15.9545
  0
LINE
  8
0
 10
-34.4821
 20
15.9545
 11
-34.22
 21
16.3717
  0
LINE
  8
0
 10
-34.22
 20
16.3717
 11
-33.8717
 21
16.72
  0
LINE
  8
0
 10
-33.8717
 20
16.72
 11
-33.4545
 21
16.9821
  0
LINE
  8
0
 10
-33.4545
 20
16.9821
 11
-32.9895
 21
17.1448
  0
LINE
  8
0
 10
-32.9895
 20
17.1448
 11
-32.5
 21
17.2
  0
LINE
  8
0
 10
-32.5
 20
17.2
 11
-32.0105
 21
17.1448
  0
LINE
  8
0
 10
-32.0105
 20
17.1448
 11
-31.5455
 21
16.9821
  0
LINE
  8
0
 10
-31.5455
 20
16.9821
 11
-31.1283
 21
16.72
  0
LINE
  8
0
 10
-31.1283
 20
16.72
 11
-30.78
 21
16.3717
  0
LINE
  8
0
 10
-30.78
 20
16.3717
 11
-30.5179
 21
15.9545
  0
LINE
  8
0
 10
-30.5179
 20
15.9545
 11
-30.3551
 21
15.4895
  0
LINE
  8
0
 10
-30.3551
 20
15.4895
 11
-30.3
 21
15
  0
LINE
  8
0
 10
-30.3
 20
15
 11
-30.3551
 21
14.5105
  0
LINE
  8
0
 10
-30.3551
 20
14.5105
 11
-30.5179
 21
14.0455
  0
LINE
  8
0
 10
-30.5179
 20
14.0455
 11
-30.78
 21
13.6283
  0
LINE
  8
0
 10
-30.78
 20
13.6283
 11
-31.1283
 21
13.28
  0
LINE
  8
0
 10
-31.1283
 20
13.28
 11
-31.5455
 21
13.0179
  0
LINE
  8
0
 10
-31.5455
 20
13.0179
 11
-32.0105
 21
12.8551
  0
LINE
  8
0
 10
-32.0105
 20
12.8551
 11
-32.5
 21
12.8
  0
LINE
  8
0
 10
-32.5
 20
12.8
 11
-32.9895
 21
12.8551
  0
LINE
  8
0
 10
-82.9895
 20
12.8551
 11
-83.4545
 21
13.0179
  0
LINE
  8
0
 10
-83.4545
 20
13.0179
 11
-83.8717
 21
13.28
  0
LINE
  8
0
 10
-83.8717
 20
13.28
 11
-84.22
 21
13.6283
  0
LINE
  8
0
 10
-84.22
 20
13.6283
 11
-84.4821
 21
14.0455
  0
LINE
  8
0
 10
-84.4821
 20
14.0455
 11
-84.6448
 21
14.5105
  0
LINE
  8
0
 10
-84.6448
 20
14.5105
 11
-84.7
 21
15
  0
LINE
  8
0
 10
-84.7
 20
15
 11
-84.6448
 21
15.4895
  0
LINE
  8
0
 10
-84.6448
 20
15.4895
 11
-84.4821
 21
15.9545
  0
LINE
  8
0
 10
-84.4821
 20
15.9545
 11
-84.22
 21
16.3717
  0
LINE
  8
0
 10
-84.22
 20
16.3717
 11
-83.8717
 21
16.72
  0
LINE
  8
0
 10
-83.8717
 20
16.72
 11
-83.4545
 21
16.9821
  0
LINE
  8
0
 10
-83.4545
 20
16.9821
 11
-82.9895
 21
17.1448
  0
LINE
  8
0
 10
-82.9895
 20
17.1448
 11
-82.5
 21
17.2
  0
LINE
  8
0
 10
-82.5
 20
17.2
 11
-82.0105
 21
17.1448
  0
LINE
  8
0
 10
-82.0105
 20
17.1448
 11
-81.5455
 21
16.9821
  0
LINE
  8
0
 10
-81.5455
 20
16.9821
 11
-81.1283
 21
16.72
  0
LINE
  8
0
 10
-81.1283
 20
16.72
 11
-80.78
 21
16.3717
  0
LINE
  8
0
 10
-80.78
 20
16.3717
 11
-80.5179
 21
15.9545
  0
LINE
  8
0
 10
-80.5179
 20
15.9545
 11
-80.3551
 21
15.4895
  0
LINE
  8
0
 10
-80.3551
 20
15.4895
 11
-80.3
 21
15
  0
LINE
  8
0
 10
-80.3
 20
15
 11
-80.3551
 21
14.5105
  0
LINE
  8
0
 10
-80.3551
 20
14.5105
 11
-80.5179
 21
14.0455
  0
LINE
  8
0
 10
-80.5179
 20
14.0455
 11
-80.78
 21
13.6283
  0
LINE
  8
0
 10
-80.78
 20
13.6283
 11
-81.1283
 21
13.28
  0
LINE
  8
0
 10
-81.1283
 20
13.28
 11
-81.5455
 21
13.0179
  0
LINE
  8
0
 10
-81.5455
 20
13.0179
 11
-82.0105
 21
12.8551
  0
LINE
  8
0
 10
-82.0105
 20
12.8551
 11
-82.5
 21
12.8
  0
LINE
  8
0
 10
-82.5
 20
12.8
 11
-82.9895
 21
12.8551
  0
LINE
  8
0
 10
-4.50484
 20
-2.16942
 11
-4.50484
 21
2.16942
  0
LINE
  8
0
 10
-4.50484
 20
2.16942
 11
-1.11259
 21
4.87463
  0
LINE
  8
0
 10
-1.11259
 20
4.87463
 11
3.11745
 21
3.90915
  0
LINE
  8
0
 10
3.11745
 20
3.90915
 11
5
 21
0
  0
LINE
  8
0
 10
5
 20
0
 11
3.11745
 21
-3.90915
  0
LINE
  8
0
 10
3.11745
 20
-3.90915
 11
-1.11259
 21
-4.87463
  0
LINE
  8
0
 10
-1.11259
 20
-4.87463
 11
-4.50484
 21
-2.16942
  0
LINE
  8
0
 10
-193.853
 20
-113.314
 11
-189.328
 21
-108.788
  0
LINE
  8
0
 10
-189.328
 20
-108.788
 11
-162.528
 21
-135.588
  0
LINE
  8
0
 10
-162.528
 20
-135.588
 11
-167.054
 21
-140.113
  0
LINE
  8
0
 10
-167.054
 20
-140.113
 11
-193.853
 21
-113.314
  0
LINE
  8
0
 10
162.528
 20
-135.588
 11
189.328
 21
-108.788
  0
LINE
  8
0
 10
189.328
 20
-108.788
 11
193.853
 21
-113.314
  0
LINE
  8
0
 10
193.853
 20
-113.314
 11
167.054
 21
-140.113
  0
LINE
  8
0
 10
167.054
 20
-140.113
 11
162.528
 21
-135.588
  0
LINE
  8
0
 10
34.5105
 20
-115.645
 11
34.0455
 21
-115.482
  0
LINE
  8
0
 10
34.0455
 20
-115.482
 11
33.6283
 21
-115.22
  0
LINE
  8
0
 10
33.6283
 20
-115.22
 11
33.28
 21
-114.872
  0
LINE
  8
0
 10
33.28
 20
-114.872
 11
33.0179
 21
-114.455
  0
LINE
  8
0
 10
33.0179
 20
-114.455
 11
32.8551
 21
-113.99
  0
LINE
  8
0
 10
32.8551
 20
-113.99
 11
32.8
 21
-113.5
  0
LINE
  8
0
 10
32.8
 20
-113.5
 11
32.8551
 21
-113.01
  0
LINE
  8
0
 10
32.8551
 20
-113.01
 11
33.0179
 21
-112.545
  0
LINE
  8
0
 10
33.0179
 20
-112.545
 11
33.28
 21
-112.128
  0
LINE
  8
0
 10
33.28
 20
-112.128
 11
33.6283
 21
-111.78
  0
LINE
  8
0
 10
33.6283
 20
-111.78
 11
34.0455
 21
-111.518
  0
LINE
  8
0
 10
34.0455
 20
-111.518
 11
34.5105
 21
-111.355
  0
LINE
  8
0
 10
34.5105
 20
-111.355
 11
35
 21
-111.3
  0
LINE
  8
0
 10
35
 20
-111.3
 11
35.4895
 21
-111.355
  0
LINE
  8
0
 10
35.4895
 20
-111.355
 11
35.9545
 21
-111.518
  0
LINE
  8
0
 10
35.9545
 20
-111.518
 11
36.3717
 21
-111.78
  0
LINE
  8
0
 10
36.3717
 20
-111.78
 11
36.72
 21
-112.128
  0
LINE
  8
0
 10
36.72
 20
-112.128
 11
36.9821
 21
-112.545
  0
LINE
  8
0
 10
36.9821
 20
-112.545
 11
37.1448
 21
-113.01
  0
LINE
  8
0
 10
37.1448
 20
-113.01
 11
37.2
 21
-113.5
  0
LINE
  8
0
 10
37.2
 20
-113.5
 11
37.1448
 21
-113.99
  0
LINE
  8
0
 10
37.1448
 20
-113.99
 11
36.9821
 21
-114.455
  0
LINE
  8
0
 10
36.9821
 20
-114.455
 11
36.72
 21
-114.872
  0
LINE
  8
0
 10
36.72
 20
-114.872
 11
36.3717
 21
-115.22
  0
LINE
  8
0
 10
36.3717
 20
-115.22
 11
35.9545
 21
-115.482
  0
LINE
  8
0
 10
35.9545
 20
-115.482
 11
35.4895
 21
-115.645
  0
LINE
  8
0
 10
35.4895
 20
-115.645
 11
35
 21
-115.7
  0
LINE
  8
0
 10
35
 20
-115.7
 11
34.5105
 21
-115.645
  0
LINE
  8
0
 10
89.5105
 20
-115.645
 11
89.0455
 21
-115.482
  0
LINE
  8
0
 10
89.0455
 20
-115.482
 11
88.6283
 21
-115.22
  0
LINE
  8
0
 10
88.6283
 20
-115.22
 11
88.28
 21
-114.872
  0
LINE
  8
0
 10
88.28
 20
-114.872
 11
88.0179
 21
-114.455
  0
LINE
  8
0
 10
88.0179
 20
-114.455
 11
87.8551
 21
-113.99
  0
LINE
  8
0
 10
87.8551
 20
-113.99
 11
87.8
 21
-113.5
  0
LINE
  8
0
 10
87.8
 20
-113.5
 11
87.8551
 21
-113.01
  0
LINE
  8
0
 10
87.8551
 20
-113.01
 11
88.0179
 21
-112.545
  0
LINE
  8
0
 10
88.0179
 20
-112.545
 11
88.28
 21
-112.128
  0
LINE
  8
0
 10
88.28
 20
-112.128
 11
88.6283
 21
-111.78
  0
LINE
  8
0
 10
88.6283
 20
-111.78
 11
89.0455
 21
-111.518
  0
LINE
  8
0
 10
89.0455
 20
-111.518
 11
89.5105
 21
-111.355
  0
LINE
  8
0
 10
89.5105
 20
-111.355
 11
90
 21
-111.3
  0
LINE
  8
0
 10
90
 20
-111.3
 11
90.4895
 21
-111.355
  0
LINE
  8
0
 10
90.4895
 20
-111.355
 11
90.9545
 21
-111.518
  0
LINE
  8
0
 10
90.9545
 20
-111.518
 11
91.3717
 21
-111.78
  0
LINE
  8
0
 10
91.3717
 20
-111.78
 11
91.72
 21
-112.128
  0
LINE
  8
0
 10
91.72
 20
-112.128
 11
91.9821
 21
-112.545
  0
LINE
  8
0
 10
91.9821
 20
-112.545
 11
92.1448
 21
-113.01
  0
LINE
  8
0
 10
92.1448
 20
-113.01
 11
92.2
 21
-113.5
  0
LINE
  8
0
 10
92.2
 20
-113.5
 11
92.1448
 21
-113.99
  0
LINE
  8
0
 10
92.1448
 20
-113.99
 11
91.9821
 21
-114.455
  0
LINE
  8
0
 10
91.9821
 20
-114.455
 11
91.72
 21
-114.872
  0
LINE
  8
0
 10
91.72
 20
-114.872
 11
91.3717
 21
-115.22
  0
LINE
  8
0
 10
91.3717
 20
-115.22
 11
90.9545
 21
-115.482
  0
LINE
  8
0
 10
90.9545
 20
-115.482
 11
90.4895
 21
-115.645
  0
LINE
  8
0
 10
90.4895
 20
-115.645
 11
90
 21
-115.7
  0
LINE
  8
0
 10
90
 20
-115.7
 11
89.5105
 21
-115.645
  0
LINE
  8
0
 10
-32.9895
 20
-137.145
 11
-33.4545
 21
-136.982
  0
LINE
  8
0
 10
-33.4545
 20
-136.982
 11
-33.8717
 21
-136.72
  0
LINE
  8
0
 10
-33.8717
 20
-136.72
 11
-34.22
 21
-136.372
  0
LINE
  8
0
 10
-34.22
 20
-136.372
 11
-34.4821
 21
-135.955
  0
LINE
  8
0
 10
-34.4821
 20
-135.955
 11
-34.6448
 21
-135.49
  0
LINE
  8
0
 10
-34.6448
 20
-135.49
 11
-34.7
 21
-135
  0
LINE
  8
0
 10
-34.7
 20
-135
 11
-34.6448
 21
-134.51
  0
LINE
  8
0
 10
-34.6448
 20
-134.51
 11
-34.4821
 21
-134.045
  0
LINE
  8
0
 10
-34.4821
 20
-134.045
 11
-34.22
 21
-133.628
  0
LINE
  8
0
 10
-34.22
 20
-133.628
 11
-33.8717
 21
-133.28
  0
LINE
  8
0
 10
-33.8717
 20
-133.28
 11
-33.4545
 21
-133.018
  0
LINE
  8
0
 10
-33.4545
 20
-133.018
 11
-32.9895
 21
-132.855
  0
LINE
  8
0
 10
-32.9895
 20
-132.855
 11
-32.5
 21
-132.8
  0
LINE
  8
0
 10
-32.5
 20
-132.8
 11
-32.0105
 21
-132.855
  0
LINE
  8
0
 10
-32.0105
 20
-132.855
 11
-31.5455
 21
-133.018
  0
LINE
  8
0
 10
-31.5455
 20
-133.018
 11
-31.1283
 21
-133.28
  0
LINE
  8
0
 10
-31.1283
 20
-133.28
 11
-30.78
 21
-133.628
  0
LINE
  8
0
 10
-30.78
 20
-133.628
 11
-30.5179
 21
-134.045
  0
LINE
  8
0
 10
-30.5179
 20
-134.045
 11
-30.3551
 21
-134.51
  0
LINE
  8
0
 10
-30.3551
 20
-134.51
 11
-30.3
 21
-135
  0
LINE
  8
0
 10
-30.3
 20
-135
 11
-30.3551
 21
-135.49
  0
LINE
  8
0
 10
-30.3551
 20
-135.49
 11
-30.5179
 21
-135.955
  0
LINE
  8
0
 10
-30.5179
 20
-135.955
 11
-30.78
 21
-136.372
  0
LINE
  8
0
 10
-30.78
 20
-136.372
 11
-31.1283
 21
-136.72
  0
LINE
  8
0
 10
-31.1283
 20
-136.72
 11
-31.5455
 21
-136.982
  0
LINE
  8
0
 10
-31.5455
 20
-136.982
 11
-32.0105
 21
-137.145
  0
LINE
  8
0
 10
-32.0105
 20
-137.145
 11
-32.5
 21
-137.2
  0
LINE
  8
0
 10
-32.5
 20
-137.2
 11
-32.9895
 21
-137.145
  0
LINE
  8
0
 10
-82.9895
 20
-137.145
 11
-83.4545
 21
-136.982
  0
LINE
  8
0
 10
-83.4545
 20
-136.982
 11
-83.8717
 21
-136.72
  0
LINE
  8
0
 10
-83.8717
 20
-136.72
 11
-84.22
 21
-136.372
  0
LINE
  8
0
 10
-84.22
 20
-136.372
 11
-84.4821
 21
-135.955
  0
LINE
  8
0
 10
-84.4821
 20
-135.955
 11
-84.6448
 21
-135.49
  0
LINE
  8
0
 10
-84.6448
 20
-135.49
 11
-84.7
 21
-135
  0
LINE
  8
0
 10
-84.7
 20
-135
 11
-84.6448
 21
-134.51
  0
LINE
  8
0
 10
-84.6448
 20
-134.51
 11
-84.4821
 21
-134.045
  0
LINE
  8
0
 10
-84.4821
 20
-134.045
 11
-84.22
 21
-133.628
  0
LINE
  8
0
 10
-84.22
 20
-133.628
 11
-83.8717
 21
-133.28
  0
LINE
  8
0
 10
-83.8717
 20
-133.28
 11
-83.4545
 21
-133.018
  0
LINE
  8
0
 10
-83.4545
 20
-133.018
 11
-82.9895
 21
-132.855
  0
LINE
  8
0
 10
-82.9895
 20
-132.855
 11
-82.5
 21
-132.8
  0
LINE
  8
0
 10
-82.5
 20
-132.8
 11
-82.0105
 21
-132.855
  0
LINE
  8
0
 10
-82.0105
 20
-132.855
 11
-81.5455
 21
-133.018
  0
LINE
  8
0
 10
-81.5455
 20
-133.018
 11
-81.1283
 21
-133.28
  0
LINE
  8
0
 10
-81.1283
 20
-133.28
 11
-80.78
 21
-133.628
  0
LINE
  8
0
 10
-80.78
 20
-133.628
 11
-80.5179
 21
-134.045
  0
LINE
  8
0
 10
-80.5179
 20
-134.045
 11
-80.3551
 21
-134.51
  0
LINE
  8
0
 10
-80.3551
 20
-134.51
 11
-80.3
 21
-135
  0
LINE
  8
0
 10
-80.3
 20
-135
 11
-80.3551
 21
-135.49
  0
LINE
  8
0
 10
-80.3551
 20
-135.49
 11
-80.5179
 21
-135.955
  0
LINE
  8
0
 10
-80.5179
 20
-135.955
 11
-80.78
 21
-136.372
  0
LINE
  8
0
 10
-80.78
 20
-136.372
 11
-81.1283
 21
-136.72
  0
LINE
  8
0
 10
-81.1283
 20
-136.72
 11
-81.5455
 21
-136.982
  0
LINE
  8
0
 10
-81.5455
 20
-136.982
 11
-82.0105
 21
-137.145
  0
LINE
  8
0
 10
-82.0105
 20
-137.145
 11
-82.5
 21
-137.2
  0
LINE
  8
0
 10
-82.5
 20
-137.2
 11
-82.9895
 21
-137.145
  0
LINE
  8
0
 10
34.5105
 20
-163.645
 11
34.0455
 21
-163.482
  0
LINE
  8
0
 10
34.0455
 20
-163.482
 11
33.6283
 21
-163.22
  0
LINE
  8
0
 10
33.6283
 20
-163.22
 11
33.28
 21
-162.872
  0
LINE
  8
0
 10
33.28
 20
-162.872
 11
33.0179
 21
-162.455
  0
LINE
  8
0
 10
33.0179
 20
-162.455
 11
32.8551
 21
-161.99
  0
LINE
  8
0
 10
32.8551
 20
-161.99
 11
32.8
 21
-161.5
  0
LINE
  8
0
 10
32.8
 20
-161.5
 11
32.8551
 21
-161.01
  0
LINE
  8
0
 10
32.8551
 20
-161.01
 11
33.0179
 21
-160.545
  0
LINE
  8
0
 10
33.0179
 20
-160.545
 11
33.28
 21
-160.128
  0
LINE
  8
0
 10
33.28
 20
-160.128
 11
33.6283
 21
-159.78
  0
LINE
  8
0
 10
33.6283
 20
-159.78
 11
34.0455
 21
-159.518
  0
LINE
  8
0
 10
34.0455
 20
-159.518
 11
34.5105
 21
-159.355
  0
LINE
  8
0
 10
34.5105
 20
-159.355
 11
35
 21
-159.3
  0
LINE
  8
0
 10
35
 20
-159.3
 11
35.4895
 21
-159.355
  0
LINE
  8
0
 10
35.4895
 20
-159.355
 11
35.9545
 21
-159.518
  0
LINE
  8
0
 10
35.9545
 20
-159.518
 11
36.3717
 21
-159.78
  0
LINE
  8
0
 10
36.3717
 20
-159.78
 11
36.72
 21
-160.128
  0
LINE
  8
0
 10
36.72
 20
-160.128
 11
36.9821
 21
-160.545
  0
LINE
  8
0
 10
36.9821
 20
-160.545
 11
37.1448
 21
-161.01
  0
LINE
  8
0
 10
37.1448
 20
-161.01
 11
37.2
 21
-161.5
  0
LINE
  8
0
 10
37.2
 20
-161.5
 11
37.1448
 21
-161.99
  0
LINE
  8
0
 10
37.1448
 20
-161.99
 11
36.9821
 21
-162.455
  0
LINE
  8
0
 10
36.9821
 20
-162.455
 11
36.72
 21
-162.872
  0
LINE
  8
0
 10
36.72
 20
-162.872
 11
36.3717
 21
-163.22
  0
LINE
  8
0
 10
36.3717
 20
-163.22
 11
35.9545
 21
-163.482
  0
LINE
  8
0
 10
35.9545
 20
-163.482
 11
35.4895
 21
-163.645
  0
LINE
  8
0
 10
35.4895
 20
-163.645
 11
35
 21
-163.7
  0
LINE
  8
0
 10
35
 20
-163.7
 11
34.5105
 21
-163.645
  0
LINE
  8
0
 10
89.5105
 20
-163.645
 11
89.0455
 21
-163.482
  0
LINE
  8
0
 10
89.0455
 20
-163.482
 11
88.6283
 21
-163.22
  0
LINE
  8
0
 10
88.6283
 20
-163.22
 11
88.28
 21
-162.872
  0
LINE
  8
0
 10
88.28
 20
-162.872
 11
88.0179
 21
-162.455
  0
LINE
  8
0
 10
88.0179
 20
-162.455
 11
87.8551
 21
-161.99
  0
LINE
  8
0
 10
87.8551
 20
-161.99
 11
87.8
 21
-161.5
  0
LINE
  8
0
 10
87.8
 20
-161.5
 11
87.8551
 21
-161.01
  0
LINE
  8
0
 10
87.8551
 20
-161.01
 11
88.0179
 21
-160.545
  0
LINE
  8
0
 10
88.0179
 20
-160.545
 11
88.28
 21
-160.128
  0
LINE
  8
0
 10
88.28
 20
-160.128
 11
88.6283
 21
-159.78
  0
LINE
  8
0
 10
88.6283
 20
-159.78
 11
89.0455
 21
-159.518
  0
LINE
  8
0
 10
89.0455
 20
-159.518
 11
89.5105
 21
-159.355
  0
LINE
  8
0
 10
89.5105
 20
-159.355
 11
90
 21
-159.3
  0
LINE
  8
0
 10
90
 20
-159.3
 11
90.4895
 21
-159.355
  0
LINE
  8
0
 10
90.4895
 20
-159.355
 11
90.9545
 21
-159.518
  0
LINE
  8
0
 10
90.9545
 20
-159.518
 11
91.3717
 21
-159.78
  0
LINE
  8
0
 10
91.3717
 20
-159.78
 11
91.72
 21
-160.128
  0
LINE
  8
0
 10
91.72
 20
-160.128
 11
91.9821
 21
-160.545
  0
LINE
  8
0
 10
91.9821
 20
-160.545
 11
92.1448
 21
-161.01
  0
LINE
  8
0
 10
92.1448
 20
-161.01
 11
92.2
 21
-161.5
  0
LINE
  8
0
 10
92.2
 20
-161.5
 11
92.1448
 21
-161.99
  0
LINE
  8
0
 10
92.1448
 20
-161.99
 11
91.9821
 21
-162.455
  0
LINE
  8
0
 10
91.9821
 20
-162.455
 11
91.72
 21
-162.872
  0
LINE
  8
0
 10
91.72
 20
-162.872
 11
91.3717
 21
-163.22
  0
LINE
  8
0
 10
91.3717
 20
-163.22
 11
90.9545
 21
-163.482
  0
LINE
  8
0
 10
90.9545
 20
-163.482
 11
90.4895
 21
-163.645
  0
LINE
  8
0
 10
90.4895
 20
-163.645
 11
90
 21
-163.7
  0
LINE
  8
0
 10
90
 20
-163.7
 11
89.5105
 21
-163.645
  0
LINE
  8
0
 10
-140.113
 20
-167.054
 11
-135.588
 21
-162.528
  0
LINE
  8
0
 10
-135.588
 20
-162.528
 11
-108.788
 21
-189.328
  0
LINE
  8
0
 10
-108.788
 20
-189.328
 11
-113.314
 21
-193.853
  0
LINE
  8
0
 10
-113.314
 20
-193.853
 11
-140.113
 21
-167.054
  0
LINE
  8
0
 10
108.788
 20
-189.328
 11
135.588
 21
-162.528
  0
LINE
  8
0
 10
135.588
 20
-162.528
 11
140.113
 21
-167.054
  0
LINE
  8
0
 10
140.113
 20
-167.054
 11
113.314
 21
-193.853
  0
LINE
  8
0
 10
113.314
 20
-193.853
 11
108.788
 21
-189.328
  0
LINE
  8
0
 10
210
 20
230.75
 11
210
 21
239.25
  0
LINE
  8
0
 10
210
 20
239.25
 11
214
 21
239.25
  0
LINE
  8
0
 10
214
 20
239.25
 11
214
 21
230.75
  0
LINE
  8
0
 10
214
 20
230.75
 11
210
 21
230.75
  0
ENDSEC
  0
SECTION
  2
OBJECTS
  0
DICTIONARY
  0
ENDSEC
  0
EOF
