  0
SECTION
  2
BLOCKS
  0
ENDSEC
  0
SECTION
  2
ENTITIES
  0
LINE
  8
0
 10
-157.724
 20
-50.078
 11
-158.109
 21
-49.7631
  0
LINE
  8
0
 10
-158.109
 20
-49.7631
 11
-158.48
 21
-49.4332
  0
LINE
  8
0
 10
-158.48
 20
-49.4332
 11
-158.839
 21
-49.0888
  0
LINE
  8
0
 10
-158.839
 20
-49.0888
 11
-159.183
 21
-48.7304
  0
LINE
  8
0
 10
-159.183
 20
-48.7304
 11
-159.513
 21
-48.3586
  0
LINE
  8
0
 10
-159.513
 20
-48.3586
 11
-159.828
 21
-47.974
  0
LINE
  8
0
 10
-159.828
 20
-47.974
 11
-160.127
 21
-47.5772
  0
LINE
  8
0
 10
-160.127
 20
-47.5772
 11
-160.411
 21
-47.1688
  0
LINE
  8
0
 10
-160.411
 20
-47.1688
 11
-160.677
 21
-46.7494
  0
LINE
  8
0
 10
-160.677
 20
-46.7494
 11
-160.927
 21
-46.3198
  0
LINE
  8
0
 10
-160.927
 20
-46.3198
 11
-161.16
 21
-45.8805
  0
LINE
  8
0
 10
-161.16
 20
-45.8805
 11
-161.375
 21
-45.4324
  0
LINE
  8
0
 10
-161.375
 20
-45.4324
 11
-161.572
 21
-44.9761
  0
LINE
  8
0
 10
-161.572
 20
-44.9761
 11
-161.751
 21
-44.5123
  0
LINE
  8
0
 10
-161.751
 20
-44.5123
 11
-161.911
 21
-44.0417
  0
LINE
  8
0
 10
-161.911
 20
-44.0417
 11
-162.052
 21
-43.5652
  0
LINE
  8
0
 10
-162.052
 20
-43.5652
 11
-162.175
 21
-43.0834
  0
LINE
  8
0
 10
-162.175
 20
-43.0834
 11
-162.278
 21
-42.5971
  0
LINE
  8
0
 10
-162.278
 20
-42.5971
 11
-162.361
 21
-42.1072
  0
LINE
  8
0
 10
-162.361
 20
-42.1072
 11
-162.425
 21
-41.6143
  0
LINE
  8
0
 10
-162.425
 20
-41.6143
 11
-162.47
 21
-41.1192
  0
LINE
  8
0
 10
-162.47
 20
-41.1192
 11
-162.494
 21
-40.6228
  0
LINE
  8
0
 10
-162.494
 20
-40.6228
 11
-162.499
 21
-40.1257
  0
LINE
  8
0
 10
-162.499
 20
-40.1257
 11
-162.485
 21
-39.6289
  0
LINE
  8
0
 10
-162.485
 20
-39.6289
 11
-162.45
 21
-39.133
  0
LINE
  8
0
 10
-162.45
 20
-39.133
 11
-162.396
 21
-38.6389
  0
LINE
  8
0
 10
-162.396
 20
-38.6389
 11
-162.322
 21
-38.1474
  0
LINE
  8
0
 10
-162.322
 20
-38.1474
 11
-162.229
 21
-37.6592
  0
LINE
  8
0
 10
-162.229
 20
-37.6592
 11
-162.116
 21
-37.1751
  0
LINE
  8
0
 10
-162.116
 20
-37.1751
 11
-161.984
 21
-36.6958
  0
LINE
  8
0
 10
-161.984
 20
-36.6958
 11
-161.833
 21
-36.2222
  0
LINE
  8
0
 10
-161.833
 20
-36.2222
 11
-161.664
 21
-35.7549
  0
LINE
  8
0
 10
-161.664
 20
-35.7549
 11
-161.476
 21
-35.2948
  0
LINE
  8
0
 10
-161.476
 20
-35.2948
 11
-161.27
 21
-34.8425
  0
LINE
  8
0
 10
-161.27
 20
-34.8425
 11
-161.046
 21
-34.3987
  0
LINE
  8
0
 10
-161.046
 20
-34.3987
 11
-160.805
 21
-33.9642
  0
LINE
  8
0
 10
-160.805
 20
-33.9642
 11
-160.546
 21
-33.5396
  0
LINE
  8
0
 10
-160.546
 20
-33.5396
 11
-160.271
 21
-33.1256
  0
LINE
  8
0
 10
-160.271
 20
-33.1256
 11
-159.98
 21
-32.7229
  0
LINE
  8
0
 10
-159.98
 20
-32.7229
 11
-159.672
 21
-32.3321
  0
LINE
  8
0
 10
-159.672
 20
-32.3321
 11
-159.35
 21
-31.9538
  0
LINE
  8
0
 10
-159.35
 20
-31.9538
 11
-159.013
 21
-31.5886
  0
LINE
  8
0
 10
-159.013
 20
-31.5886
 11
-158.661
 21
-31.2372
  0
LINE
  8
0
 10
-158.661
 20
-31.2372
 11
-158.296
 21
-30.8999
  0
LINE
  8
0
 10
-158.296
 20
-30.8999
 11
-157.918
 21
-30.5775
  0
LINE
  8
0
 10
-157.918
 20
-30.5775
 11
-157.527
 21
-30.2704
  0
LINE
  8
0
 10
-157.527
 20
-30.2704
 11
-157.124
 21
-29.979
  0
LINE
  8
0
 10
-157.124
 20
-29.979
 11
-156.71
 21
-29.7039
  0
LINE
  8
0
 10
-156.71
 20
-29.7039
 11
-156.286
 21
-29.4454
  0
LINE
  8
0
 10
-156.286
 20
-29.4454
 11
-155.851
 21
-29.2041
  0
LINE
  8
0
 10
-155.851
 20
-29.2041
 11
-155.408
 21
-28.9802
  0
LINE
  8
0
 10
-155.408
 20
-28.9802
 11
-154.955
 21
-28.7741
  0
LINE
  8
0
 10
-154.955
 20
-28.7741
 11
-154.495
 21
-28.5862
  0
LINE
  8
0
 10
-154.495
 20
-28.5862
 11
-154.028
 21
-28.4167
  0
LINE
  8
0
 10
-154.028
 20
-28.4167
 11
-153.554
 21
-28.2659
  0
LINE
  8
0
 10
-153.554
 20
-28.2659
 11
-153.075
 21
-28.1341
  0
LINE
  8
0
 10
-153.075
 20
-28.1341
 11
-152.591
 21
-28.0214
  0
LINE
  8
0
 10
-152.591
 20
-28.0214
 11
-152.45
 21
-27.9945
  0
LINE
  8
0
 10
-152.45
 20
-27.9945
 11
-152.45
 21
-23.3
  0
LINE
  8
0
 10
-152.45
 20
-23.3
 11
-137.55
 21
-23.3
  0
LINE
  8
0
 10
-137.55
 20
-23.3
 11
-137.55
 21
-29.7
  0
LINE
  8
0
 10
-137.55
 20
-29.7
 11
-143.3
 21
-29.7
  0
LINE
  8
0
 10
-143.3
 20
-29.7
 11
-143.081
 21
-29.8394
  0
LINE
  8
0
 10
-143.081
 20
-29.8394
 11
-142.673
 21
-30.1227
  0
LINE
  8
0
 10
-142.673
 20
-30.1227
 11
-142.276
 21
-30.422
  0
LINE
  8
0
 10
-142.276
 20
-30.422
 11
-141.891
 21
-30.7368
  0
LINE
  8
0
 10
-141.891
 20
-30.7368
 11
-141.52
 21
-31.0667
  0
LINE
  8
0
 10
-141.52
 20
-31.0667
 11
-141.161
 21
-31.4112
  0
LINE
  8
0
 10
-141.161
 20
-31.4112
 11
-140.817
 21
-31.7695
  0
LINE
  8
0
 10
-140.817
 20
-31.7695
 11
-140.487
 21
-32.1413
  0
LINE
  8
0
 10
-140.487
 20
-32.1413
 11
-140.172
 21
-32.526
  0
LINE
  8
0
 10
-140.172
 20
-32.526
 11
-139.873
 21
-32.9228
  0
LINE
  8
0
 10
-139.873
 20
-32.9228
 11
-139.589
 21
-33.3312
  0
LINE
  8
0
 10
-139.589
 20
-33.3312
 11
-139.323
 21
-33.7506
  0
LINE
  8
0
 10
-139.323
 20
-33.7506
 11
-139.073
 21
-34.1802
  0
LINE
  8
0
 10
-139.073
 20
-34.1802
 11
-138.84
 21
-34.6194
  0
LINE
  8
0
 10
-138.84
 20
-34.6194
 11
-138.625
 21
-35.0676
  0
LINE
  8
0
 10
-138.625
 20
-35.0676
 11
-138.428
 21
-35.5239
  0
LINE
  8
0
 10
-138.428
 20
-35.5239
 11
-138.249
 21
-35.9877
  0
LINE
  8
0
 10
-138.249
 20
-35.9877
 11
-138.089
 21
-36.4583
  0
LINE
  8
0
 10
-138.089
 20
-36.4583
 11
-137.948
 21
-36.9348
  0
LINE
  8
0
 10
-137.948
 20
-36.9348
 11
-137.825
 21
-37.4166
  0
LINE
  8
0
 10
-137.825
 20
-37.4166
 11
-137.722
 21
-37.9028
  0
LINE
  8
0
 10
-137.722
 20
-37.9028
 11
-137.639
 21
-38.3928
  0
LINE
  8
0
 10
-137.639
 20
-38.3928
 11
-137.575
 21
-38.8857
  0
LINE
  8
0
 10
-137.575
 20
-38.8857
 11
-137.53
 21
-39.3808
  0
LINE
  8
0
 10
-137.53
 20
-39.3808
 11
-137.506
 21
-39.8772
  0
LINE
  8
0
 10
-137.506
 20
-39.8772
 11
-137.501
 21
-40.3743
  0
LINE
  8
0
 10
-137.501
 20
-40.3743
 11
-137.515
 21
-40.8711
  0
LINE
  8
0
 10
-137.515
 20
-40.8711
 11
-137.55
 21
-41.3669
  0
LINE
  8
0
 10
-137.55
 20
-41.3669
 11
-137.604
 21
-41.861
  0
LINE
  8
0
 10
-137.604
 20
-41.861
 11
-137.678
 21
-42.3526
  0
LINE
  8
0
 10
-137.678
 20
-42.3526
 11
-137.771
 21
-42.8408
  0
LINE
  8
0
 10
-137.771
 20
-42.8408
 11
-137.884
 21
-43.3249
  0
LINE
  8
0
 10
-137.884
 20
-43.3249
 11
-138.016
 21
-43.8042
  0
LINE
  8
0
 10
-138.016
 20
-43.8042
 11
-138.167
 21
-44.2778
  0
LINE
  8
0
 10
-138.167
 20
-44.2778
 11
-138.336
 21
-44.7451
  0
LINE
  8
0
 10
-138.336
 20
-44.7451
 11
-138.524
 21
-45.2052
  0
LINE
  8
0
 10
-138.524
 20
-45.2052
 11
-138.73
 21
-45.6575
  0
LINE
  8
0
 10
-138.73
 20
-45.6575
 11
-138.954
 21
-46.1013
  0
LINE
  8
0
 10
-138.954
 20
-46.1013
 11
-139.195
 21
-46.5358
  0
LINE
  8
0
 10
-139.195
 20
-46.5358
 11
-139.454
 21
-46.9604
  0
LINE
  8
0
 10
-139.454
 20
-46.9604
 11
-139.729
 21
-47.3744
  0
LINE
  8
0
 10
-139.729
 20
-47.3744
 11
-140.02
 21
-47.7771
  0
LINE
  8
0
 10
-140.02
 20
-47.7771
 11
-140.328
 21
-48.1679
  0
LINE
  8
0
 10
-140.328
 20
-48.1679
 11
-140.65
 21
-48.5462
  0
LINE
  8
0
 10
-140.65
 20
-48.5462
 11
-140.987
 21
-48.9113
  0
LINE
  8
0
 10
-140.987
 20
-48.9113
 11
-141.339
 21
-49.2628
  0
LINE
  8
0
 10
-141.339
 20
-49.2628
 11
-141.704
 21
-49.6
  0
LINE
  8
0
 10
-141.704
 20
-49.6
 11
-142.082
 21
-49.9225
  0
LINE
  8
0
 10
-142.082
 20
-49.9225
 11
-142.473
 21
-50.2296
  0
LINE
  8
0
 10
-142.473
 20
-50.2296
 11
-142.501
 21
-50.25
  0
LINE
  8
0
 10
-142.501
 20
-50.25
 11
-7.49597
 21
-50.25
  0
LINE
  8
0
 10
-7.49597
 20
-50.25
 11
-7.72401
 21
-50.078
  0
LINE
  8
0
 10
-7.72401
 20
-50.078
 11
-8.10864
 21
-49.7631
  0
LINE
  8
0
 10
-8.10864
 20
-49.7631
 11
-8.48044
 21
-49.4332
  0
LINE
  8
0
 10
-8.48044
 20
-49.4332
 11
-8.83882
 21
-49.0888
  0
LINE
  8
0
 10
-8.83882
 20
-49.0888
 11
-9.18324
 21
-48.7304
  0
LINE
  8
0
 10
-9.18324
 20
-48.7304
 11
-9.51314
 21
-48.3586
  0
LINE
  8
0
 10
-9.51314
 20
-48.3586
 11
-9.82799
 21
-47.974
  0
LINE
  8
0
 10
-9.82799
 20
-47.974
 11
-10.1273
 21
-47.5772
  0
LINE
  8
0
 10
-10.1273
 20
-47.5772
 11
-10.4106
 21
-47.1688
  0
LINE
  8
0
 10
-10.4106
 20
-47.1688
 11
-10.6774
 21
-46.7494
  0
LINE
  8
0
 10
-10.6774
 20
-46.7494
 11
-10.9274
 21
-46.3198
  0
LINE
  8
0
 10
-10.9274
 20
-46.3198
 11
-11.16
 21
-45.8805
  0
LINE
  8
0
 10
-11.16
 20
-45.8805
 11
-11.3751
 21
-45.4324
  0
LINE
  8
0
 10
-11.3751
 20
-45.4324
 11
-11.5721
 21
-44.9761
  0
LINE
  8
0
 10
-11.5721
 20
-44.9761
 11
-11.7509
 21
-44.5123
  0
LINE
  8
0
 10
-11.7509
 20
-44.5123
 11
-11.911
 21
-44.0417
  0
LINE
  8
0
 10
-11.911
 20
-44.0417
 11
-12.0524
 21
-43.5652
  0
LINE
  8
0
 10
-12.0524
 20
-43.5652
 11
-12.1746
 21
-43.0834
  0
LINE
  8
0
 10
-12.1746
 20
-43.0834
 11
-12.2776
 21
-42.5971
  0
LINE
  8
0
 10
-12.2776
 20
-42.5971
 11
-12.3613
 21
-42.1072
  0
LINE
  8
0
 10
-12.3613
 20
-42.1072
 11
-12.4253
 21
-41.6143
  0
LINE
  8
0
 10
-12.4253
 20
-41.6143
 11
-12.4697
 21
-41.1192
  0
LINE
  8
0
 10
-12.4697
 20
-41.1192
 11
-12.4944
 21
-40.6228
  0
LINE
  8
0
 10
-12.4944
 20
-40.6228
 11
-12.4994
 21
-40.1257
  0
LINE
  8
0
 10
-12.4994
 20
-40.1257
 11
-12.4846
 21
-39.6289
  0
LINE
  8
0
 10
-12.4846
 20
-39.6289
 11
-12.45
 21
-39.133
  0
LINE
  8
0
 10
-12.45
 20
-39.133
 11
-12.3957
 21
-38.6389
  0
LINE
  8
0
 10
-12.3957
 20
-38.6389
 11
-12.3219
 21
-38.1474
  0
LINE
  8
0
 10
-12.3219
 20
-38.1474
 11
-12.2286
 21
-37.6592
  0
LINE
  8
0
 10
-12.2286
 20
-37.6592
 11
-12.1159
 21
-37.1751
  0
LINE
  8
0
 10
-12.1159
 20
-37.1751
 11
-11.9841
 21
-36.6958
  0
LINE
  8
0
 10
-11.9841
 20
-36.6958
 11
-11.8333
 21
-36.2222
  0
LINE
  8
0
 10
-11.8333
 20
-36.2222
 11
-11.6638
 21
-35.7549
  0
LINE
  8
0
 10
-11.6638
 20
-35.7549
 11
-11.4759
 21
-35.2948
  0
LINE
  8
0
 10
-11.4759
 20
-35.2948
 11
-11.2698
 21
-34.8425
  0
LINE
  8
0
 10
-11.2698
 20
-34.8425
 11
-11.0459
 21
-34.3987
  0
LINE
  8
0
 10
-11.0459
 20
-34.3987
 11
-10.8045
 21
-33.9642
  0
LINE
  8
0
 10
-10.8045
 20
-33.9642
 11
-10.5461
 21
-33.5396
  0
LINE
  8
0
 10
-10.5461
 20
-33.5396
 11
-10.271
 21
-33.1256
  0
LINE
  8
0
 10
-10.271
 20
-33.1256
 11
-9.97961
 21
-32.7229
  0
LINE
  8
0
 10
-9.97961
 20
-32.7229
 11
-9.67247
 21
-32.3321
  0
LINE
  8
0
 10
-9.67247
 20
-32.3321
 11
-9.35004
 21
-31.9538
  0
LINE
  8
0
 10
-9.35004
 20
-31.9538
 11
-9.01282
 21
-31.5886
  0
LINE
  8
0
 10
-9.01282
 20
-31.5886
 11
-8.66135
 21
-31.2372
  0
LINE
  8
0
 10
-8.66135
 20
-31.2372
 11
-8.29617
 21
-30.8999
  0
LINE
  8
0
 10
-8.29617
 20
-30.8999
 11
-7.91789
 21
-30.5775
  0
LINE
  8
0
 10
-7.91789
 20
-30.5775
 11
-7.52708
 21
-30.2704
  0
LINE
  8
0
 10
-7.52708
 20
-30.2704
 11
-7.12439
 21
-29.979
  0
LINE
  8
0
 10
-7.12439
 20
-29.979
 11
-6.71042
 21
-29.7039
  0
LINE
  8
0
 10
-6.71042
 20
-29.7039
 11
-6.28583
 21
-29.4454
  0
LINE
  8
0
 10
-6.28583
 20
-29.4454
 11
-5.85132
 21
-29.2041
  0
LINE
  8
0
 10
-5.85132
 20
-29.2041
 11
-5.40753
 21
-28.9802
  0
LINE
  8
0
 10
-5.40753
 20
-28.9802
 11
-4.95522
 21
-28.7741
  0
LINE
  8
0
 10
-4.95522
 20
-28.7741
 11
-4.49506
 21
-28.5862
  0
LINE
  8
0
 10
-4.49506
 20
-28.5862
 11
-4.02779
 21
-28.4167
  0
LINE
  8
0
 10
-4.02779
 20
-28.4167
 11
-3.55415
 21
-28.2659
  0
LINE
  8
0
 10
-3.55415
 20
-28.2659
 11
-3.07491
 21
-28.1341
  0
LINE
  8
0
 10
-3.07491
 20
-28.1341
 11
-2.59079
 21
-28.0214
  0
LINE
  8
0
 10
-2.59079
 20
-28.0214
 11
-2.10257
 21
-27.9281
  0
LINE
  8
0
 10
-2.10257
 20
-27.9281
 11
-1.61104
 21
-27.8542
  0
LINE
  8
0
 10
-1.61104
 20
-27.8542
 11
-1.11694
 21
-27.8
  0
LINE
  8
0
 10
-1.11694
 20
-27.8
 11
-0.621094
 21
-27.7654
  0
LINE
  8
0
 10
-0.621094
 20
-27.7654
 11
-0.124268
 21
-27.7506
  0
LINE
  8
0
 10
-0.124268
 20
-27.7506
 11
0.372757
 21
-27.7556
  0
LINE
  8
0
 10
0.372757
 20
-27.7556
 11
0.869186
 21
-27.7803
  0
LINE
  8
0
 10
0.869186
 20
-27.7803
 11
1.36426
 21
-27.8247
  0
LINE
  8
0
 10
1.36426
 20
-27.8247
 11
1.85716
 21
-27.8887
  0
LINE
  8
0
 10
1.85716
 20
-27.8887
 11
2.34714
 21
-27.9723
  0
LINE
  8
0
 10
2.34714
 20
-27.9723
 11
2.8334
 21
-28.0754
  0
LINE
  8
0
 10
2.8334
 20
-28.0754
 11
3.31519
 21
-28.1976
  0
LINE
  8
0
 10
3.31519
 20
-28.1976
 11
3.79172
 21
-28.339
  0
LINE
  8
0
 10
3.79172
 20
-28.339
 11
4.26227
 21
-28.4991
  0
LINE
  8
0
 10
4.26227
 20
-28.4991
 11
4.72607
 21
-28.6779
  0
LINE
  8
0
 10
4.72607
 20
-28.6779
 11
5.1824
 21
-28.8749
  0
LINE
  8
0
 10
5.1824
 20
-28.8749
 11
5.63054
 21
-29.0899
  0
LINE
  8
0
 10
5.63054
 20
-29.0899
 11
6.06978
 21
-29.3226
  0
LINE
  8
0
 10
6.06978
 20
-29.3226
 11
6.4994
 21
-29.5726
  0
LINE
  8
0
 10
6.4994
 20
-29.5726
 11
6.91876
 21
-29.8394
  0
LINE
  8
0
 10
6.91876
 20
-29.8394
 11
7.32718
 21
-30.1227
  0
LINE
  8
0
 10
7.32718
 20
-30.1227
 11
7.72401
 21
-30.422
  0
LINE
  8
0
 10
7.72401
 20
-30.422
 11
8.10864
 21
-30.7368
  0
LINE
  8
0
 10
8.10864
 20
-30.7368
 11
8.48044
 21
-31.0667
  0
LINE
  8
0
 10
8.48044
 20
-31.0667
 11
8.83882
 21
-31.4112
  0
LINE
  8
0
 10
8.83882
 20
-31.4112
 11
9.18324
 21
-31.7695
  0
LINE
  8
0
 10
9.18324
 20
-31.7695
 11
9.51314
 21
-32.1413
  0
LINE
  8
0
 10
9.51314
 20
-32.1413
 11
9.82799
 21
-32.526
  0
LINE
  8
0
 10
9.82799
 20
-32.526
 11
10.1273
 21
-32.9228
  0
LINE
  8
0
 10
10.1273
 20
-32.9228
 11
10.4106
 21
-33.3312
  0
LINE
  8
0
 10
10.4106
 20
-33.3312
 11
10.6774
 21
-33.7506
  0
LINE
  8
0
 10
10.6774
 20
-33.7506
 11
10.9274
 21
-34.1802
  0
LINE
  8
0
 10
10.9274
 20
-34.1802
 11
11.16
 21
-34.6194
  0
LINE
  8
0
 10
11.16
 20
-34.6194
 11
11.3751
 21
-35.0676
  0
LINE
  8
0
 10
11.3751
 20
-35.0676
 11
11.5721
 21
-35.5239
  0
LINE
  8
0
 10
11.5721
 20
-35.5239
 11
11.7509
 21
-35.9877
  0
LINE
  8
0
 10
11.7509
 20
-35.9877
 11
11.911
 21
-36.4583
  0
LINE
  8
0
 10
11.911
 20
-36.4583
 11
12.0524
 21
-36.9348
  0
LINE
  8
0
 10
12.0524
 20
-36.9348
 11
12.1746
 21
-37.4166
  0
LINE
  8
0
 10
12.1746
 20
-37.4166
 11
12.2776
 21
-37.9028
  0
LINE
  8
0
 10
12.2776
 20
-37.9028
 11
12.3613
 21
-38.3928
  0
LINE
  8
0
 10
12.3613
 20
-38.3928
 11
12.4253
 21
-38.8857
  0
LINE
  8
0
 10
12.4253
 20
-38.8857
 11
12.4697
 21
-39.3808
  0
LINE
  8
0
 10
12.4697
 20
-39.3808
 11
12.4944
 21
-39.8772
  0
LINE
  8
0
 10
12.4944
 20
-39.8772
 11
12.4994
 21
-40.3743
  0
LINE
  8
0
 10
12.4994
 20
-40.3743
 11
12.4846
 21
-40.8711
  0
LINE
  8
0
 10
12.4846
 20
-40.8711
 11
12.45
 21
-41.3669
  0
LINE
  8
0
 10
12.45
 20
-41.3669
 11
12.3957
 21
-41.861
  0
LINE
  8
0
 10
12.3957
 20
-41.861
 11
12.3219
 21
-42.3526
  0
LINE
  8
0
 10
12.3219
 20
-42.3526
 11
12.2286
 21
-42.8408
  0
LINE
  8
0
 10
12.2286
 20
-42.8408
 11
12.1159
 21
-43.3249
  0
LINE
  8
0
 10
12.1159
 20
-43.3249
 11
11.9841
 21
-43.8042
  0
LINE
  8
0
 10
11.9841
 20
-43.8042
 11
11.8333
 21
-44.2778
  0
LINE
  8
0
 10
11.8333
 20
-44.2778
 11
11.6638
 21
-44.7451
  0
LINE
  8
0
 10
11.6638
 20
-44.7451
 11
11.4759
 21
-45.2052
  0
LINE
  8
0
 10
11.4759
 20
-45.2052
 11
11.2698
 21
-45.6575
  0
LINE
  8
0
 10
11.2698
 20
-45.6575
 11
11.0459
 21
-46.1013
  0
LINE
  8
0
 10
11.0459
 20
-46.1013
 11
10.8045
 21
-46.5358
  0
LINE
  8
0
 10
10.8045
 20
-46.5358
 11
10.5461
 21
-46.9604
  0
LINE
  8
0
 10
10.5461
 20
-46.9604
 11
10.271
 21
-47.3744
  0
LINE
  8
0
 10
10.271
 20
-47.3744
 11
9.97961
 21
-47.7771
  0
LINE
  8
0
 10
9.97961
 20
-47.7771
 11
9.67247
 21
-48.1679
  0
LINE
  8
0
 10
9.67247
 20
-48.1679
 11
9.35004
 21
-48.5462
  0
LINE
  8
0
 10
9.35004
 20
-48.5462
 11
9.01282
 21
-48.9113
  0
LINE
  8
0
 10
9.01282
 20
-48.9113
 11
8.66135
 21
-49.2628
  0
LINE
  8
0
 10
8.66135
 20
-49.2628
 11
8.29617
 21
-49.6
  0
LINE
  8
0
 10
8.29617
 20
-49.6
 11
7.91789
 21
-49.9225
  0
LINE
  8
0
 10
7.91789
 20
-49.9225
 11
7.52708
 21
-50.2296
  0
LINE
  8
0
 10
7.52708
 20
-50.2296
 11
7.49892
 21
-50.25
  0
LINE
  8
0
 10
7.49892
 20
-50.25
 11
142.504
 21
-50.25
  0
LINE
  8
0
 10
142.504
 20
-50.25
 11
142.276
 21
-50.078
  0
LINE
  8
0
 10
142.276
 20
-50.078
 11
141.891
 21
-49.7631
  0
LINE
  8
0
 10
141.891
 20
-49.7631
 11
141.52
 21
-49.4332
  0
LINE
  8
0
 10
141.52
 20
-49.4332
 11
141.161
 21
-49.0888
  0
LINE
  8
0
 10
141.161
 20
-49.0888
 11
140.817
 21
-48.7304
  0
LINE
  8
0
 10
140.817
 20
-48.7304
 11
140.487
 21
-48.3586
  0
LINE
  8
0
 10
140.487
 20
-48.3586
 11
140.172
 21
-47.974
  0
LINE
  8
0
 10
140.172
 20
-47.974
 11
139.873
 21
-47.5772
  0
LINE
  8
0
 10
139.873
 20
-47.5772
 11
139.589
 21
-47.1688
  0
LINE
  8
0
 10
139.589
 20
-47.1688
 11
139.323
 21
-46.7494
  0
LINE
  8
0
 10
139.323
 20
-46.7494
 11
139.073
 21
-46.3198
  0
LINE
  8
0
 10
139.073
 20
-46.3198
 11
138.84
 21
-45.8805
  0
LINE
  8
0
 10
138.84
 20
-45.8805
 11
138.625
 21
-45.4324
  0
LINE
  8
0
 10
138.625
 20
-45.4324
 11
138.428
 21
-44.9761
  0
LINE
  8
0
 10
138.428
 20
-44.9761
 11
138.249
 21
-44.5123
  0
LINE
  8
0
 10
138.249
 20
-44.5123
 11
138.089
 21
-44.0417
  0
LINE
  8
0
 10
138.089
 20
-44.0417
 11
137.948
 21
-43.5652
  0
LINE
  8
0
 10
137.948
 20
-43.5652
 11
137.825
 21
-43.0834
  0
LINE
  8
0
 10
137.825
 20
-43.0834
 11
137.722
 21
-42.5971
  0
LINE
  8
0
 10
137.722
 20
-42.5971
 11
137.639
 21
-42.1072
  0
LINE
  8
0
 10
137.639
 20
-42.1072
 11
137.575
 21
-41.6143
  0
LINE
  8
0
 10
137.575
 20
-41.6143
 11
137.53
 21
-41.1192
  0
LINE
  8
0
 10
137.53
 20
-41.1192
 11
137.506
 21
-40.6228
  0
LINE
  8
0
 10
137.506
 20
-40.6228
 11
137.501
 21
-40.1257
  0
LINE
  8
0
 10
137.501
 20
-40.1257
 11
137.515
 21
-39.6289
  0
LINE
  8
0
 10
137.515
 20
-39.6289
 11
137.55
 21
-39.133
  0
LINE
  8
0
 10
137.55
 20
-39.133
 11
137.604
 21
-38.6389
  0
LINE
  8
0
 10
137.604
 20
-38.6389
 11
137.678
 21
-38.1474
  0
LINE
  8
0
 10
137.678
 20
-38.1474
 11
137.771
 21
-37.6592
  0
LINE
  8
0
 10
137.771
 20
-37.6592
 11
137.884
 21
-37.1751
  0
LINE
  8
0
 10
137.884
 20
-37.1751
 11
138.016
 21
-36.6958
  0
LINE
  8
0
 10
138.016
 20
-36.6958
 11
138.167
 21
-36.2222
  0
LINE
  8
0
 10
138.167
 20
-36.2222
 11
138.336
 21
-35.7549
  0
LINE
  8
0
 10
138.336
 20
-35.7549
 11
138.524
 21
-35.2948
  0
LINE
  8
0
 10
138.524
 20
-35.2948
 11
138.73
 21
-34.8425
  0
LINE
  8
0
 10
138.73
 20
-34.8425
 11
138.954
 21
-34.3987
  0
LINE
  8
0
 10
138.954
 20
-34.3987
 11
139.195
 21
-33.9642
  0
LINE
  8
0
 10
139.195
 20
-33.9642
 11
139.454
 21
-33.5396
  0
LINE
  8
0
 10
139.454
 20
-33.5396
 11
139.729
 21
-33.1256
  0
LINE
  8
0
 10
139.729
 20
-33.1256
 11
140.02
 21
-32.7229
  0
LINE
  8
0
 10
140.02
 20
-32.7229
 11
140.328
 21
-32.3321
  0
LINE
  8
0
 10
140.328
 20
-32.3321
 11
140.65
 21
-31.9538
  0
LINE
  8
0
 10
140.65
 20
-31.9538
 11
140.987
 21
-31.5886
  0
LINE
  8
0
 10
140.987
 20
-31.5886
 11
141.339
 21
-31.2372
  0
LINE
  8
0
 10
141.339
 20
-31.2372
 11
141.704
 21
-30.8999
  0
LINE
  8
0
 10
141.704
 20
-30.8999
 11
142.082
 21
-30.5775
  0
LINE
  8
0
 10
142.082
 20
-30.5775
 11
142.473
 21
-30.2704
  0
LINE
  8
0
 10
142.473
 20
-30.2704
 11
142.876
 21
-29.979
  0
LINE
  8
0
 10
142.876
 20
-29.979
 11
143.296
 21
-29.7
  0
LINE
  8
0
 10
143.296
 20
-29.7
 11
137.55
 21
-29.7
  0
LINE
  8
0
 10
137.55
 20
-29.7
 11
137.55
 21
-23.3
  0
LINE
  8
0
 10
137.55
 20
-23.3
 11
152.45
 21
-23.3
  0
LINE
  8
0
 10
152.45
 20
-23.3
 11
152.45
 21
-27.9941
  0
LINE
  8
0
 10
152.45
 20
-27.9941
 11
152.833
 21
-28.0754
  0
LINE
  8
0
 10
152.833
 20
-28.0754
 11
153.315
 21
-28.1976
  0
LINE
  8
0
 10
153.315
 20
-28.1976
 11
153.792
 21
-28.339
  0
LINE
  8
0
 10
153.792
 20
-28.339
 11
154.262
 21
-28.4991
  0
LINE
  8
0
 10
154.262
 20
-28.4991
 11
154.726
 21
-28.6779
  0
LINE
  8
0
 10
154.726
 20
-28.6779
 11
155.182
 21
-28.8749
  0
LINE
  8
0
 10
155.182
 20
-28.8749
 11
155.631
 21
-29.0899
  0
LINE
  8
0
 10
155.631
 20
-29.0899
 11
156.07
 21
-29.3226
  0
LINE
  8
0
 10
156.07
 20
-29.3226
 11
156.499
 21
-29.5726
  0
LINE
  8
0
 10
156.499
 20
-29.5726
 11
156.919
 21
-29.8394
  0
LINE
  8
0
 10
156.919
 20
-29.8394
 11
157.327
 21
-30.1227
  0
LINE
  8
0
 10
157.327
 20
-30.1227
 11
157.724
 21
-30.422
  0
LINE
  8
0
 10
157.724
 20
-30.422
 11
158.109
 21
-30.7368
  0
LINE
  8
0
 10
158.109
 20
-30.7368
 11
158.48
 21
-31.0667
  0
LINE
  8
0
 10
158.48
 20
-31.0667
 11
158.839
 21
-31.4112
  0
LINE
  8
0
 10
158.839
 20
-31.4112
 11
159.183
 21
-31.7695
  0
LINE
  8
0
 10
159.183
 20
-31.7695
 11
159.513
 21
-32.1413
  0
LINE
  8
0
 10
159.513
 20
-32.1413
 11
159.828
 21
-32.526
  0
LINE
  8
0
 10
159.828
 20
-32.526
 11
160.127
 21
-32.9228
  0
LINE
  8
0
 10
160.127
 20
-32.9228
 11
160.411
 21
-33.3312
  0
LINE
  8
0
 10
160.411
 20
-33.3312
 11
160.677
 21
-33.7506
  0
LINE
  8
0
 10
160.677
 20
-33.7506
 11
160.927
 21
-34.1802
  0
LINE
  8
0
 10
160.927
 20
-34.1802
 11
161.16
 21
-34.6194
  0
LINE
  8
0
 10
161.16
 20
-34.6194
 11
161.375
 21
-35.0676
  0
LINE
  8
0
 10
161.375
 20
-35.0676
 11
161.572
 21
-35.5239
  0
LINE
  8
0
 10
161.572
 20
-35.5239
 11
161.751
 21
-35.9877
  0
LINE
  8
0
 10
161.751
 20
-35.9877
 11
161.911
 21
-36.4583
  0
LINE
  8
0
 10
161.911
 20
-36.4583
 11
162.052
 21
-36.9348
  0
LINE
  8
0
 10
162.052
 20
-36.9348
 11
162.175
 21
-37.4166
  0
LINE
  8
0
 10
162.175
 20
-37.4166
 11
162.278
 21
-37.9028
  0
LINE
  8
0
 10
162.278
 20
-37.9028
 11
162.361
 21
-38.3928
  0
LINE
  8
0
 10
162.361
 20
-38.3928
 11
162.425
 21
-38.8857
  0
LINE
  8
0
 10
162.425
 20
-38.8857
 11
162.47
 21
-39.3808
  0
LINE
  8
0
 10
162.47
 20
-39.3808
 11
162.494
 21
-39.8772
  0
LINE
  8
0
 10
162.494
 20
-39.8772
 11
162.499
 21
-40.3743
  0
LINE
  8
0
 10
162.499
 20
-40.3743
 11
162.485
 21
-40.8711
  0
LINE
  8
0
 10
162.485
 20
-40.8711
 11
162.45
 21
-41.3669
  0
LINE
  8
0
 10
162.45
 20
-41.3669
 11
162.396
 21
-41.861
  0
LINE
  8
0
 10
162.396
 20
-41.861
 11
162.322
 21
-42.3526
  0
LINE
  8
0
 10
162.322
 20
-42.3526
 11
162.229
 21
-42.8408
  0
LINE
  8
0
 10
162.229
 20
-42.8408
 11
162.116
 21
-43.3249
  0
LINE
  8
0
 10
162.116
 20
-43.3249
 11
161.984
 21
-43.8042
  0
LINE
  8
0
 10
161.984
 20
-43.8042
 11
161.833
 21
-44.2778
  0
LINE
  8
0
 10
161.833
 20
-44.2778
 11
161.664
 21
-44.7451
  0
LINE
  8
0
 10
161.664
 20
-44.7451
 11
161.476
 21
-45.2052
  0
LINE
  8
0
 10
161.476
 20
-45.2052
 11
161.27
 21
-45.6575
  0
LINE
  8
0
 10
161.27
 20
-45.6575
 11
161.046
 21
-46.1013
  0
LINE
  8
0
 10
161.046
 20
-46.1013
 11
160.805
 21
-46.5358
  0
LINE
  8
0
 10
160.805
 20
-46.5358
 11
160.546
 21
-46.9604
  0
LINE
  8
0
 10
160.546
 20
-46.9604
 11
160.271
 21
-47.3744
  0
LINE
  8
0
 10
160.271
 20
-47.3744
 11
159.98
 21
-47.7771
  0
LINE
  8
0
 10
159.98
 20
-47.7771
 11
159.672
 21
-48.1679
  0
LINE
  8
0
 10
159.672
 20
-48.1679
 11
159.35
 21
-48.5462
  0
LINE
  8
0
 10
159.35
 20
-48.5462
 11
159.013
 21
-48.9113
  0
LINE
  8
0
 10
159.013
 20
-48.9113
 11
158.661
 21
-49.2628
  0
LINE
  8
0
 10
158.661
 20
-49.2628
 11
158.296
 21
-49.6
  0
LINE
  8
0
 10
158.296
 20
-49.6
 11
157.918
 21
-49.9225
  0
LINE
  8
0
 10
157.918
 20
-49.9225
 11
157.527
 21
-50.2296
  0
LINE
  8
0
 10
157.527
 20
-50.2296
 11
157.499
 21
-50.25
  0
LINE
  8
0
 10
157.499
 20
-50.25
 11
239.75
 21
-50.25
  0
LINE
  8
0
 10
239.75
 20
-50.25
 11
239.75
 21
9.75
  0
LINE
  8
0
 10
239.75
 20
9.75
 11
218.598
 21
9.75
  0
LINE
  8
0
 10
218.598
 20
9.75
 11
218.519
 21
10.0805
  0
LINE
  8
0
 10
218.519
 20
10.0805
 11
218.388
 21
10.5624
  0
LINE
  8
0
 10
218.388
 20
10.5624
 11
218.241
 21
11.0397
  0
LINE
  8
0
 10
218.241
 20
11.0397
 11
218.079
 21
11.5122
  0
LINE
  8
0
 10
218.079
 20
11.5122
 11
217.902
 21
11.9791
  0
LINE
  8
0
 10
217.902
 20
11.9791
 11
217.71
 21
12.4401
  0
LINE
  8
0
 10
217.71
 20
12.4401
 11
217.503
 21
12.8947
  0
LINE
  8
0
 10
217.503
 20
12.8947
 11
217.282
 21
13.3424
  0
LINE
  8
0
 10
217.282
 20
13.3424
 11
217.047
 21
13.7827
  0
LINE
  8
0
 10
217.047
 20
13.7827
 11
208.438
 21
28.6961
  0
LINE
  8
0
 10
208.438
 20
28.6961
 11
208.166
 21
29.1097
  0
LINE
  8
0
 10
208.166
 20
29.1097
 11
207.86
 21
29.4984
  0
LINE
  8
0
 10
207.86
 20
29.4984
 11
207.522
 21
29.8594
  0
LINE
  8
0
 10
207.522
 20
29.8594
 11
207.154
 21
30.1899
  0
LINE
  8
0
 10
207.154
 20
30.1899
 11
206.759
 21
30.4875
  0
LINE
  8
0
 10
206.759
 20
30.4875
 11
206.339
 21
30.7501
  0
LINE
  8
0
 10
206.339
 20
30.7501
 11
205.899
 21
30.9757
  0
LINE
  8
0
 10
205.899
 20
30.9757
 11
205.441
 21
31.1626
  0
LINE
  8
0
 10
205.441
 20
31.1626
 11
204.968
 21
31.3094
  0
LINE
  8
0
 10
204.968
 20
31.3094
 11
204.485
 21
31.415
  0
LINE
  8
0
 10
204.485
 20
31.415
 11
203.994
 21
31.4787
  0
LINE
  8
0
 10
203.994
 20
31.4787
 11
203.5
 21
31.5
  0
LINE
  8
0
 10
203.5
 20
31.5
 11
203.006
 21
31.4787
  0
LINE
  8
0
 10
203.006
 20
31.4787
 11
202.515
 21
31.415
  0
LINE
  8
0
 10
202.515
 20
31.415
 11
202.032
 21
31.3094
  0
LINE
  8
0
 10
202.032
 20
31.3094
 11
201.559
 21
31.1626
  0
LINE
  8
0
 10
201.559
 20
31.1626
 11
201.101
 21
30.9757
  0
LINE
  8
0
 10
201.101
 20
30.9757
 11
200.661
 21
30.7501
  0
LINE
  8
0
 10
200.661
 20
30.7501
 11
200.241
 21
30.4875
  0
LINE
  8
0
 10
200.241
 20
30.4875
 11
199.846
 21
30.1899
  0
LINE
  8
0
 10
199.846
 20
30.1899
 11
199.478
 21
29.8594
  0
LINE
  8
0
 10
199.478
 20
29.8594
 11
186.478
 21
16.8594
  0
LINE
  8
0
 10
186.478
 20
16.8594
 11
186.14
 21
16.4984
  0
LINE
  8
0
 10
186.14
 20
16.4984
 11
185.834
 21
16.1097
  0
LINE
  8
0
 10
185.834
 20
16.1097
 11
185.562
 21
15.6961
  0
LINE
  8
0
 10
185.562
 20
15.6961
 11
182.13
 21
9.75
  0
LINE
  8
0
 10
182.13
 20
9.75
 11
-182.13
 21
9.75
  0
LINE
  8
0
 10
-182.13
 20
9.75
 11
-185.562
 21
15.6961
  0
LINE
  8
0
 10
-185.562
 20
15.6961
 11
-185.834
 21
16.1097
  0
LINE
  8
0
 10
-185.834
 20
16.1097
 11
-186.14
 21
16.4984
  0
LINE
  8
0
 10
-186.14
 20
16.4984
 11
-186.478
 21
16.8594
  0
LINE
  8
0
 10
-186.478
 20
16.8594
 11
-199.478
 21
29.8594
  0
LINE
  8
0
 10
-199.478
 20
29.8594
 11
-199.846
 21
30.1899
  0
LINE
  8
0
 10
-199.846
 20
30.1899
 11
-200.241
 21
30.4875
  0
LINE
  8
0
 10
-200.241
 20
30.4875
 11
-200.661
 21
30.7501
  0
LINE
  8
0
 10
-200.661
 20
30.7501
 11
-201.101
 21
30.9757
  0
LINE
  8
0
 10
-201.101
 20
30.9757
 11
-201.559
 21
31.1626
  0
LINE
  8
0
 10
-201.559
 20
31.1626
 11
-202.032
 21
31.3094
  0
LINE
  8
0
 10
-202.032
 20
31.3094
 11
-202.515
 21
31.415
  0
LINE
  8
0
 10
-202.515
 20
31.415
 11
-203.006
 21
31.4787
  0
LINE
  8
0
 10
-203.006
 20
31.4787
 11
-203.5
 21
31.5
  0
LINE
  8
0
 10
-203.5
 20
31.5
 11
-203.994
 21
31.4787
  0
LINE
  8
0
 10
-203.994
 20
31.4787
 11
-204.485
 21
31.415
  0
LINE
  8
0
 10
-204.485
 20
31.415
 11
-204.968
 21
31.3094
  0
LINE
  8
0
 10
-204.968
 20
31.3094
 11
-205.441
 21
31.1626
  0
LINE
  8
0
 10
-205.441
 20
31.1626
 11
-205.899
 21
30.9757
  0
LINE
  8
0
 10
-205.899
 20
30.9757
 11
-206.339
 21
30.7501
  0
LINE
  8
0
 10
-206.339
 20
30.7501
 11
-206.759
 21
30.4875
  0
LINE
  8
0
 10
-206.759
 20
30.4875
 11
-207.154
 21
30.1899
  0
LINE
  8
0
 10
-207.154
 20
30.1899
 11
-207.522
 21
29.8594
  0
LINE
  8
0
 10
-207.522
 20
29.8594
 11
-207.86
 21
29.4984
  0
LINE
  8
0
 10
-207.86
 20
29.4984
 11
-208.166
 21
29.1097
  0
LINE
  8
0
 10
-208.166
 20
29.1097
 11
-208.438
 21
28.6961
  0
LINE
  8
0
 10
-208.438
 20
28.6961
 11
-217.047
 21
13.7827
  0
LINE
  8
0
 10
-217.047
 20
13.7827
 11
-217.282
 21
13.3424
  0
LINE
  8
0
 10
-217.282
 20
13.3424
 11
-217.503
 21
12.8947
  0
LINE
  8
0
 10
-217.503
 20
12.8947
 11
-217.71
 21
12.4401
  0
LINE
  8
0
 10
-217.71
 20
12.4401
 11
-217.902
 21
11.9791
  0
LINE
  8
0
 10
-217.902
 20
11.9791
 11
-218.079
 21
11.5122
  0
LINE
  8
0
 10
-218.079
 20
11.5122
 11
-218.241
 21
11.0397
  0
LINE
  8
0
 10
-218.241
 20
11.0397
 11
-218.388
 21
10.5624
  0
LINE
  8
0
 10
-218.388
 20
10.5624
 11
-218.519
 21
10.0805
  0
LINE
  8
0
 10
-218.519
 20
10.0805
 11
-218.598
 21
9.75
  0
LINE
  8
0
 10
-218.598
 20
9.75
 11
-239.75
 21
9.75
  0
LINE
  8
0
 10
-239.75
 20
9.75
 11
-239.75
 21
-50.25
  0
LINE
  8
0
 10
-239.75
 20
-50.25
 11
-157.496
 21
-50.25
  0
LINE
  8
0
 10
-157.496
 20
-50.25
 11
-157.724
 21
-50.078
  0
LINE
  8
0
 10
203.012
 20
23.298
 11
202.543
 21
23.4403
  0
LINE
  8
0
 10
202.543
 20
23.4403
 11
202.111
 21
23.6713
  0
LINE
  8
0
 10
202.111
 20
23.6713
 11
201.732
 21
23.9822
  0
LINE
  8
0
 10
201.732
 20
23.9822
 11
201.421
 21
24.3611
  0
LINE
  8
0
 10
201.421
 20
24.3611
 11
201.19
 21
24.7933
  0
LINE
  8
0
 10
201.19
 20
24.7933
 11
201.048
 21
25.2623
  0
LINE
  8
0
 10
201.048
 20
25.2623
 11
201
 21
25.75
  0
LINE
  8
0
 10
201
 20
25.75
 11
201.048
 21
26.2377
  0
LINE
  8
0
 10
201.048
 20
26.2377
 11
201.19
 21
26.7067
  0
LINE
  8
0
 10
201.19
 20
26.7067
 11
201.421
 21
27.1389
  0
LINE
  8
0
 10
201.421
 20
27.1389
 11
201.732
 21
27.5178
  0
LINE
  8
0
 10
201.732
 20
27.5178
 11
202.111
 21
27.8287
  0
LINE
  8
0
 10
202.111
 20
27.8287
 11
202.543
 21
28.0597
  0
LINE
  8
0
 10
202.543
 20
28.0597
 11
203.012
 21
28.202
  0
LINE
  8
0
 10
203.012
 20
28.202
 11
203.5
 21
28.25
  0
LINE
  8
0
 10
203.5
 20
28.25
 11
203.988
 21
28.202
  0
LINE
  8
0
 10
203.988
 20
28.202
 11
204.457
 21
28.0597
  0
LINE
  8
0
 10
204.457
 20
28.0597
 11
204.889
 21
27.8287
  0
LINE
  8
0
 10
204.889
 20
27.8287
 11
205.268
 21
27.5178
  0
LINE
  8
0
 10
205.268
 20
27.5178
 11
205.579
 21
27.1389
  0
LINE
  8
0
 10
205.579
 20
27.1389
 11
205.81
 21
26.7067
  0
LINE
  8
0
 10
205.81
 20
26.7067
 11
205.952
 21
26.2377
  0
LINE
  8
0
 10
205.952
 20
26.2377
 11
206
 21
25.75
  0
LINE
  8
0
 10
206
 20
25.75
 11
205.952
 21
25.2623
  0
LINE
  8
0
 10
205.952
 20
25.2623
 11
205.81
 21
24.7933
  0
LINE
  8
0
 10
205.81
 20
24.7933
 11
205.579
 21
24.3611
  0
LINE
  8
0
 10
205.579
 20
24.3611
 11
205.268
 21
23.9822
  0
LINE
  8
0
 10
205.268
 20
23.9822
 11
204.889
 21
23.6713
  0
LINE
  8
0
 10
204.889
 20
23.6713
 11
204.457
 21
23.4403
  0
LINE
  8
0
 10
204.457
 20
23.4403
 11
203.988
 21
23.298
  0
LINE
  8
0
 10
203.988
 20
23.298
 11
203.5
 21
23.25
  0
LINE
  8
0
 10
203.5
 20
23.25
 11
203.012
 21
23.298
  0
LINE
  8
0
 10
-203.988
 20
23.298
 11
-204.457
 21
23.4403
  0
LINE
  8
0
 10
-204.457
 20
23.4403
 11
-204.889
 21
23.6713
  0
LINE
  8
0
 10
-204.889
 20
23.6713
 11
-205.268
 21
23.9822
  0
LINE
  8
0
 10
-205.268
 20
23.9822
 11
-205.579
 21
24.3611
  0
LINE
  8
0
 10
-205.579
 20
24.3611
 11
-205.81
 21
24.7933
  0
LINE
  8
0
 10
-205.81
 20
24.7933
 11
-205.952
 21
25.2623
  0
LINE
  8
0
 10
-205.952
 20
25.2623
 11
-206
 21
25.75
  0
LINE
  8
0
 10
-206
 20
25.75
 11
-205.952
 21
26.2377
  0
LINE
  8
0
 10
-205.952
 20
26.2377
 11
-205.81
 21
26.7067
  0
LINE
  8
0
 10
-205.81
 20
26.7067
 11
-205.579
 21
27.1389
  0
LINE
  8
0
 10
-205.579
 20
27.1389
 11
-205.268
 21
27.5178
  0
LINE
  8
0
 10
-205.268
 20
27.5178
 11
-204.889
 21
27.8287
  0
LINE
  8
0
 10
-204.889
 20
27.8287
 11
-204.457
 21
28.0597
  0
LINE
  8
0
 10
-204.457
 20
28.0597
 11
-203.988
 21
28.202
  0
LINE
  8
0
 10
-203.988
 20
28.202
 11
-203.5
 21
28.25
  0
LINE
  8
0
 10
-203.5
 20
28.25
 11
-203.012
 21
28.202
  0
LINE
  8
0
 10
-203.012
 20
28.202
 11
-202.543
 21
28.0597
  0
LINE
  8
0
 10
-202.543
 20
28.0597
 11
-202.111
 21
27.8287
  0
LINE
  8
0
 10
-202.111
 20
27.8287
 11
-201.732
 21
27.5178
  0
LINE
  8
0
 10
-201.732
 20
27.5178
 11
-201.421
 21
27.1389
  0
LINE
  8
0
 10
-201.421
 20
27.1389
 11
-201.19
 21
26.7067
  0
LINE
  8
0
 10
-201.19
 20
26.7067
 11
-201.048
 21
26.2377
  0
LINE
  8
0
 10
-201.048
 20
26.2377
 11
-201
 21
25.75
  0
LINE
  8
0
 10
-201
 20
25.75
 11
-201.048
 21
25.2623
  0
LINE
  8
0
 10
-201.048
 20
25.2623
 11
-201.19
 21
24.7933
  0
LINE
  8
0
 10
-201.19
 20
24.7933
 11
-201.421
 21
24.3611
  0
LINE
  8
0
 10
-201.421
 20
24.3611
 11
-201.732
 21
23.9822
  0
LINE
  8
0
 10
-201.732
 20
23.9822
 11
-202.111
 21
23.6713
  0
LINE
  8
0
 10
-202.111
 20
23.6713
 11
-202.543
 21
23.4403
  0
LINE
  8
0
 10
-202.543
 20
23.4403
 11
-203.012
 21
23.298
  0
LINE
  8
0
 10
-203.012
 20
23.298
 11
-203.5
 21
23.25
  0
LINE
  8
0
 10
-203.5
 20
23.25
 11
-203.988
 21
23.298
  0
LINE
  8
0
 10
190.012
 20
10.298
 11
189.543
 21
10.4403
  0
LINE
  8
0
 10
189.543
 20
10.4403
 11
189.111
 21
10.6713
  0
LINE
  8
0
 10
189.111
 20
10.6713
 11
188.732
 21
10.9822
  0
LINE
  8
0
 10
188.732
 20
10.9822
 11
188.421
 21
11.3611
  0
LINE
  8
0
 10
188.421
 20
11.3611
 11
188.19
 21
11.7933
  0
LINE
  8
0
 10
188.19
 20
11.7933
 11
188.048
 21
12.2623
  0
LINE
  8
0
 10
188.048
 20
12.2623
 11
188
 21
12.75
  0
LINE
  8
0
 10
188
 20
12.75
 11
188.048
 21
13.2377
  0
LINE
  8
0
 10
188.048
 20
13.2377
 11
188.19
 21
13.7067
  0
LINE
  8
0
 10
188.19
 20
13.7067
 11
188.421
 21
14.1389
  0
LINE
  8
0
 10
188.421
 20
14.1389
 11
188.732
 21
14.5178
  0
LINE
  8
0
 10
188.732
 20
14.5178
 11
189.111
 21
14.8287
  0
LINE
  8
0
 10
189.111
 20
14.8287
 11
189.543
 21
15.0597
  0
LINE
  8
0
 10
189.543
 20
15.0597
 11
190.012
 21
15.202
  0
LINE
  8
0
 10
190.012
 20
15.202
 11
190.5
 21
15.25
  0
LINE
  8
0
 10
190.5
 20
15.25
 11
190.988
 21
15.202
  0
LINE
  8
0
 10
190.988
 20
15.202
 11
191.457
 21
15.0597
  0
LINE
  8
0
 10
191.457
 20
15.0597
 11
191.889
 21
14.8287
  0
LINE
  8
0
 10
191.889
 20
14.8287
 11
192.268
 21
14.5178
  0
LINE
  8
0
 10
192.268
 20
14.5178
 11
192.579
 21
14.1389
  0
LINE
  8
0
 10
192.579
 20
14.1389
 11
192.81
 21
13.7067
  0
LINE
  8
0
 10
192.81
 20
13.7067
 11
192.952
 21
13.2377
  0
LINE
  8
0
 10
192.952
 20
13.2377
 11
193
 21
12.75
  0
LINE
  8
0
 10
193
 20
12.75
 11
192.952
 21
12.2623
  0
LINE
  8
0
 10
192.952
 20
12.2623
 11
192.81
 21
11.7933
  0
LINE
  8
0
 10
192.81
 20
11.7933
 11
192.579
 21
11.3611
  0
LINE
  8
0
 10
192.579
 20
11.3611
 11
192.268
 21
10.9822
  0
LINE
  8
0
 10
192.268
 20
10.9822
 11
191.889
 21
10.6713
  0
LINE
  8
0
 10
191.889
 20
10.6713
 11
191.457
 21
10.4403
  0
LINE
  8
0
 10
191.457
 20
10.4403
 11
190.988
 21
10.298
  0
LINE
  8
0
 10
190.988
 20
10.298
 11
190.5
 21
10.25
  0
LINE
  8
0
 10
190.5
 20
10.25
 11
190.012
 21
10.298
  0
LINE
  8
0
 10
-190.988
 20
10.298
 11
-191.457
 21
10.4403
  0
LINE
  8
0
 10
-191.457
 20
10.4403
 11
-191.889
 21
10.6713
  0
LINE
  8
0
 10
-191.889
 20
10.6713
 11
-192.268
 21
10.9822
  0
LINE
  8
0
 10
-192.268
 20
10.9822
 11
-192.579
 21
11.3611
  0
LINE
  8
0
 10
-192.579
 20
11.3611
 11
-192.81
 21
11.7933
  0
LINE
  8
0
 10
-192.81
 20
11.7933
 11
-192.952
 21
12.2623
  0
LINE
  8
0
 10
-192.952
 20
12.2623
 11
-193
 21
12.75
  0
LINE
  8
0
 10
-193
 20
12.75
 11
-192.952
 21
13.2377
  0
LINE
  8
0
 10
-192.952
 20
13.2377
 11
-192.81
 21
13.7067
  0
LINE
  8
0
 10
-192.81
 20
13.7067
 11
-192.579
 21
14.1389
  0
LINE
  8
0
 10
-192.579
 20
14.1389
 11
-192.268
 21
14.5178
  0
LINE
  8
0
 10
-192.268
 20
14.5178
 11
-191.889
 21
14.8287
  0
LINE
  8
0
 10
-191.889
 20
14.8287
 11
-191.457
 21
15.0597
  0
LINE
  8
0
 10
-191.457
 20
15.0597
 11
-190.988
 21
15.202
  0
LINE
  8
0
 10
-190.988
 20
15.202
 11
-190.5
 21
15.25
  0
LINE
  8
0
 10
-190.5
 20
15.25
 11
-190.012
 21
15.202
  0
LINE
  8
0
 10
-190.012
 20
15.202
 11
-189.543
 21
15.0597
  0
LINE
  8
0
 10
-189.543
 20
15.0597
 11
-189.111
 21
14.8287
  0
LINE
  8
0
 10
-189.111
 20
14.8287
 11
-188.732
 21
14.5178
  0
LINE
  8
0
 10
-188.732
 20
14.5178
 11
-188.421
 21
14.1389
  0
LINE
  8
0
 10
-188.421
 20
14.1389
 11
-188.19
 21
13.7067
  0
LINE
  8
0
 10
-188.19
 20
13.7067
 11
-188.048
 21
13.2377
  0
LINE
  8
0
 10
-188.048
 20
13.2377
 11
-188
 21
12.75
  0
LINE
  8
0
 10
-188
 20
12.75
 11
-188.048
 21
12.2623
  0
LINE
  8
0
 10
-188.048
 20
12.2623
 11
-188.19
 21
11.7933
  0
LINE
  8
0
 10
-188.19
 20
11.7933
 11
-188.421
 21
11.3611
  0
LINE
  8
0
 10
-188.421
 20
11.3611
 11
-188.732
 21
10.9822
  0
LINE
  8
0
 10
-188.732
 20
10.9822
 11
-189.111
 21
10.6713
  0
LINE
  8
0
 10
-189.111
 20
10.6713
 11
-189.543
 21
10.4403
  0
LINE
  8
0
 10
-189.543
 20
10.4403
 11
-190.012
 21
10.298
  0
LINE
  8
0
 10
-190.012
 20
10.298
 11
-190.5
 21
10.25
  0
LINE
  8
0
 10
-190.5
 20
10.25
 11
-190.988
 21
10.298
  0
LINE
  8
0
 10
-152.45
 20
-3.2
 11
-152.45
 21
3.2
  0
LINE
  8
0
 10
-152.45
 20
3.2
 11
-137.55
 21
3.2
  0
LINE
  8
0
 10
-137.55
 20
3.2
 11
-137.55
 21
-3.2
  0
LINE
  8
0
 10
-137.55
 20
-3.2
 11
-152.45
 21
-3.2
  0
LINE
  8
0
 10
107.55
 20
-3.2
 11
107.55
 21
3.2
  0
LINE
  8
0
 10
107.55
 20
3.2
 11
122.45
 21
3.2
  0
LINE
  8
0
 10
122.45
 20
3.2
 11
122.45
 21
-3.2
  0
LINE
  8
0
 10
122.45
 20
-3.2
 11
107.55
 21
-3.2
  0
LINE
  8
0
 10
137.55
 20
-3.2
 11
137.55
 21
3.2
  0
LINE
  8
0
 10
137.55
 20
3.2
 11
152.45
 21
3.2
  0
LINE
  8
0
 10
152.45
 20
3.2
 11
152.45
 21
-3.2
  0
LINE
  8
0
 10
152.45
 20
-3.2
 11
137.55
 21
-3.2
  0
LINE
  8
0
 10
-122.45
 20
-3.2
 11
-122.45
 21
3.2
  0
LINE
  8
0
 10
-122.45
 20
3.2
 11
-107.55
 21
3.2
  0
LINE
  8
0
 10
-107.55
 20
3.2
 11
-107.55
 21
-3.2
  0
LINE
  8
0
 10
-107.55
 20
-3.2
 11
-122.45
 21
-3.2
  0
LINE
  8
0
 10
-130
 20
-2.49998
 11
-130.488
 21
-2.45195
  0
LINE
  8
0
 10
-130.488
 20
-2.45195
 11
-130.957
 21
-2.30969
  0
LINE
  8
0
 10
-130.957
 20
-2.30969
 11
-131.389
 21
-2.07866
  0
LINE
  8
0
 10
-131.389
 20
-2.07866
 11
-131.768
 21
-1.76776
  0
LINE
  8
0
 10
-131.768
 20
-1.76776
 11
-132.079
 21
-1.38892
  0
LINE
  8
0
 10
-132.079
 20
-1.38892
 11
-132.31
 21
-0.956696
  0
LINE
  8
0
 10
-132.31
 20
-0.956696
 11
-132.452
 21
-0.487717
  0
LINE
  8
0
 10
-132.452
 20
-0.487717
 11
-132.5
 21
0
  0
LINE
  8
0
 10
-132.5
 20
0
 11
-132.452
 21
0.487717
  0
LINE
  8
0
 10
-132.452
 20
0.487717
 11
-132.31
 21
0.956696
  0
LINE
  8
0
 10
-132.31
 20
0.956696
 11
-132.079
 21
1.38892
  0
LINE
  8
0
 10
-132.079
 20
1.38892
 11
-131.768
 21
1.76776
  0
LINE
  8
0
 10
-131.768
 20
1.76776
 11
-131.389
 21
2.07866
  0
LINE
  8
0
 10
-131.389
 20
2.07866
 11
-130.957
 21
2.30969
  0
LINE
  8
0
 10
-130.957
 20
2.30969
 11
-130.488
 21
2.45195
  0
LINE
  8
0
 10
-130.488
 20
2.45195
 11
-130
 21
2.49998
  0
LINE
  8
0
 10
-130
 20
2.49998
 11
-129.512
 21
2.45195
  0
LINE
  8
0
 10
-129.512
 20
2.45195
 11
-129.043
 21
2.30969
  0
LINE
  8
0
 10
-129.043
 20
2.30969
 11
-128.611
 21
2.07866
  0
LINE
  8
0
 10
-128.611
 20
2.07866
 11
-128.232
 21
1.76776
  0
LINE
  8
0
 10
-128.232
 20
1.76776
 11
-127.921
 21
1.38892
  0
LINE
  8
0
 10
-127.921
 20
1.38892
 11
-127.69
 21
0.956696
  0
LINE
  8
0
 10
-127.69
 20
0.956696
 11
-127.548
 21
0.487717
  0
LINE
  8
0
 10
-127.548
 20
0.487717
 11
-127.5
 21
0
  0
LINE
  8
0
 10
-127.5
 20
0
 11
-127.548
 21
-0.487717
  0
LINE
  8
0
 10
-127.548
 20
-0.487717
 11
-127.69
 21
-0.956696
  0
LINE
  8
0
 10
-127.69
 20
-0.956696
 11
-127.921
 21
-1.38892
  0
LINE
  8
0
 10
-127.921
 20
-1.38892
 11
-128.232
 21
-1.76776
  0
LINE
  8
0
 10
-128.232
 20
-1.76776
 11
-128.611
 21
-2.07866
  0
LINE
  8
0
 10
-128.611
 20
-2.07866
 11
-129.043
 21
-2.30969
  0
LINE
  8
0
 10
-129.043
 20
-2.30969
 11
-129.512
 21
-2.45195
  0
LINE
  8
0
 10
-129.512
 20
-2.45195
 11
-130
 21
-2.49998
  0
LINE
  8
0
 10
130
 20
-2.49998
 11
129.512
 21
-2.45195
  0
LINE
  8
0
 10
129.512
 20
-2.45195
 11
129.043
 21
-2.30969
  0
LINE
  8
0
 10
129.043
 20
-2.30969
 11
128.611
 21
-2.07866
  0
LINE
  8
0
 10
128.611
 20
-2.07866
 11
128.232
 21
-1.76776
  0
LINE
  8
0
 10
128.232
 20
-1.76776
 11
127.921
 21
-1.38892
  0
LINE
  8
0
 10
127.921
 20
-1.38892
 11
127.69
 21
-0.956696
  0
LINE
  8
0
 10
127.69
 20
-0.956696
 11
127.548
 21
-0.487717
  0
LINE
  8
0
 10
127.548
 20
-0.487717
 11
127.5
 21
0
  0
LINE
  8
0
 10
127.5
 20
0
 11
127.548
 21
0.487717
  0
LINE
  8
0
 10
127.548
 20
0.487717
 11
127.69
 21
0.956696
  0
LINE
  8
0
 10
127.69
 20
0.956696
 11
127.921
 21
1.38892
  0
LINE
  8
0
 10
127.921
 20
1.38892
 11
128.232
 21
1.76776
  0
LINE
  8
0
 10
128.232
 20
1.76776
 11
128.611
 21
2.07866
  0
LINE
  8
0
 10
128.611
 20
2.07866
 11
129.043
 21
2.30969
  0
LINE
  8
0
 10
129.043
 20
2.30969
 11
129.512
 21
2.45195
  0
LINE
  8
0
 10
129.512
 20
2.45195
 11
130
 21
2.49998
  0
LINE
  8
0
 10
130
 20
2.49998
 11
130.488
 21
2.45195
  0
LINE
  8
0
 10
130.488
 20
2.45195
 11
130.957
 21
2.30969
  0
LINE
  8
0
 10
130.957
 20
2.30969
 11
131.389
 21
2.07866
  0
LINE
  8
0
 10
131.389
 20
2.07866
 11
131.768
 21
1.76776
  0
LINE
  8
0
 10
131.768
 20
1.76776
 11
132.079
 21
1.38892
  0
LINE
  8
0
 10
132.079
 20
1.38892
 11
132.31
 21
0.956696
  0
LINE
  8
0
 10
132.31
 20
0.956696
 11
132.452
 21
0.487717
  0
LINE
  8
0
 10
132.452
 20
0.487717
 11
132.5
 21
0
  0
LINE
  8
0
 10
132.5
 20
0
 11
132.452
 21
-0.487717
  0
LINE
  8
0
 10
132.452
 20
-0.487717
 11
132.31
 21
-0.956696
  0
LINE
  8
0
 10
132.31
 20
-0.956696
 11
132.079
 21
-1.38892
  0
LINE
  8
0
 10
132.079
 20
-1.38892
 11
131.768
 21
-1.76776
  0
LINE
  8
0
 10
131.768
 20
-1.76776
 11
131.389
 21
-2.07866
  0
LINE
  8
0
 10
131.389
 20
-2.07866
 11
130.957
 21
-2.30969
  0
LINE
  8
0
 10
130.957
 20
-2.30969
 11
130.488
 21
-2.45195
  0
LINE
  8
0
 10
130.488
 20
-2.45195
 11
130
 21
-2.49998
  0
LINE
  8
0
 10
230.05
 20
-12.7
 11
230.05
 21
2.2
  0
LINE
  8
0
 10
230.05
 20
2.2
 11
236.45
 21
2.2
  0
LINE
  8
0
 10
236.45
 20
2.2
 11
236.45
 21
-12.7
  0
LINE
  8
0
 10
236.45
 20
-12.7
 11
230.05
 21
-12.7
  0
LINE
  8
0
 10
-236.45
 20
-12.7
 11
-236.45
 21
2.2
  0
LINE
  8
0
 10
-236.45
 20
2.2
 11
-230.05
 21
2.2
  0
LINE
  8
0
 10
-230.05
 20
2.2
 11
-230.05
 21
-12.7
  0
LINE
  8
0
 10
-230.05
 20
-12.7
 11
-236.45
 21
-12.7
  0
LINE
  8
0
 10
219.512
 20
-12.202
 11
219.043
 21
-12.0597
  0
LINE
  8
0
 10
219.043
 20
-12.0597
 11
218.611
 21
-11.8287
  0
LINE
  8
0
 10
218.611
 20
-11.8287
 11
218.232
 21
-11.5178
  0
LINE
  8
0
 10
218.232
 20
-11.5178
 11
217.921
 21
-11.1389
  0
LINE
  8
0
 10
217.921
 20
-11.1389
 11
217.69
 21
-10.7067
  0
LINE
  8
0
 10
217.69
 20
-10.7067
 11
217.548
 21
-10.2377
  0
LINE
  8
0
 10
217.548
 20
-10.2377
 11
217.5
 21
-9.75
  0
LINE
  8
0
 10
217.5
 20
-9.75
 11
217.548
 21
-9.26227
  0
LINE
  8
0
 10
217.548
 20
-9.26227
 11
217.69
 21
-8.79329
  0
LINE
  8
0
 10
217.69
 20
-8.79329
 11
217.921
 21
-8.36107
  0
LINE
  8
0
 10
217.921
 20
-8.36107
 11
218.232
 21
-7.98222
  0
LINE
  8
0
 10
218.232
 20
-7.98222
 11
218.611
 21
-7.67133
  0
LINE
  8
0
 10
218.611
 20
-7.67133
 11
219.043
 21
-7.44029
  0
LINE
  8
0
 10
219.043
 20
-7.44029
 11
219.512
 21
-7.29803
  0
LINE
  8
0
 10
219.512
 20
-7.29803
 11
220
 21
-7.25
  0
LINE
  8
0
 10
220
 20
-7.25
 11
220.488
 21
-7.29803
  0
LINE
  8
0
 10
220.488
 20
-7.29803
 11
220.957
 21
-7.44029
  0
LINE
  8
0
 10
220.957
 20
-7.44029
 11
221.389
 21
-7.67133
  0
LINE
  8
0
 10
221.389
 20
-7.67133
 11
221.768
 21
-7.98222
  0
LINE
  8
0
 10
221.768
 20
-7.98222
 11
222.079
 21
-8.36107
  0
LINE
  8
0
 10
222.079
 20
-8.36107
 11
222.31
 21
-8.79329
  0
LINE
  8
0
 10
222.31
 20
-8.79329
 11
222.452
 21
-9.26227
  0
LINE
  8
0
 10
222.452
 20
-9.26227
 11
222.5
 21
-9.75
  0
LINE
  8
0
 10
222.5
 20
-9.75
 11
222.452
 21
-10.2377
  0
LINE
  8
0
 10
222.452
 20
-10.2377
 11
222.31
 21
-10.7067
  0
LINE
  8
0
 10
222.31
 20
-10.7067
 11
222.079
 21
-11.1389
  0
LINE
  8
0
 10
222.079
 20
-11.1389
 11
221.768
 21
-11.5178
  0
LINE
  8
0
 10
221.768
 20
-11.5178
 11
221.389
 21
-11.8287
  0
LINE
  8
0
 10
221.389
 20
-11.8287
 11
220.957
 21
-12.0597
  0
LINE
  8
0
 10
220.957
 20
-12.0597
 11
220.488
 21
-12.202
  0
LINE
  8
0
 10
220.488
 20
-12.202
 11
220
 21
-12.25
  0
LINE
  8
0
 10
220
 20
-12.25
 11
219.512
 21
-12.202
  0
LINE
  8
0
 10
-220.488
 20
-12.202
 11
-220.957
 21
-12.0597
  0
LINE
  8
0
 10
-220.957
 20
-12.0597
 11
-221.389
 21
-11.8287
  0
LINE
  8
0
 10
-221.389
 20
-11.8287
 11
-221.768
 21
-11.5178
  0
LINE
  8
0
 10
-221.768
 20
-11.5178
 11
-222.079
 21
-11.1389
  0
LINE
  8
0
 10
-222.079
 20
-11.1389
 11
-222.31
 21
-10.7067
  0
LINE
  8
0
 10
-222.31
 20
-10.7067
 11
-222.452
 21
-10.2377
  0
LINE
  8
0
 10
-222.452
 20
-10.2377
 11
-222.5
 21
-9.75
  0
LINE
  8
0
 10
-222.5
 20
-9.75
 11
-222.452
 21
-9.26227
  0
LINE
  8
0
 10
-222.452
 20
-9.26227
 11
-222.31
 21
-8.79329
  0
LINE
  8
0
 10
-222.31
 20
-8.79329
 11
-222.079
 21
-8.36107
  0
LINE
  8
0
 10
-222.079
 20
-8.36107
 11
-221.768
 21
-7.98222
  0
LINE
  8
0
 10
-221.768
 20
-7.98222
 11
-221.389
 21
-7.67133
  0
LINE
  8
0
 10
-221.389
 20
-7.67133
 11
-220.957
 21
-7.44029
  0
LINE
  8
0
 10
-220.957
 20
-7.44029
 11
-220.488
 21
-7.29803
  0
LINE
  8
0
 10
-220.488
 20
-7.29803
 11
-220
 21
-7.25
  0
LINE
  8
0
 10
-220
 20
-7.25
 11
-219.512
 21
-7.29803
  0
LINE
  8
0
 10
-219.512
 20
-7.29803
 11
-219.043
 21
-7.44029
  0
LINE
  8
0
 10
-219.043
 20
-7.44029
 11
-218.611
 21
-7.67133
  0
LINE
  8
0
 10
-218.611
 20
-7.67133
 11
-218.232
 21
-7.98222
  0
LINE
  8
0
 10
-218.232
 20
-7.98222
 11
-217.921
 21
-8.36107
  0
LINE
  8
0
 10
-217.921
 20
-8.36107
 11
-217.69
 21
-8.79329
  0
LINE
  8
0
 10
-217.69
 20
-8.79329
 11
-217.548
 21
-9.26227
  0
LINE
  8
0
 10
-217.548
 20
-9.26227
 11
-217.5
 21
-9.75
  0
LINE
  8
0
 10
-217.5
 20
-9.75
 11
-217.548
 21
-10.2377
  0
LINE
  8
0
 10
-217.548
 20
-10.2377
 11
-217.69
 21
-10.7067
  0
LINE
  8
0
 10
-217.69
 20
-10.7067
 11
-217.921
 21
-11.1389
  0
LINE
  8
0
 10
-217.921
 20
-11.1389
 11
-218.232
 21
-11.5178
  0
LINE
  8
0
 10
-218.232
 20
-11.5178
 11
-218.611
 21
-11.8287
  0
LINE
  8
0
 10
-218.611
 20
-11.8287
 11
-219.043
 21
-12.0597
  0
LINE
  8
0
 10
-219.043
 20
-12.0597
 11
-219.512
 21
-12.202
  0
LINE
  8
0
 10
-219.512
 20
-12.202
 11
-220
 21
-12.25
  0
LINE
  8
0
 10
-220
 20
-12.25
 11
-220.488
 21
-12.202
  0
LINE
  8
0
 10
-0.361359
 20
-21.405
 11
-0.814713
 21
-21.2359
  0
LINE
  8
0
 10
-0.814713
 20
-21.2359
 11
-1.20207
 21
-20.946
  0
LINE
  8
0
 10
-1.20207
 20
-20.946
 11
-1.49205
 21
-20.5586
  0
LINE
  8
0
 10
-1.49205
 20
-20.5586
 11
-1.66115
 21
-20.1053
  0
LINE
  8
0
 10
-1.66115
 20
-20.1053
 11
-1.69566
 21
-19.6226
  0
LINE
  8
0
 10
-1.69566
 20
-19.6226
 11
-1.69566
 21
-16.7942
  0
LINE
  8
0
 10
-1.69566
 20
-16.7942
 11
-1.5928
 21
-16.3214
  0
LINE
  8
0
 10
-1.5928
 20
-16.3214
 11
-1.36092
 21
-15.8967
  0
LINE
  8
0
 10
-1.36092
 20
-15.8967
 11
-1.01877
 21
-15.5546
  0
LINE
  8
0
 10
-1.01877
 20
-15.5546
 11
-0.594086
 21
-15.3226
  0
LINE
  8
0
 10
-0.594086
 20
-15.3226
 11
-0.121262
 21
-15.2198
  0
LINE
  8
0
 10
-0.121262
 20
-15.2198
 11
0.361359
 21
-15.2543
  0
LINE
  8
0
 10
0.361359
 20
-15.2543
 11
0.814713
 21
-15.4234
  0
LINE
  8
0
 10
0.814713
 20
-15.4234
 11
1.20207
 21
-15.7134
  0
LINE
  8
0
 10
1.20207
 20
-15.7134
 11
1.49205
 21
-16.1008
  0
LINE
  8
0
 10
1.49205
 20
-16.1008
 11
1.66115
 21
-16.5541
  0
LINE
  8
0
 10
1.66115
 20
-16.5541
 11
1.69566
 21
-17.0367
  0
LINE
  8
0
 10
1.69566
 20
-17.0367
 11
1.69566
 21
-19.8652
  0
LINE
  8
0
 10
1.69566
 20
-19.8652
 11
1.5928
 21
-20.338
  0
LINE
  8
0
 10
1.5928
 20
-20.338
 11
1.36092
 21
-20.7627
  0
LINE
  8
0
 10
1.36092
 20
-20.7627
 11
1.01877
 21
-21.1048
  0
LINE
  8
0
 10
1.01877
 20
-21.1048
 11
0.594086
 21
-21.3367
  0
LINE
  8
0
 10
0.594086
 20
-21.3367
 11
0.121262
 21
-21.4396
  0
LINE
  8
0
 10
0.121262
 20
-21.4396
 11
-0.361359
 21
-21.405
  0
LINE
  8
0
 10
149.639
 20
-21.405
 11
149.185
 21
-21.2359
  0
LINE
  8
0
 10
149.185
 20
-21.2359
 11
148.798
 21
-20.946
  0
LINE
  8
0
 10
148.798
 20
-20.946
 11
148.508
 21
-20.5586
  0
LINE
  8
0
 10
148.508
 20
-20.5586
 11
148.339
 21
-20.1053
  0
LINE
  8
0
 10
148.339
 20
-20.1053
 11
148.304
 21
-19.6226
  0
LINE
  8
0
 10
148.304
 20
-19.6226
 11
148.304
 21
-16.7942
  0
LINE
  8
0
 10
148.304
 20
-16.7942
 11
148.407
 21
-16.3214
  0
LINE
  8
0
 10
148.407
 20
-16.3214
 11
148.639
 21
-15.8967
  0
LINE
  8
0
 10
148.639
 20
-15.8967
 11
148.981
 21
-15.5546
  0
LINE
  8
0
 10
148.981
 20
-15.5546
 11
149.406
 21
-15.3226
  0
LINE
  8
0
 10
149.406
 20
-15.3226
 11
149.879
 21
-15.2198
  0
LINE
  8
0
 10
149.879
 20
-15.2198
 11
150.361
 21
-15.2543
  0
LINE
  8
0
 10
150.361
 20
-15.2543
 11
150.815
 21
-15.4234
  0
LINE
  8
0
 10
150.815
 20
-15.4234
 11
151.202
 21
-15.7134
  0
LINE
  8
0
 10
151.202
 20
-15.7134
 11
151.492
 21
-16.1008
  0
LINE
  8
0
 10
151.492
 20
-16.1008
 11
151.661
 21
-16.5541
  0
LINE
  8
0
 10
151.661
 20
-16.5541
 11
151.696
 21
-17.0367
  0
LINE
  8
0
 10
151.696
 20
-17.0367
 11
151.696
 21
-19.8652
  0
LINE
  8
0
 10
151.696
 20
-19.8652
 11
151.593
 21
-20.338
  0
LINE
  8
0
 10
151.593
 20
-20.338
 11
151.361
 21
-20.7627
  0
LINE
  8
0
 10
151.361
 20
-20.7627
 11
151.019
 21
-21.1048
  0
LINE
  8
0
 10
151.019
 20
-21.1048
 11
150.594
 21
-21.3367
  0
LINE
  8
0
 10
150.594
 20
-21.3367
 11
150.121
 21
-21.4396
  0
LINE
  8
0
 10
150.121
 20
-21.4396
 11
149.639
 21
-21.405
  0
LINE
  8
0
 10
-150.361
 20
-21.405
 11
-150.815
 21
-21.2359
  0
LINE
  8
0
 10
-150.815
 20
-21.2359
 11
-151.202
 21
-20.946
  0
LINE
  8
0
 10
-151.202
 20
-20.946
 11
-151.492
 21
-20.5586
  0
LINE
  8
0
 10
-151.492
 20
-20.5586
 11
-151.661
 21
-20.1053
  0
LINE
  8
0
 10
-151.661
 20
-20.1053
 11
-151.696
 21
-19.6226
  0
LINE
  8
0
 10
-151.696
 20
-19.6226
 11
-151.696
 21
-16.7942
  0
LINE
  8
0
 10
-151.696
 20
-16.7942
 11
-151.593
 21
-16.3214
  0
LINE
  8
0
 10
-151.593
 20
-16.3214
 11
-151.361
 21
-15.8967
  0
LINE
  8
0
 10
-151.361
 20
-15.8967
 11
-151.019
 21
-15.5546
  0
LINE
  8
0
 10
-151.019
 20
-15.5546
 11
-150.594
 21
-15.3226
  0
LINE
  8
0
 10
-150.594
 20
-15.3226
 11
-150.121
 21
-15.2198
  0
LINE
  8
0
 10
-150.121
 20
-15.2198
 11
-149.639
 21
-15.2543
  0
LINE
  8
0
 10
-149.639
 20
-15.2543
 11
-149.185
 21
-15.4234
  0
LINE
  8
0
 10
-149.185
 20
-15.4234
 11
-148.798
 21
-15.7134
  0
LINE
  8
0
 10
-148.798
 20
-15.7134
 11
-148.508
 21
-16.1008
  0
LINE
  8
0
 10
-148.508
 20
-16.1008
 11
-148.339
 21
-16.5541
  0
LINE
  8
0
 10
-148.339
 20
-16.5541
 11
-148.304
 21
-17.0367
  0
LINE
  8
0
 10
-148.304
 20
-17.0367
 11
-148.304
 21
-19.8652
  0
LINE
  8
0
 10
-148.304
 20
-19.8652
 11
-148.407
 21
-20.338
  0
LINE
  8
0
 10
-148.407
 20
-20.338
 11
-148.639
 21
-20.7627
  0
LINE
  8
0
 10
-148.639
 20
-20.7627
 11
-148.981
 21
-21.1048
  0
LINE
  8
0
 10
-148.981
 20
-21.1048
 11
-149.406
 21
-21.3367
  0
LINE
  8
0
 10
-149.406
 20
-21.3367
 11
-149.879
 21
-21.4396
  0
LINE
  8
0
 10
-149.879
 20
-21.4396
 11
-150.361
 21
-21.405
  0
LINE
  8
0
 10
232.762
 20
-22.702
 11
232.293
 21
-22.5597
  0
LINE
  8
0
 10
232.293
 20
-22.5597
 11
231.861
 21
-22.3287
  0
LINE
  8
0
 10
231.861
 20
-22.3287
 11
231.482
 21
-22.0178
  0
LINE
  8
0
 10
231.482
 20
-22.0178
 11
231.171
 21
-21.6389
  0
LINE
  8
0
 10
231.171
 20
-21.6389
 11
230.94
 21
-21.2067
  0
LINE
  8
0
 10
230.94
 20
-21.2067
 11
230.798
 21
-20.7377
  0
LINE
  8
0
 10
230.798
 20
-20.7377
 11
230.75
 21
-20.25
  0
LINE
  8
0
 10
230.75
 20
-20.25
 11
230.798
 21
-19.7623
  0
LINE
  8
0
 10
230.798
 20
-19.7623
 11
230.94
 21
-19.2933
  0
LINE
  8
0
 10
230.94
 20
-19.2933
 11
231.171
 21
-18.8611
  0
LINE
  8
0
 10
231.171
 20
-18.8611
 11
231.482
 21
-18.4822
  0
LINE
  8
0
 10
231.482
 20
-18.4822
 11
231.861
 21
-18.1713
  0
LINE
  8
0
 10
231.861
 20
-18.1713
 11
232.293
 21
-17.9403
  0
LINE
  8
0
 10
232.293
 20
-17.9403
 11
232.762
 21
-17.798
  0
LINE
  8
0
 10
232.762
 20
-17.798
 11
233.25
 21
-17.75
  0
LINE
  8
0
 10
233.25
 20
-17.75
 11
233.738
 21
-17.798
  0
LINE
  8
0
 10
233.738
 20
-17.798
 11
234.207
 21
-17.9403
  0
LINE
  8
0
 10
234.207
 20
-17.9403
 11
234.639
 21
-18.1713
  0
LINE
  8
0
 10
234.639
 20
-18.1713
 11
235.018
 21
-18.4822
  0
LINE
  8
0
 10
235.018
 20
-18.4822
 11
235.329
 21
-18.8611
  0
LINE
  8
0
 10
235.329
 20
-18.8611
 11
235.56
 21
-19.2933
  0
LINE
  8
0
 10
235.56
 20
-19.2933
 11
235.702
 21
-19.7623
  0
LINE
  8
0
 10
235.702
 20
-19.7623
 11
235.75
 21
-20.25
  0
LINE
  8
0
 10
235.75
 20
-20.25
 11
235.702
 21
-20.7377
  0
LINE
  8
0
 10
235.702
 20
-20.7377
 11
235.56
 21
-21.2067
  0
LINE
  8
0
 10
235.56
 20
-21.2067
 11
235.329
 21
-21.6389
  0
LINE
  8
0
 10
235.329
 20
-21.6389
 11
235.018
 21
-22.0178
  0
LINE
  8
0
 10
235.018
 20
-22.0178
 11
234.639
 21
-22.3287
  0
LINE
  8
0
 10
234.639
 20
-22.3287
 11
234.207
 21
-22.5597
  0
LINE
  8
0
 10
234.207
 20
-22.5597
 11
233.738
 21
-22.702
  0
LINE
  8
0
 10
233.738
 20
-22.702
 11
233.25
 21
-22.75
  0
LINE
  8
0
 10
233.25
 20
-22.75
 11
232.762
 21
-22.702
  0
LINE
  8
0
 10
-233.738
 20
-22.702
 11
-234.207
 21
-22.5597
  0
LINE
  8
0
 10
-234.207
 20
-22.5597
 11
-234.639
 21
-22.3287
  0
LINE
  8
0
 10
-234.639
 20
-22.3287
 11
-235.018
 21
-22.0178
  0
LINE
  8
0
 10
-235.018
 20
-22.0178
 11
-235.329
 21
-21.6389
  0
LINE
  8
0
 10
-235.329
 20
-21.6389
 11
-235.56
 21
-21.2067
  0
LINE
  8
0
 10
-235.56
 20
-21.2067
 11
-235.702
 21
-20.7377
  0
LINE
  8
0
 10
-235.702
 20
-20.7377
 11
-235.75
 21
-20.25
  0
LINE
  8
0
 10
-235.75
 20
-20.25
 11
-235.702
 21
-19.7623
  0
LINE
  8
0
 10
-235.702
 20
-19.7623
 11
-235.56
 21
-19.2933
  0
LINE
  8
0
 10
-235.56
 20
-19.2933
 11
-235.329
 21
-18.8611
  0
LINE
  8
0
 10
-235.329
 20
-18.8611
 11
-235.018
 21
-18.4822
  0
LINE
  8
0
 10
-235.018
 20
-18.4822
 11
-234.639
 21
-18.1713
  0
LINE
  8
0
 10
-234.639
 20
-18.1713
 11
-234.207
 21
-17.9403
  0
LINE
  8
0
 10
-234.207
 20
-17.9403
 11
-233.738
 21
-17.798
  0
LINE
  8
0
 10
-233.738
 20
-17.798
 11
-233.25
 21
-17.75
  0
LINE
  8
0
 10
-233.25
 20
-17.75
 11
-232.762
 21
-17.798
  0
LINE
  8
0
 10
-232.762
 20
-17.798
 11
-232.293
 21
-17.9403
  0
LINE
  8
0
 10
-232.293
 20
-17.9403
 11
-231.861
 21
-18.1713
  0
LINE
  8
0
 10
-231.861
 20
-18.1713
 11
-231.482
 21
-18.4822
  0
LINE
  8
0
 10
-231.482
 20
-18.4822
 11
-231.171
 21
-18.8611
  0
LINE
  8
0
 10
-231.171
 20
-18.8611
 11
-230.94
 21
-19.2933
  0
LINE
  8
0
 10
-230.94
 20
-19.2933
 11
-230.798
 21
-19.7623
  0
LINE
  8
0
 10
-230.798
 20
-19.7623
 11
-230.75
 21
-20.25
  0
LINE
  8
0
 10
-230.75
 20
-20.25
 11
-230.798
 21
-20.7377
  0
LINE
  8
0
 10
-230.798
 20
-20.7377
 11
-230.94
 21
-21.2067
  0
LINE
  8
0
 10
-230.94
 20
-21.2067
 11
-231.171
 21
-21.6389
  0
LINE
  8
0
 10
-231.171
 20
-21.6389
 11
-231.482
 21
-22.0178
  0
LINE
  8
0
 10
-231.482
 20
-22.0178
 11
-231.861
 21
-22.3287
  0
LINE
  8
0
 10
-231.861
 20
-22.3287
 11
-232.293
 21
-22.5597
  0
LINE
  8
0
 10
-232.293
 20
-22.5597
 11
-232.762
 21
-22.702
  0
LINE
  8
0
 10
-232.762
 20
-22.702
 11
-233.25
 21
-22.75
  0
LINE
  8
0
 10
-233.25
 20
-22.75
 11
-233.738
 21
-22.702
  0
LINE
  8
0
 10
-122.45
 20
-29.7
 11
-122.45
 21
-23.3
  0
LINE
  8
0
 10
-122.45
 20
-23.3
 11
-107.55
 21
-23.3
  0
LINE
  8
0
 10
-107.55
 20
-23.3
 11
-107.55
 21
-29.7
  0
LINE
  8
0
 10
-107.55
 20
-29.7
 11
-122.45
 21
-29.7
  0
LINE
  8
0
 10
107.55
 20
-29.7
 11
107.55
 21
-23.3
  0
LINE
  8
0
 10
107.55
 20
-23.3
 11
122.45
 21
-23.3
  0
LINE
  8
0
 10
122.45
 20
-23.3
 11
122.45
 21
-29.7
  0
LINE
  8
0
 10
122.45
 20
-29.7
 11
107.55
 21
-29.7
  0
LINE
  8
0
 10
130
 20
-29
 11
129.512
 21
-28.952
  0
LINE
  8
0
 10
129.512
 20
-28.952
 11
129.043
 21
-28.8097
  0
LINE
  8
0
 10
129.043
 20
-28.8097
 11
128.611
 21
-28.5787
  0
LINE
  8
0
 10
128.611
 20
-28.5787
 11
128.232
 21
-28.2678
  0
LINE
  8
0
 10
128.232
 20
-28.2678
 11
127.921
 21
-27.8889
  0
LINE
  8
0
 10
127.921
 20
-27.8889
 11
127.69
 21
-27.4567
  0
LINE
  8
0
 10
127.69
 20
-27.4567
 11
127.548
 21
-26.9877
  0
LINE
  8
0
 10
127.548
 20
-26.9877
 11
127.5
 21
-26.5
  0
LINE
  8
0
 10
127.5
 20
-26.5
 11
127.548
 21
-26.0123
  0
LINE
  8
0
 10
127.548
 20
-26.0123
 11
127.69
 21
-25.5433
  0
LINE
  8
0
 10
127.69
 20
-25.5433
 11
127.921
 21
-25.1111
  0
LINE
  8
0
 10
127.921
 20
-25.1111
 11
128.232
 21
-24.7322
  0
LINE
  8
0
 10
128.232
 20
-24.7322
 11
128.611
 21
-24.4213
  0
LINE
  8
0
 10
128.611
 20
-24.4213
 11
129.043
 21
-24.1903
  0
LINE
  8
0
 10
129.043
 20
-24.1903
 11
129.512
 21
-24.048
  0
LINE
  8
0
 10
129.512
 20
-24.048
 11
130
 21
-24
  0
LINE
  8
0
 10
130
 20
-24
 11
130.488
 21
-24.048
  0
LINE
  8
0
 10
130.488
 20
-24.048
 11
130.957
 21
-24.1903
  0
LINE
  8
0
 10
130.957
 20
-24.1903
 11
131.389
 21
-24.4213
  0
LINE
  8
0
 10
131.389
 20
-24.4213
 11
131.768
 21
-24.7322
  0
LINE
  8
0
 10
131.768
 20
-24.7322
 11
132.079
 21
-25.1111
  0
LINE
  8
0
 10
132.079
 20
-25.1111
 11
132.31
 21
-25.5433
  0
LINE
  8
0
 10
132.31
 20
-25.5433
 11
132.452
 21
-26.0123
  0
LINE
  8
0
 10
132.452
 20
-26.0123
 11
132.5
 21
-26.5
  0
LINE
  8
0
 10
132.5
 20
-26.5
 11
132.452
 21
-26.9877
  0
LINE
  8
0
 10
132.452
 20
-26.9877
 11
132.31
 21
-27.4567
  0
LINE
  8
0
 10
132.31
 20
-27.4567
 11
132.079
 21
-27.8889
  0
LINE
  8
0
 10
132.079
 20
-27.8889
 11
131.768
 21
-28.2678
  0
LINE
  8
0
 10
131.768
 20
-28.2678
 11
131.389
 21
-28.5787
  0
LINE
  8
0
 10
131.389
 20
-28.5787
 11
130.957
 21
-28.8097
  0
LINE
  8
0
 10
130.957
 20
-28.8097
 11
130.488
 21
-28.952
  0
LINE
  8
0
 10
130.488
 20
-28.952
 11
130
 21
-29
  0
LINE
  8
0
 10
-130
 20
-29
 11
-130.488
 21
-28.952
  0
LINE
  8
0
 10
-130.488
 20
-28.952
 11
-130.957
 21
-28.8097
  0
LINE
  8
0
 10
-130.957
 20
-28.8097
 11
-131.389
 21
-28.5787
  0
LINE
  8
0
 10
-131.389
 20
-28.5787
 11
-131.768
 21
-28.2678
  0
LINE
  8
0
 10
-131.768
 20
-28.2678
 11
-132.079
 21
-27.8889
  0
LINE
  8
0
 10
-132.079
 20
-27.8889
 11
-132.31
 21
-27.4567
  0
LINE
  8
0
 10
-132.31
 20
-27.4567
 11
-132.452
 21
-26.9877
  0
LINE
  8
0
 10
-132.452
 20
-26.9877
 11
-132.5
 21
-26.5
  0
LINE
  8
0
 10
-132.5
 20
-26.5
 11
-132.452
 21
-26.0123
  0
LINE
  8
0
 10
-132.452
 20
-26.0123
 11
-132.31
 21
-25.5433
  0
LINE
  8
0
 10
-132.31
 20
-25.5433
 11
-132.079
 21
-25.1111
  0
LINE
  8
0
 10
-132.079
 20
-25.1111
 11
-131.768
 21
-24.7322
  0
LINE
  8
0
 10
-131.768
 20
-24.7322
 11
-131.389
 21
-24.4213
  0
LINE
  8
0
 10
-131.389
 20
-24.4213
 11
-130.957
 21
-24.1903
  0
LINE
  8
0
 10
-130.957
 20
-24.1903
 11
-130.488
 21
-24.048
  0
LINE
  8
0
 10
-130.488
 20
-24.048
 11
-130
 21
-24
  0
LINE
  8
0
 10
-130
 20
-24
 11
-129.512
 21
-24.048
  0
LINE
  8
0
 10
-129.512
 20
-24.048
 11
-129.043
 21
-24.1903
  0
LINE
  8
0
 10
-129.043
 20
-24.1903
 11
-128.611
 21
-24.4213
  0
LINE
  8
0
 10
-128.611
 20
-24.4213
 11
-128.232
 21
-24.7322
  0
LINE
  8
0
 10
-128.232
 20
-24.7322
 11
-127.921
 21
-25.1111
  0
LINE
  8
0
 10
-127.921
 20
-25.1111
 11
-127.69
 21
-25.5433
  0
LINE
  8
0
 10
-127.69
 20
-25.5433
 11
-127.548
 21
-26.0123
  0
LINE
  8
0
 10
-127.548
 20
-26.0123
 11
-127.5
 21
-26.5
  0
LINE
  8
0
 10
-127.5
 20
-26.5
 11
-127.548
 21
-26.9877
  0
LINE
  8
0
 10
-127.548
 20
-26.9877
 11
-127.69
 21
-27.4567
  0
LINE
  8
0
 10
-127.69
 20
-27.4567
 11
-127.921
 21
-27.8889
  0
LINE
  8
0
 10
-127.921
 20
-27.8889
 11
-128.232
 21
-28.2678
  0
LINE
  8
0
 10
-128.232
 20
-28.2678
 11
-128.611
 21
-28.5787
  0
LINE
  8
0
 10
-128.611
 20
-28.5787
 11
-129.043
 21
-28.8097
  0
LINE
  8
0
 10
-129.043
 20
-28.8097
 11
-129.512
 21
-28.952
  0
LINE
  8
0
 10
-129.512
 20
-28.952
 11
-130
 21
-29
  0
LINE
  8
0
 10
230.05
 20
-42.7
 11
230.05
 21
-27.8
  0
LINE
  8
0
 10
230.05
 20
-27.8
 11
236.45
 21
-27.8
  0
LINE
  8
0
 10
236.45
 20
-27.8
 11
236.45
 21
-42.7
  0
LINE
  8
0
 10
236.45
 20
-42.7
 11
230.05
 21
-42.7
  0
LINE
  8
0
 10
-236.45
 20
-42.7
 11
-236.45
 21
-27.8
  0
LINE
  8
0
 10
-236.45
 20
-27.8
 11
-230.05
 21
-27.8
  0
LINE
  8
0
 10
-230.05
 20
-27.8
 11
-230.05
 21
-42.7
  0
LINE
  8
0
 10
-230.05
 20
-42.7
 11
-236.45
 21
-42.7
  0
LINE
  8
0
 10
219.512
 20
-39.702
 11
219.043
 21
-39.5597
  0
LINE
  8
0
 10
219.043
 20
-39.5597
 11
218.611
 21
-39.3287
  0
LINE
  8
0
 10
218.611
 20
-39.3287
 11
218.232
 21
-39.0178
  0
LINE
  8
0
 10
218.232
 20
-39.0178
 11
217.921
 21
-38.6389
  0
LINE
  8
0
 10
217.921
 20
-38.6389
 11
217.69
 21
-38.2067
  0
LINE
  8
0
 10
217.69
 20
-38.2067
 11
217.548
 21
-37.7377
  0
LINE
  8
0
 10
217.548
 20
-37.7377
 11
217.5
 21
-37.25
  0
LINE
  8
0
 10
217.5
 20
-37.25
 11
217.548
 21
-36.7623
  0
LINE
  8
0
 10
217.548
 20
-36.7623
 11
217.69
 21
-36.2933
  0
LINE
  8
0
 10
217.69
 20
-36.2933
 11
217.921
 21
-35.8611
  0
LINE
  8
0
 10
217.921
 20
-35.8611
 11
218.232
 21
-35.4822
  0
LINE
  8
0
 10
218.232
 20
-35.4822
 11
218.611
 21
-35.1713
  0
LINE
  8
0
 10
218.611
 20
-35.1713
 11
219.043
 21
-34.9403
  0
LINE
  8
0
 10
219.043
 20
-34.9403
 11
219.512
 21
-34.798
  0
LINE
  8
0
 10
219.512
 20
-34.798
 11
220
 21
-34.75
  0
LINE
  8
0
 10
220
 20
-34.75
 11
220.488
 21
-34.798
  0
LINE
  8
0
 10
220.488
 20
-34.798
 11
220.957
 21
-34.9403
  0
LINE
  8
0
 10
220.957
 20
-34.9403
 11
221.389
 21
-35.1713
  0
LINE
  8
0
 10
221.389
 20
-35.1713
 11
221.768
 21
-35.4822
  0
LINE
  8
0
 10
221.768
 20
-35.4822
 11
222.079
 21
-35.8611
  0
LINE
  8
0
 10
222.079
 20
-35.8611
 11
222.31
 21
-36.2933
  0
LINE
  8
0
 10
222.31
 20
-36.2933
 11
222.452
 21
-36.7623
  0
LINE
  8
0
 10
222.452
 20
-36.7623
 11
222.5
 21
-37.25
  0
LINE
  8
0
 10
222.5
 20
-37.25
 11
222.452
 21
-37.7377
  0
LINE
  8
0
 10
222.452
 20
-37.7377
 11
222.31
 21
-38.2067
  0
LINE
  8
0
 10
222.31
 20
-38.2067
 11
222.079
 21
-38.6389
  0
LINE
  8
0
 10
222.079
 20
-38.6389
 11
221.768
 21
-39.0178
  0
LINE
  8
0
 10
221.768
 20
-39.0178
 11
221.389
 21
-39.3287
  0
LINE
  8
0
 10
221.389
 20
-39.3287
 11
220.957
 21
-39.5597
  0
LINE
  8
0
 10
220.957
 20
-39.5597
 11
220.488
 21
-39.702
  0
LINE
  8
0
 10
220.488
 20
-39.702
 11
220
 21
-39.75
  0
LINE
  8
0
 10
220
 20
-39.75
 11
219.512
 21
-39.702
  0
LINE
  8
0
 10
-220.488
 20
-39.702
 11
-220.957
 21
-39.5597
  0
LINE
  8
0
 10
-220.957
 20
-39.5597
 11
-221.389
 21
-39.3287
  0
LINE
  8
0
 10
-221.389
 20
-39.3287
 11
-221.768
 21
-39.0178
  0
LINE
  8
0
 10
-221.768
 20
-39.0178
 11
-222.079
 21
-38.6389
  0
LINE
  8
0
 10
-222.079
 20
-38.6389
 11
-222.31
 21
-38.2067
  0
LINE
  8
0
 10
-222.31
 20
-38.2067
 11
-222.452
 21
-37.7377
  0
LINE
  8
0
 10
-222.452
 20
-37.7377
 11
-222.5
 21
-37.25
  0
LINE
  8
0
 10
-222.5
 20
-37.25
 11
-222.452
 21
-36.7623
  0
LINE
  8
0
 10
-222.452
 20
-36.7623
 11
-222.31
 21
-36.2933
  0
LINE
  8
0
 10
-222.31
 20
-36.2933
 11
-222.079
 21
-35.8611
  0
LINE
  8
0
 10
-222.079
 20
-35.8611
 11
-221.768
 21
-35.4822
  0
LINE
  8
0
 10
-221.768
 20
-35.4822
 11
-221.389
 21
-35.1713
  0
LINE
  8
0
 10
-221.389
 20
-35.1713
 11
-220.957
 21
-34.9403
  0
LINE
  8
0
 10
-220.957
 20
-34.9403
 11
-220.488
 21
-34.798
  0
LINE
  8
0
 10
-220.488
 20
-34.798
 11
-220
 21
-34.75
  0
LINE
  8
0
 10
-220
 20
-34.75
 11
-219.512
 21
-34.798
  0
LINE
  8
0
 10
-219.512
 20
-34.798
 11
-219.043
 21
-34.9403
  0
LINE
  8
0
 10
-219.043
 20
-34.9403
 11
-218.611
 21
-35.1713
  0
LINE
  8
0
 10
-218.611
 20
-35.1713
 11
-218.232
 21
-35.4822
  0
LINE
  8
0
 10
-218.232
 20
-35.4822
 11
-217.921
 21
-35.8611
  0
LINE
  8
0
 10
-217.921
 20
-35.8611
 11
-217.69
 21
-36.2933
  0
LINE
  8
0
 10
-217.69
 20
-36.2933
 11
-217.548
 21
-36.7623
  0
LINE
  8
0
 10
-217.548
 20
-36.7623
 11
-217.5
 21
-37.25
  0
LINE
  8
0
 10
-217.5
 20
-37.25
 11
-217.548
 21
-37.7377
  0
LINE
  8
0
 10
-217.548
 20
-37.7377
 11
-217.69
 21
-38.2067
  0
LINE
  8
0
 10
-217.69
 20
-38.2067
 11
-217.921
 21
-38.6389
  0
LINE
  8
0
 10
-217.921
 20
-38.6389
 11
-218.232
 21
-39.0178
  0
LINE
  8
0
 10
-218.232
 20
-39.0178
 11
-218.611
 21
-39.3287
  0
LINE
  8
0
 10
-218.611
 20
-39.3287
 11
-219.043
 21
-39.5597
  0
LINE
  8
0
 10
-219.043
 20
-39.5597
 11
-219.512
 21
-39.702
  0
LINE
  8
0
 10
-219.512
 20
-39.702
 11
-220
 21
-39.75
  0
LINE
  8
0
 10
-220
 20
-39.75
 11
-220.488
 21
-39.702
  0
LINE
  8
0
 10
-115.249
 20
-45.2438
 11
-115.745
 21
-45.1942
  0
LINE
  8
0
 10
-115.745
 20
-45.1942
 11
-116.234
 21
-45.0954
  0
LINE
  8
0
 10
-116.234
 20
-45.0954
 11
-116.71
 21
-44.9485
  0
LINE
  8
0
 10
-116.71
 20
-44.9485
 11
-117.169
 21
-44.7548
  0
LINE
  8
0
 10
-117.169
 20
-44.7548
 11
-117.607
 21
-44.5164
  0
LINE
  8
0
 10
-117.607
 20
-44.5164
 11
-118.019
 21
-44.2357
  0
LINE
  8
0
 10
-118.019
 20
-44.2357
 11
-118.401
 21
-43.9153
  0
LINE
  8
0
 10
-118.401
 20
-43.9153
 11
-118.749
 21
-43.5584
  0
LINE
  8
0
 10
-118.749
 20
-43.5584
 11
-119.06
 21
-43.1687
  0
LINE
  8
0
 10
-119.06
 20
-43.1687
 11
-119.33
 21
-42.75
  0
LINE
  8
0
 10
-119.33
 20
-42.75
 11
-119.558
 21
-42.3064
  0
LINE
  8
0
 10
-119.558
 20
-42.3064
 11
-119.74
 21
-41.8424
  0
LINE
  8
0
 10
-119.74
 20
-41.8424
 11
-119.875
 21
-41.3626
  0
LINE
  8
0
 10
-119.875
 20
-41.3626
 11
-119.961
 21
-40.8717
  0
LINE
  8
0
 10
-119.961
 20
-40.8717
 11
-119.998
 21
-40.3746
  0
LINE
  8
0
 10
-119.998
 20
-40.3746
 11
-119.986
 21
-39.8763
  0
LINE
  8
0
 10
-119.986
 20
-39.8763
 11
-119.924
 21
-39.3818
  0
LINE
  8
0
 10
-119.924
 20
-39.3818
 11
-119.813
 21
-38.8958
  0
LINE
  8
0
 10
-119.813
 20
-38.8958
 11
-119.654
 21
-38.4233
  0
LINE
  8
0
 10
-119.654
 20
-38.4233
 11
-119.449
 21
-37.9689
  0
LINE
  8
0
 10
-119.449
 20
-37.9689
 11
-119.2
 21
-37.5373
  0
LINE
  8
0
 10
-119.2
 20
-37.5373
 11
-118.909
 21
-37.1325
  0
LINE
  8
0
 10
-118.909
 20
-37.1325
 11
-118.579
 21
-36.7588
  0
LINE
  8
0
 10
-118.579
 20
-36.7588
 11
-118.214
 21
-36.4198
  0
LINE
  8
0
 10
-118.214
 20
-36.4198
 11
-117.817
 21
-36.1188
  0
LINE
  8
0
 10
-117.817
 20
-36.1188
 11
-117.391
 21
-35.8589
  0
LINE
  8
0
 10
-117.391
 20
-35.8589
 11
-116.942
 21
-35.6426
  0
LINE
  8
0
 10
-116.942
 20
-35.6426
 11
-116.474
 21
-35.4721
  0
LINE
  8
0
 10
-116.474
 20
-35.4721
 11
-115.991
 21
-35.3491
  0
LINE
  8
0
 10
-115.991
 20
-35.3491
 11
-115.498
 21
-35.2748
  0
LINE
  8
0
 10
-115.498
 20
-35.2748
 11
-115
 21
-35.25
  0
LINE
  8
0
 10
-115
 20
-35.25
 11
-114.502
 21
-35.2748
  0
LINE
  8
0
 10
-114.502
 20
-35.2748
 11
-114.009
 21
-35.3491
  0
LINE
  8
0
 10
-114.009
 20
-35.3491
 11
-113.526
 21
-35.4721
  0
LINE
  8
0
 10
-113.526
 20
-35.4721
 11
-113.058
 21
-35.6426
  0
LINE
  8
0
 10
-113.058
 20
-35.6426
 11
-112.609
 21
-35.8589
  0
LINE
  8
0
 10
-112.609
 20
-35.8589
 11
-112.183
 21
-36.1188
  0
LINE
  8
0
 10
-112.183
 20
-36.1188
 11
-111.786
 21
-36.4198
  0
LINE
  8
0
 10
-111.786
 20
-36.4198
 11
-111.421
 21
-36.7588
  0
LINE
  8
0
 10
-111.421
 20
-36.7588
 11
-111.091
 21
-37.1325
  0
LINE
  8
0
 10
-111.091
 20
-37.1325
 11
-110.8
 21
-37.5373
  0
LINE
  8
0
 10
-110.8
 20
-37.5373
 11
-110.551
 21
-37.9689
  0
LINE
  8
0
 10
-110.551
 20
-37.9689
 11
-110.346
 21
-38.4233
  0
LINE
  8
0
 10
-110.346
 20
-38.4233
 11
-110.187
 21
-38.8958
  0
LINE
  8
0
 10
-110.187
 20
-38.8958
 11
-110.076
 21
-39.3818
  0
LINE
  8
0
 10
-110.076
 20
-39.3818
 11
-110.014
 21
-39.8763
  0
LINE
  8
0
 10
-110.014
 20
-39.8763
 11
-110.002
 21
-40.3746
  0
LINE
  8
0
 10
-110.002
 20
-40.3746
 11
-110.039
 21
-40.8717
  0
LINE
  8
0
 10
-110.039
 20
-40.8717
 11
-110.125
 21
-41.3626
  0
LINE
  8
0
 10
-110.125
 20
-41.3626
 11
-110.26
 21
-41.8424
  0
LINE
  8
0
 10
-110.26
 20
-41.8424
 11
-110.442
 21
-42.3064
  0
LINE
  8
0
 10
-110.442
 20
-42.3064
 11
-110.67
 21
-42.75
  0
LINE
  8
0
 10
-110.67
 20
-42.75
 11
-110.94
 21
-43.1687
  0
LINE
  8
0
 10
-110.94
 20
-43.1687
 11
-111.251
 21
-43.5584
  0
LINE
  8
0
 10
-111.251
 20
-43.5584
 11
-111.599
 21
-43.9153
  0
LINE
  8
0
 10
-111.599
 20
-43.9153
 11
-111.981
 21
-44.2357
  0
LINE
  8
0
 10
-111.981
 20
-44.2357
 11
-112.393
 21
-44.5164
  0
LINE
  8
0
 10
-112.393
 20
-44.5164
 11
-112.831
 21
-44.7548
  0
LINE
  8
0
 10
-112.831
 20
-44.7548
 11
-113.29
 21
-44.9485
  0
LINE
  8
0
 10
-113.29
 20
-44.9485
 11
-113.766
 21
-45.0954
  0
LINE
  8
0
 10
-113.766
 20
-45.0954
 11
-114.255
 21
-45.1942
  0
LINE
  8
0
 10
-114.255
 20
-45.1942
 11
-114.751
 21
-45.2438
  0
LINE
  8
0
 10
-114.751
 20
-45.2438
 11
-115.249
 21
-45.2438
  0
LINE
  8
0
 10
114.751
 20
-45.2438
 11
114.255
 21
-45.1942
  0
LINE
  8
0
 10
114.255
 20
-45.1942
 11
113.766
 21
-45.0954
  0
LINE
  8
0
 10
113.766
 20
-45.0954
 11
113.29
 21
-44.9485
  0
LINE
  8
0
 10
113.29
 20
-44.9485
 11
112.831
 21
-44.7548
  0
LINE
  8
0
 10
112.831
 20
-44.7548
 11
112.393
 21
-44.5164
  0
LINE
  8
0
 10
112.393
 20
-44.5164
 11
111.981
 21
-44.2357
  0
LINE
  8
0
 10
111.981
 20
-44.2357
 11
111.599
 21
-43.9153
  0
LINE
  8
0
 10
111.599
 20
-43.9153
 11
111.251
 21
-43.5584
  0
LINE
  8
0
 10
111.251
 20
-43.5584
 11
110.94
 21
-43.1687
  0
LINE
  8
0
 10
110.94
 20
-43.1687
 11
110.67
 21
-42.75
  0
LINE
  8
0
 10
110.67
 20
-42.75
 11
110.442
 21
-42.3064
  0
LINE
  8
0
 10
110.442
 20
-42.3064
 11
110.26
 21
-41.8424
  0
LINE
  8
0
 10
110.26
 20
-41.8424
 11
110.125
 21
-41.3626
  0
LINE
  8
0
 10
110.125
 20
-41.3626
 11
110.039
 21
-40.8717
  0
LINE
  8
0
 10
110.039
 20
-40.8717
 11
110.002
 21
-40.3746
  0
LINE
  8
0
 10
110.002
 20
-40.3746
 11
110.014
 21
-39.8763
  0
LINE
  8
0
 10
110.014
 20
-39.8763
 11
110.076
 21
-39.3818
  0
LINE
  8
0
 10
110.076
 20
-39.3818
 11
110.187
 21
-38.8958
  0
LINE
  8
0
 10
110.187
 20
-38.8958
 11
110.346
 21
-38.4233
  0
LINE
  8
0
 10
110.346
 20
-38.4233
 11
110.551
 21
-37.9689
  0
LINE
  8
0
 10
110.551
 20
-37.9689
 11
110.8
 21
-37.5373
  0
LINE
  8
0
 10
110.8
 20
-37.5373
 11
111.091
 21
-37.1325
  0
LINE
  8
0
 10
111.091
 20
-37.1325
 11
111.421
 21
-36.7588
  0
LINE
  8
0
 10
111.421
 20
-36.7588
 11
111.786
 21
-36.4198
  0
LINE
  8
0
 10
111.786
 20
-36.4198
 11
112.183
 21
-36.1188
  0
LINE
  8
0
 10
112.183
 20
-36.1188
 11
112.609
 21
-35.8589
  0
LINE
  8
0
 10
112.609
 20
-35.8589
 11
113.058
 21
-35.6426
  0
LINE
  8
0
 10
113.058
 20
-35.6426
 11
113.526
 21
-35.4721
  0
LINE
  8
0
 10
113.526
 20
-35.4721
 11
114.009
 21
-35.3491
  0
LINE
  8
0
 10
114.009
 20
-35.3491
 11
114.502
 21
-35.2748
  0
LINE
  8
0
 10
114.502
 20
-35.2748
 11
115
 21
-35.25
  0
LINE
  8
0
 10
115
 20
-35.25
 11
115.498
 21
-35.2748
  0
LINE
  8
0
 10
115.498
 20
-35.2748
 11
115.991
 21
-35.3491
  0
LINE
  8
0
 10
115.991
 20
-35.3491
 11
116.474
 21
-35.4721
  0
LINE
  8
0
 10
116.474
 20
-35.4721
 11
116.942
 21
-35.6426
  0
LINE
  8
0
 10
116.942
 20
-35.6426
 11
117.391
 21
-35.8589
  0
LINE
  8
0
 10
117.391
 20
-35.8589
 11
117.817
 21
-36.1188
  0
LINE
  8
0
 10
117.817
 20
-36.1188
 11
118.214
 21
-36.4198
  0
LINE
  8
0
 10
118.214
 20
-36.4198
 11
118.579
 21
-36.7588
  0
LINE
  8
0
 10
118.579
 20
-36.7588
 11
118.909
 21
-37.1325
  0
LINE
  8
0
 10
118.909
 20
-37.1325
 11
119.2
 21
-37.5373
  0
LINE
  8
0
 10
119.2
 20
-37.5373
 11
119.449
 21
-37.9689
  0
LINE
  8
0
 10
119.449
 20
-37.9689
 11
119.654
 21
-38.4233
  0
LINE
  8
0
 10
119.654
 20
-38.4233
 11
119.813
 21
-38.8958
  0
LINE
  8
0
 10
119.813
 20
-38.8958
 11
119.924
 21
-39.3818
  0
LINE
  8
0
 10
119.924
 20
-39.3818
 11
119.986
 21
-39.8763
  0
LINE
  8
0
 10
119.986
 20
-39.8763
 11
119.998
 21
-40.3746
  0
LINE
  8
0
 10
119.998
 20
-40.3746
 11
119.961
 21
-40.8717
  0
LINE
  8
0
 10
119.961
 20
-40.8717
 11
119.875
 21
-41.3626
  0
LINE
  8
0
 10
119.875
 20
-41.3626
 11
119.74
 21
-41.8424
  0
LINE
  8
0
 10
119.74
 20
-41.8424
 11
119.558
 21
-42.3064
  0
LINE
  8
0
 10
119.558
 20
-42.3064
 11
119.33
 21
-42.75
  0
LINE
  8
0
 10
119.33
 20
-42.75
 11
119.06
 21
-43.1687
  0
LINE
  8
0
 10
119.06
 20
-43.1687
 11
118.749
 21
-43.5584
  0
LINE
  8
0
 10
118.749
 20
-43.5584
 11
118.401
 21
-43.9153
  0
LINE
  8
0
 10
118.401
 20
-43.9153
 11
118.019
 21
-44.2357
  0
LINE
  8
0
 10
118.019
 20
-44.2357
 11
117.607
 21
-44.5164
  0
LINE
  8
0
 10
117.607
 20
-44.5164
 11
117.169
 21
-44.7548
  0
LINE
  8
0
 10
117.169
 20
-44.7548
 11
116.71
 21
-44.9485
  0
LINE
  8
0
 10
116.71
 20
-44.9485
 11
116.234
 21
-45.0954
  0
LINE
  8
0
 10
116.234
 20
-45.0954
 11
115.745
 21
-45.1942
  0
LINE
  8
0
 10
115.745
 20
-45.1942
 11
115.249
 21
-45.2438
  0
LINE
  8
0
 10
115.249
 20
-45.2438
 11
114.751
 21
-45.2438
  0
LINE
  8
0
 10
102.5
 20
-42.75
 11
102.5
 21
-37.75
  0
LINE
  8
0
 10
102.5
 20
-37.75
 11
105.5
 21
-37.75
  0
LINE
  8
0
 10
105.5
 20
-37.75
 11
105.5
 21
-42.75
  0
LINE
  8
0
 10
105.5
 20
-42.75
 11
102.5
 21
-42.75
  0
LINE
  8
0
 10
-105.5
 20
-42.75
 11
-105.5
 21
-37.75
  0
LINE
  8
0
 10
-105.5
 20
-37.75
 11
-102.5
 21
-37.75
  0
LINE
  8
0
 10
-102.5
 20
-37.75
 11
-102.5
 21
-42.75
  0
LINE
  8
0
 10
-102.5
 20
-42.75
 11
-105.5
 21
-42.75
  0
LINE
  8
0
 10
-127.5
 20
-42.75
 11
-127.5
 21
-41.9457
  0
LINE
  8
0
 10
-127.5
 20
-41.9457
 11
-129.615
 21
-41.9457
  0
LINE
  8
0
 10
-129.615
 20
-41.9457
 11
-130.088
 21
-41.8428
  0
LINE
  8
0
 10
-130.088
 20
-41.8428
 11
-130.513
 21
-41.6109
  0
LINE
  8
0
 10
-130.513
 20
-41.6109
 11
-130.855
 21
-41.2688
  0
LINE
  8
0
 10
-130.855
 20
-41.2688
 11
-131.087
 21
-40.8441
  0
LINE
  8
0
 10
-131.087
 20
-40.8441
 11
-131.19
 21
-40.3713
  0
LINE
  8
0
 10
-131.19
 20
-40.3713
 11
-131.155
 21
-39.8886
  0
LINE
  8
0
 10
-131.155
 20
-39.8886
 11
-130.986
 21
-39.4353
  0
LINE
  8
0
 10
-130.986
 20
-39.4353
 11
-130.696
 21
-39.0479
  0
LINE
  8
0
 10
-130.696
 20
-39.0479
 11
-130.309
 21
-38.7579
  0
LINE
  8
0
 10
-130.309
 20
-38.7579
 11
-129.855
 21
-38.5888
  0
LINE
  8
0
 10
-129.855
 20
-38.5888
 11
-129.373
 21
-38.5543
  0
LINE
  8
0
 10
-129.373
 20
-38.5543
 11
-127.5
 21
-38.5543
  0
LINE
  8
0
 10
-127.5
 20
-38.5543
 11
-127.5
 21
-37.75
  0
LINE
  8
0
 10
-127.5
 20
-37.75
 11
-124.5
 21
-37.75
  0
LINE
  8
0
 10
-124.5
 20
-37.75
 11
-124.5
 21
-42.75
  0
LINE
  8
0
 10
-124.5
 20
-42.75
 11
-127.5
 21
-42.75
  0
LINE
  8
0
 10
124.5
 20
-42.75
 11
124.5
 21
-37.75
  0
LINE
  8
0
 10
124.5
 20
-37.75
 11
127.5
 21
-37.75
  0
LINE
  8
0
 10
127.5
 20
-37.75
 11
127.5
 21
-38.5543
  0
LINE
  8
0
 10
127.5
 20
-38.5543
 11
129.615
 21
-38.5543
  0
LINE
  8
0
 10
129.615
 20
-38.5543
 11
130.088
 21
-38.6572
  0
LINE
  8
0
 10
130.088
 20
-38.6572
 11
130.513
 21
-38.8891
  0
LINE
  8
0
 10
130.513
 20
-38.8891
 11
130.855
 21
-39.2312
  0
LINE
  8
0
 10
130.855
 20
-39.2312
 11
131.087
 21
-39.6559
  0
LINE
  8
0
 10
131.087
 20
-39.6559
 11
131.19
 21
-40.1287
  0
LINE
  8
0
 10
131.19
 20
-40.1287
 11
131.155
 21
-40.6114
  0
LINE
  8
0
 10
131.155
 20
-40.6114
 11
130.986
 21
-41.0647
  0
LINE
  8
0
 10
130.986
 20
-41.0647
 11
130.696
 21
-41.4521
  0
LINE
  8
0
 10
130.696
 20
-41.4521
 11
130.309
 21
-41.7421
  0
LINE
  8
0
 10
130.309
 20
-41.7421
 11
129.855
 21
-41.9111
  0
LINE
  8
0
 10
129.855
 20
-41.9111
 11
129.373
 21
-41.9457
  0
LINE
  8
0
 10
129.373
 20
-41.9457
 11
127.5
 21
-41.9457
  0
LINE
  8
0
 10
127.5
 20
-41.9457
 11
127.5
 21
-42.75
  0
LINE
  8
0
 10
127.5
 20
-42.75
 11
124.5
 21
-42.75
  0
LINE
  8
0
 10
20.3848
 20
-41.9457
 11
19.912
 21
-41.8428
  0
LINE
  8
0
 10
19.912
 20
-41.8428
 11
19.4873
 21
-41.6109
  0
LINE
  8
0
 10
19.4873
 20
-41.6109
 11
19.1452
 21
-41.2688
  0
LINE
  8
0
 10
19.1452
 20
-41.2688
 11
18.9133
 21
-40.8441
  0
LINE
  8
0
 10
18.9133
 20
-40.8441
 11
18.8104
 21
-40.3713
  0
LINE
  8
0
 10
18.8104
 20
-40.3713
 11
18.8449
 21
-39.8886
  0
LINE
  8
0
 10
18.8449
 20
-39.8886
 11
19.014
 21
-39.4353
  0
LINE
  8
0
 10
19.014
 20
-39.4353
 11
19.304
 21
-39.0479
  0
LINE
  8
0
 10
19.304
 20
-39.0479
 11
19.6914
 21
-38.7579
  0
LINE
  8
0
 10
19.6914
 20
-38.7579
 11
20.1447
 21
-38.5888
  0
LINE
  8
0
 10
20.1447
 20
-38.5888
 11
20.6274
 21
-38.5543
  0
LINE
  8
0
 10
20.6274
 20
-38.5543
 11
23.4558
 21
-38.5543
  0
LINE
  8
0
 10
23.4558
 20
-38.5543
 11
23.9286
 21
-38.6572
  0
LINE
  8
0
 10
23.9286
 20
-38.6572
 11
24.3533
 21
-38.8891
  0
LINE
  8
0
 10
24.3533
 20
-38.8891
 11
24.6954
 21
-39.2312
  0
LINE
  8
0
 10
24.6954
 20
-39.2312
 11
24.9273
 21
-39.6559
  0
LINE
  8
0
 10
24.9273
 20
-39.6559
 11
25.0302
 21
-40.1287
  0
LINE
  8
0
 10
25.0302
 20
-40.1287
 11
24.9957
 21
-40.6114
  0
LINE
  8
0
 10
24.9957
 20
-40.6114
 11
24.8266
 21
-41.0647
  0
LINE
  8
0
 10
24.8266
 20
-41.0647
 11
24.5366
 21
-41.4521
  0
LINE
  8
0
 10
24.5366
 20
-41.4521
 11
24.1492
 21
-41.7421
  0
LINE
  8
0
 10
24.1492
 20
-41.7421
 11
23.6959
 21
-41.9111
  0
LINE
  8
0
 10
23.6959
 20
-41.9111
 11
23.2132
 21
-41.9457
  0
LINE
  8
0
 10
23.2132
 20
-41.9457
 11
20.3848
 21
-41.9457
  0
LINE
  8
0
 10
-23.4558
 20
-41.9457
 11
-23.9286
 21
-41.8428
  0
LINE
  8
0
 10
-23.9286
 20
-41.8428
 11
-24.3533
 21
-41.6109
  0
LINE
  8
0
 10
-24.3533
 20
-41.6109
 11
-24.6954
 21
-41.2688
  0
LINE
  8
0
 10
-24.6954
 20
-41.2688
 11
-24.9273
 21
-40.8441
  0
LINE
  8
0
 10
-24.9273
 20
-40.8441
 11
-25.0302
 21
-40.3713
  0
LINE
  8
0
 10
-25.0302
 20
-40.3713
 11
-24.9957
 21
-39.8886
  0
LINE
  8
0
 10
-24.9957
 20
-39.8886
 11
-24.8266
 21
-39.4353
  0
LINE
  8
0
 10
-24.8266
 20
-39.4353
 11
-24.5366
 21
-39.0479
  0
LINE
  8
0
 10
-24.5366
 20
-39.0479
 11
-24.1492
 21
-38.7579
  0
LINE
  8
0
 10
-24.1492
 20
-38.7579
 11
-23.6959
 21
-38.5888
  0
LINE
  8
0
 10
-23.6959
 20
-38.5888
 11
-23.2132
 21
-38.5543
  0
LINE
  8
0
 10
-23.2132
 20
-38.5543
 11
-20.3848
 21
-38.5543
  0
LINE
  8
0
 10
-20.3848
 20
-38.5543
 11
-19.912
 21
-38.6572
  0
LINE
  8
0
 10
-19.912
 20
-38.6572
 11
-19.4873
 21
-38.8891
  0
LINE
  8
0
 10
-19.4873
 20
-38.8891
 11
-19.1452
 21
-39.2312
  0
LINE
  8
0
 10
-19.1452
 20
-39.2312
 11
-18.9133
 21
-39.6559
  0
LINE
  8
0
 10
-18.9133
 20
-39.6559
 11
-18.8104
 21
-40.1287
  0
LINE
  8
0
 10
-18.8104
 20
-40.1287
 11
-18.8449
 21
-40.6114
  0
LINE
  8
0
 10
-18.8449
 20
-40.6114
 11
-19.014
 21
-41.0647
  0
LINE
  8
0
 10
-19.014
 20
-41.0647
 11
-19.304
 21
-41.4521
  0
LINE
  8
0
 10
-19.304
 20
-41.4521
 11
-19.6914
 21
-41.7421
  0
LINE
  8
0
 10
-19.6914
 20
-41.7421
 11
-20.1447
 21
-41.9111
  0
LINE
  8
0
 10
-20.1447
 20
-41.9111
 11
-20.6274
 21
-41.9457
  0
LINE
  8
0
 10
-20.6274
 20
-41.9457
 11
-23.4558
 21
-41.9457
  0
LINE
  8
0
 10
170.385
 20
-41.9457
 11
169.912
 21
-41.8428
  0
LINE
  8
0
 10
169.912
 20
-41.8428
 11
169.487
 21
-41.6109
  0
LINE
  8
0
 10
169.487
 20
-41.6109
 11
169.145
 21
-41.2688
  0
LINE
  8
0
 10
169.145
 20
-41.2688
 11
168.913
 21
-40.8441
  0
LINE
  8
0
 10
168.913
 20
-40.8441
 11
168.81
 21
-40.3713
  0
LINE
  8
0
 10
168.81
 20
-40.3713
 11
168.845
 21
-39.8886
  0
LINE
  8
0
 10
168.845
 20
-39.8886
 11
169.014
 21
-39.4353
  0
LINE
  8
0
 10
169.014
 20
-39.4353
 11
169.304
 21
-39.0479
  0
LINE
  8
0
 10
169.304
 20
-39.0479
 11
169.691
 21
-38.7579
  0
LINE
  8
0
 10
169.691
 20
-38.7579
 11
170.145
 21
-38.5888
  0
LINE
  8
0
 10
170.145
 20
-38.5888
 11
170.627
 21
-38.5543
  0
LINE
  8
0
 10
170.627
 20
-38.5543
 11
173.456
 21
-38.5543
  0
LINE
  8
0
 10
173.456
 20
-38.5543
 11
173.929
 21
-38.6572
  0
LINE
  8
0
 10
173.929
 20
-38.6572
 11
174.353
 21
-38.8891
  0
LINE
  8
0
 10
174.353
 20
-38.8891
 11
174.695
 21
-39.2312
  0
LINE
  8
0
 10
174.695
 20
-39.2312
 11
174.927
 21
-39.6559
  0
LINE
  8
0
 10
174.927
 20
-39.6559
 11
175.03
 21
-40.1287
  0
LINE
  8
0
 10
175.03
 20
-40.1287
 11
174.996
 21
-40.6114
  0
LINE
  8
0
 10
174.996
 20
-40.6114
 11
174.827
 21
-41.0647
  0
LINE
  8
0
 10
174.827
 20
-41.0647
 11
174.537
 21
-41.4521
  0
LINE
  8
0
 10
174.537
 20
-41.4521
 11
174.149
 21
-41.7421
  0
LINE
  8
0
 10
174.149
 20
-41.7421
 11
173.696
 21
-41.9111
  0
LINE
  8
0
 10
173.696
 20
-41.9111
 11
173.213
 21
-41.9457
  0
LINE
  8
0
 10
173.213
 20
-41.9457
 11
170.385
 21
-41.9457
  0
LINE
  8
0
 10
-173.456
 20
-41.9457
 11
-173.929
 21
-41.8428
  0
LINE
  8
0
 10
-173.929
 20
-41.8428
 11
-174.353
 21
-41.6109
  0
LINE
  8
0
 10
-174.353
 20
-41.6109
 11
-174.695
 21
-41.2688
  0
LINE
  8
0
 10
-174.695
 20
-41.2688
 11
-174.927
 21
-40.8441
  0
LINE
  8
0
 10
-174.927
 20
-40.8441
 11
-175.03
 21
-40.3713
  0
LINE
  8
0
 10
-175.03
 20
-40.3713
 11
-174.996
 21
-39.8886
  0
LINE
  8
0
 10
-174.996
 20
-39.8886
 11
-174.827
 21
-39.4353
  0
LINE
  8
0
 10
-174.827
 20
-39.4353
 11
-174.537
 21
-39.0479
  0
LINE
  8
0
 10
-174.537
 20
-39.0479
 11
-174.149
 21
-38.7579
  0
LINE
  8
0
 10
-174.149
 20
-38.7579
 11
-173.696
 21
-38.5888
  0
LINE
  8
0
 10
-173.696
 20
-38.5888
 11
-173.213
 21
-38.5543
  0
LINE
  8
0
 10
-173.213
 20
-38.5543
 11
-170.385
 21
-38.5543
  0
LINE
  8
0
 10
-170.385
 20
-38.5543
 11
-169.912
 21
-38.6572
  0
LINE
  8
0
 10
-169.912
 20
-38.6572
 11
-169.487
 21
-38.8891
  0
LINE
  8
0
 10
-169.487
 20
-38.8891
 11
-169.145
 21
-39.2312
  0
LINE
  8
0
 10
-169.145
 20
-39.2312
 11
-168.913
 21
-39.6559
  0
LINE
  8
0
 10
-168.913
 20
-39.6559
 11
-168.81
 21
-40.1287
  0
LINE
  8
0
 10
-168.81
 20
-40.1287
 11
-168.845
 21
-40.6114
  0
LINE
  8
0
 10
-168.845
 20
-40.6114
 11
-169.014
 21
-41.0647
  0
LINE
  8
0
 10
-169.014
 20
-41.0647
 11
-169.304
 21
-41.4521
  0
LINE
  8
0
 10
-169.304
 20
-41.4521
 11
-169.691
 21
-41.7421
  0
LINE
  8
0
 10
-169.691
 20
-41.7421
 11
-170.145
 21
-41.9111
  0
LINE
  8
0
 10
-170.145
 20
-41.9111
 11
-170.627
 21
-41.9457
  0
LINE
  8
0
 10
-170.627
 20
-41.9457
 11
-173.456
 21
-41.9457
  0
ENDSEC
  0
SECTION
  2
OBJECTS
  0
DICTIONARY
  0
ENDSEC
  0
EOF
