  0
SECTION
  2
BLOCKS
  0
ENDSEC
  0
SECTION
  2
ENTITIES
  0
LINE
  8
0
 10
-159.453
 20
-49.8751
 11
-159.697
 21
-49.4422
  0
LINE
  8
0
 10
-159.697
 20
-49.4422
 11
-159.922
 21
-48.9987
  0
LINE
  8
0
 10
-159.922
 20
-48.9987
 11
-160.127
 21
-48.5455
  0
LINE
  8
0
 10
-160.127
 20
-48.5455
 11
-160.31
 21
-48.0835
  0
LINE
  8
0
 10
-160.31
 20
-48.0835
 11
-160.473
 21
-47.6137
  0
LINE
  8
0
 10
-160.473
 20
-47.6137
 11
-160.614
 21
-47.137
  0
LINE
  8
0
 10
-160.614
 20
-47.137
 11
-160.734
 21
-46.6544
  0
LINE
  8
0
 10
-160.734
 20
-46.6544
 11
-160.832
 21
-46.1669
  0
LINE
  8
0
 10
-160.832
 20
-46.1669
 11
-160.907
 21
-45.6755
  0
LINE
  8
0
 10
-160.907
 20
-45.6755
 11
-160.961
 21
-45.1812
  0
LINE
  8
0
 10
-160.961
 20
-45.1812
 11
-160.991
 21
-44.685
  0
LINE
  8
0
 10
-160.991
 20
-44.685
 11
-161
 21
-44.1878
  0
LINE
  8
0
 10
-161
 20
-44.1878
 11
-160.986
 21
-43.6909
  0
LINE
  8
0
 10
-160.986
 20
-43.6909
 11
-160.949
 21
-43.195
  0
LINE
  8
0
 10
-160.949
 20
-43.195
 11
-160.89
 21
-42.7013
  0
LINE
  8
0
 10
-160.89
 20
-42.7013
 11
-160.809
 21
-42.2108
  0
LINE
  8
0
 10
-160.809
 20
-42.2108
 11
-160.706
 21
-41.7244
  0
LINE
  8
0
 10
-160.706
 20
-41.7244
 11
-160.581
 21
-41.2432
  0
LINE
  8
0
 10
-160.581
 20
-41.2432
 11
-160.434
 21
-40.7682
  0
LINE
  8
0
 10
-160.434
 20
-40.7682
 11
-160.266
 21
-40.3002
  0
LINE
  8
0
 10
-160.266
 20
-40.3002
 11
-160.077
 21
-39.8403
  0
LINE
  8
0
 10
-160.077
 20
-39.8403
 11
-159.868
 21
-39.3895
  0
LINE
  8
0
 10
-159.868
 20
-39.3895
 11
-159.638
 21
-38.9485
  0
LINE
  8
0
 10
-159.638
 20
-38.9485
 11
-159.389
 21
-38.5184
  0
LINE
  8
0
 10
-159.389
 20
-38.5184
 11
-159.12
 21
-38.1
  0
LINE
  8
0
 10
-159.12
 20
-38.1
 11
-158.833
 21
-37.6942
  0
LINE
  8
0
 10
-158.833
 20
-37.6942
 11
-158.528
 21
-37.3017
  0
LINE
  8
0
 10
-158.528
 20
-37.3017
 11
-158.205
 21
-36.9235
  0
LINE
  8
0
 10
-158.205
 20
-36.9235
 11
-157.866
 21
-36.5602
  0
LINE
  8
0
 10
-157.866
 20
-36.5602
 11
-157.51
 21
-36.2126
  0
LINE
  8
0
 10
-157.51
 20
-36.2126
 11
-157.139
 21
-35.8815
  0
LINE
  8
0
 10
-157.139
 20
-35.8815
 11
-156.754
 21
-35.5674
  0
LINE
  8
0
 10
-156.754
 20
-35.5674
 11
-156.355
 21
-35.2711
  0
LINE
  8
0
 10
-156.355
 20
-35.2711
 11
-155.942
 21
-34.9931
  0
LINE
  8
0
 10
-155.942
 20
-34.9931
 11
-155.518
 21
-34.7341
  0
LINE
  8
0
 10
-155.518
 20
-34.7341
 11
-155.082
 21
-34.4945
  0
LINE
  8
0
 10
-155.082
 20
-34.4945
 11
-154.636
 21
-34.2748
  0
LINE
  8
0
 10
-154.636
 20
-34.2748
 11
-154.181
 21
-34.0755
  0
LINE
  8
0
 10
-154.181
 20
-34.0755
 11
-153.717
 21
-33.8969
  0
LINE
  8
0
 10
-153.717
 20
-33.8969
 11
-153.245
 21
-33.7396
  0
LINE
  8
0
 10
-153.245
 20
-33.7396
 11
-152.767
 21
-33.6037
  0
LINE
  8
0
 10
-152.767
 20
-33.6037
 11
-152.283
 21
-33.4895
  0
LINE
  8
0
 10
-152.283
 20
-33.4895
 11
-151.794
 21
-33.3973
  0
LINE
  8
0
 10
-151.794
 20
-33.3973
 11
-151.302
 21
-33.3273
  0
LINE
  8
0
 10
-151.302
 20
-33.3273
 11
-150.807
 21
-33.2797
  0
LINE
  8
0
 10
-150.807
 20
-33.2797
 11
-150.311
 21
-33.2544
  0
LINE
  8
0
 10
-150.311
 20
-33.2544
 11
-149.814
 21
-33.2516
  0
LINE
  8
0
 10
-149.814
 20
-33.2516
 11
-149.317
 21
-33.2712
  0
LINE
  8
0
 10
-149.317
 20
-33.2712
 11
-148.821
 21
-33.3133
  0
LINE
  8
0
 10
-148.821
 20
-33.3133
 11
-148.328
 21
-33.3778
  0
LINE
  8
0
 10
-148.328
 20
-33.3778
 11
-147.839
 21
-33.4644
  0
LINE
  8
0
 10
-147.839
 20
-33.4644
 11
-147.354
 21
-33.5731
  0
LINE
  8
0
 10
-147.354
 20
-33.5731
 11
-146.874
 21
-33.7036
  0
LINE
  8
0
 10
-146.874
 20
-33.7036
 11
-146.4
 21
-33.8556
  0
LINE
  8
0
 10
-146.4
 20
-33.8556
 11
-145.934
 21
-34.0289
  0
LINE
  8
0
 10
-145.934
 20
-34.0289
 11
-145.477
 21
-34.223
  0
LINE
  8
0
 10
-145.477
 20
-34.223
 11
-145.028
 21
-34.4377
  0
LINE
  8
0
 10
-145.028
 20
-34.4377
 11
-144.59
 21
-34.6723
  0
LINE
  8
0
 10
-144.59
 20
-34.6723
 11
-144.163
 21
-34.9266
  0
LINE
  8
0
 10
-144.163
 20
-34.9266
 11
-143.747
 21
-35.1999
  0
LINE
  8
0
 10
-143.747
 20
-35.1999
 11
-143.345
 21
-35.4917
  0
LINE
  8
0
 10
-143.345
 20
-35.4917
 11
-142.956
 21
-35.8013
  0
LINE
  8
0
 10
-142.956
 20
-35.8013
 11
-142.581
 21
-36.1283
  0
LINE
  8
0
 10
-142.581
 20
-36.1283
 11
-142.222
 21
-36.4718
  0
LINE
  8
0
 10
-142.222
 20
-36.4718
 11
-141.878
 21
-36.8312
  0
LINE
  8
0
 10
-141.878
 20
-36.8312
 11
-141.551
 21
-37.2058
  0
LINE
  8
0
 10
-141.551
 20
-37.2058
 11
-141.242
 21
-37.5948
  0
LINE
  8
0
 10
-141.242
 20
-37.5948
 11
-140.95
 21
-37.9973
  0
LINE
  8
0
 10
-140.95
 20
-37.9973
 11
-140.677
 21
-38.4127
  0
LINE
  8
0
 10
-140.677
 20
-38.4127
 11
-140.422
 21
-38.84
  0
LINE
  8
0
 10
-140.422
 20
-38.84
 11
-140.188
 21
-39.2783
  0
LINE
  8
0
 10
-140.188
 20
-39.2783
 11
-139.973
 21
-39.7267
  0
LINE
  8
0
 10
-139.973
 20
-39.7267
 11
-139.779
 21
-40.1844
  0
LINE
  8
0
 10
-139.779
 20
-40.1844
 11
-139.606
 21
-40.6505
  0
LINE
  8
0
 10
-139.606
 20
-40.6505
 11
-139.454
 21
-41.1238
  0
LINE
  8
0
 10
-139.454
 20
-41.1238
 11
-139.323
 21
-41.6036
  0
LINE
  8
0
 10
-139.323
 20
-41.6036
 11
-139.214
 21
-42.0888
  0
LINE
  8
0
 10
-139.214
 20
-42.0888
 11
-139.128
 21
-42.5783
  0
LINE
  8
0
 10
-139.128
 20
-42.5783
 11
-139.063
 21
-43.0713
  0
LINE
  8
0
 10
-139.063
 20
-43.0713
 11
-139.021
 21
-43.5667
  0
LINE
  8
0
 10
-139.021
 20
-43.5667
 11
-139.002
 21
-44.0635
  0
LINE
  8
0
 10
-139.002
 20
-44.0635
 11
-139.004
 21
-44.5607
  0
LINE
  8
0
 10
-139.004
 20
-44.5607
 11
-139.03
 21
-45.0573
  0
LINE
  8
0
 10
-139.03
 20
-45.0573
 11
-139.077
 21
-45.5522
  0
LINE
  8
0
 10
-139.077
 20
-45.5522
 11
-139.147
 21
-46.0444
  0
LINE
  8
0
 10
-139.147
 20
-46.0444
 11
-139.24
 21
-46.533
  0
LINE
  8
0
 10
-139.24
 20
-46.533
 11
-139.354
 21
-47.0169
  0
LINE
  8
0
 10
-139.354
 20
-47.0169
 11
-139.49
 21
-47.4951
  0
LINE
  8
0
 10
-139.49
 20
-47.4951
 11
-139.647
 21
-47.9668
  0
LINE
  8
0
 10
-139.647
 20
-47.9668
 11
-139.825
 21
-48.4308
  0
LINE
  8
0
 10
-139.825
 20
-48.4308
 11
-140.025
 21
-48.8863
  0
LINE
  8
0
 10
-140.025
 20
-48.8863
 11
-140.244
 21
-49.3323
  0
LINE
  8
0
 10
-140.244
 20
-49.3323
 11
-140.484
 21
-49.7679
  0
LINE
  8
0
 10
-140.484
 20
-49.7679
 11
-140.743
 21
-50.1923
  0
LINE
  8
0
 10
-140.743
 20
-50.1923
 11
-140.782
 21
-50.25
  0
LINE
  8
0
 10
-140.782
 20
-50.25
 11
-9.21822
 21
-50.25
  0
LINE
  8
0
 10
-9.21822
 20
-50.25
 11
-9.45293
 21
-49.8751
  0
LINE
  8
0
 10
-9.45293
 20
-49.8751
 11
-9.69746
 21
-49.4422
  0
LINE
  8
0
 10
-9.69746
 20
-49.4422
 11
-9.92218
 21
-48.9987
  0
LINE
  8
0
 10
-9.92218
 20
-48.9987
 11
-10.1266
 21
-48.5455
  0
LINE
  8
0
 10
-10.1266
 20
-48.5455
 11
-10.3104
 21
-48.0835
  0
LINE
  8
0
 10
-10.3104
 20
-48.0835
 11
-10.4731
 21
-47.6137
  0
LINE
  8
0
 10
-10.4731
 20
-47.6137
 11
-10.6144
 21
-47.137
  0
LINE
  8
0
 10
-10.6144
 20
-47.137
 11
-10.734
 21
-46.6544
  0
LINE
  8
0
 10
-10.734
 20
-46.6544
 11
-10.8317
 21
-46.1669
  0
LINE
  8
0
 10
-10.8317
 20
-46.1669
 11
-10.9072
 21
-45.6755
  0
LINE
  8
0
 10
-10.9072
 20
-45.6755
 11
-10.9605
 21
-45.1812
  0
LINE
  8
0
 10
-10.9605
 20
-45.1812
 11
-10.9914
 21
-44.685
  0
LINE
  8
0
 10
-10.9914
 20
-44.685
 11
-10.9998
 21
-44.1878
  0
LINE
  8
0
 10
-10.9998
 20
-44.1878
 11
-10.9858
 21
-43.6909
  0
LINE
  8
0
 10
-10.9858
 20
-43.6909
 11
-10.9493
 21
-43.195
  0
LINE
  8
0
 10
-10.9493
 20
-43.195
 11
-10.8904
 21
-42.7013
  0
LINE
  8
0
 10
-10.8904
 20
-42.7013
 11
-10.8093
 21
-42.2108
  0
LINE
  8
0
 10
-10.8093
 20
-42.2108
 11
-10.7061
 21
-41.7244
  0
LINE
  8
0
 10
-10.7061
 20
-41.7244
 11
-10.5811
 21
-41.2432
  0
LINE
  8
0
 10
-10.5811
 20
-41.2432
 11
-10.4344
 21
-40.7682
  0
LINE
  8
0
 10
-10.4344
 20
-40.7682
 11
-10.2664
 21
-40.3002
  0
LINE
  8
0
 10
-10.2664
 20
-40.3002
 11
-10.0774
 21
-39.8403
  0
LINE
  8
0
 10
-10.0774
 20
-39.8403
 11
-9.86789
 21
-39.3895
  0
LINE
  8
0
 10
-9.86789
 20
-39.3895
 11
-9.63817
 21
-38.9485
  0
LINE
  8
0
 10
-9.63817
 20
-38.9485
 11
-9.38876
 21
-38.5184
  0
LINE
  8
0
 10
-9.38876
 20
-38.5184
 11
-9.12018
 21
-38.1
  0
LINE
  8
0
 10
-9.12018
 20
-38.1
 11
-8.83296
 21
-37.6942
  0
LINE
  8
0
 10
-8.83296
 20
-37.6942
 11
-8.52769
 21
-37.3017
  0
LINE
  8
0
 10
-8.52769
 20
-37.3017
 11
-8.20502
 21
-36.9235
  0
LINE
  8
0
 10
-8.20502
 20
-36.9235
 11
-7.86557
 21
-36.5602
  0
LINE
  8
0
 10
-7.86557
 20
-36.5602
 11
-7.51006
 21
-36.2126
  0
LINE
  8
0
 10
-7.51006
 20
-36.2126
 11
-7.13919
 21
-35.8815
  0
LINE
  8
0
 10
-7.13919
 20
-35.8815
 11
-6.75375
 21
-35.5674
  0
LINE
  8
0
 10
-6.75375
 20
-35.5674
 11
-6.35451
 21
-35.2711
  0
LINE
  8
0
 10
-6.35451
 20
-35.2711
 11
-5.94229
 21
-34.9931
  0
LINE
  8
0
 10
-5.94229
 20
-34.9931
 11
-5.51793
 21
-34.7341
  0
LINE
  8
0
 10
-5.51793
 20
-34.7341
 11
-5.08229
 21
-34.4945
  0
LINE
  8
0
 10
-5.08229
 20
-34.4945
 11
-4.63628
 21
-34.2748
  0
LINE
  8
0
 10
-4.63628
 20
-34.2748
 11
-4.18079
 21
-34.0755
  0
LINE
  8
0
 10
-4.18079
 20
-34.0755
 11
-3.71675
 21
-33.8969
  0
LINE
  8
0
 10
-3.71675
 20
-33.8969
 11
-3.24513
 21
-33.7396
  0
LINE
  8
0
 10
-3.24513
 20
-33.7396
 11
-2.76688
 21
-33.6037
  0
LINE
  8
0
 10
-2.76688
 20
-33.6037
 11
-2.28297
 21
-33.4895
  0
LINE
  8
0
 10
-2.28297
 20
-33.4895
 11
-1.7944
 21
-33.3973
  0
LINE
  8
0
 10
-1.7944
 20
-33.3973
 11
-1.30215
 21
-33.3273
  0
LINE
  8
0
 10
-1.30215
 20
-33.3273
 11
-0.807266
 21
-33.2797
  0
LINE
  8
0
 10
-0.807266
 20
-33.2797
 11
-0.310715
 21
-33.2544
  0
LINE
  8
0
 10
-0.310715
 20
-33.2544
 11
0.186447
 21
-33.2516
  0
LINE
  8
0
 10
0.186447
 20
-33.2516
 11
0.683243
 21
-33.2712
  0
LINE
  8
0
 10
0.683243
 20
-33.2712
 11
1.17865
 21
-33.3133
  0
LINE
  8
0
 10
1.17865
 20
-33.3133
 11
1.67165
 21
-33.3778
  0
LINE
  8
0
 10
1.67165
 20
-33.3778
 11
2.16122
 21
-33.4644
  0
LINE
  8
0
 10
2.16122
 20
-33.4644
 11
2.64639
 21
-33.5731
  0
LINE
  8
0
 10
2.64639
 20
-33.5731
 11
3.12614
 21
-33.7036
  0
LINE
  8
0
 10
3.12614
 20
-33.7036
 11
3.59952
 21
-33.8556
  0
LINE
  8
0
 10
3.59952
 20
-33.8556
 11
4.06554
 21
-34.0289
  0
LINE
  8
0
 10
4.06554
 20
-34.0289
 11
4.52325
 21
-34.223
  0
LINE
  8
0
 10
4.52325
 20
-34.223
 11
4.97173
 21
-34.4377
  0
LINE
  8
0
 10
4.97173
 20
-34.4377
 11
5.41003
 21
-34.6723
  0
LINE
  8
0
 10
5.41003
 20
-34.6723
 11
5.8373
 21
-34.9266
  0
LINE
  8
0
 10
5.8373
 20
-34.9266
 11
6.25264
 21
-35.1999
  0
LINE
  8
0
 10
6.25264
 20
-35.1999
 11
6.6552
 21
-35.4917
  0
LINE
  8
0
 10
6.6552
 20
-35.4917
 11
7.04417
 21
-35.8013
  0
LINE
  8
0
 10
7.04417
 20
-35.8013
 11
7.41875
 21
-36.1283
  0
LINE
  8
0
 10
7.41875
 20
-36.1283
 11
7.77817
 21
-36.4718
  0
LINE
  8
0
 10
7.77817
 20
-36.4718
 11
8.1217
 21
-36.8312
  0
LINE
  8
0
 10
8.1217
 20
-36.8312
 11
8.44864
 21
-37.2058
  0
LINE
  8
0
 10
8.44864
 20
-37.2058
 11
8.75832
 21
-37.5948
  0
LINE
  8
0
 10
8.75832
 20
-37.5948
 11
9.05009
 21
-37.9973
  0
LINE
  8
0
 10
9.05009
 20
-37.9973
 11
9.32339
 21
-38.4127
  0
LINE
  8
0
 10
9.32339
 20
-38.4127
 11
9.57764
 21
-38.84
  0
LINE
  8
0
 10
9.57764
 20
-38.84
 11
9.81233
 21
-39.2783
  0
LINE
  8
0
 10
9.81233
 20
-39.2783
 11
10.027
 21
-39.7267
  0
LINE
  8
0
 10
10.027
 20
-39.7267
 11
10.2211
 21
-40.1844
  0
LINE
  8
0
 10
10.2211
 20
-40.1844
 11
10.3944
 21
-40.6505
  0
LINE
  8
0
 10
10.3944
 20
-40.6505
 11
10.5464
 21
-41.1238
  0
LINE
  8
0
 10
10.5464
 20
-41.1238
 11
10.6769
 21
-41.6036
  0
LINE
  8
0
 10
10.6769
 20
-41.6036
 11
10.7856
 21
-42.0888
  0
LINE
  8
0
 10
10.7856
 20
-42.0888
 11
10.8722
 21
-42.5783
  0
LINE
  8
0
 10
10.8722
 20
-42.5783
 11
10.9367
 21
-43.0713
  0
LINE
  8
0
 10
10.9367
 20
-43.0713
 11
10.9787
 21
-43.5667
  0
LINE
  8
0
 10
10.9787
 20
-43.5667
 11
10.9984
 21
-44.0635
  0
LINE
  8
0
 10
10.9984
 20
-44.0635
 11
10.9956
 21
-44.5607
  0
LINE
  8
0
 10
10.9956
 20
-44.5607
 11
10.9703
 21
-45.0573
  0
LINE
  8
0
 10
10.9703
 20
-45.0573
 11
10.9226
 21
-45.5522
  0
LINE
  8
0
 10
10.9226
 20
-45.5522
 11
10.8526
 21
-46.0444
  0
LINE
  8
0
 10
10.8526
 20
-46.0444
 11
10.7605
 21
-46.533
  0
LINE
  8
0
 10
10.7605
 20
-46.533
 11
10.6463
 21
-47.0169
  0
LINE
  8
0
 10
10.6463
 20
-47.0169
 11
10.5104
 21
-47.4951
  0
LINE
  8
0
 10
10.5104
 20
-47.4951
 11
10.353
 21
-47.9668
  0
LINE
  8
0
 10
10.353
 20
-47.9668
 11
10.1745
 21
-48.4308
  0
LINE
  8
0
 10
10.1745
 20
-48.4308
 11
9.9752
 21
-48.8863
  0
LINE
  8
0
 10
9.9752
 20
-48.8863
 11
9.75552
 21
-49.3323
  0
LINE
  8
0
 10
9.75552
 20
-49.3323
 11
9.5159
 21
-49.7679
  0
LINE
  8
0
 10
9.5159
 20
-49.7679
 11
9.25684
 21
-50.1923
  0
LINE
  8
0
 10
9.25684
 20
-50.1923
 11
9.21793
 21
-50.25
  0
LINE
  8
0
 10
9.21793
 20
-50.25
 11
140.782
 21
-50.25
  0
LINE
  8
0
 10
140.782
 20
-50.25
 11
140.547
 21
-49.8751
  0
LINE
  8
0
 10
140.547
 20
-49.8751
 11
140.303
 21
-49.4422
  0
LINE
  8
0
 10
140.303
 20
-49.4422
 11
140.078
 21
-48.9987
  0
LINE
  8
0
 10
140.078
 20
-48.9987
 11
139.873
 21
-48.5455
  0
LINE
  8
0
 10
139.873
 20
-48.5455
 11
139.69
 21
-48.0835
  0
LINE
  8
0
 10
139.69
 20
-48.0835
 11
139.527
 21
-47.6137
  0
LINE
  8
0
 10
139.527
 20
-47.6137
 11
139.386
 21
-47.137
  0
LINE
  8
0
 10
139.386
 20
-47.137
 11
139.266
 21
-46.6544
  0
LINE
  8
0
 10
139.266
 20
-46.6544
 11
139.168
 21
-46.1669
  0
LINE
  8
0
 10
139.168
 20
-46.1669
 11
139.093
 21
-45.6755
  0
LINE
  8
0
 10
139.093
 20
-45.6755
 11
139.039
 21
-45.1812
  0
LINE
  8
0
 10
139.039
 20
-45.1812
 11
139.009
 21
-44.685
  0
LINE
  8
0
 10
139.009
 20
-44.685
 11
139
 21
-44.1878
  0
LINE
  8
0
 10
139
 20
-44.1878
 11
139.014
 21
-43.6909
  0
LINE
  8
0
 10
139.014
 20
-43.6909
 11
139.051
 21
-43.195
  0
LINE
  8
0
 10
139.051
 20
-43.195
 11
139.11
 21
-42.7013
  0
LINE
  8
0
 10
139.11
 20
-42.7013
 11
139.191
 21
-42.2108
  0
LINE
  8
0
 10
139.191
 20
-42.2108
 11
139.294
 21
-41.7244
  0
LINE
  8
0
 10
139.294
 20
-41.7244
 11
139.419
 21
-41.2432
  0
LINE
  8
0
 10
139.419
 20
-41.2432
 11
139.566
 21
-40.7682
  0
LINE
  8
0
 10
139.566
 20
-40.7682
 11
139.734
 21
-40.3002
  0
LINE
  8
0
 10
139.734
 20
-40.3002
 11
139.923
 21
-39.8403
  0
LINE
  8
0
 10
139.923
 20
-39.8403
 11
140.132
 21
-39.3895
  0
LINE
  8
0
 10
140.132
 20
-39.3895
 11
140.362
 21
-38.9485
  0
LINE
  8
0
 10
140.362
 20
-38.9485
 11
140.611
 21
-38.5184
  0
LINE
  8
0
 10
140.611
 20
-38.5184
 11
140.88
 21
-38.1
  0
LINE
  8
0
 10
140.88
 20
-38.1
 11
141.167
 21
-37.6942
  0
LINE
  8
0
 10
141.167
 20
-37.6942
 11
141.472
 21
-37.3017
  0
LINE
  8
0
 10
141.472
 20
-37.3017
 11
141.795
 21
-36.9235
  0
LINE
  8
0
 10
141.795
 20
-36.9235
 11
142.134
 21
-36.5602
  0
LINE
  8
0
 10
142.134
 20
-36.5602
 11
142.49
 21
-36.2126
  0
LINE
  8
0
 10
142.49
 20
-36.2126
 11
142.861
 21
-35.8815
  0
LINE
  8
0
 10
142.861
 20
-35.8815
 11
143.246
 21
-35.5674
  0
LINE
  8
0
 10
143.246
 20
-35.5674
 11
143.645
 21
-35.2711
  0
LINE
  8
0
 10
143.645
 20
-35.2711
 11
144.058
 21
-34.9931
  0
LINE
  8
0
 10
144.058
 20
-34.9931
 11
144.482
 21
-34.7341
  0
LINE
  8
0
 10
144.482
 20
-34.7341
 11
144.918
 21
-34.4945
  0
LINE
  8
0
 10
144.918
 20
-34.4945
 11
145.364
 21
-34.2748
  0
LINE
  8
0
 10
145.364
 20
-34.2748
 11
145.819
 21
-34.0755
  0
LINE
  8
0
 10
145.819
 20
-34.0755
 11
146.283
 21
-33.8969
  0
LINE
  8
0
 10
146.283
 20
-33.8969
 11
146.755
 21
-33.7396
  0
LINE
  8
0
 10
146.755
 20
-33.7396
 11
147.233
 21
-33.6037
  0
LINE
  8
0
 10
147.233
 20
-33.6037
 11
147.717
 21
-33.4895
  0
LINE
  8
0
 10
147.717
 20
-33.4895
 11
148.206
 21
-33.3973
  0
LINE
  8
0
 10
148.206
 20
-33.3973
 11
148.698
 21
-33.3273
  0
LINE
  8
0
 10
148.698
 20
-33.3273
 11
149.193
 21
-33.2797
  0
LINE
  8
0
 10
149.193
 20
-33.2797
 11
149.689
 21
-33.2544
  0
LINE
  8
0
 10
149.689
 20
-33.2544
 11
150.186
 21
-33.2516
  0
LINE
  8
0
 10
150.186
 20
-33.2516
 11
150.683
 21
-33.2712
  0
LINE
  8
0
 10
150.683
 20
-33.2712
 11
151.179
 21
-33.3133
  0
LINE
  8
0
 10
151.179
 20
-33.3133
 11
151.672
 21
-33.3778
  0
LINE
  8
0
 10
151.672
 20
-33.3778
 11
152.161
 21
-33.4644
  0
LINE
  8
0
 10
152.161
 20
-33.4644
 11
152.646
 21
-33.5731
  0
LINE
  8
0
 10
152.646
 20
-33.5731
 11
153.126
 21
-33.7036
  0
LINE
  8
0
 10
153.126
 20
-33.7036
 11
153.6
 21
-33.8556
  0
LINE
  8
0
 10
153.6
 20
-33.8556
 11
154.066
 21
-34.0289
  0
LINE
  8
0
 10
154.066
 20
-34.0289
 11
154.523
 21
-34.223
  0
LINE
  8
0
 10
154.523
 20
-34.223
 11
154.972
 21
-34.4377
  0
LINE
  8
0
 10
154.972
 20
-34.4377
 11
155.41
 21
-34.6723
  0
LINE
  8
0
 10
155.41
 20
-34.6723
 11
155.837
 21
-34.9266
  0
LINE
  8
0
 10
155.837
 20
-34.9266
 11
156.253
 21
-35.1999
  0
LINE
  8
0
 10
156.253
 20
-35.1999
 11
156.655
 21
-35.4917
  0
LINE
  8
0
 10
156.655
 20
-35.4917
 11
157.044
 21
-35.8013
  0
LINE
  8
0
 10
157.044
 20
-35.8013
 11
157.419
 21
-36.1283
  0
LINE
  8
0
 10
157.419
 20
-36.1283
 11
157.778
 21
-36.4718
  0
LINE
  8
0
 10
157.778
 20
-36.4718
 11
158.122
 21
-36.8312
  0
LINE
  8
0
 10
158.122
 20
-36.8312
 11
158.449
 21
-37.2058
  0
LINE
  8
0
 10
158.449
 20
-37.2058
 11
158.758
 21
-37.5948
  0
LINE
  8
0
 10
158.758
 20
-37.5948
 11
159.05
 21
-37.9973
  0
LINE
  8
0
 10
159.05
 20
-37.9973
 11
159.323
 21
-38.4127
  0
LINE
  8
0
 10
159.323
 20
-38.4127
 11
159.578
 21
-38.84
  0
LINE
  8
0
 10
159.578
 20
-38.84
 11
159.812
 21
-39.2783
  0
LINE
  8
0
 10
159.812
 20
-39.2783
 11
160.027
 21
-39.7267
  0
LINE
  8
0
 10
160.027
 20
-39.7267
 11
160.221
 21
-40.1844
  0
LINE
  8
0
 10
160.221
 20
-40.1844
 11
160.394
 21
-40.6505
  0
LINE
  8
0
 10
160.394
 20
-40.6505
 11
160.546
 21
-41.1238
  0
LINE
  8
0
 10
160.546
 20
-41.1238
 11
160.677
 21
-41.6036
  0
LINE
  8
0
 10
160.677
 20
-41.6036
 11
160.786
 21
-42.0888
  0
LINE
  8
0
 10
160.786
 20
-42.0888
 11
160.872
 21
-42.5783
  0
LINE
  8
0
 10
160.872
 20
-42.5783
 11
160.937
 21
-43.0713
  0
LINE
  8
0
 10
160.937
 20
-43.0713
 11
160.979
 21
-43.5667
  0
LINE
  8
0
 10
160.979
 20
-43.5667
 11
160.998
 21
-44.0635
  0
LINE
  8
0
 10
160.998
 20
-44.0635
 11
160.996
 21
-44.5607
  0
LINE
  8
0
 10
160.996
 20
-44.5607
 11
160.97
 21
-45.0573
  0
LINE
  8
0
 10
160.97
 20
-45.0573
 11
160.923
 21
-45.5522
  0
LINE
  8
0
 10
160.923
 20
-45.5522
 11
160.853
 21
-46.0444
  0
LINE
  8
0
 10
160.853
 20
-46.0444
 11
160.76
 21
-46.533
  0
LINE
  8
0
 10
160.76
 20
-46.533
 11
160.646
 21
-47.0169
  0
LINE
  8
0
 10
160.646
 20
-47.0169
 11
160.51
 21
-47.4951
  0
LINE
  8
0
 10
160.51
 20
-47.4951
 11
160.353
 21
-47.9668
  0
LINE
  8
0
 10
160.353
 20
-47.9668
 11
160.175
 21
-48.4308
  0
LINE
  8
0
 10
160.175
 20
-48.4308
 11
159.975
 21
-48.8863
  0
LINE
  8
0
 10
159.975
 20
-48.8863
 11
159.756
 21
-49.3323
  0
LINE
  8
0
 10
159.756
 20
-49.3323
 11
159.516
 21
-49.7679
  0
LINE
  8
0
 10
159.516
 20
-49.7679
 11
159.257
 21
-50.1923
  0
LINE
  8
0
 10
159.257
 20
-50.1923
 11
159.218
 21
-50.25
  0
LINE
  8
0
 10
159.218
 20
-50.25
 11
239.75
 21
-50.25
  0
LINE
  8
0
 10
239.75
 20
-50.25
 11
239.75
 21
9.75
  0
LINE
  8
0
 10
239.75
 20
9.75
 11
218.598
 21
9.75
  0
LINE
  8
0
 10
218.598
 20
9.75
 11
218.519
 21
10.0805
  0
LINE
  8
0
 10
218.519
 20
10.0805
 11
218.388
 21
10.5624
  0
LINE
  8
0
 10
218.388
 20
10.5624
 11
218.241
 21
11.0397
  0
LINE
  8
0
 10
218.241
 20
11.0397
 11
218.079
 21
11.5122
  0
LINE
  8
0
 10
218.079
 20
11.5122
 11
217.902
 21
11.9791
  0
LINE
  8
0
 10
217.902
 20
11.9791
 11
217.71
 21
12.4401
  0
LINE
  8
0
 10
217.71
 20
12.4401
 11
217.503
 21
12.8947
  0
LINE
  8
0
 10
217.503
 20
12.8947
 11
217.282
 21
13.3424
  0
LINE
  8
0
 10
217.282
 20
13.3424
 11
217.047
 21
13.7827
  0
LINE
  8
0
 10
217.047
 20
13.7827
 11
208.438
 21
28.6961
  0
LINE
  8
0
 10
208.438
 20
28.6961
 11
208.166
 21
29.1097
  0
LINE
  8
0
 10
208.166
 20
29.1097
 11
207.86
 21
29.4984
  0
LINE
  8
0
 10
207.86
 20
29.4984
 11
207.522
 21
29.8594
  0
LINE
  8
0
 10
207.522
 20
29.8594
 11
207.154
 21
30.1899
  0
LINE
  8
0
 10
207.154
 20
30.1899
 11
206.759
 21
30.4875
  0
LINE
  8
0
 10
206.759
 20
30.4875
 11
206.339
 21
30.7501
  0
LINE
  8
0
 10
206.339
 20
30.7501
 11
205.899
 21
30.9757
  0
LINE
  8
0
 10
205.899
 20
30.9757
 11
205.441
 21
31.1626
  0
LINE
  8
0
 10
205.441
 20
31.1626
 11
204.968
 21
31.3094
  0
LINE
  8
0
 10
204.968
 20
31.3094
 11
204.485
 21
31.415
  0
LINE
  8
0
 10
204.485
 20
31.415
 11
203.994
 21
31.4787
  0
LINE
  8
0
 10
203.994
 20
31.4787
 11
203.5
 21
31.5
  0
LINE
  8
0
 10
203.5
 20
31.5
 11
203.006
 21
31.4787
  0
LINE
  8
0
 10
203.006
 20
31.4787
 11
202.515
 21
31.415
  0
LINE
  8
0
 10
202.515
 20
31.415
 11
202.032
 21
31.3094
  0
LINE
  8
0
 10
202.032
 20
31.3094
 11
201.559
 21
31.1626
  0
LINE
  8
0
 10
201.559
 20
31.1626
 11
201.101
 21
30.9757
  0
LINE
  8
0
 10
201.101
 20
30.9757
 11
200.661
 21
30.7501
  0
LINE
  8
0
 10
200.661
 20
30.7501
 11
200.241
 21
30.4875
  0
LINE
  8
0
 10
200.241
 20
30.4875
 11
199.846
 21
30.1899
  0
LINE
  8
0
 10
199.846
 20
30.1899
 11
199.478
 21
29.8594
  0
LINE
  8
0
 10
199.478
 20
29.8594
 11
186.478
 21
16.8594
  0
LINE
  8
0
 10
186.478
 20
16.8594
 11
186.14
 21
16.4984
  0
LINE
  8
0
 10
186.14
 20
16.4984
 11
185.834
 21
16.1097
  0
LINE
  8
0
 10
185.834
 20
16.1097
 11
185.562
 21
15.6961
  0
LINE
  8
0
 10
185.562
 20
15.6961
 11
182.13
 21
9.75
  0
LINE
  8
0
 10
182.13
 20
9.75
 11
-182.13
 21
9.75
  0
LINE
  8
0
 10
-182.13
 20
9.75
 11
-185.562
 21
15.6961
  0
LINE
  8
0
 10
-185.562
 20
15.6961
 11
-185.834
 21
16.1097
  0
LINE
  8
0
 10
-185.834
 20
16.1097
 11
-186.14
 21
16.4984
  0
LINE
  8
0
 10
-186.14
 20
16.4984
 11
-186.478
 21
16.8594
  0
LINE
  8
0
 10
-186.478
 20
16.8594
 11
-199.478
 21
29.8594
  0
LINE
  8
0
 10
-199.478
 20
29.8594
 11
-199.846
 21
30.1899
  0
LINE
  8
0
 10
-199.846
 20
30.1899
 11
-200.241
 21
30.4875
  0
LINE
  8
0
 10
-200.241
 20
30.4875
 11
-200.661
 21
30.7501
  0
LINE
  8
0
 10
-200.661
 20
30.7501
 11
-201.101
 21
30.9757
  0
LINE
  8
0
 10
-201.101
 20
30.9757
 11
-201.559
 21
31.1626
  0
LINE
  8
0
 10
-201.559
 20
31.1626
 11
-202.032
 21
31.3094
  0
LINE
  8
0
 10
-202.032
 20
31.3094
 11
-202.515
 21
31.415
  0
LINE
  8
0
 10
-202.515
 20
31.415
 11
-203.006
 21
31.4787
  0
LINE
  8
0
 10
-203.006
 20
31.4787
 11
-203.5
 21
31.5
  0
LINE
  8
0
 10
-203.5
 20
31.5
 11
-203.994
 21
31.4787
  0
LINE
  8
0
 10
-203.994
 20
31.4787
 11
-204.485
 21
31.415
  0
LINE
  8
0
 10
-204.485
 20
31.415
 11
-204.968
 21
31.3094
  0
LINE
  8
0
 10
-204.968
 20
31.3094
 11
-205.441
 21
31.1626
  0
LINE
  8
0
 10
-205.441
 20
31.1626
 11
-205.899
 21
30.9757
  0
LINE
  8
0
 10
-205.899
 20
30.9757
 11
-206.339
 21
30.7501
  0
LINE
  8
0
 10
-206.339
 20
30.7501
 11
-206.759
 21
30.4875
  0
LINE
  8
0
 10
-206.759
 20
30.4875
 11
-207.154
 21
30.1899
  0
LINE
  8
0
 10
-207.154
 20
30.1899
 11
-207.522
 21
29.8594
  0
LINE
  8
0
 10
-207.522
 20
29.8594
 11
-207.86
 21
29.4984
  0
LINE
  8
0
 10
-207.86
 20
29.4984
 11
-208.166
 21
29.1097
  0
LINE
  8
0
 10
-208.166
 20
29.1097
 11
-208.438
 21
28.6961
  0
LINE
  8
0
 10
-208.438
 20
28.6961
 11
-217.047
 21
13.7827
  0
LINE
  8
0
 10
-217.047
 20
13.7827
 11
-217.282
 21
13.3424
  0
LINE
  8
0
 10
-217.282
 20
13.3424
 11
-217.503
 21
12.8947
  0
LINE
  8
0
 10
-217.503
 20
12.8947
 11
-217.71
 21
12.4401
  0
LINE
  8
0
 10
-217.71
 20
12.4401
 11
-217.902
 21
11.9791
  0
LINE
  8
0
 10
-217.902
 20
11.9791
 11
-218.079
 21
11.5122
  0
LINE
  8
0
 10
-218.079
 20
11.5122
 11
-218.241
 21
11.0397
  0
LINE
  8
0
 10
-218.241
 20
11.0397
 11
-218.388
 21
10.5624
  0
LINE
  8
0
 10
-218.388
 20
10.5624
 11
-218.519
 21
10.0805
  0
LINE
  8
0
 10
-218.519
 20
10.0805
 11
-218.598
 21
9.75
  0
LINE
  8
0
 10
-218.598
 20
9.75
 11
-239.75
 21
9.75
  0
LINE
  8
0
 10
-239.75
 20
9.75
 11
-239.75
 21
-50.25
  0
LINE
  8
0
 10
-239.75
 20
-50.25
 11
-159.218
 21
-50.25
  0
LINE
  8
0
 10
-159.218
 20
-50.25
 11
-159.453
 21
-49.8751
  0
LINE
  8
0
 10
-203.988
 20
23.298
 11
-204.457
 21
23.4403
  0
LINE
  8
0
 10
-204.457
 20
23.4403
 11
-204.889
 21
23.6713
  0
LINE
  8
0
 10
-204.889
 20
23.6713
 11
-205.268
 21
23.9822
  0
LINE
  8
0
 10
-205.268
 20
23.9822
 11
-205.579
 21
24.3611
  0
LINE
  8
0
 10
-205.579
 20
24.3611
 11
-205.81
 21
24.7933
  0
LINE
  8
0
 10
-205.81
 20
24.7933
 11
-205.952
 21
25.2623
  0
LINE
  8
0
 10
-205.952
 20
25.2623
 11
-206
 21
25.75
  0
LINE
  8
0
 10
-206
 20
25.75
 11
-205.952
 21
26.2377
  0
LINE
  8
0
 10
-205.952
 20
26.2377
 11
-205.81
 21
26.7067
  0
LINE
  8
0
 10
-205.81
 20
26.7067
 11
-205.579
 21
27.1389
  0
LINE
  8
0
 10
-205.579
 20
27.1389
 11
-205.268
 21
27.5178
  0
LINE
  8
0
 10
-205.268
 20
27.5178
 11
-204.889
 21
27.8287
  0
LINE
  8
0
 10
-204.889
 20
27.8287
 11
-204.457
 21
28.0597
  0
LINE
  8
0
 10
-204.457
 20
28.0597
 11
-203.988
 21
28.202
  0
LINE
  8
0
 10
-203.988
 20
28.202
 11
-203.5
 21
28.25
  0
LINE
  8
0
 10
-203.5
 20
28.25
 11
-203.012
 21
28.202
  0
LINE
  8
0
 10
-203.012
 20
28.202
 11
-202.543
 21
28.0597
  0
LINE
  8
0
 10
-202.543
 20
28.0597
 11
-202.111
 21
27.8287
  0
LINE
  8
0
 10
-202.111
 20
27.8287
 11
-201.732
 21
27.5178
  0
LINE
  8
0
 10
-201.732
 20
27.5178
 11
-201.421
 21
27.1389
  0
LINE
  8
0
 10
-201.421
 20
27.1389
 11
-201.19
 21
26.7067
  0
LINE
  8
0
 10
-201.19
 20
26.7067
 11
-201.048
 21
26.2377
  0
LINE
  8
0
 10
-201.048
 20
26.2377
 11
-201
 21
25.75
  0
LINE
  8
0
 10
-201
 20
25.75
 11
-201.048
 21
25.2623
  0
LINE
  8
0
 10
-201.048
 20
25.2623
 11
-201.19
 21
24.7933
  0
LINE
  8
0
 10
-201.19
 20
24.7933
 11
-201.421
 21
24.3611
  0
LINE
  8
0
 10
-201.421
 20
24.3611
 11
-201.732
 21
23.9822
  0
LINE
  8
0
 10
-201.732
 20
23.9822
 11
-202.111
 21
23.6713
  0
LINE
  8
0
 10
-202.111
 20
23.6713
 11
-202.543
 21
23.4403
  0
LINE
  8
0
 10
-202.543
 20
23.4403
 11
-203.012
 21
23.298
  0
LINE
  8
0
 10
-203.012
 20
23.298
 11
-203.5
 21
23.25
  0
LINE
  8
0
 10
-203.5
 20
23.25
 11
-203.988
 21
23.298
  0
LINE
  8
0
 10
203.012
 20
23.298
 11
202.543
 21
23.4403
  0
LINE
  8
0
 10
202.543
 20
23.4403
 11
202.111
 21
23.6713
  0
LINE
  8
0
 10
202.111
 20
23.6713
 11
201.732
 21
23.9822
  0
LINE
  8
0
 10
201.732
 20
23.9822
 11
201.421
 21
24.3611
  0
LINE
  8
0
 10
201.421
 20
24.3611
 11
201.19
 21
24.7933
  0
LINE
  8
0
 10
201.19
 20
24.7933
 11
201.048
 21
25.2623
  0
LINE
  8
0
 10
201.048
 20
25.2623
 11
201
 21
25.75
  0
LINE
  8
0
 10
201
 20
25.75
 11
201.048
 21
26.2377
  0
LINE
  8
0
 10
201.048
 20
26.2377
 11
201.19
 21
26.7067
  0
LINE
  8
0
 10
201.19
 20
26.7067
 11
201.421
 21
27.1389
  0
LINE
  8
0
 10
201.421
 20
27.1389
 11
201.732
 21
27.5178
  0
LINE
  8
0
 10
201.732
 20
27.5178
 11
202.111
 21
27.8287
  0
LINE
  8
0
 10
202.111
 20
27.8287
 11
202.543
 21
28.0597
  0
LINE
  8
0
 10
202.543
 20
28.0597
 11
203.012
 21
28.202
  0
LINE
  8
0
 10
203.012
 20
28.202
 11
203.5
 21
28.25
  0
LINE
  8
0
 10
203.5
 20
28.25
 11
203.988
 21
28.202
  0
LINE
  8
0
 10
203.988
 20
28.202
 11
204.457
 21
28.0597
  0
LINE
  8
0
 10
204.457
 20
28.0597
 11
204.889
 21
27.8287
  0
LINE
  8
0
 10
204.889
 20
27.8287
 11
205.268
 21
27.5178
  0
LINE
  8
0
 10
205.268
 20
27.5178
 11
205.579
 21
27.1389
  0
LINE
  8
0
 10
205.579
 20
27.1389
 11
205.81
 21
26.7067
  0
LINE
  8
0
 10
205.81
 20
26.7067
 11
205.952
 21
26.2377
  0
LINE
  8
0
 10
205.952
 20
26.2377
 11
206
 21
25.75
  0
LINE
  8
0
 10
206
 20
25.75
 11
205.952
 21
25.2623
  0
LINE
  8
0
 10
205.952
 20
25.2623
 11
205.81
 21
24.7933
  0
LINE
  8
0
 10
205.81
 20
24.7933
 11
205.579
 21
24.3611
  0
LINE
  8
0
 10
205.579
 20
24.3611
 11
205.268
 21
23.9822
  0
LINE
  8
0
 10
205.268
 20
23.9822
 11
204.889
 21
23.6713
  0
LINE
  8
0
 10
204.889
 20
23.6713
 11
204.457
 21
23.4403
  0
LINE
  8
0
 10
204.457
 20
23.4403
 11
203.988
 21
23.298
  0
LINE
  8
0
 10
203.988
 20
23.298
 11
203.5
 21
23.25
  0
LINE
  8
0
 10
203.5
 20
23.25
 11
203.012
 21
23.298
  0
LINE
  8
0
 10
-190.988
 20
10.298
 11
-191.457
 21
10.4403
  0
LINE
  8
0
 10
-191.457
 20
10.4403
 11
-191.889
 21
10.6713
  0
LINE
  8
0
 10
-191.889
 20
10.6713
 11
-192.268
 21
10.9822
  0
LINE
  8
0
 10
-192.268
 20
10.9822
 11
-192.579
 21
11.3611
  0
LINE
  8
0
 10
-192.579
 20
11.3611
 11
-192.81
 21
11.7933
  0
LINE
  8
0
 10
-192.81
 20
11.7933
 11
-192.952
 21
12.2623
  0
LINE
  8
0
 10
-192.952
 20
12.2623
 11
-193
 21
12.75
  0
LINE
  8
0
 10
-193
 20
12.75
 11
-192.952
 21
13.2377
  0
LINE
  8
0
 10
-192.952
 20
13.2377
 11
-192.81
 21
13.7067
  0
LINE
  8
0
 10
-192.81
 20
13.7067
 11
-192.579
 21
14.1389
  0
LINE
  8
0
 10
-192.579
 20
14.1389
 11
-192.268
 21
14.5178
  0
LINE
  8
0
 10
-192.268
 20
14.5178
 11
-191.889
 21
14.8287
  0
LINE
  8
0
 10
-191.889
 20
14.8287
 11
-191.457
 21
15.0597
  0
LINE
  8
0
 10
-191.457
 20
15.0597
 11
-190.988
 21
15.202
  0
LINE
  8
0
 10
-190.988
 20
15.202
 11
-190.5
 21
15.25
  0
LINE
  8
0
 10
-190.5
 20
15.25
 11
-190.012
 21
15.202
  0
LINE
  8
0
 10
-190.012
 20
15.202
 11
-189.543
 21
15.0597
  0
LINE
  8
0
 10
-189.543
 20
15.0597
 11
-189.111
 21
14.8287
  0
LINE
  8
0
 10
-189.111
 20
14.8287
 11
-188.732
 21
14.5178
  0
LINE
  8
0
 10
-188.732
 20
14.5178
 11
-188.421
 21
14.1389
  0
LINE
  8
0
 10
-188.421
 20
14.1389
 11
-188.19
 21
13.7067
  0
LINE
  8
0
 10
-188.19
 20
13.7067
 11
-188.048
 21
13.2377
  0
LINE
  8
0
 10
-188.048
 20
13.2377
 11
-188
 21
12.75
  0
LINE
  8
0
 10
-188
 20
12.75
 11
-188.048
 21
12.2623
  0
LINE
  8
0
 10
-188.048
 20
12.2623
 11
-188.19
 21
11.7933
  0
LINE
  8
0
 10
-188.19
 20
11.7933
 11
-188.421
 21
11.3611
  0
LINE
  8
0
 10
-188.421
 20
11.3611
 11
-188.732
 21
10.9822
  0
LINE
  8
0
 10
-188.732
 20
10.9822
 11
-189.111
 21
10.6713
  0
LINE
  8
0
 10
-189.111
 20
10.6713
 11
-189.543
 21
10.4403
  0
LINE
  8
0
 10
-189.543
 20
10.4403
 11
-190.012
 21
10.298
  0
LINE
  8
0
 10
-190.012
 20
10.298
 11
-190.5
 21
10.25
  0
LINE
  8
0
 10
-190.5
 20
10.25
 11
-190.988
 21
10.298
  0
LINE
  8
0
 10
190.012
 20
10.298
 11
189.543
 21
10.4403
  0
LINE
  8
0
 10
189.543
 20
10.4403
 11
189.111
 21
10.6713
  0
LINE
  8
0
 10
189.111
 20
10.6713
 11
188.732
 21
10.9822
  0
LINE
  8
0
 10
188.732
 20
10.9822
 11
188.421
 21
11.3611
  0
LINE
  8
0
 10
188.421
 20
11.3611
 11
188.19
 21
11.7933
  0
LINE
  8
0
 10
188.19
 20
11.7933
 11
188.048
 21
12.2623
  0
LINE
  8
0
 10
188.048
 20
12.2623
 11
188
 21
12.75
  0
LINE
  8
0
 10
188
 20
12.75
 11
188.048
 21
13.2377
  0
LINE
  8
0
 10
188.048
 20
13.2377
 11
188.19
 21
13.7067
  0
LINE
  8
0
 10
188.19
 20
13.7067
 11
188.421
 21
14.1389
  0
LINE
  8
0
 10
188.421
 20
14.1389
 11
188.732
 21
14.5178
  0
LINE
  8
0
 10
188.732
 20
14.5178
 11
189.111
 21
14.8287
  0
LINE
  8
0
 10
189.111
 20
14.8287
 11
189.543
 21
15.0597
  0
LINE
  8
0
 10
189.543
 20
15.0597
 11
190.012
 21
15.202
  0
LINE
  8
0
 10
190.012
 20
15.202
 11
190.5
 21
15.25
  0
LINE
  8
0
 10
190.5
 20
15.25
 11
190.988
 21
15.202
  0
LINE
  8
0
 10
190.988
 20
15.202
 11
191.457
 21
15.0597
  0
LINE
  8
0
 10
191.457
 20
15.0597
 11
191.889
 21
14.8287
  0
LINE
  8
0
 10
191.889
 20
14.8287
 11
192.268
 21
14.5178
  0
LINE
  8
0
 10
192.268
 20
14.5178
 11
192.579
 21
14.1389
  0
LINE
  8
0
 10
192.579
 20
14.1389
 11
192.81
 21
13.7067
  0
LINE
  8
0
 10
192.81
 20
13.7067
 11
192.952
 21
13.2377
  0
LINE
  8
0
 10
192.952
 20
13.2377
 11
193
 21
12.75
  0
LINE
  8
0
 10
193
 20
12.75
 11
192.952
 21
12.2623
  0
LINE
  8
0
 10
192.952
 20
12.2623
 11
192.81
 21
11.7933
  0
LINE
  8
0
 10
192.81
 20
11.7933
 11
192.579
 21
11.3611
  0
LINE
  8
0
 10
192.579
 20
11.3611
 11
192.268
 21
10.9822
  0
LINE
  8
0
 10
192.268
 20
10.9822
 11
191.889
 21
10.6713
  0
LINE
  8
0
 10
191.889
 20
10.6713
 11
191.457
 21
10.4403
  0
LINE
  8
0
 10
191.457
 20
10.4403
 11
190.988
 21
10.298
  0
LINE
  8
0
 10
190.988
 20
10.298
 11
190.5
 21
10.25
  0
LINE
  8
0
 10
190.5
 20
10.25
 11
190.012
 21
10.298
  0
LINE
  8
0
 10
107.55
 20
-3.2
 11
107.55
 21
3.2
  0
LINE
  8
0
 10
107.55
 20
3.2
 11
122.45
 21
3.2
  0
LINE
  8
0
 10
122.45
 20
3.2
 11
122.45
 21
-3.2
  0
LINE
  8
0
 10
122.45
 20
-3.2
 11
107.55
 21
-3.2
  0
LINE
  8
0
 10
-122.45
 20
-3.2
 11
-122.45
 21
3.2
  0
LINE
  8
0
 10
-122.45
 20
3.2
 11
-107.55
 21
3.2
  0
LINE
  8
0
 10
-107.55
 20
3.2
 11
-107.55
 21
-3.2
  0
LINE
  8
0
 10
-107.55
 20
-3.2
 11
-122.45
 21
-3.2
  0
LINE
  8
0
 10
137.55
 20
-3.2
 11
137.55
 21
3.2
  0
LINE
  8
0
 10
137.55
 20
3.2
 11
152.45
 21
3.2
  0
LINE
  8
0
 10
152.45
 20
3.2
 11
152.45
 21
-3.2
  0
LINE
  8
0
 10
152.45
 20
-3.2
 11
137.55
 21
-3.2
  0
LINE
  8
0
 10
-152.45
 20
-3.2
 11
-152.45
 21
3.2
  0
LINE
  8
0
 10
-152.45
 20
3.2
 11
-137.55
 21
3.2
  0
LINE
  8
0
 10
-137.55
 20
3.2
 11
-137.55
 21
-3.2
  0
LINE
  8
0
 10
-137.55
 20
-3.2
 11
-152.45
 21
-3.2
  0
LINE
  8
0
 10
130
 20
-2.49998
 11
129.512
 21
-2.45195
  0
LINE
  8
0
 10
129.512
 20
-2.45195
 11
129.043
 21
-2.30969
  0
LINE
  8
0
 10
129.043
 20
-2.30969
 11
128.611
 21
-2.07866
  0
LINE
  8
0
 10
128.611
 20
-2.07866
 11
128.232
 21
-1.76776
  0
LINE
  8
0
 10
128.232
 20
-1.76776
 11
127.921
 21
-1.38892
  0
LINE
  8
0
 10
127.921
 20
-1.38892
 11
127.69
 21
-0.956696
  0
LINE
  8
0
 10
127.69
 20
-0.956696
 11
127.548
 21
-0.487717
  0
LINE
  8
0
 10
127.548
 20
-0.487717
 11
127.5
 21
0
  0
LINE
  8
0
 10
127.5
 20
0
 11
127.548
 21
0.487717
  0
LINE
  8
0
 10
127.548
 20
0.487717
 11
127.69
 21
0.956696
  0
LINE
  8
0
 10
127.69
 20
0.956696
 11
127.921
 21
1.38892
  0
LINE
  8
0
 10
127.921
 20
1.38892
 11
128.232
 21
1.76776
  0
LINE
  8
0
 10
128.232
 20
1.76776
 11
128.611
 21
2.07866
  0
LINE
  8
0
 10
128.611
 20
2.07866
 11
129.043
 21
2.30969
  0
LINE
  8
0
 10
129.043
 20
2.30969
 11
129.512
 21
2.45195
  0
LINE
  8
0
 10
129.512
 20
2.45195
 11
130
 21
2.49998
  0
LINE
  8
0
 10
130
 20
2.49998
 11
130.488
 21
2.45195
  0
LINE
  8
0
 10
130.488
 20
2.45195
 11
130.957
 21
2.30969
  0
LINE
  8
0
 10
130.957
 20
2.30969
 11
131.389
 21
2.07866
  0
LINE
  8
0
 10
131.389
 20
2.07866
 11
131.768
 21
1.76776
  0
LINE
  8
0
 10
131.768
 20
1.76776
 11
132.079
 21
1.38892
  0
LINE
  8
0
 10
132.079
 20
1.38892
 11
132.31
 21
0.956696
  0
LINE
  8
0
 10
132.31
 20
0.956696
 11
132.452
 21
0.487717
  0
LINE
  8
0
 10
132.452
 20
0.487717
 11
132.5
 21
0
  0
LINE
  8
0
 10
132.5
 20
0
 11
132.452
 21
-0.487717
  0
LINE
  8
0
 10
132.452
 20
-0.487717
 11
132.31
 21
-0.956696
  0
LINE
  8
0
 10
132.31
 20
-0.956696
 11
132.079
 21
-1.38892
  0
LINE
  8
0
 10
132.079
 20
-1.38892
 11
131.768
 21
-1.76776
  0
LINE
  8
0
 10
131.768
 20
-1.76776
 11
131.389
 21
-2.07866
  0
LINE
  8
0
 10
131.389
 20
-2.07866
 11
130.957
 21
-2.30969
  0
LINE
  8
0
 10
130.957
 20
-2.30969
 11
130.488
 21
-2.45195
  0
LINE
  8
0
 10
130.488
 20
-2.45195
 11
130
 21
-2.49998
  0
LINE
  8
0
 10
-130
 20
-2.49998
 11
-130.488
 21
-2.45195
  0
LINE
  8
0
 10
-130.488
 20
-2.45195
 11
-130.957
 21
-2.30969
  0
LINE
  8
0
 10
-130.957
 20
-2.30969
 11
-131.389
 21
-2.07866
  0
LINE
  8
0
 10
-131.389
 20
-2.07866
 11
-131.768
 21
-1.76776
  0
LINE
  8
0
 10
-131.768
 20
-1.76776
 11
-132.079
 21
-1.38892
  0
LINE
  8
0
 10
-132.079
 20
-1.38892
 11
-132.31
 21
-0.956696
  0
LINE
  8
0
 10
-132.31
 20
-0.956696
 11
-132.452
 21
-0.487717
  0
LINE
  8
0
 10
-132.452
 20
-0.487717
 11
-132.5
 21
0
  0
LINE
  8
0
 10
-132.5
 20
0
 11
-132.452
 21
0.487717
  0
LINE
  8
0
 10
-132.452
 20
0.487717
 11
-132.31
 21
0.956696
  0
LINE
  8
0
 10
-132.31
 20
0.956696
 11
-132.079
 21
1.38892
  0
LINE
  8
0
 10
-132.079
 20
1.38892
 11
-131.768
 21
1.76776
  0
LINE
  8
0
 10
-131.768
 20
1.76776
 11
-131.389
 21
2.07866
  0
LINE
  8
0
 10
-131.389
 20
2.07866
 11
-130.957
 21
2.30969
  0
LINE
  8
0
 10
-130.957
 20
2.30969
 11
-130.488
 21
2.45195
  0
LINE
  8
0
 10
-130.488
 20
2.45195
 11
-130
 21
2.49998
  0
LINE
  8
0
 10
-130
 20
2.49998
 11
-129.512
 21
2.45195
  0
LINE
  8
0
 10
-129.512
 20
2.45195
 11
-129.043
 21
2.30969
  0
LINE
  8
0
 10
-129.043
 20
2.30969
 11
-128.611
 21
2.07866
  0
LINE
  8
0
 10
-128.611
 20
2.07866
 11
-128.232
 21
1.76776
  0
LINE
  8
0
 10
-128.232
 20
1.76776
 11
-127.921
 21
1.38892
  0
LINE
  8
0
 10
-127.921
 20
1.38892
 11
-127.69
 21
0.956696
  0
LINE
  8
0
 10
-127.69
 20
0.956696
 11
-127.548
 21
0.487717
  0
LINE
  8
0
 10
-127.548
 20
0.487717
 11
-127.5
 21
0
  0
LINE
  8
0
 10
-127.5
 20
0
 11
-127.548
 21
-0.487717
  0
LINE
  8
0
 10
-127.548
 20
-0.487717
 11
-127.69
 21
-0.956696
  0
LINE
  8
0
 10
-127.69
 20
-0.956696
 11
-127.921
 21
-1.38892
  0
LINE
  8
0
 10
-127.921
 20
-1.38892
 11
-128.232
 21
-1.76776
  0
LINE
  8
0
 10
-128.232
 20
-1.76776
 11
-128.611
 21
-2.07866
  0
LINE
  8
0
 10
-128.611
 20
-2.07866
 11
-129.043
 21
-2.30969
  0
LINE
  8
0
 10
-129.043
 20
-2.30969
 11
-129.512
 21
-2.45195
  0
LINE
  8
0
 10
-129.512
 20
-2.45195
 11
-130
 21
-2.49998
  0
LINE
  8
0
 10
-236.45
 20
-12.7
 11
-236.45
 21
2.2
  0
LINE
  8
0
 10
-236.45
 20
2.2
 11
-230.05
 21
2.2
  0
LINE
  8
0
 10
-230.05
 20
2.2
 11
-230.05
 21
-12.7
  0
LINE
  8
0
 10
-230.05
 20
-12.7
 11
-236.45
 21
-12.7
  0
LINE
  8
0
 10
230.05
 20
-12.7
 11
230.05
 21
2.2
  0
LINE
  8
0
 10
230.05
 20
2.2
 11
236.45
 21
2.2
  0
LINE
  8
0
 10
236.45
 20
2.2
 11
236.45
 21
-12.7
  0
LINE
  8
0
 10
236.45
 20
-12.7
 11
230.05
 21
-12.7
  0
LINE
  8
0
 10
-220.488
 20
-12.202
 11
-220.957
 21
-12.0597
  0
LINE
  8
0
 10
-220.957
 20
-12.0597
 11
-221.389
 21
-11.8287
  0
LINE
  8
0
 10
-221.389
 20
-11.8287
 11
-221.768
 21
-11.5178
  0
LINE
  8
0
 10
-221.768
 20
-11.5178
 11
-222.079
 21
-11.1389
  0
LINE
  8
0
 10
-222.079
 20
-11.1389
 11
-222.31
 21
-10.7067
  0
LINE
  8
0
 10
-222.31
 20
-10.7067
 11
-222.452
 21
-10.2377
  0
LINE
  8
0
 10
-222.452
 20
-10.2377
 11
-222.5
 21
-9.75
  0
LINE
  8
0
 10
-222.5
 20
-9.75
 11
-222.452
 21
-9.26227
  0
LINE
  8
0
 10
-222.452
 20
-9.26227
 11
-222.31
 21
-8.79329
  0
LINE
  8
0
 10
-222.31
 20
-8.79329
 11
-222.079
 21
-8.36107
  0
LINE
  8
0
 10
-222.079
 20
-8.36107
 11
-221.768
 21
-7.98222
  0
LINE
  8
0
 10
-221.768
 20
-7.98222
 11
-221.389
 21
-7.67133
  0
LINE
  8
0
 10
-221.389
 20
-7.67133
 11
-220.957
 21
-7.44029
  0
LINE
  8
0
 10
-220.957
 20
-7.44029
 11
-220.488
 21
-7.29803
  0
LINE
  8
0
 10
-220.488
 20
-7.29803
 11
-220
 21
-7.25
  0
LINE
  8
0
 10
-220
 20
-7.25
 11
-219.512
 21
-7.29803
  0
LINE
  8
0
 10
-219.512
 20
-7.29803
 11
-219.043
 21
-7.44029
  0
LINE
  8
0
 10
-219.043
 20
-7.44029
 11
-218.611
 21
-7.67133
  0
LINE
  8
0
 10
-218.611
 20
-7.67133
 11
-218.232
 21
-7.98222
  0
LINE
  8
0
 10
-218.232
 20
-7.98222
 11
-217.921
 21
-8.36107
  0
LINE
  8
0
 10
-217.921
 20
-8.36107
 11
-217.69
 21
-8.79329
  0
LINE
  8
0
 10
-217.69
 20
-8.79329
 11
-217.548
 21
-9.26227
  0
LINE
  8
0
 10
-217.548
 20
-9.26227
 11
-217.5
 21
-9.75
  0
LINE
  8
0
 10
-217.5
 20
-9.75
 11
-217.548
 21
-10.2377
  0
LINE
  8
0
 10
-217.548
 20
-10.2377
 11
-217.69
 21
-10.7067
  0
LINE
  8
0
 10
-217.69
 20
-10.7067
 11
-217.921
 21
-11.1389
  0
LINE
  8
0
 10
-217.921
 20
-11.1389
 11
-218.232
 21
-11.5178
  0
LINE
  8
0
 10
-218.232
 20
-11.5178
 11
-218.611
 21
-11.8287
  0
LINE
  8
0
 10
-218.611
 20
-11.8287
 11
-219.043
 21
-12.0597
  0
LINE
  8
0
 10
-219.043
 20
-12.0597
 11
-219.512
 21
-12.202
  0
LINE
  8
0
 10
-219.512
 20
-12.202
 11
-220
 21
-12.25
  0
LINE
  8
0
 10
-220
 20
-12.25
 11
-220.488
 21
-12.202
  0
LINE
  8
0
 10
219.512
 20
-12.202
 11
219.043
 21
-12.0597
  0
LINE
  8
0
 10
219.043
 20
-12.0597
 11
218.611
 21
-11.8287
  0
LINE
  8
0
 10
218.611
 20
-11.8287
 11
218.232
 21
-11.5178
  0
LINE
  8
0
 10
218.232
 20
-11.5178
 11
217.921
 21
-11.1389
  0
LINE
  8
0
 10
217.921
 20
-11.1389
 11
217.69
 21
-10.7067
  0
LINE
  8
0
 10
217.69
 20
-10.7067
 11
217.548
 21
-10.2377
  0
LINE
  8
0
 10
217.548
 20
-10.2377
 11
217.5
 21
-9.75
  0
LINE
  8
0
 10
217.5
 20
-9.75
 11
217.548
 21
-9.26227
  0
LINE
  8
0
 10
217.548
 20
-9.26227
 11
217.69
 21
-8.79329
  0
LINE
  8
0
 10
217.69
 20
-8.79329
 11
217.921
 21
-8.36107
  0
LINE
  8
0
 10
217.921
 20
-8.36107
 11
218.232
 21
-7.98222
  0
LINE
  8
0
 10
218.232
 20
-7.98222
 11
218.611
 21
-7.67133
  0
LINE
  8
0
 10
218.611
 20
-7.67133
 11
219.043
 21
-7.44029
  0
LINE
  8
0
 10
219.043
 20
-7.44029
 11
219.512
 21
-7.29803
  0
LINE
  8
0
 10
219.512
 20
-7.29803
 11
220
 21
-7.25
  0
LINE
  8
0
 10
220
 20
-7.25
 11
220.488
 21
-7.29803
  0
LINE
  8
0
 10
220.488
 20
-7.29803
 11
220.957
 21
-7.44029
  0
LINE
  8
0
 10
220.957
 20
-7.44029
 11
221.389
 21
-7.67133
  0
LINE
  8
0
 10
221.389
 20
-7.67133
 11
221.768
 21
-7.98222
  0
LINE
  8
0
 10
221.768
 20
-7.98222
 11
222.079
 21
-8.36107
  0
LINE
  8
0
 10
222.079
 20
-8.36107
 11
222.31
 21
-8.79329
  0
LINE
  8
0
 10
222.31
 20
-8.79329
 11
222.452
 21
-9.26227
  0
LINE
  8
0
 10
222.452
 20
-9.26227
 11
222.5
 21
-9.75
  0
LINE
  8
0
 10
222.5
 20
-9.75
 11
222.452
 21
-10.2377
  0
LINE
  8
0
 10
222.452
 20
-10.2377
 11
222.31
 21
-10.7067
  0
LINE
  8
0
 10
222.31
 20
-10.7067
 11
222.079
 21
-11.1389
  0
LINE
  8
0
 10
222.079
 20
-11.1389
 11
221.768
 21
-11.5178
  0
LINE
  8
0
 10
221.768
 20
-11.5178
 11
221.389
 21
-11.8287
  0
LINE
  8
0
 10
221.389
 20
-11.8287
 11
220.957
 21
-12.0597
  0
LINE
  8
0
 10
220.957
 20
-12.0597
 11
220.488
 21
-12.202
  0
LINE
  8
0
 10
220.488
 20
-12.202
 11
220
 21
-12.25
  0
LINE
  8
0
 10
220
 20
-12.25
 11
219.512
 21
-12.202
  0
LINE
  8
0
 10
-233.738
 20
-22.702
 11
-234.207
 21
-22.5597
  0
LINE
  8
0
 10
-234.207
 20
-22.5597
 11
-234.639
 21
-22.3287
  0
LINE
  8
0
 10
-234.639
 20
-22.3287
 11
-235.018
 21
-22.0178
  0
LINE
  8
0
 10
-235.018
 20
-22.0178
 11
-235.329
 21
-21.6389
  0
LINE
  8
0
 10
-235.329
 20
-21.6389
 11
-235.56
 21
-21.2067
  0
LINE
  8
0
 10
-235.56
 20
-21.2067
 11
-235.702
 21
-20.7377
  0
LINE
  8
0
 10
-235.702
 20
-20.7377
 11
-235.75
 21
-20.25
  0
LINE
  8
0
 10
-235.75
 20
-20.25
 11
-235.702
 21
-19.7623
  0
LINE
  8
0
 10
-235.702
 20
-19.7623
 11
-235.56
 21
-19.2933
  0
LINE
  8
0
 10
-235.56
 20
-19.2933
 11
-235.329
 21
-18.8611
  0
LINE
  8
0
 10
-235.329
 20
-18.8611
 11
-235.018
 21
-18.4822
  0
LINE
  8
0
 10
-235.018
 20
-18.4822
 11
-234.639
 21
-18.1713
  0
LINE
  8
0
 10
-234.639
 20
-18.1713
 11
-234.207
 21
-17.9403
  0
LINE
  8
0
 10
-234.207
 20
-17.9403
 11
-233.738
 21
-17.798
  0
LINE
  8
0
 10
-233.738
 20
-17.798
 11
-233.25
 21
-17.75
  0
LINE
  8
0
 10
-233.25
 20
-17.75
 11
-232.762
 21
-17.798
  0
LINE
  8
0
 10
-232.762
 20
-17.798
 11
-232.293
 21
-17.9403
  0
LINE
  8
0
 10
-232.293
 20
-17.9403
 11
-231.861
 21
-18.1713
  0
LINE
  8
0
 10
-231.861
 20
-18.1713
 11
-231.482
 21
-18.4822
  0
LINE
  8
0
 10
-231.482
 20
-18.4822
 11
-231.171
 21
-18.8611
  0
LINE
  8
0
 10
-231.171
 20
-18.8611
 11
-230.94
 21
-19.2933
  0
LINE
  8
0
 10
-230.94
 20
-19.2933
 11
-230.798
 21
-19.7623
  0
LINE
  8
0
 10
-230.798
 20
-19.7623
 11
-230.75
 21
-20.25
  0
LINE
  8
0
 10
-230.75
 20
-20.25
 11
-230.798
 21
-20.7377
  0
LINE
  8
0
 10
-230.798
 20
-20.7377
 11
-230.94
 21
-21.2067
  0
LINE
  8
0
 10
-230.94
 20
-21.2067
 11
-231.171
 21
-21.6389
  0
LINE
  8
0
 10
-231.171
 20
-21.6389
 11
-231.482
 21
-22.0178
  0
LINE
  8
0
 10
-231.482
 20
-22.0178
 11
-231.861
 21
-22.3287
  0
LINE
  8
0
 10
-231.861
 20
-22.3287
 11
-232.293
 21
-22.5597
  0
LINE
  8
0
 10
-232.293
 20
-22.5597
 11
-232.762
 21
-22.702
  0
LINE
  8
0
 10
-232.762
 20
-22.702
 11
-233.25
 21
-22.75
  0
LINE
  8
0
 10
-233.25
 20
-22.75
 11
-233.738
 21
-22.702
  0
LINE
  8
0
 10
232.762
 20
-22.702
 11
232.293
 21
-22.5597
  0
LINE
  8
0
 10
232.293
 20
-22.5597
 11
231.861
 21
-22.3287
  0
LINE
  8
0
 10
231.861
 20
-22.3287
 11
231.482
 21
-22.0178
  0
LINE
  8
0
 10
231.482
 20
-22.0178
 11
231.171
 21
-21.6389
  0
LINE
  8
0
 10
231.171
 20
-21.6389
 11
230.94
 21
-21.2067
  0
LINE
  8
0
 10
230.94
 20
-21.2067
 11
230.798
 21
-20.7377
  0
LINE
  8
0
 10
230.798
 20
-20.7377
 11
230.75
 21
-20.25
  0
LINE
  8
0
 10
230.75
 20
-20.25
 11
230.798
 21
-19.7623
  0
LINE
  8
0
 10
230.798
 20
-19.7623
 11
230.94
 21
-19.2933
  0
LINE
  8
0
 10
230.94
 20
-19.2933
 11
231.171
 21
-18.8611
  0
LINE
  8
0
 10
231.171
 20
-18.8611
 11
231.482
 21
-18.4822
  0
LINE
  8
0
 10
231.482
 20
-18.4822
 11
231.861
 21
-18.1713
  0
LINE
  8
0
 10
231.861
 20
-18.1713
 11
232.293
 21
-17.9403
  0
LINE
  8
0
 10
232.293
 20
-17.9403
 11
232.762
 21
-17.798
  0
LINE
  8
0
 10
232.762
 20
-17.798
 11
233.25
 21
-17.75
  0
LINE
  8
0
 10
233.25
 20
-17.75
 11
233.738
 21
-17.798
  0
LINE
  8
0
 10
233.738
 20
-17.798
 11
234.207
 21
-17.9403
  0
LINE
  8
0
 10
234.207
 20
-17.9403
 11
234.639
 21
-18.1713
  0
LINE
  8
0
 10
234.639
 20
-18.1713
 11
235.018
 21
-18.4822
  0
LINE
  8
0
 10
235.018
 20
-18.4822
 11
235.329
 21
-18.8611
  0
LINE
  8
0
 10
235.329
 20
-18.8611
 11
235.56
 21
-19.2933
  0
LINE
  8
0
 10
235.56
 20
-19.2933
 11
235.702
 21
-19.7623
  0
LINE
  8
0
 10
235.702
 20
-19.7623
 11
235.75
 21
-20.25
  0
LINE
  8
0
 10
235.75
 20
-20.25
 11
235.702
 21
-20.7377
  0
LINE
  8
0
 10
235.702
 20
-20.7377
 11
235.56
 21
-21.2067
  0
LINE
  8
0
 10
235.56
 20
-21.2067
 11
235.329
 21
-21.6389
  0
LINE
  8
0
 10
235.329
 20
-21.6389
 11
235.018
 21
-22.0178
  0
LINE
  8
0
 10
235.018
 20
-22.0178
 11
234.639
 21
-22.3287
  0
LINE
  8
0
 10
234.639
 20
-22.3287
 11
234.207
 21
-22.5597
  0
LINE
  8
0
 10
234.207
 20
-22.5597
 11
233.738
 21
-22.702
  0
LINE
  8
0
 10
233.738
 20
-22.702
 11
233.25
 21
-22.75
  0
LINE
  8
0
 10
233.25
 20
-22.75
 11
232.762
 21
-22.702
  0
LINE
  8
0
 10
137.55
 20
-29.7
 11
137.55
 21
-23.3
  0
LINE
  8
0
 10
137.55
 20
-23.3
 11
148.304
 21
-23.3
  0
LINE
  8
0
 10
148.304
 20
-23.3
 11
148.304
 21
-20.7942
  0
LINE
  8
0
 10
148.304
 20
-20.7942
 11
148.407
 21
-20.3214
  0
LINE
  8
0
 10
148.407
 20
-20.3214
 11
148.639
 21
-19.8967
  0
LINE
  8
0
 10
148.639
 20
-19.8967
 11
148.981
 21
-19.5546
  0
LINE
  8
0
 10
148.981
 20
-19.5546
 11
149.406
 21
-19.3227
  0
LINE
  8
0
 10
149.406
 20
-19.3227
 11
149.879
 21
-19.2198
  0
LINE
  8
0
 10
149.879
 20
-19.2198
 11
150.361
 21
-19.2543
  0
LINE
  8
0
 10
150.361
 20
-19.2543
 11
150.815
 21
-19.4234
  0
LINE
  8
0
 10
150.815
 20
-19.4234
 11
151.202
 21
-19.7134
  0
LINE
  8
0
 10
151.202
 20
-19.7134
 11
151.492
 21
-20.1008
  0
LINE
  8
0
 10
151.492
 20
-20.1008
 11
151.661
 21
-20.5541
  0
LINE
  8
0
 10
151.661
 20
-20.5541
 11
151.696
 21
-21.0367
  0
LINE
  8
0
 10
151.696
 20
-21.0367
 11
151.696
 21
-23.3
  0
LINE
  8
0
 10
151.696
 20
-23.3
 11
152.45
 21
-23.3
  0
LINE
  8
0
 10
152.45
 20
-23.3
 11
152.45
 21
-29.7
  0
LINE
  8
0
 10
152.45
 20
-29.7
 11
137.55
 21
-29.7
  0
LINE
  8
0
 10
-152.45
 20
-29.7
 11
-152.45
 21
-23.3
  0
LINE
  8
0
 10
-152.45
 20
-23.3
 11
-151.696
 21
-23.3
  0
LINE
  8
0
 10
-151.696
 20
-23.3
 11
-151.696
 21
-20.7942
  0
LINE
  8
0
 10
-151.696
 20
-20.7942
 11
-151.593
 21
-20.3214
  0
LINE
  8
0
 10
-151.593
 20
-20.3214
 11
-151.361
 21
-19.8967
  0
LINE
  8
0
 10
-151.361
 20
-19.8967
 11
-151.019
 21
-19.5546
  0
LINE
  8
0
 10
-151.019
 20
-19.5546
 11
-150.594
 21
-19.3227
  0
LINE
  8
0
 10
-150.594
 20
-19.3227
 11
-150.121
 21
-19.2198
  0
LINE
  8
0
 10
-150.121
 20
-19.2198
 11
-149.639
 21
-19.2543
  0
LINE
  8
0
 10
-149.639
 20
-19.2543
 11
-149.185
 21
-19.4234
  0
LINE
  8
0
 10
-149.185
 20
-19.4234
 11
-148.798
 21
-19.7134
  0
LINE
  8
0
 10
-148.798
 20
-19.7134
 11
-148.508
 21
-20.1008
  0
LINE
  8
0
 10
-148.508
 20
-20.1008
 11
-148.339
 21
-20.5541
  0
LINE
  8
0
 10
-148.339
 20
-20.5541
 11
-148.304
 21
-21.0367
  0
LINE
  8
0
 10
-148.304
 20
-21.0367
 11
-148.304
 21
-23.3
  0
LINE
  8
0
 10
-148.304
 20
-23.3
 11
-137.55
 21
-23.3
  0
LINE
  8
0
 10
-137.55
 20
-23.3
 11
-137.55
 21
-29.7
  0
LINE
  8
0
 10
-137.55
 20
-29.7
 11
-152.45
 21
-29.7
  0
LINE
  8
0
 10
0
 20
-29
 11
-0.487717
 21
-28.952
  0
LINE
  8
0
 10
-0.487717
 20
-28.952
 11
-0.956696
 21
-28.8097
  0
LINE
  8
0
 10
-0.956696
 20
-28.8097
 11
-1.38892
 21
-28.5787
  0
LINE
  8
0
 10
-1.38892
 20
-28.5787
 11
-1.76776
 21
-28.2678
  0
LINE
  8
0
 10
-1.76776
 20
-28.2678
 11
-2.07866
 21
-27.8889
  0
LINE
  8
0
 10
-2.07866
 20
-27.8889
 11
-2.30969
 21
-27.4567
  0
LINE
  8
0
 10
-2.30969
 20
-27.4567
 11
-2.45195
 21
-26.9877
  0
LINE
  8
0
 10
-2.45195
 20
-26.9877
 11
-2.5
 21
-26.5
  0
LINE
  8
0
 10
-2.5
 20
-26.5
 11
-2.45195
 21
-26.0123
  0
LINE
  8
0
 10
-2.45195
 20
-26.0123
 11
-2.30969
 21
-25.5433
  0
LINE
  8
0
 10
-2.30969
 20
-25.5433
 11
-2.07866
 21
-25.1111
  0
LINE
  8
0
 10
-2.07866
 20
-25.1111
 11
-1.76776
 21
-24.7322
  0
LINE
  8
0
 10
-1.76776
 20
-24.7322
 11
-1.50708
 21
-24.5183
  0
LINE
  8
0
 10
-1.50708
 20
-24.5183
 11
-1.66115
 21
-24.1053
  0
LINE
  8
0
 10
-1.66115
 20
-24.1053
 11
-1.69566
 21
-23.6226
  0
LINE
  8
0
 10
-1.69566
 20
-23.6226
 11
-1.69566
 21
-20.7942
  0
LINE
  8
0
 10
-1.69566
 20
-20.7942
 11
-1.5928
 21
-20.3214
  0
LINE
  8
0
 10
-1.5928
 20
-20.3214
 11
-1.36092
 21
-19.8967
  0
LINE
  8
0
 10
-1.36092
 20
-19.8967
 11
-1.01877
 21
-19.5546
  0
LINE
  8
0
 10
-1.01877
 20
-19.5546
 11
-0.594086
 21
-19.3227
  0
LINE
  8
0
 10
-0.594086
 20
-19.3227
 11
-0.121262
 21
-19.2198
  0
LINE
  8
0
 10
-0.121262
 20
-19.2198
 11
0.361359
 21
-19.2543
  0
LINE
  8
0
 10
0.361359
 20
-19.2543
 11
0.814713
 21
-19.4234
  0
LINE
  8
0
 10
0.814713
 20
-19.4234
 11
1.20207
 21
-19.7134
  0
LINE
  8
0
 10
1.20207
 20
-19.7134
 11
1.49205
 21
-20.1008
  0
LINE
  8
0
 10
1.49205
 20
-20.1008
 11
1.66115
 21
-20.5541
  0
LINE
  8
0
 10
1.66115
 20
-20.5541
 11
1.69566
 21
-21.0367
  0
LINE
  8
0
 10
1.69566
 20
-21.0367
 11
1.69566
 21
-23.8652
  0
LINE
  8
0
 10
1.69566
 20
-23.8652
 11
1.5928
 21
-24.338
  0
LINE
  8
0
 10
1.5928
 20
-24.338
 11
1.49829
 21
-24.5111
  0
LINE
  8
0
 10
1.49829
 20
-24.5111
 11
1.76776
 21
-24.7322
  0
LINE
  8
0
 10
1.76776
 20
-24.7322
 11
2.07866
 21
-25.1111
  0
LINE
  8
0
 10
2.07866
 20
-25.1111
 11
2.30969
 21
-25.5433
  0
LINE
  8
0
 10
2.30969
 20
-25.5433
 11
2.45195
 21
-26.0123
  0
LINE
  8
0
 10
2.45195
 20
-26.0123
 11
2.5
 21
-26.5
  0
LINE
  8
0
 10
2.5
 20
-26.5
 11
2.45195
 21
-26.9877
  0
LINE
  8
0
 10
2.45195
 20
-26.9877
 11
2.30969
 21
-27.4567
  0
LINE
  8
0
 10
2.30969
 20
-27.4567
 11
2.07866
 21
-27.8889
  0
LINE
  8
0
 10
2.07866
 20
-27.8889
 11
1.76776
 21
-28.2678
  0
LINE
  8
0
 10
1.76776
 20
-28.2678
 11
1.38892
 21
-28.5787
  0
LINE
  8
0
 10
1.38892
 20
-28.5787
 11
0.956696
 21
-28.8097
  0
LINE
  8
0
 10
0.956696
 20
-28.8097
 11
0.487717
 21
-28.952
  0
LINE
  8
0
 10
0.487717
 20
-28.952
 11
0
 21
-29
  0
LINE
  8
0
 10
7.54999
 20
-29.7
 11
7.54999
 21
-23.3
  0
LINE
  8
0
 10
7.54999
 20
-23.3
 11
22.45
 21
-23.3
  0
LINE
  8
0
 10
22.45
 20
-23.3
 11
22.45
 21
-29.7
  0
LINE
  8
0
 10
22.45
 20
-29.7
 11
7.54999
 21
-29.7
  0
LINE
  8
0
 10
107.55
 20
-29.7
 11
107.55
 21
-23.3
  0
LINE
  8
0
 10
107.55
 20
-23.3
 11
122.45
 21
-23.3
  0
LINE
  8
0
 10
122.45
 20
-23.3
 11
122.45
 21
-29.7
  0
LINE
  8
0
 10
122.45
 20
-29.7
 11
107.55
 21
-29.7
  0
LINE
  8
0
 10
-22.45
 20
-29.7
 11
-22.45
 21
-23.3
  0
LINE
  8
0
 10
-22.45
 20
-23.3
 11
-7.54999
 21
-23.3
  0
LINE
  8
0
 10
-7.54999
 20
-23.3
 11
-7.54999
 21
-29.7
  0
LINE
  8
0
 10
-7.54999
 20
-29.7
 11
-22.45
 21
-29.7
  0
LINE
  8
0
 10
-122.45
 20
-29.7
 11
-122.45
 21
-23.3
  0
LINE
  8
0
 10
-122.45
 20
-23.3
 11
-107.55
 21
-23.3
  0
LINE
  8
0
 10
-107.55
 20
-23.3
 11
-107.55
 21
-29.7
  0
LINE
  8
0
 10
-107.55
 20
-29.7
 11
-122.45
 21
-29.7
  0
LINE
  8
0
 10
130
 20
-29
 11
129.512
 21
-28.952
  0
LINE
  8
0
 10
129.512
 20
-28.952
 11
129.043
 21
-28.8097
  0
LINE
  8
0
 10
129.043
 20
-28.8097
 11
128.611
 21
-28.5787
  0
LINE
  8
0
 10
128.611
 20
-28.5787
 11
128.232
 21
-28.2678
  0
LINE
  8
0
 10
128.232
 20
-28.2678
 11
127.921
 21
-27.8889
  0
LINE
  8
0
 10
127.921
 20
-27.8889
 11
127.69
 21
-27.4567
  0
LINE
  8
0
 10
127.69
 20
-27.4567
 11
127.548
 21
-26.9877
  0
LINE
  8
0
 10
127.548
 20
-26.9877
 11
127.5
 21
-26.5
  0
LINE
  8
0
 10
127.5
 20
-26.5
 11
127.548
 21
-26.0123
  0
LINE
  8
0
 10
127.548
 20
-26.0123
 11
127.69
 21
-25.5433
  0
LINE
  8
0
 10
127.69
 20
-25.5433
 11
127.921
 21
-25.1111
  0
LINE
  8
0
 10
127.921
 20
-25.1111
 11
128.232
 21
-24.7322
  0
LINE
  8
0
 10
128.232
 20
-24.7322
 11
128.611
 21
-24.4213
  0
LINE
  8
0
 10
128.611
 20
-24.4213
 11
129.043
 21
-24.1903
  0
LINE
  8
0
 10
129.043
 20
-24.1903
 11
129.512
 21
-24.048
  0
LINE
  8
0
 10
129.512
 20
-24.048
 11
130
 21
-24
  0
LINE
  8
0
 10
130
 20
-24
 11
130.488
 21
-24.048
  0
LINE
  8
0
 10
130.488
 20
-24.048
 11
130.957
 21
-24.1903
  0
LINE
  8
0
 10
130.957
 20
-24.1903
 11
131.389
 21
-24.4213
  0
LINE
  8
0
 10
131.389
 20
-24.4213
 11
131.768
 21
-24.7322
  0
LINE
  8
0
 10
131.768
 20
-24.7322
 11
132.079
 21
-25.1111
  0
LINE
  8
0
 10
132.079
 20
-25.1111
 11
132.31
 21
-25.5433
  0
LINE
  8
0
 10
132.31
 20
-25.5433
 11
132.452
 21
-26.0123
  0
LINE
  8
0
 10
132.452
 20
-26.0123
 11
132.5
 21
-26.5
  0
LINE
  8
0
 10
132.5
 20
-26.5
 11
132.452
 21
-26.9877
  0
LINE
  8
0
 10
132.452
 20
-26.9877
 11
132.31
 21
-27.4567
  0
LINE
  8
0
 10
132.31
 20
-27.4567
 11
132.079
 21
-27.8889
  0
LINE
  8
0
 10
132.079
 20
-27.8889
 11
131.768
 21
-28.2678
  0
LINE
  8
0
 10
131.768
 20
-28.2678
 11
131.389
 21
-28.5787
  0
LINE
  8
0
 10
131.389
 20
-28.5787
 11
130.957
 21
-28.8097
  0
LINE
  8
0
 10
130.957
 20
-28.8097
 11
130.488
 21
-28.952
  0
LINE
  8
0
 10
130.488
 20
-28.952
 11
130
 21
-29
  0
LINE
  8
0
 10
-130
 20
-29
 11
-130.488
 21
-28.952
  0
LINE
  8
0
 10
-130.488
 20
-28.952
 11
-130.957
 21
-28.8097
  0
LINE
  8
0
 10
-130.957
 20
-28.8097
 11
-131.389
 21
-28.5787
  0
LINE
  8
0
 10
-131.389
 20
-28.5787
 11
-131.768
 21
-28.2678
  0
LINE
  8
0
 10
-131.768
 20
-28.2678
 11
-132.079
 21
-27.8889
  0
LINE
  8
0
 10
-132.079
 20
-27.8889
 11
-132.31
 21
-27.4567
  0
LINE
  8
0
 10
-132.31
 20
-27.4567
 11
-132.452
 21
-26.9877
  0
LINE
  8
0
 10
-132.452
 20
-26.9877
 11
-132.5
 21
-26.5
  0
LINE
  8
0
 10
-132.5
 20
-26.5
 11
-132.452
 21
-26.0123
  0
LINE
  8
0
 10
-132.452
 20
-26.0123
 11
-132.31
 21
-25.5433
  0
LINE
  8
0
 10
-132.31
 20
-25.5433
 11
-132.079
 21
-25.1111
  0
LINE
  8
0
 10
-132.079
 20
-25.1111
 11
-131.768
 21
-24.7322
  0
LINE
  8
0
 10
-131.768
 20
-24.7322
 11
-131.389
 21
-24.4213
  0
LINE
  8
0
 10
-131.389
 20
-24.4213
 11
-130.957
 21
-24.1903
  0
LINE
  8
0
 10
-130.957
 20
-24.1903
 11
-130.488
 21
-24.048
  0
LINE
  8
0
 10
-130.488
 20
-24.048
 11
-130
 21
-24
  0
LINE
  8
0
 10
-130
 20
-24
 11
-129.512
 21
-24.048
  0
LINE
  8
0
 10
-129.512
 20
-24.048
 11
-129.043
 21
-24.1903
  0
LINE
  8
0
 10
-129.043
 20
-24.1903
 11
-128.611
 21
-24.4213
  0
LINE
  8
0
 10
-128.611
 20
-24.4213
 11
-128.232
 21
-24.7322
  0
LINE
  8
0
 10
-128.232
 20
-24.7322
 11
-127.921
 21
-25.1111
  0
LINE
  8
0
 10
-127.921
 20
-25.1111
 11
-127.69
 21
-25.5433
  0
LINE
  8
0
 10
-127.69
 20
-25.5433
 11
-127.548
 21
-26.0123
  0
LINE
  8
0
 10
-127.548
 20
-26.0123
 11
-127.5
 21
-26.5
  0
LINE
  8
0
 10
-127.5
 20
-26.5
 11
-127.548
 21
-26.9877
  0
LINE
  8
0
 10
-127.548
 20
-26.9877
 11
-127.69
 21
-27.4567
  0
LINE
  8
0
 10
-127.69
 20
-27.4567
 11
-127.921
 21
-27.8889
  0
LINE
  8
0
 10
-127.921
 20
-27.8889
 11
-128.232
 21
-28.2678
  0
LINE
  8
0
 10
-128.232
 20
-28.2678
 11
-128.611
 21
-28.5787
  0
LINE
  8
0
 10
-128.611
 20
-28.5787
 11
-129.043
 21
-28.8097
  0
LINE
  8
0
 10
-129.043
 20
-28.8097
 11
-129.512
 21
-28.952
  0
LINE
  8
0
 10
-129.512
 20
-28.952
 11
-130
 21
-29
  0
LINE
  8
0
 10
-236.45
 20
-42.7
 11
-236.45
 21
-27.8
  0
LINE
  8
0
 10
-236.45
 20
-27.8
 11
-230.05
 21
-27.8
  0
LINE
  8
0
 10
-230.05
 20
-27.8
 11
-230.05
 21
-42.7
  0
LINE
  8
0
 10
-230.05
 20
-42.7
 11
-236.45
 21
-42.7
  0
LINE
  8
0
 10
230.05
 20
-42.7
 11
230.05
 21
-27.8
  0
LINE
  8
0
 10
230.05
 20
-27.8
 11
236.45
 21
-27.8
  0
LINE
  8
0
 10
236.45
 20
-27.8
 11
236.45
 21
-42.7
  0
LINE
  8
0
 10
236.45
 20
-42.7
 11
230.05
 21
-42.7
  0
LINE
  8
0
 10
-220.488
 20
-39.702
 11
-220.957
 21
-39.5597
  0
LINE
  8
0
 10
-220.957
 20
-39.5597
 11
-221.389
 21
-39.3287
  0
LINE
  8
0
 10
-221.389
 20
-39.3287
 11
-221.768
 21
-39.0178
  0
LINE
  8
0
 10
-221.768
 20
-39.0178
 11
-222.079
 21
-38.6389
  0
LINE
  8
0
 10
-222.079
 20
-38.6389
 11
-222.31
 21
-38.2067
  0
LINE
  8
0
 10
-222.31
 20
-38.2067
 11
-222.452
 21
-37.7377
  0
LINE
  8
0
 10
-222.452
 20
-37.7377
 11
-222.5
 21
-37.25
  0
LINE
  8
0
 10
-222.5
 20
-37.25
 11
-222.452
 21
-36.7623
  0
LINE
  8
0
 10
-222.452
 20
-36.7623
 11
-222.31
 21
-36.2933
  0
LINE
  8
0
 10
-222.31
 20
-36.2933
 11
-222.079
 21
-35.8611
  0
LINE
  8
0
 10
-222.079
 20
-35.8611
 11
-221.768
 21
-35.4822
  0
LINE
  8
0
 10
-221.768
 20
-35.4822
 11
-221.389
 21
-35.1713
  0
LINE
  8
0
 10
-221.389
 20
-35.1713
 11
-220.957
 21
-34.9403
  0
LINE
  8
0
 10
-220.957
 20
-34.9403
 11
-220.488
 21
-34.798
  0
LINE
  8
0
 10
-220.488
 20
-34.798
 11
-220
 21
-34.75
  0
LINE
  8
0
 10
-220
 20
-34.75
 11
-219.512
 21
-34.798
  0
LINE
  8
0
 10
-219.512
 20
-34.798
 11
-219.043
 21
-34.9403
  0
LINE
  8
0
 10
-219.043
 20
-34.9403
 11
-218.611
 21
-35.1713
  0
LINE
  8
0
 10
-218.611
 20
-35.1713
 11
-218.232
 21
-35.4822
  0
LINE
  8
0
 10
-218.232
 20
-35.4822
 11
-217.921
 21
-35.8611
  0
LINE
  8
0
 10
-217.921
 20
-35.8611
 11
-217.69
 21
-36.2933
  0
LINE
  8
0
 10
-217.69
 20
-36.2933
 11
-217.548
 21
-36.7623
  0
LINE
  8
0
 10
-217.548
 20
-36.7623
 11
-217.5
 21
-37.25
  0
LINE
  8
0
 10
-217.5
 20
-37.25
 11
-217.548
 21
-37.7377
  0
LINE
  8
0
 10
-217.548
 20
-37.7377
 11
-217.69
 21
-38.2067
  0
LINE
  8
0
 10
-217.69
 20
-38.2067
 11
-217.921
 21
-38.6389
  0
LINE
  8
0
 10
-217.921
 20
-38.6389
 11
-218.232
 21
-39.0178
  0
LINE
  8
0
 10
-218.232
 20
-39.0178
 11
-218.611
 21
-39.3287
  0
LINE
  8
0
 10
-218.611
 20
-39.3287
 11
-219.043
 21
-39.5597
  0
LINE
  8
0
 10
-219.043
 20
-39.5597
 11
-219.512
 21
-39.702
  0
LINE
  8
0
 10
-219.512
 20
-39.702
 11
-220
 21
-39.75
  0
LINE
  8
0
 10
-220
 20
-39.75
 11
-220.488
 21
-39.702
  0
LINE
  8
0
 10
219.512
 20
-39.702
 11
219.043
 21
-39.5597
  0
LINE
  8
0
 10
219.043
 20
-39.5597
 11
218.611
 21
-39.3287
  0
LINE
  8
0
 10
218.611
 20
-39.3287
 11
218.232
 21
-39.0178
  0
LINE
  8
0
 10
218.232
 20
-39.0178
 11
217.921
 21
-38.6389
  0
LINE
  8
0
 10
217.921
 20
-38.6389
 11
217.69
 21
-38.2067
  0
LINE
  8
0
 10
217.69
 20
-38.2067
 11
217.548
 21
-37.7377
  0
LINE
  8
0
 10
217.548
 20
-37.7377
 11
217.5
 21
-37.25
  0
LINE
  8
0
 10
217.5
 20
-37.25
 11
217.548
 21
-36.7623
  0
LINE
  8
0
 10
217.548
 20
-36.7623
 11
217.69
 21
-36.2933
  0
LINE
  8
0
 10
217.69
 20
-36.2933
 11
217.921
 21
-35.8611
  0
LINE
  8
0
 10
217.921
 20
-35.8611
 11
218.232
 21
-35.4822
  0
LINE
  8
0
 10
218.232
 20
-35.4822
 11
218.611
 21
-35.1713
  0
LINE
  8
0
 10
218.611
 20
-35.1713
 11
219.043
 21
-34.9403
  0
LINE
  8
0
 10
219.043
 20
-34.9403
 11
219.512
 21
-34.798
  0
LINE
  8
0
 10
219.512
 20
-34.798
 11
220
 21
-34.75
  0
LINE
  8
0
 10
220
 20
-34.75
 11
220.488
 21
-34.798
  0
LINE
  8
0
 10
220.488
 20
-34.798
 11
220.957
 21
-34.9403
  0
LINE
  8
0
 10
220.957
 20
-34.9403
 11
221.389
 21
-35.1713
  0
LINE
  8
0
 10
221.389
 20
-35.1713
 11
221.768
 21
-35.4822
  0
LINE
  8
0
 10
221.768
 20
-35.4822
 11
222.079
 21
-35.8611
  0
LINE
  8
0
 10
222.079
 20
-35.8611
 11
222.31
 21
-36.2933
  0
LINE
  8
0
 10
222.31
 20
-36.2933
 11
222.452
 21
-36.7623
  0
LINE
  8
0
 10
222.452
 20
-36.7623
 11
222.5
 21
-37.25
  0
LINE
  8
0
 10
222.5
 20
-37.25
 11
222.452
 21
-37.7377
  0
LINE
  8
0
 10
222.452
 20
-37.7377
 11
222.31
 21
-38.2067
  0
LINE
  8
0
 10
222.31
 20
-38.2067
 11
222.079
 21
-38.6389
  0
LINE
  8
0
 10
222.079
 20
-38.6389
 11
221.768
 21
-39.0178
  0
LINE
  8
0
 10
221.768
 20
-39.0178
 11
221.389
 21
-39.3287
  0
LINE
  8
0
 10
221.389
 20
-39.3287
 11
220.957
 21
-39.5597
  0
LINE
  8
0
 10
220.957
 20
-39.5597
 11
220.488
 21
-39.702
  0
LINE
  8
0
 10
220.488
 20
-39.702
 11
220
 21
-39.75
  0
LINE
  8
0
 10
220
 20
-39.75
 11
219.512
 21
-39.702
  0
LINE
  8
0
 10
114.751
 20
-49.2438
 11
114.255
 21
-49.1942
  0
LINE
  8
0
 10
114.255
 20
-49.1942
 11
113.766
 21
-49.0954
  0
LINE
  8
0
 10
113.766
 20
-49.0954
 11
113.29
 21
-48.9485
  0
LINE
  8
0
 10
113.29
 20
-48.9485
 11
112.831
 21
-48.7548
  0
LINE
  8
0
 10
112.831
 20
-48.7548
 11
112.393
 21
-48.5164
  0
LINE
  8
0
 10
112.393
 20
-48.5164
 11
111.981
 21
-48.2357
  0
LINE
  8
0
 10
111.981
 20
-48.2357
 11
111.599
 21
-47.9153
  0
LINE
  8
0
 10
111.599
 20
-47.9153
 11
111.251
 21
-47.5584
  0
LINE
  8
0
 10
111.251
 20
-47.5584
 11
110.94
 21
-47.1687
  0
LINE
  8
0
 10
110.94
 20
-47.1687
 11
110.67
 21
-46.75
  0
LINE
  8
0
 10
110.67
 20
-46.75
 11
110.442
 21
-46.3064
  0
LINE
  8
0
 10
110.442
 20
-46.3064
 11
110.26
 21
-45.8424
  0
LINE
  8
0
 10
110.26
 20
-45.8424
 11
110.125
 21
-45.3626
  0
LINE
  8
0
 10
110.125
 20
-45.3626
 11
110.039
 21
-44.8717
  0
LINE
  8
0
 10
110.039
 20
-44.8717
 11
110.002
 21
-44.3746
  0
LINE
  8
0
 10
110.002
 20
-44.3746
 11
110.014
 21
-43.8763
  0
LINE
  8
0
 10
110.014
 20
-43.8763
 11
110.076
 21
-43.3818
  0
LINE
  8
0
 10
110.076
 20
-43.3818
 11
110.187
 21
-42.8958
  0
LINE
  8
0
 10
110.187
 20
-42.8958
 11
110.346
 21
-42.4233
  0
LINE
  8
0
 10
110.346
 20
-42.4233
 11
110.551
 21
-41.9689
  0
LINE
  8
0
 10
110.551
 20
-41.9689
 11
110.8
 21
-41.5373
  0
LINE
  8
0
 10
110.8
 20
-41.5373
 11
111.091
 21
-41.1325
  0
LINE
  8
0
 10
111.091
 20
-41.1325
 11
111.421
 21
-40.7588
  0
LINE
  8
0
 10
111.421
 20
-40.7588
 11
111.786
 21
-40.4198
  0
LINE
  8
0
 10
111.786
 20
-40.4198
 11
112.183
 21
-40.1188
  0
LINE
  8
0
 10
112.183
 20
-40.1188
 11
112.609
 21
-39.8589
  0
LINE
  8
0
 10
112.609
 20
-39.8589
 11
113.058
 21
-39.6426
  0
LINE
  8
0
 10
113.058
 20
-39.6426
 11
113.526
 21
-39.4721
  0
LINE
  8
0
 10
113.526
 20
-39.4721
 11
114.009
 21
-39.3491
  0
LINE
  8
0
 10
114.009
 20
-39.3491
 11
114.502
 21
-39.2748
  0
LINE
  8
0
 10
114.502
 20
-39.2748
 11
115
 21
-39.25
  0
LINE
  8
0
 10
115
 20
-39.25
 11
115.498
 21
-39.2748
  0
LINE
  8
0
 10
115.498
 20
-39.2748
 11
115.991
 21
-39.3491
  0
LINE
  8
0
 10
115.991
 20
-39.3491
 11
116.474
 21
-39.4721
  0
LINE
  8
0
 10
116.474
 20
-39.4721
 11
116.942
 21
-39.6426
  0
LINE
  8
0
 10
116.942
 20
-39.6426
 11
117.391
 21
-39.8589
  0
LINE
  8
0
 10
117.391
 20
-39.8589
 11
117.817
 21
-40.1188
  0
LINE
  8
0
 10
117.817
 20
-40.1188
 11
118.214
 21
-40.4198
  0
LINE
  8
0
 10
118.214
 20
-40.4198
 11
118.579
 21
-40.7588
  0
LINE
  8
0
 10
118.579
 20
-40.7588
 11
118.909
 21
-41.1325
  0
LINE
  8
0
 10
118.909
 20
-41.1325
 11
119.2
 21
-41.5373
  0
LINE
  8
0
 10
119.2
 20
-41.5373
 11
119.449
 21
-41.9689
  0
LINE
  8
0
 10
119.449
 20
-41.9689
 11
119.654
 21
-42.4233
  0
LINE
  8
0
 10
119.654
 20
-42.4233
 11
119.813
 21
-42.8958
  0
LINE
  8
0
 10
119.813
 20
-42.8958
 11
119.924
 21
-43.3818
  0
LINE
  8
0
 10
119.924
 20
-43.3818
 11
119.986
 21
-43.8763
  0
LINE
  8
0
 10
119.986
 20
-43.8763
 11
119.998
 21
-44.3746
  0
LINE
  8
0
 10
119.998
 20
-44.3746
 11
119.961
 21
-44.8717
  0
LINE
  8
0
 10
119.961
 20
-44.8717
 11
119.875
 21
-45.3626
  0
LINE
  8
0
 10
119.875
 20
-45.3626
 11
119.74
 21
-45.8424
  0
LINE
  8
0
 10
119.74
 20
-45.8424
 11
119.558
 21
-46.3064
  0
LINE
  8
0
 10
119.558
 20
-46.3064
 11
119.33
 21
-46.75
  0
LINE
  8
0
 10
119.33
 20
-46.75
 11
119.06
 21
-47.1687
  0
LINE
  8
0
 10
119.06
 20
-47.1687
 11
118.749
 21
-47.5584
  0
LINE
  8
0
 10
118.749
 20
-47.5584
 11
118.401
 21
-47.9153
  0
LINE
  8
0
 10
118.401
 20
-47.9153
 11
118.019
 21
-48.2357
  0
LINE
  8
0
 10
118.019
 20
-48.2357
 11
117.607
 21
-48.5164
  0
LINE
  8
0
 10
117.607
 20
-48.5164
 11
117.169
 21
-48.7548
  0
LINE
  8
0
 10
117.169
 20
-48.7548
 11
116.71
 21
-48.9485
  0
LINE
  8
0
 10
116.71
 20
-48.9485
 11
116.234
 21
-49.0954
  0
LINE
  8
0
 10
116.234
 20
-49.0954
 11
115.745
 21
-49.1942
  0
LINE
  8
0
 10
115.745
 20
-49.1942
 11
115.249
 21
-49.2438
  0
LINE
  8
0
 10
115.249
 20
-49.2438
 11
114.751
 21
-49.2438
  0
LINE
  8
0
 10
-115.249
 20
-49.2438
 11
-115.745
 21
-49.1942
  0
LINE
  8
0
 10
-115.745
 20
-49.1942
 11
-116.234
 21
-49.0954
  0
LINE
  8
0
 10
-116.234
 20
-49.0954
 11
-116.71
 21
-48.9485
  0
LINE
  8
0
 10
-116.71
 20
-48.9485
 11
-117.169
 21
-48.7548
  0
LINE
  8
0
 10
-117.169
 20
-48.7548
 11
-117.607
 21
-48.5164
  0
LINE
  8
0
 10
-117.607
 20
-48.5164
 11
-118.019
 21
-48.2357
  0
LINE
  8
0
 10
-118.019
 20
-48.2357
 11
-118.401
 21
-47.9153
  0
LINE
  8
0
 10
-118.401
 20
-47.9153
 11
-118.749
 21
-47.5584
  0
LINE
  8
0
 10
-118.749
 20
-47.5584
 11
-119.06
 21
-47.1687
  0
LINE
  8
0
 10
-119.06
 20
-47.1687
 11
-119.33
 21
-46.75
  0
LINE
  8
0
 10
-119.33
 20
-46.75
 11
-119.558
 21
-46.3064
  0
LINE
  8
0
 10
-119.558
 20
-46.3064
 11
-119.74
 21
-45.8424
  0
LINE
  8
0
 10
-119.74
 20
-45.8424
 11
-119.875
 21
-45.3626
  0
LINE
  8
0
 10
-119.875
 20
-45.3626
 11
-119.961
 21
-44.8717
  0
LINE
  8
0
 10
-119.961
 20
-44.8717
 11
-119.998
 21
-44.3746
  0
LINE
  8
0
 10
-119.998
 20
-44.3746
 11
-119.986
 21
-43.8763
  0
LINE
  8
0
 10
-119.986
 20
-43.8763
 11
-119.924
 21
-43.3818
  0
LINE
  8
0
 10
-119.924
 20
-43.3818
 11
-119.813
 21
-42.8958
  0
LINE
  8
0
 10
-119.813
 20
-42.8958
 11
-119.654
 21
-42.4233
  0
LINE
  8
0
 10
-119.654
 20
-42.4233
 11
-119.449
 21
-41.9689
  0
LINE
  8
0
 10
-119.449
 20
-41.9689
 11
-119.2
 21
-41.5373
  0
LINE
  8
0
 10
-119.2
 20
-41.5373
 11
-118.909
 21
-41.1325
  0
LINE
  8
0
 10
-118.909
 20
-41.1325
 11
-118.579
 21
-40.7588
  0
LINE
  8
0
 10
-118.579
 20
-40.7588
 11
-118.214
 21
-40.4198
  0
LINE
  8
0
 10
-118.214
 20
-40.4198
 11
-117.817
 21
-40.1188
  0
LINE
  8
0
 10
-117.817
 20
-40.1188
 11
-117.391
 21
-39.8589
  0
LINE
  8
0
 10
-117.391
 20
-39.8589
 11
-116.942
 21
-39.6426
  0
LINE
  8
0
 10
-116.942
 20
-39.6426
 11
-116.474
 21
-39.4721
  0
LINE
  8
0
 10
-116.474
 20
-39.4721
 11
-115.991
 21
-39.3491
  0
LINE
  8
0
 10
-115.991
 20
-39.3491
 11
-115.498
 21
-39.2748
  0
LINE
  8
0
 10
-115.498
 20
-39.2748
 11
-115
 21
-39.25
  0
LINE
  8
0
 10
-115
 20
-39.25
 11
-114.502
 21
-39.2748
  0
LINE
  8
0
 10
-114.502
 20
-39.2748
 11
-114.009
 21
-39.3491
  0
LINE
  8
0
 10
-114.009
 20
-39.3491
 11
-113.526
 21
-39.4721
  0
LINE
  8
0
 10
-113.526
 20
-39.4721
 11
-113.058
 21
-39.6426
  0
LINE
  8
0
 10
-113.058
 20
-39.6426
 11
-112.609
 21
-39.8589
  0
LINE
  8
0
 10
-112.609
 20
-39.8589
 11
-112.183
 21
-40.1188
  0
LINE
  8
0
 10
-112.183
 20
-40.1188
 11
-111.786
 21
-40.4198
  0
LINE
  8
0
 10
-111.786
 20
-40.4198
 11
-111.421
 21
-40.7588
  0
LINE
  8
0
 10
-111.421
 20
-40.7588
 11
-111.091
 21
-41.1325
  0
LINE
  8
0
 10
-111.091
 20
-41.1325
 11
-110.8
 21
-41.5373
  0
LINE
  8
0
 10
-110.8
 20
-41.5373
 11
-110.551
 21
-41.9689
  0
LINE
  8
0
 10
-110.551
 20
-41.9689
 11
-110.346
 21
-42.4233
  0
LINE
  8
0
 10
-110.346
 20
-42.4233
 11
-110.187
 21
-42.8958
  0
LINE
  8
0
 10
-110.187
 20
-42.8958
 11
-110.076
 21
-43.3818
  0
LINE
  8
0
 10
-110.076
 20
-43.3818
 11
-110.014
 21
-43.8763
  0
LINE
  8
0
 10
-110.014
 20
-43.8763
 11
-110.002
 21
-44.3746
  0
LINE
  8
0
 10
-110.002
 20
-44.3746
 11
-110.039
 21
-44.8717
  0
LINE
  8
0
 10
-110.039
 20
-44.8717
 11
-110.125
 21
-45.3626
  0
LINE
  8
0
 10
-110.125
 20
-45.3626
 11
-110.26
 21
-45.8424
  0
LINE
  8
0
 10
-110.26
 20
-45.8424
 11
-110.442
 21
-46.3064
  0
LINE
  8
0
 10
-110.442
 20
-46.3064
 11
-110.67
 21
-46.75
  0
LINE
  8
0
 10
-110.67
 20
-46.75
 11
-110.94
 21
-47.1687
  0
LINE
  8
0
 10
-110.94
 20
-47.1687
 11
-111.251
 21
-47.5584
  0
LINE
  8
0
 10
-111.251
 20
-47.5584
 11
-111.599
 21
-47.9153
  0
LINE
  8
0
 10
-111.599
 20
-47.9153
 11
-111.981
 21
-48.2357
  0
LINE
  8
0
 10
-111.981
 20
-48.2357
 11
-112.393
 21
-48.5164
  0
LINE
  8
0
 10
-112.393
 20
-48.5164
 11
-112.831
 21
-48.7548
  0
LINE
  8
0
 10
-112.831
 20
-48.7548
 11
-113.29
 21
-48.9485
  0
LINE
  8
0
 10
-113.29
 20
-48.9485
 11
-113.766
 21
-49.0954
  0
LINE
  8
0
 10
-113.766
 20
-49.0954
 11
-114.255
 21
-49.1942
  0
LINE
  8
0
 10
-114.255
 20
-49.1942
 11
-114.751
 21
-49.2438
  0
LINE
  8
0
 10
-114.751
 20
-49.2438
 11
-115.249
 21
-49.2438
  0
LINE
  8
0
 10
-127.5
 20
-46.75
 11
-127.5
 21
-45.9457
  0
LINE
  8
0
 10
-127.5
 20
-45.9457
 11
-129.615
 21
-45.9457
  0
LINE
  8
0
 10
-129.615
 20
-45.9457
 11
-130.088
 21
-45.8428
  0
LINE
  8
0
 10
-130.088
 20
-45.8428
 11
-130.513
 21
-45.6109
  0
LINE
  8
0
 10
-130.513
 20
-45.6109
 11
-130.855
 21
-45.2688
  0
LINE
  8
0
 10
-130.855
 20
-45.2688
 11
-131.087
 21
-44.8441
  0
LINE
  8
0
 10
-131.087
 20
-44.8441
 11
-131.19
 21
-44.3713
  0
LINE
  8
0
 10
-131.19
 20
-44.3713
 11
-131.155
 21
-43.8886
  0
LINE
  8
0
 10
-131.155
 20
-43.8886
 11
-130.986
 21
-43.4353
  0
LINE
  8
0
 10
-130.986
 20
-43.4353
 11
-130.696
 21
-43.0479
  0
LINE
  8
0
 10
-130.696
 20
-43.0479
 11
-130.309
 21
-42.7579
  0
LINE
  8
0
 10
-130.309
 20
-42.7579
 11
-129.855
 21
-42.5888
  0
LINE
  8
0
 10
-129.855
 20
-42.5888
 11
-129.373
 21
-42.5543
  0
LINE
  8
0
 10
-129.373
 20
-42.5543
 11
-127.5
 21
-42.5543
  0
LINE
  8
0
 10
-127.5
 20
-42.5543
 11
-127.5
 21
-41.75
  0
LINE
  8
0
 10
-127.5
 20
-41.75
 11
-124.5
 21
-41.75
  0
LINE
  8
0
 10
-124.5
 20
-41.75
 11
-124.5
 21
-46.75
  0
LINE
  8
0
 10
-124.5
 20
-46.75
 11
-127.5
 21
-46.75
  0
LINE
  8
0
 10
124.5
 20
-46.75
 11
124.5
 21
-41.75
  0
LINE
  8
0
 10
124.5
 20
-41.75
 11
127.5
 21
-41.75
  0
LINE
  8
0
 10
127.5
 20
-41.75
 11
127.5
 21
-42.5543
  0
LINE
  8
0
 10
127.5
 20
-42.5543
 11
129.615
 21
-42.5543
  0
LINE
  8
0
 10
129.615
 20
-42.5543
 11
130.088
 21
-42.6572
  0
LINE
  8
0
 10
130.088
 20
-42.6572
 11
130.513
 21
-42.8891
  0
LINE
  8
0
 10
130.513
 20
-42.8891
 11
130.855
 21
-43.2312
  0
LINE
  8
0
 10
130.855
 20
-43.2312
 11
131.087
 21
-43.6559
  0
LINE
  8
0
 10
131.087
 20
-43.6559
 11
131.19
 21
-44.1287
  0
LINE
  8
0
 10
131.19
 20
-44.1287
 11
131.155
 21
-44.6114
  0
LINE
  8
0
 10
131.155
 20
-44.6114
 11
130.986
 21
-45.0647
  0
LINE
  8
0
 10
130.986
 20
-45.0647
 11
130.696
 21
-45.4521
  0
LINE
  8
0
 10
130.696
 20
-45.4521
 11
130.309
 21
-45.7421
  0
LINE
  8
0
 10
130.309
 20
-45.7421
 11
129.855
 21
-45.9111
  0
LINE
  8
0
 10
129.855
 20
-45.9111
 11
129.373
 21
-45.9457
  0
LINE
  8
0
 10
129.373
 20
-45.9457
 11
127.5
 21
-45.9457
  0
LINE
  8
0
 10
127.5
 20
-45.9457
 11
127.5
 21
-46.75
  0
LINE
  8
0
 10
127.5
 20
-46.75
 11
124.5
 21
-46.75
  0
LINE
  8
0
 10
102.5
 20
-46.75
 11
102.5
 21
-41.75
  0
LINE
  8
0
 10
102.5
 20
-41.75
 11
105.5
 21
-41.75
  0
LINE
  8
0
 10
105.5
 20
-41.75
 11
105.5
 21
-46.75
  0
LINE
  8
0
 10
105.5
 20
-46.75
 11
102.5
 21
-46.75
  0
LINE
  8
0
 10
-105.5
 20
-46.75
 11
-105.5
 21
-41.75
  0
LINE
  8
0
 10
-105.5
 20
-41.75
 11
-102.5
 21
-41.75
  0
LINE
  8
0
 10
-102.5
 20
-41.75
 11
-102.5
 21
-46.75
  0
LINE
  8
0
 10
-102.5
 20
-46.75
 11
-105.5
 21
-46.75
  0
LINE
  8
0
 10
20.3848
 20
-45.9457
 11
19.912
 21
-45.8428
  0
LINE
  8
0
 10
19.912
 20
-45.8428
 11
19.4873
 21
-45.6109
  0
LINE
  8
0
 10
19.4873
 20
-45.6109
 11
19.1452
 21
-45.2688
  0
LINE
  8
0
 10
19.1452
 20
-45.2688
 11
18.9133
 21
-44.8441
  0
LINE
  8
0
 10
18.9133
 20
-44.8441
 11
18.8104
 21
-44.3713
  0
LINE
  8
0
 10
18.8104
 20
-44.3713
 11
18.8449
 21
-43.8886
  0
LINE
  8
0
 10
18.8449
 20
-43.8886
 11
19.014
 21
-43.4353
  0
LINE
  8
0
 10
19.014
 20
-43.4353
 11
19.304
 21
-43.0479
  0
LINE
  8
0
 10
19.304
 20
-43.0479
 11
19.6914
 21
-42.7579
  0
LINE
  8
0
 10
19.6914
 20
-42.7579
 11
20.1447
 21
-42.5888
  0
LINE
  8
0
 10
20.1447
 20
-42.5888
 11
20.6274
 21
-42.5543
  0
LINE
  8
0
 10
20.6274
 20
-42.5543
 11
23.4558
 21
-42.5543
  0
LINE
  8
0
 10
23.4558
 20
-42.5543
 11
23.9286
 21
-42.6572
  0
LINE
  8
0
 10
23.9286
 20
-42.6572
 11
24.3533
 21
-42.8891
  0
LINE
  8
0
 10
24.3533
 20
-42.8891
 11
24.6954
 21
-43.2312
  0
LINE
  8
0
 10
24.6954
 20
-43.2312
 11
24.9273
 21
-43.6559
  0
LINE
  8
0
 10
24.9273
 20
-43.6559
 11
25.0302
 21
-44.1287
  0
LINE
  8
0
 10
25.0302
 20
-44.1287
 11
24.9957
 21
-44.6114
  0
LINE
  8
0
 10
24.9957
 20
-44.6114
 11
24.8266
 21
-45.0647
  0
LINE
  8
0
 10
24.8266
 20
-45.0647
 11
24.5366
 21
-45.4521
  0
LINE
  8
0
 10
24.5366
 20
-45.4521
 11
24.1492
 21
-45.7421
  0
LINE
  8
0
 10
24.1492
 20
-45.7421
 11
23.6959
 21
-45.9111
  0
LINE
  8
0
 10
23.6959
 20
-45.9111
 11
23.2132
 21
-45.9457
  0
LINE
  8
0
 10
23.2132
 20
-45.9457
 11
20.3848
 21
-45.9457
  0
LINE
  8
0
 10
-173.456
 20
-45.9457
 11
-173.929
 21
-45.8428
  0
LINE
  8
0
 10
-173.929
 20
-45.8428
 11
-174.353
 21
-45.6109
  0
LINE
  8
0
 10
-174.353
 20
-45.6109
 11
-174.695
 21
-45.2688
  0
LINE
  8
0
 10
-174.695
 20
-45.2688
 11
-174.927
 21
-44.8441
  0
LINE
  8
0
 10
-174.927
 20
-44.8441
 11
-175.03
 21
-44.3713
  0
LINE
  8
0
 10
-175.03
 20
-44.3713
 11
-174.996
 21
-43.8886
  0
LINE
  8
0
 10
-174.996
 20
-43.8886
 11
-174.827
 21
-43.4353
  0
LINE
  8
0
 10
-174.827
 20
-43.4353
 11
-174.537
 21
-43.0479
  0
LINE
  8
0
 10
-174.537
 20
-43.0479
 11
-174.149
 21
-42.7579
  0
LINE
  8
0
 10
-174.149
 20
-42.7579
 11
-173.696
 21
-42.5888
  0
LINE
  8
0
 10
-173.696
 20
-42.5888
 11
-173.213
 21
-42.5543
  0
LINE
  8
0
 10
-173.213
 20
-42.5543
 11
-170.385
 21
-42.5543
  0
LINE
  8
0
 10
-170.385
 20
-42.5543
 11
-169.912
 21
-42.6572
  0
LINE
  8
0
 10
-169.912
 20
-42.6572
 11
-169.487
 21
-42.8891
  0
LINE
  8
0
 10
-169.487
 20
-42.8891
 11
-169.145
 21
-43.2312
  0
LINE
  8
0
 10
-169.145
 20
-43.2312
 11
-168.913
 21
-43.6559
  0
LINE
  8
0
 10
-168.913
 20
-43.6559
 11
-168.81
 21
-44.1287
  0
LINE
  8
0
 10
-168.81
 20
-44.1287
 11
-168.845
 21
-44.6114
  0
LINE
  8
0
 10
-168.845
 20
-44.6114
 11
-169.014
 21
-45.0647
  0
LINE
  8
0
 10
-169.014
 20
-45.0647
 11
-169.304
 21
-45.4521
  0
LINE
  8
0
 10
-169.304
 20
-45.4521
 11
-169.691
 21
-45.7421
  0
LINE
  8
0
 10
-169.691
 20
-45.7421
 11
-170.145
 21
-45.9111
  0
LINE
  8
0
 10
-170.145
 20
-45.9111
 11
-170.627
 21
-45.9457
  0
LINE
  8
0
 10
-170.627
 20
-45.9457
 11
-173.456
 21
-45.9457
  0
LINE
  8
0
 10
170.385
 20
-45.9457
 11
169.912
 21
-45.8428
  0
LINE
  8
0
 10
169.912
 20
-45.8428
 11
169.487
 21
-45.6109
  0
LINE
  8
0
 10
169.487
 20
-45.6109
 11
169.145
 21
-45.2688
  0
LINE
  8
0
 10
169.145
 20
-45.2688
 11
168.913
 21
-44.8441
  0
LINE
  8
0
 10
168.913
 20
-44.8441
 11
168.81
 21
-44.3713
  0
LINE
  8
0
 10
168.81
 20
-44.3713
 11
168.845
 21
-43.8886
  0
LINE
  8
0
 10
168.845
 20
-43.8886
 11
169.014
 21
-43.4353
  0
LINE
  8
0
 10
169.014
 20
-43.4353
 11
169.304
 21
-43.0479
  0
LINE
  8
0
 10
169.304
 20
-43.0479
 11
169.691
 21
-42.7579
  0
LINE
  8
0
 10
169.691
 20
-42.7579
 11
170.145
 21
-42.5888
  0
LINE
  8
0
 10
170.145
 20
-42.5888
 11
170.627
 21
-42.5543
  0
LINE
  8
0
 10
170.627
 20
-42.5543
 11
173.456
 21
-42.5543
  0
LINE
  8
0
 10
173.456
 20
-42.5543
 11
173.929
 21
-42.6572
  0
LINE
  8
0
 10
173.929
 20
-42.6572
 11
174.353
 21
-42.8891
  0
LINE
  8
0
 10
174.353
 20
-42.8891
 11
174.695
 21
-43.2312
  0
LINE
  8
0
 10
174.695
 20
-43.2312
 11
174.927
 21
-43.6559
  0
LINE
  8
0
 10
174.927
 20
-43.6559
 11
175.03
 21
-44.1287
  0
LINE
  8
0
 10
175.03
 20
-44.1287
 11
174.996
 21
-44.6114
  0
LINE
  8
0
 10
174.996
 20
-44.6114
 11
174.827
 21
-45.0647
  0
LINE
  8
0
 10
174.827
 20
-45.0647
 11
174.537
 21
-45.4521
  0
LINE
  8
0
 10
174.537
 20
-45.4521
 11
174.149
 21
-45.7421
  0
LINE
  8
0
 10
174.149
 20
-45.7421
 11
173.696
 21
-45.9111
  0
LINE
  8
0
 10
173.696
 20
-45.9111
 11
173.213
 21
-45.9457
  0
LINE
  8
0
 10
173.213
 20
-45.9457
 11
170.385
 21
-45.9457
  0
LINE
  8
0
 10
-23.4558
 20
-45.9457
 11
-23.9286
 21
-45.8428
  0
LINE
  8
0
 10
-23.9286
 20
-45.8428
 11
-24.3533
 21
-45.6109
  0
LINE
  8
0
 10
-24.3533
 20
-45.6109
 11
-24.6954
 21
-45.2688
  0
LINE
  8
0
 10
-24.6954
 20
-45.2688
 11
-24.9273
 21
-44.8441
  0
LINE
  8
0
 10
-24.9273
 20
-44.8441
 11
-25.0302
 21
-44.3713
  0
LINE
  8
0
 10
-25.0302
 20
-44.3713
 11
-24.9957
 21
-43.8886
  0
LINE
  8
0
 10
-24.9957
 20
-43.8886
 11
-24.8266
 21
-43.4353
  0
LINE
  8
0
 10
-24.8266
 20
-43.4353
 11
-24.5366
 21
-43.0479
  0
LINE
  8
0
 10
-24.5366
 20
-43.0479
 11
-24.1492
 21
-42.7579
  0
LINE
  8
0
 10
-24.1492
 20
-42.7579
 11
-23.6959
 21
-42.5888
  0
LINE
  8
0
 10
-23.6959
 20
-42.5888
 11
-23.2132
 21
-42.5543
  0
LINE
  8
0
 10
-23.2132
 20
-42.5543
 11
-20.3848
 21
-42.5543
  0
LINE
  8
0
 10
-20.3848
 20
-42.5543
 11
-19.912
 21
-42.6572
  0
LINE
  8
0
 10
-19.912
 20
-42.6572
 11
-19.4873
 21
-42.8891
  0
LINE
  8
0
 10
-19.4873
 20
-42.8891
 11
-19.1452
 21
-43.2312
  0
LINE
  8
0
 10
-19.1452
 20
-43.2312
 11
-18.9133
 21
-43.6559
  0
LINE
  8
0
 10
-18.9133
 20
-43.6559
 11
-18.8104
 21
-44.1287
  0
LINE
  8
0
 10
-18.8104
 20
-44.1287
 11
-18.8449
 21
-44.6114
  0
LINE
  8
0
 10
-18.8449
 20
-44.6114
 11
-19.014
 21
-45.0647
  0
LINE
  8
0
 10
-19.014
 20
-45.0647
 11
-19.304
 21
-45.4521
  0
LINE
  8
0
 10
-19.304
 20
-45.4521
 11
-19.6914
 21
-45.7421
  0
LINE
  8
0
 10
-19.6914
 20
-45.7421
 11
-20.1447
 21
-45.9111
  0
LINE
  8
0
 10
-20.1447
 20
-45.9111
 11
-20.6274
 21
-45.9457
  0
LINE
  8
0
 10
-20.6274
 20
-45.9457
 11
-23.4558
 21
-45.9457
  0
ENDSEC
  0
SECTION
  2
OBJECTS
  0
DICTIONARY
  0
ENDSEC
  0
EOF
