  0
SECTION
  2
BLOCKS
  0
ENDSEC
  0
SECTION
  2
ENTITIES
  0
LINE
  8
0
 10
-157.724
 20
-50.078
 11
-158.109
 21
-49.7631
  0
LINE
  8
0
 10
-158.109
 20
-49.7631
 11
-158.48
 21
-49.4332
  0
LINE
  8
0
 10
-158.48
 20
-49.4332
 11
-158.839
 21
-49.0888
  0
LINE
  8
0
 10
-158.839
 20
-49.0888
 11
-159.183
 21
-48.7304
  0
LINE
  8
0
 10
-159.183
 20
-48.7304
 11
-159.513
 21
-48.3586
  0
LINE
  8
0
 10
-159.513
 20
-48.3586
 11
-159.828
 21
-47.974
  0
LINE
  8
0
 10
-159.828
 20
-47.974
 11
-160.127
 21
-47.5772
  0
LINE
  8
0
 10
-160.127
 20
-47.5772
 11
-160.411
 21
-47.1688
  0
LINE
  8
0
 10
-160.411
 20
-47.1688
 11
-160.677
 21
-46.7494
  0
LINE
  8
0
 10
-160.677
 20
-46.7494
 11
-160.927
 21
-46.3198
  0
LINE
  8
0
 10
-160.927
 20
-46.3198
 11
-161.16
 21
-45.8805
  0
LINE
  8
0
 10
-161.16
 20
-45.8805
 11
-161.375
 21
-45.4324
  0
LINE
  8
0
 10
-161.375
 20
-45.4324
 11
-161.572
 21
-44.9761
  0
LINE
  8
0
 10
-161.572
 20
-44.9761
 11
-161.751
 21
-44.5123
  0
LINE
  8
0
 10
-161.751
 20
-44.5123
 11
-161.911
 21
-44.0417
  0
LINE
  8
0
 10
-161.911
 20
-44.0417
 11
-162.052
 21
-43.5652
  0
LINE
  8
0
 10
-162.052
 20
-43.5652
 11
-162.175
 21
-43.0834
  0
LINE
  8
0
 10
-162.175
 20
-43.0834
 11
-162.278
 21
-42.5971
  0
LINE
  8
0
 10
-162.278
 20
-42.5971
 11
-162.361
 21
-42.1072
  0
LINE
  8
0
 10
-162.361
 20
-42.1072
 11
-162.425
 21
-41.6143
  0
LINE
  8
0
 10
-162.425
 20
-41.6143
 11
-162.47
 21
-41.1192
  0
LINE
  8
0
 10
-162.47
 20
-41.1192
 11
-162.494
 21
-40.6228
  0
LINE
  8
0
 10
-162.494
 20
-40.6228
 11
-162.499
 21
-40.1257
  0
LINE
  8
0
 10
-162.499
 20
-40.1257
 11
-162.485
 21
-39.6289
  0
LINE
  8
0
 10
-162.485
 20
-39.6289
 11
-162.45
 21
-39.133
  0
LINE
  8
0
 10
-162.45
 20
-39.133
 11
-162.396
 21
-38.6389
  0
LINE
  8
0
 10
-162.396
 20
-38.6389
 11
-162.322
 21
-38.1474
  0
LINE
  8
0
 10
-162.322
 20
-38.1474
 11
-162.229
 21
-37.6592
  0
LINE
  8
0
 10
-162.229
 20
-37.6592
 11
-162.116
 21
-37.1751
  0
LINE
  8
0
 10
-162.116
 20
-37.1751
 11
-161.984
 21
-36.6958
  0
LINE
  8
0
 10
-161.984
 20
-36.6958
 11
-161.833
 21
-36.2222
  0
LINE
  8
0
 10
-161.833
 20
-36.2222
 11
-161.664
 21
-35.7549
  0
LINE
  8
0
 10
-161.664
 20
-35.7549
 11
-161.476
 21
-35.2948
  0
LINE
  8
0
 10
-161.476
 20
-35.2948
 11
-161.27
 21
-34.8425
  0
LINE
  8
0
 10
-161.27
 20
-34.8425
 11
-161.046
 21
-34.3987
  0
LINE
  8
0
 10
-161.046
 20
-34.3987
 11
-160.805
 21
-33.9642
  0
LINE
  8
0
 10
-160.805
 20
-33.9642
 11
-160.546
 21
-33.5396
  0
LINE
  8
0
 10
-160.546
 20
-33.5396
 11
-160.271
 21
-33.1256
  0
LINE
  8
0
 10
-160.271
 20
-33.1256
 11
-159.98
 21
-32.7229
  0
LINE
  8
0
 10
-159.98
 20
-32.7229
 11
-159.672
 21
-32.3321
  0
LINE
  8
0
 10
-159.672
 20
-32.3321
 11
-159.35
 21
-31.9538
  0
LINE
  8
0
 10
-159.35
 20
-31.9538
 11
-159.013
 21
-31.5886
  0
LINE
  8
0
 10
-159.013
 20
-31.5886
 11
-158.661
 21
-31.2372
  0
LINE
  8
0
 10
-158.661
 20
-31.2372
 11
-158.296
 21
-30.8999
  0
LINE
  8
0
 10
-158.296
 20
-30.8999
 11
-157.918
 21
-30.5775
  0
LINE
  8
0
 10
-157.918
 20
-30.5775
 11
-157.527
 21
-30.2704
  0
LINE
  8
0
 10
-157.527
 20
-30.2704
 11
-157.124
 21
-29.979
  0
LINE
  8
0
 10
-157.124
 20
-29.979
 11
-156.71
 21
-29.7039
  0
LINE
  8
0
 10
-156.71
 20
-29.7039
 11
-156.286
 21
-29.4454
  0
LINE
  8
0
 10
-156.286
 20
-29.4454
 11
-155.851
 21
-29.2041
  0
LINE
  8
0
 10
-155.851
 20
-29.2041
 11
-155.408
 21
-28.9802
  0
LINE
  8
0
 10
-155.408
 20
-28.9802
 11
-154.955
 21
-28.7741
  0
LINE
  8
0
 10
-154.955
 20
-28.7741
 11
-154.495
 21
-28.5862
  0
LINE
  8
0
 10
-154.495
 20
-28.5862
 11
-154.028
 21
-28.4167
  0
LINE
  8
0
 10
-154.028
 20
-28.4167
 11
-153.554
 21
-28.2659
  0
LINE
  8
0
 10
-153.554
 20
-28.2659
 11
-153.075
 21
-28.1341
  0
LINE
  8
0
 10
-153.075
 20
-28.1341
 11
-152.591
 21
-28.0214
  0
LINE
  8
0
 10
-152.591
 20
-28.0214
 11
-152.103
 21
-27.9281
  0
LINE
  8
0
 10
-152.103
 20
-27.9281
 11
-151.611
 21
-27.8542
  0
LINE
  8
0
 10
-151.611
 20
-27.8542
 11
-151.117
 21
-27.8
  0
LINE
  8
0
 10
-151.117
 20
-27.8
 11
-150.621
 21
-27.7654
  0
LINE
  8
0
 10
-150.621
 20
-27.7654
 11
-150.124
 21
-27.7506
  0
LINE
  8
0
 10
-150.124
 20
-27.7506
 11
-149.627
 21
-27.7556
  0
LINE
  8
0
 10
-149.627
 20
-27.7556
 11
-149.131
 21
-27.7803
  0
LINE
  8
0
 10
-149.131
 20
-27.7803
 11
-148.636
 21
-27.8247
  0
LINE
  8
0
 10
-148.636
 20
-27.8247
 11
-148.143
 21
-27.8887
  0
LINE
  8
0
 10
-148.143
 20
-27.8887
 11
-147.653
 21
-27.9723
  0
LINE
  8
0
 10
-147.653
 20
-27.9723
 11
-147.167
 21
-28.0754
  0
LINE
  8
0
 10
-147.167
 20
-28.0754
 11
-146.685
 21
-28.1976
  0
LINE
  8
0
 10
-146.685
 20
-28.1976
 11
-146.208
 21
-28.339
  0
LINE
  8
0
 10
-146.208
 20
-28.339
 11
-145.738
 21
-28.4991
  0
LINE
  8
0
 10
-145.738
 20
-28.4991
 11
-145.274
 21
-28.6779
  0
LINE
  8
0
 10
-145.274
 20
-28.6779
 11
-144.818
 21
-28.8749
  0
LINE
  8
0
 10
-144.818
 20
-28.8749
 11
-144.369
 21
-29.0899
  0
LINE
  8
0
 10
-144.369
 20
-29.0899
 11
-143.93
 21
-29.3226
  0
LINE
  8
0
 10
-143.93
 20
-29.3226
 11
-143.501
 21
-29.5726
  0
LINE
  8
0
 10
-143.501
 20
-29.5726
 11
-143.081
 21
-29.8394
  0
LINE
  8
0
 10
-143.081
 20
-29.8394
 11
-142.673
 21
-30.1227
  0
LINE
  8
0
 10
-142.673
 20
-30.1227
 11
-142.276
 21
-30.422
  0
LINE
  8
0
 10
-142.276
 20
-30.422
 11
-141.891
 21
-30.7368
  0
LINE
  8
0
 10
-141.891
 20
-30.7368
 11
-141.52
 21
-31.0667
  0
LINE
  8
0
 10
-141.52
 20
-31.0667
 11
-141.161
 21
-31.4112
  0
LINE
  8
0
 10
-141.161
 20
-31.4112
 11
-140.817
 21
-31.7695
  0
LINE
  8
0
 10
-140.817
 20
-31.7695
 11
-140.487
 21
-32.1413
  0
LINE
  8
0
 10
-140.487
 20
-32.1413
 11
-140.172
 21
-32.526
  0
LINE
  8
0
 10
-140.172
 20
-32.526
 11
-139.873
 21
-32.9228
  0
LINE
  8
0
 10
-139.873
 20
-32.9228
 11
-139.589
 21
-33.3312
  0
LINE
  8
0
 10
-139.589
 20
-33.3312
 11
-139.323
 21
-33.7506
  0
LINE
  8
0
 10
-139.323
 20
-33.7506
 11
-139.073
 21
-34.1802
  0
LINE
  8
0
 10
-139.073
 20
-34.1802
 11
-138.84
 21
-34.6194
  0
LINE
  8
0
 10
-138.84
 20
-34.6194
 11
-138.625
 21
-35.0676
  0
LINE
  8
0
 10
-138.625
 20
-35.0676
 11
-138.428
 21
-35.5239
  0
LINE
  8
0
 10
-138.428
 20
-35.5239
 11
-138.249
 21
-35.9877
  0
LINE
  8
0
 10
-138.249
 20
-35.9877
 11
-138.089
 21
-36.4583
  0
LINE
  8
0
 10
-138.089
 20
-36.4583
 11
-137.948
 21
-36.9348
  0
LINE
  8
0
 10
-137.948
 20
-36.9348
 11
-137.825
 21
-37.4166
  0
LINE
  8
0
 10
-137.825
 20
-37.4166
 11
-137.722
 21
-37.9028
  0
LINE
  8
0
 10
-137.722
 20
-37.9028
 11
-137.639
 21
-38.3928
  0
LINE
  8
0
 10
-137.639
 20
-38.3928
 11
-137.575
 21
-38.8857
  0
LINE
  8
0
 10
-137.575
 20
-38.8857
 11
-137.53
 21
-39.3808
  0
LINE
  8
0
 10
-137.53
 20
-39.3808
 11
-137.506
 21
-39.8772
  0
LINE
  8
0
 10
-137.506
 20
-39.8772
 11
-137.501
 21
-40.3743
  0
LINE
  8
0
 10
-137.501
 20
-40.3743
 11
-137.515
 21
-40.8711
  0
LINE
  8
0
 10
-137.515
 20
-40.8711
 11
-137.55
 21
-41.3669
  0
LINE
  8
0
 10
-137.55
 20
-41.3669
 11
-137.604
 21
-41.861
  0
LINE
  8
0
 10
-137.604
 20
-41.861
 11
-137.678
 21
-42.3526
  0
LINE
  8
0
 10
-137.678
 20
-42.3526
 11
-137.771
 21
-42.8408
  0
LINE
  8
0
 10
-137.771
 20
-42.8408
 11
-137.884
 21
-43.3249
  0
LINE
  8
0
 10
-137.884
 20
-43.3249
 11
-138.016
 21
-43.8042
  0
LINE
  8
0
 10
-138.016
 20
-43.8042
 11
-138.167
 21
-44.2778
  0
LINE
  8
0
 10
-138.167
 20
-44.2778
 11
-138.336
 21
-44.7451
  0
LINE
  8
0
 10
-138.336
 20
-44.7451
 11
-138.524
 21
-45.2052
  0
LINE
  8
0
 10
-138.524
 20
-45.2052
 11
-138.73
 21
-45.6575
  0
LINE
  8
0
 10
-138.73
 20
-45.6575
 11
-138.954
 21
-46.1013
  0
LINE
  8
0
 10
-138.954
 20
-46.1013
 11
-139.195
 21
-46.5358
  0
LINE
  8
0
 10
-139.195
 20
-46.5358
 11
-139.454
 21
-46.9604
  0
LINE
  8
0
 10
-139.454
 20
-46.9604
 11
-139.729
 21
-47.3744
  0
LINE
  8
0
 10
-139.729
 20
-47.3744
 11
-140.02
 21
-47.7771
  0
LINE
  8
0
 10
-140.02
 20
-47.7771
 11
-140.328
 21
-48.1679
  0
LINE
  8
0
 10
-140.328
 20
-48.1679
 11
-140.65
 21
-48.5462
  0
LINE
  8
0
 10
-140.65
 20
-48.5462
 11
-140.987
 21
-48.9113
  0
LINE
  8
0
 10
-140.987
 20
-48.9113
 11
-141.339
 21
-49.2628
  0
LINE
  8
0
 10
-141.339
 20
-49.2628
 11
-141.704
 21
-49.6
  0
LINE
  8
0
 10
-141.704
 20
-49.6
 11
-142.082
 21
-49.9225
  0
LINE
  8
0
 10
-142.082
 20
-49.9225
 11
-142.473
 21
-50.2296
  0
LINE
  8
0
 10
-142.473
 20
-50.2296
 11
-142.501
 21
-50.25
  0
LINE
  8
0
 10
-142.501
 20
-50.25
 11
-7.49597
 21
-50.25
  0
LINE
  8
0
 10
-7.49597
 20
-50.25
 11
-7.72401
 21
-50.078
  0
LINE
  8
0
 10
-7.72401
 20
-50.078
 11
-8.10864
 21
-49.7631
  0
LINE
  8
0
 10
-8.10864
 20
-49.7631
 11
-8.48044
 21
-49.4332
  0
LINE
  8
0
 10
-8.48044
 20
-49.4332
 11
-8.83882
 21
-49.0888
  0
LINE
  8
0
 10
-8.83882
 20
-49.0888
 11
-9.18324
 21
-48.7304
  0
LINE
  8
0
 10
-9.18324
 20
-48.7304
 11
-9.51314
 21
-48.3586
  0
LINE
  8
0
 10
-9.51314
 20
-48.3586
 11
-9.82799
 21
-47.974
  0
LINE
  8
0
 10
-9.82799
 20
-47.974
 11
-10.1273
 21
-47.5772
  0
LINE
  8
0
 10
-10.1273
 20
-47.5772
 11
-10.4106
 21
-47.1688
  0
LINE
  8
0
 10
-10.4106
 20
-47.1688
 11
-10.6774
 21
-46.7494
  0
LINE
  8
0
 10
-10.6774
 20
-46.7494
 11
-10.9274
 21
-46.3198
  0
LINE
  8
0
 10
-10.9274
 20
-46.3198
 11
-11.16
 21
-45.8805
  0
LINE
  8
0
 10
-11.16
 20
-45.8805
 11
-11.3751
 21
-45.4324
  0
LINE
  8
0
 10
-11.3751
 20
-45.4324
 11
-11.5721
 21
-44.9761
  0
LINE
  8
0
 10
-11.5721
 20
-44.9761
 11
-11.7509
 21
-44.5123
  0
LINE
  8
0
 10
-11.7509
 20
-44.5123
 11
-11.911
 21
-44.0417
  0
LINE
  8
0
 10
-11.911
 20
-44.0417
 11
-12.0524
 21
-43.5652
  0
LINE
  8
0
 10
-12.0524
 20
-43.5652
 11
-12.1746
 21
-43.0834
  0
LINE
  8
0
 10
-12.1746
 20
-43.0834
 11
-12.2776
 21
-42.5971
  0
LINE
  8
0
 10
-12.2776
 20
-42.5971
 11
-12.3613
 21
-42.1072
  0
LINE
  8
0
 10
-12.3613
 20
-42.1072
 11
-12.4253
 21
-41.6143
  0
LINE
  8
0
 10
-12.4253
 20
-41.6143
 11
-12.4697
 21
-41.1192
  0
LINE
  8
0
 10
-12.4697
 20
-41.1192
 11
-12.4944
 21
-40.6228
  0
LINE
  8
0
 10
-12.4944
 20
-40.6228
 11
-12.4994
 21
-40.1257
  0
LINE
  8
0
 10
-12.4994
 20
-40.1257
 11
-12.4846
 21
-39.6289
  0
LINE
  8
0
 10
-12.4846
 20
-39.6289
 11
-12.45
 21
-39.133
  0
LINE
  8
0
 10
-12.45
 20
-39.133
 11
-12.3957
 21
-38.6389
  0
LINE
  8
0
 10
-12.3957
 20
-38.6389
 11
-12.3219
 21
-38.1474
  0
LINE
  8
0
 10
-12.3219
 20
-38.1474
 11
-12.2286
 21
-37.6592
  0
LINE
  8
0
 10
-12.2286
 20
-37.6592
 11
-12.1159
 21
-37.1751
  0
LINE
  8
0
 10
-12.1159
 20
-37.1751
 11
-11.9841
 21
-36.6958
  0
LINE
  8
0
 10
-11.9841
 20
-36.6958
 11
-11.8333
 21
-36.2222
  0
LINE
  8
0
 10
-11.8333
 20
-36.2222
 11
-11.6638
 21
-35.7549
  0
LINE
  8
0
 10
-11.6638
 20
-35.7549
 11
-11.4759
 21
-35.2948
  0
LINE
  8
0
 10
-11.4759
 20
-35.2948
 11
-11.2698
 21
-34.8425
  0
LINE
  8
0
 10
-11.2698
 20
-34.8425
 11
-11.0459
 21
-34.3987
  0
LINE
  8
0
 10
-11.0459
 20
-34.3987
 11
-10.8045
 21
-33.9642
  0
LINE
  8
0
 10
-10.8045
 20
-33.9642
 11
-10.5461
 21
-33.5396
  0
LINE
  8
0
 10
-10.5461
 20
-33.5396
 11
-10.271
 21
-33.1256
  0
LINE
  8
0
 10
-10.271
 20
-33.1256
 11
-9.97961
 21
-32.7229
  0
LINE
  8
0
 10
-9.97961
 20
-32.7229
 11
-9.67247
 21
-32.3321
  0
LINE
  8
0
 10
-9.67247
 20
-32.3321
 11
-9.35004
 21
-31.9538
  0
LINE
  8
0
 10
-9.35004
 20
-31.9538
 11
-9.01282
 21
-31.5886
  0
LINE
  8
0
 10
-9.01282
 20
-31.5886
 11
-8.66135
 21
-31.2372
  0
LINE
  8
0
 10
-8.66135
 20
-31.2372
 11
-8.29617
 21
-30.8999
  0
LINE
  8
0
 10
-8.29617
 20
-30.8999
 11
-7.91789
 21
-30.5775
  0
LINE
  8
0
 10
-7.91789
 20
-30.5775
 11
-7.52708
 21
-30.2704
  0
LINE
  8
0
 10
-7.52708
 20
-30.2704
 11
-7.12439
 21
-29.979
  0
LINE
  8
0
 10
-7.12439
 20
-29.979
 11
-6.71042
 21
-29.7039
  0
LINE
  8
0
 10
-6.71042
 20
-29.7039
 11
-6.28583
 21
-29.4454
  0
LINE
  8
0
 10
-6.28583
 20
-29.4454
 11
-5.85132
 21
-29.2041
  0
LINE
  8
0
 10
-5.85132
 20
-29.2041
 11
-5.40753
 21
-28.9802
  0
LINE
  8
0
 10
-5.40753
 20
-28.9802
 11
-4.95522
 21
-28.7741
  0
LINE
  8
0
 10
-4.95522
 20
-28.7741
 11
-4.49506
 21
-28.5862
  0
LINE
  8
0
 10
-4.49506
 20
-28.5862
 11
-4.02779
 21
-28.4167
  0
LINE
  8
0
 10
-4.02779
 20
-28.4167
 11
-3.55415
 21
-28.2659
  0
LINE
  8
0
 10
-3.55415
 20
-28.2659
 11
-3.07491
 21
-28.1341
  0
LINE
  8
0
 10
-3.07491
 20
-28.1341
 11
-2.59079
 21
-28.0214
  0
LINE
  8
0
 10
-2.59079
 20
-28.0214
 11
-2.10257
 21
-27.9281
  0
LINE
  8
0
 10
-2.10257
 20
-27.9281
 11
-1.61104
 21
-27.8542
  0
LINE
  8
0
 10
-1.61104
 20
-27.8542
 11
-1.11694
 21
-27.8
  0
LINE
  8
0
 10
-1.11694
 20
-27.8
 11
-0.621094
 21
-27.7654
  0
LINE
  8
0
 10
-0.621094
 20
-27.7654
 11
-0.124268
 21
-27.7506
  0
LINE
  8
0
 10
-0.124268
 20
-27.7506
 11
0.372757
 21
-27.7556
  0
LINE
  8
0
 10
0.372757
 20
-27.7556
 11
0.869186
 21
-27.7803
  0
LINE
  8
0
 10
0.869186
 20
-27.7803
 11
1.36426
 21
-27.8247
  0
LINE
  8
0
 10
1.36426
 20
-27.8247
 11
1.85716
 21
-27.8887
  0
LINE
  8
0
 10
1.85716
 20
-27.8887
 11
2.34714
 21
-27.9723
  0
LINE
  8
0
 10
2.34714
 20
-27.9723
 11
2.8334
 21
-28.0754
  0
LINE
  8
0
 10
2.8334
 20
-28.0754
 11
3.31519
 21
-28.1976
  0
LINE
  8
0
 10
3.31519
 20
-28.1976
 11
3.79172
 21
-28.339
  0
LINE
  8
0
 10
3.79172
 20
-28.339
 11
4.26227
 21
-28.4991
  0
LINE
  8
0
 10
4.26227
 20
-28.4991
 11
4.72607
 21
-28.6779
  0
LINE
  8
0
 10
4.72607
 20
-28.6779
 11
5.1824
 21
-28.8749
  0
LINE
  8
0
 10
5.1824
 20
-28.8749
 11
5.63054
 21
-29.0899
  0
LINE
  8
0
 10
5.63054
 20
-29.0899
 11
6.06978
 21
-29.3226
  0
LINE
  8
0
 10
6.06978
 20
-29.3226
 11
6.4994
 21
-29.5726
  0
LINE
  8
0
 10
6.4994
 20
-29.5726
 11
6.91876
 21
-29.8394
  0
LINE
  8
0
 10
6.91876
 20
-29.8394
 11
7.32718
 21
-30.1227
  0
LINE
  8
0
 10
7.32718
 20
-30.1227
 11
7.72401
 21
-30.422
  0
LINE
  8
0
 10
7.72401
 20
-30.422
 11
8.10864
 21
-30.7368
  0
LINE
  8
0
 10
8.10864
 20
-30.7368
 11
8.48044
 21
-31.0667
  0
LINE
  8
0
 10
8.48044
 20
-31.0667
 11
8.83882
 21
-31.4112
  0
LINE
  8
0
 10
8.83882
 20
-31.4112
 11
9.18324
 21
-31.7695
  0
LINE
  8
0
 10
9.18324
 20
-31.7695
 11
9.51314
 21
-32.1413
  0
LINE
  8
0
 10
9.51314
 20
-32.1413
 11
9.82799
 21
-32.526
  0
LINE
  8
0
 10
9.82799
 20
-32.526
 11
10.1273
 21
-32.9228
  0
LINE
  8
0
 10
10.1273
 20
-32.9228
 11
10.4106
 21
-33.3312
  0
LINE
  8
0
 10
10.4106
 20
-33.3312
 11
10.6774
 21
-33.7506
  0
LINE
  8
0
 10
10.6774
 20
-33.7506
 11
10.9274
 21
-34.1802
  0
LINE
  8
0
 10
10.9274
 20
-34.1802
 11
11.16
 21
-34.6194
  0
LINE
  8
0
 10
11.16
 20
-34.6194
 11
11.3751
 21
-35.0676
  0
LINE
  8
0
 10
11.3751
 20
-35.0676
 11
11.5721
 21
-35.5239
  0
LINE
  8
0
 10
11.5721
 20
-35.5239
 11
11.7509
 21
-35.9877
  0
LINE
  8
0
 10
11.7509
 20
-35.9877
 11
11.911
 21
-36.4583
  0
LINE
  8
0
 10
11.911
 20
-36.4583
 11
12.0524
 21
-36.9348
  0
LINE
  8
0
 10
12.0524
 20
-36.9348
 11
12.1746
 21
-37.4166
  0
LINE
  8
0
 10
12.1746
 20
-37.4166
 11
12.2776
 21
-37.9028
  0
LINE
  8
0
 10
12.2776
 20
-37.9028
 11
12.3613
 21
-38.3928
  0
LINE
  8
0
 10
12.3613
 20
-38.3928
 11
12.4253
 21
-38.8857
  0
LINE
  8
0
 10
12.4253
 20
-38.8857
 11
12.4697
 21
-39.3808
  0
LINE
  8
0
 10
12.4697
 20
-39.3808
 11
12.4944
 21
-39.8772
  0
LINE
  8
0
 10
12.4944
 20
-39.8772
 11
12.4994
 21
-40.3743
  0
LINE
  8
0
 10
12.4994
 20
-40.3743
 11
12.4846
 21
-40.8711
  0
LINE
  8
0
 10
12.4846
 20
-40.8711
 11
12.45
 21
-41.3669
  0
LINE
  8
0
 10
12.45
 20
-41.3669
 11
12.3957
 21
-41.861
  0
LINE
  8
0
 10
12.3957
 20
-41.861
 11
12.3219
 21
-42.3526
  0
LINE
  8
0
 10
12.3219
 20
-42.3526
 11
12.2286
 21
-42.8408
  0
LINE
  8
0
 10
12.2286
 20
-42.8408
 11
12.1159
 21
-43.3249
  0
LINE
  8
0
 10
12.1159
 20
-43.3249
 11
11.9841
 21
-43.8042
  0
LINE
  8
0
 10
11.9841
 20
-43.8042
 11
11.8333
 21
-44.2778
  0
LINE
  8
0
 10
11.8333
 20
-44.2778
 11
11.6638
 21
-44.7451
  0
LINE
  8
0
 10
11.6638
 20
-44.7451
 11
11.4759
 21
-45.2052
  0
LINE
  8
0
 10
11.4759
 20
-45.2052
 11
11.2698
 21
-45.6575
  0
LINE
  8
0
 10
11.2698
 20
-45.6575
 11
11.0459
 21
-46.1013
  0
LINE
  8
0
 10
11.0459
 20
-46.1013
 11
10.8045
 21
-46.5358
  0
LINE
  8
0
 10
10.8045
 20
-46.5358
 11
10.5461
 21
-46.9604
  0
LINE
  8
0
 10
10.5461
 20
-46.9604
 11
10.271
 21
-47.3744
  0
LINE
  8
0
 10
10.271
 20
-47.3744
 11
9.97961
 21
-47.7771
  0
LINE
  8
0
 10
9.97961
 20
-47.7771
 11
9.67247
 21
-48.1679
  0
LINE
  8
0
 10
9.67247
 20
-48.1679
 11
9.35004
 21
-48.5462
  0
LINE
  8
0
 10
9.35004
 20
-48.5462
 11
9.01282
 21
-48.9113
  0
LINE
  8
0
 10
9.01282
 20
-48.9113
 11
8.66135
 21
-49.2628
  0
LINE
  8
0
 10
8.66135
 20
-49.2628
 11
8.29617
 21
-49.6
  0
LINE
  8
0
 10
8.29617
 20
-49.6
 11
7.91789
 21
-49.9225
  0
LINE
  8
0
 10
7.91789
 20
-49.9225
 11
7.52708
 21
-50.2296
  0
LINE
  8
0
 10
7.52708
 20
-50.2296
 11
7.49892
 21
-50.25
  0
LINE
  8
0
 10
7.49892
 20
-50.25
 11
142.504
 21
-50.25
  0
LINE
  8
0
 10
142.504
 20
-50.25
 11
142.276
 21
-50.078
  0
LINE
  8
0
 10
142.276
 20
-50.078
 11
141.891
 21
-49.7631
  0
LINE
  8
0
 10
141.891
 20
-49.7631
 11
141.52
 21
-49.4332
  0
LINE
  8
0
 10
141.52
 20
-49.4332
 11
141.161
 21
-49.0888
  0
LINE
  8
0
 10
141.161
 20
-49.0888
 11
140.817
 21
-48.7304
  0
LINE
  8
0
 10
140.817
 20
-48.7304
 11
140.487
 21
-48.3586
  0
LINE
  8
0
 10
140.487
 20
-48.3586
 11
140.172
 21
-47.974
  0
LINE
  8
0
 10
140.172
 20
-47.974
 11
139.873
 21
-47.5772
  0
LINE
  8
0
 10
139.873
 20
-47.5772
 11
139.589
 21
-47.1688
  0
LINE
  8
0
 10
139.589
 20
-47.1688
 11
139.323
 21
-46.7494
  0
LINE
  8
0
 10
139.323
 20
-46.7494
 11
139.073
 21
-46.3198
  0
LINE
  8
0
 10
139.073
 20
-46.3198
 11
138.84
 21
-45.8805
  0
LINE
  8
0
 10
138.84
 20
-45.8805
 11
138.625
 21
-45.4324
  0
LINE
  8
0
 10
138.625
 20
-45.4324
 11
138.428
 21
-44.9761
  0
LINE
  8
0
 10
138.428
 20
-44.9761
 11
138.249
 21
-44.5123
  0
LINE
  8
0
 10
138.249
 20
-44.5123
 11
138.089
 21
-44.0417
  0
LINE
  8
0
 10
138.089
 20
-44.0417
 11
137.948
 21
-43.5652
  0
LINE
  8
0
 10
137.948
 20
-43.5652
 11
137.825
 21
-43.0834
  0
LINE
  8
0
 10
137.825
 20
-43.0834
 11
137.722
 21
-42.5971
  0
LINE
  8
0
 10
137.722
 20
-42.5971
 11
137.639
 21
-42.1072
  0
LINE
  8
0
 10
137.639
 20
-42.1072
 11
137.575
 21
-41.6143
  0
LINE
  8
0
 10
137.575
 20
-41.6143
 11
137.53
 21
-41.1192
  0
LINE
  8
0
 10
137.53
 20
-41.1192
 11
137.506
 21
-40.6228
  0
LINE
  8
0
 10
137.506
 20
-40.6228
 11
137.501
 21
-40.1257
  0
LINE
  8
0
 10
137.501
 20
-40.1257
 11
137.515
 21
-39.6289
  0
LINE
  8
0
 10
137.515
 20
-39.6289
 11
137.55
 21
-39.133
  0
LINE
  8
0
 10
137.55
 20
-39.133
 11
137.604
 21
-38.6389
  0
LINE
  8
0
 10
137.604
 20
-38.6389
 11
137.678
 21
-38.1474
  0
LINE
  8
0
 10
137.678
 20
-38.1474
 11
137.771
 21
-37.6592
  0
LINE
  8
0
 10
137.771
 20
-37.6592
 11
137.884
 21
-37.1751
  0
LINE
  8
0
 10
137.884
 20
-37.1751
 11
138.016
 21
-36.6958
  0
LINE
  8
0
 10
138.016
 20
-36.6958
 11
138.167
 21
-36.2222
  0
LINE
  8
0
 10
138.167
 20
-36.2222
 11
138.336
 21
-35.7549
  0
LINE
  8
0
 10
138.336
 20
-35.7549
 11
138.524
 21
-35.2948
  0
LINE
  8
0
 10
138.524
 20
-35.2948
 11
138.73
 21
-34.8425
  0
LINE
  8
0
 10
138.73
 20
-34.8425
 11
138.954
 21
-34.3987
  0
LINE
  8
0
 10
138.954
 20
-34.3987
 11
139.195
 21
-33.9642
  0
LINE
  8
0
 10
139.195
 20
-33.9642
 11
139.454
 21
-33.5396
  0
LINE
  8
0
 10
139.454
 20
-33.5396
 11
139.729
 21
-33.1256
  0
LINE
  8
0
 10
139.729
 20
-33.1256
 11
140.02
 21
-32.7229
  0
LINE
  8
0
 10
140.02
 20
-32.7229
 11
140.328
 21
-32.3321
  0
LINE
  8
0
 10
140.328
 20
-32.3321
 11
140.65
 21
-31.9538
  0
LINE
  8
0
 10
140.65
 20
-31.9538
 11
140.987
 21
-31.5886
  0
LINE
  8
0
 10
140.987
 20
-31.5886
 11
141.339
 21
-31.2372
  0
LINE
  8
0
 10
141.339
 20
-31.2372
 11
141.704
 21
-30.8999
  0
LINE
  8
0
 10
141.704
 20
-30.8999
 11
142.082
 21
-30.5775
  0
LINE
  8
0
 10
142.082
 20
-30.5775
 11
142.473
 21
-30.2704
  0
LINE
  8
0
 10
142.473
 20
-30.2704
 11
142.876
 21
-29.979
  0
LINE
  8
0
 10
142.876
 20
-29.979
 11
143.29
 21
-29.7039
  0
LINE
  8
0
 10
143.29
 20
-29.7039
 11
143.714
 21
-29.4454
  0
LINE
  8
0
 10
143.714
 20
-29.4454
 11
144.149
 21
-29.2041
  0
LINE
  8
0
 10
144.149
 20
-29.2041
 11
144.592
 21
-28.9802
  0
LINE
  8
0
 10
144.592
 20
-28.9802
 11
145.045
 21
-28.7741
  0
LINE
  8
0
 10
145.045
 20
-28.7741
 11
145.505
 21
-28.5862
  0
LINE
  8
0
 10
145.505
 20
-28.5862
 11
145.972
 21
-28.4167
  0
LINE
  8
0
 10
145.972
 20
-28.4167
 11
146.446
 21
-28.2659
  0
LINE
  8
0
 10
146.446
 20
-28.2659
 11
146.925
 21
-28.1341
  0
LINE
  8
0
 10
146.925
 20
-28.1341
 11
147.409
 21
-28.0214
  0
LINE
  8
0
 10
147.409
 20
-28.0214
 11
147.897
 21
-27.9281
  0
LINE
  8
0
 10
147.897
 20
-27.9281
 11
148.389
 21
-27.8542
  0
LINE
  8
0
 10
148.389
 20
-27.8542
 11
148.883
 21
-27.8
  0
LINE
  8
0
 10
148.883
 20
-27.8
 11
149.379
 21
-27.7654
  0
LINE
  8
0
 10
149.379
 20
-27.7654
 11
149.876
 21
-27.7506
  0
LINE
  8
0
 10
149.876
 20
-27.7506
 11
150.373
 21
-27.7556
  0
LINE
  8
0
 10
150.373
 20
-27.7556
 11
150.869
 21
-27.7803
  0
LINE
  8
0
 10
150.869
 20
-27.7803
 11
151.364
 21
-27.8247
  0
LINE
  8
0
 10
151.364
 20
-27.8247
 11
151.857
 21
-27.8887
  0
LINE
  8
0
 10
151.857
 20
-27.8887
 11
152.347
 21
-27.9723
  0
LINE
  8
0
 10
152.347
 20
-27.9723
 11
152.833
 21
-28.0754
  0
LINE
  8
0
 10
152.833
 20
-28.0754
 11
153.315
 21
-28.1976
  0
LINE
  8
0
 10
153.315
 20
-28.1976
 11
153.792
 21
-28.339
  0
LINE
  8
0
 10
153.792
 20
-28.339
 11
154.262
 21
-28.4991
  0
LINE
  8
0
 10
154.262
 20
-28.4991
 11
154.726
 21
-28.6779
  0
LINE
  8
0
 10
154.726
 20
-28.6779
 11
155.182
 21
-28.8749
  0
LINE
  8
0
 10
155.182
 20
-28.8749
 11
155.631
 21
-29.0899
  0
LINE
  8
0
 10
155.631
 20
-29.0899
 11
156.07
 21
-29.3226
  0
LINE
  8
0
 10
156.07
 20
-29.3226
 11
156.499
 21
-29.5726
  0
LINE
  8
0
 10
156.499
 20
-29.5726
 11
156.919
 21
-29.8394
  0
LINE
  8
0
 10
156.919
 20
-29.8394
 11
157.327
 21
-30.1227
  0
LINE
  8
0
 10
157.327
 20
-30.1227
 11
157.724
 21
-30.422
  0
LINE
  8
0
 10
157.724
 20
-30.422
 11
158.109
 21
-30.7368
  0
LINE
  8
0
 10
158.109
 20
-30.7368
 11
158.48
 21
-31.0667
  0
LINE
  8
0
 10
158.48
 20
-31.0667
 11
158.839
 21
-31.4112
  0
LINE
  8
0
 10
158.839
 20
-31.4112
 11
159.183
 21
-31.7695
  0
LINE
  8
0
 10
159.183
 20
-31.7695
 11
159.513
 21
-32.1413
  0
LINE
  8
0
 10
159.513
 20
-32.1413
 11
159.828
 21
-32.526
  0
LINE
  8
0
 10
159.828
 20
-32.526
 11
160.127
 21
-32.9228
  0
LINE
  8
0
 10
160.127
 20
-32.9228
 11
160.411
 21
-33.3312
  0
LINE
  8
0
 10
160.411
 20
-33.3312
 11
160.677
 21
-33.7506
  0
LINE
  8
0
 10
160.677
 20
-33.7506
 11
160.927
 21
-34.1802
  0
LINE
  8
0
 10
160.927
 20
-34.1802
 11
161.16
 21
-34.6194
  0
LINE
  8
0
 10
161.16
 20
-34.6194
 11
161.375
 21
-35.0676
  0
LINE
  8
0
 10
161.375
 20
-35.0676
 11
161.572
 21
-35.5239
  0
LINE
  8
0
 10
161.572
 20
-35.5239
 11
161.751
 21
-35.9877
  0
LINE
  8
0
 10
161.751
 20
-35.9877
 11
161.911
 21
-36.4583
  0
LINE
  8
0
 10
161.911
 20
-36.4583
 11
162.052
 21
-36.9348
  0
LINE
  8
0
 10
162.052
 20
-36.9348
 11
162.175
 21
-37.4166
  0
LINE
  8
0
 10
162.175
 20
-37.4166
 11
162.278
 21
-37.9028
  0
LINE
  8
0
 10
162.278
 20
-37.9028
 11
162.361
 21
-38.3928
  0
LINE
  8
0
 10
162.361
 20
-38.3928
 11
162.425
 21
-38.8857
  0
LINE
  8
0
 10
162.425
 20
-38.8857
 11
162.47
 21
-39.3808
  0
LINE
  8
0
 10
162.47
 20
-39.3808
 11
162.494
 21
-39.8772
  0
LINE
  8
0
 10
162.494
 20
-39.8772
 11
162.499
 21
-40.3743
  0
LINE
  8
0
 10
162.499
 20
-40.3743
 11
162.485
 21
-40.8711
  0
LINE
  8
0
 10
162.485
 20
-40.8711
 11
162.45
 21
-41.3669
  0
LINE
  8
0
 10
162.45
 20
-41.3669
 11
162.396
 21
-41.861
  0
LINE
  8
0
 10
162.396
 20
-41.861
 11
162.322
 21
-42.3526
  0
LINE
  8
0
 10
162.322
 20
-42.3526
 11
162.229
 21
-42.8408
  0
LINE
  8
0
 10
162.229
 20
-42.8408
 11
162.116
 21
-43.3249
  0
LINE
  8
0
 10
162.116
 20
-43.3249
 11
161.984
 21
-43.8042
  0
LINE
  8
0
 10
161.984
 20
-43.8042
 11
161.833
 21
-44.2778
  0
LINE
  8
0
 10
161.833
 20
-44.2778
 11
161.664
 21
-44.7451
  0
LINE
  8
0
 10
161.664
 20
-44.7451
 11
161.476
 21
-45.2052
  0
LINE
  8
0
 10
161.476
 20
-45.2052
 11
161.27
 21
-45.6575
  0
LINE
  8
0
 10
161.27
 20
-45.6575
 11
161.046
 21
-46.1013
  0
LINE
  8
0
 10
161.046
 20
-46.1013
 11
160.805
 21
-46.5358
  0
LINE
  8
0
 10
160.805
 20
-46.5358
 11
160.546
 21
-46.9604
  0
LINE
  8
0
 10
160.546
 20
-46.9604
 11
160.271
 21
-47.3744
  0
LINE
  8
0
 10
160.271
 20
-47.3744
 11
159.98
 21
-47.7771
  0
LINE
  8
0
 10
159.98
 20
-47.7771
 11
159.672
 21
-48.1679
  0
LINE
  8
0
 10
159.672
 20
-48.1679
 11
159.35
 21
-48.5462
  0
LINE
  8
0
 10
159.35
 20
-48.5462
 11
159.013
 21
-48.9113
  0
LINE
  8
0
 10
159.013
 20
-48.9113
 11
158.661
 21
-49.2628
  0
LINE
  8
0
 10
158.661
 20
-49.2628
 11
158.296
 21
-49.6
  0
LINE
  8
0
 10
158.296
 20
-49.6
 11
157.918
 21
-49.9225
  0
LINE
  8
0
 10
157.918
 20
-49.9225
 11
157.527
 21
-50.2296
  0
LINE
  8
0
 10
157.527
 20
-50.2296
 11
157.499
 21
-50.25
  0
LINE
  8
0
 10
157.499
 20
-50.25
 11
219.75
 21
-50.25
  0
LINE
  8
0
 10
219.75
 20
-50.25
 11
219.75
 21
9.75
  0
LINE
  8
0
 10
219.75
 20
9.75
 11
214.247
 21
9.75
  0
LINE
  8
0
 10
214.247
 20
9.75
 11
214.095
 21
10.0607
  0
LINE
  8
0
 10
214.095
 20
10.0607
 11
213.852
 21
10.4922
  0
LINE
  8
0
 10
213.852
 20
10.4922
 11
211.211
 21
15.063
  0
LINE
  8
0
 10
211.211
 20
15.063
 11
210.959
 21
15.4872
  0
LINE
  8
0
 10
210.959
 20
15.4872
 11
210.666
 21
15.8843
  0
LINE
  8
0
 10
210.666
 20
15.8843
 11
210.335
 21
16.2502
  0
LINE
  8
0
 10
210.335
 20
16.2502
 11
187.086
 21
39.4964
  0
LINE
  8
0
 10
187.086
 20
39.4964
 11
186.729
 21
39.8365
  0
LINE
  8
0
 10
186.729
 20
39.8365
 11
186.339
 21
40.1393
  0
LINE
  8
0
 10
186.339
 20
40.1393
 11
185.921
 21
40.4019
  0
LINE
  8
0
 10
185.921
 20
40.4019
 11
185.479
 21
40.6215
  0
LINE
  8
0
 10
185.479
 20
40.6215
 11
185.018
 21
40.7961
  0
LINE
  8
0
 10
185.018
 20
40.7961
 11
184.541
 21
40.9238
  0
LINE
  8
0
 10
184.541
 20
40.9238
 11
184.054
 21
41.0034
  0
LINE
  8
0
 10
184.054
 20
41.0034
 11
183.562
 21
41.0341
  0
LINE
  8
0
 10
183.562
 20
41.0341
 11
183.069
 21
41.0157
  0
LINE
  8
0
 10
183.069
 20
41.0157
 11
182.58
 21
40.9482
  0
LINE
  8
0
 10
182.58
 20
40.9482
 11
182.1
 21
40.8324
  0
LINE
  8
0
 10
182.1
 20
40.8324
 11
181.634
 21
40.6694
  0
LINE
  8
0
 10
181.634
 20
40.6694
 11
181.187
 21
40.4609
  0
LINE
  8
0
 10
181.187
 20
40.4609
 11
180.763
 21
40.2088
  0
LINE
  8
0
 10
180.763
 20
40.2088
 11
180.366
 21
39.9158
  0
LINE
  8
0
 10
180.366
 20
39.9158
 11
180
 21
39.5847
  0
LINE
  8
0
 10
180
 20
39.5847
 11
156.754
 21
16.3363
  0
LINE
  8
0
 10
156.754
 20
16.3363
 11
156.414
 21
15.9788
  0
LINE
  8
0
 10
156.414
 20
15.9788
 11
156.111
 21
15.5892
  0
LINE
  8
0
 10
156.111
 20
15.5892
 11
155.848
 21
15.1714
  0
LINE
  8
0
 10
155.848
 20
15.1714
 11
153.148
 21
10.4922
  0
LINE
  8
0
 10
153.148
 20
10.4922
 11
152.905
 21
10.0607
  0
LINE
  8
0
 10
152.905
 20
10.0607
 11
152.753
 21
9.75
  0
LINE
  8
0
 10
152.753
 20
9.75
 11
-152.753
 21
9.75
  0
LINE
  8
0
 10
-152.753
 20
9.75
 11
-152.905
 21
10.0607
  0
LINE
  8
0
 10
-152.905
 20
10.0607
 11
-153.148
 21
10.4922
  0
LINE
  8
0
 10
-153.148
 20
10.4922
 11
-155.848
 21
15.1714
  0
LINE
  8
0
 10
-155.848
 20
15.1714
 11
-156.111
 21
15.5892
  0
LINE
  8
0
 10
-156.111
 20
15.5892
 11
-156.414
 21
15.9788
  0
LINE
  8
0
 10
-156.414
 20
15.9788
 11
-156.754
 21
16.3363
  0
LINE
  8
0
 10
-156.754
 20
16.3363
 11
-180
 21
39.5847
  0
LINE
  8
0
 10
-180
 20
39.5847
 11
-180.366
 21
39.9158
  0
LINE
  8
0
 10
-180.366
 20
39.9158
 11
-180.763
 21
40.2088
  0
LINE
  8
0
 10
-180.763
 20
40.2088
 11
-181.187
 21
40.4609
  0
LINE
  8
0
 10
-181.187
 20
40.4609
 11
-181.634
 21
40.6694
  0
LINE
  8
0
 10
-181.634
 20
40.6694
 11
-182.1
 21
40.8324
  0
LINE
  8
0
 10
-182.1
 20
40.8324
 11
-182.58
 21
40.9482
  0
LINE
  8
0
 10
-182.58
 20
40.9482
 11
-183.069
 21
41.0157
  0
LINE
  8
0
 10
-183.069
 20
41.0157
 11
-183.562
 21
41.0341
  0
LINE
  8
0
 10
-183.562
 20
41.0341
 11
-184.054
 21
41.0034
  0
LINE
  8
0
 10
-184.054
 20
41.0034
 11
-184.541
 21
40.9238
  0
LINE
  8
0
 10
-184.541
 20
40.9238
 11
-185.018
 21
40.7961
  0
LINE
  8
0
 10
-185.018
 20
40.7961
 11
-185.479
 21
40.6215
  0
LINE
  8
0
 10
-185.479
 20
40.6215
 11
-185.921
 21
40.4019
  0
LINE
  8
0
 10
-185.921
 20
40.4019
 11
-186.339
 21
40.1393
  0
LINE
  8
0
 10
-186.339
 20
40.1393
 11
-186.729
 21
39.8365
  0
LINE
  8
0
 10
-186.729
 20
39.8365
 11
-187.086
 21
39.4964
  0
LINE
  8
0
 10
-187.086
 20
39.4964
 11
-210.335
 21
16.2502
  0
LINE
  8
0
 10
-210.335
 20
16.2502
 11
-210.666
 21
15.8843
  0
LINE
  8
0
 10
-210.666
 20
15.8843
 11
-210.959
 21
15.4872
  0
LINE
  8
0
 10
-210.959
 20
15.4872
 11
-211.211
 21
15.063
  0
LINE
  8
0
 10
-211.211
 20
15.063
 11
-213.852
 21
10.4922
  0
LINE
  8
0
 10
-213.852
 20
10.4922
 11
-214.095
 21
10.0607
  0
LINE
  8
0
 10
-214.095
 20
10.0607
 11
-214.247
 21
9.75
  0
LINE
  8
0
 10
-214.247
 20
9.75
 11
-219.75
 21
9.75
  0
LINE
  8
0
 10
-219.75
 20
9.75
 11
-219.75
 21
-50.25
  0
LINE
  8
0
 10
-219.75
 20
-50.25
 11
-157.496
 21
-50.25
  0
LINE
  8
0
 10
-157.496
 20
-50.25
 11
-157.724
 21
-50.078
  0
LINE
  8
0
 10
-183.861
 20
31.5949
 11
-184.315
 21
31.764
  0
LINE
  8
0
 10
-184.315
 20
31.764
 11
-184.702
 21
32.054
  0
LINE
  8
0
 10
-184.702
 20
32.054
 11
-184.992
 21
32.4414
  0
LINE
  8
0
 10
-184.992
 20
32.4414
 11
-185.161
 21
32.8947
  0
LINE
  8
0
 10
-185.161
 20
32.8947
 11
-185.196
 21
33.3774
  0
LINE
  8
0
 10
-185.196
 20
33.3774
 11
-185.196
 21
36.2058
  0
LINE
  8
0
 10
-185.196
 20
36.2058
 11
-185.093
 21
36.6786
  0
LINE
  8
0
 10
-185.093
 20
36.6786
 11
-184.861
 21
37.1033
  0
LINE
  8
0
 10
-184.861
 20
37.1033
 11
-184.519
 21
37.4454
  0
LINE
  8
0
 10
-184.519
 20
37.4454
 11
-184.094
 21
37.6773
  0
LINE
  8
0
 10
-184.094
 20
37.6773
 11
-183.621
 21
37.7802
  0
LINE
  8
0
 10
-183.621
 20
37.7802
 11
-183.139
 21
37.7457
  0
LINE
  8
0
 10
-183.139
 20
37.7457
 11
-182.685
 21
37.5766
  0
LINE
  8
0
 10
-182.685
 20
37.5766
 11
-182.298
 21
37.2866
  0
LINE
  8
0
 10
-182.298
 20
37.2866
 11
-182.008
 21
36.8992
  0
LINE
  8
0
 10
-182.008
 20
36.8992
 11
-181.839
 21
36.4459
  0
LINE
  8
0
 10
-181.839
 20
36.4459
 11
-181.804
 21
35.9632
  0
LINE
  8
0
 10
-181.804
 20
35.9632
 11
-181.804
 21
33.1348
  0
LINE
  8
0
 10
-181.804
 20
33.1348
 11
-181.907
 21
32.662
  0
LINE
  8
0
 10
-181.907
 20
32.662
 11
-182.139
 21
32.2373
  0
LINE
  8
0
 10
-182.139
 20
32.2373
 11
-182.481
 21
31.8952
  0
LINE
  8
0
 10
-182.481
 20
31.8952
 11
-182.906
 21
31.6633
  0
LINE
  8
0
 10
-182.906
 20
31.6633
 11
-183.379
 21
31.5604
  0
LINE
  8
0
 10
-183.379
 20
31.5604
 11
-183.861
 21
31.5949
  0
LINE
  8
0
 10
182.906
 20
31.6633
 11
182.481
 21
31.8952
  0
LINE
  8
0
 10
182.481
 20
31.8952
 11
182.139
 21
32.2373
  0
LINE
  8
0
 10
182.139
 20
32.2373
 11
181.907
 21
32.662
  0
LINE
  8
0
 10
181.907
 20
32.662
 11
181.804
 21
33.1348
  0
LINE
  8
0
 10
181.804
 20
33.1348
 11
181.804
 21
35.9632
  0
LINE
  8
0
 10
181.804
 20
35.9632
 11
181.839
 21
36.4459
  0
LINE
  8
0
 10
181.839
 20
36.4459
 11
182.008
 21
36.8992
  0
LINE
  8
0
 10
182.008
 20
36.8992
 11
182.298
 21
37.2866
  0
LINE
  8
0
 10
182.298
 20
37.2866
 11
182.685
 21
37.5766
  0
LINE
  8
0
 10
182.685
 20
37.5766
 11
183.139
 21
37.7457
  0
LINE
  8
0
 10
183.139
 20
37.7457
 11
183.621
 21
37.7802
  0
LINE
  8
0
 10
183.621
 20
37.7802
 11
184.094
 21
37.6773
  0
LINE
  8
0
 10
184.094
 20
37.6773
 11
184.519
 21
37.4454
  0
LINE
  8
0
 10
184.519
 20
37.4454
 11
184.861
 21
37.1033
  0
LINE
  8
0
 10
184.861
 20
37.1033
 11
185.093
 21
36.6786
  0
LINE
  8
0
 10
185.093
 20
36.6786
 11
185.196
 21
36.2058
  0
LINE
  8
0
 10
185.196
 20
36.2058
 11
185.196
 21
33.3774
  0
LINE
  8
0
 10
185.196
 20
33.3774
 11
185.161
 21
32.8947
  0
LINE
  8
0
 10
185.161
 20
32.8947
 11
184.992
 21
32.4414
  0
LINE
  8
0
 10
184.992
 20
32.4414
 11
184.702
 21
32.054
  0
LINE
  8
0
 10
184.702
 20
32.054
 11
184.315
 21
31.764
  0
LINE
  8
0
 10
184.315
 20
31.764
 11
183.861
 21
31.5949
  0
LINE
  8
0
 10
183.861
 20
31.5949
 11
183.379
 21
31.5604
  0
LINE
  8
0
 10
183.379
 20
31.5604
 11
182.906
 21
31.6633
  0
LINE
  8
0
 10
182.879
 20
0.265427
 11
182.383
 21
0.300003
  0
LINE
  8
0
 10
182.383
 20
0.300003
 11
181.889
 21
0.354248
  0
LINE
  8
0
 10
181.889
 20
0.354248
 11
181.397
 21
0.428101
  0
LINE
  8
0
 10
181.397
 20
0.428101
 11
180.909
 21
0.521423
  0
LINE
  8
0
 10
180.909
 20
0.521423
 11
180.425
 21
0.634094
  0
LINE
  8
0
 10
180.425
 20
0.634094
 11
179.946
 21
0.76593
  0
LINE
  8
0
 10
179.946
 20
0.76593
 11
179.472
 21
0.916702
  0
LINE
  8
0
 10
179.472
 20
0.916702
 11
179.005
 21
1.08618
  0
LINE
  8
0
 10
179.005
 20
1.08618
 11
178.545
 21
1.27411
  0
LINE
  8
0
 10
178.545
 20
1.27411
 11
178.092
 21
1.48019
  0
LINE
  8
0
 10
178.092
 20
1.48019
 11
177.649
 21
1.70409
  0
LINE
  8
0
 10
177.649
 20
1.70409
 11
177.214
 21
1.94545
  0
LINE
  8
0
 10
177.214
 20
1.94545
 11
176.79
 21
2.20389
  0
LINE
  8
0
 10
176.79
 20
2.20389
 11
176.376
 21
2.47902
  0
LINE
  8
0
 10
176.376
 20
2.47902
 11
175.973
 21
2.77037
  0
LINE
  8
0
 10
175.973
 20
2.77037
 11
175.582
 21
3.07751
  0
LINE
  8
0
 10
175.582
 20
3.07751
 11
175.204
 21
3.39995
  0
LINE
  8
0
 10
175.204
 20
3.39995
 11
174.839
 21
3.73717
  0
LINE
  8
0
 10
174.839
 20
3.73717
 11
174.487
 21
4.08864
  0
LINE
  8
0
 10
174.487
 20
4.08864
 11
174.15
 21
4.45381
  0
LINE
  8
0
 10
174.15
 20
4.45381
 11
173.828
 21
4.83209
  0
LINE
  8
0
 10
173.828
 20
4.83209
 11
173.52
 21
5.2229
  0
LINE
  8
0
 10
173.52
 20
5.2229
 11
173.229
 21
5.6256
  0
LINE
  8
0
 10
173.229
 20
5.6256
 11
172.954
 21
6.03957
  0
LINE
  8
0
 10
172.954
 20
6.03957
 11
172.695
 21
6.46416
  0
LINE
  8
0
 10
172.695
 20
6.46416
 11
172.454
 21
6.89867
  0
LINE
  8
0
 10
172.454
 20
6.89867
 11
172.23
 21
7.34245
  0
LINE
  8
0
 10
172.23
 20
7.34245
 11
172.024
 21
7.79477
  0
LINE
  8
0
 10
172.024
 20
7.79477
 11
171.836
 21
8.25493
  0
LINE
  8
0
 10
171.836
 20
8.25493
 11
171.667
 21
8.7222
  0
LINE
  8
0
 10
171.667
 20
8.7222
 11
171.516
 21
9.19583
  0
LINE
  8
0
 10
171.516
 20
9.19583
 11
171.384
 21
9.67508
  0
LINE
  8
0
 10
171.384
 20
9.67508
 11
171.271
 21
10.1592
  0
LINE
  8
0
 10
171.271
 20
10.1592
 11
171.178
 21
10.6474
  0
LINE
  8
0
 10
171.178
 20
10.6474
 11
171.104
 21
11.1389
  0
LINE
  8
0
 10
171.104
 20
11.1389
 11
171.05
 21
11.633
  0
LINE
  8
0
 10
171.05
 20
11.633
 11
171.015
 21
12.1289
  0
LINE
  8
0
 10
171.015
 20
12.1289
 11
171.001
 21
12.6257
  0
LINE
  8
0
 10
171.001
 20
12.6257
 11
171.006
 21
13.1228
  0
LINE
  8
0
 10
171.006
 20
13.1228
 11
171.03
 21
13.6192
  0
LINE
  8
0
 10
171.03
 20
13.6192
 11
171.075
 21
14.1143
  0
LINE
  8
0
 10
171.075
 20
14.1143
 11
171.139
 21
14.6072
  0
LINE
  8
0
 10
171.139
 20
14.6072
 11
171.222
 21
15.0971
  0
LINE
  8
0
 10
171.222
 20
15.0971
 11
171.325
 21
15.5834
  0
LINE
  8
0
 10
171.325
 20
15.5834
 11
171.448
 21
16.0652
  0
LINE
  8
0
 10
171.448
 20
16.0652
 11
171.589
 21
16.5417
  0
LINE
  8
0
 10
171.589
 20
16.5417
 11
171.749
 21
17.0123
  0
LINE
  8
0
 10
171.749
 20
17.0123
 11
171.928
 21
17.4761
  0
LINE
  8
0
 10
171.928
 20
17.4761
 11
172.125
 21
17.9324
  0
LINE
  8
0
 10
172.125
 20
17.9324
 11
172.34
 21
18.3805
  0
LINE
  8
0
 10
172.34
 20
18.3805
 11
172.573
 21
18.8198
  0
LINE
  8
0
 10
172.573
 20
18.8198
 11
172.823
 21
19.2494
  0
LINE
  8
0
 10
172.823
 20
19.2494
 11
173.089
 21
19.6688
  0
LINE
  8
0
 10
173.089
 20
19.6688
 11
173.373
 21
20.0772
  0
LINE
  8
0
 10
173.373
 20
20.0772
 11
173.672
 21
20.474
  0
LINE
  8
0
 10
173.672
 20
20.474
 11
173.987
 21
20.8586
  0
LINE
  8
0
 10
173.987
 20
20.8586
 11
174.317
 21
21.2304
  0
LINE
  8
0
 10
174.317
 20
21.2304
 11
174.661
 21
21.5888
  0
LINE
  8
0
 10
174.661
 20
21.5888
 11
175.02
 21
21.9332
  0
LINE
  8
0
 10
175.02
 20
21.9332
 11
175.391
 21
22.2631
  0
LINE
  8
0
 10
175.391
 20
22.2631
 11
175.776
 21
22.578
  0
LINE
  8
0
 10
175.776
 20
22.578
 11
176.173
 21
22.8773
  0
LINE
  8
0
 10
176.173
 20
22.8773
 11
176.581
 21
23.1606
  0
LINE
  8
0
 10
176.581
 20
23.1606
 11
177.001
 21
23.4274
  0
LINE
  8
0
 10
177.001
 20
23.4274
 11
177.43
 21
23.6774
  0
LINE
  8
0
 10
177.43
 20
23.6774
 11
177.869
 21
23.91
  0
LINE
  8
0
 10
177.869
 20
23.91
 11
178.318
 21
24.1251
  0
LINE
  8
0
 10
178.318
 20
24.1251
 11
178.774
 21
24.3221
  0
LINE
  8
0
 10
178.774
 20
24.3221
 11
179.238
 21
24.5009
  0
LINE
  8
0
 10
179.238
 20
24.5009
 11
179.708
 21
24.661
  0
LINE
  8
0
 10
179.708
 20
24.661
 11
180.185
 21
24.8024
  0
LINE
  8
0
 10
180.185
 20
24.8024
 11
180.667
 21
24.9246
  0
LINE
  8
0
 10
180.667
 20
24.9246
 11
181.153
 21
25.0276
  0
LINE
  8
0
 10
181.153
 20
25.0276
 11
181.643
 21
25.1113
  0
LINE
  8
0
 10
181.643
 20
25.1113
 11
182.136
 21
25.1753
  0
LINE
  8
0
 10
182.136
 20
25.1753
 11
182.631
 21
25.2197
  0
LINE
  8
0
 10
182.631
 20
25.2197
 11
183.127
 21
25.2444
  0
LINE
  8
0
 10
183.127
 20
25.2444
 11
183.624
 21
25.2494
  0
LINE
  8
0
 10
183.624
 20
25.2494
 11
184.121
 21
25.2346
  0
LINE
  8
0
 10
184.121
 20
25.2346
 11
184.617
 21
25.2
  0
LINE
  8
0
 10
184.617
 20
25.2
 11
185.111
 21
25.1457
  0
LINE
  8
0
 10
185.111
 20
25.1457
 11
185.603
 21
25.0719
  0
LINE
  8
0
 10
185.603
 20
25.0719
 11
186.091
 21
24.9786
  0
LINE
  8
0
 10
186.091
 20
24.9786
 11
186.575
 21
24.8659
  0
LINE
  8
0
 10
186.575
 20
24.8659
 11
187.054
 21
24.7341
  0
LINE
  8
0
 10
187.054
 20
24.7341
 11
187.528
 21
24.5833
  0
LINE
  8
0
 10
187.528
 20
24.5833
 11
187.995
 21
24.4138
  0
LINE
  8
0
 10
187.995
 20
24.4138
 11
188.455
 21
24.2259
  0
LINE
  8
0
 10
188.455
 20
24.2259
 11
188.908
 21
24.0198
  0
LINE
  8
0
 10
188.908
 20
24.0198
 11
189.351
 21
23.7959
  0
LINE
  8
0
 10
189.351
 20
23.7959
 11
189.786
 21
23.5545
  0
LINE
  8
0
 10
189.786
 20
23.5545
 11
190.21
 21
23.2961
  0
LINE
  8
0
 10
190.21
 20
23.2961
 11
190.624
 21
23.021
  0
LINE
  8
0
 10
190.624
 20
23.021
 11
191.027
 21
22.7296
  0
LINE
  8
0
 10
191.027
 20
22.7296
 11
191.418
 21
22.4225
  0
LINE
  8
0
 10
191.418
 20
22.4225
 11
191.796
 21
22.1
  0
LINE
  8
0
 10
191.796
 20
22.1
 11
192.161
 21
21.7628
  0
LINE
  8
0
 10
192.161
 20
21.7628
 11
192.513
 21
21.4113
  0
LINE
  8
0
 10
192.513
 20
21.4113
 11
192.85
 21
21.0462
  0
LINE
  8
0
 10
192.85
 20
21.0462
 11
193.172
 21
20.6679
  0
LINE
  8
0
 10
193.172
 20
20.6679
 11
193.48
 21
20.2771
  0
LINE
  8
0
 10
193.48
 20
20.2771
 11
193.771
 21
19.8744
  0
LINE
  8
0
 10
193.771
 20
19.8744
 11
194.046
 21
19.4604
  0
LINE
  8
0
 10
194.046
 20
19.4604
 11
194.305
 21
19.0358
  0
LINE
  8
0
 10
194.305
 20
19.0358
 11
194.546
 21
18.6013
  0
LINE
  8
0
 10
194.546
 20
18.6013
 11
194.77
 21
18.1575
  0
LINE
  8
0
 10
194.77
 20
18.1575
 11
194.976
 21
17.7052
  0
LINE
  8
0
 10
194.976
 20
17.7052
 11
195.164
 21
17.2451
  0
LINE
  8
0
 10
195.164
 20
17.2451
 11
195.333
 21
16.7778
  0
LINE
  8
0
 10
195.333
 20
16.7778
 11
195.484
 21
16.3042
  0
LINE
  8
0
 10
195.484
 20
16.3042
 11
195.616
 21
15.8249
  0
LINE
  8
0
 10
195.616
 20
15.8249
 11
195.729
 21
15.3408
  0
LINE
  8
0
 10
195.729
 20
15.3408
 11
195.822
 21
14.8526
  0
LINE
  8
0
 10
195.822
 20
14.8526
 11
195.896
 21
14.361
  0
LINE
  8
0
 10
195.896
 20
14.361
 11
195.95
 21
13.8669
  0
LINE
  8
0
 10
195.95
 20
13.8669
 11
195.985
 21
13.3711
  0
LINE
  8
0
 10
195.985
 20
13.3711
 11
195.999
 21
12.8743
  0
LINE
  8
0
 10
195.999
 20
12.8743
 11
195.994
 21
12.3772
  0
LINE
  8
0
 10
195.994
 20
12.3772
 11
195.97
 21
11.8808
  0
LINE
  8
0
 10
195.97
 20
11.8808
 11
195.925
 21
11.3857
  0
LINE
  8
0
 10
195.925
 20
11.3857
 11
195.861
 21
10.8928
  0
LINE
  8
0
 10
195.861
 20
10.8928
 11
195.778
 21
10.4028
  0
LINE
  8
0
 10
195.778
 20
10.4028
 11
195.675
 21
9.91658
  0
LINE
  8
0
 10
195.675
 20
9.91658
 11
195.552
 21
9.4348
  0
LINE
  8
0
 10
195.552
 20
9.4348
 11
195.411
 21
8.95827
  0
LINE
  8
0
 10
195.411
 20
8.95827
 11
195.251
 21
8.48772
  0
LINE
  8
0
 10
195.251
 20
8.48772
 11
195.072
 21
8.02391
  0
LINE
  8
0
 10
195.072
 20
8.02391
 11
194.875
 21
7.56758
  0
LINE
  8
0
 10
194.875
 20
7.56758
 11
194.66
 21
7.11945
  0
LINE
  8
0
 10
194.66
 20
7.11945
 11
194.427
 21
6.68021
  0
LINE
  8
0
 10
194.427
 20
6.68021
 11
194.177
 21
6.25058
  0
LINE
  8
0
 10
194.177
 20
6.25058
 11
193.911
 21
5.83122
  0
LINE
  8
0
 10
193.911
 20
5.83122
 11
193.627
 21
5.42281
  0
LINE
  8
0
 10
193.627
 20
5.42281
 11
193.328
 21
5.02597
  0
LINE
  8
0
 10
193.328
 20
5.02597
 11
193.013
 21
4.64134
  0
LINE
  8
0
 10
193.013
 20
4.64134
 11
192.683
 21
4.26955
  0
LINE
  8
0
 10
192.683
 20
4.26955
 11
192.339
 21
3.91116
  0
LINE
  8
0
 10
192.339
 20
3.91116
 11
191.98
 21
3.56674
  0
LINE
  8
0
 10
191.98
 20
3.56674
 11
191.609
 21
3.23685
  0
LINE
  8
0
 10
191.609
 20
3.23685
 11
191.224
 21
2.922
  0
LINE
  8
0
 10
191.224
 20
2.922
 11
190.827
 21
2.6227
  0
LINE
  8
0
 10
190.827
 20
2.6227
 11
190.419
 21
2.3394
  0
LINE
  8
0
 10
190.419
 20
2.3394
 11
189.999
 21
2.07256
  0
LINE
  8
0
 10
189.999
 20
2.07256
 11
189.57
 21
1.8226
  0
LINE
  8
0
 10
189.57
 20
1.8226
 11
189.131
 21
1.58994
  0
LINE
  8
0
 10
189.131
 20
1.58994
 11
188.682
 21
1.37491
  0
LINE
  8
0
 10
188.682
 20
1.37491
 11
188.226
 21
1.17786
  0
LINE
  8
0
 10
188.226
 20
1.17786
 11
187.762
 21
0.999115
  0
LINE
  8
0
 10
187.762
 20
0.999115
 11
187.292
 21
0.838959
  0
LINE
  8
0
 10
187.292
 20
0.838959
 11
186.815
 21
0.697632
  0
LINE
  8
0
 10
186.815
 20
0.697632
 11
186.333
 21
0.575363
  0
LINE
  8
0
 10
186.333
 20
0.575363
 11
185.847
 21
0.472336
  0
LINE
  8
0
 10
185.847
 20
0.472336
 11
185.357
 21
0.388733
  0
LINE
  8
0
 10
185.357
 20
0.388733
 11
184.864
 21
0.324661
  0
LINE
  8
0
 10
184.864
 20
0.324661
 11
184.369
 21
0.280243
  0
LINE
  8
0
 10
184.369
 20
0.280243
 11
183.873
 21
0.255554
  0
LINE
  8
0
 10
183.873
 20
0.255554
 11
183.376
 21
0.25061
  0
LINE
  8
0
 10
183.376
 20
0.25061
 11
182.879
 21
0.265427
  0
LINE
  8
0
 10
-183.873
 20
0.255554
 11
-184.369
 21
0.280243
  0
LINE
  8
0
 10
-184.369
 20
0.280243
 11
-184.864
 21
0.324661
  0
LINE
  8
0
 10
-184.864
 20
0.324661
 11
-185.357
 21
0.388733
  0
LINE
  8
0
 10
-185.357
 20
0.388733
 11
-185.847
 21
0.472336
  0
LINE
  8
0
 10
-185.847
 20
0.472336
 11
-186.333
 21
0.575363
  0
LINE
  8
0
 10
-186.333
 20
0.575363
 11
-186.815
 21
0.697632
  0
LINE
  8
0
 10
-186.815
 20
0.697632
 11
-187.292
 21
0.838959
  0
LINE
  8
0
 10
-187.292
 20
0.838959
 11
-187.762
 21
0.999115
  0
LINE
  8
0
 10
-187.762
 20
0.999115
 11
-188.226
 21
1.17786
  0
LINE
  8
0
 10
-188.226
 20
1.17786
 11
-188.682
 21
1.37491
  0
LINE
  8
0
 10
-188.682
 20
1.37491
 11
-189.131
 21
1.58994
  0
LINE
  8
0
 10
-189.131
 20
1.58994
 11
-189.57
 21
1.8226
  0
LINE
  8
0
 10
-189.57
 20
1.8226
 11
-189.999
 21
2.07256
  0
LINE
  8
0
 10
-189.999
 20
2.07256
 11
-190.419
 21
2.3394
  0
LINE
  8
0
 10
-190.419
 20
2.3394
 11
-190.827
 21
2.6227
  0
LINE
  8
0
 10
-190.827
 20
2.6227
 11
-191.224
 21
2.922
  0
LINE
  8
0
 10
-191.224
 20
2.922
 11
-191.609
 21
3.23685
  0
LINE
  8
0
 10
-191.609
 20
3.23685
 11
-191.98
 21
3.56674
  0
LINE
  8
0
 10
-191.98
 20
3.56674
 11
-192.339
 21
3.91116
  0
LINE
  8
0
 10
-192.339
 20
3.91116
 11
-192.683
 21
4.26955
  0
LINE
  8
0
 10
-192.683
 20
4.26955
 11
-193.013
 21
4.64134
  0
LINE
  8
0
 10
-193.013
 20
4.64134
 11
-193.328
 21
5.02597
  0
LINE
  8
0
 10
-193.328
 20
5.02597
 11
-193.627
 21
5.42281
  0
LINE
  8
0
 10
-193.627
 20
5.42281
 11
-193.911
 21
5.83122
  0
LINE
  8
0
 10
-193.911
 20
5.83122
 11
-194.177
 21
6.25058
  0
LINE
  8
0
 10
-194.177
 20
6.25058
 11
-194.427
 21
6.68021
  0
LINE
  8
0
 10
-194.427
 20
6.68021
 11
-194.66
 21
7.11945
  0
LINE
  8
0
 10
-194.66
 20
7.11945
 11
-194.875
 21
7.56758
  0
LINE
  8
0
 10
-194.875
 20
7.56758
 11
-195.072
 21
8.02391
  0
LINE
  8
0
 10
-195.072
 20
8.02391
 11
-195.251
 21
8.48772
  0
LINE
  8
0
 10
-195.251
 20
8.48772
 11
-195.411
 21
8.95827
  0
LINE
  8
0
 10
-195.411
 20
8.95827
 11
-195.552
 21
9.4348
  0
LINE
  8
0
 10
-195.552
 20
9.4348
 11
-195.675
 21
9.91658
  0
LINE
  8
0
 10
-195.675
 20
9.91658
 11
-195.778
 21
10.4028
  0
LINE
  8
0
 10
-195.778
 20
10.4028
 11
-195.861
 21
10.8928
  0
LINE
  8
0
 10
-195.861
 20
10.8928
 11
-195.925
 21
11.3857
  0
LINE
  8
0
 10
-195.925
 20
11.3857
 11
-195.97
 21
11.8808
  0
LINE
  8
0
 10
-195.97
 20
11.8808
 11
-195.994
 21
12.3772
  0
LINE
  8
0
 10
-195.994
 20
12.3772
 11
-195.999
 21
12.8743
  0
LINE
  8
0
 10
-195.999
 20
12.8743
 11
-195.985
 21
13.3711
  0
LINE
  8
0
 10
-195.985
 20
13.3711
 11
-195.95
 21
13.8669
  0
LINE
  8
0
 10
-195.95
 20
13.8669
 11
-195.896
 21
14.361
  0
LINE
  8
0
 10
-195.896
 20
14.361
 11
-195.822
 21
14.8526
  0
LINE
  8
0
 10
-195.822
 20
14.8526
 11
-195.729
 21
15.3408
  0
LINE
  8
0
 10
-195.729
 20
15.3408
 11
-195.616
 21
15.8249
  0
LINE
  8
0
 10
-195.616
 20
15.8249
 11
-195.484
 21
16.3042
  0
LINE
  8
0
 10
-195.484
 20
16.3042
 11
-195.333
 21
16.7778
  0
LINE
  8
0
 10
-195.333
 20
16.7778
 11
-195.164
 21
17.2451
  0
LINE
  8
0
 10
-195.164
 20
17.2451
 11
-194.976
 21
17.7052
  0
LINE
  8
0
 10
-194.976
 20
17.7052
 11
-194.77
 21
18.1575
  0
LINE
  8
0
 10
-194.77
 20
18.1575
 11
-194.546
 21
18.6013
  0
LINE
  8
0
 10
-194.546
 20
18.6013
 11
-194.305
 21
19.0358
  0
LINE
  8
0
 10
-194.305
 20
19.0358
 11
-194.046
 21
19.4604
  0
LINE
  8
0
 10
-194.046
 20
19.4604
 11
-193.771
 21
19.8744
  0
LINE
  8
0
 10
-193.771
 20
19.8744
 11
-193.48
 21
20.2771
  0
LINE
  8
0
 10
-193.48
 20
20.2771
 11
-193.172
 21
20.6679
  0
LINE
  8
0
 10
-193.172
 20
20.6679
 11
-192.85
 21
21.0462
  0
LINE
  8
0
 10
-192.85
 20
21.0462
 11
-192.513
 21
21.4113
  0
LINE
  8
0
 10
-192.513
 20
21.4113
 11
-192.161
 21
21.7628
  0
LINE
  8
0
 10
-192.161
 20
21.7628
 11
-191.796
 21
22.1
  0
LINE
  8
0
 10
-191.796
 20
22.1
 11
-191.418
 21
22.4225
  0
LINE
  8
0
 10
-191.418
 20
22.4225
 11
-191.027
 21
22.7296
  0
LINE
  8
0
 10
-191.027
 20
22.7296
 11
-190.624
 21
23.021
  0
LINE
  8
0
 10
-190.624
 20
23.021
 11
-190.21
 21
23.2961
  0
LINE
  8
0
 10
-190.21
 20
23.2961
 11
-189.786
 21
23.5545
  0
LINE
  8
0
 10
-189.786
 20
23.5545
 11
-189.351
 21
23.7959
  0
LINE
  8
0
 10
-189.351
 20
23.7959
 11
-188.908
 21
24.0198
  0
LINE
  8
0
 10
-188.908
 20
24.0198
 11
-188.455
 21
24.2259
  0
LINE
  8
0
 10
-188.455
 20
24.2259
 11
-187.995
 21
24.4138
  0
LINE
  8
0
 10
-187.995
 20
24.4138
 11
-187.528
 21
24.5833
  0
LINE
  8
0
 10
-187.528
 20
24.5833
 11
-187.054
 21
24.7341
  0
LINE
  8
0
 10
-187.054
 20
24.7341
 11
-186.575
 21
24.8659
  0
LINE
  8
0
 10
-186.575
 20
24.8659
 11
-186.091
 21
24.9786
  0
LINE
  8
0
 10
-186.091
 20
24.9786
 11
-185.603
 21
25.0719
  0
LINE
  8
0
 10
-185.603
 20
25.0719
 11
-185.111
 21
25.1457
  0
LINE
  8
0
 10
-185.111
 20
25.1457
 11
-184.617
 21
25.2
  0
LINE
  8
0
 10
-184.617
 20
25.2
 11
-184.121
 21
25.2346
  0
LINE
  8
0
 10
-184.121
 20
25.2346
 11
-183.624
 21
25.2494
  0
LINE
  8
0
 10
-183.624
 20
25.2494
 11
-183.127
 21
25.2444
  0
LINE
  8
0
 10
-183.127
 20
25.2444
 11
-182.631
 21
25.2197
  0
LINE
  8
0
 10
-182.631
 20
25.2197
 11
-182.136
 21
25.1753
  0
LINE
  8
0
 10
-182.136
 20
25.1753
 11
-181.643
 21
25.1113
  0
LINE
  8
0
 10
-181.643
 20
25.1113
 11
-181.153
 21
25.0276
  0
LINE
  8
0
 10
-181.153
 20
25.0276
 11
-180.667
 21
24.9246
  0
LINE
  8
0
 10
-180.667
 20
24.9246
 11
-180.185
 21
24.8024
  0
LINE
  8
0
 10
-180.185
 20
24.8024
 11
-179.708
 21
24.661
  0
LINE
  8
0
 10
-179.708
 20
24.661
 11
-179.238
 21
24.5009
  0
LINE
  8
0
 10
-179.238
 20
24.5009
 11
-178.774
 21
24.3221
  0
LINE
  8
0
 10
-178.774
 20
24.3221
 11
-178.318
 21
24.1251
  0
LINE
  8
0
 10
-178.318
 20
24.1251
 11
-177.869
 21
23.91
  0
LINE
  8
0
 10
-177.869
 20
23.91
 11
-177.43
 21
23.6774
  0
LINE
  8
0
 10
-177.43
 20
23.6774
 11
-177.001
 21
23.4274
  0
LINE
  8
0
 10
-177.001
 20
23.4274
 11
-176.581
 21
23.1606
  0
LINE
  8
0
 10
-176.581
 20
23.1606
 11
-176.173
 21
22.8773
  0
LINE
  8
0
 10
-176.173
 20
22.8773
 11
-175.776
 21
22.578
  0
LINE
  8
0
 10
-175.776
 20
22.578
 11
-175.391
 21
22.2631
  0
LINE
  8
0
 10
-175.391
 20
22.2631
 11
-175.02
 21
21.9332
  0
LINE
  8
0
 10
-175.02
 20
21.9332
 11
-174.661
 21
21.5888
  0
LINE
  8
0
 10
-174.661
 20
21.5888
 11
-174.317
 21
21.2304
  0
LINE
  8
0
 10
-174.317
 20
21.2304
 11
-173.987
 21
20.8586
  0
LINE
  8
0
 10
-173.987
 20
20.8586
 11
-173.672
 21
20.474
  0
LINE
  8
0
 10
-173.672
 20
20.474
 11
-173.373
 21
20.0772
  0
LINE
  8
0
 10
-173.373
 20
20.0772
 11
-173.089
 21
19.6688
  0
LINE
  8
0
 10
-173.089
 20
19.6688
 11
-172.823
 21
19.2494
  0
LINE
  8
0
 10
-172.823
 20
19.2494
 11
-172.573
 21
18.8198
  0
LINE
  8
0
 10
-172.573
 20
18.8198
 11
-172.34
 21
18.3805
  0
LINE
  8
0
 10
-172.34
 20
18.3805
 11
-172.125
 21
17.9324
  0
LINE
  8
0
 10
-172.125
 20
17.9324
 11
-171.928
 21
17.4761
  0
LINE
  8
0
 10
-171.928
 20
17.4761
 11
-171.749
 21
17.0123
  0
LINE
  8
0
 10
-171.749
 20
17.0123
 11
-171.589
 21
16.5417
  0
LINE
  8
0
 10
-171.589
 20
16.5417
 11
-171.448
 21
16.0652
  0
LINE
  8
0
 10
-171.448
 20
16.0652
 11
-171.325
 21
15.5834
  0
LINE
  8
0
 10
-171.325
 20
15.5834
 11
-171.222
 21
15.0971
  0
LINE
  8
0
 10
-171.222
 20
15.0971
 11
-171.139
 21
14.6072
  0
LINE
  8
0
 10
-171.139
 20
14.6072
 11
-171.075
 21
14.1143
  0
LINE
  8
0
 10
-171.075
 20
14.1143
 11
-171.03
 21
13.6192
  0
LINE
  8
0
 10
-171.03
 20
13.6192
 11
-171.006
 21
13.1228
  0
LINE
  8
0
 10
-171.006
 20
13.1228
 11
-171.001
 21
12.6257
  0
LINE
  8
0
 10
-171.001
 20
12.6257
 11
-171.015
 21
12.1289
  0
LINE
  8
0
 10
-171.015
 20
12.1289
 11
-171.05
 21
11.633
  0
LINE
  8
0
 10
-171.05
 20
11.633
 11
-171.104
 21
11.1389
  0
LINE
  8
0
 10
-171.104
 20
11.1389
 11
-171.178
 21
10.6474
  0
LINE
  8
0
 10
-171.178
 20
10.6474
 11
-171.271
 21
10.1592
  0
LINE
  8
0
 10
-171.271
 20
10.1592
 11
-171.384
 21
9.67508
  0
LINE
  8
0
 10
-171.384
 20
9.67508
 11
-171.516
 21
9.19583
  0
LINE
  8
0
 10
-171.516
 20
9.19583
 11
-171.667
 21
8.7222
  0
LINE
  8
0
 10
-171.667
 20
8.7222
 11
-171.836
 21
8.25493
  0
LINE
  8
0
 10
-171.836
 20
8.25493
 11
-172.024
 21
7.79477
  0
LINE
  8
0
 10
-172.024
 20
7.79477
 11
-172.23
 21
7.34245
  0
LINE
  8
0
 10
-172.23
 20
7.34245
 11
-172.454
 21
6.89867
  0
LINE
  8
0
 10
-172.454
 20
6.89867
 11
-172.695
 21
6.46416
  0
LINE
  8
0
 10
-172.695
 20
6.46416
 11
-172.954
 21
6.03957
  0
LINE
  8
0
 10
-172.954
 20
6.03957
 11
-173.229
 21
5.6256
  0
LINE
  8
0
 10
-173.229
 20
5.6256
 11
-173.52
 21
5.2229
  0
LINE
  8
0
 10
-173.52
 20
5.2229
 11
-173.828
 21
4.83209
  0
LINE
  8
0
 10
-173.828
 20
4.83209
 11
-174.15
 21
4.45381
  0
LINE
  8
0
 10
-174.15
 20
4.45381
 11
-174.487
 21
4.08864
  0
LINE
  8
0
 10
-174.487
 20
4.08864
 11
-174.839
 21
3.73717
  0
LINE
  8
0
 10
-174.839
 20
3.73717
 11
-175.204
 21
3.39995
  0
LINE
  8
0
 10
-175.204
 20
3.39995
 11
-175.582
 21
3.07751
  0
LINE
  8
0
 10
-175.582
 20
3.07751
 11
-175.973
 21
2.77037
  0
LINE
  8
0
 10
-175.973
 20
2.77037
 11
-176.376
 21
2.47902
  0
LINE
  8
0
 10
-176.376
 20
2.47902
 11
-176.79
 21
2.20389
  0
LINE
  8
0
 10
-176.79
 20
2.20389
 11
-177.214
 21
1.94545
  0
LINE
  8
0
 10
-177.214
 20
1.94545
 11
-177.649
 21
1.70409
  0
LINE
  8
0
 10
-177.649
 20
1.70409
 11
-178.092
 21
1.48019
  0
LINE
  8
0
 10
-178.092
 20
1.48019
 11
-178.545
 21
1.27411
  0
LINE
  8
0
 10
-178.545
 20
1.27411
 11
-179.005
 21
1.08618
  0
LINE
  8
0
 10
-179.005
 20
1.08618
 11
-179.472
 21
0.916702
  0
LINE
  8
0
 10
-179.472
 20
0.916702
 11
-179.946
 21
0.76593
  0
LINE
  8
0
 10
-179.946
 20
0.76593
 11
-180.425
 21
0.634094
  0
LINE
  8
0
 10
-180.425
 20
0.634094
 11
-180.909
 21
0.521423
  0
LINE
  8
0
 10
-180.909
 20
0.521423
 11
-181.397
 21
0.428101
  0
LINE
  8
0
 10
-181.397
 20
0.428101
 11
-181.889
 21
0.354248
  0
LINE
  8
0
 10
-181.889
 20
0.354248
 11
-182.383
 21
0.300003
  0
LINE
  8
0
 10
-182.383
 20
0.300003
 11
-182.879
 21
0.265427
  0
LINE
  8
0
 10
-182.879
 20
0.265427
 11
-183.376
 21
0.25061
  0
LINE
  8
0
 10
-183.376
 20
0.25061
 11
-183.873
 21
0.255554
  0
LINE
  8
0
 10
-206.956
 20
11.0543
 11
-207.429
 21
11.1572
  0
LINE
  8
0
 10
-207.429
 20
11.1572
 11
-207.853
 21
11.3891
  0
LINE
  8
0
 10
-207.853
 20
11.3891
 11
-208.195
 21
11.7312
  0
LINE
  8
0
 10
-208.195
 20
11.7312
 11
-208.427
 21
12.1559
  0
LINE
  8
0
 10
-208.427
 20
12.1559
 11
-208.53
 21
12.6287
  0
LINE
  8
0
 10
-208.53
 20
12.6287
 11
-208.496
 21
13.1114
  0
LINE
  8
0
 10
-208.496
 20
13.1114
 11
-208.327
 21
13.5647
  0
LINE
  8
0
 10
-208.327
 20
13.5647
 11
-208.037
 21
13.9521
  0
LINE
  8
0
 10
-208.037
 20
13.9521
 11
-207.649
 21
14.2421
  0
LINE
  8
0
 10
-207.649
 20
14.2421
 11
-207.196
 21
14.4111
  0
LINE
  8
0
 10
-207.196
 20
14.4111
 11
-206.713
 21
14.4457
  0
LINE
  8
0
 10
-206.713
 20
14.4457
 11
-203.885
 21
14.4457
  0
LINE
  8
0
 10
-203.885
 20
14.4457
 11
-203.412
 21
14.3428
  0
LINE
  8
0
 10
-203.412
 20
14.3428
 11
-202.987
 21
14.1109
  0
LINE
  8
0
 10
-202.987
 20
14.1109
 11
-202.645
 21
13.7688
  0
LINE
  8
0
 10
-202.645
 20
13.7688
 11
-202.413
 21
13.3441
  0
LINE
  8
0
 10
-202.413
 20
13.3441
 11
-202.31
 21
12.8713
  0
LINE
  8
0
 10
-202.31
 20
12.8713
 11
-202.345
 21
12.3886
  0
LINE
  8
0
 10
-202.345
 20
12.3886
 11
-202.514
 21
11.9353
  0
LINE
  8
0
 10
-202.514
 20
11.9353
 11
-202.804
 21
11.5479
  0
LINE
  8
0
 10
-202.804
 20
11.5479
 11
-203.191
 21
11.2579
  0
LINE
  8
0
 10
-203.191
 20
11.2579
 11
-203.645
 21
11.0888
  0
LINE
  8
0
 10
-203.645
 20
11.0888
 11
-204.127
 21
11.0543
  0
LINE
  8
0
 10
-204.127
 20
11.0543
 11
-206.956
 21
11.0543
  0
LINE
  8
0
 10
204.127
 20
11.0543
 11
203.645
 21
11.0888
  0
LINE
  8
0
 10
203.645
 20
11.0888
 11
203.191
 21
11.2579
  0
LINE
  8
0
 10
203.191
 20
11.2579
 11
202.804
 21
11.5479
  0
LINE
  8
0
 10
202.804
 20
11.5479
 11
202.514
 21
11.9353
  0
LINE
  8
0
 10
202.514
 20
11.9353
 11
202.345
 21
12.3886
  0
LINE
  8
0
 10
202.345
 20
12.3886
 11
202.31
 21
12.8713
  0
LINE
  8
0
 10
202.31
 20
12.8713
 11
202.413
 21
13.3441
  0
LINE
  8
0
 10
202.413
 20
13.3441
 11
202.645
 21
13.7688
  0
LINE
  8
0
 10
202.645
 20
13.7688
 11
202.987
 21
14.1109
  0
LINE
  8
0
 10
202.987
 20
14.1109
 11
203.412
 21
14.3428
  0
LINE
  8
0
 10
203.412
 20
14.3428
 11
203.885
 21
14.4457
  0
LINE
  8
0
 10
203.885
 20
14.4457
 11
206.713
 21
14.4457
  0
LINE
  8
0
 10
206.713
 20
14.4457
 11
207.196
 21
14.4111
  0
LINE
  8
0
 10
207.196
 20
14.4111
 11
207.649
 21
14.2421
  0
LINE
  8
0
 10
207.649
 20
14.2421
 11
208.037
 21
13.9521
  0
LINE
  8
0
 10
208.037
 20
13.9521
 11
208.327
 21
13.5647
  0
LINE
  8
0
 10
208.327
 20
13.5647
 11
208.496
 21
13.1114
  0
LINE
  8
0
 10
208.496
 20
13.1114
 11
208.53
 21
12.6287
  0
LINE
  8
0
 10
208.53
 20
12.6287
 11
208.427
 21
12.1559
  0
LINE
  8
0
 10
208.427
 20
12.1559
 11
208.195
 21
11.7312
  0
LINE
  8
0
 10
208.195
 20
11.7312
 11
207.853
 21
11.3891
  0
LINE
  8
0
 10
207.853
 20
11.3891
 11
207.429
 21
11.1572
  0
LINE
  8
0
 10
207.429
 20
11.1572
 11
206.956
 21
11.0543
  0
LINE
  8
0
 10
206.956
 20
11.0543
 11
204.127
 21
11.0543
  0
LINE
  8
0
 10
160.287
 20
11.0543
 11
159.804
 21
11.0888
  0
LINE
  8
0
 10
159.804
 20
11.0888
 11
159.351
 21
11.2579
  0
LINE
  8
0
 10
159.351
 20
11.2579
 11
158.963
 21
11.5479
  0
LINE
  8
0
 10
158.963
 20
11.5479
 11
158.673
 21
11.9353
  0
LINE
  8
0
 10
158.673
 20
11.9353
 11
158.504
 21
12.3886
  0
LINE
  8
0
 10
158.504
 20
12.3886
 11
158.47
 21
12.8713
  0
LINE
  8
0
 10
158.47
 20
12.8713
 11
158.573
 21
13.3441
  0
LINE
  8
0
 10
158.573
 20
13.3441
 11
158.805
 21
13.7688
  0
LINE
  8
0
 10
158.805
 20
13.7688
 11
159.147
 21
14.1109
  0
LINE
  8
0
 10
159.147
 20
14.1109
 11
159.571
 21
14.3428
  0
LINE
  8
0
 10
159.571
 20
14.3428
 11
160.044
 21
14.4457
  0
LINE
  8
0
 10
160.044
 20
14.4457
 11
162.873
 21
14.4457
  0
LINE
  8
0
 10
162.873
 20
14.4457
 11
163.355
 21
14.4111
  0
LINE
  8
0
 10
163.355
 20
14.4111
 11
163.809
 21
14.2421
  0
LINE
  8
0
 10
163.809
 20
14.2421
 11
164.196
 21
13.9521
  0
LINE
  8
0
 10
164.196
 20
13.9521
 11
164.486
 21
13.5647
  0
LINE
  8
0
 10
164.486
 20
13.5647
 11
164.655
 21
13.1114
  0
LINE
  8
0
 10
164.655
 20
13.1114
 11
164.69
 21
12.6287
  0
LINE
  8
0
 10
164.69
 20
12.6287
 11
164.587
 21
12.1559
  0
LINE
  8
0
 10
164.587
 20
12.1559
 11
164.355
 21
11.7312
  0
LINE
  8
0
 10
164.355
 20
11.7312
 11
164.013
 21
11.3891
  0
LINE
  8
0
 10
164.013
 20
11.3891
 11
163.588
 21
11.1572
  0
LINE
  8
0
 10
163.588
 20
11.1572
 11
163.115
 21
11.0543
  0
LINE
  8
0
 10
163.115
 20
11.0543
 11
160.287
 21
11.0543
  0
LINE
  8
0
 10
-163.115
 20
11.0543
 11
-163.588
 21
11.1572
  0
LINE
  8
0
 10
-163.588
 20
11.1572
 11
-164.013
 21
11.3891
  0
LINE
  8
0
 10
-164.013
 20
11.3891
 11
-164.355
 21
11.7312
  0
LINE
  8
0
 10
-164.355
 20
11.7312
 11
-164.587
 21
12.1559
  0
LINE
  8
0
 10
-164.587
 20
12.1559
 11
-164.69
 21
12.6287
  0
LINE
  8
0
 10
-164.69
 20
12.6287
 11
-164.655
 21
13.1114
  0
LINE
  8
0
 10
-164.655
 20
13.1114
 11
-164.486
 21
13.5647
  0
LINE
  8
0
 10
-164.486
 20
13.5647
 11
-164.196
 21
13.9521
  0
LINE
  8
0
 10
-164.196
 20
13.9521
 11
-163.809
 21
14.2421
  0
LINE
  8
0
 10
-163.809
 20
14.2421
 11
-163.355
 21
14.4111
  0
LINE
  8
0
 10
-163.355
 20
14.4111
 11
-162.873
 21
14.4457
  0
LINE
  8
0
 10
-162.873
 20
14.4457
 11
-160.044
 21
14.4457
  0
LINE
  8
0
 10
-160.044
 20
14.4457
 11
-159.571
 21
14.3428
  0
LINE
  8
0
 10
-159.571
 20
14.3428
 11
-159.147
 21
14.1109
  0
LINE
  8
0
 10
-159.147
 20
14.1109
 11
-158.805
 21
13.7688
  0
LINE
  8
0
 10
-158.805
 20
13.7688
 11
-158.573
 21
13.3441
  0
LINE
  8
0
 10
-158.573
 20
13.3441
 11
-158.47
 21
12.8713
  0
LINE
  8
0
 10
-158.47
 20
12.8713
 11
-158.504
 21
12.3886
  0
LINE
  8
0
 10
-158.504
 20
12.3886
 11
-158.673
 21
11.9353
  0
LINE
  8
0
 10
-158.673
 20
11.9353
 11
-158.963
 21
11.5479
  0
LINE
  8
0
 10
-158.963
 20
11.5479
 11
-159.351
 21
11.2579
  0
LINE
  8
0
 10
-159.351
 20
11.2579
 11
-159.804
 21
11.0888
  0
LINE
  8
0
 10
-159.804
 20
11.0888
 11
-160.287
 21
11.0543
  0
LINE
  8
0
 10
-160.287
 20
11.0543
 11
-163.115
 21
11.0543
  0
LINE
  8
0
 10
-132.45
 20
-3.2
 11
-132.45
 21
3.2
  0
LINE
  8
0
 10
-132.45
 20
3.2
 11
-117.55
 21
3.2
  0
LINE
  8
0
 10
-117.55
 20
3.2
 11
-117.55
 21
-3.2
  0
LINE
  8
0
 10
-117.55
 20
-3.2
 11
-132.45
 21
-3.2
  0
LINE
  8
0
 10
-102.45
 20
-3.2
 11
-102.45
 21
3.2
  0
LINE
  8
0
 10
-102.45
 20
3.2
 11
-87.55
 21
3.2
  0
LINE
  8
0
 10
-87.55
 20
3.2
 11
-87.55
 21
-3.2
  0
LINE
  8
0
 10
-87.55
 20
-3.2
 11
-102.45
 21
-3.2
  0
LINE
  8
0
 10
87.55
 20
-3.2
 11
87.55
 21
3.2
  0
LINE
  8
0
 10
87.55
 20
3.2
 11
102.45
 21
3.2
  0
LINE
  8
0
 10
102.45
 20
3.2
 11
102.45
 21
-3.2
  0
LINE
  8
0
 10
102.45
 20
-3.2
 11
87.55
 21
-3.2
  0
LINE
  8
0
 10
117.55
 20
-3.2
 11
117.55
 21
3.2
  0
LINE
  8
0
 10
117.55
 20
3.2
 11
132.45
 21
3.2
  0
LINE
  8
0
 10
132.45
 20
3.2
 11
132.45
 21
-3.2
  0
LINE
  8
0
 10
132.45
 20
-3.2
 11
117.55
 21
-3.2
  0
LINE
  8
0
 10
-110
 20
-2.49998
 11
-110.488
 21
-2.45195
  0
LINE
  8
0
 10
-110.488
 20
-2.45195
 11
-110.957
 21
-2.30969
  0
LINE
  8
0
 10
-110.957
 20
-2.30969
 11
-111.389
 21
-2.07866
  0
LINE
  8
0
 10
-111.389
 20
-2.07866
 11
-111.768
 21
-1.76776
  0
LINE
  8
0
 10
-111.768
 20
-1.76776
 11
-112.079
 21
-1.38892
  0
LINE
  8
0
 10
-112.079
 20
-1.38892
 11
-112.31
 21
-0.956696
  0
LINE
  8
0
 10
-112.31
 20
-0.956696
 11
-112.452
 21
-0.487717
  0
LINE
  8
0
 10
-112.452
 20
-0.487717
 11
-112.5
 21
0
  0
LINE
  8
0
 10
-112.5
 20
0
 11
-112.452
 21
0.487717
  0
LINE
  8
0
 10
-112.452
 20
0.487717
 11
-112.31
 21
0.956696
  0
LINE
  8
0
 10
-112.31
 20
0.956696
 11
-112.079
 21
1.38892
  0
LINE
  8
0
 10
-112.079
 20
1.38892
 11
-111.768
 21
1.76776
  0
LINE
  8
0
 10
-111.768
 20
1.76776
 11
-111.389
 21
2.07866
  0
LINE
  8
0
 10
-111.389
 20
2.07866
 11
-110.957
 21
2.30969
  0
LINE
  8
0
 10
-110.957
 20
2.30969
 11
-110.488
 21
2.45195
  0
LINE
  8
0
 10
-110.488
 20
2.45195
 11
-110
 21
2.49998
  0
LINE
  8
0
 10
-110
 20
2.49998
 11
-109.512
 21
2.45195
  0
LINE
  8
0
 10
-109.512
 20
2.45195
 11
-109.043
 21
2.30969
  0
LINE
  8
0
 10
-109.043
 20
2.30969
 11
-108.611
 21
2.07866
  0
LINE
  8
0
 10
-108.611
 20
2.07866
 11
-108.232
 21
1.76776
  0
LINE
  8
0
 10
-108.232
 20
1.76776
 11
-107.921
 21
1.38892
  0
LINE
  8
0
 10
-107.921
 20
1.38892
 11
-107.69
 21
0.956696
  0
LINE
  8
0
 10
-107.69
 20
0.956696
 11
-107.548
 21
0.487717
  0
LINE
  8
0
 10
-107.548
 20
0.487717
 11
-107.5
 21
0
  0
LINE
  8
0
 10
-107.5
 20
0
 11
-107.548
 21
-0.487717
  0
LINE
  8
0
 10
-107.548
 20
-0.487717
 11
-107.69
 21
-0.956696
  0
LINE
  8
0
 10
-107.69
 20
-0.956696
 11
-107.921
 21
-1.38892
  0
LINE
  8
0
 10
-107.921
 20
-1.38892
 11
-108.232
 21
-1.76776
  0
LINE
  8
0
 10
-108.232
 20
-1.76776
 11
-108.611
 21
-2.07866
  0
LINE
  8
0
 10
-108.611
 20
-2.07866
 11
-109.043
 21
-2.30969
  0
LINE
  8
0
 10
-109.043
 20
-2.30969
 11
-109.512
 21
-2.45195
  0
LINE
  8
0
 10
-109.512
 20
-2.45195
 11
-110
 21
-2.49998
  0
LINE
  8
0
 10
110
 20
-2.49998
 11
109.512
 21
-2.45195
  0
LINE
  8
0
 10
109.512
 20
-2.45195
 11
109.043
 21
-2.30969
  0
LINE
  8
0
 10
109.043
 20
-2.30969
 11
108.611
 21
-2.07866
  0
LINE
  8
0
 10
108.611
 20
-2.07866
 11
108.232
 21
-1.76776
  0
LINE
  8
0
 10
108.232
 20
-1.76776
 11
107.921
 21
-1.38892
  0
LINE
  8
0
 10
107.921
 20
-1.38892
 11
107.69
 21
-0.956696
  0
LINE
  8
0
 10
107.69
 20
-0.956696
 11
107.548
 21
-0.487717
  0
LINE
  8
0
 10
107.548
 20
-0.487717
 11
107.5
 21
0
  0
LINE
  8
0
 10
107.5
 20
0
 11
107.548
 21
0.487717
  0
LINE
  8
0
 10
107.548
 20
0.487717
 11
107.69
 21
0.956696
  0
LINE
  8
0
 10
107.69
 20
0.956696
 11
107.921
 21
1.38892
  0
LINE
  8
0
 10
107.921
 20
1.38892
 11
108.232
 21
1.76776
  0
LINE
  8
0
 10
108.232
 20
1.76776
 11
108.611
 21
2.07866
  0
LINE
  8
0
 10
108.611
 20
2.07866
 11
109.043
 21
2.30969
  0
LINE
  8
0
 10
109.043
 20
2.30969
 11
109.512
 21
2.45195
  0
LINE
  8
0
 10
109.512
 20
2.45195
 11
110
 21
2.49998
  0
LINE
  8
0
 10
110
 20
2.49998
 11
110.488
 21
2.45195
  0
LINE
  8
0
 10
110.488
 20
2.45195
 11
110.957
 21
2.30969
  0
LINE
  8
0
 10
110.957
 20
2.30969
 11
111.389
 21
2.07866
  0
LINE
  8
0
 10
111.389
 20
2.07866
 11
111.768
 21
1.76776
  0
LINE
  8
0
 10
111.768
 20
1.76776
 11
112.079
 21
1.38892
  0
LINE
  8
0
 10
112.079
 20
1.38892
 11
112.31
 21
0.956696
  0
LINE
  8
0
 10
112.31
 20
0.956696
 11
112.452
 21
0.487717
  0
LINE
  8
0
 10
112.452
 20
0.487717
 11
112.5
 21
0
  0
LINE
  8
0
 10
112.5
 20
0
 11
112.452
 21
-0.487717
  0
LINE
  8
0
 10
112.452
 20
-0.487717
 11
112.31
 21
-0.956696
  0
LINE
  8
0
 10
112.31
 20
-0.956696
 11
112.079
 21
-1.38892
  0
LINE
  8
0
 10
112.079
 20
-1.38892
 11
111.768
 21
-1.76776
  0
LINE
  8
0
 10
111.768
 20
-1.76776
 11
111.389
 21
-2.07866
  0
LINE
  8
0
 10
111.389
 20
-2.07866
 11
110.957
 21
-2.30969
  0
LINE
  8
0
 10
110.957
 20
-2.30969
 11
110.488
 21
-2.45195
  0
LINE
  8
0
 10
110.488
 20
-2.45195
 11
110
 21
-2.49998
  0
LINE
  8
0
 10
-216.45
 20
-12.7
 11
-216.45
 21
2.2
  0
LINE
  8
0
 10
-216.45
 20
2.2
 11
-210.05
 21
2.2
  0
LINE
  8
0
 10
-210.05
 20
2.2
 11
-210.05
 21
-12.7
  0
LINE
  8
0
 10
-210.05
 20
-12.7
 11
-216.45
 21
-12.7
  0
LINE
  8
0
 10
210.05
 20
-12.7
 11
210.05
 21
2.2
  0
LINE
  8
0
 10
210.05
 20
2.2
 11
216.45
 21
2.2
  0
LINE
  8
0
 10
216.45
 20
2.2
 11
216.45
 21
-12.7
  0
LINE
  8
0
 10
216.45
 20
-12.7
 11
210.05
 21
-12.7
  0
LINE
  8
0
 10
-183.861
 20
-12.2457
 11
-184.315
 21
-12.0766
  0
LINE
  8
0
 10
-184.315
 20
-12.0766
 11
-184.702
 21
-11.7866
  0
LINE
  8
0
 10
-184.702
 20
-11.7866
 11
-184.992
 21
-11.3992
  0
LINE
  8
0
 10
-184.992
 20
-11.3992
 11
-185.161
 21
-10.9459
  0
LINE
  8
0
 10
-185.161
 20
-10.9459
 11
-185.196
 21
-10.4632
  0
LINE
  8
0
 10
-185.196
 20
-10.4632
 11
-185.196
 21
-7.63481
  0
LINE
  8
0
 10
-185.196
 20
-7.63481
 11
-185.093
 21
-7.162
  0
LINE
  8
0
 10
-185.093
 20
-7.162
 11
-184.861
 21
-6.73732
  0
LINE
  8
0
 10
-184.861
 20
-6.73732
 11
-184.519
 21
-6.39517
  0
LINE
  8
0
 10
-184.519
 20
-6.39517
 11
-184.094
 21
-6.16327
  0
LINE
  8
0
 10
-184.094
 20
-6.16327
 11
-183.621
 21
-6.06042
  0
LINE
  8
0
 10
-183.621
 20
-6.06042
 11
-183.139
 21
-6.09494
  0
LINE
  8
0
 10
-183.139
 20
-6.09494
 11
-182.685
 21
-6.26404
  0
LINE
  8
0
 10
-182.685
 20
-6.26404
 11
-182.298
 21
-6.554
  0
LINE
  8
0
 10
-182.298
 20
-6.554
 11
-182.008
 21
-6.94136
  0
LINE
  8
0
 10
-182.008
 20
-6.94136
 11
-181.839
 21
-7.39473
  0
LINE
  8
0
 10
-181.839
 20
-7.39473
 11
-181.804
 21
-7.87737
  0
LINE
  8
0
 10
-181.804
 20
-7.87737
 11
-181.804
 21
-10.7058
  0
LINE
  8
0
 10
-181.804
 20
-10.7058
 11
-181.907
 21
-11.1786
  0
LINE
  8
0
 10
-181.907
 20
-11.1786
 11
-182.139
 21
-11.6033
  0
LINE
  8
0
 10
-182.139
 20
-11.6033
 11
-182.481
 21
-11.9454
  0
LINE
  8
0
 10
-182.481
 20
-11.9454
 11
-182.906
 21
-12.1773
  0
LINE
  8
0
 10
-182.906
 20
-12.1773
 11
-183.379
 21
-12.2802
  0
LINE
  8
0
 10
-183.379
 20
-12.2802
 11
-183.861
 21
-12.2457
  0
LINE
  8
0
 10
182.906
 20
-12.1773
 11
182.481
 21
-11.9454
  0
LINE
  8
0
 10
182.481
 20
-11.9454
 11
182.139
 21
-11.6033
  0
LINE
  8
0
 10
182.139
 20
-11.6033
 11
181.907
 21
-11.1786
  0
LINE
  8
0
 10
181.907
 20
-11.1786
 11
181.804
 21
-10.7058
  0
LINE
  8
0
 10
181.804
 20
-10.7058
 11
181.804
 21
-7.87737
  0
LINE
  8
0
 10
181.804
 20
-7.87737
 11
181.839
 21
-7.39473
  0
LINE
  8
0
 10
181.839
 20
-7.39473
 11
182.008
 21
-6.94136
  0
LINE
  8
0
 10
182.008
 20
-6.94136
 11
182.298
 21
-6.554
  0
LINE
  8
0
 10
182.298
 20
-6.554
 11
182.685
 21
-6.26404
  0
LINE
  8
0
 10
182.685
 20
-6.26404
 11
183.139
 21
-6.09494
  0
LINE
  8
0
 10
183.139
 20
-6.09494
 11
183.621
 21
-6.06042
  0
LINE
  8
0
 10
183.621
 20
-6.06042
 11
184.094
 21
-6.16327
  0
LINE
  8
0
 10
184.094
 20
-6.16327
 11
184.519
 21
-6.39517
  0
LINE
  8
0
 10
184.519
 20
-6.39517
 11
184.861
 21
-6.73732
  0
LINE
  8
0
 10
184.861
 20
-6.73732
 11
185.093
 21
-7.162
  0
LINE
  8
0
 10
185.093
 20
-7.162
 11
185.196
 21
-7.63481
  0
LINE
  8
0
 10
185.196
 20
-7.63481
 11
185.196
 21
-10.4632
  0
LINE
  8
0
 10
185.196
 20
-10.4632
 11
185.161
 21
-10.9459
  0
LINE
  8
0
 10
185.161
 20
-10.9459
 11
184.992
 21
-11.3992
  0
LINE
  8
0
 10
184.992
 20
-11.3992
 11
184.702
 21
-11.7866
  0
LINE
  8
0
 10
184.702
 20
-11.7866
 11
184.315
 21
-12.0766
  0
LINE
  8
0
 10
184.315
 20
-12.0766
 11
183.861
 21
-12.2457
  0
LINE
  8
0
 10
183.861
 20
-12.2457
 11
183.379
 21
-12.2802
  0
LINE
  8
0
 10
183.379
 20
-12.2802
 11
182.906
 21
-12.1773
  0
LINE
  8
0
 10
199.512
 20
-12.202
 11
199.043
 21
-12.0597
  0
LINE
  8
0
 10
199.043
 20
-12.0597
 11
198.611
 21
-11.8287
  0
LINE
  8
0
 10
198.611
 20
-11.8287
 11
198.232
 21
-11.5178
  0
LINE
  8
0
 10
198.232
 20
-11.5178
 11
197.921
 21
-11.1389
  0
LINE
  8
0
 10
197.921
 20
-11.1389
 11
197.69
 21
-10.7067
  0
LINE
  8
0
 10
197.69
 20
-10.7067
 11
197.548
 21
-10.2377
  0
LINE
  8
0
 10
197.548
 20
-10.2377
 11
197.5
 21
-9.75
  0
LINE
  8
0
 10
197.5
 20
-9.75
 11
197.548
 21
-9.26227
  0
LINE
  8
0
 10
197.548
 20
-9.26227
 11
197.69
 21
-8.79329
  0
LINE
  8
0
 10
197.69
 20
-8.79329
 11
197.921
 21
-8.36107
  0
LINE
  8
0
 10
197.921
 20
-8.36107
 11
198.232
 21
-7.98222
  0
LINE
  8
0
 10
198.232
 20
-7.98222
 11
198.611
 21
-7.67133
  0
LINE
  8
0
 10
198.611
 20
-7.67133
 11
199.043
 21
-7.44029
  0
LINE
  8
0
 10
199.043
 20
-7.44029
 11
199.512
 21
-7.29803
  0
LINE
  8
0
 10
199.512
 20
-7.29803
 11
200
 21
-7.25
  0
LINE
  8
0
 10
200
 20
-7.25
 11
200.488
 21
-7.29803
  0
LINE
  8
0
 10
200.488
 20
-7.29803
 11
200.957
 21
-7.44029
  0
LINE
  8
0
 10
200.957
 20
-7.44029
 11
201.389
 21
-7.67133
  0
LINE
  8
0
 10
201.389
 20
-7.67133
 11
201.768
 21
-7.98222
  0
LINE
  8
0
 10
201.768
 20
-7.98222
 11
202.079
 21
-8.36107
  0
LINE
  8
0
 10
202.079
 20
-8.36107
 11
202.31
 21
-8.79329
  0
LINE
  8
0
 10
202.31
 20
-8.79329
 11
202.452
 21
-9.26227
  0
LINE
  8
0
 10
202.452
 20
-9.26227
 11
202.5
 21
-9.75
  0
LINE
  8
0
 10
202.5
 20
-9.75
 11
202.452
 21
-10.2377
  0
LINE
  8
0
 10
202.452
 20
-10.2377
 11
202.31
 21
-10.7067
  0
LINE
  8
0
 10
202.31
 20
-10.7067
 11
202.079
 21
-11.1389
  0
LINE
  8
0
 10
202.079
 20
-11.1389
 11
201.768
 21
-11.5178
  0
LINE
  8
0
 10
201.768
 20
-11.5178
 11
201.389
 21
-11.8287
  0
LINE
  8
0
 10
201.389
 20
-11.8287
 11
200.957
 21
-12.0597
  0
LINE
  8
0
 10
200.957
 20
-12.0597
 11
200.488
 21
-12.202
  0
LINE
  8
0
 10
200.488
 20
-12.202
 11
200
 21
-12.25
  0
LINE
  8
0
 10
200
 20
-12.25
 11
199.512
 21
-12.202
  0
LINE
  8
0
 10
-200.488
 20
-12.202
 11
-200.957
 21
-12.0597
  0
LINE
  8
0
 10
-200.957
 20
-12.0597
 11
-201.389
 21
-11.8287
  0
LINE
  8
0
 10
-201.389
 20
-11.8287
 11
-201.768
 21
-11.5178
  0
LINE
  8
0
 10
-201.768
 20
-11.5178
 11
-202.079
 21
-11.1389
  0
LINE
  8
0
 10
-202.079
 20
-11.1389
 11
-202.31
 21
-10.7067
  0
LINE
  8
0
 10
-202.31
 20
-10.7067
 11
-202.452
 21
-10.2377
  0
LINE
  8
0
 10
-202.452
 20
-10.2377
 11
-202.5
 21
-9.75
  0
LINE
  8
0
 10
-202.5
 20
-9.75
 11
-202.452
 21
-9.26227
  0
LINE
  8
0
 10
-202.452
 20
-9.26227
 11
-202.31
 21
-8.79329
  0
LINE
  8
0
 10
-202.31
 20
-8.79329
 11
-202.079
 21
-8.36107
  0
LINE
  8
0
 10
-202.079
 20
-8.36107
 11
-201.768
 21
-7.98222
  0
LINE
  8
0
 10
-201.768
 20
-7.98222
 11
-201.389
 21
-7.67133
  0
LINE
  8
0
 10
-201.389
 20
-7.67133
 11
-200.957
 21
-7.44029
  0
LINE
  8
0
 10
-200.957
 20
-7.44029
 11
-200.488
 21
-7.29803
  0
LINE
  8
0
 10
-200.488
 20
-7.29803
 11
-200
 21
-7.25
  0
LINE
  8
0
 10
-200
 20
-7.25
 11
-199.512
 21
-7.29803
  0
LINE
  8
0
 10
-199.512
 20
-7.29803
 11
-199.043
 21
-7.44029
  0
LINE
  8
0
 10
-199.043
 20
-7.44029
 11
-198.611
 21
-7.67133
  0
LINE
  8
0
 10
-198.611
 20
-7.67133
 11
-198.232
 21
-7.98222
  0
LINE
  8
0
 10
-198.232
 20
-7.98222
 11
-197.921
 21
-8.36107
  0
LINE
  8
0
 10
-197.921
 20
-8.36107
 11
-197.69
 21
-8.79329
  0
LINE
  8
0
 10
-197.69
 20
-8.79329
 11
-197.548
 21
-9.26227
  0
LINE
  8
0
 10
-197.548
 20
-9.26227
 11
-197.5
 21
-9.75
  0
LINE
  8
0
 10
-197.5
 20
-9.75
 11
-197.548
 21
-10.2377
  0
LINE
  8
0
 10
-197.548
 20
-10.2377
 11
-197.69
 21
-10.7067
  0
LINE
  8
0
 10
-197.69
 20
-10.7067
 11
-197.921
 21
-11.1389
  0
LINE
  8
0
 10
-197.921
 20
-11.1389
 11
-198.232
 21
-11.5178
  0
LINE
  8
0
 10
-198.232
 20
-11.5178
 11
-198.611
 21
-11.8287
  0
LINE
  8
0
 10
-198.611
 20
-11.8287
 11
-199.043
 21
-12.0597
  0
LINE
  8
0
 10
-199.043
 20
-12.0597
 11
-199.512
 21
-12.202
  0
LINE
  8
0
 10
-199.512
 20
-12.202
 11
-200
 21
-12.25
  0
LINE
  8
0
 10
-200
 20
-12.25
 11
-200.488
 21
-12.202
  0
LINE
  8
0
 10
149.639
 20
-21.405
 11
149.185
 21
-21.2359
  0
LINE
  8
0
 10
149.185
 20
-21.2359
 11
148.798
 21
-20.946
  0
LINE
  8
0
 10
148.798
 20
-20.946
 11
148.508
 21
-20.5586
  0
LINE
  8
0
 10
148.508
 20
-20.5586
 11
148.339
 21
-20.1053
  0
LINE
  8
0
 10
148.339
 20
-20.1053
 11
148.304
 21
-19.6226
  0
LINE
  8
0
 10
148.304
 20
-19.6226
 11
148.304
 21
-16.7942
  0
LINE
  8
0
 10
148.304
 20
-16.7942
 11
148.407
 21
-16.3214
  0
LINE
  8
0
 10
148.407
 20
-16.3214
 11
148.639
 21
-15.8967
  0
LINE
  8
0
 10
148.639
 20
-15.8967
 11
148.981
 21
-15.5546
  0
LINE
  8
0
 10
148.981
 20
-15.5546
 11
149.406
 21
-15.3226
  0
LINE
  8
0
 10
149.406
 20
-15.3226
 11
149.879
 21
-15.2198
  0
LINE
  8
0
 10
149.879
 20
-15.2198
 11
150.361
 21
-15.2543
  0
LINE
  8
0
 10
150.361
 20
-15.2543
 11
150.815
 21
-15.4234
  0
LINE
  8
0
 10
150.815
 20
-15.4234
 11
151.202
 21
-15.7134
  0
LINE
  8
0
 10
151.202
 20
-15.7134
 11
151.492
 21
-16.1008
  0
LINE
  8
0
 10
151.492
 20
-16.1008
 11
151.661
 21
-16.5541
  0
LINE
  8
0
 10
151.661
 20
-16.5541
 11
151.696
 21
-17.0367
  0
LINE
  8
0
 10
151.696
 20
-17.0367
 11
151.696
 21
-19.8652
  0
LINE
  8
0
 10
151.696
 20
-19.8652
 11
151.593
 21
-20.338
  0
LINE
  8
0
 10
151.593
 20
-20.338
 11
151.361
 21
-20.7627
  0
LINE
  8
0
 10
151.361
 20
-20.7627
 11
151.019
 21
-21.1048
  0
LINE
  8
0
 10
151.019
 20
-21.1048
 11
150.594
 21
-21.3367
  0
LINE
  8
0
 10
150.594
 20
-21.3367
 11
150.121
 21
-21.4396
  0
LINE
  8
0
 10
150.121
 20
-21.4396
 11
149.639
 21
-21.405
  0
LINE
  8
0
 10
-0.361359
 20
-21.405
 11
-0.814713
 21
-21.2359
  0
LINE
  8
0
 10
-0.814713
 20
-21.2359
 11
-1.20207
 21
-20.946
  0
LINE
  8
0
 10
-1.20207
 20
-20.946
 11
-1.49205
 21
-20.5586
  0
LINE
  8
0
 10
-1.49205
 20
-20.5586
 11
-1.66115
 21
-20.1053
  0
LINE
  8
0
 10
-1.66115
 20
-20.1053
 11
-1.69566
 21
-19.6226
  0
LINE
  8
0
 10
-1.69566
 20
-19.6226
 11
-1.69566
 21
-16.7942
  0
LINE
  8
0
 10
-1.69566
 20
-16.7942
 11
-1.5928
 21
-16.3214
  0
LINE
  8
0
 10
-1.5928
 20
-16.3214
 11
-1.36092
 21
-15.8967
  0
LINE
  8
0
 10
-1.36092
 20
-15.8967
 11
-1.01877
 21
-15.5546
  0
LINE
  8
0
 10
-1.01877
 20
-15.5546
 11
-0.594086
 21
-15.3226
  0
LINE
  8
0
 10
-0.594086
 20
-15.3226
 11
-0.121262
 21
-15.2198
  0
LINE
  8
0
 10
-0.121262
 20
-15.2198
 11
0.361359
 21
-15.2543
  0
LINE
  8
0
 10
0.361359
 20
-15.2543
 11
0.814713
 21
-15.4234
  0
LINE
  8
0
 10
0.814713
 20
-15.4234
 11
1.20207
 21
-15.7134
  0
LINE
  8
0
 10
1.20207
 20
-15.7134
 11
1.49205
 21
-16.1008
  0
LINE
  8
0
 10
1.49205
 20
-16.1008
 11
1.66115
 21
-16.5541
  0
LINE
  8
0
 10
1.66115
 20
-16.5541
 11
1.69566
 21
-17.0367
  0
LINE
  8
0
 10
1.69566
 20
-17.0367
 11
1.69566
 21
-19.8652
  0
LINE
  8
0
 10
1.69566
 20
-19.8652
 11
1.5928
 21
-20.338
  0
LINE
  8
0
 10
1.5928
 20
-20.338
 11
1.36092
 21
-20.7627
  0
LINE
  8
0
 10
1.36092
 20
-20.7627
 11
1.01877
 21
-21.1048
  0
LINE
  8
0
 10
1.01877
 20
-21.1048
 11
0.594086
 21
-21.3367
  0
LINE
  8
0
 10
0.594086
 20
-21.3367
 11
0.121262
 21
-21.4396
  0
LINE
  8
0
 10
0.121262
 20
-21.4396
 11
-0.361359
 21
-21.405
  0
LINE
  8
0
 10
-150.361
 20
-21.405
 11
-150.815
 21
-21.2359
  0
LINE
  8
0
 10
-150.815
 20
-21.2359
 11
-151.202
 21
-20.946
  0
LINE
  8
0
 10
-151.202
 20
-20.946
 11
-151.492
 21
-20.5586
  0
LINE
  8
0
 10
-151.492
 20
-20.5586
 11
-151.661
 21
-20.1053
  0
LINE
  8
0
 10
-151.661
 20
-20.1053
 11
-151.696
 21
-19.6226
  0
LINE
  8
0
 10
-151.696
 20
-19.6226
 11
-151.696
 21
-16.7942
  0
LINE
  8
0
 10
-151.696
 20
-16.7942
 11
-151.593
 21
-16.3214
  0
LINE
  8
0
 10
-151.593
 20
-16.3214
 11
-151.361
 21
-15.8967
  0
LINE
  8
0
 10
-151.361
 20
-15.8967
 11
-151.019
 21
-15.5546
  0
LINE
  8
0
 10
-151.019
 20
-15.5546
 11
-150.594
 21
-15.3226
  0
LINE
  8
0
 10
-150.594
 20
-15.3226
 11
-150.121
 21
-15.2198
  0
LINE
  8
0
 10
-150.121
 20
-15.2198
 11
-149.639
 21
-15.2543
  0
LINE
  8
0
 10
-149.639
 20
-15.2543
 11
-149.185
 21
-15.4234
  0
LINE
  8
0
 10
-149.185
 20
-15.4234
 11
-148.798
 21
-15.7134
  0
LINE
  8
0
 10
-148.798
 20
-15.7134
 11
-148.508
 21
-16.1008
  0
LINE
  8
0
 10
-148.508
 20
-16.1008
 11
-148.339
 21
-16.5541
  0
LINE
  8
0
 10
-148.339
 20
-16.5541
 11
-148.304
 21
-17.0367
  0
LINE
  8
0
 10
-148.304
 20
-17.0367
 11
-148.304
 21
-19.8652
  0
LINE
  8
0
 10
-148.304
 20
-19.8652
 11
-148.407
 21
-20.338
  0
LINE
  8
0
 10
-148.407
 20
-20.338
 11
-148.639
 21
-20.7627
  0
LINE
  8
0
 10
-148.639
 20
-20.7627
 11
-148.981
 21
-21.1048
  0
LINE
  8
0
 10
-148.981
 20
-21.1048
 11
-149.406
 21
-21.3367
  0
LINE
  8
0
 10
-149.406
 20
-21.3367
 11
-149.879
 21
-21.4396
  0
LINE
  8
0
 10
-149.879
 20
-21.4396
 11
-150.361
 21
-21.405
  0
LINE
  8
0
 10
212.762
 20
-22.702
 11
212.293
 21
-22.5597
  0
LINE
  8
0
 10
212.293
 20
-22.5597
 11
211.861
 21
-22.3287
  0
LINE
  8
0
 10
211.861
 20
-22.3287
 11
211.482
 21
-22.0178
  0
LINE
  8
0
 10
211.482
 20
-22.0178
 11
211.171
 21
-21.6389
  0
LINE
  8
0
 10
211.171
 20
-21.6389
 11
210.94
 21
-21.2067
  0
LINE
  8
0
 10
210.94
 20
-21.2067
 11
210.798
 21
-20.7377
  0
LINE
  8
0
 10
210.798
 20
-20.7377
 11
210.75
 21
-20.25
  0
LINE
  8
0
 10
210.75
 20
-20.25
 11
210.798
 21
-19.7623
  0
LINE
  8
0
 10
210.798
 20
-19.7623
 11
210.94
 21
-19.2933
  0
LINE
  8
0
 10
210.94
 20
-19.2933
 11
211.171
 21
-18.8611
  0
LINE
  8
0
 10
211.171
 20
-18.8611
 11
211.482
 21
-18.4822
  0
LINE
  8
0
 10
211.482
 20
-18.4822
 11
211.861
 21
-18.1713
  0
LINE
  8
0
 10
211.861
 20
-18.1713
 11
212.293
 21
-17.9403
  0
LINE
  8
0
 10
212.293
 20
-17.9403
 11
212.762
 21
-17.798
  0
LINE
  8
0
 10
212.762
 20
-17.798
 11
213.25
 21
-17.75
  0
LINE
  8
0
 10
213.25
 20
-17.75
 11
213.738
 21
-17.798
  0
LINE
  8
0
 10
213.738
 20
-17.798
 11
214.207
 21
-17.9403
  0
LINE
  8
0
 10
214.207
 20
-17.9403
 11
214.639
 21
-18.1713
  0
LINE
  8
0
 10
214.639
 20
-18.1713
 11
215.018
 21
-18.4822
  0
LINE
  8
0
 10
215.018
 20
-18.4822
 11
215.329
 21
-18.8611
  0
LINE
  8
0
 10
215.329
 20
-18.8611
 11
215.56
 21
-19.2933
  0
LINE
  8
0
 10
215.56
 20
-19.2933
 11
215.702
 21
-19.7623
  0
LINE
  8
0
 10
215.702
 20
-19.7623
 11
215.75
 21
-20.25
  0
LINE
  8
0
 10
215.75
 20
-20.25
 11
215.702
 21
-20.7377
  0
LINE
  8
0
 10
215.702
 20
-20.7377
 11
215.56
 21
-21.2067
  0
LINE
  8
0
 10
215.56
 20
-21.2067
 11
215.329
 21
-21.6389
  0
LINE
  8
0
 10
215.329
 20
-21.6389
 11
215.018
 21
-22.0178
  0
LINE
  8
0
 10
215.018
 20
-22.0178
 11
214.639
 21
-22.3287
  0
LINE
  8
0
 10
214.639
 20
-22.3287
 11
214.207
 21
-22.5597
  0
LINE
  8
0
 10
214.207
 20
-22.5597
 11
213.738
 21
-22.702
  0
LINE
  8
0
 10
213.738
 20
-22.702
 11
213.25
 21
-22.75
  0
LINE
  8
0
 10
213.25
 20
-22.75
 11
212.762
 21
-22.702
  0
LINE
  8
0
 10
-213.738
 20
-22.702
 11
-214.207
 21
-22.5597
  0
LINE
  8
0
 10
-214.207
 20
-22.5597
 11
-214.639
 21
-22.3287
  0
LINE
  8
0
 10
-214.639
 20
-22.3287
 11
-215.018
 21
-22.0178
  0
LINE
  8
0
 10
-215.018
 20
-22.0178
 11
-215.329
 21
-21.6389
  0
LINE
  8
0
 10
-215.329
 20
-21.6389
 11
-215.56
 21
-21.2067
  0
LINE
  8
0
 10
-215.56
 20
-21.2067
 11
-215.702
 21
-20.7377
  0
LINE
  8
0
 10
-215.702
 20
-20.7377
 11
-215.75
 21
-20.25
  0
LINE
  8
0
 10
-215.75
 20
-20.25
 11
-215.702
 21
-19.7623
  0
LINE
  8
0
 10
-215.702
 20
-19.7623
 11
-215.56
 21
-19.2933
  0
LINE
  8
0
 10
-215.56
 20
-19.2933
 11
-215.329
 21
-18.8611
  0
LINE
  8
0
 10
-215.329
 20
-18.8611
 11
-215.018
 21
-18.4822
  0
LINE
  8
0
 10
-215.018
 20
-18.4822
 11
-214.639
 21
-18.1713
  0
LINE
  8
0
 10
-214.639
 20
-18.1713
 11
-214.207
 21
-17.9403
  0
LINE
  8
0
 10
-214.207
 20
-17.9403
 11
-213.738
 21
-17.798
  0
LINE
  8
0
 10
-213.738
 20
-17.798
 11
-213.25
 21
-17.75
  0
LINE
  8
0
 10
-213.25
 20
-17.75
 11
-212.762
 21
-17.798
  0
LINE
  8
0
 10
-212.762
 20
-17.798
 11
-212.293
 21
-17.9403
  0
LINE
  8
0
 10
-212.293
 20
-17.9403
 11
-211.861
 21
-18.1713
  0
LINE
  8
0
 10
-211.861
 20
-18.1713
 11
-211.482
 21
-18.4822
  0
LINE
  8
0
 10
-211.482
 20
-18.4822
 11
-211.171
 21
-18.8611
  0
LINE
  8
0
 10
-211.171
 20
-18.8611
 11
-210.94
 21
-19.2933
  0
LINE
  8
0
 10
-210.94
 20
-19.2933
 11
-210.798
 21
-19.7623
  0
LINE
  8
0
 10
-210.798
 20
-19.7623
 11
-210.75
 21
-20.25
  0
LINE
  8
0
 10
-210.75
 20
-20.25
 11
-210.798
 21
-20.7377
  0
LINE
  8
0
 10
-210.798
 20
-20.7377
 11
-210.94
 21
-21.2067
  0
LINE
  8
0
 10
-210.94
 20
-21.2067
 11
-211.171
 21
-21.6389
  0
LINE
  8
0
 10
-211.171
 20
-21.6389
 11
-211.482
 21
-22.0178
  0
LINE
  8
0
 10
-211.482
 20
-22.0178
 11
-211.861
 21
-22.3287
  0
LINE
  8
0
 10
-211.861
 20
-22.3287
 11
-212.293
 21
-22.5597
  0
LINE
  8
0
 10
-212.293
 20
-22.5597
 11
-212.762
 21
-22.702
  0
LINE
  8
0
 10
-212.762
 20
-22.702
 11
-213.25
 21
-22.75
  0
LINE
  8
0
 10
-213.25
 20
-22.75
 11
-213.738
 21
-22.702
  0
LINE
  8
0
 10
-132.45
 20
-29.7
 11
-132.45
 21
-23.3
  0
LINE
  8
0
 10
-132.45
 20
-23.3
 11
-117.55
 21
-23.3
  0
LINE
  8
0
 10
-117.55
 20
-23.3
 11
-117.55
 21
-29.7
  0
LINE
  8
0
 10
-117.55
 20
-29.7
 11
-132.45
 21
-29.7
  0
LINE
  8
0
 10
87.55
 20
-29.7
 11
87.55
 21
-23.3
  0
LINE
  8
0
 10
87.55
 20
-23.3
 11
102.45
 21
-23.3
  0
LINE
  8
0
 10
102.45
 20
-23.3
 11
102.45
 21
-29.7
  0
LINE
  8
0
 10
102.45
 20
-29.7
 11
87.55
 21
-29.7
  0
LINE
  8
0
 10
-102.45
 20
-29.7
 11
-102.45
 21
-23.3
  0
LINE
  8
0
 10
-102.45
 20
-23.3
 11
-87.55
 21
-23.3
  0
LINE
  8
0
 10
-87.55
 20
-23.3
 11
-87.55
 21
-29.7
  0
LINE
  8
0
 10
-87.55
 20
-29.7
 11
-102.45
 21
-29.7
  0
LINE
  8
0
 10
117.55
 20
-29.7
 11
117.55
 21
-23.3
  0
LINE
  8
0
 10
117.55
 20
-23.3
 11
132.45
 21
-23.3
  0
LINE
  8
0
 10
132.45
 20
-23.3
 11
132.45
 21
-29.7
  0
LINE
  8
0
 10
132.45
 20
-29.7
 11
117.55
 21
-29.7
  0
LINE
  8
0
 10
110
 20
-29
 11
109.512
 21
-28.952
  0
LINE
  8
0
 10
109.512
 20
-28.952
 11
109.043
 21
-28.8097
  0
LINE
  8
0
 10
109.043
 20
-28.8097
 11
108.611
 21
-28.5787
  0
LINE
  8
0
 10
108.611
 20
-28.5787
 11
108.232
 21
-28.2678
  0
LINE
  8
0
 10
108.232
 20
-28.2678
 11
107.921
 21
-27.8889
  0
LINE
  8
0
 10
107.921
 20
-27.8889
 11
107.69
 21
-27.4567
  0
LINE
  8
0
 10
107.69
 20
-27.4567
 11
107.548
 21
-26.9877
  0
LINE
  8
0
 10
107.548
 20
-26.9877
 11
107.5
 21
-26.5
  0
LINE
  8
0
 10
107.5
 20
-26.5
 11
107.548
 21
-26.0123
  0
LINE
  8
0
 10
107.548
 20
-26.0123
 11
107.69
 21
-25.5433
  0
LINE
  8
0
 10
107.69
 20
-25.5433
 11
107.921
 21
-25.1111
  0
LINE
  8
0
 10
107.921
 20
-25.1111
 11
108.232
 21
-24.7322
  0
LINE
  8
0
 10
108.232
 20
-24.7322
 11
108.611
 21
-24.4213
  0
LINE
  8
0
 10
108.611
 20
-24.4213
 11
109.043
 21
-24.1903
  0
LINE
  8
0
 10
109.043
 20
-24.1903
 11
109.512
 21
-24.048
  0
LINE
  8
0
 10
109.512
 20
-24.048
 11
110
 21
-24
  0
LINE
  8
0
 10
110
 20
-24
 11
110.488
 21
-24.048
  0
LINE
  8
0
 10
110.488
 20
-24.048
 11
110.957
 21
-24.1903
  0
LINE
  8
0
 10
110.957
 20
-24.1903
 11
111.389
 21
-24.4213
  0
LINE
  8
0
 10
111.389
 20
-24.4213
 11
111.768
 21
-24.7322
  0
LINE
  8
0
 10
111.768
 20
-24.7322
 11
112.079
 21
-25.1111
  0
LINE
  8
0
 10
112.079
 20
-25.1111
 11
112.31
 21
-25.5433
  0
LINE
  8
0
 10
112.31
 20
-25.5433
 11
112.452
 21
-26.0123
  0
LINE
  8
0
 10
112.452
 20
-26.0123
 11
112.5
 21
-26.5
  0
LINE
  8
0
 10
112.5
 20
-26.5
 11
112.452
 21
-26.9877
  0
LINE
  8
0
 10
112.452
 20
-26.9877
 11
112.31
 21
-27.4567
  0
LINE
  8
0
 10
112.31
 20
-27.4567
 11
112.079
 21
-27.8889
  0
LINE
  8
0
 10
112.079
 20
-27.8889
 11
111.768
 21
-28.2678
  0
LINE
  8
0
 10
111.768
 20
-28.2678
 11
111.389
 21
-28.5787
  0
LINE
  8
0
 10
111.389
 20
-28.5787
 11
110.957
 21
-28.8097
  0
LINE
  8
0
 10
110.957
 20
-28.8097
 11
110.488
 21
-28.952
  0
LINE
  8
0
 10
110.488
 20
-28.952
 11
110
 21
-29
  0
LINE
  8
0
 10
-110
 20
-29
 11
-110.488
 21
-28.952
  0
LINE
  8
0
 10
-110.488
 20
-28.952
 11
-110.957
 21
-28.8097
  0
LINE
  8
0
 10
-110.957
 20
-28.8097
 11
-111.389
 21
-28.5787
  0
LINE
  8
0
 10
-111.389
 20
-28.5787
 11
-111.768
 21
-28.2678
  0
LINE
  8
0
 10
-111.768
 20
-28.2678
 11
-112.079
 21
-27.8889
  0
LINE
  8
0
 10
-112.079
 20
-27.8889
 11
-112.31
 21
-27.4567
  0
LINE
  8
0
 10
-112.31
 20
-27.4567
 11
-112.452
 21
-26.9877
  0
LINE
  8
0
 10
-112.452
 20
-26.9877
 11
-112.5
 21
-26.5
  0
LINE
  8
0
 10
-112.5
 20
-26.5
 11
-112.452
 21
-26.0123
  0
LINE
  8
0
 10
-112.452
 20
-26.0123
 11
-112.31
 21
-25.5433
  0
LINE
  8
0
 10
-112.31
 20
-25.5433
 11
-112.079
 21
-25.1111
  0
LINE
  8
0
 10
-112.079
 20
-25.1111
 11
-111.768
 21
-24.7322
  0
LINE
  8
0
 10
-111.768
 20
-24.7322
 11
-111.389
 21
-24.4213
  0
LINE
  8
0
 10
-111.389
 20
-24.4213
 11
-110.957
 21
-24.1903
  0
LINE
  8
0
 10
-110.957
 20
-24.1903
 11
-110.488
 21
-24.048
  0
LINE
  8
0
 10
-110.488
 20
-24.048
 11
-110
 21
-24
  0
LINE
  8
0
 10
-110
 20
-24
 11
-109.512
 21
-24.048
  0
LINE
  8
0
 10
-109.512
 20
-24.048
 11
-109.043
 21
-24.1903
  0
LINE
  8
0
 10
-109.043
 20
-24.1903
 11
-108.611
 21
-24.4213
  0
LINE
  8
0
 10
-108.611
 20
-24.4213
 11
-108.232
 21
-24.7322
  0
LINE
  8
0
 10
-108.232
 20
-24.7322
 11
-107.921
 21
-25.1111
  0
LINE
  8
0
 10
-107.921
 20
-25.1111
 11
-107.69
 21
-25.5433
  0
LINE
  8
0
 10
-107.69
 20
-25.5433
 11
-107.548
 21
-26.0123
  0
LINE
  8
0
 10
-107.548
 20
-26.0123
 11
-107.5
 21
-26.5
  0
LINE
  8
0
 10
-107.5
 20
-26.5
 11
-107.548
 21
-26.9877
  0
LINE
  8
0
 10
-107.548
 20
-26.9877
 11
-107.69
 21
-27.4567
  0
LINE
  8
0
 10
-107.69
 20
-27.4567
 11
-107.921
 21
-27.8889
  0
LINE
  8
0
 10
-107.921
 20
-27.8889
 11
-108.232
 21
-28.2678
  0
LINE
  8
0
 10
-108.232
 20
-28.2678
 11
-108.611
 21
-28.5787
  0
LINE
  8
0
 10
-108.611
 20
-28.5787
 11
-109.043
 21
-28.8097
  0
LINE
  8
0
 10
-109.043
 20
-28.8097
 11
-109.512
 21
-28.952
  0
LINE
  8
0
 10
-109.512
 20
-28.952
 11
-110
 21
-29
  0
LINE
  8
0
 10
210.05
 20
-42.7
 11
210.05
 21
-27.8
  0
LINE
  8
0
 10
210.05
 20
-27.8
 11
216.45
 21
-27.8
  0
LINE
  8
0
 10
216.45
 20
-27.8
 11
216.45
 21
-42.7
  0
LINE
  8
0
 10
216.45
 20
-42.7
 11
210.05
 21
-42.7
  0
LINE
  8
0
 10
-216.45
 20
-42.7
 11
-216.45
 21
-27.8
  0
LINE
  8
0
 10
-216.45
 20
-27.8
 11
-210.05
 21
-27.8
  0
LINE
  8
0
 10
-210.05
 20
-27.8
 11
-210.05
 21
-42.7
  0
LINE
  8
0
 10
-210.05
 20
-42.7
 11
-216.45
 21
-42.7
  0
LINE
  8
0
 10
-200.488
 20
-39.702
 11
-200.957
 21
-39.5597
  0
LINE
  8
0
 10
-200.957
 20
-39.5597
 11
-201.389
 21
-39.3287
  0
LINE
  8
0
 10
-201.389
 20
-39.3287
 11
-201.768
 21
-39.0178
  0
LINE
  8
0
 10
-201.768
 20
-39.0178
 11
-202.079
 21
-38.6389
  0
LINE
  8
0
 10
-202.079
 20
-38.6389
 11
-202.31
 21
-38.2067
  0
LINE
  8
0
 10
-202.31
 20
-38.2067
 11
-202.452
 21
-37.7377
  0
LINE
  8
0
 10
-202.452
 20
-37.7377
 11
-202.5
 21
-37.25
  0
LINE
  8
0
 10
-202.5
 20
-37.25
 11
-202.452
 21
-36.7623
  0
LINE
  8
0
 10
-202.452
 20
-36.7623
 11
-202.31
 21
-36.2933
  0
LINE
  8
0
 10
-202.31
 20
-36.2933
 11
-202.079
 21
-35.8611
  0
LINE
  8
0
 10
-202.079
 20
-35.8611
 11
-201.768
 21
-35.4822
  0
LINE
  8
0
 10
-201.768
 20
-35.4822
 11
-201.389
 21
-35.1713
  0
LINE
  8
0
 10
-201.389
 20
-35.1713
 11
-200.957
 21
-34.9403
  0
LINE
  8
0
 10
-200.957
 20
-34.9403
 11
-200.488
 21
-34.798
  0
LINE
  8
0
 10
-200.488
 20
-34.798
 11
-200
 21
-34.75
  0
LINE
  8
0
 10
-200
 20
-34.75
 11
-199.512
 21
-34.798
  0
LINE
  8
0
 10
-199.512
 20
-34.798
 11
-199.043
 21
-34.9403
  0
LINE
  8
0
 10
-199.043
 20
-34.9403
 11
-198.611
 21
-35.1713
  0
LINE
  8
0
 10
-198.611
 20
-35.1713
 11
-198.232
 21
-35.4822
  0
LINE
  8
0
 10
-198.232
 20
-35.4822
 11
-197.921
 21
-35.8611
  0
LINE
  8
0
 10
-197.921
 20
-35.8611
 11
-197.69
 21
-36.2933
  0
LINE
  8
0
 10
-197.69
 20
-36.2933
 11
-197.548
 21
-36.7623
  0
LINE
  8
0
 10
-197.548
 20
-36.7623
 11
-197.5
 21
-37.25
  0
LINE
  8
0
 10
-197.5
 20
-37.25
 11
-197.548
 21
-37.7377
  0
LINE
  8
0
 10
-197.548
 20
-37.7377
 11
-197.69
 21
-38.2067
  0
LINE
  8
0
 10
-197.69
 20
-38.2067
 11
-197.921
 21
-38.6389
  0
LINE
  8
0
 10
-197.921
 20
-38.6389
 11
-198.232
 21
-39.0178
  0
LINE
  8
0
 10
-198.232
 20
-39.0178
 11
-198.611
 21
-39.3287
  0
LINE
  8
0
 10
-198.611
 20
-39.3287
 11
-199.043
 21
-39.5597
  0
LINE
  8
0
 10
-199.043
 20
-39.5597
 11
-199.512
 21
-39.702
  0
LINE
  8
0
 10
-199.512
 20
-39.702
 11
-200
 21
-39.75
  0
LINE
  8
0
 10
-200
 20
-39.75
 11
-200.488
 21
-39.702
  0
LINE
  8
0
 10
199.512
 20
-39.702
 11
199.043
 21
-39.5597
  0
LINE
  8
0
 10
199.043
 20
-39.5597
 11
198.611
 21
-39.3287
  0
LINE
  8
0
 10
198.611
 20
-39.3287
 11
198.232
 21
-39.0178
  0
LINE
  8
0
 10
198.232
 20
-39.0178
 11
197.921
 21
-38.6389
  0
LINE
  8
0
 10
197.921
 20
-38.6389
 11
197.69
 21
-38.2067
  0
LINE
  8
0
 10
197.69
 20
-38.2067
 11
197.548
 21
-37.7377
  0
LINE
  8
0
 10
197.548
 20
-37.7377
 11
197.5
 21
-37.25
  0
LINE
  8
0
 10
197.5
 20
-37.25
 11
197.548
 21
-36.7623
  0
LINE
  8
0
 10
197.548
 20
-36.7623
 11
197.69
 21
-36.2933
  0
LINE
  8
0
 10
197.69
 20
-36.2933
 11
197.921
 21
-35.8611
  0
LINE
  8
0
 10
197.921
 20
-35.8611
 11
198.232
 21
-35.4822
  0
LINE
  8
0
 10
198.232
 20
-35.4822
 11
198.611
 21
-35.1713
  0
LINE
  8
0
 10
198.611
 20
-35.1713
 11
199.043
 21
-34.9403
  0
LINE
  8
0
 10
199.043
 20
-34.9403
 11
199.512
 21
-34.798
  0
LINE
  8
0
 10
199.512
 20
-34.798
 11
200
 21
-34.75
  0
LINE
  8
0
 10
200
 20
-34.75
 11
200.488
 21
-34.798
  0
LINE
  8
0
 10
200.488
 20
-34.798
 11
200.957
 21
-34.9403
  0
LINE
  8
0
 10
200.957
 20
-34.9403
 11
201.389
 21
-35.1713
  0
LINE
  8
0
 10
201.389
 20
-35.1713
 11
201.768
 21
-35.4822
  0
LINE
  8
0
 10
201.768
 20
-35.4822
 11
202.079
 21
-35.8611
  0
LINE
  8
0
 10
202.079
 20
-35.8611
 11
202.31
 21
-36.2933
  0
LINE
  8
0
 10
202.31
 20
-36.2933
 11
202.452
 21
-36.7623
  0
LINE
  8
0
 10
202.452
 20
-36.7623
 11
202.5
 21
-37.25
  0
LINE
  8
0
 10
202.5
 20
-37.25
 11
202.452
 21
-37.7377
  0
LINE
  8
0
 10
202.452
 20
-37.7377
 11
202.31
 21
-38.2067
  0
LINE
  8
0
 10
202.31
 20
-38.2067
 11
202.079
 21
-38.6389
  0
LINE
  8
0
 10
202.079
 20
-38.6389
 11
201.768
 21
-39.0178
  0
LINE
  8
0
 10
201.768
 20
-39.0178
 11
201.389
 21
-39.3287
  0
LINE
  8
0
 10
201.389
 20
-39.3287
 11
200.957
 21
-39.5597
  0
LINE
  8
0
 10
200.957
 20
-39.5597
 11
200.488
 21
-39.702
  0
LINE
  8
0
 10
200.488
 20
-39.702
 11
200
 21
-39.75
  0
LINE
  8
0
 10
200
 20
-39.75
 11
199.512
 21
-39.702
  0
LINE
  8
0
 10
-105.249
 20
-45.2438
 11
-105.745
 21
-45.1942
  0
LINE
  8
0
 10
-105.745
 20
-45.1942
 11
-106.234
 21
-45.0954
  0
LINE
  8
0
 10
-106.234
 20
-45.0954
 11
-106.71
 21
-44.9485
  0
LINE
  8
0
 10
-106.71
 20
-44.9485
 11
-107.169
 21
-44.7548
  0
LINE
  8
0
 10
-107.169
 20
-44.7548
 11
-107.607
 21
-44.5164
  0
LINE
  8
0
 10
-107.607
 20
-44.5164
 11
-108.019
 21
-44.2357
  0
LINE
  8
0
 10
-108.019
 20
-44.2357
 11
-108.401
 21
-43.9153
  0
LINE
  8
0
 10
-108.401
 20
-43.9153
 11
-108.749
 21
-43.5584
  0
LINE
  8
0
 10
-108.749
 20
-43.5584
 11
-109.06
 21
-43.1687
  0
LINE
  8
0
 10
-109.06
 20
-43.1687
 11
-109.33
 21
-42.75
  0
LINE
  8
0
 10
-109.33
 20
-42.75
 11
-109.558
 21
-42.3064
  0
LINE
  8
0
 10
-109.558
 20
-42.3064
 11
-109.74
 21
-41.8424
  0
LINE
  8
0
 10
-109.74
 20
-41.8424
 11
-109.875
 21
-41.3626
  0
LINE
  8
0
 10
-109.875
 20
-41.3626
 11
-109.961
 21
-40.8717
  0
LINE
  8
0
 10
-109.961
 20
-40.8717
 11
-109.998
 21
-40.3746
  0
LINE
  8
0
 10
-109.998
 20
-40.3746
 11
-109.986
 21
-39.8763
  0
LINE
  8
0
 10
-109.986
 20
-39.8763
 11
-109.924
 21
-39.3818
  0
LINE
  8
0
 10
-109.924
 20
-39.3818
 11
-109.813
 21
-38.8958
  0
LINE
  8
0
 10
-109.813
 20
-38.8958
 11
-109.654
 21
-38.4233
  0
LINE
  8
0
 10
-109.654
 20
-38.4233
 11
-109.449
 21
-37.9689
  0
LINE
  8
0
 10
-109.449
 20
-37.9689
 11
-109.2
 21
-37.5373
  0
LINE
  8
0
 10
-109.2
 20
-37.5373
 11
-108.909
 21
-37.1325
  0
LINE
  8
0
 10
-108.909
 20
-37.1325
 11
-108.579
 21
-36.7588
  0
LINE
  8
0
 10
-108.579
 20
-36.7588
 11
-108.214
 21
-36.4198
  0
LINE
  8
0
 10
-108.214
 20
-36.4198
 11
-107.817
 21
-36.1188
  0
LINE
  8
0
 10
-107.817
 20
-36.1188
 11
-107.391
 21
-35.8589
  0
LINE
  8
0
 10
-107.391
 20
-35.8589
 11
-106.942
 21
-35.6426
  0
LINE
  8
0
 10
-106.942
 20
-35.6426
 11
-106.474
 21
-35.4721
  0
LINE
  8
0
 10
-106.474
 20
-35.4721
 11
-105.991
 21
-35.3491
  0
LINE
  8
0
 10
-105.991
 20
-35.3491
 11
-105.498
 21
-35.2748
  0
LINE
  8
0
 10
-105.498
 20
-35.2748
 11
-105
 21
-35.25
  0
LINE
  8
0
 10
-105
 20
-35.25
 11
-104.502
 21
-35.2748
  0
LINE
  8
0
 10
-104.502
 20
-35.2748
 11
-104.009
 21
-35.3491
  0
LINE
  8
0
 10
-104.009
 20
-35.3491
 11
-103.526
 21
-35.4721
  0
LINE
  8
0
 10
-103.526
 20
-35.4721
 11
-103.058
 21
-35.6426
  0
LINE
  8
0
 10
-103.058
 20
-35.6426
 11
-102.609
 21
-35.8589
  0
LINE
  8
0
 10
-102.609
 20
-35.8589
 11
-102.183
 21
-36.1188
  0
LINE
  8
0
 10
-102.183
 20
-36.1188
 11
-101.786
 21
-36.4198
  0
LINE
  8
0
 10
-101.786
 20
-36.4198
 11
-101.421
 21
-36.7588
  0
LINE
  8
0
 10
-101.421
 20
-36.7588
 11
-101.091
 21
-37.1325
  0
LINE
  8
0
 10
-101.091
 20
-37.1325
 11
-100.8
 21
-37.5373
  0
LINE
  8
0
 10
-100.8
 20
-37.5373
 11
-100.551
 21
-37.9689
  0
LINE
  8
0
 10
-100.551
 20
-37.9689
 11
-100.346
 21
-38.4233
  0
LINE
  8
0
 10
-100.346
 20
-38.4233
 11
-100.187
 21
-38.8958
  0
LINE
  8
0
 10
-100.187
 20
-38.8958
 11
-100.076
 21
-39.3818
  0
LINE
  8
0
 10
-100.076
 20
-39.3818
 11
-100.014
 21
-39.8763
  0
LINE
  8
0
 10
-100.014
 20
-39.8763
 11
-100.002
 21
-40.3746
  0
LINE
  8
0
 10
-100.002
 20
-40.3746
 11
-100.039
 21
-40.8717
  0
LINE
  8
0
 10
-100.039
 20
-40.8717
 11
-100.125
 21
-41.3626
  0
LINE
  8
0
 10
-100.125
 20
-41.3626
 11
-100.26
 21
-41.8424
  0
LINE
  8
0
 10
-100.26
 20
-41.8424
 11
-100.442
 21
-42.3064
  0
LINE
  8
0
 10
-100.442
 20
-42.3064
 11
-100.67
 21
-42.75
  0
LINE
  8
0
 10
-100.67
 20
-42.75
 11
-100.94
 21
-43.1687
  0
LINE
  8
0
 10
-100.94
 20
-43.1687
 11
-101.251
 21
-43.5584
  0
LINE
  8
0
 10
-101.251
 20
-43.5584
 11
-101.599
 21
-43.9153
  0
LINE
  8
0
 10
-101.599
 20
-43.9153
 11
-101.981
 21
-44.2357
  0
LINE
  8
0
 10
-101.981
 20
-44.2357
 11
-102.393
 21
-44.5164
  0
LINE
  8
0
 10
-102.393
 20
-44.5164
 11
-102.831
 21
-44.7548
  0
LINE
  8
0
 10
-102.831
 20
-44.7548
 11
-103.29
 21
-44.9485
  0
LINE
  8
0
 10
-103.29
 20
-44.9485
 11
-103.766
 21
-45.0954
  0
LINE
  8
0
 10
-103.766
 20
-45.0954
 11
-104.255
 21
-45.1942
  0
LINE
  8
0
 10
-104.255
 20
-45.1942
 11
-104.751
 21
-45.2438
  0
LINE
  8
0
 10
-104.751
 20
-45.2438
 11
-105.249
 21
-45.2438
  0
LINE
  8
0
 10
104.751
 20
-45.2438
 11
104.255
 21
-45.1942
  0
LINE
  8
0
 10
104.255
 20
-45.1942
 11
103.766
 21
-45.0954
  0
LINE
  8
0
 10
103.766
 20
-45.0954
 11
103.29
 21
-44.9485
  0
LINE
  8
0
 10
103.29
 20
-44.9485
 11
102.831
 21
-44.7548
  0
LINE
  8
0
 10
102.831
 20
-44.7548
 11
102.393
 21
-44.5164
  0
LINE
  8
0
 10
102.393
 20
-44.5164
 11
101.981
 21
-44.2357
  0
LINE
  8
0
 10
101.981
 20
-44.2357
 11
101.599
 21
-43.9153
  0
LINE
  8
0
 10
101.599
 20
-43.9153
 11
101.251
 21
-43.5584
  0
LINE
  8
0
 10
101.251
 20
-43.5584
 11
100.94
 21
-43.1687
  0
LINE
  8
0
 10
100.94
 20
-43.1687
 11
100.67
 21
-42.75
  0
LINE
  8
0
 10
100.67
 20
-42.75
 11
100.442
 21
-42.3064
  0
LINE
  8
0
 10
100.442
 20
-42.3064
 11
100.26
 21
-41.8424
  0
LINE
  8
0
 10
100.26
 20
-41.8424
 11
100.125
 21
-41.3626
  0
LINE
  8
0
 10
100.125
 20
-41.3626
 11
100.039
 21
-40.8717
  0
LINE
  8
0
 10
100.039
 20
-40.8717
 11
100.002
 21
-40.3746
  0
LINE
  8
0
 10
100.002
 20
-40.3746
 11
100.014
 21
-39.8763
  0
LINE
  8
0
 10
100.014
 20
-39.8763
 11
100.076
 21
-39.3818
  0
LINE
  8
0
 10
100.076
 20
-39.3818
 11
100.187
 21
-38.8958
  0
LINE
  8
0
 10
100.187
 20
-38.8958
 11
100.346
 21
-38.4233
  0
LINE
  8
0
 10
100.346
 20
-38.4233
 11
100.551
 21
-37.9689
  0
LINE
  8
0
 10
100.551
 20
-37.9689
 11
100.8
 21
-37.5373
  0
LINE
  8
0
 10
100.8
 20
-37.5373
 11
101.091
 21
-37.1325
  0
LINE
  8
0
 10
101.091
 20
-37.1325
 11
101.421
 21
-36.7588
  0
LINE
  8
0
 10
101.421
 20
-36.7588
 11
101.786
 21
-36.4198
  0
LINE
  8
0
 10
101.786
 20
-36.4198
 11
102.183
 21
-36.1188
  0
LINE
  8
0
 10
102.183
 20
-36.1188
 11
102.609
 21
-35.8589
  0
LINE
  8
0
 10
102.609
 20
-35.8589
 11
103.058
 21
-35.6426
  0
LINE
  8
0
 10
103.058
 20
-35.6426
 11
103.526
 21
-35.4721
  0
LINE
  8
0
 10
103.526
 20
-35.4721
 11
104.009
 21
-35.3491
  0
LINE
  8
0
 10
104.009
 20
-35.3491
 11
104.502
 21
-35.2748
  0
LINE
  8
0
 10
104.502
 20
-35.2748
 11
105
 21
-35.25
  0
LINE
  8
0
 10
105
 20
-35.25
 11
105.498
 21
-35.2748
  0
LINE
  8
0
 10
105.498
 20
-35.2748
 11
105.991
 21
-35.3491
  0
LINE
  8
0
 10
105.991
 20
-35.3491
 11
106.474
 21
-35.4721
  0
LINE
  8
0
 10
106.474
 20
-35.4721
 11
106.942
 21
-35.6426
  0
LINE
  8
0
 10
106.942
 20
-35.6426
 11
107.391
 21
-35.8589
  0
LINE
  8
0
 10
107.391
 20
-35.8589
 11
107.817
 21
-36.1188
  0
LINE
  8
0
 10
107.817
 20
-36.1188
 11
108.214
 21
-36.4198
  0
LINE
  8
0
 10
108.214
 20
-36.4198
 11
108.579
 21
-36.7588
  0
LINE
  8
0
 10
108.579
 20
-36.7588
 11
108.909
 21
-37.1325
  0
LINE
  8
0
 10
108.909
 20
-37.1325
 11
109.2
 21
-37.5373
  0
LINE
  8
0
 10
109.2
 20
-37.5373
 11
109.449
 21
-37.9689
  0
LINE
  8
0
 10
109.449
 20
-37.9689
 11
109.654
 21
-38.4233
  0
LINE
  8
0
 10
109.654
 20
-38.4233
 11
109.813
 21
-38.8958
  0
LINE
  8
0
 10
109.813
 20
-38.8958
 11
109.924
 21
-39.3818
  0
LINE
  8
0
 10
109.924
 20
-39.3818
 11
109.986
 21
-39.8763
  0
LINE
  8
0
 10
109.986
 20
-39.8763
 11
109.998
 21
-40.3746
  0
LINE
  8
0
 10
109.998
 20
-40.3746
 11
109.961
 21
-40.8717
  0
LINE
  8
0
 10
109.961
 20
-40.8717
 11
109.875
 21
-41.3626
  0
LINE
  8
0
 10
109.875
 20
-41.3626
 11
109.74
 21
-41.8424
  0
LINE
  8
0
 10
109.74
 20
-41.8424
 11
109.558
 21
-42.3064
  0
LINE
  8
0
 10
109.558
 20
-42.3064
 11
109.33
 21
-42.75
  0
LINE
  8
0
 10
109.33
 20
-42.75
 11
109.06
 21
-43.1687
  0
LINE
  8
0
 10
109.06
 20
-43.1687
 11
108.749
 21
-43.5584
  0
LINE
  8
0
 10
108.749
 20
-43.5584
 11
108.401
 21
-43.9153
  0
LINE
  8
0
 10
108.401
 20
-43.9153
 11
108.019
 21
-44.2357
  0
LINE
  8
0
 10
108.019
 20
-44.2357
 11
107.607
 21
-44.5164
  0
LINE
  8
0
 10
107.607
 20
-44.5164
 11
107.169
 21
-44.7548
  0
LINE
  8
0
 10
107.169
 20
-44.7548
 11
106.71
 21
-44.9485
  0
LINE
  8
0
 10
106.71
 20
-44.9485
 11
106.234
 21
-45.0954
  0
LINE
  8
0
 10
106.234
 20
-45.0954
 11
105.745
 21
-45.1942
  0
LINE
  8
0
 10
105.745
 20
-45.1942
 11
105.249
 21
-45.2438
  0
LINE
  8
0
 10
105.249
 20
-45.2438
 11
104.751
 21
-45.2438
  0
LINE
  8
0
 10
114.5
 20
-42.75
 11
114.5
 21
-37.75
  0
LINE
  8
0
 10
114.5
 20
-37.75
 11
117.5
 21
-37.75
  0
LINE
  8
0
 10
117.5
 20
-37.75
 11
117.5
 21
-42.75
  0
LINE
  8
0
 10
117.5
 20
-42.75
 11
114.5
 21
-42.75
  0
LINE
  8
0
 10
92.5
 20
-42.75
 11
92.5
 21
-37.75
  0
LINE
  8
0
 10
92.5
 20
-37.75
 11
95.5
 21
-37.75
  0
LINE
  8
0
 10
95.5
 20
-37.75
 11
95.5
 21
-42.75
  0
LINE
  8
0
 10
95.5
 20
-42.75
 11
92.5
 21
-42.75
  0
LINE
  8
0
 10
-95.5
 20
-42.75
 11
-95.5
 21
-37.75
  0
LINE
  8
0
 10
-95.5
 20
-37.75
 11
-92.5
 21
-37.75
  0
LINE
  8
0
 10
-92.5
 20
-37.75
 11
-92.5
 21
-42.75
  0
LINE
  8
0
 10
-92.5
 20
-42.75
 11
-95.5
 21
-42.75
  0
LINE
  8
0
 10
-117.5
 20
-42.75
 11
-117.5
 21
-37.75
  0
LINE
  8
0
 10
-117.5
 20
-37.75
 11
-114.5
 21
-37.75
  0
LINE
  8
0
 10
-114.5
 20
-37.75
 11
-114.5
 21
-42.75
  0
LINE
  8
0
 10
-114.5
 20
-42.75
 11
-117.5
 21
-42.75
  0
LINE
  8
0
 10
170.385
 20
-41.9457
 11
169.912
 21
-41.8428
  0
LINE
  8
0
 10
169.912
 20
-41.8428
 11
169.487
 21
-41.6109
  0
LINE
  8
0
 10
169.487
 20
-41.6109
 11
169.145
 21
-41.2688
  0
LINE
  8
0
 10
169.145
 20
-41.2688
 11
168.913
 21
-40.8441
  0
LINE
  8
0
 10
168.913
 20
-40.8441
 11
168.81
 21
-40.3713
  0
LINE
  8
0
 10
168.81
 20
-40.3713
 11
168.845
 21
-39.8886
  0
LINE
  8
0
 10
168.845
 20
-39.8886
 11
169.014
 21
-39.4353
  0
LINE
  8
0
 10
169.014
 20
-39.4353
 11
169.304
 21
-39.0479
  0
LINE
  8
0
 10
169.304
 20
-39.0479
 11
169.691
 21
-38.7579
  0
LINE
  8
0
 10
169.691
 20
-38.7579
 11
170.145
 21
-38.5888
  0
LINE
  8
0
 10
170.145
 20
-38.5888
 11
170.627
 21
-38.5543
  0
LINE
  8
0
 10
170.627
 20
-38.5543
 11
173.456
 21
-38.5543
  0
LINE
  8
0
 10
173.456
 20
-38.5543
 11
173.929
 21
-38.6572
  0
LINE
  8
0
 10
173.929
 20
-38.6572
 11
174.353
 21
-38.8891
  0
LINE
  8
0
 10
174.353
 20
-38.8891
 11
174.695
 21
-39.2312
  0
LINE
  8
0
 10
174.695
 20
-39.2312
 11
174.927
 21
-39.6559
  0
LINE
  8
0
 10
174.927
 20
-39.6559
 11
175.03
 21
-40.1287
  0
LINE
  8
0
 10
175.03
 20
-40.1287
 11
174.996
 21
-40.6114
  0
LINE
  8
0
 10
174.996
 20
-40.6114
 11
174.827
 21
-41.0647
  0
LINE
  8
0
 10
174.827
 20
-41.0647
 11
174.537
 21
-41.4521
  0
LINE
  8
0
 10
174.537
 20
-41.4521
 11
174.149
 21
-41.7421
  0
LINE
  8
0
 10
174.149
 20
-41.7421
 11
173.696
 21
-41.9111
  0
LINE
  8
0
 10
173.696
 20
-41.9111
 11
173.213
 21
-41.9457
  0
LINE
  8
0
 10
173.213
 20
-41.9457
 11
170.385
 21
-41.9457
  0
LINE
  8
0
 10
-129.615
 20
-41.9457
 11
-130.088
 21
-41.8428
  0
LINE
  8
0
 10
-130.088
 20
-41.8428
 11
-130.513
 21
-41.6109
  0
LINE
  8
0
 10
-130.513
 20
-41.6109
 11
-130.855
 21
-41.2688
  0
LINE
  8
0
 10
-130.855
 20
-41.2688
 11
-131.087
 21
-40.8441
  0
LINE
  8
0
 10
-131.087
 20
-40.8441
 11
-131.19
 21
-40.3713
  0
LINE
  8
0
 10
-131.19
 20
-40.3713
 11
-131.155
 21
-39.8886
  0
LINE
  8
0
 10
-131.155
 20
-39.8886
 11
-130.986
 21
-39.4353
  0
LINE
  8
0
 10
-130.986
 20
-39.4353
 11
-130.696
 21
-39.0479
  0
LINE
  8
0
 10
-130.696
 20
-39.0479
 11
-130.309
 21
-38.7579
  0
LINE
  8
0
 10
-130.309
 20
-38.7579
 11
-129.855
 21
-38.5888
  0
LINE
  8
0
 10
-129.855
 20
-38.5888
 11
-129.373
 21
-38.5543
  0
LINE
  8
0
 10
-129.373
 20
-38.5543
 11
-126.544
 21
-38.5543
  0
LINE
  8
0
 10
-126.544
 20
-38.5543
 11
-126.071
 21
-38.6572
  0
LINE
  8
0
 10
-126.071
 20
-38.6572
 11
-125.647
 21
-38.8891
  0
LINE
  8
0
 10
-125.647
 20
-38.8891
 11
-125.305
 21
-39.2312
  0
LINE
  8
0
 10
-125.305
 20
-39.2312
 11
-125.073
 21
-39.6559
  0
LINE
  8
0
 10
-125.073
 20
-39.6559
 11
-124.97
 21
-40.1287
  0
LINE
  8
0
 10
-124.97
 20
-40.1287
 11
-125.004
 21
-40.6114
  0
LINE
  8
0
 10
-125.004
 20
-40.6114
 11
-125.173
 21
-41.0647
  0
LINE
  8
0
 10
-125.173
 20
-41.0647
 11
-125.463
 21
-41.4521
  0
LINE
  8
0
 10
-125.463
 20
-41.4521
 11
-125.851
 21
-41.7421
  0
LINE
  8
0
 10
-125.851
 20
-41.7421
 11
-126.304
 21
-41.9111
  0
LINE
  8
0
 10
-126.304
 20
-41.9111
 11
-126.787
 21
-41.9457
  0
LINE
  8
0
 10
-126.787
 20
-41.9457
 11
-129.615
 21
-41.9457
  0
LINE
  8
0
 10
-23.4558
 20
-41.9457
 11
-23.9286
 21
-41.8428
  0
LINE
  8
0
 10
-23.9286
 20
-41.8428
 11
-24.3533
 21
-41.6109
  0
LINE
  8
0
 10
-24.3533
 20
-41.6109
 11
-24.6954
 21
-41.2688
  0
LINE
  8
0
 10
-24.6954
 20
-41.2688
 11
-24.9273
 21
-40.8441
  0
LINE
  8
0
 10
-24.9273
 20
-40.8441
 11
-25.0302
 21
-40.3713
  0
LINE
  8
0
 10
-25.0302
 20
-40.3713
 11
-24.9957
 21
-39.8886
  0
LINE
  8
0
 10
-24.9957
 20
-39.8886
 11
-24.8266
 21
-39.4353
  0
LINE
  8
0
 10
-24.8266
 20
-39.4353
 11
-24.5366
 21
-39.0479
  0
LINE
  8
0
 10
-24.5366
 20
-39.0479
 11
-24.1492
 21
-38.7579
  0
LINE
  8
0
 10
-24.1492
 20
-38.7579
 11
-23.6959
 21
-38.5888
  0
LINE
  8
0
 10
-23.6959
 20
-38.5888
 11
-23.2132
 21
-38.5543
  0
LINE
  8
0
 10
-23.2132
 20
-38.5543
 11
-20.3848
 21
-38.5543
  0
LINE
  8
0
 10
-20.3848
 20
-38.5543
 11
-19.912
 21
-38.6572
  0
LINE
  8
0
 10
-19.912
 20
-38.6572
 11
-19.4873
 21
-38.8891
  0
LINE
  8
0
 10
-19.4873
 20
-38.8891
 11
-19.1452
 21
-39.2312
  0
LINE
  8
0
 10
-19.1452
 20
-39.2312
 11
-18.9133
 21
-39.6559
  0
LINE
  8
0
 10
-18.9133
 20
-39.6559
 11
-18.8104
 21
-40.1287
  0
LINE
  8
0
 10
-18.8104
 20
-40.1287
 11
-18.8449
 21
-40.6114
  0
LINE
  8
0
 10
-18.8449
 20
-40.6114
 11
-19.014
 21
-41.0647
  0
LINE
  8
0
 10
-19.014
 20
-41.0647
 11
-19.304
 21
-41.4521
  0
LINE
  8
0
 10
-19.304
 20
-41.4521
 11
-19.6914
 21
-41.7421
  0
LINE
  8
0
 10
-19.6914
 20
-41.7421
 11
-20.1447
 21
-41.9111
  0
LINE
  8
0
 10
-20.1447
 20
-41.9111
 11
-20.6274
 21
-41.9457
  0
LINE
  8
0
 10
-20.6274
 20
-41.9457
 11
-23.4558
 21
-41.9457
  0
LINE
  8
0
 10
126.544
 20
-41.9457
 11
126.071
 21
-41.8428
  0
LINE
  8
0
 10
126.071
 20
-41.8428
 11
125.647
 21
-41.6109
  0
LINE
  8
0
 10
125.647
 20
-41.6109
 11
125.305
 21
-41.2688
  0
LINE
  8
0
 10
125.305
 20
-41.2688
 11
125.073
 21
-40.8441
  0
LINE
  8
0
 10
125.073
 20
-40.8441
 11
124.97
 21
-40.3713
  0
LINE
  8
0
 10
124.97
 20
-40.3713
 11
125.004
 21
-39.8886
  0
LINE
  8
0
 10
125.004
 20
-39.8886
 11
125.173
 21
-39.4353
  0
LINE
  8
0
 10
125.173
 20
-39.4353
 11
125.463
 21
-39.0479
  0
LINE
  8
0
 10
125.463
 20
-39.0479
 11
125.851
 21
-38.7579
  0
LINE
  8
0
 10
125.851
 20
-38.7579
 11
126.304
 21
-38.5888
  0
LINE
  8
0
 10
126.304
 20
-38.5888
 11
126.787
 21
-38.5543
  0
LINE
  8
0
 10
126.787
 20
-38.5543
 11
129.615
 21
-38.5543
  0
LINE
  8
0
 10
129.615
 20
-38.5543
 11
130.088
 21
-38.6572
  0
LINE
  8
0
 10
130.088
 20
-38.6572
 11
130.513
 21
-38.8891
  0
LINE
  8
0
 10
130.513
 20
-38.8891
 11
130.855
 21
-39.2312
  0
LINE
  8
0
 10
130.855
 20
-39.2312
 11
131.087
 21
-39.6559
  0
LINE
  8
0
 10
131.087
 20
-39.6559
 11
131.19
 21
-40.1287
  0
LINE
  8
0
 10
131.19
 20
-40.1287
 11
131.155
 21
-40.6114
  0
LINE
  8
0
 10
131.155
 20
-40.6114
 11
130.986
 21
-41.0647
  0
LINE
  8
0
 10
130.986
 20
-41.0647
 11
130.696
 21
-41.4521
  0
LINE
  8
0
 10
130.696
 20
-41.4521
 11
130.309
 21
-41.7421
  0
LINE
  8
0
 10
130.309
 20
-41.7421
 11
129.855
 21
-41.9111
  0
LINE
  8
0
 10
129.855
 20
-41.9111
 11
129.373
 21
-41.9457
  0
LINE
  8
0
 10
129.373
 20
-41.9457
 11
126.544
 21
-41.9457
  0
LINE
  8
0
 10
20.3848
 20
-41.9457
 11
19.912
 21
-41.8428
  0
LINE
  8
0
 10
19.912
 20
-41.8428
 11
19.4873
 21
-41.6109
  0
LINE
  8
0
 10
19.4873
 20
-41.6109
 11
19.1452
 21
-41.2688
  0
LINE
  8
0
 10
19.1452
 20
-41.2688
 11
18.9133
 21
-40.8441
  0
LINE
  8
0
 10
18.9133
 20
-40.8441
 11
18.8104
 21
-40.3713
  0
LINE
  8
0
 10
18.8104
 20
-40.3713
 11
18.8449
 21
-39.8886
  0
LINE
  8
0
 10
18.8449
 20
-39.8886
 11
19.014
 21
-39.4353
  0
LINE
  8
0
 10
19.014
 20
-39.4353
 11
19.304
 21
-39.0479
  0
LINE
  8
0
 10
19.304
 20
-39.0479
 11
19.6914
 21
-38.7579
  0
LINE
  8
0
 10
19.6914
 20
-38.7579
 11
20.1447
 21
-38.5888
  0
LINE
  8
0
 10
20.1447
 20
-38.5888
 11
20.6274
 21
-38.5543
  0
LINE
  8
0
 10
20.6274
 20
-38.5543
 11
23.4558
 21
-38.5543
  0
LINE
  8
0
 10
23.4558
 20
-38.5543
 11
23.9286
 21
-38.6572
  0
LINE
  8
0
 10
23.9286
 20
-38.6572
 11
24.3533
 21
-38.8891
  0
LINE
  8
0
 10
24.3533
 20
-38.8891
 11
24.6954
 21
-39.2312
  0
LINE
  8
0
 10
24.6954
 20
-39.2312
 11
24.9273
 21
-39.6559
  0
LINE
  8
0
 10
24.9273
 20
-39.6559
 11
25.0302
 21
-40.1287
  0
LINE
  8
0
 10
25.0302
 20
-40.1287
 11
24.9957
 21
-40.6114
  0
LINE
  8
0
 10
24.9957
 20
-40.6114
 11
24.8266
 21
-41.0647
  0
LINE
  8
0
 10
24.8266
 20
-41.0647
 11
24.5366
 21
-41.4521
  0
LINE
  8
0
 10
24.5366
 20
-41.4521
 11
24.1492
 21
-41.7421
  0
LINE
  8
0
 10
24.1492
 20
-41.7421
 11
23.6959
 21
-41.9111
  0
LINE
  8
0
 10
23.6959
 20
-41.9111
 11
23.2132
 21
-41.9457
  0
LINE
  8
0
 10
23.2132
 20
-41.9457
 11
20.3848
 21
-41.9457
  0
LINE
  8
0
 10
-173.456
 20
-41.9457
 11
-173.929
 21
-41.8428
  0
LINE
  8
0
 10
-173.929
 20
-41.8428
 11
-174.353
 21
-41.6109
  0
LINE
  8
0
 10
-174.353
 20
-41.6109
 11
-174.695
 21
-41.2688
  0
LINE
  8
0
 10
-174.695
 20
-41.2688
 11
-174.927
 21
-40.8441
  0
LINE
  8
0
 10
-174.927
 20
-40.8441
 11
-175.03
 21
-40.3713
  0
LINE
  8
0
 10
-175.03
 20
-40.3713
 11
-174.996
 21
-39.8886
  0
LINE
  8
0
 10
-174.996
 20
-39.8886
 11
-174.827
 21
-39.4353
  0
LINE
  8
0
 10
-174.827
 20
-39.4353
 11
-174.537
 21
-39.0479
  0
LINE
  8
0
 10
-174.537
 20
-39.0479
 11
-174.149
 21
-38.7579
  0
LINE
  8
0
 10
-174.149
 20
-38.7579
 11
-173.696
 21
-38.5888
  0
LINE
  8
0
 10
-173.696
 20
-38.5888
 11
-173.213
 21
-38.5543
  0
LINE
  8
0
 10
-173.213
 20
-38.5543
 11
-170.385
 21
-38.5543
  0
LINE
  8
0
 10
-170.385
 20
-38.5543
 11
-169.912
 21
-38.6572
  0
LINE
  8
0
 10
-169.912
 20
-38.6572
 11
-169.487
 21
-38.8891
  0
LINE
  8
0
 10
-169.487
 20
-38.8891
 11
-169.145
 21
-39.2312
  0
LINE
  8
0
 10
-169.145
 20
-39.2312
 11
-168.913
 21
-39.6559
  0
LINE
  8
0
 10
-168.913
 20
-39.6559
 11
-168.81
 21
-40.1287
  0
LINE
  8
0
 10
-168.81
 20
-40.1287
 11
-168.845
 21
-40.6114
  0
LINE
  8
0
 10
-168.845
 20
-40.6114
 11
-169.014
 21
-41.0647
  0
LINE
  8
0
 10
-169.014
 20
-41.0647
 11
-169.304
 21
-41.4521
  0
LINE
  8
0
 10
-169.304
 20
-41.4521
 11
-169.691
 21
-41.7421
  0
LINE
  8
0
 10
-169.691
 20
-41.7421
 11
-170.145
 21
-41.9111
  0
LINE
  8
0
 10
-170.145
 20
-41.9111
 11
-170.627
 21
-41.9457
  0
LINE
  8
0
 10
-170.627
 20
-41.9457
 11
-173.456
 21
-41.9457
  0
ENDSEC
  0
SECTION
  2
OBJECTS
  0
DICTIONARY
  0
ENDSEC
  0
EOF
