  0
SECTION
  2
BLOCKS
  0
ENDSEC
  0
SECTION
  2
ENTITIES
  0
LINE
  8
0
 10
-160.473
 20
-50.1137
 11
-160.614
 21
-49.637
  0
LINE
  8
0
 10
-160.614
 20
-49.637
 11
-160.734
 21
-49.1544
  0
LINE
  8
0
 10
-160.734
 20
-49.1544
 11
-160.832
 21
-48.6669
  0
LINE
  8
0
 10
-160.832
 20
-48.6669
 11
-160.907
 21
-48.1755
  0
LINE
  8
0
 10
-160.907
 20
-48.1755
 11
-160.961
 21
-47.6812
  0
LINE
  8
0
 10
-160.961
 20
-47.6812
 11
-160.991
 21
-47.185
  0
LINE
  8
0
 10
-160.991
 20
-47.185
 11
-161
 21
-46.6878
  0
LINE
  8
0
 10
-161
 20
-46.6878
 11
-160.986
 21
-46.1909
  0
LINE
  8
0
 10
-160.986
 20
-46.1909
 11
-160.949
 21
-45.695
  0
LINE
  8
0
 10
-160.949
 20
-45.695
 11
-160.89
 21
-45.2013
  0
LINE
  8
0
 10
-160.89
 20
-45.2013
 11
-160.809
 21
-44.7108
  0
LINE
  8
0
 10
-160.809
 20
-44.7108
 11
-160.706
 21
-44.2244
  0
LINE
  8
0
 10
-160.706
 20
-44.2244
 11
-160.581
 21
-43.7432
  0
LINE
  8
0
 10
-160.581
 20
-43.7432
 11
-160.434
 21
-43.2682
  0
LINE
  8
0
 10
-160.434
 20
-43.2682
 11
-160.266
 21
-42.8002
  0
LINE
  8
0
 10
-160.266
 20
-42.8002
 11
-160.077
 21
-42.3403
  0
LINE
  8
0
 10
-160.077
 20
-42.3403
 11
-159.868
 21
-41.8895
  0
LINE
  8
0
 10
-159.868
 20
-41.8895
 11
-159.638
 21
-41.4485
  0
LINE
  8
0
 10
-159.638
 20
-41.4485
 11
-159.389
 21
-41.0184
  0
LINE
  8
0
 10
-159.389
 20
-41.0184
 11
-159.12
 21
-40.6
  0
LINE
  8
0
 10
-159.12
 20
-40.6
 11
-158.833
 21
-40.1942
  0
LINE
  8
0
 10
-158.833
 20
-40.1942
 11
-158.528
 21
-39.8017
  0
LINE
  8
0
 10
-158.528
 20
-39.8017
 11
-158.205
 21
-39.4235
  0
LINE
  8
0
 10
-158.205
 20
-39.4235
 11
-157.866
 21
-39.0602
  0
LINE
  8
0
 10
-157.866
 20
-39.0602
 11
-157.51
 21
-38.7126
  0
LINE
  8
0
 10
-157.51
 20
-38.7126
 11
-157.139
 21
-38.3815
  0
LINE
  8
0
 10
-157.139
 20
-38.3815
 11
-156.754
 21
-38.0674
  0
LINE
  8
0
 10
-156.754
 20
-38.0674
 11
-156.355
 21
-37.7711
  0
LINE
  8
0
 10
-156.355
 20
-37.7711
 11
-155.942
 21
-37.4931
  0
LINE
  8
0
 10
-155.942
 20
-37.4931
 11
-155.518
 21
-37.2341
  0
LINE
  8
0
 10
-155.518
 20
-37.2341
 11
-155.082
 21
-36.9945
  0
LINE
  8
0
 10
-155.082
 20
-36.9945
 11
-154.636
 21
-36.7748
  0
LINE
  8
0
 10
-154.636
 20
-36.7748
 11
-154.181
 21
-36.5755
  0
LINE
  8
0
 10
-154.181
 20
-36.5755
 11
-153.717
 21
-36.3969
  0
LINE
  8
0
 10
-153.717
 20
-36.3969
 11
-153.245
 21
-36.2396
  0
LINE
  8
0
 10
-153.245
 20
-36.2396
 11
-152.767
 21
-36.1037
  0
LINE
  8
0
 10
-152.767
 20
-36.1037
 11
-152.283
 21
-35.9895
  0
LINE
  8
0
 10
-152.283
 20
-35.9895
 11
-151.794
 21
-35.8973
  0
LINE
  8
0
 10
-151.794
 20
-35.8973
 11
-151.302
 21
-35.8273
  0
LINE
  8
0
 10
-151.302
 20
-35.8273
 11
-150.807
 21
-35.7797
  0
LINE
  8
0
 10
-150.807
 20
-35.7797
 11
-150.311
 21
-35.7544
  0
LINE
  8
0
 10
-150.311
 20
-35.7544
 11
-149.814
 21
-35.7516
  0
LINE
  8
0
 10
-149.814
 20
-35.7516
 11
-149.317
 21
-35.7712
  0
LINE
  8
0
 10
-149.317
 20
-35.7712
 11
-148.821
 21
-35.8133
  0
LINE
  8
0
 10
-148.821
 20
-35.8133
 11
-148.328
 21
-35.8778
  0
LINE
  8
0
 10
-148.328
 20
-35.8778
 11
-147.839
 21
-35.9644
  0
LINE
  8
0
 10
-147.839
 20
-35.9644
 11
-147.354
 21
-36.0731
  0
LINE
  8
0
 10
-147.354
 20
-36.0731
 11
-146.874
 21
-36.2036
  0
LINE
  8
0
 10
-146.874
 20
-36.2036
 11
-146.4
 21
-36.3556
  0
LINE
  8
0
 10
-146.4
 20
-36.3556
 11
-145.934
 21
-36.5289
  0
LINE
  8
0
 10
-145.934
 20
-36.5289
 11
-145.477
 21
-36.723
  0
LINE
  8
0
 10
-145.477
 20
-36.723
 11
-145.028
 21
-36.9377
  0
LINE
  8
0
 10
-145.028
 20
-36.9377
 11
-144.59
 21
-37.1723
  0
LINE
  8
0
 10
-144.59
 20
-37.1723
 11
-144.163
 21
-37.4266
  0
LINE
  8
0
 10
-144.163
 20
-37.4266
 11
-143.747
 21
-37.6999
  0
LINE
  8
0
 10
-143.747
 20
-37.6999
 11
-143.345
 21
-37.9917
  0
LINE
  8
0
 10
-143.345
 20
-37.9917
 11
-142.956
 21
-38.3013
  0
LINE
  8
0
 10
-142.956
 20
-38.3013
 11
-142.581
 21
-38.6283
  0
LINE
  8
0
 10
-142.581
 20
-38.6283
 11
-142.222
 21
-38.9718
  0
LINE
  8
0
 10
-142.222
 20
-38.9718
 11
-141.878
 21
-39.3312
  0
LINE
  8
0
 10
-141.878
 20
-39.3312
 11
-141.551
 21
-39.7058
  0
LINE
  8
0
 10
-141.551
 20
-39.7058
 11
-141.242
 21
-40.0948
  0
LINE
  8
0
 10
-141.242
 20
-40.0948
 11
-140.95
 21
-40.4973
  0
LINE
  8
0
 10
-140.95
 20
-40.4973
 11
-140.677
 21
-40.9127
  0
LINE
  8
0
 10
-140.677
 20
-40.9127
 11
-140.422
 21
-41.34
  0
LINE
  8
0
 10
-140.422
 20
-41.34
 11
-140.188
 21
-41.7783
  0
LINE
  8
0
 10
-140.188
 20
-41.7783
 11
-139.973
 21
-42.2267
  0
LINE
  8
0
 10
-139.973
 20
-42.2267
 11
-139.779
 21
-42.6844
  0
LINE
  8
0
 10
-139.779
 20
-42.6844
 11
-139.606
 21
-43.1505
  0
LINE
  8
0
 10
-139.606
 20
-43.1505
 11
-139.454
 21
-43.6238
  0
LINE
  8
0
 10
-139.454
 20
-43.6238
 11
-139.323
 21
-44.1036
  0
LINE
  8
0
 10
-139.323
 20
-44.1036
 11
-139.214
 21
-44.5888
  0
LINE
  8
0
 10
-139.214
 20
-44.5888
 11
-139.128
 21
-45.0783
  0
LINE
  8
0
 10
-139.128
 20
-45.0783
 11
-139.063
 21
-45.5713
  0
LINE
  8
0
 10
-139.063
 20
-45.5713
 11
-139.021
 21
-46.0667
  0
LINE
  8
0
 10
-139.021
 20
-46.0667
 11
-139.002
 21
-46.5635
  0
LINE
  8
0
 10
-139.002
 20
-46.5635
 11
-139.004
 21
-47.0607
  0
LINE
  8
0
 10
-139.004
 20
-47.0607
 11
-139.03
 21
-47.5573
  0
LINE
  8
0
 10
-139.03
 20
-47.5573
 11
-139.077
 21
-48.0522
  0
LINE
  8
0
 10
-139.077
 20
-48.0522
 11
-139.147
 21
-48.5444
  0
LINE
  8
0
 10
-139.147
 20
-48.5444
 11
-139.24
 21
-49.033
  0
LINE
  8
0
 10
-139.24
 20
-49.033
 11
-139.354
 21
-49.5169
  0
LINE
  8
0
 10
-139.354
 20
-49.5169
 11
-139.49
 21
-49.9951
  0
LINE
  8
0
 10
-139.49
 20
-49.9951
 11
-139.575
 21
-50.25
  0
LINE
  8
0
 10
-139.575
 20
-50.25
 11
-118.562
 21
-50.25
  0
LINE
  8
0
 10
-118.562
 20
-50.25
 11
-118.749
 21
-50.0584
  0
LINE
  8
0
 10
-118.749
 20
-50.0584
 11
-119.06
 21
-49.6687
  0
LINE
  8
0
 10
-119.06
 20
-49.6687
 11
-119.33
 21
-49.25
  0
LINE
  8
0
 10
-119.33
 20
-49.25
 11
-119.558
 21
-48.8064
  0
LINE
  8
0
 10
-119.558
 20
-48.8064
 11
-119.74
 21
-48.3424
  0
LINE
  8
0
 10
-119.74
 20
-48.3424
 11
-119.875
 21
-47.8626
  0
LINE
  8
0
 10
-119.875
 20
-47.8626
 11
-119.961
 21
-47.3717
  0
LINE
  8
0
 10
-119.961
 20
-47.3717
 11
-119.998
 21
-46.8746
  0
LINE
  8
0
 10
-119.998
 20
-46.8746
 11
-119.986
 21
-46.3763
  0
LINE
  8
0
 10
-119.986
 20
-46.3763
 11
-119.924
 21
-45.8818
  0
LINE
  8
0
 10
-119.924
 20
-45.8818
 11
-119.813
 21
-45.3958
  0
LINE
  8
0
 10
-119.813
 20
-45.3958
 11
-119.654
 21
-44.9233
  0
LINE
  8
0
 10
-119.654
 20
-44.9233
 11
-119.449
 21
-44.4689
  0
LINE
  8
0
 10
-119.449
 20
-44.4689
 11
-119.2
 21
-44.0373
  0
LINE
  8
0
 10
-119.2
 20
-44.0373
 11
-118.909
 21
-43.6325
  0
LINE
  8
0
 10
-118.909
 20
-43.6325
 11
-118.579
 21
-43.2588
  0
LINE
  8
0
 10
-118.579
 20
-43.2588
 11
-118.214
 21
-42.9198
  0
LINE
  8
0
 10
-118.214
 20
-42.9198
 11
-117.817
 21
-42.6188
  0
LINE
  8
0
 10
-117.817
 20
-42.6188
 11
-117.391
 21
-42.3589
  0
LINE
  8
0
 10
-117.391
 20
-42.3589
 11
-116.942
 21
-42.1426
  0
LINE
  8
0
 10
-116.942
 20
-42.1426
 11
-116.474
 21
-41.9721
  0
LINE
  8
0
 10
-116.474
 20
-41.9721
 11
-115.991
 21
-41.8491
  0
LINE
  8
0
 10
-115.991
 20
-41.8491
 11
-115.498
 21
-41.7748
  0
LINE
  8
0
 10
-115.498
 20
-41.7748
 11
-115
 21
-41.75
  0
LINE
  8
0
 10
-115
 20
-41.75
 11
-114.502
 21
-41.7748
  0
LINE
  8
0
 10
-114.502
 20
-41.7748
 11
-114.009
 21
-41.8491
  0
LINE
  8
0
 10
-114.009
 20
-41.8491
 11
-113.526
 21
-41.9721
  0
LINE
  8
0
 10
-113.526
 20
-41.9721
 11
-113.058
 21
-42.1426
  0
LINE
  8
0
 10
-113.058
 20
-42.1426
 11
-112.609
 21
-42.3589
  0
LINE
  8
0
 10
-112.609
 20
-42.3589
 11
-112.183
 21
-42.6188
  0
LINE
  8
0
 10
-112.183
 20
-42.6188
 11
-111.786
 21
-42.9198
  0
LINE
  8
0
 10
-111.786
 20
-42.9198
 11
-111.421
 21
-43.2588
  0
LINE
  8
0
 10
-111.421
 20
-43.2588
 11
-111.091
 21
-43.6325
  0
LINE
  8
0
 10
-111.091
 20
-43.6325
 11
-110.8
 21
-44.0373
  0
LINE
  8
0
 10
-110.8
 20
-44.0373
 11
-110.551
 21
-44.4689
  0
LINE
  8
0
 10
-110.551
 20
-44.4689
 11
-110.346
 21
-44.9233
  0
LINE
  8
0
 10
-110.346
 20
-44.9233
 11
-110.187
 21
-45.3958
  0
LINE
  8
0
 10
-110.187
 20
-45.3958
 11
-110.076
 21
-45.8818
  0
LINE
  8
0
 10
-110.076
 20
-45.8818
 11
-110.014
 21
-46.3763
  0
LINE
  8
0
 10
-110.014
 20
-46.3763
 11
-110.002
 21
-46.8746
  0
LINE
  8
0
 10
-110.002
 20
-46.8746
 11
-110.039
 21
-47.3717
  0
LINE
  8
0
 10
-110.039
 20
-47.3717
 11
-110.125
 21
-47.8626
  0
LINE
  8
0
 10
-110.125
 20
-47.8626
 11
-110.26
 21
-48.3424
  0
LINE
  8
0
 10
-110.26
 20
-48.3424
 11
-110.442
 21
-48.8064
  0
LINE
  8
0
 10
-110.442
 20
-48.8064
 11
-110.67
 21
-49.25
  0
LINE
  8
0
 10
-110.67
 20
-49.25
 11
-110.94
 21
-49.6687
  0
LINE
  8
0
 10
-110.94
 20
-49.6687
 11
-111.251
 21
-50.0584
  0
LINE
  8
0
 10
-111.251
 20
-50.0584
 11
-111.438
 21
-50.25
  0
LINE
  8
0
 10
-111.438
 20
-50.25
 11
-10.4259
 21
-50.25
  0
LINE
  8
0
 10
-10.4259
 20
-50.25
 11
-10.4731
 21
-50.1137
  0
LINE
  8
0
 10
-10.4731
 20
-50.1137
 11
-10.6144
 21
-49.637
  0
LINE
  8
0
 10
-10.6144
 20
-49.637
 11
-10.734
 21
-49.1544
  0
LINE
  8
0
 10
-10.734
 20
-49.1544
 11
-10.8317
 21
-48.6669
  0
LINE
  8
0
 10
-10.8317
 20
-48.6669
 11
-10.9072
 21
-48.1755
  0
LINE
  8
0
 10
-10.9072
 20
-48.1755
 11
-10.9605
 21
-47.6812
  0
LINE
  8
0
 10
-10.9605
 20
-47.6812
 11
-10.9914
 21
-47.185
  0
LINE
  8
0
 10
-10.9914
 20
-47.185
 11
-10.9998
 21
-46.6878
  0
LINE
  8
0
 10
-10.9998
 20
-46.6878
 11
-10.9858
 21
-46.1909
  0
LINE
  8
0
 10
-10.9858
 20
-46.1909
 11
-10.9493
 21
-45.695
  0
LINE
  8
0
 10
-10.9493
 20
-45.695
 11
-10.8904
 21
-45.2013
  0
LINE
  8
0
 10
-10.8904
 20
-45.2013
 11
-10.8093
 21
-44.7108
  0
LINE
  8
0
 10
-10.8093
 20
-44.7108
 11
-10.7061
 21
-44.2244
  0
LINE
  8
0
 10
-10.7061
 20
-44.2244
 11
-10.5811
 21
-43.7432
  0
LINE
  8
0
 10
-10.5811
 20
-43.7432
 11
-10.4344
 21
-43.2682
  0
LINE
  8
0
 10
-10.4344
 20
-43.2682
 11
-10.2664
 21
-42.8002
  0
LINE
  8
0
 10
-10.2664
 20
-42.8002
 11
-10.0774
 21
-42.3403
  0
LINE
  8
0
 10
-10.0774
 20
-42.3403
 11
-9.86789
 21
-41.8895
  0
LINE
  8
0
 10
-9.86789
 20
-41.8895
 11
-9.63817
 21
-41.4485
  0
LINE
  8
0
 10
-9.63817
 20
-41.4485
 11
-9.38876
 21
-41.0184
  0
LINE
  8
0
 10
-9.38876
 20
-41.0184
 11
-9.12018
 21
-40.6
  0
LINE
  8
0
 10
-9.12018
 20
-40.6
 11
-8.83296
 21
-40.1942
  0
LINE
  8
0
 10
-8.83296
 20
-40.1942
 11
-8.52769
 21
-39.8017
  0
LINE
  8
0
 10
-8.52769
 20
-39.8017
 11
-8.20502
 21
-39.4235
  0
LINE
  8
0
 10
-8.20502
 20
-39.4235
 11
-7.86557
 21
-39.0602
  0
LINE
  8
0
 10
-7.86557
 20
-39.0602
 11
-7.51006
 21
-38.7126
  0
LINE
  8
0
 10
-7.51006
 20
-38.7126
 11
-7.13919
 21
-38.3815
  0
LINE
  8
0
 10
-7.13919
 20
-38.3815
 11
-6.75375
 21
-38.0674
  0
LINE
  8
0
 10
-6.75375
 20
-38.0674
 11
-6.35451
 21
-37.7711
  0
LINE
  8
0
 10
-6.35451
 20
-37.7711
 11
-5.94229
 21
-37.4931
  0
LINE
  8
0
 10
-5.94229
 20
-37.4931
 11
-5.51793
 21
-37.2341
  0
LINE
  8
0
 10
-5.51793
 20
-37.2341
 11
-5.08229
 21
-36.9945
  0
LINE
  8
0
 10
-5.08229
 20
-36.9945
 11
-4.63628
 21
-36.7748
  0
LINE
  8
0
 10
-4.63628
 20
-36.7748
 11
-4.18079
 21
-36.5755
  0
LINE
  8
0
 10
-4.18079
 20
-36.5755
 11
-3.71675
 21
-36.3969
  0
LINE
  8
0
 10
-3.71675
 20
-36.3969
 11
-3.24513
 21
-36.2396
  0
LINE
  8
0
 10
-3.24513
 20
-36.2396
 11
-2.76688
 21
-36.1037
  0
LINE
  8
0
 10
-2.76688
 20
-36.1037
 11
-2.28297
 21
-35.9895
  0
LINE
  8
0
 10
-2.28297
 20
-35.9895
 11
-1.7944
 21
-35.8973
  0
LINE
  8
0
 10
-1.7944
 20
-35.8973
 11
-1.30215
 21
-35.8273
  0
LINE
  8
0
 10
-1.30215
 20
-35.8273
 11
-0.807266
 21
-35.7797
  0
LINE
  8
0
 10
-0.807266
 20
-35.7797
 11
-0.310715
 21
-35.7544
  0
LINE
  8
0
 10
-0.310715
 20
-35.7544
 11
0.186447
 21
-35.7516
  0
LINE
  8
0
 10
0.186447
 20
-35.7516
 11
0.683243
 21
-35.7712
  0
LINE
  8
0
 10
0.683243
 20
-35.7712
 11
1.17865
 21
-35.8133
  0
LINE
  8
0
 10
1.17865
 20
-35.8133
 11
1.67165
 21
-35.8778
  0
LINE
  8
0
 10
1.67165
 20
-35.8778
 11
2.16122
 21
-35.9644
  0
LINE
  8
0
 10
2.16122
 20
-35.9644
 11
2.64639
 21
-36.0731
  0
LINE
  8
0
 10
2.64639
 20
-36.0731
 11
3.12614
 21
-36.2036
  0
LINE
  8
0
 10
3.12614
 20
-36.2036
 11
3.59952
 21
-36.3556
  0
LINE
  8
0
 10
3.59952
 20
-36.3556
 11
4.06554
 21
-36.5289
  0
LINE
  8
0
 10
4.06554
 20
-36.5289
 11
4.52325
 21
-36.723
  0
LINE
  8
0
 10
4.52325
 20
-36.723
 11
4.97173
 21
-36.9377
  0
LINE
  8
0
 10
4.97173
 20
-36.9377
 11
5.41003
 21
-37.1723
  0
LINE
  8
0
 10
5.41003
 20
-37.1723
 11
5.8373
 21
-37.4266
  0
LINE
  8
0
 10
5.8373
 20
-37.4266
 11
6.25264
 21
-37.6999
  0
LINE
  8
0
 10
6.25264
 20
-37.6999
 11
6.6552
 21
-37.9917
  0
LINE
  8
0
 10
6.6552
 20
-37.9917
 11
7.04417
 21
-38.3013
  0
LINE
  8
0
 10
7.04417
 20
-38.3013
 11
7.41875
 21
-38.6283
  0
LINE
  8
0
 10
7.41875
 20
-38.6283
 11
7.77817
 21
-38.9718
  0
LINE
  8
0
 10
7.77817
 20
-38.9718
 11
8.1217
 21
-39.3312
  0
LINE
  8
0
 10
8.1217
 20
-39.3312
 11
8.44864
 21
-39.7058
  0
LINE
  8
0
 10
8.44864
 20
-39.7058
 11
8.75832
 21
-40.0948
  0
LINE
  8
0
 10
8.75832
 20
-40.0948
 11
9.05009
 21
-40.4973
  0
LINE
  8
0
 10
9.05009
 20
-40.4973
 11
9.32339
 21
-40.9127
  0
LINE
  8
0
 10
9.32339
 20
-40.9127
 11
9.57764
 21
-41.34
  0
LINE
  8
0
 10
9.57764
 20
-41.34
 11
9.81233
 21
-41.7783
  0
LINE
  8
0
 10
9.81233
 20
-41.7783
 11
10.027
 21
-42.2267
  0
LINE
  8
0
 10
10.027
 20
-42.2267
 11
10.2211
 21
-42.6844
  0
LINE
  8
0
 10
10.2211
 20
-42.6844
 11
10.3944
 21
-43.1505
  0
LINE
  8
0
 10
10.3944
 20
-43.1505
 11
10.5464
 21
-43.6238
  0
LINE
  8
0
 10
10.5464
 20
-43.6238
 11
10.6769
 21
-44.1036
  0
LINE
  8
0
 10
10.6769
 20
-44.1036
 11
10.7856
 21
-44.5888
  0
LINE
  8
0
 10
10.7856
 20
-44.5888
 11
10.8722
 21
-45.0783
  0
LINE
  8
0
 10
10.8722
 20
-45.0783
 11
10.9367
 21
-45.5713
  0
LINE
  8
0
 10
10.9367
 20
-45.5713
 11
10.9787
 21
-46.0667
  0
LINE
  8
0
 10
10.9787
 20
-46.0667
 11
10.9984
 21
-46.5635
  0
LINE
  8
0
 10
10.9984
 20
-46.5635
 11
10.9956
 21
-47.0607
  0
LINE
  8
0
 10
10.9956
 20
-47.0607
 11
10.9703
 21
-47.5573
  0
LINE
  8
0
 10
10.9703
 20
-47.5573
 11
10.9226
 21
-48.0522
  0
LINE
  8
0
 10
10.9226
 20
-48.0522
 11
10.8526
 21
-48.5444
  0
LINE
  8
0
 10
10.8526
 20
-48.5444
 11
10.7605
 21
-49.033
  0
LINE
  8
0
 10
10.7605
 20
-49.033
 11
10.6463
 21
-49.5169
  0
LINE
  8
0
 10
10.6463
 20
-49.5169
 11
10.5104
 21
-49.9951
  0
LINE
  8
0
 10
10.5104
 20
-49.9951
 11
10.4254
 21
-50.25
  0
LINE
  8
0
 10
10.4254
 20
-50.25
 11
111.438
 21
-50.25
  0
LINE
  8
0
 10
111.438
 20
-50.25
 11
111.251
 21
-50.0584
  0
LINE
  8
0
 10
111.251
 20
-50.0584
 11
110.94
 21
-49.6687
  0
LINE
  8
0
 10
110.94
 20
-49.6687
 11
110.67
 21
-49.25
  0
LINE
  8
0
 10
110.67
 20
-49.25
 11
110.442
 21
-48.8064
  0
LINE
  8
0
 10
110.442
 20
-48.8064
 11
110.26
 21
-48.3424
  0
LINE
  8
0
 10
110.26
 20
-48.3424
 11
110.125
 21
-47.8626
  0
LINE
  8
0
 10
110.125
 20
-47.8626
 11
110.039
 21
-47.3717
  0
LINE
  8
0
 10
110.039
 20
-47.3717
 11
110.002
 21
-46.8746
  0
LINE
  8
0
 10
110.002
 20
-46.8746
 11
110.014
 21
-46.3763
  0
LINE
  8
0
 10
110.014
 20
-46.3763
 11
110.076
 21
-45.8818
  0
LINE
  8
0
 10
110.076
 20
-45.8818
 11
110.187
 21
-45.3958
  0
LINE
  8
0
 10
110.187
 20
-45.3958
 11
110.346
 21
-44.9233
  0
LINE
  8
0
 10
110.346
 20
-44.9233
 11
110.551
 21
-44.4689
  0
LINE
  8
0
 10
110.551
 20
-44.4689
 11
110.8
 21
-44.0373
  0
LINE
  8
0
 10
110.8
 20
-44.0373
 11
111.091
 21
-43.6325
  0
LINE
  8
0
 10
111.091
 20
-43.6325
 11
111.421
 21
-43.2588
  0
LINE
  8
0
 10
111.421
 20
-43.2588
 11
111.786
 21
-42.9198
  0
LINE
  8
0
 10
111.786
 20
-42.9198
 11
112.183
 21
-42.6188
  0
LINE
  8
0
 10
112.183
 20
-42.6188
 11
112.609
 21
-42.3589
  0
LINE
  8
0
 10
112.609
 20
-42.3589
 11
113.058
 21
-42.1426
  0
LINE
  8
0
 10
113.058
 20
-42.1426
 11
113.526
 21
-41.9721
  0
LINE
  8
0
 10
113.526
 20
-41.9721
 11
114.009
 21
-41.8491
  0
LINE
  8
0
 10
114.009
 20
-41.8491
 11
114.502
 21
-41.7748
  0
LINE
  8
0
 10
114.502
 20
-41.7748
 11
115
 21
-41.75
  0
LINE
  8
0
 10
115
 20
-41.75
 11
115.498
 21
-41.7748
  0
LINE
  8
0
 10
115.498
 20
-41.7748
 11
115.991
 21
-41.8491
  0
LINE
  8
0
 10
115.991
 20
-41.8491
 11
116.474
 21
-41.9721
  0
LINE
  8
0
 10
116.474
 20
-41.9721
 11
116.942
 21
-42.1426
  0
LINE
  8
0
 10
116.942
 20
-42.1426
 11
117.391
 21
-42.3589
  0
LINE
  8
0
 10
117.391
 20
-42.3589
 11
117.817
 21
-42.6188
  0
LINE
  8
0
 10
117.817
 20
-42.6188
 11
118.214
 21
-42.9198
  0
LINE
  8
0
 10
118.214
 20
-42.9198
 11
118.579
 21
-43.2588
  0
LINE
  8
0
 10
118.579
 20
-43.2588
 11
118.909
 21
-43.6325
  0
LINE
  8
0
 10
118.909
 20
-43.6325
 11
119.2
 21
-44.0373
  0
LINE
  8
0
 10
119.2
 20
-44.0373
 11
119.449
 21
-44.4689
  0
LINE
  8
0
 10
119.449
 20
-44.4689
 11
119.654
 21
-44.9233
  0
LINE
  8
0
 10
119.654
 20
-44.9233
 11
119.813
 21
-45.3958
  0
LINE
  8
0
 10
119.813
 20
-45.3958
 11
119.924
 21
-45.8818
  0
LINE
  8
0
 10
119.924
 20
-45.8818
 11
119.986
 21
-46.3763
  0
LINE
  8
0
 10
119.986
 20
-46.3763
 11
119.998
 21
-46.8746
  0
LINE
  8
0
 10
119.998
 20
-46.8746
 11
119.961
 21
-47.3717
  0
LINE
  8
0
 10
119.961
 20
-47.3717
 11
119.875
 21
-47.8626
  0
LINE
  8
0
 10
119.875
 20
-47.8626
 11
119.74
 21
-48.3424
  0
LINE
  8
0
 10
119.74
 20
-48.3424
 11
119.558
 21
-48.8064
  0
LINE
  8
0
 10
119.558
 20
-48.8064
 11
119.33
 21
-49.25
  0
LINE
  8
0
 10
119.33
 20
-49.25
 11
119.06
 21
-49.6687
  0
LINE
  8
0
 10
119.06
 20
-49.6687
 11
118.749
 21
-50.0584
  0
LINE
  8
0
 10
118.749
 20
-50.0584
 11
118.562
 21
-50.25
  0
LINE
  8
0
 10
118.562
 20
-50.25
 11
139.574
 21
-50.25
  0
LINE
  8
0
 10
139.574
 20
-50.25
 11
139.527
 21
-50.1137
  0
LINE
  8
0
 10
139.527
 20
-50.1137
 11
139.386
 21
-49.637
  0
LINE
  8
0
 10
139.386
 20
-49.637
 11
139.266
 21
-49.1544
  0
LINE
  8
0
 10
139.266
 20
-49.1544
 11
139.168
 21
-48.6669
  0
LINE
  8
0
 10
139.168
 20
-48.6669
 11
139.093
 21
-48.1755
  0
LINE
  8
0
 10
139.093
 20
-48.1755
 11
139.039
 21
-47.6812
  0
LINE
  8
0
 10
139.039
 20
-47.6812
 11
139.009
 21
-47.185
  0
LINE
  8
0
 10
139.009
 20
-47.185
 11
139
 21
-46.6878
  0
LINE
  8
0
 10
139
 20
-46.6878
 11
139.014
 21
-46.1909
  0
LINE
  8
0
 10
139.014
 20
-46.1909
 11
139.051
 21
-45.695
  0
LINE
  8
0
 10
139.051
 20
-45.695
 11
139.11
 21
-45.2013
  0
LINE
  8
0
 10
139.11
 20
-45.2013
 11
139.191
 21
-44.7108
  0
LINE
  8
0
 10
139.191
 20
-44.7108
 11
139.294
 21
-44.2244
  0
LINE
  8
0
 10
139.294
 20
-44.2244
 11
139.419
 21
-43.7432
  0
LINE
  8
0
 10
139.419
 20
-43.7432
 11
139.566
 21
-43.2682
  0
LINE
  8
0
 10
139.566
 20
-43.2682
 11
139.734
 21
-42.8002
  0
LINE
  8
0
 10
139.734
 20
-42.8002
 11
139.923
 21
-42.3403
  0
LINE
  8
0
 10
139.923
 20
-42.3403
 11
140.132
 21
-41.8895
  0
LINE
  8
0
 10
140.132
 20
-41.8895
 11
140.362
 21
-41.4485
  0
LINE
  8
0
 10
140.362
 20
-41.4485
 11
140.611
 21
-41.0184
  0
LINE
  8
0
 10
140.611
 20
-41.0184
 11
140.88
 21
-40.6
  0
LINE
  8
0
 10
140.88
 20
-40.6
 11
141.167
 21
-40.1942
  0
LINE
  8
0
 10
141.167
 20
-40.1942
 11
141.472
 21
-39.8017
  0
LINE
  8
0
 10
141.472
 20
-39.8017
 11
141.795
 21
-39.4235
  0
LINE
  8
0
 10
141.795
 20
-39.4235
 11
142.134
 21
-39.0602
  0
LINE
  8
0
 10
142.134
 20
-39.0602
 11
142.49
 21
-38.7126
  0
LINE
  8
0
 10
142.49
 20
-38.7126
 11
142.861
 21
-38.3815
  0
LINE
  8
0
 10
142.861
 20
-38.3815
 11
143.246
 21
-38.0674
  0
LINE
  8
0
 10
143.246
 20
-38.0674
 11
143.645
 21
-37.7711
  0
LINE
  8
0
 10
143.645
 20
-37.7711
 11
144.058
 21
-37.4931
  0
LINE
  8
0
 10
144.058
 20
-37.4931
 11
144.482
 21
-37.2341
  0
LINE
  8
0
 10
144.482
 20
-37.2341
 11
144.918
 21
-36.9945
  0
LINE
  8
0
 10
144.918
 20
-36.9945
 11
145.364
 21
-36.7748
  0
LINE
  8
0
 10
145.364
 20
-36.7748
 11
145.819
 21
-36.5755
  0
LINE
  8
0
 10
145.819
 20
-36.5755
 11
146.283
 21
-36.3969
  0
LINE
  8
0
 10
146.283
 20
-36.3969
 11
146.755
 21
-36.2396
  0
LINE
  8
0
 10
146.755
 20
-36.2396
 11
147.233
 21
-36.1037
  0
LINE
  8
0
 10
147.233
 20
-36.1037
 11
147.717
 21
-35.9895
  0
LINE
  8
0
 10
147.717
 20
-35.9895
 11
148.206
 21
-35.8973
  0
LINE
  8
0
 10
148.206
 20
-35.8973
 11
148.698
 21
-35.8273
  0
LINE
  8
0
 10
148.698
 20
-35.8273
 11
149.193
 21
-35.7797
  0
LINE
  8
0
 10
149.193
 20
-35.7797
 11
149.689
 21
-35.7544
  0
LINE
  8
0
 10
149.689
 20
-35.7544
 11
150.186
 21
-35.7516
  0
LINE
  8
0
 10
150.186
 20
-35.7516
 11
150.683
 21
-35.7712
  0
LINE
  8
0
 10
150.683
 20
-35.7712
 11
151.179
 21
-35.8133
  0
LINE
  8
0
 10
151.179
 20
-35.8133
 11
151.672
 21
-35.8778
  0
LINE
  8
0
 10
151.672
 20
-35.8778
 11
152.161
 21
-35.9644
  0
LINE
  8
0
 10
152.161
 20
-35.9644
 11
152.646
 21
-36.0731
  0
LINE
  8
0
 10
152.646
 20
-36.0731
 11
153.126
 21
-36.2036
  0
LINE
  8
0
 10
153.126
 20
-36.2036
 11
153.6
 21
-36.3556
  0
LINE
  8
0
 10
153.6
 20
-36.3556
 11
154.066
 21
-36.5289
  0
LINE
  8
0
 10
154.066
 20
-36.5289
 11
154.523
 21
-36.723
  0
LINE
  8
0
 10
154.523
 20
-36.723
 11
154.972
 21
-36.9377
  0
LINE
  8
0
 10
154.972
 20
-36.9377
 11
155.41
 21
-37.1723
  0
LINE
  8
0
 10
155.41
 20
-37.1723
 11
155.837
 21
-37.4266
  0
LINE
  8
0
 10
155.837
 20
-37.4266
 11
156.253
 21
-37.6999
  0
LINE
  8
0
 10
156.253
 20
-37.6999
 11
156.655
 21
-37.9917
  0
LINE
  8
0
 10
156.655
 20
-37.9917
 11
157.044
 21
-38.3013
  0
LINE
  8
0
 10
157.044
 20
-38.3013
 11
157.419
 21
-38.6283
  0
LINE
  8
0
 10
157.419
 20
-38.6283
 11
157.778
 21
-38.9718
  0
LINE
  8
0
 10
157.778
 20
-38.9718
 11
158.122
 21
-39.3312
  0
LINE
  8
0
 10
158.122
 20
-39.3312
 11
158.449
 21
-39.7058
  0
LINE
  8
0
 10
158.449
 20
-39.7058
 11
158.758
 21
-40.0948
  0
LINE
  8
0
 10
158.758
 20
-40.0948
 11
159.05
 21
-40.4973
  0
LINE
  8
0
 10
159.05
 20
-40.4973
 11
159.323
 21
-40.9127
  0
LINE
  8
0
 10
159.323
 20
-40.9127
 11
159.578
 21
-41.34
  0
LINE
  8
0
 10
159.578
 20
-41.34
 11
159.812
 21
-41.7783
  0
LINE
  8
0
 10
159.812
 20
-41.7783
 11
160.027
 21
-42.2267
  0
LINE
  8
0
 10
160.027
 20
-42.2267
 11
160.221
 21
-42.6844
  0
LINE
  8
0
 10
160.221
 20
-42.6844
 11
160.394
 21
-43.1505
  0
LINE
  8
0
 10
160.394
 20
-43.1505
 11
160.546
 21
-43.6238
  0
LINE
  8
0
 10
160.546
 20
-43.6238
 11
160.677
 21
-44.1036
  0
LINE
  8
0
 10
160.677
 20
-44.1036
 11
160.786
 21
-44.5888
  0
LINE
  8
0
 10
160.786
 20
-44.5888
 11
160.872
 21
-45.0783
  0
LINE
  8
0
 10
160.872
 20
-45.0783
 11
160.937
 21
-45.5713
  0
LINE
  8
0
 10
160.937
 20
-45.5713
 11
160.979
 21
-46.0667
  0
LINE
  8
0
 10
160.979
 20
-46.0667
 11
160.998
 21
-46.5635
  0
LINE
  8
0
 10
160.998
 20
-46.5635
 11
160.996
 21
-47.0607
  0
LINE
  8
0
 10
160.996
 20
-47.0607
 11
160.97
 21
-47.5573
  0
LINE
  8
0
 10
160.97
 20
-47.5573
 11
160.923
 21
-48.0522
  0
LINE
  8
0
 10
160.923
 20
-48.0522
 11
160.853
 21
-48.5444
  0
LINE
  8
0
 10
160.853
 20
-48.5444
 11
160.76
 21
-49.033
  0
LINE
  8
0
 10
160.76
 20
-49.033
 11
160.646
 21
-49.5169
  0
LINE
  8
0
 10
160.646
 20
-49.5169
 11
160.51
 21
-49.9951
  0
LINE
  8
0
 10
160.51
 20
-49.9951
 11
160.425
 21
-50.25
  0
LINE
  8
0
 10
160.425
 20
-50.25
 11
239.75
 21
-50.25
  0
LINE
  8
0
 10
239.75
 20
-50.25
 11
239.75
 21
9.75
  0
LINE
  8
0
 10
239.75
 20
9.75
 11
220.426
 21
9.75
  0
LINE
  8
0
 10
220.426
 20
9.75
 11
220.387
 21
10.1183
  0
LINE
  8
0
 10
220.387
 20
10.1183
 11
220.319
 21
10.6131
  0
LINE
  8
0
 10
220.319
 20
10.6131
 11
220.235
 21
11.1053
  0
LINE
  8
0
 10
220.235
 20
11.1053
 11
220.135
 21
11.5947
  0
LINE
  8
0
 10
220.135
 20
11.5947
 11
220.019
 21
12.0805
  0
LINE
  8
0
 10
220.019
 20
12.0805
 11
219.888
 21
12.5624
  0
LINE
  8
0
 10
219.888
 20
12.5624
 11
219.741
 21
13.0397
  0
LINE
  8
0
 10
219.741
 20
13.0397
 11
219.579
 21
13.5122
  0
LINE
  8
0
 10
219.579
 20
13.5122
 11
219.402
 21
13.9791
  0
LINE
  8
0
 10
219.402
 20
13.9791
 11
219.21
 21
14.4401
  0
LINE
  8
0
 10
219.21
 20
14.4401
 11
219.003
 21
14.8947
  0
LINE
  8
0
 10
219.003
 20
14.8947
 11
218.782
 21
15.3424
  0
LINE
  8
0
 10
218.782
 20
15.3424
 11
218.547
 21
15.7827
  0
LINE
  8
0
 10
218.547
 20
15.7827
 11
209.938
 21
30.6961
  0
LINE
  8
0
 10
209.938
 20
30.6961
 11
209.666
 21
31.1097
  0
LINE
  8
0
 10
209.666
 20
31.1097
 11
209.36
 21
31.4984
  0
LINE
  8
0
 10
209.36
 20
31.4984
 11
209.022
 21
31.8594
  0
LINE
  8
0
 10
209.022
 20
31.8594
 11
208.654
 21
32.1899
  0
LINE
  8
0
 10
208.654
 20
32.1899
 11
208.259
 21
32.4875
  0
LINE
  8
0
 10
208.259
 20
32.4875
 11
207.839
 21
32.7501
  0
LINE
  8
0
 10
207.839
 20
32.7501
 11
207.399
 21
32.9757
  0
LINE
  8
0
 10
207.399
 20
32.9757
 11
206.941
 21
33.1626
  0
LINE
  8
0
 10
206.941
 20
33.1626
 11
206.468
 21
33.3094
  0
LINE
  8
0
 10
206.468
 20
33.3094
 11
205.985
 21
33.415
  0
LINE
  8
0
 10
205.985
 20
33.415
 11
205.494
 21
33.4787
  0
LINE
  8
0
 10
205.494
 20
33.4787
 11
205
 21
33.5
  0
LINE
  8
0
 10
205
 20
33.5
 11
204.506
 21
33.4787
  0
LINE
  8
0
 10
204.506
 20
33.4787
 11
204.015
 21
33.415
  0
LINE
  8
0
 10
204.015
 20
33.415
 11
203.532
 21
33.3094
  0
LINE
  8
0
 10
203.532
 20
33.3094
 11
203.059
 21
33.1626
  0
LINE
  8
0
 10
203.059
 20
33.1626
 11
202.601
 21
32.9757
  0
LINE
  8
0
 10
202.601
 20
32.9757
 11
202.161
 21
32.7501
  0
LINE
  8
0
 10
202.161
 20
32.7501
 11
201.741
 21
32.4875
  0
LINE
  8
0
 10
201.741
 20
32.4875
 11
201.346
 21
32.1899
  0
LINE
  8
0
 10
201.346
 20
32.1899
 11
200.978
 21
31.8594
  0
LINE
  8
0
 10
200.978
 20
31.8594
 11
187.978
 21
19.3594
  0
LINE
  8
0
 10
187.978
 20
19.3594
 11
187.64
 21
18.9984
  0
LINE
  8
0
 10
187.64
 20
18.9984
 11
187.334
 21
18.6097
  0
LINE
  8
0
 10
187.334
 20
18.6097
 11
187.062
 21
18.1961
  0
LINE
  8
0
 10
187.062
 20
18.1961
 11
182.187
 21
9.75
  0
LINE
  8
0
 10
182.187
 20
9.75
 11
-182.187
 21
9.75
  0
LINE
  8
0
 10
-182.187
 20
9.75
 11
-187.062
 21
18.1961
  0
LINE
  8
0
 10
-187.062
 20
18.1961
 11
-187.334
 21
18.6097
  0
LINE
  8
0
 10
-187.334
 20
18.6097
 11
-187.64
 21
18.9984
  0
LINE
  8
0
 10
-187.64
 20
18.9984
 11
-187.978
 21
19.3594
  0
LINE
  8
0
 10
-187.978
 20
19.3594
 11
-200.978
 21
31.8594
  0
LINE
  8
0
 10
-200.978
 20
31.8594
 11
-201.346
 21
32.1899
  0
LINE
  8
0
 10
-201.346
 20
32.1899
 11
-201.741
 21
32.4875
  0
LINE
  8
0
 10
-201.741
 20
32.4875
 11
-202.161
 21
32.7501
  0
LINE
  8
0
 10
-202.161
 20
32.7501
 11
-202.601
 21
32.9757
  0
LINE
  8
0
 10
-202.601
 20
32.9757
 11
-203.059
 21
33.1626
  0
LINE
  8
0
 10
-203.059
 20
33.1626
 11
-203.532
 21
33.3094
  0
LINE
  8
0
 10
-203.532
 20
33.3094
 11
-204.015
 21
33.415
  0
LINE
  8
0
 10
-204.015
 20
33.415
 11
-204.506
 21
33.4787
  0
LINE
  8
0
 10
-204.506
 20
33.4787
 11
-205
 21
33.5
  0
LINE
  8
0
 10
-205
 20
33.5
 11
-205.494
 21
33.4787
  0
LINE
  8
0
 10
-205.494
 20
33.4787
 11
-205.985
 21
33.415
  0
LINE
  8
0
 10
-205.985
 20
33.415
 11
-206.468
 21
33.3094
  0
LINE
  8
0
 10
-206.468
 20
33.3094
 11
-206.941
 21
33.1626
  0
LINE
  8
0
 10
-206.941
 20
33.1626
 11
-207.399
 21
32.9757
  0
LINE
  8
0
 10
-207.399
 20
32.9757
 11
-207.839
 21
32.7501
  0
LINE
  8
0
 10
-207.839
 20
32.7501
 11
-208.259
 21
32.4875
  0
LINE
  8
0
 10
-208.259
 20
32.4875
 11
-208.654
 21
32.1899
  0
LINE
  8
0
 10
-208.654
 20
32.1899
 11
-209.022
 21
31.8594
  0
LINE
  8
0
 10
-209.022
 20
31.8594
 11
-209.36
 21
31.4984
  0
LINE
  8
0
 10
-209.36
 20
31.4984
 11
-209.666
 21
31.1097
  0
LINE
  8
0
 10
-209.666
 20
31.1097
 11
-209.938
 21
30.6961
  0
LINE
  8
0
 10
-209.938
 20
30.6961
 11
-218.547
 21
15.7827
  0
LINE
  8
0
 10
-218.547
 20
15.7827
 11
-218.782
 21
15.3424
  0
LINE
  8
0
 10
-218.782
 20
15.3424
 11
-219.003
 21
14.8947
  0
LINE
  8
0
 10
-219.003
 20
14.8947
 11
-219.21
 21
14.4401
  0
LINE
  8
0
 10
-219.21
 20
14.4401
 11
-219.402
 21
13.9791
  0
LINE
  8
0
 10
-219.402
 20
13.9791
 11
-219.579
 21
13.5122
  0
LINE
  8
0
 10
-219.579
 20
13.5122
 11
-219.741
 21
13.0397
  0
LINE
  8
0
 10
-219.741
 20
13.0397
 11
-219.888
 21
12.5624
  0
LINE
  8
0
 10
-219.888
 20
12.5624
 11
-220.019
 21
12.0805
  0
LINE
  8
0
 10
-220.019
 20
12.0805
 11
-220.135
 21
11.5947
  0
LINE
  8
0
 10
-220.135
 20
11.5947
 11
-220.235
 21
11.1053
  0
LINE
  8
0
 10
-220.235
 20
11.1053
 11
-220.319
 21
10.6131
  0
LINE
  8
0
 10
-220.319
 20
10.6131
 11
-220.387
 21
10.1183
  0
LINE
  8
0
 10
-220.387
 20
10.1183
 11
-220.426
 21
9.75
  0
LINE
  8
0
 10
-220.426
 20
9.75
 11
-239.75
 21
9.75
  0
LINE
  8
0
 10
-239.75
 20
9.75
 11
-239.75
 21
-50.25
  0
LINE
  8
0
 10
-239.75
 20
-50.25
 11
-160.426
 21
-50.25
  0
LINE
  8
0
 10
-160.426
 20
-50.25
 11
-160.473
 21
-50.1137
  0
LINE
  8
0
 10
204.512
 20
25.298
 11
204.043
 21
25.4403
  0
LINE
  8
0
 10
204.043
 20
25.4403
 11
203.611
 21
25.6713
  0
LINE
  8
0
 10
203.611
 20
25.6713
 11
203.232
 21
25.9822
  0
LINE
  8
0
 10
203.232
 20
25.9822
 11
202.921
 21
26.3611
  0
LINE
  8
0
 10
202.921
 20
26.3611
 11
202.69
 21
26.7933
  0
LINE
  8
0
 10
202.69
 20
26.7933
 11
202.548
 21
27.2623
  0
LINE
  8
0
 10
202.548
 20
27.2623
 11
202.5
 21
27.75
  0
LINE
  8
0
 10
202.5
 20
27.75
 11
202.548
 21
28.2377
  0
LINE
  8
0
 10
202.548
 20
28.2377
 11
202.69
 21
28.7067
  0
LINE
  8
0
 10
202.69
 20
28.7067
 11
202.921
 21
29.1389
  0
LINE
  8
0
 10
202.921
 20
29.1389
 11
203.232
 21
29.5178
  0
LINE
  8
0
 10
203.232
 20
29.5178
 11
203.611
 21
29.8287
  0
LINE
  8
0
 10
203.611
 20
29.8287
 11
204.043
 21
30.0597
  0
LINE
  8
0
 10
204.043
 20
30.0597
 11
204.512
 21
30.202
  0
LINE
  8
0
 10
204.512
 20
30.202
 11
205
 21
30.25
  0
LINE
  8
0
 10
205
 20
30.25
 11
205.488
 21
30.202
  0
LINE
  8
0
 10
205.488
 20
30.202
 11
205.957
 21
30.0597
  0
LINE
  8
0
 10
205.957
 20
30.0597
 11
206.389
 21
29.8287
  0
LINE
  8
0
 10
206.389
 20
29.8287
 11
206.768
 21
29.5178
  0
LINE
  8
0
 10
206.768
 20
29.5178
 11
207.079
 21
29.1389
  0
LINE
  8
0
 10
207.079
 20
29.1389
 11
207.31
 21
28.7067
  0
LINE
  8
0
 10
207.31
 20
28.7067
 11
207.452
 21
28.2377
  0
LINE
  8
0
 10
207.452
 20
28.2377
 11
207.5
 21
27.75
  0
LINE
  8
0
 10
207.5
 20
27.75
 11
207.452
 21
27.2623
  0
LINE
  8
0
 10
207.452
 20
27.2623
 11
207.31
 21
26.7933
  0
LINE
  8
0
 10
207.31
 20
26.7933
 11
207.079
 21
26.3611
  0
LINE
  8
0
 10
207.079
 20
26.3611
 11
206.768
 21
25.9822
  0
LINE
  8
0
 10
206.768
 20
25.9822
 11
206.389
 21
25.6713
  0
LINE
  8
0
 10
206.389
 20
25.6713
 11
205.957
 21
25.4403
  0
LINE
  8
0
 10
205.957
 20
25.4403
 11
205.488
 21
25.298
  0
LINE
  8
0
 10
205.488
 20
25.298
 11
205
 21
25.25
  0
LINE
  8
0
 10
205
 20
25.25
 11
204.512
 21
25.298
  0
LINE
  8
0
 10
-205.488
 20
25.298
 11
-205.957
 21
25.4403
  0
LINE
  8
0
 10
-205.957
 20
25.4403
 11
-206.389
 21
25.6713
  0
LINE
  8
0
 10
-206.389
 20
25.6713
 11
-206.768
 21
25.9822
  0
LINE
  8
0
 10
-206.768
 20
25.9822
 11
-207.079
 21
26.3611
  0
LINE
  8
0
 10
-207.079
 20
26.3611
 11
-207.31
 21
26.7933
  0
LINE
  8
0
 10
-207.31
 20
26.7933
 11
-207.452
 21
27.2623
  0
LINE
  8
0
 10
-207.452
 20
27.2623
 11
-207.5
 21
27.75
  0
LINE
  8
0
 10
-207.5
 20
27.75
 11
-207.452
 21
28.2377
  0
LINE
  8
0
 10
-207.452
 20
28.2377
 11
-207.31
 21
28.7067
  0
LINE
  8
0
 10
-207.31
 20
28.7067
 11
-207.079
 21
29.1389
  0
LINE
  8
0
 10
-207.079
 20
29.1389
 11
-206.768
 21
29.5178
  0
LINE
  8
0
 10
-206.768
 20
29.5178
 11
-206.389
 21
29.8287
  0
LINE
  8
0
 10
-206.389
 20
29.8287
 11
-205.957
 21
30.0597
  0
LINE
  8
0
 10
-205.957
 20
30.0597
 11
-205.488
 21
30.202
  0
LINE
  8
0
 10
-205.488
 20
30.202
 11
-205
 21
30.25
  0
LINE
  8
0
 10
-205
 20
30.25
 11
-204.512
 21
30.202
  0
LINE
  8
0
 10
-204.512
 20
30.202
 11
-204.043
 21
30.0597
  0
LINE
  8
0
 10
-204.043
 20
30.0597
 11
-203.611
 21
29.8287
  0
LINE
  8
0
 10
-203.611
 20
29.8287
 11
-203.232
 21
29.5178
  0
LINE
  8
0
 10
-203.232
 20
29.5178
 11
-202.921
 21
29.1389
  0
LINE
  8
0
 10
-202.921
 20
29.1389
 11
-202.69
 21
28.7067
  0
LINE
  8
0
 10
-202.69
 20
28.7067
 11
-202.548
 21
28.2377
  0
LINE
  8
0
 10
-202.548
 20
28.2377
 11
-202.5
 21
27.75
  0
LINE
  8
0
 10
-202.5
 20
27.75
 11
-202.548
 21
27.2623
  0
LINE
  8
0
 10
-202.548
 20
27.2623
 11
-202.69
 21
26.7933
  0
LINE
  8
0
 10
-202.69
 20
26.7933
 11
-202.921
 21
26.3611
  0
LINE
  8
0
 10
-202.921
 20
26.3611
 11
-203.232
 21
25.9822
  0
LINE
  8
0
 10
-203.232
 20
25.9822
 11
-203.611
 21
25.6713
  0
LINE
  8
0
 10
-203.611
 20
25.6713
 11
-204.043
 21
25.4403
  0
LINE
  8
0
 10
-204.043
 20
25.4403
 11
-204.512
 21
25.298
  0
LINE
  8
0
 10
-204.512
 20
25.298
 11
-205
 21
25.25
  0
LINE
  8
0
 10
-205
 20
25.25
 11
-205.488
 21
25.298
  0
LINE
  8
0
 10
191.512
 20
12.798
 11
191.043
 21
12.9403
  0
LINE
  8
0
 10
191.043
 20
12.9403
 11
190.611
 21
13.1713
  0
LINE
  8
0
 10
190.611
 20
13.1713
 11
190.232
 21
13.4822
  0
LINE
  8
0
 10
190.232
 20
13.4822
 11
189.921
 21
13.8611
  0
LINE
  8
0
 10
189.921
 20
13.8611
 11
189.69
 21
14.2933
  0
LINE
  8
0
 10
189.69
 20
14.2933
 11
189.548
 21
14.7623
  0
LINE
  8
0
 10
189.548
 20
14.7623
 11
189.5
 21
15.25
  0
LINE
  8
0
 10
189.5
 20
15.25
 11
189.548
 21
15.7377
  0
LINE
  8
0
 10
189.548
 20
15.7377
 11
189.69
 21
16.2067
  0
LINE
  8
0
 10
189.69
 20
16.2067
 11
189.921
 21
16.6389
  0
LINE
  8
0
 10
189.921
 20
16.6389
 11
190.232
 21
17.0178
  0
LINE
  8
0
 10
190.232
 20
17.0178
 11
190.611
 21
17.3287
  0
LINE
  8
0
 10
190.611
 20
17.3287
 11
191.043
 21
17.5597
  0
LINE
  8
0
 10
191.043
 20
17.5597
 11
191.512
 21
17.702
  0
LINE
  8
0
 10
191.512
 20
17.702
 11
192
 21
17.75
  0
LINE
  8
0
 10
192
 20
17.75
 11
192.488
 21
17.702
  0
LINE
  8
0
 10
192.488
 20
17.702
 11
192.957
 21
17.5597
  0
LINE
  8
0
 10
192.957
 20
17.5597
 11
193.389
 21
17.3287
  0
LINE
  8
0
 10
193.389
 20
17.3287
 11
193.768
 21
17.0178
  0
LINE
  8
0
 10
193.768
 20
17.0178
 11
194.079
 21
16.6389
  0
LINE
  8
0
 10
194.079
 20
16.6389
 11
194.31
 21
16.2067
  0
LINE
  8
0
 10
194.31
 20
16.2067
 11
194.452
 21
15.7377
  0
LINE
  8
0
 10
194.452
 20
15.7377
 11
194.5
 21
15.25
  0
LINE
  8
0
 10
194.5
 20
15.25
 11
194.452
 21
14.7623
  0
LINE
  8
0
 10
194.452
 20
14.7623
 11
194.31
 21
14.2933
  0
LINE
  8
0
 10
194.31
 20
14.2933
 11
194.079
 21
13.8611
  0
LINE
  8
0
 10
194.079
 20
13.8611
 11
193.768
 21
13.4822
  0
LINE
  8
0
 10
193.768
 20
13.4822
 11
193.389
 21
13.1713
  0
LINE
  8
0
 10
193.389
 20
13.1713
 11
192.957
 21
12.9403
  0
LINE
  8
0
 10
192.957
 20
12.9403
 11
192.488
 21
12.798
  0
LINE
  8
0
 10
192.488
 20
12.798
 11
192
 21
12.75
  0
LINE
  8
0
 10
192
 20
12.75
 11
191.512
 21
12.798
  0
LINE
  8
0
 10
-192.488
 20
12.798
 11
-192.957
 21
12.9403
  0
LINE
  8
0
 10
-192.957
 20
12.9403
 11
-193.389
 21
13.1713
  0
LINE
  8
0
 10
-193.389
 20
13.1713
 11
-193.768
 21
13.4822
  0
LINE
  8
0
 10
-193.768
 20
13.4822
 11
-194.079
 21
13.8611
  0
LINE
  8
0
 10
-194.079
 20
13.8611
 11
-194.31
 21
14.2933
  0
LINE
  8
0
 10
-194.31
 20
14.2933
 11
-194.452
 21
14.7623
  0
LINE
  8
0
 10
-194.452
 20
14.7623
 11
-194.5
 21
15.25
  0
LINE
  8
0
 10
-194.5
 20
15.25
 11
-194.452
 21
15.7377
  0
LINE
  8
0
 10
-194.452
 20
15.7377
 11
-194.31
 21
16.2067
  0
LINE
  8
0
 10
-194.31
 20
16.2067
 11
-194.079
 21
16.6389
  0
LINE
  8
0
 10
-194.079
 20
16.6389
 11
-193.768
 21
17.0178
  0
LINE
  8
0
 10
-193.768
 20
17.0178
 11
-193.389
 21
17.3287
  0
LINE
  8
0
 10
-193.389
 20
17.3287
 11
-192.957
 21
17.5597
  0
LINE
  8
0
 10
-192.957
 20
17.5597
 11
-192.488
 21
17.702
  0
LINE
  8
0
 10
-192.488
 20
17.702
 11
-192
 21
17.75
  0
LINE
  8
0
 10
-192
 20
17.75
 11
-191.512
 21
17.702
  0
LINE
  8
0
 10
-191.512
 20
17.702
 11
-191.043
 21
17.5597
  0
LINE
  8
0
 10
-191.043
 20
17.5597
 11
-190.611
 21
17.3287
  0
LINE
  8
0
 10
-190.611
 20
17.3287
 11
-190.232
 21
17.0178
  0
LINE
  8
0
 10
-190.232
 20
17.0178
 11
-189.921
 21
16.6389
  0
LINE
  8
0
 10
-189.921
 20
16.6389
 11
-189.69
 21
16.2067
  0
LINE
  8
0
 10
-189.69
 20
16.2067
 11
-189.548
 21
15.7377
  0
LINE
  8
0
 10
-189.548
 20
15.7377
 11
-189.5
 21
15.25
  0
LINE
  8
0
 10
-189.5
 20
15.25
 11
-189.548
 21
14.7623
  0
LINE
  8
0
 10
-189.548
 20
14.7623
 11
-189.69
 21
14.2933
  0
LINE
  8
0
 10
-189.69
 20
14.2933
 11
-189.921
 21
13.8611
  0
LINE
  8
0
 10
-189.921
 20
13.8611
 11
-190.232
 21
13.4822
  0
LINE
  8
0
 10
-190.232
 20
13.4822
 11
-190.611
 21
13.1713
  0
LINE
  8
0
 10
-190.611
 20
13.1713
 11
-191.043
 21
12.9403
  0
LINE
  8
0
 10
-191.043
 20
12.9403
 11
-191.512
 21
12.798
  0
LINE
  8
0
 10
-191.512
 20
12.798
 11
-192
 21
12.75
  0
LINE
  8
0
 10
-192
 20
12.75
 11
-192.488
 21
12.798
  0
LINE
  8
0
 10
107.55
 20
-3.2
 11
107.55
 21
3.2
  0
LINE
  8
0
 10
107.55
 20
3.2
 11
122.45
 21
3.2
  0
LINE
  8
0
 10
122.45
 20
3.2
 11
122.45
 21
-3.2
  0
LINE
  8
0
 10
122.45
 20
-3.2
 11
107.55
 21
-3.2
  0
LINE
  8
0
 10
137.55
 20
-3.2
 11
137.55
 21
3.2
  0
LINE
  8
0
 10
137.55
 20
3.2
 11
152.45
 21
3.2
  0
LINE
  8
0
 10
152.45
 20
3.2
 11
152.45
 21
-3.2
  0
LINE
  8
0
 10
152.45
 20
-3.2
 11
137.55
 21
-3.2
  0
LINE
  8
0
 10
-152.45
 20
-3.2
 11
-152.45
 21
3.2
  0
LINE
  8
0
 10
-152.45
 20
3.2
 11
-137.55
 21
3.2
  0
LINE
  8
0
 10
-137.55
 20
3.2
 11
-137.55
 21
-3.2
  0
LINE
  8
0
 10
-137.55
 20
-3.2
 11
-152.45
 21
-3.2
  0
LINE
  8
0
 10
-122.45
 20
-3.2
 11
-122.45
 21
3.2
  0
LINE
  8
0
 10
-122.45
 20
3.2
 11
-107.55
 21
3.2
  0
LINE
  8
0
 10
-107.55
 20
3.2
 11
-107.55
 21
-3.2
  0
LINE
  8
0
 10
-107.55
 20
-3.2
 11
-122.45
 21
-3.2
  0
LINE
  8
0
 10
-130
 20
-2.49998
 11
-130.488
 21
-2.45195
  0
LINE
  8
0
 10
-130.488
 20
-2.45195
 11
-130.957
 21
-2.30969
  0
LINE
  8
0
 10
-130.957
 20
-2.30969
 11
-131.389
 21
-2.07866
  0
LINE
  8
0
 10
-131.389
 20
-2.07866
 11
-131.768
 21
-1.76776
  0
LINE
  8
0
 10
-131.768
 20
-1.76776
 11
-132.079
 21
-1.38892
  0
LINE
  8
0
 10
-132.079
 20
-1.38892
 11
-132.31
 21
-0.956696
  0
LINE
  8
0
 10
-132.31
 20
-0.956696
 11
-132.452
 21
-0.487717
  0
LINE
  8
0
 10
-132.452
 20
-0.487717
 11
-132.5
 21
0
  0
LINE
  8
0
 10
-132.5
 20
0
 11
-132.452
 21
0.487717
  0
LINE
  8
0
 10
-132.452
 20
0.487717
 11
-132.31
 21
0.956696
  0
LINE
  8
0
 10
-132.31
 20
0.956696
 11
-132.079
 21
1.38892
  0
LINE
  8
0
 10
-132.079
 20
1.38892
 11
-131.768
 21
1.76776
  0
LINE
  8
0
 10
-131.768
 20
1.76776
 11
-131.389
 21
2.07866
  0
LINE
  8
0
 10
-131.389
 20
2.07866
 11
-130.957
 21
2.30969
  0
LINE
  8
0
 10
-130.957
 20
2.30969
 11
-130.488
 21
2.45195
  0
LINE
  8
0
 10
-130.488
 20
2.45195
 11
-130
 21
2.49998
  0
LINE
  8
0
 10
-130
 20
2.49998
 11
-129.512
 21
2.45195
  0
LINE
  8
0
 10
-129.512
 20
2.45195
 11
-129.043
 21
2.30969
  0
LINE
  8
0
 10
-129.043
 20
2.30969
 11
-128.611
 21
2.07866
  0
LINE
  8
0
 10
-128.611
 20
2.07866
 11
-128.232
 21
1.76776
  0
LINE
  8
0
 10
-128.232
 20
1.76776
 11
-127.921
 21
1.38892
  0
LINE
  8
0
 10
-127.921
 20
1.38892
 11
-127.69
 21
0.956696
  0
LINE
  8
0
 10
-127.69
 20
0.956696
 11
-127.548
 21
0.487717
  0
LINE
  8
0
 10
-127.548
 20
0.487717
 11
-127.5
 21
0
  0
LINE
  8
0
 10
-127.5
 20
0
 11
-127.548
 21
-0.487717
  0
LINE
  8
0
 10
-127.548
 20
-0.487717
 11
-127.69
 21
-0.956696
  0
LINE
  8
0
 10
-127.69
 20
-0.956696
 11
-127.921
 21
-1.38892
  0
LINE
  8
0
 10
-127.921
 20
-1.38892
 11
-128.232
 21
-1.76776
  0
LINE
  8
0
 10
-128.232
 20
-1.76776
 11
-128.611
 21
-2.07866
  0
LINE
  8
0
 10
-128.611
 20
-2.07866
 11
-129.043
 21
-2.30969
  0
LINE
  8
0
 10
-129.043
 20
-2.30969
 11
-129.512
 21
-2.45195
  0
LINE
  8
0
 10
-129.512
 20
-2.45195
 11
-130
 21
-2.49998
  0
LINE
  8
0
 10
130
 20
-2.49998
 11
129.512
 21
-2.45195
  0
LINE
  8
0
 10
129.512
 20
-2.45195
 11
129.043
 21
-2.30969
  0
LINE
  8
0
 10
129.043
 20
-2.30969
 11
128.611
 21
-2.07866
  0
LINE
  8
0
 10
128.611
 20
-2.07866
 11
128.232
 21
-1.76776
  0
LINE
  8
0
 10
128.232
 20
-1.76776
 11
127.921
 21
-1.38892
  0
LINE
  8
0
 10
127.921
 20
-1.38892
 11
127.69
 21
-0.956696
  0
LINE
  8
0
 10
127.69
 20
-0.956696
 11
127.548
 21
-0.487717
  0
LINE
  8
0
 10
127.548
 20
-0.487717
 11
127.5
 21
0
  0
LINE
  8
0
 10
127.5
 20
0
 11
127.548
 21
0.487717
  0
LINE
  8
0
 10
127.548
 20
0.487717
 11
127.69
 21
0.956696
  0
LINE
  8
0
 10
127.69
 20
0.956696
 11
127.921
 21
1.38892
  0
LINE
  8
0
 10
127.921
 20
1.38892
 11
128.232
 21
1.76776
  0
LINE
  8
0
 10
128.232
 20
1.76776
 11
128.611
 21
2.07866
  0
LINE
  8
0
 10
128.611
 20
2.07866
 11
129.043
 21
2.30969
  0
LINE
  8
0
 10
129.043
 20
2.30969
 11
129.512
 21
2.45195
  0
LINE
  8
0
 10
129.512
 20
2.45195
 11
130
 21
2.49998
  0
LINE
  8
0
 10
130
 20
2.49998
 11
130.488
 21
2.45195
  0
LINE
  8
0
 10
130.488
 20
2.45195
 11
130.957
 21
2.30969
  0
LINE
  8
0
 10
130.957
 20
2.30969
 11
131.389
 21
2.07866
  0
LINE
  8
0
 10
131.389
 20
2.07866
 11
131.768
 21
1.76776
  0
LINE
  8
0
 10
131.768
 20
1.76776
 11
132.079
 21
1.38892
  0
LINE
  8
0
 10
132.079
 20
1.38892
 11
132.31
 21
0.956696
  0
LINE
  8
0
 10
132.31
 20
0.956696
 11
132.452
 21
0.487717
  0
LINE
  8
0
 10
132.452
 20
0.487717
 11
132.5
 21
0
  0
LINE
  8
0
 10
132.5
 20
0
 11
132.452
 21
-0.487717
  0
LINE
  8
0
 10
132.452
 20
-0.487717
 11
132.31
 21
-0.956696
  0
LINE
  8
0
 10
132.31
 20
-0.956696
 11
132.079
 21
-1.38892
  0
LINE
  8
0
 10
132.079
 20
-1.38892
 11
131.768
 21
-1.76776
  0
LINE
  8
0
 10
131.768
 20
-1.76776
 11
131.389
 21
-2.07866
  0
LINE
  8
0
 10
131.389
 20
-2.07866
 11
130.957
 21
-2.30969
  0
LINE
  8
0
 10
130.957
 20
-2.30969
 11
130.488
 21
-2.45195
  0
LINE
  8
0
 10
130.488
 20
-2.45195
 11
130
 21
-2.49998
  0
LINE
  8
0
 10
-236.45
 20
-12.7
 11
-236.45
 21
2.2
  0
LINE
  8
0
 10
-236.45
 20
2.2
 11
-230.05
 21
2.2
  0
LINE
  8
0
 10
-230.05
 20
2.2
 11
-230.05
 21
-12.7
  0
LINE
  8
0
 10
-230.05
 20
-12.7
 11
-236.45
 21
-12.7
  0
LINE
  8
0
 10
230.05
 20
-12.7
 11
230.05
 21
2.2
  0
LINE
  8
0
 10
230.05
 20
2.2
 11
236.45
 21
2.2
  0
LINE
  8
0
 10
236.45
 20
2.2
 11
236.45
 21
-12.7
  0
LINE
  8
0
 10
236.45
 20
-12.7
 11
230.05
 21
-12.7
  0
LINE
  8
0
 10
219.512
 20
-12.202
 11
219.043
 21
-12.0597
  0
LINE
  8
0
 10
219.043
 20
-12.0597
 11
218.611
 21
-11.8287
  0
LINE
  8
0
 10
218.611
 20
-11.8287
 11
218.232
 21
-11.5178
  0
LINE
  8
0
 10
218.232
 20
-11.5178
 11
217.921
 21
-11.1389
  0
LINE
  8
0
 10
217.921
 20
-11.1389
 11
217.69
 21
-10.7067
  0
LINE
  8
0
 10
217.69
 20
-10.7067
 11
217.548
 21
-10.2377
  0
LINE
  8
0
 10
217.548
 20
-10.2377
 11
217.5
 21
-9.75
  0
LINE
  8
0
 10
217.5
 20
-9.75
 11
217.548
 21
-9.26227
  0
LINE
  8
0
 10
217.548
 20
-9.26227
 11
217.69
 21
-8.79329
  0
LINE
  8
0
 10
217.69
 20
-8.79329
 11
217.921
 21
-8.36107
  0
LINE
  8
0
 10
217.921
 20
-8.36107
 11
218.232
 21
-7.98222
  0
LINE
  8
0
 10
218.232
 20
-7.98222
 11
218.611
 21
-7.67133
  0
LINE
  8
0
 10
218.611
 20
-7.67133
 11
219.043
 21
-7.44029
  0
LINE
  8
0
 10
219.043
 20
-7.44029
 11
219.512
 21
-7.29803
  0
LINE
  8
0
 10
219.512
 20
-7.29803
 11
220
 21
-7.25
  0
LINE
  8
0
 10
220
 20
-7.25
 11
220.488
 21
-7.29803
  0
LINE
  8
0
 10
220.488
 20
-7.29803
 11
220.957
 21
-7.44029
  0
LINE
  8
0
 10
220.957
 20
-7.44029
 11
221.389
 21
-7.67133
  0
LINE
  8
0
 10
221.389
 20
-7.67133
 11
221.768
 21
-7.98222
  0
LINE
  8
0
 10
221.768
 20
-7.98222
 11
222.079
 21
-8.36107
  0
LINE
  8
0
 10
222.079
 20
-8.36107
 11
222.31
 21
-8.79329
  0
LINE
  8
0
 10
222.31
 20
-8.79329
 11
222.452
 21
-9.26227
  0
LINE
  8
0
 10
222.452
 20
-9.26227
 11
222.5
 21
-9.75
  0
LINE
  8
0
 10
222.5
 20
-9.75
 11
222.452
 21
-10.2377
  0
LINE
  8
0
 10
222.452
 20
-10.2377
 11
222.31
 21
-10.7067
  0
LINE
  8
0
 10
222.31
 20
-10.7067
 11
222.079
 21
-11.1389
  0
LINE
  8
0
 10
222.079
 20
-11.1389
 11
221.768
 21
-11.5178
  0
LINE
  8
0
 10
221.768
 20
-11.5178
 11
221.389
 21
-11.8287
  0
LINE
  8
0
 10
221.389
 20
-11.8287
 11
220.957
 21
-12.0597
  0
LINE
  8
0
 10
220.957
 20
-12.0597
 11
220.488
 21
-12.202
  0
LINE
  8
0
 10
220.488
 20
-12.202
 11
220
 21
-12.25
  0
LINE
  8
0
 10
220
 20
-12.25
 11
219.512
 21
-12.202
  0
LINE
  8
0
 10
-220.488
 20
-12.202
 11
-220.957
 21
-12.0597
  0
LINE
  8
0
 10
-220.957
 20
-12.0597
 11
-221.389
 21
-11.8287
  0
LINE
  8
0
 10
-221.389
 20
-11.8287
 11
-221.768
 21
-11.5178
  0
LINE
  8
0
 10
-221.768
 20
-11.5178
 11
-222.079
 21
-11.1389
  0
LINE
  8
0
 10
-222.079
 20
-11.1389
 11
-222.31
 21
-10.7067
  0
LINE
  8
0
 10
-222.31
 20
-10.7067
 11
-222.452
 21
-10.2377
  0
LINE
  8
0
 10
-222.452
 20
-10.2377
 11
-222.5
 21
-9.75
  0
LINE
  8
0
 10
-222.5
 20
-9.75
 11
-222.452
 21
-9.26227
  0
LINE
  8
0
 10
-222.452
 20
-9.26227
 11
-222.31
 21
-8.79329
  0
LINE
  8
0
 10
-222.31
 20
-8.79329
 11
-222.079
 21
-8.36107
  0
LINE
  8
0
 10
-222.079
 20
-8.36107
 11
-221.768
 21
-7.98222
  0
LINE
  8
0
 10
-221.768
 20
-7.98222
 11
-221.389
 21
-7.67133
  0
LINE
  8
0
 10
-221.389
 20
-7.67133
 11
-220.957
 21
-7.44029
  0
LINE
  8
0
 10
-220.957
 20
-7.44029
 11
-220.488
 21
-7.29803
  0
LINE
  8
0
 10
-220.488
 20
-7.29803
 11
-220
 21
-7.25
  0
LINE
  8
0
 10
-220
 20
-7.25
 11
-219.512
 21
-7.29803
  0
LINE
  8
0
 10
-219.512
 20
-7.29803
 11
-219.043
 21
-7.44029
  0
LINE
  8
0
 10
-219.043
 20
-7.44029
 11
-218.611
 21
-7.67133
  0
LINE
  8
0
 10
-218.611
 20
-7.67133
 11
-218.232
 21
-7.98222
  0
LINE
  8
0
 10
-218.232
 20
-7.98222
 11
-217.921
 21
-8.36107
  0
LINE
  8
0
 10
-217.921
 20
-8.36107
 11
-217.69
 21
-8.79329
  0
LINE
  8
0
 10
-217.69
 20
-8.79329
 11
-217.548
 21
-9.26227
  0
LINE
  8
0
 10
-217.548
 20
-9.26227
 11
-217.5
 21
-9.75
  0
LINE
  8
0
 10
-217.5
 20
-9.75
 11
-217.548
 21
-10.2377
  0
LINE
  8
0
 10
-217.548
 20
-10.2377
 11
-217.69
 21
-10.7067
  0
LINE
  8
0
 10
-217.69
 20
-10.7067
 11
-217.921
 21
-11.1389
  0
LINE
  8
0
 10
-217.921
 20
-11.1389
 11
-218.232
 21
-11.5178
  0
LINE
  8
0
 10
-218.232
 20
-11.5178
 11
-218.611
 21
-11.8287
  0
LINE
  8
0
 10
-218.611
 20
-11.8287
 11
-219.043
 21
-12.0597
  0
LINE
  8
0
 10
-219.043
 20
-12.0597
 11
-219.512
 21
-12.202
  0
LINE
  8
0
 10
-219.512
 20
-12.202
 11
-220
 21
-12.25
  0
LINE
  8
0
 10
-220
 20
-12.25
 11
-220.488
 21
-12.202
  0
LINE
  8
0
 10
232.762
 20
-22.702
 11
232.293
 21
-22.5597
  0
LINE
  8
0
 10
232.293
 20
-22.5597
 11
231.861
 21
-22.3287
  0
LINE
  8
0
 10
231.861
 20
-22.3287
 11
231.482
 21
-22.0178
  0
LINE
  8
0
 10
231.482
 20
-22.0178
 11
231.171
 21
-21.6389
  0
LINE
  8
0
 10
231.171
 20
-21.6389
 11
230.94
 21
-21.2067
  0
LINE
  8
0
 10
230.94
 20
-21.2067
 11
230.798
 21
-20.7377
  0
LINE
  8
0
 10
230.798
 20
-20.7377
 11
230.75
 21
-20.25
  0
LINE
  8
0
 10
230.75
 20
-20.25
 11
230.798
 21
-19.7623
  0
LINE
  8
0
 10
230.798
 20
-19.7623
 11
230.94
 21
-19.2933
  0
LINE
  8
0
 10
230.94
 20
-19.2933
 11
231.171
 21
-18.8611
  0
LINE
  8
0
 10
231.171
 20
-18.8611
 11
231.482
 21
-18.4822
  0
LINE
  8
0
 10
231.482
 20
-18.4822
 11
231.861
 21
-18.1713
  0
LINE
  8
0
 10
231.861
 20
-18.1713
 11
232.293
 21
-17.9403
  0
LINE
  8
0
 10
232.293
 20
-17.9403
 11
232.762
 21
-17.798
  0
LINE
  8
0
 10
232.762
 20
-17.798
 11
233.25
 21
-17.75
  0
LINE
  8
0
 10
233.25
 20
-17.75
 11
233.738
 21
-17.798
  0
LINE
  8
0
 10
233.738
 20
-17.798
 11
234.207
 21
-17.9403
  0
LINE
  8
0
 10
234.207
 20
-17.9403
 11
234.639
 21
-18.1713
  0
LINE
  8
0
 10
234.639
 20
-18.1713
 11
235.018
 21
-18.4822
  0
LINE
  8
0
 10
235.018
 20
-18.4822
 11
235.329
 21
-18.8611
  0
LINE
  8
0
 10
235.329
 20
-18.8611
 11
235.56
 21
-19.2933
  0
LINE
  8
0
 10
235.56
 20
-19.2933
 11
235.702
 21
-19.7623
  0
LINE
  8
0
 10
235.702
 20
-19.7623
 11
235.75
 21
-20.25
  0
LINE
  8
0
 10
235.75
 20
-20.25
 11
235.702
 21
-20.7377
  0
LINE
  8
0
 10
235.702
 20
-20.7377
 11
235.56
 21
-21.2067
  0
LINE
  8
0
 10
235.56
 20
-21.2067
 11
235.329
 21
-21.6389
  0
LINE
  8
0
 10
235.329
 20
-21.6389
 11
235.018
 21
-22.0178
  0
LINE
  8
0
 10
235.018
 20
-22.0178
 11
234.639
 21
-22.3287
  0
LINE
  8
0
 10
234.639
 20
-22.3287
 11
234.207
 21
-22.5597
  0
LINE
  8
0
 10
234.207
 20
-22.5597
 11
233.738
 21
-22.702
  0
LINE
  8
0
 10
233.738
 20
-22.702
 11
233.25
 21
-22.75
  0
LINE
  8
0
 10
233.25
 20
-22.75
 11
232.762
 21
-22.702
  0
LINE
  8
0
 10
-233.738
 20
-22.702
 11
-234.207
 21
-22.5597
  0
LINE
  8
0
 10
-234.207
 20
-22.5597
 11
-234.639
 21
-22.3287
  0
LINE
  8
0
 10
-234.639
 20
-22.3287
 11
-235.018
 21
-22.0178
  0
LINE
  8
0
 10
-235.018
 20
-22.0178
 11
-235.329
 21
-21.6389
  0
LINE
  8
0
 10
-235.329
 20
-21.6389
 11
-235.56
 21
-21.2067
  0
LINE
  8
0
 10
-235.56
 20
-21.2067
 11
-235.702
 21
-20.7377
  0
LINE
  8
0
 10
-235.702
 20
-20.7377
 11
-235.75
 21
-20.25
  0
LINE
  8
0
 10
-235.75
 20
-20.25
 11
-235.702
 21
-19.7623
  0
LINE
  8
0
 10
-235.702
 20
-19.7623
 11
-235.56
 21
-19.2933
  0
LINE
  8
0
 10
-235.56
 20
-19.2933
 11
-235.329
 21
-18.8611
  0
LINE
  8
0
 10
-235.329
 20
-18.8611
 11
-235.018
 21
-18.4822
  0
LINE
  8
0
 10
-235.018
 20
-18.4822
 11
-234.639
 21
-18.1713
  0
LINE
  8
0
 10
-234.639
 20
-18.1713
 11
-234.207
 21
-17.9403
  0
LINE
  8
0
 10
-234.207
 20
-17.9403
 11
-233.738
 21
-17.798
  0
LINE
  8
0
 10
-233.738
 20
-17.798
 11
-233.25
 21
-17.75
  0
LINE
  8
0
 10
-233.25
 20
-17.75
 11
-232.762
 21
-17.798
  0
LINE
  8
0
 10
-232.762
 20
-17.798
 11
-232.293
 21
-17.9403
  0
LINE
  8
0
 10
-232.293
 20
-17.9403
 11
-231.861
 21
-18.1713
  0
LINE
  8
0
 10
-231.861
 20
-18.1713
 11
-231.482
 21
-18.4822
  0
LINE
  8
0
 10
-231.482
 20
-18.4822
 11
-231.171
 21
-18.8611
  0
LINE
  8
0
 10
-231.171
 20
-18.8611
 11
-230.94
 21
-19.2933
  0
LINE
  8
0
 10
-230.94
 20
-19.2933
 11
-230.798
 21
-19.7623
  0
LINE
  8
0
 10
-230.798
 20
-19.7623
 11
-230.75
 21
-20.25
  0
LINE
  8
0
 10
-230.75
 20
-20.25
 11
-230.798
 21
-20.7377
  0
LINE
  8
0
 10
-230.798
 20
-20.7377
 11
-230.94
 21
-21.2067
  0
LINE
  8
0
 10
-230.94
 20
-21.2067
 11
-231.171
 21
-21.6389
  0
LINE
  8
0
 10
-231.171
 20
-21.6389
 11
-231.482
 21
-22.0178
  0
LINE
  8
0
 10
-231.482
 20
-22.0178
 11
-231.861
 21
-22.3287
  0
LINE
  8
0
 10
-231.861
 20
-22.3287
 11
-232.293
 21
-22.5597
  0
LINE
  8
0
 10
-232.293
 20
-22.5597
 11
-232.762
 21
-22.702
  0
LINE
  8
0
 10
-232.762
 20
-22.702
 11
-233.25
 21
-22.75
  0
LINE
  8
0
 10
-233.25
 20
-22.75
 11
-233.738
 21
-22.702
  0
LINE
  8
0
 10
0
 20
-29
 11
-0.487717
 21
-28.952
  0
LINE
  8
0
 10
-0.487717
 20
-28.952
 11
-0.956696
 21
-28.8097
  0
LINE
  8
0
 10
-0.956696
 20
-28.8097
 11
-1.38892
 21
-28.5787
  0
LINE
  8
0
 10
-1.38892
 20
-28.5787
 11
-1.76776
 21
-28.2678
  0
LINE
  8
0
 10
-1.76776
 20
-28.2678
 11
-2.07866
 21
-27.8889
  0
LINE
  8
0
 10
-2.07866
 20
-27.8889
 11
-2.30969
 21
-27.4567
  0
LINE
  8
0
 10
-2.30969
 20
-27.4567
 11
-2.45195
 21
-26.9877
  0
LINE
  8
0
 10
-2.45195
 20
-26.9877
 11
-2.5
 21
-26.5
  0
LINE
  8
0
 10
-2.5
 20
-26.5
 11
-2.45195
 21
-26.0123
  0
LINE
  8
0
 10
-2.45195
 20
-26.0123
 11
-2.30969
 21
-25.5433
  0
LINE
  8
0
 10
-2.30969
 20
-25.5433
 11
-2.07866
 21
-25.1111
  0
LINE
  8
0
 10
-2.07866
 20
-25.1111
 11
-1.76776
 21
-24.7322
  0
LINE
  8
0
 10
-1.76776
 20
-24.7322
 11
-1.69566
 21
-24.673
  0
LINE
  8
0
 10
-1.69566
 20
-24.673
 11
-1.69566
 21
-23.2942
  0
LINE
  8
0
 10
-1.69566
 20
-23.2942
 11
-1.5928
 21
-22.8214
  0
LINE
  8
0
 10
-1.5928
 20
-22.8214
 11
-1.36092
 21
-22.3967
  0
LINE
  8
0
 10
-1.36092
 20
-22.3967
 11
-1.01877
 21
-22.0546
  0
LINE
  8
0
 10
-1.01877
 20
-22.0546
 11
-0.594086
 21
-21.8227
  0
LINE
  8
0
 10
-0.594086
 20
-21.8227
 11
-0.121262
 21
-21.7198
  0
LINE
  8
0
 10
-0.121262
 20
-21.7198
 11
0.361359
 21
-21.7543
  0
LINE
  8
0
 10
0.361359
 20
-21.7543
 11
0.814713
 21
-21.9234
  0
LINE
  8
0
 10
0.814713
 20
-21.9234
 11
1.20207
 21
-22.2134
  0
LINE
  8
0
 10
1.20207
 20
-22.2134
 11
1.49205
 21
-22.6008
  0
LINE
  8
0
 10
1.49205
 20
-22.6008
 11
1.66115
 21
-23.0541
  0
LINE
  8
0
 10
1.66115
 20
-23.0541
 11
1.69566
 21
-23.5367
  0
LINE
  8
0
 10
1.69566
 20
-23.5367
 11
1.69566
 21
-24.673
  0
LINE
  8
0
 10
1.69566
 20
-24.673
 11
1.76776
 21
-24.7322
  0
LINE
  8
0
 10
1.76776
 20
-24.7322
 11
2.07866
 21
-25.1111
  0
LINE
  8
0
 10
2.07866
 20
-25.1111
 11
2.30969
 21
-25.5433
  0
LINE
  8
0
 10
2.30969
 20
-25.5433
 11
2.45195
 21
-26.0123
  0
LINE
  8
0
 10
2.45195
 20
-26.0123
 11
2.5
 21
-26.5
  0
LINE
  8
0
 10
2.5
 20
-26.5
 11
2.45195
 21
-26.9877
  0
LINE
  8
0
 10
2.45195
 20
-26.9877
 11
2.30969
 21
-27.4567
  0
LINE
  8
0
 10
2.30969
 20
-27.4567
 11
2.07866
 21
-27.8889
  0
LINE
  8
0
 10
2.07866
 20
-27.8889
 11
1.76776
 21
-28.2678
  0
LINE
  8
0
 10
1.76776
 20
-28.2678
 11
1.38892
 21
-28.5787
  0
LINE
  8
0
 10
1.38892
 20
-28.5787
 11
0.956696
 21
-28.8097
  0
LINE
  8
0
 10
0.956696
 20
-28.8097
 11
0.487717
 21
-28.952
  0
LINE
  8
0
 10
0.487717
 20
-28.952
 11
0
 21
-29
  0
LINE
  8
0
 10
-152.45
 20
-29.7
 11
-152.45
 21
-23.3
  0
LINE
  8
0
 10
-152.45
 20
-23.3
 11
-151.696
 21
-23.3
  0
LINE
  8
0
 10
-151.696
 20
-23.3
 11
-151.696
 21
-23.2942
  0
LINE
  8
0
 10
-151.696
 20
-23.2942
 11
-151.593
 21
-22.8214
  0
LINE
  8
0
 10
-151.593
 20
-22.8214
 11
-151.361
 21
-22.3967
  0
LINE
  8
0
 10
-151.361
 20
-22.3967
 11
-151.019
 21
-22.0546
  0
LINE
  8
0
 10
-151.019
 20
-22.0546
 11
-150.594
 21
-21.8227
  0
LINE
  8
0
 10
-150.594
 20
-21.8227
 11
-150.121
 21
-21.7198
  0
LINE
  8
0
 10
-150.121
 20
-21.7198
 11
-149.639
 21
-21.7543
  0
LINE
  8
0
 10
-149.639
 20
-21.7543
 11
-149.185
 21
-21.9234
  0
LINE
  8
0
 10
-149.185
 20
-21.9234
 11
-148.798
 21
-22.2134
  0
LINE
  8
0
 10
-148.798
 20
-22.2134
 11
-148.508
 21
-22.6008
  0
LINE
  8
0
 10
-148.508
 20
-22.6008
 11
-148.339
 21
-23.0541
  0
LINE
  8
0
 10
-148.339
 20
-23.0541
 11
-148.321
 21
-23.3
  0
LINE
  8
0
 10
-148.321
 20
-23.3
 11
-137.55
 21
-23.3
  0
LINE
  8
0
 10
-137.55
 20
-23.3
 11
-137.55
 21
-29.7
  0
LINE
  8
0
 10
-137.55
 20
-29.7
 11
-152.45
 21
-29.7
  0
LINE
  8
0
 10
137.55
 20
-29.7
 11
137.55
 21
-23.3
  0
LINE
  8
0
 10
137.55
 20
-23.3
 11
148.304
 21
-23.3
  0
LINE
  8
0
 10
148.304
 20
-23.3
 11
148.304
 21
-23.2942
  0
LINE
  8
0
 10
148.304
 20
-23.2942
 11
148.407
 21
-22.8214
  0
LINE
  8
0
 10
148.407
 20
-22.8214
 11
148.639
 21
-22.3967
  0
LINE
  8
0
 10
148.639
 20
-22.3967
 11
148.981
 21
-22.0546
  0
LINE
  8
0
 10
148.981
 20
-22.0546
 11
149.406
 21
-21.8227
  0
LINE
  8
0
 10
149.406
 20
-21.8227
 11
149.879
 21
-21.7198
  0
LINE
  8
0
 10
149.879
 20
-21.7198
 11
150.361
 21
-21.7543
  0
LINE
  8
0
 10
150.361
 20
-21.7543
 11
150.815
 21
-21.9234
  0
LINE
  8
0
 10
150.815
 20
-21.9234
 11
151.202
 21
-22.2134
  0
LINE
  8
0
 10
151.202
 20
-22.2134
 11
151.492
 21
-22.6008
  0
LINE
  8
0
 10
151.492
 20
-22.6008
 11
151.661
 21
-23.0541
  0
LINE
  8
0
 10
151.661
 20
-23.0541
 11
151.679
 21
-23.3
  0
LINE
  8
0
 10
151.679
 20
-23.3
 11
152.45
 21
-23.3
  0
LINE
  8
0
 10
152.45
 20
-23.3
 11
152.45
 21
-29.7
  0
LINE
  8
0
 10
152.45
 20
-29.7
 11
137.55
 21
-29.7
  0
LINE
  8
0
 10
7.54999
 20
-29.7
 11
7.54999
 21
-23.3
  0
LINE
  8
0
 10
7.54999
 20
-23.3
 11
22.45
 21
-23.3
  0
LINE
  8
0
 10
22.45
 20
-23.3
 11
22.45
 21
-29.7
  0
LINE
  8
0
 10
22.45
 20
-29.7
 11
7.54999
 21
-29.7
  0
LINE
  8
0
 10
-22.45
 20
-29.7
 11
-22.45
 21
-23.3
  0
LINE
  8
0
 10
-22.45
 20
-23.3
 11
-7.54999
 21
-23.3
  0
LINE
  8
0
 10
-7.54999
 20
-23.3
 11
-7.54999
 21
-29.7
  0
LINE
  8
0
 10
-7.54999
 20
-29.7
 11
-22.45
 21
-29.7
  0
LINE
  8
0
 10
107.55
 20
-29.7
 11
107.55
 21
-23.3
  0
LINE
  8
0
 10
107.55
 20
-23.3
 11
122.45
 21
-23.3
  0
LINE
  8
0
 10
122.45
 20
-23.3
 11
122.45
 21
-29.7
  0
LINE
  8
0
 10
122.45
 20
-29.7
 11
107.55
 21
-29.7
  0
LINE
  8
0
 10
-122.45
 20
-29.7
 11
-122.45
 21
-23.3
  0
LINE
  8
0
 10
-122.45
 20
-23.3
 11
-107.55
 21
-23.3
  0
LINE
  8
0
 10
-107.55
 20
-23.3
 11
-107.55
 21
-29.7
  0
LINE
  8
0
 10
-107.55
 20
-29.7
 11
-122.45
 21
-29.7
  0
LINE
  8
0
 10
130
 20
-29
 11
129.512
 21
-28.952
  0
LINE
  8
0
 10
129.512
 20
-28.952
 11
129.043
 21
-28.8097
  0
LINE
  8
0
 10
129.043
 20
-28.8097
 11
128.611
 21
-28.5787
  0
LINE
  8
0
 10
128.611
 20
-28.5787
 11
128.232
 21
-28.2678
  0
LINE
  8
0
 10
128.232
 20
-28.2678
 11
127.921
 21
-27.8889
  0
LINE
  8
0
 10
127.921
 20
-27.8889
 11
127.69
 21
-27.4567
  0
LINE
  8
0
 10
127.69
 20
-27.4567
 11
127.548
 21
-26.9877
  0
LINE
  8
0
 10
127.548
 20
-26.9877
 11
127.5
 21
-26.5
  0
LINE
  8
0
 10
127.5
 20
-26.5
 11
127.548
 21
-26.0123
  0
LINE
  8
0
 10
127.548
 20
-26.0123
 11
127.69
 21
-25.5433
  0
LINE
  8
0
 10
127.69
 20
-25.5433
 11
127.921
 21
-25.1111
  0
LINE
  8
0
 10
127.921
 20
-25.1111
 11
128.232
 21
-24.7322
  0
LINE
  8
0
 10
128.232
 20
-24.7322
 11
128.611
 21
-24.4213
  0
LINE
  8
0
 10
128.611
 20
-24.4213
 11
129.043
 21
-24.1903
  0
LINE
  8
0
 10
129.043
 20
-24.1903
 11
129.512
 21
-24.048
  0
LINE
  8
0
 10
129.512
 20
-24.048
 11
130
 21
-24
  0
LINE
  8
0
 10
130
 20
-24
 11
130.488
 21
-24.048
  0
LINE
  8
0
 10
130.488
 20
-24.048
 11
130.957
 21
-24.1903
  0
LINE
  8
0
 10
130.957
 20
-24.1903
 11
131.389
 21
-24.4213
  0
LINE
  8
0
 10
131.389
 20
-24.4213
 11
131.768
 21
-24.7322
  0
LINE
  8
0
 10
131.768
 20
-24.7322
 11
132.079
 21
-25.1111
  0
LINE
  8
0
 10
132.079
 20
-25.1111
 11
132.31
 21
-25.5433
  0
LINE
  8
0
 10
132.31
 20
-25.5433
 11
132.452
 21
-26.0123
  0
LINE
  8
0
 10
132.452
 20
-26.0123
 11
132.5
 21
-26.5
  0
LINE
  8
0
 10
132.5
 20
-26.5
 11
132.452
 21
-26.9877
  0
LINE
  8
0
 10
132.452
 20
-26.9877
 11
132.31
 21
-27.4567
  0
LINE
  8
0
 10
132.31
 20
-27.4567
 11
132.079
 21
-27.8889
  0
LINE
  8
0
 10
132.079
 20
-27.8889
 11
131.768
 21
-28.2678
  0
LINE
  8
0
 10
131.768
 20
-28.2678
 11
131.389
 21
-28.5787
  0
LINE
  8
0
 10
131.389
 20
-28.5787
 11
130.957
 21
-28.8097
  0
LINE
  8
0
 10
130.957
 20
-28.8097
 11
130.488
 21
-28.952
  0
LINE
  8
0
 10
130.488
 20
-28.952
 11
130
 21
-29
  0
LINE
  8
0
 10
-130
 20
-29
 11
-130.488
 21
-28.952
  0
LINE
  8
0
 10
-130.488
 20
-28.952
 11
-130.957
 21
-28.8097
  0
LINE
  8
0
 10
-130.957
 20
-28.8097
 11
-131.389
 21
-28.5787
  0
LINE
  8
0
 10
-131.389
 20
-28.5787
 11
-131.768
 21
-28.2678
  0
LINE
  8
0
 10
-131.768
 20
-28.2678
 11
-132.079
 21
-27.8889
  0
LINE
  8
0
 10
-132.079
 20
-27.8889
 11
-132.31
 21
-27.4567
  0
LINE
  8
0
 10
-132.31
 20
-27.4567
 11
-132.452
 21
-26.9877
  0
LINE
  8
0
 10
-132.452
 20
-26.9877
 11
-132.5
 21
-26.5
  0
LINE
  8
0
 10
-132.5
 20
-26.5
 11
-132.452
 21
-26.0123
  0
LINE
  8
0
 10
-132.452
 20
-26.0123
 11
-132.31
 21
-25.5433
  0
LINE
  8
0
 10
-132.31
 20
-25.5433
 11
-132.079
 21
-25.1111
  0
LINE
  8
0
 10
-132.079
 20
-25.1111
 11
-131.768
 21
-24.7322
  0
LINE
  8
0
 10
-131.768
 20
-24.7322
 11
-131.389
 21
-24.4213
  0
LINE
  8
0
 10
-131.389
 20
-24.4213
 11
-130.957
 21
-24.1903
  0
LINE
  8
0
 10
-130.957
 20
-24.1903
 11
-130.488
 21
-24.048
  0
LINE
  8
0
 10
-130.488
 20
-24.048
 11
-130
 21
-24
  0
LINE
  8
0
 10
-130
 20
-24
 11
-129.512
 21
-24.048
  0
LINE
  8
0
 10
-129.512
 20
-24.048
 11
-129.043
 21
-24.1903
  0
LINE
  8
0
 10
-129.043
 20
-24.1903
 11
-128.611
 21
-24.4213
  0
LINE
  8
0
 10
-128.611
 20
-24.4213
 11
-128.232
 21
-24.7322
  0
LINE
  8
0
 10
-128.232
 20
-24.7322
 11
-127.921
 21
-25.1111
  0
LINE
  8
0
 10
-127.921
 20
-25.1111
 11
-127.69
 21
-25.5433
  0
LINE
  8
0
 10
-127.69
 20
-25.5433
 11
-127.548
 21
-26.0123
  0
LINE
  8
0
 10
-127.548
 20
-26.0123
 11
-127.5
 21
-26.5
  0
LINE
  8
0
 10
-127.5
 20
-26.5
 11
-127.548
 21
-26.9877
  0
LINE
  8
0
 10
-127.548
 20
-26.9877
 11
-127.69
 21
-27.4567
  0
LINE
  8
0
 10
-127.69
 20
-27.4567
 11
-127.921
 21
-27.8889
  0
LINE
  8
0
 10
-127.921
 20
-27.8889
 11
-128.232
 21
-28.2678
  0
LINE
  8
0
 10
-128.232
 20
-28.2678
 11
-128.611
 21
-28.5787
  0
LINE
  8
0
 10
-128.611
 20
-28.5787
 11
-129.043
 21
-28.8097
  0
LINE
  8
0
 10
-129.043
 20
-28.8097
 11
-129.512
 21
-28.952
  0
LINE
  8
0
 10
-129.512
 20
-28.952
 11
-130
 21
-29
  0
LINE
  8
0
 10
230.05
 20
-42.7
 11
230.05
 21
-27.8
  0
LINE
  8
0
 10
230.05
 20
-27.8
 11
236.45
 21
-27.8
  0
LINE
  8
0
 10
236.45
 20
-27.8
 11
236.45
 21
-42.7
  0
LINE
  8
0
 10
236.45
 20
-42.7
 11
230.05
 21
-42.7
  0
LINE
  8
0
 10
-236.45
 20
-42.7
 11
-236.45
 21
-27.8
  0
LINE
  8
0
 10
-236.45
 20
-27.8
 11
-230.05
 21
-27.8
  0
LINE
  8
0
 10
-230.05
 20
-27.8
 11
-230.05
 21
-42.7
  0
LINE
  8
0
 10
-230.05
 20
-42.7
 11
-236.45
 21
-42.7
  0
LINE
  8
0
 10
219.512
 20
-39.702
 11
219.043
 21
-39.5597
  0
LINE
  8
0
 10
219.043
 20
-39.5597
 11
218.611
 21
-39.3287
  0
LINE
  8
0
 10
218.611
 20
-39.3287
 11
218.232
 21
-39.0178
  0
LINE
  8
0
 10
218.232
 20
-39.0178
 11
217.921
 21
-38.6389
  0
LINE
  8
0
 10
217.921
 20
-38.6389
 11
217.69
 21
-38.2067
  0
LINE
  8
0
 10
217.69
 20
-38.2067
 11
217.548
 21
-37.7377
  0
LINE
  8
0
 10
217.548
 20
-37.7377
 11
217.5
 21
-37.25
  0
LINE
  8
0
 10
217.5
 20
-37.25
 11
217.548
 21
-36.7623
  0
LINE
  8
0
 10
217.548
 20
-36.7623
 11
217.69
 21
-36.2933
  0
LINE
  8
0
 10
217.69
 20
-36.2933
 11
217.921
 21
-35.8611
  0
LINE
  8
0
 10
217.921
 20
-35.8611
 11
218.232
 21
-35.4822
  0
LINE
  8
0
 10
218.232
 20
-35.4822
 11
218.611
 21
-35.1713
  0
LINE
  8
0
 10
218.611
 20
-35.1713
 11
219.043
 21
-34.9403
  0
LINE
  8
0
 10
219.043
 20
-34.9403
 11
219.512
 21
-34.798
  0
LINE
  8
0
 10
219.512
 20
-34.798
 11
220
 21
-34.75
  0
LINE
  8
0
 10
220
 20
-34.75
 11
220.488
 21
-34.798
  0
LINE
  8
0
 10
220.488
 20
-34.798
 11
220.957
 21
-34.9403
  0
LINE
  8
0
 10
220.957
 20
-34.9403
 11
221.389
 21
-35.1713
  0
LINE
  8
0
 10
221.389
 20
-35.1713
 11
221.768
 21
-35.4822
  0
LINE
  8
0
 10
221.768
 20
-35.4822
 11
222.079
 21
-35.8611
  0
LINE
  8
0
 10
222.079
 20
-35.8611
 11
222.31
 21
-36.2933
  0
LINE
  8
0
 10
222.31
 20
-36.2933
 11
222.452
 21
-36.7623
  0
LINE
  8
0
 10
222.452
 20
-36.7623
 11
222.5
 21
-37.25
  0
LINE
  8
0
 10
222.5
 20
-37.25
 11
222.452
 21
-37.7377
  0
LINE
  8
0
 10
222.452
 20
-37.7377
 11
222.31
 21
-38.2067
  0
LINE
  8
0
 10
222.31
 20
-38.2067
 11
222.079
 21
-38.6389
  0
LINE
  8
0
 10
222.079
 20
-38.6389
 11
221.768
 21
-39.0178
  0
LINE
  8
0
 10
221.768
 20
-39.0178
 11
221.389
 21
-39.3287
  0
LINE
  8
0
 10
221.389
 20
-39.3287
 11
220.957
 21
-39.5597
  0
LINE
  8
0
 10
220.957
 20
-39.5597
 11
220.488
 21
-39.702
  0
LINE
  8
0
 10
220.488
 20
-39.702
 11
220
 21
-39.75
  0
LINE
  8
0
 10
220
 20
-39.75
 11
219.512
 21
-39.702
  0
LINE
  8
0
 10
-220.488
 20
-39.702
 11
-220.957
 21
-39.5597
  0
LINE
  8
0
 10
-220.957
 20
-39.5597
 11
-221.389
 21
-39.3287
  0
LINE
  8
0
 10
-221.389
 20
-39.3287
 11
-221.768
 21
-39.0178
  0
LINE
  8
0
 10
-221.768
 20
-39.0178
 11
-222.079
 21
-38.6389
  0
LINE
  8
0
 10
-222.079
 20
-38.6389
 11
-222.31
 21
-38.2067
  0
LINE
  8
0
 10
-222.31
 20
-38.2067
 11
-222.452
 21
-37.7377
  0
LINE
  8
0
 10
-222.452
 20
-37.7377
 11
-222.5
 21
-37.25
  0
LINE
  8
0
 10
-222.5
 20
-37.25
 11
-222.452
 21
-36.7623
  0
LINE
  8
0
 10
-222.452
 20
-36.7623
 11
-222.31
 21
-36.2933
  0
LINE
  8
0
 10
-222.31
 20
-36.2933
 11
-222.079
 21
-35.8611
  0
LINE
  8
0
 10
-222.079
 20
-35.8611
 11
-221.768
 21
-35.4822
  0
LINE
  8
0
 10
-221.768
 20
-35.4822
 11
-221.389
 21
-35.1713
  0
LINE
  8
0
 10
-221.389
 20
-35.1713
 11
-220.957
 21
-34.9403
  0
LINE
  8
0
 10
-220.957
 20
-34.9403
 11
-220.488
 21
-34.798
  0
LINE
  8
0
 10
-220.488
 20
-34.798
 11
-220
 21
-34.75
  0
LINE
  8
0
 10
-220
 20
-34.75
 11
-219.512
 21
-34.798
  0
LINE
  8
0
 10
-219.512
 20
-34.798
 11
-219.043
 21
-34.9403
  0
LINE
  8
0
 10
-219.043
 20
-34.9403
 11
-218.611
 21
-35.1713
  0
LINE
  8
0
 10
-218.611
 20
-35.1713
 11
-218.232
 21
-35.4822
  0
LINE
  8
0
 10
-218.232
 20
-35.4822
 11
-217.921
 21
-35.8611
  0
LINE
  8
0
 10
-217.921
 20
-35.8611
 11
-217.69
 21
-36.2933
  0
LINE
  8
0
 10
-217.69
 20
-36.2933
 11
-217.548
 21
-36.7623
  0
LINE
  8
0
 10
-217.548
 20
-36.7623
 11
-217.5
 21
-37.25
  0
LINE
  8
0
 10
-217.5
 20
-37.25
 11
-217.548
 21
-37.7377
  0
LINE
  8
0
 10
-217.548
 20
-37.7377
 11
-217.69
 21
-38.2067
  0
LINE
  8
0
 10
-217.69
 20
-38.2067
 11
-217.921
 21
-38.6389
  0
LINE
  8
0
 10
-217.921
 20
-38.6389
 11
-218.232
 21
-39.0178
  0
LINE
  8
0
 10
-218.232
 20
-39.0178
 11
-218.611
 21
-39.3287
  0
LINE
  8
0
 10
-218.611
 20
-39.3287
 11
-219.043
 21
-39.5597
  0
LINE
  8
0
 10
-219.043
 20
-39.5597
 11
-219.512
 21
-39.702
  0
LINE
  8
0
 10
-219.512
 20
-39.702
 11
-220
 21
-39.75
  0
LINE
  8
0
 10
-220
 20
-39.75
 11
-220.488
 21
-39.702
  0
LINE
  8
0
 10
124.5
 20
-49.25
 11
124.5
 21
-44.25
  0
LINE
  8
0
 10
124.5
 20
-44.25
 11
127.5
 21
-44.25
  0
LINE
  8
0
 10
127.5
 20
-44.25
 11
127.5
 21
-45.0543
  0
LINE
  8
0
 10
127.5
 20
-45.0543
 11
129.615
 21
-45.0543
  0
LINE
  8
0
 10
129.615
 20
-45.0543
 11
130.088
 21
-45.1572
  0
LINE
  8
0
 10
130.088
 20
-45.1572
 11
130.513
 21
-45.3891
  0
LINE
  8
0
 10
130.513
 20
-45.3891
 11
130.855
 21
-45.7312
  0
LINE
  8
0
 10
130.855
 20
-45.7312
 11
131.087
 21
-46.1559
  0
LINE
  8
0
 10
131.087
 20
-46.1559
 11
131.19
 21
-46.6287
  0
LINE
  8
0
 10
131.19
 20
-46.6287
 11
131.155
 21
-47.1114
  0
LINE
  8
0
 10
131.155
 20
-47.1114
 11
130.986
 21
-47.5647
  0
LINE
  8
0
 10
130.986
 20
-47.5647
 11
130.696
 21
-47.9521
  0
LINE
  8
0
 10
130.696
 20
-47.9521
 11
130.309
 21
-48.2421
  0
LINE
  8
0
 10
130.309
 20
-48.2421
 11
129.855
 21
-48.4111
  0
LINE
  8
0
 10
129.855
 20
-48.4111
 11
129.373
 21
-48.4457
  0
LINE
  8
0
 10
129.373
 20
-48.4457
 11
127.5
 21
-48.4457
  0
LINE
  8
0
 10
127.5
 20
-48.4457
 11
127.5
 21
-49.25
  0
LINE
  8
0
 10
127.5
 20
-49.25
 11
124.5
 21
-49.25
  0
LINE
  8
0
 10
-127.5
 20
-49.25
 11
-127.5
 21
-48.4457
  0
LINE
  8
0
 10
-127.5
 20
-48.4457
 11
-129.615
 21
-48.4457
  0
LINE
  8
0
 10
-129.615
 20
-48.4457
 11
-130.088
 21
-48.3428
  0
LINE
  8
0
 10
-130.088
 20
-48.3428
 11
-130.513
 21
-48.1109
  0
LINE
  8
0
 10
-130.513
 20
-48.1109
 11
-130.855
 21
-47.7688
  0
LINE
  8
0
 10
-130.855
 20
-47.7688
 11
-131.087
 21
-47.3441
  0
LINE
  8
0
 10
-131.087
 20
-47.3441
 11
-131.19
 21
-46.8713
  0
LINE
  8
0
 10
-131.19
 20
-46.8713
 11
-131.155
 21
-46.3886
  0
LINE
  8
0
 10
-131.155
 20
-46.3886
 11
-130.986
 21
-45.9353
  0
LINE
  8
0
 10
-130.986
 20
-45.9353
 11
-130.696
 21
-45.5479
  0
LINE
  8
0
 10
-130.696
 20
-45.5479
 11
-130.309
 21
-45.2579
  0
LINE
  8
0
 10
-130.309
 20
-45.2579
 11
-129.855
 21
-45.0888
  0
LINE
  8
0
 10
-129.855
 20
-45.0888
 11
-129.373
 21
-45.0543
  0
LINE
  8
0
 10
-129.373
 20
-45.0543
 11
-127.5
 21
-45.0543
  0
LINE
  8
0
 10
-127.5
 20
-45.0543
 11
-127.5
 21
-44.25
  0
LINE
  8
0
 10
-127.5
 20
-44.25
 11
-124.5
 21
-44.25
  0
LINE
  8
0
 10
-124.5
 20
-44.25
 11
-124.5
 21
-49.25
  0
LINE
  8
0
 10
-124.5
 20
-49.25
 11
-127.5
 21
-49.25
  0
LINE
  8
0
 10
-105.5
 20
-49.25
 11
-105.5
 21
-44.25
  0
LINE
  8
0
 10
-105.5
 20
-44.25
 11
-102.5
 21
-44.25
  0
LINE
  8
0
 10
-102.5
 20
-44.25
 11
-102.5
 21
-49.25
  0
LINE
  8
0
 10
-102.5
 20
-49.25
 11
-105.5
 21
-49.25
  0
LINE
  8
0
 10
102.5
 20
-49.25
 11
102.5
 21
-44.25
  0
LINE
  8
0
 10
102.5
 20
-44.25
 11
105.5
 21
-44.25
  0
LINE
  8
0
 10
105.5
 20
-44.25
 11
105.5
 21
-49.25
  0
LINE
  8
0
 10
105.5
 20
-49.25
 11
102.5
 21
-49.25
  0
LINE
  8
0
 10
170.385
 20
-48.4457
 11
169.912
 21
-48.3428
  0
LINE
  8
0
 10
169.912
 20
-48.3428
 11
169.487
 21
-48.1109
  0
LINE
  8
0
 10
169.487
 20
-48.1109
 11
169.145
 21
-47.7688
  0
LINE
  8
0
 10
169.145
 20
-47.7688
 11
168.913
 21
-47.3441
  0
LINE
  8
0
 10
168.913
 20
-47.3441
 11
168.81
 21
-46.8713
  0
LINE
  8
0
 10
168.81
 20
-46.8713
 11
168.845
 21
-46.3886
  0
LINE
  8
0
 10
168.845
 20
-46.3886
 11
169.014
 21
-45.9353
  0
LINE
  8
0
 10
169.014
 20
-45.9353
 11
169.304
 21
-45.5479
  0
LINE
  8
0
 10
169.304
 20
-45.5479
 11
169.691
 21
-45.2579
  0
LINE
  8
0
 10
169.691
 20
-45.2579
 11
170.145
 21
-45.0888
  0
LINE
  8
0
 10
170.145
 20
-45.0888
 11
170.627
 21
-45.0543
  0
LINE
  8
0
 10
170.627
 20
-45.0543
 11
173.456
 21
-45.0543
  0
LINE
  8
0
 10
173.456
 20
-45.0543
 11
173.929
 21
-45.1572
  0
LINE
  8
0
 10
173.929
 20
-45.1572
 11
174.353
 21
-45.3891
  0
LINE
  8
0
 10
174.353
 20
-45.3891
 11
174.695
 21
-45.7312
  0
LINE
  8
0
 10
174.695
 20
-45.7312
 11
174.927
 21
-46.1559
  0
LINE
  8
0
 10
174.927
 20
-46.1559
 11
175.03
 21
-46.6287
  0
LINE
  8
0
 10
175.03
 20
-46.6287
 11
174.996
 21
-47.1114
  0
LINE
  8
0
 10
174.996
 20
-47.1114
 11
174.827
 21
-47.5647
  0
LINE
  8
0
 10
174.827
 20
-47.5647
 11
174.537
 21
-47.9521
  0
LINE
  8
0
 10
174.537
 20
-47.9521
 11
174.149
 21
-48.2421
  0
LINE
  8
0
 10
174.149
 20
-48.2421
 11
173.696
 21
-48.4111
  0
LINE
  8
0
 10
173.696
 20
-48.4111
 11
173.213
 21
-48.4457
  0
LINE
  8
0
 10
173.213
 20
-48.4457
 11
170.385
 21
-48.4457
  0
LINE
  8
0
 10
20.3848
 20
-48.4457
 11
19.912
 21
-48.3428
  0
LINE
  8
0
 10
19.912
 20
-48.3428
 11
19.4873
 21
-48.1109
  0
LINE
  8
0
 10
19.4873
 20
-48.1109
 11
19.1452
 21
-47.7688
  0
LINE
  8
0
 10
19.1452
 20
-47.7688
 11
18.9133
 21
-47.3441
  0
LINE
  8
0
 10
18.9133
 20
-47.3441
 11
18.8104
 21
-46.8713
  0
LINE
  8
0
 10
18.8104
 20
-46.8713
 11
18.8449
 21
-46.3886
  0
LINE
  8
0
 10
18.8449
 20
-46.3886
 11
19.014
 21
-45.9353
  0
LINE
  8
0
 10
19.014
 20
-45.9353
 11
19.304
 21
-45.5479
  0
LINE
  8
0
 10
19.304
 20
-45.5479
 11
19.6914
 21
-45.2579
  0
LINE
  8
0
 10
19.6914
 20
-45.2579
 11
20.1447
 21
-45.0888
  0
LINE
  8
0
 10
20.1447
 20
-45.0888
 11
20.6274
 21
-45.0543
  0
LINE
  8
0
 10
20.6274
 20
-45.0543
 11
23.4558
 21
-45.0543
  0
LINE
  8
0
 10
23.4558
 20
-45.0543
 11
23.9286
 21
-45.1572
  0
LINE
  8
0
 10
23.9286
 20
-45.1572
 11
24.3533
 21
-45.3891
  0
LINE
  8
0
 10
24.3533
 20
-45.3891
 11
24.6954
 21
-45.7312
  0
LINE
  8
0
 10
24.6954
 20
-45.7312
 11
24.9273
 21
-46.1559
  0
LINE
  8
0
 10
24.9273
 20
-46.1559
 11
25.0302
 21
-46.6287
  0
LINE
  8
0
 10
25.0302
 20
-46.6287
 11
24.9957
 21
-47.1114
  0
LINE
  8
0
 10
24.9957
 20
-47.1114
 11
24.8266
 21
-47.5647
  0
LINE
  8
0
 10
24.8266
 20
-47.5647
 11
24.5366
 21
-47.9521
  0
LINE
  8
0
 10
24.5366
 20
-47.9521
 11
24.1492
 21
-48.2421
  0
LINE
  8
0
 10
24.1492
 20
-48.2421
 11
23.6959
 21
-48.4111
  0
LINE
  8
0
 10
23.6959
 20
-48.4111
 11
23.2132
 21
-48.4457
  0
LINE
  8
0
 10
23.2132
 20
-48.4457
 11
20.3848
 21
-48.4457
  0
LINE
  8
0
 10
-173.456
 20
-48.4457
 11
-173.929
 21
-48.3428
  0
LINE
  8
0
 10
-173.929
 20
-48.3428
 11
-174.353
 21
-48.1109
  0
LINE
  8
0
 10
-174.353
 20
-48.1109
 11
-174.695
 21
-47.7688
  0
LINE
  8
0
 10
-174.695
 20
-47.7688
 11
-174.927
 21
-47.3441
  0
LINE
  8
0
 10
-174.927
 20
-47.3441
 11
-175.03
 21
-46.8713
  0
LINE
  8
0
 10
-175.03
 20
-46.8713
 11
-174.996
 21
-46.3886
  0
LINE
  8
0
 10
-174.996
 20
-46.3886
 11
-174.827
 21
-45.9353
  0
LINE
  8
0
 10
-174.827
 20
-45.9353
 11
-174.537
 21
-45.5479
  0
LINE
  8
0
 10
-174.537
 20
-45.5479
 11
-174.149
 21
-45.2579
  0
LINE
  8
0
 10
-174.149
 20
-45.2579
 11
-173.696
 21
-45.0888
  0
LINE
  8
0
 10
-173.696
 20
-45.0888
 11
-173.213
 21
-45.0543
  0
LINE
  8
0
 10
-173.213
 20
-45.0543
 11
-170.385
 21
-45.0543
  0
LINE
  8
0
 10
-170.385
 20
-45.0543
 11
-169.912
 21
-45.1572
  0
LINE
  8
0
 10
-169.912
 20
-45.1572
 11
-169.487
 21
-45.3891
  0
LINE
  8
0
 10
-169.487
 20
-45.3891
 11
-169.145
 21
-45.7312
  0
LINE
  8
0
 10
-169.145
 20
-45.7312
 11
-168.913
 21
-46.1559
  0
LINE
  8
0
 10
-168.913
 20
-46.1559
 11
-168.81
 21
-46.6287
  0
LINE
  8
0
 10
-168.81
 20
-46.6287
 11
-168.845
 21
-47.1114
  0
LINE
  8
0
 10
-168.845
 20
-47.1114
 11
-169.014
 21
-47.5647
  0
LINE
  8
0
 10
-169.014
 20
-47.5647
 11
-169.304
 21
-47.9521
  0
LINE
  8
0
 10
-169.304
 20
-47.9521
 11
-169.691
 21
-48.2421
  0
LINE
  8
0
 10
-169.691
 20
-48.2421
 11
-170.145
 21
-48.4111
  0
LINE
  8
0
 10
-170.145
 20
-48.4111
 11
-170.627
 21
-48.4457
  0
LINE
  8
0
 10
-170.627
 20
-48.4457
 11
-173.456
 21
-48.4457
  0
LINE
  8
0
 10
-23.4558
 20
-48.4457
 11
-23.9286
 21
-48.3428
  0
LINE
  8
0
 10
-23.9286
 20
-48.3428
 11
-24.3533
 21
-48.1109
  0
LINE
  8
0
 10
-24.3533
 20
-48.1109
 11
-24.6954
 21
-47.7688
  0
LINE
  8
0
 10
-24.6954
 20
-47.7688
 11
-24.9273
 21
-47.3441
  0
LINE
  8
0
 10
-24.9273
 20
-47.3441
 11
-25.0302
 21
-46.8713
  0
LINE
  8
0
 10
-25.0302
 20
-46.8713
 11
-24.9957
 21
-46.3886
  0
LINE
  8
0
 10
-24.9957
 20
-46.3886
 11
-24.8266
 21
-45.9353
  0
LINE
  8
0
 10
-24.8266
 20
-45.9353
 11
-24.5366
 21
-45.5479
  0
LINE
  8
0
 10
-24.5366
 20
-45.5479
 11
-24.1492
 21
-45.2579
  0
LINE
  8
0
 10
-24.1492
 20
-45.2579
 11
-23.6959
 21
-45.0888
  0
LINE
  8
0
 10
-23.6959
 20
-45.0888
 11
-23.2132
 21
-45.0543
  0
LINE
  8
0
 10
-23.2132
 20
-45.0543
 11
-20.3848
 21
-45.0543
  0
LINE
  8
0
 10
-20.3848
 20
-45.0543
 11
-19.912
 21
-45.1572
  0
LINE
  8
0
 10
-19.912
 20
-45.1572
 11
-19.4873
 21
-45.3891
  0
LINE
  8
0
 10
-19.4873
 20
-45.3891
 11
-19.1452
 21
-45.7312
  0
LINE
  8
0
 10
-19.1452
 20
-45.7312
 11
-18.9133
 21
-46.1559
  0
LINE
  8
0
 10
-18.9133
 20
-46.1559
 11
-18.8104
 21
-46.6287
  0
LINE
  8
0
 10
-18.8104
 20
-46.6287
 11
-18.8449
 21
-47.1114
  0
LINE
  8
0
 10
-18.8449
 20
-47.1114
 11
-19.014
 21
-47.5647
  0
LINE
  8
0
 10
-19.014
 20
-47.5647
 11
-19.304
 21
-47.9521
  0
LINE
  8
0
 10
-19.304
 20
-47.9521
 11
-19.6914
 21
-48.2421
  0
LINE
  8
0
 10
-19.6914
 20
-48.2421
 11
-20.1447
 21
-48.4111
  0
LINE
  8
0
 10
-20.1447
 20
-48.4111
 11
-20.6274
 21
-48.4457
  0
LINE
  8
0
 10
-20.6274
 20
-48.4457
 11
-23.4558
 21
-48.4457
  0
ENDSEC
  0
SECTION
  2
OBJECTS
  0
DICTIONARY
  0
ENDSEC
  0
EOF
