  0
SECTION
  2
BLOCKS
  0
ENDSEC
  0
SECTION
  2
ENTITIES
  0
LINE
  8
0
 10
-159.453
 20
-67.3751
 11
-159.697
 21
-66.9422
  0
LINE
  8
0
 10
-159.697
 20
-66.9422
 11
-159.922
 21
-66.4987
  0
LINE
  8
0
 10
-159.922
 20
-66.4987
 11
-160.127
 21
-66.0455
  0
LINE
  8
0
 10
-160.127
 20
-66.0455
 11
-160.31
 21
-65.5835
  0
LINE
  8
0
 10
-160.31
 20
-65.5835
 11
-160.473
 21
-65.1137
  0
LINE
  8
0
 10
-160.473
 20
-65.1137
 11
-160.614
 21
-64.637
  0
LINE
  8
0
 10
-160.614
 20
-64.637
 11
-160.734
 21
-64.1544
  0
LINE
  8
0
 10
-160.734
 20
-64.1544
 11
-160.832
 21
-63.6669
  0
LINE
  8
0
 10
-160.832
 20
-63.6669
 11
-160.907
 21
-63.1755
  0
LINE
  8
0
 10
-160.907
 20
-63.1755
 11
-160.961
 21
-62.6812
  0
LINE
  8
0
 10
-160.961
 20
-62.6812
 11
-160.991
 21
-62.185
  0
LINE
  8
0
 10
-160.991
 20
-62.185
 11
-161
 21
-61.6878
  0
LINE
  8
0
 10
-161
 20
-61.6878
 11
-160.986
 21
-61.1909
  0
LINE
  8
0
 10
-160.986
 20
-61.1909
 11
-160.949
 21
-60.695
  0
LINE
  8
0
 10
-160.949
 20
-60.695
 11
-160.89
 21
-60.2013
  0
LINE
  8
0
 10
-160.89
 20
-60.2013
 11
-160.809
 21
-59.7108
  0
LINE
  8
0
 10
-160.809
 20
-59.7108
 11
-160.706
 21
-59.2244
  0
LINE
  8
0
 10
-160.706
 20
-59.2244
 11
-160.581
 21
-58.7432
  0
LINE
  8
0
 10
-160.581
 20
-58.7432
 11
-160.434
 21
-58.2682
  0
LINE
  8
0
 10
-160.434
 20
-58.2682
 11
-160.266
 21
-57.8002
  0
LINE
  8
0
 10
-160.266
 20
-57.8002
 11
-160.077
 21
-57.3403
  0
LINE
  8
0
 10
-160.077
 20
-57.3403
 11
-159.868
 21
-56.8895
  0
LINE
  8
0
 10
-159.868
 20
-56.8895
 11
-159.638
 21
-56.4485
  0
LINE
  8
0
 10
-159.638
 20
-56.4485
 11
-159.389
 21
-56.0184
  0
LINE
  8
0
 10
-159.389
 20
-56.0184
 11
-159.12
 21
-55.6
  0
LINE
  8
0
 10
-159.12
 20
-55.6
 11
-158.833
 21
-55.1942
  0
LINE
  8
0
 10
-158.833
 20
-55.1942
 11
-158.528
 21
-54.8017
  0
LINE
  8
0
 10
-158.528
 20
-54.8017
 11
-158.205
 21
-54.4235
  0
LINE
  8
0
 10
-158.205
 20
-54.4235
 11
-157.866
 21
-54.0602
  0
LINE
  8
0
 10
-157.866
 20
-54.0602
 11
-157.51
 21
-53.7126
  0
LINE
  8
0
 10
-157.51
 20
-53.7126
 11
-157.139
 21
-53.3815
  0
LINE
  8
0
 10
-157.139
 20
-53.3815
 11
-156.754
 21
-53.0674
  0
LINE
  8
0
 10
-156.754
 20
-53.0674
 11
-156.355
 21
-52.7711
  0
LINE
  8
0
 10
-156.355
 20
-52.7711
 11
-155.942
 21
-52.4931
  0
LINE
  8
0
 10
-155.942
 20
-52.4931
 11
-155.518
 21
-52.2341
  0
LINE
  8
0
 10
-155.518
 20
-52.2341
 11
-155.082
 21
-51.9945
  0
LINE
  8
0
 10
-155.082
 20
-51.9945
 11
-154.636
 21
-51.7748
  0
LINE
  8
0
 10
-154.636
 20
-51.7748
 11
-154.181
 21
-51.5755
  0
LINE
  8
0
 10
-154.181
 20
-51.5755
 11
-153.717
 21
-51.3969
  0
LINE
  8
0
 10
-153.717
 20
-51.3969
 11
-153.245
 21
-51.2396
  0
LINE
  8
0
 10
-153.245
 20
-51.2396
 11
-152.767
 21
-51.1037
  0
LINE
  8
0
 10
-152.767
 20
-51.1037
 11
-152.283
 21
-50.9895
  0
LINE
  8
0
 10
-152.283
 20
-50.9895
 11
-151.794
 21
-50.8973
  0
LINE
  8
0
 10
-151.794
 20
-50.8973
 11
-151.302
 21
-50.8273
  0
LINE
  8
0
 10
-151.302
 20
-50.8273
 11
-150.807
 21
-50.7797
  0
LINE
  8
0
 10
-150.807
 20
-50.7797
 11
-150.311
 21
-50.7544
  0
LINE
  8
0
 10
-150.311
 20
-50.7544
 11
-149.814
 21
-50.7516
  0
LINE
  8
0
 10
-149.814
 20
-50.7516
 11
-149.317
 21
-50.7712
  0
LINE
  8
0
 10
-149.317
 20
-50.7712
 11
-148.821
 21
-50.8133
  0
LINE
  8
0
 10
-148.821
 20
-50.8133
 11
-148.328
 21
-50.8778
  0
LINE
  8
0
 10
-148.328
 20
-50.8778
 11
-147.839
 21
-50.9644
  0
LINE
  8
0
 10
-147.839
 20
-50.9644
 11
-147.354
 21
-51.0731
  0
LINE
  8
0
 10
-147.354
 20
-51.0731
 11
-146.874
 21
-51.2036
  0
LINE
  8
0
 10
-146.874
 20
-51.2036
 11
-146.4
 21
-51.3556
  0
LINE
  8
0
 10
-146.4
 20
-51.3556
 11
-145.934
 21
-51.5289
  0
LINE
  8
0
 10
-145.934
 20
-51.5289
 11
-145.477
 21
-51.723
  0
LINE
  8
0
 10
-145.477
 20
-51.723
 11
-145.028
 21
-51.9377
  0
LINE
  8
0
 10
-145.028
 20
-51.9377
 11
-144.59
 21
-52.1723
  0
LINE
  8
0
 10
-144.59
 20
-52.1723
 11
-144.163
 21
-52.4266
  0
LINE
  8
0
 10
-144.163
 20
-52.4266
 11
-143.747
 21
-52.6999
  0
LINE
  8
0
 10
-143.747
 20
-52.6999
 11
-143.345
 21
-52.9917
  0
LINE
  8
0
 10
-143.345
 20
-52.9917
 11
-142.956
 21
-53.3013
  0
LINE
  8
0
 10
-142.956
 20
-53.3013
 11
-142.581
 21
-53.6283
  0
LINE
  8
0
 10
-142.581
 20
-53.6283
 11
-142.222
 21
-53.9718
  0
LINE
  8
0
 10
-142.222
 20
-53.9718
 11
-141.878
 21
-54.3312
  0
LINE
  8
0
 10
-141.878
 20
-54.3312
 11
-141.551
 21
-54.7058
  0
LINE
  8
0
 10
-141.551
 20
-54.7058
 11
-141.242
 21
-55.0948
  0
LINE
  8
0
 10
-141.242
 20
-55.0948
 11
-140.95
 21
-55.4973
  0
LINE
  8
0
 10
-140.95
 20
-55.4973
 11
-140.677
 21
-55.9127
  0
LINE
  8
0
 10
-140.677
 20
-55.9127
 11
-140.422
 21
-56.34
  0
LINE
  8
0
 10
-140.422
 20
-56.34
 11
-140.188
 21
-56.7783
  0
LINE
  8
0
 10
-140.188
 20
-56.7783
 11
-139.973
 21
-57.2267
  0
LINE
  8
0
 10
-139.973
 20
-57.2267
 11
-139.779
 21
-57.6844
  0
LINE
  8
0
 10
-139.779
 20
-57.6844
 11
-139.606
 21
-58.1505
  0
LINE
  8
0
 10
-139.606
 20
-58.1505
 11
-139.454
 21
-58.6238
  0
LINE
  8
0
 10
-139.454
 20
-58.6238
 11
-139.323
 21
-59.1036
  0
LINE
  8
0
 10
-139.323
 20
-59.1036
 11
-139.214
 21
-59.5888
  0
LINE
  8
0
 10
-139.214
 20
-59.5888
 11
-139.128
 21
-60.0783
  0
LINE
  8
0
 10
-139.128
 20
-60.0783
 11
-139.063
 21
-60.5713
  0
LINE
  8
0
 10
-139.063
 20
-60.5713
 11
-139.021
 21
-61.0667
  0
LINE
  8
0
 10
-139.021
 20
-61.0667
 11
-139.002
 21
-61.5635
  0
LINE
  8
0
 10
-139.002
 20
-61.5635
 11
-139.004
 21
-62.0607
  0
LINE
  8
0
 10
-139.004
 20
-62.0607
 11
-139.03
 21
-62.5573
  0
LINE
  8
0
 10
-139.03
 20
-62.5573
 11
-139.077
 21
-63.0522
  0
LINE
  8
0
 10
-139.077
 20
-63.0522
 11
-139.147
 21
-63.5444
  0
LINE
  8
0
 10
-139.147
 20
-63.5444
 11
-139.24
 21
-64.033
  0
LINE
  8
0
 10
-139.24
 20
-64.033
 11
-139.354
 21
-64.5169
  0
LINE
  8
0
 10
-139.354
 20
-64.5169
 11
-139.49
 21
-64.9951
  0
LINE
  8
0
 10
-139.49
 20
-64.9951
 11
-139.647
 21
-65.4668
  0
LINE
  8
0
 10
-139.647
 20
-65.4668
 11
-139.825
 21
-65.9308
  0
LINE
  8
0
 10
-139.825
 20
-65.9308
 11
-140.025
 21
-66.3863
  0
LINE
  8
0
 10
-140.025
 20
-66.3863
 11
-140.244
 21
-66.8323
  0
LINE
  8
0
 10
-140.244
 20
-66.8323
 11
-140.484
 21
-67.2679
  0
LINE
  8
0
 10
-140.484
 20
-67.2679
 11
-140.743
 21
-67.6923
  0
LINE
  8
0
 10
-140.743
 20
-67.6923
 11
-140.782
 21
-67.75
  0
LINE
  8
0
 10
-140.782
 20
-67.75
 11
-117.463
 21
-67.75
  0
LINE
  8
0
 10
-117.463
 20
-67.75
 11
-115.724
 21
-66.0113
  0
LINE
  8
0
 10
-115.724
 20
-66.0113
 11
-113.985
 21
-67.75
  0
LINE
  8
0
 10
-113.985
 20
-67.75
 11
-82.0147
 21
-67.75
  0
LINE
  8
0
 10
-82.0147
 20
-67.75
 11
-78.5
 21
-64.2353
  0
LINE
  8
0
 10
-78.5
 20
-64.2353
 11
-78.5
 21
-60.25
  0
LINE
  8
0
 10
-78.5
 20
-60.25
 11
-36.052
 21
-60.25
  0
LINE
  8
0
 10
-36.052
 20
-60.25
 11
-36.052
 21
-64.2353
  0
LINE
  8
0
 10
-36.052
 20
-64.2353
 11
-32.5373
 21
-67.75
  0
LINE
  8
0
 10
-32.5373
 20
-67.75
 11
-9.21822
 21
-67.75
  0
LINE
  8
0
 10
-9.21822
 20
-67.75
 11
-9.45293
 21
-67.3751
  0
LINE
  8
0
 10
-9.45293
 20
-67.3751
 11
-9.69746
 21
-66.9422
  0
LINE
  8
0
 10
-9.69746
 20
-66.9422
 11
-9.92218
 21
-66.4987
  0
LINE
  8
0
 10
-9.92218
 20
-66.4987
 11
-10.1266
 21
-66.0455
  0
LINE
  8
0
 10
-10.1266
 20
-66.0455
 11
-10.3104
 21
-65.5835
  0
LINE
  8
0
 10
-10.3104
 20
-65.5835
 11
-10.4731
 21
-65.1137
  0
LINE
  8
0
 10
-10.4731
 20
-65.1137
 11
-10.6144
 21
-64.637
  0
LINE
  8
0
 10
-10.6144
 20
-64.637
 11
-10.734
 21
-64.1544
  0
LINE
  8
0
 10
-10.734
 20
-64.1544
 11
-10.8317
 21
-63.6669
  0
LINE
  8
0
 10
-10.8317
 20
-63.6669
 11
-10.9072
 21
-63.1755
  0
LINE
  8
0
 10
-10.9072
 20
-63.1755
 11
-10.9605
 21
-62.6812
  0
LINE
  8
0
 10
-10.9605
 20
-62.6812
 11
-10.9914
 21
-62.185
  0
LINE
  8
0
 10
-10.9914
 20
-62.185
 11
-10.9998
 21
-61.6878
  0
LINE
  8
0
 10
-10.9998
 20
-61.6878
 11
-10.9858
 21
-61.1909
  0
LINE
  8
0
 10
-10.9858
 20
-61.1909
 11
-10.9493
 21
-60.695
  0
LINE
  8
0
 10
-10.9493
 20
-60.695
 11
-10.8904
 21
-60.2013
  0
LINE
  8
0
 10
-10.8904
 20
-60.2013
 11
-10.8093
 21
-59.7108
  0
LINE
  8
0
 10
-10.8093
 20
-59.7108
 11
-10.7061
 21
-59.2244
  0
LINE
  8
0
 10
-10.7061
 20
-59.2244
 11
-10.5811
 21
-58.7432
  0
LINE
  8
0
 10
-10.5811
 20
-58.7432
 11
-10.4344
 21
-58.2682
  0
LINE
  8
0
 10
-10.4344
 20
-58.2682
 11
-10.2664
 21
-57.8002
  0
LINE
  8
0
 10
-10.2664
 20
-57.8002
 11
-10.0774
 21
-57.3403
  0
LINE
  8
0
 10
-10.0774
 20
-57.3403
 11
-9.86789
 21
-56.8895
  0
LINE
  8
0
 10
-9.86789
 20
-56.8895
 11
-9.63817
 21
-56.4485
  0
LINE
  8
0
 10
-9.63817
 20
-56.4485
 11
-9.38876
 21
-56.0184
  0
LINE
  8
0
 10
-9.38876
 20
-56.0184
 11
-9.12018
 21
-55.6
  0
LINE
  8
0
 10
-9.12018
 20
-55.6
 11
-8.83296
 21
-55.1942
  0
LINE
  8
0
 10
-8.83296
 20
-55.1942
 11
-8.52769
 21
-54.8017
  0
LINE
  8
0
 10
-8.52769
 20
-54.8017
 11
-8.20502
 21
-54.4235
  0
LINE
  8
0
 10
-8.20502
 20
-54.4235
 11
-7.86557
 21
-54.0602
  0
LINE
  8
0
 10
-7.86557
 20
-54.0602
 11
-7.51006
 21
-53.7126
  0
LINE
  8
0
 10
-7.51006
 20
-53.7126
 11
-7.13919
 21
-53.3815
  0
LINE
  8
0
 10
-7.13919
 20
-53.3815
 11
-6.75375
 21
-53.0674
  0
LINE
  8
0
 10
-6.75375
 20
-53.0674
 11
-6.35451
 21
-52.7711
  0
LINE
  8
0
 10
-6.35451
 20
-52.7711
 11
-5.94229
 21
-52.4931
  0
LINE
  8
0
 10
-5.94229
 20
-52.4931
 11
-5.51793
 21
-52.2341
  0
LINE
  8
0
 10
-5.51793
 20
-52.2341
 11
-5.08229
 21
-51.9945
  0
LINE
  8
0
 10
-5.08229
 20
-51.9945
 11
-4.63628
 21
-51.7748
  0
LINE
  8
0
 10
-4.63628
 20
-51.7748
 11
-4.18079
 21
-51.5755
  0
LINE
  8
0
 10
-4.18079
 20
-51.5755
 11
-3.71675
 21
-51.3969
  0
LINE
  8
0
 10
-3.71675
 20
-51.3969
 11
-3.24513
 21
-51.2396
  0
LINE
  8
0
 10
-3.24513
 20
-51.2396
 11
-2.76688
 21
-51.1037
  0
LINE
  8
0
 10
-2.76688
 20
-51.1037
 11
-2.28297
 21
-50.9895
  0
LINE
  8
0
 10
-2.28297
 20
-50.9895
 11
-1.7944
 21
-50.8973
  0
LINE
  8
0
 10
-1.7944
 20
-50.8973
 11
-1.30215
 21
-50.8273
  0
LINE
  8
0
 10
-1.30215
 20
-50.8273
 11
-0.807266
 21
-50.7797
  0
LINE
  8
0
 10
-0.807266
 20
-50.7797
 11
-0.310715
 21
-50.7544
  0
LINE
  8
0
 10
-0.310715
 20
-50.7544
 11
0.186447
 21
-50.7516
  0
LINE
  8
0
 10
0.186447
 20
-50.7516
 11
0.683243
 21
-50.7712
  0
LINE
  8
0
 10
0.683243
 20
-50.7712
 11
1.17865
 21
-50.8133
  0
LINE
  8
0
 10
1.17865
 20
-50.8133
 11
1.67165
 21
-50.8778
  0
LINE
  8
0
 10
1.67165
 20
-50.8778
 11
2.16122
 21
-50.9644
  0
LINE
  8
0
 10
2.16122
 20
-50.9644
 11
2.64639
 21
-51.0731
  0
LINE
  8
0
 10
2.64639
 20
-51.0731
 11
3.12614
 21
-51.2036
  0
LINE
  8
0
 10
3.12614
 20
-51.2036
 11
3.59952
 21
-51.3556
  0
LINE
  8
0
 10
3.59952
 20
-51.3556
 11
4.06554
 21
-51.5289
  0
LINE
  8
0
 10
4.06554
 20
-51.5289
 11
4.52325
 21
-51.723
  0
LINE
  8
0
 10
4.52325
 20
-51.723
 11
4.97173
 21
-51.9377
  0
LINE
  8
0
 10
4.97173
 20
-51.9377
 11
5.41003
 21
-52.1723
  0
LINE
  8
0
 10
5.41003
 20
-52.1723
 11
5.8373
 21
-52.4266
  0
LINE
  8
0
 10
5.8373
 20
-52.4266
 11
6.25264
 21
-52.6999
  0
LINE
  8
0
 10
6.25264
 20
-52.6999
 11
6.6552
 21
-52.9917
  0
LINE
  8
0
 10
6.6552
 20
-52.9917
 11
7.04417
 21
-53.3013
  0
LINE
  8
0
 10
7.04417
 20
-53.3013
 11
7.41875
 21
-53.6283
  0
LINE
  8
0
 10
7.41875
 20
-53.6283
 11
7.77817
 21
-53.9718
  0
LINE
  8
0
 10
7.77817
 20
-53.9718
 11
8.1217
 21
-54.3312
  0
LINE
  8
0
 10
8.1217
 20
-54.3312
 11
8.44864
 21
-54.7058
  0
LINE
  8
0
 10
8.44864
 20
-54.7058
 11
8.75832
 21
-55.0948
  0
LINE
  8
0
 10
8.75832
 20
-55.0948
 11
9.05009
 21
-55.4973
  0
LINE
  8
0
 10
9.05009
 20
-55.4973
 11
9.32339
 21
-55.9127
  0
LINE
  8
0
 10
9.32339
 20
-55.9127
 11
9.57764
 21
-56.34
  0
LINE
  8
0
 10
9.57764
 20
-56.34
 11
9.81233
 21
-56.7783
  0
LINE
  8
0
 10
9.81233
 20
-56.7783
 11
10.027
 21
-57.2267
  0
LINE
  8
0
 10
10.027
 20
-57.2267
 11
10.2211
 21
-57.6844
  0
LINE
  8
0
 10
10.2211
 20
-57.6844
 11
10.3944
 21
-58.1505
  0
LINE
  8
0
 10
10.3944
 20
-58.1505
 11
10.5464
 21
-58.6238
  0
LINE
  8
0
 10
10.5464
 20
-58.6238
 11
10.6769
 21
-59.1036
  0
LINE
  8
0
 10
10.6769
 20
-59.1036
 11
10.7856
 21
-59.5888
  0
LINE
  8
0
 10
10.7856
 20
-59.5888
 11
10.8722
 21
-60.0783
  0
LINE
  8
0
 10
10.8722
 20
-60.0783
 11
10.9367
 21
-60.5713
  0
LINE
  8
0
 10
10.9367
 20
-60.5713
 11
10.9787
 21
-61.0667
  0
LINE
  8
0
 10
10.9787
 20
-61.0667
 11
10.9984
 21
-61.5635
  0
LINE
  8
0
 10
10.9984
 20
-61.5635
 11
10.9956
 21
-62.0607
  0
LINE
  8
0
 10
10.9956
 20
-62.0607
 11
10.9703
 21
-62.5573
  0
LINE
  8
0
 10
10.9703
 20
-62.5573
 11
10.9226
 21
-63.0522
  0
LINE
  8
0
 10
10.9226
 20
-63.0522
 11
10.8526
 21
-63.5444
  0
LINE
  8
0
 10
10.8526
 20
-63.5444
 11
10.7605
 21
-64.033
  0
LINE
  8
0
 10
10.7605
 20
-64.033
 11
10.6463
 21
-64.5169
  0
LINE
  8
0
 10
10.6463
 20
-64.5169
 11
10.5104
 21
-64.9951
  0
LINE
  8
0
 10
10.5104
 20
-64.9951
 11
10.353
 21
-65.4668
  0
LINE
  8
0
 10
10.353
 20
-65.4668
 11
10.1745
 21
-65.9308
  0
LINE
  8
0
 10
10.1745
 20
-65.9308
 11
9.9752
 21
-66.3863
  0
LINE
  8
0
 10
9.9752
 20
-66.3863
 11
9.75552
 21
-66.8323
  0
LINE
  8
0
 10
9.75552
 20
-66.8323
 11
9.5159
 21
-67.2679
  0
LINE
  8
0
 10
9.5159
 20
-67.2679
 11
9.25684
 21
-67.6923
  0
LINE
  8
0
 10
9.25684
 20
-67.6923
 11
9.21793
 21
-67.75
  0
LINE
  8
0
 10
9.21793
 20
-67.75
 11
32.5373
 21
-67.75
  0
LINE
  8
0
 10
32.5373
 20
-67.75
 11
36.052
 21
-64.2353
  0
LINE
  8
0
 10
36.052
 20
-64.2353
 11
36.052
 21
-60.25
  0
LINE
  8
0
 10
36.052
 20
-60.25
 11
78.5
 21
-60.25
  0
LINE
  8
0
 10
78.5
 20
-60.25
 11
78.5
 21
-64.2353
  0
LINE
  8
0
 10
78.5
 20
-64.2353
 11
82.0147
 21
-67.75
  0
LINE
  8
0
 10
82.0147
 20
-67.75
 11
113.985
 21
-67.75
  0
LINE
  8
0
 10
113.985
 20
-67.75
 11
115.724
 21
-66.0113
  0
LINE
  8
0
 10
115.724
 20
-66.0113
 11
117.463
 21
-67.75
  0
LINE
  8
0
 10
117.463
 20
-67.75
 11
140.782
 21
-67.75
  0
LINE
  8
0
 10
140.782
 20
-67.75
 11
140.547
 21
-67.3751
  0
LINE
  8
0
 10
140.547
 20
-67.3751
 11
140.303
 21
-66.9422
  0
LINE
  8
0
 10
140.303
 20
-66.9422
 11
140.078
 21
-66.4987
  0
LINE
  8
0
 10
140.078
 20
-66.4987
 11
139.873
 21
-66.0455
  0
LINE
  8
0
 10
139.873
 20
-66.0455
 11
139.69
 21
-65.5835
  0
LINE
  8
0
 10
139.69
 20
-65.5835
 11
139.527
 21
-65.1137
  0
LINE
  8
0
 10
139.527
 20
-65.1137
 11
139.386
 21
-64.637
  0
LINE
  8
0
 10
139.386
 20
-64.637
 11
139.266
 21
-64.1544
  0
LINE
  8
0
 10
139.266
 20
-64.1544
 11
139.168
 21
-63.6669
  0
LINE
  8
0
 10
139.168
 20
-63.6669
 11
139.093
 21
-63.1755
  0
LINE
  8
0
 10
139.093
 20
-63.1755
 11
139.039
 21
-62.6812
  0
LINE
  8
0
 10
139.039
 20
-62.6812
 11
139.009
 21
-62.185
  0
LINE
  8
0
 10
139.009
 20
-62.185
 11
139
 21
-61.6878
  0
LINE
  8
0
 10
139
 20
-61.6878
 11
139.014
 21
-61.1909
  0
LINE
  8
0
 10
139.014
 20
-61.1909
 11
139.051
 21
-60.695
  0
LINE
  8
0
 10
139.051
 20
-60.695
 11
139.11
 21
-60.2013
  0
LINE
  8
0
 10
139.11
 20
-60.2013
 11
139.191
 21
-59.7108
  0
LINE
  8
0
 10
139.191
 20
-59.7108
 11
139.294
 21
-59.2244
  0
LINE
  8
0
 10
139.294
 20
-59.2244
 11
139.419
 21
-58.7432
  0
LINE
  8
0
 10
139.419
 20
-58.7432
 11
139.566
 21
-58.2682
  0
LINE
  8
0
 10
139.566
 20
-58.2682
 11
139.734
 21
-57.8002
  0
LINE
  8
0
 10
139.734
 20
-57.8002
 11
139.923
 21
-57.3403
  0
LINE
  8
0
 10
139.923
 20
-57.3403
 11
140.132
 21
-56.8895
  0
LINE
  8
0
 10
140.132
 20
-56.8895
 11
140.362
 21
-56.4485
  0
LINE
  8
0
 10
140.362
 20
-56.4485
 11
140.611
 21
-56.0184
  0
LINE
  8
0
 10
140.611
 20
-56.0184
 11
140.88
 21
-55.6
  0
LINE
  8
0
 10
140.88
 20
-55.6
 11
141.167
 21
-55.1942
  0
LINE
  8
0
 10
141.167
 20
-55.1942
 11
141.472
 21
-54.8017
  0
LINE
  8
0
 10
141.472
 20
-54.8017
 11
141.795
 21
-54.4235
  0
LINE
  8
0
 10
141.795
 20
-54.4235
 11
142.134
 21
-54.0602
  0
LINE
  8
0
 10
142.134
 20
-54.0602
 11
142.49
 21
-53.7126
  0
LINE
  8
0
 10
142.49
 20
-53.7126
 11
142.861
 21
-53.3815
  0
LINE
  8
0
 10
142.861
 20
-53.3815
 11
143.246
 21
-53.0674
  0
LINE
  8
0
 10
143.246
 20
-53.0674
 11
143.645
 21
-52.7711
  0
LINE
  8
0
 10
143.645
 20
-52.7711
 11
144.058
 21
-52.4931
  0
LINE
  8
0
 10
144.058
 20
-52.4931
 11
144.482
 21
-52.2341
  0
LINE
  8
0
 10
144.482
 20
-52.2341
 11
144.918
 21
-51.9945
  0
LINE
  8
0
 10
144.918
 20
-51.9945
 11
145.364
 21
-51.7748
  0
LINE
  8
0
 10
145.364
 20
-51.7748
 11
145.819
 21
-51.5755
  0
LINE
  8
0
 10
145.819
 20
-51.5755
 11
146.283
 21
-51.3969
  0
LINE
  8
0
 10
146.283
 20
-51.3969
 11
146.755
 21
-51.2396
  0
LINE
  8
0
 10
146.755
 20
-51.2396
 11
147.233
 21
-51.1037
  0
LINE
  8
0
 10
147.233
 20
-51.1037
 11
147.717
 21
-50.9895
  0
LINE
  8
0
 10
147.717
 20
-50.9895
 11
148.206
 21
-50.8973
  0
LINE
  8
0
 10
148.206
 20
-50.8973
 11
148.698
 21
-50.8273
  0
LINE
  8
0
 10
148.698
 20
-50.8273
 11
149.193
 21
-50.7797
  0
LINE
  8
0
 10
149.193
 20
-50.7797
 11
149.689
 21
-50.7544
  0
LINE
  8
0
 10
149.689
 20
-50.7544
 11
150.186
 21
-50.7516
  0
LINE
  8
0
 10
150.186
 20
-50.7516
 11
150.683
 21
-50.7712
  0
LINE
  8
0
 10
150.683
 20
-50.7712
 11
151.179
 21
-50.8133
  0
LINE
  8
0
 10
151.179
 20
-50.8133
 11
151.672
 21
-50.8778
  0
LINE
  8
0
 10
151.672
 20
-50.8778
 11
152.161
 21
-50.9644
  0
LINE
  8
0
 10
152.161
 20
-50.9644
 11
152.646
 21
-51.0731
  0
LINE
  8
0
 10
152.646
 20
-51.0731
 11
153.126
 21
-51.2036
  0
LINE
  8
0
 10
153.126
 20
-51.2036
 11
153.6
 21
-51.3556
  0
LINE
  8
0
 10
153.6
 20
-51.3556
 11
154.066
 21
-51.5289
  0
LINE
  8
0
 10
154.066
 20
-51.5289
 11
154.523
 21
-51.723
  0
LINE
  8
0
 10
154.523
 20
-51.723
 11
154.972
 21
-51.9377
  0
LINE
  8
0
 10
154.972
 20
-51.9377
 11
155.41
 21
-52.1723
  0
LINE
  8
0
 10
155.41
 20
-52.1723
 11
155.837
 21
-52.4266
  0
LINE
  8
0
 10
155.837
 20
-52.4266
 11
156.253
 21
-52.6999
  0
LINE
  8
0
 10
156.253
 20
-52.6999
 11
156.655
 21
-52.9917
  0
LINE
  8
0
 10
156.655
 20
-52.9917
 11
157.044
 21
-53.3013
  0
LINE
  8
0
 10
157.044
 20
-53.3013
 11
157.419
 21
-53.6283
  0
LINE
  8
0
 10
157.419
 20
-53.6283
 11
157.778
 21
-53.9718
  0
LINE
  8
0
 10
157.778
 20
-53.9718
 11
158.122
 21
-54.3312
  0
LINE
  8
0
 10
158.122
 20
-54.3312
 11
158.449
 21
-54.7058
  0
LINE
  8
0
 10
158.449
 20
-54.7058
 11
158.758
 21
-55.0948
  0
LINE
  8
0
 10
158.758
 20
-55.0948
 11
159.05
 21
-55.4973
  0
LINE
  8
0
 10
159.05
 20
-55.4973
 11
159.323
 21
-55.9127
  0
LINE
  8
0
 10
159.323
 20
-55.9127
 11
159.578
 21
-56.34
  0
LINE
  8
0
 10
159.578
 20
-56.34
 11
159.812
 21
-56.7783
  0
LINE
  8
0
 10
159.812
 20
-56.7783
 11
160.027
 21
-57.2267
  0
LINE
  8
0
 10
160.027
 20
-57.2267
 11
160.221
 21
-57.6844
  0
LINE
  8
0
 10
160.221
 20
-57.6844
 11
160.394
 21
-58.1505
  0
LINE
  8
0
 10
160.394
 20
-58.1505
 11
160.546
 21
-58.6238
  0
LINE
  8
0
 10
160.546
 20
-58.6238
 11
160.677
 21
-59.1036
  0
LINE
  8
0
 10
160.677
 20
-59.1036
 11
160.786
 21
-59.5888
  0
LINE
  8
0
 10
160.786
 20
-59.5888
 11
160.872
 21
-60.0783
  0
LINE
  8
0
 10
160.872
 20
-60.0783
 11
160.937
 21
-60.5713
  0
LINE
  8
0
 10
160.937
 20
-60.5713
 11
160.979
 21
-61.0667
  0
LINE
  8
0
 10
160.979
 20
-61.0667
 11
160.998
 21
-61.5635
  0
LINE
  8
0
 10
160.998
 20
-61.5635
 11
160.996
 21
-62.0607
  0
LINE
  8
0
 10
160.996
 20
-62.0607
 11
160.97
 21
-62.5573
  0
LINE
  8
0
 10
160.97
 20
-62.5573
 11
160.923
 21
-63.0522
  0
LINE
  8
0
 10
160.923
 20
-63.0522
 11
160.853
 21
-63.5444
  0
LINE
  8
0
 10
160.853
 20
-63.5444
 11
160.76
 21
-64.033
  0
LINE
  8
0
 10
160.76
 20
-64.033
 11
160.646
 21
-64.5169
  0
LINE
  8
0
 10
160.646
 20
-64.5169
 11
160.51
 21
-64.9951
  0
LINE
  8
0
 10
160.51
 20
-64.9951
 11
160.353
 21
-65.4668
  0
LINE
  8
0
 10
160.353
 20
-65.4668
 11
160.175
 21
-65.9308
  0
LINE
  8
0
 10
160.175
 20
-65.9308
 11
159.975
 21
-66.3863
  0
LINE
  8
0
 10
159.975
 20
-66.3863
 11
159.756
 21
-66.8323
  0
LINE
  8
0
 10
159.756
 20
-66.8323
 11
159.516
 21
-67.2679
  0
LINE
  8
0
 10
159.516
 20
-67.2679
 11
159.257
 21
-67.6923
  0
LINE
  8
0
 10
159.257
 20
-67.6923
 11
159.218
 21
-67.75
  0
LINE
  8
0
 10
159.218
 20
-67.75
 11
182.537
 21
-67.75
  0
LINE
  8
0
 10
182.537
 20
-67.75
 11
186.052
 21
-64.2353
  0
LINE
  8
0
 10
186.052
 20
-64.2353
 11
186.052
 21
-60.25
  0
LINE
  8
0
 10
186.052
 20
-60.25
 11
254.75
 21
-60.25
  0
LINE
  8
0
 10
254.75
 20
-60.25
 11
254.75
 21
9.75
  0
LINE
  8
0
 10
254.75
 20
9.75
 11
235.18
 21
9.75
  0
LINE
  8
0
 10
235.18
 20
9.75
 11
235.132
 21
9.93362
  0
LINE
  8
0
 10
235.132
 20
9.93362
 11
234.992
 21
10.4116
  0
LINE
  8
0
 10
234.992
 20
10.4116
 11
234.837
 21
10.885
  0
LINE
  8
0
 10
234.837
 20
10.885
 11
234.666
 21
11.3531
  0
LINE
  8
0
 10
234.666
 20
11.3531
 11
234.481
 21
11.8156
  0
LINE
  8
0
 10
234.481
 20
11.8156
 11
234.281
 21
12.272
  0
LINE
  8
0
 10
234.281
 20
12.272
 11
234.067
 21
12.7218
  0
LINE
  8
0
 10
234.067
 20
12.7218
 11
233.839
 21
13.1646
  0
LINE
  8
0
 10
233.839
 20
13.1646
 11
233.597
 21
13.6
  0
LINE
  8
0
 10
233.597
 20
13.6
 11
225.024
 21
28.4382
  0
LINE
  8
0
 10
225.024
 20
28.4382
 11
224.739
 21
28.8474
  0
LINE
  8
0
 10
224.739
 20
28.8474
 11
224.422
 21
29.2313
  0
LINE
  8
0
 10
224.422
 20
29.2313
 11
224.073
 21
29.5874
  0
LINE
  8
0
 10
224.073
 20
29.5874
 11
223.696
 21
29.913
  0
LINE
  8
0
 10
223.696
 20
29.913
 11
223.293
 21
30.2059
  0
LINE
  8
0
 10
223.293
 20
30.2059
 11
222.866
 21
30.464
  0
LINE
  8
0
 10
222.866
 20
30.464
 11
222.42
 21
30.6856
  0
LINE
  8
0
 10
222.42
 20
30.6856
 11
221.957
 21
30.869
  0
LINE
  8
0
 10
221.957
 20
30.869
 11
221.48
 21
31.0131
  0
LINE
  8
0
 10
221.48
 20
31.0131
 11
220.992
 21
31.1167
  0
LINE
  8
0
 10
220.992
 20
31.1167
 11
220.498
 21
31.1791
  0
LINE
  8
0
 10
220.498
 20
31.1791
 11
220
 21
31.2
  0
LINE
  8
0
 10
220
 20
31.2
 11
219.502
 21
31.1791
  0
LINE
  8
0
 10
219.502
 20
31.1791
 11
219.008
 21
31.1167
  0
LINE
  8
0
 10
219.008
 20
31.1167
 11
218.52
 21
31.0131
  0
LINE
  8
0
 10
218.52
 20
31.0131
 11
218.043
 21
30.869
  0
LINE
  8
0
 10
218.043
 20
30.869
 11
217.58
 21
30.6856
  0
LINE
  8
0
 10
217.58
 20
30.6856
 11
217.134
 21
30.464
  0
LINE
  8
0
 10
217.134
 20
30.464
 11
216.707
 21
30.2059
  0
LINE
  8
0
 10
216.707
 20
30.2059
 11
216.304
 21
29.913
  0
LINE
  8
0
 10
216.304
 20
29.913
 11
215.927
 21
29.5874
  0
LINE
  8
0
 10
215.927
 20
29.5874
 11
202.927
 21
17.0874
  0
LINE
  8
0
 10
202.927
 20
17.0874
 11
202.578
 21
16.7313
  0
LINE
  8
0
 10
202.578
 20
16.7313
 11
202.261
 21
16.3474
  0
LINE
  8
0
 10
202.261
 20
16.3474
 11
201.976
 21
15.9382
  0
LINE
  8
0
 10
201.976
 20
15.9382
 11
198.401
 21
9.75
  0
LINE
  8
0
 10
198.401
 20
9.75
 11
-198.401
 21
9.75
  0
LINE
  8
0
 10
-198.401
 20
9.75
 11
-201.976
 21
15.9382
  0
LINE
  8
0
 10
-201.976
 20
15.9382
 11
-202.261
 21
16.3474
  0
LINE
  8
0
 10
-202.261
 20
16.3474
 11
-202.578
 21
16.7313
  0
LINE
  8
0
 10
-202.578
 20
16.7313
 11
-202.927
 21
17.0874
  0
LINE
  8
0
 10
-202.927
 20
17.0874
 11
-215.927
 21
29.5874
  0
LINE
  8
0
 10
-215.927
 20
29.5874
 11
-216.304
 21
29.913
  0
LINE
  8
0
 10
-216.304
 20
29.913
 11
-216.707
 21
30.2059
  0
LINE
  8
0
 10
-216.707
 20
30.2059
 11
-217.134
 21
30.464
  0
LINE
  8
0
 10
-217.134
 20
30.464
 11
-217.58
 21
30.6856
  0
LINE
  8
0
 10
-217.58
 20
30.6856
 11
-218.043
 21
30.869
  0
LINE
  8
0
 10
-218.043
 20
30.869
 11
-218.52
 21
31.0131
  0
LINE
  8
0
 10
-218.52
 20
31.0131
 11
-219.008
 21
31.1167
  0
LINE
  8
0
 10
-219.008
 20
31.1167
 11
-219.502
 21
31.1791
  0
LINE
  8
0
 10
-219.502
 20
31.1791
 11
-220
 21
31.2
  0
LINE
  8
0
 10
-220
 20
31.2
 11
-220.498
 21
31.1791
  0
LINE
  8
0
 10
-220.498
 20
31.1791
 11
-220.992
 21
31.1167
  0
LINE
  8
0
 10
-220.992
 20
31.1167
 11
-221.48
 21
31.0131
  0
LINE
  8
0
 10
-221.48
 20
31.0131
 11
-221.957
 21
30.869
  0
LINE
  8
0
 10
-221.957
 20
30.869
 11
-222.42
 21
30.6856
  0
LINE
  8
0
 10
-222.42
 20
30.6856
 11
-222.866
 21
30.464
  0
LINE
  8
0
 10
-222.866
 20
30.464
 11
-223.293
 21
30.2059
  0
LINE
  8
0
 10
-223.293
 20
30.2059
 11
-223.696
 21
29.913
  0
LINE
  8
0
 10
-223.696
 20
29.913
 11
-224.073
 21
29.5874
  0
LINE
  8
0
 10
-224.073
 20
29.5874
 11
-224.422
 21
29.2313
  0
LINE
  8
0
 10
-224.422
 20
29.2313
 11
-224.739
 21
28.8474
  0
LINE
  8
0
 10
-224.739
 20
28.8474
 11
-225.024
 21
28.4382
  0
LINE
  8
0
 10
-225.024
 20
28.4382
 11
-233.597
 21
13.6
  0
LINE
  8
0
 10
-233.597
 20
13.6
 11
-233.839
 21
13.1646
  0
LINE
  8
0
 10
-233.839
 20
13.1646
 11
-234.067
 21
12.7218
  0
LINE
  8
0
 10
-234.067
 20
12.7218
 11
-234.281
 21
12.272
  0
LINE
  8
0
 10
-234.281
 20
12.272
 11
-234.481
 21
11.8156
  0
LINE
  8
0
 10
-234.481
 20
11.8156
 11
-234.666
 21
11.3531
  0
LINE
  8
0
 10
-234.666
 20
11.3531
 11
-234.837
 21
10.885
  0
LINE
  8
0
 10
-234.837
 20
10.885
 11
-234.992
 21
10.4116
  0
LINE
  8
0
 10
-234.992
 20
10.4116
 11
-235.132
 21
9.93362
  0
LINE
  8
0
 10
-235.132
 20
9.93362
 11
-235.18
 21
9.75
  0
LINE
  8
0
 10
-235.18
 20
9.75
 11
-254.75
 21
9.75
  0
LINE
  8
0
 10
-254.75
 20
9.75
 11
-254.75
 21
-60.25
  0
LINE
  8
0
 10
-254.75
 20
-60.25
 11
-186.052
 21
-60.25
  0
LINE
  8
0
 10
-186.052
 20
-60.25
 11
-186.052
 21
-64.2353
  0
LINE
  8
0
 10
-186.052
 20
-64.2353
 11
-182.537
 21
-67.75
  0
LINE
  8
0
 10
-182.537
 20
-67.75
 11
-159.218
 21
-67.75
  0
LINE
  8
0
 10
-159.218
 20
-67.75
 11
-159.453
 21
-67.3751
  0
LINE
  8
0
 10
219.504
 20
22.596
 11
219.025
 21
22.7323
  0
LINE
  8
0
 10
219.025
 20
22.7323
 11
218.579
 21
22.9544
  0
LINE
  8
0
 10
218.579
 20
22.9544
 11
218.181
 21
23.2547
  0
LINE
  8
0
 10
218.181
 20
23.2547
 11
217.845
 21
23.6229
  0
LINE
  8
0
 10
217.845
 20
23.6229
 11
217.583
 21
24.0465
  0
LINE
  8
0
 10
217.583
 20
24.0465
 11
217.403
 21
24.5111
  0
LINE
  8
0
 10
217.403
 20
24.5111
 11
217.312
 21
25.0009
  0
LINE
  8
0
 10
217.312
 20
25.0009
 11
217.312
 21
25.4991
  0
LINE
  8
0
 10
217.312
 20
25.4991
 11
217.403
 21
25.9889
  0
LINE
  8
0
 10
217.403
 20
25.9889
 11
217.583
 21
26.4535
  0
LINE
  8
0
 10
217.583
 20
26.4535
 11
217.845
 21
26.8771
  0
LINE
  8
0
 10
217.845
 20
26.8771
 11
218.181
 21
27.2453
  0
LINE
  8
0
 10
218.181
 20
27.2453
 11
218.579
 21
27.5456
  0
LINE
  8
0
 10
218.579
 20
27.5456
 11
219.025
 21
27.7677
  0
LINE
  8
0
 10
219.025
 20
27.7677
 11
219.504
 21
27.904
  0
LINE
  8
0
 10
219.504
 20
27.904
 11
220
 21
27.95
  0
LINE
  8
0
 10
220
 20
27.95
 11
220.496
 21
27.904
  0
LINE
  8
0
 10
220.496
 20
27.904
 11
220.975
 21
27.7677
  0
LINE
  8
0
 10
220.975
 20
27.7677
 11
221.421
 21
27.5456
  0
LINE
  8
0
 10
221.421
 20
27.5456
 11
221.819
 21
27.2453
  0
LINE
  8
0
 10
221.819
 20
27.2453
 11
222.155
 21
26.8771
  0
LINE
  8
0
 10
222.155
 20
26.8771
 11
222.417
 21
26.4535
  0
LINE
  8
0
 10
222.417
 20
26.4535
 11
222.597
 21
25.9889
  0
LINE
  8
0
 10
222.597
 20
25.9889
 11
222.688
 21
25.4991
  0
LINE
  8
0
 10
222.688
 20
25.4991
 11
222.688
 21
25.0009
  0
LINE
  8
0
 10
222.688
 20
25.0009
 11
222.597
 21
24.5111
  0
LINE
  8
0
 10
222.597
 20
24.5111
 11
222.417
 21
24.0465
  0
LINE
  8
0
 10
222.417
 20
24.0465
 11
222.155
 21
23.6229
  0
LINE
  8
0
 10
222.155
 20
23.6229
 11
221.819
 21
23.2547
  0
LINE
  8
0
 10
221.819
 20
23.2547
 11
221.421
 21
22.9544
  0
LINE
  8
0
 10
221.421
 20
22.9544
 11
220.975
 21
22.7323
  0
LINE
  8
0
 10
220.975
 20
22.7323
 11
220.496
 21
22.596
  0
LINE
  8
0
 10
220.496
 20
22.596
 11
220
 21
22.55
  0
LINE
  8
0
 10
220
 20
22.55
 11
219.504
 21
22.596
  0
LINE
  8
0
 10
-220.496
 20
22.596
 11
-220.975
 21
22.7323
  0
LINE
  8
0
 10
-220.975
 20
22.7323
 11
-221.421
 21
22.9544
  0
LINE
  8
0
 10
-221.421
 20
22.9544
 11
-221.819
 21
23.2547
  0
LINE
  8
0
 10
-221.819
 20
23.2547
 11
-222.155
 21
23.6229
  0
LINE
  8
0
 10
-222.155
 20
23.6229
 11
-222.417
 21
24.0465
  0
LINE
  8
0
 10
-222.417
 20
24.0465
 11
-222.597
 21
24.5111
  0
LINE
  8
0
 10
-222.597
 20
24.5111
 11
-222.688
 21
25.0009
  0
LINE
  8
0
 10
-222.688
 20
25.0009
 11
-222.688
 21
25.4991
  0
LINE
  8
0
 10
-222.688
 20
25.4991
 11
-222.597
 21
25.9889
  0
LINE
  8
0
 10
-222.597
 20
25.9889
 11
-222.417
 21
26.4535
  0
LINE
  8
0
 10
-222.417
 20
26.4535
 11
-222.155
 21
26.8771
  0
LINE
  8
0
 10
-222.155
 20
26.8771
 11
-221.819
 21
27.2453
  0
LINE
  8
0
 10
-221.819
 20
27.2453
 11
-221.421
 21
27.5456
  0
LINE
  8
0
 10
-221.421
 20
27.5456
 11
-220.975
 21
27.7677
  0
LINE
  8
0
 10
-220.975
 20
27.7677
 11
-220.496
 21
27.904
  0
LINE
  8
0
 10
-220.496
 20
27.904
 11
-220
 21
27.95
  0
LINE
  8
0
 10
-220
 20
27.95
 11
-219.504
 21
27.904
  0
LINE
  8
0
 10
-219.504
 20
27.904
 11
-219.025
 21
27.7677
  0
LINE
  8
0
 10
-219.025
 20
27.7677
 11
-218.579
 21
27.5456
  0
LINE
  8
0
 10
-218.579
 20
27.5456
 11
-218.181
 21
27.2453
  0
LINE
  8
0
 10
-218.181
 20
27.2453
 11
-217.845
 21
26.8771
  0
LINE
  8
0
 10
-217.845
 20
26.8771
 11
-217.583
 21
26.4535
  0
LINE
  8
0
 10
-217.583
 20
26.4535
 11
-217.403
 21
25.9889
  0
LINE
  8
0
 10
-217.403
 20
25.9889
 11
-217.312
 21
25.4991
  0
LINE
  8
0
 10
-217.312
 20
25.4991
 11
-217.312
 21
25.0009
  0
LINE
  8
0
 10
-217.312
 20
25.0009
 11
-217.403
 21
24.5111
  0
LINE
  8
0
 10
-217.403
 20
24.5111
 11
-217.583
 21
24.0465
  0
LINE
  8
0
 10
-217.583
 20
24.0465
 11
-217.845
 21
23.6229
  0
LINE
  8
0
 10
-217.845
 20
23.6229
 11
-218.181
 21
23.2547
  0
LINE
  8
0
 10
-218.181
 20
23.2547
 11
-218.579
 21
22.9544
  0
LINE
  8
0
 10
-218.579
 20
22.9544
 11
-219.025
 21
22.7323
  0
LINE
  8
0
 10
-219.025
 20
22.7323
 11
-219.504
 21
22.596
  0
LINE
  8
0
 10
-219.504
 20
22.596
 11
-220
 21
22.55
  0
LINE
  8
0
 10
-220
 20
22.55
 11
-220.496
 21
22.596
  0
LINE
  8
0
 10
-207.496
 20
10.096
 11
-207.975
 21
10.2323
  0
LINE
  8
0
 10
-207.975
 20
10.2323
 11
-208.421
 21
10.4544
  0
LINE
  8
0
 10
-208.421
 20
10.4544
 11
-208.819
 21
10.7547
  0
LINE
  8
0
 10
-208.819
 20
10.7547
 11
-209.155
 21
11.1229
  0
LINE
  8
0
 10
-209.155
 20
11.1229
 11
-209.417
 21
11.5465
  0
LINE
  8
0
 10
-209.417
 20
11.5465
 11
-209.597
 21
12.0111
  0
LINE
  8
0
 10
-209.597
 20
12.0111
 11
-209.688
 21
12.5009
  0
LINE
  8
0
 10
-209.688
 20
12.5009
 11
-209.688
 21
12.9991
  0
LINE
  8
0
 10
-209.688
 20
12.9991
 11
-209.597
 21
13.4889
  0
LINE
  8
0
 10
-209.597
 20
13.4889
 11
-209.417
 21
13.9535
  0
LINE
  8
0
 10
-209.417
 20
13.9535
 11
-209.155
 21
14.3771
  0
LINE
  8
0
 10
-209.155
 20
14.3771
 11
-208.819
 21
14.7453
  0
LINE
  8
0
 10
-208.819
 20
14.7453
 11
-208.421
 21
15.0456
  0
LINE
  8
0
 10
-208.421
 20
15.0456
 11
-207.975
 21
15.2677
  0
LINE
  8
0
 10
-207.975
 20
15.2677
 11
-207.496
 21
15.404
  0
LINE
  8
0
 10
-207.496
 20
15.404
 11
-207
 21
15.45
  0
LINE
  8
0
 10
-207
 20
15.45
 11
-206.504
 21
15.404
  0
LINE
  8
0
 10
-206.504
 20
15.404
 11
-206.025
 21
15.2677
  0
LINE
  8
0
 10
-206.025
 20
15.2677
 11
-205.579
 21
15.0456
  0
LINE
  8
0
 10
-205.579
 20
15.0456
 11
-205.181
 21
14.7453
  0
LINE
  8
0
 10
-205.181
 20
14.7453
 11
-204.845
 21
14.3771
  0
LINE
  8
0
 10
-204.845
 20
14.3771
 11
-204.583
 21
13.9535
  0
LINE
  8
0
 10
-204.583
 20
13.9535
 11
-204.403
 21
13.4889
  0
LINE
  8
0
 10
-204.403
 20
13.4889
 11
-204.312
 21
12.9991
  0
LINE
  8
0
 10
-204.312
 20
12.9991
 11
-204.312
 21
12.5009
  0
LINE
  8
0
 10
-204.312
 20
12.5009
 11
-204.403
 21
12.0111
  0
LINE
  8
0
 10
-204.403
 20
12.0111
 11
-204.583
 21
11.5465
  0
LINE
  8
0
 10
-204.583
 20
11.5465
 11
-204.845
 21
11.1229
  0
LINE
  8
0
 10
-204.845
 20
11.1229
 11
-205.181
 21
10.7547
  0
LINE
  8
0
 10
-205.181
 20
10.7547
 11
-205.579
 21
10.4544
  0
LINE
  8
0
 10
-205.579
 20
10.4544
 11
-206.025
 21
10.2323
  0
LINE
  8
0
 10
-206.025
 20
10.2323
 11
-206.504
 21
10.096
  0
LINE
  8
0
 10
-206.504
 20
10.096
 11
-207
 21
10.05
  0
LINE
  8
0
 10
-207
 20
10.05
 11
-207.496
 21
10.096
  0
LINE
  8
0
 10
206.504
 20
10.096
 11
206.025
 21
10.2323
  0
LINE
  8
0
 10
206.025
 20
10.2323
 11
205.579
 21
10.4544
  0
LINE
  8
0
 10
205.579
 20
10.4544
 11
205.181
 21
10.7547
  0
LINE
  8
0
 10
205.181
 20
10.7547
 11
204.845
 21
11.1229
  0
LINE
  8
0
 10
204.845
 20
11.1229
 11
204.583
 21
11.5465
  0
LINE
  8
0
 10
204.583
 20
11.5465
 11
204.403
 21
12.0111
  0
LINE
  8
0
 10
204.403
 20
12.0111
 11
204.312
 21
12.5009
  0
LINE
  8
0
 10
204.312
 20
12.5009
 11
204.312
 21
12.9991
  0
LINE
  8
0
 10
204.312
 20
12.9991
 11
204.403
 21
13.4889
  0
LINE
  8
0
 10
204.403
 20
13.4889
 11
204.583
 21
13.9535
  0
LINE
  8
0
 10
204.583
 20
13.9535
 11
204.845
 21
14.3771
  0
LINE
  8
0
 10
204.845
 20
14.3771
 11
205.181
 21
14.7453
  0
LINE
  8
0
 10
205.181
 20
14.7453
 11
205.579
 21
15.0456
  0
LINE
  8
0
 10
205.579
 20
15.0456
 11
206.025
 21
15.2677
  0
LINE
  8
0
 10
206.025
 20
15.2677
 11
206.504
 21
15.404
  0
LINE
  8
0
 10
206.504
 20
15.404
 11
207
 21
15.45
  0
LINE
  8
0
 10
207
 20
15.45
 11
207.496
 21
15.404
  0
LINE
  8
0
 10
207.496
 20
15.404
 11
207.975
 21
15.2677
  0
LINE
  8
0
 10
207.975
 20
15.2677
 11
208.421
 21
15.0456
  0
LINE
  8
0
 10
208.421
 20
15.0456
 11
208.819
 21
14.7453
  0
LINE
  8
0
 10
208.819
 20
14.7453
 11
209.155
 21
14.3771
  0
LINE
  8
0
 10
209.155
 20
14.3771
 11
209.417
 21
13.9535
  0
LINE
  8
0
 10
209.417
 20
13.9535
 11
209.597
 21
13.4889
  0
LINE
  8
0
 10
209.597
 20
13.4889
 11
209.688
 21
12.9991
  0
LINE
  8
0
 10
209.688
 20
12.9991
 11
209.688
 21
12.5009
  0
LINE
  8
0
 10
209.688
 20
12.5009
 11
209.597
 21
12.0111
  0
LINE
  8
0
 10
209.597
 20
12.0111
 11
209.417
 21
11.5465
  0
LINE
  8
0
 10
209.417
 20
11.5465
 11
209.155
 21
11.1229
  0
LINE
  8
0
 10
209.155
 20
11.1229
 11
208.819
 21
10.7547
  0
LINE
  8
0
 10
208.819
 20
10.7547
 11
208.421
 21
10.4544
  0
LINE
  8
0
 10
208.421
 20
10.4544
 11
207.975
 21
10.2323
  0
LINE
  8
0
 10
207.975
 20
10.2323
 11
207.496
 21
10.096
  0
LINE
  8
0
 10
207.496
 20
10.096
 11
207
 21
10.05
  0
LINE
  8
0
 10
207
 20
10.05
 11
206.504
 21
10.096
  0
LINE
  8
0
 10
-137.45
 20
-3.2
 11
-137.45
 21
3.2
  0
LINE
  8
0
 10
-137.45
 20
3.2
 11
-122.55
 21
3.2
  0
LINE
  8
0
 10
-122.55
 20
3.2
 11
-122.55
 21
-3.2
  0
LINE
  8
0
 10
-122.55
 20
-3.2
 11
-137.45
 21
-3.2
  0
LINE
  8
0
 10
122.55
 20
-3.2
 11
122.55
 21
3.2
  0
LINE
  8
0
 10
122.55
 20
3.2
 11
137.45
 21
3.2
  0
LINE
  8
0
 10
137.45
 20
3.2
 11
137.45
 21
-3.2
  0
LINE
  8
0
 10
137.45
 20
-3.2
 11
122.55
 21
-3.2
  0
LINE
  8
0
 10
152.55
 20
-3.2
 11
152.55
 21
3.2
  0
LINE
  8
0
 10
152.55
 20
3.2
 11
167.45
 21
3.2
  0
LINE
  8
0
 10
167.45
 20
3.2
 11
167.45
 21
-3.2
  0
LINE
  8
0
 10
167.45
 20
-3.2
 11
152.55
 21
-3.2
  0
LINE
  8
0
 10
-167.45
 20
-3.2
 11
-167.45
 21
3.2
  0
LINE
  8
0
 10
-167.45
 20
3.2
 11
-152.55
 21
3.2
  0
LINE
  8
0
 10
-152.55
 20
3.2
 11
-152.55
 21
-3.2
  0
LINE
  8
0
 10
-152.55
 20
-3.2
 11
-167.45
 21
-3.2
  0
LINE
  8
0
 10
144.751
 20
-2.68848
 11
144.261
 21
-2.59692
  0
LINE
  8
0
 10
144.261
 20
-2.59692
 11
143.797
 21
-2.41693
  0
LINE
  8
0
 10
143.797
 20
-2.41693
 11
143.373
 21
-2.15463
  0
LINE
  8
0
 10
143.373
 20
-2.15463
 11
143.005
 21
-1.81897
  0
LINE
  8
0
 10
143.005
 20
-1.81897
 11
142.704
 21
-1.42136
  0
LINE
  8
0
 10
142.704
 20
-1.42136
 11
142.482
 21
-0.975342
  0
LINE
  8
0
 10
142.482
 20
-0.975342
 11
142.346
 21
-0.496109
  0
LINE
  8
0
 10
142.346
 20
-0.496109
 11
142.3
 21
0
  0
LINE
  8
0
 10
142.3
 20
0
 11
142.346
 21
0.496109
  0
LINE
  8
0
 10
142.346
 20
0.496109
 11
142.482
 21
0.975342
  0
LINE
  8
0
 10
142.482
 20
0.975342
 11
142.704
 21
1.42136
  0
LINE
  8
0
 10
142.704
 20
1.42136
 11
143.005
 21
1.81897
  0
LINE
  8
0
 10
143.005
 20
1.81897
 11
143.373
 21
2.15463
  0
LINE
  8
0
 10
143.373
 20
2.15463
 11
143.797
 21
2.41693
  0
LINE
  8
0
 10
143.797
 20
2.41693
 11
144.261
 21
2.59692
  0
LINE
  8
0
 10
144.261
 20
2.59692
 11
144.751
 21
2.68848
  0
LINE
  8
0
 10
144.751
 20
2.68848
 11
145.249
 21
2.68848
  0
LINE
  8
0
 10
145.249
 20
2.68848
 11
145.739
 21
2.59692
  0
LINE
  8
0
 10
145.739
 20
2.59692
 11
146.203
 21
2.41693
  0
LINE
  8
0
 10
146.203
 20
2.41693
 11
146.627
 21
2.15463
  0
LINE
  8
0
 10
146.627
 20
2.15463
 11
146.995
 21
1.81897
  0
LINE
  8
0
 10
146.995
 20
1.81897
 11
147.296
 21
1.42136
  0
LINE
  8
0
 10
147.296
 20
1.42136
 11
147.518
 21
0.975342
  0
LINE
  8
0
 10
147.518
 20
0.975342
 11
147.654
 21
0.496109
  0
LINE
  8
0
 10
147.654
 20
0.496109
 11
147.7
 21
0
  0
LINE
  8
0
 10
147.7
 20
0
 11
147.654
 21
-0.496109
  0
LINE
  8
0
 10
147.654
 20
-0.496109
 11
147.518
 21
-0.975342
  0
LINE
  8
0
 10
147.518
 20
-0.975342
 11
147.296
 21
-1.42136
  0
LINE
  8
0
 10
147.296
 20
-1.42136
 11
146.995
 21
-1.81897
  0
LINE
  8
0
 10
146.995
 20
-1.81897
 11
146.627
 21
-2.15463
  0
LINE
  8
0
 10
146.627
 20
-2.15463
 11
146.203
 21
-2.41693
  0
LINE
  8
0
 10
146.203
 20
-2.41693
 11
145.739
 21
-2.59692
  0
LINE
  8
0
 10
145.739
 20
-2.59692
 11
145.249
 21
-2.68848
  0
LINE
  8
0
 10
145.249
 20
-2.68848
 11
144.751
 21
-2.68848
  0
LINE
  8
0
 10
-145.249
 20
-2.68848
 11
-145.739
 21
-2.59692
  0
LINE
  8
0
 10
-145.739
 20
-2.59692
 11
-146.203
 21
-2.41693
  0
LINE
  8
0
 10
-146.203
 20
-2.41693
 11
-146.627
 21
-2.15463
  0
LINE
  8
0
 10
-146.627
 20
-2.15463
 11
-146.995
 21
-1.81897
  0
LINE
  8
0
 10
-146.995
 20
-1.81897
 11
-147.296
 21
-1.42136
  0
LINE
  8
0
 10
-147.296
 20
-1.42136
 11
-147.518
 21
-0.975342
  0
LINE
  8
0
 10
-147.518
 20
-0.975342
 11
-147.654
 21
-0.496109
  0
LINE
  8
0
 10
-147.654
 20
-0.496109
 11
-147.7
 21
0
  0
LINE
  8
0
 10
-147.7
 20
0
 11
-147.654
 21
0.496109
  0
LINE
  8
0
 10
-147.654
 20
0.496109
 11
-147.518
 21
0.975342
  0
LINE
  8
0
 10
-147.518
 20
0.975342
 11
-147.296
 21
1.42136
  0
LINE
  8
0
 10
-147.296
 20
1.42136
 11
-146.995
 21
1.81897
  0
LINE
  8
0
 10
-146.995
 20
1.81897
 11
-146.627
 21
2.15463
  0
LINE
  8
0
 10
-146.627
 20
2.15463
 11
-146.203
 21
2.41693
  0
LINE
  8
0
 10
-146.203
 20
2.41693
 11
-145.739
 21
2.59692
  0
LINE
  8
0
 10
-145.739
 20
2.59692
 11
-145.249
 21
2.68848
  0
LINE
  8
0
 10
-145.249
 20
2.68848
 11
-144.751
 21
2.68848
  0
LINE
  8
0
 10
-144.751
 20
2.68848
 11
-144.261
 21
2.59692
  0
LINE
  8
0
 10
-144.261
 20
2.59692
 11
-143.797
 21
2.41693
  0
LINE
  8
0
 10
-143.797
 20
2.41693
 11
-143.373
 21
2.15463
  0
LINE
  8
0
 10
-143.373
 20
2.15463
 11
-143.005
 21
1.81897
  0
LINE
  8
0
 10
-143.005
 20
1.81897
 11
-142.704
 21
1.42136
  0
LINE
  8
0
 10
-142.704
 20
1.42136
 11
-142.482
 21
0.975342
  0
LINE
  8
0
 10
-142.482
 20
0.975342
 11
-142.346
 21
0.496109
  0
LINE
  8
0
 10
-142.346
 20
0.496109
 11
-142.3
 21
0
  0
LINE
  8
0
 10
-142.3
 20
0
 11
-142.346
 21
-0.496109
  0
LINE
  8
0
 10
-142.346
 20
-0.496109
 11
-142.482
 21
-0.975342
  0
LINE
  8
0
 10
-142.482
 20
-0.975342
 11
-142.704
 21
-1.42136
  0
LINE
  8
0
 10
-142.704
 20
-1.42136
 11
-143.005
 21
-1.81897
  0
LINE
  8
0
 10
-143.005
 20
-1.81897
 11
-143.373
 21
-2.15463
  0
LINE
  8
0
 10
-143.373
 20
-2.15463
 11
-143.797
 21
-2.41693
  0
LINE
  8
0
 10
-143.797
 20
-2.41693
 11
-144.261
 21
-2.59692
  0
LINE
  8
0
 10
-144.261
 20
-2.59692
 11
-144.751
 21
-2.68848
  0
LINE
  8
0
 10
-144.751
 20
-2.68848
 11
-145.249
 21
-2.68848
  0
LINE
  8
0
 10
-251.45
 20
-17.7
 11
-251.45
 21
-2.79999
  0
LINE
  8
0
 10
-251.45
 20
-2.79999
 11
-245.05
 21
-2.79999
  0
LINE
  8
0
 10
-245.05
 20
-2.79999
 11
-245.05
 21
-17.7
  0
LINE
  8
0
 10
-245.05
 20
-17.7
 11
-251.45
 21
-17.7
  0
LINE
  8
0
 10
245.05
 20
-17.7
 11
245.05
 21
-2.79999
  0
LINE
  8
0
 10
245.05
 20
-2.79999
 11
251.45
 21
-2.79999
  0
LINE
  8
0
 10
251.45
 20
-2.79999
 11
251.45
 21
-17.7
  0
LINE
  8
0
 10
251.45
 20
-17.7
 11
245.05
 21
-17.7
  0
LINE
  8
0
 10
-235.496
 20
-12.404
 11
-235.975
 21
-12.2677
  0
LINE
  8
0
 10
-235.975
 20
-12.2677
 11
-236.421
 21
-12.0456
  0
LINE
  8
0
 10
-236.421
 20
-12.0456
 11
-236.819
 21
-11.7453
  0
LINE
  8
0
 10
-236.819
 20
-11.7453
 11
-237.155
 21
-11.3771
  0
LINE
  8
0
 10
-237.155
 20
-11.3771
 11
-237.417
 21
-10.9535
  0
LINE
  8
0
 10
-237.417
 20
-10.9535
 11
-237.597
 21
-10.4889
  0
LINE
  8
0
 10
-237.597
 20
-10.4889
 11
-237.688
 21
-9.99911
  0
LINE
  8
0
 10
-237.688
 20
-9.99911
 11
-237.688
 21
-9.50087
  0
LINE
  8
0
 10
-237.688
 20
-9.50087
 11
-237.597
 21
-9.01111
  0
LINE
  8
0
 10
-237.597
 20
-9.01111
 11
-237.417
 21
-8.54649
  0
LINE
  8
0
 10
-237.417
 20
-8.54649
 11
-237.155
 21
-8.12288
  0
LINE
  8
0
 10
-237.155
 20
-8.12288
 11
-236.819
 21
-7.75467
  0
LINE
  8
0
 10
-236.819
 20
-7.75467
 11
-236.421
 21
-7.45441
  0
LINE
  8
0
 10
-236.421
 20
-7.45441
 11
-235.975
 21
-7.23232
  0
LINE
  8
0
 10
-235.975
 20
-7.23232
 11
-235.496
 21
-7.09596
  0
LINE
  8
0
 10
-235.496
 20
-7.09596
 11
-235
 21
-7.04999
  0
LINE
  8
0
 10
-235
 20
-7.04999
 11
-234.504
 21
-7.09596
  0
LINE
  8
0
 10
-234.504
 20
-7.09596
 11
-234.025
 21
-7.23232
  0
LINE
  8
0
 10
-234.025
 20
-7.23232
 11
-233.579
 21
-7.45441
  0
LINE
  8
0
 10
-233.579
 20
-7.45441
 11
-233.181
 21
-7.75467
  0
LINE
  8
0
 10
-233.181
 20
-7.75467
 11
-232.845
 21
-8.12288
  0
LINE
  8
0
 10
-232.845
 20
-8.12288
 11
-232.583
 21
-8.54649
  0
LINE
  8
0
 10
-232.583
 20
-8.54649
 11
-232.403
 21
-9.01111
  0
LINE
  8
0
 10
-232.403
 20
-9.01111
 11
-232.312
 21
-9.50087
  0
LINE
  8
0
 10
-232.312
 20
-9.50087
 11
-232.312
 21
-9.99911
  0
LINE
  8
0
 10
-232.312
 20
-9.99911
 11
-232.403
 21
-10.4889
  0
LINE
  8
0
 10
-232.403
 20
-10.4889
 11
-232.583
 21
-10.9535
  0
LINE
  8
0
 10
-232.583
 20
-10.9535
 11
-232.845
 21
-11.3771
  0
LINE
  8
0
 10
-232.845
 20
-11.3771
 11
-233.181
 21
-11.7453
  0
LINE
  8
0
 10
-233.181
 20
-11.7453
 11
-233.579
 21
-12.0456
  0
LINE
  8
0
 10
-233.579
 20
-12.0456
 11
-234.025
 21
-12.2677
  0
LINE
  8
0
 10
-234.025
 20
-12.2677
 11
-234.504
 21
-12.404
  0
LINE
  8
0
 10
-234.504
 20
-12.404
 11
-235
 21
-12.45
  0
LINE
  8
0
 10
-235
 20
-12.45
 11
-235.496
 21
-12.404
  0
LINE
  8
0
 10
234.504
 20
-12.404
 11
234.025
 21
-12.2677
  0
LINE
  8
0
 10
234.025
 20
-12.2677
 11
233.579
 21
-12.0456
  0
LINE
  8
0
 10
233.579
 20
-12.0456
 11
233.181
 21
-11.7453
  0
LINE
  8
0
 10
233.181
 20
-11.7453
 11
232.845
 21
-11.3771
  0
LINE
  8
0
 10
232.845
 20
-11.3771
 11
232.583
 21
-10.9535
  0
LINE
  8
0
 10
232.583
 20
-10.9535
 11
232.403
 21
-10.4889
  0
LINE
  8
0
 10
232.403
 20
-10.4889
 11
232.312
 21
-9.99911
  0
LINE
  8
0
 10
232.312
 20
-9.99911
 11
232.312
 21
-9.50087
  0
LINE
  8
0
 10
232.312
 20
-9.50087
 11
232.403
 21
-9.01111
  0
LINE
  8
0
 10
232.403
 20
-9.01111
 11
232.583
 21
-8.54649
  0
LINE
  8
0
 10
232.583
 20
-8.54649
 11
232.845
 21
-8.12288
  0
LINE
  8
0
 10
232.845
 20
-8.12288
 11
233.181
 21
-7.75467
  0
LINE
  8
0
 10
233.181
 20
-7.75467
 11
233.579
 21
-7.45441
  0
LINE
  8
0
 10
233.579
 20
-7.45441
 11
234.025
 21
-7.23232
  0
LINE
  8
0
 10
234.025
 20
-7.23232
 11
234.504
 21
-7.09596
  0
LINE
  8
0
 10
234.504
 20
-7.09596
 11
235
 21
-7.04999
  0
LINE
  8
0
 10
235
 20
-7.04999
 11
235.496
 21
-7.09596
  0
LINE
  8
0
 10
235.496
 20
-7.09596
 11
235.975
 21
-7.23232
  0
LINE
  8
0
 10
235.975
 20
-7.23232
 11
236.421
 21
-7.45441
  0
LINE
  8
0
 10
236.421
 20
-7.45441
 11
236.819
 21
-7.75467
  0
LINE
  8
0
 10
236.819
 20
-7.75467
 11
237.155
 21
-8.12288
  0
LINE
  8
0
 10
237.155
 20
-8.12288
 11
237.417
 21
-8.54649
  0
LINE
  8
0
 10
237.417
 20
-8.54649
 11
237.597
 21
-9.01111
  0
LINE
  8
0
 10
237.597
 20
-9.01111
 11
237.688
 21
-9.50087
  0
LINE
  8
0
 10
237.688
 20
-9.50087
 11
237.688
 21
-9.99911
  0
LINE
  8
0
 10
237.688
 20
-9.99911
 11
237.597
 21
-10.4889
  0
LINE
  8
0
 10
237.597
 20
-10.4889
 11
237.417
 21
-10.9535
  0
LINE
  8
0
 10
237.417
 20
-10.9535
 11
237.155
 21
-11.3771
  0
LINE
  8
0
 10
237.155
 20
-11.3771
 11
236.819
 21
-11.7453
  0
LINE
  8
0
 10
236.819
 20
-11.7453
 11
236.421
 21
-12.0456
  0
LINE
  8
0
 10
236.421
 20
-12.0456
 11
235.975
 21
-12.2677
  0
LINE
  8
0
 10
235.975
 20
-12.2677
 11
235.496
 21
-12.404
  0
LINE
  8
0
 10
235.496
 20
-12.404
 11
235
 21
-12.45
  0
LINE
  8
0
 10
235
 20
-12.45
 11
234.504
 21
-12.404
  0
LINE
  8
0
 10
-248.746
 20
-27.904
 11
-249.225
 21
-27.7677
  0
LINE
  8
0
 10
-249.225
 20
-27.7677
 11
-249.671
 21
-27.5456
  0
LINE
  8
0
 10
-249.671
 20
-27.5456
 11
-250.069
 21
-27.2453
  0
LINE
  8
0
 10
-250.069
 20
-27.2453
 11
-250.405
 21
-26.8771
  0
LINE
  8
0
 10
-250.405
 20
-26.8771
 11
-250.667
 21
-26.4535
  0
LINE
  8
0
 10
-250.667
 20
-26.4535
 11
-250.847
 21
-25.9889
  0
LINE
  8
0
 10
-250.847
 20
-25.9889
 11
-250.938
 21
-25.4991
  0
LINE
  8
0
 10
-250.938
 20
-25.4991
 11
-250.938
 21
-25.0009
  0
LINE
  8
0
 10
-250.938
 20
-25.0009
 11
-250.847
 21
-24.5111
  0
LINE
  8
0
 10
-250.847
 20
-24.5111
 11
-250.667
 21
-24.0465
  0
LINE
  8
0
 10
-250.667
 20
-24.0465
 11
-250.405
 21
-23.6229
  0
LINE
  8
0
 10
-250.405
 20
-23.6229
 11
-250.069
 21
-23.2547
  0
LINE
  8
0
 10
-250.069
 20
-23.2547
 11
-249.671
 21
-22.9544
  0
LINE
  8
0
 10
-249.671
 20
-22.9544
 11
-249.225
 21
-22.7323
  0
LINE
  8
0
 10
-249.225
 20
-22.7323
 11
-248.746
 21
-22.596
  0
LINE
  8
0
 10
-248.746
 20
-22.596
 11
-248.25
 21
-22.55
  0
LINE
  8
0
 10
-248.25
 20
-22.55
 11
-247.754
 21
-22.596
  0
LINE
  8
0
 10
-247.754
 20
-22.596
 11
-247.275
 21
-22.7323
  0
LINE
  8
0
 10
-247.275
 20
-22.7323
 11
-246.829
 21
-22.9544
  0
LINE
  8
0
 10
-246.829
 20
-22.9544
 11
-246.431
 21
-23.2547
  0
LINE
  8
0
 10
-246.431
 20
-23.2547
 11
-246.095
 21
-23.6229
  0
LINE
  8
0
 10
-246.095
 20
-23.6229
 11
-245.833
 21
-24.0465
  0
LINE
  8
0
 10
-245.833
 20
-24.0465
 11
-245.653
 21
-24.5111
  0
LINE
  8
0
 10
-245.653
 20
-24.5111
 11
-245.562
 21
-25.0009
  0
LINE
  8
0
 10
-245.562
 20
-25.0009
 11
-245.562
 21
-25.4991
  0
LINE
  8
0
 10
-245.562
 20
-25.4991
 11
-245.653
 21
-25.9889
  0
LINE
  8
0
 10
-245.653
 20
-25.9889
 11
-245.833
 21
-26.4535
  0
LINE
  8
0
 10
-245.833
 20
-26.4535
 11
-246.095
 21
-26.8771
  0
LINE
  8
0
 10
-246.095
 20
-26.8771
 11
-246.431
 21
-27.2453
  0
LINE
  8
0
 10
-246.431
 20
-27.2453
 11
-246.829
 21
-27.5456
  0
LINE
  8
0
 10
-246.829
 20
-27.5456
 11
-247.275
 21
-27.7677
  0
LINE
  8
0
 10
-247.275
 20
-27.7677
 11
-247.754
 21
-27.904
  0
LINE
  8
0
 10
-247.754
 20
-27.904
 11
-248.25
 21
-27.95
  0
LINE
  8
0
 10
-248.25
 20
-27.95
 11
-248.746
 21
-27.904
  0
LINE
  8
0
 10
247.754
 20
-27.904
 11
247.275
 21
-27.7677
  0
LINE
  8
0
 10
247.275
 20
-27.7677
 11
246.829
 21
-27.5456
  0
LINE
  8
0
 10
246.829
 20
-27.5456
 11
246.431
 21
-27.2453
  0
LINE
  8
0
 10
246.431
 20
-27.2453
 11
246.095
 21
-26.8771
  0
LINE
  8
0
 10
246.095
 20
-26.8771
 11
245.833
 21
-26.4535
  0
LINE
  8
0
 10
245.833
 20
-26.4535
 11
245.653
 21
-25.9889
  0
LINE
  8
0
 10
245.653
 20
-25.9889
 11
245.562
 21
-25.4991
  0
LINE
  8
0
 10
245.562
 20
-25.4991
 11
245.562
 21
-25.0009
  0
LINE
  8
0
 10
245.562
 20
-25.0009
 11
245.653
 21
-24.5111
  0
LINE
  8
0
 10
245.653
 20
-24.5111
 11
245.833
 21
-24.0465
  0
LINE
  8
0
 10
245.833
 20
-24.0465
 11
246.095
 21
-23.6229
  0
LINE
  8
0
 10
246.095
 20
-23.6229
 11
246.431
 21
-23.2547
  0
LINE
  8
0
 10
246.431
 20
-23.2547
 11
246.829
 21
-22.9544
  0
LINE
  8
0
 10
246.829
 20
-22.9544
 11
247.275
 21
-22.7323
  0
LINE
  8
0
 10
247.275
 20
-22.7323
 11
247.754
 21
-22.596
  0
LINE
  8
0
 10
247.754
 20
-22.596
 11
248.25
 21
-22.55
  0
LINE
  8
0
 10
248.25
 20
-22.55
 11
248.746
 21
-22.596
  0
LINE
  8
0
 10
248.746
 20
-22.596
 11
249.225
 21
-22.7323
  0
LINE
  8
0
 10
249.225
 20
-22.7323
 11
249.671
 21
-22.9544
  0
LINE
  8
0
 10
249.671
 20
-22.9544
 11
250.069
 21
-23.2547
  0
LINE
  8
0
 10
250.069
 20
-23.2547
 11
250.405
 21
-23.6229
  0
LINE
  8
0
 10
250.405
 20
-23.6229
 11
250.667
 21
-24.0465
  0
LINE
  8
0
 10
250.667
 20
-24.0465
 11
250.847
 21
-24.5111
  0
LINE
  8
0
 10
250.847
 20
-24.5111
 11
250.938
 21
-25.0009
  0
LINE
  8
0
 10
250.938
 20
-25.0009
 11
250.938
 21
-25.4991
  0
LINE
  8
0
 10
250.938
 20
-25.4991
 11
250.847
 21
-25.9889
  0
LINE
  8
0
 10
250.847
 20
-25.9889
 11
250.667
 21
-26.4535
  0
LINE
  8
0
 10
250.667
 20
-26.4535
 11
250.405
 21
-26.8771
  0
LINE
  8
0
 10
250.405
 20
-26.8771
 11
250.069
 21
-27.2453
  0
LINE
  8
0
 10
250.069
 20
-27.2453
 11
249.671
 21
-27.5456
  0
LINE
  8
0
 10
249.671
 20
-27.5456
 11
249.225
 21
-27.7677
  0
LINE
  8
0
 10
249.225
 20
-27.7677
 11
248.746
 21
-27.904
  0
LINE
  8
0
 10
248.746
 20
-27.904
 11
248.25
 21
-27.95
  0
LINE
  8
0
 10
248.25
 20
-27.95
 11
247.754
 21
-27.904
  0
LINE
  8
0
 10
-167.45
 20
-34.7
 11
-167.45
 21
-28.3
  0
LINE
  8
0
 10
-167.45
 20
-28.3
 11
-152.55
 21
-28.3
  0
LINE
  8
0
 10
-152.55
 20
-28.3
 11
-152.55
 21
-34.7
  0
LINE
  8
0
 10
-152.55
 20
-34.7
 11
-167.45
 21
-34.7
  0
LINE
  8
0
 10
-137.45
 20
-34.7
 11
-137.45
 21
-28.3
  0
LINE
  8
0
 10
-137.45
 20
-28.3
 11
-122.55
 21
-28.3
  0
LINE
  8
0
 10
-122.55
 20
-28.3
 11
-122.55
 21
-34.7
  0
LINE
  8
0
 10
-122.55
 20
-34.7
 11
-137.45
 21
-34.7
  0
LINE
  8
0
 10
7.54999
 20
-34.7
 11
7.54999
 21
-28.3
  0
LINE
  8
0
 10
7.54999
 20
-28.3
 11
22.45
 21
-28.3
  0
LINE
  8
0
 10
22.45
 20
-28.3
 11
22.45
 21
-34.7
  0
LINE
  8
0
 10
22.45
 20
-34.7
 11
7.54999
 21
-34.7
  0
LINE
  8
0
 10
152.55
 20
-34.7
 11
152.55
 21
-28.3
  0
LINE
  8
0
 10
152.55
 20
-28.3
 11
167.45
 21
-28.3
  0
LINE
  8
0
 10
167.45
 20
-28.3
 11
167.45
 21
-34.7
  0
LINE
  8
0
 10
167.45
 20
-34.7
 11
152.55
 21
-34.7
  0
LINE
  8
0
 10
-22.45
 20
-34.7
 11
-22.45
 21
-28.3
  0
LINE
  8
0
 10
-22.45
 20
-28.3
 11
-7.54999
 21
-28.3
  0
LINE
  8
0
 10
-7.54999
 20
-28.3
 11
-7.54999
 21
-34.7
  0
LINE
  8
0
 10
-7.54999
 20
-34.7
 11
-22.45
 21
-34.7
  0
LINE
  8
0
 10
122.55
 20
-34.7
 11
122.55
 21
-28.3
  0
LINE
  8
0
 10
122.55
 20
-28.3
 11
137.45
 21
-28.3
  0
LINE
  8
0
 10
137.45
 20
-28.3
 11
137.45
 21
-34.7
  0
LINE
  8
0
 10
137.45
 20
-34.7
 11
122.55
 21
-34.7
  0
LINE
  8
0
 10
-0.249115
 20
-34.1885
 11
-0.738876
 21
-34.0969
  0
LINE
  8
0
 10
-0.738876
 20
-34.0969
 11
-1.20349
 21
-33.9169
  0
LINE
  8
0
 10
-1.20349
 20
-33.9169
 11
-1.62711
 21
-33.6546
  0
LINE
  8
0
 10
-1.62711
 20
-33.6546
 11
-1.99532
 21
-33.319
  0
LINE
  8
0
 10
-1.99532
 20
-33.319
 11
-2.29558
 21
-32.9214
  0
LINE
  8
0
 10
-2.29558
 20
-32.9214
 11
-2.51767
 21
-32.4753
  0
LINE
  8
0
 10
-2.51767
 20
-32.4753
 11
-2.65402
 21
-31.9961
  0
LINE
  8
0
 10
-2.65402
 20
-31.9961
 11
-2.7
 21
-31.5
  0
LINE
  8
0
 10
-2.7
 20
-31.5
 11
-2.65402
 21
-31.0039
  0
LINE
  8
0
 10
-2.65402
 20
-31.0039
 11
-2.51767
 21
-30.5246
  0
LINE
  8
0
 10
-2.51767
 20
-30.5246
 11
-2.29558
 21
-30.0786
  0
LINE
  8
0
 10
-2.29558
 20
-30.0786
 11
-1.99532
 21
-29.681
  0
LINE
  8
0
 10
-1.99532
 20
-29.681
 11
-1.62711
 21
-29.3454
  0
LINE
  8
0
 10
-1.62711
 20
-29.3454
 11
-1.20349
 21
-29.0831
  0
LINE
  8
0
 10
-1.20349
 20
-29.0831
 11
-0.738876
 21
-28.9031
  0
LINE
  8
0
 10
-0.738876
 20
-28.9031
 11
-0.249115
 21
-28.8115
  0
LINE
  8
0
 10
-0.249115
 20
-28.8115
 11
0.249115
 21
-28.8115
  0
LINE
  8
0
 10
0.249115
 20
-28.8115
 11
0.738876
 21
-28.9031
  0
LINE
  8
0
 10
0.738876
 20
-28.9031
 11
1.20349
 21
-29.0831
  0
LINE
  8
0
 10
1.20349
 20
-29.0831
 11
1.62711
 21
-29.3454
  0
LINE
  8
0
 10
1.62711
 20
-29.3454
 11
1.99532
 21
-29.681
  0
LINE
  8
0
 10
1.99532
 20
-29.681
 11
2.29558
 21
-30.0786
  0
LINE
  8
0
 10
2.29558
 20
-30.0786
 11
2.51767
 21
-30.5246
  0
LINE
  8
0
 10
2.51767
 20
-30.5246
 11
2.65402
 21
-31.0039
  0
LINE
  8
0
 10
2.65402
 20
-31.0039
 11
2.7
 21
-31.5
  0
LINE
  8
0
 10
2.7
 20
-31.5
 11
2.65402
 21
-31.9961
  0
LINE
  8
0
 10
2.65402
 20
-31.9961
 11
2.51767
 21
-32.4753
  0
LINE
  8
0
 10
2.51767
 20
-32.4753
 11
2.29558
 21
-32.9214
  0
LINE
  8
0
 10
2.29558
 20
-32.9214
 11
1.99532
 21
-33.319
  0
LINE
  8
0
 10
1.99532
 20
-33.319
 11
1.62711
 21
-33.6546
  0
LINE
  8
0
 10
1.62711
 20
-33.6546
 11
1.20349
 21
-33.9169
  0
LINE
  8
0
 10
1.20349
 20
-33.9169
 11
0.738876
 21
-34.0969
  0
LINE
  8
0
 10
0.738876
 20
-34.0969
 11
0.249115
 21
-34.1885
  0
LINE
  8
0
 10
0.249115
 20
-34.1885
 11
-0.249115
 21
-34.1885
  0
LINE
  8
0
 10
-145.249
 20
-34.1885
 11
-145.739
 21
-34.0969
  0
LINE
  8
0
 10
-145.739
 20
-34.0969
 11
-146.203
 21
-33.9169
  0
LINE
  8
0
 10
-146.203
 20
-33.9169
 11
-146.627
 21
-33.6546
  0
LINE
  8
0
 10
-146.627
 20
-33.6546
 11
-146.995
 21
-33.319
  0
LINE
  8
0
 10
-146.995
 20
-33.319
 11
-147.296
 21
-32.9214
  0
LINE
  8
0
 10
-147.296
 20
-32.9214
 11
-147.518
 21
-32.4753
  0
LINE
  8
0
 10
-147.518
 20
-32.4753
 11
-147.654
 21
-31.9961
  0
LINE
  8
0
 10
-147.654
 20
-31.9961
 11
-147.7
 21
-31.5
  0
LINE
  8
0
 10
-147.7
 20
-31.5
 11
-147.654
 21
-31.0039
  0
LINE
  8
0
 10
-147.654
 20
-31.0039
 11
-147.518
 21
-30.5246
  0
LINE
  8
0
 10
-147.518
 20
-30.5246
 11
-147.296
 21
-30.0786
  0
LINE
  8
0
 10
-147.296
 20
-30.0786
 11
-146.995
 21
-29.681
  0
LINE
  8
0
 10
-146.995
 20
-29.681
 11
-146.627
 21
-29.3454
  0
LINE
  8
0
 10
-146.627
 20
-29.3454
 11
-146.203
 21
-29.0831
  0
LINE
  8
0
 10
-146.203
 20
-29.0831
 11
-145.739
 21
-28.9031
  0
LINE
  8
0
 10
-145.739
 20
-28.9031
 11
-145.249
 21
-28.8115
  0
LINE
  8
0
 10
-145.249
 20
-28.8115
 11
-144.751
 21
-28.8115
  0
LINE
  8
0
 10
-144.751
 20
-28.8115
 11
-144.261
 21
-28.9031
  0
LINE
  8
0
 10
-144.261
 20
-28.9031
 11
-143.797
 21
-29.0831
  0
LINE
  8
0
 10
-143.797
 20
-29.0831
 11
-143.373
 21
-29.3454
  0
LINE
  8
0
 10
-143.373
 20
-29.3454
 11
-143.005
 21
-29.681
  0
LINE
  8
0
 10
-143.005
 20
-29.681
 11
-142.704
 21
-30.0786
  0
LINE
  8
0
 10
-142.704
 20
-30.0786
 11
-142.482
 21
-30.5246
  0
LINE
  8
0
 10
-142.482
 20
-30.5246
 11
-142.346
 21
-31.0039
  0
LINE
  8
0
 10
-142.346
 20
-31.0039
 11
-142.3
 21
-31.5
  0
LINE
  8
0
 10
-142.3
 20
-31.5
 11
-142.346
 21
-31.9961
  0
LINE
  8
0
 10
-142.346
 20
-31.9961
 11
-142.482
 21
-32.4753
  0
LINE
  8
0
 10
-142.482
 20
-32.4753
 11
-142.704
 21
-32.9214
  0
LINE
  8
0
 10
-142.704
 20
-32.9214
 11
-143.005
 21
-33.319
  0
LINE
  8
0
 10
-143.005
 20
-33.319
 11
-143.373
 21
-33.6546
  0
LINE
  8
0
 10
-143.373
 20
-33.6546
 11
-143.797
 21
-33.9169
  0
LINE
  8
0
 10
-143.797
 20
-33.9169
 11
-144.261
 21
-34.0969
  0
LINE
  8
0
 10
-144.261
 20
-34.0969
 11
-144.751
 21
-34.1885
  0
LINE
  8
0
 10
-144.751
 20
-34.1885
 11
-145.249
 21
-34.1885
  0
LINE
  8
0
 10
144.751
 20
-34.1885
 11
144.261
 21
-34.0969
  0
LINE
  8
0
 10
144.261
 20
-34.0969
 11
143.797
 21
-33.9169
  0
LINE
  8
0
 10
143.797
 20
-33.9169
 11
143.373
 21
-33.6546
  0
LINE
  8
0
 10
143.373
 20
-33.6546
 11
143.005
 21
-33.319
  0
LINE
  8
0
 10
143.005
 20
-33.319
 11
142.704
 21
-32.9214
  0
LINE
  8
0
 10
142.704
 20
-32.9214
 11
142.482
 21
-32.4753
  0
LINE
  8
0
 10
142.482
 20
-32.4753
 11
142.346
 21
-31.9961
  0
LINE
  8
0
 10
142.346
 20
-31.9961
 11
142.3
 21
-31.5
  0
LINE
  8
0
 10
142.3
 20
-31.5
 11
142.346
 21
-31.0039
  0
LINE
  8
0
 10
142.346
 20
-31.0039
 11
142.482
 21
-30.5246
  0
LINE
  8
0
 10
142.482
 20
-30.5246
 11
142.704
 21
-30.0786
  0
LINE
  8
0
 10
142.704
 20
-30.0786
 11
143.005
 21
-29.681
  0
LINE
  8
0
 10
143.005
 20
-29.681
 11
143.373
 21
-29.3454
  0
LINE
  8
0
 10
143.373
 20
-29.3454
 11
143.797
 21
-29.0831
  0
LINE
  8
0
 10
143.797
 20
-29.0831
 11
144.261
 21
-28.9031
  0
LINE
  8
0
 10
144.261
 20
-28.9031
 11
144.751
 21
-28.8115
  0
LINE
  8
0
 10
144.751
 20
-28.8115
 11
145.249
 21
-28.8115
  0
LINE
  8
0
 10
145.249
 20
-28.8115
 11
145.739
 21
-28.9031
  0
LINE
  8
0
 10
145.739
 20
-28.9031
 11
146.203
 21
-29.0831
  0
LINE
  8
0
 10
146.203
 20
-29.0831
 11
146.627
 21
-29.3454
  0
LINE
  8
0
 10
146.627
 20
-29.3454
 11
146.995
 21
-29.681
  0
LINE
  8
0
 10
146.995
 20
-29.681
 11
147.296
 21
-30.0786
  0
LINE
  8
0
 10
147.296
 20
-30.0786
 11
147.518
 21
-30.5246
  0
LINE
  8
0
 10
147.518
 20
-30.5246
 11
147.654
 21
-31.0039
  0
LINE
  8
0
 10
147.654
 20
-31.0039
 11
147.7
 21
-31.5
  0
LINE
  8
0
 10
147.7
 20
-31.5
 11
147.654
 21
-31.9961
  0
LINE
  8
0
 10
147.654
 20
-31.9961
 11
147.518
 21
-32.4753
  0
LINE
  8
0
 10
147.518
 20
-32.4753
 11
147.296
 21
-32.9214
  0
LINE
  8
0
 10
147.296
 20
-32.9214
 11
146.995
 21
-33.319
  0
LINE
  8
0
 10
146.995
 20
-33.319
 11
146.627
 21
-33.6546
  0
LINE
  8
0
 10
146.627
 20
-33.6546
 11
146.203
 21
-33.9169
  0
LINE
  8
0
 10
146.203
 20
-33.9169
 11
145.739
 21
-34.0969
  0
LINE
  8
0
 10
145.739
 20
-34.0969
 11
145.249
 21
-34.1885
  0
LINE
  8
0
 10
145.249
 20
-34.1885
 11
144.751
 21
-34.1885
  0
LINE
  8
0
 10
-251.45
 20
-47.7
 11
-251.45
 21
-32.8
  0
LINE
  8
0
 10
-251.45
 20
-32.8
 11
-245.05
 21
-32.8
  0
LINE
  8
0
 10
-245.05
 20
-32.8
 11
-245.05
 21
-47.7
  0
LINE
  8
0
 10
-245.05
 20
-47.7
 11
-251.45
 21
-47.7
  0
LINE
  8
0
 10
245.05
 20
-47.7
 11
245.05
 21
-32.8
  0
LINE
  8
0
 10
245.05
 20
-32.8
 11
251.45
 21
-32.8
  0
LINE
  8
0
 10
251.45
 20
-32.8
 11
251.45
 21
-47.7
  0
LINE
  8
0
 10
251.45
 20
-47.7
 11
245.05
 21
-47.7
  0
LINE
  8
0
 10
149.639
 20
-42.905
 11
149.185
 21
-42.7359
  0
LINE
  8
0
 10
149.185
 20
-42.7359
 11
148.798
 21
-42.446
  0
LINE
  8
0
 10
148.798
 20
-42.446
 11
148.508
 21
-42.0586
  0
LINE
  8
0
 10
148.508
 20
-42.0586
 11
148.339
 21
-41.6053
  0
LINE
  8
0
 10
148.339
 20
-41.6053
 11
148.304
 21
-41.1226
  0
LINE
  8
0
 10
148.304
 20
-41.1226
 11
148.304
 21
-38.2942
  0
LINE
  8
0
 10
148.304
 20
-38.2942
 11
148.407
 21
-37.8214
  0
LINE
  8
0
 10
148.407
 20
-37.8214
 11
148.639
 21
-37.3967
  0
LINE
  8
0
 10
148.639
 20
-37.3967
 11
148.981
 21
-37.0546
  0
LINE
  8
0
 10
148.981
 20
-37.0546
 11
149.406
 21
-36.8227
  0
LINE
  8
0
 10
149.406
 20
-36.8227
 11
149.879
 21
-36.7198
  0
LINE
  8
0
 10
149.879
 20
-36.7198
 11
150.361
 21
-36.7543
  0
LINE
  8
0
 10
150.361
 20
-36.7543
 11
150.815
 21
-36.9234
  0
LINE
  8
0
 10
150.815
 20
-36.9234
 11
151.202
 21
-37.2134
  0
LINE
  8
0
 10
151.202
 20
-37.2134
 11
151.492
 21
-37.6008
  0
LINE
  8
0
 10
151.492
 20
-37.6008
 11
151.661
 21
-38.0541
  0
LINE
  8
0
 10
151.661
 20
-38.0541
 11
151.696
 21
-38.5367
  0
LINE
  8
0
 10
151.696
 20
-38.5367
 11
151.696
 21
-41.3652
  0
LINE
  8
0
 10
151.696
 20
-41.3652
 11
151.593
 21
-41.838
  0
LINE
  8
0
 10
151.593
 20
-41.838
 11
151.361
 21
-42.2627
  0
LINE
  8
0
 10
151.361
 20
-42.2627
 11
151.019
 21
-42.6048
  0
LINE
  8
0
 10
151.019
 20
-42.6048
 11
150.594
 21
-42.8367
  0
LINE
  8
0
 10
150.594
 20
-42.8367
 11
150.121
 21
-42.9396
  0
LINE
  8
0
 10
150.121
 20
-42.9396
 11
149.639
 21
-42.905
  0
LINE
  8
0
 10
-150.361
 20
-42.905
 11
-150.815
 21
-42.7359
  0
LINE
  8
0
 10
-150.815
 20
-42.7359
 11
-151.202
 21
-42.446
  0
LINE
  8
0
 10
-151.202
 20
-42.446
 11
-151.492
 21
-42.0586
  0
LINE
  8
0
 10
-151.492
 20
-42.0586
 11
-151.661
 21
-41.6053
  0
LINE
  8
0
 10
-151.661
 20
-41.6053
 11
-151.696
 21
-41.1226
  0
LINE
  8
0
 10
-151.696
 20
-41.1226
 11
-151.696
 21
-38.2942
  0
LINE
  8
0
 10
-151.696
 20
-38.2942
 11
-151.593
 21
-37.8214
  0
LINE
  8
0
 10
-151.593
 20
-37.8214
 11
-151.361
 21
-37.3967
  0
LINE
  8
0
 10
-151.361
 20
-37.3967
 11
-151.019
 21
-37.0546
  0
LINE
  8
0
 10
-151.019
 20
-37.0546
 11
-150.594
 21
-36.8227
  0
LINE
  8
0
 10
-150.594
 20
-36.8227
 11
-150.121
 21
-36.7198
  0
LINE
  8
0
 10
-150.121
 20
-36.7198
 11
-149.639
 21
-36.7543
  0
LINE
  8
0
 10
-149.639
 20
-36.7543
 11
-149.185
 21
-36.9234
  0
LINE
  8
0
 10
-149.185
 20
-36.9234
 11
-148.798
 21
-37.2134
  0
LINE
  8
0
 10
-148.798
 20
-37.2134
 11
-148.508
 21
-37.6008
  0
LINE
  8
0
 10
-148.508
 20
-37.6008
 11
-148.339
 21
-38.0541
  0
LINE
  8
0
 10
-148.339
 20
-38.0541
 11
-148.304
 21
-38.5367
  0
LINE
  8
0
 10
-148.304
 20
-38.5367
 11
-148.304
 21
-41.3652
  0
LINE
  8
0
 10
-148.304
 20
-41.3652
 11
-148.407
 21
-41.838
  0
LINE
  8
0
 10
-148.407
 20
-41.838
 11
-148.639
 21
-42.2627
  0
LINE
  8
0
 10
-148.639
 20
-42.2627
 11
-148.981
 21
-42.6048
  0
LINE
  8
0
 10
-148.981
 20
-42.6048
 11
-149.406
 21
-42.8367
  0
LINE
  8
0
 10
-149.406
 20
-42.8367
 11
-149.879
 21
-42.9396
  0
LINE
  8
0
 10
-149.879
 20
-42.9396
 11
-150.361
 21
-42.905
  0
LINE
  8
0
 10
-0.361359
 20
-42.905
 11
-0.814713
 21
-42.7359
  0
LINE
  8
0
 10
-0.814713
 20
-42.7359
 11
-1.20207
 21
-42.446
  0
LINE
  8
0
 10
-1.20207
 20
-42.446
 11
-1.49205
 21
-42.0586
  0
LINE
  8
0
 10
-1.49205
 20
-42.0586
 11
-1.66115
 21
-41.6053
  0
LINE
  8
0
 10
-1.66115
 20
-41.6053
 11
-1.69566
 21
-41.1226
  0
LINE
  8
0
 10
-1.69566
 20
-41.1226
 11
-1.69566
 21
-38.2942
  0
LINE
  8
0
 10
-1.69566
 20
-38.2942
 11
-1.5928
 21
-37.8214
  0
LINE
  8
0
 10
-1.5928
 20
-37.8214
 11
-1.36092
 21
-37.3967
  0
LINE
  8
0
 10
-1.36092
 20
-37.3967
 11
-1.01877
 21
-37.0546
  0
LINE
  8
0
 10
-1.01877
 20
-37.0546
 11
-0.594086
 21
-36.8227
  0
LINE
  8
0
 10
-0.594086
 20
-36.8227
 11
-0.121262
 21
-36.7198
  0
LINE
  8
0
 10
-0.121262
 20
-36.7198
 11
0.361359
 21
-36.7543
  0
LINE
  8
0
 10
0.361359
 20
-36.7543
 11
0.814713
 21
-36.9234
  0
LINE
  8
0
 10
0.814713
 20
-36.9234
 11
1.20207
 21
-37.2134
  0
LINE
  8
0
 10
1.20207
 20
-37.2134
 11
1.49205
 21
-37.6008
  0
LINE
  8
0
 10
1.49205
 20
-37.6008
 11
1.66115
 21
-38.0541
  0
LINE
  8
0
 10
1.66115
 20
-38.0541
 11
1.69566
 21
-38.5367
  0
LINE
  8
0
 10
1.69566
 20
-38.5367
 11
1.69566
 21
-41.3652
  0
LINE
  8
0
 10
1.69566
 20
-41.3652
 11
1.5928
 21
-41.838
  0
LINE
  8
0
 10
1.5928
 20
-41.838
 11
1.36092
 21
-42.2627
  0
LINE
  8
0
 10
1.36092
 20
-42.2627
 11
1.01877
 21
-42.6048
  0
LINE
  8
0
 10
1.01877
 20
-42.6048
 11
0.594086
 21
-42.8367
  0
LINE
  8
0
 10
0.594086
 20
-42.8367
 11
0.121262
 21
-42.9396
  0
LINE
  8
0
 10
0.121262
 20
-42.9396
 11
-0.361359
 21
-42.905
  0
LINE
  8
0
 10
-235.496
 20
-49.904
 11
-235.975
 21
-49.7677
  0
LINE
  8
0
 10
-235.975
 20
-49.7677
 11
-236.421
 21
-49.5456
  0
LINE
  8
0
 10
-236.421
 20
-49.5456
 11
-236.819
 21
-49.2453
  0
LINE
  8
0
 10
-236.819
 20
-49.2453
 11
-237.155
 21
-48.8771
  0
LINE
  8
0
 10
-237.155
 20
-48.8771
 11
-237.417
 21
-48.4535
  0
LINE
  8
0
 10
-237.417
 20
-48.4535
 11
-237.597
 21
-47.9889
  0
LINE
  8
0
 10
-237.597
 20
-47.9889
 11
-237.688
 21
-47.4991
  0
LINE
  8
0
 10
-237.688
 20
-47.4991
 11
-237.688
 21
-47.0009
  0
LINE
  8
0
 10
-237.688
 20
-47.0009
 11
-237.597
 21
-46.5111
  0
LINE
  8
0
 10
-237.597
 20
-46.5111
 11
-237.417
 21
-46.0465
  0
LINE
  8
0
 10
-237.417
 20
-46.0465
 11
-237.155
 21
-45.6229
  0
LINE
  8
0
 10
-237.155
 20
-45.6229
 11
-236.819
 21
-45.2547
  0
LINE
  8
0
 10
-236.819
 20
-45.2547
 11
-236.421
 21
-44.9544
  0
LINE
  8
0
 10
-236.421
 20
-44.9544
 11
-235.975
 21
-44.7323
  0
LINE
  8
0
 10
-235.975
 20
-44.7323
 11
-235.496
 21
-44.596
  0
LINE
  8
0
 10
-235.496
 20
-44.596
 11
-235
 21
-44.55
  0
LINE
  8
0
 10
-235
 20
-44.55
 11
-234.504
 21
-44.596
  0
LINE
  8
0
 10
-234.504
 20
-44.596
 11
-234.025
 21
-44.7323
  0
LINE
  8
0
 10
-234.025
 20
-44.7323
 11
-233.579
 21
-44.9544
  0
LINE
  8
0
 10
-233.579
 20
-44.9544
 11
-233.181
 21
-45.2547
  0
LINE
  8
0
 10
-233.181
 20
-45.2547
 11
-232.845
 21
-45.6229
  0
LINE
  8
0
 10
-232.845
 20
-45.6229
 11
-232.583
 21
-46.0465
  0
LINE
  8
0
 10
-232.583
 20
-46.0465
 11
-232.403
 21
-46.5111
  0
LINE
  8
0
 10
-232.403
 20
-46.5111
 11
-232.312
 21
-47.0009
  0
LINE
  8
0
 10
-232.312
 20
-47.0009
 11
-232.312
 21
-47.4991
  0
LINE
  8
0
 10
-232.312
 20
-47.4991
 11
-232.403
 21
-47.9889
  0
LINE
  8
0
 10
-232.403
 20
-47.9889
 11
-232.583
 21
-48.4535
  0
LINE
  8
0
 10
-232.583
 20
-48.4535
 11
-232.845
 21
-48.8771
  0
LINE
  8
0
 10
-232.845
 20
-48.8771
 11
-233.181
 21
-49.2453
  0
LINE
  8
0
 10
-233.181
 20
-49.2453
 11
-233.579
 21
-49.5456
  0
LINE
  8
0
 10
-233.579
 20
-49.5456
 11
-234.025
 21
-49.7677
  0
LINE
  8
0
 10
-234.025
 20
-49.7677
 11
-234.504
 21
-49.904
  0
LINE
  8
0
 10
-234.504
 20
-49.904
 11
-235
 21
-49.95
  0
LINE
  8
0
 10
-235
 20
-49.95
 11
-235.496
 21
-49.904
  0
LINE
  8
0
 10
234.504
 20
-49.904
 11
234.025
 21
-49.7677
  0
LINE
  8
0
 10
234.025
 20
-49.7677
 11
233.579
 21
-49.5456
  0
LINE
  8
0
 10
233.579
 20
-49.5456
 11
233.181
 21
-49.2453
  0
LINE
  8
0
 10
233.181
 20
-49.2453
 11
232.845
 21
-48.8771
  0
LINE
  8
0
 10
232.845
 20
-48.8771
 11
232.583
 21
-48.4535
  0
LINE
  8
0
 10
232.583
 20
-48.4535
 11
232.403
 21
-47.9889
  0
LINE
  8
0
 10
232.403
 20
-47.9889
 11
232.312
 21
-47.4991
  0
LINE
  8
0
 10
232.312
 20
-47.4991
 11
232.312
 21
-47.0009
  0
LINE
  8
0
 10
232.312
 20
-47.0009
 11
232.403
 21
-46.5111
  0
LINE
  8
0
 10
232.403
 20
-46.5111
 11
232.583
 21
-46.0465
  0
LINE
  8
0
 10
232.583
 20
-46.0465
 11
232.845
 21
-45.6229
  0
LINE
  8
0
 10
232.845
 20
-45.6229
 11
233.181
 21
-45.2547
  0
LINE
  8
0
 10
233.181
 20
-45.2547
 11
233.579
 21
-44.9544
  0
LINE
  8
0
 10
233.579
 20
-44.9544
 11
234.025
 21
-44.7323
  0
LINE
  8
0
 10
234.025
 20
-44.7323
 11
234.504
 21
-44.596
  0
LINE
  8
0
 10
234.504
 20
-44.596
 11
235
 21
-44.55
  0
LINE
  8
0
 10
235
 20
-44.55
 11
235.496
 21
-44.596
  0
LINE
  8
0
 10
235.496
 20
-44.596
 11
235.975
 21
-44.7323
  0
LINE
  8
0
 10
235.975
 20
-44.7323
 11
236.421
 21
-44.9544
  0
LINE
  8
0
 10
236.421
 20
-44.9544
 11
236.819
 21
-45.2547
  0
LINE
  8
0
 10
236.819
 20
-45.2547
 11
237.155
 21
-45.6229
  0
LINE
  8
0
 10
237.155
 20
-45.6229
 11
237.417
 21
-46.0465
  0
LINE
  8
0
 10
237.417
 20
-46.0465
 11
237.597
 21
-46.5111
  0
LINE
  8
0
 10
237.597
 20
-46.5111
 11
237.688
 21
-47.0009
  0
LINE
  8
0
 10
237.688
 20
-47.0009
 11
237.688
 21
-47.4991
  0
LINE
  8
0
 10
237.688
 20
-47.4991
 11
237.597
 21
-47.9889
  0
LINE
  8
0
 10
237.597
 20
-47.9889
 11
237.417
 21
-48.4535
  0
LINE
  8
0
 10
237.417
 20
-48.4535
 11
237.155
 21
-48.8771
  0
LINE
  8
0
 10
237.155
 20
-48.8771
 11
236.819
 21
-49.2453
  0
LINE
  8
0
 10
236.819
 20
-49.2453
 11
236.421
 21
-49.5456
  0
LINE
  8
0
 10
236.421
 20
-49.5456
 11
235.975
 21
-49.7677
  0
LINE
  8
0
 10
235.975
 20
-49.7677
 11
235.496
 21
-49.904
  0
LINE
  8
0
 10
235.496
 20
-49.904
 11
235
 21
-49.95
  0
LINE
  8
0
 10
235
 20
-49.95
 11
234.504
 21
-49.904
  0
LINE
  8
0
 10
-98.2492
 20
-66.7438
 11
-98.7452
 21
-66.6942
  0
LINE
  8
0
 10
-98.7452
 20
-66.6942
 11
-99.2338
 21
-66.5954
  0
LINE
  8
0
 10
-99.2338
 20
-66.5954
 11
-99.7101
 21
-66.4485
  0
LINE
  8
0
 10
-99.7101
 20
-66.4485
 11
-100.169
 21
-66.2548
  0
LINE
  8
0
 10
-100.169
 20
-66.2548
 11
-100.607
 21
-66.0164
  0
LINE
  8
0
 10
-100.607
 20
-66.0164
 11
-101.019
 21
-65.7357
  0
LINE
  8
0
 10
-101.019
 20
-65.7357
 11
-101.401
 21
-65.4153
  0
LINE
  8
0
 10
-101.401
 20
-65.4153
 11
-101.749
 21
-65.0584
  0
LINE
  8
0
 10
-101.749
 20
-65.0584
 11
-102.06
 21
-64.6687
  0
LINE
  8
0
 10
-102.06
 20
-64.6687
 11
-102.33
 21
-64.25
  0
LINE
  8
0
 10
-102.33
 20
-64.25
 11
-102.558
 21
-63.8064
  0
LINE
  8
0
 10
-102.558
 20
-63.8064
 11
-102.74
 21
-63.3424
  0
LINE
  8
0
 10
-102.74
 20
-63.3424
 11
-102.875
 21
-62.8626
  0
LINE
  8
0
 10
-102.875
 20
-62.8626
 11
-102.961
 21
-62.3717
  0
LINE
  8
0
 10
-102.961
 20
-62.3717
 11
-102.998
 21
-61.8746
  0
LINE
  8
0
 10
-102.998
 20
-61.8746
 11
-102.986
 21
-61.3763
  0
LINE
  8
0
 10
-102.986
 20
-61.3763
 11
-102.924
 21
-60.8818
  0
LINE
  8
0
 10
-102.924
 20
-60.8818
 11
-102.813
 21
-60.3958
  0
LINE
  8
0
 10
-102.813
 20
-60.3958
 11
-102.654
 21
-59.9233
  0
LINE
  8
0
 10
-102.654
 20
-59.9233
 11
-102.449
 21
-59.4689
  0
LINE
  8
0
 10
-102.449
 20
-59.4689
 11
-102.2
 21
-59.0373
  0
LINE
  8
0
 10
-102.2
 20
-59.0373
 11
-101.909
 21
-58.6325
  0
LINE
  8
0
 10
-101.909
 20
-58.6325
 11
-101.579
 21
-58.2588
  0
LINE
  8
0
 10
-101.579
 20
-58.2588
 11
-101.214
 21
-57.9198
  0
LINE
  8
0
 10
-101.214
 20
-57.9198
 11
-100.817
 21
-57.6188
  0
LINE
  8
0
 10
-100.817
 20
-57.6188
 11
-100.391
 21
-57.3589
  0
LINE
  8
0
 10
-100.391
 20
-57.3589
 11
-99.9422
 21
-57.1426
  0
LINE
  8
0
 10
-99.9422
 20
-57.1426
 11
-99.4738
 21
-56.9721
  0
LINE
  8
0
 10
-99.4738
 20
-56.9721
 11
-98.9907
 21
-56.8491
  0
LINE
  8
0
 10
-98.9907
 20
-56.8491
 11
-98.4978
 21
-56.7748
  0
LINE
  8
0
 10
-98.4978
 20
-56.7748
 11
-98
 21
-56.75
  0
LINE
  8
0
 10
-98
 20
-56.75
 11
-97.5022
 21
-56.7748
  0
LINE
  8
0
 10
-97.5022
 20
-56.7748
 11
-97.0093
 21
-56.8491
  0
LINE
  8
0
 10
-97.0093
 20
-56.8491
 11
-96.5262
 21
-56.9721
  0
LINE
  8
0
 10
-96.5262
 20
-56.9721
 11
-96.0578
 21
-57.1426
  0
LINE
  8
0
 10
-96.0578
 20
-57.1426
 11
-95.6087
 21
-57.3589
  0
LINE
  8
0
 10
-95.6087
 20
-57.3589
 11
-95.1834
 21
-57.6188
  0
LINE
  8
0
 10
-95.1834
 20
-57.6188
 11
-94.7861
 21
-57.9198
  0
LINE
  8
0
 10
-94.7861
 20
-57.9198
 11
-94.4207
 21
-58.2588
  0
LINE
  8
0
 10
-94.4207
 20
-58.2588
 11
-94.0908
 21
-58.6325
  0
LINE
  8
0
 10
-94.0908
 20
-58.6325
 11
-93.7999
 21
-59.0373
  0
LINE
  8
0
 10
-93.7999
 20
-59.0373
 11
-93.5506
 21
-59.4689
  0
LINE
  8
0
 10
-93.5506
 20
-59.4689
 11
-93.3456
 21
-59.9233
  0
LINE
  8
0
 10
-93.3456
 20
-59.9233
 11
-93.1869
 21
-60.3958
  0
LINE
  8
0
 10
-93.1869
 20
-60.3958
 11
-93.076
 21
-60.8818
  0
LINE
  8
0
 10
-93.076
 20
-60.8818
 11
-93.014
 21
-61.3763
  0
LINE
  8
0
 10
-93.014
 20
-61.3763
 11
-93.0016
 21
-61.8746
  0
LINE
  8
0
 10
-93.0016
 20
-61.8746
 11
-93.0388
 21
-62.3717
  0
LINE
  8
0
 10
-93.0388
 20
-62.3717
 11
-93.1254
 21
-62.8626
  0
LINE
  8
0
 10
-93.1254
 20
-62.8626
 11
-93.2604
 21
-63.3424
  0
LINE
  8
0
 10
-93.2604
 20
-63.3424
 11
-93.4425
 21
-63.8064
  0
LINE
  8
0
 10
-93.4425
 20
-63.8064
 11
-93.6699
 21
-64.25
  0
LINE
  8
0
 10
-93.6699
 20
-64.25
 11
-93.9403
 21
-64.6687
  0
LINE
  8
0
 10
-93.9403
 20
-64.6687
 11
-94.2511
 21
-65.0584
  0
LINE
  8
0
 10
-94.2511
 20
-65.0584
 11
-94.5991
 21
-65.4153
  0
LINE
  8
0
 10
-94.5991
 20
-65.4153
 11
-94.981
 21
-65.7357
  0
LINE
  8
0
 10
-94.981
 20
-65.7357
 11
-95.3928
 21
-66.0164
  0
LINE
  8
0
 10
-95.3928
 20
-66.0164
 11
-95.8306
 21
-66.2548
  0
LINE
  8
0
 10
-95.8306
 20
-66.2548
 11
-96.2899
 21
-66.4485
  0
LINE
  8
0
 10
-96.2899
 20
-66.4485
 11
-96.7662
 21
-66.5954
  0
LINE
  8
0
 10
-96.7662
 20
-66.5954
 11
-97.2548
 21
-66.6942
  0
LINE
  8
0
 10
-97.2548
 20
-66.6942
 11
-97.7508
 21
-66.7438
  0
LINE
  8
0
 10
-97.7508
 20
-66.7438
 11
-98.2492
 21
-66.7438
  0
LINE
  8
0
 10
97.7508
 20
-66.7438
 11
97.2548
 21
-66.6942
  0
LINE
  8
0
 10
97.2548
 20
-66.6942
 11
96.7662
 21
-66.5954
  0
LINE
  8
0
 10
96.7662
 20
-66.5954
 11
96.2899
 21
-66.4485
  0
LINE
  8
0
 10
96.2899
 20
-66.4485
 11
95.8306
 21
-66.2548
  0
LINE
  8
0
 10
95.8306
 20
-66.2548
 11
95.3928
 21
-66.0164
  0
LINE
  8
0
 10
95.3928
 20
-66.0164
 11
94.981
 21
-65.7357
  0
LINE
  8
0
 10
94.981
 20
-65.7357
 11
94.5991
 21
-65.4153
  0
LINE
  8
0
 10
94.5991
 20
-65.4153
 11
94.2511
 21
-65.0584
  0
LINE
  8
0
 10
94.2511
 20
-65.0584
 11
93.9403
 21
-64.6687
  0
LINE
  8
0
 10
93.9403
 20
-64.6687
 11
93.6699
 21
-64.25
  0
LINE
  8
0
 10
93.6699
 20
-64.25
 11
93.4425
 21
-63.8064
  0
LINE
  8
0
 10
93.4425
 20
-63.8064
 11
93.2604
 21
-63.3424
  0
LINE
  8
0
 10
93.2604
 20
-63.3424
 11
93.1254
 21
-62.8626
  0
LINE
  8
0
 10
93.1254
 20
-62.8626
 11
93.0388
 21
-62.3717
  0
LINE
  8
0
 10
93.0388
 20
-62.3717
 11
93.0016
 21
-61.8746
  0
LINE
  8
0
 10
93.0016
 20
-61.8746
 11
93.014
 21
-61.3763
  0
LINE
  8
0
 10
93.014
 20
-61.3763
 11
93.076
 21
-60.8818
  0
LINE
  8
0
 10
93.076
 20
-60.8818
 11
93.1869
 21
-60.3958
  0
LINE
  8
0
 10
93.1869
 20
-60.3958
 11
93.3456
 21
-59.9233
  0
LINE
  8
0
 10
93.3456
 20
-59.9233
 11
93.5506
 21
-59.4689
  0
LINE
  8
0
 10
93.5506
 20
-59.4689
 11
93.7999
 21
-59.0373
  0
LINE
  8
0
 10
93.7999
 20
-59.0373
 11
94.0908
 21
-58.6325
  0
LINE
  8
0
 10
94.0908
 20
-58.6325
 11
94.4207
 21
-58.2588
  0
LINE
  8
0
 10
94.4207
 20
-58.2588
 11
94.7861
 21
-57.9198
  0
LINE
  8
0
 10
94.7861
 20
-57.9198
 11
95.1834
 21
-57.6188
  0
LINE
  8
0
 10
95.1834
 20
-57.6188
 11
95.6087
 21
-57.3589
  0
LINE
  8
0
 10
95.6087
 20
-57.3589
 11
96.0578
 21
-57.1426
  0
LINE
  8
0
 10
96.0578
 20
-57.1426
 11
96.5262
 21
-56.9721
  0
LINE
  8
0
 10
96.5262
 20
-56.9721
 11
97.0093
 21
-56.8491
  0
LINE
  8
0
 10
97.0093
 20
-56.8491
 11
97.5022
 21
-56.7748
  0
LINE
  8
0
 10
97.5022
 20
-56.7748
 11
98
 21
-56.75
  0
LINE
  8
0
 10
98
 20
-56.75
 11
98.4978
 21
-56.7748
  0
LINE
  8
0
 10
98.4978
 20
-56.7748
 11
98.9907
 21
-56.8491
  0
LINE
  8
0
 10
98.9907
 20
-56.8491
 11
99.4738
 21
-56.9721
  0
LINE
  8
0
 10
99.4738
 20
-56.9721
 11
99.9422
 21
-57.1426
  0
LINE
  8
0
 10
99.9422
 20
-57.1426
 11
100.391
 21
-57.3589
  0
LINE
  8
0
 10
100.391
 20
-57.3589
 11
100.817
 21
-57.6188
  0
LINE
  8
0
 10
100.817
 20
-57.6188
 11
101.214
 21
-57.9198
  0
LINE
  8
0
 10
101.214
 20
-57.9198
 11
101.579
 21
-58.2588
  0
LINE
  8
0
 10
101.579
 20
-58.2588
 11
101.909
 21
-58.6325
  0
LINE
  8
0
 10
101.909
 20
-58.6325
 11
102.2
 21
-59.0373
  0
LINE
  8
0
 10
102.2
 20
-59.0373
 11
102.449
 21
-59.4689
  0
LINE
  8
0
 10
102.449
 20
-59.4689
 11
102.654
 21
-59.9233
  0
LINE
  8
0
 10
102.654
 20
-59.9233
 11
102.813
 21
-60.3958
  0
LINE
  8
0
 10
102.813
 20
-60.3958
 11
102.924
 21
-60.8818
  0
LINE
  8
0
 10
102.924
 20
-60.8818
 11
102.986
 21
-61.3763
  0
LINE
  8
0
 10
102.986
 20
-61.3763
 11
102.998
 21
-61.8746
  0
LINE
  8
0
 10
102.998
 20
-61.8746
 11
102.961
 21
-62.3717
  0
LINE
  8
0
 10
102.961
 20
-62.3717
 11
102.875
 21
-62.8626
  0
LINE
  8
0
 10
102.875
 20
-62.8626
 11
102.74
 21
-63.3424
  0
LINE
  8
0
 10
102.74
 20
-63.3424
 11
102.558
 21
-63.8064
  0
LINE
  8
0
 10
102.558
 20
-63.8064
 11
102.33
 21
-64.25
  0
LINE
  8
0
 10
102.33
 20
-64.25
 11
102.06
 21
-64.6687
  0
LINE
  8
0
 10
102.06
 20
-64.6687
 11
101.749
 21
-65.0584
  0
LINE
  8
0
 10
101.749
 20
-65.0584
 11
101.401
 21
-65.4153
  0
LINE
  8
0
 10
101.401
 20
-65.4153
 11
101.019
 21
-65.7357
  0
LINE
  8
0
 10
101.019
 20
-65.7357
 11
100.607
 21
-66.0164
  0
LINE
  8
0
 10
100.607
 20
-66.0164
 11
100.169
 21
-66.2548
  0
LINE
  8
0
 10
100.169
 20
-66.2548
 11
99.7101
 21
-66.4485
  0
LINE
  8
0
 10
99.7101
 20
-66.4485
 11
99.2338
 21
-66.5954
  0
LINE
  8
0
 10
99.2338
 20
-66.5954
 11
98.7452
 21
-66.6942
  0
LINE
  8
0
 10
98.7452
 20
-66.6942
 11
98.2492
 21
-66.7438
  0
LINE
  8
0
 10
98.2492
 20
-66.7438
 11
97.7508
 21
-66.7438
  0
LINE
  8
0
 10
107.5
 20
-64.25
 11
107.5
 21
-59.25
  0
LINE
  8
0
 10
107.5
 20
-59.25
 11
110.5
 21
-59.25
  0
LINE
  8
0
 10
110.5
 20
-59.25
 11
110.5
 21
-64.25
  0
LINE
  8
0
 10
110.5
 20
-64.25
 11
107.5
 21
-64.25
  0
LINE
  8
0
 10
-110.5
 20
-64.25
 11
-110.5
 21
-59.25
  0
LINE
  8
0
 10
-110.5
 20
-59.25
 11
-107.5
 21
-59.25
  0
LINE
  8
0
 10
-107.5
 20
-59.25
 11
-107.5
 21
-64.25
  0
LINE
  8
0
 10
-107.5
 20
-64.25
 11
-110.5
 21
-64.25
  0
LINE
  8
0
 10
85.5
 20
-64.25
 11
85.5
 21
-59.25
  0
LINE
  8
0
 10
85.5
 20
-59.25
 11
88.5
 21
-59.25
  0
LINE
  8
0
 10
88.5
 20
-59.25
 11
88.5
 21
-64.25
  0
LINE
  8
0
 10
88.5
 20
-64.25
 11
85.5
 21
-64.25
  0
LINE
  8
0
 10
-88.5
 20
-64.25
 11
-88.5
 21
-59.25
  0
LINE
  8
0
 10
-88.5
 20
-59.25
 11
-85.5
 21
-59.25
  0
LINE
  8
0
 10
-85.5
 20
-59.25
 11
-85.5
 21
-64.25
  0
LINE
  8
0
 10
-85.5
 20
-64.25
 11
-88.5
 21
-64.25
  0
LINE
  8
0
 10
126.544
 20
-63.4457
 11
126.071
 21
-63.3428
  0
LINE
  8
0
 10
126.071
 20
-63.3428
 11
125.647
 21
-63.1109
  0
LINE
  8
0
 10
125.647
 20
-63.1109
 11
125.305
 21
-62.7688
  0
LINE
  8
0
 10
125.305
 20
-62.7688
 11
125.073
 21
-62.3441
  0
LINE
  8
0
 10
125.073
 20
-62.3441
 11
124.97
 21
-61.8713
  0
LINE
  8
0
 10
124.97
 20
-61.8713
 11
125.004
 21
-61.3886
  0
LINE
  8
0
 10
125.004
 20
-61.3886
 11
125.173
 21
-60.9353
  0
LINE
  8
0
 10
125.173
 20
-60.9353
 11
125.463
 21
-60.5479
  0
LINE
  8
0
 10
125.463
 20
-60.5479
 11
125.851
 21
-60.2579
  0
LINE
  8
0
 10
125.851
 20
-60.2579
 11
126.304
 21
-60.0888
  0
LINE
  8
0
 10
126.304
 20
-60.0888
 11
126.787
 21
-60.0543
  0
LINE
  8
0
 10
126.787
 20
-60.0543
 11
129.615
 21
-60.0543
  0
LINE
  8
0
 10
129.615
 20
-60.0543
 11
130.088
 21
-60.1572
  0
LINE
  8
0
 10
130.088
 20
-60.1572
 11
130.513
 21
-60.3891
  0
LINE
  8
0
 10
130.513
 20
-60.3891
 11
130.855
 21
-60.7312
  0
LINE
  8
0
 10
130.855
 20
-60.7312
 11
131.087
 21
-61.1559
  0
LINE
  8
0
 10
131.087
 20
-61.1559
 11
131.19
 21
-61.6287
  0
LINE
  8
0
 10
131.19
 20
-61.6287
 11
131.155
 21
-62.1114
  0
LINE
  8
0
 10
131.155
 20
-62.1114
 11
130.986
 21
-62.5647
  0
LINE
  8
0
 10
130.986
 20
-62.5647
 11
130.696
 21
-62.9521
  0
LINE
  8
0
 10
130.696
 20
-62.9521
 11
130.309
 21
-63.2421
  0
LINE
  8
0
 10
130.309
 20
-63.2421
 11
129.855
 21
-63.4111
  0
LINE
  8
0
 10
129.855
 20
-63.4111
 11
129.373
 21
-63.4457
  0
LINE
  8
0
 10
129.373
 20
-63.4457
 11
126.544
 21
-63.4457
  0
LINE
  8
0
 10
20.3848
 20
-63.4457
 11
19.912
 21
-63.3428
  0
LINE
  8
0
 10
19.912
 20
-63.3428
 11
19.4873
 21
-63.1109
  0
LINE
  8
0
 10
19.4873
 20
-63.1109
 11
19.1452
 21
-62.7688
  0
LINE
  8
0
 10
19.1452
 20
-62.7688
 11
18.9133
 21
-62.3441
  0
LINE
  8
0
 10
18.9133
 20
-62.3441
 11
18.8104
 21
-61.8713
  0
LINE
  8
0
 10
18.8104
 20
-61.8713
 11
18.8449
 21
-61.3886
  0
LINE
  8
0
 10
18.8449
 20
-61.3886
 11
19.014
 21
-60.9353
  0
LINE
  8
0
 10
19.014
 20
-60.9353
 11
19.304
 21
-60.5479
  0
LINE
  8
0
 10
19.304
 20
-60.5479
 11
19.6914
 21
-60.2579
  0
LINE
  8
0
 10
19.6914
 20
-60.2579
 11
20.1447
 21
-60.0888
  0
LINE
  8
0
 10
20.1447
 20
-60.0888
 11
20.6274
 21
-60.0543
  0
LINE
  8
0
 10
20.6274
 20
-60.0543
 11
23.4558
 21
-60.0543
  0
LINE
  8
0
 10
23.4558
 20
-60.0543
 11
23.9286
 21
-60.1572
  0
LINE
  8
0
 10
23.9286
 20
-60.1572
 11
24.3533
 21
-60.3891
  0
LINE
  8
0
 10
24.3533
 20
-60.3891
 11
24.6954
 21
-60.7312
  0
LINE
  8
0
 10
24.6954
 20
-60.7312
 11
24.9273
 21
-61.1559
  0
LINE
  8
0
 10
24.9273
 20
-61.1559
 11
25.0302
 21
-61.6287
  0
LINE
  8
0
 10
25.0302
 20
-61.6287
 11
24.9957
 21
-62.1114
  0
LINE
  8
0
 10
24.9957
 20
-62.1114
 11
24.8266
 21
-62.5647
  0
LINE
  8
0
 10
24.8266
 20
-62.5647
 11
24.5366
 21
-62.9521
  0
LINE
  8
0
 10
24.5366
 20
-62.9521
 11
24.1492
 21
-63.2421
  0
LINE
  8
0
 10
24.1492
 20
-63.2421
 11
23.6959
 21
-63.4111
  0
LINE
  8
0
 10
23.6959
 20
-63.4111
 11
23.2132
 21
-63.4457
  0
LINE
  8
0
 10
23.2132
 20
-63.4457
 11
20.3848
 21
-63.4457
  0
LINE
  8
0
 10
-23.4558
 20
-63.4457
 11
-23.9286
 21
-63.3428
  0
LINE
  8
0
 10
-23.9286
 20
-63.3428
 11
-24.3533
 21
-63.1109
  0
LINE
  8
0
 10
-24.3533
 20
-63.1109
 11
-24.6954
 21
-62.7688
  0
LINE
  8
0
 10
-24.6954
 20
-62.7688
 11
-24.9273
 21
-62.3441
  0
LINE
  8
0
 10
-24.9273
 20
-62.3441
 11
-25.0302
 21
-61.8713
  0
LINE
  8
0
 10
-25.0302
 20
-61.8713
 11
-24.9957
 21
-61.3886
  0
LINE
  8
0
 10
-24.9957
 20
-61.3886
 11
-24.8266
 21
-60.9353
  0
LINE
  8
0
 10
-24.8266
 20
-60.9353
 11
-24.5366
 21
-60.5479
  0
LINE
  8
0
 10
-24.5366
 20
-60.5479
 11
-24.1492
 21
-60.2579
  0
LINE
  8
0
 10
-24.1492
 20
-60.2579
 11
-23.6959
 21
-60.0888
  0
LINE
  8
0
 10
-23.6959
 20
-60.0888
 11
-23.2132
 21
-60.0543
  0
LINE
  8
0
 10
-23.2132
 20
-60.0543
 11
-20.3848
 21
-60.0543
  0
LINE
  8
0
 10
-20.3848
 20
-60.0543
 11
-19.912
 21
-60.1572
  0
LINE
  8
0
 10
-19.912
 20
-60.1572
 11
-19.4873
 21
-60.3891
  0
LINE
  8
0
 10
-19.4873
 20
-60.3891
 11
-19.1452
 21
-60.7312
  0
LINE
  8
0
 10
-19.1452
 20
-60.7312
 11
-18.9133
 21
-61.1559
  0
LINE
  8
0
 10
-18.9133
 20
-61.1559
 11
-18.8104
 21
-61.6287
  0
LINE
  8
0
 10
-18.8104
 20
-61.6287
 11
-18.8449
 21
-62.1114
  0
LINE
  8
0
 10
-18.8449
 20
-62.1114
 11
-19.014
 21
-62.5647
  0
LINE
  8
0
 10
-19.014
 20
-62.5647
 11
-19.304
 21
-62.9521
  0
LINE
  8
0
 10
-19.304
 20
-62.9521
 11
-19.6914
 21
-63.2421
  0
LINE
  8
0
 10
-19.6914
 20
-63.2421
 11
-20.1447
 21
-63.4111
  0
LINE
  8
0
 10
-20.1447
 20
-63.4111
 11
-20.6274
 21
-63.4457
  0
LINE
  8
0
 10
-20.6274
 20
-63.4457
 11
-23.4558
 21
-63.4457
  0
LINE
  8
0
 10
-129.615
 20
-63.4457
 11
-130.088
 21
-63.3428
  0
LINE
  8
0
 10
-130.088
 20
-63.3428
 11
-130.513
 21
-63.1109
  0
LINE
  8
0
 10
-130.513
 20
-63.1109
 11
-130.855
 21
-62.7688
  0
LINE
  8
0
 10
-130.855
 20
-62.7688
 11
-131.087
 21
-62.3441
  0
LINE
  8
0
 10
-131.087
 20
-62.3441
 11
-131.19
 21
-61.8713
  0
LINE
  8
0
 10
-131.19
 20
-61.8713
 11
-131.155
 21
-61.3886
  0
LINE
  8
0
 10
-131.155
 20
-61.3886
 11
-130.986
 21
-60.9353
  0
LINE
  8
0
 10
-130.986
 20
-60.9353
 11
-130.696
 21
-60.5479
  0
LINE
  8
0
 10
-130.696
 20
-60.5479
 11
-130.309
 21
-60.2579
  0
LINE
  8
0
 10
-130.309
 20
-60.2579
 11
-129.855
 21
-60.0888
  0
LINE
  8
0
 10
-129.855
 20
-60.0888
 11
-129.373
 21
-60.0543
  0
LINE
  8
0
 10
-129.373
 20
-60.0543
 11
-126.544
 21
-60.0543
  0
LINE
  8
0
 10
-126.544
 20
-60.0543
 11
-126.071
 21
-60.1572
  0
LINE
  8
0
 10
-126.071
 20
-60.1572
 11
-125.647
 21
-60.3891
  0
LINE
  8
0
 10
-125.647
 20
-60.3891
 11
-125.305
 21
-60.7312
  0
LINE
  8
0
 10
-125.305
 20
-60.7312
 11
-125.073
 21
-61.1559
  0
LINE
  8
0
 10
-125.073
 20
-61.1559
 11
-124.97
 21
-61.6287
  0
LINE
  8
0
 10
-124.97
 20
-61.6287
 11
-125.004
 21
-62.1114
  0
LINE
  8
0
 10
-125.004
 20
-62.1114
 11
-125.173
 21
-62.5647
  0
LINE
  8
0
 10
-125.173
 20
-62.5647
 11
-125.463
 21
-62.9521
  0
LINE
  8
0
 10
-125.463
 20
-62.9521
 11
-125.851
 21
-63.2421
  0
LINE
  8
0
 10
-125.851
 20
-63.2421
 11
-126.304
 21
-63.4111
  0
LINE
  8
0
 10
-126.304
 20
-63.4111
 11
-126.787
 21
-63.4457
  0
LINE
  8
0
 10
-126.787
 20
-63.4457
 11
-129.615
 21
-63.4457
  0
LINE
  8
0
 10
-173.456
 20
-63.4457
 11
-173.929
 21
-63.3428
  0
LINE
  8
0
 10
-173.929
 20
-63.3428
 11
-174.353
 21
-63.1109
  0
LINE
  8
0
 10
-174.353
 20
-63.1109
 11
-174.695
 21
-62.7688
  0
LINE
  8
0
 10
-174.695
 20
-62.7688
 11
-174.927
 21
-62.3441
  0
LINE
  8
0
 10
-174.927
 20
-62.3441
 11
-175.03
 21
-61.8713
  0
LINE
  8
0
 10
-175.03
 20
-61.8713
 11
-174.996
 21
-61.3886
  0
LINE
  8
0
 10
-174.996
 20
-61.3886
 11
-174.827
 21
-60.9353
  0
LINE
  8
0
 10
-174.827
 20
-60.9353
 11
-174.537
 21
-60.5479
  0
LINE
  8
0
 10
-174.537
 20
-60.5479
 11
-174.149
 21
-60.2579
  0
LINE
  8
0
 10
-174.149
 20
-60.2579
 11
-173.696
 21
-60.0888
  0
LINE
  8
0
 10
-173.696
 20
-60.0888
 11
-173.213
 21
-60.0543
  0
LINE
  8
0
 10
-173.213
 20
-60.0543
 11
-170.385
 21
-60.0543
  0
LINE
  8
0
 10
-170.385
 20
-60.0543
 11
-169.912
 21
-60.1572
  0
LINE
  8
0
 10
-169.912
 20
-60.1572
 11
-169.487
 21
-60.3891
  0
LINE
  8
0
 10
-169.487
 20
-60.3891
 11
-169.145
 21
-60.7312
  0
LINE
  8
0
 10
-169.145
 20
-60.7312
 11
-168.913
 21
-61.1559
  0
LINE
  8
0
 10
-168.913
 20
-61.1559
 11
-168.81
 21
-61.6287
  0
LINE
  8
0
 10
-168.81
 20
-61.6287
 11
-168.845
 21
-62.1114
  0
LINE
  8
0
 10
-168.845
 20
-62.1114
 11
-169.014
 21
-62.5647
  0
LINE
  8
0
 10
-169.014
 20
-62.5647
 11
-169.304
 21
-62.9521
  0
LINE
  8
0
 10
-169.304
 20
-62.9521
 11
-169.691
 21
-63.2421
  0
LINE
  8
0
 10
-169.691
 20
-63.2421
 11
-170.145
 21
-63.4111
  0
LINE
  8
0
 10
-170.145
 20
-63.4111
 11
-170.627
 21
-63.4457
  0
LINE
  8
0
 10
-170.627
 20
-63.4457
 11
-173.456
 21
-63.4457
  0
LINE
  8
0
 10
170.385
 20
-63.4457
 11
169.912
 21
-63.3428
  0
LINE
  8
0
 10
169.912
 20
-63.3428
 11
169.487
 21
-63.1109
  0
LINE
  8
0
 10
169.487
 20
-63.1109
 11
169.145
 21
-62.7688
  0
LINE
  8
0
 10
169.145
 20
-62.7688
 11
168.913
 21
-62.3441
  0
LINE
  8
0
 10
168.913
 20
-62.3441
 11
168.81
 21
-61.8713
  0
LINE
  8
0
 10
168.81
 20
-61.8713
 11
168.845
 21
-61.3886
  0
LINE
  8
0
 10
168.845
 20
-61.3886
 11
169.014
 21
-60.9353
  0
LINE
  8
0
 10
169.014
 20
-60.9353
 11
169.304
 21
-60.5479
  0
LINE
  8
0
 10
169.304
 20
-60.5479
 11
169.691
 21
-60.2579
  0
LINE
  8
0
 10
169.691
 20
-60.2579
 11
170.145
 21
-60.0888
  0
LINE
  8
0
 10
170.145
 20
-60.0888
 11
170.627
 21
-60.0543
  0
LINE
  8
0
 10
170.627
 20
-60.0543
 11
173.456
 21
-60.0543
  0
LINE
  8
0
 10
173.456
 20
-60.0543
 11
173.929
 21
-60.1572
  0
LINE
  8
0
 10
173.929
 20
-60.1572
 11
174.353
 21
-60.3891
  0
LINE
  8
0
 10
174.353
 20
-60.3891
 11
174.695
 21
-60.7312
  0
LINE
  8
0
 10
174.695
 20
-60.7312
 11
174.927
 21
-61.1559
  0
LINE
  8
0
 10
174.927
 20
-61.1559
 11
175.03
 21
-61.6287
  0
LINE
  8
0
 10
175.03
 20
-61.6287
 11
174.996
 21
-62.1114
  0
LINE
  8
0
 10
174.996
 20
-62.1114
 11
174.827
 21
-62.5647
  0
LINE
  8
0
 10
174.827
 20
-62.5647
 11
174.537
 21
-62.9521
  0
LINE
  8
0
 10
174.537
 20
-62.9521
 11
174.149
 21
-63.2421
  0
LINE
  8
0
 10
174.149
 20
-63.2421
 11
173.696
 21
-63.4111
  0
LINE
  8
0
 10
173.696
 20
-63.4111
 11
173.213
 21
-63.4457
  0
LINE
  8
0
 10
173.213
 20
-63.4457
 11
170.385
 21
-63.4457
  0
ENDSEC
  0
SECTION
  2
OBJECTS
  0
DICTIONARY
  0
ENDSEC
  0
EOF
