  0
SECTION
  2
BLOCKS
  0
ENDSEC
  0
SECTION
  2
ENTITIES
  0
LINE
  8
0
 10
-160.473
 20
-50.1137
 11
-160.614
 21
-49.637
  0
LINE
  8
0
 10
-160.614
 20
-49.637
 11
-160.734
 21
-49.1544
  0
LINE
  8
0
 10
-160.734
 20
-49.1544
 11
-160.832
 21
-48.6669
  0
LINE
  8
0
 10
-160.832
 20
-48.6669
 11
-160.907
 21
-48.1755
  0
LINE
  8
0
 10
-160.907
 20
-48.1755
 11
-160.961
 21
-47.6812
  0
LINE
  8
0
 10
-160.961
 20
-47.6812
 11
-160.991
 21
-47.185
  0
LINE
  8
0
 10
-160.991
 20
-47.185
 11
-161
 21
-46.6878
  0
LINE
  8
0
 10
-161
 20
-46.6878
 11
-160.986
 21
-46.1909
  0
LINE
  8
0
 10
-160.986
 20
-46.1909
 11
-160.949
 21
-45.695
  0
LINE
  8
0
 10
-160.949
 20
-45.695
 11
-160.89
 21
-45.2013
  0
LINE
  8
0
 10
-160.89
 20
-45.2013
 11
-160.809
 21
-44.7108
  0
LINE
  8
0
 10
-160.809
 20
-44.7108
 11
-160.706
 21
-44.2244
  0
LINE
  8
0
 10
-160.706
 20
-44.2244
 11
-160.581
 21
-43.7432
  0
LINE
  8
0
 10
-160.581
 20
-43.7432
 11
-160.434
 21
-43.2682
  0
LINE
  8
0
 10
-160.434
 20
-43.2682
 11
-160.266
 21
-42.8002
  0
LINE
  8
0
 10
-160.266
 20
-42.8002
 11
-160.077
 21
-42.3403
  0
LINE
  8
0
 10
-160.077
 20
-42.3403
 11
-159.868
 21
-41.8895
  0
LINE
  8
0
 10
-159.868
 20
-41.8895
 11
-159.638
 21
-41.4485
  0
LINE
  8
0
 10
-159.638
 20
-41.4485
 11
-159.389
 21
-41.0184
  0
LINE
  8
0
 10
-159.389
 20
-41.0184
 11
-159.12
 21
-40.6
  0
LINE
  8
0
 10
-159.12
 20
-40.6
 11
-158.833
 21
-40.1942
  0
LINE
  8
0
 10
-158.833
 20
-40.1942
 11
-158.528
 21
-39.8017
  0
LINE
  8
0
 10
-158.528
 20
-39.8017
 11
-158.205
 21
-39.4235
  0
LINE
  8
0
 10
-158.205
 20
-39.4235
 11
-157.866
 21
-39.0602
  0
LINE
  8
0
 10
-157.866
 20
-39.0602
 11
-157.51
 21
-38.7126
  0
LINE
  8
0
 10
-157.51
 20
-38.7126
 11
-157.139
 21
-38.3815
  0
LINE
  8
0
 10
-157.139
 20
-38.3815
 11
-156.754
 21
-38.0674
  0
LINE
  8
0
 10
-156.754
 20
-38.0674
 11
-156.355
 21
-37.7711
  0
LINE
  8
0
 10
-156.355
 20
-37.7711
 11
-155.942
 21
-37.4931
  0
LINE
  8
0
 10
-155.942
 20
-37.4931
 11
-155.518
 21
-37.2341
  0
LINE
  8
0
 10
-155.518
 20
-37.2341
 11
-155.082
 21
-36.9945
  0
LINE
  8
0
 10
-155.082
 20
-36.9945
 11
-154.636
 21
-36.7748
  0
LINE
  8
0
 10
-154.636
 20
-36.7748
 11
-154.181
 21
-36.5755
  0
LINE
  8
0
 10
-154.181
 20
-36.5755
 11
-153.717
 21
-36.3969
  0
LINE
  8
0
 10
-153.717
 20
-36.3969
 11
-153.245
 21
-36.2396
  0
LINE
  8
0
 10
-153.245
 20
-36.2396
 11
-152.767
 21
-36.1037
  0
LINE
  8
0
 10
-152.767
 20
-36.1037
 11
-152.283
 21
-35.9895
  0
LINE
  8
0
 10
-152.283
 20
-35.9895
 11
-151.794
 21
-35.8973
  0
LINE
  8
0
 10
-151.794
 20
-35.8973
 11
-151.302
 21
-35.8273
  0
LINE
  8
0
 10
-151.302
 20
-35.8273
 11
-150.807
 21
-35.7797
  0
LINE
  8
0
 10
-150.807
 20
-35.7797
 11
-150.311
 21
-35.7544
  0
LINE
  8
0
 10
-150.311
 20
-35.7544
 11
-149.814
 21
-35.7516
  0
LINE
  8
0
 10
-149.814
 20
-35.7516
 11
-149.317
 21
-35.7712
  0
LINE
  8
0
 10
-149.317
 20
-35.7712
 11
-148.821
 21
-35.8133
  0
LINE
  8
0
 10
-148.821
 20
-35.8133
 11
-148.328
 21
-35.8778
  0
LINE
  8
0
 10
-148.328
 20
-35.8778
 11
-147.839
 21
-35.9644
  0
LINE
  8
0
 10
-147.839
 20
-35.9644
 11
-147.354
 21
-36.0731
  0
LINE
  8
0
 10
-147.354
 20
-36.0731
 11
-146.874
 21
-36.2036
  0
LINE
  8
0
 10
-146.874
 20
-36.2036
 11
-146.4
 21
-36.3556
  0
LINE
  8
0
 10
-146.4
 20
-36.3556
 11
-145.934
 21
-36.5289
  0
LINE
  8
0
 10
-145.934
 20
-36.5289
 11
-145.477
 21
-36.723
  0
LINE
  8
0
 10
-145.477
 20
-36.723
 11
-145.028
 21
-36.9377
  0
LINE
  8
0
 10
-145.028
 20
-36.9377
 11
-144.59
 21
-37.1723
  0
LINE
  8
0
 10
-144.59
 20
-37.1723
 11
-144.163
 21
-37.4266
  0
LINE
  8
0
 10
-144.163
 20
-37.4266
 11
-143.747
 21
-37.6999
  0
LINE
  8
0
 10
-143.747
 20
-37.6999
 11
-143.345
 21
-37.9917
  0
LINE
  8
0
 10
-143.345
 20
-37.9917
 11
-142.956
 21
-38.3013
  0
LINE
  8
0
 10
-142.956
 20
-38.3013
 11
-142.581
 21
-38.6283
  0
LINE
  8
0
 10
-142.581
 20
-38.6283
 11
-142.222
 21
-38.9718
  0
LINE
  8
0
 10
-142.222
 20
-38.9718
 11
-141.878
 21
-39.3312
  0
LINE
  8
0
 10
-141.878
 20
-39.3312
 11
-141.551
 21
-39.7058
  0
LINE
  8
0
 10
-141.551
 20
-39.7058
 11
-141.242
 21
-40.0948
  0
LINE
  8
0
 10
-141.242
 20
-40.0948
 11
-140.95
 21
-40.4973
  0
LINE
  8
0
 10
-140.95
 20
-40.4973
 11
-140.677
 21
-40.9127
  0
LINE
  8
0
 10
-140.677
 20
-40.9127
 11
-140.422
 21
-41.34
  0
LINE
  8
0
 10
-140.422
 20
-41.34
 11
-140.188
 21
-41.7783
  0
LINE
  8
0
 10
-140.188
 20
-41.7783
 11
-139.973
 21
-42.2267
  0
LINE
  8
0
 10
-139.973
 20
-42.2267
 11
-139.779
 21
-42.6844
  0
LINE
  8
0
 10
-139.779
 20
-42.6844
 11
-139.606
 21
-43.1505
  0
LINE
  8
0
 10
-139.606
 20
-43.1505
 11
-139.454
 21
-43.6238
  0
LINE
  8
0
 10
-139.454
 20
-43.6238
 11
-139.323
 21
-44.1036
  0
LINE
  8
0
 10
-139.323
 20
-44.1036
 11
-139.214
 21
-44.5888
  0
LINE
  8
0
 10
-139.214
 20
-44.5888
 11
-139.128
 21
-45.0783
  0
LINE
  8
0
 10
-139.128
 20
-45.0783
 11
-139.063
 21
-45.5713
  0
LINE
  8
0
 10
-139.063
 20
-45.5713
 11
-139.021
 21
-46.0667
  0
LINE
  8
0
 10
-139.021
 20
-46.0667
 11
-139.002
 21
-46.5635
  0
LINE
  8
0
 10
-139.002
 20
-46.5635
 11
-139.004
 21
-47.0607
  0
LINE
  8
0
 10
-139.004
 20
-47.0607
 11
-139.03
 21
-47.5573
  0
LINE
  8
0
 10
-139.03
 20
-47.5573
 11
-139.077
 21
-48.0522
  0
LINE
  8
0
 10
-139.077
 20
-48.0522
 11
-139.147
 21
-48.5444
  0
LINE
  8
0
 10
-139.147
 20
-48.5444
 11
-139.24
 21
-49.033
  0
LINE
  8
0
 10
-139.24
 20
-49.033
 11
-139.354
 21
-49.5169
  0
LINE
  8
0
 10
-139.354
 20
-49.5169
 11
-139.49
 21
-49.9951
  0
LINE
  8
0
 10
-139.49
 20
-49.9951
 11
-139.575
 21
-50.25
  0
LINE
  8
0
 10
-139.575
 20
-50.25
 11
-118.562
 21
-50.25
  0
LINE
  8
0
 10
-118.562
 20
-50.25
 11
-118.749
 21
-50.0584
  0
LINE
  8
0
 10
-118.749
 20
-50.0584
 11
-119.06
 21
-49.6687
  0
LINE
  8
0
 10
-119.06
 20
-49.6687
 11
-119.33
 21
-49.25
  0
LINE
  8
0
 10
-119.33
 20
-49.25
 11
-119.558
 21
-48.8064
  0
LINE
  8
0
 10
-119.558
 20
-48.8064
 11
-119.74
 21
-48.3424
  0
LINE
  8
0
 10
-119.74
 20
-48.3424
 11
-119.875
 21
-47.8626
  0
LINE
  8
0
 10
-119.875
 20
-47.8626
 11
-119.961
 21
-47.3717
  0
LINE
  8
0
 10
-119.961
 20
-47.3717
 11
-119.998
 21
-46.8746
  0
LINE
  8
0
 10
-119.998
 20
-46.8746
 11
-119.986
 21
-46.3763
  0
LINE
  8
0
 10
-119.986
 20
-46.3763
 11
-119.924
 21
-45.8818
  0
LINE
  8
0
 10
-119.924
 20
-45.8818
 11
-119.813
 21
-45.3958
  0
LINE
  8
0
 10
-119.813
 20
-45.3958
 11
-119.654
 21
-44.9233
  0
LINE
  8
0
 10
-119.654
 20
-44.9233
 11
-119.449
 21
-44.4689
  0
LINE
  8
0
 10
-119.449
 20
-44.4689
 11
-119.2
 21
-44.0373
  0
LINE
  8
0
 10
-119.2
 20
-44.0373
 11
-118.909
 21
-43.6325
  0
LINE
  8
0
 10
-118.909
 20
-43.6325
 11
-118.579
 21
-43.2588
  0
LINE
  8
0
 10
-118.579
 20
-43.2588
 11
-118.214
 21
-42.9198
  0
LINE
  8
0
 10
-118.214
 20
-42.9198
 11
-117.817
 21
-42.6188
  0
LINE
  8
0
 10
-117.817
 20
-42.6188
 11
-117.391
 21
-42.3589
  0
LINE
  8
0
 10
-117.391
 20
-42.3589
 11
-116.942
 21
-42.1426
  0
LINE
  8
0
 10
-116.942
 20
-42.1426
 11
-116.474
 21
-41.9721
  0
LINE
  8
0
 10
-116.474
 20
-41.9721
 11
-115.991
 21
-41.8491
  0
LINE
  8
0
 10
-115.991
 20
-41.8491
 11
-115.498
 21
-41.7748
  0
LINE
  8
0
 10
-115.498
 20
-41.7748
 11
-115
 21
-41.75
  0
LINE
  8
0
 10
-115
 20
-41.75
 11
-114.502
 21
-41.7748
  0
LINE
  8
0
 10
-114.502
 20
-41.7748
 11
-114.009
 21
-41.8491
  0
LINE
  8
0
 10
-114.009
 20
-41.8491
 11
-113.526
 21
-41.9721
  0
LINE
  8
0
 10
-113.526
 20
-41.9721
 11
-113.058
 21
-42.1426
  0
LINE
  8
0
 10
-113.058
 20
-42.1426
 11
-112.609
 21
-42.3589
  0
LINE
  8
0
 10
-112.609
 20
-42.3589
 11
-112.183
 21
-42.6188
  0
LINE
  8
0
 10
-112.183
 20
-42.6188
 11
-111.786
 21
-42.9198
  0
LINE
  8
0
 10
-111.786
 20
-42.9198
 11
-111.421
 21
-43.2588
  0
LINE
  8
0
 10
-111.421
 20
-43.2588
 11
-111.091
 21
-43.6325
  0
LINE
  8
0
 10
-111.091
 20
-43.6325
 11
-110.8
 21
-44.0373
  0
LINE
  8
0
 10
-110.8
 20
-44.0373
 11
-110.551
 21
-44.4689
  0
LINE
  8
0
 10
-110.551
 20
-44.4689
 11
-110.346
 21
-44.9233
  0
LINE
  8
0
 10
-110.346
 20
-44.9233
 11
-110.187
 21
-45.3958
  0
LINE
  8
0
 10
-110.187
 20
-45.3958
 11
-110.076
 21
-45.8818
  0
LINE
  8
0
 10
-110.076
 20
-45.8818
 11
-110.014
 21
-46.3763
  0
LINE
  8
0
 10
-110.014
 20
-46.3763
 11
-110.002
 21
-46.8746
  0
LINE
  8
0
 10
-110.002
 20
-46.8746
 11
-110.039
 21
-47.3717
  0
LINE
  8
0
 10
-110.039
 20
-47.3717
 11
-110.125
 21
-47.8626
  0
LINE
  8
0
 10
-110.125
 20
-47.8626
 11
-110.26
 21
-48.3424
  0
LINE
  8
0
 10
-110.26
 20
-48.3424
 11
-110.442
 21
-48.8064
  0
LINE
  8
0
 10
-110.442
 20
-48.8064
 11
-110.67
 21
-49.25
  0
LINE
  8
0
 10
-110.67
 20
-49.25
 11
-110.94
 21
-49.6687
  0
LINE
  8
0
 10
-110.94
 20
-49.6687
 11
-111.251
 21
-50.0584
  0
LINE
  8
0
 10
-111.251
 20
-50.0584
 11
-111.438
 21
-50.25
  0
LINE
  8
0
 10
-111.438
 20
-50.25
 11
-10.4259
 21
-50.25
  0
LINE
  8
0
 10
-10.4259
 20
-50.25
 11
-10.4731
 21
-50.1137
  0
LINE
  8
0
 10
-10.4731
 20
-50.1137
 11
-10.6144
 21
-49.637
  0
LINE
  8
0
 10
-10.6144
 20
-49.637
 11
-10.734
 21
-49.1544
  0
LINE
  8
0
 10
-10.734
 20
-49.1544
 11
-10.8317
 21
-48.6669
  0
LINE
  8
0
 10
-10.8317
 20
-48.6669
 11
-10.9072
 21
-48.1755
  0
LINE
  8
0
 10
-10.9072
 20
-48.1755
 11
-10.9605
 21
-47.6812
  0
LINE
  8
0
 10
-10.9605
 20
-47.6812
 11
-10.9914
 21
-47.185
  0
LINE
  8
0
 10
-10.9914
 20
-47.185
 11
-10.9998
 21
-46.6878
  0
LINE
  8
0
 10
-10.9998
 20
-46.6878
 11
-10.9858
 21
-46.1909
  0
LINE
  8
0
 10
-10.9858
 20
-46.1909
 11
-10.9493
 21
-45.695
  0
LINE
  8
0
 10
-10.9493
 20
-45.695
 11
-10.8904
 21
-45.2013
  0
LINE
  8
0
 10
-10.8904
 20
-45.2013
 11
-10.8093
 21
-44.7108
  0
LINE
  8
0
 10
-10.8093
 20
-44.7108
 11
-10.7061
 21
-44.2244
  0
LINE
  8
0
 10
-10.7061
 20
-44.2244
 11
-10.5811
 21
-43.7432
  0
LINE
  8
0
 10
-10.5811
 20
-43.7432
 11
-10.4344
 21
-43.2682
  0
LINE
  8
0
 10
-10.4344
 20
-43.2682
 11
-10.2664
 21
-42.8002
  0
LINE
  8
0
 10
-10.2664
 20
-42.8002
 11
-10.0774
 21
-42.3403
  0
LINE
  8
0
 10
-10.0774
 20
-42.3403
 11
-9.86789
 21
-41.8895
  0
LINE
  8
0
 10
-9.86789
 20
-41.8895
 11
-9.63817
 21
-41.4485
  0
LINE
  8
0
 10
-9.63817
 20
-41.4485
 11
-9.38876
 21
-41.0184
  0
LINE
  8
0
 10
-9.38876
 20
-41.0184
 11
-9.12018
 21
-40.6
  0
LINE
  8
0
 10
-9.12018
 20
-40.6
 11
-8.83296
 21
-40.1942
  0
LINE
  8
0
 10
-8.83296
 20
-40.1942
 11
-8.52769
 21
-39.8017
  0
LINE
  8
0
 10
-8.52769
 20
-39.8017
 11
-8.20502
 21
-39.4235
  0
LINE
  8
0
 10
-8.20502
 20
-39.4235
 11
-7.86557
 21
-39.0602
  0
LINE
  8
0
 10
-7.86557
 20
-39.0602
 11
-7.51006
 21
-38.7126
  0
LINE
  8
0
 10
-7.51006
 20
-38.7126
 11
-7.13919
 21
-38.3815
  0
LINE
  8
0
 10
-7.13919
 20
-38.3815
 11
-6.75375
 21
-38.0674
  0
LINE
  8
0
 10
-6.75375
 20
-38.0674
 11
-6.35451
 21
-37.7711
  0
LINE
  8
0
 10
-6.35451
 20
-37.7711
 11
-5.94229
 21
-37.4931
  0
LINE
  8
0
 10
-5.94229
 20
-37.4931
 11
-5.51793
 21
-37.2341
  0
LINE
  8
0
 10
-5.51793
 20
-37.2341
 11
-5.08229
 21
-36.9945
  0
LINE
  8
0
 10
-5.08229
 20
-36.9945
 11
-4.63628
 21
-36.7748
  0
LINE
  8
0
 10
-4.63628
 20
-36.7748
 11
-4.18079
 21
-36.5755
  0
LINE
  8
0
 10
-4.18079
 20
-36.5755
 11
-3.71675
 21
-36.3969
  0
LINE
  8
0
 10
-3.71675
 20
-36.3969
 11
-3.24513
 21
-36.2396
  0
LINE
  8
0
 10
-3.24513
 20
-36.2396
 11
-2.76688
 21
-36.1037
  0
LINE
  8
0
 10
-2.76688
 20
-36.1037
 11
-2.28297
 21
-35.9895
  0
LINE
  8
0
 10
-2.28297
 20
-35.9895
 11
-1.7944
 21
-35.8973
  0
LINE
  8
0
 10
-1.7944
 20
-35.8973
 11
-1.30215
 21
-35.8273
  0
LINE
  8
0
 10
-1.30215
 20
-35.8273
 11
-0.807266
 21
-35.7797
  0
LINE
  8
0
 10
-0.807266
 20
-35.7797
 11
-0.310715
 21
-35.7544
  0
LINE
  8
0
 10
-0.310715
 20
-35.7544
 11
0.186447
 21
-35.7516
  0
LINE
  8
0
 10
0.186447
 20
-35.7516
 11
0.683243
 21
-35.7712
  0
LINE
  8
0
 10
0.683243
 20
-35.7712
 11
1.17865
 21
-35.8133
  0
LINE
  8
0
 10
1.17865
 20
-35.8133
 11
1.67165
 21
-35.8778
  0
LINE
  8
0
 10
1.67165
 20
-35.8778
 11
2.16122
 21
-35.9644
  0
LINE
  8
0
 10
2.16122
 20
-35.9644
 11
2.64639
 21
-36.0731
  0
LINE
  8
0
 10
2.64639
 20
-36.0731
 11
3.12614
 21
-36.2036
  0
LINE
  8
0
 10
3.12614
 20
-36.2036
 11
3.59952
 21
-36.3556
  0
LINE
  8
0
 10
3.59952
 20
-36.3556
 11
4.06554
 21
-36.5289
  0
LINE
  8
0
 10
4.06554
 20
-36.5289
 11
4.52325
 21
-36.723
  0
LINE
  8
0
 10
4.52325
 20
-36.723
 11
4.97173
 21
-36.9377
  0
LINE
  8
0
 10
4.97173
 20
-36.9377
 11
5.41003
 21
-37.1723
  0
LINE
  8
0
 10
5.41003
 20
-37.1723
 11
5.8373
 21
-37.4266
  0
LINE
  8
0
 10
5.8373
 20
-37.4266
 11
6.25264
 21
-37.6999
  0
LINE
  8
0
 10
6.25264
 20
-37.6999
 11
6.6552
 21
-37.9917
  0
LINE
  8
0
 10
6.6552
 20
-37.9917
 11
7.04417
 21
-38.3013
  0
LINE
  8
0
 10
7.04417
 20
-38.3013
 11
7.41875
 21
-38.6283
  0
LINE
  8
0
 10
7.41875
 20
-38.6283
 11
7.77817
 21
-38.9718
  0
LINE
  8
0
 10
7.77817
 20
-38.9718
 11
8.1217
 21
-39.3312
  0
LINE
  8
0
 10
8.1217
 20
-39.3312
 11
8.44864
 21
-39.7058
  0
LINE
  8
0
 10
8.44864
 20
-39.7058
 11
8.75832
 21
-40.0948
  0
LINE
  8
0
 10
8.75832
 20
-40.0948
 11
9.05009
 21
-40.4973
  0
LINE
  8
0
 10
9.05009
 20
-40.4973
 11
9.32339
 21
-40.9127
  0
LINE
  8
0
 10
9.32339
 20
-40.9127
 11
9.57764
 21
-41.34
  0
LINE
  8
0
 10
9.57764
 20
-41.34
 11
9.81233
 21
-41.7783
  0
LINE
  8
0
 10
9.81233
 20
-41.7783
 11
10.027
 21
-42.2267
  0
LINE
  8
0
 10
10.027
 20
-42.2267
 11
10.2211
 21
-42.6844
  0
LINE
  8
0
 10
10.2211
 20
-42.6844
 11
10.3944
 21
-43.1505
  0
LINE
  8
0
 10
10.3944
 20
-43.1505
 11
10.5464
 21
-43.6238
  0
LINE
  8
0
 10
10.5464
 20
-43.6238
 11
10.6769
 21
-44.1036
  0
LINE
  8
0
 10
10.6769
 20
-44.1036
 11
10.7856
 21
-44.5888
  0
LINE
  8
0
 10
10.7856
 20
-44.5888
 11
10.8722
 21
-45.0783
  0
LINE
  8
0
 10
10.8722
 20
-45.0783
 11
10.9367
 21
-45.5713
  0
LINE
  8
0
 10
10.9367
 20
-45.5713
 11
10.9787
 21
-46.0667
  0
LINE
  8
0
 10
10.9787
 20
-46.0667
 11
10.9984
 21
-46.5635
  0
LINE
  8
0
 10
10.9984
 20
-46.5635
 11
10.9956
 21
-47.0607
  0
LINE
  8
0
 10
10.9956
 20
-47.0607
 11
10.9703
 21
-47.5573
  0
LINE
  8
0
 10
10.9703
 20
-47.5573
 11
10.9226
 21
-48.0522
  0
LINE
  8
0
 10
10.9226
 20
-48.0522
 11
10.8526
 21
-48.5444
  0
LINE
  8
0
 10
10.8526
 20
-48.5444
 11
10.7605
 21
-49.033
  0
LINE
  8
0
 10
10.7605
 20
-49.033
 11
10.6463
 21
-49.5169
  0
LINE
  8
0
 10
10.6463
 20
-49.5169
 11
10.5104
 21
-49.9951
  0
LINE
  8
0
 10
10.5104
 20
-49.9951
 11
10.4254
 21
-50.25
  0
LINE
  8
0
 10
10.4254
 20
-50.25
 11
111.438
 21
-50.25
  0
LINE
  8
0
 10
111.438
 20
-50.25
 11
111.251
 21
-50.0584
  0
LINE
  8
0
 10
111.251
 20
-50.0584
 11
110.94
 21
-49.6687
  0
LINE
  8
0
 10
110.94
 20
-49.6687
 11
110.67
 21
-49.25
  0
LINE
  8
0
 10
110.67
 20
-49.25
 11
110.442
 21
-48.8064
  0
LINE
  8
0
 10
110.442
 20
-48.8064
 11
110.26
 21
-48.3424
  0
LINE
  8
0
 10
110.26
 20
-48.3424
 11
110.125
 21
-47.8626
  0
LINE
  8
0
 10
110.125
 20
-47.8626
 11
110.039
 21
-47.3717
  0
LINE
  8
0
 10
110.039
 20
-47.3717
 11
110.002
 21
-46.8746
  0
LINE
  8
0
 10
110.002
 20
-46.8746
 11
110.014
 21
-46.3763
  0
LINE
  8
0
 10
110.014
 20
-46.3763
 11
110.076
 21
-45.8818
  0
LINE
  8
0
 10
110.076
 20
-45.8818
 11
110.187
 21
-45.3958
  0
LINE
  8
0
 10
110.187
 20
-45.3958
 11
110.346
 21
-44.9233
  0
LINE
  8
0
 10
110.346
 20
-44.9233
 11
110.551
 21
-44.4689
  0
LINE
  8
0
 10
110.551
 20
-44.4689
 11
110.8
 21
-44.0373
  0
LINE
  8
0
 10
110.8
 20
-44.0373
 11
111.091
 21
-43.6325
  0
LINE
  8
0
 10
111.091
 20
-43.6325
 11
111.421
 21
-43.2588
  0
LINE
  8
0
 10
111.421
 20
-43.2588
 11
111.786
 21
-42.9198
  0
LINE
  8
0
 10
111.786
 20
-42.9198
 11
112.183
 21
-42.6188
  0
LINE
  8
0
 10
112.183
 20
-42.6188
 11
112.609
 21
-42.3589
  0
LINE
  8
0
 10
112.609
 20
-42.3589
 11
113.058
 21
-42.1426
  0
LINE
  8
0
 10
113.058
 20
-42.1426
 11
113.526
 21
-41.9721
  0
LINE
  8
0
 10
113.526
 20
-41.9721
 11
114.009
 21
-41.8491
  0
LINE
  8
0
 10
114.009
 20
-41.8491
 11
114.502
 21
-41.7748
  0
LINE
  8
0
 10
114.502
 20
-41.7748
 11
115
 21
-41.75
  0
LINE
  8
0
 10
115
 20
-41.75
 11
115.498
 21
-41.7748
  0
LINE
  8
0
 10
115.498
 20
-41.7748
 11
115.991
 21
-41.8491
  0
LINE
  8
0
 10
115.991
 20
-41.8491
 11
116.474
 21
-41.9721
  0
LINE
  8
0
 10
116.474
 20
-41.9721
 11
116.942
 21
-42.1426
  0
LINE
  8
0
 10
116.942
 20
-42.1426
 11
117.391
 21
-42.3589
  0
LINE
  8
0
 10
117.391
 20
-42.3589
 11
117.817
 21
-42.6188
  0
LINE
  8
0
 10
117.817
 20
-42.6188
 11
118.214
 21
-42.9198
  0
LINE
  8
0
 10
118.214
 20
-42.9198
 11
118.579
 21
-43.2588
  0
LINE
  8
0
 10
118.579
 20
-43.2588
 11
118.909
 21
-43.6325
  0
LINE
  8
0
 10
118.909
 20
-43.6325
 11
119.2
 21
-44.0373
  0
LINE
  8
0
 10
119.2
 20
-44.0373
 11
119.449
 21
-44.4689
  0
LINE
  8
0
 10
119.449
 20
-44.4689
 11
119.654
 21
-44.9233
  0
LINE
  8
0
 10
119.654
 20
-44.9233
 11
119.813
 21
-45.3958
  0
LINE
  8
0
 10
119.813
 20
-45.3958
 11
119.924
 21
-45.8818
  0
LINE
  8
0
 10
119.924
 20
-45.8818
 11
119.986
 21
-46.3763
  0
LINE
  8
0
 10
119.986
 20
-46.3763
 11
119.998
 21
-46.8746
  0
LINE
  8
0
 10
119.998
 20
-46.8746
 11
119.961
 21
-47.3717
  0
LINE
  8
0
 10
119.961
 20
-47.3717
 11
119.875
 21
-47.8626
  0
LINE
  8
0
 10
119.875
 20
-47.8626
 11
119.74
 21
-48.3424
  0
LINE
  8
0
 10
119.74
 20
-48.3424
 11
119.558
 21
-48.8064
  0
LINE
  8
0
 10
119.558
 20
-48.8064
 11
119.33
 21
-49.25
  0
LINE
  8
0
 10
119.33
 20
-49.25
 11
119.06
 21
-49.6687
  0
LINE
  8
0
 10
119.06
 20
-49.6687
 11
118.749
 21
-50.0584
  0
LINE
  8
0
 10
118.749
 20
-50.0584
 11
118.562
 21
-50.25
  0
LINE
  8
0
 10
118.562
 20
-50.25
 11
139.574
 21
-50.25
  0
LINE
  8
0
 10
139.574
 20
-50.25
 11
139.527
 21
-50.1137
  0
LINE
  8
0
 10
139.527
 20
-50.1137
 11
139.386
 21
-49.637
  0
LINE
  8
0
 10
139.386
 20
-49.637
 11
139.266
 21
-49.1544
  0
LINE
  8
0
 10
139.266
 20
-49.1544
 11
139.168
 21
-48.6669
  0
LINE
  8
0
 10
139.168
 20
-48.6669
 11
139.093
 21
-48.1755
  0
LINE
  8
0
 10
139.093
 20
-48.1755
 11
139.039
 21
-47.6812
  0
LINE
  8
0
 10
139.039
 20
-47.6812
 11
139.009
 21
-47.185
  0
LINE
  8
0
 10
139.009
 20
-47.185
 11
139
 21
-46.6878
  0
LINE
  8
0
 10
139
 20
-46.6878
 11
139.014
 21
-46.1909
  0
LINE
  8
0
 10
139.014
 20
-46.1909
 11
139.051
 21
-45.695
  0
LINE
  8
0
 10
139.051
 20
-45.695
 11
139.11
 21
-45.2013
  0
LINE
  8
0
 10
139.11
 20
-45.2013
 11
139.191
 21
-44.7108
  0
LINE
  8
0
 10
139.191
 20
-44.7108
 11
139.294
 21
-44.2244
  0
LINE
  8
0
 10
139.294
 20
-44.2244
 11
139.419
 21
-43.7432
  0
LINE
  8
0
 10
139.419
 20
-43.7432
 11
139.566
 21
-43.2682
  0
LINE
  8
0
 10
139.566
 20
-43.2682
 11
139.734
 21
-42.8002
  0
LINE
  8
0
 10
139.734
 20
-42.8002
 11
139.923
 21
-42.3403
  0
LINE
  8
0
 10
139.923
 20
-42.3403
 11
140.132
 21
-41.8895
  0
LINE
  8
0
 10
140.132
 20
-41.8895
 11
140.362
 21
-41.4485
  0
LINE
  8
0
 10
140.362
 20
-41.4485
 11
140.611
 21
-41.0184
  0
LINE
  8
0
 10
140.611
 20
-41.0184
 11
140.88
 21
-40.6
  0
LINE
  8
0
 10
140.88
 20
-40.6
 11
141.167
 21
-40.1942
  0
LINE
  8
0
 10
141.167
 20
-40.1942
 11
141.472
 21
-39.8017
  0
LINE
  8
0
 10
141.472
 20
-39.8017
 11
141.795
 21
-39.4235
  0
LINE
  8
0
 10
141.795
 20
-39.4235
 11
142.134
 21
-39.0602
  0
LINE
  8
0
 10
142.134
 20
-39.0602
 11
142.49
 21
-38.7126
  0
LINE
  8
0
 10
142.49
 20
-38.7126
 11
142.861
 21
-38.3815
  0
LINE
  8
0
 10
142.861
 20
-38.3815
 11
143.246
 21
-38.0674
  0
LINE
  8
0
 10
143.246
 20
-38.0674
 11
143.645
 21
-37.7711
  0
LINE
  8
0
 10
143.645
 20
-37.7711
 11
144.058
 21
-37.4931
  0
LINE
  8
0
 10
144.058
 20
-37.4931
 11
144.482
 21
-37.2341
  0
LINE
  8
0
 10
144.482
 20
-37.2341
 11
144.918
 21
-36.9945
  0
LINE
  8
0
 10
144.918
 20
-36.9945
 11
145.364
 21
-36.7748
  0
LINE
  8
0
 10
145.364
 20
-36.7748
 11
145.819
 21
-36.5755
  0
LINE
  8
0
 10
145.819
 20
-36.5755
 11
146.283
 21
-36.3969
  0
LINE
  8
0
 10
146.283
 20
-36.3969
 11
146.755
 21
-36.2396
  0
LINE
  8
0
 10
146.755
 20
-36.2396
 11
147.233
 21
-36.1037
  0
LINE
  8
0
 10
147.233
 20
-36.1037
 11
147.717
 21
-35.9895
  0
LINE
  8
0
 10
147.717
 20
-35.9895
 11
148.206
 21
-35.8973
  0
LINE
  8
0
 10
148.206
 20
-35.8973
 11
148.698
 21
-35.8273
  0
LINE
  8
0
 10
148.698
 20
-35.8273
 11
149.193
 21
-35.7797
  0
LINE
  8
0
 10
149.193
 20
-35.7797
 11
149.689
 21
-35.7544
  0
LINE
  8
0
 10
149.689
 20
-35.7544
 11
150.186
 21
-35.7516
  0
LINE
  8
0
 10
150.186
 20
-35.7516
 11
150.683
 21
-35.7712
  0
LINE
  8
0
 10
150.683
 20
-35.7712
 11
151.179
 21
-35.8133
  0
LINE
  8
0
 10
151.179
 20
-35.8133
 11
151.672
 21
-35.8778
  0
LINE
  8
0
 10
151.672
 20
-35.8778
 11
152.161
 21
-35.9644
  0
LINE
  8
0
 10
152.161
 20
-35.9644
 11
152.646
 21
-36.0731
  0
LINE
  8
0
 10
152.646
 20
-36.0731
 11
153.126
 21
-36.2036
  0
LINE
  8
0
 10
153.126
 20
-36.2036
 11
153.6
 21
-36.3556
  0
LINE
  8
0
 10
153.6
 20
-36.3556
 11
154.066
 21
-36.5289
  0
LINE
  8
0
 10
154.066
 20
-36.5289
 11
154.523
 21
-36.723
  0
LINE
  8
0
 10
154.523
 20
-36.723
 11
154.972
 21
-36.9377
  0
LINE
  8
0
 10
154.972
 20
-36.9377
 11
155.41
 21
-37.1723
  0
LINE
  8
0
 10
155.41
 20
-37.1723
 11
155.837
 21
-37.4266
  0
LINE
  8
0
 10
155.837
 20
-37.4266
 11
156.253
 21
-37.6999
  0
LINE
  8
0
 10
156.253
 20
-37.6999
 11
156.655
 21
-37.9917
  0
LINE
  8
0
 10
156.655
 20
-37.9917
 11
157.044
 21
-38.3013
  0
LINE
  8
0
 10
157.044
 20
-38.3013
 11
157.419
 21
-38.6283
  0
LINE
  8
0
 10
157.419
 20
-38.6283
 11
157.778
 21
-38.9718
  0
LINE
  8
0
 10
157.778
 20
-38.9718
 11
158.122
 21
-39.3312
  0
LINE
  8
0
 10
158.122
 20
-39.3312
 11
158.449
 21
-39.7058
  0
LINE
  8
0
 10
158.449
 20
-39.7058
 11
158.758
 21
-40.0948
  0
LINE
  8
0
 10
158.758
 20
-40.0948
 11
159.05
 21
-40.4973
  0
LINE
  8
0
 10
159.05
 20
-40.4973
 11
159.323
 21
-40.9127
  0
LINE
  8
0
 10
159.323
 20
-40.9127
 11
159.578
 21
-41.34
  0
LINE
  8
0
 10
159.578
 20
-41.34
 11
159.812
 21
-41.7783
  0
LINE
  8
0
 10
159.812
 20
-41.7783
 11
160.027
 21
-42.2267
  0
LINE
  8
0
 10
160.027
 20
-42.2267
 11
160.221
 21
-42.6844
  0
LINE
  8
0
 10
160.221
 20
-42.6844
 11
160.394
 21
-43.1505
  0
LINE
  8
0
 10
160.394
 20
-43.1505
 11
160.546
 21
-43.6238
  0
LINE
  8
0
 10
160.546
 20
-43.6238
 11
160.677
 21
-44.1036
  0
LINE
  8
0
 10
160.677
 20
-44.1036
 11
160.786
 21
-44.5888
  0
LINE
  8
0
 10
160.786
 20
-44.5888
 11
160.872
 21
-45.0783
  0
LINE
  8
0
 10
160.872
 20
-45.0783
 11
160.937
 21
-45.5713
  0
LINE
  8
0
 10
160.937
 20
-45.5713
 11
160.979
 21
-46.0667
  0
LINE
  8
0
 10
160.979
 20
-46.0667
 11
160.998
 21
-46.5635
  0
LINE
  8
0
 10
160.998
 20
-46.5635
 11
160.996
 21
-47.0607
  0
LINE
  8
0
 10
160.996
 20
-47.0607
 11
160.97
 21
-47.5573
  0
LINE
  8
0
 10
160.97
 20
-47.5573
 11
160.923
 21
-48.0522
  0
LINE
  8
0
 10
160.923
 20
-48.0522
 11
160.853
 21
-48.5444
  0
LINE
  8
0
 10
160.853
 20
-48.5444
 11
160.76
 21
-49.033
  0
LINE
  8
0
 10
160.76
 20
-49.033
 11
160.646
 21
-49.5169
  0
LINE
  8
0
 10
160.646
 20
-49.5169
 11
160.51
 21
-49.9951
  0
LINE
  8
0
 10
160.51
 20
-49.9951
 11
160.425
 21
-50.25
  0
LINE
  8
0
 10
160.425
 20
-50.25
 11
239.75
 21
-50.25
  0
LINE
  8
0
 10
239.75
 20
-50.25
 11
239.75
 21
9.75
  0
LINE
  8
0
 10
239.75
 20
9.75
 11
234.247
 21
9.75
  0
LINE
  8
0
 10
234.247
 20
9.75
 11
234.095
 21
10.0607
  0
LINE
  8
0
 10
234.095
 20
10.0607
 11
233.852
 21
10.4922
  0
LINE
  8
0
 10
233.852
 20
10.4922
 11
231.211
 21
15.063
  0
LINE
  8
0
 10
231.211
 20
15.063
 11
230.959
 21
15.4872
  0
LINE
  8
0
 10
230.959
 20
15.4872
 11
230.666
 21
15.8843
  0
LINE
  8
0
 10
230.666
 20
15.8843
 11
230.335
 21
16.2502
  0
LINE
  8
0
 10
230.335
 20
16.2502
 11
207.086
 21
39.4964
  0
LINE
  8
0
 10
207.086
 20
39.4964
 11
206.729
 21
39.8365
  0
LINE
  8
0
 10
206.729
 20
39.8365
 11
206.339
 21
40.1393
  0
LINE
  8
0
 10
206.339
 20
40.1393
 11
205.921
 21
40.4019
  0
LINE
  8
0
 10
205.921
 20
40.4019
 11
205.479
 21
40.6215
  0
LINE
  8
0
 10
205.479
 20
40.6215
 11
205.018
 21
40.7961
  0
LINE
  8
0
 10
205.018
 20
40.7961
 11
204.541
 21
40.9238
  0
LINE
  8
0
 10
204.541
 20
40.9238
 11
204.054
 21
41.0034
  0
LINE
  8
0
 10
204.054
 20
41.0034
 11
203.562
 21
41.0341
  0
LINE
  8
0
 10
203.562
 20
41.0341
 11
203.069
 21
41.0157
  0
LINE
  8
0
 10
203.069
 20
41.0157
 11
202.58
 21
40.9482
  0
LINE
  8
0
 10
202.58
 20
40.9482
 11
202.1
 21
40.8324
  0
LINE
  8
0
 10
202.1
 20
40.8324
 11
201.634
 21
40.6694
  0
LINE
  8
0
 10
201.634
 20
40.6694
 11
201.187
 21
40.4609
  0
LINE
  8
0
 10
201.187
 20
40.4609
 11
200.763
 21
40.2088
  0
LINE
  8
0
 10
200.763
 20
40.2088
 11
200.366
 21
39.9158
  0
LINE
  8
0
 10
200.366
 20
39.9158
 11
200
 21
39.5847
  0
LINE
  8
0
 10
200
 20
39.5847
 11
176.754
 21
16.3363
  0
LINE
  8
0
 10
176.754
 20
16.3363
 11
176.414
 21
15.9788
  0
LINE
  8
0
 10
176.414
 20
15.9788
 11
176.111
 21
15.5892
  0
LINE
  8
0
 10
176.111
 20
15.5892
 11
175.848
 21
15.1714
  0
LINE
  8
0
 10
175.848
 20
15.1714
 11
173.148
 21
10.4922
  0
LINE
  8
0
 10
173.148
 20
10.4922
 11
172.905
 21
10.0607
  0
LINE
  8
0
 10
172.905
 20
10.0607
 11
172.753
 21
9.75
  0
LINE
  8
0
 10
172.753
 20
9.75
 11
-172.753
 21
9.75
  0
LINE
  8
0
 10
-172.753
 20
9.75
 11
-172.905
 21
10.0607
  0
LINE
  8
0
 10
-172.905
 20
10.0607
 11
-173.148
 21
10.4922
  0
LINE
  8
0
 10
-173.148
 20
10.4922
 11
-175.848
 21
15.1714
  0
LINE
  8
0
 10
-175.848
 20
15.1714
 11
-176.111
 21
15.5892
  0
LINE
  8
0
 10
-176.111
 20
15.5892
 11
-176.414
 21
15.9788
  0
LINE
  8
0
 10
-176.414
 20
15.9788
 11
-176.754
 21
16.3363
  0
LINE
  8
0
 10
-176.754
 20
16.3363
 11
-200
 21
39.5847
  0
LINE
  8
0
 10
-200
 20
39.5847
 11
-200.366
 21
39.9158
  0
LINE
  8
0
 10
-200.366
 20
39.9158
 11
-200.763
 21
40.2088
  0
LINE
  8
0
 10
-200.763
 20
40.2088
 11
-201.187
 21
40.4609
  0
LINE
  8
0
 10
-201.187
 20
40.4609
 11
-201.634
 21
40.6694
  0
LINE
  8
0
 10
-201.634
 20
40.6694
 11
-202.1
 21
40.8324
  0
LINE
  8
0
 10
-202.1
 20
40.8324
 11
-202.58
 21
40.9482
  0
LINE
  8
0
 10
-202.58
 20
40.9482
 11
-203.069
 21
41.0157
  0
LINE
  8
0
 10
-203.069
 20
41.0157
 11
-203.562
 21
41.0341
  0
LINE
  8
0
 10
-203.562
 20
41.0341
 11
-204.054
 21
41.0034
  0
LINE
  8
0
 10
-204.054
 20
41.0034
 11
-204.541
 21
40.9238
  0
LINE
  8
0
 10
-204.541
 20
40.9238
 11
-205.018
 21
40.7961
  0
LINE
  8
0
 10
-205.018
 20
40.7961
 11
-205.479
 21
40.6215
  0
LINE
  8
0
 10
-205.479
 20
40.6215
 11
-205.921
 21
40.4019
  0
LINE
  8
0
 10
-205.921
 20
40.4019
 11
-206.339
 21
40.1393
  0
LINE
  8
0
 10
-206.339
 20
40.1393
 11
-206.729
 21
39.8365
  0
LINE
  8
0
 10
-206.729
 20
39.8365
 11
-207.086
 21
39.4964
  0
LINE
  8
0
 10
-207.086
 20
39.4964
 11
-230.335
 21
16.2502
  0
LINE
  8
0
 10
-230.335
 20
16.2502
 11
-230.666
 21
15.8843
  0
LINE
  8
0
 10
-230.666
 20
15.8843
 11
-230.959
 21
15.4872
  0
LINE
  8
0
 10
-230.959
 20
15.4872
 11
-231.211
 21
15.063
  0
LINE
  8
0
 10
-231.211
 20
15.063
 11
-233.852
 21
10.4922
  0
LINE
  8
0
 10
-233.852
 20
10.4922
 11
-234.095
 21
10.0607
  0
LINE
  8
0
 10
-234.095
 20
10.0607
 11
-234.247
 21
9.75
  0
LINE
  8
0
 10
-234.247
 20
9.75
 11
-239.75
 21
9.75
  0
LINE
  8
0
 10
-239.75
 20
9.75
 11
-239.75
 21
-50.25
  0
LINE
  8
0
 10
-239.75
 20
-50.25
 11
-160.426
 21
-50.25
  0
LINE
  8
0
 10
-160.426
 20
-50.25
 11
-160.473
 21
-50.1137
  0
LINE
  8
0
 10
-203.861
 20
31.5949
 11
-204.315
 21
31.764
  0
LINE
  8
0
 10
-204.315
 20
31.764
 11
-204.702
 21
32.054
  0
LINE
  8
0
 10
-204.702
 20
32.054
 11
-204.992
 21
32.4414
  0
LINE
  8
0
 10
-204.992
 20
32.4414
 11
-205.161
 21
32.8947
  0
LINE
  8
0
 10
-205.161
 20
32.8947
 11
-205.196
 21
33.3774
  0
LINE
  8
0
 10
-205.196
 20
33.3774
 11
-205.196
 21
36.2058
  0
LINE
  8
0
 10
-205.196
 20
36.2058
 11
-205.093
 21
36.6786
  0
LINE
  8
0
 10
-205.093
 20
36.6786
 11
-204.861
 21
37.1033
  0
LINE
  8
0
 10
-204.861
 20
37.1033
 11
-204.519
 21
37.4454
  0
LINE
  8
0
 10
-204.519
 20
37.4454
 11
-204.094
 21
37.6773
  0
LINE
  8
0
 10
-204.094
 20
37.6773
 11
-203.621
 21
37.7802
  0
LINE
  8
0
 10
-203.621
 20
37.7802
 11
-203.139
 21
37.7457
  0
LINE
  8
0
 10
-203.139
 20
37.7457
 11
-202.685
 21
37.5766
  0
LINE
  8
0
 10
-202.685
 20
37.5766
 11
-202.298
 21
37.2866
  0
LINE
  8
0
 10
-202.298
 20
37.2866
 11
-202.008
 21
36.8992
  0
LINE
  8
0
 10
-202.008
 20
36.8992
 11
-201.839
 21
36.4459
  0
LINE
  8
0
 10
-201.839
 20
36.4459
 11
-201.804
 21
35.9632
  0
LINE
  8
0
 10
-201.804
 20
35.9632
 11
-201.804
 21
33.1348
  0
LINE
  8
0
 10
-201.804
 20
33.1348
 11
-201.907
 21
32.662
  0
LINE
  8
0
 10
-201.907
 20
32.662
 11
-202.139
 21
32.2373
  0
LINE
  8
0
 10
-202.139
 20
32.2373
 11
-202.481
 21
31.8952
  0
LINE
  8
0
 10
-202.481
 20
31.8952
 11
-202.906
 21
31.6633
  0
LINE
  8
0
 10
-202.906
 20
31.6633
 11
-203.379
 21
31.5604
  0
LINE
  8
0
 10
-203.379
 20
31.5604
 11
-203.861
 21
31.5949
  0
LINE
  8
0
 10
202.906
 20
31.6633
 11
202.481
 21
31.8952
  0
LINE
  8
0
 10
202.481
 20
31.8952
 11
202.139
 21
32.2373
  0
LINE
  8
0
 10
202.139
 20
32.2373
 11
201.907
 21
32.662
  0
LINE
  8
0
 10
201.907
 20
32.662
 11
201.804
 21
33.1348
  0
LINE
  8
0
 10
201.804
 20
33.1348
 11
201.804
 21
35.9632
  0
LINE
  8
0
 10
201.804
 20
35.9632
 11
201.839
 21
36.4459
  0
LINE
  8
0
 10
201.839
 20
36.4459
 11
202.008
 21
36.8992
  0
LINE
  8
0
 10
202.008
 20
36.8992
 11
202.298
 21
37.2866
  0
LINE
  8
0
 10
202.298
 20
37.2866
 11
202.685
 21
37.5766
  0
LINE
  8
0
 10
202.685
 20
37.5766
 11
203.139
 21
37.7457
  0
LINE
  8
0
 10
203.139
 20
37.7457
 11
203.621
 21
37.7802
  0
LINE
  8
0
 10
203.621
 20
37.7802
 11
204.094
 21
37.6773
  0
LINE
  8
0
 10
204.094
 20
37.6773
 11
204.519
 21
37.4454
  0
LINE
  8
0
 10
204.519
 20
37.4454
 11
204.861
 21
37.1033
  0
LINE
  8
0
 10
204.861
 20
37.1033
 11
205.093
 21
36.6786
  0
LINE
  8
0
 10
205.093
 20
36.6786
 11
205.196
 21
36.2058
  0
LINE
  8
0
 10
205.196
 20
36.2058
 11
205.196
 21
33.3774
  0
LINE
  8
0
 10
205.196
 20
33.3774
 11
205.161
 21
32.8947
  0
LINE
  8
0
 10
205.161
 20
32.8947
 11
204.992
 21
32.4414
  0
LINE
  8
0
 10
204.992
 20
32.4414
 11
204.702
 21
32.054
  0
LINE
  8
0
 10
204.702
 20
32.054
 11
204.315
 21
31.764
  0
LINE
  8
0
 10
204.315
 20
31.764
 11
203.861
 21
31.5949
  0
LINE
  8
0
 10
203.861
 20
31.5949
 11
203.379
 21
31.5604
  0
LINE
  8
0
 10
203.379
 20
31.5604
 11
202.906
 21
31.6633
  0
LINE
  8
0
 10
-203.873
 20
0.255554
 11
-204.369
 21
0.280243
  0
LINE
  8
0
 10
-204.369
 20
0.280243
 11
-204.864
 21
0.324661
  0
LINE
  8
0
 10
-204.864
 20
0.324661
 11
-205.357
 21
0.388733
  0
LINE
  8
0
 10
-205.357
 20
0.388733
 11
-205.847
 21
0.472336
  0
LINE
  8
0
 10
-205.847
 20
0.472336
 11
-206.333
 21
0.575363
  0
LINE
  8
0
 10
-206.333
 20
0.575363
 11
-206.815
 21
0.697632
  0
LINE
  8
0
 10
-206.815
 20
0.697632
 11
-207.292
 21
0.838959
  0
LINE
  8
0
 10
-207.292
 20
0.838959
 11
-207.762
 21
0.999115
  0
LINE
  8
0
 10
-207.762
 20
0.999115
 11
-208.226
 21
1.17786
  0
LINE
  8
0
 10
-208.226
 20
1.17786
 11
-208.682
 21
1.37491
  0
LINE
  8
0
 10
-208.682
 20
1.37491
 11
-209.131
 21
1.58994
  0
LINE
  8
0
 10
-209.131
 20
1.58994
 11
-209.57
 21
1.8226
  0
LINE
  8
0
 10
-209.57
 20
1.8226
 11
-209.999
 21
2.07256
  0
LINE
  8
0
 10
-209.999
 20
2.07256
 11
-210.419
 21
2.3394
  0
LINE
  8
0
 10
-210.419
 20
2.3394
 11
-210.827
 21
2.6227
  0
LINE
  8
0
 10
-210.827
 20
2.6227
 11
-211.224
 21
2.922
  0
LINE
  8
0
 10
-211.224
 20
2.922
 11
-211.609
 21
3.23685
  0
LINE
  8
0
 10
-211.609
 20
3.23685
 11
-211.98
 21
3.56674
  0
LINE
  8
0
 10
-211.98
 20
3.56674
 11
-212.339
 21
3.91116
  0
LINE
  8
0
 10
-212.339
 20
3.91116
 11
-212.683
 21
4.26955
  0
LINE
  8
0
 10
-212.683
 20
4.26955
 11
-213.013
 21
4.64134
  0
LINE
  8
0
 10
-213.013
 20
4.64134
 11
-213.328
 21
5.02597
  0
LINE
  8
0
 10
-213.328
 20
5.02597
 11
-213.627
 21
5.42281
  0
LINE
  8
0
 10
-213.627
 20
5.42281
 11
-213.911
 21
5.83122
  0
LINE
  8
0
 10
-213.911
 20
5.83122
 11
-214.177
 21
6.25058
  0
LINE
  8
0
 10
-214.177
 20
6.25058
 11
-214.427
 21
6.68021
  0
LINE
  8
0
 10
-214.427
 20
6.68021
 11
-214.66
 21
7.11945
  0
LINE
  8
0
 10
-214.66
 20
7.11945
 11
-214.875
 21
7.56758
  0
LINE
  8
0
 10
-214.875
 20
7.56758
 11
-215.072
 21
8.02391
  0
LINE
  8
0
 10
-215.072
 20
8.02391
 11
-215.251
 21
8.48772
  0
LINE
  8
0
 10
-215.251
 20
8.48772
 11
-215.411
 21
8.95827
  0
LINE
  8
0
 10
-215.411
 20
8.95827
 11
-215.552
 21
9.4348
  0
LINE
  8
0
 10
-215.552
 20
9.4348
 11
-215.675
 21
9.91658
  0
LINE
  8
0
 10
-215.675
 20
9.91658
 11
-215.778
 21
10.4028
  0
LINE
  8
0
 10
-215.778
 20
10.4028
 11
-215.861
 21
10.8928
  0
LINE
  8
0
 10
-215.861
 20
10.8928
 11
-215.925
 21
11.3857
  0
LINE
  8
0
 10
-215.925
 20
11.3857
 11
-215.97
 21
11.8808
  0
LINE
  8
0
 10
-215.97
 20
11.8808
 11
-215.994
 21
12.3772
  0
LINE
  8
0
 10
-215.994
 20
12.3772
 11
-215.999
 21
12.8743
  0
LINE
  8
0
 10
-215.999
 20
12.8743
 11
-215.985
 21
13.3711
  0
LINE
  8
0
 10
-215.985
 20
13.3711
 11
-215.95
 21
13.8669
  0
LINE
  8
0
 10
-215.95
 20
13.8669
 11
-215.896
 21
14.361
  0
LINE
  8
0
 10
-215.896
 20
14.361
 11
-215.822
 21
14.8526
  0
LINE
  8
0
 10
-215.822
 20
14.8526
 11
-215.729
 21
15.3408
  0
LINE
  8
0
 10
-215.729
 20
15.3408
 11
-215.616
 21
15.8249
  0
LINE
  8
0
 10
-215.616
 20
15.8249
 11
-215.484
 21
16.3042
  0
LINE
  8
0
 10
-215.484
 20
16.3042
 11
-215.333
 21
16.7778
  0
LINE
  8
0
 10
-215.333
 20
16.7778
 11
-215.164
 21
17.2451
  0
LINE
  8
0
 10
-215.164
 20
17.2451
 11
-214.976
 21
17.7052
  0
LINE
  8
0
 10
-214.976
 20
17.7052
 11
-214.77
 21
18.1575
  0
LINE
  8
0
 10
-214.77
 20
18.1575
 11
-214.546
 21
18.6013
  0
LINE
  8
0
 10
-214.546
 20
18.6013
 11
-214.305
 21
19.0358
  0
LINE
  8
0
 10
-214.305
 20
19.0358
 11
-214.046
 21
19.4604
  0
LINE
  8
0
 10
-214.046
 20
19.4604
 11
-213.771
 21
19.8744
  0
LINE
  8
0
 10
-213.771
 20
19.8744
 11
-213.48
 21
20.2771
  0
LINE
  8
0
 10
-213.48
 20
20.2771
 11
-213.172
 21
20.6679
  0
LINE
  8
0
 10
-213.172
 20
20.6679
 11
-212.85
 21
21.0462
  0
LINE
  8
0
 10
-212.85
 20
21.0462
 11
-212.513
 21
21.4113
  0
LINE
  8
0
 10
-212.513
 20
21.4113
 11
-212.161
 21
21.7628
  0
LINE
  8
0
 10
-212.161
 20
21.7628
 11
-211.796
 21
22.1
  0
LINE
  8
0
 10
-211.796
 20
22.1
 11
-211.418
 21
22.4225
  0
LINE
  8
0
 10
-211.418
 20
22.4225
 11
-211.027
 21
22.7296
  0
LINE
  8
0
 10
-211.027
 20
22.7296
 11
-210.624
 21
23.021
  0
LINE
  8
0
 10
-210.624
 20
23.021
 11
-210.21
 21
23.2961
  0
LINE
  8
0
 10
-210.21
 20
23.2961
 11
-209.786
 21
23.5545
  0
LINE
  8
0
 10
-209.786
 20
23.5545
 11
-209.351
 21
23.7959
  0
LINE
  8
0
 10
-209.351
 20
23.7959
 11
-208.908
 21
24.0198
  0
LINE
  8
0
 10
-208.908
 20
24.0198
 11
-208.455
 21
24.2259
  0
LINE
  8
0
 10
-208.455
 20
24.2259
 11
-207.995
 21
24.4138
  0
LINE
  8
0
 10
-207.995
 20
24.4138
 11
-207.528
 21
24.5833
  0
LINE
  8
0
 10
-207.528
 20
24.5833
 11
-207.054
 21
24.7341
  0
LINE
  8
0
 10
-207.054
 20
24.7341
 11
-206.575
 21
24.8659
  0
LINE
  8
0
 10
-206.575
 20
24.8659
 11
-206.091
 21
24.9786
  0
LINE
  8
0
 10
-206.091
 20
24.9786
 11
-205.603
 21
25.0719
  0
LINE
  8
0
 10
-205.603
 20
25.0719
 11
-205.111
 21
25.1457
  0
LINE
  8
0
 10
-205.111
 20
25.1457
 11
-204.617
 21
25.2
  0
LINE
  8
0
 10
-204.617
 20
25.2
 11
-204.121
 21
25.2346
  0
LINE
  8
0
 10
-204.121
 20
25.2346
 11
-203.624
 21
25.2494
  0
LINE
  8
0
 10
-203.624
 20
25.2494
 11
-203.127
 21
25.2444
  0
LINE
  8
0
 10
-203.127
 20
25.2444
 11
-202.631
 21
25.2197
  0
LINE
  8
0
 10
-202.631
 20
25.2197
 11
-202.136
 21
25.1753
  0
LINE
  8
0
 10
-202.136
 20
25.1753
 11
-201.643
 21
25.1113
  0
LINE
  8
0
 10
-201.643
 20
25.1113
 11
-201.153
 21
25.0276
  0
LINE
  8
0
 10
-201.153
 20
25.0276
 11
-200.667
 21
24.9246
  0
LINE
  8
0
 10
-200.667
 20
24.9246
 11
-200.185
 21
24.8024
  0
LINE
  8
0
 10
-200.185
 20
24.8024
 11
-199.708
 21
24.661
  0
LINE
  8
0
 10
-199.708
 20
24.661
 11
-199.238
 21
24.5009
  0
LINE
  8
0
 10
-199.238
 20
24.5009
 11
-198.774
 21
24.3221
  0
LINE
  8
0
 10
-198.774
 20
24.3221
 11
-198.318
 21
24.1251
  0
LINE
  8
0
 10
-198.318
 20
24.1251
 11
-197.869
 21
23.91
  0
LINE
  8
0
 10
-197.869
 20
23.91
 11
-197.43
 21
23.6774
  0
LINE
  8
0
 10
-197.43
 20
23.6774
 11
-197.001
 21
23.4274
  0
LINE
  8
0
 10
-197.001
 20
23.4274
 11
-196.581
 21
23.1606
  0
LINE
  8
0
 10
-196.581
 20
23.1606
 11
-196.173
 21
22.8773
  0
LINE
  8
0
 10
-196.173
 20
22.8773
 11
-195.776
 21
22.578
  0
LINE
  8
0
 10
-195.776
 20
22.578
 11
-195.391
 21
22.2631
  0
LINE
  8
0
 10
-195.391
 20
22.2631
 11
-195.02
 21
21.9332
  0
LINE
  8
0
 10
-195.02
 20
21.9332
 11
-194.661
 21
21.5888
  0
LINE
  8
0
 10
-194.661
 20
21.5888
 11
-194.317
 21
21.2304
  0
LINE
  8
0
 10
-194.317
 20
21.2304
 11
-193.987
 21
20.8586
  0
LINE
  8
0
 10
-193.987
 20
20.8586
 11
-193.672
 21
20.474
  0
LINE
  8
0
 10
-193.672
 20
20.474
 11
-193.373
 21
20.0772
  0
LINE
  8
0
 10
-193.373
 20
20.0772
 11
-193.089
 21
19.6688
  0
LINE
  8
0
 10
-193.089
 20
19.6688
 11
-192.823
 21
19.2494
  0
LINE
  8
0
 10
-192.823
 20
19.2494
 11
-192.573
 21
18.8198
  0
LINE
  8
0
 10
-192.573
 20
18.8198
 11
-192.34
 21
18.3805
  0
LINE
  8
0
 10
-192.34
 20
18.3805
 11
-192.125
 21
17.9324
  0
LINE
  8
0
 10
-192.125
 20
17.9324
 11
-191.928
 21
17.4761
  0
LINE
  8
0
 10
-191.928
 20
17.4761
 11
-191.749
 21
17.0123
  0
LINE
  8
0
 10
-191.749
 20
17.0123
 11
-191.589
 21
16.5417
  0
LINE
  8
0
 10
-191.589
 20
16.5417
 11
-191.448
 21
16.0652
  0
LINE
  8
0
 10
-191.448
 20
16.0652
 11
-191.325
 21
15.5834
  0
LINE
  8
0
 10
-191.325
 20
15.5834
 11
-191.222
 21
15.0971
  0
LINE
  8
0
 10
-191.222
 20
15.0971
 11
-191.139
 21
14.6072
  0
LINE
  8
0
 10
-191.139
 20
14.6072
 11
-191.075
 21
14.1143
  0
LINE
  8
0
 10
-191.075
 20
14.1143
 11
-191.03
 21
13.6192
  0
LINE
  8
0
 10
-191.03
 20
13.6192
 11
-191.006
 21
13.1228
  0
LINE
  8
0
 10
-191.006
 20
13.1228
 11
-191.001
 21
12.6257
  0
LINE
  8
0
 10
-191.001
 20
12.6257
 11
-191.015
 21
12.1289
  0
LINE
  8
0
 10
-191.015
 20
12.1289
 11
-191.05
 21
11.633
  0
LINE
  8
0
 10
-191.05
 20
11.633
 11
-191.104
 21
11.1389
  0
LINE
  8
0
 10
-191.104
 20
11.1389
 11
-191.178
 21
10.6474
  0
LINE
  8
0
 10
-191.178
 20
10.6474
 11
-191.271
 21
10.1592
  0
LINE
  8
0
 10
-191.271
 20
10.1592
 11
-191.384
 21
9.67508
  0
LINE
  8
0
 10
-191.384
 20
9.67508
 11
-191.516
 21
9.19583
  0
LINE
  8
0
 10
-191.516
 20
9.19583
 11
-191.667
 21
8.7222
  0
LINE
  8
0
 10
-191.667
 20
8.7222
 11
-191.836
 21
8.25493
  0
LINE
  8
0
 10
-191.836
 20
8.25493
 11
-192.024
 21
7.79477
  0
LINE
  8
0
 10
-192.024
 20
7.79477
 11
-192.23
 21
7.34245
  0
LINE
  8
0
 10
-192.23
 20
7.34245
 11
-192.454
 21
6.89867
  0
LINE
  8
0
 10
-192.454
 20
6.89867
 11
-192.695
 21
6.46416
  0
LINE
  8
0
 10
-192.695
 20
6.46416
 11
-192.954
 21
6.03957
  0
LINE
  8
0
 10
-192.954
 20
6.03957
 11
-193.229
 21
5.6256
  0
LINE
  8
0
 10
-193.229
 20
5.6256
 11
-193.52
 21
5.2229
  0
LINE
  8
0
 10
-193.52
 20
5.2229
 11
-193.828
 21
4.83209
  0
LINE
  8
0
 10
-193.828
 20
4.83209
 11
-194.15
 21
4.45381
  0
LINE
  8
0
 10
-194.15
 20
4.45381
 11
-194.487
 21
4.08864
  0
LINE
  8
0
 10
-194.487
 20
4.08864
 11
-194.839
 21
3.73717
  0
LINE
  8
0
 10
-194.839
 20
3.73717
 11
-195.204
 21
3.39995
  0
LINE
  8
0
 10
-195.204
 20
3.39995
 11
-195.582
 21
3.07751
  0
LINE
  8
0
 10
-195.582
 20
3.07751
 11
-195.973
 21
2.77037
  0
LINE
  8
0
 10
-195.973
 20
2.77037
 11
-196.376
 21
2.47902
  0
LINE
  8
0
 10
-196.376
 20
2.47902
 11
-196.79
 21
2.20389
  0
LINE
  8
0
 10
-196.79
 20
2.20389
 11
-197.214
 21
1.94545
  0
LINE
  8
0
 10
-197.214
 20
1.94545
 11
-197.649
 21
1.70409
  0
LINE
  8
0
 10
-197.649
 20
1.70409
 11
-198.092
 21
1.48019
  0
LINE
  8
0
 10
-198.092
 20
1.48019
 11
-198.545
 21
1.27411
  0
LINE
  8
0
 10
-198.545
 20
1.27411
 11
-199.005
 21
1.08618
  0
LINE
  8
0
 10
-199.005
 20
1.08618
 11
-199.472
 21
0.916702
  0
LINE
  8
0
 10
-199.472
 20
0.916702
 11
-199.946
 21
0.76593
  0
LINE
  8
0
 10
-199.946
 20
0.76593
 11
-200.425
 21
0.634094
  0
LINE
  8
0
 10
-200.425
 20
0.634094
 11
-200.909
 21
0.521423
  0
LINE
  8
0
 10
-200.909
 20
0.521423
 11
-201.397
 21
0.428101
  0
LINE
  8
0
 10
-201.397
 20
0.428101
 11
-201.889
 21
0.354248
  0
LINE
  8
0
 10
-201.889
 20
0.354248
 11
-202.383
 21
0.300003
  0
LINE
  8
0
 10
-202.383
 20
0.300003
 11
-202.879
 21
0.265427
  0
LINE
  8
0
 10
-202.879
 20
0.265427
 11
-203.376
 21
0.25061
  0
LINE
  8
0
 10
-203.376
 20
0.25061
 11
-203.873
 21
0.255554
  0
LINE
  8
0
 10
202.879
 20
0.265427
 11
202.383
 21
0.300003
  0
LINE
  8
0
 10
202.383
 20
0.300003
 11
201.889
 21
0.354248
  0
LINE
  8
0
 10
201.889
 20
0.354248
 11
201.397
 21
0.428101
  0
LINE
  8
0
 10
201.397
 20
0.428101
 11
200.909
 21
0.521423
  0
LINE
  8
0
 10
200.909
 20
0.521423
 11
200.425
 21
0.634094
  0
LINE
  8
0
 10
200.425
 20
0.634094
 11
199.946
 21
0.76593
  0
LINE
  8
0
 10
199.946
 20
0.76593
 11
199.472
 21
0.916702
  0
LINE
  8
0
 10
199.472
 20
0.916702
 11
199.005
 21
1.08618
  0
LINE
  8
0
 10
199.005
 20
1.08618
 11
198.545
 21
1.27411
  0
LINE
  8
0
 10
198.545
 20
1.27411
 11
198.092
 21
1.48019
  0
LINE
  8
0
 10
198.092
 20
1.48019
 11
197.649
 21
1.70409
  0
LINE
  8
0
 10
197.649
 20
1.70409
 11
197.214
 21
1.94545
  0
LINE
  8
0
 10
197.214
 20
1.94545
 11
196.79
 21
2.20389
  0
LINE
  8
0
 10
196.79
 20
2.20389
 11
196.376
 21
2.47902
  0
LINE
  8
0
 10
196.376
 20
2.47902
 11
195.973
 21
2.77037
  0
LINE
  8
0
 10
195.973
 20
2.77037
 11
195.582
 21
3.07751
  0
LINE
  8
0
 10
195.582
 20
3.07751
 11
195.204
 21
3.39995
  0
LINE
  8
0
 10
195.204
 20
3.39995
 11
194.839
 21
3.73717
  0
LINE
  8
0
 10
194.839
 20
3.73717
 11
194.487
 21
4.08864
  0
LINE
  8
0
 10
194.487
 20
4.08864
 11
194.15
 21
4.45381
  0
LINE
  8
0
 10
194.15
 20
4.45381
 11
193.828
 21
4.83209
  0
LINE
  8
0
 10
193.828
 20
4.83209
 11
193.52
 21
5.2229
  0
LINE
  8
0
 10
193.52
 20
5.2229
 11
193.229
 21
5.6256
  0
LINE
  8
0
 10
193.229
 20
5.6256
 11
192.954
 21
6.03957
  0
LINE
  8
0
 10
192.954
 20
6.03957
 11
192.695
 21
6.46416
  0
LINE
  8
0
 10
192.695
 20
6.46416
 11
192.454
 21
6.89867
  0
LINE
  8
0
 10
192.454
 20
6.89867
 11
192.23
 21
7.34245
  0
LINE
  8
0
 10
192.23
 20
7.34245
 11
192.024
 21
7.79477
  0
LINE
  8
0
 10
192.024
 20
7.79477
 11
191.836
 21
8.25493
  0
LINE
  8
0
 10
191.836
 20
8.25493
 11
191.667
 21
8.7222
  0
LINE
  8
0
 10
191.667
 20
8.7222
 11
191.516
 21
9.19583
  0
LINE
  8
0
 10
191.516
 20
9.19583
 11
191.384
 21
9.67508
  0
LINE
  8
0
 10
191.384
 20
9.67508
 11
191.271
 21
10.1592
  0
LINE
  8
0
 10
191.271
 20
10.1592
 11
191.178
 21
10.6474
  0
LINE
  8
0
 10
191.178
 20
10.6474
 11
191.104
 21
11.1389
  0
LINE
  8
0
 10
191.104
 20
11.1389
 11
191.05
 21
11.633
  0
LINE
  8
0
 10
191.05
 20
11.633
 11
191.015
 21
12.1289
  0
LINE
  8
0
 10
191.015
 20
12.1289
 11
191.001
 21
12.6257
  0
LINE
  8
0
 10
191.001
 20
12.6257
 11
191.006
 21
13.1228
  0
LINE
  8
0
 10
191.006
 20
13.1228
 11
191.03
 21
13.6192
  0
LINE
  8
0
 10
191.03
 20
13.6192
 11
191.075
 21
14.1143
  0
LINE
  8
0
 10
191.075
 20
14.1143
 11
191.139
 21
14.6072
  0
LINE
  8
0
 10
191.139
 20
14.6072
 11
191.222
 21
15.0971
  0
LINE
  8
0
 10
191.222
 20
15.0971
 11
191.325
 21
15.5834
  0
LINE
  8
0
 10
191.325
 20
15.5834
 11
191.448
 21
16.0652
  0
LINE
  8
0
 10
191.448
 20
16.0652
 11
191.589
 21
16.5417
  0
LINE
  8
0
 10
191.589
 20
16.5417
 11
191.749
 21
17.0123
  0
LINE
  8
0
 10
191.749
 20
17.0123
 11
191.928
 21
17.4761
  0
LINE
  8
0
 10
191.928
 20
17.4761
 11
192.125
 21
17.9324
  0
LINE
  8
0
 10
192.125
 20
17.9324
 11
192.34
 21
18.3805
  0
LINE
  8
0
 10
192.34
 20
18.3805
 11
192.573
 21
18.8198
  0
LINE
  8
0
 10
192.573
 20
18.8198
 11
192.823
 21
19.2494
  0
LINE
  8
0
 10
192.823
 20
19.2494
 11
193.089
 21
19.6688
  0
LINE
  8
0
 10
193.089
 20
19.6688
 11
193.373
 21
20.0772
  0
LINE
  8
0
 10
193.373
 20
20.0772
 11
193.672
 21
20.474
  0
LINE
  8
0
 10
193.672
 20
20.474
 11
193.987
 21
20.8586
  0
LINE
  8
0
 10
193.987
 20
20.8586
 11
194.317
 21
21.2304
  0
LINE
  8
0
 10
194.317
 20
21.2304
 11
194.661
 21
21.5888
  0
LINE
  8
0
 10
194.661
 20
21.5888
 11
195.02
 21
21.9332
  0
LINE
  8
0
 10
195.02
 20
21.9332
 11
195.391
 21
22.2631
  0
LINE
  8
0
 10
195.391
 20
22.2631
 11
195.776
 21
22.578
  0
LINE
  8
0
 10
195.776
 20
22.578
 11
196.173
 21
22.8773
  0
LINE
  8
0
 10
196.173
 20
22.8773
 11
196.581
 21
23.1606
  0
LINE
  8
0
 10
196.581
 20
23.1606
 11
197.001
 21
23.4274
  0
LINE
  8
0
 10
197.001
 20
23.4274
 11
197.43
 21
23.6774
  0
LINE
  8
0
 10
197.43
 20
23.6774
 11
197.869
 21
23.91
  0
LINE
  8
0
 10
197.869
 20
23.91
 11
198.318
 21
24.1251
  0
LINE
  8
0
 10
198.318
 20
24.1251
 11
198.774
 21
24.3221
  0
LINE
  8
0
 10
198.774
 20
24.3221
 11
199.238
 21
24.5009
  0
LINE
  8
0
 10
199.238
 20
24.5009
 11
199.708
 21
24.661
  0
LINE
  8
0
 10
199.708
 20
24.661
 11
200.185
 21
24.8024
  0
LINE
  8
0
 10
200.185
 20
24.8024
 11
200.667
 21
24.9246
  0
LINE
  8
0
 10
200.667
 20
24.9246
 11
201.153
 21
25.0276
  0
LINE
  8
0
 10
201.153
 20
25.0276
 11
201.643
 21
25.1113
  0
LINE
  8
0
 10
201.643
 20
25.1113
 11
202.136
 21
25.1753
  0
LINE
  8
0
 10
202.136
 20
25.1753
 11
202.631
 21
25.2197
  0
LINE
  8
0
 10
202.631
 20
25.2197
 11
203.127
 21
25.2444
  0
LINE
  8
0
 10
203.127
 20
25.2444
 11
203.624
 21
25.2494
  0
LINE
  8
0
 10
203.624
 20
25.2494
 11
204.121
 21
25.2346
  0
LINE
  8
0
 10
204.121
 20
25.2346
 11
204.617
 21
25.2
  0
LINE
  8
0
 10
204.617
 20
25.2
 11
205.111
 21
25.1457
  0
LINE
  8
0
 10
205.111
 20
25.1457
 11
205.603
 21
25.0719
  0
LINE
  8
0
 10
205.603
 20
25.0719
 11
206.091
 21
24.9786
  0
LINE
  8
0
 10
206.091
 20
24.9786
 11
206.575
 21
24.8659
  0
LINE
  8
0
 10
206.575
 20
24.8659
 11
207.054
 21
24.7341
  0
LINE
  8
0
 10
207.054
 20
24.7341
 11
207.528
 21
24.5833
  0
LINE
  8
0
 10
207.528
 20
24.5833
 11
207.995
 21
24.4138
  0
LINE
  8
0
 10
207.995
 20
24.4138
 11
208.455
 21
24.2259
  0
LINE
  8
0
 10
208.455
 20
24.2259
 11
208.908
 21
24.0198
  0
LINE
  8
0
 10
208.908
 20
24.0198
 11
209.351
 21
23.7959
  0
LINE
  8
0
 10
209.351
 20
23.7959
 11
209.786
 21
23.5545
  0
LINE
  8
0
 10
209.786
 20
23.5545
 11
210.21
 21
23.2961
  0
LINE
  8
0
 10
210.21
 20
23.2961
 11
210.624
 21
23.021
  0
LINE
  8
0
 10
210.624
 20
23.021
 11
211.027
 21
22.7296
  0
LINE
  8
0
 10
211.027
 20
22.7296
 11
211.418
 21
22.4225
  0
LINE
  8
0
 10
211.418
 20
22.4225
 11
211.796
 21
22.1
  0
LINE
  8
0
 10
211.796
 20
22.1
 11
212.161
 21
21.7628
  0
LINE
  8
0
 10
212.161
 20
21.7628
 11
212.513
 21
21.4113
  0
LINE
  8
0
 10
212.513
 20
21.4113
 11
212.85
 21
21.0462
  0
LINE
  8
0
 10
212.85
 20
21.0462
 11
213.172
 21
20.6679
  0
LINE
  8
0
 10
213.172
 20
20.6679
 11
213.48
 21
20.2771
  0
LINE
  8
0
 10
213.48
 20
20.2771
 11
213.771
 21
19.8744
  0
LINE
  8
0
 10
213.771
 20
19.8744
 11
214.046
 21
19.4604
  0
LINE
  8
0
 10
214.046
 20
19.4604
 11
214.305
 21
19.0358
  0
LINE
  8
0
 10
214.305
 20
19.0358
 11
214.546
 21
18.6013
  0
LINE
  8
0
 10
214.546
 20
18.6013
 11
214.77
 21
18.1575
  0
LINE
  8
0
 10
214.77
 20
18.1575
 11
214.976
 21
17.7052
  0
LINE
  8
0
 10
214.976
 20
17.7052
 11
215.164
 21
17.2451
  0
LINE
  8
0
 10
215.164
 20
17.2451
 11
215.333
 21
16.7778
  0
LINE
  8
0
 10
215.333
 20
16.7778
 11
215.484
 21
16.3042
  0
LINE
  8
0
 10
215.484
 20
16.3042
 11
215.616
 21
15.8249
  0
LINE
  8
0
 10
215.616
 20
15.8249
 11
215.729
 21
15.3408
  0
LINE
  8
0
 10
215.729
 20
15.3408
 11
215.822
 21
14.8526
  0
LINE
  8
0
 10
215.822
 20
14.8526
 11
215.896
 21
14.361
  0
LINE
  8
0
 10
215.896
 20
14.361
 11
215.95
 21
13.8669
  0
LINE
  8
0
 10
215.95
 20
13.8669
 11
215.985
 21
13.3711
  0
LINE
  8
0
 10
215.985
 20
13.3711
 11
215.999
 21
12.8743
  0
LINE
  8
0
 10
215.999
 20
12.8743
 11
215.994
 21
12.3772
  0
LINE
  8
0
 10
215.994
 20
12.3772
 11
215.97
 21
11.8808
  0
LINE
  8
0
 10
215.97
 20
11.8808
 11
215.925
 21
11.3857
  0
LINE
  8
0
 10
215.925
 20
11.3857
 11
215.861
 21
10.8928
  0
LINE
  8
0
 10
215.861
 20
10.8928
 11
215.778
 21
10.4028
  0
LINE
  8
0
 10
215.778
 20
10.4028
 11
215.675
 21
9.91658
  0
LINE
  8
0
 10
215.675
 20
9.91658
 11
215.552
 21
9.4348
  0
LINE
  8
0
 10
215.552
 20
9.4348
 11
215.411
 21
8.95827
  0
LINE
  8
0
 10
215.411
 20
8.95827
 11
215.251
 21
8.48772
  0
LINE
  8
0
 10
215.251
 20
8.48772
 11
215.072
 21
8.02391
  0
LINE
  8
0
 10
215.072
 20
8.02391
 11
214.875
 21
7.56758
  0
LINE
  8
0
 10
214.875
 20
7.56758
 11
214.66
 21
7.11945
  0
LINE
  8
0
 10
214.66
 20
7.11945
 11
214.427
 21
6.68021
  0
LINE
  8
0
 10
214.427
 20
6.68021
 11
214.177
 21
6.25058
  0
LINE
  8
0
 10
214.177
 20
6.25058
 11
213.911
 21
5.83122
  0
LINE
  8
0
 10
213.911
 20
5.83122
 11
213.627
 21
5.42281
  0
LINE
  8
0
 10
213.627
 20
5.42281
 11
213.328
 21
5.02597
  0
LINE
  8
0
 10
213.328
 20
5.02597
 11
213.013
 21
4.64134
  0
LINE
  8
0
 10
213.013
 20
4.64134
 11
212.683
 21
4.26955
  0
LINE
  8
0
 10
212.683
 20
4.26955
 11
212.339
 21
3.91116
  0
LINE
  8
0
 10
212.339
 20
3.91116
 11
211.98
 21
3.56674
  0
LINE
  8
0
 10
211.98
 20
3.56674
 11
211.609
 21
3.23685
  0
LINE
  8
0
 10
211.609
 20
3.23685
 11
211.224
 21
2.922
  0
LINE
  8
0
 10
211.224
 20
2.922
 11
210.827
 21
2.6227
  0
LINE
  8
0
 10
210.827
 20
2.6227
 11
210.419
 21
2.3394
  0
LINE
  8
0
 10
210.419
 20
2.3394
 11
209.999
 21
2.07256
  0
LINE
  8
0
 10
209.999
 20
2.07256
 11
209.57
 21
1.8226
  0
LINE
  8
0
 10
209.57
 20
1.8226
 11
209.131
 21
1.58994
  0
LINE
  8
0
 10
209.131
 20
1.58994
 11
208.682
 21
1.37491
  0
LINE
  8
0
 10
208.682
 20
1.37491
 11
208.226
 21
1.17786
  0
LINE
  8
0
 10
208.226
 20
1.17786
 11
207.762
 21
0.999115
  0
LINE
  8
0
 10
207.762
 20
0.999115
 11
207.292
 21
0.838959
  0
LINE
  8
0
 10
207.292
 20
0.838959
 11
206.815
 21
0.697632
  0
LINE
  8
0
 10
206.815
 20
0.697632
 11
206.333
 21
0.575363
  0
LINE
  8
0
 10
206.333
 20
0.575363
 11
205.847
 21
0.472336
  0
LINE
  8
0
 10
205.847
 20
0.472336
 11
205.357
 21
0.388733
  0
LINE
  8
0
 10
205.357
 20
0.388733
 11
204.864
 21
0.324661
  0
LINE
  8
0
 10
204.864
 20
0.324661
 11
204.369
 21
0.280243
  0
LINE
  8
0
 10
204.369
 20
0.280243
 11
203.873
 21
0.255554
  0
LINE
  8
0
 10
203.873
 20
0.255554
 11
203.376
 21
0.25061
  0
LINE
  8
0
 10
203.376
 20
0.25061
 11
202.879
 21
0.265427
  0
LINE
  8
0
 10
-183.115
 20
11.0543
 11
-183.588
 21
11.1572
  0
LINE
  8
0
 10
-183.588
 20
11.1572
 11
-184.013
 21
11.3891
  0
LINE
  8
0
 10
-184.013
 20
11.3891
 11
-184.355
 21
11.7312
  0
LINE
  8
0
 10
-184.355
 20
11.7312
 11
-184.587
 21
12.1559
  0
LINE
  8
0
 10
-184.587
 20
12.1559
 11
-184.69
 21
12.6287
  0
LINE
  8
0
 10
-184.69
 20
12.6287
 11
-184.655
 21
13.1114
  0
LINE
  8
0
 10
-184.655
 20
13.1114
 11
-184.486
 21
13.5647
  0
LINE
  8
0
 10
-184.486
 20
13.5647
 11
-184.196
 21
13.9521
  0
LINE
  8
0
 10
-184.196
 20
13.9521
 11
-183.809
 21
14.2421
  0
LINE
  8
0
 10
-183.809
 20
14.2421
 11
-183.355
 21
14.4111
  0
LINE
  8
0
 10
-183.355
 20
14.4111
 11
-182.873
 21
14.4457
  0
LINE
  8
0
 10
-182.873
 20
14.4457
 11
-180.044
 21
14.4457
  0
LINE
  8
0
 10
-180.044
 20
14.4457
 11
-179.571
 21
14.3428
  0
LINE
  8
0
 10
-179.571
 20
14.3428
 11
-179.147
 21
14.1109
  0
LINE
  8
0
 10
-179.147
 20
14.1109
 11
-178.805
 21
13.7688
  0
LINE
  8
0
 10
-178.805
 20
13.7688
 11
-178.573
 21
13.3441
  0
LINE
  8
0
 10
-178.573
 20
13.3441
 11
-178.47
 21
12.8713
  0
LINE
  8
0
 10
-178.47
 20
12.8713
 11
-178.504
 21
12.3886
  0
LINE
  8
0
 10
-178.504
 20
12.3886
 11
-178.673
 21
11.9353
  0
LINE
  8
0
 10
-178.673
 20
11.9353
 11
-178.963
 21
11.5479
  0
LINE
  8
0
 10
-178.963
 20
11.5479
 11
-179.351
 21
11.2579
  0
LINE
  8
0
 10
-179.351
 20
11.2579
 11
-179.804
 21
11.0888
  0
LINE
  8
0
 10
-179.804
 20
11.0888
 11
-180.287
 21
11.0543
  0
LINE
  8
0
 10
-180.287
 20
11.0543
 11
-183.115
 21
11.0543
  0
LINE
  8
0
 10
224.127
 20
11.0543
 11
223.645
 21
11.0888
  0
LINE
  8
0
 10
223.645
 20
11.0888
 11
223.191
 21
11.2579
  0
LINE
  8
0
 10
223.191
 20
11.2579
 11
222.804
 21
11.5479
  0
LINE
  8
0
 10
222.804
 20
11.5479
 11
222.514
 21
11.9353
  0
LINE
  8
0
 10
222.514
 20
11.9353
 11
222.345
 21
12.3886
  0
LINE
  8
0
 10
222.345
 20
12.3886
 11
222.31
 21
12.8713
  0
LINE
  8
0
 10
222.31
 20
12.8713
 11
222.413
 21
13.3441
  0
LINE
  8
0
 10
222.413
 20
13.3441
 11
222.645
 21
13.7688
  0
LINE
  8
0
 10
222.645
 20
13.7688
 11
222.987
 21
14.1109
  0
LINE
  8
0
 10
222.987
 20
14.1109
 11
223.412
 21
14.3428
  0
LINE
  8
0
 10
223.412
 20
14.3428
 11
223.885
 21
14.4457
  0
LINE
  8
0
 10
223.885
 20
14.4457
 11
226.713
 21
14.4457
  0
LINE
  8
0
 10
226.713
 20
14.4457
 11
227.196
 21
14.4111
  0
LINE
  8
0
 10
227.196
 20
14.4111
 11
227.649
 21
14.2421
  0
LINE
  8
0
 10
227.649
 20
14.2421
 11
228.037
 21
13.9521
  0
LINE
  8
0
 10
228.037
 20
13.9521
 11
228.327
 21
13.5647
  0
LINE
  8
0
 10
228.327
 20
13.5647
 11
228.496
 21
13.1114
  0
LINE
  8
0
 10
228.496
 20
13.1114
 11
228.53
 21
12.6287
  0
LINE
  8
0
 10
228.53
 20
12.6287
 11
228.427
 21
12.1559
  0
LINE
  8
0
 10
228.427
 20
12.1559
 11
228.195
 21
11.7312
  0
LINE
  8
0
 10
228.195
 20
11.7312
 11
227.853
 21
11.3891
  0
LINE
  8
0
 10
227.853
 20
11.3891
 11
227.429
 21
11.1572
  0
LINE
  8
0
 10
227.429
 20
11.1572
 11
226.956
 21
11.0543
  0
LINE
  8
0
 10
226.956
 20
11.0543
 11
224.127
 21
11.0543
  0
LINE
  8
0
 10
-226.956
 20
11.0543
 11
-227.429
 21
11.1572
  0
LINE
  8
0
 10
-227.429
 20
11.1572
 11
-227.853
 21
11.3891
  0
LINE
  8
0
 10
-227.853
 20
11.3891
 11
-228.195
 21
11.7312
  0
LINE
  8
0
 10
-228.195
 20
11.7312
 11
-228.427
 21
12.1559
  0
LINE
  8
0
 10
-228.427
 20
12.1559
 11
-228.53
 21
12.6287
  0
LINE
  8
0
 10
-228.53
 20
12.6287
 11
-228.496
 21
13.1114
  0
LINE
  8
0
 10
-228.496
 20
13.1114
 11
-228.327
 21
13.5647
  0
LINE
  8
0
 10
-228.327
 20
13.5647
 11
-228.037
 21
13.9521
  0
LINE
  8
0
 10
-228.037
 20
13.9521
 11
-227.649
 21
14.2421
  0
LINE
  8
0
 10
-227.649
 20
14.2421
 11
-227.196
 21
14.4111
  0
LINE
  8
0
 10
-227.196
 20
14.4111
 11
-226.713
 21
14.4457
  0
LINE
  8
0
 10
-226.713
 20
14.4457
 11
-223.885
 21
14.4457
  0
LINE
  8
0
 10
-223.885
 20
14.4457
 11
-223.412
 21
14.3428
  0
LINE
  8
0
 10
-223.412
 20
14.3428
 11
-222.987
 21
14.1109
  0
LINE
  8
0
 10
-222.987
 20
14.1109
 11
-222.645
 21
13.7688
  0
LINE
  8
0
 10
-222.645
 20
13.7688
 11
-222.413
 21
13.3441
  0
LINE
  8
0
 10
-222.413
 20
13.3441
 11
-222.31
 21
12.8713
  0
LINE
  8
0
 10
-222.31
 20
12.8713
 11
-222.345
 21
12.3886
  0
LINE
  8
0
 10
-222.345
 20
12.3886
 11
-222.514
 21
11.9353
  0
LINE
  8
0
 10
-222.514
 20
11.9353
 11
-222.804
 21
11.5479
  0
LINE
  8
0
 10
-222.804
 20
11.5479
 11
-223.191
 21
11.2579
  0
LINE
  8
0
 10
-223.191
 20
11.2579
 11
-223.645
 21
11.0888
  0
LINE
  8
0
 10
-223.645
 20
11.0888
 11
-224.127
 21
11.0543
  0
LINE
  8
0
 10
-224.127
 20
11.0543
 11
-226.956
 21
11.0543
  0
LINE
  8
0
 10
180.287
 20
11.0543
 11
179.804
 21
11.0888
  0
LINE
  8
0
 10
179.804
 20
11.0888
 11
179.351
 21
11.2579
  0
LINE
  8
0
 10
179.351
 20
11.2579
 11
178.963
 21
11.5479
  0
LINE
  8
0
 10
178.963
 20
11.5479
 11
178.673
 21
11.9353
  0
LINE
  8
0
 10
178.673
 20
11.9353
 11
178.504
 21
12.3886
  0
LINE
  8
0
 10
178.504
 20
12.3886
 11
178.47
 21
12.8713
  0
LINE
  8
0
 10
178.47
 20
12.8713
 11
178.573
 21
13.3441
  0
LINE
  8
0
 10
178.573
 20
13.3441
 11
178.805
 21
13.7688
  0
LINE
  8
0
 10
178.805
 20
13.7688
 11
179.147
 21
14.1109
  0
LINE
  8
0
 10
179.147
 20
14.1109
 11
179.571
 21
14.3428
  0
LINE
  8
0
 10
179.571
 20
14.3428
 11
180.044
 21
14.4457
  0
LINE
  8
0
 10
180.044
 20
14.4457
 11
182.873
 21
14.4457
  0
LINE
  8
0
 10
182.873
 20
14.4457
 11
183.355
 21
14.4111
  0
LINE
  8
0
 10
183.355
 20
14.4111
 11
183.809
 21
14.2421
  0
LINE
  8
0
 10
183.809
 20
14.2421
 11
184.196
 21
13.9521
  0
LINE
  8
0
 10
184.196
 20
13.9521
 11
184.486
 21
13.5647
  0
LINE
  8
0
 10
184.486
 20
13.5647
 11
184.655
 21
13.1114
  0
LINE
  8
0
 10
184.655
 20
13.1114
 11
184.69
 21
12.6287
  0
LINE
  8
0
 10
184.69
 20
12.6287
 11
184.587
 21
12.1559
  0
LINE
  8
0
 10
184.587
 20
12.1559
 11
184.355
 21
11.7312
  0
LINE
  8
0
 10
184.355
 20
11.7312
 11
184.013
 21
11.3891
  0
LINE
  8
0
 10
184.013
 20
11.3891
 11
183.588
 21
11.1572
  0
LINE
  8
0
 10
183.588
 20
11.1572
 11
183.115
 21
11.0543
  0
LINE
  8
0
 10
183.115
 20
11.0543
 11
180.287
 21
11.0543
  0
LINE
  8
0
 10
107.55
 20
-3.2
 11
107.55
 21
3.2
  0
LINE
  8
0
 10
107.55
 20
3.2
 11
122.45
 21
3.2
  0
LINE
  8
0
 10
122.45
 20
3.2
 11
122.45
 21
-3.2
  0
LINE
  8
0
 10
122.45
 20
-3.2
 11
107.55
 21
-3.2
  0
LINE
  8
0
 10
137.55
 20
-3.2
 11
137.55
 21
3.2
  0
LINE
  8
0
 10
137.55
 20
3.2
 11
152.45
 21
3.2
  0
LINE
  8
0
 10
152.45
 20
3.2
 11
152.45
 21
-3.2
  0
LINE
  8
0
 10
152.45
 20
-3.2
 11
137.55
 21
-3.2
  0
LINE
  8
0
 10
-152.45
 20
-3.2
 11
-152.45
 21
3.2
  0
LINE
  8
0
 10
-152.45
 20
3.2
 11
-137.55
 21
3.2
  0
LINE
  8
0
 10
-137.55
 20
3.2
 11
-137.55
 21
-3.2
  0
LINE
  8
0
 10
-137.55
 20
-3.2
 11
-152.45
 21
-3.2
  0
LINE
  8
0
 10
-122.45
 20
-3.2
 11
-122.45
 21
3.2
  0
LINE
  8
0
 10
-122.45
 20
3.2
 11
-107.55
 21
3.2
  0
LINE
  8
0
 10
-107.55
 20
3.2
 11
-107.55
 21
-3.2
  0
LINE
  8
0
 10
-107.55
 20
-3.2
 11
-122.45
 21
-3.2
  0
LINE
  8
0
 10
-130
 20
-2.49998
 11
-130.488
 21
-2.45195
  0
LINE
  8
0
 10
-130.488
 20
-2.45195
 11
-130.957
 21
-2.30969
  0
LINE
  8
0
 10
-130.957
 20
-2.30969
 11
-131.389
 21
-2.07866
  0
LINE
  8
0
 10
-131.389
 20
-2.07866
 11
-131.768
 21
-1.76776
  0
LINE
  8
0
 10
-131.768
 20
-1.76776
 11
-132.079
 21
-1.38892
  0
LINE
  8
0
 10
-132.079
 20
-1.38892
 11
-132.31
 21
-0.956696
  0
LINE
  8
0
 10
-132.31
 20
-0.956696
 11
-132.452
 21
-0.487717
  0
LINE
  8
0
 10
-132.452
 20
-0.487717
 11
-132.5
 21
0
  0
LINE
  8
0
 10
-132.5
 20
0
 11
-132.452
 21
0.487717
  0
LINE
  8
0
 10
-132.452
 20
0.487717
 11
-132.31
 21
0.956696
  0
LINE
  8
0
 10
-132.31
 20
0.956696
 11
-132.079
 21
1.38892
  0
LINE
  8
0
 10
-132.079
 20
1.38892
 11
-131.768
 21
1.76776
  0
LINE
  8
0
 10
-131.768
 20
1.76776
 11
-131.389
 21
2.07866
  0
LINE
  8
0
 10
-131.389
 20
2.07866
 11
-130.957
 21
2.30969
  0
LINE
  8
0
 10
-130.957
 20
2.30969
 11
-130.488
 21
2.45195
  0
LINE
  8
0
 10
-130.488
 20
2.45195
 11
-130
 21
2.49998
  0
LINE
  8
0
 10
-130
 20
2.49998
 11
-129.512
 21
2.45195
  0
LINE
  8
0
 10
-129.512
 20
2.45195
 11
-129.043
 21
2.30969
  0
LINE
  8
0
 10
-129.043
 20
2.30969
 11
-128.611
 21
2.07866
  0
LINE
  8
0
 10
-128.611
 20
2.07866
 11
-128.232
 21
1.76776
  0
LINE
  8
0
 10
-128.232
 20
1.76776
 11
-127.921
 21
1.38892
  0
LINE
  8
0
 10
-127.921
 20
1.38892
 11
-127.69
 21
0.956696
  0
LINE
  8
0
 10
-127.69
 20
0.956696
 11
-127.548
 21
0.487717
  0
LINE
  8
0
 10
-127.548
 20
0.487717
 11
-127.5
 21
0
  0
LINE
  8
0
 10
-127.5
 20
0
 11
-127.548
 21
-0.487717
  0
LINE
  8
0
 10
-127.548
 20
-0.487717
 11
-127.69
 21
-0.956696
  0
LINE
  8
0
 10
-127.69
 20
-0.956696
 11
-127.921
 21
-1.38892
  0
LINE
  8
0
 10
-127.921
 20
-1.38892
 11
-128.232
 21
-1.76776
  0
LINE
  8
0
 10
-128.232
 20
-1.76776
 11
-128.611
 21
-2.07866
  0
LINE
  8
0
 10
-128.611
 20
-2.07866
 11
-129.043
 21
-2.30969
  0
LINE
  8
0
 10
-129.043
 20
-2.30969
 11
-129.512
 21
-2.45195
  0
LINE
  8
0
 10
-129.512
 20
-2.45195
 11
-130
 21
-2.49998
  0
LINE
  8
0
 10
130
 20
-2.49998
 11
129.512
 21
-2.45195
  0
LINE
  8
0
 10
129.512
 20
-2.45195
 11
129.043
 21
-2.30969
  0
LINE
  8
0
 10
129.043
 20
-2.30969
 11
128.611
 21
-2.07866
  0
LINE
  8
0
 10
128.611
 20
-2.07866
 11
128.232
 21
-1.76776
  0
LINE
  8
0
 10
128.232
 20
-1.76776
 11
127.921
 21
-1.38892
  0
LINE
  8
0
 10
127.921
 20
-1.38892
 11
127.69
 21
-0.956696
  0
LINE
  8
0
 10
127.69
 20
-0.956696
 11
127.548
 21
-0.487717
  0
LINE
  8
0
 10
127.548
 20
-0.487717
 11
127.5
 21
0
  0
LINE
  8
0
 10
127.5
 20
0
 11
127.548
 21
0.487717
  0
LINE
  8
0
 10
127.548
 20
0.487717
 11
127.69
 21
0.956696
  0
LINE
  8
0
 10
127.69
 20
0.956696
 11
127.921
 21
1.38892
  0
LINE
  8
0
 10
127.921
 20
1.38892
 11
128.232
 21
1.76776
  0
LINE
  8
0
 10
128.232
 20
1.76776
 11
128.611
 21
2.07866
  0
LINE
  8
0
 10
128.611
 20
2.07866
 11
129.043
 21
2.30969
  0
LINE
  8
0
 10
129.043
 20
2.30969
 11
129.512
 21
2.45195
  0
LINE
  8
0
 10
129.512
 20
2.45195
 11
130
 21
2.49998
  0
LINE
  8
0
 10
130
 20
2.49998
 11
130.488
 21
2.45195
  0
LINE
  8
0
 10
130.488
 20
2.45195
 11
130.957
 21
2.30969
  0
LINE
  8
0
 10
130.957
 20
2.30969
 11
131.389
 21
2.07866
  0
LINE
  8
0
 10
131.389
 20
2.07866
 11
131.768
 21
1.76776
  0
LINE
  8
0
 10
131.768
 20
1.76776
 11
132.079
 21
1.38892
  0
LINE
  8
0
 10
132.079
 20
1.38892
 11
132.31
 21
0.956696
  0
LINE
  8
0
 10
132.31
 20
0.956696
 11
132.452
 21
0.487717
  0
LINE
  8
0
 10
132.452
 20
0.487717
 11
132.5
 21
0
  0
LINE
  8
0
 10
132.5
 20
0
 11
132.452
 21
-0.487717
  0
LINE
  8
0
 10
132.452
 20
-0.487717
 11
132.31
 21
-0.956696
  0
LINE
  8
0
 10
132.31
 20
-0.956696
 11
132.079
 21
-1.38892
  0
LINE
  8
0
 10
132.079
 20
-1.38892
 11
131.768
 21
-1.76776
  0
LINE
  8
0
 10
131.768
 20
-1.76776
 11
131.389
 21
-2.07866
  0
LINE
  8
0
 10
131.389
 20
-2.07866
 11
130.957
 21
-2.30969
  0
LINE
  8
0
 10
130.957
 20
-2.30969
 11
130.488
 21
-2.45195
  0
LINE
  8
0
 10
130.488
 20
-2.45195
 11
130
 21
-2.49998
  0
LINE
  8
0
 10
230.05
 20
-12.7
 11
230.05
 21
2.2
  0
LINE
  8
0
 10
230.05
 20
2.2
 11
236.45
 21
2.2
  0
LINE
  8
0
 10
236.45
 20
2.2
 11
236.45
 21
-12.7
  0
LINE
  8
0
 10
236.45
 20
-12.7
 11
230.05
 21
-12.7
  0
LINE
  8
0
 10
-236.45
 20
-12.7
 11
-236.45
 21
2.2
  0
LINE
  8
0
 10
-236.45
 20
2.2
 11
-230.05
 21
2.2
  0
LINE
  8
0
 10
-230.05
 20
2.2
 11
-230.05
 21
-12.7
  0
LINE
  8
0
 10
-230.05
 20
-12.7
 11
-236.45
 21
-12.7
  0
LINE
  8
0
 10
-203.861
 20
-12.2457
 11
-204.315
 21
-12.0766
  0
LINE
  8
0
 10
-204.315
 20
-12.0766
 11
-204.702
 21
-11.7866
  0
LINE
  8
0
 10
-204.702
 20
-11.7866
 11
-204.992
 21
-11.3992
  0
LINE
  8
0
 10
-204.992
 20
-11.3992
 11
-205.161
 21
-10.9459
  0
LINE
  8
0
 10
-205.161
 20
-10.9459
 11
-205.196
 21
-10.4632
  0
LINE
  8
0
 10
-205.196
 20
-10.4632
 11
-205.196
 21
-7.63481
  0
LINE
  8
0
 10
-205.196
 20
-7.63481
 11
-205.093
 21
-7.162
  0
LINE
  8
0
 10
-205.093
 20
-7.162
 11
-204.861
 21
-6.73732
  0
LINE
  8
0
 10
-204.861
 20
-6.73732
 11
-204.519
 21
-6.39517
  0
LINE
  8
0
 10
-204.519
 20
-6.39517
 11
-204.094
 21
-6.16327
  0
LINE
  8
0
 10
-204.094
 20
-6.16327
 11
-203.621
 21
-6.06042
  0
LINE
  8
0
 10
-203.621
 20
-6.06042
 11
-203.139
 21
-6.09494
  0
LINE
  8
0
 10
-203.139
 20
-6.09494
 11
-202.685
 21
-6.26404
  0
LINE
  8
0
 10
-202.685
 20
-6.26404
 11
-202.298
 21
-6.554
  0
LINE
  8
0
 10
-202.298
 20
-6.554
 11
-202.008
 21
-6.94136
  0
LINE
  8
0
 10
-202.008
 20
-6.94136
 11
-201.839
 21
-7.39473
  0
LINE
  8
0
 10
-201.839
 20
-7.39473
 11
-201.804
 21
-7.87737
  0
LINE
  8
0
 10
-201.804
 20
-7.87737
 11
-201.804
 21
-10.7058
  0
LINE
  8
0
 10
-201.804
 20
-10.7058
 11
-201.907
 21
-11.1786
  0
LINE
  8
0
 10
-201.907
 20
-11.1786
 11
-202.139
 21
-11.6033
  0
LINE
  8
0
 10
-202.139
 20
-11.6033
 11
-202.481
 21
-11.9454
  0
LINE
  8
0
 10
-202.481
 20
-11.9454
 11
-202.906
 21
-12.1773
  0
LINE
  8
0
 10
-202.906
 20
-12.1773
 11
-203.379
 21
-12.2802
  0
LINE
  8
0
 10
-203.379
 20
-12.2802
 11
-203.861
 21
-12.2457
  0
LINE
  8
0
 10
202.906
 20
-12.1773
 11
202.481
 21
-11.9454
  0
LINE
  8
0
 10
202.481
 20
-11.9454
 11
202.139
 21
-11.6033
  0
LINE
  8
0
 10
202.139
 20
-11.6033
 11
201.907
 21
-11.1786
  0
LINE
  8
0
 10
201.907
 20
-11.1786
 11
201.804
 21
-10.7058
  0
LINE
  8
0
 10
201.804
 20
-10.7058
 11
201.804
 21
-7.87737
  0
LINE
  8
0
 10
201.804
 20
-7.87737
 11
201.839
 21
-7.39473
  0
LINE
  8
0
 10
201.839
 20
-7.39473
 11
202.008
 21
-6.94136
  0
LINE
  8
0
 10
202.008
 20
-6.94136
 11
202.298
 21
-6.554
  0
LINE
  8
0
 10
202.298
 20
-6.554
 11
202.685
 21
-6.26404
  0
LINE
  8
0
 10
202.685
 20
-6.26404
 11
203.139
 21
-6.09494
  0
LINE
  8
0
 10
203.139
 20
-6.09494
 11
203.621
 21
-6.06042
  0
LINE
  8
0
 10
203.621
 20
-6.06042
 11
204.094
 21
-6.16327
  0
LINE
  8
0
 10
204.094
 20
-6.16327
 11
204.519
 21
-6.39517
  0
LINE
  8
0
 10
204.519
 20
-6.39517
 11
204.861
 21
-6.73732
  0
LINE
  8
0
 10
204.861
 20
-6.73732
 11
205.093
 21
-7.162
  0
LINE
  8
0
 10
205.093
 20
-7.162
 11
205.196
 21
-7.63481
  0
LINE
  8
0
 10
205.196
 20
-7.63481
 11
205.196
 21
-10.4632
  0
LINE
  8
0
 10
205.196
 20
-10.4632
 11
205.161
 21
-10.9459
  0
LINE
  8
0
 10
205.161
 20
-10.9459
 11
204.992
 21
-11.3992
  0
LINE
  8
0
 10
204.992
 20
-11.3992
 11
204.702
 21
-11.7866
  0
LINE
  8
0
 10
204.702
 20
-11.7866
 11
204.315
 21
-12.0766
  0
LINE
  8
0
 10
204.315
 20
-12.0766
 11
203.861
 21
-12.2457
  0
LINE
  8
0
 10
203.861
 20
-12.2457
 11
203.379
 21
-12.2802
  0
LINE
  8
0
 10
203.379
 20
-12.2802
 11
202.906
 21
-12.1773
  0
LINE
  8
0
 10
219.512
 20
-12.202
 11
219.043
 21
-12.0597
  0
LINE
  8
0
 10
219.043
 20
-12.0597
 11
218.611
 21
-11.8287
  0
LINE
  8
0
 10
218.611
 20
-11.8287
 11
218.232
 21
-11.5178
  0
LINE
  8
0
 10
218.232
 20
-11.5178
 11
217.921
 21
-11.1389
  0
LINE
  8
0
 10
217.921
 20
-11.1389
 11
217.69
 21
-10.7067
  0
LINE
  8
0
 10
217.69
 20
-10.7067
 11
217.548
 21
-10.2377
  0
LINE
  8
0
 10
217.548
 20
-10.2377
 11
217.5
 21
-9.75
  0
LINE
  8
0
 10
217.5
 20
-9.75
 11
217.548
 21
-9.26227
  0
LINE
  8
0
 10
217.548
 20
-9.26227
 11
217.69
 21
-8.79329
  0
LINE
  8
0
 10
217.69
 20
-8.79329
 11
217.921
 21
-8.36107
  0
LINE
  8
0
 10
217.921
 20
-8.36107
 11
218.232
 21
-7.98222
  0
LINE
  8
0
 10
218.232
 20
-7.98222
 11
218.611
 21
-7.67133
  0
LINE
  8
0
 10
218.611
 20
-7.67133
 11
219.043
 21
-7.44029
  0
LINE
  8
0
 10
219.043
 20
-7.44029
 11
219.512
 21
-7.29803
  0
LINE
  8
0
 10
219.512
 20
-7.29803
 11
220
 21
-7.25
  0
LINE
  8
0
 10
220
 20
-7.25
 11
220.488
 21
-7.29803
  0
LINE
  8
0
 10
220.488
 20
-7.29803
 11
220.957
 21
-7.44029
  0
LINE
  8
0
 10
220.957
 20
-7.44029
 11
221.389
 21
-7.67133
  0
LINE
  8
0
 10
221.389
 20
-7.67133
 11
221.768
 21
-7.98222
  0
LINE
  8
0
 10
221.768
 20
-7.98222
 11
222.079
 21
-8.36107
  0
LINE
  8
0
 10
222.079
 20
-8.36107
 11
222.31
 21
-8.79329
  0
LINE
  8
0
 10
222.31
 20
-8.79329
 11
222.452
 21
-9.26227
  0
LINE
  8
0
 10
222.452
 20
-9.26227
 11
222.5
 21
-9.75
  0
LINE
  8
0
 10
222.5
 20
-9.75
 11
222.452
 21
-10.2377
  0
LINE
  8
0
 10
222.452
 20
-10.2377
 11
222.31
 21
-10.7067
  0
LINE
  8
0
 10
222.31
 20
-10.7067
 11
222.079
 21
-11.1389
  0
LINE
  8
0
 10
222.079
 20
-11.1389
 11
221.768
 21
-11.5178
  0
LINE
  8
0
 10
221.768
 20
-11.5178
 11
221.389
 21
-11.8287
  0
LINE
  8
0
 10
221.389
 20
-11.8287
 11
220.957
 21
-12.0597
  0
LINE
  8
0
 10
220.957
 20
-12.0597
 11
220.488
 21
-12.202
  0
LINE
  8
0
 10
220.488
 20
-12.202
 11
220
 21
-12.25
  0
LINE
  8
0
 10
220
 20
-12.25
 11
219.512
 21
-12.202
  0
LINE
  8
0
 10
-220.488
 20
-12.202
 11
-220.957
 21
-12.0597
  0
LINE
  8
0
 10
-220.957
 20
-12.0597
 11
-221.389
 21
-11.8287
  0
LINE
  8
0
 10
-221.389
 20
-11.8287
 11
-221.768
 21
-11.5178
  0
LINE
  8
0
 10
-221.768
 20
-11.5178
 11
-222.079
 21
-11.1389
  0
LINE
  8
0
 10
-222.079
 20
-11.1389
 11
-222.31
 21
-10.7067
  0
LINE
  8
0
 10
-222.31
 20
-10.7067
 11
-222.452
 21
-10.2377
  0
LINE
  8
0
 10
-222.452
 20
-10.2377
 11
-222.5
 21
-9.75
  0
LINE
  8
0
 10
-222.5
 20
-9.75
 11
-222.452
 21
-9.26227
  0
LINE
  8
0
 10
-222.452
 20
-9.26227
 11
-222.31
 21
-8.79329
  0
LINE
  8
0
 10
-222.31
 20
-8.79329
 11
-222.079
 21
-8.36107
  0
LINE
  8
0
 10
-222.079
 20
-8.36107
 11
-221.768
 21
-7.98222
  0
LINE
  8
0
 10
-221.768
 20
-7.98222
 11
-221.389
 21
-7.67133
  0
LINE
  8
0
 10
-221.389
 20
-7.67133
 11
-220.957
 21
-7.44029
  0
LINE
  8
0
 10
-220.957
 20
-7.44029
 11
-220.488
 21
-7.29803
  0
LINE
  8
0
 10
-220.488
 20
-7.29803
 11
-220
 21
-7.25
  0
LINE
  8
0
 10
-220
 20
-7.25
 11
-219.512
 21
-7.29803
  0
LINE
  8
0
 10
-219.512
 20
-7.29803
 11
-219.043
 21
-7.44029
  0
LINE
  8
0
 10
-219.043
 20
-7.44029
 11
-218.611
 21
-7.67133
  0
LINE
  8
0
 10
-218.611
 20
-7.67133
 11
-218.232
 21
-7.98222
  0
LINE
  8
0
 10
-218.232
 20
-7.98222
 11
-217.921
 21
-8.36107
  0
LINE
  8
0
 10
-217.921
 20
-8.36107
 11
-217.69
 21
-8.79329
  0
LINE
  8
0
 10
-217.69
 20
-8.79329
 11
-217.548
 21
-9.26227
  0
LINE
  8
0
 10
-217.548
 20
-9.26227
 11
-217.5
 21
-9.75
  0
LINE
  8
0
 10
-217.5
 20
-9.75
 11
-217.548
 21
-10.2377
  0
LINE
  8
0
 10
-217.548
 20
-10.2377
 11
-217.69
 21
-10.7067
  0
LINE
  8
0
 10
-217.69
 20
-10.7067
 11
-217.921
 21
-11.1389
  0
LINE
  8
0
 10
-217.921
 20
-11.1389
 11
-218.232
 21
-11.5178
  0
LINE
  8
0
 10
-218.232
 20
-11.5178
 11
-218.611
 21
-11.8287
  0
LINE
  8
0
 10
-218.611
 20
-11.8287
 11
-219.043
 21
-12.0597
  0
LINE
  8
0
 10
-219.043
 20
-12.0597
 11
-219.512
 21
-12.202
  0
LINE
  8
0
 10
-219.512
 20
-12.202
 11
-220
 21
-12.25
  0
LINE
  8
0
 10
-220
 20
-12.25
 11
-220.488
 21
-12.202
  0
LINE
  8
0
 10
232.762
 20
-22.702
 11
232.293
 21
-22.5597
  0
LINE
  8
0
 10
232.293
 20
-22.5597
 11
231.861
 21
-22.3287
  0
LINE
  8
0
 10
231.861
 20
-22.3287
 11
231.482
 21
-22.0178
  0
LINE
  8
0
 10
231.482
 20
-22.0178
 11
231.171
 21
-21.6389
  0
LINE
  8
0
 10
231.171
 20
-21.6389
 11
230.94
 21
-21.2067
  0
LINE
  8
0
 10
230.94
 20
-21.2067
 11
230.798
 21
-20.7377
  0
LINE
  8
0
 10
230.798
 20
-20.7377
 11
230.75
 21
-20.25
  0
LINE
  8
0
 10
230.75
 20
-20.25
 11
230.798
 21
-19.7623
  0
LINE
  8
0
 10
230.798
 20
-19.7623
 11
230.94
 21
-19.2933
  0
LINE
  8
0
 10
230.94
 20
-19.2933
 11
231.171
 21
-18.8611
  0
LINE
  8
0
 10
231.171
 20
-18.8611
 11
231.482
 21
-18.4822
  0
LINE
  8
0
 10
231.482
 20
-18.4822
 11
231.861
 21
-18.1713
  0
LINE
  8
0
 10
231.861
 20
-18.1713
 11
232.293
 21
-17.9403
  0
LINE
  8
0
 10
232.293
 20
-17.9403
 11
232.762
 21
-17.798
  0
LINE
  8
0
 10
232.762
 20
-17.798
 11
233.25
 21
-17.75
  0
LINE
  8
0
 10
233.25
 20
-17.75
 11
233.738
 21
-17.798
  0
LINE
  8
0
 10
233.738
 20
-17.798
 11
234.207
 21
-17.9403
  0
LINE
  8
0
 10
234.207
 20
-17.9403
 11
234.639
 21
-18.1713
  0
LINE
  8
0
 10
234.639
 20
-18.1713
 11
235.018
 21
-18.4822
  0
LINE
  8
0
 10
235.018
 20
-18.4822
 11
235.329
 21
-18.8611
  0
LINE
  8
0
 10
235.329
 20
-18.8611
 11
235.56
 21
-19.2933
  0
LINE
  8
0
 10
235.56
 20
-19.2933
 11
235.702
 21
-19.7623
  0
LINE
  8
0
 10
235.702
 20
-19.7623
 11
235.75
 21
-20.25
  0
LINE
  8
0
 10
235.75
 20
-20.25
 11
235.702
 21
-20.7377
  0
LINE
  8
0
 10
235.702
 20
-20.7377
 11
235.56
 21
-21.2067
  0
LINE
  8
0
 10
235.56
 20
-21.2067
 11
235.329
 21
-21.6389
  0
LINE
  8
0
 10
235.329
 20
-21.6389
 11
235.018
 21
-22.0178
  0
LINE
  8
0
 10
235.018
 20
-22.0178
 11
234.639
 21
-22.3287
  0
LINE
  8
0
 10
234.639
 20
-22.3287
 11
234.207
 21
-22.5597
  0
LINE
  8
0
 10
234.207
 20
-22.5597
 11
233.738
 21
-22.702
  0
LINE
  8
0
 10
233.738
 20
-22.702
 11
233.25
 21
-22.75
  0
LINE
  8
0
 10
233.25
 20
-22.75
 11
232.762
 21
-22.702
  0
LINE
  8
0
 10
-233.738
 20
-22.702
 11
-234.207
 21
-22.5597
  0
LINE
  8
0
 10
-234.207
 20
-22.5597
 11
-234.639
 21
-22.3287
  0
LINE
  8
0
 10
-234.639
 20
-22.3287
 11
-235.018
 21
-22.0178
  0
LINE
  8
0
 10
-235.018
 20
-22.0178
 11
-235.329
 21
-21.6389
  0
LINE
  8
0
 10
-235.329
 20
-21.6389
 11
-235.56
 21
-21.2067
  0
LINE
  8
0
 10
-235.56
 20
-21.2067
 11
-235.702
 21
-20.7377
  0
LINE
  8
0
 10
-235.702
 20
-20.7377
 11
-235.75
 21
-20.25
  0
LINE
  8
0
 10
-235.75
 20
-20.25
 11
-235.702
 21
-19.7623
  0
LINE
  8
0
 10
-235.702
 20
-19.7623
 11
-235.56
 21
-19.2933
  0
LINE
  8
0
 10
-235.56
 20
-19.2933
 11
-235.329
 21
-18.8611
  0
LINE
  8
0
 10
-235.329
 20
-18.8611
 11
-235.018
 21
-18.4822
  0
LINE
  8
0
 10
-235.018
 20
-18.4822
 11
-234.639
 21
-18.1713
  0
LINE
  8
0
 10
-234.639
 20
-18.1713
 11
-234.207
 21
-17.9403
  0
LINE
  8
0
 10
-234.207
 20
-17.9403
 11
-233.738
 21
-17.798
  0
LINE
  8
0
 10
-233.738
 20
-17.798
 11
-233.25
 21
-17.75
  0
LINE
  8
0
 10
-233.25
 20
-17.75
 11
-232.762
 21
-17.798
  0
LINE
  8
0
 10
-232.762
 20
-17.798
 11
-232.293
 21
-17.9403
  0
LINE
  8
0
 10
-232.293
 20
-17.9403
 11
-231.861
 21
-18.1713
  0
LINE
  8
0
 10
-231.861
 20
-18.1713
 11
-231.482
 21
-18.4822
  0
LINE
  8
0
 10
-231.482
 20
-18.4822
 11
-231.171
 21
-18.8611
  0
LINE
  8
0
 10
-231.171
 20
-18.8611
 11
-230.94
 21
-19.2933
  0
LINE
  8
0
 10
-230.94
 20
-19.2933
 11
-230.798
 21
-19.7623
  0
LINE
  8
0
 10
-230.798
 20
-19.7623
 11
-230.75
 21
-20.25
  0
LINE
  8
0
 10
-230.75
 20
-20.25
 11
-230.798
 21
-20.7377
  0
LINE
  8
0
 10
-230.798
 20
-20.7377
 11
-230.94
 21
-21.2067
  0
LINE
  8
0
 10
-230.94
 20
-21.2067
 11
-231.171
 21
-21.6389
  0
LINE
  8
0
 10
-231.171
 20
-21.6389
 11
-231.482
 21
-22.0178
  0
LINE
  8
0
 10
-231.482
 20
-22.0178
 11
-231.861
 21
-22.3287
  0
LINE
  8
0
 10
-231.861
 20
-22.3287
 11
-232.293
 21
-22.5597
  0
LINE
  8
0
 10
-232.293
 20
-22.5597
 11
-232.762
 21
-22.702
  0
LINE
  8
0
 10
-232.762
 20
-22.702
 11
-233.25
 21
-22.75
  0
LINE
  8
0
 10
-233.25
 20
-22.75
 11
-233.738
 21
-22.702
  0
LINE
  8
0
 10
0
 20
-29
 11
-0.487717
 21
-28.952
  0
LINE
  8
0
 10
-0.487717
 20
-28.952
 11
-0.956696
 21
-28.8097
  0
LINE
  8
0
 10
-0.956696
 20
-28.8097
 11
-1.38892
 21
-28.5787
  0
LINE
  8
0
 10
-1.38892
 20
-28.5787
 11
-1.76776
 21
-28.2678
  0
LINE
  8
0
 10
-1.76776
 20
-28.2678
 11
-2.07866
 21
-27.8889
  0
LINE
  8
0
 10
-2.07866
 20
-27.8889
 11
-2.30969
 21
-27.4567
  0
LINE
  8
0
 10
-2.30969
 20
-27.4567
 11
-2.45195
 21
-26.9877
  0
LINE
  8
0
 10
-2.45195
 20
-26.9877
 11
-2.5
 21
-26.5
  0
LINE
  8
0
 10
-2.5
 20
-26.5
 11
-2.45195
 21
-26.0123
  0
LINE
  8
0
 10
-2.45195
 20
-26.0123
 11
-2.30969
 21
-25.5433
  0
LINE
  8
0
 10
-2.30969
 20
-25.5433
 11
-2.07866
 21
-25.1111
  0
LINE
  8
0
 10
-2.07866
 20
-25.1111
 11
-1.76776
 21
-24.7322
  0
LINE
  8
0
 10
-1.76776
 20
-24.7322
 11
-1.69566
 21
-24.673
  0
LINE
  8
0
 10
-1.69566
 20
-24.673
 11
-1.69566
 21
-23.2942
  0
LINE
  8
0
 10
-1.69566
 20
-23.2942
 11
-1.5928
 21
-22.8214
  0
LINE
  8
0
 10
-1.5928
 20
-22.8214
 11
-1.36092
 21
-22.3967
  0
LINE
  8
0
 10
-1.36092
 20
-22.3967
 11
-1.01877
 21
-22.0546
  0
LINE
  8
0
 10
-1.01877
 20
-22.0546
 11
-0.594086
 21
-21.8227
  0
LINE
  8
0
 10
-0.594086
 20
-21.8227
 11
-0.121262
 21
-21.7198
  0
LINE
  8
0
 10
-0.121262
 20
-21.7198
 11
0.361359
 21
-21.7543
  0
LINE
  8
0
 10
0.361359
 20
-21.7543
 11
0.814713
 21
-21.9234
  0
LINE
  8
0
 10
0.814713
 20
-21.9234
 11
1.20207
 21
-22.2134
  0
LINE
  8
0
 10
1.20207
 20
-22.2134
 11
1.49205
 21
-22.6008
  0
LINE
  8
0
 10
1.49205
 20
-22.6008
 11
1.66115
 21
-23.0541
  0
LINE
  8
0
 10
1.66115
 20
-23.0541
 11
1.69566
 21
-23.5367
  0
LINE
  8
0
 10
1.69566
 20
-23.5367
 11
1.69566
 21
-24.673
  0
LINE
  8
0
 10
1.69566
 20
-24.673
 11
1.76776
 21
-24.7322
  0
LINE
  8
0
 10
1.76776
 20
-24.7322
 11
2.07866
 21
-25.1111
  0
LINE
  8
0
 10
2.07866
 20
-25.1111
 11
2.30969
 21
-25.5433
  0
LINE
  8
0
 10
2.30969
 20
-25.5433
 11
2.45195
 21
-26.0123
  0
LINE
  8
0
 10
2.45195
 20
-26.0123
 11
2.5
 21
-26.5
  0
LINE
  8
0
 10
2.5
 20
-26.5
 11
2.45195
 21
-26.9877
  0
LINE
  8
0
 10
2.45195
 20
-26.9877
 11
2.30969
 21
-27.4567
  0
LINE
  8
0
 10
2.30969
 20
-27.4567
 11
2.07866
 21
-27.8889
  0
LINE
  8
0
 10
2.07866
 20
-27.8889
 11
1.76776
 21
-28.2678
  0
LINE
  8
0
 10
1.76776
 20
-28.2678
 11
1.38892
 21
-28.5787
  0
LINE
  8
0
 10
1.38892
 20
-28.5787
 11
0.956696
 21
-28.8097
  0
LINE
  8
0
 10
0.956696
 20
-28.8097
 11
0.487717
 21
-28.952
  0
LINE
  8
0
 10
0.487717
 20
-28.952
 11
0
 21
-29
  0
LINE
  8
0
 10
137.55
 20
-29.7
 11
137.55
 21
-23.3
  0
LINE
  8
0
 10
137.55
 20
-23.3
 11
148.304
 21
-23.3
  0
LINE
  8
0
 10
148.304
 20
-23.3
 11
148.304
 21
-23.2942
  0
LINE
  8
0
 10
148.304
 20
-23.2942
 11
148.407
 21
-22.8214
  0
LINE
  8
0
 10
148.407
 20
-22.8214
 11
148.639
 21
-22.3967
  0
LINE
  8
0
 10
148.639
 20
-22.3967
 11
148.981
 21
-22.0546
  0
LINE
  8
0
 10
148.981
 20
-22.0546
 11
149.406
 21
-21.8227
  0
LINE
  8
0
 10
149.406
 20
-21.8227
 11
149.879
 21
-21.7198
  0
LINE
  8
0
 10
149.879
 20
-21.7198
 11
150.361
 21
-21.7543
  0
LINE
  8
0
 10
150.361
 20
-21.7543
 11
150.815
 21
-21.9234
  0
LINE
  8
0
 10
150.815
 20
-21.9234
 11
151.202
 21
-22.2134
  0
LINE
  8
0
 10
151.202
 20
-22.2134
 11
151.492
 21
-22.6008
  0
LINE
  8
0
 10
151.492
 20
-22.6008
 11
151.661
 21
-23.0541
  0
LINE
  8
0
 10
151.661
 20
-23.0541
 11
151.679
 21
-23.3
  0
LINE
  8
0
 10
151.679
 20
-23.3
 11
152.45
 21
-23.3
  0
LINE
  8
0
 10
152.45
 20
-23.3
 11
152.45
 21
-29.7
  0
LINE
  8
0
 10
152.45
 20
-29.7
 11
137.55
 21
-29.7
  0
LINE
  8
0
 10
-152.45
 20
-29.7
 11
-152.45
 21
-23.3
  0
LINE
  8
0
 10
-152.45
 20
-23.3
 11
-151.696
 21
-23.3
  0
LINE
  8
0
 10
-151.696
 20
-23.3
 11
-151.696
 21
-23.2942
  0
LINE
  8
0
 10
-151.696
 20
-23.2942
 11
-151.593
 21
-22.8214
  0
LINE
  8
0
 10
-151.593
 20
-22.8214
 11
-151.361
 21
-22.3967
  0
LINE
  8
0
 10
-151.361
 20
-22.3967
 11
-151.019
 21
-22.0546
  0
LINE
  8
0
 10
-151.019
 20
-22.0546
 11
-150.594
 21
-21.8227
  0
LINE
  8
0
 10
-150.594
 20
-21.8227
 11
-150.121
 21
-21.7198
  0
LINE
  8
0
 10
-150.121
 20
-21.7198
 11
-149.639
 21
-21.7543
  0
LINE
  8
0
 10
-149.639
 20
-21.7543
 11
-149.185
 21
-21.9234
  0
LINE
  8
0
 10
-149.185
 20
-21.9234
 11
-148.798
 21
-22.2134
  0
LINE
  8
0
 10
-148.798
 20
-22.2134
 11
-148.508
 21
-22.6008
  0
LINE
  8
0
 10
-148.508
 20
-22.6008
 11
-148.339
 21
-23.0541
  0
LINE
  8
0
 10
-148.339
 20
-23.0541
 11
-148.321
 21
-23.3
  0
LINE
  8
0
 10
-148.321
 20
-23.3
 11
-137.55
 21
-23.3
  0
LINE
  8
0
 10
-137.55
 20
-23.3
 11
-137.55
 21
-29.7
  0
LINE
  8
0
 10
-137.55
 20
-29.7
 11
-152.45
 21
-29.7
  0
LINE
  8
0
 10
107.55
 20
-29.7
 11
107.55
 21
-23.3
  0
LINE
  8
0
 10
107.55
 20
-23.3
 11
122.45
 21
-23.3
  0
LINE
  8
0
 10
122.45
 20
-23.3
 11
122.45
 21
-29.7
  0
LINE
  8
0
 10
122.45
 20
-29.7
 11
107.55
 21
-29.7
  0
LINE
  8
0
 10
-122.45
 20
-29.7
 11
-122.45
 21
-23.3
  0
LINE
  8
0
 10
-122.45
 20
-23.3
 11
-107.55
 21
-23.3
  0
LINE
  8
0
 10
-107.55
 20
-23.3
 11
-107.55
 21
-29.7
  0
LINE
  8
0
 10
-107.55
 20
-29.7
 11
-122.45
 21
-29.7
  0
LINE
  8
0
 10
7.54999
 20
-29.7
 11
7.54999
 21
-23.3
  0
LINE
  8
0
 10
7.54999
 20
-23.3
 11
22.45
 21
-23.3
  0
LINE
  8
0
 10
22.45
 20
-23.3
 11
22.45
 21
-29.7
  0
LINE
  8
0
 10
22.45
 20
-29.7
 11
7.54999
 21
-29.7
  0
LINE
  8
0
 10
-22.45
 20
-29.7
 11
-22.45
 21
-23.3
  0
LINE
  8
0
 10
-22.45
 20
-23.3
 11
-7.54999
 21
-23.3
  0
LINE
  8
0
 10
-7.54999
 20
-23.3
 11
-7.54999
 21
-29.7
  0
LINE
  8
0
 10
-7.54999
 20
-29.7
 11
-22.45
 21
-29.7
  0
LINE
  8
0
 10
130
 20
-29
 11
129.512
 21
-28.952
  0
LINE
  8
0
 10
129.512
 20
-28.952
 11
129.043
 21
-28.8097
  0
LINE
  8
0
 10
129.043
 20
-28.8097
 11
128.611
 21
-28.5787
  0
LINE
  8
0
 10
128.611
 20
-28.5787
 11
128.232
 21
-28.2678
  0
LINE
  8
0
 10
128.232
 20
-28.2678
 11
127.921
 21
-27.8889
  0
LINE
  8
0
 10
127.921
 20
-27.8889
 11
127.69
 21
-27.4567
  0
LINE
  8
0
 10
127.69
 20
-27.4567
 11
127.548
 21
-26.9877
  0
LINE
  8
0
 10
127.548
 20
-26.9877
 11
127.5
 21
-26.5
  0
LINE
  8
0
 10
127.5
 20
-26.5
 11
127.548
 21
-26.0123
  0
LINE
  8
0
 10
127.548
 20
-26.0123
 11
127.69
 21
-25.5433
  0
LINE
  8
0
 10
127.69
 20
-25.5433
 11
127.921
 21
-25.1111
  0
LINE
  8
0
 10
127.921
 20
-25.1111
 11
128.232
 21
-24.7322
  0
LINE
  8
0
 10
128.232
 20
-24.7322
 11
128.611
 21
-24.4213
  0
LINE
  8
0
 10
128.611
 20
-24.4213
 11
129.043
 21
-24.1903
  0
LINE
  8
0
 10
129.043
 20
-24.1903
 11
129.512
 21
-24.048
  0
LINE
  8
0
 10
129.512
 20
-24.048
 11
130
 21
-24
  0
LINE
  8
0
 10
130
 20
-24
 11
130.488
 21
-24.048
  0
LINE
  8
0
 10
130.488
 20
-24.048
 11
130.957
 21
-24.1903
  0
LINE
  8
0
 10
130.957
 20
-24.1903
 11
131.389
 21
-24.4213
  0
LINE
  8
0
 10
131.389
 20
-24.4213
 11
131.768
 21
-24.7322
  0
LINE
  8
0
 10
131.768
 20
-24.7322
 11
132.079
 21
-25.1111
  0
LINE
  8
0
 10
132.079
 20
-25.1111
 11
132.31
 21
-25.5433
  0
LINE
  8
0
 10
132.31
 20
-25.5433
 11
132.452
 21
-26.0123
  0
LINE
  8
0
 10
132.452
 20
-26.0123
 11
132.5
 21
-26.5
  0
LINE
  8
0
 10
132.5
 20
-26.5
 11
132.452
 21
-26.9877
  0
LINE
  8
0
 10
132.452
 20
-26.9877
 11
132.31
 21
-27.4567
  0
LINE
  8
0
 10
132.31
 20
-27.4567
 11
132.079
 21
-27.8889
  0
LINE
  8
0
 10
132.079
 20
-27.8889
 11
131.768
 21
-28.2678
  0
LINE
  8
0
 10
131.768
 20
-28.2678
 11
131.389
 21
-28.5787
  0
LINE
  8
0
 10
131.389
 20
-28.5787
 11
130.957
 21
-28.8097
  0
LINE
  8
0
 10
130.957
 20
-28.8097
 11
130.488
 21
-28.952
  0
LINE
  8
0
 10
130.488
 20
-28.952
 11
130
 21
-29
  0
LINE
  8
0
 10
-130
 20
-29
 11
-130.488
 21
-28.952
  0
LINE
  8
0
 10
-130.488
 20
-28.952
 11
-130.957
 21
-28.8097
  0
LINE
  8
0
 10
-130.957
 20
-28.8097
 11
-131.389
 21
-28.5787
  0
LINE
  8
0
 10
-131.389
 20
-28.5787
 11
-131.768
 21
-28.2678
  0
LINE
  8
0
 10
-131.768
 20
-28.2678
 11
-132.079
 21
-27.8889
  0
LINE
  8
0
 10
-132.079
 20
-27.8889
 11
-132.31
 21
-27.4567
  0
LINE
  8
0
 10
-132.31
 20
-27.4567
 11
-132.452
 21
-26.9877
  0
LINE
  8
0
 10
-132.452
 20
-26.9877
 11
-132.5
 21
-26.5
  0
LINE
  8
0
 10
-132.5
 20
-26.5
 11
-132.452
 21
-26.0123
  0
LINE
  8
0
 10
-132.452
 20
-26.0123
 11
-132.31
 21
-25.5433
  0
LINE
  8
0
 10
-132.31
 20
-25.5433
 11
-132.079
 21
-25.1111
  0
LINE
  8
0
 10
-132.079
 20
-25.1111
 11
-131.768
 21
-24.7322
  0
LINE
  8
0
 10
-131.768
 20
-24.7322
 11
-131.389
 21
-24.4213
  0
LINE
  8
0
 10
-131.389
 20
-24.4213
 11
-130.957
 21
-24.1903
  0
LINE
  8
0
 10
-130.957
 20
-24.1903
 11
-130.488
 21
-24.048
  0
LINE
  8
0
 10
-130.488
 20
-24.048
 11
-130
 21
-24
  0
LINE
  8
0
 10
-130
 20
-24
 11
-129.512
 21
-24.048
  0
LINE
  8
0
 10
-129.512
 20
-24.048
 11
-129.043
 21
-24.1903
  0
LINE
  8
0
 10
-129.043
 20
-24.1903
 11
-128.611
 21
-24.4213
  0
LINE
  8
0
 10
-128.611
 20
-24.4213
 11
-128.232
 21
-24.7322
  0
LINE
  8
0
 10
-128.232
 20
-24.7322
 11
-127.921
 21
-25.1111
  0
LINE
  8
0
 10
-127.921
 20
-25.1111
 11
-127.69
 21
-25.5433
  0
LINE
  8
0
 10
-127.69
 20
-25.5433
 11
-127.548
 21
-26.0123
  0
LINE
  8
0
 10
-127.548
 20
-26.0123
 11
-127.5
 21
-26.5
  0
LINE
  8
0
 10
-127.5
 20
-26.5
 11
-127.548
 21
-26.9877
  0
LINE
  8
0
 10
-127.548
 20
-26.9877
 11
-127.69
 21
-27.4567
  0
LINE
  8
0
 10
-127.69
 20
-27.4567
 11
-127.921
 21
-27.8889
  0
LINE
  8
0
 10
-127.921
 20
-27.8889
 11
-128.232
 21
-28.2678
  0
LINE
  8
0
 10
-128.232
 20
-28.2678
 11
-128.611
 21
-28.5787
  0
LINE
  8
0
 10
-128.611
 20
-28.5787
 11
-129.043
 21
-28.8097
  0
LINE
  8
0
 10
-129.043
 20
-28.8097
 11
-129.512
 21
-28.952
  0
LINE
  8
0
 10
-129.512
 20
-28.952
 11
-130
 21
-29
  0
LINE
  8
0
 10
-236.45
 20
-42.7
 11
-236.45
 21
-27.8
  0
LINE
  8
0
 10
-236.45
 20
-27.8
 11
-230.05
 21
-27.8
  0
LINE
  8
0
 10
-230.05
 20
-27.8
 11
-230.05
 21
-42.7
  0
LINE
  8
0
 10
-230.05
 20
-42.7
 11
-236.45
 21
-42.7
  0
LINE
  8
0
 10
230.05
 20
-42.7
 11
230.05
 21
-27.8
  0
LINE
  8
0
 10
230.05
 20
-27.8
 11
236.45
 21
-27.8
  0
LINE
  8
0
 10
236.45
 20
-27.8
 11
236.45
 21
-42.7
  0
LINE
  8
0
 10
236.45
 20
-42.7
 11
230.05
 21
-42.7
  0
LINE
  8
0
 10
219.512
 20
-39.702
 11
219.043
 21
-39.5597
  0
LINE
  8
0
 10
219.043
 20
-39.5597
 11
218.611
 21
-39.3287
  0
LINE
  8
0
 10
218.611
 20
-39.3287
 11
218.232
 21
-39.0178
  0
LINE
  8
0
 10
218.232
 20
-39.0178
 11
217.921
 21
-38.6389
  0
LINE
  8
0
 10
217.921
 20
-38.6389
 11
217.69
 21
-38.2067
  0
LINE
  8
0
 10
217.69
 20
-38.2067
 11
217.548
 21
-37.7377
  0
LINE
  8
0
 10
217.548
 20
-37.7377
 11
217.5
 21
-37.25
  0
LINE
  8
0
 10
217.5
 20
-37.25
 11
217.548
 21
-36.7623
  0
LINE
  8
0
 10
217.548
 20
-36.7623
 11
217.69
 21
-36.2933
  0
LINE
  8
0
 10
217.69
 20
-36.2933
 11
217.921
 21
-35.8611
  0
LINE
  8
0
 10
217.921
 20
-35.8611
 11
218.232
 21
-35.4822
  0
LINE
  8
0
 10
218.232
 20
-35.4822
 11
218.611
 21
-35.1713
  0
LINE
  8
0
 10
218.611
 20
-35.1713
 11
219.043
 21
-34.9403
  0
LINE
  8
0
 10
219.043
 20
-34.9403
 11
219.512
 21
-34.798
  0
LINE
  8
0
 10
219.512
 20
-34.798
 11
220
 21
-34.75
  0
LINE
  8
0
 10
220
 20
-34.75
 11
220.488
 21
-34.798
  0
LINE
  8
0
 10
220.488
 20
-34.798
 11
220.957
 21
-34.9403
  0
LINE
  8
0
 10
220.957
 20
-34.9403
 11
221.389
 21
-35.1713
  0
LINE
  8
0
 10
221.389
 20
-35.1713
 11
221.768
 21
-35.4822
  0
LINE
  8
0
 10
221.768
 20
-35.4822
 11
222.079
 21
-35.8611
  0
LINE
  8
0
 10
222.079
 20
-35.8611
 11
222.31
 21
-36.2933
  0
LINE
  8
0
 10
222.31
 20
-36.2933
 11
222.452
 21
-36.7623
  0
LINE
  8
0
 10
222.452
 20
-36.7623
 11
222.5
 21
-37.25
  0
LINE
  8
0
 10
222.5
 20
-37.25
 11
222.452
 21
-37.7377
  0
LINE
  8
0
 10
222.452
 20
-37.7377
 11
222.31
 21
-38.2067
  0
LINE
  8
0
 10
222.31
 20
-38.2067
 11
222.079
 21
-38.6389
  0
LINE
  8
0
 10
222.079
 20
-38.6389
 11
221.768
 21
-39.0178
  0
LINE
  8
0
 10
221.768
 20
-39.0178
 11
221.389
 21
-39.3287
  0
LINE
  8
0
 10
221.389
 20
-39.3287
 11
220.957
 21
-39.5597
  0
LINE
  8
0
 10
220.957
 20
-39.5597
 11
220.488
 21
-39.702
  0
LINE
  8
0
 10
220.488
 20
-39.702
 11
220
 21
-39.75
  0
LINE
  8
0
 10
220
 20
-39.75
 11
219.512
 21
-39.702
  0
LINE
  8
0
 10
-220.488
 20
-39.702
 11
-220.957
 21
-39.5597
  0
LINE
  8
0
 10
-220.957
 20
-39.5597
 11
-221.389
 21
-39.3287
  0
LINE
  8
0
 10
-221.389
 20
-39.3287
 11
-221.768
 21
-39.0178
  0
LINE
  8
0
 10
-221.768
 20
-39.0178
 11
-222.079
 21
-38.6389
  0
LINE
  8
0
 10
-222.079
 20
-38.6389
 11
-222.31
 21
-38.2067
  0
LINE
  8
0
 10
-222.31
 20
-38.2067
 11
-222.452
 21
-37.7377
  0
LINE
  8
0
 10
-222.452
 20
-37.7377
 11
-222.5
 21
-37.25
  0
LINE
  8
0
 10
-222.5
 20
-37.25
 11
-222.452
 21
-36.7623
  0
LINE
  8
0
 10
-222.452
 20
-36.7623
 11
-222.31
 21
-36.2933
  0
LINE
  8
0
 10
-222.31
 20
-36.2933
 11
-222.079
 21
-35.8611
  0
LINE
  8
0
 10
-222.079
 20
-35.8611
 11
-221.768
 21
-35.4822
  0
LINE
  8
0
 10
-221.768
 20
-35.4822
 11
-221.389
 21
-35.1713
  0
LINE
  8
0
 10
-221.389
 20
-35.1713
 11
-220.957
 21
-34.9403
  0
LINE
  8
0
 10
-220.957
 20
-34.9403
 11
-220.488
 21
-34.798
  0
LINE
  8
0
 10
-220.488
 20
-34.798
 11
-220
 21
-34.75
  0
LINE
  8
0
 10
-220
 20
-34.75
 11
-219.512
 21
-34.798
  0
LINE
  8
0
 10
-219.512
 20
-34.798
 11
-219.043
 21
-34.9403
  0
LINE
  8
0
 10
-219.043
 20
-34.9403
 11
-218.611
 21
-35.1713
  0
LINE
  8
0
 10
-218.611
 20
-35.1713
 11
-218.232
 21
-35.4822
  0
LINE
  8
0
 10
-218.232
 20
-35.4822
 11
-217.921
 21
-35.8611
  0
LINE
  8
0
 10
-217.921
 20
-35.8611
 11
-217.69
 21
-36.2933
  0
LINE
  8
0
 10
-217.69
 20
-36.2933
 11
-217.548
 21
-36.7623
  0
LINE
  8
0
 10
-217.548
 20
-36.7623
 11
-217.5
 21
-37.25
  0
LINE
  8
0
 10
-217.5
 20
-37.25
 11
-217.548
 21
-37.7377
  0
LINE
  8
0
 10
-217.548
 20
-37.7377
 11
-217.69
 21
-38.2067
  0
LINE
  8
0
 10
-217.69
 20
-38.2067
 11
-217.921
 21
-38.6389
  0
LINE
  8
0
 10
-217.921
 20
-38.6389
 11
-218.232
 21
-39.0178
  0
LINE
  8
0
 10
-218.232
 20
-39.0178
 11
-218.611
 21
-39.3287
  0
LINE
  8
0
 10
-218.611
 20
-39.3287
 11
-219.043
 21
-39.5597
  0
LINE
  8
0
 10
-219.043
 20
-39.5597
 11
-219.512
 21
-39.702
  0
LINE
  8
0
 10
-219.512
 20
-39.702
 11
-220
 21
-39.75
  0
LINE
  8
0
 10
-220
 20
-39.75
 11
-220.488
 21
-39.702
  0
LINE
  8
0
 10
124.5
 20
-49.25
 11
124.5
 21
-44.25
  0
LINE
  8
0
 10
124.5
 20
-44.25
 11
127.5
 21
-44.25
  0
LINE
  8
0
 10
127.5
 20
-44.25
 11
127.5
 21
-45.0543
  0
LINE
  8
0
 10
127.5
 20
-45.0543
 11
129.615
 21
-45.0543
  0
LINE
  8
0
 10
129.615
 20
-45.0543
 11
130.088
 21
-45.1572
  0
LINE
  8
0
 10
130.088
 20
-45.1572
 11
130.513
 21
-45.3891
  0
LINE
  8
0
 10
130.513
 20
-45.3891
 11
130.855
 21
-45.7312
  0
LINE
  8
0
 10
130.855
 20
-45.7312
 11
131.087
 21
-46.1559
  0
LINE
  8
0
 10
131.087
 20
-46.1559
 11
131.19
 21
-46.6287
  0
LINE
  8
0
 10
131.19
 20
-46.6287
 11
131.155
 21
-47.1114
  0
LINE
  8
0
 10
131.155
 20
-47.1114
 11
130.986
 21
-47.5647
  0
LINE
  8
0
 10
130.986
 20
-47.5647
 11
130.696
 21
-47.9521
  0
LINE
  8
0
 10
130.696
 20
-47.9521
 11
130.309
 21
-48.2421
  0
LINE
  8
0
 10
130.309
 20
-48.2421
 11
129.855
 21
-48.4111
  0
LINE
  8
0
 10
129.855
 20
-48.4111
 11
129.373
 21
-48.4457
  0
LINE
  8
0
 10
129.373
 20
-48.4457
 11
127.5
 21
-48.4457
  0
LINE
  8
0
 10
127.5
 20
-48.4457
 11
127.5
 21
-49.25
  0
LINE
  8
0
 10
127.5
 20
-49.25
 11
124.5
 21
-49.25
  0
LINE
  8
0
 10
-127.5
 20
-49.25
 11
-127.5
 21
-48.4457
  0
LINE
  8
0
 10
-127.5
 20
-48.4457
 11
-129.615
 21
-48.4457
  0
LINE
  8
0
 10
-129.615
 20
-48.4457
 11
-130.088
 21
-48.3428
  0
LINE
  8
0
 10
-130.088
 20
-48.3428
 11
-130.513
 21
-48.1109
  0
LINE
  8
0
 10
-130.513
 20
-48.1109
 11
-130.855
 21
-47.7688
  0
LINE
  8
0
 10
-130.855
 20
-47.7688
 11
-131.087
 21
-47.3441
  0
LINE
  8
0
 10
-131.087
 20
-47.3441
 11
-131.19
 21
-46.8713
  0
LINE
  8
0
 10
-131.19
 20
-46.8713
 11
-131.155
 21
-46.3886
  0
LINE
  8
0
 10
-131.155
 20
-46.3886
 11
-130.986
 21
-45.9353
  0
LINE
  8
0
 10
-130.986
 20
-45.9353
 11
-130.696
 21
-45.5479
  0
LINE
  8
0
 10
-130.696
 20
-45.5479
 11
-130.309
 21
-45.2579
  0
LINE
  8
0
 10
-130.309
 20
-45.2579
 11
-129.855
 21
-45.0888
  0
LINE
  8
0
 10
-129.855
 20
-45.0888
 11
-129.373
 21
-45.0543
  0
LINE
  8
0
 10
-129.373
 20
-45.0543
 11
-127.5
 21
-45.0543
  0
LINE
  8
0
 10
-127.5
 20
-45.0543
 11
-127.5
 21
-44.25
  0
LINE
  8
0
 10
-127.5
 20
-44.25
 11
-124.5
 21
-44.25
  0
LINE
  8
0
 10
-124.5
 20
-44.25
 11
-124.5
 21
-49.25
  0
LINE
  8
0
 10
-124.5
 20
-49.25
 11
-127.5
 21
-49.25
  0
LINE
  8
0
 10
102.5
 20
-49.25
 11
102.5
 21
-44.25
  0
LINE
  8
0
 10
102.5
 20
-44.25
 11
105.5
 21
-44.25
  0
LINE
  8
0
 10
105.5
 20
-44.25
 11
105.5
 21
-49.25
  0
LINE
  8
0
 10
105.5
 20
-49.25
 11
102.5
 21
-49.25
  0
LINE
  8
0
 10
-105.5
 20
-49.25
 11
-105.5
 21
-44.25
  0
LINE
  8
0
 10
-105.5
 20
-44.25
 11
-102.5
 21
-44.25
  0
LINE
  8
0
 10
-102.5
 20
-44.25
 11
-102.5
 21
-49.25
  0
LINE
  8
0
 10
-102.5
 20
-49.25
 11
-105.5
 21
-49.25
  0
LINE
  8
0
 10
-173.456
 20
-48.4457
 11
-173.929
 21
-48.3428
  0
LINE
  8
0
 10
-173.929
 20
-48.3428
 11
-174.353
 21
-48.1109
  0
LINE
  8
0
 10
-174.353
 20
-48.1109
 11
-174.695
 21
-47.7688
  0
LINE
  8
0
 10
-174.695
 20
-47.7688
 11
-174.927
 21
-47.3441
  0
LINE
  8
0
 10
-174.927
 20
-47.3441
 11
-175.03
 21
-46.8713
  0
LINE
  8
0
 10
-175.03
 20
-46.8713
 11
-174.996
 21
-46.3886
  0
LINE
  8
0
 10
-174.996
 20
-46.3886
 11
-174.827
 21
-45.9353
  0
LINE
  8
0
 10
-174.827
 20
-45.9353
 11
-174.537
 21
-45.5479
  0
LINE
  8
0
 10
-174.537
 20
-45.5479
 11
-174.149
 21
-45.2579
  0
LINE
  8
0
 10
-174.149
 20
-45.2579
 11
-173.696
 21
-45.0888
  0
LINE
  8
0
 10
-173.696
 20
-45.0888
 11
-173.213
 21
-45.0543
  0
LINE
  8
0
 10
-173.213
 20
-45.0543
 11
-170.385
 21
-45.0543
  0
LINE
  8
0
 10
-170.385
 20
-45.0543
 11
-169.912
 21
-45.1572
  0
LINE
  8
0
 10
-169.912
 20
-45.1572
 11
-169.487
 21
-45.3891
  0
LINE
  8
0
 10
-169.487
 20
-45.3891
 11
-169.145
 21
-45.7312
  0
LINE
  8
0
 10
-169.145
 20
-45.7312
 11
-168.913
 21
-46.1559
  0
LINE
  8
0
 10
-168.913
 20
-46.1559
 11
-168.81
 21
-46.6287
  0
LINE
  8
0
 10
-168.81
 20
-46.6287
 11
-168.845
 21
-47.1114
  0
LINE
  8
0
 10
-168.845
 20
-47.1114
 11
-169.014
 21
-47.5647
  0
LINE
  8
0
 10
-169.014
 20
-47.5647
 11
-169.304
 21
-47.9521
  0
LINE
  8
0
 10
-169.304
 20
-47.9521
 11
-169.691
 21
-48.2421
  0
LINE
  8
0
 10
-169.691
 20
-48.2421
 11
-170.145
 21
-48.4111
  0
LINE
  8
0
 10
-170.145
 20
-48.4111
 11
-170.627
 21
-48.4457
  0
LINE
  8
0
 10
-170.627
 20
-48.4457
 11
-173.456
 21
-48.4457
  0
LINE
  8
0
 10
170.385
 20
-48.4457
 11
169.912
 21
-48.3428
  0
LINE
  8
0
 10
169.912
 20
-48.3428
 11
169.487
 21
-48.1109
  0
LINE
  8
0
 10
169.487
 20
-48.1109
 11
169.145
 21
-47.7688
  0
LINE
  8
0
 10
169.145
 20
-47.7688
 11
168.913
 21
-47.3441
  0
LINE
  8
0
 10
168.913
 20
-47.3441
 11
168.81
 21
-46.8713
  0
LINE
  8
0
 10
168.81
 20
-46.8713
 11
168.845
 21
-46.3886
  0
LINE
  8
0
 10
168.845
 20
-46.3886
 11
169.014
 21
-45.9353
  0
LINE
  8
0
 10
169.014
 20
-45.9353
 11
169.304
 21
-45.5479
  0
LINE
  8
0
 10
169.304
 20
-45.5479
 11
169.691
 21
-45.2579
  0
LINE
  8
0
 10
169.691
 20
-45.2579
 11
170.145
 21
-45.0888
  0
LINE
  8
0
 10
170.145
 20
-45.0888
 11
170.627
 21
-45.0543
  0
LINE
  8
0
 10
170.627
 20
-45.0543
 11
173.456
 21
-45.0543
  0
LINE
  8
0
 10
173.456
 20
-45.0543
 11
173.929
 21
-45.1572
  0
LINE
  8
0
 10
173.929
 20
-45.1572
 11
174.353
 21
-45.3891
  0
LINE
  8
0
 10
174.353
 20
-45.3891
 11
174.695
 21
-45.7312
  0
LINE
  8
0
 10
174.695
 20
-45.7312
 11
174.927
 21
-46.1559
  0
LINE
  8
0
 10
174.927
 20
-46.1559
 11
175.03
 21
-46.6287
  0
LINE
  8
0
 10
175.03
 20
-46.6287
 11
174.996
 21
-47.1114
  0
LINE
  8
0
 10
174.996
 20
-47.1114
 11
174.827
 21
-47.5647
  0
LINE
  8
0
 10
174.827
 20
-47.5647
 11
174.537
 21
-47.9521
  0
LINE
  8
0
 10
174.537
 20
-47.9521
 11
174.149
 21
-48.2421
  0
LINE
  8
0
 10
174.149
 20
-48.2421
 11
173.696
 21
-48.4111
  0
LINE
  8
0
 10
173.696
 20
-48.4111
 11
173.213
 21
-48.4457
  0
LINE
  8
0
 10
173.213
 20
-48.4457
 11
170.385
 21
-48.4457
  0
LINE
  8
0
 10
20.3848
 20
-48.4457
 11
19.912
 21
-48.3428
  0
LINE
  8
0
 10
19.912
 20
-48.3428
 11
19.4873
 21
-48.1109
  0
LINE
  8
0
 10
19.4873
 20
-48.1109
 11
19.1452
 21
-47.7688
  0
LINE
  8
0
 10
19.1452
 20
-47.7688
 11
18.9133
 21
-47.3441
  0
LINE
  8
0
 10
18.9133
 20
-47.3441
 11
18.8104
 21
-46.8713
  0
LINE
  8
0
 10
18.8104
 20
-46.8713
 11
18.8449
 21
-46.3886
  0
LINE
  8
0
 10
18.8449
 20
-46.3886
 11
19.014
 21
-45.9353
  0
LINE
  8
0
 10
19.014
 20
-45.9353
 11
19.304
 21
-45.5479
  0
LINE
  8
0
 10
19.304
 20
-45.5479
 11
19.6914
 21
-45.2579
  0
LINE
  8
0
 10
19.6914
 20
-45.2579
 11
20.1447
 21
-45.0888
  0
LINE
  8
0
 10
20.1447
 20
-45.0888
 11
20.6274
 21
-45.0543
  0
LINE
  8
0
 10
20.6274
 20
-45.0543
 11
23.4558
 21
-45.0543
  0
LINE
  8
0
 10
23.4558
 20
-45.0543
 11
23.9286
 21
-45.1572
  0
LINE
  8
0
 10
23.9286
 20
-45.1572
 11
24.3533
 21
-45.3891
  0
LINE
  8
0
 10
24.3533
 20
-45.3891
 11
24.6954
 21
-45.7312
  0
LINE
  8
0
 10
24.6954
 20
-45.7312
 11
24.9273
 21
-46.1559
  0
LINE
  8
0
 10
24.9273
 20
-46.1559
 11
25.0302
 21
-46.6287
  0
LINE
  8
0
 10
25.0302
 20
-46.6287
 11
24.9957
 21
-47.1114
  0
LINE
  8
0
 10
24.9957
 20
-47.1114
 11
24.8266
 21
-47.5647
  0
LINE
  8
0
 10
24.8266
 20
-47.5647
 11
24.5366
 21
-47.9521
  0
LINE
  8
0
 10
24.5366
 20
-47.9521
 11
24.1492
 21
-48.2421
  0
LINE
  8
0
 10
24.1492
 20
-48.2421
 11
23.6959
 21
-48.4111
  0
LINE
  8
0
 10
23.6959
 20
-48.4111
 11
23.2132
 21
-48.4457
  0
LINE
  8
0
 10
23.2132
 20
-48.4457
 11
20.3848
 21
-48.4457
  0
LINE
  8
0
 10
-23.4558
 20
-48.4457
 11
-23.9286
 21
-48.3428
  0
LINE
  8
0
 10
-23.9286
 20
-48.3428
 11
-24.3533
 21
-48.1109
  0
LINE
  8
0
 10
-24.3533
 20
-48.1109
 11
-24.6954
 21
-47.7688
  0
LINE
  8
0
 10
-24.6954
 20
-47.7688
 11
-24.9273
 21
-47.3441
  0
LINE
  8
0
 10
-24.9273
 20
-47.3441
 11
-25.0302
 21
-46.8713
  0
LINE
  8
0
 10
-25.0302
 20
-46.8713
 11
-24.9957
 21
-46.3886
  0
LINE
  8
0
 10
-24.9957
 20
-46.3886
 11
-24.8266
 21
-45.9353
  0
LINE
  8
0
 10
-24.8266
 20
-45.9353
 11
-24.5366
 21
-45.5479
  0
LINE
  8
0
 10
-24.5366
 20
-45.5479
 11
-24.1492
 21
-45.2579
  0
LINE
  8
0
 10
-24.1492
 20
-45.2579
 11
-23.6959
 21
-45.0888
  0
LINE
  8
0
 10
-23.6959
 20
-45.0888
 11
-23.2132
 21
-45.0543
  0
LINE
  8
0
 10
-23.2132
 20
-45.0543
 11
-20.3848
 21
-45.0543
  0
LINE
  8
0
 10
-20.3848
 20
-45.0543
 11
-19.912
 21
-45.1572
  0
LINE
  8
0
 10
-19.912
 20
-45.1572
 11
-19.4873
 21
-45.3891
  0
LINE
  8
0
 10
-19.4873
 20
-45.3891
 11
-19.1452
 21
-45.7312
  0
LINE
  8
0
 10
-19.1452
 20
-45.7312
 11
-18.9133
 21
-46.1559
  0
LINE
  8
0
 10
-18.9133
 20
-46.1559
 11
-18.8104
 21
-46.6287
  0
LINE
  8
0
 10
-18.8104
 20
-46.6287
 11
-18.8449
 21
-47.1114
  0
LINE
  8
0
 10
-18.8449
 20
-47.1114
 11
-19.014
 21
-47.5647
  0
LINE
  8
0
 10
-19.014
 20
-47.5647
 11
-19.304
 21
-47.9521
  0
LINE
  8
0
 10
-19.304
 20
-47.9521
 11
-19.6914
 21
-48.2421
  0
LINE
  8
0
 10
-19.6914
 20
-48.2421
 11
-20.1447
 21
-48.4111
  0
LINE
  8
0
 10
-20.1447
 20
-48.4111
 11
-20.6274
 21
-48.4457
  0
LINE
  8
0
 10
-20.6274
 20
-48.4457
 11
-23.4558
 21
-48.4457
  0
ENDSEC
  0
SECTION
  2
OBJECTS
  0
DICTIONARY
  0
ENDSEC
  0
EOF
