  0
SECTION
  2
BLOCKS
  0
ENDSEC
  0
SECTION
  2
ENTITIES
  0
LINE
  8
0
 10
-193.911
 20
-50.1688
 11
-194.177
 21
-49.7494
  0
LINE
  8
0
 10
-194.177
 20
-49.7494
 11
-194.427
 21
-49.3198
  0
LINE
  8
0
 10
-194.427
 20
-49.3198
 11
-194.66
 21
-48.8805
  0
LINE
  8
0
 10
-194.66
 20
-48.8805
 11
-194.875
 21
-48.4324
  0
LINE
  8
0
 10
-194.875
 20
-48.4324
 11
-195.072
 21
-47.9761
  0
LINE
  8
0
 10
-195.072
 20
-47.9761
 11
-195.251
 21
-47.5123
  0
LINE
  8
0
 10
-195.251
 20
-47.5123
 11
-195.411
 21
-47.0417
  0
LINE
  8
0
 10
-195.411
 20
-47.0417
 11
-195.552
 21
-46.5652
  0
LINE
  8
0
 10
-195.552
 20
-46.5652
 11
-195.675
 21
-46.0834
  0
LINE
  8
0
 10
-195.675
 20
-46.0834
 11
-195.778
 21
-45.5971
  0
LINE
  8
0
 10
-195.778
 20
-45.5971
 11
-195.861
 21
-45.1072
  0
LINE
  8
0
 10
-195.861
 20
-45.1072
 11
-195.925
 21
-44.6143
  0
LINE
  8
0
 10
-195.925
 20
-44.6143
 11
-195.97
 21
-44.1192
  0
LINE
  8
0
 10
-195.97
 20
-44.1192
 11
-195.994
 21
-43.6228
  0
LINE
  8
0
 10
-195.994
 20
-43.6228
 11
-195.999
 21
-43.1257
  0
LINE
  8
0
 10
-195.999
 20
-43.1257
 11
-195.985
 21
-42.6289
  0
LINE
  8
0
 10
-195.985
 20
-42.6289
 11
-195.95
 21
-42.133
  0
LINE
  8
0
 10
-195.95
 20
-42.133
 11
-195.896
 21
-41.6389
  0
LINE
  8
0
 10
-195.896
 20
-41.6389
 11
-195.822
 21
-41.1474
  0
LINE
  8
0
 10
-195.822
 20
-41.1474
 11
-195.729
 21
-40.6592
  0
LINE
  8
0
 10
-195.729
 20
-40.6592
 11
-195.616
 21
-40.1751
  0
LINE
  8
0
 10
-195.616
 20
-40.1751
 11
-195.484
 21
-39.6958
  0
LINE
  8
0
 10
-195.484
 20
-39.6958
 11
-195.333
 21
-39.2222
  0
LINE
  8
0
 10
-195.333
 20
-39.2222
 11
-195.164
 21
-38.7549
  0
LINE
  8
0
 10
-195.164
 20
-38.7549
 11
-194.976
 21
-38.2948
  0
LINE
  8
0
 10
-194.976
 20
-38.2948
 11
-194.77
 21
-37.8425
  0
LINE
  8
0
 10
-194.77
 20
-37.8425
 11
-194.546
 21
-37.3987
  0
LINE
  8
0
 10
-194.546
 20
-37.3987
 11
-194.305
 21
-36.9642
  0
LINE
  8
0
 10
-194.305
 20
-36.9642
 11
-194.046
 21
-36.5396
  0
LINE
  8
0
 10
-194.046
 20
-36.5396
 11
-193.771
 21
-36.1256
  0
LINE
  8
0
 10
-193.771
 20
-36.1256
 11
-193.48
 21
-35.7229
  0
LINE
  8
0
 10
-193.48
 20
-35.7229
 11
-193.172
 21
-35.3321
  0
LINE
  8
0
 10
-193.172
 20
-35.3321
 11
-192.85
 21
-34.9538
  0
LINE
  8
0
 10
-192.85
 20
-34.9538
 11
-192.513
 21
-34.5886
  0
LINE
  8
0
 10
-192.513
 20
-34.5886
 11
-192.161
 21
-34.2372
  0
LINE
  8
0
 10
-192.161
 20
-34.2372
 11
-191.796
 21
-33.8999
  0
LINE
  8
0
 10
-191.796
 20
-33.8999
 11
-191.418
 21
-33.5775
  0
LINE
  8
0
 10
-191.418
 20
-33.5775
 11
-191.027
 21
-33.2704
  0
LINE
  8
0
 10
-191.027
 20
-33.2704
 11
-190.624
 21
-32.979
  0
LINE
  8
0
 10
-190.624
 20
-32.979
 11
-190.21
 21
-32.7039
  0
LINE
  8
0
 10
-190.21
 20
-32.7039
 11
-189.786
 21
-32.4454
  0
LINE
  8
0
 10
-189.786
 20
-32.4454
 11
-189.351
 21
-32.2041
  0
LINE
  8
0
 10
-189.351
 20
-32.2041
 11
-188.908
 21
-31.9802
  0
LINE
  8
0
 10
-188.908
 20
-31.9802
 11
-188.455
 21
-31.7741
  0
LINE
  8
0
 10
-188.455
 20
-31.7741
 11
-187.995
 21
-31.5862
  0
LINE
  8
0
 10
-187.995
 20
-31.5862
 11
-187.528
 21
-31.4167
  0
LINE
  8
0
 10
-187.528
 20
-31.4167
 11
-187.054
 21
-31.2659
  0
LINE
  8
0
 10
-187.054
 20
-31.2659
 11
-186.575
 21
-31.1341
  0
LINE
  8
0
 10
-186.575
 20
-31.1341
 11
-186.091
 21
-31.0214
  0
LINE
  8
0
 10
-186.091
 20
-31.0214
 11
-185.603
 21
-30.9281
  0
LINE
  8
0
 10
-185.603
 20
-30.9281
 11
-185.111
 21
-30.8542
  0
LINE
  8
0
 10
-185.111
 20
-30.8542
 11
-184.617
 21
-30.8
  0
LINE
  8
0
 10
-184.617
 20
-30.8
 11
-184.121
 21
-30.7654
  0
LINE
  8
0
 10
-184.121
 20
-30.7654
 11
-183.624
 21
-30.7506
  0
LINE
  8
0
 10
-183.624
 20
-30.7506
 11
-183.127
 21
-30.7556
  0
LINE
  8
0
 10
-183.127
 20
-30.7556
 11
-182.631
 21
-30.7803
  0
LINE
  8
0
 10
-182.631
 20
-30.7803
 11
-182.136
 21
-30.8247
  0
LINE
  8
0
 10
-182.136
 20
-30.8247
 11
-181.643
 21
-30.8887
  0
LINE
  8
0
 10
-181.643
 20
-30.8887
 11
-181.153
 21
-30.9723
  0
LINE
  8
0
 10
-181.153
 20
-30.9723
 11
-180.667
 21
-31.0754
  0
LINE
  8
0
 10
-180.667
 20
-31.0754
 11
-180.185
 21
-31.1976
  0
LINE
  8
0
 10
-180.185
 20
-31.1976
 11
-179.708
 21
-31.339
  0
LINE
  8
0
 10
-179.708
 20
-31.339
 11
-179.238
 21
-31.4991
  0
LINE
  8
0
 10
-179.238
 20
-31.4991
 11
-178.774
 21
-31.6779
  0
LINE
  8
0
 10
-178.774
 20
-31.6779
 11
-178.318
 21
-31.8749
  0
LINE
  8
0
 10
-178.318
 20
-31.8749
 11
-177.869
 21
-32.0899
  0
LINE
  8
0
 10
-177.869
 20
-32.0899
 11
-177.43
 21
-32.3226
  0
LINE
  8
0
 10
-177.43
 20
-32.3226
 11
-177.001
 21
-32.5726
  0
LINE
  8
0
 10
-177.001
 20
-32.5726
 11
-176.581
 21
-32.8394
  0
LINE
  8
0
 10
-176.581
 20
-32.8394
 11
-176.173
 21
-33.1227
  0
LINE
  8
0
 10
-176.173
 20
-33.1227
 11
-175.776
 21
-33.422
  0
LINE
  8
0
 10
-175.776
 20
-33.422
 11
-175.391
 21
-33.7368
  0
LINE
  8
0
 10
-175.391
 20
-33.7368
 11
-175.02
 21
-34.0667
  0
LINE
  8
0
 10
-175.02
 20
-34.0667
 11
-174.661
 21
-34.4112
  0
LINE
  8
0
 10
-174.661
 20
-34.4112
 11
-174.317
 21
-34.7695
  0
LINE
  8
0
 10
-174.317
 20
-34.7695
 11
-173.987
 21
-35.1413
  0
LINE
  8
0
 10
-173.987
 20
-35.1413
 11
-173.672
 21
-35.526
  0
LINE
  8
0
 10
-173.672
 20
-35.526
 11
-173.373
 21
-35.9228
  0
LINE
  8
0
 10
-173.373
 20
-35.9228
 11
-173.089
 21
-36.3312
  0
LINE
  8
0
 10
-173.089
 20
-36.3312
 11
-172.823
 21
-36.7506
  0
LINE
  8
0
 10
-172.823
 20
-36.7506
 11
-172.573
 21
-37.1802
  0
LINE
  8
0
 10
-172.573
 20
-37.1802
 11
-172.34
 21
-37.6194
  0
LINE
  8
0
 10
-172.34
 20
-37.6194
 11
-172.125
 21
-38.0676
  0
LINE
  8
0
 10
-172.125
 20
-38.0676
 11
-171.928
 21
-38.5239
  0
LINE
  8
0
 10
-171.928
 20
-38.5239
 11
-171.749
 21
-38.9877
  0
LINE
  8
0
 10
-171.749
 20
-38.9877
 11
-171.589
 21
-39.4583
  0
LINE
  8
0
 10
-171.589
 20
-39.4583
 11
-171.448
 21
-39.9348
  0
LINE
  8
0
 10
-171.448
 20
-39.9348
 11
-171.325
 21
-40.4166
  0
LINE
  8
0
 10
-171.325
 20
-40.4166
 11
-171.222
 21
-40.9028
  0
LINE
  8
0
 10
-171.222
 20
-40.9028
 11
-171.139
 21
-41.3928
  0
LINE
  8
0
 10
-171.139
 20
-41.3928
 11
-171.075
 21
-41.8857
  0
LINE
  8
0
 10
-171.075
 20
-41.8857
 11
-171.03
 21
-42.3808
  0
LINE
  8
0
 10
-171.03
 20
-42.3808
 11
-171.006
 21
-42.8772
  0
LINE
  8
0
 10
-171.006
 20
-42.8772
 11
-171.001
 21
-43.3743
  0
LINE
  8
0
 10
-171.001
 20
-43.3743
 11
-171.015
 21
-43.8711
  0
LINE
  8
0
 10
-171.015
 20
-43.8711
 11
-171.05
 21
-44.3669
  0
LINE
  8
0
 10
-171.05
 20
-44.3669
 11
-171.104
 21
-44.861
  0
LINE
  8
0
 10
-171.104
 20
-44.861
 11
-171.178
 21
-45.3526
  0
LINE
  8
0
 10
-171.178
 20
-45.3526
 11
-171.271
 21
-45.8408
  0
LINE
  8
0
 10
-171.271
 20
-45.8408
 11
-171.384
 21
-46.3249
  0
LINE
  8
0
 10
-171.384
 20
-46.3249
 11
-171.516
 21
-46.8042
  0
LINE
  8
0
 10
-171.516
 20
-46.8042
 11
-171.667
 21
-47.2778
  0
LINE
  8
0
 10
-171.667
 20
-47.2778
 11
-171.836
 21
-47.7451
  0
LINE
  8
0
 10
-171.836
 20
-47.7451
 11
-172.024
 21
-48.2052
  0
LINE
  8
0
 10
-172.024
 20
-48.2052
 11
-172.23
 21
-48.6575
  0
LINE
  8
0
 10
-172.23
 20
-48.6575
 11
-172.454
 21
-49.1013
  0
LINE
  8
0
 10
-172.454
 20
-49.1013
 11
-172.695
 21
-49.5358
  0
LINE
  8
0
 10
-172.695
 20
-49.5358
 11
-172.954
 21
-49.9604
  0
LINE
  8
0
 10
-172.954
 20
-49.9604
 11
-173.146
 21
-50.25
  0
LINE
  8
0
 10
-173.146
 20
-50.25
 11
173.146
 21
-50.25
  0
LINE
  8
0
 10
173.146
 20
-50.25
 11
172.954
 21
-49.9604
  0
LINE
  8
0
 10
172.954
 20
-49.9604
 11
172.695
 21
-49.5358
  0
LINE
  8
0
 10
172.695
 20
-49.5358
 11
172.454
 21
-49.1013
  0
LINE
  8
0
 10
172.454
 20
-49.1013
 11
172.23
 21
-48.6575
  0
LINE
  8
0
 10
172.23
 20
-48.6575
 11
172.024
 21
-48.2052
  0
LINE
  8
0
 10
172.024
 20
-48.2052
 11
171.836
 21
-47.7451
  0
LINE
  8
0
 10
171.836
 20
-47.7451
 11
171.667
 21
-47.2778
  0
LINE
  8
0
 10
171.667
 20
-47.2778
 11
171.516
 21
-46.8042
  0
LINE
  8
0
 10
171.516
 20
-46.8042
 11
171.384
 21
-46.3249
  0
LINE
  8
0
 10
171.384
 20
-46.3249
 11
171.271
 21
-45.8408
  0
LINE
  8
0
 10
171.271
 20
-45.8408
 11
171.178
 21
-45.3526
  0
LINE
  8
0
 10
171.178
 20
-45.3526
 11
171.104
 21
-44.861
  0
LINE
  8
0
 10
171.104
 20
-44.861
 11
171.05
 21
-44.3669
  0
LINE
  8
0
 10
171.05
 20
-44.3669
 11
171.015
 21
-43.8711
  0
LINE
  8
0
 10
171.015
 20
-43.8711
 11
171.001
 21
-43.3743
  0
LINE
  8
0
 10
171.001
 20
-43.3743
 11
171.006
 21
-42.8772
  0
LINE
  8
0
 10
171.006
 20
-42.8772
 11
171.03
 21
-42.3808
  0
LINE
  8
0
 10
171.03
 20
-42.3808
 11
171.075
 21
-41.8857
  0
LINE
  8
0
 10
171.075
 20
-41.8857
 11
171.139
 21
-41.3928
  0
LINE
  8
0
 10
171.139
 20
-41.3928
 11
171.222
 21
-40.9028
  0
LINE
  8
0
 10
171.222
 20
-40.9028
 11
171.325
 21
-40.4166
  0
LINE
  8
0
 10
171.325
 20
-40.4166
 11
171.448
 21
-39.9348
  0
LINE
  8
0
 10
171.448
 20
-39.9348
 11
171.589
 21
-39.4583
  0
LINE
  8
0
 10
171.589
 20
-39.4583
 11
171.749
 21
-38.9877
  0
LINE
  8
0
 10
171.749
 20
-38.9877
 11
171.928
 21
-38.5239
  0
LINE
  8
0
 10
171.928
 20
-38.5239
 11
172.125
 21
-38.0676
  0
LINE
  8
0
 10
172.125
 20
-38.0676
 11
172.34
 21
-37.6194
  0
LINE
  8
0
 10
172.34
 20
-37.6194
 11
172.573
 21
-37.1802
  0
LINE
  8
0
 10
172.573
 20
-37.1802
 11
172.823
 21
-36.7506
  0
LINE
  8
0
 10
172.823
 20
-36.7506
 11
173.089
 21
-36.3312
  0
LINE
  8
0
 10
173.089
 20
-36.3312
 11
173.373
 21
-35.9228
  0
LINE
  8
0
 10
173.373
 20
-35.9228
 11
173.672
 21
-35.526
  0
LINE
  8
0
 10
173.672
 20
-35.526
 11
173.987
 21
-35.1413
  0
LINE
  8
0
 10
173.987
 20
-35.1413
 11
174.317
 21
-34.7695
  0
LINE
  8
0
 10
174.317
 20
-34.7695
 11
174.661
 21
-34.4112
  0
LINE
  8
0
 10
174.661
 20
-34.4112
 11
175.02
 21
-34.0667
  0
LINE
  8
0
 10
175.02
 20
-34.0667
 11
175.391
 21
-33.7368
  0
LINE
  8
0
 10
175.391
 20
-33.7368
 11
175.776
 21
-33.422
  0
LINE
  8
0
 10
175.776
 20
-33.422
 11
176.173
 21
-33.1227
  0
LINE
  8
0
 10
176.173
 20
-33.1227
 11
176.581
 21
-32.8394
  0
LINE
  8
0
 10
176.581
 20
-32.8394
 11
177.001
 21
-32.5726
  0
LINE
  8
0
 10
177.001
 20
-32.5726
 11
177.43
 21
-32.3226
  0
LINE
  8
0
 10
177.43
 20
-32.3226
 11
177.869
 21
-32.0899
  0
LINE
  8
0
 10
177.869
 20
-32.0899
 11
178.318
 21
-31.8749
  0
LINE
  8
0
 10
178.318
 20
-31.8749
 11
178.774
 21
-31.6779
  0
LINE
  8
0
 10
178.774
 20
-31.6779
 11
179.238
 21
-31.4991
  0
LINE
  8
0
 10
179.238
 20
-31.4991
 11
179.708
 21
-31.339
  0
LINE
  8
0
 10
179.708
 20
-31.339
 11
180.185
 21
-31.1976
  0
LINE
  8
0
 10
180.185
 20
-31.1976
 11
180.667
 21
-31.0754
  0
LINE
  8
0
 10
180.667
 20
-31.0754
 11
181.153
 21
-30.9723
  0
LINE
  8
0
 10
181.153
 20
-30.9723
 11
181.643
 21
-30.8887
  0
LINE
  8
0
 10
181.643
 20
-30.8887
 11
182.136
 21
-30.8247
  0
LINE
  8
0
 10
182.136
 20
-30.8247
 11
182.631
 21
-30.7803
  0
LINE
  8
0
 10
182.631
 20
-30.7803
 11
183.127
 21
-30.7556
  0
LINE
  8
0
 10
183.127
 20
-30.7556
 11
183.624
 21
-30.7506
  0
LINE
  8
0
 10
183.624
 20
-30.7506
 11
184.121
 21
-30.7654
  0
LINE
  8
0
 10
184.121
 20
-30.7654
 11
184.617
 21
-30.8
  0
LINE
  8
0
 10
184.617
 20
-30.8
 11
185.111
 21
-30.8542
  0
LINE
  8
0
 10
185.111
 20
-30.8542
 11
185.603
 21
-30.9281
  0
LINE
  8
0
 10
185.603
 20
-30.9281
 11
186.091
 21
-31.0214
  0
LINE
  8
0
 10
186.091
 20
-31.0214
 11
186.575
 21
-31.1341
  0
LINE
  8
0
 10
186.575
 20
-31.1341
 11
187.054
 21
-31.2659
  0
LINE
  8
0
 10
187.054
 20
-31.2659
 11
187.528
 21
-31.4167
  0
LINE
  8
0
 10
187.528
 20
-31.4167
 11
187.995
 21
-31.5862
  0
LINE
  8
0
 10
187.995
 20
-31.5862
 11
188.455
 21
-31.7741
  0
LINE
  8
0
 10
188.455
 20
-31.7741
 11
188.908
 21
-31.9802
  0
LINE
  8
0
 10
188.908
 20
-31.9802
 11
189.351
 21
-32.2041
  0
LINE
  8
0
 10
189.351
 20
-32.2041
 11
189.786
 21
-32.4454
  0
LINE
  8
0
 10
189.786
 20
-32.4454
 11
190.21
 21
-32.7039
  0
LINE
  8
0
 10
190.21
 20
-32.7039
 11
190.624
 21
-32.979
  0
LINE
  8
0
 10
190.624
 20
-32.979
 11
191.027
 21
-33.2704
  0
LINE
  8
0
 10
191.027
 20
-33.2704
 11
191.418
 21
-33.5775
  0
LINE
  8
0
 10
191.418
 20
-33.5775
 11
191.796
 21
-33.8999
  0
LINE
  8
0
 10
191.796
 20
-33.8999
 11
192.161
 21
-34.2372
  0
LINE
  8
0
 10
192.161
 20
-34.2372
 11
192.513
 21
-34.5886
  0
LINE
  8
0
 10
192.513
 20
-34.5886
 11
192.85
 21
-34.9538
  0
LINE
  8
0
 10
192.85
 20
-34.9538
 11
193.172
 21
-35.3321
  0
LINE
  8
0
 10
193.172
 20
-35.3321
 11
193.48
 21
-35.7229
  0
LINE
  8
0
 10
193.48
 20
-35.7229
 11
193.771
 21
-36.1256
  0
LINE
  8
0
 10
193.771
 20
-36.1256
 11
194.046
 21
-36.5396
  0
LINE
  8
0
 10
194.046
 20
-36.5396
 11
194.305
 21
-36.9642
  0
LINE
  8
0
 10
194.305
 20
-36.9642
 11
194.546
 21
-37.3987
  0
LINE
  8
0
 10
194.546
 20
-37.3987
 11
194.77
 21
-37.8425
  0
LINE
  8
0
 10
194.77
 20
-37.8425
 11
194.976
 21
-38.2948
  0
LINE
  8
0
 10
194.976
 20
-38.2948
 11
195.164
 21
-38.7549
  0
LINE
  8
0
 10
195.164
 20
-38.7549
 11
195.333
 21
-39.2222
  0
LINE
  8
0
 10
195.333
 20
-39.2222
 11
195.484
 21
-39.6958
  0
LINE
  8
0
 10
195.484
 20
-39.6958
 11
195.616
 21
-40.1751
  0
LINE
  8
0
 10
195.616
 20
-40.1751
 11
195.729
 21
-40.6592
  0
LINE
  8
0
 10
195.729
 20
-40.6592
 11
195.822
 21
-41.1474
  0
LINE
  8
0
 10
195.822
 20
-41.1474
 11
195.896
 21
-41.6389
  0
LINE
  8
0
 10
195.896
 20
-41.6389
 11
195.95
 21
-42.133
  0
LINE
  8
0
 10
195.95
 20
-42.133
 11
195.985
 21
-42.6289
  0
LINE
  8
0
 10
195.985
 20
-42.6289
 11
195.999
 21
-43.1257
  0
LINE
  8
0
 10
195.999
 20
-43.1257
 11
195.994
 21
-43.6228
  0
LINE
  8
0
 10
195.994
 20
-43.6228
 11
195.97
 21
-44.1192
  0
LINE
  8
0
 10
195.97
 20
-44.1192
 11
195.925
 21
-44.6143
  0
LINE
  8
0
 10
195.925
 20
-44.6143
 11
195.861
 21
-45.1072
  0
LINE
  8
0
 10
195.861
 20
-45.1072
 11
195.778
 21
-45.5971
  0
LINE
  8
0
 10
195.778
 20
-45.5971
 11
195.675
 21
-46.0834
  0
LINE
  8
0
 10
195.675
 20
-46.0834
 11
195.552
 21
-46.5652
  0
LINE
  8
0
 10
195.552
 20
-46.5652
 11
195.411
 21
-47.0417
  0
LINE
  8
0
 10
195.411
 20
-47.0417
 11
195.251
 21
-47.5123
  0
LINE
  8
0
 10
195.251
 20
-47.5123
 11
195.072
 21
-47.9761
  0
LINE
  8
0
 10
195.072
 20
-47.9761
 11
194.875
 21
-48.4324
  0
LINE
  8
0
 10
194.875
 20
-48.4324
 11
194.66
 21
-48.8805
  0
LINE
  8
0
 10
194.66
 20
-48.8805
 11
194.427
 21
-49.3198
  0
LINE
  8
0
 10
194.427
 20
-49.3198
 11
194.177
 21
-49.7494
  0
LINE
  8
0
 10
194.177
 20
-49.7494
 11
193.911
 21
-50.1688
  0
LINE
  8
0
 10
193.911
 20
-50.1688
 11
193.854
 21
-50.25
  0
LINE
  8
0
 10
193.854
 20
-50.25
 11
219.75
 21
-50.25
  0
LINE
  8
0
 10
219.75
 20
-50.25
 11
219.75
 21
9.75
  0
LINE
  8
0
 10
219.75
 20
9.75
 11
-219.75
 21
9.75
  0
LINE
  8
0
 10
-219.75
 20
9.75
 11
-219.75
 21
-50.25
  0
LINE
  8
0
 10
-219.75
 20
-50.25
 11
-193.854
 21
-50.25
  0
LINE
  8
0
 10
-193.854
 20
-50.25
 11
-193.911
 21
-50.1688
  0
LINE
  8
0
 10
117.55
 20
-3.2
 11
117.55
 21
3.2
  0
LINE
  8
0
 10
117.55
 20
3.2
 11
132.45
 21
3.2
  0
LINE
  8
0
 10
132.45
 20
3.2
 11
132.45
 21
-3.2
  0
LINE
  8
0
 10
132.45
 20
-3.2
 11
117.55
 21
-3.2
  0
LINE
  8
0
 10
-102.45
 20
-3.2
 11
-102.45
 21
3.2
  0
LINE
  8
0
 10
-102.45
 20
3.2
 11
-87.55
 21
3.2
  0
LINE
  8
0
 10
-87.55
 20
3.2
 11
-87.55
 21
-3.2
  0
LINE
  8
0
 10
-87.55
 20
-3.2
 11
-102.45
 21
-3.2
  0
LINE
  8
0
 10
87.55
 20
-3.2
 11
87.55
 21
3.2
  0
LINE
  8
0
 10
87.55
 20
3.2
 11
102.45
 21
3.2
  0
LINE
  8
0
 10
102.45
 20
3.2
 11
102.45
 21
-3.2
  0
LINE
  8
0
 10
102.45
 20
-3.2
 11
87.55
 21
-3.2
  0
LINE
  8
0
 10
-132.45
 20
-3.2
 11
-132.45
 21
3.2
  0
LINE
  8
0
 10
-132.45
 20
3.2
 11
-117.55
 21
3.2
  0
LINE
  8
0
 10
-117.55
 20
3.2
 11
-117.55
 21
-3.2
  0
LINE
  8
0
 10
-117.55
 20
-3.2
 11
-132.45
 21
-3.2
  0
LINE
  8
0
 10
-110
 20
-2.49998
 11
-110.488
 21
-2.45195
  0
LINE
  8
0
 10
-110.488
 20
-2.45195
 11
-110.957
 21
-2.30969
  0
LINE
  8
0
 10
-110.957
 20
-2.30969
 11
-111.389
 21
-2.07866
  0
LINE
  8
0
 10
-111.389
 20
-2.07866
 11
-111.768
 21
-1.76776
  0
LINE
  8
0
 10
-111.768
 20
-1.76776
 11
-112.079
 21
-1.38892
  0
LINE
  8
0
 10
-112.079
 20
-1.38892
 11
-112.31
 21
-0.956696
  0
LINE
  8
0
 10
-112.31
 20
-0.956696
 11
-112.452
 21
-0.487717
  0
LINE
  8
0
 10
-112.452
 20
-0.487717
 11
-112.5
 21
0
  0
LINE
  8
0
 10
-112.5
 20
0
 11
-112.452
 21
0.487717
  0
LINE
  8
0
 10
-112.452
 20
0.487717
 11
-112.31
 21
0.956696
  0
LINE
  8
0
 10
-112.31
 20
0.956696
 11
-112.079
 21
1.38892
  0
LINE
  8
0
 10
-112.079
 20
1.38892
 11
-111.768
 21
1.76776
  0
LINE
  8
0
 10
-111.768
 20
1.76776
 11
-111.389
 21
2.07866
  0
LINE
  8
0
 10
-111.389
 20
2.07866
 11
-110.957
 21
2.30969
  0
LINE
  8
0
 10
-110.957
 20
2.30969
 11
-110.488
 21
2.45195
  0
LINE
  8
0
 10
-110.488
 20
2.45195
 11
-110
 21
2.49998
  0
LINE
  8
0
 10
-110
 20
2.49998
 11
-109.512
 21
2.45195
  0
LINE
  8
0
 10
-109.512
 20
2.45195
 11
-109.043
 21
2.30969
  0
LINE
  8
0
 10
-109.043
 20
2.30969
 11
-108.611
 21
2.07866
  0
LINE
  8
0
 10
-108.611
 20
2.07866
 11
-108.232
 21
1.76776
  0
LINE
  8
0
 10
-108.232
 20
1.76776
 11
-107.921
 21
1.38892
  0
LINE
  8
0
 10
-107.921
 20
1.38892
 11
-107.69
 21
0.956696
  0
LINE
  8
0
 10
-107.69
 20
0.956696
 11
-107.548
 21
0.487717
  0
LINE
  8
0
 10
-107.548
 20
0.487717
 11
-107.5
 21
0
  0
LINE
  8
0
 10
-107.5
 20
0
 11
-107.548
 21
-0.487717
  0
LINE
  8
0
 10
-107.548
 20
-0.487717
 11
-107.69
 21
-0.956696
  0
LINE
  8
0
 10
-107.69
 20
-0.956696
 11
-107.921
 21
-1.38892
  0
LINE
  8
0
 10
-107.921
 20
-1.38892
 11
-108.232
 21
-1.76776
  0
LINE
  8
0
 10
-108.232
 20
-1.76776
 11
-108.611
 21
-2.07866
  0
LINE
  8
0
 10
-108.611
 20
-2.07866
 11
-109.043
 21
-2.30969
  0
LINE
  8
0
 10
-109.043
 20
-2.30969
 11
-109.512
 21
-2.45195
  0
LINE
  8
0
 10
-109.512
 20
-2.45195
 11
-110
 21
-2.49998
  0
LINE
  8
0
 10
110
 20
-2.49998
 11
109.512
 21
-2.45195
  0
LINE
  8
0
 10
109.512
 20
-2.45195
 11
109.043
 21
-2.30969
  0
LINE
  8
0
 10
109.043
 20
-2.30969
 11
108.611
 21
-2.07866
  0
LINE
  8
0
 10
108.611
 20
-2.07866
 11
108.232
 21
-1.76776
  0
LINE
  8
0
 10
108.232
 20
-1.76776
 11
107.921
 21
-1.38892
  0
LINE
  8
0
 10
107.921
 20
-1.38892
 11
107.69
 21
-0.956696
  0
LINE
  8
0
 10
107.69
 20
-0.956696
 11
107.548
 21
-0.487717
  0
LINE
  8
0
 10
107.548
 20
-0.487717
 11
107.5
 21
0
  0
LINE
  8
0
 10
107.5
 20
0
 11
107.548
 21
0.487717
  0
LINE
  8
0
 10
107.548
 20
0.487717
 11
107.69
 21
0.956696
  0
LINE
  8
0
 10
107.69
 20
0.956696
 11
107.921
 21
1.38892
  0
LINE
  8
0
 10
107.921
 20
1.38892
 11
108.232
 21
1.76776
  0
LINE
  8
0
 10
108.232
 20
1.76776
 11
108.611
 21
2.07866
  0
LINE
  8
0
 10
108.611
 20
2.07866
 11
109.043
 21
2.30969
  0
LINE
  8
0
 10
109.043
 20
2.30969
 11
109.512
 21
2.45195
  0
LINE
  8
0
 10
109.512
 20
2.45195
 11
110
 21
2.49998
  0
LINE
  8
0
 10
110
 20
2.49998
 11
110.488
 21
2.45195
  0
LINE
  8
0
 10
110.488
 20
2.45195
 11
110.957
 21
2.30969
  0
LINE
  8
0
 10
110.957
 20
2.30969
 11
111.389
 21
2.07866
  0
LINE
  8
0
 10
111.389
 20
2.07866
 11
111.768
 21
1.76776
  0
LINE
  8
0
 10
111.768
 20
1.76776
 11
112.079
 21
1.38892
  0
LINE
  8
0
 10
112.079
 20
1.38892
 11
112.31
 21
0.956696
  0
LINE
  8
0
 10
112.31
 20
0.956696
 11
112.452
 21
0.487717
  0
LINE
  8
0
 10
112.452
 20
0.487717
 11
112.5
 21
0
  0
LINE
  8
0
 10
112.5
 20
0
 11
112.452
 21
-0.487717
  0
LINE
  8
0
 10
112.452
 20
-0.487717
 11
112.31
 21
-0.956696
  0
LINE
  8
0
 10
112.31
 20
-0.956696
 11
112.079
 21
-1.38892
  0
LINE
  8
0
 10
112.079
 20
-1.38892
 11
111.768
 21
-1.76776
  0
LINE
  8
0
 10
111.768
 20
-1.76776
 11
111.389
 21
-2.07866
  0
LINE
  8
0
 10
111.389
 20
-2.07866
 11
110.957
 21
-2.30969
  0
LINE
  8
0
 10
110.957
 20
-2.30969
 11
110.488
 21
-2.45195
  0
LINE
  8
0
 10
110.488
 20
-2.45195
 11
110
 21
-2.49998
  0
LINE
  8
0
 10
210.05
 20
-12.7
 11
210.05
 21
2.2
  0
LINE
  8
0
 10
210.05
 20
2.2
 11
216.45
 21
2.2
  0
LINE
  8
0
 10
216.45
 20
2.2
 11
216.45
 21
-12.7
  0
LINE
  8
0
 10
216.45
 20
-12.7
 11
210.05
 21
-12.7
  0
LINE
  8
0
 10
-216.45
 20
-12.7
 11
-216.45
 21
2.2
  0
LINE
  8
0
 10
-216.45
 20
2.2
 11
-210.05
 21
2.2
  0
LINE
  8
0
 10
-210.05
 20
2.2
 11
-210.05
 21
-12.7
  0
LINE
  8
0
 10
-210.05
 20
-12.7
 11
-216.45
 21
-12.7
  0
LINE
  8
0
 10
199.512
 20
-12.202
 11
199.043
 21
-12.0597
  0
LINE
  8
0
 10
199.043
 20
-12.0597
 11
198.611
 21
-11.8287
  0
LINE
  8
0
 10
198.611
 20
-11.8287
 11
198.232
 21
-11.5178
  0
LINE
  8
0
 10
198.232
 20
-11.5178
 11
197.921
 21
-11.1389
  0
LINE
  8
0
 10
197.921
 20
-11.1389
 11
197.69
 21
-10.7067
  0
LINE
  8
0
 10
197.69
 20
-10.7067
 11
197.548
 21
-10.2377
  0
LINE
  8
0
 10
197.548
 20
-10.2377
 11
197.5
 21
-9.75
  0
LINE
  8
0
 10
197.5
 20
-9.75
 11
197.548
 21
-9.26227
  0
LINE
  8
0
 10
197.548
 20
-9.26227
 11
197.69
 21
-8.79329
  0
LINE
  8
0
 10
197.69
 20
-8.79329
 11
197.921
 21
-8.36107
  0
LINE
  8
0
 10
197.921
 20
-8.36107
 11
198.232
 21
-7.98222
  0
LINE
  8
0
 10
198.232
 20
-7.98222
 11
198.611
 21
-7.67133
  0
LINE
  8
0
 10
198.611
 20
-7.67133
 11
199.043
 21
-7.44029
  0
LINE
  8
0
 10
199.043
 20
-7.44029
 11
199.512
 21
-7.29803
  0
LINE
  8
0
 10
199.512
 20
-7.29803
 11
200
 21
-7.25
  0
LINE
  8
0
 10
200
 20
-7.25
 11
200.488
 21
-7.29803
  0
LINE
  8
0
 10
200.488
 20
-7.29803
 11
200.957
 21
-7.44029
  0
LINE
  8
0
 10
200.957
 20
-7.44029
 11
201.389
 21
-7.67133
  0
LINE
  8
0
 10
201.389
 20
-7.67133
 11
201.768
 21
-7.98222
  0
LINE
  8
0
 10
201.768
 20
-7.98222
 11
202.079
 21
-8.36107
  0
LINE
  8
0
 10
202.079
 20
-8.36107
 11
202.31
 21
-8.79329
  0
LINE
  8
0
 10
202.31
 20
-8.79329
 11
202.452
 21
-9.26227
  0
LINE
  8
0
 10
202.452
 20
-9.26227
 11
202.5
 21
-9.75
  0
LINE
  8
0
 10
202.5
 20
-9.75
 11
202.452
 21
-10.2377
  0
LINE
  8
0
 10
202.452
 20
-10.2377
 11
202.31
 21
-10.7067
  0
LINE
  8
0
 10
202.31
 20
-10.7067
 11
202.079
 21
-11.1389
  0
LINE
  8
0
 10
202.079
 20
-11.1389
 11
201.768
 21
-11.5178
  0
LINE
  8
0
 10
201.768
 20
-11.5178
 11
201.389
 21
-11.8287
  0
LINE
  8
0
 10
201.389
 20
-11.8287
 11
200.957
 21
-12.0597
  0
LINE
  8
0
 10
200.957
 20
-12.0597
 11
200.488
 21
-12.202
  0
LINE
  8
0
 10
200.488
 20
-12.202
 11
200
 21
-12.25
  0
LINE
  8
0
 10
200
 20
-12.25
 11
199.512
 21
-12.202
  0
LINE
  8
0
 10
-200.488
 20
-12.202
 11
-200.957
 21
-12.0597
  0
LINE
  8
0
 10
-200.957
 20
-12.0597
 11
-201.389
 21
-11.8287
  0
LINE
  8
0
 10
-201.389
 20
-11.8287
 11
-201.768
 21
-11.5178
  0
LINE
  8
0
 10
-201.768
 20
-11.5178
 11
-202.079
 21
-11.1389
  0
LINE
  8
0
 10
-202.079
 20
-11.1389
 11
-202.31
 21
-10.7067
  0
LINE
  8
0
 10
-202.31
 20
-10.7067
 11
-202.452
 21
-10.2377
  0
LINE
  8
0
 10
-202.452
 20
-10.2377
 11
-202.5
 21
-9.75
  0
LINE
  8
0
 10
-202.5
 20
-9.75
 11
-202.452
 21
-9.26227
  0
LINE
  8
0
 10
-202.452
 20
-9.26227
 11
-202.31
 21
-8.79329
  0
LINE
  8
0
 10
-202.31
 20
-8.79329
 11
-202.079
 21
-8.36107
  0
LINE
  8
0
 10
-202.079
 20
-8.36107
 11
-201.768
 21
-7.98222
  0
LINE
  8
0
 10
-201.768
 20
-7.98222
 11
-201.389
 21
-7.67133
  0
LINE
  8
0
 10
-201.389
 20
-7.67133
 11
-200.957
 21
-7.44029
  0
LINE
  8
0
 10
-200.957
 20
-7.44029
 11
-200.488
 21
-7.29803
  0
LINE
  8
0
 10
-200.488
 20
-7.29803
 11
-200
 21
-7.25
  0
LINE
  8
0
 10
-200
 20
-7.25
 11
-199.512
 21
-7.29803
  0
LINE
  8
0
 10
-199.512
 20
-7.29803
 11
-199.043
 21
-7.44029
  0
LINE
  8
0
 10
-199.043
 20
-7.44029
 11
-198.611
 21
-7.67133
  0
LINE
  8
0
 10
-198.611
 20
-7.67133
 11
-198.232
 21
-7.98222
  0
LINE
  8
0
 10
-198.232
 20
-7.98222
 11
-197.921
 21
-8.36107
  0
LINE
  8
0
 10
-197.921
 20
-8.36107
 11
-197.69
 21
-8.79329
  0
LINE
  8
0
 10
-197.69
 20
-8.79329
 11
-197.548
 21
-9.26227
  0
LINE
  8
0
 10
-197.548
 20
-9.26227
 11
-197.5
 21
-9.75
  0
LINE
  8
0
 10
-197.5
 20
-9.75
 11
-197.548
 21
-10.2377
  0
LINE
  8
0
 10
-197.548
 20
-10.2377
 11
-197.69
 21
-10.7067
  0
LINE
  8
0
 10
-197.69
 20
-10.7067
 11
-197.921
 21
-11.1389
  0
LINE
  8
0
 10
-197.921
 20
-11.1389
 11
-198.232
 21
-11.5178
  0
LINE
  8
0
 10
-198.232
 20
-11.5178
 11
-198.611
 21
-11.8287
  0
LINE
  8
0
 10
-198.611
 20
-11.8287
 11
-199.043
 21
-12.0597
  0
LINE
  8
0
 10
-199.043
 20
-12.0597
 11
-199.512
 21
-12.202
  0
LINE
  8
0
 10
-199.512
 20
-12.202
 11
-200
 21
-12.25
  0
LINE
  8
0
 10
-200
 20
-12.25
 11
-200.488
 21
-12.202
  0
LINE
  8
0
 10
-183.861
 20
-24.405
 11
-184.315
 21
-24.2359
  0
LINE
  8
0
 10
-184.315
 20
-24.2359
 11
-184.702
 21
-23.946
  0
LINE
  8
0
 10
-184.702
 20
-23.946
 11
-184.992
 21
-23.5586
  0
LINE
  8
0
 10
-184.992
 20
-23.5586
 11
-185.161
 21
-23.1053
  0
LINE
  8
0
 10
-185.161
 20
-23.1053
 11
-185.196
 21
-22.6226
  0
LINE
  8
0
 10
-185.196
 20
-22.6226
 11
-185.196
 21
-19.7942
  0
LINE
  8
0
 10
-185.196
 20
-19.7942
 11
-185.093
 21
-19.3214
  0
LINE
  8
0
 10
-185.093
 20
-19.3214
 11
-184.861
 21
-18.8967
  0
LINE
  8
0
 10
-184.861
 20
-18.8967
 11
-184.519
 21
-18.5546
  0
LINE
  8
0
 10
-184.519
 20
-18.5546
 11
-184.094
 21
-18.3227
  0
LINE
  8
0
 10
-184.094
 20
-18.3227
 11
-183.621
 21
-18.2198
  0
LINE
  8
0
 10
-183.621
 20
-18.2198
 11
-183.139
 21
-18.2543
  0
LINE
  8
0
 10
-183.139
 20
-18.2543
 11
-182.685
 21
-18.4234
  0
LINE
  8
0
 10
-182.685
 20
-18.4234
 11
-182.298
 21
-18.7134
  0
LINE
  8
0
 10
-182.298
 20
-18.7134
 11
-182.008
 21
-19.1008
  0
LINE
  8
0
 10
-182.008
 20
-19.1008
 11
-181.839
 21
-19.5541
  0
LINE
  8
0
 10
-181.839
 20
-19.5541
 11
-181.804
 21
-20.0367
  0
LINE
  8
0
 10
-181.804
 20
-20.0367
 11
-181.804
 21
-22.8652
  0
LINE
  8
0
 10
-181.804
 20
-22.8652
 11
-181.907
 21
-23.338
  0
LINE
  8
0
 10
-181.907
 20
-23.338
 11
-182.139
 21
-23.7627
  0
LINE
  8
0
 10
-182.139
 20
-23.7627
 11
-182.481
 21
-24.1048
  0
LINE
  8
0
 10
-182.481
 20
-24.1048
 11
-182.906
 21
-24.3367
  0
LINE
  8
0
 10
-182.906
 20
-24.3367
 11
-183.379
 21
-24.4396
  0
LINE
  8
0
 10
-183.379
 20
-24.4396
 11
-183.861
 21
-24.405
  0
LINE
  8
0
 10
182.906
 20
-24.3367
 11
182.481
 21
-24.1048
  0
LINE
  8
0
 10
182.481
 20
-24.1048
 11
182.139
 21
-23.7627
  0
LINE
  8
0
 10
182.139
 20
-23.7627
 11
181.907
 21
-23.338
  0
LINE
  8
0
 10
181.907
 20
-23.338
 11
181.804
 21
-22.8652
  0
LINE
  8
0
 10
181.804
 20
-22.8652
 11
181.804
 21
-20.0367
  0
LINE
  8
0
 10
181.804
 20
-20.0367
 11
181.839
 21
-19.5541
  0
LINE
  8
0
 10
181.839
 20
-19.5541
 11
182.008
 21
-19.1008
  0
LINE
  8
0
 10
182.008
 20
-19.1008
 11
182.298
 21
-18.7134
  0
LINE
  8
0
 10
182.298
 20
-18.7134
 11
182.685
 21
-18.4234
  0
LINE
  8
0
 10
182.685
 20
-18.4234
 11
183.139
 21
-18.2543
  0
LINE
  8
0
 10
183.139
 20
-18.2543
 11
183.621
 21
-18.2198
  0
LINE
  8
0
 10
183.621
 20
-18.2198
 11
184.094
 21
-18.3227
  0
LINE
  8
0
 10
184.094
 20
-18.3227
 11
184.519
 21
-18.5546
  0
LINE
  8
0
 10
184.519
 20
-18.5546
 11
184.861
 21
-18.8967
  0
LINE
  8
0
 10
184.861
 20
-18.8967
 11
185.093
 21
-19.3214
  0
LINE
  8
0
 10
185.093
 20
-19.3214
 11
185.196
 21
-19.7942
  0
LINE
  8
0
 10
185.196
 20
-19.7942
 11
185.196
 21
-22.6226
  0
LINE
  8
0
 10
185.196
 20
-22.6226
 11
185.161
 21
-23.1053
  0
LINE
  8
0
 10
185.161
 20
-23.1053
 11
184.992
 21
-23.5586
  0
LINE
  8
0
 10
184.992
 20
-23.5586
 11
184.702
 21
-23.946
  0
LINE
  8
0
 10
184.702
 20
-23.946
 11
184.315
 21
-24.2359
  0
LINE
  8
0
 10
184.315
 20
-24.2359
 11
183.861
 21
-24.405
  0
LINE
  8
0
 10
183.861
 20
-24.405
 11
183.379
 21
-24.4396
  0
LINE
  8
0
 10
183.379
 20
-24.4396
 11
182.906
 21
-24.3367
  0
LINE
  8
0
 10
87.55
 20
-29.7
 11
87.55
 21
-23.3
  0
LINE
  8
0
 10
87.55
 20
-23.3
 11
102.45
 21
-23.3
  0
LINE
  8
0
 10
102.45
 20
-23.3
 11
102.45
 21
-29.7
  0
LINE
  8
0
 10
102.45
 20
-29.7
 11
87.55
 21
-29.7
  0
LINE
  8
0
 10
-102.45
 20
-29.7
 11
-102.45
 21
-23.3
  0
LINE
  8
0
 10
-102.45
 20
-23.3
 11
-87.55
 21
-23.3
  0
LINE
  8
0
 10
-87.55
 20
-23.3
 11
-87.55
 21
-29.7
  0
LINE
  8
0
 10
-87.55
 20
-29.7
 11
-102.45
 21
-29.7
  0
LINE
  8
0
 10
117.55
 20
-29.7
 11
117.55
 21
-23.3
  0
LINE
  8
0
 10
117.55
 20
-23.3
 11
132.45
 21
-23.3
  0
LINE
  8
0
 10
132.45
 20
-23.3
 11
132.45
 21
-29.7
  0
LINE
  8
0
 10
132.45
 20
-29.7
 11
117.55
 21
-29.7
  0
LINE
  8
0
 10
-132.45
 20
-29.7
 11
-132.45
 21
-23.3
  0
LINE
  8
0
 10
-132.45
 20
-23.3
 11
-117.55
 21
-23.3
  0
LINE
  8
0
 10
-117.55
 20
-23.3
 11
-117.55
 21
-29.7
  0
LINE
  8
0
 10
-117.55
 20
-29.7
 11
-132.45
 21
-29.7
  0
LINE
  8
0
 10
110
 20
-29
 11
109.512
 21
-28.952
  0
LINE
  8
0
 10
109.512
 20
-28.952
 11
109.043
 21
-28.8097
  0
LINE
  8
0
 10
109.043
 20
-28.8097
 11
108.611
 21
-28.5787
  0
LINE
  8
0
 10
108.611
 20
-28.5787
 11
108.232
 21
-28.2678
  0
LINE
  8
0
 10
108.232
 20
-28.2678
 11
107.921
 21
-27.8889
  0
LINE
  8
0
 10
107.921
 20
-27.8889
 11
107.69
 21
-27.4567
  0
LINE
  8
0
 10
107.69
 20
-27.4567
 11
107.548
 21
-26.9877
  0
LINE
  8
0
 10
107.548
 20
-26.9877
 11
107.5
 21
-26.5
  0
LINE
  8
0
 10
107.5
 20
-26.5
 11
107.548
 21
-26.0123
  0
LINE
  8
0
 10
107.548
 20
-26.0123
 11
107.69
 21
-25.5433
  0
LINE
  8
0
 10
107.69
 20
-25.5433
 11
107.921
 21
-25.1111
  0
LINE
  8
0
 10
107.921
 20
-25.1111
 11
108.232
 21
-24.7322
  0
LINE
  8
0
 10
108.232
 20
-24.7322
 11
108.611
 21
-24.4213
  0
LINE
  8
0
 10
108.611
 20
-24.4213
 11
109.043
 21
-24.1903
  0
LINE
  8
0
 10
109.043
 20
-24.1903
 11
109.512
 21
-24.048
  0
LINE
  8
0
 10
109.512
 20
-24.048
 11
110
 21
-24
  0
LINE
  8
0
 10
110
 20
-24
 11
110.488
 21
-24.048
  0
LINE
  8
0
 10
110.488
 20
-24.048
 11
110.957
 21
-24.1903
  0
LINE
  8
0
 10
110.957
 20
-24.1903
 11
111.389
 21
-24.4213
  0
LINE
  8
0
 10
111.389
 20
-24.4213
 11
111.768
 21
-24.7322
  0
LINE
  8
0
 10
111.768
 20
-24.7322
 11
112.079
 21
-25.1111
  0
LINE
  8
0
 10
112.079
 20
-25.1111
 11
112.31
 21
-25.5433
  0
LINE
  8
0
 10
112.31
 20
-25.5433
 11
112.452
 21
-26.0123
  0
LINE
  8
0
 10
112.452
 20
-26.0123
 11
112.5
 21
-26.5
  0
LINE
  8
0
 10
112.5
 20
-26.5
 11
112.452
 21
-26.9877
  0
LINE
  8
0
 10
112.452
 20
-26.9877
 11
112.31
 21
-27.4567
  0
LINE
  8
0
 10
112.31
 20
-27.4567
 11
112.079
 21
-27.8889
  0
LINE
  8
0
 10
112.079
 20
-27.8889
 11
111.768
 21
-28.2678
  0
LINE
  8
0
 10
111.768
 20
-28.2678
 11
111.389
 21
-28.5787
  0
LINE
  8
0
 10
111.389
 20
-28.5787
 11
110.957
 21
-28.8097
  0
LINE
  8
0
 10
110.957
 20
-28.8097
 11
110.488
 21
-28.952
  0
LINE
  8
0
 10
110.488
 20
-28.952
 11
110
 21
-29
  0
LINE
  8
0
 10
-110
 20
-29
 11
-110.488
 21
-28.952
  0
LINE
  8
0
 10
-110.488
 20
-28.952
 11
-110.957
 21
-28.8097
  0
LINE
  8
0
 10
-110.957
 20
-28.8097
 11
-111.389
 21
-28.5787
  0
LINE
  8
0
 10
-111.389
 20
-28.5787
 11
-111.768
 21
-28.2678
  0
LINE
  8
0
 10
-111.768
 20
-28.2678
 11
-112.079
 21
-27.8889
  0
LINE
  8
0
 10
-112.079
 20
-27.8889
 11
-112.31
 21
-27.4567
  0
LINE
  8
0
 10
-112.31
 20
-27.4567
 11
-112.452
 21
-26.9877
  0
LINE
  8
0
 10
-112.452
 20
-26.9877
 11
-112.5
 21
-26.5
  0
LINE
  8
0
 10
-112.5
 20
-26.5
 11
-112.452
 21
-26.0123
  0
LINE
  8
0
 10
-112.452
 20
-26.0123
 11
-112.31
 21
-25.5433
  0
LINE
  8
0
 10
-112.31
 20
-25.5433
 11
-112.079
 21
-25.1111
  0
LINE
  8
0
 10
-112.079
 20
-25.1111
 11
-111.768
 21
-24.7322
  0
LINE
  8
0
 10
-111.768
 20
-24.7322
 11
-111.389
 21
-24.4213
  0
LINE
  8
0
 10
-111.389
 20
-24.4213
 11
-110.957
 21
-24.1903
  0
LINE
  8
0
 10
-110.957
 20
-24.1903
 11
-110.488
 21
-24.048
  0
LINE
  8
0
 10
-110.488
 20
-24.048
 11
-110
 21
-24
  0
LINE
  8
0
 10
-110
 20
-24
 11
-109.512
 21
-24.048
  0
LINE
  8
0
 10
-109.512
 20
-24.048
 11
-109.043
 21
-24.1903
  0
LINE
  8
0
 10
-109.043
 20
-24.1903
 11
-108.611
 21
-24.4213
  0
LINE
  8
0
 10
-108.611
 20
-24.4213
 11
-108.232
 21
-24.7322
  0
LINE
  8
0
 10
-108.232
 20
-24.7322
 11
-107.921
 21
-25.1111
  0
LINE
  8
0
 10
-107.921
 20
-25.1111
 11
-107.69
 21
-25.5433
  0
LINE
  8
0
 10
-107.69
 20
-25.5433
 11
-107.548
 21
-26.0123
  0
LINE
  8
0
 10
-107.548
 20
-26.0123
 11
-107.5
 21
-26.5
  0
LINE
  8
0
 10
-107.5
 20
-26.5
 11
-107.548
 21
-26.9877
  0
LINE
  8
0
 10
-107.548
 20
-26.9877
 11
-107.69
 21
-27.4567
  0
LINE
  8
0
 10
-107.69
 20
-27.4567
 11
-107.921
 21
-27.8889
  0
LINE
  8
0
 10
-107.921
 20
-27.8889
 11
-108.232
 21
-28.2678
  0
LINE
  8
0
 10
-108.232
 20
-28.2678
 11
-108.611
 21
-28.5787
  0
LINE
  8
0
 10
-108.611
 20
-28.5787
 11
-109.043
 21
-28.8097
  0
LINE
  8
0
 10
-109.043
 20
-28.8097
 11
-109.512
 21
-28.952
  0
LINE
  8
0
 10
-109.512
 20
-28.952
 11
-110
 21
-29
  0
LINE
  8
0
 10
-216.45
 20
-42.7
 11
-216.45
 21
-27.8
  0
LINE
  8
0
 10
-216.45
 20
-27.8
 11
-210.05
 21
-27.8
  0
LINE
  8
0
 10
-210.05
 20
-27.8
 11
-210.05
 21
-42.7
  0
LINE
  8
0
 10
-210.05
 20
-42.7
 11
-216.45
 21
-42.7
  0
LINE
  8
0
 10
210.05
 20
-42.7
 11
210.05
 21
-27.8
  0
LINE
  8
0
 10
210.05
 20
-27.8
 11
216.45
 21
-27.8
  0
LINE
  8
0
 10
216.45
 20
-27.8
 11
216.45
 21
-42.7
  0
LINE
  8
0
 10
216.45
 20
-42.7
 11
210.05
 21
-42.7
  0
LINE
  8
0
 10
199.512
 20
-39.702
 11
199.043
 21
-39.5597
  0
LINE
  8
0
 10
199.043
 20
-39.5597
 11
198.611
 21
-39.3287
  0
LINE
  8
0
 10
198.611
 20
-39.3287
 11
198.232
 21
-39.0178
  0
LINE
  8
0
 10
198.232
 20
-39.0178
 11
197.921
 21
-38.6389
  0
LINE
  8
0
 10
197.921
 20
-38.6389
 11
197.69
 21
-38.2067
  0
LINE
  8
0
 10
197.69
 20
-38.2067
 11
197.548
 21
-37.7377
  0
LINE
  8
0
 10
197.548
 20
-37.7377
 11
197.5
 21
-37.25
  0
LINE
  8
0
 10
197.5
 20
-37.25
 11
197.548
 21
-36.7623
  0
LINE
  8
0
 10
197.548
 20
-36.7623
 11
197.69
 21
-36.2933
  0
LINE
  8
0
 10
197.69
 20
-36.2933
 11
197.921
 21
-35.8611
  0
LINE
  8
0
 10
197.921
 20
-35.8611
 11
198.232
 21
-35.4822
  0
LINE
  8
0
 10
198.232
 20
-35.4822
 11
198.611
 21
-35.1713
  0
LINE
  8
0
 10
198.611
 20
-35.1713
 11
199.043
 21
-34.9403
  0
LINE
  8
0
 10
199.043
 20
-34.9403
 11
199.512
 21
-34.798
  0
LINE
  8
0
 10
199.512
 20
-34.798
 11
200
 21
-34.75
  0
LINE
  8
0
 10
200
 20
-34.75
 11
200.488
 21
-34.798
  0
LINE
  8
0
 10
200.488
 20
-34.798
 11
200.957
 21
-34.9403
  0
LINE
  8
0
 10
200.957
 20
-34.9403
 11
201.389
 21
-35.1713
  0
LINE
  8
0
 10
201.389
 20
-35.1713
 11
201.768
 21
-35.4822
  0
LINE
  8
0
 10
201.768
 20
-35.4822
 11
202.079
 21
-35.8611
  0
LINE
  8
0
 10
202.079
 20
-35.8611
 11
202.31
 21
-36.2933
  0
LINE
  8
0
 10
202.31
 20
-36.2933
 11
202.452
 21
-36.7623
  0
LINE
  8
0
 10
202.452
 20
-36.7623
 11
202.5
 21
-37.25
  0
LINE
  8
0
 10
202.5
 20
-37.25
 11
202.452
 21
-37.7377
  0
LINE
  8
0
 10
202.452
 20
-37.7377
 11
202.31
 21
-38.2067
  0
LINE
  8
0
 10
202.31
 20
-38.2067
 11
202.079
 21
-38.6389
  0
LINE
  8
0
 10
202.079
 20
-38.6389
 11
201.768
 21
-39.0178
  0
LINE
  8
0
 10
201.768
 20
-39.0178
 11
201.389
 21
-39.3287
  0
LINE
  8
0
 10
201.389
 20
-39.3287
 11
200.957
 21
-39.5597
  0
LINE
  8
0
 10
200.957
 20
-39.5597
 11
200.488
 21
-39.702
  0
LINE
  8
0
 10
200.488
 20
-39.702
 11
200
 21
-39.75
  0
LINE
  8
0
 10
200
 20
-39.75
 11
199.512
 21
-39.702
  0
LINE
  8
0
 10
-200.488
 20
-39.702
 11
-200.957
 21
-39.5597
  0
LINE
  8
0
 10
-200.957
 20
-39.5597
 11
-201.389
 21
-39.3287
  0
LINE
  8
0
 10
-201.389
 20
-39.3287
 11
-201.768
 21
-39.0178
  0
LINE
  8
0
 10
-201.768
 20
-39.0178
 11
-202.079
 21
-38.6389
  0
LINE
  8
0
 10
-202.079
 20
-38.6389
 11
-202.31
 21
-38.2067
  0
LINE
  8
0
 10
-202.31
 20
-38.2067
 11
-202.452
 21
-37.7377
  0
LINE
  8
0
 10
-202.452
 20
-37.7377
 11
-202.5
 21
-37.25
  0
LINE
  8
0
 10
-202.5
 20
-37.25
 11
-202.452
 21
-36.7623
  0
LINE
  8
0
 10
-202.452
 20
-36.7623
 11
-202.31
 21
-36.2933
  0
LINE
  8
0
 10
-202.31
 20
-36.2933
 11
-202.079
 21
-35.8611
  0
LINE
  8
0
 10
-202.079
 20
-35.8611
 11
-201.768
 21
-35.4822
  0
LINE
  8
0
 10
-201.768
 20
-35.4822
 11
-201.389
 21
-35.1713
  0
LINE
  8
0
 10
-201.389
 20
-35.1713
 11
-200.957
 21
-34.9403
  0
LINE
  8
0
 10
-200.957
 20
-34.9403
 11
-200.488
 21
-34.798
  0
LINE
  8
0
 10
-200.488
 20
-34.798
 11
-200
 21
-34.75
  0
LINE
  8
0
 10
-200
 20
-34.75
 11
-199.512
 21
-34.798
  0
LINE
  8
0
 10
-199.512
 20
-34.798
 11
-199.043
 21
-34.9403
  0
LINE
  8
0
 10
-199.043
 20
-34.9403
 11
-198.611
 21
-35.1713
  0
LINE
  8
0
 10
-198.611
 20
-35.1713
 11
-198.232
 21
-35.4822
  0
LINE
  8
0
 10
-198.232
 20
-35.4822
 11
-197.921
 21
-35.8611
  0
LINE
  8
0
 10
-197.921
 20
-35.8611
 11
-197.69
 21
-36.2933
  0
LINE
  8
0
 10
-197.69
 20
-36.2933
 11
-197.548
 21
-36.7623
  0
LINE
  8
0
 10
-197.548
 20
-36.7623
 11
-197.5
 21
-37.25
  0
LINE
  8
0
 10
-197.5
 20
-37.25
 11
-197.548
 21
-37.7377
  0
LINE
  8
0
 10
-197.548
 20
-37.7377
 11
-197.69
 21
-38.2067
  0
LINE
  8
0
 10
-197.69
 20
-38.2067
 11
-197.921
 21
-38.6389
  0
LINE
  8
0
 10
-197.921
 20
-38.6389
 11
-198.232
 21
-39.0178
  0
LINE
  8
0
 10
-198.232
 20
-39.0178
 11
-198.611
 21
-39.3287
  0
LINE
  8
0
 10
-198.611
 20
-39.3287
 11
-199.043
 21
-39.5597
  0
LINE
  8
0
 10
-199.043
 20
-39.5597
 11
-199.512
 21
-39.702
  0
LINE
  8
0
 10
-199.512
 20
-39.702
 11
-200
 21
-39.75
  0
LINE
  8
0
 10
-200
 20
-39.75
 11
-200.488
 21
-39.702
  0
LINE
  8
0
 10
-105.249
 20
-45.2438
 11
-105.745
 21
-45.1942
  0
LINE
  8
0
 10
-105.745
 20
-45.1942
 11
-106.234
 21
-45.0954
  0
LINE
  8
0
 10
-106.234
 20
-45.0954
 11
-106.71
 21
-44.9485
  0
LINE
  8
0
 10
-106.71
 20
-44.9485
 11
-107.169
 21
-44.7548
  0
LINE
  8
0
 10
-107.169
 20
-44.7548
 11
-107.607
 21
-44.5164
  0
LINE
  8
0
 10
-107.607
 20
-44.5164
 11
-108.019
 21
-44.2357
  0
LINE
  8
0
 10
-108.019
 20
-44.2357
 11
-108.401
 21
-43.9153
  0
LINE
  8
0
 10
-108.401
 20
-43.9153
 11
-108.749
 21
-43.5584
  0
LINE
  8
0
 10
-108.749
 20
-43.5584
 11
-109.06
 21
-43.1687
  0
LINE
  8
0
 10
-109.06
 20
-43.1687
 11
-109.33
 21
-42.75
  0
LINE
  8
0
 10
-109.33
 20
-42.75
 11
-109.558
 21
-42.3064
  0
LINE
  8
0
 10
-109.558
 20
-42.3064
 11
-109.74
 21
-41.8424
  0
LINE
  8
0
 10
-109.74
 20
-41.8424
 11
-109.875
 21
-41.3626
  0
LINE
  8
0
 10
-109.875
 20
-41.3626
 11
-109.961
 21
-40.8717
  0
LINE
  8
0
 10
-109.961
 20
-40.8717
 11
-109.998
 21
-40.3746
  0
LINE
  8
0
 10
-109.998
 20
-40.3746
 11
-109.986
 21
-39.8763
  0
LINE
  8
0
 10
-109.986
 20
-39.8763
 11
-109.924
 21
-39.3818
  0
LINE
  8
0
 10
-109.924
 20
-39.3818
 11
-109.813
 21
-38.8958
  0
LINE
  8
0
 10
-109.813
 20
-38.8958
 11
-109.654
 21
-38.4233
  0
LINE
  8
0
 10
-109.654
 20
-38.4233
 11
-109.449
 21
-37.9689
  0
LINE
  8
0
 10
-109.449
 20
-37.9689
 11
-109.2
 21
-37.5373
  0
LINE
  8
0
 10
-109.2
 20
-37.5373
 11
-108.909
 21
-37.1325
  0
LINE
  8
0
 10
-108.909
 20
-37.1325
 11
-108.579
 21
-36.7588
  0
LINE
  8
0
 10
-108.579
 20
-36.7588
 11
-108.214
 21
-36.4198
  0
LINE
  8
0
 10
-108.214
 20
-36.4198
 11
-107.817
 21
-36.1188
  0
LINE
  8
0
 10
-107.817
 20
-36.1188
 11
-107.391
 21
-35.8589
  0
LINE
  8
0
 10
-107.391
 20
-35.8589
 11
-106.942
 21
-35.6426
  0
LINE
  8
0
 10
-106.942
 20
-35.6426
 11
-106.474
 21
-35.4721
  0
LINE
  8
0
 10
-106.474
 20
-35.4721
 11
-105.991
 21
-35.3491
  0
LINE
  8
0
 10
-105.991
 20
-35.3491
 11
-105.498
 21
-35.2748
  0
LINE
  8
0
 10
-105.498
 20
-35.2748
 11
-105
 21
-35.25
  0
LINE
  8
0
 10
-105
 20
-35.25
 11
-104.502
 21
-35.2748
  0
LINE
  8
0
 10
-104.502
 20
-35.2748
 11
-104.009
 21
-35.3491
  0
LINE
  8
0
 10
-104.009
 20
-35.3491
 11
-103.526
 21
-35.4721
  0
LINE
  8
0
 10
-103.526
 20
-35.4721
 11
-103.058
 21
-35.6426
  0
LINE
  8
0
 10
-103.058
 20
-35.6426
 11
-102.609
 21
-35.8589
  0
LINE
  8
0
 10
-102.609
 20
-35.8589
 11
-102.183
 21
-36.1188
  0
LINE
  8
0
 10
-102.183
 20
-36.1188
 11
-101.786
 21
-36.4198
  0
LINE
  8
0
 10
-101.786
 20
-36.4198
 11
-101.421
 21
-36.7588
  0
LINE
  8
0
 10
-101.421
 20
-36.7588
 11
-101.091
 21
-37.1325
  0
LINE
  8
0
 10
-101.091
 20
-37.1325
 11
-100.8
 21
-37.5373
  0
LINE
  8
0
 10
-100.8
 20
-37.5373
 11
-100.551
 21
-37.9689
  0
LINE
  8
0
 10
-100.551
 20
-37.9689
 11
-100.346
 21
-38.4233
  0
LINE
  8
0
 10
-100.346
 20
-38.4233
 11
-100.187
 21
-38.8958
  0
LINE
  8
0
 10
-100.187
 20
-38.8958
 11
-100.076
 21
-39.3818
  0
LINE
  8
0
 10
-100.076
 20
-39.3818
 11
-100.014
 21
-39.8763
  0
LINE
  8
0
 10
-100.014
 20
-39.8763
 11
-100.002
 21
-40.3746
  0
LINE
  8
0
 10
-100.002
 20
-40.3746
 11
-100.039
 21
-40.8717
  0
LINE
  8
0
 10
-100.039
 20
-40.8717
 11
-100.125
 21
-41.3626
  0
LINE
  8
0
 10
-100.125
 20
-41.3626
 11
-100.26
 21
-41.8424
  0
LINE
  8
0
 10
-100.26
 20
-41.8424
 11
-100.442
 21
-42.3064
  0
LINE
  8
0
 10
-100.442
 20
-42.3064
 11
-100.67
 21
-42.75
  0
LINE
  8
0
 10
-100.67
 20
-42.75
 11
-100.94
 21
-43.1687
  0
LINE
  8
0
 10
-100.94
 20
-43.1687
 11
-101.251
 21
-43.5584
  0
LINE
  8
0
 10
-101.251
 20
-43.5584
 11
-101.599
 21
-43.9153
  0
LINE
  8
0
 10
-101.599
 20
-43.9153
 11
-101.981
 21
-44.2357
  0
LINE
  8
0
 10
-101.981
 20
-44.2357
 11
-102.393
 21
-44.5164
  0
LINE
  8
0
 10
-102.393
 20
-44.5164
 11
-102.831
 21
-44.7548
  0
LINE
  8
0
 10
-102.831
 20
-44.7548
 11
-103.29
 21
-44.9485
  0
LINE
  8
0
 10
-103.29
 20
-44.9485
 11
-103.766
 21
-45.0954
  0
LINE
  8
0
 10
-103.766
 20
-45.0954
 11
-104.255
 21
-45.1942
  0
LINE
  8
0
 10
-104.255
 20
-45.1942
 11
-104.751
 21
-45.2438
  0
LINE
  8
0
 10
-104.751
 20
-45.2438
 11
-105.249
 21
-45.2438
  0
LINE
  8
0
 10
104.751
 20
-45.2438
 11
104.255
 21
-45.1942
  0
LINE
  8
0
 10
104.255
 20
-45.1942
 11
103.766
 21
-45.0954
  0
LINE
  8
0
 10
103.766
 20
-45.0954
 11
103.29
 21
-44.9485
  0
LINE
  8
0
 10
103.29
 20
-44.9485
 11
102.831
 21
-44.7548
  0
LINE
  8
0
 10
102.831
 20
-44.7548
 11
102.393
 21
-44.5164
  0
LINE
  8
0
 10
102.393
 20
-44.5164
 11
101.981
 21
-44.2357
  0
LINE
  8
0
 10
101.981
 20
-44.2357
 11
101.599
 21
-43.9153
  0
LINE
  8
0
 10
101.599
 20
-43.9153
 11
101.251
 21
-43.5584
  0
LINE
  8
0
 10
101.251
 20
-43.5584
 11
100.94
 21
-43.1687
  0
LINE
  8
0
 10
100.94
 20
-43.1687
 11
100.67
 21
-42.75
  0
LINE
  8
0
 10
100.67
 20
-42.75
 11
100.442
 21
-42.3064
  0
LINE
  8
0
 10
100.442
 20
-42.3064
 11
100.26
 21
-41.8424
  0
LINE
  8
0
 10
100.26
 20
-41.8424
 11
100.125
 21
-41.3626
  0
LINE
  8
0
 10
100.125
 20
-41.3626
 11
100.039
 21
-40.8717
  0
LINE
  8
0
 10
100.039
 20
-40.8717
 11
100.002
 21
-40.3746
  0
LINE
  8
0
 10
100.002
 20
-40.3746
 11
100.014
 21
-39.8763
  0
LINE
  8
0
 10
100.014
 20
-39.8763
 11
100.076
 21
-39.3818
  0
LINE
  8
0
 10
100.076
 20
-39.3818
 11
100.187
 21
-38.8958
  0
LINE
  8
0
 10
100.187
 20
-38.8958
 11
100.346
 21
-38.4233
  0
LINE
  8
0
 10
100.346
 20
-38.4233
 11
100.551
 21
-37.9689
  0
LINE
  8
0
 10
100.551
 20
-37.9689
 11
100.8
 21
-37.5373
  0
LINE
  8
0
 10
100.8
 20
-37.5373
 11
101.091
 21
-37.1325
  0
LINE
  8
0
 10
101.091
 20
-37.1325
 11
101.421
 21
-36.7588
  0
LINE
  8
0
 10
101.421
 20
-36.7588
 11
101.786
 21
-36.4198
  0
LINE
  8
0
 10
101.786
 20
-36.4198
 11
102.183
 21
-36.1188
  0
LINE
  8
0
 10
102.183
 20
-36.1188
 11
102.609
 21
-35.8589
  0
LINE
  8
0
 10
102.609
 20
-35.8589
 11
103.058
 21
-35.6426
  0
LINE
  8
0
 10
103.058
 20
-35.6426
 11
103.526
 21
-35.4721
  0
LINE
  8
0
 10
103.526
 20
-35.4721
 11
104.009
 21
-35.3491
  0
LINE
  8
0
 10
104.009
 20
-35.3491
 11
104.502
 21
-35.2748
  0
LINE
  8
0
 10
104.502
 20
-35.2748
 11
105
 21
-35.25
  0
LINE
  8
0
 10
105
 20
-35.25
 11
105.498
 21
-35.2748
  0
LINE
  8
0
 10
105.498
 20
-35.2748
 11
105.991
 21
-35.3491
  0
LINE
  8
0
 10
105.991
 20
-35.3491
 11
106.474
 21
-35.4721
  0
LINE
  8
0
 10
106.474
 20
-35.4721
 11
106.942
 21
-35.6426
  0
LINE
  8
0
 10
106.942
 20
-35.6426
 11
107.391
 21
-35.8589
  0
LINE
  8
0
 10
107.391
 20
-35.8589
 11
107.817
 21
-36.1188
  0
LINE
  8
0
 10
107.817
 20
-36.1188
 11
108.214
 21
-36.4198
  0
LINE
  8
0
 10
108.214
 20
-36.4198
 11
108.579
 21
-36.7588
  0
LINE
  8
0
 10
108.579
 20
-36.7588
 11
108.909
 21
-37.1325
  0
LINE
  8
0
 10
108.909
 20
-37.1325
 11
109.2
 21
-37.5373
  0
LINE
  8
0
 10
109.2
 20
-37.5373
 11
109.449
 21
-37.9689
  0
LINE
  8
0
 10
109.449
 20
-37.9689
 11
109.654
 21
-38.4233
  0
LINE
  8
0
 10
109.654
 20
-38.4233
 11
109.813
 21
-38.8958
  0
LINE
  8
0
 10
109.813
 20
-38.8958
 11
109.924
 21
-39.3818
  0
LINE
  8
0
 10
109.924
 20
-39.3818
 11
109.986
 21
-39.8763
  0
LINE
  8
0
 10
109.986
 20
-39.8763
 11
109.998
 21
-40.3746
  0
LINE
  8
0
 10
109.998
 20
-40.3746
 11
109.961
 21
-40.8717
  0
LINE
  8
0
 10
109.961
 20
-40.8717
 11
109.875
 21
-41.3626
  0
LINE
  8
0
 10
109.875
 20
-41.3626
 11
109.74
 21
-41.8424
  0
LINE
  8
0
 10
109.74
 20
-41.8424
 11
109.558
 21
-42.3064
  0
LINE
  8
0
 10
109.558
 20
-42.3064
 11
109.33
 21
-42.75
  0
LINE
  8
0
 10
109.33
 20
-42.75
 11
109.06
 21
-43.1687
  0
LINE
  8
0
 10
109.06
 20
-43.1687
 11
108.749
 21
-43.5584
  0
LINE
  8
0
 10
108.749
 20
-43.5584
 11
108.401
 21
-43.9153
  0
LINE
  8
0
 10
108.401
 20
-43.9153
 11
108.019
 21
-44.2357
  0
LINE
  8
0
 10
108.019
 20
-44.2357
 11
107.607
 21
-44.5164
  0
LINE
  8
0
 10
107.607
 20
-44.5164
 11
107.169
 21
-44.7548
  0
LINE
  8
0
 10
107.169
 20
-44.7548
 11
106.71
 21
-44.9485
  0
LINE
  8
0
 10
106.71
 20
-44.9485
 11
106.234
 21
-45.0954
  0
LINE
  8
0
 10
106.234
 20
-45.0954
 11
105.745
 21
-45.1942
  0
LINE
  8
0
 10
105.745
 20
-45.1942
 11
105.249
 21
-45.2438
  0
LINE
  8
0
 10
105.249
 20
-45.2438
 11
104.751
 21
-45.2438
  0
LINE
  8
0
 10
-0.24881
 20
-44.4426
 11
-0.742935
 21
-44.3838
  0
LINE
  8
0
 10
-0.742935
 20
-44.3838
 11
-1.22662
 21
-44.2669
  0
LINE
  8
0
 10
-1.22662
 20
-44.2669
 11
-1.69312
 21
-44.0936
  0
LINE
  8
0
 10
-1.69312
 20
-44.0936
 11
-2.13582
 21
-43.8664
  0
LINE
  8
0
 10
-2.13582
 20
-43.8664
 11
-2.54855
 21
-43.5884
  0
LINE
  8
0
 10
-2.54855
 20
-43.5884
 11
-2.92551
 21
-43.2635
  0
LINE
  8
0
 10
-2.92551
 20
-43.2635
 11
-3.2614
 21
-42.8964
  0
LINE
  8
0
 10
-3.2614
 20
-42.8964
 11
-3.5515
 21
-42.4921
  0
LINE
  8
0
 10
-3.5515
 20
-42.4921
 11
-3.79175
 21
-42.0563
  0
LINE
  8
0
 10
-3.79175
 20
-42.0563
 11
-3.97876
 21
-41.5951
  0
LINE
  8
0
 10
-3.97876
 20
-41.5951
 11
-4.10992
 21
-41.1151
  0
LINE
  8
0
 10
-4.10992
 20
-41.1151
 11
-4.1834
 21
-40.6229
  0
LINE
  8
0
 10
-4.1834
 20
-40.6229
 11
-4.19815
 21
-40.1255
  0
LINE
  8
0
 10
-4.19815
 20
-40.1255
 11
-4.15396
 21
-39.6299
  0
LINE
  8
0
 10
-4.15396
 20
-39.6299
 11
-4.05147
 21
-39.1429
  0
LINE
  8
0
 10
-4.05147
 20
-39.1429
 11
-3.89209
 21
-38.6715
  0
LINE
  8
0
 10
-3.89209
 20
-38.6715
 11
-3.67809
 21
-38.2223
  0
LINE
  8
0
 10
-3.67809
 20
-38.2223
 11
-3.41243
 21
-37.8015
  0
LINE
  8
0
 10
-3.41243
 20
-37.8015
 11
-3.09889
 21
-37.4151
  0
LINE
  8
0
 10
-3.09889
 20
-37.4151
 11
-2.74185
 21
-37.0685
  0
LINE
  8
0
 10
-2.74185
 20
-37.0685
 11
-2.34631
 21
-36.7665
  0
LINE
  8
0
 10
-2.34631
 20
-36.7665
 11
-1.91783
 21
-36.5134
  0
LINE
  8
0
 10
-1.91783
 20
-36.5134
 11
-1.46243
 21
-36.3128
  0
LINE
  8
0
 10
-1.46243
 20
-36.3128
 11
-0.986511
 21
-36.1675
  0
LINE
  8
0
 10
-0.986511
 20
-36.1675
 11
-0.496735
 21
-36.0795
  0
LINE
  8
0
 10
-0.496735
 20
-36.0795
 11
0
 21
-36.05
  0
LINE
  8
0
 10
0
 20
-36.05
 11
0.496735
 21
-36.0795
  0
LINE
  8
0
 10
0.496735
 20
-36.0795
 11
0.986511
 21
-36.1675
  0
LINE
  8
0
 10
0.986511
 20
-36.1675
 11
1.46243
 21
-36.3128
  0
LINE
  8
0
 10
1.46243
 20
-36.3128
 11
1.91783
 21
-36.5134
  0
LINE
  8
0
 10
1.91783
 20
-36.5134
 11
2.34631
 21
-36.7665
  0
LINE
  8
0
 10
2.34631
 20
-36.7665
 11
2.74185
 21
-37.0685
  0
LINE
  8
0
 10
2.74185
 20
-37.0685
 11
3.09889
 21
-37.4151
  0
LINE
  8
0
 10
3.09889
 20
-37.4151
 11
3.41243
 21
-37.8015
  0
LINE
  8
0
 10
3.41243
 20
-37.8015
 11
3.67809
 21
-38.2223
  0
LINE
  8
0
 10
3.67809
 20
-38.2223
 11
3.89209
 21
-38.6715
  0
LINE
  8
0
 10
3.89209
 20
-38.6715
 11
4.05147
 21
-39.1429
  0
LINE
  8
0
 10
4.05147
 20
-39.1429
 11
4.15396
 21
-39.6299
  0
LINE
  8
0
 10
4.15396
 20
-39.6299
 11
4.19815
 21
-40.1255
  0
LINE
  8
0
 10
4.19815
 20
-40.1255
 11
4.1834
 21
-40.6229
  0
LINE
  8
0
 10
4.1834
 20
-40.6229
 11
4.10992
 21
-41.1151
  0
LINE
  8
0
 10
4.10992
 20
-41.1151
 11
3.97876
 21
-41.5951
  0
LINE
  8
0
 10
3.97876
 20
-41.5951
 11
3.79175
 21
-42.0563
  0
LINE
  8
0
 10
3.79175
 20
-42.0563
 11
3.5515
 21
-42.4921
  0
LINE
  8
0
 10
3.5515
 20
-42.4921
 11
3.2614
 21
-42.8964
  0
LINE
  8
0
 10
3.2614
 20
-42.8964
 11
2.92551
 21
-43.2635
  0
LINE
  8
0
 10
2.92551
 20
-43.2635
 11
2.54855
 21
-43.5884
  0
LINE
  8
0
 10
2.54855
 20
-43.5884
 11
2.13582
 21
-43.8664
  0
LINE
  8
0
 10
2.13582
 20
-43.8664
 11
1.69312
 21
-44.0936
  0
LINE
  8
0
 10
1.69312
 20
-44.0936
 11
1.22662
 21
-44.2669
  0
LINE
  8
0
 10
1.22662
 20
-44.2669
 11
0.742935
 21
-44.3838
  0
LINE
  8
0
 10
0.742935
 20
-44.3838
 11
0.24881
 21
-44.4426
  0
LINE
  8
0
 10
0.24881
 20
-44.4426
 11
-0.24881
 21
-44.4426
  0
LINE
  8
0
 10
92.5
 20
-42.75
 11
92.5
 21
-37.75
  0
LINE
  8
0
 10
92.5
 20
-37.75
 11
95.5
 21
-37.75
  0
LINE
  8
0
 10
95.5
 20
-37.75
 11
95.5
 21
-42.75
  0
LINE
  8
0
 10
95.5
 20
-42.75
 11
92.5
 21
-42.75
  0
LINE
  8
0
 10
-95.5
 20
-42.75
 11
-95.5
 21
-37.75
  0
LINE
  8
0
 10
-95.5
 20
-37.75
 11
-92.5
 21
-37.75
  0
LINE
  8
0
 10
-92.5
 20
-37.75
 11
-92.5
 21
-42.75
  0
LINE
  8
0
 10
-92.5
 20
-42.75
 11
-95.5
 21
-42.75
  0
LINE
  8
0
 10
-117.5
 20
-42.75
 11
-117.5
 21
-37.75
  0
LINE
  8
0
 10
-117.5
 20
-37.75
 11
-114.5
 21
-37.75
  0
LINE
  8
0
 10
-114.5
 20
-37.75
 11
-114.5
 21
-42.75
  0
LINE
  8
0
 10
-114.5
 20
-42.75
 11
-117.5
 21
-42.75
  0
LINE
  8
0
 10
114.5
 20
-42.75
 11
114.5
 21
-37.75
  0
LINE
  8
0
 10
114.5
 20
-37.75
 11
117.5
 21
-37.75
  0
LINE
  8
0
 10
117.5
 20
-37.75
 11
117.5
 21
-42.75
  0
LINE
  8
0
 10
117.5
 20
-42.75
 11
114.5
 21
-42.75
  0
LINE
  8
0
 10
-206.956
 20
-44.9457
 11
-207.429
 21
-44.8428
  0
LINE
  8
0
 10
-207.429
 20
-44.8428
 11
-207.853
 21
-44.6109
  0
LINE
  8
0
 10
-207.853
 20
-44.6109
 11
-208.195
 21
-44.2688
  0
LINE
  8
0
 10
-208.195
 20
-44.2688
 11
-208.427
 21
-43.8441
  0
LINE
  8
0
 10
-208.427
 20
-43.8441
 11
-208.53
 21
-43.3713
  0
LINE
  8
0
 10
-208.53
 20
-43.3713
 11
-208.496
 21
-42.8886
  0
LINE
  8
0
 10
-208.496
 20
-42.8886
 11
-208.327
 21
-42.4353
  0
LINE
  8
0
 10
-208.327
 20
-42.4353
 11
-208.037
 21
-42.0479
  0
LINE
  8
0
 10
-208.037
 20
-42.0479
 11
-207.649
 21
-41.7579
  0
LINE
  8
0
 10
-207.649
 20
-41.7579
 11
-207.196
 21
-41.5888
  0
LINE
  8
0
 10
-207.196
 20
-41.5888
 11
-206.713
 21
-41.5543
  0
LINE
  8
0
 10
-206.713
 20
-41.5543
 11
-203.885
 21
-41.5543
  0
LINE
  8
0
 10
-203.885
 20
-41.5543
 11
-203.412
 21
-41.6572
  0
LINE
  8
0
 10
-203.412
 20
-41.6572
 11
-202.987
 21
-41.8891
  0
LINE
  8
0
 10
-202.987
 20
-41.8891
 11
-202.645
 21
-42.2312
  0
LINE
  8
0
 10
-202.645
 20
-42.2312
 11
-202.413
 21
-42.6559
  0
LINE
  8
0
 10
-202.413
 20
-42.6559
 11
-202.31
 21
-43.1287
  0
LINE
  8
0
 10
-202.31
 20
-43.1287
 11
-202.345
 21
-43.6114
  0
LINE
  8
0
 10
-202.345
 20
-43.6114
 11
-202.514
 21
-44.0647
  0
LINE
  8
0
 10
-202.514
 20
-44.0647
 11
-202.804
 21
-44.4521
  0
LINE
  8
0
 10
-202.804
 20
-44.4521
 11
-203.191
 21
-44.7421
  0
LINE
  8
0
 10
-203.191
 20
-44.7421
 11
-203.645
 21
-44.9111
  0
LINE
  8
0
 10
-203.645
 20
-44.9111
 11
-204.127
 21
-44.9457
  0
LINE
  8
0
 10
-204.127
 20
-44.9457
 11
-206.956
 21
-44.9457
  0
LINE
  8
0
 10
204.127
 20
-44.9457
 11
203.645
 21
-44.9111
  0
LINE
  8
0
 10
203.645
 20
-44.9111
 11
203.191
 21
-44.7421
  0
LINE
  8
0
 10
203.191
 20
-44.7421
 11
202.804
 21
-44.4521
  0
LINE
  8
0
 10
202.804
 20
-44.4521
 11
202.514
 21
-44.0647
  0
LINE
  8
0
 10
202.514
 20
-44.0647
 11
202.345
 21
-43.6114
  0
LINE
  8
0
 10
202.345
 20
-43.6114
 11
202.31
 21
-43.1287
  0
LINE
  8
0
 10
202.31
 20
-43.1287
 11
202.413
 21
-42.6559
  0
LINE
  8
0
 10
202.413
 20
-42.6559
 11
202.645
 21
-42.2312
  0
LINE
  8
0
 10
202.645
 20
-42.2312
 11
202.987
 21
-41.8891
  0
LINE
  8
0
 10
202.987
 20
-41.8891
 11
203.412
 21
-41.6572
  0
LINE
  8
0
 10
203.412
 20
-41.6572
 11
203.885
 21
-41.5543
  0
LINE
  8
0
 10
203.885
 20
-41.5543
 11
206.713
 21
-41.5543
  0
LINE
  8
0
 10
206.713
 20
-41.5543
 11
207.196
 21
-41.5888
  0
LINE
  8
0
 10
207.196
 20
-41.5888
 11
207.649
 21
-41.7579
  0
LINE
  8
0
 10
207.649
 20
-41.7579
 11
208.037
 21
-42.0479
  0
LINE
  8
0
 10
208.037
 20
-42.0479
 11
208.327
 21
-42.4353
  0
LINE
  8
0
 10
208.327
 20
-42.4353
 11
208.496
 21
-42.8886
  0
LINE
  8
0
 10
208.496
 20
-42.8886
 11
208.53
 21
-43.3713
  0
LINE
  8
0
 10
208.53
 20
-43.3713
 11
208.427
 21
-43.8441
  0
LINE
  8
0
 10
208.427
 20
-43.8441
 11
208.195
 21
-44.2688
  0
LINE
  8
0
 10
208.195
 20
-44.2688
 11
207.853
 21
-44.6109
  0
LINE
  8
0
 10
207.853
 20
-44.6109
 11
207.429
 21
-44.8428
  0
LINE
  8
0
 10
207.429
 20
-44.8428
 11
206.956
 21
-44.9457
  0
LINE
  8
0
 10
206.956
 20
-44.9457
 11
204.127
 21
-44.9457
  0
LINE
  8
0
 10
-163.115
 20
-44.9457
 11
-163.588
 21
-44.8428
  0
LINE
  8
0
 10
-163.588
 20
-44.8428
 11
-164.013
 21
-44.6109
  0
LINE
  8
0
 10
-164.013
 20
-44.6109
 11
-164.355
 21
-44.2688
  0
LINE
  8
0
 10
-164.355
 20
-44.2688
 11
-164.587
 21
-43.8441
  0
LINE
  8
0
 10
-164.587
 20
-43.8441
 11
-164.69
 21
-43.3713
  0
LINE
  8
0
 10
-164.69
 20
-43.3713
 11
-164.655
 21
-42.8886
  0
LINE
  8
0
 10
-164.655
 20
-42.8886
 11
-164.486
 21
-42.4353
  0
LINE
  8
0
 10
-164.486
 20
-42.4353
 11
-164.196
 21
-42.0479
  0
LINE
  8
0
 10
-164.196
 20
-42.0479
 11
-163.809
 21
-41.7579
  0
LINE
  8
0
 10
-163.809
 20
-41.7579
 11
-163.355
 21
-41.5888
  0
LINE
  8
0
 10
-163.355
 20
-41.5888
 11
-162.873
 21
-41.5543
  0
LINE
  8
0
 10
-162.873
 20
-41.5543
 11
-160.044
 21
-41.5543
  0
LINE
  8
0
 10
-160.044
 20
-41.5543
 11
-159.571
 21
-41.6572
  0
LINE
  8
0
 10
-159.571
 20
-41.6572
 11
-159.147
 21
-41.8891
  0
LINE
  8
0
 10
-159.147
 20
-41.8891
 11
-158.805
 21
-42.2312
  0
LINE
  8
0
 10
-158.805
 20
-42.2312
 11
-158.573
 21
-42.6559
  0
LINE
  8
0
 10
-158.573
 20
-42.6559
 11
-158.47
 21
-43.1287
  0
LINE
  8
0
 10
-158.47
 20
-43.1287
 11
-158.504
 21
-43.6114
  0
LINE
  8
0
 10
-158.504
 20
-43.6114
 11
-158.673
 21
-44.0647
  0
LINE
  8
0
 10
-158.673
 20
-44.0647
 11
-158.963
 21
-44.4521
  0
LINE
  8
0
 10
-158.963
 20
-44.4521
 11
-159.351
 21
-44.7421
  0
LINE
  8
0
 10
-159.351
 20
-44.7421
 11
-159.804
 21
-44.9111
  0
LINE
  8
0
 10
-159.804
 20
-44.9111
 11
-160.287
 21
-44.9457
  0
LINE
  8
0
 10
-160.287
 20
-44.9457
 11
-163.115
 21
-44.9457
  0
LINE
  8
0
 10
160.287
 20
-44.9457
 11
159.804
 21
-44.9111
  0
LINE
  8
0
 10
159.804
 20
-44.9111
 11
159.351
 21
-44.7421
  0
LINE
  8
0
 10
159.351
 20
-44.7421
 11
158.963
 21
-44.4521
  0
LINE
  8
0
 10
158.963
 20
-44.4521
 11
158.673
 21
-44.0647
  0
LINE
  8
0
 10
158.673
 20
-44.0647
 11
158.504
 21
-43.6114
  0
LINE
  8
0
 10
158.504
 20
-43.6114
 11
158.47
 21
-43.1287
  0
LINE
  8
0
 10
158.47
 20
-43.1287
 11
158.573
 21
-42.6559
  0
LINE
  8
0
 10
158.573
 20
-42.6559
 11
158.805
 21
-42.2312
  0
LINE
  8
0
 10
158.805
 20
-42.2312
 11
159.147
 21
-41.8891
  0
LINE
  8
0
 10
159.147
 20
-41.8891
 11
159.571
 21
-41.6572
  0
LINE
  8
0
 10
159.571
 20
-41.6572
 11
160.044
 21
-41.5543
  0
LINE
  8
0
 10
160.044
 20
-41.5543
 11
162.873
 21
-41.5543
  0
LINE
  8
0
 10
162.873
 20
-41.5543
 11
163.355
 21
-41.5888
  0
LINE
  8
0
 10
163.355
 20
-41.5888
 11
163.809
 21
-41.7579
  0
LINE
  8
0
 10
163.809
 20
-41.7579
 11
164.196
 21
-42.0479
  0
LINE
  8
0
 10
164.196
 20
-42.0479
 11
164.486
 21
-42.4353
  0
LINE
  8
0
 10
164.486
 20
-42.4353
 11
164.655
 21
-42.8886
  0
LINE
  8
0
 10
164.655
 20
-42.8886
 11
164.69
 21
-43.3713
  0
LINE
  8
0
 10
164.69
 20
-43.3713
 11
164.587
 21
-43.8441
  0
LINE
  8
0
 10
164.587
 20
-43.8441
 11
164.355
 21
-44.2688
  0
LINE
  8
0
 10
164.355
 20
-44.2688
 11
164.013
 21
-44.6109
  0
LINE
  8
0
 10
164.013
 20
-44.6109
 11
163.588
 21
-44.8428
  0
LINE
  8
0
 10
163.588
 20
-44.8428
 11
163.115
 21
-44.9457
  0
LINE
  8
0
 10
163.115
 20
-44.9457
 11
160.287
 21
-44.9457
  0
LINE
  8
0
 10
-215.75
 20
-20.25
 11
-215.702
 21
-19.7623
  0
LINE
  8
0
 10
-215.702
 20
-19.7623
 11
-215.56
 21
-19.2933
  0
LINE
  8
0
 10
-215.56
 20
-19.2933
 11
-215.329
 21
-18.8611
  0
LINE
  8
0
 10
-215.329
 20
-18.8611
 11
-215.018
 21
-18.4822
  0
LINE
  8
0
 10
-215.018
 20
-18.4822
 11
-214.639
 21
-18.1713
  0
LINE
  8
0
 10
-214.639
 20
-18.1713
 11
-214.207
 21
-17.9403
  0
LINE
  8
0
 10
-214.207
 20
-17.9403
 11
-213.738
 21
-17.798
  0
LINE
  8
0
 10
-213.738
 20
-17.798
 11
-213.25
 21
-17.75
  0
LINE
  8
0
 10
-213.25
 20
-17.75
 11
-212.762
 21
-17.798
  0
LINE
  8
0
 10
-212.762
 20
-17.798
 11
-212.293
 21
-17.9403
  0
LINE
  8
0
 10
-212.293
 20
-17.9403
 11
-211.861
 21
-18.1713
  0
LINE
  8
0
 10
-211.861
 20
-18.1713
 11
-211.482
 21
-18.4822
  0
LINE
  8
0
 10
-211.482
 20
-18.4822
 11
-211.171
 21
-18.8611
  0
LINE
  8
0
 10
-211.171
 20
-18.8611
 11
-210.94
 21
-19.2933
  0
LINE
  8
0
 10
-210.94
 20
-19.2933
 11
-210.798
 21
-19.7623
  0
LINE
  8
0
 10
-210.798
 20
-19.7623
 11
-210.75
 21
-20.25
  0
LINE
  8
0
 10
-210.75
 20
-20.25
 11
-210.798
 21
-20.7377
  0
LINE
  8
0
 10
-210.798
 20
-20.7377
 11
-210.94
 21
-21.2067
  0
LINE
  8
0
 10
-210.94
 20
-21.2067
 11
-211.171
 21
-21.6389
  0
LINE
  8
0
 10
-211.171
 20
-21.6389
 11
-211.482
 21
-22.0178
  0
LINE
  8
0
 10
-211.482
 20
-22.0178
 11
-211.861
 21
-22.3287
  0
LINE
  8
0
 10
-211.861
 20
-22.3287
 11
-212.293
 21
-22.5597
  0
LINE
  8
0
 10
-212.293
 20
-22.5597
 11
-212.762
 21
-22.702
  0
LINE
  8
0
 10
-212.762
 20
-22.702
 11
-213.25
 21
-22.75
  0
LINE
  8
0
 10
-213.25
 20
-22.75
 11
-213.738
 21
-22.702
  0
LINE
  8
0
 10
-213.738
 20
-22.702
 11
-214.207
 21
-22.5597
  0
LINE
  8
0
 10
-214.207
 20
-22.5597
 11
-214.639
 21
-22.3287
  0
LINE
  8
0
 10
-214.639
 20
-22.3287
 11
-215.018
 21
-22.0178
  0
LINE
  8
0
 10
-215.018
 20
-22.0178
 11
-215.329
 21
-21.6389
  0
LINE
  8
0
 10
-215.329
 20
-21.6389
 11
-215.56
 21
-21.2067
  0
LINE
  8
0
 10
-215.56
 20
-21.2067
 11
-215.702
 21
-20.7377
  0
LINE
  8
0
 10
-215.702
 20
-20.7377
 11
-215.75
 21
-20.25
  0
LINE
  8
0
 10
210.75
 20
-20.25
 11
210.798
 21
-19.7623
  0
LINE
  8
0
 10
210.798
 20
-19.7623
 11
210.94
 21
-19.2933
  0
LINE
  8
0
 10
210.94
 20
-19.2933
 11
211.171
 21
-18.8611
  0
LINE
  8
0
 10
211.171
 20
-18.8611
 11
211.482
 21
-18.4822
  0
LINE
  8
0
 10
211.482
 20
-18.4822
 11
211.861
 21
-18.1713
  0
LINE
  8
0
 10
211.861
 20
-18.1713
 11
212.293
 21
-17.9403
  0
LINE
  8
0
 10
212.293
 20
-17.9403
 11
212.762
 21
-17.798
  0
LINE
  8
0
 10
212.762
 20
-17.798
 11
213.25
 21
-17.75
  0
LINE
  8
0
 10
213.25
 20
-17.75
 11
213.738
 21
-17.798
  0
LINE
  8
0
 10
213.738
 20
-17.798
 11
214.207
 21
-17.9403
  0
LINE
  8
0
 10
214.207
 20
-17.9403
 11
214.639
 21
-18.1713
  0
LINE
  8
0
 10
214.639
 20
-18.1713
 11
215.018
 21
-18.4822
  0
LINE
  8
0
 10
215.018
 20
-18.4822
 11
215.329
 21
-18.8611
  0
LINE
  8
0
 10
215.329
 20
-18.8611
 11
215.56
 21
-19.2933
  0
LINE
  8
0
 10
215.56
 20
-19.2933
 11
215.702
 21
-19.7623
  0
LINE
  8
0
 10
215.702
 20
-19.7623
 11
215.75
 21
-20.25
  0
LINE
  8
0
 10
215.75
 20
-20.25
 11
215.702
 21
-20.7377
  0
LINE
  8
0
 10
215.702
 20
-20.7377
 11
215.56
 21
-21.2067
  0
LINE
  8
0
 10
215.56
 20
-21.2067
 11
215.329
 21
-21.6389
  0
LINE
  8
0
 10
215.329
 20
-21.6389
 11
215.018
 21
-22.0178
  0
LINE
  8
0
 10
215.018
 20
-22.0178
 11
214.639
 21
-22.3287
  0
LINE
  8
0
 10
214.639
 20
-22.3287
 11
214.207
 21
-22.5597
  0
LINE
  8
0
 10
214.207
 20
-22.5597
 11
213.738
 21
-22.702
  0
LINE
  8
0
 10
213.738
 20
-22.702
 11
213.25
 21
-22.75
  0
LINE
  8
0
 10
213.25
 20
-22.75
 11
212.762
 21
-22.702
  0
LINE
  8
0
 10
212.762
 20
-22.702
 11
212.293
 21
-22.5597
  0
LINE
  8
0
 10
212.293
 20
-22.5597
 11
211.861
 21
-22.3287
  0
LINE
  8
0
 10
211.861
 20
-22.3287
 11
211.482
 21
-22.0178
  0
LINE
  8
0
 10
211.482
 20
-22.0178
 11
211.171
 21
-21.6389
  0
LINE
  8
0
 10
211.171
 20
-21.6389
 11
210.94
 21
-21.2067
  0
LINE
  8
0
 10
210.94
 20
-21.2067
 11
210.798
 21
-20.7377
  0
LINE
  8
0
 10
210.798
 20
-20.7377
 11
210.75
 21
-20.25
  0
ENDSEC
  0
SECTION
  2
OBJECTS
  0
DICTIONARY
  0
ENDSEC
  0
EOF
