  0
SECTION
  2
BLOCKS
  0
ENDSEC
  0
SECTION
  2
ENTITIES
  0
LINE
  8
0
 10
-5.02708
 20
-50.0341
 11
-5.46407
 21
-49.7969
  0
LINE
  8
0
 10
-5.46407
 20
-49.7969
 11
-5.88989
 21
-49.5403
  0
LINE
  8
0
 10
-5.88989
 20
-49.5403
 11
-6.30368
 21
-49.2646
  0
LINE
  8
0
 10
-6.30368
 20
-49.2646
 11
-6.70459
 21
-48.9706
  0
LINE
  8
0
 10
-6.70459
 20
-48.9706
 11
-7.0918
 21
-48.6587
  0
LINE
  8
0
 10
-7.0918
 20
-48.6587
 11
-7.46452
 21
-48.3297
  0
LINE
  8
0
 10
-7.46452
 20
-48.3297
 11
-7.82199
 21
-47.9841
  0
LINE
  8
0
 10
-7.82199
 20
-47.9841
 11
-8.16348
 21
-47.6227
  0
LINE
  8
0
 10
-8.16348
 20
-47.6227
 11
-8.4883
 21
-47.2463
  0
LINE
  8
0
 10
-8.4883
 20
-47.2463
 11
-8.79578
 21
-46.8556
  0
LINE
  8
0
 10
-8.79578
 20
-46.8556
 11
-9.08528
 21
-46.4514
  0
LINE
  8
0
 10
-9.08528
 20
-46.4514
 11
-9.35623
 21
-46.0345
  0
LINE
  8
0
 10
-9.35623
 20
-46.0345
 11
-9.60806
 21
-45.6058
  0
LINE
  8
0
 10
-9.60806
 20
-45.6058
 11
-9.84026
 21
-45.1662
  0
LINE
  8
0
 10
-9.84026
 20
-45.1662
 11
-10.0524
 21
-44.7165
  0
LINE
  8
0
 10
-10.0524
 20
-44.7165
 11
-10.2439
 21
-44.2577
  0
LINE
  8
0
 10
-10.2439
 20
-44.2577
 11
-10.4146
 21
-43.7907
  0
LINE
  8
0
 10
-10.4146
 20
-43.7907
 11
-10.5639
 21
-43.3165
  0
LINE
  8
0
 10
-10.5639
 20
-43.3165
 11
-10.6917
 21
-42.836
  0
LINE
  8
0
 10
-10.6917
 20
-42.836
 11
-10.7976
 21
-42.3503
  0
LINE
  8
0
 10
-10.7976
 20
-42.3503
 11
-10.8815
 21
-41.8602
  0
LINE
  8
0
 10
-10.8815
 20
-41.8602
 11
-10.9431
 21
-41.3668
  0
LINE
  8
0
 10
-10.9431
 20
-41.3668
 11
-10.9824
 21
-40.8712
  0
LINE
  8
0
 10
-10.9824
 20
-40.8712
 11
-10.9993
 21
-40.3743
  0
LINE
  8
0
 10
-10.9993
 20
-40.3743
 11
-10.9937
 21
-39.8771
  0
LINE
  8
0
 10
-10.9937
 20
-39.8771
 11
-10.9656
 21
-39.3808
  0
LINE
  8
0
 10
-10.9656
 20
-39.3808
 11
-10.9151
 21
-38.8861
  0
LINE
  8
0
 10
-10.9151
 20
-38.8861
 11
-10.8423
 21
-38.3943
  0
LINE
  8
0
 10
-10.8423
 20
-38.3943
 11
-10.7474
 21
-37.9062
  0
LINE
  8
0
 10
-10.7474
 20
-37.9062
 11
-10.6305
 21
-37.423
  0
LINE
  8
0
 10
-10.6305
 20
-37.423
 11
-10.4919
 21
-36.9455
  0
LINE
  8
0
 10
-10.4919
 20
-36.9455
 11
-10.3319
 21
-36.4748
  0
LINE
  8
0
 10
-10.3319
 20
-36.4748
 11
-10.1507
 21
-36.0118
  0
LINE
  8
0
 10
-10.1507
 20
-36.0118
 11
-9.94885
 21
-35.5574
  0
LINE
  8
0
 10
-9.94885
 20
-35.5574
 11
-9.72664
 21
-35.1127
  0
LINE
  8
0
 10
-9.72664
 20
-35.1127
 11
-9.48457
 21
-34.6784
  0
LINE
  8
0
 10
-9.48457
 20
-34.6784
 11
-9.22311
 21
-34.2555
  0
LINE
  8
0
 10
-9.22311
 20
-34.2555
 11
-8.94281
 21
-33.8448
  0
LINE
  8
0
 10
-8.94281
 20
-33.8448
 11
-8.64424
 21
-33.4473
  0
LINE
  8
0
 10
-8.64424
 20
-33.4473
 11
-8.32802
 21
-33.0636
  0
LINE
  8
0
 10
-8.32802
 20
-33.0636
 11
-7.99478
 21
-32.6946
  0
LINE
  8
0
 10
-7.99478
 20
-32.6946
 11
-7.6452
 21
-32.3411
  0
LINE
  8
0
 10
-7.6452
 20
-32.3411
 11
-7.28001
 21
-32.0037
  0
LINE
  8
0
 10
-7.28001
 20
-32.0037
 11
-6.89995
 21
-31.6832
  0
LINE
  8
0
 10
-6.89995
 20
-31.6832
 11
-6.5058
 21
-31.3801
  0
LINE
  8
0
 10
-6.5058
 20
-31.3801
 11
-6.09834
 21
-31.0952
  0
LINE
  8
0
 10
-6.09834
 20
-31.0952
 11
-5.67844
 21
-30.829
  0
LINE
  8
0
 10
-5.67844
 20
-30.829
 11
-5.24692
 21
-30.582
  0
LINE
  8
0
 10
-5.24692
 20
-30.582
 11
-4.80469
 21
-30.3548
  0
LINE
  8
0
 10
-4.80469
 20
-30.3548
 11
-4.35265
 21
-30.1478
  0
LINE
  8
0
 10
-4.35265
 20
-30.1478
 11
-3.89171
 21
-29.9614
  0
LINE
  8
0
 10
-3.89171
 20
-29.9614
 11
-3.42282
 21
-29.7961
  0
LINE
  8
0
 10
-3.42282
 20
-29.7961
 11
-2.94693
 21
-29.6521
  0
LINE
  8
0
 10
-2.94693
 20
-29.6521
 11
-2.46503
 21
-29.5298
  0
LINE
  8
0
 10
-2.46503
 20
-29.5298
 11
-1.97809
 21
-29.4293
  0
LINE
  8
0
 10
-1.97809
 20
-29.4293
 11
-1.48712
 21
-29.351
  0
LINE
  8
0
 10
-1.48712
 20
-29.351
 11
-0.993103
 21
-29.2949
  0
LINE
  8
0
 10
-0.993103
 20
-29.2949
 11
-0.497055
 21
-29.2612
  0
LINE
  8
0
 10
-0.497055
 20
-29.2612
 11
0
 21
-29.25
  0
LINE
  8
0
 10
0
 20
-29.25
 11
0.497055
 21
-29.2612
  0
LINE
  8
0
 10
0.497055
 20
-29.2612
 11
0.993103
 21
-29.2949
  0
LINE
  8
0
 10
0.993103
 20
-29.2949
 11
1.48712
 21
-29.351
  0
LINE
  8
0
 10
1.48712
 20
-29.351
 11
1.97809
 21
-29.4293
  0
LINE
  8
0
 10
1.97809
 20
-29.4293
 11
2.46503
 21
-29.5298
  0
LINE
  8
0
 10
2.46503
 20
-29.5298
 11
2.94693
 21
-29.6521
  0
LINE
  8
0
 10
2.94693
 20
-29.6521
 11
3.42282
 21
-29.7961
  0
LINE
  8
0
 10
3.42282
 20
-29.7961
 11
3.89171
 21
-29.9614
  0
LINE
  8
0
 10
3.89171
 20
-29.9614
 11
4.35265
 21
-30.1478
  0
LINE
  8
0
 10
4.35265
 20
-30.1478
 11
4.80469
 21
-30.3548
  0
LINE
  8
0
 10
4.80469
 20
-30.3548
 11
5.24692
 21
-30.582
  0
LINE
  8
0
 10
5.24692
 20
-30.582
 11
5.67844
 21
-30.829
  0
LINE
  8
0
 10
5.67844
 20
-30.829
 11
6.09834
 21
-31.0952
  0
LINE
  8
0
 10
6.09834
 20
-31.0952
 11
6.5058
 21
-31.3801
  0
LINE
  8
0
 10
6.5058
 20
-31.3801
 11
6.89995
 21
-31.6832
  0
LINE
  8
0
 10
6.89995
 20
-31.6832
 11
7.28001
 21
-32.0037
  0
LINE
  8
0
 10
7.28001
 20
-32.0037
 11
7.6452
 21
-32.3411
  0
LINE
  8
0
 10
7.6452
 20
-32.3411
 11
7.99478
 21
-32.6946
  0
LINE
  8
0
 10
7.99478
 20
-32.6946
 11
8.32802
 21
-33.0636
  0
LINE
  8
0
 10
8.32802
 20
-33.0636
 11
8.64424
 21
-33.4473
  0
LINE
  8
0
 10
8.64424
 20
-33.4473
 11
8.94281
 21
-33.8448
  0
LINE
  8
0
 10
8.94281
 20
-33.8448
 11
9.22311
 21
-34.2555
  0
LINE
  8
0
 10
9.22311
 20
-34.2555
 11
9.48457
 21
-34.6784
  0
LINE
  8
0
 10
9.48457
 20
-34.6784
 11
9.72664
 21
-35.1127
  0
LINE
  8
0
 10
9.72664
 20
-35.1127
 11
9.94885
 21
-35.5574
  0
LINE
  8
0
 10
9.94885
 20
-35.5574
 11
10.1507
 21
-36.0118
  0
LINE
  8
0
 10
10.1507
 20
-36.0118
 11
10.3319
 21
-36.4748
  0
LINE
  8
0
 10
10.3319
 20
-36.4748
 11
10.4919
 21
-36.9455
  0
LINE
  8
0
 10
10.4919
 20
-36.9455
 11
10.6305
 21
-37.423
  0
LINE
  8
0
 10
10.6305
 20
-37.423
 11
10.7474
 21
-37.9062
  0
LINE
  8
0
 10
10.7474
 20
-37.9062
 11
10.8423
 21
-38.3943
  0
LINE
  8
0
 10
10.8423
 20
-38.3943
 11
10.9151
 21
-38.8861
  0
LINE
  8
0
 10
10.9151
 20
-38.8861
 11
10.9656
 21
-39.3808
  0
LINE
  8
0
 10
10.9656
 20
-39.3808
 11
10.9937
 21
-39.8771
  0
LINE
  8
0
 10
10.9937
 20
-39.8771
 11
10.9993
 21
-40.3743
  0
LINE
  8
0
 10
10.9993
 20
-40.3743
 11
10.9824
 21
-40.8712
  0
LINE
  8
0
 10
10.9824
 20
-40.8712
 11
10.9431
 21
-41.3668
  0
LINE
  8
0
 10
10.9431
 20
-41.3668
 11
10.8815
 21
-41.8602
  0
LINE
  8
0
 10
10.8815
 20
-41.8602
 11
10.7976
 21
-42.3503
  0
LINE
  8
0
 10
10.7976
 20
-42.3503
 11
10.6917
 21
-42.836
  0
LINE
  8
0
 10
10.6917
 20
-42.836
 11
10.5639
 21
-43.3165
  0
LINE
  8
0
 10
10.5639
 20
-43.3165
 11
10.4146
 21
-43.7907
  0
LINE
  8
0
 10
10.4146
 20
-43.7907
 11
10.2439
 21
-44.2577
  0
LINE
  8
0
 10
10.2439
 20
-44.2577
 11
10.0524
 21
-44.7165
  0
LINE
  8
0
 10
10.0524
 20
-44.7165
 11
9.84026
 21
-45.1662
  0
LINE
  8
0
 10
9.84026
 20
-45.1662
 11
9.60806
 21
-45.6058
  0
LINE
  8
0
 10
9.60806
 20
-45.6058
 11
9.35623
 21
-46.0345
  0
LINE
  8
0
 10
9.35623
 20
-46.0345
 11
9.08528
 21
-46.4514
  0
LINE
  8
0
 10
9.08528
 20
-46.4514
 11
8.79578
 21
-46.8556
  0
LINE
  8
0
 10
8.79578
 20
-46.8556
 11
8.4883
 21
-47.2463
  0
LINE
  8
0
 10
8.4883
 20
-47.2463
 11
8.16348
 21
-47.6227
  0
LINE
  8
0
 10
8.16348
 20
-47.6227
 11
7.82199
 21
-47.9841
  0
LINE
  8
0
 10
7.82199
 20
-47.9841
 11
7.46452
 21
-48.3297
  0
LINE
  8
0
 10
7.46452
 20
-48.3297
 11
7.0918
 21
-48.6587
  0
LINE
  8
0
 10
7.0918
 20
-48.6587
 11
6.70459
 21
-48.9706
  0
LINE
  8
0
 10
6.70459
 20
-48.9706
 11
6.30368
 21
-49.2646
  0
LINE
  8
0
 10
6.30368
 20
-49.2646
 11
5.88989
 21
-49.5403
  0
LINE
  8
0
 10
5.88989
 20
-49.5403
 11
5.46407
 21
-49.7969
  0
LINE
  8
0
 10
5.46407
 20
-49.7969
 11
5.02708
 21
-50.0341
  0
LINE
  8
0
 10
5.02708
 20
-50.0341
 11
4.58241
 21
-50.25
  0
LINE
  8
0
 10
4.58241
 20
-50.25
 11
219.75
 21
-50.25
  0
LINE
  8
0
 10
219.75
 20
-50.25
 11
219.75
 21
9.75
  0
LINE
  8
0
 10
219.75
 20
9.75
 11
191.789
 21
9.75
  0
LINE
  8
0
 10
191.789
 20
9.75
 11
191.742
 21
9.86525
  0
LINE
  8
0
 10
191.742
 20
9.86525
 11
191.53
 21
10.3138
  0
LINE
  8
0
 10
191.53
 20
10.3138
 11
191.294
 21
10.75
  0
LINE
  8
0
 10
191.294
 20
10.75
 11
188.438
 21
15.6961
  0
LINE
  8
0
 10
188.438
 20
15.6961
 11
188.166
 21
16.1097
  0
LINE
  8
0
 10
188.166
 20
16.1097
 11
187.86
 21
16.4984
  0
LINE
  8
0
 10
187.86
 20
16.4984
 11
187.522
 21
16.8594
  0
LINE
  8
0
 10
187.522
 20
16.8594
 11
187.154
 21
17.1899
  0
LINE
  8
0
 10
187.154
 20
17.1899
 11
186.759
 21
17.4875
  0
LINE
  8
0
 10
186.759
 20
17.4875
 11
186.339
 21
17.7501
  0
LINE
  8
0
 10
186.339
 20
17.7501
 11
185.899
 21
17.9757
  0
LINE
  8
0
 10
185.899
 20
17.9757
 11
185.441
 21
18.1626
  0
LINE
  8
0
 10
185.441
 20
18.1626
 11
184.968
 21
18.3094
  0
LINE
  8
0
 10
184.968
 20
18.3094
 11
184.485
 21
18.415
  0
LINE
  8
0
 10
184.485
 20
18.415
 11
183.994
 21
18.4787
  0
LINE
  8
0
 10
183.994
 20
18.4787
 11
183.5
 21
18.5
  0
LINE
  8
0
 10
183.5
 20
18.5
 11
183.006
 21
18.4787
  0
LINE
  8
0
 10
183.006
 20
18.4787
 11
182.515
 21
18.415
  0
LINE
  8
0
 10
182.515
 20
18.415
 11
182.032
 21
18.3094
  0
LINE
  8
0
 10
182.032
 20
18.3094
 11
181.559
 21
18.1626
  0
LINE
  8
0
 10
181.559
 20
18.1626
 11
181.101
 21
17.9757
  0
LINE
  8
0
 10
181.101
 20
17.9757
 11
180.661
 21
17.7501
  0
LINE
  8
0
 10
180.661
 20
17.7501
 11
180.241
 21
17.4875
  0
LINE
  8
0
 10
180.241
 20
17.4875
 11
179.846
 21
17.1899
  0
LINE
  8
0
 10
179.846
 20
17.1899
 11
179.478
 21
16.8594
  0
LINE
  8
0
 10
179.478
 20
16.8594
 11
179.14
 21
16.4984
  0
LINE
  8
0
 10
179.14
 20
16.4984
 11
178.834
 21
16.1097
  0
LINE
  8
0
 10
178.834
 20
16.1097
 11
178.562
 21
15.6961
  0
LINE
  8
0
 10
178.562
 20
15.6961
 11
175.706
 21
10.75
  0
LINE
  8
0
 10
175.706
 20
10.75
 11
175.47
 21
10.3138
  0
LINE
  8
0
 10
175.47
 20
10.3138
 11
175.258
 21
9.86525
  0
LINE
  8
0
 10
175.258
 20
9.86525
 11
175.211
 21
9.75
  0
LINE
  8
0
 10
175.211
 20
9.75
 11
-175.211
 21
9.75
  0
LINE
  8
0
 10
-175.211
 20
9.75
 11
-175.258
 21
9.86525
  0
LINE
  8
0
 10
-175.258
 20
9.86525
 11
-175.47
 21
10.3138
  0
LINE
  8
0
 10
-175.47
 20
10.3138
 11
-175.706
 21
10.75
  0
LINE
  8
0
 10
-175.706
 20
10.75
 11
-178.562
 21
15.6961
  0
LINE
  8
0
 10
-178.562
 20
15.6961
 11
-178.834
 21
16.1097
  0
LINE
  8
0
 10
-178.834
 20
16.1097
 11
-179.14
 21
16.4984
  0
LINE
  8
0
 10
-179.14
 20
16.4984
 11
-179.478
 21
16.8594
  0
LINE
  8
0
 10
-179.478
 20
16.8594
 11
-179.846
 21
17.1899
  0
LINE
  8
0
 10
-179.846
 20
17.1899
 11
-180.241
 21
17.4875
  0
LINE
  8
0
 10
-180.241
 20
17.4875
 11
-180.661
 21
17.7501
  0
LINE
  8
0
 10
-180.661
 20
17.7501
 11
-181.101
 21
17.9757
  0
LINE
  8
0
 10
-181.101
 20
17.9757
 11
-181.559
 21
18.1626
  0
LINE
  8
0
 10
-181.559
 20
18.1626
 11
-182.032
 21
18.3094
  0
LINE
  8
0
 10
-182.032
 20
18.3094
 11
-182.515
 21
18.415
  0
LINE
  8
0
 10
-182.515
 20
18.415
 11
-183.006
 21
18.4787
  0
LINE
  8
0
 10
-183.006
 20
18.4787
 11
-183.5
 21
18.5
  0
LINE
  8
0
 10
-183.5
 20
18.5
 11
-183.994
 21
18.4787
  0
LINE
  8
0
 10
-183.994
 20
18.4787
 11
-184.485
 21
18.415
  0
LINE
  8
0
 10
-184.485
 20
18.415
 11
-184.968
 21
18.3094
  0
LINE
  8
0
 10
-184.968
 20
18.3094
 11
-185.441
 21
18.1626
  0
LINE
  8
0
 10
-185.441
 20
18.1626
 11
-185.899
 21
17.9757
  0
LINE
  8
0
 10
-185.899
 20
17.9757
 11
-186.339
 21
17.7501
  0
LINE
  8
0
 10
-186.339
 20
17.7501
 11
-186.759
 21
17.4875
  0
LINE
  8
0
 10
-186.759
 20
17.4875
 11
-187.154
 21
17.1899
  0
LINE
  8
0
 10
-187.154
 20
17.1899
 11
-187.522
 21
16.8594
  0
LINE
  8
0
 10
-187.522
 20
16.8594
 11
-187.86
 21
16.4984
  0
LINE
  8
0
 10
-187.86
 20
16.4984
 11
-188.166
 21
16.1097
  0
LINE
  8
0
 10
-188.166
 20
16.1097
 11
-188.438
 21
15.6961
  0
LINE
  8
0
 10
-188.438
 20
15.6961
 11
-191.294
 21
10.75
  0
LINE
  8
0
 10
-191.294
 20
10.75
 11
-191.53
 21
10.3138
  0
LINE
  8
0
 10
-191.53
 20
10.3138
 11
-191.742
 21
9.86525
  0
LINE
  8
0
 10
-191.742
 20
9.86525
 11
-191.789
 21
9.75
  0
LINE
  8
0
 10
-191.789
 20
9.75
 11
-219.75
 21
9.75
  0
LINE
  8
0
 10
-219.75
 20
9.75
 11
-219.75
 21
-50.25
  0
LINE
  8
0
 10
-219.75
 20
-50.25
 11
-4.58241
 21
-50.25
  0
LINE
  8
0
 10
-4.58241
 20
-50.25
 11
-5.02708
 21
-50.0341
  0
LINE
  8
0
 10
-183.988
 20
10.298
 11
-184.457
 21
10.4403
  0
LINE
  8
0
 10
-184.457
 20
10.4403
 11
-184.889
 21
10.6713
  0
LINE
  8
0
 10
-184.889
 20
10.6713
 11
-185.268
 21
10.9822
  0
LINE
  8
0
 10
-185.268
 20
10.9822
 11
-185.579
 21
11.3611
  0
LINE
  8
0
 10
-185.579
 20
11.3611
 11
-185.81
 21
11.7933
  0
LINE
  8
0
 10
-185.81
 20
11.7933
 11
-185.952
 21
12.2623
  0
LINE
  8
0
 10
-185.952
 20
12.2623
 11
-186
 21
12.75
  0
LINE
  8
0
 10
-186
 20
12.75
 11
-185.952
 21
13.2377
  0
LINE
  8
0
 10
-185.952
 20
13.2377
 11
-185.81
 21
13.7067
  0
LINE
  8
0
 10
-185.81
 20
13.7067
 11
-185.579
 21
14.1389
  0
LINE
  8
0
 10
-185.579
 20
14.1389
 11
-185.268
 21
14.5178
  0
LINE
  8
0
 10
-185.268
 20
14.5178
 11
-184.889
 21
14.8287
  0
LINE
  8
0
 10
-184.889
 20
14.8287
 11
-184.457
 21
15.0597
  0
LINE
  8
0
 10
-184.457
 20
15.0597
 11
-183.988
 21
15.202
  0
LINE
  8
0
 10
-183.988
 20
15.202
 11
-183.5
 21
15.25
  0
LINE
  8
0
 10
-183.5
 20
15.25
 11
-183.012
 21
15.202
  0
LINE
  8
0
 10
-183.012
 20
15.202
 11
-182.543
 21
15.0597
  0
LINE
  8
0
 10
-182.543
 20
15.0597
 11
-182.111
 21
14.8287
  0
LINE
  8
0
 10
-182.111
 20
14.8287
 11
-181.732
 21
14.5178
  0
LINE
  8
0
 10
-181.732
 20
14.5178
 11
-181.421
 21
14.1389
  0
LINE
  8
0
 10
-181.421
 20
14.1389
 11
-181.19
 21
13.7067
  0
LINE
  8
0
 10
-181.19
 20
13.7067
 11
-181.048
 21
13.2377
  0
LINE
  8
0
 10
-181.048
 20
13.2377
 11
-181
 21
12.75
  0
LINE
  8
0
 10
-181
 20
12.75
 11
-181.048
 21
12.2623
  0
LINE
  8
0
 10
-181.048
 20
12.2623
 11
-181.19
 21
11.7933
  0
LINE
  8
0
 10
-181.19
 20
11.7933
 11
-181.421
 21
11.3611
  0
LINE
  8
0
 10
-181.421
 20
11.3611
 11
-181.732
 21
10.9822
  0
LINE
  8
0
 10
-181.732
 20
10.9822
 11
-182.111
 21
10.6713
  0
LINE
  8
0
 10
-182.111
 20
10.6713
 11
-182.543
 21
10.4403
  0
LINE
  8
0
 10
-182.543
 20
10.4403
 11
-183.012
 21
10.298
  0
LINE
  8
0
 10
-183.012
 20
10.298
 11
-183.5
 21
10.25
  0
LINE
  8
0
 10
-183.5
 20
10.25
 11
-183.988
 21
10.298
  0
LINE
  8
0
 10
183.012
 20
10.298
 11
182.543
 21
10.4403
  0
LINE
  8
0
 10
182.543
 20
10.4403
 11
182.111
 21
10.6713
  0
LINE
  8
0
 10
182.111
 20
10.6713
 11
181.732
 21
10.9822
  0
LINE
  8
0
 10
181.732
 20
10.9822
 11
181.421
 21
11.3611
  0
LINE
  8
0
 10
181.421
 20
11.3611
 11
181.19
 21
11.7933
  0
LINE
  8
0
 10
181.19
 20
11.7933
 11
181.048
 21
12.2623
  0
LINE
  8
0
 10
181.048
 20
12.2623
 11
181
 21
12.75
  0
LINE
  8
0
 10
181
 20
12.75
 11
181.048
 21
13.2377
  0
LINE
  8
0
 10
181.048
 20
13.2377
 11
181.19
 21
13.7067
  0
LINE
  8
0
 10
181.19
 20
13.7067
 11
181.421
 21
14.1389
  0
LINE
  8
0
 10
181.421
 20
14.1389
 11
181.732
 21
14.5178
  0
LINE
  8
0
 10
181.732
 20
14.5178
 11
182.111
 21
14.8287
  0
LINE
  8
0
 10
182.111
 20
14.8287
 11
182.543
 21
15.0597
  0
LINE
  8
0
 10
182.543
 20
15.0597
 11
183.012
 21
15.202
  0
LINE
  8
0
 10
183.012
 20
15.202
 11
183.5
 21
15.25
  0
LINE
  8
0
 10
183.5
 20
15.25
 11
183.988
 21
15.202
  0
LINE
  8
0
 10
183.988
 20
15.202
 11
184.457
 21
15.0597
  0
LINE
  8
0
 10
184.457
 20
15.0597
 11
184.889
 21
14.8287
  0
LINE
  8
0
 10
184.889
 20
14.8287
 11
185.268
 21
14.5178
  0
LINE
  8
0
 10
185.268
 20
14.5178
 11
185.579
 21
14.1389
  0
LINE
  8
0
 10
185.579
 20
14.1389
 11
185.81
 21
13.7067
  0
LINE
  8
0
 10
185.81
 20
13.7067
 11
185.952
 21
13.2377
  0
LINE
  8
0
 10
185.952
 20
13.2377
 11
186
 21
12.75
  0
LINE
  8
0
 10
186
 20
12.75
 11
185.952
 21
12.2623
  0
LINE
  8
0
 10
185.952
 20
12.2623
 11
185.81
 21
11.7933
  0
LINE
  8
0
 10
185.81
 20
11.7933
 11
185.579
 21
11.3611
  0
LINE
  8
0
 10
185.579
 20
11.3611
 11
185.268
 21
10.9822
  0
LINE
  8
0
 10
185.268
 20
10.9822
 11
184.889
 21
10.6713
  0
LINE
  8
0
 10
184.889
 20
10.6713
 11
184.457
 21
10.4403
  0
LINE
  8
0
 10
184.457
 20
10.4403
 11
183.988
 21
10.298
  0
LINE
  8
0
 10
183.988
 20
10.298
 11
183.5
 21
10.25
  0
LINE
  8
0
 10
183.5
 20
10.25
 11
183.012
 21
10.298
  0
LINE
  8
0
 10
117.55
 20
-3.2
 11
117.55
 21
3.2
  0
LINE
  8
0
 10
117.55
 20
3.2
 11
132.45
 21
3.2
  0
LINE
  8
0
 10
132.45
 20
3.2
 11
132.45
 21
-3.2
  0
LINE
  8
0
 10
132.45
 20
-3.2
 11
117.55
 21
-3.2
  0
LINE
  8
0
 10
-102.45
 20
-3.2
 11
-102.45
 21
3.2
  0
LINE
  8
0
 10
-102.45
 20
3.2
 11
-87.55
 21
3.2
  0
LINE
  8
0
 10
-87.55
 20
3.2
 11
-87.55
 21
-3.2
  0
LINE
  8
0
 10
-87.55
 20
-3.2
 11
-102.45
 21
-3.2
  0
LINE
  8
0
 10
87.55
 20
-3.2
 11
87.55
 21
3.2
  0
LINE
  8
0
 10
87.55
 20
3.2
 11
102.45
 21
3.2
  0
LINE
  8
0
 10
102.45
 20
3.2
 11
102.45
 21
-3.2
  0
LINE
  8
0
 10
102.45
 20
-3.2
 11
87.55
 21
-3.2
  0
LINE
  8
0
 10
-132.45
 20
-3.2
 11
-132.45
 21
3.2
  0
LINE
  8
0
 10
-132.45
 20
3.2
 11
-117.55
 21
3.2
  0
LINE
  8
0
 10
-117.55
 20
3.2
 11
-117.55
 21
-3.2
  0
LINE
  8
0
 10
-117.55
 20
-3.2
 11
-132.45
 21
-3.2
  0
LINE
  8
0
 10
-110
 20
-2.49998
 11
-110.488
 21
-2.45195
  0
LINE
  8
0
 10
-110.488
 20
-2.45195
 11
-110.957
 21
-2.30969
  0
LINE
  8
0
 10
-110.957
 20
-2.30969
 11
-111.389
 21
-2.07866
  0
LINE
  8
0
 10
-111.389
 20
-2.07866
 11
-111.768
 21
-1.76776
  0
LINE
  8
0
 10
-111.768
 20
-1.76776
 11
-112.079
 21
-1.38892
  0
LINE
  8
0
 10
-112.079
 20
-1.38892
 11
-112.31
 21
-0.956696
  0
LINE
  8
0
 10
-112.31
 20
-0.956696
 11
-112.452
 21
-0.487717
  0
LINE
  8
0
 10
-112.452
 20
-0.487717
 11
-112.5
 21
0
  0
LINE
  8
0
 10
-112.5
 20
0
 11
-112.452
 21
0.487717
  0
LINE
  8
0
 10
-112.452
 20
0.487717
 11
-112.31
 21
0.956696
  0
LINE
  8
0
 10
-112.31
 20
0.956696
 11
-112.079
 21
1.38892
  0
LINE
  8
0
 10
-112.079
 20
1.38892
 11
-111.768
 21
1.76776
  0
LINE
  8
0
 10
-111.768
 20
1.76776
 11
-111.389
 21
2.07866
  0
LINE
  8
0
 10
-111.389
 20
2.07866
 11
-110.957
 21
2.30969
  0
LINE
  8
0
 10
-110.957
 20
2.30969
 11
-110.488
 21
2.45195
  0
LINE
  8
0
 10
-110.488
 20
2.45195
 11
-110
 21
2.49998
  0
LINE
  8
0
 10
-110
 20
2.49998
 11
-109.512
 21
2.45195
  0
LINE
  8
0
 10
-109.512
 20
2.45195
 11
-109.043
 21
2.30969
  0
LINE
  8
0
 10
-109.043
 20
2.30969
 11
-108.611
 21
2.07866
  0
LINE
  8
0
 10
-108.611
 20
2.07866
 11
-108.232
 21
1.76776
  0
LINE
  8
0
 10
-108.232
 20
1.76776
 11
-107.921
 21
1.38892
  0
LINE
  8
0
 10
-107.921
 20
1.38892
 11
-107.69
 21
0.956696
  0
LINE
  8
0
 10
-107.69
 20
0.956696
 11
-107.548
 21
0.487717
  0
LINE
  8
0
 10
-107.548
 20
0.487717
 11
-107.5
 21
0
  0
LINE
  8
0
 10
-107.5
 20
0
 11
-107.548
 21
-0.487717
  0
LINE
  8
0
 10
-107.548
 20
-0.487717
 11
-107.69
 21
-0.956696
  0
LINE
  8
0
 10
-107.69
 20
-0.956696
 11
-107.921
 21
-1.38892
  0
LINE
  8
0
 10
-107.921
 20
-1.38892
 11
-108.232
 21
-1.76776
  0
LINE
  8
0
 10
-108.232
 20
-1.76776
 11
-108.611
 21
-2.07866
  0
LINE
  8
0
 10
-108.611
 20
-2.07866
 11
-109.043
 21
-2.30969
  0
LINE
  8
0
 10
-109.043
 20
-2.30969
 11
-109.512
 21
-2.45195
  0
LINE
  8
0
 10
-109.512
 20
-2.45195
 11
-110
 21
-2.49998
  0
LINE
  8
0
 10
110
 20
-2.49998
 11
109.512
 21
-2.45195
  0
LINE
  8
0
 10
109.512
 20
-2.45195
 11
109.043
 21
-2.30969
  0
LINE
  8
0
 10
109.043
 20
-2.30969
 11
108.611
 21
-2.07866
  0
LINE
  8
0
 10
108.611
 20
-2.07866
 11
108.232
 21
-1.76776
  0
LINE
  8
0
 10
108.232
 20
-1.76776
 11
107.921
 21
-1.38892
  0
LINE
  8
0
 10
107.921
 20
-1.38892
 11
107.69
 21
-0.956696
  0
LINE
  8
0
 10
107.69
 20
-0.956696
 11
107.548
 21
-0.487717
  0
LINE
  8
0
 10
107.548
 20
-0.487717
 11
107.5
 21
0
  0
LINE
  8
0
 10
107.5
 20
0
 11
107.548
 21
0.487717
  0
LINE
  8
0
 10
107.548
 20
0.487717
 11
107.69
 21
0.956696
  0
LINE
  8
0
 10
107.69
 20
0.956696
 11
107.921
 21
1.38892
  0
LINE
  8
0
 10
107.921
 20
1.38892
 11
108.232
 21
1.76776
  0
LINE
  8
0
 10
108.232
 20
1.76776
 11
108.611
 21
2.07866
  0
LINE
  8
0
 10
108.611
 20
2.07866
 11
109.043
 21
2.30969
  0
LINE
  8
0
 10
109.043
 20
2.30969
 11
109.512
 21
2.45195
  0
LINE
  8
0
 10
109.512
 20
2.45195
 11
110
 21
2.49998
  0
LINE
  8
0
 10
110
 20
2.49998
 11
110.488
 21
2.45195
  0
LINE
  8
0
 10
110.488
 20
2.45195
 11
110.957
 21
2.30969
  0
LINE
  8
0
 10
110.957
 20
2.30969
 11
111.389
 21
2.07866
  0
LINE
  8
0
 10
111.389
 20
2.07866
 11
111.768
 21
1.76776
  0
LINE
  8
0
 10
111.768
 20
1.76776
 11
112.079
 21
1.38892
  0
LINE
  8
0
 10
112.079
 20
1.38892
 11
112.31
 21
0.956696
  0
LINE
  8
0
 10
112.31
 20
0.956696
 11
112.452
 21
0.487717
  0
LINE
  8
0
 10
112.452
 20
0.487717
 11
112.5
 21
0
  0
LINE
  8
0
 10
112.5
 20
0
 11
112.452
 21
-0.487717
  0
LINE
  8
0
 10
112.452
 20
-0.487717
 11
112.31
 21
-0.956696
  0
LINE
  8
0
 10
112.31
 20
-0.956696
 11
112.079
 21
-1.38892
  0
LINE
  8
0
 10
112.079
 20
-1.38892
 11
111.768
 21
-1.76776
  0
LINE
  8
0
 10
111.768
 20
-1.76776
 11
111.389
 21
-2.07866
  0
LINE
  8
0
 10
111.389
 20
-2.07866
 11
110.957
 21
-2.30969
  0
LINE
  8
0
 10
110.957
 20
-2.30969
 11
110.488
 21
-2.45195
  0
LINE
  8
0
 10
110.488
 20
-2.45195
 11
110
 21
-2.49998
  0
LINE
  8
0
 10
210.05
 20
-12.7
 11
210.05
 21
2.2
  0
LINE
  8
0
 10
210.05
 20
2.2
 11
216.45
 21
2.2
  0
LINE
  8
0
 10
216.45
 20
2.2
 11
216.45
 21
-12.7
  0
LINE
  8
0
 10
216.45
 20
-12.7
 11
210.05
 21
-12.7
  0
LINE
  8
0
 10
-216.45
 20
-12.7
 11
-216.45
 21
2.2
  0
LINE
  8
0
 10
-216.45
 20
2.2
 11
-210.05
 21
2.2
  0
LINE
  8
0
 10
-210.05
 20
2.2
 11
-210.05
 21
-12.7
  0
LINE
  8
0
 10
-210.05
 20
-12.7
 11
-216.45
 21
-12.7
  0
LINE
  8
0
 10
199.512
 20
-12.202
 11
199.043
 21
-12.0597
  0
LINE
  8
0
 10
199.043
 20
-12.0597
 11
198.611
 21
-11.8287
  0
LINE
  8
0
 10
198.611
 20
-11.8287
 11
198.232
 21
-11.5178
  0
LINE
  8
0
 10
198.232
 20
-11.5178
 11
197.921
 21
-11.1389
  0
LINE
  8
0
 10
197.921
 20
-11.1389
 11
197.69
 21
-10.7067
  0
LINE
  8
0
 10
197.69
 20
-10.7067
 11
197.548
 21
-10.2377
  0
LINE
  8
0
 10
197.548
 20
-10.2377
 11
197.5
 21
-9.75
  0
LINE
  8
0
 10
197.5
 20
-9.75
 11
197.548
 21
-9.26227
  0
LINE
  8
0
 10
197.548
 20
-9.26227
 11
197.69
 21
-8.79329
  0
LINE
  8
0
 10
197.69
 20
-8.79329
 11
197.921
 21
-8.36107
  0
LINE
  8
0
 10
197.921
 20
-8.36107
 11
198.232
 21
-7.98222
  0
LINE
  8
0
 10
198.232
 20
-7.98222
 11
198.611
 21
-7.67133
  0
LINE
  8
0
 10
198.611
 20
-7.67133
 11
199.043
 21
-7.44029
  0
LINE
  8
0
 10
199.043
 20
-7.44029
 11
199.512
 21
-7.29803
  0
LINE
  8
0
 10
199.512
 20
-7.29803
 11
200
 21
-7.25
  0
LINE
  8
0
 10
200
 20
-7.25
 11
200.488
 21
-7.29803
  0
LINE
  8
0
 10
200.488
 20
-7.29803
 11
200.957
 21
-7.44029
  0
LINE
  8
0
 10
200.957
 20
-7.44029
 11
201.389
 21
-7.67133
  0
LINE
  8
0
 10
201.389
 20
-7.67133
 11
201.768
 21
-7.98222
  0
LINE
  8
0
 10
201.768
 20
-7.98222
 11
202.079
 21
-8.36107
  0
LINE
  8
0
 10
202.079
 20
-8.36107
 11
202.31
 21
-8.79329
  0
LINE
  8
0
 10
202.31
 20
-8.79329
 11
202.452
 21
-9.26227
  0
LINE
  8
0
 10
202.452
 20
-9.26227
 11
202.5
 21
-9.75
  0
LINE
  8
0
 10
202.5
 20
-9.75
 11
202.452
 21
-10.2377
  0
LINE
  8
0
 10
202.452
 20
-10.2377
 11
202.31
 21
-10.7067
  0
LINE
  8
0
 10
202.31
 20
-10.7067
 11
202.079
 21
-11.1389
  0
LINE
  8
0
 10
202.079
 20
-11.1389
 11
201.768
 21
-11.5178
  0
LINE
  8
0
 10
201.768
 20
-11.5178
 11
201.389
 21
-11.8287
  0
LINE
  8
0
 10
201.389
 20
-11.8287
 11
200.957
 21
-12.0597
  0
LINE
  8
0
 10
200.957
 20
-12.0597
 11
200.488
 21
-12.202
  0
LINE
  8
0
 10
200.488
 20
-12.202
 11
200
 21
-12.25
  0
LINE
  8
0
 10
200
 20
-12.25
 11
199.512
 21
-12.202
  0
LINE
  8
0
 10
-200.488
 20
-12.202
 11
-200.957
 21
-12.0597
  0
LINE
  8
0
 10
-200.957
 20
-12.0597
 11
-201.389
 21
-11.8287
  0
LINE
  8
0
 10
-201.389
 20
-11.8287
 11
-201.768
 21
-11.5178
  0
LINE
  8
0
 10
-201.768
 20
-11.5178
 11
-202.079
 21
-11.1389
  0
LINE
  8
0
 10
-202.079
 20
-11.1389
 11
-202.31
 21
-10.7067
  0
LINE
  8
0
 10
-202.31
 20
-10.7067
 11
-202.452
 21
-10.2377
  0
LINE
  8
0
 10
-202.452
 20
-10.2377
 11
-202.5
 21
-9.75
  0
LINE
  8
0
 10
-202.5
 20
-9.75
 11
-202.452
 21
-9.26227
  0
LINE
  8
0
 10
-202.452
 20
-9.26227
 11
-202.31
 21
-8.79329
  0
LINE
  8
0
 10
-202.31
 20
-8.79329
 11
-202.079
 21
-8.36107
  0
LINE
  8
0
 10
-202.079
 20
-8.36107
 11
-201.768
 21
-7.98222
  0
LINE
  8
0
 10
-201.768
 20
-7.98222
 11
-201.389
 21
-7.67133
  0
LINE
  8
0
 10
-201.389
 20
-7.67133
 11
-200.957
 21
-7.44029
  0
LINE
  8
0
 10
-200.957
 20
-7.44029
 11
-200.488
 21
-7.29803
  0
LINE
  8
0
 10
-200.488
 20
-7.29803
 11
-200
 21
-7.25
  0
LINE
  8
0
 10
-200
 20
-7.25
 11
-199.512
 21
-7.29803
  0
LINE
  8
0
 10
-199.512
 20
-7.29803
 11
-199.043
 21
-7.44029
  0
LINE
  8
0
 10
-199.043
 20
-7.44029
 11
-198.611
 21
-7.67133
  0
LINE
  8
0
 10
-198.611
 20
-7.67133
 11
-198.232
 21
-7.98222
  0
LINE
  8
0
 10
-198.232
 20
-7.98222
 11
-197.921
 21
-8.36107
  0
LINE
  8
0
 10
-197.921
 20
-8.36107
 11
-197.69
 21
-8.79329
  0
LINE
  8
0
 10
-197.69
 20
-8.79329
 11
-197.548
 21
-9.26227
  0
LINE
  8
0
 10
-197.548
 20
-9.26227
 11
-197.5
 21
-9.75
  0
LINE
  8
0
 10
-197.5
 20
-9.75
 11
-197.548
 21
-10.2377
  0
LINE
  8
0
 10
-197.548
 20
-10.2377
 11
-197.69
 21
-10.7067
  0
LINE
  8
0
 10
-197.69
 20
-10.7067
 11
-197.921
 21
-11.1389
  0
LINE
  8
0
 10
-197.921
 20
-11.1389
 11
-198.232
 21
-11.5178
  0
LINE
  8
0
 10
-198.232
 20
-11.5178
 11
-198.611
 21
-11.8287
  0
LINE
  8
0
 10
-198.611
 20
-11.8287
 11
-199.043
 21
-12.0597
  0
LINE
  8
0
 10
-199.043
 20
-12.0597
 11
-199.512
 21
-12.202
  0
LINE
  8
0
 10
-199.512
 20
-12.202
 11
-200
 21
-12.25
  0
LINE
  8
0
 10
-200
 20
-12.25
 11
-200.488
 21
-12.202
  0
LINE
  8
0
 10
212.762
 20
-22.702
 11
212.293
 21
-22.5597
  0
LINE
  8
0
 10
212.293
 20
-22.5597
 11
211.861
 21
-22.3287
  0
LINE
  8
0
 10
211.861
 20
-22.3287
 11
211.482
 21
-22.0178
  0
LINE
  8
0
 10
211.482
 20
-22.0178
 11
211.171
 21
-21.6389
  0
LINE
  8
0
 10
211.171
 20
-21.6389
 11
210.94
 21
-21.2067
  0
LINE
  8
0
 10
210.94
 20
-21.2067
 11
210.798
 21
-20.7377
  0
LINE
  8
0
 10
210.798
 20
-20.7377
 11
210.75
 21
-20.25
  0
LINE
  8
0
 10
210.75
 20
-20.25
 11
210.798
 21
-19.7623
  0
LINE
  8
0
 10
210.798
 20
-19.7623
 11
210.94
 21
-19.2933
  0
LINE
  8
0
 10
210.94
 20
-19.2933
 11
211.171
 21
-18.8611
  0
LINE
  8
0
 10
211.171
 20
-18.8611
 11
211.482
 21
-18.4822
  0
LINE
  8
0
 10
211.482
 20
-18.4822
 11
211.861
 21
-18.1713
  0
LINE
  8
0
 10
211.861
 20
-18.1713
 11
212.293
 21
-17.9403
  0
LINE
  8
0
 10
212.293
 20
-17.9403
 11
212.762
 21
-17.798
  0
LINE
  8
0
 10
212.762
 20
-17.798
 11
213.25
 21
-17.75
  0
LINE
  8
0
 10
213.25
 20
-17.75
 11
213.738
 21
-17.798
  0
LINE
  8
0
 10
213.738
 20
-17.798
 11
214.207
 21
-17.9403
  0
LINE
  8
0
 10
214.207
 20
-17.9403
 11
214.639
 21
-18.1713
  0
LINE
  8
0
 10
214.639
 20
-18.1713
 11
215.018
 21
-18.4822
  0
LINE
  8
0
 10
215.018
 20
-18.4822
 11
215.329
 21
-18.8611
  0
LINE
  8
0
 10
215.329
 20
-18.8611
 11
215.56
 21
-19.2933
  0
LINE
  8
0
 10
215.56
 20
-19.2933
 11
215.702
 21
-19.7623
  0
LINE
  8
0
 10
215.702
 20
-19.7623
 11
215.75
 21
-20.25
  0
LINE
  8
0
 10
215.75
 20
-20.25
 11
215.702
 21
-20.7377
  0
LINE
  8
0
 10
215.702
 20
-20.7377
 11
215.56
 21
-21.2067
  0
LINE
  8
0
 10
215.56
 20
-21.2067
 11
215.329
 21
-21.6389
  0
LINE
  8
0
 10
215.329
 20
-21.6389
 11
215.018
 21
-22.0178
  0
LINE
  8
0
 10
215.018
 20
-22.0178
 11
214.639
 21
-22.3287
  0
LINE
  8
0
 10
214.639
 20
-22.3287
 11
214.207
 21
-22.5597
  0
LINE
  8
0
 10
214.207
 20
-22.5597
 11
213.738
 21
-22.702
  0
LINE
  8
0
 10
213.738
 20
-22.702
 11
213.25
 21
-22.75
  0
LINE
  8
0
 10
213.25
 20
-22.75
 11
212.762
 21
-22.702
  0
LINE
  8
0
 10
-213.738
 20
-22.702
 11
-214.207
 21
-22.5597
  0
LINE
  8
0
 10
-214.207
 20
-22.5597
 11
-214.639
 21
-22.3287
  0
LINE
  8
0
 10
-214.639
 20
-22.3287
 11
-215.018
 21
-22.0178
  0
LINE
  8
0
 10
-215.018
 20
-22.0178
 11
-215.329
 21
-21.6389
  0
LINE
  8
0
 10
-215.329
 20
-21.6389
 11
-215.56
 21
-21.2067
  0
LINE
  8
0
 10
-215.56
 20
-21.2067
 11
-215.702
 21
-20.7377
  0
LINE
  8
0
 10
-215.702
 20
-20.7377
 11
-215.75
 21
-20.25
  0
LINE
  8
0
 10
-215.75
 20
-20.25
 11
-215.702
 21
-19.7623
  0
LINE
  8
0
 10
-215.702
 20
-19.7623
 11
-215.56
 21
-19.2933
  0
LINE
  8
0
 10
-215.56
 20
-19.2933
 11
-215.329
 21
-18.8611
  0
LINE
  8
0
 10
-215.329
 20
-18.8611
 11
-215.018
 21
-18.4822
  0
LINE
  8
0
 10
-215.018
 20
-18.4822
 11
-214.639
 21
-18.1713
  0
LINE
  8
0
 10
-214.639
 20
-18.1713
 11
-214.207
 21
-17.9403
  0
LINE
  8
0
 10
-214.207
 20
-17.9403
 11
-213.738
 21
-17.798
  0
LINE
  8
0
 10
-213.738
 20
-17.798
 11
-213.25
 21
-17.75
  0
LINE
  8
0
 10
-213.25
 20
-17.75
 11
-212.762
 21
-17.798
  0
LINE
  8
0
 10
-212.762
 20
-17.798
 11
-212.293
 21
-17.9403
  0
LINE
  8
0
 10
-212.293
 20
-17.9403
 11
-211.861
 21
-18.1713
  0
LINE
  8
0
 10
-211.861
 20
-18.1713
 11
-211.482
 21
-18.4822
  0
LINE
  8
0
 10
-211.482
 20
-18.4822
 11
-211.171
 21
-18.8611
  0
LINE
  8
0
 10
-211.171
 20
-18.8611
 11
-210.94
 21
-19.2933
  0
LINE
  8
0
 10
-210.94
 20
-19.2933
 11
-210.798
 21
-19.7623
  0
LINE
  8
0
 10
-210.798
 20
-19.7623
 11
-210.75
 21
-20.25
  0
LINE
  8
0
 10
-210.75
 20
-20.25
 11
-210.798
 21
-20.7377
  0
LINE
  8
0
 10
-210.798
 20
-20.7377
 11
-210.94
 21
-21.2067
  0
LINE
  8
0
 10
-210.94
 20
-21.2067
 11
-211.171
 21
-21.6389
  0
LINE
  8
0
 10
-211.171
 20
-21.6389
 11
-211.482
 21
-22.0178
  0
LINE
  8
0
 10
-211.482
 20
-22.0178
 11
-211.861
 21
-22.3287
  0
LINE
  8
0
 10
-211.861
 20
-22.3287
 11
-212.293
 21
-22.5597
  0
LINE
  8
0
 10
-212.293
 20
-22.5597
 11
-212.762
 21
-22.702
  0
LINE
  8
0
 10
-212.762
 20
-22.702
 11
-213.25
 21
-22.75
  0
LINE
  8
0
 10
-213.25
 20
-22.75
 11
-213.738
 21
-22.702
  0
LINE
  8
0
 10
87.55
 20
-29.7
 11
87.55
 21
-23.3
  0
LINE
  8
0
 10
87.55
 20
-23.3
 11
102.45
 21
-23.3
  0
LINE
  8
0
 10
102.45
 20
-23.3
 11
102.45
 21
-29.7
  0
LINE
  8
0
 10
102.45
 20
-29.7
 11
87.55
 21
-29.7
  0
LINE
  8
0
 10
117.55
 20
-29.7
 11
117.55
 21
-23.3
  0
LINE
  8
0
 10
117.55
 20
-23.3
 11
132.45
 21
-23.3
  0
LINE
  8
0
 10
132.45
 20
-23.3
 11
132.45
 21
-29.7
  0
LINE
  8
0
 10
132.45
 20
-29.7
 11
117.55
 21
-29.7
  0
LINE
  8
0
 10
-132.45
 20
-29.7
 11
-132.45
 21
-23.3
  0
LINE
  8
0
 10
-132.45
 20
-23.3
 11
-117.55
 21
-23.3
  0
LINE
  8
0
 10
-117.55
 20
-23.3
 11
-117.55
 21
-29.7
  0
LINE
  8
0
 10
-117.55
 20
-29.7
 11
-132.45
 21
-29.7
  0
LINE
  8
0
 10
-102.45
 20
-29.7
 11
-102.45
 21
-23.3
  0
LINE
  8
0
 10
-102.45
 20
-23.3
 11
-87.55
 21
-23.3
  0
LINE
  8
0
 10
-87.55
 20
-23.3
 11
-87.55
 21
-29.7
  0
LINE
  8
0
 10
-87.55
 20
-29.7
 11
-102.45
 21
-29.7
  0
LINE
  8
0
 10
-110
 20
-29
 11
-110.488
 21
-28.952
  0
LINE
  8
0
 10
-110.488
 20
-28.952
 11
-110.957
 21
-28.8097
  0
LINE
  8
0
 10
-110.957
 20
-28.8097
 11
-111.389
 21
-28.5787
  0
LINE
  8
0
 10
-111.389
 20
-28.5787
 11
-111.768
 21
-28.2678
  0
LINE
  8
0
 10
-111.768
 20
-28.2678
 11
-112.079
 21
-27.8889
  0
LINE
  8
0
 10
-112.079
 20
-27.8889
 11
-112.31
 21
-27.4567
  0
LINE
  8
0
 10
-112.31
 20
-27.4567
 11
-112.452
 21
-26.9877
  0
LINE
  8
0
 10
-112.452
 20
-26.9877
 11
-112.5
 21
-26.5
  0
LINE
  8
0
 10
-112.5
 20
-26.5
 11
-112.452
 21
-26.0123
  0
LINE
  8
0
 10
-112.452
 20
-26.0123
 11
-112.31
 21
-25.5433
  0
LINE
  8
0
 10
-112.31
 20
-25.5433
 11
-112.079
 21
-25.1111
  0
LINE
  8
0
 10
-112.079
 20
-25.1111
 11
-111.768
 21
-24.7322
  0
LINE
  8
0
 10
-111.768
 20
-24.7322
 11
-111.389
 21
-24.4213
  0
LINE
  8
0
 10
-111.389
 20
-24.4213
 11
-110.957
 21
-24.1903
  0
LINE
  8
0
 10
-110.957
 20
-24.1903
 11
-110.488
 21
-24.048
  0
LINE
  8
0
 10
-110.488
 20
-24.048
 11
-110
 21
-24
  0
LINE
  8
0
 10
-110
 20
-24
 11
-109.512
 21
-24.048
  0
LINE
  8
0
 10
-109.512
 20
-24.048
 11
-109.043
 21
-24.1903
  0
LINE
  8
0
 10
-109.043
 20
-24.1903
 11
-108.611
 21
-24.4213
  0
LINE
  8
0
 10
-108.611
 20
-24.4213
 11
-108.232
 21
-24.7322
  0
LINE
  8
0
 10
-108.232
 20
-24.7322
 11
-107.921
 21
-25.1111
  0
LINE
  8
0
 10
-107.921
 20
-25.1111
 11
-107.69
 21
-25.5433
  0
LINE
  8
0
 10
-107.69
 20
-25.5433
 11
-107.548
 21
-26.0123
  0
LINE
  8
0
 10
-107.548
 20
-26.0123
 11
-107.5
 21
-26.5
  0
LINE
  8
0
 10
-107.5
 20
-26.5
 11
-107.548
 21
-26.9877
  0
LINE
  8
0
 10
-107.548
 20
-26.9877
 11
-107.69
 21
-27.4567
  0
LINE
  8
0
 10
-107.69
 20
-27.4567
 11
-107.921
 21
-27.8889
  0
LINE
  8
0
 10
-107.921
 20
-27.8889
 11
-108.232
 21
-28.2678
  0
LINE
  8
0
 10
-108.232
 20
-28.2678
 11
-108.611
 21
-28.5787
  0
LINE
  8
0
 10
-108.611
 20
-28.5787
 11
-109.043
 21
-28.8097
  0
LINE
  8
0
 10
-109.043
 20
-28.8097
 11
-109.512
 21
-28.952
  0
LINE
  8
0
 10
-109.512
 20
-28.952
 11
-110
 21
-29
  0
LINE
  8
0
 10
110
 20
-29
 11
109.512
 21
-28.952
  0
LINE
  8
0
 10
109.512
 20
-28.952
 11
109.043
 21
-28.8097
  0
LINE
  8
0
 10
109.043
 20
-28.8097
 11
108.611
 21
-28.5787
  0
LINE
  8
0
 10
108.611
 20
-28.5787
 11
108.232
 21
-28.2678
  0
LINE
  8
0
 10
108.232
 20
-28.2678
 11
107.921
 21
-27.8889
  0
LINE
  8
0
 10
107.921
 20
-27.8889
 11
107.69
 21
-27.4567
  0
LINE
  8
0
 10
107.69
 20
-27.4567
 11
107.548
 21
-26.9877
  0
LINE
  8
0
 10
107.548
 20
-26.9877
 11
107.5
 21
-26.5
  0
LINE
  8
0
 10
107.5
 20
-26.5
 11
107.548
 21
-26.0123
  0
LINE
  8
0
 10
107.548
 20
-26.0123
 11
107.69
 21
-25.5433
  0
LINE
  8
0
 10
107.69
 20
-25.5433
 11
107.921
 21
-25.1111
  0
LINE
  8
0
 10
107.921
 20
-25.1111
 11
108.232
 21
-24.7322
  0
LINE
  8
0
 10
108.232
 20
-24.7322
 11
108.611
 21
-24.4213
  0
LINE
  8
0
 10
108.611
 20
-24.4213
 11
109.043
 21
-24.1903
  0
LINE
  8
0
 10
109.043
 20
-24.1903
 11
109.512
 21
-24.048
  0
LINE
  8
0
 10
109.512
 20
-24.048
 11
110
 21
-24
  0
LINE
  8
0
 10
110
 20
-24
 11
110.488
 21
-24.048
  0
LINE
  8
0
 10
110.488
 20
-24.048
 11
110.957
 21
-24.1903
  0
LINE
  8
0
 10
110.957
 20
-24.1903
 11
111.389
 21
-24.4213
  0
LINE
  8
0
 10
111.389
 20
-24.4213
 11
111.768
 21
-24.7322
  0
LINE
  8
0
 10
111.768
 20
-24.7322
 11
112.079
 21
-25.1111
  0
LINE
  8
0
 10
112.079
 20
-25.1111
 11
112.31
 21
-25.5433
  0
LINE
  8
0
 10
112.31
 20
-25.5433
 11
112.452
 21
-26.0123
  0
LINE
  8
0
 10
112.452
 20
-26.0123
 11
112.5
 21
-26.5
  0
LINE
  8
0
 10
112.5
 20
-26.5
 11
112.452
 21
-26.9877
  0
LINE
  8
0
 10
112.452
 20
-26.9877
 11
112.31
 21
-27.4567
  0
LINE
  8
0
 10
112.31
 20
-27.4567
 11
112.079
 21
-27.8889
  0
LINE
  8
0
 10
112.079
 20
-27.8889
 11
111.768
 21
-28.2678
  0
LINE
  8
0
 10
111.768
 20
-28.2678
 11
111.389
 21
-28.5787
  0
LINE
  8
0
 10
111.389
 20
-28.5787
 11
110.957
 21
-28.8097
  0
LINE
  8
0
 10
110.957
 20
-28.8097
 11
110.488
 21
-28.952
  0
LINE
  8
0
 10
110.488
 20
-28.952
 11
110
 21
-29
  0
LINE
  8
0
 10
210.05
 20
-42.7
 11
210.05
 21
-27.8
  0
LINE
  8
0
 10
210.05
 20
-27.8
 11
216.45
 21
-27.8
  0
LINE
  8
0
 10
216.45
 20
-27.8
 11
216.45
 21
-42.7
  0
LINE
  8
0
 10
216.45
 20
-42.7
 11
210.05
 21
-42.7
  0
LINE
  8
0
 10
-216.45
 20
-42.7
 11
-216.45
 21
-27.8
  0
LINE
  8
0
 10
-216.45
 20
-27.8
 11
-210.05
 21
-27.8
  0
LINE
  8
0
 10
-210.05
 20
-27.8
 11
-210.05
 21
-42.7
  0
LINE
  8
0
 10
-210.05
 20
-42.7
 11
-216.45
 21
-42.7
  0
LINE
  8
0
 10
-200.488
 20
-39.702
 11
-200.957
 21
-39.5597
  0
LINE
  8
0
 10
-200.957
 20
-39.5597
 11
-201.389
 21
-39.3287
  0
LINE
  8
0
 10
-201.389
 20
-39.3287
 11
-201.768
 21
-39.0178
  0
LINE
  8
0
 10
-201.768
 20
-39.0178
 11
-202.079
 21
-38.6389
  0
LINE
  8
0
 10
-202.079
 20
-38.6389
 11
-202.31
 21
-38.2067
  0
LINE
  8
0
 10
-202.31
 20
-38.2067
 11
-202.452
 21
-37.7377
  0
LINE
  8
0
 10
-202.452
 20
-37.7377
 11
-202.5
 21
-37.25
  0
LINE
  8
0
 10
-202.5
 20
-37.25
 11
-202.452
 21
-36.7623
  0
LINE
  8
0
 10
-202.452
 20
-36.7623
 11
-202.31
 21
-36.2933
  0
LINE
  8
0
 10
-202.31
 20
-36.2933
 11
-202.079
 21
-35.8611
  0
LINE
  8
0
 10
-202.079
 20
-35.8611
 11
-201.768
 21
-35.4822
  0
LINE
  8
0
 10
-201.768
 20
-35.4822
 11
-201.389
 21
-35.1713
  0
LINE
  8
0
 10
-201.389
 20
-35.1713
 11
-200.957
 21
-34.9403
  0
LINE
  8
0
 10
-200.957
 20
-34.9403
 11
-200.488
 21
-34.798
  0
LINE
  8
0
 10
-200.488
 20
-34.798
 11
-200
 21
-34.75
  0
LINE
  8
0
 10
-200
 20
-34.75
 11
-199.512
 21
-34.798
  0
LINE
  8
0
 10
-199.512
 20
-34.798
 11
-199.043
 21
-34.9403
  0
LINE
  8
0
 10
-199.043
 20
-34.9403
 11
-198.611
 21
-35.1713
  0
LINE
  8
0
 10
-198.611
 20
-35.1713
 11
-198.232
 21
-35.4822
  0
LINE
  8
0
 10
-198.232
 20
-35.4822
 11
-197.921
 21
-35.8611
  0
LINE
  8
0
 10
-197.921
 20
-35.8611
 11
-197.69
 21
-36.2933
  0
LINE
  8
0
 10
-197.69
 20
-36.2933
 11
-197.548
 21
-36.7623
  0
LINE
  8
0
 10
-197.548
 20
-36.7623
 11
-197.5
 21
-37.25
  0
LINE
  8
0
 10
-197.5
 20
-37.25
 11
-197.548
 21
-37.7377
  0
LINE
  8
0
 10
-197.548
 20
-37.7377
 11
-197.69
 21
-38.2067
  0
LINE
  8
0
 10
-197.69
 20
-38.2067
 11
-197.921
 21
-38.6389
  0
LINE
  8
0
 10
-197.921
 20
-38.6389
 11
-198.232
 21
-39.0178
  0
LINE
  8
0
 10
-198.232
 20
-39.0178
 11
-198.611
 21
-39.3287
  0
LINE
  8
0
 10
-198.611
 20
-39.3287
 11
-199.043
 21
-39.5597
  0
LINE
  8
0
 10
-199.043
 20
-39.5597
 11
-199.512
 21
-39.702
  0
LINE
  8
0
 10
-199.512
 20
-39.702
 11
-200
 21
-39.75
  0
LINE
  8
0
 10
-200
 20
-39.75
 11
-200.488
 21
-39.702
  0
LINE
  8
0
 10
199.512
 20
-39.702
 11
199.043
 21
-39.5597
  0
LINE
  8
0
 10
199.043
 20
-39.5597
 11
198.611
 21
-39.3287
  0
LINE
  8
0
 10
198.611
 20
-39.3287
 11
198.232
 21
-39.0178
  0
LINE
  8
0
 10
198.232
 20
-39.0178
 11
197.921
 21
-38.6389
  0
LINE
  8
0
 10
197.921
 20
-38.6389
 11
197.69
 21
-38.2067
  0
LINE
  8
0
 10
197.69
 20
-38.2067
 11
197.548
 21
-37.7377
  0
LINE
  8
0
 10
197.548
 20
-37.7377
 11
197.5
 21
-37.25
  0
LINE
  8
0
 10
197.5
 20
-37.25
 11
197.548
 21
-36.7623
  0
LINE
  8
0
 10
197.548
 20
-36.7623
 11
197.69
 21
-36.2933
  0
LINE
  8
0
 10
197.69
 20
-36.2933
 11
197.921
 21
-35.8611
  0
LINE
  8
0
 10
197.921
 20
-35.8611
 11
198.232
 21
-35.4822
  0
LINE
  8
0
 10
198.232
 20
-35.4822
 11
198.611
 21
-35.1713
  0
LINE
  8
0
 10
198.611
 20
-35.1713
 11
199.043
 21
-34.9403
  0
LINE
  8
0
 10
199.043
 20
-34.9403
 11
199.512
 21
-34.798
  0
LINE
  8
0
 10
199.512
 20
-34.798
 11
200
 21
-34.75
  0
LINE
  8
0
 10
200
 20
-34.75
 11
200.488
 21
-34.798
  0
LINE
  8
0
 10
200.488
 20
-34.798
 11
200.957
 21
-34.9403
  0
LINE
  8
0
 10
200.957
 20
-34.9403
 11
201.389
 21
-35.1713
  0
LINE
  8
0
 10
201.389
 20
-35.1713
 11
201.768
 21
-35.4822
  0
LINE
  8
0
 10
201.768
 20
-35.4822
 11
202.079
 21
-35.8611
  0
LINE
  8
0
 10
202.079
 20
-35.8611
 11
202.31
 21
-36.2933
  0
LINE
  8
0
 10
202.31
 20
-36.2933
 11
202.452
 21
-36.7623
  0
LINE
  8
0
 10
202.452
 20
-36.7623
 11
202.5
 21
-37.25
  0
LINE
  8
0
 10
202.5
 20
-37.25
 11
202.452
 21
-37.7377
  0
LINE
  8
0
 10
202.452
 20
-37.7377
 11
202.31
 21
-38.2067
  0
LINE
  8
0
 10
202.31
 20
-38.2067
 11
202.079
 21
-38.6389
  0
LINE
  8
0
 10
202.079
 20
-38.6389
 11
201.768
 21
-39.0178
  0
LINE
  8
0
 10
201.768
 20
-39.0178
 11
201.389
 21
-39.3287
  0
LINE
  8
0
 10
201.389
 20
-39.3287
 11
200.957
 21
-39.5597
  0
LINE
  8
0
 10
200.957
 20
-39.5597
 11
200.488
 21
-39.702
  0
LINE
  8
0
 10
200.488
 20
-39.702
 11
200
 21
-39.75
  0
LINE
  8
0
 10
200
 20
-39.75
 11
199.512
 21
-39.702
  0
LINE
  8
0
 10
104.751
 20
-45.2438
 11
104.255
 21
-45.1942
  0
LINE
  8
0
 10
104.255
 20
-45.1942
 11
103.766
 21
-45.0954
  0
LINE
  8
0
 10
103.766
 20
-45.0954
 11
103.29
 21
-44.9485
  0
LINE
  8
0
 10
103.29
 20
-44.9485
 11
102.831
 21
-44.7548
  0
LINE
  8
0
 10
102.831
 20
-44.7548
 11
102.393
 21
-44.5164
  0
LINE
  8
0
 10
102.393
 20
-44.5164
 11
101.981
 21
-44.2357
  0
LINE
  8
0
 10
101.981
 20
-44.2357
 11
101.599
 21
-43.9153
  0
LINE
  8
0
 10
101.599
 20
-43.9153
 11
101.251
 21
-43.5584
  0
LINE
  8
0
 10
101.251
 20
-43.5584
 11
100.94
 21
-43.1687
  0
LINE
  8
0
 10
100.94
 20
-43.1687
 11
100.67
 21
-42.75
  0
LINE
  8
0
 10
100.67
 20
-42.75
 11
100.442
 21
-42.3064
  0
LINE
  8
0
 10
100.442
 20
-42.3064
 11
100.26
 21
-41.8424
  0
LINE
  8
0
 10
100.26
 20
-41.8424
 11
100.125
 21
-41.3626
  0
LINE
  8
0
 10
100.125
 20
-41.3626
 11
100.039
 21
-40.8717
  0
LINE
  8
0
 10
100.039
 20
-40.8717
 11
100.002
 21
-40.3746
  0
LINE
  8
0
 10
100.002
 20
-40.3746
 11
100.014
 21
-39.8763
  0
LINE
  8
0
 10
100.014
 20
-39.8763
 11
100.076
 21
-39.3818
  0
LINE
  8
0
 10
100.076
 20
-39.3818
 11
100.187
 21
-38.8958
  0
LINE
  8
0
 10
100.187
 20
-38.8958
 11
100.346
 21
-38.4233
  0
LINE
  8
0
 10
100.346
 20
-38.4233
 11
100.551
 21
-37.9689
  0
LINE
  8
0
 10
100.551
 20
-37.9689
 11
100.8
 21
-37.5373
  0
LINE
  8
0
 10
100.8
 20
-37.5373
 11
101.091
 21
-37.1325
  0
LINE
  8
0
 10
101.091
 20
-37.1325
 11
101.421
 21
-36.7588
  0
LINE
  8
0
 10
101.421
 20
-36.7588
 11
101.786
 21
-36.4198
  0
LINE
  8
0
 10
101.786
 20
-36.4198
 11
102.183
 21
-36.1188
  0
LINE
  8
0
 10
102.183
 20
-36.1188
 11
102.609
 21
-35.8589
  0
LINE
  8
0
 10
102.609
 20
-35.8589
 11
103.058
 21
-35.6426
  0
LINE
  8
0
 10
103.058
 20
-35.6426
 11
103.526
 21
-35.4721
  0
LINE
  8
0
 10
103.526
 20
-35.4721
 11
104.009
 21
-35.3491
  0
LINE
  8
0
 10
104.009
 20
-35.3491
 11
104.502
 21
-35.2748
  0
LINE
  8
0
 10
104.502
 20
-35.2748
 11
105
 21
-35.25
  0
LINE
  8
0
 10
105
 20
-35.25
 11
105.498
 21
-35.2748
  0
LINE
  8
0
 10
105.498
 20
-35.2748
 11
105.991
 21
-35.3491
  0
LINE
  8
0
 10
105.991
 20
-35.3491
 11
106.474
 21
-35.4721
  0
LINE
  8
0
 10
106.474
 20
-35.4721
 11
106.942
 21
-35.6426
  0
LINE
  8
0
 10
106.942
 20
-35.6426
 11
107.391
 21
-35.8589
  0
LINE
  8
0
 10
107.391
 20
-35.8589
 11
107.817
 21
-36.1188
  0
LINE
  8
0
 10
107.817
 20
-36.1188
 11
108.214
 21
-36.4198
  0
LINE
  8
0
 10
108.214
 20
-36.4198
 11
108.579
 21
-36.7588
  0
LINE
  8
0
 10
108.579
 20
-36.7588
 11
108.909
 21
-37.1325
  0
LINE
  8
0
 10
108.909
 20
-37.1325
 11
109.2
 21
-37.5373
  0
LINE
  8
0
 10
109.2
 20
-37.5373
 11
109.449
 21
-37.9689
  0
LINE
  8
0
 10
109.449
 20
-37.9689
 11
109.654
 21
-38.4233
  0
LINE
  8
0
 10
109.654
 20
-38.4233
 11
109.813
 21
-38.8958
  0
LINE
  8
0
 10
109.813
 20
-38.8958
 11
109.924
 21
-39.3818
  0
LINE
  8
0
 10
109.924
 20
-39.3818
 11
109.986
 21
-39.8763
  0
LINE
  8
0
 10
109.986
 20
-39.8763
 11
109.998
 21
-40.3746
  0
LINE
  8
0
 10
109.998
 20
-40.3746
 11
109.961
 21
-40.8717
  0
LINE
  8
0
 10
109.961
 20
-40.8717
 11
109.875
 21
-41.3626
  0
LINE
  8
0
 10
109.875
 20
-41.3626
 11
109.74
 21
-41.8424
  0
LINE
  8
0
 10
109.74
 20
-41.8424
 11
109.558
 21
-42.3064
  0
LINE
  8
0
 10
109.558
 20
-42.3064
 11
109.33
 21
-42.75
  0
LINE
  8
0
 10
109.33
 20
-42.75
 11
109.06
 21
-43.1687
  0
LINE
  8
0
 10
109.06
 20
-43.1687
 11
108.749
 21
-43.5584
  0
LINE
  8
0
 10
108.749
 20
-43.5584
 11
108.401
 21
-43.9153
  0
LINE
  8
0
 10
108.401
 20
-43.9153
 11
108.019
 21
-44.2357
  0
LINE
  8
0
 10
108.019
 20
-44.2357
 11
107.607
 21
-44.5164
  0
LINE
  8
0
 10
107.607
 20
-44.5164
 11
107.169
 21
-44.7548
  0
LINE
  8
0
 10
107.169
 20
-44.7548
 11
106.71
 21
-44.9485
  0
LINE
  8
0
 10
106.71
 20
-44.9485
 11
106.234
 21
-45.0954
  0
LINE
  8
0
 10
106.234
 20
-45.0954
 11
105.745
 21
-45.1942
  0
LINE
  8
0
 10
105.745
 20
-45.1942
 11
105.249
 21
-45.2438
  0
LINE
  8
0
 10
105.249
 20
-45.2438
 11
104.751
 21
-45.2438
  0
LINE
  8
0
 10
-105.249
 20
-45.2438
 11
-105.745
 21
-45.1942
  0
LINE
  8
0
 10
-105.745
 20
-45.1942
 11
-106.234
 21
-45.0954
  0
LINE
  8
0
 10
-106.234
 20
-45.0954
 11
-106.71
 21
-44.9485
  0
LINE
  8
0
 10
-106.71
 20
-44.9485
 11
-107.169
 21
-44.7548
  0
LINE
  8
0
 10
-107.169
 20
-44.7548
 11
-107.607
 21
-44.5164
  0
LINE
  8
0
 10
-107.607
 20
-44.5164
 11
-108.019
 21
-44.2357
  0
LINE
  8
0
 10
-108.019
 20
-44.2357
 11
-108.401
 21
-43.9153
  0
LINE
  8
0
 10
-108.401
 20
-43.9153
 11
-108.749
 21
-43.5584
  0
LINE
  8
0
 10
-108.749
 20
-43.5584
 11
-109.06
 21
-43.1687
  0
LINE
  8
0
 10
-109.06
 20
-43.1687
 11
-109.33
 21
-42.75
  0
LINE
  8
0
 10
-109.33
 20
-42.75
 11
-109.558
 21
-42.3064
  0
LINE
  8
0
 10
-109.558
 20
-42.3064
 11
-109.74
 21
-41.8424
  0
LINE
  8
0
 10
-109.74
 20
-41.8424
 11
-109.875
 21
-41.3626
  0
LINE
  8
0
 10
-109.875
 20
-41.3626
 11
-109.961
 21
-40.8717
  0
LINE
  8
0
 10
-109.961
 20
-40.8717
 11
-109.998
 21
-40.3746
  0
LINE
  8
0
 10
-109.998
 20
-40.3746
 11
-109.986
 21
-39.8763
  0
LINE
  8
0
 10
-109.986
 20
-39.8763
 11
-109.924
 21
-39.3818
  0
LINE
  8
0
 10
-109.924
 20
-39.3818
 11
-109.813
 21
-38.8958
  0
LINE
  8
0
 10
-109.813
 20
-38.8958
 11
-109.654
 21
-38.4233
  0
LINE
  8
0
 10
-109.654
 20
-38.4233
 11
-109.449
 21
-37.9689
  0
LINE
  8
0
 10
-109.449
 20
-37.9689
 11
-109.2
 21
-37.5373
  0
LINE
  8
0
 10
-109.2
 20
-37.5373
 11
-108.909
 21
-37.1325
  0
LINE
  8
0
 10
-108.909
 20
-37.1325
 11
-108.579
 21
-36.7588
  0
LINE
  8
0
 10
-108.579
 20
-36.7588
 11
-108.214
 21
-36.4198
  0
LINE
  8
0
 10
-108.214
 20
-36.4198
 11
-107.817
 21
-36.1188
  0
LINE
  8
0
 10
-107.817
 20
-36.1188
 11
-107.391
 21
-35.8589
  0
LINE
  8
0
 10
-107.391
 20
-35.8589
 11
-106.942
 21
-35.6426
  0
LINE
  8
0
 10
-106.942
 20
-35.6426
 11
-106.474
 21
-35.4721
  0
LINE
  8
0
 10
-106.474
 20
-35.4721
 11
-105.991
 21
-35.3491
  0
LINE
  8
0
 10
-105.991
 20
-35.3491
 11
-105.498
 21
-35.2748
  0
LINE
  8
0
 10
-105.498
 20
-35.2748
 11
-105
 21
-35.25
  0
LINE
  8
0
 10
-105
 20
-35.25
 11
-104.502
 21
-35.2748
  0
LINE
  8
0
 10
-104.502
 20
-35.2748
 11
-104.009
 21
-35.3491
  0
LINE
  8
0
 10
-104.009
 20
-35.3491
 11
-103.526
 21
-35.4721
  0
LINE
  8
0
 10
-103.526
 20
-35.4721
 11
-103.058
 21
-35.6426
  0
LINE
  8
0
 10
-103.058
 20
-35.6426
 11
-102.609
 21
-35.8589
  0
LINE
  8
0
 10
-102.609
 20
-35.8589
 11
-102.183
 21
-36.1188
  0
LINE
  8
0
 10
-102.183
 20
-36.1188
 11
-101.786
 21
-36.4198
  0
LINE
  8
0
 10
-101.786
 20
-36.4198
 11
-101.421
 21
-36.7588
  0
LINE
  8
0
 10
-101.421
 20
-36.7588
 11
-101.091
 21
-37.1325
  0
LINE
  8
0
 10
-101.091
 20
-37.1325
 11
-100.8
 21
-37.5373
  0
LINE
  8
0
 10
-100.8
 20
-37.5373
 11
-100.551
 21
-37.9689
  0
LINE
  8
0
 10
-100.551
 20
-37.9689
 11
-100.346
 21
-38.4233
  0
LINE
  8
0
 10
-100.346
 20
-38.4233
 11
-100.187
 21
-38.8958
  0
LINE
  8
0
 10
-100.187
 20
-38.8958
 11
-100.076
 21
-39.3818
  0
LINE
  8
0
 10
-100.076
 20
-39.3818
 11
-100.014
 21
-39.8763
  0
LINE
  8
0
 10
-100.014
 20
-39.8763
 11
-100.002
 21
-40.3746
  0
LINE
  8
0
 10
-100.002
 20
-40.3746
 11
-100.039
 21
-40.8717
  0
LINE
  8
0
 10
-100.039
 20
-40.8717
 11
-100.125
 21
-41.3626
  0
LINE
  8
0
 10
-100.125
 20
-41.3626
 11
-100.26
 21
-41.8424
  0
LINE
  8
0
 10
-100.26
 20
-41.8424
 11
-100.442
 21
-42.3064
  0
LINE
  8
0
 10
-100.442
 20
-42.3064
 11
-100.67
 21
-42.75
  0
LINE
  8
0
 10
-100.67
 20
-42.75
 11
-100.94
 21
-43.1687
  0
LINE
  8
0
 10
-100.94
 20
-43.1687
 11
-101.251
 21
-43.5584
  0
LINE
  8
0
 10
-101.251
 20
-43.5584
 11
-101.599
 21
-43.9153
  0
LINE
  8
0
 10
-101.599
 20
-43.9153
 11
-101.981
 21
-44.2357
  0
LINE
  8
0
 10
-101.981
 20
-44.2357
 11
-102.393
 21
-44.5164
  0
LINE
  8
0
 10
-102.393
 20
-44.5164
 11
-102.831
 21
-44.7548
  0
LINE
  8
0
 10
-102.831
 20
-44.7548
 11
-103.29
 21
-44.9485
  0
LINE
  8
0
 10
-103.29
 20
-44.9485
 11
-103.766
 21
-45.0954
  0
LINE
  8
0
 10
-103.766
 20
-45.0954
 11
-104.255
 21
-45.1942
  0
LINE
  8
0
 10
-104.255
 20
-45.1942
 11
-104.751
 21
-45.2438
  0
LINE
  8
0
 10
-104.751
 20
-45.2438
 11
-105.249
 21
-45.2438
  0
LINE
  8
0
 10
92.5
 20
-42.75
 11
92.5
 21
-37.75
  0
LINE
  8
0
 10
92.5
 20
-37.75
 11
95.5
 21
-37.75
  0
LINE
  8
0
 10
95.5
 20
-37.75
 11
95.5
 21
-42.75
  0
LINE
  8
0
 10
95.5
 20
-42.75
 11
92.5
 21
-42.75
  0
LINE
  8
0
 10
114.5
 20
-42.75
 11
114.5
 21
-37.75
  0
LINE
  8
0
 10
114.5
 20
-37.75
 11
117.5
 21
-37.75
  0
LINE
  8
0
 10
117.5
 20
-37.75
 11
117.5
 21
-42.75
  0
LINE
  8
0
 10
117.5
 20
-42.75
 11
114.5
 21
-42.75
  0
LINE
  8
0
 10
-95.5
 20
-42.75
 11
-95.5
 21
-37.75
  0
LINE
  8
0
 10
-95.5
 20
-37.75
 11
-92.5
 21
-37.75
  0
LINE
  8
0
 10
-92.5
 20
-37.75
 11
-92.5
 21
-42.75
  0
LINE
  8
0
 10
-92.5
 20
-42.75
 11
-95.5
 21
-42.75
  0
LINE
  8
0
 10
-117.5
 20
-42.75
 11
-117.5
 21
-37.75
  0
LINE
  8
0
 10
-117.5
 20
-37.75
 11
-114.5
 21
-37.75
  0
LINE
  8
0
 10
-114.5
 20
-37.75
 11
-114.5
 21
-42.75
  0
LINE
  8
0
 10
-114.5
 20
-42.75
 11
-117.5
 21
-42.75
  0
ENDSEC
  0
SECTION
  2
OBJECTS
  0
DICTIONARY
  0
ENDSEC
  0
EOF
