  0
SECTION
  2
BLOCKS
  0
ENDSEC
  0
SECTION
  2
ENTITIES
  0
LINE
  8
0
 10
219.75
 20
9.75
 11
-219.75
 21
9.75
  0
LINE
  8
0
 10
-219.75
 20
9.75
 11
-219.75
 21
-50.25
  0
LINE
  8
0
 10
-219.75
 20
-50.25
 11
219.75
 21
-50.25
  0
LINE
  8
0
 10
219.75
 20
-50.25
 11
219.75
 21
9.75
  0
LINE
  8
0
 10
117.55
 20
-3.2
 11
117.55
 21
3.2
  0
LINE
  8
0
 10
117.55
 20
3.2
 11
132.45
 21
3.2
  0
LINE
  8
0
 10
132.45
 20
3.2
 11
132.45
 21
-3.2
  0
LINE
  8
0
 10
132.45
 20
-3.2
 11
117.55
 21
-3.2
  0
LINE
  8
0
 10
87.55
 20
-3.2
 11
87.55
 21
3.2
  0
LINE
  8
0
 10
87.55
 20
3.2
 11
102.45
 21
3.2
  0
LINE
  8
0
 10
102.45
 20
3.2
 11
102.45
 21
-3.2
  0
LINE
  8
0
 10
102.45
 20
-3.2
 11
87.55
 21
-3.2
  0
LINE
  8
0
 10
-132.45
 20
-3.2
 11
-132.45
 21
3.2
  0
LINE
  8
0
 10
-132.45
 20
3.2
 11
-117.55
 21
3.2
  0
LINE
  8
0
 10
-117.55
 20
3.2
 11
-117.55
 21
-3.2
  0
LINE
  8
0
 10
-117.55
 20
-3.2
 11
-132.45
 21
-3.2
  0
LINE
  8
0
 10
-102.45
 20
-3.2
 11
-102.45
 21
3.2
  0
LINE
  8
0
 10
-102.45
 20
3.2
 11
-87.55
 21
3.2
  0
LINE
  8
0
 10
-87.55
 20
3.2
 11
-87.55
 21
-3.2
  0
LINE
  8
0
 10
-87.55
 20
-3.2
 11
-102.45
 21
-3.2
  0
LINE
  8
0
 10
110
 20
-2.49998
 11
109.512
 21
-2.45195
  0
LINE
  8
0
 10
109.512
 20
-2.45195
 11
109.043
 21
-2.30969
  0
LINE
  8
0
 10
109.043
 20
-2.30969
 11
108.611
 21
-2.07866
  0
LINE
  8
0
 10
108.611
 20
-2.07866
 11
108.232
 21
-1.76776
  0
LINE
  8
0
 10
108.232
 20
-1.76776
 11
107.921
 21
-1.38892
  0
LINE
  8
0
 10
107.921
 20
-1.38892
 11
107.69
 21
-0.956696
  0
LINE
  8
0
 10
107.69
 20
-0.956696
 11
107.548
 21
-0.487717
  0
LINE
  8
0
 10
107.548
 20
-0.487717
 11
107.5
 21
0
  0
LINE
  8
0
 10
107.5
 20
0
 11
107.548
 21
0.487717
  0
LINE
  8
0
 10
107.548
 20
0.487717
 11
107.69
 21
0.956696
  0
LINE
  8
0
 10
107.69
 20
0.956696
 11
107.921
 21
1.38892
  0
LINE
  8
0
 10
107.921
 20
1.38892
 11
108.232
 21
1.76776
  0
LINE
  8
0
 10
108.232
 20
1.76776
 11
108.611
 21
2.07866
  0
LINE
  8
0
 10
108.611
 20
2.07866
 11
109.043
 21
2.30969
  0
LINE
  8
0
 10
109.043
 20
2.30969
 11
109.512
 21
2.45195
  0
LINE
  8
0
 10
109.512
 20
2.45195
 11
110
 21
2.49998
  0
LINE
  8
0
 10
110
 20
2.49998
 11
110.488
 21
2.45195
  0
LINE
  8
0
 10
110.488
 20
2.45195
 11
110.957
 21
2.30969
  0
LINE
  8
0
 10
110.957
 20
2.30969
 11
111.389
 21
2.07866
  0
LINE
  8
0
 10
111.389
 20
2.07866
 11
111.768
 21
1.76776
  0
LINE
  8
0
 10
111.768
 20
1.76776
 11
112.079
 21
1.38892
  0
LINE
  8
0
 10
112.079
 20
1.38892
 11
112.31
 21
0.956696
  0
LINE
  8
0
 10
112.31
 20
0.956696
 11
112.452
 21
0.487717
  0
LINE
  8
0
 10
112.452
 20
0.487717
 11
112.5
 21
0
  0
LINE
  8
0
 10
112.5
 20
0
 11
112.452
 21
-0.487717
  0
LINE
  8
0
 10
112.452
 20
-0.487717
 11
112.31
 21
-0.956696
  0
LINE
  8
0
 10
112.31
 20
-0.956696
 11
112.079
 21
-1.38892
  0
LINE
  8
0
 10
112.079
 20
-1.38892
 11
111.768
 21
-1.76776
  0
LINE
  8
0
 10
111.768
 20
-1.76776
 11
111.389
 21
-2.07866
  0
LINE
  8
0
 10
111.389
 20
-2.07866
 11
110.957
 21
-2.30969
  0
LINE
  8
0
 10
110.957
 20
-2.30969
 11
110.488
 21
-2.45195
  0
LINE
  8
0
 10
110.488
 20
-2.45195
 11
110
 21
-2.49998
  0
LINE
  8
0
 10
-110
 20
-2.49998
 11
-110.488
 21
-2.45195
  0
LINE
  8
0
 10
-110.488
 20
-2.45195
 11
-110.957
 21
-2.30969
  0
LINE
  8
0
 10
-110.957
 20
-2.30969
 11
-111.389
 21
-2.07866
  0
LINE
  8
0
 10
-111.389
 20
-2.07866
 11
-111.768
 21
-1.76776
  0
LINE
  8
0
 10
-111.768
 20
-1.76776
 11
-112.079
 21
-1.38892
  0
LINE
  8
0
 10
-112.079
 20
-1.38892
 11
-112.31
 21
-0.956696
  0
LINE
  8
0
 10
-112.31
 20
-0.956696
 11
-112.452
 21
-0.487717
  0
LINE
  8
0
 10
-112.452
 20
-0.487717
 11
-112.5
 21
0
  0
LINE
  8
0
 10
-112.5
 20
0
 11
-112.452
 21
0.487717
  0
LINE
  8
0
 10
-112.452
 20
0.487717
 11
-112.31
 21
0.956696
  0
LINE
  8
0
 10
-112.31
 20
0.956696
 11
-112.079
 21
1.38892
  0
LINE
  8
0
 10
-112.079
 20
1.38892
 11
-111.768
 21
1.76776
  0
LINE
  8
0
 10
-111.768
 20
1.76776
 11
-111.389
 21
2.07866
  0
LINE
  8
0
 10
-111.389
 20
2.07866
 11
-110.957
 21
2.30969
  0
LINE
  8
0
 10
-110.957
 20
2.30969
 11
-110.488
 21
2.45195
  0
LINE
  8
0
 10
-110.488
 20
2.45195
 11
-110
 21
2.49998
  0
LINE
  8
0
 10
-110
 20
2.49998
 11
-109.512
 21
2.45195
  0
LINE
  8
0
 10
-109.512
 20
2.45195
 11
-109.043
 21
2.30969
  0
LINE
  8
0
 10
-109.043
 20
2.30969
 11
-108.611
 21
2.07866
  0
LINE
  8
0
 10
-108.611
 20
2.07866
 11
-108.232
 21
1.76776
  0
LINE
  8
0
 10
-108.232
 20
1.76776
 11
-107.921
 21
1.38892
  0
LINE
  8
0
 10
-107.921
 20
1.38892
 11
-107.69
 21
0.956696
  0
LINE
  8
0
 10
-107.69
 20
0.956696
 11
-107.548
 21
0.487717
  0
LINE
  8
0
 10
-107.548
 20
0.487717
 11
-107.5
 21
0
  0
LINE
  8
0
 10
-107.5
 20
0
 11
-107.548
 21
-0.487717
  0
LINE
  8
0
 10
-107.548
 20
-0.487717
 11
-107.69
 21
-0.956696
  0
LINE
  8
0
 10
-107.69
 20
-0.956696
 11
-107.921
 21
-1.38892
  0
LINE
  8
0
 10
-107.921
 20
-1.38892
 11
-108.232
 21
-1.76776
  0
LINE
  8
0
 10
-108.232
 20
-1.76776
 11
-108.611
 21
-2.07866
  0
LINE
  8
0
 10
-108.611
 20
-2.07866
 11
-109.043
 21
-2.30969
  0
LINE
  8
0
 10
-109.043
 20
-2.30969
 11
-109.512
 21
-2.45195
  0
LINE
  8
0
 10
-109.512
 20
-2.45195
 11
-110
 21
-2.49998
  0
LINE
  8
0
 10
210.05
 20
-12.7
 11
210.05
 21
2.2
  0
LINE
  8
0
 10
210.05
 20
2.2
 11
216.45
 21
2.2
  0
LINE
  8
0
 10
216.45
 20
2.2
 11
216.45
 21
-12.7
  0
LINE
  8
0
 10
216.45
 20
-12.7
 11
210.05
 21
-12.7
  0
LINE
  8
0
 10
-216.45
 20
-12.7
 11
-216.45
 21
2.2
  0
LINE
  8
0
 10
-216.45
 20
2.2
 11
-210.05
 21
2.2
  0
LINE
  8
0
 10
-210.05
 20
2.2
 11
-210.05
 21
-12.7
  0
LINE
  8
0
 10
-210.05
 20
-12.7
 11
-216.45
 21
-12.7
  0
LINE
  8
0
 10
-200.488
 20
-12.202
 11
-200.957
 21
-12.0597
  0
LINE
  8
0
 10
-200.957
 20
-12.0597
 11
-201.389
 21
-11.8287
  0
LINE
  8
0
 10
-201.389
 20
-11.8287
 11
-201.768
 21
-11.5178
  0
LINE
  8
0
 10
-201.768
 20
-11.5178
 11
-202.079
 21
-11.1389
  0
LINE
  8
0
 10
-202.079
 20
-11.1389
 11
-202.31
 21
-10.7067
  0
LINE
  8
0
 10
-202.31
 20
-10.7067
 11
-202.452
 21
-10.2377
  0
LINE
  8
0
 10
-202.452
 20
-10.2377
 11
-202.5
 21
-9.75
  0
LINE
  8
0
 10
-202.5
 20
-9.75
 11
-202.452
 21
-9.26227
  0
LINE
  8
0
 10
-202.452
 20
-9.26227
 11
-202.31
 21
-8.79329
  0
LINE
  8
0
 10
-202.31
 20
-8.79329
 11
-202.079
 21
-8.36107
  0
LINE
  8
0
 10
-202.079
 20
-8.36107
 11
-201.768
 21
-7.98222
  0
LINE
  8
0
 10
-201.768
 20
-7.98222
 11
-201.389
 21
-7.67133
  0
LINE
  8
0
 10
-201.389
 20
-7.67133
 11
-200.957
 21
-7.44029
  0
LINE
  8
0
 10
-200.957
 20
-7.44029
 11
-200.488
 21
-7.29803
  0
LINE
  8
0
 10
-200.488
 20
-7.29803
 11
-200
 21
-7.25
  0
LINE
  8
0
 10
-200
 20
-7.25
 11
-199.512
 21
-7.29803
  0
LINE
  8
0
 10
-199.512
 20
-7.29803
 11
-199.043
 21
-7.44029
  0
LINE
  8
0
 10
-199.043
 20
-7.44029
 11
-198.611
 21
-7.67133
  0
LINE
  8
0
 10
-198.611
 20
-7.67133
 11
-198.232
 21
-7.98222
  0
LINE
  8
0
 10
-198.232
 20
-7.98222
 11
-197.921
 21
-8.36107
  0
LINE
  8
0
 10
-197.921
 20
-8.36107
 11
-197.69
 21
-8.79329
  0
LINE
  8
0
 10
-197.69
 20
-8.79329
 11
-197.548
 21
-9.26227
  0
LINE
  8
0
 10
-197.548
 20
-9.26227
 11
-197.5
 21
-9.75
  0
LINE
  8
0
 10
-197.5
 20
-9.75
 11
-197.548
 21
-10.2377
  0
LINE
  8
0
 10
-197.548
 20
-10.2377
 11
-197.69
 21
-10.7067
  0
LINE
  8
0
 10
-197.69
 20
-10.7067
 11
-197.921
 21
-11.1389
  0
LINE
  8
0
 10
-197.921
 20
-11.1389
 11
-198.232
 21
-11.5178
  0
LINE
  8
0
 10
-198.232
 20
-11.5178
 11
-198.611
 21
-11.8287
  0
LINE
  8
0
 10
-198.611
 20
-11.8287
 11
-199.043
 21
-12.0597
  0
LINE
  8
0
 10
-199.043
 20
-12.0597
 11
-199.512
 21
-12.202
  0
LINE
  8
0
 10
-199.512
 20
-12.202
 11
-200
 21
-12.25
  0
LINE
  8
0
 10
-200
 20
-12.25
 11
-200.488
 21
-12.202
  0
LINE
  8
0
 10
199.512
 20
-12.202
 11
199.043
 21
-12.0597
  0
LINE
  8
0
 10
199.043
 20
-12.0597
 11
198.611
 21
-11.8287
  0
LINE
  8
0
 10
198.611
 20
-11.8287
 11
198.232
 21
-11.5178
  0
LINE
  8
0
 10
198.232
 20
-11.5178
 11
197.921
 21
-11.1389
  0
LINE
  8
0
 10
197.921
 20
-11.1389
 11
197.69
 21
-10.7067
  0
LINE
  8
0
 10
197.69
 20
-10.7067
 11
197.548
 21
-10.2377
  0
LINE
  8
0
 10
197.548
 20
-10.2377
 11
197.5
 21
-9.75
  0
LINE
  8
0
 10
197.5
 20
-9.75
 11
197.548
 21
-9.26227
  0
LINE
  8
0
 10
197.548
 20
-9.26227
 11
197.69
 21
-8.79329
  0
LINE
  8
0
 10
197.69
 20
-8.79329
 11
197.921
 21
-8.36107
  0
LINE
  8
0
 10
197.921
 20
-8.36107
 11
198.232
 21
-7.98222
  0
LINE
  8
0
 10
198.232
 20
-7.98222
 11
198.611
 21
-7.67133
  0
LINE
  8
0
 10
198.611
 20
-7.67133
 11
199.043
 21
-7.44029
  0
LINE
  8
0
 10
199.043
 20
-7.44029
 11
199.512
 21
-7.29803
  0
LINE
  8
0
 10
199.512
 20
-7.29803
 11
200
 21
-7.25
  0
LINE
  8
0
 10
200
 20
-7.25
 11
200.488
 21
-7.29803
  0
LINE
  8
0
 10
200.488
 20
-7.29803
 11
200.957
 21
-7.44029
  0
LINE
  8
0
 10
200.957
 20
-7.44029
 11
201.389
 21
-7.67133
  0
LINE
  8
0
 10
201.389
 20
-7.67133
 11
201.768
 21
-7.98222
  0
LINE
  8
0
 10
201.768
 20
-7.98222
 11
202.079
 21
-8.36107
  0
LINE
  8
0
 10
202.079
 20
-8.36107
 11
202.31
 21
-8.79329
  0
LINE
  8
0
 10
202.31
 20
-8.79329
 11
202.452
 21
-9.26227
  0
LINE
  8
0
 10
202.452
 20
-9.26227
 11
202.5
 21
-9.75
  0
LINE
  8
0
 10
202.5
 20
-9.75
 11
202.452
 21
-10.2377
  0
LINE
  8
0
 10
202.452
 20
-10.2377
 11
202.31
 21
-10.7067
  0
LINE
  8
0
 10
202.31
 20
-10.7067
 11
202.079
 21
-11.1389
  0
LINE
  8
0
 10
202.079
 20
-11.1389
 11
201.768
 21
-11.5178
  0
LINE
  8
0
 10
201.768
 20
-11.5178
 11
201.389
 21
-11.8287
  0
LINE
  8
0
 10
201.389
 20
-11.8287
 11
200.957
 21
-12.0597
  0
LINE
  8
0
 10
200.957
 20
-12.0597
 11
200.488
 21
-12.202
  0
LINE
  8
0
 10
200.488
 20
-12.202
 11
200
 21
-12.25
  0
LINE
  8
0
 10
200
 20
-12.25
 11
199.512
 21
-12.202
  0
LINE
  8
0
 10
-213.738
 20
-22.702
 11
-214.207
 21
-22.5597
  0
LINE
  8
0
 10
-214.207
 20
-22.5597
 11
-214.639
 21
-22.3287
  0
LINE
  8
0
 10
-214.639
 20
-22.3287
 11
-215.018
 21
-22.0178
  0
LINE
  8
0
 10
-215.018
 20
-22.0178
 11
-215.329
 21
-21.6389
  0
LINE
  8
0
 10
-215.329
 20
-21.6389
 11
-215.56
 21
-21.2067
  0
LINE
  8
0
 10
-215.56
 20
-21.2067
 11
-215.702
 21
-20.7377
  0
LINE
  8
0
 10
-215.702
 20
-20.7377
 11
-215.75
 21
-20.25
  0
LINE
  8
0
 10
-215.75
 20
-20.25
 11
-215.702
 21
-19.7623
  0
LINE
  8
0
 10
-215.702
 20
-19.7623
 11
-215.56
 21
-19.2933
  0
LINE
  8
0
 10
-215.56
 20
-19.2933
 11
-215.329
 21
-18.8611
  0
LINE
  8
0
 10
-215.329
 20
-18.8611
 11
-215.018
 21
-18.4822
  0
LINE
  8
0
 10
-215.018
 20
-18.4822
 11
-214.639
 21
-18.1713
  0
LINE
  8
0
 10
-214.639
 20
-18.1713
 11
-214.207
 21
-17.9403
  0
LINE
  8
0
 10
-214.207
 20
-17.9403
 11
-213.738
 21
-17.798
  0
LINE
  8
0
 10
-213.738
 20
-17.798
 11
-213.25
 21
-17.75
  0
LINE
  8
0
 10
-213.25
 20
-17.75
 11
-212.762
 21
-17.798
  0
LINE
  8
0
 10
-212.762
 20
-17.798
 11
-212.293
 21
-17.9403
  0
LINE
  8
0
 10
-212.293
 20
-17.9403
 11
-211.861
 21
-18.1713
  0
LINE
  8
0
 10
-211.861
 20
-18.1713
 11
-211.482
 21
-18.4822
  0
LINE
  8
0
 10
-211.482
 20
-18.4822
 11
-211.171
 21
-18.8611
  0
LINE
  8
0
 10
-211.171
 20
-18.8611
 11
-210.94
 21
-19.2933
  0
LINE
  8
0
 10
-210.94
 20
-19.2933
 11
-210.798
 21
-19.7623
  0
LINE
  8
0
 10
-210.798
 20
-19.7623
 11
-210.75
 21
-20.25
  0
LINE
  8
0
 10
-210.75
 20
-20.25
 11
-210.798
 21
-20.7377
  0
LINE
  8
0
 10
-210.798
 20
-20.7377
 11
-210.94
 21
-21.2067
  0
LINE
  8
0
 10
-210.94
 20
-21.2067
 11
-211.171
 21
-21.6389
  0
LINE
  8
0
 10
-211.171
 20
-21.6389
 11
-211.482
 21
-22.0178
  0
LINE
  8
0
 10
-211.482
 20
-22.0178
 11
-211.861
 21
-22.3287
  0
LINE
  8
0
 10
-211.861
 20
-22.3287
 11
-212.293
 21
-22.5597
  0
LINE
  8
0
 10
-212.293
 20
-22.5597
 11
-212.762
 21
-22.702
  0
LINE
  8
0
 10
-212.762
 20
-22.702
 11
-213.25
 21
-22.75
  0
LINE
  8
0
 10
-213.25
 20
-22.75
 11
-213.738
 21
-22.702
  0
LINE
  8
0
 10
212.762
 20
-22.702
 11
212.293
 21
-22.5597
  0
LINE
  8
0
 10
212.293
 20
-22.5597
 11
211.861
 21
-22.3287
  0
LINE
  8
0
 10
211.861
 20
-22.3287
 11
211.482
 21
-22.0178
  0
LINE
  8
0
 10
211.482
 20
-22.0178
 11
211.171
 21
-21.6389
  0
LINE
  8
0
 10
211.171
 20
-21.6389
 11
210.94
 21
-21.2067
  0
LINE
  8
0
 10
210.94
 20
-21.2067
 11
210.798
 21
-20.7377
  0
LINE
  8
0
 10
210.798
 20
-20.7377
 11
210.75
 21
-20.25
  0
LINE
  8
0
 10
210.75
 20
-20.25
 11
210.798
 21
-19.7623
  0
LINE
  8
0
 10
210.798
 20
-19.7623
 11
210.94
 21
-19.2933
  0
LINE
  8
0
 10
210.94
 20
-19.2933
 11
211.171
 21
-18.8611
  0
LINE
  8
0
 10
211.171
 20
-18.8611
 11
211.482
 21
-18.4822
  0
LINE
  8
0
 10
211.482
 20
-18.4822
 11
211.861
 21
-18.1713
  0
LINE
  8
0
 10
211.861
 20
-18.1713
 11
212.293
 21
-17.9403
  0
LINE
  8
0
 10
212.293
 20
-17.9403
 11
212.762
 21
-17.798
  0
LINE
  8
0
 10
212.762
 20
-17.798
 11
213.25
 21
-17.75
  0
LINE
  8
0
 10
213.25
 20
-17.75
 11
213.738
 21
-17.798
  0
LINE
  8
0
 10
213.738
 20
-17.798
 11
214.207
 21
-17.9403
  0
LINE
  8
0
 10
214.207
 20
-17.9403
 11
214.639
 21
-18.1713
  0
LINE
  8
0
 10
214.639
 20
-18.1713
 11
215.018
 21
-18.4822
  0
LINE
  8
0
 10
215.018
 20
-18.4822
 11
215.329
 21
-18.8611
  0
LINE
  8
0
 10
215.329
 20
-18.8611
 11
215.56
 21
-19.2933
  0
LINE
  8
0
 10
215.56
 20
-19.2933
 11
215.702
 21
-19.7623
  0
LINE
  8
0
 10
215.702
 20
-19.7623
 11
215.75
 21
-20.25
  0
LINE
  8
0
 10
215.75
 20
-20.25
 11
215.702
 21
-20.7377
  0
LINE
  8
0
 10
215.702
 20
-20.7377
 11
215.56
 21
-21.2067
  0
LINE
  8
0
 10
215.56
 20
-21.2067
 11
215.329
 21
-21.6389
  0
LINE
  8
0
 10
215.329
 20
-21.6389
 11
215.018
 21
-22.0178
  0
LINE
  8
0
 10
215.018
 20
-22.0178
 11
214.639
 21
-22.3287
  0
LINE
  8
0
 10
214.639
 20
-22.3287
 11
214.207
 21
-22.5597
  0
LINE
  8
0
 10
214.207
 20
-22.5597
 11
213.738
 21
-22.702
  0
LINE
  8
0
 10
213.738
 20
-22.702
 11
213.25
 21
-22.75
  0
LINE
  8
0
 10
213.25
 20
-22.75
 11
212.762
 21
-22.702
  0
LINE
  8
0
 10
-132.45
 20
-29.7
 11
-132.45
 21
-23.3
  0
LINE
  8
0
 10
-132.45
 20
-23.3
 11
-117.55
 21
-23.3
  0
LINE
  8
0
 10
-117.55
 20
-23.3
 11
-117.55
 21
-29.7
  0
LINE
  8
0
 10
-117.55
 20
-29.7
 11
-132.45
 21
-29.7
  0
LINE
  8
0
 10
-102.45
 20
-29.7
 11
-102.45
 21
-23.3
  0
LINE
  8
0
 10
-102.45
 20
-23.3
 11
-87.55
 21
-23.3
  0
LINE
  8
0
 10
-87.55
 20
-23.3
 11
-87.55
 21
-29.7
  0
LINE
  8
0
 10
-87.55
 20
-29.7
 11
-102.45
 21
-29.7
  0
LINE
  8
0
 10
117.55
 20
-29.7
 11
117.55
 21
-23.3
  0
LINE
  8
0
 10
117.55
 20
-23.3
 11
132.45
 21
-23.3
  0
LINE
  8
0
 10
132.45
 20
-23.3
 11
132.45
 21
-29.7
  0
LINE
  8
0
 10
132.45
 20
-29.7
 11
117.55
 21
-29.7
  0
LINE
  8
0
 10
87.55
 20
-29.7
 11
87.55
 21
-23.3
  0
LINE
  8
0
 10
87.55
 20
-23.3
 11
102.45
 21
-23.3
  0
LINE
  8
0
 10
102.45
 20
-23.3
 11
102.45
 21
-29.7
  0
LINE
  8
0
 10
102.45
 20
-29.7
 11
87.55
 21
-29.7
  0
LINE
  8
0
 10
110
 20
-29
 11
109.512
 21
-28.952
  0
LINE
  8
0
 10
109.512
 20
-28.952
 11
109.043
 21
-28.8097
  0
LINE
  8
0
 10
109.043
 20
-28.8097
 11
108.611
 21
-28.5787
  0
LINE
  8
0
 10
108.611
 20
-28.5787
 11
108.232
 21
-28.2678
  0
LINE
  8
0
 10
108.232
 20
-28.2678
 11
107.921
 21
-27.8889
  0
LINE
  8
0
 10
107.921
 20
-27.8889
 11
107.69
 21
-27.4567
  0
LINE
  8
0
 10
107.69
 20
-27.4567
 11
107.548
 21
-26.9877
  0
LINE
  8
0
 10
107.548
 20
-26.9877
 11
107.5
 21
-26.5
  0
LINE
  8
0
 10
107.5
 20
-26.5
 11
107.548
 21
-26.0123
  0
LINE
  8
0
 10
107.548
 20
-26.0123
 11
107.69
 21
-25.5433
  0
LINE
  8
0
 10
107.69
 20
-25.5433
 11
107.921
 21
-25.1111
  0
LINE
  8
0
 10
107.921
 20
-25.1111
 11
108.232
 21
-24.7322
  0
LINE
  8
0
 10
108.232
 20
-24.7322
 11
108.611
 21
-24.4213
  0
LINE
  8
0
 10
108.611
 20
-24.4213
 11
109.043
 21
-24.1903
  0
LINE
  8
0
 10
109.043
 20
-24.1903
 11
109.512
 21
-24.048
  0
LINE
  8
0
 10
109.512
 20
-24.048
 11
110
 21
-24
  0
LINE
  8
0
 10
110
 20
-24
 11
110.488
 21
-24.048
  0
LINE
  8
0
 10
110.488
 20
-24.048
 11
110.957
 21
-24.1903
  0
LINE
  8
0
 10
110.957
 20
-24.1903
 11
111.389
 21
-24.4213
  0
LINE
  8
0
 10
111.389
 20
-24.4213
 11
111.768
 21
-24.7322
  0
LINE
  8
0
 10
111.768
 20
-24.7322
 11
112.079
 21
-25.1111
  0
LINE
  8
0
 10
112.079
 20
-25.1111
 11
112.31
 21
-25.5433
  0
LINE
  8
0
 10
112.31
 20
-25.5433
 11
112.452
 21
-26.0123
  0
LINE
  8
0
 10
112.452
 20
-26.0123
 11
112.5
 21
-26.5
  0
LINE
  8
0
 10
112.5
 20
-26.5
 11
112.452
 21
-26.9877
  0
LINE
  8
0
 10
112.452
 20
-26.9877
 11
112.31
 21
-27.4567
  0
LINE
  8
0
 10
112.31
 20
-27.4567
 11
112.079
 21
-27.8889
  0
LINE
  8
0
 10
112.079
 20
-27.8889
 11
111.768
 21
-28.2678
  0
LINE
  8
0
 10
111.768
 20
-28.2678
 11
111.389
 21
-28.5787
  0
LINE
  8
0
 10
111.389
 20
-28.5787
 11
110.957
 21
-28.8097
  0
LINE
  8
0
 10
110.957
 20
-28.8097
 11
110.488
 21
-28.952
  0
LINE
  8
0
 10
110.488
 20
-28.952
 11
110
 21
-29
  0
LINE
  8
0
 10
-110
 20
-29
 11
-110.488
 21
-28.952
  0
LINE
  8
0
 10
-110.488
 20
-28.952
 11
-110.957
 21
-28.8097
  0
LINE
  8
0
 10
-110.957
 20
-28.8097
 11
-111.389
 21
-28.5787
  0
LINE
  8
0
 10
-111.389
 20
-28.5787
 11
-111.768
 21
-28.2678
  0
LINE
  8
0
 10
-111.768
 20
-28.2678
 11
-112.079
 21
-27.8889
  0
LINE
  8
0
 10
-112.079
 20
-27.8889
 11
-112.31
 21
-27.4567
  0
LINE
  8
0
 10
-112.31
 20
-27.4567
 11
-112.452
 21
-26.9877
  0
LINE
  8
0
 10
-112.452
 20
-26.9877
 11
-112.5
 21
-26.5
  0
LINE
  8
0
 10
-112.5
 20
-26.5
 11
-112.452
 21
-26.0123
  0
LINE
  8
0
 10
-112.452
 20
-26.0123
 11
-112.31
 21
-25.5433
  0
LINE
  8
0
 10
-112.31
 20
-25.5433
 11
-112.079
 21
-25.1111
  0
LINE
  8
0
 10
-112.079
 20
-25.1111
 11
-111.768
 21
-24.7322
  0
LINE
  8
0
 10
-111.768
 20
-24.7322
 11
-111.389
 21
-24.4213
  0
LINE
  8
0
 10
-111.389
 20
-24.4213
 11
-110.957
 21
-24.1903
  0
LINE
  8
0
 10
-110.957
 20
-24.1903
 11
-110.488
 21
-24.048
  0
LINE
  8
0
 10
-110.488
 20
-24.048
 11
-110
 21
-24
  0
LINE
  8
0
 10
-110
 20
-24
 11
-109.512
 21
-24.048
  0
LINE
  8
0
 10
-109.512
 20
-24.048
 11
-109.043
 21
-24.1903
  0
LINE
  8
0
 10
-109.043
 20
-24.1903
 11
-108.611
 21
-24.4213
  0
LINE
  8
0
 10
-108.611
 20
-24.4213
 11
-108.232
 21
-24.7322
  0
LINE
  8
0
 10
-108.232
 20
-24.7322
 11
-107.921
 21
-25.1111
  0
LINE
  8
0
 10
-107.921
 20
-25.1111
 11
-107.69
 21
-25.5433
  0
LINE
  8
0
 10
-107.69
 20
-25.5433
 11
-107.548
 21
-26.0123
  0
LINE
  8
0
 10
-107.548
 20
-26.0123
 11
-107.5
 21
-26.5
  0
LINE
  8
0
 10
-107.5
 20
-26.5
 11
-107.548
 21
-26.9877
  0
LINE
  8
0
 10
-107.548
 20
-26.9877
 11
-107.69
 21
-27.4567
  0
LINE
  8
0
 10
-107.69
 20
-27.4567
 11
-107.921
 21
-27.8889
  0
LINE
  8
0
 10
-107.921
 20
-27.8889
 11
-108.232
 21
-28.2678
  0
LINE
  8
0
 10
-108.232
 20
-28.2678
 11
-108.611
 21
-28.5787
  0
LINE
  8
0
 10
-108.611
 20
-28.5787
 11
-109.043
 21
-28.8097
  0
LINE
  8
0
 10
-109.043
 20
-28.8097
 11
-109.512
 21
-28.952
  0
LINE
  8
0
 10
-109.512
 20
-28.952
 11
-110
 21
-29
  0
LINE
  8
0
 10
210.05
 20
-42.7
 11
210.05
 21
-27.8
  0
LINE
  8
0
 10
210.05
 20
-27.8
 11
216.45
 21
-27.8
  0
LINE
  8
0
 10
216.45
 20
-27.8
 11
216.45
 21
-42.7
  0
LINE
  8
0
 10
216.45
 20
-42.7
 11
210.05
 21
-42.7
  0
LINE
  8
0
 10
-216.45
 20
-42.7
 11
-216.45
 21
-27.8
  0
LINE
  8
0
 10
-216.45
 20
-27.8
 11
-210.05
 21
-27.8
  0
LINE
  8
0
 10
-210.05
 20
-27.8
 11
-210.05
 21
-42.7
  0
LINE
  8
0
 10
-210.05
 20
-42.7
 11
-216.45
 21
-42.7
  0
LINE
  8
0
 10
-200.488
 20
-39.702
 11
-200.957
 21
-39.5597
  0
LINE
  8
0
 10
-200.957
 20
-39.5597
 11
-201.389
 21
-39.3287
  0
LINE
  8
0
 10
-201.389
 20
-39.3287
 11
-201.768
 21
-39.0178
  0
LINE
  8
0
 10
-201.768
 20
-39.0178
 11
-202.079
 21
-38.6389
  0
LINE
  8
0
 10
-202.079
 20
-38.6389
 11
-202.31
 21
-38.2067
  0
LINE
  8
0
 10
-202.31
 20
-38.2067
 11
-202.452
 21
-37.7377
  0
LINE
  8
0
 10
-202.452
 20
-37.7377
 11
-202.5
 21
-37.25
  0
LINE
  8
0
 10
-202.5
 20
-37.25
 11
-202.452
 21
-36.7623
  0
LINE
  8
0
 10
-202.452
 20
-36.7623
 11
-202.31
 21
-36.2933
  0
LINE
  8
0
 10
-202.31
 20
-36.2933
 11
-202.079
 21
-35.8611
  0
LINE
  8
0
 10
-202.079
 20
-35.8611
 11
-201.768
 21
-35.4822
  0
LINE
  8
0
 10
-201.768
 20
-35.4822
 11
-201.389
 21
-35.1713
  0
LINE
  8
0
 10
-201.389
 20
-35.1713
 11
-200.957
 21
-34.9403
  0
LINE
  8
0
 10
-200.957
 20
-34.9403
 11
-200.488
 21
-34.798
  0
LINE
  8
0
 10
-200.488
 20
-34.798
 11
-200
 21
-34.75
  0
LINE
  8
0
 10
-200
 20
-34.75
 11
-199.512
 21
-34.798
  0
LINE
  8
0
 10
-199.512
 20
-34.798
 11
-199.043
 21
-34.9403
  0
LINE
  8
0
 10
-199.043
 20
-34.9403
 11
-198.611
 21
-35.1713
  0
LINE
  8
0
 10
-198.611
 20
-35.1713
 11
-198.232
 21
-35.4822
  0
LINE
  8
0
 10
-198.232
 20
-35.4822
 11
-197.921
 21
-35.8611
  0
LINE
  8
0
 10
-197.921
 20
-35.8611
 11
-197.69
 21
-36.2933
  0
LINE
  8
0
 10
-197.69
 20
-36.2933
 11
-197.548
 21
-36.7623
  0
LINE
  8
0
 10
-197.548
 20
-36.7623
 11
-197.5
 21
-37.25
  0
LINE
  8
0
 10
-197.5
 20
-37.25
 11
-197.548
 21
-37.7377
  0
LINE
  8
0
 10
-197.548
 20
-37.7377
 11
-197.69
 21
-38.2067
  0
LINE
  8
0
 10
-197.69
 20
-38.2067
 11
-197.921
 21
-38.6389
  0
LINE
  8
0
 10
-197.921
 20
-38.6389
 11
-198.232
 21
-39.0178
  0
LINE
  8
0
 10
-198.232
 20
-39.0178
 11
-198.611
 21
-39.3287
  0
LINE
  8
0
 10
-198.611
 20
-39.3287
 11
-199.043
 21
-39.5597
  0
LINE
  8
0
 10
-199.043
 20
-39.5597
 11
-199.512
 21
-39.702
  0
LINE
  8
0
 10
-199.512
 20
-39.702
 11
-200
 21
-39.75
  0
LINE
  8
0
 10
-200
 20
-39.75
 11
-200.488
 21
-39.702
  0
LINE
  8
0
 10
199.512
 20
-39.702
 11
199.043
 21
-39.5597
  0
LINE
  8
0
 10
199.043
 20
-39.5597
 11
198.611
 21
-39.3287
  0
LINE
  8
0
 10
198.611
 20
-39.3287
 11
198.232
 21
-39.0178
  0
LINE
  8
0
 10
198.232
 20
-39.0178
 11
197.921
 21
-38.6389
  0
LINE
  8
0
 10
197.921
 20
-38.6389
 11
197.69
 21
-38.2067
  0
LINE
  8
0
 10
197.69
 20
-38.2067
 11
197.548
 21
-37.7377
  0
LINE
  8
0
 10
197.548
 20
-37.7377
 11
197.5
 21
-37.25
  0
LINE
  8
0
 10
197.5
 20
-37.25
 11
197.548
 21
-36.7623
  0
LINE
  8
0
 10
197.548
 20
-36.7623
 11
197.69
 21
-36.2933
  0
LINE
  8
0
 10
197.69
 20
-36.2933
 11
197.921
 21
-35.8611
  0
LINE
  8
0
 10
197.921
 20
-35.8611
 11
198.232
 21
-35.4822
  0
LINE
  8
0
 10
198.232
 20
-35.4822
 11
198.611
 21
-35.1713
  0
LINE
  8
0
 10
198.611
 20
-35.1713
 11
199.043
 21
-34.9403
  0
LINE
  8
0
 10
199.043
 20
-34.9403
 11
199.512
 21
-34.798
  0
LINE
  8
0
 10
199.512
 20
-34.798
 11
200
 21
-34.75
  0
LINE
  8
0
 10
200
 20
-34.75
 11
200.488
 21
-34.798
  0
LINE
  8
0
 10
200.488
 20
-34.798
 11
200.957
 21
-34.9403
  0
LINE
  8
0
 10
200.957
 20
-34.9403
 11
201.389
 21
-35.1713
  0
LINE
  8
0
 10
201.389
 20
-35.1713
 11
201.768
 21
-35.4822
  0
LINE
  8
0
 10
201.768
 20
-35.4822
 11
202.079
 21
-35.8611
  0
LINE
  8
0
 10
202.079
 20
-35.8611
 11
202.31
 21
-36.2933
  0
LINE
  8
0
 10
202.31
 20
-36.2933
 11
202.452
 21
-36.7623
  0
LINE
  8
0
 10
202.452
 20
-36.7623
 11
202.5
 21
-37.25
  0
LINE
  8
0
 10
202.5
 20
-37.25
 11
202.452
 21
-37.7377
  0
LINE
  8
0
 10
202.452
 20
-37.7377
 11
202.31
 21
-38.2067
  0
LINE
  8
0
 10
202.31
 20
-38.2067
 11
202.079
 21
-38.6389
  0
LINE
  8
0
 10
202.079
 20
-38.6389
 11
201.768
 21
-39.0178
  0
LINE
  8
0
 10
201.768
 20
-39.0178
 11
201.389
 21
-39.3287
  0
LINE
  8
0
 10
201.389
 20
-39.3287
 11
200.957
 21
-39.5597
  0
LINE
  8
0
 10
200.957
 20
-39.5597
 11
200.488
 21
-39.702
  0
LINE
  8
0
 10
200.488
 20
-39.702
 11
200
 21
-39.75
  0
LINE
  8
0
 10
200
 20
-39.75
 11
199.512
 21
-39.702
  0
LINE
  8
0
 10
-105.249
 20
-45.2438
 11
-105.745
 21
-45.1942
  0
LINE
  8
0
 10
-105.745
 20
-45.1942
 11
-106.234
 21
-45.0954
  0
LINE
  8
0
 10
-106.234
 20
-45.0954
 11
-106.71
 21
-44.9485
  0
LINE
  8
0
 10
-106.71
 20
-44.9485
 11
-107.169
 21
-44.7548
  0
LINE
  8
0
 10
-107.169
 20
-44.7548
 11
-107.607
 21
-44.5164
  0
LINE
  8
0
 10
-107.607
 20
-44.5164
 11
-108.019
 21
-44.2357
  0
LINE
  8
0
 10
-108.019
 20
-44.2357
 11
-108.401
 21
-43.9153
  0
LINE
  8
0
 10
-108.401
 20
-43.9153
 11
-108.749
 21
-43.5584
  0
LINE
  8
0
 10
-108.749
 20
-43.5584
 11
-109.06
 21
-43.1687
  0
LINE
  8
0
 10
-109.06
 20
-43.1687
 11
-109.33
 21
-42.75
  0
LINE
  8
0
 10
-109.33
 20
-42.75
 11
-109.558
 21
-42.3064
  0
LINE
  8
0
 10
-109.558
 20
-42.3064
 11
-109.74
 21
-41.8424
  0
LINE
  8
0
 10
-109.74
 20
-41.8424
 11
-109.875
 21
-41.3626
  0
LINE
  8
0
 10
-109.875
 20
-41.3626
 11
-109.961
 21
-40.8717
  0
LINE
  8
0
 10
-109.961
 20
-40.8717
 11
-109.998
 21
-40.3746
  0
LINE
  8
0
 10
-109.998
 20
-40.3746
 11
-109.986
 21
-39.8763
  0
LINE
  8
0
 10
-109.986
 20
-39.8763
 11
-109.924
 21
-39.3818
  0
LINE
  8
0
 10
-109.924
 20
-39.3818
 11
-109.813
 21
-38.8958
  0
LINE
  8
0
 10
-109.813
 20
-38.8958
 11
-109.654
 21
-38.4233
  0
LINE
  8
0
 10
-109.654
 20
-38.4233
 11
-109.449
 21
-37.9689
  0
LINE
  8
0
 10
-109.449
 20
-37.9689
 11
-109.2
 21
-37.5373
  0
LINE
  8
0
 10
-109.2
 20
-37.5373
 11
-108.909
 21
-37.1325
  0
LINE
  8
0
 10
-108.909
 20
-37.1325
 11
-108.579
 21
-36.7588
  0
LINE
  8
0
 10
-108.579
 20
-36.7588
 11
-108.214
 21
-36.4198
  0
LINE
  8
0
 10
-108.214
 20
-36.4198
 11
-107.817
 21
-36.1188
  0
LINE
  8
0
 10
-107.817
 20
-36.1188
 11
-107.391
 21
-35.8589
  0
LINE
  8
0
 10
-107.391
 20
-35.8589
 11
-106.942
 21
-35.6426
  0
LINE
  8
0
 10
-106.942
 20
-35.6426
 11
-106.474
 21
-35.4721
  0
LINE
  8
0
 10
-106.474
 20
-35.4721
 11
-105.991
 21
-35.3491
  0
LINE
  8
0
 10
-105.991
 20
-35.3491
 11
-105.498
 21
-35.2748
  0
LINE
  8
0
 10
-105.498
 20
-35.2748
 11
-105
 21
-35.25
  0
LINE
  8
0
 10
-105
 20
-35.25
 11
-104.502
 21
-35.2748
  0
LINE
  8
0
 10
-104.502
 20
-35.2748
 11
-104.009
 21
-35.3491
  0
LINE
  8
0
 10
-104.009
 20
-35.3491
 11
-103.526
 21
-35.4721
  0
LINE
  8
0
 10
-103.526
 20
-35.4721
 11
-103.058
 21
-35.6426
  0
LINE
  8
0
 10
-103.058
 20
-35.6426
 11
-102.609
 21
-35.8589
  0
LINE
  8
0
 10
-102.609
 20
-35.8589
 11
-102.183
 21
-36.1188
  0
LINE
  8
0
 10
-102.183
 20
-36.1188
 11
-101.786
 21
-36.4198
  0
LINE
  8
0
 10
-101.786
 20
-36.4198
 11
-101.421
 21
-36.7588
  0
LINE
  8
0
 10
-101.421
 20
-36.7588
 11
-101.091
 21
-37.1325
  0
LINE
  8
0
 10
-101.091
 20
-37.1325
 11
-100.8
 21
-37.5373
  0
LINE
  8
0
 10
-100.8
 20
-37.5373
 11
-100.551
 21
-37.9689
  0
LINE
  8
0
 10
-100.551
 20
-37.9689
 11
-100.346
 21
-38.4233
  0
LINE
  8
0
 10
-100.346
 20
-38.4233
 11
-100.187
 21
-38.8958
  0
LINE
  8
0
 10
-100.187
 20
-38.8958
 11
-100.076
 21
-39.3818
  0
LINE
  8
0
 10
-100.076
 20
-39.3818
 11
-100.014
 21
-39.8763
  0
LINE
  8
0
 10
-100.014
 20
-39.8763
 11
-100.002
 21
-40.3746
  0
LINE
  8
0
 10
-100.002
 20
-40.3746
 11
-100.039
 21
-40.8717
  0
LINE
  8
0
 10
-100.039
 20
-40.8717
 11
-100.125
 21
-41.3626
  0
LINE
  8
0
 10
-100.125
 20
-41.3626
 11
-100.26
 21
-41.8424
  0
LINE
  8
0
 10
-100.26
 20
-41.8424
 11
-100.442
 21
-42.3064
  0
LINE
  8
0
 10
-100.442
 20
-42.3064
 11
-100.67
 21
-42.75
  0
LINE
  8
0
 10
-100.67
 20
-42.75
 11
-100.94
 21
-43.1687
  0
LINE
  8
0
 10
-100.94
 20
-43.1687
 11
-101.251
 21
-43.5584
  0
LINE
  8
0
 10
-101.251
 20
-43.5584
 11
-101.599
 21
-43.9153
  0
LINE
  8
0
 10
-101.599
 20
-43.9153
 11
-101.981
 21
-44.2357
  0
LINE
  8
0
 10
-101.981
 20
-44.2357
 11
-102.393
 21
-44.5164
  0
LINE
  8
0
 10
-102.393
 20
-44.5164
 11
-102.831
 21
-44.7548
  0
LINE
  8
0
 10
-102.831
 20
-44.7548
 11
-103.29
 21
-44.9485
  0
LINE
  8
0
 10
-103.29
 20
-44.9485
 11
-103.766
 21
-45.0954
  0
LINE
  8
0
 10
-103.766
 20
-45.0954
 11
-104.255
 21
-45.1942
  0
LINE
  8
0
 10
-104.255
 20
-45.1942
 11
-104.751
 21
-45.2438
  0
LINE
  8
0
 10
-104.751
 20
-45.2438
 11
-105.249
 21
-45.2438
  0
LINE
  8
0
 10
104.751
 20
-45.2438
 11
104.255
 21
-45.1942
  0
LINE
  8
0
 10
104.255
 20
-45.1942
 11
103.766
 21
-45.0954
  0
LINE
  8
0
 10
103.766
 20
-45.0954
 11
103.29
 21
-44.9485
  0
LINE
  8
0
 10
103.29
 20
-44.9485
 11
102.831
 21
-44.7548
  0
LINE
  8
0
 10
102.831
 20
-44.7548
 11
102.393
 21
-44.5164
  0
LINE
  8
0
 10
102.393
 20
-44.5164
 11
101.981
 21
-44.2357
  0
LINE
  8
0
 10
101.981
 20
-44.2357
 11
101.599
 21
-43.9153
  0
LINE
  8
0
 10
101.599
 20
-43.9153
 11
101.251
 21
-43.5584
  0
LINE
  8
0
 10
101.251
 20
-43.5584
 11
100.94
 21
-43.1687
  0
LINE
  8
0
 10
100.94
 20
-43.1687
 11
100.67
 21
-42.75
  0
LINE
  8
0
 10
100.67
 20
-42.75
 11
100.442
 21
-42.3064
  0
LINE
  8
0
 10
100.442
 20
-42.3064
 11
100.26
 21
-41.8424
  0
LINE
  8
0
 10
100.26
 20
-41.8424
 11
100.125
 21
-41.3626
  0
LINE
  8
0
 10
100.125
 20
-41.3626
 11
100.039
 21
-40.8717
  0
LINE
  8
0
 10
100.039
 20
-40.8717
 11
100.002
 21
-40.3746
  0
LINE
  8
0
 10
100.002
 20
-40.3746
 11
100.014
 21
-39.8763
  0
LINE
  8
0
 10
100.014
 20
-39.8763
 11
100.076
 21
-39.3818
  0
LINE
  8
0
 10
100.076
 20
-39.3818
 11
100.187
 21
-38.8958
  0
LINE
  8
0
 10
100.187
 20
-38.8958
 11
100.346
 21
-38.4233
  0
LINE
  8
0
 10
100.346
 20
-38.4233
 11
100.551
 21
-37.9689
  0
LINE
  8
0
 10
100.551
 20
-37.9689
 11
100.8
 21
-37.5373
  0
LINE
  8
0
 10
100.8
 20
-37.5373
 11
101.091
 21
-37.1325
  0
LINE
  8
0
 10
101.091
 20
-37.1325
 11
101.421
 21
-36.7588
  0
LINE
  8
0
 10
101.421
 20
-36.7588
 11
101.786
 21
-36.4198
  0
LINE
  8
0
 10
101.786
 20
-36.4198
 11
102.183
 21
-36.1188
  0
LINE
  8
0
 10
102.183
 20
-36.1188
 11
102.609
 21
-35.8589
  0
LINE
  8
0
 10
102.609
 20
-35.8589
 11
103.058
 21
-35.6426
  0
LINE
  8
0
 10
103.058
 20
-35.6426
 11
103.526
 21
-35.4721
  0
LINE
  8
0
 10
103.526
 20
-35.4721
 11
104.009
 21
-35.3491
  0
LINE
  8
0
 10
104.009
 20
-35.3491
 11
104.502
 21
-35.2748
  0
LINE
  8
0
 10
104.502
 20
-35.2748
 11
105
 21
-35.25
  0
LINE
  8
0
 10
105
 20
-35.25
 11
105.498
 21
-35.2748
  0
LINE
  8
0
 10
105.498
 20
-35.2748
 11
105.991
 21
-35.3491
  0
LINE
  8
0
 10
105.991
 20
-35.3491
 11
106.474
 21
-35.4721
  0
LINE
  8
0
 10
106.474
 20
-35.4721
 11
106.942
 21
-35.6426
  0
LINE
  8
0
 10
106.942
 20
-35.6426
 11
107.391
 21
-35.8589
  0
LINE
  8
0
 10
107.391
 20
-35.8589
 11
107.817
 21
-36.1188
  0
LINE
  8
0
 10
107.817
 20
-36.1188
 11
108.214
 21
-36.4198
  0
LINE
  8
0
 10
108.214
 20
-36.4198
 11
108.579
 21
-36.7588
  0
LINE
  8
0
 10
108.579
 20
-36.7588
 11
108.909
 21
-37.1325
  0
LINE
  8
0
 10
108.909
 20
-37.1325
 11
109.2
 21
-37.5373
  0
LINE
  8
0
 10
109.2
 20
-37.5373
 11
109.449
 21
-37.9689
  0
LINE
  8
0
 10
109.449
 20
-37.9689
 11
109.654
 21
-38.4233
  0
LINE
  8
0
 10
109.654
 20
-38.4233
 11
109.813
 21
-38.8958
  0
LINE
  8
0
 10
109.813
 20
-38.8958
 11
109.924
 21
-39.3818
  0
LINE
  8
0
 10
109.924
 20
-39.3818
 11
109.986
 21
-39.8763
  0
LINE
  8
0
 10
109.986
 20
-39.8763
 11
109.998
 21
-40.3746
  0
LINE
  8
0
 10
109.998
 20
-40.3746
 11
109.961
 21
-40.8717
  0
LINE
  8
0
 10
109.961
 20
-40.8717
 11
109.875
 21
-41.3626
  0
LINE
  8
0
 10
109.875
 20
-41.3626
 11
109.74
 21
-41.8424
  0
LINE
  8
0
 10
109.74
 20
-41.8424
 11
109.558
 21
-42.3064
  0
LINE
  8
0
 10
109.558
 20
-42.3064
 11
109.33
 21
-42.75
  0
LINE
  8
0
 10
109.33
 20
-42.75
 11
109.06
 21
-43.1687
  0
LINE
  8
0
 10
109.06
 20
-43.1687
 11
108.749
 21
-43.5584
  0
LINE
  8
0
 10
108.749
 20
-43.5584
 11
108.401
 21
-43.9153
  0
LINE
  8
0
 10
108.401
 20
-43.9153
 11
108.019
 21
-44.2357
  0
LINE
  8
0
 10
108.019
 20
-44.2357
 11
107.607
 21
-44.5164
  0
LINE
  8
0
 10
107.607
 20
-44.5164
 11
107.169
 21
-44.7548
  0
LINE
  8
0
 10
107.169
 20
-44.7548
 11
106.71
 21
-44.9485
  0
LINE
  8
0
 10
106.71
 20
-44.9485
 11
106.234
 21
-45.0954
  0
LINE
  8
0
 10
106.234
 20
-45.0954
 11
105.745
 21
-45.1942
  0
LINE
  8
0
 10
105.745
 20
-45.1942
 11
105.249
 21
-45.2438
  0
LINE
  8
0
 10
105.249
 20
-45.2438
 11
104.751
 21
-45.2438
  0
LINE
  8
0
 10
-0.24881
 20
-44.4426
 11
-0.742935
 21
-44.3838
  0
LINE
  8
0
 10
-0.742935
 20
-44.3838
 11
-1.22662
 21
-44.2669
  0
LINE
  8
0
 10
-1.22662
 20
-44.2669
 11
-1.69312
 21
-44.0936
  0
LINE
  8
0
 10
-1.69312
 20
-44.0936
 11
-2.13582
 21
-43.8664
  0
LINE
  8
0
 10
-2.13582
 20
-43.8664
 11
-2.54855
 21
-43.5884
  0
LINE
  8
0
 10
-2.54855
 20
-43.5884
 11
-2.92551
 21
-43.2635
  0
LINE
  8
0
 10
-2.92551
 20
-43.2635
 11
-3.2614
 21
-42.8964
  0
LINE
  8
0
 10
-3.2614
 20
-42.8964
 11
-3.5515
 21
-42.4921
  0
LINE
  8
0
 10
-3.5515
 20
-42.4921
 11
-3.79175
 21
-42.0563
  0
LINE
  8
0
 10
-3.79175
 20
-42.0563
 11
-3.97876
 21
-41.5951
  0
LINE
  8
0
 10
-3.97876
 20
-41.5951
 11
-4.10992
 21
-41.1151
  0
LINE
  8
0
 10
-4.10992
 20
-41.1151
 11
-4.1834
 21
-40.6229
  0
LINE
  8
0
 10
-4.1834
 20
-40.6229
 11
-4.19815
 21
-40.1255
  0
LINE
  8
0
 10
-4.19815
 20
-40.1255
 11
-4.15396
 21
-39.6299
  0
LINE
  8
0
 10
-4.15396
 20
-39.6299
 11
-4.05147
 21
-39.1429
  0
LINE
  8
0
 10
-4.05147
 20
-39.1429
 11
-3.89209
 21
-38.6715
  0
LINE
  8
0
 10
-3.89209
 20
-38.6715
 11
-3.67809
 21
-38.2223
  0
LINE
  8
0
 10
-3.67809
 20
-38.2223
 11
-3.41243
 21
-37.8015
  0
LINE
  8
0
 10
-3.41243
 20
-37.8015
 11
-3.09889
 21
-37.4151
  0
LINE
  8
0
 10
-3.09889
 20
-37.4151
 11
-2.74185
 21
-37.0685
  0
LINE
  8
0
 10
-2.74185
 20
-37.0685
 11
-2.34631
 21
-36.7665
  0
LINE
  8
0
 10
-2.34631
 20
-36.7665
 11
-1.91783
 21
-36.5134
  0
LINE
  8
0
 10
-1.91783
 20
-36.5134
 11
-1.46243
 21
-36.3128
  0
LINE
  8
0
 10
-1.46243
 20
-36.3128
 11
-0.986511
 21
-36.1675
  0
LINE
  8
0
 10
-0.986511
 20
-36.1675
 11
-0.496735
 21
-36.0795
  0
LINE
  8
0
 10
-0.496735
 20
-36.0795
 11
0
 21
-36.05
  0
LINE
  8
0
 10
0
 20
-36.05
 11
0.496735
 21
-36.0795
  0
LINE
  8
0
 10
0.496735
 20
-36.0795
 11
0.986511
 21
-36.1675
  0
LINE
  8
0
 10
0.986511
 20
-36.1675
 11
1.46243
 21
-36.3128
  0
LINE
  8
0
 10
1.46243
 20
-36.3128
 11
1.91783
 21
-36.5134
  0
LINE
  8
0
 10
1.91783
 20
-36.5134
 11
2.34631
 21
-36.7665
  0
LINE
  8
0
 10
2.34631
 20
-36.7665
 11
2.74185
 21
-37.0685
  0
LINE
  8
0
 10
2.74185
 20
-37.0685
 11
3.09889
 21
-37.4151
  0
LINE
  8
0
 10
3.09889
 20
-37.4151
 11
3.41243
 21
-37.8015
  0
LINE
  8
0
 10
3.41243
 20
-37.8015
 11
3.67809
 21
-38.2223
  0
LINE
  8
0
 10
3.67809
 20
-38.2223
 11
3.89209
 21
-38.6715
  0
LINE
  8
0
 10
3.89209
 20
-38.6715
 11
4.05147
 21
-39.1429
  0
LINE
  8
0
 10
4.05147
 20
-39.1429
 11
4.15396
 21
-39.6299
  0
LINE
  8
0
 10
4.15396
 20
-39.6299
 11
4.19815
 21
-40.1255
  0
LINE
  8
0
 10
4.19815
 20
-40.1255
 11
4.1834
 21
-40.6229
  0
LINE
  8
0
 10
4.1834
 20
-40.6229
 11
4.10992
 21
-41.1151
  0
LINE
  8
0
 10
4.10992
 20
-41.1151
 11
3.97876
 21
-41.5951
  0
LINE
  8
0
 10
3.97876
 20
-41.5951
 11
3.79175
 21
-42.0563
  0
LINE
  8
0
 10
3.79175
 20
-42.0563
 11
3.5515
 21
-42.4921
  0
LINE
  8
0
 10
3.5515
 20
-42.4921
 11
3.2614
 21
-42.8964
  0
LINE
  8
0
 10
3.2614
 20
-42.8964
 11
2.92551
 21
-43.2635
  0
LINE
  8
0
 10
2.92551
 20
-43.2635
 11
2.54855
 21
-43.5884
  0
LINE
  8
0
 10
2.54855
 20
-43.5884
 11
2.13582
 21
-43.8664
  0
LINE
  8
0
 10
2.13582
 20
-43.8664
 11
1.69312
 21
-44.0936
  0
LINE
  8
0
 10
1.69312
 20
-44.0936
 11
1.22662
 21
-44.2669
  0
LINE
  8
0
 10
1.22662
 20
-44.2669
 11
0.742935
 21
-44.3838
  0
LINE
  8
0
 10
0.742935
 20
-44.3838
 11
0.24881
 21
-44.4426
  0
LINE
  8
0
 10
0.24881
 20
-44.4426
 11
-0.24881
 21
-44.4426
  0
LINE
  8
0
 10
114.5
 20
-42.75
 11
114.5
 21
-37.75
  0
LINE
  8
0
 10
114.5
 20
-37.75
 11
117.5
 21
-37.75
  0
LINE
  8
0
 10
117.5
 20
-37.75
 11
117.5
 21
-42.75
  0
LINE
  8
0
 10
117.5
 20
-42.75
 11
114.5
 21
-42.75
  0
LINE
  8
0
 10
92.5
 20
-42.75
 11
92.5
 21
-37.75
  0
LINE
  8
0
 10
92.5
 20
-37.75
 11
95.5
 21
-37.75
  0
LINE
  8
0
 10
95.5
 20
-37.75
 11
95.5
 21
-42.75
  0
LINE
  8
0
 10
95.5
 20
-42.75
 11
92.5
 21
-42.75
  0
LINE
  8
0
 10
-117.5
 20
-42.75
 11
-117.5
 21
-37.75
  0
LINE
  8
0
 10
-117.5
 20
-37.75
 11
-114.5
 21
-37.75
  0
LINE
  8
0
 10
-114.5
 20
-37.75
 11
-114.5
 21
-42.75
  0
LINE
  8
0
 10
-114.5
 20
-42.75
 11
-117.5
 21
-42.75
  0
LINE
  8
0
 10
-95.5
 20
-42.75
 11
-95.5
 21
-37.75
  0
LINE
  8
0
 10
-95.5
 20
-37.75
 11
-92.5
 21
-37.75
  0
LINE
  8
0
 10
-92.5
 20
-37.75
 11
-92.5
 21
-42.75
  0
LINE
  8
0
 10
-92.5
 20
-42.75
 11
-95.5
 21
-42.75
  0
LINE
  8
0
 10
-183.988
 20
-45.702
 11
-184.457
 21
-45.5597
  0
LINE
  8
0
 10
-184.457
 20
-45.5597
 11
-184.889
 21
-45.3287
  0
LINE
  8
0
 10
-184.889
 20
-45.3287
 11
-185.268
 21
-45.0178
  0
LINE
  8
0
 10
-185.268
 20
-45.0178
 11
-185.579
 21
-44.6389
  0
LINE
  8
0
 10
-185.579
 20
-44.6389
 11
-185.81
 21
-44.2067
  0
LINE
  8
0
 10
-185.81
 20
-44.2067
 11
-185.952
 21
-43.7377
  0
LINE
  8
0
 10
-185.952
 20
-43.7377
 11
-186
 21
-43.25
  0
LINE
  8
0
 10
-186
 20
-43.25
 11
-185.952
 21
-42.7623
  0
LINE
  8
0
 10
-185.952
 20
-42.7623
 11
-185.81
 21
-42.2933
  0
LINE
  8
0
 10
-185.81
 20
-42.2933
 11
-185.579
 21
-41.8611
  0
LINE
  8
0
 10
-185.579
 20
-41.8611
 11
-185.268
 21
-41.4822
  0
LINE
  8
0
 10
-185.268
 20
-41.4822
 11
-184.889
 21
-41.1713
  0
LINE
  8
0
 10
-184.889
 20
-41.1713
 11
-184.457
 21
-40.9403
  0
LINE
  8
0
 10
-184.457
 20
-40.9403
 11
-183.988
 21
-40.798
  0
LINE
  8
0
 10
-183.988
 20
-40.798
 11
-183.5
 21
-40.75
  0
LINE
  8
0
 10
-183.5
 20
-40.75
 11
-183.012
 21
-40.798
  0
LINE
  8
0
 10
-183.012
 20
-40.798
 11
-182.543
 21
-40.9403
  0
LINE
  8
0
 10
-182.543
 20
-40.9403
 11
-182.111
 21
-41.1713
  0
LINE
  8
0
 10
-182.111
 20
-41.1713
 11
-181.732
 21
-41.4822
  0
LINE
  8
0
 10
-181.732
 20
-41.4822
 11
-181.421
 21
-41.8611
  0
LINE
  8
0
 10
-181.421
 20
-41.8611
 11
-181.19
 21
-42.2933
  0
LINE
  8
0
 10
-181.19
 20
-42.2933
 11
-181.048
 21
-42.7623
  0
LINE
  8
0
 10
-181.048
 20
-42.7623
 11
-181
 21
-43.25
  0
LINE
  8
0
 10
-181
 20
-43.25
 11
-181.048
 21
-43.7377
  0
LINE
  8
0
 10
-181.048
 20
-43.7377
 11
-181.19
 21
-44.2067
  0
LINE
  8
0
 10
-181.19
 20
-44.2067
 11
-181.421
 21
-44.6389
  0
LINE
  8
0
 10
-181.421
 20
-44.6389
 11
-181.732
 21
-45.0178
  0
LINE
  8
0
 10
-181.732
 20
-45.0178
 11
-182.111
 21
-45.3287
  0
LINE
  8
0
 10
-182.111
 20
-45.3287
 11
-182.543
 21
-45.5597
  0
LINE
  8
0
 10
-182.543
 20
-45.5597
 11
-183.012
 21
-45.702
  0
LINE
  8
0
 10
-183.012
 20
-45.702
 11
-183.5
 21
-45.75
  0
LINE
  8
0
 10
-183.5
 20
-45.75
 11
-183.988
 21
-45.702
  0
LINE
  8
0
 10
183.012
 20
-45.702
 11
182.543
 21
-45.5597
  0
LINE
  8
0
 10
182.543
 20
-45.5597
 11
182.111
 21
-45.3287
  0
LINE
  8
0
 10
182.111
 20
-45.3287
 11
181.732
 21
-45.0178
  0
LINE
  8
0
 10
181.732
 20
-45.0178
 11
181.421
 21
-44.6389
  0
LINE
  8
0
 10
181.421
 20
-44.6389
 11
181.19
 21
-44.2067
  0
LINE
  8
0
 10
181.19
 20
-44.2067
 11
181.048
 21
-43.7377
  0
LINE
  8
0
 10
181.048
 20
-43.7377
 11
181
 21
-43.25
  0
LINE
  8
0
 10
181
 20
-43.25
 11
181.048
 21
-42.7623
  0
LINE
  8
0
 10
181.048
 20
-42.7623
 11
181.19
 21
-42.2933
  0
LINE
  8
0
 10
181.19
 20
-42.2933
 11
181.421
 21
-41.8611
  0
LINE
  8
0
 10
181.421
 20
-41.8611
 11
181.732
 21
-41.4822
  0
LINE
  8
0
 10
181.732
 20
-41.4822
 11
182.111
 21
-41.1713
  0
LINE
  8
0
 10
182.111
 20
-41.1713
 11
182.543
 21
-40.9403
  0
LINE
  8
0
 10
182.543
 20
-40.9403
 11
183.012
 21
-40.798
  0
LINE
  8
0
 10
183.012
 20
-40.798
 11
183.5
 21
-40.75
  0
LINE
  8
0
 10
183.5
 20
-40.75
 11
183.988
 21
-40.798
  0
LINE
  8
0
 10
183.988
 20
-40.798
 11
184.457
 21
-40.9403
  0
LINE
  8
0
 10
184.457
 20
-40.9403
 11
184.889
 21
-41.1713
  0
LINE
  8
0
 10
184.889
 20
-41.1713
 11
185.268
 21
-41.4822
  0
LINE
  8
0
 10
185.268
 20
-41.4822
 11
185.579
 21
-41.8611
  0
LINE
  8
0
 10
185.579
 20
-41.8611
 11
185.81
 21
-42.2933
  0
LINE
  8
0
 10
185.81
 20
-42.2933
 11
185.952
 21
-42.7623
  0
LINE
  8
0
 10
185.952
 20
-42.7623
 11
186
 21
-43.25
  0
LINE
  8
0
 10
186
 20
-43.25
 11
185.952
 21
-43.7377
  0
LINE
  8
0
 10
185.952
 20
-43.7377
 11
185.81
 21
-44.2067
  0
LINE
  8
0
 10
185.81
 20
-44.2067
 11
185.579
 21
-44.6389
  0
LINE
  8
0
 10
185.579
 20
-44.6389
 11
185.268
 21
-45.0178
  0
LINE
  8
0
 10
185.268
 20
-45.0178
 11
184.889
 21
-45.3287
  0
LINE
  8
0
 10
184.889
 20
-45.3287
 11
184.457
 21
-45.5597
  0
LINE
  8
0
 10
184.457
 20
-45.5597
 11
183.988
 21
-45.702
  0
LINE
  8
0
 10
183.988
 20
-45.702
 11
183.5
 21
-45.75
  0
LINE
  8
0
 10
183.5
 20
-45.75
 11
183.012
 21
-45.702
  0
ENDSEC
  0
SECTION
  2
OBJECTS
  0
DICTIONARY
  0
ENDSEC
  0
EOF
