  0
SECTION
  2
BLOCKS
  0
ENDSEC
  0
SECTION
  2
ENTITIES
  0
LINE
  8
0
 10
-159.29
 20
-55.1399
 11
-159.547
 21
-54.7141
  0
LINE
  8
0
 10
-159.547
 20
-54.7141
 11
-159.784
 21
-54.2771
  0
LINE
  8
0
 10
-159.784
 20
-54.2771
 11
-160.001
 21
-53.8298
  0
LINE
  8
0
 10
-160.001
 20
-53.8298
 11
-160.198
 21
-53.3732
  0
LINE
  8
0
 10
-160.198
 20
-53.3732
 11
-160.374
 21
-52.9082
  0
LINE
  8
0
 10
-160.374
 20
-52.9082
 11
-160.529
 21
-52.4357
  0
LINE
  8
0
 10
-160.529
 20
-52.4357
 11
-160.662
 21
-51.9567
  0
LINE
  8
0
 10
-160.662
 20
-51.9567
 11
-160.773
 21
-51.4721
  0
LINE
  8
0
 10
-160.773
 20
-51.4721
 11
-160.863
 21
-50.983
  0
LINE
  8
0
 10
-160.863
 20
-50.983
 11
-160.93
 21
-50.4904
  0
LINE
  8
0
 10
-160.93
 20
-50.4904
 11
-160.975
 21
-49.9953
  0
LINE
  8
0
 10
-160.975
 20
-49.9953
 11
-160.997
 21
-49.4986
  0
LINE
  8
0
 10
-160.997
 20
-49.4986
 11
-160.997
 21
-49.0014
  0
LINE
  8
0
 10
-160.997
 20
-49.0014
 11
-160.975
 21
-48.5047
  0
LINE
  8
0
 10
-160.975
 20
-48.5047
 11
-160.93
 21
-48.0096
  0
LINE
  8
0
 10
-160.93
 20
-48.0096
 11
-160.863
 21
-47.5169
  0
LINE
  8
0
 10
-160.863
 20
-47.5169
 11
-160.773
 21
-47.0279
  0
LINE
  8
0
 10
-160.773
 20
-47.0279
 11
-160.662
 21
-46.5433
  0
LINE
  8
0
 10
-160.662
 20
-46.5433
 11
-160.529
 21
-46.0643
  0
LINE
  8
0
 10
-160.529
 20
-46.0643
 11
-160.374
 21
-45.5918
  0
LINE
  8
0
 10
-160.374
 20
-45.5918
 11
-160.198
 21
-45.1268
  0
LINE
  8
0
 10
-160.198
 20
-45.1268
 11
-160.001
 21
-44.6702
  0
LINE
  8
0
 10
-160.001
 20
-44.6702
 11
-159.784
 21
-44.2229
  0
LINE
  8
0
 10
-159.784
 20
-44.2229
 11
-159.547
 21
-43.7859
  0
LINE
  8
0
 10
-159.547
 20
-43.7859
 11
-159.29
 21
-43.3601
  0
LINE
  8
0
 10
-159.29
 20
-43.3601
 11
-159.015
 21
-42.9463
  0
LINE
  8
0
 10
-159.015
 20
-42.9463
 11
-158.721
 21
-42.5454
  0
LINE
  8
0
 10
-158.721
 20
-42.5454
 11
-158.409
 21
-42.1582
  0
LINE
  8
0
 10
-158.409
 20
-42.1582
 11
-158.08
 21
-41.7855
  0
LINE
  8
0
 10
-158.08
 20
-41.7855
 11
-157.734
 21
-41.428
  0
LINE
  8
0
 10
-157.734
 20
-41.428
 11
-157.373
 21
-41.0865
  0
LINE
  8
0
 10
-157.373
 20
-41.0865
 11
-156.996
 21
-40.7617
  0
LINE
  8
0
 10
-156.996
 20
-40.7617
 11
-156.606
 21
-40.4542
  0
LINE
  8
0
 10
-156.606
 20
-40.4542
 11
-156.201
 21
-40.1647
  0
LINE
  8
0
 10
-156.201
 20
-40.1647
 11
-155.785
 21
-39.8938
  0
LINE
  8
0
 10
-155.785
 20
-39.8938
 11
-155.356
 21
-39.6419
  0
LINE
  8
0
 10
-155.356
 20
-39.6419
 11
-154.916
 21
-39.4097
  0
LINE
  8
0
 10
-154.916
 20
-39.4097
 11
-154.467
 21
-39.1976
  0
LINE
  8
0
 10
-154.467
 20
-39.1976
 11
-154.008
 21
-39.0061
  0
LINE
  8
0
 10
-154.008
 20
-39.0061
 11
-153.541
 21
-38.8354
  0
LINE
  8
0
 10
-153.541
 20
-38.8354
 11
-153.067
 21
-38.6861
  0
LINE
  8
0
 10
-153.067
 20
-38.6861
 11
-152.586
 21
-38.5583
  0
LINE
  8
0
 10
-152.586
 20
-38.5583
 11
-152.1
 21
-38.4524
  0
LINE
  8
0
 10
-152.1
 20
-38.4524
 11
-151.61
 21
-38.3685
  0
LINE
  8
0
 10
-151.61
 20
-38.3685
 11
-151.117
 21
-38.3068
  0
LINE
  8
0
 10
-151.117
 20
-38.3068
 11
-150.621
 21
-38.2675
  0
LINE
  8
0
 10
-150.621
 20
-38.2675
 11
-150.124
 21
-38.2507
  0
LINE
  8
0
 10
-150.124
 20
-38.2507
 11
-149.627
 21
-38.2563
  0
LINE
  8
0
 10
-149.627
 20
-38.2563
 11
-149.131
 21
-38.2844
  0
LINE
  8
0
 10
-149.131
 20
-38.2844
 11
-148.636
 21
-38.3349
  0
LINE
  8
0
 10
-148.636
 20
-38.3349
 11
-148.144
 21
-38.4077
  0
LINE
  8
0
 10
-148.144
 20
-38.4077
 11
-147.656
 21
-38.5026
  0
LINE
  8
0
 10
-147.656
 20
-38.5026
 11
-147.173
 21
-38.6195
  0
LINE
  8
0
 10
-147.173
 20
-38.6195
 11
-146.696
 21
-38.7581
  0
LINE
  8
0
 10
-146.696
 20
-38.7581
 11
-146.225
 21
-38.9181
  0
LINE
  8
0
 10
-146.225
 20
-38.9181
 11
-145.762
 21
-39.0993
  0
LINE
  8
0
 10
-145.762
 20
-39.0993
 11
-145.307
 21
-39.3011
  0
LINE
  8
0
 10
-145.307
 20
-39.3011
 11
-144.863
 21
-39.5233
  0
LINE
  8
0
 10
-144.863
 20
-39.5233
 11
-144.428
 21
-39.7654
  0
LINE
  8
0
 10
-144.428
 20
-39.7654
 11
-144.005
 21
-40.0269
  0
LINE
  8
0
 10
-144.005
 20
-40.0269
 11
-143.595
 21
-40.3072
  0
LINE
  8
0
 10
-143.595
 20
-40.3072
 11
-143.197
 21
-40.6057
  0
LINE
  8
0
 10
-143.197
 20
-40.6057
 11
-142.814
 21
-40.922
  0
LINE
  8
0
 10
-142.814
 20
-40.922
 11
-142.445
 21
-41.2552
  0
LINE
  8
0
 10
-142.445
 20
-41.2552
 11
-142.091
 21
-41.6048
  0
LINE
  8
0
 10
-142.091
 20
-41.6048
 11
-141.754
 21
-41.97
  0
LINE
  8
0
 10
-141.754
 20
-41.97
 11
-141.433
 21
-42.35
  0
LINE
  8
0
 10
-141.433
 20
-42.35
 11
-141.13
 21
-42.7442
  0
LINE
  8
0
 10
-141.13
 20
-42.7442
 11
-140.845
 21
-43.1516
  0
LINE
  8
0
 10
-140.845
 20
-43.1516
 11
-140.579
 21
-43.5716
  0
LINE
  8
0
 10
-140.579
 20
-43.5716
 11
-140.332
 21
-44.0031
  0
LINE
  8
0
 10
-140.332
 20
-44.0031
 11
-140.105
 21
-44.4453
  0
LINE
  8
0
 10
-140.105
 20
-44.4453
 11
-139.898
 21
-44.8973
  0
LINE
  8
0
 10
-139.898
 20
-44.8973
 11
-139.711
 21
-45.3583
  0
LINE
  8
0
 10
-139.711
 20
-45.3583
 11
-139.546
 21
-45.8272
  0
LINE
  8
0
 10
-139.546
 20
-45.8272
 11
-139.402
 21
-46.3031
  0
LINE
  8
0
 10
-139.402
 20
-46.3031
 11
-139.28
 21
-46.785
  0
LINE
  8
0
 10
-139.28
 20
-46.785
 11
-139.179
 21
-47.2719
  0
LINE
  8
0
 10
-139.179
 20
-47.2719
 11
-139.101
 21
-47.7629
  0
LINE
  8
0
 10
-139.101
 20
-47.7629
 11
-139.045
 21
-48.2569
  0
LINE
  8
0
 10
-139.045
 20
-48.2569
 11
-139.011
 21
-48.7529
  0
LINE
  8
0
 10
-139.011
 20
-48.7529
 11
-139
 21
-49.25
  0
LINE
  8
0
 10
-139
 20
-49.25
 11
-139.011
 21
-49.7471
  0
LINE
  8
0
 10
-139.011
 20
-49.7471
 11
-139.045
 21
-50.2431
  0
LINE
  8
0
 10
-139.045
 20
-50.2431
 11
-139.101
 21
-50.7371
  0
LINE
  8
0
 10
-139.101
 20
-50.7371
 11
-139.179
 21
-51.2281
  0
LINE
  8
0
 10
-139.179
 20
-51.2281
 11
-139.28
 21
-51.715
  0
LINE
  8
0
 10
-139.28
 20
-51.715
 11
-139.402
 21
-52.1969
  0
LINE
  8
0
 10
-139.402
 20
-52.1969
 11
-139.546
 21
-52.6728
  0
LINE
  8
0
 10
-139.546
 20
-52.6728
 11
-139.711
 21
-53.1417
  0
LINE
  8
0
 10
-139.711
 20
-53.1417
 11
-139.898
 21
-53.6026
  0
LINE
  8
0
 10
-139.898
 20
-53.6026
 11
-140.105
 21
-54.0547
  0
LINE
  8
0
 10
-140.105
 20
-54.0547
 11
-140.332
 21
-54.4969
  0
LINE
  8
0
 10
-140.332
 20
-54.4969
 11
-140.579
 21
-54.9284
  0
LINE
  8
0
 10
-140.579
 20
-54.9284
 11
-140.783
 21
-55.25
  0
LINE
  8
0
 10
-140.783
 20
-55.25
 11
-99.0147
 21
-55.25
  0
LINE
  8
0
 10
-99.0147
 20
-55.25
 11
-95.5
 21
-51.7353
  0
LINE
  8
0
 10
-95.5
 20
-51.7353
 11
-95.5
 21
-50.25
  0
LINE
  8
0
 10
-95.5
 20
-50.25
 11
-36.052
 21
-50.25
  0
LINE
  8
0
 10
-36.052
 20
-50.25
 11
-36.052
 21
-51.7353
  0
LINE
  8
0
 10
-36.052
 20
-51.7353
 11
-32.5373
 21
-55.25
  0
LINE
  8
0
 10
-32.5373
 20
-55.25
 11
-9.21692
 21
-55.25
  0
LINE
  8
0
 10
-9.21692
 20
-55.25
 11
-9.29027
 21
-55.1399
  0
LINE
  8
0
 10
-9.29027
 20
-55.1399
 11
-9.54692
 21
-54.7141
  0
LINE
  8
0
 10
-9.54692
 20
-54.7141
 11
-9.78407
 21
-54.2771
  0
LINE
  8
0
 10
-9.78407
 20
-54.2771
 11
-10.0013
 21
-53.8298
  0
LINE
  8
0
 10
-10.0013
 20
-53.8298
 11
-10.198
 21
-53.3732
  0
LINE
  8
0
 10
-10.198
 20
-53.3732
 11
-10.3739
 21
-52.9082
  0
LINE
  8
0
 10
-10.3739
 20
-52.9082
 11
-10.5286
 21
-52.4357
  0
LINE
  8
0
 10
-10.5286
 20
-52.4357
 11
-10.6618
 21
-51.9567
  0
LINE
  8
0
 10
-10.6618
 20
-51.9567
 11
-10.7732
 21
-51.4721
  0
LINE
  8
0
 10
-10.7732
 20
-51.4721
 11
-10.8626
 21
-50.983
  0
LINE
  8
0
 10
-10.8626
 20
-50.983
 11
-10.9298
 21
-50.4904
  0
LINE
  8
0
 10
-10.9298
 20
-50.4904
 11
-10.9747
 21
-49.9953
  0
LINE
  8
0
 10
-10.9747
 20
-49.9953
 11
-10.9972
 21
-49.4986
  0
LINE
  8
0
 10
-10.9972
 20
-49.4986
 11
-10.9972
 21
-49.0014
  0
LINE
  8
0
 10
-10.9972
 20
-49.0014
 11
-10.9747
 21
-48.5047
  0
LINE
  8
0
 10
-10.9747
 20
-48.5047
 11
-10.9298
 21
-48.0096
  0
LINE
  8
0
 10
-10.9298
 20
-48.0096
 11
-10.8626
 21
-47.5169
  0
LINE
  8
0
 10
-10.8626
 20
-47.5169
 11
-10.7732
 21
-47.0279
  0
LINE
  8
0
 10
-10.7732
 20
-47.0279
 11
-10.6618
 21
-46.5433
  0
LINE
  8
0
 10
-10.6618
 20
-46.5433
 11
-10.5286
 21
-46.0643
  0
LINE
  8
0
 10
-10.5286
 20
-46.0643
 11
-10.3739
 21
-45.5918
  0
LINE
  8
0
 10
-10.3739
 20
-45.5918
 11
-10.198
 21
-45.1268
  0
LINE
  8
0
 10
-10.198
 20
-45.1268
 11
-10.0013
 21
-44.6702
  0
LINE
  8
0
 10
-10.0013
 20
-44.6702
 11
-9.78407
 21
-44.2229
  0
LINE
  8
0
 10
-9.78407
 20
-44.2229
 11
-9.54692
 21
-43.7859
  0
LINE
  8
0
 10
-9.54692
 20
-43.7859
 11
-9.29027
 21
-43.3601
  0
LINE
  8
0
 10
-9.29027
 20
-43.3601
 11
-9.01462
 21
-42.9463
  0
LINE
  8
0
 10
-9.01462
 20
-42.9463
 11
-8.72057
 21
-42.5454
  0
LINE
  8
0
 10
-8.72057
 20
-42.5454
 11
-8.40869
 21
-42.1582
  0
LINE
  8
0
 10
-8.40869
 20
-42.1582
 11
-8.07965
 21
-41.7855
  0
LINE
  8
0
 10
-8.07965
 20
-41.7855
 11
-7.7341
 21
-41.428
  0
LINE
  8
0
 10
-7.7341
 20
-41.428
 11
-7.37274
 21
-41.0865
  0
LINE
  8
0
 10
-7.37274
 20
-41.0865
 11
-6.99632
 21
-40.7617
  0
LINE
  8
0
 10
-6.99632
 20
-40.7617
 11
-6.60561
 21
-40.4542
  0
LINE
  8
0
 10
-6.60561
 20
-40.4542
 11
-6.2014
 21
-40.1647
  0
LINE
  8
0
 10
-6.2014
 20
-40.1647
 11
-5.78453
 21
-39.8938
  0
LINE
  8
0
 10
-5.78453
 20
-39.8938
 11
-5.35583
 21
-39.6419
  0
LINE
  8
0
 10
-5.35583
 20
-39.6419
 11
-4.9162
 21
-39.4097
  0
LINE
  8
0
 10
-4.9162
 20
-39.4097
 11
-4.46652
 21
-39.1976
  0
LINE
  8
0
 10
-4.46652
 20
-39.1976
 11
-4.00772
 21
-39.0061
  0
LINE
  8
0
 10
-4.00772
 20
-39.0061
 11
-3.54073
 21
-38.8354
  0
LINE
  8
0
 10
-3.54073
 20
-38.8354
 11
-3.06651
 21
-38.6861
  0
LINE
  8
0
 10
-3.06651
 20
-38.6861
 11
-2.58601
 21
-38.5583
  0
LINE
  8
0
 10
-2.58601
 20
-38.5583
 11
-2.10025
 21
-38.4524
  0
LINE
  8
0
 10
-2.10025
 20
-38.4524
 11
-1.61018
 21
-38.3685
  0
LINE
  8
0
 10
-1.61018
 20
-38.3685
 11
-1.11684
 21
-38.3068
  0
LINE
  8
0
 10
-1.11684
 20
-38.3068
 11
-0.621201
 21
-38.2675
  0
LINE
  8
0
 10
-0.621201
 20
-38.2675
 11
-0.124298
 21
-38.2507
  0
LINE
  8
0
 10
-0.124298
 20
-38.2507
 11
0.372849
 21
-38.2563
  0
LINE
  8
0
 10
0.372849
 20
-38.2563
 11
0.869232
 21
-38.2844
  0
LINE
  8
0
 10
0.869232
 20
-38.2844
 11
1.36386
 21
-38.3349
  0
LINE
  8
0
 10
1.36386
 20
-38.3349
 11
1.85568
 21
-38.4077
  0
LINE
  8
0
 10
1.85568
 20
-38.4077
 11
2.34373
 21
-38.5026
  0
LINE
  8
0
 10
2.34373
 20
-38.5026
 11
2.82698
 21
-38.6195
  0
LINE
  8
0
 10
2.82698
 20
-38.6195
 11
3.30446
 21
-38.7581
  0
LINE
  8
0
 10
3.30446
 20
-38.7581
 11
3.77519
 21
-38.9181
  0
LINE
  8
0
 10
3.77519
 20
-38.9181
 11
4.2382
 21
-39.0993
  0
LINE
  8
0
 10
4.2382
 20
-39.0993
 11
4.69257
 21
-39.3011
  0
LINE
  8
0
 10
4.69257
 20
-39.3011
 11
5.13733
 21
-39.5233
  0
LINE
  8
0
 10
5.13733
 20
-39.5233
 11
5.57161
 21
-39.7654
  0
LINE
  8
0
 10
5.57161
 20
-39.7654
 11
5.99449
 21
-40.0269
  0
LINE
  8
0
 10
5.99449
 20
-40.0269
 11
6.40514
 21
-40.3072
  0
LINE
  8
0
 10
6.40514
 20
-40.3072
 11
6.8027
 21
-40.6057
  0
LINE
  8
0
 10
6.8027
 20
-40.6057
 11
7.18637
 21
-40.922
  0
LINE
  8
0
 10
7.18637
 20
-40.922
 11
7.55534
 21
-41.2552
  0
LINE
  8
0
 10
7.55534
 20
-41.2552
 11
7.90889
 21
-41.6048
  0
LINE
  8
0
 10
7.90889
 20
-41.6048
 11
8.24628
 21
-41.97
  0
LINE
  8
0
 10
8.24628
 20
-41.97
 11
8.56682
 21
-42.35
  0
LINE
  8
0
 10
8.56682
 20
-42.35
 11
8.86986
 21
-42.7442
  0
LINE
  8
0
 10
8.86986
 20
-42.7442
 11
9.15479
 21
-43.1516
  0
LINE
  8
0
 10
9.15479
 20
-43.1516
 11
9.42101
 21
-43.5716
  0
LINE
  8
0
 10
9.42101
 20
-43.5716
 11
9.66797
 21
-44.0031
  0
LINE
  8
0
 10
9.66797
 20
-44.0031
 11
9.89519
 21
-44.4453
  0
LINE
  8
0
 10
9.89519
 20
-44.4453
 11
10.1022
 21
-44.8973
  0
LINE
  8
0
 10
10.1022
 20
-44.8973
 11
10.2886
 21
-45.3583
  0
LINE
  8
0
 10
10.2886
 20
-45.3583
 11
10.4539
 21
-45.8272
  0
LINE
  8
0
 10
10.4539
 20
-45.8272
 11
10.5979
 21
-46.3031
  0
LINE
  8
0
 10
10.5979
 20
-46.3031
 11
10.7202
 21
-46.785
  0
LINE
  8
0
 10
10.7202
 20
-46.785
 11
10.8207
 21
-47.2719
  0
LINE
  8
0
 10
10.8207
 20
-47.2719
 11
10.899
 21
-47.7629
  0
LINE
  8
0
 10
10.899
 20
-47.7629
 11
10.9551
 21
-48.2569
  0
LINE
  8
0
 10
10.9551
 20
-48.2569
 11
10.9888
 21
-48.7529
  0
LINE
  8
0
 10
10.9888
 20
-48.7529
 11
11
 21
-49.25
  0
LINE
  8
0
 10
11
 20
-49.25
 11
10.9888
 21
-49.7471
  0
LINE
  8
0
 10
10.9888
 20
-49.7471
 11
10.9551
 21
-50.2431
  0
LINE
  8
0
 10
10.9551
 20
-50.2431
 11
10.899
 21
-50.7371
  0
LINE
  8
0
 10
10.899
 20
-50.7371
 11
10.8207
 21
-51.2281
  0
LINE
  8
0
 10
10.8207
 20
-51.2281
 11
10.7202
 21
-51.715
  0
LINE
  8
0
 10
10.7202
 20
-51.715
 11
10.5979
 21
-52.1969
  0
LINE
  8
0
 10
10.5979
 20
-52.1969
 11
10.4539
 21
-52.6728
  0
LINE
  8
0
 10
10.4539
 20
-52.6728
 11
10.2886
 21
-53.1417
  0
LINE
  8
0
 10
10.2886
 20
-53.1417
 11
10.1022
 21
-53.6026
  0
LINE
  8
0
 10
10.1022
 20
-53.6026
 11
9.89519
 21
-54.0547
  0
LINE
  8
0
 10
9.89519
 20
-54.0547
 11
9.66797
 21
-54.4969
  0
LINE
  8
0
 10
9.66797
 20
-54.4969
 11
9.42101
 21
-54.9284
  0
LINE
  8
0
 10
9.42101
 20
-54.9284
 11
9.21713
 21
-55.25
  0
LINE
  8
0
 10
9.21713
 20
-55.25
 11
32.5373
 21
-55.25
  0
LINE
  8
0
 10
32.5373
 20
-55.25
 11
36.052
 21
-51.7353
  0
LINE
  8
0
 10
36.052
 20
-51.7353
 11
36.052
 21
-50.25
  0
LINE
  8
0
 10
36.052
 20
-50.25
 11
95.5
 21
-50.25
  0
LINE
  8
0
 10
95.5
 20
-50.25
 11
95.5
 21
-51.7353
  0
LINE
  8
0
 10
95.5
 20
-51.7353
 11
99.0147
 21
-55.25
  0
LINE
  8
0
 10
99.0147
 20
-55.25
 11
140.783
 21
-55.25
  0
LINE
  8
0
 10
140.783
 20
-55.25
 11
140.71
 21
-55.1399
  0
LINE
  8
0
 10
140.71
 20
-55.1399
 11
140.453
 21
-54.7141
  0
LINE
  8
0
 10
140.453
 20
-54.7141
 11
140.216
 21
-54.2771
  0
LINE
  8
0
 10
140.216
 20
-54.2771
 11
139.999
 21
-53.8298
  0
LINE
  8
0
 10
139.999
 20
-53.8298
 11
139.802
 21
-53.3732
  0
LINE
  8
0
 10
139.802
 20
-53.3732
 11
139.626
 21
-52.9082
  0
LINE
  8
0
 10
139.626
 20
-52.9082
 11
139.471
 21
-52.4357
  0
LINE
  8
0
 10
139.471
 20
-52.4357
 11
139.338
 21
-51.9567
  0
LINE
  8
0
 10
139.338
 20
-51.9567
 11
139.227
 21
-51.4721
  0
LINE
  8
0
 10
139.227
 20
-51.4721
 11
139.137
 21
-50.983
  0
LINE
  8
0
 10
139.137
 20
-50.983
 11
139.07
 21
-50.4904
  0
LINE
  8
0
 10
139.07
 20
-50.4904
 11
139.025
 21
-49.9953
  0
LINE
  8
0
 10
139.025
 20
-49.9953
 11
139.003
 21
-49.4986
  0
LINE
  8
0
 10
139.003
 20
-49.4986
 11
139.003
 21
-49.0014
  0
LINE
  8
0
 10
139.003
 20
-49.0014
 11
139.025
 21
-48.5047
  0
LINE
  8
0
 10
139.025
 20
-48.5047
 11
139.07
 21
-48.0096
  0
LINE
  8
0
 10
139.07
 20
-48.0096
 11
139.137
 21
-47.5169
  0
LINE
  8
0
 10
139.137
 20
-47.5169
 11
139.227
 21
-47.0279
  0
LINE
  8
0
 10
139.227
 20
-47.0279
 11
139.338
 21
-46.5433
  0
LINE
  8
0
 10
139.338
 20
-46.5433
 11
139.471
 21
-46.0643
  0
LINE
  8
0
 10
139.471
 20
-46.0643
 11
139.626
 21
-45.5918
  0
LINE
  8
0
 10
139.626
 20
-45.5918
 11
139.802
 21
-45.1268
  0
LINE
  8
0
 10
139.802
 20
-45.1268
 11
139.999
 21
-44.6702
  0
LINE
  8
0
 10
139.999
 20
-44.6702
 11
140.216
 21
-44.2229
  0
LINE
  8
0
 10
140.216
 20
-44.2229
 11
140.453
 21
-43.7859
  0
LINE
  8
0
 10
140.453
 20
-43.7859
 11
140.71
 21
-43.3601
  0
LINE
  8
0
 10
140.71
 20
-43.3601
 11
140.985
 21
-42.9463
  0
LINE
  8
0
 10
140.985
 20
-42.9463
 11
141.279
 21
-42.5454
  0
LINE
  8
0
 10
141.279
 20
-42.5454
 11
141.591
 21
-42.1582
  0
LINE
  8
0
 10
141.591
 20
-42.1582
 11
141.92
 21
-41.7855
  0
LINE
  8
0
 10
141.92
 20
-41.7855
 11
142.266
 21
-41.428
  0
LINE
  8
0
 10
142.266
 20
-41.428
 11
142.627
 21
-41.0865
  0
LINE
  8
0
 10
142.627
 20
-41.0865
 11
143.004
 21
-40.7617
  0
LINE
  8
0
 10
143.004
 20
-40.7617
 11
143.394
 21
-40.4542
  0
LINE
  8
0
 10
143.394
 20
-40.4542
 11
143.799
 21
-40.1647
  0
LINE
  8
0
 10
143.799
 20
-40.1647
 11
144.215
 21
-39.8938
  0
LINE
  8
0
 10
144.215
 20
-39.8938
 11
144.644
 21
-39.6419
  0
LINE
  8
0
 10
144.644
 20
-39.6419
 11
145.084
 21
-39.4097
  0
LINE
  8
0
 10
145.084
 20
-39.4097
 11
145.533
 21
-39.1976
  0
LINE
  8
0
 10
145.533
 20
-39.1976
 11
145.992
 21
-39.0061
  0
LINE
  8
0
 10
145.992
 20
-39.0061
 11
146.459
 21
-38.8354
  0
LINE
  8
0
 10
146.459
 20
-38.8354
 11
146.933
 21
-38.6861
  0
LINE
  8
0
 10
146.933
 20
-38.6861
 11
147.414
 21
-38.5583
  0
LINE
  8
0
 10
147.414
 20
-38.5583
 11
147.9
 21
-38.4524
  0
LINE
  8
0
 10
147.9
 20
-38.4524
 11
148.39
 21
-38.3685
  0
LINE
  8
0
 10
148.39
 20
-38.3685
 11
148.883
 21
-38.3068
  0
LINE
  8
0
 10
148.883
 20
-38.3068
 11
149.379
 21
-38.2675
  0
LINE
  8
0
 10
149.379
 20
-38.2675
 11
149.876
 21
-38.2507
  0
LINE
  8
0
 10
149.876
 20
-38.2507
 11
150.373
 21
-38.2563
  0
LINE
  8
0
 10
150.373
 20
-38.2563
 11
150.869
 21
-38.2844
  0
LINE
  8
0
 10
150.869
 20
-38.2844
 11
151.364
 21
-38.3349
  0
LINE
  8
0
 10
151.364
 20
-38.3349
 11
151.856
 21
-38.4077
  0
LINE
  8
0
 10
151.856
 20
-38.4077
 11
152.344
 21
-38.5026
  0
LINE
  8
0
 10
152.344
 20
-38.5026
 11
152.827
 21
-38.6195
  0
LINE
  8
0
 10
152.827
 20
-38.6195
 11
153.304
 21
-38.7581
  0
LINE
  8
0
 10
153.304
 20
-38.7581
 11
153.775
 21
-38.9181
  0
LINE
  8
0
 10
153.775
 20
-38.9181
 11
154.238
 21
-39.0993
  0
LINE
  8
0
 10
154.238
 20
-39.0993
 11
154.693
 21
-39.3011
  0
LINE
  8
0
 10
154.693
 20
-39.3011
 11
155.137
 21
-39.5233
  0
LINE
  8
0
 10
155.137
 20
-39.5233
 11
155.572
 21
-39.7654
  0
LINE
  8
0
 10
155.572
 20
-39.7654
 11
155.995
 21
-40.0269
  0
LINE
  8
0
 10
155.995
 20
-40.0269
 11
156.405
 21
-40.3072
  0
LINE
  8
0
 10
156.405
 20
-40.3072
 11
156.803
 21
-40.6057
  0
LINE
  8
0
 10
156.803
 20
-40.6057
 11
157.186
 21
-40.922
  0
LINE
  8
0
 10
157.186
 20
-40.922
 11
157.555
 21
-41.2552
  0
LINE
  8
0
 10
157.555
 20
-41.2552
 11
157.909
 21
-41.6048
  0
LINE
  8
0
 10
157.909
 20
-41.6048
 11
158.246
 21
-41.97
  0
LINE
  8
0
 10
158.246
 20
-41.97
 11
158.567
 21
-42.35
  0
LINE
  8
0
 10
158.567
 20
-42.35
 11
158.87
 21
-42.7442
  0
LINE
  8
0
 10
158.87
 20
-42.7442
 11
159.155
 21
-43.1516
  0
LINE
  8
0
 10
159.155
 20
-43.1516
 11
159.421
 21
-43.5716
  0
LINE
  8
0
 10
159.421
 20
-43.5716
 11
159.668
 21
-44.0031
  0
LINE
  8
0
 10
159.668
 20
-44.0031
 11
159.895
 21
-44.4453
  0
LINE
  8
0
 10
159.895
 20
-44.4453
 11
160.102
 21
-44.8973
  0
LINE
  8
0
 10
160.102
 20
-44.8973
 11
160.289
 21
-45.3583
  0
LINE
  8
0
 10
160.289
 20
-45.3583
 11
160.454
 21
-45.8272
  0
LINE
  8
0
 10
160.454
 20
-45.8272
 11
160.598
 21
-46.3031
  0
LINE
  8
0
 10
160.598
 20
-46.3031
 11
160.72
 21
-46.785
  0
LINE
  8
0
 10
160.72
 20
-46.785
 11
160.821
 21
-47.2719
  0
LINE
  8
0
 10
160.821
 20
-47.2719
 11
160.899
 21
-47.7629
  0
LINE
  8
0
 10
160.899
 20
-47.7629
 11
160.955
 21
-48.2569
  0
LINE
  8
0
 10
160.955
 20
-48.2569
 11
160.989
 21
-48.7529
  0
LINE
  8
0
 10
160.989
 20
-48.7529
 11
161
 21
-49.25
  0
LINE
  8
0
 10
161
 20
-49.25
 11
160.989
 21
-49.7471
  0
LINE
  8
0
 10
160.989
 20
-49.7471
 11
160.955
 21
-50.2431
  0
LINE
  8
0
 10
160.955
 20
-50.2431
 11
160.899
 21
-50.7371
  0
LINE
  8
0
 10
160.899
 20
-50.7371
 11
160.821
 21
-51.2281
  0
LINE
  8
0
 10
160.821
 20
-51.2281
 11
160.72
 21
-51.715
  0
LINE
  8
0
 10
160.72
 20
-51.715
 11
160.598
 21
-52.1969
  0
LINE
  8
0
 10
160.598
 20
-52.1969
 11
160.454
 21
-52.6728
  0
LINE
  8
0
 10
160.454
 20
-52.6728
 11
160.289
 21
-53.1417
  0
LINE
  8
0
 10
160.289
 20
-53.1417
 11
160.102
 21
-53.6026
  0
LINE
  8
0
 10
160.102
 20
-53.6026
 11
159.895
 21
-54.0547
  0
LINE
  8
0
 10
159.895
 20
-54.0547
 11
159.668
 21
-54.4969
  0
LINE
  8
0
 10
159.668
 20
-54.4969
 11
159.421
 21
-54.9284
  0
LINE
  8
0
 10
159.421
 20
-54.9284
 11
159.217
 21
-55.25
  0
LINE
  8
0
 10
159.217
 20
-55.25
 11
182.537
 21
-55.25
  0
LINE
  8
0
 10
182.537
 20
-55.25
 11
186.052
 21
-51.7353
  0
LINE
  8
0
 10
186.052
 20
-51.7353
 11
186.052
 21
-50.25
  0
LINE
  8
0
 10
186.052
 20
-50.25
 11
239.75
 21
-50.25
  0
LINE
  8
0
 10
239.75
 20
-50.25
 11
239.75
 21
9.75
  0
LINE
  8
0
 10
239.75
 20
9.75
 11
220.426
 21
9.75
  0
LINE
  8
0
 10
220.426
 20
9.75
 11
220.387
 21
10.1183
  0
LINE
  8
0
 10
220.387
 20
10.1183
 11
220.319
 21
10.6131
  0
LINE
  8
0
 10
220.319
 20
10.6131
 11
220.235
 21
11.1053
  0
LINE
  8
0
 10
220.235
 20
11.1053
 11
220.135
 21
11.5947
  0
LINE
  8
0
 10
220.135
 20
11.5947
 11
220.019
 21
12.0805
  0
LINE
  8
0
 10
220.019
 20
12.0805
 11
219.888
 21
12.5624
  0
LINE
  8
0
 10
219.888
 20
12.5624
 11
219.741
 21
13.0397
  0
LINE
  8
0
 10
219.741
 20
13.0397
 11
219.579
 21
13.5122
  0
LINE
  8
0
 10
219.579
 20
13.5122
 11
219.402
 21
13.9791
  0
LINE
  8
0
 10
219.402
 20
13.9791
 11
219.21
 21
14.4401
  0
LINE
  8
0
 10
219.21
 20
14.4401
 11
219.003
 21
14.8947
  0
LINE
  8
0
 10
219.003
 20
14.8947
 11
218.782
 21
15.3424
  0
LINE
  8
0
 10
218.782
 20
15.3424
 11
218.547
 21
15.7827
  0
LINE
  8
0
 10
218.547
 20
15.7827
 11
209.938
 21
30.6961
  0
LINE
  8
0
 10
209.938
 20
30.6961
 11
209.666
 21
31.1097
  0
LINE
  8
0
 10
209.666
 20
31.1097
 11
209.36
 21
31.4984
  0
LINE
  8
0
 10
209.36
 20
31.4984
 11
209.022
 21
31.8594
  0
LINE
  8
0
 10
209.022
 20
31.8594
 11
208.654
 21
32.1899
  0
LINE
  8
0
 10
208.654
 20
32.1899
 11
208.259
 21
32.4875
  0
LINE
  8
0
 10
208.259
 20
32.4875
 11
207.839
 21
32.7501
  0
LINE
  8
0
 10
207.839
 20
32.7501
 11
207.399
 21
32.9757
  0
LINE
  8
0
 10
207.399
 20
32.9757
 11
206.941
 21
33.1626
  0
LINE
  8
0
 10
206.941
 20
33.1626
 11
206.468
 21
33.3094
  0
LINE
  8
0
 10
206.468
 20
33.3094
 11
205.985
 21
33.415
  0
LINE
  8
0
 10
205.985
 20
33.415
 11
205.494
 21
33.4787
  0
LINE
  8
0
 10
205.494
 20
33.4787
 11
205
 21
33.5
  0
LINE
  8
0
 10
205
 20
33.5
 11
204.506
 21
33.4787
  0
LINE
  8
0
 10
204.506
 20
33.4787
 11
204.015
 21
33.415
  0
LINE
  8
0
 10
204.015
 20
33.415
 11
203.532
 21
33.3094
  0
LINE
  8
0
 10
203.532
 20
33.3094
 11
203.059
 21
33.1626
  0
LINE
  8
0
 10
203.059
 20
33.1626
 11
202.601
 21
32.9757
  0
LINE
  8
0
 10
202.601
 20
32.9757
 11
202.161
 21
32.7501
  0
LINE
  8
0
 10
202.161
 20
32.7501
 11
201.741
 21
32.4875
  0
LINE
  8
0
 10
201.741
 20
32.4875
 11
201.346
 21
32.1899
  0
LINE
  8
0
 10
201.346
 20
32.1899
 11
200.978
 21
31.8594
  0
LINE
  8
0
 10
200.978
 20
31.8594
 11
187.978
 21
19.3594
  0
LINE
  8
0
 10
187.978
 20
19.3594
 11
187.64
 21
18.9984
  0
LINE
  8
0
 10
187.64
 20
18.9984
 11
187.334
 21
18.6097
  0
LINE
  8
0
 10
187.334
 20
18.6097
 11
187.062
 21
18.1961
  0
LINE
  8
0
 10
187.062
 20
18.1961
 11
182.187
 21
9.75
  0
LINE
  8
0
 10
182.187
 20
9.75
 11
-182.187
 21
9.75
  0
LINE
  8
0
 10
-182.187
 20
9.75
 11
-187.062
 21
18.1961
  0
LINE
  8
0
 10
-187.062
 20
18.1961
 11
-187.334
 21
18.6097
  0
LINE
  8
0
 10
-187.334
 20
18.6097
 11
-187.64
 21
18.9984
  0
LINE
  8
0
 10
-187.64
 20
18.9984
 11
-187.978
 21
19.3594
  0
LINE
  8
0
 10
-187.978
 20
19.3594
 11
-200.978
 21
31.8594
  0
LINE
  8
0
 10
-200.978
 20
31.8594
 11
-201.346
 21
32.1899
  0
LINE
  8
0
 10
-201.346
 20
32.1899
 11
-201.741
 21
32.4875
  0
LINE
  8
0
 10
-201.741
 20
32.4875
 11
-202.161
 21
32.7501
  0
LINE
  8
0
 10
-202.161
 20
32.7501
 11
-202.601
 21
32.9757
  0
LINE
  8
0
 10
-202.601
 20
32.9757
 11
-203.059
 21
33.1626
  0
LINE
  8
0
 10
-203.059
 20
33.1626
 11
-203.532
 21
33.3094
  0
LINE
  8
0
 10
-203.532
 20
33.3094
 11
-204.015
 21
33.415
  0
LINE
  8
0
 10
-204.015
 20
33.415
 11
-204.506
 21
33.4787
  0
LINE
  8
0
 10
-204.506
 20
33.4787
 11
-205
 21
33.5
  0
LINE
  8
0
 10
-205
 20
33.5
 11
-205.494
 21
33.4787
  0
LINE
  8
0
 10
-205.494
 20
33.4787
 11
-205.985
 21
33.415
  0
LINE
  8
0
 10
-205.985
 20
33.415
 11
-206.468
 21
33.3094
  0
LINE
  8
0
 10
-206.468
 20
33.3094
 11
-206.941
 21
33.1626
  0
LINE
  8
0
 10
-206.941
 20
33.1626
 11
-207.399
 21
32.9757
  0
LINE
  8
0
 10
-207.399
 20
32.9757
 11
-207.839
 21
32.7501
  0
LINE
  8
0
 10
-207.839
 20
32.7501
 11
-208.259
 21
32.4875
  0
LINE
  8
0
 10
-208.259
 20
32.4875
 11
-208.654
 21
32.1899
  0
LINE
  8
0
 10
-208.654
 20
32.1899
 11
-209.022
 21
31.8594
  0
LINE
  8
0
 10
-209.022
 20
31.8594
 11
-209.36
 21
31.4984
  0
LINE
  8
0
 10
-209.36
 20
31.4984
 11
-209.666
 21
31.1097
  0
LINE
  8
0
 10
-209.666
 20
31.1097
 11
-209.938
 21
30.6961
  0
LINE
  8
0
 10
-209.938
 20
30.6961
 11
-218.547
 21
15.7827
  0
LINE
  8
0
 10
-218.547
 20
15.7827
 11
-218.782
 21
15.3424
  0
LINE
  8
0
 10
-218.782
 20
15.3424
 11
-219.003
 21
14.8947
  0
LINE
  8
0
 10
-219.003
 20
14.8947
 11
-219.21
 21
14.4401
  0
LINE
  8
0
 10
-219.21
 20
14.4401
 11
-219.402
 21
13.9791
  0
LINE
  8
0
 10
-219.402
 20
13.9791
 11
-219.579
 21
13.5122
  0
LINE
  8
0
 10
-219.579
 20
13.5122
 11
-219.741
 21
13.0397
  0
LINE
  8
0
 10
-219.741
 20
13.0397
 11
-219.888
 21
12.5624
  0
LINE
  8
0
 10
-219.888
 20
12.5624
 11
-220.019
 21
12.0805
  0
LINE
  8
0
 10
-220.019
 20
12.0805
 11
-220.135
 21
11.5947
  0
LINE
  8
0
 10
-220.135
 20
11.5947
 11
-220.235
 21
11.1053
  0
LINE
  8
0
 10
-220.235
 20
11.1053
 11
-220.319
 21
10.6131
  0
LINE
  8
0
 10
-220.319
 20
10.6131
 11
-220.387
 21
10.1183
  0
LINE
  8
0
 10
-220.387
 20
10.1183
 11
-220.426
 21
9.75
  0
LINE
  8
0
 10
-220.426
 20
9.75
 11
-239.75
 21
9.75
  0
LINE
  8
0
 10
-239.75
 20
9.75
 11
-239.75
 21
-50.25
  0
LINE
  8
0
 10
-239.75
 20
-50.25
 11
-186.052
 21
-50.25
  0
LINE
  8
0
 10
-186.052
 20
-50.25
 11
-186.052
 21
-51.7353
  0
LINE
  8
0
 10
-186.052
 20
-51.7353
 11
-182.537
 21
-55.25
  0
LINE
  8
0
 10
-182.537
 20
-55.25
 11
-159.217
 21
-55.25
  0
LINE
  8
0
 10
-159.217
 20
-55.25
 11
-159.29
 21
-55.1399
  0
LINE
  8
0
 10
204.512
 20
25.298
 11
204.043
 21
25.4403
  0
LINE
  8
0
 10
204.043
 20
25.4403
 11
203.611
 21
25.6713
  0
LINE
  8
0
 10
203.611
 20
25.6713
 11
203.232
 21
25.9822
  0
LINE
  8
0
 10
203.232
 20
25.9822
 11
202.921
 21
26.3611
  0
LINE
  8
0
 10
202.921
 20
26.3611
 11
202.69
 21
26.7933
  0
LINE
  8
0
 10
202.69
 20
26.7933
 11
202.548
 21
27.2623
  0
LINE
  8
0
 10
202.548
 20
27.2623
 11
202.5
 21
27.75
  0
LINE
  8
0
 10
202.5
 20
27.75
 11
202.548
 21
28.2377
  0
LINE
  8
0
 10
202.548
 20
28.2377
 11
202.69
 21
28.7067
  0
LINE
  8
0
 10
202.69
 20
28.7067
 11
202.921
 21
29.1389
  0
LINE
  8
0
 10
202.921
 20
29.1389
 11
203.232
 21
29.5178
  0
LINE
  8
0
 10
203.232
 20
29.5178
 11
203.611
 21
29.8287
  0
LINE
  8
0
 10
203.611
 20
29.8287
 11
204.043
 21
30.0597
  0
LINE
  8
0
 10
204.043
 20
30.0597
 11
204.512
 21
30.202
  0
LINE
  8
0
 10
204.512
 20
30.202
 11
205
 21
30.25
  0
LINE
  8
0
 10
205
 20
30.25
 11
205.488
 21
30.202
  0
LINE
  8
0
 10
205.488
 20
30.202
 11
205.957
 21
30.0597
  0
LINE
  8
0
 10
205.957
 20
30.0597
 11
206.389
 21
29.8287
  0
LINE
  8
0
 10
206.389
 20
29.8287
 11
206.768
 21
29.5178
  0
LINE
  8
0
 10
206.768
 20
29.5178
 11
207.079
 21
29.1389
  0
LINE
  8
0
 10
207.079
 20
29.1389
 11
207.31
 21
28.7067
  0
LINE
  8
0
 10
207.31
 20
28.7067
 11
207.452
 21
28.2377
  0
LINE
  8
0
 10
207.452
 20
28.2377
 11
207.5
 21
27.75
  0
LINE
  8
0
 10
207.5
 20
27.75
 11
207.452
 21
27.2623
  0
LINE
  8
0
 10
207.452
 20
27.2623
 11
207.31
 21
26.7933
  0
LINE
  8
0
 10
207.31
 20
26.7933
 11
207.079
 21
26.3611
  0
LINE
  8
0
 10
207.079
 20
26.3611
 11
206.768
 21
25.9822
  0
LINE
  8
0
 10
206.768
 20
25.9822
 11
206.389
 21
25.6713
  0
LINE
  8
0
 10
206.389
 20
25.6713
 11
205.957
 21
25.4403
  0
LINE
  8
0
 10
205.957
 20
25.4403
 11
205.488
 21
25.298
  0
LINE
  8
0
 10
205.488
 20
25.298
 11
205
 21
25.25
  0
LINE
  8
0
 10
205
 20
25.25
 11
204.512
 21
25.298
  0
LINE
  8
0
 10
-205.488
 20
25.298
 11
-205.957
 21
25.4403
  0
LINE
  8
0
 10
-205.957
 20
25.4403
 11
-206.389
 21
25.6713
  0
LINE
  8
0
 10
-206.389
 20
25.6713
 11
-206.768
 21
25.9822
  0
LINE
  8
0
 10
-206.768
 20
25.9822
 11
-207.079
 21
26.3611
  0
LINE
  8
0
 10
-207.079
 20
26.3611
 11
-207.31
 21
26.7933
  0
LINE
  8
0
 10
-207.31
 20
26.7933
 11
-207.452
 21
27.2623
  0
LINE
  8
0
 10
-207.452
 20
27.2623
 11
-207.5
 21
27.75
  0
LINE
  8
0
 10
-207.5
 20
27.75
 11
-207.452
 21
28.2377
  0
LINE
  8
0
 10
-207.452
 20
28.2377
 11
-207.31
 21
28.7067
  0
LINE
  8
0
 10
-207.31
 20
28.7067
 11
-207.079
 21
29.1389
  0
LINE
  8
0
 10
-207.079
 20
29.1389
 11
-206.768
 21
29.5178
  0
LINE
  8
0
 10
-206.768
 20
29.5178
 11
-206.389
 21
29.8287
  0
LINE
  8
0
 10
-206.389
 20
29.8287
 11
-205.957
 21
30.0597
  0
LINE
  8
0
 10
-205.957
 20
30.0597
 11
-205.488
 21
30.202
  0
LINE
  8
0
 10
-205.488
 20
30.202
 11
-205
 21
30.25
  0
LINE
  8
0
 10
-205
 20
30.25
 11
-204.512
 21
30.202
  0
LINE
  8
0
 10
-204.512
 20
30.202
 11
-204.043
 21
30.0597
  0
LINE
  8
0
 10
-204.043
 20
30.0597
 11
-203.611
 21
29.8287
  0
LINE
  8
0
 10
-203.611
 20
29.8287
 11
-203.232
 21
29.5178
  0
LINE
  8
0
 10
-203.232
 20
29.5178
 11
-202.921
 21
29.1389
  0
LINE
  8
0
 10
-202.921
 20
29.1389
 11
-202.69
 21
28.7067
  0
LINE
  8
0
 10
-202.69
 20
28.7067
 11
-202.548
 21
28.2377
  0
LINE
  8
0
 10
-202.548
 20
28.2377
 11
-202.5
 21
27.75
  0
LINE
  8
0
 10
-202.5
 20
27.75
 11
-202.548
 21
27.2623
  0
LINE
  8
0
 10
-202.548
 20
27.2623
 11
-202.69
 21
26.7933
  0
LINE
  8
0
 10
-202.69
 20
26.7933
 11
-202.921
 21
26.3611
  0
LINE
  8
0
 10
-202.921
 20
26.3611
 11
-203.232
 21
25.9822
  0
LINE
  8
0
 10
-203.232
 20
25.9822
 11
-203.611
 21
25.6713
  0
LINE
  8
0
 10
-203.611
 20
25.6713
 11
-204.043
 21
25.4403
  0
LINE
  8
0
 10
-204.043
 20
25.4403
 11
-204.512
 21
25.298
  0
LINE
  8
0
 10
-204.512
 20
25.298
 11
-205
 21
25.25
  0
LINE
  8
0
 10
-205
 20
25.25
 11
-205.488
 21
25.298
  0
LINE
  8
0
 10
-192.488
 20
12.798
 11
-192.957
 21
12.9403
  0
LINE
  8
0
 10
-192.957
 20
12.9403
 11
-193.389
 21
13.1713
  0
LINE
  8
0
 10
-193.389
 20
13.1713
 11
-193.768
 21
13.4822
  0
LINE
  8
0
 10
-193.768
 20
13.4822
 11
-194.079
 21
13.8611
  0
LINE
  8
0
 10
-194.079
 20
13.8611
 11
-194.31
 21
14.2933
  0
LINE
  8
0
 10
-194.31
 20
14.2933
 11
-194.452
 21
14.7623
  0
LINE
  8
0
 10
-194.452
 20
14.7623
 11
-194.5
 21
15.25
  0
LINE
  8
0
 10
-194.5
 20
15.25
 11
-194.452
 21
15.7377
  0
LINE
  8
0
 10
-194.452
 20
15.7377
 11
-194.31
 21
16.2067
  0
LINE
  8
0
 10
-194.31
 20
16.2067
 11
-194.079
 21
16.6389
  0
LINE
  8
0
 10
-194.079
 20
16.6389
 11
-193.768
 21
17.0178
  0
LINE
  8
0
 10
-193.768
 20
17.0178
 11
-193.389
 21
17.3287
  0
LINE
  8
0
 10
-193.389
 20
17.3287
 11
-192.957
 21
17.5597
  0
LINE
  8
0
 10
-192.957
 20
17.5597
 11
-192.488
 21
17.702
  0
LINE
  8
0
 10
-192.488
 20
17.702
 11
-192
 21
17.75
  0
LINE
  8
0
 10
-192
 20
17.75
 11
-191.512
 21
17.702
  0
LINE
  8
0
 10
-191.512
 20
17.702
 11
-191.043
 21
17.5597
  0
LINE
  8
0
 10
-191.043
 20
17.5597
 11
-190.611
 21
17.3287
  0
LINE
  8
0
 10
-190.611
 20
17.3287
 11
-190.232
 21
17.0178
  0
LINE
  8
0
 10
-190.232
 20
17.0178
 11
-189.921
 21
16.6389
  0
LINE
  8
0
 10
-189.921
 20
16.6389
 11
-189.69
 21
16.2067
  0
LINE
  8
0
 10
-189.69
 20
16.2067
 11
-189.548
 21
15.7377
  0
LINE
  8
0
 10
-189.548
 20
15.7377
 11
-189.5
 21
15.25
  0
LINE
  8
0
 10
-189.5
 20
15.25
 11
-189.548
 21
14.7623
  0
LINE
  8
0
 10
-189.548
 20
14.7623
 11
-189.69
 21
14.2933
  0
LINE
  8
0
 10
-189.69
 20
14.2933
 11
-189.921
 21
13.8611
  0
LINE
  8
0
 10
-189.921
 20
13.8611
 11
-190.232
 21
13.4822
  0
LINE
  8
0
 10
-190.232
 20
13.4822
 11
-190.611
 21
13.1713
  0
LINE
  8
0
 10
-190.611
 20
13.1713
 11
-191.043
 21
12.9403
  0
LINE
  8
0
 10
-191.043
 20
12.9403
 11
-191.512
 21
12.798
  0
LINE
  8
0
 10
-191.512
 20
12.798
 11
-192
 21
12.75
  0
LINE
  8
0
 10
-192
 20
12.75
 11
-192.488
 21
12.798
  0
LINE
  8
0
 10
191.512
 20
12.798
 11
191.043
 21
12.9403
  0
LINE
  8
0
 10
191.043
 20
12.9403
 11
190.611
 21
13.1713
  0
LINE
  8
0
 10
190.611
 20
13.1713
 11
190.232
 21
13.4822
  0
LINE
  8
0
 10
190.232
 20
13.4822
 11
189.921
 21
13.8611
  0
LINE
  8
0
 10
189.921
 20
13.8611
 11
189.69
 21
14.2933
  0
LINE
  8
0
 10
189.69
 20
14.2933
 11
189.548
 21
14.7623
  0
LINE
  8
0
 10
189.548
 20
14.7623
 11
189.5
 21
15.25
  0
LINE
  8
0
 10
189.5
 20
15.25
 11
189.548
 21
15.7377
  0
LINE
  8
0
 10
189.548
 20
15.7377
 11
189.69
 21
16.2067
  0
LINE
  8
0
 10
189.69
 20
16.2067
 11
189.921
 21
16.6389
  0
LINE
  8
0
 10
189.921
 20
16.6389
 11
190.232
 21
17.0178
  0
LINE
  8
0
 10
190.232
 20
17.0178
 11
190.611
 21
17.3287
  0
LINE
  8
0
 10
190.611
 20
17.3287
 11
191.043
 21
17.5597
  0
LINE
  8
0
 10
191.043
 20
17.5597
 11
191.512
 21
17.702
  0
LINE
  8
0
 10
191.512
 20
17.702
 11
192
 21
17.75
  0
LINE
  8
0
 10
192
 20
17.75
 11
192.488
 21
17.702
  0
LINE
  8
0
 10
192.488
 20
17.702
 11
192.957
 21
17.5597
  0
LINE
  8
0
 10
192.957
 20
17.5597
 11
193.389
 21
17.3287
  0
LINE
  8
0
 10
193.389
 20
17.3287
 11
193.768
 21
17.0178
  0
LINE
  8
0
 10
193.768
 20
17.0178
 11
194.079
 21
16.6389
  0
LINE
  8
0
 10
194.079
 20
16.6389
 11
194.31
 21
16.2067
  0
LINE
  8
0
 10
194.31
 20
16.2067
 11
194.452
 21
15.7377
  0
LINE
  8
0
 10
194.452
 20
15.7377
 11
194.5
 21
15.25
  0
LINE
  8
0
 10
194.5
 20
15.25
 11
194.452
 21
14.7623
  0
LINE
  8
0
 10
194.452
 20
14.7623
 11
194.31
 21
14.2933
  0
LINE
  8
0
 10
194.31
 20
14.2933
 11
194.079
 21
13.8611
  0
LINE
  8
0
 10
194.079
 20
13.8611
 11
193.768
 21
13.4822
  0
LINE
  8
0
 10
193.768
 20
13.4822
 11
193.389
 21
13.1713
  0
LINE
  8
0
 10
193.389
 20
13.1713
 11
192.957
 21
12.9403
  0
LINE
  8
0
 10
192.957
 20
12.9403
 11
192.488
 21
12.798
  0
LINE
  8
0
 10
192.488
 20
12.798
 11
192
 21
12.75
  0
LINE
  8
0
 10
192
 20
12.75
 11
191.512
 21
12.798
  0
LINE
  8
0
 10
107.55
 20
-3.2
 11
107.55
 21
3.2
  0
LINE
  8
0
 10
107.55
 20
3.2
 11
122.45
 21
3.2
  0
LINE
  8
0
 10
122.45
 20
3.2
 11
122.45
 21
-3.2
  0
LINE
  8
0
 10
122.45
 20
-3.2
 11
107.55
 21
-3.2
  0
LINE
  8
0
 10
-152.45
 20
-3.2
 11
-152.45
 21
3.2
  0
LINE
  8
0
 10
-152.45
 20
3.2
 11
-137.55
 21
3.2
  0
LINE
  8
0
 10
-137.55
 20
3.2
 11
-137.55
 21
-3.2
  0
LINE
  8
0
 10
-137.55
 20
-3.2
 11
-152.45
 21
-3.2
  0
LINE
  8
0
 10
-122.45
 20
-3.2
 11
-122.45
 21
3.2
  0
LINE
  8
0
 10
-122.45
 20
3.2
 11
-107.55
 21
3.2
  0
LINE
  8
0
 10
-107.55
 20
3.2
 11
-107.55
 21
-3.2
  0
LINE
  8
0
 10
-107.55
 20
-3.2
 11
-122.45
 21
-3.2
  0
LINE
  8
0
 10
137.55
 20
-3.2
 11
137.55
 21
3.2
  0
LINE
  8
0
 10
137.55
 20
3.2
 11
152.45
 21
3.2
  0
LINE
  8
0
 10
152.45
 20
3.2
 11
152.45
 21
-3.2
  0
LINE
  8
0
 10
152.45
 20
-3.2
 11
137.55
 21
-3.2
  0
LINE
  8
0
 10
130
 20
-2.49998
 11
129.512
 21
-2.45195
  0
LINE
  8
0
 10
129.512
 20
-2.45195
 11
129.043
 21
-2.30969
  0
LINE
  8
0
 10
129.043
 20
-2.30969
 11
128.611
 21
-2.07866
  0
LINE
  8
0
 10
128.611
 20
-2.07866
 11
128.232
 21
-1.76776
  0
LINE
  8
0
 10
128.232
 20
-1.76776
 11
127.921
 21
-1.38892
  0
LINE
  8
0
 10
127.921
 20
-1.38892
 11
127.69
 21
-0.956696
  0
LINE
  8
0
 10
127.69
 20
-0.956696
 11
127.548
 21
-0.487717
  0
LINE
  8
0
 10
127.548
 20
-0.487717
 11
127.5
 21
0
  0
LINE
  8
0
 10
127.5
 20
0
 11
127.548
 21
0.487717
  0
LINE
  8
0
 10
127.548
 20
0.487717
 11
127.69
 21
0.956696
  0
LINE
  8
0
 10
127.69
 20
0.956696
 11
127.921
 21
1.38892
  0
LINE
  8
0
 10
127.921
 20
1.38892
 11
128.232
 21
1.76776
  0
LINE
  8
0
 10
128.232
 20
1.76776
 11
128.611
 21
2.07866
  0
LINE
  8
0
 10
128.611
 20
2.07866
 11
129.043
 21
2.30969
  0
LINE
  8
0
 10
129.043
 20
2.30969
 11
129.512
 21
2.45195
  0
LINE
  8
0
 10
129.512
 20
2.45195
 11
130
 21
2.49998
  0
LINE
  8
0
 10
130
 20
2.49998
 11
130.488
 21
2.45195
  0
LINE
  8
0
 10
130.488
 20
2.45195
 11
130.957
 21
2.30969
  0
LINE
  8
0
 10
130.957
 20
2.30969
 11
131.389
 21
2.07866
  0
LINE
  8
0
 10
131.389
 20
2.07866
 11
131.768
 21
1.76776
  0
LINE
  8
0
 10
131.768
 20
1.76776
 11
132.079
 21
1.38892
  0
LINE
  8
0
 10
132.079
 20
1.38892
 11
132.31
 21
0.956696
  0
LINE
  8
0
 10
132.31
 20
0.956696
 11
132.452
 21
0.487717
  0
LINE
  8
0
 10
132.452
 20
0.487717
 11
132.5
 21
0
  0
LINE
  8
0
 10
132.5
 20
0
 11
132.452
 21
-0.487717
  0
LINE
  8
0
 10
132.452
 20
-0.487717
 11
132.31
 21
-0.956696
  0
LINE
  8
0
 10
132.31
 20
-0.956696
 11
132.079
 21
-1.38892
  0
LINE
  8
0
 10
132.079
 20
-1.38892
 11
131.768
 21
-1.76776
  0
LINE
  8
0
 10
131.768
 20
-1.76776
 11
131.389
 21
-2.07866
  0
LINE
  8
0
 10
131.389
 20
-2.07866
 11
130.957
 21
-2.30969
  0
LINE
  8
0
 10
130.957
 20
-2.30969
 11
130.488
 21
-2.45195
  0
LINE
  8
0
 10
130.488
 20
-2.45195
 11
130
 21
-2.49998
  0
LINE
  8
0
 10
-130
 20
-2.49998
 11
-130.488
 21
-2.45195
  0
LINE
  8
0
 10
-130.488
 20
-2.45195
 11
-130.957
 21
-2.30969
  0
LINE
  8
0
 10
-130.957
 20
-2.30969
 11
-131.389
 21
-2.07866
  0
LINE
  8
0
 10
-131.389
 20
-2.07866
 11
-131.768
 21
-1.76776
  0
LINE
  8
0
 10
-131.768
 20
-1.76776
 11
-132.079
 21
-1.38892
  0
LINE
  8
0
 10
-132.079
 20
-1.38892
 11
-132.31
 21
-0.956696
  0
LINE
  8
0
 10
-132.31
 20
-0.956696
 11
-132.452
 21
-0.487717
  0
LINE
  8
0
 10
-132.452
 20
-0.487717
 11
-132.5
 21
0
  0
LINE
  8
0
 10
-132.5
 20
0
 11
-132.452
 21
0.487717
  0
LINE
  8
0
 10
-132.452
 20
0.487717
 11
-132.31
 21
0.956696
  0
LINE
  8
0
 10
-132.31
 20
0.956696
 11
-132.079
 21
1.38892
  0
LINE
  8
0
 10
-132.079
 20
1.38892
 11
-131.768
 21
1.76776
  0
LINE
  8
0
 10
-131.768
 20
1.76776
 11
-131.389
 21
2.07866
  0
LINE
  8
0
 10
-131.389
 20
2.07866
 11
-130.957
 21
2.30969
  0
LINE
  8
0
 10
-130.957
 20
2.30969
 11
-130.488
 21
2.45195
  0
LINE
  8
0
 10
-130.488
 20
2.45195
 11
-130
 21
2.49998
  0
LINE
  8
0
 10
-130
 20
2.49998
 11
-129.512
 21
2.45195
  0
LINE
  8
0
 10
-129.512
 20
2.45195
 11
-129.043
 21
2.30969
  0
LINE
  8
0
 10
-129.043
 20
2.30969
 11
-128.611
 21
2.07866
  0
LINE
  8
0
 10
-128.611
 20
2.07866
 11
-128.232
 21
1.76776
  0
LINE
  8
0
 10
-128.232
 20
1.76776
 11
-127.921
 21
1.38892
  0
LINE
  8
0
 10
-127.921
 20
1.38892
 11
-127.69
 21
0.956696
  0
LINE
  8
0
 10
-127.69
 20
0.956696
 11
-127.548
 21
0.487717
  0
LINE
  8
0
 10
-127.548
 20
0.487717
 11
-127.5
 21
0
  0
LINE
  8
0
 10
-127.5
 20
0
 11
-127.548
 21
-0.487717
  0
LINE
  8
0
 10
-127.548
 20
-0.487717
 11
-127.69
 21
-0.956696
  0
LINE
  8
0
 10
-127.69
 20
-0.956696
 11
-127.921
 21
-1.38892
  0
LINE
  8
0
 10
-127.921
 20
-1.38892
 11
-128.232
 21
-1.76776
  0
LINE
  8
0
 10
-128.232
 20
-1.76776
 11
-128.611
 21
-2.07866
  0
LINE
  8
0
 10
-128.611
 20
-2.07866
 11
-129.043
 21
-2.30969
  0
LINE
  8
0
 10
-129.043
 20
-2.30969
 11
-129.512
 21
-2.45195
  0
LINE
  8
0
 10
-129.512
 20
-2.45195
 11
-130
 21
-2.49998
  0
LINE
  8
0
 10
-236.45
 20
-12.7
 11
-236.45
 21
2.2
  0
LINE
  8
0
 10
-236.45
 20
2.2
 11
-230.05
 21
2.2
  0
LINE
  8
0
 10
-230.05
 20
2.2
 11
-230.05
 21
-12.7
  0
LINE
  8
0
 10
-230.05
 20
-12.7
 11
-236.45
 21
-12.7
  0
LINE
  8
0
 10
230.05
 20
-12.7
 11
230.05
 21
2.2
  0
LINE
  8
0
 10
230.05
 20
2.2
 11
236.45
 21
2.2
  0
LINE
  8
0
 10
236.45
 20
2.2
 11
236.45
 21
-12.7
  0
LINE
  8
0
 10
236.45
 20
-12.7
 11
230.05
 21
-12.7
  0
LINE
  8
0
 10
219.512
 20
-12.202
 11
219.043
 21
-12.0597
  0
LINE
  8
0
 10
219.043
 20
-12.0597
 11
218.611
 21
-11.8287
  0
LINE
  8
0
 10
218.611
 20
-11.8287
 11
218.232
 21
-11.5178
  0
LINE
  8
0
 10
218.232
 20
-11.5178
 11
217.921
 21
-11.1389
  0
LINE
  8
0
 10
217.921
 20
-11.1389
 11
217.69
 21
-10.7067
  0
LINE
  8
0
 10
217.69
 20
-10.7067
 11
217.548
 21
-10.2377
  0
LINE
  8
0
 10
217.548
 20
-10.2377
 11
217.5
 21
-9.75
  0
LINE
  8
0
 10
217.5
 20
-9.75
 11
217.548
 21
-9.26227
  0
LINE
  8
0
 10
217.548
 20
-9.26227
 11
217.69
 21
-8.79329
  0
LINE
  8
0
 10
217.69
 20
-8.79329
 11
217.921
 21
-8.36107
  0
LINE
  8
0
 10
217.921
 20
-8.36107
 11
218.232
 21
-7.98222
  0
LINE
  8
0
 10
218.232
 20
-7.98222
 11
218.611
 21
-7.67133
  0
LINE
  8
0
 10
218.611
 20
-7.67133
 11
219.043
 21
-7.44029
  0
LINE
  8
0
 10
219.043
 20
-7.44029
 11
219.512
 21
-7.29803
  0
LINE
  8
0
 10
219.512
 20
-7.29803
 11
220
 21
-7.25
  0
LINE
  8
0
 10
220
 20
-7.25
 11
220.488
 21
-7.29803
  0
LINE
  8
0
 10
220.488
 20
-7.29803
 11
220.957
 21
-7.44029
  0
LINE
  8
0
 10
220.957
 20
-7.44029
 11
221.389
 21
-7.67133
  0
LINE
  8
0
 10
221.389
 20
-7.67133
 11
221.768
 21
-7.98222
  0
LINE
  8
0
 10
221.768
 20
-7.98222
 11
222.079
 21
-8.36107
  0
LINE
  8
0
 10
222.079
 20
-8.36107
 11
222.31
 21
-8.79329
  0
LINE
  8
0
 10
222.31
 20
-8.79329
 11
222.452
 21
-9.26227
  0
LINE
  8
0
 10
222.452
 20
-9.26227
 11
222.5
 21
-9.75
  0
LINE
  8
0
 10
222.5
 20
-9.75
 11
222.452
 21
-10.2377
  0
LINE
  8
0
 10
222.452
 20
-10.2377
 11
222.31
 21
-10.7067
  0
LINE
  8
0
 10
222.31
 20
-10.7067
 11
222.079
 21
-11.1389
  0
LINE
  8
0
 10
222.079
 20
-11.1389
 11
221.768
 21
-11.5178
  0
LINE
  8
0
 10
221.768
 20
-11.5178
 11
221.389
 21
-11.8287
  0
LINE
  8
0
 10
221.389
 20
-11.8287
 11
220.957
 21
-12.0597
  0
LINE
  8
0
 10
220.957
 20
-12.0597
 11
220.488
 21
-12.202
  0
LINE
  8
0
 10
220.488
 20
-12.202
 11
220
 21
-12.25
  0
LINE
  8
0
 10
220
 20
-12.25
 11
219.512
 21
-12.202
  0
LINE
  8
0
 10
-220.488
 20
-12.202
 11
-220.957
 21
-12.0597
  0
LINE
  8
0
 10
-220.957
 20
-12.0597
 11
-221.389
 21
-11.8287
  0
LINE
  8
0
 10
-221.389
 20
-11.8287
 11
-221.768
 21
-11.5178
  0
LINE
  8
0
 10
-221.768
 20
-11.5178
 11
-222.079
 21
-11.1389
  0
LINE
  8
0
 10
-222.079
 20
-11.1389
 11
-222.31
 21
-10.7067
  0
LINE
  8
0
 10
-222.31
 20
-10.7067
 11
-222.452
 21
-10.2377
  0
LINE
  8
0
 10
-222.452
 20
-10.2377
 11
-222.5
 21
-9.75
  0
LINE
  8
0
 10
-222.5
 20
-9.75
 11
-222.452
 21
-9.26227
  0
LINE
  8
0
 10
-222.452
 20
-9.26227
 11
-222.31
 21
-8.79329
  0
LINE
  8
0
 10
-222.31
 20
-8.79329
 11
-222.079
 21
-8.36107
  0
LINE
  8
0
 10
-222.079
 20
-8.36107
 11
-221.768
 21
-7.98222
  0
LINE
  8
0
 10
-221.768
 20
-7.98222
 11
-221.389
 21
-7.67133
  0
LINE
  8
0
 10
-221.389
 20
-7.67133
 11
-220.957
 21
-7.44029
  0
LINE
  8
0
 10
-220.957
 20
-7.44029
 11
-220.488
 21
-7.29803
  0
LINE
  8
0
 10
-220.488
 20
-7.29803
 11
-220
 21
-7.25
  0
LINE
  8
0
 10
-220
 20
-7.25
 11
-219.512
 21
-7.29803
  0
LINE
  8
0
 10
-219.512
 20
-7.29803
 11
-219.043
 21
-7.44029
  0
LINE
  8
0
 10
-219.043
 20
-7.44029
 11
-218.611
 21
-7.67133
  0
LINE
  8
0
 10
-218.611
 20
-7.67133
 11
-218.232
 21
-7.98222
  0
LINE
  8
0
 10
-218.232
 20
-7.98222
 11
-217.921
 21
-8.36107
  0
LINE
  8
0
 10
-217.921
 20
-8.36107
 11
-217.69
 21
-8.79329
  0
LINE
  8
0
 10
-217.69
 20
-8.79329
 11
-217.548
 21
-9.26227
  0
LINE
  8
0
 10
-217.548
 20
-9.26227
 11
-217.5
 21
-9.75
  0
LINE
  8
0
 10
-217.5
 20
-9.75
 11
-217.548
 21
-10.2377
  0
LINE
  8
0
 10
-217.548
 20
-10.2377
 11
-217.69
 21
-10.7067
  0
LINE
  8
0
 10
-217.69
 20
-10.7067
 11
-217.921
 21
-11.1389
  0
LINE
  8
0
 10
-217.921
 20
-11.1389
 11
-218.232
 21
-11.5178
  0
LINE
  8
0
 10
-218.232
 20
-11.5178
 11
-218.611
 21
-11.8287
  0
LINE
  8
0
 10
-218.611
 20
-11.8287
 11
-219.043
 21
-12.0597
  0
LINE
  8
0
 10
-219.043
 20
-12.0597
 11
-219.512
 21
-12.202
  0
LINE
  8
0
 10
-219.512
 20
-12.202
 11
-220
 21
-12.25
  0
LINE
  8
0
 10
-220
 20
-12.25
 11
-220.488
 21
-12.202
  0
LINE
  8
0
 10
232.762
 20
-22.702
 11
232.293
 21
-22.5597
  0
LINE
  8
0
 10
232.293
 20
-22.5597
 11
231.861
 21
-22.3287
  0
LINE
  8
0
 10
231.861
 20
-22.3287
 11
231.482
 21
-22.0178
  0
LINE
  8
0
 10
231.482
 20
-22.0178
 11
231.171
 21
-21.6389
  0
LINE
  8
0
 10
231.171
 20
-21.6389
 11
230.94
 21
-21.2067
  0
LINE
  8
0
 10
230.94
 20
-21.2067
 11
230.798
 21
-20.7377
  0
LINE
  8
0
 10
230.798
 20
-20.7377
 11
230.75
 21
-20.25
  0
LINE
  8
0
 10
230.75
 20
-20.25
 11
230.798
 21
-19.7623
  0
LINE
  8
0
 10
230.798
 20
-19.7623
 11
230.94
 21
-19.2933
  0
LINE
  8
0
 10
230.94
 20
-19.2933
 11
231.171
 21
-18.8611
  0
LINE
  8
0
 10
231.171
 20
-18.8611
 11
231.482
 21
-18.4822
  0
LINE
  8
0
 10
231.482
 20
-18.4822
 11
231.861
 21
-18.1713
  0
LINE
  8
0
 10
231.861
 20
-18.1713
 11
232.293
 21
-17.9403
  0
LINE
  8
0
 10
232.293
 20
-17.9403
 11
232.762
 21
-17.798
  0
LINE
  8
0
 10
232.762
 20
-17.798
 11
233.25
 21
-17.75
  0
LINE
  8
0
 10
233.25
 20
-17.75
 11
233.738
 21
-17.798
  0
LINE
  8
0
 10
233.738
 20
-17.798
 11
234.207
 21
-17.9403
  0
LINE
  8
0
 10
234.207
 20
-17.9403
 11
234.639
 21
-18.1713
  0
LINE
  8
0
 10
234.639
 20
-18.1713
 11
235.018
 21
-18.4822
  0
LINE
  8
0
 10
235.018
 20
-18.4822
 11
235.329
 21
-18.8611
  0
LINE
  8
0
 10
235.329
 20
-18.8611
 11
235.56
 21
-19.2933
  0
LINE
  8
0
 10
235.56
 20
-19.2933
 11
235.702
 21
-19.7623
  0
LINE
  8
0
 10
235.702
 20
-19.7623
 11
235.75
 21
-20.25
  0
LINE
  8
0
 10
235.75
 20
-20.25
 11
235.702
 21
-20.7377
  0
LINE
  8
0
 10
235.702
 20
-20.7377
 11
235.56
 21
-21.2067
  0
LINE
  8
0
 10
235.56
 20
-21.2067
 11
235.329
 21
-21.6389
  0
LINE
  8
0
 10
235.329
 20
-21.6389
 11
235.018
 21
-22.0178
  0
LINE
  8
0
 10
235.018
 20
-22.0178
 11
234.639
 21
-22.3287
  0
LINE
  8
0
 10
234.639
 20
-22.3287
 11
234.207
 21
-22.5597
  0
LINE
  8
0
 10
234.207
 20
-22.5597
 11
233.738
 21
-22.702
  0
LINE
  8
0
 10
233.738
 20
-22.702
 11
233.25
 21
-22.75
  0
LINE
  8
0
 10
233.25
 20
-22.75
 11
232.762
 21
-22.702
  0
LINE
  8
0
 10
-233.738
 20
-22.702
 11
-234.207
 21
-22.5597
  0
LINE
  8
0
 10
-234.207
 20
-22.5597
 11
-234.639
 21
-22.3287
  0
LINE
  8
0
 10
-234.639
 20
-22.3287
 11
-235.018
 21
-22.0178
  0
LINE
  8
0
 10
-235.018
 20
-22.0178
 11
-235.329
 21
-21.6389
  0
LINE
  8
0
 10
-235.329
 20
-21.6389
 11
-235.56
 21
-21.2067
  0
LINE
  8
0
 10
-235.56
 20
-21.2067
 11
-235.702
 21
-20.7377
  0
LINE
  8
0
 10
-235.702
 20
-20.7377
 11
-235.75
 21
-20.25
  0
LINE
  8
0
 10
-235.75
 20
-20.25
 11
-235.702
 21
-19.7623
  0
LINE
  8
0
 10
-235.702
 20
-19.7623
 11
-235.56
 21
-19.2933
  0
LINE
  8
0
 10
-235.56
 20
-19.2933
 11
-235.329
 21
-18.8611
  0
LINE
  8
0
 10
-235.329
 20
-18.8611
 11
-235.018
 21
-18.4822
  0
LINE
  8
0
 10
-235.018
 20
-18.4822
 11
-234.639
 21
-18.1713
  0
LINE
  8
0
 10
-234.639
 20
-18.1713
 11
-234.207
 21
-17.9403
  0
LINE
  8
0
 10
-234.207
 20
-17.9403
 11
-233.738
 21
-17.798
  0
LINE
  8
0
 10
-233.738
 20
-17.798
 11
-233.25
 21
-17.75
  0
LINE
  8
0
 10
-233.25
 20
-17.75
 11
-232.762
 21
-17.798
  0
LINE
  8
0
 10
-232.762
 20
-17.798
 11
-232.293
 21
-17.9403
  0
LINE
  8
0
 10
-232.293
 20
-17.9403
 11
-231.861
 21
-18.1713
  0
LINE
  8
0
 10
-231.861
 20
-18.1713
 11
-231.482
 21
-18.4822
  0
LINE
  8
0
 10
-231.482
 20
-18.4822
 11
-231.171
 21
-18.8611
  0
LINE
  8
0
 10
-231.171
 20
-18.8611
 11
-230.94
 21
-19.2933
  0
LINE
  8
0
 10
-230.94
 20
-19.2933
 11
-230.798
 21
-19.7623
  0
LINE
  8
0
 10
-230.798
 20
-19.7623
 11
-230.75
 21
-20.25
  0
LINE
  8
0
 10
-230.75
 20
-20.25
 11
-230.798
 21
-20.7377
  0
LINE
  8
0
 10
-230.798
 20
-20.7377
 11
-230.94
 21
-21.2067
  0
LINE
  8
0
 10
-230.94
 20
-21.2067
 11
-231.171
 21
-21.6389
  0
LINE
  8
0
 10
-231.171
 20
-21.6389
 11
-231.482
 21
-22.0178
  0
LINE
  8
0
 10
-231.482
 20
-22.0178
 11
-231.861
 21
-22.3287
  0
LINE
  8
0
 10
-231.861
 20
-22.3287
 11
-232.293
 21
-22.5597
  0
LINE
  8
0
 10
-232.293
 20
-22.5597
 11
-232.762
 21
-22.702
  0
LINE
  8
0
 10
-232.762
 20
-22.702
 11
-233.25
 21
-22.75
  0
LINE
  8
0
 10
-233.25
 20
-22.75
 11
-233.738
 21
-22.702
  0
LINE
  8
0
 10
-152.45
 20
-29.7
 11
-152.45
 21
-23.3
  0
LINE
  8
0
 10
-152.45
 20
-23.3
 11
-137.55
 21
-23.3
  0
LINE
  8
0
 10
-137.55
 20
-23.3
 11
-137.55
 21
-29.7
  0
LINE
  8
0
 10
-137.55
 20
-29.7
 11
-152.45
 21
-29.7
  0
LINE
  8
0
 10
107.55
 20
-29.7
 11
107.55
 21
-23.3
  0
LINE
  8
0
 10
107.55
 20
-23.3
 11
122.45
 21
-23.3
  0
LINE
  8
0
 10
122.45
 20
-23.3
 11
122.45
 21
-29.7
  0
LINE
  8
0
 10
122.45
 20
-29.7
 11
107.55
 21
-29.7
  0
LINE
  8
0
 10
137.55
 20
-29.7
 11
137.55
 21
-23.3
  0
LINE
  8
0
 10
137.55
 20
-23.3
 11
152.45
 21
-23.3
  0
LINE
  8
0
 10
152.45
 20
-23.3
 11
152.45
 21
-29.7
  0
LINE
  8
0
 10
152.45
 20
-29.7
 11
137.55
 21
-29.7
  0
LINE
  8
0
 10
7.54999
 20
-29.7
 11
7.54999
 21
-23.3
  0
LINE
  8
0
 10
7.54999
 20
-23.3
 11
22.45
 21
-23.3
  0
LINE
  8
0
 10
22.45
 20
-23.3
 11
22.45
 21
-29.7
  0
LINE
  8
0
 10
22.45
 20
-29.7
 11
7.54999
 21
-29.7
  0
LINE
  8
0
 10
-22.45
 20
-29.7
 11
-22.45
 21
-23.3
  0
LINE
  8
0
 10
-22.45
 20
-23.3
 11
-7.54999
 21
-23.3
  0
LINE
  8
0
 10
-7.54999
 20
-23.3
 11
-7.54999
 21
-29.7
  0
LINE
  8
0
 10
-7.54999
 20
-29.7
 11
-22.45
 21
-29.7
  0
LINE
  8
0
 10
-122.45
 20
-29.7
 11
-122.45
 21
-23.3
  0
LINE
  8
0
 10
-122.45
 20
-23.3
 11
-107.55
 21
-23.3
  0
LINE
  8
0
 10
-107.55
 20
-23.3
 11
-107.55
 21
-29.7
  0
LINE
  8
0
 10
-107.55
 20
-29.7
 11
-122.45
 21
-29.7
  0
LINE
  8
0
 10
130
 20
-29
 11
129.512
 21
-28.952
  0
LINE
  8
0
 10
129.512
 20
-28.952
 11
129.043
 21
-28.8097
  0
LINE
  8
0
 10
129.043
 20
-28.8097
 11
128.611
 21
-28.5787
  0
LINE
  8
0
 10
128.611
 20
-28.5787
 11
128.232
 21
-28.2678
  0
LINE
  8
0
 10
128.232
 20
-28.2678
 11
127.921
 21
-27.8889
  0
LINE
  8
0
 10
127.921
 20
-27.8889
 11
127.69
 21
-27.4567
  0
LINE
  8
0
 10
127.69
 20
-27.4567
 11
127.548
 21
-26.9877
  0
LINE
  8
0
 10
127.548
 20
-26.9877
 11
127.5
 21
-26.5
  0
LINE
  8
0
 10
127.5
 20
-26.5
 11
127.548
 21
-26.0123
  0
LINE
  8
0
 10
127.548
 20
-26.0123
 11
127.69
 21
-25.5433
  0
LINE
  8
0
 10
127.69
 20
-25.5433
 11
127.921
 21
-25.1111
  0
LINE
  8
0
 10
127.921
 20
-25.1111
 11
128.232
 21
-24.7322
  0
LINE
  8
0
 10
128.232
 20
-24.7322
 11
128.611
 21
-24.4213
  0
LINE
  8
0
 10
128.611
 20
-24.4213
 11
129.043
 21
-24.1903
  0
LINE
  8
0
 10
129.043
 20
-24.1903
 11
129.512
 21
-24.048
  0
LINE
  8
0
 10
129.512
 20
-24.048
 11
130
 21
-24
  0
LINE
  8
0
 10
130
 20
-24
 11
130.488
 21
-24.048
  0
LINE
  8
0
 10
130.488
 20
-24.048
 11
130.957
 21
-24.1903
  0
LINE
  8
0
 10
130.957
 20
-24.1903
 11
131.389
 21
-24.4213
  0
LINE
  8
0
 10
131.389
 20
-24.4213
 11
131.768
 21
-24.7322
  0
LINE
  8
0
 10
131.768
 20
-24.7322
 11
132.079
 21
-25.1111
  0
LINE
  8
0
 10
132.079
 20
-25.1111
 11
132.31
 21
-25.5433
  0
LINE
  8
0
 10
132.31
 20
-25.5433
 11
132.452
 21
-26.0123
  0
LINE
  8
0
 10
132.452
 20
-26.0123
 11
132.5
 21
-26.5
  0
LINE
  8
0
 10
132.5
 20
-26.5
 11
132.452
 21
-26.9877
  0
LINE
  8
0
 10
132.452
 20
-26.9877
 11
132.31
 21
-27.4567
  0
LINE
  8
0
 10
132.31
 20
-27.4567
 11
132.079
 21
-27.8889
  0
LINE
  8
0
 10
132.079
 20
-27.8889
 11
131.768
 21
-28.2678
  0
LINE
  8
0
 10
131.768
 20
-28.2678
 11
131.389
 21
-28.5787
  0
LINE
  8
0
 10
131.389
 20
-28.5787
 11
130.957
 21
-28.8097
  0
LINE
  8
0
 10
130.957
 20
-28.8097
 11
130.488
 21
-28.952
  0
LINE
  8
0
 10
130.488
 20
-28.952
 11
130
 21
-29
  0
LINE
  8
0
 10
0
 20
-29
 11
-0.487717
 21
-28.952
  0
LINE
  8
0
 10
-0.487717
 20
-28.952
 11
-0.956696
 21
-28.8097
  0
LINE
  8
0
 10
-0.956696
 20
-28.8097
 11
-1.38892
 21
-28.5787
  0
LINE
  8
0
 10
-1.38892
 20
-28.5787
 11
-1.76776
 21
-28.2678
  0
LINE
  8
0
 10
-1.76776
 20
-28.2678
 11
-2.07866
 21
-27.8889
  0
LINE
  8
0
 10
-2.07866
 20
-27.8889
 11
-2.30969
 21
-27.4567
  0
LINE
  8
0
 10
-2.30969
 20
-27.4567
 11
-2.45195
 21
-26.9877
  0
LINE
  8
0
 10
-2.45195
 20
-26.9877
 11
-2.5
 21
-26.5
  0
LINE
  8
0
 10
-2.5
 20
-26.5
 11
-2.45195
 21
-26.0123
  0
LINE
  8
0
 10
-2.45195
 20
-26.0123
 11
-2.30969
 21
-25.5433
  0
LINE
  8
0
 10
-2.30969
 20
-25.5433
 11
-2.07866
 21
-25.1111
  0
LINE
  8
0
 10
-2.07866
 20
-25.1111
 11
-1.76776
 21
-24.7322
  0
LINE
  8
0
 10
-1.76776
 20
-24.7322
 11
-1.38892
 21
-24.4213
  0
LINE
  8
0
 10
-1.38892
 20
-24.4213
 11
-0.956696
 21
-24.1903
  0
LINE
  8
0
 10
-0.956696
 20
-24.1903
 11
-0.487717
 21
-24.048
  0
LINE
  8
0
 10
-0.487717
 20
-24.048
 11
0
 21
-24
  0
LINE
  8
0
 10
0
 20
-24
 11
0.487717
 21
-24.048
  0
LINE
  8
0
 10
0.487717
 20
-24.048
 11
0.956696
 21
-24.1903
  0
LINE
  8
0
 10
0.956696
 20
-24.1903
 11
1.38892
 21
-24.4213
  0
LINE
  8
0
 10
1.38892
 20
-24.4213
 11
1.76776
 21
-24.7322
  0
LINE
  8
0
 10
1.76776
 20
-24.7322
 11
2.07866
 21
-25.1111
  0
LINE
  8
0
 10
2.07866
 20
-25.1111
 11
2.30969
 21
-25.5433
  0
LINE
  8
0
 10
2.30969
 20
-25.5433
 11
2.45195
 21
-26.0123
  0
LINE
  8
0
 10
2.45195
 20
-26.0123
 11
2.5
 21
-26.5
  0
LINE
  8
0
 10
2.5
 20
-26.5
 11
2.45195
 21
-26.9877
  0
LINE
  8
0
 10
2.45195
 20
-26.9877
 11
2.30969
 21
-27.4567
  0
LINE
  8
0
 10
2.30969
 20
-27.4567
 11
2.07866
 21
-27.8889
  0
LINE
  8
0
 10
2.07866
 20
-27.8889
 11
1.76776
 21
-28.2678
  0
LINE
  8
0
 10
1.76776
 20
-28.2678
 11
1.38892
 21
-28.5787
  0
LINE
  8
0
 10
1.38892
 20
-28.5787
 11
0.956696
 21
-28.8097
  0
LINE
  8
0
 10
0.956696
 20
-28.8097
 11
0.487717
 21
-28.952
  0
LINE
  8
0
 10
0.487717
 20
-28.952
 11
0
 21
-29
  0
LINE
  8
0
 10
-130
 20
-29
 11
-130.488
 21
-28.952
  0
LINE
  8
0
 10
-130.488
 20
-28.952
 11
-130.957
 21
-28.8097
  0
LINE
  8
0
 10
-130.957
 20
-28.8097
 11
-131.389
 21
-28.5787
  0
LINE
  8
0
 10
-131.389
 20
-28.5787
 11
-131.768
 21
-28.2678
  0
LINE
  8
0
 10
-131.768
 20
-28.2678
 11
-132.079
 21
-27.8889
  0
LINE
  8
0
 10
-132.079
 20
-27.8889
 11
-132.31
 21
-27.4567
  0
LINE
  8
0
 10
-132.31
 20
-27.4567
 11
-132.452
 21
-26.9877
  0
LINE
  8
0
 10
-132.452
 20
-26.9877
 11
-132.5
 21
-26.5
  0
LINE
  8
0
 10
-132.5
 20
-26.5
 11
-132.452
 21
-26.0123
  0
LINE
  8
0
 10
-132.452
 20
-26.0123
 11
-132.31
 21
-25.5433
  0
LINE
  8
0
 10
-132.31
 20
-25.5433
 11
-132.079
 21
-25.1111
  0
LINE
  8
0
 10
-132.079
 20
-25.1111
 11
-131.768
 21
-24.7322
  0
LINE
  8
0
 10
-131.768
 20
-24.7322
 11
-131.389
 21
-24.4213
  0
LINE
  8
0
 10
-131.389
 20
-24.4213
 11
-130.957
 21
-24.1903
  0
LINE
  8
0
 10
-130.957
 20
-24.1903
 11
-130.488
 21
-24.048
  0
LINE
  8
0
 10
-130.488
 20
-24.048
 11
-130
 21
-24
  0
LINE
  8
0
 10
-130
 20
-24
 11
-129.512
 21
-24.048
  0
LINE
  8
0
 10
-129.512
 20
-24.048
 11
-129.043
 21
-24.1903
  0
LINE
  8
0
 10
-129.043
 20
-24.1903
 11
-128.611
 21
-24.4213
  0
LINE
  8
0
 10
-128.611
 20
-24.4213
 11
-128.232
 21
-24.7322
  0
LINE
  8
0
 10
-128.232
 20
-24.7322
 11
-127.921
 21
-25.1111
  0
LINE
  8
0
 10
-127.921
 20
-25.1111
 11
-127.69
 21
-25.5433
  0
LINE
  8
0
 10
-127.69
 20
-25.5433
 11
-127.548
 21
-26.0123
  0
LINE
  8
0
 10
-127.548
 20
-26.0123
 11
-127.5
 21
-26.5
  0
LINE
  8
0
 10
-127.5
 20
-26.5
 11
-127.548
 21
-26.9877
  0
LINE
  8
0
 10
-127.548
 20
-26.9877
 11
-127.69
 21
-27.4567
  0
LINE
  8
0
 10
-127.69
 20
-27.4567
 11
-127.921
 21
-27.8889
  0
LINE
  8
0
 10
-127.921
 20
-27.8889
 11
-128.232
 21
-28.2678
  0
LINE
  8
0
 10
-128.232
 20
-28.2678
 11
-128.611
 21
-28.5787
  0
LINE
  8
0
 10
-128.611
 20
-28.5787
 11
-129.043
 21
-28.8097
  0
LINE
  8
0
 10
-129.043
 20
-28.8097
 11
-129.512
 21
-28.952
  0
LINE
  8
0
 10
-129.512
 20
-28.952
 11
-130
 21
-29
  0
LINE
  8
0
 10
-236.45
 20
-42.7
 11
-236.45
 21
-27.8
  0
LINE
  8
0
 10
-236.45
 20
-27.8
 11
-230.05
 21
-27.8
  0
LINE
  8
0
 10
-230.05
 20
-27.8
 11
-230.05
 21
-42.7
  0
LINE
  8
0
 10
-230.05
 20
-42.7
 11
-236.45
 21
-42.7
  0
LINE
  8
0
 10
230.05
 20
-42.7
 11
230.05
 21
-27.8
  0
LINE
  8
0
 10
230.05
 20
-27.8
 11
236.45
 21
-27.8
  0
LINE
  8
0
 10
236.45
 20
-27.8
 11
236.45
 21
-42.7
  0
LINE
  8
0
 10
236.45
 20
-42.7
 11
230.05
 21
-42.7
  0
LINE
  8
0
 10
-164.979
 20
-36.3811
 11
-165.419
 21
-36.1801
  0
LINE
  8
0
 10
-165.419
 20
-36.1801
 11
-165.785
 21
-35.8633
  0
LINE
  8
0
 10
-165.785
 20
-35.8633
 11
-167.785
 21
-33.8633
  0
LINE
  8
0
 10
-167.785
 20
-33.8633
 11
-168.046
 21
-33.4562
  0
LINE
  8
0
 10
-168.046
 20
-33.4562
 11
-168.183
 21
-32.9919
  0
LINE
  8
0
 10
-168.183
 20
-32.9919
 11
-168.183
 21
-32.5081
  0
LINE
  8
0
 10
-168.183
 20
-32.5081
 11
-168.046
 21
-32.0438
  0
LINE
  8
0
 10
-168.046
 20
-32.0438
 11
-167.785
 21
-31.6367
  0
LINE
  8
0
 10
-167.785
 20
-31.6367
 11
-167.419
 21
-31.3199
  0
LINE
  8
0
 10
-167.419
 20
-31.3199
 11
-166.979
 21
-31.1189
  0
LINE
  8
0
 10
-166.979
 20
-31.1189
 11
-166.5
 21
-31.05
  0
LINE
  8
0
 10
-166.5
 20
-31.05
 11
-166.021
 21
-31.1189
  0
LINE
  8
0
 10
-166.021
 20
-31.1189
 11
-165.581
 21
-31.3199
  0
LINE
  8
0
 10
-165.581
 20
-31.3199
 11
-165.215
 21
-31.6367
  0
LINE
  8
0
 10
-165.215
 20
-31.6367
 11
-163.215
 21
-33.6367
  0
LINE
  8
0
 10
-163.215
 20
-33.6367
 11
-162.954
 21
-34.0438
  0
LINE
  8
0
 10
-162.954
 20
-34.0438
 11
-162.817
 21
-34.5081
  0
LINE
  8
0
 10
-162.817
 20
-34.5081
 11
-162.817
 21
-34.9919
  0
LINE
  8
0
 10
-162.817
 20
-34.9919
 11
-162.954
 21
-35.4562
  0
LINE
  8
0
 10
-162.954
 20
-35.4562
 11
-163.215
 21
-35.8633
  0
LINE
  8
0
 10
-163.215
 20
-35.8633
 11
-163.581
 21
-36.1801
  0
LINE
  8
0
 10
-163.581
 20
-36.1801
 11
-164.021
 21
-36.3811
  0
LINE
  8
0
 10
-164.021
 20
-36.3811
 11
-164.5
 21
-36.45
  0
LINE
  8
0
 10
-164.5
 20
-36.45
 11
-164.979
 21
-36.3811
  0
LINE
  8
0
 10
135.021
 20
-36.3811
 11
134.581
 21
-36.1801
  0
LINE
  8
0
 10
134.581
 20
-36.1801
 11
134.215
 21
-35.8633
  0
LINE
  8
0
 10
134.215
 20
-35.8633
 11
132.215
 21
-33.8633
  0
LINE
  8
0
 10
132.215
 20
-33.8633
 11
131.954
 21
-33.4562
  0
LINE
  8
0
 10
131.954
 20
-33.4562
 11
131.817
 21
-32.9919
  0
LINE
  8
0
 10
131.817
 20
-32.9919
 11
131.817
 21
-32.5081
  0
LINE
  8
0
 10
131.817
 20
-32.5081
 11
131.954
 21
-32.0438
  0
LINE
  8
0
 10
131.954
 20
-32.0438
 11
132.215
 21
-31.6367
  0
LINE
  8
0
 10
132.215
 20
-31.6367
 11
132.581
 21
-31.3199
  0
LINE
  8
0
 10
132.581
 20
-31.3199
 11
133.021
 21
-31.1189
  0
LINE
  8
0
 10
133.021
 20
-31.1189
 11
133.5
 21
-31.05
  0
LINE
  8
0
 10
133.5
 20
-31.05
 11
133.979
 21
-31.1189
  0
LINE
  8
0
 10
133.979
 20
-31.1189
 11
134.419
 21
-31.3199
  0
LINE
  8
0
 10
134.419
 20
-31.3199
 11
134.785
 21
-31.6367
  0
LINE
  8
0
 10
134.785
 20
-31.6367
 11
136.785
 21
-33.6367
  0
LINE
  8
0
 10
136.785
 20
-33.6367
 11
137.046
 21
-34.0438
  0
LINE
  8
0
 10
137.046
 20
-34.0438
 11
137.183
 21
-34.5081
  0
LINE
  8
0
 10
137.183
 20
-34.5081
 11
137.183
 21
-34.9919
  0
LINE
  8
0
 10
137.183
 20
-34.9919
 11
137.046
 21
-35.4562
  0
LINE
  8
0
 10
137.046
 20
-35.4562
 11
136.785
 21
-35.8633
  0
LINE
  8
0
 10
136.785
 20
-35.8633
 11
136.419
 21
-36.1801
  0
LINE
  8
0
 10
136.419
 20
-36.1801
 11
135.979
 21
-36.3811
  0
LINE
  8
0
 10
135.979
 20
-36.3811
 11
135.5
 21
-36.45
  0
LINE
  8
0
 10
135.5
 20
-36.45
 11
135.021
 21
-36.3811
  0
LINE
  8
0
 10
-14.9789
 20
-36.3811
 11
-15.4191
 21
-36.1801
  0
LINE
  8
0
 10
-15.4191
 20
-36.1801
 11
-15.7848
 21
-35.8633
  0
LINE
  8
0
 10
-15.7848
 20
-35.8633
 11
-17.7848
 21
-33.8633
  0
LINE
  8
0
 10
-17.7848
 20
-33.8633
 11
-18.0464
 21
-33.4562
  0
LINE
  8
0
 10
-18.0464
 20
-33.4562
 11
-18.1827
 21
-32.9919
  0
LINE
  8
0
 10
-18.1827
 20
-32.9919
 11
-18.1827
 21
-32.5081
  0
LINE
  8
0
 10
-18.1827
 20
-32.5081
 11
-18.0464
 21
-32.0438
  0
LINE
  8
0
 10
-18.0464
 20
-32.0438
 11
-17.7848
 21
-31.6367
  0
LINE
  8
0
 10
-17.7848
 20
-31.6367
 11
-17.4191
 21
-31.3199
  0
LINE
  8
0
 10
-17.4191
 20
-31.3199
 11
-16.9789
 21
-31.1189
  0
LINE
  8
0
 10
-16.9789
 20
-31.1189
 11
-16.5
 21
-31.05
  0
LINE
  8
0
 10
-16.5
 20
-31.05
 11
-16.021
 21
-31.1189
  0
LINE
  8
0
 10
-16.021
 20
-31.1189
 11
-15.5809
 21
-31.3199
  0
LINE
  8
0
 10
-15.5809
 20
-31.3199
 11
-15.2152
 21
-31.6367
  0
LINE
  8
0
 10
-15.2152
 20
-31.6367
 11
-13.2152
 21
-33.6367
  0
LINE
  8
0
 10
-13.2152
 20
-33.6367
 11
-12.9536
 21
-34.0438
  0
LINE
  8
0
 10
-12.9536
 20
-34.0438
 11
-12.8173
 21
-34.5081
  0
LINE
  8
0
 10
-12.8173
 20
-34.5081
 11
-12.8173
 21
-34.9919
  0
LINE
  8
0
 10
-12.8173
 20
-34.9919
 11
-12.9536
 21
-35.4562
  0
LINE
  8
0
 10
-12.9536
 20
-35.4562
 11
-13.2152
 21
-35.8633
  0
LINE
  8
0
 10
-13.2152
 20
-35.8633
 11
-13.5809
 21
-36.1801
  0
LINE
  8
0
 10
-13.5809
 20
-36.1801
 11
-14.021
 21
-36.3811
  0
LINE
  8
0
 10
-14.021
 20
-36.3811
 11
-14.5
 21
-36.45
  0
LINE
  8
0
 10
-14.5
 20
-36.45
 11
-14.9789
 21
-36.3811
  0
LINE
  8
0
 10
-135.742
 20
-36.4327
 11
-136.206
 21
-36.2964
  0
LINE
  8
0
 10
-136.206
 20
-36.2964
 11
-136.613
 21
-36.0348
  0
LINE
  8
0
 10
-136.613
 20
-36.0348
 11
-136.93
 21
-35.6691
  0
LINE
  8
0
 10
-136.93
 20
-35.6691
 11
-137.131
 21
-35.2289
  0
LINE
  8
0
 10
-137.131
 20
-35.2289
 11
-137.2
 21
-34.75
  0
LINE
  8
0
 10
-137.2
 20
-34.75
 11
-137.131
 21
-34.271
  0
LINE
  8
0
 10
-137.131
 20
-34.271
 11
-136.93
 21
-33.8309
  0
LINE
  8
0
 10
-136.93
 20
-33.8309
 11
-136.613
 21
-33.4652
  0
LINE
  8
0
 10
-136.613
 20
-33.4652
 11
-134.613
 21
-31.4652
  0
LINE
  8
0
 10
-134.613
 20
-31.4652
 11
-134.206
 21
-31.2036
  0
LINE
  8
0
 10
-134.206
 20
-31.2036
 11
-133.742
 21
-31.0673
  0
LINE
  8
0
 10
-133.742
 20
-31.0673
 11
-133.258
 21
-31.0673
  0
LINE
  8
0
 10
-133.258
 20
-31.0673
 11
-132.794
 21
-31.2036
  0
LINE
  8
0
 10
-132.794
 20
-31.2036
 11
-132.387
 21
-31.4652
  0
LINE
  8
0
 10
-132.387
 20
-31.4652
 11
-132.07
 21
-31.8309
  0
LINE
  8
0
 10
-132.07
 20
-31.8309
 11
-131.869
 21
-32.271
  0
LINE
  8
0
 10
-131.869
 20
-32.271
 11
-131.8
 21
-32.75
  0
LINE
  8
0
 10
-131.8
 20
-32.75
 11
-131.869
 21
-33.2289
  0
LINE
  8
0
 10
-131.869
 20
-33.2289
 11
-132.07
 21
-33.6691
  0
LINE
  8
0
 10
-132.07
 20
-33.6691
 11
-132.387
 21
-34.0348
  0
LINE
  8
0
 10
-132.387
 20
-34.0348
 11
-134.387
 21
-36.0348
  0
LINE
  8
0
 10
-134.387
 20
-36.0348
 11
-134.794
 21
-36.2964
  0
LINE
  8
0
 10
-134.794
 20
-36.2964
 11
-135.258
 21
-36.4327
  0
LINE
  8
0
 10
-135.258
 20
-36.4327
 11
-135.742
 21
-36.4327
  0
LINE
  8
0
 10
164.258
 20
-36.4327
 11
163.794
 21
-36.2964
  0
LINE
  8
0
 10
163.794
 20
-36.2964
 11
163.387
 21
-36.0348
  0
LINE
  8
0
 10
163.387
 20
-36.0348
 11
163.07
 21
-35.6691
  0
LINE
  8
0
 10
163.07
 20
-35.6691
 11
162.869
 21
-35.2289
  0
LINE
  8
0
 10
162.869
 20
-35.2289
 11
162.8
 21
-34.75
  0
LINE
  8
0
 10
162.8
 20
-34.75
 11
162.869
 21
-34.271
  0
LINE
  8
0
 10
162.869
 20
-34.271
 11
163.07
 21
-33.8309
  0
LINE
  8
0
 10
163.07
 20
-33.8309
 11
163.387
 21
-33.4652
  0
LINE
  8
0
 10
163.387
 20
-33.4652
 11
165.387
 21
-31.4652
  0
LINE
  8
0
 10
165.387
 20
-31.4652
 11
165.794
 21
-31.2036
  0
LINE
  8
0
 10
165.794
 20
-31.2036
 11
166.258
 21
-31.0673
  0
LINE
  8
0
 10
166.258
 20
-31.0673
 11
166.742
 21
-31.0673
  0
LINE
  8
0
 10
166.742
 20
-31.0673
 11
167.206
 21
-31.2036
  0
LINE
  8
0
 10
167.206
 20
-31.2036
 11
167.613
 21
-31.4652
  0
LINE
  8
0
 10
167.613
 20
-31.4652
 11
167.93
 21
-31.8309
  0
LINE
  8
0
 10
167.93
 20
-31.8309
 11
168.131
 21
-32.271
  0
LINE
  8
0
 10
168.131
 20
-32.271
 11
168.2
 21
-32.75
  0
LINE
  8
0
 10
168.2
 20
-32.75
 11
168.131
 21
-33.2289
  0
LINE
  8
0
 10
168.131
 20
-33.2289
 11
167.93
 21
-33.6691
  0
LINE
  8
0
 10
167.93
 20
-33.6691
 11
167.613
 21
-34.0348
  0
LINE
  8
0
 10
167.613
 20
-34.0348
 11
165.613
 21
-36.0348
  0
LINE
  8
0
 10
165.613
 20
-36.0348
 11
165.206
 21
-36.2964
  0
LINE
  8
0
 10
165.206
 20
-36.2964
 11
164.742
 21
-36.4327
  0
LINE
  8
0
 10
164.742
 20
-36.4327
 11
164.258
 21
-36.4327
  0
LINE
  8
0
 10
14.2581
 20
-36.4327
 11
13.7938
 21
-36.2964
  0
LINE
  8
0
 10
13.7938
 20
-36.2964
 11
13.3867
 21
-36.0348
  0
LINE
  8
0
 10
13.3867
 20
-36.0348
 11
13.0699
 21
-35.6691
  0
LINE
  8
0
 10
13.0699
 20
-35.6691
 11
12.8689
 21
-35.2289
  0
LINE
  8
0
 10
12.8689
 20
-35.2289
 11
12.8
 21
-34.75
  0
LINE
  8
0
 10
12.8
 20
-34.75
 11
12.8689
 21
-34.271
  0
LINE
  8
0
 10
12.8689
 20
-34.271
 11
13.0699
 21
-33.8309
  0
LINE
  8
0
 10
13.0699
 20
-33.8309
 11
13.3867
 21
-33.4652
  0
LINE
  8
0
 10
13.3867
 20
-33.4652
 11
15.3867
 21
-31.4652
  0
LINE
  8
0
 10
15.3867
 20
-31.4652
 11
15.7938
 21
-31.2036
  0
LINE
  8
0
 10
15.7938
 20
-31.2036
 11
16.2581
 21
-31.0673
  0
LINE
  8
0
 10
16.2581
 20
-31.0673
 11
16.7419
 21
-31.0673
  0
LINE
  8
0
 10
16.7419
 20
-31.0673
 11
17.2062
 21
-31.2036
  0
LINE
  8
0
 10
17.2062
 20
-31.2036
 11
17.6133
 21
-31.4652
  0
LINE
  8
0
 10
17.6133
 20
-31.4652
 11
17.9301
 21
-31.8309
  0
LINE
  8
0
 10
17.9301
 20
-31.8309
 11
18.1311
 21
-32.271
  0
LINE
  8
0
 10
18.1311
 20
-32.271
 11
18.2
 21
-32.75
  0
LINE
  8
0
 10
18.2
 20
-32.75
 11
18.1311
 21
-33.2289
  0
LINE
  8
0
 10
18.1311
 20
-33.2289
 11
17.9301
 21
-33.6691
  0
LINE
  8
0
 10
17.9301
 20
-33.6691
 11
17.6133
 21
-34.0348
  0
LINE
  8
0
 10
17.6133
 20
-34.0348
 11
15.6133
 21
-36.0348
  0
LINE
  8
0
 10
15.6133
 20
-36.0348
 11
15.2062
 21
-36.2964
  0
LINE
  8
0
 10
15.2062
 20
-36.2964
 11
14.7419
 21
-36.4327
  0
LINE
  8
0
 10
14.7419
 20
-36.4327
 11
14.2581
 21
-36.4327
  0
LINE
  8
0
 10
-220.488
 20
-39.702
 11
-220.957
 21
-39.5597
  0
LINE
  8
0
 10
-220.957
 20
-39.5597
 11
-221.389
 21
-39.3287
  0
LINE
  8
0
 10
-221.389
 20
-39.3287
 11
-221.768
 21
-39.0178
  0
LINE
  8
0
 10
-221.768
 20
-39.0178
 11
-222.079
 21
-38.6389
  0
LINE
  8
0
 10
-222.079
 20
-38.6389
 11
-222.31
 21
-38.2067
  0
LINE
  8
0
 10
-222.31
 20
-38.2067
 11
-222.452
 21
-37.7377
  0
LINE
  8
0
 10
-222.452
 20
-37.7377
 11
-222.5
 21
-37.25
  0
LINE
  8
0
 10
-222.5
 20
-37.25
 11
-222.452
 21
-36.7623
  0
LINE
  8
0
 10
-222.452
 20
-36.7623
 11
-222.31
 21
-36.2933
  0
LINE
  8
0
 10
-222.31
 20
-36.2933
 11
-222.079
 21
-35.8611
  0
LINE
  8
0
 10
-222.079
 20
-35.8611
 11
-221.768
 21
-35.4822
  0
LINE
  8
0
 10
-221.768
 20
-35.4822
 11
-221.389
 21
-35.1713
  0
LINE
  8
0
 10
-221.389
 20
-35.1713
 11
-220.957
 21
-34.9403
  0
LINE
  8
0
 10
-220.957
 20
-34.9403
 11
-220.488
 21
-34.798
  0
LINE
  8
0
 10
-220.488
 20
-34.798
 11
-220
 21
-34.75
  0
LINE
  8
0
 10
-220
 20
-34.75
 11
-219.512
 21
-34.798
  0
LINE
  8
0
 10
-219.512
 20
-34.798
 11
-219.043
 21
-34.9403
  0
LINE
  8
0
 10
-219.043
 20
-34.9403
 11
-218.611
 21
-35.1713
  0
LINE
  8
0
 10
-218.611
 20
-35.1713
 11
-218.232
 21
-35.4822
  0
LINE
  8
0
 10
-218.232
 20
-35.4822
 11
-217.921
 21
-35.8611
  0
LINE
  8
0
 10
-217.921
 20
-35.8611
 11
-217.69
 21
-36.2933
  0
LINE
  8
0
 10
-217.69
 20
-36.2933
 11
-217.548
 21
-36.7623
  0
LINE
  8
0
 10
-217.548
 20
-36.7623
 11
-217.5
 21
-37.25
  0
LINE
  8
0
 10
-217.5
 20
-37.25
 11
-217.548
 21
-37.7377
  0
LINE
  8
0
 10
-217.548
 20
-37.7377
 11
-217.69
 21
-38.2067
  0
LINE
  8
0
 10
-217.69
 20
-38.2067
 11
-217.921
 21
-38.6389
  0
LINE
  8
0
 10
-217.921
 20
-38.6389
 11
-218.232
 21
-39.0178
  0
LINE
  8
0
 10
-218.232
 20
-39.0178
 11
-218.611
 21
-39.3287
  0
LINE
  8
0
 10
-218.611
 20
-39.3287
 11
-219.043
 21
-39.5597
  0
LINE
  8
0
 10
-219.043
 20
-39.5597
 11
-219.512
 21
-39.702
  0
LINE
  8
0
 10
-219.512
 20
-39.702
 11
-220
 21
-39.75
  0
LINE
  8
0
 10
-220
 20
-39.75
 11
-220.488
 21
-39.702
  0
LINE
  8
0
 10
219.512
 20
-39.702
 11
219.043
 21
-39.5597
  0
LINE
  8
0
 10
219.043
 20
-39.5597
 11
218.611
 21
-39.3287
  0
LINE
  8
0
 10
218.611
 20
-39.3287
 11
218.232
 21
-39.0178
  0
LINE
  8
0
 10
218.232
 20
-39.0178
 11
217.921
 21
-38.6389
  0
LINE
  8
0
 10
217.921
 20
-38.6389
 11
217.69
 21
-38.2067
  0
LINE
  8
0
 10
217.69
 20
-38.2067
 11
217.548
 21
-37.7377
  0
LINE
  8
0
 10
217.548
 20
-37.7377
 11
217.5
 21
-37.25
  0
LINE
  8
0
 10
217.5
 20
-37.25
 11
217.548
 21
-36.7623
  0
LINE
  8
0
 10
217.548
 20
-36.7623
 11
217.69
 21
-36.2933
  0
LINE
  8
0
 10
217.69
 20
-36.2933
 11
217.921
 21
-35.8611
  0
LINE
  8
0
 10
217.921
 20
-35.8611
 11
218.232
 21
-35.4822
  0
LINE
  8
0
 10
218.232
 20
-35.4822
 11
218.611
 21
-35.1713
  0
LINE
  8
0
 10
218.611
 20
-35.1713
 11
219.043
 21
-34.9403
  0
LINE
  8
0
 10
219.043
 20
-34.9403
 11
219.512
 21
-34.798
  0
LINE
  8
0
 10
219.512
 20
-34.798
 11
220
 21
-34.75
  0
LINE
  8
0
 10
220
 20
-34.75
 11
220.488
 21
-34.798
  0
LINE
  8
0
 10
220.488
 20
-34.798
 11
220.957
 21
-34.9403
  0
LINE
  8
0
 10
220.957
 20
-34.9403
 11
221.389
 21
-35.1713
  0
LINE
  8
0
 10
221.389
 20
-35.1713
 11
221.768
 21
-35.4822
  0
LINE
  8
0
 10
221.768
 20
-35.4822
 11
222.079
 21
-35.8611
  0
LINE
  8
0
 10
222.079
 20
-35.8611
 11
222.31
 21
-36.2933
  0
LINE
  8
0
 10
222.31
 20
-36.2933
 11
222.452
 21
-36.7623
  0
LINE
  8
0
 10
222.452
 20
-36.7623
 11
222.5
 21
-37.25
  0
LINE
  8
0
 10
222.5
 20
-37.25
 11
222.452
 21
-37.7377
  0
LINE
  8
0
 10
222.452
 20
-37.7377
 11
222.31
 21
-38.2067
  0
LINE
  8
0
 10
222.31
 20
-38.2067
 11
222.079
 21
-38.6389
  0
LINE
  8
0
 10
222.079
 20
-38.6389
 11
221.768
 21
-39.0178
  0
LINE
  8
0
 10
221.768
 20
-39.0178
 11
221.389
 21
-39.3287
  0
LINE
  8
0
 10
221.389
 20
-39.3287
 11
220.957
 21
-39.5597
  0
LINE
  8
0
 10
220.957
 20
-39.5597
 11
220.488
 21
-39.702
  0
LINE
  8
0
 10
220.488
 20
-39.702
 11
220
 21
-39.75
  0
LINE
  8
0
 10
220
 20
-39.75
 11
219.512
 21
-39.702
  0
LINE
  8
0
 10
-115.249
 20
-54.2438
 11
-115.745
 21
-54.1942
  0
LINE
  8
0
 10
-115.745
 20
-54.1942
 11
-116.234
 21
-54.0954
  0
LINE
  8
0
 10
-116.234
 20
-54.0954
 11
-116.71
 21
-53.9485
  0
LINE
  8
0
 10
-116.71
 20
-53.9485
 11
-117.169
 21
-53.7548
  0
LINE
  8
0
 10
-117.169
 20
-53.7548
 11
-117.607
 21
-53.5164
  0
LINE
  8
0
 10
-117.607
 20
-53.5164
 11
-118.019
 21
-53.2357
  0
LINE
  8
0
 10
-118.019
 20
-53.2357
 11
-118.401
 21
-52.9153
  0
LINE
  8
0
 10
-118.401
 20
-52.9153
 11
-118.749
 21
-52.5584
  0
LINE
  8
0
 10
-118.749
 20
-52.5584
 11
-119.06
 21
-52.1687
  0
LINE
  8
0
 10
-119.06
 20
-52.1687
 11
-119.33
 21
-51.75
  0
LINE
  8
0
 10
-119.33
 20
-51.75
 11
-119.558
 21
-51.3064
  0
LINE
  8
0
 10
-119.558
 20
-51.3064
 11
-119.74
 21
-50.8424
  0
LINE
  8
0
 10
-119.74
 20
-50.8424
 11
-119.875
 21
-50.3626
  0
LINE
  8
0
 10
-119.875
 20
-50.3626
 11
-119.961
 21
-49.8717
  0
LINE
  8
0
 10
-119.961
 20
-49.8717
 11
-119.998
 21
-49.3746
  0
LINE
  8
0
 10
-119.998
 20
-49.3746
 11
-119.986
 21
-48.8763
  0
LINE
  8
0
 10
-119.986
 20
-48.8763
 11
-119.924
 21
-48.3818
  0
LINE
  8
0
 10
-119.924
 20
-48.3818
 11
-119.813
 21
-47.8958
  0
LINE
  8
0
 10
-119.813
 20
-47.8958
 11
-119.654
 21
-47.4233
  0
LINE
  8
0
 10
-119.654
 20
-47.4233
 11
-119.449
 21
-46.9689
  0
LINE
  8
0
 10
-119.449
 20
-46.9689
 11
-119.2
 21
-46.5373
  0
LINE
  8
0
 10
-119.2
 20
-46.5373
 11
-118.909
 21
-46.1325
  0
LINE
  8
0
 10
-118.909
 20
-46.1325
 11
-118.579
 21
-45.7588
  0
LINE
  8
0
 10
-118.579
 20
-45.7588
 11
-118.214
 21
-45.4198
  0
LINE
  8
0
 10
-118.214
 20
-45.4198
 11
-117.817
 21
-45.1188
  0
LINE
  8
0
 10
-117.817
 20
-45.1188
 11
-117.391
 21
-44.8589
  0
LINE
  8
0
 10
-117.391
 20
-44.8589
 11
-116.942
 21
-44.6426
  0
LINE
  8
0
 10
-116.942
 20
-44.6426
 11
-116.474
 21
-44.4721
  0
LINE
  8
0
 10
-116.474
 20
-44.4721
 11
-115.991
 21
-44.3491
  0
LINE
  8
0
 10
-115.991
 20
-44.3491
 11
-115.498
 21
-44.2748
  0
LINE
  8
0
 10
-115.498
 20
-44.2748
 11
-115
 21
-44.25
  0
LINE
  8
0
 10
-115
 20
-44.25
 11
-114.502
 21
-44.2748
  0
LINE
  8
0
 10
-114.502
 20
-44.2748
 11
-114.009
 21
-44.3491
  0
LINE
  8
0
 10
-114.009
 20
-44.3491
 11
-113.526
 21
-44.4721
  0
LINE
  8
0
 10
-113.526
 20
-44.4721
 11
-113.058
 21
-44.6426
  0
LINE
  8
0
 10
-113.058
 20
-44.6426
 11
-112.609
 21
-44.8589
  0
LINE
  8
0
 10
-112.609
 20
-44.8589
 11
-112.183
 21
-45.1188
  0
LINE
  8
0
 10
-112.183
 20
-45.1188
 11
-111.786
 21
-45.4198
  0
LINE
  8
0
 10
-111.786
 20
-45.4198
 11
-111.421
 21
-45.7588
  0
LINE
  8
0
 10
-111.421
 20
-45.7588
 11
-111.091
 21
-46.1325
  0
LINE
  8
0
 10
-111.091
 20
-46.1325
 11
-110.8
 21
-46.5373
  0
LINE
  8
0
 10
-110.8
 20
-46.5373
 11
-110.551
 21
-46.9689
  0
LINE
  8
0
 10
-110.551
 20
-46.9689
 11
-110.346
 21
-47.4233
  0
LINE
  8
0
 10
-110.346
 20
-47.4233
 11
-110.187
 21
-47.8958
  0
LINE
  8
0
 10
-110.187
 20
-47.8958
 11
-110.076
 21
-48.3818
  0
LINE
  8
0
 10
-110.076
 20
-48.3818
 11
-110.014
 21
-48.8763
  0
LINE
  8
0
 10
-110.014
 20
-48.8763
 11
-110.002
 21
-49.3746
  0
LINE
  8
0
 10
-110.002
 20
-49.3746
 11
-110.039
 21
-49.8717
  0
LINE
  8
0
 10
-110.039
 20
-49.8717
 11
-110.125
 21
-50.3626
  0
LINE
  8
0
 10
-110.125
 20
-50.3626
 11
-110.26
 21
-50.8424
  0
LINE
  8
0
 10
-110.26
 20
-50.8424
 11
-110.442
 21
-51.3064
  0
LINE
  8
0
 10
-110.442
 20
-51.3064
 11
-110.67
 21
-51.75
  0
LINE
  8
0
 10
-110.67
 20
-51.75
 11
-110.94
 21
-52.1687
  0
LINE
  8
0
 10
-110.94
 20
-52.1687
 11
-111.251
 21
-52.5584
  0
LINE
  8
0
 10
-111.251
 20
-52.5584
 11
-111.599
 21
-52.9153
  0
LINE
  8
0
 10
-111.599
 20
-52.9153
 11
-111.981
 21
-53.2357
  0
LINE
  8
0
 10
-111.981
 20
-53.2357
 11
-112.393
 21
-53.5164
  0
LINE
  8
0
 10
-112.393
 20
-53.5164
 11
-112.831
 21
-53.7548
  0
LINE
  8
0
 10
-112.831
 20
-53.7548
 11
-113.29
 21
-53.9485
  0
LINE
  8
0
 10
-113.29
 20
-53.9485
 11
-113.766
 21
-54.0954
  0
LINE
  8
0
 10
-113.766
 20
-54.0954
 11
-114.255
 21
-54.1942
  0
LINE
  8
0
 10
-114.255
 20
-54.1942
 11
-114.751
 21
-54.2438
  0
LINE
  8
0
 10
-114.751
 20
-54.2438
 11
-115.249
 21
-54.2438
  0
LINE
  8
0
 10
114.751
 20
-54.2438
 11
114.255
 21
-54.1942
  0
LINE
  8
0
 10
114.255
 20
-54.1942
 11
113.766
 21
-54.0954
  0
LINE
  8
0
 10
113.766
 20
-54.0954
 11
113.29
 21
-53.9485
  0
LINE
  8
0
 10
113.29
 20
-53.9485
 11
112.831
 21
-53.7548
  0
LINE
  8
0
 10
112.831
 20
-53.7548
 11
112.393
 21
-53.5164
  0
LINE
  8
0
 10
112.393
 20
-53.5164
 11
111.981
 21
-53.2357
  0
LINE
  8
0
 10
111.981
 20
-53.2357
 11
111.599
 21
-52.9153
  0
LINE
  8
0
 10
111.599
 20
-52.9153
 11
111.251
 21
-52.5584
  0
LINE
  8
0
 10
111.251
 20
-52.5584
 11
110.94
 21
-52.1687
  0
LINE
  8
0
 10
110.94
 20
-52.1687
 11
110.67
 21
-51.75
  0
LINE
  8
0
 10
110.67
 20
-51.75
 11
110.442
 21
-51.3064
  0
LINE
  8
0
 10
110.442
 20
-51.3064
 11
110.26
 21
-50.8424
  0
LINE
  8
0
 10
110.26
 20
-50.8424
 11
110.125
 21
-50.3626
  0
LINE
  8
0
 10
110.125
 20
-50.3626
 11
110.039
 21
-49.8717
  0
LINE
  8
0
 10
110.039
 20
-49.8717
 11
110.002
 21
-49.3746
  0
LINE
  8
0
 10
110.002
 20
-49.3746
 11
110.014
 21
-48.8763
  0
LINE
  8
0
 10
110.014
 20
-48.8763
 11
110.076
 21
-48.3818
  0
LINE
  8
0
 10
110.076
 20
-48.3818
 11
110.187
 21
-47.8958
  0
LINE
  8
0
 10
110.187
 20
-47.8958
 11
110.346
 21
-47.4233
  0
LINE
  8
0
 10
110.346
 20
-47.4233
 11
110.551
 21
-46.9689
  0
LINE
  8
0
 10
110.551
 20
-46.9689
 11
110.8
 21
-46.5373
  0
LINE
  8
0
 10
110.8
 20
-46.5373
 11
111.091
 21
-46.1325
  0
LINE
  8
0
 10
111.091
 20
-46.1325
 11
111.421
 21
-45.7588
  0
LINE
  8
0
 10
111.421
 20
-45.7588
 11
111.786
 21
-45.4198
  0
LINE
  8
0
 10
111.786
 20
-45.4198
 11
112.183
 21
-45.1188
  0
LINE
  8
0
 10
112.183
 20
-45.1188
 11
112.609
 21
-44.8589
  0
LINE
  8
0
 10
112.609
 20
-44.8589
 11
113.058
 21
-44.6426
  0
LINE
  8
0
 10
113.058
 20
-44.6426
 11
113.526
 21
-44.4721
  0
LINE
  8
0
 10
113.526
 20
-44.4721
 11
114.009
 21
-44.3491
  0
LINE
  8
0
 10
114.009
 20
-44.3491
 11
114.502
 21
-44.2748
  0
LINE
  8
0
 10
114.502
 20
-44.2748
 11
115
 21
-44.25
  0
LINE
  8
0
 10
115
 20
-44.25
 11
115.498
 21
-44.2748
  0
LINE
  8
0
 10
115.498
 20
-44.2748
 11
115.991
 21
-44.3491
  0
LINE
  8
0
 10
115.991
 20
-44.3491
 11
116.474
 21
-44.4721
  0
LINE
  8
0
 10
116.474
 20
-44.4721
 11
116.942
 21
-44.6426
  0
LINE
  8
0
 10
116.942
 20
-44.6426
 11
117.391
 21
-44.8589
  0
LINE
  8
0
 10
117.391
 20
-44.8589
 11
117.817
 21
-45.1188
  0
LINE
  8
0
 10
117.817
 20
-45.1188
 11
118.214
 21
-45.4198
  0
LINE
  8
0
 10
118.214
 20
-45.4198
 11
118.579
 21
-45.7588
  0
LINE
  8
0
 10
118.579
 20
-45.7588
 11
118.909
 21
-46.1325
  0
LINE
  8
0
 10
118.909
 20
-46.1325
 11
119.2
 21
-46.5373
  0
LINE
  8
0
 10
119.2
 20
-46.5373
 11
119.449
 21
-46.9689
  0
LINE
  8
0
 10
119.449
 20
-46.9689
 11
119.654
 21
-47.4233
  0
LINE
  8
0
 10
119.654
 20
-47.4233
 11
119.813
 21
-47.8958
  0
LINE
  8
0
 10
119.813
 20
-47.8958
 11
119.924
 21
-48.3818
  0
LINE
  8
0
 10
119.924
 20
-48.3818
 11
119.986
 21
-48.8763
  0
LINE
  8
0
 10
119.986
 20
-48.8763
 11
119.998
 21
-49.3746
  0
LINE
  8
0
 10
119.998
 20
-49.3746
 11
119.961
 21
-49.8717
  0
LINE
  8
0
 10
119.961
 20
-49.8717
 11
119.875
 21
-50.3626
  0
LINE
  8
0
 10
119.875
 20
-50.3626
 11
119.74
 21
-50.8424
  0
LINE
  8
0
 10
119.74
 20
-50.8424
 11
119.558
 21
-51.3064
  0
LINE
  8
0
 10
119.558
 20
-51.3064
 11
119.33
 21
-51.75
  0
LINE
  8
0
 10
119.33
 20
-51.75
 11
119.06
 21
-52.1687
  0
LINE
  8
0
 10
119.06
 20
-52.1687
 11
118.749
 21
-52.5584
  0
LINE
  8
0
 10
118.749
 20
-52.5584
 11
118.401
 21
-52.9153
  0
LINE
  8
0
 10
118.401
 20
-52.9153
 11
118.019
 21
-53.2357
  0
LINE
  8
0
 10
118.019
 20
-53.2357
 11
117.607
 21
-53.5164
  0
LINE
  8
0
 10
117.607
 20
-53.5164
 11
117.169
 21
-53.7548
  0
LINE
  8
0
 10
117.169
 20
-53.7548
 11
116.71
 21
-53.9485
  0
LINE
  8
0
 10
116.71
 20
-53.9485
 11
116.234
 21
-54.0954
  0
LINE
  8
0
 10
116.234
 20
-54.0954
 11
115.745
 21
-54.1942
  0
LINE
  8
0
 10
115.745
 20
-54.1942
 11
115.249
 21
-54.2438
  0
LINE
  8
0
 10
115.249
 20
-54.2438
 11
114.751
 21
-54.2438
  0
LINE
  8
0
 10
-105.5
 20
-51.75
 11
-105.5
 21
-46.75
  0
LINE
  8
0
 10
-105.5
 20
-46.75
 11
-102.5
 21
-46.75
  0
LINE
  8
0
 10
-102.5
 20
-46.75
 11
-102.5
 21
-51.75
  0
LINE
  8
0
 10
-102.5
 20
-51.75
 11
-105.5
 21
-51.75
  0
LINE
  8
0
 10
-127.5
 20
-51.75
 11
-127.5
 21
-46.75
  0
LINE
  8
0
 10
-127.5
 20
-46.75
 11
-124.5
 21
-46.75
  0
LINE
  8
0
 10
-124.5
 20
-46.75
 11
-124.5
 21
-51.75
  0
LINE
  8
0
 10
-124.5
 20
-51.75
 11
-127.5
 21
-51.75
  0
LINE
  8
0
 10
102.5
 20
-51.75
 11
102.5
 21
-46.75
  0
LINE
  8
0
 10
102.5
 20
-46.75
 11
105.5
 21
-46.75
  0
LINE
  8
0
 10
105.5
 20
-46.75
 11
105.5
 21
-51.75
  0
LINE
  8
0
 10
105.5
 20
-51.75
 11
102.5
 21
-51.75
  0
LINE
  8
0
 10
124.5
 20
-51.75
 11
124.5
 21
-46.75
  0
LINE
  8
0
 10
124.5
 20
-46.75
 11
127.5
 21
-46.75
  0
LINE
  8
0
 10
127.5
 20
-46.75
 11
127.5
 21
-51.75
  0
LINE
  8
0
 10
127.5
 20
-51.75
 11
124.5
 21
-51.75
  0
ENDSEC
  0
SECTION
  2
OBJECTS
  0
DICTIONARY
  0
ENDSEC
  0
EOF
