  0
SECTION
  2
BLOCKS
  0
ENDSEC
  0
SECTION
  2
ENTITIES
  0
LINE
  8
0
 10
-207.052
 20
-50.0652
 11
-207.175
 21
-49.5834
  0
LINE
  8
0
 10
-207.175
 20
-49.5834
 11
-207.278
 21
-49.0971
  0
LINE
  8
0
 10
-207.278
 20
-49.0971
 11
-207.361
 21
-48.6072
  0
LINE
  8
0
 10
-207.361
 20
-48.6072
 11
-207.425
 21
-48.1143
  0
LINE
  8
0
 10
-207.425
 20
-48.1143
 11
-207.47
 21
-47.6192
  0
LINE
  8
0
 10
-207.47
 20
-47.6192
 11
-207.494
 21
-47.1228
  0
LINE
  8
0
 10
-207.494
 20
-47.1228
 11
-207.499
 21
-46.6257
  0
LINE
  8
0
 10
-207.499
 20
-46.6257
 11
-207.485
 21
-46.1289
  0
LINE
  8
0
 10
-207.485
 20
-46.1289
 11
-207.45
 21
-45.633
  0
LINE
  8
0
 10
-207.45
 20
-45.633
 11
-207.396
 21
-45.1389
  0
LINE
  8
0
 10
-207.396
 20
-45.1389
 11
-207.322
 21
-44.6474
  0
LINE
  8
0
 10
-207.322
 20
-44.6474
 11
-207.229
 21
-44.1592
  0
LINE
  8
0
 10
-207.229
 20
-44.1592
 11
-207.116
 21
-43.6751
  0
LINE
  8
0
 10
-207.116
 20
-43.6751
 11
-206.984
 21
-43.1958
  0
LINE
  8
0
 10
-206.984
 20
-43.1958
 11
-206.833
 21
-42.7222
  0
LINE
  8
0
 10
-206.833
 20
-42.7222
 11
-206.664
 21
-42.2549
  0
LINE
  8
0
 10
-206.664
 20
-42.2549
 11
-206.476
 21
-41.7948
  0
LINE
  8
0
 10
-206.476
 20
-41.7948
 11
-206.27
 21
-41.3425
  0
LINE
  8
0
 10
-206.27
 20
-41.3425
 11
-206.046
 21
-40.8987
  0
LINE
  8
0
 10
-206.046
 20
-40.8987
 11
-205.805
 21
-40.4642
  0
LINE
  8
0
 10
-205.805
 20
-40.4642
 11
-205.546
 21
-40.0396
  0
LINE
  8
0
 10
-205.546
 20
-40.0396
 11
-205.271
 21
-39.6256
  0
LINE
  8
0
 10
-205.271
 20
-39.6256
 11
-204.98
 21
-39.2229
  0
LINE
  8
0
 10
-204.98
 20
-39.2229
 11
-204.672
 21
-38.8321
  0
LINE
  8
0
 10
-204.672
 20
-38.8321
 11
-204.35
 21
-38.4538
  0
LINE
  8
0
 10
-204.35
 20
-38.4538
 11
-204.013
 21
-38.0886
  0
LINE
  8
0
 10
-204.013
 20
-38.0886
 11
-203.661
 21
-37.7372
  0
LINE
  8
0
 10
-203.661
 20
-37.7372
 11
-203.296
 21
-37.3999
  0
LINE
  8
0
 10
-203.296
 20
-37.3999
 11
-202.918
 21
-37.0775
  0
LINE
  8
0
 10
-202.918
 20
-37.0775
 11
-202.527
 21
-36.7704
  0
LINE
  8
0
 10
-202.527
 20
-36.7704
 11
-202.124
 21
-36.479
  0
LINE
  8
0
 10
-202.124
 20
-36.479
 11
-201.71
 21
-36.2039
  0
LINE
  8
0
 10
-201.71
 20
-36.2039
 11
-201.286
 21
-35.9454
  0
LINE
  8
0
 10
-201.286
 20
-35.9454
 11
-200.851
 21
-35.7041
  0
LINE
  8
0
 10
-200.851
 20
-35.7041
 11
-200.408
 21
-35.4802
  0
LINE
  8
0
 10
-200.408
 20
-35.4802
 11
-199.955
 21
-35.2741
  0
LINE
  8
0
 10
-199.955
 20
-35.2741
 11
-199.495
 21
-35.0862
  0
LINE
  8
0
 10
-199.495
 20
-35.0862
 11
-199.028
 21
-34.9167
  0
LINE
  8
0
 10
-199.028
 20
-34.9167
 11
-198.554
 21
-34.7659
  0
LINE
  8
0
 10
-198.554
 20
-34.7659
 11
-198.075
 21
-34.6341
  0
LINE
  8
0
 10
-198.075
 20
-34.6341
 11
-197.591
 21
-34.5214
  0
LINE
  8
0
 10
-197.591
 20
-34.5214
 11
-197.103
 21
-34.4281
  0
LINE
  8
0
 10
-197.103
 20
-34.4281
 11
-196.611
 21
-34.3542
  0
LINE
  8
0
 10
-196.611
 20
-34.3542
 11
-196.117
 21
-34.3
  0
LINE
  8
0
 10
-196.117
 20
-34.3
 11
-195.621
 21
-34.2654
  0
LINE
  8
0
 10
-195.621
 20
-34.2654
 11
-195.124
 21
-34.2506
  0
LINE
  8
0
 10
-195.124
 20
-34.2506
 11
-194.627
 21
-34.2556
  0
LINE
  8
0
 10
-194.627
 20
-34.2556
 11
-194.131
 21
-34.2803
  0
LINE
  8
0
 10
-194.131
 20
-34.2803
 11
-193.636
 21
-34.3247
  0
LINE
  8
0
 10
-193.636
 20
-34.3247
 11
-193.143
 21
-34.3887
  0
LINE
  8
0
 10
-193.143
 20
-34.3887
 11
-192.653
 21
-34.4723
  0
LINE
  8
0
 10
-192.653
 20
-34.4723
 11
-192.167
 21
-34.5754
  0
LINE
  8
0
 10
-192.167
 20
-34.5754
 11
-191.685
 21
-34.6976
  0
LINE
  8
0
 10
-191.685
 20
-34.6976
 11
-191.208
 21
-34.839
  0
LINE
  8
0
 10
-191.208
 20
-34.839
 11
-190.738
 21
-34.9991
  0
LINE
  8
0
 10
-190.738
 20
-34.9991
 11
-190.274
 21
-35.1779
  0
LINE
  8
0
 10
-190.274
 20
-35.1779
 11
-189.818
 21
-35.3749
  0
LINE
  8
0
 10
-189.818
 20
-35.3749
 11
-189.369
 21
-35.5899
  0
LINE
  8
0
 10
-189.369
 20
-35.5899
 11
-188.93
 21
-35.8226
  0
LINE
  8
0
 10
-188.93
 20
-35.8226
 11
-188.501
 21
-36.0726
  0
LINE
  8
0
 10
-188.501
 20
-36.0726
 11
-188.081
 21
-36.3394
  0
LINE
  8
0
 10
-188.081
 20
-36.3394
 11
-187.673
 21
-36.6227
  0
LINE
  8
0
 10
-187.673
 20
-36.6227
 11
-187.276
 21
-36.922
  0
LINE
  8
0
 10
-187.276
 20
-36.922
 11
-186.891
 21
-37.2368
  0
LINE
  8
0
 10
-186.891
 20
-37.2368
 11
-186.52
 21
-37.5667
  0
LINE
  8
0
 10
-186.52
 20
-37.5667
 11
-186.161
 21
-37.9112
  0
LINE
  8
0
 10
-186.161
 20
-37.9112
 11
-185.817
 21
-38.2695
  0
LINE
  8
0
 10
-185.817
 20
-38.2695
 11
-185.487
 21
-38.6413
  0
LINE
  8
0
 10
-185.487
 20
-38.6413
 11
-185.172
 21
-39.026
  0
LINE
  8
0
 10
-185.172
 20
-39.026
 11
-184.873
 21
-39.4228
  0
LINE
  8
0
 10
-184.873
 20
-39.4228
 11
-184.589
 21
-39.8312
  0
LINE
  8
0
 10
-184.589
 20
-39.8312
 11
-184.323
 21
-40.2506
  0
LINE
  8
0
 10
-184.323
 20
-40.2506
 11
-184.073
 21
-40.6802
  0
LINE
  8
0
 10
-184.073
 20
-40.6802
 11
-183.84
 21
-41.1194
  0
LINE
  8
0
 10
-183.84
 20
-41.1194
 11
-183.625
 21
-41.5676
  0
LINE
  8
0
 10
-183.625
 20
-41.5676
 11
-183.428
 21
-42.0239
  0
LINE
  8
0
 10
-183.428
 20
-42.0239
 11
-183.249
 21
-42.4877
  0
LINE
  8
0
 10
-183.249
 20
-42.4877
 11
-183.089
 21
-42.9583
  0
LINE
  8
0
 10
-183.089
 20
-42.9583
 11
-182.948
 21
-43.4348
  0
LINE
  8
0
 10
-182.948
 20
-43.4348
 11
-182.825
 21
-43.9166
  0
LINE
  8
0
 10
-182.825
 20
-43.9166
 11
-182.722
 21
-44.4028
  0
LINE
  8
0
 10
-182.722
 20
-44.4028
 11
-182.639
 21
-44.8928
  0
LINE
  8
0
 10
-182.639
 20
-44.8928
 11
-182.575
 21
-45.3857
  0
LINE
  8
0
 10
-182.575
 20
-45.3857
 11
-182.53
 21
-45.8808
  0
LINE
  8
0
 10
-182.53
 20
-45.8808
 11
-182.506
 21
-46.3772
  0
LINE
  8
0
 10
-182.506
 20
-46.3772
 11
-182.501
 21
-46.8743
  0
LINE
  8
0
 10
-182.501
 20
-46.8743
 11
-182.515
 21
-47.3711
  0
LINE
  8
0
 10
-182.515
 20
-47.3711
 11
-182.55
 21
-47.8669
  0
LINE
  8
0
 10
-182.55
 20
-47.8669
 11
-182.604
 21
-48.361
  0
LINE
  8
0
 10
-182.604
 20
-48.361
 11
-182.678
 21
-48.8526
  0
LINE
  8
0
 10
-182.678
 20
-48.8526
 11
-182.771
 21
-49.3408
  0
LINE
  8
0
 10
-182.771
 20
-49.3408
 11
-182.884
 21
-49.8249
  0
LINE
  8
0
 10
-182.884
 20
-49.8249
 11
-183.001
 21
-50.25
  0
LINE
  8
0
 10
-183.001
 20
-50.25
 11
183.001
 21
-50.25
  0
LINE
  8
0
 10
183.001
 20
-50.25
 11
182.884
 21
-49.8249
  0
LINE
  8
0
 10
182.884
 20
-49.8249
 11
182.771
 21
-49.3408
  0
LINE
  8
0
 10
182.771
 20
-49.3408
 11
182.678
 21
-48.8526
  0
LINE
  8
0
 10
182.678
 20
-48.8526
 11
182.604
 21
-48.361
  0
LINE
  8
0
 10
182.604
 20
-48.361
 11
182.55
 21
-47.8669
  0
LINE
  8
0
 10
182.55
 20
-47.8669
 11
182.515
 21
-47.3711
  0
LINE
  8
0
 10
182.515
 20
-47.3711
 11
182.501
 21
-46.8743
  0
LINE
  8
0
 10
182.501
 20
-46.8743
 11
182.506
 21
-46.3772
  0
LINE
  8
0
 10
182.506
 20
-46.3772
 11
182.53
 21
-45.8808
  0
LINE
  8
0
 10
182.53
 20
-45.8808
 11
182.575
 21
-45.3857
  0
LINE
  8
0
 10
182.575
 20
-45.3857
 11
182.639
 21
-44.8928
  0
LINE
  8
0
 10
182.639
 20
-44.8928
 11
182.722
 21
-44.4028
  0
LINE
  8
0
 10
182.722
 20
-44.4028
 11
182.825
 21
-43.9166
  0
LINE
  8
0
 10
182.825
 20
-43.9166
 11
182.948
 21
-43.4348
  0
LINE
  8
0
 10
182.948
 20
-43.4348
 11
183.089
 21
-42.9583
  0
LINE
  8
0
 10
183.089
 20
-42.9583
 11
183.249
 21
-42.4877
  0
LINE
  8
0
 10
183.249
 20
-42.4877
 11
183.428
 21
-42.0239
  0
LINE
  8
0
 10
183.428
 20
-42.0239
 11
183.625
 21
-41.5676
  0
LINE
  8
0
 10
183.625
 20
-41.5676
 11
183.84
 21
-41.1194
  0
LINE
  8
0
 10
183.84
 20
-41.1194
 11
184.073
 21
-40.6802
  0
LINE
  8
0
 10
184.073
 20
-40.6802
 11
184.323
 21
-40.2506
  0
LINE
  8
0
 10
184.323
 20
-40.2506
 11
184.589
 21
-39.8312
  0
LINE
  8
0
 10
184.589
 20
-39.8312
 11
184.873
 21
-39.4228
  0
LINE
  8
0
 10
184.873
 20
-39.4228
 11
185.172
 21
-39.026
  0
LINE
  8
0
 10
185.172
 20
-39.026
 11
185.487
 21
-38.6413
  0
LINE
  8
0
 10
185.487
 20
-38.6413
 11
185.817
 21
-38.2695
  0
LINE
  8
0
 10
185.817
 20
-38.2695
 11
186.161
 21
-37.9112
  0
LINE
  8
0
 10
186.161
 20
-37.9112
 11
186.52
 21
-37.5667
  0
LINE
  8
0
 10
186.52
 20
-37.5667
 11
186.891
 21
-37.2368
  0
LINE
  8
0
 10
186.891
 20
-37.2368
 11
187.276
 21
-36.922
  0
LINE
  8
0
 10
187.276
 20
-36.922
 11
187.673
 21
-36.6227
  0
LINE
  8
0
 10
187.673
 20
-36.6227
 11
188.081
 21
-36.3394
  0
LINE
  8
0
 10
188.081
 20
-36.3394
 11
188.501
 21
-36.0726
  0
LINE
  8
0
 10
188.501
 20
-36.0726
 11
188.93
 21
-35.8226
  0
LINE
  8
0
 10
188.93
 20
-35.8226
 11
189.369
 21
-35.5899
  0
LINE
  8
0
 10
189.369
 20
-35.5899
 11
189.818
 21
-35.3749
  0
LINE
  8
0
 10
189.818
 20
-35.3749
 11
190.274
 21
-35.1779
  0
LINE
  8
0
 10
190.274
 20
-35.1779
 11
190.738
 21
-34.9991
  0
LINE
  8
0
 10
190.738
 20
-34.9991
 11
191.208
 21
-34.839
  0
LINE
  8
0
 10
191.208
 20
-34.839
 11
191.685
 21
-34.6976
  0
LINE
  8
0
 10
191.685
 20
-34.6976
 11
192.167
 21
-34.5754
  0
LINE
  8
0
 10
192.167
 20
-34.5754
 11
192.653
 21
-34.4723
  0
LINE
  8
0
 10
192.653
 20
-34.4723
 11
193.143
 21
-34.3887
  0
LINE
  8
0
 10
193.143
 20
-34.3887
 11
193.636
 21
-34.3247
  0
LINE
  8
0
 10
193.636
 20
-34.3247
 11
194.131
 21
-34.2803
  0
LINE
  8
0
 10
194.131
 20
-34.2803
 11
194.627
 21
-34.2556
  0
LINE
  8
0
 10
194.627
 20
-34.2556
 11
195.124
 21
-34.2506
  0
LINE
  8
0
 10
195.124
 20
-34.2506
 11
195.621
 21
-34.2654
  0
LINE
  8
0
 10
195.621
 20
-34.2654
 11
196.117
 21
-34.3
  0
LINE
  8
0
 10
196.117
 20
-34.3
 11
196.611
 21
-34.3542
  0
LINE
  8
0
 10
196.611
 20
-34.3542
 11
197.103
 21
-34.4281
  0
LINE
  8
0
 10
197.103
 20
-34.4281
 11
197.591
 21
-34.5214
  0
LINE
  8
0
 10
197.591
 20
-34.5214
 11
198.075
 21
-34.6341
  0
LINE
  8
0
 10
198.075
 20
-34.6341
 11
198.554
 21
-34.7659
  0
LINE
  8
0
 10
198.554
 20
-34.7659
 11
199.028
 21
-34.9167
  0
LINE
  8
0
 10
199.028
 20
-34.9167
 11
199.495
 21
-35.0862
  0
LINE
  8
0
 10
199.495
 20
-35.0862
 11
199.955
 21
-35.2741
  0
LINE
  8
0
 10
199.955
 20
-35.2741
 11
200.408
 21
-35.4802
  0
LINE
  8
0
 10
200.408
 20
-35.4802
 11
200.851
 21
-35.7041
  0
LINE
  8
0
 10
200.851
 20
-35.7041
 11
201.286
 21
-35.9454
  0
LINE
  8
0
 10
201.286
 20
-35.9454
 11
201.71
 21
-36.2039
  0
LINE
  8
0
 10
201.71
 20
-36.2039
 11
202.124
 21
-36.479
  0
LINE
  8
0
 10
202.124
 20
-36.479
 11
202.527
 21
-36.7704
  0
LINE
  8
0
 10
202.527
 20
-36.7704
 11
202.918
 21
-37.0775
  0
LINE
  8
0
 10
202.918
 20
-37.0775
 11
203.296
 21
-37.3999
  0
LINE
  8
0
 10
203.296
 20
-37.3999
 11
203.661
 21
-37.7372
  0
LINE
  8
0
 10
203.661
 20
-37.7372
 11
204.013
 21
-38.0886
  0
LINE
  8
0
 10
204.013
 20
-38.0886
 11
204.35
 21
-38.4538
  0
LINE
  8
0
 10
204.35
 20
-38.4538
 11
204.672
 21
-38.8321
  0
LINE
  8
0
 10
204.672
 20
-38.8321
 11
204.98
 21
-39.2229
  0
LINE
  8
0
 10
204.98
 20
-39.2229
 11
205.271
 21
-39.6256
  0
LINE
  8
0
 10
205.271
 20
-39.6256
 11
205.546
 21
-40.0396
  0
LINE
  8
0
 10
205.546
 20
-40.0396
 11
205.805
 21
-40.4642
  0
LINE
  8
0
 10
205.805
 20
-40.4642
 11
206.046
 21
-40.8987
  0
LINE
  8
0
 10
206.046
 20
-40.8987
 11
206.27
 21
-41.3425
  0
LINE
  8
0
 10
206.27
 20
-41.3425
 11
206.476
 21
-41.7948
  0
LINE
  8
0
 10
206.476
 20
-41.7948
 11
206.664
 21
-42.2549
  0
LINE
  8
0
 10
206.664
 20
-42.2549
 11
206.833
 21
-42.7222
  0
LINE
  8
0
 10
206.833
 20
-42.7222
 11
206.984
 21
-43.1958
  0
LINE
  8
0
 10
206.984
 20
-43.1958
 11
207.116
 21
-43.6751
  0
LINE
  8
0
 10
207.116
 20
-43.6751
 11
207.229
 21
-44.1592
  0
LINE
  8
0
 10
207.229
 20
-44.1592
 11
207.322
 21
-44.6474
  0
LINE
  8
0
 10
207.322
 20
-44.6474
 11
207.396
 21
-45.1389
  0
LINE
  8
0
 10
207.396
 20
-45.1389
 11
207.45
 21
-45.633
  0
LINE
  8
0
 10
207.45
 20
-45.633
 11
207.485
 21
-46.1289
  0
LINE
  8
0
 10
207.485
 20
-46.1289
 11
207.499
 21
-46.6257
  0
LINE
  8
0
 10
207.499
 20
-46.6257
 11
207.494
 21
-47.1228
  0
LINE
  8
0
 10
207.494
 20
-47.1228
 11
207.47
 21
-47.6192
  0
LINE
  8
0
 10
207.47
 20
-47.6192
 11
207.425
 21
-48.1143
  0
LINE
  8
0
 10
207.425
 20
-48.1143
 11
207.361
 21
-48.6072
  0
LINE
  8
0
 10
207.361
 20
-48.6072
 11
207.278
 21
-49.0971
  0
LINE
  8
0
 10
207.278
 20
-49.0971
 11
207.175
 21
-49.5834
  0
LINE
  8
0
 10
207.175
 20
-49.5834
 11
207.052
 21
-50.0652
  0
LINE
  8
0
 10
207.052
 20
-50.0652
 11
206.998
 21
-50.25
  0
LINE
  8
0
 10
206.998
 20
-50.25
 11
234.75
 21
-50.25
  0
LINE
  8
0
 10
234.75
 20
-50.25
 11
234.75
 21
9.75
  0
LINE
  8
0
 10
234.75
 20
9.75
 11
-234.75
 21
9.75
  0
LINE
  8
0
 10
-234.75
 20
9.75
 11
-234.75
 21
-50.25
  0
LINE
  8
0
 10
-234.75
 20
-50.25
 11
-206.998
 21
-50.25
  0
LINE
  8
0
 10
-206.998
 20
-50.25
 11
-207.052
 21
-50.0652
  0
LINE
  8
0
 10
-147.45
 20
-3.2
 11
-147.45
 21
3.2
  0
LINE
  8
0
 10
-147.45
 20
3.2
 11
-132.55
 21
3.2
  0
LINE
  8
0
 10
-132.55
 20
3.2
 11
-132.55
 21
-3.2
  0
LINE
  8
0
 10
-132.55
 20
-3.2
 11
-147.45
 21
-3.2
  0
LINE
  8
0
 10
102.55
 20
-3.2
 11
102.55
 21
3.2
  0
LINE
  8
0
 10
102.55
 20
3.2
 11
117.45
 21
3.2
  0
LINE
  8
0
 10
117.45
 20
3.2
 11
117.45
 21
-3.2
  0
LINE
  8
0
 10
117.45
 20
-3.2
 11
102.55
 21
-3.2
  0
LINE
  8
0
 10
132.55
 20
-3.2
 11
132.55
 21
3.2
  0
LINE
  8
0
 10
132.55
 20
3.2
 11
147.45
 21
3.2
  0
LINE
  8
0
 10
147.45
 20
3.2
 11
147.45
 21
-3.2
  0
LINE
  8
0
 10
147.45
 20
-3.2
 11
132.55
 21
-3.2
  0
LINE
  8
0
 10
-117.45
 20
-3.2
 11
-117.45
 21
3.2
  0
LINE
  8
0
 10
-117.45
 20
3.2
 11
-102.55
 21
3.2
  0
LINE
  8
0
 10
-102.55
 20
3.2
 11
-102.55
 21
-3.2
  0
LINE
  8
0
 10
-102.55
 20
-3.2
 11
-117.45
 21
-3.2
  0
LINE
  8
0
 10
-125
 20
-2.49998
 11
-125.488
 21
-2.45195
  0
LINE
  8
0
 10
-125.488
 20
-2.45195
 11
-125.957
 21
-2.30969
  0
LINE
  8
0
 10
-125.957
 20
-2.30969
 11
-126.389
 21
-2.07866
  0
LINE
  8
0
 10
-126.389
 20
-2.07866
 11
-126.768
 21
-1.76776
  0
LINE
  8
0
 10
-126.768
 20
-1.76776
 11
-127.079
 21
-1.38892
  0
LINE
  8
0
 10
-127.079
 20
-1.38892
 11
-127.31
 21
-0.956696
  0
LINE
  8
0
 10
-127.31
 20
-0.956696
 11
-127.452
 21
-0.487717
  0
LINE
  8
0
 10
-127.452
 20
-0.487717
 11
-127.5
 21
0
  0
LINE
  8
0
 10
-127.5
 20
0
 11
-127.452
 21
0.487717
  0
LINE
  8
0
 10
-127.452
 20
0.487717
 11
-127.31
 21
0.956696
  0
LINE
  8
0
 10
-127.31
 20
0.956696
 11
-127.079
 21
1.38892
  0
LINE
  8
0
 10
-127.079
 20
1.38892
 11
-126.768
 21
1.76776
  0
LINE
  8
0
 10
-126.768
 20
1.76776
 11
-126.389
 21
2.07866
  0
LINE
  8
0
 10
-126.389
 20
2.07866
 11
-125.957
 21
2.30969
  0
LINE
  8
0
 10
-125.957
 20
2.30969
 11
-125.488
 21
2.45195
  0
LINE
  8
0
 10
-125.488
 20
2.45195
 11
-125
 21
2.49998
  0
LINE
  8
0
 10
-125
 20
2.49998
 11
-124.512
 21
2.45195
  0
LINE
  8
0
 10
-124.512
 20
2.45195
 11
-124.043
 21
2.30969
  0
LINE
  8
0
 10
-124.043
 20
2.30969
 11
-123.611
 21
2.07866
  0
LINE
  8
0
 10
-123.611
 20
2.07866
 11
-123.232
 21
1.76776
  0
LINE
  8
0
 10
-123.232
 20
1.76776
 11
-122.921
 21
1.38892
  0
LINE
  8
0
 10
-122.921
 20
1.38892
 11
-122.69
 21
0.956696
  0
LINE
  8
0
 10
-122.69
 20
0.956696
 11
-122.548
 21
0.487717
  0
LINE
  8
0
 10
-122.548
 20
0.487717
 11
-122.5
 21
0
  0
LINE
  8
0
 10
-122.5
 20
0
 11
-122.548
 21
-0.487717
  0
LINE
  8
0
 10
-122.548
 20
-0.487717
 11
-122.69
 21
-0.956696
  0
LINE
  8
0
 10
-122.69
 20
-0.956696
 11
-122.921
 21
-1.38892
  0
LINE
  8
0
 10
-122.921
 20
-1.38892
 11
-123.232
 21
-1.76776
  0
LINE
  8
0
 10
-123.232
 20
-1.76776
 11
-123.611
 21
-2.07866
  0
LINE
  8
0
 10
-123.611
 20
-2.07866
 11
-124.043
 21
-2.30969
  0
LINE
  8
0
 10
-124.043
 20
-2.30969
 11
-124.512
 21
-2.45195
  0
LINE
  8
0
 10
-124.512
 20
-2.45195
 11
-125
 21
-2.49998
  0
LINE
  8
0
 10
125
 20
-2.49998
 11
124.512
 21
-2.45195
  0
LINE
  8
0
 10
124.512
 20
-2.45195
 11
124.043
 21
-2.30969
  0
LINE
  8
0
 10
124.043
 20
-2.30969
 11
123.611
 21
-2.07866
  0
LINE
  8
0
 10
123.611
 20
-2.07866
 11
123.232
 21
-1.76776
  0
LINE
  8
0
 10
123.232
 20
-1.76776
 11
122.921
 21
-1.38892
  0
LINE
  8
0
 10
122.921
 20
-1.38892
 11
122.69
 21
-0.956696
  0
LINE
  8
0
 10
122.69
 20
-0.956696
 11
122.548
 21
-0.487717
  0
LINE
  8
0
 10
122.548
 20
-0.487717
 11
122.5
 21
0
  0
LINE
  8
0
 10
122.5
 20
0
 11
122.548
 21
0.487717
  0
LINE
  8
0
 10
122.548
 20
0.487717
 11
122.69
 21
0.956696
  0
LINE
  8
0
 10
122.69
 20
0.956696
 11
122.921
 21
1.38892
  0
LINE
  8
0
 10
122.921
 20
1.38892
 11
123.232
 21
1.76776
  0
LINE
  8
0
 10
123.232
 20
1.76776
 11
123.611
 21
2.07866
  0
LINE
  8
0
 10
123.611
 20
2.07866
 11
124.043
 21
2.30969
  0
LINE
  8
0
 10
124.043
 20
2.30969
 11
124.512
 21
2.45195
  0
LINE
  8
0
 10
124.512
 20
2.45195
 11
125
 21
2.49998
  0
LINE
  8
0
 10
125
 20
2.49998
 11
125.488
 21
2.45195
  0
LINE
  8
0
 10
125.488
 20
2.45195
 11
125.957
 21
2.30969
  0
LINE
  8
0
 10
125.957
 20
2.30969
 11
126.389
 21
2.07866
  0
LINE
  8
0
 10
126.389
 20
2.07866
 11
126.768
 21
1.76776
  0
LINE
  8
0
 10
126.768
 20
1.76776
 11
127.079
 21
1.38892
  0
LINE
  8
0
 10
127.079
 20
1.38892
 11
127.31
 21
0.956696
  0
LINE
  8
0
 10
127.31
 20
0.956696
 11
127.452
 21
0.487717
  0
LINE
  8
0
 10
127.452
 20
0.487717
 11
127.5
 21
0
  0
LINE
  8
0
 10
127.5
 20
0
 11
127.452
 21
-0.487717
  0
LINE
  8
0
 10
127.452
 20
-0.487717
 11
127.31
 21
-0.956696
  0
LINE
  8
0
 10
127.31
 20
-0.956696
 11
127.079
 21
-1.38892
  0
LINE
  8
0
 10
127.079
 20
-1.38892
 11
126.768
 21
-1.76776
  0
LINE
  8
0
 10
126.768
 20
-1.76776
 11
126.389
 21
-2.07866
  0
LINE
  8
0
 10
126.389
 20
-2.07866
 11
125.957
 21
-2.30969
  0
LINE
  8
0
 10
125.957
 20
-2.30969
 11
125.488
 21
-2.45195
  0
LINE
  8
0
 10
125.488
 20
-2.45195
 11
125
 21
-2.49998
  0
LINE
  8
0
 10
-231.45
 20
-12.7
 11
-231.45
 21
2.2
  0
LINE
  8
0
 10
-231.45
 20
2.2
 11
-225.05
 21
2.2
  0
LINE
  8
0
 10
-225.05
 20
2.2
 11
-225.05
 21
-12.7
  0
LINE
  8
0
 10
-225.05
 20
-12.7
 11
-231.45
 21
-12.7
  0
LINE
  8
0
 10
225.05
 20
-12.7
 11
225.05
 21
2.2
  0
LINE
  8
0
 10
225.05
 20
2.2
 11
231.45
 21
2.2
  0
LINE
  8
0
 10
231.45
 20
2.2
 11
231.45
 21
-12.7
  0
LINE
  8
0
 10
231.45
 20
-12.7
 11
225.05
 21
-12.7
  0
LINE
  8
0
 10
-215.488
 20
-12.202
 11
-215.957
 21
-12.0597
  0
LINE
  8
0
 10
-215.957
 20
-12.0597
 11
-216.389
 21
-11.8287
  0
LINE
  8
0
 10
-216.389
 20
-11.8287
 11
-216.768
 21
-11.5178
  0
LINE
  8
0
 10
-216.768
 20
-11.5178
 11
-217.079
 21
-11.1389
  0
LINE
  8
0
 10
-217.079
 20
-11.1389
 11
-217.31
 21
-10.7067
  0
LINE
  8
0
 10
-217.31
 20
-10.7067
 11
-217.452
 21
-10.2377
  0
LINE
  8
0
 10
-217.452
 20
-10.2377
 11
-217.5
 21
-9.75
  0
LINE
  8
0
 10
-217.5
 20
-9.75
 11
-217.452
 21
-9.26227
  0
LINE
  8
0
 10
-217.452
 20
-9.26227
 11
-217.31
 21
-8.79329
  0
LINE
  8
0
 10
-217.31
 20
-8.79329
 11
-217.079
 21
-8.36107
  0
LINE
  8
0
 10
-217.079
 20
-8.36107
 11
-216.768
 21
-7.98222
  0
LINE
  8
0
 10
-216.768
 20
-7.98222
 11
-216.389
 21
-7.67133
  0
LINE
  8
0
 10
-216.389
 20
-7.67133
 11
-215.957
 21
-7.44029
  0
LINE
  8
0
 10
-215.957
 20
-7.44029
 11
-215.488
 21
-7.29803
  0
LINE
  8
0
 10
-215.488
 20
-7.29803
 11
-215
 21
-7.25
  0
LINE
  8
0
 10
-215
 20
-7.25
 11
-214.512
 21
-7.29803
  0
LINE
  8
0
 10
-214.512
 20
-7.29803
 11
-214.043
 21
-7.44029
  0
LINE
  8
0
 10
-214.043
 20
-7.44029
 11
-213.611
 21
-7.67133
  0
LINE
  8
0
 10
-213.611
 20
-7.67133
 11
-213.232
 21
-7.98222
  0
LINE
  8
0
 10
-213.232
 20
-7.98222
 11
-212.921
 21
-8.36107
  0
LINE
  8
0
 10
-212.921
 20
-8.36107
 11
-212.69
 21
-8.79329
  0
LINE
  8
0
 10
-212.69
 20
-8.79329
 11
-212.548
 21
-9.26227
  0
LINE
  8
0
 10
-212.548
 20
-9.26227
 11
-212.5
 21
-9.75
  0
LINE
  8
0
 10
-212.5
 20
-9.75
 11
-212.548
 21
-10.2377
  0
LINE
  8
0
 10
-212.548
 20
-10.2377
 11
-212.69
 21
-10.7067
  0
LINE
  8
0
 10
-212.69
 20
-10.7067
 11
-212.921
 21
-11.1389
  0
LINE
  8
0
 10
-212.921
 20
-11.1389
 11
-213.232
 21
-11.5178
  0
LINE
  8
0
 10
-213.232
 20
-11.5178
 11
-213.611
 21
-11.8287
  0
LINE
  8
0
 10
-213.611
 20
-11.8287
 11
-214.043
 21
-12.0597
  0
LINE
  8
0
 10
-214.043
 20
-12.0597
 11
-214.512
 21
-12.202
  0
LINE
  8
0
 10
-214.512
 20
-12.202
 11
-215
 21
-12.25
  0
LINE
  8
0
 10
-215
 20
-12.25
 11
-215.488
 21
-12.202
  0
LINE
  8
0
 10
214.512
 20
-12.202
 11
214.043
 21
-12.0597
  0
LINE
  8
0
 10
214.043
 20
-12.0597
 11
213.611
 21
-11.8287
  0
LINE
  8
0
 10
213.611
 20
-11.8287
 11
213.232
 21
-11.5178
  0
LINE
  8
0
 10
213.232
 20
-11.5178
 11
212.921
 21
-11.1389
  0
LINE
  8
0
 10
212.921
 20
-11.1389
 11
212.69
 21
-10.7067
  0
LINE
  8
0
 10
212.69
 20
-10.7067
 11
212.548
 21
-10.2377
  0
LINE
  8
0
 10
212.548
 20
-10.2377
 11
212.5
 21
-9.75
  0
LINE
  8
0
 10
212.5
 20
-9.75
 11
212.548
 21
-9.26227
  0
LINE
  8
0
 10
212.548
 20
-9.26227
 11
212.69
 21
-8.79329
  0
LINE
  8
0
 10
212.69
 20
-8.79329
 11
212.921
 21
-8.36107
  0
LINE
  8
0
 10
212.921
 20
-8.36107
 11
213.232
 21
-7.98222
  0
LINE
  8
0
 10
213.232
 20
-7.98222
 11
213.611
 21
-7.67133
  0
LINE
  8
0
 10
213.611
 20
-7.67133
 11
214.043
 21
-7.44029
  0
LINE
  8
0
 10
214.043
 20
-7.44029
 11
214.512
 21
-7.29803
  0
LINE
  8
0
 10
214.512
 20
-7.29803
 11
215
 21
-7.25
  0
LINE
  8
0
 10
215
 20
-7.25
 11
215.488
 21
-7.29803
  0
LINE
  8
0
 10
215.488
 20
-7.29803
 11
215.957
 21
-7.44029
  0
LINE
  8
0
 10
215.957
 20
-7.44029
 11
216.389
 21
-7.67133
  0
LINE
  8
0
 10
216.389
 20
-7.67133
 11
216.768
 21
-7.98222
  0
LINE
  8
0
 10
216.768
 20
-7.98222
 11
217.079
 21
-8.36107
  0
LINE
  8
0
 10
217.079
 20
-8.36107
 11
217.31
 21
-8.79329
  0
LINE
  8
0
 10
217.31
 20
-8.79329
 11
217.452
 21
-9.26227
  0
LINE
  8
0
 10
217.452
 20
-9.26227
 11
217.5
 21
-9.75
  0
LINE
  8
0
 10
217.5
 20
-9.75
 11
217.452
 21
-10.2377
  0
LINE
  8
0
 10
217.452
 20
-10.2377
 11
217.31
 21
-10.7067
  0
LINE
  8
0
 10
217.31
 20
-10.7067
 11
217.079
 21
-11.1389
  0
LINE
  8
0
 10
217.079
 20
-11.1389
 11
216.768
 21
-11.5178
  0
LINE
  8
0
 10
216.768
 20
-11.5178
 11
216.389
 21
-11.8287
  0
LINE
  8
0
 10
216.389
 20
-11.8287
 11
215.957
 21
-12.0597
  0
LINE
  8
0
 10
215.957
 20
-12.0597
 11
215.488
 21
-12.202
  0
LINE
  8
0
 10
215.488
 20
-12.202
 11
215
 21
-12.25
  0
LINE
  8
0
 10
215
 20
-12.25
 11
214.512
 21
-12.202
  0
LINE
  8
0
 10
227.762
 20
-22.702
 11
227.293
 21
-22.5597
  0
LINE
  8
0
 10
227.293
 20
-22.5597
 11
226.861
 21
-22.3287
  0
LINE
  8
0
 10
226.861
 20
-22.3287
 11
226.482
 21
-22.0178
  0
LINE
  8
0
 10
226.482
 20
-22.0178
 11
226.171
 21
-21.6389
  0
LINE
  8
0
 10
226.171
 20
-21.6389
 11
225.94
 21
-21.2067
  0
LINE
  8
0
 10
225.94
 20
-21.2067
 11
225.798
 21
-20.7377
  0
LINE
  8
0
 10
225.798
 20
-20.7377
 11
225.75
 21
-20.25
  0
LINE
  8
0
 10
225.75
 20
-20.25
 11
225.798
 21
-19.7623
  0
LINE
  8
0
 10
225.798
 20
-19.7623
 11
225.94
 21
-19.2933
  0
LINE
  8
0
 10
225.94
 20
-19.2933
 11
226.171
 21
-18.8611
  0
LINE
  8
0
 10
226.171
 20
-18.8611
 11
226.482
 21
-18.4822
  0
LINE
  8
0
 10
226.482
 20
-18.4822
 11
226.861
 21
-18.1713
  0
LINE
  8
0
 10
226.861
 20
-18.1713
 11
227.293
 21
-17.9403
  0
LINE
  8
0
 10
227.293
 20
-17.9403
 11
227.762
 21
-17.798
  0
LINE
  8
0
 10
227.762
 20
-17.798
 11
228.25
 21
-17.75
  0
LINE
  8
0
 10
228.25
 20
-17.75
 11
228.738
 21
-17.798
  0
LINE
  8
0
 10
228.738
 20
-17.798
 11
229.207
 21
-17.9403
  0
LINE
  8
0
 10
229.207
 20
-17.9403
 11
229.639
 21
-18.1713
  0
LINE
  8
0
 10
229.639
 20
-18.1713
 11
230.018
 21
-18.4822
  0
LINE
  8
0
 10
230.018
 20
-18.4822
 11
230.329
 21
-18.8611
  0
LINE
  8
0
 10
230.329
 20
-18.8611
 11
230.56
 21
-19.2933
  0
LINE
  8
0
 10
230.56
 20
-19.2933
 11
230.702
 21
-19.7623
  0
LINE
  8
0
 10
230.702
 20
-19.7623
 11
230.75
 21
-20.25
  0
LINE
  8
0
 10
230.75
 20
-20.25
 11
230.702
 21
-20.7377
  0
LINE
  8
0
 10
230.702
 20
-20.7377
 11
230.56
 21
-21.2067
  0
LINE
  8
0
 10
230.56
 20
-21.2067
 11
230.329
 21
-21.6389
  0
LINE
  8
0
 10
230.329
 20
-21.6389
 11
230.018
 21
-22.0178
  0
LINE
  8
0
 10
230.018
 20
-22.0178
 11
229.639
 21
-22.3287
  0
LINE
  8
0
 10
229.639
 20
-22.3287
 11
229.207
 21
-22.5597
  0
LINE
  8
0
 10
229.207
 20
-22.5597
 11
228.738
 21
-22.702
  0
LINE
  8
0
 10
228.738
 20
-22.702
 11
228.25
 21
-22.75
  0
LINE
  8
0
 10
228.25
 20
-22.75
 11
227.762
 21
-22.702
  0
LINE
  8
0
 10
-228.738
 20
-22.702
 11
-229.207
 21
-22.5597
  0
LINE
  8
0
 10
-229.207
 20
-22.5597
 11
-229.639
 21
-22.3287
  0
LINE
  8
0
 10
-229.639
 20
-22.3287
 11
-230.018
 21
-22.0178
  0
LINE
  8
0
 10
-230.018
 20
-22.0178
 11
-230.329
 21
-21.6389
  0
LINE
  8
0
 10
-230.329
 20
-21.6389
 11
-230.56
 21
-21.2067
  0
LINE
  8
0
 10
-230.56
 20
-21.2067
 11
-230.702
 21
-20.7377
  0
LINE
  8
0
 10
-230.702
 20
-20.7377
 11
-230.75
 21
-20.25
  0
LINE
  8
0
 10
-230.75
 20
-20.25
 11
-230.702
 21
-19.7623
  0
LINE
  8
0
 10
-230.702
 20
-19.7623
 11
-230.56
 21
-19.2933
  0
LINE
  8
0
 10
-230.56
 20
-19.2933
 11
-230.329
 21
-18.8611
  0
LINE
  8
0
 10
-230.329
 20
-18.8611
 11
-230.018
 21
-18.4822
  0
LINE
  8
0
 10
-230.018
 20
-18.4822
 11
-229.639
 21
-18.1713
  0
LINE
  8
0
 10
-229.639
 20
-18.1713
 11
-229.207
 21
-17.9403
  0
LINE
  8
0
 10
-229.207
 20
-17.9403
 11
-228.738
 21
-17.798
  0
LINE
  8
0
 10
-228.738
 20
-17.798
 11
-228.25
 21
-17.75
  0
LINE
  8
0
 10
-228.25
 20
-17.75
 11
-227.762
 21
-17.798
  0
LINE
  8
0
 10
-227.762
 20
-17.798
 11
-227.293
 21
-17.9403
  0
LINE
  8
0
 10
-227.293
 20
-17.9403
 11
-226.861
 21
-18.1713
  0
LINE
  8
0
 10
-226.861
 20
-18.1713
 11
-226.482
 21
-18.4822
  0
LINE
  8
0
 10
-226.482
 20
-18.4822
 11
-226.171
 21
-18.8611
  0
LINE
  8
0
 10
-226.171
 20
-18.8611
 11
-225.94
 21
-19.2933
  0
LINE
  8
0
 10
-225.94
 20
-19.2933
 11
-225.798
 21
-19.7623
  0
LINE
  8
0
 10
-225.798
 20
-19.7623
 11
-225.75
 21
-20.25
  0
LINE
  8
0
 10
-225.75
 20
-20.25
 11
-225.798
 21
-20.7377
  0
LINE
  8
0
 10
-225.798
 20
-20.7377
 11
-225.94
 21
-21.2067
  0
LINE
  8
0
 10
-225.94
 20
-21.2067
 11
-226.171
 21
-21.6389
  0
LINE
  8
0
 10
-226.171
 20
-21.6389
 11
-226.482
 21
-22.0178
  0
LINE
  8
0
 10
-226.482
 20
-22.0178
 11
-226.861
 21
-22.3287
  0
LINE
  8
0
 10
-226.861
 20
-22.3287
 11
-227.293
 21
-22.5597
  0
LINE
  8
0
 10
-227.293
 20
-22.5597
 11
-227.762
 21
-22.702
  0
LINE
  8
0
 10
-227.762
 20
-22.702
 11
-228.25
 21
-22.75
  0
LINE
  8
0
 10
-228.25
 20
-22.75
 11
-228.738
 21
-22.702
  0
LINE
  8
0
 10
-195.361
 20
-27.905
 11
-195.815
 21
-27.7359
  0
LINE
  8
0
 10
-195.815
 20
-27.7359
 11
-196.202
 21
-27.446
  0
LINE
  8
0
 10
-196.202
 20
-27.446
 11
-196.492
 21
-27.0586
  0
LINE
  8
0
 10
-196.492
 20
-27.0586
 11
-196.661
 21
-26.6053
  0
LINE
  8
0
 10
-196.661
 20
-26.6053
 11
-196.696
 21
-26.1226
  0
LINE
  8
0
 10
-196.696
 20
-26.1226
 11
-196.696
 21
-23.2942
  0
LINE
  8
0
 10
-196.696
 20
-23.2942
 11
-196.593
 21
-22.8214
  0
LINE
  8
0
 10
-196.593
 20
-22.8214
 11
-196.361
 21
-22.3967
  0
LINE
  8
0
 10
-196.361
 20
-22.3967
 11
-196.019
 21
-22.0546
  0
LINE
  8
0
 10
-196.019
 20
-22.0546
 11
-195.594
 21
-21.8227
  0
LINE
  8
0
 10
-195.594
 20
-21.8227
 11
-195.121
 21
-21.7198
  0
LINE
  8
0
 10
-195.121
 20
-21.7198
 11
-194.639
 21
-21.7543
  0
LINE
  8
0
 10
-194.639
 20
-21.7543
 11
-194.185
 21
-21.9234
  0
LINE
  8
0
 10
-194.185
 20
-21.9234
 11
-193.798
 21
-22.2134
  0
LINE
  8
0
 10
-193.798
 20
-22.2134
 11
-193.508
 21
-22.6008
  0
LINE
  8
0
 10
-193.508
 20
-22.6008
 11
-193.339
 21
-23.0541
  0
LINE
  8
0
 10
-193.339
 20
-23.0541
 11
-193.304
 21
-23.5367
  0
LINE
  8
0
 10
-193.304
 20
-23.5367
 11
-193.304
 21
-26.3652
  0
LINE
  8
0
 10
-193.304
 20
-26.3652
 11
-193.407
 21
-26.838
  0
LINE
  8
0
 10
-193.407
 20
-26.838
 11
-193.639
 21
-27.2627
  0
LINE
  8
0
 10
-193.639
 20
-27.2627
 11
-193.981
 21
-27.6048
  0
LINE
  8
0
 10
-193.981
 20
-27.6048
 11
-194.406
 21
-27.8367
  0
LINE
  8
0
 10
-194.406
 20
-27.8367
 11
-194.879
 21
-27.9396
  0
LINE
  8
0
 10
-194.879
 20
-27.9396
 11
-195.361
 21
-27.905
  0
LINE
  8
0
 10
194.406
 20
-27.8367
 11
193.981
 21
-27.6048
  0
LINE
  8
0
 10
193.981
 20
-27.6048
 11
193.639
 21
-27.2627
  0
LINE
  8
0
 10
193.639
 20
-27.2627
 11
193.407
 21
-26.838
  0
LINE
  8
0
 10
193.407
 20
-26.838
 11
193.304
 21
-26.3652
  0
LINE
  8
0
 10
193.304
 20
-26.3652
 11
193.304
 21
-23.5367
  0
LINE
  8
0
 10
193.304
 20
-23.5367
 11
193.339
 21
-23.0541
  0
LINE
  8
0
 10
193.339
 20
-23.0541
 11
193.508
 21
-22.6008
  0
LINE
  8
0
 10
193.508
 20
-22.6008
 11
193.798
 21
-22.2134
  0
LINE
  8
0
 10
193.798
 20
-22.2134
 11
194.185
 21
-21.9234
  0
LINE
  8
0
 10
194.185
 20
-21.9234
 11
194.639
 21
-21.7543
  0
LINE
  8
0
 10
194.639
 20
-21.7543
 11
195.121
 21
-21.7198
  0
LINE
  8
0
 10
195.121
 20
-21.7198
 11
195.594
 21
-21.8227
  0
LINE
  8
0
 10
195.594
 20
-21.8227
 11
196.019
 21
-22.0546
  0
LINE
  8
0
 10
196.019
 20
-22.0546
 11
196.361
 21
-22.3967
  0
LINE
  8
0
 10
196.361
 20
-22.3967
 11
196.593
 21
-22.8214
  0
LINE
  8
0
 10
196.593
 20
-22.8214
 11
196.696
 21
-23.2942
  0
LINE
  8
0
 10
196.696
 20
-23.2942
 11
196.696
 21
-26.1226
  0
LINE
  8
0
 10
196.696
 20
-26.1226
 11
196.661
 21
-26.6053
  0
LINE
  8
0
 10
196.661
 20
-26.6053
 11
196.492
 21
-27.0586
  0
LINE
  8
0
 10
196.492
 20
-27.0586
 11
196.202
 21
-27.446
  0
LINE
  8
0
 10
196.202
 20
-27.446
 11
195.815
 21
-27.7359
  0
LINE
  8
0
 10
195.815
 20
-27.7359
 11
195.361
 21
-27.905
  0
LINE
  8
0
 10
195.361
 20
-27.905
 11
194.879
 21
-27.9396
  0
LINE
  8
0
 10
194.879
 20
-27.9396
 11
194.406
 21
-27.8367
  0
LINE
  8
0
 10
102.55
 20
-29.7
 11
102.55
 21
-23.3
  0
LINE
  8
0
 10
102.55
 20
-23.3
 11
117.45
 21
-23.3
  0
LINE
  8
0
 10
117.45
 20
-23.3
 11
117.45
 21
-29.7
  0
LINE
  8
0
 10
117.45
 20
-29.7
 11
102.55
 21
-29.7
  0
LINE
  8
0
 10
-117.45
 20
-29.7
 11
-117.45
 21
-23.3
  0
LINE
  8
0
 10
-117.45
 20
-23.3
 11
-102.55
 21
-23.3
  0
LINE
  8
0
 10
-102.55
 20
-23.3
 11
-102.55
 21
-29.7
  0
LINE
  8
0
 10
-102.55
 20
-29.7
 11
-117.45
 21
-29.7
  0
LINE
  8
0
 10
-147.45
 20
-29.7
 11
-147.45
 21
-23.3
  0
LINE
  8
0
 10
-147.45
 20
-23.3
 11
-132.55
 21
-23.3
  0
LINE
  8
0
 10
-132.55
 20
-23.3
 11
-132.55
 21
-29.7
  0
LINE
  8
0
 10
-132.55
 20
-29.7
 11
-147.45
 21
-29.7
  0
LINE
  8
0
 10
132.55
 20
-29.7
 11
132.55
 21
-23.3
  0
LINE
  8
0
 10
132.55
 20
-23.3
 11
147.45
 21
-23.3
  0
LINE
  8
0
 10
147.45
 20
-23.3
 11
147.45
 21
-29.7
  0
LINE
  8
0
 10
147.45
 20
-29.7
 11
132.55
 21
-29.7
  0
LINE
  8
0
 10
-125
 20
-29
 11
-125.488
 21
-28.952
  0
LINE
  8
0
 10
-125.488
 20
-28.952
 11
-125.957
 21
-28.8097
  0
LINE
  8
0
 10
-125.957
 20
-28.8097
 11
-126.389
 21
-28.5787
  0
LINE
  8
0
 10
-126.389
 20
-28.5787
 11
-126.768
 21
-28.2678
  0
LINE
  8
0
 10
-126.768
 20
-28.2678
 11
-127.079
 21
-27.8889
  0
LINE
  8
0
 10
-127.079
 20
-27.8889
 11
-127.31
 21
-27.4567
  0
LINE
  8
0
 10
-127.31
 20
-27.4567
 11
-127.452
 21
-26.9877
  0
LINE
  8
0
 10
-127.452
 20
-26.9877
 11
-127.5
 21
-26.5
  0
LINE
  8
0
 10
-127.5
 20
-26.5
 11
-127.452
 21
-26.0123
  0
LINE
  8
0
 10
-127.452
 20
-26.0123
 11
-127.31
 21
-25.5433
  0
LINE
  8
0
 10
-127.31
 20
-25.5433
 11
-127.079
 21
-25.1111
  0
LINE
  8
0
 10
-127.079
 20
-25.1111
 11
-126.768
 21
-24.7322
  0
LINE
  8
0
 10
-126.768
 20
-24.7322
 11
-126.389
 21
-24.4213
  0
LINE
  8
0
 10
-126.389
 20
-24.4213
 11
-125.957
 21
-24.1903
  0
LINE
  8
0
 10
-125.957
 20
-24.1903
 11
-125.488
 21
-24.048
  0
LINE
  8
0
 10
-125.488
 20
-24.048
 11
-125
 21
-24
  0
LINE
  8
0
 10
-125
 20
-24
 11
-124.512
 21
-24.048
  0
LINE
  8
0
 10
-124.512
 20
-24.048
 11
-124.043
 21
-24.1903
  0
LINE
  8
0
 10
-124.043
 20
-24.1903
 11
-123.611
 21
-24.4213
  0
LINE
  8
0
 10
-123.611
 20
-24.4213
 11
-123.232
 21
-24.7322
  0
LINE
  8
0
 10
-123.232
 20
-24.7322
 11
-122.921
 21
-25.1111
  0
LINE
  8
0
 10
-122.921
 20
-25.1111
 11
-122.69
 21
-25.5433
  0
LINE
  8
0
 10
-122.69
 20
-25.5433
 11
-122.548
 21
-26.0123
  0
LINE
  8
0
 10
-122.548
 20
-26.0123
 11
-122.5
 21
-26.5
  0
LINE
  8
0
 10
-122.5
 20
-26.5
 11
-122.548
 21
-26.9877
  0
LINE
  8
0
 10
-122.548
 20
-26.9877
 11
-122.69
 21
-27.4567
  0
LINE
  8
0
 10
-122.69
 20
-27.4567
 11
-122.921
 21
-27.8889
  0
LINE
  8
0
 10
-122.921
 20
-27.8889
 11
-123.232
 21
-28.2678
  0
LINE
  8
0
 10
-123.232
 20
-28.2678
 11
-123.611
 21
-28.5787
  0
LINE
  8
0
 10
-123.611
 20
-28.5787
 11
-124.043
 21
-28.8097
  0
LINE
  8
0
 10
-124.043
 20
-28.8097
 11
-124.512
 21
-28.952
  0
LINE
  8
0
 10
-124.512
 20
-28.952
 11
-125
 21
-29
  0
LINE
  8
0
 10
125
 20
-29
 11
124.512
 21
-28.952
  0
LINE
  8
0
 10
124.512
 20
-28.952
 11
124.043
 21
-28.8097
  0
LINE
  8
0
 10
124.043
 20
-28.8097
 11
123.611
 21
-28.5787
  0
LINE
  8
0
 10
123.611
 20
-28.5787
 11
123.232
 21
-28.2678
  0
LINE
  8
0
 10
123.232
 20
-28.2678
 11
122.921
 21
-27.8889
  0
LINE
  8
0
 10
122.921
 20
-27.8889
 11
122.69
 21
-27.4567
  0
LINE
  8
0
 10
122.69
 20
-27.4567
 11
122.548
 21
-26.9877
  0
LINE
  8
0
 10
122.548
 20
-26.9877
 11
122.5
 21
-26.5
  0
LINE
  8
0
 10
122.5
 20
-26.5
 11
122.548
 21
-26.0123
  0
LINE
  8
0
 10
122.548
 20
-26.0123
 11
122.69
 21
-25.5433
  0
LINE
  8
0
 10
122.69
 20
-25.5433
 11
122.921
 21
-25.1111
  0
LINE
  8
0
 10
122.921
 20
-25.1111
 11
123.232
 21
-24.7322
  0
LINE
  8
0
 10
123.232
 20
-24.7322
 11
123.611
 21
-24.4213
  0
LINE
  8
0
 10
123.611
 20
-24.4213
 11
124.043
 21
-24.1903
  0
LINE
  8
0
 10
124.043
 20
-24.1903
 11
124.512
 21
-24.048
  0
LINE
  8
0
 10
124.512
 20
-24.048
 11
125
 21
-24
  0
LINE
  8
0
 10
125
 20
-24
 11
125.488
 21
-24.048
  0
LINE
  8
0
 10
125.488
 20
-24.048
 11
125.957
 21
-24.1903
  0
LINE
  8
0
 10
125.957
 20
-24.1903
 11
126.389
 21
-24.4213
  0
LINE
  8
0
 10
126.389
 20
-24.4213
 11
126.768
 21
-24.7322
  0
LINE
  8
0
 10
126.768
 20
-24.7322
 11
127.079
 21
-25.1111
  0
LINE
  8
0
 10
127.079
 20
-25.1111
 11
127.31
 21
-25.5433
  0
LINE
  8
0
 10
127.31
 20
-25.5433
 11
127.452
 21
-26.0123
  0
LINE
  8
0
 10
127.452
 20
-26.0123
 11
127.5
 21
-26.5
  0
LINE
  8
0
 10
127.5
 20
-26.5
 11
127.452
 21
-26.9877
  0
LINE
  8
0
 10
127.452
 20
-26.9877
 11
127.31
 21
-27.4567
  0
LINE
  8
0
 10
127.31
 20
-27.4567
 11
127.079
 21
-27.8889
  0
LINE
  8
0
 10
127.079
 20
-27.8889
 11
126.768
 21
-28.2678
  0
LINE
  8
0
 10
126.768
 20
-28.2678
 11
126.389
 21
-28.5787
  0
LINE
  8
0
 10
126.389
 20
-28.5787
 11
125.957
 21
-28.8097
  0
LINE
  8
0
 10
125.957
 20
-28.8097
 11
125.488
 21
-28.952
  0
LINE
  8
0
 10
125.488
 20
-28.952
 11
125
 21
-29
  0
LINE
  8
0
 10
225.05
 20
-42.7
 11
225.05
 21
-27.8
  0
LINE
  8
0
 10
225.05
 20
-27.8
 11
231.45
 21
-27.8
  0
LINE
  8
0
 10
231.45
 20
-27.8
 11
231.45
 21
-42.7
  0
LINE
  8
0
 10
231.45
 20
-42.7
 11
225.05
 21
-42.7
  0
LINE
  8
0
 10
-231.45
 20
-42.7
 11
-231.45
 21
-27.8
  0
LINE
  8
0
 10
-231.45
 20
-27.8
 11
-225.05
 21
-27.8
  0
LINE
  8
0
 10
-225.05
 20
-27.8
 11
-225.05
 21
-42.7
  0
LINE
  8
0
 10
-225.05
 20
-42.7
 11
-231.45
 21
-42.7
  0
LINE
  8
0
 10
-215.488
 20
-39.702
 11
-215.957
 21
-39.5597
  0
LINE
  8
0
 10
-215.957
 20
-39.5597
 11
-216.389
 21
-39.3287
  0
LINE
  8
0
 10
-216.389
 20
-39.3287
 11
-216.768
 21
-39.0178
  0
LINE
  8
0
 10
-216.768
 20
-39.0178
 11
-217.079
 21
-38.6389
  0
LINE
  8
0
 10
-217.079
 20
-38.6389
 11
-217.31
 21
-38.2067
  0
LINE
  8
0
 10
-217.31
 20
-38.2067
 11
-217.452
 21
-37.7377
  0
LINE
  8
0
 10
-217.452
 20
-37.7377
 11
-217.5
 21
-37.25
  0
LINE
  8
0
 10
-217.5
 20
-37.25
 11
-217.452
 21
-36.7623
  0
LINE
  8
0
 10
-217.452
 20
-36.7623
 11
-217.31
 21
-36.2933
  0
LINE
  8
0
 10
-217.31
 20
-36.2933
 11
-217.079
 21
-35.8611
  0
LINE
  8
0
 10
-217.079
 20
-35.8611
 11
-216.768
 21
-35.4822
  0
LINE
  8
0
 10
-216.768
 20
-35.4822
 11
-216.389
 21
-35.1713
  0
LINE
  8
0
 10
-216.389
 20
-35.1713
 11
-215.957
 21
-34.9403
  0
LINE
  8
0
 10
-215.957
 20
-34.9403
 11
-215.488
 21
-34.798
  0
LINE
  8
0
 10
-215.488
 20
-34.798
 11
-215
 21
-34.75
  0
LINE
  8
0
 10
-215
 20
-34.75
 11
-214.512
 21
-34.798
  0
LINE
  8
0
 10
-214.512
 20
-34.798
 11
-214.043
 21
-34.9403
  0
LINE
  8
0
 10
-214.043
 20
-34.9403
 11
-213.611
 21
-35.1713
  0
LINE
  8
0
 10
-213.611
 20
-35.1713
 11
-213.232
 21
-35.4822
  0
LINE
  8
0
 10
-213.232
 20
-35.4822
 11
-212.921
 21
-35.8611
  0
LINE
  8
0
 10
-212.921
 20
-35.8611
 11
-212.69
 21
-36.2933
  0
LINE
  8
0
 10
-212.69
 20
-36.2933
 11
-212.548
 21
-36.7623
  0
LINE
  8
0
 10
-212.548
 20
-36.7623
 11
-212.5
 21
-37.25
  0
LINE
  8
0
 10
-212.5
 20
-37.25
 11
-212.548
 21
-37.7377
  0
LINE
  8
0
 10
-212.548
 20
-37.7377
 11
-212.69
 21
-38.2067
  0
LINE
  8
0
 10
-212.69
 20
-38.2067
 11
-212.921
 21
-38.6389
  0
LINE
  8
0
 10
-212.921
 20
-38.6389
 11
-213.232
 21
-39.0178
  0
LINE
  8
0
 10
-213.232
 20
-39.0178
 11
-213.611
 21
-39.3287
  0
LINE
  8
0
 10
-213.611
 20
-39.3287
 11
-214.043
 21
-39.5597
  0
LINE
  8
0
 10
-214.043
 20
-39.5597
 11
-214.512
 21
-39.702
  0
LINE
  8
0
 10
-214.512
 20
-39.702
 11
-215
 21
-39.75
  0
LINE
  8
0
 10
-215
 20
-39.75
 11
-215.488
 21
-39.702
  0
LINE
  8
0
 10
214.512
 20
-39.702
 11
214.043
 21
-39.5597
  0
LINE
  8
0
 10
214.043
 20
-39.5597
 11
213.611
 21
-39.3287
  0
LINE
  8
0
 10
213.611
 20
-39.3287
 11
213.232
 21
-39.0178
  0
LINE
  8
0
 10
213.232
 20
-39.0178
 11
212.921
 21
-38.6389
  0
LINE
  8
0
 10
212.921
 20
-38.6389
 11
212.69
 21
-38.2067
  0
LINE
  8
0
 10
212.69
 20
-38.2067
 11
212.548
 21
-37.7377
  0
LINE
  8
0
 10
212.548
 20
-37.7377
 11
212.5
 21
-37.25
  0
LINE
  8
0
 10
212.5
 20
-37.25
 11
212.548
 21
-36.7623
  0
LINE
  8
0
 10
212.548
 20
-36.7623
 11
212.69
 21
-36.2933
  0
LINE
  8
0
 10
212.69
 20
-36.2933
 11
212.921
 21
-35.8611
  0
LINE
  8
0
 10
212.921
 20
-35.8611
 11
213.232
 21
-35.4822
  0
LINE
  8
0
 10
213.232
 20
-35.4822
 11
213.611
 21
-35.1713
  0
LINE
  8
0
 10
213.611
 20
-35.1713
 11
214.043
 21
-34.9403
  0
LINE
  8
0
 10
214.043
 20
-34.9403
 11
214.512
 21
-34.798
  0
LINE
  8
0
 10
214.512
 20
-34.798
 11
215
 21
-34.75
  0
LINE
  8
0
 10
215
 20
-34.75
 11
215.488
 21
-34.798
  0
LINE
  8
0
 10
215.488
 20
-34.798
 11
215.957
 21
-34.9403
  0
LINE
  8
0
 10
215.957
 20
-34.9403
 11
216.389
 21
-35.1713
  0
LINE
  8
0
 10
216.389
 20
-35.1713
 11
216.768
 21
-35.4822
  0
LINE
  8
0
 10
216.768
 20
-35.4822
 11
217.079
 21
-35.8611
  0
LINE
  8
0
 10
217.079
 20
-35.8611
 11
217.31
 21
-36.2933
  0
LINE
  8
0
 10
217.31
 20
-36.2933
 11
217.452
 21
-36.7623
  0
LINE
  8
0
 10
217.452
 20
-36.7623
 11
217.5
 21
-37.25
  0
LINE
  8
0
 10
217.5
 20
-37.25
 11
217.452
 21
-37.7377
  0
LINE
  8
0
 10
217.452
 20
-37.7377
 11
217.31
 21
-38.2067
  0
LINE
  8
0
 10
217.31
 20
-38.2067
 11
217.079
 21
-38.6389
  0
LINE
  8
0
 10
217.079
 20
-38.6389
 11
216.768
 21
-39.0178
  0
LINE
  8
0
 10
216.768
 20
-39.0178
 11
216.389
 21
-39.3287
  0
LINE
  8
0
 10
216.389
 20
-39.3287
 11
215.957
 21
-39.5597
  0
LINE
  8
0
 10
215.957
 20
-39.5597
 11
215.488
 21
-39.702
  0
LINE
  8
0
 10
215.488
 20
-39.702
 11
215
 21
-39.75
  0
LINE
  8
0
 10
215
 20
-39.75
 11
214.512
 21
-39.702
  0
LINE
  8
0
 10
-112.996
 20
-45.1248
 11
-113.486
 21
-45.0497
  0
LINE
  8
0
 10
-113.486
 20
-45.0497
 11
-113.967
 21
-44.9253
  0
LINE
  8
0
 10
-113.967
 20
-44.9253
 11
-114.432
 21
-44.7529
  0
LINE
  8
0
 10
-114.432
 20
-44.7529
 11
-114.878
 21
-44.5343
  0
LINE
  8
0
 10
-114.878
 20
-44.5343
 11
-115.299
 21
-44.2717
  0
LINE
  8
0
 10
-115.299
 20
-44.2717
 11
-115.692
 21
-43.9679
  0
LINE
  8
0
 10
-115.692
 20
-43.9679
 11
-116.051
 21
-43.6259
  0
LINE
  8
0
 10
-116.051
 20
-43.6259
 11
-116.375
 21
-43.2493
  0
LINE
  8
0
 10
-116.375
 20
-43.2493
 11
-116.658
 21
-42.8419
  0
LINE
  8
0
 10
-116.658
 20
-42.8419
 11
-116.899
 21
-42.4079
  0
LINE
  8
0
 10
-116.899
 20
-42.4079
 11
-117.095
 21
-41.9518
  0
LINE
  8
0
 10
-117.095
 20
-41.9518
 11
-117.244
 21
-41.4782
  0
LINE
  8
0
 10
-117.244
 20
-41.4782
 11
-117.343
 21
-40.992
  0
LINE
  8
0
 10
-117.343
 20
-40.992
 11
-117.394
 21
-40.4982
  0
LINE
  8
0
 10
-117.394
 20
-40.4982
 11
-117.394
 21
-40.0018
  0
LINE
  8
0
 10
-117.394
 20
-40.0018
 11
-117.343
 21
-39.508
  0
LINE
  8
0
 10
-117.343
 20
-39.508
 11
-117.244
 21
-39.0218
  0
LINE
  8
0
 10
-117.244
 20
-39.0218
 11
-117.095
 21
-38.5482
  0
LINE
  8
0
 10
-117.095
 20
-38.5482
 11
-116.899
 21
-38.0921
  0
LINE
  8
0
 10
-116.899
 20
-38.0921
 11
-116.658
 21
-37.6581
  0
LINE
  8
0
 10
-116.658
 20
-37.6581
 11
-116.375
 21
-37.2507
  0
LINE
  8
0
 10
-116.375
 20
-37.2507
 11
-116.051
 21
-36.8741
  0
LINE
  8
0
 10
-116.051
 20
-36.8741
 11
-115.692
 21
-36.5321
  0
LINE
  8
0
 10
-115.692
 20
-36.5321
 11
-115.299
 21
-36.2283
  0
LINE
  8
0
 10
-115.299
 20
-36.2283
 11
-114.878
 21
-35.9657
  0
LINE
  8
0
 10
-114.878
 20
-35.9657
 11
-114.432
 21
-35.7471
  0
LINE
  8
0
 10
-114.432
 20
-35.7471
 11
-113.967
 21
-35.5747
  0
LINE
  8
0
 10
-113.967
 20
-35.5747
 11
-113.486
 21
-35.4503
  0
LINE
  8
0
 10
-113.486
 20
-35.4503
 11
-112.996
 21
-35.3751
  0
LINE
  8
0
 10
-112.996
 20
-35.3751
 11
-112.5
 21
-35.35
  0
LINE
  8
0
 10
-112.5
 20
-35.35
 11
-112.004
 21
-35.3751
  0
LINE
  8
0
 10
-112.004
 20
-35.3751
 11
-111.514
 21
-35.4503
  0
LINE
  8
0
 10
-111.514
 20
-35.4503
 11
-111.033
 21
-35.5747
  0
LINE
  8
0
 10
-111.033
 20
-35.5747
 11
-110.568
 21
-35.7471
  0
LINE
  8
0
 10
-110.568
 20
-35.7471
 11
-110.122
 21
-35.9657
  0
LINE
  8
0
 10
-110.122
 20
-35.9657
 11
-109.701
 21
-36.2283
  0
LINE
  8
0
 10
-109.701
 20
-36.2283
 11
-109.308
 21
-36.5321
  0
LINE
  8
0
 10
-109.308
 20
-36.5321
 11
-108.949
 21
-36.8741
  0
LINE
  8
0
 10
-108.949
 20
-36.8741
 11
-108.625
 21
-37.2507
  0
LINE
  8
0
 10
-108.625
 20
-37.2507
 11
-108.342
 21
-37.6581
  0
LINE
  8
0
 10
-108.342
 20
-37.6581
 11
-108.101
 21
-38.0921
  0
LINE
  8
0
 10
-108.101
 20
-38.0921
 11
-107.905
 21
-38.5482
  0
LINE
  8
0
 10
-107.905
 20
-38.5482
 11
-107.756
 21
-39.0218
  0
LINE
  8
0
 10
-107.756
 20
-39.0218
 11
-107.657
 21
-39.508
  0
LINE
  8
0
 10
-107.657
 20
-39.508
 11
-107.606
 21
-40.0018
  0
LINE
  8
0
 10
-107.606
 20
-40.0018
 11
-107.606
 21
-40.4982
  0
LINE
  8
0
 10
-107.606
 20
-40.4982
 11
-107.657
 21
-40.992
  0
LINE
  8
0
 10
-107.657
 20
-40.992
 11
-107.756
 21
-41.4782
  0
LINE
  8
0
 10
-107.756
 20
-41.4782
 11
-107.905
 21
-41.9518
  0
LINE
  8
0
 10
-107.905
 20
-41.9518
 11
-108.101
 21
-42.4079
  0
LINE
  8
0
 10
-108.101
 20
-42.4079
 11
-108.342
 21
-42.8419
  0
LINE
  8
0
 10
-108.342
 20
-42.8419
 11
-108.625
 21
-43.2493
  0
LINE
  8
0
 10
-108.625
 20
-43.2493
 11
-108.949
 21
-43.6259
  0
LINE
  8
0
 10
-108.949
 20
-43.6259
 11
-109.308
 21
-43.9679
  0
LINE
  8
0
 10
-109.308
 20
-43.9679
 11
-109.701
 21
-44.2717
  0
LINE
  8
0
 10
-109.701
 20
-44.2717
 11
-110.122
 21
-44.5343
  0
LINE
  8
0
 10
-110.122
 20
-44.5343
 11
-110.568
 21
-44.7529
  0
LINE
  8
0
 10
-110.568
 20
-44.7529
 11
-111.033
 21
-44.9253
  0
LINE
  8
0
 10
-111.033
 20
-44.9253
 11
-111.514
 21
-45.0497
  0
LINE
  8
0
 10
-111.514
 20
-45.0497
 11
-112.004
 21
-45.1248
  0
LINE
  8
0
 10
-112.004
 20
-45.1248
 11
-112.5
 21
-45.15
  0
LINE
  8
0
 10
-112.5
 20
-45.15
 11
-112.996
 21
-45.1248
  0
LINE
  8
0
 10
112.004
 20
-45.1248
 11
111.514
 21
-45.0497
  0
LINE
  8
0
 10
111.514
 20
-45.0497
 11
111.033
 21
-44.9253
  0
LINE
  8
0
 10
111.033
 20
-44.9253
 11
110.568
 21
-44.7529
  0
LINE
  8
0
 10
110.568
 20
-44.7529
 11
110.122
 21
-44.5343
  0
LINE
  8
0
 10
110.122
 20
-44.5343
 11
109.701
 21
-44.2717
  0
LINE
  8
0
 10
109.701
 20
-44.2717
 11
109.308
 21
-43.9679
  0
LINE
  8
0
 10
109.308
 20
-43.9679
 11
108.949
 21
-43.6259
  0
LINE
  8
0
 10
108.949
 20
-43.6259
 11
108.625
 21
-43.2493
  0
LINE
  8
0
 10
108.625
 20
-43.2493
 11
108.342
 21
-42.8419
  0
LINE
  8
0
 10
108.342
 20
-42.8419
 11
108.101
 21
-42.4079
  0
LINE
  8
0
 10
108.101
 20
-42.4079
 11
107.905
 21
-41.9518
  0
LINE
  8
0
 10
107.905
 20
-41.9518
 11
107.756
 21
-41.4782
  0
LINE
  8
0
 10
107.756
 20
-41.4782
 11
107.657
 21
-40.992
  0
LINE
  8
0
 10
107.657
 20
-40.992
 11
107.606
 21
-40.4982
  0
LINE
  8
0
 10
107.606
 20
-40.4982
 11
107.606
 21
-40.0018
  0
LINE
  8
0
 10
107.606
 20
-40.0018
 11
107.657
 21
-39.508
  0
LINE
  8
0
 10
107.657
 20
-39.508
 11
107.756
 21
-39.0218
  0
LINE
  8
0
 10
107.756
 20
-39.0218
 11
107.905
 21
-38.5482
  0
LINE
  8
0
 10
107.905
 20
-38.5482
 11
108.101
 21
-38.0921
  0
LINE
  8
0
 10
108.101
 20
-38.0921
 11
108.342
 21
-37.6581
  0
LINE
  8
0
 10
108.342
 20
-37.6581
 11
108.625
 21
-37.2507
  0
LINE
  8
0
 10
108.625
 20
-37.2507
 11
108.949
 21
-36.8741
  0
LINE
  8
0
 10
108.949
 20
-36.8741
 11
109.308
 21
-36.5321
  0
LINE
  8
0
 10
109.308
 20
-36.5321
 11
109.701
 21
-36.2283
  0
LINE
  8
0
 10
109.701
 20
-36.2283
 11
110.122
 21
-35.9657
  0
LINE
  8
0
 10
110.122
 20
-35.9657
 11
110.568
 21
-35.7471
  0
LINE
  8
0
 10
110.568
 20
-35.7471
 11
111.033
 21
-35.5747
  0
LINE
  8
0
 10
111.033
 20
-35.5747
 11
111.514
 21
-35.4503
  0
LINE
  8
0
 10
111.514
 20
-35.4503
 11
112.004
 21
-35.3751
  0
LINE
  8
0
 10
112.004
 20
-35.3751
 11
112.5
 21
-35.35
  0
LINE
  8
0
 10
112.5
 20
-35.35
 11
112.996
 21
-35.3751
  0
LINE
  8
0
 10
112.996
 20
-35.3751
 11
113.486
 21
-35.4503
  0
LINE
  8
0
 10
113.486
 20
-35.4503
 11
113.967
 21
-35.5747
  0
LINE
  8
0
 10
113.967
 20
-35.5747
 11
114.432
 21
-35.7471
  0
LINE
  8
0
 10
114.432
 20
-35.7471
 11
114.878
 21
-35.9657
  0
LINE
  8
0
 10
114.878
 20
-35.9657
 11
115.299
 21
-36.2283
  0
LINE
  8
0
 10
115.299
 20
-36.2283
 11
115.692
 21
-36.5321
  0
LINE
  8
0
 10
115.692
 20
-36.5321
 11
116.051
 21
-36.8741
  0
LINE
  8
0
 10
116.051
 20
-36.8741
 11
116.375
 21
-37.2507
  0
LINE
  8
0
 10
116.375
 20
-37.2507
 11
116.658
 21
-37.6581
  0
LINE
  8
0
 10
116.658
 20
-37.6581
 11
116.899
 21
-38.0921
  0
LINE
  8
0
 10
116.899
 20
-38.0921
 11
117.095
 21
-38.5482
  0
LINE
  8
0
 10
117.095
 20
-38.5482
 11
117.244
 21
-39.0218
  0
LINE
  8
0
 10
117.244
 20
-39.0218
 11
117.343
 21
-39.508
  0
LINE
  8
0
 10
117.343
 20
-39.508
 11
117.394
 21
-40.0018
  0
LINE
  8
0
 10
117.394
 20
-40.0018
 11
117.394
 21
-40.4982
  0
LINE
  8
0
 10
117.394
 20
-40.4982
 11
117.343
 21
-40.992
  0
LINE
  8
0
 10
117.343
 20
-40.992
 11
117.244
 21
-41.4782
  0
LINE
  8
0
 10
117.244
 20
-41.4782
 11
117.095
 21
-41.9518
  0
LINE
  8
0
 10
117.095
 20
-41.9518
 11
116.899
 21
-42.4079
  0
LINE
  8
0
 10
116.899
 20
-42.4079
 11
116.658
 21
-42.8419
  0
LINE
  8
0
 10
116.658
 20
-42.8419
 11
116.375
 21
-43.2493
  0
LINE
  8
0
 10
116.375
 20
-43.2493
 11
116.051
 21
-43.6259
  0
LINE
  8
0
 10
116.051
 20
-43.6259
 11
115.692
 21
-43.9679
  0
LINE
  8
0
 10
115.692
 20
-43.9679
 11
115.299
 21
-44.2717
  0
LINE
  8
0
 10
115.299
 20
-44.2717
 11
114.878
 21
-44.5343
  0
LINE
  8
0
 10
114.878
 20
-44.5343
 11
114.432
 21
-44.7529
  0
LINE
  8
0
 10
114.432
 20
-44.7529
 11
113.967
 21
-44.9253
  0
LINE
  8
0
 10
113.967
 20
-44.9253
 11
113.486
 21
-45.0497
  0
LINE
  8
0
 10
113.486
 20
-45.0497
 11
112.996
 21
-45.1248
  0
LINE
  8
0
 10
112.996
 20
-45.1248
 11
112.5
 21
-45.15
  0
LINE
  8
0
 10
112.5
 20
-45.15
 11
112.004
 21
-45.1248
  0
LINE
  8
0
 10
-0.24881
 20
-44.4426
 11
-0.742935
 21
-44.3838
  0
LINE
  8
0
 10
-0.742935
 20
-44.3838
 11
-1.22662
 21
-44.2669
  0
LINE
  8
0
 10
-1.22662
 20
-44.2669
 11
-1.69312
 21
-44.0936
  0
LINE
  8
0
 10
-1.69312
 20
-44.0936
 11
-2.13582
 21
-43.8664
  0
LINE
  8
0
 10
-2.13582
 20
-43.8664
 11
-2.54855
 21
-43.5884
  0
LINE
  8
0
 10
-2.54855
 20
-43.5884
 11
-2.92551
 21
-43.2635
  0
LINE
  8
0
 10
-2.92551
 20
-43.2635
 11
-3.2614
 21
-42.8964
  0
LINE
  8
0
 10
-3.2614
 20
-42.8964
 11
-3.5515
 21
-42.4921
  0
LINE
  8
0
 10
-3.5515
 20
-42.4921
 11
-3.79175
 21
-42.0563
  0
LINE
  8
0
 10
-3.79175
 20
-42.0563
 11
-3.97876
 21
-41.5951
  0
LINE
  8
0
 10
-3.97876
 20
-41.5951
 11
-4.10992
 21
-41.1151
  0
LINE
  8
0
 10
-4.10992
 20
-41.1151
 11
-4.1834
 21
-40.6229
  0
LINE
  8
0
 10
-4.1834
 20
-40.6229
 11
-4.19815
 21
-40.1255
  0
LINE
  8
0
 10
-4.19815
 20
-40.1255
 11
-4.15396
 21
-39.6299
  0
LINE
  8
0
 10
-4.15396
 20
-39.6299
 11
-4.05147
 21
-39.1429
  0
LINE
  8
0
 10
-4.05147
 20
-39.1429
 11
-3.89209
 21
-38.6715
  0
LINE
  8
0
 10
-3.89209
 20
-38.6715
 11
-3.67809
 21
-38.2223
  0
LINE
  8
0
 10
-3.67809
 20
-38.2223
 11
-3.41243
 21
-37.8015
  0
LINE
  8
0
 10
-3.41243
 20
-37.8015
 11
-3.09889
 21
-37.4151
  0
LINE
  8
0
 10
-3.09889
 20
-37.4151
 11
-2.74185
 21
-37.0685
  0
LINE
  8
0
 10
-2.74185
 20
-37.0685
 11
-2.34631
 21
-36.7665
  0
LINE
  8
0
 10
-2.34631
 20
-36.7665
 11
-1.91783
 21
-36.5134
  0
LINE
  8
0
 10
-1.91783
 20
-36.5134
 11
-1.46243
 21
-36.3128
  0
LINE
  8
0
 10
-1.46243
 20
-36.3128
 11
-0.986511
 21
-36.1675
  0
LINE
  8
0
 10
-0.986511
 20
-36.1675
 11
-0.496735
 21
-36.0795
  0
LINE
  8
0
 10
-0.496735
 20
-36.0795
 11
0
 21
-36.05
  0
LINE
  8
0
 10
0
 20
-36.05
 11
0.496735
 21
-36.0795
  0
LINE
  8
0
 10
0.496735
 20
-36.0795
 11
0.986511
 21
-36.1675
  0
LINE
  8
0
 10
0.986511
 20
-36.1675
 11
1.46243
 21
-36.3128
  0
LINE
  8
0
 10
1.46243
 20
-36.3128
 11
1.91783
 21
-36.5134
  0
LINE
  8
0
 10
1.91783
 20
-36.5134
 11
2.34631
 21
-36.7665
  0
LINE
  8
0
 10
2.34631
 20
-36.7665
 11
2.74185
 21
-37.0685
  0
LINE
  8
0
 10
2.74185
 20
-37.0685
 11
3.09889
 21
-37.4151
  0
LINE
  8
0
 10
3.09889
 20
-37.4151
 11
3.41243
 21
-37.8015
  0
LINE
  8
0
 10
3.41243
 20
-37.8015
 11
3.67809
 21
-38.2223
  0
LINE
  8
0
 10
3.67809
 20
-38.2223
 11
3.89209
 21
-38.6715
  0
LINE
  8
0
 10
3.89209
 20
-38.6715
 11
4.05147
 21
-39.1429
  0
LINE
  8
0
 10
4.05147
 20
-39.1429
 11
4.15396
 21
-39.6299
  0
LINE
  8
0
 10
4.15396
 20
-39.6299
 11
4.19815
 21
-40.1255
  0
LINE
  8
0
 10
4.19815
 20
-40.1255
 11
4.1834
 21
-40.6229
  0
LINE
  8
0
 10
4.1834
 20
-40.6229
 11
4.10992
 21
-41.1151
  0
LINE
  8
0
 10
4.10992
 20
-41.1151
 11
3.97876
 21
-41.5951
  0
LINE
  8
0
 10
3.97876
 20
-41.5951
 11
3.79175
 21
-42.0563
  0
LINE
  8
0
 10
3.79175
 20
-42.0563
 11
3.5515
 21
-42.4921
  0
LINE
  8
0
 10
3.5515
 20
-42.4921
 11
3.2614
 21
-42.8964
  0
LINE
  8
0
 10
3.2614
 20
-42.8964
 11
2.92551
 21
-43.2635
  0
LINE
  8
0
 10
2.92551
 20
-43.2635
 11
2.54855
 21
-43.5884
  0
LINE
  8
0
 10
2.54855
 20
-43.5884
 11
2.13582
 21
-43.8664
  0
LINE
  8
0
 10
2.13582
 20
-43.8664
 11
1.69312
 21
-44.0936
  0
LINE
  8
0
 10
1.69312
 20
-44.0936
 11
1.22662
 21
-44.2669
  0
LINE
  8
0
 10
1.22662
 20
-44.2669
 11
0.742935
 21
-44.3838
  0
LINE
  8
0
 10
0.742935
 20
-44.3838
 11
0.24881
 21
-44.4426
  0
LINE
  8
0
 10
0.24881
 20
-44.4426
 11
-0.24881
 21
-44.4426
  0
LINE
  8
0
 10
100.1
 20
-42.75
 11
100.1
 21
-37.75
  0
LINE
  8
0
 10
100.1
 20
-37.75
 11
103.1
 21
-37.75
  0
LINE
  8
0
 10
103.1
 20
-37.75
 11
103.1
 21
-42.75
  0
LINE
  8
0
 10
103.1
 20
-42.75
 11
100.1
 21
-42.75
  0
LINE
  8
0
 10
-124.9
 20
-42.75
 11
-124.9
 21
-37.75
  0
LINE
  8
0
 10
-124.9
 20
-37.75
 11
-121.9
 21
-37.75
  0
LINE
  8
0
 10
-121.9
 20
-37.75
 11
-121.9
 21
-42.75
  0
LINE
  8
0
 10
-121.9
 20
-42.75
 11
-124.9
 21
-42.75
  0
LINE
  8
0
 10
-103.1
 20
-42.75
 11
-103.1
 21
-37.75
  0
LINE
  8
0
 10
-103.1
 20
-37.75
 11
-100.1
 21
-37.75
  0
LINE
  8
0
 10
-100.1
 20
-37.75
 11
-100.1
 21
-42.75
  0
LINE
  8
0
 10
-100.1
 20
-42.75
 11
-103.1
 21
-42.75
  0
LINE
  8
0
 10
121.9
 20
-42.75
 11
121.9
 21
-37.75
  0
LINE
  8
0
 10
121.9
 20
-37.75
 11
124.9
 21
-37.75
  0
LINE
  8
0
 10
124.9
 20
-37.75
 11
124.9
 21
-42.75
  0
LINE
  8
0
 10
124.9
 20
-42.75
 11
121.9
 21
-42.75
  0
LINE
  8
0
 10
-174.615
 20
-48.4457
 11
-175.088
 21
-48.3428
  0
LINE
  8
0
 10
-175.088
 20
-48.3428
 11
-175.513
 21
-48.1109
  0
LINE
  8
0
 10
-175.513
 20
-48.1109
 11
-175.855
 21
-47.7688
  0
LINE
  8
0
 10
-175.855
 20
-47.7688
 11
-176.087
 21
-47.3441
  0
LINE
  8
0
 10
-176.087
 20
-47.3441
 11
-176.19
 21
-46.8713
  0
LINE
  8
0
 10
-176.19
 20
-46.8713
 11
-176.155
 21
-46.3886
  0
LINE
  8
0
 10
-176.155
 20
-46.3886
 11
-175.986
 21
-45.9353
  0
LINE
  8
0
 10
-175.986
 20
-45.9353
 11
-175.696
 21
-45.5479
  0
LINE
  8
0
 10
-175.696
 20
-45.5479
 11
-175.309
 21
-45.2579
  0
LINE
  8
0
 10
-175.309
 20
-45.2579
 11
-174.855
 21
-45.0888
  0
LINE
  8
0
 10
-174.855
 20
-45.0888
 11
-174.373
 21
-45.0543
  0
LINE
  8
0
 10
-174.373
 20
-45.0543
 11
-171.544
 21
-45.0543
  0
LINE
  8
0
 10
-171.544
 20
-45.0543
 11
-171.071
 21
-45.1572
  0
LINE
  8
0
 10
-171.071
 20
-45.1572
 11
-170.647
 21
-45.3891
  0
LINE
  8
0
 10
-170.647
 20
-45.3891
 11
-170.305
 21
-45.7312
  0
LINE
  8
0
 10
-170.305
 20
-45.7312
 11
-170.073
 21
-46.1559
  0
LINE
  8
0
 10
-170.073
 20
-46.1559
 11
-169.97
 21
-46.6287
  0
LINE
  8
0
 10
-169.97
 20
-46.6287
 11
-170.004
 21
-47.1114
  0
LINE
  8
0
 10
-170.004
 20
-47.1114
 11
-170.173
 21
-47.5647
  0
LINE
  8
0
 10
-170.173
 20
-47.5647
 11
-170.463
 21
-47.9521
  0
LINE
  8
0
 10
-170.463
 20
-47.9521
 11
-170.851
 21
-48.2421
  0
LINE
  8
0
 10
-170.851
 20
-48.2421
 11
-171.304
 21
-48.4111
  0
LINE
  8
0
 10
-171.304
 20
-48.4111
 11
-171.787
 21
-48.4457
  0
LINE
  8
0
 10
-171.787
 20
-48.4457
 11
-174.615
 21
-48.4457
  0
LINE
  8
0
 10
-218.456
 20
-48.4457
 11
-218.929
 21
-48.3428
  0
LINE
  8
0
 10
-218.929
 20
-48.3428
 11
-219.353
 21
-48.1109
  0
LINE
  8
0
 10
-219.353
 20
-48.1109
 11
-219.695
 21
-47.7688
  0
LINE
  8
0
 10
-219.695
 20
-47.7688
 11
-219.927
 21
-47.3441
  0
LINE
  8
0
 10
-219.927
 20
-47.3441
 11
-220.03
 21
-46.8713
  0
LINE
  8
0
 10
-220.03
 20
-46.8713
 11
-219.996
 21
-46.3886
  0
LINE
  8
0
 10
-219.996
 20
-46.3886
 11
-219.827
 21
-45.9353
  0
LINE
  8
0
 10
-219.827
 20
-45.9353
 11
-219.537
 21
-45.5479
  0
LINE
  8
0
 10
-219.537
 20
-45.5479
 11
-219.149
 21
-45.2579
  0
LINE
  8
0
 10
-219.149
 20
-45.2579
 11
-218.696
 21
-45.0888
  0
LINE
  8
0
 10
-218.696
 20
-45.0888
 11
-218.213
 21
-45.0543
  0
LINE
  8
0
 10
-218.213
 20
-45.0543
 11
-215.385
 21
-45.0543
  0
LINE
  8
0
 10
-215.385
 20
-45.0543
 11
-214.912
 21
-45.1572
  0
LINE
  8
0
 10
-214.912
 20
-45.1572
 11
-214.487
 21
-45.3891
  0
LINE
  8
0
 10
-214.487
 20
-45.3891
 11
-214.145
 21
-45.7312
  0
LINE
  8
0
 10
-214.145
 20
-45.7312
 11
-213.913
 21
-46.1559
  0
LINE
  8
0
 10
-213.913
 20
-46.1559
 11
-213.81
 21
-46.6287
  0
LINE
  8
0
 10
-213.81
 20
-46.6287
 11
-213.845
 21
-47.1114
  0
LINE
  8
0
 10
-213.845
 20
-47.1114
 11
-214.014
 21
-47.5647
  0
LINE
  8
0
 10
-214.014
 20
-47.5647
 11
-214.304
 21
-47.9521
  0
LINE
  8
0
 10
-214.304
 20
-47.9521
 11
-214.691
 21
-48.2421
  0
LINE
  8
0
 10
-214.691
 20
-48.2421
 11
-215.145
 21
-48.4111
  0
LINE
  8
0
 10
-215.145
 20
-48.4111
 11
-215.627
 21
-48.4457
  0
LINE
  8
0
 10
-215.627
 20
-48.4457
 11
-218.456
 21
-48.4457
  0
LINE
  8
0
 10
215.627
 20
-48.4457
 11
215.145
 21
-48.4111
  0
LINE
  8
0
 10
215.145
 20
-48.4111
 11
214.691
 21
-48.2421
  0
LINE
  8
0
 10
214.691
 20
-48.2421
 11
214.304
 21
-47.9521
  0
LINE
  8
0
 10
214.304
 20
-47.9521
 11
214.014
 21
-47.5647
  0
LINE
  8
0
 10
214.014
 20
-47.5647
 11
213.845
 21
-47.1114
  0
LINE
  8
0
 10
213.845
 20
-47.1114
 11
213.81
 21
-46.6287
  0
LINE
  8
0
 10
213.81
 20
-46.6287
 11
213.913
 21
-46.1559
  0
LINE
  8
0
 10
213.913
 20
-46.1559
 11
214.145
 21
-45.7312
  0
LINE
  8
0
 10
214.145
 20
-45.7312
 11
214.487
 21
-45.3891
  0
LINE
  8
0
 10
214.487
 20
-45.3891
 11
214.912
 21
-45.1572
  0
LINE
  8
0
 10
214.912
 20
-45.1572
 11
215.385
 21
-45.0543
  0
LINE
  8
0
 10
215.385
 20
-45.0543
 11
218.213
 21
-45.0543
  0
LINE
  8
0
 10
218.213
 20
-45.0543
 11
218.696
 21
-45.0888
  0
LINE
  8
0
 10
218.696
 20
-45.0888
 11
219.149
 21
-45.2579
  0
LINE
  8
0
 10
219.149
 20
-45.2579
 11
219.537
 21
-45.5479
  0
LINE
  8
0
 10
219.537
 20
-45.5479
 11
219.827
 21
-45.9353
  0
LINE
  8
0
 10
219.827
 20
-45.9353
 11
219.996
 21
-46.3886
  0
LINE
  8
0
 10
219.996
 20
-46.3886
 11
220.03
 21
-46.8713
  0
LINE
  8
0
 10
220.03
 20
-46.8713
 11
219.927
 21
-47.3441
  0
LINE
  8
0
 10
219.927
 20
-47.3441
 11
219.695
 21
-47.7688
  0
LINE
  8
0
 10
219.695
 20
-47.7688
 11
219.353
 21
-48.1109
  0
LINE
  8
0
 10
219.353
 20
-48.1109
 11
218.929
 21
-48.3428
  0
LINE
  8
0
 10
218.929
 20
-48.3428
 11
218.456
 21
-48.4457
  0
LINE
  8
0
 10
218.456
 20
-48.4457
 11
215.627
 21
-48.4457
  0
LINE
  8
0
 10
171.787
 20
-48.4457
 11
171.304
 21
-48.4111
  0
LINE
  8
0
 10
171.304
 20
-48.4111
 11
170.851
 21
-48.2421
  0
LINE
  8
0
 10
170.851
 20
-48.2421
 11
170.463
 21
-47.9521
  0
LINE
  8
0
 10
170.463
 20
-47.9521
 11
170.173
 21
-47.5647
  0
LINE
  8
0
 10
170.173
 20
-47.5647
 11
170.004
 21
-47.1114
  0
LINE
  8
0
 10
170.004
 20
-47.1114
 11
169.97
 21
-46.6287
  0
LINE
  8
0
 10
169.97
 20
-46.6287
 11
170.073
 21
-46.1559
  0
LINE
  8
0
 10
170.073
 20
-46.1559
 11
170.305
 21
-45.7312
  0
LINE
  8
0
 10
170.305
 20
-45.7312
 11
170.647
 21
-45.3891
  0
LINE
  8
0
 10
170.647
 20
-45.3891
 11
171.071
 21
-45.1572
  0
LINE
  8
0
 10
171.071
 20
-45.1572
 11
171.544
 21
-45.0543
  0
LINE
  8
0
 10
171.544
 20
-45.0543
 11
174.373
 21
-45.0543
  0
LINE
  8
0
 10
174.373
 20
-45.0543
 11
174.855
 21
-45.0888
  0
LINE
  8
0
 10
174.855
 20
-45.0888
 11
175.309
 21
-45.2579
  0
LINE
  8
0
 10
175.309
 20
-45.2579
 11
175.696
 21
-45.5479
  0
LINE
  8
0
 10
175.696
 20
-45.5479
 11
175.986
 21
-45.9353
  0
LINE
  8
0
 10
175.986
 20
-45.9353
 11
176.155
 21
-46.3886
  0
LINE
  8
0
 10
176.155
 20
-46.3886
 11
176.19
 21
-46.8713
  0
LINE
  8
0
 10
176.19
 20
-46.8713
 11
176.087
 21
-47.3441
  0
LINE
  8
0
 10
176.087
 20
-47.3441
 11
175.855
 21
-47.7688
  0
LINE
  8
0
 10
175.855
 20
-47.7688
 11
175.513
 21
-48.1109
  0
LINE
  8
0
 10
175.513
 20
-48.1109
 11
175.088
 21
-48.3428
  0
LINE
  8
0
 10
175.088
 20
-48.3428
 11
174.615
 21
-48.4457
  0
LINE
  8
0
 10
174.615
 20
-48.4457
 11
171.787
 21
-48.4457
  0
ENDSEC
  0
SECTION
  2
OBJECTS
  0
DICTIONARY
  0
ENDSEC
  0
EOF
