  0
SECTION
  2
BLOCKS
  0
ENDSEC
  0
SECTION
  2
ENTITIES
  0
LINE
  8
0
 10
9.75
 20
225
 11
2.25
 21
225
  0
LINE
  8
0
 10
2.25
 20
225
 11
2.25
 21
229.875
  0
LINE
  8
0
 10
2.25
 20
229.875
 11
0.625
 21
231.5
  0
LINE
  8
0
 10
0.625
 20
231.5
 11
-11.125
 21
231.5
  0
LINE
  8
0
 10
-11.125
 20
231.5
 11
-12.75
 21
229.875
  0
LINE
  8
0
 10
-12.75
 20
229.875
 11
-12.75
 21
225
  0
LINE
  8
0
 10
-12.75
 20
225
 11
-17.8
 21
225
  0
LINE
  8
0
 10
-17.8
 20
225
 11
-17.8
 21
218.1
  0
LINE
  8
0
 10
-17.8
 20
218.1
 11
-16.155
 21
218.1
  0
LINE
  8
0
 10
-16.155
 20
218.1
 11
-16.155
 21
212.4
  0
LINE
  8
0
 10
-16.155
 20
212.4
 11
-17.8
 21
212.4
  0
LINE
  8
0
 10
-17.8
 20
212.4
 11
-17.8
 21
205.5
  0
LINE
  8
0
 10
-17.8
 20
205.5
 11
-22.7
 21
205.5
  0
LINE
  8
0
 10
-22.7
 20
205.5
 11
-22.7
 21
212.4
  0
LINE
  8
0
 10
-22.7
 20
212.4
 11
-24.345
 21
212.4
  0
LINE
  8
0
 10
-24.345
 20
212.4
 11
-24.345
 21
218.1
  0
LINE
  8
0
 10
-24.345
 20
218.1
 11
-22.7
 21
218.1
  0
LINE
  8
0
 10
-22.7
 20
218.1
 11
-22.7
 21
225
  0
LINE
  8
0
 10
-22.7
 20
225
 11
-27.75
 21
225
  0
LINE
  8
0
 10
-27.75
 20
225
 11
-27.75
 21
229.875
  0
LINE
  8
0
 10
-27.75
 20
229.875
 11
-29.375
 21
231.5
  0
LINE
  8
0
 10
-29.375
 20
231.5
 11
-41.125
 21
231.5
  0
LINE
  8
0
 10
-41.125
 20
231.5
 11
-42.75
 21
229.875
  0
LINE
  8
0
 10
-42.75
 20
229.875
 11
-42.75
 21
225
  0
LINE
  8
0
 10
-42.75
 20
225
 11
-50.25
 21
225
  0
LINE
  8
0
 10
-50.25
 20
225
 11
-50.25
 21
-285
  0
LINE
  8
0
 10
-50.25
 20
-285
 11
9.75
 21
-285
  0
LINE
  8
0
 10
9.75
 20
-285
 11
9.75
 21
225
  0
LINE
  8
0
 10
-37.7377
 20
212.548
 11
-38.2067
 21
212.69
  0
LINE
  8
0
 10
-38.2067
 20
212.69
 11
-38.6389
 21
212.921
  0
LINE
  8
0
 10
-38.6389
 20
212.921
 11
-39.0178
 21
213.232
  0
LINE
  8
0
 10
-39.0178
 20
213.232
 11
-39.3287
 21
213.611
  0
LINE
  8
0
 10
-39.3287
 20
213.611
 11
-39.5597
 21
214.043
  0
LINE
  8
0
 10
-39.5597
 20
214.043
 11
-39.702
 21
214.512
  0
LINE
  8
0
 10
-39.702
 20
214.512
 11
-39.75
 21
215
  0
LINE
  8
0
 10
-39.75
 20
215
 11
-39.702
 21
215.488
  0
LINE
  8
0
 10
-39.702
 20
215.488
 11
-39.5597
 21
215.957
  0
LINE
  8
0
 10
-39.5597
 20
215.957
 11
-39.3287
 21
216.389
  0
LINE
  8
0
 10
-39.3287
 20
216.389
 11
-39.0178
 21
216.768
  0
LINE
  8
0
 10
-39.0178
 20
216.768
 11
-38.6389
 21
217.079
  0
LINE
  8
0
 10
-38.6389
 20
217.079
 11
-38.2067
 21
217.31
  0
LINE
  8
0
 10
-38.2067
 20
217.31
 11
-37.7377
 21
217.452
  0
LINE
  8
0
 10
-37.7377
 20
217.452
 11
-37.25
 21
217.5
  0
LINE
  8
0
 10
-37.25
 20
217.5
 11
-36.7623
 21
217.452
  0
LINE
  8
0
 10
-36.7623
 20
217.452
 11
-36.2933
 21
217.31
  0
LINE
  8
0
 10
-36.2933
 20
217.31
 11
-35.8611
 21
217.079
  0
LINE
  8
0
 10
-35.8611
 20
217.079
 11
-35.4822
 21
216.768
  0
LINE
  8
0
 10
-35.4822
 20
216.768
 11
-35.1713
 21
216.389
  0
LINE
  8
0
 10
-35.1713
 20
216.389
 11
-34.9403
 21
215.957
  0
LINE
  8
0
 10
-34.9403
 20
215.957
 11
-34.798
 21
215.488
  0
LINE
  8
0
 10
-34.798
 20
215.488
 11
-34.75
 21
215
  0
LINE
  8
0
 10
-34.75
 20
215
 11
-34.798
 21
214.512
  0
LINE
  8
0
 10
-34.798
 20
214.512
 11
-34.9403
 21
214.043
  0
LINE
  8
0
 10
-34.9403
 20
214.043
 11
-35.1713
 21
213.611
  0
LINE
  8
0
 10
-35.1713
 20
213.611
 11
-35.4822
 21
213.232
  0
LINE
  8
0
 10
-35.4822
 20
213.232
 11
-35.8611
 21
212.921
  0
LINE
  8
0
 10
-35.8611
 20
212.921
 11
-36.2933
 21
212.69
  0
LINE
  8
0
 10
-36.2933
 20
212.69
 11
-36.7623
 21
212.548
  0
LINE
  8
0
 10
-36.7623
 20
212.548
 11
-37.25
 21
212.5
  0
LINE
  8
0
 10
-37.25
 20
212.5
 11
-37.7377
 21
212.548
  0
LINE
  8
0
 10
-10.2377
 20
212.548
 11
-10.7067
 21
212.69
  0
LINE
  8
0
 10
-10.7067
 20
212.69
 11
-11.1389
 21
212.921
  0
LINE
  8
0
 10
-11.1389
 20
212.921
 11
-11.5178
 21
213.232
  0
LINE
  8
0
 10
-11.5178
 20
213.232
 11
-11.8287
 21
213.611
  0
LINE
  8
0
 10
-11.8287
 20
213.611
 11
-12.0597
 21
214.043
  0
LINE
  8
0
 10
-12.0597
 20
214.043
 11
-12.202
 21
214.512
  0
LINE
  8
0
 10
-12.202
 20
214.512
 11
-12.25
 21
215
  0
LINE
  8
0
 10
-12.25
 20
215
 11
-12.202
 21
215.488
  0
LINE
  8
0
 10
-12.202
 20
215.488
 11
-12.0597
 21
215.957
  0
LINE
  8
0
 10
-12.0597
 20
215.957
 11
-11.8287
 21
216.389
  0
LINE
  8
0
 10
-11.8287
 20
216.389
 11
-11.5178
 21
216.768
  0
LINE
  8
0
 10
-11.5178
 20
216.768
 11
-11.1389
 21
217.079
  0
LINE
  8
0
 10
-11.1389
 20
217.079
 11
-10.7067
 21
217.31
  0
LINE
  8
0
 10
-10.7067
 20
217.31
 11
-10.2377
 21
217.452
  0
LINE
  8
0
 10
-10.2377
 20
217.452
 11
-9.75
 21
217.5
  0
LINE
  8
0
 10
-9.75
 20
217.5
 11
-9.26227
 21
217.452
  0
LINE
  8
0
 10
-9.26227
 20
217.452
 11
-8.79329
 21
217.31
  0
LINE
  8
0
 10
-8.79329
 20
217.31
 11
-8.36107
 21
217.079
  0
LINE
  8
0
 10
-8.36107
 20
217.079
 11
-7.98222
 21
216.768
  0
LINE
  8
0
 10
-7.98222
 20
216.768
 11
-7.67133
 21
216.389
  0
LINE
  8
0
 10
-7.67133
 20
216.389
 11
-7.44029
 21
215.957
  0
LINE
  8
0
 10
-7.44029
 20
215.957
 11
-7.29803
 21
215.488
  0
LINE
  8
0
 10
-7.29803
 20
215.488
 11
-7.25
 21
215
  0
LINE
  8
0
 10
-7.25
 20
215
 11
-7.29803
 21
214.512
  0
LINE
  8
0
 10
-7.29803
 20
214.512
 11
-7.44029
 21
214.043
  0
LINE
  8
0
 10
-7.44029
 20
214.043
 11
-7.67133
 21
213.611
  0
LINE
  8
0
 10
-7.67133
 20
213.611
 11
-7.98222
 21
213.232
  0
LINE
  8
0
 10
-7.98222
 20
213.232
 11
-8.36107
 21
212.921
  0
LINE
  8
0
 10
-8.36107
 20
212.921
 11
-8.79329
 21
212.69
  0
LINE
  8
0
 10
-8.79329
 20
212.69
 11
-9.26227
 21
212.548
  0
LINE
  8
0
 10
-9.26227
 20
212.548
 11
-9.75
 21
212.5
  0
LINE
  8
0
 10
-9.75
 20
212.5
 11
-10.2377
 21
212.548
  0
LINE
  8
0
 10
-10.2377
 20
192.548
 11
-10.7067
 21
192.69
  0
LINE
  8
0
 10
-10.7067
 20
192.69
 11
-11.1389
 21
192.921
  0
LINE
  8
0
 10
-11.1389
 20
192.921
 11
-11.5178
 21
193.232
  0
LINE
  8
0
 10
-11.5178
 20
193.232
 11
-11.8287
 21
193.611
  0
LINE
  8
0
 10
-11.8287
 20
193.611
 11
-12.0597
 21
194.043
  0
LINE
  8
0
 10
-12.0597
 20
194.043
 11
-12.202
 21
194.512
  0
LINE
  8
0
 10
-12.202
 20
194.512
 11
-12.25
 21
195
  0
LINE
  8
0
 10
-12.25
 20
195
 11
-12.202
 21
195.488
  0
LINE
  8
0
 10
-12.202
 20
195.488
 11
-12.0597
 21
195.957
  0
LINE
  8
0
 10
-12.0597
 20
195.957
 11
-11.8287
 21
196.389
  0
LINE
  8
0
 10
-11.8287
 20
196.389
 11
-11.5178
 21
196.768
  0
LINE
  8
0
 10
-11.5178
 20
196.768
 11
-11.1389
 21
197.079
  0
LINE
  8
0
 10
-11.1389
 20
197.079
 11
-10.7067
 21
197.31
  0
LINE
  8
0
 10
-10.7067
 20
197.31
 11
-10.2377
 21
197.452
  0
LINE
  8
0
 10
-10.2377
 20
197.452
 11
-9.75
 21
197.5
  0
LINE
  8
0
 10
-9.75
 20
197.5
 11
-9.26227
 21
197.452
  0
LINE
  8
0
 10
-9.26227
 20
197.452
 11
-8.79329
 21
197.31
  0
LINE
  8
0
 10
-8.79329
 20
197.31
 11
-8.36107
 21
197.079
  0
LINE
  8
0
 10
-8.36107
 20
197.079
 11
-7.98222
 21
196.768
  0
LINE
  8
0
 10
-7.98222
 20
196.768
 11
-7.67133
 21
196.389
  0
LINE
  8
0
 10
-7.67133
 20
196.389
 11
-7.44029
 21
195.957
  0
LINE
  8
0
 10
-7.44029
 20
195.957
 11
-7.29803
 21
195.488
  0
LINE
  8
0
 10
-7.29803
 20
195.488
 11
-7.25
 21
195
  0
LINE
  8
0
 10
-7.25
 20
195
 11
-7.29803
 21
194.512
  0
LINE
  8
0
 10
-7.29803
 20
194.512
 11
-7.44029
 21
194.043
  0
LINE
  8
0
 10
-7.44029
 20
194.043
 11
-7.67133
 21
193.611
  0
LINE
  8
0
 10
-7.67133
 20
193.611
 11
-7.98222
 21
193.232
  0
LINE
  8
0
 10
-7.98222
 20
193.232
 11
-8.36107
 21
192.921
  0
LINE
  8
0
 10
-8.36107
 20
192.921
 11
-8.79329
 21
192.69
  0
LINE
  8
0
 10
-8.79329
 20
192.69
 11
-9.26227
 21
192.548
  0
LINE
  8
0
 10
-9.26227
 20
192.548
 11
-9.75
 21
192.5
  0
LINE
  8
0
 10
-9.75
 20
192.5
 11
-10.2377
 21
192.548
  0
LINE
  8
0
 10
-37.7377
 20
192.548
 11
-38.2067
 21
192.69
  0
LINE
  8
0
 10
-38.2067
 20
192.69
 11
-38.6389
 21
192.921
  0
LINE
  8
0
 10
-38.6389
 20
192.921
 11
-39.0178
 21
193.232
  0
LINE
  8
0
 10
-39.0178
 20
193.232
 11
-39.3287
 21
193.611
  0
LINE
  8
0
 10
-39.3287
 20
193.611
 11
-39.5597
 21
194.043
  0
LINE
  8
0
 10
-39.5597
 20
194.043
 11
-39.702
 21
194.512
  0
LINE
  8
0
 10
-39.702
 20
194.512
 11
-39.75
 21
195
  0
LINE
  8
0
 10
-39.75
 20
195
 11
-39.702
 21
195.488
  0
LINE
  8
0
 10
-39.702
 20
195.488
 11
-39.5597
 21
195.957
  0
LINE
  8
0
 10
-39.5597
 20
195.957
 11
-39.3287
 21
196.389
  0
LINE
  8
0
 10
-39.3287
 20
196.389
 11
-39.0178
 21
196.768
  0
LINE
  8
0
 10
-39.0178
 20
196.768
 11
-38.6389
 21
197.079
  0
LINE
  8
0
 10
-38.6389
 20
197.079
 11
-38.2067
 21
197.31
  0
LINE
  8
0
 10
-38.2067
 20
197.31
 11
-37.7377
 21
197.452
  0
LINE
  8
0
 10
-37.7377
 20
197.452
 11
-37.25
 21
197.5
  0
LINE
  8
0
 10
-37.25
 20
197.5
 11
-36.7623
 21
197.452
  0
LINE
  8
0
 10
-36.7623
 20
197.452
 11
-36.2933
 21
197.31
  0
LINE
  8
0
 10
-36.2933
 20
197.31
 11
-35.8611
 21
197.079
  0
LINE
  8
0
 10
-35.8611
 20
197.079
 11
-35.4822
 21
196.768
  0
LINE
  8
0
 10
-35.4822
 20
196.768
 11
-35.1713
 21
196.389
  0
LINE
  8
0
 10
-35.1713
 20
196.389
 11
-34.9403
 21
195.957
  0
LINE
  8
0
 10
-34.9403
 20
195.957
 11
-34.798
 21
195.488
  0
LINE
  8
0
 10
-34.798
 20
195.488
 11
-34.75
 21
195
  0
LINE
  8
0
 10
-34.75
 20
195
 11
-34.798
 21
194.512
  0
LINE
  8
0
 10
-34.798
 20
194.512
 11
-34.9403
 21
194.043
  0
LINE
  8
0
 10
-34.9403
 20
194.043
 11
-35.1713
 21
193.611
  0
LINE
  8
0
 10
-35.1713
 20
193.611
 11
-35.4822
 21
193.232
  0
LINE
  8
0
 10
-35.4822
 20
193.232
 11
-35.8611
 21
192.921
  0
LINE
  8
0
 10
-35.8611
 20
192.921
 11
-36.2933
 21
192.69
  0
LINE
  8
0
 10
-36.2933
 20
192.69
 11
-36.7623
 21
192.548
  0
LINE
  8
0
 10
-36.7623
 20
192.548
 11
-37.25
 21
192.5
  0
LINE
  8
0
 10
-37.25
 20
192.5
 11
-37.7377
 21
192.548
  0
LINE
  8
0
 10
-3.2
 20
132.55
 11
-3.2
 21
147.45
  0
LINE
  8
0
 10
-3.2
 20
147.45
 11
3.2
 21
147.45
  0
LINE
  8
0
 10
3.2
 20
147.45
 11
3.2
 21
132.55
  0
LINE
  8
0
 10
3.2
 20
132.55
 11
-3.2
 21
132.55
  0
LINE
  8
0
 10
-29.7
 20
132.55
 11
-29.7
 21
147.45
  0
LINE
  8
0
 10
-29.7
 20
147.45
 11
-23.3
 21
147.45
  0
LINE
  8
0
 10
-23.3
 20
147.45
 11
-23.3
 21
132.55
  0
LINE
  8
0
 10
-23.3
 20
132.55
 11
-29.7
 21
132.55
  0
LINE
  8
0
 10
-26.9877
 20
122.548
 11
-27.4567
 21
122.69
  0
LINE
  8
0
 10
-27.4567
 20
122.69
 11
-27.8889
 21
122.921
  0
LINE
  8
0
 10
-27.8889
 20
122.921
 11
-28.2678
 21
123.232
  0
LINE
  8
0
 10
-28.2678
 20
123.232
 11
-28.5787
 21
123.611
  0
LINE
  8
0
 10
-28.5787
 20
123.611
 11
-28.8097
 21
124.043
  0
LINE
  8
0
 10
-28.8097
 20
124.043
 11
-28.952
 21
124.512
  0
LINE
  8
0
 10
-28.952
 20
124.512
 11
-29
 21
125
  0
LINE
  8
0
 10
-29
 20
125
 11
-28.952
 21
125.488
  0
LINE
  8
0
 10
-28.952
 20
125.488
 11
-28.8097
 21
125.957
  0
LINE
  8
0
 10
-28.8097
 20
125.957
 11
-28.5787
 21
126.389
  0
LINE
  8
0
 10
-28.5787
 20
126.389
 11
-28.2678
 21
126.768
  0
LINE
  8
0
 10
-28.2678
 20
126.768
 11
-27.8889
 21
127.079
  0
LINE
  8
0
 10
-27.8889
 20
127.079
 11
-27.4567
 21
127.31
  0
LINE
  8
0
 10
-27.4567
 20
127.31
 11
-26.9877
 21
127.452
  0
LINE
  8
0
 10
-26.9877
 20
127.452
 11
-26.5
 21
127.5
  0
LINE
  8
0
 10
-26.5
 20
127.5
 11
-26.0123
 21
127.452
  0
LINE
  8
0
 10
-26.0123
 20
127.452
 11
-25.5433
 21
127.31
  0
LINE
  8
0
 10
-25.5433
 20
127.31
 11
-25.1111
 21
127.079
  0
LINE
  8
0
 10
-25.1111
 20
127.079
 11
-24.7322
 21
126.768
  0
LINE
  8
0
 10
-24.7322
 20
126.768
 11
-24.4213
 21
126.389
  0
LINE
  8
0
 10
-24.4213
 20
126.389
 11
-24.1903
 21
125.957
  0
LINE
  8
0
 10
-24.1903
 20
125.957
 11
-24.048
 21
125.488
  0
LINE
  8
0
 10
-24.048
 20
125.488
 11
-24
 21
125
  0
LINE
  8
0
 10
-24
 20
125
 11
-24.048
 21
124.512
  0
LINE
  8
0
 10
-24.048
 20
124.512
 11
-24.1903
 21
124.043
  0
LINE
  8
0
 10
-24.1903
 20
124.043
 11
-24.4213
 21
123.611
  0
LINE
  8
0
 10
-24.4213
 20
123.611
 11
-24.7322
 21
123.232
  0
LINE
  8
0
 10
-24.7322
 20
123.232
 11
-25.1111
 21
122.921
  0
LINE
  8
0
 10
-25.1111
 20
122.921
 11
-25.5433
 21
122.69
  0
LINE
  8
0
 10
-25.5433
 20
122.69
 11
-26.0123
 21
122.548
  0
LINE
  8
0
 10
-26.0123
 20
122.548
 11
-26.5
 21
122.5
  0
LINE
  8
0
 10
-26.5
 20
122.5
 11
-26.9877
 21
122.548
  0
LINE
  8
0
 10
-0.487717
 20
122.548
 11
-0.956696
 21
122.69
  0
LINE
  8
0
 10
-0.956696
 20
122.69
 11
-1.38892
 21
122.921
  0
LINE
  8
0
 10
-1.38892
 20
122.921
 11
-1.76776
 21
123.232
  0
LINE
  8
0
 10
-1.76776
 20
123.232
 11
-2.07866
 21
123.611
  0
LINE
  8
0
 10
-2.07866
 20
123.611
 11
-2.30969
 21
124.043
  0
LINE
  8
0
 10
-2.30969
 20
124.043
 11
-2.45195
 21
124.512
  0
LINE
  8
0
 10
-2.45195
 20
124.512
 11
-2.49998
 21
125
  0
LINE
  8
0
 10
-2.49998
 20
125
 11
-2.45195
 21
125.488
  0
LINE
  8
0
 10
-2.45195
 20
125.488
 11
-2.30969
 21
125.957
  0
LINE
  8
0
 10
-2.30969
 20
125.957
 11
-2.07866
 21
126.389
  0
LINE
  8
0
 10
-2.07866
 20
126.389
 11
-1.76776
 21
126.768
  0
LINE
  8
0
 10
-1.76776
 20
126.768
 11
-1.38892
 21
127.079
  0
LINE
  8
0
 10
-1.38892
 20
127.079
 11
-0.956696
 21
127.31
  0
LINE
  8
0
 10
-0.956696
 20
127.31
 11
-0.487717
 21
127.452
  0
LINE
  8
0
 10
-0.487717
 20
127.452
 11
0
 21
127.5
  0
LINE
  8
0
 10
0
 20
127.5
 11
0.487717
 21
127.452
  0
LINE
  8
0
 10
0.487717
 20
127.452
 11
0.956696
 21
127.31
  0
LINE
  8
0
 10
0.956696
 20
127.31
 11
1.38892
 21
127.079
  0
LINE
  8
0
 10
1.38892
 20
127.079
 11
1.76776
 21
126.768
  0
LINE
  8
0
 10
1.76776
 20
126.768
 11
2.07866
 21
126.389
  0
LINE
  8
0
 10
2.07866
 20
126.389
 11
2.30969
 21
125.957
  0
LINE
  8
0
 10
2.30969
 20
125.957
 11
2.45195
 21
125.488
  0
LINE
  8
0
 10
2.45195
 20
125.488
 11
2.49998
 21
125
  0
LINE
  8
0
 10
2.49998
 20
125
 11
2.45195
 21
124.512
  0
LINE
  8
0
 10
2.45195
 20
124.512
 11
2.30969
 21
124.043
  0
LINE
  8
0
 10
2.30969
 20
124.043
 11
2.07866
 21
123.611
  0
LINE
  8
0
 10
2.07866
 20
123.611
 11
1.76776
 21
123.232
  0
LINE
  8
0
 10
1.76776
 20
123.232
 11
1.38892
 21
122.921
  0
LINE
  8
0
 10
1.38892
 20
122.921
 11
0.956696
 21
122.69
  0
LINE
  8
0
 10
0.956696
 20
122.69
 11
0.487717
 21
122.548
  0
LINE
  8
0
 10
0.487717
 20
122.548
 11
0
 21
122.5
  0
LINE
  8
0
 10
0
 20
122.5
 11
-0.487717
 21
122.548
  0
LINE
  8
0
 10
-29.7
 20
102.55
 11
-29.7
 21
117.45
  0
LINE
  8
0
 10
-29.7
 20
117.45
 11
-23.3
 21
117.45
  0
LINE
  8
0
 10
-23.3
 20
117.45
 11
-23.3
 21
102.55
  0
LINE
  8
0
 10
-23.3
 20
102.55
 11
-29.7
 21
102.55
  0
LINE
  8
0
 10
-3.2
 20
102.55
 11
-3.2
 21
117.45
  0
LINE
  8
0
 10
-3.2
 20
117.45
 11
3.2
 21
117.45
  0
LINE
  8
0
 10
3.2
 20
117.45
 11
3.2
 21
102.55
  0
LINE
  8
0
 10
3.2
 20
102.55
 11
-3.2
 21
102.55
  0
LINE
  8
0
 10
-29.7
 20
-117.45
 11
-29.7
 21
-102.55
  0
LINE
  8
0
 10
-29.7
 20
-102.55
 11
-23.3
 21
-102.55
  0
LINE
  8
0
 10
-23.3
 20
-102.55
 11
-23.3
 21
-117.45
  0
LINE
  8
0
 10
-23.3
 20
-117.45
 11
-29.7
 21
-117.45
  0
LINE
  8
0
 10
-3.2
 20
-117.45
 11
-3.2
 21
-102.55
  0
LINE
  8
0
 10
-3.2
 20
-102.55
 11
3.2
 21
-102.55
  0
LINE
  8
0
 10
3.2
 20
-102.55
 11
3.2
 21
-117.45
  0
LINE
  8
0
 10
3.2
 20
-117.45
 11
-3.2
 21
-117.45
  0
LINE
  8
0
 10
-26.9877
 20
-127.452
 11
-27.4567
 21
-127.31
  0
LINE
  8
0
 10
-27.4567
 20
-127.31
 11
-27.8889
 21
-127.079
  0
LINE
  8
0
 10
-27.8889
 20
-127.079
 11
-28.2678
 21
-126.768
  0
LINE
  8
0
 10
-28.2678
 20
-126.768
 11
-28.5787
 21
-126.389
  0
LINE
  8
0
 10
-28.5787
 20
-126.389
 11
-28.8097
 21
-125.957
  0
LINE
  8
0
 10
-28.8097
 20
-125.957
 11
-28.952
 21
-125.488
  0
LINE
  8
0
 10
-28.952
 20
-125.488
 11
-29
 21
-125
  0
LINE
  8
0
 10
-29
 20
-125
 11
-28.952
 21
-124.512
  0
LINE
  8
0
 10
-28.952
 20
-124.512
 11
-28.8097
 21
-124.043
  0
LINE
  8
0
 10
-28.8097
 20
-124.043
 11
-28.5787
 21
-123.611
  0
LINE
  8
0
 10
-28.5787
 20
-123.611
 11
-28.2678
 21
-123.232
  0
LINE
  8
0
 10
-28.2678
 20
-123.232
 11
-27.8889
 21
-122.921
  0
LINE
  8
0
 10
-27.8889
 20
-122.921
 11
-27.4567
 21
-122.69
  0
LINE
  8
0
 10
-27.4567
 20
-122.69
 11
-26.9877
 21
-122.548
  0
LINE
  8
0
 10
-26.9877
 20
-122.548
 11
-26.5
 21
-122.5
  0
LINE
  8
0
 10
-26.5
 20
-122.5
 11
-26.0123
 21
-122.548
  0
LINE
  8
0
 10
-26.0123
 20
-122.548
 11
-25.5433
 21
-122.69
  0
LINE
  8
0
 10
-25.5433
 20
-122.69
 11
-25.1111
 21
-122.921
  0
LINE
  8
0
 10
-25.1111
 20
-122.921
 11
-24.7322
 21
-123.232
  0
LINE
  8
0
 10
-24.7322
 20
-123.232
 11
-24.4213
 21
-123.611
  0
LINE
  8
0
 10
-24.4213
 20
-123.611
 11
-24.1903
 21
-124.043
  0
LINE
  8
0
 10
-24.1903
 20
-124.043
 11
-24.048
 21
-124.512
  0
LINE
  8
0
 10
-24.048
 20
-124.512
 11
-24
 21
-125
  0
LINE
  8
0
 10
-24
 20
-125
 11
-24.048
 21
-125.488
  0
LINE
  8
0
 10
-24.048
 20
-125.488
 11
-24.1903
 21
-125.957
  0
LINE
  8
0
 10
-24.1903
 20
-125.957
 11
-24.4213
 21
-126.389
  0
LINE
  8
0
 10
-24.4213
 20
-126.389
 11
-24.7322
 21
-126.768
  0
LINE
  8
0
 10
-24.7322
 20
-126.768
 11
-25.1111
 21
-127.079
  0
LINE
  8
0
 10
-25.1111
 20
-127.079
 11
-25.5433
 21
-127.31
  0
LINE
  8
0
 10
-25.5433
 20
-127.31
 11
-26.0123
 21
-127.452
  0
LINE
  8
0
 10
-26.0123
 20
-127.452
 11
-26.5
 21
-127.5
  0
LINE
  8
0
 10
-26.5
 20
-127.5
 11
-26.9877
 21
-127.452
  0
LINE
  8
0
 10
-0.487717
 20
-127.452
 11
-0.956696
 21
-127.31
  0
LINE
  8
0
 10
-0.956696
 20
-127.31
 11
-1.38892
 21
-127.079
  0
LINE
  8
0
 10
-1.38892
 20
-127.079
 11
-1.76776
 21
-126.768
  0
LINE
  8
0
 10
-1.76776
 20
-126.768
 11
-2.07866
 21
-126.389
  0
LINE
  8
0
 10
-2.07866
 20
-126.389
 11
-2.30969
 21
-125.957
  0
LINE
  8
0
 10
-2.30969
 20
-125.957
 11
-2.45195
 21
-125.488
  0
LINE
  8
0
 10
-2.45195
 20
-125.488
 11
-2.49998
 21
-125
  0
LINE
  8
0
 10
-2.49998
 20
-125
 11
-2.45195
 21
-124.512
  0
LINE
  8
0
 10
-2.45195
 20
-124.512
 11
-2.30969
 21
-124.043
  0
LINE
  8
0
 10
-2.30969
 20
-124.043
 11
-2.07866
 21
-123.611
  0
LINE
  8
0
 10
-2.07866
 20
-123.611
 11
-1.76776
 21
-123.232
  0
LINE
  8
0
 10
-1.76776
 20
-123.232
 11
-1.38892
 21
-122.921
  0
LINE
  8
0
 10
-1.38892
 20
-122.921
 11
-0.956696
 21
-122.69
  0
LINE
  8
0
 10
-0.956696
 20
-122.69
 11
-0.487717
 21
-122.548
  0
LINE
  8
0
 10
-0.487717
 20
-122.548
 11
0
 21
-122.5
  0
LINE
  8
0
 10
0
 20
-122.5
 11
0.487717
 21
-122.548
  0
LINE
  8
0
 10
0.487717
 20
-122.548
 11
0.956696
 21
-122.69
  0
LINE
  8
0
 10
0.956696
 20
-122.69
 11
1.38892
 21
-122.921
  0
LINE
  8
0
 10
1.38892
 20
-122.921
 11
1.76776
 21
-123.232
  0
LINE
  8
0
 10
1.76776
 20
-123.232
 11
2.07866
 21
-123.611
  0
LINE
  8
0
 10
2.07866
 20
-123.611
 11
2.30969
 21
-124.043
  0
LINE
  8
0
 10
2.30969
 20
-124.043
 11
2.45195
 21
-124.512
  0
LINE
  8
0
 10
2.45195
 20
-124.512
 11
2.49998
 21
-125
  0
LINE
  8
0
 10
2.49998
 20
-125
 11
2.45195
 21
-125.488
  0
LINE
  8
0
 10
2.45195
 20
-125.488
 11
2.30969
 21
-125.957
  0
LINE
  8
0
 10
2.30969
 20
-125.957
 11
2.07866
 21
-126.389
  0
LINE
  8
0
 10
2.07866
 20
-126.389
 11
1.76776
 21
-126.768
  0
LINE
  8
0
 10
1.76776
 20
-126.768
 11
1.38892
 21
-127.079
  0
LINE
  8
0
 10
1.38892
 20
-127.079
 11
0.956696
 21
-127.31
  0
LINE
  8
0
 10
0.956696
 20
-127.31
 11
0.487717
 21
-127.452
  0
LINE
  8
0
 10
0.487717
 20
-127.452
 11
0
 21
-127.5
  0
LINE
  8
0
 10
0
 20
-127.5
 11
-0.487717
 21
-127.452
  0
LINE
  8
0
 10
-29.7
 20
-147.45
 11
-29.7
 21
-132.55
  0
LINE
  8
0
 10
-29.7
 20
-132.55
 11
-23.3
 21
-132.55
  0
LINE
  8
0
 10
-23.3
 20
-132.55
 11
-23.3
 21
-147.45
  0
LINE
  8
0
 10
-23.3
 20
-147.45
 11
-29.7
 21
-147.45
  0
LINE
  8
0
 10
-3.2
 20
-147.45
 11
-3.2
 21
-132.55
  0
LINE
  8
0
 10
-3.2
 20
-132.55
 11
3.2
 21
-132.55
  0
LINE
  8
0
 10
3.2
 20
-132.55
 11
3.2
 21
-147.45
  0
LINE
  8
0
 10
3.2
 20
-147.45
 11
-3.2
 21
-147.45
  0
LINE
  8
0
 10
-37.7377
 20
-197.452
 11
-38.2067
 21
-197.31
  0
LINE
  8
0
 10
-38.2067
 20
-197.31
 11
-38.6389
 21
-197.079
  0
LINE
  8
0
 10
-38.6389
 20
-197.079
 11
-39.0178
 21
-196.768
  0
LINE
  8
0
 10
-39.0178
 20
-196.768
 11
-39.3287
 21
-196.389
  0
LINE
  8
0
 10
-39.3287
 20
-196.389
 11
-39.5597
 21
-195.957
  0
LINE
  8
0
 10
-39.5597
 20
-195.957
 11
-39.702
 21
-195.488
  0
LINE
  8
0
 10
-39.702
 20
-195.488
 11
-39.75
 21
-195
  0
LINE
  8
0
 10
-39.75
 20
-195
 11
-39.702
 21
-194.512
  0
LINE
  8
0
 10
-39.702
 20
-194.512
 11
-39.5597
 21
-194.043
  0
LINE
  8
0
 10
-39.5597
 20
-194.043
 11
-39.3287
 21
-193.611
  0
LINE
  8
0
 10
-39.3287
 20
-193.611
 11
-39.0178
 21
-193.232
  0
LINE
  8
0
 10
-39.0178
 20
-193.232
 11
-38.6389
 21
-192.921
  0
LINE
  8
0
 10
-38.6389
 20
-192.921
 11
-38.2067
 21
-192.69
  0
LINE
  8
0
 10
-38.2067
 20
-192.69
 11
-37.7377
 21
-192.548
  0
LINE
  8
0
 10
-37.7377
 20
-192.548
 11
-37.25
 21
-192.5
  0
LINE
  8
0
 10
-37.25
 20
-192.5
 11
-36.7623
 21
-192.548
  0
LINE
  8
0
 10
-36.7623
 20
-192.548
 11
-36.2933
 21
-192.69
  0
LINE
  8
0
 10
-36.2933
 20
-192.69
 11
-35.8611
 21
-192.921
  0
LINE
  8
0
 10
-35.8611
 20
-192.921
 11
-35.4822
 21
-193.232
  0
LINE
  8
0
 10
-35.4822
 20
-193.232
 11
-35.1713
 21
-193.611
  0
LINE
  8
0
 10
-35.1713
 20
-193.611
 11
-34.9403
 21
-194.043
  0
LINE
  8
0
 10
-34.9403
 20
-194.043
 11
-34.798
 21
-194.512
  0
LINE
  8
0
 10
-34.798
 20
-194.512
 11
-34.75
 21
-195
  0
LINE
  8
0
 10
-34.75
 20
-195
 11
-34.798
 21
-195.488
  0
LINE
  8
0
 10
-34.798
 20
-195.488
 11
-34.9403
 21
-195.957
  0
LINE
  8
0
 10
-34.9403
 20
-195.957
 11
-35.1713
 21
-196.389
  0
LINE
  8
0
 10
-35.1713
 20
-196.389
 11
-35.4822
 21
-196.768
  0
LINE
  8
0
 10
-35.4822
 20
-196.768
 11
-35.8611
 21
-197.079
  0
LINE
  8
0
 10
-35.8611
 20
-197.079
 11
-36.2933
 21
-197.31
  0
LINE
  8
0
 10
-36.2933
 20
-197.31
 11
-36.7623
 21
-197.452
  0
LINE
  8
0
 10
-36.7623
 20
-197.452
 11
-37.25
 21
-197.5
  0
LINE
  8
0
 10
-37.25
 20
-197.5
 11
-37.7377
 21
-197.452
  0
LINE
  8
0
 10
-10.2377
 20
-197.452
 11
-10.7067
 21
-197.31
  0
LINE
  8
0
 10
-10.7067
 20
-197.31
 11
-11.1389
 21
-197.079
  0
LINE
  8
0
 10
-11.1389
 20
-197.079
 11
-11.5178
 21
-196.768
  0
LINE
  8
0
 10
-11.5178
 20
-196.768
 11
-11.8287
 21
-196.389
  0
LINE
  8
0
 10
-11.8287
 20
-196.389
 11
-12.0597
 21
-195.957
  0
LINE
  8
0
 10
-12.0597
 20
-195.957
 11
-12.202
 21
-195.488
  0
LINE
  8
0
 10
-12.202
 20
-195.488
 11
-12.25
 21
-195
  0
LINE
  8
0
 10
-12.25
 20
-195
 11
-12.202
 21
-194.512
  0
LINE
  8
0
 10
-12.202
 20
-194.512
 11
-12.0597
 21
-194.043
  0
LINE
  8
0
 10
-12.0597
 20
-194.043
 11
-11.8287
 21
-193.611
  0
LINE
  8
0
 10
-11.8287
 20
-193.611
 11
-11.5178
 21
-193.232
  0
LINE
  8
0
 10
-11.5178
 20
-193.232
 11
-11.1389
 21
-192.921
  0
LINE
  8
0
 10
-11.1389
 20
-192.921
 11
-10.7067
 21
-192.69
  0
LINE
  8
0
 10
-10.7067
 20
-192.69
 11
-10.2377
 21
-192.548
  0
LINE
  8
0
 10
-10.2377
 20
-192.548
 11
-9.75
 21
-192.5
  0
LINE
  8
0
 10
-9.75
 20
-192.5
 11
-9.26227
 21
-192.548
  0
LINE
  8
0
 10
-9.26227
 20
-192.548
 11
-8.79329
 21
-192.69
  0
LINE
  8
0
 10
-8.79329
 20
-192.69
 11
-8.36107
 21
-192.921
  0
LINE
  8
0
 10
-8.36107
 20
-192.921
 11
-7.98222
 21
-193.232
  0
LINE
  8
0
 10
-7.98222
 20
-193.232
 11
-7.67133
 21
-193.611
  0
LINE
  8
0
 10
-7.67133
 20
-193.611
 11
-7.44029
 21
-194.043
  0
LINE
  8
0
 10
-7.44029
 20
-194.043
 11
-7.29803
 21
-194.512
  0
LINE
  8
0
 10
-7.29803
 20
-194.512
 11
-7.25
 21
-195
  0
LINE
  8
0
 10
-7.25
 20
-195
 11
-7.29803
 21
-195.488
  0
LINE
  8
0
 10
-7.29803
 20
-195.488
 11
-7.44029
 21
-195.957
  0
LINE
  8
0
 10
-7.44029
 20
-195.957
 11
-7.67133
 21
-196.389
  0
LINE
  8
0
 10
-7.67133
 20
-196.389
 11
-7.98222
 21
-196.768
  0
LINE
  8
0
 10
-7.98222
 20
-196.768
 11
-8.36107
 21
-197.079
  0
LINE
  8
0
 10
-8.36107
 20
-197.079
 11
-8.79329
 21
-197.31
  0
LINE
  8
0
 10
-8.79329
 20
-197.31
 11
-9.26227
 21
-197.452
  0
LINE
  8
0
 10
-9.26227
 20
-197.452
 11
-9.75
 21
-197.5
  0
LINE
  8
0
 10
-9.75
 20
-197.5
 11
-10.2377
 21
-197.452
  0
LINE
  8
0
 10
-37.7377
 20
-217.452
 11
-38.2067
 21
-217.31
  0
LINE
  8
0
 10
-38.2067
 20
-217.31
 11
-38.6389
 21
-217.079
  0
LINE
  8
0
 10
-38.6389
 20
-217.079
 11
-39.0178
 21
-216.768
  0
LINE
  8
0
 10
-39.0178
 20
-216.768
 11
-39.3287
 21
-216.389
  0
LINE
  8
0
 10
-39.3287
 20
-216.389
 11
-39.5597
 21
-215.957
  0
LINE
  8
0
 10
-39.5597
 20
-215.957
 11
-39.702
 21
-215.488
  0
LINE
  8
0
 10
-39.702
 20
-215.488
 11
-39.75
 21
-215
  0
LINE
  8
0
 10
-39.75
 20
-215
 11
-39.702
 21
-214.512
  0
LINE
  8
0
 10
-39.702
 20
-214.512
 11
-39.5597
 21
-214.043
  0
LINE
  8
0
 10
-39.5597
 20
-214.043
 11
-39.3287
 21
-213.611
  0
LINE
  8
0
 10
-39.3287
 20
-213.611
 11
-39.0178
 21
-213.232
  0
LINE
  8
0
 10
-39.0178
 20
-213.232
 11
-38.6389
 21
-212.921
  0
LINE
  8
0
 10
-38.6389
 20
-212.921
 11
-38.2067
 21
-212.69
  0
LINE
  8
0
 10
-38.2067
 20
-212.69
 11
-37.7377
 21
-212.548
  0
LINE
  8
0
 10
-37.7377
 20
-212.548
 11
-37.25
 21
-212.5
  0
LINE
  8
0
 10
-37.25
 20
-212.5
 11
-36.7623
 21
-212.548
  0
LINE
  8
0
 10
-36.7623
 20
-212.548
 11
-36.2933
 21
-212.69
  0
LINE
  8
0
 10
-36.2933
 20
-212.69
 11
-35.8611
 21
-212.921
  0
LINE
  8
0
 10
-35.8611
 20
-212.921
 11
-35.4822
 21
-213.232
  0
LINE
  8
0
 10
-35.4822
 20
-213.232
 11
-35.1713
 21
-213.611
  0
LINE
  8
0
 10
-35.1713
 20
-213.611
 11
-34.9403
 21
-214.043
  0
LINE
  8
0
 10
-34.9403
 20
-214.043
 11
-34.798
 21
-214.512
  0
LINE
  8
0
 10
-34.798
 20
-214.512
 11
-34.75
 21
-215
  0
LINE
  8
0
 10
-34.75
 20
-215
 11
-34.798
 21
-215.488
  0
LINE
  8
0
 10
-34.798
 20
-215.488
 11
-34.9403
 21
-215.957
  0
LINE
  8
0
 10
-34.9403
 20
-215.957
 11
-35.1713
 21
-216.389
  0
LINE
  8
0
 10
-35.1713
 20
-216.389
 11
-35.4822
 21
-216.768
  0
LINE
  8
0
 10
-35.4822
 20
-216.768
 11
-35.8611
 21
-217.079
  0
LINE
  8
0
 10
-35.8611
 20
-217.079
 11
-36.2933
 21
-217.31
  0
LINE
  8
0
 10
-36.2933
 20
-217.31
 11
-36.7623
 21
-217.452
  0
LINE
  8
0
 10
-36.7623
 20
-217.452
 11
-37.25
 21
-217.5
  0
LINE
  8
0
 10
-37.25
 20
-217.5
 11
-37.7377
 21
-217.452
  0
LINE
  8
0
 10
-10.2377
 20
-217.452
 11
-10.7067
 21
-217.31
  0
LINE
  8
0
 10
-10.7067
 20
-217.31
 11
-11.1389
 21
-217.079
  0
LINE
  8
0
 10
-11.1389
 20
-217.079
 11
-11.5178
 21
-216.768
  0
LINE
  8
0
 10
-11.5178
 20
-216.768
 11
-11.8287
 21
-216.389
  0
LINE
  8
0
 10
-11.8287
 20
-216.389
 11
-12.0597
 21
-215.957
  0
LINE
  8
0
 10
-12.0597
 20
-215.957
 11
-12.202
 21
-215.488
  0
LINE
  8
0
 10
-12.202
 20
-215.488
 11
-12.25
 21
-215
  0
LINE
  8
0
 10
-12.25
 20
-215
 11
-12.202
 21
-214.512
  0
LINE
  8
0
 10
-12.202
 20
-214.512
 11
-12.0597
 21
-214.043
  0
LINE
  8
0
 10
-12.0597
 20
-214.043
 11
-11.8287
 21
-213.611
  0
LINE
  8
0
 10
-11.8287
 20
-213.611
 11
-11.5178
 21
-213.232
  0
LINE
  8
0
 10
-11.5178
 20
-213.232
 11
-11.1389
 21
-212.921
  0
LINE
  8
0
 10
-11.1389
 20
-212.921
 11
-10.7067
 21
-212.69
  0
LINE
  8
0
 10
-10.7067
 20
-212.69
 11
-10.2377
 21
-212.548
  0
LINE
  8
0
 10
-10.2377
 20
-212.548
 11
-9.75
 21
-212.5
  0
LINE
  8
0
 10
-9.75
 20
-212.5
 11
-9.26227
 21
-212.548
  0
LINE
  8
0
 10
-9.26227
 20
-212.548
 11
-8.79329
 21
-212.69
  0
LINE
  8
0
 10
-8.79329
 20
-212.69
 11
-8.36107
 21
-212.921
  0
LINE
  8
0
 10
-8.36107
 20
-212.921
 11
-7.98222
 21
-213.232
  0
LINE
  8
0
 10
-7.98222
 20
-213.232
 11
-7.67133
 21
-213.611
  0
LINE
  8
0
 10
-7.67133
 20
-213.611
 11
-7.44029
 21
-214.043
  0
LINE
  8
0
 10
-7.44029
 20
-214.043
 11
-7.29803
 21
-214.512
  0
LINE
  8
0
 10
-7.29803
 20
-214.512
 11
-7.25
 21
-215
  0
LINE
  8
0
 10
-7.25
 20
-215
 11
-7.29803
 21
-215.488
  0
LINE
  8
0
 10
-7.29803
 20
-215.488
 11
-7.44029
 21
-215.957
  0
LINE
  8
0
 10
-7.44029
 20
-215.957
 11
-7.67133
 21
-216.389
  0
LINE
  8
0
 10
-7.67133
 20
-216.389
 11
-7.98222
 21
-216.768
  0
LINE
  8
0
 10
-7.98222
 20
-216.768
 11
-8.36107
 21
-217.079
  0
LINE
  8
0
 10
-8.36107
 20
-217.079
 11
-8.79329
 21
-217.31
  0
LINE
  8
0
 10
-8.79329
 20
-217.31
 11
-9.26227
 21
-217.452
  0
LINE
  8
0
 10
-9.26227
 20
-217.452
 11
-9.75
 21
-217.5
  0
LINE
  8
0
 10
-9.75
 20
-217.5
 11
-10.2377
 21
-217.452
  0
LINE
  8
0
 10
-12.7
 20
-231.45
 11
-12.7
 21
-225.05
  0
LINE
  8
0
 10
-12.7
 20
-225.05
 11
2.2
 21
-225.05
  0
LINE
  8
0
 10
2.2
 20
-225.05
 11
2.2
 21
-231.45
  0
LINE
  8
0
 10
2.2
 20
-231.45
 11
-12.7
 21
-231.45
  0
LINE
  8
0
 10
-42.7
 20
-231.45
 11
-42.7
 21
-225.05
  0
LINE
  8
0
 10
-42.7
 20
-225.05
 11
-27.8
 21
-225.05
  0
LINE
  8
0
 10
-27.8
 20
-225.05
 11
-27.8
 21
-231.45
  0
LINE
  8
0
 10
-27.8
 20
-231.45
 11
-42.7
 21
-231.45
  0
LINE
  8
0
 10
-20.25
 20
-230.75
 11
-20.7377
 21
-230.702
  0
LINE
  8
0
 10
-20.7377
 20
-230.702
 11
-21.2067
 21
-230.56
  0
LINE
  8
0
 10
-21.2067
 20
-230.56
 11
-21.6389
 21
-230.329
  0
LINE
  8
0
 10
-21.6389
 20
-230.329
 11
-22.0178
 21
-230.018
  0
LINE
  8
0
 10
-22.0178
 20
-230.018
 11
-22.3287
 21
-229.639
  0
LINE
  8
0
 10
-22.3287
 20
-229.639
 11
-22.5597
 21
-229.207
  0
LINE
  8
0
 10
-22.5597
 20
-229.207
 11
-22.702
 21
-228.738
  0
LINE
  8
0
 10
-22.702
 20
-228.738
 11
-22.75
 21
-228.25
  0
LINE
  8
0
 10
-22.75
 20
-228.25
 11
-22.702
 21
-227.762
  0
LINE
  8
0
 10
-22.702
 20
-227.762
 11
-22.5597
 21
-227.293
  0
LINE
  8
0
 10
-22.5597
 20
-227.293
 11
-22.3287
 21
-226.861
  0
LINE
  8
0
 10
-22.3287
 20
-226.861
 11
-22.0178
 21
-226.482
  0
LINE
  8
0
 10
-22.0178
 20
-226.482
 11
-21.6389
 21
-226.171
  0
LINE
  8
0
 10
-21.6389
 20
-226.171
 11
-21.2067
 21
-225.94
  0
LINE
  8
0
 10
-21.2067
 20
-225.94
 11
-20.7377
 21
-225.798
  0
LINE
  8
0
 10
-20.7377
 20
-225.798
 11
-20.25
 21
-225.75
  0
LINE
  8
0
 10
-20.25
 20
-225.75
 11
-19.7623
 21
-225.798
  0
LINE
  8
0
 10
-19.7623
 20
-225.798
 11
-19.2933
 21
-225.94
  0
LINE
  8
0
 10
-19.2933
 20
-225.94
 11
-18.8611
 21
-226.171
  0
LINE
  8
0
 10
-18.8611
 20
-226.171
 11
-18.4822
 21
-226.482
  0
LINE
  8
0
 10
-18.4822
 20
-226.482
 11
-18.1713
 21
-226.861
  0
LINE
  8
0
 10
-18.1713
 20
-226.861
 11
-17.9403
 21
-227.293
  0
LINE
  8
0
 10
-17.9403
 20
-227.293
 11
-17.798
 21
-227.762
  0
LINE
  8
0
 10
-17.798
 20
-227.762
 11
-17.75
 21
-228.25
  0
LINE
  8
0
 10
-17.75
 20
-228.25
 11
-17.798
 21
-228.738
  0
LINE
  8
0
 10
-17.798
 20
-228.738
 11
-17.9403
 21
-229.207
  0
LINE
  8
0
 10
-17.9403
 20
-229.207
 11
-18.1713
 21
-229.639
  0
LINE
  8
0
 10
-18.1713
 20
-229.639
 11
-18.4822
 21
-230.018
  0
LINE
  8
0
 10
-18.4822
 20
-230.018
 11
-18.8611
 21
-230.329
  0
LINE
  8
0
 10
-18.8611
 20
-230.329
 11
-19.2933
 21
-230.56
  0
LINE
  8
0
 10
-19.2933
 20
-230.56
 11
-19.7623
 21
-230.702
  0
LINE
  8
0
 10
-19.7623
 20
-230.702
 11
-20.25
 21
-230.75
  0
ENDSEC
  0
SECTION
  2
OBJECTS
  0
DICTIONARY
  0
ENDSEC
  0
EOF
