  0
SECTION
  2
BLOCKS
  0
ENDSEC
  0
SECTION
  2
ENTITIES
  0
LINE
  8
0
 10
9.75
 20
210
 11
2.25
 21
210
  0
LINE
  8
0
 10
2.25
 20
210
 11
2.25
 21
214.875
  0
LINE
  8
0
 10
2.25
 20
214.875
 11
0.625
 21
216.5
  0
LINE
  8
0
 10
0.625
 20
216.5
 11
-11.125
 21
216.5
  0
LINE
  8
0
 10
-11.125
 20
216.5
 11
-12.75
 21
214.875
  0
LINE
  8
0
 10
-12.75
 20
214.875
 11
-12.75
 21
210
  0
LINE
  8
0
 10
-12.75
 20
210
 11
-17.8
 21
210
  0
LINE
  8
0
 10
-17.8
 20
210
 11
-17.8
 21
203.1
  0
LINE
  8
0
 10
-17.8
 20
203.1
 11
-15.905
 21
203.1
  0
LINE
  8
0
 10
-15.905
 20
203.1
 11
-15.905
 21
197.4
  0
LINE
  8
0
 10
-15.905
 20
197.4
 11
-17.8
 21
197.4
  0
LINE
  8
0
 10
-17.8
 20
197.4
 11
-17.8
 21
190.5
  0
LINE
  8
0
 10
-17.8
 20
190.5
 11
-22.7
 21
190.5
  0
LINE
  8
0
 10
-22.7
 20
190.5
 11
-22.7
 21
197.4
  0
LINE
  8
0
 10
-22.7
 20
197.4
 11
-24.595
 21
197.4
  0
LINE
  8
0
 10
-24.595
 20
197.4
 11
-24.595
 21
203.1
  0
LINE
  8
0
 10
-24.595
 20
203.1
 11
-22.7
 21
203.1
  0
LINE
  8
0
 10
-22.7
 20
203.1
 11
-22.7
 21
210
  0
LINE
  8
0
 10
-22.7
 20
210
 11
-27.75
 21
210
  0
LINE
  8
0
 10
-27.75
 20
210
 11
-27.75
 21
214.875
  0
LINE
  8
0
 10
-27.75
 20
214.875
 11
-29.375
 21
216.5
  0
LINE
  8
0
 10
-29.375
 20
216.5
 11
-41.125
 21
216.5
  0
LINE
  8
0
 10
-41.125
 20
216.5
 11
-42.75
 21
214.875
  0
LINE
  8
0
 10
-42.75
 20
214.875
 11
-42.75
 21
210
  0
LINE
  8
0
 10
-42.75
 20
210
 11
-50.25
 21
210
  0
LINE
  8
0
 10
-50.25
 20
210
 11
-50.25
 21
-270
  0
LINE
  8
0
 10
-50.25
 20
-270
 11
9.75
 21
-270
  0
LINE
  8
0
 10
9.75
 20
-270
 11
9.75
 21
210
  0
LINE
  8
0
 10
-37.7377
 20
197.548
 11
-38.2067
 21
197.69
  0
LINE
  8
0
 10
-38.2067
 20
197.69
 11
-38.6389
 21
197.921
  0
LINE
  8
0
 10
-38.6389
 20
197.921
 11
-39.0178
 21
198.232
  0
LINE
  8
0
 10
-39.0178
 20
198.232
 11
-39.3287
 21
198.611
  0
LINE
  8
0
 10
-39.3287
 20
198.611
 11
-39.5597
 21
199.043
  0
LINE
  8
0
 10
-39.5597
 20
199.043
 11
-39.702
 21
199.512
  0
LINE
  8
0
 10
-39.702
 20
199.512
 11
-39.75
 21
200
  0
LINE
  8
0
 10
-39.75
 20
200
 11
-39.702
 21
200.488
  0
LINE
  8
0
 10
-39.702
 20
200.488
 11
-39.5597
 21
200.957
  0
LINE
  8
0
 10
-39.5597
 20
200.957
 11
-39.3287
 21
201.389
  0
LINE
  8
0
 10
-39.3287
 20
201.389
 11
-39.0178
 21
201.768
  0
LINE
  8
0
 10
-39.0178
 20
201.768
 11
-38.6389
 21
202.079
  0
LINE
  8
0
 10
-38.6389
 20
202.079
 11
-38.2067
 21
202.31
  0
LINE
  8
0
 10
-38.2067
 20
202.31
 11
-37.7377
 21
202.452
  0
LINE
  8
0
 10
-37.7377
 20
202.452
 11
-37.25
 21
202.5
  0
LINE
  8
0
 10
-37.25
 20
202.5
 11
-36.7623
 21
202.452
  0
LINE
  8
0
 10
-36.7623
 20
202.452
 11
-36.2933
 21
202.31
  0
LINE
  8
0
 10
-36.2933
 20
202.31
 11
-35.8611
 21
202.079
  0
LINE
  8
0
 10
-35.8611
 20
202.079
 11
-35.4822
 21
201.768
  0
LINE
  8
0
 10
-35.4822
 20
201.768
 11
-35.1713
 21
201.389
  0
LINE
  8
0
 10
-35.1713
 20
201.389
 11
-34.9403
 21
200.957
  0
LINE
  8
0
 10
-34.9403
 20
200.957
 11
-34.798
 21
200.488
  0
LINE
  8
0
 10
-34.798
 20
200.488
 11
-34.75
 21
200
  0
LINE
  8
0
 10
-34.75
 20
200
 11
-34.798
 21
199.512
  0
LINE
  8
0
 10
-34.798
 20
199.512
 11
-34.9403
 21
199.043
  0
LINE
  8
0
 10
-34.9403
 20
199.043
 11
-35.1713
 21
198.611
  0
LINE
  8
0
 10
-35.1713
 20
198.611
 11
-35.4822
 21
198.232
  0
LINE
  8
0
 10
-35.4822
 20
198.232
 11
-35.8611
 21
197.921
  0
LINE
  8
0
 10
-35.8611
 20
197.921
 11
-36.2933
 21
197.69
  0
LINE
  8
0
 10
-36.2933
 20
197.69
 11
-36.7623
 21
197.548
  0
LINE
  8
0
 10
-36.7623
 20
197.548
 11
-37.25
 21
197.5
  0
LINE
  8
0
 10
-37.25
 20
197.5
 11
-37.7377
 21
197.548
  0
LINE
  8
0
 10
-10.2377
 20
197.548
 11
-10.7067
 21
197.69
  0
LINE
  8
0
 10
-10.7067
 20
197.69
 11
-11.1389
 21
197.921
  0
LINE
  8
0
 10
-11.1389
 20
197.921
 11
-11.5178
 21
198.232
  0
LINE
  8
0
 10
-11.5178
 20
198.232
 11
-11.8287
 21
198.611
  0
LINE
  8
0
 10
-11.8287
 20
198.611
 11
-12.0597
 21
199.043
  0
LINE
  8
0
 10
-12.0597
 20
199.043
 11
-12.202
 21
199.512
  0
LINE
  8
0
 10
-12.202
 20
199.512
 11
-12.25
 21
200
  0
LINE
  8
0
 10
-12.25
 20
200
 11
-12.202
 21
200.488
  0
LINE
  8
0
 10
-12.202
 20
200.488
 11
-12.0597
 21
200.957
  0
LINE
  8
0
 10
-12.0597
 20
200.957
 11
-11.8287
 21
201.389
  0
LINE
  8
0
 10
-11.8287
 20
201.389
 11
-11.5178
 21
201.768
  0
LINE
  8
0
 10
-11.5178
 20
201.768
 11
-11.1389
 21
202.079
  0
LINE
  8
0
 10
-11.1389
 20
202.079
 11
-10.7067
 21
202.31
  0
LINE
  8
0
 10
-10.7067
 20
202.31
 11
-10.2377
 21
202.452
  0
LINE
  8
0
 10
-10.2377
 20
202.452
 11
-9.75
 21
202.5
  0
LINE
  8
0
 10
-9.75
 20
202.5
 11
-9.26227
 21
202.452
  0
LINE
  8
0
 10
-9.26227
 20
202.452
 11
-8.79329
 21
202.31
  0
LINE
  8
0
 10
-8.79329
 20
202.31
 11
-8.36107
 21
202.079
  0
LINE
  8
0
 10
-8.36107
 20
202.079
 11
-7.98222
 21
201.768
  0
LINE
  8
0
 10
-7.98222
 20
201.768
 11
-7.67133
 21
201.389
  0
LINE
  8
0
 10
-7.67133
 20
201.389
 11
-7.44029
 21
200.957
  0
LINE
  8
0
 10
-7.44029
 20
200.957
 11
-7.29803
 21
200.488
  0
LINE
  8
0
 10
-7.29803
 20
200.488
 11
-7.25
 21
200
  0
LINE
  8
0
 10
-7.25
 20
200
 11
-7.29803
 21
199.512
  0
LINE
  8
0
 10
-7.29803
 20
199.512
 11
-7.44029
 21
199.043
  0
LINE
  8
0
 10
-7.44029
 20
199.043
 11
-7.67133
 21
198.611
  0
LINE
  8
0
 10
-7.67133
 20
198.611
 11
-7.98222
 21
198.232
  0
LINE
  8
0
 10
-7.98222
 20
198.232
 11
-8.36107
 21
197.921
  0
LINE
  8
0
 10
-8.36107
 20
197.921
 11
-8.79329
 21
197.69
  0
LINE
  8
0
 10
-8.79329
 20
197.69
 11
-9.26227
 21
197.548
  0
LINE
  8
0
 10
-9.26227
 20
197.548
 11
-9.75
 21
197.5
  0
LINE
  8
0
 10
-9.75
 20
197.5
 11
-10.2377
 21
197.548
  0
LINE
  8
0
 10
-10.2377
 20
177.548
 11
-10.7067
 21
177.69
  0
LINE
  8
0
 10
-10.7067
 20
177.69
 11
-11.1389
 21
177.921
  0
LINE
  8
0
 10
-11.1389
 20
177.921
 11
-11.5178
 21
178.232
  0
LINE
  8
0
 10
-11.5178
 20
178.232
 11
-11.8287
 21
178.611
  0
LINE
  8
0
 10
-11.8287
 20
178.611
 11
-12.0597
 21
179.043
  0
LINE
  8
0
 10
-12.0597
 20
179.043
 11
-12.202
 21
179.512
  0
LINE
  8
0
 10
-12.202
 20
179.512
 11
-12.25
 21
180
  0
LINE
  8
0
 10
-12.25
 20
180
 11
-12.202
 21
180.488
  0
LINE
  8
0
 10
-12.202
 20
180.488
 11
-12.0597
 21
180.957
  0
LINE
  8
0
 10
-12.0597
 20
180.957
 11
-11.8287
 21
181.389
  0
LINE
  8
0
 10
-11.8287
 20
181.389
 11
-11.5178
 21
181.768
  0
LINE
  8
0
 10
-11.5178
 20
181.768
 11
-11.1389
 21
182.079
  0
LINE
  8
0
 10
-11.1389
 20
182.079
 11
-10.7067
 21
182.31
  0
LINE
  8
0
 10
-10.7067
 20
182.31
 11
-10.2377
 21
182.452
  0
LINE
  8
0
 10
-10.2377
 20
182.452
 11
-9.75
 21
182.5
  0
LINE
  8
0
 10
-9.75
 20
182.5
 11
-9.26227
 21
182.452
  0
LINE
  8
0
 10
-9.26227
 20
182.452
 11
-8.79329
 21
182.31
  0
LINE
  8
0
 10
-8.79329
 20
182.31
 11
-8.36107
 21
182.079
  0
LINE
  8
0
 10
-8.36107
 20
182.079
 11
-7.98222
 21
181.768
  0
LINE
  8
0
 10
-7.98222
 20
181.768
 11
-7.67133
 21
181.389
  0
LINE
  8
0
 10
-7.67133
 20
181.389
 11
-7.44029
 21
180.957
  0
LINE
  8
0
 10
-7.44029
 20
180.957
 11
-7.29803
 21
180.488
  0
LINE
  8
0
 10
-7.29803
 20
180.488
 11
-7.25
 21
180
  0
LINE
  8
0
 10
-7.25
 20
180
 11
-7.29803
 21
179.512
  0
LINE
  8
0
 10
-7.29803
 20
179.512
 11
-7.44029
 21
179.043
  0
LINE
  8
0
 10
-7.44029
 20
179.043
 11
-7.67133
 21
178.611
  0
LINE
  8
0
 10
-7.67133
 20
178.611
 11
-7.98222
 21
178.232
  0
LINE
  8
0
 10
-7.98222
 20
178.232
 11
-8.36107
 21
177.921
  0
LINE
  8
0
 10
-8.36107
 20
177.921
 11
-8.79329
 21
177.69
  0
LINE
  8
0
 10
-8.79329
 20
177.69
 11
-9.26227
 21
177.548
  0
LINE
  8
0
 10
-9.26227
 20
177.548
 11
-9.75
 21
177.5
  0
LINE
  8
0
 10
-9.75
 20
177.5
 11
-10.2377
 21
177.548
  0
LINE
  8
0
 10
-37.7377
 20
177.548
 11
-38.2067
 21
177.69
  0
LINE
  8
0
 10
-38.2067
 20
177.69
 11
-38.6389
 21
177.921
  0
LINE
  8
0
 10
-38.6389
 20
177.921
 11
-39.0178
 21
178.232
  0
LINE
  8
0
 10
-39.0178
 20
178.232
 11
-39.3287
 21
178.611
  0
LINE
  8
0
 10
-39.3287
 20
178.611
 11
-39.5597
 21
179.043
  0
LINE
  8
0
 10
-39.5597
 20
179.043
 11
-39.702
 21
179.512
  0
LINE
  8
0
 10
-39.702
 20
179.512
 11
-39.75
 21
180
  0
LINE
  8
0
 10
-39.75
 20
180
 11
-39.702
 21
180.488
  0
LINE
  8
0
 10
-39.702
 20
180.488
 11
-39.5597
 21
180.957
  0
LINE
  8
0
 10
-39.5597
 20
180.957
 11
-39.3287
 21
181.389
  0
LINE
  8
0
 10
-39.3287
 20
181.389
 11
-39.0178
 21
181.768
  0
LINE
  8
0
 10
-39.0178
 20
181.768
 11
-38.6389
 21
182.079
  0
LINE
  8
0
 10
-38.6389
 20
182.079
 11
-38.2067
 21
182.31
  0
LINE
  8
0
 10
-38.2067
 20
182.31
 11
-37.7377
 21
182.452
  0
LINE
  8
0
 10
-37.7377
 20
182.452
 11
-37.25
 21
182.5
  0
LINE
  8
0
 10
-37.25
 20
182.5
 11
-36.7623
 21
182.452
  0
LINE
  8
0
 10
-36.7623
 20
182.452
 11
-36.2933
 21
182.31
  0
LINE
  8
0
 10
-36.2933
 20
182.31
 11
-35.8611
 21
182.079
  0
LINE
  8
0
 10
-35.8611
 20
182.079
 11
-35.4822
 21
181.768
  0
LINE
  8
0
 10
-35.4822
 20
181.768
 11
-35.1713
 21
181.389
  0
LINE
  8
0
 10
-35.1713
 20
181.389
 11
-34.9403
 21
180.957
  0
LINE
  8
0
 10
-34.9403
 20
180.957
 11
-34.798
 21
180.488
  0
LINE
  8
0
 10
-34.798
 20
180.488
 11
-34.75
 21
180
  0
LINE
  8
0
 10
-34.75
 20
180
 11
-34.798
 21
179.512
  0
LINE
  8
0
 10
-34.798
 20
179.512
 11
-34.9403
 21
179.043
  0
LINE
  8
0
 10
-34.9403
 20
179.043
 11
-35.1713
 21
178.611
  0
LINE
  8
0
 10
-35.1713
 20
178.611
 11
-35.4822
 21
178.232
  0
LINE
  8
0
 10
-35.4822
 20
178.232
 11
-35.8611
 21
177.921
  0
LINE
  8
0
 10
-35.8611
 20
177.921
 11
-36.2933
 21
177.69
  0
LINE
  8
0
 10
-36.2933
 20
177.69
 11
-36.7623
 21
177.548
  0
LINE
  8
0
 10
-36.7623
 20
177.548
 11
-37.25
 21
177.5
  0
LINE
  8
0
 10
-37.25
 20
177.5
 11
-37.7377
 21
177.548
  0
LINE
  8
0
 10
-3.2
 20
117.55
 11
-3.2
 21
132.45
  0
LINE
  8
0
 10
-3.2
 20
132.45
 11
3.2
 21
132.45
  0
LINE
  8
0
 10
3.2
 20
132.45
 11
3.2
 21
117.55
  0
LINE
  8
0
 10
3.2
 20
117.55
 11
-3.2
 21
117.55
  0
LINE
  8
0
 10
-29.7
 20
117.55
 11
-29.7
 21
132.45
  0
LINE
  8
0
 10
-29.7
 20
132.45
 11
-23.3
 21
132.45
  0
LINE
  8
0
 10
-23.3
 20
132.45
 11
-23.3
 21
117.55
  0
LINE
  8
0
 10
-23.3
 20
117.55
 11
-29.7
 21
117.55
  0
LINE
  8
0
 10
-26.9877
 20
107.548
 11
-27.4567
 21
107.69
  0
LINE
  8
0
 10
-27.4567
 20
107.69
 11
-27.8889
 21
107.921
  0
LINE
  8
0
 10
-27.8889
 20
107.921
 11
-28.2678
 21
108.232
  0
LINE
  8
0
 10
-28.2678
 20
108.232
 11
-28.5787
 21
108.611
  0
LINE
  8
0
 10
-28.5787
 20
108.611
 11
-28.8097
 21
109.043
  0
LINE
  8
0
 10
-28.8097
 20
109.043
 11
-28.952
 21
109.512
  0
LINE
  8
0
 10
-28.952
 20
109.512
 11
-29
 21
110
  0
LINE
  8
0
 10
-29
 20
110
 11
-28.952
 21
110.488
  0
LINE
  8
0
 10
-28.952
 20
110.488
 11
-28.8097
 21
110.957
  0
LINE
  8
0
 10
-28.8097
 20
110.957
 11
-28.5787
 21
111.389
  0
LINE
  8
0
 10
-28.5787
 20
111.389
 11
-28.2678
 21
111.768
  0
LINE
  8
0
 10
-28.2678
 20
111.768
 11
-27.8889
 21
112.079
  0
LINE
  8
0
 10
-27.8889
 20
112.079
 11
-27.4567
 21
112.31
  0
LINE
  8
0
 10
-27.4567
 20
112.31
 11
-26.9877
 21
112.452
  0
LINE
  8
0
 10
-26.9877
 20
112.452
 11
-26.5
 21
112.5
  0
LINE
  8
0
 10
-26.5
 20
112.5
 11
-26.0123
 21
112.452
  0
LINE
  8
0
 10
-26.0123
 20
112.452
 11
-25.5433
 21
112.31
  0
LINE
  8
0
 10
-25.5433
 20
112.31
 11
-25.1111
 21
112.079
  0
LINE
  8
0
 10
-25.1111
 20
112.079
 11
-24.7322
 21
111.768
  0
LINE
  8
0
 10
-24.7322
 20
111.768
 11
-24.4213
 21
111.389
  0
LINE
  8
0
 10
-24.4213
 20
111.389
 11
-24.1903
 21
110.957
  0
LINE
  8
0
 10
-24.1903
 20
110.957
 11
-24.048
 21
110.488
  0
LINE
  8
0
 10
-24.048
 20
110.488
 11
-24
 21
110
  0
LINE
  8
0
 10
-24
 20
110
 11
-24.048
 21
109.512
  0
LINE
  8
0
 10
-24.048
 20
109.512
 11
-24.1903
 21
109.043
  0
LINE
  8
0
 10
-24.1903
 20
109.043
 11
-24.4213
 21
108.611
  0
LINE
  8
0
 10
-24.4213
 20
108.611
 11
-24.7322
 21
108.232
  0
LINE
  8
0
 10
-24.7322
 20
108.232
 11
-25.1111
 21
107.921
  0
LINE
  8
0
 10
-25.1111
 20
107.921
 11
-25.5433
 21
107.69
  0
LINE
  8
0
 10
-25.5433
 20
107.69
 11
-26.0123
 21
107.548
  0
LINE
  8
0
 10
-26.0123
 20
107.548
 11
-26.5
 21
107.5
  0
LINE
  8
0
 10
-26.5
 20
107.5
 11
-26.9877
 21
107.548
  0
LINE
  8
0
 10
-0.487717
 20
107.548
 11
-0.956696
 21
107.69
  0
LINE
  8
0
 10
-0.956696
 20
107.69
 11
-1.38892
 21
107.921
  0
LINE
  8
0
 10
-1.38892
 20
107.921
 11
-1.76776
 21
108.232
  0
LINE
  8
0
 10
-1.76776
 20
108.232
 11
-2.07866
 21
108.611
  0
LINE
  8
0
 10
-2.07866
 20
108.611
 11
-2.30969
 21
109.043
  0
LINE
  8
0
 10
-2.30969
 20
109.043
 11
-2.45195
 21
109.512
  0
LINE
  8
0
 10
-2.45195
 20
109.512
 11
-2.49998
 21
110
  0
LINE
  8
0
 10
-2.49998
 20
110
 11
-2.45195
 21
110.488
  0
LINE
  8
0
 10
-2.45195
 20
110.488
 11
-2.30969
 21
110.957
  0
LINE
  8
0
 10
-2.30969
 20
110.957
 11
-2.07866
 21
111.389
  0
LINE
  8
0
 10
-2.07866
 20
111.389
 11
-1.76776
 21
111.768
  0
LINE
  8
0
 10
-1.76776
 20
111.768
 11
-1.38892
 21
112.079
  0
LINE
  8
0
 10
-1.38892
 20
112.079
 11
-0.956696
 21
112.31
  0
LINE
  8
0
 10
-0.956696
 20
112.31
 11
-0.487717
 21
112.452
  0
LINE
  8
0
 10
-0.487717
 20
112.452
 11
0
 21
112.5
  0
LINE
  8
0
 10
0
 20
112.5
 11
0.487717
 21
112.452
  0
LINE
  8
0
 10
0.487717
 20
112.452
 11
0.956696
 21
112.31
  0
LINE
  8
0
 10
0.956696
 20
112.31
 11
1.38892
 21
112.079
  0
LINE
  8
0
 10
1.38892
 20
112.079
 11
1.76776
 21
111.768
  0
LINE
  8
0
 10
1.76776
 20
111.768
 11
2.07866
 21
111.389
  0
LINE
  8
0
 10
2.07866
 20
111.389
 11
2.30969
 21
110.957
  0
LINE
  8
0
 10
2.30969
 20
110.957
 11
2.45195
 21
110.488
  0
LINE
  8
0
 10
2.45195
 20
110.488
 11
2.49998
 21
110
  0
LINE
  8
0
 10
2.49998
 20
110
 11
2.45195
 21
109.512
  0
LINE
  8
0
 10
2.45195
 20
109.512
 11
2.30969
 21
109.043
  0
LINE
  8
0
 10
2.30969
 20
109.043
 11
2.07866
 21
108.611
  0
LINE
  8
0
 10
2.07866
 20
108.611
 11
1.76776
 21
108.232
  0
LINE
  8
0
 10
1.76776
 20
108.232
 11
1.38892
 21
107.921
  0
LINE
  8
0
 10
1.38892
 20
107.921
 11
0.956696
 21
107.69
  0
LINE
  8
0
 10
0.956696
 20
107.69
 11
0.487717
 21
107.548
  0
LINE
  8
0
 10
0.487717
 20
107.548
 11
0
 21
107.5
  0
LINE
  8
0
 10
0
 20
107.5
 11
-0.487717
 21
107.548
  0
LINE
  8
0
 10
-29.7
 20
87.55
 11
-29.7
 21
102.45
  0
LINE
  8
0
 10
-29.7
 20
102.45
 11
-23.3
 21
102.45
  0
LINE
  8
0
 10
-23.3
 20
102.45
 11
-23.3
 21
87.55
  0
LINE
  8
0
 10
-23.3
 20
87.55
 11
-29.7
 21
87.55
  0
LINE
  8
0
 10
-3.2
 20
87.55
 11
-3.2
 21
102.45
  0
LINE
  8
0
 10
-3.2
 20
102.45
 11
3.2
 21
102.45
  0
LINE
  8
0
 10
3.2
 20
102.45
 11
3.2
 21
87.55
  0
LINE
  8
0
 10
3.2
 20
87.55
 11
-3.2
 21
87.55
  0
LINE
  8
0
 10
-29.7
 20
-102.45
 11
-29.7
 21
-87.55
  0
LINE
  8
0
 10
-29.7
 20
-87.55
 11
-23.3
 21
-87.55
  0
LINE
  8
0
 10
-23.3
 20
-87.55
 11
-23.3
 21
-102.45
  0
LINE
  8
0
 10
-23.3
 20
-102.45
 11
-29.7
 21
-102.45
  0
LINE
  8
0
 10
-3.2
 20
-102.45
 11
-3.2
 21
-87.55
  0
LINE
  8
0
 10
-3.2
 20
-87.55
 11
3.2
 21
-87.55
  0
LINE
  8
0
 10
3.2
 20
-87.55
 11
3.2
 21
-102.45
  0
LINE
  8
0
 10
3.2
 20
-102.45
 11
-3.2
 21
-102.45
  0
LINE
  8
0
 10
-26.9877
 20
-112.452
 11
-27.4567
 21
-112.31
  0
LINE
  8
0
 10
-27.4567
 20
-112.31
 11
-27.8889
 21
-112.079
  0
LINE
  8
0
 10
-27.8889
 20
-112.079
 11
-28.2678
 21
-111.768
  0
LINE
  8
0
 10
-28.2678
 20
-111.768
 11
-28.5787
 21
-111.389
  0
LINE
  8
0
 10
-28.5787
 20
-111.389
 11
-28.8097
 21
-110.957
  0
LINE
  8
0
 10
-28.8097
 20
-110.957
 11
-28.952
 21
-110.488
  0
LINE
  8
0
 10
-28.952
 20
-110.488
 11
-29
 21
-110
  0
LINE
  8
0
 10
-29
 20
-110
 11
-28.952
 21
-109.512
  0
LINE
  8
0
 10
-28.952
 20
-109.512
 11
-28.8097
 21
-109.043
  0
LINE
  8
0
 10
-28.8097
 20
-109.043
 11
-28.5787
 21
-108.611
  0
LINE
  8
0
 10
-28.5787
 20
-108.611
 11
-28.2678
 21
-108.232
  0
LINE
  8
0
 10
-28.2678
 20
-108.232
 11
-27.8889
 21
-107.921
  0
LINE
  8
0
 10
-27.8889
 20
-107.921
 11
-27.4567
 21
-107.69
  0
LINE
  8
0
 10
-27.4567
 20
-107.69
 11
-26.9877
 21
-107.548
  0
LINE
  8
0
 10
-26.9877
 20
-107.548
 11
-26.5
 21
-107.5
  0
LINE
  8
0
 10
-26.5
 20
-107.5
 11
-26.0123
 21
-107.548
  0
LINE
  8
0
 10
-26.0123
 20
-107.548
 11
-25.5433
 21
-107.69
  0
LINE
  8
0
 10
-25.5433
 20
-107.69
 11
-25.1111
 21
-107.921
  0
LINE
  8
0
 10
-25.1111
 20
-107.921
 11
-24.7322
 21
-108.232
  0
LINE
  8
0
 10
-24.7322
 20
-108.232
 11
-24.4213
 21
-108.611
  0
LINE
  8
0
 10
-24.4213
 20
-108.611
 11
-24.1903
 21
-109.043
  0
LINE
  8
0
 10
-24.1903
 20
-109.043
 11
-24.048
 21
-109.512
  0
LINE
  8
0
 10
-24.048
 20
-109.512
 11
-24
 21
-110
  0
LINE
  8
0
 10
-24
 20
-110
 11
-24.048
 21
-110.488
  0
LINE
  8
0
 10
-24.048
 20
-110.488
 11
-24.1903
 21
-110.957
  0
LINE
  8
0
 10
-24.1903
 20
-110.957
 11
-24.4213
 21
-111.389
  0
LINE
  8
0
 10
-24.4213
 20
-111.389
 11
-24.7322
 21
-111.768
  0
LINE
  8
0
 10
-24.7322
 20
-111.768
 11
-25.1111
 21
-112.079
  0
LINE
  8
0
 10
-25.1111
 20
-112.079
 11
-25.5433
 21
-112.31
  0
LINE
  8
0
 10
-25.5433
 20
-112.31
 11
-26.0123
 21
-112.452
  0
LINE
  8
0
 10
-26.0123
 20
-112.452
 11
-26.5
 21
-112.5
  0
LINE
  8
0
 10
-26.5
 20
-112.5
 11
-26.9877
 21
-112.452
  0
LINE
  8
0
 10
-0.487717
 20
-112.452
 11
-0.956696
 21
-112.31
  0
LINE
  8
0
 10
-0.956696
 20
-112.31
 11
-1.38892
 21
-112.079
  0
LINE
  8
0
 10
-1.38892
 20
-112.079
 11
-1.76776
 21
-111.768
  0
LINE
  8
0
 10
-1.76776
 20
-111.768
 11
-2.07866
 21
-111.389
  0
LINE
  8
0
 10
-2.07866
 20
-111.389
 11
-2.30969
 21
-110.957
  0
LINE
  8
0
 10
-2.30969
 20
-110.957
 11
-2.45195
 21
-110.488
  0
LINE
  8
0
 10
-2.45195
 20
-110.488
 11
-2.49998
 21
-110
  0
LINE
  8
0
 10
-2.49998
 20
-110
 11
-2.45195
 21
-109.512
  0
LINE
  8
0
 10
-2.45195
 20
-109.512
 11
-2.30969
 21
-109.043
  0
LINE
  8
0
 10
-2.30969
 20
-109.043
 11
-2.07866
 21
-108.611
  0
LINE
  8
0
 10
-2.07866
 20
-108.611
 11
-1.76776
 21
-108.232
  0
LINE
  8
0
 10
-1.76776
 20
-108.232
 11
-1.38892
 21
-107.921
  0
LINE
  8
0
 10
-1.38892
 20
-107.921
 11
-0.956696
 21
-107.69
  0
LINE
  8
0
 10
-0.956696
 20
-107.69
 11
-0.487717
 21
-107.548
  0
LINE
  8
0
 10
-0.487717
 20
-107.548
 11
0
 21
-107.5
  0
LINE
  8
0
 10
0
 20
-107.5
 11
0.487717
 21
-107.548
  0
LINE
  8
0
 10
0.487717
 20
-107.548
 11
0.956696
 21
-107.69
  0
LINE
  8
0
 10
0.956696
 20
-107.69
 11
1.38892
 21
-107.921
  0
LINE
  8
0
 10
1.38892
 20
-107.921
 11
1.76776
 21
-108.232
  0
LINE
  8
0
 10
1.76776
 20
-108.232
 11
2.07866
 21
-108.611
  0
LINE
  8
0
 10
2.07866
 20
-108.611
 11
2.30969
 21
-109.043
  0
LINE
  8
0
 10
2.30969
 20
-109.043
 11
2.45195
 21
-109.512
  0
LINE
  8
0
 10
2.45195
 20
-109.512
 11
2.49998
 21
-110
  0
LINE
  8
0
 10
2.49998
 20
-110
 11
2.45195
 21
-110.488
  0
LINE
  8
0
 10
2.45195
 20
-110.488
 11
2.30969
 21
-110.957
  0
LINE
  8
0
 10
2.30969
 20
-110.957
 11
2.07866
 21
-111.389
  0
LINE
  8
0
 10
2.07866
 20
-111.389
 11
1.76776
 21
-111.768
  0
LINE
  8
0
 10
1.76776
 20
-111.768
 11
1.38892
 21
-112.079
  0
LINE
  8
0
 10
1.38892
 20
-112.079
 11
0.956696
 21
-112.31
  0
LINE
  8
0
 10
0.956696
 20
-112.31
 11
0.487717
 21
-112.452
  0
LINE
  8
0
 10
0.487717
 20
-112.452
 11
0
 21
-112.5
  0
LINE
  8
0
 10
0
 20
-112.5
 11
-0.487717
 21
-112.452
  0
LINE
  8
0
 10
-29.7
 20
-132.45
 11
-29.7
 21
-117.55
  0
LINE
  8
0
 10
-29.7
 20
-117.55
 11
-23.3
 21
-117.55
  0
LINE
  8
0
 10
-23.3
 20
-117.55
 11
-23.3
 21
-132.45
  0
LINE
  8
0
 10
-23.3
 20
-132.45
 11
-29.7
 21
-132.45
  0
LINE
  8
0
 10
-3.2
 20
-132.45
 11
-3.2
 21
-117.55
  0
LINE
  8
0
 10
-3.2
 20
-117.55
 11
3.2
 21
-117.55
  0
LINE
  8
0
 10
3.2
 20
-117.55
 11
3.2
 21
-132.45
  0
LINE
  8
0
 10
3.2
 20
-132.45
 11
-3.2
 21
-132.45
  0
LINE
  8
0
 10
-37.7377
 20
-182.452
 11
-38.2067
 21
-182.31
  0
LINE
  8
0
 10
-38.2067
 20
-182.31
 11
-38.6389
 21
-182.079
  0
LINE
  8
0
 10
-38.6389
 20
-182.079
 11
-39.0178
 21
-181.768
  0
LINE
  8
0
 10
-39.0178
 20
-181.768
 11
-39.3287
 21
-181.389
  0
LINE
  8
0
 10
-39.3287
 20
-181.389
 11
-39.5597
 21
-180.957
  0
LINE
  8
0
 10
-39.5597
 20
-180.957
 11
-39.702
 21
-180.488
  0
LINE
  8
0
 10
-39.702
 20
-180.488
 11
-39.75
 21
-180
  0
LINE
  8
0
 10
-39.75
 20
-180
 11
-39.702
 21
-179.512
  0
LINE
  8
0
 10
-39.702
 20
-179.512
 11
-39.5597
 21
-179.043
  0
LINE
  8
0
 10
-39.5597
 20
-179.043
 11
-39.3287
 21
-178.611
  0
LINE
  8
0
 10
-39.3287
 20
-178.611
 11
-39.0178
 21
-178.232
  0
LINE
  8
0
 10
-39.0178
 20
-178.232
 11
-38.6389
 21
-177.921
  0
LINE
  8
0
 10
-38.6389
 20
-177.921
 11
-38.2067
 21
-177.69
  0
LINE
  8
0
 10
-38.2067
 20
-177.69
 11
-37.7377
 21
-177.548
  0
LINE
  8
0
 10
-37.7377
 20
-177.548
 11
-37.25
 21
-177.5
  0
LINE
  8
0
 10
-37.25
 20
-177.5
 11
-36.7623
 21
-177.548
  0
LINE
  8
0
 10
-36.7623
 20
-177.548
 11
-36.2933
 21
-177.69
  0
LINE
  8
0
 10
-36.2933
 20
-177.69
 11
-35.8611
 21
-177.921
  0
LINE
  8
0
 10
-35.8611
 20
-177.921
 11
-35.4822
 21
-178.232
  0
LINE
  8
0
 10
-35.4822
 20
-178.232
 11
-35.1713
 21
-178.611
  0
LINE
  8
0
 10
-35.1713
 20
-178.611
 11
-34.9403
 21
-179.043
  0
LINE
  8
0
 10
-34.9403
 20
-179.043
 11
-34.798
 21
-179.512
  0
LINE
  8
0
 10
-34.798
 20
-179.512
 11
-34.75
 21
-180
  0
LINE
  8
0
 10
-34.75
 20
-180
 11
-34.798
 21
-180.488
  0
LINE
  8
0
 10
-34.798
 20
-180.488
 11
-34.9403
 21
-180.957
  0
LINE
  8
0
 10
-34.9403
 20
-180.957
 11
-35.1713
 21
-181.389
  0
LINE
  8
0
 10
-35.1713
 20
-181.389
 11
-35.4822
 21
-181.768
  0
LINE
  8
0
 10
-35.4822
 20
-181.768
 11
-35.8611
 21
-182.079
  0
LINE
  8
0
 10
-35.8611
 20
-182.079
 11
-36.2933
 21
-182.31
  0
LINE
  8
0
 10
-36.2933
 20
-182.31
 11
-36.7623
 21
-182.452
  0
LINE
  8
0
 10
-36.7623
 20
-182.452
 11
-37.25
 21
-182.5
  0
LINE
  8
0
 10
-37.25
 20
-182.5
 11
-37.7377
 21
-182.452
  0
LINE
  8
0
 10
-10.2377
 20
-182.452
 11
-10.7067
 21
-182.31
  0
LINE
  8
0
 10
-10.7067
 20
-182.31
 11
-11.1389
 21
-182.079
  0
LINE
  8
0
 10
-11.1389
 20
-182.079
 11
-11.5178
 21
-181.768
  0
LINE
  8
0
 10
-11.5178
 20
-181.768
 11
-11.8287
 21
-181.389
  0
LINE
  8
0
 10
-11.8287
 20
-181.389
 11
-12.0597
 21
-180.957
  0
LINE
  8
0
 10
-12.0597
 20
-180.957
 11
-12.202
 21
-180.488
  0
LINE
  8
0
 10
-12.202
 20
-180.488
 11
-12.25
 21
-180
  0
LINE
  8
0
 10
-12.25
 20
-180
 11
-12.202
 21
-179.512
  0
LINE
  8
0
 10
-12.202
 20
-179.512
 11
-12.0597
 21
-179.043
  0
LINE
  8
0
 10
-12.0597
 20
-179.043
 11
-11.8287
 21
-178.611
  0
LINE
  8
0
 10
-11.8287
 20
-178.611
 11
-11.5178
 21
-178.232
  0
LINE
  8
0
 10
-11.5178
 20
-178.232
 11
-11.1389
 21
-177.921
  0
LINE
  8
0
 10
-11.1389
 20
-177.921
 11
-10.7067
 21
-177.69
  0
LINE
  8
0
 10
-10.7067
 20
-177.69
 11
-10.2377
 21
-177.548
  0
LINE
  8
0
 10
-10.2377
 20
-177.548
 11
-9.75
 21
-177.5
  0
LINE
  8
0
 10
-9.75
 20
-177.5
 11
-9.26227
 21
-177.548
  0
LINE
  8
0
 10
-9.26227
 20
-177.548
 11
-8.79329
 21
-177.69
  0
LINE
  8
0
 10
-8.79329
 20
-177.69
 11
-8.36107
 21
-177.921
  0
LINE
  8
0
 10
-8.36107
 20
-177.921
 11
-7.98222
 21
-178.232
  0
LINE
  8
0
 10
-7.98222
 20
-178.232
 11
-7.67133
 21
-178.611
  0
LINE
  8
0
 10
-7.67133
 20
-178.611
 11
-7.44029
 21
-179.043
  0
LINE
  8
0
 10
-7.44029
 20
-179.043
 11
-7.29803
 21
-179.512
  0
LINE
  8
0
 10
-7.29803
 20
-179.512
 11
-7.25
 21
-180
  0
LINE
  8
0
 10
-7.25
 20
-180
 11
-7.29803
 21
-180.488
  0
LINE
  8
0
 10
-7.29803
 20
-180.488
 11
-7.44029
 21
-180.957
  0
LINE
  8
0
 10
-7.44029
 20
-180.957
 11
-7.67133
 21
-181.389
  0
LINE
  8
0
 10
-7.67133
 20
-181.389
 11
-7.98222
 21
-181.768
  0
LINE
  8
0
 10
-7.98222
 20
-181.768
 11
-8.36107
 21
-182.079
  0
LINE
  8
0
 10
-8.36107
 20
-182.079
 11
-8.79329
 21
-182.31
  0
LINE
  8
0
 10
-8.79329
 20
-182.31
 11
-9.26227
 21
-182.452
  0
LINE
  8
0
 10
-9.26227
 20
-182.452
 11
-9.75
 21
-182.5
  0
LINE
  8
0
 10
-9.75
 20
-182.5
 11
-10.2377
 21
-182.452
  0
LINE
  8
0
 10
-37.7377
 20
-202.452
 11
-38.2067
 21
-202.31
  0
LINE
  8
0
 10
-38.2067
 20
-202.31
 11
-38.6389
 21
-202.079
  0
LINE
  8
0
 10
-38.6389
 20
-202.079
 11
-39.0178
 21
-201.768
  0
LINE
  8
0
 10
-39.0178
 20
-201.768
 11
-39.3287
 21
-201.389
  0
LINE
  8
0
 10
-39.3287
 20
-201.389
 11
-39.5597
 21
-200.957
  0
LINE
  8
0
 10
-39.5597
 20
-200.957
 11
-39.702
 21
-200.488
  0
LINE
  8
0
 10
-39.702
 20
-200.488
 11
-39.75
 21
-200
  0
LINE
  8
0
 10
-39.75
 20
-200
 11
-39.702
 21
-199.512
  0
LINE
  8
0
 10
-39.702
 20
-199.512
 11
-39.5597
 21
-199.043
  0
LINE
  8
0
 10
-39.5597
 20
-199.043
 11
-39.3287
 21
-198.611
  0
LINE
  8
0
 10
-39.3287
 20
-198.611
 11
-39.0178
 21
-198.232
  0
LINE
  8
0
 10
-39.0178
 20
-198.232
 11
-38.6389
 21
-197.921
  0
LINE
  8
0
 10
-38.6389
 20
-197.921
 11
-38.2067
 21
-197.69
  0
LINE
  8
0
 10
-38.2067
 20
-197.69
 11
-37.7377
 21
-197.548
  0
LINE
  8
0
 10
-37.7377
 20
-197.548
 11
-37.25
 21
-197.5
  0
LINE
  8
0
 10
-37.25
 20
-197.5
 11
-36.7623
 21
-197.548
  0
LINE
  8
0
 10
-36.7623
 20
-197.548
 11
-36.2933
 21
-197.69
  0
LINE
  8
0
 10
-36.2933
 20
-197.69
 11
-35.8611
 21
-197.921
  0
LINE
  8
0
 10
-35.8611
 20
-197.921
 11
-35.4822
 21
-198.232
  0
LINE
  8
0
 10
-35.4822
 20
-198.232
 11
-35.1713
 21
-198.611
  0
LINE
  8
0
 10
-35.1713
 20
-198.611
 11
-34.9403
 21
-199.043
  0
LINE
  8
0
 10
-34.9403
 20
-199.043
 11
-34.798
 21
-199.512
  0
LINE
  8
0
 10
-34.798
 20
-199.512
 11
-34.75
 21
-200
  0
LINE
  8
0
 10
-34.75
 20
-200
 11
-34.798
 21
-200.488
  0
LINE
  8
0
 10
-34.798
 20
-200.488
 11
-34.9403
 21
-200.957
  0
LINE
  8
0
 10
-34.9403
 20
-200.957
 11
-35.1713
 21
-201.389
  0
LINE
  8
0
 10
-35.1713
 20
-201.389
 11
-35.4822
 21
-201.768
  0
LINE
  8
0
 10
-35.4822
 20
-201.768
 11
-35.8611
 21
-202.079
  0
LINE
  8
0
 10
-35.8611
 20
-202.079
 11
-36.2933
 21
-202.31
  0
LINE
  8
0
 10
-36.2933
 20
-202.31
 11
-36.7623
 21
-202.452
  0
LINE
  8
0
 10
-36.7623
 20
-202.452
 11
-37.25
 21
-202.5
  0
LINE
  8
0
 10
-37.25
 20
-202.5
 11
-37.7377
 21
-202.452
  0
LINE
  8
0
 10
-10.2377
 20
-202.452
 11
-10.7067
 21
-202.31
  0
LINE
  8
0
 10
-10.7067
 20
-202.31
 11
-11.1389
 21
-202.079
  0
LINE
  8
0
 10
-11.1389
 20
-202.079
 11
-11.5178
 21
-201.768
  0
LINE
  8
0
 10
-11.5178
 20
-201.768
 11
-11.8287
 21
-201.389
  0
LINE
  8
0
 10
-11.8287
 20
-201.389
 11
-12.0597
 21
-200.957
  0
LINE
  8
0
 10
-12.0597
 20
-200.957
 11
-12.202
 21
-200.488
  0
LINE
  8
0
 10
-12.202
 20
-200.488
 11
-12.25
 21
-200
  0
LINE
  8
0
 10
-12.25
 20
-200
 11
-12.202
 21
-199.512
  0
LINE
  8
0
 10
-12.202
 20
-199.512
 11
-12.0597
 21
-199.043
  0
LINE
  8
0
 10
-12.0597
 20
-199.043
 11
-11.8287
 21
-198.611
  0
LINE
  8
0
 10
-11.8287
 20
-198.611
 11
-11.5178
 21
-198.232
  0
LINE
  8
0
 10
-11.5178
 20
-198.232
 11
-11.1389
 21
-197.921
  0
LINE
  8
0
 10
-11.1389
 20
-197.921
 11
-10.7067
 21
-197.69
  0
LINE
  8
0
 10
-10.7067
 20
-197.69
 11
-10.2377
 21
-197.548
  0
LINE
  8
0
 10
-10.2377
 20
-197.548
 11
-9.75
 21
-197.5
  0
LINE
  8
0
 10
-9.75
 20
-197.5
 11
-9.26227
 21
-197.548
  0
LINE
  8
0
 10
-9.26227
 20
-197.548
 11
-8.79329
 21
-197.69
  0
LINE
  8
0
 10
-8.79329
 20
-197.69
 11
-8.36107
 21
-197.921
  0
LINE
  8
0
 10
-8.36107
 20
-197.921
 11
-7.98222
 21
-198.232
  0
LINE
  8
0
 10
-7.98222
 20
-198.232
 11
-7.67133
 21
-198.611
  0
LINE
  8
0
 10
-7.67133
 20
-198.611
 11
-7.44029
 21
-199.043
  0
LINE
  8
0
 10
-7.44029
 20
-199.043
 11
-7.29803
 21
-199.512
  0
LINE
  8
0
 10
-7.29803
 20
-199.512
 11
-7.25
 21
-200
  0
LINE
  8
0
 10
-7.25
 20
-200
 11
-7.29803
 21
-200.488
  0
LINE
  8
0
 10
-7.29803
 20
-200.488
 11
-7.44029
 21
-200.957
  0
LINE
  8
0
 10
-7.44029
 20
-200.957
 11
-7.67133
 21
-201.389
  0
LINE
  8
0
 10
-7.67133
 20
-201.389
 11
-7.98222
 21
-201.768
  0
LINE
  8
0
 10
-7.98222
 20
-201.768
 11
-8.36107
 21
-202.079
  0
LINE
  8
0
 10
-8.36107
 20
-202.079
 11
-8.79329
 21
-202.31
  0
LINE
  8
0
 10
-8.79329
 20
-202.31
 11
-9.26227
 21
-202.452
  0
LINE
  8
0
 10
-9.26227
 20
-202.452
 11
-9.75
 21
-202.5
  0
LINE
  8
0
 10
-9.75
 20
-202.5
 11
-10.2377
 21
-202.452
  0
LINE
  8
0
 10
-12.7
 20
-216.45
 11
-12.7
 21
-210.05
  0
LINE
  8
0
 10
-12.7
 20
-210.05
 11
2.2
 21
-210.05
  0
LINE
  8
0
 10
2.2
 20
-210.05
 11
2.2
 21
-216.45
  0
LINE
  8
0
 10
2.2
 20
-216.45
 11
-12.7
 21
-216.45
  0
LINE
  8
0
 10
-42.7
 20
-216.45
 11
-42.7
 21
-210.05
  0
LINE
  8
0
 10
-42.7
 20
-210.05
 11
-27.8
 21
-210.05
  0
LINE
  8
0
 10
-27.8
 20
-210.05
 11
-27.8
 21
-216.45
  0
LINE
  8
0
 10
-27.8
 20
-216.45
 11
-42.7
 21
-216.45
  0
LINE
  8
0
 10
-20.25
 20
-215.75
 11
-20.7377
 21
-215.702
  0
LINE
  8
0
 10
-20.7377
 20
-215.702
 11
-21.2067
 21
-215.56
  0
LINE
  8
0
 10
-21.2067
 20
-215.56
 11
-21.6389
 21
-215.329
  0
LINE
  8
0
 10
-21.6389
 20
-215.329
 11
-22.0178
 21
-215.018
  0
LINE
  8
0
 10
-22.0178
 20
-215.018
 11
-22.3287
 21
-214.639
  0
LINE
  8
0
 10
-22.3287
 20
-214.639
 11
-22.5597
 21
-214.207
  0
LINE
  8
0
 10
-22.5597
 20
-214.207
 11
-22.702
 21
-213.738
  0
LINE
  8
0
 10
-22.702
 20
-213.738
 11
-22.75
 21
-213.25
  0
LINE
  8
0
 10
-22.75
 20
-213.25
 11
-22.702
 21
-212.762
  0
LINE
  8
0
 10
-22.702
 20
-212.762
 11
-22.5597
 21
-212.293
  0
LINE
  8
0
 10
-22.5597
 20
-212.293
 11
-22.3287
 21
-211.861
  0
LINE
  8
0
 10
-22.3287
 20
-211.861
 11
-22.0178
 21
-211.482
  0
LINE
  8
0
 10
-22.0178
 20
-211.482
 11
-21.6389
 21
-211.171
  0
LINE
  8
0
 10
-21.6389
 20
-211.171
 11
-21.2067
 21
-210.94
  0
LINE
  8
0
 10
-21.2067
 20
-210.94
 11
-20.7377
 21
-210.798
  0
LINE
  8
0
 10
-20.7377
 20
-210.798
 11
-20.25
 21
-210.75
  0
LINE
  8
0
 10
-20.25
 20
-210.75
 11
-19.7623
 21
-210.798
  0
LINE
  8
0
 10
-19.7623
 20
-210.798
 11
-19.2933
 21
-210.94
  0
LINE
  8
0
 10
-19.2933
 20
-210.94
 11
-18.8611
 21
-211.171
  0
LINE
  8
0
 10
-18.8611
 20
-211.171
 11
-18.4822
 21
-211.482
  0
LINE
  8
0
 10
-18.4822
 20
-211.482
 11
-18.1713
 21
-211.861
  0
LINE
  8
0
 10
-18.1713
 20
-211.861
 11
-17.9403
 21
-212.293
  0
LINE
  8
0
 10
-17.9403
 20
-212.293
 11
-17.798
 21
-212.762
  0
LINE
  8
0
 10
-17.798
 20
-212.762
 11
-17.75
 21
-213.25
  0
LINE
  8
0
 10
-17.75
 20
-213.25
 11
-17.798
 21
-213.738
  0
LINE
  8
0
 10
-17.798
 20
-213.738
 11
-17.9403
 21
-214.207
  0
LINE
  8
0
 10
-17.9403
 20
-214.207
 11
-18.1713
 21
-214.639
  0
LINE
  8
0
 10
-18.1713
 20
-214.639
 11
-18.4822
 21
-215.018
  0
LINE
  8
0
 10
-18.4822
 20
-215.018
 11
-18.8611
 21
-215.329
  0
LINE
  8
0
 10
-18.8611
 20
-215.329
 11
-19.2933
 21
-215.56
  0
LINE
  8
0
 10
-19.2933
 20
-215.56
 11
-19.7623
 21
-215.702
  0
LINE
  8
0
 10
-19.7623
 20
-215.702
 11
-20.25
 21
-215.75
  0
ENDSEC
  0
SECTION
  2
OBJECTS
  0
DICTIONARY
  0
ENDSEC
  0
EOF
