  0
SECTION
  2
BLOCKS
  0
ENDSEC
  0
SECTION
  2
ENTITIES
  0
LINE
  8
0
 10
23.25
 20
171.3
 11
-6.5
 21
171.3
  0
LINE
  8
0
 10
-6.5
 20
171.3
 11
-6.5
 21
-171.3
  0
LINE
  8
0
 10
-6.5
 20
-171.3
 11
23.25
 21
-171.3
  0
LINE
  8
0
 10
23.25
 20
-171.3
 11
23.25
 21
171.3
  0
LINE
  8
0
 10
-3.2
 20
131.457
 11
-3.2
 21
134.784
  0
LINE
  8
0
 10
-3.2
 20
134.784
 11
-3.25
 21
134.784
  0
LINE
  8
0
 10
-3.25
 20
134.784
 11
-3.25
 21
165.216
  0
LINE
  8
0
 10
-3.25
 20
165.216
 11
3.25
 21
165.216
  0
LINE
  8
0
 10
3.25
 20
165.216
 11
3.25
 21
134.784
  0
LINE
  8
0
 10
3.25
 20
134.784
 11
3.2
 21
134.784
  0
LINE
  8
0
 10
3.2
 20
134.784
 11
3.2
 21
131.457
  0
LINE
  8
0
 10
3.2
 20
131.457
 11
-3.2
 21
131.457
  0
LINE
  8
0
 10
13.0009
 20
158.612
 11
12.5111
 21
158.703
  0
LINE
  8
0
 10
12.5111
 20
158.703
 11
12.0465
 21
158.883
  0
LINE
  8
0
 10
12.0465
 20
158.883
 11
11.6229
 21
159.145
  0
LINE
  8
0
 10
11.6229
 20
159.145
 11
11.2547
 21
159.481
  0
LINE
  8
0
 10
11.2547
 20
159.481
 11
10.9544
 21
159.879
  0
LINE
  8
0
 10
10.9544
 20
159.879
 11
10.7323
 21
160.325
  0
LINE
  8
0
 10
10.7323
 20
160.325
 11
10.596
 21
160.804
  0
LINE
  8
0
 10
10.596
 20
160.804
 11
10.55
 21
161.3
  0
LINE
  8
0
 10
10.55
 20
161.3
 11
10.596
 21
161.796
  0
LINE
  8
0
 10
10.596
 20
161.796
 11
10.7323
 21
162.275
  0
LINE
  8
0
 10
10.7323
 20
162.275
 11
10.9544
 21
162.721
  0
LINE
  8
0
 10
10.9544
 20
162.721
 11
11.2547
 21
163.119
  0
LINE
  8
0
 10
11.2547
 20
163.119
 11
11.6229
 21
163.455
  0
LINE
  8
0
 10
11.6229
 20
163.455
 11
12.0465
 21
163.717
  0
LINE
  8
0
 10
12.0465
 20
163.717
 11
12.5111
 21
163.897
  0
LINE
  8
0
 10
12.5111
 20
163.897
 11
13.0009
 21
163.988
  0
LINE
  8
0
 10
13.0009
 20
163.988
 11
13.4991
 21
163.988
  0
LINE
  8
0
 10
13.4991
 20
163.988
 11
13.9889
 21
163.897
  0
LINE
  8
0
 10
13.9889
 20
163.897
 11
14.4535
 21
163.717
  0
LINE
  8
0
 10
14.4535
 20
163.717
 11
14.8771
 21
163.455
  0
LINE
  8
0
 10
14.8771
 20
163.455
 11
15.2453
 21
163.119
  0
LINE
  8
0
 10
15.2453
 20
163.119
 11
15.5456
 21
162.721
  0
LINE
  8
0
 10
15.5456
 20
162.721
 11
15.7677
 21
162.275
  0
LINE
  8
0
 10
15.7677
 20
162.275
 11
15.904
 21
161.796
  0
LINE
  8
0
 10
15.904
 20
161.796
 11
15.95
 21
161.3
  0
LINE
  8
0
 10
15.95
 20
161.3
 11
15.904
 21
160.804
  0
LINE
  8
0
 10
15.904
 20
160.804
 11
15.7677
 21
160.325
  0
LINE
  8
0
 10
15.7677
 20
160.325
 11
15.5456
 21
159.879
  0
LINE
  8
0
 10
15.5456
 20
159.879
 11
15.2453
 21
159.481
  0
LINE
  8
0
 10
15.2453
 20
159.481
 11
14.8771
 21
159.145
  0
LINE
  8
0
 10
14.8771
 20
159.145
 11
14.4535
 21
158.883
  0
LINE
  8
0
 10
14.4535
 20
158.883
 11
13.9889
 21
158.703
  0
LINE
  8
0
 10
13.9889
 20
158.703
 11
13.4991
 21
158.612
  0
LINE
  8
0
 10
13.4991
 20
158.612
 11
13.0009
 21
158.612
  0
LINE
  8
0
 10
-0.496109
 20
121.253
 11
-0.975342
 21
121.389
  0
LINE
  8
0
 10
-0.975342
 20
121.389
 11
-1.42136
 21
121.611
  0
LINE
  8
0
 10
-1.42136
 20
121.611
 11
-1.81897
 21
121.912
  0
LINE
  8
0
 10
-1.81897
 20
121.912
 11
-2.15463
 21
122.28
  0
LINE
  8
0
 10
-2.15463
 20
122.28
 11
-2.41693
 21
122.704
  0
LINE
  8
0
 10
-2.41693
 20
122.704
 11
-2.59692
 21
123.168
  0
LINE
  8
0
 10
-2.59692
 20
123.168
 11
-2.68848
 21
123.658
  0
LINE
  8
0
 10
-2.68848
 20
123.658
 11
-2.68848
 21
124.156
  0
LINE
  8
0
 10
-2.68848
 20
124.156
 11
-2.59692
 21
124.646
  0
LINE
  8
0
 10
-2.59692
 20
124.646
 11
-2.41693
 21
125.11
  0
LINE
  8
0
 10
-2.41693
 20
125.11
 11
-2.15463
 21
125.534
  0
LINE
  8
0
 10
-2.15463
 20
125.534
 11
-1.81897
 21
125.902
  0
LINE
  8
0
 10
-1.81897
 20
125.902
 11
-1.42136
 21
126.203
  0
LINE
  8
0
 10
-1.42136
 20
126.203
 11
-0.975342
 21
126.425
  0
LINE
  8
0
 10
-0.975342
 20
126.425
 11
-0.496109
 21
126.561
  0
LINE
  8
0
 10
-0.496109
 20
126.561
 11
0
 21
126.607
  0
LINE
  8
0
 10
0
 20
126.607
 11
0.496109
 21
126.561
  0
LINE
  8
0
 10
0.496109
 20
126.561
 11
0.975342
 21
126.425
  0
LINE
  8
0
 10
0.975342
 20
126.425
 11
1.42136
 21
126.203
  0
LINE
  8
0
 10
1.42136
 20
126.203
 11
1.81897
 21
125.902
  0
LINE
  8
0
 10
1.81897
 20
125.902
 11
2.15463
 21
125.534
  0
LINE
  8
0
 10
2.15463
 20
125.534
 11
2.41693
 21
125.11
  0
LINE
  8
0
 10
2.41693
 20
125.11
 11
2.59692
 21
124.646
  0
LINE
  8
0
 10
2.59692
 20
124.646
 11
2.68848
 21
124.156
  0
LINE
  8
0
 10
2.68848
 20
124.156
 11
2.68848
 21
123.658
  0
LINE
  8
0
 10
2.68848
 20
123.658
 11
2.59692
 21
123.168
  0
LINE
  8
0
 10
2.59692
 20
123.168
 11
2.41693
 21
122.704
  0
LINE
  8
0
 10
2.41693
 20
122.704
 11
2.15463
 21
122.28
  0
LINE
  8
0
 10
2.15463
 20
122.28
 11
1.81897
 21
121.912
  0
LINE
  8
0
 10
1.81897
 20
121.912
 11
1.42136
 21
121.611
  0
LINE
  8
0
 10
1.42136
 20
121.611
 11
0.975342
 21
121.389
  0
LINE
  8
0
 10
0.975342
 20
121.389
 11
0.496109
 21
121.253
  0
LINE
  8
0
 10
0.496109
 20
121.253
 11
0
 21
121.207
  0
LINE
  8
0
 10
0
 20
121.207
 11
-0.496109
 21
121.253
  0
LINE
  8
0
 10
-3.25
 20
81.5102
 11
-3.25
 21
114.49
  0
LINE
  8
0
 10
-3.25
 20
114.49
 11
-3.2
 21
114.49
  0
LINE
  8
0
 10
-3.2
 20
114.49
 11
-3.2
 21
116.357
  0
LINE
  8
0
 10
-3.2
 20
116.357
 11
3.2
 21
116.357
  0
LINE
  8
0
 10
3.2
 20
116.357
 11
3.2
 21
114.49
  0
LINE
  8
0
 10
3.2
 20
114.49
 11
3.25
 21
114.49
  0
LINE
  8
0
 10
3.25
 20
114.49
 11
3.25
 21
81.5102
  0
LINE
  8
0
 10
3.25
 20
81.5102
 11
-3.25
 21
81.5102
  0
LINE
  8
0
 10
-3.2
 20
57.798
 11
-3.2
 21
72.698
  0
LINE
  8
0
 10
-3.2
 20
72.698
 11
3.2
 21
72.698
  0
LINE
  8
0
 10
3.2
 20
72.698
 11
3.2
 21
57.798
  0
LINE
  8
0
 10
3.2
 20
57.798
 11
-3.2
 21
57.798
  0
LINE
  8
0
 10
-0.496109
 20
47.594
 11
-0.975342
 21
47.7303
  0
LINE
  8
0
 10
-0.975342
 20
47.7303
 11
-1.42136
 21
47.9524
  0
LINE
  8
0
 10
-1.42136
 20
47.9524
 11
-1.81897
 21
48.2527
  0
LINE
  8
0
 10
-1.81897
 20
48.2527
 11
-2.15463
 21
48.6209
  0
LINE
  8
0
 10
-2.15463
 20
48.6209
 11
-2.41693
 21
49.0445
  0
LINE
  8
0
 10
-2.41693
 20
49.0445
 11
-2.59692
 21
49.5091
  0
LINE
  8
0
 10
-2.59692
 20
49.5091
 11
-2.68848
 21
49.9989
  0
LINE
  8
0
 10
-2.68848
 20
49.9989
 11
-2.68848
 21
50.4971
  0
LINE
  8
0
 10
-2.68848
 20
50.4971
 11
-2.59692
 21
50.9869
  0
LINE
  8
0
 10
-2.59692
 20
50.9869
 11
-2.41693
 21
51.4515
  0
LINE
  8
0
 10
-2.41693
 20
51.4515
 11
-2.15463
 21
51.8751
  0
LINE
  8
0
 10
-2.15463
 20
51.8751
 11
-1.81897
 21
52.2433
  0
LINE
  8
0
 10
-1.81897
 20
52.2433
 11
-1.42136
 21
52.5436
  0
LINE
  8
0
 10
-1.42136
 20
52.5436
 11
-0.975342
 21
52.7657
  0
LINE
  8
0
 10
-0.975342
 20
52.7657
 11
-0.496109
 21
52.902
  0
LINE
  8
0
 10
-0.496109
 20
52.902
 11
0
 21
52.948
  0
LINE
  8
0
 10
0
 20
52.948
 11
0.496109
 21
52.902
  0
LINE
  8
0
 10
0.496109
 20
52.902
 11
0.975342
 21
52.7657
  0
LINE
  8
0
 10
0.975342
 20
52.7657
 11
1.42136
 21
52.5436
  0
LINE
  8
0
 10
1.42136
 20
52.5436
 11
1.81897
 21
52.2433
  0
LINE
  8
0
 10
1.81897
 20
52.2433
 11
2.15463
 21
51.8751
  0
LINE
  8
0
 10
2.15463
 20
51.8751
 11
2.41693
 21
51.4515
  0
LINE
  8
0
 10
2.41693
 20
51.4515
 11
2.59692
 21
50.9869
  0
LINE
  8
0
 10
2.59692
 20
50.9869
 11
2.68848
 21
50.4971
  0
LINE
  8
0
 10
2.68848
 20
50.4971
 11
2.68848
 21
49.9989
  0
LINE
  8
0
 10
2.68848
 20
49.9989
 11
2.59692
 21
49.5091
  0
LINE
  8
0
 10
2.59692
 20
49.5091
 11
2.41693
 21
49.0445
  0
LINE
  8
0
 10
2.41693
 20
49.0445
 11
2.15463
 21
48.6209
  0
LINE
  8
0
 10
2.15463
 20
48.6209
 11
1.81897
 21
48.2527
  0
LINE
  8
0
 10
1.81897
 20
48.2527
 11
1.42136
 21
47.9524
  0
LINE
  8
0
 10
1.42136
 20
47.9524
 11
0.975342
 21
47.7303
  0
LINE
  8
0
 10
0.975342
 20
47.7303
 11
0.496109
 21
47.594
  0
LINE
  8
0
 10
0.496109
 20
47.594
 11
0
 21
47.548
  0
LINE
  8
0
 10
0
 20
47.548
 11
-0.496109
 21
47.594
  0
LINE
  8
0
 10
-3.2
 20
27.798
 11
-3.2
 21
42.698
  0
LINE
  8
0
 10
-3.2
 20
42.698
 11
3.2
 21
42.698
  0
LINE
  8
0
 10
3.2
 20
42.698
 11
3.2
 21
27.798
  0
LINE
  8
0
 10
3.2
 20
27.798
 11
-3.2
 21
27.798
  0
LINE
  8
0
 10
-3.25
 20
-15.2156
 11
-3.25
 21
15.2156
  0
LINE
  8
0
 10
-3.25
 20
15.2156
 11
3.25
 21
15.2156
  0
LINE
  8
0
 10
3.25
 20
15.2156
 11
3.25
 21
-15.2156
  0
LINE
  8
0
 10
3.25
 20
-15.2156
 11
-3.25
 21
-15.2156
  0
LINE
  8
0
 10
-3.2
 20
-42.698
 11
-3.2
 21
-27.798
  0
LINE
  8
0
 10
-3.2
 20
-27.798
 11
3.2
 21
-27.798
  0
LINE
  8
0
 10
3.2
 20
-27.798
 11
3.2
 21
-42.698
  0
LINE
  8
0
 10
3.2
 20
-42.698
 11
-3.2
 21
-42.698
  0
LINE
  8
0
 10
-0.496109
 20
-52.902
 11
-0.975342
 21
-52.7657
  0
LINE
  8
0
 10
-0.975342
 20
-52.7657
 11
-1.42136
 21
-52.5436
  0
LINE
  8
0
 10
-1.42136
 20
-52.5436
 11
-1.81897
 21
-52.2433
  0
LINE
  8
0
 10
-1.81897
 20
-52.2433
 11
-2.15463
 21
-51.8751
  0
LINE
  8
0
 10
-2.15463
 20
-51.8751
 11
-2.41693
 21
-51.4515
  0
LINE
  8
0
 10
-2.41693
 20
-51.4515
 11
-2.59692
 21
-50.9869
  0
LINE
  8
0
 10
-2.59692
 20
-50.9869
 11
-2.68848
 21
-50.4971
  0
LINE
  8
0
 10
-2.68848
 20
-50.4971
 11
-2.68848
 21
-49.9989
  0
LINE
  8
0
 10
-2.68848
 20
-49.9989
 11
-2.59692
 21
-49.5091
  0
LINE
  8
0
 10
-2.59692
 20
-49.5091
 11
-2.41693
 21
-49.0445
  0
LINE
  8
0
 10
-2.41693
 20
-49.0445
 11
-2.15463
 21
-48.6209
  0
LINE
  8
0
 10
-2.15463
 20
-48.6209
 11
-1.81897
 21
-48.2527
  0
LINE
  8
0
 10
-1.81897
 20
-48.2527
 11
-1.42136
 21
-47.9524
  0
LINE
  8
0
 10
-1.42136
 20
-47.9524
 11
-0.975342
 21
-47.7303
  0
LINE
  8
0
 10
-0.975342
 20
-47.7303
 11
-0.496109
 21
-47.594
  0
LINE
  8
0
 10
-0.496109
 20
-47.594
 11
0
 21
-47.548
  0
LINE
  8
0
 10
0
 20
-47.548
 11
0.496109
 21
-47.594
  0
LINE
  8
0
 10
0.496109
 20
-47.594
 11
0.975342
 21
-47.7303
  0
LINE
  8
0
 10
0.975342
 20
-47.7303
 11
1.42136
 21
-47.9524
  0
LINE
  8
0
 10
1.42136
 20
-47.9524
 11
1.81897
 21
-48.2527
  0
LINE
  8
0
 10
1.81897
 20
-48.2527
 11
2.15463
 21
-48.6209
  0
LINE
  8
0
 10
2.15463
 20
-48.6209
 11
2.41693
 21
-49.0445
  0
LINE
  8
0
 10
2.41693
 20
-49.0445
 11
2.59692
 21
-49.5091
  0
LINE
  8
0
 10
2.59692
 20
-49.5091
 11
2.68848
 21
-49.9989
  0
LINE
  8
0
 10
2.68848
 20
-49.9989
 11
2.68848
 21
-50.4971
  0
LINE
  8
0
 10
2.68848
 20
-50.4971
 11
2.59692
 21
-50.9869
  0
LINE
  8
0
 10
2.59692
 20
-50.9869
 11
2.41693
 21
-51.4515
  0
LINE
  8
0
 10
2.41693
 20
-51.4515
 11
2.15463
 21
-51.8751
  0
LINE
  8
0
 10
2.15463
 20
-51.8751
 11
1.81897
 21
-52.2433
  0
LINE
  8
0
 10
1.81897
 20
-52.2433
 11
1.42136
 21
-52.5436
  0
LINE
  8
0
 10
1.42136
 20
-52.5436
 11
0.975342
 21
-52.7657
  0
LINE
  8
0
 10
0.975342
 20
-52.7657
 11
0.496109
 21
-52.902
  0
LINE
  8
0
 10
0.496109
 20
-52.902
 11
0
 21
-52.948
  0
LINE
  8
0
 10
0
 20
-52.948
 11
-0.496109
 21
-52.902
  0
LINE
  8
0
 10
-3.2
 20
-72.698
 11
-3.2
 21
-57.798
  0
LINE
  8
0
 10
-3.2
 20
-57.798
 11
3.2
 21
-57.798
  0
LINE
  8
0
 10
3.2
 20
-57.798
 11
3.2
 21
-72.698
  0
LINE
  8
0
 10
3.2
 20
-72.698
 11
-3.2
 21
-72.698
  0
LINE
  8
0
 10
-3.2
 20
-116.357
 11
-3.2
 21
-114.49
  0
LINE
  8
0
 10
-3.2
 20
-114.49
 11
-3.25
 21
-114.49
  0
LINE
  8
0
 10
-3.25
 20
-114.49
 11
-3.25
 21
-81.5102
  0
LINE
  8
0
 10
-3.25
 20
-81.5102
 11
3.25
 21
-81.5102
  0
LINE
  8
0
 10
3.25
 20
-81.5102
 11
3.25
 21
-114.49
  0
LINE
  8
0
 10
3.25
 20
-114.49
 11
3.2
 21
-114.49
  0
LINE
  8
0
 10
3.2
 20
-114.49
 11
3.2
 21
-116.357
  0
LINE
  8
0
 10
3.2
 20
-116.357
 11
-3.2
 21
-116.357
  0
LINE
  8
0
 10
-0.496109
 20
-126.561
 11
-0.975342
 21
-126.425
  0
LINE
  8
0
 10
-0.975342
 20
-126.425
 11
-1.42136
 21
-126.203
  0
LINE
  8
0
 10
-1.42136
 20
-126.203
 11
-1.81897
 21
-125.902
  0
LINE
  8
0
 10
-1.81897
 20
-125.902
 11
-2.15463
 21
-125.534
  0
LINE
  8
0
 10
-2.15463
 20
-125.534
 11
-2.41693
 21
-125.11
  0
LINE
  8
0
 10
-2.41693
 20
-125.11
 11
-2.59692
 21
-124.646
  0
LINE
  8
0
 10
-2.59692
 20
-124.646
 11
-2.68848
 21
-124.156
  0
LINE
  8
0
 10
-2.68848
 20
-124.156
 11
-2.68848
 21
-123.658
  0
LINE
  8
0
 10
-2.68848
 20
-123.658
 11
-2.59692
 21
-123.168
  0
LINE
  8
0
 10
-2.59692
 20
-123.168
 11
-2.41693
 21
-122.704
  0
LINE
  8
0
 10
-2.41693
 20
-122.704
 11
-2.15463
 21
-122.28
  0
LINE
  8
0
 10
-2.15463
 20
-122.28
 11
-1.81897
 21
-121.912
  0
LINE
  8
0
 10
-1.81897
 20
-121.912
 11
-1.42136
 21
-121.611
  0
LINE
  8
0
 10
-1.42136
 20
-121.611
 11
-0.975342
 21
-121.389
  0
LINE
  8
0
 10
-0.975342
 20
-121.389
 11
-0.496109
 21
-121.253
  0
LINE
  8
0
 10
-0.496109
 20
-121.253
 11
0
 21
-121.207
  0
LINE
  8
0
 10
0
 20
-121.207
 11
0.496109
 21
-121.253
  0
LINE
  8
0
 10
0.496109
 20
-121.253
 11
0.975342
 21
-121.389
  0
LINE
  8
0
 10
0.975342
 20
-121.389
 11
1.42136
 21
-121.611
  0
LINE
  8
0
 10
1.42136
 20
-121.611
 11
1.81897
 21
-121.912
  0
LINE
  8
0
 10
1.81897
 20
-121.912
 11
2.15463
 21
-122.28
  0
LINE
  8
0
 10
2.15463
 20
-122.28
 11
2.41693
 21
-122.704
  0
LINE
  8
0
 10
2.41693
 20
-122.704
 11
2.59692
 21
-123.168
  0
LINE
  8
0
 10
2.59692
 20
-123.168
 11
2.68848
 21
-123.658
  0
LINE
  8
0
 10
2.68848
 20
-123.658
 11
2.68848
 21
-124.156
  0
LINE
  8
0
 10
2.68848
 20
-124.156
 11
2.59692
 21
-124.646
  0
LINE
  8
0
 10
2.59692
 20
-124.646
 11
2.41693
 21
-125.11
  0
LINE
  8
0
 10
2.41693
 20
-125.11
 11
2.15463
 21
-125.534
  0
LINE
  8
0
 10
2.15463
 20
-125.534
 11
1.81897
 21
-125.902
  0
LINE
  8
0
 10
1.81897
 20
-125.902
 11
1.42136
 21
-126.203
  0
LINE
  8
0
 10
1.42136
 20
-126.203
 11
0.975342
 21
-126.425
  0
LINE
  8
0
 10
0.975342
 20
-126.425
 11
0.496109
 21
-126.561
  0
LINE
  8
0
 10
0.496109
 20
-126.561
 11
0
 21
-126.607
  0
LINE
  8
0
 10
0
 20
-126.607
 11
-0.496109
 21
-126.561
  0
LINE
  8
0
 10
-3.25
 20
-165.216
 11
-3.25
 21
-134.784
  0
LINE
  8
0
 10
-3.25
 20
-134.784
 11
-3.2
 21
-134.784
  0
LINE
  8
0
 10
-3.2
 20
-134.784
 11
-3.2
 21
-131.457
  0
LINE
  8
0
 10
-3.2
 20
-131.457
 11
3.2
 21
-131.457
  0
LINE
  8
0
 10
3.2
 20
-131.457
 11
3.2
 21
-134.784
  0
LINE
  8
0
 10
3.2
 20
-134.784
 11
3.25
 21
-134.784
  0
LINE
  8
0
 10
3.25
 20
-134.784
 11
3.25
 21
-165.216
  0
LINE
  8
0
 10
3.25
 20
-165.216
 11
-3.25
 21
-165.216
  0
LINE
  8
0
 10
13.0009
 20
-163.988
 11
12.5111
 21
-163.897
  0
LINE
  8
0
 10
12.5111
 20
-163.897
 11
12.0465
 21
-163.717
  0
LINE
  8
0
 10
12.0465
 20
-163.717
 11
11.6229
 21
-163.455
  0
LINE
  8
0
 10
11.6229
 20
-163.455
 11
11.2547
 21
-163.119
  0
LINE
  8
0
 10
11.2547
 20
-163.119
 11
10.9544
 21
-162.721
  0
LINE
  8
0
 10
10.9544
 20
-162.721
 11
10.7323
 21
-162.275
  0
LINE
  8
0
 10
10.7323
 20
-162.275
 11
10.596
 21
-161.796
  0
LINE
  8
0
 10
10.596
 20
-161.796
 11
10.55
 21
-161.3
  0
LINE
  8
0
 10
10.55
 20
-161.3
 11
10.596
 21
-160.804
  0
LINE
  8
0
 10
10.596
 20
-160.804
 11
10.7323
 21
-160.325
  0
LINE
  8
0
 10
10.7323
 20
-160.325
 11
10.9544
 21
-159.879
  0
LINE
  8
0
 10
10.9544
 20
-159.879
 11
11.2547
 21
-159.481
  0
LINE
  8
0
 10
11.2547
 20
-159.481
 11
11.6229
 21
-159.145
  0
LINE
  8
0
 10
11.6229
 20
-159.145
 11
12.0465
 21
-158.883
  0
LINE
  8
0
 10
12.0465
 20
-158.883
 11
12.5111
 21
-158.703
  0
LINE
  8
0
 10
12.5111
 20
-158.703
 11
13.0009
 21
-158.612
  0
LINE
  8
0
 10
13.0009
 20
-158.612
 11
13.4991
 21
-158.612
  0
LINE
  8
0
 10
13.4991
 20
-158.612
 11
13.9889
 21
-158.703
  0
LINE
  8
0
 10
13.9889
 20
-158.703
 11
14.4535
 21
-158.883
  0
LINE
  8
0
 10
14.4535
 20
-158.883
 11
14.8771
 21
-159.145
  0
LINE
  8
0
 10
14.8771
 20
-159.145
 11
15.2453
 21
-159.481
  0
LINE
  8
0
 10
15.2453
 20
-159.481
 11
15.5456
 21
-159.879
  0
LINE
  8
0
 10
15.5456
 20
-159.879
 11
15.7677
 21
-160.325
  0
LINE
  8
0
 10
15.7677
 20
-160.325
 11
15.904
 21
-160.804
  0
LINE
  8
0
 10
15.904
 20
-160.804
 11
15.95
 21
-161.3
  0
LINE
  8
0
 10
15.95
 20
-161.3
 11
15.904
 21
-161.796
  0
LINE
  8
0
 10
15.904
 20
-161.796
 11
15.7677
 21
-162.275
  0
LINE
  8
0
 10
15.7677
 20
-162.275
 11
15.5456
 21
-162.721
  0
LINE
  8
0
 10
15.5456
 20
-162.721
 11
15.2453
 21
-163.119
  0
LINE
  8
0
 10
15.2453
 20
-163.119
 11
14.8771
 21
-163.455
  0
LINE
  8
0
 10
14.8771
 20
-163.455
 11
14.4535
 21
-163.717
  0
LINE
  8
0
 10
14.4535
 20
-163.717
 11
13.9889
 21
-163.897
  0
LINE
  8
0
 10
13.9889
 20
-163.897
 11
13.4991
 21
-163.988
  0
LINE
  8
0
 10
13.4991
 20
-163.988
 11
13.0009
 21
-163.988
  0
ENDSEC
  0
SECTION
  2
OBJECTS
  0
DICTIONARY
  0
ENDSEC
  0
EOF
