  0
SECTION
  2
BLOCKS
  0
ENDSEC
  0
SECTION
  2
ENTITIES
  0
LINE
  8
0
 10
-17.4
 20
110.25
 11
-23.1
 21
110.25
  0
LINE
  8
0
 10
-23.1
 20
110.25
 11
-23.1
 21
111.75
  0
LINE
  8
0
 10
-23.1
 20
111.75
 11
-30
 21
111.75
  0
LINE
  8
0
 10
-30
 20
111.75
 11
-30
 21
106.7
  0
LINE
  8
0
 10
-30
 20
106.7
 11
-34.875
 21
106.7
  0
LINE
  8
0
 10
-34.875
 20
106.7
 11
-36.5
 21
105.075
  0
LINE
  8
0
 10
-36.5
 20
105.075
 11
-36.5
 21
93.325
  0
LINE
  8
0
 10
-36.5
 20
93.325
 11
-34.875
 21
91.7
  0
LINE
  8
0
 10
-34.875
 20
91.7
 11
-30
 21
91.7
  0
LINE
  8
0
 10
-30
 20
91.7
 11
-30
 21
22.5
  0
LINE
  8
0
 10
-30
 20
22.5
 11
-34.875
 21
22.5
  0
LINE
  8
0
 10
-34.875
 20
22.5
 11
-36.5
 21
20.875
  0
LINE
  8
0
 10
-36.5
 20
20.875
 11
-36.5
 21
9.125
  0
LINE
  8
0
 10
-36.5
 20
9.125
 11
-34.875
 21
7.5
  0
LINE
  8
0
 10
-34.875
 20
7.5
 11
-30
 21
7.5
  0
LINE
  8
0
 10
-30
 20
7.5
 11
-30
 21
2.45
  0
LINE
  8
0
 10
-30
 20
2.45
 11
-23.1
 21
2.45
  0
LINE
  8
0
 10
-23.1
 20
2.45
 11
-23.1
 21
3.95
  0
LINE
  8
0
 10
-23.1
 20
3.95
 11
-17.4
 21
3.95
  0
LINE
  8
0
 10
-17.4
 20
3.95
 11
-17.4
 21
2.45
  0
LINE
  8
0
 10
-17.4
 20
2.45
 11
-10.5
 21
2.45
  0
LINE
  8
0
 10
-10.5
 20
2.45
 11
-10.5
 21
-2.45
  0
LINE
  8
0
 10
-10.5
 20
-2.45
 11
-17.4
 21
-2.45
  0
LINE
  8
0
 10
-17.4
 20
-2.45
 11
-17.4
 21
-3.95
  0
LINE
  8
0
 10
-17.4
 20
-3.95
 11
-23.1
 21
-3.95
  0
LINE
  8
0
 10
-23.1
 20
-3.95
 11
-23.1
 21
-2.45
  0
LINE
  8
0
 10
-23.1
 20
-2.45
 11
-30
 21
-2.45
  0
LINE
  8
0
 10
-30
 20
-2.45
 11
-30
 21
-7.5
  0
LINE
  8
0
 10
-30
 20
-7.5
 11
-34.875
 21
-7.5
  0
LINE
  8
0
 10
-34.875
 20
-7.5
 11
-36.5
 21
-9.125
  0
LINE
  8
0
 10
-36.5
 20
-9.125
 11
-36.5
 21
-20.875
  0
LINE
  8
0
 10
-36.5
 20
-20.875
 11
-34.875
 21
-22.5
  0
LINE
  8
0
 10
-34.875
 20
-22.5
 11
-30
 21
-22.5
  0
LINE
  8
0
 10
-30
 20
-22.5
 11
-30
 21
-91.7
  0
LINE
  8
0
 10
-30
 20
-91.7
 11
-34.875
 21
-91.7
  0
LINE
  8
0
 10
-34.875
 20
-91.7
 11
-36.5
 21
-93.325
  0
LINE
  8
0
 10
-36.5
 20
-93.325
 11
-36.5
 21
-105.075
  0
LINE
  8
0
 10
-36.5
 20
-105.075
 11
-34.875
 21
-106.7
  0
LINE
  8
0
 10
-34.875
 20
-106.7
 11
-30
 21
-106.7
  0
LINE
  8
0
 10
-30
 20
-106.7
 11
-30
 21
-111.75
  0
LINE
  8
0
 10
-30
 20
-111.75
 11
-23.1
 21
-111.75
  0
LINE
  8
0
 10
-23.1
 20
-111.75
 11
-23.1
 21
-110.25
  0
LINE
  8
0
 10
-23.1
 20
-110.25
 11
-17.4
 21
-110.25
  0
LINE
  8
0
 10
-17.4
 20
-110.25
 11
-17.4
 21
-111.75
  0
LINE
  8
0
 10
-17.4
 20
-111.75
 11
-10.5
 21
-111.75
  0
LINE
  8
0
 10
-10.5
 20
-111.75
 11
-10.5
 21
-116.65
  0
LINE
  8
0
 10
-10.5
 20
-116.65
 11
-17.4
 21
-116.65
  0
LINE
  8
0
 10
-17.4
 20
-116.65
 11
-17.4
 21
-118.15
  0
LINE
  8
0
 10
-17.4
 20
-118.15
 11
-23.1
 21
-118.15
  0
LINE
  8
0
 10
-23.1
 20
-118.15
 11
-23.1
 21
-116.65
  0
LINE
  8
0
 10
-23.1
 20
-116.65
 11
-30
 21
-116.65
  0
LINE
  8
0
 10
-30
 20
-116.65
 11
-30
 21
-121.7
  0
LINE
  8
0
 10
-30
 20
-121.7
 11
-34.875
 21
-121.7
  0
LINE
  8
0
 10
-34.875
 20
-121.7
 11
-36.5
 21
-123.325
  0
LINE
  8
0
 10
-36.5
 20
-123.325
 11
-36.5
 21
-135.075
  0
LINE
  8
0
 10
-36.5
 20
-135.075
 11
-34.875
 21
-136.7
  0
LINE
  8
0
 10
-34.875
 20
-136.7
 11
-30
 21
-136.7
  0
LINE
  8
0
 10
-30
 20
-136.7
 11
-30
 21
-171.3
  0
LINE
  8
0
 10
-30
 20
-171.3
 11
30
 21
-171.3
  0
LINE
  8
0
 10
30
 20
-171.3
 11
30
 21
-136.7
  0
LINE
  8
0
 10
30
 20
-136.7
 11
34.875
 21
-136.7
  0
LINE
  8
0
 10
34.875
 20
-136.7
 11
36.5
 21
-135.075
  0
LINE
  8
0
 10
36.5
 20
-135.075
 11
36.5
 21
-123.325
  0
LINE
  8
0
 10
36.5
 20
-123.325
 11
34.875
 21
-121.7
  0
LINE
  8
0
 10
34.875
 20
-121.7
 11
30
 21
-121.7
  0
LINE
  8
0
 10
30
 20
-121.7
 11
30
 21
-116.65
  0
LINE
  8
0
 10
30
 20
-116.65
 11
23.1
 21
-116.65
  0
LINE
  8
0
 10
23.1
 20
-116.65
 11
23.1
 21
-118.15
  0
LINE
  8
0
 10
23.1
 20
-118.15
 11
17.4
 21
-118.15
  0
LINE
  8
0
 10
17.4
 20
-118.15
 11
17.4
 21
-116.65
  0
LINE
  8
0
 10
17.4
 20
-116.65
 11
10.5
 21
-116.65
  0
LINE
  8
0
 10
10.5
 20
-116.65
 11
10.5
 21
-111.75
  0
LINE
  8
0
 10
10.5
 20
-111.75
 11
17.4
 21
-111.75
  0
LINE
  8
0
 10
17.4
 20
-111.75
 11
17.4
 21
-110.25
  0
LINE
  8
0
 10
17.4
 20
-110.25
 11
23.1
 21
-110.25
  0
LINE
  8
0
 10
23.1
 20
-110.25
 11
23.1
 21
-111.75
  0
LINE
  8
0
 10
23.1
 20
-111.75
 11
30
 21
-111.75
  0
LINE
  8
0
 10
30
 20
-111.75
 11
30
 21
-106.7
  0
LINE
  8
0
 10
30
 20
-106.7
 11
34.875
 21
-106.7
  0
LINE
  8
0
 10
34.875
 20
-106.7
 11
36.5
 21
-105.075
  0
LINE
  8
0
 10
36.5
 20
-105.075
 11
36.5
 21
-93.325
  0
LINE
  8
0
 10
36.5
 20
-93.325
 11
34.875
 21
-91.7
  0
LINE
  8
0
 10
34.875
 20
-91.7
 11
30
 21
-91.7
  0
LINE
  8
0
 10
30
 20
-91.7
 11
30
 21
-22.5
  0
LINE
  8
0
 10
30
 20
-22.5
 11
34.875
 21
-22.5
  0
LINE
  8
0
 10
34.875
 20
-22.5
 11
36.5
 21
-20.875
  0
LINE
  8
0
 10
36.5
 20
-20.875
 11
36.5
 21
-9.125
  0
LINE
  8
0
 10
36.5
 20
-9.125
 11
34.875
 21
-7.5
  0
LINE
  8
0
 10
34.875
 20
-7.5
 11
30
 21
-7.5
  0
LINE
  8
0
 10
30
 20
-7.5
 11
30
 21
-2.45
  0
LINE
  8
0
 10
30
 20
-2.45
 11
23.1
 21
-2.45
  0
LINE
  8
0
 10
23.1
 20
-2.45
 11
23.1
 21
-3.95
  0
LINE
  8
0
 10
23.1
 20
-3.95
 11
17.4
 21
-3.95
  0
LINE
  8
0
 10
17.4
 20
-3.95
 11
17.4
 21
-2.45
  0
LINE
  8
0
 10
17.4
 20
-2.45
 11
10.5
 21
-2.45
  0
LINE
  8
0
 10
10.5
 20
-2.45
 11
10.5
 21
2.45
  0
LINE
  8
0
 10
10.5
 20
2.45
 11
17.4
 21
2.45
  0
LINE
  8
0
 10
17.4
 20
2.45
 11
17.4
 21
3.95
  0
LINE
  8
0
 10
17.4
 20
3.95
 11
23.1
 21
3.95
  0
LINE
  8
0
 10
23.1
 20
3.95
 11
23.1
 21
2.45
  0
LINE
  8
0
 10
23.1
 20
2.45
 11
30
 21
2.45
  0
LINE
  8
0
 10
30
 20
2.45
 11
30
 21
7.5
  0
LINE
  8
0
 10
30
 20
7.5
 11
34.875
 21
7.5
  0
LINE
  8
0
 10
34.875
 20
7.5
 11
36.5
 21
9.125
  0
LINE
  8
0
 10
36.5
 20
9.125
 11
36.5
 21
20.875
  0
LINE
  8
0
 10
36.5
 20
20.875
 11
34.875
 21
22.5
  0
LINE
  8
0
 10
34.875
 20
22.5
 11
30
 21
22.5
  0
LINE
  8
0
 10
30
 20
22.5
 11
30
 21
91.7
  0
LINE
  8
0
 10
30
 20
91.7
 11
34.875
 21
91.7
  0
LINE
  8
0
 10
34.875
 20
91.7
 11
36.5
 21
93.325
  0
LINE
  8
0
 10
36.5
 20
93.325
 11
36.5
 21
105.075
  0
LINE
  8
0
 10
36.5
 20
105.075
 11
34.875
 21
106.7
  0
LINE
  8
0
 10
34.875
 20
106.7
 11
30
 21
106.7
  0
LINE
  8
0
 10
30
 20
106.7
 11
30
 21
111.75
  0
LINE
  8
0
 10
30
 20
111.75
 11
23.1
 21
111.75
  0
LINE
  8
0
 10
23.1
 20
111.75
 11
23.1
 21
110.25
  0
LINE
  8
0
 10
23.1
 20
110.25
 11
17.4
 21
110.25
  0
LINE
  8
0
 10
17.4
 20
110.25
 11
17.4
 21
111.75
  0
LINE
  8
0
 10
17.4
 20
111.75
 11
10.5
 21
111.75
  0
LINE
  8
0
 10
10.5
 20
111.75
 11
10.5
 21
116.65
  0
LINE
  8
0
 10
10.5
 20
116.65
 11
17.4
 21
116.65
  0
LINE
  8
0
 10
17.4
 20
116.65
 11
17.4
 21
118.15
  0
LINE
  8
0
 10
17.4
 20
118.15
 11
23.1
 21
118.15
  0
LINE
  8
0
 10
23.1
 20
118.15
 11
23.1
 21
116.65
  0
LINE
  8
0
 10
23.1
 20
116.65
 11
30
 21
116.65
  0
LINE
  8
0
 10
30
 20
116.65
 11
30
 21
121.7
  0
LINE
  8
0
 10
30
 20
121.7
 11
34.875
 21
121.7
  0
LINE
  8
0
 10
34.875
 20
121.7
 11
36.5
 21
123.325
  0
LINE
  8
0
 10
36.5
 20
123.325
 11
36.5
 21
135.075
  0
LINE
  8
0
 10
36.5
 20
135.075
 11
34.875
 21
136.7
  0
LINE
  8
0
 10
34.875
 20
136.7
 11
30
 21
136.7
  0
LINE
  8
0
 10
30
 20
136.7
 11
30
 21
171.3
  0
LINE
  8
0
 10
30
 20
171.3
 11
-30
 21
171.3
  0
LINE
  8
0
 10
-30
 20
171.3
 11
-30
 21
136.7
  0
LINE
  8
0
 10
-30
 20
136.7
 11
-34.875
 21
136.7
  0
LINE
  8
0
 10
-34.875
 20
136.7
 11
-36.5
 21
135.075
  0
LINE
  8
0
 10
-36.5
 20
135.075
 11
-36.5
 21
123.325
  0
LINE
  8
0
 10
-36.5
 20
123.325
 11
-34.875
 21
121.7
  0
LINE
  8
0
 10
-34.875
 20
121.7
 11
-30
 21
121.7
  0
LINE
  8
0
 10
-30
 20
121.7
 11
-30
 21
116.65
  0
LINE
  8
0
 10
-30
 20
116.65
 11
-23.1
 21
116.65
  0
LINE
  8
0
 10
-23.1
 20
116.65
 11
-23.1
 21
118.15
  0
LINE
  8
0
 10
-23.1
 20
118.15
 11
-17.4
 21
118.15
  0
LINE
  8
0
 10
-17.4
 20
118.15
 11
-17.4
 21
116.65
  0
LINE
  8
0
 10
-17.4
 20
116.65
 11
-10.5
 21
116.65
  0
LINE
  8
0
 10
-10.5
 20
116.65
 11
-10.5
 21
111.75
  0
LINE
  8
0
 10
-10.5
 20
111.75
 11
-17.4
 21
111.75
  0
LINE
  8
0
 10
-17.4
 20
111.75
 11
-17.4
 21
110.25
  0
LINE
  8
0
 10
17.548
 20
161.788
 11
17.6903
 21
162.257
  0
LINE
  8
0
 10
17.6903
 20
162.257
 11
17.9213
 21
162.689
  0
LINE
  8
0
 10
17.9213
 20
162.689
 11
18.2322
 21
163.068
  0
LINE
  8
0
 10
18.2322
 20
163.068
 11
18.6111
 21
163.379
  0
LINE
  8
0
 10
18.6111
 20
163.379
 11
19.0433
 21
163.61
  0
LINE
  8
0
 10
19.0433
 20
163.61
 11
19.5123
 21
163.752
  0
LINE
  8
0
 10
19.5123
 20
163.752
 11
20
 21
163.8
  0
LINE
  8
0
 10
20
 20
163.8
 11
20.4877
 21
163.752
  0
LINE
  8
0
 10
20.4877
 20
163.752
 11
20.9567
 21
163.61
  0
LINE
  8
0
 10
20.9567
 20
163.61
 11
21.3889
 21
163.379
  0
LINE
  8
0
 10
21.3889
 20
163.379
 11
21.7678
 21
163.068
  0
LINE
  8
0
 10
21.7678
 20
163.068
 11
22.0787
 21
162.689
  0
LINE
  8
0
 10
22.0787
 20
162.689
 11
22.3097
 21
162.257
  0
LINE
  8
0
 10
22.3097
 20
162.257
 11
22.452
 21
161.788
  0
LINE
  8
0
 10
22.452
 20
161.788
 11
22.5
 21
161.3
  0
LINE
  8
0
 10
22.5
 20
161.3
 11
22.452
 21
160.812
  0
LINE
  8
0
 10
22.452
 20
160.812
 11
22.3097
 21
160.343
  0
LINE
  8
0
 10
22.3097
 20
160.343
 11
22.0787
 21
159.911
  0
LINE
  8
0
 10
22.0787
 20
159.911
 11
21.7678
 21
159.532
  0
LINE
  8
0
 10
21.7678
 20
159.532
 11
21.3889
 21
159.221
  0
LINE
  8
0
 10
21.3889
 20
159.221
 11
20.9567
 21
158.99
  0
LINE
  8
0
 10
20.9567
 20
158.99
 11
20.4877
 21
158.848
  0
LINE
  8
0
 10
20.4877
 20
158.848
 11
20
 21
158.8
  0
LINE
  8
0
 10
20
 20
158.8
 11
19.5123
 21
158.848
  0
LINE
  8
0
 10
19.5123
 20
158.848
 11
19.0433
 21
158.99
  0
LINE
  8
0
 10
19.0433
 20
158.99
 11
18.6111
 21
159.221
  0
LINE
  8
0
 10
18.6111
 20
159.221
 11
18.2322
 21
159.532
  0
LINE
  8
0
 10
18.2322
 20
159.532
 11
17.9213
 21
159.911
  0
LINE
  8
0
 10
17.9213
 20
159.911
 11
17.6903
 21
160.343
  0
LINE
  8
0
 10
17.6903
 20
160.343
 11
17.548
 21
160.812
  0
LINE
  8
0
 10
17.548
 20
160.812
 11
17.5
 21
161.3
  0
LINE
  8
0
 10
17.5
 20
161.3
 11
17.548
 21
161.788
  0
LINE
  8
0
 10
19.5123
 20
-163.752
 11
19.0433
 21
-163.61
  0
LINE
  8
0
 10
19.0433
 20
-163.61
 11
18.6111
 21
-163.379
  0
LINE
  8
0
 10
18.6111
 20
-163.379
 11
18.2322
 21
-163.068
  0
LINE
  8
0
 10
18.2322
 20
-163.068
 11
17.9213
 21
-162.689
  0
LINE
  8
0
 10
17.9213
 20
-162.689
 11
17.6903
 21
-162.257
  0
LINE
  8
0
 10
17.6903
 20
-162.257
 11
17.548
 21
-161.788
  0
LINE
  8
0
 10
17.548
 20
-161.788
 11
17.5
 21
-161.3
  0
LINE
  8
0
 10
17.5
 20
-161.3
 11
17.548
 21
-160.812
  0
LINE
  8
0
 10
17.548
 20
-160.812
 11
17.6903
 21
-160.343
  0
LINE
  8
0
 10
17.6903
 20
-160.343
 11
17.9213
 21
-159.911
  0
LINE
  8
0
 10
17.9213
 20
-159.911
 11
18.2322
 21
-159.532
  0
LINE
  8
0
 10
18.2322
 20
-159.532
 11
18.6111
 21
-159.221
  0
LINE
  8
0
 10
18.6111
 20
-159.221
 11
19.0433
 21
-158.99
  0
LINE
  8
0
 10
19.0433
 20
-158.99
 11
19.5123
 21
-158.848
  0
LINE
  8
0
 10
19.5123
 20
-158.848
 11
20
 21
-158.8
  0
LINE
  8
0
 10
20
 20
-158.8
 11
20.4877
 21
-158.848
  0
LINE
  8
0
 10
20.4877
 20
-158.848
 11
20.9567
 21
-158.99
  0
LINE
  8
0
 10
20.9567
 20
-158.99
 11
21.3889
 21
-159.221
  0
LINE
  8
0
 10
21.3889
 20
-159.221
 11
21.7678
 21
-159.532
  0
LINE
  8
0
 10
21.7678
 20
-159.532
 11
22.0787
 21
-159.911
  0
LINE
  8
0
 10
22.0787
 20
-159.911
 11
22.3097
 21
-160.343
  0
LINE
  8
0
 10
22.3097
 20
-160.343
 11
22.452
 21
-160.812
  0
LINE
  8
0
 10
22.452
 20
-160.812
 11
22.5
 21
-161.3
  0
LINE
  8
0
 10
22.5
 20
-161.3
 11
22.452
 21
-161.788
  0
LINE
  8
0
 10
22.452
 20
-161.788
 11
22.3097
 21
-162.257
  0
LINE
  8
0
 10
22.3097
 20
-162.257
 11
22.0787
 21
-162.689
  0
LINE
  8
0
 10
22.0787
 20
-162.689
 11
21.7678
 21
-163.068
  0
LINE
  8
0
 10
21.7678
 20
-163.068
 11
21.3889
 21
-163.379
  0
LINE
  8
0
 10
21.3889
 20
-163.379
 11
20.9567
 21
-163.61
  0
LINE
  8
0
 10
20.9567
 20
-163.61
 11
20.4877
 21
-163.752
  0
LINE
  8
0
 10
20.4877
 20
-163.752
 11
20
 21
-163.8
  0
LINE
  8
0
 10
20
 20
-163.8
 11
19.5123
 21
-163.752
  0
LINE
  8
0
 10
-20.4877
 20
-163.752
 11
-20.9567
 21
-163.61
  0
LINE
  8
0
 10
-20.9567
 20
-163.61
 11
-21.3889
 21
-163.379
  0
LINE
  8
0
 10
-21.3889
 20
-163.379
 11
-21.7678
 21
-163.068
  0
LINE
  8
0
 10
-21.7678
 20
-163.068
 11
-22.0787
 21
-162.689
  0
LINE
  8
0
 10
-22.0787
 20
-162.689
 11
-22.3097
 21
-162.257
  0
LINE
  8
0
 10
-22.3097
 20
-162.257
 11
-22.452
 21
-161.788
  0
LINE
  8
0
 10
-22.452
 20
-161.788
 11
-22.5
 21
-161.3
  0
LINE
  8
0
 10
-22.5
 20
-161.3
 11
-22.452
 21
-160.812
  0
LINE
  8
0
 10
-22.452
 20
-160.812
 11
-22.3097
 21
-160.343
  0
LINE
  8
0
 10
-22.3097
 20
-160.343
 11
-22.0787
 21
-159.911
  0
LINE
  8
0
 10
-22.0787
 20
-159.911
 11
-21.7678
 21
-159.532
  0
LINE
  8
0
 10
-21.7678
 20
-159.532
 11
-21.3889
 21
-159.221
  0
LINE
  8
0
 10
-21.3889
 20
-159.221
 11
-20.9567
 21
-158.99
  0
LINE
  8
0
 10
-20.9567
 20
-158.99
 11
-20.4877
 21
-158.848
  0
LINE
  8
0
 10
-20.4877
 20
-158.848
 11
-20
 21
-158.8
  0
LINE
  8
0
 10
-20
 20
-158.8
 11
-19.5123
 21
-158.848
  0
LINE
  8
0
 10
-19.5123
 20
-158.848
 11
-19.0433
 21
-158.99
  0
LINE
  8
0
 10
-19.0433
 20
-158.99
 11
-18.6111
 21
-159.221
  0
LINE
  8
0
 10
-18.6111
 20
-159.221
 11
-18.2322
 21
-159.532
  0
LINE
  8
0
 10
-18.2322
 20
-159.532
 11
-17.9213
 21
-159.911
  0
LINE
  8
0
 10
-17.9213
 20
-159.911
 11
-17.6903
 21
-160.343
  0
LINE
  8
0
 10
-17.6903
 20
-160.343
 11
-17.548
 21
-160.812
  0
LINE
  8
0
 10
-17.548
 20
-160.812
 11
-17.5
 21
-161.3
  0
LINE
  8
0
 10
-17.5
 20
-161.3
 11
-17.548
 21
-161.788
  0
LINE
  8
0
 10
-17.548
 20
-161.788
 11
-17.6903
 21
-162.257
  0
LINE
  8
0
 10
-17.6903
 20
-162.257
 11
-17.9213
 21
-162.689
  0
LINE
  8
0
 10
-17.9213
 20
-162.689
 11
-18.2322
 21
-163.068
  0
LINE
  8
0
 10
-18.2322
 20
-163.068
 11
-18.6111
 21
-163.379
  0
LINE
  8
0
 10
-18.6111
 20
-163.379
 11
-19.0433
 21
-163.61
  0
LINE
  8
0
 10
-19.0433
 20
-163.61
 11
-19.5123
 21
-163.752
  0
LINE
  8
0
 10
-19.5123
 20
-163.752
 11
-20
 21
-163.8
  0
LINE
  8
0
 10
-20
 20
-163.8
 11
-20.4877
 21
-163.752
  0
LINE
  8
0
 10
-17.9213
 20
159.911
 11
-18.2322
 21
159.532
  0
LINE
  8
0
 10
-18.2322
 20
159.532
 11
-18.6111
 21
159.221
  0
LINE
  8
0
 10
-18.6111
 20
159.221
 11
-19.0433
 21
158.99
  0
LINE
  8
0
 10
-19.0433
 20
158.99
 11
-19.5123
 21
158.848
  0
LINE
  8
0
 10
-19.5123
 20
158.848
 11
-20
 21
158.8
  0
LINE
  8
0
 10
-20
 20
158.8
 11
-20.4877
 21
158.848
  0
LINE
  8
0
 10
-20.4877
 20
158.848
 11
-20.9567
 21
158.99
  0
LINE
  8
0
 10
-20.9567
 20
158.99
 11
-21.3889
 21
159.221
  0
LINE
  8
0
 10
-21.3889
 20
159.221
 11
-21.7678
 21
159.532
  0
LINE
  8
0
 10
-21.7678
 20
159.532
 11
-22.0787
 21
159.911
  0
LINE
  8
0
 10
-22.0787
 20
159.911
 11
-22.3097
 21
160.343
  0
LINE
  8
0
 10
-22.3097
 20
160.343
 11
-22.452
 21
160.812
  0
LINE
  8
0
 10
-22.452
 20
160.812
 11
-22.5
 21
161.3
  0
LINE
  8
0
 10
-22.5
 20
161.3
 11
-22.452
 21
161.788
  0
LINE
  8
0
 10
-22.452
 20
161.788
 11
-22.3097
 21
162.257
  0
LINE
  8
0
 10
-22.3097
 20
162.257
 11
-22.0787
 21
162.689
  0
LINE
  8
0
 10
-22.0787
 20
162.689
 11
-21.7678
 21
163.068
  0
LINE
  8
0
 10
-21.7678
 20
163.068
 11
-21.3889
 21
163.379
  0
LINE
  8
0
 10
-21.3889
 20
163.379
 11
-20.9567
 21
163.61
  0
LINE
  8
0
 10
-20.9567
 20
163.61
 11
-20.4877
 21
163.752
  0
LINE
  8
0
 10
-20.4877
 20
163.752
 11
-20
 21
163.8
  0
LINE
  8
0
 10
-20
 20
163.8
 11
-19.5123
 21
163.752
  0
LINE
  8
0
 10
-19.5123
 20
163.752
 11
-19.0433
 21
163.61
  0
LINE
  8
0
 10
-19.0433
 20
163.61
 11
-18.6111
 21
163.379
  0
LINE
  8
0
 10
-18.6111
 20
163.379
 11
-18.2322
 21
163.068
  0
LINE
  8
0
 10
-18.2322
 20
163.068
 11
-17.9213
 21
162.689
  0
LINE
  8
0
 10
-17.9213
 20
162.689
 11
-17.6903
 21
162.257
  0
LINE
  8
0
 10
-17.6903
 20
162.257
 11
-17.548
 21
161.788
  0
LINE
  8
0
 10
-17.548
 20
161.788
 11
-17.5
 21
161.3
  0
LINE
  8
0
 10
-17.5
 20
161.3
 11
-17.548
 21
160.812
  0
LINE
  8
0
 10
-17.548
 20
160.812
 11
-17.6903
 21
160.343
  0
LINE
  8
0
 10
-17.6903
 20
160.343
 11
-17.9213
 21
159.911
  0
ENDSEC
  0
SECTION
  2
OBJECTS
  0
DICTIONARY
  0
ENDSEC
  0
EOF
