  0
SECTION
  2
BLOCKS
  0
ENDSEC
  0
SECTION
  2
ENTITIES
  0
LINE
  8
0
 10
10.65
 20
-144.85
 11
7.95
 21
-144.85
  0
LINE
  8
0
 10
7.95
 20
-144.85
 11
7.95
 21
-144.75
  0
LINE
  8
0
 10
7.95
 20
-144.75
 11
10.45
 21
-124.75
  0
LINE
  8
0
 10
10.45
 20
-124.75
 11
16.05
 21
-124.75
  0
LINE
  8
0
 10
16.05
 20
-124.75
 11
18.55
 21
-144.75
  0
LINE
  8
0
 10
18.55
 20
-144.75
 11
18.55
 21
-144.85
  0
LINE
  8
0
 10
18.55
 20
-144.85
 11
15.85
 21
-144.85
  0
LINE
  8
0
 10
15.85
 20
-144.85
 11
15.85
 21
-151.3
  0
LINE
  8
0
 10
15.85
 20
-151.3
 11
23.25
 21
-151.3
  0
LINE
  8
0
 10
23.25
 20
-151.3
 11
23.25
 21
151.3
  0
LINE
  8
0
 10
23.25
 20
151.3
 11
15.85
 21
151.3
  0
LINE
  8
0
 10
15.85
 20
151.3
 11
15.85
 21
144.85
  0
LINE
  8
0
 10
15.85
 20
144.85
 11
18.55
 21
144.85
  0
LINE
  8
0
 10
18.55
 20
144.85
 11
18.55
 21
144.75
  0
LINE
  8
0
 10
18.55
 20
144.75
 11
16.05
 21
124.75
  0
LINE
  8
0
 10
16.05
 20
124.75
 11
10.45
 21
124.75
  0
LINE
  8
0
 10
10.45
 20
124.75
 11
7.95
 21
144.75
  0
LINE
  8
0
 10
7.95
 20
144.75
 11
7.95
 21
144.85
  0
LINE
  8
0
 10
7.95
 20
144.85
 11
10.65
 21
144.85
  0
LINE
  8
0
 10
10.65
 20
144.85
 11
10.65
 21
151.3
  0
LINE
  8
0
 10
10.65
 20
151.3
 11
-3.25
 21
151.3
  0
LINE
  8
0
 10
-3.25
 20
151.3
 11
-3.25
 21
20
  0
LINE
  8
0
 10
-3.25
 20
20
 11
3.25
 21
20
  0
LINE
  8
0
 10
3.25
 20
20
 11
3.25
 21
-20
  0
LINE
  8
0
 10
3.25
 20
-20
 11
-3.25
 21
-20
  0
LINE
  8
0
 10
-3.25
 20
-20
 11
-3.25
 21
-151.3
  0
LINE
  8
0
 10
-3.25
 20
-151.3
 11
10.65
 21
-151.3
  0
LINE
  8
0
 10
10.65
 20
-151.3
 11
10.65
 21
-144.85
  0
LINE
  8
0
 10
-3.2
 20
121.75
 11
-3.2
 21
136.65
  0
LINE
  8
0
 10
-3.2
 20
136.65
 11
3.2
 21
136.65
  0
LINE
  8
0
 10
3.2
 20
136.65
 11
3.2
 21
121.75
  0
LINE
  8
0
 10
3.2
 20
121.75
 11
-3.2
 21
121.75
  0
LINE
  8
0
 10
0.203873
 20
111.546
 11
-0.275345
 21
111.682
  0
LINE
  8
0
 10
-0.275345
 20
111.682
 11
-0.721359
 21
111.904
  0
LINE
  8
0
 10
-0.721359
 20
111.904
 11
-1.11897
 21
112.205
  0
LINE
  8
0
 10
-1.11897
 20
112.205
 11
-1.45464
 21
112.573
  0
LINE
  8
0
 10
-1.45464
 20
112.573
 11
-1.71693
 21
112.997
  0
LINE
  8
0
 10
-1.71693
 20
112.997
 11
-1.89693
 21
113.461
  0
LINE
  8
0
 10
-1.89693
 20
113.461
 11
-1.98848
 21
113.951
  0
LINE
  8
0
 10
-1.98848
 20
113.951
 11
-1.98848
 21
114.449
  0
LINE
  8
0
 10
-1.98848
 20
114.449
 11
-1.89693
 21
114.939
  0
LINE
  8
0
 10
-1.89693
 20
114.939
 11
-1.71693
 21
115.403
  0
LINE
  8
0
 10
-1.71693
 20
115.403
 11
-1.45464
 21
115.827
  0
LINE
  8
0
 10
-1.45464
 20
115.827
 11
-1.11897
 21
116.195
  0
LINE
  8
0
 10
-1.11897
 20
116.195
 11
-0.721359
 21
116.496
  0
LINE
  8
0
 10
-0.721359
 20
116.496
 11
-0.275345
 21
116.718
  0
LINE
  8
0
 10
-0.275345
 20
116.718
 11
0.203873
 21
116.854
  0
LINE
  8
0
 10
0.203873
 20
116.854
 11
0.699997
 21
116.9
  0
LINE
  8
0
 10
0.699997
 20
116.9
 11
1.19612
 21
116.854
  0
LINE
  8
0
 10
1.19612
 20
116.854
 11
1.67534
 21
116.718
  0
LINE
  8
0
 10
1.67534
 20
116.718
 11
2.12135
 21
116.496
  0
LINE
  8
0
 10
2.12135
 20
116.496
 11
2.51897
 21
116.195
  0
LINE
  8
0
 10
2.51897
 20
116.195
 11
2.85464
 21
115.827
  0
LINE
  8
0
 10
2.85464
 20
115.827
 11
3.11693
 21
115.403
  0
LINE
  8
0
 10
3.11693
 20
115.403
 11
3.29692
 21
114.939
  0
LINE
  8
0
 10
3.29692
 20
114.939
 11
3.38847
 21
114.449
  0
LINE
  8
0
 10
3.38847
 20
114.449
 11
3.38847
 21
113.951
  0
LINE
  8
0
 10
3.38847
 20
113.951
 11
3.29692
 21
113.461
  0
LINE
  8
0
 10
3.29692
 20
113.461
 11
3.11693
 21
112.997
  0
LINE
  8
0
 10
3.11693
 20
112.997
 11
2.85464
 21
112.573
  0
LINE
  8
0
 10
2.85464
 20
112.573
 11
2.51897
 21
112.205
  0
LINE
  8
0
 10
2.51897
 20
112.205
 11
2.12135
 21
111.904
  0
LINE
  8
0
 10
2.12135
 20
111.904
 11
1.67534
 21
111.682
  0
LINE
  8
0
 10
1.67534
 20
111.682
 11
1.19612
 21
111.546
  0
LINE
  8
0
 10
1.19612
 20
111.546
 11
0.699997
 21
111.5
  0
LINE
  8
0
 10
0.699997
 20
111.5
 11
0.203873
 21
111.546
  0
LINE
  8
0
 10
-3.2
 20
91.75
 11
-3.2
 21
106.65
  0
LINE
  8
0
 10
-3.2
 20
106.65
 11
3.2
 21
106.65
  0
LINE
  8
0
 10
3.2
 20
106.65
 11
3.2
 21
91.75
  0
LINE
  8
0
 10
3.2
 20
91.75
 11
-3.2
 21
91.75
  0
LINE
  8
0
 10
-3.2
 20
57.798
 11
-3.2
 21
72.698
  0
LINE
  8
0
 10
-3.2
 20
72.698
 11
3.2
 21
72.698
  0
LINE
  8
0
 10
3.2
 20
72.698
 11
3.2
 21
57.798
  0
LINE
  8
0
 10
3.2
 20
57.798
 11
-3.2
 21
57.798
  0
LINE
  8
0
 10
0.203873
 20
47.594
 11
-0.275345
 21
47.7303
  0
LINE
  8
0
 10
-0.275345
 20
47.7303
 11
-0.721359
 21
47.9524
  0
LINE
  8
0
 10
-0.721359
 20
47.9524
 11
-1.11897
 21
48.2527
  0
LINE
  8
0
 10
-1.11897
 20
48.2527
 11
-1.45464
 21
48.6209
  0
LINE
  8
0
 10
-1.45464
 20
48.6209
 11
-1.71693
 21
49.0445
  0
LINE
  8
0
 10
-1.71693
 20
49.0445
 11
-1.89693
 21
49.5091
  0
LINE
  8
0
 10
-1.89693
 20
49.5091
 11
-1.98848
 21
49.9989
  0
LINE
  8
0
 10
-1.98848
 20
49.9989
 11
-1.98848
 21
50.4971
  0
LINE
  8
0
 10
-1.98848
 20
50.4971
 11
-1.89693
 21
50.9869
  0
LINE
  8
0
 10
-1.89693
 20
50.9869
 11
-1.71693
 21
51.4515
  0
LINE
  8
0
 10
-1.71693
 20
51.4515
 11
-1.45464
 21
51.8751
  0
LINE
  8
0
 10
-1.45464
 20
51.8751
 11
-1.11897
 21
52.2433
  0
LINE
  8
0
 10
-1.11897
 20
52.2433
 11
-0.721359
 21
52.5436
  0
LINE
  8
0
 10
-0.721359
 20
52.5436
 11
-0.275345
 21
52.7657
  0
LINE
  8
0
 10
-0.275345
 20
52.7657
 11
0.203873
 21
52.902
  0
LINE
  8
0
 10
0.203873
 20
52.902
 11
0.699997
 21
52.948
  0
LINE
  8
0
 10
0.699997
 20
52.948
 11
1.19612
 21
52.902
  0
LINE
  8
0
 10
1.19612
 20
52.902
 11
1.67534
 21
52.7657
  0
LINE
  8
0
 10
1.67534
 20
52.7657
 11
2.12135
 21
52.5436
  0
LINE
  8
0
 10
2.12135
 20
52.5436
 11
2.51897
 21
52.2433
  0
LINE
  8
0
 10
2.51897
 20
52.2433
 11
2.85464
 21
51.8751
  0
LINE
  8
0
 10
2.85464
 20
51.8751
 11
3.11693
 21
51.4515
  0
LINE
  8
0
 10
3.11693
 20
51.4515
 11
3.29692
 21
50.9869
  0
LINE
  8
0
 10
3.29692
 20
50.9869
 11
3.38847
 21
50.4971
  0
LINE
  8
0
 10
3.38847
 20
50.4971
 11
3.38847
 21
49.9989
  0
LINE
  8
0
 10
3.38847
 20
49.9989
 11
3.29692
 21
49.5091
  0
LINE
  8
0
 10
3.29692
 20
49.5091
 11
3.11693
 21
49.0445
  0
LINE
  8
0
 10
3.11693
 20
49.0445
 11
2.85464
 21
48.6209
  0
LINE
  8
0
 10
2.85464
 20
48.6209
 11
2.51897
 21
48.2527
  0
LINE
  8
0
 10
2.51897
 20
48.2527
 11
2.12135
 21
47.9524
  0
LINE
  8
0
 10
2.12135
 20
47.9524
 11
1.67534
 21
47.7303
  0
LINE
  8
0
 10
1.67534
 20
47.7303
 11
1.19612
 21
47.594
  0
LINE
  8
0
 10
1.19612
 20
47.594
 11
0.699997
 21
47.548
  0
LINE
  8
0
 10
0.699997
 20
47.548
 11
0.203873
 21
47.594
  0
LINE
  8
0
 10
-3.2
 20
27.798
 11
-3.2
 21
42.698
  0
LINE
  8
0
 10
-3.2
 20
42.698
 11
3.2
 21
42.698
  0
LINE
  8
0
 10
3.2
 20
42.698
 11
3.2
 21
27.798
  0
LINE
  8
0
 10
3.2
 20
27.798
 11
-3.2
 21
27.798
  0
LINE
  8
0
 10
-3.2
 20
-42.698
 11
-3.2
 21
-27.798
  0
LINE
  8
0
 10
-3.2
 20
-27.798
 11
3.2
 21
-27.798
  0
LINE
  8
0
 10
3.2
 20
-27.798
 11
3.2
 21
-42.698
  0
LINE
  8
0
 10
3.2
 20
-42.698
 11
-3.2
 21
-42.698
  0
LINE
  8
0
 10
0.203873
 20
-52.902
 11
-0.275345
 21
-52.7657
  0
LINE
  8
0
 10
-0.275345
 20
-52.7657
 11
-0.721359
 21
-52.5436
  0
LINE
  8
0
 10
-0.721359
 20
-52.5436
 11
-1.11897
 21
-52.2433
  0
LINE
  8
0
 10
-1.11897
 20
-52.2433
 11
-1.45464
 21
-51.8751
  0
LINE
  8
0
 10
-1.45464
 20
-51.8751
 11
-1.71693
 21
-51.4515
  0
LINE
  8
0
 10
-1.71693
 20
-51.4515
 11
-1.89693
 21
-50.9869
  0
LINE
  8
0
 10
-1.89693
 20
-50.9869
 11
-1.98848
 21
-50.4971
  0
LINE
  8
0
 10
-1.98848
 20
-50.4971
 11
-1.98848
 21
-49.9989
  0
LINE
  8
0
 10
-1.98848
 20
-49.9989
 11
-1.89693
 21
-49.5091
  0
LINE
  8
0
 10
-1.89693
 20
-49.5091
 11
-1.71693
 21
-49.0445
  0
LINE
  8
0
 10
-1.71693
 20
-49.0445
 11
-1.45464
 21
-48.6209
  0
LINE
  8
0
 10
-1.45464
 20
-48.6209
 11
-1.11897
 21
-48.2527
  0
LINE
  8
0
 10
-1.11897
 20
-48.2527
 11
-0.721359
 21
-47.9524
  0
LINE
  8
0
 10
-0.721359
 20
-47.9524
 11
-0.275345
 21
-47.7303
  0
LINE
  8
0
 10
-0.275345
 20
-47.7303
 11
0.203873
 21
-47.594
  0
LINE
  8
0
 10
0.203873
 20
-47.594
 11
0.699997
 21
-47.548
  0
LINE
  8
0
 10
0.699997
 20
-47.548
 11
1.19612
 21
-47.594
  0
LINE
  8
0
 10
1.19612
 20
-47.594
 11
1.67534
 21
-47.7303
  0
LINE
  8
0
 10
1.67534
 20
-47.7303
 11
2.12135
 21
-47.9524
  0
LINE
  8
0
 10
2.12135
 20
-47.9524
 11
2.51897
 21
-48.2527
  0
LINE
  8
0
 10
2.51897
 20
-48.2527
 11
2.85464
 21
-48.6209
  0
LINE
  8
0
 10
2.85464
 20
-48.6209
 11
3.11693
 21
-49.0445
  0
LINE
  8
0
 10
3.11693
 20
-49.0445
 11
3.29692
 21
-49.5091
  0
LINE
  8
0
 10
3.29692
 20
-49.5091
 11
3.38847
 21
-49.9989
  0
LINE
  8
0
 10
3.38847
 20
-49.9989
 11
3.38847
 21
-50.4971
  0
LINE
  8
0
 10
3.38847
 20
-50.4971
 11
3.29692
 21
-50.9869
  0
LINE
  8
0
 10
3.29692
 20
-50.9869
 11
3.11693
 21
-51.4515
  0
LINE
  8
0
 10
3.11693
 20
-51.4515
 11
2.85464
 21
-51.8751
  0
LINE
  8
0
 10
2.85464
 20
-51.8751
 11
2.51897
 21
-52.2433
  0
LINE
  8
0
 10
2.51897
 20
-52.2433
 11
2.12135
 21
-52.5436
  0
LINE
  8
0
 10
2.12135
 20
-52.5436
 11
1.67534
 21
-52.7657
  0
LINE
  8
0
 10
1.67534
 20
-52.7657
 11
1.19612
 21
-52.902
  0
LINE
  8
0
 10
1.19612
 20
-52.902
 11
0.699997
 21
-52.948
  0
LINE
  8
0
 10
0.699997
 20
-52.948
 11
0.203873
 21
-52.902
  0
LINE
  8
0
 10
-3.2
 20
-72.698
 11
-3.2
 21
-57.798
  0
LINE
  8
0
 10
-3.2
 20
-57.798
 11
3.2
 21
-57.798
  0
LINE
  8
0
 10
3.2
 20
-57.798
 11
3.2
 21
-72.698
  0
LINE
  8
0
 10
3.2
 20
-72.698
 11
-3.2
 21
-72.698
  0
LINE
  8
0
 10
-3.2
 20
-106.65
 11
-3.2
 21
-91.75
  0
LINE
  8
0
 10
-3.2
 20
-91.75
 11
3.2
 21
-91.75
  0
LINE
  8
0
 10
3.2
 20
-91.75
 11
3.2
 21
-106.65
  0
LINE
  8
0
 10
3.2
 20
-106.65
 11
-3.2
 21
-106.65
  0
LINE
  8
0
 10
0.203873
 20
-116.854
 11
-0.275345
 21
-116.718
  0
LINE
  8
0
 10
-0.275345
 20
-116.718
 11
-0.721359
 21
-116.496
  0
LINE
  8
0
 10
-0.721359
 20
-116.496
 11
-1.11897
 21
-116.195
  0
LINE
  8
0
 10
-1.11897
 20
-116.195
 11
-1.45464
 21
-115.827
  0
LINE
  8
0
 10
-1.45464
 20
-115.827
 11
-1.71693
 21
-115.403
  0
LINE
  8
0
 10
-1.71693
 20
-115.403
 11
-1.89693
 21
-114.939
  0
LINE
  8
0
 10
-1.89693
 20
-114.939
 11
-1.98848
 21
-114.449
  0
LINE
  8
0
 10
-1.98848
 20
-114.449
 11
-1.98848
 21
-113.951
  0
LINE
  8
0
 10
-1.98848
 20
-113.951
 11
-1.89693
 21
-113.461
  0
LINE
  8
0
 10
-1.89693
 20
-113.461
 11
-1.71693
 21
-112.997
  0
LINE
  8
0
 10
-1.71693
 20
-112.997
 11
-1.45464
 21
-112.573
  0
LINE
  8
0
 10
-1.45464
 20
-112.573
 11
-1.11897
 21
-112.205
  0
LINE
  8
0
 10
-1.11897
 20
-112.205
 11
-0.721359
 21
-111.904
  0
LINE
  8
0
 10
-0.721359
 20
-111.904
 11
-0.275345
 21
-111.682
  0
LINE
  8
0
 10
-0.275345
 20
-111.682
 11
0.203873
 21
-111.546
  0
LINE
  8
0
 10
0.203873
 20
-111.546
 11
0.699997
 21
-111.5
  0
LINE
  8
0
 10
0.699997
 20
-111.5
 11
1.19612
 21
-111.546
  0
LINE
  8
0
 10
1.19612
 20
-111.546
 11
1.67534
 21
-111.682
  0
LINE
  8
0
 10
1.67534
 20
-111.682
 11
2.12135
 21
-111.904
  0
LINE
  8
0
 10
2.12135
 20
-111.904
 11
2.51897
 21
-112.205
  0
LINE
  8
0
 10
2.51897
 20
-112.205
 11
2.85464
 21
-112.573
  0
LINE
  8
0
 10
2.85464
 20
-112.573
 11
3.11693
 21
-112.997
  0
LINE
  8
0
 10
3.11693
 20
-112.997
 11
3.29692
 21
-113.461
  0
LINE
  8
0
 10
3.29692
 20
-113.461
 11
3.38847
 21
-113.951
  0
LINE
  8
0
 10
3.38847
 20
-113.951
 11
3.38847
 21
-114.449
  0
LINE
  8
0
 10
3.38847
 20
-114.449
 11
3.29692
 21
-114.939
  0
LINE
  8
0
 10
3.29692
 20
-114.939
 11
3.11693
 21
-115.403
  0
LINE
  8
0
 10
3.11693
 20
-115.403
 11
2.85464
 21
-115.827
  0
LINE
  8
0
 10
2.85464
 20
-115.827
 11
2.51897
 21
-116.195
  0
LINE
  8
0
 10
2.51897
 20
-116.195
 11
2.12135
 21
-116.496
  0
LINE
  8
0
 10
2.12135
 20
-116.496
 11
1.67534
 21
-116.718
  0
LINE
  8
0
 10
1.67534
 20
-116.718
 11
1.19612
 21
-116.854
  0
LINE
  8
0
 10
1.19612
 20
-116.854
 11
0.699997
 21
-116.9
  0
LINE
  8
0
 10
0.699997
 20
-116.9
 11
0.203873
 21
-116.854
  0
LINE
  8
0
 10
-3.2
 20
-136.65
 11
-3.2
 21
-121.75
  0
LINE
  8
0
 10
-3.2
 20
-121.75
 11
3.2
 21
-121.75
  0
LINE
  8
0
 10
3.2
 20
-121.75
 11
3.2
 21
-136.65
  0
LINE
  8
0
 10
3.2
 20
-136.65
 11
-3.2
 21
-136.65
  0
ENDSEC
  0
SECTION
  2
OBJECTS
  0
DICTIONARY
  0
ENDSEC
  0
EOF
