  0
SECTION
  2
BLOCKS
  0
ENDSEC
  0
SECTION
  2
ENTITIES
  0
LINE
  8
0
 10
30
 20
-136.7
 11
34.875
 21
-136.7
  0
LINE
  8
0
 10
34.875
 20
-136.7
 11
36.5
 21
-135.075
  0
LINE
  8
0
 10
36.5
 20
-135.075
 11
36.5
 21
-123.325
  0
LINE
  8
0
 10
36.5
 20
-123.325
 11
34.875
 21
-121.7
  0
LINE
  8
0
 10
34.875
 20
-121.7
 11
30
 21
-121.7
  0
LINE
  8
0
 10
30
 20
-121.7
 11
30
 21
-116.65
  0
LINE
  8
0
 10
30
 20
-116.65
 11
23.1
 21
-116.65
  0
LINE
  8
0
 10
23.1
 20
-116.65
 11
23.1
 21
-118.15
  0
LINE
  8
0
 10
23.1
 20
-118.15
 11
17.4
 21
-118.15
  0
LINE
  8
0
 10
17.4
 20
-118.15
 11
17.4
 21
-116.65
  0
LINE
  8
0
 10
17.4
 20
-116.65
 11
10.5
 21
-116.65
  0
LINE
  8
0
 10
10.5
 20
-116.65
 11
10.5
 21
-111.75
  0
LINE
  8
0
 10
10.5
 20
-111.75
 11
17.4
 21
-111.75
  0
LINE
  8
0
 10
17.4
 20
-111.75
 11
17.4
 21
-110.25
  0
LINE
  8
0
 10
17.4
 20
-110.25
 11
23.1
 21
-110.25
  0
LINE
  8
0
 10
23.1
 20
-110.25
 11
23.1
 21
-111.75
  0
LINE
  8
0
 10
23.1
 20
-111.75
 11
30
 21
-111.75
  0
LINE
  8
0
 10
30
 20
-111.75
 11
30
 21
-106.7
  0
LINE
  8
0
 10
30
 20
-106.7
 11
34.875
 21
-106.7
  0
LINE
  8
0
 10
34.875
 20
-106.7
 11
36.5
 21
-105.075
  0
LINE
  8
0
 10
36.5
 20
-105.075
 11
36.5
 21
-93.325
  0
LINE
  8
0
 10
36.5
 20
-93.325
 11
34.875
 21
-91.7
  0
LINE
  8
0
 10
34.875
 20
-91.7
 11
30
 21
-91.7
  0
LINE
  8
0
 10
30
 20
-91.7
 11
30
 21
-22.5
  0
LINE
  8
0
 10
30
 20
-22.5
 11
34.875
 21
-22.5
  0
LINE
  8
0
 10
34.875
 20
-22.5
 11
36.5
 21
-20.875
  0
LINE
  8
0
 10
36.5
 20
-20.875
 11
36.5
 21
-9.125
  0
LINE
  8
0
 10
36.5
 20
-9.125
 11
34.875
 21
-7.5
  0
LINE
  8
0
 10
34.875
 20
-7.5
 11
30
 21
-7.5
  0
LINE
  8
0
 10
30
 20
-7.5
 11
30
 21
-2.45
  0
LINE
  8
0
 10
30
 20
-2.45
 11
23.1
 21
-2.45
  0
LINE
  8
0
 10
23.1
 20
-2.45
 11
23.1
 21
-3.95
  0
LINE
  8
0
 10
23.1
 20
-3.95
 11
17.4
 21
-3.95
  0
LINE
  8
0
 10
17.4
 20
-3.95
 11
17.4
 21
-2.45
  0
LINE
  8
0
 10
17.4
 20
-2.45
 11
10.5
 21
-2.45
  0
LINE
  8
0
 10
10.5
 20
-2.45
 11
10.5
 21
2.45
  0
LINE
  8
0
 10
10.5
 20
2.45
 11
17.4
 21
2.45
  0
LINE
  8
0
 10
17.4
 20
2.45
 11
17.4
 21
3.95
  0
LINE
  8
0
 10
17.4
 20
3.95
 11
23.1
 21
3.95
  0
LINE
  8
0
 10
23.1
 20
3.95
 11
23.1
 21
2.45
  0
LINE
  8
0
 10
23.1
 20
2.45
 11
30
 21
2.45
  0
LINE
  8
0
 10
30
 20
2.45
 11
30
 21
7.5
  0
LINE
  8
0
 10
30
 20
7.5
 11
34.875
 21
7.5
  0
LINE
  8
0
 10
34.875
 20
7.5
 11
36.5
 21
9.125
  0
LINE
  8
0
 10
36.5
 20
9.125
 11
36.5
 21
20.875
  0
LINE
  8
0
 10
36.5
 20
20.875
 11
34.875
 21
22.5
  0
LINE
  8
0
 10
34.875
 20
22.5
 11
30
 21
22.5
  0
LINE
  8
0
 10
30
 20
22.5
 11
30
 21
91.7
  0
LINE
  8
0
 10
30
 20
91.7
 11
34.875
 21
91.7
  0
LINE
  8
0
 10
34.875
 20
91.7
 11
36.5
 21
93.325
  0
LINE
  8
0
 10
36.5
 20
93.325
 11
36.5
 21
105.075
  0
LINE
  8
0
 10
36.5
 20
105.075
 11
34.875
 21
106.7
  0
LINE
  8
0
 10
34.875
 20
106.7
 11
30
 21
106.7
  0
LINE
  8
0
 10
30
 20
106.7
 11
30
 21
111.75
  0
LINE
  8
0
 10
30
 20
111.75
 11
23.1
 21
111.75
  0
LINE
  8
0
 10
23.1
 20
111.75
 11
23.1
 21
110.25
  0
LINE
  8
0
 10
23.1
 20
110.25
 11
17.4
 21
110.25
  0
LINE
  8
0
 10
17.4
 20
110.25
 11
17.4
 21
111.75
  0
LINE
  8
0
 10
17.4
 20
111.75
 11
10.5
 21
111.75
  0
LINE
  8
0
 10
10.5
 20
111.75
 11
10.5
 21
116.65
  0
LINE
  8
0
 10
10.5
 20
116.65
 11
17.4
 21
116.65
  0
LINE
  8
0
 10
17.4
 20
116.65
 11
17.4
 21
118.15
  0
LINE
  8
0
 10
17.4
 20
118.15
 11
23.1
 21
118.15
  0
LINE
  8
0
 10
23.1
 20
118.15
 11
23.1
 21
116.65
  0
LINE
  8
0
 10
23.1
 20
116.65
 11
30
 21
116.65
  0
LINE
  8
0
 10
30
 20
116.65
 11
30
 21
121.7
  0
LINE
  8
0
 10
30
 20
121.7
 11
34.875
 21
121.7
  0
LINE
  8
0
 10
34.875
 20
121.7
 11
36.5
 21
123.325
  0
LINE
  8
0
 10
36.5
 20
123.325
 11
36.5
 21
135.075
  0
LINE
  8
0
 10
36.5
 20
135.075
 11
34.875
 21
136.7
  0
LINE
  8
0
 10
34.875
 20
136.7
 11
30
 21
136.7
  0
LINE
  8
0
 10
30
 20
136.7
 11
30
 21
171.3
  0
LINE
  8
0
 10
30
 20
171.3
 11
-30
 21
171.3
  0
LINE
  8
0
 10
-30
 20
171.3
 11
-30
 21
165.216
  0
LINE
  8
0
 10
-30
 20
165.216
 11
-36.825
 21
165.216
  0
LINE
  8
0
 10
-36.825
 20
165.216
 11
-47.2391
 21
163.338
  0
LINE
  8
0
 10
-47.2391
 20
163.338
 11
-47.7305
 21
163.247
  0
LINE
  8
0
 10
-47.7305
 20
163.247
 11
-48.2181
 21
163.137
  0
LINE
  8
0
 10
-48.2181
 20
163.137
 11
-48.7013
 21
163.009
  0
LINE
  8
0
 10
-48.7013
 20
163.009
 11
-49.1794
 21
162.863
  0
LINE
  8
0
 10
-49.1794
 20
162.863
 11
-49.6519
 21
162.7
  0
LINE
  8
0
 10
-49.6519
 20
162.7
 11
-50.118
 21
162.519
  0
LINE
  8
0
 10
-50.118
 20
162.519
 11
-50.5771
 21
162.322
  0
LINE
  8
0
 10
-50.5771
 20
162.322
 11
-51.0286
 21
162.107
  0
LINE
  8
0
 10
-51.0286
 20
162.107
 11
-51.4719
 21
161.876
  0
LINE
  8
0
 10
-51.4719
 20
161.876
 11
-51.9063
 21
161.629
  0
LINE
  8
0
 10
-51.9063
 20
161.629
 11
-52.3313
 21
161.366
  0
LINE
  8
0
 10
-52.3313
 20
161.366
 11
-52.7462
 21
161.087
  0
LINE
  8
0
 10
-52.7462
 20
161.087
 11
-53.1506
 21
160.793
  0
LINE
  8
0
 10
-53.1506
 20
160.793
 11
-53.5439
 21
160.485
  0
LINE
  8
0
 10
-53.5439
 20
160.485
 11
-53.9255
 21
160.162
  0
LINE
  8
0
 10
-53.9255
 20
160.162
 11
-54.2949
 21
159.825
  0
LINE
  8
0
 10
-54.2949
 20
159.825
 11
-54.6516
 21
159.475
  0
LINE
  8
0
 10
-54.6516
 20
159.475
 11
-54.9951
 21
159.112
  0
LINE
  8
0
 10
-54.9951
 20
159.112
 11
-55.325
 21
158.736
  0
LINE
  8
0
 10
-55.325
 20
158.736
 11
-55.6407
 21
158.349
  0
LINE
  8
0
 10
-55.6407
 20
158.349
 11
-55.942
 21
157.95
  0
LINE
  8
0
 10
-55.942
 20
157.95
 11
-56.2282
 21
157.54
  0
LINE
  8
0
 10
-56.2282
 20
157.54
 11
-56.4992
 21
157.12
  0
LINE
  8
0
 10
-56.4992
 20
157.12
 11
-56.7544
 21
156.69
  0
LINE
  8
0
 10
-56.7544
 20
156.69
 11
-56.9936
 21
156.251
  0
LINE
  8
0
 10
-56.9936
 20
156.251
 11
-57.2164
 21
155.804
  0
LINE
  8
0
 10
-57.2164
 20
155.804
 11
-57.4225
 21
155.348
  0
LINE
  8
0
 10
-57.4225
 20
155.348
 11
-57.6117
 21
154.886
  0
LINE
  8
0
 10
-57.6117
 20
154.886
 11
-57.7836
 21
154.416
  0
LINE
  8
0
 10
-57.7836
 20
154.416
 11
-57.9381
 21
153.941
  0
LINE
  8
0
 10
-57.9381
 20
153.941
 11
-58.0749
 21
153.46
  0
LINE
  8
0
 10
-58.0749
 20
153.46
 11
-58.1938
 21
152.975
  0
LINE
  8
0
 10
-58.1938
 20
152.975
 11
-58.2947
 21
152.485
  0
LINE
  8
0
 10
-58.2947
 20
152.485
 11
-58.3775
 21
151.992
  0
LINE
  8
0
 10
-58.3775
 20
151.992
 11
-58.4419
 21
151.497
  0
LINE
  8
0
 10
-58.4419
 20
151.497
 11
-58.4881
 21
150.999
  0
LINE
  8
0
 10
-58.4881
 20
150.999
 11
-58.5158
 21
150.5
  0
LINE
  8
0
 10
-58.5158
 20
150.5
 11
-58.525
 21
150
  0
LINE
  8
0
 10
-58.525
 20
150
 11
-58.5158
 21
149.5
  0
LINE
  8
0
 10
-58.5158
 20
149.5
 11
-58.4881
 21
149.001
  0
LINE
  8
0
 10
-58.4881
 20
149.001
 11
-58.4419
 21
148.503
  0
LINE
  8
0
 10
-58.4419
 20
148.503
 11
-58.3775
 21
148.008
  0
LINE
  8
0
 10
-58.3775
 20
148.008
 11
-58.2947
 21
147.515
  0
LINE
  8
0
 10
-58.2947
 20
147.515
 11
-58.1938
 21
147.025
  0
LINE
  8
0
 10
-58.1938
 20
147.025
 11
-58.0749
 21
146.54
  0
LINE
  8
0
 10
-58.0749
 20
146.54
 11
-57.9381
 21
146.059
  0
LINE
  8
0
 10
-57.9381
 20
146.059
 11
-57.7836
 21
145.584
  0
LINE
  8
0
 10
-57.7836
 20
145.584
 11
-57.6117
 21
145.114
  0
LINE
  8
0
 10
-57.6117
 20
145.114
 11
-57.4225
 21
144.652
  0
LINE
  8
0
 10
-57.4225
 20
144.652
 11
-57.2164
 21
144.196
  0
LINE
  8
0
 10
-57.2164
 20
144.196
 11
-56.9936
 21
143.749
  0
LINE
  8
0
 10
-56.9936
 20
143.749
 11
-56.7544
 21
143.31
  0
LINE
  8
0
 10
-56.7544
 20
143.31
 11
-56.4992
 21
142.88
  0
LINE
  8
0
 10
-56.4992
 20
142.88
 11
-56.2282
 21
142.46
  0
LINE
  8
0
 10
-56.2282
 20
142.46
 11
-55.942
 21
142.05
  0
LINE
  8
0
 10
-55.942
 20
142.05
 11
-55.6407
 21
141.651
  0
LINE
  8
0
 10
-55.6407
 20
141.651
 11
-55.325
 21
141.264
  0
LINE
  8
0
 10
-55.325
 20
141.264
 11
-54.9951
 21
140.888
  0
LINE
  8
0
 10
-54.9951
 20
140.888
 11
-54.6516
 21
140.525
  0
LINE
  8
0
 10
-54.6516
 20
140.525
 11
-54.2949
 21
140.175
  0
LINE
  8
0
 10
-54.2949
 20
140.175
 11
-53.9255
 21
139.838
  0
LINE
  8
0
 10
-53.9255
 20
139.838
 11
-53.5439
 21
139.515
  0
LINE
  8
0
 10
-53.5439
 20
139.515
 11
-53.1506
 21
139.207
  0
LINE
  8
0
 10
-53.1506
 20
139.207
 11
-52.7462
 21
138.913
  0
LINE
  8
0
 10
-52.7462
 20
138.913
 11
-52.3313
 21
138.634
  0
LINE
  8
0
 10
-52.3313
 20
138.634
 11
-51.9063
 21
138.371
  0
LINE
  8
0
 10
-51.9063
 20
138.371
 11
-51.4719
 21
138.124
  0
LINE
  8
0
 10
-51.4719
 20
138.124
 11
-51.0286
 21
137.893
  0
LINE
  8
0
 10
-51.0286
 20
137.893
 11
-50.5771
 21
137.678
  0
LINE
  8
0
 10
-50.5771
 20
137.678
 11
-50.118
 21
137.481
  0
LINE
  8
0
 10
-50.118
 20
137.481
 11
-49.6519
 21
137.3
  0
LINE
  8
0
 10
-49.6519
 20
137.3
 11
-49.1794
 21
137.137
  0
LINE
  8
0
 10
-49.1794
 20
137.137
 11
-48.7013
 21
136.991
  0
LINE
  8
0
 10
-48.7013
 20
136.991
 11
-48.2181
 21
136.863
  0
LINE
  8
0
 10
-48.2181
 20
136.863
 11
-47.7305
 21
136.753
  0
LINE
  8
0
 10
-47.7305
 20
136.753
 11
-47.2391
 21
136.662
  0
LINE
  8
0
 10
-47.2391
 20
136.662
 11
-36.825
 21
134.784
  0
LINE
  8
0
 10
-36.825
 20
134.784
 11
-36.5
 21
134.784
  0
LINE
  8
0
 10
-36.5
 20
134.784
 11
-36.5
 21
123.325
  0
LINE
  8
0
 10
-36.5
 20
123.325
 11
-34.875
 21
121.7
  0
LINE
  8
0
 10
-34.875
 20
121.7
 11
-30
 21
121.7
  0
LINE
  8
0
 10
-30
 20
121.7
 11
-30
 21
116.65
  0
LINE
  8
0
 10
-30
 20
116.65
 11
-23.1
 21
116.65
  0
LINE
  8
0
 10
-23.1
 20
116.65
 11
-23.1
 21
118.15
  0
LINE
  8
0
 10
-23.1
 20
118.15
 11
-17.4
 21
118.15
  0
LINE
  8
0
 10
-17.4
 20
118.15
 11
-17.4
 21
116.65
  0
LINE
  8
0
 10
-17.4
 20
116.65
 11
-10.5
 21
116.65
  0
LINE
  8
0
 10
-10.5
 20
116.65
 11
-10.5
 21
111.75
  0
LINE
  8
0
 10
-10.5
 20
111.75
 11
-17.4
 21
111.75
  0
LINE
  8
0
 10
-17.4
 20
111.75
 11
-17.4
 21
110.25
  0
LINE
  8
0
 10
-17.4
 20
110.25
 11
-23.1
 21
110.25
  0
LINE
  8
0
 10
-23.1
 20
110.25
 11
-23.1
 21
111.75
  0
LINE
  8
0
 10
-23.1
 20
111.75
 11
-30
 21
111.75
  0
LINE
  8
0
 10
-30
 20
111.75
 11
-30
 21
106.7
  0
LINE
  8
0
 10
-30
 20
106.7
 11
-34.875
 21
106.7
  0
LINE
  8
0
 10
-34.875
 20
106.7
 11
-36.5
 21
105.075
  0
LINE
  8
0
 10
-36.5
 20
105.075
 11
-36.5
 21
93.325
  0
LINE
  8
0
 10
-36.5
 20
93.325
 11
-34.875
 21
91.7
  0
LINE
  8
0
 10
-34.875
 20
91.7
 11
-30
 21
91.7
  0
LINE
  8
0
 10
-30
 20
91.7
 11
-30
 21
15.2156
  0
LINE
  8
0
 10
-30
 20
15.2156
 11
-36.825
 21
15.2156
  0
LINE
  8
0
 10
-36.825
 20
15.2156
 11
-47.2391
 21
13.3384
  0
LINE
  8
0
 10
-47.2391
 20
13.3384
 11
-47.7305
 21
13.2465
  0
LINE
  8
0
 10
-47.7305
 20
13.2465
 11
-48.2181
 21
13.1366
  0
LINE
  8
0
 10
-48.2181
 20
13.1366
 11
-48.7013
 21
13.0087
  0
LINE
  8
0
 10
-48.7013
 20
13.0087
 11
-49.1794
 21
12.863
  0
LINE
  8
0
 10
-49.1794
 20
12.863
 11
-49.6519
 21
12.6998
  0
LINE
  8
0
 10
-49.6519
 20
12.6998
 11
-50.118
 21
12.5192
  0
LINE
  8
0
 10
-50.118
 20
12.5192
 11
-50.5771
 21
12.3216
  0
LINE
  8
0
 10
-50.5771
 20
12.3216
 11
-51.0286
 21
12.1071
  0
LINE
  8
0
 10
-51.0286
 20
12.1071
 11
-51.4719
 21
11.876
  0
LINE
  8
0
 10
-51.4719
 20
11.876
 11
-51.9063
 21
11.6288
  0
LINE
  8
0
 10
-51.9063
 20
11.6288
 11
-52.3313
 21
11.3656
  0
LINE
  8
0
 10
-52.3313
 20
11.3656
 11
-52.7462
 21
11.087
  0
LINE
  8
0
 10
-52.7462
 20
11.087
 11
-53.1506
 21
10.7932
  0
LINE
  8
0
 10
-53.1506
 20
10.7932
 11
-53.5439
 21
10.4846
  0
LINE
  8
0
 10
-53.5439
 20
10.4846
 11
-53.9255
 21
10.1618
  0
LINE
  8
0
 10
-53.9255
 20
10.1618
 11
-54.2949
 21
9.82501
  0
LINE
  8
0
 10
-54.2949
 20
9.82501
 11
-54.6516
 21
9.47484
  0
LINE
  8
0
 10
-54.6516
 20
9.47484
 11
-54.9951
 21
9.11172
  0
LINE
  8
0
 10
-54.9951
 20
9.11172
 11
-55.325
 21
8.73618
  0
LINE
  8
0
 10
-55.325
 20
8.73618
 11
-55.6407
 21
8.34868
  0
LINE
  8
0
 10
-55.6407
 20
8.34868
 11
-55.942
 21
7.94978
  0
LINE
  8
0
 10
-55.942
 20
7.94978
 11
-56.2282
 21
7.54004
  0
LINE
  8
0
 10
-56.2282
 20
7.54004
 11
-56.4992
 21
7.11998
  0
LINE
  8
0
 10
-56.4992
 20
7.11998
 11
-56.7544
 21
6.69022
  0
LINE
  8
0
 10
-56.7544
 20
6.69022
 11
-56.9936
 21
6.2513
  0
LINE
  8
0
 10
-56.9936
 20
6.2513
 11
-57.2164
 21
5.80385
  0
LINE
  8
0
 10
-57.2164
 20
5.80385
 11
-57.4225
 21
5.34846
  0
LINE
  8
0
 10
-57.4225
 20
5.34846
 11
-57.6117
 21
4.88579
  0
LINE
  8
0
 10
-57.6117
 20
4.88579
 11
-57.7836
 21
4.41643
  0
LINE
  8
0
 10
-57.7836
 20
4.41643
 11
-57.9381
 21
3.94104
  0
LINE
  8
0
 10
-57.9381
 20
3.94104
 11
-58.0749
 21
3.46027
  0
LINE
  8
0
 10
-58.0749
 20
3.46027
 11
-58.1938
 21
2.97476
  0
LINE
  8
0
 10
-58.1938
 20
2.97476
 11
-58.2947
 21
2.4852
  0
LINE
  8
0
 10
-58.2947
 20
2.4852
 11
-58.3775
 21
1.99225
  0
LINE
  8
0
 10
-58.3775
 20
1.99225
 11
-58.4419
 21
1.49657
  0
LINE
  8
0
 10
-58.4419
 20
1.49657
 11
-58.4881
 21
0.99884
  0
LINE
  8
0
 10
-58.4881
 20
0.99884
 11
-58.5158
 21
0.499756
  0
LINE
  8
0
 10
-58.5158
 20
0.499756
 11
-58.525
 21
0
  0
LINE
  8
0
 10
-58.525
 20
0
 11
-58.5158
 21
-0.499756
  0
LINE
  8
0
 10
-58.5158
 20
-0.499756
 11
-58.4881
 21
-0.99884
  0
LINE
  8
0
 10
-58.4881
 20
-0.99884
 11
-58.4419
 21
-1.49657
  0
LINE
  8
0
 10
-58.4419
 20
-1.49657
 11
-58.3775
 21
-1.99225
  0
LINE
  8
0
 10
-58.3775
 20
-1.99225
 11
-58.2947
 21
-2.4852
  0
LINE
  8
0
 10
-58.2947
 20
-2.4852
 11
-58.1938
 21
-2.97476
  0
LINE
  8
0
 10
-58.1938
 20
-2.97476
 11
-58.0749
 21
-3.46027
  0
LINE
  8
0
 10
-58.0749
 20
-3.46027
 11
-57.9381
 21
-3.94104
  0
LINE
  8
0
 10
-57.9381
 20
-3.94104
 11
-57.7836
 21
-4.41643
  0
LINE
  8
0
 10
-57.7836
 20
-4.41643
 11
-57.6117
 21
-4.88579
  0
LINE
  8
0
 10
-57.6117
 20
-4.88579
 11
-57.4225
 21
-5.34846
  0
LINE
  8
0
 10
-57.4225
 20
-5.34846
 11
-57.2164
 21
-5.80385
  0
LINE
  8
0
 10
-57.2164
 20
-5.80385
 11
-56.9936
 21
-6.2513
  0
LINE
  8
0
 10
-56.9936
 20
-6.2513
 11
-56.7544
 21
-6.69022
  0
LINE
  8
0
 10
-56.7544
 20
-6.69022
 11
-56.4992
 21
-7.11998
  0
LINE
  8
0
 10
-56.4992
 20
-7.11998
 11
-56.2282
 21
-7.54004
  0
LINE
  8
0
 10
-56.2282
 20
-7.54004
 11
-55.942
 21
-7.94978
  0
LINE
  8
0
 10
-55.942
 20
-7.94978
 11
-55.6407
 21
-8.34868
  0
LINE
  8
0
 10
-55.6407
 20
-8.34868
 11
-55.325
 21
-8.73618
  0
LINE
  8
0
 10
-55.325
 20
-8.73618
 11
-54.9951
 21
-9.11172
  0
LINE
  8
0
 10
-54.9951
 20
-9.11172
 11
-54.6516
 21
-9.47484
  0
LINE
  8
0
 10
-54.6516
 20
-9.47484
 11
-54.2949
 21
-9.82501
  0
LINE
  8
0
 10
-54.2949
 20
-9.82501
 11
-53.9255
 21
-10.1618
  0
LINE
  8
0
 10
-53.9255
 20
-10.1618
 11
-53.5439
 21
-10.4846
  0
LINE
  8
0
 10
-53.5439
 20
-10.4846
 11
-53.1506
 21
-10.7932
  0
LINE
  8
0
 10
-53.1506
 20
-10.7932
 11
-52.7462
 21
-11.087
  0
LINE
  8
0
 10
-52.7462
 20
-11.087
 11
-52.3313
 21
-11.3656
  0
LINE
  8
0
 10
-52.3313
 20
-11.3656
 11
-51.9063
 21
-11.6288
  0
LINE
  8
0
 10
-51.9063
 20
-11.6288
 11
-51.4719
 21
-11.876
  0
LINE
  8
0
 10
-51.4719
 20
-11.876
 11
-51.0286
 21
-12.1071
  0
LINE
  8
0
 10
-51.0286
 20
-12.1071
 11
-50.5771
 21
-12.3216
  0
LINE
  8
0
 10
-50.5771
 20
-12.3216
 11
-50.118
 21
-12.5192
  0
LINE
  8
0
 10
-50.118
 20
-12.5192
 11
-49.6519
 21
-12.6998
  0
LINE
  8
0
 10
-49.6519
 20
-12.6998
 11
-49.1794
 21
-12.863
  0
LINE
  8
0
 10
-49.1794
 20
-12.863
 11
-48.7013
 21
-13.0087
  0
LINE
  8
0
 10
-48.7013
 20
-13.0087
 11
-48.2181
 21
-13.1366
  0
LINE
  8
0
 10
-48.2181
 20
-13.1366
 11
-47.7305
 21
-13.2465
  0
LINE
  8
0
 10
-47.7305
 20
-13.2465
 11
-47.2391
 21
-13.3384
  0
LINE
  8
0
 10
-47.2391
 20
-13.3384
 11
-36.825
 21
-15.2156
  0
LINE
  8
0
 10
-36.825
 20
-15.2156
 11
-30
 21
-15.2156
  0
LINE
  8
0
 10
-30
 20
-15.2156
 11
-30
 21
-91.7
  0
LINE
  8
0
 10
-30
 20
-91.7
 11
-34.875
 21
-91.7
  0
LINE
  8
0
 10
-34.875
 20
-91.7
 11
-36.5
 21
-93.325
  0
LINE
  8
0
 10
-36.5
 20
-93.325
 11
-36.5
 21
-105.075
  0
LINE
  8
0
 10
-36.5
 20
-105.075
 11
-34.875
 21
-106.7
  0
LINE
  8
0
 10
-34.875
 20
-106.7
 11
-30
 21
-106.7
  0
LINE
  8
0
 10
-30
 20
-106.7
 11
-30
 21
-111.75
  0
LINE
  8
0
 10
-30
 20
-111.75
 11
-23.1
 21
-111.75
  0
LINE
  8
0
 10
-23.1
 20
-111.75
 11
-23.1
 21
-110.25
  0
LINE
  8
0
 10
-23.1
 20
-110.25
 11
-17.4
 21
-110.25
  0
LINE
  8
0
 10
-17.4
 20
-110.25
 11
-17.4
 21
-111.75
  0
LINE
  8
0
 10
-17.4
 20
-111.75
 11
-10.5
 21
-111.75
  0
LINE
  8
0
 10
-10.5
 20
-111.75
 11
-10.5
 21
-116.65
  0
LINE
  8
0
 10
-10.5
 20
-116.65
 11
-17.4
 21
-116.65
  0
LINE
  8
0
 10
-17.4
 20
-116.65
 11
-17.4
 21
-118.15
  0
LINE
  8
0
 10
-17.4
 20
-118.15
 11
-23.1
 21
-118.15
  0
LINE
  8
0
 10
-23.1
 20
-118.15
 11
-23.1
 21
-116.65
  0
LINE
  8
0
 10
-23.1
 20
-116.65
 11
-30
 21
-116.65
  0
LINE
  8
0
 10
-30
 20
-116.65
 11
-30
 21
-121.7
  0
LINE
  8
0
 10
-30
 20
-121.7
 11
-34.875
 21
-121.7
  0
LINE
  8
0
 10
-34.875
 20
-121.7
 11
-36.5
 21
-123.325
  0
LINE
  8
0
 10
-36.5
 20
-123.325
 11
-36.5
 21
-134.784
  0
LINE
  8
0
 10
-36.5
 20
-134.784
 11
-36.825
 21
-134.784
  0
LINE
  8
0
 10
-36.825
 20
-134.784
 11
-47.2391
 21
-136.662
  0
LINE
  8
0
 10
-47.2391
 20
-136.662
 11
-47.7305
 21
-136.753
  0
LINE
  8
0
 10
-47.7305
 20
-136.753
 11
-48.2181
 21
-136.863
  0
LINE
  8
0
 10
-48.2181
 20
-136.863
 11
-48.7013
 21
-136.991
  0
LINE
  8
0
 10
-48.7013
 20
-136.991
 11
-49.1794
 21
-137.137
  0
LINE
  8
0
 10
-49.1794
 20
-137.137
 11
-49.6519
 21
-137.3
  0
LINE
  8
0
 10
-49.6519
 20
-137.3
 11
-50.118
 21
-137.481
  0
LINE
  8
0
 10
-50.118
 20
-137.481
 11
-50.5771
 21
-137.678
  0
LINE
  8
0
 10
-50.5771
 20
-137.678
 11
-51.0286
 21
-137.893
  0
LINE
  8
0
 10
-51.0286
 20
-137.893
 11
-51.4719
 21
-138.124
  0
LINE
  8
0
 10
-51.4719
 20
-138.124
 11
-51.9063
 21
-138.371
  0
LINE
  8
0
 10
-51.9063
 20
-138.371
 11
-52.3313
 21
-138.634
  0
LINE
  8
0
 10
-52.3313
 20
-138.634
 11
-52.7462
 21
-138.913
  0
LINE
  8
0
 10
-52.7462
 20
-138.913
 11
-53.1506
 21
-139.207
  0
LINE
  8
0
 10
-53.1506
 20
-139.207
 11
-53.5439
 21
-139.515
  0
LINE
  8
0
 10
-53.5439
 20
-139.515
 11
-53.9255
 21
-139.838
  0
LINE
  8
0
 10
-53.9255
 20
-139.838
 11
-54.2949
 21
-140.175
  0
LINE
  8
0
 10
-54.2949
 20
-140.175
 11
-54.6516
 21
-140.525
  0
LINE
  8
0
 10
-54.6516
 20
-140.525
 11
-54.9951
 21
-140.888
  0
LINE
  8
0
 10
-54.9951
 20
-140.888
 11
-55.325
 21
-141.264
  0
LINE
  8
0
 10
-55.325
 20
-141.264
 11
-55.6407
 21
-141.651
  0
LINE
  8
0
 10
-55.6407
 20
-141.651
 11
-55.942
 21
-142.05
  0
LINE
  8
0
 10
-55.942
 20
-142.05
 11
-56.2282
 21
-142.46
  0
LINE
  8
0
 10
-56.2282
 20
-142.46
 11
-56.4992
 21
-142.88
  0
LINE
  8
0
 10
-56.4992
 20
-142.88
 11
-56.7544
 21
-143.31
  0
LINE
  8
0
 10
-56.7544
 20
-143.31
 11
-56.9936
 21
-143.749
  0
LINE
  8
0
 10
-56.9936
 20
-143.749
 11
-57.2164
 21
-144.196
  0
LINE
  8
0
 10
-57.2164
 20
-144.196
 11
-57.4225
 21
-144.652
  0
LINE
  8
0
 10
-57.4225
 20
-144.652
 11
-57.6117
 21
-145.114
  0
LINE
  8
0
 10
-57.6117
 20
-145.114
 11
-57.7836
 21
-145.584
  0
LINE
  8
0
 10
-57.7836
 20
-145.584
 11
-57.9381
 21
-146.059
  0
LINE
  8
0
 10
-57.9381
 20
-146.059
 11
-58.0749
 21
-146.54
  0
LINE
  8
0
 10
-58.0749
 20
-146.54
 11
-58.1938
 21
-147.025
  0
LINE
  8
0
 10
-58.1938
 20
-147.025
 11
-58.2947
 21
-147.515
  0
LINE
  8
0
 10
-58.2947
 20
-147.515
 11
-58.3775
 21
-148.008
  0
LINE
  8
0
 10
-58.3775
 20
-148.008
 11
-58.4419
 21
-148.503
  0
LINE
  8
0
 10
-58.4419
 20
-148.503
 11
-58.4881
 21
-149.001
  0
LINE
  8
0
 10
-58.4881
 20
-149.001
 11
-58.5158
 21
-149.5
  0
LINE
  8
0
 10
-58.5158
 20
-149.5
 11
-58.525
 21
-150
  0
LINE
  8
0
 10
-58.525
 20
-150
 11
-58.5158
 21
-150.5
  0
LINE
  8
0
 10
-58.5158
 20
-150.5
 11
-58.4881
 21
-150.999
  0
LINE
  8
0
 10
-58.4881
 20
-150.999
 11
-58.4419
 21
-151.497
  0
LINE
  8
0
 10
-58.4419
 20
-151.497
 11
-58.3775
 21
-151.992
  0
LINE
  8
0
 10
-58.3775
 20
-151.992
 11
-58.2947
 21
-152.485
  0
LINE
  8
0
 10
-58.2947
 20
-152.485
 11
-58.1938
 21
-152.975
  0
LINE
  8
0
 10
-58.1938
 20
-152.975
 11
-58.0749
 21
-153.46
  0
LINE
  8
0
 10
-58.0749
 20
-153.46
 11
-57.9381
 21
-153.941
  0
LINE
  8
0
 10
-57.9381
 20
-153.941
 11
-57.7836
 21
-154.416
  0
LINE
  8
0
 10
-57.7836
 20
-154.416
 11
-57.6117
 21
-154.886
  0
LINE
  8
0
 10
-57.6117
 20
-154.886
 11
-57.4225
 21
-155.348
  0
LINE
  8
0
 10
-57.4225
 20
-155.348
 11
-57.2164
 21
-155.804
  0
LINE
  8
0
 10
-57.2164
 20
-155.804
 11
-56.9936
 21
-156.251
  0
LINE
  8
0
 10
-56.9936
 20
-156.251
 11
-56.7544
 21
-156.69
  0
LINE
  8
0
 10
-56.7544
 20
-156.69
 11
-56.4992
 21
-157.12
  0
LINE
  8
0
 10
-56.4992
 20
-157.12
 11
-56.2282
 21
-157.54
  0
LINE
  8
0
 10
-56.2282
 20
-157.54
 11
-55.942
 21
-157.95
  0
LINE
  8
0
 10
-55.942
 20
-157.95
 11
-55.6407
 21
-158.349
  0
LINE
  8
0
 10
-55.6407
 20
-158.349
 11
-55.325
 21
-158.736
  0
LINE
  8
0
 10
-55.325
 20
-158.736
 11
-54.9951
 21
-159.112
  0
LINE
  8
0
 10
-54.9951
 20
-159.112
 11
-54.6516
 21
-159.475
  0
LINE
  8
0
 10
-54.6516
 20
-159.475
 11
-54.2949
 21
-159.825
  0
LINE
  8
0
 10
-54.2949
 20
-159.825
 11
-53.9255
 21
-160.162
  0
LINE
  8
0
 10
-53.9255
 20
-160.162
 11
-53.5439
 21
-160.485
  0
LINE
  8
0
 10
-53.5439
 20
-160.485
 11
-53.1506
 21
-160.793
  0
LINE
  8
0
 10
-53.1506
 20
-160.793
 11
-52.7462
 21
-161.087
  0
LINE
  8
0
 10
-52.7462
 20
-161.087
 11
-52.3313
 21
-161.366
  0
LINE
  8
0
 10
-52.3313
 20
-161.366
 11
-51.9063
 21
-161.629
  0
LINE
  8
0
 10
-51.9063
 20
-161.629
 11
-51.4719
 21
-161.876
  0
LINE
  8
0
 10
-51.4719
 20
-161.876
 11
-51.0286
 21
-162.107
  0
LINE
  8
0
 10
-51.0286
 20
-162.107
 11
-50.5771
 21
-162.322
  0
LINE
  8
0
 10
-50.5771
 20
-162.322
 11
-50.118
 21
-162.519
  0
LINE
  8
0
 10
-50.118
 20
-162.519
 11
-49.6519
 21
-162.7
  0
LINE
  8
0
 10
-49.6519
 20
-162.7
 11
-49.1794
 21
-162.863
  0
LINE
  8
0
 10
-49.1794
 20
-162.863
 11
-48.7013
 21
-163.009
  0
LINE
  8
0
 10
-48.7013
 20
-163.009
 11
-48.2181
 21
-163.137
  0
LINE
  8
0
 10
-48.2181
 20
-163.137
 11
-47.7305
 21
-163.247
  0
LINE
  8
0
 10
-47.7305
 20
-163.247
 11
-47.2391
 21
-163.338
  0
LINE
  8
0
 10
-47.2391
 20
-163.338
 11
-36.825
 21
-165.216
  0
LINE
  8
0
 10
-36.825
 20
-165.216
 11
-30
 21
-165.216
  0
LINE
  8
0
 10
-30
 20
-165.216
 11
-30
 21
-171.3
  0
LINE
  8
0
 10
-30
 20
-171.3
 11
30
 21
-171.3
  0
LINE
  8
0
 10
30
 20
-171.3
 11
30
 21
-136.7
  0
LINE
  8
0
 10
17.6903
 20
162.257
 11
17.9213
 21
162.689
  0
LINE
  8
0
 10
17.9213
 20
162.689
 11
18.2322
 21
163.068
  0
LINE
  8
0
 10
18.2322
 20
163.068
 11
18.6111
 21
163.379
  0
LINE
  8
0
 10
18.6111
 20
163.379
 11
19.0433
 21
163.61
  0
LINE
  8
0
 10
19.0433
 20
163.61
 11
19.5123
 21
163.752
  0
LINE
  8
0
 10
19.5123
 20
163.752
 11
20
 21
163.8
  0
LINE
  8
0
 10
20
 20
163.8
 11
20.4877
 21
163.752
  0
LINE
  8
0
 10
20.4877
 20
163.752
 11
20.9567
 21
163.61
  0
LINE
  8
0
 10
20.9567
 20
163.61
 11
21.3889
 21
163.379
  0
LINE
  8
0
 10
21.3889
 20
163.379
 11
21.7678
 21
163.068
  0
LINE
  8
0
 10
21.7678
 20
163.068
 11
22.0787
 21
162.689
  0
LINE
  8
0
 10
22.0787
 20
162.689
 11
22.3097
 21
162.257
  0
LINE
  8
0
 10
22.3097
 20
162.257
 11
22.452
 21
161.788
  0
LINE
  8
0
 10
22.452
 20
161.788
 11
22.5
 21
161.3
  0
LINE
  8
0
 10
22.5
 20
161.3
 11
22.452
 21
160.812
  0
LINE
  8
0
 10
22.452
 20
160.812
 11
22.3097
 21
160.343
  0
LINE
  8
0
 10
22.3097
 20
160.343
 11
22.0787
 21
159.911
  0
LINE
  8
0
 10
22.0787
 20
159.911
 11
21.7678
 21
159.532
  0
LINE
  8
0
 10
21.7678
 20
159.532
 11
21.3889
 21
159.221
  0
LINE
  8
0
 10
21.3889
 20
159.221
 11
20.9567
 21
158.99
  0
LINE
  8
0
 10
20.9567
 20
158.99
 11
20.4877
 21
158.848
  0
LINE
  8
0
 10
20.4877
 20
158.848
 11
20
 21
158.8
  0
LINE
  8
0
 10
20
 20
158.8
 11
19.5123
 21
158.848
  0
LINE
  8
0
 10
19.5123
 20
158.848
 11
19.0433
 21
158.99
  0
LINE
  8
0
 10
19.0433
 20
158.99
 11
18.6111
 21
159.221
  0
LINE
  8
0
 10
18.6111
 20
159.221
 11
18.2322
 21
159.532
  0
LINE
  8
0
 10
18.2322
 20
159.532
 11
17.9213
 21
159.911
  0
LINE
  8
0
 10
17.9213
 20
159.911
 11
17.6903
 21
160.343
  0
LINE
  8
0
 10
17.6903
 20
160.343
 11
17.548
 21
160.812
  0
LINE
  8
0
 10
17.548
 20
160.812
 11
17.5
 21
161.3
  0
LINE
  8
0
 10
17.5
 20
161.3
 11
17.548
 21
161.788
  0
LINE
  8
0
 10
17.548
 20
161.788
 11
17.6903
 21
162.257
  0
LINE
  8
0
 10
-50.3185
 20
156.642
 11
-50.7486
 21
156.864
  0
LINE
  8
0
 10
-50.7486
 20
156.864
 11
-51.0988
 21
157.198
  0
LINE
  8
0
 10
-51.0988
 20
157.198
 11
-51.3407
 21
157.617
  0
LINE
  8
0
 10
-51.3407
 20
157.617
 11
-51.4548
 21
158.087
  0
LINE
  8
0
 10
-51.4548
 20
158.087
 11
-51.4318
 21
158.571
  0
LINE
  8
0
 10
-51.4318
 20
158.571
 11
-51.2735
 21
159.028
  0
LINE
  8
0
 10
-51.2735
 20
159.028
 11
-50.9928
 21
159.422
  0
LINE
  8
0
 10
-50.9928
 20
159.422
 11
-50.6125
 21
159.721
  0
LINE
  8
0
 10
-50.6125
 20
159.721
 11
-50.1633
 21
159.901
  0
LINE
  8
0
 10
-50.1633
 20
159.901
 11
-49.6816
 21
159.947
  0
LINE
  8
0
 10
-49.6816
 20
159.947
 11
-49.2065
 21
159.855
  0
LINE
  8
0
 10
-49.2065
 20
159.855
 11
-48.7764
 21
159.634
  0
LINE
  8
0
 10
-48.7764
 20
159.634
 11
-48.4262
 21
159.3
  0
LINE
  8
0
 10
-48.4262
 20
159.3
 11
-48.1843
 21
158.881
  0
LINE
  8
0
 10
-48.1843
 20
158.881
 11
-48.0702
 21
158.41
  0
LINE
  8
0
 10
-48.0702
 20
158.41
 11
-48.0932
 21
157.927
  0
LINE
  8
0
 10
-48.0932
 20
157.927
 11
-48.2515
 21
157.47
  0
LINE
  8
0
 10
-48.2515
 20
157.47
 11
-48.5322
 21
157.076
  0
LINE
  8
0
 10
-48.5322
 20
157.076
 11
-48.9125
 21
156.777
  0
LINE
  8
0
 10
-48.9125
 20
156.777
 11
-49.3617
 21
156.597
  0
LINE
  8
0
 10
-49.3617
 20
156.597
 11
-49.8434
 21
156.551
  0
LINE
  8
0
 10
-49.8434
 20
156.551
 11
-50.3185
 21
156.642
  0
LINE
  8
0
 10
-45.4994
 20
143.018
 11
-45.9962
 21
143.071
  0
LINE
  8
0
 10
-45.9962
 20
143.071
 11
-46.4879
 21
143.16
  0
LINE
  8
0
 10
-46.4879
 20
143.16
 11
-46.9721
 21
143.284
  0
LINE
  8
0
 10
-46.9721
 20
143.284
 11
-47.4462
 21
143.441
  0
LINE
  8
0
 10
-47.4462
 20
143.441
 11
-47.9079
 21
143.633
  0
LINE
  8
0
 10
-47.9079
 20
143.633
 11
-48.3547
 21
143.856
  0
LINE
  8
0
 10
-48.3547
 20
143.856
 11
-48.7845
 21
144.111
  0
LINE
  8
0
 10
-48.7845
 20
144.111
 11
-49.1949
 21
144.396
  0
LINE
  8
0
 10
-49.1949
 20
144.396
 11
-49.584
 21
144.71
  0
LINE
  8
0
 10
-49.584
 20
144.71
 11
-49.9497
 21
145.05
  0
LINE
  8
0
 10
-49.9497
 20
145.05
 11
-50.2902
 21
145.416
  0
LINE
  8
0
 10
-50.2902
 20
145.416
 11
-50.6038
 21
145.805
  0
LINE
  8
0
 10
-50.6038
 20
145.805
 11
-50.8888
 21
146.216
  0
LINE
  8
0
 10
-50.8888
 20
146.216
 11
-51.1438
 21
146.645
  0
LINE
  8
0
 10
-51.1438
 20
146.645
 11
-51.3674
 21
147.092
  0
LINE
  8
0
 10
-51.3674
 20
147.092
 11
-51.5586
 21
147.554
  0
LINE
  8
0
 10
-51.5586
 20
147.554
 11
-51.7164
 21
148.028
  0
LINE
  8
0
 10
-51.7164
 20
148.028
 11
-51.84
 21
148.512
  0
LINE
  8
0
 10
-51.84
 20
148.512
 11
-51.9287
 21
149.004
  0
LINE
  8
0
 10
-51.9287
 20
149.004
 11
-51.9822
 21
149.501
  0
LINE
  8
0
 10
-51.9822
 20
149.501
 11
-52
 21
150
  0
LINE
  8
0
 10
-52
 20
150
 11
-51.9822
 21
150.499
  0
LINE
  8
0
 10
-51.9822
 20
150.499
 11
-51.9287
 21
150.996
  0
LINE
  8
0
 10
-51.9287
 20
150.996
 11
-51.84
 21
151.488
  0
LINE
  8
0
 10
-51.84
 20
151.488
 11
-51.7164
 21
151.972
  0
LINE
  8
0
 10
-51.7164
 20
151.972
 11
-51.5586
 21
152.446
  0
LINE
  8
0
 10
-51.5586
 20
152.446
 11
-51.3674
 21
152.908
  0
LINE
  8
0
 10
-51.3674
 20
152.908
 11
-51.1438
 21
153.355
  0
LINE
  8
0
 10
-51.1438
 20
153.355
 11
-50.8888
 21
153.784
  0
LINE
  8
0
 10
-50.8888
 20
153.784
 11
-50.6038
 21
154.195
  0
LINE
  8
0
 10
-50.6038
 20
154.195
 11
-50.2902
 21
154.584
  0
LINE
  8
0
 10
-50.2902
 20
154.584
 11
-49.9497
 21
154.95
  0
LINE
  8
0
 10
-49.9497
 20
154.95
 11
-49.584
 21
155.29
  0
LINE
  8
0
 10
-49.584
 20
155.29
 11
-49.1949
 21
155.604
  0
LINE
  8
0
 10
-49.1949
 20
155.604
 11
-48.7845
 21
155.889
  0
LINE
  8
0
 10
-48.7845
 20
155.889
 11
-48.3547
 21
156.144
  0
LINE
  8
0
 10
-48.3547
 20
156.144
 11
-47.9079
 21
156.367
  0
LINE
  8
0
 10
-47.9079
 20
156.367
 11
-47.4462
 21
156.559
  0
LINE
  8
0
 10
-47.4462
 20
156.559
 11
-46.9721
 21
156.716
  0
LINE
  8
0
 10
-46.9721
 20
156.716
 11
-46.4879
 21
156.84
  0
LINE
  8
0
 10
-46.4879
 20
156.84
 11
-45.9962
 21
156.929
  0
LINE
  8
0
 10
-45.9962
 20
156.929
 11
-45.4994
 21
156.982
  0
LINE
  8
0
 10
-45.4994
 20
156.982
 11
-45
 21
157
  0
LINE
  8
0
 10
-45
 20
157
 11
-44.5006
 21
156.982
  0
LINE
  8
0
 10
-44.5006
 20
156.982
 11
-44.0038
 21
156.929
  0
LINE
  8
0
 10
-44.0038
 20
156.929
 11
-43.512
 21
156.84
  0
LINE
  8
0
 10
-43.512
 20
156.84
 11
-43.0279
 21
156.716
  0
LINE
  8
0
 10
-43.0279
 20
156.716
 11
-42.5537
 21
156.559
  0
LINE
  8
0
 10
-42.5537
 20
156.559
 11
-42.0921
 21
156.367
  0
LINE
  8
0
 10
-42.0921
 20
156.367
 11
-41.6452
 21
156.144
  0
LINE
  8
0
 10
-41.6452
 20
156.144
 11
-41.2155
 21
155.889
  0
LINE
  8
0
 10
-41.2155
 20
155.889
 11
-40.8051
 21
155.604
  0
LINE
  8
0
 10
-40.8051
 20
155.604
 11
-40.416
 21
155.29
  0
LINE
  8
0
 10
-40.416
 20
155.29
 11
-40.0502
 21
154.95
  0
LINE
  8
0
 10
-40.0502
 20
154.95
 11
-39.7097
 21
154.584
  0
LINE
  8
0
 10
-39.7097
 20
154.584
 11
-39.3962
 21
154.195
  0
LINE
  8
0
 10
-39.3962
 20
154.195
 11
-39.1112
 21
153.784
  0
LINE
  8
0
 10
-39.1112
 20
153.784
 11
-38.8562
 21
153.355
  0
LINE
  8
0
 10
-38.8562
 20
153.355
 11
-38.6326
 21
152.908
  0
LINE
  8
0
 10
-38.6326
 20
152.908
 11
-38.4413
 21
152.446
  0
LINE
  8
0
 10
-38.4413
 20
152.446
 11
-38.2835
 21
151.972
  0
LINE
  8
0
 10
-38.2835
 20
151.972
 11
-38.16
 21
151.488
  0
LINE
  8
0
 10
-38.16
 20
151.488
 11
-38.0712
 21
150.996
  0
LINE
  8
0
 10
-38.0712
 20
150.996
 11
-38.0178
 21
150.499
  0
LINE
  8
0
 10
-38.0178
 20
150.499
 11
-38
 21
150
  0
LINE
  8
0
 10
-38
 20
150
 11
-38.0178
 21
149.501
  0
LINE
  8
0
 10
-38.0178
 20
149.501
 11
-38.0712
 21
149.004
  0
LINE
  8
0
 10
-38.0712
 20
149.004
 11
-38.16
 21
148.512
  0
LINE
  8
0
 10
-38.16
 20
148.512
 11
-38.2835
 21
148.028
  0
LINE
  8
0
 10
-38.2835
 20
148.028
 11
-38.4413
 21
147.554
  0
LINE
  8
0
 10
-38.4413
 20
147.554
 11
-38.6326
 21
147.092
  0
LINE
  8
0
 10
-38.6326
 20
147.092
 11
-38.8562
 21
146.645
  0
LINE
  8
0
 10
-38.8562
 20
146.645
 11
-39.1112
 21
146.216
  0
LINE
  8
0
 10
-39.1112
 20
146.216
 11
-39.3962
 21
145.805
  0
LINE
  8
0
 10
-39.3962
 20
145.805
 11
-39.7097
 21
145.416
  0
LINE
  8
0
 10
-39.7097
 20
145.416
 11
-40.0502
 21
145.05
  0
LINE
  8
0
 10
-40.0502
 20
145.05
 11
-40.416
 21
144.71
  0
LINE
  8
0
 10
-40.416
 20
144.71
 11
-40.8051
 21
144.396
  0
LINE
  8
0
 10
-40.8051
 20
144.396
 11
-41.2155
 21
144.111
  0
LINE
  8
0
 10
-41.2155
 20
144.111
 11
-41.6452
 21
143.856
  0
LINE
  8
0
 10
-41.6452
 20
143.856
 11
-42.0921
 21
143.633
  0
LINE
  8
0
 10
-42.0921
 20
143.633
 11
-42.5537
 21
143.441
  0
LINE
  8
0
 10
-42.5537
 20
143.441
 11
-43.0279
 21
143.284
  0
LINE
  8
0
 10
-43.0279
 20
143.284
 11
-43.512
 21
143.16
  0
LINE
  8
0
 10
-43.512
 20
143.16
 11
-44.0038
 21
143.071
  0
LINE
  8
0
 10
-44.0038
 20
143.071
 11
-44.5006
 21
143.018
  0
LINE
  8
0
 10
-44.5006
 20
143.018
 11
-45
 21
143
  0
LINE
  8
0
 10
-45
 20
143
 11
-45.4994
 21
143.018
  0
LINE
  8
0
 10
-35.7169
 20
148.317
 11
-36.1812
 21
148.454
  0
LINE
  8
0
 10
-36.1812
 20
148.454
 11
-36.5883
 21
148.715
  0
LINE
  8
0
 10
-36.5883
 20
148.715
 11
-36.9051
 21
149.081
  0
LINE
  8
0
 10
-36.9051
 20
149.081
 11
-37.1061
 21
149.521
  0
LINE
  8
0
 10
-37.1061
 20
149.521
 11
-37.175
 21
150
  0
LINE
  8
0
 10
-37.175
 20
150
 11
-37.1061
 21
150.479
  0
LINE
  8
0
 10
-37.1061
 20
150.479
 11
-36.9051
 21
150.919
  0
LINE
  8
0
 10
-36.9051
 20
150.919
 11
-36.5883
 21
151.285
  0
LINE
  8
0
 10
-36.5883
 20
151.285
 11
-36.1812
 21
151.546
  0
LINE
  8
0
 10
-36.1812
 20
151.546
 11
-35.7169
 21
151.683
  0
LINE
  8
0
 10
-35.7169
 20
151.683
 11
-35.2331
 21
151.683
  0
LINE
  8
0
 10
-35.2331
 20
151.683
 11
-34.7688
 21
151.546
  0
LINE
  8
0
 10
-34.7688
 20
151.546
 11
-34.3617
 21
151.285
  0
LINE
  8
0
 10
-34.3617
 20
151.285
 11
-34.0449
 21
150.919
  0
LINE
  8
0
 10
-34.0449
 20
150.919
 11
-33.8439
 21
150.479
  0
LINE
  8
0
 10
-33.8439
 20
150.479
 11
-33.775
 21
150
  0
LINE
  8
0
 10
-33.775
 20
150
 11
-33.8439
 21
149.521
  0
LINE
  8
0
 10
-33.8439
 20
149.521
 11
-34.0449
 21
149.081
  0
LINE
  8
0
 10
-34.0449
 20
149.081
 11
-34.3617
 21
148.715
  0
LINE
  8
0
 10
-34.3617
 20
148.715
 11
-34.7688
 21
148.454
  0
LINE
  8
0
 10
-34.7688
 20
148.454
 11
-35.2331
 21
148.317
  0
LINE
  8
0
 10
-35.2331
 20
148.317
 11
-35.7169
 21
148.317
  0
LINE
  8
0
 10
-50.1633
 20
140.099
 11
-50.6125
 21
140.279
  0
LINE
  8
0
 10
-50.6125
 20
140.279
 11
-50.9928
 21
140.578
  0
LINE
  8
0
 10
-50.9928
 20
140.578
 11
-51.2735
 21
140.972
  0
LINE
  8
0
 10
-51.2735
 20
140.972
 11
-51.4318
 21
141.429
  0
LINE
  8
0
 10
-51.4318
 20
141.429
 11
-51.4548
 21
141.913
  0
LINE
  8
0
 10
-51.4548
 20
141.913
 11
-51.3407
 21
142.383
  0
LINE
  8
0
 10
-51.3407
 20
142.383
 11
-51.0988
 21
142.802
  0
LINE
  8
0
 10
-51.0988
 20
142.802
 11
-50.7486
 21
143.136
  0
LINE
  8
0
 10
-50.7486
 20
143.136
 11
-50.3185
 21
143.358
  0
LINE
  8
0
 10
-50.3185
 20
143.358
 11
-49.8434
 21
143.449
  0
LINE
  8
0
 10
-49.8434
 20
143.449
 11
-49.3617
 21
143.403
  0
LINE
  8
0
 10
-49.3617
 20
143.403
 11
-48.9125
 21
143.223
  0
LINE
  8
0
 10
-48.9125
 20
143.223
 11
-48.5322
 21
142.924
  0
LINE
  8
0
 10
-48.5322
 20
142.924
 11
-48.2515
 21
142.53
  0
LINE
  8
0
 10
-48.2515
 20
142.53
 11
-48.0932
 21
142.073
  0
LINE
  8
0
 10
-48.0932
 20
142.073
 11
-48.0702
 21
141.59
  0
LINE
  8
0
 10
-48.0702
 20
141.59
 11
-48.1843
 21
141.119
  0
LINE
  8
0
 10
-48.1843
 20
141.119
 11
-48.4262
 21
140.7
  0
LINE
  8
0
 10
-48.4262
 20
140.7
 11
-48.7764
 21
140.366
  0
LINE
  8
0
 10
-48.7764
 20
140.366
 11
-49.2065
 21
140.145
  0
LINE
  8
0
 10
-49.2065
 20
140.145
 11
-49.6816
 21
140.053
  0
LINE
  8
0
 10
-49.6816
 20
140.053
 11
-50.1633
 21
140.099
  0
LINE
  8
0
 10
-50.3185
 20
6.64238
 11
-50.7486
 21
6.86411
  0
LINE
  8
0
 10
-50.7486
 20
6.86411
 11
-51.0988
 21
7.19801
  0
LINE
  8
0
 10
-51.0988
 20
7.19801
 11
-51.3407
 21
7.61707
  0
LINE
  8
0
 10
-51.3407
 20
7.61707
 11
-51.4548
 21
8.0873
  0
LINE
  8
0
 10
-51.4548
 20
8.0873
 11
-51.4318
 21
8.57062
  0
LINE
  8
0
 10
-51.4318
 20
8.57062
 11
-51.2735
 21
9.02786
  0
LINE
  8
0
 10
-51.2735
 20
9.02786
 11
-50.9928
 21
9.42201
  0
LINE
  8
0
 10
-50.9928
 20
9.42201
 11
-50.6125
 21
9.72113
  0
LINE
  8
0
 10
-50.6125
 20
9.72113
 11
-50.1633
 21
9.90097
  0
LINE
  8
0
 10
-50.1633
 20
9.90097
 11
-49.6816
 21
9.94696
  0
LINE
  8
0
 10
-49.6816
 20
9.94696
 11
-49.2065
 21
9.85539
  0
LINE
  8
0
 10
-49.2065
 20
9.85539
 11
-48.7764
 21
9.63367
  0
LINE
  8
0
 10
-48.7764
 20
9.63367
 11
-48.4262
 21
9.29976
  0
LINE
  8
0
 10
-48.4262
 20
9.29976
 11
-48.1843
 21
8.88071
  0
LINE
  8
0
 10
-48.1843
 20
8.88071
 11
-48.0702
 21
8.41048
  0
LINE
  8
0
 10
-48.0702
 20
8.41048
 11
-48.0932
 21
7.92715
  0
LINE
  8
0
 10
-48.0932
 20
7.92715
 11
-48.2515
 21
7.46989
  0
LINE
  8
0
 10
-48.2515
 20
7.46989
 11
-48.5322
 21
7.07574
  0
LINE
  8
0
 10
-48.5322
 20
7.07574
 11
-48.9125
 21
6.77664
  0
LINE
  8
0
 10
-48.9125
 20
6.77664
 11
-49.3617
 21
6.5968
  0
LINE
  8
0
 10
-49.3617
 20
6.5968
 11
-49.8434
 21
6.55081
  0
LINE
  8
0
 10
-49.8434
 20
6.55081
 11
-50.3185
 21
6.64238
  0
LINE
  8
0
 10
-45.4994
 20
-6.98216
 11
-45.9962
 21
-6.92874
  0
LINE
  8
0
 10
-45.9962
 20
-6.92874
 11
-46.4879
 21
-6.84003
  0
LINE
  8
0
 10
-46.4879
 20
-6.84003
 11
-46.9721
 21
-6.71645
  0
LINE
  8
0
 10
-46.9721
 20
-6.71645
 11
-47.4462
 21
-6.55864
  0
LINE
  8
0
 10
-47.4462
 20
-6.55864
 11
-47.9079
 21
-6.36742
  0
LINE
  8
0
 10
-47.9079
 20
-6.36742
 11
-48.3547
 21
-6.14374
  0
LINE
  8
0
 10
-48.3547
 20
-6.14374
 11
-48.7845
 21
-5.88876
  0
LINE
  8
0
 10
-48.7845
 20
-5.88876
 11
-49.1949
 21
-5.60378
  0
LINE
  8
0
 10
-49.1949
 20
-5.60378
 11
-49.584
 21
-5.29024
  0
LINE
  8
0
 10
-49.584
 20
-5.29024
 11
-49.9497
 21
-4.94974
  0
LINE
  8
0
 10
-49.9497
 20
-4.94974
 11
-50.2902
 21
-4.58401
  0
LINE
  8
0
 10
-50.2902
 20
-4.58401
 11
-50.6038
 21
-4.19493
  0
LINE
  8
0
 10
-50.6038
 20
-4.19493
 11
-50.8888
 21
-3.78448
  0
LINE
  8
0
 10
-50.8888
 20
-3.78448
 11
-51.1438
 21
-3.35474
  0
LINE
  8
0
 10
-51.1438
 20
-3.35474
 11
-51.3674
 21
-2.9079
  0
LINE
  8
0
 10
-51.3674
 20
-2.9079
 11
-51.5586
 21
-2.44624
  0
LINE
  8
0
 10
-51.5586
 20
-2.44624
 11
-51.7164
 21
-1.97212
  0
LINE
  8
0
 10
-51.7164
 20
-1.97212
 11
-51.84
 21
-1.48795
  0
LINE
  8
0
 10
-51.84
 20
-1.48795
 11
-51.9287
 21
-0.996201
  0
LINE
  8
0
 10
-51.9287
 20
-0.996201
 11
-51.9822
 21
-0.499359
  0
LINE
  8
0
 10
-51.9822
 20
-0.499359
 11
-52
 21
0
  0
LINE
  8
0
 10
-52
 20
0
 11
-51.9822
 21
0.499359
  0
LINE
  8
0
 10
-51.9822
 20
0.499359
 11
-51.9287
 21
0.996201
  0
LINE
  8
0
 10
-51.9287
 20
0.996201
 11
-51.84
 21
1.48795
  0
LINE
  8
0
 10
-51.84
 20
1.48795
 11
-51.7164
 21
1.97212
  0
LINE
  8
0
 10
-51.7164
 20
1.97212
 11
-51.5586
 21
2.44624
  0
LINE
  8
0
 10
-51.5586
 20
2.44624
 11
-51.3674
 21
2.9079
  0
LINE
  8
0
 10
-51.3674
 20
2.9079
 11
-51.1438
 21
3.35474
  0
LINE
  8
0
 10
-51.1438
 20
3.35474
 11
-50.8888
 21
3.78448
  0
LINE
  8
0
 10
-50.8888
 20
3.78448
 11
-50.6038
 21
4.19493
  0
LINE
  8
0
 10
-50.6038
 20
4.19493
 11
-50.2902
 21
4.58401
  0
LINE
  8
0
 10
-50.2902
 20
4.58401
 11
-49.9497
 21
4.94974
  0
LINE
  8
0
 10
-49.9497
 20
4.94974
 11
-49.584
 21
5.29024
  0
LINE
  8
0
 10
-49.584
 20
5.29024
 11
-49.1949
 21
5.60378
  0
LINE
  8
0
 10
-49.1949
 20
5.60378
 11
-48.7845
 21
5.88876
  0
LINE
  8
0
 10
-48.7845
 20
5.88876
 11
-48.3547
 21
6.14374
  0
LINE
  8
0
 10
-48.3547
 20
6.14374
 11
-47.9079
 21
6.36742
  0
LINE
  8
0
 10
-47.9079
 20
6.36742
 11
-47.4462
 21
6.55864
  0
LINE
  8
0
 10
-47.4462
 20
6.55864
 11
-46.9721
 21
6.71645
  0
LINE
  8
0
 10
-46.9721
 20
6.71645
 11
-46.4879
 21
6.84003
  0
LINE
  8
0
 10
-46.4879
 20
6.84003
 11
-45.9962
 21
6.92874
  0
LINE
  8
0
 10
-45.9962
 20
6.92874
 11
-45.4994
 21
6.98216
  0
LINE
  8
0
 10
-45.4994
 20
6.98216
 11
-45
 21
7
  0
LINE
  8
0
 10
-45
 20
7
 11
-44.5006
 21
6.98216
  0
LINE
  8
0
 10
-44.5006
 20
6.98216
 11
-44.0038
 21
6.92874
  0
LINE
  8
0
 10
-44.0038
 20
6.92874
 11
-43.512
 21
6.84003
  0
LINE
  8
0
 10
-43.512
 20
6.84003
 11
-43.0279
 21
6.71645
  0
LINE
  8
0
 10
-43.0279
 20
6.71645
 11
-42.5537
 21
6.55864
  0
LINE
  8
0
 10
-42.5537
 20
6.55864
 11
-42.0921
 21
6.36742
  0
LINE
  8
0
 10
-42.0921
 20
6.36742
 11
-41.6452
 21
6.14374
  0
LINE
  8
0
 10
-41.6452
 20
6.14374
 11
-41.2155
 21
5.88876
  0
LINE
  8
0
 10
-41.2155
 20
5.88876
 11
-40.8051
 21
5.60378
  0
LINE
  8
0
 10
-40.8051
 20
5.60378
 11
-40.416
 21
5.29024
  0
LINE
  8
0
 10
-40.416
 20
5.29024
 11
-40.0502
 21
4.94974
  0
LINE
  8
0
 10
-40.0502
 20
4.94974
 11
-39.7097
 21
4.58401
  0
LINE
  8
0
 10
-39.7097
 20
4.58401
 11
-39.3962
 21
4.19493
  0
LINE
  8
0
 10
-39.3962
 20
4.19493
 11
-39.1112
 21
3.78448
  0
LINE
  8
0
 10
-39.1112
 20
3.78448
 11
-38.8562
 21
3.35474
  0
LINE
  8
0
 10
-38.8562
 20
3.35474
 11
-38.6326
 21
2.9079
  0
LINE
  8
0
 10
-38.6326
 20
2.9079
 11
-38.4413
 21
2.44624
  0
LINE
  8
0
 10
-38.4413
 20
2.44624
 11
-38.2835
 21
1.97212
  0
LINE
  8
0
 10
-38.2835
 20
1.97212
 11
-38.16
 21
1.48795
  0
LINE
  8
0
 10
-38.16
 20
1.48795
 11
-38.0712
 21
0.996201
  0
LINE
  8
0
 10
-38.0712
 20
0.996201
 11
-38.0178
 21
0.499359
  0
LINE
  8
0
 10
-38.0178
 20
0.499359
 11
-38
 21
0
  0
LINE
  8
0
 10
-38
 20
0
 11
-38.0178
 21
-0.499359
  0
LINE
  8
0
 10
-38.0178
 20
-0.499359
 11
-38.0712
 21
-0.996201
  0
LINE
  8
0
 10
-38.0712
 20
-0.996201
 11
-38.16
 21
-1.48795
  0
LINE
  8
0
 10
-38.16
 20
-1.48795
 11
-38.2835
 21
-1.97212
  0
LINE
  8
0
 10
-38.2835
 20
-1.97212
 11
-38.4413
 21
-2.44624
  0
LINE
  8
0
 10
-38.4413
 20
-2.44624
 11
-38.6326
 21
-2.9079
  0
LINE
  8
0
 10
-38.6326
 20
-2.9079
 11
-38.8562
 21
-3.35474
  0
LINE
  8
0
 10
-38.8562
 20
-3.35474
 11
-39.1112
 21
-3.78448
  0
LINE
  8
0
 10
-39.1112
 20
-3.78448
 11
-39.3962
 21
-4.19493
  0
LINE
  8
0
 10
-39.3962
 20
-4.19493
 11
-39.7097
 21
-4.58401
  0
LINE
  8
0
 10
-39.7097
 20
-4.58401
 11
-40.0502
 21
-4.94974
  0
LINE
  8
0
 10
-40.0502
 20
-4.94974
 11
-40.416
 21
-5.29024
  0
LINE
  8
0
 10
-40.416
 20
-5.29024
 11
-40.8051
 21
-5.60378
  0
LINE
  8
0
 10
-40.8051
 20
-5.60378
 11
-41.2155
 21
-5.88876
  0
LINE
  8
0
 10
-41.2155
 20
-5.88876
 11
-41.6452
 21
-6.14374
  0
LINE
  8
0
 10
-41.6452
 20
-6.14374
 11
-42.0921
 21
-6.36742
  0
LINE
  8
0
 10
-42.0921
 20
-6.36742
 11
-42.5537
 21
-6.55864
  0
LINE
  8
0
 10
-42.5537
 20
-6.55864
 11
-43.0279
 21
-6.71645
  0
LINE
  8
0
 10
-43.0279
 20
-6.71645
 11
-43.512
 21
-6.84003
  0
LINE
  8
0
 10
-43.512
 20
-6.84003
 11
-44.0038
 21
-6.92874
  0
LINE
  8
0
 10
-44.0038
 20
-6.92874
 11
-44.5006
 21
-6.98216
  0
LINE
  8
0
 10
-44.5006
 20
-6.98216
 11
-45
 21
-7
  0
LINE
  8
0
 10
-45
 20
-7
 11
-45.4994
 21
-6.98216
  0
LINE
  8
0
 10
-35.7169
 20
-1.68269
 11
-36.1812
 21
-1.54637
  0
LINE
  8
0
 10
-36.1812
 20
-1.54637
 11
-36.5883
 21
-1.28476
  0
LINE
  8
0
 10
-36.5883
 20
-1.28476
 11
-36.9051
 21
-0.919083
  0
LINE
  8
0
 10
-36.9051
 20
-0.919083
 11
-37.1061
 21
-0.478943
  0
LINE
  8
0
 10
-37.1061
 20
-0.478943
 11
-37.175
 21
0
  0
LINE
  8
0
 10
-37.175
 20
0
 11
-37.1061
 21
0.478943
  0
LINE
  8
0
 10
-37.1061
 20
0.478943
 11
-36.9051
 21
0.919083
  0
LINE
  8
0
 10
-36.9051
 20
0.919083
 11
-36.5883
 21
1.28476
  0
LINE
  8
0
 10
-36.5883
 20
1.28476
 11
-36.1812
 21
1.54637
  0
LINE
  8
0
 10
-36.1812
 20
1.54637
 11
-35.7169
 21
1.68269
  0
LINE
  8
0
 10
-35.7169
 20
1.68269
 11
-35.2331
 21
1.68269
  0
LINE
  8
0
 10
-35.2331
 20
1.68269
 11
-34.7688
 21
1.54637
  0
LINE
  8
0
 10
-34.7688
 20
1.54637
 11
-34.3617
 21
1.28476
  0
LINE
  8
0
 10
-34.3617
 20
1.28476
 11
-34.0449
 21
0.919083
  0
LINE
  8
0
 10
-34.0449
 20
0.919083
 11
-33.8439
 21
0.478943
  0
LINE
  8
0
 10
-33.8439
 20
0.478943
 11
-33.775
 21
0
  0
LINE
  8
0
 10
-33.775
 20
0
 11
-33.8439
 21
-0.478943
  0
LINE
  8
0
 10
-33.8439
 20
-0.478943
 11
-34.0449
 21
-0.919083
  0
LINE
  8
0
 10
-34.0449
 20
-0.919083
 11
-34.3617
 21
-1.28476
  0
LINE
  8
0
 10
-34.3617
 20
-1.28476
 11
-34.7688
 21
-1.54637
  0
LINE
  8
0
 10
-34.7688
 20
-1.54637
 11
-35.2331
 21
-1.68269
  0
LINE
  8
0
 10
-35.2331
 20
-1.68269
 11
-35.7169
 21
-1.68269
  0
LINE
  8
0
 10
-50.1633
 20
-9.90097
 11
-50.6125
 21
-9.72113
  0
LINE
  8
0
 10
-50.6125
 20
-9.72113
 11
-50.9928
 21
-9.42201
  0
LINE
  8
0
 10
-50.9928
 20
-9.42201
 11
-51.2735
 21
-9.02786
  0
LINE
  8
0
 10
-51.2735
 20
-9.02786
 11
-51.4318
 21
-8.57062
  0
LINE
  8
0
 10
-51.4318
 20
-8.57062
 11
-51.4548
 21
-8.0873
  0
LINE
  8
0
 10
-51.4548
 20
-8.0873
 11
-51.3407
 21
-7.61707
  0
LINE
  8
0
 10
-51.3407
 20
-7.61707
 11
-51.0988
 21
-7.19801
  0
LINE
  8
0
 10
-51.0988
 20
-7.19801
 11
-50.7486
 21
-6.86411
  0
LINE
  8
0
 10
-50.7486
 20
-6.86411
 11
-50.3185
 21
-6.64238
  0
LINE
  8
0
 10
-50.3185
 20
-6.64238
 11
-49.8434
 21
-6.55081
  0
LINE
  8
0
 10
-49.8434
 20
-6.55081
 11
-49.3617
 21
-6.5968
  0
LINE
  8
0
 10
-49.3617
 20
-6.5968
 11
-48.9125
 21
-6.77664
  0
LINE
  8
0
 10
-48.9125
 20
-6.77664
 11
-48.5322
 21
-7.07574
  0
LINE
  8
0
 10
-48.5322
 20
-7.07574
 11
-48.2515
 21
-7.46989
  0
LINE
  8
0
 10
-48.2515
 20
-7.46989
 11
-48.0932
 21
-7.92715
  0
LINE
  8
0
 10
-48.0932
 20
-7.92715
 11
-48.0702
 21
-8.41048
  0
LINE
  8
0
 10
-48.0702
 20
-8.41048
 11
-48.1843
 21
-8.88071
  0
LINE
  8
0
 10
-48.1843
 20
-8.88071
 11
-48.4262
 21
-9.29976
  0
LINE
  8
0
 10
-48.4262
 20
-9.29976
 11
-48.7764
 21
-9.63367
  0
LINE
  8
0
 10
-48.7764
 20
-9.63367
 11
-49.2065
 21
-9.85539
  0
LINE
  8
0
 10
-49.2065
 20
-9.85539
 11
-49.6816
 21
-9.94696
  0
LINE
  8
0
 10
-49.6816
 20
-9.94696
 11
-50.1633
 21
-9.90097
  0
LINE
  8
0
 10
-50.3185
 20
-143.358
 11
-50.7486
 21
-143.136
  0
LINE
  8
0
 10
-50.7486
 20
-143.136
 11
-51.0988
 21
-142.802
  0
LINE
  8
0
 10
-51.0988
 20
-142.802
 11
-51.3407
 21
-142.383
  0
LINE
  8
0
 10
-51.3407
 20
-142.383
 11
-51.4548
 21
-141.913
  0
LINE
  8
0
 10
-51.4548
 20
-141.913
 11
-51.4318
 21
-141.429
  0
LINE
  8
0
 10
-51.4318
 20
-141.429
 11
-51.2735
 21
-140.972
  0
LINE
  8
0
 10
-51.2735
 20
-140.972
 11
-50.9928
 21
-140.578
  0
LINE
  8
0
 10
-50.9928
 20
-140.578
 11
-50.6125
 21
-140.279
  0
LINE
  8
0
 10
-50.6125
 20
-140.279
 11
-50.1633
 21
-140.099
  0
LINE
  8
0
 10
-50.1633
 20
-140.099
 11
-49.6816
 21
-140.053
  0
LINE
  8
0
 10
-49.6816
 20
-140.053
 11
-49.2065
 21
-140.145
  0
LINE
  8
0
 10
-49.2065
 20
-140.145
 11
-48.7764
 21
-140.366
  0
LINE
  8
0
 10
-48.7764
 20
-140.366
 11
-48.4262
 21
-140.7
  0
LINE
  8
0
 10
-48.4262
 20
-140.7
 11
-48.1843
 21
-141.119
  0
LINE
  8
0
 10
-48.1843
 20
-141.119
 11
-48.0702
 21
-141.59
  0
LINE
  8
0
 10
-48.0702
 20
-141.59
 11
-48.0932
 21
-142.073
  0
LINE
  8
0
 10
-48.0932
 20
-142.073
 11
-48.2515
 21
-142.53
  0
LINE
  8
0
 10
-48.2515
 20
-142.53
 11
-48.5322
 21
-142.924
  0
LINE
  8
0
 10
-48.5322
 20
-142.924
 11
-48.9125
 21
-143.223
  0
LINE
  8
0
 10
-48.9125
 20
-143.223
 11
-49.3617
 21
-143.403
  0
LINE
  8
0
 10
-49.3617
 20
-143.403
 11
-49.8434
 21
-143.449
  0
LINE
  8
0
 10
-49.8434
 20
-143.449
 11
-50.3185
 21
-143.358
  0
LINE
  8
0
 10
-45.4994
 20
-156.982
 11
-45.9962
 21
-156.929
  0
LINE
  8
0
 10
-45.9962
 20
-156.929
 11
-46.4879
 21
-156.84
  0
LINE
  8
0
 10
-46.4879
 20
-156.84
 11
-46.9721
 21
-156.716
  0
LINE
  8
0
 10
-46.9721
 20
-156.716
 11
-47.4462
 21
-156.559
  0
LINE
  8
0
 10
-47.4462
 20
-156.559
 11
-47.9079
 21
-156.367
  0
LINE
  8
0
 10
-47.9079
 20
-156.367
 11
-48.3547
 21
-156.144
  0
LINE
  8
0
 10
-48.3547
 20
-156.144
 11
-48.7845
 21
-155.889
  0
LINE
  8
0
 10
-48.7845
 20
-155.889
 11
-49.1949
 21
-155.604
  0
LINE
  8
0
 10
-49.1949
 20
-155.604
 11
-49.584
 21
-155.29
  0
LINE
  8
0
 10
-49.584
 20
-155.29
 11
-49.9497
 21
-154.95
  0
LINE
  8
0
 10
-49.9497
 20
-154.95
 11
-50.2902
 21
-154.584
  0
LINE
  8
0
 10
-50.2902
 20
-154.584
 11
-50.6038
 21
-154.195
  0
LINE
  8
0
 10
-50.6038
 20
-154.195
 11
-50.8888
 21
-153.784
  0
LINE
  8
0
 10
-50.8888
 20
-153.784
 11
-51.1438
 21
-153.355
  0
LINE
  8
0
 10
-51.1438
 20
-153.355
 11
-51.3674
 21
-152.908
  0
LINE
  8
0
 10
-51.3674
 20
-152.908
 11
-51.5586
 21
-152.446
  0
LINE
  8
0
 10
-51.5586
 20
-152.446
 11
-51.7164
 21
-151.972
  0
LINE
  8
0
 10
-51.7164
 20
-151.972
 11
-51.84
 21
-151.488
  0
LINE
  8
0
 10
-51.84
 20
-151.488
 11
-51.9287
 21
-150.996
  0
LINE
  8
0
 10
-51.9287
 20
-150.996
 11
-51.9822
 21
-150.499
  0
LINE
  8
0
 10
-51.9822
 20
-150.499
 11
-52
 21
-150
  0
LINE
  8
0
 10
-52
 20
-150
 11
-51.9822
 21
-149.501
  0
LINE
  8
0
 10
-51.9822
 20
-149.501
 11
-51.9287
 21
-149.004
  0
LINE
  8
0
 10
-51.9287
 20
-149.004
 11
-51.84
 21
-148.512
  0
LINE
  8
0
 10
-51.84
 20
-148.512
 11
-51.7164
 21
-148.028
  0
LINE
  8
0
 10
-51.7164
 20
-148.028
 11
-51.5586
 21
-147.554
  0
LINE
  8
0
 10
-51.5586
 20
-147.554
 11
-51.3674
 21
-147.092
  0
LINE
  8
0
 10
-51.3674
 20
-147.092
 11
-51.1438
 21
-146.645
  0
LINE
  8
0
 10
-51.1438
 20
-146.645
 11
-50.8888
 21
-146.216
  0
LINE
  8
0
 10
-50.8888
 20
-146.216
 11
-50.6038
 21
-145.805
  0
LINE
  8
0
 10
-50.6038
 20
-145.805
 11
-50.2902
 21
-145.416
  0
LINE
  8
0
 10
-50.2902
 20
-145.416
 11
-49.9497
 21
-145.05
  0
LINE
  8
0
 10
-49.9497
 20
-145.05
 11
-49.584
 21
-144.71
  0
LINE
  8
0
 10
-49.584
 20
-144.71
 11
-49.1949
 21
-144.396
  0
LINE
  8
0
 10
-49.1949
 20
-144.396
 11
-48.7845
 21
-144.111
  0
LINE
  8
0
 10
-48.7845
 20
-144.111
 11
-48.3547
 21
-143.856
  0
LINE
  8
0
 10
-48.3547
 20
-143.856
 11
-47.9079
 21
-143.633
  0
LINE
  8
0
 10
-47.9079
 20
-143.633
 11
-47.4462
 21
-143.441
  0
LINE
  8
0
 10
-47.4462
 20
-143.441
 11
-46.9721
 21
-143.284
  0
LINE
  8
0
 10
-46.9721
 20
-143.284
 11
-46.4879
 21
-143.16
  0
LINE
  8
0
 10
-46.4879
 20
-143.16
 11
-45.9962
 21
-143.071
  0
LINE
  8
0
 10
-45.9962
 20
-143.071
 11
-45.4994
 21
-143.018
  0
LINE
  8
0
 10
-45.4994
 20
-143.018
 11
-45
 21
-143
  0
LINE
  8
0
 10
-45
 20
-143
 11
-44.5006
 21
-143.018
  0
LINE
  8
0
 10
-44.5006
 20
-143.018
 11
-44.0038
 21
-143.071
  0
LINE
  8
0
 10
-44.0038
 20
-143.071
 11
-43.512
 21
-143.16
  0
LINE
  8
0
 10
-43.512
 20
-143.16
 11
-43.0279
 21
-143.284
  0
LINE
  8
0
 10
-43.0279
 20
-143.284
 11
-42.5537
 21
-143.441
  0
LINE
  8
0
 10
-42.5537
 20
-143.441
 11
-42.0921
 21
-143.633
  0
LINE
  8
0
 10
-42.0921
 20
-143.633
 11
-41.6452
 21
-143.856
  0
LINE
  8
0
 10
-41.6452
 20
-143.856
 11
-41.2155
 21
-144.111
  0
LINE
  8
0
 10
-41.2155
 20
-144.111
 11
-40.8051
 21
-144.396
  0
LINE
  8
0
 10
-40.8051
 20
-144.396
 11
-40.416
 21
-144.71
  0
LINE
  8
0
 10
-40.416
 20
-144.71
 11
-40.0502
 21
-145.05
  0
LINE
  8
0
 10
-40.0502
 20
-145.05
 11
-39.7097
 21
-145.416
  0
LINE
  8
0
 10
-39.7097
 20
-145.416
 11
-39.3962
 21
-145.805
  0
LINE
  8
0
 10
-39.3962
 20
-145.805
 11
-39.1112
 21
-146.216
  0
LINE
  8
0
 10
-39.1112
 20
-146.216
 11
-38.8562
 21
-146.645
  0
LINE
  8
0
 10
-38.8562
 20
-146.645
 11
-38.6326
 21
-147.092
  0
LINE
  8
0
 10
-38.6326
 20
-147.092
 11
-38.4413
 21
-147.554
  0
LINE
  8
0
 10
-38.4413
 20
-147.554
 11
-38.2835
 21
-148.028
  0
LINE
  8
0
 10
-38.2835
 20
-148.028
 11
-38.16
 21
-148.512
  0
LINE
  8
0
 10
-38.16
 20
-148.512
 11
-38.0712
 21
-149.004
  0
LINE
  8
0
 10
-38.0712
 20
-149.004
 11
-38.0178
 21
-149.501
  0
LINE
  8
0
 10
-38.0178
 20
-149.501
 11
-38
 21
-150
  0
LINE
  8
0
 10
-38
 20
-150
 11
-38.0178
 21
-150.499
  0
LINE
  8
0
 10
-38.0178
 20
-150.499
 11
-38.0712
 21
-150.996
  0
LINE
  8
0
 10
-38.0712
 20
-150.996
 11
-38.16
 21
-151.488
  0
LINE
  8
0
 10
-38.16
 20
-151.488
 11
-38.2835
 21
-151.972
  0
LINE
  8
0
 10
-38.2835
 20
-151.972
 11
-38.4413
 21
-152.446
  0
LINE
  8
0
 10
-38.4413
 20
-152.446
 11
-38.6326
 21
-152.908
  0
LINE
  8
0
 10
-38.6326
 20
-152.908
 11
-38.8562
 21
-153.355
  0
LINE
  8
0
 10
-38.8562
 20
-153.355
 11
-39.1112
 21
-153.784
  0
LINE
  8
0
 10
-39.1112
 20
-153.784
 11
-39.3962
 21
-154.195
  0
LINE
  8
0
 10
-39.3962
 20
-154.195
 11
-39.7097
 21
-154.584
  0
LINE
  8
0
 10
-39.7097
 20
-154.584
 11
-40.0502
 21
-154.95
  0
LINE
  8
0
 10
-40.0502
 20
-154.95
 11
-40.416
 21
-155.29
  0
LINE
  8
0
 10
-40.416
 20
-155.29
 11
-40.8051
 21
-155.604
  0
LINE
  8
0
 10
-40.8051
 20
-155.604
 11
-41.2155
 21
-155.889
  0
LINE
  8
0
 10
-41.2155
 20
-155.889
 11
-41.6452
 21
-156.144
  0
LINE
  8
0
 10
-41.6452
 20
-156.144
 11
-42.0921
 21
-156.367
  0
LINE
  8
0
 10
-42.0921
 20
-156.367
 11
-42.5537
 21
-156.559
  0
LINE
  8
0
 10
-42.5537
 20
-156.559
 11
-43.0279
 21
-156.716
  0
LINE
  8
0
 10
-43.0279
 20
-156.716
 11
-43.512
 21
-156.84
  0
LINE
  8
0
 10
-43.512
 20
-156.84
 11
-44.0038
 21
-156.929
  0
LINE
  8
0
 10
-44.0038
 20
-156.929
 11
-44.5006
 21
-156.982
  0
LINE
  8
0
 10
-44.5006
 20
-156.982
 11
-45
 21
-157
  0
LINE
  8
0
 10
-45
 20
-157
 11
-45.4994
 21
-156.982
  0
LINE
  8
0
 10
-35.7169
 20
-151.683
 11
-36.1812
 21
-151.546
  0
LINE
  8
0
 10
-36.1812
 20
-151.546
 11
-36.5883
 21
-151.285
  0
LINE
  8
0
 10
-36.5883
 20
-151.285
 11
-36.9051
 21
-150.919
  0
LINE
  8
0
 10
-36.9051
 20
-150.919
 11
-37.1061
 21
-150.479
  0
LINE
  8
0
 10
-37.1061
 20
-150.479
 11
-37.175
 21
-150
  0
LINE
  8
0
 10
-37.175
 20
-150
 11
-37.1061
 21
-149.521
  0
LINE
  8
0
 10
-37.1061
 20
-149.521
 11
-36.9051
 21
-149.081
  0
LINE
  8
0
 10
-36.9051
 20
-149.081
 11
-36.5883
 21
-148.715
  0
LINE
  8
0
 10
-36.5883
 20
-148.715
 11
-36.1812
 21
-148.454
  0
LINE
  8
0
 10
-36.1812
 20
-148.454
 11
-35.7169
 21
-148.317
  0
LINE
  8
0
 10
-35.7169
 20
-148.317
 11
-35.2331
 21
-148.317
  0
LINE
  8
0
 10
-35.2331
 20
-148.317
 11
-34.7688
 21
-148.454
  0
LINE
  8
0
 10
-34.7688
 20
-148.454
 11
-34.3617
 21
-148.715
  0
LINE
  8
0
 10
-34.3617
 20
-148.715
 11
-34.0449
 21
-149.081
  0
LINE
  8
0
 10
-34.0449
 20
-149.081
 11
-33.8439
 21
-149.521
  0
LINE
  8
0
 10
-33.8439
 20
-149.521
 11
-33.775
 21
-150
  0
LINE
  8
0
 10
-33.775
 20
-150
 11
-33.8439
 21
-150.479
  0
LINE
  8
0
 10
-33.8439
 20
-150.479
 11
-34.0449
 21
-150.919
  0
LINE
  8
0
 10
-34.0449
 20
-150.919
 11
-34.3617
 21
-151.285
  0
LINE
  8
0
 10
-34.3617
 20
-151.285
 11
-34.7688
 21
-151.546
  0
LINE
  8
0
 10
-34.7688
 20
-151.546
 11
-35.2331
 21
-151.683
  0
LINE
  8
0
 10
-35.2331
 20
-151.683
 11
-35.7169
 21
-151.683
  0
LINE
  8
0
 10
-50.1633
 20
-159.901
 11
-50.6125
 21
-159.721
  0
LINE
  8
0
 10
-50.6125
 20
-159.721
 11
-50.9928
 21
-159.422
  0
LINE
  8
0
 10
-50.9928
 20
-159.422
 11
-51.2735
 21
-159.028
  0
LINE
  8
0
 10
-51.2735
 20
-159.028
 11
-51.4318
 21
-158.571
  0
LINE
  8
0
 10
-51.4318
 20
-158.571
 11
-51.4548
 21
-158.087
  0
LINE
  8
0
 10
-51.4548
 20
-158.087
 11
-51.3407
 21
-157.617
  0
LINE
  8
0
 10
-51.3407
 20
-157.617
 11
-51.0988
 21
-157.198
  0
LINE
  8
0
 10
-51.0988
 20
-157.198
 11
-50.7486
 21
-156.864
  0
LINE
  8
0
 10
-50.7486
 20
-156.864
 11
-50.3185
 21
-156.642
  0
LINE
  8
0
 10
-50.3185
 20
-156.642
 11
-49.8434
 21
-156.551
  0
LINE
  8
0
 10
-49.8434
 20
-156.551
 11
-49.3617
 21
-156.597
  0
LINE
  8
0
 10
-49.3617
 20
-156.597
 11
-48.9125
 21
-156.777
  0
LINE
  8
0
 10
-48.9125
 20
-156.777
 11
-48.5322
 21
-157.076
  0
LINE
  8
0
 10
-48.5322
 20
-157.076
 11
-48.2515
 21
-157.47
  0
LINE
  8
0
 10
-48.2515
 20
-157.47
 11
-48.0932
 21
-157.927
  0
LINE
  8
0
 10
-48.0932
 20
-157.927
 11
-48.0702
 21
-158.41
  0
LINE
  8
0
 10
-48.0702
 20
-158.41
 11
-48.1843
 21
-158.881
  0
LINE
  8
0
 10
-48.1843
 20
-158.881
 11
-48.4262
 21
-159.3
  0
LINE
  8
0
 10
-48.4262
 20
-159.3
 11
-48.7764
 21
-159.634
  0
LINE
  8
0
 10
-48.7764
 20
-159.634
 11
-49.2065
 21
-159.855
  0
LINE
  8
0
 10
-49.2065
 20
-159.855
 11
-49.6816
 21
-159.947
  0
LINE
  8
0
 10
-49.6816
 20
-159.947
 11
-50.1633
 21
-159.901
  0
LINE
  8
0
 10
19.5123
 20
-163.752
 11
19.0433
 21
-163.61
  0
LINE
  8
0
 10
19.0433
 20
-163.61
 11
18.6111
 21
-163.379
  0
LINE
  8
0
 10
18.6111
 20
-163.379
 11
18.2322
 21
-163.068
  0
LINE
  8
0
 10
18.2322
 20
-163.068
 11
17.9213
 21
-162.689
  0
LINE
  8
0
 10
17.9213
 20
-162.689
 11
17.6903
 21
-162.257
  0
LINE
  8
0
 10
17.6903
 20
-162.257
 11
17.548
 21
-161.788
  0
LINE
  8
0
 10
17.548
 20
-161.788
 11
17.5
 21
-161.3
  0
LINE
  8
0
 10
17.5
 20
-161.3
 11
17.548
 21
-160.812
  0
LINE
  8
0
 10
17.548
 20
-160.812
 11
17.6903
 21
-160.343
  0
LINE
  8
0
 10
17.6903
 20
-160.343
 11
17.9213
 21
-159.911
  0
LINE
  8
0
 10
17.9213
 20
-159.911
 11
18.2322
 21
-159.532
  0
LINE
  8
0
 10
18.2322
 20
-159.532
 11
18.6111
 21
-159.221
  0
LINE
  8
0
 10
18.6111
 20
-159.221
 11
19.0433
 21
-158.99
  0
LINE
  8
0
 10
19.0433
 20
-158.99
 11
19.5123
 21
-158.848
  0
LINE
  8
0
 10
19.5123
 20
-158.848
 11
20
 21
-158.8
  0
LINE
  8
0
 10
20
 20
-158.8
 11
20.4877
 21
-158.848
  0
LINE
  8
0
 10
20.4877
 20
-158.848
 11
20.9567
 21
-158.99
  0
LINE
  8
0
 10
20.9567
 20
-158.99
 11
21.3889
 21
-159.221
  0
LINE
  8
0
 10
21.3889
 20
-159.221
 11
21.7678
 21
-159.532
  0
LINE
  8
0
 10
21.7678
 20
-159.532
 11
22.0787
 21
-159.911
  0
LINE
  8
0
 10
22.0787
 20
-159.911
 11
22.3097
 21
-160.343
  0
LINE
  8
0
 10
22.3097
 20
-160.343
 11
22.452
 21
-160.812
  0
LINE
  8
0
 10
22.452
 20
-160.812
 11
22.5
 21
-161.3
  0
LINE
  8
0
 10
22.5
 20
-161.3
 11
22.452
 21
-161.788
  0
LINE
  8
0
 10
22.452
 20
-161.788
 11
22.3097
 21
-162.257
  0
LINE
  8
0
 10
22.3097
 20
-162.257
 11
22.0787
 21
-162.689
  0
LINE
  8
0
 10
22.0787
 20
-162.689
 11
21.7678
 21
-163.068
  0
LINE
  8
0
 10
21.7678
 20
-163.068
 11
21.3889
 21
-163.379
  0
LINE
  8
0
 10
21.3889
 20
-163.379
 11
20.9567
 21
-163.61
  0
LINE
  8
0
 10
20.9567
 20
-163.61
 11
20.4877
 21
-163.752
  0
LINE
  8
0
 10
20.4877
 20
-163.752
 11
20
 21
-163.8
  0
LINE
  8
0
 10
20
 20
-163.8
 11
19.5123
 21
-163.752
  0
LINE
  8
0
 10
-20.4877
 20
-163.752
 11
-20.9567
 21
-163.61
  0
LINE
  8
0
 10
-20.9567
 20
-163.61
 11
-21.3889
 21
-163.379
  0
LINE
  8
0
 10
-21.3889
 20
-163.379
 11
-21.7678
 21
-163.068
  0
LINE
  8
0
 10
-21.7678
 20
-163.068
 11
-22.0787
 21
-162.689
  0
LINE
  8
0
 10
-22.0787
 20
-162.689
 11
-22.3097
 21
-162.257
  0
LINE
  8
0
 10
-22.3097
 20
-162.257
 11
-22.452
 21
-161.788
  0
LINE
  8
0
 10
-22.452
 20
-161.788
 11
-22.5
 21
-161.3
  0
LINE
  8
0
 10
-22.5
 20
-161.3
 11
-22.452
 21
-160.812
  0
LINE
  8
0
 10
-22.452
 20
-160.812
 11
-22.3097
 21
-160.343
  0
LINE
  8
0
 10
-22.3097
 20
-160.343
 11
-22.0787
 21
-159.911
  0
LINE
  8
0
 10
-22.0787
 20
-159.911
 11
-21.7678
 21
-159.532
  0
LINE
  8
0
 10
-21.7678
 20
-159.532
 11
-21.3889
 21
-159.221
  0
LINE
  8
0
 10
-21.3889
 20
-159.221
 11
-20.9567
 21
-158.99
  0
LINE
  8
0
 10
-20.9567
 20
-158.99
 11
-20.4877
 21
-158.848
  0
LINE
  8
0
 10
-20.4877
 20
-158.848
 11
-20
 21
-158.8
  0
LINE
  8
0
 10
-20
 20
-158.8
 11
-19.5123
 21
-158.848
  0
LINE
  8
0
 10
-19.5123
 20
-158.848
 11
-19.0433
 21
-158.99
  0
LINE
  8
0
 10
-19.0433
 20
-158.99
 11
-18.6111
 21
-159.221
  0
LINE
  8
0
 10
-18.6111
 20
-159.221
 11
-18.2322
 21
-159.532
  0
LINE
  8
0
 10
-18.2322
 20
-159.532
 11
-17.9213
 21
-159.911
  0
LINE
  8
0
 10
-17.9213
 20
-159.911
 11
-17.6903
 21
-160.343
  0
LINE
  8
0
 10
-17.6903
 20
-160.343
 11
-17.548
 21
-160.812
  0
LINE
  8
0
 10
-17.548
 20
-160.812
 11
-17.5
 21
-161.3
  0
LINE
  8
0
 10
-17.5
 20
-161.3
 11
-17.548
 21
-161.788
  0
LINE
  8
0
 10
-17.548
 20
-161.788
 11
-17.6903
 21
-162.257
  0
LINE
  8
0
 10
-17.6903
 20
-162.257
 11
-17.9213
 21
-162.689
  0
LINE
  8
0
 10
-17.9213
 20
-162.689
 11
-18.2322
 21
-163.068
  0
LINE
  8
0
 10
-18.2322
 20
-163.068
 11
-18.6111
 21
-163.379
  0
LINE
  8
0
 10
-18.6111
 20
-163.379
 11
-19.0433
 21
-163.61
  0
LINE
  8
0
 10
-19.0433
 20
-163.61
 11
-19.5123
 21
-163.752
  0
LINE
  8
0
 10
-19.5123
 20
-163.752
 11
-20
 21
-163.8
  0
LINE
  8
0
 10
-20
 20
-163.8
 11
-20.4877
 21
-163.752
  0
LINE
  8
0
 10
-17.6903
 20
160.343
 11
-17.9213
 21
159.911
  0
LINE
  8
0
 10
-17.9213
 20
159.911
 11
-18.2322
 21
159.532
  0
LINE
  8
0
 10
-18.2322
 20
159.532
 11
-18.6111
 21
159.221
  0
LINE
  8
0
 10
-18.6111
 20
159.221
 11
-19.0433
 21
158.99
  0
LINE
  8
0
 10
-19.0433
 20
158.99
 11
-19.5123
 21
158.848
  0
LINE
  8
0
 10
-19.5123
 20
158.848
 11
-20
 21
158.8
  0
LINE
  8
0
 10
-20
 20
158.8
 11
-20.4877
 21
158.848
  0
LINE
  8
0
 10
-20.4877
 20
158.848
 11
-20.9567
 21
158.99
  0
LINE
  8
0
 10
-20.9567
 20
158.99
 11
-21.3889
 21
159.221
  0
LINE
  8
0
 10
-21.3889
 20
159.221
 11
-21.7678
 21
159.532
  0
LINE
  8
0
 10
-21.7678
 20
159.532
 11
-22.0787
 21
159.911
  0
LINE
  8
0
 10
-22.0787
 20
159.911
 11
-22.3097
 21
160.343
  0
LINE
  8
0
 10
-22.3097
 20
160.343
 11
-22.452
 21
160.812
  0
LINE
  8
0
 10
-22.452
 20
160.812
 11
-22.5
 21
161.3
  0
LINE
  8
0
 10
-22.5
 20
161.3
 11
-22.452
 21
161.788
  0
LINE
  8
0
 10
-22.452
 20
161.788
 11
-22.3097
 21
162.257
  0
LINE
  8
0
 10
-22.3097
 20
162.257
 11
-22.0787
 21
162.689
  0
LINE
  8
0
 10
-22.0787
 20
162.689
 11
-21.7678
 21
163.068
  0
LINE
  8
0
 10
-21.7678
 20
163.068
 11
-21.3889
 21
163.379
  0
LINE
  8
0
 10
-21.3889
 20
163.379
 11
-20.9567
 21
163.61
  0
LINE
  8
0
 10
-20.9567
 20
163.61
 11
-20.4877
 21
163.752
  0
LINE
  8
0
 10
-20.4877
 20
163.752
 11
-20
 21
163.8
  0
LINE
  8
0
 10
-20
 20
163.8
 11
-19.5123
 21
163.752
  0
LINE
  8
0
 10
-19.5123
 20
163.752
 11
-19.0433
 21
163.61
  0
LINE
  8
0
 10
-19.0433
 20
163.61
 11
-18.6111
 21
163.379
  0
LINE
  8
0
 10
-18.6111
 20
163.379
 11
-18.2322
 21
163.068
  0
LINE
  8
0
 10
-18.2322
 20
163.068
 11
-17.9213
 21
162.689
  0
LINE
  8
0
 10
-17.9213
 20
162.689
 11
-17.6903
 21
162.257
  0
LINE
  8
0
 10
-17.6903
 20
162.257
 11
-17.548
 21
161.788
  0
LINE
  8
0
 10
-17.548
 20
161.788
 11
-17.5
 21
161.3
  0
LINE
  8
0
 10
-17.5
 20
161.3
 11
-17.548
 21
160.812
  0
LINE
  8
0
 10
-17.548
 20
160.812
 11
-17.6903
 21
160.343
  0
ENDSEC
  0
SECTION
  2
OBJECTS
  0
DICTIONARY
  0
ENDSEC
  0
EOF
