  0
SECTION
  2
BLOCKS
  0
ENDSEC
  0
SECTION
  2
ENTITIES
  0
LINE
  8
0
 10
7.54999
 20
-144.85
 11
4.7
 21
-144.85
  0
LINE
  8
0
 10
4.7
 20
-144.85
 11
4.7
 21
-144.75
  0
LINE
  8
0
 10
4.7
 20
-144.75
 11
7.39999
 21
-131.25
  0
LINE
  8
0
 10
7.39999
 20
-131.25
 11
12.6
 21
-131.25
  0
LINE
  8
0
 10
12.6
 20
-131.25
 11
15.3
 21
-144.75
  0
LINE
  8
0
 10
15.3
 20
-144.75
 11
15.3
 21
-144.85
  0
LINE
  8
0
 10
15.3
 20
-144.85
 11
12.45
 21
-144.85
  0
LINE
  8
0
 10
12.45
 20
-144.85
 11
12.45
 21
-151.3
  0
LINE
  8
0
 10
12.45
 20
-151.3
 11
23.25
 21
-151.3
  0
LINE
  8
0
 10
23.25
 20
-151.3
 11
23.25
 21
151.3
  0
LINE
  8
0
 10
23.25
 20
151.3
 11
12.45
 21
151.3
  0
LINE
  8
0
 10
12.45
 20
151.3
 11
12.45
 21
144.85
  0
LINE
  8
0
 10
12.45
 20
144.85
 11
15.3
 21
144.85
  0
LINE
  8
0
 10
15.3
 20
144.85
 11
15.3
 21
144.75
  0
LINE
  8
0
 10
15.3
 20
144.75
 11
12.6
 21
131.25
  0
LINE
  8
0
 10
12.6
 20
131.25
 11
7.39999
 21
131.25
  0
LINE
  8
0
 10
7.39999
 20
131.25
 11
4.7
 21
144.75
  0
LINE
  8
0
 10
4.7
 20
144.75
 11
4.7
 21
144.85
  0
LINE
  8
0
 10
4.7
 20
144.85
 11
7.54999
 21
144.85
  0
LINE
  8
0
 10
7.54999
 20
144.85
 11
7.54999
 21
151.3
  0
LINE
  8
0
 10
7.54999
 20
151.3
 11
-3.25
 21
151.3
  0
LINE
  8
0
 10
-3.25
 20
151.3
 11
-3.25
 21
-151.3
  0
LINE
  8
0
 10
-3.25
 20
-151.3
 11
7.54999
 21
-151.3
  0
LINE
  8
0
 10
7.54999
 20
-151.3
 11
7.54999
 21
-144.85
  0
LINE
  8
0
 10
-3.2
 20
121.75
 11
-3.2
 21
136.65
  0
LINE
  8
0
 10
-3.2
 20
136.65
 11
3.2
 21
136.65
  0
LINE
  8
0
 10
3.2
 20
136.65
 11
3.2
 21
121.75
  0
LINE
  8
0
 10
3.2
 20
121.75
 11
-3.2
 21
121.75
  0
LINE
  8
0
 10
0.212265
 20
111.748
 11
-0.256699
 21
111.89
  0
LINE
  8
0
 10
-0.256699
 20
111.89
 11
-0.688919
 21
112.121
  0
LINE
  8
0
 10
-0.688919
 20
112.121
 11
-1.06776
 21
112.432
  0
LINE
  8
0
 10
-1.06776
 20
112.432
 11
-1.37866
 21
112.811
  0
LINE
  8
0
 10
-1.37866
 20
112.811
 11
-1.6097
 21
113.243
  0
LINE
  8
0
 10
-1.6097
 20
113.243
 11
-1.75195
 21
113.712
  0
LINE
  8
0
 10
-1.75195
 20
113.712
 11
-1.79999
 21
114.2
  0
LINE
  8
0
 10
-1.79999
 20
114.2
 11
-1.75195
 21
114.688
  0
LINE
  8
0
 10
-1.75195
 20
114.688
 11
-1.6097
 21
115.157
  0
LINE
  8
0
 10
-1.6097
 20
115.157
 11
-1.37866
 21
115.589
  0
LINE
  8
0
 10
-1.37866
 20
115.589
 11
-1.06776
 21
115.968
  0
LINE
  8
0
 10
-1.06776
 20
115.968
 11
-0.688919
 21
116.279
  0
LINE
  8
0
 10
-0.688919
 20
116.279
 11
-0.256699
 21
116.51
  0
LINE
  8
0
 10
-0.256699
 20
116.51
 11
0.212265
 21
116.652
  0
LINE
  8
0
 10
0.212265
 20
116.652
 11
0.699997
 21
116.7
  0
LINE
  8
0
 10
0.699997
 20
116.7
 11
1.18771
 21
116.652
  0
LINE
  8
0
 10
1.18771
 20
116.652
 11
1.65671
 21
116.51
  0
LINE
  8
0
 10
1.65671
 20
116.51
 11
2.08891
 21
116.279
  0
LINE
  8
0
 10
2.08891
 20
116.279
 11
2.46776
 21
115.968
  0
LINE
  8
0
 10
2.46776
 20
115.968
 11
2.77867
 21
115.589
  0
LINE
  8
0
 10
2.77867
 20
115.589
 11
3.00969
 21
115.157
  0
LINE
  8
0
 10
3.00969
 20
115.157
 11
3.15196
 21
114.688
  0
LINE
  8
0
 10
3.15196
 20
114.688
 11
3.2
 21
114.2
  0
LINE
  8
0
 10
3.2
 20
114.2
 11
3.15196
 21
113.712
  0
LINE
  8
0
 10
3.15196
 20
113.712
 11
3.00969
 21
113.243
  0
LINE
  8
0
 10
3.00969
 20
113.243
 11
2.77867
 21
112.811
  0
LINE
  8
0
 10
2.77867
 20
112.811
 11
2.46776
 21
112.432
  0
LINE
  8
0
 10
2.46776
 20
112.432
 11
2.08891
 21
112.121
  0
LINE
  8
0
 10
2.08891
 20
112.121
 11
1.65671
 21
111.89
  0
LINE
  8
0
 10
1.65671
 20
111.89
 11
1.18771
 21
111.748
  0
LINE
  8
0
 10
1.18771
 20
111.748
 11
0.699997
 21
111.7
  0
LINE
  8
0
 10
0.699997
 20
111.7
 11
0.212265
 21
111.748
  0
LINE
  8
0
 10
-3.2
 20
91.75
 11
-3.2
 21
106.65
  0
LINE
  8
0
 10
-3.2
 20
106.65
 11
3.2
 21
106.65
  0
LINE
  8
0
 10
3.2
 20
106.65
 11
3.2
 21
91.75
  0
LINE
  8
0
 10
3.2
 20
91.75
 11
-3.2
 21
91.75
  0
LINE
  8
0
 10
-3.2
 20
7.54999
 11
-3.2
 21
22.45
  0
LINE
  8
0
 10
-3.2
 20
22.45
 11
3.2
 21
22.45
  0
LINE
  8
0
 10
3.2
 20
22.45
 11
3.2
 21
7.54999
  0
LINE
  8
0
 10
3.2
 20
7.54999
 11
-3.2
 21
7.54999
  0
LINE
  8
0
 10
0.212265
 20
-2.45195
 11
-0.256699
 21
-2.30969
  0
LINE
  8
0
 10
-0.256699
 20
-2.30969
 11
-0.688919
 21
-2.07866
  0
LINE
  8
0
 10
-0.688919
 20
-2.07866
 11
-1.06776
 21
-1.76776
  0
LINE
  8
0
 10
-1.06776
 20
-1.76776
 11
-1.37866
 21
-1.38892
  0
LINE
  8
0
 10
-1.37866
 20
-1.38892
 11
-1.6097
 21
-0.956696
  0
LINE
  8
0
 10
-1.6097
 20
-0.956696
 11
-1.75195
 21
-0.487717
  0
LINE
  8
0
 10
-1.75195
 20
-0.487717
 11
-1.79999
 21
0
  0
LINE
  8
0
 10
-1.79999
 20
0
 11
-1.75195
 21
0.487717
  0
LINE
  8
0
 10
-1.75195
 20
0.487717
 11
-1.6097
 21
0.956696
  0
LINE
  8
0
 10
-1.6097
 20
0.956696
 11
-1.37866
 21
1.38892
  0
LINE
  8
0
 10
-1.37866
 20
1.38892
 11
-1.06776
 21
1.76776
  0
LINE
  8
0
 10
-1.06776
 20
1.76776
 11
-0.688919
 21
2.07866
  0
LINE
  8
0
 10
-0.688919
 20
2.07866
 11
-0.256699
 21
2.30969
  0
LINE
  8
0
 10
-0.256699
 20
2.30969
 11
0.212265
 21
2.45195
  0
LINE
  8
0
 10
0.212265
 20
2.45195
 11
0.699997
 21
2.5
  0
LINE
  8
0
 10
0.699997
 20
2.5
 11
1.18771
 21
2.45195
  0
LINE
  8
0
 10
1.18771
 20
2.45195
 11
1.65671
 21
2.30969
  0
LINE
  8
0
 10
1.65671
 20
2.30969
 11
2.08891
 21
2.07866
  0
LINE
  8
0
 10
2.08891
 20
2.07866
 11
2.46776
 21
1.76776
  0
LINE
  8
0
 10
2.46776
 20
1.76776
 11
2.77867
 21
1.38892
  0
LINE
  8
0
 10
2.77867
 20
1.38892
 11
3.00969
 21
0.956696
  0
LINE
  8
0
 10
3.00969
 20
0.956696
 11
3.15196
 21
0.487717
  0
LINE
  8
0
 10
3.15196
 20
0.487717
 11
3.2
 21
0
  0
LINE
  8
0
 10
3.2
 20
0
 11
3.15196
 21
-0.487717
  0
LINE
  8
0
 10
3.15196
 20
-0.487717
 11
3.00969
 21
-0.956696
  0
LINE
  8
0
 10
3.00969
 20
-0.956696
 11
2.77867
 21
-1.38892
  0
LINE
  8
0
 10
2.77867
 20
-1.38892
 11
2.46776
 21
-1.76776
  0
LINE
  8
0
 10
2.46776
 20
-1.76776
 11
2.08891
 21
-2.07866
  0
LINE
  8
0
 10
2.08891
 20
-2.07866
 11
1.65671
 21
-2.30969
  0
LINE
  8
0
 10
1.65671
 20
-2.30969
 11
1.18771
 21
-2.45195
  0
LINE
  8
0
 10
1.18771
 20
-2.45195
 11
0.699997
 21
-2.5
  0
LINE
  8
0
 10
0.699997
 20
-2.5
 11
0.212265
 21
-2.45195
  0
LINE
  8
0
 10
-3.2
 20
-22.45
 11
-3.2
 21
-7.54999
  0
LINE
  8
0
 10
-3.2
 20
-7.54999
 11
3.2
 21
-7.54999
  0
LINE
  8
0
 10
3.2
 20
-7.54999
 11
3.2
 21
-22.45
  0
LINE
  8
0
 10
3.2
 20
-22.45
 11
-3.2
 21
-22.45
  0
LINE
  8
0
 10
-3.2
 20
-106.65
 11
-3.2
 21
-91.75
  0
LINE
  8
0
 10
-3.2
 20
-91.75
 11
3.2
 21
-91.75
  0
LINE
  8
0
 10
3.2
 20
-91.75
 11
3.2
 21
-106.65
  0
LINE
  8
0
 10
3.2
 20
-106.65
 11
-3.2
 21
-106.65
  0
LINE
  8
0
 10
0.212265
 20
-116.652
 11
-0.256699
 21
-116.51
  0
LINE
  8
0
 10
-0.256699
 20
-116.51
 11
-0.688919
 21
-116.279
  0
LINE
  8
0
 10
-0.688919
 20
-116.279
 11
-1.06776
 21
-115.968
  0
LINE
  8
0
 10
-1.06776
 20
-115.968
 11
-1.37866
 21
-115.589
  0
LINE
  8
0
 10
-1.37866
 20
-115.589
 11
-1.6097
 21
-115.157
  0
LINE
  8
0
 10
-1.6097
 20
-115.157
 11
-1.75195
 21
-114.688
  0
LINE
  8
0
 10
-1.75195
 20
-114.688
 11
-1.79999
 21
-114.2
  0
LINE
  8
0
 10
-1.79999
 20
-114.2
 11
-1.75195
 21
-113.712
  0
LINE
  8
0
 10
-1.75195
 20
-113.712
 11
-1.6097
 21
-113.243
  0
LINE
  8
0
 10
-1.6097
 20
-113.243
 11
-1.37866
 21
-112.811
  0
LINE
  8
0
 10
-1.37866
 20
-112.811
 11
-1.06776
 21
-112.432
  0
LINE
  8
0
 10
-1.06776
 20
-112.432
 11
-0.688919
 21
-112.121
  0
LINE
  8
0
 10
-0.688919
 20
-112.121
 11
-0.256699
 21
-111.89
  0
LINE
  8
0
 10
-0.256699
 20
-111.89
 11
0.212265
 21
-111.748
  0
LINE
  8
0
 10
0.212265
 20
-111.748
 11
0.699997
 21
-111.7
  0
LINE
  8
0
 10
0.699997
 20
-111.7
 11
1.18771
 21
-111.748
  0
LINE
  8
0
 10
1.18771
 20
-111.748
 11
1.65671
 21
-111.89
  0
LINE
  8
0
 10
1.65671
 20
-111.89
 11
2.08891
 21
-112.121
  0
LINE
  8
0
 10
2.08891
 20
-112.121
 11
2.46776
 21
-112.432
  0
LINE
  8
0
 10
2.46776
 20
-112.432
 11
2.77867
 21
-112.811
  0
LINE
  8
0
 10
2.77867
 20
-112.811
 11
3.00969
 21
-113.243
  0
LINE
  8
0
 10
3.00969
 20
-113.243
 11
3.15196
 21
-113.712
  0
LINE
  8
0
 10
3.15196
 20
-113.712
 11
3.2
 21
-114.2
  0
LINE
  8
0
 10
3.2
 20
-114.2
 11
3.15196
 21
-114.688
  0
LINE
  8
0
 10
3.15196
 20
-114.688
 11
3.00969
 21
-115.157
  0
LINE
  8
0
 10
3.00969
 20
-115.157
 11
2.77867
 21
-115.589
  0
LINE
  8
0
 10
2.77867
 20
-115.589
 11
2.46776
 21
-115.968
  0
LINE
  8
0
 10
2.46776
 20
-115.968
 11
2.08891
 21
-116.279
  0
LINE
  8
0
 10
2.08891
 20
-116.279
 11
1.65671
 21
-116.51
  0
LINE
  8
0
 10
1.65671
 20
-116.51
 11
1.18771
 21
-116.652
  0
LINE
  8
0
 10
1.18771
 20
-116.652
 11
0.699997
 21
-116.7
  0
LINE
  8
0
 10
0.699997
 20
-116.7
 11
0.212265
 21
-116.652
  0
LINE
  8
0
 10
-3.2
 20
-136.65
 11
-3.2
 21
-121.75
  0
LINE
  8
0
 10
-3.2
 20
-121.75
 11
3.2
 21
-121.75
  0
LINE
  8
0
 10
3.2
 20
-121.75
 11
3.2
 21
-136.65
  0
LINE
  8
0
 10
3.2
 20
-136.65
 11
-3.2
 21
-136.65
  0
ENDSEC
  0
SECTION
  2
OBJECTS
  0
DICTIONARY
  0
ENDSEC
  0
EOF
