  0
SECTION
  2
BLOCKS
  0
ENDSEC
  0
SECTION
  2
ENTITIES
  0
LINE
  8
0
 10
40
 20
27.748
 11
44.875
 21
27.748
  0
LINE
  8
0
 10
44.875
 20
27.748
 11
46.5
 21
29.373
  0
LINE
  8
0
 10
46.5
 20
29.373
 11
46.5
 21
41.123
  0
LINE
  8
0
 10
46.5
 20
41.123
 11
44.875
 21
42.748
  0
LINE
  8
0
 10
44.875
 20
42.748
 11
40
 21
42.748
  0
LINE
  8
0
 10
40
 20
42.748
 11
40
 21
47.848
  0
LINE
  8
0
 10
40
 20
47.848
 11
33.1
 21
47.848
  0
LINE
  8
0
 10
33.1
 20
47.848
 11
33.1
 21
46.298
  0
LINE
  8
0
 10
33.1
 20
46.298
 11
27.4
 21
46.298
  0
LINE
  8
0
 10
27.4
 20
46.298
 11
27.4
 21
47.848
  0
LINE
  8
0
 10
27.4
 20
47.848
 11
20.5
 21
47.848
  0
LINE
  8
0
 10
20.5
 20
47.848
 11
20.5
 21
52.648
  0
LINE
  8
0
 10
20.5
 20
52.648
 11
27.4
 21
52.648
  0
LINE
  8
0
 10
27.4
 20
52.648
 11
27.4
 21
54.198
  0
LINE
  8
0
 10
27.4
 20
54.198
 11
33.1
 21
54.198
  0
LINE
  8
0
 10
33.1
 20
54.198
 11
33.1
 21
52.648
  0
LINE
  8
0
 10
33.1
 20
52.648
 11
40
 21
52.648
  0
LINE
  8
0
 10
40
 20
52.648
 11
40
 21
57.748
  0
LINE
  8
0
 10
40
 20
57.748
 11
44.875
 21
57.748
  0
LINE
  8
0
 10
44.875
 20
57.748
 11
46.5
 21
59.373
  0
LINE
  8
0
 10
46.5
 20
59.373
 11
46.5
 21
71.123
  0
LINE
  8
0
 10
46.5
 20
71.123
 11
44.875
 21
72.748
  0
LINE
  8
0
 10
44.875
 20
72.748
 11
40
 21
72.748
  0
LINE
  8
0
 10
40
 20
72.748
 11
40
 21
91.7
  0
LINE
  8
0
 10
40
 20
91.7
 11
44.875
 21
91.7
  0
LINE
  8
0
 10
44.875
 20
91.7
 11
46.5
 21
93.325
  0
LINE
  8
0
 10
46.5
 20
93.325
 11
46.5
 21
105.075
  0
LINE
  8
0
 10
46.5
 20
105.075
 11
44.875
 21
106.7
  0
LINE
  8
0
 10
44.875
 20
106.7
 11
40
 21
106.7
  0
LINE
  8
0
 10
40
 20
106.7
 11
40
 21
111.8
  0
LINE
  8
0
 10
40
 20
111.8
 11
33.1
 21
111.8
  0
LINE
  8
0
 10
33.1
 20
111.8
 11
33.1
 21
110.25
  0
LINE
  8
0
 10
33.1
 20
110.25
 11
27.4
 21
110.25
  0
LINE
  8
0
 10
27.4
 20
110.25
 11
27.4
 21
111.8
  0
LINE
  8
0
 10
27.4
 20
111.8
 11
20.5
 21
111.8
  0
LINE
  8
0
 10
20.5
 20
111.8
 11
20.5
 21
116.6
  0
LINE
  8
0
 10
20.5
 20
116.6
 11
27.4
 21
116.6
  0
LINE
  8
0
 10
27.4
 20
116.6
 11
27.4
 21
118.15
  0
LINE
  8
0
 10
27.4
 20
118.15
 11
33.1
 21
118.15
  0
LINE
  8
0
 10
33.1
 20
118.15
 11
33.1
 21
116.6
  0
LINE
  8
0
 10
33.1
 20
116.6
 11
40
 21
116.6
  0
LINE
  8
0
 10
40
 20
116.6
 11
40
 21
121.7
  0
LINE
  8
0
 10
40
 20
121.7
 11
44.875
 21
121.7
  0
LINE
  8
0
 10
44.875
 20
121.7
 11
46.5
 21
123.325
  0
LINE
  8
0
 10
46.5
 20
123.325
 11
46.5
 21
135.075
  0
LINE
  8
0
 10
46.5
 20
135.075
 11
44.875
 21
136.7
  0
LINE
  8
0
 10
44.875
 20
136.7
 11
40
 21
136.7
  0
LINE
  8
0
 10
40
 20
136.7
 11
40
 21
171.3
  0
LINE
  8
0
 10
40
 20
171.3
 11
-40
 21
171.3
  0
LINE
  8
0
 10
-40
 20
171.3
 11
-40
 21
136.7
  0
LINE
  8
0
 10
-40
 20
136.7
 11
-44.875
 21
136.7
  0
LINE
  8
0
 10
-44.875
 20
136.7
 11
-46.5
 21
135.075
  0
LINE
  8
0
 10
-46.5
 20
135.075
 11
-46.5
 21
123.325
  0
LINE
  8
0
 10
-46.5
 20
123.325
 11
-44.875
 21
121.7
  0
LINE
  8
0
 10
-44.875
 20
121.7
 11
-40
 21
121.7
  0
LINE
  8
0
 10
-40
 20
121.7
 11
-40
 21
116.6
  0
LINE
  8
0
 10
-40
 20
116.6
 11
-33.1
 21
116.6
  0
LINE
  8
0
 10
-33.1
 20
116.6
 11
-33.1
 21
118.15
  0
LINE
  8
0
 10
-33.1
 20
118.15
 11
-27.4
 21
118.15
  0
LINE
  8
0
 10
-27.4
 20
118.15
 11
-27.4
 21
116.6
  0
LINE
  8
0
 10
-27.4
 20
116.6
 11
-20.5
 21
116.6
  0
LINE
  8
0
 10
-20.5
 20
116.6
 11
-20.5
 21
111.8
  0
LINE
  8
0
 10
-20.5
 20
111.8
 11
-27.4
 21
111.8
  0
LINE
  8
0
 10
-27.4
 20
111.8
 11
-27.4
 21
110.25
  0
LINE
  8
0
 10
-27.4
 20
110.25
 11
-33.1
 21
110.25
  0
LINE
  8
0
 10
-33.1
 20
110.25
 11
-33.1
 21
111.8
  0
LINE
  8
0
 10
-33.1
 20
111.8
 11
-40
 21
111.8
  0
LINE
  8
0
 10
-40
 20
111.8
 11
-40
 21
106.7
  0
LINE
  8
0
 10
-40
 20
106.7
 11
-44.875
 21
106.7
  0
LINE
  8
0
 10
-44.875
 20
106.7
 11
-46.5
 21
105.075
  0
LINE
  8
0
 10
-46.5
 20
105.075
 11
-46.5
 21
93.325
  0
LINE
  8
0
 10
-46.5
 20
93.325
 11
-44.875
 21
91.7
  0
LINE
  8
0
 10
-44.875
 20
91.7
 11
-40
 21
91.7
  0
LINE
  8
0
 10
-40
 20
91.7
 11
-40
 21
72.748
  0
LINE
  8
0
 10
-40
 20
72.748
 11
-44.875
 21
72.748
  0
LINE
  8
0
 10
-44.875
 20
72.748
 11
-46.5
 21
71.123
  0
LINE
  8
0
 10
-46.5
 20
71.123
 11
-46.5
 21
59.373
  0
LINE
  8
0
 10
-46.5
 20
59.373
 11
-44.875
 21
57.748
  0
LINE
  8
0
 10
-44.875
 20
57.748
 11
-40
 21
57.748
  0
LINE
  8
0
 10
-40
 20
57.748
 11
-40
 21
52.648
  0
LINE
  8
0
 10
-40
 20
52.648
 11
-33.1
 21
52.648
  0
LINE
  8
0
 10
-33.1
 20
52.648
 11
-33.1
 21
54.198
  0
LINE
  8
0
 10
-33.1
 20
54.198
 11
-27.4
 21
54.198
  0
LINE
  8
0
 10
-27.4
 20
54.198
 11
-27.4
 21
52.648
  0
LINE
  8
0
 10
-27.4
 20
52.648
 11
-20.5
 21
52.648
  0
LINE
  8
0
 10
-20.5
 20
52.648
 11
-20.5
 21
47.848
  0
LINE
  8
0
 10
-20.5
 20
47.848
 11
-27.4
 21
47.848
  0
LINE
  8
0
 10
-27.4
 20
47.848
 11
-27.4
 21
46.298
  0
LINE
  8
0
 10
-27.4
 20
46.298
 11
-33.1
 21
46.298
  0
LINE
  8
0
 10
-33.1
 20
46.298
 11
-33.1
 21
47.848
  0
LINE
  8
0
 10
-33.1
 20
47.848
 11
-40
 21
47.848
  0
LINE
  8
0
 10
-40
 20
47.848
 11
-40
 21
42.748
  0
LINE
  8
0
 10
-40
 20
42.748
 11
-44.875
 21
42.748
  0
LINE
  8
0
 10
-44.875
 20
42.748
 11
-46.5
 21
41.123
  0
LINE
  8
0
 10
-46.5
 20
41.123
 11
-46.5
 21
29.373
  0
LINE
  8
0
 10
-46.5
 20
29.373
 11
-44.875
 21
27.748
  0
LINE
  8
0
 10
-44.875
 20
27.748
 11
-40
 21
27.748
  0
LINE
  8
0
 10
-40
 20
27.748
 11
-40
 21
20
  0
LINE
  8
0
 10
-40
 20
20
 11
40
 21
20
  0
LINE
  8
0
 10
40
 20
20
 11
40
 21
27.748
  0
LINE
  8
0
 10
29.7509
 20
158.612
 11
29.2611
 21
158.703
  0
LINE
  8
0
 10
29.2611
 20
158.703
 11
28.7965
 21
158.883
  0
LINE
  8
0
 10
28.7965
 20
158.883
 11
28.3729
 21
159.145
  0
LINE
  8
0
 10
28.3729
 20
159.145
 11
28.0047
 21
159.481
  0
LINE
  8
0
 10
28.0047
 20
159.481
 11
27.7044
 21
159.879
  0
LINE
  8
0
 10
27.7044
 20
159.879
 11
27.4823
 21
160.325
  0
LINE
  8
0
 10
27.4823
 20
160.325
 11
27.346
 21
160.804
  0
LINE
  8
0
 10
27.346
 20
160.804
 11
27.3
 21
161.3
  0
LINE
  8
0
 10
27.3
 20
161.3
 11
27.346
 21
161.796
  0
LINE
  8
0
 10
27.346
 20
161.796
 11
27.4823
 21
162.275
  0
LINE
  8
0
 10
27.4823
 20
162.275
 11
27.7044
 21
162.721
  0
LINE
  8
0
 10
27.7044
 20
162.721
 11
28.0047
 21
163.119
  0
LINE
  8
0
 10
28.0047
 20
163.119
 11
28.3729
 21
163.455
  0
LINE
  8
0
 10
28.3729
 20
163.455
 11
28.7965
 21
163.717
  0
LINE
  8
0
 10
28.7965
 20
163.717
 11
29.2611
 21
163.897
  0
LINE
  8
0
 10
29.2611
 20
163.897
 11
29.7509
 21
163.988
  0
LINE
  8
0
 10
29.7509
 20
163.988
 11
30.2491
 21
163.988
  0
LINE
  8
0
 10
30.2491
 20
163.988
 11
30.7389
 21
163.897
  0
LINE
  8
0
 10
30.7389
 20
163.897
 11
31.2035
 21
163.717
  0
LINE
  8
0
 10
31.2035
 20
163.717
 11
31.6271
 21
163.455
  0
LINE
  8
0
 10
31.6271
 20
163.455
 11
31.9953
 21
163.119
  0
LINE
  8
0
 10
31.9953
 20
163.119
 11
32.2956
 21
162.721
  0
LINE
  8
0
 10
32.2956
 20
162.721
 11
32.5177
 21
162.275
  0
LINE
  8
0
 10
32.5177
 20
162.275
 11
32.654
 21
161.796
  0
LINE
  8
0
 10
32.654
 20
161.796
 11
32.7
 21
161.3
  0
LINE
  8
0
 10
32.7
 20
161.3
 11
32.654
 21
160.804
  0
LINE
  8
0
 10
32.654
 20
160.804
 11
32.5177
 21
160.325
  0
LINE
  8
0
 10
32.5177
 20
160.325
 11
32.2956
 21
159.879
  0
LINE
  8
0
 10
32.2956
 20
159.879
 11
31.9953
 21
159.481
  0
LINE
  8
0
 10
31.9953
 20
159.481
 11
31.6271
 21
159.145
  0
LINE
  8
0
 10
31.6271
 20
159.145
 11
31.2035
 21
158.883
  0
LINE
  8
0
 10
31.2035
 20
158.883
 11
30.7389
 21
158.703
  0
LINE
  8
0
 10
30.7389
 20
158.703
 11
30.2491
 21
158.612
  0
LINE
  8
0
 10
30.2491
 20
158.612
 11
29.7509
 21
158.612
  0
LINE
  8
0
 10
-30.2491
 20
158.612
 11
-30.7389
 21
158.703
  0
LINE
  8
0
 10
-30.7389
 20
158.703
 11
-31.2035
 21
158.883
  0
LINE
  8
0
 10
-31.2035
 20
158.883
 11
-31.6271
 21
159.145
  0
LINE
  8
0
 10
-31.6271
 20
159.145
 11
-31.9953
 21
159.481
  0
LINE
  8
0
 10
-31.9953
 20
159.481
 11
-32.2956
 21
159.879
  0
LINE
  8
0
 10
-32.2956
 20
159.879
 11
-32.5177
 21
160.325
  0
LINE
  8
0
 10
-32.5177
 20
160.325
 11
-32.654
 21
160.804
  0
LINE
  8
0
 10
-32.654
 20
160.804
 11
-32.7
 21
161.3
  0
LINE
  8
0
 10
-32.7
 20
161.3
 11
-32.654
 21
161.796
  0
LINE
  8
0
 10
-32.654
 20
161.796
 11
-32.5177
 21
162.275
  0
LINE
  8
0
 10
-32.5177
 20
162.275
 11
-32.2956
 21
162.721
  0
LINE
  8
0
 10
-32.2956
 20
162.721
 11
-31.9953
 21
163.119
  0
LINE
  8
0
 10
-31.9953
 20
163.119
 11
-31.6271
 21
163.455
  0
LINE
  8
0
 10
-31.6271
 20
163.455
 11
-31.2035
 21
163.717
  0
LINE
  8
0
 10
-31.2035
 20
163.717
 11
-30.7389
 21
163.897
  0
LINE
  8
0
 10
-30.7389
 20
163.897
 11
-30.2491
 21
163.988
  0
LINE
  8
0
 10
-30.2491
 20
163.988
 11
-29.7509
 21
163.988
  0
LINE
  8
0
 10
-29.7509
 20
163.988
 11
-29.2611
 21
163.897
  0
LINE
  8
0
 10
-29.2611
 20
163.897
 11
-28.7965
 21
163.717
  0
LINE
  8
0
 10
-28.7965
 20
163.717
 11
-28.3729
 21
163.455
  0
LINE
  8
0
 10
-28.3729
 20
163.455
 11
-28.0047
 21
163.119
  0
LINE
  8
0
 10
-28.0047
 20
163.119
 11
-27.7044
 21
162.721
  0
LINE
  8
0
 10
-27.7044
 20
162.721
 11
-27.4823
 21
162.275
  0
LINE
  8
0
 10
-27.4823
 20
162.275
 11
-27.346
 21
161.796
  0
LINE
  8
0
 10
-27.346
 20
161.796
 11
-27.3
 21
161.3
  0
LINE
  8
0
 10
-27.3
 20
161.3
 11
-27.346
 21
160.804
  0
LINE
  8
0
 10
-27.346
 20
160.804
 11
-27.4823
 21
160.325
  0
LINE
  8
0
 10
-27.4823
 20
160.325
 11
-27.7044
 21
159.879
  0
LINE
  8
0
 10
-27.7044
 20
159.879
 11
-28.0047
 21
159.481
  0
LINE
  8
0
 10
-28.0047
 20
159.481
 11
-28.3729
 21
159.145
  0
LINE
  8
0
 10
-28.3729
 20
159.145
 11
-28.7965
 21
158.883
  0
LINE
  8
0
 10
-28.7965
 20
158.883
 11
-29.2611
 21
158.703
  0
LINE
  8
0
 10
-29.2611
 20
158.703
 11
-29.7509
 21
158.612
  0
LINE
  8
0
 10
-29.7509
 20
158.612
 11
-30.2491
 21
158.612
  0
LINE
  8
0
 10
40
 20
-136.7
 11
44.875
 21
-136.7
  0
LINE
  8
0
 10
44.875
 20
-136.7
 11
46.5
 21
-135.075
  0
LINE
  8
0
 10
46.5
 20
-135.075
 11
46.5
 21
-123.325
  0
LINE
  8
0
 10
46.5
 20
-123.325
 11
44.875
 21
-121.7
  0
LINE
  8
0
 10
44.875
 20
-121.7
 11
40
 21
-121.7
  0
LINE
  8
0
 10
40
 20
-121.7
 11
40
 21
-116.6
  0
LINE
  8
0
 10
40
 20
-116.6
 11
33.1
 21
-116.6
  0
LINE
  8
0
 10
33.1
 20
-116.6
 11
33.1
 21
-118.15
  0
LINE
  8
0
 10
33.1
 20
-118.15
 11
27.4
 21
-118.15
  0
LINE
  8
0
 10
27.4
 20
-118.15
 11
27.4
 21
-116.6
  0
LINE
  8
0
 10
27.4
 20
-116.6
 11
20.5
 21
-116.6
  0
LINE
  8
0
 10
20.5
 20
-116.6
 11
20.5
 21
-111.8
  0
LINE
  8
0
 10
20.5
 20
-111.8
 11
27.4
 21
-111.8
  0
LINE
  8
0
 10
27.4
 20
-111.8
 11
27.4
 21
-110.25
  0
LINE
  8
0
 10
27.4
 20
-110.25
 11
33.1
 21
-110.25
  0
LINE
  8
0
 10
33.1
 20
-110.25
 11
33.1
 21
-111.8
  0
LINE
  8
0
 10
33.1
 20
-111.8
 11
40
 21
-111.8
  0
LINE
  8
0
 10
40
 20
-111.8
 11
40
 21
-106.7
  0
LINE
  8
0
 10
40
 20
-106.7
 11
44.875
 21
-106.7
  0
LINE
  8
0
 10
44.875
 20
-106.7
 11
46.5
 21
-105.075
  0
LINE
  8
0
 10
46.5
 20
-105.075
 11
46.5
 21
-93.325
  0
LINE
  8
0
 10
46.5
 20
-93.325
 11
44.875
 21
-91.7
  0
LINE
  8
0
 10
44.875
 20
-91.7
 11
40
 21
-91.7
  0
LINE
  8
0
 10
40
 20
-91.7
 11
40
 21
-72.748
  0
LINE
  8
0
 10
40
 20
-72.748
 11
44.875
 21
-72.748
  0
LINE
  8
0
 10
44.875
 20
-72.748
 11
46.5
 21
-71.123
  0
LINE
  8
0
 10
46.5
 20
-71.123
 11
46.5
 21
-59.373
  0
LINE
  8
0
 10
46.5
 20
-59.373
 11
44.875
 21
-57.748
  0
LINE
  8
0
 10
44.875
 20
-57.748
 11
40
 21
-57.748
  0
LINE
  8
0
 10
40
 20
-57.748
 11
40
 21
-52.648
  0
LINE
  8
0
 10
40
 20
-52.648
 11
33.1
 21
-52.648
  0
LINE
  8
0
 10
33.1
 20
-52.648
 11
33.1
 21
-54.198
  0
LINE
  8
0
 10
33.1
 20
-54.198
 11
27.4
 21
-54.198
  0
LINE
  8
0
 10
27.4
 20
-54.198
 11
27.4
 21
-52.648
  0
LINE
  8
0
 10
27.4
 20
-52.648
 11
20.5
 21
-52.648
  0
LINE
  8
0
 10
20.5
 20
-52.648
 11
20.5
 21
-47.848
  0
LINE
  8
0
 10
20.5
 20
-47.848
 11
27.4
 21
-47.848
  0
LINE
  8
0
 10
27.4
 20
-47.848
 11
27.4
 21
-46.298
  0
LINE
  8
0
 10
27.4
 20
-46.298
 11
33.1
 21
-46.298
  0
LINE
  8
0
 10
33.1
 20
-46.298
 11
33.1
 21
-47.848
  0
LINE
  8
0
 10
33.1
 20
-47.848
 11
40
 21
-47.848
  0
LINE
  8
0
 10
40
 20
-47.848
 11
40
 21
-42.748
  0
LINE
  8
0
 10
40
 20
-42.748
 11
44.875
 21
-42.748
  0
LINE
  8
0
 10
44.875
 20
-42.748
 11
46.5
 21
-41.123
  0
LINE
  8
0
 10
46.5
 20
-41.123
 11
46.5
 21
-29.373
  0
LINE
  8
0
 10
46.5
 20
-29.373
 11
44.875
 21
-27.748
  0
LINE
  8
0
 10
44.875
 20
-27.748
 11
40
 21
-27.748
  0
LINE
  8
0
 10
40
 20
-27.748
 11
40
 21
-20
  0
LINE
  8
0
 10
40
 20
-20
 11
-40
 21
-20
  0
LINE
  8
0
 10
-40
 20
-20
 11
-40
 21
-27.748
  0
LINE
  8
0
 10
-40
 20
-27.748
 11
-44.875
 21
-27.748
  0
LINE
  8
0
 10
-44.875
 20
-27.748
 11
-46.5
 21
-29.373
  0
LINE
  8
0
 10
-46.5
 20
-29.373
 11
-46.5
 21
-41.123
  0
LINE
  8
0
 10
-46.5
 20
-41.123
 11
-44.875
 21
-42.748
  0
LINE
  8
0
 10
-44.875
 20
-42.748
 11
-40
 21
-42.748
  0
LINE
  8
0
 10
-40
 20
-42.748
 11
-40
 21
-47.848
  0
LINE
  8
0
 10
-40
 20
-47.848
 11
-33.1
 21
-47.848
  0
LINE
  8
0
 10
-33.1
 20
-47.848
 11
-33.1
 21
-46.298
  0
LINE
  8
0
 10
-33.1
 20
-46.298
 11
-27.4
 21
-46.298
  0
LINE
  8
0
 10
-27.4
 20
-46.298
 11
-27.4
 21
-47.848
  0
LINE
  8
0
 10
-27.4
 20
-47.848
 11
-20.5
 21
-47.848
  0
LINE
  8
0
 10
-20.5
 20
-47.848
 11
-20.5
 21
-52.648
  0
LINE
  8
0
 10
-20.5
 20
-52.648
 11
-27.4
 21
-52.648
  0
LINE
  8
0
 10
-27.4
 20
-52.648
 11
-27.4
 21
-54.198
  0
LINE
  8
0
 10
-27.4
 20
-54.198
 11
-33.1
 21
-54.198
  0
LINE
  8
0
 10
-33.1
 20
-54.198
 11
-33.1
 21
-52.648
  0
LINE
  8
0
 10
-33.1
 20
-52.648
 11
-40
 21
-52.648
  0
LINE
  8
0
 10
-40
 20
-52.648
 11
-40
 21
-57.748
  0
LINE
  8
0
 10
-40
 20
-57.748
 11
-44.875
 21
-57.748
  0
LINE
  8
0
 10
-44.875
 20
-57.748
 11
-46.5
 21
-59.373
  0
LINE
  8
0
 10
-46.5
 20
-59.373
 11
-46.5
 21
-71.123
  0
LINE
  8
0
 10
-46.5
 20
-71.123
 11
-44.875
 21
-72.748
  0
LINE
  8
0
 10
-44.875
 20
-72.748
 11
-40
 21
-72.748
  0
LINE
  8
0
 10
-40
 20
-72.748
 11
-40
 21
-91.7
  0
LINE
  8
0
 10
-40
 20
-91.7
 11
-44.875
 21
-91.7
  0
LINE
  8
0
 10
-44.875
 20
-91.7
 11
-46.5
 21
-93.325
  0
LINE
  8
0
 10
-46.5
 20
-93.325
 11
-46.5
 21
-105.075
  0
LINE
  8
0
 10
-46.5
 20
-105.075
 11
-44.875
 21
-106.7
  0
LINE
  8
0
 10
-44.875
 20
-106.7
 11
-40
 21
-106.7
  0
LINE
  8
0
 10
-40
 20
-106.7
 11
-40
 21
-111.8
  0
LINE
  8
0
 10
-40
 20
-111.8
 11
-33.1
 21
-111.8
  0
LINE
  8
0
 10
-33.1
 20
-111.8
 11
-33.1
 21
-110.25
  0
LINE
  8
0
 10
-33.1
 20
-110.25
 11
-27.4
 21
-110.25
  0
LINE
  8
0
 10
-27.4
 20
-110.25
 11
-27.4
 21
-111.8
  0
LINE
  8
0
 10
-27.4
 20
-111.8
 11
-20.5
 21
-111.8
  0
LINE
  8
0
 10
-20.5
 20
-111.8
 11
-20.5
 21
-116.6
  0
LINE
  8
0
 10
-20.5
 20
-116.6
 11
-27.4
 21
-116.6
  0
LINE
  8
0
 10
-27.4
 20
-116.6
 11
-27.4
 21
-118.15
  0
LINE
  8
0
 10
-27.4
 20
-118.15
 11
-33.1
 21
-118.15
  0
LINE
  8
0
 10
-33.1
 20
-118.15
 11
-33.1
 21
-116.6
  0
LINE
  8
0
 10
-33.1
 20
-116.6
 11
-40
 21
-116.6
  0
LINE
  8
0
 10
-40
 20
-116.6
 11
-40
 21
-121.7
  0
LINE
  8
0
 10
-40
 20
-121.7
 11
-44.875
 21
-121.7
  0
LINE
  8
0
 10
-44.875
 20
-121.7
 11
-46.5
 21
-123.325
  0
LINE
  8
0
 10
-46.5
 20
-123.325
 11
-46.5
 21
-135.075
  0
LINE
  8
0
 10
-46.5
 20
-135.075
 11
-44.875
 21
-136.7
  0
LINE
  8
0
 10
-44.875
 20
-136.7
 11
-40
 21
-136.7
  0
LINE
  8
0
 10
-40
 20
-136.7
 11
-40
 21
-171.3
  0
LINE
  8
0
 10
-40
 20
-171.3
 11
40
 21
-171.3
  0
LINE
  8
0
 10
40
 20
-171.3
 11
40
 21
-136.7
  0
LINE
  8
0
 10
-30.2491
 20
-163.988
 11
-30.7389
 21
-163.897
  0
LINE
  8
0
 10
-30.7389
 20
-163.897
 11
-31.2035
 21
-163.717
  0
LINE
  8
0
 10
-31.2035
 20
-163.717
 11
-31.6271
 21
-163.455
  0
LINE
  8
0
 10
-31.6271
 20
-163.455
 11
-31.9953
 21
-163.119
  0
LINE
  8
0
 10
-31.9953
 20
-163.119
 11
-32.2956
 21
-162.721
  0
LINE
  8
0
 10
-32.2956
 20
-162.721
 11
-32.5177
 21
-162.275
  0
LINE
  8
0
 10
-32.5177
 20
-162.275
 11
-32.654
 21
-161.796
  0
LINE
  8
0
 10
-32.654
 20
-161.796
 11
-32.7
 21
-161.3
  0
LINE
  8
0
 10
-32.7
 20
-161.3
 11
-32.654
 21
-160.804
  0
LINE
  8
0
 10
-32.654
 20
-160.804
 11
-32.5177
 21
-160.325
  0
LINE
  8
0
 10
-32.5177
 20
-160.325
 11
-32.2956
 21
-159.879
  0
LINE
  8
0
 10
-32.2956
 20
-159.879
 11
-31.9953
 21
-159.481
  0
LINE
  8
0
 10
-31.9953
 20
-159.481
 11
-31.6271
 21
-159.145
  0
LINE
  8
0
 10
-31.6271
 20
-159.145
 11
-31.2035
 21
-158.883
  0
LINE
  8
0
 10
-31.2035
 20
-158.883
 11
-30.7389
 21
-158.703
  0
LINE
  8
0
 10
-30.7389
 20
-158.703
 11
-30.2491
 21
-158.612
  0
LINE
  8
0
 10
-30.2491
 20
-158.612
 11
-29.7509
 21
-158.612
  0
LINE
  8
0
 10
-29.7509
 20
-158.612
 11
-29.2611
 21
-158.703
  0
LINE
  8
0
 10
-29.2611
 20
-158.703
 11
-28.7965
 21
-158.883
  0
LINE
  8
0
 10
-28.7965
 20
-158.883
 11
-28.3729
 21
-159.145
  0
LINE
  8
0
 10
-28.3729
 20
-159.145
 11
-28.0047
 21
-159.481
  0
LINE
  8
0
 10
-28.0047
 20
-159.481
 11
-27.7044
 21
-159.879
  0
LINE
  8
0
 10
-27.7044
 20
-159.879
 11
-27.4823
 21
-160.325
  0
LINE
  8
0
 10
-27.4823
 20
-160.325
 11
-27.346
 21
-160.804
  0
LINE
  8
0
 10
-27.346
 20
-160.804
 11
-27.3
 21
-161.3
  0
LINE
  8
0
 10
-27.3
 20
-161.3
 11
-27.346
 21
-161.796
  0
LINE
  8
0
 10
-27.346
 20
-161.796
 11
-27.4823
 21
-162.275
  0
LINE
  8
0
 10
-27.4823
 20
-162.275
 11
-27.7044
 21
-162.721
  0
LINE
  8
0
 10
-27.7044
 20
-162.721
 11
-28.0047
 21
-163.119
  0
LINE
  8
0
 10
-28.0047
 20
-163.119
 11
-28.3729
 21
-163.455
  0
LINE
  8
0
 10
-28.3729
 20
-163.455
 11
-28.7965
 21
-163.717
  0
LINE
  8
0
 10
-28.7965
 20
-163.717
 11
-29.2611
 21
-163.897
  0
LINE
  8
0
 10
-29.2611
 20
-163.897
 11
-29.7509
 21
-163.988
  0
LINE
  8
0
 10
-29.7509
 20
-163.988
 11
-30.2491
 21
-163.988
  0
LINE
  8
0
 10
29.7509
 20
-163.988
 11
29.2611
 21
-163.897
  0
LINE
  8
0
 10
29.2611
 20
-163.897
 11
28.7965
 21
-163.717
  0
LINE
  8
0
 10
28.7965
 20
-163.717
 11
28.3729
 21
-163.455
  0
LINE
  8
0
 10
28.3729
 20
-163.455
 11
28.0047
 21
-163.119
  0
LINE
  8
0
 10
28.0047
 20
-163.119
 11
27.7044
 21
-162.721
  0
LINE
  8
0
 10
27.7044
 20
-162.721
 11
27.4823
 21
-162.275
  0
LINE
  8
0
 10
27.4823
 20
-162.275
 11
27.346
 21
-161.796
  0
LINE
  8
0
 10
27.346
 20
-161.796
 11
27.3
 21
-161.3
  0
LINE
  8
0
 10
27.3
 20
-161.3
 11
27.346
 21
-160.804
  0
LINE
  8
0
 10
27.346
 20
-160.804
 11
27.4823
 21
-160.325
  0
LINE
  8
0
 10
27.4823
 20
-160.325
 11
27.7044
 21
-159.879
  0
LINE
  8
0
 10
27.7044
 20
-159.879
 11
28.0047
 21
-159.481
  0
LINE
  8
0
 10
28.0047
 20
-159.481
 11
28.3729
 21
-159.145
  0
LINE
  8
0
 10
28.3729
 20
-159.145
 11
28.7965
 21
-158.883
  0
LINE
  8
0
 10
28.7965
 20
-158.883
 11
29.2611
 21
-158.703
  0
LINE
  8
0
 10
29.2611
 20
-158.703
 11
29.7509
 21
-158.612
  0
LINE
  8
0
 10
29.7509
 20
-158.612
 11
30.2491
 21
-158.612
  0
LINE
  8
0
 10
30.2491
 20
-158.612
 11
30.7389
 21
-158.703
  0
LINE
  8
0
 10
30.7389
 20
-158.703
 11
31.2035
 21
-158.883
  0
LINE
  8
0
 10
31.2035
 20
-158.883
 11
31.6271
 21
-159.145
  0
LINE
  8
0
 10
31.6271
 20
-159.145
 11
31.9953
 21
-159.481
  0
LINE
  8
0
 10
31.9953
 20
-159.481
 11
32.2956
 21
-159.879
  0
LINE
  8
0
 10
32.2956
 20
-159.879
 11
32.5177
 21
-160.325
  0
LINE
  8
0
 10
32.5177
 20
-160.325
 11
32.654
 21
-160.804
  0
LINE
  8
0
 10
32.654
 20
-160.804
 11
32.7
 21
-161.3
  0
LINE
  8
0
 10
32.7
 20
-161.3
 11
32.654
 21
-161.796
  0
LINE
  8
0
 10
32.654
 20
-161.796
 11
32.5177
 21
-162.275
  0
LINE
  8
0
 10
32.5177
 20
-162.275
 11
32.2956
 21
-162.721
  0
LINE
  8
0
 10
32.2956
 20
-162.721
 11
31.9953
 21
-163.119
  0
LINE
  8
0
 10
31.9953
 20
-163.119
 11
31.6271
 21
-163.455
  0
LINE
  8
0
 10
31.6271
 20
-163.455
 11
31.2035
 21
-163.717
  0
LINE
  8
0
 10
31.2035
 20
-163.717
 11
30.7389
 21
-163.897
  0
LINE
  8
0
 10
30.7389
 20
-163.897
 11
30.2491
 21
-163.988
  0
LINE
  8
0
 10
30.2491
 20
-163.988
 11
29.7509
 21
-163.988
  0
ENDSEC
  0
SECTION
  2
OBJECTS
  0
DICTIONARY
  0
ENDSEC
  0
EOF
