  0
SECTION
  2
BLOCKS
  0
ENDSEC
  0
SECTION
  2
ENTITIES
  0
LINE
  8
0
 10
23.25
 20
171.3
 11
-6.5
 21
171.3
  0
LINE
  8
0
 10
-6.5
 20
171.3
 11
-6.5
 21
-171.3
  0
LINE
  8
0
 10
-6.5
 20
-171.3
 11
23.25
 21
-171.3
  0
LINE
  8
0
 10
23.25
 20
-171.3
 11
23.25
 21
171.3
  0
LINE
  8
0
 10
-3.2
 20
121.75
 11
-3.2
 21
134.784
  0
LINE
  8
0
 10
-3.2
 20
134.784
 11
-3.25
 21
134.784
  0
LINE
  8
0
 10
-3.25
 20
134.784
 11
-3.25
 21
165.216
  0
LINE
  8
0
 10
-3.25
 20
165.216
 11
3.25
 21
165.216
  0
LINE
  8
0
 10
3.25
 20
165.216
 11
3.25
 21
163
  0
LINE
  8
0
 10
3.25
 20
163
 11
8.29999
 21
163
  0
LINE
  8
0
 10
8.29999
 20
163
 11
8.29999
 21
137
  0
LINE
  8
0
 10
8.29999
 20
137
 11
3.25
 21
137
  0
LINE
  8
0
 10
3.25
 20
137
 11
3.25
 21
134.784
  0
LINE
  8
0
 10
3.25
 20
134.784
 11
3.2
 21
134.784
  0
LINE
  8
0
 10
3.2
 20
134.784
 11
3.2
 21
121.75
  0
LINE
  8
0
 10
3.2
 20
121.75
 11
-3.2
 21
121.75
  0
LINE
  8
0
 10
11.1373
 20
158.848
 11
10.6683
 21
158.99
  0
LINE
  8
0
 10
10.6683
 20
158.99
 11
10.2361
 21
159.221
  0
LINE
  8
0
 10
10.2361
 20
159.221
 11
9.85722
 21
159.532
  0
LINE
  8
0
 10
9.85722
 20
159.532
 11
9.54633
 21
159.911
  0
LINE
  8
0
 10
9.54633
 20
159.911
 11
9.31529
 21
160.343
  0
LINE
  8
0
 10
9.31529
 20
160.343
 11
9.17303
 21
160.812
  0
LINE
  8
0
 10
9.17303
 20
160.812
 11
9.125
 21
161.3
  0
LINE
  8
0
 10
9.125
 20
161.3
 11
9.17303
 21
161.788
  0
LINE
  8
0
 10
9.17303
 20
161.788
 11
9.31529
 21
162.257
  0
LINE
  8
0
 10
9.31529
 20
162.257
 11
9.54633
 21
162.689
  0
LINE
  8
0
 10
9.54633
 20
162.689
 11
9.85722
 21
163.068
  0
LINE
  8
0
 10
9.85722
 20
163.068
 11
10.2361
 21
163.379
  0
LINE
  8
0
 10
10.2361
 20
163.379
 11
10.6683
 21
163.61
  0
LINE
  8
0
 10
10.6683
 20
163.61
 11
11.1373
 21
163.752
  0
LINE
  8
0
 10
11.1373
 20
163.752
 11
11.625
 21
163.8
  0
LINE
  8
0
 10
11.625
 20
163.8
 11
12.1127
 21
163.752
  0
LINE
  8
0
 10
12.1127
 20
163.752
 11
12.5817
 21
163.61
  0
LINE
  8
0
 10
12.5817
 20
163.61
 11
13.0139
 21
163.379
  0
LINE
  8
0
 10
13.0139
 20
163.379
 11
13.3928
 21
163.068
  0
LINE
  8
0
 10
13.3928
 20
163.068
 11
13.7037
 21
162.689
  0
LINE
  8
0
 10
13.7037
 20
162.689
 11
13.9347
 21
162.257
  0
LINE
  8
0
 10
13.9347
 20
162.257
 11
14.077
 21
161.788
  0
LINE
  8
0
 10
14.077
 20
161.788
 11
14.125
 21
161.3
  0
LINE
  8
0
 10
14.125
 20
161.3
 11
14.077
 21
160.812
  0
LINE
  8
0
 10
14.077
 20
160.812
 11
13.9347
 21
160.343
  0
LINE
  8
0
 10
13.9347
 20
160.343
 11
13.7037
 21
159.911
  0
LINE
  8
0
 10
13.7037
 20
159.911
 11
13.3928
 21
159.532
  0
LINE
  8
0
 10
13.3928
 20
159.532
 11
13.0139
 21
159.221
  0
LINE
  8
0
 10
13.0139
 20
159.221
 11
12.5817
 21
158.99
  0
LINE
  8
0
 10
12.5817
 20
158.99
 11
12.1127
 21
158.848
  0
LINE
  8
0
 10
12.1127
 20
158.848
 11
11.625
 21
158.8
  0
LINE
  8
0
 10
11.625
 20
158.8
 11
11.1373
 21
158.848
  0
LINE
  8
0
 10
-0.487717
 20
111.748
 11
-0.956696
 21
111.89
  0
LINE
  8
0
 10
-0.956696
 20
111.89
 11
-1.38892
 21
112.121
  0
LINE
  8
0
 10
-1.38892
 20
112.121
 11
-1.76776
 21
112.432
  0
LINE
  8
0
 10
-1.76776
 20
112.432
 11
-2.07866
 21
112.811
  0
LINE
  8
0
 10
-2.07866
 20
112.811
 11
-2.30969
 21
113.243
  0
LINE
  8
0
 10
-2.30969
 20
113.243
 11
-2.45195
 21
113.712
  0
LINE
  8
0
 10
-2.45195
 20
113.712
 11
-2.49998
 21
114.2
  0
LINE
  8
0
 10
-2.49998
 20
114.2
 11
-2.45195
 21
114.688
  0
LINE
  8
0
 10
-2.45195
 20
114.688
 11
-2.30969
 21
115.157
  0
LINE
  8
0
 10
-2.30969
 20
115.157
 11
-2.07866
 21
115.589
  0
LINE
  8
0
 10
-2.07866
 20
115.589
 11
-1.76776
 21
115.968
  0
LINE
  8
0
 10
-1.76776
 20
115.968
 11
-1.38892
 21
116.279
  0
LINE
  8
0
 10
-1.38892
 20
116.279
 11
-0.956696
 21
116.51
  0
LINE
  8
0
 10
-0.956696
 20
116.51
 11
-0.487717
 21
116.652
  0
LINE
  8
0
 10
-0.487717
 20
116.652
 11
0
 21
116.7
  0
LINE
  8
0
 10
0
 20
116.7
 11
0.487717
 21
116.652
  0
LINE
  8
0
 10
0.487717
 20
116.652
 11
0.956696
 21
116.51
  0
LINE
  8
0
 10
0.956696
 20
116.51
 11
1.38892
 21
116.279
  0
LINE
  8
0
 10
1.38892
 20
116.279
 11
1.76776
 21
115.968
  0
LINE
  8
0
 10
1.76776
 20
115.968
 11
2.07866
 21
115.589
  0
LINE
  8
0
 10
2.07866
 20
115.589
 11
2.30969
 21
115.157
  0
LINE
  8
0
 10
2.30969
 20
115.157
 11
2.45195
 21
114.688
  0
LINE
  8
0
 10
2.45195
 20
114.688
 11
2.49998
 21
114.2
  0
LINE
  8
0
 10
2.49998
 20
114.2
 11
2.45195
 21
113.712
  0
LINE
  8
0
 10
2.45195
 20
113.712
 11
2.30969
 21
113.243
  0
LINE
  8
0
 10
2.30969
 20
113.243
 11
2.07866
 21
112.811
  0
LINE
  8
0
 10
2.07866
 20
112.811
 11
1.76776
 21
112.432
  0
LINE
  8
0
 10
1.76776
 20
112.432
 11
1.38892
 21
112.121
  0
LINE
  8
0
 10
1.38892
 20
112.121
 11
0.956696
 21
111.89
  0
LINE
  8
0
 10
0.956696
 20
111.89
 11
0.487717
 21
111.748
  0
LINE
  8
0
 10
0.487717
 20
111.748
 11
0
 21
111.7
  0
LINE
  8
0
 10
0
 20
111.7
 11
-0.487717
 21
111.748
  0
LINE
  8
0
 10
-3.2
 20
91.75
 11
-3.2
 21
106.65
  0
LINE
  8
0
 10
-3.2
 20
106.65
 11
3.2
 21
106.65
  0
LINE
  8
0
 10
3.2
 20
106.65
 11
3.2
 21
91.75
  0
LINE
  8
0
 10
3.2
 20
91.75
 11
-3.2
 21
91.75
  0
LINE
  8
0
 10
-3.25
 20
-15.2156
 11
-3.25
 21
15.2156
  0
LINE
  8
0
 10
-3.25
 20
15.2156
 11
3.25
 21
15.2156
  0
LINE
  8
0
 10
3.25
 20
15.2156
 11
3.25
 21
13
  0
LINE
  8
0
 10
3.25
 20
13
 11
8.29999
 21
13
  0
LINE
  8
0
 10
8.29999
 20
13
 11
8.29999
 21
-13
  0
LINE
  8
0
 10
8.29999
 20
-13
 11
3.25
 21
-13
  0
LINE
  8
0
 10
3.25
 20
-13
 11
3.25
 21
-15.2156
  0
LINE
  8
0
 10
3.25
 20
-15.2156
 11
-3.25
 21
-15.2156
  0
LINE
  8
0
 10
-3.2
 20
-106.65
 11
-3.2
 21
-91.75
  0
LINE
  8
0
 10
-3.2
 20
-91.75
 11
3.2
 21
-91.75
  0
LINE
  8
0
 10
3.2
 20
-91.75
 11
3.2
 21
-106.65
  0
LINE
  8
0
 10
3.2
 20
-106.65
 11
-3.2
 21
-106.65
  0
LINE
  8
0
 10
-0.487717
 20
-116.652
 11
-0.956696
 21
-116.51
  0
LINE
  8
0
 10
-0.956696
 20
-116.51
 11
-1.38892
 21
-116.279
  0
LINE
  8
0
 10
-1.38892
 20
-116.279
 11
-1.76776
 21
-115.968
  0
LINE
  8
0
 10
-1.76776
 20
-115.968
 11
-2.07866
 21
-115.589
  0
LINE
  8
0
 10
-2.07866
 20
-115.589
 11
-2.30969
 21
-115.157
  0
LINE
  8
0
 10
-2.30969
 20
-115.157
 11
-2.45195
 21
-114.688
  0
LINE
  8
0
 10
-2.45195
 20
-114.688
 11
-2.49998
 21
-114.2
  0
LINE
  8
0
 10
-2.49998
 20
-114.2
 11
-2.45195
 21
-113.712
  0
LINE
  8
0
 10
-2.45195
 20
-113.712
 11
-2.30969
 21
-113.243
  0
LINE
  8
0
 10
-2.30969
 20
-113.243
 11
-2.07866
 21
-112.811
  0
LINE
  8
0
 10
-2.07866
 20
-112.811
 11
-1.76776
 21
-112.432
  0
LINE
  8
0
 10
-1.76776
 20
-112.432
 11
-1.38892
 21
-112.121
  0
LINE
  8
0
 10
-1.38892
 20
-112.121
 11
-0.956696
 21
-111.89
  0
LINE
  8
0
 10
-0.956696
 20
-111.89
 11
-0.487717
 21
-111.748
  0
LINE
  8
0
 10
-0.487717
 20
-111.748
 11
0
 21
-111.7
  0
LINE
  8
0
 10
0
 20
-111.7
 11
0.487717
 21
-111.748
  0
LINE
  8
0
 10
0.487717
 20
-111.748
 11
0.956696
 21
-111.89
  0
LINE
  8
0
 10
0.956696
 20
-111.89
 11
1.38892
 21
-112.121
  0
LINE
  8
0
 10
1.38892
 20
-112.121
 11
1.76776
 21
-112.432
  0
LINE
  8
0
 10
1.76776
 20
-112.432
 11
2.07866
 21
-112.811
  0
LINE
  8
0
 10
2.07866
 20
-112.811
 11
2.30969
 21
-113.243
  0
LINE
  8
0
 10
2.30969
 20
-113.243
 11
2.45195
 21
-113.712
  0
LINE
  8
0
 10
2.45195
 20
-113.712
 11
2.49998
 21
-114.2
  0
LINE
  8
0
 10
2.49998
 20
-114.2
 11
2.45195
 21
-114.688
  0
LINE
  8
0
 10
2.45195
 20
-114.688
 11
2.30969
 21
-115.157
  0
LINE
  8
0
 10
2.30969
 20
-115.157
 11
2.07866
 21
-115.589
  0
LINE
  8
0
 10
2.07866
 20
-115.589
 11
1.76776
 21
-115.968
  0
LINE
  8
0
 10
1.76776
 20
-115.968
 11
1.38892
 21
-116.279
  0
LINE
  8
0
 10
1.38892
 20
-116.279
 11
0.956696
 21
-116.51
  0
LINE
  8
0
 10
0.956696
 20
-116.51
 11
0.487717
 21
-116.652
  0
LINE
  8
0
 10
0.487717
 20
-116.652
 11
0
 21
-116.7
  0
LINE
  8
0
 10
0
 20
-116.7
 11
-0.487717
 21
-116.652
  0
LINE
  8
0
 10
-3.25
 20
-165.216
 11
-3.25
 21
-134.784
  0
LINE
  8
0
 10
-3.25
 20
-134.784
 11
-3.2
 21
-134.784
  0
LINE
  8
0
 10
-3.2
 20
-134.784
 11
-3.2
 21
-121.75
  0
LINE
  8
0
 10
-3.2
 20
-121.75
 11
3.2
 21
-121.75
  0
LINE
  8
0
 10
3.2
 20
-121.75
 11
3.2
 21
-134.784
  0
LINE
  8
0
 10
3.2
 20
-134.784
 11
3.25
 21
-134.784
  0
LINE
  8
0
 10
3.25
 20
-134.784
 11
3.25
 21
-137
  0
LINE
  8
0
 10
3.25
 20
-137
 11
8.29999
 21
-137
  0
LINE
  8
0
 10
8.29999
 20
-137
 11
8.29999
 21
-163
  0
LINE
  8
0
 10
8.29999
 20
-163
 11
3.25
 21
-163
  0
LINE
  8
0
 10
3.25
 20
-163
 11
3.25
 21
-165.216
  0
LINE
  8
0
 10
3.25
 20
-165.216
 11
-3.25
 21
-165.216
  0
LINE
  8
0
 10
11.1373
 20
-163.752
 11
10.6683
 21
-163.61
  0
LINE
  8
0
 10
10.6683
 20
-163.61
 11
10.2361
 21
-163.379
  0
LINE
  8
0
 10
10.2361
 20
-163.379
 11
9.85722
 21
-163.068
  0
LINE
  8
0
 10
9.85722
 20
-163.068
 11
9.54633
 21
-162.689
  0
LINE
  8
0
 10
9.54633
 20
-162.689
 11
9.31529
 21
-162.257
  0
LINE
  8
0
 10
9.31529
 20
-162.257
 11
9.17303
 21
-161.788
  0
LINE
  8
0
 10
9.17303
 20
-161.788
 11
9.125
 21
-161.3
  0
LINE
  8
0
 10
9.125
 20
-161.3
 11
9.17303
 21
-160.812
  0
LINE
  8
0
 10
9.17303
 20
-160.812
 11
9.31529
 21
-160.343
  0
LINE
  8
0
 10
9.31529
 20
-160.343
 11
9.54633
 21
-159.911
  0
LINE
  8
0
 10
9.54633
 20
-159.911
 11
9.85722
 21
-159.532
  0
LINE
  8
0
 10
9.85722
 20
-159.532
 11
10.2361
 21
-159.221
  0
LINE
  8
0
 10
10.2361
 20
-159.221
 11
10.6683
 21
-158.99
  0
LINE
  8
0
 10
10.6683
 20
-158.99
 11
11.1373
 21
-158.848
  0
LINE
  8
0
 10
11.1373
 20
-158.848
 11
11.625
 21
-158.8
  0
LINE
  8
0
 10
11.625
 20
-158.8
 11
12.1127
 21
-158.848
  0
LINE
  8
0
 10
12.1127
 20
-158.848
 11
12.5817
 21
-158.99
  0
LINE
  8
0
 10
12.5817
 20
-158.99
 11
13.0139
 21
-159.221
  0
LINE
  8
0
 10
13.0139
 20
-159.221
 11
13.3928
 21
-159.532
  0
LINE
  8
0
 10
13.3928
 20
-159.532
 11
13.7037
 21
-159.911
  0
LINE
  8
0
 10
13.7037
 20
-159.911
 11
13.9347
 21
-160.343
  0
LINE
  8
0
 10
13.9347
 20
-160.343
 11
14.077
 21
-160.812
  0
LINE
  8
0
 10
14.077
 20
-160.812
 11
14.125
 21
-161.3
  0
LINE
  8
0
 10
14.125
 20
-161.3
 11
14.077
 21
-161.788
  0
LINE
  8
0
 10
14.077
 20
-161.788
 11
13.9347
 21
-162.257
  0
LINE
  8
0
 10
13.9347
 20
-162.257
 11
13.7037
 21
-162.689
  0
LINE
  8
0
 10
13.7037
 20
-162.689
 11
13.3928
 21
-163.068
  0
LINE
  8
0
 10
13.3928
 20
-163.068
 11
13.0139
 21
-163.379
  0
LINE
  8
0
 10
13.0139
 20
-163.379
 11
12.5817
 21
-163.61
  0
LINE
  8
0
 10
12.5817
 20
-163.61
 11
12.1127
 21
-163.752
  0
LINE
  8
0
 10
12.1127
 20
-163.752
 11
11.625
 21
-163.8
  0
LINE
  8
0
 10
11.625
 20
-163.8
 11
11.1373
 21
-163.752
  0
ENDSEC
  0
SECTION
  2
OBJECTS
  0
DICTIONARY
  0
ENDSEC
  0
EOF
