  0
SECTION
  2
BLOCKS
  0
ENDSEC
  0
SECTION
  2
ENTITIES
  0
LINE
  8
0
 10
10.65
 20
-144.85
 11
7.95
 21
-144.85
  0
LINE
  8
0
 10
7.95
 20
-144.85
 11
7.95
 21
-144.75
  0
LINE
  8
0
 10
7.95
 20
-144.75
 11
10.45
 21
-124.75
  0
LINE
  8
0
 10
10.45
 20
-124.75
 11
16.05
 21
-124.75
  0
LINE
  8
0
 10
16.05
 20
-124.75
 11
18.55
 21
-144.75
  0
LINE
  8
0
 10
18.55
 20
-144.75
 11
18.55
 21
-144.85
  0
LINE
  8
0
 10
18.55
 20
-144.85
 11
15.85
 21
-144.85
  0
LINE
  8
0
 10
15.85
 20
-144.85
 11
15.85
 21
-151.3
  0
LINE
  8
0
 10
15.85
 20
-151.3
 11
23.25
 21
-151.3
  0
LINE
  8
0
 10
23.25
 20
-151.3
 11
23.25
 21
151.3
  0
LINE
  8
0
 10
23.25
 20
151.3
 11
15.85
 21
151.3
  0
LINE
  8
0
 10
15.85
 20
151.3
 11
15.85
 21
144.85
  0
LINE
  8
0
 10
15.85
 20
144.85
 11
18.55
 21
144.85
  0
LINE
  8
0
 10
18.55
 20
144.85
 11
18.55
 21
144.75
  0
LINE
  8
0
 10
18.55
 20
144.75
 11
16.05
 21
124.75
  0
LINE
  8
0
 10
16.05
 20
124.75
 11
10.45
 21
124.75
  0
LINE
  8
0
 10
10.45
 20
124.75
 11
7.95
 21
144.75
  0
LINE
  8
0
 10
7.95
 20
144.75
 11
7.95
 21
144.85
  0
LINE
  8
0
 10
7.95
 20
144.85
 11
10.65
 21
144.85
  0
LINE
  8
0
 10
10.65
 20
144.85
 11
10.65
 21
151.3
  0
LINE
  8
0
 10
10.65
 20
151.3
 11
-3.25
 21
151.3
  0
LINE
  8
0
 10
-3.25
 20
151.3
 11
-3.25
 21
20
  0
LINE
  8
0
 10
-3.25
 20
20
 11
3.25
 21
20
  0
LINE
  8
0
 10
3.25
 20
20
 11
3.25
 21
-20
  0
LINE
  8
0
 10
3.25
 20
-20
 11
-3.25
 21
-20
  0
LINE
  8
0
 10
-3.25
 20
-20
 11
-3.25
 21
-151.3
  0
LINE
  8
0
 10
-3.25
 20
-151.3
 11
10.65
 21
-151.3
  0
LINE
  8
0
 10
10.65
 20
-151.3
 11
10.65
 21
-144.85
  0
LINE
  8
0
 10
-3.2
 20
131.457
 11
-3.2
 21
146.357
  0
LINE
  8
0
 10
-3.2
 20
146.357
 11
3.2
 21
146.357
  0
LINE
  8
0
 10
3.2
 20
146.357
 11
3.2
 21
131.457
  0
LINE
  8
0
 10
3.2
 20
131.457
 11
-3.2
 21
131.457
  0
LINE
  8
0
 10
-0.0961151
 20
121.253
 11
-0.575348
 21
121.389
  0
LINE
  8
0
 10
-0.575348
 20
121.389
 11
-1.02136
 21
121.611
  0
LINE
  8
0
 10
-1.02136
 20
121.611
 11
-1.41898
 21
121.912
  0
LINE
  8
0
 10
-1.41898
 20
121.912
 11
-1.75464
 21
122.28
  0
LINE
  8
0
 10
-1.75464
 20
122.28
 11
-2.01694
 21
122.704
  0
LINE
  8
0
 10
-2.01694
 20
122.704
 11
-2.19691
 21
123.168
  0
LINE
  8
0
 10
-2.19691
 20
123.168
 11
-2.28847
 21
123.658
  0
LINE
  8
0
 10
-2.28847
 20
123.658
 11
-2.28847
 21
124.156
  0
LINE
  8
0
 10
-2.28847
 20
124.156
 11
-2.19691
 21
124.646
  0
LINE
  8
0
 10
-2.19691
 20
124.646
 11
-2.01694
 21
125.11
  0
LINE
  8
0
 10
-2.01694
 20
125.11
 11
-1.75464
 21
125.534
  0
LINE
  8
0
 10
-1.75464
 20
125.534
 11
-1.41898
 21
125.902
  0
LINE
  8
0
 10
-1.41898
 20
125.902
 11
-1.02136
 21
126.203
  0
LINE
  8
0
 10
-1.02136
 20
126.203
 11
-0.575348
 21
126.425
  0
LINE
  8
0
 10
-0.575348
 20
126.425
 11
-0.0961151
 21
126.561
  0
LINE
  8
0
 10
-0.0961151
 20
126.561
 11
0.399994
 21
126.607
  0
LINE
  8
0
 10
0.399994
 20
126.607
 11
0.896118
 21
126.561
  0
LINE
  8
0
 10
0.896118
 20
126.561
 11
1.37535
 21
126.425
  0
LINE
  8
0
 10
1.37535
 20
126.425
 11
1.82137
 21
126.203
  0
LINE
  8
0
 10
1.82137
 20
126.203
 11
2.21896
 21
125.902
  0
LINE
  8
0
 10
2.21896
 20
125.902
 11
2.55464
 21
125.534
  0
LINE
  8
0
 10
2.55464
 20
125.534
 11
2.81694
 21
125.11
  0
LINE
  8
0
 10
2.81694
 20
125.11
 11
2.99692
 21
124.646
  0
LINE
  8
0
 10
2.99692
 20
124.646
 11
3.08847
 21
124.156
  0
LINE
  8
0
 10
3.08847
 20
124.156
 11
3.08847
 21
123.658
  0
LINE
  8
0
 10
3.08847
 20
123.658
 11
2.99692
 21
123.168
  0
LINE
  8
0
 10
2.99692
 20
123.168
 11
2.81694
 21
122.704
  0
LINE
  8
0
 10
2.81694
 20
122.704
 11
2.55464
 21
122.28
  0
LINE
  8
0
 10
2.55464
 20
122.28
 11
2.21896
 21
121.912
  0
LINE
  8
0
 10
2.21896
 20
121.912
 11
1.82137
 21
121.611
  0
LINE
  8
0
 10
1.82137
 20
121.611
 11
1.37535
 21
121.389
  0
LINE
  8
0
 10
1.37535
 20
121.389
 11
0.896118
 21
121.253
  0
LINE
  8
0
 10
0.896118
 20
121.253
 11
0.399994
 21
121.207
  0
LINE
  8
0
 10
0.399994
 20
121.207
 11
-0.0961151
 21
121.253
  0
LINE
  8
0
 10
-3.2
 20
101.457
 11
-3.2
 21
116.357
  0
LINE
  8
0
 10
-3.2
 20
116.357
 11
3.2
 21
116.357
  0
LINE
  8
0
 10
3.2
 20
116.357
 11
3.2
 21
101.457
  0
LINE
  8
0
 10
3.2
 20
101.457
 11
-3.2
 21
101.457
  0
LINE
  8
0
 10
-3.2
 20
57.798
 11
-3.2
 21
72.698
  0
LINE
  8
0
 10
-3.2
 20
72.698
 11
3.2
 21
72.698
  0
LINE
  8
0
 10
3.2
 20
72.698
 11
3.2
 21
57.798
  0
LINE
  8
0
 10
3.2
 20
57.798
 11
-3.2
 21
57.798
  0
LINE
  8
0
 10
-0.0961151
 20
47.594
 11
-0.575348
 21
47.7303
  0
LINE
  8
0
 10
-0.575348
 20
47.7303
 11
-1.02136
 21
47.9524
  0
LINE
  8
0
 10
-1.02136
 20
47.9524
 11
-1.41898
 21
48.2527
  0
LINE
  8
0
 10
-1.41898
 20
48.2527
 11
-1.75464
 21
48.6209
  0
LINE
  8
0
 10
-1.75464
 20
48.6209
 11
-2.01694
 21
49.0445
  0
LINE
  8
0
 10
-2.01694
 20
49.0445
 11
-2.19691
 21
49.5091
  0
LINE
  8
0
 10
-2.19691
 20
49.5091
 11
-2.28847
 21
49.9989
  0
LINE
  8
0
 10
-2.28847
 20
49.9989
 11
-2.28847
 21
50.4971
  0
LINE
  8
0
 10
-2.28847
 20
50.4971
 11
-2.19691
 21
50.9869
  0
LINE
  8
0
 10
-2.19691
 20
50.9869
 11
-2.01694
 21
51.4515
  0
LINE
  8
0
 10
-2.01694
 20
51.4515
 11
-1.75464
 21
51.8751
  0
LINE
  8
0
 10
-1.75464
 20
51.8751
 11
-1.41898
 21
52.2433
  0
LINE
  8
0
 10
-1.41898
 20
52.2433
 11
-1.02136
 21
52.5436
  0
LINE
  8
0
 10
-1.02136
 20
52.5436
 11
-0.575348
 21
52.7657
  0
LINE
  8
0
 10
-0.575348
 20
52.7657
 11
-0.0961151
 21
52.902
  0
LINE
  8
0
 10
-0.0961151
 20
52.902
 11
0.399994
 21
52.948
  0
LINE
  8
0
 10
0.399994
 20
52.948
 11
0.896118
 21
52.902
  0
LINE
  8
0
 10
0.896118
 20
52.902
 11
1.37535
 21
52.7657
  0
LINE
  8
0
 10
1.37535
 20
52.7657
 11
1.82137
 21
52.5436
  0
LINE
  8
0
 10
1.82137
 20
52.5436
 11
2.21896
 21
52.2433
  0
LINE
  8
0
 10
2.21896
 20
52.2433
 11
2.55464
 21
51.8751
  0
LINE
  8
0
 10
2.55464
 20
51.8751
 11
2.81694
 21
51.4515
  0
LINE
  8
0
 10
2.81694
 20
51.4515
 11
2.99692
 21
50.9869
  0
LINE
  8
0
 10
2.99692
 20
50.9869
 11
3.08847
 21
50.4971
  0
LINE
  8
0
 10
3.08847
 20
50.4971
 11
3.08847
 21
49.9989
  0
LINE
  8
0
 10
3.08847
 20
49.9989
 11
2.99692
 21
49.5091
  0
LINE
  8
0
 10
2.99692
 20
49.5091
 11
2.81694
 21
49.0445
  0
LINE
  8
0
 10
2.81694
 20
49.0445
 11
2.55464
 21
48.6209
  0
LINE
  8
0
 10
2.55464
 20
48.6209
 11
2.21896
 21
48.2527
  0
LINE
  8
0
 10
2.21896
 20
48.2527
 11
1.82137
 21
47.9524
  0
LINE
  8
0
 10
1.82137
 20
47.9524
 11
1.37535
 21
47.7303
  0
LINE
  8
0
 10
1.37535
 20
47.7303
 11
0.896118
 21
47.594
  0
LINE
  8
0
 10
0.896118
 20
47.594
 11
0.399994
 21
47.548
  0
LINE
  8
0
 10
0.399994
 20
47.548
 11
-0.0961151
 21
47.594
  0
LINE
  8
0
 10
-3.2
 20
27.798
 11
-3.2
 21
42.698
  0
LINE
  8
0
 10
-3.2
 20
42.698
 11
3.2
 21
42.698
  0
LINE
  8
0
 10
3.2
 20
42.698
 11
3.2
 21
27.798
  0
LINE
  8
0
 10
3.2
 20
27.798
 11
-3.2
 21
27.798
  0
LINE
  8
0
 10
-3.2
 20
-42.698
 11
-3.2
 21
-27.798
  0
LINE
  8
0
 10
-3.2
 20
-27.798
 11
3.2
 21
-27.798
  0
LINE
  8
0
 10
3.2
 20
-27.798
 11
3.2
 21
-42.698
  0
LINE
  8
0
 10
3.2
 20
-42.698
 11
-3.2
 21
-42.698
  0
LINE
  8
0
 10
-0.0961151
 20
-52.902
 11
-0.575348
 21
-52.7657
  0
LINE
  8
0
 10
-0.575348
 20
-52.7657
 11
-1.02136
 21
-52.5436
  0
LINE
  8
0
 10
-1.02136
 20
-52.5436
 11
-1.41898
 21
-52.2433
  0
LINE
  8
0
 10
-1.41898
 20
-52.2433
 11
-1.75464
 21
-51.8751
  0
LINE
  8
0
 10
-1.75464
 20
-51.8751
 11
-2.01694
 21
-51.4515
  0
LINE
  8
0
 10
-2.01694
 20
-51.4515
 11
-2.19691
 21
-50.9869
  0
LINE
  8
0
 10
-2.19691
 20
-50.9869
 11
-2.28847
 21
-50.4971
  0
LINE
  8
0
 10
-2.28847
 20
-50.4971
 11
-2.28847
 21
-49.9989
  0
LINE
  8
0
 10
-2.28847
 20
-49.9989
 11
-2.19691
 21
-49.5091
  0
LINE
  8
0
 10
-2.19691
 20
-49.5091
 11
-2.01694
 21
-49.0445
  0
LINE
  8
0
 10
-2.01694
 20
-49.0445
 11
-1.75464
 21
-48.6209
  0
LINE
  8
0
 10
-1.75464
 20
-48.6209
 11
-1.41898
 21
-48.2527
  0
LINE
  8
0
 10
-1.41898
 20
-48.2527
 11
-1.02136
 21
-47.9524
  0
LINE
  8
0
 10
-1.02136
 20
-47.9524
 11
-0.575348
 21
-47.7303
  0
LINE
  8
0
 10
-0.575348
 20
-47.7303
 11
-0.0961151
 21
-47.594
  0
LINE
  8
0
 10
-0.0961151
 20
-47.594
 11
0.399994
 21
-47.548
  0
LINE
  8
0
 10
0.399994
 20
-47.548
 11
0.896118
 21
-47.594
  0
LINE
  8
0
 10
0.896118
 20
-47.594
 11
1.37535
 21
-47.7303
  0
LINE
  8
0
 10
1.37535
 20
-47.7303
 11
1.82137
 21
-47.9524
  0
LINE
  8
0
 10
1.82137
 20
-47.9524
 11
2.21896
 21
-48.2527
  0
LINE
  8
0
 10
2.21896
 20
-48.2527
 11
2.55464
 21
-48.6209
  0
LINE
  8
0
 10
2.55464
 20
-48.6209
 11
2.81694
 21
-49.0445
  0
LINE
  8
0
 10
2.81694
 20
-49.0445
 11
2.99692
 21
-49.5091
  0
LINE
  8
0
 10
2.99692
 20
-49.5091
 11
3.08847
 21
-49.9989
  0
LINE
  8
0
 10
3.08847
 20
-49.9989
 11
3.08847
 21
-50.4971
  0
LINE
  8
0
 10
3.08847
 20
-50.4971
 11
2.99692
 21
-50.9869
  0
LINE
  8
0
 10
2.99692
 20
-50.9869
 11
2.81694
 21
-51.4515
  0
LINE
  8
0
 10
2.81694
 20
-51.4515
 11
2.55464
 21
-51.8751
  0
LINE
  8
0
 10
2.55464
 20
-51.8751
 11
2.21896
 21
-52.2433
  0
LINE
  8
0
 10
2.21896
 20
-52.2433
 11
1.82137
 21
-52.5436
  0
LINE
  8
0
 10
1.82137
 20
-52.5436
 11
1.37535
 21
-52.7657
  0
LINE
  8
0
 10
1.37535
 20
-52.7657
 11
0.896118
 21
-52.902
  0
LINE
  8
0
 10
0.896118
 20
-52.902
 11
0.399994
 21
-52.948
  0
LINE
  8
0
 10
0.399994
 20
-52.948
 11
-0.0961151
 21
-52.902
  0
LINE
  8
0
 10
-3.2
 20
-72.698
 11
-3.2
 21
-57.798
  0
LINE
  8
0
 10
-3.2
 20
-57.798
 11
3.2
 21
-57.798
  0
LINE
  8
0
 10
3.2
 20
-57.798
 11
3.2
 21
-72.698
  0
LINE
  8
0
 10
3.2
 20
-72.698
 11
-3.2
 21
-72.698
  0
LINE
  8
0
 10
-3.2
 20
-116.357
 11
-3.2
 21
-101.457
  0
LINE
  8
0
 10
-3.2
 20
-101.457
 11
3.2
 21
-101.457
  0
LINE
  8
0
 10
3.2
 20
-101.457
 11
3.2
 21
-116.357
  0
LINE
  8
0
 10
3.2
 20
-116.357
 11
-3.2
 21
-116.357
  0
LINE
  8
0
 10
-0.0961151
 20
-126.561
 11
-0.575348
 21
-126.425
  0
LINE
  8
0
 10
-0.575348
 20
-126.425
 11
-1.02136
 21
-126.203
  0
LINE
  8
0
 10
-1.02136
 20
-126.203
 11
-1.41898
 21
-125.902
  0
LINE
  8
0
 10
-1.41898
 20
-125.902
 11
-1.75464
 21
-125.534
  0
LINE
  8
0
 10
-1.75464
 20
-125.534
 11
-2.01694
 21
-125.11
  0
LINE
  8
0
 10
-2.01694
 20
-125.11
 11
-2.19691
 21
-124.646
  0
LINE
  8
0
 10
-2.19691
 20
-124.646
 11
-2.28847
 21
-124.156
  0
LINE
  8
0
 10
-2.28847
 20
-124.156
 11
-2.28847
 21
-123.658
  0
LINE
  8
0
 10
-2.28847
 20
-123.658
 11
-2.19691
 21
-123.168
  0
LINE
  8
0
 10
-2.19691
 20
-123.168
 11
-2.01694
 21
-122.704
  0
LINE
  8
0
 10
-2.01694
 20
-122.704
 11
-1.75464
 21
-122.28
  0
LINE
  8
0
 10
-1.75464
 20
-122.28
 11
-1.41898
 21
-121.912
  0
LINE
  8
0
 10
-1.41898
 20
-121.912
 11
-1.02136
 21
-121.611
  0
LINE
  8
0
 10
-1.02136
 20
-121.611
 11
-0.575348
 21
-121.389
  0
LINE
  8
0
 10
-0.575348
 20
-121.389
 11
-0.0961151
 21
-121.253
  0
LINE
  8
0
 10
-0.0961151
 20
-121.253
 11
0.399994
 21
-121.207
  0
LINE
  8
0
 10
0.399994
 20
-121.207
 11
0.896118
 21
-121.253
  0
LINE
  8
0
 10
0.896118
 20
-121.253
 11
1.37535
 21
-121.389
  0
LINE
  8
0
 10
1.37535
 20
-121.389
 11
1.82137
 21
-121.611
  0
LINE
  8
0
 10
1.82137
 20
-121.611
 11
2.21896
 21
-121.912
  0
LINE
  8
0
 10
2.21896
 20
-121.912
 11
2.55464
 21
-122.28
  0
LINE
  8
0
 10
2.55464
 20
-122.28
 11
2.81694
 21
-122.704
  0
LINE
  8
0
 10
2.81694
 20
-122.704
 11
2.99692
 21
-123.168
  0
LINE
  8
0
 10
2.99692
 20
-123.168
 11
3.08847
 21
-123.658
  0
LINE
  8
0
 10
3.08847
 20
-123.658
 11
3.08847
 21
-124.156
  0
LINE
  8
0
 10
3.08847
 20
-124.156
 11
2.99692
 21
-124.646
  0
LINE
  8
0
 10
2.99692
 20
-124.646
 11
2.81694
 21
-125.11
  0
LINE
  8
0
 10
2.81694
 20
-125.11
 11
2.55464
 21
-125.534
  0
LINE
  8
0
 10
2.55464
 20
-125.534
 11
2.21896
 21
-125.902
  0
LINE
  8
0
 10
2.21896
 20
-125.902
 11
1.82137
 21
-126.203
  0
LINE
  8
0
 10
1.82137
 20
-126.203
 11
1.37535
 21
-126.425
  0
LINE
  8
0
 10
1.37535
 20
-126.425
 11
0.896118
 21
-126.561
  0
LINE
  8
0
 10
0.896118
 20
-126.561
 11
0.399994
 21
-126.607
  0
LINE
  8
0
 10
0.399994
 20
-126.607
 11
-0.0961151
 21
-126.561
  0
LINE
  8
0
 10
-3.2
 20
-146.357
 11
-3.2
 21
-131.457
  0
LINE
  8
0
 10
-3.2
 20
-131.457
 11
3.2
 21
-131.457
  0
LINE
  8
0
 10
3.2
 20
-131.457
 11
3.2
 21
-146.357
  0
LINE
  8
0
 10
3.2
 20
-146.357
 11
-3.2
 21
-146.357
  0
ENDSEC
  0
SECTION
  2
OBJECTS
  0
DICTIONARY
  0
ENDSEC
  0
EOF
