  0
SECTION
  2
BLOCKS
  0
ENDSEC
  0
SECTION
  2
ENTITIES
  0
LINE
  8
0
 10
30
 20
-136.7
 11
34.875
 21
-136.7
  0
LINE
  8
0
 10
34.875
 20
-136.7
 11
36.5
 21
-135.075
  0
LINE
  8
0
 10
36.5
 20
-135.075
 11
36.5
 21
-123.325
  0
LINE
  8
0
 10
36.5
 20
-123.325
 11
34.875
 21
-121.7
  0
LINE
  8
0
 10
34.875
 20
-121.7
 11
30
 21
-121.7
  0
LINE
  8
0
 10
30
 20
-121.7
 11
30
 21
-116.85
  0
LINE
  8
0
 10
30
 20
-116.85
 11
23.1
 21
-116.85
  0
LINE
  8
0
 10
23.1
 20
-116.85
 11
23.1
 21
-118.15
  0
LINE
  8
0
 10
23.1
 20
-118.15
 11
17.4
 21
-118.15
  0
LINE
  8
0
 10
17.4
 20
-118.15
 11
17.4
 21
-116.85
  0
LINE
  8
0
 10
17.4
 20
-116.85
 11
10.5
 21
-116.85
  0
LINE
  8
0
 10
10.5
 20
-116.85
 11
10.5
 21
-111.55
  0
LINE
  8
0
 10
10.5
 20
-111.55
 11
17.4
 21
-111.55
  0
LINE
  8
0
 10
17.4
 20
-111.55
 11
17.4
 21
-110.25
  0
LINE
  8
0
 10
17.4
 20
-110.25
 11
23.1
 21
-110.25
  0
LINE
  8
0
 10
23.1
 20
-110.25
 11
23.1
 21
-111.55
  0
LINE
  8
0
 10
23.1
 20
-111.55
 11
30
 21
-111.55
  0
LINE
  8
0
 10
30
 20
-111.55
 11
30
 21
-106.7
  0
LINE
  8
0
 10
30
 20
-106.7
 11
34.875
 21
-106.7
  0
LINE
  8
0
 10
34.875
 20
-106.7
 11
36.5
 21
-105.075
  0
LINE
  8
0
 10
36.5
 20
-105.075
 11
36.5
 21
-93.325
  0
LINE
  8
0
 10
36.5
 20
-93.325
 11
34.875
 21
-91.7
  0
LINE
  8
0
 10
34.875
 20
-91.7
 11
30
 21
-91.7
  0
LINE
  8
0
 10
30
 20
-91.7
 11
30
 21
-22.5
  0
LINE
  8
0
 10
30
 20
-22.5
 11
34.875
 21
-22.5
  0
LINE
  8
0
 10
34.875
 20
-22.5
 11
36.5
 21
-20.875
  0
LINE
  8
0
 10
36.5
 20
-20.875
 11
36.5
 21
-9.125
  0
LINE
  8
0
 10
36.5
 20
-9.125
 11
34.875
 21
-7.5
  0
LINE
  8
0
 10
34.875
 20
-7.5
 11
30
 21
-7.5
  0
LINE
  8
0
 10
30
 20
-7.5
 11
30
 21
-2.64999
  0
LINE
  8
0
 10
30
 20
-2.64999
 11
23.1
 21
-2.64999
  0
LINE
  8
0
 10
23.1
 20
-2.64999
 11
23.1
 21
-3.95
  0
LINE
  8
0
 10
23.1
 20
-3.95
 11
17.4
 21
-3.95
  0
LINE
  8
0
 10
17.4
 20
-3.95
 11
17.4
 21
-2.64999
  0
LINE
  8
0
 10
17.4
 20
-2.64999
 11
10.5
 21
-2.64999
  0
LINE
  8
0
 10
10.5
 20
-2.64999
 11
10.5
 21
2.64999
  0
LINE
  8
0
 10
10.5
 20
2.64999
 11
17.4
 21
2.64999
  0
LINE
  8
0
 10
17.4
 20
2.64999
 11
17.4
 21
3.95
  0
LINE
  8
0
 10
17.4
 20
3.95
 11
23.1
 21
3.95
  0
LINE
  8
0
 10
23.1
 20
3.95
 11
23.1
 21
2.64999
  0
LINE
  8
0
 10
23.1
 20
2.64999
 11
30
 21
2.64999
  0
LINE
  8
0
 10
30
 20
2.64999
 11
30
 21
7.5
  0
LINE
  8
0
 10
30
 20
7.5
 11
34.875
 21
7.5
  0
LINE
  8
0
 10
34.875
 20
7.5
 11
36.5
 21
9.125
  0
LINE
  8
0
 10
36.5
 20
9.125
 11
36.5
 21
20.875
  0
LINE
  8
0
 10
36.5
 20
20.875
 11
34.875
 21
22.5
  0
LINE
  8
0
 10
34.875
 20
22.5
 11
30
 21
22.5
  0
LINE
  8
0
 10
30
 20
22.5
 11
30
 21
91.7
  0
LINE
  8
0
 10
30
 20
91.7
 11
34.875
 21
91.7
  0
LINE
  8
0
 10
34.875
 20
91.7
 11
36.5
 21
93.325
  0
LINE
  8
0
 10
36.5
 20
93.325
 11
36.5
 21
105.075
  0
LINE
  8
0
 10
36.5
 20
105.075
 11
34.875
 21
106.7
  0
LINE
  8
0
 10
34.875
 20
106.7
 11
30
 21
106.7
  0
LINE
  8
0
 10
30
 20
106.7
 11
30
 21
111.55
  0
LINE
  8
0
 10
30
 20
111.55
 11
23.1
 21
111.55
  0
LINE
  8
0
 10
23.1
 20
111.55
 11
23.1
 21
110.25
  0
LINE
  8
0
 10
23.1
 20
110.25
 11
17.4
 21
110.25
  0
LINE
  8
0
 10
17.4
 20
110.25
 11
17.4
 21
111.55
  0
LINE
  8
0
 10
17.4
 20
111.55
 11
10.5
 21
111.55
  0
LINE
  8
0
 10
10.5
 20
111.55
 11
10.5
 21
116.85
  0
LINE
  8
0
 10
10.5
 20
116.85
 11
17.4
 21
116.85
  0
LINE
  8
0
 10
17.4
 20
116.85
 11
17.4
 21
118.15
  0
LINE
  8
0
 10
17.4
 20
118.15
 11
23.1
 21
118.15
  0
LINE
  8
0
 10
23.1
 20
118.15
 11
23.1
 21
116.85
  0
LINE
  8
0
 10
23.1
 20
116.85
 11
30
 21
116.85
  0
LINE
  8
0
 10
30
 20
116.85
 11
30
 21
121.7
  0
LINE
  8
0
 10
30
 20
121.7
 11
34.875
 21
121.7
  0
LINE
  8
0
 10
34.875
 20
121.7
 11
36.5
 21
123.325
  0
LINE
  8
0
 10
36.5
 20
123.325
 11
36.5
 21
135.075
  0
LINE
  8
0
 10
36.5
 20
135.075
 11
34.875
 21
136.7
  0
LINE
  8
0
 10
34.875
 20
136.7
 11
30
 21
136.7
  0
LINE
  8
0
 10
30
 20
136.7
 11
30
 21
171.3
  0
LINE
  8
0
 10
30
 20
171.3
 11
-30
 21
171.3
  0
LINE
  8
0
 10
-30
 20
171.3
 11
-30
 21
136.7
  0
LINE
  8
0
 10
-30
 20
136.7
 11
-34.875
 21
136.7
  0
LINE
  8
0
 10
-34.875
 20
136.7
 11
-36.5
 21
135.075
  0
LINE
  8
0
 10
-36.5
 20
135.075
 11
-36.5
 21
123.325
  0
LINE
  8
0
 10
-36.5
 20
123.325
 11
-34.875
 21
121.7
  0
LINE
  8
0
 10
-34.875
 20
121.7
 11
-30
 21
121.7
  0
LINE
  8
0
 10
-30
 20
121.7
 11
-30
 21
116.85
  0
LINE
  8
0
 10
-30
 20
116.85
 11
-23.1
 21
116.85
  0
LINE
  8
0
 10
-23.1
 20
116.85
 11
-23.1
 21
118.15
  0
LINE
  8
0
 10
-23.1
 20
118.15
 11
-17.4
 21
118.15
  0
LINE
  8
0
 10
-17.4
 20
118.15
 11
-17.4
 21
116.85
  0
LINE
  8
0
 10
-17.4
 20
116.85
 11
-10.5
 21
116.85
  0
LINE
  8
0
 10
-10.5
 20
116.85
 11
-10.5
 21
111.55
  0
LINE
  8
0
 10
-10.5
 20
111.55
 11
-17.4
 21
111.55
  0
LINE
  8
0
 10
-17.4
 20
111.55
 11
-17.4
 21
110.25
  0
LINE
  8
0
 10
-17.4
 20
110.25
 11
-23.1
 21
110.25
  0
LINE
  8
0
 10
-23.1
 20
110.25
 11
-23.1
 21
111.55
  0
LINE
  8
0
 10
-23.1
 20
111.55
 11
-30
 21
111.55
  0
LINE
  8
0
 10
-30
 20
111.55
 11
-30
 21
106.7
  0
LINE
  8
0
 10
-30
 20
106.7
 11
-34.875
 21
106.7
  0
LINE
  8
0
 10
-34.875
 20
106.7
 11
-36.5
 21
105.075
  0
LINE
  8
0
 10
-36.5
 20
105.075
 11
-36.5
 21
93.325
  0
LINE
  8
0
 10
-36.5
 20
93.325
 11
-34.875
 21
91.7
  0
LINE
  8
0
 10
-34.875
 20
91.7
 11
-30
 21
91.7
  0
LINE
  8
0
 10
-30
 20
91.7
 11
-30
 21
22.5
  0
LINE
  8
0
 10
-30
 20
22.5
 11
-34.875
 21
22.5
  0
LINE
  8
0
 10
-34.875
 20
22.5
 11
-36.5
 21
20.875
  0
LINE
  8
0
 10
-36.5
 20
20.875
 11
-36.5
 21
9.125
  0
LINE
  8
0
 10
-36.5
 20
9.125
 11
-34.875
 21
7.5
  0
LINE
  8
0
 10
-34.875
 20
7.5
 11
-30
 21
7.5
  0
LINE
  8
0
 10
-30
 20
7.5
 11
-30
 21
2.64999
  0
LINE
  8
0
 10
-30
 20
2.64999
 11
-23.1
 21
2.64999
  0
LINE
  8
0
 10
-23.1
 20
2.64999
 11
-23.1
 21
3.95
  0
LINE
  8
0
 10
-23.1
 20
3.95
 11
-17.4
 21
3.95
  0
LINE
  8
0
 10
-17.4
 20
3.95
 11
-17.4
 21
2.64999
  0
LINE
  8
0
 10
-17.4
 20
2.64999
 11
-10.5
 21
2.64999
  0
LINE
  8
0
 10
-10.5
 20
2.64999
 11
-10.5
 21
-2.64999
  0
LINE
  8
0
 10
-10.5
 20
-2.64999
 11
-17.4
 21
-2.64999
  0
LINE
  8
0
 10
-17.4
 20
-2.64999
 11
-17.4
 21
-3.95
  0
LINE
  8
0
 10
-17.4
 20
-3.95
 11
-23.1
 21
-3.95
  0
LINE
  8
0
 10
-23.1
 20
-3.95
 11
-23.1
 21
-2.64999
  0
LINE
  8
0
 10
-23.1
 20
-2.64999
 11
-30
 21
-2.64999
  0
LINE
  8
0
 10
-30
 20
-2.64999
 11
-30
 21
-7.5
  0
LINE
  8
0
 10
-30
 20
-7.5
 11
-34.875
 21
-7.5
  0
LINE
  8
0
 10
-34.875
 20
-7.5
 11
-36.5
 21
-9.125
  0
LINE
  8
0
 10
-36.5
 20
-9.125
 11
-36.5
 21
-20.875
  0
LINE
  8
0
 10
-36.5
 20
-20.875
 11
-34.875
 21
-22.5
  0
LINE
  8
0
 10
-34.875
 20
-22.5
 11
-30
 21
-22.5
  0
LINE
  8
0
 10
-30
 20
-22.5
 11
-30
 21
-91.7
  0
LINE
  8
0
 10
-30
 20
-91.7
 11
-34.875
 21
-91.7
  0
LINE
  8
0
 10
-34.875
 20
-91.7
 11
-36.5
 21
-93.325
  0
LINE
  8
0
 10
-36.5
 20
-93.325
 11
-36.5
 21
-105.075
  0
LINE
  8
0
 10
-36.5
 20
-105.075
 11
-34.875
 21
-106.7
  0
LINE
  8
0
 10
-34.875
 20
-106.7
 11
-30
 21
-106.7
  0
LINE
  8
0
 10
-30
 20
-106.7
 11
-30
 21
-111.55
  0
LINE
  8
0
 10
-30
 20
-111.55
 11
-23.1
 21
-111.55
  0
LINE
  8
0
 10
-23.1
 20
-111.55
 11
-23.1
 21
-110.25
  0
LINE
  8
0
 10
-23.1
 20
-110.25
 11
-17.4
 21
-110.25
  0
LINE
  8
0
 10
-17.4
 20
-110.25
 11
-17.4
 21
-111.55
  0
LINE
  8
0
 10
-17.4
 20
-111.55
 11
-10.5
 21
-111.55
  0
LINE
  8
0
 10
-10.5
 20
-111.55
 11
-10.5
 21
-116.85
  0
LINE
  8
0
 10
-10.5
 20
-116.85
 11
-17.4
 21
-116.85
  0
LINE
  8
0
 10
-17.4
 20
-116.85
 11
-17.4
 21
-118.15
  0
LINE
  8
0
 10
-17.4
 20
-118.15
 11
-23.1
 21
-118.15
  0
LINE
  8
0
 10
-23.1
 20
-118.15
 11
-23.1
 21
-116.85
  0
LINE
  8
0
 10
-23.1
 20
-116.85
 11
-30
 21
-116.85
  0
LINE
  8
0
 10
-30
 20
-116.85
 11
-30
 21
-121.7
  0
LINE
  8
0
 10
-30
 20
-121.7
 11
-34.875
 21
-121.7
  0
LINE
  8
0
 10
-34.875
 20
-121.7
 11
-36.5
 21
-123.325
  0
LINE
  8
0
 10
-36.5
 20
-123.325
 11
-36.5
 21
-135.075
  0
LINE
  8
0
 10
-36.5
 20
-135.075
 11
-34.875
 21
-136.7
  0
LINE
  8
0
 10
-34.875
 20
-136.7
 11
-30
 21
-136.7
  0
LINE
  8
0
 10
-30
 20
-136.7
 11
-30
 21
-171.3
  0
LINE
  8
0
 10
-30
 20
-171.3
 11
30
 21
-171.3
  0
LINE
  8
0
 10
30
 20
-171.3
 11
30
 21
-136.7
  0
LINE
  8
0
 10
19.7509
 20
158.612
 11
19.2611
 21
158.703
  0
LINE
  8
0
 10
19.2611
 20
158.703
 11
18.7965
 21
158.883
  0
LINE
  8
0
 10
18.7965
 20
158.883
 11
18.3729
 21
159.145
  0
LINE
  8
0
 10
18.3729
 20
159.145
 11
18.0047
 21
159.481
  0
LINE
  8
0
 10
18.0047
 20
159.481
 11
17.7044
 21
159.879
  0
LINE
  8
0
 10
17.7044
 20
159.879
 11
17.4823
 21
160.325
  0
LINE
  8
0
 10
17.4823
 20
160.325
 11
17.346
 21
160.804
  0
LINE
  8
0
 10
17.346
 20
160.804
 11
17.3
 21
161.3
  0
LINE
  8
0
 10
17.3
 20
161.3
 11
17.346
 21
161.796
  0
LINE
  8
0
 10
17.346
 20
161.796
 11
17.4823
 21
162.275
  0
LINE
  8
0
 10
17.4823
 20
162.275
 11
17.7044
 21
162.721
  0
LINE
  8
0
 10
17.7044
 20
162.721
 11
18.0047
 21
163.119
  0
LINE
  8
0
 10
18.0047
 20
163.119
 11
18.3729
 21
163.455
  0
LINE
  8
0
 10
18.3729
 20
163.455
 11
18.7965
 21
163.717
  0
LINE
  8
0
 10
18.7965
 20
163.717
 11
19.2611
 21
163.897
  0
LINE
  8
0
 10
19.2611
 20
163.897
 11
19.7509
 21
163.988
  0
LINE
  8
0
 10
19.7509
 20
163.988
 11
20.2491
 21
163.988
  0
LINE
  8
0
 10
20.2491
 20
163.988
 11
20.7389
 21
163.897
  0
LINE
  8
0
 10
20.7389
 20
163.897
 11
21.2035
 21
163.717
  0
LINE
  8
0
 10
21.2035
 20
163.717
 11
21.6271
 21
163.455
  0
LINE
  8
0
 10
21.6271
 20
163.455
 11
21.9953
 21
163.119
  0
LINE
  8
0
 10
21.9953
 20
163.119
 11
22.2956
 21
162.721
  0
LINE
  8
0
 10
22.2956
 20
162.721
 11
22.5177
 21
162.275
  0
LINE
  8
0
 10
22.5177
 20
162.275
 11
22.654
 21
161.796
  0
LINE
  8
0
 10
22.654
 20
161.796
 11
22.7
 21
161.3
  0
LINE
  8
0
 10
22.7
 20
161.3
 11
22.654
 21
160.804
  0
LINE
  8
0
 10
22.654
 20
160.804
 11
22.5177
 21
160.325
  0
LINE
  8
0
 10
22.5177
 20
160.325
 11
22.2956
 21
159.879
  0
LINE
  8
0
 10
22.2956
 20
159.879
 11
21.9953
 21
159.481
  0
LINE
  8
0
 10
21.9953
 20
159.481
 11
21.6271
 21
159.145
  0
LINE
  8
0
 10
21.6271
 20
159.145
 11
21.2035
 21
158.883
  0
LINE
  8
0
 10
21.2035
 20
158.883
 11
20.7389
 21
158.703
  0
LINE
  8
0
 10
20.7389
 20
158.703
 11
20.2491
 21
158.612
  0
LINE
  8
0
 10
20.2491
 20
158.612
 11
19.7509
 21
158.612
  0
LINE
  8
0
 10
-20.2491
 20
158.612
 11
-20.7389
 21
158.703
  0
LINE
  8
0
 10
-20.7389
 20
158.703
 11
-21.2035
 21
158.883
  0
LINE
  8
0
 10
-21.2035
 20
158.883
 11
-21.6271
 21
159.145
  0
LINE
  8
0
 10
-21.6271
 20
159.145
 11
-21.9953
 21
159.481
  0
LINE
  8
0
 10
-21.9953
 20
159.481
 11
-22.2956
 21
159.879
  0
LINE
  8
0
 10
-22.2956
 20
159.879
 11
-22.5177
 21
160.325
  0
LINE
  8
0
 10
-22.5177
 20
160.325
 11
-22.654
 21
160.804
  0
LINE
  8
0
 10
-22.654
 20
160.804
 11
-22.7
 21
161.3
  0
LINE
  8
0
 10
-22.7
 20
161.3
 11
-22.654
 21
161.796
  0
LINE
  8
0
 10
-22.654
 20
161.796
 11
-22.5177
 21
162.275
  0
LINE
  8
0
 10
-22.5177
 20
162.275
 11
-22.2956
 21
162.721
  0
LINE
  8
0
 10
-22.2956
 20
162.721
 11
-21.9953
 21
163.119
  0
LINE
  8
0
 10
-21.9953
 20
163.119
 11
-21.6271
 21
163.455
  0
LINE
  8
0
 10
-21.6271
 20
163.455
 11
-21.2035
 21
163.717
  0
LINE
  8
0
 10
-21.2035
 20
163.717
 11
-20.7389
 21
163.897
  0
LINE
  8
0
 10
-20.7389
 20
163.897
 11
-20.2491
 21
163.988
  0
LINE
  8
0
 10
-20.2491
 20
163.988
 11
-19.7509
 21
163.988
  0
LINE
  8
0
 10
-19.7509
 20
163.988
 11
-19.2611
 21
163.897
  0
LINE
  8
0
 10
-19.2611
 20
163.897
 11
-18.7965
 21
163.717
  0
LINE
  8
0
 10
-18.7965
 20
163.717
 11
-18.3729
 21
163.455
  0
LINE
  8
0
 10
-18.3729
 20
163.455
 11
-18.0047
 21
163.119
  0
LINE
  8
0
 10
-18.0047
 20
163.119
 11
-17.7044
 21
162.721
  0
LINE
  8
0
 10
-17.7044
 20
162.721
 11
-17.4823
 21
162.275
  0
LINE
  8
0
 10
-17.4823
 20
162.275
 11
-17.346
 21
161.796
  0
LINE
  8
0
 10
-17.346
 20
161.796
 11
-17.3
 21
161.3
  0
LINE
  8
0
 10
-17.3
 20
161.3
 11
-17.346
 21
160.804
  0
LINE
  8
0
 10
-17.346
 20
160.804
 11
-17.4823
 21
160.325
  0
LINE
  8
0
 10
-17.4823
 20
160.325
 11
-17.7044
 21
159.879
  0
LINE
  8
0
 10
-17.7044
 20
159.879
 11
-18.0047
 21
159.481
  0
LINE
  8
0
 10
-18.0047
 20
159.481
 11
-18.3729
 21
159.145
  0
LINE
  8
0
 10
-18.3729
 20
159.145
 11
-18.7965
 21
158.883
  0
LINE
  8
0
 10
-18.7965
 20
158.883
 11
-19.2611
 21
158.703
  0
LINE
  8
0
 10
-19.2611
 20
158.703
 11
-19.7509
 21
158.612
  0
LINE
  8
0
 10
-19.7509
 20
158.612
 11
-20.2491
 21
158.612
  0
LINE
  8
0
 10
-20.2491
 20
-163.988
 11
-20.7389
 21
-163.897
  0
LINE
  8
0
 10
-20.7389
 20
-163.897
 11
-21.2035
 21
-163.717
  0
LINE
  8
0
 10
-21.2035
 20
-163.717
 11
-21.6271
 21
-163.455
  0
LINE
  8
0
 10
-21.6271
 20
-163.455
 11
-21.9953
 21
-163.119
  0
LINE
  8
0
 10
-21.9953
 20
-163.119
 11
-22.2956
 21
-162.721
  0
LINE
  8
0
 10
-22.2956
 20
-162.721
 11
-22.5177
 21
-162.275
  0
LINE
  8
0
 10
-22.5177
 20
-162.275
 11
-22.654
 21
-161.796
  0
LINE
  8
0
 10
-22.654
 20
-161.796
 11
-22.7
 21
-161.3
  0
LINE
  8
0
 10
-22.7
 20
-161.3
 11
-22.654
 21
-160.804
  0
LINE
  8
0
 10
-22.654
 20
-160.804
 11
-22.5177
 21
-160.325
  0
LINE
  8
0
 10
-22.5177
 20
-160.325
 11
-22.2956
 21
-159.879
  0
LINE
  8
0
 10
-22.2956
 20
-159.879
 11
-21.9953
 21
-159.481
  0
LINE
  8
0
 10
-21.9953
 20
-159.481
 11
-21.6271
 21
-159.145
  0
LINE
  8
0
 10
-21.6271
 20
-159.145
 11
-21.2035
 21
-158.883
  0
LINE
  8
0
 10
-21.2035
 20
-158.883
 11
-20.7389
 21
-158.703
  0
LINE
  8
0
 10
-20.7389
 20
-158.703
 11
-20.2491
 21
-158.612
  0
LINE
  8
0
 10
-20.2491
 20
-158.612
 11
-19.7509
 21
-158.612
  0
LINE
  8
0
 10
-19.7509
 20
-158.612
 11
-19.2611
 21
-158.703
  0
LINE
  8
0
 10
-19.2611
 20
-158.703
 11
-18.7965
 21
-158.883
  0
LINE
  8
0
 10
-18.7965
 20
-158.883
 11
-18.3729
 21
-159.145
  0
LINE
  8
0
 10
-18.3729
 20
-159.145
 11
-18.0047
 21
-159.481
  0
LINE
  8
0
 10
-18.0047
 20
-159.481
 11
-17.7044
 21
-159.879
  0
LINE
  8
0
 10
-17.7044
 20
-159.879
 11
-17.4823
 21
-160.325
  0
LINE
  8
0
 10
-17.4823
 20
-160.325
 11
-17.346
 21
-160.804
  0
LINE
  8
0
 10
-17.346
 20
-160.804
 11
-17.3
 21
-161.3
  0
LINE
  8
0
 10
-17.3
 20
-161.3
 11
-17.346
 21
-161.796
  0
LINE
  8
0
 10
-17.346
 20
-161.796
 11
-17.4823
 21
-162.275
  0
LINE
  8
0
 10
-17.4823
 20
-162.275
 11
-17.7044
 21
-162.721
  0
LINE
  8
0
 10
-17.7044
 20
-162.721
 11
-18.0047
 21
-163.119
  0
LINE
  8
0
 10
-18.0047
 20
-163.119
 11
-18.3729
 21
-163.455
  0
LINE
  8
0
 10
-18.3729
 20
-163.455
 11
-18.7965
 21
-163.717
  0
LINE
  8
0
 10
-18.7965
 20
-163.717
 11
-19.2611
 21
-163.897
  0
LINE
  8
0
 10
-19.2611
 20
-163.897
 11
-19.7509
 21
-163.988
  0
LINE
  8
0
 10
-19.7509
 20
-163.988
 11
-20.2491
 21
-163.988
  0
LINE
  8
0
 10
19.7509
 20
-163.988
 11
19.2611
 21
-163.897
  0
LINE
  8
0
 10
19.2611
 20
-163.897
 11
18.7965
 21
-163.717
  0
LINE
  8
0
 10
18.7965
 20
-163.717
 11
18.3729
 21
-163.455
  0
LINE
  8
0
 10
18.3729
 20
-163.455
 11
18.0047
 21
-163.119
  0
LINE
  8
0
 10
18.0047
 20
-163.119
 11
17.7044
 21
-162.721
  0
LINE
  8
0
 10
17.7044
 20
-162.721
 11
17.4823
 21
-162.275
  0
LINE
  8
0
 10
17.4823
 20
-162.275
 11
17.346
 21
-161.796
  0
LINE
  8
0
 10
17.346
 20
-161.796
 11
17.3
 21
-161.3
  0
LINE
  8
0
 10
17.3
 20
-161.3
 11
17.346
 21
-160.804
  0
LINE
  8
0
 10
17.346
 20
-160.804
 11
17.4823
 21
-160.325
  0
LINE
  8
0
 10
17.4823
 20
-160.325
 11
17.7044
 21
-159.879
  0
LINE
  8
0
 10
17.7044
 20
-159.879
 11
18.0047
 21
-159.481
  0
LINE
  8
0
 10
18.0047
 20
-159.481
 11
18.3729
 21
-159.145
  0
LINE
  8
0
 10
18.3729
 20
-159.145
 11
18.7965
 21
-158.883
  0
LINE
  8
0
 10
18.7965
 20
-158.883
 11
19.2611
 21
-158.703
  0
LINE
  8
0
 10
19.2611
 20
-158.703
 11
19.7509
 21
-158.612
  0
LINE
  8
0
 10
19.7509
 20
-158.612
 11
20.2491
 21
-158.612
  0
LINE
  8
0
 10
20.2491
 20
-158.612
 11
20.7389
 21
-158.703
  0
LINE
  8
0
 10
20.7389
 20
-158.703
 11
21.2035
 21
-158.883
  0
LINE
  8
0
 10
21.2035
 20
-158.883
 11
21.6271
 21
-159.145
  0
LINE
  8
0
 10
21.6271
 20
-159.145
 11
21.9953
 21
-159.481
  0
LINE
  8
0
 10
21.9953
 20
-159.481
 11
22.2956
 21
-159.879
  0
LINE
  8
0
 10
22.2956
 20
-159.879
 11
22.5177
 21
-160.325
  0
LINE
  8
0
 10
22.5177
 20
-160.325
 11
22.654
 21
-160.804
  0
LINE
  8
0
 10
22.654
 20
-160.804
 11
22.7
 21
-161.3
  0
LINE
  8
0
 10
22.7
 20
-161.3
 11
22.654
 21
-161.796
  0
LINE
  8
0
 10
22.654
 20
-161.796
 11
22.5177
 21
-162.275
  0
LINE
  8
0
 10
22.5177
 20
-162.275
 11
22.2956
 21
-162.721
  0
LINE
  8
0
 10
22.2956
 20
-162.721
 11
21.9953
 21
-163.119
  0
LINE
  8
0
 10
21.9953
 20
-163.119
 11
21.6271
 21
-163.455
  0
LINE
  8
0
 10
21.6271
 20
-163.455
 11
21.2035
 21
-163.717
  0
LINE
  8
0
 10
21.2035
 20
-163.717
 11
20.7389
 21
-163.897
  0
LINE
  8
0
 10
20.7389
 20
-163.897
 11
20.2491
 21
-163.988
  0
LINE
  8
0
 10
20.2491
 20
-163.988
 11
19.7509
 21
-163.988
  0
ENDSEC
  0
SECTION
  2
OBJECTS
  0
DICTIONARY
  0
ENDSEC
  0
EOF
