<?xml version="1.0" encoding="UTF-8" standalone="no"?>
<!-- Created with Inkscape (http://www.inkscape.org/) -->

<svg
   xmlns:dc="http://purl.org/dc/elements/1.1/"
   xmlns:cc="http://creativecommons.org/ns#"
   xmlns:rdf="http://www.w3.org/1999/02/22-rdf-syntax-ns#"
   xmlns:svg="http://www.w3.org/2000/svg"
   xmlns="http://www.w3.org/2000/svg"
   xmlns:sodipodi="http://sodipodi.sourceforge.net/DTD/sodipodi-0.dtd"
   xmlns:inkscape="http://www.inkscape.org/namespaces/inkscape"
   width="744.09448819"
   height="1052.3622047"
   id="svg2"
   version="1.1"
   inkscape:version="0.48.2 r9819"
   sodipodi:docname="vacuum_lightning.dxf">
  <sodipodi:namedview
     id="base"
     pagecolor="#ffffff"
     bordercolor="#666666"
     borderopacity="1.0"
     inkscape:pageopacity="0.0"
     inkscape:pageshadow="2"
     inkscape:zoom="22.627417"
     inkscape:cx="-271.8034"
     inkscape:cy="195.96532"
     inkscape:document-units="px"
     inkscape:current-layer="layer1"
     showgrid="false"
     inkscape:window-width="1280"
     inkscape:window-height="1011"
     inkscape:window-x="182"
     inkscape:window-y="64"
     inkscape:window-maximized="0" />
  <defs
     id="defs4" />
  <metadata
     id="metadata7">
    <rdf:RDF>
      <cc:Work
         rdf:about="">
        <dc:format>image/svg+xml</dc:format>
        <dc:type
           rdf:resource="http://purl.org/dc/dcmitype/StillImage" />
        <dc:title></dc:title>
      </cc:Work>
    </rdf:RDF>
  </metadata>
  <g
     id="layer1"
     inkscape:groupmode="layer"
     inkscape:label="Layer 1">
    <rect
       y="306.64789"
       x="-320"
       height="1080"
       width="1170"
       id="rect2985"
       style="fill:none;stroke:#000000;stroke-opacity:1" />
    <path
       style="fill:none;stroke:#000000;stroke-width:1;stroke-linecap:butt;stroke-linejoin:miter;stroke-miterlimit:4;stroke-opacity:1;stroke-dasharray:none"
       d="m -80.16075,527.1107 7.337967,0.8499 5.337968,0.8499 5.337967,0.8499 15.216669,3.33226 7.607638,5.66627 12.745066,5.06157 0.689507,1.01074 5.645471,1.0829 6.158695,0.97 -2.566123,0.98642 -4.619022,0.10418 5.132247,2.52466 5.826824,0.93714 2.631097,0.54361 4.8220842,0.49691 3.8594697,-1.92829 20.5974911,-10.45983 16.475147,-7.70309 19.179009,0.68741 30.784887,-4.29394 6.393527,-10.52141 4.906007,-8.52877 0.974587,-0.34242 1.59164,-3.2754 2.13643,-14.46339 0.51063,10.55744 0.60089,0.7916 1.45864,-0.70928 0.93878,-0.38204 21.94035,0.9393 10.77772,-0.13734 7.07915,-2.33025 10.78125,-1.49399 14.6046,1.26612 28.59999,3.68732 2.33262,1.47439 1.35261,0.53868 14.66823,0.22366 2.21176,-0.51322 1.94706,-0.079 0.72401,0.85555 13.7709,-0.37794 4.12724,0.89373 4.67961,0.81356 13.10196,3.27663 2.29478,-1.01074 0.79182,-1.01075 14.19046,-2.17781 4.90133,-4.50981 4.19034,-3.33596 2.60099,-1.28306 0.52596,-1.02645 0.20924,-1.02645 5.43623,-8.81125 3.33596,-5.38793 0.76984,-1.32648 1.04325,-2.22391 5.90209,-7.87399 23.05207,-11.7162 18.81142,-4.61266 17.2619,5.67585 1.35395,-0.41899 4.69277,-14.09777 0.34917,-0.21545 3.32918,-1.88836 4.51707,-2.54683 0.93844,-0.88901 8.04978,-6.33976 1.47733,-0.33575 2.81303,-1.5719 2.68904,-2.13881 0.72623,-1.01475 0.95869,-0.40617 4.82906,-3.05481 4.16747,-3.09208 2.66599,-1.3194 6.43868,-6.10932 4.69687,-4.21871 11.72632,-0.70661 20.88424,-2.96643 11.13571,-5.59569 2.41601,-3.33596 -4.12016,7.41897 -20.82794,5.92487 -7.60576,1.57242 -7.57081,1.02911 -1.06105,0.40822 -1.25086,1.02389 -2.71291,1.61183 -0.80205,1.65802 -2.41933,0.25662 -4.61902,3.66267 -1.53967,2.0529 0.65353,0.31348 -2.16031,1.31468 -3.14196,2.06419 -4.05882,2.5345 -3.67026,1.59634 0.57365,0.36377 2.56612,-1.23235 -2.01254,2.26537 -3.84918,1.7851 -1.83665,0.79858 -2.56612,2.44797 -3.84919,3.00955 -1.00101,1.10272 -0.69624,0.75475 -4.90107,2.99815 -3.91708,1.55343 1.32866,-2.59414 -3.24412,3.01714 -2.70926,7.47943 8.85342,6.93438 33.92227,21.12618 15.05374,6.5625 11.3037,3.13765 16.58359,10.20567 18.44627,3.81891 5.66708,3.32066 13.04567,-1.38252 4.66179,1.3971 4.61902,0.97954 0.76863,0.58364 1.34364,1.04072 2.81559,-0.86787 2.27401,0.13765 25.74124,-0.79509 4.43501,-0.27457 0.25661,-5.65132 1.64146,4.73285 2.96459,-2.21662 3.97378,-2.83402 2.80926,-3.43029 0.22147,-0.8148 4.28844,-3.56712 4.73614,-3.84918 2.28925,-3.84919 9.78949,-5.6042 5.04617,-4.85757 1.54438,-2.09416 0.25661,-3.09742 1.06978,-0.99422 1.70807,-0.33883 0.96588,-0.54545 0.82267,-1.20084 2.57433,-2.99354 1.04099,-3.65519 1.8872,-1.36887 1.18766,-3.21155 1.32608,-12.49754 -0.0588,-9.9933 3.48986,-2.38598 4.58979,-5.03433 6.69307,-8.46933 5.59315,-8.48453 5.02112,-15.47126 7.98424,-4.37216 11.2972,-13.63094 6.57074,-8.46574 9.59631,-6.93674 7.38283,-12.09712 1.33113,-1.57406 -7.48741,15.35845 -15.36778,15.98295 -12.58992,14.29382 -5.77706,3.91067 0.64153,1.49492 -1.49026,-0.31451 -3.76216,8.31034 -6.76718,13.70915 -6.52973,8.69146 -4.97456,5.49017 -2.86343,4.29723 0.44945,6.62635 3.3676,7.35112 3.08253,2.26948 0.0826,0.85318 13.95658,-11.38024 12.54563,-8.55042 6.88512,-3.40176 6.41522,-4.61235 4.84399,-2.69689 5.34273,-4.17426 6.84813,-8.16223 9.10853,-10.39721 2.86098,-1.04318 1.51403,-0.50594 8.22689,-9.42896 7.98082,-14.16993 6.68218,-5.99076 7.03267,-8.2116 8.58458,-10.13906 -1.63616,2.91697 -5.00237,7.31611 -7.83783,9.99557 -13.17788,19.16996 -12.41401,12.73157 -9.08071,8.65019 -5.13143,7.34887 -5.25367,4.44812 -7.6491,4.76436 -7.07739,5.04644 -4.8581,3.027 -15.69164,9.90041 -14.25055,10.85439 -5.88534,3.90605 -0.67122,1.60126 -0.46938,-0.4423 -0.24481,-1.18503 -1.59301,1.60475 -1.48734,1.06607 -3.14417,4.01177 -5.30647,6.71083 -2.34995,3.26688 -0.35693,0.46323 -6.46152,6.47587 -1.34348,1.03538 -3.33597,1.61163 2.81558,1.05539 12.31739,4.82432 17.86386,7.18545 15.42212,-4.10693 12.93933,-13.7616 9.01393,-9.99526 12.29228,-2.72645 12.02503,-2.94335 6.98939,-3.63588 6.1587,1.47901 16.14664,-1.92049 28.58445,-13.05972 10.2645,-5.95905 6.02861,-5.55792 12.62538,-10.61102 4.61902,-4.55948 7.43529,-1.909 8.72482,-0.91087 26.6923,4.87287 2.26137,0.95388 -15.90996,-2.1344 -25.1826,-0.74736 -8.17249,6.03675 -11.74022,9.91838 -6.91618,6.0932 -10.02826,5.60965 -30.2298,14.07344 -19.56528,0.70302 -4.36241,0.48407 1.96664,1.16163 5.13225,3.9969 -0.68359,1.66869 -8.98143,-3.09033 -14.13553,1.14429 -9.04864,3.02802 -4.04801,3.04599 -5.98224,6.55193 -7.94555,8.49284 -14.04449,12.84027 -27.39338,-8.24752 -10.70647,-3.80372 -5.95133,0.53314 -6.51866,3.23352 -2.51609,2.96233 -0.39828,1.32074 -8.89306,4.23728 8.8059,2.0722 1.19469,1.19283 -1.22248,0.90502 3.37017,-0.18825 2.00158,-0.3727 -0.50251,1.30236 3.80831,0.19071 10.36948,-0.90122 5.8346,1.17323 7.76651,2.07261 6.15869,1.32566 0.8828,0.31922 3.59258,2.1653 10.09315,3.63137 12.51001,4.69662 10.68755,1.12632 3.79893,-0.66462 -7.66923,2.59948 -19.84048,-5.06286 -29.77529,-9.30743 -5.54688,-1.4358 -6.38234,0.50645 -14.85516,0.77662 -12.72566,-2.74042 4.36241,10.455 0.16601,1.01455 2.40634,0.45358 0.39083,0.43491 0.67301,3.10429 7.91137,11.65082 7.14625,9.68239 3.32106,1.21819 3.98785,0.85052 0.82364,2.13501 6.61723,0.35115 11.72102,1.59017 6.07472,1.57191 2.39265,0.50604 0.83878,0.58826 5.10197,0.95038 9.16909,0.95224 2.85302,0.45657 0.10344,1.04523 5.30332,-1.02491 6.42484,0.59801 2.49307,0.42526 6.32989,3.35115 5.50798,5.93195 2.29391,2.45322 0.40068,1.31406 1.94293,3.86489 2.55954,3.2447 4.75137,4.12664 1.40733,0.96743 2.02216,1.50723 4.29883,3.07935 3.69248,3.07935 0.76424,2.0529 0.50464,2.0529 0.43951,-1.15958 0.70926,-0.64153 1.17534,1.65484 10.51509,2.83967 23.45413,-1.24672 -1.11224,1.65053 -26.96091,2.06182 -12.62316,-3.91159 -3.0126,-4.77206 -1.07533,-0.0123 -0.48193,-2.01338 -1.02645,-0.0164 -2.30951,-0.4964 -6.70635,-3.39056 -0.13604,-0.44661 -0.74599,-1.71961 -4.76507,-7.80594 -5.12246,-7.26182 -3.11558,0.46032 2.1154,-1.48677 1.02645,-0.9468 -6.30571,-4.1236 -0.5312,-0.37496 -3.37683,-0.68614 -2.87586,-0.62357 0.60113,0.59637 1.19753,0.89814 -2.58532,0.89815 -1.41539,-1.40962 -2.86732,0.0144 -11.15862,-1.00161 -7.12136,-1.48517 -1.34467,0.79642 -2.0529,-0.90615 -1.51896,-0.86848 -6.88764,-2.0686 -5.63512,-1.00972 1.60025,0.45266 0.95553,0.4965 -3.62877,-0.63548 -5.68579,-0.66473 -3.32255,0.0216 -1.53093,-0.46878 -5.85675,-1.40716 -4.68619,-1.35635 -0.85414,-0.22746 -2.40563,-5.66374 -4.15808,-6.10553 -4.87322,-7.09328 -3.02706,-4.19653 -11.03675,-18.57771 -3.33596,0.49824 -46.7926,0.28464 7.7109,21.90176 0.48935,3.91795 0.37405,0.50153 1.63651,0.34057 -0.35863,2.06234 -0.42827,0.90102 2.09045,0.95101 3.41877,3.81059 4.63779,3.08581 6.13031,4.84474 2.45592,2.30951 5.72715,5.16858 1.61736,1.51627 5.32866,0.92175 5.13225,0.75475 3.28826,1.04513 4.00793,2.60472 2.27378,1.33264 2.9206,2.31187 3.7362,3.26606 3.09142,1.61573 2.40753,3.30794 0.31626,0.48839 5.50328,0.71153 3.00764,1.91813 1.38781,0.66955 2.30781,1.01228 4.67274,2.27616 8.95805,5.99744 12.45928,13.12048 0,0.003 8.23666,8.41545 -18.23419,-15.49004 -12.83062,-8.42561 -5.70364,-1.43621 -4.15711,-1.28306 -4.03248,-1.23174 -1.24746,-0.25661 -0.76983,-0.0575 -10.1803,-6.68178 -0.53312,-0.86047 -0.45364,-2.29381 -0.91645,-0.0103 -0.31619,0.70928 -1.18504,-2.32132 -1.59299,-0.97759 -0.89791,-0.51343 -1.32546,-0.48335 -8.0659,-2.56726 -3.02,-1.56143 -2.95777,-0.23208 -2.66896,-0.16639 0,-1.02645 0.0271,-0.98795 -2.29378,0.27231 -0.79694,-0.34242 -3.12146,-2.74349 -2.91639,-2.02129 -2.1265,-3.51713 -5.19521,-3.54884 -1.08703,-1.48148 -0.52031,-0.91692 -1.82554,-1.5174 -7.3013,-5.84769 -1.06881,-0.30126 -0.95271,-2.12752 -1.50405,-3.33319 -1.92334,-2.24659 -1.44812,-1.38796 -2.0529,-16.42319 -2.64116,-2.66528 -2.30951,-1.33644 -3.04936,-2.07147 -2.82274,-2.25604 -2.76288,-1.19314 -3.42151,-1.28306 -2.31539,-1.28306 -4.45102,-2.32214 -1.6471,-0.47525 -1.67848,-0.0308 -10.18164,-6.40956 -1.5427,-0.77589 -22.35549,-7.97921 -19.72893,-9.76061 -27.63922,-16.38357 -11.42467,-4.06966 -17.14943,-5.38291 -1.62791,1.48877 -1.04611,0.45872 -5.94208,2.37294 -5.10524,2.48185 -2.51121,1.04513 -4.1585,1.60516 -1.82099,1.18504 -0.49778,0.42475 -3.71505,0.86786 -3.12812,-0.13108 -1.70643,0.76984 -1.70529,3.04229 -2.43257,2.88011 -4.1058,4.31602 -4.1058,4.50765 -4.87563,7.13372 -1.39352,3.93869 0.39178,2.35006 8.18205,5.52804 12.18223,3.76984 8.86482,-0.79057 22.71503,11.34596 6.02555,5.46153 -6.87226,-5.04643 -17.44963,-5.93924 -25.50181,-3.36039 -15.29229,-3.22223 -13.47776,9.66094 -1.33527,0.0431 -1.03559,1.23718 -1.14407,0.33503 -0.87122,1.01475 -6.95741,2.52917 -8.0569,1.90889 -9.26974,-4.37052 -4.59328,-3.03768 -32.0417,-4.18719 -10.11171,-1.12427 -2.08061,-0.55808 -2.00965,-0.44322 -1.63312,-0.98159 -0.46061,0.91549 -3.78861,-0.11158 -8.07865,-0.92791 -9.65535,-1.94122 -13.2122,-1.99552 -18.91864,4.64982 -7.69836,0.60632 -12.49016,-2.42006 -12.31739,0.50984 -4.78543,2.32665 -2.98348,3.70558 -2.459286,4.2647 -7.728506,16.02964 -3.609653,3.72468 -9.066236,-1.40162 -9.477576,-1.12858 -17.486446,2.89736 -16.679801,1.53331 -3.214346,2.4991 -16.936413,8.86842 -10.9669434,5.33219 -14.1810638,3.67993 -19.8320058,-9.88697 -1.466816,-0.6716 -2.48059,-0.78277 -16.00802,-9.62009 -16.154054,-4.61266 -13.737976,-3.46149 -9.678144,3.39128 -0.499357,0.32959 -8.370191,4.45777 -7.232626,4.49113 -1.79629,0.92339 -8.21159,3.37363 -6.41531,2.67195 -1.19026,0.89117 -6.98779,5.52989 -15.85084,9.86684 -4.52257,2.82274 -9.01779,6.38893 -8.62097,3.54084 -102.19586,251.71035 -2.97192,5.06898 -1.48595,2.5345 -4.82374,2.52112 -3.33777,-0.0134 -3.33778,-0.0134 -3.33777,-0.0133 1.06856,-2.65638 1.28941,-2.37555 111.94768,-265.29004 11.05448,-2.17269 2.78813,-2.0529 20.57572,-12.37343 6.41531,-5.0762 1.25078,-0.92935 8.69291,-4.0749 16.95197,-8.26785 23.495093,-10.33059 10.710699,-20.73975 0.592063,-11.31314 0.289425,-0.98646 -1.973007,-1.45033 -0.16411,-0.56122 0.736773,-3.08978 -2.089782,-13.9271 -2.251935,-11.82143 -2.466713,-2.5355 -3.226944,-2.49263 0.18149,-2.28116 -5.813442,-3.1804 -9.878267,-6.50621 -4.796043,-4.04612 -1.93796,-1.49169 -0.50157,-0.89333 -4.1881,-3.06482 -7.8538,-4.82668 -2.37439,-1.64634 0.35911,-0.98704 -5.2245,-1.37124 -5.53316,-3.31968 -2.06345,-1.46233 -4.25606,-5.76054 -2.39817,-7.7314 -1.00624,-3.20434 0.2075,-1.35803 -0.0789,-4.32506 -0.90317,-4.03282 -2.4974,-5.77647 -0.85001,-1.48121 -1.17067,-2.23392 -2.54269,-4.6365 -1.99606,-4.37407 0.1995,-2.18144 0.43354,-2.06908 -0.89807,0.85514 -0.91704,0.27138 -0.34338,-2.0005 -8.25036,-7.11072 -21.68339,-9.02668 1.717,-1.00659 25.19751,9.80955 9.68687,8.9894 0.65058,5.6058 0.96408,0.47648 -0.4369,2.02363 0.91825,0.45901 1.86718,1.44703 4.57837,5.95898 -0.0706,0.4615 -0.0717,1.87307 0.91741,9.09929 1.47508,8.76343 2.08599,2.70934 -0.55304,1.4424 -0.59441,-1.42396 -0.48111,-1.36958 -1.33511,0.40931 6.84032,6.14221 0.3166,0.56792 -0.19312,2.38421 2.32271,1.80678 -0.28381,-0.79779 -0.69087,-1.32794 2.71936,0.30921 0.66591,1.88332 2.59111,1.22796 9.62599,5.73222 5.77713,4.4209 1.55689,-0.13602 1.45852,1.70535 0.99347,1.44032 5.31393,4.8457 4.643054,3.34906 -1.246716,-1.10064 -0.64653,-0.86113 2.9963,2.14336 4.838039,3.05997 3.004618,1.41848 1.177249,1.08517 4.670847,3.80326 3.63758,3.25086 0.671564,0.57471 -0.282511,6.14697 1.106118,7.30367 1.323331,8.50363 0.912693,5.09322 -0.09055,21.52429 z"
       id="path3892"
       inkscape:connector-curvature="0"
       sodipodi:nodetypes="cccccccccccccccccccccccccccccccccccccccccccccccccccccccccccccccccccccccccccccccccccccccccccccccccccccccccccccccccccccccccccccccccccccccccccccccccccccccccccccccccccccccccccccccccccccccccccccccccccccccccccccccccccccccccccccccccccccccccccccccccccccccccccccccccccccccccccccccccccccccccccccccccccccccccccccccccccccccccccccccccccccccccccccccccccccccccccccccccccccccccccccccccccccccccccccccccccccccccccccccccccccccccccccccccccccccccccccccccccccccccccccccccccccccccccccccccccccccccccccccccccccccccccccccccccccccccccccccccccccccccccccccccccccccccccccccccccccccccccccccccccccccccccccccccccccccccccccccccccccccccccccccccccccccccccccccccccccccccccccccccccccccccccccc" />
    <path
       inkscape:connector-curvature="0"
       id="path3917"
       d="m -248.19909,851.51494 7.54987,3.84302 4.92253,1.41192 14.09711,-2.9884 3.2189,-0.75111 24.30812,-6.79551 11.99261,-5.06263 6.17801,-3.751 1.3173,-1.23298 19.7606,-20.98487 8.7219,-9.35089 5.08777,-3.18058 5.45118,-2.72022 4.72437,-3.27405 1.46639,-0.45673 34.885086,0.71882 6.842354,-1.04299 9.347006,1.95951 4.28447,1.18183 0.772091,0.52055 10.360678,6.80264 4.72436,2.15372 3.207229,2.00735 2.172362,1.87346 5.151252,5.13923 4.732469,4.17822 5.507832,3.69707 9.639553,6.11027 5.543882,4.66766 6.201237,11.56479 9.0853051,15.81237 1.0902367,2.69942 2.2559758,1.34913 1.3077752,0.66853 1.0147341,1.2077 6.0909342,3.41621 0.6131923,0.56417 5.1277896,0.39612 5.423012,-0.35309 0.919752,-0.0465 1.315887,2.52731 1.221966,-0.93804 1.919093,1.10696 2.328295,3.98081 1.366706,0.31268 3.947485,2.90934 23.158066,8.83382 8.824593,-0.82436 7.460605,7.94331 12.516716,8.38407 6.995861,6.10983 3.293797,6.54142 2.374745,4.1429 2.376401,3.27071 1.355689,3.34892 5.093467,8.28579 4.40582,7.19004 -3.48604,-8.64935 -5.165608,-9.08531 -6.298783,-11.58093 -2.180514,-6.22409 -8.51187,-6.54359 -8.568505,-6.8525 -1.453648,-1.14258 -1.453649,-2.04906 -1.817061,-2.50449 -0.717768,-0.16979 0.187986,-2.08715 1.980291,0.0727 3.478873,0.96013 12.514404,-2.75073 3.27071,-1.23837 2.196958,-0.20162 1.298127,-1.49915 0.710333,-2.34241 1.609182,1.14765 3.997532,1.09024 3.68382,1.61064 2.9073,0.96406 1.04054,0.85373 -0.65415,1.57968 3.27071,-1.72214 1.74438,0.72683 1.53944,2.4712 0.61903,-1.81706 1.14818,0.70429 2.97442,1.61545 2.36417,2.92997 5.90089,3.8356 5.27607,2.17218 2.13485,1.36788 1.30133,0.82088 1.22332,0.86928 6.17801,2.49338 2.77422,4.19668 0,0.8719 2.86563,10.68847 0.36341,1.00432 1.67825,3.31482 1.43383,1.46601 0.9175,3.54836 0.83243,4.43435 0.45037,1.45365 0.79655,1.45366 0.73579,2.49969 0.09,1.45045 1.71094,3.35989 2.68411,1.09329 1.23575,0.59818 3.40753,2.2357 4.5284,2.44737 4.59721,4.02937 1.55372,3.05165 2.77949,3.01442 5.17514,5.9386 7.63796,5.98365 6.97771,5.80573 4.27005,7.26824 0.0962,-3.43744 -0.81281,-6.54142 0.966,-3.58252 7.40088,1.09053 19.74012,-1.88189 7.98723,-1.51049 8.67898,-0.77029 8.40029,3.74649 6.91448,6.02305 4.57262,4.44817 3.64154,3.60998 4.37309,2.94321 9.72819,2.28702 8.8138,2.14457 5.397,2.80889 14.55023,4.49543 5.08777,3.5853 5.08777,4.0614 2.9073,4.5667 2.90729,4.8353 6.24305,7.5207 3.04543,2.1772 6.1131,2.6903 10.46052,6.2987 5.96133,5.7852 18.90355,-0.1178 -18.4156,-3.4835 -2.27394,-1.72 -5.81668,-4.3608 -8.35377,-4.361 -4.23772,-1.4163 -4.20334,-3.59 -5.81892,-6.2153 -11.15874,-14.8001 -5.36397,-3.8968 -9.44871,-3.64686 -11.33894,-4.45733 -8.72189,-1.88742 -12.85218,-5.79133 -9.81212,-7.42713 -2.68551,-1.89948 -4.07064,-5.92318 -7.63165,-2.96051 -8.9748,1.60338 -9.72898,1.91969 -19.74483,0.84863 -14.68127,-1.27891 -3.61828,-0.30323 -1.86765,-3.13581 -0.58146,-0.63278 -2.50302,-1.95589 -3.05758,-2.92851 -3.06672,-2.54389 -1.77144,-3.3008 -16.70929,-12.47063 2.07819,-1.26977 -2.29909,-4.47287 0.41911,-0.67421 11.35651,1.4104 3.56288,-1.39027 11.65201,-6.94073 3.73794,-3.27071 4.12751,0.26064 0.66474,0.62638 0.86563,-2.40522 4.72362,-1.47603 6.64645,-10.05271 2.68204,-4.19349 2.72694,-2.22044 2.10415,-1.75776 18.06631,-6.46147 4.88713,0.76869 7.28793,2.81064 19.17295,3.925 8.84451,-0.08 3.64726,0.65182 7.33393,1.52909 13.5189,2.67515 21.98012,-4.98412 27.66613,6.72646 11.12614,4.57638 -0.33488,-0.82582 -11.38767,-6.04718 -6.57354,-5.81459 -8.60989,-1.52924 -11.4928,0.72682 -7.25836,2.25592 -4.0375,1.32777 -23.99154,-1.333 -18.35635,-2.29487 -17.72689,-2.61526 -11.92696,-5.33475 -3.84314,-0.0625 -20.91834,7.61814 -5.68423,3.0829 -0.28386,0.53654 -1.22059,3.44878 -2.16446,4.18244 -7.63166,5.91374 -12.42472,8.1647 -9.44872,4.32592 -7.14973,0.92495 -7.26824,-0.95403 -1.32142,-1.32238 2.45809,-0.7418 -3.08933,-1.60948 -2.09469,-2.26624 -1.21136,-1.5176 0.31928,-6.30724 -0.19815,-1.00447 -1.9892,-3.80435 -1.3673,-1.09023 -0.69459,-1.36687 -2.4581,-4.44424 -3.30294,-4.811 -1.81706,-1.91562 -4.04437,-0.36341 -3.43725,-3.45241 -2.49703,-2.9246 -6.3749,-2.62441 -1.81707,-0.99241 -1.41762,-1.56166 -0.77595,-1.19868 -9.0722,-4.1445 -9.03618,-4.16659 -2.956427,-0.47185 -11.955444,-0.65778 -1.085294,2.23135 -11.125678,4.18972 -13.125678,2.18972 -9.125677,-1.81028 -11.125678,-3.81028 -5.713291,-1.46964 -4.1951,-1.92449 -1.918365,-0.94502 -1.329494,-1.39347 -2.907297,-3.77105 -2.907298,0.22677 -1.959954,-0.89777 -3.634123,-1.64567 -1.788932,-1.59495 -0.847957,-0.81274 -3.155945,1.79482 -0.24228,-1.57968 -1.090236,-0.84064 -3.27071,-1.25945 -5.087771,-4.39045 -5.087771,-4.25119 -2.180474,-3.64649 -2.180473,-4.62463 -1.353202,-1.97885 -2.288522,-0.67697 0.989789,-1.11393 1.62893,-1.21597 9.969022,3.12185 13.412454,6.4558 -3.106578,-3.2332 -7.355768,-4.54746 -15.476912,-9.63042 -1.506984,-1.45365 -1.261273,-1.45365 -2.736392,-2.54388 30.546229,-12.53896 5.413854,-4.02617 5.666773,-4.41488 4.360947,-2.91631 4.049444,-2.80161 3.030741,-2.14254 5.984077,-4.77639 6.781403,-5.45119 5.229778,-2.56612 0.363411,-1.43141 0.363413,-1.43127 2.543885,-1.25348 8.080718,-8.61868 13.39254,1.48649 26.28151,0.5428 7.99506,-1.75876 19.23246,-3.71015 10.05617,-2.08832 6.54142,-0.60529 5.45852,-0.33726 16.34622,9.03633 18.88199,7.68021 5.82251,1.42079 1.27857,0.72683 6.39611,4.26398 5.9972,3.75536 0.87214,0.58146 20.75348,2.75742 19.26087,-0.85155 2.14147,-0.76869 2.07429,-1.06552 10.67583,-3.76655 14.07007,-10.47398 0.82156,-0.59599 0.96807,-1.30451 0.37935,-1.66849 2.26322,-0.67333 13.08389,-6.47775 1.05422,-2.05648 1.02637,-0.97787 3.83732,-2.79929 4.42481,-3.68049 2.01329,-1.64263 6.51501,-0.90838 5.53557,-0.90112 1.51518,0.38856 3.43177,1.08718 3.65797,1.52517 11.10784,0.72988 16.17344,1.17499 -15.68747,-4.03955 -7.99508,-0.22881 -0.26902,-1.47791 5.89345,-1.39435 1.73129,-0.95068 6.87113,-1.44043 9.87244,0.40601 6.466,1.30755 4.3204,1.31817 21.46907,6.81078 0.79535,0.8027 2.64705,2.43807 7.30666,5.39579 15.66596,3.62527 14.72649,1.99585 6.206,2.1373 0.21912,-2.65698 -5.71245,-2.37162 -17.67843,-2.0934 -8.37514,-1.44028 -0.31457,-1.69728 -8.87609,-6.63751 1.59867,-0.44583 -0.0512,-2.09471 1.76709,-3.24018 5.43331,-2.03642 20.3152,-0.35003 1.1001,0.83351 19.48238,9.39348 -1.2411,-4.04899 -4.25164,-5.08776 -2.86267,-1.67825 0.56738,-0.68655 23.02661,-7.11678 4.10014,-1.00026 2.71049,1.01465 2.18114,1.47211 6.08626,2.90032 1.44214,0.63365 12.71943,1.21336 19.98767,4.67944 7.75581,6.14966 1.8003,0.34742 8.23433,2.44853 8.63605,3.36476 2.9073,1.40946 -0.84883,0.12065 -1.04368,0.43028 3.15801,0.78599 10.82971,4.76622 1.58479,2.00414 39.76302,24.00353 15.00463,0.85562 11.18103,1.9806 8.78308,0.67013 -0.72682,1.5631 0.9207,1.43141 3.89969,3.07578 2.33336,2.10503 0.57764,1.54581 0.72683,1.45364 0.72148,1.46762 1.5458,1.5458 1.78341,0.21035 4.23346,2.96602 11.18839,-0.21208 36.66134,0.32198 7.26825,1.06959 -0.90918,-0.79282 -3.28076,-4.18099 2.80618,-0.41894 4.6542,-0.061 2.49243,0.48741 0.90282,-0.42853 4.04296,-1.74933 1.42465,-1.27616 5.40576,-2.56453 2.00833,-1.27194 0.0222,-3.27071 1.515,-0.093 3.30835,0.4374 3.75723,1.18371 3.71234,2.83331 6.65081,6.54142 1.43611,1.45364 2.42274,1.09024 5.31275,1.09024 6.97538,4.36094 12.59399,10.70075 8.58014,3.29062 8.09547,11.00456 6.50144,8.47144 9.05711,21.8761 6.49577,12.9305 -4.9974,-17.29653 -8.49453,-20.46041 -6.63178,-8.7123 -8.26384,-11.61959 -18.62867,-11.64648 -10.341,-6.39854 -15.82467,-13.88656 -8.51812,-7.32653 -4.54679,2.16433 -11.01682,10.16072 -21.7452,5.86939 -3.98603,0.39816 -18.92729,-0.95534 -14.22844,-0.20002 -5.75923,-5.42372 -5.75926,-4.67929 -2.96031,-2.2158 -4.26051,-2.15677 -2.21324,-0.67377 -4.54452,-1.47749 -15.80279,-4.39074 -16.2259,1.17571 -14.04181,-7.4001 -5.84218,-5.86691 -0.97658,-0.71942 -1.45365,-1.69597 -4.25675,-2.54389 -19.73983,-12.51388 -6.09137,-1.29186 -47.64858,-18.17468 -13.35383,-2.63793 -17.20649,-4.54367 -9.50669,3.50358 -28.62562,3.28452 -13.19626,-1.60454 -8.91764,4.50166 -10.21307,3.701 -2.20851,0.67666 -14.67607,-0.82044 -9.86294,-3.21271 -19.0851,-0.7793 -48.08574,12.36896 -13.06579,9.10798 -12.70533,8.95098 -15.54253,9.70137 -2.9073,0.5662 -3.92891,2.62979 -13.44626,2.84086 -10.24417,-0.99123 -3.11149,-1.09024 -15.78594,-7.32843 -17.96595,-6.51264 -11.10703,-5.98089 -5.77452,-4.53596 -4.99087,-3.64066 -1.1303,-0.69994 -6.42942,-1.57807 -19.10635,1.89293 -1.81706,-0.55253 -5.45119,1.41004 -19.08977,4.93849 -15.263302,3.33321 -9.6198,0.32925 -15.160206,-5.79977 -14.186318,3.29687 -7.818567,5.09868 -3.984292,5.05129 -2.460082,3.25224 -0.726825,1.80209 -3.786232,2.44867 -4.291171,3.13596 -5.058524,3.00047 -6.974607,5.02629 -5.374547,4.58641 -1.831641,1.10884 -27.505696,15.31928 -6.957658,-1.26351 -7.08284,4.14797 -11.451183,-10.04281 -10.310222,-5.84382 -12.719428,-7.38352 -7.860388,-3.67046 -14.958788,-6.13003 -3.909312,-1.10754 -3.66103,-0.0203 -34.354561,-6.6498 -17.6636,5.82275 -13.98168,7.28902 -1.59726,1.35582 -3.01243,2.31174 -2.23279,2.98783 -0.95059,1.68565 -2.24618,3.05397 -32.20109,26.39987 -4.71423,1.81706 -12.78864,3.63353 -8.29482,2.13294 -2.90729,0.71869 -4.0612,0.39044 -7.26824,-0.25089 -15.26332,-1.07613 -8.50236,-3.27149 -1.70769,-2.06974 -1.97172,-1.70679 -1.70584,2.86117 -1.70583,2.86117 -1.70584,2.86117 -0.0158,5.80333 1.69005,2.94215 1.69005,2.94215 1.69005,2.94216 2.03486,-1.72878 1.70768,-2.06973 z"
       style="fill:none;stroke:#000000;stroke-width:1.45364892;stroke-opacity:1"
       sodipodi:nodetypes="cccccccccccccccccccccccccccccccccccccccccccccccccccccccccccccccccccccccccccccccccccccccccccccccccccccccccccccccccccccccccccccccccccccccccccccccccccccccccccccccccccccccccccccccccccccccccccccccccccccccccccccccccccccccccccccccccccccccccccccccccccccccccccccccccccccccccccccccccccccccccccccccccccccccccccccccccccccccccccccccccccccccccccccccccccccccccccccccccccccccccccccccccccccccccccccccccccccccccccccccccccccccccccccccccccccccccccccccccccccccccccccccccccccccccccccccccccccccccccccccccccccccccccccccccccccccccccccccccccccccccccccccccccccccccc" />
    <path
       sodipodi:type="arc"
       style="fill:none;stroke:#000000;stroke-width:1;stroke-miterlimit:4;stroke-opacity:1;stroke-dasharray:none"
       id="path4066"
       sodipodi:cx="-357.08893"
       sodipodi:cy="863.03436"
       sodipodi:rx="1.767767"
       sodipodi:ry="1.2374369"
       d="m -355.32116,863.03436 a 1.767767,1.2374369 0 1 1 -3.53554,0 1.767767,1.2374369 0 1 1 3.53554,0 z"
       transform="matrix(1.1234892,0,0,1.6049846,126.11134,-538.66707)" />
    <path
       style="fill:none;stroke:#000000;stroke-width:1;stroke-linecap:butt;stroke-linejoin:miter;stroke-miterlimit:4;stroke-opacity:1;stroke-dasharray:none"
       d="m -80.16075,1165.6821 7.33797,-0.8499 5.33797,-0.8499 5.33796,-0.8499 15.21667,-3.3322 7.60764,-5.6663 12.74507,-5.0616 0.6895,-1.0107 5.64547,-1.0829 6.1587,-0.97 -2.56612,-0.9864 -4.61903,-0.1042 5.13225,-2.5247 5.82682,-0.9371 2.6311,-0.5436 4.82209,-0.4969 3.85946,1.9283 20.5975,10.4598 16.47514,7.7031 19.17901,-0.6874 30.78489,4.2939 6.39353,10.5214 4.906,8.5288 0.97459,0.3424 1.59164,3.2754 2.13643,14.4634 0.51063,-10.5574 0.60089,-0.7916 1.45864,0.7092 0.93878,0.3821 21.94035,-0.9393 10.77772,0.1373 7.07915,2.3303 10.78125,1.494 14.6046,-1.2662 28.59999,-3.6873 2.33262,-1.4744 1.35261,-0.5386 14.66823,-0.2237 2.21176,0.5132 1.94706,0.079 0.72401,-0.8555 13.7709,0.3779 4.12724,-0.8937 4.67961,-0.8136 13.10196,-3.2766 2.29478,1.0107 0.79182,1.0108 14.19046,2.1778 4.90133,4.5098 4.19034,3.336 2.60099,1.283 0.52596,1.0265 0.20924,1.0264 5.43623,8.8113 3.33596,5.3879 0.76984,1.3265 1.04325,2.2239 5.90209,7.874 23.05207,11.7162 18.81142,4.6126 17.2619,-5.6758 1.35395,0.419 4.69277,14.0977 0.34917,0.2155 3.32918,1.8884 4.51707,2.5468 0.93844,0.889 8.04978,6.3398 1.47733,0.3357 2.81303,1.5719 2.68904,2.1388 0.72623,1.0148 0.95869,0.4061 4.82906,3.0548 4.16747,3.0921 2.66599,1.3194 6.43868,6.1093 4.69687,4.2188 11.72632,0.7066 20.88424,2.9664 11.13571,5.5957 2.41601,3.3359 -4.12016,-7.4189 -20.82794,-5.9249 -7.60576,-1.5724 -7.57081,-1.0291 -1.06105,-0.4082 -1.25086,-1.0239 -2.71291,-1.6119 -0.80205,-1.658 -2.41933,-0.2566 -4.61902,-3.6627 -1.53967,-2.0529 0.65353,-0.3135 -2.16031,-1.3146 -3.14196,-2.0642 -4.05882,-2.5345 -3.67026,-1.5964 0.57365,-0.3637 2.56612,1.2323 -2.01254,-2.2654 -3.84918,-1.7851 -1.83665,-0.7985 -2.56612,-2.448 -3.84919,-3.0096 -1.00101,-1.1027 -0.69624,-0.7547 -4.90107,-2.9982 -3.91708,-1.5534 1.32866,2.5941 -3.24412,-3.0171 -2.70926,-7.4794 8.85342,-6.9344 33.92227,-21.1262 15.05374,-6.5625 11.3037,-3.1376 16.58359,-10.2057 18.44627,-3.8189 5.66708,-3.3207 13.04567,1.3825 4.66179,-1.3971 4.61902,-0.9795 0.76863,-0.5836 1.34364,-1.0408 2.81559,0.8679 2.27401,-0.1376 25.74124,0.795 4.43501,0.2746 0.25661,5.6513 1.64146,-4.7328 2.96459,2.2166 3.97378,2.834 2.80926,3.4303 0.22147,0.8148 4.28844,3.5671 4.73614,3.8492 2.28925,3.8492 9.78949,5.6042 5.04617,4.8576 1.54438,2.0941 0.25661,3.0975 1.06978,0.9942 1.70807,0.3388 0.96588,0.5455 0.82267,1.2008 2.57433,2.9935 1.04099,3.6552 1.8872,1.3689 1.18766,3.2116 1.32608,12.4975 -0.0588,9.9933 3.48986,2.386 4.58979,5.0343 6.69307,8.4693 5.59315,8.4846 5.02112,15.4712 7.98424,4.3722 11.2972,13.6309 6.57074,8.4658 9.59631,6.9367 7.38283,12.0971 1.33113,1.5741 -7.48741,-15.3585 -15.36778,-15.9829 -12.58992,-14.2938 -5.77706,-3.9107 0.64153,-1.4949 -1.49026,0.3145 -3.76216,-8.3104 -6.76718,-13.7091 -6.52973,-8.6915 -4.97456,-5.4901 -2.86343,-4.2973 0.44945,-6.6263 3.3676,-7.3511 3.08253,-2.2695 0.0826,-0.8532 13.95658,11.3802 12.54563,8.5505 6.88512,3.4017 6.41522,4.6124 4.84399,2.6969 5.34273,4.1742 6.84813,8.1622 9.10853,10.3973 2.86098,1.0431 1.51403,0.506 8.22689,9.4289 7.98082,14.17 6.68218,5.9907 7.03267,8.2116 8.5846,10.1391 -1.6362,-2.917 -5.00235,-7.3161 -7.83783,-9.9956 -13.17788,-19.1699 -12.41401,-12.7316 -9.08071,-8.6502 -5.13143,-7.3489 -5.25367,-4.4481 -7.6491,-4.7643 -7.07739,-5.0465 -4.8581,-3.027 -15.69164,-9.9004 -14.25055,-10.8544 -5.88534,-3.906 -0.67122,-1.6013 -0.46938,0.4423 -0.24481,1.1851 -1.59301,-1.6048 -1.48734,-1.0661 -3.14417,-4.0117 -5.30647,-6.7109 -2.34995,-3.2668 -0.35693,-0.4633 -6.46152,-6.4758 -1.34348,-1.0354 -3.33597,-1.6117 2.81558,-1.0553 12.31739,-4.8244 17.86386,-7.1854 15.42212,4.1069 12.93933,13.7616 9.01393,9.9953 12.29228,2.7264 12.02503,2.9434 6.98939,3.6359 6.1587,-1.4791 16.14664,1.9205 28.5845,13.0598 10.2645,5.959 6.0286,5.5579 12.6253,10.611 4.6191,4.5595 7.4353,1.909 8.7248,0.9109 26.6923,-4.8729 2.2613,-0.9539 -15.9099,2.1344 -25.1826,0.7474 -8.1725,-6.0367 -11.7402,-9.9184 -6.9162,-6.0932 -10.0283,-5.6097 -30.22977,-14.0734 -19.56528,-0.703 -4.36241,-0.4841 1.96664,-1.1616 5.13225,-3.9969 -0.68359,-1.6687 -8.98143,3.0903 -14.13553,-1.1443 -9.04864,-3.028 -4.04801,-3.046 -5.98224,-6.5519 -7.94555,-8.4929 -14.04449,-12.8402 -27.39338,8.2475 -10.70647,3.8037 -5.95133,-0.5331 -6.51866,-3.2336 -2.51609,-2.9623 -0.39828,-1.3207 -8.89306,-4.2373 8.8059,-2.0722 1.19469,-1.1928 -1.22248,-0.9051 3.37017,0.1883 2.00158,0.3727 -0.50251,-1.3024 3.80831,-0.1907 10.36948,0.9012 5.8346,-1.1732 7.76651,-2.0726 6.15869,-1.3257 0.8828,-0.3192 3.59258,-2.1653 10.09315,-3.6313 12.51001,-4.6967 10.68755,-1.1263 3.79893,0.6646 -7.66923,-2.5994 -19.84048,5.0628 -29.77529,9.3074 -5.54688,1.4358 -6.38234,-0.5064 -14.85516,-0.7766 -12.72566,2.7404 4.36241,-10.455 0.16601,-1.0146 2.40634,-0.4535 0.39083,-0.4349 0.67301,-3.1043 7.91137,-11.6509 7.14625,-9.6823 3.32106,-1.2182 3.98785,-0.8506 0.82364,-2.135 6.61723,-0.3511 11.72102,-1.5902 6.07472,-1.5719 2.39265,-0.506 0.83878,-0.5883 5.10197,-0.9504 9.16909,-0.9522 2.85302,-0.4566 0.10344,-1.0452 5.30332,1.0249 6.42484,-0.598 2.49307,-0.4253 6.32989,-3.3511 5.50798,-5.932 2.29391,-2.4532 0.40068,-1.3141 1.94293,-3.8648 2.55954,-3.2447 4.75137,-4.1267 1.40733,-0.9674 2.02216,-1.5072 4.29883,-3.0794 3.69248,-3.0793 0.76424,-2.0529 0.50464,-2.0529 0.43951,1.1595 0.70926,0.6416 1.17534,-1.6549 10.51509,-2.8396 23.45413,1.2467 -1.11224,-1.6506 -26.96091,-2.0618 -12.62316,3.9116 -3.0126,4.7721 -1.07533,0.012 -0.48193,2.0134 -1.02645,0.016 -2.30951,0.4964 -6.70635,3.3905 -0.13604,0.4466 -0.74599,1.7196 -4.76507,7.806 -5.12246,7.2618 -3.11558,-0.4603 2.1154,1.4867 1.02645,0.9468 -6.30571,4.1236 -0.5312,0.375 -3.37683,0.6861 -2.87586,0.6236 0.60113,-0.5964 1.19753,-0.8981 -2.58532,-0.8981 -1.41539,1.4096 -2.86732,-0.014 -11.15862,1.0016 -7.12136,1.4852 -1.34467,-0.7965 -2.0529,0.9062 -1.51896,0.8685 -6.88764,2.0686 -5.63512,1.0097 1.60025,-0.4527 0.95553,-0.4965 -3.62877,0.6355 -5.68579,0.6647 -3.32255,-0.022 -1.53093,0.4688 -5.85675,1.4072 -4.68619,1.3563 -0.85414,0.2275 -2.40563,5.6637 -4.15808,6.1056 -4.87322,7.0932 -3.02706,4.1966 -11.03675,18.5777 -3.33596,-0.4983 -46.7926,-0.2846 7.7109,-21.9018 0.48935,-3.9179 0.37405,-0.5015 1.63651,-0.3406 -0.35863,-2.0624 -0.42827,-0.901 2.09045,-0.951 3.41877,-3.8106 4.63779,-3.0858 6.13031,-4.8447 2.45592,-2.3095 5.72715,-5.1686 1.61736,-1.5163 5.32866,-0.9217 5.13225,-0.7548 3.28826,-1.0451 4.00793,-2.6047 2.27378,-1.3327 2.9206,-2.3118 3.7362,-3.2661 3.09142,-1.6157 2.40753,-3.308 0.31626,-0.4884 5.50328,-0.7115 3.00764,-1.9181 1.38781,-0.6696 2.30781,-1.0123 4.67274,-2.2761 8.95805,-5.9975 12.45928,-13.1204 0,0 8.23666,-8.4155 -18.23419,15.4901 -12.83062,8.4256 -5.70364,1.4362 -4.15711,1.283 -4.03248,1.2318 -1.24746,0.2566 -0.76983,0.058 -10.1803,6.6818 -0.53312,0.8604 -0.45364,2.2938 -0.91645,0.01 -0.31619,-0.7092 -1.18504,2.3213 -1.59299,0.9776 -0.89791,0.5134 -1.32546,0.4834 -8.0659,2.5672 -3.02,1.5614 -2.95777,0.2321 -2.66896,0.1664 0,1.0265 0.0271,0.9879 -2.29378,-0.2723 -0.79694,0.3424 -3.12146,2.7435 -2.91639,2.0213 -2.1265,3.5171 -5.19521,3.5489 -1.08703,1.4815 -0.52031,0.9169 -1.82554,1.5174 -7.3013,5.8477 -1.06881,0.3012 -0.95271,2.1275 -1.50405,3.3332 -1.92334,2.2466 -1.44812,1.388 -2.0529,16.4232 -2.64116,2.6653 -2.30951,1.3364 -3.04936,2.0715 -2.82274,2.256 -2.76288,1.1931 -3.42151,1.2831 -2.31539,1.2831 -4.45102,2.3221 -1.6471,0.4753 -1.67848,0.031 -10.18164,6.4095 -1.5427,0.7759 -22.35549,7.9792 -19.72893,9.7606 -27.63922,16.3836 -11.42467,4.0697 -17.14943,5.3829 -1.62791,-1.4888 -1.04611,-0.4587 -5.94208,-2.373 -5.10524,-2.4818 -2.51121,-1.0451 -4.1585,-1.6052 -1.82099,-1.185 -0.49778,-0.4248 -3.71505,-0.8679 -3.12812,0.1311 -1.70643,-0.7698 -1.70529,-3.0423 -2.43257,-2.8801 -4.1058,-4.316 -4.1058,-4.5077 -4.87563,-7.1337 -1.39352,-3.9387 0.39178,-2.3501 8.18205,-5.528 12.18223,-3.7698 8.86482,0.7905 22.71503,-11.3459 6.02555,-5.4616 -6.87226,5.0465 -17.44963,5.9392 -25.50181,3.3604 -15.29229,3.2222 -13.47776,-9.6609 -1.33527,-0.043 -1.03559,-1.2372 -1.14407,-0.335 -0.87122,-1.0148 -6.95741,-2.5291 -8.0569,-1.9089 -9.26974,4.3705 -4.59328,3.0377 -32.0417,4.1872 -10.11171,1.1242 -2.08061,0.5581 -2.00965,0.4432 -1.63312,0.9816 -0.46061,-0.9155 -3.78861,0.1116 -8.07865,0.9279 -9.65535,1.9412 -13.2122,1.9956 -18.91864,-4.6499 -7.69836,-0.6063 -12.49016,2.4201 -12.31739,-0.5099 -4.78543,-2.3266 -2.98348,-3.7056 -2.45929,-4.2647 -7.7285,-16.0296 -3.60965,-3.7247 -9.06624,1.4016 -9.47758,1.1286 -17.48644,-2.8974 -16.6798,-1.5333 -3.21435,-2.4991 -16.93641,-8.8684 -10.96695,-5.3322 -14.18106,-3.6799 -19.83201,9.887 -1.46681,0.6716 -2.48059,0.7827 -16.00802,9.6201 -16.15406,4.6127 -13.73797,3.4615 -9.67815,-3.3913 -0.49935,-0.3296 -8.37019,-4.4578 -7.23263,-4.4911 -1.79629,-0.9234 -8.21159,-3.3736 -6.41531,-2.672 -1.19026,-0.8911 -6.98779,-5.5299 -15.85084,-9.8669 -4.52257,-2.8227 -9.01779,-6.3889 -8.62097,-3.5409 -102.19586,-251.7105 -2.97192,-5.06898 -1.48595,-2.5345 -4.82374,-2.52112 -3.33777,0.0134 -3.33778,0.0134 -3.33777,0.0133 1.06856,2.65638 1.28941,2.37555 111.94768,265.29017 11.05448,2.1727 2.78813,2.0529 20.57572,12.3735 6.41531,5.0762 1.25078,0.9293 8.69291,4.0749 16.95197,8.2679 23.49509,10.3305 10.7107,20.7398 0.59206,11.3131 0.28943,0.9865 -1.97301,1.4503 -0.16411,0.5612 0.73678,3.0898 -2.08979,13.9271 -2.25193,11.8215 -2.46671,2.5355 -3.22695,2.4926 0.18149,2.2811 -5.81344,3.1804 -9.87827,6.5063 -4.79604,4.0461 -1.93796,1.4917 -0.50157,0.8933 -4.1881,3.0648 -7.8538,4.8267 -2.37439,1.6463 0.35911,0.9871 -5.2245,1.3712 -5.53316,3.3197 -2.06345,1.4623 -4.25606,5.7606 -2.39817,7.7314 -1.00624,3.2043 0.2075,1.358 -0.0789,4.3251 -0.90317,4.0328 -2.4974,5.7765 -0.85001,1.4812 -1.17067,2.2339 -2.54269,4.6365 -1.99606,4.3741 0.1995,2.1814 0.43354,2.0691 -0.89807,-0.8551 -0.91704,-0.2714 -0.34338,2.0005 -8.25036,7.1107 -21.68339,9.0267 1.717,1.0066 25.19751,-9.8096 9.68687,-8.9894 0.65058,-5.6058 0.96408,-0.4765 -0.4369,-2.0236 0.91825,-0.459 1.86718,-1.447 4.57837,-5.959 -0.0706,-0.4615 -0.0717,-1.8731 0.91741,-9.0993 1.47508,-8.7634 2.08599,-2.7093 -0.55304,-1.4424 -0.59441,1.4239 -0.48111,1.3696 -1.33511,-0.4093 6.84032,-6.1422 0.3166,-0.5679 -0.19312,-2.3843 2.32271,-1.8067 -0.28381,0.7978 -0.69087,1.3279 2.71936,-0.3092 0.66591,-1.8833 2.59111,-1.228 9.62599,-5.7322 5.77713,-4.4209 1.55689,0.136 1.45852,-1.7053 0.99347,-1.4404 5.31393,-4.8457 4.64305,-3.349 -1.24671,1.1006 -0.64653,0.8612 2.9963,-2.1434 4.83804,-3.06 3.00461,-1.4185 1.17725,-1.0851 4.67085,-3.8033 3.63758,-3.2508 0.67156,-0.5748 -0.28251,-6.1469 1.10612,-7.3037 1.32333,-8.5036 0.9127,-5.0932 -0.0905,-21.5243 z"
       id="path3892-2"
       inkscape:connector-curvature="0"
       sodipodi:nodetypes="cccccccccccccccccccccccccccccccccccccccccccccccccccccccccccccccccccccccccccccccccccccccccccccccccccccccccccccccccccccccccccccccccccccccccccccccccccccccccccccccccccccccccccccccccccccccccccccccccccccccccccccccccccccccccccccccccccccccccccccccccccccccccccccccccccccccccccccccccccccccccccccccccccccccccccccccccccccccccccccccccccccccccccccccccccccccccccccccccccccccccccccccccccccccccccccccccccccccccccccccccccccccccccccccccccccccccccccccccccccccccccccccccccccccccccccccccccccccccccccccccccccccccccccccccccccccccccccccccccccccccccccccccccccccccccccccccccccccccccccccccccccccccccccccccccccccccccccccccccccccccccccccccccccccccccccccccccccccccccccccccccccccccccccc" />
  </g>
</svg>
