  0
SECTION
  2
BLOCKS
  0
ENDSEC
  0
SECTION
  2
ENTITIES
  0
LINE
  8
0
 10
-109.334
 20
-12.0183
 11
-108.929
 21
-15.309
  0
LINE
  8
0
 10
-108.929
 20
-15.309
 11
-108.431
 21
-18.4553
  0
LINE
  8
0
 10
-108.431
 20
-18.4553
 11
-101.994
 21
-17.5545
  0
LINE
  8
0
 10
-101.994
 20
-17.5545
 11
-101.928
 21
-17.9726
  0
LINE
  8
0
 10
-101.928
 20
-17.9726
 11
-101.238
 21
-21.5189
  0
LINE
  8
0
 10
-101.238
 20
-21.5189
 11
-100.426
 21
-25.0389
  0
LINE
  8
0
 10
-100.426
 20
-25.0389
 11
-99.4906
 21
-28.5285
  0
LINE
  8
0
 10
-99.4906
 20
-28.5285
 11
-98.4343
 21
-31.9833
  0
LINE
  8
0
 10
-98.4343
 20
-31.9833
 11
-97.2582
 21
-35.3991
  0
LINE
  8
0
 10
-97.2582
 20
-35.3991
 11
-95.9635
 21
-38.7718
  0
LINE
  8
0
 10
-95.9635
 20
-38.7718
 11
-94.552
 21
-42.0972
  0
LINE
  8
0
 10
-94.552
 20
-42.0972
 11
-93.0252
 21
-45.3714
  0
LINE
  8
0
 10
-93.0252
 20
-45.3714
 11
-91.3851
 21
-48.5903
  0
LINE
  8
0
 10
-91.3851
 20
-48.5903
 11
-89.6336
 21
-51.75
  0
LINE
  8
0
 10
-89.6336
 20
-51.75
 11
-87.773
 21
-54.8466
  0
LINE
  8
0
 10
-87.773
 20
-54.8466
 11
-86.2864
 21
-57.1358
  0
LINE
  8
0
 10
-86.2864
 20
-57.1358
 11
-91.5941
 21
-60.8953
  0
LINE
  8
0
 10
-91.5941
 20
-60.8953
 11
-91.1941
 21
-61.5112
  0
LINE
  8
0
 10
-91.1941
 20
-61.5112
 11
-88.9919
 21
-64.6564
  0
LINE
  8
0
 10
-88.9919
 20
-64.6564
 11
-87.8318
 21
-66.1958
  0
LINE
  8
0
 10
-87.8318
 20
-66.1958
 11
-82.5261
 21
-62.4377
  0
LINE
  8
0
 10
-82.5261
 20
-62.4377
 11
-81.5591
 21
-63.721
  0
LINE
  8
0
 10
-81.5591
 20
-63.721
 11
-79.2856
 21
-66.5285
  0
LINE
  8
0
 10
-79.2856
 20
-66.5285
 11
-76.9155
 21
-69.255
  0
LINE
  8
0
 10
-76.9155
 20
-69.255
 11
-74.4517
 21
-71.8971
  0
LINE
  8
0
 10
-74.4517
 20
-71.8971
 11
-71.8971
 21
-74.4517
  0
LINE
  8
0
 10
-71.8971
 20
-74.4517
 11
-69.255
 21
-76.9155
  0
LINE
  8
0
 10
-69.255
 20
-76.9155
 11
-66.5285
 21
-79.2856
  0
LINE
  8
0
 10
-66.5285
 20
-79.2856
 11
-63.721
 21
-81.5591
  0
LINE
  8
0
 10
-63.721
 20
-81.5591
 11
-60.8358
 21
-83.7333
  0
LINE
  8
0
 10
-60.8358
 20
-83.7333
 11
-57.8765
 21
-85.8054
  0
LINE
  8
0
 10
-57.8765
 20
-85.8054
 11
-54.8466
 21
-87.773
  0
LINE
  8
0
 10
-54.8466
 20
-87.773
 11
-51.75
 21
-89.6336
  0
LINE
  8
0
 10
-51.75
 20
-89.6336
 11
-50.3981
 21
-90.383
  0
LINE
  8
0
 10
-50.3981
 20
-90.383
 11
-53.3847
 21
-96.1582
  0
LINE
  8
0
 10
-53.3847
 20
-96.1582
 11
-51.6419
 21
-97.1242
  0
LINE
  8
0
 10
-51.6419
 20
-97.1242
 11
-48.2208
 21
-98.8673
  0
LINE
  8
0
 10
-48.2208
 20
-98.8673
 11
-47.6142
 21
-99.1502
  0
LINE
  8
0
 10
-47.6142
 20
-99.1502
 11
-44.6265
 21
-93.3726
  0
LINE
  8
0
 10
-44.6265
 20
-93.3726
 11
-42.0972
 21
-94.552
  0
LINE
  8
0
 10
-42.0972
 20
-94.552
 11
-38.7718
 21
-95.9635
  0
LINE
  8
0
 10
-38.7718
 20
-95.9635
 11
-35.3991
 21
-97.2582
  0
LINE
  8
0
 10
-35.3991
 20
-97.2582
 11
-31.9833
 21
-98.4343
  0
LINE
  8
0
 10
-31.9833
 20
-98.4343
 11
-28.5285
 21
-99.4906
  0
LINE
  8
0
 10
-28.5285
 20
-99.4906
 11
-25.0389
 21
-100.426
  0
LINE
  8
0
 10
-25.0389
 20
-100.426
 11
-21.5189
 21
-101.238
  0
LINE
  8
0
 10
-21.5189
 20
-101.238
 11
-17.9726
 21
-101.928
  0
LINE
  8
0
 10
-17.9726
 20
-101.928
 11
-14.4044
 21
-102.493
  0
LINE
  8
0
 10
-14.4044
 20
-102.493
 11
-10.8187
 21
-102.933
  0
LINE
  8
0
 10
-10.8187
 20
-102.933
 11
-7.21979
 21
-103.248
  0
LINE
  8
0
 10
-7.21979
 20
-103.248
 11
-3.6121
 21
-103.437
  0
LINE
  8
0
 10
-3.6121
 20
-103.437
 11
-3.25
 21
-103.443
  0
LINE
  8
0
 10
-3.25
 20
-103.443
 11
-3.25
 21
-109.943
  0
LINE
  8
0
 10
-3.25
 20
-109.943
 11
0
 21
-110
  0
LINE
  8
0
 10
0
 20
-110
 11
3.25
 21
-109.943
  0
LINE
  8
0
 10
3.25
 20
-109.943
 11
3.25
 21
-103.443
  0
LINE
  8
0
 10
3.25
 20
-103.443
 11
3.6121
 21
-103.437
  0
LINE
  8
0
 10
3.6121
 20
-103.437
 11
7.21979
 21
-103.248
  0
LINE
  8
0
 10
7.21979
 20
-103.248
 11
10.8187
 21
-102.933
  0
LINE
  8
0
 10
10.8187
 20
-102.933
 11
14.4044
 21
-102.493
  0
LINE
  8
0
 10
14.4044
 20
-102.493
 11
17.9726
 21
-101.928
  0
LINE
  8
0
 10
17.9726
 20
-101.928
 11
21.5189
 21
-101.238
  0
LINE
  8
0
 10
21.5189
 20
-101.238
 11
25.0389
 21
-100.426
  0
LINE
  8
0
 10
25.0389
 20
-100.426
 11
28.5285
 21
-99.4906
  0
LINE
  8
0
 10
28.5285
 20
-99.4906
 11
31.9833
 21
-98.4343
  0
LINE
  8
0
 10
31.9833
 20
-98.4343
 11
35.3991
 21
-97.2582
  0
LINE
  8
0
 10
35.3991
 20
-97.2582
 11
38.7718
 21
-95.9635
  0
LINE
  8
0
 10
38.7718
 20
-95.9635
 11
42.0972
 21
-94.552
  0
LINE
  8
0
 10
42.0972
 20
-94.552
 11
44.6265
 21
-93.3726
  0
LINE
  8
0
 10
44.6265
 20
-93.3726
 11
47.6142
 21
-99.1502
  0
LINE
  8
0
 10
47.6142
 20
-99.1502
 11
48.2208
 21
-98.8673
  0
LINE
  8
0
 10
48.2208
 20
-98.8673
 11
51.6419
 21
-97.1242
  0
LINE
  8
0
 10
51.6419
 20
-97.1242
 11
53.3847
 21
-96.1582
  0
LINE
  8
0
 10
53.3847
 20
-96.1582
 11
50.3981
 21
-90.383
  0
LINE
  8
0
 10
50.3981
 20
-90.383
 11
51.75
 21
-89.6336
  0
LINE
  8
0
 10
51.75
 20
-89.6336
 11
54.8466
 21
-87.773
  0
LINE
  8
0
 10
54.8466
 20
-87.773
 11
57.8765
 21
-85.8054
  0
LINE
  8
0
 10
57.8765
 20
-85.8054
 11
60.8358
 21
-83.7333
  0
LINE
  8
0
 10
60.8358
 20
-83.7333
 11
63.721
 21
-81.5591
  0
LINE
  8
0
 10
63.721
 20
-81.5591
 11
66.5285
 21
-79.2856
  0
LINE
  8
0
 10
66.5285
 20
-79.2856
 11
69.255
 21
-76.9155
  0
LINE
  8
0
 10
69.255
 20
-76.9155
 11
71.8971
 21
-74.4517
  0
LINE
  8
0
 10
71.8971
 20
-74.4517
 11
74.4517
 21
-71.8971
  0
LINE
  8
0
 10
74.4517
 20
-71.8971
 11
76.9155
 21
-69.255
  0
LINE
  8
0
 10
76.9155
 20
-69.255
 11
79.2856
 21
-66.5285
  0
LINE
  8
0
 10
79.2856
 20
-66.5285
 11
81.5591
 21
-63.721
  0
LINE
  8
0
 10
81.5591
 20
-63.721
 11
82.5261
 21
-62.4377
  0
LINE
  8
0
 10
82.5261
 20
-62.4377
 11
87.8318
 21
-66.1958
  0
LINE
  8
0
 10
87.8318
 20
-66.1958
 11
88.9919
 21
-64.6564
  0
LINE
  8
0
 10
88.9919
 20
-64.6564
 11
91.1941
 21
-61.5112
  0
LINE
  8
0
 10
91.1941
 20
-61.5112
 11
91.5941
 21
-60.8953
  0
LINE
  8
0
 10
91.5941
 20
-60.8953
 11
86.2864
 21
-57.1358
  0
LINE
  8
0
 10
86.2864
 20
-57.1358
 11
87.773
 21
-54.8466
  0
LINE
  8
0
 10
87.773
 20
-54.8466
 11
89.6336
 21
-51.75
  0
LINE
  8
0
 10
89.6336
 20
-51.75
 11
91.3851
 21
-48.5903
  0
LINE
  8
0
 10
91.3851
 20
-48.5903
 11
93.0252
 21
-45.3714
  0
LINE
  8
0
 10
93.0252
 20
-45.3714
 11
94.552
 21
-42.0972
  0
LINE
  8
0
 10
94.552
 20
-42.0972
 11
95.9635
 21
-38.7718
  0
LINE
  8
0
 10
95.9635
 20
-38.7718
 11
97.2582
 21
-35.3991
  0
LINE
  8
0
 10
97.2582
 20
-35.3991
 11
98.4343
 21
-31.9833
  0
LINE
  8
0
 10
98.4343
 20
-31.9833
 11
99.4906
 21
-28.5285
  0
LINE
  8
0
 10
99.4906
 20
-28.5285
 11
100.426
 21
-25.0389
  0
LINE
  8
0
 10
100.426
 20
-25.0389
 11
101.238
 21
-21.5189
  0
LINE
  8
0
 10
101.238
 20
-21.5189
 11
101.928
 21
-17.9726
  0
LINE
  8
0
 10
101.928
 20
-17.9726
 11
101.994
 21
-17.5545
  0
LINE
  8
0
 10
101.994
 20
-17.5545
 11
108.431
 21
-18.4553
  0
LINE
  8
0
 10
108.431
 20
-18.4553
 11
108.929
 21
-15.309
  0
LINE
  8
0
 10
108.929
 20
-15.309
 11
109.334
 21
-12.0183
  0
LINE
  8
0
 10
109.334
 20
-12.0183
 11
102.896
 21
-11.1175
  0
LINE
  8
0
 10
102.896
 20
-11.1175
 11
102.933
 21
-10.8187
  0
LINE
  8
0
 10
102.933
 20
-10.8187
 11
103.248
 21
-7.21979
  0
LINE
  8
0
 10
103.248
 20
-7.21979
 11
103.437
 21
-3.6121
  0
LINE
  8
0
 10
103.437
 20
-3.6121
 11
103.5
 21
0
  0
LINE
  8
0
 10
103.5
 20
0
 11
103.437
 21
3.6121
  0
LINE
  8
0
 10
103.437
 20
3.6121
 11
103.248
 21
7.21979
  0
LINE
  8
0
 10
103.248
 20
7.21979
 11
102.933
 21
10.8187
  0
LINE
  8
0
 10
102.933
 20
10.8187
 11
102.493
 21
14.4044
  0
LINE
  8
0
 10
102.493
 20
14.4044
 11
101.928
 21
17.9726
  0
LINE
  8
0
 10
101.928
 20
17.9726
 11
101.238
 21
21.5189
  0
LINE
  8
0
 10
101.238
 20
21.5189
 11
100.426
 21
25.0389
  0
LINE
  8
0
 10
100.426
 20
25.0389
 11
99.4906
 21
28.5285
  0
LINE
  8
0
 10
99.4906
 20
28.5285
 11
98.6568
 21
31.2557
  0
LINE
  8
0
 10
98.6568
 20
31.2557
 11
104.793
 21
33.414
  0
LINE
  8
0
 10
104.793
 20
33.414
 11
104.616
 21
33.9919
  0
LINE
  8
0
 10
104.616
 20
33.9919
 11
103.366
 21
37.6222
  0
LINE
  8
0
 10
103.366
 20
37.6222
 11
102.629
 21
39.5432
  0
LINE
  8
0
 10
102.629
 20
39.5432
 11
96.4955
 21
37.3859
  0
LINE
  8
0
 10
96.4955
 20
37.3859
 11
95.9635
 21
38.7718
  0
LINE
  8
0
 10
95.9635
 20
38.7718
 11
94.552
 21
42.0972
  0
LINE
  8
0
 10
94.552
 20
42.0972
 11
93.0252
 21
45.3714
  0
LINE
  8
0
 10
93.0252
 20
45.3714
 11
91.3851
 21
48.5903
  0
LINE
  8
0
 10
91.3851
 20
48.5903
 11
89.6336
 21
51.75
  0
LINE
  8
0
 10
89.6336
 20
51.75
 11
87.773
 21
54.8466
  0
LINE
  8
0
 10
87.773
 20
54.8466
 11
85.8054
 21
57.8765
  0
LINE
  8
0
 10
85.8054
 20
57.8765
 11
83.7333
 21
60.8358
  0
LINE
  8
0
 10
83.7333
 20
60.8358
 11
81.5591
 21
63.721
  0
LINE
  8
0
 10
81.5591
 20
63.721
 11
79.2856
 21
66.5285
  0
LINE
  8
0
 10
79.2856
 20
66.5285
 11
76.9155
 21
69.255
  0
LINE
  8
0
 10
76.9155
 20
69.255
 11
74.4517
 21
71.8971
  0
LINE
  8
0
 10
74.4517
 20
71.8971
 11
73.2722
 21
73.0766
  0
LINE
  8
0
 10
73.2722
 20
73.0766
 11
77.7295
 21
77.8103
  0
LINE
  8
0
 10
77.7295
 20
77.8103
 11
76.4124
 21
79.1274
  0
LINE
  8
0
 10
76.4124
 20
79.1274
 11
73.6044
 21
81.7459
  0
LINE
  8
0
 10
73.6044
 20
81.7459
 11
73.0011
 21
82.2704
  0
LINE
  8
0
 10
73.0011
 20
82.2704
 11
68.5423
 21
77.535
  0
LINE
  8
0
 10
68.5423
 20
77.535
 11
66.5285
 21
79.2856
  0
LINE
  8
0
 10
66.5285
 20
79.2856
 11
63.721
 21
81.5591
  0
LINE
  8
0
 10
63.721
 20
81.5591
 11
60.8358
 21
83.7333
  0
LINE
  8
0
 10
60.8358
 20
83.7333
 11
57.8765
 21
85.8054
  0
LINE
  8
0
 10
57.8765
 20
85.8054
 11
54.8466
 21
87.773
  0
LINE
  8
0
 10
54.8466
 20
87.773
 11
51.75
 21
89.6336
  0
LINE
  8
0
 10
51.75
 20
89.6336
 11
48.5903
 21
91.3851
  0
LINE
  8
0
 10
48.5903
 20
91.3851
 11
45.3714
 21
93.0252
  0
LINE
  8
0
 10
45.3714
 20
93.0252
 11
42.0972
 21
94.552
  0
LINE
  8
0
 10
42.0972
 20
94.552
 11
38.7718
 21
95.9635
  0
LINE
  8
0
 10
38.7718
 20
95.9635
 11
35.3991
 21
97.2582
  0
LINE
  8
0
 10
35.3991
 20
97.2582
 11
31.9833
 21
98.4343
  0
LINE
  8
0
 10
31.9833
 20
98.4343
 11
31.52
 21
98.576
  0
LINE
  8
0
 10
31.52
 20
98.576
 11
33.4415
 21
105.307
  0
LINE
  8
0
 10
33.4415
 20
105.307
 11
34.1464
 21
105.092
  0
LINE
  8
0
 10
34.1464
 20
105.092
 11
37.5
 21
103.937
  0
LINE
  8
0
 10
37.5
 20
103.937
 11
37.5
 21
140
  0
LINE
  8
0
 10
37.5
 20
140
 11
-37.5
 21
140
  0
LINE
  8
0
 10
-37.5
 20
140
 11
-37.5
 21
103.937
  0
LINE
  8
0
 10
-37.5
 20
103.937
 11
-34.1464
 21
105.092
  0
LINE
  8
0
 10
-34.1464
 20
105.092
 11
-33.4415
 21
105.307
  0
LINE
  8
0
 10
-33.4415
 20
105.307
 11
-31.52
 21
98.576
  0
LINE
  8
0
 10
-31.52
 20
98.576
 11
-31.9833
 21
98.4343
  0
LINE
  8
0
 10
-31.9833
 20
98.4343
 11
-35.3991
 21
97.2582
  0
LINE
  8
0
 10
-35.3991
 20
97.2582
 11
-38.7718
 21
95.9635
  0
LINE
  8
0
 10
-38.7718
 20
95.9635
 11
-42.0972
 21
94.552
  0
LINE
  8
0
 10
-42.0972
 20
94.552
 11
-45.3714
 21
93.0252
  0
LINE
  8
0
 10
-45.3714
 20
93.0252
 11
-48.5903
 21
91.3851
  0
LINE
  8
0
 10
-48.5903
 20
91.3851
 11
-51.75
 21
89.6336
  0
LINE
  8
0
 10
-51.75
 20
89.6336
 11
-54.8466
 21
87.773
  0
LINE
  8
0
 10
-54.8466
 20
87.773
 11
-57.8765
 21
85.8054
  0
LINE
  8
0
 10
-57.8765
 20
85.8054
 11
-60.8358
 21
83.7333
  0
LINE
  8
0
 10
-60.8358
 20
83.7333
 11
-63.721
 21
81.5591
  0
LINE
  8
0
 10
-63.721
 20
81.5591
 11
-66.5285
 21
79.2856
  0
LINE
  8
0
 10
-66.5285
 20
79.2856
 11
-68.5423
 21
77.535
  0
LINE
  8
0
 10
-68.5423
 20
77.535
 11
-73.0011
 21
82.2704
  0
LINE
  8
0
 10
-73.0011
 20
82.2704
 11
-73.6044
 21
81.7459
  0
LINE
  8
0
 10
-73.6044
 20
81.7459
 11
-76.4124
 21
79.1274
  0
LINE
  8
0
 10
-76.4124
 20
79.1274
 11
-77.7295
 21
77.8103
  0
LINE
  8
0
 10
-77.7295
 20
77.8103
 11
-73.2722
 21
73.0766
  0
LINE
  8
0
 10
-73.2722
 20
73.0766
 11
-74.4517
 21
71.8971
  0
LINE
  8
0
 10
-74.4517
 20
71.8971
 11
-76.9155
 21
69.255
  0
LINE
  8
0
 10
-76.9155
 20
69.255
 11
-79.2856
 21
66.5285
  0
LINE
  8
0
 10
-79.2856
 20
66.5285
 11
-81.5591
 21
63.721
  0
LINE
  8
0
 10
-81.5591
 20
63.721
 11
-83.7333
 21
60.8358
  0
LINE
  8
0
 10
-83.7333
 20
60.8358
 11
-85.8054
 21
57.8765
  0
LINE
  8
0
 10
-85.8054
 20
57.8765
 11
-87.773
 21
54.8466
  0
LINE
  8
0
 10
-87.773
 20
54.8466
 11
-89.6336
 21
51.75
  0
LINE
  8
0
 10
-89.6336
 20
51.75
 11
-91.3851
 21
48.5903
  0
LINE
  8
0
 10
-91.3851
 20
48.5903
 11
-93.0252
 21
45.3714
  0
LINE
  8
0
 10
-93.0252
 20
45.3714
 11
-94.552
 21
42.0972
  0
LINE
  8
0
 10
-94.552
 20
42.0972
 11
-95.9635
 21
38.7718
  0
LINE
  8
0
 10
-95.9635
 20
38.7718
 11
-96.4955
 21
37.3859
  0
LINE
  8
0
 10
-96.4955
 20
37.3859
 11
-102.629
 21
39.5432
  0
LINE
  8
0
 10
-102.629
 20
39.5432
 11
-103.366
 21
37.6222
  0
LINE
  8
0
 10
-103.366
 20
37.6222
 11
-104.616
 21
33.9919
  0
LINE
  8
0
 10
-104.616
 20
33.9919
 11
-104.793
 21
33.414
  0
LINE
  8
0
 10
-104.793
 20
33.414
 11
-98.6568
 21
31.2557
  0
LINE
  8
0
 10
-98.6568
 20
31.2557
 11
-99.4906
 21
28.5285
  0
LINE
  8
0
 10
-99.4906
 20
28.5285
 11
-100.426
 21
25.0389
  0
LINE
  8
0
 10
-100.426
 20
25.0389
 11
-101.238
 21
21.5189
  0
LINE
  8
0
 10
-101.238
 20
21.5189
 11
-101.928
 21
17.9726
  0
LINE
  8
0
 10
-101.928
 20
17.9726
 11
-102.493
 21
14.4044
  0
LINE
  8
0
 10
-102.493
 20
14.4044
 11
-102.933
 21
10.8187
  0
LINE
  8
0
 10
-102.933
 20
10.8187
 11
-103.248
 21
7.21979
  0
LINE
  8
0
 10
-103.248
 20
7.21979
 11
-103.437
 21
3.6121
  0
LINE
  8
0
 10
-103.437
 20
3.6121
 11
-103.5
 21
0
  0
LINE
  8
0
 10
-103.5
 20
0
 11
-103.437
 21
-3.6121
  0
LINE
  8
0
 10
-103.437
 20
-3.6121
 11
-103.248
 21
-7.21979
  0
LINE
  8
0
 10
-103.248
 20
-7.21979
 11
-102.933
 21
-10.8187
  0
LINE
  8
0
 10
-102.933
 20
-10.8187
 11
-102.896
 21
-11.1175
  0
LINE
  8
0
 10
-102.896
 20
-11.1175
 11
-109.334
 21
-12.0183
  0
LINE
  8
0
 10
-91.5
 20
0
 11
-91.4443
 21
3.1933
  0
LINE
  8
0
 10
-91.4443
 20
3.1933
 11
-91.2771
 21
6.38272
  0
LINE
  8
0
 10
-91.2771
 20
6.38272
 11
-90.9988
 21
9.56435
  0
LINE
  8
0
 10
-90.9988
 20
9.56435
 11
-90.6095
 21
12.7343
  0
LINE
  8
0
 10
-90.6095
 20
12.7343
 11
-90.1099
 21
15.8888
  0
LINE
  8
0
 10
-90.1099
 20
15.8888
 11
-89.5005
 21
19.0239
  0
LINE
  8
0
 10
-89.5005
 20
19.0239
 11
-88.7821
 21
22.1359
  0
LINE
  8
0
 10
-88.7821
 20
22.1359
 11
-87.9701
 21
25.166
  0
LINE
  8
0
 10
-87.9701
 20
25.166
 11
-81.7807
 21
23.1549
  0
LINE
  8
0
 10
-81.7807
 20
23.1549
 11
-81.7072
 21
23.4292
  0
LINE
  8
0
 10
-81.7072
 20
23.4292
 11
-80.8398
 21
26.2664
  0
LINE
  8
0
 10
-80.8398
 20
26.2664
 11
-79.8739
 21
29.0717
  0
LINE
  8
0
 10
-79.8739
 20
29.0717
 11
-79.7721
 21
29.3368
  0
LINE
  8
0
 10
-79.7721
 20
29.3368
 11
-85.9615
 21
31.3478
  0
LINE
  8
0
 10
-85.9615
 20
31.3478
 11
-84.8373
 21
34.2765
  0
LINE
  8
0
 10
-84.8373
 20
34.2765
 11
-83.5894
 21
37.2164
  0
LINE
  8
0
 10
-83.5894
 20
37.2164
 11
-82.2397
 21
40.111
  0
LINE
  8
0
 10
-82.2397
 20
40.111
 11
-80.7897
 21
42.9566
  0
LINE
  8
0
 10
-80.7897
 20
42.9566
 11
-79.2413
 21
45.75
  0
LINE
  8
0
 10
-79.2413
 20
45.75
 11
-77.5964
 21
48.4876
  0
LINE
  8
0
 10
-77.5964
 20
48.4876
 11
-75.8569
 21
51.1662
  0
LINE
  8
0
 10
-75.8569
 20
51.1662
 11
-74.0251
 21
53.7824
  0
LINE
  8
0
 10
-74.0251
 20
53.7824
 11
-72.103
 21
56.333
  0
LINE
  8
0
 10
-72.103
 20
56.333
 11
-70.0931
 21
58.8151
  0
LINE
  8
0
 10
-70.0931
 20
58.8151
 11
-67.9978
 21
61.2254
  0
LINE
  8
0
 10
-67.9978
 20
61.2254
 11
-65.8196
 21
63.5612
  0
LINE
  8
0
 10
-65.8196
 20
63.5612
 11
-63.5612
 21
65.8196
  0
LINE
  8
0
 10
-63.5612
 20
65.8196
 11
-61.2254
 21
67.9978
  0
LINE
  8
0
 10
-61.2254
 20
67.9978
 11
-58.8151
 21
70.0931
  0
LINE
  8
0
 10
-58.8151
 20
70.0931
 11
-56.3771
 21
72.0673
  0
LINE
  8
0
 10
-56.3771
 20
72.0673
 11
-52.5519
 21
66.8022
  0
LINE
  8
0
 10
-52.5519
 20
66.8022
 11
-52.3312
 21
66.9809
  0
LINE
  8
0
 10
-52.3312
 20
66.9809
 11
-49.9617
 21
68.7664
  0
LINE
  8
0
 10
-49.9617
 20
68.7664
 11
-47.5314
 21
70.4682
  0
LINE
  8
0
 10
-47.5314
 20
70.4682
 11
-47.2933
 21
70.6228
  0
LINE
  8
0
 10
-47.2933
 20
70.6228
 11
-51.1185
 21
75.8879
  0
LINE
  8
0
 10
-51.1185
 20
75.8879
 11
-48.4876
 21
77.5964
  0
LINE
  8
0
 10
-48.4876
 20
77.5964
 11
-45.75
 21
79.2413
  0
LINE
  8
0
 10
-45.75
 20
79.2413
 11
-42.9566
 21
80.7897
  0
LINE
  8
0
 10
-42.9566
 20
80.7897
 11
-40.111
 21
82.2397
  0
LINE
  8
0
 10
-40.111
 20
82.2397
 11
-37.2164
 21
83.5894
  0
LINE
  8
0
 10
-37.2164
 20
83.5894
 11
-34.2765
 21
84.8373
  0
LINE
  8
0
 10
-34.2765
 20
84.8373
 11
-31.2948
 21
85.9819
  0
LINE
  8
0
 10
-31.2948
 20
85.9819
 11
-28.2751
 21
87.0217
  0
LINE
  8
0
 10
-28.2751
 20
87.0217
 11
-25.2208
 21
87.9554
  0
LINE
  8
0
 10
-25.2208
 20
87.9554
 11
-22.1359
 21
88.7821
  0
LINE
  8
0
 10
-22.1359
 20
88.7821
 11
-19.0239
 21
89.5005
  0
LINE
  8
0
 10
-19.0239
 20
89.5005
 11
-15.8888
 21
90.1099
  0
LINE
  8
0
 10
-15.8888
 20
90.1099
 11
-12.7343
 21
90.6095
  0
LINE
  8
0
 10
-12.7343
 20
90.6095
 11
-9.56435
 21
90.9988
  0
LINE
  8
0
 10
-9.56435
 20
90.9988
 11
-6.38272
 21
91.2771
  0
LINE
  8
0
 10
-6.38272
 20
91.2771
 11
-3.25
 21
91.4413
  0
LINE
  8
0
 10
-3.25
 20
91.4413
 11
-3.25
 21
84.9334
  0
LINE
  8
0
 10
-3.25
 20
84.9334
 11
-2.96646
 21
84.9482
  0
LINE
  8
0
 10
-2.96646
 20
84.9482
 11
0
 21
85
  0
LINE
  8
0
 10
0
 20
85
 11
2.96646
 21
84.9482
  0
LINE
  8
0
 10
2.96646
 20
84.9482
 11
3.25
 21
84.9334
  0
LINE
  8
0
 10
3.25
 20
84.9334
 11
3.25
 21
91.4413
  0
LINE
  8
0
 10
3.25
 20
91.4413
 11
6.38272
 21
91.2771
  0
LINE
  8
0
 10
6.38272
 20
91.2771
 11
9.56435
 21
90.9988
  0
LINE
  8
0
 10
9.56435
 20
90.9988
 11
12.7343
 21
90.6095
  0
LINE
  8
0
 10
12.7343
 20
90.6095
 11
15.8888
 21
90.1099
  0
LINE
  8
0
 10
15.8888
 20
90.1099
 11
19.0239
 21
89.5005
  0
LINE
  8
0
 10
19.0239
 20
89.5005
 11
22.1359
 21
88.7821
  0
LINE
  8
0
 10
22.1359
 20
88.7821
 11
25.2208
 21
87.9554
  0
LINE
  8
0
 10
25.2208
 20
87.9554
 11
28.2751
 21
87.0217
  0
LINE
  8
0
 10
28.2751
 20
87.0217
 11
31.2948
 21
85.9819
  0
LINE
  8
0
 10
31.2948
 20
85.9819
 11
34.2765
 21
84.8373
  0
LINE
  8
0
 10
34.2765
 20
84.8373
 11
37.2164
 21
83.5894
  0
LINE
  8
0
 10
37.2164
 20
83.5894
 11
40.111
 21
82.2397
  0
LINE
  8
0
 10
40.111
 20
82.2397
 11
42.9566
 21
80.7897
  0
LINE
  8
0
 10
42.9566
 20
80.7897
 11
45.75
 21
79.2413
  0
LINE
  8
0
 10
45.75
 20
79.2413
 11
48.4876
 21
77.5964
  0
LINE
  8
0
 10
48.4876
 20
77.5964
 11
51.1185
 21
75.8879
  0
LINE
  8
0
 10
51.1185
 20
75.8879
 11
47.2933
 21
70.6228
  0
LINE
  8
0
 10
47.2933
 20
70.6228
 11
47.5314
 21
70.4682
  0
LINE
  8
0
 10
47.5314
 20
70.4682
 11
49.9617
 21
68.7664
  0
LINE
  8
0
 10
49.9617
 20
68.7664
 11
52.3312
 21
66.9809
  0
LINE
  8
0
 10
52.3312
 20
66.9809
 11
52.5519
 21
66.8022
  0
LINE
  8
0
 10
52.5519
 20
66.8022
 11
56.3771
 21
72.0673
  0
LINE
  8
0
 10
56.3771
 20
72.0673
 11
58.8151
 21
70.0931
  0
LINE
  8
0
 10
58.8151
 20
70.0931
 11
61.2254
 21
67.9978
  0
LINE
  8
0
 10
61.2254
 20
67.9978
 11
63.5612
 21
65.8196
  0
LINE
  8
0
 10
63.5612
 20
65.8196
 11
65.8196
 21
63.5612
  0
LINE
  8
0
 10
65.8196
 20
63.5612
 11
67.9978
 21
61.2254
  0
LINE
  8
0
 10
67.9978
 20
61.2254
 11
70.0931
 21
58.8151
  0
LINE
  8
0
 10
70.0931
 20
58.8151
 11
72.103
 21
56.333
  0
LINE
  8
0
 10
72.103
 20
56.333
 11
74.0251
 21
53.7824
  0
LINE
  8
0
 10
74.0251
 20
53.7824
 11
75.8569
 21
51.1662
  0
LINE
  8
0
 10
75.8569
 20
51.1662
 11
77.5964
 21
48.4876
  0
LINE
  8
0
 10
77.5964
 20
48.4876
 11
79.2413
 21
45.75
  0
LINE
  8
0
 10
79.2413
 20
45.75
 11
80.7897
 21
42.9566
  0
LINE
  8
0
 10
80.7897
 20
42.9566
 11
82.2397
 21
40.111
  0
LINE
  8
0
 10
82.2397
 20
40.111
 11
83.5894
 21
37.2164
  0
LINE
  8
0
 10
83.5894
 20
37.2164
 11
84.8373
 21
34.2765
  0
LINE
  8
0
 10
84.8373
 20
34.2765
 11
85.9615
 21
31.3478
  0
LINE
  8
0
 10
85.9615
 20
31.3478
 11
79.7721
 21
29.3368
  0
LINE
  8
0
 10
79.7721
 20
29.3368
 11
79.8739
 21
29.0717
  0
LINE
  8
0
 10
79.8739
 20
29.0717
 11
80.8398
 21
26.2664
  0
LINE
  8
0
 10
80.8398
 20
26.2664
 11
81.7072
 21
23.4292
  0
LINE
  8
0
 10
81.7072
 20
23.4292
 11
81.7807
 21
23.1549
  0
LINE
  8
0
 10
81.7807
 20
23.1549
 11
87.9701
 21
25.166
  0
LINE
  8
0
 10
87.9701
 20
25.166
 11
88.7821
 21
22.1359
  0
LINE
  8
0
 10
88.7821
 20
22.1359
 11
89.5005
 21
19.0239
  0
LINE
  8
0
 10
89.5005
 20
19.0239
 11
90.1099
 21
15.8888
  0
LINE
  8
0
 10
90.1099
 20
15.8888
 11
90.6095
 21
12.7343
  0
LINE
  8
0
 10
90.6095
 20
12.7343
 11
90.9988
 21
9.56435
  0
LINE
  8
0
 10
90.9988
 20
9.56435
 11
91.2771
 21
6.38272
  0
LINE
  8
0
 10
91.2771
 20
6.38272
 11
91.4443
 21
3.1933
  0
LINE
  8
0
 10
91.4443
 20
3.1933
 11
91.5
 21
0
  0
LINE
  8
0
 10
91.5
 20
0
 11
91.4443
 21
-3.1933
  0
LINE
  8
0
 10
91.4443
 20
-3.1933
 11
91.2771
 21
-6.38272
  0
LINE
  8
0
 10
91.2771
 20
-6.38272
 11
90.9988
 21
-9.56435
  0
LINE
  8
0
 10
90.9988
 20
-9.56435
 11
90.6095
 21
-12.7343
  0
LINE
  8
0
 10
90.6095
 20
-12.7343
 11
90.1099
 21
-15.8888
  0
LINE
  8
0
 10
90.1099
 20
-15.8888
 11
89.5005
 21
-19.0239
  0
LINE
  8
0
 10
89.5005
 20
-19.0239
 11
88.7821
 21
-22.1359
  0
LINE
  8
0
 10
88.7821
 20
-22.1359
 11
87.9701
 21
-25.166
  0
LINE
  8
0
 10
87.9701
 20
-25.166
 11
81.7807
 21
-23.1549
  0
LINE
  8
0
 10
81.7807
 20
-23.1549
 11
81.7072
 21
-23.4292
  0
LINE
  8
0
 10
81.7072
 20
-23.4292
 11
80.8398
 21
-26.2664
  0
LINE
  8
0
 10
80.8398
 20
-26.2664
 11
79.8739
 21
-29.0717
  0
LINE
  8
0
 10
79.8739
 20
-29.0717
 11
79.7721
 21
-29.3368
  0
LINE
  8
0
 10
79.7721
 20
-29.3368
 11
85.9615
 21
-31.3478
  0
LINE
  8
0
 10
85.9615
 20
-31.3478
 11
84.8373
 21
-34.2765
  0
LINE
  8
0
 10
84.8373
 20
-34.2765
 11
83.5894
 21
-37.2164
  0
LINE
  8
0
 10
83.5894
 20
-37.2164
 11
82.2397
 21
-40.111
  0
LINE
  8
0
 10
82.2397
 20
-40.111
 11
80.7897
 21
-42.9566
  0
LINE
  8
0
 10
80.7897
 20
-42.9566
 11
79.2413
 21
-45.75
  0
LINE
  8
0
 10
79.2413
 20
-45.75
 11
77.5964
 21
-48.4876
  0
LINE
  8
0
 10
77.5964
 20
-48.4876
 11
75.8569
 21
-51.1662
  0
LINE
  8
0
 10
75.8569
 20
-51.1662
 11
74.0251
 21
-53.7824
  0
LINE
  8
0
 10
74.0251
 20
-53.7824
 11
72.103
 21
-56.333
  0
LINE
  8
0
 10
72.103
 20
-56.333
 11
70.0931
 21
-58.8151
  0
LINE
  8
0
 10
70.0931
 20
-58.8151
 11
67.9978
 21
-61.2254
  0
LINE
  8
0
 10
67.9978
 20
-61.2254
 11
65.8196
 21
-63.5612
  0
LINE
  8
0
 10
65.8196
 20
-63.5612
 11
63.5612
 21
-65.8196
  0
LINE
  8
0
 10
63.5612
 20
-65.8196
 11
61.2254
 21
-67.9978
  0
LINE
  8
0
 10
61.2254
 20
-67.9978
 11
58.8151
 21
-70.0931
  0
LINE
  8
0
 10
58.8151
 20
-70.0931
 11
56.3771
 21
-72.0673
  0
LINE
  8
0
 10
56.3771
 20
-72.0673
 11
52.5519
 21
-66.8022
  0
LINE
  8
0
 10
52.5519
 20
-66.8022
 11
52.3312
 21
-66.9809
  0
LINE
  8
0
 10
52.3312
 20
-66.9809
 11
49.9617
 21
-68.7664
  0
LINE
  8
0
 10
49.9617
 20
-68.7664
 11
47.5314
 21
-70.4682
  0
LINE
  8
0
 10
47.5314
 20
-70.4682
 11
47.2933
 21
-70.6228
  0
LINE
  8
0
 10
47.2933
 20
-70.6228
 11
51.1185
 21
-75.8879
  0
LINE
  8
0
 10
51.1185
 20
-75.8879
 11
48.4876
 21
-77.5964
  0
LINE
  8
0
 10
48.4876
 20
-77.5964
 11
45.75
 21
-79.2413
  0
LINE
  8
0
 10
45.75
 20
-79.2413
 11
42.9566
 21
-80.7897
  0
LINE
  8
0
 10
42.9566
 20
-80.7897
 11
40.111
 21
-82.2397
  0
LINE
  8
0
 10
40.111
 20
-82.2397
 11
37.2164
 21
-83.5894
  0
LINE
  8
0
 10
37.2164
 20
-83.5894
 11
34.2765
 21
-84.8373
  0
LINE
  8
0
 10
34.2765
 20
-84.8373
 11
31.2948
 21
-85.9819
  0
LINE
  8
0
 10
31.2948
 20
-85.9819
 11
28.2751
 21
-87.0217
  0
LINE
  8
0
 10
28.2751
 20
-87.0217
 11
25.2208
 21
-87.9554
  0
LINE
  8
0
 10
25.2208
 20
-87.9554
 11
22.1359
 21
-88.7821
  0
LINE
  8
0
 10
22.1359
 20
-88.7821
 11
19.0239
 21
-89.5005
  0
LINE
  8
0
 10
19.0239
 20
-89.5005
 11
15.8888
 21
-90.1099
  0
LINE
  8
0
 10
15.8888
 20
-90.1099
 11
12.7343
 21
-90.6095
  0
LINE
  8
0
 10
12.7343
 20
-90.6095
 11
9.56435
 21
-90.9988
  0
LINE
  8
0
 10
9.56435
 20
-90.9988
 11
6.38272
 21
-91.2771
  0
LINE
  8
0
 10
6.38272
 20
-91.2771
 11
3.25
 21
-91.4413
  0
LINE
  8
0
 10
3.25
 20
-91.4413
 11
3.25
 21
-84.9334
  0
LINE
  8
0
 10
3.25
 20
-84.9334
 11
2.96646
 21
-84.9482
  0
LINE
  8
0
 10
2.96646
 20
-84.9482
 11
0
 21
-85
  0
LINE
  8
0
 10
0
 20
-85
 11
-2.96646
 21
-84.9482
  0
LINE
  8
0
 10
-2.96646
 20
-84.9482
 11
-3.25
 21
-84.9334
  0
LINE
  8
0
 10
-3.25
 20
-84.9334
 11
-3.25
 21
-91.4413
  0
LINE
  8
0
 10
-3.25
 20
-91.4413
 11
-6.38272
 21
-91.2771
  0
LINE
  8
0
 10
-6.38272
 20
-91.2771
 11
-9.56435
 21
-90.9988
  0
LINE
  8
0
 10
-9.56435
 20
-90.9988
 11
-12.7343
 21
-90.6095
  0
LINE
  8
0
 10
-12.7343
 20
-90.6095
 11
-15.8888
 21
-90.1099
  0
LINE
  8
0
 10
-15.8888
 20
-90.1099
 11
-19.0239
 21
-89.5005
  0
LINE
  8
0
 10
-19.0239
 20
-89.5005
 11
-22.1359
 21
-88.7821
  0
LINE
  8
0
 10
-22.1359
 20
-88.7821
 11
-25.2208
 21
-87.9554
  0
LINE
  8
0
 10
-25.2208
 20
-87.9554
 11
-28.2751
 21
-87.0217
  0
LINE
  8
0
 10
-28.2751
 20
-87.0217
 11
-31.2948
 21
-85.9819
  0
LINE
  8
0
 10
-31.2948
 20
-85.9819
 11
-34.2765
 21
-84.8373
  0
LINE
  8
0
 10
-34.2765
 20
-84.8373
 11
-37.2164
 21
-83.5894
  0
LINE
  8
0
 10
-37.2164
 20
-83.5894
 11
-40.111
 21
-82.2397
  0
LINE
  8
0
 10
-40.111
 20
-82.2397
 11
-42.9566
 21
-80.7897
  0
LINE
  8
0
 10
-42.9566
 20
-80.7897
 11
-45.75
 21
-79.2413
  0
LINE
  8
0
 10
-45.75
 20
-79.2413
 11
-48.4876
 21
-77.5964
  0
LINE
  8
0
 10
-48.4876
 20
-77.5964
 11
-51.1185
 21
-75.8879
  0
LINE
  8
0
 10
-51.1185
 20
-75.8879
 11
-47.2933
 21
-70.6228
  0
LINE
  8
0
 10
-47.2933
 20
-70.6228
 11
-47.5314
 21
-70.4682
  0
LINE
  8
0
 10
-47.5314
 20
-70.4682
 11
-49.9617
 21
-68.7664
  0
LINE
  8
0
 10
-49.9617
 20
-68.7664
 11
-52.3312
 21
-66.9809
  0
LINE
  8
0
 10
-52.3312
 20
-66.9809
 11
-52.5519
 21
-66.8022
  0
LINE
  8
0
 10
-52.5519
 20
-66.8022
 11
-56.3771
 21
-72.0673
  0
LINE
  8
0
 10
-56.3771
 20
-72.0673
 11
-58.8151
 21
-70.0931
  0
LINE
  8
0
 10
-58.8151
 20
-70.0931
 11
-61.2254
 21
-67.9978
  0
LINE
  8
0
 10
-61.2254
 20
-67.9978
 11
-63.5612
 21
-65.8196
  0
LINE
  8
0
 10
-63.5612
 20
-65.8196
 11
-65.8196
 21
-63.5612
  0
LINE
  8
0
 10
-65.8196
 20
-63.5612
 11
-67.9978
 21
-61.2254
  0
LINE
  8
0
 10
-67.9978
 20
-61.2254
 11
-70.0931
 21
-58.8151
  0
LINE
  8
0
 10
-70.0931
 20
-58.8151
 11
-72.103
 21
-56.333
  0
LINE
  8
0
 10
-72.103
 20
-56.333
 11
-74.0251
 21
-53.7824
  0
LINE
  8
0
 10
-74.0251
 20
-53.7824
 11
-75.8569
 21
-51.1662
  0
LINE
  8
0
 10
-75.8569
 20
-51.1662
 11
-77.5964
 21
-48.4876
  0
LINE
  8
0
 10
-77.5964
 20
-48.4876
 11
-79.2413
 21
-45.75
  0
LINE
  8
0
 10
-79.2413
 20
-45.75
 11
-80.7897
 21
-42.9566
  0
LINE
  8
0
 10
-80.7897
 20
-42.9566
 11
-82.2397
 21
-40.111
  0
LINE
  8
0
 10
-82.2397
 20
-40.111
 11
-83.5894
 21
-37.2164
  0
LINE
  8
0
 10
-83.5894
 20
-37.2164
 11
-84.8373
 21
-34.2765
  0
LINE
  8
0
 10
-84.8373
 20
-34.2765
 11
-85.9615
 21
-31.3478
  0
LINE
  8
0
 10
-85.9615
 20
-31.3478
 11
-79.7721
 21
-29.3368
  0
LINE
  8
0
 10
-79.7721
 20
-29.3368
 11
-79.8739
 21
-29.0717
  0
LINE
  8
0
 10
-79.8739
 20
-29.0717
 11
-80.8398
 21
-26.2664
  0
LINE
  8
0
 10
-80.8398
 20
-26.2664
 11
-81.7072
 21
-23.4292
  0
LINE
  8
0
 10
-81.7072
 20
-23.4292
 11
-81.7807
 21
-23.1549
  0
LINE
  8
0
 10
-81.7807
 20
-23.1549
 11
-87.9701
 21
-25.166
  0
LINE
  8
0
 10
-87.9701
 20
-25.166
 11
-88.7821
 21
-22.1359
  0
LINE
  8
0
 10
-88.7821
 20
-22.1359
 11
-89.5005
 21
-19.0239
  0
LINE
  8
0
 10
-89.5005
 20
-19.0239
 11
-90.1099
 21
-15.8888
  0
LINE
  8
0
 10
-90.1099
 20
-15.8888
 11
-90.6095
 21
-12.7343
  0
LINE
  8
0
 10
-90.6095
 20
-12.7343
 11
-90.9988
 21
-9.56435
  0
LINE
  8
0
 10
-90.9988
 20
-9.56435
 11
-91.2771
 21
-6.38272
  0
LINE
  8
0
 10
-91.2771
 20
-6.38272
 11
-91.4443
 21
-3.1933
  0
LINE
  8
0
 10
-91.4443
 20
-3.1933
 11
-91.5
 21
0
  0
LINE
  8
0
 10
-53.7824
 20
-74.025
 11
-53.7823
 21
-74.0251
  0
LINE
  8
0
 10
-53.7823
 20
-74.0251
 11
-53.7824
 21
-74.0251
  0
LINE
  8
0
 10
-53.7824
 20
-74.0251
 11
-53.7824
 21
-74.025
  0
LINE
  8
0
 10
-53.7824
 20
74.025
 11
-53.7824
 21
74.0251
  0
LINE
  8
0
 10
-53.7824
 20
74.0251
 11
-53.7823
 21
74.0251
  0
LINE
  8
0
 10
-53.7823
 20
74.0251
 11
-53.7824
 21
74.025
  0
LINE
  8
0
 10
-16.5
 20
133.5
 11
-16.4991
 21
133.552
  0
LINE
  8
0
 10
-16.4991
 20
133.552
 11
-16.4963
 21
133.605
  0
LINE
  8
0
 10
-16.4963
 20
133.605
 11
-16.4918
 21
133.657
  0
LINE
  8
0
 10
-16.4918
 20
133.657
 11
-16.4854
 21
133.709
  0
LINE
  8
0
 10
-16.4854
 20
133.709
 11
-16.4772
 21
133.76
  0
LINE
  8
0
 10
-16.4772
 20
133.76
 11
-16.4672
 21
133.812
  0
LINE
  8
0
 10
-16.4672
 20
133.812
 11
-16.4554
 21
133.863
  0
LINE
  8
0
 10
-16.4554
 20
133.863
 11
-16.4419
 21
133.913
  0
LINE
  8
0
 10
-16.4419
 20
133.913
 11
-16.4266
 21
133.964
  0
LINE
  8
0
 10
-16.4266
 20
133.964
 11
-16.4095
 21
134.013
  0
LINE
  8
0
 10
-16.4095
 20
134.013
 11
-16.3908
 21
134.062
  0
LINE
  8
0
 10
-16.3908
 20
134.062
 11
-16.3703
 21
134.11
  0
LINE
  8
0
 10
-16.3703
 20
134.11
 11
-16.3482
 21
134.158
  0
LINE
  8
0
 10
-16.3482
 20
134.158
 11
-16.3244
 21
134.204
  0
LINE
  8
0
 10
-16.3244
 20
134.204
 11
-16.299
 21
134.25
  0
LINE
  8
0
 10
-16.299
 20
134.25
 11
-16.2721
 21
134.295
  0
LINE
  8
0
 10
-16.2721
 20
134.295
 11
-16.2436
 21
134.339
  0
LINE
  8
0
 10
-16.2436
 20
134.339
 11
-16.2135
 21
134.382
  0
LINE
  8
0
 10
-16.2135
 20
134.382
 11
-16.182
 21
134.423
  0
LINE
  8
0
 10
-16.182
 20
134.423
 11
-16.1491
 21
134.464
  0
LINE
  8
0
 10
-16.1491
 20
134.464
 11
-16.1147
 21
134.504
  0
LINE
  8
0
 10
-16.1147
 20
134.504
 11
-16.079
 21
134.542
  0
LINE
  8
0
 10
-16.079
 20
134.542
 11
-16.042
 21
134.579
  0
LINE
  8
0
 10
-16.042
 20
134.579
 11
-16.0037
 21
134.615
  0
LINE
  8
0
 10
-16.0037
 20
134.615
 11
-15.9642
 21
134.649
  0
LINE
  8
0
 10
-15.9642
 20
134.649
 11
-15.9235
 21
134.682
  0
LINE
  8
0
 10
-15.9235
 20
134.682
 11
-15.8817
 21
134.714
  0
LINE
  8
0
 10
-15.8817
 20
134.714
 11
-15.8388
 21
134.744
  0
LINE
  8
0
 10
-15.8388
 20
134.744
 11
-15.7949
 21
134.772
  0
LINE
  8
0
 10
-15.7949
 20
134.772
 11
-15.75
 21
134.799
  0
LINE
  8
0
 10
-15.75
 20
134.799
 11
-15.7042
 21
134.824
  0
LINE
  8
0
 10
-15.7042
 20
134.824
 11
-15.6576
 21
134.848
  0
LINE
  8
0
 10
-15.6576
 20
134.848
 11
-15.6101
 21
134.87
  0
LINE
  8
0
 10
-15.6101
 20
134.87
 11
-15.5619
 21
134.891
  0
LINE
  8
0
 10
-15.5619
 20
134.891
 11
-15.513
 21
134.91
  0
LINE
  8
0
 10
-15.513
 20
134.91
 11
-15.4635
 21
134.927
  0
LINE
  8
0
 10
-15.4635
 20
134.927
 11
-15.4135
 21
134.942
  0
LINE
  8
0
 10
-15.4135
 20
134.942
 11
-15.3629
 21
134.955
  0
LINE
  8
0
 10
-15.3629
 20
134.955
 11
-15.3119
 21
134.967
  0
LINE
  8
0
 10
-15.3119
 20
134.967
 11
-15.2605
 21
134.977
  0
LINE
  8
0
 10
-15.2605
 20
134.977
 11
-15.2088
 21
134.985
  0
LINE
  8
0
 10
-15.2088
 20
134.985
 11
-15.1568
 21
134.992
  0
LINE
  8
0
 10
-15.1568
 20
134.992
 11
-15.1046
 21
134.996
  0
LINE
  8
0
 10
-15.1046
 20
134.996
 11
-15.0523
 21
134.999
  0
LINE
  8
0
 10
-15.0523
 20
134.999
 11
-15
 21
135
  0
LINE
  8
0
 10
-15
 20
135
 11
-14.9476
 21
134.999
  0
LINE
  8
0
 10
-14.9476
 20
134.999
 11
-14.8954
 21
134.996
  0
LINE
  8
0
 10
-14.8954
 20
134.996
 11
-14.8432
 21
134.992
  0
LINE
  8
0
 10
-14.8432
 20
134.992
 11
-14.7912
 21
134.985
  0
LINE
  8
0
 10
-14.7912
 20
134.985
 11
-14.7395
 21
134.977
  0
LINE
  8
0
 10
-14.7395
 20
134.977
 11
-14.6881
 21
134.967
  0
LINE
  8
0
 10
-14.6881
 20
134.967
 11
-14.6371
 21
134.955
  0
LINE
  8
0
 10
-14.6371
 20
134.955
 11
-14.5865
 21
134.942
  0
LINE
  8
0
 10
-14.5865
 20
134.942
 11
-14.5365
 21
134.927
  0
LINE
  8
0
 10
-14.5365
 20
134.927
 11
-14.487
 21
134.91
  0
LINE
  8
0
 10
-14.487
 20
134.91
 11
-14.4381
 21
134.891
  0
LINE
  8
0
 10
-14.4381
 20
134.891
 11
-14.3899
 21
134.87
  0
LINE
  8
0
 10
-14.3899
 20
134.87
 11
-14.3424
 21
134.848
  0
LINE
  8
0
 10
-14.3424
 20
134.848
 11
-14.2958
 21
134.824
  0
LINE
  8
0
 10
-14.2958
 20
134.824
 11
-14.25
 21
134.799
  0
LINE
  8
0
 10
-14.25
 20
134.799
 11
-14.2051
 21
134.772
  0
LINE
  8
0
 10
-14.2051
 20
134.772
 11
-14.1612
 21
134.744
  0
LINE
  8
0
 10
-14.1612
 20
134.744
 11
-14.1183
 21
134.714
  0
LINE
  8
0
 10
-14.1183
 20
134.714
 11
-14.0765
 21
134.682
  0
LINE
  8
0
 10
-14.0765
 20
134.682
 11
-14.0358
 21
134.649
  0
LINE
  8
0
 10
-14.0358
 20
134.649
 11
-13.9963
 21
134.615
  0
LINE
  8
0
 10
-13.9963
 20
134.615
 11
-13.958
 21
134.579
  0
LINE
  8
0
 10
-13.958
 20
134.579
 11
-13.921
 21
134.542
  0
LINE
  8
0
 10
-13.921
 20
134.542
 11
-13.8853
 21
134.504
  0
LINE
  8
0
 10
-13.8853
 20
134.504
 11
-13.8509
 21
134.464
  0
LINE
  8
0
 10
-13.8509
 20
134.464
 11
-13.818
 21
134.423
  0
LINE
  8
0
 10
-13.818
 20
134.423
 11
-13.7865
 21
134.382
  0
LINE
  8
0
 10
-13.7865
 20
134.382
 11
-13.7564
 21
134.339
  0
LINE
  8
0
 10
-13.7564
 20
134.339
 11
-13.7279
 21
134.295
  0
LINE
  8
0
 10
-13.7279
 20
134.295
 11
-13.701
 21
134.25
  0
LINE
  8
0
 10
-13.701
 20
134.25
 11
-13.6756
 21
134.204
  0
LINE
  8
0
 10
-13.6756
 20
134.204
 11
-13.6518
 21
134.158
  0
LINE
  8
0
 10
-13.6518
 20
134.158
 11
-13.6297
 21
134.11
  0
LINE
  8
0
 10
-13.6297
 20
134.11
 11
-13.6092
 21
134.062
  0
LINE
  8
0
 10
-13.6092
 20
134.062
 11
-13.5905
 21
134.013
  0
LINE
  8
0
 10
-13.5905
 20
134.013
 11
-13.5734
 21
133.964
  0
LINE
  8
0
 10
-13.5734
 20
133.964
 11
-13.5581
 21
133.913
  0
LINE
  8
0
 10
-13.5581
 20
133.913
 11
-13.5446
 21
133.863
  0
LINE
  8
0
 10
-13.5446
 20
133.863
 11
-13.5328
 21
133.812
  0
LINE
  8
0
 10
-13.5328
 20
133.812
 11
-13.5228
 21
133.76
  0
LINE
  8
0
 10
-13.5228
 20
133.76
 11
-13.5146
 21
133.709
  0
LINE
  8
0
 10
-13.5146
 20
133.709
 11
-13.5082
 21
133.657
  0
LINE
  8
0
 10
-13.5082
 20
133.657
 11
-13.5037
 21
133.605
  0
LINE
  8
0
 10
-13.5037
 20
133.605
 11
-13.5009
 21
133.552
  0
LINE
  8
0
 10
-13.5009
 20
133.552
 11
-13.5
 21
133.5
  0
LINE
  8
0
 10
-13.5
 20
133.5
 11
-13.5009
 21
133.448
  0
LINE
  8
0
 10
-13.5009
 20
133.448
 11
-13.5037
 21
133.395
  0
LINE
  8
0
 10
-13.5037
 20
133.395
 11
-13.5082
 21
133.343
  0
LINE
  8
0
 10
-13.5082
 20
133.343
 11
-13.5146
 21
133.291
  0
LINE
  8
0
 10
-13.5146
 20
133.291
 11
-13.5228
 21
133.24
  0
LINE
  8
0
 10
-13.5228
 20
133.24
 11
-13.5328
 21
133.188
  0
LINE
  8
0
 10
-13.5328
 20
133.188
 11
-13.5446
 21
133.137
  0
LINE
  8
0
 10
-13.5446
 20
133.137
 11
-13.5581
 21
133.087
  0
LINE
  8
0
 10
-13.5581
 20
133.087
 11
-13.5734
 21
133.036
  0
LINE
  8
0
 10
-13.5734
 20
133.036
 11
-13.5905
 21
132.987
  0
LINE
  8
0
 10
-13.5905
 20
132.987
 11
-13.6092
 21
132.938
  0
LINE
  8
0
 10
-13.6092
 20
132.938
 11
-13.6297
 21
132.89
  0
LINE
  8
0
 10
-13.6297
 20
132.89
 11
-13.6518
 21
132.842
  0
LINE
  8
0
 10
-13.6518
 20
132.842
 11
-13.6756
 21
132.796
  0
LINE
  8
0
 10
-13.6756
 20
132.796
 11
-13.701
 21
132.75
  0
LINE
  8
0
 10
-13.701
 20
132.75
 11
-13.7279
 21
132.705
  0
LINE
  8
0
 10
-13.7279
 20
132.705
 11
-13.7564
 21
132.661
  0
LINE
  8
0
 10
-13.7564
 20
132.661
 11
-13.7865
 21
132.618
  0
LINE
  8
0
 10
-13.7865
 20
132.618
 11
-13.818
 21
132.577
  0
LINE
  8
0
 10
-13.818
 20
132.577
 11
-13.8509
 21
132.536
  0
LINE
  8
0
 10
-13.8509
 20
132.536
 11
-13.8853
 21
132.496
  0
LINE
  8
0
 10
-13.8853
 20
132.496
 11
-13.921
 21
132.458
  0
LINE
  8
0
 10
-13.921
 20
132.458
 11
-13.958
 21
132.421
  0
LINE
  8
0
 10
-13.958
 20
132.421
 11
-13.9963
 21
132.385
  0
LINE
  8
0
 10
-13.9963
 20
132.385
 11
-14.0358
 21
132.351
  0
LINE
  8
0
 10
-14.0358
 20
132.351
 11
-14.0765
 21
132.318
  0
LINE
  8
0
 10
-14.0765
 20
132.318
 11
-14.1183
 21
132.286
  0
LINE
  8
0
 10
-14.1183
 20
132.286
 11
-14.1612
 21
132.256
  0
LINE
  8
0
 10
-14.1612
 20
132.256
 11
-14.2051
 21
132.228
  0
LINE
  8
0
 10
-14.2051
 20
132.228
 11
-14.25
 21
132.201
  0
LINE
  8
0
 10
-14.25
 20
132.201
 11
-14.2958
 21
132.176
  0
LINE
  8
0
 10
-14.2958
 20
132.176
 11
-14.3424
 21
132.152
  0
LINE
  8
0
 10
-14.3424
 20
132.152
 11
-14.3899
 21
132.13
  0
LINE
  8
0
 10
-14.3899
 20
132.13
 11
-14.4381
 21
132.109
  0
LINE
  8
0
 10
-14.4381
 20
132.109
 11
-14.487
 21
132.09
  0
LINE
  8
0
 10
-14.487
 20
132.09
 11
-14.5365
 21
132.073
  0
LINE
  8
0
 10
-14.5365
 20
132.073
 11
-14.5865
 21
132.058
  0
LINE
  8
0
 10
-14.5865
 20
132.058
 11
-14.6371
 21
132.045
  0
LINE
  8
0
 10
-14.6371
 20
132.045
 11
-14.6881
 21
132.033
  0
LINE
  8
0
 10
-14.6881
 20
132.033
 11
-14.7395
 21
132.023
  0
LINE
  8
0
 10
-14.7395
 20
132.023
 11
-14.7912
 21
132.015
  0
LINE
  8
0
 10
-14.7912
 20
132.015
 11
-14.8432
 21
132.008
  0
LINE
  8
0
 10
-14.8432
 20
132.008
 11
-14.8954
 21
132.004
  0
LINE
  8
0
 10
-14.8954
 20
132.004
 11
-14.9476
 21
132.001
  0
LINE
  8
0
 10
-14.9476
 20
132.001
 11
-15
 21
132
  0
LINE
  8
0
 10
-15
 20
132
 11
-15.0523
 21
132.001
  0
LINE
  8
0
 10
-15.0523
 20
132.001
 11
-15.1046
 21
132.004
  0
LINE
  8
0
 10
-15.1046
 20
132.004
 11
-15.1568
 21
132.008
  0
LINE
  8
0
 10
-15.1568
 20
132.008
 11
-15.2088
 21
132.015
  0
LINE
  8
0
 10
-15.2088
 20
132.015
 11
-15.2605
 21
132.023
  0
LINE
  8
0
 10
-15.2605
 20
132.023
 11
-15.3119
 21
132.033
  0
LINE
  8
0
 10
-15.3119
 20
132.033
 11
-15.3629
 21
132.045
  0
LINE
  8
0
 10
-15.3629
 20
132.045
 11
-15.4135
 21
132.058
  0
LINE
  8
0
 10
-15.4135
 20
132.058
 11
-15.4635
 21
132.073
  0
LINE
  8
0
 10
-15.4635
 20
132.073
 11
-15.513
 21
132.09
  0
LINE
  8
0
 10
-15.513
 20
132.09
 11
-15.5619
 21
132.109
  0
LINE
  8
0
 10
-15.5619
 20
132.109
 11
-15.6101
 21
132.13
  0
LINE
  8
0
 10
-15.6101
 20
132.13
 11
-15.6576
 21
132.152
  0
LINE
  8
0
 10
-15.6576
 20
132.152
 11
-15.7042
 21
132.176
  0
LINE
  8
0
 10
-15.7042
 20
132.176
 11
-15.75
 21
132.201
  0
LINE
  8
0
 10
-15.75
 20
132.201
 11
-15.7949
 21
132.228
  0
LINE
  8
0
 10
-15.7949
 20
132.228
 11
-15.8388
 21
132.256
  0
LINE
  8
0
 10
-15.8388
 20
132.256
 11
-15.8817
 21
132.286
  0
LINE
  8
0
 10
-15.8817
 20
132.286
 11
-15.9235
 21
132.318
  0
LINE
  8
0
 10
-15.9235
 20
132.318
 11
-15.9642
 21
132.351
  0
LINE
  8
0
 10
-15.9642
 20
132.351
 11
-16.0037
 21
132.385
  0
LINE
  8
0
 10
-16.0037
 20
132.385
 11
-16.042
 21
132.421
  0
LINE
  8
0
 10
-16.042
 20
132.421
 11
-16.079
 21
132.458
  0
LINE
  8
0
 10
-16.079
 20
132.458
 11
-16.1147
 21
132.496
  0
LINE
  8
0
 10
-16.1147
 20
132.496
 11
-16.1491
 21
132.536
  0
LINE
  8
0
 10
-16.1491
 20
132.536
 11
-16.182
 21
132.577
  0
LINE
  8
0
 10
-16.182
 20
132.577
 11
-16.2135
 21
132.618
  0
LINE
  8
0
 10
-16.2135
 20
132.618
 11
-16.2436
 21
132.661
  0
LINE
  8
0
 10
-16.2436
 20
132.661
 11
-16.2721
 21
132.705
  0
LINE
  8
0
 10
-16.2721
 20
132.705
 11
-16.299
 21
132.75
  0
LINE
  8
0
 10
-16.299
 20
132.75
 11
-16.3244
 21
132.796
  0
LINE
  8
0
 10
-16.3244
 20
132.796
 11
-16.3482
 21
132.842
  0
LINE
  8
0
 10
-16.3482
 20
132.842
 11
-16.3703
 21
132.89
  0
LINE
  8
0
 10
-16.3703
 20
132.89
 11
-16.3908
 21
132.938
  0
LINE
  8
0
 10
-16.3908
 20
132.938
 11
-16.4095
 21
132.987
  0
LINE
  8
0
 10
-16.4095
 20
132.987
 11
-16.4266
 21
133.036
  0
LINE
  8
0
 10
-16.4266
 20
133.036
 11
-16.4419
 21
133.087
  0
LINE
  8
0
 10
-16.4419
 20
133.087
 11
-16.4554
 21
133.137
  0
LINE
  8
0
 10
-16.4554
 20
133.137
 11
-16.4672
 21
133.188
  0
LINE
  8
0
 10
-16.4672
 20
133.188
 11
-16.4772
 21
133.24
  0
LINE
  8
0
 10
-16.4772
 20
133.24
 11
-16.4854
 21
133.291
  0
LINE
  8
0
 10
-16.4854
 20
133.291
 11
-16.4918
 21
133.343
  0
LINE
  8
0
 10
-16.4918
 20
133.343
 11
-16.4963
 21
133.395
  0
LINE
  8
0
 10
-16.4963
 20
133.395
 11
-16.4991
 21
133.448
  0
LINE
  8
0
 10
-16.4991
 20
133.448
 11
-16.5
 21
133.5
  0
LINE
  8
0
 10
13.5
 20
133.5
 11
13.5009
 21
133.552
  0
LINE
  8
0
 10
13.5009
 20
133.552
 11
13.5037
 21
133.605
  0
LINE
  8
0
 10
13.5037
 20
133.605
 11
13.5082
 21
133.657
  0
LINE
  8
0
 10
13.5082
 20
133.657
 11
13.5146
 21
133.709
  0
LINE
  8
0
 10
13.5146
 20
133.709
 11
13.5228
 21
133.76
  0
LINE
  8
0
 10
13.5228
 20
133.76
 11
13.5328
 21
133.812
  0
LINE
  8
0
 10
13.5328
 20
133.812
 11
13.5446
 21
133.863
  0
LINE
  8
0
 10
13.5446
 20
133.863
 11
13.5581
 21
133.913
  0
LINE
  8
0
 10
13.5581
 20
133.913
 11
13.5734
 21
133.964
  0
LINE
  8
0
 10
13.5734
 20
133.964
 11
13.5905
 21
134.013
  0
LINE
  8
0
 10
13.5905
 20
134.013
 11
13.6092
 21
134.062
  0
LINE
  8
0
 10
13.6092
 20
134.062
 11
13.6297
 21
134.11
  0
LINE
  8
0
 10
13.6297
 20
134.11
 11
13.6518
 21
134.158
  0
LINE
  8
0
 10
13.6518
 20
134.158
 11
13.6756
 21
134.204
  0
LINE
  8
0
 10
13.6756
 20
134.204
 11
13.701
 21
134.25
  0
LINE
  8
0
 10
13.701
 20
134.25
 11
13.7279
 21
134.295
  0
LINE
  8
0
 10
13.7279
 20
134.295
 11
13.7564
 21
134.339
  0
LINE
  8
0
 10
13.7564
 20
134.339
 11
13.7865
 21
134.382
  0
LINE
  8
0
 10
13.7865
 20
134.382
 11
13.818
 21
134.423
  0
LINE
  8
0
 10
13.818
 20
134.423
 11
13.8509
 21
134.464
  0
LINE
  8
0
 10
13.8509
 20
134.464
 11
13.8853
 21
134.504
  0
LINE
  8
0
 10
13.8853
 20
134.504
 11
13.921
 21
134.542
  0
LINE
  8
0
 10
13.921
 20
134.542
 11
13.958
 21
134.579
  0
LINE
  8
0
 10
13.958
 20
134.579
 11
13.9963
 21
134.615
  0
LINE
  8
0
 10
13.9963
 20
134.615
 11
14.0358
 21
134.649
  0
LINE
  8
0
 10
14.0358
 20
134.649
 11
14.0765
 21
134.682
  0
LINE
  8
0
 10
14.0765
 20
134.682
 11
14.1183
 21
134.714
  0
LINE
  8
0
 10
14.1183
 20
134.714
 11
14.1612
 21
134.744
  0
LINE
  8
0
 10
14.1612
 20
134.744
 11
14.2051
 21
134.772
  0
LINE
  8
0
 10
14.2051
 20
134.772
 11
14.25
 21
134.799
  0
LINE
  8
0
 10
14.25
 20
134.799
 11
14.2958
 21
134.824
  0
LINE
  8
0
 10
14.2958
 20
134.824
 11
14.3424
 21
134.848
  0
LINE
  8
0
 10
14.3424
 20
134.848
 11
14.3899
 21
134.87
  0
LINE
  8
0
 10
14.3899
 20
134.87
 11
14.4381
 21
134.891
  0
LINE
  8
0
 10
14.4381
 20
134.891
 11
14.487
 21
134.91
  0
LINE
  8
0
 10
14.487
 20
134.91
 11
14.5365
 21
134.927
  0
LINE
  8
0
 10
14.5365
 20
134.927
 11
14.5865
 21
134.942
  0
LINE
  8
0
 10
14.5865
 20
134.942
 11
14.6371
 21
134.955
  0
LINE
  8
0
 10
14.6371
 20
134.955
 11
14.6881
 21
134.967
  0
LINE
  8
0
 10
14.6881
 20
134.967
 11
14.7395
 21
134.977
  0
LINE
  8
0
 10
14.7395
 20
134.977
 11
14.7912
 21
134.985
  0
LINE
  8
0
 10
14.7912
 20
134.985
 11
14.8432
 21
134.992
  0
LINE
  8
0
 10
14.8432
 20
134.992
 11
14.8954
 21
134.996
  0
LINE
  8
0
 10
14.8954
 20
134.996
 11
14.9476
 21
134.999
  0
LINE
  8
0
 10
14.9476
 20
134.999
 11
15
 21
135
  0
LINE
  8
0
 10
15
 20
135
 11
15.0523
 21
134.999
  0
LINE
  8
0
 10
15.0523
 20
134.999
 11
15.1046
 21
134.996
  0
LINE
  8
0
 10
15.1046
 20
134.996
 11
15.1568
 21
134.992
  0
LINE
  8
0
 10
15.1568
 20
134.992
 11
15.2088
 21
134.985
  0
LINE
  8
0
 10
15.2088
 20
134.985
 11
15.2605
 21
134.977
  0
LINE
  8
0
 10
15.2605
 20
134.977
 11
15.3119
 21
134.967
  0
LINE
  8
0
 10
15.3119
 20
134.967
 11
15.3629
 21
134.955
  0
LINE
  8
0
 10
15.3629
 20
134.955
 11
15.4135
 21
134.942
  0
LINE
  8
0
 10
15.4135
 20
134.942
 11
15.4635
 21
134.927
  0
LINE
  8
0
 10
15.4635
 20
134.927
 11
15.513
 21
134.91
  0
LINE
  8
0
 10
15.513
 20
134.91
 11
15.5619
 21
134.891
  0
LINE
  8
0
 10
15.5619
 20
134.891
 11
15.6101
 21
134.87
  0
LINE
  8
0
 10
15.6101
 20
134.87
 11
15.6576
 21
134.848
  0
LINE
  8
0
 10
15.6576
 20
134.848
 11
15.7042
 21
134.824
  0
LINE
  8
0
 10
15.7042
 20
134.824
 11
15.75
 21
134.799
  0
LINE
  8
0
 10
15.75
 20
134.799
 11
15.7949
 21
134.772
  0
LINE
  8
0
 10
15.7949
 20
134.772
 11
15.8388
 21
134.744
  0
LINE
  8
0
 10
15.8388
 20
134.744
 11
15.8817
 21
134.714
  0
LINE
  8
0
 10
15.8817
 20
134.714
 11
15.9235
 21
134.682
  0
LINE
  8
0
 10
15.9235
 20
134.682
 11
15.9642
 21
134.649
  0
LINE
  8
0
 10
15.9642
 20
134.649
 11
16.0037
 21
134.615
  0
LINE
  8
0
 10
16.0037
 20
134.615
 11
16.042
 21
134.579
  0
LINE
  8
0
 10
16.042
 20
134.579
 11
16.079
 21
134.542
  0
LINE
  8
0
 10
16.079
 20
134.542
 11
16.1147
 21
134.504
  0
LINE
  8
0
 10
16.1147
 20
134.504
 11
16.1491
 21
134.464
  0
LINE
  8
0
 10
16.1491
 20
134.464
 11
16.182
 21
134.423
  0
LINE
  8
0
 10
16.182
 20
134.423
 11
16.2135
 21
134.382
  0
LINE
  8
0
 10
16.2135
 20
134.382
 11
16.2436
 21
134.339
  0
LINE
  8
0
 10
16.2436
 20
134.339
 11
16.2721
 21
134.295
  0
LINE
  8
0
 10
16.2721
 20
134.295
 11
16.299
 21
134.25
  0
LINE
  8
0
 10
16.299
 20
134.25
 11
16.3244
 21
134.204
  0
LINE
  8
0
 10
16.3244
 20
134.204
 11
16.3482
 21
134.158
  0
LINE
  8
0
 10
16.3482
 20
134.158
 11
16.3703
 21
134.11
  0
LINE
  8
0
 10
16.3703
 20
134.11
 11
16.3908
 21
134.062
  0
LINE
  8
0
 10
16.3908
 20
134.062
 11
16.4095
 21
134.013
  0
LINE
  8
0
 10
16.4095
 20
134.013
 11
16.4266
 21
133.964
  0
LINE
  8
0
 10
16.4266
 20
133.964
 11
16.4419
 21
133.913
  0
LINE
  8
0
 10
16.4419
 20
133.913
 11
16.4554
 21
133.863
  0
LINE
  8
0
 10
16.4554
 20
133.863
 11
16.4672
 21
133.812
  0
LINE
  8
0
 10
16.4672
 20
133.812
 11
16.4772
 21
133.76
  0
LINE
  8
0
 10
16.4772
 20
133.76
 11
16.4854
 21
133.709
  0
LINE
  8
0
 10
16.4854
 20
133.709
 11
16.4918
 21
133.657
  0
LINE
  8
0
 10
16.4918
 20
133.657
 11
16.4963
 21
133.605
  0
LINE
  8
0
 10
16.4963
 20
133.605
 11
16.4991
 21
133.552
  0
LINE
  8
0
 10
16.4991
 20
133.552
 11
16.5
 21
133.5
  0
LINE
  8
0
 10
16.5
 20
133.5
 11
16.4991
 21
133.448
  0
LINE
  8
0
 10
16.4991
 20
133.448
 11
16.4963
 21
133.395
  0
LINE
  8
0
 10
16.4963
 20
133.395
 11
16.4918
 21
133.343
  0
LINE
  8
0
 10
16.4918
 20
133.343
 11
16.4854
 21
133.291
  0
LINE
  8
0
 10
16.4854
 20
133.291
 11
16.4772
 21
133.24
  0
LINE
  8
0
 10
16.4772
 20
133.24
 11
16.4672
 21
133.188
  0
LINE
  8
0
 10
16.4672
 20
133.188
 11
16.4554
 21
133.137
  0
LINE
  8
0
 10
16.4554
 20
133.137
 11
16.4419
 21
133.087
  0
LINE
  8
0
 10
16.4419
 20
133.087
 11
16.4266
 21
133.036
  0
LINE
  8
0
 10
16.4266
 20
133.036
 11
16.4095
 21
132.987
  0
LINE
  8
0
 10
16.4095
 20
132.987
 11
16.3908
 21
132.938
  0
LINE
  8
0
 10
16.3908
 20
132.938
 11
16.3703
 21
132.89
  0
LINE
  8
0
 10
16.3703
 20
132.89
 11
16.3482
 21
132.842
  0
LINE
  8
0
 10
16.3482
 20
132.842
 11
16.3244
 21
132.796
  0
LINE
  8
0
 10
16.3244
 20
132.796
 11
16.299
 21
132.75
  0
LINE
  8
0
 10
16.299
 20
132.75
 11
16.2721
 21
132.705
  0
LINE
  8
0
 10
16.2721
 20
132.705
 11
16.2436
 21
132.661
  0
LINE
  8
0
 10
16.2436
 20
132.661
 11
16.2135
 21
132.618
  0
LINE
  8
0
 10
16.2135
 20
132.618
 11
16.182
 21
132.577
  0
LINE
  8
0
 10
16.182
 20
132.577
 11
16.1491
 21
132.536
  0
LINE
  8
0
 10
16.1491
 20
132.536
 11
16.1147
 21
132.496
  0
LINE
  8
0
 10
16.1147
 20
132.496
 11
16.079
 21
132.458
  0
LINE
  8
0
 10
16.079
 20
132.458
 11
16.042
 21
132.421
  0
LINE
  8
0
 10
16.042
 20
132.421
 11
16.0037
 21
132.385
  0
LINE
  8
0
 10
16.0037
 20
132.385
 11
15.9642
 21
132.351
  0
LINE
  8
0
 10
15.9642
 20
132.351
 11
15.9235
 21
132.318
  0
LINE
  8
0
 10
15.9235
 20
132.318
 11
15.8817
 21
132.286
  0
LINE
  8
0
 10
15.8817
 20
132.286
 11
15.8388
 21
132.256
  0
LINE
  8
0
 10
15.8388
 20
132.256
 11
15.7949
 21
132.228
  0
LINE
  8
0
 10
15.7949
 20
132.228
 11
15.75
 21
132.201
  0
LINE
  8
0
 10
15.75
 20
132.201
 11
15.7042
 21
132.176
  0
LINE
  8
0
 10
15.7042
 20
132.176
 11
15.6576
 21
132.152
  0
LINE
  8
0
 10
15.6576
 20
132.152
 11
15.6101
 21
132.13
  0
LINE
  8
0
 10
15.6101
 20
132.13
 11
15.5619
 21
132.109
  0
LINE
  8
0
 10
15.5619
 20
132.109
 11
15.513
 21
132.09
  0
LINE
  8
0
 10
15.513
 20
132.09
 11
15.4635
 21
132.073
  0
LINE
  8
0
 10
15.4635
 20
132.073
 11
15.4135
 21
132.058
  0
LINE
  8
0
 10
15.4135
 20
132.058
 11
15.3629
 21
132.045
  0
LINE
  8
0
 10
15.3629
 20
132.045
 11
15.3119
 21
132.033
  0
LINE
  8
0
 10
15.3119
 20
132.033
 11
15.2605
 21
132.023
  0
LINE
  8
0
 10
15.2605
 20
132.023
 11
15.2088
 21
132.015
  0
LINE
  8
0
 10
15.2088
 20
132.015
 11
15.1568
 21
132.008
  0
LINE
  8
0
 10
15.1568
 20
132.008
 11
15.1046
 21
132.004
  0
LINE
  8
0
 10
15.1046
 20
132.004
 11
15.0523
 21
132.001
  0
LINE
  8
0
 10
15.0523
 20
132.001
 11
15
 21
132
  0
LINE
  8
0
 10
15
 20
132
 11
14.9476
 21
132.001
  0
LINE
  8
0
 10
14.9476
 20
132.001
 11
14.8954
 21
132.004
  0
LINE
  8
0
 10
14.8954
 20
132.004
 11
14.8432
 21
132.008
  0
LINE
  8
0
 10
14.8432
 20
132.008
 11
14.7912
 21
132.015
  0
LINE
  8
0
 10
14.7912
 20
132.015
 11
14.7395
 21
132.023
  0
LINE
  8
0
 10
14.7395
 20
132.023
 11
14.6881
 21
132.033
  0
LINE
  8
0
 10
14.6881
 20
132.033
 11
14.6371
 21
132.045
  0
LINE
  8
0
 10
14.6371
 20
132.045
 11
14.5865
 21
132.058
  0
LINE
  8
0
 10
14.5865
 20
132.058
 11
14.5365
 21
132.073
  0
LINE
  8
0
 10
14.5365
 20
132.073
 11
14.487
 21
132.09
  0
LINE
  8
0
 10
14.487
 20
132.09
 11
14.4381
 21
132.109
  0
LINE
  8
0
 10
14.4381
 20
132.109
 11
14.3899
 21
132.13
  0
LINE
  8
0
 10
14.3899
 20
132.13
 11
14.3424
 21
132.152
  0
LINE
  8
0
 10
14.3424
 20
132.152
 11
14.2958
 21
132.176
  0
LINE
  8
0
 10
14.2958
 20
132.176
 11
14.25
 21
132.201
  0
LINE
  8
0
 10
14.25
 20
132.201
 11
14.2051
 21
132.228
  0
LINE
  8
0
 10
14.2051
 20
132.228
 11
14.1612
 21
132.256
  0
LINE
  8
0
 10
14.1612
 20
132.256
 11
14.1183
 21
132.286
  0
LINE
  8
0
 10
14.1183
 20
132.286
 11
14.0765
 21
132.318
  0
LINE
  8
0
 10
14.0765
 20
132.318
 11
14.0358
 21
132.351
  0
LINE
  8
0
 10
14.0358
 20
132.351
 11
13.9963
 21
132.385
  0
LINE
  8
0
 10
13.9963
 20
132.385
 11
13.958
 21
132.421
  0
LINE
  8
0
 10
13.958
 20
132.421
 11
13.921
 21
132.458
  0
LINE
  8
0
 10
13.921
 20
132.458
 11
13.8853
 21
132.496
  0
LINE
  8
0
 10
13.8853
 20
132.496
 11
13.8509
 21
132.536
  0
LINE
  8
0
 10
13.8509
 20
132.536
 11
13.818
 21
132.577
  0
LINE
  8
0
 10
13.818
 20
132.577
 11
13.7865
 21
132.618
  0
LINE
  8
0
 10
13.7865
 20
132.618
 11
13.7564
 21
132.661
  0
LINE
  8
0
 10
13.7564
 20
132.661
 11
13.7279
 21
132.705
  0
LINE
  8
0
 10
13.7279
 20
132.705
 11
13.701
 21
132.75
  0
LINE
  8
0
 10
13.701
 20
132.75
 11
13.6756
 21
132.796
  0
LINE
  8
0
 10
13.6756
 20
132.796
 11
13.6518
 21
132.842
  0
LINE
  8
0
 10
13.6518
 20
132.842
 11
13.6297
 21
132.89
  0
LINE
  8
0
 10
13.6297
 20
132.89
 11
13.6092
 21
132.938
  0
LINE
  8
0
 10
13.6092
 20
132.938
 11
13.5905
 21
132.987
  0
LINE
  8
0
 10
13.5905
 20
132.987
 11
13.5734
 21
133.036
  0
LINE
  8
0
 10
13.5734
 20
133.036
 11
13.5581
 21
133.087
  0
LINE
  8
0
 10
13.5581
 20
133.087
 11
13.5446
 21
133.137
  0
LINE
  8
0
 10
13.5446
 20
133.137
 11
13.5328
 21
133.188
  0
LINE
  8
0
 10
13.5328
 20
133.188
 11
13.5228
 21
133.24
  0
LINE
  8
0
 10
13.5228
 20
133.24
 11
13.5146
 21
133.291
  0
LINE
  8
0
 10
13.5146
 20
133.291
 11
13.5082
 21
133.343
  0
LINE
  8
0
 10
13.5082
 20
133.343
 11
13.5037
 21
133.395
  0
LINE
  8
0
 10
13.5037
 20
133.395
 11
13.5009
 21
133.448
  0
LINE
  8
0
 10
13.5009
 20
133.448
 11
13.5
 21
133.5
  0
LINE
  8
0
 10
53.7823
 20
-74.0251
 11
53.7824
 21
-74.025
  0
LINE
  8
0
 10
53.7824
 20
-74.025
 11
53.7824
 21
-74.0251
  0
LINE
  8
0
 10
53.7824
 20
-74.0251
 11
53.7823
 21
-74.0251
  0
LINE
  8
0
 10
53.7823
 20
74.0251
 11
53.7824
 21
74.0251
  0
LINE
  8
0
 10
53.7824
 20
74.0251
 11
53.7824
 21
74.025
  0
LINE
  8
0
 10
53.7824
 20
74.025
 11
53.7823
 21
74.0251
  0
ENDSEC
  0
SECTION
  2
OBJECTS
  0
DICTIONARY
  0
ENDSEC
  0
EOF
