  0
SECTION
  2
HEADER
  9
$ACADVER
  1
AC1014
  9
$HANDSEED
  5
FFFF
  9
$MEASUREMENT
 70
     1
  0
ENDSEC
  0
SECTION
  2
TABLES
  0
TABLE
  2
VPORT
  5
8
330
0
100
AcDbSymbolTable
 70
     4
  0
VPORT
  5
2E
330
8
100
AcDbSymbolTableRecord
100
AcDbViewportTableRecord
  2
*ACTIVE
 70
     0
 10
0.0
 20
0.0
 11
1.0
 21
1.0
 12
210.0
 22
148.5
 13
0.0
 23
0.0
 14
10.0
 24
10.0
 15
10.0
 25
10.0
 16
0.0
 26
0.0
 36
1.0
 17
0.0
 27
0.0
 37
0.0
 40
341.0
 41
1.24
 42
50.0
 43
0.0
 44
0.0
 50
0.0
 51
0.0
 71
     0
 72
   100
 73
     1
 74
     3
 75
     0
 76
     0
 77
     0
 78
     0
  0
ENDTAB
  0
TABLE
  2
LTYPE
  5
5
330
0
100
AcDbSymbolTable
 70
     1
  0
LTYPE
  5
14
330
5
100
AcDbSymbolTableRecord
100
AcDbLinetypeTableRecord
  2
BYBLOCK
 70
     0
  3

 72
    65
 73
     0
 40
0.0
  0
LTYPE
  5
15
330
5
100
AcDbSymbolTableRecord
100
AcDbLinetypeTableRecord
  2
BYLAYER
 70
     0
  3

 72
    65
 73
     0
 40
0.0
  0
LTYPE
  5
16
330
5
100
AcDbSymbolTableRecord
100
AcDbLinetypeTableRecord
  2
CONTINUOUS
 70
     0
  3
Solid line
 72
    65
 73
     0
 40
0.0
  0
ENDTAB
  0
TABLE
  2
LAYER
  5
2
100
AcDbSymbolTable
 70
1
  0
LAYER
  5
50
100
AcDbSymbolTableRecord
100
AcDbLayerTableRecord
  2
0
 70
0
  6
CONTINUOUS
  0
ENDTAB
  0
TABLE
  2
STYLE
  5
3
330
0
100
AcDbSymbolTable
 70
     1
  0
STYLE
  5
11
330
3
100
AcDbSymbolTableRecord
100
AcDbTextStyleTableRecord
  2
STANDARD
 70
     0
 40
0.0
 41
1.0
 50
0.0
 71
     0
 42
2.5
  3
txt
  4

  0
ENDTAB
  0
TABLE
  2
VIEW
  5
6
330
0
100
AcDbSymbolTable
 70
     0
  0
ENDTAB
  0
TABLE
  2
UCS
  5
7
330
0
100
AcDbSymbolTable
 70
     0
  0
ENDTAB
  0
TABLE
  2
APPID
  5
9
330
0
100
AcDbSymbolTable
 70
     2
  0
APPID
  5
12
330
9
100
AcDbSymbolTableRecord
100
AcDbRegAppTableRecord
  2
ACAD
 70
     0
  0
ENDTAB
  0
TABLE
  2
DIMSTYLE
  5
A
330
0
100
AcDbSymbolTable
 70
     1
  0
DIMSTYLE
105
27
330
A
100
AcDbSymbolTableRecord
100
AcDbDimStyleTableRecord
  2
ISO-25
 70
     0
  3

  4

  5

  6

  7

 40
1.0
 41
2.5
 42
0.625
 43
3.75
 44
1.25
 45
0.0
 46
0.0
 47
0.0
 48
0.0
140
2.5
141
2.5
142
0.0
143
0.03937007874016
144
1.0
145
0.0
146
1.0
147
0.625
 71
     0
 72
     0
 73
     0
 74
     0
 75
     0
 76
     0
 77
     1
 78
     8
170
     0
171
     3
172
     1
173
     0
174
     0
175
     0
176
     0
177
     0
178
     0
270
     2
271
     2
272
     2
273
     2
274
     3
340
11
275
     0
280
     0
281
     0
282
     0
283
     0
284
     8
285
     0
286
     0
287
     3
288
     0
  0
ENDTAB
  0
TABLE
  2
BLOCK_RECORD
  5
1
330
0
100
AcDbSymbolTable
 70
     1
  0
BLOCK_RECORD
  5
1F
330
1
100
AcDbSymbolTableRecord
100
AcDbBlockTableRecord
  2
*MODEL_SPACE
  0
BLOCK_RECORD
  5
1B
330
1
100
AcDbSymbolTableRecord
100
AcDbBlockTableRecord
  2
*PAPER_SPACE
  0
ENDTAB
  0
ENDSEC
  0
SECTION
  2
BLOCKS
  0
BLOCK
  5
20
330
1F
100
AcDbEntity
  8
0
100
AcDbBlockBegin
  2
*MODEL_SPACE
 70
     0
 10
0.0
 20
0.0
 30
0.0
  3
*MODEL_SPACE
  1

  0
ENDBLK
  5
21
330
1F
100
AcDbEntity
  8
0
100
AcDbBlockEnd
  0
BLOCK
  5
1C
330
1B
100
AcDbEntity
 67
     1
  8
0
100
AcDbBlockBegin
  2
*PAPER_SPACE
  1

  0
ENDBLK
  5
1D
330
1B
100
AcDbEntity
 67
     1
  8
0
100
AcDbBlockEnd
  0
ENDSEC
  0
SECTION
  2
ENTITIES
  0
LWPOLYLINE
  5
100
100
AcDbEntity
  8
0
 62
7
100
AcDbPolyline
 90
123
 70
0
 10
-40.545722
 20
282.594824
 30
0.0
 10
-38.771234
 20
286.328784
 30
0.0
 10
-38.771234
 20
286.329016
 30
0.0
 10
-38.268634
 20
287.533598
 30
0.0
 10
-36.996031
 20
289.953343
 30
0.0
 10
-33.552007
 20
296.081392
 30
0.0
 10
-31.203114
 20
299.991050
 30
0.0
 10
-28.767935
 20
303.700246
 30
0.0
 10
-26.262787
 20
307.189231
 30
0.0
 10
-23.703989
 20
310.438256
 30
0.0
 10
-21.107860
 20
313.427575
 30
0.0
 10
-18.490719
 20
316.137436
 30
0.0
 10
-15.868883
 20
318.548094
 30
0.0
 10
-13.258671
 20
320.639798
 30
0.0
 10
-10.156511
 20
322.954264
 30
0.0
 10
-9.556511
 20
323.414805
 30
0.0
 10
-10.311087
 20
323.169563
 30
0.0
 10
-11.655340
 20
322.556683
 30
0.0
 10
-13.595125
 20
321.460039
 30
0.0
 10
-17.904791
 20
318.626934
 30
0.0
 10
-20.885065
 20
316.168753
 30
0.0
 10
-24.263686
 20
312.937435
 30
0.0
 10
-27.553758
 20
309.425331
 30
0.0
 10
-30.268383
 20
306.124794
 30
0.0
 10
-32.428194
 20
303.083200
 30
0.0
 10
-34.507426
 20
299.854165
 30
0.0
 10
-36.469297
 20
296.497633
 30
0.0
 10
-38.277023
 20
293.073544
 30
0.0
 10
-39.535937
 20
290.674323
 30
0.0
 10
-40.204295
 20
289.624280
 30
0.0
 10
-40.300987
 20
289.693248
 30
0.0
 10
-40.356785
 20
289.970960
 30
0.0
 10
-40.356676
 20
291.067157
 30
0.0
 10
-39.986506
 20
294.824433
 30
0.0
 10
-39.269469
 20
299.528773
 30
0.0
 10
-38.381247
 20
303.812844
 30
0.0
 10
-37.239129
 20
307.716057
 30
0.0
 10
-35.897152
 20
311.338283
 30
0.0
 10
-34.504057
 20
314.320363
 30
0.0
 10
-33.834821
 20
315.459112
 30
0.0
 10
-33.208583
 20
316.303139
 30
0.0
 10
-32.632334
 20
317.065686
 30
0.0
 10
-32.251007
 20
317.755430
 30
0.0
 10
-31.854842
 20
318.342703
 30
0.0
 10
-31.242935
 20
318.858882
 30
0.0
 10
-30.611326
 20
319.403990
 30
0.0
 10
-30.167775
 20
320.060819
 30
0.0
 10
-29.769672
 20
320.649110
 30
0.0
 10
-29.247327
 20
321.029438
 30
0.0
 10
-28.815937
 20
321.256083
 30
0.0
 10
-28.636511
 20
321.474885
 30
0.0
 10
-28.427629
 20
321.888963
 30
0.0
 10
-27.928113
 20
322.376917
 30
0.0
 10
-27.328658
 20
322.783522
 30
0.0
 10
-26.819959
 20
322.953551
 30
0.0
 10
-26.388002
 20
323.074075
 30
0.0
 10
-26.132943
 20
323.373551
 30
0.0
 10
-25.762164
 20
323.828038
 30
0.0
 10
-25.056700
 20
324.319206
 30
0.0
 10
-24.246970
 20
324.712547
 30
0.0
 10
-23.563391
 20
324.873551
 30
0.0
 10
-22.720922
 20
325.149118
 30
0.0
 10
-21.450935
 20
325.811651
 30
0.0
 10
-19.411750
 20
326.832732
 30
0.0
 10
-16.802610
 20
327.827920
 30
0.0
 10
-13.715475
 20
328.776003
 30
0.0
 10
-10.242308
 20
329.655770
 30
0.0
 10
-6.475069
 20
330.446011
 30
0.0
 10
-2.505720
 20
331.125514
 30
0.0
 10
1.573778
 20
331.673069
 30
0.0
 10
5.671465
 20
332.067465
 30
0.0
 10
9.542092
 20
332.300255
 30
0.0
 10
10.280841
 20
332.259238
 30
0.0
 10
10.483489
 20
332.115913
 30
0.0
 10
9.972364
 20
331.629012
 30
0.0
 10
8.743489
 20
330.735913
 30
0.0
 10
7.157183
 20
329.530874
 30
0.0
 10
5.634187
 20
328.147547
 30
0.0
 10
4.334868
 20
326.744266
 30
0.0
 10
3.419593
 20
325.479366
 30
0.0
 10
2.709665
 20
324.057294
 30
0.0
 10
2.126554
 20
322.269220
 30
0.0
 10
1.554490
 20
319.676083
 30
0.0
 10
0.877705
 20
315.838818
 30
0.0
 10
-0.260471
 20
309.683029
 30
0.0
 10
-0.810315
 20
307.507905
 30
0.0
 10
-1.417238
 20
305.766993
 30
0.0
 10
-2.133669
 20
304.334566
 30
0.0
 10
-3.012040
 20
303.084896
 30
0.0
 10
-4.104780
 20
301.892256
 30
0.0
 10
-5.464319
 20
300.630920
 30
0.0
 10
-9.793620
 20
296.945263
 30
0.0
 10
-13.575055
 20
294.234432
 30
0.0
 10
-14.897339
 20
293.490475
 30
0.0
 10
-16.339158
 20
292.916164
 30
0.0
 10
-17.878692
 20
292.481877
 30
0.0
 10
-19.494122
 20
292.157991
 30
0.0
 10
-22.865385
 20
291.722930
 30
0.0
 10
-26.278386
 20
291.374001
 30
0.0
 10
-29.558561
 20
290.874222
 30
0.0
 10
-31.094289
 20
290.493707
 30
0.0
 10
-32.531349
 20
289.986611
 30
0.0
 10
-33.847921
 20
289.323312
 30
0.0
 10
-35.022186
 20
288.474187
 30
0.0
 10
-36.032323
 20
287.409613
 30
0.0
 10
-36.856511
 20
286.099968
 30
0.0
 10
-39.301993
 20
281.228688
 30
0.0
 10
-39.389767
 20
280.655032
 30
0.0
 10
-38.944635
 20
279.994805
 30
0.0
 10
-38.781407
 20
279.186312
 30
0.0
 10
-38.944635
 20
278.377820
 30
0.0
 10
-39.389771
 20
277.717596
 30
0.0
 10
-40.049995
 20
277.272460
 30
0.0
 10
-40.858487
 20
277.109232
 30
0.0
 10
-41.666984
 20
277.272459
 30
0.0
 10
-42.327210
 20
277.717593
 30
0.0
 10
-42.772347
 20
278.377817
 30
0.0
 10
-42.935575
 20
279.186312
 30
0.0
 10
-42.772347
 20
279.994807
 30
0.0
 10
-42.327210
 20
280.655031
 30
0.0
 10
-41.666984
 20
281.100165
 30
0.0
 10
-40.858487
 20
281.263392
 30
0.0
 10
-40.545722
 20
282.594824
 30
0.0
  0
LWPOLYLINE
  5
101
100
AcDbEntity
  8
0
 62
7
100
AcDbPolyline
 90
18
 70
0
 10
-149.380632
 20
239.299464
 30
0.0
 10
-149.455967
 20
238.926313
 30
0.0
 10
-149.661413
 20
238.621593
 30
0.0
 10
-149.966130
 20
238.416144
 30
0.0
 10
-150.339280
 20
238.340808
 30
0.0
 10
-150.712431
 20
238.416144
 30
0.0
 10
-151.017151
 20
238.621593
 30
0.0
 10
-151.222600
 20
238.926313
 30
0.0
 10
-151.297936
 20
239.299464
 30
0.0
 10
-151.222600
 20
239.672615
 30
0.0
 10
-151.017151
 20
239.977335
 30
0.0
 10
-150.712431
 20
240.182784
 30
0.0
 10
-150.339280
 20
240.258120
 30
0.0
 10
-149.966130
 20
240.182784
 30
0.0
 10
-149.661413
 20
239.977335
 30
0.0
 10
-149.455967
 20
239.672615
 30
0.0
 10
-149.380632
 20
239.299464
 30
0.0
 10
-149.380632
 20
239.299464
 30
0.0
  0
LWPOLYLINE
  5
102
100
AcDbEntity
  8
0
 62
7
100
AcDbPolyline
 90
100
 70
0
 10
-148.253008
 20
239.271816
 30
0.0
 10
-148.416236
 20
238.463324
 30
0.0
 10
-148.861372
 20
237.803100
 30
0.0
 10
-149.521596
 20
237.357964
 30
0.0
 10
-150.330088
 20
237.194736
 30
0.0
 10
-151.138584
 20
237.357963
 30
0.0
 10
-151.798811
 20
237.803097
 30
0.0
 10
-152.243948
 20
238.463321
 30
0.0
 10
-152.407176
 20
239.271816
 30
0.0
 10
-152.247121
 20
240.098294
 30
0.0
 10
-151.804660
 20
240.806245
 30
0.0
 10
-151.136347
 20
241.319522
 30
0.0
 10
-150.298736
 20
241.561976
 30
0.0
 10
-147.706673
 20
243.950505
 30
0.0
 10
-145.814096
 20
245.845912
 30
0.0
 10
-144.694021
 20
246.737331
 30
0.0
 10
-142.622952
 20
248.433440
 30
0.0
 10
-139.392404
 20
251.825532
 30
0.0
 10
-136.436094
 20
255.548291
 30
0.0
 10
-133.774788
 20
259.560109
 30
0.0
 10
-131.429255
 20
263.819379
 30
0.0
 10
-129.420261
 20
268.284492
 30
0.0
 10
-127.768575
 20
272.913839
 30
0.0
 10
-126.494962
 20
277.665814
 30
0.0
 10
-125.620192
 20
282.498808
 30
0.0
 10
-125.110153
 20
287.312055
 30
0.0
 10
-125.059651
 20
288.840589
 30
0.0
 10
-125.169712
 20
289.412048
 30
0.0
 10
-125.625693
 20
288.211266
 30
0.0
 10
-126.408512
 20
285.324280
 30
0.0
 10
-128.089072
 20
279.210398
 30
0.0
 10
-129.992178
 20
273.469278
 30
0.0
 10
-132.094206
 20
268.147112
 30
0.0
 10
-134.371534
 20
263.290092
 30
0.0
 10
-136.800538
 20
258.944410
 30
0.0
 10
-139.357595
 20
255.156257
 30
0.0
 10
-142.019082
 20
251.971828
 30
0.0
 10
-143.381605
 20
250.620443
 30
0.0
 10
-144.761376
 20
249.437312
 30
0.0
 10
-146.286264
 20
248.315004
 30
0.0
 10
-147.773771
 20
247.361693
 30
0.0
 10
-149.016807
 20
246.699875
 30
0.0
 10
-149.808280
 20
246.452048
 30
0.0
 10
-150.110941
 20
246.597846
 30
0.0
 10
-150.548257
 20
247.002282
 30
0.0
 10
-151.681248
 20
248.389340
 30
0.0
 10
-152.916041
 20
250.217751
 30
0.0
 10
-153.961424
 20
252.092048
 30
0.0
 10
-154.944547
 20
254.356869
 30
0.0
 10
-155.585609
 20
256.457372
 30
0.0
 10
-155.938559
 20
258.625213
 30
0.0
 10
-156.057344
 20
261.092048
 30
0.0
 10
-155.928078
 20
263.900096
 30
0.0
 10
-155.481909
 20
266.628958
 30
0.0
 10
-154.694097
 20
269.329193
 30
0.0
 10
-153.539903
 20
272.051359
 30
0.0
 10
-151.994588
 20
274.846013
 30
0.0
 10
-150.033413
 20
277.763714
 30
0.0
 10
-147.631640
 20
280.855020
 30
0.0
 10
-144.764528
 20
284.170488
 30
0.0
 10
-140.708816
 20
288.457713
 30
0.0
 10
-136.715019
 20
292.208613
 30
0.0
 10
-132.437420
 20
295.727020
 30
0.0
 10
-127.530304
 20
299.316768
 30
0.0
 10
-125.090403
 20
301.087666
 30
0.0
 10
-123.140827
 20
302.656421
 30
0.0
 10
-121.628002
 20
304.069169
 30
0.0
 10
-120.498352
 20
305.372045
 30
0.0
 10
-119.953552
 20
306.092045
 30
0.0
 10
-120.105904
 20
304.417629
 30
0.0
 10
-120.282803
 20
300.971454
 30
0.0
 10
-120.182358
 20
297.450370
 30
0.0
 10
-119.797654
 20
293.751496
 30
0.0
 10
-119.121776
 20
289.771952
 30
0.0
 10
-118.514835
 20
286.413177
 30
0.0
 10
-118.087735
 20
283.282441
 30
0.0
 10
-117.808641
 20
280.094917
 30
0.0
 10
-117.645720
 20
276.565776
 30
0.0
 10
-117.642203
 20
271.599777
 30
0.0
 10
-117.977089
 20
267.472393
 30
0.0
 10
-118.278243
 20
265.673091
 30
0.0
 10
-118.672169
 20
264.023334
 30
0.0
 10
-119.161591
 20
262.503087
 30
0.0
 10
-119.749232
 20
261.092312
 30
0.0
 10
-120.265799
 20
260.201575
 30
0.0
 10
-121.030589
 20
259.174526
 30
0.0
 10
-123.136547
 20
256.877652
 30
0.0
 10
-125.730532
 20
254.534007
 30
0.0
 10
-128.475968
 20
252.475912
 30
0.0
 10
-131.910228
 20
250.418563
 30
0.0
 10
-135.600172
 20
248.612426
 30
0.0
 10
-139.285868
 20
247.171919
 30
0.0
 10
-142.707384
 20
246.211464
 30
0.0
 10
-145.607506
 20
243.613312
 30
0.0
 10
-148.789304
 20
240.685592
 30
0.0
 10
-148.863076
 20
240.442923
 30
0.0
 10
-148.661217
 20
240.102748
 30
0.0
 10
-148.389327
 20
239.700551
 30
0.0
 10
-148.253008
 20
239.271816
 30
0.0
 10
-148.253008
 20
239.271816
 30
0.0
  0
LWPOLYLINE
  5
103
100
AcDbEntity
  8
0
 62
7
100
AcDbPolyline
 90
18
 70
0
 10
-133.623184
 20
155.041584
 30
0.0
 10
-133.698519
 20
154.668433
 30
0.0
 10
-133.903965
 20
154.363713
 30
0.0
 10
-134.208682
 20
154.158264
 30
0.0
 10
-134.581832
 20
154.082928
 30
0.0
 10
-134.954983
 20
154.158264
 30
0.0
 10
-135.259703
 20
154.363713
 30
0.0
 10
-135.465152
 20
154.668433
 30
0.0
 10
-135.540488
 20
155.041584
 30
0.0
 10
-135.465152
 20
155.414735
 30
0.0
 10
-135.259703
 20
155.719455
 30
0.0
 10
-134.954983
 20
155.924904
 30
0.0
 10
-134.581832
 20
156.000240
 30
0.0
 10
-134.208682
 20
155.924904
 30
0.0
 10
-133.903965
 20
155.719455
 30
0.0
 10
-133.698519
 20
155.414735
 30
0.0
 10
-133.623184
 20
155.041584
 30
0.0
 10
-133.623184
 20
155.041584
 30
0.0
  0
LWPOLYLINE
  5
104
100
AcDbEntity
  8
0
 62
7
100
AcDbPolyline
 90
159
 70
0
 10
-133.103920
 20
156.482656
 30
0.0
 10
-132.658788
 20
155.822429
 30
0.0
 10
-132.495560
 20
155.013936
 30
0.0
 10
-132.658788
 20
154.205444
 30
0.0
 10
-133.103924
 20
153.545220
 30
0.0
 10
-133.764148
 20
153.100084
 30
0.0
 10
-134.572640
 20
152.936856
 30
0.0
 10
-135.381136
 20
153.100083
 30
0.0
 10
-136.041363
 20
153.545217
 30
0.0
 10
-136.486500
 20
154.205441
 30
0.0
 10
-136.649728
 20
155.013936
 30
0.0
 10
-136.610645
 20
155.822431
 30
0.0
 10
-136.438627
 20
156.482655
 30
0.0
 10
-136.051519
 20
156.927789
 30
0.0
 10
-135.367168
 20
157.091016
 30
0.0
 10
-134.741344
 20
157.558808
 30
0.0
 10
-134.664469
 20
158.139212
 30
0.0
 10
-134.290144
 20
159.228152
 30
0.0
 10
-133.644252
 20
161.079188
 30
0.0
 10
-133.217281
 20
163.018622
 30
0.0
 10
-132.958942
 20
165.360635
 30
0.0
 10
-132.818944
 20
168.419408
 30
0.0
 10
-132.795429
 20
171.777911
 30
0.0
 10
-132.926264
 20
173.459408
 30
0.0
 10
-133.070914
 20
173.755271
 30
0.0
 10
-133.227978
 20
173.741081
 30
0.0
 10
-133.876864
 20
172.474232
 30
0.0
 10
-134.443704
 20
171.386964
 30
0.0
 10
-135.099930
 20
170.428142
 30
0.0
 10
-135.850254
 20
169.594354
 30
0.0
 10
-136.699385
 20
168.882185
 30
0.0
 10
-137.652033
 20
168.288221
 30
0.0
 10
-138.712907
 20
167.809047
 30
0.0
 10
-139.886718
 20
167.441250
 30
0.0
 10
-141.178176
 20
167.181416
 30
0.0
 10
-143.319509
 20
167.006359
 30
0.0
 10
-145.366519
 20
167.162486
 30
0.0
 10
-147.372146
 20
167.658324
 30
0.0
 10
-149.389328
 20
168.502400
 30
0.0
 10
-152.030651
 20
170.033210
 30
0.0
 10
-153.109367
 20
170.834214
 30
0.0
 10
-154.026735
 20
171.658698
 30
0.0
 10
-154.782715
 20
172.506472
 30
0.0
 10
-155.377269
 20
173.377347
 30
0.0
 10
-155.810357
 20
174.271132
 30
0.0
 10
-156.081941
 20
175.187639
 30
0.0
 10
-156.191981
 20
176.126678
 30
0.0
 10
-156.140439
 20
177.088059
 30
0.0
 10
-155.927275
 20
178.071592
 30
0.0
 10
-155.552450
 20
179.077088
 30
0.0
 10
-155.015926
 20
180.104358
 30
0.0
 10
-154.317664
 20
181.153212
 30
0.0
 10
-152.435768
 20
183.314912
 30
0.0
 10
-150.384146
 20
185.185052
 30
0.0
 10
-148.340024
 20
186.794912
 30
0.0
 10
-146.301248
 20
188.219408
 30
0.0
 10
-149.420024
 20
188.400488
 30
0.0
 10
-153.122738
 20
188.768033
 30
0.0
 10
-154.642922
 20
189.056782
 30
0.0
 10
-155.974172
 20
189.426062
 30
0.0
 10
-157.140374
 20
189.883783
 30
0.0
 10
-158.165414
 20
190.437854
 30
0.0
 10
-159.073178
 20
191.096186
 30
0.0
 10
-159.887552
 20
191.866688
 30
0.0
 10
-160.694564
 20
192.889044
 30
0.0
 10
-161.328867
 20
194.040351
 30
0.0
 10
-161.789108
 20
195.310751
 30
0.0
 10
-162.073932
 20
196.690388
 30
0.0
 10
-162.181984
 20
198.169403
 30
0.0
 10
-162.111909
 20
199.737937
 30
0.0
 10
-161.862352
 20
201.386134
 30
0.0
 10
-161.431960
 20
203.104136
 30
0.0
 10
-161.023508
 20
204.134667
 30
0.0
 10
-160.399273
 20
205.278022
 30
0.0
 10
-158.698798
 20
207.663926
 30
0.0
 10
-156.721216
 20
209.783295
 30
0.0
 10
-155.750598
 20
210.593481
 30
0.0
 10
-154.857208
 20
211.157576
 30
0.0
 10
-153.638740
 20
211.594229
 30
0.0
 10
-152.248840
 20
211.816664
 30
0.0
 10
-150.755281
 20
211.768721
 30
0.0
 10
-149.248840
 20
211.200008
 30
0.0
 10
-147.554278
 20
210.148421
 30
0.0
 10
-145.864213
 20
208.619435
 30
0.0
 10
-144.233580
 20
206.670586
 30
0.0
 10
-142.717312
 20
204.359408
 30
0.0
 10
-142.194596
 20
203.554283
 30
0.0
 10
-141.870456
 20
203.219408
 30
0.0
 10
-141.695685
 20
203.695283
 30
0.0
 10
-141.532080
 20
204.839408
 30
0.0
 10
-141.223838
 20
207.199547
 30
0.0
 10
-140.776072
 20
209.319990
 30
0.0
 10
-140.189535
 20
211.199301
 30
0.0
 10
-139.464977
 20
212.836046
 30
0.0
 10
-138.603150
 20
214.228790
 30
0.0
 10
-137.604805
 20
215.376097
 30
0.0
 10
-136.470694
 20
216.276534
 30
0.0
 10
-135.201568
 20
216.928664
 30
0.0
 10
-133.619754
 20
217.365650
 30
0.0
 10
-131.418800
 20
217.464200
 30
0.0
 10
-129.076525
 20
217.305297
 30
0.0
 10
-127.001209
 20
216.821648
 30
0.0
 10
-125.064182
 20
215.970438
 30
0.0
 10
-123.136776
 20
214.708856
 30
0.0
 10
-121.549107
 20
213.391153
 30
0.0
 10
-120.232406
 20
212.040834
 30
0.0
 10
-119.192658
 20
210.671307
 30
0.0
 10
-118.435848
 20
209.295977
 30
0.0
 10
-117.967962
 20
207.928251
 30
0.0
 10
-117.794986
 20
206.581535
 30
0.0
 10
-117.922905
 20
205.269236
 30
0.0
 10
-118.357704
 20
204.004760
 30
0.0
 10
-119.210855
 20
202.707330
 30
0.0
 10
-120.532675
 20
201.309827
 30
0.0
 10
-122.198023
 20
199.928654
 30
0.0
 10
-124.081760
 20
198.680216
 30
0.0
 10
-125.655840
 20
197.666783
 30
0.0
 10
-125.976253
 20
197.366528
 30
0.0
 10
-125.978944
 20
197.209064
 30
0.0
 10
-123.982824
 20
196.863152
 30
0.0
 10
-121.246839
 20
196.370829
 30
0.0
 10
-120.036539
 20
195.987314
 30
0.0
 10
-118.933115
 20
195.514685
 30
0.0
 10
-117.937880
 20
194.954781
 30
0.0
 10
-117.052144
 20
194.309443
 30
0.0
 10
-116.277218
 20
193.580513
 30
0.0
 10
-115.614415
 20
192.769829
 30
0.0
 10
-115.065046
 20
191.879233
 30
0.0
 10
-114.630421
 20
190.910565
 30
0.0
 10
-114.311853
 20
189.865665
 30
0.0
 10
-114.110653
 20
188.746375
 30
0.0
 10
-114.028132
 20
187.554534
 30
0.0
 10
-114.065602
 20
186.291983
 30
0.0
 10
-114.505760
 20
183.562112
 30
0.0
 10
-115.060054
 20
181.785138
 30
0.0
 10
-115.867943
 20
180.142862
 30
0.0
 10
-117.003059
 20
178.511215
 30
0.0
 10
-118.539032
 20
176.766128
 30
0.0
 10
-120.495919
 20
175.000862
 30
0.0
 10
-121.433212
 20
174.382296
 30
0.0
 10
-122.355032
 20
173.935043
 30
0.0
 10
-123.270348
 20
173.655556
 30
0.0
 10
-124.188130
 20
173.540286
 30
0.0
 10
-125.117346
 20
173.585686
 30
0.0
 10
-126.066968
 20
173.788208
 30
0.0
 10
-127.325543
 20
174.312137
 30
0.0
 10
-128.513696
 20
175.037576
 30
0.0
 10
-129.350144
 20
175.618523
 30
0.0
 10
-129.763136
 20
175.795064
 30
0.0
 10
-129.283184
 20
172.711520
 30
0.0
 10
-128.683460
 20
168.976932
 30
0.0
 10
-128.499960
 20
165.806018
 30
0.0
 10
-128.733748
 20
163.073863
 30
0.0
 10
-129.385888
 20
160.655552
 30
0.0
 10
-129.946535
 20
159.432001
 30
0.0
 10
-130.597976
 20
158.574818
 30
0.0
 10
-131.392307
 20
158.033616
 30
0.0
 10
-132.381624
 20
157.758008
 30
0.0
 10
-133.103920
 20
156.482656
 30
0.0
  0
LWPOLYLINE
  5
105
100
AcDbEntity
  8
0
 62
7
100
AcDbPolyline
 90
18
 70
0
 10
-94.361608
 20
140.584296
 30
0.0
 10
-94.436943
 20
140.211145
 30
0.0
 10
-94.642389
 20
139.906425
 30
0.0
 10
-94.947106
 20
139.700976
 30
0.0
 10
-95.320256
 20
139.625640
 30
0.0
 10
-95.693407
 20
139.700976
 30
0.0
 10
-95.998127
 20
139.906425
 30
0.0
 10
-96.203576
 20
140.211145
 30
0.0
 10
-96.278912
 20
140.584296
 30
0.0
 10
-96.203576
 20
140.957447
 30
0.0
 10
-95.998127
 20
141.262167
 30
0.0
 10
-95.693407
 20
141.467616
 30
0.0
 10
-95.320256
 20
141.542952
 30
0.0
 10
-94.947106
 20
141.467616
 30
0.0
 10
-94.642389
 20
141.262167
 30
0.0
 10
-94.436943
 20
140.957447
 30
0.0
 10
-94.361608
 20
140.584296
 30
0.0
 10
-94.361608
 20
140.584296
 30
0.0
  0
LWPOLYLINE
  5
106
100
AcDbEntity
  8
0
 62
7
100
AcDbPolyline
 90
95
 70
0
 10
-93.842344
 20
142.025368
 30
0.0
 10
-93.397212
 20
141.365141
 30
0.0
 10
-93.233984
 20
140.556648
 30
0.0
 10
-93.397212
 20
139.748156
 30
0.0
 10
-93.842348
 20
139.087932
 30
0.0
 10
-94.502572
 20
138.642796
 30
0.0
 10
-95.311064
 20
138.479568
 30
0.0
 10
-96.119560
 20
138.642795
 30
0.0
 10
-96.779787
 20
139.087929
 30
0.0
 10
-97.224924
 20
139.748153
 30
0.0
 10
-97.388152
 20
140.556648
 30
0.0
 10
-97.224923
 20
141.365144
 30
0.0
 10
-96.779784
 20
142.025368
 30
0.0
 10
-98.566392
 20
142.787808
 30
0.0
 10
-97.162465
 20
147.366876
 30
0.0
 10
-95.326688
 20
152.754576
 30
0.0
 10
-95.295787
 20
152.980935
 30
0.0
 10
-95.521370
 20
153.107451
 30
0.0
 10
-97.266992
 20
153.174576
 30
0.0
 10
-98.775724
 20
153.261035
 30
0.0
 10
-100.034216
 20
153.536977
 30
0.0
 10
-101.063443
 20
154.027248
 30
0.0
 10
-101.884382
 20
154.756692
 30
0.0
 10
-102.518007
 20
155.750156
 30
0.0
 10
-102.985295
 20
157.032484
 30
0.0
 10
-103.307221
 20
158.628524
 30
0.0
 10
-103.504760
 20
160.563120
 30
0.0
 10
-103.558178
 20
162.778850
 30
0.0
 10
-103.437687
 20
165.124928
 30
0.0
 10
-103.153604
 20
167.551712
 30
0.0
 10
-102.716245
 20
170.009559
 30
0.0
 10
-102.135926
 20
172.448827
 30
0.0
 10
-101.422962
 20
174.819873
 30
0.0
 10
-100.587671
 20
177.073054
 30
0.0
 10
-99.640368
 20
179.158728
 30
0.0
 10
-98.348788
 20
181.493390
 30
0.0
 10
-96.944160
 20
183.586514
 30
0.0
 10
-95.418183
 20
185.445424
 30
0.0
 10
-93.762560
 20
187.077447
 30
0.0
 10
-91.968993
 20
188.489907
 30
0.0
 10
-90.029183
 20
189.690129
 30
0.0
 10
-87.934831
 20
190.685438
 30
0.0
 10
-85.677640
 20
191.483160
 30
0.0
 10
-84.432084
 20
191.816533
 30
0.0
 10
-83.196180
 20
192.024867
 30
0.0
 10
-79.340190
 20
192.233808
 30
0.0
 10
-74.977494
 20
192.210355
 30
0.0
 10
-71.056638
 20
191.860962
 30
0.0
 10
-67.384619
 20
191.158904
 30
0.0
 10
-63.768438
 20
190.077456
 30
0.0
 10
-60.635688
 20
188.713041
 30
0.0
 10
-55.968438
 20
186.436584
 30
0.0
 10
-51.091712
 20
184.078530
 30
0.0
 10
-47.203593
 20
182.544423
 30
0.0
 10
-45.409852
 20
182.013475
 30
0.0
 10
-43.598773
 20
181.601063
 30
0.0
 10
-39.571950
 20
181.015248
 30
0.0
 10
-36.742198
 20
180.611304
 30
0.0
 10
-36.607162
 20
180.449106
 30
0.0
 10
-36.947657
 20
180.195573
 30
0.0
 10
-39.408438
 20
179.231760
 30
0.0
 10
-43.959068
 20
177.487159
 30
0.0
 10
-48.299613
 20
175.598388
 30
0.0
 10
-51.952717
 20
173.786440
 30
0.0
 10
-54.441030
 20
172.272312
 30
0.0
 10
-55.052527
 20
171.739449
 30
0.0
 10
-55.678101
 20
171.009543
 30
0.0
 10
-57.236046
 20
168.612144
 30
0.0
 10
-59.547594
 20
164.922160
 30
0.0
 10
-61.972560
 20
161.443221
 30
0.0
 10
-64.473330
 20
158.216314
 30
0.0
 10
-67.012289
 20
155.282424
 30
0.0
 10
-69.551823
 20
152.682538
 30
0.0
 10
-72.054319
 20
150.457641
 30
0.0
 10
-74.482164
 20
148.648720
 30
0.0
 10
-76.797742
 20
147.296760
 30
0.0
 10
-78.418323
 20
146.577301
 30
0.0
 10
-79.920591
 20
146.095014
 30
0.0
 10
-81.408219
 20
145.823768
 30
0.0
 10
-82.984880
 20
145.737432
 30
0.0
 10
-84.254323
 20
145.782660
 30
0.0
 10
-85.360928
 20
145.931589
 30
0.0
 10
-86.327936
 20
146.197785
 30
0.0
 10
-87.178590
 20
146.594814
 30
0.0
 10
-87.936132
 20
147.136243
 30
0.0
 10
-88.623805
 20
147.835638
 30
0.0
 10
-89.264851
 20
148.706566
 30
0.0
 10
-89.882512
 20
149.762592
 30
0.0
 10
-90.502412
 20
150.816312
 30
0.0
 10
-90.877728
 20
151.254576
 30
0.0
 10
-91.093583
 20
150.717922
 30
0.0
 10
-91.346364
 20
149.293500
 30
0.0
 10
-91.801080
 20
144.894576
 30
0.0
 10
-91.968440
 20
142.494576
 30
0.0
 10
-93.842344
 20
142.025368
 30
0.0
  0
LWPOLYLINE
  5
107
100
AcDbEntity
  8
0
 62
7
100
AcDbPolyline
 90
18
 70
0
 10
-14.394537
 20
116.517632
 30
0.0
 10
-14.469872
 20
116.144481
 30
0.0
 10
-14.675318
 20
115.839761
 30
0.0
 10
-14.980035
 20
115.634312
 30
0.0
 10
-15.353185
 20
115.558976
 30
0.0
 10
-15.726336
 20
115.634312
 30
0.0
 10
-16.031056
 20
115.839761
 30
0.0
 10
-16.236504
 20
116.144481
 30
0.0
 10
-16.311841
 20
116.517632
 30
0.0
 10
-16.236504
 20
116.890783
 30
0.0
 10
-16.031056
 20
117.195503
 30
0.0
 10
-15.726336
 20
117.400952
 30
0.0
 10
-15.353185
 20
117.476288
 30
0.0
 10
-14.980035
 20
117.400952
 30
0.0
 10
-14.675318
 20
117.195503
 30
0.0
 10
-14.469872
 20
116.890783
 30
0.0
 10
-14.394537
 20
116.517632
 30
0.0
 10
-14.394537
 20
116.517632
 30
0.0
  0
LWPOLYLINE
  5
108
100
AcDbEntity
  8
0
 62
7
100
AcDbPolyline
 90
117
 70
0
 10
-13.354272
 20
117.958704
 30
0.0
 10
-13.182051
 20
117.651300
 30
0.0
 10
-13.169640
 20
117.298477
 30
0.0
 10
-13.266913
 20
116.489984
 30
0.0
 10
-13.430141
 20
115.681492
 30
0.0
 10
-13.875277
 20
115.021268
 30
0.0
 10
-14.535501
 20
114.576132
 30
0.0
 10
-15.343993
 20
114.412904
 30
0.0
 10
-16.152489
 20
114.576131
 30
0.0
 10
-16.812716
 20
115.021265
 30
0.0
 10
-17.257853
 20
115.681489
 30
0.0
 10
-17.421081
 20
116.489984
 30
0.0
 10
-17.375892
 20
117.269987
 30
0.0
 10
-17.190441
 20
117.867527
 30
0.0
 10
-16.789901
 20
118.249978
 30
0.0
 10
-16.099444
 20
118.384712
 30
0.0
 10
-16.292777
 20
118.976032
 30
0.0
 10
-16.328889
 20
119.378857
 30
0.0
 10
-16.114293
 20
120.129913
 30
0.0
 10
-14.842969
 20
122.921632
 30
0.0
 10
-14.137273
 20
124.515976
 30
0.0
 10
-14.380737
 20
124.737373
 30
0.0
 10
-14.966081
 20
125.022544
 30
0.0
 10
-15.845576
 20
125.523127
 30
0.0
 10
-17.000029
 20
126.401534
 30
0.0
 10
-19.814615
 20
128.975890
 30
0.0
 10
-22.771446
 20
132.113763
 30
0.0
 10
-25.232129
 20
135.183304
 30
0.0
 10
-26.348835
 20
136.917022
 30
0.0
 10
-27.363505
 20
138.726160
 30
0.0
 10
-28.068738
 20
140.340966
 30
0.0
 10
-28.608756
 20
141.972328
 30
0.0
 10
-28.892968
 20
143.295512
 30
0.0
 10
-28.910838
 20
143.740058
 30
0.0
 10
-28.830785
 20
143.985784
 30
0.0
 10
-27.381924
 20
143.923042
 30
0.0
 10
-24.016129
 20
143.432440
 30
0.0
 10
-20.724388
 20
142.933042
 30
0.0
 10
-19.272001
 20
142.808584
 30
0.0
 10
-19.531951
 20
143.354608
 30
0.0
 10
-20.357113
 20
144.467224
 30
0.0
 10
-21.440560
 20
145.970514
 30
0.0
 10
-22.446659
 20
147.682240
 30
0.0
 10
-23.313122
 20
149.485478
 30
0.0
 10
-23.977665
 20
151.263304
 30
0.0
 10
-24.442733
 20
153.385483
 30
0.0
 10
-24.650813
 20
155.832655
 30
0.0
 10
-24.594592
 20
158.365151
 30
0.0
 10
-24.266761
 20
160.743304
 30
0.0
 10
-23.807239
 20
162.644979
 30
0.0
 10
-23.307841
 20
164.253682
 30
0.0
 10
-22.840387
 20
165.367196
 30
0.0
 10
-22.476697
 20
165.783304
 30
0.0
 10
-17.917289
 20
164.099440
 30
0.0
 10
-14.821529
 20
162.949504
 30
0.0
 10
-13.407449
 20
162.549376
 30
0.0
 10
-12.714257
 20
163.760800
 30
0.0
 10
-12.042417
 20
165.046483
 30
0.0
 10
-11.120628
 20
166.455737
 30
0.0
 10
-8.656473
 20
169.501354
 30
0.0
 10
-5.580324
 20
172.610448
 30
0.0
 10
-2.150713
 20
175.495816
 30
0.0
 10
3.061233
 20
179.086036
 30
0.0
 10
5.425152
 20
180.548312
 30
0.0
 10
6.624823
 20
181.143304
 30
0.0
 10
7.003692
 20
180.974679
 30
0.0
 10
7.535484
 20
180.503278
 30
0.0
 10
8.903904
 20
178.858996
 30
0.0
 10
10.422224
 20
176.624152
 30
0.0
 10
11.782583
 20
174.212440
 30
0.0
 10
13.067618
 20
171.180452
 30
0.0
 10
13.899665
 20
168.061168
 30
0.0
 10
14.316749
 20
164.655972
 30
0.0
 10
14.356895
 20
160.766248
 30
0.0
 10
14.229695
 20
156.829192
 30
0.0
 10
19.137863
 20
156.975496
 30
0.0
 10
23.070641
 20
157.029310
 30
0.0
 10
23.884929
 20
156.958061
 30
0.0
 10
24.164207
 20
156.813880
 30
0.0
 10
23.985724
 20
155.789260
 30
0.0
 10
23.299004
 20
153.743878
 30
0.0
 10
22.282790
 20
151.163293
 30
0.0
 10
21.115823
 20
148.533064
 30
0.0
 10
19.940748
 20
146.234281
 30
0.0
 10
18.672627
 20
144.086661
 30
0.0
 10
17.326166
 20
142.107547
 30
0.0
 10
15.916072
 20
140.314282
 30
0.0
 10
14.457052
 20
138.724207
 30
0.0
 10
12.963811
 20
137.354666
 30
0.0
 10
11.451057
 20
136.223000
 30
0.0
 10
9.933495
 20
135.346552
 30
0.0
 10
9.036016
 20
134.850571
 30
0.0
 10
8.662727
 20
134.533312
 30
0.0
 10
8.664630
 20
134.395043
 30
0.0
 10
9.034022
 20
134.303920
 30
0.0
 10
13.057391
 20
133.996624
 30
0.0
 10
16.201406
 20
133.699087
 30
0.0
 10
17.606495
 20
133.415536
 30
0.0
 10
17.596494
 20
133.148862
 30
0.0
 10
17.218688
 20
132.611068
 30
0.0
 10
15.126119
 20
130.442200
 30
0.0
 10
13.604522
 20
129.031697
 30
0.0
 10
12.083467
 20
127.787413
 30
0.0
 10
10.544637
 20
126.699359
 30
0.0
 10
8.969714
 20
125.757547
 30
0.0
 10
7.340379
 20
124.951987
 30
0.0
 10
5.638315
 20
124.272690
 30
0.0
 10
3.845204
 20
123.709667
 30
0.0
 10
1.942727
 20
123.252928
 30
0.0
 10
-0.686440
 20
122.887834
 30
0.0
 10
-4.537273
 20
122.898760
 30
0.0
 10
-7.675402
 20
123.134848
 30
0.0
 10
-8.746351
 20
123.226214
 30
0.0
 10
-9.260369
 20
123.183808
 30
0.0
 10
-10.262825
 20
122.410816
 30
0.0
 10
-12.360049
 20
118.846048
 30
0.0
 10
-13.354272
 20
117.958704
 30
0.0
  0
LWPOLYLINE
  5
109
100
AcDbEntity
  8
0
 62
7
100
AcDbPolyline
 90
18
 70
0
 10
77.395176
 20
178.972136
 30
0.0
 10
77.319841
 20
178.598985
 30
0.0
 10
77.114395
 20
178.294265
 30
0.0
 10
76.809678
 20
178.088816
 30
0.0
 10
76.436528
 20
178.013480
 30
0.0
 10
76.063377
 20
178.088816
 30
0.0
 10
75.758657
 20
178.294265
 30
0.0
 10
75.553208
 20
178.598985
 30
0.0
 10
75.477872
 20
178.972136
 30
0.0
 10
75.553208
 20
179.345287
 30
0.0
 10
75.758657
 20
179.650007
 30
0.0
 10
76.063377
 20
179.855456
 30
0.0
 10
76.436528
 20
179.930792
 30
0.0
 10
76.809678
 20
179.855456
 30
0.0
 10
77.114395
 20
179.650007
 30
0.0
 10
77.319841
 20
179.345287
 30
0.0
 10
77.395176
 20
178.972136
 30
0.0
 10
77.395176
 20
178.972136
 30
0.0
  0
LWPOLYLINE
  5
10a
100
AcDbEntity
  8
0
 62
7
100
AcDbPolyline
 90
201
 70
0
 10
77.914440
 20
180.413208
 30
0.0
 10
78.359572
 20
179.752981
 30
0.0
 10
78.522800
 20
178.944488
 30
0.0
 10
78.359572
 20
178.135996
 30
0.0
 10
77.914436
 20
177.475772
 30
0.0
 10
77.254212
 20
177.030636
 30
0.0
 10
76.445720
 20
176.867408
 30
0.0
 10
75.637224
 20
177.030635
 30
0.0
 10
74.976997
 20
177.475769
 30
0.0
 10
74.531860
 20
178.135993
 30
0.0
 10
74.368632
 20
178.944488
 30
0.0
 10
74.280494
 20
180.821752
 30
0.0
 10
70.823742
 20
190.812192
 30
0.0
 10
70.533661
 20
191.235482
 30
0.0
 10
70.217441
 20
191.019696
 30
0.0
 10
69.491776
 20
189.406988
 30
0.0
 10
68.617126
 20
187.446244
 30
0.0
 10
68.114675
 20
186.795413
 30
0.0
 10
67.845548
 20
186.632893
 30
0.0
 10
67.563870
 20
186.609640
 30
0.0
 10
67.104936
 20
186.647491
 30
0.0
 10
66.678564
 20
186.514086
 30
0.0
 10
65.352798
 20
185.428664
 30
0.0
 10
64.172001
 20
184.473248
 30
0.0
 10
63.387942
 20
184.101752
 30
0.0
 10
62.687655
 20
183.976369
 30
0.0
 10
61.844934
 20
183.586209
 30
0.0
 10
60.823023
 20
182.910259
 30
0.0
 10
59.585166
 20
181.927504
 30
0.0
 10
57.763566
 20
180.501752
 30
0.0
 10
58.589742
 20
182.313152
 30
0.0
 10
58.590294
 20
182.313072
 30
0.0
 10
59.275634
 20
183.793742
 30
0.0
 10
59.542104
 20
184.878294
 30
0.0
 10
59.394152
 20
185.635843
 30
0.0
 10
58.836222
 20
186.135504
 30
0.0
 10
58.169907
 20
186.393228
 30
0.0
 10
57.454842
 20
186.480355
 30
0.0
 10
56.626522
 20
186.397056
 30
0.0
 10
55.620438
 20
186.143504
 30
0.0
 10
54.021540
 20
185.816454
 30
0.0
 10
51.811758
 20
185.525992
 30
0.0
 10
49.617408
 20
185.240177
 30
0.0
 10
48.055614
 20
184.924296
 30
0.0
 10
47.176238
 20
184.672614
 30
0.0
 10
46.777902
 20
184.652929
 30
0.0
 10
46.769375
 20
184.920915
 30
0.0
 10
47.059422
 20
185.532248
 30
0.0
 10
47.442027
 20
186.532143
 30
0.0
 10
47.577906
 20
187.514780
 30
0.0
 10
47.479899
 20
188.455083
 30
0.0
 10
47.160843
 20
189.327971
 30
0.0
 10
46.633578
 20
190.108368
 30
0.0
 10
45.910940
 20
190.771194
 30
0.0
 10
45.005769
 20
191.291372
 30
0.0
 10
43.930902
 20
191.643824
 30
0.0
 10
43.219056
 20
191.825422
 30
0.0
 10
42.805200
 20
192.034726
 30
0.0
 10
42.562353
 20
192.378721
 30
0.0
 10
42.363534
 20
192.964392
 30
0.0
 10
41.789486
 20
194.220274
 30
0.0
 10
40.852728
 20
195.210813
 30
0.0
 10
39.486158
 20
195.987495
 30
0.0
 10
37.622670
 20
196.601808
 30
0.0
 10
36.221696
 20
196.999296
 30
0.0
 10
35.880083
 20
197.154125
 30
0.0
 10
35.780565
 20
197.297970
 30
0.0
 10
36.316353
 20
197.607585
 30
0.0
 10
37.846134
 20
198.037896
 30
0.0
 10
39.673945
 20
198.602487
 30
0.0
 10
41.358243
 20
199.283878
 30
0.0
 10
42.696884
 20
199.989325
 30
0.0
 10
43.487718
 20
200.626088
 30
0.0
 10
43.894470
 20
201.344464
 30
0.0
 10
44.211870
 20
202.231872
 30
0.0
 10
44.465622
 20
203.239656
 30
0.0
 10
47.193822
 20
203.210696
 30
0.0
 10
49.503957
 20
203.264327
 30
0.0
 10
50.029184
 20
203.389428
 30
0.0
 10
50.349918
 20
203.607104
 30
0.0
 10
50.577569
 20
203.868987
 30
0.0
 10
50.636568
 20
204.125853
 30
0.0
 10
50.198934
 20
205.123624
 30
0.0
 10
49.374027
 20
206.263523
 30
0.0
 10
48.029766
 20
207.669628
 30
0.0
 10
46.356429
 20
209.159343
 30
0.0
 10
44.544294
 20
210.550072
 30
0.0
 10
43.357794
 20
211.463280
 30
0.0
 10
42.864294
 20
211.997480
 30
0.0
 10
43.162083
 20
212.283398
 30
0.0
 10
43.878030
 20
212.599688
 30
0.0
 10
44.780451
 20
213.059936
 30
0.0
 10
45.526542
 20
213.691976
 30
0.0
 10
45.867263
 20
214.144198
 30
0.0
 10
46.043058
 20
214.574221
 30
0.0
 10
46.043910
 20
216.014064
 30
0.0
 10
45.834267
 20
217.383102
 30
0.0
 10
45.495078
 20
218.473152
 30
0.0
 10
45.183597
 20
219.373762
 30
0.0
 10
45.495078
 20
220.322336
 30
0.0
 10
45.798372
 20
221.382663
 30
0.0
 10
45.775575
 20
222.585669
 30
0.0
 10
45.411746
 20
224.033789
 30
0.0
 10
44.691942
 20
225.829456
 30
0.0
 10
43.783278
 20
228.181216
 30
0.0
 10
45.485574
 20
227.075600
 30
0.0
 10
46.786953
 20
226.177929
 30
0.0
 10
47.671470
 20
225.718408
 30
0.0
 10
48.349721
 20
225.642930
 30
0.0
 10
49.174449
 20
225.694750
 30
0.0
 10
50.861190
 20
226.128568
 30
0.0
 10
51.559950
 20
226.338992
 30
0.0
 10
51.734202
 20
226.268295
 30
0.0
 10
51.873438
 20
226.076088
 30
0.0
 10
52.469022
 20
225.429294
 30
0.0
 10
53.479932
 20
224.631316
 30
0.0
 10
54.564130
 20
223.927351
 30
0.0
 10
55.379574
 20
223.562600
 30
0.0
 10
56.126943
 20
223.615952
 30
0.0
 10
56.857554
 20
224.066865
 30
0.0
 10
57.555801
 20
224.901299
 30
0.0
 10
58.206078
 20
226.105216
 30
0.0
 10
58.750254
 20
227.112053
 30
0.0
 10
59.136318
 20
227.477592
 30
0.0
 10
59.706132
 20
226.783892
 30
0.0
 10
60.692142
 20
225.244096
 30
0.0
 10
62.884950
 20
222.019288
 30
0.0
 10
64.320006
 20
219.908472
 30
0.0
 10
64.942416
 20
218.903378
 30
0.0
 10
65.702166
 20
217.930936
 30
0.0
 10
66.485198
 20
217.241278
 30
0.0
 10
67.222374
 20
216.972541
 30
0.0
 10
67.937159
 20
217.122809
 30
0.0
 10
68.653014
 20
217.690168
 30
0.0
 10
69.315936
 20
218.764579
 30
0.0
 10
70.199520
 20
220.561612
 30
0.0
 10
70.972557
 20
222.362023
 30
0.0
 10
71.303838
 20
223.446568
 30
0.0
 10
71.641374
 20
223.628781
 30
0.0
 10
72.484206
 20
223.701752
 30
0.0
 10
73.480084
 20
223.744214
 30
0.0
 10
74.123343
 20
223.937479
 30
0.0
 10
74.585735
 20
224.380367
 30
0.0
 10
75.039006
 20
225.171696
 30
0.0
 10
75.585924
 20
226.030045
 30
0.0
 10
76.052166
 20
226.341752
 30
0.0
 10
76.706659
 20
226.542415
 30
0.0
 10
77.532693
 20
227.096699
 30
0.0
 10
78.441029
 20
227.933048
 30
0.0
 10
79.342422
 20
228.979904
 30
0.0
 10
80.642336
 20
230.421752
 30
0.0
 10
80.817476
 20
229.794694
 30
0.0
 10
80.971088
 20
228.287088
 30
0.0
 10
81.240532
 20
225.984008
 30
0.0
 10
81.463897
 20
225.120061
 30
0.0
 10
81.763625
 20
224.415942
 30
0.0
 10
82.152668
 20
223.847727
 30
0.0
 10
82.643978
 20
223.391491
 30
0.0
 10
83.985200
 20
222.719256
 30
0.0
 10
84.491365
 20
222.501327
 30
0.0
 10
84.689846
 20
222.176107
 30
0.0
 10
84.604891
 20
221.537739
 30
0.0
 10
84.260744
 20
220.380368
 30
0.0
 10
83.933214
 20
219.068420
 30
0.0
 10
83.804102
 20
217.878666
 30
0.0
 10
83.874421
 20
216.849463
 30
0.0
 10
84.145184
 20
216.019168
 30
0.0
 10
84.681915
 20
215.356986
 30
0.0
 10
85.539485
 20
214.734682
 30
0.0
 10
86.615930
 20
214.212587
 30
0.0
 10
87.809288
 20
213.851032
 30
0.0
 10
88.695314
 20
213.613978
 30
0.0
 10
89.063840
 20
213.421864
 30
0.0
 10
88.223840
 20
212.591520
 30
0.0
 10
87.581855
 20
211.924515
 30
0.0
 10
87.383840
 20
211.264752
 30
0.0
 10
87.135476
 20
210.229524
 30
0.0
 10
86.466149
 20
208.744593
 30
0.0
 10
85.489503
 20
207.030811
 30
0.0
 10
84.319184
 20
205.309032
 30
0.0
 10
82.605056
 20
203.194872
 30
0.0
 10
82.413145
 20
202.828330
 30
0.0
 10
82.352285
 20
202.180206
 30
0.0
 10
82.421291
 20
201.449675
 30
0.0
 10
82.618976
 20
200.835912
 30
0.0
 10
83.027680
 20
200.262178
 30
0.0
 10
83.674136
 20
199.738301
 30
0.0
 10
86.243744
 20
198.472792
 30
0.0
 10
87.896369
 20
197.701533
 30
0.0
 10
88.583744
 20
197.262224
 30
0.0
 10
88.302409
 20
196.943906
 30
0.0
 10
87.545347
 20
196.436149
 30
0.0
 10
85.125686
 20
195.031257
 30
0.0
 10
82.368061
 20
193.405435
 30
0.0
 10
81.188541
 20
192.621514
 30
0.0
 10
80.315768
 20
191.916568
 30
0.0
 10
78.684846
 20
190.346888
 30
0.0
 10
77.164374
 20
189.572184
 30
0.0
 10
72.437934
 20
191.264472
 30
0.0
 10
76.385154
 20
182.199304
 30
0.0
 10
77.914440
 20
180.413208
 30
0.0
  0
LWPOLYLINE
  5
10b
100
AcDbEntity
  8
0
 62
7
100
AcDbPolyline
 90
18
 70
0
 10
3.486398
 20
206.615000
 30
0.0
 10
3.411063
 20
206.241849
 30
0.0
 10
3.205617
 20
205.937129
 30
0.0
 10
2.900899
 20
205.731680
 30
0.0
 10
2.527750
 20
205.656344
 30
0.0
 10
2.154599
 20
205.731680
 30
0.0
 10
1.849879
 20
205.937129
 30
0.0
 10
1.644430
 20
206.241849
 30
0.0
 10
1.569094
 20
206.615000
 30
0.0
 10
1.644430
 20
206.988151
 30
0.0
 10
1.849879
 20
207.292871
 30
0.0
 10
2.154599
 20
207.498320
 30
0.0
 10
2.527750
 20
207.573656
 30
0.0
 10
2.900899
 20
207.498320
 30
0.0
 10
3.205617
 20
207.292871
 30
0.0
 10
3.411063
 20
206.988151
 30
0.0
 10
3.486398
 20
206.615000
 30
0.0
 10
3.486398
 20
206.615000
 30
0.0
  0
LWPOLYLINE
  5
10c
100
AcDbEntity
  8
0
 62
7
100
AcDbPolyline
 90
178
 70
0
 10
4.005662
 20
208.056072
 30
0.0
 10
4.450794
 20
207.395845
 30
0.0
 10
4.614022
 20
206.587352
 30
0.0
 10
4.450794
 20
205.778860
 30
0.0
 10
4.005658
 20
205.118636
 30
0.0
 10
3.345433
 20
204.673500
 30
0.0
 10
2.536942
 20
204.510272
 30
0.0
 10
1.728445
 20
204.673499
 30
0.0
 10
1.068219
 20
205.118633
 30
0.0
 10
0.623082
 20
205.778857
 30
0.0
 10
0.459854
 20
206.587352
 30
0.0
 10
-0.131437
 20
209.230944
 30
0.0
 10
-4.203831
 20
213.966944
 30
0.0
 10
-5.611967
 20
213.592128
 30
0.0
 10
-6.621272
 20
213.331627
 30
0.0
 10
-8.481495
 20
213.150680
 30
0.0
 10
-10.893359
 20
212.956712
 30
0.0
 10
-11.801803
 20
212.830905
 30
0.0
 10
-13.662124
 20
212.838240
 30
0.0
 10
-15.776049
 20
212.956629
 30
0.0
 10
-17.445303
 20
213.163984
 30
0.0
 10
-18.921264
 20
213.529141
 30
0.0
 10
-20.315398
 20
214.012541
 30
0.0
 10
-21.618415
 20
214.610458
 30
0.0
 10
-22.821023
 20
215.319168
 30
0.0
 10
-24.029501
 20
216.235365
 30
0.0
 10
-25.504057
 20
217.523551
 30
0.0
 10
-28.724710
 20
220.669896
 30
0.0
 10
-31.429590
 20
223.666211
 30
0.0
 10
-32.259429
 20
224.766860
 30
0.0
 10
-32.565303
 20
225.420504
 30
0.0
 10
-32.490603
 20
225.640497
 30
0.0
 10
-32.201243
 20
225.730976
 30
0.0
 10
-30.586999
 20
225.548776
 30
0.0
 10
-29.332527
 20
225.477576
 30
0.0
 10
-29.834500
 20
226.173341
 30
0.0
 10
-31.204535
 20
227.682976
 30
0.0
 10
-32.988045
 20
229.649994
 30
0.0
 10
-34.466114
 20
231.493257
 30
0.0
 10
-35.697570
 20
233.291833
 30
0.0
 10
-36.741239
 20
235.124792
 30
0.0
 10
-37.548703
 20
236.777445
 30
0.0
 10
-38.120316
 20
238.191176
 30
0.0
 10
-38.519017
 20
239.545531
 30
0.0
 10
-38.807743
 20
241.020056
 30
0.0
 10
-38.945863
 20
242.263662
 30
0.0
 10
-38.900651
 20
242.663446
 30
0.0
 10
-38.754060
 20
242.943305
 30
0.0
 10
-38.487190
 20
243.124304
 30
0.0
 10
-38.081143
 20
243.227507
 30
0.0
 10
-36.775919
 20
243.284792
 30
0.0
 10
-34.898423
 20
243.431672
 30
0.0
 10
-34.998210
 20
243.897641
 30
0.0
 10
-35.444383
 20
244.811672
 30
0.0
 10
-36.706359
 20
247.460710
 30
0.0
 10
-37.765968
 20
250.492665
 30
0.0
 10
-38.563697
 20
253.707381
 30
0.0
 10
-39.040031
 20
256.904704
 30
0.0
 10
-39.163578
 20
259.044418
 30
0.0
 10
-39.130394
 20
260.922008
 30
0.0
 10
-38.956485
 20
262.286904
 30
0.0
 10
-38.821760
 20
262.698789
 30
0.0
 10
-38.657855
 20
262.888536
 30
0.0
 10
-37.254097
 20
262.675543
 30
0.0
 10
-34.445734
 20
261.941741
 30
0.0
 10
-31.230294
 20
260.969627
 30
0.0
 10
-28.605303
 20
260.041696
 30
0.0
 10
-25.425261
 20
258.652107
 30
0.0
 10
-22.887137
 20
257.323240
 30
0.0
 10
-20.943430
 20
256.027277
 30
0.0
 10
-19.546639
 20
254.736400
 30
0.0
 10
-18.979048
 20
254.218214
 30
0.0
 10
-18.782970
 20
254.168286
 30
0.0
 10
-18.626383
 20
254.247720
 30
0.0
 10
-18.522006
 20
254.567908
 30
0.0
 10
-18.584109
 20
255.198922
 30
0.0
 10
-19.250495
 20
257.624792
 30
0.0
 10
-19.300482
 20
258.016872
 30
0.0
 10
-19.036155
 20
258.144293
 30
0.0
 10
-17.067343
 20
257.599352
 30
0.0
 10
-14.808075
 20
256.700762
 30
0.0
 10
-12.704875
 20
255.599603
 30
0.0
 10
-10.768619
 20
254.306080
 30
0.0
 10
-9.010184
 20
252.830404
 30
0.0
 10
-7.440449
 20
251.182781
 30
0.0
 10
-6.070289
 20
249.373419
 30
0.0
 10
-4.910583
 20
247.412527
 30
0.0
 10
-3.972207
 20
245.310312
 30
0.0
 10
-3.371361
 20
243.931285
 30
0.0
 10
-2.997423
 20
243.434360
 30
0.0
 10
-2.409135
 20
244.505184
 30
0.0
 10
-2.047056
 20
245.168764
 30
0.0
 10
-1.704471
 20
245.444768
 30
0.0
 10
-1.086613
 20
245.065357
 30
0.0
 10
-0.071010
 20
244.129691
 30
0.0
 10
1.038314
 20
242.941622
 30
0.0
 10
1.937337
 20
241.805000
 30
0.0
 10
2.729622
 20
240.530289
 30
0.0
 10
3.472191
 20
239.103109
 30
0.0
 10
4.672137
 20
236.076312
 30
0.0
 10
4.965861
 20
235.019225
 30
0.0
 10
5.132997
 20
233.984327
 30
0.0
 10
5.211177
 20
230.761792
 30
0.0
 10
5.093958
 20
227.541627
 30
0.0
 10
4.887045
 20
226.701126
 30
0.0
 10
4.505265
 20
225.843992
 30
0.0
 10
4.025505
 20
224.609257
 30
0.0
 10
3.846561
 20
223.612128
 30
0.0
 10
3.787295
 20
222.930589
 30
0.0
 10
3.586434
 20
222.268079
 30
0.0
 10
3.266624
 20
221.679037
 30
0.0
 10
2.850513
 20
221.217904
 30
0.0
 10
2.585097
 20
220.831891
 30
0.0
 10
2.474697
 20
220.341808
 30
0.0
 10
2.321639
 20
219.652357
 30
0.0
 10
1.963986
 20
218.740587
 30
0.0
 10
1.554020
 20
217.945168
 30
0.0
 10
1.244025
 20
217.604768
 30
0.0
 10
0.691833
 20
217.227632
 30
0.0
 10
0.387426
 20
216.988971
 30
0.0
 10
0.314697
 20
217.191472
 30
0.0
 10
-0.496743
 20
219.068608
 30
0.0
 10
-2.571567
 20
223.685912
 30
0.0
 10
-3.834975
 20
226.767048
 30
0.0
 10
-3.697359
 20
229.325912
 30
0.0
 10
-3.485352
 20
231.685087
 30
0.0
 10
-3.168879
 20
233.763840
 30
0.0
 10
-2.882703
 20
235.923840
 30
0.0
 10
-2.986082
 20
235.973289
 30
0.0
 10
-3.148008
 20
235.779029
 30
0.0
 10
-3.584974
 20
234.822348
 30
0.0
 10
-4.068553
 20
233.379727
 30
0.0
 10
-4.473695
 20
231.777096
 30
0.0
 10
-4.832419
 20
230.325990
 30
0.0
 10
-5.108343
 20
229.684536
 30
0.0
 10
-5.649321
 20
230.358260
 30
0.0
 10
-6.645303
 20
232.069168
 30
0.0
 10
-8.749666
 20
235.670790
 30
0.0
 10
-11.115264
 20
239.171218
 30
0.0
 10
-13.701928
 20
242.527239
 30
0.0
 10
-16.469487
 20
245.695638
 30
0.0
 10
-19.377774
 20
248.633203
 30
0.0
 10
-22.386618
 20
251.296721
 30
0.0
 10
-25.455851
 20
253.642977
 30
0.0
 10
-28.545303
 20
255.628760
 30
0.0
 10
-29.685303
 20
256.158224
 30
0.0
 10
-27.403671
 20
254.209640
 30
0.0
 10
-24.166772
 20
251.434160
 30
0.0
 10
-21.096078
 20
248.395799
 30
0.0
 10
-18.202437
 20
245.106067
 30
0.0
 10
-15.496695
 20
241.576472
 30
0.0
 10
-13.963215
 20
239.211349
 30
0.0
 10
-13.899854
 20
238.808386
 30
0.0
 10
-14.265303
 20
238.835880
 30
0.0
 10
-15.631861
 20
239.245457
 30
0.0
 10
-17.421633
 20
239.615518
 30
0.0
 10
-19.388240
 20
239.902938
 30
0.0
 10
-21.285303
 20
240.064592
 30
0.0
 10
-23.037365
 20
240.097293
 30
0.0
 10
-23.666910
 20
239.990596
 30
0.0
 10
-23.165652
 20
239.765909
 30
0.0
 10
-21.525303
 20
239.444640
 30
0.0
 10
-18.768568
 20
238.836359
 30
0.0
 10
-16.142766
 20
237.964965
 30
0.0
 10
-13.838233
 20
236.905017
 30
0.0
 10
-12.045303
 20
235.731072
 30
0.0
 10
-11.165437
 20
234.793498
 30
0.0
 10
-10.083560
 20
233.212679
 30
0.0
 10
-8.718083
 20
230.857391
 30
0.0
 10
-6.987415
 20
227.596408
 30
0.0
 10
-3.992285
 20
221.418508
 30
0.0
 10
-3.119731
 20
219.306989
 30
0.0
 10
-2.805303
 20
218.166064
 30
0.0
 10
-2.593803
 20
217.337561
 30
0.0
 10
-2.085303
 20
216.247824
 30
0.0
 10
-1.365303
 20
214.737664
 30
0.0
 10
2.396655
 20
209.425312
 30
0.0
 10
4.005662
 20
208.056072
 30
0.0
  0
LWPOLYLINE
  5
10d
100
AcDbEntity
  8
0
 62
7
100
AcDbPolyline
 90
18
 70
0
 10
48.025847
 20
94.254520
 30
0.0
 10
47.950512
 20
93.881369
 30
0.0
 10
47.745066
 20
93.576649
 30
0.0
 10
47.440349
 20
93.371200
 30
0.0
 10
47.067199
 20
93.295864
 30
0.0
 10
46.694048
 20
93.371200
 30
0.0
 10
46.389328
 20
93.576649
 30
0.0
 10
46.183880
 20
93.881369
 30
0.0
 10
46.108543
 20
94.254520
 30
0.0
 10
46.183880
 20
94.627671
 30
0.0
 10
46.389328
 20
94.932391
 30
0.0
 10
46.694048
 20
95.137840
 30
0.0
 10
47.067199
 20
95.213176
 30
0.0
 10
47.440349
 20
95.137840
 30
0.0
 10
47.745066
 20
94.932391
 30
0.0
 10
47.950512
 20
94.627671
 30
0.0
 10
48.025847
 20
94.254520
 30
0.0
 10
48.025847
 20
94.254520
 30
0.0
  0
LWPOLYLINE
  5
10e
100
AcDbEntity
  8
0
 62
7
100
AcDbPolyline
 90
78
 70
0
 10
49.153471
 20
94.226872
 30
0.0
 10
48.990243
 20
93.418380
 30
0.0
 10
48.545107
 20
92.758156
 30
0.0
 10
47.884883
 20
92.313020
 30
0.0
 10
47.076391
 20
92.149792
 30
0.0
 10
46.267895
 20
92.313019
 30
0.0
 10
45.607668
 20
92.758153
 30
0.0
 10
45.162531
 20
93.418377
 30
0.0
 10
44.999303
 20
94.226872
 30
0.0
 10
45.162531
 20
95.035365
 30
0.0
 10
45.607668
 20
95.695592
 30
0.0
 10
45.728545
 20
95.977655
 30
0.0
 10
45.627992
 20
96.231720
 30
0.0
 10
45.366407
 20
96.485944
 30
0.0
 10
45.310836
 20
96.951096
 30
0.0
 10
45.621950
 20
98.011699
 30
0.0
 10
47.573183
 20
102.548152
 30
0.0
 10
48.750599
 20
105.125464
 30
0.0
 10
48.297551
 20
106.709704
 30
0.0
 10
47.593677
 20
109.750874
 30
0.0
 10
47.136515
 20
112.979071
 30
0.0
 10
46.951621
 20
116.139970
 30
0.0
 10
47.064551
 20
118.979248
 30
0.0
 10
47.484315
 20
121.795573
 30
0.0
 10
48.138024
 20
124.358755
 30
0.0
 10
49.039892
 20
126.690947
 30
0.0
 10
50.204132
 20
128.814304
 30
0.0
 10
51.644959
 20
130.750978
 30
0.0
 10
53.376588
 20
132.523123
 30
0.0
 10
55.413231
 20
134.152892
 30
0.0
 10
57.769103
 20
135.662440
 30
0.0
 10
61.344770
 20
137.608261
 30
0.0
 10
65.137841
 20
139.437367
 30
0.0
 10
69.150791
 20
141.150882
 30
0.0
 10
73.386095
 20
142.749928
 30
0.0
 10
77.086226
 20
144.121627
 30
0.0
 10
79.808739
 20
145.288468
 30
0.0
 10
81.845780
 20
146.389663
 30
0.0
 10
83.489496
 20
147.564424
 30
0.0
 10
84.729792
 20
148.379248
 30
0.0
 10
84.986934
 20
148.086407
 30
0.0
 10
85.334123
 20
147.273887
 30
0.0
 10
86.191308
 20
144.485836
 30
0.0
 10
87.086690
 20
140.807145
 30
0.0
 10
87.805608
 20
137.029864
 30
0.0
 10
88.130189
 20
133.754890
 30
0.0
 10
88.238328
 20
129.910234
 30
0.0
 10
88.130108
 20
126.192739
 30
0.0
 10
87.805608
 20
123.299248
 30
0.0
 10
87.320285
 20
121.132580
 30
0.0
 10
86.719381
 20
119.075753
 30
0.0
 10
86.001997
 20
117.126965
 30
0.0
 10
85.167231
 20
115.284412
 30
0.0
 10
84.214184
 20
113.546290
 30
0.0
 10
83.141955
 20
111.910796
 30
0.0
 10
81.949645
 20
110.376128
 30
0.0
 10
80.636352
 20
108.940480
 30
0.0
 10
79.014301
 20
107.437257
 30
0.0
 10
77.249768
 20
106.055917
 30
0.0
 10
75.348289
 20
104.799272
 30
0.0
 10
73.315403
 20
103.670134
 30
0.0
 10
71.156648
 20
102.671313
 30
0.0
 10
68.877561
 20
101.805622
 30
0.0
 10
66.483680
 20
101.075871
 30
0.0
 10
63.980543
 20
100.484872
 30
0.0
 10
60.973415
 20
100.011796
 30
0.0
 10
58.132154
 20
99.828139
 30
0.0
 10
55.642366
 20
99.936519
 30
0.0
 10
53.689655
 20
100.339552
 30
0.0
 10
52.615844
 20
100.629244
 30
0.0
 10
52.056239
 20
100.638640
 30
0.0
 10
50.976239
 20
97.730008
 30
0.0
 10
50.279594
 20
95.794987
 30
0.0
 10
49.849655
 20
94.960072
 30
0.0
 10
49.501563
 20
94.808560
 30
0.0
 10
49.262250
 20
94.583408
 30
0.0
 10
49.153471
 20
94.226872
 30
0.0
 10
49.153471
 20
94.226872
 30
0.0
  0
LWPOLYLINE
  5
10f
100
AcDbEntity
  8
0
 62
7
100
AcDbPolyline
 90
18
 70
0
 10
54.591142
 20
263.764680
 30
0.0
 10
54.515806
 20
263.391529
 30
0.0
 10
54.310361
 20
263.086809
 30
0.0
 10
54.005643
 20
262.881360
 30
0.0
 10
53.632494
 20
262.806024
 30
0.0
 10
53.259343
 20
262.881360
 30
0.0
 10
52.954623
 20
263.086809
 30
0.0
 10
52.749174
 20
263.391529
 30
0.0
 10
52.673838
 20
263.764680
 30
0.0
 10
52.749174
 20
264.137831
 30
0.0
 10
52.954623
 20
264.442551
 30
0.0
 10
53.259343
 20
264.648000
 30
0.0
 10
53.632494
 20
264.723336
 30
0.0
 10
54.005643
 20
264.648000
 30
0.0
 10
54.310361
 20
264.442551
 30
0.0
 10
54.515806
 20
264.137831
 30
0.0
 10
54.591142
 20
263.764680
 30
0.0
 10
54.591142
 20
263.764680
 30
0.0
  0
LWPOLYLINE
  5
110
100
AcDbEntity
  8
0
 62
7
100
AcDbPolyline
 90
208
 70
0
 10
55.110406
 20
265.205752
 30
0.0
 10
55.555538
 20
264.545525
 30
0.0
 10
55.718766
 20
263.737032
 30
0.0
 10
55.555538
 20
262.928540
 30
0.0
 10
55.110402
 20
262.268316
 30
0.0
 10
54.450177
 20
261.823180
 30
0.0
 10
53.641686
 20
261.659952
 30
0.0
 10
52.833189
 20
261.823179
 30
0.0
 10
52.172963
 20
262.268313
 30
0.0
 10
51.727825
 20
262.928537
 30
0.0
 10
51.564598
 20
263.737032
 30
0.0
 10
51.613856
 20
264.533316
 30
0.0
 10
51.808262
 20
265.166675
 30
0.0
 10
52.217757
 20
265.584945
 30
0.0
 10
52.912284
 20
265.735960
 30
0.0
 10
52.993052
 20
265.796120
 30
0.0
 10
52.837898
 20
268.490712
 30
0.0
 10
52.837874
 20
268.490712
 30
0.0
 10
52.770521
 20
270.988679
 30
0.0
 10
52.584530
 20
271.993120
 30
0.0
 10
51.616397
 20
271.716157
 30
0.0
 10
49.644530
 20
270.830392
 30
0.0
 10
47.147831
 20
269.701541
 30
0.0
 10
44.917874
 20
268.840152
 30
0.0
 10
43.713596
 20
268.477054
 30
0.0
 10
42.631124
 20
268.273936
 30
0.0
 10
39.277874
 20
268.160360
 30
0.0
 10
36.241874
 20
268.243002
 30
0.0
 10
33.997874
 20
268.454032
 30
0.0
 10
29.720594
 20
269.334112
 30
0.0
 10
27.529514
 20
269.971240
 30
0.0
 10
27.493717
 20
270.140694
 30
0.0
 10
27.627573
 20
270.418203
 30
0.0
 10
28.390499
 20
271.283888
 30
0.0
 10
31.800986
 20
274.163472
 30
0.0
 10
34.906819
 20
276.425654
 30
0.0
 10
37.719694
 20
278.130650
 30
0.0
 10
40.279437
 20
279.284431
 30
0.0
 10
42.625874
 20
279.892972
 30
0.0
 10
43.731549
 20
279.994643
 30
0.0
 10
44.798832
 20
279.962244
 30
0.0
 10
45.832702
 20
279.796522
 30
0.0
 10
46.838137
 20
279.498222
 30
0.0
 10
47.820115
 20
279.068092
 30
0.0
 10
48.783614
 20
278.506877
 30
0.0
 10
50.675090
 20
276.994184
 30
0.0
 10
52.462826
 20
275.464872
 30
0.0
 10
52.533138
 20
277.465640
 30
0.0
 10
52.461341
 20
281.885628
 30
0.0
 10
52.307668
 20
286.351360
 30
0.0
 10
52.132346
 20
288.489360
 30
0.0
 10
51.490181
 20
288.378984
 30
0.0
 10
50.181386
 20
287.854536
 30
0.0
 10
48.452709
 20
287.125261
 30
0.0
 10
46.808332
 20
286.569910
 30
0.0
 10
45.226210
 20
286.186630
 30
0.0
 10
43.684298
 20
285.973568
 30
0.0
 10
42.160554
 20
285.928870
 30
0.0
 10
40.632931
 20
286.050684
 30
0.0
 10
39.079386
 20
286.337156
 30
0.0
 10
37.477874
 20
286.786432
 30
0.0
 10
35.930391
 20
287.381278
 30
0.0
 10
34.153715
 20
288.210654
 30
0.0
 10
30.449732
 20
290.249477
 30
0.0
 10
27.439821
 20
292.255866
 30
0.0
 10
26.530734
 20
293.044699
 30
0.0
 10
26.197874
 20
293.582784
 30
0.0
 10
26.386878
 20
293.822246
 30
0.0
 10
26.907314
 20
294.187583
 30
0.0
 10
28.663016
 20
295.155013
 30
0.0
 10
30.906060
 20
296.203324
 30
0.0
 10
33.077522
 20
297.050768
 30
0.0
 10
35.282411
 20
297.643314
 30
0.0
 10
37.569434
 20
298.058128
 30
0.0
 10
39.164085
 20
298.182878
 30
0.0
 10
40.771793
 20
298.169986
 30
0.0
 10
42.378494
 20
298.022513
 30
0.0
 10
43.970120
 20
297.743520
 30
0.0
 10
45.532607
 20
297.336068
 30
0.0
 10
47.051888
 20
296.803220
 30
0.0
 10
48.513898
 20
296.148035
 30
0.0
 10
49.904570
 20
295.373576
 30
0.0
 10
51.276080
 20
294.605122
 30
0.0
 10
51.971618
 20
294.362808
 30
0.0
 10
52.068205
 20
295.269423
 30
0.0
 10
52.022009
 20
297.134390
 30
0.0
 10
51.880274
 20
299.016058
 30
0.0
 10
51.690242
 20
299.972776
 30
0.0
 10
51.047813
 20
300.013843
 30
0.0
 10
49.745306
 20
299.892664
 30
0.0
 10
48.396234
 20
299.772176
 30
0.0
 10
47.124172
 20
299.778400
 30
0.0
 10
45.939305
 20
299.908290
 30
0.0
 10
44.851817
 20
300.158797
 30
0.0
 10
43.871894
 20
300.526875
 30
0.0
 10
43.009721
 20
301.009475
 30
0.0
 10
42.275482
 20
301.603551
 30
0.0
 10
41.679362
 20
302.306056
 30
0.0
 10
41.273817
 20
302.945026
 30
0.0
 10
41.060045
 20
303.557998
 30
0.0
 10
40.972034
 20
305.906053
 30
0.0
 10
41.006996
 20
307.357459
 30
0.0
 10
41.132780
 20
308.497769
 30
0.0
 10
41.896706
 20
311.224869
 30
0.0
 10
43.131026
 20
314.704869
 30
0.0
 10
44.181458
 20
317.278797
 30
0.0
 10
45.676667
 20
320.633688
 30
0.0
 10
47.605562
 20
324.379039
 30
0.0
 10
49.540182
 20
327.728915
 30
0.0
 10
51.052562
 20
329.897381
 30
0.0
 10
51.432499
 20
330.253214
 30
0.0
 10
51.613037
 20
330.224371
 30
0.0
 10
51.596859
 20
329.803509
 30
0.0
 10
51.386642
 20
328.983285
 30
0.0
 10
51.206297
 20
327.912098
 30
0.0
 10
51.125474
 20
326.514037
 30
0.0
 10
51.152385
 20
325.518424
 30
0.0
 10
51.374480
 20
324.659386
 30
0.0
 10
51.981665
 20
323.467673
 30
0.0
 10
53.163842
 20
321.474037
 30
0.0
 10
55.961276
 20
316.413305
 30
0.0
 10
57.022682
 20
314.173487
 30
0.0
 10
57.770042
 20
312.304869
 30
0.0
 10
58.096859
 20
310.858040
 30
0.0
 10
58.298450
 20
309.064597
 30
0.0
 10
58.410866
 20
307.024333
 30
0.0
 10
57.205754
 20
305.224597
 30
0.0
 10
55.921640
 20
303.538197
 30
0.0
 10
54.526610
 20
302.010936
 30
0.0
 10
53.442713
 20
300.844044
 30
0.0
 10
53.221684
 20
300.467285
 30
0.0
 10
53.201810
 20
300.210936
 30
0.0
 10
53.969654
 20
297.329685
 30
0.0
 10
54.775226
 20
293.704872
 30
0.0
 10
55.026412
 20
292.545232
 30
0.0
 10
55.265183
 20
291.991416
 30
0.0
 10
55.394131
 20
291.926355
 30
0.0
 10
55.537035
 20
291.994346
 30
0.0
 10
55.887458
 20
292.504944
 30
0.0
 10
57.288664
 20
294.863729
 30
0.0
 10
58.830905
 20
297.029781
 30
0.0
 10
60.503239
 20
298.993377
 30
0.0
 10
62.294726
 20
300.744791
 30
0.0
 10
64.194425
 20
302.274299
 30
0.0
 10
66.191394
 20
303.572175
 30
0.0
 10
68.274692
 20
304.628695
 30
0.0
 10
70.433378
 20
305.434133
 30
0.0
 10
72.236100
 20
305.875199
 30
0.0
 10
74.259920
 20
306.193345
 30
0.0
 10
76.191662
 20
306.350907
 30
0.0
 10
77.718146
 20
306.310221
 30
0.0
 10
78.794015
 20
306.080156
 30
0.0
 10
78.961419
 20
305.878418
 30
0.0
 10
78.997874
 20
305.549917
 30
0.0
 10
78.807178
 20
304.503934
 30
0.0
 10
78.324695
 20
302.971999
 30
0.0
 10
77.684834
 20
301.333758
 30
0.0
 10
77.022002
 20
299.968856
 30
0.0
 10
76.035617
 20
298.543667
 30
0.0
 10
74.719796
 20
297.044339
 30
0.0
 10
73.284392
 20
295.688644
 30
0.0
 10
71.939258
 20
294.694352
 30
0.0
 10
70.537010
 20
293.957838
 30
0.0
 10
69.054986
 20
293.325256
 30
0.0
 10
66.678158
 20
292.643539
 30
0.0
 10
63.537407
 20
291.966703
 30
0.0
 10
60.331168
 20
291.428460
 30
0.0
 10
57.757874
 20
291.162520
 30
0.0
 10
55.357874
 20
291.061464
 30
0.0
 10
55.414274
 20
290.283168
 30
0.0
 10
55.654274
 20
283.026672
 30
0.0
 10
55.837898
 20
276.548472
 30
0.0
 10
57.272474
 20
278.706672
 30
0.0
 10
58.653413
 20
280.587706
 30
0.0
 10
60.111101
 20
282.216936
 30
0.0
 10
61.568542
 20
283.516987
 30
0.0
 10
62.948738
 20
284.410488
 30
0.0
 10
64.007110
 20
284.835756
 30
0.0
 10
65.255570
 20
285.147445
 30
0.0
 10
66.667402
 20
285.345126
 30
0.0
 10
68.215889
 20
285.428369
 30
0.0
 10
71.615971
 20
285.249820
 30
0.0
 10
75.242090
 20
284.608360
 30
0.0
 10
76.833696
 20
284.177264
 30
0.0
 10
77.272105
 20
283.954690
 30
0.0
 10
77.490512
 20
283.675678
 30
0.0
 10
77.502615
 20
283.301410
 30
0.0
 10
77.322110
 20
282.793071
 30
0.0
 10
76.438058
 20
281.218912
 30
0.0
 10
74.118363
 20
277.661440
 30
0.0
 10
71.797481
 20
274.757156
 30
0.0
 10
69.523045
 20
272.558945
 30
0.0
 10
68.418127
 20
271.741145
 30
0.0
 10
67.342682
 20
271.119696
 30
0.0
 10
66.363404
 20
270.666231
 30
0.0
 10
65.562050
 20
270.423907
 30
0.0
 10
64.605969
 20
270.328869
 30
0.0
 10
63.162506
 20
270.317264
 30
0.0
 10
61.289557
 20
270.401702
 30
0.0
 10
59.650976
 20
270.656582
 30
0.0
 10
58.101829
 20
271.114313
 30
0.0
 10
56.497178
 20
271.807304
 30
0.0
 10
55.131002
 20
272.317984
 30
0.0
 10
54.783551
 20
271.585887
 30
0.0
 10
54.587472
 20
270.841510
 30
0.0
 10
54.530258
 20
269.938688
 30
0.0
 10
54.765084
 20
265.495216
 30
0.0
 10
55.110406
 20
265.205752
 30
0.0
  0
LWPOLYLINE
  5
111
100
AcDbEntity
  8
0
 62
7
100
AcDbPolyline
 90
18
 70
0
 10
-39.909031
 20
279.213960
 30
0.0
 10
-39.984366
 20
278.840809
 30
0.0
 10
-40.189812
 20
278.536089
 30
0.0
 10
-40.494530
 20
278.330640
 30
0.0
 10
-40.867679
 20
278.255304
 30
0.0
 10
-41.240830
 20
278.330640
 30
0.0
 10
-41.545550
 20
278.536089
 30
0.0
 10
-41.750999
 20
278.840809
 30
0.0
 10
-41.826335
 20
279.213960
 30
0.0
 10
-41.750999
 20
279.587111
 30
0.0
 10
-41.545550
 20
279.891831
 30
0.0
 10
-41.240830
 20
280.097280
 30
0.0
 10
-40.867679
 20
280.172616
 30
0.0
 10
-40.494530
 20
280.097280
 30
0.0
 10
-40.189812
 20
279.891831
 30
0.0
 10
-39.984366
 20
279.587111
 30
0.0
 10
-39.909031
 20
279.213960
 30
0.0
 10
-39.909031
 20
279.213960
 30
0.0
  0
LWPOLYLINE
  5
112
100
AcDbEntity
  8
0
 62
7
100
AcDbPolyline
 90
18
 70
0
 10
-91.551520
 20
299.970936
 30
0.0
 10
-91.626855
 20
299.597785
 30
0.0
 10
-91.832301
 20
299.293065
 30
0.0
 10
-92.137018
 20
299.087616
 30
0.0
 10
-92.510168
 20
299.012280
 30
0.0
 10
-92.883319
 20
299.087616
 30
0.0
 10
-93.188039
 20
299.293065
 30
0.0
 10
-93.393488
 20
299.597785
 30
0.0
 10
-93.468824
 20
299.970936
 30
0.0
 10
-93.393488
 20
300.344087
 30
0.0
 10
-93.188039
 20
300.648807
 30
0.0
 10
-92.883319
 20
300.854256
 30
0.0
 10
-92.510168
 20
300.929592
 30
0.0
 10
-92.137018
 20
300.854256
 30
0.0
 10
-91.832301
 20
300.648807
 30
0.0
 10
-91.626855
 20
300.344087
 30
0.0
 10
-91.551520
 20
299.970936
 30
0.0
 10
-91.551520
 20
299.970936
 30
0.0
  0
LWPOLYLINE
  5
113
100
AcDbEntity
  8
0
 62
7
100
AcDbPolyline
 90
136
 70
0
 10
-91.032256
 20
301.412008
 30
0.0
 10
-90.587124
 20
300.751781
 30
0.0
 10
-90.423896
 20
299.943288
 30
0.0
 10
-90.587124
 20
299.134796
 30
0.0
 10
-91.032260
 20
298.474572
 30
0.0
 10
-91.692484
 20
298.029436
 30
0.0
 10
-92.500976
 20
297.866208
 30
0.0
 10
-93.309472
 20
298.029435
 30
0.0
 10
-93.969699
 20
298.474569
 30
0.0
 10
-94.414836
 20
299.134793
 30
0.0
 10
-94.578064
 20
299.943288
 30
0.0
 10
-94.532875
 20
300.723291
 30
0.0
 10
-94.347423
 20
301.320831
 30
0.0
 10
-93.946882
 20
301.703282
 30
0.0
 10
-93.256424
 20
301.838016
 30
0.0
 10
-92.974904
 20
302.625728
 30
0.0
 10
-92.644992
 20
309.615009
 30
0.0
 10
-92.697604
 20
310.633091
 30
0.0
 10
-92.940836
 20
311.544042
 30
0.0
 10
-93.350395
 20
312.361226
 30
0.0
 10
-93.901991
 20
313.098007
 30
0.0
 10
-95.334126
 20
314.383819
 30
0.0
 10
-97.042909
 20
315.508388
 30
0.0
 10
-98.834008
 20
316.578628
 30
0.0
 10
-100.513090
 20
317.701452
 30
0.0
 10
-101.885825
 20
318.983772
 30
0.0
 10
-102.396583
 20
319.718153
 30
0.0
 10
-102.757880
 20
320.532500
 30
0.0
 10
-103.182392
 20
322.222329
 30
0.0
 10
-103.415128
 20
324.052454
 30
0.0
 10
-103.459807
 20
325.990000
 30
0.0
 10
-103.320146
 20
328.002093
 30
0.0
 10
-102.999865
 20
330.055857
 30
0.0
 10
-102.502683
 20
332.118419
 30
0.0
 10
-101.832317
 20
334.156903
 30
0.0
 10
-100.992488
 20
336.138434
 30
0.0
 10
-99.436142
 20
339.016698
 30
0.0
 10
-97.529461
 20
341.861793
 30
0.0
 10
-95.313890
 20
344.617412
 30
0.0
 10
-92.830872
 20
347.227246
 30
0.0
 10
-90.428676
 20
349.258454
 30
0.0
 10
-87.171573
 20
351.604492
 30
0.0
 10
-83.441318
 20
354.005980
 30
0.0
 10
-79.619667
 20
356.203534
 30
0.0
 10
-74.892476
 20
358.475998
 30
0.0
 10
-72.755654
 20
359.381236
 30
0.0
 10
-71.637835
 20
359.747196
 30
0.0
 10
-70.917067
 20
359.130321
 30
0.0
 10
-69.717451
 20
357.647196
 30
0.0
 10
-67.298380
 20
354.106069
 30
0.0
 10
-65.203290
 20
350.531841
 30
0.0
 10
-63.445062
 20
346.961163
 30
0.0
 10
-62.036575
 20
343.430685
 30
0.0
 10
-60.990709
 20
339.977057
 30
0.0
 10
-60.320342
 20
336.636930
 30
0.0
 10
-60.038355
 20
333.446954
 30
0.0
 10
-60.157627
 20
330.443779
 30
0.0
 10
-60.490859
 20
328.207890
 30
0.0
 10
-60.980401
 20
326.034146
 30
0.0
 10
-61.620455
 20
323.935833
 30
0.0
 10
-62.405228
 20
321.926241
 30
0.0
 10
-63.328924
 20
320.018655
 30
0.0
 10
-64.385747
 20
318.226364
 30
0.0
 10
-65.569903
 20
316.562656
 30
0.0
 10
-66.875595
 20
315.040817
 30
0.0
 10
-68.277828
 20
313.678708
 30
0.0
 10
-69.781423
 20
312.459046
 30
0.0
 10
-71.389655
 20
311.380220
 30
0.0
 10
-73.105801
 20
310.440622
 30
0.0
 10
-74.933134
 20
309.638641
 30
0.0
 10
-76.874931
 20
308.972669
 30
0.0
 10
-78.934467
 20
308.441096
 30
0.0
 10
-81.115016
 20
308.042313
 30
0.0
 10
-83.286078
 20
307.764554
 30
0.0
 10
-84.831205
 20
307.672728
 30
0.0
 10
-85.787979
 20
307.766894
 30
0.0
 10
-86.193984
 20
308.047113
 30
0.0
 10
-86.193984
 20
308.046825
 30
0.0
 10
-86.329530
 20
309.532713
 30
0.0
 10
-86.325265
 20
312.303432
 30
0.0
 10
-86.200197
 20
315.484273
 30
0.0
 10
-85.973336
 20
318.200529
 30
0.0
 10
-85.049234
 20
323.780017
 30
0.0
 10
-83.649944
 20
329.747196
 30
0.0
 10
-83.208233
 20
331.317770
 30
0.0
 10
-82.837414
 20
332.289994
 30
0.0
 10
-82.376136
 20
332.987677
 30
0.0
 10
-81.663048
 20
333.734626
 30
0.0
 10
-80.105002
 20
335.020766
 30
0.0
 10
-77.700386
 20
336.727740
 30
0.0
 10
-74.861256
 20
338.576164
 30
0.0
 10
-71.999667
 20
340.286652
 30
0.0
 10
-70.431792
 20
341.242535
 30
0.0
 10
-69.779667
 20
341.776109
 30
0.0
 10
-69.988279
 20
341.895346
 30
0.0
 10
-70.595964
 20
341.859093
 30
0.0
 10
-72.899667
 20
341.335498
 30
0.0
 10
-74.487282
 20
340.772972
 30
0.0
 10
-76.403388
 20
339.917933
 30
0.0
 10
-78.277634
 20
338.948634
 30
0.0
 10
-79.739667
 20
338.043331
 30
0.0
 10
-80.760179
 20
337.393315
 30
0.0
 10
-80.939862
 20
337.421665
 30
0.0
 10
-81.014512
 20
337.649998
 30
0.0
 10
-80.581296
 20
339.176472
 30
0.0
 10
-79.391325
 20
342.367155
 30
0.0
 10
-76.151491
 20
350.123554
 30
0.0
 10
-75.226377
 20
352.303049
 30
0.0
 10
-74.894531
 20
353.363554
 30
0.0
 10
-75.044100
 20
353.320093
 30
0.0
 10
-75.372075
 20
352.943390
 30
0.0
 10
-76.422537
 20
351.410196
 30
0.0
 10
-79.116523
 20
346.764264
 30
0.0
 10
-80.931316
 20
343.052768
 30
0.0
 10
-82.598766
 20
339.124344
 30
0.0
 10
-84.114690
 20
334.989585
 30
0.0
 10
-85.474904
 20
330.659086
 30
0.0
 10
-86.641304
 20
326.965558
 30
0.0
 10
-87.041370
 20
327.491511
 30
0.0
 10
-87.811240
 20
328.948018
 30
0.0
 10
-89.023998
 20
331.028557
 30
0.0
 10
-90.772064
 20
332.993894
 30
0.0
 10
-93.040917
 20
335.020087
 30
0.0
 10
-93.758900
 20
335.450791
 30
0.0
 10
-94.149736
 20
335.457122
 30
0.0
 10
-93.745316
 20
334.601557
 30
0.0
 10
-92.589336
 20
332.728238
 30
0.0
 10
-89.955435
 20
328.275466
 30
0.0
 10
-88.916376
 20
326.197483
 30
0.0
 10
-88.130736
 20
324.346566
 30
0.0
 10
-87.540392
 20
322.778173
 30
0.0
 10
-88.256064
 20
318.762681
 30
0.0
 10
-89.173317
 20
312.813046
 30
0.0
 10
-89.699664
 20
308.854905
 30
0.0
 10
-90.452432
 20
302.300504
 30
0.0
 10
-91.032256
 20
301.412008
 30
0.0
  0
ENDSEC
  0
SECTION
  2
OBJECTS
  0
DICTIONARY
  5
C
330
0
100
AcDbDictionary
  3
ACAD_GROUP
350
D
  3
ACAD_MLINESTYLE
350
17
  0
DICTIONARY
  5
D
330
C
100
AcDbDictionary
  0
DICTIONARY
  5
1A
330
C
100
AcDbDictionary
  0
DICTIONARY
  5
17
330
C
100
AcDbDictionary
  3
STANDARD
350
18
  0
DICTIONARY
  5
19
330
C
100
AcDbDictionary
  0
ENDSEC
  0
EOF
