  0
SECTION
  2
BLOCKS
  0
ENDSEC
  0
SECTION
  2
ENTITIES
  0
LINE
  8
0
 10
-312.487
 20
-3.25
 11
-312.162
 21
-9.75
  0
LINE
  8
0
 10
-312.162
 20
-9.75
 11
-309.237
 21
-9.75
  0
LINE
  8
0
 10
-309.237
 20
-9.75
 11
-309.237
 21
-16.25
  0
LINE
  8
0
 10
-309.237
 20
-16.25
 11
-304.457
 21
-16.25
  0
LINE
  8
0
 10
-304.457
 20
-16.25
 11
-303.807
 21
-3.25
  0
LINE
  8
0
 10
-303.807
 20
-3.25
 11
-303.157
 21
-16.25
  0
LINE
  8
0
 10
-303.157
 20
-16.25
 11
-295.777
 21
-16.25
  0
LINE
  8
0
 10
-295.777
 20
-16.25
 11
-295.127
 21
-3.25
  0
LINE
  8
0
 10
-295.127
 20
-3.25
 11
-294.477
 21
-16.25
  0
LINE
  8
0
 10
-294.477
 20
-16.25
 11
-287.097
 21
-16.25
  0
LINE
  8
0
 10
-287.097
 20
-16.25
 11
-286.447
 21
-3.25
  0
LINE
  8
0
 10
-286.447
 20
-3.25
 11
-285.797
 21
-16.25
  0
LINE
  8
0
 10
-285.797
 20
-16.25
 11
-278.416
 21
-16.25
  0
LINE
  8
0
 10
-278.416
 20
-16.25
 11
-277.766
 21
-3.25
  0
LINE
  8
0
 10
-277.766
 20
-3.25
 11
-277.116
 21
-16.25
  0
LINE
  8
0
 10
-277.116
 20
-16.25
 11
-269.736
 21
-16.25
  0
LINE
  8
0
 10
-269.736
 20
-16.25
 11
-269.086
 21
-3.25
  0
LINE
  8
0
 10
-269.086
 20
-3.25
 11
-268.436
 21
-16.25
  0
LINE
  8
0
 10
-268.436
 20
-16.25
 11
-263.656
 21
-16.25
  0
LINE
  8
0
 10
-263.656
 20
-16.25
 11
-263.656
 21
-9.75
  0
LINE
  8
0
 10
-263.656
 20
-9.75
 11
-260.731
 21
-9.75
  0
LINE
  8
0
 10
-260.731
 20
-9.75
 11
-260.406
 21
-3.25
  0
LINE
  8
0
 10
-260.406
 20
-3.25
 11
-260.081
 21
-9.75
  0
LINE
  8
0
 10
-260.081
 20
-9.75
 11
-257.156
 21
-9.75
  0
LINE
  8
0
 10
-257.156
 20
-9.75
 11
-257.156
 21
-16.25
  0
LINE
  8
0
 10
-257.156
 20
-16.25
 11
-252.376
 21
-16.25
  0
LINE
  8
0
 10
-252.376
 20
-16.25
 11
-251.726
 21
-3.25
  0
LINE
  8
0
 10
-251.726
 20
-3.25
 11
-251.076
 21
-16.25
  0
LINE
  8
0
 10
-251.076
 20
-16.25
 11
-243.696
 21
-16.25
  0
LINE
  8
0
 10
-243.696
 20
-16.25
 11
-243.046
 21
-3.25
  0
LINE
  8
0
 10
-243.046
 20
-3.25
 11
-242.396
 21
-16.25
  0
LINE
  8
0
 10
-242.396
 20
-16.25
 11
-235.015
 21
-16.25
  0
LINE
  8
0
 10
-235.015
 20
-16.25
 11
-234.365
 21
-3.25
  0
LINE
  8
0
 10
-234.365
 20
-3.25
 11
-233.715
 21
-16.25
  0
LINE
  8
0
 10
-233.715
 20
-16.25
 11
-226.335
 21
-16.25
  0
LINE
  8
0
 10
-226.335
 20
-16.25
 11
-225.685
 21
-3.25
  0
LINE
  8
0
 10
-225.685
 20
-3.25
 11
-225.035
 21
-16.25
  0
LINE
  8
0
 10
-225.035
 20
-16.25
 11
-217.655
 21
-16.25
  0
LINE
  8
0
 10
-217.655
 20
-16.25
 11
-217.005
 21
-3.25
  0
LINE
  8
0
 10
-217.005
 20
-3.25
 11
-216.355
 21
-16.25
  0
LINE
  8
0
 10
-216.355
 20
-16.25
 11
-211.575
 21
-16.25
  0
LINE
  8
0
 10
-211.575
 20
-16.25
 11
-211.575
 21
-9.75
  0
LINE
  8
0
 10
-211.575
 20
-9.75
 11
-208.65
 21
-9.75
  0
LINE
  8
0
 10
-208.65
 20
-9.75
 11
-208.325
 21
-3.25
  0
LINE
  8
0
 10
-208.325
 20
-3.25
 11
-208
 21
-9.75
  0
LINE
  8
0
 10
-208
 20
-9.75
 11
-205.075
 21
-9.75
  0
LINE
  8
0
 10
-205.075
 20
-9.75
 11
-205.075
 21
-16.25
  0
LINE
  8
0
 10
-205.075
 20
-16.25
 11
-200.295
 21
-16.25
  0
LINE
  8
0
 10
-200.295
 20
-16.25
 11
-199.645
 21
-3.25
  0
LINE
  8
0
 10
-199.645
 20
-3.25
 11
-198.995
 21
-16.25
  0
LINE
  8
0
 10
-198.995
 20
-16.25
 11
-191.614
 21
-16.25
  0
LINE
  8
0
 10
-191.614
 20
-16.25
 11
-190.964
 21
-3.25
  0
LINE
  8
0
 10
-190.964
 20
-3.25
 11
-190.314
 21
-16.25
  0
LINE
  8
0
 10
-190.314
 20
-16.25
 11
-182.934
 21
-16.25
  0
LINE
  8
0
 10
-182.934
 20
-16.25
 11
-182.284
 21
-3.25
  0
LINE
  8
0
 10
-182.284
 20
-3.25
 11
-181.634
 21
-16.25
  0
LINE
  8
0
 10
-181.634
 20
-16.25
 11
-174.254
 21
-16.25
  0
LINE
  8
0
 10
-174.254
 20
-16.25
 11
-173.604
 21
-3.25
  0
LINE
  8
0
 10
-173.604
 20
-3.25
 11
-172.954
 21
-16.25
  0
LINE
  8
0
 10
-172.954
 20
-16.25
 11
-165.574
 21
-16.25
  0
LINE
  8
0
 10
-165.574
 20
-16.25
 11
-164.924
 21
-3.25
  0
LINE
  8
0
 10
-164.924
 20
-3.25
 11
-164.274
 21
-16.25
  0
LINE
  8
0
 10
-164.274
 20
-16.25
 11
-159.494
 21
-16.25
  0
LINE
  8
0
 10
-159.494
 20
-16.25
 11
-159.494
 21
-9.75
  0
LINE
  8
0
 10
-159.494
 20
-9.75
 11
-156.569
 21
-9.75
  0
LINE
  8
0
 10
-156.569
 20
-9.75
 11
-156.244
 21
-3.25
  0
LINE
  8
0
 10
-156.244
 20
-3.25
 11
-155.919
 21
-9.75
  0
LINE
  8
0
 10
-155.919
 20
-9.75
 11
-152.994
 21
-9.75
  0
LINE
  8
0
 10
-152.994
 20
-9.75
 11
-152.994
 21
-16.25
  0
LINE
  8
0
 10
-152.994
 20
-16.25
 11
-148.213
 21
-16.25
  0
LINE
  8
0
 10
-148.213
 20
-16.25
 11
-147.563
 21
-3.25
  0
LINE
  8
0
 10
-147.563
 20
-3.25
 11
-146.913
 21
-16.25
  0
LINE
  8
0
 10
-146.913
 20
-16.25
 11
-139.533
 21
-16.25
  0
LINE
  8
0
 10
-139.533
 20
-16.25
 11
-138.883
 21
-3.25
  0
LINE
  8
0
 10
-138.883
 20
-3.25
 11
-138.233
 21
-16.25
  0
LINE
  8
0
 10
-138.233
 20
-16.25
 11
-130.853
 21
-16.25
  0
LINE
  8
0
 10
-130.853
 20
-16.25
 11
-130.203
 21
-3.25
  0
LINE
  8
0
 10
-130.203
 20
-3.25
 11
-129.553
 21
-16.25
  0
LINE
  8
0
 10
-129.553
 20
-16.25
 11
-122.173
 21
-16.25
  0
LINE
  8
0
 10
-122.173
 20
-16.25
 11
-121.523
 21
-3.25
  0
LINE
  8
0
 10
-121.523
 20
-3.25
 11
-120.873
 21
-16.25
  0
LINE
  8
0
 10
-120.873
 20
-16.25
 11
-113.493
 21
-16.25
  0
LINE
  8
0
 10
-113.493
 20
-16.25
 11
-112.843
 21
-3.25
  0
LINE
  8
0
 10
-112.843
 20
-3.25
 11
-112.193
 21
-16.25
  0
LINE
  8
0
 10
-112.193
 20
-16.25
 11
-107.412
 21
-16.25
  0
LINE
  8
0
 10
-107.412
 20
-16.25
 11
-107.412
 21
-9.75
  0
LINE
  8
0
 10
-107.412
 20
-9.75
 11
-104.487
 21
-9.75
  0
LINE
  8
0
 10
-104.487
 20
-9.75
 11
-104.162
 21
-3.25
  0
LINE
  8
0
 10
-104.162
 20
-3.25
 11
-103.837
 21
-9.75
  0
LINE
  8
0
 10
-103.837
 20
-9.75
 11
-100.912
 21
-9.75
  0
LINE
  8
0
 10
-100.912
 20
-9.75
 11
-100.912
 21
-16.25
  0
LINE
  8
0
 10
-100.912
 20
-16.25
 11
-96.1322
 21
-16.25
  0
LINE
  8
0
 10
-96.1322
 20
-16.25
 11
-95.4822
 21
-3.25
  0
LINE
  8
0
 10
-95.4822
 20
-3.25
 11
-94.8322
 21
-16.25
  0
LINE
  8
0
 10
-94.8322
 20
-16.25
 11
-87.452
 21
-16.25
  0
LINE
  8
0
 10
-87.452
 20
-16.25
 11
-86.802
 21
-3.25
  0
LINE
  8
0
 10
-86.802
 20
-3.25
 11
-86.152
 21
-16.25
  0
LINE
  8
0
 10
-86.152
 20
-16.25
 11
-78.7718
 21
-16.25
  0
LINE
  8
0
 10
-78.7718
 20
-16.25
 11
-78.1218
 21
-3.25
  0
LINE
  8
0
 10
-78.1218
 20
-3.25
 11
-77.4718
 21
-16.25
  0
LINE
  8
0
 10
-77.4718
 20
-16.25
 11
-70.0916
 21
-16.25
  0
LINE
  8
0
 10
-70.0916
 20
-16.25
 11
-69.4416
 21
-3.25
  0
LINE
  8
0
 10
-69.4416
 20
-3.25
 11
-68.7916
 21
-16.25
  0
LINE
  8
0
 10
-68.7916
 20
-16.25
 11
-61.4114
 21
-16.25
  0
LINE
  8
0
 10
-61.4114
 20
-16.25
 11
-60.7614
 21
-3.25
  0
LINE
  8
0
 10
-60.7614
 20
-3.25
 11
-60.1114
 21
-16.25
  0
LINE
  8
0
 10
-60.1114
 20
-16.25
 11
-55.3312
 21
-16.25
  0
LINE
  8
0
 10
-55.3312
 20
-16.25
 11
-55.3312
 21
-9.75
  0
LINE
  8
0
 10
-55.3312
 20
-9.75
 11
-52.4062
 21
-9.75
  0
LINE
  8
0
 10
-52.4062
 20
-9.75
 11
-52.0812
 21
-3.25
  0
LINE
  8
0
 10
-52.0812
 20
-3.25
 11
-51.7562
 21
-9.75
  0
LINE
  8
0
 10
-51.7562
 20
-9.75
 11
-48.8312
 21
-9.75
  0
LINE
  8
0
 10
-48.8312
 20
-9.75
 11
-48.8312
 21
-16.25
  0
LINE
  8
0
 10
-48.8312
 20
-16.25
 11
-44.051
 21
-16.25
  0
LINE
  8
0
 10
-44.051
 20
-16.25
 11
-43.401
 21
-3.25
  0
LINE
  8
0
 10
-43.401
 20
-3.25
 11
-42.751
 21
-16.25
  0
LINE
  8
0
 10
-42.751
 20
-16.25
 11
-35.3708
 21
-16.25
  0
LINE
  8
0
 10
-35.3708
 20
-16.25
 11
-34.7208
 21
-3.25
  0
LINE
  8
0
 10
-34.7208
 20
-3.25
 11
-34.0708
 21
-16.25
  0
LINE
  8
0
 10
-34.0708
 20
-16.25
 11
-26.6906
 21
-16.25
  0
LINE
  8
0
 10
-26.6906
 20
-16.25
 11
-26.0406
 21
-3.25
  0
LINE
  8
0
 10
-26.0406
 20
-3.25
 11
-25.3906
 21
-16.25
  0
LINE
  8
0
 10
-25.3906
 20
-16.25
 11
-18.0104
 21
-16.25
  0
LINE
  8
0
 10
-18.0104
 20
-16.25
 11
-17.3604
 21
-3.25
  0
LINE
  8
0
 10
-17.3604
 20
-3.25
 11
-16.7104
 21
-16.25
  0
LINE
  8
0
 10
-16.7104
 20
-16.25
 11
-9.3302
 21
-16.25
  0
LINE
  8
0
 10
-9.3302
 20
-16.25
 11
-8.6802
 21
-3.25
  0
LINE
  8
0
 10
-8.6802
 20
-3.25
 11
-8.0302
 21
-16.25
  0
LINE
  8
0
 10
-8.0302
 20
-16.25
 11
-3.25
 21
-16.25
  0
LINE
  8
0
 10
-3.25
 20
-16.25
 11
-3.25
 21
-9.75
  0
LINE
  8
0
 10
-3.25
 20
-9.75
 11
-0.325
 21
-9.75
  0
LINE
  8
0
 10
-0.325
 20
-9.75
 11
0
 21
-3.25
  0
LINE
  8
0
 10
0
 20
-3.25
 11
0.325
 21
-9.75
  0
LINE
  8
0
 10
0.325
 20
-9.75
 11
3.25
 21
-9.75
  0
LINE
  8
0
 10
3.25
 20
-9.75
 11
3.25
 21
-16.25
  0
LINE
  8
0
 10
3.25
 20
-16.25
 11
8.0302
 21
-16.25
  0
LINE
  8
0
 10
8.0302
 20
-16.25
 11
8.6802
 21
-3.25
  0
LINE
  8
0
 10
8.6802
 20
-3.25
 11
9.3302
 21
-16.25
  0
LINE
  8
0
 10
9.3302
 20
-16.25
 11
16.7104
 21
-16.25
  0
LINE
  8
0
 10
16.7104
 20
-16.25
 11
17.3604
 21
-3.25
  0
LINE
  8
0
 10
17.3604
 20
-3.25
 11
18.0104
 21
-16.25
  0
LINE
  8
0
 10
18.0104
 20
-16.25
 11
25.3906
 21
-16.25
  0
LINE
  8
0
 10
25.3906
 20
-16.25
 11
26.0406
 21
-3.25
  0
LINE
  8
0
 10
26.0406
 20
-3.25
 11
26.6906
 21
-16.25
  0
LINE
  8
0
 10
26.6906
 20
-16.25
 11
34.0708
 21
-16.25
  0
LINE
  8
0
 10
34.0708
 20
-16.25
 11
34.7208
 21
-3.25
  0
LINE
  8
0
 10
34.7208
 20
-3.25
 11
35.3708
 21
-16.25
  0
LINE
  8
0
 10
35.3708
 20
-16.25
 11
42.751
 21
-16.25
  0
LINE
  8
0
 10
42.751
 20
-16.25
 11
43.401
 21
-3.25
  0
LINE
  8
0
 10
43.401
 20
-3.25
 11
44.051
 21
-16.25
  0
LINE
  8
0
 10
44.051
 20
-16.25
 11
48.8312
 21
-16.25
  0
LINE
  8
0
 10
48.8312
 20
-16.25
 11
48.8312
 21
-9.75
  0
LINE
  8
0
 10
48.8312
 20
-9.75
 11
51.7562
 21
-9.75
  0
LINE
  8
0
 10
51.7562
 20
-9.75
 11
52.0812
 21
-3.25
  0
LINE
  8
0
 10
52.0812
 20
-3.25
 11
52.4062
 21
-9.75
  0
LINE
  8
0
 10
52.4062
 20
-9.75
 11
55.3312
 21
-9.75
  0
LINE
  8
0
 10
55.3312
 20
-9.75
 11
55.3312
 21
-16.25
  0
LINE
  8
0
 10
55.3312
 20
-16.25
 11
60.1114
 21
-16.25
  0
LINE
  8
0
 10
60.1114
 20
-16.25
 11
60.7614
 21
-3.25
  0
LINE
  8
0
 10
60.7614
 20
-3.25
 11
61.4114
 21
-16.25
  0
LINE
  8
0
 10
61.4114
 20
-16.25
 11
68.7916
 21
-16.25
  0
LINE
  8
0
 10
68.7916
 20
-16.25
 11
69.4416
 21
-3.25
  0
LINE
  8
0
 10
69.4416
 20
-3.25
 11
70.0916
 21
-16.25
  0
LINE
  8
0
 10
70.0916
 20
-16.25
 11
77.4718
 21
-16.25
  0
LINE
  8
0
 10
77.4718
 20
-16.25
 11
78.1218
 21
-3.25
  0
LINE
  8
0
 10
78.1218
 20
-3.25
 11
78.7718
 21
-16.25
  0
LINE
  8
0
 10
78.7718
 20
-16.25
 11
86.152
 21
-16.25
  0
LINE
  8
0
 10
86.152
 20
-16.25
 11
86.802
 21
-3.25
  0
LINE
  8
0
 10
86.802
 20
-3.25
 11
87.452
 21
-16.25
  0
LINE
  8
0
 10
87.452
 20
-16.25
 11
94.8322
 21
-16.25
  0
LINE
  8
0
 10
94.8322
 20
-16.25
 11
95.4822
 21
-3.25
  0
LINE
  8
0
 10
95.4822
 20
-3.25
 11
96.1322
 21
-16.25
  0
LINE
  8
0
 10
96.1322
 20
-16.25
 11
100.912
 21
-16.25
  0
LINE
  8
0
 10
100.912
 20
-16.25
 11
100.912
 21
-9.75
  0
LINE
  8
0
 10
100.912
 20
-9.75
 11
103.837
 21
-9.75
  0
LINE
  8
0
 10
103.837
 20
-9.75
 11
104.162
 21
-3.25
  0
LINE
  8
0
 10
104.162
 20
-3.25
 11
104.487
 21
-9.75
  0
LINE
  8
0
 10
104.487
 20
-9.75
 11
107.412
 21
-9.75
  0
LINE
  8
0
 10
107.412
 20
-9.75
 11
107.412
 21
-16.25
  0
LINE
  8
0
 10
107.412
 20
-16.25
 11
112.193
 21
-16.25
  0
LINE
  8
0
 10
112.193
 20
-16.25
 11
112.843
 21
-3.25
  0
LINE
  8
0
 10
112.843
 20
-3.25
 11
113.493
 21
-16.25
  0
LINE
  8
0
 10
113.493
 20
-16.25
 11
120.873
 21
-16.25
  0
LINE
  8
0
 10
120.873
 20
-16.25
 11
121.523
 21
-3.25
  0
LINE
  8
0
 10
121.523
 20
-3.25
 11
122.173
 21
-16.25
  0
LINE
  8
0
 10
122.173
 20
-16.25
 11
129.553
 21
-16.25
  0
LINE
  8
0
 10
129.553
 20
-16.25
 11
130.203
 21
-3.25
  0
LINE
  8
0
 10
130.203
 20
-3.25
 11
130.853
 21
-16.25
  0
LINE
  8
0
 10
130.853
 20
-16.25
 11
138.233
 21
-16.25
  0
LINE
  8
0
 10
138.233
 20
-16.25
 11
138.883
 21
-3.25
  0
LINE
  8
0
 10
138.883
 20
-3.25
 11
139.533
 21
-16.25
  0
LINE
  8
0
 10
139.533
 20
-16.25
 11
146.913
 21
-16.25
  0
LINE
  8
0
 10
146.913
 20
-16.25
 11
147.563
 21
-3.25
  0
LINE
  8
0
 10
147.563
 20
-3.25
 11
148.213
 21
-16.25
  0
LINE
  8
0
 10
148.213
 20
-16.25
 11
152.994
 21
-16.25
  0
LINE
  8
0
 10
152.994
 20
-16.25
 11
152.994
 21
-9.75
  0
LINE
  8
0
 10
152.994
 20
-9.75
 11
155.919
 21
-9.75
  0
LINE
  8
0
 10
155.919
 20
-9.75
 11
156.244
 21
-3.25
  0
LINE
  8
0
 10
156.244
 20
-3.25
 11
156.569
 21
-9.75
  0
LINE
  8
0
 10
156.569
 20
-9.75
 11
159.494
 21
-9.75
  0
LINE
  8
0
 10
159.494
 20
-9.75
 11
159.494
 21
-16.25
  0
LINE
  8
0
 10
159.494
 20
-16.25
 11
164.274
 21
-16.25
  0
LINE
  8
0
 10
164.274
 20
-16.25
 11
164.924
 21
-3.25
  0
LINE
  8
0
 10
164.924
 20
-3.25
 11
165.574
 21
-16.25
  0
LINE
  8
0
 10
165.574
 20
-16.25
 11
172.954
 21
-16.25
  0
LINE
  8
0
 10
172.954
 20
-16.25
 11
173.604
 21
-3.25
  0
LINE
  8
0
 10
173.604
 20
-3.25
 11
174.254
 21
-16.25
  0
LINE
  8
0
 10
174.254
 20
-16.25
 11
181.634
 21
-16.25
  0
LINE
  8
0
 10
181.634
 20
-16.25
 11
182.284
 21
-3.25
  0
LINE
  8
0
 10
182.284
 20
-3.25
 11
182.934
 21
-16.25
  0
LINE
  8
0
 10
182.934
 20
-16.25
 11
190.314
 21
-16.25
  0
LINE
  8
0
 10
190.314
 20
-16.25
 11
190.964
 21
-3.25
  0
LINE
  8
0
 10
190.964
 20
-3.25
 11
191.614
 21
-16.25
  0
LINE
  8
0
 10
191.614
 20
-16.25
 11
198.995
 21
-16.25
  0
LINE
  8
0
 10
198.995
 20
-16.25
 11
199.645
 21
-3.25
  0
LINE
  8
0
 10
199.645
 20
-3.25
 11
200.295
 21
-16.25
  0
LINE
  8
0
 10
200.295
 20
-16.25
 11
205.075
 21
-16.25
  0
LINE
  8
0
 10
205.075
 20
-16.25
 11
205.075
 21
-9.75
  0
LINE
  8
0
 10
205.075
 20
-9.75
 11
208
 21
-9.75
  0
LINE
  8
0
 10
208
 20
-9.75
 11
208.325
 21
-3.25
  0
LINE
  8
0
 10
208.325
 20
-3.25
 11
208.65
 21
-9.75
  0
LINE
  8
0
 10
208.65
 20
-9.75
 11
211.575
 21
-9.75
  0
LINE
  8
0
 10
211.575
 20
-9.75
 11
211.575
 21
-16.25
  0
LINE
  8
0
 10
211.575
 20
-16.25
 11
216.355
 21
-16.25
  0
LINE
  8
0
 10
216.355
 20
-16.25
 11
217.005
 21
-3.25
  0
LINE
  8
0
 10
217.005
 20
-3.25
 11
217.655
 21
-16.25
  0
LINE
  8
0
 10
217.655
 20
-16.25
 11
225.035
 21
-16.25
  0
LINE
  8
0
 10
225.035
 20
-16.25
 11
225.685
 21
-3.25
  0
LINE
  8
0
 10
225.685
 20
-3.25
 11
226.335
 21
-16.25
  0
LINE
  8
0
 10
226.335
 20
-16.25
 11
233.715
 21
-16.25
  0
LINE
  8
0
 10
233.715
 20
-16.25
 11
234.365
 21
-3.25
  0
LINE
  8
0
 10
234.365
 20
-3.25
 11
235.015
 21
-16.25
  0
LINE
  8
0
 10
235.015
 20
-16.25
 11
242.396
 21
-16.25
  0
LINE
  8
0
 10
242.396
 20
-16.25
 11
243.046
 21
-3.25
  0
LINE
  8
0
 10
243.046
 20
-3.25
 11
243.696
 21
-16.25
  0
LINE
  8
0
 10
243.696
 20
-16.25
 11
251.076
 21
-16.25
  0
LINE
  8
0
 10
251.076
 20
-16.25
 11
251.726
 21
-3.25
  0
LINE
  8
0
 10
251.726
 20
-3.25
 11
252.376
 21
-16.25
  0
LINE
  8
0
 10
252.376
 20
-16.25
 11
257.156
 21
-16.25
  0
LINE
  8
0
 10
257.156
 20
-16.25
 11
257.156
 21
-9.75
  0
LINE
  8
0
 10
257.156
 20
-9.75
 11
260.081
 21
-9.75
  0
LINE
  8
0
 10
260.081
 20
-9.75
 11
260.406
 21
-3.25
  0
LINE
  8
0
 10
260.406
 20
-3.25
 11
260.731
 21
-9.75
  0
LINE
  8
0
 10
260.731
 20
-9.75
 11
263.656
 21
-9.75
  0
LINE
  8
0
 10
263.656
 20
-9.75
 11
263.656
 21
-16.25
  0
LINE
  8
0
 10
263.656
 20
-16.25
 11
268.436
 21
-16.25
  0
LINE
  8
0
 10
268.436
 20
-16.25
 11
269.086
 21
-3.25
  0
LINE
  8
0
 10
269.086
 20
-3.25
 11
269.736
 21
-16.25
  0
LINE
  8
0
 10
269.736
 20
-16.25
 11
277.116
 21
-16.25
  0
LINE
  8
0
 10
277.116
 20
-16.25
 11
277.766
 21
-3.25
  0
LINE
  8
0
 10
277.766
 20
-3.25
 11
278.416
 21
-16.25
  0
LINE
  8
0
 10
278.416
 20
-16.25
 11
285.797
 21
-16.25
  0
LINE
  8
0
 10
285.797
 20
-16.25
 11
286.447
 21
-3.25
  0
LINE
  8
0
 10
286.447
 20
-3.25
 11
287.097
 21
-16.25
  0
LINE
  8
0
 10
287.097
 20
-16.25
 11
294.477
 21
-16.25
  0
LINE
  8
0
 10
294.477
 20
-16.25
 11
295.127
 21
-3.25
  0
LINE
  8
0
 10
295.127
 20
-3.25
 11
295.777
 21
-16.25
  0
LINE
  8
0
 10
295.777
 20
-16.25
 11
303.157
 21
-16.25
  0
LINE
  8
0
 10
303.157
 20
-16.25
 11
303.807
 21
-3.25
  0
LINE
  8
0
 10
303.807
 20
-3.25
 11
304.457
 21
-16.25
  0
LINE
  8
0
 10
304.457
 20
-16.25
 11
309.237
 21
-16.25
  0
LINE
  8
0
 10
309.237
 20
-16.25
 11
309.237
 21
-9.75
  0
LINE
  8
0
 10
309.237
 20
-9.75
 11
312.162
 21
-9.75
  0
LINE
  8
0
 10
312.162
 20
-9.75
 11
312.487
 21
-3.25
  0
LINE
  8
0
 10
312.487
 20
-3.25
 11
312.487
 21
3.25
  0
LINE
  8
0
 10
312.487
 20
3.25
 11
312.162
 21
9.75
  0
LINE
  8
0
 10
312.162
 20
9.75
 11
309.237
 21
9.75
  0
LINE
  8
0
 10
309.237
 20
9.75
 11
309.237
 21
16.25
  0
LINE
  8
0
 10
309.237
 20
16.25
 11
304.457
 21
16.25
  0
LINE
  8
0
 10
304.457
 20
16.25
 11
303.807
 21
3.25
  0
LINE
  8
0
 10
303.807
 20
3.25
 11
303.157
 21
16.25
  0
LINE
  8
0
 10
303.157
 20
16.25
 11
295.777
 21
16.25
  0
LINE
  8
0
 10
295.777
 20
16.25
 11
295.127
 21
3.25
  0
LINE
  8
0
 10
295.127
 20
3.25
 11
294.477
 21
16.25
  0
LINE
  8
0
 10
294.477
 20
16.25
 11
287.097
 21
16.25
  0
LINE
  8
0
 10
287.097
 20
16.25
 11
286.447
 21
3.25
  0
LINE
  8
0
 10
286.447
 20
3.25
 11
285.797
 21
16.25
  0
LINE
  8
0
 10
285.797
 20
16.25
 11
278.416
 21
16.25
  0
LINE
  8
0
 10
278.416
 20
16.25
 11
277.766
 21
3.25
  0
LINE
  8
0
 10
277.766
 20
3.25
 11
277.116
 21
16.25
  0
LINE
  8
0
 10
277.116
 20
16.25
 11
269.736
 21
16.25
  0
LINE
  8
0
 10
269.736
 20
16.25
 11
269.086
 21
3.25
  0
LINE
  8
0
 10
269.086
 20
3.25
 11
268.436
 21
16.25
  0
LINE
  8
0
 10
268.436
 20
16.25
 11
263.656
 21
16.25
  0
LINE
  8
0
 10
263.656
 20
16.25
 11
263.656
 21
9.75
  0
LINE
  8
0
 10
263.656
 20
9.75
 11
260.731
 21
9.75
  0
LINE
  8
0
 10
260.731
 20
9.75
 11
260.406
 21
3.25
  0
LINE
  8
0
 10
260.406
 20
3.25
 11
260.081
 21
9.75
  0
LINE
  8
0
 10
260.081
 20
9.75
 11
257.156
 21
9.75
  0
LINE
  8
0
 10
257.156
 20
9.75
 11
257.156
 21
16.25
  0
LINE
  8
0
 10
257.156
 20
16.25
 11
252.376
 21
16.25
  0
LINE
  8
0
 10
252.376
 20
16.25
 11
251.726
 21
3.25
  0
LINE
  8
0
 10
251.726
 20
3.25
 11
251.076
 21
16.25
  0
LINE
  8
0
 10
251.076
 20
16.25
 11
243.696
 21
16.25
  0
LINE
  8
0
 10
243.696
 20
16.25
 11
243.046
 21
3.25
  0
LINE
  8
0
 10
243.046
 20
3.25
 11
242.396
 21
16.25
  0
LINE
  8
0
 10
242.396
 20
16.25
 11
235.015
 21
16.25
  0
LINE
  8
0
 10
235.015
 20
16.25
 11
234.365
 21
3.25
  0
LINE
  8
0
 10
234.365
 20
3.25
 11
233.715
 21
16.25
  0
LINE
  8
0
 10
233.715
 20
16.25
 11
226.335
 21
16.25
  0
LINE
  8
0
 10
226.335
 20
16.25
 11
225.685
 21
3.25
  0
LINE
  8
0
 10
225.685
 20
3.25
 11
225.035
 21
16.25
  0
LINE
  8
0
 10
225.035
 20
16.25
 11
217.655
 21
16.25
  0
LINE
  8
0
 10
217.655
 20
16.25
 11
217.005
 21
3.25
  0
LINE
  8
0
 10
217.005
 20
3.25
 11
216.355
 21
16.25
  0
LINE
  8
0
 10
216.355
 20
16.25
 11
211.575
 21
16.25
  0
LINE
  8
0
 10
211.575
 20
16.25
 11
211.575
 21
9.75
  0
LINE
  8
0
 10
211.575
 20
9.75
 11
208.65
 21
9.75
  0
LINE
  8
0
 10
208.65
 20
9.75
 11
208.325
 21
3.25
  0
LINE
  8
0
 10
208.325
 20
3.25
 11
208
 21
9.75
  0
LINE
  8
0
 10
208
 20
9.75
 11
205.075
 21
9.75
  0
LINE
  8
0
 10
205.075
 20
9.75
 11
205.075
 21
16.25
  0
LINE
  8
0
 10
205.075
 20
16.25
 11
200.295
 21
16.25
  0
LINE
  8
0
 10
200.295
 20
16.25
 11
199.645
 21
3.25
  0
LINE
  8
0
 10
199.645
 20
3.25
 11
198.995
 21
16.25
  0
LINE
  8
0
 10
198.995
 20
16.25
 11
191.614
 21
16.25
  0
LINE
  8
0
 10
191.614
 20
16.25
 11
190.964
 21
3.25
  0
LINE
  8
0
 10
190.964
 20
3.25
 11
190.314
 21
16.25
  0
LINE
  8
0
 10
190.314
 20
16.25
 11
182.934
 21
16.25
  0
LINE
  8
0
 10
182.934
 20
16.25
 11
182.284
 21
3.25
  0
LINE
  8
0
 10
182.284
 20
3.25
 11
181.634
 21
16.25
  0
LINE
  8
0
 10
181.634
 20
16.25
 11
174.254
 21
16.25
  0
LINE
  8
0
 10
174.254
 20
16.25
 11
173.604
 21
3.25
  0
LINE
  8
0
 10
173.604
 20
3.25
 11
172.954
 21
16.25
  0
LINE
  8
0
 10
172.954
 20
16.25
 11
165.574
 21
16.25
  0
LINE
  8
0
 10
165.574
 20
16.25
 11
164.924
 21
3.25
  0
LINE
  8
0
 10
164.924
 20
3.25
 11
164.274
 21
16.25
  0
LINE
  8
0
 10
164.274
 20
16.25
 11
159.494
 21
16.25
  0
LINE
  8
0
 10
159.494
 20
16.25
 11
159.494
 21
9.75
  0
LINE
  8
0
 10
159.494
 20
9.75
 11
156.569
 21
9.75
  0
LINE
  8
0
 10
156.569
 20
9.75
 11
156.244
 21
3.25
  0
LINE
  8
0
 10
156.244
 20
3.25
 11
155.919
 21
9.75
  0
LINE
  8
0
 10
155.919
 20
9.75
 11
152.994
 21
9.75
  0
LINE
  8
0
 10
152.994
 20
9.75
 11
152.994
 21
16.25
  0
LINE
  8
0
 10
152.994
 20
16.25
 11
148.213
 21
16.25
  0
LINE
  8
0
 10
148.213
 20
16.25
 11
147.563
 21
3.25
  0
LINE
  8
0
 10
147.563
 20
3.25
 11
146.913
 21
16.25
  0
LINE
  8
0
 10
146.913
 20
16.25
 11
139.533
 21
16.25
  0
LINE
  8
0
 10
139.533
 20
16.25
 11
138.883
 21
3.25
  0
LINE
  8
0
 10
138.883
 20
3.25
 11
138.233
 21
16.25
  0
LINE
  8
0
 10
138.233
 20
16.25
 11
130.853
 21
16.25
  0
LINE
  8
0
 10
130.853
 20
16.25
 11
130.203
 21
3.25
  0
LINE
  8
0
 10
130.203
 20
3.25
 11
129.553
 21
16.25
  0
LINE
  8
0
 10
129.553
 20
16.25
 11
122.173
 21
16.25
  0
LINE
  8
0
 10
122.173
 20
16.25
 11
121.523
 21
3.25
  0
LINE
  8
0
 10
121.523
 20
3.25
 11
120.873
 21
16.25
  0
LINE
  8
0
 10
120.873
 20
16.25
 11
113.493
 21
16.25
  0
LINE
  8
0
 10
113.493
 20
16.25
 11
112.843
 21
3.25
  0
LINE
  8
0
 10
112.843
 20
3.25
 11
112.193
 21
16.25
  0
LINE
  8
0
 10
112.193
 20
16.25
 11
107.412
 21
16.25
  0
LINE
  8
0
 10
107.412
 20
16.25
 11
107.412
 21
9.75
  0
LINE
  8
0
 10
107.412
 20
9.75
 11
104.487
 21
9.75
  0
LINE
  8
0
 10
104.487
 20
9.75
 11
104.162
 21
3.25
  0
LINE
  8
0
 10
104.162
 20
3.25
 11
103.837
 21
9.75
  0
LINE
  8
0
 10
103.837
 20
9.75
 11
100.912
 21
9.75
  0
LINE
  8
0
 10
100.912
 20
9.75
 11
100.912
 21
16.25
  0
LINE
  8
0
 10
100.912
 20
16.25
 11
96.1322
 21
16.25
  0
LINE
  8
0
 10
96.1322
 20
16.25
 11
95.4822
 21
3.25
  0
LINE
  8
0
 10
95.4822
 20
3.25
 11
94.8322
 21
16.25
  0
LINE
  8
0
 10
94.8322
 20
16.25
 11
87.452
 21
16.25
  0
LINE
  8
0
 10
87.452
 20
16.25
 11
86.802
 21
3.25
  0
LINE
  8
0
 10
86.802
 20
3.25
 11
86.152
 21
16.25
  0
LINE
  8
0
 10
86.152
 20
16.25
 11
78.7718
 21
16.25
  0
LINE
  8
0
 10
78.7718
 20
16.25
 11
78.1218
 21
3.25
  0
LINE
  8
0
 10
78.1218
 20
3.25
 11
77.4718
 21
16.25
  0
LINE
  8
0
 10
77.4718
 20
16.25
 11
70.0916
 21
16.25
  0
LINE
  8
0
 10
70.0916
 20
16.25
 11
69.4416
 21
3.25
  0
LINE
  8
0
 10
69.4416
 20
3.25
 11
68.7916
 21
16.25
  0
LINE
  8
0
 10
68.7916
 20
16.25
 11
61.4114
 21
16.25
  0
LINE
  8
0
 10
61.4114
 20
16.25
 11
60.7614
 21
3.25
  0
LINE
  8
0
 10
60.7614
 20
3.25
 11
60.1114
 21
16.25
  0
LINE
  8
0
 10
60.1114
 20
16.25
 11
55.3312
 21
16.25
  0
LINE
  8
0
 10
55.3312
 20
16.25
 11
55.3312
 21
9.75
  0
LINE
  8
0
 10
55.3312
 20
9.75
 11
52.4062
 21
9.75
  0
LINE
  8
0
 10
52.4062
 20
9.75
 11
52.0812
 21
3.25
  0
LINE
  8
0
 10
52.0812
 20
3.25
 11
51.7562
 21
9.75
  0
LINE
  8
0
 10
51.7562
 20
9.75
 11
48.8312
 21
9.75
  0
LINE
  8
0
 10
48.8312
 20
9.75
 11
48.8312
 21
16.25
  0
LINE
  8
0
 10
48.8312
 20
16.25
 11
44.051
 21
16.25
  0
LINE
  8
0
 10
44.051
 20
16.25
 11
43.401
 21
3.25
  0
LINE
  8
0
 10
43.401
 20
3.25
 11
42.751
 21
16.25
  0
LINE
  8
0
 10
42.751
 20
16.25
 11
35.3708
 21
16.25
  0
LINE
  8
0
 10
35.3708
 20
16.25
 11
34.7208
 21
3.25
  0
LINE
  8
0
 10
34.7208
 20
3.25
 11
34.0708
 21
16.25
  0
LINE
  8
0
 10
34.0708
 20
16.25
 11
26.6906
 21
16.25
  0
LINE
  8
0
 10
26.6906
 20
16.25
 11
26.0406
 21
3.25
  0
LINE
  8
0
 10
26.0406
 20
3.25
 11
25.3906
 21
16.25
  0
LINE
  8
0
 10
25.3906
 20
16.25
 11
18.0104
 21
16.25
  0
LINE
  8
0
 10
18.0104
 20
16.25
 11
17.3604
 21
3.25
  0
LINE
  8
0
 10
17.3604
 20
3.25
 11
16.7104
 21
16.25
  0
LINE
  8
0
 10
16.7104
 20
16.25
 11
9.3302
 21
16.25
  0
LINE
  8
0
 10
9.3302
 20
16.25
 11
8.6802
 21
3.25
  0
LINE
  8
0
 10
8.6802
 20
3.25
 11
8.0302
 21
16.25
  0
LINE
  8
0
 10
8.0302
 20
16.25
 11
3.25
 21
16.25
  0
LINE
  8
0
 10
3.25
 20
16.25
 11
3.25
 21
9.75
  0
LINE
  8
0
 10
3.25
 20
9.75
 11
0.325
 21
9.75
  0
LINE
  8
0
 10
0.325
 20
9.75
 11
0
 21
3.25
  0
LINE
  8
0
 10
0
 20
3.25
 11
-0.325
 21
9.75
  0
LINE
  8
0
 10
-0.325
 20
9.75
 11
-3.25
 21
9.75
  0
LINE
  8
0
 10
-3.25
 20
9.75
 11
-3.25
 21
16.25
  0
LINE
  8
0
 10
-3.25
 20
16.25
 11
-8.0302
 21
16.25
  0
LINE
  8
0
 10
-8.0302
 20
16.25
 11
-8.6802
 21
3.25
  0
LINE
  8
0
 10
-8.6802
 20
3.25
 11
-9.3302
 21
16.25
  0
LINE
  8
0
 10
-9.3302
 20
16.25
 11
-16.7104
 21
16.25
  0
LINE
  8
0
 10
-16.7104
 20
16.25
 11
-17.3604
 21
3.25
  0
LINE
  8
0
 10
-17.3604
 20
3.25
 11
-18.0104
 21
16.25
  0
LINE
  8
0
 10
-18.0104
 20
16.25
 11
-25.3906
 21
16.25
  0
LINE
  8
0
 10
-25.3906
 20
16.25
 11
-26.0406
 21
3.25
  0
LINE
  8
0
 10
-26.0406
 20
3.25
 11
-26.6906
 21
16.25
  0
LINE
  8
0
 10
-26.6906
 20
16.25
 11
-34.0708
 21
16.25
  0
LINE
  8
0
 10
-34.0708
 20
16.25
 11
-34.7208
 21
3.25
  0
LINE
  8
0
 10
-34.7208
 20
3.25
 11
-35.3708
 21
16.25
  0
LINE
  8
0
 10
-35.3708
 20
16.25
 11
-42.751
 21
16.25
  0
LINE
  8
0
 10
-42.751
 20
16.25
 11
-43.401
 21
3.25
  0
LINE
  8
0
 10
-43.401
 20
3.25
 11
-44.051
 21
16.25
  0
LINE
  8
0
 10
-44.051
 20
16.25
 11
-48.8312
 21
16.25
  0
LINE
  8
0
 10
-48.8312
 20
16.25
 11
-48.8312
 21
9.75
  0
LINE
  8
0
 10
-48.8312
 20
9.75
 11
-51.7562
 21
9.75
  0
LINE
  8
0
 10
-51.7562
 20
9.75
 11
-52.0812
 21
3.25
  0
LINE
  8
0
 10
-52.0812
 20
3.25
 11
-52.4062
 21
9.75
  0
LINE
  8
0
 10
-52.4062
 20
9.75
 11
-55.3312
 21
9.75
  0
LINE
  8
0
 10
-55.3312
 20
9.75
 11
-55.3312
 21
16.25
  0
LINE
  8
0
 10
-55.3312
 20
16.25
 11
-60.1114
 21
16.25
  0
LINE
  8
0
 10
-60.1114
 20
16.25
 11
-60.7614
 21
3.25
  0
LINE
  8
0
 10
-60.7614
 20
3.25
 11
-61.4114
 21
16.25
  0
LINE
  8
0
 10
-61.4114
 20
16.25
 11
-68.7916
 21
16.25
  0
LINE
  8
0
 10
-68.7916
 20
16.25
 11
-69.4416
 21
3.25
  0
LINE
  8
0
 10
-69.4416
 20
3.25
 11
-70.0916
 21
16.25
  0
LINE
  8
0
 10
-70.0916
 20
16.25
 11
-77.4718
 21
16.25
  0
LINE
  8
0
 10
-77.4718
 20
16.25
 11
-78.1218
 21
3.25
  0
LINE
  8
0
 10
-78.1218
 20
3.25
 11
-78.7718
 21
16.25
  0
LINE
  8
0
 10
-78.7718
 20
16.25
 11
-86.152
 21
16.25
  0
LINE
  8
0
 10
-86.152
 20
16.25
 11
-86.802
 21
3.25
  0
LINE
  8
0
 10
-86.802
 20
3.25
 11
-87.452
 21
16.25
  0
LINE
  8
0
 10
-87.452
 20
16.25
 11
-94.8322
 21
16.25
  0
LINE
  8
0
 10
-94.8322
 20
16.25
 11
-95.4822
 21
3.25
  0
LINE
  8
0
 10
-95.4822
 20
3.25
 11
-96.1322
 21
16.25
  0
LINE
  8
0
 10
-96.1322
 20
16.25
 11
-100.912
 21
16.25
  0
LINE
  8
0
 10
-100.912
 20
16.25
 11
-100.912
 21
9.75
  0
LINE
  8
0
 10
-100.912
 20
9.75
 11
-103.837
 21
9.75
  0
LINE
  8
0
 10
-103.837
 20
9.75
 11
-104.162
 21
3.25
  0
LINE
  8
0
 10
-104.162
 20
3.25
 11
-104.487
 21
9.75
  0
LINE
  8
0
 10
-104.487
 20
9.75
 11
-107.412
 21
9.75
  0
LINE
  8
0
 10
-107.412
 20
9.75
 11
-107.412
 21
16.25
  0
LINE
  8
0
 10
-107.412
 20
16.25
 11
-112.193
 21
16.25
  0
LINE
  8
0
 10
-112.193
 20
16.25
 11
-112.843
 21
3.25
  0
LINE
  8
0
 10
-112.843
 20
3.25
 11
-113.493
 21
16.25
  0
LINE
  8
0
 10
-113.493
 20
16.25
 11
-120.873
 21
16.25
  0
LINE
  8
0
 10
-120.873
 20
16.25
 11
-121.523
 21
3.25
  0
LINE
  8
0
 10
-121.523
 20
3.25
 11
-122.173
 21
16.25
  0
LINE
  8
0
 10
-122.173
 20
16.25
 11
-129.553
 21
16.25
  0
LINE
  8
0
 10
-129.553
 20
16.25
 11
-130.203
 21
3.25
  0
LINE
  8
0
 10
-130.203
 20
3.25
 11
-130.853
 21
16.25
  0
LINE
  8
0
 10
-130.853
 20
16.25
 11
-138.233
 21
16.25
  0
LINE
  8
0
 10
-138.233
 20
16.25
 11
-138.883
 21
3.25
  0
LINE
  8
0
 10
-138.883
 20
3.25
 11
-139.533
 21
16.25
  0
LINE
  8
0
 10
-139.533
 20
16.25
 11
-146.913
 21
16.25
  0
LINE
  8
0
 10
-146.913
 20
16.25
 11
-147.563
 21
3.25
  0
LINE
  8
0
 10
-147.563
 20
3.25
 11
-148.213
 21
16.25
  0
LINE
  8
0
 10
-148.213
 20
16.25
 11
-152.994
 21
16.25
  0
LINE
  8
0
 10
-152.994
 20
16.25
 11
-152.994
 21
9.75
  0
LINE
  8
0
 10
-152.994
 20
9.75
 11
-155.919
 21
9.75
  0
LINE
  8
0
 10
-155.919
 20
9.75
 11
-156.244
 21
3.25
  0
LINE
  8
0
 10
-156.244
 20
3.25
 11
-156.569
 21
9.75
  0
LINE
  8
0
 10
-156.569
 20
9.75
 11
-159.494
 21
9.75
  0
LINE
  8
0
 10
-159.494
 20
9.75
 11
-159.494
 21
16.25
  0
LINE
  8
0
 10
-159.494
 20
16.25
 11
-164.274
 21
16.25
  0
LINE
  8
0
 10
-164.274
 20
16.25
 11
-164.924
 21
3.25
  0
LINE
  8
0
 10
-164.924
 20
3.25
 11
-165.574
 21
16.25
  0
LINE
  8
0
 10
-165.574
 20
16.25
 11
-172.954
 21
16.25
  0
LINE
  8
0
 10
-172.954
 20
16.25
 11
-173.604
 21
3.25
  0
LINE
  8
0
 10
-173.604
 20
3.25
 11
-174.254
 21
16.25
  0
LINE
  8
0
 10
-174.254
 20
16.25
 11
-181.634
 21
16.25
  0
LINE
  8
0
 10
-181.634
 20
16.25
 11
-182.284
 21
3.25
  0
LINE
  8
0
 10
-182.284
 20
3.25
 11
-182.934
 21
16.25
  0
LINE
  8
0
 10
-182.934
 20
16.25
 11
-190.314
 21
16.25
  0
LINE
  8
0
 10
-190.314
 20
16.25
 11
-190.964
 21
3.25
  0
LINE
  8
0
 10
-190.964
 20
3.25
 11
-191.614
 21
16.25
  0
LINE
  8
0
 10
-191.614
 20
16.25
 11
-198.995
 21
16.25
  0
LINE
  8
0
 10
-198.995
 20
16.25
 11
-199.645
 21
3.25
  0
LINE
  8
0
 10
-199.645
 20
3.25
 11
-200.295
 21
16.25
  0
LINE
  8
0
 10
-200.295
 20
16.25
 11
-205.075
 21
16.25
  0
LINE
  8
0
 10
-205.075
 20
16.25
 11
-205.075
 21
9.75
  0
LINE
  8
0
 10
-205.075
 20
9.75
 11
-208
 21
9.75
  0
LINE
  8
0
 10
-208
 20
9.75
 11
-208.325
 21
3.25
  0
LINE
  8
0
 10
-208.325
 20
3.25
 11
-208.65
 21
9.75
  0
LINE
  8
0
 10
-208.65
 20
9.75
 11
-211.575
 21
9.75
  0
LINE
  8
0
 10
-211.575
 20
9.75
 11
-211.575
 21
16.25
  0
LINE
  8
0
 10
-211.575
 20
16.25
 11
-216.355
 21
16.25
  0
LINE
  8
0
 10
-216.355
 20
16.25
 11
-217.005
 21
3.25
  0
LINE
  8
0
 10
-217.005
 20
3.25
 11
-217.655
 21
16.25
  0
LINE
  8
0
 10
-217.655
 20
16.25
 11
-225.035
 21
16.25
  0
LINE
  8
0
 10
-225.035
 20
16.25
 11
-225.685
 21
3.25
  0
LINE
  8
0
 10
-225.685
 20
3.25
 11
-226.335
 21
16.25
  0
LINE
  8
0
 10
-226.335
 20
16.25
 11
-233.715
 21
16.25
  0
LINE
  8
0
 10
-233.715
 20
16.25
 11
-234.365
 21
3.25
  0
LINE
  8
0
 10
-234.365
 20
3.25
 11
-235.015
 21
16.25
  0
LINE
  8
0
 10
-235.015
 20
16.25
 11
-242.396
 21
16.25
  0
LINE
  8
0
 10
-242.396
 20
16.25
 11
-243.046
 21
3.25
  0
LINE
  8
0
 10
-243.046
 20
3.25
 11
-243.696
 21
16.25
  0
LINE
  8
0
 10
-243.696
 20
16.25
 11
-251.076
 21
16.25
  0
LINE
  8
0
 10
-251.076
 20
16.25
 11
-251.726
 21
3.25
  0
LINE
  8
0
 10
-251.726
 20
3.25
 11
-252.376
 21
16.25
  0
LINE
  8
0
 10
-252.376
 20
16.25
 11
-257.156
 21
16.25
  0
LINE
  8
0
 10
-257.156
 20
16.25
 11
-257.156
 21
9.75
  0
LINE
  8
0
 10
-257.156
 20
9.75
 11
-260.081
 21
9.75
  0
LINE
  8
0
 10
-260.081
 20
9.75
 11
-260.406
 21
3.25
  0
LINE
  8
0
 10
-260.406
 20
3.25
 11
-260.731
 21
9.75
  0
LINE
  8
0
 10
-260.731
 20
9.75
 11
-263.656
 21
9.75
  0
LINE
  8
0
 10
-263.656
 20
9.75
 11
-263.656
 21
16.25
  0
LINE
  8
0
 10
-263.656
 20
16.25
 11
-268.436
 21
16.25
  0
LINE
  8
0
 10
-268.436
 20
16.25
 11
-269.086
 21
3.25
  0
LINE
  8
0
 10
-269.086
 20
3.25
 11
-269.736
 21
16.25
  0
LINE
  8
0
 10
-269.736
 20
16.25
 11
-277.116
 21
16.25
  0
LINE
  8
0
 10
-277.116
 20
16.25
 11
-277.766
 21
3.25
  0
LINE
  8
0
 10
-277.766
 20
3.25
 11
-278.416
 21
16.25
  0
LINE
  8
0
 10
-278.416
 20
16.25
 11
-285.797
 21
16.25
  0
LINE
  8
0
 10
-285.797
 20
16.25
 11
-286.447
 21
3.25
  0
LINE
  8
0
 10
-286.447
 20
3.25
 11
-287.097
 21
16.25
  0
LINE
  8
0
 10
-287.097
 20
16.25
 11
-294.477
 21
16.25
  0
LINE
  8
0
 10
-294.477
 20
16.25
 11
-295.127
 21
3.25
  0
LINE
  8
0
 10
-295.127
 20
3.25
 11
-295.777
 21
16.25
  0
LINE
  8
0
 10
-295.777
 20
16.25
 11
-303.157
 21
16.25
  0
LINE
  8
0
 10
-303.157
 20
16.25
 11
-303.807
 21
3.25
  0
LINE
  8
0
 10
-303.807
 20
3.25
 11
-304.457
 21
16.25
  0
LINE
  8
0
 10
-304.457
 20
16.25
 11
-309.237
 21
16.25
  0
LINE
  8
0
 10
-309.237
 20
16.25
 11
-309.237
 21
9.75
  0
LINE
  8
0
 10
-309.237
 20
9.75
 11
-312.162
 21
9.75
  0
LINE
  8
0
 10
-312.162
 20
9.75
 11
-312.487
 21
3.25
  0
LINE
  8
0
 10
-312.487
 20
3.25
 11
-312.487
 21
-3.25
  0
LINE
  8
0
 10
-308.797
 20
0
 11
-308.147
 21
13
  0
LINE
  8
0
 10
-308.147
 20
13
 11
-307.497
 21
0
  0
LINE
  8
0
 10
-307.497
 20
0
 11
-308.147
 21
-13
  0
LINE
  8
0
 10
-308.147
 20
-13
 11
-308.797
 21
0
  0
LINE
  8
0
 10
-300.117
 20
0
 11
-299.467
 21
13
  0
LINE
  8
0
 10
-299.467
 20
13
 11
-298.817
 21
0
  0
LINE
  8
0
 10
-298.817
 20
0
 11
-299.467
 21
-13
  0
LINE
  8
0
 10
-299.467
 20
-13
 11
-300.117
 21
0
  0
LINE
  8
0
 10
-291.437
 20
0
 11
-290.787
 21
13
  0
LINE
  8
0
 10
-290.787
 20
13
 11
-290.137
 21
0
  0
LINE
  8
0
 10
-290.137
 20
0
 11
-290.787
 21
-13
  0
LINE
  8
0
 10
-290.787
 20
-13
 11
-291.437
 21
0
  0
LINE
  8
0
 10
-282.756
 20
0
 11
-282.106
 21
13
  0
LINE
  8
0
 10
-282.106
 20
13
 11
-281.456
 21
0
  0
LINE
  8
0
 10
-281.456
 20
0
 11
-282.106
 21
-13
  0
LINE
  8
0
 10
-282.106
 20
-13
 11
-282.756
 21
0
  0
LINE
  8
0
 10
-274.076
 20
0
 11
-273.426
 21
13
  0
LINE
  8
0
 10
-273.426
 20
13
 11
-272.776
 21
0
  0
LINE
  8
0
 10
-272.776
 20
0
 11
-273.426
 21
-13
  0
LINE
  8
0
 10
-273.426
 20
-13
 11
-274.076
 21
0
  0
LINE
  8
0
 10
-265.396
 20
0
 11
-264.746
 21
13
  0
LINE
  8
0
 10
-264.746
 20
13
 11
-264.096
 21
0
  0
LINE
  8
0
 10
-264.096
 20
0
 11
-264.746
 21
-13
  0
LINE
  8
0
 10
-264.746
 20
-13
 11
-265.396
 21
0
  0
LINE
  8
0
 10
-256.716
 20
0
 11
-256.066
 21
13
  0
LINE
  8
0
 10
-256.066
 20
13
 11
-255.416
 21
0
  0
LINE
  8
0
 10
-255.416
 20
0
 11
-256.066
 21
-13
  0
LINE
  8
0
 10
-256.066
 20
-13
 11
-256.716
 21
0
  0
LINE
  8
0
 10
-248.036
 20
0
 11
-247.386
 21
13
  0
LINE
  8
0
 10
-247.386
 20
13
 11
-246.736
 21
0
  0
LINE
  8
0
 10
-246.736
 20
0
 11
-247.386
 21
-13
  0
LINE
  8
0
 10
-247.386
 20
-13
 11
-248.036
 21
0
  0
LINE
  8
0
 10
-239.355
 20
0
 11
-238.705
 21
13
  0
LINE
  8
0
 10
-238.705
 20
13
 11
-238.055
 21
0
  0
LINE
  8
0
 10
-238.055
 20
0
 11
-238.705
 21
-13
  0
LINE
  8
0
 10
-238.705
 20
-13
 11
-239.355
 21
0
  0
LINE
  8
0
 10
-230.675
 20
0
 11
-230.025
 21
13
  0
LINE
  8
0
 10
-230.025
 20
13
 11
-229.375
 21
0
  0
LINE
  8
0
 10
-229.375
 20
0
 11
-230.025
 21
-13
  0
LINE
  8
0
 10
-230.025
 20
-13
 11
-230.675
 21
0
  0
LINE
  8
0
 10
-221.995
 20
0
 11
-221.345
 21
13
  0
LINE
  8
0
 10
-221.345
 20
13
 11
-220.695
 21
0
  0
LINE
  8
0
 10
-220.695
 20
0
 11
-221.345
 21
-13
  0
LINE
  8
0
 10
-221.345
 20
-13
 11
-221.995
 21
0
  0
LINE
  8
0
 10
-213.315
 20
0
 11
-212.665
 21
13
  0
LINE
  8
0
 10
-212.665
 20
13
 11
-212.015
 21
0
  0
LINE
  8
0
 10
-212.015
 20
0
 11
-212.665
 21
-13
  0
LINE
  8
0
 10
-212.665
 20
-13
 11
-213.315
 21
0
  0
LINE
  8
0
 10
-204.635
 20
0
 11
-203.985
 21
13
  0
LINE
  8
0
 10
-203.985
 20
13
 11
-203.335
 21
0
  0
LINE
  8
0
 10
-203.335
 20
0
 11
-203.985
 21
-13
  0
LINE
  8
0
 10
-203.985
 20
-13
 11
-204.635
 21
0
  0
LINE
  8
0
 10
-195.954
 20
0
 11
-195.304
 21
13
  0
LINE
  8
0
 10
-195.304
 20
13
 11
-194.654
 21
0
  0
LINE
  8
0
 10
-194.654
 20
0
 11
-195.304
 21
-13
  0
LINE
  8
0
 10
-195.304
 20
-13
 11
-195.954
 21
0
  0
LINE
  8
0
 10
-187.274
 20
0
 11
-186.624
 21
13
  0
LINE
  8
0
 10
-186.624
 20
13
 11
-185.974
 21
0
  0
LINE
  8
0
 10
-185.974
 20
0
 11
-186.624
 21
-13
  0
LINE
  8
0
 10
-186.624
 20
-13
 11
-187.274
 21
0
  0
LINE
  8
0
 10
-178.594
 20
0
 11
-177.944
 21
13
  0
LINE
  8
0
 10
-177.944
 20
13
 11
-177.294
 21
0
  0
LINE
  8
0
 10
-177.294
 20
0
 11
-177.944
 21
-13
  0
LINE
  8
0
 10
-177.944
 20
-13
 11
-178.594
 21
0
  0
LINE
  8
0
 10
-169.914
 20
0
 11
-169.264
 21
13
  0
LINE
  8
0
 10
-169.264
 20
13
 11
-168.614
 21
0
  0
LINE
  8
0
 10
-168.614
 20
0
 11
-169.264
 21
-13
  0
LINE
  8
0
 10
-169.264
 20
-13
 11
-169.914
 21
0
  0
LINE
  8
0
 10
-161.234
 20
0
 11
-160.584
 21
13
  0
LINE
  8
0
 10
-160.584
 20
13
 11
-159.934
 21
0
  0
LINE
  8
0
 10
-159.934
 20
0
 11
-160.584
 21
-13
  0
LINE
  8
0
 10
-160.584
 20
-13
 11
-161.234
 21
0
  0
LINE
  8
0
 10
-152.553
 20
0
 11
-151.903
 21
13
  0
LINE
  8
0
 10
-151.903
 20
13
 11
-151.253
 21
0
  0
LINE
  8
0
 10
-151.253
 20
0
 11
-151.903
 21
-13
  0
LINE
  8
0
 10
-151.903
 20
-13
 11
-152.553
 21
0
  0
LINE
  8
0
 10
-143.873
 20
0
 11
-143.223
 21
13
  0
LINE
  8
0
 10
-143.223
 20
13
 11
-142.573
 21
0
  0
LINE
  8
0
 10
-142.573
 20
0
 11
-143.223
 21
-13
  0
LINE
  8
0
 10
-143.223
 20
-13
 11
-143.873
 21
0
  0
LINE
  8
0
 10
-135.193
 20
0
 11
-134.543
 21
13
  0
LINE
  8
0
 10
-134.543
 20
13
 11
-133.893
 21
0
  0
LINE
  8
0
 10
-133.893
 20
0
 11
-134.543
 21
-13
  0
LINE
  8
0
 10
-134.543
 20
-13
 11
-135.193
 21
0
  0
LINE
  8
0
 10
-126.513
 20
0
 11
-125.863
 21
13
  0
LINE
  8
0
 10
-125.863
 20
13
 11
-125.213
 21
0
  0
LINE
  8
0
 10
-125.213
 20
0
 11
-125.863
 21
-13
  0
LINE
  8
0
 10
-125.863
 20
-13
 11
-126.513
 21
0
  0
LINE
  8
0
 10
-117.833
 20
0
 11
-117.183
 21
13
  0
LINE
  8
0
 10
-117.183
 20
13
 11
-116.533
 21
0
  0
LINE
  8
0
 10
-116.533
 20
0
 11
-117.183
 21
-13
  0
LINE
  8
0
 10
-117.183
 20
-13
 11
-117.833
 21
0
  0
LINE
  8
0
 10
-109.152
 20
0
 11
-108.502
 21
13
  0
LINE
  8
0
 10
-108.502
 20
13
 11
-107.852
 21
0
  0
LINE
  8
0
 10
-107.852
 20
0
 11
-108.502
 21
-13
  0
LINE
  8
0
 10
-108.502
 20
-13
 11
-109.152
 21
0
  0
LINE
  8
0
 10
-100.472
 20
0
 11
-99.8223
 21
13
  0
LINE
  8
0
 10
-99.8223
 20
13
 11
-99.1723
 21
0
  0
LINE
  8
0
 10
-99.1723
 20
0
 11
-99.8223
 21
-13
  0
LINE
  8
0
 10
-99.8223
 20
-13
 11
-100.472
 21
0
  0
LINE
  8
0
 10
-91.7921
 20
0
 11
-91.1421
 21
13
  0
LINE
  8
0
 10
-91.1421
 20
13
 11
-90.4921
 21
0
  0
LINE
  8
0
 10
-90.4921
 20
0
 11
-91.1421
 21
-13
  0
LINE
  8
0
 10
-91.1421
 20
-13
 11
-91.7921
 21
0
  0
LINE
  8
0
 10
-83.1119
 20
0
 11
-82.4619
 21
13
  0
LINE
  8
0
 10
-82.4619
 20
13
 11
-81.8119
 21
0
  0
LINE
  8
0
 10
-81.8119
 20
0
 11
-82.4619
 21
-13
  0
LINE
  8
0
 10
-82.4619
 20
-13
 11
-83.1119
 21
0
  0
LINE
  8
0
 10
-74.4317
 20
0
 11
-73.7817
 21
13
  0
LINE
  8
0
 10
-73.7817
 20
13
 11
-73.1317
 21
0
  0
LINE
  8
0
 10
-73.1317
 20
0
 11
-73.7817
 21
-13
  0
LINE
  8
0
 10
-73.7817
 20
-13
 11
-74.4317
 21
0
  0
LINE
  8
0
 10
-65.7515
 20
0
 11
-65.1015
 21
13
  0
LINE
  8
0
 10
-65.1015
 20
13
 11
-64.4515
 21
0
  0
LINE
  8
0
 10
-64.4515
 20
0
 11
-65.1015
 21
-13
  0
LINE
  8
0
 10
-65.1015
 20
-13
 11
-65.7515
 21
0
  0
LINE
  8
0
 10
-57.0713
 20
0
 11
-56.4213
 21
13
  0
LINE
  8
0
 10
-56.4213
 20
13
 11
-55.7713
 21
0
  0
LINE
  8
0
 10
-55.7713
 20
0
 11
-56.4213
 21
-13
  0
LINE
  8
0
 10
-56.4213
 20
-13
 11
-57.0713
 21
0
  0
LINE
  8
0
 10
-48.3911
 20
0
 11
-47.7411
 21
13
  0
LINE
  8
0
 10
-47.7411
 20
13
 11
-47.0911
 21
0
  0
LINE
  8
0
 10
-47.0911
 20
0
 11
-47.7411
 21
-13
  0
LINE
  8
0
 10
-47.7411
 20
-13
 11
-48.3911
 21
0
  0
LINE
  8
0
 10
-39.7109
 20
0
 11
-39.0609
 21
13
  0
LINE
  8
0
 10
-39.0609
 20
13
 11
-38.4109
 21
0
  0
LINE
  8
0
 10
-38.4109
 20
0
 11
-39.0609
 21
-13
  0
LINE
  8
0
 10
-39.0609
 20
-13
 11
-39.7109
 21
0
  0
LINE
  8
0
 10
-31.0307
 20
0
 11
-30.3807
 21
13
  0
LINE
  8
0
 10
-30.3807
 20
13
 11
-29.7307
 21
0
  0
LINE
  8
0
 10
-29.7307
 20
0
 11
-30.3807
 21
-13
  0
LINE
  8
0
 10
-30.3807
 20
-13
 11
-31.0307
 21
0
  0
LINE
  8
0
 10
-22.3505
 20
0
 11
-21.7005
 21
13
  0
LINE
  8
0
 10
-21.7005
 20
13
 11
-21.0505
 21
0
  0
LINE
  8
0
 10
-21.0505
 20
0
 11
-21.7005
 21
-13
  0
LINE
  8
0
 10
-21.7005
 20
-13
 11
-22.3505
 21
0
  0
LINE
  8
0
 10
-13.6703
 20
0
 11
-13.0203
 21
13
  0
LINE
  8
0
 10
-13.0203
 20
13
 11
-12.3703
 21
0
  0
LINE
  8
0
 10
-12.3703
 20
0
 11
-13.0203
 21
-13
  0
LINE
  8
0
 10
-13.0203
 20
-13
 11
-13.6703
 21
0
  0
LINE
  8
0
 10
-4.9901
 20
0
 11
-4.3401
 21
13
  0
LINE
  8
0
 10
-4.3401
 20
13
 11
-3.6901
 21
0
  0
LINE
  8
0
 10
-3.6901
 20
0
 11
-4.3401
 21
-13
  0
LINE
  8
0
 10
-4.3401
 20
-13
 11
-4.9901
 21
0
  0
LINE
  8
0
 10
3.6901
 20
0
 11
4.3401
 21
13
  0
LINE
  8
0
 10
4.3401
 20
13
 11
4.9901
 21
0
  0
LINE
  8
0
 10
4.9901
 20
0
 11
4.3401
 21
-13
  0
LINE
  8
0
 10
4.3401
 20
-13
 11
3.6901
 21
0
  0
LINE
  8
0
 10
12.3703
 20
0
 11
13.0203
 21
13
  0
LINE
  8
0
 10
13.0203
 20
13
 11
13.6703
 21
0
  0
LINE
  8
0
 10
13.6703
 20
0
 11
13.0203
 21
-13
  0
LINE
  8
0
 10
13.0203
 20
-13
 11
12.3703
 21
0
  0
LINE
  8
0
 10
21.0505
 20
0
 11
21.7005
 21
13
  0
LINE
  8
0
 10
21.7005
 20
13
 11
22.3505
 21
0
  0
LINE
  8
0
 10
22.3505
 20
0
 11
21.7005
 21
-13
  0
LINE
  8
0
 10
21.7005
 20
-13
 11
21.0505
 21
0
  0
LINE
  8
0
 10
29.7307
 20
0
 11
30.3807
 21
13
  0
LINE
  8
0
 10
30.3807
 20
13
 11
31.0307
 21
0
  0
LINE
  8
0
 10
31.0307
 20
0
 11
30.3807
 21
-13
  0
LINE
  8
0
 10
30.3807
 20
-13
 11
29.7307
 21
0
  0
LINE
  8
0
 10
38.4109
 20
0
 11
39.0609
 21
13
  0
LINE
  8
0
 10
39.0609
 20
13
 11
39.7109
 21
0
  0
LINE
  8
0
 10
39.7109
 20
0
 11
39.0609
 21
-13
  0
LINE
  8
0
 10
39.0609
 20
-13
 11
38.4109
 21
0
  0
LINE
  8
0
 10
47.0911
 20
0
 11
47.7411
 21
13
  0
LINE
  8
0
 10
47.7411
 20
13
 11
48.3911
 21
0
  0
LINE
  8
0
 10
48.3911
 20
0
 11
47.7411
 21
-13
  0
LINE
  8
0
 10
47.7411
 20
-13
 11
47.0911
 21
0
  0
LINE
  8
0
 10
55.7713
 20
0
 11
56.4213
 21
13
  0
LINE
  8
0
 10
56.4213
 20
13
 11
57.0713
 21
0
  0
LINE
  8
0
 10
57.0713
 20
0
 11
56.4213
 21
-13
  0
LINE
  8
0
 10
56.4213
 20
-13
 11
55.7713
 21
0
  0
LINE
  8
0
 10
64.4515
 20
0
 11
65.1015
 21
13
  0
LINE
  8
0
 10
65.1015
 20
13
 11
65.7515
 21
0
  0
LINE
  8
0
 10
65.7515
 20
0
 11
65.1015
 21
-13
  0
LINE
  8
0
 10
65.1015
 20
-13
 11
64.4515
 21
0
  0
LINE
  8
0
 10
73.1317
 20
0
 11
73.7817
 21
13
  0
LINE
  8
0
 10
73.7817
 20
13
 11
74.4317
 21
0
  0
LINE
  8
0
 10
74.4317
 20
0
 11
73.7817
 21
-13
  0
LINE
  8
0
 10
73.7817
 20
-13
 11
73.1317
 21
0
  0
LINE
  8
0
 10
81.8119
 20
0
 11
82.4619
 21
13
  0
LINE
  8
0
 10
82.4619
 20
13
 11
83.1119
 21
0
  0
LINE
  8
0
 10
83.1119
 20
0
 11
82.4619
 21
-13
  0
LINE
  8
0
 10
82.4619
 20
-13
 11
81.8119
 21
0
  0
LINE
  8
0
 10
90.4921
 20
0
 11
91.1421
 21
13
  0
LINE
  8
0
 10
91.1421
 20
13
 11
91.7921
 21
0
  0
LINE
  8
0
 10
91.7921
 20
0
 11
91.1421
 21
-13
  0
LINE
  8
0
 10
91.1421
 20
-13
 11
90.4921
 21
0
  0
LINE
  8
0
 10
99.1723
 20
0
 11
99.8223
 21
13
  0
LINE
  8
0
 10
99.8223
 20
13
 11
100.472
 21
0
  0
LINE
  8
0
 10
100.472
 20
0
 11
99.8223
 21
-13
  0
LINE
  8
0
 10
99.8223
 20
-13
 11
99.1723
 21
0
  0
LINE
  8
0
 10
107.852
 20
0
 11
108.502
 21
13
  0
LINE
  8
0
 10
108.502
 20
13
 11
109.152
 21
0
  0
LINE
  8
0
 10
109.152
 20
0
 11
108.502
 21
-13
  0
LINE
  8
0
 10
108.502
 20
-13
 11
107.852
 21
0
  0
LINE
  8
0
 10
116.533
 20
0
 11
117.183
 21
13
  0
LINE
  8
0
 10
117.183
 20
13
 11
117.833
 21
0
  0
LINE
  8
0
 10
117.833
 20
0
 11
117.183
 21
-13
  0
LINE
  8
0
 10
117.183
 20
-13
 11
116.533
 21
0
  0
LINE
  8
0
 10
125.213
 20
0
 11
125.863
 21
13
  0
LINE
  8
0
 10
125.863
 20
13
 11
126.513
 21
0
  0
LINE
  8
0
 10
126.513
 20
0
 11
125.863
 21
-13
  0
LINE
  8
0
 10
125.863
 20
-13
 11
125.213
 21
0
  0
LINE
  8
0
 10
133.893
 20
0
 11
134.543
 21
13
  0
LINE
  8
0
 10
134.543
 20
13
 11
135.193
 21
0
  0
LINE
  8
0
 10
135.193
 20
0
 11
134.543
 21
-13
  0
LINE
  8
0
 10
134.543
 20
-13
 11
133.893
 21
0
  0
LINE
  8
0
 10
142.573
 20
0
 11
143.223
 21
13
  0
LINE
  8
0
 10
143.223
 20
13
 11
143.873
 21
0
  0
LINE
  8
0
 10
143.873
 20
0
 11
143.223
 21
-13
  0
LINE
  8
0
 10
143.223
 20
-13
 11
142.573
 21
0
  0
LINE
  8
0
 10
151.253
 20
0
 11
151.903
 21
13
  0
LINE
  8
0
 10
151.903
 20
13
 11
152.553
 21
0
  0
LINE
  8
0
 10
152.553
 20
0
 11
151.903
 21
-13
  0
LINE
  8
0
 10
151.903
 20
-13
 11
151.253
 21
0
  0
LINE
  8
0
 10
159.934
 20
0
 11
160.584
 21
13
  0
LINE
  8
0
 10
160.584
 20
13
 11
161.234
 21
0
  0
LINE
  8
0
 10
161.234
 20
0
 11
160.584
 21
-13
  0
LINE
  8
0
 10
160.584
 20
-13
 11
159.934
 21
0
  0
LINE
  8
0
 10
168.614
 20
0
 11
169.264
 21
13
  0
LINE
  8
0
 10
169.264
 20
13
 11
169.914
 21
0
  0
LINE
  8
0
 10
169.914
 20
0
 11
169.264
 21
-13
  0
LINE
  8
0
 10
169.264
 20
-13
 11
168.614
 21
0
  0
LINE
  8
0
 10
177.294
 20
0
 11
177.944
 21
13
  0
LINE
  8
0
 10
177.944
 20
13
 11
178.594
 21
0
  0
LINE
  8
0
 10
178.594
 20
0
 11
177.944
 21
-13
  0
LINE
  8
0
 10
177.944
 20
-13
 11
177.294
 21
0
  0
LINE
  8
0
 10
185.974
 20
0
 11
186.624
 21
13
  0
LINE
  8
0
 10
186.624
 20
13
 11
187.274
 21
0
  0
LINE
  8
0
 10
187.274
 20
0
 11
186.624
 21
-13
  0
LINE
  8
0
 10
186.624
 20
-13
 11
185.974
 21
0
  0
LINE
  8
0
 10
194.654
 20
0
 11
195.304
 21
13
  0
LINE
  8
0
 10
195.304
 20
13
 11
195.954
 21
0
  0
LINE
  8
0
 10
195.954
 20
0
 11
195.304
 21
-13
  0
LINE
  8
0
 10
195.304
 20
-13
 11
194.654
 21
0
  0
LINE
  8
0
 10
203.335
 20
0
 11
203.985
 21
13
  0
LINE
  8
0
 10
203.985
 20
13
 11
204.635
 21
0
  0
LINE
  8
0
 10
204.635
 20
0
 11
203.985
 21
-13
  0
LINE
  8
0
 10
203.985
 20
-13
 11
203.335
 21
0
  0
LINE
  8
0
 10
212.015
 20
0
 11
212.665
 21
13
  0
LINE
  8
0
 10
212.665
 20
13
 11
213.315
 21
0
  0
LINE
  8
0
 10
213.315
 20
0
 11
212.665
 21
-13
  0
LINE
  8
0
 10
212.665
 20
-13
 11
212.015
 21
0
  0
LINE
  8
0
 10
220.695
 20
0
 11
221.345
 21
13
  0
LINE
  8
0
 10
221.345
 20
13
 11
221.995
 21
0
  0
LINE
  8
0
 10
221.995
 20
0
 11
221.345
 21
-13
  0
LINE
  8
0
 10
221.345
 20
-13
 11
220.695
 21
0
  0
LINE
  8
0
 10
229.375
 20
0
 11
230.025
 21
13
  0
LINE
  8
0
 10
230.025
 20
13
 11
230.675
 21
0
  0
LINE
  8
0
 10
230.675
 20
0
 11
230.025
 21
-13
  0
LINE
  8
0
 10
230.025
 20
-13
 11
229.375
 21
0
  0
LINE
  8
0
 10
238.055
 20
0
 11
238.705
 21
13
  0
LINE
  8
0
 10
238.705
 20
13
 11
239.355
 21
0
  0
LINE
  8
0
 10
239.355
 20
0
 11
238.705
 21
-13
  0
LINE
  8
0
 10
238.705
 20
-13
 11
238.055
 21
0
  0
LINE
  8
0
 10
246.736
 20
0
 11
247.386
 21
13
  0
LINE
  8
0
 10
247.386
 20
13
 11
248.036
 21
0
  0
LINE
  8
0
 10
248.036
 20
0
 11
247.386
 21
-13
  0
LINE
  8
0
 10
247.386
 20
-13
 11
246.736
 21
0
  0
LINE
  8
0
 10
255.416
 20
0
 11
256.066
 21
13
  0
LINE
  8
0
 10
256.066
 20
13
 11
256.716
 21
0
  0
LINE
  8
0
 10
256.716
 20
0
 11
256.066
 21
-13
  0
LINE
  8
0
 10
256.066
 20
-13
 11
255.416
 21
0
  0
LINE
  8
0
 10
264.096
 20
0
 11
264.746
 21
13
  0
LINE
  8
0
 10
264.746
 20
13
 11
265.396
 21
0
  0
LINE
  8
0
 10
265.396
 20
0
 11
264.746
 21
-13
  0
LINE
  8
0
 10
264.746
 20
-13
 11
264.096
 21
0
  0
LINE
  8
0
 10
272.776
 20
0
 11
273.426
 21
13
  0
LINE
  8
0
 10
273.426
 20
13
 11
274.076
 21
0
  0
LINE
  8
0
 10
274.076
 20
0
 11
273.426
 21
-13
  0
LINE
  8
0
 10
273.426
 20
-13
 11
272.776
 21
0
  0
LINE
  8
0
 10
281.456
 20
0
 11
282.106
 21
13
  0
LINE
  8
0
 10
282.106
 20
13
 11
282.756
 21
0
  0
LINE
  8
0
 10
282.756
 20
0
 11
282.106
 21
-13
  0
LINE
  8
0
 10
282.106
 20
-13
 11
281.456
 21
0
  0
LINE
  8
0
 10
290.137
 20
0
 11
290.787
 21
13
  0
LINE
  8
0
 10
290.787
 20
13
 11
291.437
 21
0
  0
LINE
  8
0
 10
291.437
 20
0
 11
290.787
 21
-13
  0
LINE
  8
0
 10
290.787
 20
-13
 11
290.137
 21
0
  0
LINE
  8
0
 10
298.817
 20
0
 11
299.467
 21
13
  0
LINE
  8
0
 10
299.467
 20
13
 11
300.117
 21
0
  0
LINE
  8
0
 10
300.117
 20
0
 11
299.467
 21
-13
  0
LINE
  8
0
 10
299.467
 20
-13
 11
298.817
 21
0
  0
LINE
  8
0
 10
307.497
 20
0
 11
308.147
 21
13
  0
LINE
  8
0
 10
308.147
 20
13
 11
308.797
 21
0
  0
LINE
  8
0
 10
308.797
 20
0
 11
308.147
 21
-13
  0
LINE
  8
0
 10
308.147
 20
-13
 11
307.497
 21
0
  0
ENDSEC
  0
SECTION
  2
OBJECTS
  0
DICTIONARY
  0
ENDSEC
  0
EOF
