  0
SECTION
  2
BLOCKS
  0
ENDSEC
  0
SECTION
  2
ENTITIES
  0
LINE
  8
0
 10
-5
 20
-7
 11
-55
 21
-7
  0
LINE
  8
0
 10
-55
 20
-7
 11
-55
 21
-77
  0
LINE
  8
0
 10
-55
 20
-77
 11
-5
 21
-77
  0
LINE
  8
0
 10
-5
 20
-77
 11
-5
 21
-7
  0
LINE
  8
0
 10
-19.6448
 20
-20
 11
-19.6448
 21
-11.8713
  0
LINE
  8
0
 10
-19.6448
 20
-11.8713
 11
-20.5273
 21
-13.269
  0
LINE
  8
0
 10
-20.5273
 20
-13.269
 11
-22.0251
 21
-13.269
  0
LINE
  8
0
 10
-22.0251
 20
-13.269
 11
-19.8682
 21
-9.84009
  0
LINE
  8
0
 10
-19.8682
 20
-9.84009
 11
-18.4973
 21
-9.84009
  0
LINE
  8
0
 10
-18.4973
 20
-9.84009
 11
-18.4973
 21
-20
  0
LINE
  8
0
 10
-18.4973
 20
-20
 11
-19.6448
 21
-20
  0
LINE
  8
0
 10
-35.7275
 20
-20
 11
-36.1731
 21
-19.8584
  0
LINE
  8
0
 10
-36.1731
 20
-19.8584
 11
-36.5393
 21
-19.4629
  0
LINE
  8
0
 10
-36.5393
 20
-19.4629
 11
-36.7871
 21
-18.8782
  0
LINE
  8
0
 10
-36.7871
 20
-18.8782
 11
-36.875
 21
-18.1653
  0
LINE
  8
0
 10
-36.875
 20
-18.1653
 11
-36.875
 21
-11.6736
  0
LINE
  8
0
 10
-36.875
 20
-11.6736
 11
-36.7871
 21
-10.9619
  0
LINE
  8
0
 10
-36.7871
 20
-10.9619
 11
-36.5393
 21
-10.376
  0
LINE
  8
0
 10
-36.5393
 20
-10.376
 11
-36.1731
 21
-9.98047
  0
LINE
  8
0
 10
-36.1731
 20
-9.98047
 11
-35.7275
 21
-9.84009
  0
LINE
  8
0
 10
-35.7275
 20
-9.84009
 11
-31.6711
 21
-9.84009
  0
LINE
  8
0
 10
-31.6711
 20
-9.84009
 11
-31.2256
 21
-9.98047
  0
LINE
  8
0
 10
-31.2256
 20
-9.98047
 11
-30.8594
 21
-10.376
  0
LINE
  8
0
 10
-30.8594
 20
-10.376
 11
-30.6128
 21
-10.9619
  0
LINE
  8
0
 10
-30.6128
 20
-10.9619
 11
-30.5249
 21
-11.6736
  0
LINE
  8
0
 10
-30.5249
 20
-11.6736
 11
-30.5249
 21
-18.1653
  0
LINE
  8
0
 10
-30.5249
 20
-18.1653
 11
-30.6128
 21
-18.8782
  0
LINE
  8
0
 10
-30.6128
 20
-18.8782
 11
-30.8594
 21
-19.4629
  0
LINE
  8
0
 10
-30.8594
 20
-19.4629
 11
-31.2256
 21
-19.8584
  0
LINE
  8
0
 10
-31.2256
 20
-19.8584
 11
-31.6711
 21
-20
  0
LINE
  8
0
 10
-31.6711
 20
-20
 11
-35.7275
 21
-20
  0
LINE
  8
0
 10
-31.7944
 20
-11.3635
 11
-35.7275
 21
-11.3635
  0
LINE
  8
0
 10
-35.7275
 20
-11.3635
 11
-35.8643
 21
-11.4551
  0
LINE
  8
0
 10
-35.8643
 20
-11.4551
 11
-35.9216
 21
-11.6736
  0
LINE
  8
0
 10
-35.9216
 20
-11.6736
 11
-35.9216
 21
-16.9092
  0
LINE
  8
0
 10
-35.9216
 20
-16.9092
 11
-31.7944
 21
-11.3635
  0
LINE
  8
0
 10
-31.5344
 20
-18.3838
 11
-31.4771
 21
-18.1653
  0
LINE
  8
0
 10
-31.4771
 20
-18.1653
 11
-31.4771
 21
-12.9297
  0
LINE
  8
0
 10
-31.4771
 20
-12.9297
 11
-35.6042
 21
-18.4753
  0
LINE
  8
0
 10
-35.6042
 20
-18.4753
 11
-31.6711
 21
-18.4753
  0
LINE
  8
0
 10
-31.6711
 20
-18.4753
 11
-31.5344
 21
-18.3838
  0
LINE
  8
0
 10
-43.1177
 20
-15.6445
 11
-43.1177
 21
-14.1211
  0
LINE
  8
0
 10
-43.1177
 20
-14.1211
 11
-38.1787
 21
-14.1211
  0
LINE
  8
0
 10
-38.1787
 20
-14.1211
 11
-38.1787
 21
-15.6445
  0
LINE
  8
0
 10
-38.1787
 20
-15.6445
 11
-43.1177
 21
-15.6445
  0
LINE
  8
0
 10
-27.5134
 20
-20.0195
 11
-27.5134
 21
-18.4949
  0
LINE
  8
0
 10
-27.5134
 20
-18.4949
 11
-26.4551
 21
-18.4949
  0
LINE
  8
0
 10
-26.4551
 20
-18.4949
 11
-26.4551
 21
-20.0195
  0
LINE
  8
0
 10
-26.4551
 20
-20.0195
 11
-27.5134
 21
-20.0195
  0
LINE
  8
0
 10
-52.45
 20
-33.2
 11
-52.45
 21
-26.8
  0
LINE
  8
0
 10
-52.45
 20
-26.8
 11
-37.55
 21
-26.8
  0
LINE
  8
0
 10
-37.55
 20
-26.8
 11
-37.55
 21
-33.2
  0
LINE
  8
0
 10
-37.55
 20
-33.2
 11
-52.45
 21
-33.2
  0
LINE
  8
0
 10
-22.45
 20
-33.2
 11
-22.45
 21
-26.8
  0
LINE
  8
0
 10
-22.45
 20
-26.8
 11
-7.54999
 21
-26.8
  0
LINE
  8
0
 10
-7.54999
 20
-26.8
 11
-7.54999
 21
-33.2
  0
LINE
  8
0
 10
-7.54999
 20
-33.2
 11
-22.45
 21
-33.2
  0
LINE
  8
0
 10
-30.3719
 20
-32.5864
 11
-30.8546
 21
-32.4693
  0
LINE
  8
0
 10
-30.8546
 20
-32.4693
 11
-31.3065
 21
-32.2629
  0
LINE
  8
0
 10
-31.3065
 20
-32.2629
 11
-31.7112
 21
-31.9748
  0
LINE
  8
0
 10
-31.7112
 20
-31.9748
 11
-32.054
 21
-31.6152
  0
LINE
  8
0
 10
-32.054
 20
-31.6152
 11
-32.3225
 21
-31.1973
  0
LINE
  8
0
 10
-32.3225
 20
-31.1973
 11
-32.5072
 21
-30.7362
  0
LINE
  8
0
 10
-32.5072
 20
-30.7362
 11
-32.6012
 21
-30.2484
  0
LINE
  8
0
 10
-32.6012
 20
-30.2484
 11
-32.6012
 21
-29.7516
  0
LINE
  8
0
 10
-32.6012
 20
-29.7516
 11
-32.5072
 21
-29.2638
  0
LINE
  8
0
 10
-32.5072
 20
-29.2638
 11
-32.3225
 21
-28.8026
  0
LINE
  8
0
 10
-32.3225
 20
-28.8026
 11
-32.054
 21
-28.3848
  0
LINE
  8
0
 10
-32.054
 20
-28.3848
 11
-31.7112
 21
-28.0252
  0
LINE
  8
0
 10
-31.7112
 20
-28.0252
 11
-31.3065
 21
-27.7371
  0
LINE
  8
0
 10
-31.3065
 20
-27.7371
 11
-30.8546
 21
-27.5307
  0
LINE
  8
0
 10
-30.8546
 20
-27.5307
 11
-30.3719
 21
-27.4136
  0
LINE
  8
0
 10
-30.3719
 20
-27.4136
 11
-29.8757
 21
-27.39
  0
LINE
  8
0
 10
-29.8757
 20
-27.39
 11
-29.384
 21
-27.4606
  0
LINE
  8
0
 10
-29.384
 20
-27.4606
 11
-28.9145
 21
-27.6231
  0
LINE
  8
0
 10
-28.9145
 20
-27.6231
 11
-28.4843
 21
-27.8715
  0
LINE
  8
0
 10
-28.4843
 20
-27.8715
 11
-28.1089
 21
-28.1968
  0
LINE
  8
0
 10
-28.1089
 20
-28.1968
 11
-27.8018
 21
-28.5873
  0
LINE
  8
0
 10
-27.8018
 20
-28.5873
 11
-27.5742
 21
-29.0288
  0
LINE
  8
0
 10
-27.5742
 20
-29.0288
 11
-27.4342
 21
-29.5055
  0
LINE
  8
0
 10
-27.4342
 20
-29.5055
 11
-27.387
 21
-30
  0
LINE
  8
0
 10
-27.387
 20
-30
 11
-27.4342
 21
-30.4945
  0
LINE
  8
0
 10
-27.4342
 20
-30.4945
 11
-27.5742
 21
-30.9711
  0
LINE
  8
0
 10
-27.5742
 20
-30.9711
 11
-27.8018
 21
-31.4127
  0
LINE
  8
0
 10
-27.8018
 20
-31.4127
 11
-28.1089
 21
-31.8032
  0
LINE
  8
0
 10
-28.1089
 20
-31.8032
 11
-28.4843
 21
-32.1285
  0
LINE
  8
0
 10
-28.4843
 20
-32.1285
 11
-28.9145
 21
-32.3769
  0
LINE
  8
0
 10
-28.9145
 20
-32.3769
 11
-29.384
 21
-32.5393
  0
LINE
  8
0
 10
-29.384
 20
-32.5393
 11
-29.8757
 21
-32.61
  0
LINE
  8
0
 10
-29.8757
 20
-32.61
 11
-30.3719
 21
-32.5864
  0
LINE
  8
0
 10
-43
 20
-41.05
 11
-47
 21
-37.05
  0
LINE
  8
0
 10
-47
 20
-37.05
 11
-47
 21
-36.95
  0
LINE
  8
0
 10
-47
 20
-36.95
 11
-33
 21
-36.95
  0
LINE
  8
0
 10
-33
 20
-36.95
 11
-33
 21
-37.05
  0
LINE
  8
0
 10
-33
 20
-37.05
 11
-37
 21
-41.05
  0
LINE
  8
0
 10
-37
 20
-41.05
 11
-43
 21
-41.05
  0
LINE
  8
0
 10
-23
 20
-41.05
 11
-27
 21
-37.05
  0
LINE
  8
0
 10
-27
 20
-37.05
 11
-27
 21
-36.95
  0
LINE
  8
0
 10
-27
 20
-36.95
 11
-13
 21
-36.95
  0
LINE
  8
0
 10
-13
 20
-36.95
 11
-13
 21
-37.05
  0
LINE
  8
0
 10
-13
 20
-37.05
 11
-17
 21
-41.05
  0
LINE
  8
0
 10
-17
 20
-41.05
 11
-23
 21
-41.05
  0
LINE
  8
0
 10
-32.05
 20
-52
 11
-36.05
 21
-48
  0
LINE
  8
0
 10
-36.05
 20
-48
 11
-36.05
 21
-42
  0
LINE
  8
0
 10
-36.05
 20
-42
 11
-32.05
 21
-38
  0
LINE
  8
0
 10
-32.05
 20
-38
 11
-31.95
 21
-38
  0
LINE
  8
0
 10
-31.95
 20
-38
 11
-31.95
 21
-52
  0
LINE
  8
0
 10
-31.95
 20
-52
 11
-32.05
 21
-52
  0
LINE
  8
0
 10
-28.05
 20
-52
 11
-28.05
 21
-38
  0
LINE
  8
0
 10
-28.05
 20
-38
 11
-27.95
 21
-38
  0
LINE
  8
0
 10
-27.95
 20
-38
 11
-23.95
 21
-42
  0
LINE
  8
0
 10
-23.95
 20
-42
 11
-23.95
 21
-48
  0
LINE
  8
0
 10
-23.95
 20
-48
 11
-27.95
 21
-52
  0
LINE
  8
0
 10
-27.95
 20
-52
 11
-28.05
 21
-52
  0
LINE
  8
0
 10
-12.05
 20
-52
 11
-16.05
 21
-48
  0
LINE
  8
0
 10
-16.05
 20
-48
 11
-16.05
 21
-42
  0
LINE
  8
0
 10
-16.05
 20
-42
 11
-12.05
 21
-38
  0
LINE
  8
0
 10
-12.05
 20
-38
 11
-11.95
 21
-38
  0
LINE
  8
0
 10
-11.95
 20
-38
 11
-11.95
 21
-52
  0
LINE
  8
0
 10
-11.95
 20
-52
 11
-12.05
 21
-52
  0
LINE
  8
0
 10
-48.05
 20
-52
 11
-48.05
 21
-38
  0
LINE
  8
0
 10
-48.05
 20
-38
 11
-47.95
 21
-38
  0
LINE
  8
0
 10
-47.95
 20
-38
 11
-43.95
 21
-42
  0
LINE
  8
0
 10
-43.95
 20
-42
 11
-43.95
 21
-48
  0
LINE
  8
0
 10
-43.95
 20
-48
 11
-47.95
 21
-52
  0
LINE
  8
0
 10
-47.95
 20
-52
 11
-48.05
 21
-52
  0
LINE
  8
0
 10
-20.2491
 20
-47.6885
 11
-20.7389
 21
-47.5969
  0
LINE
  8
0
 10
-20.7389
 20
-47.5969
 11
-21.2035
 21
-47.4169
  0
LINE
  8
0
 10
-21.2035
 20
-47.4169
 11
-21.6271
 21
-47.1546
  0
LINE
  8
0
 10
-21.6271
 20
-47.1546
 11
-21.9953
 21
-46.819
  0
LINE
  8
0
 10
-21.9953
 20
-46.819
 11
-22.2956
 21
-46.4214
  0
LINE
  8
0
 10
-22.2956
 20
-46.4214
 11
-22.5177
 21
-45.9753
  0
LINE
  8
0
 10
-22.5177
 20
-45.9753
 11
-22.654
 21
-45.4961
  0
LINE
  8
0
 10
-22.654
 20
-45.4961
 11
-22.7
 21
-45
  0
LINE
  8
0
 10
-22.7
 20
-45
 11
-22.654
 21
-44.5039
  0
LINE
  8
0
 10
-22.654
 20
-44.5039
 11
-22.5177
 21
-44.0246
  0
LINE
  8
0
 10
-22.5177
 20
-44.0246
 11
-22.2956
 21
-43.5786
  0
LINE
  8
0
 10
-22.2956
 20
-43.5786
 11
-21.9953
 21
-43.181
  0
LINE
  8
0
 10
-21.9953
 20
-43.181
 11
-21.6271
 21
-42.8454
  0
LINE
  8
0
 10
-21.6271
 20
-42.8454
 11
-21.2035
 21
-42.5831
  0
LINE
  8
0
 10
-21.2035
 20
-42.5831
 11
-20.7389
 21
-42.4031
  0
LINE
  8
0
 10
-20.7389
 20
-42.4031
 11
-20.2491
 21
-42.3115
  0
LINE
  8
0
 10
-20.2491
 20
-42.3115
 11
-19.7509
 21
-42.3115
  0
LINE
  8
0
 10
-19.7509
 20
-42.3115
 11
-19.2611
 21
-42.4031
  0
LINE
  8
0
 10
-19.2611
 20
-42.4031
 11
-18.7965
 21
-42.5831
  0
LINE
  8
0
 10
-18.7965
 20
-42.5831
 11
-18.3729
 21
-42.8454
  0
LINE
  8
0
 10
-18.3729
 20
-42.8454
 11
-18.0047
 21
-43.181
  0
LINE
  8
0
 10
-18.0047
 20
-43.181
 11
-17.7044
 21
-43.5786
  0
LINE
  8
0
 10
-17.7044
 20
-43.5786
 11
-17.4823
 21
-44.0246
  0
LINE
  8
0
 10
-17.4823
 20
-44.0246
 11
-17.346
 21
-44.5039
  0
LINE
  8
0
 10
-17.346
 20
-44.5039
 11
-17.3
 21
-45
  0
LINE
  8
0
 10
-17.3
 20
-45
 11
-17.346
 21
-45.4961
  0
LINE
  8
0
 10
-17.346
 20
-45.4961
 11
-17.4823
 21
-45.9753
  0
LINE
  8
0
 10
-17.4823
 20
-45.9753
 11
-17.7044
 21
-46.4214
  0
LINE
  8
0
 10
-17.7044
 20
-46.4214
 11
-18.0047
 21
-46.819
  0
LINE
  8
0
 10
-18.0047
 20
-46.819
 11
-18.3729
 21
-47.1546
  0
LINE
  8
0
 10
-18.3729
 20
-47.1546
 11
-18.7965
 21
-47.4169
  0
LINE
  8
0
 10
-18.7965
 20
-47.4169
 11
-19.2611
 21
-47.5969
  0
LINE
  8
0
 10
-19.2611
 20
-47.5969
 11
-19.7509
 21
-47.6885
  0
LINE
  8
0
 10
-19.7509
 20
-47.6885
 11
-20.2491
 21
-47.6885
  0
LINE
  8
0
 10
-40.2491
 20
-47.6885
 11
-40.7389
 21
-47.5969
  0
LINE
  8
0
 10
-40.7389
 20
-47.5969
 11
-41.2035
 21
-47.4169
  0
LINE
  8
0
 10
-41.2035
 20
-47.4169
 11
-41.6271
 21
-47.1546
  0
LINE
  8
0
 10
-41.6271
 20
-47.1546
 11
-41.9953
 21
-46.819
  0
LINE
  8
0
 10
-41.9953
 20
-46.819
 11
-42.2956
 21
-46.4214
  0
LINE
  8
0
 10
-42.2956
 20
-46.4214
 11
-42.5177
 21
-45.9753
  0
LINE
  8
0
 10
-42.5177
 20
-45.9753
 11
-42.654
 21
-45.4961
  0
LINE
  8
0
 10
-42.654
 20
-45.4961
 11
-42.7
 21
-45
  0
LINE
  8
0
 10
-42.7
 20
-45
 11
-42.654
 21
-44.5039
  0
LINE
  8
0
 10
-42.654
 20
-44.5039
 11
-42.5177
 21
-44.0246
  0
LINE
  8
0
 10
-42.5177
 20
-44.0246
 11
-42.2956
 21
-43.5786
  0
LINE
  8
0
 10
-42.2956
 20
-43.5786
 11
-41.9953
 21
-43.181
  0
LINE
  8
0
 10
-41.9953
 20
-43.181
 11
-41.6271
 21
-42.8454
  0
LINE
  8
0
 10
-41.6271
 20
-42.8454
 11
-41.2035
 21
-42.5831
  0
LINE
  8
0
 10
-41.2035
 20
-42.5831
 11
-40.7389
 21
-42.4031
  0
LINE
  8
0
 10
-40.7389
 20
-42.4031
 11
-40.2491
 21
-42.3115
  0
LINE
  8
0
 10
-40.2491
 20
-42.3115
 11
-39.7509
 21
-42.3115
  0
LINE
  8
0
 10
-39.7509
 20
-42.3115
 11
-39.2611
 21
-42.4031
  0
LINE
  8
0
 10
-39.2611
 20
-42.4031
 11
-38.7965
 21
-42.5831
  0
LINE
  8
0
 10
-38.7965
 20
-42.5831
 11
-38.3729
 21
-42.8454
  0
LINE
  8
0
 10
-38.3729
 20
-42.8454
 11
-38.0047
 21
-43.181
  0
LINE
  8
0
 10
-38.0047
 20
-43.181
 11
-37.7044
 21
-43.5786
  0
LINE
  8
0
 10
-37.7044
 20
-43.5786
 11
-37.4823
 21
-44.0246
  0
LINE
  8
0
 10
-37.4823
 20
-44.0246
 11
-37.346
 21
-44.5039
  0
LINE
  8
0
 10
-37.346
 20
-44.5039
 11
-37.3
 21
-45
  0
LINE
  8
0
 10
-37.3
 20
-45
 11
-37.346
 21
-45.4961
  0
LINE
  8
0
 10
-37.346
 20
-45.4961
 11
-37.4823
 21
-45.9753
  0
LINE
  8
0
 10
-37.4823
 20
-45.9753
 11
-37.7044
 21
-46.4214
  0
LINE
  8
0
 10
-37.7044
 20
-46.4214
 11
-38.0047
 21
-46.819
  0
LINE
  8
0
 10
-38.0047
 20
-46.819
 11
-38.3729
 21
-47.1546
  0
LINE
  8
0
 10
-38.3729
 20
-47.1546
 11
-38.7965
 21
-47.4169
  0
LINE
  8
0
 10
-38.7965
 20
-47.4169
 11
-39.2611
 21
-47.5969
  0
LINE
  8
0
 10
-39.2611
 20
-47.5969
 11
-39.7509
 21
-47.6885
  0
LINE
  8
0
 10
-39.7509
 20
-47.6885
 11
-40.2491
 21
-47.6885
  0
LINE
  8
0
 10
-47
 20
-53.05
 11
-47
 21
-52.95
  0
LINE
  8
0
 10
-47
 20
-52.95
 11
-43
 21
-48.95
  0
LINE
  8
0
 10
-43
 20
-48.95
 11
-37
 21
-48.95
  0
LINE
  8
0
 10
-37
 20
-48.95
 11
-33
 21
-52.95
  0
LINE
  8
0
 10
-33
 20
-52.95
 11
-33
 21
-53.05
  0
LINE
  8
0
 10
-33
 20
-53.05
 11
-47
 21
-53.05
  0
LINE
  8
0
 10
-27
 20
-53.05
 11
-27
 21
-52.95
  0
LINE
  8
0
 10
-27
 20
-52.95
 11
-23
 21
-48.95
  0
LINE
  8
0
 10
-23
 20
-48.95
 11
-17
 21
-48.95
  0
LINE
  8
0
 10
-17
 20
-48.95
 11
-13
 21
-52.95
  0
LINE
  8
0
 10
-13
 20
-52.95
 11
-13
 21
-53.05
  0
LINE
  8
0
 10
-13
 20
-53.05
 11
-27
 21
-53.05
  0
LINE
  8
0
 10
-30.4978
 20
-66.9751
 11
-30.9907
 21
-66.9009
  0
LINE
  8
0
 10
-30.9907
 20
-66.9009
 11
-31.4738
 21
-66.7779
  0
LINE
  8
0
 10
-31.4738
 20
-66.7779
 11
-31.9422
 21
-66.6074
  0
LINE
  8
0
 10
-31.9422
 20
-66.6074
 11
-32.3913
 21
-66.3911
  0
LINE
  8
0
 10
-32.3913
 20
-66.3911
 11
-32.8166
 21
-66.1312
  0
LINE
  8
0
 10
-32.8166
 20
-66.1312
 11
-33.2139
 21
-65.8302
  0
LINE
  8
0
 10
-33.2139
 20
-65.8302
 11
-33.5793
 21
-65.4912
  0
LINE
  8
0
 10
-33.5793
 20
-65.4912
 11
-33.9091
 21
-65.1174
  0
LINE
  8
0
 10
-33.9091
 20
-65.1174
 11
-34.2001
 21
-64.7127
  0
LINE
  8
0
 10
-34.2001
 20
-64.7127
 11
-34.4494
 21
-64.2811
  0
LINE
  8
0
 10
-34.4494
 20
-64.2811
 11
-34.6544
 21
-63.8267
  0
LINE
  8
0
 10
-34.6544
 20
-63.8267
 11
-34.8131
 21
-63.3542
  0
LINE
  8
0
 10
-34.8131
 20
-63.3542
 11
-34.924
 21
-62.8682
  0
LINE
  8
0
 10
-34.924
 20
-62.8682
 11
-34.986
 21
-62.3736
  0
LINE
  8
0
 10
-34.986
 20
-62.3736
 11
-34.9984
 21
-61.8753
  0
LINE
  8
0
 10
-34.9984
 20
-61.8753
 11
-34.9612
 21
-61.3783
  0
LINE
  8
0
 10
-34.9612
 20
-61.3783
 11
-34.8746
 21
-60.8874
  0
LINE
  8
0
 10
-34.8746
 20
-60.8874
 11
-34.7396
 21
-60.4076
  0
LINE
  8
0
 10
-34.7396
 20
-60.4076
 11
-34.5575
 21
-59.9436
  0
LINE
  8
0
 10
-34.5575
 20
-59.9436
 11
-34.3301
 21
-59.5
  0
LINE
  8
0
 10
-34.3301
 20
-59.5
 11
-34.0597
 21
-59.0813
  0
LINE
  8
0
 10
-34.0597
 20
-59.0813
 11
-33.7489
 21
-58.6916
  0
LINE
  8
0
 10
-33.7489
 20
-58.6916
 11
-33.4009
 21
-58.3347
  0
LINE
  8
0
 10
-33.4009
 20
-58.3347
 11
-33.019
 21
-58.0143
  0
LINE
  8
0
 10
-33.019
 20
-58.0143
 11
-32.6072
 21
-57.7335
  0
LINE
  8
0
 10
-32.6072
 20
-57.7335
 11
-32.1694
 21
-57.4951
  0
LINE
  8
0
 10
-32.1694
 20
-57.4951
 11
-31.7101
 21
-57.3015
  0
LINE
  8
0
 10
-31.7101
 20
-57.3015
 11
-31.2338
 21
-57.1546
  0
LINE
  8
0
 10
-31.2338
 20
-57.1546
 11
-30.7452
 21
-57.0558
  0
LINE
  8
0
 10
-30.7452
 20
-57.0558
 11
-30.2492
 21
-57.0062
  0
LINE
  8
0
 10
-30.2492
 20
-57.0062
 11
-29.7508
 21
-57.0062
  0
LINE
  8
0
 10
-29.7508
 20
-57.0062
 11
-29.2548
 21
-57.0558
  0
LINE
  8
0
 10
-29.2548
 20
-57.0558
 11
-28.7662
 21
-57.1546
  0
LINE
  8
0
 10
-28.7662
 20
-57.1546
 11
-28.2899
 21
-57.3015
  0
LINE
  8
0
 10
-28.2899
 20
-57.3015
 11
-27.8306
 21
-57.4951
  0
LINE
  8
0
 10
-27.8306
 20
-57.4951
 11
-27.3928
 21
-57.7335
  0
LINE
  8
0
 10
-27.3928
 20
-57.7335
 11
-26.981
 21
-58.0143
  0
LINE
  8
0
 10
-26.981
 20
-58.0143
 11
-26.5991
 21
-58.3347
  0
LINE
  8
0
 10
-26.5991
 20
-58.3347
 11
-26.2511
 21
-58.6916
  0
LINE
  8
0
 10
-26.2511
 20
-58.6916
 11
-25.9403
 21
-59.0813
  0
LINE
  8
0
 10
-25.9403
 20
-59.0813
 11
-25.6699
 21
-59.5
  0
LINE
  8
0
 10
-25.6699
 20
-59.5
 11
-25.4425
 21
-59.9436
  0
LINE
  8
0
 10
-25.4425
 20
-59.9436
 11
-25.2604
 21
-60.4076
  0
LINE
  8
0
 10
-25.2604
 20
-60.4076
 11
-25.1254
 21
-60.8874
  0
LINE
  8
0
 10
-25.1254
 20
-60.8874
 11
-25.0388
 21
-61.3783
  0
LINE
  8
0
 10
-25.0388
 20
-61.3783
 11
-25.0015
 21
-61.8753
  0
LINE
  8
0
 10
-25.0015
 20
-61.8753
 11
-25.014
 21
-62.3736
  0
LINE
  8
0
 10
-25.014
 20
-62.3736
 11
-25.076
 21
-62.8682
  0
LINE
  8
0
 10
-25.076
 20
-62.8682
 11
-25.1869
 21
-63.3542
  0
LINE
  8
0
 10
-25.1869
 20
-63.3542
 11
-25.3456
 21
-63.8267
  0
LINE
  8
0
 10
-25.3456
 20
-63.8267
 11
-25.5506
 21
-64.2811
  0
LINE
  8
0
 10
-25.5506
 20
-64.2811
 11
-25.7999
 21
-64.7127
  0
LINE
  8
0
 10
-25.7999
 20
-64.7127
 11
-26.0908
 21
-65.1174
  0
LINE
  8
0
 10
-26.0908
 20
-65.1174
 11
-26.4207
 21
-65.4912
  0
LINE
  8
0
 10
-26.4207
 20
-65.4912
 11
-26.7861
 21
-65.8302
  0
LINE
  8
0
 10
-26.7861
 20
-65.8302
 11
-27.1834
 21
-66.1312
  0
LINE
  8
0
 10
-27.1834
 20
-66.1312
 11
-27.6087
 21
-66.3911
  0
LINE
  8
0
 10
-27.6087
 20
-66.3911
 11
-28.0578
 21
-66.6074
  0
LINE
  8
0
 10
-28.0578
 20
-66.6074
 11
-28.5262
 21
-66.7779
  0
LINE
  8
0
 10
-28.5262
 20
-66.7779
 11
-29.0093
 21
-66.9009
  0
LINE
  8
0
 10
-29.0093
 20
-66.9009
 11
-29.5022
 21
-66.9751
  0
LINE
  8
0
 10
-29.5022
 20
-66.9751
 11
-30
 21
-67
  0
LINE
  8
0
 10
-30
 20
-67
 11
-30.4978
 21
-66.9751
  0
LINE
  8
0
 10
-20.5
 20
-64.5
 11
-20.5
 21
-59.5
  0
LINE
  8
0
 10
-20.5
 20
-59.5
 11
-17.5
 21
-59.5
  0
LINE
  8
0
 10
-17.5
 20
-59.5
 11
-17.5
 21
-64.5
  0
LINE
  8
0
 10
-17.5
 20
-64.5
 11
-20.5
 21
-64.5
  0
LINE
  8
0
 10
-42.5
 20
-64.5
 11
-42.5
 21
-59.5
  0
LINE
  8
0
 10
-42.5
 20
-59.5
 11
-39.5
 21
-59.5
  0
LINE
  8
0
 10
-39.5
 20
-59.5
 11
-39.5
 21
-64.5
  0
LINE
  8
0
 10
-39.5
 20
-64.5
 11
-42.5
 21
-64.5
  0
LINE
  8
0
 10
17.5
 20
-49.875
 11
17.5
 21
-45
  0
LINE
  8
0
 10
17.5
 20
-45
 11
22.437
 21
-45
  0
LINE
  8
0
 10
22.437
 20
-45
 11
22.437
 21
-37.4375
  0
LINE
  8
0
 10
22.437
 20
-37.4375
 11
18.2648
 21
-37.4375
  0
LINE
  8
0
 10
18.2648
 20
-37.4375
 11
18.2648
 21
-33.0625
  0
LINE
  8
0
 10
18.2648
 20
-33.0625
 11
22.437
 21
-33.0625
  0
LINE
  8
0
 10
22.437
 20
-33.0625
 11
22.437
 21
-25.5
  0
LINE
  8
0
 10
22.437
 20
-25.5
 11
27.563
 21
-25.5
  0
LINE
  8
0
 10
27.563
 20
-25.5
 11
27.563
 21
-33.0625
  0
LINE
  8
0
 10
27.563
 20
-33.0625
 11
31.7352
 21
-33.0625
  0
LINE
  8
0
 10
31.7352
 20
-33.0625
 11
31.7352
 21
-37.4375
  0
LINE
  8
0
 10
31.7352
 20
-37.4375
 11
27.563
 21
-37.4375
  0
LINE
  8
0
 10
27.563
 20
-37.4375
 11
27.563
 21
-45
  0
LINE
  8
0
 10
27.563
 20
-45
 11
32.5
 21
-45
  0
LINE
  8
0
 10
32.5
 20
-45
 11
32.5
 21
-49.875
  0
LINE
  8
0
 10
32.5
 20
-49.875
 11
34.125
 21
-51.5
  0
LINE
  8
0
 10
34.125
 20
-51.5
 11
45.875
 21
-51.5
  0
LINE
  8
0
 10
45.875
 20
-51.5
 11
47.5
 21
-49.875
  0
LINE
  8
0
 10
47.5
 20
-49.875
 11
47.5
 21
-45
  0
LINE
  8
0
 10
47.5
 20
-45
 11
50
 21
-45
  0
LINE
  8
0
 10
50
 20
-45
 11
50
 21
-7
  0
LINE
  8
0
 10
50
 20
-7
 11
0
 21
-7
  0
LINE
  8
0
 10
0
 20
-7
 11
0
 21
-45
  0
LINE
  8
0
 10
0
 20
-45
 11
2.5
 21
-45
  0
LINE
  8
0
 10
2.5
 20
-45
 11
2.5
 21
-49.875
  0
LINE
  8
0
 10
2.5
 20
-49.875
 11
4.125
 21
-51.5
  0
LINE
  8
0
 10
4.125
 20
-51.5
 11
15.875
 21
-51.5
  0
LINE
  8
0
 10
15.875
 20
-51.5
 11
17.5
 21
-49.875
  0
LINE
  8
0
 10
26.1475
 20
-20
 11
25.7458
 21
-19.8792
  0
LINE
  8
0
 10
25.7458
 20
-19.8792
 11
25.4065
 21
-19.5557
  0
LINE
  8
0
 10
25.4065
 20
-19.5557
 11
25.155
 21
-19.0759
  0
LINE
  8
0
 10
25.155
 20
-19.0759
 11
25.0183
 21
-18.4753
  0
LINE
  8
0
 10
25.0183
 20
-18.4753
 11
30.2039
 21
-18.4753
  0
LINE
  8
0
 10
30.2039
 20
-18.4753
 11
30.3406
 21
-18.3838
  0
LINE
  8
0
 10
30.3406
 20
-18.3838
 11
30.3979
 21
-18.1653
  0
LINE
  8
0
 10
30.3979
 20
-18.1653
 11
30.3979
 21
-16.1328
  0
LINE
  8
0
 10
30.3979
 20
-16.1328
 11
30.3406
 21
-15.9143
  0
LINE
  8
0
 10
30.3406
 20
-15.9143
 11
30.2039
 21
-15.8228
  0
LINE
  8
0
 10
30.2039
 20
-15.8228
 11
26.1475
 21
-15.8228
  0
LINE
  8
0
 10
26.1475
 20
-15.8228
 11
25.7019
 21
-15.6812
  0
LINE
  8
0
 10
25.7019
 20
-15.6812
 11
25.3357
 21
-15.2869
  0
LINE
  8
0
 10
25.3357
 20
-15.2869
 11
25.0891
 21
-14.7009
  0
LINE
  8
0
 10
25.0891
 20
-14.7009
 11
25
 21
-13.988
  0
LINE
  8
0
 10
25
 20
-13.988
 11
25
 21
-11.6736
  0
LINE
  8
0
 10
25
 20
-11.6736
 11
25.0891
 21
-10.9619
  0
LINE
  8
0
 10
25.0891
 20
-10.9619
 11
25.3357
 21
-10.376
  0
LINE
  8
0
 10
25.3357
 20
-10.376
 11
25.7019
 21
-9.98047
  0
LINE
  8
0
 10
25.7019
 20
-9.98047
 11
26.1475
 21
-9.84009
  0
LINE
  8
0
 10
26.1475
 20
-9.84009
 11
30.2039
 21
-9.84009
  0
LINE
  8
0
 10
30.2039
 20
-9.84009
 11
30.6494
 21
-9.98047
  0
LINE
  8
0
 10
30.6494
 20
-9.98047
 11
31.0156
 21
-10.376
  0
LINE
  8
0
 10
31.0156
 20
-10.376
 11
31.2622
 21
-10.9619
  0
LINE
  8
0
 10
31.2622
 20
-10.9619
 11
31.3501
 21
-11.6736
  0
LINE
  8
0
 10
31.3501
 20
-11.6736
 11
31.3501
 21
-18.1653
  0
LINE
  8
0
 10
31.3501
 20
-18.1653
 11
31.2622
 21
-18.8782
  0
LINE
  8
0
 10
31.2622
 20
-18.8782
 11
31.0156
 21
-19.4629
  0
LINE
  8
0
 10
31.0156
 20
-19.4629
 11
30.6494
 21
-19.8584
  0
LINE
  8
0
 10
30.6494
 20
-19.8584
 11
30.2039
 21
-20
  0
LINE
  8
0
 10
30.2039
 20
-20
 11
26.1475
 21
-20
  0
LINE
  8
0
 10
30.3979
 20
-11.6736
 11
30.3406
 21
-11.4551
  0
LINE
  8
0
 10
30.3406
 20
-11.4551
 11
30.2039
 21
-11.3635
  0
LINE
  8
0
 10
30.2039
 20
-11.3635
 11
26.1475
 21
-11.3635
  0
LINE
  8
0
 10
26.1475
 20
-11.3635
 11
26.0107
 21
-11.4551
  0
LINE
  8
0
 10
26.0107
 20
-11.4551
 11
25.9534
 21
-11.6736
  0
LINE
  8
0
 10
25.9534
 20
-11.6736
 11
25.9534
 21
-13.988
  0
LINE
  8
0
 10
25.9534
 20
-13.988
 11
26.0107
 21
-14.2065
  0
LINE
  8
0
 10
26.0107
 20
-14.2065
 11
26.1475
 21
-14.2993
  0
LINE
  8
0
 10
26.1475
 20
-14.2993
 11
30.3979
 21
-14.2993
  0
LINE
  8
0
 10
30.3979
 20
-14.2993
 11
30.3979
 21
-11.6736
  0
LINE
  8
0
 10
33.0225
 20
-20
 11
32.5769
 21
-19.8584
  0
LINE
  8
0
 10
32.5769
 20
-19.8584
 11
32.2107
 21
-19.4629
  0
LINE
  8
0
 10
32.2107
 20
-19.4629
 11
31.9629
 21
-18.8782
  0
LINE
  8
0
 10
31.9629
 20
-18.8782
 11
31.875
 21
-18.1653
  0
LINE
  8
0
 10
31.875
 20
-18.1653
 11
31.875
 21
-17.572
  0
LINE
  8
0
 10
31.875
 20
-17.572
 11
32.8284
 21
-17.572
  0
LINE
  8
0
 10
32.8284
 20
-17.572
 11
32.8284
 21
-18.1653
  0
LINE
  8
0
 10
32.8284
 20
-18.1653
 11
32.8857
 21
-18.3838
  0
LINE
  8
0
 10
32.8857
 20
-18.3838
 11
33.0225
 21
-18.4753
  0
LINE
  8
0
 10
33.0225
 20
-18.4753
 11
37.0789
 21
-18.4753
  0
LINE
  8
0
 10
37.0789
 20
-18.4753
 11
37.2156
 21
-18.3838
  0
LINE
  8
0
 10
37.2156
 20
-18.3838
 11
37.2729
 21
-18.1653
  0
LINE
  8
0
 10
37.2729
 20
-18.1653
 11
37.2729
 21
-15.8508
  0
LINE
  8
0
 10
37.2729
 20
-15.8508
 11
37.2156
 21
-15.6323
  0
LINE
  8
0
 10
37.2156
 20
-15.6323
 11
37.0789
 21
-15.5408
  0
LINE
  8
0
 10
37.0789
 20
-15.5408
 11
31.875
 21
-15.5408
  0
LINE
  8
0
 10
31.875
 20
-15.5408
 11
31.875
 21
-14.0161
  0
LINE
  8
0
 10
31.875
 20
-14.0161
 11
31.8933
 21
-14.0161
  0
LINE
  8
0
 10
31.8933
 20
-14.0161
 11
31.8799
 21
-13.8684
  0
LINE
  8
0
 10
31.8799
 20
-13.8684
 11
31.875
 21
-13.7061
  0
LINE
  8
0
 10
31.875
 20
-13.7061
 11
31.875
 21
-9.84009
  0
LINE
  8
0
 10
31.875
 20
-9.84009
 11
38.2251
 21
-9.84009
  0
LINE
  8
0
 10
38.2251
 20
-9.84009
 11
38.2251
 21
-11.3635
  0
LINE
  8
0
 10
38.2251
 20
-11.3635
 11
33.0225
 21
-11.3635
  0
LINE
  8
0
 10
33.0225
 20
-11.3635
 11
32.8857
 21
-11.4551
  0
LINE
  8
0
 10
32.8857
 20
-11.4551
 11
32.8284
 21
-11.6736
  0
LINE
  8
0
 10
32.8284
 20
-11.6736
 11
32.8284
 21
-13.7061
  0
LINE
  8
0
 10
32.8284
 20
-13.7061
 11
32.8857
 21
-13.9246
  0
LINE
  8
0
 10
32.8857
 20
-13.9246
 11
33.0225
 21
-14.0161
  0
LINE
  8
0
 10
33.0225
 20
-14.0161
 11
37.0789
 21
-14.0161
  0
LINE
  8
0
 10
37.0789
 20
-14.0161
 11
37.5244
 21
-14.1577
  0
LINE
  8
0
 10
37.5244
 20
-14.1577
 11
37.8906
 21
-14.5532
  0
LINE
  8
0
 10
37.8906
 20
-14.5532
 11
38.1372
 21
-15.1379
  0
LINE
  8
0
 10
38.1372
 20
-15.1379
 11
38.2251
 21
-15.8508
  0
LINE
  8
0
 10
38.2251
 20
-15.8508
 11
38.2251
 21
-18.1653
  0
LINE
  8
0
 10
38.2251
 20
-18.1653
 11
38.1372
 21
-18.8782
  0
LINE
  8
0
 10
38.1372
 20
-18.8782
 11
37.8906
 21
-19.4629
  0
LINE
  8
0
 10
37.8906
 20
-19.4629
 11
37.5244
 21
-19.8584
  0
LINE
  8
0
 10
37.5244
 20
-19.8584
 11
37.0789
 21
-20
  0
LINE
  8
0
 10
37.0789
 20
-20
 11
33.0225
 21
-20
  0
LINE
  8
0
 10
12.3975
 20
-20
 11
11.9519
 21
-19.8584
  0
LINE
  8
0
 10
11.9519
 20
-19.8584
 11
11.5857
 21
-19.4629
  0
LINE
  8
0
 10
11.5857
 20
-19.4629
 11
11.3379
 21
-18.8782
  0
LINE
  8
0
 10
11.3379
 20
-18.8782
 11
11.25
 21
-18.1653
  0
LINE
  8
0
 10
11.25
 20
-18.1653
 11
11.25
 21
-17.7417
  0
LINE
  8
0
 10
11.25
 20
-17.7417
 11
12.2034
 21
-17.7417
  0
LINE
  8
0
 10
12.2034
 20
-17.7417
 11
12.2034
 21
-18.1653
  0
LINE
  8
0
 10
12.2034
 20
-18.1653
 11
12.2607
 21
-18.3838
  0
LINE
  8
0
 10
12.2607
 20
-18.3838
 11
12.3975
 21
-18.4753
  0
LINE
  8
0
 10
12.3975
 20
-18.4753
 11
16.4539
 21
-18.4753
  0
LINE
  8
0
 10
16.4539
 20
-18.4753
 11
16.5906
 21
-18.3838
  0
LINE
  8
0
 10
16.5906
 20
-18.3838
 11
16.6479
 21
-18.1653
  0
LINE
  8
0
 10
16.6479
 20
-18.1653
 11
16.6479
 21
-15.8936
  0
LINE
  8
0
 10
16.6479
 20
-15.8936
 11
16.5906
 21
-15.675
  0
LINE
  8
0
 10
16.5906
 20
-15.675
 11
16.4539
 21
-15.5835
  0
LINE
  8
0
 10
16.4539
 20
-15.5835
 11
12.3975
 21
-15.5835
  0
LINE
  8
0
 10
12.3975
 20
-15.5835
 11
12.3975
 21
-14.0588
  0
LINE
  8
0
 10
12.3975
 20
-14.0588
 11
16.189
 21
-14.0588
  0
LINE
  8
0
 10
16.189
 20
-14.0588
 11
16.3257
 21
-13.9673
  0
LINE
  8
0
 10
16.3257
 20
-13.9673
 11
16.3831
 21
-13.7488
  0
LINE
  8
0
 10
16.3831
 20
-13.7488
 11
16.3831
 21
-11.6736
  0
LINE
  8
0
 10
16.3831
 20
-11.6736
 11
16.3257
 21
-11.4551
  0
LINE
  8
0
 10
16.3257
 20
-11.4551
 11
16.189
 21
-11.3635
  0
LINE
  8
0
 10
16.189
 20
-11.3635
 11
12.3975
 21
-11.3635
  0
LINE
  8
0
 10
12.3975
 20
-11.3635
 11
12.2607
 21
-11.4551
  0
LINE
  8
0
 10
12.2607
 20
-11.4551
 11
12.2034
 21
-11.6736
  0
LINE
  8
0
 10
12.2034
 20
-11.6736
 11
12.2034
 21
-12.2388
  0
LINE
  8
0
 10
12.2034
 20
-12.2388
 11
11.25
 21
-12.2388
  0
LINE
  8
0
 10
11.25
 20
-12.2388
 11
11.25
 21
-11.6736
  0
LINE
  8
0
 10
11.25
 20
-11.6736
 11
11.3379
 21
-10.9619
  0
LINE
  8
0
 10
11.3379
 20
-10.9619
 11
11.5857
 21
-10.376
  0
LINE
  8
0
 10
11.5857
 20
-10.376
 11
11.9519
 21
-9.98047
  0
LINE
  8
0
 10
11.9519
 20
-9.98047
 11
12.3975
 21
-9.84009
  0
LINE
  8
0
 10
12.3975
 20
-9.84009
 11
16.189
 21
-9.84009
  0
LINE
  8
0
 10
16.189
 20
-9.84009
 11
16.6345
 21
-9.98047
  0
LINE
  8
0
 10
16.6345
 20
-9.98047
 11
17.0007
 21
-10.376
  0
LINE
  8
0
 10
17.0007
 20
-10.376
 11
17.2473
 21
-10.9619
  0
LINE
  8
0
 10
17.2473
 20
-10.9619
 11
17.3352
 21
-11.6736
  0
LINE
  8
0
 10
17.3352
 20
-11.6736
 11
17.3352
 21
-13.7488
  0
LINE
  8
0
 10
17.3352
 20
-13.7488
 11
17.2217
 21
-14.5386
  0
LINE
  8
0
 10
17.2217
 20
-14.5386
 11
17.4988
 21
-15.1318
  0
LINE
  8
0
 10
17.4988
 20
-15.1318
 11
17.6001
 21
-15.8936
  0
LINE
  8
0
 10
17.6001
 20
-15.8936
 11
17.6001
 21
-18.1653
  0
LINE
  8
0
 10
17.6001
 20
-18.1653
 11
17.5122
 21
-18.8782
  0
LINE
  8
0
 10
17.5122
 20
-18.8782
 11
17.2656
 21
-19.4629
  0
LINE
  8
0
 10
17.2656
 20
-19.4629
 11
16.8994
 21
-19.8584
  0
LINE
  8
0
 10
16.8994
 20
-19.8584
 11
16.4539
 21
-20
  0
LINE
  8
0
 10
16.4539
 20
-20
 11
12.3975
 21
-20
  0
LINE
  8
0
 10
20.6116
 20
-20.0195
 11
20.6116
 21
-18.4949
  0
LINE
  8
0
 10
20.6116
 20
-18.4949
 11
21.6699
 21
-18.4949
  0
LINE
  8
0
 10
21.6699
 20
-18.4949
 11
21.6699
 21
-20.0195
  0
LINE
  8
0
 10
21.6699
 20
-20.0195
 11
20.6116
 21
-20.0195
  0
ENDSEC
  0
SECTION
  2
OBJECTS
  0
DICTIONARY
  0
ENDSEC
  0
EOF
