  0
SECTION
  2
BLOCKS
  0
ENDSEC
  0
SECTION
  2
ENTITIES
  0
LINE
  8
0
 10
-3.25
 20
-134.784
 11
-3.2
 21
-134.784
  0
LINE
  8
0
 10
-3.2
 20
-134.784
 11
-3.2
 21
-131.502
  0
LINE
  8
0
 10
-3.2
 20
-131.502
 11
3.2
 21
-131.502
  0
LINE
  8
0
 10
3.2
 20
-131.502
 11
3.2
 21
-134.784
  0
LINE
  8
0
 10
3.2
 20
-134.784
 11
3.25
 21
-134.784
  0
LINE
  8
0
 10
3.25
 20
-134.784
 11
3.25
 21
-152.4
  0
LINE
  8
0
 10
3.25
 20
-152.4
 11
23.25
 21
-152.4
  0
LINE
  8
0
 10
23.25
 20
-152.4
 11
23.25
 21
152.4
  0
LINE
  8
0
 10
23.25
 20
152.4
 11
3.25
 21
152.4
  0
LINE
  8
0
 10
3.25
 20
152.4
 11
3.25
 21
134.784
  0
LINE
  8
0
 10
3.25
 20
134.784
 11
3.2
 21
134.784
  0
LINE
  8
0
 10
3.2
 20
134.784
 11
3.2
 21
131.502
  0
LINE
  8
0
 10
3.2
 20
131.502
 11
-3.2
 21
131.502
  0
LINE
  8
0
 10
-3.2
 20
131.502
 11
-3.2
 21
134.784
  0
LINE
  8
0
 10
-3.2
 20
134.784
 11
-3.25
 21
134.784
  0
LINE
  8
0
 10
-3.25
 20
134.784
 11
-3.25
 21
152.4
  0
LINE
  8
0
 10
-3.25
 20
152.4
 11
-6.5
 21
152.4
  0
LINE
  8
0
 10
-6.5
 20
152.4
 11
-6.5
 21
-152.4
  0
LINE
  8
0
 10
-6.5
 20
-152.4
 11
-3.25
 21
-152.4
  0
LINE
  8
0
 10
-3.25
 20
-152.4
 11
-3.25
 21
-134.784
  0
LINE
  8
0
 10
13.0009
 20
139.712
 11
12.5111
 21
139.803
  0
LINE
  8
0
 10
12.5111
 20
139.803
 11
12.0465
 21
139.983
  0
LINE
  8
0
 10
12.0465
 20
139.983
 11
11.6229
 21
140.245
  0
LINE
  8
0
 10
11.6229
 20
140.245
 11
11.2547
 21
140.581
  0
LINE
  8
0
 10
11.2547
 20
140.581
 11
10.9544
 21
140.979
  0
LINE
  8
0
 10
10.9544
 20
140.979
 11
10.7323
 21
141.425
  0
LINE
  8
0
 10
10.7323
 20
141.425
 11
10.596
 21
141.904
  0
LINE
  8
0
 10
10.596
 20
141.904
 11
10.55
 21
142.4
  0
LINE
  8
0
 10
10.55
 20
142.4
 11
10.596
 21
142.896
  0
LINE
  8
0
 10
10.596
 20
142.896
 11
10.7323
 21
143.375
  0
LINE
  8
0
 10
10.7323
 20
143.375
 11
10.9544
 21
143.821
  0
LINE
  8
0
 10
10.9544
 20
143.821
 11
11.2547
 21
144.219
  0
LINE
  8
0
 10
11.2547
 20
144.219
 11
11.6229
 21
144.555
  0
LINE
  8
0
 10
11.6229
 20
144.555
 11
12.0465
 21
144.817
  0
LINE
  8
0
 10
12.0465
 20
144.817
 11
12.5111
 21
144.997
  0
LINE
  8
0
 10
12.5111
 20
144.997
 11
13.0009
 21
145.088
  0
LINE
  8
0
 10
13.0009
 20
145.088
 11
13.4991
 21
145.088
  0
LINE
  8
0
 10
13.4991
 20
145.088
 11
13.9889
 21
144.997
  0
LINE
  8
0
 10
13.9889
 20
144.997
 11
14.4535
 21
144.817
  0
LINE
  8
0
 10
14.4535
 20
144.817
 11
14.8771
 21
144.555
  0
LINE
  8
0
 10
14.8771
 20
144.555
 11
15.2453
 21
144.219
  0
LINE
  8
0
 10
15.2453
 20
144.219
 11
15.5456
 21
143.821
  0
LINE
  8
0
 10
15.5456
 20
143.821
 11
15.7677
 21
143.375
  0
LINE
  8
0
 10
15.7677
 20
143.375
 11
15.904
 21
142.896
  0
LINE
  8
0
 10
15.904
 20
142.896
 11
15.95
 21
142.4
  0
LINE
  8
0
 10
15.95
 20
142.4
 11
15.904
 21
141.904
  0
LINE
  8
0
 10
15.904
 20
141.904
 11
15.7677
 21
141.425
  0
LINE
  8
0
 10
15.7677
 20
141.425
 11
15.5456
 21
140.979
  0
LINE
  8
0
 10
15.5456
 20
140.979
 11
15.2453
 21
140.581
  0
LINE
  8
0
 10
15.2453
 20
140.581
 11
14.8771
 21
140.245
  0
LINE
  8
0
 10
14.8771
 20
140.245
 11
14.4535
 21
139.983
  0
LINE
  8
0
 10
14.4535
 20
139.983
 11
13.9889
 21
139.803
  0
LINE
  8
0
 10
13.9889
 20
139.803
 11
13.4991
 21
139.712
  0
LINE
  8
0
 10
13.4991
 20
139.712
 11
13.0009
 21
139.712
  0
LINE
  8
0
 10
-0.248367
 20
121.351
 11
-0.73616
 21
121.445
  0
LINE
  8
0
 10
-0.73616
 20
121.445
 11
-1.19734
 21
121.629
  0
LINE
  8
0
 10
-1.19734
 20
121.629
 11
-1.61523
 21
121.898
  0
LINE
  8
0
 10
-1.61523
 20
121.898
 11
-1.97476
 21
122.241
  0
LINE
  8
0
 10
-1.97476
 20
122.241
 11
-2.26292
 21
122.645
  0
LINE
  8
0
 10
-2.26292
 20
122.645
 11
-2.46928
 21
123.097
  0
LINE
  8
0
 10
-2.46928
 20
123.097
 11
-2.5864
 21
123.58
  0
LINE
  8
0
 10
-2.5864
 20
123.58
 11
-2.61003
 21
124.076
  0
LINE
  8
0
 10
-2.61003
 20
124.076
 11
-2.53934
 21
124.568
  0
LINE
  8
0
 10
-2.53934
 20
124.568
 11
-2.37686
 21
125.037
  0
LINE
  8
0
 10
-2.37686
 20
125.037
 11
-2.12848
 21
125.468
  0
LINE
  8
0
 10
-2.12848
 20
125.468
 11
-1.80316
 21
125.843
  0
LINE
  8
0
 10
-1.80316
 20
125.843
 11
-1.41269
 21
126.15
  0
LINE
  8
0
 10
-1.41269
 20
126.15
 11
-0.971146
 21
126.378
  0
LINE
  8
0
 10
-0.971146
 20
126.378
 11
-0.494507
 21
126.518
  0
LINE
  8
0
 10
-0.494507
 20
126.518
 11
0
 21
126.565
  0
LINE
  8
0
 10
0
 20
126.565
 11
0.494507
 21
126.518
  0
LINE
  8
0
 10
0.494507
 20
126.518
 11
0.971146
 21
126.378
  0
LINE
  8
0
 10
0.971146
 20
126.378
 11
1.41269
 21
126.15
  0
LINE
  8
0
 10
1.41269
 20
126.15
 11
1.80316
 21
125.843
  0
LINE
  8
0
 10
1.80316
 20
125.843
 11
2.12848
 21
125.468
  0
LINE
  8
0
 10
2.12848
 20
125.468
 11
2.37686
 21
125.037
  0
LINE
  8
0
 10
2.37686
 20
125.037
 11
2.53934
 21
124.568
  0
LINE
  8
0
 10
2.53934
 20
124.568
 11
2.61003
 21
124.076
  0
LINE
  8
0
 10
2.61003
 20
124.076
 11
2.5864
 21
123.58
  0
LINE
  8
0
 10
2.5864
 20
123.58
 11
2.46928
 21
123.097
  0
LINE
  8
0
 10
2.46928
 20
123.097
 11
2.26292
 21
122.645
  0
LINE
  8
0
 10
2.26292
 20
122.645
 11
1.97476
 21
122.241
  0
LINE
  8
0
 10
1.97476
 20
122.241
 11
1.61523
 21
121.898
  0
LINE
  8
0
 10
1.61523
 20
121.898
 11
1.19734
 21
121.629
  0
LINE
  8
0
 10
1.19734
 20
121.629
 11
0.73616
 21
121.445
  0
LINE
  8
0
 10
0.73616
 20
121.445
 11
0.248367
 21
121.351
  0
LINE
  8
0
 10
0.248367
 20
121.351
 11
-0.248367
 21
121.351
  0
LINE
  8
0
 10
-3.2
 20
101.502
 11
-3.2
 21
116.402
  0
LINE
  8
0
 10
-3.2
 20
116.402
 11
3.2
 21
116.402
  0
LINE
  8
0
 10
3.2
 20
116.402
 11
3.2
 21
101.502
  0
LINE
  8
0
 10
3.2
 20
101.502
 11
-3.2
 21
101.502
  0
LINE
  8
0
 10
-3.2
 20
52.254
 11
-3.2
 21
67.154
  0
LINE
  8
0
 10
-3.2
 20
67.154
 11
3.2
 21
67.154
  0
LINE
  8
0
 10
3.2
 20
67.154
 11
3.2
 21
52.254
  0
LINE
  8
0
 10
3.2
 20
52.254
 11
-3.2
 21
52.254
  0
LINE
  8
0
 10
-0.248367
 20
42.1028
 11
-0.73616
 21
42.1968
  0
LINE
  8
0
 10
-0.73616
 20
42.1968
 11
-1.19734
 21
42.3815
  0
LINE
  8
0
 10
-1.19734
 20
42.3815
 11
-1.61523
 21
42.65
  0
LINE
  8
0
 10
-1.61523
 20
42.65
 11
-1.97476
 21
42.9928
  0
LINE
  8
0
 10
-1.97476
 20
42.9928
 11
-2.26292
 21
43.3975
  0
LINE
  8
0
 10
-2.26292
 20
43.3975
 11
-2.46928
 21
43.8494
  0
LINE
  8
0
 10
-2.46928
 20
43.8494
 11
-2.5864
 21
44.3321
  0
LINE
  8
0
 10
-2.5864
 20
44.3321
 11
-2.61003
 21
44.8283
  0
LINE
  8
0
 10
-2.61003
 20
44.8283
 11
-2.53934
 21
45.32
  0
LINE
  8
0
 10
-2.53934
 20
45.32
 11
-2.37686
 21
45.7895
  0
LINE
  8
0
 10
-2.37686
 20
45.7895
 11
-2.12848
 21
46.2197
  0
LINE
  8
0
 10
-2.12848
 20
46.2197
 11
-1.80316
 21
46.5951
  0
LINE
  8
0
 10
-1.80316
 20
46.5951
 11
-1.41269
 21
46.9022
  0
LINE
  8
0
 10
-1.41269
 20
46.9022
 11
-0.971146
 21
47.1298
  0
LINE
  8
0
 10
-0.971146
 20
47.1298
 11
-0.494507
 21
47.2698
  0
LINE
  8
0
 10
-0.494507
 20
47.2698
 11
0
 21
47.317
  0
LINE
  8
0
 10
0
 20
47.317
 11
0.494507
 21
47.2698
  0
LINE
  8
0
 10
0.494507
 20
47.2698
 11
0.971146
 21
47.1298
  0
LINE
  8
0
 10
0.971146
 20
47.1298
 11
1.41269
 21
46.9022
  0
LINE
  8
0
 10
1.41269
 20
46.9022
 11
1.80316
 21
46.5951
  0
LINE
  8
0
 10
1.80316
 20
46.5951
 11
2.12848
 21
46.2197
  0
LINE
  8
0
 10
2.12848
 20
46.2197
 11
2.37686
 21
45.7895
  0
LINE
  8
0
 10
2.37686
 20
45.7895
 11
2.53934
 21
45.32
  0
LINE
  8
0
 10
2.53934
 20
45.32
 11
2.61003
 21
44.8283
  0
LINE
  8
0
 10
2.61003
 20
44.8283
 11
2.5864
 21
44.3321
  0
LINE
  8
0
 10
2.5864
 20
44.3321
 11
2.46928
 21
43.8494
  0
LINE
  8
0
 10
2.46928
 20
43.8494
 11
2.26292
 21
43.3975
  0
LINE
  8
0
 10
2.26292
 20
43.3975
 11
1.97476
 21
42.9928
  0
LINE
  8
0
 10
1.97476
 20
42.9928
 11
1.61523
 21
42.65
  0
LINE
  8
0
 10
1.61523
 20
42.65
 11
1.19734
 21
42.3815
  0
LINE
  8
0
 10
1.19734
 20
42.3815
 11
0.73616
 21
42.1968
  0
LINE
  8
0
 10
0.73616
 20
42.1968
 11
0.248367
 21
42.1028
  0
LINE
  8
0
 10
0.248367
 20
42.1028
 11
-0.248367
 21
42.1028
  0
LINE
  8
0
 10
-3.2
 20
22.254
 11
-3.2
 21
37.154
  0
LINE
  8
0
 10
-3.2
 20
37.154
 11
3.2
 21
37.154
  0
LINE
  8
0
 10
3.2
 20
37.154
 11
3.2
 21
22.254
  0
LINE
  8
0
 10
3.2
 20
22.254
 11
-3.2
 21
22.254
  0
LINE
  8
0
 10
-3.25
 20
-15.2156
 11
-3.25
 21
15.2156
  0
LINE
  8
0
 10
-3.25
 20
15.2156
 11
3.25
 21
15.2156
  0
LINE
  8
0
 10
3.25
 20
15.2156
 11
3.25
 21
-15.2156
  0
LINE
  8
0
 10
3.25
 20
-15.2156
 11
-3.25
 21
-15.2156
  0
LINE
  8
0
 10
-3.2
 20
-37.154
 11
-3.2
 21
-22.254
  0
LINE
  8
0
 10
-3.2
 20
-22.254
 11
3.2
 21
-22.254
  0
LINE
  8
0
 10
3.2
 20
-22.254
 11
3.2
 21
-37.154
  0
LINE
  8
0
 10
3.2
 20
-37.154
 11
-3.2
 21
-37.154
  0
LINE
  8
0
 10
-0.248367
 20
-47.3052
 11
-0.73616
 21
-47.2112
  0
LINE
  8
0
 10
-0.73616
 20
-47.2112
 11
-1.19734
 21
-47.0265
  0
LINE
  8
0
 10
-1.19734
 20
-47.0265
 11
-1.61523
 21
-46.7579
  0
LINE
  8
0
 10
-1.61523
 20
-46.7579
 11
-1.97476
 21
-46.4151
  0
LINE
  8
0
 10
-1.97476
 20
-46.4151
 11
-2.26292
 21
-46.0105
  0
LINE
  8
0
 10
-2.26292
 20
-46.0105
 11
-2.46928
 21
-45.5586
  0
LINE
  8
0
 10
-2.46928
 20
-45.5586
 11
-2.5864
 21
-45.0759
  0
LINE
  8
0
 10
-2.5864
 20
-45.0759
 11
-2.61003
 21
-44.5797
  0
LINE
  8
0
 10
-2.61003
 20
-44.5797
 11
-2.53934
 21
-44.088
  0
LINE
  8
0
 10
-2.53934
 20
-44.088
 11
-2.37686
 21
-43.6185
  0
LINE
  8
0
 10
-2.37686
 20
-43.6185
 11
-2.12848
 21
-43.1883
  0
LINE
  8
0
 10
-2.12848
 20
-43.1883
 11
-1.80316
 21
-42.8129
  0
LINE
  8
0
 10
-1.80316
 20
-42.8129
 11
-1.41269
 21
-42.5058
  0
LINE
  8
0
 10
-1.41269
 20
-42.5058
 11
-0.971146
 21
-42.2782
  0
LINE
  8
0
 10
-0.971146
 20
-42.2782
 11
-0.494507
 21
-42.1382
  0
LINE
  8
0
 10
-0.494507
 20
-42.1382
 11
0
 21
-42.091
  0
LINE
  8
0
 10
0
 20
-42.091
 11
0.494507
 21
-42.1382
  0
LINE
  8
0
 10
0.494507
 20
-42.1382
 11
0.971146
 21
-42.2782
  0
LINE
  8
0
 10
0.971146
 20
-42.2782
 11
1.41269
 21
-42.5058
  0
LINE
  8
0
 10
1.41269
 20
-42.5058
 11
1.80316
 21
-42.8129
  0
LINE
  8
0
 10
1.80316
 20
-42.8129
 11
2.12848
 21
-43.1883
  0
LINE
  8
0
 10
2.12848
 20
-43.1883
 11
2.37686
 21
-43.6185
  0
LINE
  8
0
 10
2.37686
 20
-43.6185
 11
2.53934
 21
-44.088
  0
LINE
  8
0
 10
2.53934
 20
-44.088
 11
2.61003
 21
-44.5797
  0
LINE
  8
0
 10
2.61003
 20
-44.5797
 11
2.5864
 21
-45.0759
  0
LINE
  8
0
 10
2.5864
 20
-45.0759
 11
2.46928
 21
-45.5586
  0
LINE
  8
0
 10
2.46928
 20
-45.5586
 11
2.26292
 21
-46.0105
  0
LINE
  8
0
 10
2.26292
 20
-46.0105
 11
1.97476
 21
-46.4151
  0
LINE
  8
0
 10
1.97476
 20
-46.4151
 11
1.61523
 21
-46.7579
  0
LINE
  8
0
 10
1.61523
 20
-46.7579
 11
1.19734
 21
-47.0265
  0
LINE
  8
0
 10
1.19734
 20
-47.0265
 11
0.73616
 21
-47.2112
  0
LINE
  8
0
 10
0.73616
 20
-47.2112
 11
0.248367
 21
-47.3052
  0
LINE
  8
0
 10
0.248367
 20
-47.3052
 11
-0.248367
 21
-47.3052
  0
LINE
  8
0
 10
-3.2
 20
-67.154
 11
-3.2
 21
-52.254
  0
LINE
  8
0
 10
-3.2
 20
-52.254
 11
3.2
 21
-52.254
  0
LINE
  8
0
 10
3.2
 20
-52.254
 11
3.2
 21
-67.154
  0
LINE
  8
0
 10
3.2
 20
-67.154
 11
-3.2
 21
-67.154
  0
LINE
  8
0
 10
-3.2
 20
-116.402
 11
-3.2
 21
-101.502
  0
LINE
  8
0
 10
-3.2
 20
-101.502
 11
3.2
 21
-101.502
  0
LINE
  8
0
 10
3.2
 20
-101.502
 11
3.2
 21
-116.402
  0
LINE
  8
0
 10
3.2
 20
-116.402
 11
-3.2
 21
-116.402
  0
LINE
  8
0
 10
-0.248367
 20
-126.553
 11
-0.73616
 21
-126.459
  0
LINE
  8
0
 10
-0.73616
 20
-126.459
 11
-1.19734
 21
-126.275
  0
LINE
  8
0
 10
-1.19734
 20
-126.275
 11
-1.61523
 21
-126.006
  0
LINE
  8
0
 10
-1.61523
 20
-126.006
 11
-1.97476
 21
-125.663
  0
LINE
  8
0
 10
-1.97476
 20
-125.663
 11
-2.26292
 21
-125.258
  0
LINE
  8
0
 10
-2.26292
 20
-125.258
 11
-2.46928
 21
-124.807
  0
LINE
  8
0
 10
-2.46928
 20
-124.807
 11
-2.5864
 21
-124.324
  0
LINE
  8
0
 10
-2.5864
 20
-124.324
 11
-2.61003
 21
-123.828
  0
LINE
  8
0
 10
-2.61003
 20
-123.828
 11
-2.53934
 21
-123.336
  0
LINE
  8
0
 10
-2.53934
 20
-123.336
 11
-2.37686
 21
-122.867
  0
LINE
  8
0
 10
-2.37686
 20
-122.867
 11
-2.12848
 21
-122.436
  0
LINE
  8
0
 10
-2.12848
 20
-122.436
 11
-1.80316
 21
-122.061
  0
LINE
  8
0
 10
-1.80316
 20
-122.061
 11
-1.41269
 21
-121.754
  0
LINE
  8
0
 10
-1.41269
 20
-121.754
 11
-0.971146
 21
-121.526
  0
LINE
  8
0
 10
-0.971146
 20
-121.526
 11
-0.494507
 21
-121.386
  0
LINE
  8
0
 10
-0.494507
 20
-121.386
 11
0
 21
-121.339
  0
LINE
  8
0
 10
0
 20
-121.339
 11
0.494507
 21
-121.386
  0
LINE
  8
0
 10
0.494507
 20
-121.386
 11
0.971146
 21
-121.526
  0
LINE
  8
0
 10
0.971146
 20
-121.526
 11
1.41269
 21
-121.754
  0
LINE
  8
0
 10
1.41269
 20
-121.754
 11
1.80316
 21
-122.061
  0
LINE
  8
0
 10
1.80316
 20
-122.061
 11
2.12848
 21
-122.436
  0
LINE
  8
0
 10
2.12848
 20
-122.436
 11
2.37686
 21
-122.867
  0
LINE
  8
0
 10
2.37686
 20
-122.867
 11
2.53934
 21
-123.336
  0
LINE
  8
0
 10
2.53934
 20
-123.336
 11
2.61003
 21
-123.828
  0
LINE
  8
0
 10
2.61003
 20
-123.828
 11
2.5864
 21
-124.324
  0
LINE
  8
0
 10
2.5864
 20
-124.324
 11
2.46928
 21
-124.807
  0
LINE
  8
0
 10
2.46928
 20
-124.807
 11
2.26292
 21
-125.258
  0
LINE
  8
0
 10
2.26292
 20
-125.258
 11
1.97476
 21
-125.663
  0
LINE
  8
0
 10
1.97476
 20
-125.663
 11
1.61523
 21
-126.006
  0
LINE
  8
0
 10
1.61523
 20
-126.006
 11
1.19734
 21
-126.275
  0
LINE
  8
0
 10
1.19734
 20
-126.275
 11
0.73616
 21
-126.459
  0
LINE
  8
0
 10
0.73616
 20
-126.459
 11
0.248367
 21
-126.553
  0
LINE
  8
0
 10
0.248367
 20
-126.553
 11
-0.248367
 21
-126.553
  0
LINE
  8
0
 10
13.0009
 20
-145.088
 11
12.5111
 21
-144.997
  0
LINE
  8
0
 10
12.5111
 20
-144.997
 11
12.0465
 21
-144.817
  0
LINE
  8
0
 10
12.0465
 20
-144.817
 11
11.6229
 21
-144.555
  0
LINE
  8
0
 10
11.6229
 20
-144.555
 11
11.2547
 21
-144.219
  0
LINE
  8
0
 10
11.2547
 20
-144.219
 11
10.9544
 21
-143.821
  0
LINE
  8
0
 10
10.9544
 20
-143.821
 11
10.7323
 21
-143.375
  0
LINE
  8
0
 10
10.7323
 20
-143.375
 11
10.596
 21
-142.896
  0
LINE
  8
0
 10
10.596
 20
-142.896
 11
10.55
 21
-142.4
  0
LINE
  8
0
 10
10.55
 20
-142.4
 11
10.596
 21
-141.904
  0
LINE
  8
0
 10
10.596
 20
-141.904
 11
10.7323
 21
-141.425
  0
LINE
  8
0
 10
10.7323
 20
-141.425
 11
10.9544
 21
-140.979
  0
LINE
  8
0
 10
10.9544
 20
-140.979
 11
11.2547
 21
-140.581
  0
LINE
  8
0
 10
11.2547
 20
-140.581
 11
11.6229
 21
-140.245
  0
LINE
  8
0
 10
11.6229
 20
-140.245
 11
12.0465
 21
-139.983
  0
LINE
  8
0
 10
12.0465
 20
-139.983
 11
12.5111
 21
-139.803
  0
LINE
  8
0
 10
12.5111
 20
-139.803
 11
13.0009
 21
-139.712
  0
LINE
  8
0
 10
13.0009
 20
-139.712
 11
13.4991
 21
-139.712
  0
LINE
  8
0
 10
13.4991
 20
-139.712
 11
13.9889
 21
-139.803
  0
LINE
  8
0
 10
13.9889
 20
-139.803
 11
14.4535
 21
-139.983
  0
LINE
  8
0
 10
14.4535
 20
-139.983
 11
14.8771
 21
-140.245
  0
LINE
  8
0
 10
14.8771
 20
-140.245
 11
15.2453
 21
-140.581
  0
LINE
  8
0
 10
15.2453
 20
-140.581
 11
15.5456
 21
-140.979
  0
LINE
  8
0
 10
15.5456
 20
-140.979
 11
15.7677
 21
-141.425
  0
LINE
  8
0
 10
15.7677
 20
-141.425
 11
15.904
 21
-141.904
  0
LINE
  8
0
 10
15.904
 20
-141.904
 11
15.95
 21
-142.4
  0
LINE
  8
0
 10
15.95
 20
-142.4
 11
15.904
 21
-142.896
  0
LINE
  8
0
 10
15.904
 20
-142.896
 11
15.7677
 21
-143.375
  0
LINE
  8
0
 10
15.7677
 20
-143.375
 11
15.5456
 21
-143.821
  0
LINE
  8
0
 10
15.5456
 20
-143.821
 11
15.2453
 21
-144.219
  0
LINE
  8
0
 10
15.2453
 20
-144.219
 11
14.8771
 21
-144.555
  0
LINE
  8
0
 10
14.8771
 20
-144.555
 11
14.4535
 21
-144.817
  0
LINE
  8
0
 10
14.4535
 20
-144.817
 11
13.9889
 21
-144.997
  0
LINE
  8
0
 10
13.9889
 20
-144.997
 11
13.4991
 21
-145.088
  0
LINE
  8
0
 10
13.4991
 20
-145.088
 11
13.0009
 21
-145.088
  0
ENDSEC
  0
SECTION
  2
OBJECTS
  0
DICTIONARY
  0
ENDSEC
  0
EOF
