  0
SECTION
  2
BLOCKS
  0
ENDSEC
  0
SECTION
  2
ENTITIES
  0
LINE
  8
0
 10
-3.2
 20
-131.502
 11
3.2
 21
-131.502
  0
LINE
  8
0
 10
3.2
 20
-131.502
 11
3.2
 21
-132.4
  0
LINE
  8
0
 10
3.2
 20
-132.4
 11
10.65
 21
-132.4
  0
LINE
  8
0
 10
10.65
 20
-132.4
 11
10.65
 21
-125.95
  0
LINE
  8
0
 10
10.65
 20
-125.95
 11
7.95
 21
-125.95
  0
LINE
  8
0
 10
7.95
 20
-125.95
 11
7.95
 21
-125.85
  0
LINE
  8
0
 10
7.95
 20
-125.85
 11
10.45
 21
-105.85
  0
LINE
  8
0
 10
10.45
 20
-105.85
 11
16.05
 21
-105.85
  0
LINE
  8
0
 10
16.05
 20
-105.85
 11
18.55
 21
-125.85
  0
LINE
  8
0
 10
18.55
 20
-125.85
 11
18.55
 21
-125.95
  0
LINE
  8
0
 10
18.55
 20
-125.95
 11
15.85
 21
-125.95
  0
LINE
  8
0
 10
15.85
 20
-125.95
 11
15.85
 21
-132.4
  0
LINE
  8
0
 10
15.85
 20
-132.4
 11
23.25
 21
-132.4
  0
LINE
  8
0
 10
23.25
 20
-132.4
 11
23.25
 21
132.4
  0
LINE
  8
0
 10
23.25
 20
132.4
 11
15.85
 21
132.4
  0
LINE
  8
0
 10
15.85
 20
132.4
 11
15.85
 21
125.95
  0
LINE
  8
0
 10
15.85
 20
125.95
 11
18.55
 21
125.95
  0
LINE
  8
0
 10
18.55
 20
125.95
 11
18.55
 21
125.85
  0
LINE
  8
0
 10
18.55
 20
125.85
 11
16.05
 21
105.85
  0
LINE
  8
0
 10
16.05
 20
105.85
 11
10.45
 21
105.85
  0
LINE
  8
0
 10
10.45
 20
105.85
 11
7.95
 21
125.85
  0
LINE
  8
0
 10
7.95
 20
125.85
 11
7.95
 21
125.95
  0
LINE
  8
0
 10
7.95
 20
125.95
 11
10.65
 21
125.95
  0
LINE
  8
0
 10
10.65
 20
125.95
 11
10.65
 21
132.4
  0
LINE
  8
0
 10
10.65
 20
132.4
 11
3.2
 21
132.4
  0
LINE
  8
0
 10
3.2
 20
132.4
 11
3.2
 21
131.502
  0
LINE
  8
0
 10
3.2
 20
131.502
 11
-3.2
 21
131.502
  0
LINE
  8
0
 10
-3.2
 20
131.502
 11
-3.2
 21
132.4
  0
LINE
  8
0
 10
-3.2
 20
132.4
 11
-3.25
 21
132.4
  0
LINE
  8
0
 10
-3.25
 20
132.4
 11
-3.25
 21
20
  0
LINE
  8
0
 10
-3.25
 20
20
 11
3.25
 21
20
  0
LINE
  8
0
 10
3.25
 20
20
 11
3.25
 21
-20
  0
LINE
  8
0
 10
3.25
 20
-20
 11
-3.25
 21
-20
  0
LINE
  8
0
 10
-3.25
 20
-20
 11
-3.25
 21
-132.4
  0
LINE
  8
0
 10
-3.25
 20
-132.4
 11
-3.2
 21
-132.4
  0
LINE
  8
0
 10
-3.2
 20
-132.4
 11
-3.2
 21
-131.502
  0
LINE
  8
0
 10
0.151611
 20
121.351
 11
-0.336166
 21
121.445
  0
LINE
  8
0
 10
-0.336166
 20
121.445
 11
-0.797333
 21
121.629
  0
LINE
  8
0
 10
-0.797333
 20
121.629
 11
-1.21524
 21
121.898
  0
LINE
  8
0
 10
-1.21524
 20
121.898
 11
-1.57477
 21
122.241
  0
LINE
  8
0
 10
-1.57477
 20
122.241
 11
-1.86292
 21
122.645
  0
LINE
  8
0
 10
-1.86292
 20
122.645
 11
-2.06927
 21
123.097
  0
LINE
  8
0
 10
-2.06927
 20
123.097
 11
-2.1864
 21
123.58
  0
LINE
  8
0
 10
-2.1864
 20
123.58
 11
-2.21004
 21
124.076
  0
LINE
  8
0
 10
-2.21004
 20
124.076
 11
-2.13934
 21
124.568
  0
LINE
  8
0
 10
-2.13934
 20
124.568
 11
-1.97687
 21
125.037
  0
LINE
  8
0
 10
-1.97687
 20
125.037
 11
-1.72849
 21
125.468
  0
LINE
  8
0
 10
-1.72849
 20
125.468
 11
-1.40317
 21
125.843
  0
LINE
  8
0
 10
-1.40317
 20
125.843
 11
-1.01268
 21
126.15
  0
LINE
  8
0
 10
-1.01268
 20
126.15
 11
-0.571152
 21
126.378
  0
LINE
  8
0
 10
-0.571152
 20
126.378
 11
-0.0945129
 21
126.518
  0
LINE
  8
0
 10
-0.0945129
 20
126.518
 11
0.399994
 21
126.565
  0
LINE
  8
0
 10
0.399994
 20
126.565
 11
0.894501
 21
126.518
  0
LINE
  8
0
 10
0.894501
 20
126.518
 11
1.37114
 21
126.378
  0
LINE
  8
0
 10
1.37114
 20
126.378
 11
1.81268
 21
126.15
  0
LINE
  8
0
 10
1.81268
 20
126.15
 11
2.20317
 21
125.843
  0
LINE
  8
0
 10
2.20317
 20
125.843
 11
2.52847
 21
125.468
  0
LINE
  8
0
 10
2.52847
 20
125.468
 11
2.77686
 21
125.037
  0
LINE
  8
0
 10
2.77686
 20
125.037
 11
2.93933
 21
124.568
  0
LINE
  8
0
 10
2.93933
 20
124.568
 11
3.01004
 21
124.076
  0
LINE
  8
0
 10
3.01004
 20
124.076
 11
2.98639
 21
123.58
  0
LINE
  8
0
 10
2.98639
 20
123.58
 11
2.86928
 21
123.097
  0
LINE
  8
0
 10
2.86928
 20
123.097
 11
2.66292
 21
122.645
  0
LINE
  8
0
 10
2.66292
 20
122.645
 11
2.37477
 21
122.241
  0
LINE
  8
0
 10
2.37477
 20
122.241
 11
2.01524
 21
121.898
  0
LINE
  8
0
 10
2.01524
 20
121.898
 11
1.59734
 21
121.629
  0
LINE
  8
0
 10
1.59734
 20
121.629
 11
1.13615
 21
121.445
  0
LINE
  8
0
 10
1.13615
 20
121.445
 11
0.648376
 21
121.351
  0
LINE
  8
0
 10
0.648376
 20
121.351
 11
0.151611
 21
121.351
  0
LINE
  8
0
 10
-3.2
 20
101.502
 11
-3.2
 21
116.402
  0
LINE
  8
0
 10
-3.2
 20
116.402
 11
3.2
 21
116.402
  0
LINE
  8
0
 10
3.2
 20
116.402
 11
3.2
 21
101.502
  0
LINE
  8
0
 10
3.2
 20
101.502
 11
-3.2
 21
101.502
  0
LINE
  8
0
 10
-3.2
 20
52.254
 11
-3.2
 21
67.154
  0
LINE
  8
0
 10
-3.2
 20
67.154
 11
3.2
 21
67.154
  0
LINE
  8
0
 10
3.2
 20
67.154
 11
3.2
 21
52.254
  0
LINE
  8
0
 10
3.2
 20
52.254
 11
-3.2
 21
52.254
  0
LINE
  8
0
 10
0.151611
 20
42.1028
 11
-0.336166
 21
42.1968
  0
LINE
  8
0
 10
-0.336166
 20
42.1968
 11
-0.797333
 21
42.3815
  0
LINE
  8
0
 10
-0.797333
 20
42.3815
 11
-1.21524
 21
42.65
  0
LINE
  8
0
 10
-1.21524
 20
42.65
 11
-1.57477
 21
42.9928
  0
LINE
  8
0
 10
-1.57477
 20
42.9928
 11
-1.86292
 21
43.3975
  0
LINE
  8
0
 10
-1.86292
 20
43.3975
 11
-2.06927
 21
43.8494
  0
LINE
  8
0
 10
-2.06927
 20
43.8494
 11
-2.1864
 21
44.3321
  0
LINE
  8
0
 10
-2.1864
 20
44.3321
 11
-2.21004
 21
44.8283
  0
LINE
  8
0
 10
-2.21004
 20
44.8283
 11
-2.13934
 21
45.32
  0
LINE
  8
0
 10
-2.13934
 20
45.32
 11
-1.97687
 21
45.7895
  0
LINE
  8
0
 10
-1.97687
 20
45.7895
 11
-1.72849
 21
46.2197
  0
LINE
  8
0
 10
-1.72849
 20
46.2197
 11
-1.40317
 21
46.5951
  0
LINE
  8
0
 10
-1.40317
 20
46.5951
 11
-1.01268
 21
46.9022
  0
LINE
  8
0
 10
-1.01268
 20
46.9022
 11
-0.571152
 21
47.1298
  0
LINE
  8
0
 10
-0.571152
 20
47.1298
 11
-0.0945129
 21
47.2698
  0
LINE
  8
0
 10
-0.0945129
 20
47.2698
 11
0.399994
 21
47.317
  0
LINE
  8
0
 10
0.399994
 20
47.317
 11
0.894501
 21
47.2698
  0
LINE
  8
0
 10
0.894501
 20
47.2698
 11
1.37114
 21
47.1298
  0
LINE
  8
0
 10
1.37114
 20
47.1298
 11
1.81268
 21
46.9022
  0
LINE
  8
0
 10
1.81268
 20
46.9022
 11
2.20317
 21
46.5951
  0
LINE
  8
0
 10
2.20317
 20
46.5951
 11
2.52847
 21
46.2197
  0
LINE
  8
0
 10
2.52847
 20
46.2197
 11
2.77686
 21
45.7895
  0
LINE
  8
0
 10
2.77686
 20
45.7895
 11
2.93933
 21
45.32
  0
LINE
  8
0
 10
2.93933
 20
45.32
 11
3.01004
 21
44.8283
  0
LINE
  8
0
 10
3.01004
 20
44.8283
 11
2.98639
 21
44.3321
  0
LINE
  8
0
 10
2.98639
 20
44.3321
 11
2.86928
 21
43.8494
  0
LINE
  8
0
 10
2.86928
 20
43.8494
 11
2.66292
 21
43.3975
  0
LINE
  8
0
 10
2.66292
 20
43.3975
 11
2.37477
 21
42.9928
  0
LINE
  8
0
 10
2.37477
 20
42.9928
 11
2.01524
 21
42.65
  0
LINE
  8
0
 10
2.01524
 20
42.65
 11
1.59734
 21
42.3815
  0
LINE
  8
0
 10
1.59734
 20
42.3815
 11
1.13615
 21
42.1968
  0
LINE
  8
0
 10
1.13615
 20
42.1968
 11
0.648376
 21
42.1028
  0
LINE
  8
0
 10
0.648376
 20
42.1028
 11
0.151611
 21
42.1028
  0
LINE
  8
0
 10
-3.2
 20
22.254
 11
-3.2
 21
37.154
  0
LINE
  8
0
 10
-3.2
 20
37.154
 11
3.2
 21
37.154
  0
LINE
  8
0
 10
3.2
 20
37.154
 11
3.2
 21
22.254
  0
LINE
  8
0
 10
3.2
 20
22.254
 11
-3.2
 21
22.254
  0
LINE
  8
0
 10
-3.2
 20
-37.154
 11
-3.2
 21
-22.254
  0
LINE
  8
0
 10
-3.2
 20
-22.254
 11
3.2
 21
-22.254
  0
LINE
  8
0
 10
3.2
 20
-22.254
 11
3.2
 21
-37.154
  0
LINE
  8
0
 10
3.2
 20
-37.154
 11
-3.2
 21
-37.154
  0
LINE
  8
0
 10
0.151611
 20
-47.3052
 11
-0.336166
 21
-47.2112
  0
LINE
  8
0
 10
-0.336166
 20
-47.2112
 11
-0.797333
 21
-47.0265
  0
LINE
  8
0
 10
-0.797333
 20
-47.0265
 11
-1.21524
 21
-46.7579
  0
LINE
  8
0
 10
-1.21524
 20
-46.7579
 11
-1.57477
 21
-46.4151
  0
LINE
  8
0
 10
-1.57477
 20
-46.4151
 11
-1.86292
 21
-46.0105
  0
LINE
  8
0
 10
-1.86292
 20
-46.0105
 11
-2.06927
 21
-45.5586
  0
LINE
  8
0
 10
-2.06927
 20
-45.5586
 11
-2.1864
 21
-45.0759
  0
LINE
  8
0
 10
-2.1864
 20
-45.0759
 11
-2.21004
 21
-44.5797
  0
LINE
  8
0
 10
-2.21004
 20
-44.5797
 11
-2.13934
 21
-44.088
  0
LINE
  8
0
 10
-2.13934
 20
-44.088
 11
-1.97687
 21
-43.6185
  0
LINE
  8
0
 10
-1.97687
 20
-43.6185
 11
-1.72849
 21
-43.1883
  0
LINE
  8
0
 10
-1.72849
 20
-43.1883
 11
-1.40317
 21
-42.8129
  0
LINE
  8
0
 10
-1.40317
 20
-42.8129
 11
-1.01268
 21
-42.5058
  0
LINE
  8
0
 10
-1.01268
 20
-42.5058
 11
-0.571152
 21
-42.2782
  0
LINE
  8
0
 10
-0.571152
 20
-42.2782
 11
-0.0945129
 21
-42.1382
  0
LINE
  8
0
 10
-0.0945129
 20
-42.1382
 11
0.399994
 21
-42.091
  0
LINE
  8
0
 10
0.399994
 20
-42.091
 11
0.894501
 21
-42.1382
  0
LINE
  8
0
 10
0.894501
 20
-42.1382
 11
1.37114
 21
-42.2782
  0
LINE
  8
0
 10
1.37114
 20
-42.2782
 11
1.81268
 21
-42.5058
  0
LINE
  8
0
 10
1.81268
 20
-42.5058
 11
2.20317
 21
-42.8129
  0
LINE
  8
0
 10
2.20317
 20
-42.8129
 11
2.52847
 21
-43.1883
  0
LINE
  8
0
 10
2.52847
 20
-43.1883
 11
2.77686
 21
-43.6185
  0
LINE
  8
0
 10
2.77686
 20
-43.6185
 11
2.93933
 21
-44.088
  0
LINE
  8
0
 10
2.93933
 20
-44.088
 11
3.01004
 21
-44.5797
  0
LINE
  8
0
 10
3.01004
 20
-44.5797
 11
2.98639
 21
-45.0759
  0
LINE
  8
0
 10
2.98639
 20
-45.0759
 11
2.86928
 21
-45.5586
  0
LINE
  8
0
 10
2.86928
 20
-45.5586
 11
2.66292
 21
-46.0105
  0
LINE
  8
0
 10
2.66292
 20
-46.0105
 11
2.37477
 21
-46.4151
  0
LINE
  8
0
 10
2.37477
 20
-46.4151
 11
2.01524
 21
-46.7579
  0
LINE
  8
0
 10
2.01524
 20
-46.7579
 11
1.59734
 21
-47.0265
  0
LINE
  8
0
 10
1.59734
 20
-47.0265
 11
1.13615
 21
-47.2112
  0
LINE
  8
0
 10
1.13615
 20
-47.2112
 11
0.648376
 21
-47.3052
  0
LINE
  8
0
 10
0.648376
 20
-47.3052
 11
0.151611
 21
-47.3052
  0
LINE
  8
0
 10
-3.2
 20
-67.154
 11
-3.2
 21
-52.254
  0
LINE
  8
0
 10
-3.2
 20
-52.254
 11
3.2
 21
-52.254
  0
LINE
  8
0
 10
3.2
 20
-52.254
 11
3.2
 21
-67.154
  0
LINE
  8
0
 10
3.2
 20
-67.154
 11
-3.2
 21
-67.154
  0
LINE
  8
0
 10
-3.2
 20
-116.402
 11
-3.2
 21
-101.502
  0
LINE
  8
0
 10
-3.2
 20
-101.502
 11
3.2
 21
-101.502
  0
LINE
  8
0
 10
3.2
 20
-101.502
 11
3.2
 21
-116.402
  0
LINE
  8
0
 10
3.2
 20
-116.402
 11
-3.2
 21
-116.402
  0
LINE
  8
0
 10
0.151611
 20
-126.553
 11
-0.336166
 21
-126.459
  0
LINE
  8
0
 10
-0.336166
 20
-126.459
 11
-0.797333
 21
-126.275
  0
LINE
  8
0
 10
-0.797333
 20
-126.275
 11
-1.21524
 21
-126.006
  0
LINE
  8
0
 10
-1.21524
 20
-126.006
 11
-1.57477
 21
-125.663
  0
LINE
  8
0
 10
-1.57477
 20
-125.663
 11
-1.86292
 21
-125.258
  0
LINE
  8
0
 10
-1.86292
 20
-125.258
 11
-2.06927
 21
-124.807
  0
LINE
  8
0
 10
-2.06927
 20
-124.807
 11
-2.1864
 21
-124.324
  0
LINE
  8
0
 10
-2.1864
 20
-124.324
 11
-2.21004
 21
-123.828
  0
LINE
  8
0
 10
-2.21004
 20
-123.828
 11
-2.13934
 21
-123.336
  0
LINE
  8
0
 10
-2.13934
 20
-123.336
 11
-1.97687
 21
-122.867
  0
LINE
  8
0
 10
-1.97687
 20
-122.867
 11
-1.72849
 21
-122.436
  0
LINE
  8
0
 10
-1.72849
 20
-122.436
 11
-1.40317
 21
-122.061
  0
LINE
  8
0
 10
-1.40317
 20
-122.061
 11
-1.01268
 21
-121.754
  0
LINE
  8
0
 10
-1.01268
 20
-121.754
 11
-0.571152
 21
-121.526
  0
LINE
  8
0
 10
-0.571152
 20
-121.526
 11
-0.0945129
 21
-121.386
  0
LINE
  8
0
 10
-0.0945129
 20
-121.386
 11
0.399994
 21
-121.339
  0
LINE
  8
0
 10
0.399994
 20
-121.339
 11
0.894501
 21
-121.386
  0
LINE
  8
0
 10
0.894501
 20
-121.386
 11
1.37114
 21
-121.526
  0
LINE
  8
0
 10
1.37114
 20
-121.526
 11
1.81268
 21
-121.754
  0
LINE
  8
0
 10
1.81268
 20
-121.754
 11
2.20317
 21
-122.061
  0
LINE
  8
0
 10
2.20317
 20
-122.061
 11
2.52847
 21
-122.436
  0
LINE
  8
0
 10
2.52847
 20
-122.436
 11
2.77686
 21
-122.867
  0
LINE
  8
0
 10
2.77686
 20
-122.867
 11
2.93933
 21
-123.336
  0
LINE
  8
0
 10
2.93933
 20
-123.336
 11
3.01004
 21
-123.828
  0
LINE
  8
0
 10
3.01004
 20
-123.828
 11
2.98639
 21
-124.324
  0
LINE
  8
0
 10
2.98639
 20
-124.324
 11
2.86928
 21
-124.807
  0
LINE
  8
0
 10
2.86928
 20
-124.807
 11
2.66292
 21
-125.258
  0
LINE
  8
0
 10
2.66292
 20
-125.258
 11
2.37477
 21
-125.663
  0
LINE
  8
0
 10
2.37477
 20
-125.663
 11
2.01524
 21
-126.006
  0
LINE
  8
0
 10
2.01524
 20
-126.006
 11
1.59734
 21
-126.275
  0
LINE
  8
0
 10
1.59734
 20
-126.275
 11
1.13615
 21
-126.459
  0
LINE
  8
0
 10
1.13615
 20
-126.459
 11
0.648376
 21
-126.553
  0
LINE
  8
0
 10
0.648376
 20
-126.553
 11
0.151611
 21
-126.553
  0
ENDSEC
  0
SECTION
  2
OBJECTS
  0
DICTIONARY
  0
ENDSEC
  0
EOF
