  0
SECTION
  2
BLOCKS
  0
ENDSEC
  0
SECTION
  2
ENTITIES
  0
LINE
  8
0
 10
10.65
 20
-144.85
 11
7.95
 21
-144.85
  0
LINE
  8
0
 10
7.95
 20
-144.85
 11
7.95
 21
-144.75
  0
LINE
  8
0
 10
7.95
 20
-144.75
 11
10.45
 21
-124.75
  0
LINE
  8
0
 10
10.45
 20
-124.75
 11
16.05
 21
-124.75
  0
LINE
  8
0
 10
16.05
 20
-124.75
 11
18.55
 21
-144.75
  0
LINE
  8
0
 10
18.55
 20
-144.75
 11
18.55
 21
-144.85
  0
LINE
  8
0
 10
18.55
 20
-144.85
 11
15.85
 21
-144.85
  0
LINE
  8
0
 10
15.85
 20
-144.85
 11
15.85
 21
-151.3
  0
LINE
  8
0
 10
15.85
 20
-151.3
 11
23.25
 21
-151.3
  0
LINE
  8
0
 10
23.25
 20
-151.3
 11
23.25
 21
151.3
  0
LINE
  8
0
 10
23.25
 20
151.3
 11
15.85
 21
151.3
  0
LINE
  8
0
 10
15.85
 20
151.3
 11
15.85
 21
144.85
  0
LINE
  8
0
 10
15.85
 20
144.85
 11
18.55
 21
144.85
  0
LINE
  8
0
 10
18.55
 20
144.85
 11
18.55
 21
144.75
  0
LINE
  8
0
 10
18.55
 20
144.75
 11
16.05
 21
124.75
  0
LINE
  8
0
 10
16.05
 20
124.75
 11
10.45
 21
124.75
  0
LINE
  8
0
 10
10.45
 20
124.75
 11
7.95
 21
144.75
  0
LINE
  8
0
 10
7.95
 20
144.75
 11
7.95
 21
144.85
  0
LINE
  8
0
 10
7.95
 20
144.85
 11
10.65
 21
144.85
  0
LINE
  8
0
 10
10.65
 20
144.85
 11
10.65
 21
151.3
  0
LINE
  8
0
 10
10.65
 20
151.3
 11
-3.25
 21
151.3
  0
LINE
  8
0
 10
-3.25
 20
151.3
 11
-3.25
 21
20
  0
LINE
  8
0
 10
-3.25
 20
20
 11
3.25
 21
20
  0
LINE
  8
0
 10
3.25
 20
20
 11
3.25
 21
-20
  0
LINE
  8
0
 10
3.25
 20
-20
 11
-3.25
 21
-20
  0
LINE
  8
0
 10
-3.25
 20
-20
 11
-3.25
 21
-151.3
  0
LINE
  8
0
 10
-3.25
 20
-151.3
 11
10.65
 21
-151.3
  0
LINE
  8
0
 10
10.65
 20
-151.3
 11
10.65
 21
-144.85
  0
LINE
  8
0
 10
-3.2
 20
131.457
 11
-3.2
 21
146.357
  0
LINE
  8
0
 10
-3.2
 20
146.357
 11
3.2
 21
146.357
  0
LINE
  8
0
 10
3.2
 20
146.357
 11
3.2
 21
131.457
  0
LINE
  8
0
 10
3.2
 20
131.457
 11
-3.2
 21
131.457
  0
LINE
  8
0
 10
0.151611
 20
121.306
 11
-0.336166
 21
121.4
  0
LINE
  8
0
 10
-0.336166
 20
121.4
 11
-0.797333
 21
121.584
  0
LINE
  8
0
 10
-0.797333
 20
121.584
 11
-1.21524
 21
121.853
  0
LINE
  8
0
 10
-1.21524
 20
121.853
 11
-1.57477
 21
122.196
  0
LINE
  8
0
 10
-1.57477
 20
122.196
 11
-1.86292
 21
122.6
  0
LINE
  8
0
 10
-1.86292
 20
122.6
 11
-2.06927
 21
123.052
  0
LINE
  8
0
 10
-2.06927
 20
123.052
 11
-2.1864
 21
123.535
  0
LINE
  8
0
 10
-2.1864
 20
123.535
 11
-2.21004
 21
124.031
  0
LINE
  8
0
 10
-2.21004
 20
124.031
 11
-2.13934
 21
124.523
  0
LINE
  8
0
 10
-2.13934
 20
124.523
 11
-1.97687
 21
124.992
  0
LINE
  8
0
 10
-1.97687
 20
124.992
 11
-1.72849
 21
125.423
  0
LINE
  8
0
 10
-1.72849
 20
125.423
 11
-1.40317
 21
125.798
  0
LINE
  8
0
 10
-1.40317
 20
125.798
 11
-1.01268
 21
126.105
  0
LINE
  8
0
 10
-1.01268
 20
126.105
 11
-0.571152
 21
126.333
  0
LINE
  8
0
 10
-0.571152
 20
126.333
 11
-0.0945129
 21
126.473
  0
LINE
  8
0
 10
-0.0945129
 20
126.473
 11
0.399994
 21
126.52
  0
LINE
  8
0
 10
0.399994
 20
126.52
 11
0.894501
 21
126.473
  0
LINE
  8
0
 10
0.894501
 20
126.473
 11
1.37114
 21
126.333
  0
LINE
  8
0
 10
1.37114
 20
126.333
 11
1.81268
 21
126.105
  0
LINE
  8
0
 10
1.81268
 20
126.105
 11
2.20317
 21
125.798
  0
LINE
  8
0
 10
2.20317
 20
125.798
 11
2.52847
 21
125.423
  0
LINE
  8
0
 10
2.52847
 20
125.423
 11
2.77686
 21
124.992
  0
LINE
  8
0
 10
2.77686
 20
124.992
 11
2.93933
 21
124.523
  0
LINE
  8
0
 10
2.93933
 20
124.523
 11
3.01004
 21
124.031
  0
LINE
  8
0
 10
3.01004
 20
124.031
 11
2.98639
 21
123.535
  0
LINE
  8
0
 10
2.98639
 20
123.535
 11
2.86928
 21
123.052
  0
LINE
  8
0
 10
2.86928
 20
123.052
 11
2.66292
 21
122.6
  0
LINE
  8
0
 10
2.66292
 20
122.6
 11
2.37477
 21
122.196
  0
LINE
  8
0
 10
2.37477
 20
122.196
 11
2.01524
 21
121.853
  0
LINE
  8
0
 10
2.01524
 20
121.853
 11
1.59734
 21
121.584
  0
LINE
  8
0
 10
1.59734
 20
121.584
 11
1.13615
 21
121.4
  0
LINE
  8
0
 10
1.13615
 20
121.4
 11
0.648376
 21
121.306
  0
LINE
  8
0
 10
0.648376
 20
121.306
 11
0.151611
 21
121.306
  0
LINE
  8
0
 10
-3.2
 20
101.457
 11
-3.2
 21
116.357
  0
LINE
  8
0
 10
-3.2
 20
116.357
 11
3.2
 21
116.357
  0
LINE
  8
0
 10
3.2
 20
116.357
 11
3.2
 21
101.457
  0
LINE
  8
0
 10
3.2
 20
101.457
 11
-3.2
 21
101.457
  0
LINE
  8
0
 10
-3.2
 20
57.798
 11
-3.2
 21
72.698
  0
LINE
  8
0
 10
-3.2
 20
72.698
 11
3.2
 21
72.698
  0
LINE
  8
0
 10
3.2
 20
72.698
 11
3.2
 21
57.798
  0
LINE
  8
0
 10
3.2
 20
57.798
 11
-3.2
 21
57.798
  0
LINE
  8
0
 10
0.151611
 20
47.6468
 11
-0.336166
 21
47.7408
  0
LINE
  8
0
 10
-0.336166
 20
47.7408
 11
-0.797333
 21
47.9255
  0
LINE
  8
0
 10
-0.797333
 20
47.9255
 11
-1.21524
 21
48.194
  0
LINE
  8
0
 10
-1.21524
 20
48.194
 11
-1.57477
 21
48.5368
  0
LINE
  8
0
 10
-1.57477
 20
48.5368
 11
-1.86292
 21
48.9415
  0
LINE
  8
0
 10
-1.86292
 20
48.9415
 11
-2.06927
 21
49.3934
  0
LINE
  8
0
 10
-2.06927
 20
49.3934
 11
-2.1864
 21
49.8761
  0
LINE
  8
0
 10
-2.1864
 20
49.8761
 11
-2.21004
 21
50.3723
  0
LINE
  8
0
 10
-2.21004
 20
50.3723
 11
-2.13934
 21
50.864
  0
LINE
  8
0
 10
-2.13934
 20
50.864
 11
-1.97687
 21
51.3335
  0
LINE
  8
0
 10
-1.97687
 20
51.3335
 11
-1.72849
 21
51.7637
  0
LINE
  8
0
 10
-1.72849
 20
51.7637
 11
-1.40317
 21
52.1391
  0
LINE
  8
0
 10
-1.40317
 20
52.1391
 11
-1.01268
 21
52.4462
  0
LINE
  8
0
 10
-1.01268
 20
52.4462
 11
-0.571152
 21
52.6738
  0
LINE
  8
0
 10
-0.571152
 20
52.6738
 11
-0.0945129
 21
52.8138
  0
LINE
  8
0
 10
-0.0945129
 20
52.8138
 11
0.399994
 21
52.861
  0
LINE
  8
0
 10
0.399994
 20
52.861
 11
0.894501
 21
52.8138
  0
LINE
  8
0
 10
0.894501
 20
52.8138
 11
1.37114
 21
52.6738
  0
LINE
  8
0
 10
1.37114
 20
52.6738
 11
1.81268
 21
52.4462
  0
LINE
  8
0
 10
1.81268
 20
52.4462
 11
2.20317
 21
52.1391
  0
LINE
  8
0
 10
2.20317
 20
52.1391
 11
2.52847
 21
51.7637
  0
LINE
  8
0
 10
2.52847
 20
51.7637
 11
2.77686
 21
51.3335
  0
LINE
  8
0
 10
2.77686
 20
51.3335
 11
2.93933
 21
50.864
  0
LINE
  8
0
 10
2.93933
 20
50.864
 11
3.01004
 21
50.3723
  0
LINE
  8
0
 10
3.01004
 20
50.3723
 11
2.98639
 21
49.8761
  0
LINE
  8
0
 10
2.98639
 20
49.8761
 11
2.86928
 21
49.3934
  0
LINE
  8
0
 10
2.86928
 20
49.3934
 11
2.66292
 21
48.9415
  0
LINE
  8
0
 10
2.66292
 20
48.9415
 11
2.37477
 21
48.5368
  0
LINE
  8
0
 10
2.37477
 20
48.5368
 11
2.01524
 21
48.194
  0
LINE
  8
0
 10
2.01524
 20
48.194
 11
1.59734
 21
47.9255
  0
LINE
  8
0
 10
1.59734
 20
47.9255
 11
1.13615
 21
47.7408
  0
LINE
  8
0
 10
1.13615
 20
47.7408
 11
0.648376
 21
47.6468
  0
LINE
  8
0
 10
0.648376
 20
47.6468
 11
0.151611
 21
47.6468
  0
LINE
  8
0
 10
-3.2
 20
27.798
 11
-3.2
 21
42.698
  0
LINE
  8
0
 10
-3.2
 20
42.698
 11
3.2
 21
42.698
  0
LINE
  8
0
 10
3.2
 20
42.698
 11
3.2
 21
27.798
  0
LINE
  8
0
 10
3.2
 20
27.798
 11
-3.2
 21
27.798
  0
LINE
  8
0
 10
-3.2
 20
-42.698
 11
-3.2
 21
-27.798
  0
LINE
  8
0
 10
-3.2
 20
-27.798
 11
3.2
 21
-27.798
  0
LINE
  8
0
 10
3.2
 20
-27.798
 11
3.2
 21
-42.698
  0
LINE
  8
0
 10
3.2
 20
-42.698
 11
-3.2
 21
-42.698
  0
LINE
  8
0
 10
0.151611
 20
-52.8492
 11
-0.336166
 21
-52.7551
  0
LINE
  8
0
 10
-0.336166
 20
-52.7551
 11
-0.797333
 21
-52.5705
  0
LINE
  8
0
 10
-0.797333
 20
-52.5705
 11
-1.21524
 21
-52.302
  0
LINE
  8
0
 10
-1.21524
 20
-52.302
 11
-1.57477
 21
-51.9591
  0
LINE
  8
0
 10
-1.57477
 20
-51.9591
 11
-1.86292
 21
-51.5545
  0
LINE
  8
0
 10
-1.86292
 20
-51.5545
 11
-2.06927
 21
-51.1026
  0
LINE
  8
0
 10
-2.06927
 20
-51.1026
 11
-2.1864
 21
-50.6199
  0
LINE
  8
0
 10
-2.1864
 20
-50.6199
 11
-2.21004
 21
-50.1237
  0
LINE
  8
0
 10
-2.21004
 20
-50.1237
 11
-2.13934
 21
-49.632
  0
LINE
  8
0
 10
-2.13934
 20
-49.632
 11
-1.97687
 21
-49.1625
  0
LINE
  8
0
 10
-1.97687
 20
-49.1625
 11
-1.72849
 21
-48.7323
  0
LINE
  8
0
 10
-1.72849
 20
-48.7323
 11
-1.40317
 21
-48.3569
  0
LINE
  8
0
 10
-1.40317
 20
-48.3569
 11
-1.01268
 21
-48.0498
  0
LINE
  8
0
 10
-1.01268
 20
-48.0498
 11
-0.571152
 21
-47.8222
  0
LINE
  8
0
 10
-0.571152
 20
-47.8222
 11
-0.0945129
 21
-47.6822
  0
LINE
  8
0
 10
-0.0945129
 20
-47.6822
 11
0.399994
 21
-47.635
  0
LINE
  8
0
 10
0.399994
 20
-47.635
 11
0.894501
 21
-47.6822
  0
LINE
  8
0
 10
0.894501
 20
-47.6822
 11
1.37114
 21
-47.8222
  0
LINE
  8
0
 10
1.37114
 20
-47.8222
 11
1.81268
 21
-48.0498
  0
LINE
  8
0
 10
1.81268
 20
-48.0498
 11
2.20317
 21
-48.3569
  0
LINE
  8
0
 10
2.20317
 20
-48.3569
 11
2.52847
 21
-48.7323
  0
LINE
  8
0
 10
2.52847
 20
-48.7323
 11
2.77686
 21
-49.1625
  0
LINE
  8
0
 10
2.77686
 20
-49.1625
 11
2.93933
 21
-49.632
  0
LINE
  8
0
 10
2.93933
 20
-49.632
 11
3.01004
 21
-50.1237
  0
LINE
  8
0
 10
3.01004
 20
-50.1237
 11
2.98639
 21
-50.6199
  0
LINE
  8
0
 10
2.98639
 20
-50.6199
 11
2.86928
 21
-51.1026
  0
LINE
  8
0
 10
2.86928
 20
-51.1026
 11
2.66292
 21
-51.5545
  0
LINE
  8
0
 10
2.66292
 20
-51.5545
 11
2.37477
 21
-51.9591
  0
LINE
  8
0
 10
2.37477
 20
-51.9591
 11
2.01524
 21
-52.302
  0
LINE
  8
0
 10
2.01524
 20
-52.302
 11
1.59734
 21
-52.5705
  0
LINE
  8
0
 10
1.59734
 20
-52.5705
 11
1.13615
 21
-52.7551
  0
LINE
  8
0
 10
1.13615
 20
-52.7551
 11
0.648376
 21
-52.8492
  0
LINE
  8
0
 10
0.648376
 20
-52.8492
 11
0.151611
 21
-52.8492
  0
LINE
  8
0
 10
-3.2
 20
-72.698
 11
-3.2
 21
-57.798
  0
LINE
  8
0
 10
-3.2
 20
-57.798
 11
3.2
 21
-57.798
  0
LINE
  8
0
 10
3.2
 20
-57.798
 11
3.2
 21
-72.698
  0
LINE
  8
0
 10
3.2
 20
-72.698
 11
-3.2
 21
-72.698
  0
LINE
  8
0
 10
-3.2
 20
-116.357
 11
-3.2
 21
-101.457
  0
LINE
  8
0
 10
-3.2
 20
-101.457
 11
3.2
 21
-101.457
  0
LINE
  8
0
 10
3.2
 20
-101.457
 11
3.2
 21
-116.357
  0
LINE
  8
0
 10
3.2
 20
-116.357
 11
-3.2
 21
-116.357
  0
LINE
  8
0
 10
0.151611
 20
-126.508
 11
-0.336166
 21
-126.414
  0
LINE
  8
0
 10
-0.336166
 20
-126.414
 11
-0.797333
 21
-126.23
  0
LINE
  8
0
 10
-0.797333
 20
-126.23
 11
-1.21524
 21
-125.961
  0
LINE
  8
0
 10
-1.21524
 20
-125.961
 11
-1.57477
 21
-125.618
  0
LINE
  8
0
 10
-1.57477
 20
-125.618
 11
-1.86292
 21
-125.214
  0
LINE
  8
0
 10
-1.86292
 20
-125.214
 11
-2.06927
 21
-124.762
  0
LINE
  8
0
 10
-2.06927
 20
-124.762
 11
-2.1864
 21
-124.279
  0
LINE
  8
0
 10
-2.1864
 20
-124.279
 11
-2.21004
 21
-123.783
  0
LINE
  8
0
 10
-2.21004
 20
-123.783
 11
-2.13934
 21
-123.291
  0
LINE
  8
0
 10
-2.13934
 20
-123.291
 11
-1.97687
 21
-122.822
  0
LINE
  8
0
 10
-1.97687
 20
-122.822
 11
-1.72849
 21
-122.391
  0
LINE
  8
0
 10
-1.72849
 20
-122.391
 11
-1.40317
 21
-122.016
  0
LINE
  8
0
 10
-1.40317
 20
-122.016
 11
-1.01268
 21
-121.709
  0
LINE
  8
0
 10
-1.01268
 20
-121.709
 11
-0.571152
 21
-121.481
  0
LINE
  8
0
 10
-0.571152
 20
-121.481
 11
-0.0945129
 21
-121.341
  0
LINE
  8
0
 10
-0.0945129
 20
-121.341
 11
0.399994
 21
-121.294
  0
LINE
  8
0
 10
0.399994
 20
-121.294
 11
0.894501
 21
-121.341
  0
LINE
  8
0
 10
0.894501
 20
-121.341
 11
1.37114
 21
-121.481
  0
LINE
  8
0
 10
1.37114
 20
-121.481
 11
1.81268
 21
-121.709
  0
LINE
  8
0
 10
1.81268
 20
-121.709
 11
2.20317
 21
-122.016
  0
LINE
  8
0
 10
2.20317
 20
-122.016
 11
2.52847
 21
-122.391
  0
LINE
  8
0
 10
2.52847
 20
-122.391
 11
2.77686
 21
-122.822
  0
LINE
  8
0
 10
2.77686
 20
-122.822
 11
2.93933
 21
-123.291
  0
LINE
  8
0
 10
2.93933
 20
-123.291
 11
3.01004
 21
-123.783
  0
LINE
  8
0
 10
3.01004
 20
-123.783
 11
2.98639
 21
-124.279
  0
LINE
  8
0
 10
2.98639
 20
-124.279
 11
2.86928
 21
-124.762
  0
LINE
  8
0
 10
2.86928
 20
-124.762
 11
2.66292
 21
-125.214
  0
LINE
  8
0
 10
2.66292
 20
-125.214
 11
2.37477
 21
-125.618
  0
LINE
  8
0
 10
2.37477
 20
-125.618
 11
2.01524
 21
-125.961
  0
LINE
  8
0
 10
2.01524
 20
-125.961
 11
1.59734
 21
-126.23
  0
LINE
  8
0
 10
1.59734
 20
-126.23
 11
1.13615
 21
-126.414
  0
LINE
  8
0
 10
1.13615
 20
-126.414
 11
0.648376
 21
-126.508
  0
LINE
  8
0
 10
0.648376
 20
-126.508
 11
0.151611
 21
-126.508
  0
LINE
  8
0
 10
-3.2
 20
-146.357
 11
-3.2
 21
-131.457
  0
LINE
  8
0
 10
-3.2
 20
-131.457
 11
3.2
 21
-131.457
  0
LINE
  8
0
 10
3.2
 20
-131.457
 11
3.2
 21
-146.357
  0
LINE
  8
0
 10
3.2
 20
-146.357
 11
-3.2
 21
-146.357
  0
ENDSEC
  0
SECTION
  2
OBJECTS
  0
DICTIONARY
  0
ENDSEC
  0
EOF
