  0
SECTION
  2
BLOCKS
  0
ENDSEC
  0
SECTION
  2
ENTITIES
  0
LINE
  8
0
 10
40
 20
27.748
 11
44.875
 21
27.748
  0
LINE
  8
0
 10
44.875
 20
27.748
 11
46.5
 21
29.373
  0
LINE
  8
0
 10
46.5
 20
29.373
 11
46.5
 21
41.123
  0
LINE
  8
0
 10
46.5
 20
41.123
 11
44.875
 21
42.748
  0
LINE
  8
0
 10
44.875
 20
42.748
 11
40
 21
42.748
  0
LINE
  8
0
 10
40
 20
42.748
 11
40
 21
47.685
  0
LINE
  8
0
 10
40
 20
47.685
 11
32.9375
 21
47.685
  0
LINE
  8
0
 10
32.9375
 20
47.685
 11
32.9375
 21
45.548
  0
LINE
  8
0
 10
32.9375
 20
45.548
 11
27.5625
 21
45.548
  0
LINE
  8
0
 10
27.5625
 20
45.548
 11
27.5625
 21
47.685
  0
LINE
  8
0
 10
27.5625
 20
47.685
 11
26.1875
 21
47.685
  0
LINE
  8
0
 10
26.1875
 20
47.685
 11
26.1875
 21
52.811
  0
LINE
  8
0
 10
26.1875
 20
52.811
 11
27.5625
 21
52.811
  0
LINE
  8
0
 10
27.5625
 20
52.811
 11
27.5625
 21
54.948
  0
LINE
  8
0
 10
27.5625
 20
54.948
 11
32.9375
 21
54.948
  0
LINE
  8
0
 10
32.9375
 20
54.948
 11
32.9375
 21
52.811
  0
LINE
  8
0
 10
32.9375
 20
52.811
 11
40
 21
52.811
  0
LINE
  8
0
 10
40
 20
52.811
 11
40
 21
57.748
  0
LINE
  8
0
 10
40
 20
57.748
 11
44.875
 21
57.748
  0
LINE
  8
0
 10
44.875
 20
57.748
 11
46.5
 21
59.373
  0
LINE
  8
0
 10
46.5
 20
59.373
 11
46.5
 21
71.123
  0
LINE
  8
0
 10
46.5
 20
71.123
 11
44.875
 21
72.748
  0
LINE
  8
0
 10
44.875
 20
72.748
 11
40
 21
72.748
  0
LINE
  8
0
 10
40
 20
72.748
 11
40
 21
101.407
  0
LINE
  8
0
 10
40
 20
101.407
 11
44.875
 21
101.407
  0
LINE
  8
0
 10
44.875
 20
101.407
 11
46.5
 21
103.032
  0
LINE
  8
0
 10
46.5
 20
103.032
 11
46.5
 21
114.782
  0
LINE
  8
0
 10
46.5
 20
114.782
 11
44.875
 21
116.407
  0
LINE
  8
0
 10
44.875
 20
116.407
 11
40
 21
116.407
  0
LINE
  8
0
 10
40
 20
116.407
 11
40
 21
121.344
  0
LINE
  8
0
 10
40
 20
121.344
 11
32.9375
 21
121.344
  0
LINE
  8
0
 10
32.9375
 20
121.344
 11
32.9375
 21
119.207
  0
LINE
  8
0
 10
32.9375
 20
119.207
 11
27.5625
 21
119.207
  0
LINE
  8
0
 10
27.5625
 20
119.207
 11
27.5625
 21
121.344
  0
LINE
  8
0
 10
27.5625
 20
121.344
 11
26.1875
 21
121.344
  0
LINE
  8
0
 10
26.1875
 20
121.344
 11
26.1875
 21
126.47
  0
LINE
  8
0
 10
26.1875
 20
126.47
 11
27.5625
 21
126.47
  0
LINE
  8
0
 10
27.5625
 20
126.47
 11
27.5625
 21
128.607
  0
LINE
  8
0
 10
27.5625
 20
128.607
 11
32.9375
 21
128.607
  0
LINE
  8
0
 10
32.9375
 20
128.607
 11
32.9375
 21
126.47
  0
LINE
  8
0
 10
32.9375
 20
126.47
 11
40
 21
126.47
  0
LINE
  8
0
 10
40
 20
126.47
 11
40
 21
131.407
  0
LINE
  8
0
 10
40
 20
131.407
 11
44.875
 21
131.407
  0
LINE
  8
0
 10
44.875
 20
131.407
 11
46.5
 21
133.032
  0
LINE
  8
0
 10
46.5
 20
133.032
 11
46.5
 21
144.782
  0
LINE
  8
0
 10
46.5
 20
144.782
 11
44.875
 21
146.407
  0
LINE
  8
0
 10
44.875
 20
146.407
 11
40
 21
146.407
  0
LINE
  8
0
 10
40
 20
146.407
 11
40
 21
171.3
  0
LINE
  8
0
 10
40
 20
171.3
 11
-40
 21
171.3
  0
LINE
  8
0
 10
-40
 20
171.3
 11
-40
 21
146.407
  0
LINE
  8
0
 10
-40
 20
146.407
 11
-44.875
 21
146.407
  0
LINE
  8
0
 10
-44.875
 20
146.407
 11
-46.5
 21
144.782
  0
LINE
  8
0
 10
-46.5
 20
144.782
 11
-46.5
 21
133.032
  0
LINE
  8
0
 10
-46.5
 20
133.032
 11
-44.875
 21
131.407
  0
LINE
  8
0
 10
-44.875
 20
131.407
 11
-40
 21
131.407
  0
LINE
  8
0
 10
-40
 20
131.407
 11
-40
 21
126.47
  0
LINE
  8
0
 10
-40
 20
126.47
 11
-32.9375
 21
126.47
  0
LINE
  8
0
 10
-32.9375
 20
126.47
 11
-32.9375
 21
128.607
  0
LINE
  8
0
 10
-32.9375
 20
128.607
 11
-27.5625
 21
128.607
  0
LINE
  8
0
 10
-27.5625
 20
128.607
 11
-27.5625
 21
126.47
  0
LINE
  8
0
 10
-27.5625
 20
126.47
 11
-26.1875
 21
126.47
  0
LINE
  8
0
 10
-26.1875
 20
126.47
 11
-26.1875
 21
121.344
  0
LINE
  8
0
 10
-26.1875
 20
121.344
 11
-27.5625
 21
121.344
  0
LINE
  8
0
 10
-27.5625
 20
121.344
 11
-27.5625
 21
119.207
  0
LINE
  8
0
 10
-27.5625
 20
119.207
 11
-32.9375
 21
119.207
  0
LINE
  8
0
 10
-32.9375
 20
119.207
 11
-32.9375
 21
121.344
  0
LINE
  8
0
 10
-32.9375
 20
121.344
 11
-40
 21
121.344
  0
LINE
  8
0
 10
-40
 20
121.344
 11
-40
 21
116.407
  0
LINE
  8
0
 10
-40
 20
116.407
 11
-44.875
 21
116.407
  0
LINE
  8
0
 10
-44.875
 20
116.407
 11
-46.5
 21
114.782
  0
LINE
  8
0
 10
-46.5
 20
114.782
 11
-46.5
 21
103.032
  0
LINE
  8
0
 10
-46.5
 20
103.032
 11
-44.875
 21
101.407
  0
LINE
  8
0
 10
-44.875
 20
101.407
 11
-40
 21
101.407
  0
LINE
  8
0
 10
-40
 20
101.407
 11
-40
 21
72.748
  0
LINE
  8
0
 10
-40
 20
72.748
 11
-44.875
 21
72.748
  0
LINE
  8
0
 10
-44.875
 20
72.748
 11
-46.5
 21
71.123
  0
LINE
  8
0
 10
-46.5
 20
71.123
 11
-46.5
 21
59.373
  0
LINE
  8
0
 10
-46.5
 20
59.373
 11
-44.875
 21
57.748
  0
LINE
  8
0
 10
-44.875
 20
57.748
 11
-40
 21
57.748
  0
LINE
  8
0
 10
-40
 20
57.748
 11
-40
 21
52.811
  0
LINE
  8
0
 10
-40
 20
52.811
 11
-32.9375
 21
52.811
  0
LINE
  8
0
 10
-32.9375
 20
52.811
 11
-32.9375
 21
54.948
  0
LINE
  8
0
 10
-32.9375
 20
54.948
 11
-27.5625
 21
54.948
  0
LINE
  8
0
 10
-27.5625
 20
54.948
 11
-27.5625
 21
52.811
  0
LINE
  8
0
 10
-27.5625
 20
52.811
 11
-26.1875
 21
52.811
  0
LINE
  8
0
 10
-26.1875
 20
52.811
 11
-26.1875
 21
47.685
  0
LINE
  8
0
 10
-26.1875
 20
47.685
 11
-27.5625
 21
47.685
  0
LINE
  8
0
 10
-27.5625
 20
47.685
 11
-27.5625
 21
45.548
  0
LINE
  8
0
 10
-27.5625
 20
45.548
 11
-32.9375
 21
45.548
  0
LINE
  8
0
 10
-32.9375
 20
45.548
 11
-32.9375
 21
47.685
  0
LINE
  8
0
 10
-32.9375
 20
47.685
 11
-40
 21
47.685
  0
LINE
  8
0
 10
-40
 20
47.685
 11
-40
 21
42.748
  0
LINE
  8
0
 10
-40
 20
42.748
 11
-44.875
 21
42.748
  0
LINE
  8
0
 10
-44.875
 20
42.748
 11
-46.5
 21
41.123
  0
LINE
  8
0
 10
-46.5
 20
41.123
 11
-46.5
 21
29.373
  0
LINE
  8
0
 10
-46.5
 20
29.373
 11
-44.875
 21
27.748
  0
LINE
  8
0
 10
-44.875
 20
27.748
 11
-40
 21
27.748
  0
LINE
  8
0
 10
-40
 20
27.748
 11
-40
 21
20
  0
LINE
  8
0
 10
-40
 20
20
 11
40
 21
20
  0
LINE
  8
0
 10
40
 20
20
 11
40
 21
27.748
  0
LINE
  8
0
 10
27.346
 20
161.796
 11
27.4823
 21
162.275
  0
LINE
  8
0
 10
27.4823
 20
162.275
 11
27.7044
 21
162.721
  0
LINE
  8
0
 10
27.7044
 20
162.721
 11
28.0047
 21
163.119
  0
LINE
  8
0
 10
28.0047
 20
163.119
 11
28.3729
 21
163.455
  0
LINE
  8
0
 10
28.3729
 20
163.455
 11
28.7965
 21
163.717
  0
LINE
  8
0
 10
28.7965
 20
163.717
 11
29.2611
 21
163.897
  0
LINE
  8
0
 10
29.2611
 20
163.897
 11
29.7509
 21
163.988
  0
LINE
  8
0
 10
29.7509
 20
163.988
 11
30.2491
 21
163.988
  0
LINE
  8
0
 10
30.2491
 20
163.988
 11
30.7389
 21
163.897
  0
LINE
  8
0
 10
30.7389
 20
163.897
 11
31.2035
 21
163.717
  0
LINE
  8
0
 10
31.2035
 20
163.717
 11
31.6271
 21
163.455
  0
LINE
  8
0
 10
31.6271
 20
163.455
 11
31.9953
 21
163.119
  0
LINE
  8
0
 10
31.9953
 20
163.119
 11
32.2956
 21
162.721
  0
LINE
  8
0
 10
32.2956
 20
162.721
 11
32.5177
 21
162.275
  0
LINE
  8
0
 10
32.5177
 20
162.275
 11
32.654
 21
161.796
  0
LINE
  8
0
 10
32.654
 20
161.796
 11
32.7
 21
161.3
  0
LINE
  8
0
 10
32.7
 20
161.3
 11
32.654
 21
160.804
  0
LINE
  8
0
 10
32.654
 20
160.804
 11
32.5177
 21
160.325
  0
LINE
  8
0
 10
32.5177
 20
160.325
 11
32.2956
 21
159.879
  0
LINE
  8
0
 10
32.2956
 20
159.879
 11
31.9953
 21
159.481
  0
LINE
  8
0
 10
31.9953
 20
159.481
 11
31.6271
 21
159.145
  0
LINE
  8
0
 10
31.6271
 20
159.145
 11
31.2035
 21
158.883
  0
LINE
  8
0
 10
31.2035
 20
158.883
 11
30.7389
 21
158.703
  0
LINE
  8
0
 10
30.7389
 20
158.703
 11
30.2491
 21
158.612
  0
LINE
  8
0
 10
30.2491
 20
158.612
 11
29.7509
 21
158.612
  0
LINE
  8
0
 10
29.7509
 20
158.612
 11
29.2611
 21
158.703
  0
LINE
  8
0
 10
29.2611
 20
158.703
 11
28.7965
 21
158.883
  0
LINE
  8
0
 10
28.7965
 20
158.883
 11
28.3729
 21
159.145
  0
LINE
  8
0
 10
28.3729
 20
159.145
 11
28.0047
 21
159.481
  0
LINE
  8
0
 10
28.0047
 20
159.481
 11
27.7044
 21
159.879
  0
LINE
  8
0
 10
27.7044
 20
159.879
 11
27.4823
 21
160.325
  0
LINE
  8
0
 10
27.4823
 20
160.325
 11
27.346
 21
160.804
  0
LINE
  8
0
 10
27.346
 20
160.804
 11
27.3
 21
161.3
  0
LINE
  8
0
 10
27.3
 20
161.3
 11
27.346
 21
161.796
  0
LINE
  8
0
 10
-27.7044
 20
159.879
 11
-28.0047
 21
159.481
  0
LINE
  8
0
 10
-28.0047
 20
159.481
 11
-28.3729
 21
159.145
  0
LINE
  8
0
 10
-28.3729
 20
159.145
 11
-28.7965
 21
158.883
  0
LINE
  8
0
 10
-28.7965
 20
158.883
 11
-29.2611
 21
158.703
  0
LINE
  8
0
 10
-29.2611
 20
158.703
 11
-29.7509
 21
158.612
  0
LINE
  8
0
 10
-29.7509
 20
158.612
 11
-30.2491
 21
158.612
  0
LINE
  8
0
 10
-30.2491
 20
158.612
 11
-30.7389
 21
158.703
  0
LINE
  8
0
 10
-30.7389
 20
158.703
 11
-31.2035
 21
158.883
  0
LINE
  8
0
 10
-31.2035
 20
158.883
 11
-31.6271
 21
159.145
  0
LINE
  8
0
 10
-31.6271
 20
159.145
 11
-31.9953
 21
159.481
  0
LINE
  8
0
 10
-31.9953
 20
159.481
 11
-32.2956
 21
159.879
  0
LINE
  8
0
 10
-32.2956
 20
159.879
 11
-32.5177
 21
160.325
  0
LINE
  8
0
 10
-32.5177
 20
160.325
 11
-32.654
 21
160.804
  0
LINE
  8
0
 10
-32.654
 20
160.804
 11
-32.7
 21
161.3
  0
LINE
  8
0
 10
-32.7
 20
161.3
 11
-32.654
 21
161.796
  0
LINE
  8
0
 10
-32.654
 20
161.796
 11
-32.5177
 21
162.275
  0
LINE
  8
0
 10
-32.5177
 20
162.275
 11
-32.2956
 21
162.721
  0
LINE
  8
0
 10
-32.2956
 20
162.721
 11
-31.9953
 21
163.119
  0
LINE
  8
0
 10
-31.9953
 20
163.119
 11
-31.6271
 21
163.455
  0
LINE
  8
0
 10
-31.6271
 20
163.455
 11
-31.2035
 21
163.717
  0
LINE
  8
0
 10
-31.2035
 20
163.717
 11
-30.7389
 21
163.897
  0
LINE
  8
0
 10
-30.7389
 20
163.897
 11
-30.2491
 21
163.988
  0
LINE
  8
0
 10
-30.2491
 20
163.988
 11
-29.7509
 21
163.988
  0
LINE
  8
0
 10
-29.7509
 20
163.988
 11
-29.2611
 21
163.897
  0
LINE
  8
0
 10
-29.2611
 20
163.897
 11
-28.7965
 21
163.717
  0
LINE
  8
0
 10
-28.7965
 20
163.717
 11
-28.3729
 21
163.455
  0
LINE
  8
0
 10
-28.3729
 20
163.455
 11
-28.0047
 21
163.119
  0
LINE
  8
0
 10
-28.0047
 20
163.119
 11
-27.7044
 21
162.721
  0
LINE
  8
0
 10
-27.7044
 20
162.721
 11
-27.4823
 21
162.275
  0
LINE
  8
0
 10
-27.4823
 20
162.275
 11
-27.346
 21
161.796
  0
LINE
  8
0
 10
-27.346
 20
161.796
 11
-27.3
 21
161.3
  0
LINE
  8
0
 10
-27.3
 20
161.3
 11
-27.346
 21
160.804
  0
LINE
  8
0
 10
-27.346
 20
160.804
 11
-27.4823
 21
160.325
  0
LINE
  8
0
 10
-27.4823
 20
160.325
 11
-27.7044
 21
159.879
  0
LINE
  8
0
 10
-27.5625
 20
-128.607
 11
-32.9375
 21
-128.607
  0
LINE
  8
0
 10
-32.9375
 20
-128.607
 11
-32.9375
 21
-126.47
  0
LINE
  8
0
 10
-32.9375
 20
-126.47
 11
-40
 21
-126.47
  0
LINE
  8
0
 10
-40
 20
-126.47
 11
-40
 21
-131.407
  0
LINE
  8
0
 10
-40
 20
-131.407
 11
-44.875
 21
-131.407
  0
LINE
  8
0
 10
-44.875
 20
-131.407
 11
-46.5
 21
-133.032
  0
LINE
  8
0
 10
-46.5
 20
-133.032
 11
-46.5
 21
-144.782
  0
LINE
  8
0
 10
-46.5
 20
-144.782
 11
-44.875
 21
-146.407
  0
LINE
  8
0
 10
-44.875
 20
-146.407
 11
-40
 21
-146.407
  0
LINE
  8
0
 10
-40
 20
-146.407
 11
-40
 21
-171.3
  0
LINE
  8
0
 10
-40
 20
-171.3
 11
40
 21
-171.3
  0
LINE
  8
0
 10
40
 20
-171.3
 11
40
 21
-146.407
  0
LINE
  8
0
 10
40
 20
-146.407
 11
44.875
 21
-146.407
  0
LINE
  8
0
 10
44.875
 20
-146.407
 11
46.5
 21
-144.782
  0
LINE
  8
0
 10
46.5
 20
-144.782
 11
46.5
 21
-133.032
  0
LINE
  8
0
 10
46.5
 20
-133.032
 11
44.875
 21
-131.407
  0
LINE
  8
0
 10
44.875
 20
-131.407
 11
40
 21
-131.407
  0
LINE
  8
0
 10
40
 20
-131.407
 11
40
 21
-126.47
  0
LINE
  8
0
 10
40
 20
-126.47
 11
32.9375
 21
-126.47
  0
LINE
  8
0
 10
32.9375
 20
-126.47
 11
32.9375
 21
-128.607
  0
LINE
  8
0
 10
32.9375
 20
-128.607
 11
27.5625
 21
-128.607
  0
LINE
  8
0
 10
27.5625
 20
-128.607
 11
27.5625
 21
-126.47
  0
LINE
  8
0
 10
27.5625
 20
-126.47
 11
26.1875
 21
-126.47
  0
LINE
  8
0
 10
26.1875
 20
-126.47
 11
26.1875
 21
-121.344
  0
LINE
  8
0
 10
26.1875
 20
-121.344
 11
27.5625
 21
-121.344
  0
LINE
  8
0
 10
27.5625
 20
-121.344
 11
27.5625
 21
-119.207
  0
LINE
  8
0
 10
27.5625
 20
-119.207
 11
32.9375
 21
-119.207
  0
LINE
  8
0
 10
32.9375
 20
-119.207
 11
32.9375
 21
-121.344
  0
LINE
  8
0
 10
32.9375
 20
-121.344
 11
40
 21
-121.344
  0
LINE
  8
0
 10
40
 20
-121.344
 11
40
 21
-116.407
  0
LINE
  8
0
 10
40
 20
-116.407
 11
44.875
 21
-116.407
  0
LINE
  8
0
 10
44.875
 20
-116.407
 11
46.5
 21
-114.782
  0
LINE
  8
0
 10
46.5
 20
-114.782
 11
46.5
 21
-103.032
  0
LINE
  8
0
 10
46.5
 20
-103.032
 11
44.875
 21
-101.407
  0
LINE
  8
0
 10
44.875
 20
-101.407
 11
40
 21
-101.407
  0
LINE
  8
0
 10
40
 20
-101.407
 11
40
 21
-72.748
  0
LINE
  8
0
 10
40
 20
-72.748
 11
44.875
 21
-72.748
  0
LINE
  8
0
 10
44.875
 20
-72.748
 11
46.5
 21
-71.123
  0
LINE
  8
0
 10
46.5
 20
-71.123
 11
46.5
 21
-59.373
  0
LINE
  8
0
 10
46.5
 20
-59.373
 11
44.875
 21
-57.748
  0
LINE
  8
0
 10
44.875
 20
-57.748
 11
40
 21
-57.748
  0
LINE
  8
0
 10
40
 20
-57.748
 11
40
 21
-52.811
  0
LINE
  8
0
 10
40
 20
-52.811
 11
32.9375
 21
-52.811
  0
LINE
  8
0
 10
32.9375
 20
-52.811
 11
32.9375
 21
-54.948
  0
LINE
  8
0
 10
32.9375
 20
-54.948
 11
27.5625
 21
-54.948
  0
LINE
  8
0
 10
27.5625
 20
-54.948
 11
27.5625
 21
-52.811
  0
LINE
  8
0
 10
27.5625
 20
-52.811
 11
26.1875
 21
-52.811
  0
LINE
  8
0
 10
26.1875
 20
-52.811
 11
26.1875
 21
-47.685
  0
LINE
  8
0
 10
26.1875
 20
-47.685
 11
27.5625
 21
-47.685
  0
LINE
  8
0
 10
27.5625
 20
-47.685
 11
27.5625
 21
-45.548
  0
LINE
  8
0
 10
27.5625
 20
-45.548
 11
32.9375
 21
-45.548
  0
LINE
  8
0
 10
32.9375
 20
-45.548
 11
32.9375
 21
-47.685
  0
LINE
  8
0
 10
32.9375
 20
-47.685
 11
40
 21
-47.685
  0
LINE
  8
0
 10
40
 20
-47.685
 11
40
 21
-42.748
  0
LINE
  8
0
 10
40
 20
-42.748
 11
44.875
 21
-42.748
  0
LINE
  8
0
 10
44.875
 20
-42.748
 11
46.5
 21
-41.123
  0
LINE
  8
0
 10
46.5
 20
-41.123
 11
46.5
 21
-29.373
  0
LINE
  8
0
 10
46.5
 20
-29.373
 11
44.875
 21
-27.748
  0
LINE
  8
0
 10
44.875
 20
-27.748
 11
40
 21
-27.748
  0
LINE
  8
0
 10
40
 20
-27.748
 11
40
 21
-20
  0
LINE
  8
0
 10
40
 20
-20
 11
-40
 21
-20
  0
LINE
  8
0
 10
-40
 20
-20
 11
-40
 21
-27.748
  0
LINE
  8
0
 10
-40
 20
-27.748
 11
-44.875
 21
-27.748
  0
LINE
  8
0
 10
-44.875
 20
-27.748
 11
-46.5
 21
-29.373
  0
LINE
  8
0
 10
-46.5
 20
-29.373
 11
-46.5
 21
-41.123
  0
LINE
  8
0
 10
-46.5
 20
-41.123
 11
-44.875
 21
-42.748
  0
LINE
  8
0
 10
-44.875
 20
-42.748
 11
-40
 21
-42.748
  0
LINE
  8
0
 10
-40
 20
-42.748
 11
-40
 21
-47.685
  0
LINE
  8
0
 10
-40
 20
-47.685
 11
-32.9375
 21
-47.685
  0
LINE
  8
0
 10
-32.9375
 20
-47.685
 11
-32.9375
 21
-45.548
  0
LINE
  8
0
 10
-32.9375
 20
-45.548
 11
-27.5625
 21
-45.548
  0
LINE
  8
0
 10
-27.5625
 20
-45.548
 11
-27.5625
 21
-47.685
  0
LINE
  8
0
 10
-27.5625
 20
-47.685
 11
-26.1875
 21
-47.685
  0
LINE
  8
0
 10
-26.1875
 20
-47.685
 11
-26.1875
 21
-52.811
  0
LINE
  8
0
 10
-26.1875
 20
-52.811
 11
-27.5625
 21
-52.811
  0
LINE
  8
0
 10
-27.5625
 20
-52.811
 11
-27.5625
 21
-54.948
  0
LINE
  8
0
 10
-27.5625
 20
-54.948
 11
-32.9375
 21
-54.948
  0
LINE
  8
0
 10
-32.9375
 20
-54.948
 11
-32.9375
 21
-52.811
  0
LINE
  8
0
 10
-32.9375
 20
-52.811
 11
-40
 21
-52.811
  0
LINE
  8
0
 10
-40
 20
-52.811
 11
-40
 21
-57.748
  0
LINE
  8
0
 10
-40
 20
-57.748
 11
-44.875
 21
-57.748
  0
LINE
  8
0
 10
-44.875
 20
-57.748
 11
-46.5
 21
-59.373
  0
LINE
  8
0
 10
-46.5
 20
-59.373
 11
-46.5
 21
-71.123
  0
LINE
  8
0
 10
-46.5
 20
-71.123
 11
-44.875
 21
-72.748
  0
LINE
  8
0
 10
-44.875
 20
-72.748
 11
-40
 21
-72.748
  0
LINE
  8
0
 10
-40
 20
-72.748
 11
-40
 21
-101.407
  0
LINE
  8
0
 10
-40
 20
-101.407
 11
-44.875
 21
-101.407
  0
LINE
  8
0
 10
-44.875
 20
-101.407
 11
-46.5
 21
-103.032
  0
LINE
  8
0
 10
-46.5
 20
-103.032
 11
-46.5
 21
-114.782
  0
LINE
  8
0
 10
-46.5
 20
-114.782
 11
-44.875
 21
-116.407
  0
LINE
  8
0
 10
-44.875
 20
-116.407
 11
-40
 21
-116.407
  0
LINE
  8
0
 10
-40
 20
-116.407
 11
-40
 21
-121.344
  0
LINE
  8
0
 10
-40
 20
-121.344
 11
-32.9375
 21
-121.344
  0
LINE
  8
0
 10
-32.9375
 20
-121.344
 11
-32.9375
 21
-119.207
  0
LINE
  8
0
 10
-32.9375
 20
-119.207
 11
-27.5625
 21
-119.207
  0
LINE
  8
0
 10
-27.5625
 20
-119.207
 11
-27.5625
 21
-121.344
  0
LINE
  8
0
 10
-27.5625
 20
-121.344
 11
-26.1875
 21
-121.344
  0
LINE
  8
0
 10
-26.1875
 20
-121.344
 11
-26.1875
 21
-126.47
  0
LINE
  8
0
 10
-26.1875
 20
-126.47
 11
-27.5625
 21
-126.47
  0
LINE
  8
0
 10
-27.5625
 20
-126.47
 11
-27.5625
 21
-128.607
  0
LINE
  8
0
 10
-30.2491
 20
-163.988
 11
-30.7389
 21
-163.897
  0
LINE
  8
0
 10
-30.7389
 20
-163.897
 11
-31.2035
 21
-163.717
  0
LINE
  8
0
 10
-31.2035
 20
-163.717
 11
-31.6271
 21
-163.455
  0
LINE
  8
0
 10
-31.6271
 20
-163.455
 11
-31.9953
 21
-163.119
  0
LINE
  8
0
 10
-31.9953
 20
-163.119
 11
-32.2956
 21
-162.721
  0
LINE
  8
0
 10
-32.2956
 20
-162.721
 11
-32.5177
 21
-162.275
  0
LINE
  8
0
 10
-32.5177
 20
-162.275
 11
-32.654
 21
-161.796
  0
LINE
  8
0
 10
-32.654
 20
-161.796
 11
-32.7
 21
-161.3
  0
LINE
  8
0
 10
-32.7
 20
-161.3
 11
-32.654
 21
-160.804
  0
LINE
  8
0
 10
-32.654
 20
-160.804
 11
-32.5177
 21
-160.325
  0
LINE
  8
0
 10
-32.5177
 20
-160.325
 11
-32.2956
 21
-159.879
  0
LINE
  8
0
 10
-32.2956
 20
-159.879
 11
-31.9953
 21
-159.481
  0
LINE
  8
0
 10
-31.9953
 20
-159.481
 11
-31.6271
 21
-159.145
  0
LINE
  8
0
 10
-31.6271
 20
-159.145
 11
-31.2035
 21
-158.883
  0
LINE
  8
0
 10
-31.2035
 20
-158.883
 11
-30.7389
 21
-158.703
  0
LINE
  8
0
 10
-30.7389
 20
-158.703
 11
-30.2491
 21
-158.612
  0
LINE
  8
0
 10
-30.2491
 20
-158.612
 11
-29.7509
 21
-158.612
  0
LINE
  8
0
 10
-29.7509
 20
-158.612
 11
-29.2611
 21
-158.703
  0
LINE
  8
0
 10
-29.2611
 20
-158.703
 11
-28.7965
 21
-158.883
  0
LINE
  8
0
 10
-28.7965
 20
-158.883
 11
-28.3729
 21
-159.145
  0
LINE
  8
0
 10
-28.3729
 20
-159.145
 11
-28.0047
 21
-159.481
  0
LINE
  8
0
 10
-28.0047
 20
-159.481
 11
-27.7044
 21
-159.879
  0
LINE
  8
0
 10
-27.7044
 20
-159.879
 11
-27.4823
 21
-160.325
  0
LINE
  8
0
 10
-27.4823
 20
-160.325
 11
-27.346
 21
-160.804
  0
LINE
  8
0
 10
-27.346
 20
-160.804
 11
-27.3
 21
-161.3
  0
LINE
  8
0
 10
-27.3
 20
-161.3
 11
-27.346
 21
-161.796
  0
LINE
  8
0
 10
-27.346
 20
-161.796
 11
-27.4823
 21
-162.275
  0
LINE
  8
0
 10
-27.4823
 20
-162.275
 11
-27.7044
 21
-162.721
  0
LINE
  8
0
 10
-27.7044
 20
-162.721
 11
-28.0047
 21
-163.119
  0
LINE
  8
0
 10
-28.0047
 20
-163.119
 11
-28.3729
 21
-163.455
  0
LINE
  8
0
 10
-28.3729
 20
-163.455
 11
-28.7965
 21
-163.717
  0
LINE
  8
0
 10
-28.7965
 20
-163.717
 11
-29.2611
 21
-163.897
  0
LINE
  8
0
 10
-29.2611
 20
-163.897
 11
-29.7509
 21
-163.988
  0
LINE
  8
0
 10
-29.7509
 20
-163.988
 11
-30.2491
 21
-163.988
  0
LINE
  8
0
 10
29.7509
 20
-163.988
 11
29.2611
 21
-163.897
  0
LINE
  8
0
 10
29.2611
 20
-163.897
 11
28.7965
 21
-163.717
  0
LINE
  8
0
 10
28.7965
 20
-163.717
 11
28.3729
 21
-163.455
  0
LINE
  8
0
 10
28.3729
 20
-163.455
 11
28.0047
 21
-163.119
  0
LINE
  8
0
 10
28.0047
 20
-163.119
 11
27.7044
 21
-162.721
  0
LINE
  8
0
 10
27.7044
 20
-162.721
 11
27.4823
 21
-162.275
  0
LINE
  8
0
 10
27.4823
 20
-162.275
 11
27.346
 21
-161.796
  0
LINE
  8
0
 10
27.346
 20
-161.796
 11
27.3
 21
-161.3
  0
LINE
  8
0
 10
27.3
 20
-161.3
 11
27.346
 21
-160.804
  0
LINE
  8
0
 10
27.346
 20
-160.804
 11
27.4823
 21
-160.325
  0
LINE
  8
0
 10
27.4823
 20
-160.325
 11
27.7044
 21
-159.879
  0
LINE
  8
0
 10
27.7044
 20
-159.879
 11
28.0047
 21
-159.481
  0
LINE
  8
0
 10
28.0047
 20
-159.481
 11
28.3729
 21
-159.145
  0
LINE
  8
0
 10
28.3729
 20
-159.145
 11
28.7965
 21
-158.883
  0
LINE
  8
0
 10
28.7965
 20
-158.883
 11
29.2611
 21
-158.703
  0
LINE
  8
0
 10
29.2611
 20
-158.703
 11
29.7509
 21
-158.612
  0
LINE
  8
0
 10
29.7509
 20
-158.612
 11
30.2491
 21
-158.612
  0
LINE
  8
0
 10
30.2491
 20
-158.612
 11
30.7389
 21
-158.703
  0
LINE
  8
0
 10
30.7389
 20
-158.703
 11
31.2035
 21
-158.883
  0
LINE
  8
0
 10
31.2035
 20
-158.883
 11
31.6271
 21
-159.145
  0
LINE
  8
0
 10
31.6271
 20
-159.145
 11
31.9953
 21
-159.481
  0
LINE
  8
0
 10
31.9953
 20
-159.481
 11
32.2956
 21
-159.879
  0
LINE
  8
0
 10
32.2956
 20
-159.879
 11
32.5177
 21
-160.325
  0
LINE
  8
0
 10
32.5177
 20
-160.325
 11
32.654
 21
-160.804
  0
LINE
  8
0
 10
32.654
 20
-160.804
 11
32.7
 21
-161.3
  0
LINE
  8
0
 10
32.7
 20
-161.3
 11
32.654
 21
-161.796
  0
LINE
  8
0
 10
32.654
 20
-161.796
 11
32.5177
 21
-162.275
  0
LINE
  8
0
 10
32.5177
 20
-162.275
 11
32.2956
 21
-162.721
  0
LINE
  8
0
 10
32.2956
 20
-162.721
 11
31.9953
 21
-163.119
  0
LINE
  8
0
 10
31.9953
 20
-163.119
 11
31.6271
 21
-163.455
  0
LINE
  8
0
 10
31.6271
 20
-163.455
 11
31.2035
 21
-163.717
  0
LINE
  8
0
 10
31.2035
 20
-163.717
 11
30.7389
 21
-163.897
  0
LINE
  8
0
 10
30.7389
 20
-163.897
 11
30.2491
 21
-163.988
  0
LINE
  8
0
 10
30.2491
 20
-163.988
 11
29.7509
 21
-163.988
  0
ENDSEC
  0
SECTION
  2
OBJECTS
  0
DICTIONARY
  0
ENDSEC
  0
EOF
