  0
SECTION
  2
BLOCKS
  0
ENDSEC
  0
SECTION
  2
ENTITIES
  0
LINE
  8
0
 10
-2
 20
-152.4
 11
15
 21
-152.4
  0
LINE
  8
0
 10
15
 20
-152.4
 11
15
 21
152.4
  0
LINE
  8
0
 10
15
 20
152.4
 11
-2
 21
152.4
  0
LINE
  8
0
 10
-2
 20
152.4
 11
-2
 21
165.216
  0
LINE
  8
0
 10
-2
 20
165.216
 11
-28
 21
165.216
  0
LINE
  8
0
 10
-28
 20
165.216
 11
-39.2391
 21
163.338
  0
LINE
  8
0
 10
-39.2391
 20
163.338
 11
-39.7305
 21
163.247
  0
LINE
  8
0
 10
-39.7305
 20
163.247
 11
-40.2181
 21
163.137
  0
LINE
  8
0
 10
-40.2181
 20
163.137
 11
-40.7013
 21
163.009
  0
LINE
  8
0
 10
-40.7013
 20
163.009
 11
-41.1794
 21
162.863
  0
LINE
  8
0
 10
-41.1794
 20
162.863
 11
-41.6519
 21
162.7
  0
LINE
  8
0
 10
-41.6519
 20
162.7
 11
-42.118
 21
162.519
  0
LINE
  8
0
 10
-42.118
 20
162.519
 11
-42.5771
 21
162.322
  0
LINE
  8
0
 10
-42.5771
 20
162.322
 11
-43.0286
 21
162.107
  0
LINE
  8
0
 10
-43.0286
 20
162.107
 11
-43.4719
 21
161.876
  0
LINE
  8
0
 10
-43.4719
 20
161.876
 11
-43.9063
 21
161.629
  0
LINE
  8
0
 10
-43.9063
 20
161.629
 11
-44.3313
 21
161.366
  0
LINE
  8
0
 10
-44.3313
 20
161.366
 11
-44.7462
 21
161.087
  0
LINE
  8
0
 10
-44.7462
 20
161.087
 11
-45.1506
 21
160.793
  0
LINE
  8
0
 10
-45.1506
 20
160.793
 11
-45.5439
 21
160.485
  0
LINE
  8
0
 10
-45.5439
 20
160.485
 11
-45.9255
 21
160.162
  0
LINE
  8
0
 10
-45.9255
 20
160.162
 11
-46.2949
 21
159.825
  0
LINE
  8
0
 10
-46.2949
 20
159.825
 11
-46.6516
 21
159.475
  0
LINE
  8
0
 10
-46.6516
 20
159.475
 11
-46.9951
 21
159.112
  0
LINE
  8
0
 10
-46.9951
 20
159.112
 11
-47.325
 21
158.736
  0
LINE
  8
0
 10
-47.325
 20
158.736
 11
-47.6407
 21
158.349
  0
LINE
  8
0
 10
-47.6407
 20
158.349
 11
-47.942
 21
157.95
  0
LINE
  8
0
 10
-47.942
 20
157.95
 11
-48.2282
 21
157.54
  0
LINE
  8
0
 10
-48.2282
 20
157.54
 11
-48.4992
 21
157.12
  0
LINE
  8
0
 10
-48.4992
 20
157.12
 11
-48.7544
 21
156.69
  0
LINE
  8
0
 10
-48.7544
 20
156.69
 11
-48.9936
 21
156.251
  0
LINE
  8
0
 10
-48.9936
 20
156.251
 11
-49.2164
 21
155.804
  0
LINE
  8
0
 10
-49.2164
 20
155.804
 11
-49.4225
 21
155.348
  0
LINE
  8
0
 10
-49.4225
 20
155.348
 11
-49.6117
 21
154.886
  0
LINE
  8
0
 10
-49.6117
 20
154.886
 11
-49.7836
 21
154.416
  0
LINE
  8
0
 10
-49.7836
 20
154.416
 11
-49.9381
 21
153.941
  0
LINE
  8
0
 10
-49.9381
 20
153.941
 11
-50.0749
 21
153.46
  0
LINE
  8
0
 10
-50.0749
 20
153.46
 11
-50.1938
 21
152.975
  0
LINE
  8
0
 10
-50.1938
 20
152.975
 11
-50.2947
 21
152.485
  0
LINE
  8
0
 10
-50.2947
 20
152.485
 11
-50.3775
 21
151.992
  0
LINE
  8
0
 10
-50.3775
 20
151.992
 11
-50.4419
 21
151.497
  0
LINE
  8
0
 10
-50.4419
 20
151.497
 11
-50.4881
 21
150.999
  0
LINE
  8
0
 10
-50.4881
 20
150.999
 11
-50.5158
 21
150.5
  0
LINE
  8
0
 10
-50.5158
 20
150.5
 11
-50.525
 21
150
  0
LINE
  8
0
 10
-50.525
 20
150
 11
-50.5158
 21
149.5
  0
LINE
  8
0
 10
-50.5158
 20
149.5
 11
-50.4881
 21
149.001
  0
LINE
  8
0
 10
-50.4881
 20
149.001
 11
-50.4419
 21
148.503
  0
LINE
  8
0
 10
-50.4419
 20
148.503
 11
-50.3775
 21
148.008
  0
LINE
  8
0
 10
-50.3775
 20
148.008
 11
-50.2947
 21
147.515
  0
LINE
  8
0
 10
-50.2947
 20
147.515
 11
-50.1938
 21
147.025
  0
LINE
  8
0
 10
-50.1938
 20
147.025
 11
-50.0749
 21
146.54
  0
LINE
  8
0
 10
-50.0749
 20
146.54
 11
-49.9381
 21
146.059
  0
LINE
  8
0
 10
-49.9381
 20
146.059
 11
-49.7836
 21
145.584
  0
LINE
  8
0
 10
-49.7836
 20
145.584
 11
-49.6117
 21
145.114
  0
LINE
  8
0
 10
-49.6117
 20
145.114
 11
-49.4225
 21
144.652
  0
LINE
  8
0
 10
-49.4225
 20
144.652
 11
-49.2164
 21
144.196
  0
LINE
  8
0
 10
-49.2164
 20
144.196
 11
-48.9936
 21
143.749
  0
LINE
  8
0
 10
-48.9936
 20
143.749
 11
-48.7544
 21
143.31
  0
LINE
  8
0
 10
-48.7544
 20
143.31
 11
-48.4992
 21
142.88
  0
LINE
  8
0
 10
-48.4992
 20
142.88
 11
-48.2282
 21
142.46
  0
LINE
  8
0
 10
-48.2282
 20
142.46
 11
-47.942
 21
142.05
  0
LINE
  8
0
 10
-47.942
 20
142.05
 11
-47.6407
 21
141.651
  0
LINE
  8
0
 10
-47.6407
 20
141.651
 11
-47.325
 21
141.264
  0
LINE
  8
0
 10
-47.325
 20
141.264
 11
-46.9951
 21
140.888
  0
LINE
  8
0
 10
-46.9951
 20
140.888
 11
-46.6516
 21
140.525
  0
LINE
  8
0
 10
-46.6516
 20
140.525
 11
-46.2949
 21
140.175
  0
LINE
  8
0
 10
-46.2949
 20
140.175
 11
-45.9255
 21
139.838
  0
LINE
  8
0
 10
-45.9255
 20
139.838
 11
-45.5439
 21
139.515
  0
LINE
  8
0
 10
-45.5439
 20
139.515
 11
-45.1506
 21
139.207
  0
LINE
  8
0
 10
-45.1506
 20
139.207
 11
-44.7462
 21
138.913
  0
LINE
  8
0
 10
-44.7462
 20
138.913
 11
-44.3313
 21
138.634
  0
LINE
  8
0
 10
-44.3313
 20
138.634
 11
-43.9063
 21
138.371
  0
LINE
  8
0
 10
-43.9063
 20
138.371
 11
-43.4719
 21
138.124
  0
LINE
  8
0
 10
-43.4719
 20
138.124
 11
-43.0286
 21
137.893
  0
LINE
  8
0
 10
-43.0286
 20
137.893
 11
-42.5771
 21
137.678
  0
LINE
  8
0
 10
-42.5771
 20
137.678
 11
-42.118
 21
137.481
  0
LINE
  8
0
 10
-42.118
 20
137.481
 11
-41.6519
 21
137.3
  0
LINE
  8
0
 10
-41.6519
 20
137.3
 11
-41.1794
 21
137.137
  0
LINE
  8
0
 10
-41.1794
 20
137.137
 11
-40.7013
 21
136.991
  0
LINE
  8
0
 10
-40.7013
 20
136.991
 11
-40.2181
 21
136.863
  0
LINE
  8
0
 10
-40.2181
 20
136.863
 11
-39.7305
 21
136.753
  0
LINE
  8
0
 10
-39.7305
 20
136.753
 11
-39.2391
 21
136.662
  0
LINE
  8
0
 10
-39.2391
 20
136.662
 11
-28
 21
134.784
  0
LINE
  8
0
 10
-28
 20
134.784
 11
-21.5
 21
134.784
  0
LINE
  8
0
 10
-21.5
 20
134.784
 11
-21.5
 21
133.077
  0
LINE
  8
0
 10
-21.5
 20
133.077
 11
-19.875
 21
131.452
  0
LINE
  8
0
 10
-19.875
 20
131.452
 11
-15
 21
131.452
  0
LINE
  8
0
 10
-15
 20
131.452
 11
-15
 21
126.515
  0
LINE
  8
0
 10
-15
 20
126.515
 11
-7.9375
 21
126.515
  0
LINE
  8
0
 10
-7.9375
 20
126.515
 11
-7.9375
 21
128.652
  0
LINE
  8
0
 10
-7.9375
 20
128.652
 11
-2.5625
 21
128.652
  0
LINE
  8
0
 10
-2.5625
 20
128.652
 11
-2.5625
 21
126.515
  0
LINE
  8
0
 10
-2.5625
 20
126.515
 11
-1.1875
 21
126.515
  0
LINE
  8
0
 10
-1.1875
 20
126.515
 11
-1.1875
 21
121.389
  0
LINE
  8
0
 10
-1.1875
 20
121.389
 11
-2.5625
 21
121.389
  0
LINE
  8
0
 10
-2.5625
 20
121.389
 11
-2.5625
 21
119.252
  0
LINE
  8
0
 10
-2.5625
 20
119.252
 11
-7.9375
 21
119.252
  0
LINE
  8
0
 10
-7.9375
 20
119.252
 11
-7.9375
 21
121.389
  0
LINE
  8
0
 10
-7.9375
 20
121.389
 11
-15
 21
121.389
  0
LINE
  8
0
 10
-15
 20
121.389
 11
-15
 21
116.452
  0
LINE
  8
0
 10
-15
 20
116.452
 11
-19.875
 21
116.452
  0
LINE
  8
0
 10
-19.875
 20
116.452
 11
-21.5
 21
114.827
  0
LINE
  8
0
 10
-21.5
 20
114.827
 11
-21.5
 21
114.49
  0
LINE
  8
0
 10
-21.5
 20
114.49
 11
-22.2477
 21
114.49
  0
LINE
  8
0
 10
-22.2477
 20
114.49
 11
-22.7365
 21
114.408
  0
LINE
  8
0
 10
-22.7365
 20
114.408
 11
-22.75
 21
114.404
  0
LINE
  8
0
 10
-22.75
 20
114.404
 11
-22.7635
 21
114.408
  0
LINE
  8
0
 10
-22.7635
 20
114.408
 11
-23.2523
 21
114.49
  0
LINE
  8
0
 10
-23.2523
 20
114.49
 11
-50.7477
 21
114.49
  0
LINE
  8
0
 10
-50.7477
 20
114.49
 11
-51.2365
 21
114.408
  0
LINE
  8
0
 10
-51.2365
 20
114.408
 11
-51.7051
 21
114.247
  0
LINE
  8
0
 10
-51.7051
 20
114.247
 11
-52.1408
 21
114.011
  0
LINE
  8
0
 10
-52.1408
 20
114.011
 11
-52.5318
 21
113.707
  0
LINE
  8
0
 10
-52.5318
 20
113.707
 11
-52.8674
 21
113.343
  0
LINE
  8
0
 10
-52.8674
 20
113.343
 11
-53.1384
 21
112.928
  0
LINE
  8
0
 10
-53.1384
 20
112.928
 11
-53.3374
 21
112.474
  0
LINE
  8
0
 10
-53.3374
 20
112.474
 11
-53.4591
 21
111.994
  0
LINE
  8
0
 10
-53.4591
 20
111.994
 11
-53.5
 21
111.5
  0
LINE
  8
0
 10
-53.5
 20
111.5
 11
-53.5
 21
84.5
  0
LINE
  8
0
 10
-53.5
 20
84.5
 11
-53.4591
 21
84.0062
  0
LINE
  8
0
 10
-53.4591
 20
84.0062
 11
-53.3374
 21
83.5259
  0
LINE
  8
0
 10
-53.3374
 20
83.5259
 11
-53.1384
 21
83.0722
  0
LINE
  8
0
 10
-53.1384
 20
83.0722
 11
-52.8674
 21
82.6574
  0
LINE
  8
0
 10
-52.8674
 20
82.6574
 11
-52.5318
 21
82.2928
  0
LINE
  8
0
 10
-52.5318
 20
82.2928
 11
-52.1408
 21
81.9885
  0
LINE
  8
0
 10
-52.1408
 20
81.9885
 11
-51.7051
 21
81.7527
  0
LINE
  8
0
 10
-51.7051
 20
81.7527
 11
-51.2365
 21
81.5918
  0
LINE
  8
0
 10
-51.2365
 20
81.5918
 11
-50.7477
 21
81.5102
  0
LINE
  8
0
 10
-50.7477
 20
81.5102
 11
-23.2523
 21
81.5102
  0
LINE
  8
0
 10
-23.2523
 20
81.5102
 11
-22.7635
 21
81.5918
  0
LINE
  8
0
 10
-22.7635
 20
81.5918
 11
-22.75
 21
81.5965
  0
LINE
  8
0
 10
-22.75
 20
81.5965
 11
-22.7365
 21
81.5918
  0
LINE
  8
0
 10
-22.7365
 20
81.5918
 11
-22.2477
 21
81.5102
  0
LINE
  8
0
 10
-22.2477
 20
81.5102
 11
-15
 21
81.5102
  0
LINE
  8
0
 10
-15
 20
81.5102
 11
-15
 21
67.204
  0
LINE
  8
0
 10
-15
 20
67.204
 11
-19.875
 21
67.204
  0
LINE
  8
0
 10
-19.875
 20
67.204
 11
-21.5
 21
65.579
  0
LINE
  8
0
 10
-21.5
 20
65.579
 11
-21.5
 21
53.829
  0
LINE
  8
0
 10
-21.5
 20
53.829
 11
-19.875
 21
52.204
  0
LINE
  8
0
 10
-19.875
 20
52.204
 11
-15
 21
52.204
  0
LINE
  8
0
 10
-15
 20
52.204
 11
-15
 21
47.267
  0
LINE
  8
0
 10
-15
 20
47.267
 11
-7.9375
 21
47.267
  0
LINE
  8
0
 10
-7.9375
 20
47.267
 11
-7.9375
 21
49.404
  0
LINE
  8
0
 10
-7.9375
 20
49.404
 11
-2.5625
 21
49.404
  0
LINE
  8
0
 10
-2.5625
 20
49.404
 11
-2.5625
 21
47.267
  0
LINE
  8
0
 10
-2.5625
 20
47.267
 11
-1.1875
 21
47.267
  0
LINE
  8
0
 10
-1.1875
 20
47.267
 11
-1.1875
 21
42.141
  0
LINE
  8
0
 10
-1.1875
 20
42.141
 11
-2.5625
 21
42.141
  0
LINE
  8
0
 10
-2.5625
 20
42.141
 11
-2.5625
 21
40.004
  0
LINE
  8
0
 10
-2.5625
 20
40.004
 11
-7.9375
 21
40.004
  0
LINE
  8
0
 10
-7.9375
 20
40.004
 11
-7.9375
 21
42.141
  0
LINE
  8
0
 10
-7.9375
 20
42.141
 11
-15
 21
42.141
  0
LINE
  8
0
 10
-15
 20
42.141
 11
-15
 21
37.204
  0
LINE
  8
0
 10
-15
 20
37.204
 11
-19.875
 21
37.204
  0
LINE
  8
0
 10
-19.875
 20
37.204
 11
-21.5
 21
35.579
  0
LINE
  8
0
 10
-21.5
 20
35.579
 11
-21.5
 21
23.829
  0
LINE
  8
0
 10
-21.5
 20
23.829
 11
-19.875
 21
22.204
  0
LINE
  8
0
 10
-19.875
 20
22.204
 11
-15
 21
22.204
  0
LINE
  8
0
 10
-15
 20
22.204
 11
-15
 21
15.2156
  0
LINE
  8
0
 10
-15
 20
15.2156
 11
-28
 21
15.2156
  0
LINE
  8
0
 10
-28
 20
15.2156
 11
-39.2391
 21
13.3384
  0
LINE
  8
0
 10
-39.2391
 20
13.3384
 11
-39.7305
 21
13.2465
  0
LINE
  8
0
 10
-39.7305
 20
13.2465
 11
-40.2181
 21
13.1366
  0
LINE
  8
0
 10
-40.2181
 20
13.1366
 11
-40.7013
 21
13.0087
  0
LINE
  8
0
 10
-40.7013
 20
13.0087
 11
-41.1794
 21
12.863
  0
LINE
  8
0
 10
-41.1794
 20
12.863
 11
-41.6519
 21
12.6998
  0
LINE
  8
0
 10
-41.6519
 20
12.6998
 11
-42.118
 21
12.5192
  0
LINE
  8
0
 10
-42.118
 20
12.5192
 11
-42.5771
 21
12.3216
  0
LINE
  8
0
 10
-42.5771
 20
12.3216
 11
-43.0286
 21
12.1071
  0
LINE
  8
0
 10
-43.0286
 20
12.1071
 11
-43.4719
 21
11.876
  0
LINE
  8
0
 10
-43.4719
 20
11.876
 11
-43.9063
 21
11.6288
  0
LINE
  8
0
 10
-43.9063
 20
11.6288
 11
-44.3313
 21
11.3656
  0
LINE
  8
0
 10
-44.3313
 20
11.3656
 11
-44.7462
 21
11.087
  0
LINE
  8
0
 10
-44.7462
 20
11.087
 11
-45.1506
 21
10.7932
  0
LINE
  8
0
 10
-45.1506
 20
10.7932
 11
-45.5439
 21
10.4846
  0
LINE
  8
0
 10
-45.5439
 20
10.4846
 11
-45.9255
 21
10.1618
  0
LINE
  8
0
 10
-45.9255
 20
10.1618
 11
-46.2949
 21
9.82501
  0
LINE
  8
0
 10
-46.2949
 20
9.82501
 11
-46.6516
 21
9.47484
  0
LINE
  8
0
 10
-46.6516
 20
9.47484
 11
-46.9951
 21
9.11172
  0
LINE
  8
0
 10
-46.9951
 20
9.11172
 11
-47.325
 21
8.73618
  0
LINE
  8
0
 10
-47.325
 20
8.73618
 11
-47.6407
 21
8.34868
  0
LINE
  8
0
 10
-47.6407
 20
8.34868
 11
-47.942
 21
7.94978
  0
LINE
  8
0
 10
-47.942
 20
7.94978
 11
-48.2282
 21
7.54004
  0
LINE
  8
0
 10
-48.2282
 20
7.54004
 11
-48.4992
 21
7.11998
  0
LINE
  8
0
 10
-48.4992
 20
7.11998
 11
-48.7544
 21
6.69022
  0
LINE
  8
0
 10
-48.7544
 20
6.69022
 11
-48.9936
 21
6.2513
  0
LINE
  8
0
 10
-48.9936
 20
6.2513
 11
-49.2164
 21
5.80385
  0
LINE
  8
0
 10
-49.2164
 20
5.80385
 11
-49.4225
 21
5.34846
  0
LINE
  8
0
 10
-49.4225
 20
5.34846
 11
-49.6117
 21
4.88579
  0
LINE
  8
0
 10
-49.6117
 20
4.88579
 11
-49.7836
 21
4.41643
  0
LINE
  8
0
 10
-49.7836
 20
4.41643
 11
-49.9381
 21
3.94104
  0
LINE
  8
0
 10
-49.9381
 20
3.94104
 11
-50.0749
 21
3.46027
  0
LINE
  8
0
 10
-50.0749
 20
3.46027
 11
-50.1938
 21
2.97476
  0
LINE
  8
0
 10
-50.1938
 20
2.97476
 11
-50.2947
 21
2.4852
  0
LINE
  8
0
 10
-50.2947
 20
2.4852
 11
-50.3775
 21
1.99225
  0
LINE
  8
0
 10
-50.3775
 20
1.99225
 11
-50.4419
 21
1.49657
  0
LINE
  8
0
 10
-50.4419
 20
1.49657
 11
-50.4881
 21
0.99884
  0
LINE
  8
0
 10
-50.4881
 20
0.99884
 11
-50.5158
 21
0.499756
  0
LINE
  8
0
 10
-50.5158
 20
0.499756
 11
-50.525
 21
0
  0
LINE
  8
0
 10
-50.525
 20
0
 11
-50.5158
 21
-0.499756
  0
LINE
  8
0
 10
-50.5158
 20
-0.499756
 11
-50.4881
 21
-0.99884
  0
LINE
  8
0
 10
-50.4881
 20
-0.99884
 11
-50.4419
 21
-1.49657
  0
LINE
  8
0
 10
-50.4419
 20
-1.49657
 11
-50.3775
 21
-1.99225
  0
LINE
  8
0
 10
-50.3775
 20
-1.99225
 11
-50.2947
 21
-2.4852
  0
LINE
  8
0
 10
-50.2947
 20
-2.4852
 11
-50.1938
 21
-2.97476
  0
LINE
  8
0
 10
-50.1938
 20
-2.97476
 11
-50.0749
 21
-3.46027
  0
LINE
  8
0
 10
-50.0749
 20
-3.46027
 11
-49.9381
 21
-3.94104
  0
LINE
  8
0
 10
-49.9381
 20
-3.94104
 11
-49.7836
 21
-4.41643
  0
LINE
  8
0
 10
-49.7836
 20
-4.41643
 11
-49.6117
 21
-4.88579
  0
LINE
  8
0
 10
-49.6117
 20
-4.88579
 11
-49.4225
 21
-5.34846
  0
LINE
  8
0
 10
-49.4225
 20
-5.34846
 11
-49.2164
 21
-5.80385
  0
LINE
  8
0
 10
-49.2164
 20
-5.80385
 11
-48.9936
 21
-6.2513
  0
LINE
  8
0
 10
-48.9936
 20
-6.2513
 11
-48.7544
 21
-6.69022
  0
LINE
  8
0
 10
-48.7544
 20
-6.69022
 11
-48.4992
 21
-7.11998
  0
LINE
  8
0
 10
-48.4992
 20
-7.11998
 11
-48.2282
 21
-7.54004
  0
LINE
  8
0
 10
-48.2282
 20
-7.54004
 11
-47.942
 21
-7.94978
  0
LINE
  8
0
 10
-47.942
 20
-7.94978
 11
-47.6407
 21
-8.34868
  0
LINE
  8
0
 10
-47.6407
 20
-8.34868
 11
-47.325
 21
-8.73618
  0
LINE
  8
0
 10
-47.325
 20
-8.73618
 11
-46.9951
 21
-9.11172
  0
LINE
  8
0
 10
-46.9951
 20
-9.11172
 11
-46.6516
 21
-9.47484
  0
LINE
  8
0
 10
-46.6516
 20
-9.47484
 11
-46.2949
 21
-9.82501
  0
LINE
  8
0
 10
-46.2949
 20
-9.82501
 11
-45.9255
 21
-10.1618
  0
LINE
  8
0
 10
-45.9255
 20
-10.1618
 11
-45.5439
 21
-10.4846
  0
LINE
  8
0
 10
-45.5439
 20
-10.4846
 11
-45.1506
 21
-10.7932
  0
LINE
  8
0
 10
-45.1506
 20
-10.7932
 11
-44.7462
 21
-11.087
  0
LINE
  8
0
 10
-44.7462
 20
-11.087
 11
-44.3313
 21
-11.3656
  0
LINE
  8
0
 10
-44.3313
 20
-11.3656
 11
-43.9063
 21
-11.6288
  0
LINE
  8
0
 10
-43.9063
 20
-11.6288
 11
-43.4719
 21
-11.876
  0
LINE
  8
0
 10
-43.4719
 20
-11.876
 11
-43.0286
 21
-12.1071
  0
LINE
  8
0
 10
-43.0286
 20
-12.1071
 11
-42.5771
 21
-12.3216
  0
LINE
  8
0
 10
-42.5771
 20
-12.3216
 11
-42.118
 21
-12.5192
  0
LINE
  8
0
 10
-42.118
 20
-12.5192
 11
-41.6519
 21
-12.6998
  0
LINE
  8
0
 10
-41.6519
 20
-12.6998
 11
-41.1794
 21
-12.863
  0
LINE
  8
0
 10
-41.1794
 20
-12.863
 11
-40.7013
 21
-13.0087
  0
LINE
  8
0
 10
-40.7013
 20
-13.0087
 11
-40.2181
 21
-13.1366
  0
LINE
  8
0
 10
-40.2181
 20
-13.1366
 11
-39.7305
 21
-13.2465
  0
LINE
  8
0
 10
-39.7305
 20
-13.2465
 11
-39.2391
 21
-13.3384
  0
LINE
  8
0
 10
-39.2391
 20
-13.3384
 11
-28
 21
-15.2156
  0
LINE
  8
0
 10
-28
 20
-15.2156
 11
-15
 21
-15.2156
  0
LINE
  8
0
 10
-15
 20
-15.2156
 11
-15
 21
-22.204
  0
LINE
  8
0
 10
-15
 20
-22.204
 11
-19.875
 21
-22.204
  0
LINE
  8
0
 10
-19.875
 20
-22.204
 11
-21.5
 21
-23.829
  0
LINE
  8
0
 10
-21.5
 20
-23.829
 11
-21.5
 21
-35.579
  0
LINE
  8
0
 10
-21.5
 20
-35.579
 11
-19.875
 21
-37.204
  0
LINE
  8
0
 10
-19.875
 20
-37.204
 11
-15
 21
-37.204
  0
LINE
  8
0
 10
-15
 20
-37.204
 11
-15
 21
-42.141
  0
LINE
  8
0
 10
-15
 20
-42.141
 11
-7.9375
 21
-42.141
  0
LINE
  8
0
 10
-7.9375
 20
-42.141
 11
-7.9375
 21
-40.004
  0
LINE
  8
0
 10
-7.9375
 20
-40.004
 11
-2.5625
 21
-40.004
  0
LINE
  8
0
 10
-2.5625
 20
-40.004
 11
-2.5625
 21
-42.141
  0
LINE
  8
0
 10
-2.5625
 20
-42.141
 11
-1.1875
 21
-42.141
  0
LINE
  8
0
 10
-1.1875
 20
-42.141
 11
-1.1875
 21
-47.267
  0
LINE
  8
0
 10
-1.1875
 20
-47.267
 11
-2.5625
 21
-47.267
  0
LINE
  8
0
 10
-2.5625
 20
-47.267
 11
-2.5625
 21
-49.404
  0
LINE
  8
0
 10
-2.5625
 20
-49.404
 11
-7.9375
 21
-49.404
  0
LINE
  8
0
 10
-7.9375
 20
-49.404
 11
-7.9375
 21
-47.267
  0
LINE
  8
0
 10
-7.9375
 20
-47.267
 11
-15
 21
-47.267
  0
LINE
  8
0
 10
-15
 20
-47.267
 11
-15
 21
-52.204
  0
LINE
  8
0
 10
-15
 20
-52.204
 11
-19.875
 21
-52.204
  0
LINE
  8
0
 10
-19.875
 20
-52.204
 11
-21.5
 21
-53.829
  0
LINE
  8
0
 10
-21.5
 20
-53.829
 11
-21.5
 21
-65.579
  0
LINE
  8
0
 10
-21.5
 20
-65.579
 11
-19.875
 21
-67.204
  0
LINE
  8
0
 10
-19.875
 20
-67.204
 11
-15
 21
-67.204
  0
LINE
  8
0
 10
-15
 20
-67.204
 11
-15
 21
-81.5102
  0
LINE
  8
0
 10
-15
 20
-81.5102
 11
-22.2477
 21
-81.5102
  0
LINE
  8
0
 10
-22.2477
 20
-81.5102
 11
-22.7365
 21
-81.5918
  0
LINE
  8
0
 10
-22.7365
 20
-81.5918
 11
-22.75
 21
-81.5965
  0
LINE
  8
0
 10
-22.75
 20
-81.5965
 11
-22.7635
 21
-81.5918
  0
LINE
  8
0
 10
-22.7635
 20
-81.5918
 11
-23.2523
 21
-81.5102
  0
LINE
  8
0
 10
-23.2523
 20
-81.5102
 11
-50.7477
 21
-81.5102
  0
LINE
  8
0
 10
-50.7477
 20
-81.5102
 11
-51.2365
 21
-81.5918
  0
LINE
  8
0
 10
-51.2365
 20
-81.5918
 11
-51.7051
 21
-81.7527
  0
LINE
  8
0
 10
-51.7051
 20
-81.7527
 11
-52.1408
 21
-81.9885
  0
LINE
  8
0
 10
-52.1408
 20
-81.9885
 11
-52.5318
 21
-82.2928
  0
LINE
  8
0
 10
-52.5318
 20
-82.2928
 11
-52.8674
 21
-82.6574
  0
LINE
  8
0
 10
-52.8674
 20
-82.6574
 11
-53.1384
 21
-83.0722
  0
LINE
  8
0
 10
-53.1384
 20
-83.0722
 11
-53.3374
 21
-83.5259
  0
LINE
  8
0
 10
-53.3374
 20
-83.5259
 11
-53.4591
 21
-84.0062
  0
LINE
  8
0
 10
-53.4591
 20
-84.0062
 11
-53.5
 21
-84.5
  0
LINE
  8
0
 10
-53.5
 20
-84.5
 11
-53.5
 21
-111.5
  0
LINE
  8
0
 10
-53.5
 20
-111.5
 11
-53.4591
 21
-111.994
  0
LINE
  8
0
 10
-53.4591
 20
-111.994
 11
-53.3374
 21
-112.474
  0
LINE
  8
0
 10
-53.3374
 20
-112.474
 11
-53.1384
 21
-112.928
  0
LINE
  8
0
 10
-53.1384
 20
-112.928
 11
-52.8674
 21
-113.343
  0
LINE
  8
0
 10
-52.8674
 20
-113.343
 11
-52.5318
 21
-113.707
  0
LINE
  8
0
 10
-52.5318
 20
-113.707
 11
-52.1408
 21
-114.011
  0
LINE
  8
0
 10
-52.1408
 20
-114.011
 11
-51.7051
 21
-114.247
  0
LINE
  8
0
 10
-51.7051
 20
-114.247
 11
-51.2365
 21
-114.408
  0
LINE
  8
0
 10
-51.2365
 20
-114.408
 11
-50.7477
 21
-114.49
  0
LINE
  8
0
 10
-50.7477
 20
-114.49
 11
-23.2523
 21
-114.49
  0
LINE
  8
0
 10
-23.2523
 20
-114.49
 11
-22.7635
 21
-114.408
  0
LINE
  8
0
 10
-22.7635
 20
-114.408
 11
-22.75
 21
-114.404
  0
LINE
  8
0
 10
-22.75
 20
-114.404
 11
-22.7365
 21
-114.408
  0
LINE
  8
0
 10
-22.7365
 20
-114.408
 11
-22.2477
 21
-114.49
  0
LINE
  8
0
 10
-22.2477
 20
-114.49
 11
-21.5
 21
-114.49
  0
LINE
  8
0
 10
-21.5
 20
-114.49
 11
-21.5
 21
-114.827
  0
LINE
  8
0
 10
-21.5
 20
-114.827
 11
-19.875
 21
-116.452
  0
LINE
  8
0
 10
-19.875
 20
-116.452
 11
-15
 21
-116.452
  0
LINE
  8
0
 10
-15
 20
-116.452
 11
-15
 21
-121.389
  0
LINE
  8
0
 10
-15
 20
-121.389
 11
-7.9375
 21
-121.389
  0
LINE
  8
0
 10
-7.9375
 20
-121.389
 11
-7.9375
 21
-119.252
  0
LINE
  8
0
 10
-7.9375
 20
-119.252
 11
-2.5625
 21
-119.252
  0
LINE
  8
0
 10
-2.5625
 20
-119.252
 11
-2.5625
 21
-121.389
  0
LINE
  8
0
 10
-2.5625
 20
-121.389
 11
-1.1875
 21
-121.389
  0
LINE
  8
0
 10
-1.1875
 20
-121.389
 11
-1.1875
 21
-126.515
  0
LINE
  8
0
 10
-1.1875
 20
-126.515
 11
-2.5625
 21
-126.515
  0
LINE
  8
0
 10
-2.5625
 20
-126.515
 11
-2.5625
 21
-128.652
  0
LINE
  8
0
 10
-2.5625
 20
-128.652
 11
-7.9375
 21
-128.652
  0
LINE
  8
0
 10
-7.9375
 20
-128.652
 11
-7.9375
 21
-126.515
  0
LINE
  8
0
 10
-7.9375
 20
-126.515
 11
-15
 21
-126.515
  0
LINE
  8
0
 10
-15
 20
-126.515
 11
-15
 21
-131.452
  0
LINE
  8
0
 10
-15
 20
-131.452
 11
-19.875
 21
-131.452
  0
LINE
  8
0
 10
-19.875
 20
-131.452
 11
-21.5
 21
-133.077
  0
LINE
  8
0
 10
-21.5
 20
-133.077
 11
-21.5
 21
-134.784
  0
LINE
  8
0
 10
-21.5
 20
-134.784
 11
-28
 21
-134.784
  0
LINE
  8
0
 10
-28
 20
-134.784
 11
-39.2391
 21
-136.662
  0
LINE
  8
0
 10
-39.2391
 20
-136.662
 11
-39.7305
 21
-136.753
  0
LINE
  8
0
 10
-39.7305
 20
-136.753
 11
-40.2181
 21
-136.863
  0
LINE
  8
0
 10
-40.2181
 20
-136.863
 11
-40.7013
 21
-136.991
  0
LINE
  8
0
 10
-40.7013
 20
-136.991
 11
-41.1794
 21
-137.137
  0
LINE
  8
0
 10
-41.1794
 20
-137.137
 11
-41.6519
 21
-137.3
  0
LINE
  8
0
 10
-41.6519
 20
-137.3
 11
-42.118
 21
-137.481
  0
LINE
  8
0
 10
-42.118
 20
-137.481
 11
-42.5771
 21
-137.678
  0
LINE
  8
0
 10
-42.5771
 20
-137.678
 11
-43.0286
 21
-137.893
  0
LINE
  8
0
 10
-43.0286
 20
-137.893
 11
-43.4719
 21
-138.124
  0
LINE
  8
0
 10
-43.4719
 20
-138.124
 11
-43.9063
 21
-138.371
  0
LINE
  8
0
 10
-43.9063
 20
-138.371
 11
-44.3313
 21
-138.634
  0
LINE
  8
0
 10
-44.3313
 20
-138.634
 11
-44.7462
 21
-138.913
  0
LINE
  8
0
 10
-44.7462
 20
-138.913
 11
-45.1506
 21
-139.207
  0
LINE
  8
0
 10
-45.1506
 20
-139.207
 11
-45.5439
 21
-139.515
  0
LINE
  8
0
 10
-45.5439
 20
-139.515
 11
-45.9255
 21
-139.838
  0
LINE
  8
0
 10
-45.9255
 20
-139.838
 11
-46.2949
 21
-140.175
  0
LINE
  8
0
 10
-46.2949
 20
-140.175
 11
-46.6516
 21
-140.525
  0
LINE
  8
0
 10
-46.6516
 20
-140.525
 11
-46.9951
 21
-140.888
  0
LINE
  8
0
 10
-46.9951
 20
-140.888
 11
-47.325
 21
-141.264
  0
LINE
  8
0
 10
-47.325
 20
-141.264
 11
-47.6407
 21
-141.651
  0
LINE
  8
0
 10
-47.6407
 20
-141.651
 11
-47.942
 21
-142.05
  0
LINE
  8
0
 10
-47.942
 20
-142.05
 11
-48.2282
 21
-142.46
  0
LINE
  8
0
 10
-48.2282
 20
-142.46
 11
-48.4992
 21
-142.88
  0
LINE
  8
0
 10
-48.4992
 20
-142.88
 11
-48.7544
 21
-143.31
  0
LINE
  8
0
 10
-48.7544
 20
-143.31
 11
-48.9936
 21
-143.749
  0
LINE
  8
0
 10
-48.9936
 20
-143.749
 11
-49.2164
 21
-144.196
  0
LINE
  8
0
 10
-49.2164
 20
-144.196
 11
-49.4225
 21
-144.652
  0
LINE
  8
0
 10
-49.4225
 20
-144.652
 11
-49.6117
 21
-145.114
  0
LINE
  8
0
 10
-49.6117
 20
-145.114
 11
-49.7836
 21
-145.584
  0
LINE
  8
0
 10
-49.7836
 20
-145.584
 11
-49.9381
 21
-146.059
  0
LINE
  8
0
 10
-49.9381
 20
-146.059
 11
-50.0749
 21
-146.54
  0
LINE
  8
0
 10
-50.0749
 20
-146.54
 11
-50.1938
 21
-147.025
  0
LINE
  8
0
 10
-50.1938
 20
-147.025
 11
-50.2947
 21
-147.515
  0
LINE
  8
0
 10
-50.2947
 20
-147.515
 11
-50.3775
 21
-148.008
  0
LINE
  8
0
 10
-50.3775
 20
-148.008
 11
-50.4419
 21
-148.503
  0
LINE
  8
0
 10
-50.4419
 20
-148.503
 11
-50.4881
 21
-149.001
  0
LINE
  8
0
 10
-50.4881
 20
-149.001
 11
-50.5158
 21
-149.5
  0
LINE
  8
0
 10
-50.5158
 20
-149.5
 11
-50.525
 21
-150
  0
LINE
  8
0
 10
-50.525
 20
-150
 11
-50.5158
 21
-150.5
  0
LINE
  8
0
 10
-50.5158
 20
-150.5
 11
-50.4881
 21
-150.999
  0
LINE
  8
0
 10
-50.4881
 20
-150.999
 11
-50.4419
 21
-151.497
  0
LINE
  8
0
 10
-50.4419
 20
-151.497
 11
-50.3775
 21
-151.992
  0
LINE
  8
0
 10
-50.3775
 20
-151.992
 11
-50.2947
 21
-152.485
  0
LINE
  8
0
 10
-50.2947
 20
-152.485
 11
-50.1938
 21
-152.975
  0
LINE
  8
0
 10
-50.1938
 20
-152.975
 11
-50.0749
 21
-153.46
  0
LINE
  8
0
 10
-50.0749
 20
-153.46
 11
-49.9381
 21
-153.941
  0
LINE
  8
0
 10
-49.9381
 20
-153.941
 11
-49.7836
 21
-154.416
  0
LINE
  8
0
 10
-49.7836
 20
-154.416
 11
-49.6117
 21
-154.886
  0
LINE
  8
0
 10
-49.6117
 20
-154.886
 11
-49.4225
 21
-155.348
  0
LINE
  8
0
 10
-49.4225
 20
-155.348
 11
-49.2164
 21
-155.804
  0
LINE
  8
0
 10
-49.2164
 20
-155.804
 11
-48.9936
 21
-156.251
  0
LINE
  8
0
 10
-48.9936
 20
-156.251
 11
-48.7544
 21
-156.69
  0
LINE
  8
0
 10
-48.7544
 20
-156.69
 11
-48.4992
 21
-157.12
  0
LINE
  8
0
 10
-48.4992
 20
-157.12
 11
-48.2282
 21
-157.54
  0
LINE
  8
0
 10
-48.2282
 20
-157.54
 11
-47.942
 21
-157.95
  0
LINE
  8
0
 10
-47.942
 20
-157.95
 11
-47.6407
 21
-158.349
  0
LINE
  8
0
 10
-47.6407
 20
-158.349
 11
-47.325
 21
-158.736
  0
LINE
  8
0
 10
-47.325
 20
-158.736
 11
-46.9951
 21
-159.112
  0
LINE
  8
0
 10
-46.9951
 20
-159.112
 11
-46.6516
 21
-159.475
  0
LINE
  8
0
 10
-46.6516
 20
-159.475
 11
-46.2949
 21
-159.825
  0
LINE
  8
0
 10
-46.2949
 20
-159.825
 11
-45.9255
 21
-160.162
  0
LINE
  8
0
 10
-45.9255
 20
-160.162
 11
-45.5439
 21
-160.485
  0
LINE
  8
0
 10
-45.5439
 20
-160.485
 11
-45.1506
 21
-160.793
  0
LINE
  8
0
 10
-45.1506
 20
-160.793
 11
-44.7462
 21
-161.087
  0
LINE
  8
0
 10
-44.7462
 20
-161.087
 11
-44.3313
 21
-161.366
  0
LINE
  8
0
 10
-44.3313
 20
-161.366
 11
-43.9063
 21
-161.629
  0
LINE
  8
0
 10
-43.9063
 20
-161.629
 11
-43.4719
 21
-161.876
  0
LINE
  8
0
 10
-43.4719
 20
-161.876
 11
-43.0286
 21
-162.107
  0
LINE
  8
0
 10
-43.0286
 20
-162.107
 11
-42.5771
 21
-162.322
  0
LINE
  8
0
 10
-42.5771
 20
-162.322
 11
-42.118
 21
-162.519
  0
LINE
  8
0
 10
-42.118
 20
-162.519
 11
-41.6519
 21
-162.7
  0
LINE
  8
0
 10
-41.6519
 20
-162.7
 11
-41.1794
 21
-162.863
  0
LINE
  8
0
 10
-41.1794
 20
-162.863
 11
-40.7013
 21
-163.009
  0
LINE
  8
0
 10
-40.7013
 20
-163.009
 11
-40.2181
 21
-163.137
  0
LINE
  8
0
 10
-40.2181
 20
-163.137
 11
-39.7305
 21
-163.247
  0
LINE
  8
0
 10
-39.7305
 20
-163.247
 11
-39.2391
 21
-163.338
  0
LINE
  8
0
 10
-39.2391
 20
-163.338
 11
-28
 21
-165.216
  0
LINE
  8
0
 10
-28
 20
-165.216
 11
-2
 21
-165.216
  0
LINE
  8
0
 10
-2
 20
-165.216
 11
-2
 21
-152.4
  0
LINE
  8
0
 10
-42.3185
 20
156.642
 11
-42.7486
 21
156.864
  0
LINE
  8
0
 10
-42.7486
 20
156.864
 11
-43.0988
 21
157.198
  0
LINE
  8
0
 10
-43.0988
 20
157.198
 11
-43.3407
 21
157.617
  0
LINE
  8
0
 10
-43.3407
 20
157.617
 11
-43.4548
 21
158.087
  0
LINE
  8
0
 10
-43.4548
 20
158.087
 11
-43.4318
 21
158.571
  0
LINE
  8
0
 10
-43.4318
 20
158.571
 11
-43.2735
 21
159.028
  0
LINE
  8
0
 10
-43.2735
 20
159.028
 11
-42.9928
 21
159.422
  0
LINE
  8
0
 10
-42.9928
 20
159.422
 11
-42.6125
 21
159.721
  0
LINE
  8
0
 10
-42.6125
 20
159.721
 11
-42.1633
 21
159.901
  0
LINE
  8
0
 10
-42.1633
 20
159.901
 11
-41.6816
 21
159.947
  0
LINE
  8
0
 10
-41.6816
 20
159.947
 11
-41.2065
 21
159.855
  0
LINE
  8
0
 10
-41.2065
 20
159.855
 11
-40.7764
 21
159.634
  0
LINE
  8
0
 10
-40.7764
 20
159.634
 11
-40.4262
 21
159.3
  0
LINE
  8
0
 10
-40.4262
 20
159.3
 11
-40.1843
 21
158.881
  0
LINE
  8
0
 10
-40.1843
 20
158.881
 11
-40.0702
 21
158.41
  0
LINE
  8
0
 10
-40.0702
 20
158.41
 11
-40.0932
 21
157.927
  0
LINE
  8
0
 10
-40.0932
 20
157.927
 11
-40.2515
 21
157.47
  0
LINE
  8
0
 10
-40.2515
 20
157.47
 11
-40.5322
 21
157.076
  0
LINE
  8
0
 10
-40.5322
 20
157.076
 11
-40.9125
 21
156.777
  0
LINE
  8
0
 10
-40.9125
 20
156.777
 11
-41.3617
 21
156.597
  0
LINE
  8
0
 10
-41.3617
 20
156.597
 11
-41.8434
 21
156.551
  0
LINE
  8
0
 10
-41.8434
 20
156.551
 11
-42.3185
 21
156.642
  0
LINE
  8
0
 10
-37.4994
 20
143.018
 11
-37.9962
 21
143.071
  0
LINE
  8
0
 10
-37.9962
 20
143.071
 11
-38.4879
 21
143.16
  0
LINE
  8
0
 10
-38.4879
 20
143.16
 11
-38.9721
 21
143.284
  0
LINE
  8
0
 10
-38.9721
 20
143.284
 11
-39.4462
 21
143.441
  0
LINE
  8
0
 10
-39.4462
 20
143.441
 11
-39.9079
 21
143.633
  0
LINE
  8
0
 10
-39.9079
 20
143.633
 11
-40.3547
 21
143.856
  0
LINE
  8
0
 10
-40.3547
 20
143.856
 11
-40.7845
 21
144.111
  0
LINE
  8
0
 10
-40.7845
 20
144.111
 11
-41.1949
 21
144.396
  0
LINE
  8
0
 10
-41.1949
 20
144.396
 11
-41.584
 21
144.71
  0
LINE
  8
0
 10
-41.584
 20
144.71
 11
-41.9497
 21
145.05
  0
LINE
  8
0
 10
-41.9497
 20
145.05
 11
-42.2902
 21
145.416
  0
LINE
  8
0
 10
-42.2902
 20
145.416
 11
-42.6038
 21
145.805
  0
LINE
  8
0
 10
-42.6038
 20
145.805
 11
-42.8888
 21
146.216
  0
LINE
  8
0
 10
-42.8888
 20
146.216
 11
-43.1438
 21
146.645
  0
LINE
  8
0
 10
-43.1438
 20
146.645
 11
-43.3674
 21
147.092
  0
LINE
  8
0
 10
-43.3674
 20
147.092
 11
-43.5586
 21
147.554
  0
LINE
  8
0
 10
-43.5586
 20
147.554
 11
-43.7164
 21
148.028
  0
LINE
  8
0
 10
-43.7164
 20
148.028
 11
-43.84
 21
148.512
  0
LINE
  8
0
 10
-43.84
 20
148.512
 11
-43.9287
 21
149.004
  0
LINE
  8
0
 10
-43.9287
 20
149.004
 11
-43.9822
 21
149.501
  0
LINE
  8
0
 10
-43.9822
 20
149.501
 11
-44
 21
150
  0
LINE
  8
0
 10
-44
 20
150
 11
-43.9822
 21
150.499
  0
LINE
  8
0
 10
-43.9822
 20
150.499
 11
-43.9287
 21
150.996
  0
LINE
  8
0
 10
-43.9287
 20
150.996
 11
-43.84
 21
151.488
  0
LINE
  8
0
 10
-43.84
 20
151.488
 11
-43.7164
 21
151.972
  0
LINE
  8
0
 10
-43.7164
 20
151.972
 11
-43.5586
 21
152.446
  0
LINE
  8
0
 10
-43.5586
 20
152.446
 11
-43.3674
 21
152.908
  0
LINE
  8
0
 10
-43.3674
 20
152.908
 11
-43.1438
 21
153.355
  0
LINE
  8
0
 10
-43.1438
 20
153.355
 11
-42.8888
 21
153.784
  0
LINE
  8
0
 10
-42.8888
 20
153.784
 11
-42.6038
 21
154.195
  0
LINE
  8
0
 10
-42.6038
 20
154.195
 11
-42.2902
 21
154.584
  0
LINE
  8
0
 10
-42.2902
 20
154.584
 11
-41.9497
 21
154.95
  0
LINE
  8
0
 10
-41.9497
 20
154.95
 11
-41.584
 21
155.29
  0
LINE
  8
0
 10
-41.584
 20
155.29
 11
-41.1949
 21
155.604
  0
LINE
  8
0
 10
-41.1949
 20
155.604
 11
-40.7845
 21
155.889
  0
LINE
  8
0
 10
-40.7845
 20
155.889
 11
-40.3547
 21
156.144
  0
LINE
  8
0
 10
-40.3547
 20
156.144
 11
-39.9079
 21
156.367
  0
LINE
  8
0
 10
-39.9079
 20
156.367
 11
-39.4462
 21
156.559
  0
LINE
  8
0
 10
-39.4462
 20
156.559
 11
-38.9721
 21
156.716
  0
LINE
  8
0
 10
-38.9721
 20
156.716
 11
-38.4879
 21
156.84
  0
LINE
  8
0
 10
-38.4879
 20
156.84
 11
-37.9962
 21
156.929
  0
LINE
  8
0
 10
-37.9962
 20
156.929
 11
-37.4994
 21
156.982
  0
LINE
  8
0
 10
-37.4994
 20
156.982
 11
-37
 21
157
  0
LINE
  8
0
 10
-37
 20
157
 11
-36.5006
 21
156.982
  0
LINE
  8
0
 10
-36.5006
 20
156.982
 11
-36.0038
 21
156.929
  0
LINE
  8
0
 10
-36.0038
 20
156.929
 11
-35.512
 21
156.84
  0
LINE
  8
0
 10
-35.512
 20
156.84
 11
-35.0279
 21
156.716
  0
LINE
  8
0
 10
-35.0279
 20
156.716
 11
-34.5537
 21
156.559
  0
LINE
  8
0
 10
-34.5537
 20
156.559
 11
-34.0921
 21
156.367
  0
LINE
  8
0
 10
-34.0921
 20
156.367
 11
-33.6452
 21
156.144
  0
LINE
  8
0
 10
-33.6452
 20
156.144
 11
-33.2155
 21
155.889
  0
LINE
  8
0
 10
-33.2155
 20
155.889
 11
-32.8051
 21
155.604
  0
LINE
  8
0
 10
-32.8051
 20
155.604
 11
-32.416
 21
155.29
  0
LINE
  8
0
 10
-32.416
 20
155.29
 11
-32.0502
 21
154.95
  0
LINE
  8
0
 10
-32.0502
 20
154.95
 11
-31.7097
 21
154.584
  0
LINE
  8
0
 10
-31.7097
 20
154.584
 11
-31.3962
 21
154.195
  0
LINE
  8
0
 10
-31.3962
 20
154.195
 11
-31.1112
 21
153.784
  0
LINE
  8
0
 10
-31.1112
 20
153.784
 11
-30.8562
 21
153.355
  0
LINE
  8
0
 10
-30.8562
 20
153.355
 11
-30.6326
 21
152.908
  0
LINE
  8
0
 10
-30.6326
 20
152.908
 11
-30.4413
 21
152.446
  0
LINE
  8
0
 10
-30.4413
 20
152.446
 11
-30.2835
 21
151.972
  0
LINE
  8
0
 10
-30.2835
 20
151.972
 11
-30.16
 21
151.488
  0
LINE
  8
0
 10
-30.16
 20
151.488
 11
-30.0712
 21
150.996
  0
LINE
  8
0
 10
-30.0712
 20
150.996
 11
-30.0178
 21
150.499
  0
LINE
  8
0
 10
-30.0178
 20
150.499
 11
-30
 21
150
  0
LINE
  8
0
 10
-30
 20
150
 11
-30.0178
 21
149.501
  0
LINE
  8
0
 10
-30.0178
 20
149.501
 11
-30.0712
 21
149.004
  0
LINE
  8
0
 10
-30.0712
 20
149.004
 11
-30.16
 21
148.512
  0
LINE
  8
0
 10
-30.16
 20
148.512
 11
-30.2835
 21
148.028
  0
LINE
  8
0
 10
-30.2835
 20
148.028
 11
-30.4413
 21
147.554
  0
LINE
  8
0
 10
-30.4413
 20
147.554
 11
-30.6326
 21
147.092
  0
LINE
  8
0
 10
-30.6326
 20
147.092
 11
-30.8562
 21
146.645
  0
LINE
  8
0
 10
-30.8562
 20
146.645
 11
-31.1112
 21
146.216
  0
LINE
  8
0
 10
-31.1112
 20
146.216
 11
-31.3962
 21
145.805
  0
LINE
  8
0
 10
-31.3962
 20
145.805
 11
-31.7097
 21
145.416
  0
LINE
  8
0
 10
-31.7097
 20
145.416
 11
-32.0502
 21
145.05
  0
LINE
  8
0
 10
-32.0502
 20
145.05
 11
-32.416
 21
144.71
  0
LINE
  8
0
 10
-32.416
 20
144.71
 11
-32.8051
 21
144.396
  0
LINE
  8
0
 10
-32.8051
 20
144.396
 11
-33.2155
 21
144.111
  0
LINE
  8
0
 10
-33.2155
 20
144.111
 11
-33.6452
 21
143.856
  0
LINE
  8
0
 10
-33.6452
 20
143.856
 11
-34.0921
 21
143.633
  0
LINE
  8
0
 10
-34.0921
 20
143.633
 11
-34.5537
 21
143.441
  0
LINE
  8
0
 10
-34.5537
 20
143.441
 11
-35.0279
 21
143.284
  0
LINE
  8
0
 10
-35.0279
 20
143.284
 11
-35.512
 21
143.16
  0
LINE
  8
0
 10
-35.512
 20
143.16
 11
-36.0038
 21
143.071
  0
LINE
  8
0
 10
-36.0038
 20
143.071
 11
-36.5006
 21
143.018
  0
LINE
  8
0
 10
-36.5006
 20
143.018
 11
-37
 21
143
  0
LINE
  8
0
 10
-37
 20
143
 11
-37.4994
 21
143.018
  0
LINE
  8
0
 10
-27.7169
 20
148.317
 11
-28.1812
 21
148.454
  0
LINE
  8
0
 10
-28.1812
 20
148.454
 11
-28.5883
 21
148.715
  0
LINE
  8
0
 10
-28.5883
 20
148.715
 11
-28.9051
 21
149.081
  0
LINE
  8
0
 10
-28.9051
 20
149.081
 11
-29.1061
 21
149.521
  0
LINE
  8
0
 10
-29.1061
 20
149.521
 11
-29.175
 21
150
  0
LINE
  8
0
 10
-29.175
 20
150
 11
-29.1061
 21
150.479
  0
LINE
  8
0
 10
-29.1061
 20
150.479
 11
-28.9051
 21
150.919
  0
LINE
  8
0
 10
-28.9051
 20
150.919
 11
-28.5883
 21
151.285
  0
LINE
  8
0
 10
-28.5883
 20
151.285
 11
-28.1812
 21
151.546
  0
LINE
  8
0
 10
-28.1812
 20
151.546
 11
-27.7169
 21
151.683
  0
LINE
  8
0
 10
-27.7169
 20
151.683
 11
-27.2331
 21
151.683
  0
LINE
  8
0
 10
-27.2331
 20
151.683
 11
-26.7688
 21
151.546
  0
LINE
  8
0
 10
-26.7688
 20
151.546
 11
-26.3617
 21
151.285
  0
LINE
  8
0
 10
-26.3617
 20
151.285
 11
-26.0449
 21
150.919
  0
LINE
  8
0
 10
-26.0449
 20
150.919
 11
-25.8439
 21
150.479
  0
LINE
  8
0
 10
-25.8439
 20
150.479
 11
-25.775
 21
150
  0
LINE
  8
0
 10
-25.775
 20
150
 11
-25.8439
 21
149.521
  0
LINE
  8
0
 10
-25.8439
 20
149.521
 11
-26.0449
 21
149.081
  0
LINE
  8
0
 10
-26.0449
 20
149.081
 11
-26.3617
 21
148.715
  0
LINE
  8
0
 10
-26.3617
 20
148.715
 11
-26.7688
 21
148.454
  0
LINE
  8
0
 10
-26.7688
 20
148.454
 11
-27.2331
 21
148.317
  0
LINE
  8
0
 10
-27.2331
 20
148.317
 11
-27.7169
 21
148.317
  0
LINE
  8
0
 10
-10.2491
 20
139.712
 11
-10.7389
 21
139.803
  0
LINE
  8
0
 10
-10.7389
 20
139.803
 11
-11.2035
 21
139.983
  0
LINE
  8
0
 10
-11.2035
 20
139.983
 11
-11.6271
 21
140.245
  0
LINE
  8
0
 10
-11.6271
 20
140.245
 11
-11.9953
 21
140.581
  0
LINE
  8
0
 10
-11.9953
 20
140.581
 11
-12.2956
 21
140.979
  0
LINE
  8
0
 10
-12.2956
 20
140.979
 11
-12.5177
 21
141.425
  0
LINE
  8
0
 10
-12.5177
 20
141.425
 11
-12.654
 21
141.904
  0
LINE
  8
0
 10
-12.654
 20
141.904
 11
-12.7
 21
142.4
  0
LINE
  8
0
 10
-12.7
 20
142.4
 11
-12.654
 21
142.896
  0
LINE
  8
0
 10
-12.654
 20
142.896
 11
-12.5177
 21
143.375
  0
LINE
  8
0
 10
-12.5177
 20
143.375
 11
-12.2956
 21
143.821
  0
LINE
  8
0
 10
-12.2956
 20
143.821
 11
-11.9953
 21
144.219
  0
LINE
  8
0
 10
-11.9953
 20
144.219
 11
-11.6271
 21
144.555
  0
LINE
  8
0
 10
-11.6271
 20
144.555
 11
-11.2035
 21
144.817
  0
LINE
  8
0
 10
-11.2035
 20
144.817
 11
-10.7389
 21
144.997
  0
LINE
  8
0
 10
-10.7389
 20
144.997
 11
-10.2491
 21
145.088
  0
LINE
  8
0
 10
-10.2491
 20
145.088
 11
-9.75087
 21
145.088
  0
LINE
  8
0
 10
-9.75087
 20
145.088
 11
-9.26111
 21
144.997
  0
LINE
  8
0
 10
-9.26111
 20
144.997
 11
-8.79649
 21
144.817
  0
LINE
  8
0
 10
-8.79649
 20
144.817
 11
-8.37288
 21
144.555
  0
LINE
  8
0
 10
-8.37288
 20
144.555
 11
-8.00467
 21
144.219
  0
LINE
  8
0
 10
-8.00467
 20
144.219
 11
-7.70441
 21
143.821
  0
LINE
  8
0
 10
-7.70441
 20
143.821
 11
-7.48232
 21
143.375
  0
LINE
  8
0
 10
-7.48232
 20
143.375
 11
-7.34596
 21
142.896
  0
LINE
  8
0
 10
-7.34596
 20
142.896
 11
-7.29999
 21
142.4
  0
LINE
  8
0
 10
-7.29999
 20
142.4
 11
-7.34596
 21
141.904
  0
LINE
  8
0
 10
-7.34596
 20
141.904
 11
-7.48232
 21
141.425
  0
LINE
  8
0
 10
-7.48232
 20
141.425
 11
-7.70441
 21
140.979
  0
LINE
  8
0
 10
-7.70441
 20
140.979
 11
-8.00467
 21
140.581
  0
LINE
  8
0
 10
-8.00467
 20
140.581
 11
-8.37288
 21
140.245
  0
LINE
  8
0
 10
-8.37288
 20
140.245
 11
-8.79649
 21
139.983
  0
LINE
  8
0
 10
-8.79649
 20
139.983
 11
-9.26111
 21
139.803
  0
LINE
  8
0
 10
-9.26111
 20
139.803
 11
-9.75087
 21
139.712
  0
LINE
  8
0
 10
-9.75087
 20
139.712
 11
-10.2491
 21
139.712
  0
LINE
  8
0
 10
9.75087
 20
139.712
 11
9.26111
 21
139.803
  0
LINE
  8
0
 10
9.26111
 20
139.803
 11
8.79649
 21
139.983
  0
LINE
  8
0
 10
8.79649
 20
139.983
 11
8.37288
 21
140.245
  0
LINE
  8
0
 10
8.37288
 20
140.245
 11
8.00467
 21
140.581
  0
LINE
  8
0
 10
8.00467
 20
140.581
 11
7.70441
 21
140.979
  0
LINE
  8
0
 10
7.70441
 20
140.979
 11
7.48232
 21
141.425
  0
LINE
  8
0
 10
7.48232
 20
141.425
 11
7.34596
 21
141.904
  0
LINE
  8
0
 10
7.34596
 20
141.904
 11
7.29999
 21
142.4
  0
LINE
  8
0
 10
7.29999
 20
142.4
 11
7.34596
 21
142.896
  0
LINE
  8
0
 10
7.34596
 20
142.896
 11
7.48232
 21
143.375
  0
LINE
  8
0
 10
7.48232
 20
143.375
 11
7.70441
 21
143.821
  0
LINE
  8
0
 10
7.70441
 20
143.821
 11
8.00467
 21
144.219
  0
LINE
  8
0
 10
8.00467
 20
144.219
 11
8.37288
 21
144.555
  0
LINE
  8
0
 10
8.37288
 20
144.555
 11
8.79649
 21
144.817
  0
LINE
  8
0
 10
8.79649
 20
144.817
 11
9.26111
 21
144.997
  0
LINE
  8
0
 10
9.26111
 20
144.997
 11
9.75087
 21
145.088
  0
LINE
  8
0
 10
9.75087
 20
145.088
 11
10.2491
 21
145.088
  0
LINE
  8
0
 10
10.2491
 20
145.088
 11
10.7389
 21
144.997
  0
LINE
  8
0
 10
10.7389
 20
144.997
 11
11.2035
 21
144.817
  0
LINE
  8
0
 10
11.2035
 20
144.817
 11
11.6271
 21
144.555
  0
LINE
  8
0
 10
11.6271
 20
144.555
 11
11.9953
 21
144.219
  0
LINE
  8
0
 10
11.9953
 20
144.219
 11
12.2956
 21
143.821
  0
LINE
  8
0
 10
12.2956
 20
143.821
 11
12.5177
 21
143.375
  0
LINE
  8
0
 10
12.5177
 20
143.375
 11
12.654
 21
142.896
  0
LINE
  8
0
 10
12.654
 20
142.896
 11
12.7
 21
142.4
  0
LINE
  8
0
 10
12.7
 20
142.4
 11
12.654
 21
141.904
  0
LINE
  8
0
 10
12.654
 20
141.904
 11
12.5177
 21
141.425
  0
LINE
  8
0
 10
12.5177
 20
141.425
 11
12.2956
 21
140.979
  0
LINE
  8
0
 10
12.2956
 20
140.979
 11
11.9953
 21
140.581
  0
LINE
  8
0
 10
11.9953
 20
140.581
 11
11.6271
 21
140.245
  0
LINE
  8
0
 10
11.6271
 20
140.245
 11
11.2035
 21
139.983
  0
LINE
  8
0
 10
11.2035
 20
139.983
 11
10.7389
 21
139.803
  0
LINE
  8
0
 10
10.7389
 20
139.803
 11
10.2491
 21
139.712
  0
LINE
  8
0
 10
10.2491
 20
139.712
 11
9.75087
 21
139.712
  0
LINE
  8
0
 10
-42.1633
 20
140.099
 11
-42.6125
 21
140.279
  0
LINE
  8
0
 10
-42.6125
 20
140.279
 11
-42.9928
 21
140.578
  0
LINE
  8
0
 10
-42.9928
 20
140.578
 11
-43.2735
 21
140.972
  0
LINE
  8
0
 10
-43.2735
 20
140.972
 11
-43.4318
 21
141.429
  0
LINE
  8
0
 10
-43.4318
 20
141.429
 11
-43.4548
 21
141.913
  0
LINE
  8
0
 10
-43.4548
 20
141.913
 11
-43.3407
 21
142.383
  0
LINE
  8
0
 10
-43.3407
 20
142.383
 11
-43.0988
 21
142.802
  0
LINE
  8
0
 10
-43.0988
 20
142.802
 11
-42.7486
 21
143.136
  0
LINE
  8
0
 10
-42.7486
 20
143.136
 11
-42.3185
 21
143.358
  0
LINE
  8
0
 10
-42.3185
 20
143.358
 11
-41.8434
 21
143.449
  0
LINE
  8
0
 10
-41.8434
 20
143.449
 11
-41.3617
 21
143.403
  0
LINE
  8
0
 10
-41.3617
 20
143.403
 11
-40.9125
 21
143.223
  0
LINE
  8
0
 10
-40.9125
 20
143.223
 11
-40.5322
 21
142.924
  0
LINE
  8
0
 10
-40.5322
 20
142.924
 11
-40.2515
 21
142.53
  0
LINE
  8
0
 10
-40.2515
 20
142.53
 11
-40.0932
 21
142.073
  0
LINE
  8
0
 10
-40.0932
 20
142.073
 11
-40.0702
 21
141.59
  0
LINE
  8
0
 10
-40.0702
 20
141.59
 11
-40.1843
 21
141.119
  0
LINE
  8
0
 10
-40.1843
 20
141.119
 11
-40.4262
 21
140.7
  0
LINE
  8
0
 10
-40.4262
 20
140.7
 11
-40.7764
 21
140.366
  0
LINE
  8
0
 10
-40.7764
 20
140.366
 11
-41.2065
 21
140.145
  0
LINE
  8
0
 10
-41.2065
 20
140.145
 11
-41.6816
 21
140.053
  0
LINE
  8
0
 10
-41.6816
 20
140.053
 11
-42.1633
 21
140.099
  0
LINE
  8
0
 10
-47.2419
 20
106.317
 11
-47.7062
 21
106.454
  0
LINE
  8
0
 10
-47.7062
 20
106.454
 11
-48.1133
 21
106.715
  0
LINE
  8
0
 10
-48.1133
 20
106.715
 11
-48.4301
 21
107.081
  0
LINE
  8
0
 10
-48.4301
 20
107.081
 11
-48.6311
 21
107.521
  0
LINE
  8
0
 10
-48.6311
 20
107.521
 11
-48.7
 21
108
  0
LINE
  8
0
 10
-48.7
 20
108
 11
-48.6311
 21
108.479
  0
LINE
  8
0
 10
-48.6311
 20
108.479
 11
-48.4301
 21
108.919
  0
LINE
  8
0
 10
-48.4301
 20
108.919
 11
-48.1133
 21
109.285
  0
LINE
  8
0
 10
-48.1133
 20
109.285
 11
-47.7062
 21
109.546
  0
LINE
  8
0
 10
-47.7062
 20
109.546
 11
-47.2419
 21
109.683
  0
LINE
  8
0
 10
-47.2419
 20
109.683
 11
-46.7581
 21
109.683
  0
LINE
  8
0
 10
-46.7581
 20
109.683
 11
-46.2938
 21
109.546
  0
LINE
  8
0
 10
-46.2938
 20
109.546
 11
-45.8867
 21
109.285
  0
LINE
  8
0
 10
-45.8867
 20
109.285
 11
-45.5699
 21
108.919
  0
LINE
  8
0
 10
-45.5699
 20
108.919
 11
-45.3689
 21
108.479
  0
LINE
  8
0
 10
-45.3689
 20
108.479
 11
-45.3
 21
108
  0
LINE
  8
0
 10
-45.3
 20
108
 11
-45.3689
 21
107.521
  0
LINE
  8
0
 10
-45.3689
 20
107.521
 11
-45.5699
 21
107.081
  0
LINE
  8
0
 10
-45.5699
 20
107.081
 11
-45.8867
 21
106.715
  0
LINE
  8
0
 10
-45.8867
 20
106.715
 11
-46.2938
 21
106.454
  0
LINE
  8
0
 10
-46.2938
 20
106.454
 11
-46.7581
 21
106.317
  0
LINE
  8
0
 10
-46.7581
 20
106.317
 11
-47.2419
 21
106.317
  0
LINE
  8
0
 10
-27.2419
 20
106.317
 11
-27.7062
 21
106.454
  0
LINE
  8
0
 10
-27.7062
 20
106.454
 11
-28.1133
 21
106.715
  0
LINE
  8
0
 10
-28.1133
 20
106.715
 11
-28.4301
 21
107.081
  0
LINE
  8
0
 10
-28.4301
 20
107.081
 11
-28.6311
 21
107.521
  0
LINE
  8
0
 10
-28.6311
 20
107.521
 11
-28.7
 21
108
  0
LINE
  8
0
 10
-28.7
 20
108
 11
-28.6311
 21
108.479
  0
LINE
  8
0
 10
-28.6311
 20
108.479
 11
-28.4301
 21
108.919
  0
LINE
  8
0
 10
-28.4301
 20
108.919
 11
-28.1133
 21
109.285
  0
LINE
  8
0
 10
-28.1133
 20
109.285
 11
-27.7062
 21
109.546
  0
LINE
  8
0
 10
-27.7062
 20
109.546
 11
-27.2419
 21
109.683
  0
LINE
  8
0
 10
-27.2419
 20
109.683
 11
-26.7581
 21
109.683
  0
LINE
  8
0
 10
-26.7581
 20
109.683
 11
-26.2938
 21
109.546
  0
LINE
  8
0
 10
-26.2938
 20
109.546
 11
-25.8867
 21
109.285
  0
LINE
  8
0
 10
-25.8867
 20
109.285
 11
-25.5699
 21
108.919
  0
LINE
  8
0
 10
-25.5699
 20
108.919
 11
-25.3689
 21
108.479
  0
LINE
  8
0
 10
-25.3689
 20
108.479
 11
-25.3
 21
108
  0
LINE
  8
0
 10
-25.3
 20
108
 11
-25.3689
 21
107.521
  0
LINE
  8
0
 10
-25.3689
 20
107.521
 11
-25.5699
 21
107.081
  0
LINE
  8
0
 10
-25.5699
 20
107.081
 11
-25.8867
 21
106.715
  0
LINE
  8
0
 10
-25.8867
 20
106.715
 11
-26.2938
 21
106.454
  0
LINE
  8
0
 10
-26.2938
 20
106.454
 11
-26.7581
 21
106.317
  0
LINE
  8
0
 10
-26.7581
 20
106.317
 11
-27.2419
 21
106.317
  0
LINE
  8
0
 10
-37.2498
 20
88.3032
 11
-37.7486
 21
88.3289
  0
LINE
  8
0
 10
-37.7486
 20
88.3289
 11
-38.2455
 21
88.3803
  0
LINE
  8
0
 10
-38.2455
 20
88.3803
 11
-38.739
 21
88.4572
  0
LINE
  8
0
 10
-38.739
 20
88.4572
 11
-39.228
 21
88.5593
  0
LINE
  8
0
 10
-39.228
 20
88.5593
 11
-39.711
 21
88.6865
  0
LINE
  8
0
 10
-39.711
 20
88.6865
 11
-40.1869
 21
88.8385
  0
LINE
  8
0
 10
-40.1869
 20
88.8385
 11
-40.6543
 21
89.0146
  0
LINE
  8
0
 10
-40.6543
 20
89.0146
 11
-41.112
 21
89.2147
  0
LINE
  8
0
 10
-41.112
 20
89.2147
 11
-41.5588
 21
89.438
  0
LINE
  8
0
 10
-41.5588
 20
89.438
 11
-41.9935
 21
89.6841
  0
LINE
  8
0
 10
-41.9935
 20
89.6841
 11
-42.415
 21
89.9521
  0
LINE
  8
0
 10
-42.415
 20
89.9521
 11
-42.8221
 21
90.2416
  0
LINE
  8
0
 10
-42.8221
 20
90.2416
 11
-43.2137
 21
90.5516
  0
LINE
  8
0
 10
-43.2137
 20
90.5516
 11
-43.5889
 21
90.8813
  0
LINE
  8
0
 10
-43.5889
 20
90.8813
 11
-43.9467
 21
91.2299
  0
LINE
  8
0
 10
-43.9467
 20
91.2299
 11
-44.286
 21
91.5965
  0
LINE
  8
0
 10
-44.286
 20
91.5965
 11
-44.606
 21
91.9801
  0
LINE
  8
0
 10
-44.606
 20
91.9801
 11
-44.9058
 21
92.3796
  0
LINE
  8
0
 10
-44.9058
 20
92.3796
 11
-45.1846
 21
92.794
  0
LINE
  8
0
 10
-45.1846
 20
92.794
 11
-45.4418
 21
93.2223
  0
LINE
  8
0
 10
-45.4418
 20
93.2223
 11
-45.6765
 21
93.6632
  0
LINE
  8
0
 10
-45.6765
 20
93.6632
 11
-45.8883
 21
94.1156
  0
LINE
  8
0
 10
-45.8883
 20
94.1156
 11
-46.0764
 21
94.5783
  0
LINE
  8
0
 10
-46.0764
 20
94.5783
 11
-46.2406
 21
95.0501
  0
LINE
  8
0
 10
-46.2406
 20
95.0501
 11
-46.3802
 21
95.5297
  0
LINE
  8
0
 10
-46.3802
 20
95.5297
 11
-46.4949
 21
96.0158
  0
LINE
  8
0
 10
-46.4949
 20
96.0158
 11
-46.5844
 21
96.5073
  0
LINE
  8
0
 10
-46.5844
 20
96.5073
 11
-46.6486
 21
97.0026
  0
LINE
  8
0
 10
-46.6486
 20
97.0026
 11
-46.6871
 21
97.5007
  0
LINE
  8
0
 10
-46.6871
 20
97.5007
 11
-46.7
 21
98
  0
LINE
  8
0
 10
-46.7
 20
98
 11
-46.6871
 21
98.4993
  0
LINE
  8
0
 10
-46.6871
 20
98.4993
 11
-46.6486
 21
98.9974
  0
LINE
  8
0
 10
-46.6486
 20
98.9974
 11
-46.5844
 21
99.4927
  0
LINE
  8
0
 10
-46.5844
 20
99.4927
 11
-46.4949
 21
99.9841
  0
LINE
  8
0
 10
-46.4949
 20
99.9841
 11
-46.3802
 21
100.47
  0
LINE
  8
0
 10
-46.3802
 20
100.47
 11
-46.2406
 21
100.95
  0
LINE
  8
0
 10
-46.2406
 20
100.95
 11
-46.0764
 21
101.422
  0
LINE
  8
0
 10
-46.0764
 20
101.422
 11
-45.8883
 21
101.884
  0
LINE
  8
0
 10
-45.8883
 20
101.884
 11
-45.6765
 21
102.337
  0
LINE
  8
0
 10
-45.6765
 20
102.337
 11
-45.4418
 21
102.778
  0
LINE
  8
0
 10
-45.4418
 20
102.778
 11
-45.1846
 21
103.206
  0
LINE
  8
0
 10
-45.1846
 20
103.206
 11
-44.9058
 21
103.62
  0
LINE
  8
0
 10
-44.9058
 20
103.62
 11
-44.606
 21
104.02
  0
LINE
  8
0
 10
-44.606
 20
104.02
 11
-44.286
 21
104.403
  0
LINE
  8
0
 10
-44.286
 20
104.403
 11
-43.9467
 21
104.77
  0
LINE
  8
0
 10
-43.9467
 20
104.77
 11
-43.5889
 21
105.119
  0
LINE
  8
0
 10
-43.5889
 20
105.119
 11
-43.2137
 21
105.448
  0
LINE
  8
0
 10
-43.2137
 20
105.448
 11
-42.8221
 21
105.758
  0
LINE
  8
0
 10
-42.8221
 20
105.758
 11
-42.415
 21
106.048
  0
LINE
  8
0
 10
-42.415
 20
106.048
 11
-41.9935
 21
106.316
  0
LINE
  8
0
 10
-41.9935
 20
106.316
 11
-41.5588
 21
106.562
  0
LINE
  8
0
 10
-41.5588
 20
106.562
 11
-41.112
 21
106.785
  0
LINE
  8
0
 10
-41.112
 20
106.785
 11
-40.6543
 21
106.985
  0
LINE
  8
0
 10
-40.6543
 20
106.985
 11
-40.1869
 21
107.162
  0
LINE
  8
0
 10
-40.1869
 20
107.162
 11
-39.711
 21
107.313
  0
LINE
  8
0
 10
-39.711
 20
107.313
 11
-39.228
 21
107.441
  0
LINE
  8
0
 10
-39.228
 20
107.441
 11
-38.739
 21
107.543
  0
LINE
  8
0
 10
-38.739
 20
107.543
 11
-38.2455
 21
107.62
  0
LINE
  8
0
 10
-38.2455
 20
107.62
 11
-37.7486
 21
107.671
  0
LINE
  8
0
 10
-37.7486
 20
107.671
 11
-37.2498
 21
107.697
  0
LINE
  8
0
 10
-37.2498
 20
107.697
 11
-36.7502
 21
107.697
  0
LINE
  8
0
 10
-36.7502
 20
107.697
 11
-36.2514
 21
107.671
  0
LINE
  8
0
 10
-36.2514
 20
107.671
 11
-35.7545
 21
107.62
  0
LINE
  8
0
 10
-35.7545
 20
107.62
 11
-35.261
 21
107.543
  0
LINE
  8
0
 10
-35.261
 20
107.543
 11
-34.772
 21
107.441
  0
LINE
  8
0
 10
-34.772
 20
107.441
 11
-34.289
 21
107.313
  0
LINE
  8
0
 10
-34.289
 20
107.313
 11
-33.8131
 21
107.162
  0
LINE
  8
0
 10
-33.8131
 20
107.162
 11
-33.3457
 21
106.985
  0
LINE
  8
0
 10
-33.3457
 20
106.985
 11
-32.888
 21
106.785
  0
LINE
  8
0
 10
-32.888
 20
106.785
 11
-32.4412
 21
106.562
  0
LINE
  8
0
 10
-32.4412
 20
106.562
 11
-32.0065
 21
106.316
  0
LINE
  8
0
 10
-32.0065
 20
106.316
 11
-31.585
 21
106.048
  0
LINE
  8
0
 10
-31.585
 20
106.048
 11
-31.1779
 21
105.758
  0
LINE
  8
0
 10
-31.1779
 20
105.758
 11
-30.7862
 21
105.448
  0
LINE
  8
0
 10
-30.7862
 20
105.448
 11
-30.411
 21
105.119
  0
LINE
  8
0
 10
-30.411
 20
105.119
 11
-30.0533
 21
104.77
  0
LINE
  8
0
 10
-30.0533
 20
104.77
 11
-29.714
 21
104.403
  0
LINE
  8
0
 10
-29.714
 20
104.403
 11
-29.394
 21
104.02
  0
LINE
  8
0
 10
-29.394
 20
104.02
 11
-29.0942
 21
103.62
  0
LINE
  8
0
 10
-29.0942
 20
103.62
 11
-28.8154
 21
103.206
  0
LINE
  8
0
 10
-28.8154
 20
103.206
 11
-28.5582
 21
102.778
  0
LINE
  8
0
 10
-28.5582
 20
102.778
 11
-28.3235
 21
102.337
  0
LINE
  8
0
 10
-28.3235
 20
102.337
 11
-28.1117
 21
101.884
  0
LINE
  8
0
 10
-28.1117
 20
101.884
 11
-27.9235
 21
101.422
  0
LINE
  8
0
 10
-27.9235
 20
101.422
 11
-27.7594
 21
100.95
  0
LINE
  8
0
 10
-27.7594
 20
100.95
 11
-27.6198
 21
100.47
  0
LINE
  8
0
 10
-27.6198
 20
100.47
 11
-27.5051
 21
99.9841
  0
LINE
  8
0
 10
-27.5051
 20
99.9841
 11
-27.4155
 21
99.4927
  0
LINE
  8
0
 10
-27.4155
 20
99.4927
 11
-27.3514
 21
98.9974
  0
LINE
  8
0
 10
-27.3514
 20
98.9974
 11
-27.3129
 21
98.4993
  0
LINE
  8
0
 10
-27.3129
 20
98.4993
 11
-27.3
 21
98
  0
LINE
  8
0
 10
-27.3
 20
98
 11
-27.3129
 21
97.5007
  0
LINE
  8
0
 10
-27.3129
 20
97.5007
 11
-27.3514
 21
97.0026
  0
LINE
  8
0
 10
-27.3514
 20
97.0026
 11
-27.4155
 21
96.5073
  0
LINE
  8
0
 10
-27.4155
 20
96.5073
 11
-27.5051
 21
96.0158
  0
LINE
  8
0
 10
-27.5051
 20
96.0158
 11
-27.6198
 21
95.5297
  0
LINE
  8
0
 10
-27.6198
 20
95.5297
 11
-27.7594
 21
95.0501
  0
LINE
  8
0
 10
-27.7594
 20
95.0501
 11
-27.9235
 21
94.5783
  0
LINE
  8
0
 10
-27.9235
 20
94.5783
 11
-28.1117
 21
94.1156
  0
LINE
  8
0
 10
-28.1117
 20
94.1156
 11
-28.3235
 21
93.6632
  0
LINE
  8
0
 10
-28.3235
 20
93.6632
 11
-28.5582
 21
93.2223
  0
LINE
  8
0
 10
-28.5582
 20
93.2223
 11
-28.8154
 21
92.794
  0
LINE
  8
0
 10
-28.8154
 20
92.794
 11
-29.0942
 21
92.3796
  0
LINE
  8
0
 10
-29.0942
 20
92.3796
 11
-29.394
 21
91.9801
  0
LINE
  8
0
 10
-29.394
 20
91.9801
 11
-29.714
 21
91.5965
  0
LINE
  8
0
 10
-29.714
 20
91.5965
 11
-30.0533
 21
91.2299
  0
LINE
  8
0
 10
-30.0533
 20
91.2299
 11
-30.411
 21
90.8813
  0
LINE
  8
0
 10
-30.411
 20
90.8813
 11
-30.7862
 21
90.5516
  0
LINE
  8
0
 10
-30.7862
 20
90.5516
 11
-31.1779
 21
90.2416
  0
LINE
  8
0
 10
-31.1779
 20
90.2416
 11
-31.585
 21
89.9521
  0
LINE
  8
0
 10
-31.585
 20
89.9521
 11
-32.0065
 21
89.6841
  0
LINE
  8
0
 10
-32.0065
 20
89.6841
 11
-32.4412
 21
89.438
  0
LINE
  8
0
 10
-32.4412
 20
89.438
 11
-32.888
 21
89.2147
  0
LINE
  8
0
 10
-32.888
 20
89.2147
 11
-33.3457
 21
89.0146
  0
LINE
  8
0
 10
-33.3457
 20
89.0146
 11
-33.8131
 21
88.8385
  0
LINE
  8
0
 10
-33.8131
 20
88.8385
 11
-34.289
 21
88.6865
  0
LINE
  8
0
 10
-34.289
 20
88.6865
 11
-34.772
 21
88.5593
  0
LINE
  8
0
 10
-34.772
 20
88.5593
 11
-35.261
 21
88.4572
  0
LINE
  8
0
 10
-35.261
 20
88.4572
 11
-35.7545
 21
88.3803
  0
LINE
  8
0
 10
-35.7545
 20
88.3803
 11
-36.2514
 21
88.3289
  0
LINE
  8
0
 10
-36.2514
 20
88.3289
 11
-36.7502
 21
88.3032
  0
LINE
  8
0
 10
-36.7502
 20
88.3032
 11
-37.2498
 21
88.3032
  0
LINE
  8
0
 10
-47.2419
 20
86.3173
 11
-47.7062
 21
86.4536
  0
LINE
  8
0
 10
-47.7062
 20
86.4536
 11
-48.1133
 21
86.7152
  0
LINE
  8
0
 10
-48.1133
 20
86.7152
 11
-48.4301
 21
87.0809
  0
LINE
  8
0
 10
-48.4301
 20
87.0809
 11
-48.6311
 21
87.5211
  0
LINE
  8
0
 10
-48.6311
 20
87.5211
 11
-48.7
 21
88
  0
LINE
  8
0
 10
-48.7
 20
88
 11
-48.6311
 21
88.4789
  0
LINE
  8
0
 10
-48.6311
 20
88.4789
 11
-48.4301
 21
88.9191
  0
LINE
  8
0
 10
-48.4301
 20
88.9191
 11
-48.1133
 21
89.2848
  0
LINE
  8
0
 10
-48.1133
 20
89.2848
 11
-47.7062
 21
89.5464
  0
LINE
  8
0
 10
-47.7062
 20
89.5464
 11
-47.2419
 21
89.6827
  0
LINE
  8
0
 10
-47.2419
 20
89.6827
 11
-46.7581
 21
89.6827
  0
LINE
  8
0
 10
-46.7581
 20
89.6827
 11
-46.2938
 21
89.5464
  0
LINE
  8
0
 10
-46.2938
 20
89.5464
 11
-45.8867
 21
89.2848
  0
LINE
  8
0
 10
-45.8867
 20
89.2848
 11
-45.5699
 21
88.9191
  0
LINE
  8
0
 10
-45.5699
 20
88.9191
 11
-45.3689
 21
88.4789
  0
LINE
  8
0
 10
-45.3689
 20
88.4789
 11
-45.3
 21
88
  0
LINE
  8
0
 10
-45.3
 20
88
 11
-45.3689
 21
87.5211
  0
LINE
  8
0
 10
-45.3689
 20
87.5211
 11
-45.5699
 21
87.0809
  0
LINE
  8
0
 10
-45.5699
 20
87.0809
 11
-45.8867
 21
86.7152
  0
LINE
  8
0
 10
-45.8867
 20
86.7152
 11
-46.2938
 21
86.4536
  0
LINE
  8
0
 10
-46.2938
 20
86.4536
 11
-46.7581
 21
86.3173
  0
LINE
  8
0
 10
-46.7581
 20
86.3173
 11
-47.2419
 21
86.3173
  0
LINE
  8
0
 10
-27.2419
 20
86.3173
 11
-27.7062
 21
86.4536
  0
LINE
  8
0
 10
-27.7062
 20
86.4536
 11
-28.1133
 21
86.7152
  0
LINE
  8
0
 10
-28.1133
 20
86.7152
 11
-28.4301
 21
87.0809
  0
LINE
  8
0
 10
-28.4301
 20
87.0809
 11
-28.6311
 21
87.5211
  0
LINE
  8
0
 10
-28.6311
 20
87.5211
 11
-28.7
 21
88
  0
LINE
  8
0
 10
-28.7
 20
88
 11
-28.6311
 21
88.4789
  0
LINE
  8
0
 10
-28.6311
 20
88.4789
 11
-28.4301
 21
88.9191
  0
LINE
  8
0
 10
-28.4301
 20
88.9191
 11
-28.1133
 21
89.2848
  0
LINE
  8
0
 10
-28.1133
 20
89.2848
 11
-27.7062
 21
89.5464
  0
LINE
  8
0
 10
-27.7062
 20
89.5464
 11
-27.2419
 21
89.6827
  0
LINE
  8
0
 10
-27.2419
 20
89.6827
 11
-26.7581
 21
89.6827
  0
LINE
  8
0
 10
-26.7581
 20
89.6827
 11
-26.2938
 21
89.5464
  0
LINE
  8
0
 10
-26.2938
 20
89.5464
 11
-25.8867
 21
89.2848
  0
LINE
  8
0
 10
-25.8867
 20
89.2848
 11
-25.5699
 21
88.9191
  0
LINE
  8
0
 10
-25.5699
 20
88.9191
 11
-25.3689
 21
88.4789
  0
LINE
  8
0
 10
-25.3689
 20
88.4789
 11
-25.3
 21
88
  0
LINE
  8
0
 10
-25.3
 20
88
 11
-25.3689
 21
87.5211
  0
LINE
  8
0
 10
-25.3689
 20
87.5211
 11
-25.5699
 21
87.0809
  0
LINE
  8
0
 10
-25.5699
 20
87.0809
 11
-25.8867
 21
86.7152
  0
LINE
  8
0
 10
-25.8867
 20
86.7152
 11
-26.2938
 21
86.4536
  0
LINE
  8
0
 10
-26.2938
 20
86.4536
 11
-26.7581
 21
86.3173
  0
LINE
  8
0
 10
-26.7581
 20
86.3173
 11
-27.2419
 21
86.3173
  0
LINE
  8
0
 10
-42.3185
 20
6.64238
 11
-42.7486
 21
6.86411
  0
LINE
  8
0
 10
-42.7486
 20
6.86411
 11
-43.0988
 21
7.19801
  0
LINE
  8
0
 10
-43.0988
 20
7.19801
 11
-43.3407
 21
7.61707
  0
LINE
  8
0
 10
-43.3407
 20
7.61707
 11
-43.4548
 21
8.0873
  0
LINE
  8
0
 10
-43.4548
 20
8.0873
 11
-43.4318
 21
8.57062
  0
LINE
  8
0
 10
-43.4318
 20
8.57062
 11
-43.2735
 21
9.02786
  0
LINE
  8
0
 10
-43.2735
 20
9.02786
 11
-42.9928
 21
9.42201
  0
LINE
  8
0
 10
-42.9928
 20
9.42201
 11
-42.6125
 21
9.72113
  0
LINE
  8
0
 10
-42.6125
 20
9.72113
 11
-42.1633
 21
9.90097
  0
LINE
  8
0
 10
-42.1633
 20
9.90097
 11
-41.6816
 21
9.94696
  0
LINE
  8
0
 10
-41.6816
 20
9.94696
 11
-41.2065
 21
9.85539
  0
LINE
  8
0
 10
-41.2065
 20
9.85539
 11
-40.7764
 21
9.63367
  0
LINE
  8
0
 10
-40.7764
 20
9.63367
 11
-40.4262
 21
9.29976
  0
LINE
  8
0
 10
-40.4262
 20
9.29976
 11
-40.1843
 21
8.88071
  0
LINE
  8
0
 10
-40.1843
 20
8.88071
 11
-40.0702
 21
8.41048
  0
LINE
  8
0
 10
-40.0702
 20
8.41048
 11
-40.0932
 21
7.92715
  0
LINE
  8
0
 10
-40.0932
 20
7.92715
 11
-40.2515
 21
7.46989
  0
LINE
  8
0
 10
-40.2515
 20
7.46989
 11
-40.5322
 21
7.07574
  0
LINE
  8
0
 10
-40.5322
 20
7.07574
 11
-40.9125
 21
6.77664
  0
LINE
  8
0
 10
-40.9125
 20
6.77664
 11
-41.3617
 21
6.5968
  0
LINE
  8
0
 10
-41.3617
 20
6.5968
 11
-41.8434
 21
6.55081
  0
LINE
  8
0
 10
-41.8434
 20
6.55081
 11
-42.3185
 21
6.64238
  0
LINE
  8
0
 10
-37.4994
 20
-6.98216
 11
-37.9962
 21
-6.92874
  0
LINE
  8
0
 10
-37.9962
 20
-6.92874
 11
-38.4879
 21
-6.84003
  0
LINE
  8
0
 10
-38.4879
 20
-6.84003
 11
-38.9721
 21
-6.71645
  0
LINE
  8
0
 10
-38.9721
 20
-6.71645
 11
-39.4462
 21
-6.55864
  0
LINE
  8
0
 10
-39.4462
 20
-6.55864
 11
-39.9079
 21
-6.36742
  0
LINE
  8
0
 10
-39.9079
 20
-6.36742
 11
-40.3547
 21
-6.14374
  0
LINE
  8
0
 10
-40.3547
 20
-6.14374
 11
-40.7845
 21
-5.88876
  0
LINE
  8
0
 10
-40.7845
 20
-5.88876
 11
-41.1949
 21
-5.60378
  0
LINE
  8
0
 10
-41.1949
 20
-5.60378
 11
-41.584
 21
-5.29024
  0
LINE
  8
0
 10
-41.584
 20
-5.29024
 11
-41.9497
 21
-4.94974
  0
LINE
  8
0
 10
-41.9497
 20
-4.94974
 11
-42.2902
 21
-4.58401
  0
LINE
  8
0
 10
-42.2902
 20
-4.58401
 11
-42.6038
 21
-4.19493
  0
LINE
  8
0
 10
-42.6038
 20
-4.19493
 11
-42.8888
 21
-3.78448
  0
LINE
  8
0
 10
-42.8888
 20
-3.78448
 11
-43.1438
 21
-3.35474
  0
LINE
  8
0
 10
-43.1438
 20
-3.35474
 11
-43.3674
 21
-2.9079
  0
LINE
  8
0
 10
-43.3674
 20
-2.9079
 11
-43.5586
 21
-2.44624
  0
LINE
  8
0
 10
-43.5586
 20
-2.44624
 11
-43.7164
 21
-1.97212
  0
LINE
  8
0
 10
-43.7164
 20
-1.97212
 11
-43.84
 21
-1.48795
  0
LINE
  8
0
 10
-43.84
 20
-1.48795
 11
-43.9287
 21
-0.996201
  0
LINE
  8
0
 10
-43.9287
 20
-0.996201
 11
-43.9822
 21
-0.499359
  0
LINE
  8
0
 10
-43.9822
 20
-0.499359
 11
-44
 21
0
  0
LINE
  8
0
 10
-44
 20
0
 11
-43.9822
 21
0.499359
  0
LINE
  8
0
 10
-43.9822
 20
0.499359
 11
-43.9287
 21
0.996201
  0
LINE
  8
0
 10
-43.9287
 20
0.996201
 11
-43.84
 21
1.48795
  0
LINE
  8
0
 10
-43.84
 20
1.48795
 11
-43.7164
 21
1.97212
  0
LINE
  8
0
 10
-43.7164
 20
1.97212
 11
-43.5586
 21
2.44624
  0
LINE
  8
0
 10
-43.5586
 20
2.44624
 11
-43.3674
 21
2.9079
  0
LINE
  8
0
 10
-43.3674
 20
2.9079
 11
-43.1438
 21
3.35474
  0
LINE
  8
0
 10
-43.1438
 20
3.35474
 11
-42.8888
 21
3.78448
  0
LINE
  8
0
 10
-42.8888
 20
3.78448
 11
-42.6038
 21
4.19493
  0
LINE
  8
0
 10
-42.6038
 20
4.19493
 11
-42.2902
 21
4.58401
  0
LINE
  8
0
 10
-42.2902
 20
4.58401
 11
-41.9497
 21
4.94974
  0
LINE
  8
0
 10
-41.9497
 20
4.94974
 11
-41.584
 21
5.29024
  0
LINE
  8
0
 10
-41.584
 20
5.29024
 11
-41.1949
 21
5.60378
  0
LINE
  8
0
 10
-41.1949
 20
5.60378
 11
-40.7845
 21
5.88876
  0
LINE
  8
0
 10
-40.7845
 20
5.88876
 11
-40.3547
 21
6.14374
  0
LINE
  8
0
 10
-40.3547
 20
6.14374
 11
-39.9079
 21
6.36742
  0
LINE
  8
0
 10
-39.9079
 20
6.36742
 11
-39.4462
 21
6.55864
  0
LINE
  8
0
 10
-39.4462
 20
6.55864
 11
-38.9721
 21
6.71645
  0
LINE
  8
0
 10
-38.9721
 20
6.71645
 11
-38.4879
 21
6.84003
  0
LINE
  8
0
 10
-38.4879
 20
6.84003
 11
-37.9962
 21
6.92874
  0
LINE
  8
0
 10
-37.9962
 20
6.92874
 11
-37.4994
 21
6.98216
  0
LINE
  8
0
 10
-37.4994
 20
6.98216
 11
-37
 21
7
  0
LINE
  8
0
 10
-37
 20
7
 11
-36.5006
 21
6.98216
  0
LINE
  8
0
 10
-36.5006
 20
6.98216
 11
-36.0038
 21
6.92874
  0
LINE
  8
0
 10
-36.0038
 20
6.92874
 11
-35.512
 21
6.84003
  0
LINE
  8
0
 10
-35.512
 20
6.84003
 11
-35.0279
 21
6.71645
  0
LINE
  8
0
 10
-35.0279
 20
6.71645
 11
-34.5537
 21
6.55864
  0
LINE
  8
0
 10
-34.5537
 20
6.55864
 11
-34.0921
 21
6.36742
  0
LINE
  8
0
 10
-34.0921
 20
6.36742
 11
-33.6452
 21
6.14374
  0
LINE
  8
0
 10
-33.6452
 20
6.14374
 11
-33.2155
 21
5.88876
  0
LINE
  8
0
 10
-33.2155
 20
5.88876
 11
-32.8051
 21
5.60378
  0
LINE
  8
0
 10
-32.8051
 20
5.60378
 11
-32.416
 21
5.29024
  0
LINE
  8
0
 10
-32.416
 20
5.29024
 11
-32.0502
 21
4.94974
  0
LINE
  8
0
 10
-32.0502
 20
4.94974
 11
-31.7097
 21
4.58401
  0
LINE
  8
0
 10
-31.7097
 20
4.58401
 11
-31.3962
 21
4.19493
  0
LINE
  8
0
 10
-31.3962
 20
4.19493
 11
-31.1112
 21
3.78448
  0
LINE
  8
0
 10
-31.1112
 20
3.78448
 11
-30.8562
 21
3.35474
  0
LINE
  8
0
 10
-30.8562
 20
3.35474
 11
-30.6326
 21
2.9079
  0
LINE
  8
0
 10
-30.6326
 20
2.9079
 11
-30.4413
 21
2.44624
  0
LINE
  8
0
 10
-30.4413
 20
2.44624
 11
-30.2835
 21
1.97212
  0
LINE
  8
0
 10
-30.2835
 20
1.97212
 11
-30.16
 21
1.48795
  0
LINE
  8
0
 10
-30.16
 20
1.48795
 11
-30.0712
 21
0.996201
  0
LINE
  8
0
 10
-30.0712
 20
0.996201
 11
-30.0178
 21
0.499359
  0
LINE
  8
0
 10
-30.0178
 20
0.499359
 11
-30
 21
0
  0
LINE
  8
0
 10
-30
 20
0
 11
-30.0178
 21
-0.499359
  0
LINE
  8
0
 10
-30.0178
 20
-0.499359
 11
-30.0712
 21
-0.996201
  0
LINE
  8
0
 10
-30.0712
 20
-0.996201
 11
-30.16
 21
-1.48795
  0
LINE
  8
0
 10
-30.16
 20
-1.48795
 11
-30.2835
 21
-1.97212
  0
LINE
  8
0
 10
-30.2835
 20
-1.97212
 11
-30.4413
 21
-2.44624
  0
LINE
  8
0
 10
-30.4413
 20
-2.44624
 11
-30.6326
 21
-2.9079
  0
LINE
  8
0
 10
-30.6326
 20
-2.9079
 11
-30.8562
 21
-3.35474
  0
LINE
  8
0
 10
-30.8562
 20
-3.35474
 11
-31.1112
 21
-3.78448
  0
LINE
  8
0
 10
-31.1112
 20
-3.78448
 11
-31.3962
 21
-4.19493
  0
LINE
  8
0
 10
-31.3962
 20
-4.19493
 11
-31.7097
 21
-4.58401
  0
LINE
  8
0
 10
-31.7097
 20
-4.58401
 11
-32.0502
 21
-4.94974
  0
LINE
  8
0
 10
-32.0502
 20
-4.94974
 11
-32.416
 21
-5.29024
  0
LINE
  8
0
 10
-32.416
 20
-5.29024
 11
-32.8051
 21
-5.60378
  0
LINE
  8
0
 10
-32.8051
 20
-5.60378
 11
-33.2155
 21
-5.88876
  0
LINE
  8
0
 10
-33.2155
 20
-5.88876
 11
-33.6452
 21
-6.14374
  0
LINE
  8
0
 10
-33.6452
 20
-6.14374
 11
-34.0921
 21
-6.36742
  0
LINE
  8
0
 10
-34.0921
 20
-6.36742
 11
-34.5537
 21
-6.55864
  0
LINE
  8
0
 10
-34.5537
 20
-6.55864
 11
-35.0279
 21
-6.71645
  0
LINE
  8
0
 10
-35.0279
 20
-6.71645
 11
-35.512
 21
-6.84003
  0
LINE
  8
0
 10
-35.512
 20
-6.84003
 11
-36.0038
 21
-6.92874
  0
LINE
  8
0
 10
-36.0038
 20
-6.92874
 11
-36.5006
 21
-6.98216
  0
LINE
  8
0
 10
-36.5006
 20
-6.98216
 11
-37
 21
-7
  0
LINE
  8
0
 10
-37
 20
-7
 11
-37.4994
 21
-6.98216
  0
LINE
  8
0
 10
-27.7169
 20
-1.68269
 11
-28.1812
 21
-1.54637
  0
LINE
  8
0
 10
-28.1812
 20
-1.54637
 11
-28.5883
 21
-1.28476
  0
LINE
  8
0
 10
-28.5883
 20
-1.28476
 11
-28.9051
 21
-0.919083
  0
LINE
  8
0
 10
-28.9051
 20
-0.919083
 11
-29.1061
 21
-0.478943
  0
LINE
  8
0
 10
-29.1061
 20
-0.478943
 11
-29.175
 21
0
  0
LINE
  8
0
 10
-29.175
 20
0
 11
-29.1061
 21
0.478943
  0
LINE
  8
0
 10
-29.1061
 20
0.478943
 11
-28.9051
 21
0.919083
  0
LINE
  8
0
 10
-28.9051
 20
0.919083
 11
-28.5883
 21
1.28476
  0
LINE
  8
0
 10
-28.5883
 20
1.28476
 11
-28.1812
 21
1.54637
  0
LINE
  8
0
 10
-28.1812
 20
1.54637
 11
-27.7169
 21
1.68269
  0
LINE
  8
0
 10
-27.7169
 20
1.68269
 11
-27.2331
 21
1.68269
  0
LINE
  8
0
 10
-27.2331
 20
1.68269
 11
-26.7688
 21
1.54637
  0
LINE
  8
0
 10
-26.7688
 20
1.54637
 11
-26.3617
 21
1.28476
  0
LINE
  8
0
 10
-26.3617
 20
1.28476
 11
-26.0449
 21
0.919083
  0
LINE
  8
0
 10
-26.0449
 20
0.919083
 11
-25.8439
 21
0.478943
  0
LINE
  8
0
 10
-25.8439
 20
0.478943
 11
-25.775
 21
0
  0
LINE
  8
0
 10
-25.775
 20
0
 11
-25.8439
 21
-0.478943
  0
LINE
  8
0
 10
-25.8439
 20
-0.478943
 11
-26.0449
 21
-0.919083
  0
LINE
  8
0
 10
-26.0449
 20
-0.919083
 11
-26.3617
 21
-1.28476
  0
LINE
  8
0
 10
-26.3617
 20
-1.28476
 11
-26.7688
 21
-1.54637
  0
LINE
  8
0
 10
-26.7688
 20
-1.54637
 11
-27.2331
 21
-1.68269
  0
LINE
  8
0
 10
-27.2331
 20
-1.68269
 11
-27.7169
 21
-1.68269
  0
LINE
  8
0
 10
-42.1633
 20
-9.90097
 11
-42.6125
 21
-9.72113
  0
LINE
  8
0
 10
-42.6125
 20
-9.72113
 11
-42.9928
 21
-9.42201
  0
LINE
  8
0
 10
-42.9928
 20
-9.42201
 11
-43.2735
 21
-9.02786
  0
LINE
  8
0
 10
-43.2735
 20
-9.02786
 11
-43.4318
 21
-8.57062
  0
LINE
  8
0
 10
-43.4318
 20
-8.57062
 11
-43.4548
 21
-8.0873
  0
LINE
  8
0
 10
-43.4548
 20
-8.0873
 11
-43.3407
 21
-7.61707
  0
LINE
  8
0
 10
-43.3407
 20
-7.61707
 11
-43.0988
 21
-7.19801
  0
LINE
  8
0
 10
-43.0988
 20
-7.19801
 11
-42.7486
 21
-6.86411
  0
LINE
  8
0
 10
-42.7486
 20
-6.86411
 11
-42.3185
 21
-6.64238
  0
LINE
  8
0
 10
-42.3185
 20
-6.64238
 11
-41.8434
 21
-6.55081
  0
LINE
  8
0
 10
-41.8434
 20
-6.55081
 11
-41.3617
 21
-6.5968
  0
LINE
  8
0
 10
-41.3617
 20
-6.5968
 11
-40.9125
 21
-6.77664
  0
LINE
  8
0
 10
-40.9125
 20
-6.77664
 11
-40.5322
 21
-7.07574
  0
LINE
  8
0
 10
-40.5322
 20
-7.07574
 11
-40.2515
 21
-7.46989
  0
LINE
  8
0
 10
-40.2515
 20
-7.46989
 11
-40.0932
 21
-7.92715
  0
LINE
  8
0
 10
-40.0932
 20
-7.92715
 11
-40.0702
 21
-8.41048
  0
LINE
  8
0
 10
-40.0702
 20
-8.41048
 11
-40.1843
 21
-8.88071
  0
LINE
  8
0
 10
-40.1843
 20
-8.88071
 11
-40.4262
 21
-9.29976
  0
LINE
  8
0
 10
-40.4262
 20
-9.29976
 11
-40.7764
 21
-9.63367
  0
LINE
  8
0
 10
-40.7764
 20
-9.63367
 11
-41.2065
 21
-9.85539
  0
LINE
  8
0
 10
-41.2065
 20
-9.85539
 11
-41.6816
 21
-9.94696
  0
LINE
  8
0
 10
-41.6816
 20
-9.94696
 11
-42.1633
 21
-9.90097
  0
LINE
  8
0
 10
-47.2419
 20
-89.6827
 11
-47.7062
 21
-89.5464
  0
LINE
  8
0
 10
-47.7062
 20
-89.5464
 11
-48.1133
 21
-89.2848
  0
LINE
  8
0
 10
-48.1133
 20
-89.2848
 11
-48.4301
 21
-88.9191
  0
LINE
  8
0
 10
-48.4301
 20
-88.9191
 11
-48.6311
 21
-88.4789
  0
LINE
  8
0
 10
-48.6311
 20
-88.4789
 11
-48.7
 21
-88
  0
LINE
  8
0
 10
-48.7
 20
-88
 11
-48.6311
 21
-87.5211
  0
LINE
  8
0
 10
-48.6311
 20
-87.5211
 11
-48.4301
 21
-87.0809
  0
LINE
  8
0
 10
-48.4301
 20
-87.0809
 11
-48.1133
 21
-86.7152
  0
LINE
  8
0
 10
-48.1133
 20
-86.7152
 11
-47.7062
 21
-86.4536
  0
LINE
  8
0
 10
-47.7062
 20
-86.4536
 11
-47.2419
 21
-86.3173
  0
LINE
  8
0
 10
-47.2419
 20
-86.3173
 11
-46.7581
 21
-86.3173
  0
LINE
  8
0
 10
-46.7581
 20
-86.3173
 11
-46.2938
 21
-86.4536
  0
LINE
  8
0
 10
-46.2938
 20
-86.4536
 11
-45.8867
 21
-86.7152
  0
LINE
  8
0
 10
-45.8867
 20
-86.7152
 11
-45.5699
 21
-87.0809
  0
LINE
  8
0
 10
-45.5699
 20
-87.0809
 11
-45.3689
 21
-87.5211
  0
LINE
  8
0
 10
-45.3689
 20
-87.5211
 11
-45.3
 21
-88
  0
LINE
  8
0
 10
-45.3
 20
-88
 11
-45.3689
 21
-88.4789
  0
LINE
  8
0
 10
-45.3689
 20
-88.4789
 11
-45.5699
 21
-88.9191
  0
LINE
  8
0
 10
-45.5699
 20
-88.9191
 11
-45.8867
 21
-89.2848
  0
LINE
  8
0
 10
-45.8867
 20
-89.2848
 11
-46.2938
 21
-89.5464
  0
LINE
  8
0
 10
-46.2938
 20
-89.5464
 11
-46.7581
 21
-89.6827
  0
LINE
  8
0
 10
-46.7581
 20
-89.6827
 11
-47.2419
 21
-89.6827
  0
LINE
  8
0
 10
-27.2419
 20
-89.6827
 11
-27.7062
 21
-89.5464
  0
LINE
  8
0
 10
-27.7062
 20
-89.5464
 11
-28.1133
 21
-89.2848
  0
LINE
  8
0
 10
-28.1133
 20
-89.2848
 11
-28.4301
 21
-88.9191
  0
LINE
  8
0
 10
-28.4301
 20
-88.9191
 11
-28.6311
 21
-88.4789
  0
LINE
  8
0
 10
-28.6311
 20
-88.4789
 11
-28.7
 21
-88
  0
LINE
  8
0
 10
-28.7
 20
-88
 11
-28.6311
 21
-87.5211
  0
LINE
  8
0
 10
-28.6311
 20
-87.5211
 11
-28.4301
 21
-87.0809
  0
LINE
  8
0
 10
-28.4301
 20
-87.0809
 11
-28.1133
 21
-86.7152
  0
LINE
  8
0
 10
-28.1133
 20
-86.7152
 11
-27.7062
 21
-86.4536
  0
LINE
  8
0
 10
-27.7062
 20
-86.4536
 11
-27.2419
 21
-86.3173
  0
LINE
  8
0
 10
-27.2419
 20
-86.3173
 11
-26.7581
 21
-86.3173
  0
LINE
  8
0
 10
-26.7581
 20
-86.3173
 11
-26.2938
 21
-86.4536
  0
LINE
  8
0
 10
-26.2938
 20
-86.4536
 11
-25.8867
 21
-86.7152
  0
LINE
  8
0
 10
-25.8867
 20
-86.7152
 11
-25.5699
 21
-87.0809
  0
LINE
  8
0
 10
-25.5699
 20
-87.0809
 11
-25.3689
 21
-87.5211
  0
LINE
  8
0
 10
-25.3689
 20
-87.5211
 11
-25.3
 21
-88
  0
LINE
  8
0
 10
-25.3
 20
-88
 11
-25.3689
 21
-88.4789
  0
LINE
  8
0
 10
-25.3689
 20
-88.4789
 11
-25.5699
 21
-88.9191
  0
LINE
  8
0
 10
-25.5699
 20
-88.9191
 11
-25.8867
 21
-89.2848
  0
LINE
  8
0
 10
-25.8867
 20
-89.2848
 11
-26.2938
 21
-89.5464
  0
LINE
  8
0
 10
-26.2938
 20
-89.5464
 11
-26.7581
 21
-89.6827
  0
LINE
  8
0
 10
-26.7581
 20
-89.6827
 11
-27.2419
 21
-89.6827
  0
LINE
  8
0
 10
-37.2498
 20
-107.697
 11
-37.7486
 21
-107.671
  0
LINE
  8
0
 10
-37.7486
 20
-107.671
 11
-38.2455
 21
-107.62
  0
LINE
  8
0
 10
-38.2455
 20
-107.62
 11
-38.739
 21
-107.543
  0
LINE
  8
0
 10
-38.739
 20
-107.543
 11
-39.228
 21
-107.441
  0
LINE
  8
0
 10
-39.228
 20
-107.441
 11
-39.711
 21
-107.313
  0
LINE
  8
0
 10
-39.711
 20
-107.313
 11
-40.1869
 21
-107.162
  0
LINE
  8
0
 10
-40.1869
 20
-107.162
 11
-40.6543
 21
-106.985
  0
LINE
  8
0
 10
-40.6543
 20
-106.985
 11
-41.112
 21
-106.785
  0
LINE
  8
0
 10
-41.112
 20
-106.785
 11
-41.5588
 21
-106.562
  0
LINE
  8
0
 10
-41.5588
 20
-106.562
 11
-41.9935
 21
-106.316
  0
LINE
  8
0
 10
-41.9935
 20
-106.316
 11
-42.415
 21
-106.048
  0
LINE
  8
0
 10
-42.415
 20
-106.048
 11
-42.8221
 21
-105.758
  0
LINE
  8
0
 10
-42.8221
 20
-105.758
 11
-43.2137
 21
-105.448
  0
LINE
  8
0
 10
-43.2137
 20
-105.448
 11
-43.5889
 21
-105.119
  0
LINE
  8
0
 10
-43.5889
 20
-105.119
 11
-43.9467
 21
-104.77
  0
LINE
  8
0
 10
-43.9467
 20
-104.77
 11
-44.286
 21
-104.403
  0
LINE
  8
0
 10
-44.286
 20
-104.403
 11
-44.606
 21
-104.02
  0
LINE
  8
0
 10
-44.606
 20
-104.02
 11
-44.9058
 21
-103.62
  0
LINE
  8
0
 10
-44.9058
 20
-103.62
 11
-45.1846
 21
-103.206
  0
LINE
  8
0
 10
-45.1846
 20
-103.206
 11
-45.4418
 21
-102.778
  0
LINE
  8
0
 10
-45.4418
 20
-102.778
 11
-45.6765
 21
-102.337
  0
LINE
  8
0
 10
-45.6765
 20
-102.337
 11
-45.8883
 21
-101.884
  0
LINE
  8
0
 10
-45.8883
 20
-101.884
 11
-46.0764
 21
-101.422
  0
LINE
  8
0
 10
-46.0764
 20
-101.422
 11
-46.2406
 21
-100.95
  0
LINE
  8
0
 10
-46.2406
 20
-100.95
 11
-46.3802
 21
-100.47
  0
LINE
  8
0
 10
-46.3802
 20
-100.47
 11
-46.4949
 21
-99.9841
  0
LINE
  8
0
 10
-46.4949
 20
-99.9841
 11
-46.5844
 21
-99.4927
  0
LINE
  8
0
 10
-46.5844
 20
-99.4927
 11
-46.6486
 21
-98.9974
  0
LINE
  8
0
 10
-46.6486
 20
-98.9974
 11
-46.6871
 21
-98.4993
  0
LINE
  8
0
 10
-46.6871
 20
-98.4993
 11
-46.7
 21
-98
  0
LINE
  8
0
 10
-46.7
 20
-98
 11
-46.6871
 21
-97.5007
  0
LINE
  8
0
 10
-46.6871
 20
-97.5007
 11
-46.6486
 21
-97.0026
  0
LINE
  8
0
 10
-46.6486
 20
-97.0026
 11
-46.5844
 21
-96.5073
  0
LINE
  8
0
 10
-46.5844
 20
-96.5073
 11
-46.4949
 21
-96.0158
  0
LINE
  8
0
 10
-46.4949
 20
-96.0158
 11
-46.3802
 21
-95.5297
  0
LINE
  8
0
 10
-46.3802
 20
-95.5297
 11
-46.2406
 21
-95.0501
  0
LINE
  8
0
 10
-46.2406
 20
-95.0501
 11
-46.0764
 21
-94.5783
  0
LINE
  8
0
 10
-46.0764
 20
-94.5783
 11
-45.8883
 21
-94.1156
  0
LINE
  8
0
 10
-45.8883
 20
-94.1156
 11
-45.6765
 21
-93.6632
  0
LINE
  8
0
 10
-45.6765
 20
-93.6632
 11
-45.4418
 21
-93.2223
  0
LINE
  8
0
 10
-45.4418
 20
-93.2223
 11
-45.1846
 21
-92.794
  0
LINE
  8
0
 10
-45.1846
 20
-92.794
 11
-44.9058
 21
-92.3796
  0
LINE
  8
0
 10
-44.9058
 20
-92.3796
 11
-44.606
 21
-91.9801
  0
LINE
  8
0
 10
-44.606
 20
-91.9801
 11
-44.286
 21
-91.5965
  0
LINE
  8
0
 10
-44.286
 20
-91.5965
 11
-43.9467
 21
-91.2299
  0
LINE
  8
0
 10
-43.9467
 20
-91.2299
 11
-43.5889
 21
-90.8813
  0
LINE
  8
0
 10
-43.5889
 20
-90.8813
 11
-43.2137
 21
-90.5516
  0
LINE
  8
0
 10
-43.2137
 20
-90.5516
 11
-42.8221
 21
-90.2416
  0
LINE
  8
0
 10
-42.8221
 20
-90.2416
 11
-42.415
 21
-89.9521
  0
LINE
  8
0
 10
-42.415
 20
-89.9521
 11
-41.9935
 21
-89.6841
  0
LINE
  8
0
 10
-41.9935
 20
-89.6841
 11
-41.5588
 21
-89.438
  0
LINE
  8
0
 10
-41.5588
 20
-89.438
 11
-41.112
 21
-89.2147
  0
LINE
  8
0
 10
-41.112
 20
-89.2147
 11
-40.6543
 21
-89.0146
  0
LINE
  8
0
 10
-40.6543
 20
-89.0146
 11
-40.1869
 21
-88.8385
  0
LINE
  8
0
 10
-40.1869
 20
-88.8385
 11
-39.711
 21
-88.6865
  0
LINE
  8
0
 10
-39.711
 20
-88.6865
 11
-39.228
 21
-88.5593
  0
LINE
  8
0
 10
-39.228
 20
-88.5593
 11
-38.739
 21
-88.4572
  0
LINE
  8
0
 10
-38.739
 20
-88.4572
 11
-38.2455
 21
-88.3803
  0
LINE
  8
0
 10
-38.2455
 20
-88.3803
 11
-37.7486
 21
-88.3289
  0
LINE
  8
0
 10
-37.7486
 20
-88.3289
 11
-37.2498
 21
-88.3032
  0
LINE
  8
0
 10
-37.2498
 20
-88.3032
 11
-36.7502
 21
-88.3032
  0
LINE
  8
0
 10
-36.7502
 20
-88.3032
 11
-36.2514
 21
-88.3289
  0
LINE
  8
0
 10
-36.2514
 20
-88.3289
 11
-35.7545
 21
-88.3803
  0
LINE
  8
0
 10
-35.7545
 20
-88.3803
 11
-35.261
 21
-88.4572
  0
LINE
  8
0
 10
-35.261
 20
-88.4572
 11
-34.772
 21
-88.5593
  0
LINE
  8
0
 10
-34.772
 20
-88.5593
 11
-34.289
 21
-88.6865
  0
LINE
  8
0
 10
-34.289
 20
-88.6865
 11
-33.8131
 21
-88.8385
  0
LINE
  8
0
 10
-33.8131
 20
-88.8385
 11
-33.3457
 21
-89.0146
  0
LINE
  8
0
 10
-33.3457
 20
-89.0146
 11
-32.888
 21
-89.2147
  0
LINE
  8
0
 10
-32.888
 20
-89.2147
 11
-32.4412
 21
-89.438
  0
LINE
  8
0
 10
-32.4412
 20
-89.438
 11
-32.0065
 21
-89.6841
  0
LINE
  8
0
 10
-32.0065
 20
-89.6841
 11
-31.585
 21
-89.9521
  0
LINE
  8
0
 10
-31.585
 20
-89.9521
 11
-31.1779
 21
-90.2416
  0
LINE
  8
0
 10
-31.1779
 20
-90.2416
 11
-30.7862
 21
-90.5516
  0
LINE
  8
0
 10
-30.7862
 20
-90.5516
 11
-30.411
 21
-90.8813
  0
LINE
  8
0
 10
-30.411
 20
-90.8813
 11
-30.0533
 21
-91.2299
  0
LINE
  8
0
 10
-30.0533
 20
-91.2299
 11
-29.714
 21
-91.5965
  0
LINE
  8
0
 10
-29.714
 20
-91.5965
 11
-29.394
 21
-91.9801
  0
LINE
  8
0
 10
-29.394
 20
-91.9801
 11
-29.0942
 21
-92.3796
  0
LINE
  8
0
 10
-29.0942
 20
-92.3796
 11
-28.8154
 21
-92.794
  0
LINE
  8
0
 10
-28.8154
 20
-92.794
 11
-28.5582
 21
-93.2223
  0
LINE
  8
0
 10
-28.5582
 20
-93.2223
 11
-28.3235
 21
-93.6632
  0
LINE
  8
0
 10
-28.3235
 20
-93.6632
 11
-28.1117
 21
-94.1156
  0
LINE
  8
0
 10
-28.1117
 20
-94.1156
 11
-27.9235
 21
-94.5783
  0
LINE
  8
0
 10
-27.9235
 20
-94.5783
 11
-27.7594
 21
-95.0501
  0
LINE
  8
0
 10
-27.7594
 20
-95.0501
 11
-27.6198
 21
-95.5297
  0
LINE
  8
0
 10
-27.6198
 20
-95.5297
 11
-27.5051
 21
-96.0158
  0
LINE
  8
0
 10
-27.5051
 20
-96.0158
 11
-27.4155
 21
-96.5073
  0
LINE
  8
0
 10
-27.4155
 20
-96.5073
 11
-27.3514
 21
-97.0026
  0
LINE
  8
0
 10
-27.3514
 20
-97.0026
 11
-27.3129
 21
-97.5007
  0
LINE
  8
0
 10
-27.3129
 20
-97.5007
 11
-27.3
 21
-98
  0
LINE
  8
0
 10
-27.3
 20
-98
 11
-27.3129
 21
-98.4993
  0
LINE
  8
0
 10
-27.3129
 20
-98.4993
 11
-27.3514
 21
-98.9974
  0
LINE
  8
0
 10
-27.3514
 20
-98.9974
 11
-27.4155
 21
-99.4927
  0
LINE
  8
0
 10
-27.4155
 20
-99.4927
 11
-27.5051
 21
-99.9841
  0
LINE
  8
0
 10
-27.5051
 20
-99.9841
 11
-27.6198
 21
-100.47
  0
LINE
  8
0
 10
-27.6198
 20
-100.47
 11
-27.7594
 21
-100.95
  0
LINE
  8
0
 10
-27.7594
 20
-100.95
 11
-27.9235
 21
-101.422
  0
LINE
  8
0
 10
-27.9235
 20
-101.422
 11
-28.1117
 21
-101.884
  0
LINE
  8
0
 10
-28.1117
 20
-101.884
 11
-28.3235
 21
-102.337
  0
LINE
  8
0
 10
-28.3235
 20
-102.337
 11
-28.5582
 21
-102.778
  0
LINE
  8
0
 10
-28.5582
 20
-102.778
 11
-28.8154
 21
-103.206
  0
LINE
  8
0
 10
-28.8154
 20
-103.206
 11
-29.0942
 21
-103.62
  0
LINE
  8
0
 10
-29.0942
 20
-103.62
 11
-29.394
 21
-104.02
  0
LINE
  8
0
 10
-29.394
 20
-104.02
 11
-29.714
 21
-104.403
  0
LINE
  8
0
 10
-29.714
 20
-104.403
 11
-30.0533
 21
-104.77
  0
LINE
  8
0
 10
-30.0533
 20
-104.77
 11
-30.411
 21
-105.119
  0
LINE
  8
0
 10
-30.411
 20
-105.119
 11
-30.7862
 21
-105.448
  0
LINE
  8
0
 10
-30.7862
 20
-105.448
 11
-31.1779
 21
-105.758
  0
LINE
  8
0
 10
-31.1779
 20
-105.758
 11
-31.585
 21
-106.048
  0
LINE
  8
0
 10
-31.585
 20
-106.048
 11
-32.0065
 21
-106.316
  0
LINE
  8
0
 10
-32.0065
 20
-106.316
 11
-32.4412
 21
-106.562
  0
LINE
  8
0
 10
-32.4412
 20
-106.562
 11
-32.888
 21
-106.785
  0
LINE
  8
0
 10
-32.888
 20
-106.785
 11
-33.3457
 21
-106.985
  0
LINE
  8
0
 10
-33.3457
 20
-106.985
 11
-33.8131
 21
-107.162
  0
LINE
  8
0
 10
-33.8131
 20
-107.162
 11
-34.289
 21
-107.313
  0
LINE
  8
0
 10
-34.289
 20
-107.313
 11
-34.772
 21
-107.441
  0
LINE
  8
0
 10
-34.772
 20
-107.441
 11
-35.261
 21
-107.543
  0
LINE
  8
0
 10
-35.261
 20
-107.543
 11
-35.7545
 21
-107.62
  0
LINE
  8
0
 10
-35.7545
 20
-107.62
 11
-36.2514
 21
-107.671
  0
LINE
  8
0
 10
-36.2514
 20
-107.671
 11
-36.7502
 21
-107.697
  0
LINE
  8
0
 10
-36.7502
 20
-107.697
 11
-37.2498
 21
-107.697
  0
LINE
  8
0
 10
-27.2419
 20
-109.683
 11
-27.7062
 21
-109.546
  0
LINE
  8
0
 10
-27.7062
 20
-109.546
 11
-28.1133
 21
-109.285
  0
LINE
  8
0
 10
-28.1133
 20
-109.285
 11
-28.4301
 21
-108.919
  0
LINE
  8
0
 10
-28.4301
 20
-108.919
 11
-28.6311
 21
-108.479
  0
LINE
  8
0
 10
-28.6311
 20
-108.479
 11
-28.7
 21
-108
  0
LINE
  8
0
 10
-28.7
 20
-108
 11
-28.6311
 21
-107.521
  0
LINE
  8
0
 10
-28.6311
 20
-107.521
 11
-28.4301
 21
-107.081
  0
LINE
  8
0
 10
-28.4301
 20
-107.081
 11
-28.1133
 21
-106.715
  0
LINE
  8
0
 10
-28.1133
 20
-106.715
 11
-27.7062
 21
-106.454
  0
LINE
  8
0
 10
-27.7062
 20
-106.454
 11
-27.2419
 21
-106.317
  0
LINE
  8
0
 10
-27.2419
 20
-106.317
 11
-26.7581
 21
-106.317
  0
LINE
  8
0
 10
-26.7581
 20
-106.317
 11
-26.2938
 21
-106.454
  0
LINE
  8
0
 10
-26.2938
 20
-106.454
 11
-25.8867
 21
-106.715
  0
LINE
  8
0
 10
-25.8867
 20
-106.715
 11
-25.5699
 21
-107.081
  0
LINE
  8
0
 10
-25.5699
 20
-107.081
 11
-25.3689
 21
-107.521
  0
LINE
  8
0
 10
-25.3689
 20
-107.521
 11
-25.3
 21
-108
  0
LINE
  8
0
 10
-25.3
 20
-108
 11
-25.3689
 21
-108.479
  0
LINE
  8
0
 10
-25.3689
 20
-108.479
 11
-25.5699
 21
-108.919
  0
LINE
  8
0
 10
-25.5699
 20
-108.919
 11
-25.8867
 21
-109.285
  0
LINE
  8
0
 10
-25.8867
 20
-109.285
 11
-26.2938
 21
-109.546
  0
LINE
  8
0
 10
-26.2938
 20
-109.546
 11
-26.7581
 21
-109.683
  0
LINE
  8
0
 10
-26.7581
 20
-109.683
 11
-27.2419
 21
-109.683
  0
LINE
  8
0
 10
-47.2419
 20
-109.683
 11
-47.7062
 21
-109.546
  0
LINE
  8
0
 10
-47.7062
 20
-109.546
 11
-48.1133
 21
-109.285
  0
LINE
  8
0
 10
-48.1133
 20
-109.285
 11
-48.4301
 21
-108.919
  0
LINE
  8
0
 10
-48.4301
 20
-108.919
 11
-48.6311
 21
-108.479
  0
LINE
  8
0
 10
-48.6311
 20
-108.479
 11
-48.7
 21
-108
  0
LINE
  8
0
 10
-48.7
 20
-108
 11
-48.6311
 21
-107.521
  0
LINE
  8
0
 10
-48.6311
 20
-107.521
 11
-48.4301
 21
-107.081
  0
LINE
  8
0
 10
-48.4301
 20
-107.081
 11
-48.1133
 21
-106.715
  0
LINE
  8
0
 10
-48.1133
 20
-106.715
 11
-47.7062
 21
-106.454
  0
LINE
  8
0
 10
-47.7062
 20
-106.454
 11
-47.2419
 21
-106.317
  0
LINE
  8
0
 10
-47.2419
 20
-106.317
 11
-46.7581
 21
-106.317
  0
LINE
  8
0
 10
-46.7581
 20
-106.317
 11
-46.2938
 21
-106.454
  0
LINE
  8
0
 10
-46.2938
 20
-106.454
 11
-45.8867
 21
-106.715
  0
LINE
  8
0
 10
-45.8867
 20
-106.715
 11
-45.5699
 21
-107.081
  0
LINE
  8
0
 10
-45.5699
 20
-107.081
 11
-45.3689
 21
-107.521
  0
LINE
  8
0
 10
-45.3689
 20
-107.521
 11
-45.3
 21
-108
  0
LINE
  8
0
 10
-45.3
 20
-108
 11
-45.3689
 21
-108.479
  0
LINE
  8
0
 10
-45.3689
 20
-108.479
 11
-45.5699
 21
-108.919
  0
LINE
  8
0
 10
-45.5699
 20
-108.919
 11
-45.8867
 21
-109.285
  0
LINE
  8
0
 10
-45.8867
 20
-109.285
 11
-46.2938
 21
-109.546
  0
LINE
  8
0
 10
-46.2938
 20
-109.546
 11
-46.7581
 21
-109.683
  0
LINE
  8
0
 10
-46.7581
 20
-109.683
 11
-47.2419
 21
-109.683
  0
LINE
  8
0
 10
-10.2491
 20
-145.088
 11
-10.7389
 21
-144.997
  0
LINE
  8
0
 10
-10.7389
 20
-144.997
 11
-11.2035
 21
-144.817
  0
LINE
  8
0
 10
-11.2035
 20
-144.817
 11
-11.6271
 21
-144.555
  0
LINE
  8
0
 10
-11.6271
 20
-144.555
 11
-11.9953
 21
-144.219
  0
LINE
  8
0
 10
-11.9953
 20
-144.219
 11
-12.2956
 21
-143.821
  0
LINE
  8
0
 10
-12.2956
 20
-143.821
 11
-12.5177
 21
-143.375
  0
LINE
  8
0
 10
-12.5177
 20
-143.375
 11
-12.654
 21
-142.896
  0
LINE
  8
0
 10
-12.654
 20
-142.896
 11
-12.7
 21
-142.4
  0
LINE
  8
0
 10
-12.7
 20
-142.4
 11
-12.654
 21
-141.904
  0
LINE
  8
0
 10
-12.654
 20
-141.904
 11
-12.5177
 21
-141.425
  0
LINE
  8
0
 10
-12.5177
 20
-141.425
 11
-12.2956
 21
-140.979
  0
LINE
  8
0
 10
-12.2956
 20
-140.979
 11
-11.9953
 21
-140.581
  0
LINE
  8
0
 10
-11.9953
 20
-140.581
 11
-11.6271
 21
-140.245
  0
LINE
  8
0
 10
-11.6271
 20
-140.245
 11
-11.2035
 21
-139.983
  0
LINE
  8
0
 10
-11.2035
 20
-139.983
 11
-10.7389
 21
-139.803
  0
LINE
  8
0
 10
-10.7389
 20
-139.803
 11
-10.2491
 21
-139.712
  0
LINE
  8
0
 10
-10.2491
 20
-139.712
 11
-9.75087
 21
-139.712
  0
LINE
  8
0
 10
-9.75087
 20
-139.712
 11
-9.26111
 21
-139.803
  0
LINE
  8
0
 10
-9.26111
 20
-139.803
 11
-8.79649
 21
-139.983
  0
LINE
  8
0
 10
-8.79649
 20
-139.983
 11
-8.37288
 21
-140.245
  0
LINE
  8
0
 10
-8.37288
 20
-140.245
 11
-8.00467
 21
-140.581
  0
LINE
  8
0
 10
-8.00467
 20
-140.581
 11
-7.70441
 21
-140.979
  0
LINE
  8
0
 10
-7.70441
 20
-140.979
 11
-7.48232
 21
-141.425
  0
LINE
  8
0
 10
-7.48232
 20
-141.425
 11
-7.34596
 21
-141.904
  0
LINE
  8
0
 10
-7.34596
 20
-141.904
 11
-7.29999
 21
-142.4
  0
LINE
  8
0
 10
-7.29999
 20
-142.4
 11
-7.34596
 21
-142.896
  0
LINE
  8
0
 10
-7.34596
 20
-142.896
 11
-7.48232
 21
-143.375
  0
LINE
  8
0
 10
-7.48232
 20
-143.375
 11
-7.70441
 21
-143.821
  0
LINE
  8
0
 10
-7.70441
 20
-143.821
 11
-8.00467
 21
-144.219
  0
LINE
  8
0
 10
-8.00467
 20
-144.219
 11
-8.37288
 21
-144.555
  0
LINE
  8
0
 10
-8.37288
 20
-144.555
 11
-8.79649
 21
-144.817
  0
LINE
  8
0
 10
-8.79649
 20
-144.817
 11
-9.26111
 21
-144.997
  0
LINE
  8
0
 10
-9.26111
 20
-144.997
 11
-9.75087
 21
-145.088
  0
LINE
  8
0
 10
-9.75087
 20
-145.088
 11
-10.2491
 21
-145.088
  0
LINE
  8
0
 10
9.75087
 20
-145.088
 11
9.26111
 21
-144.997
  0
LINE
  8
0
 10
9.26111
 20
-144.997
 11
8.79649
 21
-144.817
  0
LINE
  8
0
 10
8.79649
 20
-144.817
 11
8.37288
 21
-144.555
  0
LINE
  8
0
 10
8.37288
 20
-144.555
 11
8.00467
 21
-144.219
  0
LINE
  8
0
 10
8.00467
 20
-144.219
 11
7.70441
 21
-143.821
  0
LINE
  8
0
 10
7.70441
 20
-143.821
 11
7.48232
 21
-143.375
  0
LINE
  8
0
 10
7.48232
 20
-143.375
 11
7.34596
 21
-142.896
  0
LINE
  8
0
 10
7.34596
 20
-142.896
 11
7.29999
 21
-142.4
  0
LINE
  8
0
 10
7.29999
 20
-142.4
 11
7.34596
 21
-141.904
  0
LINE
  8
0
 10
7.34596
 20
-141.904
 11
7.48232
 21
-141.425
  0
LINE
  8
0
 10
7.48232
 20
-141.425
 11
7.70441
 21
-140.979
  0
LINE
  8
0
 10
7.70441
 20
-140.979
 11
8.00467
 21
-140.581
  0
LINE
  8
0
 10
8.00467
 20
-140.581
 11
8.37288
 21
-140.245
  0
LINE
  8
0
 10
8.37288
 20
-140.245
 11
8.79649
 21
-139.983
  0
LINE
  8
0
 10
8.79649
 20
-139.983
 11
9.26111
 21
-139.803
  0
LINE
  8
0
 10
9.26111
 20
-139.803
 11
9.75087
 21
-139.712
  0
LINE
  8
0
 10
9.75087
 20
-139.712
 11
10.2491
 21
-139.712
  0
LINE
  8
0
 10
10.2491
 20
-139.712
 11
10.7389
 21
-139.803
  0
LINE
  8
0
 10
10.7389
 20
-139.803
 11
11.2035
 21
-139.983
  0
LINE
  8
0
 10
11.2035
 20
-139.983
 11
11.6271
 21
-140.245
  0
LINE
  8
0
 10
11.6271
 20
-140.245
 11
11.9953
 21
-140.581
  0
LINE
  8
0
 10
11.9953
 20
-140.581
 11
12.2956
 21
-140.979
  0
LINE
  8
0
 10
12.2956
 20
-140.979
 11
12.5177
 21
-141.425
  0
LINE
  8
0
 10
12.5177
 20
-141.425
 11
12.654
 21
-141.904
  0
LINE
  8
0
 10
12.654
 20
-141.904
 11
12.7
 21
-142.4
  0
LINE
  8
0
 10
12.7
 20
-142.4
 11
12.654
 21
-142.896
  0
LINE
  8
0
 10
12.654
 20
-142.896
 11
12.5177
 21
-143.375
  0
LINE
  8
0
 10
12.5177
 20
-143.375
 11
12.2956
 21
-143.821
  0
LINE
  8
0
 10
12.2956
 20
-143.821
 11
11.9953
 21
-144.219
  0
LINE
  8
0
 10
11.9953
 20
-144.219
 11
11.6271
 21
-144.555
  0
LINE
  8
0
 10
11.6271
 20
-144.555
 11
11.2035
 21
-144.817
  0
LINE
  8
0
 10
11.2035
 20
-144.817
 11
10.7389
 21
-144.997
  0
LINE
  8
0
 10
10.7389
 20
-144.997
 11
10.2491
 21
-145.088
  0
LINE
  8
0
 10
10.2491
 20
-145.088
 11
9.75087
 21
-145.088
  0
LINE
  8
0
 10
-42.3185
 20
-143.358
 11
-42.7486
 21
-143.136
  0
LINE
  8
0
 10
-42.7486
 20
-143.136
 11
-43.0988
 21
-142.802
  0
LINE
  8
0
 10
-43.0988
 20
-142.802
 11
-43.3407
 21
-142.383
  0
LINE
  8
0
 10
-43.3407
 20
-142.383
 11
-43.4548
 21
-141.913
  0
LINE
  8
0
 10
-43.4548
 20
-141.913
 11
-43.4318
 21
-141.429
  0
LINE
  8
0
 10
-43.4318
 20
-141.429
 11
-43.2735
 21
-140.972
  0
LINE
  8
0
 10
-43.2735
 20
-140.972
 11
-42.9928
 21
-140.578
  0
LINE
  8
0
 10
-42.9928
 20
-140.578
 11
-42.6125
 21
-140.279
  0
LINE
  8
0
 10
-42.6125
 20
-140.279
 11
-42.1633
 21
-140.099
  0
LINE
  8
0
 10
-42.1633
 20
-140.099
 11
-41.6816
 21
-140.053
  0
LINE
  8
0
 10
-41.6816
 20
-140.053
 11
-41.2065
 21
-140.145
  0
LINE
  8
0
 10
-41.2065
 20
-140.145
 11
-40.7764
 21
-140.366
  0
LINE
  8
0
 10
-40.7764
 20
-140.366
 11
-40.4262
 21
-140.7
  0
LINE
  8
0
 10
-40.4262
 20
-140.7
 11
-40.1843
 21
-141.119
  0
LINE
  8
0
 10
-40.1843
 20
-141.119
 11
-40.0702
 21
-141.59
  0
LINE
  8
0
 10
-40.0702
 20
-141.59
 11
-40.0932
 21
-142.073
  0
LINE
  8
0
 10
-40.0932
 20
-142.073
 11
-40.2515
 21
-142.53
  0
LINE
  8
0
 10
-40.2515
 20
-142.53
 11
-40.5322
 21
-142.924
  0
LINE
  8
0
 10
-40.5322
 20
-142.924
 11
-40.9125
 21
-143.223
  0
LINE
  8
0
 10
-40.9125
 20
-143.223
 11
-41.3617
 21
-143.403
  0
LINE
  8
0
 10
-41.3617
 20
-143.403
 11
-41.8434
 21
-143.449
  0
LINE
  8
0
 10
-41.8434
 20
-143.449
 11
-42.3185
 21
-143.358
  0
LINE
  8
0
 10
-37.4994
 20
-156.982
 11
-37.9962
 21
-156.929
  0
LINE
  8
0
 10
-37.9962
 20
-156.929
 11
-38.4879
 21
-156.84
  0
LINE
  8
0
 10
-38.4879
 20
-156.84
 11
-38.9721
 21
-156.716
  0
LINE
  8
0
 10
-38.9721
 20
-156.716
 11
-39.4462
 21
-156.559
  0
LINE
  8
0
 10
-39.4462
 20
-156.559
 11
-39.9079
 21
-156.367
  0
LINE
  8
0
 10
-39.9079
 20
-156.367
 11
-40.3547
 21
-156.144
  0
LINE
  8
0
 10
-40.3547
 20
-156.144
 11
-40.7845
 21
-155.889
  0
LINE
  8
0
 10
-40.7845
 20
-155.889
 11
-41.1949
 21
-155.604
  0
LINE
  8
0
 10
-41.1949
 20
-155.604
 11
-41.584
 21
-155.29
  0
LINE
  8
0
 10
-41.584
 20
-155.29
 11
-41.9497
 21
-154.95
  0
LINE
  8
0
 10
-41.9497
 20
-154.95
 11
-42.2902
 21
-154.584
  0
LINE
  8
0
 10
-42.2902
 20
-154.584
 11
-42.6038
 21
-154.195
  0
LINE
  8
0
 10
-42.6038
 20
-154.195
 11
-42.8888
 21
-153.784
  0
LINE
  8
0
 10
-42.8888
 20
-153.784
 11
-43.1438
 21
-153.355
  0
LINE
  8
0
 10
-43.1438
 20
-153.355
 11
-43.3674
 21
-152.908
  0
LINE
  8
0
 10
-43.3674
 20
-152.908
 11
-43.5586
 21
-152.446
  0
LINE
  8
0
 10
-43.5586
 20
-152.446
 11
-43.7164
 21
-151.972
  0
LINE
  8
0
 10
-43.7164
 20
-151.972
 11
-43.84
 21
-151.488
  0
LINE
  8
0
 10
-43.84
 20
-151.488
 11
-43.9287
 21
-150.996
  0
LINE
  8
0
 10
-43.9287
 20
-150.996
 11
-43.9822
 21
-150.499
  0
LINE
  8
0
 10
-43.9822
 20
-150.499
 11
-44
 21
-150
  0
LINE
  8
0
 10
-44
 20
-150
 11
-43.9822
 21
-149.501
  0
LINE
  8
0
 10
-43.9822
 20
-149.501
 11
-43.9287
 21
-149.004
  0
LINE
  8
0
 10
-43.9287
 20
-149.004
 11
-43.84
 21
-148.512
  0
LINE
  8
0
 10
-43.84
 20
-148.512
 11
-43.7164
 21
-148.028
  0
LINE
  8
0
 10
-43.7164
 20
-148.028
 11
-43.5586
 21
-147.554
  0
LINE
  8
0
 10
-43.5586
 20
-147.554
 11
-43.3674
 21
-147.092
  0
LINE
  8
0
 10
-43.3674
 20
-147.092
 11
-43.1438
 21
-146.645
  0
LINE
  8
0
 10
-43.1438
 20
-146.645
 11
-42.8888
 21
-146.216
  0
LINE
  8
0
 10
-42.8888
 20
-146.216
 11
-42.6038
 21
-145.805
  0
LINE
  8
0
 10
-42.6038
 20
-145.805
 11
-42.2902
 21
-145.416
  0
LINE
  8
0
 10
-42.2902
 20
-145.416
 11
-41.9497
 21
-145.05
  0
LINE
  8
0
 10
-41.9497
 20
-145.05
 11
-41.584
 21
-144.71
  0
LINE
  8
0
 10
-41.584
 20
-144.71
 11
-41.1949
 21
-144.396
  0
LINE
  8
0
 10
-41.1949
 20
-144.396
 11
-40.7845
 21
-144.111
  0
LINE
  8
0
 10
-40.7845
 20
-144.111
 11
-40.3547
 21
-143.856
  0
LINE
  8
0
 10
-40.3547
 20
-143.856
 11
-39.9079
 21
-143.633
  0
LINE
  8
0
 10
-39.9079
 20
-143.633
 11
-39.4462
 21
-143.441
  0
LINE
  8
0
 10
-39.4462
 20
-143.441
 11
-38.9721
 21
-143.284
  0
LINE
  8
0
 10
-38.9721
 20
-143.284
 11
-38.4879
 21
-143.16
  0
LINE
  8
0
 10
-38.4879
 20
-143.16
 11
-37.9962
 21
-143.071
  0
LINE
  8
0
 10
-37.9962
 20
-143.071
 11
-37.4994
 21
-143.018
  0
LINE
  8
0
 10
-37.4994
 20
-143.018
 11
-37
 21
-143
  0
LINE
  8
0
 10
-37
 20
-143
 11
-36.5006
 21
-143.018
  0
LINE
  8
0
 10
-36.5006
 20
-143.018
 11
-36.0038
 21
-143.071
  0
LINE
  8
0
 10
-36.0038
 20
-143.071
 11
-35.512
 21
-143.16
  0
LINE
  8
0
 10
-35.512
 20
-143.16
 11
-35.0279
 21
-143.284
  0
LINE
  8
0
 10
-35.0279
 20
-143.284
 11
-34.5537
 21
-143.441
  0
LINE
  8
0
 10
-34.5537
 20
-143.441
 11
-34.0921
 21
-143.633
  0
LINE
  8
0
 10
-34.0921
 20
-143.633
 11
-33.6452
 21
-143.856
  0
LINE
  8
0
 10
-33.6452
 20
-143.856
 11
-33.2155
 21
-144.111
  0
LINE
  8
0
 10
-33.2155
 20
-144.111
 11
-32.8051
 21
-144.396
  0
LINE
  8
0
 10
-32.8051
 20
-144.396
 11
-32.416
 21
-144.71
  0
LINE
  8
0
 10
-32.416
 20
-144.71
 11
-32.0502
 21
-145.05
  0
LINE
  8
0
 10
-32.0502
 20
-145.05
 11
-31.7097
 21
-145.416
  0
LINE
  8
0
 10
-31.7097
 20
-145.416
 11
-31.3962
 21
-145.805
  0
LINE
  8
0
 10
-31.3962
 20
-145.805
 11
-31.1112
 21
-146.216
  0
LINE
  8
0
 10
-31.1112
 20
-146.216
 11
-30.8562
 21
-146.645
  0
LINE
  8
0
 10
-30.8562
 20
-146.645
 11
-30.6326
 21
-147.092
  0
LINE
  8
0
 10
-30.6326
 20
-147.092
 11
-30.4413
 21
-147.554
  0
LINE
  8
0
 10
-30.4413
 20
-147.554
 11
-30.2835
 21
-148.028
  0
LINE
  8
0
 10
-30.2835
 20
-148.028
 11
-30.16
 21
-148.512
  0
LINE
  8
0
 10
-30.16
 20
-148.512
 11
-30.0712
 21
-149.004
  0
LINE
  8
0
 10
-30.0712
 20
-149.004
 11
-30.0178
 21
-149.501
  0
LINE
  8
0
 10
-30.0178
 20
-149.501
 11
-30
 21
-150
  0
LINE
  8
0
 10
-30
 20
-150
 11
-30.0178
 21
-150.499
  0
LINE
  8
0
 10
-30.0178
 20
-150.499
 11
-30.0712
 21
-150.996
  0
LINE
  8
0
 10
-30.0712
 20
-150.996
 11
-30.16
 21
-151.488
  0
LINE
  8
0
 10
-30.16
 20
-151.488
 11
-30.2835
 21
-151.972
  0
LINE
  8
0
 10
-30.2835
 20
-151.972
 11
-30.4413
 21
-152.446
  0
LINE
  8
0
 10
-30.4413
 20
-152.446
 11
-30.6326
 21
-152.908
  0
LINE
  8
0
 10
-30.6326
 20
-152.908
 11
-30.8562
 21
-153.355
  0
LINE
  8
0
 10
-30.8562
 20
-153.355
 11
-31.1112
 21
-153.784
  0
LINE
  8
0
 10
-31.1112
 20
-153.784
 11
-31.3962
 21
-154.195
  0
LINE
  8
0
 10
-31.3962
 20
-154.195
 11
-31.7097
 21
-154.584
  0
LINE
  8
0
 10
-31.7097
 20
-154.584
 11
-32.0502
 21
-154.95
  0
LINE
  8
0
 10
-32.0502
 20
-154.95
 11
-32.416
 21
-155.29
  0
LINE
  8
0
 10
-32.416
 20
-155.29
 11
-32.8051
 21
-155.604
  0
LINE
  8
0
 10
-32.8051
 20
-155.604
 11
-33.2155
 21
-155.889
  0
LINE
  8
0
 10
-33.2155
 20
-155.889
 11
-33.6452
 21
-156.144
  0
LINE
  8
0
 10
-33.6452
 20
-156.144
 11
-34.0921
 21
-156.367
  0
LINE
  8
0
 10
-34.0921
 20
-156.367
 11
-34.5537
 21
-156.559
  0
LINE
  8
0
 10
-34.5537
 20
-156.559
 11
-35.0279
 21
-156.716
  0
LINE
  8
0
 10
-35.0279
 20
-156.716
 11
-35.512
 21
-156.84
  0
LINE
  8
0
 10
-35.512
 20
-156.84
 11
-36.0038
 21
-156.929
  0
LINE
  8
0
 10
-36.0038
 20
-156.929
 11
-36.5006
 21
-156.982
  0
LINE
  8
0
 10
-36.5006
 20
-156.982
 11
-37
 21
-157
  0
LINE
  8
0
 10
-37
 20
-157
 11
-37.4994
 21
-156.982
  0
LINE
  8
0
 10
-27.7169
 20
-151.683
 11
-28.1812
 21
-151.546
  0
LINE
  8
0
 10
-28.1812
 20
-151.546
 11
-28.5883
 21
-151.285
  0
LINE
  8
0
 10
-28.5883
 20
-151.285
 11
-28.9051
 21
-150.919
  0
LINE
  8
0
 10
-28.9051
 20
-150.919
 11
-29.1061
 21
-150.479
  0
LINE
  8
0
 10
-29.1061
 20
-150.479
 11
-29.175
 21
-150
  0
LINE
  8
0
 10
-29.175
 20
-150
 11
-29.1061
 21
-149.521
  0
LINE
  8
0
 10
-29.1061
 20
-149.521
 11
-28.9051
 21
-149.081
  0
LINE
  8
0
 10
-28.9051
 20
-149.081
 11
-28.5883
 21
-148.715
  0
LINE
  8
0
 10
-28.5883
 20
-148.715
 11
-28.1812
 21
-148.454
  0
LINE
  8
0
 10
-28.1812
 20
-148.454
 11
-27.7169
 21
-148.317
  0
LINE
  8
0
 10
-27.7169
 20
-148.317
 11
-27.2331
 21
-148.317
  0
LINE
  8
0
 10
-27.2331
 20
-148.317
 11
-26.7688
 21
-148.454
  0
LINE
  8
0
 10
-26.7688
 20
-148.454
 11
-26.3617
 21
-148.715
  0
LINE
  8
0
 10
-26.3617
 20
-148.715
 11
-26.0449
 21
-149.081
  0
LINE
  8
0
 10
-26.0449
 20
-149.081
 11
-25.8439
 21
-149.521
  0
LINE
  8
0
 10
-25.8439
 20
-149.521
 11
-25.775
 21
-150
  0
LINE
  8
0
 10
-25.775
 20
-150
 11
-25.8439
 21
-150.479
  0
LINE
  8
0
 10
-25.8439
 20
-150.479
 11
-26.0449
 21
-150.919
  0
LINE
  8
0
 10
-26.0449
 20
-150.919
 11
-26.3617
 21
-151.285
  0
LINE
  8
0
 10
-26.3617
 20
-151.285
 11
-26.7688
 21
-151.546
  0
LINE
  8
0
 10
-26.7688
 20
-151.546
 11
-27.2331
 21
-151.683
  0
LINE
  8
0
 10
-27.2331
 20
-151.683
 11
-27.7169
 21
-151.683
  0
LINE
  8
0
 10
-42.1633
 20
-159.901
 11
-42.6125
 21
-159.721
  0
LINE
  8
0
 10
-42.6125
 20
-159.721
 11
-42.9928
 21
-159.422
  0
LINE
  8
0
 10
-42.9928
 20
-159.422
 11
-43.2735
 21
-159.028
  0
LINE
  8
0
 10
-43.2735
 20
-159.028
 11
-43.4318
 21
-158.571
  0
LINE
  8
0
 10
-43.4318
 20
-158.571
 11
-43.4548
 21
-158.087
  0
LINE
  8
0
 10
-43.4548
 20
-158.087
 11
-43.3407
 21
-157.617
  0
LINE
  8
0
 10
-43.3407
 20
-157.617
 11
-43.0988
 21
-157.198
  0
LINE
  8
0
 10
-43.0988
 20
-157.198
 11
-42.7486
 21
-156.864
  0
LINE
  8
0
 10
-42.7486
 20
-156.864
 11
-42.3185
 21
-156.642
  0
LINE
  8
0
 10
-42.3185
 20
-156.642
 11
-41.8434
 21
-156.551
  0
LINE
  8
0
 10
-41.8434
 20
-156.551
 11
-41.3617
 21
-156.597
  0
LINE
  8
0
 10
-41.3617
 20
-156.597
 11
-40.9125
 21
-156.777
  0
LINE
  8
0
 10
-40.9125
 20
-156.777
 11
-40.5322
 21
-157.076
  0
LINE
  8
0
 10
-40.5322
 20
-157.076
 11
-40.2515
 21
-157.47
  0
LINE
  8
0
 10
-40.2515
 20
-157.47
 11
-40.0932
 21
-157.927
  0
LINE
  8
0
 10
-40.0932
 20
-157.927
 11
-40.0702
 21
-158.41
  0
LINE
  8
0
 10
-40.0702
 20
-158.41
 11
-40.1843
 21
-158.881
  0
LINE
  8
0
 10
-40.1843
 20
-158.881
 11
-40.4262
 21
-159.3
  0
LINE
  8
0
 10
-40.4262
 20
-159.3
 11
-40.7764
 21
-159.634
  0
LINE
  8
0
 10
-40.7764
 20
-159.634
 11
-41.2065
 21
-159.855
  0
LINE
  8
0
 10
-41.2065
 20
-159.855
 11
-41.6816
 21
-159.947
  0
LINE
  8
0
 10
-41.6816
 20
-159.947
 11
-42.1633
 21
-159.901
  0
ENDSEC
  0
SECTION
  2
OBJECTS
  0
DICTIONARY
  0
ENDSEC
  0
EOF
