  0
SECTION
  2
BLOCKS
  0
ENDSEC
  0
SECTION
  2
ENTITIES
  0
LINE
  8
0
 10
40
 20
22.204
 11
44.875
 21
22.204
  0
LINE
  8
0
 10
44.875
 20
22.204
 11
46.5
 21
23.829
  0
LINE
  8
0
 10
46.5
 20
23.829
 11
46.5
 21
35.579
  0
LINE
  8
0
 10
46.5
 20
35.579
 11
44.875
 21
37.204
  0
LINE
  8
0
 10
44.875
 20
37.204
 11
40
 21
37.204
  0
LINE
  8
0
 10
40
 20
37.204
 11
40
 21
42.141
  0
LINE
  8
0
 10
40
 20
42.141
 11
32.9375
 21
42.141
  0
LINE
  8
0
 10
32.9375
 20
42.141
 11
32.9375
 21
40.004
  0
LINE
  8
0
 10
32.9375
 20
40.004
 11
27.5625
 21
40.004
  0
LINE
  8
0
 10
27.5625
 20
40.004
 11
27.5625
 21
42.141
  0
LINE
  8
0
 10
27.5625
 20
42.141
 11
26.1875
 21
42.141
  0
LINE
  8
0
 10
26.1875
 20
42.141
 11
26.1875
 21
47.267
  0
LINE
  8
0
 10
26.1875
 20
47.267
 11
27.5625
 21
47.267
  0
LINE
  8
0
 10
27.5625
 20
47.267
 11
27.5625
 21
49.404
  0
LINE
  8
0
 10
27.5625
 20
49.404
 11
32.9375
 21
49.404
  0
LINE
  8
0
 10
32.9375
 20
49.404
 11
32.9375
 21
47.267
  0
LINE
  8
0
 10
32.9375
 20
47.267
 11
40
 21
47.267
  0
LINE
  8
0
 10
40
 20
47.267
 11
40
 21
52.204
  0
LINE
  8
0
 10
40
 20
52.204
 11
44.875
 21
52.204
  0
LINE
  8
0
 10
44.875
 20
52.204
 11
46.5
 21
53.829
  0
LINE
  8
0
 10
46.5
 20
53.829
 11
46.5
 21
65.579
  0
LINE
  8
0
 10
46.5
 20
65.579
 11
44.875
 21
67.204
  0
LINE
  8
0
 10
44.875
 20
67.204
 11
40
 21
67.204
  0
LINE
  8
0
 10
40
 20
67.204
 11
40
 21
101.452
  0
LINE
  8
0
 10
40
 20
101.452
 11
44.875
 21
101.452
  0
LINE
  8
0
 10
44.875
 20
101.452
 11
46.5
 21
103.077
  0
LINE
  8
0
 10
46.5
 20
103.077
 11
46.5
 21
114.827
  0
LINE
  8
0
 10
46.5
 20
114.827
 11
44.875
 21
116.452
  0
LINE
  8
0
 10
44.875
 20
116.452
 11
40
 21
116.452
  0
LINE
  8
0
 10
40
 20
116.452
 11
40
 21
121.389
  0
LINE
  8
0
 10
40
 20
121.389
 11
32.9375
 21
121.389
  0
LINE
  8
0
 10
32.9375
 20
121.389
 11
32.9375
 21
119.252
  0
LINE
  8
0
 10
32.9375
 20
119.252
 11
27.5625
 21
119.252
  0
LINE
  8
0
 10
27.5625
 20
119.252
 11
27.5625
 21
121.389
  0
LINE
  8
0
 10
27.5625
 20
121.389
 11
26.1875
 21
121.389
  0
LINE
  8
0
 10
26.1875
 20
121.389
 11
26.1875
 21
126.515
  0
LINE
  8
0
 10
26.1875
 20
126.515
 11
27.5625
 21
126.515
  0
LINE
  8
0
 10
27.5625
 20
126.515
 11
27.5625
 21
128.652
  0
LINE
  8
0
 10
27.5625
 20
128.652
 11
32.9375
 21
128.652
  0
LINE
  8
0
 10
32.9375
 20
128.652
 11
32.9375
 21
126.515
  0
LINE
  8
0
 10
32.9375
 20
126.515
 11
40
 21
126.515
  0
LINE
  8
0
 10
40
 20
126.515
 11
40
 21
131.452
  0
LINE
  8
0
 10
40
 20
131.452
 11
44.875
 21
131.452
  0
LINE
  8
0
 10
44.875
 20
131.452
 11
46.5
 21
133.077
  0
LINE
  8
0
 10
46.5
 20
133.077
 11
46.5
 21
144.827
  0
LINE
  8
0
 10
46.5
 20
144.827
 11
44.875
 21
146.452
  0
LINE
  8
0
 10
44.875
 20
146.452
 11
40
 21
146.452
  0
LINE
  8
0
 10
40
 20
146.452
 11
40
 21
152.4
  0
LINE
  8
0
 10
40
 20
152.4
 11
-40
 21
152.4
  0
LINE
  8
0
 10
-40
 20
152.4
 11
-40
 21
146.452
  0
LINE
  8
0
 10
-40
 20
146.452
 11
-44.875
 21
146.452
  0
LINE
  8
0
 10
-44.875
 20
146.452
 11
-46.5
 21
144.827
  0
LINE
  8
0
 10
-46.5
 20
144.827
 11
-46.5
 21
133.077
  0
LINE
  8
0
 10
-46.5
 20
133.077
 11
-44.875
 21
131.452
  0
LINE
  8
0
 10
-44.875
 20
131.452
 11
-40
 21
131.452
  0
LINE
  8
0
 10
-40
 20
131.452
 11
-40
 21
126.515
  0
LINE
  8
0
 10
-40
 20
126.515
 11
-32.9375
 21
126.515
  0
LINE
  8
0
 10
-32.9375
 20
126.515
 11
-32.9375
 21
128.652
  0
LINE
  8
0
 10
-32.9375
 20
128.652
 11
-27.5625
 21
128.652
  0
LINE
  8
0
 10
-27.5625
 20
128.652
 11
-27.5625
 21
126.515
  0
LINE
  8
0
 10
-27.5625
 20
126.515
 11
-26.1875
 21
126.515
  0
LINE
  8
0
 10
-26.1875
 20
126.515
 11
-26.1875
 21
121.389
  0
LINE
  8
0
 10
-26.1875
 20
121.389
 11
-27.5625
 21
121.389
  0
LINE
  8
0
 10
-27.5625
 20
121.389
 11
-27.5625
 21
119.252
  0
LINE
  8
0
 10
-27.5625
 20
119.252
 11
-32.9375
 21
119.252
  0
LINE
  8
0
 10
-32.9375
 20
119.252
 11
-32.9375
 21
121.389
  0
LINE
  8
0
 10
-32.9375
 20
121.389
 11
-40
 21
121.389
  0
LINE
  8
0
 10
-40
 20
121.389
 11
-40
 21
116.452
  0
LINE
  8
0
 10
-40
 20
116.452
 11
-44.875
 21
116.452
  0
LINE
  8
0
 10
-44.875
 20
116.452
 11
-46.5
 21
114.827
  0
LINE
  8
0
 10
-46.5
 20
114.827
 11
-46.5
 21
103.077
  0
LINE
  8
0
 10
-46.5
 20
103.077
 11
-44.875
 21
101.452
  0
LINE
  8
0
 10
-44.875
 20
101.452
 11
-40
 21
101.452
  0
LINE
  8
0
 10
-40
 20
101.452
 11
-40
 21
67.204
  0
LINE
  8
0
 10
-40
 20
67.204
 11
-44.875
 21
67.204
  0
LINE
  8
0
 10
-44.875
 20
67.204
 11
-46.5
 21
65.579
  0
LINE
  8
0
 10
-46.5
 20
65.579
 11
-46.5
 21
53.829
  0
LINE
  8
0
 10
-46.5
 20
53.829
 11
-44.875
 21
52.204
  0
LINE
  8
0
 10
-44.875
 20
52.204
 11
-40
 21
52.204
  0
LINE
  8
0
 10
-40
 20
52.204
 11
-40
 21
47.267
  0
LINE
  8
0
 10
-40
 20
47.267
 11
-32.9375
 21
47.267
  0
LINE
  8
0
 10
-32.9375
 20
47.267
 11
-32.9375
 21
49.404
  0
LINE
  8
0
 10
-32.9375
 20
49.404
 11
-27.5625
 21
49.404
  0
LINE
  8
0
 10
-27.5625
 20
49.404
 11
-27.5625
 21
47.267
  0
LINE
  8
0
 10
-27.5625
 20
47.267
 11
-26.1875
 21
47.267
  0
LINE
  8
0
 10
-26.1875
 20
47.267
 11
-26.1875
 21
42.141
  0
LINE
  8
0
 10
-26.1875
 20
42.141
 11
-27.5625
 21
42.141
  0
LINE
  8
0
 10
-27.5625
 20
42.141
 11
-27.5625
 21
40.004
  0
LINE
  8
0
 10
-27.5625
 20
40.004
 11
-32.9375
 21
40.004
  0
LINE
  8
0
 10
-32.9375
 20
40.004
 11
-32.9375
 21
42.141
  0
LINE
  8
0
 10
-32.9375
 20
42.141
 11
-40
 21
42.141
  0
LINE
  8
0
 10
-40
 20
42.141
 11
-40
 21
37.204
  0
LINE
  8
0
 10
-40
 20
37.204
 11
-44.875
 21
37.204
  0
LINE
  8
0
 10
-44.875
 20
37.204
 11
-46.5
 21
35.579
  0
LINE
  8
0
 10
-46.5
 20
35.579
 11
-46.5
 21
23.829
  0
LINE
  8
0
 10
-46.5
 20
23.829
 11
-44.875
 21
22.204
  0
LINE
  8
0
 10
-44.875
 20
22.204
 11
-40
 21
22.204
  0
LINE
  8
0
 10
-40
 20
22.204
 11
-40
 21
20
  0
LINE
  8
0
 10
-40
 20
20
 11
40
 21
20
  0
LINE
  8
0
 10
40
 20
20
 11
40
 21
22.204
  0
LINE
  8
0
 10
29.7509
 20
139.712
 11
29.2611
 21
139.803
  0
LINE
  8
0
 10
29.2611
 20
139.803
 11
28.7965
 21
139.983
  0
LINE
  8
0
 10
28.7965
 20
139.983
 11
28.3729
 21
140.245
  0
LINE
  8
0
 10
28.3729
 20
140.245
 11
28.0047
 21
140.581
  0
LINE
  8
0
 10
28.0047
 20
140.581
 11
27.7044
 21
140.979
  0
LINE
  8
0
 10
27.7044
 20
140.979
 11
27.4823
 21
141.425
  0
LINE
  8
0
 10
27.4823
 20
141.425
 11
27.346
 21
141.904
  0
LINE
  8
0
 10
27.346
 20
141.904
 11
27.3
 21
142.4
  0
LINE
  8
0
 10
27.3
 20
142.4
 11
27.346
 21
142.896
  0
LINE
  8
0
 10
27.346
 20
142.896
 11
27.4823
 21
143.375
  0
LINE
  8
0
 10
27.4823
 20
143.375
 11
27.7044
 21
143.821
  0
LINE
  8
0
 10
27.7044
 20
143.821
 11
28.0047
 21
144.219
  0
LINE
  8
0
 10
28.0047
 20
144.219
 11
28.3729
 21
144.555
  0
LINE
  8
0
 10
28.3729
 20
144.555
 11
28.7965
 21
144.817
  0
LINE
  8
0
 10
28.7965
 20
144.817
 11
29.2611
 21
144.997
  0
LINE
  8
0
 10
29.2611
 20
144.997
 11
29.7509
 21
145.088
  0
LINE
  8
0
 10
29.7509
 20
145.088
 11
30.2491
 21
145.088
  0
LINE
  8
0
 10
30.2491
 20
145.088
 11
30.7389
 21
144.997
  0
LINE
  8
0
 10
30.7389
 20
144.997
 11
31.2035
 21
144.817
  0
LINE
  8
0
 10
31.2035
 20
144.817
 11
31.6271
 21
144.555
  0
LINE
  8
0
 10
31.6271
 20
144.555
 11
31.9953
 21
144.219
  0
LINE
  8
0
 10
31.9953
 20
144.219
 11
32.2956
 21
143.821
  0
LINE
  8
0
 10
32.2956
 20
143.821
 11
32.5177
 21
143.375
  0
LINE
  8
0
 10
32.5177
 20
143.375
 11
32.654
 21
142.896
  0
LINE
  8
0
 10
32.654
 20
142.896
 11
32.7
 21
142.4
  0
LINE
  8
0
 10
32.7
 20
142.4
 11
32.654
 21
141.904
  0
LINE
  8
0
 10
32.654
 20
141.904
 11
32.5177
 21
141.425
  0
LINE
  8
0
 10
32.5177
 20
141.425
 11
32.2956
 21
140.979
  0
LINE
  8
0
 10
32.2956
 20
140.979
 11
31.9953
 21
140.581
  0
LINE
  8
0
 10
31.9953
 20
140.581
 11
31.6271
 21
140.245
  0
LINE
  8
0
 10
31.6271
 20
140.245
 11
31.2035
 21
139.983
  0
LINE
  8
0
 10
31.2035
 20
139.983
 11
30.7389
 21
139.803
  0
LINE
  8
0
 10
30.7389
 20
139.803
 11
30.2491
 21
139.712
  0
LINE
  8
0
 10
30.2491
 20
139.712
 11
29.7509
 21
139.712
  0
LINE
  8
0
 10
-30.2491
 20
139.712
 11
-30.7389
 21
139.803
  0
LINE
  8
0
 10
-30.7389
 20
139.803
 11
-31.2035
 21
139.983
  0
LINE
  8
0
 10
-31.2035
 20
139.983
 11
-31.6271
 21
140.245
  0
LINE
  8
0
 10
-31.6271
 20
140.245
 11
-31.9953
 21
140.581
  0
LINE
  8
0
 10
-31.9953
 20
140.581
 11
-32.2956
 21
140.979
  0
LINE
  8
0
 10
-32.2956
 20
140.979
 11
-32.5177
 21
141.425
  0
LINE
  8
0
 10
-32.5177
 20
141.425
 11
-32.654
 21
141.904
  0
LINE
  8
0
 10
-32.654
 20
141.904
 11
-32.7
 21
142.4
  0
LINE
  8
0
 10
-32.7
 20
142.4
 11
-32.654
 21
142.896
  0
LINE
  8
0
 10
-32.654
 20
142.896
 11
-32.5177
 21
143.375
  0
LINE
  8
0
 10
-32.5177
 20
143.375
 11
-32.2956
 21
143.821
  0
LINE
  8
0
 10
-32.2956
 20
143.821
 11
-31.9953
 21
144.219
  0
LINE
  8
0
 10
-31.9953
 20
144.219
 11
-31.6271
 21
144.555
  0
LINE
  8
0
 10
-31.6271
 20
144.555
 11
-31.2035
 21
144.817
  0
LINE
  8
0
 10
-31.2035
 20
144.817
 11
-30.7389
 21
144.997
  0
LINE
  8
0
 10
-30.7389
 20
144.997
 11
-30.2491
 21
145.088
  0
LINE
  8
0
 10
-30.2491
 20
145.088
 11
-29.7509
 21
145.088
  0
LINE
  8
0
 10
-29.7509
 20
145.088
 11
-29.2611
 21
144.997
  0
LINE
  8
0
 10
-29.2611
 20
144.997
 11
-28.7965
 21
144.817
  0
LINE
  8
0
 10
-28.7965
 20
144.817
 11
-28.3729
 21
144.555
  0
LINE
  8
0
 10
-28.3729
 20
144.555
 11
-28.0047
 21
144.219
  0
LINE
  8
0
 10
-28.0047
 20
144.219
 11
-27.7044
 21
143.821
  0
LINE
  8
0
 10
-27.7044
 20
143.821
 11
-27.4823
 21
143.375
  0
LINE
  8
0
 10
-27.4823
 20
143.375
 11
-27.346
 21
142.896
  0
LINE
  8
0
 10
-27.346
 20
142.896
 11
-27.3
 21
142.4
  0
LINE
  8
0
 10
-27.3
 20
142.4
 11
-27.346
 21
141.904
  0
LINE
  8
0
 10
-27.346
 20
141.904
 11
-27.4823
 21
141.425
  0
LINE
  8
0
 10
-27.4823
 20
141.425
 11
-27.7044
 21
140.979
  0
LINE
  8
0
 10
-27.7044
 20
140.979
 11
-28.0047
 21
140.581
  0
LINE
  8
0
 10
-28.0047
 20
140.581
 11
-28.3729
 21
140.245
  0
LINE
  8
0
 10
-28.3729
 20
140.245
 11
-28.7965
 21
139.983
  0
LINE
  8
0
 10
-28.7965
 20
139.983
 11
-29.2611
 21
139.803
  0
LINE
  8
0
 10
-29.2611
 20
139.803
 11
-29.7509
 21
139.712
  0
LINE
  8
0
 10
-29.7509
 20
139.712
 11
-30.2491
 21
139.712
  0
LINE
  8
0
 10
40
 20
-146.452
 11
44.875
 21
-146.452
  0
LINE
  8
0
 10
44.875
 20
-146.452
 11
46.5
 21
-144.827
  0
LINE
  8
0
 10
46.5
 20
-144.827
 11
46.5
 21
-133.077
  0
LINE
  8
0
 10
46.5
 20
-133.077
 11
44.875
 21
-131.452
  0
LINE
  8
0
 10
44.875
 20
-131.452
 11
40
 21
-131.452
  0
LINE
  8
0
 10
40
 20
-131.452
 11
40
 21
-126.515
  0
LINE
  8
0
 10
40
 20
-126.515
 11
32.9375
 21
-126.515
  0
LINE
  8
0
 10
32.9375
 20
-126.515
 11
32.9375
 21
-128.652
  0
LINE
  8
0
 10
32.9375
 20
-128.652
 11
27.5625
 21
-128.652
  0
LINE
  8
0
 10
27.5625
 20
-128.652
 11
27.5625
 21
-126.515
  0
LINE
  8
0
 10
27.5625
 20
-126.515
 11
26.1875
 21
-126.515
  0
LINE
  8
0
 10
26.1875
 20
-126.515
 11
26.1875
 21
-121.389
  0
LINE
  8
0
 10
26.1875
 20
-121.389
 11
27.5625
 21
-121.389
  0
LINE
  8
0
 10
27.5625
 20
-121.389
 11
27.5625
 21
-119.252
  0
LINE
  8
0
 10
27.5625
 20
-119.252
 11
32.9375
 21
-119.252
  0
LINE
  8
0
 10
32.9375
 20
-119.252
 11
32.9375
 21
-121.389
  0
LINE
  8
0
 10
32.9375
 20
-121.389
 11
40
 21
-121.389
  0
LINE
  8
0
 10
40
 20
-121.389
 11
40
 21
-116.452
  0
LINE
  8
0
 10
40
 20
-116.452
 11
44.875
 21
-116.452
  0
LINE
  8
0
 10
44.875
 20
-116.452
 11
46.5
 21
-114.827
  0
LINE
  8
0
 10
46.5
 20
-114.827
 11
46.5
 21
-103.077
  0
LINE
  8
0
 10
46.5
 20
-103.077
 11
44.875
 21
-101.452
  0
LINE
  8
0
 10
44.875
 20
-101.452
 11
40
 21
-101.452
  0
LINE
  8
0
 10
40
 20
-101.452
 11
40
 21
-67.204
  0
LINE
  8
0
 10
40
 20
-67.204
 11
44.875
 21
-67.204
  0
LINE
  8
0
 10
44.875
 20
-67.204
 11
46.5
 21
-65.579
  0
LINE
  8
0
 10
46.5
 20
-65.579
 11
46.5
 21
-53.829
  0
LINE
  8
0
 10
46.5
 20
-53.829
 11
44.875
 21
-52.204
  0
LINE
  8
0
 10
44.875
 20
-52.204
 11
40
 21
-52.204
  0
LINE
  8
0
 10
40
 20
-52.204
 11
40
 21
-47.267
  0
LINE
  8
0
 10
40
 20
-47.267
 11
32.9375
 21
-47.267
  0
LINE
  8
0
 10
32.9375
 20
-47.267
 11
32.9375
 21
-49.404
  0
LINE
  8
0
 10
32.9375
 20
-49.404
 11
27.5625
 21
-49.404
  0
LINE
  8
0
 10
27.5625
 20
-49.404
 11
27.5625
 21
-47.267
  0
LINE
  8
0
 10
27.5625
 20
-47.267
 11
26.1875
 21
-47.267
  0
LINE
  8
0
 10
26.1875
 20
-47.267
 11
26.1875
 21
-42.141
  0
LINE
  8
0
 10
26.1875
 20
-42.141
 11
27.5625
 21
-42.141
  0
LINE
  8
0
 10
27.5625
 20
-42.141
 11
27.5625
 21
-40.004
  0
LINE
  8
0
 10
27.5625
 20
-40.004
 11
32.9375
 21
-40.004
  0
LINE
  8
0
 10
32.9375
 20
-40.004
 11
32.9375
 21
-42.141
  0
LINE
  8
0
 10
32.9375
 20
-42.141
 11
40
 21
-42.141
  0
LINE
  8
0
 10
40
 20
-42.141
 11
40
 21
-37.204
  0
LINE
  8
0
 10
40
 20
-37.204
 11
44.875
 21
-37.204
  0
LINE
  8
0
 10
44.875
 20
-37.204
 11
46.5
 21
-35.579
  0
LINE
  8
0
 10
46.5
 20
-35.579
 11
46.5
 21
-23.829
  0
LINE
  8
0
 10
46.5
 20
-23.829
 11
44.875
 21
-22.204
  0
LINE
  8
0
 10
44.875
 20
-22.204
 11
40
 21
-22.204
  0
LINE
  8
0
 10
40
 20
-22.204
 11
40
 21
-20
  0
LINE
  8
0
 10
40
 20
-20
 11
-40
 21
-20
  0
LINE
  8
0
 10
-40
 20
-20
 11
-40
 21
-22.204
  0
LINE
  8
0
 10
-40
 20
-22.204
 11
-44.875
 21
-22.204
  0
LINE
  8
0
 10
-44.875
 20
-22.204
 11
-46.5
 21
-23.829
  0
LINE
  8
0
 10
-46.5
 20
-23.829
 11
-46.5
 21
-35.579
  0
LINE
  8
0
 10
-46.5
 20
-35.579
 11
-44.875
 21
-37.204
  0
LINE
  8
0
 10
-44.875
 20
-37.204
 11
-40
 21
-37.204
  0
LINE
  8
0
 10
-40
 20
-37.204
 11
-40
 21
-42.141
  0
LINE
  8
0
 10
-40
 20
-42.141
 11
-32.9375
 21
-42.141
  0
LINE
  8
0
 10
-32.9375
 20
-42.141
 11
-32.9375
 21
-40.004
  0
LINE
  8
0
 10
-32.9375
 20
-40.004
 11
-27.5625
 21
-40.004
  0
LINE
  8
0
 10
-27.5625
 20
-40.004
 11
-27.5625
 21
-42.141
  0
LINE
  8
0
 10
-27.5625
 20
-42.141
 11
-26.1875
 21
-42.141
  0
LINE
  8
0
 10
-26.1875
 20
-42.141
 11
-26.1875
 21
-47.267
  0
LINE
  8
0
 10
-26.1875
 20
-47.267
 11
-27.5625
 21
-47.267
  0
LINE
  8
0
 10
-27.5625
 20
-47.267
 11
-27.5625
 21
-49.404
  0
LINE
  8
0
 10
-27.5625
 20
-49.404
 11
-32.9375
 21
-49.404
  0
LINE
  8
0
 10
-32.9375
 20
-49.404
 11
-32.9375
 21
-47.267
  0
LINE
  8
0
 10
-32.9375
 20
-47.267
 11
-40
 21
-47.267
  0
LINE
  8
0
 10
-40
 20
-47.267
 11
-40
 21
-52.204
  0
LINE
  8
0
 10
-40
 20
-52.204
 11
-44.875
 21
-52.204
  0
LINE
  8
0
 10
-44.875
 20
-52.204
 11
-46.5
 21
-53.829
  0
LINE
  8
0
 10
-46.5
 20
-53.829
 11
-46.5
 21
-65.579
  0
LINE
  8
0
 10
-46.5
 20
-65.579
 11
-44.875
 21
-67.204
  0
LINE
  8
0
 10
-44.875
 20
-67.204
 11
-40
 21
-67.204
  0
LINE
  8
0
 10
-40
 20
-67.204
 11
-40
 21
-101.452
  0
LINE
  8
0
 10
-40
 20
-101.452
 11
-44.875
 21
-101.452
  0
LINE
  8
0
 10
-44.875
 20
-101.452
 11
-46.5
 21
-103.077
  0
LINE
  8
0
 10
-46.5
 20
-103.077
 11
-46.5
 21
-114.827
  0
LINE
  8
0
 10
-46.5
 20
-114.827
 11
-44.875
 21
-116.452
  0
LINE
  8
0
 10
-44.875
 20
-116.452
 11
-40
 21
-116.452
  0
LINE
  8
0
 10
-40
 20
-116.452
 11
-40
 21
-121.389
  0
LINE
  8
0
 10
-40
 20
-121.389
 11
-32.9375
 21
-121.389
  0
LINE
  8
0
 10
-32.9375
 20
-121.389
 11
-32.9375
 21
-119.252
  0
LINE
  8
0
 10
-32.9375
 20
-119.252
 11
-27.5625
 21
-119.252
  0
LINE
  8
0
 10
-27.5625
 20
-119.252
 11
-27.5625
 21
-121.389
  0
LINE
  8
0
 10
-27.5625
 20
-121.389
 11
-26.1875
 21
-121.389
  0
LINE
  8
0
 10
-26.1875
 20
-121.389
 11
-26.1875
 21
-126.515
  0
LINE
  8
0
 10
-26.1875
 20
-126.515
 11
-27.5625
 21
-126.515
  0
LINE
  8
0
 10
-27.5625
 20
-126.515
 11
-27.5625
 21
-128.652
  0
LINE
  8
0
 10
-27.5625
 20
-128.652
 11
-32.9375
 21
-128.652
  0
LINE
  8
0
 10
-32.9375
 20
-128.652
 11
-32.9375
 21
-126.515
  0
LINE
  8
0
 10
-32.9375
 20
-126.515
 11
-40
 21
-126.515
  0
LINE
  8
0
 10
-40
 20
-126.515
 11
-40
 21
-131.452
  0
LINE
  8
0
 10
-40
 20
-131.452
 11
-44.875
 21
-131.452
  0
LINE
  8
0
 10
-44.875
 20
-131.452
 11
-46.5
 21
-133.077
  0
LINE
  8
0
 10
-46.5
 20
-133.077
 11
-46.5
 21
-144.827
  0
LINE
  8
0
 10
-46.5
 20
-144.827
 11
-44.875
 21
-146.452
  0
LINE
  8
0
 10
-44.875
 20
-146.452
 11
-40
 21
-146.452
  0
LINE
  8
0
 10
-40
 20
-146.452
 11
-40
 21
-152.4
  0
LINE
  8
0
 10
-40
 20
-152.4
 11
40
 21
-152.4
  0
LINE
  8
0
 10
40
 20
-152.4
 11
40
 21
-146.452
  0
LINE
  8
0
 10
-30.2491
 20
-145.088
 11
-30.7389
 21
-144.997
  0
LINE
  8
0
 10
-30.7389
 20
-144.997
 11
-31.2035
 21
-144.817
  0
LINE
  8
0
 10
-31.2035
 20
-144.817
 11
-31.6271
 21
-144.555
  0
LINE
  8
0
 10
-31.6271
 20
-144.555
 11
-31.9953
 21
-144.219
  0
LINE
  8
0
 10
-31.9953
 20
-144.219
 11
-32.2956
 21
-143.821
  0
LINE
  8
0
 10
-32.2956
 20
-143.821
 11
-32.5177
 21
-143.375
  0
LINE
  8
0
 10
-32.5177
 20
-143.375
 11
-32.654
 21
-142.896
  0
LINE
  8
0
 10
-32.654
 20
-142.896
 11
-32.7
 21
-142.4
  0
LINE
  8
0
 10
-32.7
 20
-142.4
 11
-32.654
 21
-141.904
  0
LINE
  8
0
 10
-32.654
 20
-141.904
 11
-32.5177
 21
-141.425
  0
LINE
  8
0
 10
-32.5177
 20
-141.425
 11
-32.2956
 21
-140.979
  0
LINE
  8
0
 10
-32.2956
 20
-140.979
 11
-31.9953
 21
-140.581
  0
LINE
  8
0
 10
-31.9953
 20
-140.581
 11
-31.6271
 21
-140.245
  0
LINE
  8
0
 10
-31.6271
 20
-140.245
 11
-31.2035
 21
-139.983
  0
LINE
  8
0
 10
-31.2035
 20
-139.983
 11
-30.7389
 21
-139.803
  0
LINE
  8
0
 10
-30.7389
 20
-139.803
 11
-30.2491
 21
-139.712
  0
LINE
  8
0
 10
-30.2491
 20
-139.712
 11
-29.7509
 21
-139.712
  0
LINE
  8
0
 10
-29.7509
 20
-139.712
 11
-29.2611
 21
-139.803
  0
LINE
  8
0
 10
-29.2611
 20
-139.803
 11
-28.7965
 21
-139.983
  0
LINE
  8
0
 10
-28.7965
 20
-139.983
 11
-28.3729
 21
-140.245
  0
LINE
  8
0
 10
-28.3729
 20
-140.245
 11
-28.0047
 21
-140.581
  0
LINE
  8
0
 10
-28.0047
 20
-140.581
 11
-27.7044
 21
-140.979
  0
LINE
  8
0
 10
-27.7044
 20
-140.979
 11
-27.4823
 21
-141.425
  0
LINE
  8
0
 10
-27.4823
 20
-141.425
 11
-27.346
 21
-141.904
  0
LINE
  8
0
 10
-27.346
 20
-141.904
 11
-27.3
 21
-142.4
  0
LINE
  8
0
 10
-27.3
 20
-142.4
 11
-27.346
 21
-142.896
  0
LINE
  8
0
 10
-27.346
 20
-142.896
 11
-27.4823
 21
-143.375
  0
LINE
  8
0
 10
-27.4823
 20
-143.375
 11
-27.7044
 21
-143.821
  0
LINE
  8
0
 10
-27.7044
 20
-143.821
 11
-28.0047
 21
-144.219
  0
LINE
  8
0
 10
-28.0047
 20
-144.219
 11
-28.3729
 21
-144.555
  0
LINE
  8
0
 10
-28.3729
 20
-144.555
 11
-28.7965
 21
-144.817
  0
LINE
  8
0
 10
-28.7965
 20
-144.817
 11
-29.2611
 21
-144.997
  0
LINE
  8
0
 10
-29.2611
 20
-144.997
 11
-29.7509
 21
-145.088
  0
LINE
  8
0
 10
-29.7509
 20
-145.088
 11
-30.2491
 21
-145.088
  0
LINE
  8
0
 10
29.7509
 20
-145.088
 11
29.2611
 21
-144.997
  0
LINE
  8
0
 10
29.2611
 20
-144.997
 11
28.7965
 21
-144.817
  0
LINE
  8
0
 10
28.7965
 20
-144.817
 11
28.3729
 21
-144.555
  0
LINE
  8
0
 10
28.3729
 20
-144.555
 11
28.0047
 21
-144.219
  0
LINE
  8
0
 10
28.0047
 20
-144.219
 11
27.7044
 21
-143.821
  0
LINE
  8
0
 10
27.7044
 20
-143.821
 11
27.4823
 21
-143.375
  0
LINE
  8
0
 10
27.4823
 20
-143.375
 11
27.346
 21
-142.896
  0
LINE
  8
0
 10
27.346
 20
-142.896
 11
27.3
 21
-142.4
  0
LINE
  8
0
 10
27.3
 20
-142.4
 11
27.346
 21
-141.904
  0
LINE
  8
0
 10
27.346
 20
-141.904
 11
27.4823
 21
-141.425
  0
LINE
  8
0
 10
27.4823
 20
-141.425
 11
27.7044
 21
-140.979
  0
LINE
  8
0
 10
27.7044
 20
-140.979
 11
28.0047
 21
-140.581
  0
LINE
  8
0
 10
28.0047
 20
-140.581
 11
28.3729
 21
-140.245
  0
LINE
  8
0
 10
28.3729
 20
-140.245
 11
28.7965
 21
-139.983
  0
LINE
  8
0
 10
28.7965
 20
-139.983
 11
29.2611
 21
-139.803
  0
LINE
  8
0
 10
29.2611
 20
-139.803
 11
29.7509
 21
-139.712
  0
LINE
  8
0
 10
29.7509
 20
-139.712
 11
30.2491
 21
-139.712
  0
LINE
  8
0
 10
30.2491
 20
-139.712
 11
30.7389
 21
-139.803
  0
LINE
  8
0
 10
30.7389
 20
-139.803
 11
31.2035
 21
-139.983
  0
LINE
  8
0
 10
31.2035
 20
-139.983
 11
31.6271
 21
-140.245
  0
LINE
  8
0
 10
31.6271
 20
-140.245
 11
31.9953
 21
-140.581
  0
LINE
  8
0
 10
31.9953
 20
-140.581
 11
32.2956
 21
-140.979
  0
LINE
  8
0
 10
32.2956
 20
-140.979
 11
32.5177
 21
-141.425
  0
LINE
  8
0
 10
32.5177
 20
-141.425
 11
32.654
 21
-141.904
  0
LINE
  8
0
 10
32.654
 20
-141.904
 11
32.7
 21
-142.4
  0
LINE
  8
0
 10
32.7
 20
-142.4
 11
32.654
 21
-142.896
  0
LINE
  8
0
 10
32.654
 20
-142.896
 11
32.5177
 21
-143.375
  0
LINE
  8
0
 10
32.5177
 20
-143.375
 11
32.2956
 21
-143.821
  0
LINE
  8
0
 10
32.2956
 20
-143.821
 11
31.9953
 21
-144.219
  0
LINE
  8
0
 10
31.9953
 20
-144.219
 11
31.6271
 21
-144.555
  0
LINE
  8
0
 10
31.6271
 20
-144.555
 11
31.2035
 21
-144.817
  0
LINE
  8
0
 10
31.2035
 20
-144.817
 11
30.7389
 21
-144.997
  0
LINE
  8
0
 10
30.7389
 20
-144.997
 11
30.2491
 21
-145.088
  0
LINE
  8
0
 10
30.2491
 20
-145.088
 11
29.7509
 21
-145.088
  0
ENDSEC
  0
SECTION
  2
OBJECTS
  0
DICTIONARY
  0
ENDSEC
  0
EOF
