solid OpenSCAD_Model
  facet normal 0.999476 0.0323826 0
    outer loop
      vertex 7.7 0 0.75
      vertex 7.68385 0.498419 -0.75
      vertex 7.68385 0.498419 0.75
    endloop
  endfacet
  facet normal 0.999476 0.0323826 0
    outer loop
      vertex 7.68385 0.498419 -0.75
      vertex 7.7 0 0.75
      vertex 7.7 0 -0.75
    endloop
  endfacet
  facet normal 0 0 1
    outer loop
      vertex 4.95 0 0.75
      vertex 7.7 0 0.75
      vertex 7.68385 0.498419 0.75
    endloop
  endfacet
  facet normal 0 0 1
    outer loop
      vertex 4.9254 0.492861 0.75
      vertex 7.68385 0.498419 0.75
      vertex 7.63547 0.994748 0.75
    endloop
  endfacet
  facet normal 0 0 1
    outer loop
      vertex 7.7 0 0.75
      vertex 4.95 0 0.75
      vertex 7.68385 -0.498419 0.75
    endloop
  endfacet
  facet normal 0 0 1
    outer loop
      vertex 4.85185 0.980823 0.75
      vertex 7.63547 0.994748 0.75
      vertex 7.55507 1.48691 0.75
    endloop
  endfacet
  facet normal -0 0 1
    outer loop
      vertex 4.9254 -0.492861 0.75
      vertex 7.68385 -0.498419 0.75
      vertex 4.95 0 0.75
    endloop
  endfacet
  facet normal 0 0 1
    outer loop
      vertex 4.85185 0.980823 0.75
      vertex 7.55507 1.48691 0.75
      vertex 7.44298 1.97283 0.75
    endloop
  endfacet
  facet normal 0 0 1
    outer loop
      vertex 7.68385 -0.498419 0.75
      vertex 4.9254 -0.492861 0.75
      vertex 7.63547 -0.994748 0.75
    endloop
  endfacet
  facet normal 0 0 1
    outer loop
      vertex 4.73009 1.45904 0.75
      vertex 7.44298 1.97283 0.75
      vertex 7.29967 2.45047 0.75
    endloop
  endfacet
  facet normal -0 0 1
    outer loop
      vertex 4.85185 -0.980823 0.75
      vertex 7.63547 -0.994748 0.75
      vertex 4.9254 -0.492861 0.75
    endloop
  endfacet
  facet normal 0 0 1
    outer loop
      vertex 4.56131 1.92275 0.75
      vertex 7.29967 2.45047 0.75
      vertex 7.12574 2.91784 0.75
    endloop
  endfacet
  facet normal 0 0 1
    outer loop
      vertex 7.63547 -0.994748 0.75
      vertex 4.85185 -0.980823 0.75
      vertex 7.55507 -1.48691 0.75
    endloop
  endfacet
  facet normal 0 0 1
    outer loop
      vertex 4.56131 1.92275 0.75
      vertex 7.12574 2.91784 0.75
      vertex 6.92193 3.37297 0.75
    endloop
  endfacet
  facet normal 0 0 1
    outer loop
      vertex 7.55507 -1.48691 0.75
      vertex 4.85185 -0.980823 0.75
      vertex 7.44298 -1.97283 0.75
    endloop
  endfacet
  facet normal 0 0 1
    outer loop
      vertex 4.3472 2.36736 0.75
      vertex 6.92193 3.37297 0.75
      vertex 6.68908 3.81395 0.75
    endloop
  endfacet
  facet normal -0 0 1
    outer loop
      vertex 4.73009 -1.45904 0.75
      vertex 7.44298 -1.97283 0.75
      vertex 4.85185 -0.980823 0.75
    endloop
  endfacet
  facet normal 0 0 1
    outer loop
      vertex 4.3472 2.36736 0.75
      vertex 6.68908 3.81395 0.75
      vertex 6.42818 4.23893 0.75
    endloop
  endfacet
  facet normal 0 0 1
    outer loop
      vertex 7.44298 -1.97283 0.75
      vertex 4.73009 -1.45904 0.75
      vertex 7.29967 -2.45047 0.75
    endloop
  endfacet
  facet normal 0 0 1
    outer loop
      vertex 4.08988 2.78843 0.75
      vertex 6.42818 4.23893 0.75
      vertex 6.14031 4.64614 0.75
    endloop
  endfacet
  facet normal -0 0 1
    outer loop
      vertex 4.56131 -1.92275 0.75
      vertex 7.29967 -2.45047 0.75
      vertex 4.73009 -1.45904 0.75
    endloop
  endfacet
  facet normal 0 0 1
    outer loop
      vertex 3.79192 3.1818 0.75
      vertex 6.14031 4.64614 0.75
      vertex 5.82669 5.03385 0.75
    endloop
  endfacet
  facet normal 0 0 1
    outer loop
      vertex 7.29967 -2.45047 0.75
      vertex 4.56131 -1.92275 0.75
      vertex 7.12574 -2.91784 0.75
    endloop
  endfacet
  facet normal 0 0 1
    outer loop
      vertex 3.79192 3.1818 0.75
      vertex 5.82669 5.03385 0.75
      vertex 5.67348 5.2 0.75
    endloop
  endfacet
  facet normal 0 0 1
    outer loop
      vertex 7.12574 -2.91784 0.75
      vertex 4.56131 -1.92275 0.75
      vertex 6.92193 -3.37297 0.75
    endloop
  endfacet
  facet normal -0 0 1
    outer loop
      vertex 4.3472 -2.36736 0.75
      vertex 6.92193 -3.37297 0.75
      vertex 4.56131 -1.92275 0.75
    endloop
  endfacet
  facet normal 0 0 1
    outer loop
      vertex 7.68385 0.498419 0.75
      vertex 4.9254 0.492861 0.75
      vertex 4.95 0 0.75
    endloop
  endfacet
  facet normal 0 0 1
    outer loop
      vertex 7.63547 0.994748 0.75
      vertex 4.85185 0.980823 0.75
      vertex 4.9254 0.492861 0.75
    endloop
  endfacet
  facet normal 0 0 1
    outer loop
      vertex 7.44298 1.97283 0.75
      vertex 4.73009 1.45904 0.75
      vertex 4.85185 0.980823 0.75
    endloop
  endfacet
  facet normal 0 0 1
    outer loop
      vertex 7.29967 2.45047 0.75
      vertex 4.56131 1.92275 0.75
      vertex 4.73009 1.45904 0.75
    endloop
  endfacet
  facet normal 0 0 1
    outer loop
      vertex 6.92193 3.37297 0.75
      vertex 4.3472 2.36736 0.75
      vertex 4.56131 1.92275 0.75
    endloop
  endfacet
  facet normal 0 0 1
    outer loop
      vertex 6.42818 4.23893 0.75
      vertex 4.08988 2.78843 0.75
      vertex 4.3472 2.36736 0.75
    endloop
  endfacet
  facet normal 0 0 1
    outer loop
      vertex 6.14031 4.64614 0.75
      vertex 3.79192 3.1818 0.75
      vertex 4.08988 2.78843 0.75
    endloop
  endfacet
  facet normal 0 0 1
    outer loop
      vertex 5.67348 5.2 0.75
      vertex 3.45627 3.54354 0.75
      vertex 3.79192 3.1818 0.75
    endloop
  endfacet
  facet normal 0 0 1
    outer loop
      vertex 5.67348 5.2 0.75
      vertex 3.08627 3.87007 0.75
      vertex 3.45627 3.54354 0.75
    endloop
  endfacet
  facet normal 0 0 1
    outer loop
      vertex 5.67348 5.2 0.75
      vertex 2.6856 4.15813 0.75
      vertex 3.08627 3.87007 0.75
    endloop
  endfacet
  facet normal 0 0 1
    outer loop
      vertex 5.67348 5.2 0.75
      vertex 2.25824 4.40487 0.75
      vertex 2.6856 4.15813 0.75
    endloop
  endfacet
  facet normal 0 0 1
    outer loop
      vertex 5.67348 5.2 0.75
      vertex 1.80844 4.60782 0.75
      vertex 2.25824 4.40487 0.75
    endloop
  endfacet
  facet normal 0 0 1
    outer loop
      vertex 5.67348 5.2 0.75
      vertex 1.34066 4.76499 0.75
      vertex 1.80844 4.60782 0.75
    endloop
  endfacet
  facet normal -0 0 1
    outer loop
      vertex 0 5.2 0.75
      vertex 1.34066 4.76499 0.75
      vertex 5.67348 5.2 0.75
    endloop
  endfacet
  facet normal 0 0 1
    outer loop
      vertex 1.34066 4.76499 0.75
      vertex 0 5.2 0.75
      vertex 0.859558 4.8748 0.75
    endloop
  endfacet
  facet normal 0 0 1
    outer loop
      vertex 0.859558 4.8748 0.75
      vertex 0 5.2 0.75
      vertex 0.369913 4.93616 0.75
    endloop
  endfacet
  facet normal 0 0 1
    outer loop
      vertex 0.369913 4.93616 0.75
      vertex 0 5.2 0.75
      vertex 0 4.94538 0.75
    endloop
  endfacet
  facet normal 0 0 1
    outer loop
      vertex 6.92193 -3.37297 0.75
      vertex 4.3472 -2.36736 0.75
      vertex 6.68908 -3.81395 0.75
    endloop
  endfacet
  facet normal 0 0 1
    outer loop
      vertex 6.68908 -3.81395 0.75
      vertex 4.3472 -2.36736 0.75
      vertex 6.42818 -4.23893 0.75
    endloop
  endfacet
  facet normal -0 0 1
    outer loop
      vertex 4.08988 -2.78843 0.75
      vertex 6.42818 -4.23893 0.75
      vertex 4.3472 -2.36736 0.75
    endloop
  endfacet
  facet normal 0 0 1
    outer loop
      vertex 6.42818 -4.23893 0.75
      vertex 4.08988 -2.78843 0.75
      vertex 6.14031 -4.64614 0.75
    endloop
  endfacet
  facet normal -0 0 1
    outer loop
      vertex 3.79192 -3.1818 0.75
      vertex 6.14031 -4.64614 0.75
      vertex 4.08988 -2.78843 0.75
    endloop
  endfacet
  facet normal 0 0 1
    outer loop
      vertex 6.14031 -4.64614 0.75
      vertex 3.79192 -3.1818 0.75
      vertex 5.82669 -5.03385 0.75
    endloop
  endfacet
  facet normal 0 0 1
    outer loop
      vertex 5.82669 -5.03385 0.75
      vertex 3.79192 -3.1818 0.75
      vertex 5.67348 -5.2 0.75
    endloop
  endfacet
  facet normal -0 0 1
    outer loop
      vertex 3.45627 -3.54354 0.75
      vertex 5.67348 -5.2 0.75
      vertex 3.79192 -3.1818 0.75
    endloop
  endfacet
  facet normal -0 0 1
    outer loop
      vertex 3.08627 -3.87007 0.75
      vertex 5.67348 -5.2 0.75
      vertex 3.45627 -3.54354 0.75
    endloop
  endfacet
  facet normal -0 0 1
    outer loop
      vertex 2.6856 -4.15813 0.75
      vertex 5.67348 -5.2 0.75
      vertex 3.08627 -3.87007 0.75
    endloop
  endfacet
  facet normal -0 0 1
    outer loop
      vertex 2.25824 -4.40487 0.75
      vertex 5.67348 -5.2 0.75
      vertex 2.6856 -4.15813 0.75
    endloop
  endfacet
  facet normal -0 0 1
    outer loop
      vertex 1.80844 -4.60782 0.75
      vertex 5.67348 -5.2 0.75
      vertex 2.25824 -4.40487 0.75
    endloop
  endfacet
  facet normal -0 0 1
    outer loop
      vertex 1.34066 -4.76499 0.75
      vertex 5.67348 -5.2 0.75
      vertex 1.80844 -4.60782 0.75
    endloop
  endfacet
  facet normal 0 0 1
    outer loop
      vertex 0 -5.2 0.75
      vertex 1.34066 -4.76499 0.75
      vertex 0.859558 -4.8748 0.75
    endloop
  endfacet
  facet normal 0 0 1
    outer loop
      vertex 0 -5.2 0.75
      vertex 0.859558 -4.8748 0.75
      vertex 0.369913 -4.93616 0.75
    endloop
  endfacet
  facet normal 0 0 1
    outer loop
      vertex 0 -5.2 0.75
      vertex 0.369913 -4.93616 0.75
      vertex 0 -4.94538 0.75
    endloop
  endfacet
  facet normal 0 0 1
    outer loop
      vertex 1.34066 -4.76499 0.75
      vertex 0 -5.2 0.75
      vertex 5.67348 -5.2 0.75
    endloop
  endfacet
  facet normal 0 0 1
    outer loop
      vertex 2.7 0 0.75
      vertex 4.95 0 0.75
      vertex 4.9254 0.492861 0.75
    endloop
  endfacet
  facet normal -0 0 1
    outer loop
      vertex 2.65403 0.496123 0.75
      vertex 4.9254 0.492861 0.75
      vertex 4.85185 0.980823 0.75
    endloop
  endfacet
  facet normal 0 0 1
    outer loop
      vertex 4.95 0 0.75
      vertex 2.7 0 0.75
      vertex 4.9254 -0.492861 0.75
    endloop
  endfacet
  facet normal 0 0 1
    outer loop
      vertex 2.65403 0.496123 0.75
      vertex 4.85185 0.980823 0.75
      vertex 4.73009 1.45904 0.75
    endloop
  endfacet
  facet normal 0 0 1
    outer loop
      vertex 2.65403 -0.496123 0.75
      vertex 4.9254 -0.492861 0.75
      vertex 2.7 0 0.75
    endloop
  endfacet
  facet normal 0 0 1
    outer loop
      vertex 2.51767 0.975352 0.75
      vertex 4.73009 1.45904 0.75
      vertex 4.56131 1.92275 0.75
    endloop
  endfacet
  facet normal 0 0 1
    outer loop
      vertex 4.9254 -0.492861 0.75
      vertex 2.65403 -0.496123 0.75
      vertex 4.85185 -0.980823 0.75
    endloop
  endfacet
  facet normal 0 0 1
    outer loop
      vertex 2.51767 0.975352 0.75
      vertex 4.56131 1.92275 0.75
      vertex 4.3472 2.36736 0.75
    endloop
  endfacet
  facet normal 0 0 1
    outer loop
      vertex 4.85185 -0.980823 0.75
      vertex 2.65403 -0.496123 0.75
      vertex 4.73009 -1.45904 0.75
    endloop
  endfacet
  facet normal 0 0 1
    outer loop
      vertex 2.29559 1.42137 0.75
      vertex 4.3472 2.36736 0.75
      vertex 4.08988 2.78843 0.75
    endloop
  endfacet
  facet normal -0 0 1
    outer loop
      vertex 2.51767 -0.975352 0.75
      vertex 4.73009 -1.45904 0.75
      vertex 2.65403 -0.496123 0.75
    endloop
  endfacet
  facet normal 0 0 1
    outer loop
      vertex 2.29559 1.42137 0.75
      vertex 4.08988 2.78843 0.75
      vertex 3.79192 3.1818 0.75
    endloop
  endfacet
  facet normal 0 0 1
    outer loop
      vertex 4.73009 -1.45904 0.75
      vertex 2.51767 -0.975352 0.75
      vertex 4.56131 -1.92275 0.75
    endloop
  endfacet
  facet normal 0 0 1
    outer loop
      vertex 1.99532 1.81898 0.75
      vertex 3.79192 3.1818 0.75
      vertex 3.45627 3.54354 0.75
    endloop
  endfacet
  facet normal 0 0 1
    outer loop
      vertex 4.56131 -1.92275 0.75
      vertex 2.51767 -0.975352 0.75
      vertex 4.3472 -2.36736 0.75
    endloop
  endfacet
  facet normal 0 0 1
    outer loop
      vertex 1.62711 2.15465 0.75
      vertex 3.45627 3.54354 0.75
      vertex 3.08627 3.87007 0.75
    endloop
  endfacet
  facet normal -0 0 1
    outer loop
      vertex 2.29559 -1.42137 0.75
      vertex 4.3472 -2.36736 0.75
      vertex 2.51767 -0.975352 0.75
    endloop
  endfacet
  facet normal 0 0 1
    outer loop
      vertex 4.3472 -2.36736 0.75
      vertex 2.29559 -1.42137 0.75
      vertex 4.08988 -2.78843 0.75
    endloop
  endfacet
  facet normal 0 0 1
    outer loop
      vertex 1.62711 2.15465 0.75
      vertex 3.08627 3.87007 0.75
      vertex 2.6856 4.15813 0.75
    endloop
  endfacet
  facet normal 0 0 1
    outer loop
      vertex 4.9254 0.492861 0.75
      vertex 2.65403 0.496123 0.75
      vertex 2.7 0 0.75
    endloop
  endfacet
  facet normal 0 0 1
    outer loop
      vertex 4.73009 1.45904 0.75
      vertex 2.51767 0.975352 0.75
      vertex 2.65403 0.496123 0.75
    endloop
  endfacet
  facet normal 0 0 1
    outer loop
      vertex 4.3472 2.36736 0.75
      vertex 2.29559 1.42137 0.75
      vertex 2.51767 0.975352 0.75
    endloop
  endfacet
  facet normal 0 0 1
    outer loop
      vertex 1.20349 2.41694 0.75
      vertex 2.6856 4.15813 0.75
      vertex 2.25824 4.40487 0.75
    endloop
  endfacet
  facet normal 0 0 1
    outer loop
      vertex 3.79192 3.1818 0.75
      vertex 1.99532 1.81898 0.75
      vertex 2.29559 1.42137 0.75
    endloop
  endfacet
  facet normal 0 0 1
    outer loop
      vertex 1.20349 2.41694 0.75
      vertex 2.25824 4.40487 0.75
      vertex 1.80844 4.60782 0.75
    endloop
  endfacet
  facet normal 0 0 1
    outer loop
      vertex 3.45627 3.54354 0.75
      vertex 1.62711 2.15465 0.75
      vertex 1.99532 1.81898 0.75
    endloop
  endfacet
  facet normal 0 0 1
    outer loop
      vertex 0.73889 2.59693 0.75
      vertex 1.80844 4.60782 0.75
      vertex 1.34066 4.76499 0.75
    endloop
  endfacet
  facet normal 0 0 1
    outer loop
      vertex 2.6856 4.15813 0.75
      vertex 1.20349 2.41694 0.75
      vertex 1.62711 2.15465 0.75
    endloop
  endfacet
  facet normal 0 0 1
    outer loop
      vertex 0.73889 2.59693 0.75
      vertex 1.34066 4.76499 0.75
      vertex 0.859558 4.8748 0.75
    endloop
  endfacet
  facet normal 0 0 1
    outer loop
      vertex 1.80844 4.60782 0.75
      vertex 0.73889 2.59693 0.75
      vertex 1.20349 2.41694 0.75
    endloop
  endfacet
  facet normal 0 0 1
    outer loop
      vertex 0.249125 2.68848 0.75
      vertex 0.859558 4.8748 0.75
      vertex 0.369913 4.93616 0.75
    endloop
  endfacet
  facet normal 0 0 1
    outer loop
      vertex 0.859558 4.8748 0.75
      vertex 0.249125 2.68848 0.75
      vertex 0.73889 2.59693 0.75
    endloop
  endfacet
  facet normal 0 0 1
    outer loop
      vertex 0 4.94538 0.75
      vertex 0.249125 2.68848 0.75
      vertex 0.369913 4.93616 0.75
    endloop
  endfacet
  facet normal 0 0 1
    outer loop
      vertex -0.249125 2.68848 0.75
      vertex 0 4.94538 0.75
      vertex -0.123406 4.94846 0.75
    endloop
  endfacet
  facet normal 0 0 1
    outer loop
      vertex 0 4.94538 0.75
      vertex -0.249125 2.68848 0.75
      vertex 0.249125 2.68848 0.75
    endloop
  endfacet
  facet normal -0 0 1
    outer loop
      vertex -0.6155 4.91158 0.75
      vertex -0.249125 2.68848 0.75
      vertex -0.123406 4.94846 0.75
    endloop
  endfacet
  facet normal -0 0 1
    outer loop
      vertex -1.10148 4.82589 0.75
      vertex -0.249125 2.68848 0.75
      vertex -0.6155 4.91158 0.75
    endloop
  endfacet
  facet normal 0 0 1
    outer loop
      vertex -0.249125 2.68848 0.75
      vertex -1.10148 4.82589 0.75
      vertex -0.73889 2.59693 0.75
    endloop
  endfacet
  facet normal -0 0 1
    outer loop
      vertex -1.57651 4.69224 0.75
      vertex -0.73889 2.59693 0.75
      vertex -1.10148 4.82589 0.75
    endloop
  endfacet
  facet normal 0 0 1
    outer loop
      vertex -0.73889 2.59693 0.75
      vertex -1.57651 4.69224 0.75
      vertex -1.20349 2.41694 0.75
    endloop
  endfacet
  facet normal -0 0 1
    outer loop
      vertex -2.03587 4.51195 0.75
      vertex -1.20349 2.41694 0.75
      vertex -1.57651 4.69224 0.75
    endloop
  endfacet
  facet normal -0 0 1
    outer loop
      vertex -2.475 4.28683 0.75
      vertex -1.20349 2.41694 0.75
      vertex -2.03587 4.51195 0.75
    endloop
  endfacet
  facet normal 0 0 1
    outer loop
      vertex -1.20349 2.41694 0.75
      vertex -2.475 4.28683 0.75
      vertex -1.62711 2.15465 0.75
    endloop
  endfacet
  facet normal -0 0 1
    outer loop
      vertex -2.88953 4.01909 0.75
      vertex -1.62711 2.15465 0.75
      vertex -2.475 4.28683 0.75
    endloop
  endfacet
  facet normal -0 0 1
    outer loop
      vertex -3.27534 3.71142 0.75
      vertex -1.62711 2.15465 0.75
      vertex -2.88953 4.01909 0.75
    endloop
  endfacet
  facet normal 0 0 1
    outer loop
      vertex -1.62711 2.15465 0.75
      vertex -3.27534 3.71142 0.75
      vertex -1.99532 1.81898 0.75
    endloop
  endfacet
  facet normal -0 0 1
    outer loop
      vertex -3.62861 3.36685 0.75
      vertex -1.99532 1.81898 0.75
      vertex -3.27534 3.71142 0.75
    endloop
  endfacet
  facet normal -0 0 1
    outer loop
      vertex -3.94581 2.98883 0.75
      vertex -1.99532 1.81898 0.75
      vertex -3.62861 3.36685 0.75
    endloop
  endfacet
  facet normal 0 0 1
    outer loop
      vertex -1.99532 1.81898 0.75
      vertex -3.94581 2.98883 0.75
      vertex -2.29559 1.42137 0.75
    endloop
  endfacet
  facet normal 0 0 1
    outer loop
      vertex 4.08988 -2.78843 0.75
      vertex 2.29559 -1.42137 0.75
      vertex 3.79192 -3.1818 0.75
    endloop
  endfacet
  facet normal -0 0 1
    outer loop
      vertex 1.99532 -1.81898 0.75
      vertex 3.79192 -3.1818 0.75
      vertex 2.29559 -1.42137 0.75
    endloop
  endfacet
  facet normal 0 0 1
    outer loop
      vertex 3.79192 -3.1818 0.75
      vertex 1.99532 -1.81898 0.75
      vertex 3.45627 -3.54354 0.75
    endloop
  endfacet
  facet normal -0 0 1
    outer loop
      vertex 1.62711 -2.15465 0.75
      vertex 3.45627 -3.54354 0.75
      vertex 1.99532 -1.81898 0.75
    endloop
  endfacet
  facet normal 0 0 1
    outer loop
      vertex 3.45627 -3.54354 0.75
      vertex 1.62711 -2.15465 0.75
      vertex 3.08627 -3.87007 0.75
    endloop
  endfacet
  facet normal 0 0 1
    outer loop
      vertex 3.08627 -3.87007 0.75
      vertex 1.62711 -2.15465 0.75
      vertex 2.6856 -4.15813 0.75
    endloop
  endfacet
  facet normal -0 0 1
    outer loop
      vertex 1.20349 -2.41694 0.75
      vertex 2.6856 -4.15813 0.75
      vertex 1.62711 -2.15465 0.75
    endloop
  endfacet
  facet normal 0 0 1
    outer loop
      vertex 2.6856 -4.15813 0.75
      vertex 1.20349 -2.41694 0.75
      vertex 2.25824 -4.40487 0.75
    endloop
  endfacet
  facet normal 0 0 1
    outer loop
      vertex 2.25824 -4.40487 0.75
      vertex 1.20349 -2.41694 0.75
      vertex 1.80844 -4.60782 0.75
    endloop
  endfacet
  facet normal -0 0 1
    outer loop
      vertex 0.73889 -2.59693 0.75
      vertex 1.80844 -4.60782 0.75
      vertex 1.20349 -2.41694 0.75
    endloop
  endfacet
  facet normal 0 0 1
    outer loop
      vertex 1.80844 -4.60782 0.75
      vertex 0.73889 -2.59693 0.75
      vertex 1.34066 -4.76499 0.75
    endloop
  endfacet
  facet normal 0 0 1
    outer loop
      vertex 1.34066 -4.76499 0.75
      vertex 0.73889 -2.59693 0.75
      vertex 0.859558 -4.8748 0.75
    endloop
  endfacet
  facet normal -0 0 1
    outer loop
      vertex 0.249125 -2.68848 0.75
      vertex 0.859558 -4.8748 0.75
      vertex 0.73889 -2.59693 0.75
    endloop
  endfacet
  facet normal 0 0 1
    outer loop
      vertex 0.859558 -4.8748 0.75
      vertex 0.249125 -2.68848 0.75
      vertex 0.369913 -4.93616 0.75
    endloop
  endfacet
  facet normal 0 0 1
    outer loop
      vertex 0.249125 -2.68848 0.75
      vertex 0 -4.94538 0.75
      vertex 0.369913 -4.93616 0.75
    endloop
  endfacet
  facet normal -0 0 1
    outer loop
      vertex -0.249125 -2.68848 0.75
      vertex 0 -4.94538 0.75
      vertex 0.249125 -2.68848 0.75
    endloop
  endfacet
  facet normal 0 0 1
    outer loop
      vertex 0 -4.94538 0.75
      vertex -0.249125 -2.68848 0.75
      vertex -0.123406 -4.94846 0.75
    endloop
  endfacet
  facet normal 0 0 1
    outer loop
      vertex -0.249125 -2.68848 0.75
      vertex -0.6155 -4.91158 0.75
      vertex -0.123406 -4.94846 0.75
    endloop
  endfacet
  facet normal 0 0 1
    outer loop
      vertex -1.10148 -4.82589 0.75
      vertex -0.249125 -2.68848 0.75
      vertex -0.73889 -2.59693 0.75
    endloop
  endfacet
  facet normal 0 0 1
    outer loop
      vertex -0.249125 -2.68848 0.75
      vertex -1.10148 -4.82589 0.75
      vertex -0.6155 -4.91158 0.75
    endloop
  endfacet
  facet normal 0 0 1
    outer loop
      vertex -1.57651 -4.69224 0.75
      vertex -0.73889 -2.59693 0.75
      vertex -1.20349 -2.41694 0.75
    endloop
  endfacet
  facet normal 0 0 1
    outer loop
      vertex -0.73889 -2.59693 0.75
      vertex -1.57651 -4.69224 0.75
      vertex -1.10148 -4.82589 0.75
    endloop
  endfacet
  facet normal 0 0 1
    outer loop
      vertex -2.475 -4.28683 0.75
      vertex -1.20349 -2.41694 0.75
      vertex -1.62711 -2.15465 0.75
    endloop
  endfacet
  facet normal 0 0 1
    outer loop
      vertex -3.27534 -3.71142 0.75
      vertex -1.62711 -2.15465 0.75
      vertex -1.99532 -1.81898 0.75
    endloop
  endfacet
  facet normal 0 0 1
    outer loop
      vertex -1.20349 -2.41694 0.75
      vertex -2.03587 -4.51195 0.75
      vertex -1.57651 -4.69224 0.75
    endloop
  endfacet
  facet normal 0 0 1
    outer loop
      vertex -3.94581 -2.98883 0.75
      vertex -1.99532 -1.81898 0.75
      vertex -2.29559 -1.42137 0.75
    endloop
  endfacet
  facet normal 0 0 1
    outer loop
      vertex -1.20349 -2.41694 0.75
      vertex -2.475 -4.28683 0.75
      vertex -2.03587 -4.51195 0.75
    endloop
  endfacet
  facet normal 0 0 1
    outer loop
      vertex -4.45979 -2.14772 0.75
      vertex -2.29559 -1.42137 0.75
      vertex -2.51767 -0.975352 0.75
    endloop
  endfacet
  facet normal 0 0 1
    outer loop
      vertex -4.79693 -1.22145 0.75
      vertex -2.51767 -0.975352 0.75
      vertex -2.65403 -0.496123 0.75
    endloop
  endfacet
  facet normal -0 0 1
    outer loop
      vertex -4.94385 -0.246737 0.75
      vertex -2.65403 -0.496123 0.75
      vertex -2.7 0 0.75
    endloop
  endfacet
  facet normal 0 0 1
    outer loop
      vertex -1.62711 -2.15465 0.75
      vertex -2.88953 -4.01909 0.75
      vertex -2.475 -4.28683 0.75
    endloop
  endfacet
  facet normal -0 0 1
    outer loop
      vertex -4.22379 2.5811 0.75
      vertex -2.29559 1.42137 0.75
      vertex -3.94581 2.98883 0.75
    endloop
  endfacet
  facet normal -0 0 1
    outer loop
      vertex -4.45979 2.14772 0.75
      vertex -2.29559 1.42137 0.75
      vertex -4.22379 2.5811 0.75
    endloop
  endfacet
  facet normal 0 0 1
    outer loop
      vertex -1.62711 -2.15465 0.75
      vertex -3.27534 -3.71142 0.75
      vertex -2.88953 -4.01909 0.75
    endloop
  endfacet
  facet normal 0 0 1
    outer loop
      vertex -2.29559 1.42137 0.75
      vertex -4.45979 2.14772 0.75
      vertex -2.51767 0.975352 0.75
    endloop
  endfacet
  facet normal 0 0 1
    outer loop
      vertex -1.99532 -1.81898 0.75
      vertex -3.62861 -3.36685 0.75
      vertex -3.27534 -3.71142 0.75
    endloop
  endfacet
  facet normal -0 0 1
    outer loop
      vertex -4.65148 1.693 0.75
      vertex -2.51767 0.975352 0.75
      vertex -4.45979 2.14772 0.75
    endloop
  endfacet
  facet normal 0 0 1
    outer loop
      vertex -1.99532 -1.81898 0.75
      vertex -3.94581 -2.98883 0.75
      vertex -3.62861 -3.36685 0.75
    endloop
  endfacet
  facet normal -0 0 1
    outer loop
      vertex -4.79693 1.22145 0.75
      vertex -2.51767 0.975352 0.75
      vertex -4.65148 1.693 0.75
    endloop
  endfacet
  facet normal 0 0 1
    outer loop
      vertex -2.29559 -1.42137 0.75
      vertex -4.22379 -2.5811 0.75
      vertex -3.94581 -2.98883 0.75
    endloop
  endfacet
  facet normal 0 0 1
    outer loop
      vertex -2.51767 0.975352 0.75
      vertex -4.79693 1.22145 0.75
      vertex -2.65403 0.496123 0.75
    endloop
  endfacet
  facet normal 0 0 1
    outer loop
      vertex -2.29559 -1.42137 0.75
      vertex -4.45979 -2.14772 0.75
      vertex -4.22379 -2.5811 0.75
    endloop
  endfacet
  facet normal -0 0 1
    outer loop
      vertex -4.89471 0.737759 0.75
      vertex -2.65403 0.496123 0.75
      vertex -4.79693 1.22145 0.75
    endloop
  endfacet
  facet normal 0 0 1
    outer loop
      vertex -2.51767 -0.975352 0.75
      vertex -4.65148 -1.693 0.75
      vertex -4.45979 -2.14772 0.75
    endloop
  endfacet
  facet normal 0 0 1
    outer loop
      vertex -4.94385 0.246737 0.75
      vertex -2.65403 0.496123 0.75
      vertex -4.89471 0.737759 0.75
    endloop
  endfacet
  facet normal 0 0 1
    outer loop
      vertex -2.51767 -0.975352 0.75
      vertex -4.79693 -1.22145 0.75
      vertex -4.65148 -1.693 0.75
    endloop
  endfacet
  facet normal 0 0 1
    outer loop
      vertex -2.65403 0.496123 0.75
      vertex -4.94385 0.246737 0.75
      vertex -2.7 0 0.75
    endloop
  endfacet
  facet normal 0 0 1
    outer loop
      vertex -2.65403 -0.496123 0.75
      vertex -4.89471 -0.737759 0.75
      vertex -4.79693 -1.22145 0.75
    endloop
  endfacet
  facet normal 0 0 1
    outer loop
      vertex -4.94385 -0.246737 0.75
      vertex -2.7 0 0.75
      vertex -4.94385 0.246737 0.75
    endloop
  endfacet
  facet normal 0 0 1
    outer loop
      vertex -2.65403 -0.496123 0.75
      vertex -4.94385 -0.246737 0.75
      vertex -4.89471 -0.737759 0.75
    endloop
  endfacet
  facet normal -1 0 0
    outer loop
      vertex -9 -5.2 -0.75
      vertex -9 5.2 6.25
      vertex -9 5.2 -0.75
    endloop
  endfacet
  facet normal -1 -0 0
    outer loop
      vertex -9 5.2 6.25
      vertex -9 -5.2 -0.75
      vertex -9 -5.2 6.25
    endloop
  endfacet
  facet normal 0 -1 0
    outer loop
      vertex -9 -5.2 6.25
      vertex -6 -5.2 9.25
      vertex -12 -5.2 7.75
    endloop
  endfacet
  facet normal 0 -1 0
    outer loop
      vertex -9 -5.2 6.25
      vertex -12 -5.2 7.75
      vertex -12 -5.2 6.25
    endloop
  endfacet
  facet normal 0 -1 0
    outer loop
      vertex 0 -5.2 0.75
      vertex -6 -5.2 9.25
      vertex -9 -5.2 6.25
    endloop
  endfacet
  facet normal 0 -1 0
    outer loop
      vertex -6 -5.2 9.25
      vertex 0 -5.2 0.75
      vertex 0 -5.2 9.25
    endloop
  endfacet
  facet normal 0 -1 0
    outer loop
      vertex -9 -5.2 -0.75
      vertex 0 -5.2 0.75
      vertex -9 -5.2 6.25
    endloop
  endfacet
  facet normal 0 -1 0
    outer loop
      vertex 5.67348 -5.2 -0.75
      vertex 0 -5.2 0.75
      vertex -9 -5.2 -0.75
    endloop
  endfacet
  facet normal 0 -1 0
    outer loop
      vertex 0 -5.2 0.75
      vertex 5.67348 -5.2 -0.75
      vertex 5.67348 -5.2 0.75
    endloop
  endfacet
  facet normal 0.986917 0.16123 0
    outer loop
      vertex 7.63547 0.994748 0.75
      vertex 7.55507 1.48691 -0.75
      vertex 7.55507 1.48691 0.75
    endloop
  endfacet
  facet normal 0.986917 0.16123 0
    outer loop
      vertex 7.55507 1.48691 -0.75
      vertex 7.63547 0.994748 0.75
      vertex 7.63547 0.994748 -0.75
    endloop
  endfacet
  facet normal 0 0 -1
    outer loop
      vertex 2.7 0 -0.75
      vertex 7.7 0 -0.75
      vertex 7.68385 -0.498419 -0.75
    endloop
  endfacet
  facet normal 0 0 -1
    outer loop
      vertex 2.7 0 -0.75
      vertex 7.68385 -0.498419 -0.75
      vertex 7.63547 -0.994748 -0.75
    endloop
  endfacet
  facet normal 0 0 -1
    outer loop
      vertex 7.7 0 -0.75
      vertex 2.7 0 -0.75
      vertex 7.68385 0.498419 -0.75
    endloop
  endfacet
  facet normal 0 0 -1
    outer loop
      vertex 2.65403 -0.496123 -0.75
      vertex 7.63547 -0.994748 -0.75
      vertex 7.55507 -1.48691 -0.75
    endloop
  endfacet
  facet normal -0 0 -1
    outer loop
      vertex 7.68385 0.498419 -0.75
      vertex 2.7 0 -0.75
      vertex 7.63547 0.994748 -0.75
    endloop
  endfacet
  facet normal 0 0 -1
    outer loop
      vertex 2.65403 -0.496123 -0.75
      vertex 7.55507 -1.48691 -0.75
      vertex 7.44298 -1.97283 -0.75
    endloop
  endfacet
  facet normal 0 0 -1
    outer loop
      vertex 2.65403 0.496123 -0.75
      vertex 7.63547 0.994748 -0.75
      vertex 2.7 0 -0.75
    endloop
  endfacet
  facet normal 0 0 -1
    outer loop
      vertex 2.51767 -0.975352 -0.75
      vertex 7.44298 -1.97283 -0.75
      vertex 7.29967 -2.45047 -0.75
    endloop
  endfacet
  facet normal -0 0 -1
    outer loop
      vertex 7.63547 0.994748 -0.75
      vertex 2.65403 0.496123 -0.75
      vertex 7.55507 1.48691 -0.75
    endloop
  endfacet
  facet normal 0 0 -1
    outer loop
      vertex 2.51767 -0.975352 -0.75
      vertex 7.29967 -2.45047 -0.75
      vertex 7.12574 -2.91784 -0.75
    endloop
  endfacet
  facet normal -0 0 -1
    outer loop
      vertex 7.55507 1.48691 -0.75
      vertex 2.65403 0.496123 -0.75
      vertex 7.44298 1.97283 -0.75
    endloop
  endfacet
  facet normal 0 0 -1
    outer loop
      vertex 2.51767 -0.975352 -0.75
      vertex 7.12574 -2.91784 -0.75
      vertex 6.92193 -3.37297 -0.75
    endloop
  endfacet
  facet normal 0 0 -1
    outer loop
      vertex 2.51767 0.975352 -0.75
      vertex 7.44298 1.97283 -0.75
      vertex 2.65403 0.496123 -0.75
    endloop
  endfacet
  facet normal 0 0 -1
    outer loop
      vertex 2.29559 -1.42137 -0.75
      vertex 6.92193 -3.37297 -0.75
      vertex 6.68908 -3.81395 -0.75
    endloop
  endfacet
  facet normal -0 0 -1
    outer loop
      vertex 7.44298 1.97283 -0.75
      vertex 2.51767 0.975352 -0.75
      vertex 7.29967 2.45047 -0.75
    endloop
  endfacet
  facet normal 0 0 -1
    outer loop
      vertex 2.29559 -1.42137 -0.75
      vertex 6.68908 -3.81395 -0.75
      vertex 6.42818 -4.23893 -0.75
    endloop
  endfacet
  facet normal -0 0 -1
    outer loop
      vertex 7.29967 2.45047 -0.75
      vertex 2.51767 0.975352 -0.75
      vertex 7.12574 2.91784 -0.75
    endloop
  endfacet
  facet normal 0 0 -1
    outer loop
      vertex 2.29559 -1.42137 -0.75
      vertex 6.42818 -4.23893 -0.75
      vertex 6.14031 -4.64614 -0.75
    endloop
  endfacet
  facet normal -0 0 -1
    outer loop
      vertex 7.12574 2.91784 -0.75
      vertex 2.51767 0.975352 -0.75
      vertex 6.92193 3.37297 -0.75
    endloop
  endfacet
  facet normal 0 0 -1
    outer loop
      vertex 1.99532 -1.81898 -0.75
      vertex 6.14031 -4.64614 -0.75
      vertex 5.82669 -5.03385 -0.75
    endloop
  endfacet
  facet normal 0 0 -1
    outer loop
      vertex 2.29559 1.42137 -0.75
      vertex 6.92193 3.37297 -0.75
      vertex 2.51767 0.975352 -0.75
    endloop
  endfacet
  facet normal 0 0 -1
    outer loop
      vertex 1.99532 -1.81898 -0.75
      vertex 5.82669 -5.03385 -0.75
      vertex 5.67348 -5.2 -0.75
    endloop
  endfacet
  facet normal -0 0 -1
    outer loop
      vertex 6.92193 3.37297 -0.75
      vertex 2.29559 1.42137 -0.75
      vertex 6.68908 3.81395 -0.75
    endloop
  endfacet
  facet normal -0 0 -1
    outer loop
      vertex 6.68908 3.81395 -0.75
      vertex 2.29559 1.42137 -0.75
      vertex 6.42818 4.23893 -0.75
    endloop
  endfacet
  facet normal 0 0 -1
    outer loop
      vertex 7.63547 -0.994748 -0.75
      vertex 2.65403 -0.496123 -0.75
      vertex 2.7 0 -0.75
    endloop
  endfacet
  facet normal 0 0 -1
    outer loop
      vertex 7.44298 -1.97283 -0.75
      vertex 2.51767 -0.975352 -0.75
      vertex 2.65403 -0.496123 -0.75
    endloop
  endfacet
  facet normal 0 0 -1
    outer loop
      vertex 6.92193 -3.37297 -0.75
      vertex 2.29559 -1.42137 -0.75
      vertex 2.51767 -0.975352 -0.75
    endloop
  endfacet
  facet normal 0 0 -1
    outer loop
      vertex 6.14031 -4.64614 -0.75
      vertex 1.99532 -1.81898 -0.75
      vertex 2.29559 -1.42137 -0.75
    endloop
  endfacet
  facet normal 0 0 -1
    outer loop
      vertex 5.67348 -5.2 -0.75
      vertex 1.62711 -2.15465 -0.75
      vertex 1.99532 -1.81898 -0.75
    endloop
  endfacet
  facet normal 0 0 -1
    outer loop
      vertex 5.67348 -5.2 -0.75
      vertex 1.20349 -2.41694 -0.75
      vertex 1.62711 -2.15465 -0.75
    endloop
  endfacet
  facet normal 0 0 -1
    outer loop
      vertex 5.67348 -5.2 -0.75
      vertex 0.73889 -2.59693 -0.75
      vertex 1.20349 -2.41694 -0.75
    endloop
  endfacet
  facet normal 0 0 -1
    outer loop
      vertex 5.67348 -5.2 -0.75
      vertex 0.249125 -2.68848 -0.75
      vertex 0.73889 -2.59693 -0.75
    endloop
  endfacet
  facet normal 0 0 -1
    outer loop
      vertex 5.67348 -5.2 -0.75
      vertex -0.249125 -2.68848 -0.75
      vertex 0.249125 -2.68848 -0.75
    endloop
  endfacet
  facet normal 0 0 -1
    outer loop
      vertex -9 -5.2 -0.75
      vertex -0.249125 -2.68848 -0.75
      vertex 5.67348 -5.2 -0.75
    endloop
  endfacet
  facet normal -0 0 -1
    outer loop
      vertex -0.249125 -2.68848 -0.75
      vertex -9 -5.2 -0.75
      vertex -0.73889 -2.59693 -0.75
    endloop
  endfacet
  facet normal -0 0 -1
    outer loop
      vertex -2.65403 -0.496123 -0.75
      vertex -9 -5.2 -0.75
      vertex -2.7 0 -0.75
    endloop
  endfacet
  facet normal -0 0 -1
    outer loop
      vertex -2.51767 -0.975352 -0.75
      vertex -9 -5.2 -0.75
      vertex -2.65403 -0.496123 -0.75
    endloop
  endfacet
  facet normal -0 0 -1
    outer loop
      vertex -2.29559 -1.42137 -0.75
      vertex -9 -5.2 -0.75
      vertex -2.51767 -0.975352 -0.75
    endloop
  endfacet
  facet normal -0 0 -1
    outer loop
      vertex -1.99532 -1.81898 -0.75
      vertex -9 -5.2 -0.75
      vertex -2.29559 -1.42137 -0.75
    endloop
  endfacet
  facet normal -0 0 -1
    outer loop
      vertex -1.62711 -2.15465 -0.75
      vertex -9 -5.2 -0.75
      vertex -1.99532 -1.81898 -0.75
    endloop
  endfacet
  facet normal -0 0 -1
    outer loop
      vertex -1.20349 -2.41694 -0.75
      vertex -9 -5.2 -0.75
      vertex -1.62711 -2.15465 -0.75
    endloop
  endfacet
  facet normal -0 0 -1
    outer loop
      vertex -0.73889 -2.59693 -0.75
      vertex -9 -5.2 -0.75
      vertex -1.20349 -2.41694 -0.75
    endloop
  endfacet
  facet normal -0 0 -1
    outer loop
      vertex 6.42818 4.23893 -0.75
      vertex 2.29559 1.42137 -0.75
      vertex 6.14031 4.64614 -0.75
    endloop
  endfacet
  facet normal 0 0 -1
    outer loop
      vertex 1.99532 1.81898 -0.75
      vertex 6.14031 4.64614 -0.75
      vertex 2.29559 1.42137 -0.75
    endloop
  endfacet
  facet normal -0 0 -1
    outer loop
      vertex 6.14031 4.64614 -0.75
      vertex 1.99532 1.81898 -0.75
      vertex 5.82669 5.03385 -0.75
    endloop
  endfacet
  facet normal -0 0 -1
    outer loop
      vertex 5.82669 5.03385 -0.75
      vertex 1.99532 1.81898 -0.75
      vertex 5.67348 5.2 -0.75
    endloop
  endfacet
  facet normal 0 0 -1
    outer loop
      vertex 1.62711 2.15465 -0.75
      vertex 5.67348 5.2 -0.75
      vertex 1.99532 1.81898 -0.75
    endloop
  endfacet
  facet normal 0 0 -1
    outer loop
      vertex 1.20349 2.41694 -0.75
      vertex 5.67348 5.2 -0.75
      vertex 1.62711 2.15465 -0.75
    endloop
  endfacet
  facet normal 0 0 -1
    outer loop
      vertex 0.73889 2.59693 -0.75
      vertex 5.67348 5.2 -0.75
      vertex 1.20349 2.41694 -0.75
    endloop
  endfacet
  facet normal 0 0 -1
    outer loop
      vertex 0.249125 2.68848 -0.75
      vertex 5.67348 5.2 -0.75
      vertex 0.73889 2.59693 -0.75
    endloop
  endfacet
  facet normal 0 0 -1
    outer loop
      vertex -0.249125 2.68848 -0.75
      vertex 5.67348 5.2 -0.75
      vertex 0.249125 2.68848 -0.75
    endloop
  endfacet
  facet normal 0 0 -1
    outer loop
      vertex -9 5.2 -0.75
      vertex -0.249125 2.68848 -0.75
      vertex -0.73889 2.59693 -0.75
    endloop
  endfacet
  facet normal 0 0 -1
    outer loop
      vertex -9 5.2 -0.75
      vertex -0.73889 2.59693 -0.75
      vertex -1.20349 2.41694 -0.75
    endloop
  endfacet
  facet normal 0 0 -1
    outer loop
      vertex -9 5.2 -0.75
      vertex -2.7 0 -0.75
      vertex -9 -5.2 -0.75
    endloop
  endfacet
  facet normal 0 0 -1
    outer loop
      vertex -2.7 0 -0.75
      vertex -9 5.2 -0.75
      vertex -2.65403 0.496123 -0.75
    endloop
  endfacet
  facet normal 0 0 -1
    outer loop
      vertex -2.65403 0.496123 -0.75
      vertex -9 5.2 -0.75
      vertex -2.51767 0.975352 -0.75
    endloop
  endfacet
  facet normal 0 0 -1
    outer loop
      vertex -2.51767 0.975352 -0.75
      vertex -9 5.2 -0.75
      vertex -2.29559 1.42137 -0.75
    endloop
  endfacet
  facet normal 0 0 -1
    outer loop
      vertex -0.249125 2.68848 -0.75
      vertex -9 5.2 -0.75
      vertex 5.67348 5.2 -0.75
    endloop
  endfacet
  facet normal 0 0 -1
    outer loop
      vertex -1.62711 2.15465 -0.75
      vertex -9 5.2 -0.75
      vertex -1.20349 2.41694 -0.75
    endloop
  endfacet
  facet normal 0 0 -1
    outer loop
      vertex -1.99532 1.81898 -0.75
      vertex -9 5.2 -0.75
      vertex -1.62711 2.15465 -0.75
    endloop
  endfacet
  facet normal 0 0 -1
    outer loop
      vertex -2.29559 1.42137 -0.75
      vertex -9 5.2 -0.75
      vertex -1.99532 1.81898 -0.75
    endloop
  endfacet
  facet normal 0.912665 0.408707 0
    outer loop
      vertex 7.12574 2.91784 0.75
      vertex 6.92193 3.37297 -0.75
      vertex 6.92193 3.37297 0.75
    endloop
  endfacet
  facet normal 0.912665 0.408707 0
    outer loop
      vertex 6.92193 3.37297 -0.75
      vertex 7.12574 2.91784 0.75
      vertex 7.12574 2.91784 -0.75
    endloop
  endfacet
  facet normal 0.957818 -0.287377 0
    outer loop
      vertex 7.29967 -2.45047 0.75
      vertex 7.44298 -1.97283 -0.75
      vertex 7.44298 -1.97283 0.75
    endloop
  endfacet
  facet normal 0.957818 -0.287377 0
    outer loop
      vertex 7.44298 -1.97283 -0.75
      vertex 7.29967 -2.45047 0.75
      vertex 7.29967 -2.45047 -0.75
    endloop
  endfacet
  facet normal 0.816563 -0.577256 0
    outer loop
      vertex 6.14031 -4.64614 0.75
      vertex 6.42818 -4.23893 -0.75
      vertex 6.42818 -4.23893 0.75
    endloop
  endfacet
  facet normal 0.816563 -0.577256 0
    outer loop
      vertex 6.42818 -4.23893 -0.75
      vertex 6.14031 -4.64614 0.75
      vertex 6.14031 -4.64614 -0.75
    endloop
  endfacet
  facet normal 0 1 0
    outer loop
      vertex 5.67348 5.2 0.75
      vertex 5.67348 5.2 -0.75
      vertex 0 5.2 0.75
    endloop
  endfacet
  facet normal 0 1 -0
    outer loop
      vertex 0 5.2 0.75
      vertex -6 5.2 9.25
      vertex 0 5.2 9.25
    endloop
  endfacet
  facet normal 0 1 0
    outer loop
      vertex -6 5.2 9.25
      vertex -9 5.2 6.25
      vertex -12 5.2 7.75
    endloop
  endfacet
  facet normal 0 1 0
    outer loop
      vertex -6 5.2 9.25
      vertex 0 5.2 0.75
      vertex -9 5.2 6.25
    endloop
  endfacet
  facet normal 0 1 0
    outer loop
      vertex 0 5.2 0.75
      vertex -9 5.2 -0.75
      vertex -9 5.2 6.25
    endloop
  endfacet
  facet normal 0 1 0
    outer loop
      vertex -9 5.2 -0.75
      vertex 0 5.2 0.75
      vertex 5.67348 5.2 -0.75
    endloop
  endfacet
  facet normal 0 1 0
    outer loop
      vertex -12 5.2 7.75
      vertex -9 5.2 6.25
      vertex -12 5.2 6.25
    endloop
  endfacet
  facet normal 0.986917 -0.16123 0
    outer loop
      vertex 7.55507 -1.48691 0.75
      vertex 7.63547 -0.994748 -0.75
      vertex 7.63547 -0.994748 0.75
    endloop
  endfacet
  facet normal 0.986917 -0.16123 0
    outer loop
      vertex 7.63547 -0.994748 -0.75
      vertex 7.55507 -1.48691 0.75
      vertex 7.55507 -1.48691 -0.75
    endloop
  endfacet
  facet normal 0.735146 -0.677909 0
    outer loop
      vertex 5.67348 -5.2 0.75
      vertex 5.82669 -5.03385 -0.75
      vertex 5.82669 -5.03385 0.75
    endloop
  endfacet
  facet normal 0.735146 -0.677909 0
    outer loop
      vertex 5.82669 -5.03385 -0.75
      vertex 5.67348 -5.2 0.75
      vertex 5.67348 -5.2 -0.75
    endloop
  endfacet
  facet normal 0.852217 -0.523188 0
    outer loop
      vertex 6.42818 -4.23893 0.75
      vertex 6.68908 -3.81395 -0.75
      vertex 6.68908 -3.81395 0.75
    endloop
  endfacet
  facet normal 0.852217 -0.523188 0
    outer loop
      vertex 6.68908 -3.81395 -0.75
      vertex 6.42818 -4.23893 0.75
      vertex 6.42818 -4.23893 -0.75
    endloop
  endfacet
  facet normal 0.884295 -0.466928 0
    outer loop
      vertex 6.68908 -3.81395 0.75
      vertex 6.92193 -3.37297 -0.75
      vertex 6.92193 -3.37297 0.75
    endloop
  endfacet
  facet normal 0.884295 -0.466928 0
    outer loop
      vertex 6.92193 -3.37297 -0.75
      vertex 6.68908 -3.81395 0.75
      vertex 6.68908 -3.81395 -0.75
    endloop
  endfacet
  facet normal 0.999476 -0.0323826 0
    outer loop
      vertex 7.68385 -0.498419 0.75
      vertex 7.7 0 -0.75
      vertex 7.7 0 0.75
    endloop
  endfacet
  facet normal 0.999476 -0.0323826 0
    outer loop
      vertex 7.7 0 -0.75
      vertex 7.68385 -0.498419 0.75
      vertex 7.68385 -0.498419 -0.75
    endloop
  endfacet
  facet normal 0.97441 -0.224777 0
    outer loop
      vertex 7.44298 -1.97283 0.75
      vertex 7.55507 -1.48691 -0.75
      vertex 7.55507 -1.48691 0.75
    endloop
  endfacet
  facet normal 0.97441 -0.224777 0
    outer loop
      vertex 7.55507 -1.48691 -0.75
      vertex 7.44298 -1.97283 0.75
      vertex 7.44298 -1.97283 -0.75
    endloop
  endfacet
  facet normal 0.777485 -0.628902 0
    outer loop
      vertex 5.82669 -5.03385 0.75
      vertex 6.14031 -4.64614 -0.75
      vertex 6.14031 -4.64614 0.75
    endloop
  endfacet
  facet normal 0.777485 -0.628902 0
    outer loop
      vertex 6.14031 -4.64614 -0.75
      vertex 5.82669 -5.03385 0.75
      vertex 5.82669 -5.03385 -0.75
    endloop
  endfacet
  facet normal 0.912665 -0.408707 0
    outer loop
      vertex 6.92193 -3.37297 0.75
      vertex 7.12574 -2.91784 -0.75
      vertex 7.12574 -2.91784 0.75
    endloop
  endfacet
  facet normal 0.912665 -0.408707 0
    outer loop
      vertex 7.12574 -2.91784 -0.75
      vertex 6.92193 -3.37297 0.75
      vertex 6.92193 -3.37297 -0.75
    endloop
  endfacet
  facet normal 0.995283 0.0970099 0
    outer loop
      vertex 7.68385 0.498419 0.75
      vertex 7.63547 0.994748 -0.75
      vertex 7.63547 0.994748 0.75
    endloop
  endfacet
  facet normal 0.995283 0.0970099 0
    outer loop
      vertex 7.63547 0.994748 -0.75
      vertex 7.68385 0.498419 0.75
      vertex 7.68385 0.498419 -0.75
    endloop
  endfacet
  facet normal 0.735146 0.677909 0
    outer loop
      vertex 5.82669 5.03385 0.75
      vertex 5.67348 5.2 -0.75
      vertex 5.67348 5.2 0.75
    endloop
  endfacet
  facet normal 0.735146 0.677909 0
    outer loop
      vertex 5.67348 5.2 -0.75
      vertex 5.82669 5.03385 0.75
      vertex 5.82669 5.03385 -0.75
    endloop
  endfacet
  facet normal 0.995283 -0.0970099 0
    outer loop
      vertex 7.63547 -0.994748 0.75
      vertex 7.68385 -0.498419 -0.75
      vertex 7.68385 -0.498419 0.75
    endloop
  endfacet
  facet normal 0.995283 -0.0970099 0
    outer loop
      vertex 7.68385 -0.498419 -0.75
      vertex 7.63547 -0.994748 0.75
      vertex 7.63547 -0.994748 -0.75
    endloop
  endfacet
  facet normal 0.937207 -0.348775 0
    outer loop
      vertex 7.12574 -2.91784 0.75
      vertex 7.29967 -2.45047 -0.75
      vertex 7.29967 -2.45047 0.75
    endloop
  endfacet
  facet normal 0.937207 -0.348775 0
    outer loop
      vertex 7.29967 -2.45047 -0.75
      vertex 7.12574 -2.91784 0.75
      vertex 7.12574 -2.91784 -0.75
    endloop
  endfacet
  facet normal 0.816563 0.577256 0
    outer loop
      vertex 6.42818 4.23893 0.75
      vertex 6.14031 4.64614 -0.75
      vertex 6.14031 4.64614 0.75
    endloop
  endfacet
  facet normal 0.816563 0.577256 0
    outer loop
      vertex 6.14031 4.64614 -0.75
      vertex 6.42818 4.23893 0.75
      vertex 6.42818 4.23893 -0.75
    endloop
  endfacet
  facet normal 0.852217 0.523188 0
    outer loop
      vertex 6.68908 3.81395 0.75
      vertex 6.42818 4.23893 -0.75
      vertex 6.42818 4.23893 0.75
    endloop
  endfacet
  facet normal 0.852217 0.523188 0
    outer loop
      vertex 6.42818 4.23893 -0.75
      vertex 6.68908 3.81395 0.75
      vertex 6.68908 3.81395 -0.75
    endloop
  endfacet
  facet normal 0.884295 0.466928 0
    outer loop
      vertex 6.92193 3.37297 0.75
      vertex 6.68908 3.81395 -0.75
      vertex 6.68908 3.81395 0.75
    endloop
  endfacet
  facet normal 0.884295 0.466928 0
    outer loop
      vertex 6.68908 3.81395 -0.75
      vertex 6.92193 3.37297 0.75
      vertex 6.92193 3.37297 -0.75
    endloop
  endfacet
  facet normal 0.937207 0.348775 0
    outer loop
      vertex 7.29967 2.45047 0.75
      vertex 7.12574 2.91784 -0.75
      vertex 7.12574 2.91784 0.75
    endloop
  endfacet
  facet normal 0.937207 0.348775 0
    outer loop
      vertex 7.12574 2.91784 -0.75
      vertex 7.29967 2.45047 0.75
      vertex 7.29967 2.45047 -0.75
    endloop
  endfacet
  facet normal 0.777485 0.628902 0
    outer loop
      vertex 6.14031 4.64614 0.75
      vertex 5.82669 5.03385 -0.75
      vertex 5.82669 5.03385 0.75
    endloop
  endfacet
  facet normal 0.777485 0.628902 0
    outer loop
      vertex 5.82669 5.03385 -0.75
      vertex 6.14031 4.64614 0.75
      vertex 6.14031 4.64614 -0.75
    endloop
  endfacet
  facet normal 0.957818 0.287377 0
    outer loop
      vertex 7.44298 1.97283 0.75
      vertex 7.29967 2.45047 -0.75
      vertex 7.29967 2.45047 0.75
    endloop
  endfacet
  facet normal 0.957818 0.287377 0
    outer loop
      vertex 7.29967 2.45047 -0.75
      vertex 7.44298 1.97283 0.75
      vertex 7.44298 1.97283 -0.75
    endloop
  endfacet
  facet normal 0.97441 0.224777 0
    outer loop
      vertex 7.55507 1.48691 0.75
      vertex 7.44298 1.97283 -0.75
      vertex 7.44298 1.97283 0.75
    endloop
  endfacet
  facet normal 0.97441 0.224777 0
    outer loop
      vertex 7.44298 1.97283 -0.75
      vertex 7.55507 1.48691 0.75
      vertex 7.55507 1.48691 -0.75
    endloop
  endfacet
  facet normal 1 -0 0
    outer loop
      vertex 0 4.94538 9.25
      vertex 0 5.2 0.75
      vertex 0 5.2 9.25
    endloop
  endfacet
  facet normal 1 0 0
    outer loop
      vertex 0 5.2 0.75
      vertex 0 4.94538 9.25
      vertex 0 4.94538 0.75
    endloop
  endfacet
  facet normal 1 -0 0
    outer loop
      vertex 0 -5.2 9.25
      vertex 0 -4.94538 0.75
      vertex 0 -4.94538 9.25
    endloop
  endfacet
  facet normal 1 0 0
    outer loop
      vertex 0 -4.94538 0.75
      vertex 0 -5.2 9.25
      vertex 0 -5.2 0.75
    endloop
  endfacet
  facet normal -1 0 0
    outer loop
      vertex -12 -5.2 6.25
      vertex -12 5.2 7.75
      vertex -12 5.2 6.25
    endloop
  endfacet
  facet normal -1 -0 0
    outer loop
      vertex -12 5.2 7.75
      vertex -12 -5.2 6.25
      vertex -12 -5.2 7.75
    endloop
  endfacet
  facet normal 0 0 -1
    outer loop
      vertex -12 -5.2 6.25
      vertex -9 5.2 6.25
      vertex -9 -5.2 6.25
    endloop
  endfacet
  facet normal -0 0 -1
    outer loop
      vertex -9 5.2 6.25
      vertex -12 -5.2 6.25
      vertex -12 5.2 6.25
    endloop
  endfacet
  facet normal 0 0 1
    outer loop
      vertex 0 5.2 9.25
      vertex -0.123406 4.94846 9.25
      vertex 0 4.94538 9.25
    endloop
  endfacet
  facet normal 0 0 1
    outer loop
      vertex 0 5.2 9.25
      vertex -0.6155 4.91158 9.25
      vertex -0.123406 4.94846 9.25
    endloop
  endfacet
  facet normal 0 0 1
    outer loop
      vertex 0 5.2 9.25
      vertex -1.10148 4.82589 9.25
      vertex -0.6155 4.91158 9.25
    endloop
  endfacet
  facet normal -0 0 1
    outer loop
      vertex -6 5.2 9.25
      vertex -1.10148 4.82589 9.25
      vertex 0 5.2 9.25
    endloop
  endfacet
  facet normal 0 0 1
    outer loop
      vertex -4.94385 0.246737 9.25
      vertex -6 5.2 9.25
      vertex -4.94385 -0.246737 9.25
    endloop
  endfacet
  facet normal 0 0 1
    outer loop
      vertex -4.89471 0.737759 9.25
      vertex -6 5.2 9.25
      vertex -4.94385 0.246737 9.25
    endloop
  endfacet
  facet normal 0 0 1
    outer loop
      vertex -4.79693 1.22145 9.25
      vertex -6 5.2 9.25
      vertex -4.89471 0.737759 9.25
    endloop
  endfacet
  facet normal 0 0 1
    outer loop
      vertex -4.65148 1.693 9.25
      vertex -6 5.2 9.25
      vertex -4.79693 1.22145 9.25
    endloop
  endfacet
  facet normal 0 0 1
    outer loop
      vertex -4.45979 2.14772 9.25
      vertex -6 5.2 9.25
      vertex -4.65148 1.693 9.25
    endloop
  endfacet
  facet normal 0 0 1
    outer loop
      vertex -4.22379 2.5811 9.25
      vertex -6 5.2 9.25
      vertex -4.45979 2.14772 9.25
    endloop
  endfacet
  facet normal 0 0 1
    outer loop
      vertex -3.94581 2.98883 9.25
      vertex -6 5.2 9.25
      vertex -4.22379 2.5811 9.25
    endloop
  endfacet
  facet normal 0 0 1
    outer loop
      vertex -3.62861 3.36685 9.25
      vertex -6 5.2 9.25
      vertex -3.94581 2.98883 9.25
    endloop
  endfacet
  facet normal 0 0 1
    outer loop
      vertex -3.27534 3.71142 9.25
      vertex -6 5.2 9.25
      vertex -3.62861 3.36685 9.25
    endloop
  endfacet
  facet normal 0 0 1
    outer loop
      vertex -2.88953 4.01909 9.25
      vertex -6 5.2 9.25
      vertex -3.27534 3.71142 9.25
    endloop
  endfacet
  facet normal 0 0 1
    outer loop
      vertex -2.475 4.28683 9.25
      vertex -6 5.2 9.25
      vertex -2.88953 4.01909 9.25
    endloop
  endfacet
  facet normal 0 0 1
    outer loop
      vertex -2.03587 4.51195 9.25
      vertex -6 5.2 9.25
      vertex -2.475 4.28683 9.25
    endloop
  endfacet
  facet normal 0 0 1
    outer loop
      vertex -1.57651 4.69224 9.25
      vertex -6 5.2 9.25
      vertex -2.03587 4.51195 9.25
    endloop
  endfacet
  facet normal 0 0 1
    outer loop
      vertex -1.10148 4.82589 9.25
      vertex -6 5.2 9.25
      vertex -1.57651 4.69224 9.25
    endloop
  endfacet
  facet normal -0 0 1
    outer loop
      vertex -0.123406 -4.94846 9.25
      vertex 0 -5.2 9.25
      vertex 0 -4.94538 9.25
    endloop
  endfacet
  facet normal 0 0 1
    outer loop
      vertex -0.6155 -4.91158 9.25
      vertex 0 -5.2 9.25
      vertex -0.123406 -4.94846 9.25
    endloop
  endfacet
  facet normal 0 0 1
    outer loop
      vertex -1.10148 -4.82589 9.25
      vertex 0 -5.2 9.25
      vertex -0.6155 -4.91158 9.25
    endloop
  endfacet
  facet normal 0 0 1
    outer loop
      vertex -6 -5.2 9.25
      vertex -1.10148 -4.82589 9.25
      vertex -1.57651 -4.69224 9.25
    endloop
  endfacet
  facet normal 0 0 1
    outer loop
      vertex -6 -5.2 9.25
      vertex -4.94385 -0.246737 9.25
      vertex -6 5.2 9.25
    endloop
  endfacet
  facet normal 0 0 1
    outer loop
      vertex -1.10148 -4.82589 9.25
      vertex -6 -5.2 9.25
      vertex 0 -5.2 9.25
    endloop
  endfacet
  facet normal 0 0 1
    outer loop
      vertex -2.03587 -4.51195 9.25
      vertex -6 -5.2 9.25
      vertex -1.57651 -4.69224 9.25
    endloop
  endfacet
  facet normal 0 0 1
    outer loop
      vertex -2.475 -4.28683 9.25
      vertex -6 -5.2 9.25
      vertex -2.03587 -4.51195 9.25
    endloop
  endfacet
  facet normal 0 0 1
    outer loop
      vertex -2.88953 -4.01909 9.25
      vertex -6 -5.2 9.25
      vertex -2.475 -4.28683 9.25
    endloop
  endfacet
  facet normal 0 0 1
    outer loop
      vertex -3.27534 -3.71142 9.25
      vertex -6 -5.2 9.25
      vertex -2.88953 -4.01909 9.25
    endloop
  endfacet
  facet normal 0 0 1
    outer loop
      vertex -3.62861 -3.36685 9.25
      vertex -6 -5.2 9.25
      vertex -3.27534 -3.71142 9.25
    endloop
  endfacet
  facet normal 0 0 1
    outer loop
      vertex -3.94581 -2.98883 9.25
      vertex -6 -5.2 9.25
      vertex -3.62861 -3.36685 9.25
    endloop
  endfacet
  facet normal 0 0 1
    outer loop
      vertex -4.22379 -2.5811 9.25
      vertex -6 -5.2 9.25
      vertex -3.94581 -2.98883 9.25
    endloop
  endfacet
  facet normal 0 0 1
    outer loop
      vertex -4.45979 -2.14772 9.25
      vertex -6 -5.2 9.25
      vertex -4.22379 -2.5811 9.25
    endloop
  endfacet
  facet normal 0 0 1
    outer loop
      vertex -4.65148 -1.693 9.25
      vertex -6 -5.2 9.25
      vertex -4.45979 -2.14772 9.25
    endloop
  endfacet
  facet normal 0 0 1
    outer loop
      vertex -4.79693 -1.22145 9.25
      vertex -6 -5.2 9.25
      vertex -4.65148 -1.693 9.25
    endloop
  endfacet
  facet normal 0 0 1
    outer loop
      vertex -4.89471 -0.737759 9.25
      vertex -6 -5.2 9.25
      vertex -4.79693 -1.22145 9.25
    endloop
  endfacet
  facet normal 0 0 1
    outer loop
      vertex -4.94385 -0.246737 9.25
      vertex -6 -5.2 9.25
      vertex -4.89471 -0.737759 9.25
    endloop
  endfacet
  facet normal -0.242536 0 0.970143
    outer loop
      vertex -12 5.2 7.75
      vertex -6 -5.2 9.25
      vertex -6 5.2 9.25
    endloop
  endfacet
  facet normal -0.242536 0 0.970143
    outer loop
      vertex -6 -5.2 9.25
      vertex -12 5.2 7.75
      vertex -12 -5.2 7.75
    endloop
  endfacet
  facet normal -0.995734 -0.0922688 0
    outer loop
      vertex 2.7 0 -0.75
      vertex 2.65403 0.496123 0.75
      vertex 2.65403 0.496123 -0.75
    endloop
  endfacet
  facet normal -0.995734 -0.0922688 0
    outer loop
      vertex 2.65403 0.496123 0.75
      vertex 2.7 0 -0.75
      vertex 2.7 0 0.75
    endloop
  endfacet
  facet normal 0.995734 -0.0922688 0
    outer loop
      vertex -2.7 0 0.75
      vertex -2.65403 0.496123 -0.75
      vertex -2.65403 0.496123 0.75
    endloop
  endfacet
  facet normal 0.995734 -0.0922688 0
    outer loop
      vertex -2.65403 0.496123 -0.75
      vertex -2.7 0 0.75
      vertex -2.7 0 -0.75
    endloop
  endfacet
  facet normal 0 -1 0
    outer loop
      vertex -0.249125 2.68848 -0.75
      vertex 0.249125 2.68848 0.75
      vertex -0.249125 2.68848 0.75
    endloop
  endfacet
  facet normal 0 -1 -0
    outer loop
      vertex 0.249125 2.68848 0.75
      vertex -0.249125 2.68848 -0.75
      vertex 0.249125 2.68848 -0.75
    endloop
  endfacet
  facet normal 0 1 -0
    outer loop
      vertex 0.249125 -2.68848 -0.75
      vertex -0.249125 -2.68848 0.75
      vertex 0.249125 -2.68848 0.75
    endloop
  endfacet
  facet normal 0 1 0
    outer loop
      vertex -0.249125 -2.68848 0.75
      vertex 0.249125 -2.68848 -0.75
      vertex -0.249125 -2.68848 -0.75
    endloop
  endfacet
  facet normal -0.798016 0.602636 0
    outer loop
      vertex 1.99532 -1.81898 -0.75
      vertex 2.29559 -1.42137 0.75
      vertex 2.29559 -1.42137 -0.75
    endloop
  endfacet
  facet normal -0.798016 0.602636 0
    outer loop
      vertex 2.29559 -1.42137 0.75
      vertex 1.99532 -1.81898 -0.75
      vertex 1.99532 -1.81898 0.75
    endloop
  endfacet
  facet normal -0.673697 -0.739008 0
    outer loop
      vertex 1.62711 2.15465 -0.75
      vertex 1.99532 1.81898 0.75
      vertex 1.62711 2.15465 0.75
    endloop
  endfacet
  facet normal -0.673697 -0.739008 -0
    outer loop
      vertex 1.99532 1.81898 0.75
      vertex 1.62711 2.15465 -0.75
      vertex 1.99532 1.81898 -0.75
    endloop
  endfacet
  facet normal 0.673697 -0.739008 0
    outer loop
      vertex -1.99532 1.81898 -0.75
      vertex -1.62711 2.15465 0.75
      vertex -1.99532 1.81898 0.75
    endloop
  endfacet
  facet normal 0.673697 -0.739008 0
    outer loop
      vertex -1.62711 2.15465 0.75
      vertex -1.99532 1.81898 -0.75
      vertex -1.62711 2.15465 -0.75
    endloop
  endfacet
  facet normal 0.361241 -0.932473 0
    outer loop
      vertex -1.20349 2.41694 -0.75
      vertex -0.73889 2.59693 0.75
      vertex -1.20349 2.41694 0.75
    endloop
  endfacet
  facet normal 0.361241 -0.932473 0
    outer loop
      vertex -0.73889 2.59693 0.75
      vertex -1.20349 2.41694 -0.75
      vertex -0.73889 2.59693 -0.75
    endloop
  endfacet
  facet normal -0.961826 0.273663 0
    outer loop
      vertex 2.51767 -0.975352 -0.75
      vertex 2.65403 -0.496123 0.75
      vertex 2.65403 -0.496123 -0.75
    endloop
  endfacet
  facet normal -0.961826 0.273663 0
    outer loop
      vertex 2.65403 -0.496123 0.75
      vertex 2.51767 -0.975352 -0.75
      vertex 2.51767 -0.975352 0.75
    endloop
  endfacet
  facet normal -0.895163 -0.445738 0
    outer loop
      vertex 2.51767 0.975352 -0.75
      vertex 2.29559 1.42137 0.75
      vertex 2.29559 1.42137 -0.75
    endloop
  endfacet
  facet normal -0.895163 -0.445738 0
    outer loop
      vertex 2.29559 1.42137 0.75
      vertex 2.51767 0.975352 -0.75
      vertex 2.51767 0.975352 0.75
    endloop
  endfacet
  facet normal -0.961826 -0.273663 0
    outer loop
      vertex 2.65403 0.496123 -0.75
      vertex 2.51767 0.975352 0.75
      vertex 2.51767 0.975352 -0.75
    endloop
  endfacet
  facet normal -0.961826 -0.273663 0
    outer loop
      vertex 2.51767 0.975352 0.75
      vertex 2.65403 0.496123 -0.75
      vertex 2.65403 0.496123 0.75
    endloop
  endfacet
  facet normal -0.798016 -0.602636 0
    outer loop
      vertex 2.29559 1.42137 -0.75
      vertex 1.99532 1.81898 0.75
      vertex 1.99532 1.81898 -0.75
    endloop
  endfacet
  facet normal -0.798016 -0.602636 0
    outer loop
      vertex 1.99532 1.81898 0.75
      vertex 2.29559 1.42137 -0.75
      vertex 2.29559 1.42137 0.75
    endloop
  endfacet
  facet normal -0.361241 -0.932473 0
    outer loop
      vertex 0.73889 2.59693 -0.75
      vertex 1.20349 2.41694 0.75
      vertex 0.73889 2.59693 0.75
    endloop
  endfacet
  facet normal -0.361241 -0.932473 -0
    outer loop
      vertex 1.20349 2.41694 0.75
      vertex 0.73889 2.59693 -0.75
      vertex 1.20349 2.41694 -0.75
    endloop
  endfacet
  facet normal -0.183749 -0.982973 0
    outer loop
      vertex 0.249125 2.68848 -0.75
      vertex 0.73889 2.59693 0.75
      vertex 0.249125 2.68848 0.75
    endloop
  endfacet
  facet normal -0.183749 -0.982973 -0
    outer loop
      vertex 0.73889 2.59693 0.75
      vertex 0.249125 2.68848 -0.75
      vertex 0.73889 2.59693 -0.75
    endloop
  endfacet
  facet normal -0.526432 -0.850217 0
    outer loop
      vertex 1.20349 2.41694 -0.75
      vertex 1.62711 2.15465 0.75
      vertex 1.20349 2.41694 0.75
    endloop
  endfacet
  facet normal -0.526432 -0.850217 -0
    outer loop
      vertex 1.62711 2.15465 0.75
      vertex 1.20349 2.41694 -0.75
      vertex 1.62711 2.15465 -0.75
    endloop
  endfacet
  facet normal 0.895163 -0.445738 0
    outer loop
      vertex -2.51767 0.975352 0.75
      vertex -2.29559 1.42137 -0.75
      vertex -2.29559 1.42137 0.75
    endloop
  endfacet
  facet normal 0.895163 -0.445738 0
    outer loop
      vertex -2.29559 1.42137 -0.75
      vertex -2.51767 0.975352 0.75
      vertex -2.51767 0.975352 -0.75
    endloop
  endfacet
  facet normal 0.798016 -0.602636 0
    outer loop
      vertex -2.29559 1.42137 0.75
      vertex -1.99532 1.81898 -0.75
      vertex -1.99532 1.81898 0.75
    endloop
  endfacet
  facet normal 0.798016 -0.602636 0
    outer loop
      vertex -1.99532 1.81898 -0.75
      vertex -2.29559 1.42137 0.75
      vertex -2.29559 1.42137 -0.75
    endloop
  endfacet
  facet normal 0.961826 -0.273663 0
    outer loop
      vertex -2.65403 0.496123 0.75
      vertex -2.51767 0.975352 -0.75
      vertex -2.51767 0.975352 0.75
    endloop
  endfacet
  facet normal 0.961826 -0.273663 0
    outer loop
      vertex -2.51767 0.975352 -0.75
      vertex -2.65403 0.496123 0.75
      vertex -2.65403 0.496123 -0.75
    endloop
  endfacet
  facet normal 0.526432 -0.850217 0
    outer loop
      vertex -1.62711 2.15465 -0.75
      vertex -1.20349 2.41694 0.75
      vertex -1.62711 2.15465 0.75
    endloop
  endfacet
  facet normal 0.526432 -0.850217 0
    outer loop
      vertex -1.20349 2.41694 0.75
      vertex -1.62711 2.15465 -0.75
      vertex -1.20349 2.41694 -0.75
    endloop
  endfacet
  facet normal 0.183749 -0.982973 0
    outer loop
      vertex -0.73889 2.59693 -0.75
      vertex -0.249125 2.68848 0.75
      vertex -0.73889 2.59693 0.75
    endloop
  endfacet
  facet normal 0.183749 -0.982973 0
    outer loop
      vertex -0.249125 2.68848 0.75
      vertex -0.73889 2.59693 -0.75
      vertex -0.249125 2.68848 -0.75
    endloop
  endfacet
  facet normal -0.995734 0.0922688 0
    outer loop
      vertex 2.65403 -0.496123 -0.75
      vertex 2.7 0 0.75
      vertex 2.7 0 -0.75
    endloop
  endfacet
  facet normal -0.995734 0.0922688 0
    outer loop
      vertex 2.7 0 0.75
      vertex 2.65403 -0.496123 -0.75
      vertex 2.65403 -0.496123 0.75
    endloop
  endfacet
  facet normal 0.895163 0.445738 0
    outer loop
      vertex -2.29559 -1.42137 0.75
      vertex -2.51767 -0.975352 -0.75
      vertex -2.51767 -0.975352 0.75
    endloop
  endfacet
  facet normal 0.895163 0.445738 0
    outer loop
      vertex -2.51767 -0.975352 -0.75
      vertex -2.29559 -1.42137 0.75
      vertex -2.29559 -1.42137 -0.75
    endloop
  endfacet
  facet normal -0.183749 0.982973 0
    outer loop
      vertex 0.73889 -2.59693 -0.75
      vertex 0.249125 -2.68848 0.75
      vertex 0.73889 -2.59693 0.75
    endloop
  endfacet
  facet normal -0.183749 0.982973 0
    outer loop
      vertex 0.249125 -2.68848 0.75
      vertex 0.73889 -2.59693 -0.75
      vertex 0.249125 -2.68848 -0.75
    endloop
  endfacet
  facet normal -0.895163 0.445738 0
    outer loop
      vertex 2.29559 -1.42137 -0.75
      vertex 2.51767 -0.975352 0.75
      vertex 2.51767 -0.975352 -0.75
    endloop
  endfacet
  facet normal -0.895163 0.445738 0
    outer loop
      vertex 2.51767 -0.975352 0.75
      vertex 2.29559 -1.42137 -0.75
      vertex 2.29559 -1.42137 0.75
    endloop
  endfacet
  facet normal 0.526432 0.850217 -0
    outer loop
      vertex -1.20349 -2.41694 -0.75
      vertex -1.62711 -2.15465 0.75
      vertex -1.20349 -2.41694 0.75
    endloop
  endfacet
  facet normal 0.526432 0.850217 0
    outer loop
      vertex -1.62711 -2.15465 0.75
      vertex -1.20349 -2.41694 -0.75
      vertex -1.62711 -2.15465 -0.75
    endloop
  endfacet
  facet normal -0.526432 0.850217 0
    outer loop
      vertex 1.62711 -2.15465 -0.75
      vertex 1.20349 -2.41694 0.75
      vertex 1.62711 -2.15465 0.75
    endloop
  endfacet
  facet normal -0.526432 0.850217 0
    outer loop
      vertex 1.20349 -2.41694 0.75
      vertex 1.62711 -2.15465 -0.75
      vertex 1.20349 -2.41694 -0.75
    endloop
  endfacet
  facet normal -0.361241 0.932473 0
    outer loop
      vertex 1.20349 -2.41694 -0.75
      vertex 0.73889 -2.59693 0.75
      vertex 1.20349 -2.41694 0.75
    endloop
  endfacet
  facet normal -0.361241 0.932473 0
    outer loop
      vertex 0.73889 -2.59693 0.75
      vertex 1.20349 -2.41694 -0.75
      vertex 0.73889 -2.59693 -0.75
    endloop
  endfacet
  facet normal 0.183749 0.982973 -0
    outer loop
      vertex -0.249125 -2.68848 -0.75
      vertex -0.73889 -2.59693 0.75
      vertex -0.249125 -2.68848 0.75
    endloop
  endfacet
  facet normal 0.183749 0.982973 0
    outer loop
      vertex -0.73889 -2.59693 0.75
      vertex -0.249125 -2.68848 -0.75
      vertex -0.73889 -2.59693 -0.75
    endloop
  endfacet
  facet normal 0.673697 0.739008 -0
    outer loop
      vertex -1.62711 -2.15465 -0.75
      vertex -1.99532 -1.81898 0.75
      vertex -1.62711 -2.15465 0.75
    endloop
  endfacet
  facet normal 0.673697 0.739008 0
    outer loop
      vertex -1.99532 -1.81898 0.75
      vertex -1.62711 -2.15465 -0.75
      vertex -1.99532 -1.81898 -0.75
    endloop
  endfacet
  facet normal 0.798016 0.602636 0
    outer loop
      vertex -1.99532 -1.81898 0.75
      vertex -2.29559 -1.42137 -0.75
      vertex -2.29559 -1.42137 0.75
    endloop
  endfacet
  facet normal 0.798016 0.602636 0
    outer loop
      vertex -2.29559 -1.42137 -0.75
      vertex -1.99532 -1.81898 0.75
      vertex -1.99532 -1.81898 -0.75
    endloop
  endfacet
  facet normal -0.673697 0.739008 0
    outer loop
      vertex 1.99532 -1.81898 -0.75
      vertex 1.62711 -2.15465 0.75
      vertex 1.99532 -1.81898 0.75
    endloop
  endfacet
  facet normal -0.673697 0.739008 0
    outer loop
      vertex 1.62711 -2.15465 0.75
      vertex 1.99532 -1.81898 -0.75
      vertex 1.62711 -2.15465 -0.75
    endloop
  endfacet
  facet normal 0.361241 0.932473 -0
    outer loop
      vertex -0.73889 -2.59693 -0.75
      vertex -1.20349 -2.41694 0.75
      vertex -0.73889 -2.59693 0.75
    endloop
  endfacet
  facet normal 0.361241 0.932473 0
    outer loop
      vertex -1.20349 -2.41694 0.75
      vertex -0.73889 -2.59693 -0.75
      vertex -1.20349 -2.41694 -0.75
    endloop
  endfacet
  facet normal 0.961826 0.273663 0
    outer loop
      vertex -2.51767 -0.975352 0.75
      vertex -2.65403 -0.496123 -0.75
      vertex -2.65403 -0.496123 0.75
    endloop
  endfacet
  facet normal 0.961826 0.273663 0
    outer loop
      vertex -2.65403 -0.496123 -0.75
      vertex -2.51767 -0.975352 0.75
      vertex -2.51767 -0.975352 -0.75
    endloop
  endfacet
  facet normal 0.995734 0.0922688 0
    outer loop
      vertex -2.65403 -0.496123 0.75
      vertex -2.7 0 -0.75
      vertex -2.7 0 0.75
    endloop
  endfacet
  facet normal 0.995734 0.0922688 0
    outer loop
      vertex -2.7 0 -0.75
      vertex -2.65403 -0.496123 0.75
      vertex -2.65403 -0.496123 -0.75
    endloop
  endfacet
  facet normal 1 -0 0
    outer loop
      vertex -4.94385 -0.246737 9.25
      vertex -4.94385 0.246737 0.75
      vertex -4.94385 0.246737 9.25
    endloop
  endfacet
  facet normal 1 0 0
    outer loop
      vertex -4.94385 0.246737 0.75
      vertex -4.94385 -0.246737 9.25
      vertex -4.94385 -0.246737 0.75
    endloop
  endfacet
  facet normal 0.0747287 -0.997204 0
    outer loop
      vertex -0.6155 4.91158 0.75
      vertex -0.123406 4.94846 9.25
      vertex -0.6155 4.91158 9.25
    endloop
  endfacet
  facet normal 0.0747287 -0.997204 0
    outer loop
      vertex -0.123406 4.94846 9.25
      vertex -0.6155 4.91158 0.75
      vertex -0.123406 4.94846 0.75
    endloop
  endfacet
  facet normal -0.0249302 0.999689 0
    outer loop
      vertex 0 -4.94538 0.75
      vertex -0.123406 -4.94846 9.25
      vertex 0 -4.94538 9.25
    endloop
  endfacet
  facet normal -0.0249302 0.999689 0
    outer loop
      vertex -0.123406 -4.94846 9.25
      vertex 0 -4.94538 0.75
      vertex -0.123406 -4.94846 0.75
    endloop
  endfacet
  facet normal 0.698237 0.715866 -0
    outer loop
      vertex -3.27534 -3.71142 0.75
      vertex -3.62861 -3.36685 9.25
      vertex -3.27534 -3.71142 9.25
    endloop
  endfacet
  facet normal 0.698237 0.715866 0
    outer loop
      vertex -3.62861 -3.36685 9.25
      vertex -3.27534 -3.71142 0.75
      vertex -3.62861 -3.36685 0.75
    endloop
  endfacet
  facet normal 0.766044 -0.642788 0
    outer loop
      vertex -3.94581 2.98883 9.25
      vertex -3.62861 3.36685 0.75
      vertex -3.62861 3.36685 9.25
    endloop
  endfacet
  facet normal 0.766044 -0.642788 0
    outer loop
      vertex -3.62861 3.36685 0.75
      vertex -3.94581 2.98883 9.25
      vertex -3.94581 2.98883 0.75
    endloop
  endfacet
  facet normal 0.456211 -0.889872 0
    outer loop
      vertex -2.475 4.28683 0.75
      vertex -2.03587 4.51195 9.25
      vertex -2.475 4.28683 9.25
    endloop
  endfacet
  facet normal 0.456211 -0.889872 0
    outer loop
      vertex -2.03587 4.51195 9.25
      vertex -2.475 4.28683 0.75
      vertex -2.03587 4.51195 0.75
    endloop
  endfacet
  facet normal 0.921476 0.388435 0
    outer loop
      vertex -4.45979 -2.14772 9.25
      vertex -4.65148 -1.693 0.75
      vertex -4.65148 -1.693 9.25
    endloop
  endfacet
  facet normal 0.921476 0.388435 0
    outer loop
      vertex -4.65148 -1.693 0.75
      vertex -4.45979 -2.14772 9.25
      vertex -4.45979 -2.14772 0.75
    endloop
  endfacet
  facet normal 0.955573 -0.294756 0
    outer loop
      vertex -4.79693 1.22145 9.25
      vertex -4.65148 1.693 0.75
      vertex -4.65148 1.693 9.25
    endloop
  endfacet
  facet normal 0.955573 -0.294756 0
    outer loop
      vertex -4.65148 1.693 0.75
      vertex -4.79693 1.22145 9.25
      vertex -4.79693 1.22145 0.75
    endloop
  endfacet
  facet normal 0.980172 -0.198146 0
    outer loop
      vertex -4.89471 0.737759 9.25
      vertex -4.79693 1.22145 0.75
      vertex -4.79693 1.22145 9.25
    endloop
  endfacet
  facet normal 0.980172 -0.198146 0
    outer loop
      vertex -4.79693 1.22145 0.75
      vertex -4.89471 0.737759 9.25
      vertex -4.89471 0.737759 0.75
    endloop
  endfacet
  facet normal 0.27084 -0.962624 0
    outer loop
      vertex -1.57651 4.69224 0.75
      vertex -1.10148 4.82589 9.25
      vertex -1.57651 4.69224 9.25
    endloop
  endfacet
  facet normal 0.27084 -0.962624 0
    outer loop
      vertex -1.10148 4.82589 9.25
      vertex -1.57651 4.69224 0.75
      vertex -1.10148 4.82589 0.75
    endloop
  endfacet
  facet normal -0.0249302 -0.999689 0
    outer loop
      vertex -0.123406 4.94846 0.75
      vertex 0 4.94538 9.25
      vertex -0.123406 4.94846 9.25
    endloop
  endfacet
  facet normal -0.0249302 -0.999689 -0
    outer loop
      vertex 0 4.94538 9.25
      vertex -0.123406 4.94846 0.75
      vertex 0 4.94538 0.75
    endloop
  endfacet
  facet normal 0.878222 -0.478254 0
    outer loop
      vertex -4.45979 2.14772 9.25
      vertex -4.22379 2.5811 0.75
      vertex -4.22379 2.5811 9.25
    endloop
  endfacet
  facet normal 0.878222 -0.478254 0
    outer loop
      vertex -4.22379 2.5811 0.75
      vertex -4.45979 2.14772 9.25
      vertex -4.45979 2.14772 0.75
    endloop
  endfacet
  facet normal 0.826239 -0.563319 0
    outer loop
      vertex -4.22379 2.5811 9.25
      vertex -3.94581 2.98883 0.75
      vertex -3.94581 2.98883 9.25
    endloop
  endfacet
  facet normal 0.826239 -0.563319 0
    outer loop
      vertex -3.94581 2.98883 0.75
      vertex -4.22379 2.5811 9.25
      vertex -4.22379 2.5811 0.75
    endloop
  endfacet
  facet normal 0.921476 -0.388435 0
    outer loop
      vertex -4.65148 1.693 9.25
      vertex -4.45979 2.14772 0.75
      vertex -4.45979 2.14772 9.25
    endloop
  endfacet
  facet normal 0.921476 -0.388435 0
    outer loop
      vertex -4.45979 2.14772 0.75
      vertex -4.65148 1.693 9.25
      vertex -4.65148 1.693 0.75
    endloop
  endfacet
  facet normal 0.995031 -0.099568 0
    outer loop
      vertex -4.94385 0.246737 9.25
      vertex -4.89471 0.737759 0.75
      vertex -4.89471 0.737759 9.25
    endloop
  endfacet
  facet normal 0.995031 -0.099568 0
    outer loop
      vertex -4.89471 0.737759 0.75
      vertex -4.94385 0.246737 9.25
      vertex -4.94385 0.246737 0.75
    endloop
  endfacet
  facet normal 0.62349 -0.781831 0
    outer loop
      vertex -3.27534 3.71142 0.75
      vertex -2.88953 4.01909 9.25
      vertex -3.27534 3.71142 9.25
    endloop
  endfacet
  facet normal 0.62349 -0.781831 0
    outer loop
      vertex -2.88953 4.01909 9.25
      vertex -3.27534 3.71142 0.75
      vertex -2.88953 4.01909 0.75
    endloop
  endfacet
  facet normal 0.542546 -0.840026 0
    outer loop
      vertex -2.88953 4.01909 0.75
      vertex -2.475 4.28683 9.25
      vertex -2.88953 4.01909 9.25
    endloop
  endfacet
  facet normal 0.542546 -0.840026 0
    outer loop
      vertex -2.475 4.28683 9.25
      vertex -2.88953 4.01909 0.75
      vertex -2.475 4.28683 0.75
    endloop
  endfacet
  facet normal 0.698237 -0.715866 0
    outer loop
      vertex -3.62861 3.36685 0.75
      vertex -3.27534 3.71142 9.25
      vertex -3.62861 3.36685 9.25
    endloop
  endfacet
  facet normal 0.698237 -0.715866 0
    outer loop
      vertex -3.27534 3.71142 9.25
      vertex -3.62861 3.36685 0.75
      vertex -3.27534 3.71142 0.75
    endloop
  endfacet
  facet normal 0.365341 -0.930874 0
    outer loop
      vertex -2.03587 4.51195 0.75
      vertex -1.57651 4.69224 9.25
      vertex -2.03587 4.51195 9.25
    endloop
  endfacet
  facet normal 0.365341 -0.930874 0
    outer loop
      vertex -1.57651 4.69224 9.25
      vertex -2.03587 4.51195 0.75
      vertex -1.57651 4.69224 0.75
    endloop
  endfacet
  facet normal 0.173649 -0.984808 0
    outer loop
      vertex -1.10148 4.82589 0.75
      vertex -0.6155 4.91158 9.25
      vertex -1.10148 4.82589 9.25
    endloop
  endfacet
  facet normal 0.173649 -0.984808 0
    outer loop
      vertex -0.6155 4.91158 9.25
      vertex -1.10148 4.82589 0.75
      vertex -0.6155 4.91158 0.75
    endloop
  endfacet
  facet normal 0.62349 0.781831 -0
    outer loop
      vertex -2.88953 -4.01909 0.75
      vertex -3.27534 -3.71142 9.25
      vertex -2.88953 -4.01909 9.25
    endloop
  endfacet
  facet normal 0.62349 0.781831 0
    outer loop
      vertex -3.27534 -3.71142 9.25
      vertex -2.88953 -4.01909 0.75
      vertex -3.27534 -3.71142 0.75
    endloop
  endfacet
  facet normal 0.456211 0.889872 -0
    outer loop
      vertex -2.03587 -4.51195 0.75
      vertex -2.475 -4.28683 9.25
      vertex -2.03587 -4.51195 9.25
    endloop
  endfacet
  facet normal 0.456211 0.889872 0
    outer loop
      vertex -2.475 -4.28683 9.25
      vertex -2.03587 -4.51195 0.75
      vertex -2.475 -4.28683 0.75
    endloop
  endfacet
  facet normal 0.27084 0.962624 -0
    outer loop
      vertex -1.10148 -4.82589 0.75
      vertex -1.57651 -4.69224 9.25
      vertex -1.10148 -4.82589 9.25
    endloop
  endfacet
  facet normal 0.27084 0.962624 0
    outer loop
      vertex -1.57651 -4.69224 9.25
      vertex -1.10148 -4.82589 0.75
      vertex -1.57651 -4.69224 0.75
    endloop
  endfacet
  facet normal 0.0747287 0.997204 -0
    outer loop
      vertex -0.123406 -4.94846 0.75
      vertex -0.6155 -4.91158 9.25
      vertex -0.123406 -4.94846 9.25
    endloop
  endfacet
  facet normal 0.0747287 0.997204 0
    outer loop
      vertex -0.6155 -4.91158 9.25
      vertex -0.123406 -4.94846 0.75
      vertex -0.6155 -4.91158 0.75
    endloop
  endfacet
  facet normal 0.878222 0.478254 0
    outer loop
      vertex -4.22379 -2.5811 9.25
      vertex -4.45979 -2.14772 0.75
      vertex -4.45979 -2.14772 9.25
    endloop
  endfacet
  facet normal 0.878222 0.478254 0
    outer loop
      vertex -4.45979 -2.14772 0.75
      vertex -4.22379 -2.5811 9.25
      vertex -4.22379 -2.5811 0.75
    endloop
  endfacet
  facet normal 0.766044 0.642788 0
    outer loop
      vertex -3.62861 -3.36685 9.25
      vertex -3.94581 -2.98883 0.75
      vertex -3.94581 -2.98883 9.25
    endloop
  endfacet
  facet normal 0.766044 0.642788 0
    outer loop
      vertex -3.94581 -2.98883 0.75
      vertex -3.62861 -3.36685 9.25
      vertex -3.62861 -3.36685 0.75
    endloop
  endfacet
  facet normal 0.955573 0.294756 0
    outer loop
      vertex -4.65148 -1.693 9.25
      vertex -4.79693 -1.22145 0.75
      vertex -4.79693 -1.22145 9.25
    endloop
  endfacet
  facet normal 0.955573 0.294756 0
    outer loop
      vertex -4.79693 -1.22145 0.75
      vertex -4.65148 -1.693 9.25
      vertex -4.65148 -1.693 0.75
    endloop
  endfacet
  facet normal 0.995031 0.099568 0
    outer loop
      vertex -4.89471 -0.737759 9.25
      vertex -4.94385 -0.246737 0.75
      vertex -4.94385 -0.246737 9.25
    endloop
  endfacet
  facet normal 0.995031 0.099568 0
    outer loop
      vertex -4.94385 -0.246737 0.75
      vertex -4.89471 -0.737759 9.25
      vertex -4.89471 -0.737759 0.75
    endloop
  endfacet
  facet normal 0.542546 0.840026 -0
    outer loop
      vertex -2.475 -4.28683 0.75
      vertex -2.88953 -4.01909 9.25
      vertex -2.475 -4.28683 9.25
    endloop
  endfacet
  facet normal 0.542546 0.840026 0
    outer loop
      vertex -2.88953 -4.01909 9.25
      vertex -2.475 -4.28683 0.75
      vertex -2.88953 -4.01909 0.75
    endloop
  endfacet
  facet normal 0.365341 0.930874 -0
    outer loop
      vertex -1.57651 -4.69224 0.75
      vertex -2.03587 -4.51195 9.25
      vertex -1.57651 -4.69224 9.25
    endloop
  endfacet
  facet normal 0.365341 0.930874 0
    outer loop
      vertex -2.03587 -4.51195 9.25
      vertex -1.57651 -4.69224 0.75
      vertex -2.03587 -4.51195 0.75
    endloop
  endfacet
  facet normal 0.173649 0.984808 -0
    outer loop
      vertex -0.6155 -4.91158 0.75
      vertex -1.10148 -4.82589 9.25
      vertex -0.6155 -4.91158 9.25
    endloop
  endfacet
  facet normal 0.173649 0.984808 0
    outer loop
      vertex -1.10148 -4.82589 9.25
      vertex -0.6155 -4.91158 0.75
      vertex -1.10148 -4.82589 0.75
    endloop
  endfacet
  facet normal 0.826239 0.563319 0
    outer loop
      vertex -3.94581 -2.98883 9.25
      vertex -4.22379 -2.5811 0.75
      vertex -4.22379 -2.5811 9.25
    endloop
  endfacet
  facet normal 0.826239 0.563319 0
    outer loop
      vertex -4.22379 -2.5811 0.75
      vertex -3.94581 -2.98883 9.25
      vertex -3.94581 -2.98883 0.75
    endloop
  endfacet
  facet normal 0.980172 0.198146 0
    outer loop
      vertex -4.79693 -1.22145 9.25
      vertex -4.89471 -0.737759 0.75
      vertex -4.89471 -0.737759 9.25
    endloop
  endfacet
  facet normal 0.980172 0.198146 0
    outer loop
      vertex -4.89471 -0.737759 0.75
      vertex -4.79693 -1.22145 9.25
      vertex -4.79693 -1.22145 0.75
    endloop
  endfacet
endsolid OpenSCAD_Model
