solid OpenSCAD_Model
  facet normal -0.998795 0.0490694 0
    outer loop
      vertex -21.2 12 -4
      vertex -21.1701 12.6077 -2
      vertex -21.1701 12.6077 -4
    endloop
  endfacet
  facet normal -0.998795 0.0490694 0
    outer loop
      vertex -21.1701 12.6077 -2
      vertex -21.2 12 -4
      vertex -21.2 12 -2
    endloop
  endfacet
  facet normal -0.671559 0.740951 0
    outer loop
      vertex -18.9332 16.7927 -4
      vertex -19.3841 16.3841 -2
      vertex -18.9332 16.7927 -2
    endloop
  endfacet
  facet normal -0.671559 0.740951 0
    outer loop
      vertex -19.3841 16.3841 -2
      vertex -18.9332 16.7927 -4
      vertex -19.3841 16.3841 -4
    endloop
  endfacet
  facet normal -0.336887 0.941545 0
    outer loop
      vertex -16.7998 17.933 -4
      vertex -17.3726 17.7281 -2
      vertex -16.7998 17.933 -2
    endloop
  endfacet
  facet normal -0.336887 0.941545 0
    outer loop
      vertex -17.3726 17.7281 -2
      vertex -16.7998 17.933 -4
      vertex -17.3726 17.7281 -4
    endloop
  endfacet
  facet normal -0.903988 0.427558 0
    outer loop
      vertex -20.7281 14.3726 -4
      vertex -20.4679 14.9227 -2
      vertex -20.4679 14.9227 -4
    endloop
  endfacet
  facet normal -0.903988 0.427558 0
    outer loop
      vertex -20.4679 14.9227 -2
      vertex -20.7281 14.3726 -4
      vertex -20.7281 14.3726 -2
    endloop
  endfacet
  facet normal -0.146731 0.989176 0
    outer loop
      vertex -15.6077 18.1701 -4
      vertex -16.2096 18.0809 -2
      vertex -15.6077 18.1701 -2
    endloop
  endfacet
  facet normal -0.146731 0.989176 0
    outer loop
      vertex -16.2096 18.0809 -2
      vertex -15.6077 18.1701 -4
      vertex -16.2096 18.0809 -4
    endloop
  endfacet
  facet normal 0.903989 -0.427555 0
    outer loop
      vertex -9.53209 9.07734 -2
      vertex -9.27195 9.62736 -4
      vertex -9.27195 9.62736 -2
    endloop
  endfacet
  facet normal 0.903989 -0.427555 0
    outer loop
      vertex -9.27195 9.62736 -4
      vertex -9.53209 9.07734 -2
      vertex -9.53209 9.07734 -4
    endloop
  endfacet
  facet normal -0.941545 -0.336887 0
    outer loop
      vertex -20.7281 9.62736 -4
      vertex -20.933 10.2002 -2
      vertex -20.933 10.2002 -4
    endloop
  endfacet
  facet normal -0.941545 -0.336887 0
    outer loop
      vertex -20.933 10.2002 -2
      vertex -20.7281 9.62736 -4
      vertex -20.7281 9.62736 -2
    endloop
  endfacet
  facet normal -0.970031 0.24298 0
    outer loop
      vertex -21.0809 13.2096 -4
      vertex -20.933 13.7998 -2
      vertex -20.933 13.7998 -4
    endloop
  endfacet
  facet normal -0.970031 0.24298 0
    outer loop
      vertex -20.933 13.7998 -2
      vertex -21.0809 13.2096 -4
      vertex -21.0809 13.2096 -2
    endloop
  endfacet
  facet normal -0.803207 0.5957 0
    outer loop
      vertex -20.1551 15.4445 -4
      vertex -19.7927 15.9332 -2
      vertex -19.7927 15.9332 -4
    endloop
  endfacet
  facet normal -0.803207 0.5957 0
    outer loop
      vertex -19.7927 15.9332 -2
      vertex -20.1551 15.4445 -4
      vertex -20.1551 15.4445 -2
    endloop
  endfacet
  facet normal -0.740952 0.671558 0
    outer loop
      vertex -19.7927 15.9332 -4
      vertex -19.3841 16.3841 -2
      vertex -19.3841 16.3841 -4
    endloop
  endfacet
  facet normal -0.740952 0.671558 0
    outer loop
      vertex -19.3841 16.3841 -2
      vertex -19.7927 15.9332 -4
      vertex -19.7927 15.9332 -2
    endloop
  endfacet
  facet normal -0.857729 0.514101 0
    outer loop
      vertex -20.4679 14.9227 -4
      vertex -20.1551 15.4445 -2
      vertex -20.1551 15.4445 -4
    endloop
  endfacet
  facet normal -0.857729 0.514101 0
    outer loop
      vertex -20.1551 15.4445 -2
      vertex -20.4679 14.9227 -4
      vertex -20.4679 14.9227 -2
    endloop
  endfacet
  facet normal -0.941545 0.336887 0
    outer loop
      vertex -20.933 13.7998 -4
      vertex -20.7281 14.3726 -2
      vertex -20.7281 14.3726 -4
    endloop
  endfacet
  facet normal -0.941545 0.336887 0
    outer loop
      vertex -20.7281 14.3726 -2
      vertex -20.933 13.7998 -4
      vertex -20.933 13.7998 -2
    endloop
  endfacet
  facet normal -0.989176 0.146732 0
    outer loop
      vertex -21.1701 12.6077 -4
      vertex -21.0809 13.2096 -2
      vertex -21.0809 13.2096 -4
    endloop
  endfacet
  facet normal -0.989176 0.146732 0
    outer loop
      vertex -21.0809 13.2096 -2
      vertex -21.1701 12.6077 -4
      vertex -21.1701 12.6077 -2
    endloop
  endfacet
  facet normal 0 0 1
    outer loop
      vertex -14.733 16.4002 -2
      vertex -14.6217 15.8414 -2
      vertex -14.5281 15.8275 -2
    endloop
  endfacet
  facet normal 0 0 1
    outer loop
      vertex -14.733 16.4002 -2
      vertex -14.851 15.8527 -2
      vertex -14.6217 15.8414 -2
    endloop
  endfacet
  facet normal 0 0 1
    outer loop
      vertex -15.3783 15.8414 -2
      vertex -14.733 16.4002 -2
      vertex -14.8809 16.9904 -2
    endloop
  endfacet
  facet normal 0 0 1
    outer loop
      vertex -16.2096 18.0809 -2
      vertex -14.8809 16.9904 -2
      vertex -14.9701 17.5923 -2
    endloop
  endfacet
  facet normal 0 0 1
    outer loop
      vertex -14.733 16.4002 -2
      vertex -15 15.86 -2
      vertex -14.851 15.8527 -2
    endloop
  endfacet
  facet normal -0 0 1
    outer loop
      vertex -15.6077 18.1701 -2
      vertex -14.9701 17.5923 -2
      vertex -15 18.2 -2
    endloop
  endfacet
  facet normal 0 0 1
    outer loop
      vertex -14.733 16.4002 -2
      vertex -15.149 15.8527 -2
      vertex -15 15.86 -2
    endloop
  endfacet
  facet normal -0 0 1
    outer loop
      vertex -16.2096 18.0809 -2
      vertex -14.9701 17.5923 -2
      vertex -15.6077 18.1701 -2
    endloop
  endfacet
  facet normal 0 0 1
    outer loop
      vertex -14.733 16.4002 -2
      vertex -15.3783 15.8414 -2
      vertex -15.149 15.8527 -2
    endloop
  endfacet
  facet normal 0 0 1
    outer loop
      vertex -14.8809 16.9904 -2
      vertex -15.5259 15.8195 -2
      vertex -15.3783 15.8414 -2
    endloop
  endfacet
  facet normal 0 0 1
    outer loop
      vertex -14.8809 16.9904 -2
      vertex -16.2096 18.0809 -2
      vertex -15.753 15.7858 -2
    endloop
  endfacet
  facet normal 0 0 1
    outer loop
      vertex -14.8809 16.9904 -2
      vertex -15.753 15.7858 -2
      vertex -15.5259 15.8195 -2
    endloop
  endfacet
  facet normal 0 0 1
    outer loop
      vertex -15.753 15.7858 -2
      vertex -16.2096 18.0809 -2
      vertex -15.9758 15.73 -2
    endloop
  endfacet
  facet normal -0 0 1
    outer loop
      vertex -16.7998 17.933 -2
      vertex -15.9758 15.73 -2
      vertex -16.2096 18.0809 -2
    endloop
  endfacet
  facet normal 0 0 1
    outer loop
      vertex -15.9758 15.73 -2
      vertex -16.7998 17.933 -2
      vertex -16.1205 15.6938 -2
    endloop
  endfacet
  facet normal 0 0 1
    outer loop
      vertex -16.1205 15.6938 -2
      vertex -16.7998 17.933 -2
      vertex -16.2609 15.6435 -2
    endloop
  endfacet
  facet normal -0 0 1
    outer loop
      vertex -17.3726 17.7281 -2
      vertex -16.2609 15.6435 -2
      vertex -16.7998 17.933 -2
    endloop
  endfacet
  facet normal 0 0 1
    outer loop
      vertex -16.2609 15.6435 -2
      vertex -17.3726 17.7281 -2
      vertex -16.4772 15.5662 -2
    endloop
  endfacet
  facet normal 0 0 1
    outer loop
      vertex -16.4772 15.5662 -2
      vertex -17.3726 17.7281 -2
      vertex -16.6847 15.468 -2
    endloop
  endfacet
  facet normal -0 0 1
    outer loop
      vertex -17.9227 17.4679 -2
      vertex -16.6847 15.468 -2
      vertex -17.3726 17.7281 -2
    endloop
  endfacet
  facet normal 0 0 1
    outer loop
      vertex -16.6847 15.468 -2
      vertex -17.9227 17.4679 -2
      vertex -16.8196 15.4042 -2
    endloop
  endfacet
  facet normal 0 0 1
    outer loop
      vertex -16.8196 15.4042 -2
      vertex -17.9227 17.4679 -2
      vertex -17.0166 15.2862 -2
    endloop
  endfacet
  facet normal -0 0 1
    outer loop
      vertex -18.4445 17.1551 -2
      vertex -17.0166 15.2862 -2
      vertex -17.9227 17.4679 -2
    endloop
  endfacet
  facet normal 0 0 1
    outer loop
      vertex -17.0166 15.2862 -2
      vertex -18.4445 17.1551 -2
      vertex -17.1445 15.2095 -2
    endloop
  endfacet
  facet normal 0 0 1
    outer loop
      vertex -17.1445 15.2095 -2
      vertex -18.4445 17.1551 -2
      vertex -17.2643 15.1206 -2
    endloop
  endfacet
  facet normal -0 0 1
    outer loop
      vertex -18.9332 16.7927 -2
      vertex -17.2643 15.1206 -2
      vertex -18.4445 17.1551 -2
    endloop
  endfacet
  facet normal 0 0 1
    outer loop
      vertex -17.2643 15.1206 -2
      vertex -18.9332 16.7927 -2
      vertex -17.4488 14.9838 -2
    endloop
  endfacet
  facet normal 0 0 1
    outer loop
      vertex -17.4488 14.9838 -2
      vertex -18.9332 16.7927 -2
      vertex -17.6189 14.8296 -2
    endloop
  endfacet
  facet normal -0 0 1
    outer loop
      vertex -19.3841 16.3841 -2
      vertex -17.6189 14.8296 -2
      vertex -18.9332 16.7927 -2
    endloop
  endfacet
  facet normal 0 0 1
    outer loop
      vertex -17.6189 14.8296 -2
      vertex -19.3841 16.3841 -2
      vertex -17.7294 14.7294 -2
    endloop
  endfacet
  facet normal 0 0 1
    outer loop
      vertex -17.7294 14.7294 -2
      vertex -19.3841 16.3841 -2
      vertex -17.8296 14.6189 -2
    endloop
  endfacet
  facet normal -0 0 1
    outer loop
      vertex -19.7927 15.9332 -2
      vertex -17.8296 14.6189 -2
      vertex -19.3841 16.3841 -2
    endloop
  endfacet
  facet normal 0 0 1
    outer loop
      vertex -17.8296 14.6189 -2
      vertex -19.7927 15.9332 -2
      vertex -17.9838 14.4488 -2
    endloop
  endfacet
  facet normal 0 0 1
    outer loop
      vertex -17.9838 14.4488 -2
      vertex -19.7927 15.9332 -2
      vertex -18.1206 14.2643 -2
    endloop
  endfacet
  facet normal -0 0 1
    outer loop
      vertex -20.1551 15.4445 -2
      vertex -18.1206 14.2643 -2
      vertex -19.7927 15.9332 -2
    endloop
  endfacet
  facet normal 0 0 1
    outer loop
      vertex -18.1206 14.2643 -2
      vertex -20.1551 15.4445 -2
      vertex -18.2095 14.1445 -2
    endloop
  endfacet
  facet normal 0 0 1
    outer loop
      vertex -18.2095 14.1445 -2
      vertex -20.1551 15.4445 -2
      vertex -18.2862 14.0166 -2
    endloop
  endfacet
  facet normal -0 0 1
    outer loop
      vertex -20.4679 14.9227 -2
      vertex -18.2862 14.0166 -2
      vertex -20.1551 15.4445 -2
    endloop
  endfacet
  facet normal 0 0 1
    outer loop
      vertex -18.2862 14.0166 -2
      vertex -20.4679 14.9227 -2
      vertex -18.4042 13.8196 -2
    endloop
  endfacet
  facet normal 0 0 1
    outer loop
      vertex -18.4042 13.8196 -2
      vertex -20.4679 14.9227 -2
      vertex -18.468 13.6847 -2
    endloop
  endfacet
  facet normal -0 0 1
    outer loop
      vertex -20.7281 14.3726 -2
      vertex -18.468 13.6847 -2
      vertex -20.4679 14.9227 -2
    endloop
  endfacet
  facet normal 0 0 1
    outer loop
      vertex -18.468 13.6847 -2
      vertex -20.7281 14.3726 -2
      vertex -18.5662 13.4772 -2
    endloop
  endfacet
  facet normal 0 0 1
    outer loop
      vertex -18.6435 13.2609 -2
      vertex -20.933 13.7998 -2
      vertex -18.6938 13.1205 -2
    endloop
  endfacet
  facet normal -0 0 1
    outer loop
      vertex -20.933 13.7998 -2
      vertex -18.6435 13.2609 -2
      vertex -20.7281 14.3726 -2
    endloop
  endfacet
  facet normal 0 0 1
    outer loop
      vertex -18.5662 13.4772 -2
      vertex -20.7281 14.3726 -2
      vertex -18.6435 13.2609 -2
    endloop
  endfacet
  facet normal 0 0 1
    outer loop
      vertex -9.40771 12.0299 -2
      vertex -8.82985 11.3923 -2
      vertex -8.8 12 -2
    endloop
  endfacet
  facet normal 0 0 1
    outer loop
      vertex -8.82985 11.3923 -2
      vertex -9.40771 12.0299 -2
      vertex -8.91913 10.7904 -2
    endloop
  endfacet
  facet normal 0 0 1
    outer loop
      vertex -10.0096 12.1191 -2
      vertex -8.91913 10.7904 -2
      vertex -9.40771 12.0299 -2
    endloop
  endfacet
  facet normal -0 0 1
    outer loop
      vertex -11.2142 11.247 -2
      vertex -8.91913 10.7904 -2
      vertex -10.0096 12.1191 -2
    endloop
  endfacet
  facet normal -0 0 1
    outer loop
      vertex -11.27 11.0242 -2
      vertex -8.91913 10.7904 -2
      vertex -11.2142 11.247 -2
    endloop
  endfacet
  facet normal 0 0 1
    outer loop
      vertex -9.06697 10.2002 -2
      vertex -11.3565 10.7391 -2
      vertex -9.27195 9.62736 -2
    endloop
  endfacet
  facet normal -0 0 1
    outer loop
      vertex -11.3062 10.8795 -2
      vertex -9.06697 10.2002 -2
      vertex -11.27 11.0242 -2
    endloop
  endfacet
  facet normal -0 0 1
    outer loop
      vertex -11.4338 10.5228 -2
      vertex -9.27195 9.62736 -2
      vertex -11.3565 10.7391 -2
    endloop
  endfacet
  facet normal 0 0 1
    outer loop
      vertex -11.1586 11.6217 -2
      vertex -10.0096 12.1191 -2
      vertex -10.5998 12.267 -2
    endloop
  endfacet
  facet normal -0 0 1
    outer loop
      vertex -11.3565 10.7391 -2
      vertex -9.06697 10.2002 -2
      vertex -11.3062 10.8795 -2
    endloop
  endfacet
  facet normal 0 0 1
    outer loop
      vertex -9.27195 9.62736 -2
      vertex -11.532 10.3153 -2
      vertex -9.53209 9.07734 -2
    endloop
  endfacet
  facet normal 0 0 1
    outer loop
      vertex -11.1473 11.851 -2
      vertex -10.5998 12.267 -2
      vertex -11.14 12 -2
    endloop
  endfacet
  facet normal 0 0 1
    outer loop
      vertex -10.5998 12.267 -2
      vertex -11.1473 12.149 -2
      vertex -11.14 12 -2
    endloop
  endfacet
  facet normal 0 0 1
    outer loop
      vertex -10.5998 12.267 -2
      vertex -11.1586 12.3783 -2
      vertex -11.1473 12.149 -2
    endloop
  endfacet
  facet normal -0 -0 1
    outer loop
      vertex -11.1586 12.3783 -2
      vertex -10.5998 12.267 -2
      vertex -11.1725 12.4719 -2
    endloop
  endfacet
  facet normal 0 0 1
    outer loop
      vertex -11.1586 11.6217 -2
      vertex -10.5998 12.267 -2
      vertex -11.1473 11.851 -2
    endloop
  endfacet
  facet normal 0 0 1
    outer loop
      vertex -10.0096 12.1191 -2
      vertex -11.1586 11.6217 -2
      vertex -11.1805 11.4741 -2
    endloop
  endfacet
  facet normal 0 0 1
    outer loop
      vertex -10.0096 12.1191 -2
      vertex -11.1805 11.4741 -2
      vertex -11.2142 11.247 -2
    endloop
  endfacet
  facet normal 0 0 1
    outer loop
      vertex -8.91913 10.7904 -2
      vertex -11.27 11.0242 -2
      vertex -9.06697 10.2002 -2
    endloop
  endfacet
  facet normal -0 0 1
    outer loop
      vertex -11.532 10.3153 -2
      vertex -9.27195 9.62736 -2
      vertex -11.4338 10.5228 -2
    endloop
  endfacet
  facet normal -0 0 1
    outer loop
      vertex -11.5958 10.1804 -2
      vertex -9.53209 9.07734 -2
      vertex -11.532 10.3153 -2
    endloop
  endfacet
  facet normal -0 0 1
    outer loop
      vertex -11.7138 9.98344 -2
      vertex -9.53209 9.07734 -2
      vertex -11.5958 10.1804 -2
    endloop
  endfacet
  facet normal 0 0 1
    outer loop
      vertex -9.53209 9.07734 -2
      vertex -11.7138 9.98344 -2
      vertex -9.84489 8.55546 -2
    endloop
  endfacet
  facet normal -0 0 1
    outer loop
      vertex -11.7905 9.8555 -2
      vertex -9.84489 8.55546 -2
      vertex -11.7138 9.98344 -2
    endloop
  endfacet
  facet normal -0 0 1
    outer loop
      vertex -11.8794 9.73569 -2
      vertex -9.84489 8.55546 -2
      vertex -11.7905 9.8555 -2
    endloop
  endfacet
  facet normal 0 0 1
    outer loop
      vertex -9.84489 8.55546 -2
      vertex -11.8794 9.73569 -2
      vertex -10.2073 8.06676 -2
    endloop
  endfacet
  facet normal -0 0 1
    outer loop
      vertex -12.0162 9.55124 -2
      vertex -10.2073 8.06676 -2
      vertex -11.8794 9.73569 -2
    endloop
  endfacet
  facet normal -0 0 1
    outer loop
      vertex -12.1704 9.38109 -2
      vertex -10.2073 8.06676 -2
      vertex -12.0162 9.55124 -2
    endloop
  endfacet
  facet normal 0 0 1
    outer loop
      vertex -10.2073 8.06676 -2
      vertex -12.1704 9.38109 -2
      vertex -10.6159 7.61594 -2
    endloop
  endfacet
  facet normal -0 0 1
    outer loop
      vertex -12.2706 9.27057 -2
      vertex -10.6159 7.61594 -2
      vertex -12.1704 9.38109 -2
    endloop
  endfacet
  facet normal -0 0 1
    outer loop
      vertex -12.3811 9.17039 -2
      vertex -10.6159 7.61594 -2
      vertex -12.2706 9.27057 -2
    endloop
  endfacet
  facet normal 0 0 1
    outer loop
      vertex -10.6159 7.61594 -2
      vertex -12.3811 9.17039 -2
      vertex -11.0668 7.20734 -2
    endloop
  endfacet
  facet normal -0 0 1
    outer loop
      vertex -12.5512 9.01618 -2
      vertex -11.0668 7.20734 -2
      vertex -12.3811 9.17039 -2
    endloop
  endfacet
  facet normal -0 0 1
    outer loop
      vertex -12.7357 8.87939 -2
      vertex -11.0668 7.20734 -2
      vertex -12.5512 9.01618 -2
    endloop
  endfacet
  facet normal 0 0 1
    outer loop
      vertex -11.0668 7.20734 -2
      vertex -12.7357 8.87939 -2
      vertex -11.5555 6.84489 -2
    endloop
  endfacet
  facet normal -0 0 1
    outer loop
      vertex -12.8555 8.79053 -2
      vertex -11.5555 6.84489 -2
      vertex -12.7357 8.87939 -2
    endloop
  endfacet
  facet normal -0 0 1
    outer loop
      vertex -12.9834 8.71384 -2
      vertex -11.5555 6.84489 -2
      vertex -12.8555 8.79053 -2
    endloop
  endfacet
  facet normal 0 0 1
    outer loop
      vertex -11.5555 6.84489 -2
      vertex -12.9834 8.71384 -2
      vertex -12.0773 6.53209 -2
    endloop
  endfacet
  facet normal -0 0 1
    outer loop
      vertex -13.1804 8.59578 -2
      vertex -12.0773 6.53209 -2
      vertex -12.9834 8.71384 -2
    endloop
  endfacet
  facet normal -0 0 1
    outer loop
      vertex -13.3153 8.53201 -2
      vertex -12.0773 6.53209 -2
      vertex -13.1804 8.59578 -2
    endloop
  endfacet
  facet normal 0 0 1
    outer loop
      vertex -12.0773 6.53209 -2
      vertex -13.3153 8.53201 -2
      vertex -12.6274 6.27195 -2
    endloop
  endfacet
  facet normal -0 0 1
    outer loop
      vertex -13.5228 8.43383 -2
      vertex -12.6274 6.27195 -2
      vertex -13.3153 8.53201 -2
    endloop
  endfacet
  facet normal -0 0 1
    outer loop
      vertex -13.7391 8.35646 -2
      vertex -12.6274 6.27195 -2
      vertex -13.5228 8.43383 -2
    endloop
  endfacet
  facet normal 0 0 1
    outer loop
      vertex -12.6274 6.27195 -2
      vertex -13.7391 8.35646 -2
      vertex -13.2002 6.06697 -2
    endloop
  endfacet
  facet normal -0 0 1
    outer loop
      vertex -13.8795 8.30621 -2
      vertex -13.2002 6.06697 -2
      vertex -13.7391 8.35646 -2
    endloop
  endfacet
  facet normal -0 0 1
    outer loop
      vertex -14.0242 8.26997 -2
      vertex -13.2002 6.06697 -2
      vertex -13.8795 8.30621 -2
    endloop
  endfacet
  facet normal 0 0 1
    outer loop
      vertex -13.2002 6.06697 -2
      vertex -14.0242 8.26997 -2
      vertex -13.7904 5.91913 -2
    endloop
  endfacet
  facet normal -0 0 1
    outer loop
      vertex -14.247 8.21417 -2
      vertex -13.7904 5.91913 -2
      vertex -14.0242 8.26997 -2
    endloop
  endfacet
  facet normal -0 0 1
    outer loop
      vertex -14.4741 8.18047 -2
      vertex -13.7904 5.91913 -2
      vertex -14.247 8.21417 -2
    endloop
  endfacet
  facet normal 0 0 1
    outer loop
      vertex -13.7904 5.91913 -2
      vertex -14.4741 8.18047 -2
      vertex -14.3923 5.82985 -2
    endloop
  endfacet
  facet normal -0 0 1
    outer loop
      vertex -14.6217 8.15859 -2
      vertex -14.3923 5.82985 -2
      vertex -14.4741 8.18047 -2
    endloop
  endfacet
  facet normal -0 0 1
    outer loop
      vertex -14.851 8.14732 -2
      vertex -14.3923 5.82985 -2
      vertex -14.6217 8.15859 -2
    endloop
  endfacet
  facet normal 0 0 1
    outer loop
      vertex -15 5.8 -2
      vertex -14.851 8.14732 -2
      vertex -15 8.14 -2
    endloop
  endfacet
  facet normal 0 0 1
    outer loop
      vertex -14.851 8.14732 -2
      vertex -15 5.8 -2
      vertex -14.3923 5.82985 -2
    endloop
  endfacet
  facet normal 0 0 1
    outer loop
      vertex -15.149 8.14732 -2
      vertex -15 5.8 -2
      vertex -15 8.14 -2
    endloop
  endfacet
  facet normal 0 0 1
    outer loop
      vertex -15.6077 5.82985 -2
      vertex -15.149 8.14732 -2
      vertex -15.3783 8.15859 -2
    endloop
  endfacet
  facet normal 0 0 1
    outer loop
      vertex -15.6077 5.82985 -2
      vertex -15.3783 8.15859 -2
      vertex -15.5259 8.18047 -2
    endloop
  endfacet
  facet normal 0 0 1
    outer loop
      vertex -15.149 8.14732 -2
      vertex -15.6077 5.82985 -2
      vertex -15 5.8 -2
    endloop
  endfacet
  facet normal 0 0 1
    outer loop
      vertex -16.2096 5.91913 -2
      vertex -15.5259 8.18047 -2
      vertex -15.753 8.21417 -2
    endloop
  endfacet
  facet normal 0 0 1
    outer loop
      vertex -16.2096 5.91913 -2
      vertex -15.753 8.21417 -2
      vertex -15.9758 8.26997 -2
    endloop
  endfacet
  facet normal 0 0 1
    outer loop
      vertex -16.7998 6.06697 -2
      vertex -15.9758 8.26997 -2
      vertex -16.1205 8.30621 -2
    endloop
  endfacet
  facet normal 0 0 1
    outer loop
      vertex -15.5259 8.18047 -2
      vertex -16.2096 5.91913 -2
      vertex -15.6077 5.82985 -2
    endloop
  endfacet
  facet normal 0 0 1
    outer loop
      vertex -16.7998 6.06697 -2
      vertex -16.1205 8.30621 -2
      vertex -16.2609 8.35646 -2
    endloop
  endfacet
  facet normal 0 0 1
    outer loop
      vertex -17.3726 6.27195 -2
      vertex -16.2609 8.35646 -2
      vertex -16.4772 8.43383 -2
    endloop
  endfacet
  facet normal 0 0 1
    outer loop
      vertex -17.3726 6.27195 -2
      vertex -16.4772 8.43383 -2
      vertex -16.6847 8.53201 -2
    endloop
  endfacet
  facet normal 0 0 1
    outer loop
      vertex -15.9758 8.26997 -2
      vertex -16.7998 6.06697 -2
      vertex -16.2096 5.91913 -2
    endloop
  endfacet
  facet normal 0 0 1
    outer loop
      vertex -17.9227 6.53209 -2
      vertex -16.6847 8.53201 -2
      vertex -16.8196 8.59578 -2
    endloop
  endfacet
  facet normal 0 0 1
    outer loop
      vertex -17.9227 6.53209 -2
      vertex -16.8196 8.59578 -2
      vertex -17.0166 8.71384 -2
    endloop
  endfacet
  facet normal 0 0 1
    outer loop
      vertex -18.4445 6.84489 -2
      vertex -17.0166 8.71384 -2
      vertex -17.1445 8.79053 -2
    endloop
  endfacet
  facet normal 0 0 1
    outer loop
      vertex -18.4445 6.84489 -2
      vertex -17.1445 8.79053 -2
      vertex -17.2643 8.87939 -2
    endloop
  endfacet
  facet normal 0 0 1
    outer loop
      vertex -16.2609 8.35646 -2
      vertex -17.3726 6.27195 -2
      vertex -16.7998 6.06697 -2
    endloop
  endfacet
  facet normal 0 0 1
    outer loop
      vertex -18.9332 7.20734 -2
      vertex -17.2643 8.87939 -2
      vertex -17.4488 9.01618 -2
    endloop
  endfacet
  facet normal 0 0 1
    outer loop
      vertex -18.9332 7.20734 -2
      vertex -17.4488 9.01618 -2
      vertex -17.6189 9.17039 -2
    endloop
  endfacet
  facet normal 0 0 1
    outer loop
      vertex -19.3841 7.61594 -2
      vertex -17.6189 9.17039 -2
      vertex -17.7294 9.27057 -2
    endloop
  endfacet
  facet normal 0 0 1
    outer loop
      vertex -19.3841 7.61594 -2
      vertex -17.7294 9.27057 -2
      vertex -17.8296 9.38109 -2
    endloop
  endfacet
  facet normal 0 0 1
    outer loop
      vertex -16.6847 8.53201 -2
      vertex -17.9227 6.53209 -2
      vertex -17.3726 6.27195 -2
    endloop
  endfacet
  facet normal 0 0 1
    outer loop
      vertex -19.7927 8.06676 -2
      vertex -17.8296 9.38109 -2
      vertex -17.9838 9.55124 -2
    endloop
  endfacet
  facet normal 0 0 1
    outer loop
      vertex -19.7927 8.06676 -2
      vertex -17.9838 9.55124 -2
      vertex -18.1206 9.73569 -2
    endloop
  endfacet
  facet normal 0 0 1
    outer loop
      vertex -20.1551 8.55546 -2
      vertex -18.1206 9.73569 -2
      vertex -18.2095 9.8555 -2
    endloop
  endfacet
  facet normal 0 0 1
    outer loop
      vertex -20.1551 8.55546 -2
      vertex -18.2095 9.8555 -2
      vertex -18.2862 9.98344 -2
    endloop
  endfacet
  facet normal 0 0 1
    outer loop
      vertex -20.4679 9.07734 -2
      vertex -18.2862 9.98344 -2
      vertex -18.4042 10.1804 -2
    endloop
  endfacet
  facet normal 0 0 1
    outer loop
      vertex -17.0166 8.71384 -2
      vertex -18.4445 6.84489 -2
      vertex -17.9227 6.53209 -2
    endloop
  endfacet
  facet normal 0 0 1
    outer loop
      vertex -20.4679 9.07734 -2
      vertex -18.4042 10.1804 -2
      vertex -18.468 10.3153 -2
    endloop
  endfacet
  facet normal 0 0 1
    outer loop
      vertex -20.7281 9.62736 -2
      vertex -18.468 10.3153 -2
      vertex -18.5662 10.5228 -2
    endloop
  endfacet
  facet normal 0 0 1
    outer loop
      vertex -20.7281 9.62736 -2
      vertex -18.5662 10.5228 -2
      vertex -18.6435 10.7391 -2
    endloop
  endfacet
  facet normal 0 0 1
    outer loop
      vertex -20.933 10.2002 -2
      vertex -18.6435 10.7391 -2
      vertex -18.6938 10.8795 -2
    endloop
  endfacet
  facet normal 0 0 1
    outer loop
      vertex -20.933 10.2002 -2
      vertex -18.6938 10.8795 -2
      vertex -18.73 11.0242 -2
    endloop
  endfacet
  facet normal 0 0 1
    outer loop
      vertex -21.0809 10.7904 -2
      vertex -18.73 11.0242 -2
      vertex -18.7858 11.247 -2
    endloop
  endfacet
  facet normal 0 0 1
    outer loop
      vertex -21.0809 10.7904 -2
      vertex -18.7858 11.247 -2
      vertex -18.8195 11.4741 -2
    endloop
  endfacet
  facet normal 0 0 1
    outer loop
      vertex -21.1701 11.3923 -2
      vertex -18.8195 11.4741 -2
      vertex -18.8414 11.6217 -2
    endloop
  endfacet
  facet normal 0 0 1
    outer loop
      vertex -17.2643 8.87939 -2
      vertex -18.9332 7.20734 -2
      vertex -18.4445 6.84489 -2
    endloop
  endfacet
  facet normal 0 0 1
    outer loop
      vertex -21.1701 11.3923 -2
      vertex -18.8414 11.6217 -2
      vertex -18.8527 11.851 -2
    endloop
  endfacet
  facet normal -0 0 1
    outer loop
      vertex -21.2 12 -2
      vertex -18.8527 11.851 -2
      vertex -18.86 12 -2
    endloop
  endfacet
  facet normal 0 0 1
    outer loop
      vertex -18.6938 13.1205 -2
      vertex -20.933 13.7998 -2
      vertex -18.73 12.9758 -2
    endloop
  endfacet
  facet normal -0 0 1
    outer loop
      vertex -21.0809 13.2096 -2
      vertex -18.73 12.9758 -2
      vertex -20.933 13.7998 -2
    endloop
  endfacet
  facet normal 0 0 1
    outer loop
      vertex -17.6189 9.17039 -2
      vertex -19.3841 7.61594 -2
      vertex -18.9332 7.20734 -2
    endloop
  endfacet
  facet normal 0 0 1
    outer loop
      vertex -18.73 12.9758 -2
      vertex -21.0809 13.2096 -2
      vertex -18.7858 12.753 -2
    endloop
  endfacet
  facet normal 0 0 1
    outer loop
      vertex -17.8296 9.38109 -2
      vertex -19.7927 8.06676 -2
      vertex -19.3841 7.61594 -2
    endloop
  endfacet
  facet normal 0 0 1
    outer loop
      vertex -18.7858 12.753 -2
      vertex -21.0809 13.2096 -2
      vertex -18.8195 12.5259 -2
    endloop
  endfacet
  facet normal 0 0 1
    outer loop
      vertex -18.1206 9.73569 -2
      vertex -20.1551 8.55546 -2
      vertex -19.7927 8.06676 -2
    endloop
  endfacet
  facet normal -0 0 1
    outer loop
      vertex -21.1701 12.6077 -2
      vertex -18.8195 12.5259 -2
      vertex -21.0809 13.2096 -2
    endloop
  endfacet
  facet normal 0 0 1
    outer loop
      vertex -18.2862 9.98344 -2
      vertex -20.4679 9.07734 -2
      vertex -20.1551 8.55546 -2
    endloop
  endfacet
  facet normal 0 0 1
    outer loop
      vertex -18.8195 12.5259 -2
      vertex -21.1701 12.6077 -2
      vertex -18.8414 12.3783 -2
    endloop
  endfacet
  facet normal 0 0 1
    outer loop
      vertex -18.468 10.3153 -2
      vertex -20.7281 9.62736 -2
      vertex -20.4679 9.07734 -2
    endloop
  endfacet
  facet normal 0 0 1
    outer loop
      vertex -18.8414 12.3783 -2
      vertex -21.1701 12.6077 -2
      vertex -18.8527 12.149 -2
    endloop
  endfacet
  facet normal 0 0 1
    outer loop
      vertex -18.6435 10.7391 -2
      vertex -20.933 10.2002 -2
      vertex -20.7281 9.62736 -2
    endloop
  endfacet
  facet normal 0 0 1
    outer loop
      vertex -21.2 12 -2
      vertex -18.8527 12.149 -2
      vertex -21.1701 12.6077 -2
    endloop
  endfacet
  facet normal 0 0 1
    outer loop
      vertex -18.73 11.0242 -2
      vertex -21.0809 10.7904 -2
      vertex -20.933 10.2002 -2
    endloop
  endfacet
  facet normal 0 0 1
    outer loop
      vertex -18.8527 12.149 -2
      vertex -21.2 12 -2
      vertex -18.86 12 -2
    endloop
  endfacet
  facet normal 0 0 1
    outer loop
      vertex -18.8195 11.4741 -2
      vertex -21.1701 11.3923 -2
      vertex -21.0809 10.7904 -2
    endloop
  endfacet
  facet normal 0 0 1
    outer loop
      vertex -18.8527 11.851 -2
      vertex -21.2 12 -2
      vertex -21.1701 11.3923 -2
    endloop
  endfacet
  facet normal -0.514102 0.857729 0
    outer loop
      vertex -17.9227 17.4679 -4
      vertex -18.4445 17.1551 -2
      vertex -17.9227 17.4679 -2
    endloop
  endfacet
  facet normal -0.514102 0.857729 0
    outer loop
      vertex -18.4445 17.1551 -2
      vertex -17.9227 17.4679 -4
      vertex -18.4445 17.1551 -4
    endloop
  endfacet
  facet normal -0.427558 0.903988 0
    outer loop
      vertex -17.3726 17.7281 -4
      vertex -17.9227 17.4679 -2
      vertex -17.3726 17.7281 -2
    endloop
  endfacet
  facet normal -0.427558 0.903988 0
    outer loop
      vertex -17.9227 17.4679 -2
      vertex -17.3726 17.7281 -4
      vertex -17.9227 17.4679 -4
    endloop
  endfacet
  facet normal -0.595699 0.803208 0
    outer loop
      vertex -18.4445 17.1551 -4
      vertex -18.9332 16.7927 -2
      vertex -18.4445 17.1551 -2
    endloop
  endfacet
  facet normal -0.595699 0.803208 0
    outer loop
      vertex -18.9332 16.7927 -2
      vertex -18.4445 17.1551 -4
      vertex -18.9332 16.7927 -4
    endloop
  endfacet
  facet normal -0.24298 0.970031 0
    outer loop
      vertex -16.2096 18.0809 -4
      vertex -16.7998 17.933 -2
      vertex -16.2096 18.0809 -2
    endloop
  endfacet
  facet normal -0.24298 0.970031 0
    outer loop
      vertex -16.7998 17.933 -2
      vertex -16.2096 18.0809 -4
      vertex -16.7998 17.933 -4
    endloop
  endfacet
  facet normal -0.0490694 0.998795 0
    outer loop
      vertex -15 18.2 -4
      vertex -15.6077 18.1701 -2
      vertex -15 18.2 -2
    endloop
  endfacet
  facet normal -0.0490694 0.998795 0
    outer loop
      vertex -15.6077 18.1701 -2
      vertex -15 18.2 -4
      vertex -15.6077 18.1701 -4
    endloop
  endfacet
  facet normal 0.0490678 -0.998795 0
    outer loop
      vertex -15 5.8 -4
      vertex -14.3923 5.82985 -2
      vertex -15 5.8 -2
    endloop
  endfacet
  facet normal 0.0490678 -0.998795 0
    outer loop
      vertex -14.3923 5.82985 -2
      vertex -15 5.8 -4
      vertex -14.3923 5.82985 -4
    endloop
  endfacet
  facet normal 0.242981 -0.970031 0
    outer loop
      vertex -13.7904 5.91913 -4
      vertex -13.2002 6.06697 -2
      vertex -13.7904 5.91913 -2
    endloop
  endfacet
  facet normal 0.242981 -0.970031 0
    outer loop
      vertex -13.2002 6.06697 -2
      vertex -13.7904 5.91913 -4
      vertex -13.2002 6.06697 -4
    endloop
  endfacet
  facet normal 0.595699 -0.803207 0
    outer loop
      vertex -11.5555 6.84489 -4
      vertex -11.0668 7.20734 -2
      vertex -11.5555 6.84489 -2
    endloop
  endfacet
  facet normal 0.595699 -0.803207 0
    outer loop
      vertex -11.0668 7.20734 -2
      vertex -11.5555 6.84489 -4
      vertex -11.0668 7.20734 -4
    endloop
  endfacet
  facet normal 0.427555 -0.903989 0
    outer loop
      vertex -12.6274 6.27195 -4
      vertex -12.0773 6.53209 -2
      vertex -12.6274 6.27195 -2
    endloop
  endfacet
  facet normal 0.427555 -0.903989 0
    outer loop
      vertex -12.0773 6.53209 -2
      vertex -12.6274 6.27195 -4
      vertex -12.0773 6.53209 -4
    endloop
  endfacet
  facet normal 0.740951 -0.671559 0
    outer loop
      vertex -10.6159 7.61594 -2
      vertex -10.2073 8.06676 -4
      vertex -10.2073 8.06676 -2
    endloop
  endfacet
  facet normal 0.740951 -0.671559 0
    outer loop
      vertex -10.2073 8.06676 -4
      vertex -10.6159 7.61594 -2
      vertex -10.6159 7.61594 -4
    endloop
  endfacet
  facet normal 0.857729 -0.514102 0
    outer loop
      vertex -9.84489 8.55546 -2
      vertex -9.53209 9.07734 -4
      vertex -9.53209 9.07734 -2
    endloop
  endfacet
  facet normal 0.857729 -0.514102 0
    outer loop
      vertex -9.53209 9.07734 -4
      vertex -9.84489 8.55546 -2
      vertex -9.84489 8.55546 -4
    endloop
  endfacet
  facet normal 0.998795 -0.0490678 0
    outer loop
      vertex -8.82985 11.3923 -2
      vertex -8.8 12 -4
      vertex -8.8 12 -2
    endloop
  endfacet
  facet normal 0.998795 -0.0490678 0
    outer loop
      vertex -8.8 12 -4
      vertex -8.82985 11.3923 -2
      vertex -8.82985 11.3923 -4
    endloop
  endfacet
  facet normal -0.67156 -0.740951 0
    outer loop
      vertex -19.3841 7.61594 -4
      vertex -18.9332 7.20734 -2
      vertex -19.3841 7.61594 -2
    endloop
  endfacet
  facet normal -0.67156 -0.740951 -0
    outer loop
      vertex -18.9332 7.20734 -2
      vertex -19.3841 7.61594 -4
      vertex -18.9332 7.20734 -4
    endloop
  endfacet
  facet normal -0.514103 -0.857728 0
    outer loop
      vertex -18.4445 6.84489 -4
      vertex -17.9227 6.53209 -2
      vertex -18.4445 6.84489 -2
    endloop
  endfacet
  facet normal -0.514103 -0.857728 -0
    outer loop
      vertex -17.9227 6.53209 -2
      vertex -18.4445 6.84489 -4
      vertex -17.9227 6.53209 -4
    endloop
  endfacet
  facet normal -0.336889 -0.941545 0
    outer loop
      vertex -17.3726 6.27195 -4
      vertex -16.7998 6.06697 -2
      vertex -17.3726 6.27195 -2
    endloop
  endfacet
  facet normal -0.336889 -0.941545 -0
    outer loop
      vertex -16.7998 6.06697 -2
      vertex -17.3726 6.27195 -4
      vertex -16.7998 6.06697 -4
    endloop
  endfacet
  facet normal -0.14673 -0.989177 0
    outer loop
      vertex -16.2096 5.91913 -4
      vertex -15.6077 5.82985 -2
      vertex -16.2096 5.91913 -2
    endloop
  endfacet
  facet normal -0.14673 -0.989177 -0
    outer loop
      vertex -15.6077 5.82985 -2
      vertex -16.2096 5.91913 -4
      vertex -15.6077 5.82985 -4
    endloop
  endfacet
  facet normal -0.803207 -0.5957 0
    outer loop
      vertex -19.7927 8.06676 -4
      vertex -20.1551 8.55546 -2
      vertex -20.1551 8.55546 -4
    endloop
  endfacet
  facet normal -0.803207 -0.5957 0
    outer loop
      vertex -20.1551 8.55546 -2
      vertex -19.7927 8.06676 -4
      vertex -19.7927 8.06676 -2
    endloop
  endfacet
  facet normal -0.903988 -0.427558 0
    outer loop
      vertex -20.4679 9.07734 -4
      vertex -20.7281 9.62736 -2
      vertex -20.7281 9.62736 -4
    endloop
  endfacet
  facet normal -0.903988 -0.427558 0
    outer loop
      vertex -20.7281 9.62736 -2
      vertex -20.4679 9.07734 -4
      vertex -20.4679 9.07734 -2
    endloop
  endfacet
  facet normal -0.857729 -0.514101 0
    outer loop
      vertex -20.1551 8.55546 -4
      vertex -20.4679 9.07734 -2
      vertex -20.4679 9.07734 -4
    endloop
  endfacet
  facet normal -0.857729 -0.514101 0
    outer loop
      vertex -20.4679 9.07734 -2
      vertex -20.1551 8.55546 -4
      vertex -20.1551 8.55546 -2
    endloop
  endfacet
  facet normal -0.998795 -0.0490694 0
    outer loop
      vertex -21.1701 11.3923 -4
      vertex -21.2 12 -2
      vertex -21.2 12 -4
    endloop
  endfacet
  facet normal -0.998795 -0.0490694 0
    outer loop
      vertex -21.2 12 -2
      vertex -21.1701 11.3923 -4
      vertex -21.1701 11.3923 -2
    endloop
  endfacet
  facet normal -0.970031 -0.24298 0
    outer loop
      vertex -20.933 10.2002 -4
      vertex -21.0809 10.7904 -2
      vertex -21.0809 10.7904 -4
    endloop
  endfacet
  facet normal -0.970031 -0.24298 0
    outer loop
      vertex -21.0809 10.7904 -2
      vertex -20.933 10.2002 -4
      vertex -20.933 10.2002 -2
    endloop
  endfacet
  facet normal 0 0 -1
    outer loop
      vertex -9.40771 12.0299 -4
      vertex -8.82985 11.3923 -4
      vertex -8.91913 10.7904 -4
    endloop
  endfacet
  facet normal 0 0 -1
    outer loop
      vertex -10.0096 12.1191 -4
      vertex -8.91913 10.7904 -4
      vertex -9.06697 10.2002 -4
    endloop
  endfacet
  facet normal 0 0 -1
    outer loop
      vertex -10.5998 12.267 -4
      vertex -9.06697 10.2002 -4
      vertex -9.27195 9.62736 -4
    endloop
  endfacet
  facet normal 0 0 -1
    outer loop
      vertex -8.82985 11.3923 -4
      vertex -9.40771 12.0299 -4
      vertex -8.8 12 -4
    endloop
  endfacet
  facet normal 0 0 -1
    outer loop
      vertex -10.5998 12.267 -4
      vertex -9.27195 9.62736 -4
      vertex -9.53209 9.07734 -4
    endloop
  endfacet
  facet normal 0 0 -1
    outer loop
      vertex -11.1298 12.4566 -4
      vertex -9.53209 9.07734 -4
      vertex -9.84489 8.55546 -4
    endloop
  endfacet
  facet normal 0 0 -1
    outer loop
      vertex -8.91913 10.7904 -4
      vertex -10.0096 12.1191 -4
      vertex -9.40771 12.0299 -4
    endloop
  endfacet
  facet normal 0 0 -1
    outer loop
      vertex -11.1298 12.4566 -4
      vertex -9.84489 8.55546 -4
      vertex -10.2073 8.06676 -4
    endloop
  endfacet
  facet normal 0 0 -1
    outer loop
      vertex -9.06697 10.2002 -4
      vertex -10.5998 12.267 -4
      vertex -10.0096 12.1191 -4
    endloop
  endfacet
  facet normal 0 0 -1
    outer loop
      vertex -11.1298 12.4566 -4
      vertex -10.2073 8.06676 -4
      vertex -10.6159 7.61594 -4
    endloop
  endfacet
  facet normal 0 0 -1
    outer loop
      vertex -11.1298 12.4566 -4
      vertex -10.6159 7.61594 -4
      vertex -11.0668 7.20734 -4
    endloop
  endfacet
  facet normal 0 0 -1
    outer loop
      vertex -9.53209 9.07734 -4
      vertex -11.1298 12.4566 -4
      vertex -10.5998 12.267 -4
    endloop
  endfacet
  facet normal 0 0 -1
    outer loop
      vertex -11.5555 6.84489 -4
      vertex -11.1298 12.4566 -4
      vertex -11.0668 7.20734 -4
    endloop
  endfacet
  facet normal 0 0 -1
    outer loop
      vertex -12.0773 6.53209 -4
      vertex -11.1298 12.4566 -4
      vertex -11.5555 6.84489 -4
    endloop
  endfacet
  facet normal 0 0 -1
    outer loop
      vertex -12.6274 6.27195 -4
      vertex -11.1298 12.4566 -4
      vertex -12.0773 6.53209 -4
    endloop
  endfacet
  facet normal 0 0 -1
    outer loop
      vertex -13.2002 6.06697 -4
      vertex -11.1298 12.4566 -4
      vertex -12.6274 6.27195 -4
    endloop
  endfacet
  facet normal 0 0 -1
    outer loop
      vertex -13.7904 5.91913 -4
      vertex -11.1298 12.4566 -4
      vertex -13.2002 6.06697 -4
    endloop
  endfacet
  facet normal 0 0 -1
    outer loop
      vertex -14.3923 5.82985 -4
      vertex -11.1298 12.4566 -4
      vertex -13.7904 5.91913 -4
    endloop
  endfacet
  facet normal 0 0 -1
    outer loop
      vertex -15 5.8 -4
      vertex -11.1298 12.4566 -4
      vertex -14.3923 5.82985 -4
    endloop
  endfacet
  facet normal 0 0 -1
    outer loop
      vertex -15.6077 5.82985 -4
      vertex -11.1298 12.4566 -4
      vertex -15 5.8 -4
    endloop
  endfacet
  facet normal 0 0 -1
    outer loop
      vertex -16.2096 5.91913 -4
      vertex -11.1298 12.4566 -4
      vertex -15.6077 5.82985 -4
    endloop
  endfacet
  facet normal 0 0 -1
    outer loop
      vertex -16.7998 6.06697 -4
      vertex -11.1298 12.4566 -4
      vertex -16.2096 5.91913 -4
    endloop
  endfacet
  facet normal 0 0 -1
    outer loop
      vertex -17.3726 6.27195 -4
      vertex -11.1298 12.4566 -4
      vertex -16.7998 6.06697 -4
    endloop
  endfacet
  facet normal 0 0 -1
    outer loop
      vertex -17.9227 6.53209 -4
      vertex -11.1298 12.4566 -4
      vertex -17.3726 6.27195 -4
    endloop
  endfacet
  facet normal 0 0 -1
    outer loop
      vertex -18.4445 6.84489 -4
      vertex -11.1298 12.4566 -4
      vertex -17.9227 6.53209 -4
    endloop
  endfacet
  facet normal 0 0 -1
    outer loop
      vertex -18.9332 7.20734 -4
      vertex -11.1298 12.4566 -4
      vertex -18.4445 6.84489 -4
    endloop
  endfacet
  facet normal 0 0 -1
    outer loop
      vertex -19.3841 7.61594 -4
      vertex -11.1298 12.4566 -4
      vertex -18.9332 7.20734 -4
    endloop
  endfacet
  facet normal 0 0 -1
    outer loop
      vertex -11.1298 12.4566 -4
      vertex -14.5434 15.8702 -4
      vertex -11.1749 12.7609 -4
    endloop
  endfacet
  facet normal 0 0 -1
    outer loop
      vertex -11.2679 13.1321 -4
      vertex -14.5434 15.8702 -4
      vertex -11.3969 13.4925 -4
    endloop
  endfacet
  facet normal 0 0 -1
    outer loop
      vertex -11.5605 13.8384 -4
      vertex -14.5434 15.8702 -4
      vertex -11.7573 14.1667 -4
    endloop
  endfacet
  facet normal 0 0 -1
    outer loop
      vertex -11.9853 14.4741 -4
      vertex -14.5434 15.8702 -4
      vertex -12.2423 14.7577 -4
    endloop
  endfacet
  facet normal 0 0 -1
    outer loop
      vertex -12.5259 15.0147 -4
      vertex -14.5434 15.8702 -4
      vertex -12.8333 15.2427 -4
    endloop
  endfacet
  facet normal 0 0 -1
    outer loop
      vertex -13.5075 15.6031 -4
      vertex -14.5434 15.8702 -4
      vertex -13.8679 15.7321 -4
    endloop
  endfacet
  facet normal 0 0 -1
    outer loop
      vertex -13.8679 15.7321 -4
      vertex -14.5434 15.8702 -4
      vertex -14.2391 15.8251 -4
    endloop
  endfacet
  facet normal 0 0 -1
    outer loop
      vertex -13.1616 15.4395 -4
      vertex -14.5434 15.8702 -4
      vertex -13.5075 15.6031 -4
    endloop
  endfacet
  facet normal 0 0 -1
    outer loop
      vertex -12.8333 15.2427 -4
      vertex -14.5434 15.8702 -4
      vertex -13.1616 15.4395 -4
    endloop
  endfacet
  facet normal 0 0 -1
    outer loop
      vertex -12.2423 14.7577 -4
      vertex -14.5434 15.8702 -4
      vertex -12.5259 15.0147 -4
    endloop
  endfacet
  facet normal 0 0 -1
    outer loop
      vertex -11.7573 14.1667 -4
      vertex -14.5434 15.8702 -4
      vertex -11.9853 14.4741 -4
    endloop
  endfacet
  facet normal 0 0 -1
    outer loop
      vertex -14.9701 17.5923 -4
      vertex -15.6077 18.1701 -4
      vertex -15 18.2 -4
    endloop
  endfacet
  facet normal 0 0 -1
    outer loop
      vertex -11.3969 13.4925 -4
      vertex -14.5434 15.8702 -4
      vertex -11.5605 13.8384 -4
    endloop
  endfacet
  facet normal 0 0 -1
    outer loop
      vertex -14.9701 17.5923 -4
      vertex -16.2096 18.0809 -4
      vertex -15.6077 18.1701 -4
    endloop
  endfacet
  facet normal 0 0 -1
    outer loop
      vertex -11.1749 12.7609 -4
      vertex -14.5434 15.8702 -4
      vertex -11.2679 13.1321 -4
    endloop
  endfacet
  facet normal 0 0 -1
    outer loop
      vertex -14.8809 16.9904 -4
      vertex -16.2096 18.0809 -4
      vertex -14.9701 17.5923 -4
    endloop
  endfacet
  facet normal -0 0 -1
    outer loop
      vertex -11.1298 12.4566 -4
      vertex -19.3841 7.61594 -4
      vertex -14.5434 15.8702 -4
    endloop
  endfacet
  facet normal 0 -0 -1
    outer loop
      vertex -16.2096 18.0809 -4
      vertex -14.8809 16.9904 -4
      vertex -16.7998 17.933 -4
    endloop
  endfacet
  facet normal 0 0 -1
    outer loop
      vertex -19.7927 8.06676 -4
      vertex -14.5434 15.8702 -4
      vertex -19.3841 7.61594 -4
    endloop
  endfacet
  facet normal 0 0 -1
    outer loop
      vertex -14.733 16.4002 -4
      vertex -16.7998 17.933 -4
      vertex -14.8809 16.9904 -4
    endloop
  endfacet
  facet normal 0 0 -1
    outer loop
      vertex -20.1551 8.55546 -4
      vertex -14.5434 15.8702 -4
      vertex -19.7927 8.06676 -4
    endloop
  endfacet
  facet normal 0 -0 -1
    outer loop
      vertex -16.7998 17.933 -4
      vertex -14.733 16.4002 -4
      vertex -17.3726 17.7281 -4
    endloop
  endfacet
  facet normal 0 0 -1
    outer loop
      vertex -20.4679 9.07734 -4
      vertex -14.5434 15.8702 -4
      vertex -20.1551 8.55546 -4
    endloop
  endfacet
  facet normal 0 -0 -1
    outer loop
      vertex -17.3726 17.7281 -4
      vertex -14.733 16.4002 -4
      vertex -17.9227 17.4679 -4
    endloop
  endfacet
  facet normal 0 0 -1
    outer loop
      vertex -20.7281 9.62736 -4
      vertex -14.5434 15.8702 -4
      vertex -20.4679 9.07734 -4
    endloop
  endfacet
  facet normal 0 0 -1
    outer loop
      vertex -14.5434 15.8702 -4
      vertex -17.9227 17.4679 -4
      vertex -14.733 16.4002 -4
    endloop
  endfacet
  facet normal 0 0 -1
    outer loop
      vertex -20.933 10.2002 -4
      vertex -14.5434 15.8702 -4
      vertex -20.7281 9.62736 -4
    endloop
  endfacet
  facet normal 0 -0 -1
    outer loop
      vertex -17.9227 17.4679 -4
      vertex -14.5434 15.8702 -4
      vertex -18.4445 17.1551 -4
    endloop
  endfacet
  facet normal 0 0 -1
    outer loop
      vertex -21.0809 10.7904 -4
      vertex -14.5434 15.8702 -4
      vertex -20.933 10.2002 -4
    endloop
  endfacet
  facet normal 0 -0 -1
    outer loop
      vertex -18.4445 17.1551 -4
      vertex -14.5434 15.8702 -4
      vertex -18.9332 16.7927 -4
    endloop
  endfacet
  facet normal 0 0 -1
    outer loop
      vertex -21.1701 11.3923 -4
      vertex -14.5434 15.8702 -4
      vertex -21.0809 10.7904 -4
    endloop
  endfacet
  facet normal 0 -0 -1
    outer loop
      vertex -18.9332 16.7927 -4
      vertex -14.5434 15.8702 -4
      vertex -19.3841 16.3841 -4
    endloop
  endfacet
  facet normal 0 0 -1
    outer loop
      vertex -21.2 12 -4
      vertex -14.5434 15.8702 -4
      vertex -21.1701 11.3923 -4
    endloop
  endfacet
  facet normal 0 -0 -1
    outer loop
      vertex -19.3841 16.3841 -4
      vertex -14.5434 15.8702 -4
      vertex -19.7927 15.9332 -4
    endloop
  endfacet
  facet normal 0 -0 -1
    outer loop
      vertex -21.1701 12.6077 -4
      vertex -14.5434 15.8702 -4
      vertex -21.2 12 -4
    endloop
  endfacet
  facet normal 0 -0 -1
    outer loop
      vertex -19.7927 15.9332 -4
      vertex -14.5434 15.8702 -4
      vertex -20.1551 15.4445 -4
    endloop
  endfacet
  facet normal 0 -0 -1
    outer loop
      vertex -21.0809 13.2096 -4
      vertex -14.5434 15.8702 -4
      vertex -21.1701 12.6077 -4
    endloop
  endfacet
  facet normal 0 -0 -1
    outer loop
      vertex -20.1551 15.4445 -4
      vertex -14.5434 15.8702 -4
      vertex -20.4679 14.9227 -4
    endloop
  endfacet
  facet normal 0 -0 -1
    outer loop
      vertex -20.933 13.7998 -4
      vertex -14.5434 15.8702 -4
      vertex -21.0809 13.2096 -4
    endloop
  endfacet
  facet normal 0 -0 -1
    outer loop
      vertex -20.4679 14.9227 -4
      vertex -14.5434 15.8702 -4
      vertex -20.7281 14.3726 -4
    endloop
  endfacet
  facet normal 0 -0 -1
    outer loop
      vertex -20.7281 14.3726 -4
      vertex -14.5434 15.8702 -4
      vertex -20.933 13.7998 -4
    endloop
  endfacet
  facet normal 0.14673 -0.989177 0
    outer loop
      vertex -14.3923 5.82985 -4
      vertex -13.7904 5.91913 -2
      vertex -14.3923 5.82985 -2
    endloop
  endfacet
  facet normal 0.14673 -0.989177 0
    outer loop
      vertex -13.7904 5.91913 -2
      vertex -14.3923 5.82985 -4
      vertex -13.7904 5.91913 -4
    endloop
  endfacet
  facet normal 0.336889 -0.941545 0
    outer loop
      vertex -13.2002 6.06697 -4
      vertex -12.6274 6.27195 -2
      vertex -13.2002 6.06697 -2
    endloop
  endfacet
  facet normal 0.336889 -0.941545 0
    outer loop
      vertex -12.6274 6.27195 -2
      vertex -13.2002 6.06697 -4
      vertex -12.6274 6.27195 -4
    endloop
  endfacet
  facet normal 0.671559 -0.740951 0
    outer loop
      vertex -11.0668 7.20734 -4
      vertex -10.6159 7.61594 -2
      vertex -11.0668 7.20734 -2
    endloop
  endfacet
  facet normal 0.671559 -0.740951 0
    outer loop
      vertex -10.6159 7.61594 -2
      vertex -11.0668 7.20734 -4
      vertex -10.6159 7.61594 -4
    endloop
  endfacet
  facet normal 0.514102 -0.857729 0
    outer loop
      vertex -12.0773 6.53209 -4
      vertex -11.5555 6.84489 -2
      vertex -12.0773 6.53209 -2
    endloop
  endfacet
  facet normal 0.514102 -0.857729 0
    outer loop
      vertex -11.5555 6.84489 -2
      vertex -12.0773 6.53209 -4
      vertex -11.5555 6.84489 -4
    endloop
  endfacet
  facet normal 0.803207 -0.595699 0
    outer loop
      vertex -10.2073 8.06676 -2
      vertex -9.84489 8.55546 -4
      vertex -9.84489 8.55546 -2
    endloop
  endfacet
  facet normal 0.803207 -0.595699 0
    outer loop
      vertex -9.84489 8.55546 -4
      vertex -10.2073 8.06676 -2
      vertex -10.2073 8.06676 -4
    endloop
  endfacet
  facet normal 0.970031 -0.242981 0
    outer loop
      vertex -9.06697 10.2002 -2
      vertex -8.91913 10.7904 -4
      vertex -8.91913 10.7904 -2
    endloop
  endfacet
  facet normal 0.970031 -0.242981 0
    outer loop
      vertex -8.91913 10.7904 -4
      vertex -9.06697 10.2002 -2
      vertex -9.06697 10.2002 -4
    endloop
  endfacet
  facet normal 0.941545 -0.336889 0
    outer loop
      vertex -9.27195 9.62736 -2
      vertex -9.06697 10.2002 -4
      vertex -9.06697 10.2002 -2
    endloop
  endfacet
  facet normal 0.941545 -0.336889 0
    outer loop
      vertex -9.06697 10.2002 -4
      vertex -9.27195 9.62736 -2
      vertex -9.27195 9.62736 -4
    endloop
  endfacet
  facet normal 0.989177 -0.14673 0
    outer loop
      vertex -8.91913 10.7904 -2
      vertex -8.82985 11.3923 -4
      vertex -8.82985 11.3923 -2
    endloop
  endfacet
  facet normal 0.989177 -0.14673 0
    outer loop
      vertex -8.82985 11.3923 -4
      vertex -8.91913 10.7904 -2
      vertex -8.91913 10.7904 -4
    endloop
  endfacet
  facet normal -0.595698 -0.803209 0
    outer loop
      vertex -18.9332 7.20734 -4
      vertex -18.4445 6.84489 -2
      vertex -18.9332 7.20734 -2
    endloop
  endfacet
  facet normal -0.595698 -0.803209 -0
    outer loop
      vertex -18.4445 6.84489 -2
      vertex -18.9332 7.20734 -4
      vertex -18.4445 6.84489 -4
    endloop
  endfacet
  facet normal -0.427555 -0.903989 0
    outer loop
      vertex -17.9227 6.53209 -4
      vertex -17.3726 6.27195 -2
      vertex -17.9227 6.53209 -2
    endloop
  endfacet
  facet normal -0.427555 -0.903989 -0
    outer loop
      vertex -17.3726 6.27195 -2
      vertex -17.9227 6.53209 -4
      vertex -17.3726 6.27195 -4
    endloop
  endfacet
  facet normal -0.242982 -0.970031 0
    outer loop
      vertex -16.7998 6.06697 -4
      vertex -16.2096 5.91913 -2
      vertex -16.7998 6.06697 -2
    endloop
  endfacet
  facet normal -0.242982 -0.970031 -0
    outer loop
      vertex -16.2096 5.91913 -2
      vertex -16.7998 6.06697 -4
      vertex -16.2096 5.91913 -4
    endloop
  endfacet
  facet normal -0.0490678 -0.998795 0
    outer loop
      vertex -15.6077 5.82985 -4
      vertex -15 5.8 -2
      vertex -15.6077 5.82985 -2
    endloop
  endfacet
  facet normal -0.0490678 -0.998795 -0
    outer loop
      vertex -15 5.8 -2
      vertex -15.6077 5.82985 -4
      vertex -15 5.8 -4
    endloop
  endfacet
  facet normal -0.740952 -0.671558 0
    outer loop
      vertex -19.3841 7.61594 -4
      vertex -19.7927 8.06676 -2
      vertex -19.7927 8.06676 -4
    endloop
  endfacet
  facet normal -0.740952 -0.671558 0
    outer loop
      vertex -19.7927 8.06676 -2
      vertex -19.3841 7.61594 -4
      vertex -19.3841 7.61594 -2
    endloop
  endfacet
  facet normal -0.989176 -0.146732 0
    outer loop
      vertex -21.0809 10.7904 -4
      vertex -21.1701 11.3923 -2
      vertex -21.1701 11.3923 -4
    endloop
  endfacet
  facet normal -0.989176 -0.146732 0
    outer loop
      vertex -21.1701 11.3923 -2
      vertex -21.0809 10.7904 -4
      vertex -21.0809 10.7904 -2
    endloop
  endfacet
  facet normal 0.998796 0.0490661 0
    outer loop
      vertex -14.9701 17.5923 -2
      vertex -15 18.2 -4
      vertex -15 18.2 -2
    endloop
  endfacet
  facet normal 0.998796 0.0490661 0
    outer loop
      vertex -15 18.2 -4
      vertex -14.9701 17.5923 -2
      vertex -14.9701 17.5923 -4
    endloop
  endfacet
  facet normal 0.24298 0.970031 -0
    outer loop
      vertex -10.0096 12.1191 -4
      vertex -10.5998 12.267 -2
      vertex -10.0096 12.1191 -2
    endloop
  endfacet
  facet normal 0.24298 0.970031 0
    outer loop
      vertex -10.5998 12.267 -2
      vertex -10.0096 12.1191 -4
      vertex -10.5998 12.267 -4
    endloop
  endfacet
  facet normal 0.0490662 0.998796 -0
    outer loop
      vertex -8.8 12 -4
      vertex -9.40771 12.0299 -2
      vertex -8.8 12 -2
    endloop
  endfacet
  facet normal 0.0490662 0.998796 0
    outer loop
      vertex -9.40771 12.0299 -2
      vertex -8.8 12 -4
      vertex -9.40771 12.0299 -4
    endloop
  endfacet
  facet normal 0.33689 0.941544 1.98645e-07
    outer loop
      vertex -10.5998 12.267 -2
      vertex -11.1545 12.4655 -2.84152
      vertex -11.1725 12.4719 -2
    endloop
  endfacet
  facet normal 0.33689 0.941544 -0
    outer loop
      vertex -10.5998 12.267 -4
      vertex -11.1545 12.4655 -2.84152
      vertex -10.5998 12.267 -2
    endloop
  endfacet
  facet normal 0.336889 0.941544 -5.51064e-07
    outer loop
      vertex -11.1545 12.4655 -2.84152
      vertex -10.5998 12.267 -4
      vertex -11.1298 12.4566 -4
    endloop
  endfacet
  facet normal 0.941544 0.33689 0
    outer loop
      vertex -14.5345 15.8455 -2.84152
      vertex -14.733 16.4002 -4
      vertex -14.733 16.4002 -2
    endloop
  endfacet
  facet normal 0.941544 0.336889 -5.51064e-07
    outer loop
      vertex -14.733 16.4002 -4
      vertex -14.5345 15.8455 -2.84152
      vertex -14.5434 15.8702 -4
    endloop
  endfacet
  facet normal 0.941544 0.33689 1.98645e-07
    outer loop
      vertex -14.5345 15.8455 -2.84152
      vertex -14.733 16.4002 -2
      vertex -14.5281 15.8275 -2
    endloop
  endfacet
  facet normal 0.989176 0.146732 0
    outer loop
      vertex -14.8809 16.9904 -2
      vertex -14.9701 17.5923 -4
      vertex -14.9701 17.5923 -2
    endloop
  endfacet
  facet normal 0.989176 0.146732 0
    outer loop
      vertex -14.9701 17.5923 -4
      vertex -14.8809 16.9904 -2
      vertex -14.8809 16.9904 -4
    endloop
  endfacet
  facet normal 0.146732 0.989176 -0
    outer loop
      vertex -9.40771 12.0299 -4
      vertex -10.0096 12.1191 -2
      vertex -9.40771 12.0299 -2
    endloop
  endfacet
  facet normal 0.146732 0.989176 0
    outer loop
      vertex -10.0096 12.1191 -2
      vertex -9.40771 12.0299 -4
      vertex -10.0096 12.1191 -4
    endloop
  endfacet
  facet normal 0.970031 0.24298 0
    outer loop
      vertex -14.733 16.4002 -2
      vertex -14.8809 16.9904 -4
      vertex -14.8809 16.9904 -2
    endloop
  endfacet
  facet normal 0.970031 0.24298 0
    outer loop
      vertex -14.8809 16.9904 -4
      vertex -14.733 16.4002 -2
      vertex -14.733 16.4002 -4
    endloop
  endfacet
  facet normal 0.998596 0.0490583 0.019972
    outer loop
      vertex -11.2 12 1
      vertex -11.1473 12.149 -2
      vertex -11.2183 12.3725 1
    endloop
  endfacet
  facet normal 0.998596 0.0490595 0.0199721
    outer loop
      vertex -11.1473 12.149 -2
      vertex -11.2 12 1
      vertex -11.14 12 -2
    endloop
  endfacet
  facet normal 0.998596 0.0490577 0.0199721
    outer loop
      vertex -11.1586 12.3783 -2
      vertex -11.2183 12.3725 1
      vertex -11.1473 12.149 -2
    endloop
  endfacet
  facet normal -0.998596 -0.0490531 0.0199718
    outer loop
      vertex -18.8527 11.851 -2
      vertex -18.8 12 1
      vertex -18.86 12 -2
    endloop
  endfacet
  facet normal -0.998596 -0.0490609 0.0199721
    outer loop
      vertex -18.8 12 1
      vertex -18.8527 11.851 -2
      vertex -18.7817 11.6275 1
    endloop
  endfacet
  facet normal 0.988979 0.146701 0.0199718
    outer loop
      vertex -11.1545 12.4655 -2.84152
      vertex -11.1749 12.7609 -4
      vertex -11.273 12.7413 1
    endloop
  endfacet
  facet normal 0.988979 0.1467 0.0199716
    outer loop
      vertex -11.1749 12.7609 -4
      vertex -11.1545 12.4655 -2.84152
      vertex -11.1298 12.4566 -4
    endloop
  endfacet
  facet normal 0.969838 0.24293 0.0199718
    outer loop
      vertex -11.2679 13.1321 -4
      vertex -11.273 12.7413 1
      vertex -11.1749 12.7609 -4
    endloop
  endfacet
  facet normal -0.0490583 -0.998596 0.019972
    outer loop
      vertex -15.149 8.14732 -2
      vertex -15 8.2 1
      vertex -15.3725 8.2183 1
    endloop
  endfacet
  facet normal -0.0490595 -0.998596 0.0199721
    outer loop
      vertex -15 8.2 1
      vertex -15.149 8.14732 -2
      vertex -15 8.14 -2
    endloop
  endfacet
  facet normal -0.0490595 0.998596 0.0199721
    outer loop
      vertex -15.149 15.8527 -2
      vertex -15 15.8 1
      vertex -15 15.86 -2
    endloop
  endfacet
  facet normal -0.0490583 0.998596 0.019972
    outer loop
      vertex -15 15.8 1
      vertex -15.149 15.8527 -2
      vertex -15.3725 15.7817 1
    endloop
  endfacet
  facet normal -0.803048 0.595579 0.0199721
    outer loop
      vertex -18.1596 14.1112 1
      vertex -18.1206 14.2643 -2
      vertex -18.2095 14.1445 -2
    endloop
  endfacet
  facet normal -0.803047 0.59558 0.0199722
    outer loop
      vertex -18.1206 14.2643 -2
      vertex -18.1596 14.1112 1
      vertex -17.9374 14.4107 1
    endloop
  endfacet
  facet normal -0.427471 0.903808 0.0199716
    outer loop
      vertex -16.6847 15.468 -2
      vertex -16.7913 15.3513 1
      vertex -16.4542 15.5107 1
    endloop
  endfacet
  facet normal -0.427463 0.903812 0.019972
    outer loop
      vertex -16.7913 15.3513 1
      vertex -16.6847 15.468 -2
      vertex -16.8196 15.4042 -2
    endloop
  endfacet
  facet normal -0.98898 -0.146699 0.0199721
    outer loop
      vertex -18.8195 11.4741 -2
      vertex -18.7817 11.6275 1
      vertex -18.8414 11.6217 -2
    endloop
  endfacet
  facet normal -0.98898 -0.146696 0.0199719
    outer loop
      vertex -18.7817 11.6275 1
      vertex -18.8195 11.4741 -2
      vertex -18.727 11.2587 1
    endloop
  endfacet
  facet normal 0.671425 -0.740803 0.0199719
    outer loop
      vertex -12.3811 9.17039 -2
      vertex -12.313 9.31299 1
      vertex -12.5893 9.06256 1
    endloop
  endfacet
  facet normal 0.671421 -0.740807 0.0199722
    outer loop
      vertex -12.313 9.31299 1
      vertex -12.3811 9.17039 -2
      vertex -12.2706 9.27057 -2
    endloop
  endfacet
  facet normal 0.671425 0.740803 0.0199721
    outer loop
      vertex -12.2423 14.7577 -4
      vertex -12.5893 14.9374 1
      vertex -12.313 14.687 1
    endloop
  endfacet
  facet normal -0.24293 -0.969838 0.0199717
    outer loop
      vertex -15.7413 8.27302 1
      vertex -15.9758 8.26997 -2
      vertex -15.753 8.21417 -2
    endloop
  endfacet
  facet normal -0.671427 -0.740801 0.0199722
    outer loop
      vertex -17.6189 9.17039 -2
      vertex -17.687 9.31299 1
      vertex -17.7294 9.27057 -2
    endloop
  endfacet
  facet normal -0.671427 -0.740802 0.0199723
    outer loop
      vertex -17.687 9.31299 1
      vertex -17.6189 9.17039 -2
      vertex -17.4107 9.06256 1
    endloop
  endfacet
  facet normal 0.0490577 -0.998596 0.0199721
    outer loop
      vertex -14.6275 8.2183 1
      vertex -14.851 8.14732 -2
      vertex -14.6217 8.15859 -2
    endloop
  endfacet
  facet normal 0.336825 -0.941355 0.0199717
    outer loop
      vertex -13.5458 8.48926 1
      vertex -13.7391 8.35646 -2
      vertex -13.5228 8.43383 -2
    endloop
  endfacet
  facet normal 0.941355 -0.336825 0.0199717
    outer loop
      vertex -11.3565 10.7391 -2
      vertex -11.4893 10.5458 1
      vertex -11.4338 10.5228 -2
    endloop
  endfacet
  facet normal 0.969837 -0.242933 0.019972
    outer loop
      vertex -11.3636 10.8969 1
      vertex -11.27 11.0242 -2
      vertex -11.273 11.2587 1
    endloop
  endfacet
  facet normal 0.969838 -0.242931 0.0199721
    outer loop
      vertex -11.27 11.0242 -2
      vertex -11.3636 10.8969 1
      vertex -11.3062 10.8795 -2
    endloop
  endfacet
  facet normal 0.98898 -0.146699 0.0199721
    outer loop
      vertex -11.2183 11.6275 1
      vertex -11.1805 11.4741 -2
      vertex -11.1586 11.6217 -2
    endloop
  endfacet
  facet normal 0.98898 -0.146699 0.0199721
    outer loop
      vertex -11.1805 11.4741 -2
      vertex -11.2183 11.6275 1
      vertex -11.273 11.2587 1
    endloop
  endfacet
  facet normal 0.857558 0.514 0.0199718
    outer loop
      vertex -11.5605 13.8384 -4
      vertex -11.7573 14.1667 -4
      vertex -11.6487 13.7913 1
    endloop
  endfacet
  facet normal 0.969837 0.242933 0.019972
    outer loop
      vertex -11.2679 13.1321 -4
      vertex -11.3636 13.1031 1
      vertex -11.273 12.7413 1
    endloop
  endfacet
  facet normal -0.998596 0.0490618 0.0199721
    outer loop
      vertex -18.8414 12.3783 -2
      vertex -18.8527 12.149 -2
      vertex -18.7817 12.3725 1
    endloop
  endfacet
  facet normal -0.146699 0.98898 0.0199721
    outer loop
      vertex -15.5259 15.8195 -2
      vertex -15.3725 15.7817 1
      vertex -15.3783 15.8414 -2
    endloop
  endfacet
  facet normal -0.146699 0.98898 0.0199721
    outer loop
      vertex -15.3725 15.7817 1
      vertex -15.5259 15.8195 -2
      vertex -15.7413 15.727 1
    endloop
  endfacet
  facet normal 0.857557 0.514001 0.019972
    outer loop
      vertex -11.7573 14.1667 -4
      vertex -11.8404 14.1112 1
      vertex -11.6487 13.7913 1
    endloop
  endfacet
  facet normal 0.740804 0.671424 0.0199719
    outer loop
      vertex -11.9853 14.4741 -4
      vertex -12.2423 14.7577 -4
      vertex -12.0626 14.4107 1
    endloop
  endfacet
  facet normal 0.514 0.857558 0.0199718
    outer loop
      vertex -13.1616 15.4395 -4
      vertex -13.2087 15.3513 1
      vertex -12.8333 15.2427 -4
    endloop
  endfacet
  facet normal -0.98898 -0.146695 0.019972
    outer loop
      vertex -18.727 11.2587 1
      vertex -18.8195 11.4741 -2
      vertex -18.7858 11.247 -2
    endloop
  endfacet
  facet normal -0.998596 -0.0490618 0.0199721
    outer loop
      vertex -18.7817 11.6275 1
      vertex -18.8527 11.851 -2
      vertex -18.8414 11.6217 -2
    endloop
  endfacet
  facet normal -0.857561 -0.513995 0.0199719
    outer loop
      vertex -18.3513 10.2087 1
      vertex -18.4042 10.1804 -2
      vertex -18.2862 9.98344 -2
    endloop
  endfacet
  facet normal -0.857558 -0.513999 0.0199723
    outer loop
      vertex -18.2862 9.98344 -2
      vertex -18.1596 9.88883 1
      vertex -18.3513 10.2087 1
    endloop
  endfacet
  facet normal -0.857557 -0.514001 0.0199721
    outer loop
      vertex -18.1596 9.88883 1
      vertex -18.2862 9.98344 -2
      vertex -18.2095 9.8555 -2
    endloop
  endfacet
  facet normal -0.740801 -0.671427 0.0199721
    outer loop
      vertex -17.9374 9.58931 1
      vertex -17.9838 9.55124 -2
      vertex -17.8296 9.38109 -2
    endloop
  endfacet
  facet normal 0.146704 -0.988979 0.0199717
    outer loop
      vertex -14.2587 8.27302 1
      vertex -14.4741 8.18047 -2
      vertex -14.247 8.21417 -2
    endloop
  endfacet
  facet normal 0.146699 -0.98898 0.0199721
    outer loop
      vertex -14.4741 8.18047 -2
      vertex -14.6275 8.2183 1
      vertex -14.6217 8.15859 -2
    endloop
  endfacet
  facet normal 0.146699 -0.98898 0.0199721
    outer loop
      vertex -14.6275 8.2183 1
      vertex -14.4741 8.18047 -2
      vertex -14.2587 8.27302 1
    endloop
  endfacet
  facet normal 0.24293 -0.969838 0.0199717
    outer loop
      vertex -14.0242 8.26997 -2
      vertex -14.2587 8.27302 1
      vertex -14.247 8.21417 -2
    endloop
  endfacet
  facet normal 0.740801 -0.671427 0.0199721
    outer loop
      vertex -12.0626 9.58931 1
      vertex -12.1704 9.38109 -2
      vertex -12.0162 9.55124 -2
    endloop
  endfacet
  facet normal 0.803045 -0.595583 0.0199721
    outer loop
      vertex -11.8404 9.88883 1
      vertex -11.8794 9.73569 -2
      vertex -11.7905 9.8555 -2
    endloop
  endfacet
  facet normal 0.803047 -0.59558 0.019972
    outer loop
      vertex -11.8794 9.73569 -2
      vertex -11.8404 9.88883 1
      vertex -12.0626 9.58931 1
    endloop
  endfacet
  facet normal 0.803049 -0.595579 0.0199721
    outer loop
      vertex -11.8794 9.73569 -2
      vertex -12.0626 9.58931 1
      vertex -12.0162 9.55124 -2
    endloop
  endfacet
  facet normal 0.903808 -0.427471 0.0199717
    outer loop
      vertex -11.4893 10.5458 1
      vertex -11.532 10.3153 -2
      vertex -11.4338 10.5228 -2
    endloop
  endfacet
  facet normal 0.969838 -0.24293 0.0199717
    outer loop
      vertex -11.2142 11.247 -2
      vertex -11.273 11.2587 1
      vertex -11.27 11.0242 -2
    endloop
  endfacet
  facet normal 0.941357 -0.336821 0.0199721
    outer loop
      vertex -11.3636 10.8969 1
      vertex -11.3565 10.7391 -2
      vertex -11.3062 10.8795 -2
    endloop
  endfacet
  facet normal 0.941357 -0.336821 0.0199721
    outer loop
      vertex -11.3565 10.7391 -2
      vertex -11.3636 10.8969 1
      vertex -11.4893 10.5458 1
    endloop
  endfacet
  facet normal 0.988979 -0.146704 0.0199717
    outer loop
      vertex -11.1805 11.4741 -2
      vertex -11.273 11.2587 1
      vertex -11.2142 11.247 -2
    endloop
  endfacet
  facet normal 0 0 1
    outer loop
      vertex -11.2183 12.3725 1
      vertex -11.2183 11.6275 1
      vertex -11.2 12 1
    endloop
  endfacet
  facet normal 0 0 1
    outer loop
      vertex -11.273 12.7413 1
      vertex -11.2183 11.6275 1
      vertex -11.2183 12.3725 1
    endloop
  endfacet
  facet normal 0 0 1
    outer loop
      vertex -11.273 12.7413 1
      vertex -11.273 11.2587 1
      vertex -11.2183 11.6275 1
    endloop
  endfacet
  facet normal 0 0 1
    outer loop
      vertex -11.3636 13.1031 1
      vertex -11.273 11.2587 1
      vertex -11.273 12.7413 1
    endloop
  endfacet
  facet normal 0 0 1
    outer loop
      vertex -11.3636 13.1031 1
      vertex -11.3636 10.8969 1
      vertex -11.273 11.2587 1
    endloop
  endfacet
  facet normal 0 0 1
    outer loop
      vertex -11.4893 13.4542 1
      vertex -11.3636 10.8969 1
      vertex -11.3636 13.1031 1
    endloop
  endfacet
  facet normal 0 0 1
    outer loop
      vertex -11.4893 13.4542 1
      vertex -11.4893 10.5458 1
      vertex -11.3636 10.8969 1
    endloop
  endfacet
  facet normal 0 0 1
    outer loop
      vertex -11.6487 13.7913 1
      vertex -11.4893 10.5458 1
      vertex -11.4893 13.4542 1
    endloop
  endfacet
  facet normal 0 0 1
    outer loop
      vertex -11.6487 13.7913 1
      vertex -11.6487 10.2087 1
      vertex -11.4893 10.5458 1
    endloop
  endfacet
  facet normal 0 0 1
    outer loop
      vertex -11.8404 14.1112 1
      vertex -11.6487 10.2087 1
      vertex -11.6487 13.7913 1
    endloop
  endfacet
  facet normal 0 0 1
    outer loop
      vertex -11.8404 14.1112 1
      vertex -11.8404 9.88883 1
      vertex -11.6487 10.2087 1
    endloop
  endfacet
  facet normal 0 0 1
    outer loop
      vertex -12.0626 14.4107 1
      vertex -11.8404 9.88883 1
      vertex -11.8404 14.1112 1
    endloop
  endfacet
  facet normal 0 0 1
    outer loop
      vertex -12.0626 14.4107 1
      vertex -12.0626 9.58931 1
      vertex -11.8404 9.88883 1
    endloop
  endfacet
  facet normal 0 0 1
    outer loop
      vertex -12.313 14.687 1
      vertex -12.0626 9.58931 1
      vertex -12.0626 14.4107 1
    endloop
  endfacet
  facet normal 0 0 1
    outer loop
      vertex -12.313 14.687 1
      vertex -12.313 9.31299 1
      vertex -12.0626 9.58931 1
    endloop
  endfacet
  facet normal 0 0 1
    outer loop
      vertex -12.5893 14.9374 1
      vertex -12.313 9.31299 1
      vertex -12.313 14.687 1
    endloop
  endfacet
  facet normal 0 0 1
    outer loop
      vertex -12.5893 14.9374 1
      vertex -12.5893 9.06256 1
      vertex -12.313 9.31299 1
    endloop
  endfacet
  facet normal 0 0 1
    outer loop
      vertex -12.8888 15.1596 1
      vertex -12.5893 9.06256 1
      vertex -12.5893 14.9374 1
    endloop
  endfacet
  facet normal 0 0 1
    outer loop
      vertex -12.8888 15.1596 1
      vertex -12.8888 8.84042 1
      vertex -12.5893 9.06256 1
    endloop
  endfacet
  facet normal 0 0 1
    outer loop
      vertex -13.2087 15.3513 1
      vertex -12.8888 8.84042 1
      vertex -12.8888 15.1596 1
    endloop
  endfacet
  facet normal 0 0 1
    outer loop
      vertex -13.2087 15.3513 1
      vertex -13.2087 8.6487 1
      vertex -12.8888 8.84042 1
    endloop
  endfacet
  facet normal 0 0 1
    outer loop
      vertex -13.5458 15.5107 1
      vertex -13.2087 8.6487 1
      vertex -13.2087 15.3513 1
    endloop
  endfacet
  facet normal 0 0 1
    outer loop
      vertex -13.5458 15.5107 1
      vertex -13.5458 8.48926 1
      vertex -13.2087 8.6487 1
    endloop
  endfacet
  facet normal 0 0 1
    outer loop
      vertex -13.8969 15.6364 1
      vertex -13.5458 8.48926 1
      vertex -13.5458 15.5107 1
    endloop
  endfacet
  facet normal 0 0 1
    outer loop
      vertex -13.8969 15.6364 1
      vertex -13.8969 8.36363 1
      vertex -13.5458 8.48926 1
    endloop
  endfacet
  facet normal 0 0 1
    outer loop
      vertex -14.2587 15.727 1
      vertex -13.8969 8.36363 1
      vertex -13.8969 15.6364 1
    endloop
  endfacet
  facet normal 0 0 1
    outer loop
      vertex -14.2587 15.727 1
      vertex -14.2587 8.27302 1
      vertex -13.8969 8.36363 1
    endloop
  endfacet
  facet normal 0 0 1
    outer loop
      vertex -14.6275 15.7817 1
      vertex -14.2587 8.27302 1
      vertex -14.2587 15.727 1
    endloop
  endfacet
  facet normal 0 0 1
    outer loop
      vertex -14.6275 15.7817 1
      vertex -14.6275 8.2183 1
      vertex -14.2587 8.27302 1
    endloop
  endfacet
  facet normal 0 0 1
    outer loop
      vertex -15 15.8 1
      vertex -14.6275 8.2183 1
      vertex -14.6275 15.7817 1
    endloop
  endfacet
  facet normal 0 0 1
    outer loop
      vertex -15 15.8 1
      vertex -15 8.2 1
      vertex -14.6275 8.2183 1
    endloop
  endfacet
  facet normal -0 0 1
    outer loop
      vertex -15.3725 15.7817 1
      vertex -15 8.2 1
      vertex -15 15.8 1
    endloop
  endfacet
  facet normal 0 0 1
    outer loop
      vertex -15.3725 15.7817 1
      vertex -15.3725 8.2183 1
      vertex -15 8.2 1
    endloop
  endfacet
  facet normal -0 0 1
    outer loop
      vertex -15.7413 15.727 1
      vertex -15.3725 8.2183 1
      vertex -15.3725 15.7817 1
    endloop
  endfacet
  facet normal 0 0 1
    outer loop
      vertex -15.7413 15.727 1
      vertex -15.7413 8.27302 1
      vertex -15.3725 8.2183 1
    endloop
  endfacet
  facet normal -0 0 1
    outer loop
      vertex -16.1031 15.6364 1
      vertex -15.7413 8.27302 1
      vertex -15.7413 15.727 1
    endloop
  endfacet
  facet normal 0 0 1
    outer loop
      vertex -16.1031 15.6364 1
      vertex -16.1031 8.36363 1
      vertex -15.7413 8.27302 1
    endloop
  endfacet
  facet normal -0 0 1
    outer loop
      vertex -16.4542 15.5107 1
      vertex -16.1031 8.36363 1
      vertex -16.1031 15.6364 1
    endloop
  endfacet
  facet normal 0 0 1
    outer loop
      vertex -16.4542 15.5107 1
      vertex -16.4542 8.48926 1
      vertex -16.1031 8.36363 1
    endloop
  endfacet
  facet normal -0 0 1
    outer loop
      vertex -16.7913 15.3513 1
      vertex -16.4542 8.48926 1
      vertex -16.4542 15.5107 1
    endloop
  endfacet
  facet normal 0 0 1
    outer loop
      vertex -16.7913 15.3513 1
      vertex -16.7913 8.6487 1
      vertex -16.4542 8.48926 1
    endloop
  endfacet
  facet normal -0 0 1
    outer loop
      vertex -17.1112 15.1596 1
      vertex -16.7913 8.6487 1
      vertex -16.7913 15.3513 1
    endloop
  endfacet
  facet normal 0 0 1
    outer loop
      vertex -17.1112 15.1596 1
      vertex -17.1112 8.84042 1
      vertex -16.7913 8.6487 1
    endloop
  endfacet
  facet normal -0 0 1
    outer loop
      vertex -17.4107 14.9374 1
      vertex -17.1112 8.84042 1
      vertex -17.1112 15.1596 1
    endloop
  endfacet
  facet normal 0 0 1
    outer loop
      vertex -17.4107 14.9374 1
      vertex -17.4107 9.06256 1
      vertex -17.1112 8.84042 1
    endloop
  endfacet
  facet normal -0 0 1
    outer loop
      vertex -17.687 14.687 1
      vertex -17.4107 9.06256 1
      vertex -17.4107 14.9374 1
    endloop
  endfacet
  facet normal 0 0 1
    outer loop
      vertex -17.687 14.687 1
      vertex -17.687 9.31299 1
      vertex -17.4107 9.06256 1
    endloop
  endfacet
  facet normal -0 0 1
    outer loop
      vertex -17.9374 14.4107 1
      vertex -17.687 9.31299 1
      vertex -17.687 14.687 1
    endloop
  endfacet
  facet normal 0 0 1
    outer loop
      vertex -17.9374 14.4107 1
      vertex -17.9374 9.58931 1
      vertex -17.687 9.31299 1
    endloop
  endfacet
  facet normal -0 0 1
    outer loop
      vertex -18.1596 14.1112 1
      vertex -17.9374 9.58931 1
      vertex -17.9374 14.4107 1
    endloop
  endfacet
  facet normal 0 0 1
    outer loop
      vertex -18.1596 14.1112 1
      vertex -18.1596 9.88883 1
      vertex -17.9374 9.58931 1
    endloop
  endfacet
  facet normal -0 0 1
    outer loop
      vertex -18.3513 13.7913 1
      vertex -18.1596 9.88883 1
      vertex -18.1596 14.1112 1
    endloop
  endfacet
  facet normal 0 0 1
    outer loop
      vertex -18.3513 13.7913 1
      vertex -18.3513 10.2087 1
      vertex -18.1596 9.88883 1
    endloop
  endfacet
  facet normal -0 0 1
    outer loop
      vertex -18.5107 13.4542 1
      vertex -18.3513 10.2087 1
      vertex -18.3513 13.7913 1
    endloop
  endfacet
  facet normal 0 0 1
    outer loop
      vertex -18.5107 13.4542 1
      vertex -18.5107 10.5458 1
      vertex -18.3513 10.2087 1
    endloop
  endfacet
  facet normal -0 0 1
    outer loop
      vertex -18.6364 13.1031 1
      vertex -18.5107 10.5458 1
      vertex -18.5107 13.4542 1
    endloop
  endfacet
  facet normal 0 0 1
    outer loop
      vertex -18.6364 13.1031 1
      vertex -18.6364 10.8969 1
      vertex -18.5107 10.5458 1
    endloop
  endfacet
  facet normal -0 0 1
    outer loop
      vertex -18.727 12.7413 1
      vertex -18.6364 10.8969 1
      vertex -18.6364 13.1031 1
    endloop
  endfacet
  facet normal 0 0 1
    outer loop
      vertex -18.727 12.7413 1
      vertex -18.727 11.2587 1
      vertex -18.6364 10.8969 1
    endloop
  endfacet
  facet normal -0 0 1
    outer loop
      vertex -18.7817 12.3725 1
      vertex -18.727 11.2587 1
      vertex -18.727 12.7413 1
    endloop
  endfacet
  facet normal 0 0 1
    outer loop
      vertex -18.7817 12.3725 1
      vertex -18.7817 11.6275 1
      vertex -18.727 11.2587 1
    endloop
  endfacet
  facet normal 0 -0 1
    outer loop
      vertex -18.7817 11.6275 1
      vertex -18.7817 12.3725 1
      vertex -18.8 12 1
    endloop
  endfacet
  facet normal -0.998596 0.0490531 0.0199718
    outer loop
      vertex -18.8 12 1
      vertex -18.8527 12.149 -2
      vertex -18.86 12 -2
    endloop
  endfacet
  facet normal -0.998596 0.0490609 0.0199721
    outer loop
      vertex -18.8527 12.149 -2
      vertex -18.8 12 1
      vertex -18.7817 12.3725 1
    endloop
  endfacet
  facet normal -0.969837 0.242934 0.019972
    outer loop
      vertex -18.73 12.9758 -2
      vertex -18.7858 12.753 -2
      vertex -18.727 12.7413 1
    endloop
  endfacet
  facet normal -0.803047 0.595581 0.0199721
    outer loop
      vertex -17.9838 14.4488 -2
      vertex -18.1206 14.2643 -2
      vertex -17.9374 14.4107 1
    endloop
  endfacet
  facet normal -0.336821 0.941357 0.0199722
    outer loop
      vertex -16.2609 15.6435 -2
      vertex -16.1031 15.6364 1
      vertex -16.1205 15.6938 -2
    endloop
  endfacet
  facet normal -0.33682 0.941357 0.0199721
    outer loop
      vertex -16.1031 15.6364 1
      vertex -16.2609 15.6435 -2
      vertex -16.4542 15.5107 1
    endloop
  endfacet
  facet normal -0.146704 0.988979 0.0199717
    outer loop
      vertex -15.5259 15.8195 -2
      vertex -15.753 15.7858 -2
      vertex -15.7413 15.727 1
    endloop
  endfacet
  facet normal -0.0490577 0.998596 0.0199721
    outer loop
      vertex -15.149 15.8527 -2
      vertex -15.3783 15.8414 -2
      vertex -15.3725 15.7817 1
    endloop
  endfacet
  facet normal 0.98898 0.146699 0.019972
    outer loop
      vertex -11.2183 12.3725 1
      vertex -11.1725 12.4719 -2
      vertex -11.273 12.7413 1
    endloop
  endfacet
  facet normal 0.988979 0.1467 0.0199721
    outer loop
      vertex -11.1725 12.4719 -2
      vertex -11.2183 12.3725 1
      vertex -11.1586 12.3783 -2
    endloop
  endfacet
  facet normal 0.988979 0.146704 0.0199715
    outer loop
      vertex -11.273 12.7413 1
      vertex -11.1725 12.4719 -2
      vertex -11.1545 12.4655 -2.84152
    endloop
  endfacet
  facet normal 0.941357 0.336821 0.019972
    outer loop
      vertex -11.2679 13.1321 -4
      vertex -11.4893 13.4542 1
      vertex -11.3636 13.1031 1
    endloop
  endfacet
  facet normal 0.941356 0.336824 0.0199718
    outer loop
      vertex -11.3969 13.4925 -4
      vertex -11.4893 13.4542 1
      vertex -11.2679 13.1321 -4
    endloop
  endfacet
  facet normal 0.903808 0.427471 0.0199719
    outer loop
      vertex -11.5605 13.8384 -4
      vertex -11.6487 13.7913 1
      vertex -11.4893 13.4542 1
    endloop
  endfacet
  facet normal 0.903809 0.42747 0.0199718
    outer loop
      vertex -11.3969 13.4925 -4
      vertex -11.5605 13.8384 -4
      vertex -11.4893 13.4542 1
    endloop
  endfacet
  facet normal 0.740803 0.671425 0.0199721
    outer loop
      vertex -12.2423 14.7577 -4
      vertex -12.313 14.687 1
      vertex -12.0626 14.4107 1
    endloop
  endfacet
  facet normal 0.803047 0.59558 0.019972
    outer loop
      vertex -11.7573 14.1667 -4
      vertex -12.0626 14.4107 1
      vertex -11.8404 14.1112 1
    endloop
  endfacet
  facet normal 0.803047 0.595581 0.0199719
    outer loop
      vertex -11.9853 14.4741 -4
      vertex -12.0626 14.4107 1
      vertex -11.7573 14.1667 -4
    endloop
  endfacet
  facet normal 0.0490583 0.998596 0.019972
    outer loop
      vertex -14.851 15.8527 -2
      vertex -15 15.8 1
      vertex -14.6275 15.7817 1
    endloop
  endfacet
  facet normal 0.0490595 0.998596 0.0199721
    outer loop
      vertex -15 15.8 1
      vertex -14.851 15.8527 -2
      vertex -15 15.86 -2
    endloop
  endfacet
  facet normal 0.24293 0.969838 0.0199718
    outer loop
      vertex -14.2391 15.8251 -4
      vertex -14.2587 15.727 1
      vertex -13.8679 15.7321 -4
    endloop
  endfacet
  facet normal 0.595581 0.803047 0.0199719
    outer loop
      vertex -12.5259 15.0147 -4
      vertex -12.8333 15.2427 -4
      vertex -12.5893 14.9374 1
    endloop
  endfacet
  facet normal 0.671424 0.740804 0.0199719
    outer loop
      vertex -12.5259 15.0147 -4
      vertex -12.5893 14.9374 1
      vertex -12.2423 14.7577 -4
    endloop
  endfacet
  facet normal -0.146699 -0.98898 0.0199721
    outer loop
      vertex -15.5259 8.18047 -2
      vertex -15.3725 8.2183 1
      vertex -15.7413 8.27302 1
    endloop
  endfacet
  facet normal -0.146699 -0.98898 0.0199721
    outer loop
      vertex -15.3725 8.2183 1
      vertex -15.5259 8.18047 -2
      vertex -15.3783 8.15859 -2
    endloop
  endfacet
  facet normal -0.0490577 -0.998596 0.0199721
    outer loop
      vertex -15.3725 8.2183 1
      vertex -15.3783 8.15859 -2
      vertex -15.149 8.14732 -2
    endloop
  endfacet
  facet normal -0.427463 -0.903812 0.019972
    outer loop
      vertex -16.6847 8.53201 -2
      vertex -16.7913 8.6487 1
      vertex -16.8196 8.59578 -2
    endloop
  endfacet
  facet normal -0.427471 -0.903808 0.0199716
    outer loop
      vertex -16.7913 8.6487 1
      vertex -16.6847 8.53201 -2
      vertex -16.4542 8.48926 1
    endloop
  endfacet
  facet normal -0.969837 -0.242935 0.0199722
    outer loop
      vertex -18.73 11.0242 -2
      vertex -18.6364 10.8969 1
      vertex -18.727 11.2587 1
    endloop
  endfacet
  facet normal -0.969836 -0.242937 0.0199721
    outer loop
      vertex -18.6364 10.8969 1
      vertex -18.73 11.0242 -2
      vertex -18.6938 10.8795 -2
    endloop
  endfacet
  facet normal -0.969837 -0.242934 0.019972
    outer loop
      vertex -18.727 11.2587 1
      vertex -18.7858 11.247 -2
      vertex -18.73 11.0242 -2
    endloop
  endfacet
  facet normal -0.941359 -0.336815 0.0199721
    outer loop
      vertex -18.6435 10.7391 -2
      vertex -18.6364 10.8969 1
      vertex -18.6938 10.8795 -2
    endloop
  endfacet
  facet normal -0.941358 -0.336819 0.0199723
    outer loop
      vertex -18.6364 10.8969 1
      vertex -18.6435 10.7391 -2
      vertex -18.5107 10.5458 1
    endloop
  endfacet
  facet normal -0.941354 -0.336829 0.0199715
    outer loop
      vertex -18.5107 10.5458 1
      vertex -18.6435 10.7391 -2
      vertex -18.5662 10.5228 -2
    endloop
  endfacet
  facet normal -0.903807 -0.427473 0.0199722
    outer loop
      vertex -18.468 10.3153 -2
      vertex -18.3513 10.2087 1
      vertex -18.5107 10.5458 1
    endloop
  endfacet
  facet normal -0.903805 -0.427478 0.0199719
    outer loop
      vertex -18.3513 10.2087 1
      vertex -18.468 10.3153 -2
      vertex -18.4042 10.1804 -2
    endloop
  endfacet
  facet normal -0.903812 -0.427464 0.0199715
    outer loop
      vertex -18.5107 10.5458 1
      vertex -18.5662 10.5228 -2
      vertex -18.468 10.3153 -2
    endloop
  endfacet
  facet normal -0.740802 -0.671427 0.0199721
    outer loop
      vertex -17.8296 9.38109 -2
      vertex -17.687 9.31299 1
      vertex -17.9374 9.58931 1
    endloop
  endfacet
  facet normal -0.740804 -0.671424 0.0199722
    outer loop
      vertex -17.687 9.31299 1
      vertex -17.8296 9.38109 -2
      vertex -17.7294 9.27057 -2
    endloop
  endfacet
  facet normal -0.803048 -0.595579 0.0199721
    outer loop
      vertex -18.1206 9.73569 -2
      vertex -18.1596 9.88883 1
      vertex -18.2095 9.8555 -2
    endloop
  endfacet
  facet normal -0.803047 -0.59558 0.0199722
    outer loop
      vertex -18.1596 9.88883 1
      vertex -18.1206 9.73569 -2
      vertex -17.9374 9.58931 1
    endloop
  endfacet
  facet normal -0.803047 -0.595581 0.0199721
    outer loop
      vertex -17.9374 9.58931 1
      vertex -18.1206 9.73569 -2
      vertex -17.9838 9.55124 -2
    endloop
  endfacet
  facet normal 0.514001 -0.857557 0.0199719
    outer loop
      vertex -12.9834 8.71384 -2
      vertex -13.2087 8.6487 1
      vertex -13.1804 8.59578 -2
    endloop
  endfacet
  facet normal 0.0490595 -0.998596 0.0199721
    outer loop
      vertex -14.851 8.14732 -2
      vertex -15 8.2 1
      vertex -15 8.14 -2
    endloop
  endfacet
  facet normal 0.0490583 -0.998596 0.019972
    outer loop
      vertex -15 8.2 1
      vertex -14.851 8.14732 -2
      vertex -14.6275 8.2183 1
    endloop
  endfacet
  facet normal 0.242933 -0.969837 0.019972
    outer loop
      vertex -14.0242 8.26997 -2
      vertex -13.8969 8.36363 1
      vertex -14.2587 8.27302 1
    endloop
  endfacet
  facet normal 0.242931 -0.969838 0.0199721
    outer loop
      vertex -13.8969 8.36363 1
      vertex -14.0242 8.26997 -2
      vertex -13.8795 8.30621 -2
    endloop
  endfacet
  facet normal 0.336821 -0.941357 0.0199721
    outer loop
      vertex -13.7391 8.35646 -2
      vertex -13.8969 8.36363 1
      vertex -13.8795 8.30621 -2
    endloop
  endfacet
  facet normal 0.336821 -0.941357 0.0199721
    outer loop
      vertex -13.8969 8.36363 1
      vertex -13.7391 8.35646 -2
      vertex -13.5458 8.48926 1
    endloop
  endfacet
  facet normal 0.903808 -0.427471 0.0199717
    outer loop
      vertex -11.6487 10.2087 1
      vertex -11.532 10.3153 -2
      vertex -11.4893 10.5458 1
    endloop
  endfacet
  facet normal 0.90381 -0.427468 0.0199719
    outer loop
      vertex -11.532 10.3153 -2
      vertex -11.6487 10.2087 1
      vertex -11.5958 10.1804 -2
    endloop
  endfacet
  facet normal 0.740803 -0.671425 0.0199719
    outer loop
      vertex -12.313 9.31299 1
      vertex -12.1704 9.38109 -2
      vertex -12.0626 9.58931 1
    endloop
  endfacet
  facet normal 0.740807 -0.671421 0.0199722
    outer loop
      vertex -12.1704 9.38109 -2
      vertex -12.313 9.31299 1
      vertex -12.2706 9.27057 -2
    endloop
  endfacet
  facet normal 0.857557 -0.514001 0.0199719
    outer loop
      vertex -11.6487 10.2087 1
      vertex -11.7138 9.98344 -2
      vertex -11.5958 10.1804 -2
    endloop
  endfacet
  facet normal 0.998596 -0.0490577 0.0199721
    outer loop
      vertex -11.1473 11.851 -2
      vertex -11.2183 11.6275 1
      vertex -11.1586 11.6217 -2
    endloop
  endfacet
  facet normal 0.998596 -0.0490595 0.0199721
    outer loop
      vertex -11.2 12 1
      vertex -11.1473 11.851 -2
      vertex -11.14 12 -2
    endloop
  endfacet
  facet normal 0.998596 -0.0490583 0.019972
    outer loop
      vertex -11.1473 11.851 -2
      vertex -11.2 12 1
      vertex -11.2183 11.6275 1
    endloop
  endfacet
  facet normal -0.98898 0.146695 0.019972
    outer loop
      vertex -18.7858 12.753 -2
      vertex -18.8195 12.5259 -2
      vertex -18.727 12.7413 1
    endloop
  endfacet
  facet normal -0.98898 0.146699 0.0199721
    outer loop
      vertex -18.7817 12.3725 1
      vertex -18.8195 12.5259 -2
      vertex -18.8414 12.3783 -2
    endloop
  endfacet
  facet normal -0.98898 0.146696 0.0199719
    outer loop
      vertex -18.8195 12.5259 -2
      vertex -18.7817 12.3725 1
      vertex -18.727 12.7413 1
    endloop
  endfacet
  facet normal -0.903805 0.427478 0.0199719
    outer loop
      vertex -18.468 13.6847 -2
      vertex -18.3513 13.7913 1
      vertex -18.4042 13.8196 -2
    endloop
  endfacet
  facet normal -0.903807 0.427473 0.0199722
    outer loop
      vertex -18.3513 13.7913 1
      vertex -18.468 13.6847 -2
      vertex -18.5107 13.4542 1
    endloop
  endfacet
  facet normal -0.969836 0.242937 0.0199721
    outer loop
      vertex -18.73 12.9758 -2
      vertex -18.6364 13.1031 1
      vertex -18.6938 13.1205 -2
    endloop
  endfacet
  facet normal -0.969837 0.242935 0.0199722
    outer loop
      vertex -18.6364 13.1031 1
      vertex -18.73 12.9758 -2
      vertex -18.727 12.7413 1
    endloop
  endfacet
  facet normal -0.514001 0.857557 0.0199721
    outer loop
      vertex -16.8196 15.4042 -2
      vertex -17.0166 15.2862 -2
      vertex -16.7913 15.3513 1
    endloop
  endfacet
  facet normal -0.671427 0.740802 0.0199723
    outer loop
      vertex -17.6189 14.8296 -2
      vertex -17.687 14.687 1
      vertex -17.4107 14.9374 1
    endloop
  endfacet
  facet normal -0.671427 0.740801 0.0199722
    outer loop
      vertex -17.687 14.687 1
      vertex -17.6189 14.8296 -2
      vertex -17.7294 14.7294 -2
    endloop
  endfacet
  facet normal -0.336825 0.941355 0.0199717
    outer loop
      vertex -16.2609 15.6435 -2
      vertex -16.4772 15.5662 -2
      vertex -16.4542 15.5107 1
    endloop
  endfacet
  facet normal -0.427473 0.903808 0.0199717
    outer loop
      vertex -16.4772 15.5662 -2
      vertex -16.6847 15.468 -2
      vertex -16.4542 15.5107 1
    endloop
  endfacet
  facet normal -0.242934 0.969837 0.019972
    outer loop
      vertex -15.9758 15.73 -2
      vertex -16.1031 15.6364 1
      vertex -15.7413 15.727 1
    endloop
  endfacet
  facet normal -0.242931 0.969838 0.0199722
    outer loop
      vertex -16.1031 15.6364 1
      vertex -15.9758 15.73 -2
      vertex -16.1205 15.6938 -2
    endloop
  endfacet
  facet normal 0.0490577 0.998596 0.0199721
    outer loop
      vertex -14.6217 15.8414 -2
      vertex -14.851 15.8527 -2
      vertex -14.6275 15.7817 1
    endloop
  endfacet
  facet normal 0.146699 0.98898 0.019972
    outer loop
      vertex -14.2587 15.727 1
      vertex -14.5281 15.8275 -2
      vertex -14.6275 15.7817 1
    endloop
  endfacet
  facet normal 0.146704 0.988979 0.0199715
    outer loop
      vertex -14.5281 15.8275 -2
      vertex -14.2587 15.727 1
      vertex -14.5345 15.8455 -2.84152
    endloop
  endfacet
  facet normal 0.1467 0.988979 0.0199721
    outer loop
      vertex -14.6275 15.7817 1
      vertex -14.5281 15.8275 -2
      vertex -14.6217 15.8414 -2
    endloop
  endfacet
  facet normal 0.242933 0.969837 0.019972
    outer loop
      vertex -13.8679 15.7321 -4
      vertex -14.2587 15.727 1
      vertex -13.8969 15.6364 1
    endloop
  endfacet
  facet normal 0.336824 0.941356 0.0199718
    outer loop
      vertex -13.5075 15.6031 -4
      vertex -13.8679 15.7321 -4
      vertex -13.5458 15.5107 1
    endloop
  endfacet
  facet normal -0.514001 -0.857557 0.0199721
    outer loop
      vertex -16.7913 8.6487 1
      vertex -17.0166 8.71384 -2
      vertex -16.8196 8.59578 -2
    endloop
  endfacet
  facet normal -0.595579 -0.803049 0.0199719
    outer loop
      vertex -17.4107 9.06256 1
      vertex -17.4488 9.01618 -2
      vertex -17.2643 8.87939 -2
    endloop
  endfacet
  facet normal -0.671423 -0.740805 0.0199719
    outer loop
      vertex -17.4107 9.06256 1
      vertex -17.6189 9.17039 -2
      vertex -17.4488 9.01618 -2
    endloop
  endfacet
  facet normal 0.595579 -0.803049 0.0199721
    outer loop
      vertex -12.5893 9.06256 1
      vertex -12.7357 8.87939 -2
      vertex -12.5512 9.01618 -2
    endloop
  endfacet
  facet normal 0.671427 -0.740801 0.0199721
    outer loop
      vertex -12.3811 9.17039 -2
      vertex -12.5893 9.06256 1
      vertex -12.5512 9.01618 -2
    endloop
  endfacet
  facet normal 0.427471 -0.903808 0.0199717
    outer loop
      vertex -13.3153 8.53201 -2
      vertex -13.2087 8.6487 1
      vertex -13.5458 8.48926 1
    endloop
  endfacet
  facet normal 0.427468 -0.90381 0.0199719
    outer loop
      vertex -13.2087 8.6487 1
      vertex -13.3153 8.53201 -2
      vertex -13.1804 8.59578 -2
    endloop
  endfacet
  facet normal 0.427471 -0.903808 0.0199717
    outer loop
      vertex -13.3153 8.53201 -2
      vertex -13.5458 8.48926 1
      vertex -13.5228 8.43383 -2
    endloop
  endfacet
  facet normal 0.857557 -0.514001 0.0199719
    outer loop
      vertex -11.8404 9.88883 1
      vertex -11.7138 9.98344 -2
      vertex -11.6487 10.2087 1
    endloop
  endfacet
  facet normal 0.85756 -0.513996 0.0199721
    outer loop
      vertex -11.7138 9.98344 -2
      vertex -11.8404 9.88883 1
      vertex -11.7905 9.8555 -2
    endloop
  endfacet
  facet normal -0.941359 0.336815 0.0199721
    outer loop
      vertex -18.6364 13.1031 1
      vertex -18.6435 13.2609 -2
      vertex -18.6938 13.1205 -2
    endloop
  endfacet
  facet normal -0.941358 0.336819 0.0199723
    outer loop
      vertex -18.6435 13.2609 -2
      vertex -18.6364 13.1031 1
      vertex -18.5107 13.4542 1
    endloop
  endfacet
  facet normal -0.857561 0.513995 0.0199719
    outer loop
      vertex -18.2862 14.0166 -2
      vertex -18.4042 13.8196 -2
      vertex -18.3513 13.7913 1
    endloop
  endfacet
  facet normal -0.857557 0.514001 0.0199721
    outer loop
      vertex -18.2862 14.0166 -2
      vertex -18.1596 14.1112 1
      vertex -18.2095 14.1445 -2
    endloop
  endfacet
  facet normal -0.857558 0.513999 0.0199723
    outer loop
      vertex -18.1596 14.1112 1
      vertex -18.2862 14.0166 -2
      vertex -18.3513 13.7913 1
    endloop
  endfacet
  facet normal -0.903812 0.427464 0.0199715
    outer loop
      vertex -18.468 13.6847 -2
      vertex -18.5662 13.4772 -2
      vertex -18.5107 13.4542 1
    endloop
  endfacet
  facet normal -0.595579 0.803049 0.0199719
    outer loop
      vertex -17.2643 15.1206 -2
      vertex -17.4488 14.9838 -2
      vertex -17.4107 14.9374 1
    endloop
  endfacet
  facet normal -0.740804 0.671424 0.0199722
    outer loop
      vertex -17.8296 14.6189 -2
      vertex -17.687 14.687 1
      vertex -17.7294 14.7294 -2
    endloop
  endfacet
  facet normal -0.740802 0.671427 0.0199721
    outer loop
      vertex -17.687 14.687 1
      vertex -17.8296 14.6189 -2
      vertex -17.9374 14.4107 1
    endloop
  endfacet
  facet normal -0.24293 0.969838 0.0199717
    outer loop
      vertex -15.753 15.7858 -2
      vertex -15.9758 15.73 -2
      vertex -15.7413 15.727 1
    endloop
  endfacet
  facet normal 0.146701 0.988979 0.0199718
    outer loop
      vertex -14.2391 15.8251 -4
      vertex -14.5345 15.8455 -2.84152
      vertex -14.2587 15.727 1
    endloop
  endfacet
  facet normal 0.1467 0.988979 0.0199716
    outer loop
      vertex -14.5345 15.8455 -2.84152
      vertex -14.2391 15.8251 -4
      vertex -14.5434 15.8702 -4
    endloop
  endfacet
  facet normal 0.59558 0.803047 0.019972
    outer loop
      vertex -12.8333 15.2427 -4
      vertex -12.8888 15.1596 1
      vertex -12.5893 14.9374 1
    endloop
  endfacet
  facet normal 0.514001 0.857557 0.019972
    outer loop
      vertex -12.8333 15.2427 -4
      vertex -13.2087 15.3513 1
      vertex -12.8888 15.1596 1
    endloop
  endfacet
  facet normal 0.42747 0.903809 0.0199718
    outer loop
      vertex -13.5075 15.6031 -4
      vertex -13.5458 15.5107 1
      vertex -13.1616 15.4395 -4
    endloop
  endfacet
  facet normal 0.427471 0.903808 0.0199719
    outer loop
      vertex -13.1616 15.4395 -4
      vertex -13.5458 15.5107 1
      vertex -13.2087 15.3513 1
    endloop
  endfacet
  facet normal 0.336821 0.941357 0.019972
    outer loop
      vertex -13.8679 15.7321 -4
      vertex -13.8969 15.6364 1
      vertex -13.5458 15.5107 1
    endloop
  endfacet
  facet normal -0.146704 -0.988979 0.0199717
    outer loop
      vertex -15.7413 8.27302 1
      vertex -15.753 8.21417 -2
      vertex -15.5259 8.18047 -2
    endloop
  endfacet
  facet normal -0.33682 -0.941357 0.0199721
    outer loop
      vertex -16.2609 8.35646 -2
      vertex -16.1031 8.36363 1
      vertex -16.4542 8.48926 1
    endloop
  endfacet
  facet normal -0.336821 -0.941357 0.0199722
    outer loop
      vertex -16.1031 8.36363 1
      vertex -16.2609 8.35646 -2
      vertex -16.1205 8.30621 -2
    endloop
  endfacet
  facet normal -0.242931 -0.969838 0.0199722
    outer loop
      vertex -15.9758 8.26997 -2
      vertex -16.1031 8.36363 1
      vertex -16.1205 8.30621 -2
    endloop
  endfacet
  facet normal -0.242934 -0.969837 0.019972
    outer loop
      vertex -16.1031 8.36363 1
      vertex -15.9758 8.26997 -2
      vertex -15.7413 8.27302 1
    endloop
  endfacet
  facet normal -0.336825 -0.941355 0.0199717
    outer loop
      vertex -16.4542 8.48926 1
      vertex -16.4772 8.43383 -2
      vertex -16.2609 8.35646 -2
    endloop
  endfacet
  facet normal -0.427473 -0.903808 0.0199717
    outer loop
      vertex -16.4542 8.48926 1
      vertex -16.6847 8.53201 -2
      vertex -16.4772 8.43383 -2
    endloop
  endfacet
  facet normal -0.59558 -0.803047 0.0199718
    outer loop
      vertex -17.2643 8.87939 -2
      vertex -17.1112 8.84042 1
      vertex -17.4107 9.06256 1
    endloop
  endfacet
  facet normal -0.595586 -0.803043 0.0199721
    outer loop
      vertex -17.1112 8.84042 1
      vertex -17.2643 8.87939 -2
      vertex -17.1445 8.79053 -2
    endloop
  endfacet
  facet normal -0.513999 -0.857558 0.0199721
    outer loop
      vertex -17.0166 8.71384 -2
      vertex -17.1112 8.84042 1
      vertex -17.1445 8.79053 -2
    endloop
  endfacet
  facet normal -0.514001 -0.857557 0.019972
    outer loop
      vertex -17.1112 8.84042 1
      vertex -17.0166 8.71384 -2
      vertex -16.7913 8.6487 1
    endloop
  endfacet
  facet normal 0.514001 -0.857557 0.0199719
    outer loop
      vertex -12.9834 8.71384 -2
      vertex -12.8888 8.84042 1
      vertex -13.2087 8.6487 1
    endloop
  endfacet
  facet normal 0.513996 -0.85756 0.0199721
    outer loop
      vertex -12.8888 8.84042 1
      vertex -12.9834 8.71384 -2
      vertex -12.8555 8.79053 -2
    endloop
  endfacet
  facet normal 0.595583 -0.803045 0.0199721
    outer loop
      vertex -12.7357 8.87939 -2
      vertex -12.8888 8.84042 1
      vertex -12.8555 8.79053 -2
    endloop
  endfacet
  facet normal 0.59558 -0.803047 0.019972
    outer loop
      vertex -12.8888 8.84042 1
      vertex -12.7357 8.87939 -2
      vertex -12.5893 9.06256 1
    endloop
  endfacet
  facet normal -0.740801 0.671427 0.0199721
    outer loop
      vertex -17.8296 14.6189 -2
      vertex -17.9838 14.4488 -2
      vertex -17.9374 14.4107 1
    endloop
  endfacet
  facet normal -0.941354 0.336829 0.0199715
    outer loop
      vertex -18.5662 13.4772 -2
      vertex -18.6435 13.2609 -2
      vertex -18.5107 13.4542 1
    endloop
  endfacet
  facet normal -0.514001 0.857557 0.019972
    outer loop
      vertex -17.0166 15.2862 -2
      vertex -17.1112 15.1596 1
      vertex -16.7913 15.3513 1
    endloop
  endfacet
  facet normal -0.513999 0.857558 0.0199721
    outer loop
      vertex -17.1112 15.1596 1
      vertex -17.0166 15.2862 -2
      vertex -17.1445 15.2095 -2
    endloop
  endfacet
  facet normal -0.595586 0.803043 0.0199721
    outer loop
      vertex -17.2643 15.1206 -2
      vertex -17.1112 15.1596 1
      vertex -17.1445 15.2095 -2
    endloop
  endfacet
  facet normal -0.59558 0.803047 0.0199718
    outer loop
      vertex -17.1112 15.1596 1
      vertex -17.2643 15.1206 -2
      vertex -17.4107 14.9374 1
    endloop
  endfacet
  facet normal -0.671423 0.740805 0.0199719
    outer loop
      vertex -17.4488 14.9838 -2
      vertex -17.6189 14.8296 -2
      vertex -17.4107 14.9374 1
    endloop
  endfacet
endsolid OpenSCAD_Model
